<?xml version="1.0" encoding="UTF-8" standalone="no"?>
<!-- Created with Inkscape (http://www.inkscape.org/) -->

<svg
   xmlns:dc="http://purl.org/dc/elements/1.1/"
   xmlns:cc="http://creativecommons.org/ns#"
   xmlns:rdf="http://www.w3.org/1999/02/22-rdf-syntax-ns#"
   xmlns:svg="http://www.w3.org/2000/svg"
   xmlns="http://www.w3.org/2000/svg"
   version="1.1"
   width="280"
   height="200"
   id="svg2"
   xml:space="preserve"><metadata
     id="metadata8"><rdf:RDF><cc:Work
         rdf:about=""><dc:format>image/svg+xml</dc:format><dc:type
           rdf:resource="http://purl.org/dc/dcmitype/StillImage" /><dc:title></dc:title></cc:Work></rdf:RDF></metadata><defs
     id="defs6" /><g
     transform="matrix(1.25,0,0,-1.25,-20.4725,220.47249)"
     id="g10"><g
       transform="matrix(0.0830065,0,0,0.0830065,48.378,16.378)"
       id="g12"><path
         d="m 0,0 1927.56,0 0,1927.56 L 0,1927.56 0,0 z"
         id="path14"
         style="fill:#ffffff;fill-opacity:1;fill-rule:evenodd;stroke:none" /><path
         d="m 1834.09,1240.41 c -17.9,28.66 -60.88,38.21 -128.93,27.47 l -459.65,-65.67 179.08,62.08 L 493.352,1137.74 250.992,848.82 477.832,933.582 85.0391,655.406 1540.4,897.773 c 58.5,9.547 97.89,29.844 119.39,60.883 l 62.08,76.414 c 15.52,15.52 23.88,32.23 22.68,51.33 l 26.27,4.78 51.34,62.09 1.19,1.18 0,1.2 c 5.97,8.36 11.94,19.1 15.52,31.04 5.97,20.3 4.77,38.2 -4.78,53.72"
         id="path16"
         style="fill:#948668;fill-opacity:1;fill-rule:evenodd;stroke:none" /><path
         d="m 1618,870.313 14.33,0 0,-34.625 9.55,0 0,34.625 13.13,0 0,9.55 -37.01,0 0,-9.55"
         id="path18"
         style="fill:#0e2b58;fill-opacity:1;fill-rule:evenodd;stroke:none" /><path
         d="m 1686.05,853.59 -10.74,26.273 -15.52,0 0,-44.175 9.55,0 0,34.625 13.13,-34.625 5.97,0 13.13,34.625 0,-34.625 9.56,0 0,44.175 -15.52,0 -9.56,-26.273"
         id="path20"
         style="fill:#0e2b58;fill-opacity:1;fill-rule:evenodd;stroke:none" /><path
         d="m 1237.15,1217.73 -733.052,-100.28 -1.196,0 -183.859,-220.876 2.391,1.199 193.41,71.629 75.215,16.715 -413.09,-291.312 0,-2.387 1353.881,228.039 c 34.62,5.965 65.66,17.906 90.74,35.813 l 20.29,17.91 64.47,75.21 c 5.97,4.78 9.55,10.75 13.13,17.91 5.97,13.13 5.97,23.88 -2.38,34.62 l 41.78,9.55 0,0 47.76,56.12 c 16.71,25.07 20.29,45.37 9.55,60.89 -13.14,20.29 -48.95,27.45 -108.64,19.1 l -596.95,-87.15 126.55,56.11 0,1.19"
         id="path22"
         style="fill:#0e2b58;fill-opacity:1;fill-rule:evenodd;stroke:none" /><path
         d="m 1029.41,1116.25 140.88,21.49 -138.49,-164.756 -96.702,-14.328 120.582,142.074 -26.27,15.52 0,0"
         id="path24"
         style="fill:#948668;fill-opacity:1;fill-rule:evenodd;stroke:none" /><path
         d="m 1176.26,1138.93 27.46,-14.32 -214.9,-255.489 96.71,14.32 82.38,99.094 130.13,20.295 c 41.78,7.17 71.63,22.69 90.73,47.76 l 65.67,78.8 c 33.43,39.4 21.49,54.91 -37.01,46.56 l -100.29,-16.72 0,1.2 -140.88,-21.5 0,0 z m 34.62,-105.05 64.47,75.21 90.74,14.32 -63.27,-74.02 -91.94,-15.51 0,0"
         id="path26"
         style="fill:#948668;fill-opacity:1;fill-rule:evenodd;stroke:none" /><path
         d="m 1442.5,1076.85 77.6,93.13 -27.46,15.52 241.17,35.81 c 58.5,9.56 70.44,-5.96 37.01,-45.36 l -27.46,-33.43 -96.7,-15.52 35.81,42.98 -90.74,-14.33 -59.69,-70.44 102.67,17.91 c 58.5,10.74 70.45,-4.78 37.02,-45.37 l -51.34,-60.891 c -10.75,-19.097 -29.85,-31.043 -57.3,-37.004 l -432.2,-70.441 42.99,51.332 365.32,59.694 41.79,48.95 -101.48,-16.71 c -58.5,-10.75 -71.63,4.77 -37.01,44.17 l 0,0"
         id="path28"
         style="fill:#948668;fill-opacity:1;fill-rule:evenodd;stroke:none" /><path
         d="m 426.496,971.789 83.57,32.241 237.586,42.97 -361.754,-242.359 158.793,27.461 -234.003,-74.016 643.507,103.863 75.215,88.356 -372.492,-63.278 346.222,231.613 -156.394,-25.07 230.414,70.44 -556.347,-81.19 -94.317,-111.031 0,0"
         id="path30"
         style="fill:#948668;fill-opacity:1;fill-rule:evenodd;stroke:none" /></g></g></svg>