<?xml version="1.0" encoding="UTF-8" standalone="no"?>
<!-- Created with Inkscape (http://www.inkscape.org/) -->

<svg
   xmlns:dc="http://purl.org/dc/elements/1.1/"
   xmlns:cc="http://creativecommons.org/ns#"
   xmlns:rdf="http://www.w3.org/1999/02/22-rdf-syntax-ns#"
   xmlns:svg="http://www.w3.org/2000/svg"
   xmlns="http://www.w3.org/2000/svg"
   version="1.1"
   width="280"
   height="200"
   id="svg2"
   xml:space="preserve"><metadata
     id="metadata8"><rdf:RDF><cc:Work
         rdf:about=""><dc:format>image/svg+xml</dc:format><dc:type
           rdf:resource="http://purl.org/dc/dcmitype/StillImage" /><dc:title></dc:title></cc:Work></rdf:RDF></metadata><defs
     id="defs6" /><g
     transform="matrix(1.25,0,0,-1.25,-20.4725,220.47249)"
     id="g10"><g
       transform="matrix(0.0830065,0,0,0.0830065,46.778,16.378)"
       id="g12"><path
         d="m 0,0 1927.56,0 0,1927.56 L 0,1927.56 0,0 z"
         id="path14"
         style="fill:#ffffff;fill-opacity:1;fill-rule:evenodd;stroke:none" /><path
         d="m 1549.31,681.762 -33.78,33.785 -593.714,655.653 0.184,-105.49 203.85,-209.48 -202.721,163.3 0.559,-92.35 L 1115.15,930.652 922,1087.2 c 0,-42.61 10.141,-57.44 24.215,-82.22 l -60.531,0 c -16.899,8.45 -34.356,47.59 -34.356,77.15 0,29.57 0,251.44 0,251.44 l -21.117,21.11 -0.367,-274.43 c 0,-56.3 32.961,-75.27 32.961,-75.27 l -77.075,1.13 c -15.488,9.85 -32.378,42.94 -32.378,73.91 0,26.04 0,158.38 0,158.38 l -23.375,23.37 -1.122,-189.21 C 727.73,1007.8 849.828,925.684 849.828,925.684 l 0.66,-67.391 -123.183,102.066 -0.141,-56.738 117.691,-98.824 -116,66.164 0,-60.813 c 38.856,-34.351 82.215,-64.761 118.817,-98.546 -38.856,24.214 -79.402,43.925 -118.817,65.882 l -0.14,-50.113 c 0,0 80.101,-64.762 118.957,-98.547 l -7.883,1.688 c -36.605,23.093 -73.203,45.051 -110.934,64.761 -6.125,-84.753 127.262,-152.324 127.262,-152.324 0,0 -42.234,-29.566 -76.019,-21.117 -33.785,8.445 -90.102,59.125 -100.235,73.207 l -58.258,33.785 0,-47.867 181.579,-139.652 c 0,0 -122.758,68.144 -179.629,101.363 -1.692,-33.785 19.14,-64.195 45.613,-85.027 L 799.242,357.406 c -20.269,-20.836 -61.383,-24.218 -78.269,-15.769 -16.895,8.445 -81.657,45.051 -81.657,45.051 0,0 59.129,-101.36 78.836,-129.52 19.707,-28.152 67.578,-33.785 104.18,16.895 36.602,50.679 81.652,87.285 101.356,106.992 19.714,19.707 90.102,33.789 90.102,33.789 0,0 -53.493,42.23 -59.122,56.308 l 0,53.5 c 5.629,19.707 76.022,56.305 76.022,56.305 0,0 -39.424,33.785 -39.424,76.023 0,42.235 0,87.282 0,87.282 l -76.02,61.945 0,71.914 309.304,-244.074 c 0,0 242.78,0.41 272.81,0.41 30.03,0 55.14,12.199 51.95,47.305"
         id="path16"
         style="fill:#eb2a3d;fill-opacity:1;fill-rule:evenodd;stroke:none" /><path
         d="m 617.918,1004.98 39.699,-32.417 c 0,20.007 0,32.417 0,32.417 l -39.699,0"
         id="path18"
         style="fill:#eb2a3d;fill-opacity:1;fill-rule:evenodd;stroke:none" /><path
         d="m 621.605,967.75 0,-54.551 36.012,-22.824 c 0,20.016 0,38.691 0,54.961 l -36.012,22.414"
         id="path20"
         style="fill:#eb2a3d;fill-opacity:1;fill-rule:evenodd;stroke:none" /><path
         d="m 621.605,828.848 36.012,-22.368 c 0,18.418 0,37.004 0,55.043 l -36.012,21.407 0,-54.082"
         id="path22"
         style="fill:#eb2a3d;fill-opacity:1;fill-rule:evenodd;stroke:none" /><path
         d="m 621.605,799.871 0,-48.566 36.012,-26.164 c 0,16.527 0,34.398 0,52.91 l -36.012,21.82"
         id="path24"
         style="fill:#eb2a3d;fill-opacity:1;fill-rule:evenodd;stroke:none" /><path
         d="m 621.605,661.906 36.012,-26.043 c 0,5.352 0,27.774 0,59.117 l -36.012,22.536 0,-55.61"
         id="path26"
         style="fill:#eb2a3d;fill-opacity:1;fill-rule:evenodd;stroke:none" /><path
         d="m 711.586,1474.43 -0.188,-66.82 -313.656,317.59 c -34.914,42.24 -75.176,88.41 -77.992,142.48 l 391.836,-393.25"
         id="path28"
         style="fill:#231f20;fill-opacity:1;fill-rule:evenodd;stroke:none" /><path
         d="m 620.738,1430.7 0.746,-68.89 -234.441,240.08 c -25.902,38.85 -63.07,70.1 -62.5,127.26 L 620.738,1430.7"
         id="path30"
         style="fill:#231f20;fill-opacity:1;fill-rule:evenodd;stroke:none" /><path
         d="m 618.672,1302.68 -1.875,-62.88 c -96.297,102.49 -213.988,205.54 -274.52,298.45 -5.066,12.96 -22.246,43.36 -17.734,58.57 l 294.129,-294.14"
         id="path32"
         style="fill:#231f20;fill-opacity:1;fill-rule:evenodd;stroke:none" /><path
         d="m 1478.92,877.719 c 81.65,-91.219 145.85,-220.176 98.54,-344.625 -9.57,-24.211 -29.28,-46.18 -50.11,-63.629 55.19,-106.992 94.04,-228.063 76.02,-359.27 L 1299.29,351.77 c -18.58,8.453 -38.29,17.457 -59.69,13.515 l 70.39,-59.125 228.06,-185.265 0,-2.817 c -138.53,-21.3983 -269.17,15.77 -390.24,56.879 -16.33,-10.699 -33.22,-18.019 -52.93,-20.273 -85.03,-2.254 -205.54,-1.129 -298.454,-1.129 -41.668,5.633 -87.848,20.269 -105.301,64.758 L 563.301,435.957 c -15.207,32.66 -20.836,75.18 -19.711,114.031 l 1.129,487.092 108.679,0 -5.632,50.68 0,314.22 88.152,-87.56 0.187,199.31 101.149,-101.33 0.098,185.36 641.568,-720.041 0,0 z m -628.432,688.131 0,-176.45 -99.48,89.02 -0.121,-200.26 -89.887,90.32 -0.094,-252.56 c 0,0 -2.629,-65.32 11.258,-90.1 l -114.5,0 0,-503.988 c 0,-38.012 15.77,-76.582 15.77,-76.582 L 688.309,252.102 c 13.511,-18.582 23.089,-42.797 45.609,-54.059 25.344,-13.516 59.129,-10.141 83.91,1.125 l 193.152,186.391 c 30.41,21.961 72.07,31.535 108.11,23.086 -28.72,29.285 -70.39,46.742 -88.97,83.91 0.57,18.011 -0.84,43.355 -0.84,43.355 1.41,11.266 9.85,14.078 19.99,13.512 l 137.68,0.566 c 12.67,-0.566 19.7,9.852 21.12,21.121 0,11.258 -1.42,33.786 -1.42,33.786 l -77.99,57.714 -0.84,-39.414 c 2.73,-9.3 14.88,-16.293 19.71,-16.894 l 40.83,0 0,-36.602 c 0,0 -70.4,-2.816 -103.05,6.758 -64.2,28.715 -55.19,101.922 -55.19,164.988 l -114.874,88.692 0,47.984 c 0,0 323.794,-254.926 335.054,-263.937 11.26,-9.012 25.9,-7.883 25.9,-7.883 l 272.55,0 c 0,0 17.73,0 26.75,28.156 9.01,28.152 -34.07,145.84 -79.12,202.723 l -645.892,728.67 0,0 z M 1492.44,454.258 c -84.47,-38.008 -157.11,28.719 -250.59,-4.223 -19.71,-7.035 -47.86,-16.894 -47.86,-16.894 l 1.12,-28.434 c 38.86,-2.254 83.34,1.688 116,-19.148 l 223,-177.946 40.54,-29.843 c -1.69,104.175 -27.59,194.839 -82.21,276.488 l 0,0 z M 1249.17,304.473 c -13.51,-39.981 -57.44,-76.586 -94.6,-90.102 92.91,-34.914 190.9,-65.324 294.51,-67.574 l -199.91,157.676"
         id="path34"
         style="fill:#231f20;fill-opacity:1;fill-rule:evenodd;stroke:none" /><path
         d="m 1500.32,793.816 c 25.34,-33.789 43.36,-70.39 48.99,-112.054 l -33.78,33.785 -593.714,655.653 0.184,-105.49 203.85,-209.48 -202.721,163.3 0.559,-92.35 L 1115.15,930.652 922,1087.2 c 0,-42.61 10.141,-57.44 24.215,-82.22 l -42.231,0.19 c 0,0 -33.226,25.34 -33.226,83.53 l 0.379,408.26 629.183,-703.144"
         id="path36"
         style="fill:#231f20;fill-opacity:1;fill-rule:evenodd;stroke:none" /><path
         d="m 830.211,1354.68 -0.367,-274.43 c 0,-56.3 32.961,-75.27 32.961,-75.27 l -55.375,0.19 c 0,0 -28.27,13.15 -28.27,108.87 l -0.187,293.57 51.238,-52.93"
         id="path38"
         style="fill:#231f20;fill-opacity:1;fill-rule:evenodd;stroke:none" /><path
         d="m 729.977,1261.77 -1.122,-189.21 C 727.73,1007.8 849.828,925.684 849.828,925.684 l 0.66,-42.047 -123.183,101.359 -0.141,-81.375 117.691,-98.824 -116,66.164 0,-60.813 c 38.856,-34.351 82.215,-64.761 118.817,-98.546 -38.856,24.214 -79.402,43.925 -118.817,65.882 l -0.14,-50.113 c 0,0 80.101,-64.762 118.957,-98.547 l -7.883,1.688 C 803.184,653.605 766.586,675.563 728.855,695.273 722.73,610.52 856.117,542.949 856.117,542.949 805.438,500.715 752.504,553.93 713.648,584.34 c -24.773,28.715 -34.914,63.629 -37.726,101.359 l 0,319.471 33.785,0 c -13.504,11.41 -24.875,49.38 -28.762,93.97 l 0.469,212.32 48.563,-49.69"
         id="path40"
         style="fill:#231f20;fill-opacity:1;fill-rule:evenodd;stroke:none" /><path
         d="m 617.918,1004.98 39.086,-31.597 0.238,-27.153 -35.637,21.52 0,-54.551 35.336,-21.746 0.211,-28.937 -35.547,20.414 0,-54.082 36.063,-22.399 -0.051,-28.398 -36.012,21.82 0,-48.566 35.547,-25.696 0,-30.031 -35.547,21.938 0,-55.61 37.118,-26.84 c -0.403,-18.211 21.14,-40.027 21.14,-40.027 l -58.258,33.785 0,-47.867 181.579,-139.652 c 0,0 -122.758,68.144 -179.629,101.363 -1.692,-33.785 19.14,-64.195 45.613,-85.027 L 799.242,357.406 c 0,0 -11.262,-7.324 -16.332,-10.699 -71.512,-3.945 -115.437,59.688 -170.625,95.723 -23.644,20.84 -27.871,53.777 -36.316,80.812 l 0.281,481.928 41.668,-0.19"
         id="path42"
         style="fill:#231f20;fill-opacity:1;fill-rule:evenodd;stroke:none" /><path
         d="m 621.73,235.57 c 6.411,-6.453 9.622,-14.246 9.622,-23.382 0,-9.208 -3.211,-17.051 -9.622,-23.536 -6.421,-6.488 -14.214,-9.73 -23.386,-9.73 -9.172,0 -16.965,3.242 -23.379,9.73 -6.383,6.485 -9.57,14.328 -9.57,23.536 0,9.136 3.207,16.929 9.621,23.382 6.449,6.485 14.23,9.727 23.328,9.727 9.136,0 16.929,-3.242 23.386,-9.727 l 0,0 z m 3.817,3.711 c -7.5,7.465 -16.57,11.196 -27.203,11.196 -10.563,0 -19.578,-3.731 -27.039,-11.196 -7.5,-7.496 -11.246,-16.527 -11.246,-27.093 0,-10.668 3.711,-19.758 11.14,-27.254 7.461,-7.532 16.512,-11.293 27.145,-11.293 10.633,0 19.703,3.761 27.203,11.293 7.496,7.535 11.246,16.617 11.246,27.254 0,10.601 -3.75,19.628 -11.246,27.093 l 0,0 z m -21.5,-25.316 c -1.57,-0.625 -3.922,-0.942 -7.063,-0.942 l -6.691,0 0,15.274 6.328,0 c 4.113,0 7.106,-0.524 8.969,-1.567 1.867,-1.046 2.801,-3.105 2.801,-6.171 0,-3.246 -1.45,-5.442 -4.344,-6.594 l 0,0 z m -21.184,-22.75 7.43,0 0,16.633 5.855,0 c 3.942,0 6.696,-0.461 8.266,-1.36 2.649,-1.57 3.977,-4.793 3.977,-9.679 l 0,-3.348 0.156,-1.359 c 0.035,-0.176 0.066,-0.332 0.105,-0.469 0.036,-0.145 0.067,-0.281 0.106,-0.418 l 6.957,0 -0.266,0.523 c -0.176,0.344 -0.301,1.078 -0.363,2.196 -0.074,1.109 -0.106,2.156 -0.106,3.136 l 0,3.086 c 0,2.125 -0.773,4.305 -2.3,6.539 -1.539,2.231 -3.961,3.61 -7.27,4.133 2.613,0.418 4.653,1.098 6.121,2.043 2.75,1.777 4.129,4.547 4.129,8.313 0,5.304 -2.176,8.855 -6.539,10.671 -2.441,1.012 -6.277,1.516 -11.508,1.516 l -14.75,0 0,-42.156"
         id="path44"
         style="fill:#231f20;fill-opacity:1;fill-rule:evenodd;stroke:none" /></g></g></svg>