<?xml version="1.0" encoding="UTF-8" standalone="no"?>
<!-- Created with Inkscape (http://www.inkscape.org/) -->

<svg
   xmlns:dc="http://purl.org/dc/elements/1.1/"
   xmlns:cc="http://creativecommons.org/ns#"
   xmlns:rdf="http://www.w3.org/1999/02/22-rdf-syntax-ns#"
   xmlns:svg="http://www.w3.org/2000/svg"
   xmlns="http://www.w3.org/2000/svg"
   version="1.1"
   width="280"
   height="200"
   id="svg2"
   xml:space="preserve"><metadata
     id="metadata8"><rdf:RDF><cc:Work
         rdf:about=""><dc:format>image/svg+xml</dc:format><dc:type
           rdf:resource="http://purl.org/dc/dcmitype/StillImage" /><dc:title></dc:title></cc:Work></rdf:RDF></metadata><defs
     id="defs6" /><g
     transform="matrix(1.25,0,0,-1.25,-20.4725,220.47249)"
     id="g10"><g
       transform="matrix(0.0830065,0,0,0.0830065,46.778,16.378)"
       id="g12"><path
         d="m 0,0 1927.56,0 0,1927.56 L 0,1927.56 0,0 z"
         id="path14"
         style="fill:#ffffff;fill-opacity:1;fill-rule:evenodd;stroke:none" /><path
         d="M 341.914,593.426 85.0391,529.215 673.715,1657.34 c 49.234,81.34 162.691,160.55 269.723,158.4 132.692,-2.65 346.792,0 372.472,0 109.18,0 171.27,-85.61 192.67,-124.14 21.41,-38.54 92.04,-164.84 92.04,-164.84 94.19,4.27 117.74,-36.38 134.87,-66.36 23.75,-41.57 107.03,-207.64 107.03,-207.64 l -38.53,-19.27 c -29.98,42.82 -53.53,89.92 -111.32,89.92 -51.37,0 -603.67,0 -603.67,0 l -149.832,201.22 604.722,0 c -20.34,40.66 -48.16,81.33 -112.38,81.33 -64.22,0 -492.342,0 -492.342,0 -68.508,0 -89.922,-59.93 -102.762,-77.06 -12.832,-17.13 -464.508,-875.533 -464.508,-875.533 77.047,17.133 186.219,44.957 186.219,44.957 74.93,10.715 171.262,-17.121 209.793,-51.379 38.531,-34.257 423.86,-344.629 423.86,-344.629 87.76,-74.933 169.1,-114.539 341.42,-72.796 8.55,-31.036 13.93,-44.946 13.93,-44.946 l -261.17,-64.238 c -98.48,-29.9493 -235.48,25.684 -274,59.949 -38.54,34.246 -415.29,342.5 -415.29,342.5 -85.629,72.781 -139.156,87.774 -254.746,70.641"
         id="path16"
         style="fill:#f3652c;fill-opacity:1;fill-rule:evenodd;stroke:none" /><path
         d="m 1114.7,415.754 111.32,-85.621 c 0,0 38.52,-32.117 70.64,-44.949 12.84,51.375 199.07,854.116 199.07,854.116 17.13,68.49 79.2,85.63 104.89,89.91 6.42,23.55 10.7,47.1 10.7,47.1 l -214.06,0 c -47.1,0 -92.06,-59.93 -98.49,-85.64 -0.71,-2.94 -184.07,-774.916 -184.07,-774.916"
         id="path18"
         style="fill:#f3652c;fill-opacity:1;fill-rule:evenodd;stroke:none" /><path
         d="m 390.375,431.855 -8.383,0 0,39.282 14.653,0 c 10.136,0 16.101,-2.883 16.101,-11.883 0,-7.223 -4.223,-9.828 -9.445,-10.219 l 10.043,-17.18 -9.961,0 -9.047,16.508 -3.961,0 0,-16.508 z m 7.43,23.161 c 3.75,0 5.98,0.785 5.98,5.101 0,4.071 -4.355,4.363 -7.515,4.363 l -5.895,0 0,-9.464 7.43,0 z m -1.356,-40.036 c -19.386,0 -36.672,13.411 -36.672,36.473 0,23.063 17.286,36.465 36.672,36.465 19.293,0 36.567,-13.402 36.567,-36.465 0,-23.062 -17.274,-36.473 -36.567,-36.473 z m 0,64.442 c -14.457,0 -26.152,-11.168 -26.152,-27.969 0,-16.781 11.695,-28.07 26.152,-27.98 l 0,-0.09 c 14.086,0 26.051,11.289 26.051,28.07 0,16.801 -11.965,27.969 -26.051,27.969"
         id="path20"
         style="fill:#f3652c;fill-opacity:1;fill-rule:evenodd;stroke:none" /></g></g></svg>