<?xml version="1.0" encoding="UTF-8" standalone="no"?>
<!-- Created with Inkscape (http://www.inkscape.org/) -->

<svg
   xmlns:dc="http://purl.org/dc/elements/1.1/"
   xmlns:cc="http://creativecommons.org/ns#"
   xmlns:rdf="http://www.w3.org/1999/02/22-rdf-syntax-ns#"
   xmlns:svg="http://www.w3.org/2000/svg"
   xmlns="http://www.w3.org/2000/svg"
   version="1.0"
   width="280"
   height="200"
   id="svg2"
   xml:space="preserve"
   style="overflow:visible"><metadata
     id="metadata7"><rdf:RDF><cc:Work
         rdf:about=""><dc:format>image/svg+xml</dc:format><dc:type
           rdf:resource="http://purl.org/dc/dcmitype/StillImage" /><dc:title></dc:title></cc:Work></rdf:RDF></metadata><defs
     id="defs16" /><path
     d="m 255.98136,118.48395 0,-0.27525 c 11.18177,-2.07096 21.53421,-9.52548 21.53421,-21.81066 0,-17.5305 -15.7372,-25.95139 -34.50931,-26.08961 l -43.59247,-0.394241 0,-25.119637 c 0,-3.901543 1.5373,-6.146794 5.43764,-6.146794 l 15.6218,0 0,-12.781578 -70.80711,0 0,12.780377 17.70718,0 c 3.90034,0 5.43644,2.246452 5.43644,6.146793 l 0,25.120839 -90.287181,0 0,13.691461 17.957191,0 c 3.92919,0 5.47731,5.7237 5.47731,9.65289 l 0,20.55341 c -33.640294,0 -37.964925,-16.80211 -37.964925,-31.08733 l 0,-37.930068 c 0,-3.901543 4.132318,-6.146794 8.033861,-6.146794 l 14.126567,0 0,-12.781578 -90.152563,0 0,12.781578 17.233617,0 c 3.900341,0 5.436438,2.245251 5.436438,6.146794 l 0,37.323078 c 0,30.758 31.857792,42.78956 83.285795,42.78956 l 0,25.70018 c 0,4.04817 -2.38107,6.19126 -6.191262,6.19126 l -15.511216,0 0,12.82606 157.785308,0.34855 c 0.96758,0 37.96132,1.93276 37.96132,-27.05596 0,-14.21792 -10.76711,-22.63881 -24.01864,-24.43333 z m -56.56757,-28.83007 0,-5.33067 24.03187,0 c 11.95824,0 20.15316,3.0722 20.15316,14.0232 0,9.72381 -10.46421,15.00159 -20.15316,13.84771 l -35.65838,0 c 8.09157,-6.04943 11.62651,-15.10135 11.62651,-22.54024 z m -48.81015,-5.33067 22.2073,0 0,7.08913 c 0,8.70936 -5.43163,20.70125 -22.2073,20.70125 l 0,-27.79038 z m 73.80358,71.75665 -73.80358,0 0,-30.24596 73.80358,0.0192 c 9.6565,0 20.41279,2.79454 20.41279,17.46438 0.001,11.77315 -14.60254,12.76235 -20.41279,12.76235 z"
     id="path13"
     style="fill:#041a9b;fill-opacity:1" /></svg>