<?xml version="1.0" encoding="UTF-8" standalone="no"?>
<!-- Created with Inkscape (http://www.inkscape.org/) -->

<svg
   xmlns:dc="http://purl.org/dc/elements/1.1/"
   xmlns:cc="http://creativecommons.org/ns#"
   xmlns:rdf="http://www.w3.org/1999/02/22-rdf-syntax-ns#"
   xmlns:svg="http://www.w3.org/2000/svg"
   xmlns="http://www.w3.org/2000/svg"
   version="1.1"
   width="279.99997"
   height="200"
   id="svg2"
   xml:space="preserve"><metadata
     id="metadata8"><rdf:RDF><cc:Work
         rdf:about=""><dc:format>image/svg+xml</dc:format><dc:type
           rdf:resource="http://purl.org/dc/dcmitype/StillImage" /><dc:title></dc:title></cc:Work></rdf:RDF></metadata><defs
     id="defs6"><clipPath
       id="clipPath52"><path
         d="m 0,2520 2520,0 L 2520,0 0,0 0,2520 z"
         id="path54" /></clipPath></defs><g
     transform="matrix(1.25,0,0,-1.25,-1466.936,1698.6961)"
     id="g10"><g
       transform="matrix(0.10475327,0,0,0.10475327,1252.6513,1341.2351)"
       id="g12"><path
         d="m 0,0 358.319,158.663 766.728,0 L 1342.157,0 l -165.484,-360.569 -564.002,0 113.027,251.9 -206.779,0 -299.61,-667.027 207.1,0 116.19,258.953 576.213,0 -166.662,-368.973 -357.376,-158.249 -775.61,0 -215.137,161.46 51.755,115.347 242.053,0 15.449,33.241 -555.628,0 33.409,72.204 311.97,0 44.578,99.213 404.716,0 13.447,29.979 -846.648,0 46.857,104.436 442.445,0 108.025,241.884 163.377,0 13.398,31.499 -572.392,0 32.136,71.547 409.713,0 L 0,0 z"
         id="path14"
         style="fill:#8d3149;fill-opacity:1;fill-rule:nonzero;stroke:none" /></g><g
       transform="matrix(0.10475327,0,0,0.10475327,1179.3859,1219.2416)"
       id="g16"><path
         d="m 0,0 1726.552,0 -55.728,-124.194 -1726.546,0 L 0,0 z"
         id="path18"
         style="fill:#8d3149;fill-opacity:1;fill-rule:nonzero;stroke:none" /></g><g
       transform="matrix(0.10475327,0,0,0.10475327,1177.9322,1203.9834)"
       id="g20"><path
         d="m 0,0 -19.107,-39.212 1745.556,0 82.906,184.87 -43.943,0 L 1700.042,-0.021 0,0 z"
         id="path22"
         style="fill:#fdd32b;fill-opacity:1;fill-rule:nonzero;stroke:none" /></g><g
       transform="matrix(0.10475327,0,0,0.10475327,1370.0626,1280.8355)"
       id="g24"><path
         d="m 0,0 49.965,0 -164.412,-366.422 -381.801,-169.909 -828.012,0 -198.255,149.753 18.454,41.119 187.896,-141.019 807.332,0 356.431,157.365 L 0,0 z"
         id="path26"
         style="fill:#fdd32b;fill-opacity:1;fill-rule:nonzero;stroke:none" /></g><g
       transform="matrix(0.10475327,0,0,0.10475327,1216.5933,1260.8729)"
       id="g28"><path
         d="m 0,0 -264.303,0 -15.661,-34.901 264.301,0 L 0,0 z"
         id="path30"
         style="fill:#fdd32b;fill-opacity:1;fill-rule:nonzero;stroke:none" /></g><g
       transform="matrix(0.10475327,0,0,0.10475327,1185.6137,1282.3114)"
       id="g32"><path
         d="m 0,0 387.57,0 -17.961,-39.972 -389.192,0 L 0,0 z"
         id="path34"
         style="fill:#fdd32b;fill-opacity:1;fill-rule:nonzero;stroke:none" /></g><g
       transform="matrix(0.10475327,0,0,0.10475327,1204.456,1321.7296)"
       id="g36"><path
         d="m 0,0 -16.97,-36.83 376.982,0 L 376.539,0.004 0,0 z"
         id="path38"
         style="fill:#fdd32b;fill-opacity:1;fill-rule:nonzero;stroke:none" /></g><g
       transform="matrix(0.10475327,0,0,0.10475327,1278.765,1259.9785)"
       id="g40"><path
         d="m 0,0 55.474,0 267.489,596.148 121.642,0 21.453,46.748 -175.505,0 L 0,0 z"
         id="path42"
         style="fill:#fdd32b;fill-opacity:1;fill-rule:nonzero;stroke:none" /></g><g
       transform="matrix(0.10475327,0,0,0.10475327,1320.567,1301.2402)"
       id="g44"><path
         d="m 0,0 -20.947,-46.188 586.352,0 169.482,358.236 -30.833,23.138 L 544.502,0 0,0 z"
         id="path46"
         style="fill:#fdd32b;fill-opacity:1;fill-rule:nonzero;stroke:none" /></g><g
       transform="matrix(0.10475327,0,0,0.10475327,1150.8834,1144.489)"
       id="g48"><g
         clip-path="url(#clipPath52)"
         id="g50"><g
           transform="translate(2090.9326,579.3945)"
           id="g56"><path
             d="m 0,0 c -2.094,1.171 -5.45,1.757 -10.07,1.757 l -7.105,0 0,-17.098 7.514,0 c 3.522,0 6.167,0.352 7.93,1.055 3.248,1.287 4.873,3.746 4.873,7.376 C 3.142,-3.474 2.094,-1.172 0,0 m -8.977,7.437 c 5.854,0 10.148,-0.566 12.88,-1.699 4.879,-2.034 7.319,-6.021 7.319,-11.959 0,-4.221 -1.535,-7.325 -4.606,-9.32 -1.628,-1.054 -3.904,-1.816 -6.816,-2.283 3.688,-0.587 6.388,-2.127 8.096,-4.621 1.71,-2.498 2.565,-4.934 2.565,-7.309 l 0,-3.455 c 0,-1.088 0.038,-2.259 0.117,-3.508 0.079,-1.245 0.215,-2.065 0.411,-2.454 l 0.292,-0.587 -7.786,0 c -0.042,0.157 -0.08,0.313 -0.118,0.469 -0.04,0.156 -0.078,0.333 -0.118,0.521 l -0.174,1.519 0,3.737 c 0,5.446 -1.484,9.046 -4.452,10.798 -1.756,1.011 -4.839,1.517 -9.251,1.517 l -6.557,0 0,-18.561 -8.314,0 0,47.195 16.512,0 z m -25.295,2.399 c -7.184,-7.221 -10.774,-15.944 -10.774,-26.172 0,-10.307 3.571,-19.089 10.715,-26.349 7.182,-7.26 15.906,-10.891 26.172,-10.891 10.267,0 18.991,3.631 26.174,10.891 7.181,7.26 10.773,16.042 10.773,26.349 0,10.228 -3.592,18.951 -10.773,26.172 -7.222,7.261 -15.947,10.891 -26.174,10.891 -10.188,0 -18.893,-3.63 -26.113,-10.891 m 56.561,-56.62 c -8.393,-8.432 -18.542,-12.647 -30.448,-12.647 -11.904,0 -22.034,4.215 -30.389,12.647 -8.314,8.392 -12.471,18.56 -12.471,30.505 0,11.828 4.196,21.939 12.588,30.333 8.354,8.352 18.446,12.528 30.272,12.528 11.906,0 22.055,-4.176 30.448,-12.528 8.393,-8.355 12.589,-18.464 12.589,-30.333 0,-11.904 -4.196,-22.075 -12.589,-30.505"
             id="path58"
             style="fill:#fdd32b;fill-opacity:1;fill-rule:nonzero;stroke:none" /></g></g></g></g></svg>