<?xml version="1.0" encoding="UTF-8" standalone="no"?>
<!-- Created with Inkscape (http://www.inkscape.org/) -->

<svg
   xmlns:dc="http://purl.org/dc/elements/1.1/"
   xmlns:cc="http://creativecommons.org/ns#"
   xmlns:rdf="http://www.w3.org/1999/02/22-rdf-syntax-ns#"
   xmlns:svg="http://www.w3.org/2000/svg"
   xmlns="http://www.w3.org/2000/svg"
   version="1.1"
   width="280"
   height="200"
   viewBox="0 0 224 160"
   id="svg2">
  <metadata
     id="metadata44">
    <rdf:RDF>
      <cc:Work
         rdf:about="">
        <dc:format>image/svg+xml</dc:format>
        <dc:type
           rdf:resource="http://purl.org/dc/dcmitype/StillImage" />
        <dc:title></dc:title>
      </cc:Work>
    </rdf:RDF>
  </metadata>
  <defs
     id="defs42" />
  <path
     d="m 0,2.9819214 224,0 L 224,160 0,160 0,2.9819214 z"
     id="path4"
     style="fill:#fefefe" />
  <path
     d="m 58.26181,10.527511 c 44.54765,0.006 89.09841,0.009 133.64606,0 0.006,16.69563 0,33.39438 0.003,50.09001 -5.29002,0 -10.58003,-0.003 -15.87004,0 -1.2898,-6.02525 -2.57647,-12.14397 -5.3866,-17.68011 -2.2213,-4.55165 -5.63894,-8.83226 -10.49279,-10.6953 -8.1936,-3.27744 -17.16918,-3.64506 -25.88306,-3.93168 -3.87872,-0.0311 -7.81041,-0.0904 -11.62059,0.74771 -0.13396,0.75705 -0.23988,1.52345 -0.22431,2.29607 0.006,9.73575 0,19.47149 0.003,29.20724 2.41758,2.58269 4.11861,5.71059 5.62025,8.88834 3.2899,-0.47666 6.74492,-1.33029 9.3432,-3.52044 2.56089,-2.44562 4.06564,-5.75422 5.34297,-9.0005 1.83188,-4.6607 2.75717,-9.59867 3.84134,-14.4681 5.2682,0.0218 10.53953,0.003 15.80773,0.009 0,25.18208 0,50.36729 0,75.549369 -5.38348,0.0125 -10.76695,-0.0249 -16.15355,0.0187 -0.87543,-5.92244 -1.54214,-11.96951 -3.86314,-17.54614 -1.02809,-2.523509 -2.35839,-4.987819 -4.318,-6.910039 -2.19638,-2.09358 -5.13735,-3.09987 -8.00356,-3.88496 -1.24306,6.05642 -3.84445,11.829319 -7.61101,16.736139 -0.0125,7.78548 -0.009,15.56784 -0.003,23.35021 0.0654,0.88478 0.0748,1.96895 0.76017,2.62008 2.10915,0.90036 4.46131,0.98448 6.72,1.1714 7.0222,0.31466 14.1067,-0.0187 21.01363,-1.40194 5.18097,-1.05302 10.27783,-2.75717 14.82637,-5.4894 4.9442,-3.00017 8.95377,-7.30882 12.35271,-11.94148 3.39271,-4.62954 6.13742,-9.69213 8.65469,-14.838829 5.37413,-0.0748 10.74826,-0.009 16.12551,-0.0312 -3.58587,17.187879 -7.13436,34.381979 -10.71088,51.569849 -44.64423,-0.0156 -89.28534,-0.003 -133.92957,-0.006 0.009,-5.47071 0.009,-10.94453 0,-16.41524 5.08751,-0.22743 10.25602,-0.0405 15.22203,-1.34899 -2.56089,0.14954 -4.14665,-2.10292 -5.49875,-3.9161 -0.80378,0.88167 -1.6356,1.87861 -2.84439,2.19015 -1.03121,0.26793 -2.09358,0.38631 -3.14036,0.5857 -0.0498,-1.32094 0.14019,-2.65747 -0.0872,-3.96595 -0.50159,-1.79761 -1.80384,-3.49241 -3.62637,-4.07811 -1.93469,-0.72278 -4.20585,-0.81936 -6.04707,0.2212 -2.402,1.2929 -4.64823,2.86309 -7.07516,4.11549 -0.37385,-1.64495 -1.09975,-3.26809 -0.90971,-4.98782 0.0717,-1.07171 0.58882,-2.03438 1.04367,-2.98458 -4.54542,1.42687 -7.66397,5.24016 -11.56762,7.73874 -2.2805,1.50476 -4.81647,2.60763 -6.94431,4.33981 -0.69474,-0.56701 -1.42375,-1.08729 -2.13407,-1.62938 -0.43617,-0.405 -0.88167,-0.79443 -1.33653,-1.17452 1.18075,-2.08734 2.06865,-4.32111 2.90359,-6.56422 -1.50476,1.2929 -3.27121,2.19638 -4.99716,3.14659 -1.2711,0.65736 -2.96278,0.18692 -3.72607,-1.02186 -0.8287,-1.1496 -0.50158,-2.68863 0.11216,-3.8538 0.69786,-0.90659 1.51722,-1.72595 2.10292,-2.71666 -2.14342,1.2929 -4.32734,2.55777 -6.69819,3.39582 -1.44556,0.4237 -3.0874,-0.30842 -3.79149,-1.62937 -0.61063,-1.08417 -0.49535,-2.402 -0.13085,-3.54848 -0.70097,-0.0498 -1.42375,-0.009 -2.10603,-0.19005 -0.83183,-0.84428 -1.30226,-2.05307 -1.11845,-3.24005 0.49847,-4.91305 1.05302,-9.8479 2.31166,-14.633209 0.77574,-3.00329 1.88484,-5.90688 2.88489,-8.8385 -0.91282,-0.0872 -1.90041,-0.22431 -2.58269,-0.90348 -1.0686,-0.95955 -1.20256,-2.55154 -0.8474,-3.86626 1.67922,-5.47071 3.94103,-10.80434 7.13747,-15.57407 2.07176,-3.08117 4.34603,-6.04707 6.98792,-8.66715 -0.19938,-0.66359 -0.47666,-1.35833 -0.25858,-2.05308 0.28662,-1.03121 1.19945,-1.70414 1.66988,-2.63254 1.18698,-4.52362 3.70114,-8.74192 7.22781,-11.83244 1.51411,-1.30848 3.29614,-2.29296 5.21213,-2.88178 -0.48601,-2.06553 0.90348,-3.88495 2.38643,-5.13424 1.97207,-1.6356 4.49246,-2.33035 6.91938,-2.98147 5.37725,-1.38014 10.90715,-2.33346 16.47444,-2.26493 5.34298,-0.0436 10.60184,1.10287 15.76412,2.36774 -0.15266,-1.48918 -0.34893,-3.11544 -1.42064,-4.25569 -1.0499,-1.03121 -2.52974,-1.44245 -3.9348,-1.71661 -4.45196,-0.89724 -9.01296,-0.88478 -13.52723,-1.15271 -0.003,-5.45202 -0.006,-10.90403 0,-16.35605 z"
     id="path6"
     style="fill:#3d3d3d" />
  <path
     d="m 61.60779,13.898411 c 42.31699,-0.0218 84.63399,-0.0156 126.9541,-0.003 -0.0125,14.45563 0.009,28.91438 -0.0125,43.37001 -3.27121,0 -6.54242,-0.003 -9.81051,0 -1.34899,-6.46453 -3.16841,-12.95399 -6.62654,-18.63966 -2.1995,-3.59833 -5.18721,-6.82593 -9.0005,-8.72635 -3.66064,-1.82876 -7.67333,-2.81324 -11.6829,-3.52356 -5.46759,-0.94397 -11.0193,-1.28044 -16.56166,-1.40817 -4.03761,-0.0623 -8.11572,-0.11527 -12.09725,0.64178 -1.01875,0.22119 -2.19015,0.45485 -2.7852,1.41129 -0.66982,1.0904 -0.85052,2.40823 -0.90036,3.66999 -0.009,8.96623 0.009,17.93557 -0.006,26.90492 -0.80379,-0.50782 -1.61692,-1.00006 -2.4207,-1.50164 0.0343,-8.25903 0.003,-16.52117 0.0156,-24.7802 0.0467,-2.08111 0.31466,-4.31488 1.64183,-6.00968 1.04056,-1.34587 2.78832,-1.77891 4.37719,-2.0998 2.89736,-0.51405 5.84768,-0.63867 8.78554,-0.6044 6.05018,-0.053 12.10659,0.25858 18.10381,1.07795 4.96601,0.73524 9.95071,1.83499 14.48679,4.0563 4.14976,2.04684 7.45524,5.48628 9.8884,9.37435 3.36156,5.41151 5.31182,11.5645 6.67638,17.74865 1.83811,-0.006 3.67622,-0.003 5.51433,0 0,-12.84807 -0.009,-25.69613 0.003,-38.5442 -40.70943,0.0156 -81.41886,0.0156 -122.1314,0.003 0.003,1.69792 0.006,3.39583 0,5.09375 3.7136,0.28662 7.48328,0.47977 11.06915,1.56706 2.43316,0.74148 4.72923,2.24312 6.0346,4.47066 1.47361,2.48611 1.86927,5.47694 1.69169,8.32133 -0.78509,-0.26793 -1.56707,-0.53274 -2.35216,-0.79132 0.0405,-2.33658 -0.27104,-4.82893 -1.67922,-6.76985 -1.15583,-1.65118 -3.04378,-2.61385 -4.94732,-3.1279 -3.99087,-1.04679 -8.13752,-1.15583 -12.23121,-1.41752 0.0156,-3.25563 0.006,-6.50815 0.003,-9.76379 z"
     id="path8"
     style="fill:#fefefe" />
  <path
     d="m 64.01914,16.315991 c 40.71254,0.0125 81.42197,0.0125 122.1314,-0.003 -0.0125,12.84807 -0.003,25.69613 -0.003,38.5442 -1.83811,-0.003 -3.67622,-0.006 -5.51433,0 -1.36456,-6.18415 -3.31482,-12.33714 -6.67638,-17.74865 -2.43316,-3.88807 -5.73864,-7.32751 -9.8884,-9.37435 -4.53608,-2.22131 -9.52078,-3.32106 -14.48679,-4.0563 -5.99722,-0.81937 -12.05363,-1.13091 -18.10381,-1.07795 -2.93786,-0.0343 -5.88818,0.0904 -8.78554,0.6044 -1.58887,0.32089 -3.33663,0.75393 -4.37719,2.0998 -1.32717,1.6948 -1.5951,3.92857 -1.64183,6.00968 -0.0125,8.25903 0.0187,16.52117 -0.0156,24.7802 -0.22431,0.10281 -0.67605,0.31154 -0.90348,0.41435 -3.02509,-1.56395 -6.22153,-2.7852 -9.48028,-3.76345 -0.63554,-0.12773 -0.96267,-0.71655 -1.33963,-1.1714 -0.7664,-1.08729 -2.04062,-1.63872 -2.87555,-2.66059 -5.14982,-5.8134 -12.06921,-9.79182 -19.32507,-12.38075 0.0187,-0.19004 0.0592,-0.57324 0.081,-0.76328 0.17758,-2.84439 -0.21808,-5.83522 -1.69169,-8.32133 -1.30537,-2.22754 -3.60144,-3.72918 -6.0346,-4.47066 -3.58587,-1.08729 -7.35555,-1.28044 -11.06915,-1.56706 0.006,-1.69792 0.003,-3.39583 0,-5.09375 z"
     id="path10"
     style="fill:#2e633c" />
  <path
     d="m 43.27032,35.136361 c 5.17474,-1.48607 10.50837,-2.51728 15.9012,-2.7229 4.62642,-0.25858 9.24662,0.40189 13.76089,1.37391 3.32105,0.70409 6.60472,1.60134 9.80116,2.7447 7.25586,2.58893 14.17525,6.56735 19.32507,12.38075 0.83493,1.02187 2.10915,1.5733 2.87555,2.66059 0.37696,0.45485 0.70409,1.04367 1.33963,1.1714 3.25875,0.97825 6.45519,2.1995 9.48028,3.76345 5.33052,2.55466 9.07839,7.49886 11.38693,12.82003 2.89113,6.29007 3.50175,13.49919 2.14342,20.25346 -1.41129,7.21224 -4.91928,13.988319 -9.94136,19.346869 -1.20568,1.28979 -2.83505,-0.0374 -4.18404,-0.29596 -0.56077,-0.63244 -0.95332,-1.41753 -1.01874,-2.26804 -0.18381,-2.29296 0.49535,-4.52362 0.74459,-6.782309 0.19004,-1.30848 -0.67917,-2.39889 -1.19945,-3.51733 -2.36462,-0.18693 -4.72923,-0.4642 -7.1032,-0.51093 -3.36467,0.25546 -6.71377,0.71966 -10.03794,1.30225 -4.02826,0.40812 -7.66709,-2.36462 -11.71716,-1.66987 -0.90659,1.0094 -2.11227,1.90976 -2.42381,3.30548 -0.29285,1.42064 -0.27728,2.884889 -0.44551,4.324219 0.90659,0.72902 2.08734,0.45174 3.11544,0.19316 1.39883,-0.35516 2.25558,-1.61691 3.2899,-2.52039 0.30843,1.48918 0.93463,2.98459 0.67294,4.52985 -0.32401,1.70103 -1.61069,3.01263 -3.03444,3.8943 -0.52651,0.324 -1.06548,0.61997 -1.59822,0.9284 2.43316,1.24929 5.47071,1.3926 8.00356,0.33958 1.80695,-0.75705 3.53602,-1.68857 5.33363,-2.46743 -1.81007,2.54843 -3.33352,5.33052 -5.45825,7.63906 -0.94086,0.85674 -2.12161,1.3521 -3.27121,1.85991 1.45491,-0.14019 2.91294,-0.27727 4.37408,-0.31154 0.44239,0.85675 0.68851,1.79449 0.99071,2.70732 -2.55466,1.57952 -5.10932,3.19332 -7.92256,4.28372 -1.23372,0.37697 -2.51416,0.54832 -3.78526,0.76017 0.47666,0.40501 0.95644,0.81001 1.46737,1.17764 1.66053,0.97824 3.50487,1.58264 5.30248,2.25246 -0.16512,0.96578 -0.36451,1.92534 -0.64801,2.86308 l -0.16201,0.0779 c -3.9971,-0.26481 -8.33068,0.63867 -11.98509,-1.47049 -0.12773,2.23689 -2.63566,4.03138 -4.75416,3.0874 -1.78514,-0.87855 -2.69797,-2.77897 -4.06564,-4.1373 -0.63555,0.88479 -1.20256,1.89419 -2.19639,2.42381 -0.88478,0.46732 -1.90976,0.51716 -2.87243,0.70409 0.11216,-1.74153 0.0966,-3.61079 -0.93152,-5.10309 -1.61379,-2.89112 -5.36167,-3.77591 -8.40545,-3.1092 -2.82882,0.96578 -5.11555,2.99082 -7.80417,4.25257 -0.31154,-1.34275 -0.87855,-2.71043 -0.5857,-4.10926 0.243,-1.40195 1.1309,-2.54843 1.86614,-3.72295 -4.38653,0.44862 -7.73563,3.60456 -11.00372,6.2558 -2.94098,2.52039 -6.62342,3.92545 -9.67032,6.29318 -0.45486,-0.37073 -0.90971,-0.74147 -1.36456,-1.10909 1.97207,-1.53903 4.22453,-2.64813 6.35549,-3.93792 3.19955,-1.92845 5.7511,-4.74481 8.96935,-6.65146 2.42692,-1.56083 5.39905,-2.49235 8.28395,-1.85991 -0.71656,2.38019 -3.35222,4.16534 -2.63878,6.90381 2.12161,-1.21191 4.0968,-2.74782 6.45207,-3.49241 2.51416,-0.65424 5.24951,-0.19627 7.50509,1.05925 2.3615,1.44556 3.76345,4.16534 3.83822,6.90693 1.37079,-0.59194 1.94715,-2.02504 2.90982,-3.05002 0.33024,-0.37385 0.8069,-0.10904 1.10287,0.15266 1.50164,1.08106 2.31165,2.84439 3.75721,3.98464 1.01875,0.85675 2.73847,0.0312 2.95967,-1.20879 0.21497,-1.35521 -0.0716,-2.726 -0.162,-4.08122 1.31783,2.14965 3.69802,3.43944 6.18726,3.62014 2.63254,0.18381 5.27755,0.028 7.91633,0.10904 -2.36462,-1.01252 -5.00963,-1.63872 -6.93185,-3.44568 -0.87544,-0.78509 -1.35833,-1.90664 -1.42376,-3.07493 4.87878,0.75393 9.10331,-2.27739 13.04434,-4.67004 -3.24629,0.2025 -6.59538,0.70097 -9.76067,-0.29909 -0.64801,-0.38631 -0.29908,-1.23371 -0.33335,-1.83499 2.30543,-0.16823 4.79154,-0.0156 6.8415,-1.27733 1.36456,-0.83805 2.20262,-2.25558 3.05002,-3.56718 -3.21825,1.60445 -6.99105,1.08106 -10.23733,-0.15265 -0.9284,-0.19004 -1.60757,-0.90659 -1.85057,-1.80384 1.99699,-0.76017 4.17468,-1.4923 5.55794,-3.22448 0.65736,-0.77574 0.69163,-1.82565 0.70097,-2.79143 -2.57958,1.80072 -5.98787,1.66053 -8.88211,0.79132 -1.05925,-2.52974 -0.0966,-5.408399 1.46737,-7.501979 1.27733,-1.76645 3.36156,-2.85997 5.52056,-3.02509 3.64506,-0.35516 6.91938,2.0375 10.5551,1.75088 3.30548,-0.60128 6.64835,-1.0094 9.99744,-1.29602 2.64812,0.0592 5.30559,-0.0467 7.94437,0.24923 0.15265,-0.14642 0.30843,-0.29285 0.4642,-0.43616 1.02498,1.75088 1.78826,3.68556 1.96584,5.71995 -0.14954,2.121609 -1.08729,4.115489 -1.1091,6.246449 -0.0903,0.80067 0.55144,1.38325 1.19633,1.71661 -0.14954,-0.67294 -0.51405,-1.3116 -0.5047,-2.01258 0.19316,-2.02815 1.38014,-3.86003 1.28045,-5.934909 -0.0841,-3.90987 -2.48612,-7.47393 -5.66075,-9.61735 -2.09669,-1.2493 -4.29931,-2.59205 -6.79478,-2.75094 -2.76962,-0.11215 -5.50497,0.57013 -8.09702,1.48295 -2.00011,0.75394 -4.10303,1.28045 -6.23399,1.45803 -2.76028,-0.66359 -4.86631,-3.0874 -7.81663,-3.16529 -2.27116,0.11216 -4.39277,1.01252 -6.5175,1.73842 -0.73524,0.2025 -1.6138,0.50781 -2.30543,0.0374 -1.22125,-0.65424 -2.12784,-1.76022 -3.32105,-2.43939 -0.90036,0.28039 -0.28974,1.18387 0.19627,1.54838 -1.23994,0.15265 -2.44562,0.53897 -3.55471,1.11532 0.0343,0.16824 0.0997,0.5047 0.13396,0.67294 1.36145,-0.47043 2.69485,-1.05302 4.11861,-1.32718 0.96267,0.71655 1.74776,1.64184 2.71354,2.35216 0.35516,0.22742 0.79756,0.51404 1.23995,0.36139 2.26181,-0.76952 4.23388,-2.35527 6.65457,-2.66682 2.98148,0.0748 5.32117,2.22754 8.1313,2.87555 2.7042,-0.081 5.30247,-1.0094 7.80106,-1.9783 2.20884,-0.7259 4.5423,-1.2711 6.87888,-1.15894 3.59522,0.59504 6.86331,2.62943 9.2622,5.33986 -0.36139,0.1215 -0.74459,0.33335 -1.13402,0.162 -2.18081,-0.4237 -4.41146,-0.39878 -6.61719,-0.56701 -3.54225,0.13708 -7.05958,0.65736 -10.57068,1.12156 -3.58899,0.3427 -6.73869,-2.09046 -10.30899,-1.91288 -1.04678,0.0467 -2.02815,0.44551 -3.04378,0.64801 -1.7353,0.35828 -3.53291,0.52028 -5.1654,1.26175 -1.22125,0.6044 -2.61385,0.73213 -3.95972,0.64801 -1.6948,-0.28039 -3.03443,-1.46737 -4.6015,-2.06553 -1.61691,-0.19627 -3.14659,-0.76328 -4.66381,-1.32406 -1.04367,-1.62626 -0.3832,-3.70426 0.73836,-5.09998 1.80695,-1.63248 4.20896,-2.50169 5.9536,-4.18714 -1.30537,0.13396 -2.81012,0.0748 -3.85691,0.99694 -1.36145,1.04678 -2.76651,2.04061 -4.14977,3.05936 -0.33958,1.53902 -0.69785,3.09986 -0.67293,4.68562 0.37697,1.3334 1.7758,1.93468 2.93786,2.43938 1.30537,0.59505 2.9067,0.40189 4.03761,1.38326 -1.01252,-0.14954 -2.01881,-0.32712 -3.01575,-0.55143 -2.67304,3.62948 -6.52061,6.349259 -10.76072,7.835319 -1.72595,0.62309 -3.56406,0.80067 -5.38659,0.82559 3.20578,1.58576 6.81658,0.61063 10.21552,1.02187 -0.42682,0.6667 -0.79444,1.45491 -1.53903,1.83187 -5.90064,2.5017 -12.66737,2.97836 -18.02592,6.71066 2.75716,-1.4331 5.90375,-1.30537 8.91638,-1.42376 -4.99093,3.39272 -10.66726,6.19038 -14.2469,11.24362 -2.04684,2.0998 -4.3398,4.0563 -7.0845,5.17786 1.11221,-2.66059 2.25557,-5.30871 3.29613,-8.00045 2.03127,-4.87877 2.42381,-10.27783 2.15277,-15.50553 -0.17758,0.0218 -0.53897,0.0685 -0.71967,0.0903 -2.65435,6.28696 -4.77597,13.44935 -10.55199,17.65208 2.76028,-4.0158 4.43639,-8.63288 5.63894,-13.32473 -0.0374,-0.49847 -0.54831,-0.73836 -0.9907,-0.58259 -3.57653,3.72607 -7.61414,7.15928 -12.38076,9.24974 2.28051,-3.85068 4.56724,-7.77925 5.74799,-12.13152 0.85363,-3.33663 2.50169,-6.445839 3.03443,-9.869709 0.30532,-1.66676 0.0467,-3.36155 -0.13707,-5.0252 -0.43928,-0.19316 -0.76952,-0.0935 -0.99694,0.3022 -4.3772,5.81341 -8.4335,11.897859 -11.71405,18.406009 1.10909,-7.82287 3.61391,-15.421419 7.0222,-22.537079 1.41752,-2.86309 2.92539,-5.69502 4.72612,-8.33691 0.47354,-0.79133 -0.57325,-1.87238 -1.36457,-1.34899 -3.07182,1.94715 -5.66386,4.52985 -8.3556,6.94743 3.30859,-10.21864 10.0099,-19.28145 18.80167,-25.45936 1.40194,-0.88479 2.39888,-2.22131 3.36155,-3.53914 0.67605,-0.55766 2.06242,-1.02809 1.60446,-2.14965 -0.83806,0.0312 -1.53903,0.57012 -2.33658,0.76951 -2.10915,0.60128 -4.29619,0.92529 -6.33992,1.75399 1.58887,-3.1684 3.51733,-6.39288 6.56423,-8.3556 1.40195,-0.77575 2.9472,-1.32406 4.53919,-1.53903 1.80384,-0.23677 3.50799,-0.93463 5.29625,-1.24306 1.00005,-0.162 1.97518,-0.44551 2.91605,-0.81936 -0.89102,-0.80378 -2.14654,-0.7259 -3.19956,-1.1714 -1.38637,-0.49536 -2.8662,-0.61063 -4.29619,-0.92529 6.63589,-4.38654 14.92607,-5.17786 22.68039,-4.66693 8.87277,0.42994 17.58042,2.78521 25.63694,6.48946 4.20273,2.06554 7.95995,4.89747 11.7452,7.62971 -2.50169,-0.30531 -5.04078,0.29597 -7.29635,1.36768 -0.5452,0.14331 -0.45797,1.23371 0.13708,1.22125 0.54831,-0.003 1.04055,-0.30531 1.56083,-0.45485 0.61063,0.29908 1.24618,0.54208 1.91288,0.68851 6.42715,1.60756 12.76083,3.71671 18.67082,6.73557 7.33997,4.21831 12.2094,12.45241 12.34337,20.92329 0.0467,3.58587 -0.78198,7.10008 -1.50788,10.58626 -1.25552,5.4894 -3.36467,11.084719 -7.6079,14.972789 -0.51093,-0.0249 -1.33029,-0.14331 -1.26798,0.62932 0.0935,0.64178 1.13714,1.57641 1.73842,0.87232 6.0346,-6.47076 9.72639,-15.141029 10.0504,-23.998219 0.31466,-7.03466 -1.97207,-14.08489 -6.10003,-19.76122 -1.80072,-2.47677 -4.1778,-4.52673 -6.89446,-5.94426 -5.08128,-2.6637 -10.6143,-4.5205 -16.29686,-5.34297 -1.58576,-0.27728 -3.21513,-0.13708 -4.78843,-0.49536 2.0375,-0.69474 4.22765,-1.09975 6.37107,-0.7477 0.97825,0.14954 1.88796,0.54831 2.83817,0.81001 -0.76952,-0.82248 -1.80696,-1.33964 -2.49858,-2.24312 -6.33057,-7.17796 -15.3155,-11.42431 -24.4375,-13.82631 -5.67633,-1.45491 -11.51466,-2.60451 -17.40284,-2.31165 -5.17786,0.19627 -10.29341,1.19009 -15.27811,2.57023 -2.10603,0.62309 -4.31799,1.48607 -5.69813,3.28056 -0.42993,0.47978 -0.5047,1.12779 -0.61686,1.73218 1.39572,0.42993 2.83816,0.72278 4.19338,1.28356 -2.7447,0.61063 -5.5704,1.13091 -8.09079,2.43316 -3.35533,2.0188 -5.69814,5.3679 -7.35555,8.85096 -0.61686,1.18698 -0.82559,2.52039 -1.26487,3.77279 -0.47666,0.83183 -1.19944,1.50165 -1.60757,2.38331 1.43311,-0.49223 2.56089,-1.53279 3.61391,-2.57646 1.04367,-1.06237 2.45185,-1.62626 3.83511,-2.08735 -0.57636,0.65425 -1.16518,1.30849 -1.81007,1.90042 -2.47055,2.20262 -4.90993,4.44885 -7.1437,6.89447 -5.7916,6.31187 -10.06287,13.99766 -12.33714,22.25669 -0.42058,0.90347 0.60751,2.02191 1.49541,1.42375 1.95961,-1.57953 3.57653,-3.53914 5.43956,-5.2277 -2.26804,4.65446 -3.95661,9.55504 -5.57664,14.46497 -1.70103,5.218359 -2.35527,10.695299 -2.93474,16.128629 -0.0654,0.57012 -0.0623,1.14648 -0.006,1.71972 0.60751,0.0218 1.21814,0.053 1.82876,0.0748 2.48612,-4.30242 3.79772,-9.21235 6.6795,-13.29669 1.68857,-2.423809 3.14659,-4.997159 4.59839,-7.567399 -0.22431,1.42999 -0.77263,2.7852 -1.16518,4.17469 -1.06236,3.423859 -2.0593,6.885119 -3.57652,10.140749 -1.60445,3.4706 -3.4924,6.80723 -5.49563,10.06286 -0.22743,0.83806 0.41747,1.97831 1.38948,1.67299 5.19344,-1.81006 9.39928,-5.50186 13.3995,-9.14692 -1.33964,3.67622 -2.75093,7.42097 -5.21524,10.5146 -0.52028,0.69786 -1.30848,1.29914 -1.33341,2.24623 -0.17446,0.46109 0.31466,0.82248 0.71655,0.85675 2.14654,-1.05925 4.29619,-2.23689 5.92245,-4.03138 3.24006,-3.38648 4.81024,-7.89452 6.50504,-12.16267 -0.71656,4.48935 -1.52657,9.0005 -3.18398,13.25307 -1.13402,3.08429 -2.20885,6.2153 -3.81953,9.09085 -0.18381,-0.17758 -0.55766,-0.53585 -0.74459,-0.71343 1.78515,-3.08429 2.91917,-6.48634 4.11549,-9.82609 -1.00628,1.00628 -1.94091,2.09669 -3.09363,2.94409 -1.25552,0.99694 -2.71666,1.67299 -4.10303,2.46119 -1.19009,0.6449 -2.85374,-0.20873 -3.0687,-1.53279 -0.13397,-1.01564 0.19315,-2.09981 0.90659,-2.84128 1.42064,-1.58576 2.51104,-3.4301 3.45813,-5.3274 -2.85997,2.23377 -5.9536,4.22142 -9.38058,5.45201 -1.48918,0.42682 -3.13725,-0.76639 -3.22759,-2.30854 -0.23055,-1.04367 0.3427,-1.99699 0.94086,-2.79454 -1.01875,-0.0935 -2.05307,-0.0717 -3.06248,-0.25859 -0.68228,-0.58258 -0.96267,-1.5546 -0.8287,-2.42692 0.61997,-6.1343 1.3521,-12.32779 3.38648,-18.178579 0.77263,-2.23377 1.49852,-4.48312 2.36462,-6.68262 -1.02498,0.53274 -2.45185,0.7259 -3.33664,-0.16823 -0.93463,-0.77263 -0.97202,-2.12785 -0.6262,-3.20267 1.46737,-4.8227 3.39894,-9.53324 6.06887,-13.81697 2.35839,-3.80083 5.12801,-7.35555 8.29641,-10.5146 -0.28973,-0.54209 -0.73836,-1.09975 -0.56078,-1.75711 0.24924,-1.11844 1.36457,-1.76645 1.73219,-2.8257 0.91594,-3.77903 2.95343,-7.24028 5.57352,-10.08779 1.92222,-2.08734 4.41769,-3.62949 7.1842,-4.29619 -0.52963,-1.02498 -0.52028,-2.30231 0.18381,-3.24317 1.42998,-2.22442 3.9566,-3.38648 6.41157,-4.10303 z"
     id="path12"
     style="fill:#fefefe" />
  <path
     d="m 58.65747,39.578971 c 0.76017,-0.25858 1.6138,-0.49535 2.37085,-0.0872 4.30242,1.64183 8.77307,2.88178 12.89791,4.95978 -0.71967,-1.06237 -1.48295,-2.09358 -2.24935,-3.11856 0.70409,-0.23366 1.40507,-0.67293 2.17458,-0.52028 2.76962,0.43305 5.15293,2.06554 7.26832,3.8133 0.95644,0.83494 2.01569,1.5733 2.80701,2.57958 -0.86609,0 -1.47361,-0.68851 -2.14031,-1.1309 -2.7447,-2.03127 -5.62648,-4.24946 -9.14069,-4.61085 0.97824,1.39883 2.46119,2.60451 2.82881,4.318 -0.82247,0.11527 -1.49229,-0.55143 -2.24311,-0.78821 -4.62954,-1.83188 -9.2217,-3.86314 -14.10671,-4.91616 0.0436,0.41124 0.2212,0.79755 0.57948,1.02498 1.14025,0.95021 2.49235,1.6543 3.51733,2.73847 0.38943,0.35516 -0.0841,1.10598 -0.59194,0.87232 -1.11221,-0.19004 -2.06865,-0.8474 -3.14971,-1.13713 -3.62013,-1.06237 -7.54559,-0.81625 -11.12834,0.27416 0.78197,0.15577 2.67305,1.17763 1.50476,1.99699 -1.20879,-0.37073 -3.27744,-0.96578 -2.90048,-2.61385 1.67299,-0.8069 3.52979,-1.0686 5.35233,-1.28979 2.42069,-0.22431 4.885,-0.15889 7.24962,0.45485 -0.43305,-0.47977 -0.88478,-0.94709 -1.34587,-1.40194 0.0966,-0.47044 -0.0436,-1.12779 0.44551,-1.41753 z"
     id="path14"
     style="fill:#3d3d3d" />
  <path
     d="m 149.27622,45.816081 c 3.25251,0.0125 6.50815,0.006 9.76378,0.006 0.003,22.94832 0.003,45.89663 0,68.848069 -3.3086,-0.009 -6.61408,0.003 -9.91955,-0.009 -0.74459,-5.78537 -1.83811,-11.61747 -4.29308,-16.951099 -1.34275,-2.9067 -3.17775,-5.66075 -5.72617,-7.64217 -2.51728,-1.88172 -5.53614,-2.95655 -8.57057,-3.66998 0.0561,-0.81937 0.11838,-1.63561 0.19315,-2.45185 4.9037,1.11844 9.89463,3.23382 13.01319,7.35243 4.62954,5.98164 6.36795,13.592659 7.48951,20.926399 1.81319,0.0156 3.62949,0.0187 5.44267,0.003 0.0343,-21.322059 0.0343,-42.644109 0,-63.966169 -1.81007,-0.0156 -3.62014,-0.006 -5.42709,-0.003 -1.01875,4.38031 -2.16835,8.75127 -3.97842,12.87922 -1.54214,3.49864 -3.51109,6.93185 -6.43961,9.45536 -3.13101,2.53285 -7.10943,3.79149 -11.03799,4.40523 -0.12462,-0.77886 -0.31778,-1.53903 -0.53586,-2.29297 3.3896,-0.6667 6.87577,-1.56706 9.68278,-3.6731 3.02509,-2.45185 4.89124,-6.00033 6.396,-9.52078 1.83187,-4.39588 2.9877,-9.03788 3.94726,-13.69546 z"
     id="path16"
     style="fill:#fefefe" />
  <path
     d="m 151.24206,48.258581 c 1.80695,-0.003 3.61702,-0.0125 5.42709,0.003 0.0343,21.32206 0.0343,42.64411 0,63.966169 -1.81318,0.0156 -3.62948,0.0125 -5.44267,-0.003 -1.12156,-7.33374 -2.85997,-14.944759 -7.48951,-20.926399 -3.11856,-4.11861 -8.10949,-6.23399 -13.01319,-7.35243 -0.27416,-1.74153 -0.39254,-3.50176 -0.50781,-5.25886 -0.0654,-1.23995 -0.55767,-2.43628 -0.42993,-3.68868 3.92856,-0.61374 7.90698,-1.87238 11.03799,-4.40523 2.92852,-2.52351 4.89747,-5.95672 6.43961,-9.45536 1.81007,-4.12795 2.95967,-8.49891 3.97842,-12.87922 z"
     id="path18"
     style="fill:#2e633c" />
  <path
     d="m 55.47038,50.373961 c 1.68545,-0.89413 3.69802,-0.84116 5.55482,-0.7882 6.05018,0.4642 11.3215,4.14353 15.38092,8.43349 2.14342,2.65747 6.44896,2.06865 8.72634,-0.11527 1.75088,-1.60445 1.84123,-4.15911 1.78826,-6.36796 l 0.28974,-0.0187 c 0.0218,2.18081 0.5857,4.48623 -0.31154,6.57046 -1.50788,3.16528 -5.30871,4.89124 -8.71389,4.20272 0.23678,2.09981 -0.81001,4.26816 -2.65435,5.32117 -2.51104,1.56084 -6.1343,0.98137 -7.94437,-1.38948 -1.57018,-1.95338 -1.45491,-5.05636 0.33647,-6.83527 0.93775,-1.08418 2.31789,-1.60445 3.68868,-1.8755 -2.02815,-1.72283 -4.37096,-3.37713 -7.12189,-3.48617 -1.916,1.08729 -3.05625,3.19955 -3.3896,5.33051 -0.40189,2.73224 0.23678,5.61714 1.74153,7.93191 1.28979,1.87861 3.39271,2.87866 5.24328,4.08745 0.61998,0.28974 0.47978,1.33964 -0.16823,1.49541 -0.47355,0.14954 -0.91282,-0.19004 -1.34898,-0.32089 -3.27433,-1.33029 -6.07199,-4.10926 -6.87889,-7.61413 -0.57636,-2.81947 -0.53274,-5.94425 0.91905,-8.50514 0.65424,-1.19322 1.78515,-1.99388 2.97213,-2.60139 -3.8538,-0.33336 -7.8104,-0.10905 -11.53024,0.99694 -1.13713,0.51093 -2.33969,0.82559 -3.55783,1.07794 0.60128,-1.09975 1.85369,-1.56395 2.92229,-2.08112 4.642,-1.87861 9.81051,-2.10292 14.71732,-1.35521 -2.84439,-0.98136 -5.72306,-2.31166 -8.80734,-2.10292 -0.61686,0.0311 -1.23683,0.0467 -1.85368,0.009 z"
     id="path20"
     style="fill:#3d3d3d" />
  <path
     d="m 41.74999,61.265541 c 0.47043,-0.51094 1.03744,-0.9284 1.64495,-1.26487 -0.47666,0.86609 -1.20879,1.53902 -1.77269,2.34281 -1.51722,2.17457 -2.47054,4.67004 -3.55783,7.07516 -1.72283,3.94103 -3.16217,8.1126 -3.24317,12.45863 3.10921,-3.18397 5.85703,-6.69507 8.92885,-9.9102 0.95644,-0.95644 1.76334,-2.13096 3.03132,-2.70732 0.0716,0.53897 0.0872,1.08417 -0.0249,1.62003 -0.51405,3.01574 -1.32407,5.98787 -1.55772,9.04411 -0.17135,1.98142 0.003,3.97219 0.25235,5.93803 1.09663,-2.52974 2.50792,-4.95978 4.38342,-6.99416 0.86609,-0.0343 0.55143,0.86609 0.50781,1.41129 -0.39566,2.51416 0.56701,5.0034 1.79138,7.15617 0.84117,-3.38649 3.70426,-6.05642 7.0222,-6.97547 0.72278,0.16512 0.76328,1.16829 0.0498,1.38014 -2.50793,1.44868 -5.33363,3.40206 -5.6701,6.53619 -0.20251,0.65424 0.0997,1.75711 -0.73524,1.99699 -0.32401,0.11216 -0.67917,-0.1215 -0.82248,-0.40812 -1.4736,-2.49858 -3.05936,-5.16851 -2.92228,-8.18114 -1.67922,2.71355 -3.45502,5.76356 -3.02198,9.0815 -0.90036,0.5639 -1.50164,-0.31777 -1.57329,-1.14648 -0.41124,-3.46437 -1.0686,-6.98169 -0.46732,-10.46475 0.41124,-2.76028 1.36145,-5.38971 2.11227,-8.06587 -3.0469,4.82893 -7.22159,8.76372 -11.11588,12.88545 -0.33336,0.49535 -0.92529,0.40189 -1.42688,0.30531 -0.47043,-1.54837 -0.33646,-3.18398 -0.16511,-4.76662 0.4455,-3.8133 1.7758,-7.47082 3.51421,-10.87599 1.38949,-2.62009 2.77586,-5.30248 4.83828,-7.47082 z"
     id="path22"
     style="fill:#3d3d3d" />
  <path
     d="m 84.82715,95.186431 c 4.05007,-0.69475 7.6889,2.07799 11.71716,1.66987 3.32417,-0.58259 6.67327,-1.04679 10.03794,-1.30225 2.37397,0.0467 4.73858,0.324 7.1032,0.51093 0.52028,1.11844 1.38949,2.20885 1.19945,3.51733 -0.24924,2.258689 -0.9284,4.489349 -0.74459,6.782309 0.0654,0.85051 0.45797,1.6356 1.01874,2.26804 l 0.33336,0.41435 c 0.39254,0.19939 0.7882,0.39878 1.18698,0.59816 l -0.006,0.3614 c -0.0343,6.2776 0,12.55833 -0.0187,18.83593 0.0156,2.2992 0.28662,4.73547 1.63561,6.67016 0.90036,1.33652 2.3615,2.17769 3.87249,2.65123 2.69797,0.84117 5.53613,1.03121 8.34003,1.20879 7.70759,0.26793 15.47749,-0.20561 23.01685,-1.8786 6.11872,-1.42064 12.15333,-3.63884 17.31561,-7.27767 8.69207,-6.18103 14.70487,-15.31238 19.54003,-24.65869 1.81007,0.003 3.62325,-0.003 5.43332,0.009 -2.57024,12.76083 -5.2869,25.49051 -7.89452,38.242 -0.12462,0.60751 -0.23677,1.22748 -0.44551,1.8163 -3.70737,0.18693 -7.43343,0.0218 -11.14703,0.0779 -37.42888,0.009 -74.85464,-0.0187 -112.28351,0.0125 0,-1.71661 -0.003,-3.43322 -0.006,-5.14982 4.02826,-0.15266 8.15622,-0.35828 11.97574,-1.76334 3.08429,-1.12156 5.56418,-3.80707 6.2745,-7.02843 l 0.0966,-0.35204 c 1.6138,-0.081 3.23071,-0.0218 4.84451,-0.0343 0.49536,0.0187 0.97825,-0.11839 1.40506,-0.36451 l 0.16201,-0.0779 c 0.2835,-0.93774 0.48289,-1.8973 0.64801,-2.86308 -1.79761,-0.66982 -3.64195,-1.27422 -5.30248,-2.25246 0.57636,-0.85675 1.42064,-1.46115 2.31789,-1.93781 2.81324,-1.0904 5.3679,-2.7042 7.92256,-4.28372 -0.3022,-0.91283 -0.54832,-1.85057 -0.99071,-2.70732 -0.36139,-0.52339 -0.74148,-1.03121 -1.10287,-1.54837 2.12473,-2.30854 3.64818,-5.09063 5.45825,-7.63906 -1.79761,0.77886 -3.52668,1.71038 -5.33363,2.46743 -2.10604,0.15577 -4.25257,0.50159 -6.32434,-0.10281 -0.028,-0.38943 -0.053,-0.77886 -0.081,-1.16517 1.42375,-0.88167 2.71043,-2.19327 3.03444,-3.8943 0.26169,-1.54526 -0.36451,-3.04067 -0.67294,-4.52985 -1.03432,0.90348 -1.89107,2.16523 -3.2899,2.52039 -1.0281,0.25858 -2.20885,0.53586 -3.11544,-0.19316 0.16823,-1.43933 0.15266,-2.903579 0.44551,-4.324219 0.31154,-1.39572 1.51722,-2.29608 2.42381,-3.30548 z"
     id="path24"
     style="fill:#2e633c" />
  <path
     d="m 188.85786,103.2336 c 3.30548,-0.0249 6.60784,0.003 9.91021,-0.0125 -3.11544,14.95099 -6.20596,29.90821 -9.31205,44.86231 -42.58181,-0.0187 -85.16361,0.0343 -127.74231,-0.028 -0.23677,-3.22448 -0.0436,-6.52061 -0.0935,-9.77313 4.41146,-0.18381 8.93196,-0.19316 13.17519,-1.56395 2.4425,-0.79132 4.41457,-2.75405 5.15916,-5.21524 0.77575,0.0904 1.55461,0.17135 2.32724,0.27104 -0.71032,3.22136 -3.19021,5.90687 -6.2745,7.02843 -3.81952,1.40506 -7.94748,1.61068 -11.97574,1.76334 0.003,1.7166 0.006,3.43321 0.006,5.14982 37.42887,-0.0312 74.85463,-0.003 112.28351,-0.0125 3.7136,-0.0561 7.43966,0.10905 11.14703,-0.0779 0.20874,-0.58882 0.32089,-1.20879 0.44551,-1.8163 2.60762,-12.75149 5.32428,-25.48117 7.89452,-38.242 -1.81007,-0.0125 -3.62325,-0.006 -5.43332,-0.009 -4.83516,9.34631 -10.84796,18.47766 -19.54003,24.65869 -5.16228,3.63883 -11.19689,5.85703 -17.31561,7.27767 -7.53936,1.67299 -15.30926,2.14653 -23.01685,1.8786 -2.8039,-0.17758 -5.64206,-0.36762 -8.34003,-1.20879 -1.51099,-0.47354 -2.97213,-1.31471 -3.87249,-2.65123 -1.34899,-1.93469 -1.62003,-4.37096 -1.63561,-6.67016 0.0187,-6.2776 -0.0156,-12.55833 0.0187,-18.83593 0.78509,0.23677 1.60445,0.25858 2.41446,0.1215 -0.009,6.55176 -0.003,13.10353 -0.003,19.6553 0.0467,1.72283 0.38008,3.57963 1.5951,4.88189 1.11221,1.11844 2.74159,1.40506 4.22453,1.7166 2.8849,0.50782 5.82587,0.67605 8.75439,0.6449 7.96929,0.0779 16.01646,-0.69163 23.66798,-3.01574 5.00651,-1.55461 9.87282,-3.79461 13.96651,-7.10943 7.76367,-6.23711 13.14092,-14.87311 17.56484,-23.66799 z"
     id="path26"
     style="fill:#fefefe" />
  <path
     d="m 14.04751,110.18103 c 0.61063,-1.60134 1.31472,-3.17152 2.12161,-4.6825 -0.58258,1.61068 -1.26798,3.19332 -2.12161,4.6825 z"
     id="path28"
     style="fill:#3d3d3d" />
  <path
     d="m 84.40345,109.84145 c 0.53274,-0.30843 1.07171,-0.6044 1.59822,-0.9284 0.028,0.38631 0.053,0.77574 0.081,1.16517 2.07177,0.6044 4.2183,0.25858 6.32434,0.10281 -2.53285,1.05302 -5.5704,0.90971 -8.00356,-0.33958 z"
     id="path30"
     style="fill:#3d3d3d" />
  <path
     d="m 89.01118,117.21257 c 1.1496,-0.50781 2.33035,-1.00317 3.27121,-1.85991 0.36139,0.51716 0.74148,1.02498 1.10287,1.54837 -1.46114,0.0343 -2.91917,0.17135 -4.37408,0.31154 z"
     id="path32"
     style="fill:#3d3d3d" />
  <path
     d="m 82.66815,124.65224 c 1.2711,-0.21185 2.55154,-0.3832 3.78526,-0.76017 -0.89725,0.47666 -1.74153,1.08106 -2.31789,1.93781 -0.51093,-0.36763 -0.99071,-0.77263 -1.46737,-1.17764 z"
     id="path34"
     style="fill:#3d3d3d" />
  <path
     d="m 198.58737,138.21374 c 2.71355,-0.0374 5.42709,-0.0374 8.14376,-0.003 -0.0125,0.58881 -0.0187,1.18075 -0.0218,1.7758 -0.9876,0 -1.97519,0 -2.95967,0.003 0,2.72289 0,5.44579 0,8.1718 -0.72901,-0.003 -1.45491,-0.003 -2.1808,0 0,-2.7229 0,-5.44579 0,-8.16868 -0.9876,-0.006 -1.97519,-0.006 -2.95967,-0.006 -0.006,-0.59194 -0.0125,-1.18387 -0.0218,-1.77269 z"
     id="path36"
     style="fill:#3d3d3d" />
  <path
     d="m 207.79661,138.19193 c 1.04055,-0.003 2.07799,-0.003 3.12167,0.003 0.56389,2.51727 1.19944,5.01897 1.7166,7.54871 0.67294,-2.49859 1.18075,-5.03767 1.78203,-7.55183 1.01252,0 2.02504,0 3.04067,0 0,3.32418 0,6.64523 0,9.96941 -0.65113,-0.003 -1.29914,0 -1.94715,0.003 -0.0249,-2.61385 0.0436,-5.23082 -0.0436,-7.84779 -0.59817,2.61385 -1.18076,5.23082 -1.77269,7.84779 -0.70097,-0.003 -1.40195,-0.003 -2.0998,-0.003 -0.59817,-2.53597 -1.07483,-5.09998 -1.7758,-7.6079 0.0156,2.53596 0.0125,5.07193 0.009,7.6079 -0.67916,0 -1.35521,0 -2.02815,0 0,-3.32418 0,-6.64523 -0.003,-9.96941 z"
     id="path38"
     style="fill:#3d3d3d" />
</svg>
