<?xml version="1.0" encoding="UTF-8" standalone="no"?>
<!-- Created with Inkscape (http://www.inkscape.org/) -->

<svg
   xmlns:dc="http://purl.org/dc/elements/1.1/"
   xmlns:cc="http://creativecommons.org/ns#"
   xmlns:rdf="http://www.w3.org/1999/02/22-rdf-syntax-ns#"
   xmlns:svg="http://www.w3.org/2000/svg"
   xmlns="http://www.w3.org/2000/svg"
   version="1.1"
   width="280.00003"
   height="200"
   id="svg2"
   xml:space="preserve"><metadata
     id="metadata8"><rdf:RDF><cc:Work
         rdf:about=""><dc:format>image/svg+xml</dc:format><dc:type
           rdf:resource="http://purl.org/dc/dcmitype/StillImage" /><dc:title></dc:title></cc:Work></rdf:RDF></metadata><defs
     id="defs6" /><g
     transform="matrix(1.25,0,0,-1.25,-341.29172,438.24907)"
     id="g10"><g
       transform="matrix(0.02913166,0,0,0.02913166,272.86678,190.53508)"
       id="g12"><path
         d="m 5.71875,2.20313 7689.22995,0 0,5372.74997 -7689.22995,0 0,-5372.74997 z"
         id="path14"
         style="fill:#15366f;fill-opacity:1;fill-rule:nonzero;stroke:none" /><path
         d="m 3252.57,4545.48 c -682.95,4.6 -1330.2,-229.51 -1776.75,-644.62 -2.34,27.75 -23.29,276.42 -23.29,276.42 l -185.62,-232.94 -33.7,-42.09 C 1076.63,3705.5 907.625,3462.56 841.266,3152.67 c -17.297,-80.79 -26.18,-159.17 -26.18,-237.86 0,-147.29 31.367,-295.9 96.453,-463.55 -54.445,10.86 -118.867,23.71 -118.867,23.71 l 86.93,-166.65 c 266.018,-509.99 733.428,-877.37 1360.488,-1086.38 251.38,-83.8 393,-94.56 473.28,-102.92 l 0,0 c -483.46,175.82 -810.71,522.71 -1017.12,849.09 41.8,-8.59 83.66,-17.18 83.66,-17.18 l -61.31,154.79 c -51.12,129.08 -75.59,298.66 -75.59,435.37 0,69.91 5.97,131.36 18.91,174.14 64.03,211.58 589.25,444.32 902.15,404.36 -28.29,-3.32 -96.52,-16.64 -96.52,-16.64 0,0 271.04,-11.72 499.58,-68.06 228.56,-56.33 506.22,-137.73 749.35,-244.95 108.11,-47.66 429.82,-209.28 668.01,-370.92 l -40.58,69.64 c 0,0 18.81,-3.96 70.53,-38.8 79.58,-53.61 160.96,-155.52 167.25,-174.95 0.72,-13.23 -9.41,-17.11 -67.59,-29.64 -76.8,-16.55 -157.44,-30.43 -157.44,-30.43 0,0 77.29,-78.14 195.93,-117.71 118.64,-39.57 196.93,-42.83 271.52,-34.9 65.06,-97.16 184.71,-204.53 404.62,-262.07 329.63,-86.27 607.99,-10.67 806.75,71.73 41.94,-89.16 64.35,-173.3 64.35,-243.44 0,-22.94 -2.37,-44.39 -7.17,-64.04 -17.65,-72.33 -152.11,-187.13 -240.75,-221.21 -88.63,-34.1 -112.72,-42.46 -140.9,-52.28 32.73,-27.68 115.9,-68.19 153.4,-81.82 50.21,-18.25 111.37,-29.55 144.33,-35.23 151.58,-26.14 305.39,-12.86 439.32,30.49 171.74,55.58 298.46,164.17 366.5,314.02 52.1,114.75 72.35,226.95 72.35,332.07 0,271.04 -134.53,494.55 -205.31,593.36 38.6,38.45 60.44,88.42 62.32,145.46 0.1,2.67 0.14,5.36 0.14,8.06 0,154.53 -144.61,327.45 -290.79,434.64 -40.43,172.97 -144.14,344.53 -325.54,536.36 -85.78,90.73 -189.53,178.83 -299.39,272.08 -100.32,85.15 -430.8,314.09 -519.21,436.51 0,0 61,-136.06 79.34,-176.83 -221.7,150.77 -585.98,330.58 -811.43,419.58 l -306.27,120.89 c 0,0 75.55,-97.09 135.45,-174.09 -253.2,80.59 -538.67,140.26 -646.32,154.64 l 3.33,-0.5 c -226.16,33.27 -577.13,51.12 -686.6,43.5 27.1,-18.13 97.42,-65.69 175.94,-118.63"
         id="path16"
         style="fill:#ffffff;fill-opacity:1;fill-rule:nonzero;stroke:none" /><path
         d="m 6592.61,2412.97 c -0.45,22.09 -8.98,68.98 -4.81,71.41 163.17,94.59 -0.54,350.12 -214.43,493.76 -29.2,162.69 -123.91,330.45 -311.03,528.36 -159.34,168.53 -381.94,326.42 -626.7,563.22 8.27,-24.02 49,-156.17 45.88,-153 -125.2,127.78 -644.91,403.72 -937.53,519.23 24.46,-31.43 80.09,-106.79 120.84,-167.04 -242.44,125 -746.09,240.18 -916.85,263 -114.53,19.68 -230.7,22.36 -356.04,28.15 50.7,-34.15 120.59,-89.5 160.62,-122 -870.81,98.1 -1681.7,-208.15 -2149.98,-739.86 l -8.47,100.47 -12.26,145.52 c -22.63,-28.91 -49.3,-61.66 -78.22,-97.97 -131.79,-165.63 -308.349,-404.09 -374.364,-712.41 -58.5,-273.2 -7.797,-508.62 133.054,-804.4 l -102.922,20.53 c 239.992,-460.1 669.022,-856.02 1302.432,-1098.92 94.9,-36.39 173.52,-62.75 242.4,-82.72 82.95,-24.07 146.68,-37.75 209.14,-49.28 -627.24,228.11 -1011.93,585.26 -1188.1,976.07 l 109.66,-22.51 c -83.24,210.17 -102.48,520.11 -59.41,667.84 26.53,91.08 68.28,183.77 127.12,255.14 39.15,47.52 95.99,92.97 145.92,118.8 l -32.09,-50.27 -102.7,-148.34 c 163.65,153.8 607.28,332.78 1081.9,301.39 40.71,-2.69 81.53,-6.67 122.3,-12.47 l -188.63,-41.84 169.32,-29.74 c 211.58,-36.5 611.11,-153.64 854.13,-260.79 136.34,-60.13 330.62,-149.05 561.77,-305.92 -24.94,46.32 -46.74,93.12 -71.35,135.09 120.15,-91.31 267.02,-209.78 301.47,-246.09 82.05,-86.56 153.65,-170.77 150.02,-221.25 -3.6,-50.52 -110.12,-45.38 -115.51,-51.02 129.94,-40.2 242.72,-41.61 289.76,-18.34 43.2,-90.63 144.57,-215.28 382.57,-277.54 351.32,-91.96 641.75,15.94 825.11,100.72 73.71,-128.67 138.52,-301.29 103.46,-444.89 -22.11,-90.64 -102.04,-185.39 -251.9,-253.8 15.99,-7.47 61.94,-18.48 92.08,-23.6 244.38,-41.36 585.05,9.57 712.34,289.93 164.9,363.2 -30.22,713.23 -140,857.38"
         id="path18"
         style="fill:#ffffff;fill-opacity:1;fill-rule:nonzero;stroke:none" /><path
         d="M 2186.22,1208.38 C 1552.8,1451.25 1123.77,1847.22 883.789,2307.3 l 3.024,-0.6 c -0.547,1.02 -1.016,2.12 -1.454,3.25 l -77.617,15.48 C 1048.58,1866.36 1476.69,1471.48 2106.75,1229.7 c 133.66,-51.3 234.81,-82.53 321.88,-104.06 -68.88,19.99 -147.52,46.38 -242.41,82.74"
         id="path20"
         style="fill:#ffffff;fill-opacity:1;fill-rule:nonzero;stroke:none" /><path
         d="M 3412.84,4523.88 C 2525.37,4586.5 1818,4347.98 1367.39,3891.75 l 8.47,-100.47 c 434.8,493.7 1143.69,764.63 2045.07,723.03 -2.73,3.19 -5.45,6.38 -8.09,9.57"
         id="path22"
         style="fill:#ffffff;fill-opacity:1;fill-rule:nonzero;stroke:none" /><path
         d="m 3443.32,4483.25 c -887.48,62.61 -1594.84,-175.89 -2045.45,-632.12 l 8.47,-100.47 c 434.79,493.7 1143.69,764.61 2045.07,723.03 -2.74,3.17 -5.46,6.36 -8.09,9.56"
         id="path24"
         style="fill:#edae09;fill-opacity:1;fill-rule:nonzero;stroke:none" /><path
         d="M 1214.93,3977.44 C 1085.7,3812.58 868.977,3564.67 798.898,3219.09 l 5.243,-111.45 c 66.734,325.34 276.919,699 410.789,869.8"
         id="path26"
         style="fill:#edae09;fill-opacity:1;fill-rule:nonzero;stroke:none" /><path
         d="m 2795.67,3217.14 -205.94,-46.19 c 33.53,2.47 81.47,-0.47 139.61,-8.12 l 188.63,41.84 c -40.77,5.8 -81.59,9.78 -122.3,12.47"
         id="path28"
         style="fill:#edae09;fill-opacity:1;fill-rule:nonzero;stroke:none" /><path
         d="m 1702.64,2995.56 c 32.98,23.53 71.16,46.57 113.83,68.53 l 26.64,38.5 c -54.73,-21.4 -101.32,-59.51 -140.47,-107.03"
         id="path30"
         style="fill:#edae09;fill-opacity:1;fill-rule:nonzero;stroke:none" /><path
         d="m 1026.47,1796.94 c 6.04,-90.83 181.19,-243.39 301.1,-315.34 240.55,-144.33 451.88,-205.65 451.88,-205.65 0,0 -326.47,169.52 -429.26,240.5 -102.79,70.99 -237.5,180.03 -323.72,280.49"
         id="path32"
         style="fill:#edae09;fill-opacity:1;fill-rule:nonzero;stroke:none" /><path
         d="m 6428.39,2470.16 c -47.02,-21.29 -89.91,-22.74 -122.65,-18.17 -85.16,-9.58 -158.51,19.35 -162.8,20.1 0.7,-0.14 37.34,-1.12 86.79,7.97 -60.52,2.77 -119.98,23.65 -175.11,57.35 -27.93,-0.6 -51.11,-1.63 -76.21,2.03 82.22,-68.6 141.79,-129.14 181.95,-183.93 104.32,-123.28 184.44,-246.43 184.44,-246.43 0,0 -110.75,123.4 -168.48,181.15 -102.43,102.47 -247.21,203.87 -386.19,287.31 -263.48,134.68 -350.65,172.65 -541.25,176.52 -193.65,3.94 -366.07,-105.06 -415.94,-229.78 -18.53,-73.3 -8.69,-167.19 28.03,-252.5 l -1.25,30.89 c 1.09,-8.84 63.2,-241.2 409.58,-331.83 328.47,-85.96 599.38,-6.29 773.43,72.22 -19.01,28.71 -39.4,55.85 -60.93,81.42 l -25.82,-12.39 c -79.18,-38.04 -307.73,-147.02 -627.21,-42.4 -117.72,38.58 -175.22,93.19 -202.43,144.04 -39.57,41.18 -63.96,89.43 -65.79,144.24 -3.69,-0.64 -7.34,-1.34 -10.62,-2.2 -1.09,-1.07 -2.11,-2.11 -2.94,-3.13 -0.85,15.45 4.15,49.84 4.15,49.84 41.92,134.65 198.02,197.55 403.69,147.4 160.62,-39.21 497.06,-190.62 693.37,-500.63 36.89,-58.27 68.2,-125.91 92.26,-190.56 41.38,-111.1 52.59,-266.23 2.95,-362.38 -67,-129.78 -233.25,-205.06 -252.75,-201.87 61.56,-10.03 164.86,-1.67 248.63,14.39 163.13,31.29 318.69,124.8 388.51,278.58 13.07,28.84 23.68,57.89 32.16,86.97 53.99,339.36 -200.63,809.77 -231.57,795.78"
         id="path34"
         style="fill:#edae09;fill-opacity:1;fill-rule:nonzero;stroke:none" /><path
         d="m 6485.85,2700.56 c -49.76,97.64 -117.66,113.52 -117.66,113.52 l -2.91,-114.39 c 0,0 -26.26,98.72 -40.76,147.11 -50.03,166.61 -197.37,390.34 -368.43,548.5 11.54,-24.03 19.76,-47.85 18.98,-67.78 -92.3,113.29 -356.84,328.36 -356.84,328.36 l 32.57,-99.44 c 0,0 -17.32,22.9 -36.42,45.58 -175.29,207.98 -659.74,459.93 -806.79,536.14 l 64.45,-104.5 c -11.34,6.26 -27.73,14.82 -48.27,25.15 l 65.28,-111.03 -341.67,160.72 184.07,-32.53 c -51.86,24.06 -238.86,101.58 -182.95,79.89 55.91,-21.7 -352.99,134.12 -574.14,175.67 -39.36,7.39 -79.28,13.7 -119.55,19.22 35.96,-23.3 98.85,-109.37 128.27,-136.59 -721.42,100.93 -1315.21,51.86 -1780.42,-124.39 -307.24,-142.14 -589.64,-363.13 -846.78,-679.38 l -7.66,43.8 c -0.33,-0.47 -0.69,-0.89 -1.02,-1.35 l -24.91,142.41 c -103.16,-135.3 -229.46,-357.61 -269.64,-513.06 -0.31,-1.24 -3.37,-13.03 -3.67,-14.27 -35.24,-138.22 -38.71,-259.5 -17.55,-377.44 29.23,-126.96 86.35,-251.89 162.7,-392.03 l -15.72,3.18 c 7.91,-15.06 16.01,-30.22 24.39,-45.61 l -79.16,15.96 c 133.26,-207.15 342.33,-437.57 573.03,-599.17 -149.59,159.91 -258.76,318.85 -323.61,498.6 l 8.37,-1.68 c -5.97,14.58 -11.7,29.29 -17.06,44.14 l 109.98,-22.39 c -8.19,30.24 -15.08,60.65 -20.86,91.1 -51.81,227.2 -37.61,459.67 26.73,622.8 52.39,132.81 263.58,431.78 617.86,524.21 l -52.62,-80.06 c 22.84,6.42 46.4,12.19 70.82,17.17 l -83.55,-110.06 c 291.45,121.03 703.54,161.91 1204.41,14.97 l -50.02,-6.77 c 15.06,-5.87 29.72,-12 43.47,-18.65 l -85.57,-21.13 c 151.61,-36.72 341.24,-90.78 426.22,-120.31 90.34,-31.41 200.87,-83.08 309.51,-139.19 -27.41,19.91 -43.53,31.57 -43.53,31.57 159.61,-49.38 295.23,-107.36 409.57,-167.49 l -19.64,35.84 c 164.03,-89.96 273.62,-143.53 345.51,-197.56 71.9,-54.03 139.6,-102.69 200.93,-197.86 0.97,66.25 29.62,230.55 72.68,162.32 75.61,116.01 246.55,180.79 393.23,175.87 152.02,-5.14 298.87,-47.11 446.3,-134.92 -27.49,30.92 -28.86,73.4 -19.58,104.51 1.33,4.49 3.01,8.68 4.76,12.74 1.57,9.08 3.93,17.78 7.47,25.7 8.41,18.81 25.19,30.81 42.47,38.55 -10.48,34.89 -47.29,108.97 -135.18,118.61 -56.53,6.2 -83.51,-14.56 -84.42,-15.53 0.9,0.95 18.24,31.09 47.59,43.76 -29.66,17.16 -105.72,0.46 -107.71,-0.25 3.41,1.27 73.69,67.55 181.63,33.81 21.51,-6.73 40.45,-17.45 57.8,-26.89 -15.01,21.49 -24.61,34.58 -25.1,34.6 12.87,-0.38 94.19,-23.85 138.25,-116.86 9.9,-20.92 34.85,-75.11 48.64,-104.35 24.78,-52.5 72.71,-126.12 122.38,-176.92 80.68,-82.53 169.62,-111.54 270.36,-110.9 103.05,0.67 140.81,69.07 141.44,71.73 -0.55,-2.48 2.46,-49.94 -28.17,-85.91 22.85,12.3 51.2,41.79 58.76,62.32 10.3,28.14 3.29,82.98 -6.99,94.43 5.38,-5.95 70.82,-63.71 57.41,-121.92 -2.41,-10.51 -6.04,-23.12 -14.52,-36.08 9.42,-6.53 21,-14.53 33.72,-23.32 l -17.83,25.5 58.16,-33.3 c 21.7,24.94 16.46,119.52 -31.29,213.2"
         id="path36"
         style="fill:#edae09;fill-opacity:1;fill-rule:nonzero;stroke:none" /><path
         d="m 1067.65,2246.47 c -140.845,295.78 -191.556,531.19 -133.048,804.41 66.018,308.29 242.568,546.76 374.348,712.37 l -10.11,113.17 c -124.39,-160.94 -366.59,-433.09 -444.481,-808.9 -56.523,-272.75 -4.867,-507.64 136.594,-802.79 l -24.64,4.91 c 0.437,-1.13 0.906,-2.23 1.453,-3.25 l 99.884,-19.92"
         id="path38"
         style="fill:#edae09;fill-opacity:1;fill-rule:nonzero;stroke:none" /><path
         d="M 2257.33,1188.06 C 1623.91,1430.94 1194.88,1826.91 954.898,2286.99 l 3.024,-0.6 c -0.547,1.02 -1.016,2.12 -1.453,3.25 l -77.625,15.48 C 1119.68,1846.05 1547.8,1451.17 2177.86,1209.38 c 133.66,-51.29 234.81,-82.52 321.87,-104.05 -68.88,19.98 -147.51,46.37 -242.4,82.73"
         id="path40"
         style="fill:#edae09;fill-opacity:1;fill-rule:nonzero;stroke:none" /><path
         d="m 6128.73,2944.88 -34.4,52.43 c -123.11,182.13 -265.2,233.75 -310.86,236.41 69.51,-25.27 159.53,-85.03 275.9,-257.67 l 33.87,-51.8 c 46.85,-72.87 86.01,-119.2 155.39,-136.05 -53.91,13.08 -74.56,86.36 -119.9,156.68"
         id="path42"
         style="fill:#15366f;fill-opacity:1;fill-rule:nonzero;stroke:none" /><path
         d="m 5722.74,2848.06 c -7.34,30.88 -42.91,115.05 -137,125.38 -56.53,6.2 -83.51,-14.56 -84.42,-15.53 0.9,0.95 18.24,31.09 47.59,43.76 -29.66,17.16 -105.72,0.46 -107.71,-0.25 3.41,1.27 73.69,67.55 181.63,33.81 21.51,-6.73 40.45,-17.45 57.8,-26.89 -15.01,21.49 -24.61,34.58 -25.1,34.6 12.87,-0.38 94.19,-23.85 138.25,-116.86 9.9,-20.92 34.85,-75.11 48.64,-104.35 24.78,-52.5 72.71,-126.12 122.38,-176.92 68.48,-70.04 142.93,-101.44 225.45,-108.98 -44.59,11.78 -73.95,37.61 -68.33,64.62 62.96,-26.43 123.42,-37.57 154.69,36.93 31.23,74.48 15.35,325.78 -277.74,646.39 3.25,-17.61 10.94,-48.35 11.33,-80.88 -76.23,108.41 -231.57,271.34 -327.43,345.83 4.03,-19.25 19.97,-82.92 27.69,-109.59 -51.12,53.32 -194.59,175.14 -194.59,175.14 l 29.75,-90.77 c 0,0 -15.82,20.91 -33.27,41.59 -160.01,189.86 -602.22,419.85 -736.44,489.43 l 58.81,-95.39 c -10.34,5.7 -25.27,13.53 -44.05,22.93 l 59.6,-101.33 -311.9,146.74 168.04,-32.09 c -55.83,39.85 -110.85,65.53 -224.53,116.87 -161.34,62.34 -264.7,99 -466.57,136.92 -35.94,6.74 -72.37,12.52 -109.14,17.53 28.33,-18.34 74.97,-97.51 104.49,-129.86 -311.81,43.61 -599.77,59.22 -863.82,48.64 497.51,1.6 1398.1,-256 1764.21,-506.23 304.06,-207.81 253.87,-256.45 -71.96,-110.84 -724.84,323.89 -1311.59,341.9 -1311.59,341.9 l -401.44,-243.28 c 0,0 673.71,-88.23 1139.91,-337.61 401.03,-214.54 263.65,-225.98 -134.18,-83.5 -597.2,213.89 -1241.77,251.92 -1538.56,213.16 264.08,-9.42 727.02,-70.05 907.83,-130.8 -45.73,-13.94 -162.76,-65.55 -218.75,-78.73 100.26,6.58 1217.85,-336.41 1523.71,-737.85 1.18,12.6 3.14,26.21 6.13,40.65 36.44,165.68 249.73,261.88 427.35,255.9 152.02,-5.14 298.87,-47.11 446.3,-134.92 -27.49,30.92 -28.86,73.4 -19.58,104.51 8.3,27.77 26.27,48.16 36.72,50.16 5.67,8.13 12.33,14.83 19.8,20.06"
         id="path44"
         style="fill:#6b4305;fill-opacity:1;fill-rule:nonzero;stroke:none" /><path
         d="m 5229.42,2828.41 c -177.5,8.68 -390.91,-90.22 -427.35,-255.9 -15.84,-76.4 -2.59,-129.84 -2.59,-129.84 0,0 5.95,44.52 12,62.99 26.08,139.93 213.79,272.9 427.32,268.56 192.85,-3.91 279.68,-42.67 550.53,-181.28 0,0 -231.16,219.33 -559.91,235.47"
         id="path46"
         style="fill:#edae09;fill-opacity:1;fill-rule:nonzero;stroke:none" /><path
         d="m 6248.63,2788.2 c -69.38,16.85 -108.54,63.18 -155.39,136.05 l -33.87,51.8 c -116.37,172.64 -206.39,232.4 -275.9,257.67 45.66,-2.66 187.75,-54.28 310.86,-236.41 l 34.4,-52.43 c 45.34,-70.32 65.99,-143.6 119.9,-156.68"
         id="path48"
         style="fill:#edae09;fill-opacity:1;fill-rule:nonzero;stroke:none" /><path
         d="m 6212.09,2773.3 c -69.36,16.84 -108.53,63.17 -155.38,136.06 l -33.89,51.8 c -116.37,172.62 -206.38,232.39 -275.9,257.65 45.69,-2.65 187.75,-54.28 310.86,-236.4 l 34.41,-52.43 c 45.33,-70.31 65.98,-143.6 119.9,-156.68"
         id="path50"
         style="fill:#15366f;fill-opacity:1;fill-rule:nonzero;stroke:none" /><path
         d="m 5718.88,2652.78 c -41.74,43.05 -56.18,100.6 -15.5,175.38 -10.37,-1.55 -28.76,-22.18 -37.16,-50.32 -9.28,-31.11 -7.91,-73.59 19.58,-104.51 -147.43,87.81 -294.28,129.78 -446.3,134.92 -177.62,5.98 -390.91,-90.22 -427.35,-255.9 -15.84,-76.4 -2.59,-129.83 -2.59,-129.83 0,0 5.95,44.51 11.99,62.99 26.09,139.93 213.79,272.9 427.33,268.55 192.85,-3.9 279.68,-42.67 550.53,-181.29 l 42.61,-9.61 c -41.23,33.68 -82.21,63.34 -123.14,89.62"
         id="path52"
         style="fill:#15366f;fill-opacity:1;fill-rule:nonzero;stroke:none" /><path
         d="m 6400.2,2676.48 c 10.28,-11.45 17.29,-66.29 6.99,-94.43 -7.56,-20.53 -35.91,-50.02 -58.76,-62.32 30.63,35.97 27.62,83.43 28.17,85.91 -0.63,-2.66 -38.39,-71.06 -141.44,-71.73 -100.74,-0.64 -189.68,28.37 -270.36,110.9 -49.67,50.8 -97.6,124.42 -122.38,176.92 -13.79,29.24 -38.74,83.43 -48.64,104.35 -44.06,93.01 -125.38,116.48 -138.25,116.86 0.49,-0.02 10.09,-13.11 25.1,-34.6 -17.35,9.44 -36.29,20.16 -57.8,26.89 -107.94,33.74 -178.22,-32.54 -181.63,-33.81 1.99,0.71 78.05,17.41 107.71,0.25 -29.35,-12.67 -46.69,-42.81 -47.59,-43.76 0.91,0.97 27.89,21.73 84.42,15.53 98.68,-10.81 133.07,-103.03 137.94,-129.63 35.51,21.88 82.77,-6.22 96.98,-15.75 15.79,-22.92 30.64,-48.36 46.9,-76.68 -10.34,0.98 -19.79,-2.35 -27.33,-8.21 18.35,-20.4 29.45,-41.26 29.45,-41.26 l -48,6.67 c -2.63,-28.95 17,-60.99 53.79,-72.89 23.25,-7.53 43.06,-6.81 60.95,0.03 14.31,-15.47 29.28,-30.08 44.78,-43.75 -19.78,-17.27 -37.61,-33.45 -72.42,-30.95 2.93,-1.22 37.67,-26.76 37.67,-26.76 140.67,-105.85 186.96,-169.28 248.15,-232.46 -36.62,68.4 -106.12,145.82 -216.19,237.64 25.1,-3.66 48.28,-2.63 76.21,-2.03 55.13,-33.7 114.59,-54.58 175.11,-57.35 -49.45,-9.09 -86.09,-8.11 -86.79,-7.97 5.72,-0.98 134.65,-52.34 250.47,5.14 49.09,24.37 59.15,55.41 64.2,77.33 13.41,58.21 -52.03,115.97 -57.41,121.92"
         id="path54"
         style="fill:#15366f;fill-opacity:1;fill-rule:nonzero;stroke:none" /><path
         d="m 4693.87,3690.77 31.71,24.36 c -263.28,134.34 -563.23,236.1 -890.87,296.15 -102.58,18.81 -276.21,36.91 -379.86,47.03 91.56,-12.5 195.81,-20.34 266.2,-33.25 367.56,-67.45 688.32,-174.01 972.82,-334.29"
         id="path56"
         style="fill:#6b4305;fill-opacity:1;fill-rule:nonzero;stroke:none" /><path
         d="m 4927.7,2741.09 50.77,31.74 c -234.22,180.26 -530.61,332.59 -841.7,451.65 -97.4,37.27 -263.12,95.79 -363.17,124.74 87.72,-29.08 187.11,-64.8 253.96,-90.38 348.97,-133.65 649.82,-308.06 900.14,-517.75"
         id="path58"
         style="fill:#edae09;fill-opacity:1;fill-rule:nonzero;stroke:none" /><path
         d="m 3978.48,3524.91 49.68,33.92 c -280.22,93.89 -627.72,156.89 -960.66,167.83 -104.23,3.43 -279.98,4.61 -383.99,-0.69 92.4,1.19 198.01,-0.14 269.54,-2.5 373.5,-12.34 720.36,-82.11 1025.43,-198.56"
         id="path60"
         style="fill:#edae09;fill-opacity:1;fill-rule:nonzero;stroke:none" /><path
         d="m 4411.19,3685.14 c 10.83,9.05 40.8,31 56.77,38.94 -467.77,246.09 -1305.65,304.76 -1840.99,152.11 121.2,27.61 232.89,39.76 318.96,46.22 440.5,33 1163.45,-80.36 1465.26,-237.27 l 0,0"
         id="path62"
         style="fill:#15366f;fill-opacity:1;fill-rule:nonzero;stroke:none" /><path
         d="m 3736.78,3194.67 44.58,43.72 c -280.23,93.92 -622.64,147.09 -955.57,158.03 -104.24,3.42 -279.98,4.61 -383.99,-0.69 92.4,1.18 198,-0.14 269.54,-2.5 373.51,-12.34 720.36,-82.1 1025.44,-198.56"
         id="path64"
         style="fill:#edae09;fill-opacity:1;fill-rule:nonzero;stroke:none" /><path
         d="m 1128.66,2079.02 c 252.95,-343.32 628.08,-634.3 1133.17,-828 94.9,-36.39 173.52,-62.75 242.4,-82.72 79.38,-23.03 145.75,-37.58 209.14,-49.28 -618.6,224.96 -1001.28,575.43 -1180.7,959.93 l -121.57,0.07 c 83.31,-179.93 213.63,-341.43 386.85,-509.04 -210.62,126.81 -409.66,318.43 -558.36,508.97 l -110.93,0.07 z m 474.93,0 31.34,-6.44 c -0.86,2.15 -1.71,4.31 -2.55,6.49 l -28.79,-0.05 z m 3320.1,0 c 59.37,-72.41 159.38,-147.73 327.83,-191.79 351.32,-91.96 641.75,15.94 825.11,100.72 73.71,-128.67 138.52,-301.29 103.46,-444.89 -22.11,-90.64 -102.04,-185.39 -251.9,-253.8 15.99,-7.47 61.94,-18.48 92.08,-23.6 244.38,-41.36 585.05,9.57 712.34,289.93 84.74,186.64 74.41,369.82 29.43,523.36 l -99.48,0.07 c 35.48,-150.62 41.08,-324.54 -34.76,-491.61 -69.82,-153.78 -225.38,-247.29 -388.51,-278.58 -83.77,-16.06 -187.07,-24.42 -248.63,-14.39 19.5,-3.19 187.4,71.25 252.75,201.87 60.49,120.92 38.43,251.28 -2.95,362.38 -24.06,64.65 -55.37,132.29 -92.26,190.56 -6.41,10.11 -12.96,20.05 -19.65,29.81 l -110.89,-0.04 c 8.59,-11.75 16.96,-23.71 25.07,-35.96 -174.05,-78.51 -444.96,-158.18 -773.43,-72.22 -102.15,26.73 -181.67,65.93 -243.06,108.15 l -102.55,0.03 z m 378.53,0 c 8.49,-3.2 17.33,-6.32 26.55,-9.33 247.88,-81.17 441.02,-33.76 552.12,9.33 l -578.67,0"
         id="path66"
         style="fill:#15366f;fill-opacity:1;fill-rule:nonzero;stroke:none" /><path
         d="m 1239.59,2079.02 c -52.12,66.71 -98.05,133.36 -136.14,197.03 l 99.35,-20.03 c -155.38,285.23 -231.409,507.5 -153.82,811.9 0.3,1.24 3.36,13.03 3.67,14.27 40.31,155.95 167.3,379.25 270.66,514.44 l 32.57,-186.24 c 664.5,817.28 1497.73,998.86 2492.47,825.13 -20.84,23.28 -68.26,105.9 -127.22,159.95 412.57,-0.95 1036.15,-298.44 1150.91,-361.81 l -90.33,146.47 c 308.68,-137.8 627.02,-311.93 829.63,-492.57 -10.94,29.13 -29.04,95.58 -36.5,114.55 35.31,-26.97 294.99,-249.05 436.64,-381.44 221.86,-207.33 320.62,-437.08 367.71,-581.48 3.19,2.03 -6.65,75.04 -7.28,89.97 118.6,-121.47 248.08,-291.78 168.08,-431.32 -3.34,-5.8 -6.94,-11.58 -10.99,-17.25 l -70.02,40.07 18.4,-26.3 c 20.61,-29.44 134,-198.11 185.18,-415.38 l 99.48,0.04 c -42.54,145.16 -116.07,263.88 -169.43,333.95 -0.45,22.09 -8.98,68.98 -4.81,71.41 163.17,94.59 -0.54,350.12 -214.43,493.76 -29.2,162.69 -123.91,330.45 -311.03,528.36 -159.34,168.53 -381.94,326.42 -626.7,563.22 8.27,-24.02 49,-156.17 45.88,-153 -125.2,127.78 -644.91,403.72 -937.53,519.23 24.46,-31.43 80.09,-106.79 120.84,-167.04 -242.44,125 -746.09,240.18 -916.85,263 -114.53,19.68 -230.7,22.36 -356.04,28.15 50.7,-34.15 120.59,-89.5 160.62,-122 -870.81,98.1 -1681.7,-208.15 -2149.98,-739.86 l -8.47,100.47 -12.26,145.52 c -22.63,-28.91 -49.3,-61.66 -78.22,-97.97 -131.79,-165.63 -308.349,-404.09 -374.364,-712.41 -58.5,-273.2 -7.797,-508.62 133.054,-804.4 l -102.922,20.53 c 48.622,-93.21 104.992,-183.78 169.262,-270.99 l 110.93,0.07 z m 293.08,0 c -2.51,5.31 -4.97,10.68 -7.4,16.07 l 78.32,-16.07 28.79,0 c -81.08,210.07 -99.49,515.18 -56.86,661.4 26.53,91.08 68.28,183.77 127.12,255.14 39.15,47.52 95.99,92.97 145.92,118.8 l -32.09,-50.27 -102.7,-148.34 c 163.65,153.8 607.28,332.78 1081.9,301.39 40.71,-2.69 81.53,-6.67 122.3,-12.47 l -188.63,-41.84 -45.42,-10.06 c 47.16,3.37 122.67,-3.79 214.74,-19.68 211.58,-36.5 611.11,-153.64 854.13,-260.79 136.34,-60.13 330.62,-149.05 561.77,-305.92 -24.94,46.32 -46.74,93.12 -71.35,135.09 120.15,-91.31 282.18,-221.51 316.63,-257.83 82.05,-86.55 138.49,-159.03 134.86,-209.51 -3.6,-50.52 -110.12,-45.38 -115.51,-51.02 129.94,-40.2 242.72,-41.61 289.76,-18.34 -3.75,7.87 -7.04,15.46 -9.96,22.74 -51.44,63.47 -86.83,130.69 -95.44,217.19 -42.44,60.1 -288.2,395.03 -926.33,592.43 0,0 50.91,-36.77 125.53,-91.41 -114.9,53.81 -252.19,111.19 -382.84,156.59 -103.82,36.11 -363.91,108.82 -519.96,141.72 l 170.64,42.16 c -304.43,147.79 -948.76,95.87 -1242.44,-48.3 l 128.13,168.81 c -376.11,-76.82 -562.05,-332.81 -627.37,-503.76 -71.07,-186 -81.57,-459.91 -2.07,-714.67 l -113.78,23.14 c 11.33,-31.42 24.03,-62.2 38.04,-92.47 l 121.57,0.08 z m 3493.57,0 c -146.74,100.92 -189.81,219.14 -190.58,225.37 l 1.32,-32.55 c 0.4,-3.6 3.17,-37.35 22.01,-84.33 5.27,-6.5 10.65,-12.98 16.24,-19.42 -1.88,-1.18 -4.1,-2.25 -6.28,-3.32 12.63,-26.49 30.22,-55.88 54.74,-85.78 l 102.55,0.03 z m 854.65,0 c 32.09,12.46 57.34,24.54 75.09,33.07 l 25.82,12.39 c 12.34,-14.67 24.31,-29.84 35.86,-45.53 l 110.89,0.07 c -198.41,290 -518.34,432.93 -673.72,470.86 -205.67,50.15 -361.77,-12.75 -403.69,-147.4 0,0 -5,-34.39 -4.15,-49.84 0.83,1.02 1.85,2.06 2.94,3.13 15.82,4.11 36.68,5.91 59.73,6.3 44.08,0.77 96.31,-3.83 137,-8.55 64.62,-7.43 188.74,-29.99 246.66,-41.16 -51.28,27 -200.89,69.67 -259.12,75.88 -8.77,0.9 -17.33,1.82 -25.72,2.66 -35.07,3.46 -66.59,5.47 -92.85,2.13 3.48,1.52 5.57,2.36 5.57,2.36 l 16.3,20.84 c 67.2,71.27 191.84,76.54 300.58,49.79 124.7,-30.71 348.18,-127.23 517.4,-311.66 -98.18,-40.58 -338.57,-111.47 -606.72,-23.67 -227.35,74.45 -240.37,213.28 -239.87,219.51 -0.79,-7.98 -54.66,-177.58 193.33,-271.18 l 578.67,0"
         id="path68"
         style="fill:#15366f;fill-opacity:1;fill-rule:nonzero;stroke:none" /><path
         d="m 4858.99,2187.51 c 2.92,-7.28 6.21,-14.87 9.96,-22.74 2.18,1.07 4.4,2.14 6.28,3.32 -5.59,6.44 -10.97,12.92 -16.24,19.42"
         id="path70"
         style="fill:#15366f;fill-opacity:1;fill-rule:nonzero;stroke:none" /><path
         d="m 5547.39,3195.45 c -82.98,4.57 -154.27,-21.37 -195.8,-58.2 -33.25,-29.48 -36.26,-76.12 -14.44,-108.33 l 0,0 c -8.26,34.17 12.84,64.64 38.72,87.61 33.51,29.72 103.68,48.06 173.52,48.19 79.99,0.14 175.52,-20.59 228.17,-70.63 l 0,0 c -38.86,56.94 -110.65,94.79 -230.17,101.36"
         id="path72"
         style="fill:#ffffff;fill-opacity:1;fill-rule:nonzero;stroke:none" /><path
         d="m 5557.28,3185.34 c -85.92,4.72 -159.75,-22.12 -202.74,-60.25 -34.4,-30.53 -37.54,-78.81 -14.93,-112.14 l 0,0 c -8.56,35.36 13.27,66.93 40.08,90.69 34.69,30.78 107.34,49.77 179.65,49.89 82.84,0.16 181.74,-21.31 236.27,-73.11 l 0,0 c -40.27,58.94 -114.59,98.13 -238.33,104.92"
         id="path74"
         style="fill:#edae09;fill-opacity:1;fill-rule:nonzero;stroke:none" /><path
         d="m 4834.58,3182.94 360.8,1.17 106.19,590.94 -2724.72,-8.07 -106.18,-581.85 143.23,0.42 -295.62,-1299.63 -118.31,0 -158.81,-590.07 2776.39,0 158.78,590.07 -347.54,0 c -41.36,102.03 -345.28,845.86 -345.28,845.86 l 551.07,451.16"
         id="path76"
         style="fill:#ffffff;fill-opacity:1;fill-rule:nonzero;stroke:none" /><path
         d="m 4834.58,3182.94 360.8,1.17 106.19,590.94 -2724.72,-8.07 -106.18,-581.85 143.23,0.42 -295.62,-1299.63 -118.31,0 -158.81,-590.07 2776.39,0 158.78,590.07 -347.54,0 c -41.36,102.03 -345.28,845.86 -345.28,845.86 l 551.07,451.16 z"
         id="path78"
         style="fill:none;stroke:#edae09;stroke-width:40;stroke-linecap:butt;stroke-linejoin:miter;stroke-miterlimit:4;stroke-opacity:1;stroke-dasharray:none" /><path
         d="m 5093.73,3282.38 68.54,381.85 -1323.13,0 -94.31,-381.85 92.19,0 -442.62,-378.88 91.73,378.88 125.96,0 94.32,381.85 -1031.25,0 -68.53,-381.85 164.71,0 -363.61,-1501.82 -123.25,-0.34 -105.56,-388.34 1034.69,0 96.63,391.34 -187.21,-0.56 27.97,115.48 390.02,333.74 185.53,-447.47 -252.11,-0.72 -96.77,-391.81 1336.56,0 106.31,395.74 -278.5,-0.82 -400.37,975.04 636.88,520.54 315.18,0"
         id="path80"
         style="fill:#15366f;fill-opacity:1;fill-rule:nonzero;stroke:none" /><path
         d="m 5093.73,3282.38 68.54,381.85 -1323.13,0 -94.31,-381.85 92.19,0 -442.62,-378.88 91.73,378.88 125.96,0 94.32,381.85 -1031.25,0 -68.53,-381.85 164.71,0 -363.61,-1501.82 -123.25,-0.34 -105.56,-388.34 1034.69,0 96.63,391.34 -187.21,-0.56 27.97,115.48 390.02,333.74 185.53,-447.47 -252.11,-0.72 -96.77,-391.81 1336.56,0 106.31,395.74 -278.5,-0.82 -400.37,975.04 636.88,520.54 315.18,0 z"
         id="path82"
         style="fill:none;stroke:#edae09;stroke-width:40;stroke-linecap:butt;stroke-linejoin:miter;stroke-miterlimit:4;stroke-opacity:1;stroke-dasharray:none" /><path
         d="m 5039.2,1350.5 -23.68,0 -14.88,-43.89 -15.06,43.89 -23.69,0 0,-74.18 14.69,0 0,59.85 0.37,0 19.28,-59.85 8.63,0 19.28,59.85 0.37,0 0,-59.85 14.69,0 0,74.18 z m -85.2,0 -56.74,0 0,-14.33 20.94,0 0,-59.85 14.68,0 0,59.85 21.12,0 0,14.33"
         id="path84"
         style="fill:#ffffff;fill-opacity:1;fill-rule:evenodd;stroke:none" /><path
         d="m 7022.3,660.656 c 28.54,0.5 51.35,24.117 50.85,52.657 -0.5,28.546 -24.12,51.343 -52.66,50.843 -28.81,-0.492 -51.34,-24.109 -50.85,-52.656 0.5,-28.531 23.84,-51.344 52.66,-50.844 z m -0.21,12.297 c -22.54,-0.39 -38.39,15.719 -38.79,38.797 -0.4,23.078 14.87,39.734 37.41,40.125 22.12,0.391 38.38,-15.719 38.78,-38.797 0.41,-23.078 -15.29,-39.75 -37.4,-40.125 z m 11.54,35.164 c 9.82,0.86 15.21,5.047 15.03,15.43 -0.23,13.101 -7.4,16.937 -22.01,16.687 l -27.04,-0.476 0.98,-55.852 11.74,0.203 -0.42,23.625 9.29,0.164 12.84,-23.406 13.52,0.235 -13.93,23.39 z m -21.86,7.946 -0.27,15.296 12.7,0.219 c 5.32,0.102 13.37,0.781 13.5,-6.726 0.13,-6.961 -4.22,-8.539 -10.5,-8.516 l -15.43,-0.273"
         id="path86"
         style="fill:#ffffff;fill-opacity:1;fill-rule:evenodd;stroke:none" /><path
         d="m 1152.7,933.188 -226.075,0 L 907.359,824 l 72.797,0 c -14.57,-35 -61.336,-58.094 -94.937,-58.094 -83.289,0 -94.211,65.094 -81.617,136.485 15.679,88.89 56.843,147.689 121.937,147.689 42.695,0 68.844,-22.41 73.453,-63.705 l 156.778,0 c 1.56,123.895 -84.61,186.895 -205.707,186.895 -163.079,0 -283.375,-110.6 -311.766,-271.582 -30.984,-175.672 69.812,-258.961 198.601,-258.961 79.086,0 129.766,29.39 162.743,61.586 l -2.461,-49.696 106.38,0 49.14,278.571"
         id="path88"
         style="fill:#edae09;fill-opacity:1;fill-rule:nonzero;stroke:none" /><path
         d="m 1152.7,933.188 -226.075,0 L 907.359,824 l 72.797,0 c -14.57,-35 -61.336,-58.094 -94.937,-58.094 -83.289,0 -94.211,65.094 -81.617,136.485 15.679,88.89 56.843,147.689 121.937,147.689 42.695,0 68.844,-22.41 73.453,-63.705 l 156.778,0 c 1.56,123.895 -84.61,186.895 -205.707,186.895 -163.079,0 -283.375,-110.6 -311.766,-271.582 -30.984,-175.672 69.812,-258.961 198.601,-258.961 79.086,0 129.766,29.39 162.743,61.586 l -2.461,-49.696 106.38,0 49.14,278.571 z"
         id="path90"
         style="fill:none;stroke:#ffffff;stroke-width:28;stroke-linecap:butt;stroke-linejoin:miter;stroke-miterlimit:3.8636899;stroke-opacity:1;stroke-dasharray:none" /><path
         d="m 1164.88,802.727 c 17.85,-103.079 97.89,-160 218.45,-160 114.11,0 218.51,56.578 274.78,160.007 l -172.92,-0.007 c -20.07,-23.149 -46.49,-36.821 -80.13,-36.821 -33.9,0 -54.27,14.797 -65.58,36.766 l -174.6,0.055"
         id="path92"
         style="fill:#edae09;fill-opacity:1;fill-rule:evenodd;stroke:none" /><path
         d="m 1339.48,802.727 c -15.07,29.234 -14.04,71.273 -7.56,108.062 11.24,63.695 46.96,139.291 121.85,139.291 73.17,2.1 88.32,-70.697 76.23,-139.291 -7.77,-44.039 -22.3,-82.023 -44.81,-108.023 l 172.92,-0.039 c 17.25,31.718 29.98,67.828 37.07,108.062 23.45,132.991 -38.4,262.481 -218.27,262.481 -156.79,0 -282.03,-102.89 -309.93,-261.082 -7.18,-40.774 -7.67,-77.391 -2.1,-109.532 l 174.6,0.071"
         id="path94"
         style="fill:#edae09;fill-opacity:1;fill-rule:evenodd;stroke:none" /><path
         d="m 1453.77,1050.08 c 73.17,2.1 88.32,-70.697 76.23,-139.291 -14.7,-83.289 -53.55,-144.883 -124.94,-144.883 -79.09,0 -84.5,80.492 -73.14,144.883 11.24,63.695 46.96,139.291 121.85,139.291 z"
         id="path96"
         style="fill:none;stroke:#ffffff;stroke-width:28;stroke-linecap:butt;stroke-linejoin:miter;stroke-miterlimit:3.8636899;stroke-opacity:1;stroke-dasharray:none" /><path
         d="m 1476.91,1173.27 c -156.79,0 -282.03,-102.89 -309.93,-261.082 -30.24,-171.477 58.17,-269.461 216.35,-269.461 149.08,0 281.61,96.578 311.85,268.062 23.45,132.991 -38.4,262.481 -218.27,262.481 z"
         id="path98"
         style="fill:none;stroke:#ffffff;stroke-width:28;stroke-linecap:butt;stroke-linejoin:miter;stroke-miterlimit:3.8636899;stroke-opacity:1;stroke-dasharray:none" /><path
         d="m 2066.5,656.016 20.73,117.586 -226.77,0 68.14,386.358 -165.18,0 -88.88,-503.944 391.96,0"
         id="path100"
         style="fill:#edae09;fill-opacity:1;fill-rule:nonzero;stroke:none" /><path
         d="m 2066.5,656.016 20.73,117.586 -226.77,0 68.14,386.358 -165.18,0 -88.88,-503.944 391.96,0 z"
         id="path102"
         style="fill:none;stroke:#ffffff;stroke-width:28;stroke-linecap:butt;stroke-linejoin:miter;stroke-miterlimit:3.8636899;stroke-opacity:1;stroke-dasharray:none" /><path
         d="m 2311.02,1042.38 31.5,0 c 88.19,0 117.55,-28 99.03,-132.989 -16.78,-95.188 -65.94,-135.789 -142.93,-135.789 l -34.99,0 47.39,268.778 z m -16.34,-386.364 c 161.68,0 280.21,72.797 313.66,262.468 29.25,165.886 -58.2,241.476 -220.58,241.476 l -221.18,0 -88.88,-503.944 216.98,0"
         id="path104"
         style="fill:#edae09;fill-opacity:1;fill-rule:evenodd;stroke:none" /><path
         d="m 2311.02,1042.38 31.5,0 c 88.19,0 117.55,-28 99.03,-132.989 -16.78,-95.188 -65.94,-135.789 -142.93,-135.789 l -34.99,0 47.39,268.778 z"
         id="path106"
         style="fill:none;stroke:#ffffff;stroke-width:28;stroke-linecap:butt;stroke-linejoin:miter;stroke-miterlimit:3.8636899;stroke-opacity:1;stroke-dasharray:none" /><path
         d="m 2294.68,656.016 c 161.68,0 280.21,72.797 313.66,262.468 29.25,165.886 -58.2,241.476 -220.58,241.476 l -221.18,0 -88.88,-503.944 216.98,0 z"
         id="path108"
         style="fill:none;stroke:#ffffff;stroke-width:28;stroke-linecap:butt;stroke-linejoin:miter;stroke-miterlimit:3.8636899;stroke-opacity:1;stroke-dasharray:none" /><path
         d="m 2994.38,656.016 20.75,117.586 -255.47,0 13.94,79.093 207.88,0 20.74,117.586 -207.88,0 12.71,72.099 245.68,0 20.74,117.58 -410.86,0 -88.88,-503.944 420.65,0"
         id="path110"
         style="fill:#edae09;fill-opacity:1;fill-rule:nonzero;stroke:none" /><path
         d="m 2994.38,656.016 20.75,117.586 -255.47,0 13.94,79.093 207.88,0 20.74,117.586 -207.88,0 12.71,72.099 245.68,0 20.74,117.58 -410.86,0 -88.88,-503.944 420.65,0 z"
         id="path112"
         style="fill:none;stroke:#ffffff;stroke-width:28;stroke-linecap:butt;stroke-linejoin:miter;stroke-miterlimit:3.8636899;stroke-opacity:1;stroke-dasharray:none" /><path
         d="m 3261.54,1159.96 -154.68,0 -88.88,-503.944 158.18,0 28.14,159.593 13.95,114.782 131.49,-274.375 154.68,0 88.88,503.944 -158.18,0 -28.27,-160.28 -13.94,-114.789 -131.37,275.069"
         id="path114"
         style="fill:#edae09;fill-opacity:1;fill-rule:nonzero;stroke:none" /><path
         d="m 3261.54,1159.96 -154.68,0 -88.88,-503.944 158.18,0 28.14,159.593 13.95,114.782 131.49,-274.375 154.68,0 88.88,503.944 -158.18,0 -28.27,-160.28 -13.94,-114.789 -131.37,275.069 z"
         id="path116"
         style="fill:none;stroke:#ffffff;stroke-width:28;stroke-linecap:butt;stroke-linejoin:miter;stroke-miterlimit:3.8636899;stroke-opacity:1;stroke-dasharray:none" /><path
         d="m 3890.35,656.016 31.24,177.078 180.57,0 20.75,117.594 -180.58,0 16.17,91.692 226.77,0 20.74,117.58 -391.96,0 -88.88,-503.944 165.18,0"
         id="path118"
         style="fill:#edae09;fill-opacity:1;fill-rule:nonzero;stroke:none" /><path
         d="m 3890.35,656.016 31.24,177.078 180.57,0 20.75,117.594 -180.58,0 16.17,91.692 226.77,0 20.74,117.58 -391.96,0 -88.88,-503.944 165.18,0 z"
         id="path120"
         style="fill:none;stroke:#ffffff;stroke-width:28;stroke-linecap:butt;stroke-linejoin:miter;stroke-miterlimit:3.8636899;stroke-opacity:1;stroke-dasharray:none" /><path
         d="m 4529.39,656.016 20.74,117.586 -226.78,0 68.14,386.358 -165.18,0 -88.88,-503.944 391.96,0"
         id="path122"
         style="fill:#edae09;fill-opacity:1;fill-rule:nonzero;stroke:none" /><path
         d="m 4529.39,656.016 20.74,117.586 -226.78,0 68.14,386.358 -165.18,0 -88.88,-503.944 391.96,0 z"
         id="path124"
         style="fill:none;stroke:#ffffff;stroke-width:28;stroke-linecap:butt;stroke-linejoin:miter;stroke-miterlimit:3.8636899;stroke-opacity:1;stroke-dasharray:none" /><path
         d="m 4849.41,827.5 -104.29,0 82.94,180.58 21.35,-180.58 z m -184.93,-171.484 30.63,66.492 164.48,0 7.86,-66.492 164.49,0 -91.7,503.944 -167.98,0 -269.46,-503.944 161.68,0"
         id="path126"
         style="fill:#edae09;fill-opacity:1;fill-rule:evenodd;stroke:none" /><path
         d="m 4849.41,827.5 -104.29,0 82.94,180.58 21.35,-180.58 z"
         id="path128"
         style="fill:none;stroke:#ffffff;stroke-width:28;stroke-linecap:butt;stroke-linejoin:miter;stroke-miterlimit:3.8636899;stroke-opacity:1;stroke-dasharray:none" /><path
         d="m 4664.48,656.016 30.63,66.492 164.48,0 7.86,-66.492 164.49,0 -91.7,503.944 -167.98,0 -269.46,-503.944 161.68,0 z"
         id="path130"
         style="fill:none;stroke:#ffffff;stroke-width:28;stroke-linecap:butt;stroke-linejoin:miter;stroke-miterlimit:3.8636899;stroke-opacity:1;stroke-dasharray:none" /><path
         d="m 5514.76,1013.68 c 3.65,88.19 -47.45,159.59 -187.43,159.59 -125.99,0 -227.88,-53.9 -246.77,-161 -33.94,-192.465 265.08,-139.973 251.62,-216.262 -4.2,-23.805 -33.84,-37.102 -75.13,-37.102 -16.1,0 -32.85,4.203 -44.67,12.594 -12.52,8.406 -19.97,21.703 -20.26,39.898 l -158.18,0 c -12.55,-90.992 60.53,-168.671 193.52,-168.671 138.59,0 245.87,56.687 266.49,173.57 32.34,183.383 -265.7,136.484 -252.37,212.083 3.21,18.19 21.16,28.69 57.55,28.69 16.1,0 30.31,-2.79 41.1,-9.09 10.79,-6.3 18.04,-16.81 17.75,-34.3 l 156.78,0"
         id="path132"
         style="fill:#edae09;fill-opacity:1;fill-rule:nonzero;stroke:none" /><path
         d="m 5514.76,1013.68 c 3.65,88.19 -47.45,159.59 -187.43,159.59 -125.99,0 -227.88,-53.9 -246.77,-161 -33.94,-192.465 265.08,-139.973 251.62,-216.262 -4.2,-23.805 -33.84,-37.102 -75.13,-37.102 -16.1,0 -32.85,4.203 -44.67,12.594 -12.52,8.406 -19.97,21.703 -20.26,39.898 l -158.18,0 c -12.55,-90.992 60.53,-168.671 193.52,-168.671 138.59,0 245.87,56.687 266.49,173.57 32.34,183.383 -265.7,136.484 -252.37,212.083 3.21,18.19 21.16,28.69 57.55,28.69 16.1,0 30.31,-2.79 41.1,-9.09 10.79,-6.3 18.04,-16.81 17.75,-34.3 l 156.78,0 z"
         id="path134"
         style="fill:none;stroke:#ffffff;stroke-width:28;stroke-linecap:butt;stroke-linejoin:miter;stroke-miterlimit:3.8636899;stroke-opacity:1;stroke-dasharray:none" /><path
         d="m 5646.05,656.016 34.44,195.281 156.08,0 -34.44,-195.281 165.18,0 88.88,503.944 -165.18,0 -29.99,-170.077 -156.09,0 30,170.077 -165.18,0 -88.88,-503.944 165.18,0"
         id="path136"
         style="fill:#edae09;fill-opacity:1;fill-rule:nonzero;stroke:none" /><path
         d="m 5646.05,656.016 34.44,195.281 156.08,0 -34.44,-195.281 165.18,0 88.88,503.944 -165.18,0 -29.99,-170.077 -156.09,0 30,170.077 -165.18,0 -88.88,-503.944 165.18,0 z"
         id="path138"
         style="fill:none;stroke:#ffffff;stroke-width:28;stroke-linecap:butt;stroke-linejoin:miter;stroke-miterlimit:3.8636899;stroke-opacity:1;stroke-dasharray:none" /><path
         d="m 6433.26,656.016 20.73,117.586 -255.47,0 13.96,79.093 207.87,0 20.74,117.586 -207.88,0 12.72,72.099 245.67,0 20.74,117.58 -410.86,0 -88.87,-503.944 420.65,0"
         id="path140"
         style="fill:#edae09;fill-opacity:1;fill-rule:nonzero;stroke:none" /><path
         d="m 6433.26,656.016 20.73,117.586 -255.47,0 13.96,79.093 207.87,0 20.74,117.586 -207.88,0 12.72,72.099 245.67,0 20.74,117.58 -410.86,0 -88.87,-503.944 420.65,0 z"
         id="path142"
         style="fill:none;stroke:#ffffff;stroke-width:28;stroke-linecap:butt;stroke-linejoin:miter;stroke-miterlimit:3.8636899;stroke-opacity:1;stroke-dasharray:none" /><path
         d="m 6939.88,1013.68 c 3.65,88.19 -47.45,159.59 -187.43,159.59 -125.98,0 -227.88,-53.9 -246.76,-161 -33.96,-192.465 265.08,-139.973 251.61,-216.262 -4.19,-23.805 -33.83,-37.102 -75.13,-37.102 -16.09,0 -32.86,4.203 -44.67,12.594 -12.52,8.406 -19.97,21.703 -20.27,39.898 l -158.18,0 c -12.54,-90.992 60.54,-168.671 193.54,-168.671 138.57,0 245.86,56.687 266.48,173.57 32.34,183.383 -265.69,136.484 -252.37,212.083 3.21,18.19 21.17,28.69 57.56,28.69 16.1,0 30.3,-2.79 41.09,-9.09 10.79,-6.3 18.03,-16.81 17.74,-34.3 l 156.79,0"
         id="path144"
         style="fill:#edae09;fill-opacity:1;fill-rule:nonzero;stroke:none" /><path
         d="m 6939.88,1013.68 c 3.65,88.19 -47.45,159.59 -187.43,159.59 -125.98,0 -227.88,-53.9 -246.76,-161 -33.96,-192.465 265.08,-139.973 251.61,-216.262 -4.19,-23.805 -33.83,-37.102 -75.13,-37.102 -16.09,0 -32.86,4.203 -44.67,12.594 -12.52,8.406 -19.97,21.703 -20.27,39.898 l -158.18,0 c -12.54,-90.992 60.54,-168.671 193.54,-168.671 138.57,0 245.86,56.687 266.48,173.57 32.34,183.383 -265.69,136.484 -252.37,212.083 3.21,18.19 21.17,28.69 57.56,28.69 16.1,0 30.3,-2.79 41.09,-9.09 10.79,-6.3 18.03,-16.81 17.74,-34.3 l 156.79,0 z"
         id="path146"
         style="fill:none;stroke:#ffffff;stroke-width:28;stroke-linecap:butt;stroke-linejoin:miter;stroke-miterlimit:3.8636899;stroke-opacity:1;stroke-dasharray:none" /></g></g></svg>