<?xml version="1.0" encoding="UTF-8" standalone="no"?>
<svg
   xmlns:dc="http://purl.org/dc/elements/1.1/"
   xmlns:cc="http://creativecommons.org/ns#"
   xmlns:rdf="http://www.w3.org/1999/02/22-rdf-syntax-ns#"
   xmlns:svg="http://www.w3.org/2000/svg"
   xmlns="http://www.w3.org/2000/svg"
   xmlns:sodipodi="http://sodipodi.sourceforge.net/DTD/sodipodi-0.dtd"
   xmlns:inkscape="http://www.inkscape.org/namespaces/inkscape"
   width="280"
   height="200"
   viewBox="0 0 224 160"
   version="1.1"
   id="svg2"
   inkscape:version="0.48.4 r9939"
   sodipodi:docname="OhioBobcats.svg">
  <metadata
     id="metadata46">
    <rdf:RDF>
      <cc:Work
         rdf:about="">
        <dc:format>image/svg+xml</dc:format>
        <dc:type
           rdf:resource="http://purl.org/dc/dcmitype/StillImage" />
        <dc:title></dc:title>
      </cc:Work>
    </rdf:RDF>
  </metadata>
  <defs
     id="defs44" />
  <sodipodi:namedview
     pagecolor="#ffffff"
     bordercolor="#666666"
     borderopacity="1"
     objecttolerance="10"
     gridtolerance="10"
     guidetolerance="10"
     inkscape:pageopacity="0"
     inkscape:pageshadow="2"
     inkscape:window-width="1414"
     inkscape:window-height="936"
     id="namedview42"
     showgrid="false"
     fit-margin-top="0"
     fit-margin-left="0"
     fit-margin-right="0"
     fit-margin-bottom="0"
     inkscape:zoom="0.61901639"
     inkscape:cx="-150.46246"
     inkscape:cy="100"
     inkscape:window-x="75"
     inkscape:window-y="34"
     inkscape:window-maximized="0"
     inkscape:current-layer="svg2" />
  <path
     d="m 17.6,0 188.32786,0 0,160 L 17.6,160 17.6,0 z"
     id="path4"
     inkscape:connector-curvature="0"
     style="fill:#ffffff" />
  <path
     d="m 100.01311,1.36918 c 7.07148,-0.403934 14.15869,-0.257049 21.23016,0.06295 0.0997,17.988197 0.0892,35.98164 0.0944,53.96984 -3.16852,-0.13115 -6.40525,-0.27279 -9.46361,0.70819 -1.37442,0.30951 -2.75934,1.21181 -4.19147,0.66099 -2.43935,-0.75541 -4.98885,-0.98099 -7.52787,-1.07541 -0.13115,-3.31541 0.005,-6.62558 -0.0839,-9.94099 -2.229506,0.18886 -4.490496,0.0787 -6.693776,0.48787 -0.13114,3.41508 -0.0157,6.84066 -0.0367,10.26099 -2.57573,0.64 -5.0518,1.59475 -7.55934,2.44459 -4.39607,-1.55804 -9.01771,-2.35541 -13.6918,-2.31869 -0.16787,-17.32197 -0.0105,-34.643937 -0.17836,-51.960659 7.03475,-1.348196 14.1377,-2.313442 21.27737,-2.900983 0.0525,7.56459 0.0315,15.134426 0.0577,22.704262 2.26623,-0.02098 4.53246,-0.183606 6.793436,-0.372459 0,-7.580328 0.0105,-15.15541 -0.0262,-22.730492 z"
     id="path6"
     inkscape:connector-curvature="0"
     style="fill:#00694e" />
  <path
     d="m 125.29836,1.68918 c 7.0977,0.66623 14.18491,1.51082 21.18819,2.859017 0.0472,17.841311 0.0734,35.682623 0.13115,53.523933 -3.42033,-0.91279 -7.00328,-1.58951 -10.52852,-0.87082 -2.21902,0.28853 -4.20722,1.36394 -6.27935,2.1141 -1.50557,-0.85508 -2.90098,-1.89377 -4.42229,-2.73311 -0.021,-18.29771 -0.10492,-36.595415 -0.0892,-54.89312 z"
     id="path8"
     inkscape:connector-curvature="0"
     style="fill:#00694e" />
  <path
     d="m 53.350824,9.091148 c 2.48131,-0.891804 5.16721,-1.484591 7.8059,-1.012459 2.45508,0.556065 4.67934,2.203278 5.76,4.500983 1.43213,2.932459 1.10164,6.295082 1.07541,9.458361 0.042,11.782297 0.0472,23.575077 0.0734,35.357377 -4.18098,1.4059 -8.46689,3.70361 -13.00459,2.63869 -1.4741,-0.35148 -3.13705,-2.29246 -4.49049,-0.79213 -0.20984,3.28918 1.80459,6.52065 4.72655,7.96852 1.44263,0.81836 3.1423,0.70295 4.72132,1.01246 1.93049,2.4341 4.24393,4.50623 6.8459,6.21115 -5.07279,4.6741 -9.44787,10.14557 -12.57443,16.30951 -3.29442,5.85967 -5.02033,12.43278 -6.33705,18.97442 4.53246,-3.28393 8.55607,-7.35475 13.67082,-9.77836 -1.71541,2.72787 -3.54098,5.39803 -4.91016,8.32525 -0.50361,0.85508 -0.78164,2.0459 -1.8623,2.33967 -7.08721,2.64393 -13.8859,5.99607 -20.66885,9.32721 -2.995409,1.56328 -6.683278,2.09836 -9.841311,0.68722 -3.121311,-1.32722 -4.936393,-4.74754 -4.873442,-8.05771 -0.146886,-24.22557 -0.09967,-48.45639 -0.199345,-72.68197 -0.02623,-2.54426 -0.29377,-5.12 0.278033,-7.62754 1.096394,-4.889177 3.965902,-9.353439 7.895082,-12.448521 2.88,-2.281968 6.452463,-3.357377 9.762623,-4.847213 5.25639,-2.287214 10.72262,-4.018361 16.14689,-5.864918 z"
     id="path10"
     inkscape:connector-curvature="0"
     style="fill:#00694e" />
  <path
     d="m 152.89704,10.455082 c 2.37115,-2.643934 6.34755,-3.184262 9.62623,-2.161312 8.24656,2.476066 16.42492,5.256394 24.32,8.713443 5.53968,2.350164 9.64722,7.380984 11.64591,12.973117 1.27475,3.51475 0.77639,7.29705 0.89705,10.95344 -0.0367,21.14098 0.1836,42.28721 0.12065,63.4282 0,2.71213 0.33049,5.53442 -0.66098,8.13114 -1.25377,3.53574 -4.29115,6.68328 -8.1259,7.18689 -2.01968,0.0997 -3.79804,-1.00721 -5.53443,-1.87803 -7.43344,-3.89246 -15.38098,-6.78295 -23.56984,-8.59804 -0.18885,-2.48131 0.0472,-4.99409 -0.3095,-7.47016 C 160.19409,92.17574 155.2,83.2682 148.00786,76.93639 c 2.53902,-2.04065 4.74755,-4.48524 6.31607,-7.35475 0.74492,-1.58951 2.73311,-1.78361 3.88721,-2.97967 2.16131,-2.03541 3.56722,-5.40328 2.52328,-8.30951 -0.95475,-1.50557 -2.44459,0.0525 -3.36787,0.75541 -1.87278,1.68918 -4.56393,1.04918 -6.75672,0.5141 0.005,-13.92263 -0.0472,-27.84525 -0.0682,-41.767872 -0.042,-2.612459 0.50886,-5.382295 2.35541,-7.339016 z"
     id="path12"
     inkscape:connector-curvature="0"
     style="fill:#00694e" />
  <path
     d="m 173.63934,32.72918 c 1.43213,-0.48262 2.72787,0.79213 3.44656,1.89377 1.51082,2.69115 1.04918,5.92787 1.00721,8.88131 0.17312,15.22885 0.14689,30.46295 0.19934,45.69181 0.0577,1.30098 -0.19934,2.74885 -1.28,3.60393 -0.79737,0.81836 -2.07737,0.51934 -2.89573,-0.0892 -1.38492,-1.05443 -2.09836,-2.8223 -2.14033,-4.52721 0.0682,-17.66295 -0.2518,-35.33115 -0.0525,-52.9941 0.0157,-1.07017 0.69246,-2.09836 1.71541,-2.46033 z"
     id="path14"
     inkscape:connector-curvature="0"
     style="fill:#ffffff" />
  <path
     d="m 41.300984,35.21574 c 0.64525,-1.25377 1.95672,-1.88853 3.13705,-2.51804 1.32721,0.72394 2.47082,1.93574 2.30295,3.55673 0.0944,17.47409 0.0682,34.94295 0.1259,52.41705 0.1941,2.47082 -1.07541,5.23016 -3.53574,6.06426 -2.47606,0.24131 -2.82754,-2.6964 -2.75934,-4.50623 0.005,-15.54885 -0.12066,-31.10295 -0.0944,-46.65705 0.12066,-2.77508 -0.60328,-5.80721 0.82361,-8.35672 z"
     id="path16"
     inkscape:connector-curvature="0"
     style="fill:#ffffff" />
  <path
     d="m 108.84196,59.16852 c 3.73508,-1.2118 7.62754,-2.31868 11.59869,-1.71016 3.36262,0.46689 6.55738,1.99869 8.98098,4.38033 4.25443,-2.3659 9.37443,-3.66689 14.17968,-2.38689 3.52524,0.72394 6.79344,2.51279 10.41836,2.76984 2.08262,0.22557 3.85574,-1.04918 5.45574,-2.18754 -0.68197,1.93574 -1.30623,4.08656 -2.95345,5.45049 -1.04918,0.96525 -2.99541,0.64 -3.47803,2.20852 -1.83082,3.77181 -5.01508,6.59935 -8.17311,9.24328 5.63409,4.51148 10.19278,10.44984 12.64262,17.27476 1.00721,2.78557 1.45836,5.73377 1.88328,8.65574 -2.43935,-2.51804 -4.90492,-5.17246 -8.25181,-6.47345 1.45312,2.20328 3.02164,4.35935 4.01836,6.81443 1.01771,2.28197 1.33246,4.77902 1.68918,7.22361 11.31541,1.63672 22.08,5.93836 31.96328,11.58295 4.69509,2.84327 9.45312,5.6918 13.58689,9.31672 -1.68918,-0.83935 -3.22099,-1.94099 -4.82099,-2.92197 -7.04,-4.24918 -14.64131,-7.49639 -22.41049,-10.15082 -7.85311,-2.63344 -16.0577,-4.25443 -24.33573,-4.67934 -3.24197,-0.0105 -6.48394,0.042 -9.72066,0.19934 0.57705,0.23082 1.1541,0.46689 1.73639,0.70295 4.17049,0.17836 8.23607,1.22754 12.29115,2.15082 18.56525,4.6059 36.29115,13.60787 49.95148,27.12131 -2.95869,-1.7941 -5.5082,-4.18098 -8.49836,-5.92787 -16.9705,-11.07409 -36.57443,-19.17377 -57.09115,-19.39409 1.12787,0.4459 2.27672,0.85508 3.46229,1.1436 10.49705,2.66492 20.53246,7.08197 29.65508,12.91017 5.47148,3.49901 10.83804,7.20786 15.6223,11.61967 2.6859,2.52852 5.55541,4.89442 7.85836,7.79541 -2.82229,-2.23476 -5.39803,-4.75803 -8.29902,-6.89312 -10.57573,-7.81639 -22.16393,-14.39475 -34.63344,-18.65442 -0.77115,8.5141 -2.03016,17.45311 -6.91934,24.70295 -3.6459,-6.68853 -8.7764,-13.12525 -16.17312,-15.78492 0.0682,2.2977 0.34099,4.64262 -0.16787,6.9141 -0.50885,2.16656 -2.12983,3.86623 -2.55475,6.05901 -0.86557,3.45705 -2.9482,6.68328 -5.98557,8.60853 -3.92394,2.65967 -9.10689,2.45508 -13.4505,1.0177 -4.42754,-1.48459 -7.70098,-5.24065 -9.50032,-9.44262 -1.516066,-3.11082 -1.956726,-6.56787 -2.434096,-9.95147 -6.44197,1.32196 -11.64066,5.93836 -15.2341,11.2577 -1.96197,2.85377 -3.39934,6.0118 -4.91016,9.11213 -4.92591,-5.00983 -9.07017,-11.17377 -10.21902,-18.22426 -0.66098,-3.23148 -0.59279,-6.54689 -0.41967,-9.82033 -6.16918,2.47082 -12.10754,5.55541 -17.61049,9.28525 -2.22427,1.48983 -4.1705,3.35213 -6.45771,4.74754 4.48525,-5.10951 10.23475,-8.95476 16.07344,-12.36459 15.15541,-8.69246 32.66623,-12.38033 49.967216,-13.3823 -3.37312,-0.81836 -6.86689,-0.78688 -10.308196,-0.94426 -18.96918,-0.64525 -38.13771,2.78557 -55.50689,10.4918 -3.80327,1.60525 -7.33377,3.75082 -11.026881,5.57115 11.241971,-8.40918 24.666231,-13.36656 38.268851,-16.41967 11.64066,-2.4918 23.58558,-3.5882 35.483276,-3.12656 1.0177,0.0734 2.03541,0.0472 3.04262,-0.10492 -12.495726,-4.40131 -26.114096,-4.54819 -39.055726,-2.2295 -10.93771,1.94098 -21.65509,5.13573 -31.85837,9.52655 -1.13311,0.46689 -2.27672,0.91804 -3.44655,1.30099 7.71672,-4.52197 16.07869,-7.82164 24.35147,-11.12131 2.58623,-6.03279 6.30558,-11.49378 10.60197,-16.43017 -6.36328,1.00721 -11.53049,5.17771 -16.52459,8.93902 2.82754,-11.91344 9.77836,-22.65181 19.07934,-30.55738 -3.56721,-1.95147 -7.15541,-4.28065 -9.02295,-8.04197 -1.8518,-0.0105 -3.87672,0.29377 -5.52393,-0.76065 -1.61574,-0.86558 -2.47082,-2.54951 -3.16328,-4.16525 2.21377,1.50558 4.9941,1.55279 7.54361,1.09115 3.26295,-0.66098 6.1377,-2.55475 9.44787,-3.03738 5.46098,-0.79213 11.1318,0.0367 16.21508,2.15607 7.13442,-3.28918 15.496386,-4.57967 23.071466,-2.0564 z"
     id="path18"
     inkscape:connector-curvature="0"
     style="fill:#000000" />
  <path
     d="m 114.28721,61.79672 c 3.92918,-1.52656 8.49836,-0.80262 11.79279,1.79935 0.86032,0.4459 1.72065,1.74163 2.76983,1.01245 3.60394,-1.75737 7.67476,-2.9377 11.70885,-2.41311 3.08984,0.62426 5.81771,2.2977 8.76066,3.35213 -0.10492,0.13639 -0.31475,0.40394 -0.41967,0.54033 -4.87344,1.43213 -9.17508,4.29115 -12.70033,7.91082 7.75869,4.14951 13.24066,11.54098 16.68197,19.48328 C 149.1095,91.25246 145.28,88.96 140.95213,87.98951 c 5.3036,4.97311 8.5718,11.68787 10.24524,18.6859 -1.36393,-0.96525 -2.74885,-1.90426 -4.28065,-2.58098 0.27278,1.92 1.76262,3.86098 1.26951,5.79672 -1.36919,0.1259 -2.74886,0.0944 -4.11804,0.1259 -1.32721,-2.8223 -2.81705,-5.72328 -5.40328,-7.59607 -1.60524,-1.32196 -3.63016,-1.88852 -5.58164,-2.46032 -1.7259,-0.37246 -1.28,-2.69115 -1.76786,-3.98689 2.00393,-0.33574 4.11803,-0.84984 5.55016,-2.40262 2.41836,-2.54426 2.97967,-6.1482 3.92393,-9.39541 -4.00262,3.02688 -8.9495,4.22819 -13.68655,5.59737 0.99147,3.27345 2.07213,6.52591 3.0059,9.81509 -1.12262,-0.3882 -2.25049,-0.78164 -3.3941,-1.0964 1.11213,1.04918 2.41311,1.94623 3.21049,3.28394 0.85508,1.31672 0.8918,2.93246 1.09639,4.44328 -4.09704,-0.75017 -8.25704,-0.11541 -12.25442,0.86032 -1.02295,-1.84131 -2.10361,-3.86098 -4.11803,-4.77377 -1.56853,-0.90229 -3.40984,-0.56655 -5.12525,-0.72918 -1.00197,-2.89573 -1.66295,-5.90164 -2.54951,-8.83409 -5.33508,0.58229 -10.769826,0.22032 -16.010486,-0.88656 -2.63344,-0.56656 -5.09377,-1.70492 -7.32852,-3.18951 3.10032,4.52197 6.62032,9.19607 11.78754,11.46229 3.220976,1.44263 6.835406,0.9023 10.135076,0.10492 0.3777,0.82361 0.60328,1.69967 0.86033,2.56525 -2.92197,1.51082 -5.67082,3.37836 -7.98951,5.71279 -11.981636,-2.11935 -24.236066,-0.45115 -35.934426,2.47082 1.91476,-5.69181 5.3823,-10.80132 9.7259,-14.91935 2.63345,-2.46557 5.73377,-4.33311 8.74492,-6.28984 -6.40524,-0.17311 -12.84197,0.87082 -18.71213,3.50951 1.4741,-9.56852 8.12066,-17.56328 16.19934,-22.51016 -1.99344,-1.69967 -4.0918,-3.34689 -6.54163,-4.32787 -2.07214,-0.85508 -4.29115,-1.23279 -6.43673,-1.8518 6.9141,-3.11607 15.14492,-2.29246 21.84394,0.99672 6.63606,3.37836 11.792786,9.18033 15.417696,15.59082 1.2905,2.16131 2.11935,4.55869 3.43082,6.70426 -2.27672,-8.80787 -6.84065,-17.29049 -13.959336,-23.11344 5.46098,-3.56722 12.653106,-3.38361 18.528516,-0.96 5.86492,2.59672 9.89377,8.01049 12.60066,13.64459 1.51606,2.92196 2.39213,6.10098 3.55672,9.16459 -0.5141,-6.92984 -2.59148,-14.01181 -7.02426,-19.48328 -1.63672,-2.00394 -3.6459,-3.6459 -5.58164,-5.34033 z"
     id="path20"
     inkscape:connector-curvature="0"
     style="fill:#e4bb85" />
  <path
     d="m 131.5777,90.54426 c 0.78164,-0.32 1.56853,-0.63475 2.3659,-0.91803 -0.0472,1.77836 -0.6977,3.58295 -2.21901,4.62164 -0.11017,-1.23279 -0.1364,-2.47082 -0.14689,-3.70361 z"
     id="path22"
     inkscape:connector-curvature="0"
     style="fill:#ffffff" />
  <path
     d="m 110.98229,97.07016 c 3.56197,-4.86819 10.86951,-5.06229 15.64853,-1.95672 -5.27214,0.0735 -10.58623,0.33049 -15.64853,1.95672 z"
     id="path24"
     inkscape:connector-curvature="0"
     style="fill:#000000" />
  <path
     d="m 98.46032,94.70951 c 1.00197,0.0997 2.00394,0.24656 3.00066,0.43541 0.5141,1.42164 1.11738,2.8118 1.62098,4.24393 -2.12459,-0.84459 -3.91869,-2.46033 -4.62164,-4.67934 z"
     id="path26"
     inkscape:connector-curvature="0"
     style="fill:#ffffff" />
  <path
     d="m 132.2177,102.0223 c 3.81902,1.2118 6.4682,4.5954 7.83738,8.23081 -1.43213,0.2623 -2.86426,0.51935 -4.29115,0.80787 -0.4459,3.62492 -1.12262,7.27607 -2.79082,10.56 2.04066,0.27804 4.10754,0.37246 6.11672,0.83935 -0.66623,0.87082 -1.36393,1.71016 -2.06688,2.54426 -3.70361,-1.58426 -7.53312,-2.8118 -11.29443,-4.2282 0.20459,-1.30098 -0.66098,-3.14229 0.68721,-3.98688 3.06361,-2.15607 5.48722,-5.21967 6.74623,-8.76066 0.55607,-2.04065 -0.38295,-4.07606 -0.94426,-6.00655 z"
     id="path28"
     inkscape:connector-curvature="0"
     style="fill:#e4bb85" />
  <path
     d="m 108.91016,104.88131 c 1.58951,-0.92328 3.75607,-1.23803 5.28262,-0.021 1.93049,1.4741 2.11935,4.09705 3.47804,5.96983 1.53704,2.11935 3.33114,4.04984 5.30885,5.7705 1.2118,0.84983 0.47213,2.44983 0.21508,3.60393 -6.89836,1.55803 -14.0223,2.76984 -20.33836,6.15344 -1.14885,-0.94951 -2.12984,-2.09836 -2.63344,-3.52 4.16524,-0.67672 8.40918,-0.36721 12.60065,-0.78164 -0.92328,-2.9377 -1.32721,-6.06426 -0.68721,-9.10688 -2.90098,-1.69967 -6.1482,-2.58099 -9.29049,-3.68262 1.87803,-1.65246 3.91869,-3.10558 6.06426,-4.38558 z"
     id="path30"
     inkscape:connector-curvature="0"
     style="fill:#e4bb85" />
  <path
     d="m 112.57704,124.81049 c 3.74033,-1.36393 7.6223,-2.24 11.54623,-2.83803 2.96394,1.14361 5.92263,2.34492 8.68722,3.92393 -0.63476,1.99869 -1.75738,3.88197 -3.62492,4.95738 0.41443,-2.33967 0.0262,-5.00984 -1.90426,-6.59934 -0.71345,-1.01771 -1.7941,0.20983 -2.63869,0.40393 -0.69246,-0.53508 -1.38492,-1.05443 -2.09312,-1.55803 -0.56655,0.67672 -1.12787,1.36393 -1.69442,2.0459 -0.71345,-0.44066 -1.41115,-0.8918 -2.10885,-1.3482 -0.62951,0.8341 -1.24328,1.67869 -1.86755,2.51279 -0.67147,-0.49836 -1.34295,-0.98098 -2.01967,-1.45836 -1.80459,2.14033 -1.73639,5.04131 -2.1141,7.65377 -1.95147,-1.33246 -3.76131,-3.47803 -3.24721,-6.01705 0.66623,-1.04393 2.01443,-1.24328 3.07934,-1.67869 z"
     id="path32"
     inkscape:connector-curvature="0"
     style="fill:#ffffff" />
  <path
     d="m 82.381634,125.23016 c 4.85246,-1.00721 9.76263,-1.64196 14.67279,-2.28196 1.526556,3.13705 3.530486,6.17967 3.950166,9.72065 0.5718,4.0341 0.96524,8.24131 2.88,11.91345 1.2695,2.3659 3.70885,4.57442 6.58885,4.16 2.01967,-0.54558 3.61442,-2.23476 5.77049,-2.37115 2.94295,-0.30426 5.97508,0.20459 8.62426,1.54229 -1.47934,2.56 -3.45705,4.94689 -6.21639,6.17967 -5.30885,2.35017 -11.98164,0.45115 -15.53312,-4.07606 -4.12852,-5.12 -5.361306,-11.86623 -5.817696,-18.25574 -0.64525,1.52131 -0.9023,3.15803 -1.26426,4.75803 -1.72066,-0.93377 -3.62492,-1.84655 -4.60066,-3.6459 -1.23803,-1.81508 -1.37967,-4.05508 -1.67344,-6.15869 -1.52131,1.05968 -3.01115,2.26099 -3.94492,3.90295 -1.32197,2.10886 -1.71541,4.59017 -2.31344,6.96132 -2.61246,-3.14754 -3.3941,-7.48591 -2.64394,-11.43607 0.18361,-0.69246 0.95476,-0.74492 1.52131,-0.91279 z"
     id="path34"
     inkscape:connector-curvature="0"
     style="fill:#e4bb85" />
  <path
     d="m 138.08786,128.46164 c 2.11935,-1.30098 3.47804,-3.37312 4.91541,-5.30885 2.16656,0.39344 4.27017,1.07541 6.35804,1.77836 -0.20984,2.38688 -0.33049,4.8 -1.00722,7.11344 -1.12262,-2.07738 -2.08262,-4.3541 -4.11803,-5.73377 1.00197,4.59016 1.03344,10.20852 -2.89049,13.50295 -0.042,-3.97639 -0.81312,-8.11016 -3.25771,-11.35213 z"
     id="path36"
     inkscape:connector-curvature="0"
     style="fill:#e4bb85" />
  <path
     d="m 71.517374,128.30426 c 1.28525,-0.47737 2.59148,-0.8918 3.9082,-1.26951 -0.68197,2.14558 -1.05967,4.35935 -1.5318,6.55738 -0.88656,-1.71541 -1.62623,-3.50426 -2.3764,-5.28787 z"
     id="path38"
     inkscape:connector-curvature="0"
     style="fill:#e4bb85" />
  <path
     d="m 110.11672,146.58623 c -4.41705,-2.79082 -3.69312,-8.9023 -2.28722,-13.17771 0.5141,3.48328 1.28,7.44918 4.52722,9.45837 0.42491,-0.7764 0.8341,-1.55804 1.24328,-2.33968 0.45639,0.54033 0.91278,1.08066 1.37442,1.62623 0.53508,-0.72918 1.07017,-1.45311 1.63148,-2.16131 0.5141,0.61377 1.02819,1.23279 1.55278,1.84131 0.59804,-0.76065 1.19082,-1.52655 1.77836,-2.29246 0.65574,0.84459 1.30099,1.69443 1.97246,2.52328 2.95869,-1.88852 3.9082,-5.40328 4.25443,-8.68721 2.01967,3.71934 1.96721,8.84459 -1.3377,11.81377 -3.03214,-0.44066 -6.10099,-1.48459 -9.18558,-0.76066 -2.02492,0.15738 -3.75082,1.2905 -5.52393,2.15607 z"
     id="path40"
     inkscape:connector-curvature="0"
     style="fill:#ffffff" />
</svg>
