<?xml version="1.0" encoding="UTF-8" standalone="no"?>
<!-- Created with Inkscape (http://www.inkscape.org/) -->

<svg
   xmlns:dc="http://purl.org/dc/elements/1.1/"
   xmlns:cc="http://creativecommons.org/ns#"
   xmlns:rdf="http://www.w3.org/1999/02/22-rdf-syntax-ns#"
   xmlns:svg="http://www.w3.org/2000/svg"
   xmlns="http://www.w3.org/2000/svg"
   version="1.1"
   width="280"
   height="200"
   id="svg2"
   xml:space="preserve"><metadata
     id="metadata8"><rdf:RDF><cc:Work
         rdf:about=""><dc:format>image/svg+xml</dc:format><dc:type
           rdf:resource="http://purl.org/dc/dcmitype/StillImage" /><dc:title></dc:title></cc:Work></rdf:RDF></metadata><defs
     id="defs6" /><g
     transform="matrix(1.25,0,0,-1.25,-20.4725,220.47249)"
     id="g10"><g
       transform="matrix(0.0830065,0,0,0.0830065,46.778,16.378)"
       id="g12"><path
         d="m 0,0 1927.56,0 0,1927.56 L 0,1927.56 0,0 z"
         id="path14"
         style="fill:#ffffff;fill-opacity:1;fill-rule:evenodd;stroke:none" /><path
         d="m 723.926,1185.55 -68.41,-87.33 -570.4769,-195.888 638.8869,283.218 0,0"
         id="path16"
         style="fill:#2a4c92;fill-opacity:1;fill-rule:evenodd;stroke:none" /><path
         d="m 592.25,1257.32 c 13.887,-0.82 21.789,-1.98 35.234,-5.57 10.75,-2.87 16.739,-5 26.887,-9.59 19.992,21.59 27.496,30.52 57.32,49.02 34.215,21.22 66.922,34.4 109.774,47.01 -52.25,-8.4 -90.715,-20.43 -145.781,-42.14 -33.368,-13.16 -51.766,-21.86 -83.434,-38.73 l 0,0 z m 512.29,-58.64 c -7.29,-10.44 -15.03,-20.32 -25.41,-32.8 76.24,27.41 118.28,46.62 189.25,85.79 59.42,32.79 91.9,53.62 146.51,93.96 l 6.33,23.66 c -55.55,-39.34 -88.19,-59.97 -147.96,-92.46 -68.05,-36.98 -96.32,-50.76 -168.72,-78.15 l 0,0 z m 24.76,46.52 c 60.49,24.51 92.45,40.66 149.11,73.12 59.73,34.23 92.16,56.21 146.59,98.42 -143.12,-1.24 -227.03,-17.35 -360.46,-69.42 -114.274,-44.59 -176.517,-81.14 -271.825,-158.6 l -12.992,18.05 c 35.871,35.93 58.043,54.53 99.043,84.41 37.797,27.54 60.304,41.73 101.636,63.56 -74.156,-13.55 -104.461,-20.13 -170.769,-43.05 -49.082,-16.96 -129.203,-66.44 -136.324,-103.05 -26.977,12.52 -43.086,18.17 -72.008,25.02 -30.485,7.23 -48.34,9.66 -79.656,10.31 86.101,44.16 137.742,64.47 230.734,91 108.777,31.04 173.207,41.5 286.151,46.96 88.73,41.14 142.97,58.16 239.32,74.52 116.57,19.79 186.27,20.17 303.11,2.11 -77.62,-90.89 -130.43,-136.85 -231.16,-200.89 -117.82,-74.92 -194.4,-106.71 -330.59,-136.78 -87.554,-68.05 -137.511,-104.11 -243.308,-159.476 -44.097,-23.066 -78.254,-39.504 -122.629,-58.133 0,0 0.782,8.914 28.344,24.66 59.086,30.305 110.516,57.622 172.039,105.219 64.782,50.12 88.403,76.06 138.223,131.28 -53.961,-31.1 -84.836,-47.94 -140.297,-76.25 -55.156,-28.16 -86.637,-43.4 -143.121,-68.78 34.219,46.6 80.629,130.77 80.629,130.77 69.66,27.15 109.355,41.47 178.617,69.63 l 189.093,76.89 c -8.23,-20.65 -18.46,-34.98 -27.5,-51.5 l 0,0"
         id="path18"
         style="fill:#2a4c92;fill-opacity:1;fill-rule:evenodd;stroke:none" /><path
         d="m 386.746,930.707 13.512,-437.902 -128.965,-36.946 -14.301,463.575 -90.121,-25.813 -3.129,101.449 309.203,88.57 3.129,-101.449 -90.117,-25.816 -44.891,-12.859 45.68,-12.809 0,0"
         id="path20"
         style="fill:#f8d319;fill-opacity:1;fill-rule:evenodd;stroke:none" /><g
         transform="scale(0.997737,1.00226)"
         id="g22"><path
           d="M 387.623,928.605 401.166,491.692 271.908,454.83 257.575,917.357 167.25,891.603 l -3.136,101.22 309.904,88.367 3.136,-101.217 -90.321,-25.758 -44.993,-12.83 45.783,-12.78 0,0 z"
           id="path24"
           style="fill:none;stroke:#2a4c92;stroke-width:24.01399994;stroke-linecap:butt;stroke-linejoin:miter;stroke-miterlimit:2.61310005;stroke-opacity:1;stroke-dasharray:none" /></g><path
         d="m 840.898,698.848 -46.222,-32.11 44.875,6.481 93.933,11.293 -4.488,-85.371 -202.355,-26.922 25.004,475.441 108.656,15.7 -19.403,-364.512 0,0"
         id="path26"
         style="fill:#f8d319;fill-opacity:1;fill-rule:evenodd;stroke:none" /><g
         transform="scale(0.997737,1.00226)"
         id="g28"><path
           d="m 842.806,697.269 -46.327,-32.037 44.976,6.466 94.147,11.268 -4.498,-85.178 -202.815,-26.862 25.061,474.364 108.902,15.67 -19.446,-363.691 0,0 z"
           id="path30"
           style="fill:none;stroke:#2a4c92;stroke-width:24.01399994;stroke-linecap:butt;stroke-linejoin:miter;stroke-miterlimit:2.61310005;stroke-opacity:1;stroke-dasharray:none" /></g><path
         d="m 1094.21,965.762 -40.65,22.527 44.01,2.656 97.95,5.797 11.2,83.898 -204.78,-12.35 -62.342,-467.239 212.482,12.816 11.2,83.891 -105.92,-6.387 15.58,116.813 91.15,5.5 10.68,80.019 -91.15,-5.5 10.59,77.559 0,0"
         id="path32"
         style="fill:#f8d319;fill-opacity:1;fill-rule:evenodd;stroke:none" /><g
         transform="scale(0.997737,1.00226)"
         id="g34"><path
           d="m 1096.7,963.581 -40.75,22.476 44.11,2.65 98.18,5.784 11.22,83.709 -205.25,-12.32 -62.481,-466.187 212.971,12.788 11.22,83.701 -106.17,-6.372 15.62,116.548 91.36,5.488 10.71,79.839 -91.36,-5.488 10.62,77.384 0,0 z"
           id="path36"
           style="fill:none;stroke:#2a4c92;stroke-width:24.01399994;stroke-linecap:butt;stroke-linejoin:miter;stroke-miterlimit:2.61310005;stroke-opacity:1;stroke-dasharray:none" /></g><path
         d="m 1670.38,949.367 -35.02,29.832 69.81,-8.683 c 19.6,-2.438 25.82,-7.774 20.51,-24.922 l -83.49,-269.301 c -5.31,-17.148 -14.28,-20.652 -33.88,-18.215 -19.6,2.442 -25.81,7.828 -20.49,24.977 l 82.56,266.312 0,0 z m -193.09,-258.5 c -23.23,-74.949 18.72,-100.613 106.6,-111.547 87.9,-10.929 142.05,2.785 165.28,77.731 l 87.03,280.73 c 23.23,74.949 -18.71,100.609 -106.6,111.549 -87.89,10.93 -142.04,-2.78 -165.28,-77.732 l -87.03,-280.731 0,0"
         id="path38"
         style="fill:#f8d319;fill-opacity:1;fill-rule:evenodd;stroke:none" /><g
         transform="scale(0.997737,1.00226)"
         id="g40"><path
           d="m 1674.16,947.223 -35.09,29.765 69.97,-8.664 c 19.64,-2.432 25.88,-7.756 20.55,-24.866 l -83.67,-268.692 c -5.33,-17.11 -14.32,-20.606 -33.96,-18.174 -19.65,2.436 -25.87,7.81 -20.54,24.92 l 82.74,265.711 0,0 M 1480.64,689.307 c -23.28,-74.78 18.76,-100.386 106.84,-111.295 88.1,-10.905 142.37,2.779 165.66,77.555 l 87.22,280.096 c 23.29,74.777 -18.75,100.387 -106.83,111.297 -88.09,10.9 -142.37,-2.78 -165.66,-77.557 l -87.23,-280.096 0,0 z"
           id="path42"
           style="fill:none;stroke:#2a4c92;stroke-width:24.01399994;stroke-linecap:butt;stroke-linejoin:miter;stroke-miterlimit:2.61310005;stroke-opacity:1;stroke-dasharray:none" /></g><path
         d="m 1354.59,995.027 27.62,-0.105 c 22.68,-0.082 25.57,-10.227 18.3,-44.41 l -44.44,-208.864 c -7.27,-34.179 -14.46,-44.285 -37.15,-44.199 l -27.72,0.102 57.82,272.781 -37.95,24.863 43.52,-0.168 0,0 z m -185.48,-379.363 136.09,-0.512 c 97.66,-0.367 132.98,20.403 165.03,171.039 l 24.37,114.567 c 32.05,150.632 5.75,172.272 -91.91,172.632 l -136.1,0.51 -97.48,-458.236 0,0"
         id="path44"
         style="fill:#f8d319;fill-opacity:1;fill-rule:evenodd;stroke:none" /><g
         transform="scale(0.997737,1.00226)"
         id="g46"><path
           d="m 1357.66,992.78 27.69,-0.105 c 22.73,-0.082 25.62,-10.204 18.34,-44.31 l -44.54,-208.392 c -7.29,-34.102 -14.5,-44.185 -37.24,-44.099 l -27.78,0.101 57.95,272.166 -38.03,24.807 43.61,-0.168 0,0 m -185.9,-378.506 136.4,-0.511 c 97.88,-0.366 133.28,20.356 165.4,170.653 l 24.43,114.308 c 32.12,150.296 5.77,171.876 -92.12,172.246 l -136.41,0.51 -97.7,-457.206 0,0 z"
           id="path48"
           style="fill:none;stroke:#2a4c92;stroke-width:24.01399994;stroke-linecap:butt;stroke-linejoin:miter;stroke-miterlimit:2.61310005;stroke-opacity:1;stroke-dasharray:none" /></g><path
         d="m 540.09,903.672 -43.231,14.133 70.805,17.609 c 19.883,4.941 27.578,2.402 27.578,-14.992 l 0,-273.141 c 0,-17.398 -7.695,-23.82 -27.578,-28.765 -19.879,-4.946 -27.574,-2.352 -27.574,15.043 l 0,270.113 z M 429.785,600.328 c 0,-76.019 48.738,-83.867 137.879,-61.695 89.145,22.172 137.879,54.262 137.879,130.281 l 0,284.742 c 0,76.014 -48.734,83.864 -137.879,61.694 C 478.523,993.176 429.785,961.082 429.785,885.066 l 0,-284.738"
         id="path50"
         style="fill:#f8d319;fill-opacity:1;fill-rule:evenodd;stroke:none" /><g
         transform="scale(0.997737,1.00226)"
         id="g52"><path
           d="m 541.315,901.631 -43.328,14.101 70.965,17.569 c 19.928,4.931 27.641,2.397 27.641,-14.958 l 0,-272.524 c 0,-17.359 -7.713,-23.766 -27.641,-28.7 -19.924,-4.934 -27.637,-2.347 -27.637,15.009 l 0,269.503 M 430.76,598.972 c 0,-75.848 48.849,-83.677 138.192,-61.556 89.347,22.122 138.192,54.14 138.192,129.987 l 0,284.099 c 0,75.848 -48.845,83.678 -138.192,61.548 C 479.609,990.933 430.76,958.911 430.76,883.068 l 0,-284.096 z"
           id="path54"
           style="fill:none;stroke:#2a4c92;stroke-width:24.01399994;stroke-linecap:butt;stroke-linejoin:miter;stroke-miterlimit:2.61310005;stroke-opacity:1;stroke-dasharray:none" /></g><path
         d="m 386.746,930.707 13.512,-437.902 -128.965,-36.946 -14.301,463.575 -90.121,-25.813 -3.129,101.449 309.203,88.57 3.129,-101.449 -90.117,-25.816 -44.891,-12.859 45.68,-12.809 0,0"
         id="path56"
         style="fill:#f8d319;fill-opacity:1;fill-rule:evenodd;stroke:none" /><path
         d="m 840.898,698.848 -46.222,-32.11 44.875,6.481 93.933,11.293 -4.488,-85.371 -202.355,-26.922 25.004,475.441 108.656,15.7 -19.403,-364.512 0,0"
         id="path58"
         style="fill:#f8d319;fill-opacity:1;fill-rule:evenodd;stroke:none" /><path
         d="m 1094.21,965.762 -40.65,22.527 44.01,2.656 97.95,5.797 11.2,83.898 -204.78,-12.35 -62.342,-467.239 212.482,12.816 11.2,83.891 -105.92,-6.387 15.58,116.813 91.15,5.5 10.68,80.019 -91.15,-5.5 10.59,77.559 0,0"
         id="path60"
         style="fill:#f8d319;fill-opacity:1;fill-rule:evenodd;stroke:none" /><path
         d="m 1670.38,949.367 -35.02,29.832 69.81,-8.683 c 19.6,-2.438 25.82,-7.774 20.51,-24.922 l -83.49,-269.301 c -5.31,-17.148 -14.28,-20.652 -33.88,-18.215 -19.6,2.442 -25.81,7.828 -20.49,24.977 l 82.56,266.312 0,0 z m -193.09,-258.5 c -23.23,-74.949 18.72,-100.613 106.6,-111.547 87.9,-10.929 142.05,2.785 165.28,77.731 l 87.03,280.73 c 23.23,74.949 -18.71,100.609 -106.6,111.549 -87.89,10.93 -142.04,-2.78 -165.28,-77.732 l -87.03,-280.731 0,0"
         id="path62"
         style="fill:#f8d319;fill-opacity:1;fill-rule:evenodd;stroke:none" /><path
         d="m 1354.59,995.027 27.62,-0.105 c 22.68,-0.082 25.57,-10.227 18.3,-44.41 l -44.44,-208.864 c -7.27,-34.179 -14.46,-44.285 -37.15,-44.199 l -27.72,0.102 57.82,272.781 -37.95,24.863 43.52,-0.168 0,0 z m -185.48,-379.363 136.09,-0.512 c 97.66,-0.367 132.98,20.403 165.03,171.039 l 24.37,114.567 c 32.05,150.632 5.75,172.272 -91.91,172.632 l -136.1,0.51 -97.48,-458.236 0,0"
         id="path64"
         style="fill:#f8d319;fill-opacity:1;fill-rule:evenodd;stroke:none" /><path
         d="m 540.09,903.672 -43.231,14.133 70.805,17.609 c 19.883,4.941 27.578,2.402 27.578,-14.992 l 0,-273.141 c 0,-17.398 -7.695,-23.82 -27.578,-28.765 -19.879,-4.946 -27.574,-2.352 -27.574,15.043 l 0,270.113 z M 429.785,600.328 c 0,-76.019 48.738,-83.867 137.879,-61.695 89.145,22.172 137.879,54.262 137.879,130.281 l 0,284.742 c 0,76.014 -48.734,83.864 -137.879,61.694 C 478.523,993.176 429.785,961.082 429.785,885.066 l 0,-284.738"
         id="path66"
         style="fill:#f8d319;fill-opacity:1;fill-rule:evenodd;stroke:none" /></g></g></svg>