<?xml version="1.0" encoding="UTF-8"?>
<svg xmlns="http://www.w3.org/2000/svg" xmlns:xlink="http://www.w3.org/1999/xlink" width="35pt" height="25pt" viewBox="0 0 35 25" version="1.1">
<g id="surface1">
<path style=" stroke:none;fill-rule:nonzero;fill:rgb(100%,77.647059%,21.960784%);fill-opacity:1;" d="M 12.398438 5.25 C 11.324219 5.816406 10.6875 6.402344 9.863281 7.539062 L 9.859375 7.542969 L 9.664062 7.773438 C 9.878906 7.671875 10.175781 7.53125 10.464844 7.425781 C 10.566406 7.386719 10.765625 7.332031 10.765625 7.332031 C 10.726562 7.398438 10.644531 7.539062 10.617188 7.589844 C 9.992188 8.738281 9.570312 10.800781 9.363281 11.816406 C 9.339844 11.933594 9.320312 12.035156 9.300781 12.117188 C 9.289062 12.179688 9.265625 12.214844 9.234375 12.257812 C 9.195312 12.308594 9.144531 12.335938 9.125 12.347656 L 8.332031 12.707031 C 8.308594 12.71875 8.277344 12.730469 8.234375 12.730469 L 8.230469 12.730469 C 8.191406 12.730469 8.132812 12.71875 8.082031 12.667969 C 8.078125 12.664062 8.074219 12.65625 8.070312 12.652344 C 8.023438 12.601562 8.011719 12.550781 8.003906 12.480469 C 7.996094 12.394531 7.992188 12.304688 7.984375 12.214844 C 7.964844 11.941406 7.949219 11.640625 7.9375 11.320312 C 7.871094 9.617188 7.890625 7.351562 7.902344 5.964844 C 7.90625 5.507812 7.910156 5.109375 7.910156 4.808594 L 7.910156 4.804688 L 7.90625 4.800781 C 7.816406 4.707031 7.671875 4.558594 7.632812 4.515625 C 7.6875 4.539062 7.804688 4.59375 7.953125 4.683594 C 8.03125 4.730469 8.117188 4.789062 8.210938 4.855469 C 8.339844 4.949219 8.480469 5.058594 8.625 5.191406 C 8.660156 5.222656 8.691406 5.253906 8.726562 5.289062 L 8.757812 5.320312 L 8.75 5.277344 C 8.574219 4.367188 8.445312 3.675781 8.253906 3.019531 C 8.171875 2.738281 8.078125 2.46875 7.964844 2.1875 C 7.800781 1.789062 7.597656 1.210938 7.328125 0.738281 L 7.320312 0.722656 L 7.308594 0.738281 C 7.039062 1.210938 6.832031 1.785156 6.671875 2.183594 C 6.554688 2.464844 6.460938 2.738281 6.378906 3.015625 C 6.183594 3.671875 6.054688 4.363281 5.875 5.273438 L 5.867188 5.316406 L 5.898438 5.285156 C 5.933594 5.25 5.964844 5.21875 6 5.1875 C 6.144531 5.054688 6.285156 4.945312 6.414062 4.851562 C 6.507812 4.785156 6.597656 4.730469 6.675781 4.679688 C 6.824219 4.59375 6.9375 4.539062 6.996094 4.515625 C 6.953125 4.558594 6.8125 4.703125 6.71875 4.800781 L 6.714844 4.800781 L 6.714844 4.808594 C 6.714844 5.109375 6.71875 5.503906 6.71875 5.960938 C 6.730469 7.347656 6.742188 9.613281 6.671875 11.316406 C 6.65625 11.640625 6.640625 11.9375 6.621094 12.210938 C 6.613281 12.304688 6.609375 12.394531 6.601562 12.480469 C 6.59375 12.550781 6.582031 12.597656 6.535156 12.652344 C 6.53125 12.65625 6.527344 12.660156 6.523438 12.664062 C 6.472656 12.71875 6.414062 12.730469 6.375 12.730469 L 6.371094 12.730469 C 6.328125 12.726562 6.292969 12.714844 6.273438 12.707031 L 6.019531 12.589844 L 5.480469 12.34375 C 5.460938 12.332031 5.410156 12.300781 5.371094 12.25 C 5.339844 12.207031 5.316406 12.171875 5.304688 12.113281 C 5.289062 12.03125 5.265625 11.929688 5.242188 11.8125 C 5.039062 10.792969 4.625 8.734375 4.003906 7.582031 C 3.972656 7.527344 3.894531 7.390625 3.851562 7.320312 C 3.851562 7.320312 4.050781 7.378906 4.152344 7.414062 C 4.445312 7.523438 4.738281 7.667969 4.953125 7.765625 L 4.757812 7.535156 L 4.753906 7.53125 C 3.933594 6.390625 3.296875 5.804688 2.226562 5.234375 C 2.105469 5.167969 1.980469 5.105469 1.847656 5.042969 L 1.804688 5.019531 L 1.832031 5.0625 C 3.582031 7.742188 4.035156 10.714844 4.382812 13.617188 L 4.390625 13.699219 L 4.78125 13.359375 L 6.554688 14.269531 L 6.558594 15.269531 L 8.039062 15.269531 L 8.042969 14.269531 L 9.820312 13.367188 L 10.210938 13.707031 L 10.21875 13.625 C 10.574219 10.722656 11.035156 7.753906 12.792969 5.074219 L 12.820312 5.035156 L 12.777344 5.054688 C 12.644531 5.121094 12.519531 5.183594 12.398438 5.25 "/>
<path style=" stroke:none;fill-rule:nonzero;fill:rgb(100%,77.647059%,21.960784%);fill-opacity:1;" d="M 6.554688 15.480469 L 6.554688 15.988281 L 7.296875 15.992188 L 8.042969 15.992188 L 8.042969 15.480469 Z M 6.554688 15.480469 "/>
<path style=" stroke:none;fill-rule:nonzero;fill:rgb(56.862745%,17.647059%,27.843137%);fill-opacity:1;" d="M 12.792969 5.074219 C 11.035156 7.753906 10.574219 10.722656 10.21875 13.625 L 10.210938 13.707031 L 9.820312 13.367188 L 8.042969 14.269531 L 8.039062 15.269531 L 6.558594 15.269531 L 6.554688 14.269531 L 4.78125 13.359375 L 4.390625 13.699219 L 4.382812 13.613281 C 4.039062 10.714844 3.582031 7.742188 1.832031 5.0625 L 1.804688 5.019531 L 1.847656 5.039062 C 1.980469 5.105469 2.105469 5.167969 2.226562 5.234375 C 3.296875 5.804688 3.933594 6.390625 4.753906 7.53125 L 4.757812 7.535156 L 4.953125 7.765625 C 4.738281 7.664062 4.445312 7.523438 4.152344 7.414062 C 4.050781 7.378906 3.851562 7.320312 3.851562 7.320312 C 3.894531 7.390625 3.972656 7.527344 4.003906 7.582031 C 4.625 8.734375 5.039062 10.792969 5.242188 11.8125 C 5.265625 11.929688 5.289062 12.03125 5.304688 12.113281 C 5.316406 12.171875 5.335938 12.207031 5.371094 12.253906 C 5.410156 12.300781 5.460938 12.332031 5.480469 12.34375 L 6.019531 12.589844 L 6.273438 12.707031 C 6.292969 12.714844 6.328125 12.726562 6.371094 12.730469 L 6.375 12.730469 C 6.414062 12.730469 6.472656 12.71875 6.523438 12.664062 C 6.527344 12.660156 6.53125 12.65625 6.535156 12.652344 C 6.582031 12.597656 6.59375 12.550781 6.601562 12.480469 C 6.609375 12.394531 6.613281 12.304688 6.621094 12.210938 C 6.640625 11.941406 6.65625 11.636719 6.671875 11.316406 C 6.742188 9.613281 6.730469 7.347656 6.71875 5.960938 C 6.71875 5.503906 6.714844 5.109375 6.714844 4.808594 L 6.714844 4.800781 L 6.71875 4.796875 C 6.8125 4.703125 6.957031 4.558594 6.996094 4.515625 C 6.9375 4.535156 6.824219 4.59375 6.675781 4.683594 C 6.597656 4.726562 6.507812 4.785156 6.414062 4.851562 C 6.285156 4.945312 6.144531 5.054688 6 5.1875 C 5.964844 5.21875 5.929688 5.25 5.898438 5.285156 L 5.867188 5.316406 L 5.875 5.273438 C 6.054688 4.363281 6.183594 3.671875 6.378906 3.015625 C 6.460938 2.738281 6.554688 2.464844 6.671875 2.183594 C 6.832031 1.785156 7.039062 1.210938 7.308594 0.742188 L 7.316406 0.722656 L 7.328125 0.742188 C 7.597656 1.214844 7.800781 1.785156 7.964844 2.1875 C 8.078125 2.46875 8.171875 2.738281 8.253906 3.019531 C 8.445312 3.675781 8.574219 4.367188 8.75 5.277344 L 8.757812 5.320312 L 8.726562 5.289062 C 8.691406 5.253906 8.660156 5.222656 8.625 5.191406 C 8.480469 5.058594 8.339844 4.949219 8.210938 4.855469 C 8.117188 4.789062 8.03125 4.730469 7.953125 4.683594 C 7.804688 4.59375 7.6875 4.539062 7.632812 4.515625 C 7.671875 4.558594 7.816406 4.703125 7.90625 4.800781 L 7.910156 4.804688 L 7.910156 4.808594 C 7.910156 5.109375 7.90625 5.507812 7.902344 5.964844 C 7.890625 7.351562 7.871094 9.613281 7.9375 11.320312 C 7.949219 11.640625 7.964844 11.941406 7.984375 12.214844 C 7.992188 12.304688 7.996094 12.394531 8.003906 12.480469 C 8.011719 12.550781 8.023438 12.601562 8.070312 12.652344 C 8.074219 12.65625 8.078125 12.660156 8.082031 12.667969 C 8.128906 12.71875 8.191406 12.730469 8.230469 12.730469 L 8.234375 12.730469 C 8.277344 12.730469 8.308594 12.71875 8.332031 12.710938 L 8.585938 12.59375 L 9.125 12.347656 C 9.144531 12.335938 9.195312 12.308594 9.234375 12.257812 C 9.265625 12.214844 9.289062 12.179688 9.300781 12.117188 C 9.320312 12.035156 9.339844 11.933594 9.363281 11.816406 C 9.570312 10.800781 9.992188 8.738281 10.617188 7.589844 C 10.644531 7.539062 10.726562 7.398438 10.765625 7.332031 C 10.765625 7.332031 10.566406 7.386719 10.464844 7.425781 C 10.175781 7.527344 9.878906 7.671875 9.664062 7.773438 L 9.859375 7.542969 L 9.863281 7.539062 C 10.6875 6.402344 11.324219 5.816406 12.398438 5.246094 C 12.519531 5.183594 12.644531 5.121094 12.777344 5.054688 L 12.820312 5.035156 Z M 8.039062 15.992188 L 6.554688 15.992188 L 6.554688 15.480469 L 8.042969 15.484375 Z M 6.714844 16.5625 L 6.714844 16.191406 L 7.878906 16.191406 L 7.878906 16.5625 Z M 8.035156 16.785156 L 7.984375 17.265625 L 6.605469 17.265625 L 6.554688 16.78125 L 6.554688 16.761719 L 8.039062 16.761719 Z M 7.285156 23.441406 L 6.632812 17.464844 L 7.957031 17.464844 Z M 13.515625 4.265625 C 10.039062 5.75 9.066406 8.3125 9.0625 8.316406 L 9.023438 8.421875 L 9.121094 8.363281 C 9.398438 8.199219 9.90625 7.925781 10.253906 7.78125 C 9.847656 8.644531 9.253906 10.308594 9.011719 11.492188 C 8.992188 11.597656 8.957031 11.683594 8.9375 11.765625 C 8.925781 11.820312 8.917969 11.855469 8.894531 11.894531 C 8.867188 11.945312 8.824219 11.984375 8.769531 12.027344 C 8.726562 12.0625 8.488281 12.179688 8.488281 12.179688 C 8.488281 12.179688 8.433594 12.207031 8.378906 12.234375 C 8.347656 12.246094 8.320312 12.261719 8.292969 12.269531 C 8.292969 12.273438 8.292969 12.273438 8.289062 12.273438 L 8.277344 12.058594 C 8.199219 10.027344 8.175781 8.753906 8.175781 7.804688 C 8.179688 6.785156 8.210938 6.136719 8.238281 5.316406 C 8.464844 5.5 9.148438 6.070312 9.148438 6.070312 L 9.222656 6.128906 L 9.214844 6.035156 C 9.078125 4.46875 8.621094 2.972656 8.308594 2.121094 C 8.203125 1.839844 8.101562 1.59375 8 1.382812 C 7.664062 0.660156 7.367188 0.09375 7.355469 0.0664062 L 7.320312 0 L 7.285156 0.0664062 C 7.269531 0.09375 6.972656 0.660156 6.632812 1.378906 C 6.535156 1.59375 6.429688 1.835938 6.328125 2.117188 C 6.011719 2.96875 5.546875 4.464844 5.410156 6.03125 L 5.402344 6.125 L 5.472656 6.0625 C 5.476562 6.0625 6.160156 5.496094 6.386719 5.316406 C 6.414062 6.132812 6.441406 6.785156 6.441406 7.800781 C 6.441406 8.753906 6.410156 10.027344 6.328125 12.054688 L 6.316406 12.269531 C 6.242188 12.242188 6.117188 12.175781 6.117188 12.175781 C 6.117188 12.175781 5.878906 12.058594 5.835938 12.023438 C 5.78125 11.976562 5.738281 11.9375 5.710938 11.890625 C 5.691406 11.851562 5.679688 11.816406 5.667969 11.761719 C 5.652344 11.679688 5.617188 11.589844 5.59375 11.488281 C 5.355469 10.304688 4.765625 8.636719 4.363281 7.773438 C 4.710938 7.917969 5.21875 8.195312 5.496094 8.359375 L 5.59375 8.417969 L 5.554688 8.3125 C 5.550781 8.304688 4.585938 5.738281 1.113281 4.25 L 1 4.199219 L 1.0625 4.304688 C 1.0625 4.308594 1.488281 5.019531 1.96875 5.957031 C 2.449219 6.890625 2.984375 8.046875 3.199219 8.921875 C 3.398438 9.734375 4.015625 12.371094 4.011719 14.605469 C 4.011719 14.828125 4.003906 15.046875 3.988281 15.261719 L 4.066406 15.285156 C 4.066406 15.285156 4.183594 15.054688 4.332031 14.789062 C 4.460938 14.5625 4.609375 14.308594 4.726562 14.148438 L 5.453125 19.964844 L 5.535156 19.964844 L 5.816406 15.609375 L 7.246094 25 L 7.324219 25 L 8.777344 15.613281 L 9.050781 19.96875 L 9.128906 19.972656 L 9.875 14.152344 C 9.992188 14.316406 10.140625 14.570312 10.265625 14.796875 C 10.414062 15.0625 10.53125 15.292969 10.53125 15.292969 L 10.605469 15.273438 C 10.59375 15.058594 10.585938 14.835938 10.585938 14.613281 C 10.589844 12.382812 11.214844 9.746094 11.414062 8.933594 C 11.632812 8.058594 12.171875 6.90625 12.652344 5.96875 C 13.136719 5.035156 13.5625 4.324219 13.566406 4.324219 L 13.628906 4.21875 L 13.515625 4.265625 "/>
<path style=" stroke:none;fill-rule:nonzero;fill:rgb(100%,77.647059%,21.960784%);fill-opacity:1;" d="M 6.632812 17.464844 L 7.285156 23.441406 L 7.957031 17.464844 Z M 6.632812 17.464844 "/>
<path style=" stroke:none;fill-rule:nonzero;fill:rgb(100%,77.647059%,21.960784%);fill-opacity:1;" d="M 7.296875 16.761719 L 6.554688 16.761719 L 6.554688 16.78125 L 6.605469 17.265625 L 7.296875 17.265625 L 7.988281 17.269531 L 8.035156 16.78125 L 8.039062 16.761719 Z M 7.296875 16.761719 "/>
<path style=" stroke:none;fill-rule:nonzero;fill:rgb(100%,77.647059%,21.960784%);fill-opacity:1;" d="M 7.878906 16.5625 L 7.878906 16.191406 L 7.640625 16.191406 L 6.957031 16.1875 L 6.714844 16.1875 L 6.714844 16.5625 Z M 7.878906 16.5625 "/>
<path style=" stroke:none;fill-rule:nonzero;fill:rgb(56.862745%,17.647059%,27.843137%);fill-opacity:1;" d="M 24.960938 12.007812 C 24.699219 11.785156 24.390625 11.585938 24.050781 11.417969 C 23.097656 10.949219 22.613281 10.71875 22.386719 10.363281 C 22.261719 10.167969 22.214844 9.9375 22.214844 9.605469 C 22.214844 9.410156 22.324219 9.265625 22.480469 9.171875 C 22.617188 9.097656 22.785156 9.054688 22.953125 9.054688 C 23.113281 9.054688 23.257812 9.097656 23.371094 9.171875 C 23.515625 9.265625 23.609375 9.410156 23.609375 9.59375 L 23.609375 10.363281 L 25.851562 10.363281 L 25.851562 10.367188 C 25.839844 9.5625 26 8.917969 26.359375 8.347656 L 25.851562 8.347656 C 25.558594 7.90625 24.949219 7.554688 24.347656 7.335938 C 23.9375 7.1875 23.46875 7.101562 22.953125 7.101562 C 22.363281 7.101562 21.851562 7.1875 21.414062 7.335938 C 21.128906 7.433594 20.875 7.554688 20.65625 7.699219 C 20.25 7.964844 19.953125 8.300781 19.773438 8.671875 C 19.691406 8.832031 19.632812 9 19.597656 9.171875 C 19.566406 9.320312 19.546875 9.46875 19.546875 9.617188 C 19.546875 9.867188 19.578125 10.117188 19.644531 10.363281 C 19.679688 10.492188 19.71875 10.617188 19.773438 10.738281 C 19.949219 11.167969 20.238281 11.574219 20.65625 11.9375 C 20.679688 11.960938 20.707031 11.984375 20.734375 12.007812 C 20.933594 12.171875 21.15625 12.328125 21.410156 12.46875 C 22.875 13.300781 23.519531 13.59375 23.519531 14.363281 C 23.519531 14.511719 23.484375 14.632812 23.417969 14.730469 C 23.300781 14.890625 23.078125 14.972656 22.746094 14.972656 C 22.425781 14.972656 22.191406 14.878906 22.050781 14.730469 C 21.957031 14.628906 21.902344 14.5 21.902344 14.351562 L 21.902344 13.546875 L 19.636719 13.546875 C 19.644531 14.402344 19.472656 15.085938 19.09375 15.695312 L 19.636719 15.695312 C 19.835938 16.011719 20.269531 16.277344 20.65625 16.476562 C 20.816406 16.558594 20.992188 16.632812 21.183594 16.691406 C 21.660156 16.84375 22.226562 16.925781 22.875 16.925781 C 23.433594 16.925781 23.925781 16.839844 24.351562 16.691406 C 24.945312 16.484375 25.402344 16.15625 25.714844 15.753906 C 25.953125 15.445312 26.105469 15.09375 26.160156 14.730469 C 26.175781 14.625 26.1875 14.519531 26.1875 14.410156 C 26.1875 13.878906 26.019531 13.347656 25.714844 12.863281 C 25.519531 12.554688 25.265625 12.265625 24.960938 12.007812 "/>
<path style=" stroke:none;fill-rule:nonzero;fill:rgb(56.862745%,17.647059%,27.843137%);fill-opacity:1;" d="M 32.941406 7.335938 L 30.460938 7.335938 L 30.460938 14.457031 C 30.460938 14.703125 30.238281 14.855469 29.9375 14.855469 C 29.65625 14.855469 29.421875 14.703125 29.421875 14.457031 L 29.421875 7.335938 L 26.28125 7.335938 C 26.671875 7.652344 26.847656 8.007812 26.835938 8.457031 L 26.835938 14.609375 C 26.835938 15.886719 28.171875 16.925781 29.9375 16.925781 C 31.714844 16.925781 32.941406 15.886719 32.941406 14.609375 L 32.941406 8.355469 L 32.945312 8.355469 C 32.960938 7.957031 33.136719 7.628906 33.496094 7.335938 L 32.941406 7.335938 "/>
<path style=" stroke:none;fill-rule:nonzero;fill:rgb(56.862745%,17.647059%,27.843137%);fill-opacity:1;" d="M 17.429688 7.90625 C 17.519531 7.699219 17.667969 7.511719 17.882812 7.335938 L 13.765625 7.335938 C 13.980469 7.511719 14.128906 7.703125 14.21875 7.910156 L 12.660156 16.691406 L 14.894531 16.691406 L 15.082031 15.464844 L 16.285156 15.464844 L 16.414062 16.691406 L 19.011719 16.691406 Z M 15.363281 13.453125 L 15.75 10.492188 L 16.074219 13.453125 L 15.363281 13.453125 "/>
</g>
</svg>
