<?xml version="1.0" encoding="UTF-8"?>
<svg xmlns="http://www.w3.org/2000/svg" xmlns:xlink="http://www.w3.org/1999/xlink" width="35pt" height="25pt" viewBox="0 0 35 25" version="1.1">
<g id="surface1">
<path style=" stroke:none;fill-rule:nonzero;fill:rgb(100%,100%,100%);fill-opacity:1;" d="M 26.066406 0.00390625 L 26.066406 8.121094 L 25.246094 8.117188 L 28.523438 16.871094 L 31.332031 16.875 L 31.332031 25 L 4.25 25 L 4.25 16.886719 L 7.039062 16.890625 L 10.347656 8.109375 L 9.507812 8.113281 L 9.507812 0 Z M 26.066406 0.00390625 "/>
<path style=" stroke:none;fill-rule:nonzero;fill:rgb(0%,20%,40%);fill-opacity:1;" d="M 17.789062 3.011719 L 23.019531 3.011719 L 23.019531 5.105469 L 20.847656 5.105469 L 26.5625 19.828125 L 28.25 19.828125 L 28.25 21.996094 L 21.171875 21.996094 L 21.171875 19.886719 L 19.183594 19.886719 L 19.183594 24.019531 L 30.359375 24.019531 L 30.359375 17.859375 L 27.847656 17.863281 L 23.824219 7.136719 L 25.089844 7.136719 L 25.089844 0.980469 L 10.492188 0.980469 L 10.492188 7.136719 L 11.757812 7.136719 L 7.734375 17.847656 L 5.222656 17.859375 L 5.222656 24.019531 L 16.398438 24.019531 L 16.398438 19.886719 L 14.410156 19.886719 L 14.410156 21.996094 L 7.332031 21.996094 L 7.332031 19.828125 L 9.019531 19.828125 L 14.734375 5.105469 L 12.5625 5.105469 L 12.5625 3.011719 Z M 17.789062 3.011719 "/>
<path style=" stroke:none;fill-rule:nonzero;fill:rgb(80%,0%,20%);fill-opacity:1;" d="M 17.785156 3.03125 L 23.585938 18.070312 C 23.585938 18.070312 24.328125 19.902344 25.535156 19.902344 L 21.3125 19.902344 C 21.3125 19.902344 21.523438 19.933594 21.738281 19.582031 C 21.859375 19.378906 21.753906 19.078125 21.753906 19.078125 L 20.449219 15.71875 L 15.132812 15.71875 L 13.824219 19.078125 C 13.824219 19.078125 13.726562 19.378906 13.847656 19.582031 C 14.054688 19.933594 14.269531 19.902344 14.269531 19.902344 L 10.046875 19.902344 C 11.25 19.902344 11.996094 18.070312 11.996094 18.070312 L 17.785156 3.03125 M 17.78125 14.125 L 19.824219 14.125 L 17.820312 8.851562 L 15.746094 14.125 Z M 17.78125 14.125 "/>
</g>
</svg>
