<?xml version="1.0" encoding="UTF-8"?>
<svg xmlns="http://www.w3.org/2000/svg" xmlns:xlink="http://www.w3.org/1999/xlink" width="35pt" height="25pt" viewBox="0 0 35 25" version="1.1">
<g id="surface1">
<path style=" stroke:none;fill-rule:nonzero;fill:rgb(96.470588%,69.803922%,6.666667%);fill-opacity:1;" d="M 2.101562 24.90625 C 1.796875 24.601562 2.265625 23.804688 2.472656 23.539062 C 2.851562 23.054688 3.421875 22.621094 3.933594 22.285156 C 4.9375 21.625 5.871094 21.214844 7.035156 20.90625 C 8.6875 20.464844 10.40625 20.414062 12.109375 20.417969 C 17.238281 20.421875 20.308594 20.941406 24.839844 21.035156 C 25.207031 21.042969 27.359375 21.128906 27.921875 20.660156 C 26.707031 20.417969 25.914062 20.09375 25.289062 19.667969 C 25.019531 19.484375 24.390625 18.832031 24.234375 18.53125 C 22.820312 19.472656 21.101562 20.347656 19.300781 20.269531 C 18.476562 20.230469 17.671875 19.890625 17.378906 19.40625 C 16.765625 19.9375 15.941406 20.167969 15.335938 20.246094 C 14.324219 20.378906 13.269531 20.125 12.511719 19.414062 C 12.414062 19.320312 12.113281 18.96875 12.046875 18.871094 C 11.851562 19.042969 11.34375 19.355469 11.242188 19.410156 C 9.335938 20.4375 6.925781 20.628906 5.003906 19.527344 C 3.136719 18.457031 2.605469 16.4375 2.722656 14.40625 C 3 9.699219 6.335938 5.617188 9.984375 2.921875 C 11.722656 1.640625 13.855469 0.46875 16.015625 0.128906 C 16.824219 0.00390625 17.925781 -0.152344 18.65625 0.316406 C 19.410156 0.796875 19.625 1.6875 19.535156 2.535156 C 19.332031 4.46875 17.566406 6.765625 15.574219 6.761719 C 14.71875 6.761719 14.015625 6.109375 14.242188 5.238281 C 14.484375 4.28125 15.480469 4.085938 16.3125 3.847656 C 16.984375 3.65625 17.539062 3.296875 17.46875 2.503906 C 17.398438 1.679688 15.972656 2.214844 15.472656 2.464844 C 13.71875 3.339844 12.503906 4.839844 11.339844 6.394531 C 9.386719 9 7.742188 12.238281 7.949219 15.5625 C 8.039062 17.015625 9.277344 18.53125 10.761719 17.425781 C 11.519531 16.859375 11.878906 15.847656 12.3125 15.046875 C 12.839844 14.074219 13.488281 13.210938 14.296875 12.453125 C 15.132812 11.675781 16.105469 11.0625 17.207031 10.742188 C 17.664062 10.609375 18.167969 10.484375 18.648438 10.480469 C 19.652344 10.472656 19.578125 10.894531 19.761719 10.675781 C 20.015625 10.375 20.597656 10.441406 21.476562 10.472656 C 22.382812 10.503906 22.703125 10.488281 22.859375 10.894531 C 23.027344 11.328125 22.429688 12.503906 21.726562 14.289062 C 21.0625 15.96875 20.347656 17.613281 20.820312 17.859375 C 21.332031 18.125 22.113281 17.53125 22.554688 17.242188 C 23.046875 16.921875 23.292969 16.746094 23.511719 16.527344 C 23.375 14.605469 23.601562 12.246094 24.320312 10.445312 C 25.183594 8.296875 26.460938 6.273438 28.097656 4.632812 C 28.945312 3.785156 31.976562 1.503906 32.992188 2.554688 C 33.476562 3.058594 33.367188 4.058594 33.277344 4.6875 C 33.148438 5.597656 32.09375 8.265625 30.539062 10.863281 C 29.765625 12.148438 27.742188 14.835938 27.367188 15.402344 C 27.28125 16.382812 27.785156 17.511719 28.429688 18.175781 C 29.179688 18.949219 29.96875 19.042969 30.898438 19.433594 C 31.949219 19.878906 31.886719 20.652344 31.25 21.445312 C 29.910156 23.121094 28.242188 23.769531 26.21875 24.164062 C 23.871094 24.625 20.992188 24.414062 18.644531 24.335938 C 16.625 24.269531 14.3125 24.089844 12.289062 24.007812 C 10.027344 23.917969 7.53125 23.941406 5.496094 24.289062 C 4.765625 24.414062 4.15625 24.59375 3.535156 24.75 C 3.253906 24.820312 2.359375 25.164062 2.101562 24.90625 M 18.03125 14.929688 C 18.378906 14.179688 18.910156 12.914062 18.941406 12.535156 C 18.96875 12.21875 17.707031 12.484375 16.515625 14.628906 C 16.179688 15.234375 15.527344 17.261719 16.234375 17.433594 C 16.9375 17.609375 17.703125 15.652344 18.03125 14.929688 Z M 29.640625 8.683594 C 30.277344 7.558594 31.042969 5.945312 31.226562 5.402344 C 30.910156 5.585938 29.96875 6.683594 29.328125 7.699219 C 28.574219 8.890625 27.621094 11.042969 27.65625 11.738281 C 27.949219 11.363281 29.035156 9.75 29.640625 8.683594 Z M 29.640625 8.683594 "/>
<path style=" stroke:none;fill-rule:nonzero;fill:rgb(9.019608%,14.901961%,46.666667%);fill-opacity:1;" d="M 2.523438 24.492188 C 2.578125 24.308594 2.722656 24.03125 2.867188 23.847656 C 3.144531 23.492188 3.59375 23.109375 4.207031 22.707031 C 5.152344 22.082031 6.039062 21.691406 7.164062 21.390625 C 8.800781 20.953125 10.53125 20.917969 12.027344 20.917969 L 12.109375 20.917969 C 14.097656 20.921875 18.355469 21.171875 21.460938 21.355469 C 23.09375 21.449219 24.382812 21.527344 24.832031 21.535156 L 24.910156 21.539062 C 25.042969 21.539062 25.261719 21.546875 25.523438 21.546875 C 27.421875 21.546875 28.070312 21.25 28.363281 21.082031 C 28.679688 20.898438 29.015625 20.636719 28.988281 20.457031 C 28.949219 20.191406 28.285156 20.210938 28.035156 20.171875 C 27.042969 20.007812 26.1875 19.617188 25.570312 19.179688 C 24.867188 18.683594 24.425781 17.804688 24.425781 17.804688 L 23.957031 18.113281 C 22.253906 19.246094 20.847656 19.773438 19.527344 19.773438 C 19.457031 19.773438 19.390625 19.769531 19.320312 19.769531 C 18.5625 19.734375 17.976562 19.425781 17.808594 19.148438 L 17.503906 18.640625 L 17.054688 19.027344 C 16.449219 19.550781 15.605469 19.707031 15.269531 19.75 C 15.125 19.769531 14.972656 19.777344 14.828125 19.777344 C 14.058594 19.777344 13.355469 19.519531 12.855469 19.050781 C 12.78125 18.980469 12.507812 18.660156 12.460938 18.589844 L 12.140625 18.125 L 11.714844 18.496094 C 11.5625 18.628906 11.097656 18.917969 11.003906 18.96875 C 10.03125 19.492188 8.957031 19.769531 7.898438 19.769531 C 6.941406 19.769531 6.027344 19.535156 5.253906 19.089844 C 3.414062 18.035156 3.132812 15.976562 3.222656 14.4375 C 3.347656 12.332031 4.113281 10.230469 5.503906 8.191406 C 6.699219 6.429688 8.351562 4.75 10.28125 3.324219 C 11.683594 2.289062 13.835938 0.980469 16.09375 0.625 C 16.492188 0.5625 16.914062 0.5 17.324219 0.5 C 17.789062 0.5 18.136719 0.578125 18.390625 0.738281 C 19.066406 1.167969 19.085938 2.015625 19.035156 2.480469 C 18.855469 4.195312 17.273438 6.261719 15.578125 6.261719 C 15.265625 6.261719 14.984375 6.140625 14.828125 5.933594 C 14.703125 5.773438 14.667969 5.582031 14.726562 5.363281 C 14.867188 4.804688 15.394531 4.621094 16.246094 4.386719 C 16.316406 4.367188 16.382812 4.347656 16.449219 4.328125 C 17.804688 3.941406 18.023438 3.097656 17.96875 2.457031 C 17.929688 2.023438 17.625 1.558594 16.878906 1.558594 C 16.179688 1.558594 15.339844 1.96875 15.246094 2.015625 C 13.394531 2.941406 12.152344 4.472656 10.9375 6.09375 C 8.4375 9.429688 7.265625 12.625 7.449219 15.59375 C 7.53125 16.898438 8.429688 18.304688 9.746094 18.304688 C 10.191406 18.304688 10.632812 18.144531 11.0625 17.828125 C 11.746094 17.316406 12.132812 16.527344 12.476562 15.832031 C 12.570312 15.636719 12.660156 15.457031 12.753906 15.285156 C 13.269531 14.332031 13.882812 13.476562 14.636719 12.773438 C 15.46875 11.996094 16.339844 11.5 17.296875 11.1875 C 17.808594 11.019531 18.265625 10.945312 18.832031 10.957031 C 19.363281 10.964844 19.644531 11.300781 19.769531 11.519531 C 19.863281 11.335938 20.011719 11.015625 20.066406 10.964844 C 20.121094 10.921875 21.035156 10.929688 21.320312 10.941406 C 21.554688 10.949219 22.28125 10.949219 22.367188 11.042969 C 22.472656 11.152344 22.179688 11.761719 21.855469 12.625 C 21.707031 13.027344 21.488281 13.511719 21.257812 14.109375 C 21.167969 14.34375 21.078125 14.574219 20.988281 14.800781 C 20.261719 16.65625 19.78125 17.886719 20.589844 18.300781 C 20.746094 18.382812 20.921875 18.425781 21.109375 18.425781 C 21.6875 18.425781 22.265625 18.039062 22.6875 17.753906 C 22.738281 17.722656 22.785156 17.691406 22.828125 17.664062 C 23.324219 17.339844 23.605469 17.140625 23.863281 16.882812 L 24.027344 16.71875 L 24.011719 16.492188 C 23.863281 14.433594 24.164062 12.1875 24.785156 10.632812 C 25.652344 8.472656 26.917969 6.519531 28.449219 4.988281 C 29.21875 4.21875 31.148438 2.820312 32.207031 2.796875 C 33.105469 2.777344 32.851562 4.355469 32.769531 4.726562 C 32.59375 5.535156 31.648438 8.039062 30.109375 10.605469 C 29.585938 11.472656 28.453125 13.035156 27.703125 14.066406 C 27.351562 14.554688 27.070312 14.9375 26.949219 15.121094 L 26.878906 15.230469 L 26.867188 15.359375 C 26.761719 16.582031 27.394531 17.832031 28.070312 18.523438 C 28.703125 19.175781 29.371094 19.410156 30.019531 19.640625 C 30.242188 19.71875 30.46875 19.796875 30.703125 19.894531 C 30.902344 19.980469 31.152344 20.121094 31.199219 20.3125 C 31.246094 20.503906 31.125 20.804688 30.859375 21.132812 C 29.511719 22.816406 27.789062 23.347656 26.121094 23.671875 C 25.164062 23.859375 24 23.953125 22.5625 23.953125 C 21.59375 23.953125 20.628906 23.914062 19.699219 23.875 C 19.34375 23.859375 18.996094 23.847656 18.660156 23.835938 C 17.59375 23.800781 16.417969 23.730469 15.285156 23.664062 C 14.289062 23.605469 13.257812 23.546875 12.308594 23.507812 C 11.554688 23.476562 10.832031 23.460938 10.152344 23.460938 C 8.296875 23.460938 6.703125 23.574219 5.414062 23.796875 C 4.828125 23.894531 4.328125 24.027344 3.839844 24.152344 C 3.695312 24.191406 3.554688 24.226562 3.414062 24.261719 C 3.351562 24.277344 3.277344 24.300781 3.191406 24.328125 C 3.011719 24.382812 2.734375 24.46875 2.523438 24.492188 Z M 18.769531 11.949219 C 18.261719 11.964844 17.046875 12.589844 16.078125 14.386719 C 15.851562 14.804688 15.148438 16.546875 15.53125 17.414062 C 15.644531 17.675781 15.851562 17.859375 16.113281 17.921875 C 16.183594 17.9375 16.253906 17.945312 16.320312 17.945312 C 17.175781 17.945312 17.777344 16.75 18.363281 15.417969 C 18.410156 15.3125 18.453125 15.21875 18.488281 15.140625 C 18.640625 14.8125 19.273438 13.34375 19.398438 12.792969 C 19.476562 12.449219 19.503906 11.925781 18.769531 11.949219 Z M 31.707031 4.6875 C 31.503906 4.574219 30.96875 4.96875 30.96875 4.96875 C 29.945312 5.78125 29.175781 6.789062 28.511719 7.953125 C 26.761719 11.019531 26.921875 13.429688 26.921875 13.429688 C 26.921875 13.429688 27.835938 12.386719 28.050781 12.046875 C 28.347656 11.582031 29.453125 10.027344 30.074219 8.929688 C 30.742188 7.753906 31.511719 6.125 31.699219 5.5625 C 31.699219 5.5625 32.007812 4.851562 31.707031 4.6875 Z M 31.707031 4.6875 "/>
</g>
</svg>
