<?xml version="1.0" encoding="UTF-8"?>
<svg xmlns="http://www.w3.org/2000/svg" xmlns:xlink="http://www.w3.org/1999/xlink" width="35pt" height="25pt" viewBox="0 0 35 25" version="1.1">
<g id="surface1">
<path style=" stroke:none;fill-rule:nonzero;fill:rgb(0%,29.019608%,0%);fill-opacity:1;" d="M 17.417969 0 C 13.128906 0 9.183594 0.832031 6.898438 2.371094 C 4.335938 4.101562 2.25 5.617188 2.25 12.5 C 2.25 19.382812 4.335938 20.898438 6.898438 22.628906 C 9.183594 24.167969 13.128906 25 17.417969 25 C 21.710938 25 25.65625 24.167969 27.9375 22.628906 C 30.503906 20.898438 32.589844 19.382812 32.589844 12.5 C 32.589844 5.617188 30.503906 4.101562 27.9375 2.371094 C 25.65625 0.832031 21.710938 0 17.417969 0 Z M 17.417969 2.015625 C 20.582031 2.015625 23.019531 3.640625 24.027344 5.304688 C 25.03125 6.96875 24.933594 8.96875 24.933594 12.5 C 24.933594 16.03125 25.03125 18.03125 24.027344 19.695312 C 23.019531 21.359375 20.582031 22.984375 17.417969 22.984375 C 14.257812 22.984375 11.820312 21.359375 10.8125 19.695312 C 9.804688 18.03125 9.902344 16.03125 9.902344 12.5 C 9.902344 8.96875 9.804688 6.96875 10.8125 5.304688 C 11.820312 3.640625 14.257812 2.015625 17.417969 2.015625 Z M 17.417969 2.015625 "/>
</g>
</svg>
