<?xml version="1.0" encoding="UTF-8"?>
<svg xmlns="http://www.w3.org/2000/svg" xmlns:xlink="http://www.w3.org/1999/xlink" width="35pt" height="25pt" viewBox="0 0 35 25" version="1.1">
<g id="surface1">
<path style=" stroke:none;fill-rule:nonzero;fill:rgb(70.196078%,3.137255%,21.960784%);fill-opacity:1;" d="M 16.453125 16.875 L 9.757812 16.875 L 9.757812 21.859375 L 12.871094 25 L 23.085938 25 L 26.1875 21.902344 L 26.1875 12.671875 L 23.027344 9.617188 L 16.222656 9.617188 L 16.222656 6.222656 L 19.988281 6.222656 L 19.988281 8.5625 L 26.1875 8.5625 L 26.1875 3.550781 L 22.71875 0 L 13.320312 0 L 9.75 3.546875 L 9.75 12.671875 L 12.851562 15.773438 L 20.265625 15.773438 L 20.265625 18.941406 L 16.453125 18.941406 Z M 16.453125 16.875 "/>
<path style=" stroke:none;fill-rule:nonzero;fill:rgb(100%,100%,100%);fill-opacity:1;" d="M 10.160156 3.730469 L 10.160156 12.507812 L 13.015625 15.367188 C 13.015625 15.367188 19.929688 15.367188 20.671875 15.367188 C 20.671875 15.996094 20.671875 18.738281 20.671875 19.363281 C 20.023438 19.363281 16.683594 19.363281 16.035156 19.363281 C 16.035156 18.835938 16.035156 17.296875 16.035156 17.296875 L 10.164062 17.296875 L 10.164062 21.695312 L 13.03125 24.597656 L 22.914062 24.597656 L 25.769531 21.738281 L 25.769531 12.847656 L 22.847656 10.042969 L 15.804688 10.042969 C 15.804688 9.40625 15.804688 6.453125 15.804688 5.816406 L 20.398438 5.816406 L 20.398438 8.160156 L 25.769531 8.160156 L 25.769531 3.734375 L 22.542969 0.421875 L 13.480469 0.421875 Z M 10.160156 3.730469 "/>
<path style=" stroke:none;fill-rule:nonzero;fill:rgb(70.196078%,3.137255%,21.960784%);fill-opacity:1;" d="M 15.625 19.804688 L 15.625 17.738281 L 10.578125 17.742188 L 10.578125 21.550781 L 13.203125 24.214844 L 22.746094 24.214844 L 25.359375 21.59375 L 25.359375 13.046875 L 22.671875 10.484375 L 15.394531 10.484375 L 15.394531 5.433594 L 20.8125 5.433594 L 20.8125 7.777344 L 25.359375 7.777344 L 25.359375 3.9375 L 22.375 0.867188 L 13.648438 0.867188 L 10.574219 3.9375 L 10.574219 12.367188 L 13.191406 14.984375 L 21.085938 14.984375 L 21.085938 19.804688 Z M 15.625 19.804688 "/>
<path style=" stroke:none;fill-rule:nonzero;fill:rgb(70.196078%,3.137255%,21.960784%);fill-opacity:1;" d="M 19.5625 13.832031 C 19.5625 13.832031 19.558594 13.839844 19.542969 13.855469 C 19.550781 13.847656 19.554688 13.839844 19.5625 13.832031 "/>
</g>
</svg>
