<?xml version="1.0" encoding="UTF-8"?>
<svg xmlns="http://www.w3.org/2000/svg" xmlns:xlink="http://www.w3.org/1999/xlink" width="35pt" height="25pt" viewBox="0 0 35 25" version="1.1">
<g id="surface1">
<path style=" stroke:none;fill-rule:evenodd;fill:rgb(100%,70.196078%,0%);fill-opacity:1;" d="M 34.902344 17.867188 C 34.605469 18.617188 34.1875 18.921875 33.882812 19.15625 C 32.957031 19.867188 31.546875 20.945312 29.957031 20.746094 C 29.320312 20.664062 28.976562 20.289062 28.792969 19.570312 C 28.449219 19.753906 28.15625 20.117188 27.695312 20.363281 C 26.371094 21.078125 24.546875 20.828125 24.113281 19.410156 C 23.089844 20.015625 20.855469 21.375 19.246094 20.523438 C 18.789062 20.28125 18.496094 19.851562 18.242188 19.347656 C 16.9375 20.527344 13.933594 21.398438 12.023438 20.078125 C 11.722656 19.871094 11.488281 19.589844 11.234375 19.316406 C 10.402344 19.984375 8.726562 21.191406 7.152344 20.585938 C 6.621094 20.382812 6.28125 19.953125 6.023438 19.410156 C 4.894531 20.371094 2.867188 21.363281 1.375 20.332031 C 1.019531 20.089844 0.648438 19.714844 0.398438 19.316406 C -0.203125 18.347656 -0.03125 16.820312 0.304688 15.660156 C 1.160156 12.707031 2.339844 10.695312 3.382812 7.871094 C 3.609375 7.261719 4.246094 5.949219 3.320312 5.867188 C 2.578125 5.800781 2.394531 6.582031 2.285156 6.949219 C 2.121094 7.480469 2.050781 8.152344 1.59375 8.347656 C 1.09375 8.558594 0.519531 8.304688 0.335938 7.902344 C 0.128906 7.445312 0.316406 6.742188 0.429688 6.34375 C 0.855469 4.894531 1.875 4.023438 3.289062 3.738281 C 5.585938 3.269531 7.246094 4.625 7.40625 6.691406 C 7.472656 7.589844 7.023438 8.816406 6.683594 9.648438 C 5.945312 11.441406 5.246094 12.953125 4.546875 14.800781 C 4.4375 15.082031 4.207031 15.746094 4.105469 16.199219 C 3.9375 16.960938 3.859375 18.015625 4.859375 17.882812 C 5.367188 17.816406 5.714844 17.070312 5.960938 16.582031 C 7.292969 13.898438 8.203125 10.890625 9.257812 7.871094 C 9.65625 6.726562 10.082031 5.058594 10.859375 4.691406 C 11.433594 4.417969 13.882812 4.296875 14.0625 5.070312 C 14.15625 5.46875 13.742188 6.433594 13.625 6.789062 C 12.550781 10.019531 11.386719 13.164062 10.105469 16.199219 C 9.894531 16.699219 9.546875 17.226562 9.664062 17.789062 C 10.128906 17.714844 10.570312 17.316406 10.734375 16.898438 C 10.90625 16.460938 10.894531 15.972656 10.984375 15.59375 C 11.273438 14.375 11.75 13.375 12.460938 12.480469 C 13.308594 11.414062 14.5 10.34375 16.480469 10.382812 C 17.734375 10.402344 18.742188 11.269531 18.867188 12.480469 C 18.972656 13.453125 18.53125 14.378906 17.800781 14.769531 C 17.273438 15.050781 16.246094 15.050781 15.789062 14.738281 C 15.292969 14.394531 15.097656 13.300781 15.695312 12.796875 C 15.15625 13.109375 14.675781 13.792969 14.316406 14.609375 C 13.953125 15.421875 13.699219 17.09375 14.503906 17.628906 C 15.332031 18.179688 16.578125 17.632812 17.234375 17.3125 C 17.480469 17.191406 17.957031 16.988281 18.082031 16.804688 C 18.195312 16.640625 18.25 16.230469 18.335938 15.945312 C 19.253906 12.925781 20.210938 9.816406 21.601562 7.265625 C 22.601562 5.4375 23.566406 3.601562 25.9375 3.164062 C 27.429688 2.886719 28.914062 3.558594 29.078125 4.847656 C 29.234375 6.121094 28.355469 7.539062 27.914062 8.347656 C 26.527344 10.878906 24.933594 12.921875 22.953125 14.925781 C 22.773438 15.105469 22.550781 15.316406 22.355469 15.5 C 22.167969 15.671875 21.875 15.894531 21.789062 16.070312 C 21.570312 16.527344 21.476562 17.34375 21.632812 17.851562 C 22.566406 17.914062 23.253906 17.460938 23.738281 16.960938 C 23.847656 15.332031 24.375 13.8125 25.246094 12.636719 C 26.054688 11.546875 27.347656 10.554688 28.824219 10.414062 C 29.941406 10.308594 30.703125 10.617188 31.183594 11.238281 C 31.769531 10.488281 33.992188 9.746094 33.851562 11.652344 C 33.8125 12.203125 33.554688 12.757812 33.347656 13.273438 C 32.957031 14.265625 32.511719 15.269531 32.125 16.292969 C 31.925781 16.820312 31.652344 17.386719 31.777344 17.949219 C 32.175781 17.957031 32.550781 17.574219 32.832031 17.390625 C 33.914062 16.675781 34.28125 16.449219 34.683594 16.789062 C 35.0625 17.105469 35.054688 17.492188 34.902344 17.867188 Z M 34.558594 17.105469 C 34.023438 16.738281 33.570312 17.472656 32.65625 17.917969 C 32.171875 18.152344 32.003906 18.335938 31.746094 18.296875 C 31.03125 18.195312 31.609375 16.796875 31.746094 16.421875 C 32.246094 15.085938 32.664062 14.105469 33.160156 12.828125 C 33.328125 12.394531 33.820312 11.3125 33.347656 10.890625 C 32.980469 10.558594 32.253906 10.859375 31.902344 11.082031 C 31.542969 11.3125 31.378906 11.589844 31.148438 11.875 C 30.871094 11.042969 30.070312 10.652344 28.984375 10.730469 C 27.574219 10.832031 26.234375 11.773438 25.464844 12.859375 C 24.636719 14.035156 24.128906 15.570312 24.050781 17.121094 C 23.796875 17.398438 23.484375 17.683594 22.984375 17.917969 C 22.601562 18.09375 21.910156 18.355469 21.476562 18.140625 C 20.988281 17.894531 21.304688 16.285156 21.507812 15.882812 C 21.597656 15.699219 21.855469 15.550781 22.074219 15.339844 C 24.148438 13.320312 26.144531 11.007812 27.570312 8.378906 C 28.007812 7.566406 28.816406 6.199219 28.761719 5.039062 C 28.707031 3.804688 27.460938 3.347656 26.15625 3.449219 C 24.699219 3.566406 23.683594 4.558594 22.953125 5.644531 C 20.773438 8.871094 19.605469 12.96875 18.367188 17.027344 C 17.375 17.820312 14.574219 18.976562 13.84375 17.375 C 13.09375 15.734375 14.359375 13.503906 15.101562 12.796875 C 15.589844 12.328125 16.980469 11.675781 17.015625 12.894531 C 16.289062 12.519531 15.539062 13.117188 15.632812 13.878906 C 15.722656 14.589844 16.71875 14.851562 17.488281 14.546875 C 18.105469 14.296875 18.503906 13.546875 18.554688 13.050781 C 18.667969 11.9375 18.066406 11.25 17.488281 10.953125 C 16.527344 10.464844 15.019531 10.84375 14.28125 11.269531 C 12.71875 12.175781 11.734375 13.835938 11.300781 15.753906 C 11.207031 16.152344 11.1875 16.640625 11.046875 17.027344 C 10.90625 17.417969 10.195312 18.253906 9.632812 18.140625 C 8.984375 18.003906 9.464844 16.882812 9.601562 16.582031 C 9.894531 15.941406 10.039062 15.484375 10.230469 14.992188 C 11.296875 12.253906 12.308594 9.679688 13.246094 6.851562 C 13.351562 6.539062 13.832031 5.390625 13.71875 5.136719 C 13.601562 4.871094 12.8125 4.820312 12.398438 4.816406 C 11.953125 4.8125 11.28125 4.839844 10.984375 4.976562 C 10.527344 5.1875 10.351562 5.835938 10.105469 6.503906 C 9.414062 8.375 8.835938 10.152344 8.191406 11.875 C 7.574219 13.511719 6.945312 15.550781 6.085938 17.058594 C 5.800781 17.558594 5.433594 18.191406 4.828125 18.234375 C 3.132812 18.351562 3.75 16.074219 4.136719 14.960938 C 4.808594 13.035156 5.574219 11.460938 6.335938 9.617188 C 6.699219 8.738281 7.167969 7.683594 7.058594 6.566406 C 6.929688 5.242188 5.960938 4.140625 4.640625 3.992188 C 2.570312 3.753906 1.242188 4.867188 0.777344 6.3125 C 0.589844 6.894531 0.316406 8.128906 1.214844 8.09375 C 1.804688 8.070312 1.800781 7.3125 1.96875 6.789062 C 2.117188 6.328125 2.410156 5.757812 2.851562 5.613281 C 3.457031 5.40625 4.132812 5.710938 4.167969 6.34375 C 4.191406 6.761719 3.867188 7.492188 3.699219 7.964844 C 3.5 8.519531 3.300781 9.011719 3.101562 9.492188 C 2.230469 11.570312 1.386719 13.285156 0.683594 15.5625 C 0.371094 16.570312 0.0898438 18.121094 0.652344 19.09375 C 0.886719 19.5 1.273438 19.890625 1.625 20.109375 C 3.339844 21.1875 5.105469 19.617188 6.179688 18.902344 C 6.394531 19.53125 6.691406 20.046875 7.246094 20.269531 C 8.777344 20.882812 10.488281 19.496094 11.332031 18.839844 C 12.019531 20.132812 13.777344 20.703125 15.507812 20.300781 C 16.695312 20.023438 17.675781 19.347656 18.429688 18.839844 C 18.609375 19.542969 18.945312 20.027344 19.527344 20.269531 C 20.414062 20.640625 21.460938 20.328125 22.261719 20.015625 C 23.125 19.675781 23.8125 19.179688 24.335938 18.839844 C 24.441406 19.679688 24.914062 20.234375 25.621094 20.394531 C 26.410156 20.574219 27.136719 20.285156 27.695312 19.949219 C 28.28125 19.597656 28.710938 19.082031 29.109375 18.804688 C 29 19.546875 29.21875 20.078125 29.675781 20.300781 C 30.214844 20.5625 30.816406 20.378906 31.308594 20.238281 C 32.421875 19.917969 33.007812 19.40625 33.789062 18.804688 C 34.085938 18.578125 34.480469 18.234375 34.652344 17.835938 C 34.871094 17.328125 34.652344 17.167969 34.558594 17.105469 Z M 34.558594 17.105469 "/>
<path style=" stroke:none;fill-rule:evenodd;fill:rgb(32.54902%,40.784314%,58.431373%);fill-opacity:1;" d="M 34.652344 17.835938 C 34.46875 18.269531 34.085938 18.578125 33.789062 18.804688 C 33.007812 19.40625 32.421875 19.917969 31.308594 20.238281 C 30.816406 20.378906 30.214844 20.5625 29.675781 20.300781 C 29.21875 20.078125 29 19.546875 29.109375 18.804688 C 28.710938 19.082031 28.28125 19.597656 27.695312 19.949219 C 27.136719 20.285156 26.410156 20.574219 25.621094 20.394531 C 24.914062 20.234375 24.441406 19.679688 24.335938 18.839844 C 23.8125 19.179688 23.125 19.675781 22.261719 20.015625 C 21.460938 20.328125 20.414062 20.640625 19.527344 20.269531 C 18.945312 20.027344 18.609375 19.542969 18.429688 18.839844 C 17.675781 19.347656 16.695312 20.023438 15.507812 20.300781 C 13.777344 20.703125 12.019531 20.132812 11.332031 18.839844 C 10.488281 19.496094 8.777344 20.882812 7.246094 20.269531 C 6.691406 20.046875 6.394531 19.53125 6.179688 18.902344 C 5.105469 19.617188 3.339844 21.1875 1.625 20.109375 C 1.273438 19.890625 0.886719 19.5 0.652344 19.09375 C 0.0898438 18.121094 0.371094 16.574219 0.683594 15.5625 C 1.386719 13.285156 2.230469 11.570312 3.101562 9.492188 C 3.300781 9.011719 3.5 8.519531 3.699219 7.964844 C 3.867188 7.492188 4.191406 6.761719 4.167969 6.34375 C 4.132812 5.710938 3.457031 5.40625 2.851562 5.613281 C 2.410156 5.757812 2.117188 6.328125 1.96875 6.789062 C 1.800781 7.3125 1.804688 8.070312 1.214844 8.09375 C 0.316406 8.128906 0.589844 6.894531 0.777344 6.3125 C 1.242188 4.867188 2.570312 3.753906 4.640625 3.992188 C 5.960938 4.140625 6.929688 5.242188 7.058594 6.566406 C 7.167969 7.683594 6.699219 8.738281 6.335938 9.617188 C 5.574219 11.460938 4.808594 13.035156 4.136719 14.960938 C 3.75 16.074219 3.132812 18.351562 4.828125 18.234375 C 5.433594 18.191406 5.796875 17.558594 6.085938 17.058594 C 6.945312 15.550781 7.574219 13.511719 8.191406 11.875 C 8.835938 10.152344 9.414062 8.375 10.105469 6.503906 C 10.351562 5.835938 10.527344 5.1875 10.984375 4.976562 C 11.28125 4.839844 11.953125 4.8125 12.398438 4.816406 C 12.8125 4.820312 13.601562 4.871094 13.71875 5.136719 C 13.832031 5.390625 13.351562 6.539062 13.246094 6.851562 C 12.308594 9.679688 11.296875 12.253906 10.230469 14.992188 C 10.039062 15.484375 9.894531 15.941406 9.601562 16.582031 C 9.464844 16.882812 8.984375 18.003906 9.632812 18.140625 C 10.195312 18.253906 10.90625 17.417969 11.046875 17.027344 C 11.1875 16.640625 11.207031 16.152344 11.300781 15.753906 C 11.734375 13.835938 12.71875 12.175781 14.28125 11.269531 C 15.019531 10.84375 16.527344 10.464844 17.488281 10.953125 C 18.066406 11.25 18.667969 11.9375 18.554688 13.050781 C 18.503906 13.546875 18.105469 14.296875 17.488281 14.546875 C 16.71875 14.851562 15.722656 14.589844 15.632812 13.878906 C 15.535156 13.117188 16.289062 12.519531 17.015625 12.894531 C 16.980469 11.675781 15.585938 12.328125 15.101562 12.796875 C 14.359375 13.507812 13.09375 15.734375 13.84375 17.375 C 14.574219 18.976562 17.375 17.820312 18.367188 17.027344 C 19.605469 12.96875 20.773438 8.871094 22.953125 5.644531 C 23.683594 4.558594 24.699219 3.566406 26.15625 3.449219 C 27.460938 3.347656 28.707031 3.804688 28.761719 5.039062 C 28.816406 6.199219 28.007812 7.566406 27.570312 8.378906 C 26.144531 11.007812 24.148438 13.320312 22.074219 15.339844 C 21.855469 15.550781 21.597656 15.699219 21.507812 15.882812 C 21.304688 16.285156 20.988281 17.894531 21.476562 18.140625 C 21.910156 18.355469 22.601562 18.09375 22.984375 17.917969 C 23.484375 17.683594 23.796875 17.402344 24.050781 17.121094 C 24.128906 15.570312 24.636719 14.035156 25.464844 12.859375 C 26.234375 11.773438 27.574219 10.832031 28.984375 10.730469 C 30.070312 10.652344 30.871094 11.042969 31.148438 11.875 C 31.378906 11.589844 31.542969 11.3125 31.902344 11.082031 C 32.253906 10.859375 32.980469 10.558594 33.347656 10.890625 C 33.820312 11.3125 33.328125 12.394531 33.160156 12.828125 C 32.664062 14.105469 32.246094 15.085938 31.746094 16.421875 C 31.605469 16.796875 31.042969 18.121094 31.746094 18.296875 C 32 18.359375 32.453125 18.007812 32.65625 17.882812 C 33.546875 17.351562 34.046875 16.875 34.371094 16.976562 C 34.871094 17.136719 34.746094 17.613281 34.652344 17.835938 Z M 23.894531 11.429688 C 25.066406 9.914062 26.148438 8.128906 27.035156 6.34375 C 27.207031 5.992188 27.421875 5.324219 27.253906 5.070312 C 26.921875 4.566406 26.230469 5.429688 26.03125 5.707031 C 24.902344 7.289062 23.921875 9.03125 23.203125 10.890625 C 22.902344 11.671875 22.570312 12.464844 22.386719 13.210938 C 22.988281 12.707031 23.417969 12.046875 23.894531 11.429688 Z M 27.882812 13.179688 C 27.15625 14.015625 26.554688 15.210938 26.46875 16.421875 C 26.40625 17.308594 26.632812 18.175781 27.253906 18.265625 C 27.886719 18.355469 28.242188 17.796875 28.511719 17.34375 C 29.09375 16.371094 29.40625 15.410156 29.863281 14.324219 C 30.027344 13.925781 30.453125 13.144531 30.238281 12.605469 C 30.113281 12.289062 29.703125 12.183594 29.453125 12.195312 C 28.753906 12.222656 28.261719 12.742188 27.882812 13.179688 Z M 27.882812 13.179688 "/>
<path style=" stroke:none;fill-rule:evenodd;fill:rgb(100%,70.196078%,0%);fill-opacity:1;" d="M 22.386719 13.210938 C 22.570312 12.464844 22.902344 11.671875 23.203125 10.890625 C 23.921875 9.03125 24.902344 7.289062 26.03125 5.707031 C 26.230469 5.429688 26.921875 4.566406 27.253906 5.070312 C 27.421875 5.324219 27.207031 5.992188 27.035156 6.34375 C 26.148438 8.128906 25.066406 9.914062 23.894531 11.429688 C 23.417969 12.046875 22.988281 12.707031 22.386719 13.210938 Z M 26.910156 5.261719 C 26.371094 5.679688 26.027344 6.300781 25.621094 6.914062 C 24.667969 8.363281 23.851562 10.011719 23.234375 11.714844 C 24.4375 10.359375 25.347656 8.761719 26.21875 7.105469 C 26.507812 6.554688 26.953125 6 26.972656 5.292969 C 26.964844 5.269531 26.945312 5.257812 26.910156 5.261719 Z M 26.910156 5.261719 "/>
<path style=" stroke:none;fill-rule:evenodd;fill:rgb(100%,70.196078%,0%);fill-opacity:1;" d="M 29.453125 12.195312 C 29.703125 12.183594 30.113281 12.289062 30.238281 12.605469 C 30.453125 13.144531 30.027344 13.925781 29.863281 14.324219 C 29.40625 15.410156 29.09375 16.371094 28.511719 17.34375 C 28.242188 17.796875 27.886719 18.355469 27.253906 18.265625 C 26.632812 18.175781 26.40625 17.308594 26.46875 16.421875 C 26.554688 15.210938 27.15625 14.015625 27.882812 13.179688 C 28.261719 12.742188 28.753906 12.222656 29.453125 12.195312 Z M 28.921875 12.671875 C 27.949219 13.21875 26.832031 15.148438 26.785156 16.582031 C 26.761719 17.226562 26.945312 17.929688 27.382812 17.949219 C 27.75 17.964844 28.101562 17.445312 28.292969 17.121094 C 28.785156 16.289062 29.046875 15.515625 29.390625 14.671875 C 29.664062 14 30 13.496094 29.925781 12.703125 C 29.667969 12.394531 29.210938 12.507812 28.921875 12.671875 Z M 28.921875 12.671875 "/>
<path style=" stroke:none;fill-rule:evenodd;fill:rgb(100%,100%,100%);fill-opacity:1;" d="M 34.792969 20.96875 C 34.820312 20.960938 34.824219 20.980469 34.824219 21 "/>
</g>
</svg>
