<?xml version="1.0" encoding="UTF-8"?>
<svg xmlns="http://www.w3.org/2000/svg" xmlns:xlink="http://www.w3.org/1999/xlink" width="35pt" height="25pt" viewBox="0 0 35 25" version="1.1">
<g id="surface1">
<path style=" stroke:none;fill-rule:nonzero;fill:rgb(45.490196%,12.941176%,12.54902%);fill-opacity:1;" d="M 2 20.945312 L 3.355469 20.945312 L 3.355469 20.328125 L 3.597656 20.328125 L 3.597656 23.644531 L 3.210938 23.644531 L 3.210938 25 L 5.335938 25 L 5.335938 23.644531 L 4.953125 23.644531 L 4.953125 20.328125 L 5.199219 20.328125 L 5.199219 20.945312 L 6.554688 20.945312 L 6.554688 18.96875 L 2 18.96875 Z M 2.128906 19.097656 L 6.425781 19.097656 L 6.425781 20.816406 L 5.328125 20.816406 L 5.328125 20.199219 L 4.824219 20.199219 L 4.824219 23.769531 L 5.210938 23.769531 L 5.210938 24.871094 L 3.335938 24.871094 L 3.335938 23.769531 L 3.726562 23.769531 L 3.726562 20.199219 L 3.226562 20.199219 L 3.226562 20.816406 L 2.128906 20.816406 Z M 2.128906 19.097656 "/>
<path style=" stroke:none;fill-rule:nonzero;fill:rgb(45.490196%,12.941176%,12.54902%);fill-opacity:1;" d="M 10.261719 22.847656 L 10.917969 22.3125 L 10.917969 19.628906 L 10.121094 18.96875 L 6.875 18.96875 L 6.875 20.324219 L 7.261719 20.324219 L 7.261719 23.644531 L 6.875 23.644531 L 6.875 25 L 9.011719 25 L 9.011719 23.644531 L 8.625 23.644531 L 8.625 22.96875 L 8.832031 22.96875 L 10.074219 25 L 11.34375 25 L 11.34375 23.640625 L 10.742188 23.640625 Z M 11.21875 24.871094 L 10.144531 24.871094 L 8.902344 22.839844 L 8.496094 22.839844 L 8.496094 23.769531 L 8.882812 23.769531 L 8.882812 24.871094 L 7.003906 24.871094 L 7.003906 23.769531 L 7.390625 23.769531 L 7.390625 20.195312 L 7.003906 20.195312 L 7.003906 19.097656 L 10.074219 19.097656 L 10.789062 19.6875 L 10.789062 22.25 L 10.097656 22.820312 L 10.667969 23.769531 L 11.21875 23.769531 Z M 11.21875 24.871094 "/>
<path style=" stroke:none;fill-rule:nonzero;fill:rgb(45.490196%,12.941176%,12.54902%);fill-opacity:1;" d="M 9.691406 20.199219 L 8.488281 20.199219 L 8.488281 21.742188 L 9.691406 21.742188 Z M 9.566406 21.613281 L 8.617188 21.613281 L 8.617188 20.328125 L 9.566406 20.328125 Z M 9.566406 21.613281 "/>
<path style=" stroke:none;fill-rule:nonzero;fill:rgb(45.490196%,12.941176%,12.54902%);fill-opacity:1;" d="M 14.070312 20.199219 L 12.890625 20.199219 L 12.890625 23.769531 L 14.070312 23.769531 Z M 13.941406 23.644531 L 13.019531 23.644531 L 13.019531 20.328125 L 13.941406 20.328125 Z M 13.941406 23.644531 "/>
<path style=" stroke:none;fill-rule:nonzero;fill:rgb(45.490196%,12.941176%,12.54902%);fill-opacity:1;" d="M 12.460938 18.96875 L 11.664062 19.628906 L 11.664062 24.34375 L 12.460938 25 L 14.503906 25 L 15.300781 24.34375 L 15.300781 19.628906 L 14.503906 18.96875 Z M 15.171875 24.28125 L 14.457031 24.871094 L 12.507812 24.871094 L 11.792969 24.28125 L 11.792969 19.6875 L 12.507812 19.097656 L 14.457031 19.097656 L 15.171875 19.6875 Z M 15.171875 24.28125 "/>
<path style=" stroke:none;fill-rule:nonzero;fill:rgb(45.490196%,12.941176%,12.54902%);fill-opacity:1;" d="M 19.390625 18.96875 L 17.257812 18.96875 L 17.257812 20.328125 L 17.648438 20.328125 L 17.648438 23.644531 L 16.980469 23.644531 L 16.980469 23.039062 L 15.621094 23.039062 L 15.621094 24.34375 L 16.417969 25 L 18.203125 25 L 19 24.34375 L 19 20.328125 L 19.390625 20.328125 Z M 19.261719 20.199219 L 18.875 20.199219 L 18.875 24.28125 L 18.15625 24.871094 L 16.464844 24.871094 L 15.75 24.28125 L 15.75 23.164062 L 16.851562 23.164062 L 16.851562 23.769531 L 17.773438 23.769531 L 17.773438 20.199219 L 17.386719 20.199219 L 17.386719 19.097656 L 19.261719 19.097656 Z M 19.261719 20.199219 "/>
<path style=" stroke:none;fill-rule:nonzero;fill:rgb(45.490196%,12.941176%,12.54902%);fill-opacity:1;" d="M 22.398438 18.96875 L 20.835938 18.96875 L 19.734375 23.644531 L 19.320312 23.640625 L 19.320312 25 L 21.40625 25 L 21.40625 23.644531 L 21.050781 23.644531 L 21.078125 23.519531 L 22.152344 23.519531 L 22.183594 23.644531 L 21.832031 23.644531 L 21.832031 25 L 23.914062 25 L 23.914062 23.640625 L 23.496094 23.640625 Z M 23.785156 24.871094 L 21.957031 24.871094 L 21.957031 23.773438 L 22.34375 23.773438 L 22.253906 23.390625 L 20.976562 23.390625 L 20.890625 23.773438 L 21.277344 23.773438 L 21.277344 24.871094 L 19.445312 24.871094 L 19.445312 23.769531 L 19.835938 23.769531 L 20.9375 19.097656 L 22.296875 19.097656 L 23.394531 23.769531 L 23.785156 23.769531 Z M 23.785156 24.871094 "/>
<path style=" stroke:none;fill-rule:nonzero;fill:rgb(45.490196%,12.941176%,12.54902%);fill-opacity:1;" d="M 22.011719 22.355469 L 21.613281 20.675781 L 21.21875 22.355469 Z M 21.847656 22.230469 L 21.378906 22.226562 L 21.613281 21.234375 Z M 21.847656 22.230469 "/>
<path style=" stroke:none;fill-rule:nonzero;fill:rgb(45.490196%,12.941176%,12.54902%);fill-opacity:1;" d="M 29.925781 18.96875 L 29.035156 19.863281 L 29.035156 21.777344 L 29.921875 22.664062 L 31.488281 22.664062 L 31.488281 23.644531 L 30.386719 23.644531 L 30.386719 22.945312 L 29.035156 22.945312 L 29.035156 24.109375 L 29.921875 25 L 31.964844 25 L 32.84375 24.121094 L 32.84375 22.199219 L 31.953125 21.3125 L 30.390625 21.3125 L 30.390625 20.324219 L 31.488281 20.324219 L 31.488281 21.03125 L 32.84375 21.03125 L 32.84375 19.855469 L 31.960938 18.96875 Z M 32.714844 20.902344 L 31.617188 20.902344 L 31.617188 20.195312 L 30.265625 20.195312 L 30.265625 21.4375 L 31.902344 21.4375 L 32.714844 22.253906 L 32.714844 24.066406 L 31.910156 24.871094 L 29.972656 24.871094 L 29.160156 24.058594 L 29.160156 23.070312 L 30.261719 23.070312 L 30.261719 23.773438 L 31.617188 23.773438 L 31.617188 22.539062 L 29.976562 22.539062 L 29.160156 21.722656 L 29.160156 19.914062 L 29.980469 19.097656 L 31.90625 19.097656 L 32.714844 19.90625 Z M 32.714844 20.902344 "/>
<path style=" stroke:none;fill-rule:nonzero;fill:rgb(45.490196%,12.941176%,12.54902%);fill-opacity:1;" d="M 26.597656 20.328125 L 26.988281 20.328125 L 26.988281 21.519531 L 25.949219 18.96875 L 24.230469 18.96875 L 24.230469 20.328125 L 24.621094 20.328125 L 24.621094 23.644531 L 24.230469 23.644531 L 24.230469 25 L 26.363281 25 L 26.363281 23.644531 L 25.976562 23.644531 L 25.976562 22.445312 L 27.007812 25 L 28.34375 25 L 28.34375 20.328125 L 28.714844 20.328125 L 28.714844 18.96875 L 26.597656 18.96875 Z M 26.726562 19.097656 L 28.585938 19.097656 L 28.585938 20.199219 L 28.214844 20.199219 L 28.214844 24.871094 L 27.09375 24.871094 L 25.847656 21.789062 L 25.847656 23.769531 L 26.234375 23.769531 L 26.234375 24.871094 L 24.359375 24.871094 L 24.359375 23.769531 L 24.746094 23.769531 L 24.746094 20.199219 L 24.359375 20.199219 L 24.359375 19.097656 L 25.863281 19.097656 L 27.113281 22.171875 L 27.113281 20.199219 L 26.726562 20.199219 Z M 26.726562 19.097656 "/>
<path style=" stroke:none;fill-rule:nonzero;fill:rgb(45.490196%,12.941176%,12.54902%);fill-opacity:1;" d="M 24.875 20.070312 L 24.875 23.898438 L 24.488281 23.898438 L 24.488281 24.746094 L 26.109375 24.746094 L 26.109375 23.898438 L 25.71875 23.898438 L 25.71875 21.128906 L 27.179688 24.746094 L 28.085938 24.746094 L 28.085938 20.070312 L 28.460938 20.070312 L 28.460938 19.226562 L 26.855469 19.226562 L 26.855469 20.070312 L 27.242188 20.070312 L 27.242188 22.828125 L 25.777344 19.226562 L 24.488281 19.226562 L 24.488281 20.070312 Z M 24.875 20.070312 "/>
<path style=" stroke:none;fill-rule:nonzero;fill:rgb(45.490196%,12.941176%,12.54902%);fill-opacity:1;" d="M 5.457031 20.6875 L 6.296875 20.6875 L 6.296875 19.226562 L 2.253906 19.226562 L 2.253906 20.6875 L 3.097656 20.6875 L 3.097656 20.070312 L 3.855469 20.070312 L 3.855469 23.898438 L 3.464844 23.898438 L 3.464844 24.746094 L 5.082031 24.746094 L 5.082031 23.898438 L 4.699219 23.898438 L 4.699219 20.070312 L 5.457031 20.070312 Z M 5.457031 20.6875 "/>
<path style=" stroke:none;fill-rule:nonzero;fill:rgb(45.490196%,12.941176%,12.54902%);fill-opacity:1;" d="M 9.929688 22.789062 L 10.664062 22.191406 L 10.664062 19.75 L 10.027344 19.226562 L 7.132812 19.226562 L 7.132812 20.070312 L 7.515625 20.070312 L 7.515625 23.898438 L 7.132812 23.898438 L 7.132812 24.742188 L 8.753906 24.742188 L 8.753906 23.898438 L 8.367188 23.898438 L 8.367188 22.714844 L 8.976562 22.714844 L 10.214844 24.746094 L 11.089844 24.746094 L 11.089844 23.898438 L 10.597656 23.898438 Z M 9.820312 21.867188 L 8.359375 21.867188 L 8.359375 20.070312 L 9.820312 20.070312 Z M 9.820312 21.867188 "/>
<path style=" stroke:none;fill-rule:nonzero;fill:rgb(45.490196%,12.941176%,12.54902%);fill-opacity:1;" d="M 12.554688 19.226562 L 11.917969 19.75 L 11.917969 24.222656 L 12.554688 24.746094 L 14.410156 24.746094 L 15.042969 24.222656 L 15.042969 19.75 L 14.410156 19.226562 Z M 14.199219 23.898438 L 12.761719 23.898438 L 12.761719 20.070312 L 14.199219 20.070312 Z M 14.199219 23.898438 "/>
<path style=" stroke:none;fill-rule:nonzero;fill:rgb(45.490196%,12.941176%,12.54902%);fill-opacity:1;" d="M 19.132812 19.226562 L 17.515625 19.226562 L 17.515625 20.070312 L 17.902344 20.070312 L 17.902344 23.898438 L 16.722656 23.898438 L 16.722656 23.292969 L 15.878906 23.292969 L 15.878906 24.222656 L 16.511719 24.746094 L 18.113281 24.746094 L 18.746094 24.222656 L 18.746094 20.070312 L 19.132812 20.070312 Z M 19.132812 19.226562 "/>
<path style=" stroke:none;fill-rule:nonzero;fill:rgb(45.490196%,12.941176%,12.54902%);fill-opacity:1;" d="M 29.289062 21.671875 L 30.027344 22.410156 L 31.742188 22.410156 L 31.742188 23.898438 L 30.132812 23.898438 L 30.132812 23.199219 L 29.289062 23.199219 L 29.289062 24.003906 L 30.027344 24.742188 L 31.859375 24.742188 L 32.585938 24.011719 L 32.585938 22.304688 L 31.847656 21.566406 L 30.136719 21.566406 L 30.136719 20.070312 L 31.742188 20.070312 L 31.742188 20.773438 L 32.585938 20.773438 L 32.585938 19.960938 L 31.851562 19.226562 L 30.03125 19.226562 L 29.289062 19.96875 Z M 29.289062 21.671875 "/>
<path style=" stroke:none;fill-rule:nonzero;fill:rgb(45.490196%,12.941176%,12.54902%);fill-opacity:1;" d="M 22.195312 19.226562 L 21.039062 19.226562 L 19.9375 23.898438 L 19.574219 23.898438 L 19.574219 24.746094 L 21.148438 24.746094 L 21.148438 23.902344 L 20.730469 23.902344 L 20.871094 23.261719 L 22.355469 23.261719 L 22.507812 23.902344 L 22.085938 23.902344 L 22.085938 24.746094 L 23.65625 24.746094 L 23.65625 23.898438 L 23.292969 23.898438 Z M 21.058594 22.484375 L 21.613281 20.117188 L 22.171875 22.484375 Z M 21.058594 22.484375 "/>
<path style=" stroke:none;fill-rule:nonzero;fill:rgb(45.490196%,12.941176%,12.54902%);fill-opacity:1;" d="M 33.09375 8.460938 L 33.09375 5.601562 L 31.667969 3.007812 L 26.257812 1.042969 L 24.054688 2.445312 L 24.054688 12.488281 L 25.460938 15.078125 L 30.871094 17.0625 L 33.09375 15.648438 L 33.09375 12.9375 L 29.871094 11.769531 L 29.871094 13.417969 L 27.277344 12.382812 L 27.277344 4.675781 L 29.871094 5.617188 L 29.871094 7.285156 Z M 26.976562 4.242188 L 26.976562 12.589844 L 30.171875 13.867188 L 30.171875 12.203125 L 32.789062 13.152344 L 32.789062 15.484375 L 30.835938 16.726562 L 25.675781 14.835938 L 24.359375 12.410156 L 24.359375 2.609375 L 26.296875 1.378906 L 31.457031 3.253906 L 32.789062 5.679688 L 32.789062 8.027344 L 30.171875 7.074219 L 30.171875 5.40625 Z M 26.976562 4.242188 "/>
<path style=" stroke:none;fill-rule:nonzero;fill:rgb(45.490196%,12.941176%,12.54902%);fill-opacity:1;" d="M 2.679688 15.628906 L 4.910156 17.046875 L 10.285156 15.085938 L 11.714844 12.492188 L 11.714844 3.945312 L 12.59375 3.628906 L 12.59375 0.398438 L 7.550781 2.1875 L 7.550781 5.460938 L 8.492188 5.121094 L 8.492188 12.382812 L 5.902344 13.421875 L 5.902344 6.0625 L 6.8125 5.730469 L 6.8125 2.46875 L 1.75 4.3125 L 1.75 7.582031 L 2.679688 7.222656 Z M 2.054688 7.140625 L 2.054688 4.523438 L 6.507812 2.902344 L 6.507812 5.519531 L 5.597656 5.851562 L 5.597656 13.871094 L 8.796875 12.589844 L 8.796875 4.6875 L 7.855469 5.03125 L 7.855469 2.402344 L 12.292969 0.828125 L 12.292969 3.414062 L 11.414062 3.734375 L 11.414062 12.414062 L 10.074219 14.839844 L 4.945312 16.710938 L 2.980469 15.460938 L 2.980469 6.78125 Z M 2.054688 7.140625 "/>
<path style=" stroke:none;fill-rule:nonzero;fill:rgb(45.490196%,12.941176%,12.54902%);fill-opacity:1;" d="M 23.148438 12.214844 L 23.148438 7.660156 L 21.03125 5.542969 L 16.574219 5.542969 L 16.574219 3.222656 L 19.925781 3.222656 L 19.925781 4.886719 L 23.148438 4.886719 L 23.148438 2.097656 L 21.050781 0 L 15.46875 0 L 13.351562 2.117188 L 13.351562 6.65625 L 15.460938 8.765625 L 19.925781 8.765625 L 19.925781 11.078125 L 16.574219 11.078125 L 16.574219 9.425781 L 13.351562 9.425781 L 13.351562 12.195312 L 15.457031 14.300781 L 21.0625 14.300781 Z M 15.582031 13.996094 L 13.65625 12.070312 L 13.65625 9.730469 L 16.273438 9.730469 L 16.273438 11.382812 L 20.230469 11.382812 L 20.230469 8.464844 L 15.589844 8.464844 L 13.65625 6.53125 L 13.65625 2.242188 L 15.597656 0.304688 L 20.925781 0.304688 L 22.84375 2.222656 L 22.84375 4.582031 L 20.230469 4.582031 L 20.230469 2.917969 L 16.273438 2.917969 L 16.273438 5.847656 L 20.90625 5.847656 L 22.84375 7.785156 L 22.84375 12.089844 L 20.9375 13.996094 Z M 15.582031 13.996094 "/>
<path style=" stroke:none;fill-rule:nonzero;fill:rgb(45.490196%,12.941176%,12.54902%);fill-opacity:1;" d="M 30.800781 16.390625 L 32.484375 15.316406 L 32.484375 13.363281 L 30.476562 12.636719 L 30.476562 14.316406 L 26.671875 12.792969 L 26.671875 3.808594 L 30.476562 5.191406 L 30.476562 6.863281 L 32.484375 7.59375 L 32.484375 5.757812 L 31.246094 3.5 L 26.332031 1.714844 L 24.660156 2.777344 L 24.660156 12.335938 L 25.886719 14.589844 Z M 30.800781 16.390625 "/>
<path style=" stroke:none;fill-rule:nonzero;fill:rgb(45.490196%,12.941176%,12.54902%);fill-opacity:1;" d="M 11.988281 1.257812 L 8.15625 2.617188 L 8.15625 4.597656 L 9.101562 4.253906 L 9.101562 12.792969 L 5.296875 14.320312 L 5.296875 5.636719 L 6.207031 5.308594 L 6.207031 3.335938 L 2.355469 4.738281 L 2.355469 6.699219 L 3.285156 6.339844 L 3.285156 15.296875 L 4.984375 16.375 L 9.867188 14.59375 L 11.109375 12.335938 L 11.109375 3.523438 L 11.988281 3.203125 Z M 11.988281 1.257812 "/>
<path style=" stroke:none;fill-rule:nonzero;fill:rgb(45.490196%,12.941176%,12.54902%);fill-opacity:1;" d="M 20.53125 2.617188 L 20.53125 4.28125 L 22.542969 4.28125 L 22.542969 2.347656 L 20.800781 0.605469 L 15.722656 0.605469 L 13.960938 2.367188 L 13.960938 6.40625 L 15.714844 8.160156 L 20.53125 8.160156 L 20.53125 11.683594 L 15.96875 11.683594 L 15.96875 10.035156 L 13.960938 10.035156 L 13.960938 11.945312 L 15.710938 13.695312 L 20.8125 13.695312 L 22.542969 11.964844 L 22.542969 7.910156 L 20.78125 6.152344 L 15.96875 6.152344 L 15.96875 2.617188 Z M 20.53125 2.617188 "/>
</g>
</svg>
