<?xml version="1.0" encoding="UTF-8"?>
<svg xmlns="http://www.w3.org/2000/svg" xmlns:xlink="http://www.w3.org/1999/xlink" width="35pt" height="25pt" viewBox="0 0 35 25" version="1.1">
<g id="surface1">
<path style=" stroke:none;fill-rule:nonzero;fill:rgb(100%,100%,100%);fill-opacity:1;" d="M 26.75 7.738281 L 25.796875 7.738281 L 25.796875 15.015625 L 25.792969 15.023438 L 23.722656 17.421875 L 17.835938 17.421875 L 15.765625 15.023438 L 15.757812 15.015625 L 15.757812 7.738281 L 14.804688 7.738281 L 14.804688 4.5 L 20.480469 4.5 L 20.480469 7.738281 L 19.878906 7.738281 L 19.878906 13.859375 L 21.675781 13.859375 L 21.675781 7.738281 L 21.074219 7.738281 L 21.074219 4.5 L 26.75 4.5 Z M 20.777344 1.191406 C 16.0625 1.191406 12.242188 5.195312 12.242188 10.132812 C 12.242188 15.070312 16.0625 19.074219 20.777344 19.074219 C 25.492188 19.074219 29.3125 15.070312 29.3125 10.132812 C 29.3125 5.195312 25.492188 1.191406 20.777344 1.191406 "/>
<path style=" stroke:none;fill-rule:nonzero;fill:rgb(100%,100%,100%);fill-opacity:1;" d="M 10.121094 12.402344 L 9.992188 11.378906 L 9.996094 11.359375 L 10.0625 10.371094 L 10.46875 10.402344 C 10.46875 10.402344 10.40625 11.328125 10.402344 11.367188 C 10.410156 11.410156 10.527344 12.347656 10.527344 12.347656 Z M 9.835938 17.828125 C 9.835938 17.828125 9.695312 16.203125 9.691406 16.15625 C 9.679688 16.117188 9.335938 14.949219 9.335938 14.949219 C 9.335938 14.949219 9.730469 13.90625 9.757812 13.835938 L 9.757812 13.269531 L 10.164062 13.269531 L 10.164062 13.917969 C 10.164062 13.917969 9.8125 14.847656 9.769531 14.96875 C 9.804688 15.09375 10.09375 16.074219 10.09375 16.074219 L 10.242188 17.789062 Z M 6.910156 20.378906 L 6.5 20.378906 L 6.5 19.761719 C 6.460938 19.714844 6.363281 19.605469 6.363281 19.605469 L 6.363281 19.519531 L 6.398438 17.839844 L 6.808594 17.847656 C 6.808594 17.847656 6.777344 19.285156 6.773438 19.441406 C 6.8125 19.484375 6.910156 19.59375 6.910156 19.59375 Z M 11.171875 5.40625 C 11.148438 5.425781 11.125 5.445312 11.101562 5.464844 L 10.75 6.789062 L 10.734375 6.816406 C 10.734375 6.816406 10.164062 7.792969 10.164062 7.792969 C 10.160156 7.792969 9.5 9.660156 9.480469 9.714844 C 9.476562 9.773438 9.386719 11.078125 9.386719 11.078125 C 9.386719 11.078125 8.390625 12.34375 8.304688 12.453125 L 8.304688 13.363281 C 8.339844 13.4375 8.542969 13.878906 8.542969 13.878906 L 8.519531 14.421875 L 8.113281 14.402344 C 8.113281 14.402344 8.128906 14.054688 8.132812 13.96875 C 8.09375 13.886719 7.894531 13.460938 7.894531 13.460938 L 7.894531 12.296875 C 7.894531 12.296875 8.914062 11.007812 8.992188 10.910156 C 9 10.785156 9.078125 9.625 9.078125 9.625 L 9.089844 9.597656 C 9.089844 9.597656 9.78125 7.640625 9.796875 7.605469 C 9.796875 7.605469 10.34375 6.667969 10.371094 6.617188 C 10.378906 6.59375 10.449219 6.328125 10.53125 6.015625 C 8.847656 7.75 5.214844 12.492188 5.171875 21.082031 C 5.351562 21.15625 5.929688 21.410156 5.929688 21.410156 C 5.929688 21.410156 5.941406 21.890625 5.941406 22.023438 C 5.96875 22.046875 5.976562 22.054688 6.007812 22.082031 C 6.15625 21.957031 6.464844 21.695312 6.464844 21.695312 L 6.78125 21.695312 C 6.78125 21.695312 7.085938 22.089844 7.164062 22.191406 C 7.222656 22.199219 7.257812 22.203125 7.335938 22.210938 C 7.425781 22.0625 7.621094 21.726562 7.621094 21.726562 C 7.621094 21.726562 8.523438 20.742188 8.613281 20.644531 C 8.621094 20.53125 8.6875 19.769531 8.707031 19.550781 L 7.605469 17.21875 L 7.640625 16.492188 C 7.640625 16.492188 8.050781 15.792969 8.113281 15.691406 C 8.109375 15.652344 8.109375 15.636719 8.105469 15.597656 C 8.042969 15.523438 7.84375 15.289062 7.84375 15.289062 L 7.84375 14.875 L 8.25 14.875 L 8.25 15.125 C 8.316406 15.203125 8.503906 15.421875 8.503906 15.421875 L 8.527344 15.800781 C 8.527344 15.800781 8.09375 16.539062 8.042969 16.621094 C 8.039062 16.707031 8.023438 17.046875 8.019531 17.132812 C 8.0625 17.226562 9.042969 19.300781 9.082031 19.375 L 9.667969 19.894531 C 9.714844 19.640625 9.816406 19.066406 9.816406 19.066406 C 9.816406 19.066406 10.410156 19.121094 10.59375 19.140625 C 10.679688 18.945312 10.976562 18.269531 10.976562 18.269531 C 10.976562 18.269531 11.367188 18.277344 11.542969 18.28125 C 11.589844 18.054688 11.722656 17.398438 11.722656 17.398438 C 11.722656 17.398438 11.933594 17.386719 11.984375 17.386719 C 12.027344 17.234375 12.085938 17.03125 12.105469 16.957031 C 12.078125 16.847656 11.675781 15.292969 11.675781 15.292969 L 11.691406 15.238281 L 11.945312 14.253906 C 11.40625 12.992188 11.109375 11.597656 11.109375 10.132812 C 11.109375 8.425781 11.515625 6.816406 12.226562 5.40625 Z M 11.171875 5.40625 "/>
<path style=" stroke:none;fill-rule:nonzero;fill:rgb(100%,100%,100%);fill-opacity:1;" d="M 11.910156 2.726562 L 11.304688 4.300781 L 11.910156 4.300781 Z M 11.910156 2.726562 "/>
<path style=" stroke:none;fill-rule:nonzero;fill:rgb(80%,0%,0%);fill-opacity:1;" d="M 21.074219 4.5 L 21.074219 7.738281 L 21.679688 7.738281 L 21.679688 13.859375 L 19.878906 13.859375 L 19.878906 7.738281 L 20.480469 7.738281 L 20.480469 4.5 L 14.804688 4.5 L 14.804688 7.738281 L 15.757812 7.738281 L 15.757812 15.015625 L 15.765625 15.023438 L 17.835938 17.421875 L 23.722656 17.421875 L 25.792969 15.023438 L 25.796875 15.015625 L 25.796875 7.738281 L 26.75 7.738281 L 26.75 4.5 Z M 21.074219 4.5 "/>
<path style="fill-rule:nonzero;fill:rgb(80%,0%,0%);fill-opacity:1;stroke-width:1;stroke-linecap:butt;stroke-linejoin:miter;stroke:rgb(80%,0%,0%);stroke-opacity:1;stroke-miterlimit:4;" d="M 47.657939 42.563691 L 45.972836 42.772953 C 45.972836 42.772953 45.234914 43.742163 44.970584 44.072575 C 44.673213 43.830273 43.285481 42.662815 43.285481 42.662815 L 41.996872 43.819259 C 41.996872 43.819259 41.974844 44.854551 41.963831 45.306115 C 41.765583 45.394225 41.347061 45.570445 40.939552 45.757679 C 40.939552 45.251046 40.928538 44.678331 40.928538 44.480084 C 41.104758 44.281836 41.556322 43.775204 41.556322 43.775204 C 41.556322 43.775204 41.490239 42.222265 41.490239 41.935908 C 41.633418 41.671578 42.911013 39.4468 43.043178 39.204498 C 43.263453 39.083346 44.375842 38.433535 44.375842 38.433535 C 44.375842 38.433535 44.530034 37.640545 44.618144 37.211009 L 44.783351 37.211009 C 44.970584 37.409256 45.345052 37.805751 45.345052 37.805751 C 45.345052 37.805751 46.226152 38.21326 46.545551 38.356439 C 46.677716 38.763948 47.470706 41.142918 47.470706 41.142918 C 47.470706 41.142918 48.197613 41.396234 48.472957 41.484344 C 48.682218 42.00199 49.199864 43.257558 49.199864 43.257558 C 49.199864 43.257558 49.563318 44.491098 49.937786 45.757679 C 49.343043 45.096854 48.814383 44.524139 48.781342 44.491098 C 48.726273 44.38096 47.657939 42.563691 47.657939 42.563691 " transform="matrix(0.35467,0,0,-0.35467,-9.355981,37.767952)"/>
<path style="fill-rule:nonzero;fill:rgb(80%,0%,0%);fill-opacity:1;stroke-width:1;stroke-linecap:butt;stroke-linejoin:miter;stroke:rgb(80%,0%,0%);stroke-opacity:1;stroke-miterlimit:4;" d="M 61.039646 56.297837 C 61.039646 56.297837 60.488958 56.27581 60.367807 56.264796 C 60.246656 55.65904 59.850161 53.72062 59.850161 53.72062 C 59.850161 53.72062 58.517497 53.742647 58.054919 53.753661 C 57.823631 53.225001 56.953544 51.242526 56.953544 51.242526 C 56.953544 51.242526 55.576826 51.374691 54.993097 51.42976 C 54.871946 50.768935 54.552547 48.995721 54.552547 48.995721 L 53.418131 48.995721 L 53.252924 49.1389 L 51.997357 50.273316 L 51.865192 48.841529 L 52.195604 48.940653 L 53.803612 46.870068 L 54.871946 45.251046 C 54.871946 45.251046 54.982083 44.7334 55.059179 44.38096 C 55.224386 44.369946 55.268441 44.369946 55.411619 44.358933 C 55.775073 44.854551 56.557049 45.944913 56.601104 45.999981 C 56.601104 45.999981 57.283957 46.67182 57.537273 46.925136 L 57.537273 47.508865 C 57.394094 47.740154 56.601104 48.995721 56.601104 48.995721 L 57.966809 50.207234 C 57.966809 50.207234 58.638648 49.964931 58.958047 49.84378 C 59.156294 50.152165 59.310487 50.383454 59.475693 50.625756 C 59.409611 50.790962 59.178322 51.352664 59.178322 51.352664 C 59.178322 51.352664 60.070436 52.167681 60.257669 52.343901 C 60.334766 52.641272 60.797343 54.502596 60.797343 54.502596 C 60.797343 54.502596 61.799594 55.813232 62.185076 56.330879 C 61.997842 56.573181 61.667429 57.002717 61.348031 57.399212 Z M 61.039646 56.297837 " transform="matrix(0.35467,0,0,-0.35467,-9.355981,37.767952)"/>
<path style=" stroke:none;fill-rule:nonzero;fill:rgb(13.72549%,12.156863%,12.54902%);fill-opacity:1;" d="M 10.46875 10.402344 L 10.0625 10.371094 L 9.996094 11.359375 L 9.992188 11.378906 L 10.121094 12.402344 L 10.527344 12.347656 C 10.527344 12.347656 10.40625 11.410156 10.402344 11.367188 C 10.40625 11.328125 10.46875 10.402344 10.46875 10.402344 "/>
<path style=" stroke:none;fill-rule:nonzero;fill:rgb(13.72549%,12.156863%,12.54902%);fill-opacity:1;" d="M 9.769531 14.96875 C 9.8125 14.847656 10.164062 13.917969 10.164062 13.917969 L 10.164062 13.269531 L 9.757812 13.269531 L 9.757812 13.835938 C 9.730469 13.90625 9.335938 14.949219 9.335938 14.949219 C 9.335938 14.949219 9.679688 16.117188 9.691406 16.15625 C 9.695312 16.203125 9.835938 17.828125 9.835938 17.828125 L 10.242188 17.789062 L 10.09375 16.074219 C 10.09375 16.074219 9.804688 15.09375 9.769531 14.96875 "/>
<path style=" stroke:none;fill-rule:nonzero;fill:rgb(13.72549%,12.156863%,12.54902%);fill-opacity:1;" d="M 6.808594 17.847656 L 6.398438 17.839844 L 6.363281 19.519531 L 6.363281 19.605469 C 6.363281 19.605469 6.460938 19.714844 6.5 19.761719 L 6.5 20.378906 L 6.910156 20.378906 L 6.910156 19.59375 C 6.910156 19.59375 6.8125 19.484375 6.773438 19.441406 C 6.777344 19.285156 6.808594 17.847656 6.808594 17.847656 "/>
<path style=" stroke:none;fill-rule:nonzero;fill:rgb(13.72549%,12.156863%,12.54902%);fill-opacity:1;" d="M 20.777344 19.074219 C 16.0625 19.074219 12.242188 15.070312 12.242188 10.132812 C 12.242188 5.195312 16.0625 1.191406 20.777344 1.191406 C 25.492188 1.191406 29.3125 5.195312 29.3125 10.132812 C 29.3125 15.070312 25.492188 19.074219 20.777344 19.074219 M 11.109375 10.132812 C 11.109375 11.597656 11.40625 12.992188 11.945312 14.253906 L 11.691406 15.238281 L 11.675781 15.292969 C 11.675781 15.292969 12.078125 16.847656 12.105469 16.957031 C 12.085938 17.03125 12.027344 17.234375 11.984375 17.386719 C 11.933594 17.390625 11.722656 17.398438 11.722656 17.398438 C 11.722656 17.398438 11.589844 18.054688 11.542969 18.28125 C 11.367188 18.277344 10.976562 18.269531 10.976562 18.269531 C 10.976562 18.269531 10.679688 18.945312 10.59375 19.140625 C 10.410156 19.121094 9.816406 19.066406 9.816406 19.066406 C 9.816406 19.066406 9.714844 19.640625 9.667969 19.894531 L 9.082031 19.375 C 9.042969 19.300781 8.0625 17.226562 8.019531 17.132812 C 8.023438 17.046875 8.039062 16.707031 8.042969 16.621094 C 8.09375 16.539062 8.527344 15.800781 8.527344 15.800781 L 8.503906 15.421875 C 8.503906 15.421875 8.316406 15.203125 8.25 15.125 L 8.25 14.875 L 7.84375 14.875 L 7.84375 15.289062 C 7.84375 15.289062 8.042969 15.523438 8.105469 15.597656 C 8.109375 15.636719 8.109375 15.652344 8.113281 15.691406 C 8.050781 15.792969 7.640625 16.492188 7.640625 16.492188 L 7.605469 17.21875 L 8.707031 19.550781 C 8.6875 19.769531 8.621094 20.53125 8.613281 20.644531 C 8.523438 20.742188 7.621094 21.726562 7.621094 21.726562 C 7.621094 21.726562 7.425781 22.0625 7.335938 22.210938 C 7.257812 22.203125 7.222656 22.199219 7.164062 22.191406 C 7.085938 22.089844 6.78125 21.695312 6.78125 21.695312 L 6.464844 21.695312 C 6.464844 21.695312 6.15625 21.957031 6.007812 22.082031 C 5.976562 22.050781 5.96875 22.046875 5.941406 22.023438 C 5.941406 21.890625 5.929688 21.410156 5.929688 21.410156 C 5.929688 21.410156 5.351562 21.15625 5.171875 21.082031 C 5.214844 12.492188 8.847656 7.75 10.53125 6.015625 C 10.449219 6.328125 10.378906 6.59375 10.371094 6.617188 C 10.34375 6.667969 9.796875 7.605469 9.796875 7.605469 C 9.78125 7.640625 9.089844 9.597656 9.089844 9.597656 L 9.078125 9.625 C 9.078125 9.625 9 10.785156 8.992188 10.910156 C 8.914062 11.007812 7.894531 12.296875 7.894531 12.296875 L 7.894531 13.460938 C 7.894531 13.460938 8.09375 13.886719 8.132812 13.96875 C 8.128906 14.054688 8.113281 14.402344 8.113281 14.402344 L 8.519531 14.421875 L 8.542969 13.878906 C 8.542969 13.878906 8.339844 13.4375 8.304688 13.363281 L 8.304688 12.453125 C 8.390625 12.34375 9.386719 11.078125 9.386719 11.078125 C 9.386719 11.078125 9.476562 9.777344 9.480469 9.714844 C 9.5 9.660156 10.160156 7.796875 10.164062 7.792969 C 10.164062 7.792969 10.734375 6.816406 10.734375 6.816406 L 10.75 6.789062 L 11.101562 5.464844 C 11.125 5.445312 11.148438 5.425781 11.171875 5.40625 L 12.226562 5.40625 C 11.515625 6.816406 11.109375 8.425781 11.109375 10.132812 M 12.402344 17.410156 C 12.511719 17.550781 12.632812 17.703125 12.699219 17.789062 C 12.5625 17.972656 12.207031 18.4375 12.207031 18.4375 C 12.207031 18.4375 12.042969 19.097656 12.015625 19.203125 C 11.949219 19.265625 11.632812 19.554688 11.632812 19.554688 C 11.632812 19.554688 11.714844 19.753906 11.738281 19.8125 C 11.679688 19.898438 11.625 19.980469 11.554688 20.089844 C 11.441406 20.046875 11.203125 19.960938 11.203125 19.960938 L 10.71875 20.390625 C 10.71875 20.390625 11 20.835938 11.050781 20.917969 L 11.050781 21.125 C 10.960938 21.214844 10.71875 21.453125 10.71875 21.453125 C 10.703125 21.472656 10.425781 21.859375 10.296875 22.035156 C 10.246094 22.03125 10.230469 22.03125 10.171875 22.027344 C 10.144531 21.902344 10.105469 21.71875 10.105469 21.71875 L 9.726562 21.144531 L 9.15625 20.410156 L 9.039062 20.445312 L 9.085938 19.9375 L 9.53125 20.339844 L 9.589844 20.390625 L 9.992188 20.390625 C 9.992188 20.390625 10.105469 19.761719 10.148438 19.527344 C 10.355469 19.546875 10.84375 19.59375 10.84375 19.59375 C 10.84375 19.59375 11.152344 18.890625 11.234375 18.703125 C 11.398438 18.707031 11.871094 18.714844 11.871094 18.714844 C 11.871094 18.714844 12.011719 18.03125 12.054688 17.8125 C 12.097656 17.808594 12.292969 17.800781 12.292969 17.800781 Z M 8.09375 22.425781 C 8.09375 22.425781 7.910156 22.871094 7.835938 23.054688 C 7.738281 23.085938 7.480469 23.175781 7.480469 23.175781 C 7.480469 23.175781 7.199219 24.019531 7.152344 24.164062 C 7.039062 24.214844 6.726562 24.359375 6.726562 24.359375 C 6.726562 24.359375 6.59375 24.5 6.527344 24.570312 L 6.46875 24.570312 C 6.4375 24.417969 6.382812 24.136719 6.382812 24.136719 C 6.382812 24.136719 5.988281 23.90625 5.910156 23.863281 C 5.863281 23.777344 5.410156 22.988281 5.359375 22.894531 C 5.359375 22.792969 5.382812 22.242188 5.382812 22.242188 C 5.382812 22.242188 5.222656 22.0625 5.160156 21.992188 C 5.160156 21.921875 5.164062 21.71875 5.164062 21.539062 C 5.308594 21.605469 5.457031 21.667969 5.527344 21.699219 C 5.53125 21.859375 5.539062 22.226562 5.539062 22.226562 L 5.996094 22.636719 C 5.996094 22.636719 6.488281 22.222656 6.59375 22.136719 C 6.6875 22.253906 6.949219 22.597656 6.949219 22.597656 L 7.546875 22.671875 C 7.546875 22.671875 7.925781 22.027344 7.945312 21.992188 C 7.957031 21.976562 8.144531 21.773438 8.355469 21.539062 C 8.222656 21.992188 8.09375 22.425781 8.09375 22.425781 M 11.910156 2.726562 L 11.910156 4.300781 L 11.304688 4.300781 Z M 20.777344 0 C 17.515625 0 14.625 1.703125 12.875 4.300781 L 12.195312 4.300781 L 12.195312 1.972656 L 11.867188 1.972656 L 11.082031 3.285156 L 10.652344 2.796875 L 10.5625 3.117188 L 10.855469 4.300781 L 10.246094 4.300781 L 10.246094 5.40625 L 10.550781 5.40625 C 8.976562 6.917969 4.761719 11.847656 4.761719 21.21875 L 4.75 22.160156 C 4.75 22.160156 4.902344 22.335938 4.96875 22.402344 C 4.960938 22.535156 4.945312 23.007812 4.945312 23.007812 L 5.617188 24.183594 C 5.617188 24.183594 5.914062 24.355469 6.019531 24.417969 C 6.046875 24.542969 6.132812 25 6.132812 25 L 6.695312 25 C 6.695312 25 6.917969 24.765625 6.960938 24.71875 C 7.023438 24.691406 7.476562 24.484375 7.476562 24.484375 C 7.476562 24.484375 7.746094 23.679688 7.796875 23.519531 C 7.898438 23.484375 8.136719 23.402344 8.136719 23.402344 L 8.476562 22.574219 C 8.484375 22.554688 8.859375 21.289062 8.972656 20.910156 C 8.988281 20.90625 8.992188 20.90625 9.011719 20.898438 C 9.125 21.046875 9.402344 21.402344 9.402344 21.402344 C 9.402344 21.402344 9.667969 21.808594 9.726562 21.894531 C 9.738281 21.960938 9.839844 22.429688 9.839844 22.429688 L 10.488281 22.480469 C 10.488281 22.480469 11.019531 21.742188 11.023438 21.738281 C 11.023438 21.738281 11.394531 21.375 11.394531 21.375 L 11.457031 21.3125 L 11.457031 20.789062 C 11.457031 20.789062 11.335938 20.59375 11.257812 20.472656 C 11.273438 20.460938 11.273438 20.457031 11.289062 20.445312 C 11.402344 20.488281 11.710938 20.601562 11.710938 20.601562 L 12.203125 19.863281 C 12.203125 19.863281 12.140625 19.710938 12.125 19.671875 C 12.21875 19.585938 12.378906 19.4375 12.378906 19.4375 C 12.378906 19.4375 12.5625 18.710938 12.582031 18.632812 C 12.628906 18.566406 13.222656 17.785156 13.222656 17.785156 L 12.503906 16.863281 C 12.414062 16.515625 12.125 15.382812 12.097656 15.292969 C 12.109375 15.257812 12.15625 15.066406 12.21875 14.839844 C 13.835938 18.0625 17.066406 20.265625 20.777344 20.265625 C 26.109375 20.265625 30.449219 15.71875 30.449219 10.132812 C 30.449219 4.546875 26.109375 0 20.777344 0 "/>
</g>
</svg>
