<?xml version="1.0" encoding="UTF-8"?>
<svg xmlns="http://www.w3.org/2000/svg" xmlns:xlink="http://www.w3.org/1999/xlink" width="35pt" height="25pt" viewBox="0 0 35 25" version="1.1">
<g id="surface1">
<path style="fill-rule:nonzero;fill:rgb(88.627451%,82.352941%,63.921569%);fill-opacity:1;stroke-width:0.778109;stroke-linecap:butt;stroke-linejoin:miter;stroke:rgb(88.627451%,82.352941%,63.921569%);stroke-opacity:1;stroke-miterlimit:4;" d="M 186.09375 346.59375 L 294.53125 346.75 L 294.53125 392.6875 L 272.71875 392.53125 L 287.59375 451.46875 L 315.75 346.90625 L 359.0625 346.90625 L 385.03125 452.09375 L 401.28125 393 L 381.1875 393 L 380.71875 346.75 L 465.15625 346.59375 L 465.3125 392.53125 L 443.21875 392.6875 L 404.53125 538.71875 L 343.125 538.71875 L 325.3125 468.625 L 306.75 538.71875 L 244.71875 538.5625 L 208.53125 393 L 186.25 392.84375 Z M 186.09375 346.59375 " transform="matrix(0.125,0,0,0.125,-23.214844,-42.886719)"/>
<path style="fill:none;stroke-width:0.778109;stroke-linecap:butt;stroke-linejoin:miter;stroke:rgb(23.137255%,24.313725%,44.705882%);stroke-opacity:1;stroke-miterlimit:4;" d="M 263.59375 385.6875 L 286.6875 479.0625 L 321 353.40625 L 353.15625 353.28125 L 384.5625 478.71875 L 409.8125 385.53125 L 387.375 385.53125 L 387.375 353.46875 L 457.8125 353.34375 L 457.8125 385.6875 L 437.21875 385.53125 L 398.71875 531.875 L 348.125 531.78125 L 324.96875 440.84375 L 300.71875 531.9375 C 300.71875 531.9375 249.3125 532.21875 250.3125 531.875 C 251.3125 531.5625 213.4375 385.53125 213.4375 385.53125 L 192.5 385.6875 L 192.5 353.46875 L 287.21875 353.28125 L 286.6875 385.34375 Z M 263.59375 385.6875 " transform="matrix(0.125,0,0,0.125,-23.214844,-42.886719)"/>
<path style="fill-rule:nonzero;fill:rgb(23.137255%,24.313725%,44.705882%);fill-opacity:1;stroke-width:1.01702;stroke-linecap:butt;stroke-linejoin:miter;stroke:rgb(23.137255%,24.313725%,44.705882%);stroke-opacity:1;stroke-miterlimit:4;" d="M 255.84375 531.09375 L 250.8125 530.8125 L 249.5625 525.21875 C 248 518 234.6875 465.34375 223.125 420.46875 L 214.09375 385.375 L 203.5625 385.21875 L 193 385.09375 L 193 354.09375 L 287 354.09375 L 286.0625 369.34375 L 286.0625 384.59375 L 282.375 384.6875 C 280.34375 384.71875 275.125 384.875 270.78125 385.0625 L 262.875 385.375 L 274.46875 432.40625 C 280.84375 458.28125 286.21875 479.78125 286.375 480.21875 C 286.65625 480.875 286.71875 480.875 286.96875 480.21875 C 287.125 479.78125 294.96875 451.3125 304.375 416.90625 L 321.46875 354.0625 L 337.0625 354.21875 L 352.625 354.09375 L 353.125 356 C 353.40625 357.0625 360.40625 385.03125 368.65625 418.15625 C 376.9375 451.3125 383.90625 478.875 384.15625 479.4375 C 384.5 480.28125 384.65625 480.3125 384.90625 479.6875 C 385.0625 479.28125 390.78125 458.3125 397.625 433.09375 C 404.4375 407.90625 410.1875 386.78125 410.375 386.1875 C 410.71875 385.125 410.6875 385.125 399.5 385.125 L 388.25 385.125 L 388.25 354.09375 L 457.4375 354.09375 L 457.4375 385.125 L 447.03125 385.125 C 437.5625 385.125 436.625 385.1875 436.375 386 C 436.25 386.5 427.59375 419.34375 417.1875 458.96875 L 398.28125 531.0625 L 348.625 531.0625 L 348.125 529.15625 C 347.875 528.09375 342.8125 508.25 336.90625 485.03125 C 324.125 434.75 325.1875 438.84375 324.90625 439.15625 C 324.75 439.28125 319.1875 459.9375 312.53125 485.03125 C 305.84375 510.09375 300.21875 530.78125 300.03125 530.96875 C 299.625 531.40625 262.65625 531.5 255.84375 531.09375 Z M 255.84375 531.09375 " transform="matrix(0.125,0,0,0.125,-23.214844,-42.886719)"/>
<path style="fill-rule:nonzero;fill:rgb(23.137255%,24.313725%,44.705882%);fill-opacity:1;stroke-width:0.470156;stroke-linecap:butt;stroke-linejoin:miter;stroke:rgb(23.137255%,24.313725%,44.705882%);stroke-opacity:1;stroke-miterlimit:4;" d="M 250.03125 531.6875 C 250 531.375 249.8125 530.5 249.65625 529.75 C 248.59375 524.09375 236.9375 477.84375 222.59375 422.1875 C 217.6875 403.125 213.5625 387.125 213.4375 386.625 L 213.1875 385.71875 L 202.75 385.875 L 192.3125 386.0625 L 192.3125 375.40625 L 287.0625 375.40625 L 287 380.53125 L 286.9375 385.625 L 275.5625 385.8125 C 269.3125 385.875 264.15625 386 264.09375 386.0625 C 264 386.15625 286.53125 477.4375 286.6875 477.625 C 286.8125 477.75 286 480.59375 300.90625 426.0625 C 308.28125 399.03125 314.4375 376.59375 314.5625 376.1875 L 314.8125 375.40625 L 358.96875 375.40625 L 359.1875 376.28125 C 359.3125 376.78125 365.0625 399.6875 371.9375 427.1875 C 378.8125 454.71875 384.5 477.125 384.625 477.03125 C 384.8125 476.8125 409.28125 386.59375 409.28125 386.09375 C 409.28125 385.8125 407.53125 385.75 398.25 385.75 L 387.1875 385.75 L 387.1875 380.59375 C 387.1875 377.28125 387.28125 375.40625 387.4375 375.40625 C 387.5625 375.40625 387.6875 377.28125 387.71875 380.40625 L 387.75 385.40625 L 387.84375 380.40625 L 387.90625 375.40625 L 417.03125 375.40625 L 417.03125 463.3125 L 408.21875 496.875 C 403.375 515.34375 399.28125 530.84375 399.15625 531.3125 L 398.9375 532.21875 L 384.0625 532.1875 C 375.90625 532.15625 364.40625 532.0625 358.53125 532 L 347.84375 531.84375 L 336.59375 487.65625 C 330.4375 463.34375 325.28125 443.1875 325.15625 442.875 C 325 442.4375 324.90625 442.375 324.8125 442.625 C 324.71875 442.84375 319.375 462.875 312.90625 487.1875 C 306.4375 511.5 301.09375 531.5625 301 531.78125 C 300.875 532.1875 299.46875 532.21875 275.5 532.21875 L 250.15625 532.21875 Z M 261.15625 531.65625 C 260.90625 531.4375 250.59375 531.28125 250.59375 531.5 C 250.59375 531.65625 252.625 531.75 255.9375 531.75 C 258.875 531.75 261.21875 531.6875 261.15625 531.65625 Z M 301.0625 529.625 C 301.375 528.53125 301.59375 527.53125 301.53125 527.40625 C 301.5 527.28125 301.21875 528.09375 300.9375 529.21875 C 300.625 530.34375 300.375 531.28125 300.34375 531.3125 C 300.34375 531.3125 298.9375 531.40625 297.28125 531.5 L 294.21875 531.65625 L 297.375 531.625 L 300.5 531.625 Z M 301.75 526.40625 C 301.6875 526.3125 301.625 526.4375 301.625 526.6875 C 301.65625 526.96875 301.71875 527.03125 301.78125 526.84375 C 301.84375 526.6875 301.84375 526.46875 301.75 526.40625 Z M 302 525.4375 C 301.90625 525.375 301.875 525.5 301.875 525.75 C 301.875 526.03125 301.9375 526.09375 302 525.90625 C 302.09375 525.71875 302.0625 525.53125 302 525.4375 Z M 302.46875 523.8125 C 302.375 523.71875 302.34375 523.875 302.34375 524.125 C 302.34375 524.375 302.40625 524.4375 302.5 524.25 C 302.5625 524.09375 302.53125 523.875 302.46875 523.8125 Z M 302.46875 523.8125 " transform="matrix(0.125,0,0,0.125,-23.214844,-42.886719)"/>
</g>
</svg>
