<?xml version="1.0" encoding="UTF-8"?>
<svg xmlns="http://www.w3.org/2000/svg" xmlns:xlink="http://www.w3.org/1999/xlink" width="35pt" height="25pt" viewBox="0 0 35 25" version="1.1">
<g id="surface1">
<path style=" stroke:none;fill-rule:nonzero;fill:rgb(66.27451%,1.960784%,20%);fill-opacity:1;" d="M 5.042969 10.722656 L 5.042969 10.839844 C 5.117188 10.863281 5.140625 10.886719 5.144531 10.988281 L 5.144531 13.617188 C 5.144531 15.078125 6.335938 15.464844 7.589844 16.445312 C 8.847656 15.464844 10.035156 15.078125 10.035156 13.617188 L 10.035156 10.960938 C 10.046875 10.878906 10.070312 10.859375 10.132812 10.839844 L 10.132812 10.722656 Z M 5.042969 10.722656 "/>
<path style=" stroke:none;fill-rule:nonzero;fill:rgb(100%,100%,100%);fill-opacity:1;" d="M 8.085938 15.003906 C 8.085938 15.003906 8.289062 14.914062 8.398438 14.578125 C 8.5 14.785156 8.472656 14.996094 8.472656 14.996094 C 8.382812 15.015625 8.085938 15.003906 8.085938 15.003906 "/>
<path style=" stroke:none;fill-rule:nonzero;fill:rgb(100%,100%,100%);fill-opacity:1;" d="M 8.9375 14.328125 C 8.339844 14.410156 8.238281 13.164062 8.238281 13.164062 C 8.238281 13.164062 8.4375 13.800781 8.863281 13.777344 C 9.300781 13.757812 9.175781 13.078125 9.175781 13.078125 C 9.175781 13.078125 9.605469 14.234375 8.9375 14.328125 "/>
<path style=" stroke:none;fill-rule:nonzero;fill:rgb(100%,100%,100%);fill-opacity:1;" d="M 6.207031 14.042969 C 6 14.113281 5.632812 14.175781 5.632812 14.175781 C 5.632812 14.175781 5.972656 13.921875 6.226562 13.128906 L 6.472656 13.347656 L 6.425781 13.5 C 6.425781 13.5 6.542969 13.667969 6.570312 13.777344 C 6.570312 13.777344 6.730469 13.472656 6.554688 13.140625 L 6.523438 13.234375 L 6.429688 13.144531 L 6.265625 12.996094 C 6.265625 12.996094 6.339844 12.738281 6.570312 12.417969 L 6.589844 12.441406 L 6.78125 12.660156 L 6.722656 12.757812 C 6.722656 12.757812 6.851562 12.890625 6.960938 13.058594 C 6.960938 13.058594 7.019531 12.78125 6.9375 12.484375 L 6.855469 12.5625 L 6.644531 12.320312 C 6.941406 12.023438 7.230469 11.84375 7.570312 11.730469 C 7.550781 11.753906 7.53125 11.777344 7.511719 11.804688 C 7.394531 11.96875 7.277344 12.265625 7.375 12.746094 C 7.386719 12.820312 7.414062 12.925781 7.4375 13.035156 C 7.488281 13.253906 7.546875 13.503906 7.566406 13.660156 C 7.609375 13.984375 7.574219 14.199219 7.464844 14.3125 C 7.390625 14.390625 7.269531 14.425781 7.097656 14.417969 C 7.097656 14.390625 7.101562 14.367188 7.101562 14.339844 C 7.101562 14.109375 7.054688 13.9375 7.050781 13.929688 L 7.007812 13.773438 L 6.9375 13.917969 C 6.828125 14.152344 6.449219 14.726562 5.953125 14.839844 C 5.953125 14.839844 5.953125 14.839844 5.953125 14.84375 C 6.199219 14.460938 6.207031 14.042969 6.207031 14.042969 "/>
<path style=" stroke:none;fill-rule:nonzero;fill:rgb(100%,100%,100%);fill-opacity:1;" d="M 9.652344 11.980469 L 9.066406 12.007812 C 9.066406 12.074219 9.058594 12.144531 9.035156 12.210938 C 9.089844 12.449219 9.054688 12.582031 9.054688 12.582031 C 8.957031 12.351562 8.878906 12.289062 8.878906 12.289062 C 8.34375 12.050781 8.042969 12.589844 8.074219 12.9375 C 8.097656 13.226562 8.203125 13.605469 8.285156 14.203125 C 8.351562 14.707031 8.097656 14.921875 7.804688 14.972656 C 7.800781 14.972656 7.792969 14.976562 7.785156 14.976562 C 7.785156 14.976562 7.785156 14.976562 7.78125 14.976562 C 7.734375 14.980469 7.683594 14.984375 7.632812 14.984375 C 7.628906 14.984375 7.628906 14.984375 7.625 14.984375 C 7.621094 14.984375 7.613281 14.980469 7.609375 14.980469 C 7.585938 14.980469 7.5625 14.976562 7.539062 14.976562 C 7.3125 14.945312 6.804688 14.851562 6.277344 14.839844 C 6.585938 14.65625 6.828125 14.34375 6.964844 14.125 C 6.972656 14.183594 6.976562 14.261719 6.976562 14.34375 C 6.976562 14.382812 6.976562 14.425781 6.972656 14.472656 L 6.96875 14.53125 L 7.027344 14.535156 C 7.269531 14.558594 7.441406 14.511719 7.554688 14.394531 C 7.691406 14.253906 7.734375 14.015625 7.6875 13.644531 C 7.667969 13.484375 7.609375 13.230469 7.558594 13.007812 C 7.53125 12.898438 7.507812 12.792969 7.492188 12.71875 C 7.40625 12.285156 7.507812 12.019531 7.613281 11.875 C 7.691406 11.757812 7.804688 11.675781 7.925781 11.636719 C 7.925781 11.636719 7.929688 11.636719 7.929688 11.632812 L 8.128906 11.019531 L 8.191406 11.019531 L 8.058594 11.609375 C 8.089844 11.605469 8.121094 11.601562 8.152344 11.59375 L 8.328125 11.050781 L 8.390625 11.050781 L 8.277344 11.578125 C 8.453125 11.554688 8.648438 11.539062 8.863281 11.519531 C 8.898438 11.535156 8.9375 11.574219 8.96875 11.632812 L 9.53125 11.457031 L 9.554688 11.519531 L 9.015625 11.726562 C 9.019531 11.738281 9.023438 11.75 9.027344 11.761719 L 9.617188 11.6875 L 9.625 11.753906 L 9.054688 11.867188 C 9.054688 11.878906 9.058594 11.886719 9.058594 11.898438 L 9.65625 11.917969 Z M 9.652344 11.980469 "/>
<path style=" stroke:none;fill-rule:nonzero;fill:rgb(66.27451%,1.960784%,20%);fill-opacity:1;" d="M 7.957031 12.246094 C 8.074219 12.164062 8.277344 12.097656 8.464844 12.113281 C 8.511719 12.117188 8.550781 12.105469 8.5 12.078125 C 8.359375 12.003906 8.03125 12.027344 7.914062 12.105469 C 7.726562 12.234375 7.761719 12.460938 7.765625 12.464844 C 7.800781 12.402344 7.863281 12.308594 7.957031 12.246094 "/>
<path style=" stroke:none;fill-rule:nonzero;fill:rgb(66.27451%,1.960784%,20%);fill-opacity:1;" d="M 10.730469 10.722656 L 34.910156 10.722656 L 34.910156 10.839844 L 10.730469 10.839844 Z M 10.730469 10.722656 "/>
<path style=" stroke:none;fill-rule:nonzero;fill:rgb(40.784314%,45.098039%,47.843137%);fill-opacity:1;" d="M 8.507812 16.042969 L 7.589844 16.695312 L 6.671875 16.042969 C 6.023438 15.597656 5.464844 15.214844 5.171875 14.632812 C 5.414062 15.722656 6.476562 16.128906 7.589844 17 C 8.703125 16.128906 9.769531 15.722656 10.007812 14.632812 C 9.714844 15.214844 9.160156 15.597656 8.507812 16.042969 "/>
<path style=" stroke:none;fill-rule:nonzero;fill:rgb(40.784314%,45.098039%,47.843137%);fill-opacity:1;" d="M 1.269531 7.03125 C 0.964844 7.03125 0.820312 7.15625 0.917969 7.484375 L 1.492188 9.570312 L 1.535156 9.570312 L 2.511719 6.949219 L 2.660156 6.949219 L 3.621094 9.535156 L 3.664062 9.535156 C 3.882812 8.859375 4.085938 8.167969 4.296875 7.480469 C 4.390625 7.179688 4.308594 7.035156 3.914062 7.03125 L 3.914062 6.90625 L 4.980469 6.90625 L 4.980469 7.03125 C 4.835938 7.03125 4.640625 7.140625 4.558594 7.410156 L 3.660156 10.296875 L 3.433594 10.296875 L 2.460938 7.664062 L 1.492188 10.296875 L 1.285156 10.296875 L 0.550781 7.703125 C 0.417969 7.230469 0.257812 7.03125 0 7.03125 L 0 6.90625 L 1.269531 6.90625 Z M 1.269531 7.03125 "/>
<path style=" stroke:none;fill-rule:nonzero;fill:rgb(40.784314%,45.098039%,47.843137%);fill-opacity:1;" d="M 5.644531 9.011719 L 5.261719 7.839844 L 5.253906 7.839844 L 4.824219 9.011719 Z M 4.769531 9.148438 L 4.605469 9.628906 C 4.558594 9.769531 4.628906 9.890625 4.785156 9.890625 L 4.785156 9.984375 L 4.128906 9.984375 L 4.128906 9.890625 C 4.226562 9.890625 4.332031 9.828125 4.390625 9.710938 C 4.542969 9.390625 4.964844 8.214844 5.265625 7.417969 L 5.464844 7.417969 C 5.710938 8.140625 6.078125 9.25 6.199219 9.570312 C 6.28125 9.773438 6.339844 9.890625 6.492188 9.890625 L 6.492188 9.984375 L 5.652344 9.984375 L 5.652344 9.890625 C 5.878906 9.890625 5.902344 9.769531 5.84375 9.613281 L 5.691406 9.148438 Z M 4.769531 9.148438 "/>
<path style=" stroke:none;fill-rule:nonzero;fill:rgb(40.784314%,45.098039%,47.843137%);fill-opacity:1;" d="M 7.730469 7.996094 C 7.699219 7.746094 7.5625 7.542969 7.273438 7.542969 C 7.066406 7.542969 6.878906 7.652344 6.878906 7.917969 C 6.878906 8.171875 7.132812 8.320312 7.492188 8.59375 C 7.875 8.878906 7.996094 9.0625 7.996094 9.359375 C 7.996094 9.789062 7.554688 10.027344 7.125 10.027344 C 6.894531 10.027344 6.695312 9.984375 6.507812 9.910156 C 6.492188 9.902344 6.484375 9.890625 6.484375 9.859375 L 6.484375 9.339844 L 6.578125 9.339844 C 6.617188 9.742188 6.878906 9.898438 7.15625 9.898438 C 7.410156 9.898438 7.621094 9.707031 7.621094 9.441406 C 7.621094 9.207031 7.496094 9.019531 6.953125 8.660156 C 6.761719 8.53125 6.519531 8.390625 6.519531 7.996094 C 6.519531 7.675781 6.878906 7.417969 7.292969 7.417969 C 7.449219 7.417969 7.652344 7.4375 7.796875 7.488281 C 7.820312 7.496094 7.824219 7.507812 7.824219 7.527344 L 7.824219 8 L 7.730469 8 Z M 7.730469 7.996094 "/>
<path style=" stroke:none;fill-rule:nonzero;fill:rgb(40.784314%,45.098039%,47.843137%);fill-opacity:1;" d="M 8.761719 9.53125 C 8.761719 9.867188 8.75 9.847656 9.074219 9.890625 L 9.074219 9.984375 L 8.105469 9.984375 L 8.105469 9.890625 C 8.429688 9.847656 8.414062 9.867188 8.414062 9.53125 L 8.414062 7.910156 C 8.414062 7.578125 8.429688 7.59375 8.105469 7.554688 L 8.105469 7.460938 L 9.074219 7.460938 L 9.074219 7.554688 C 8.75 7.59375 8.761719 7.578125 8.761719 7.910156 L 8.761719 8.535156 L 10.027344 8.535156 L 10.027344 7.910156 C 10.027344 7.578125 10.042969 7.59375 9.71875 7.554688 L 9.71875 7.460938 L 10.6875 7.460938 L 10.6875 7.554688 C 10.363281 7.59375 10.375 7.578125 10.375 7.910156 L 10.375 9.53125 C 10.375 9.867188 10.363281 9.847656 10.6875 9.890625 L 10.6875 9.984375 L 9.71875 9.984375 L 9.71875 9.890625 C 10.042969 9.847656 10.027344 9.867188 10.027344 9.53125 L 10.027344 8.683594 L 8.761719 8.683594 Z M 8.761719 9.53125 "/>
<path style=" stroke:none;fill-rule:nonzero;fill:rgb(40.784314%,45.098039%,47.843137%);fill-opacity:1;" d="M 11.519531 9.53125 C 11.519531 9.867188 11.503906 9.847656 11.828125 9.890625 L 11.828125 9.984375 L 10.859375 9.984375 L 10.859375 9.890625 C 11.183594 9.847656 11.167969 9.867188 11.167969 9.53125 L 11.167969 7.910156 C 11.167969 7.578125 11.183594 7.59375 10.859375 7.554688 L 10.859375 7.460938 L 11.828125 7.460938 L 11.828125 7.554688 C 11.503906 7.59375 11.519531 7.578125 11.519531 7.910156 Z M 11.519531 9.53125 "/>
<path style=" stroke:none;fill-rule:nonzero;fill:rgb(40.784314%,45.098039%,47.843137%);fill-opacity:1;" d="M 14.28125 9.984375 C 13.710938 9.304688 13.117188 8.597656 12.53125 7.902344 L 12.53125 9.496094 C 12.53125 9.570312 12.542969 9.632812 12.550781 9.691406 C 12.570312 9.820312 12.691406 9.871094 12.929688 9.890625 L 12.929688 9.984375 L 12.046875 9.984375 L 12.046875 9.890625 C 12.21875 9.871094 12.339844 9.820312 12.355469 9.691406 C 12.363281 9.632812 12.378906 9.570312 12.378906 9.496094 L 12.378906 7.800781 C 12.277344 7.671875 12.167969 7.554688 11.960938 7.554688 L 11.960938 7.460938 L 12.617188 7.460938 C 13.152344 8.113281 13.710938 8.777344 14.246094 9.429688 L 14.253906 9.429688 L 14.253906 7.949219 C 14.253906 7.871094 14.238281 7.808594 14.234375 7.753906 C 14.214844 7.625 14.09375 7.574219 13.855469 7.554688 L 13.855469 7.460938 L 14.738281 7.460938 L 14.738281 7.554688 C 14.566406 7.574219 14.445312 7.625 14.425781 7.753906 C 14.421875 7.808594 14.40625 7.871094 14.40625 7.949219 L 14.40625 9.984375 Z M 14.28125 9.984375 "/>
<path style=" stroke:none;fill-rule:nonzero;fill:rgb(40.784314%,45.098039%,47.843137%);fill-opacity:1;" d="M 14.699219 8.707031 C 14.699219 8.152344 15.167969 7.417969 16.140625 7.417969 C 16.492188 7.417969 16.65625 7.484375 16.832031 7.539062 C 16.933594 7.574219 16.972656 7.625 16.972656 7.679688 L 16.972656 8.144531 L 16.878906 8.144531 C 16.871094 7.859375 16.683594 7.542969 16.113281 7.542969 C 15.359375 7.542969 15.113281 8.0625 15.109375 8.679688 C 15.109375 9.25 15.394531 9.898438 16.128906 9.898438 C 16.578125 9.898438 16.617188 9.734375 16.617188 9.453125 L 16.617188 9.234375 C 16.617188 8.898438 16.632812 8.917969 16.234375 8.878906 L 16.234375 8.785156 L 17.277344 8.785156 L 17.277344 8.878906 C 16.953125 8.917969 16.964844 8.898438 16.964844 9.234375 L 16.964844 9.859375 C 16.734375 9.949219 16.433594 10.027344 16.105469 10.027344 C 15.367188 10.027344 14.699219 9.671875 14.699219 8.707031 "/>
<path style=" stroke:none;fill-rule:nonzero;fill:rgb(40.784314%,45.098039%,47.843137%);fill-opacity:1;" d="M 18.414062 9.53125 C 18.414062 9.867188 18.398438 9.847656 18.722656 9.890625 L 18.722656 9.984375 L 17.753906 9.984375 L 17.753906 9.890625 C 18.078125 9.847656 18.066406 9.867188 18.066406 9.53125 L 18.066406 7.578125 L 17.773438 7.578125 C 17.460938 7.578125 17.386719 7.773438 17.269531 8.011719 L 17.179688 8.011719 L 17.277344 7.460938 L 19.203125 7.460938 L 19.300781 8.011719 L 19.210938 8.011719 C 19.089844 7.773438 19.019531 7.578125 18.707031 7.578125 L 18.414062 7.578125 Z M 18.414062 9.53125 "/>
<path style=" stroke:none;fill-rule:nonzero;fill:rgb(40.784314%,45.098039%,47.843137%);fill-opacity:1;" d="M 21.398438 8.753906 C 21.398438 7.894531 20.933594 7.542969 20.496094 7.542969 C 19.882812 7.542969 19.632812 8.09375 19.632812 8.582031 C 19.632812 9.453125 20.078125 9.898438 20.542969 9.898438 C 21.210938 9.898438 21.398438 9.238281 21.398438 8.753906 M 19.222656 8.769531 C 19.222656 7.992188 19.824219 7.417969 20.574219 7.417969 C 21.355469 7.417969 21.8125 8.09375 21.8125 8.648438 C 21.8125 9.40625 21.242188 10.027344 20.445312 10.027344 C 19.757812 10.027344 19.222656 9.46875 19.222656 8.769531 "/>
<path style=" stroke:none;fill-rule:nonzero;fill:rgb(40.784314%,45.098039%,47.843137%);fill-opacity:1;" d="M 24.015625 9.984375 C 23.441406 9.304688 22.847656 8.597656 22.261719 7.902344 L 22.261719 9.496094 C 22.261719 9.570312 22.273438 9.632812 22.28125 9.691406 C 22.300781 9.820312 22.421875 9.871094 22.660156 9.890625 L 22.660156 9.984375 L 21.777344 9.984375 L 21.777344 9.890625 C 21.949219 9.871094 22.070312 9.820312 22.089844 9.691406 C 22.09375 9.632812 22.109375 9.570312 22.109375 9.496094 L 22.109375 7.800781 C 22.007812 7.671875 21.894531 7.554688 21.691406 7.554688 L 21.691406 7.460938 L 22.347656 7.460938 C 22.882812 8.113281 23.441406 8.777344 23.976562 9.429688 L 23.984375 9.429688 L 23.984375 7.949219 C 23.984375 7.871094 23.972656 7.808594 23.964844 7.753906 C 23.945312 7.625 23.824219 7.574219 23.585938 7.554688 L 23.585938 7.460938 L 24.46875 7.460938 L 24.46875 7.554688 C 24.300781 7.574219 24.175781 7.625 24.160156 7.753906 C 24.152344 7.808594 24.136719 7.871094 24.136719 7.949219 L 24.136719 9.984375 Z M 24.015625 9.984375 "/>
<path style=" stroke:none;fill-rule:nonzero;fill:rgb(40.784314%,45.098039%,47.843137%);fill-opacity:1;" d="M 27.125 7.625 C 27.085938 7.289062 26.902344 7.015625 26.511719 7.015625 C 26.230469 7.015625 25.949219 7.160156 25.949219 7.519531 C 25.949219 7.859375 26.285156 8.0625 26.769531 8.425781 C 27.285156 8.808594 27.449219 9.054688 27.449219 9.457031 C 27.449219 10.035156 26.890625 10.355469 26.308594 10.355469 C 26 10.355469 25.734375 10.296875 25.480469 10.199219 C 25.460938 10.191406 25.445312 10.171875 25.445312 10.132812 L 25.445312 9.433594 L 25.574219 9.433594 C 25.625 9.972656 25.980469 10.183594 26.351562 10.183594 C 26.695312 10.183594 27.011719 9.921875 27.011719 9.570312 C 27.011719 9.253906 26.839844 8.996094 26.113281 8.519531 C 25.851562 8.34375 25.527344 8.15625 25.527344 7.625 C 25.527344 7.191406 25.980469 6.847656 26.535156 6.847656 C 26.746094 6.847656 27.023438 6.871094 27.214844 6.9375 C 27.242188 6.949219 27.25 6.96875 27.25 6.992188 L 27.25 7.625 Z M 27.125 7.625 "/>
<path style=" stroke:none;fill-rule:nonzero;fill:rgb(40.784314%,45.098039%,47.843137%);fill-opacity:1;" d="M 28.644531 9.53125 C 28.644531 9.867188 28.628906 9.847656 28.953125 9.890625 L 28.953125 9.984375 L 27.984375 9.984375 L 27.984375 9.890625 C 28.308594 9.847656 28.292969 9.867188 28.292969 9.53125 L 28.292969 7.578125 L 28 7.578125 C 27.6875 7.578125 27.617188 7.773438 27.496094 8.011719 L 27.40625 8.011719 L 27.503906 7.460938 L 29.433594 7.460938 L 29.53125 8.011719 L 29.441406 8.011719 C 29.320312 7.773438 29.25 7.578125 28.9375 7.578125 L 28.644531 7.578125 Z M 28.644531 9.53125 "/>
<path style=" stroke:none;fill-rule:nonzero;fill:rgb(40.784314%,45.098039%,47.843137%);fill-opacity:1;" d="M 30.601562 9.011719 L 30.222656 7.839844 L 30.214844 7.839844 L 29.785156 9.011719 Z M 29.730469 9.148438 L 29.566406 9.628906 C 29.519531 9.769531 29.585938 9.890625 29.746094 9.890625 L 29.746094 9.984375 L 29.089844 9.984375 L 29.089844 9.890625 C 29.1875 9.890625 29.292969 9.828125 29.347656 9.710938 C 29.503906 9.390625 29.925781 8.214844 30.222656 7.417969 L 30.425781 7.417969 C 30.671875 8.140625 31.039062 9.25 31.160156 9.570312 C 31.238281 9.773438 31.296875 9.890625 31.453125 9.890625 L 31.453125 9.984375 L 30.613281 9.984375 L 30.613281 9.890625 C 30.839844 9.890625 30.863281 9.769531 30.804688 9.613281 L 30.648438 9.148438 Z M 29.730469 9.148438 "/>
<path style=" stroke:none;fill-rule:nonzero;fill:rgb(40.784314%,45.098039%,47.843137%);fill-opacity:1;" d="M 32.265625 9.53125 C 32.265625 9.867188 32.25 9.847656 32.578125 9.890625 L 32.578125 9.984375 L 31.605469 9.984375 L 31.605469 9.890625 C 31.929688 9.847656 31.917969 9.867188 31.917969 9.53125 L 31.917969 7.578125 L 31.625 7.578125 C 31.3125 7.578125 31.238281 7.773438 31.121094 8.011719 L 31.03125 8.011719 L 31.128906 7.460938 L 33.054688 7.460938 L 33.152344 8.011719 L 33.0625 8.011719 C 32.945312 7.773438 32.871094 7.578125 32.558594 7.578125 L 32.265625 7.578125 Z M 32.265625 9.53125 "/>
<path style=" stroke:none;fill-rule:nonzero;fill:rgb(40.784314%,45.098039%,47.843137%);fill-opacity:1;" d="M 33.152344 9.890625 C 33.476562 9.847656 33.429688 9.867188 33.429688 9.53125 L 33.429688 7.910156 C 33.429688 7.578125 33.476562 7.59375 33.152344 7.554688 L 33.152344 7.460938 L 34.730469 7.460938 L 34.730469 8.042969 L 34.636719 8.042969 C 34.601562 7.773438 34.527344 7.578125 34.269531 7.578125 L 33.777344 7.578125 L 33.777344 8.605469 L 34.082031 8.605469 C 34.308594 8.605469 34.40625 8.515625 34.414062 8.292969 L 34.507812 8.292969 L 34.507812 9.0625 L 34.414062 9.0625 C 34.40625 8.847656 34.324219 8.722656 34.082031 8.722656 L 33.777344 8.722656 L 33.777344 9.535156 C 33.777344 9.84375 33.917969 9.867188 34.242188 9.867188 C 34.765625 9.867188 34.742188 9.71875 34.90625 9.335938 L 35 9.335938 L 34.890625 9.984375 L 33.152344 9.984375 Z M 33.152344 9.890625 "/>
<path style=" stroke:none;fill-rule:nonzero;fill:rgb(40.784314%,45.098039%,47.843137%);fill-opacity:1;" d="M 17.632812 13.5625 C 17.632812 13.898438 17.621094 13.878906 17.945312 13.917969 L 17.945312 14.011719 L 16.976562 14.011719 L 16.976562 13.917969 C 17.300781 13.878906 17.285156 13.898438 17.285156 13.5625 L 17.285156 11.941406 C 17.285156 11.605469 17.300781 11.625 16.976562 11.582031 L 16.976562 11.492188 L 17.945312 11.492188 L 17.945312 11.582031 C 17.621094 11.625 17.632812 11.605469 17.632812 11.941406 Z M 17.632812 13.5625 "/>
<path style=" stroke:none;fill-rule:nonzero;fill:rgb(40.784314%,45.098039%,47.843137%);fill-opacity:1;" d="M 18.9375 11.582031 C 18.738281 11.582031 18.597656 11.640625 18.714844 11.988281 C 18.855469 12.414062 19.066406 13.03125 19.25 13.578125 C 19.484375 13.027344 19.703125 12.472656 19.925781 11.921875 C 20.015625 11.695312 19.921875 11.582031 19.675781 11.582031 L 19.675781 11.492188 L 20.390625 11.492188 L 20.390625 11.582031 C 20.285156 11.582031 20.230469 11.621094 20.15625 11.800781 C 19.851562 12.539062 19.546875 13.273438 19.246094 14.011719 L 19.0625 14.011719 C 18.839844 13.390625 18.597656 12.695312 18.375 12.082031 C 18.242188 11.695312 18.195312 11.582031 18.023438 11.582031 L 18.023438 11.492188 L 18.9375 11.492188 Z M 18.9375 11.582031 "/>
<path style=" stroke:none;fill-rule:nonzero;fill:rgb(40.784314%,45.098039%,47.843137%);fill-opacity:1;" d="M 20.425781 13.917969 C 20.75 13.878906 20.703125 13.898438 20.703125 13.5625 L 20.703125 11.941406 C 20.703125 11.605469 20.75 11.625 20.425781 11.582031 L 20.425781 11.492188 L 22.003906 11.492188 L 22.003906 12.070312 L 21.910156 12.070312 C 21.875 11.804688 21.800781 11.605469 21.542969 11.605469 L 21.054688 11.605469 L 21.054688 12.636719 L 21.355469 12.636719 C 21.582031 12.636719 21.679688 12.546875 21.6875 12.324219 L 21.78125 12.324219 L 21.78125 13.089844 L 21.6875 13.089844 C 21.679688 12.878906 21.597656 12.75 21.355469 12.75 L 21.054688 12.75 L 21.054688 13.566406 C 21.054688 13.871094 21.191406 13.898438 21.515625 13.898438 C 22.039062 13.898438 22.015625 13.75 22.179688 13.363281 L 22.273438 13.363281 L 22.164062 14.011719 L 20.425781 14.011719 Z M 20.425781 13.917969 "/>
<path style=" stroke:none;fill-rule:nonzero;fill:rgb(40.784314%,45.098039%,47.843137%);fill-opacity:1;" d="M 23.007812 12.78125 L 23.304688 12.78125 C 23.621094 12.78125 23.765625 12.542969 23.765625 12.136719 C 23.765625 11.742188 23.546875 11.605469 23.285156 11.605469 L 23.007812 11.605469 Z M 22.347656 11.492188 L 23.398438 11.492188 C 23.761719 11.492188 24.125 11.679688 24.125 12.101562 C 24.125 12.472656 23.898438 12.730469 23.621094 12.835938 L 23.972656 13.375 C 24.152344 13.636719 24.355469 13.890625 24.480469 13.964844 L 24.480469 14.011719 L 24.109375 14.011719 C 23.898438 14.011719 23.78125 13.621094 23.347656 12.894531 L 23.007812 12.894531 L 23.007812 13.5625 C 23.007812 13.898438 22.992188 13.878906 23.316406 13.917969 L 23.316406 14.011719 L 22.347656 14.011719 L 22.347656 13.917969 C 22.671875 13.878906 22.660156 13.898438 22.660156 13.5625 L 22.660156 11.941406 C 22.660156 11.605469 22.671875 11.625 22.347656 11.582031 Z M 22.347656 11.492188 "/>
<path style=" stroke:none;fill-rule:nonzero;fill:rgb(40.784314%,45.098039%,47.843137%);fill-opacity:1;" d="M 25.71875 12.027344 C 25.691406 11.773438 25.554688 11.574219 25.265625 11.574219 C 25.058594 11.574219 24.871094 11.679688 24.871094 11.949219 C 24.871094 12.199219 25.121094 12.351562 25.480469 12.621094 C 25.863281 12.90625 25.988281 13.089844 25.988281 13.386719 C 25.988281 13.816406 25.546875 14.054688 25.113281 14.054688 C 24.882812 14.054688 24.6875 14.011719 24.5 13.941406 C 24.484375 13.933594 24.472656 13.917969 24.472656 13.890625 L 24.472656 13.371094 L 24.566406 13.371094 C 24.605469 13.769531 24.871094 13.929688 25.148438 13.929688 C 25.402344 13.929688 25.613281 13.734375 25.613281 13.472656 C 25.613281 13.238281 25.484375 13.046875 24.945312 12.691406 C 24.75 12.558594 24.511719 12.417969 24.511719 12.027344 C 24.511719 11.703125 24.871094 11.449219 25.285156 11.449219 C 25.4375 11.449219 25.644531 11.464844 25.789062 11.515625 C 25.808594 11.523438 25.8125 11.539062 25.8125 11.554688 L 25.8125 12.027344 Z M 25.71875 12.027344 "/>
<path style=" stroke:none;fill-rule:nonzero;fill:rgb(40.784314%,45.098039%,47.843137%);fill-opacity:1;" d="M 26.78125 13.5625 C 26.78125 13.898438 26.769531 13.878906 27.089844 13.917969 L 27.089844 14.011719 L 26.121094 14.011719 L 26.121094 13.917969 C 26.445312 13.878906 26.433594 13.898438 26.433594 13.5625 L 26.433594 11.941406 C 26.433594 11.605469 26.445312 11.625 26.121094 11.582031 L 26.121094 11.492188 L 27.089844 11.492188 L 27.089844 11.582031 C 26.769531 11.625 26.78125 11.605469 26.78125 11.941406 Z M 26.78125 13.5625 "/>
<path style=" stroke:none;fill-rule:nonzero;fill:rgb(40.784314%,45.098039%,47.843137%);fill-opacity:1;" d="M 28.386719 13.5625 C 28.386719 13.898438 28.371094 13.878906 28.695312 13.917969 L 28.695312 14.011719 L 27.726562 14.011719 L 27.726562 13.917969 C 28.050781 13.878906 28.035156 13.898438 28.035156 13.5625 L 28.035156 11.605469 L 27.742188 11.605469 C 27.429688 11.605469 27.359375 11.804688 27.238281 12.042969 L 27.148438 12.042969 L 27.246094 11.488281 L 29.171875 11.488281 L 29.269531 12.042969 L 29.179688 12.042969 C 29.0625 11.804688 28.988281 11.605469 28.675781 11.605469 L 28.386719 11.605469 Z M 28.386719 13.5625 "/>
<path style=" stroke:none;fill-rule:nonzero;fill:rgb(40.784314%,45.098039%,47.843137%);fill-opacity:1;" d="M 29.855469 13.917969 C 30.179688 13.878906 30.164062 13.898438 30.164062 13.5625 L 30.164062 13.007812 L 29.609375 11.90625 C 29.488281 11.675781 29.453125 11.582031 29.289062 11.582031 L 29.289062 11.492188 L 30.140625 11.492188 L 30.140625 11.582031 C 29.867188 11.582031 29.894531 11.722656 29.984375 11.90625 L 30.417969 12.8125 L 30.917969 11.90625 C 31.039062 11.6875 30.921875 11.582031 30.710938 11.582031 L 30.710938 11.492188 L 31.453125 11.492188 L 31.453125 11.582031 C 31.351562 11.582031 31.253906 11.632812 31.15625 11.804688 L 30.554688 12.894531 C 30.519531 12.96875 30.511719 13.066406 30.511719 13.15625 L 30.511719 13.5625 C 30.511719 13.898438 30.5 13.878906 30.824219 13.917969 L 30.824219 14.011719 L 29.855469 14.011719 Z M 29.855469 13.917969 "/>
<path style=" stroke:none;fill-rule:nonzero;fill:rgb(40.784314%,45.098039%,47.843137%);fill-opacity:1;" d="M 15.949219 11.492188 L 15.949219 11.582031 C 16.1875 11.601562 16.308594 11.652344 16.328125 11.78125 C 16.335938 11.839844 16.351562 11.902344 16.351562 11.976562 L 16.351562 13.457031 L 16.34375 13.457031 C 15.804688 12.804688 15.246094 12.140625 14.710938 11.492188 L 13.09375 11.488281 L 13.09375 11.582031 C 13.320312 11.609375 13.488281 11.707031 13.511719 11.882812 C 13.519531 11.960938 13.539062 12.042969 13.539062 12.144531 L 13.539062 13.492188 C 13.539062 14.265625 13.191406 14.710938 12.527344 14.710938 C 11.804688 14.710938 11.589844 14.191406 11.589844 13.515625 L 11.589844 12.097656 C 11.589844 11.644531 11.601562 11.636719 12.039062 11.582031 L 12.039062 11.488281 L 10.734375 11.488281 L 10.734375 11.582031 C 11.171875 11.636719 11.152344 11.644531 11.152344 12.097656 L 11.152344 13.539062 C 11.152344 14.417969 11.472656 14.941406 12.503906 14.941406 C 13.128906 14.941406 13.792969 14.550781 13.792969 13.511719 L 13.792969 12.144531 C 13.792969 12.136719 13.792969 12.128906 13.792969 12.121094 C 13.847656 11.4375 14.296875 11.574219 14.472656 11.828125 L 14.472656 13.527344 C 14.472656 13.601562 14.457031 13.664062 14.453125 13.71875 C 14.433594 13.851562 14.316406 13.898438 14.140625 13.917969 L 14.140625 14.011719 L 15.023438 14.011719 L 15.023438 13.917969 C 14.785156 13.898438 14.664062 13.851562 14.644531 13.71875 C 14.636719 13.664062 14.625 13.601562 14.625 13.527344 L 14.625 11.933594 C 15.210938 12.625 15.804688 13.335938 16.378906 14.011719 L 16.5 14.011719 L 16.5 11.976562 C 16.5 11.902344 16.515625 11.839844 16.523438 11.78125 C 16.539062 11.652344 16.664062 11.601562 16.832031 11.582031 L 16.832031 11.492188 Z M 15.949219 11.492188 "/>
</g>
</svg>
