<?xml version="1.0" encoding="UTF-8" standalone="no"?>
<svg xmlns:dc="http://purl.org/dc/elements/1.1/" xmlns:cc="http://creativecommons.org/ns#" xmlns:rdf="http://www.w3.org/1999/02/22-rdf-syntax-ns#" xmlns:svg="http://www.w3.org/2000/svg" xmlns="http://www.w3.org/2000/svg" xmlns:xlink="http://www.w3.org/1999/xlink" xmlns:sodipodi="http://sodipodi.sourceforge.net/DTD/sodipodi-0.dtd" xmlns:inkscape="http://www.inkscape.org/namespaces/inkscape" width="799pt" height="435pt" viewBox="0 0 799 435" version="1.1" id="svg2" inkscape:version="0.48.5 r10040" sodipodi:docname="Big_12_Conference_logo.svg">
  <metadata id="metadata52">
    <rdf:RDF>
      <cc:Work rdf:about="">
        <dc:format>image/svg+xml</dc:format>
        <dc:type rdf:resource="http://purl.org/dc/dcmitype/StillImage"/>
      </cc:Work>
    </rdf:RDF>
  </metadata>
  <defs id="defs50">
    <linearGradient id="linearGradient3815">
      <stop style="stop-color:#d4133d;stop-opacity:1;" offset="0" id="stop3817"/>
      <stop style="stop-color:#9e032a;stop-opacity:1;" offset="1" id="stop3819"/>
    </linearGradient>
    <radialGradient inkscape:collect="always" xlink:href="#linearGradient3815" id="radialGradient3823" cx="401.71078" cy="108.95276" fx="401.71078" fy="108.95276" r="316.22412" gradientTransform="matrix(0.91237479,-0.0046301,0.00619535,1.2208121,34.524993,14.321557)" gradientUnits="userSpaceOnUse"/>
  </defs>
  <sodipodi:namedview pagecolor="#ffffff" bordercolor="#666666" borderopacity="1" objecttolerance="10" gridtolerance="10" guidetolerance="10" inkscape:pageopacity="0" inkscape:pageshadow="2" inkscape:window-width="1366" inkscape:window-height="745" id="namedview48" showgrid="false" inkscape:zoom="0.8951189" inkscape:cx="502.23598" inkscape:cy="303.59492" inkscape:window-x="-8" inkscape:window-y="-8" inkscape:window-maximized="1" inkscape:current-layer="svg2"/>
  <g id="#ffffffff">
    <path d=" M 484.34 62.09 C 522.30 57.25 560.01 50.25 597.05 40.62 C 593.96 53.27 589.36 65.52 585.57 77.98 C 585.00 79.34 584.92 81.61 582.99 81.57 C 571.24 83.49 559.46 85.29 547.65 86.81 C 547.61 126.68 547.68 166.56 547.62 206.43 C 559.92 207.81 572.09 210.06 584.35 211.75 C 588.76 225.42 593.46 239.01 597.14 252.89 C 510.70 230.77 420.67 220.83 331.59 228.53 C 331.62 218.54 331.62 208.56 331.58 198.57 C 339.14 197.84 346.73 197.43 354.32 197.19 C 345.95 186.72 337.00 176.71 328.72 166.16 C 327.55 164.67 326.36 163.18 324.99 161.86 C 314.66 174.33 305.35 187.66 296.08 200.95 C 303.83 200.61 311.50 199.32 319.25 198.88 C 319.30 209.19 319.30 219.49 319.24 229.80 C 279.36 235.43 239.72 242.75 200.60 252.32 C 205.02 238.86 208.49 225.09 213.28 211.75 C 222.58 210.74 231.71 208.60 241.02 207.63 C 254.16 185.57 268.83 164.46 284.53 144.15 C 269.49 125.64 255.76 106.10 242.99 85.96 C 233.49 84.23 223.84 83.41 214.40 81.38 C 209.67 68.60 205.88 55.47 201.77 42.47 C 234.08 50.97 267.01 56.85 300.00 62.05 C 306.67 62.96 313.38 63.71 319.95 65.22 C 320.41 74.99 320.24 84.82 320.00 94.61 C 313.69 94.36 307.47 93.27 301.19 92.70 C 309.16 104.99 317.33 117.17 326.03 128.96 C 335.20 118.03 344.14 106.87 353.51 96.08 C 346.07 95.86 338.65 95.35 331.23 94.82 C 331.28 85.00 331.23 75.19 331.27 65.38 C 352.17 66.63 373.11 67.78 394.06 67.76 C 411.37 67.57 428.67 66.89 445.93 65.71 C 458.80 65.21 471.53 63.22 484.34 62.09 M 475.20 94.19 C 474.52 97.39 474.95 100.69 474.86 103.94 C 474.86 135.61 474.87 167.27 474.86 198.94 C 480.87 199.24 486.86 199.99 492.87 200.41 C 492.85 164.62 492.85 128.83 492.87 93.04 C 487.00 93.67 481.06 93.47 475.20 94.19 M 407.19 99.25 C 393.69 114.02 379.55 128.21 366.14 143.06 C 369.03 147.06 372.62 150.50 375.73 154.33 C 388.16 168.34 400.51 182.41 412.86 196.48 C 415.30 196.46 417.74 196.45 420.18 196.46 C 419.73 189.97 419.86 183.46 419.85 176.96 C 419.76 150.26 419.97 123.56 419.83 96.87 C 415.64 97.42 410.09 95.18 407.19 99.25 Z" id="path5" fill="#ffffff" opacity="1.00"/>
  </g>
  <g id="#d0d3d7ff">
    <path d=" M 158.03 1.04 C 222.85 19.92 289.80 31.45 357.18 35.70 C 365.45 36.40 373.78 36.04 382.06 36.78 C 413.08 38.05 444.06 35.39 474.90 32.33 C 525.15 26.53 574.87 16.85 624.01 4.91 C 629.22 3.71 634.42 2.31 639.79 1.98 C 632.37 24.74 626.02 47.82 618.58 70.56 C 614.46 82.82 610.70 95.21 606.22 107.34 C 596.49 109.17 586.66 110.58 577.00 112.76 C 577.05 135.41 576.82 158.06 577.14 180.71 C 586.91 182.76 596.88 183.77 606.57 186.22 C 617.54 218.66 627.40 251.47 637.75 284.11 C 638.59 286.75 639.35 289.43 640.06 292.12 C 583.96 278.98 527.30 267.98 470.04 261.33 C 452.36 259.86 434.73 257.58 416.98 257.34 C 403.00 256.81 388.98 256.59 375.03 257.59 C 362.00 257.48 349.00 258.43 336.05 259.80 C 302.03 262.67 268.28 268.23 234.88 275.20 C 208.85 280.58 183.07 287.15 156.92 291.97 C 162.25 273.82 168.33 255.89 173.75 237.76 C 178.97 220.47 184.95 203.42 190.36 186.19 C 200.71 183.70 211.36 182.76 221.78 180.57 C 224.57 180.14 225.62 177.18 227.13 175.17 C 233.44 164.84 240.40 154.91 247.13 144.87 C 246.20 141.59 243.46 139.26 241.64 136.48 C 236.51 128.89 231.41 121.26 226.30 113.67 C 221.72 112.13 216.78 112.13 212.06 111.10 C 205.52 109.70 198.89 108.76 192.29 107.63 C 181.77 77.41 172.59 46.73 162.69 16.31 C 161.17 11.21 159.38 6.19 158.03 1.04 M 563.99 23.04 C 498.58 35.99 431.79 44.43 365.01 40.77 C 348.60 40.44 332.30 38.41 315.97 37.02 C 265.03 31.32 214.50 21.78 165.10 8.12 C 175.48 39.92 184.79 72.10 196.08 103.60 C 207.03 105.15 217.92 107.21 228.77 109.18 C 237.24 120.69 244.48 133.17 253.49 144.32 C 244.13 157.44 235.28 170.91 226.75 184.59 C 215.92 186.48 205.04 188.10 194.27 190.23 C 188.91 205.42 184.04 220.80 179.16 236.16 C 174.29 252.79 168.56 269.17 163.94 285.87 C 182.38 282.19 200.65 277.73 219.03 273.76 C 258.89 264.83 299.28 258.04 340.00 254.55 C 368.58 252.53 397.29 251.16 425.92 253.01 C 474.40 255.53 522.44 263.16 570.09 272.16 C 591.14 276.37 612.19 280.63 633.03 285.80 C 629.57 272.75 624.98 260.01 621.18 247.05 C 615.27 228.03 609.32 209.01 602.72 190.22 C 592.58 188.16 582.34 186.52 572.16 184.66 C 572.21 159.31 572.09 133.95 572.22 108.59 C 580.26 107.51 588.11 105.34 596.19 104.42 C 598.37 103.97 600.84 104.07 602.77 102.84 C 613.75 71.52 623.38 39.72 632.74 7.88 C 609.83 12.98 587.05 18.66 563.99 23.04 Z" id="path8" fill="#d0d3d7" opacity="1.00"/>
  </g>
  <g id="#c6112fff" style="fill-opacity:1;fill:url(#radialGradient3823)">
    <path d=" M 563.99 23.04 C 587.05 18.66 609.83 12.98 632.74 7.88 C 623.38 39.72 613.75 71.52 602.77 102.84 C 600.84 104.07 598.37 103.97 596.19 104.42 C 588.11 105.34 580.26 107.51 572.22 108.59 C 572.09 133.95 572.21 159.31 572.16 184.66 C 582.34 186.52 592.58 188.16 602.72 190.22 C 609.32 209.01 615.27 228.03 621.18 247.05 C 624.98 260.01 629.57 272.75 633.03 285.80 C 612.19 280.63 591.14 276.37 570.09 272.16 C 522.44 263.16 474.40 255.53 425.92 253.01 C 397.29 251.16 368.58 252.53 340.00 254.55 C 299.28 258.04 258.89 264.83 219.03 273.76 C 200.65 277.73 182.38 282.19 163.94 285.87 C 168.56 269.17 174.29 252.79 179.16 236.16 C 184.04 220.80 188.91 205.42 194.27 190.23 C 205.04 188.10 215.92 186.48 226.75 184.59 C 235.28 170.91 244.13 157.44 253.49 144.32 C 244.48 133.17 237.24 120.69 228.77 109.18 C 217.92 107.21 207.03 105.15 196.08 103.60 C 184.79 72.10 175.48 39.92 165.10 8.12 C 214.50 21.78 265.03 31.32 315.97 37.02 C 332.30 38.41 348.60 40.44 365.01 40.77 C 431.79 44.43 498.58 35.99 563.99 23.04 M 484.34 62.09 C 471.53 63.22 458.80 65.21 445.93 65.71 C 428.67 66.89 411.37 67.57 394.06 67.76 C 373.11 67.78 352.17 66.63 331.27 65.38 C 331.23 75.19 331.28 85.00 331.23 94.82 C 338.65 95.35 346.07 95.86 353.51 96.08 C 344.14 106.87 335.20 118.03 326.03 128.96 C 317.33 117.17 309.16 104.99 301.19 92.70 C 307.47 93.27 313.69 94.36 320.00 94.61 C 320.24 84.82 320.41 74.99 319.95 65.22 C 313.38 63.71 306.67 62.96 300.00 62.05 C 267.01 56.85 234.08 50.97 201.77 42.47 C 205.88 55.47 209.67 68.60 214.40 81.38 C 223.84 83.41 233.49 84.23 242.99 85.96 C 255.76 106.10 269.49 125.64 284.53 144.15 C 268.83 164.46 254.16 185.57 241.02 207.63 C 231.71 208.60 222.58 210.74 213.28 211.75 C 208.49 225.09 205.02 238.86 200.60 252.32 C 239.72 242.75 279.36 235.43 319.24 229.80 C 319.30 219.49 319.30 209.19 319.25 198.88 C 311.50 199.32 303.83 200.61 296.08 200.95 C 305.35 187.66 314.66 174.33 324.99 161.86 C 326.36 163.18 327.55 164.67 328.72 166.16 C 337.00 176.71 345.95 186.72 354.32 197.19 C 346.73 197.43 339.14 197.84 331.58 198.57 C 331.62 208.56 331.62 218.54 331.59 228.53 C 420.67 220.83 510.70 230.77 597.14 252.89 C 593.46 239.01 588.76 225.42 584.35 211.75 C 572.09 210.06 559.92 207.81 547.62 206.43 C 547.68 166.56 547.61 126.68 547.65 86.81 C 559.46 85.29 571.24 83.49 582.99 81.57 C 584.92 81.61 585.00 79.34 585.57 77.98 C 589.36 65.52 593.96 53.27 597.05 40.62 C 560.01 50.25 522.30 57.25 484.34 62.09 Z" id="path11" style="fill-opacity:1.0;fill:url(#radialGradient3823)" fill="#c6112f" opacity="1.00"/>
    <path d=" M 475.20 94.19 C 481.06 93.47 487.00 93.67 492.87 93.04 C 492.85 128.83 492.85 164.62 492.87 200.41 C 486.86 199.99 480.87 199.24 474.86 198.94 C 474.87 167.27 474.86 135.61 474.86 103.94 C 474.95 100.69 474.52 97.39 475.20 94.19 Z" id="path13" style="fill-opacity:1.0;fill:url(#radialGradient3823)" fill="#c6112f" opacity="1.00"/>
    <path d=" M 407.19 99.25 C 410.09 95.18 415.64 97.42 419.83 96.87 C 419.97 123.56 419.76 150.26 419.85 176.96 C 419.86 183.46 419.73 189.97 420.18 196.46 C 417.74 196.45 415.30 196.46 412.86 196.48 C 400.51 182.41 388.16 168.34 375.73 154.33 C 372.62 150.50 369.03 147.06 366.14 143.06 C 379.55 128.21 393.69 114.02 407.19 99.25 Z" id="path15" style="fill-opacity:1.0;fill:url(#radialGradient3823)" fill="#c6112f" opacity="1.00"/>
    <path d=" M 165.87 406.37 C 173.01 399.76 180.51 393.55 187.97 387.30 C 188.03 402.87 187.99 418.43 187.99 434.00 C 184.85 434.00 181.71 434.00 178.57 434.00 C 178.52 424.88 178.57 415.77 178.63 406.65 C 176.67 408.39 174.92 410.35 172.87 411.99 C 170.21 410.56 168.21 408.23 165.87 406.37 Z" id="path17" style="fill-opacity:1;fill:#c4122c" fill="#c6112f" opacity="1.00"/>
    <path d=" M 1.06 389.29 C 6.94 389.48 12.82 389.18 18.70 389.44 C 25.37 389.94 31.38 396.00 30.62 402.91 C 30.87 406.84 28.26 410.03 25.17 412.08 C 34.77 415.89 32.77 431.90 22.90 433.88 C 15.60 434.15 8.28 433.93 0.98 434.00 C 0.39 423.67 0.86 413.32 0.76 402.98 C 0.49 398.42 0.48 393.83 1.06 389.29 M 10.03 397.40 C 9.84 400.90 9.89 404.41 9.88 407.93 C 12.57 407.95 15.31 408.26 17.97 407.69 C 21.63 406.84 22.93 401.49 20.06 399.04 C 17.35 396.60 13.34 397.71 10.03 397.40 M 9.87 415.97 C 9.89 419.46 9.90 422.95 9.90 426.44 C 13.38 426.25 17.26 427.22 20.42 425.35 C 23.64 423.29 22.99 417.87 19.45 416.49 C 16.37 415.56 13.05 416.10 9.87 415.97 Z" id="path19" style="fill-opacity:1;fill:#c4122c" fill="#c6112f" opacity="1.00"/>
    <path d=" M 51.41 389.43 C 54.60 389.34 57.79 389.35 60.98 389.33 C 61.25 404.21 61.03 419.11 61.09 434.00 C 57.89 434.00 54.68 434.00 51.48 434.00 C 51.43 419.14 51.55 404.28 51.41 389.43 Z" id="path21" style="fill-opacity:1;fill:#c4122c" fill="#c6112f" opacity="1.00"/>
    <path d=" M 81.67 401.69 C 86.84 392.18 98.49 387.39 108.97 389.01 C 115.15 389.68 120.48 393.20 125.35 396.82 C 123.24 398.77 121.11 400.71 119.00 402.65 C 113.35 398.01 105.37 395.20 98.33 398.34 C 91.47 400.86 86.46 408.89 89.13 416.08 C 92.52 426.80 107.88 430.53 116.09 423.11 C 116.35 420.74 116.26 418.36 116.26 415.99 C 110.08 416.00 103.91 416.03 97.73 415.95 C 97.77 413.26 97.80 410.57 97.83 407.88 C 107.26 407.93 116.70 407.87 126.13 407.92 C 126.11 412.95 126.20 417.98 126.17 423.02 C 126.01 424.61 126.40 426.68 124.81 427.68 C 120.27 431.44 114.80 434.42 108.86 435.00 L 101.25 435.00 C 91.59 433.91 82.40 427.14 79.73 417.60 C 78.69 412.30 78.81 406.42 81.67 401.69 Z" id="path23" style="fill-opacity:1;fill:#c4122c" fill="#c6112f" opacity="1.00"/>
    <path d=" M 203.92 398.41 C 207.45 393.43 212.46 388.64 218.98 388.67 C 228.06 387.99 236.86 397.24 234.23 406.32 C 231.62 414.17 224.95 419.64 220.40 426.33 C 225.36 426.38 230.32 426.33 235.29 426.46 C 235.27 429.30 235.27 432.15 235.25 435.00 L 203.23 435.00 C 209.52 426.40 216.12 418.03 222.62 409.59 C 224.04 407.65 225.57 405.48 225.37 402.96 C 225.26 399.42 221.30 396.74 217.96 397.77 C 215.10 398.63 213.48 401.38 211.57 403.45 C 209.03 401.75 206.46 400.11 203.92 398.41 Z" id="path25" style="fill-opacity:1;fill:#c4122c" fill="#c6112f" opacity="1.00"/>
  </g>
  <g id="#949da3ff">
    <path fill="#949da3" opacity="1.00" d=" M 650.13 387.82 C 662.77 398.82 674.78 410.56 687.61 421.34 C 687.68 410.74 687.71 400.13 687.57 389.53 C 689.73 389.41 691.90 389.31 694.07 389.19 C 694.43 404.46 694.16 419.73 694.22 435.00 L 692.62 435.00 C 680.70 424.20 668.88 413.27 656.77 402.68 C 656.36 413.45 656.75 424.23 656.54 435.00 L 650.04 435.00 C 650.21 419.27 650.03 403.55 650.13 387.82 Z" id="path28"/>
    <path fill="#949da3" opacity="1.00" d=" M 277.65 401.65 C 283.00 391.63 295.71 386.43 306.59 389.56 C 312.21 391.28 317.09 394.75 321.37 398.70 C 319.74 400.11 318.11 401.51 316.48 402.92 C 313.06 400.11 309.61 397.06 305.29 395.76 C 296.19 392.82 285.35 398.11 282.52 407.35 C 278.94 417.72 288.38 428.94 298.92 429.04 C 306.03 429.89 311.74 425.07 316.94 420.99 C 318.37 422.49 320.13 423.80 321.03 425.73 C 316.80 430.07 311.33 433.10 305.61 435.00 L 294.35 435.00 C 286.98 432.94 280.04 428.18 276.94 420.98 C 274.09 414.90 274.38 407.51 277.65 401.65 Z" id="path30"/>
    <path fill="#949da3" opacity="1.00" d=" M 345.04 392.11 C 355.39 386.01 369.89 388.22 377.70 397.43 C 383.24 403.53 384.99 412.84 381.62 420.43 C 378.65 428.03 371.34 433.08 363.62 435.00 L 352.36 435.00 C 342.91 432.64 334.27 425.07 333.11 415.03 C 331.66 405.80 336.96 396.45 345.04 392.11 M 353.40 395.51 C 345.17 397.21 338.69 405.57 339.93 414.04 C 340.91 422.38 348.71 428.89 357.00 429.05 C 365.73 429.91 374.56 423.61 376.27 414.95 C 377.49 408.76 374.43 402.31 369.46 398.63 C 364.96 395.19 358.86 394.22 353.40 395.51 Z" id="path32"/>
    <path fill="#949da3" opacity="1.00" d=" M 398.69 387.99 C 411.55 398.64 423.37 410.47 436.06 421.31 C 436.76 410.67 436.20 400.00 436.38 389.35 C 438.54 389.32 440.70 389.30 442.86 389.27 C 443.17 404.51 442.92 419.76 443.00 435.00 L 441.37 435.00 C 429.28 424.35 417.63 413.19 405.38 402.71 C 405.23 413.47 405.41 424.24 405.28 435.00 L 398.83 435.00 C 398.36 419.34 398.65 403.66 398.69 387.99 Z" id="path34"/>
    <path fill="#949da3" opacity="1.00" d=" M 462.92 389.30 C 471.85 389.40 480.78 389.35 489.72 389.35 C 489.75 391.31 489.78 393.27 489.82 395.24 C 483.05 395.53 476.27 395.30 469.50 395.48 C 469.37 399.94 469.36 404.41 469.32 408.88 C 476.14 409.10 482.97 408.93 489.79 409.08 C 489.77 411.01 489.75 412.94 489.74 414.87 C 482.93 414.97 476.13 414.81 469.33 415.08 C 469.41 421.72 469.41 428.36 469.33 435.00 L 462.86 435.00 C 462.81 419.77 462.70 404.53 462.92 389.30 Z" id="path36"/>
    <path fill="#949da3" opacity="1.00" d=" M 508.24 389.46 C 517.40 389.16 526.59 389.46 535.76 389.36 C 535.68 391.40 535.60 393.44 535.51 395.49 C 528.43 395.42 521.35 395.55 514.27 395.38 C 514.15 399.89 514.16 404.41 514.15 408.93 C 521.35 409.11 528.55 408.86 535.75 409.11 C 535.72 411.03 535.70 412.96 535.69 414.89 C 528.52 415.15 521.34 414.88 514.17 415.06 C 514.16 419.60 514.17 424.13 514.21 428.67 C 521.33 428.60 528.46 428.62 535.58 428.65 C 535.61 430.43 535.61 432.21 535.56 434.00 C 526.27 433.98 516.97 433.98 507.68 433.99 C 507.64 419.31 507.44 404.61 507.76 389.94 L 508.24 389.46 Z" id="path38"/>
    <path fill="#949da3" opacity="1.00" d=" M 554.88 389.29 C 559.96 389.43 565.04 389.19 570.12 389.41 C 575.25 389.57 580.35 392.71 582.37 397.51 C 583.46 400.76 583.47 404.40 582.45 407.68 C 581.23 411.05 577.84 412.79 575.06 414.71 C 579.31 419.19 583.59 423.65 587.88 428.11 C 588.69 429.19 590.04 430.24 589.93 431.73 C 589.07 432.95 588.00 433.98 586.92 435.00 L 585.30 435.00 C 579.78 428.71 574.17 422.51 568.63 416.24 C 566.18 416.20 563.74 416.18 561.31 416.17 C 561.36 422.45 561.38 428.72 561.29 435.00 L 554.79 435.00 C 554.72 419.76 554.54 404.52 554.88 389.29 M 561.37 395.37 C 561.39 400.24 561.39 405.12 561.32 409.99 C 565.38 410.24 570.04 411.13 573.60 408.61 C 577.92 405.61 577.10 397.69 571.96 396.05 C 568.55 394.97 564.89 395.48 561.37 395.37 Z" id="path40"/>
    <path fill="#949da3" opacity="1.00" d=" M 603.64 390.92 C 603.16 388.82 605.85 389.50 607.00 389.31 C 615.25 389.37 623.51 389.36 631.76 389.34 C 631.45 391.25 632.42 393.84 631.08 395.32 C 624.29 395.91 617.43 394.97 610.64 395.70 C 609.93 400.06 610.49 404.50 610.31 408.90 C 617.46 409.15 624.62 408.86 631.77 409.09 C 631.75 411.02 631.74 412.96 631.74 414.90 C 624.59 415.14 617.44 414.85 610.29 415.10 C 610.34 419.62 610.34 424.14 610.34 428.66 C 617.45 428.61 624.56 428.60 631.68 428.67 C 631.67 430.44 631.65 432.22 631.59 434.00 C 622.28 433.99 612.97 433.97 603.67 434.00 C 603.56 419.64 603.59 405.28 603.64 390.92 Z" id="path42"/>
    <path fill="#949da3" opacity="1.00" d=" M 714.05 399.99 C 719.96 390.85 732.20 386.51 742.58 389.73 C 747.99 391.49 752.68 394.89 756.82 398.72 C 755.24 400.07 753.74 401.53 752.00 402.66 C 748.53 400.66 745.72 397.59 741.92 396.19 C 732.26 392.16 720.02 398.22 717.65 408.47 C 715.02 418.84 724.63 429.30 734.99 429.04 C 741.77 429.63 747.21 425.06 752.10 421.05 C 753.72 422.49 755.35 423.94 756.97 425.40 C 752.33 429.70 746.93 433.34 740.76 435.00 L 729.42 435.00 C 722.41 432.70 715.63 428.34 712.56 421.37 C 709.03 414.65 709.88 406.23 714.05 399.99 Z" id="path44"/>
    <path fill="#949da3" opacity="1.00" d=" M 771.11 389.30 C 780.41 389.38 789.70 389.38 799.00 389.32 L 799.00 395.19 C 792.00 395.78 784.97 395.40 777.96 395.38 C 777.72 399.91 777.70 404.44 777.79 408.98 C 784.86 409.02 791.93 408.99 799.00 409.00 L 799.00 414.94 C 791.93 414.92 784.86 414.89 777.79 414.95 C 777.71 419.52 777.73 424.09 777.91 428.66 C 784.94 428.61 791.97 428.63 799.00 428.63 L 799.00 434.35 C 789.69 435.26 780.31 434.65 770.97 434.66 C 771.10 419.54 770.83 404.42 771.11 389.30 Z" id="path46"/>
  </g>
</svg>