<?xml version="1.0" encoding="UTF-8" standalone="no"?>
<!-- Created with Inkscape (http://www.inkscape.org/) -->

<svg
   xmlns:dc="http://purl.org/dc/elements/1.1/"
   xmlns:cc="http://creativecommons.org/ns#"
   xmlns:rdf="http://www.w3.org/1999/02/22-rdf-syntax-ns#"
   xmlns:svg="http://www.w3.org/2000/svg"
   xmlns="http://www.w3.org/2000/svg"
   xmlns:xlink="http://www.w3.org/1999/xlink"
   version="1.1"
   width="280"
   height="200"
   viewBox="0 0 224 159.99999"
   id="svg2">
  <metadata
     id="metadata52">
    <rdf:RDF>
      <cc:Work
         rdf:about="">
        <dc:format>image/svg+xml</dc:format>
        <dc:type
           rdf:resource="http://purl.org/dc/dcmitype/StillImage" />
        <dc:title></dc:title>
      </cc:Work>
    </rdf:RDF>
  </metadata>
  <defs
     id="defs50">
    <linearGradient
       id="linearGradient3815">
      <stop
         id="stop3817"
         style="stop-color:#d4133d;stop-opacity:1"
         offset="0" />
      <stop
         id="stop3819"
         style="stop-color:#9e032a;stop-opacity:1"
         offset="1" />
    </linearGradient>
    <radialGradient
       cx="401.71078"
       cy="108.95276"
       r="316.22412"
       fx="401.71078"
       fy="108.95276"
       id="radialGradient3823"
       xlink:href="#linearGradient3815"
       gradientUnits="userSpaceOnUse"
       gradientTransform="matrix(0.91237479,-0.0046301,0.00619535,1.2208121,34.524993,14.321557)" />
    <radialGradient
       cx="401.71078"
       cy="108.95276"
       r="316.22412"
       fx="401.71078"
       fy="108.95276"
       id="radialGradient4295"
       xlink:href="#linearGradient3815"
       gradientUnits="userSpaceOnUse"
       gradientTransform="matrix(0.91237479,-0.0046301,0.00619535,1.2208121,34.524993,14.321557)" />
    <radialGradient
       cx="401.71078"
       cy="108.95276"
       r="316.22412"
       fx="401.71078"
       fy="108.95276"
       id="radialGradient4297"
       xlink:href="#linearGradient3815"
       gradientUnits="userSpaceOnUse"
       gradientTransform="matrix(0.91237479,-0.0046301,0.00619535,1.2208121,34.524993,14.321557)" />
    <radialGradient
       cx="401.71078"
       cy="108.95276"
       r="316.22412"
       fx="401.71078"
       fy="108.95276"
       id="radialGradient4299"
       xlink:href="#linearGradient3815"
       gradientUnits="userSpaceOnUse"
       gradientTransform="matrix(0.91237479,-0.0046301,0.00619535,1.2208121,34.524993,14.321557)" />
  </defs>
  <g
     transform="matrix(0.28055471,0,0,0.28055471,-0.16321619,18.758699)"
     id="#ffffffff">
    <path
       d="m 484.34,62.09 c 37.96,-4.84 75.67,-11.84 112.71,-21.47 -3.09,12.65 -7.69,24.9 -11.48,37.36 -0.57,1.36 -0.65,3.63 -2.58,3.59 -11.75,1.92 -23.53,3.72 -35.34,5.24 -0.04,39.87 0.03,79.75 -0.03,119.62 12.3,1.38 24.47,3.63 36.73,5.32 4.41,13.67 9.11,27.26 12.79,41.14 -86.44,-22.12 -176.47,-32.06 -265.55,-24.36 0.03,-9.99 0.03,-19.97 -0.01,-29.96 7.56,-0.73 15.15,-1.14 22.74,-1.38 -8.37,-10.47 -17.32,-20.48 -25.6,-31.03 -1.17,-1.49 -2.36,-2.98 -3.73,-4.3 -10.33,12.47 -19.64,25.8 -28.91,39.09 7.75,-0.34 15.42,-1.63 23.17,-2.07 0.05,10.31 0.05,20.61 -0.01,30.92 -39.88,5.63 -79.52,12.95 -118.64,22.52 4.42,-13.46 7.89,-27.23 12.68,-40.57 9.3,-1.01 18.43,-3.15 27.74,-4.12 13.14,-22.06 27.81,-43.17 43.51,-63.48 -15.04,-18.51 -28.77,-38.05 -41.54,-58.19 -9.5,-1.73 -19.15,-2.55 -28.59,-4.58 -4.73,-12.78 -8.52,-25.91 -12.63,-38.91 32.31,8.5 65.24,14.38 98.23,19.58 6.67,0.91 13.38,1.66 19.95,3.17 0.46,9.77 0.29,19.6 0.05,29.39 -6.31,-0.25 -12.53,-1.34 -18.81,-1.91 7.97,12.29 16.14,24.47 24.84,36.26 9.17,-10.93 18.11,-22.09 27.48,-32.88 -7.44,-0.22 -14.86,-0.73 -22.28,-1.26 0.05,-9.82 0,-19.63 0.04,-29.44 20.9,1.25 41.84,2.4 62.79,2.38 17.31,-0.19 34.61,-0.87 51.87,-2.05 12.87,-0.5 25.6,-2.49 38.41,-3.62 m -9.14,32.1 c -0.68,3.2 -0.25,6.5 -0.34,9.75 0,31.67 0.01,63.33 0,95 6.01,0.3 12,1.05 18.01,1.47 -0.02,-35.79 -0.02,-71.58 0,-107.37 -5.87,0.63 -11.81,0.43 -17.67,1.15 m -68.01,5.06 c -13.5,14.77 -27.64,28.96 -41.05,43.81 2.89,4 6.48,7.44 9.59,11.27 12.43,14.01 24.78,28.08 37.13,42.15 2.44,-0.02 4.88,-0.03 7.32,-0.02 -0.45,-6.49 -0.32,-13 -0.33,-19.5 -0.09,-26.7 0.12,-53.4 -0.02,-80.09 -4.19,0.55 -9.74,-1.69 -12.64,2.38 z"
       id="path5"
       style="fill:#ffffff" />
  </g>
  <g
     transform="matrix(0.28055471,0,0,0.28055471,-0.16321619,18.758699)"
     id="#d0d3d7ff">
    <path
       d="m 158.03,1.04 c 64.82,18.88 131.77,30.41 199.15,34.66 8.27,0.7 16.6,0.34 24.88,1.08 31.02,1.27 62,-1.39 92.84,-4.45 50.25,-5.8 99.97,-15.48 149.11,-27.42 5.21,-1.2 10.41,-2.6 15.78,-2.93 -7.42,22.76 -13.77,45.84 -21.21,68.58 -4.12,12.26 -7.88,24.65 -12.36,36.78 -9.73,1.83 -19.56,3.24 -29.22,5.42 0.05,22.65 -0.18,45.3 0.14,67.95 9.77,2.05 19.74,3.06 29.43,5.51 10.97,32.44 20.83,65.25 31.18,97.89 0.84,2.64 1.6,5.32 2.31,8.01 -56.1,-13.14 -112.76,-24.14 -170.02,-30.79 -17.68,-1.47 -35.31,-3.75 -53.06,-3.99 -13.98,-0.53 -28,-0.75 -41.95,0.25 -13.03,-0.11 -26.03,0.84 -38.98,2.21 -34.02,2.87 -67.77,8.43 -101.17,15.4 -26.03,5.38 -51.81,11.95 -77.96,16.77 5.33,-18.15 11.41,-36.08 16.83,-54.21 5.22,-17.29 11.2,-34.34 16.61,-51.57 10.35,-2.49 21,-3.43 31.42,-5.62 2.79,-0.43 3.84,-3.39 5.35,-5.4 6.31,-10.33 13.27,-20.26 20,-30.3 -0.93,-3.28 -3.67,-5.61 -5.49,-8.39 -5.13,-7.59 -10.23,-15.22 -15.34,-22.81 -4.58,-1.54 -9.52,-1.54 -14.24,-2.57 -6.54,-1.4 -13.17,-2.34 -19.77,-3.47 -10.52,-30.22 -19.7,-60.9 -29.6,-91.32 -1.52,-5.1 -3.31,-10.12 -4.66,-15.27 m 405.96,22 C 498.58,35.99 431.79,44.43 365.01,40.77 348.6,40.44 332.3,38.41 315.97,37.02 265.03,31.32 214.5,21.78 165.1,8.12 c 10.38,31.8 19.69,63.98 30.98,95.48 10.95,1.55 21.84,3.61 32.69,5.58 8.47,11.51 15.71,23.99 24.72,35.14 -9.36,13.12 -18.21,26.59 -26.74,40.27 -10.83,1.89 -21.71,3.51 -32.48,5.64 -5.36,15.19 -10.23,30.57 -15.11,45.93 -4.87,16.63 -10.6,33.01 -15.22,49.71 18.44,-3.68 36.71,-8.14 55.09,-12.11 39.86,-8.93 80.25,-15.72 120.97,-19.21 28.58,-2.02 57.29,-3.39 85.92,-1.54 48.48,2.52 96.52,10.15 144.17,19.15 21.05,4.21 42.1,8.47 62.94,13.64 -3.46,-13.05 -8.05,-25.79 -11.85,-38.75 -5.91,-19.02 -11.86,-38.04 -18.46,-56.83 -10.14,-2.06 -20.38,-3.7 -30.56,-5.56 0.05,-25.35 -0.07,-50.71 0.06,-76.07 8.04,-1.08 15.89,-3.25 23.97,-4.17 2.18,-0.45 4.65,-0.35 6.58,-1.58 10.98,-31.32 20.61,-63.12 29.97,-94.96 -22.91,5.1 -45.69,10.78 -68.75,15.16 z"
       id="path8"
       style="fill:#d0d3d7" />
  </g>
  <g
     transform="matrix(0.28055471,0,0,0.28055471,-0.16321619,18.758699)"
     id="#c6112fff"
     style="fill:url(#radialGradient3823);fill-opacity:1">
    <path
       d="m 563.99,23.04 c 23.06,-4.38 45.84,-10.06 68.75,-15.16 -9.36,31.84 -18.99,63.64 -29.97,94.96 -1.93,1.23 -4.4,1.13 -6.58,1.58 -8.08,0.92 -15.93,3.09 -23.97,4.17 -0.13,25.36 -0.01,50.72 -0.06,76.07 10.18,1.86 20.42,3.5 30.56,5.56 6.6,18.79 12.55,37.81 18.46,56.83 3.8,12.96 8.39,25.7 11.85,38.75 -20.84,-5.17 -41.89,-9.43 -62.94,-13.64 -47.65,-9 -95.69,-16.63 -144.17,-19.15 -28.63,-1.85 -57.34,-0.48 -85.92,1.54 -40.72,3.49 -81.11,10.28 -120.97,19.21 -18.38,3.97 -36.65,8.43 -55.09,12.11 4.62,-16.7 10.35,-33.08 15.22,-49.71 4.88,-15.36 9.75,-30.74 15.11,-45.93 10.77,-2.13 21.65,-3.75 32.48,-5.64 8.53,-13.68 17.38,-27.15 26.74,-40.27 -9.01,-11.15 -16.25,-23.63 -24.72,-35.14 -10.85,-1.97 -21.74,-4.03 -32.69,-5.58 -11.29,-31.5 -20.6,-63.68 -30.98,-95.48 49.4,13.66 99.93,23.2 150.87,28.9 16.33,1.39 32.63,3.42 49.04,3.75 66.78,3.66 133.57,-4.78 198.98,-17.73 m -79.65,39.05 c -12.81,1.13 -25.54,3.12 -38.41,3.62 -17.26,1.18 -34.56,1.86 -51.87,2.05 -20.95,0.02 -41.89,-1.13 -62.79,-2.38 -0.04,9.81 0.01,19.62 -0.04,29.44 7.42,0.53 14.84,1.04 22.28,1.26 -9.37,10.79 -18.31,21.95 -27.48,32.88 -8.7,-11.79 -16.87,-23.97 -24.84,-36.26 6.28,0.57 12.5,1.66 18.81,1.91 0.24,-9.79 0.41,-19.62 -0.05,-29.39 -6.57,-1.51 -13.28,-2.26 -19.95,-3.17 -32.99,-5.2 -65.92,-11.08 -98.23,-19.58 4.11,13 7.9,26.13 12.63,38.91 9.44,2.03 19.09,2.85 28.59,4.58 12.77,20.14 26.5,39.68 41.54,58.19 -15.7,20.31 -30.37,41.42 -43.51,63.48 -9.31,0.97 -18.44,3.11 -27.74,4.12 -4.79,13.34 -8.26,27.11 -12.68,40.57 39.12,-9.57 78.76,-16.89 118.64,-22.52 0.06,-10.31 0.06,-20.61 0.01,-30.92 -7.75,0.44 -15.42,1.73 -23.17,2.07 9.27,-13.29 18.58,-26.62 28.91,-39.09 1.37,1.32 2.56,2.81 3.73,4.3 8.28,10.55 17.23,20.56 25.6,31.03 -7.59,0.24 -15.18,0.65 -22.74,1.38 0.04,9.99 0.04,19.97 0.01,29.96 89.08,-7.7 179.11,2.24 265.55,24.36 -3.68,-13.88 -8.38,-27.47 -12.79,-41.14 -12.26,-1.69 -24.43,-3.94 -36.73,-5.32 0.06,-39.87 -0.01,-79.75 0.03,-119.62 11.81,-1.52 23.59,-3.32 35.34,-5.24 1.93,0.04 2.01,-2.23 2.58,-3.59 3.79,-12.46 8.39,-24.71 11.48,-37.36 -37.04,9.63 -74.75,16.63 -112.71,21.47 z"
       id="path11"
       style="fill:url(#radialGradient4295);fill-opacity:1" />
    <path
       d="m 475.2,94.19 c 5.86,-0.72 11.8,-0.52 17.67,-1.15 -0.02,35.79 -0.02,71.58 0,107.37 -6.01,-0.42 -12,-1.17 -18.01,-1.47 0.01,-31.67 0,-63.33 0,-95 0.09,-3.25 -0.34,-6.55 0.34,-9.75 z"
       id="path13"
       style="fill:url(#radialGradient4297);fill-opacity:1" />
    <path
       d="m 407.19,99.25 c 2.9,-4.07 8.45,-1.83 12.64,-2.38 0.14,26.69 -0.07,53.39 0.02,80.09 0.01,6.5 -0.12,13.01 0.33,19.5 -2.44,-0.01 -4.88,0 -7.32,0.02 -12.35,-14.07 -24.7,-28.14 -37.13,-42.15 -3.11,-3.83 -6.7,-7.27 -9.59,-11.27 13.41,-14.85 27.55,-29.04 41.05,-43.81 z"
       id="path15"
       style="fill:url(#radialGradient4299);fill-opacity:1" />
    <path
       d="m 165.87,406.37 c 7.14,-6.61 14.64,-12.82 22.1,-19.07 0.06,15.57 0.02,31.13 0.02,46.7 -3.14,0 -6.28,0 -9.42,0 -0.05,-9.12 0,-18.23 0.06,-27.35 -1.96,1.74 -3.71,3.7 -5.76,5.34 -2.66,-1.43 -4.66,-3.76 -7,-5.62 z"
       id="path17"
       style="fill:#c4122c;fill-opacity:1" />
    <path
       d="m 1.06,389.29 c 5.88,0.19 11.76,-0.11 17.64,0.15 6.67,0.5 12.68,6.56 11.92,13.47 0.25,3.93 -2.36,7.12 -5.45,9.17 9.6,3.81 7.6,19.82 -2.27,21.8 C 15.6,434.15 8.28,433.93 0.98,434 0.39,423.67 0.86,413.32 0.76,402.98 0.49,398.42 0.48,393.83 1.06,389.29 m 8.97,8.11 c -0.19,3.5 -0.14,7.01 -0.15,10.53 2.69,0.02 5.43,0.33 8.09,-0.24 3.66,-0.85 4.96,-6.2 2.09,-8.65 -2.71,-2.44 -6.72,-1.33 -10.03,-1.64 m -0.16,18.57 c 0.02,3.49 0.03,6.98 0.03,10.47 3.48,-0.19 7.36,0.78 10.52,-1.09 3.22,-2.06 2.57,-7.48 -0.97,-8.86 -3.08,-0.93 -6.4,-0.39 -9.58,-0.52 z"
       id="path19"
       style="fill:#c4122c;fill-opacity:1" />
    <path
       d="m 51.41,389.43 c 3.19,-0.09 6.38,-0.08 9.57,-0.1 0.27,14.88 0.05,29.78 0.11,44.67 -3.2,0 -6.41,0 -9.61,0 -0.05,-14.86 0.07,-29.72 -0.07,-44.57 z"
       id="path21"
       style="fill:#c4122c;fill-opacity:1" />
    <path
       d="m 81.67,401.69 c 5.17,-9.51 16.82,-14.3 27.3,-12.68 6.18,0.67 11.51,4.19 16.38,7.81 -2.11,1.95 -4.24,3.89 -6.35,5.83 -5.65,-4.64 -13.63,-7.45 -20.67,-4.31 -6.86,2.52 -11.87,10.55 -9.2,17.74 3.39,10.72 18.75,14.45 26.96,7.03 0.26,-2.37 0.17,-4.75 0.17,-7.12 -6.18,0.01 -12.35,0.04 -18.53,-0.04 0.04,-2.69 0.07,-5.38 0.1,-8.07 9.43,0.05 18.87,-0.01 28.3,0.04 -0.02,5.03 0.07,10.06 0.04,15.1 -0.16,1.59 0.23,3.66 -1.36,4.66 -4.54,3.76 -10.01,6.74 -15.95,7.32 l -7.61,0 c -9.66,-1.09 -18.85,-7.86 -21.52,-17.4 -1.04,-5.3 -0.92,-11.18 1.94,-15.91 z"
       id="path23"
       style="fill:#c4122c;fill-opacity:1" />
    <path
       d="m 203.92,398.41 c 3.53,-4.98 8.54,-9.77 15.06,-9.74 9.08,-0.68 17.88,8.57 15.25,17.65 -2.61,7.85 -9.28,13.32 -13.83,20.01 4.96,0.05 9.92,0 14.89,0.13 -0.02,2.84 -0.02,5.69 -0.04,8.54 l -32.02,0 c 6.29,-8.6 12.89,-16.97 19.39,-25.41 1.42,-1.94 2.95,-4.11 2.75,-6.63 -0.11,-3.54 -4.07,-6.22 -7.41,-5.19 -2.86,0.86 -4.48,3.61 -6.39,5.68 -2.54,-1.7 -5.11,-3.34 -7.65,-5.04 z"
       id="path25"
       style="fill:#c4122c;fill-opacity:1" />
  </g>
  <g
     transform="matrix(0.28055471,0,0,0.28055471,-0.16321619,18.758699)"
     id="#949da3ff">
    <path
       d="m 650.13,387.82 c 12.64,11 24.65,22.74 37.48,33.52 0.07,-10.6 0.1,-21.21 -0.04,-31.81 2.16,-0.12 4.33,-0.22 6.5,-0.34 0.36,15.27 0.09,30.54 0.15,45.81 l -1.6,0 c -11.92,-10.8 -23.74,-21.73 -35.85,-32.32 -0.41,10.77 -0.02,21.55 -0.23,32.32 l -6.5,0 c 0.17,-15.73 -0.01,-31.45 0.09,-47.18 z"
       id="path28"
       style="fill:#949da3" />
    <path
       d="m 277.65,401.65 c 5.35,-10.02 18.06,-15.22 28.94,-12.09 5.62,1.72 10.5,5.19 14.78,9.14 -1.63,1.41 -3.26,2.81 -4.89,4.22 -3.42,-2.81 -6.87,-5.86 -11.19,-7.16 -9.1,-2.94 -19.94,2.35 -22.77,11.59 -3.58,10.37 5.86,21.59 16.4,21.69 7.11,0.85 12.82,-3.97 18.02,-8.05 1.43,1.5 3.19,2.81 4.09,4.74 -4.23,4.34 -9.7,7.37 -15.42,9.27 l -11.26,0 c -7.37,-2.06 -14.31,-6.82 -17.41,-14.02 -2.85,-6.08 -2.56,-13.47 0.71,-19.33 z"
       id="path30"
       style="fill:#949da3" />
    <path
       d="m 345.04,392.11 c 10.35,-6.1 24.85,-3.89 32.66,5.32 5.54,6.1 7.29,15.41 3.92,23 -2.97,7.6 -10.28,12.65 -18,14.57 l -11.26,0 c -9.45,-2.36 -18.09,-9.93 -19.25,-19.97 -1.45,-9.23 3.85,-18.58 11.93,-22.92 m 8.36,3.4 c -8.23,1.7 -14.71,10.06 -13.47,18.53 0.98,8.34 8.78,14.85 17.07,15.01 8.73,0.86 17.56,-5.44 19.27,-14.1 1.22,-6.19 -1.84,-12.64 -6.81,-16.32 -4.5,-3.44 -10.6,-4.41 -16.06,-3.12 z"
       id="path32"
       style="fill:#949da3" />
    <path
       d="m 398.69,387.99 c 12.86,10.65 24.68,22.48 37.37,33.32 0.7,-10.64 0.14,-21.31 0.32,-31.96 2.16,-0.03 4.32,-0.05 6.48,-0.08 0.31,15.24 0.06,30.49 0.14,45.73 l -1.63,0 c -12.09,-10.65 -23.74,-21.81 -35.99,-32.29 -0.15,10.76 0.03,21.53 -0.1,32.29 l -6.45,0 c -0.47,-15.66 -0.18,-31.34 -0.14,-47.01 z"
       id="path34"
       style="fill:#949da3" />
    <path
       d="m 462.92,389.3 c 8.93,0.1 17.86,0.05 26.8,0.05 0.03,1.96 0.06,3.92 0.1,5.89 -6.77,0.29 -13.55,0.06 -20.32,0.24 -0.13,4.46 -0.14,8.93 -0.18,13.4 6.82,0.22 13.65,0.05 20.47,0.2 -0.02,1.93 -0.04,3.86 -0.05,5.79 -6.81,0.1 -13.61,-0.06 -20.41,0.21 0.08,6.64 0.08,13.28 0,19.92 l -6.47,0 c -0.05,-15.23 -0.16,-30.47 0.06,-45.7 z"
       id="path36"
       style="fill:#949da3" />
    <path
       d="m 508.24,389.46 c 9.16,-0.3 18.35,0 27.52,-0.1 -0.08,2.04 -0.16,4.08 -0.25,6.13 -7.08,-0.07 -14.16,0.06 -21.24,-0.11 -0.12,4.51 -0.11,9.03 -0.12,13.55 7.2,0.18 14.4,-0.07 21.6,0.18 -0.03,1.92 -0.05,3.85 -0.06,5.78 -7.17,0.26 -14.35,-0.01 -21.52,0.17 -0.01,4.54 0,9.07 0.04,13.61 7.12,-0.07 14.25,-0.05 21.37,-0.02 0.03,1.78 0.03,3.56 -0.02,5.35 -9.29,-0.02 -18.59,-0.02 -27.88,-0.01 -0.04,-14.68 -0.24,-29.38 0.08,-44.05 l 0.48,-0.48 z"
       id="path38"
       style="fill:#949da3" />
    <path
       d="m 554.88,389.29 c 5.08,0.14 10.16,-0.1 15.24,0.12 5.13,0.16 10.23,3.3 12.25,8.1 1.09,3.25 1.1,6.89 0.08,10.17 -1.22,3.37 -4.61,5.11 -7.39,7.03 4.25,4.48 8.53,8.94 12.82,13.4 0.81,1.08 2.16,2.13 2.05,3.62 -0.86,1.22 -1.93,2.25 -3.01,3.27 l -1.62,0 c -5.52,-6.29 -11.13,-12.49 -16.67,-18.76 -2.45,-0.04 -4.89,-0.06 -7.32,-0.07 0.05,6.28 0.07,12.55 -0.02,18.83 l -6.5,0 c -0.07,-15.24 -0.25,-30.48 0.09,-45.71 m 6.49,6.08 c 0.02,4.87 0.02,9.75 -0.05,14.62 4.06,0.25 8.72,1.14 12.28,-1.38 4.32,-3 3.5,-10.92 -1.64,-12.56 -3.41,-1.08 -7.07,-0.57 -10.59,-0.68 z"
       id="path40"
       style="fill:#949da3" />
    <path
       d="m 603.64,390.92 c -0.48,-2.1 2.21,-1.42 3.36,-1.61 8.25,0.06 16.51,0.05 24.76,0.03 -0.31,1.91 0.66,4.5 -0.68,5.98 -6.79,0.59 -13.65,-0.35 -20.44,0.38 -0.71,4.36 -0.15,8.8 -0.33,13.2 7.15,0.25 14.31,-0.04 21.46,0.19 -0.02,1.93 -0.03,3.87 -0.03,5.81 -7.15,0.24 -14.3,-0.05 -21.45,0.2 0.05,4.52 0.05,9.04 0.05,13.56 7.11,-0.05 14.22,-0.06 21.34,0.01 -0.01,1.77 -0.03,3.55 -0.09,5.33 -9.31,-0.01 -18.62,-0.03 -27.92,0 -0.11,-14.36 -0.08,-28.72 -0.03,-43.08 z"
       id="path42"
       style="fill:#949da3" />
    <path
       d="m 714.05,399.99 c 5.91,-9.14 18.15,-13.48 28.53,-10.26 5.41,1.76 10.1,5.16 14.24,8.99 -1.58,1.35 -3.08,2.81 -4.82,3.94 -3.47,-2 -6.28,-5.07 -10.08,-6.47 -9.66,-4.03 -21.9,2.03 -24.27,12.28 -2.63,10.37 6.98,20.83 17.34,20.57 6.78,0.59 12.22,-3.98 17.11,-7.99 1.62,1.44 3.25,2.89 4.87,4.35 -4.64,4.3 -10.04,7.94 -16.21,9.6 l -11.34,0 c -7.01,-2.3 -13.79,-6.66 -16.86,-13.63 -3.53,-6.72 -2.68,-15.14 1.49,-21.38 z"
       id="path44"
       style="fill:#949da3" />
    <path
       d="m 771.11,389.3 c 9.3,0.08 18.59,0.08 27.89,0.02 l 0,5.87 c -7,0.59 -14.03,0.21 -21.04,0.19 -0.24,4.53 -0.26,9.06 -0.17,13.6 7.07,0.04 14.14,0.01 21.21,0.02 l 0,5.94 c -7.07,-0.02 -14.14,-0.05 -21.21,0.01 -0.08,4.57 -0.06,9.14 0.12,13.71 7.03,-0.05 14.06,-0.03 21.09,-0.03 l 0,5.72 c -9.31,0.91 -18.69,0.3 -28.03,0.31 0.13,-15.12 -0.14,-30.24 0.14,-45.36 z"
       id="path46"
       style="fill:#949da3" />
  </g>
</svg>
