<?xml version="1.0" encoding="UTF-8" standalone="no"?>
<!-- Created with Inkscape (http://www.inkscape.org/) -->

<svg
   xmlns:xapG="http://ns.adobe.com/xap/1.0/g/"
   xmlns:stDim="http://ns.adobe.com/xap/1.0/sType/Dimensions#"
   xmlns:xapTPg="http://ns.adobe.com/xap/1.0/t/pg/"
   xmlns:stRef="http://ns.adobe.com/xap/1.0/sType/ResourceRef#"
   xmlns:xapMM="http://ns.adobe.com/xap/1.0/mm/"
   xmlns:xapGImg="http://ns.adobe.com/xap/1.0/g/img/"
   xmlns:xap="http://ns.adobe.com/xap/1.0/"
   xmlns:x="adobe:ns:meta/"
   xmlns:dc="http://purl.org/dc/elements/1.1/"
   xmlns:cc="http://creativecommons.org/ns#"
   xmlns:rdf="http://www.w3.org/1999/02/22-rdf-syntax-ns#"
   xmlns:svg="http://www.w3.org/2000/svg"
   xmlns="http://www.w3.org/2000/svg"
   version="1.1"
   width="280"
   height="200"
   viewBox="0 0 280 200"
   id="Layer_1"
   xml:space="preserve"><defs
     id="defs131" /><metadata
     id="metadata3"><?xpacket begin="" id="W5M0MpCehiHzreSzNTczkc9d"?><x:xmpmeta
       x:xmptk="Adobe XMP Core 4.1-c036 46.277092, Fri Feb 23 2007 14:16:18        "><metadata
         id="metadata133"><rdf:RDF><rdf:Description
             rdf:about=""><dc:format>image/svg+xml</dc:format><dc:creator><rdf:Seq><rdf:li>sdm</rdf:li></rdf:Seq></dc:creator><dc:title><rdf:Alt><rdf:li
                   xml:lang="x-default">CC brochure(fullpage).indd</rdf:li></rdf:Alt></dc:title></rdf:Description><rdf:Description
             rdf:about=""><xap:CreatorTool>Adobe Illustrator CS3</xap:CreatorTool><xap:CreateDate>2008-08-31T15:51:40-05:00</xap:CreateDate><xap:ModifyDate>2008-08-31T15:51:41-05:00</xap:ModifyDate><xap:MetadataDate>2008-08-31T15:51:41-05:00</xap:MetadataDate><xap:Thumbnails><rdf:Alt><rdf:li
                   rdf:parseType="Resource"><xapGImg:width>256</xapGImg:width><xapGImg:height>184</xapGImg:height><xapGImg:format>JPEG</xapGImg:format><xapGImg:image>/9j/4AAQSkZJRgABAgEASABIAAD/7QAsUGhvdG9zaG9wIDMuMAA4QklNA+0AAAAAABAASAAAAAEA
AQBIAAAAAQAB/+4ADkFkb2JlAGTAAAAAAf/bAIQABgQEBAUEBgUFBgkGBQYJCwgGBggLDAoKCwoK
DBAMDAwMDAwQDA4PEA8ODBMTFBQTExwbGxscHx8fHx8fHx8fHwEHBwcNDA0YEBAYGhURFRofHx8f
Hx8fHx8fHx8fHx8fHx8fHx8fHx8fHx8fHx8fHx8fHx8fHx8fHx8fHx8fHx8f/8AAEQgAuAEAAwER
AAIRAQMRAf/EAaIAAAAHAQEBAQEAAAAAAAAAAAQFAwIGAQAHCAkKCwEAAgIDAQEBAQEAAAAAAAAA
AQACAwQFBgcICQoLEAACAQMDAgQCBgcDBAIGAnMBAgMRBAAFIRIxQVEGE2EicYEUMpGhBxWxQiPB
UtHhMxZi8CRygvElQzRTkqKyY3PCNUQnk6OzNhdUZHTD0uIIJoMJChgZhJRFRqS0VtNVKBry4/PE
1OT0ZXWFlaW1xdXl9WZ2hpamtsbW5vY3R1dnd4eXp7fH1+f3OEhYaHiImKi4yNjo+Ck5SVlpeYmZ
qbnJ2en5KjpKWmp6ipqqusra6voRAAICAQIDBQUEBQYECAMDbQEAAhEDBCESMUEFURNhIgZxgZEy
obHwFMHR4SNCFVJicvEzJDRDghaSUyWiY7LCB3PSNeJEgxdUkwgJChgZJjZFGidkdFU38qOzwygp
0+PzhJSktMTU5PRldYWVpbXF1eX1RlZmdoaWprbG1ub2R1dnd4eXp7fH1+f3OEhYaHiImKi4yNjo
+DlJWWl5iZmpucnZ6fkqOkpaanqKmqq6ytrq+v/aAAwDAQACEQMRAD8A9U4q7FXYq7FXYq7FXYq7
FXYqxLzfFxv4pOzx0+lSf65wHtXirPGXfH7iXedmS9BHmwvUvNvlvTLo2t/qEVtcABjG5ING6Hpm
iw9n58seKETKLusekyzFxjYQv/KwfJf/AFd7f/gj/TLf5I1X+pybP5Pz/wA0u/5WD5L/AOrvb/8A
BH+mP8kar/U5L/J+f+aXf8rB8l/9Xe3/AOCP9Mf5I1X+pyX+T8/80u/5WD5L/wCrvb/8Ef6Y/wAk
ar/U5L/J+f8Aml3/ACsHyX/1d7f/AII/0x/kjVf6nJf5Pz/zS7/lYPkv/q72/wDwR/pj/JGq/wBT
kv8AJ+f+aXf8rB8l/wDV3t/+CP8ATH+SNV/qcl/k/P8AzS7/AJWD5L/6u9v/AMEf6Y/yRqv9Tkv8
n5/5pd/ysHyX/wBXe3/4I/0x/kjVf6nJf5Pz/wA0u/5WD5L/AOrvb/8ABH+mP8kar/U5L/J+f+aU
bpXmjy/q07W+m30d1Mieo6RkkhQQKnbxOU59Dmwi5xMQ1ZdNkxi5CmdeTovgupfEqo+ipP686v2R
xbZJ+4fe6DtSW8QyTOydS7FXYq7FXYq7FXYq7FXYq7FXYq7FXYq7FXYq7FXYq7FWO+cYqw20tPss
yk/6wB/41zj/AGuxXDHPuJHz/sdr2XLeQfNf54WZj8x2V0BRZ7UIfdo3av4OMPsxkvBKPdL7w+gd
iTvER3Sec50ruXYq7FXYq7FXYq7FXYq7FXYq9R/IGASy65fFdh9Xghf2/eM4/wCI5yftXOhjj/WP
3V+l5btbNxkdz6T8qRcNK5f78kZvuov8M2nsvj4dLf8AOkT+j9DxPaMry13BOM6JwHYq7FXYq7FX
Yq7FXYq7FXYq7FXYq7FXYq7FXYq7FXYqlHmmLnpLN/vt1b7zx/42zn/abHxaQn+bIH9H6XO7OlWX
3h89fnrZ8rDSr0D+6llhJ/4yqGH/ACbOaL2WyVOce8A/L+173sOe8o+5409xCjcWahHahztBEu9n
qIRNE7tfXLf+f8D/AEw8JYfmsff97vrlv/P+B/pjwlfzWPv+931y3/n/AAP9MeEr+ax9/wB7hdQH
o1e/Q/0x4SkanGev3u+t2/8AP+B/pjwlfzWPv+931y3/AJ/wP9MeEo/NY+/73fXLf+f8D/THhK/m
sff97vrlv/P+B/pjwlfzWPv+9SuLuMxFYzUnY7EbYYx3ac+qiY1Evd/yHs2g8lSTMtPrV5LIjU3K
qqR/8SRs4L2oycWpA/mxH6S81rT6x7n0HokXpaTar4oG/wCD+L+Odj2Nj4NJjH9G/nv+l43VyvLL
3o3Nm47sVdirsVdirsVdirsVdirsVdirsVdirsVdirsVdirsVQmsRerpd0n/ABWxH+xHL+Ga/tbH
x6XIP6J+zdv0sqyRPm8J/OK09fyVNL/yyTwzfe3pf8zM4T2cycOqA/nRI/T+h7vsedZ67wf1/ofN
8zcpXbxO2ekAbOfllxSJWYWt2KqsFs8u/RP5j/DImVORh08p+5GmFI4JAo/ZNT3O2V3ZdgcUYYyB
3FLcudO7FXYq7FXYq+ovyvsHs/IWiwN9p4PWA9rh2mH4SZ5d21k8TWZCP51fLb9Dp9VIHIS9whjE
cSRjoihR9Apnp+LHwQEe4APGSlZJXZYxdirsVdirsVdirsVdirsVdirsVdirsVdirsVdirsVdirU
iB0ZD0YEH6dsjOAlEg9Ug0beQecNHn1Xy5qWlw0+szwskIY8V9Rd0qe3xAZ5Poc3gaiMpfwy3/S9
npc3BMTeGf8AKjPPX8tr/wAjv+bc7f8A0TaX+l8nYfm8fe7/AJUZ56/ltf8Akd/zbj/om0v9L5L+
bx97Fr/y9c6TqU9hf8Tc2z8JFQ8lr16982+HVRywE4/TJ2+k08ZREzuC10yTsls39zJ/qn9WEc2G
b6D7ilWXuidiqZeXfL2oeYNVj0zTwhupQzL6jcVoiljvv2GYur1cNPjOSf0hjOYiLLL/APlRnnr+
W1/5Hf8ANuaj/RNpf6XyaPzePvd/yozz1/La/wDI7/m3H/RNpf6XyX83j730P5X0wWkelaaPiW2S
CCo7rEFX9S5xmm/f6yJ/n5L+Zt02ryemUve9Mz1Z5R2KuxV2KuxV2KuxV2KuxV2KuxV2KuxV2Kux
V2KuxV2KuxV2KseuPKIluJZRdcBI7MF9OtORrSvLOQz+ygyZJTGSuIk1w8r/AM52kO0+GIHDy8/2
Kf8Agz/l8/5J/wDN+Vf6EP8Abf8AY/8AHmf8q/0ft/Yk+rad+j7oQep6tVDcqcepPap8M53tTs/8
pl8Pi4truq/SXP02fxY8VU+YvzD/AOU11f8A4zn/AIiM7rsj/Fcf9V7zQf3Efcx3Nk5iyb+5k/1T
+rCObXm+g+4pVl7onYqzn8lf/JgWX/GKf/k02aL2j/xOXvj97Rqv7s/jq+o9G0b9Jet++9L0uP7P
KvKvuv8ALnIdj9j/AJzi9XDw10vnfmO55vVarwq2u0z/AMGf8vn/ACT/AOb83X+hD/bf9j/x5xP5
V/o/b+xE6d5YFneR3JuPU9Op4cONagjryPjmZoPZoafNHIZ8XD04a6f1i1Z+0OOBjw1fn+xPM6h1
rsVdirsVdirsVdirsVdirsVdirsVdirsVdirsVdirsVdirsVdiq2SSONC8jBEHVmIAH0nFIFvPPO
PmvyvDqYM2sWMY9NRV7mFd6t4tnBe0mly5NTcISl6RyBPe9D2bhn4fI8+58w+eNSsLzzdqdxa3CT
wTTVikjIZWBAGxGdL2XilDTQjIUQHvdFkiMUYk70kckscdOZpXpmeBbl5MsYcyoy3UBjZQ1SQQNj
4ZIRLj5NTAxIB6IDLXVOxVmH5Talp+m+drS7v7iO1tkjmDTSsFUFoyBUnxOabt7DPJpZRgDKVjYe
9p1ESYEB9U+SPN3lSU3Qi1qxct6fELcwkmnKvRvfNZ7LafJi8TjjKN8PMEfzu95TtTBP0+k9enuZ
zHJHIgeNg6HoykEH6RnXOkIpdih2KuxV2KuxV2KuxV2KuxV2KuxV2KuxV2KuxV2KuxVSu7y0s4Gn
u547eBPtSysqIPmzEDFlGJkaAtgmvfnz+VujlkfWUvZ1/wB1WKtcVp4SIPS/4fBbsMXZOon/AA17
9v2sMuP+cmptRd4fKXlG/wBUcbLJJUcT4tHAs/8AxMZXkzwh9RA95c+PYPDvkmI/jzpCP5y/5yT1
un1PS7LQoWB4yssfIf6yzyTtX/nnmvyds6eP8V+4fgNw0OihzJl+PKvvUH8h/ndq++s+entQ/wBp
LJ5gKEdCsQtV+jpmFk9ocY+mMj9n620ZdLD6cd+/9tqP/QvWnXDiTXPMt9fydWf4UPau8pnzCye0
cukYj3n+xsHaRH0QA/HwR0H5C/lpbLWQ3d3xpXnPuf8AkUsfXMPJ7R5qsGPwCPz+c9w+DyX81/Le
h+X/ADZZ2OjW31a1e0jmeMu8hMhllUsTIzH7KDptm97E1uTUYJTyGzxEfCg7rs2cpkGRs2h/y48u
R+ZPP2nafPGJbKBjcXiEVUxQjkVYeDtxQ/PMrtDUeDglIfUdh8fxbb2xqeGJrpt8S+iZvIX5dRPw
by9Y1pXa3j/pnFz7WzRNGcvm8xHNmkLEipz+Q/IKw808t2Q5GilreMfwyGTtfUCNiUvmyhmyk0Zn
5vnD8z/LkWgecby1t4/SspwtzaINgI5eoUDoFkDKPYZ2nYusOo00ZE3IbH3j9lF3unycUAU5/JPy
n5c80eYL/TtbtzcRx2ZngCvJGVZZUUmsbL2em+R7Y1OTDjEoGvVX2Fx+0M08cAY971S8/wCcf/y3
lZlSS7tG8I5127/7tSTNAPaHNE0TH4j+x18e0c1cgfglv/QvFnbv6mieZryxk6h+KufvieDMvH7R
y6xB9x/tZHtIn64AqyeRfz00ih0bzu12qfZju5Zm7UoEmW5T6K5mY/aHEfqjIfb+prOXST+rHXu/
ZSunnf8A5yT0MVvtItdbhGxkWONnNO4W1eJgfmmZ2PtfTy/ir37NZ0GinykY/jzRdr/zk+bGRYPN
flS90yXo7RGpJHWkU6wEfLkcz8eaM94kH3NM+wL3xzB/HlbNtB/Pn8rdYKomspZTt/uq+VrelfGR
x6X/AA+Tt1+XsnUQ/hv3b/tZ3aXlpeQLPaTx3ED/AGZYmV0PyZSRhdfKJiaIpVxYuxV2KuxV2Kux
V2KuxV2KoXU9W0vSrVrvU7yGxtV+1PcSLEg/2TkDFnDHKZqIJPk8t8xf85K+SbGb6poMFz5iv2NI
0tkMcRb+X1HHM/7GNhkZSAFl2+DsPNLedQHn+P0sO8yfmN+fmo6PdanDYQ+V9Kt4XmYlV+ssiipW
k3OQNTuI0+ea+Xa2ATEBK5SNbfrdjg7N0kZUSZy+z7P2sI/LPy+fzK12/PmvVL+8aziWZCZyxYs9
CCZBJRfZaZV2trp6eIMa373YaqY00B4cYi/J7Npv5dflzohC22iwSzJ/uydTcPyHflMXoflnH6jt
rNI0ZH4bOtOfPk5y2/HcnsurwWsBIWO2t4x1YhUUD/gQM1v5mczURZ+bAaezubX6fffpGyF9b3Mc
1nIrNDLAyuj0qKh1rtUeOTMcovjuNdORYzjGMuGt2Oeb/N1v5b0d9UvlmnhV1j9OIgsS52+0VFMj
oNJPV5PDEqNXu5mHDxGg81k/5yAmkkVLTy+zes3C3eS4pyNQKcRFTqf5s6OPsmALlk/2P7XNGiHW
T2+8jjgtkiWnIkFj3NB1zmM8RGNB0+KRlKy+avznu0l/MKRKg/VLaKNgO1UMtD/yMzuvZyFaMf0i
fvr9D0vZewBPmWd/842+XjHY6p5jnWjXTi0tmPXhH8cpHszFR/scxfaDPvHGOm5/Q6jtfNxSEfiy
v8zPMj6L5U1PUYpPTunX0bRgaMJJTwUr7oCW+jOa7K0/5jVxB+m7PuH4pjpcVkRZPomrReYPK1jq
sVKXluk/EfsuR8af7Fqrlmu05hKUP5pcAx8PIR3F5B+f+hetpVhrca1e0kNvcEDf05d0LHwV1p/s
s2fspqqnLEf4hY945/jydzop7mLHP+cd5zH+YDJv++sZ0NPZkff/AIDN928L0/ukP0p7TH7r4voT
Uv8AehylC1Bt2rTvnnmeuN1eD6Xi1p/zkGrENc6C6wKaSTRXHOlenwtGo/4bOqn7Jfzcnzj+12h0
Xm9b8ka5beZtDg1u19aG2nZ1WGSivWNihrxZh1GaXN2fPT5DCUrrudVqhwS4aFom41sWUDXF3cxw
W6UDSzsqICxCrVmp1YgDfMDFkyyPDH1Huq2XgA8grjUra7t+M0UdzbyDcbOjD5GoOWjVygdxR+TA
6cg7GmOat+Wn5a6wrvcaNHbydTLahrcgnv8AuSqE/wCsM2eDtzNAbSNee7ZDPnhsJW8R8/aafy88
yW0PlTVr+0eaAXDn1ijgF2VRyiEYYHgdjnWdjdoz1WMzkAKlW3u/a7bEBnh+8ES9NtPPP/OQXleO
N9S0+HzVphUMs8KhpCnX4TCEk6d3iOX4e1sEzXFwnz2/Y6ieg0eX6TwS/Hf+gsn8tf8AOS/kXUX+
ra3FceX70Hi6XCmWEN4epGvIf7JFzZCQLgZ+w80d4VMPU9N1XS9UtFvNMu4b21f7M9vIsqH/AGSE
jC6ieOUDUgQfNFYsHYq7FXYqxzzp+YPlTybZC6129ELSAm3tUHOeWn8kY3/2Roo7nFytLo8mc1Af
qeVXH5s/mv5z/d+R9CGj6XJsus39CxU/tpyHp/QqyZgantLDh+o79w3P497uodl4MO+WXFLuH4/U
hbf8lI7+7Gp+fNeutdvuvpeoyRAHqoYkyFfDhw+Wc9q/aKX8AEfM7n8fNyhreEcOGAiGdaFo3l7R
1+raDpkFotKPJGgUkeLvu7f7I5z+XX5M0tyZe/k42UzlvOTEvzgvZl8gazMKMzJFGAegWSdENPob
J9iE5NbC/P7AXO0cAJgPOv8AnG6Yx+db6Bvh9XTnYVrUlZoiKf7Fic672gj+5B/pfoLf2qLxg/0v
1vb/ADBA9zBewQStFJNE8aSxsVdGZOIZWBBBB6HOB4hHMJHcAh1+nNAW+bbHyo+v/l95i87X+rTz
6hosttAttLWUus8saBmldi1P3jUFO2esY8UYCogAeWztcmp4M8MQG0r391vffyi/8ldo3/GCX/k7
JnCds/38/wAdHT6z+/PvDFfzx/5QSX/mJh/Wco9mP8a/zS7HR/Wxn8ybnUpE/LGKzsJtR/Rmg6de
G3hRn5FwlUJRWI5egB9OehZYcUDHlYadAIg5iTV5JD8fNGz/AJh/nLc3FYfKRgVwCoubW6BIPcMz
xCn0ZyOfsXQ4j++yni94H2U5EMOCtpX7iHlXnC716/8AMl3dazbi31SYok8EYoAUjVAAtW/ZUd86
Ts/HihhjHEbgOXzt2WPHwQFfSX1V5U0RfLfkrTdJACywQKs1O80nxzH/AINmzg+09T4k5T7zt+Pc
8xOfi5TJ43/zkFrZaXS9DjY0UNe3CU2qaxxGviKSffm49k9NUZ5T19I+8/odzoYcyyv/AJxx8wC7
8r3miyNWXTJ+cS/8U3FWFPlIr1+eT7fwcOUT/nD7R+ynA7VxVMS7/wBDK/OugLq+hapo5AJuYmEH
LYCQfHET/quFOcvpM/5bUxn0jL7Ov2I0+WiJPmnyHe+ZdP8AM8Nx5ethc6tEkoS3kFQV4ESbckNQ
te+ej9ojDLCRllwwNbu6zwjKNS5PUYfPv5yRSO9z5Pa5gj/vPqttdEiu9S6tMAKA9s53F2Bo84Ph
ZJGvMH9AcCePAP4wPeQgPy6l1C28sfmhZ3ljNp4vdMe7jtpkdOHpmVSo5henq0+jOvxx4YgHeg0a
7hllwyBBqVfc9E/Ib/yWmnf8Zbn/AJPvnFdtf4zL4fc43aX98fgl35w/+S51f/o3/wCoqLNT7Pf4
7D/O/wByXM0v94Px0eTa75Vn8qeUfK3mPSdYuor/AMyxyM9tCTEV9IrXi8bBmFZBtTPScuGExUwJ
DzFuRg1Pi5Z4zEVB9MOgttNgtGk9SaNESRq1LFVoWJ9yO+eW6ucaIG2/J02O5TMnzl+frhvOdsP5
LCJT/wAjZT/HOy9lhWlP9c/cHfaL6Pi9i/L3z/pOt6Tp1lZXsU2pQWkCXNk1UkEkcSiWgcKWAb9p
ajOe7T0uoxZZS4f3ZkaPTn9nxdVqNJwkk8r5p75h8t+VtcUQ6/pcFy/GgmK/vFB7LKvGRfoOUYe0
cmA7Ex+5x8Uskd4Fgdz+SNzply2p+QPMNxpF519B5G4NTopkjo3H2dWzodL7RH+MX5j9X9jlHWiQ
4c0BIIm2/OX80vJbLB590H9Jaep4/pezARvmWQGFq9lIQ50Gm1+LN9Mt+7q40+ycGbfDLhPcfxf3
vU/Jv5p+R/N6quj6khuyKtYT/urkf882+1TxQkZmul1OgzYfqG3f0ZZi4bDfzQ/MODyXoaSwxfXN
b1B/q2j6eKkyzGgqwG/BOQrTqaDvkZSERZ5OdoNEc865RHMvPvK/5cLHct5p88uNZ803h9RkmpJD
b91SNPsEr4/ZXovieL7U7blKxA8MPtP7PwXez1G3h4fTAJ55k8/aFoUfLU7+KyqAUhBLzMpNAVjU
M5FR1Apmi0+DUak1iia7+nz5Li0ZlyFvMNY/PDU7yO5fyvos1xDbJ6lzf3KM6xrWhZo4iQo6UZpP
ozoNL7K9c0vhH9Z/U7COkjGhIgX0Z3+WvmS9n/L+HWtdu1NxePPK00gSFEiSQxrWnFQo4VzWdqYY
YcxxYY92wsuDqcN5ajyDB/zZ/MLypfeV7zRNOv1vL2d4gRCGaMKkiyE+rTgfs/sk5mdg9k58ecZZ
x4YgHnz5Vy5/NztNgkJAkbMV0qfzH5W8818u6Y+p6idIsE+rwxySgNdafbSsxWIcj8Z9vnnWa7Rj
UQ4CSBfRJMMmK5mhxS5+UizmHyr/AM5G+ZwS4h8vWcwpR2S3I8SOPr3Sn7swtP7P6XH/AA8R/pb/
AGcvscOfaGkx9eI/j3BU138pdR/L78mPOQvNUjvm1P8ARxaCKNlSNob1Nw7NVuXqb/COmbpx8XaM
dTqsdRrh4vtizD8ov/JXaN/xgl/5OyZwHbP9/P8AHRGs/vz7wxX88f8AlBJf+YmH9Zyj2Y/xr/NL
sdH9b2j8t/8AyXflb/tkWH/UNHno7yOt/v5/15fegPNn/HUH/GJf1nPO/an/ABof1B+l2nZv938X
ztp+iL5h/PiWCnO1srprq57iltQ0PsZeKHN9izeF2bE9ZRofH9j0mqz8OnH9Wvm9+1SSrpGP2RU/
M5xGrluA6LTx2t8m+eNZXXfN+sakjBrfm0VsynkpjiX0kZf9dU5fTnpPZmm8DTwgedb+87l6vQ4a
gfKJ+1O/yL8wHSfzAtIXbjb6orWUtTtyf4otvH1EVfpyvtnB4mAnrHf9f2Ou7QxcWI+W76Y1SPdJ
B3+E/rGed6uPIuk08ujwm30yPy9+fEamiWup+rcW5J/5aYnqNun79WUDOpyZzqOySf4oUD/mkf73
d3fFxYD5PozyZ/x+f88/+N8Hsh/lf83/AHzy/av8Px/Qo/mv/wCS08zf9s64/wCTZztHE7P/AL+H
9YPPvyG/8lpp3/GW5/5PvnDdtf4zL4fc73tL++PwS784f/Jc6v8A9G//AFFRZqfZ7/HYf53+5Lma
X+8H46KKflDqfnz8tfJN5Yauunz6XYsIYZI2Kl5JORcSo3JCOA/ZOemkWKLr/wCUo6fUZAY3xSQd
z5c/5yN8t8n9O28xWsYoPTKSn/Wp/o1wx+/NJn9ndLk/h4T/AET+ux9jlQ1+jydTA+f4ISTyTJda
7+d9hd+bdH/RiLbSrcWV9GViPG3eEF1uFFQzyCg8aZndn6IabH4YNiy2a6YjpT4cr3G4999E503S
dM0n/nJbVtP0y1js7GG2UxW0KhI152cLtxUbCrMTmJ27/i594aY5JT0MZSNm/wDfF6lqf+9I/wBU
fxzzrVfV8GnT/S8W8uf85ARNxXXrBoGqFN5ZVZKk943PJQBuaOx9s6nVeyshvhn8JfrH6na5ND3H
5vVdA866JrtsW0+8h1CEr+9jBpIqnb95GwDLX/KXfNDmhqNMayxI8/1Hk63LpDE9zH/Mn5O+R9fc
3VgDoeqA81ntAFTkNwWhqE67/BxPvm20Xb+SGxPEO48/n/azx6vLj2l6opNpHn780PIPmfSvLeu3
cPmTS9UnS3s7mV2MwDSLHX1aGSq8xUOG9jnW9n9pY9VEmHTmx1HZ+DNjOSIMJAX+B/Ymlncjzd+e
+t31wfUsvKcX1HT4TuEn5FHenSvMS9v5fDMLt/OY4hEfxH7A144eDpIgc8m5/HyZvqLk3JB6IAB9
Irnn2oJM6TgHpeU/kX5I8u/mDd635n81wPqN7HdqEgeRhAOa8hVVozBdlVS3Gm1M9Y0+COKAhH6Y
hs7Y1mTBwwxmgR8Xp/5y6TDaflVqGjaHBaadHctBCicoLK3jT1keQlnMcajghHjlxdP2ZkMtSJzJ
lV95PJ8yLbeT7ZIIPMPmG81hLYFYbDSEJhjB3Ki4vPTVf+ecLD3yuOOMSSALPPzesM8svoiI+cv1
D9Yeh+RPzG/ILSLuKN/Kk1q9QBqd2Ev2Vq/bYMSU/wCeafRljrNXotZMfWD5D0/j4vpiwurG8s4b
2xkjmtLpFlhnioUdGUcWBHUccLyk4mJo8wiMWLzr/nIX/wAk/r//AEaf9RsGAuz7G/xqHx/3JST8
ov8AyV2jf8YJf+TsmcB2z/fz/HR2ms/vz7wxX88f+UEl/wCYmH9Zyj2Y/wAa/wA0ux0f1vaPy3/8
l35W/wC2RYf9Q0eejvI63+/n/Xl96TfmDqMGmm51C4NIbS1M0nuIwzUHuaZwHtFhOTWxgOcoxHzJ
dt2XHihX9J5Z/wA486VPPDrfmy9FbrU7gxI5FNgfVmYezO4H+xzP7cmI8GGP0wH7B9jse1Mm8YDo
zDzprtnpei3uo3k0lvB8MRnhUPJH6zCJXRW2Ypy5U9s5jQ4ZajUgAXvfy3+3kxwYzsBzYdD/AM46
+SZraK5i1q8kgnVXhmVoOLqwqGU8NwRnTz9ocsDUoxHz/Wy/lPJdcIv4q1t/zj15VtbiK6tdbvY7
mB1lgk5QHi6HkrU4DoRlZ9opSBBEKP471PaWQijH73qt36ctu6h1LAVFCOozns1SiRbrsdiTAfPX
5WTebn0+9t9R/Rd9p5YxTCMuzBirL8SsjKUZar882HY2uOnjKMo8UZ9Px3ufj1wxWKsFgUR/MTyr
+YuheWU813d4dUuLb1yskhX0pLj0zy9UvWgVs63sjNhyxlPFAQF0arevd72/MMWXBKZgPSD9z6E/
Nf8A8lp5m/7Z1x/ybObh5Xs/+/h/WDz78hv/ACWmnf8AGW5/5PvnDdtf4zL4fc73tL++PwS784f/
ACXOr/8ARv8A9RUWan2e/wAdh/nf7kuZpf7wfjo9J/Jj/wAlb5b/AOYRf+JNnp4eY7T/AMYn72aY
uCw385LAX35YeZIuPIx2Uk42qR6FJv8AjTEud2bPh1EPf9+zxD8hvI96bmy85i9Sa3kjuLae1YMJ
UZT6aUb4gw4qDvSmcx23rRRwkb7G3pu0dQKOOu57Fqf+9A/1R/HOH1X1fBwtP9Lyf/nGCfyvcWXm
DRdbezle/ktjBp956besFWQHhHJ9unLsM9eDPt0ZAYThe17jpyZF+an5GeT9J0LUfNnl6a40K/0y
J7lI7d2aFmXsoJ5xljsCrUHhkZwjIURYcbs/tbLKccc6kJbeaJ/KO/1LUvy8g1LVZzdXcrzIk7gc
vTjf01BIAqfhO5qffPPu2tNixZZCERHb73M1m2bhHJi/nVhP+b3kG05qDFeQT06tvdIdxXofSoM2
3slH91M/0v0ftbztp8h/on7kR+TbM35hef2Yksb1iSdySbmfMj2i5Q+P6GnWf3GP3foD0q//AN65
Po/4iM4TOf3hasP0h4n+W9r+dnl+11LQPL2lrpxurgNc6tex8RHwBSsJl+B1PWqo+enZO1tPCPFx
XfQbn9nxcvWw02WQnM3Q5D8fqZZb/kqt/dLqXn3X7rXb3qYfUZYhXqoZiZCv+pwzRar2il/ABHzO
5/HzaRreEcOGAiGc6Ho3lnRgtvoulw2tNucUahztSrOau23djnP5e0Z5pbmUnGy+JIXOSVedPLVj
5l026sNRhRpWVhbzEVaGSnwOjdRQ0r4jY7ZTpNflwZxIHruOhHc5WnnwUY8kL/zivrNzd+Rr7T53
Lrpt6y29f2YpkV+A/wBnyP056qHW9v4hHMJD+IPaMLonnX/OQv8A5J/X/wDo0/6jYMBdn2N/jUPj
/uSkn5Rf+Su0b/jBL/ydkzgO2f7+f46O01n9+feGK/nj/wAoJL/zEw/rOUezH+Nf5pdjo/re0flv
/wCS78rf9siw/wCoaPPR3kdb/fz/AK8vveV/85O601npMOlwkm51Zo4gi/aMUTc3pTf7XBfpznp6
bj7S4zyx4x8zYH6Xf9gwuJPcWUeVNEXy35K07SQAstvAqzU7zSfHKf8Ag2bOV7T1PiTnPvO36Psa
5z8XKZebyT/nIDWv3Ol6FEw5Su13cJvUBaxxfQxZ/uzaeymm3nlP9Ufef0O50GOzfwYv5V/N/wAy
eXdEj0hrRL62tmY27zFw0aNuUBHVQdx/TNv2h2Hi1M+MyMT5ORm7OuRlRHemv/Qwmtf9Wm2/4OTM
L/Qni/ny+xo/Ijvep/lN52h846Xd3c1stte2UwikhVi68WQMjioFKnkKe2ajXdkR0kxR4gR1dZr8
ZxkAHYsjuozFLIgFaH4R+Izn8kalSMcrALyHyDqp85/n7pl+baS3g0yCQtbzU5oYIXB5U6Unlz0/
sjQ/lsIhYlZJsef7HI7RHhaSQ7/1/qe8/mv/AOS08zf9s64/5NnNq8x2f/fw/rB59+Q3/ktNO/4y
3P8AyffOG7a/xmXw+53vaX98fgl35w/+S51f/o3/AOoqLNT7Pf47D/O/3JczS/3g/HR6T+TH/krf
Lf8AzCL/AMSbPTw8x2n/AIxP3s0xcFLvMlgdQ8vapp4HI3lpPBx619WJkp0Pj4YtuCfDOMu4h87f
84/eaLVtGfy2txx1QXM1zDBxahgKR1PKhTZuW1fozi/aTS5fEGSA9FUTtz3ex7Qwji4zyp67Oyx3
A+sKJW4ipGw79u+ctkIEvUL2ddAXH07MN8w/k7+XnmDnJDbfoq9f/d1nSIV94jWI+9AD75vtJ29l
htxcQ7pfrb4avNj5+oPNvzAj/MTyXpX+F5/MX6Y0LWwYYbaXk0qiJkag9TkYtyuyyU9s6vs/tOOp
sAUY1fx/sczTQw5ZeIIcMo/j4/JOfJf5kReUNJtvJvmvTLnRJrMPxuJY3YOHlaUsy05gFmoCoYHx
zS9s9jZ8s5TxkS4unI/q+5GTTjLLxYEStWlubLVfz98nT2FxFc27QI6zRMHQ+m9y5oVrv8OZfszh
njwSjMGMuM7H3Ra9QDHSTv8AHJFfk3LGn5j+fIGakzXcjLGepCXUoY/QXGR9ogeGB8y16wfuMZ8h
9wep3RgjvfUarmgJQeI2Fc4jKYxyWd3FxgmFBLNe836ZpNsbjUryKwg34l2AZqb0QfaY+yiuW4Y5
9QeHFEn3fpPRtxaW+Qt5rqX52C9uzp/lHSbnWr96iJyj8SezLEgaVxU9+Ob3Seys5b5pV5Dc/Pl9
7nDSiIuZEQyf8mfPGpearLU21O3igvLGZErCrICkgJ4lXZyGVkNd8h2l2Xj0khwX6h1cPtHEIEUd
iy6+/wB6ZP8APtnN5v7xjh+kMK/5xK/5R3Xv+YuL/k1nsAcf2i+uPue84XnXhH59/m35KvPKeu+T
rO5luNaMsdvKqROI45ba6jeVWdwoNPSYfDXfAXoeyOzssckcpFR/WE3/ACjBH5X6MCKH0JTv4GVy
M4Dtj+/n+OjdrP78+8Jd+Y3lPWPNHlh9M0pEa4M0b1kbggVSa1O+YPYOojhz8cvp4S5eHPHHK5PJ
/NGt/mv5UutN8tah5nntrZLaFLdrCZ444oFPoqvJFgJKCPf9ed9o+0IaiBljv0mnKxabT5LmIAkn
qP7Xomm/kbcR67Yaxr/mifV5bGWOdYp42NfTYPxLyTSHiSB2zn9R2/xRlER4eIVd/scKXaA4TGEO
G/x3PSNSnV2REIIG5INd85LVZAaAcXBCty+WfzC1j9NefdSuVYtb2r/VYASCAsH7s8afss4Zx889
E7J0/g6WEepFn47/ALHrOy8NV5bpHN/cyf6p/VmwHN3Ob6D7ilWXuieq/wDOOmufUvOc+mO1ItUt
mVF8ZoP3i/8AJP1M0fb2HiwiX80/YfwHW9qY7x33F9CajDyljZaAsKGpA6ZwWphZDqME6BeZa3+S
Ez65ea/onmWXR7m6dpXSFGqGkIaQCVJY2ozValM6fR9v+DhjCQ4uEVd/sc2OvBAhKHEPx5MG0Kb8
2/NN5rnlew8zS31rbJLDdm+nkeOeL1DEeLOsxHLr16d86PN2jDFjjOYPr+za3Iy4tNi4ZmAB8g9p
/Kvy3qnlzyXaaTqaql5BJMzhGDrR5WZaEexzkO0tRHNmM48jX3Or1mWOTIZR5Mb/ADgBP5c6vTf/
AHn/AOomLMD2f/x2H+d/uS7DS/3g/HRM/wAkvzg8kv5e0DyhLPNb61HGtqkckTenJKWJAR05jf8A
yqZ6cC6ftTs3Lxzy1ceb2nC6J2KvnSG1tbX/AJyf1iC1hSCFbZCsUShFBaygZiFUAbsSTml7d/xc
+8PWY5E6GJO+/wDvi9M1P/ekf6o/jnnWq+pq0/0vCvLX54a+lqZtb0pr6wgZY59StEKFGYEj1Af3
RZqbCqZ2Or9lcct8UuE9x3H6/vdtk0kboGj3LvMfmjRPPHnnyPa6XI0sYvYluUkRkaMzzxBlatAa
LH+yxGZfYHZuXSiYycyR8aYGBxYchP8ANP3PqDXvLeg+YLJrHWrCG/tWrRJkDcSe6N9pD7qQc6N4
rDnnjNwJBec6F/zj7oflz8wdM80aFdvHY2jTNNpdwPVp6sEkamGX7Xws4NHqf8rBTtMvbE8uGWOY
3Nbj39WDfmZ+Vf5h6H59uvOPkeOS4ivpGuJFtuLTRSy7zI8Lf3iO9W2B9xsCas+CGWPDMWHY9n9o
4Z4Riy7Ebb/Ykup61+eb2nrapHB5atBUS396sVpy23oJy7sd+kScvDNPj9ndLGXEYmXvLmwnprqJ
4z3Df7v0qv5Rfl35L87eYb9tY1K98wzWMUctzckvBbyM7FFQPITcyCik8j6Z7cc3WPHGA4YgAdwc
ftLXZsEBwgQv4n9X3vpXQ/Lmg6DaCz0bT4LC3FKpAipyI7uRux92NcseVy555DcySXgX/OOqNw8z
y0/dveRhX7Ej1Caf8EM5T2iPqh7i9X2n/B7npGpSJHNPI7BUQFmY9AAN84rILy0O9pwj0hiX/OJt
rKnlLWboikc1+I0PiY4VLf8AJwZ6+HF9oZfvIj+j+l7mzKqlmICgVJOwAGF598zfkYlnqN/5q8yX
kCTy3V4ptmkRSys7SSycSRtXmtaZyntLquDhF9/xe01sSBDGOgep6j5itrSBpLyeC0gp8Ukzqigf
6zEDOQjky5doRJ9wJcOGm32ssYvvzY8k2AWOXXICD0FtynH0mBZPxzLxdk62Y2gQPOo/fTkjRyO/
C8b/ADg84+XfM11pr6O7ytarKk8rxmMEOUKBeVGNKNWozrOwOz82mjIZK9VVv8/0Oy0uKUAbZVJ/
zkJE6xJb6LNeT8FErPMIyWVQCQFSWu9c1s/ZcykZSyCIvu/aHHjoK6oK+/P3VuMsMOgi2npxBllZ
yhI6lfTTLMXsri2JycQ937S3Q7OJ33PweX2cbLGWYEMxqa9c6mZei0mMxjvzKrN/cyf6p/VgHNvz
fQfcUqy90SYeX9autD1uy1e1oZ7KZZkU9G4ndT7MKg5TnwjLAwPKQYZMYnExPV6rbf8AOQmqXMoV
9AF1OQfhhnYE032X0n2Azls3stDmcpHvA/WHC/IADYouD/nIKwXkt/olxbyCvFI5Vk7bV5rFT7sx
peykv4cgI91fpKDoT0LHfyZ89+X/ACu+ryaxcPFcah6Iim9N5ABHzLkleRqxcdu2bjtzRZ80YjEB
tfWu5nrNMclVyD13TvzY8m3gJg163UA0IuSbf/k+I85PJ2ZrsfOEj7vV91uvloiP4WRadq9pLAJb
RobiFhtLEwcMD/lAsMwOKeI1KNHz2LTkwkne3lX5pi10jzv5N8wW1tHbsl+HupIkCchFNC6hyoHL
bl1zr/ZfVSyeIJG64a+1zcMeLDOF36f0F9OZ1zxLBfzp856n5Q8iz6tpbpHqBuIIYGkUOvxPyccT
1qisMS7DszTRzZhGX00Xi35d33mrXfzfXzTr2mtZvq1j6iSpDJHbyKttGiNEzlgeSID9o5oO2s0J
YCAQSJB6TUY8ePT+HA3wn483smp/70D/AFR/HPP9V9XwcLT/AEvO/wDnEpEk0vzPHIodHltVdGFQ
QUlBBBz14MfaI1KHx/Qzbzn+XXkfy8k/n7TdHSDV9BR9QSC2c28ExiUkq8aq6Dapqqg164uv02tz
ZKwyl6Z7b7kLvJX/ADkD5A8y+nbz3P6F1F9vq18QiFvCOf8Au29uXEnwxtdV2PmxbgcUfL9T0sEE
Ag1B3BGF1Txbzh+bPnrUfN+o+SvI2mxRXtgSt3q10ytwAoC6IfhUAsOvMn+XMXVauGCPFMu/0nZm
IYxlynY9B+P1JNB+T0E12NV876rceZNYf/dcjuIEA3A3PNgOw+Ff8nOS7Q9o8lcOMcN/P9TsYarb
hxREIMG/KT8xdV8vPr0Xljy6+q6trM8bwooYQW8UZkKc1jHSsp7qKd8645Y4YDjlyHMt3aOhjmMT
OXDGP2s4uPJ35u+cwZPOnmP9E6a+7aRYEAcf5HEZWM/NmkzTan2gxx+gcXmdh+v7nEhPTYf7qHFL
vP4/Uzby5oug+VNGTSdFjIiUl3djyeSRgA0kjbVY0HT5DbOS1vaRyyMpG5fYGrJx5ZcU3n35leb5
b0nyX5cB1DzDq7G2njho3pI+0isfshmWoP8AKtSabZsuwOyJzyDPkFRG48z3+4c3YYYCA8Se0Iva
vy68nQeT/J+n6FGwklgQvdzL0knkPKRh7cjRfYDO9eT1upOfKZ9/L3Jn5kS+fy7qiafGZb9rOcWk
SkKWmMTCNQWKgVanUjFqwEcceLlYt84eV/8AnHz830tfq76zHoFm7mSS3iuZGcuwCklbf4G2UdXz
GyaTFklxTjGR8xb1WbtvTg7AyPu/WynTP+cT9BD+rrev3l9Kx5SG3RIKk+Jk+sE/PLxEDYODk9oZ
/wAEQPfv+pl+mf8AOPH5UWPEtpLXki0pJczzPWniiskZ/wCBw04WTtnUy/ir3AMn0/8ALvyHp9Pq
fl7ToWHSQWsRf/gypb8cLiT1uaXOcvmUs8y29vb6gscESQxiJaJGoVepHQZ537U/40P6g/S7bs6R
OPfvfLP5h/8AKa6v/wAZz/xEZ1HZH+K4/wCq+h6D+4j7mO5snMWTf3Mn+qf1YRza830H3FKsvdE7
FWc/kr/5MCy/4xT/APJps0XtH/icvfH72jVf3Z/HV9ZeVLe3uI7yOeJJoz6dUkUMOjjoc1Xsh/lf
83/fPI9pyI4a8/0IjUPy78h6hX655e06Zj1kNrEH/wCDChvxztHAhrc0eU5fMsY1P/nHj8qL7kV0
lrORq1ktp5kpXwRmeMf8Dgpy8fbOpj/FfvAYlqH/ADiloiy+voPmC90+dTyiadEnKn2aM27DBKAI
o7hzcftDP+OIPu2/WxXzV/zj/wDnBLZi2GsReYLSN/ViiluHWYOBxqPrA4rsegkpmPi0eLHLihER
J7hTnYe29Pe4MT7v1fqfS+nNdtp9q14np3bRIbiMkHjIVHMVUlTRvA5lPJTriNcnif8AzllqHp+V
NF0+tDc3zT08RBCy/wDM/AXfez0LySl3R+8/sZN5b1jT/wBDWUOmzQ3llawR26SwOrr+6QJ9pSw/
Zzy3V58kcsuOJFnrsXIy6ckknYlHytFdThuYiFAPi/zpmHMxySu6REGA5W8p038vvzU/Lye4vPI2
pwalZzlWuLGVERpQleIZHqpoGO6SKc9A03b+Kf1jh+0OTlzafUgDKCCOv4/Uml7/AM5Aw3nl/WPL
PnXRbjQtVvbG5tRKiuYGaaFowSjD1UUltqc/nm6x5YzFxII8nEj2MYzjkxSEoiQPnz+X3JB+VnkP
yh5u/LcnVbMfW7W5nhF9AQlwuyyD4hs1BJsHBGc12rr8umz3E+nhBrp+Pc7DV6jJjzVE7EDboi9B
u/Nv5c+evLfl6116W/8ALWtXaWy2dynL00eVIyqgl+BrIKFCB4jNl2T2qNXEmuExadXgx58U5mNT
iLsJj+WB+s/mv+Yl4u6JfSRArupBuZQDX3EeYXtEfTAeZYajbTYh/RH3B6PdRwyXUnrmkIABXu23
TOInXiWTsGiBIiK5oFbrRNB00paQ22labCKs1EhiXtyP2VHzOXT1eXNOogykfiWYwymbkTIvPvMX
55+WrWQwacs2tXhPFBFVIeVacebCp9uCEHNppvZvU5t8h4B8z8v2ufj0Rrf0hC2ejfnv57ISO2/w
to0n2p5Q1vIUJBH2q3DGn8oVT3zpdH7PabDuRxy/pfq5fe05dbpcHXjl5b/seu/lp+UXlryHbM9m
DeavMvG51OYAOR1KRqNo0qOg3PcnbN7Tz2u7Ryag77R7mc4uvdirsVdirsVdirDvNn/HUH/GJf1n
PO/an/Gh/UH6Xfdm/wB38Xyt+Yf/ACmur/8AGc/8RGdR2R/iuP8Aqvomg/uI+5jubJzFk39zJ/qn
9WEc2vN9B9xSrL3ROxVnP5K/+TAsv+MU/wDyabNF7R/4nL3x+9o1X92fx1fW3kz/AI/P+ef/ABvm
q9kP8r/m/wC+eQ7V/h+P6GS52jqHYq7FXYq7FUj81+R/Kvmy2jt/MGnR3yQcvQZiySR86cuEiFXW
vEVoe2LkafVZMJuBp5VrH/OL+nQzm98oa9eaNeCvBJCZFFf2VkjMUqD58sryYozFSAI893cYe35c
skRIfj8dEgu7X8+vJp/3I6cnmfTE63FqDJIEUb0MapKPdpImzQ6r2a02TeNwPly+R/RTsMWr0ubk
eA+f4r7UX5c/O3yveusF5JJo17UK8VyP3XP9oeqPhoPFwuc5qfZ7VYd8frj5c/l+q23Loj/WDOLo
aD5g09Y9TtbfU7GVeUTkLKpDD7SNvT/WU5r8Wuy4Zb3GQ+HzDheHKBuJILXlTynoPlvTr2y0QyLZ
3UrXJt5HLiN2RUIUt8dKIPtE/PMvVa6WpFyIJEaYZss5yBnzDzn8z5jB53/L6cEKYtS5gnoONxam
pzbeyJ/vP83/AHzscYvDkH9H9BQn5XebNC0W586a1qt7FbLfahWIuaNJxeZzwiHxtT1egGZvb+LL
llCOOJlLf7a5nkjUaeUxjiByj+pUn/NPzV5ovX07yDoc97MdnvpkqFrUcuNRHGO4aR/9jmJo/ZYf
VnlZ7h+k/q+bKWHHhF5ZABO9H/5x08ya/cJqP5h6/JK9eQ0+0YMVB6j1GHpR+6xxke+dTp9Jiwx4
ccREeX43ddn7djDbDH4n9T1zyr+XPkryqijRNJht5gKG7YepcHxrM/J9/AGmZLo9Rrcub65E+XT5
MkxcV2KuxV2KuxV2KsVufNd/HcyxxxxGNHZUJDVoDQV+LOE1HtRnhklGMYcIkQNjyv8ArO6x9mwM
QSTdfjop/wCL9S/31D/wL/8ANWU/6LNT/Nh8pf8AFMv5Mx98vs/Ulmo6hNf3AnmVVcKFogIFB8yf
HNLr9fPVZOOYANVt/aXMwYBjjwh8zfmH/wAprq//ABnP/ERnf9kf4rj/AKr3Wg/uI+5jubJzFk39
zJ/qn9WEc2vN9B9xSrL3ROxVnP5K/wDkwLL/AIxT/wDJps0XtH/icvfH72jVf3Z/HV9P6Zq9zp3q
egqN6vHlzBP2a0pQjxziuze1suk4uARPFXO+l9xHe89qNLHLV3sjv8X6l/vqH/gX/wCas2f+izU/
zYfKX/FON/JmPvl9n6kVpfmW9ur+G3mSJY5CQSoYHoadWPfM7sz2jzZ9RHHMQEZdwN8vf3tOo0EI
QMgTYZJnZupdirsVdirsVdirG/NX5c+SvNSMNb0mG4mIoLtR6dwPCkycX28CaYuVp9blw/RIjy6f
J5Rqn/OPnmry7K97+XfmGRFJ5Npd6QA2384Bic+HOMU/mzE1Whw5xWSIl9/z5u7w9uQntmj8Qk0H
5o695evU03z/AKJPpNyTRL6FGMTdKtxqwYDu0bt8s5TW+yxHqwS+B/Qf1/N2McWPKLxSEgl/5qax
pGp23lfWtLnivYINQUCWNgSpYI/Bh9pSeAqCK5P2awZMGbJDIDE0PsLZggQJRO2zMPJP/OL2jWrL
fecLs6resebWVuWjtgxNTyf4ZJP+F+RzsqdLqu3pHbEOEd55/j5vatM0rTNKs0stNtIrK0j+xBAi
xoP9ioAwuiyZJTNyNlFYsHYq7FXYq7FXYq7FVssgjieQ9EUsfoFcryz4IGXcLZRjZAeOedtWn0vy
tqWoQSencRRfupNjR3YIp326tnlXZuEZtRGMtwTv972uhxCeWMTyeH/8rN89f9XV/wDkXF/zRndf
yJpP5g+Z/W9T/JuD+aHf8rN89f8AV1f/AJFxf80Y/wAiaT+YPmf1r/JuD+aGP39/d395LeXkhluZ
25SyEAFj40AAzY4sUccRGIqIcuEBECI5BQyxmsm/uZP9U/qwjm15voPuKVZe6JtVZiFUVJ7YGUYk
mgnWg3moaLepqFjOYL1AypIoBoGFDswI6Zi6nFDNHgmLi7DHoYkevdkn/KzfPX/V1f8A5Fxf80Zr
f5E0n8wfM/rT/JuD+aFsn5n+eljZv0s+wJ+xF/zRhHYmk/mD5n9bGfZ+CMSeEPobynqbXVjo+pv1
uIre4bp/uxVc/rzhsdYNYO6GT7pPG6rHtKI83qOervJuxV2KuxV2KuxV2KuxVC6npWmarZvZalaR
XtpJ9uCdFkQ/7FgRizx5JQNxNF4p54/5xc0W853nlC6Ol3e7CxuC0lsx6gK/xSx/8N8hgp32l7en
HbKOId45/qP2PdcLzzsVdirsVdirsVdirsVdiqC1qX0tKum8UK/8H8P8c1nbOTg0mQ/0a+e36XI0
kbyx97wf85rz0PJphrvdXMUVPZayf8y84n2bx8Wpv+bEn9H6Xu+xoXmvuBeEZ371bsVdirsVWTf3
Mn+qf1YRza830H3FLobd5TtsvdstMqdRhwSmduSYRQpEKKN+57nKibdtiwxgNlTA2uxVQvGpAf8A
KIGShzcXVyrGfN9G/lVevd+QNHlc1dI3h61oIZWjX/hVGebduY+DWTA77+YBeQ1QrIXuVvL6tvFL
/vxFb7xXPS9Pk48cZfzog/MPGTjwyI7lTLmLsVdirsVdirsVdirsVdirsVdirsVdirsVdirsVdir
sVSfzVLw0rj/AL8kVfuq3/Guc77UZeHS1/OkB+n9Dn9nRvLfcHzx+e97xttJtK/CzTTP7cAqr/xN
s03srj9U5e4fe972HGuOR8niL3kxclWovYUGdsIBy56uZOx2a+uXH8/4D+mHhDH81k7/ALnfXLj+
f8B/THhC/msnf9zvrlx/P+A/pjwhfzWTv+5prqdgQW2Ox2H9MeEIOpyEUS4XU6gANQDoKD+mPCFG
pmBQP3N/XLj+f8B/THhCfzWTv+531y4/n/Af0x4Qv5rJ3/c765cfz/gP6Y8IX81k7/uWSTyyAB2q
B02H8MIADCeaU9iXvn5B3nq+ULm3LVe2vXAXfZHjRh97cs4D2qx1qBLvh+k/sdPrh6gfJ9DaFL6m
kWzeC8f+BJX+Gdb2Jk49JjPlXy2/Q8drI1lkj82rjOxV2KuxV2KuxV2KuxV2KuxV2KuxV2KuxV2K
uxV2KuxVjnnGX4LWLxLMfooB+vON9rsnpxw95+523Zcd5F8vfn3qQk8z21kjVEFqnMeDO7MfvXjm
T7LYq05l3y/U9nopcOEj+cfseX507Y7FXYq7FXYq7FXYq7FXYq7FXsP/ADjzeoLjWrIn45EgmRfZ
C6uf+HXOO9rcZ4ccu6x86/UXB1w2BfTPlOXlpjJ3jkYfQQD/ABzO9lsnFpiP5sj+gvIdpRrJfeE6
zpXXuxV2KuxV2KuxV2KuxV2KuxV2KuxV2KuxV2KuxV2KuxVi/mi2vbi+j9GCSSNIwOSIzCpJJ3A+
WcP7TafNlzx4ISlER6RJ3s/sdz2fkhGBsgG+9j8vl2SZzJLphkc9XeAsdvcrmgjotYBQhlH+bJ2I
1cBymPms/wALj/q0f9O//NuH8prf5mX5ST+cj/PH+md/hcf9Wj/p3/5tx/Ka3+Zl+Ul/OR/nj/TO
/wALj/q0f9O//NuP5TW/zMvykv5yP88f6Z3+Fx/1aP8Ap3/5tx/Ka3+Zl+Ul/OR/nj/TO/wuP+rR
/wBO/wDzbj+U1v8AMy/KS/nI/wA8f6Z3+Fx/1aP+nf8A5tx/Ka3+Zl+Ul/OR/nj/AEzv8Lj/AKtH
/Tv/AM24/lNb/My/KS/nI/zx/pnf4XH/AFaP+nf/AJtx/Ka3+Zl+Ul/OR/nj/TO/wuP+rR/07/8A
NuP5TW/zMvykv5yP88f6Z3+Fx/1aP+nf/m3H8prf5mX5SX85H+eP9MqQ+X5oGLwaa0TkULJAVNPC
oXIy0WrlsYZD/myQdVA85j5sg8vJqVrHMpgdOTx7SRv0JIYjdemdF2DDU4IzHBKNyj9UZe493J1u
tOOZG97HqE5028vbguLm3MHFVoaEVO9ev0Z0XZ2rz5SfFhwUB37ne+fwcDPihH6TaOzaOM7FXYq7
FXYq7FXYq7FX/9k=</xapGImg:image></rdf:li></rdf:Alt></xap:Thumbnails></rdf:Description><rdf:Description
             rdf:about=""><xapMM:DocumentID>uuid:DB4A57ACEC78DD1197C19659C283F713</xapMM:DocumentID><xapMM:InstanceID>uuid:DC4A57ACEC78DD1197C19659C283F713</xapMM:InstanceID><xapMM:DerivedFrom
               rdf:parseType="Resource"><stRef:instanceID>uuid:5473c34b-66fb-4d09-9097-8bb636ad100c</stRef:instanceID><stRef:documentID>uuid:d1ccc7b5-cb3e-4adc-9428-dae14c7d7b59</stRef:documentID></xapMM:DerivedFrom></rdf:Description><rdf:Description
             rdf:about=""><xapTPg:MaxPageSize
               rdf:parseType="Resource"><stDim:w>612.000000</stDim:w><stDim:h>792.000000</stDim:h><stDim:unit>Points</stDim:unit></xapTPg:MaxPageSize><xapTPg:NPages>1</xapTPg:NPages><xapTPg:HasVisibleTransparency>False</xapTPg:HasVisibleTransparency><xapTPg:HasVisibleOverprint>False</xapTPg:HasVisibleOverprint><xapTPg:PlateNames><rdf:Seq><rdf:li>PANTONE 121  PC</rdf:li><rdf:li>PANTONE 187  PC</rdf:li><rdf:li>PANTONE 123  PC</rdf:li><rdf:li>PANTONE 202  PC</rdf:li></rdf:Seq></xapTPg:PlateNames><xapTPg:SwatchGroups><rdf:Seq><rdf:li
                   rdf:parseType="Resource"><xapG:groupName>Default Swatch Group</xapG:groupName><xapG:groupType>0</xapG:groupType><xapG:Colorants><rdf:Seq><rdf:li
                         rdf:parseType="Resource"><xapG:swatchName>PANTONE 121  PC</xapG:swatchName><xapG:type>SPOT</xapG:type><xapG:tint>100.000000</xapG:tint><xapG:mode>RGB</xapG:mode><xapG:red>255</xapG:red><xapG:green>228</xapG:green><xapG:blue>109</xapG:blue></rdf:li><rdf:li
                         rdf:parseType="Resource"><xapG:swatchName>PANTONE 123  PC</xapG:swatchName><xapG:type>SPOT</xapG:type><xapG:tint>100.000000</xapG:tint><xapG:mode>RGB</xapG:mode><xapG:red>255</xapG:red><xapG:green>202</xapG:green><xapG:blue>56</xapG:blue></rdf:li><rdf:li
                         rdf:parseType="Resource"><xapG:swatchName>PANTONE 187  PC</xapG:swatchName><xapG:type>SPOT</xapG:type><xapG:tint>100.000000</xapG:tint><xapG:mode>RGB</xapG:mode><xapG:red>184</xapG:red><xapG:green>18</xapG:green><xapG:blue>55</xapG:blue></rdf:li><rdf:li
                         rdf:parseType="Resource"><xapG:swatchName>PANTONE 202  PC</xapG:swatchName><xapG:type>SPOT</xapG:type><xapG:tint>100.000000</xapG:tint><xapG:mode>RGB</xapG:mode><xapG:red>131</xapG:red><xapG:green>11</xapG:green><xapG:blue>44</xapG:blue></rdf:li></rdf:Seq></xapG:Colorants></rdf:li></rdf:Seq></xapTPg:SwatchGroups></rdf:Description><cc:Work
             rdf:about=""><dc:format>image/svg+xml</dc:format><dc:type
               rdf:resource="http://purl.org/dc/dcmitype/StillImage" /><dc:title></dc:title></cc:Work></rdf:RDF></metadata></x:xmpmeta><?xpacket end="w"?></metadata><polyline
     points="519.1953125,526.71875 215.03125,526.71875 233.9296875,400.65625 285.0625,400.65625   285.0625,126.0234375 233.9296875,126.0234375 215.03125,0 519.203125,0 500.2890625,126.0234375 449.1640625,126.0234375   449.1640625,400.65625 500.2890625,400.65625 519.1953125,526.71875 "
     id="polyline5"
     style="fill:#ffca38"
     transform="matrix(0.37969803,0,0,0.37969803,-6.5998636e-5,-1.5258789e-5)" /><polyline
     points="429.8125,420.0078125 429.8125,106.6796875 483.6171875,106.6796875 496.71875,19.359375   237.515625,19.359375 250.6015625,106.6796875 304.421875,106.6796875 304.421875,420.0078125 250.6015625,420.0078125   237.515625,507.375 496.71875,507.375 483.6171875,420.0078125 429.8125,420.0078125 "
     id="polyline7"
     style="fill:#b81237"
     transform="matrix(0.37969803,0,0,0.37969803,-6.5998636e-5,-1.5258789e-5)" /><polyline
     points="366.21875,63.96875 260.6796875,63.96875 250.6015625,106.6796875 304.421875,106.6796875   366.21875,63.96875 "
     id="polyline9"
     style="fill:#830b2c"
     transform="matrix(0.37969803,0,0,0.37969803,-6.5998636e-5,-1.5258789e-5)" /><polyline
     points="429.8125,106.6796875 483.6171875,106.6796875 473.546875,63.96875 366.21875,63.96875   429.8125,106.6796875 "
     id="polyline11"
     style="fill:#830b2c"
     transform="matrix(0.37969803,0,0,0.37969803,-6.5998636e-5,-1.5258789e-5)" /><polyline
     points="429.8125,420.0078125 429.8125,106.6796875 366.21875,63.96875 366.21875,466.5703125   429.8125,420.0078125 "
     id="polyline13"
     style="fill:#830b2c"
     transform="matrix(0.37969803,0,0,0.37969803,-6.5998636e-5,-1.5258789e-5)" /><polyline
     points="474.125,466.5703125 260.1015625,466.5703125 237.515625,507.375 496.71875,507.375   474.125,466.5703125 "
     id="polyline15"
     style="fill:#830b2c"
     transform="matrix(0.37969803,0,0,0.37969803,-6.5998636e-5,-1.5258789e-5)" /><polyline
     points="496.71875,507.375 474.1171875,466.5703125 483.6171875,420.0078125 496.71875,507.375 "
     id="polyline17"
     style="fill:#830b2c"
     transform="matrix(0.37969803,0,0,0.37969803,-6.5998636e-5,-1.5258789e-5)" /><polyline
     points="483.6171875,106.6796875 473.546875,63.96875 496.71875,19.359375 483.6171875,106.6796875 "
     id="polyline19"
     style="fill:#830b2c"
     transform="matrix(0.37969803,0,0,0.37969803,-6.5998636e-5,-1.5258789e-5)" /><path
     d="m 204.9716,199.99999 -0.14238,-2.25743 c -0.0119,-0.29664 -0.0119,-0.64964 -0.0297,-1.07383 h -0.0386 c -0.10086,0.3352 -0.20765,0.79203 -0.32334,1.14503 l -0.69413,2.1358 h -0.79203 l -0.67634,-2.19217 -0.28181,-1.08866 h -0.0415 c 0,0.35597 -0.0119,0.73863 -0.0297,1.07383 l -0.13941,2.25743 h -0.73864 l 0.28478,-3.83555 h 1.15689 l 0.6526,1.87476 c 0.0979,0.29664 0.16908,0.57845 0.2551,0.97594 h 0.0237 l 0.25512,-0.94627 0.66447,-1.90443 h 1.11536 l 0.28477,3.83555 h -0.76533 m -4.14998,-3.83555 v 0.63184 h -1.23105 v 3.20371 h -0.75939 v -3.20371 h -1.21326 v -0.63184 h 3.2037 z"
     id="path21"
     style="fill:#ffca38" /><path
     d="m 182.33508,115.81381 c -0.63481,-0.089 -1.26962,-0.17205 -1.90739,-0.25807 -0.0475,-0.009 -3.2571,-0.44793 -4.81149,-0.63777 -1.57812,-0.17799 -3.15031,-0.35301 -4.72843,-0.51022 l -0.11272,-0.33817 0.94035,0.0949 c 0.17798,-1.09163 0.35893,-2.18623 0.53691,-3.28083 0.45683,-2.75281 0.90772,-5.50265 1.36158,-8.24953 0.24621,-1.49803 0.49242,-2.993085 0.74159,-4.491115 -1.57515,-0.17798 -3.1592,-0.34113 -4.74029,-0.49241 -1.53955,-0.14833 -3.07615,-0.29071 -4.61274,-0.40937 -1.33487,-4.01352 -2.66975,-8.00629 -4.00463,-12.00201 0.97595,0.0682 1.95782,0.13645 2.93377,0.20764 3.82664,0.29961 7.64439,0.67041 11.46213,1.1124 1.55736,0.17798 3.11175,0.36783 4.6602,0.57845 -0.21951,-1.53363 -0.43903,-3.06725 -0.65261,-4.59791 -0.21061,-1.46837 -0.42122,-2.93673 -0.62887,-4.40213 1.18656,0.15129 2.37608,0.30851 3.56264,0.47463 V 115.81379 M 135.1309,96.256405 c 1.40013,-4.3339 2.7884,-8.65593 4.18261,-12.97499 1.412,4.31016 2.82993,8.62923 4.24194,12.96016 -2.80621,-0.0356 -5.61835,-0.0297 -8.42455,0.0148 z m -30.60129,18.634865 c -1.55736,0.18095 -6.727776,0.88695 -7.359616,0.97594 V 78.665705 c 1.18359,-0.16908 2.37312,-0.3263 3.559666,-0.47759 -0.20764,1.4654 -0.41233,2.93673 -0.62591,4.40213 l -0.658526,4.59494 c 1.554386,-0.20469 3.108766,-0.39453 4.663156,-0.58141 3.81478,-0.44496 7.63549,-0.81873 11.46214,-1.12723 1.10349,-0.0801 2.20699,-0.16316 3.31642,-0.23731 -3.2393,9.66746 -6.48453,19.382385 -9.7179,29.150715 -1.54845,0.15722 -3.09394,0.32334 -4.63943,0.50132 z M 248.80299,95.529635 c 4.19745,1.58702 8.37116,3.26303 12.51224,5.036925 -0.27291,2.52144 -0.54581,5.04287 -0.81872,7.56134 -3.87411,-1.64635 -7.77195,-3.20667 -11.69352,-4.68987 v -7.908395 z m -20.00534,30.438135 c -1.14799,-0.34707 -2.30488,-0.68524 -3.45881,-1.02044 -0.7238,5.34841 -1.44463,10.69087 -2.17733,16.04224 19.42096,5.44333 38.42367,12.82964 56.72926,22.15598 -0.10976,-2.00528 -0.22248,-4.01056 -0.33224,-6.01584 -0.39749,-7.53464 -0.79499,-15.07224 -1.19545,-22.60983 -5.75777,-2.8952 -11.58672,-5.59758 -17.47204,-8.10715 0.36783,3.88894 0.73566,7.77491 1.10646,11.66682 -4.36653,-1.88663 -8.76568,-3.66053 -13.19451,-5.33358 V 121.005 c 3.88301,1.46539 7.73932,3.01385 11.57486,4.63943 0.58735,-4.68986 1.18062,-9.37972 1.77094,-14.07255 5.15262,2.23072 10.26371,4.60384 15.32141,7.12527 0.43309,-7.49014 0.86322,-14.98028 1.29038,-22.473375 0.11865,-1.31411 0.23434,-2.63119 0.353,-3.95123 -1.36158,-0.70304 -2.72612,-1.40607 -4.09362,-2.08834 -15.78714,-7.69482 -32.06372,-13.94501 -48.65475,-18.78912 l 0.006,-0.0208 c -0.84542,-0.24324 -1.69678,-0.48055 -2.54517,-0.71787 l -0.66447,-0.19874 v 0.006 c -0.3441,-0.0949 -0.68523,-0.19578 -1.02933,-0.29071 -19.52776,-5.40476 -39.45597,-8.84281 -59.49691,-10.32304 -1.45946,-0.10382 -2.90706,-0.19874 -4.36653,-0.28773 0.10679,1.41496 0.21358,2.8329 0.31444,4.25083 0.43606,5.89422 0.86619,11.78547 1.29928,17.67673 l 0.0356,0.51318 c -2.23369,-6.68625 -4.47035,-13.35766 -6.70701,-19.99941 -0.31147,-0.91365 -0.61998,-1.83026 -0.92551,-2.74094 -0.97595,-0.0415 -1.95486,-0.0712 -2.9308,-0.10086 -6.26798,-0.19281 -12.53893,-0.19281 -18.80692,0 -0.97001,0.0326 -1.93705,0.0712 -2.91299,0.11866 -0.30851,0.90771 -0.61998,1.82433 -0.92255,2.73501 -2.41464,7.1312 -4.82928,14.29207 -7.23799,21.4826 0.0475,-0.6615 0.092,-1.32301 0.14238,-1.98155 0.43013,-5.89125 0.86619,-11.7825 1.29928,-17.67376 0.10383,-1.41793 0.20765,-2.83883 0.31444,-4.25973 -1.4565,0.089 -2.91003,0.18985 -4.36356,0.30257 -20.037966,1.50099 -39.966176,4.96277 -59.485036,10.3883 -0.77126,0.21951 -5.79929,1.67601 -6.57945,1.91036 -11.03497,3.33422 -21.92756,7.29732 -32.62437,11.89819 -3.85334,1.66118 -7.25579,4.10252 -10.12132,7.19943 -0.56065,0.60218 -1.05011,1.16283 -1.52473,1.75611 -3.65756,4.5801 -5.49375,9.453875 -5.49375,14.372155 v 12.81481 c 0,4.97463 1.86289,8.08638 5.3662,9.08309 l 0.68526,0.16909 0.0771,0.0119 c 2.91596,0.62887 6.61505,-0.0534 11.01124,-1.94892 5.3751,-2.31082 10.8036,-4.46442 16.27362,-6.45784 0.40937,-0.14535 0.64668,-0.17798 0.7505,-0.17798 0.0445,0.089 0.15129,0.36783 0.15129,1.04417 v 8.03596 c 0,0.67336 -0.11273,1.03527 -0.15426,1.15392 -0.10679,0.0712 -0.3441,0.21062 -0.74753,0.35893 -4.48221,1.63152 -8.9407,3.37872 -13.36359,5.22085 0.21655,-1.52176 0.43903,-3.04945 0.65557,-4.56824 0.22842,-1.62262 0.46573,-3.23633 0.69117,-4.85598 -1.48616,0.61404 -2.97825,1.23995 -4.46441,1.88662 -4.24194,1.82136 -8.44829,3.74952 -12.62496,5.77557 -1.15393,0.56361 -2.30786,1.13019 -3.45882,1.70864 -0.089,1.26071 -0.18391,2.51846 -0.2729,3.77918 -0.4331,6.09297 -0.86619,12.1889 -1.29632,18.28187 C 0.207644,160.2 0.106784,161.67133 -5.9986354e-6,163.14563 1.343764,162.46336 2.690514,161.78999 4.040214,161.12255 c 11.12397,-5.46113 22.49711,-10.21922 34.05417,-14.26834 4.3072,-1.50099 8.02112,-3.60416 11.00531,-6.30358 0.44793,-0.40343 0.83356,-0.77719 1.22215,-1.17173 3.77325,-3.9186 5.7726,-8.561 5.76963,-13.54157 v -13.62167 c 0.003,-4.95684 -1.99638,-8.51057 -5.76963,-10.15395 l -0.0445,-0.0178 -0.0475,-0.0237 c -0.32928,-0.12756 -0.67338,-0.23138 -1.02934,-0.33224 -3.08505,-0.87805 -6.82863,-0.59921 -11.10617,0.89288 -5.42849,1.90146 -10.81546,3.95717 -16.15496,6.17306 -0.39157,0.1602 -0.62888,0.20766 -0.7238,0.21656 -0.0475,-0.086 -0.15722,-0.353 -0.15722,-1.0412 v -7.30919 c 0,-0.61997 0.092,-0.952205 0.13349,-1.064925 0.10085,-0.0771 0.34113,-0.23435 0.74753,-0.40343 3.8919,-1.61075 7.8105,-3.14141 11.75284,-4.58901 -0.19282,1.20732 -1.07087,6.884995 -1.32895,8.516505 1.53066,-0.56658 3.05242,-1.12723 4.58901,-1.67008 4.14108,-1.468355 8.31183,-2.847735 12.50334,-4.129215 1.20732,-0.37079 2.41464,-0.73863 3.63086,-1.09163 0.0949,-1.23995 0.18985,-2.48287 0.28774,-3.72579 0.22545,-2.8596 0.45386,-5.7192 0.67337,-8.57583 0.22545,2.99309 0.44199,5.98321 0.65854,8.9763 0.089,1.19842 0.17205,2.39388 0.26104,3.5923 1.22809,-0.35004 2.45617,-0.6971 3.67536,-1.02934 3.73469,-1.02044 7.47827,-1.96672 11.23372,-2.84477 1.53066,-0.35597 3.06428,-0.70007 4.59791,-1.03527 -0.21655,-1.4565 -0.43309,-2.91299 -0.64964,-4.36653 -0.20468,-1.39717 -0.40936,-2.79137 -0.61998,-4.18261 1.18063,-0.26401 2.34938,-0.51911 3.53001,-0.76533 v 37.201505 c -0.62888,0.13646 -4.19448,0.91365 -5.33951,1.16876 -0.16611,1.16876 -0.33223,2.33752 -0.49835,3.49738 -0.42716,3.02571 -0.86025,6.04253 -1.28445,9.06232 l -0.66447,4.68096 c 1.53066,-0.36486 3.07022,-0.71193 4.60681,-1.05603 8.8873,-1.96078 17.83394,-3.52111 26.828036,-4.68097 1.55439,-0.20171 3.1147,-0.39156 4.67503,-0.57251 v -0.003 l 0.78016,-0.089 c 5.17042,-0.57844 10.3527,-1.02044 15.54389,-1.33488 0.99077,-0.0593 1.98451,-0.11272 2.98122,-0.16315 0.29664,-0.93738 0.59328,-1.87772 0.88992,-2.80917 1.86882,-5.87049 3.73765,-11.71724 5.60351,-17.55213 0.29367,0.42419 0.58141,0.84542 0.87508,1.27258 0.40343,0.57844 0.8039,1.16282 1.20436,1.75017 0.72973,-0.0178 1.46243,-0.0297 2.19513,-0.0445 4.50891,-0.0712 9.02969,-0.0415 13.5386,0.086 1.35268,4.74919 2.69942,9.50728 4.04616,14.2713 0.28478,0.97595 0.56658,1.95782 0.85136,2.93376 1.0323,0.0445 2.05867,0.0949 3.08801,0.15129 5.89422,0.3174 11.7825,0.80982 17.65003,1.4654 l 0.13942,0.0149 v 0.006 c 1.56032,0.17798 3.11767,0.36487 4.67799,0.56955 8.9941,1.14799 17.9437,2.69941 26.83101,4.64537 1.53956,0.33816 3.07911,0.68523 4.61274,1.0501 -0.22248,-1.56329 -0.44496,-3.12361 -0.66744,-4.68097 -0.42419,-3.02275 -0.85729,-6.03957 -1.28445,-9.05936 l -0.49835,-3.4944 c -1.15393,-0.26401 -2.30785,-0.52209 -3.45585,-0.76533 -0.63184,-0.13349 -1.26071,-0.26994 -1.88662,-0.40046 V 82.151405 c 1.17765,0.24917 2.34938,0.49538 3.53001,0.75939 -0.21062,1.39421 -0.4153,2.78841 -0.61998,4.18261 -0.21951,1.4565 -0.43309,2.91003 -0.65261,4.36653 1.53066,0.33224 3.07022,0.67634 4.60087,1.03231 3.75842,0.87211 7.50201,1.81543 11.23669,2.824 1.22216,0.33817 2.45024,0.68227 3.67536,1.0323 0.0831,-1.20138 0.17799,-2.39684 0.26104,-3.59526 0.14239,-1.95189 0.28478,-3.90674 0.43013,-5.85566 l 0.10382,0.83356 c 1.48023,0.42716 2.96343,0.86322 4.43476,1.31708 v 7.90839 c -1.45353,-0.44199 -2.91003,-0.87508 -4.3695,-1.29334 0.72084,6.060325 1.43574,12.123635 2.15954,18.198805 0.73863,0.21358 1.47133,0.43309 2.20996,0.66447 v 11.73504 l -0.97595,-0.29367 z"
     id="path23"
     style="fill:#830b2c" /><path
     d="m 47.972404,105.63019 -0.79499,-0.25807 c -2.47694,-0.68524 -5.48782,-0.44792 -9.11275,0.81279 -5.42553,1.89553 -10.81546,3.9453 -16.1609,6.15229 -1.79763,0.74457 -3.06725,0.69711 -3.83851,-0.12162 -0.56361,-0.59031 -0.86322,-1.58702 -0.86322,-3.03758 0,-2.43244 0,-4.87378 0,-7.30622 0.003,-1.54846 0.35893,-2.886295 1.0412,-4.025385 0.78016,-1.30225 1.99638,-2.32566 3.66053,-3.01386 5.40476,-2.23369 10.85699,-4.30423 16.34482,-6.21459 -0.43903,2.82994 -0.88399,5.65988 -1.32598,8.48981 4.14404,-1.45946 8.31479,-2.83586 12.5063,-4.11735 0.44792,-5.72513 0.89882,-11.4562 1.34971,-17.18133 v -0.006 c -11.03794,3.32235 -21.93646,7.27359 -32.63623,11.85963 -3.26897,1.4031 -5.97135,3.34905 -8.24657,5.78149 -0.4064,0.42716 -0.80093,0.87212 -1.17766,1.33488 -2.69051,3.33719 -3.97793,6.775235 -3.97793,10.385325 0,4.26864 0,8.54024 0,12.81185 0,3.70205 1.28742,5.94761 3.88301,6.71591 l 0.57251,0.13645 c 2.33752,0.51911 5.30687,-0.0504 8.94664,-1.6078 5.37806,-2.31081 10.80952,-4.45255 16.28548,-6.44597 1.67008,-0.6081 2.90707,-0.53691 3.70206,0.15426 0.70896,0.60217 1.07977,1.69381 1.07977,3.29862 0,2.67569 0,5.35434 0,8.03299 0,1.4743 -0.32037,2.72315 -0.91365,3.77325 -0.78906,1.38827 -2.07648,2.41464 -3.86818,3.06131 -6.00397,2.18327 -11.94862,4.55045 -17.83987,7.11341 0.44792,-3.15031 0.89585,-6.30358 1.34674,-9.45092 -4.24194,1.82433 -8.45125,3.74359 -12.63089,5.76666 -0.43903,6.08407 -0.86619,12.16814 -1.30522,18.2611 11.12694,-5.45222 22.50898,-10.19251 34.06604,-14.23274 3.64866,-1.26961 6.63285,-2.95452 9.01783,-5.11999 l 0.88991,-0.86025 c 2.80324,-2.93673 4.15295,-6.22349 4.15295,-9.91961 0,-4.54155 0,-9.08309 0,-13.6276 0,-3.69909 -1.34971,-6.19383 -4.15295,-7.39522"
     id="path25"
     style="fill:#ffe46d" /><path
     d="m 100.3648,127.87516 c -0.436056,-2.8685 -0.872116,-5.73107 -1.299276,-8.59363 -1.98749,0.26401 -3.96903,0.54284 -5.95058,0.84542 0,-15.03367 0,-30.070305 0,-45.106935 4.08175,-0.62294 8.166466,-1.15986 12.260086,-1.61669 -0.43013,2.99309 -0.86025,5.98321 -1.28445,8.97631 3.81478,-0.44497 7.63549,-0.80983 11.46214,-1.1124 0.43309,-5.90312 0.86618,-11.79437 1.29928,-17.69452 -20.037966,1.48022 -39.969146,4.92421 -59.490966,10.326 0.41826,5.74887 0.83652,11.5007 1.26368,17.2466 3.72876,-1.01154 7.47234,-1.95782 11.23076,-2.8329 -0.41826,-2.84477 -0.83949,-5.68658 -1.26368,-8.52838 4.03132,-0.95518 8.07154,-1.82433 12.12957,-2.61339 0,15.03664 0,30.070305 0,45.106935 -1.96969,0.38266 -3.93344,0.78609 -5.89719,1.20732 -0.43012,3.01386 -0.86025,6.02771 -1.29038,9.04156 8.89027,-1.94892 17.83691,-3.50034 26.831006,-4.6513"
     id="path27"
     style="fill:#ffe46d" /><path
     d="m 129.58078,100.10084 c 3.2304,-10.100555 6.45783,-20.153655 9.69713,-30.153355 3.27786,9.99377 6.54979,20.04094 9.83062,30.138525 -6.50826,-0.204675 -13.01949,-0.201705 -19.52775,0.0148 m 27.06238,25.73047 c 5.89126,0.3263 11.77954,0.82762 17.65003,1.48913 0.43309,-2.88037 0.86915,-5.76073 1.30818,-8.63813 -2.5511,-0.2996 -5.10219,-0.56361 -7.65329,-0.80389 -0.93441,-2.82994 -1.86586,-5.65988 -2.80027,-8.47795 1.02934,0.0831 2.05867,0.17502 3.08801,0.26698 0.45682,-2.75578 0.90772,-5.51156 1.36454,-8.26437 -2.51253,-0.24917 -5.02507,-0.45979 -7.54057,-0.64074 -4.236,-12.713945 -8.47794,-25.332965 -12.71988,-37.871905 -6.26502,-0.19875 -12.53893,-0.20764 -18.80692,-0.0267 l 0.0148,0.0237 c -6.16713,18.12168 -12.32832,36.42431 -18.48061,54.919755 -2.51847,0.22248 -5.0399,0.48055 -7.55244,0.76533 0.43606,2.88333 0.87212,5.7637 1.30521,8.64109 5.17339,-0.57251 10.35568,-1.0056 15.54686,-1.31411 2.71721,-8.58177 5.44036,-17.13684 8.16351,-25.64741 1.85992,2.68755 3.71985,5.39586 5.58571,8.11308 5.54418,-0.0801 11.08837,-0.006 16.63256,0.20764 1.61964,5.7459 3.23929,11.4918 4.86784,17.25847"
     id="path29"
     style="fill:#ffe46d" /><path
     d="m 205.93271,132.59172 c -0.42716,-3.01682 -0.86025,-6.03067 -1.29037,-9.04452 -1.96079,-0.4242 -3.93047,-0.82763 -5.89422,-1.21326 0,-15.03663 0,-30.073265 0,-45.106935 4.05208,0.79203 8.09528,1.66712 12.12364,2.62526 -0.41827,2.84477 -0.84246,5.68657 -1.26665,8.53134 3.76138,0.87212 7.50496,1.82136 11.23372,2.84477 0.42419,-5.75183 0.84839,-11.49773 1.27258,-17.2466 -19.52479,-5.42553 -39.453,-8.88731 -59.4969,-10.38533 0.43606,5.89421 0.86915,11.79733 1.30224,17.69452 3.82665,0.30257 7.65033,0.67337 11.46214,1.11833 -0.42716,-2.99309 -0.85432,-5.98025 -1.28445,-8.97333 4.09362,0.45979 8.18131,1.0056 12.25416,1.62558 0,15.04257 0,30.079195 0,45.112865 -1.97562,-0.30257 -3.95716,-0.58735 -5.93871,-0.85432 -0.43309,2.86257 -0.87212,5.72513 -1.30522,8.59363 8.9941,1.1569 17.94371,2.72018 26.82804,4.678"
     id="path31"
     style="fill:#ffe46d" /><path
     d="m 274.97843,94.061275 c -15.36887,-7.51683 -31.2094,-13.67803 -47.34657,-18.48951 0.38267,3.03165 0.7594,6.06033 1.14206,9.09198 1.63449,0.49539 3.26897,1.00561 4.90048,1.5277 0,5.26831 0,10.54255 0,15.816785 -1.27851,-0.41233 -2.56296,-0.81279 -3.84444,-1.20732 0.3975,3.34312 0.78906,6.68328 1.18655,10.02344 0.88696,0.27883 1.77391,0.56064 2.65789,0.84542 0,6.54386 0,13.09661 0,19.64047 -1.63151,-0.51912 -3.26599,-1.02637 -4.90048,-1.52769 -0.38266,2.80917 -0.75939,5.60944 -1.14206,8.41862 16.46051,4.90344 32.60657,11.21295 48.26022,18.9315 l -0.0178,-0.0208 c -0.35893,-6.81974 -0.72084,-13.64244 -1.07977,-20.46217 -3.22447,-1.57219 -6.46377,-3.08801 -9.72383,-4.54154 0.3619,3.89783 0.73566,7.78974 1.09757,11.68758 -7.00365,-3.15921 -14.10223,-6.03661 -21.26606,-8.64703 0,-6.54386 0,-13.09662 0,-19.64344 4.04319,1.46539 8.06562,3.02868 12.06431,4.678 0.3797,-3.06429 0.77126,-6.1256 1.15689,-9.18098 -4.38135,-1.8273 -8.78645,-3.54484 -13.2212,-5.15856 0,-5.26831 0,-10.545515 0,-15.816785 6.94136,2.52736 13.82041,5.30984 20.61345,8.35335 -0.36783,3.381685 -0.73566,6.772265 -1.10053,10.156915 3.17997,1.40904 6.34511,2.87444 9.48355,4.3962 0.36487,-6.29172 0.7238,-12.58047 1.0857,-18.869215"
     id="path33"
     style="fill:#ffe46d" /><path
     d="m 37.803614,110.66119 c -3.36685,1.06494 -16.17869,6.05144 -19.03533,7.37445 -2.31378,0.99078 -4.09065,1.21326 -5.37806,0.77126 -1.40014,1.99935 -2.79434,4.00167 -4.19448,6.02178 2.33752,0.51912 5.30687,-0.0504 8.94664,-1.60779 5.37806,-2.31081 10.80952,-4.45255 16.28548,-6.44597 1.67008,-0.6081 2.90707,-0.53691 3.70206,0.15426 1.67898,-2.1892 3.36982,-4.35467 5.06066,-6.50826 -1.3764,-0.51912 -3.21557,-0.51616 -5.38697,0.24027"
     id="path35"
     style="fill:#ffca38" /><path
     d="m 10.993374,103.02274 c 0,3.38168 0,8.09825 0,11.21295 0.003,2.50957 0.82169,4.04616 2.39685,4.57121 1.55439,-2.20996 3.11471,-4.40509 4.67503,-6.59132 -0.56361,-0.59031 -0.86322,-1.58702 -0.86322,-3.03758 0,-2.43244 0,-4.87378 0,-7.30622 0.003,-1.54846 0.35893,-2.886295 1.0412,-4.025385 -1.45946,-0.78906 -2.91892,-1.56329 -4.37246,-2.32862 -1.97858,2.29598 -2.8774,4.950895 -2.8774,7.504965"
     id="path37"
     style="fill:#ffca38" /><path
     d="m 47.972404,105.63019 -0.79499,-0.25807 c -1.33487,1.67898 -2.66085,3.35202 -3.98683,5.0488 1.63152,0.61107 2.60746,1.95781 2.60746,3.78808 0,4.76105 0,9.51914 0,14.27724 -0.0356,1.96968 -1.13613,4.57121 -2.70831,6.4608 1.32597,0.81872 2.66085,1.64931 3.99276,2.48583 l 0.88991,-0.86025 c 2.80324,-2.93673 4.15295,-6.22349 4.15295,-9.91961 0,-4.54155 0,-9.08309 0,-13.6276 0,-3.69909 -1.34971,-6.19383 -4.15295,-7.39522"
     id="path39"
     style="fill:#ffca38" /><path
     d="m 19.714564,91.394485 c -2.53923,1.07087 -4.45552,2.50957 -5.84379,4.12329 1.45354,0.76533 2.913,1.54252 4.37246,2.32862 0.78016,-1.30225 1.99638,-2.32566 3.66053,-3.01386 5.40476,-2.23369 10.85699,-4.30423 16.34482,-6.21459 2.0646,-2.1714 4.13811,-4.31313 6.21162,-6.43706 -8.34743,2.70534 -16.59993,5.77853 -24.74564,9.2136"
     id="path41"
     style="fill:#ffca38" /><path
     d="m 43.238044,90.537205 c -2.10613,2.16547 -4.20931,4.35763 -6.30654,6.56759 4.14701,-1.46243 8.31182,-2.83587 12.4974,-4.11439 -2.06757,-0.84245 -4.13515,-1.65821 -6.19086,-2.4532"
     id="path43"
     style="fill:#ffca38" /><path
     d="m 43.089734,134.94704 c -0.84839,1.0145 -1.83027,1.83322 -2.85367,2.21886 -9.99971,3.40541 -19.86889,7.33885 -29.56602,11.80623 -2.23369,2.57483 -4.45849,5.17932 -6.67142,7.81347 11.12694,-5.45222 22.50898,-10.19251 34.06604,-14.23274 3.64866,-1.26961 6.63285,-2.95452 9.01783,-5.11999 -1.33191,-0.83652 -2.66679,-1.66711 -3.99276,-2.48583"
     id="path45"
     style="fill:#ffca38" /><path
     d="m 17.934734,132.75784 c -2.12394,2.42651 -4.23601,4.88564 -6.33918,7.36851 -0.31147,2.94563 -0.61997,5.89422 -0.92551,8.84578 1.96375,-2.27819 3.94233,-4.53264 5.91795,-6.76337 0.44792,-3.15031 0.89585,-6.30358 1.34674,-9.45092"
     id="path47"
     style="fill:#ffca38" /><path
     d="m 44.460204,82.180885 c -0.40936,2.78247 -0.81873,5.57088 -1.22216,8.35632 2.05571,0.79499 4.12329,1.61075 6.19086,2.4532 0.44792,-5.72513 0.89882,-11.4562 1.34971,-17.18133 -2.11207,2.10317 -4.21821,4.2271 -6.31841,6.37181"
     id="path49"
     style="fill:#ffca38" /><path
     d="m 69.855474,88.312415 c -1.96375,-1.00561 -3.93047,-1.99045 -5.88829,-2.96343 -1.7828,1.91926 -3.5656,3.85037 -5.34247,5.79633 3.73469,-1.01154 7.47531,-1.95782 11.23076,-2.8329"
     id="path51"
     style="fill:#ffca38" /><path
     d="m 69.855474,88.312415 c -0.41826,-2.84477 -0.83949,-5.68658 -1.26368,-8.52838 -1.88366,-1.01154 -3.76732,-2.00528 -5.64505,-2.98419 0.34411,2.84774 0.68227,5.69844 1.02044,8.54914 1.95782,0.97298 3.92454,1.95782 5.88829,2.96343"
     id="path53"
     style="fill:#ffca38" /><path
     d="m 86.912224,71.662055 c -8.03892,1.38827 -16.02741,3.10581 -23.96548,5.13779 1.87773,0.97891 3.76139,1.97265 5.64505,2.98419 4.03132,-0.95518 8.07154,-1.82433 12.12957,-2.61339 2.06164,-1.85993 4.12328,-3.69612 6.19086,-5.50859"
     id="path55"
     style="fill:#ffca38" /><path
     d="m 86.912224,125.25287 c 0,-17.86657 -0.003,-35.730175 -0.003,-53.590815 2.06461,1.09757 4.13515,2.2159 6.20569,3.35796 0,15.03663 0,30.073265 0,45.106935 -2.07054,1.68787 -4.14108,3.39651 -6.20272,5.12592"
     id="path57"
     style="fill:#ffca38" /><path
     d="m 104.09058,82.379635 c 1.99639,-1.69381 3.99573,-3.37279 5.99211,-5.031 1.8273,1.29037 3.64273,2.59559 5.46706,3.9186 -3.82368,0.30257 -7.64439,0.66743 -11.45917,1.1124"
     id="path59"
     style="fill:#ffca38" /><path
     d="m 111.19806,68.437595 c 1.88069,-1.64042 3.76731,-3.26007 5.65394,-4.86488 -0.4331,5.90015 -0.86619,11.7914 -1.29928,17.69452 h -0.003 c -1.82433,-1.32301 -3.63976,-2.62823 -5.46706,-3.9186 0.37377,-2.96936 0.7416,-5.94169 1.11536,-8.91104"
     id="path61"
     style="fill:#ffca38" /><path
     d="m 86.909254,71.662055 c 8.05671,-1.40013 16.163856,-2.47397 24.288806,-3.22446 -1.94596,1.63448 -3.88301,3.29269 -5.82303,4.96573 -4.09362,0.45683 -8.178336,0.99671 -12.260086,1.61669 -2.07054,-1.14206 -4.14108,-2.26039 -6.20569,-3.35796"
     id="path63"
     style="fill:#ffca38" /><path
     d="m 100.3648,127.87516 c -1.542526,-1.35564 -3.076146,-2.70535 -4.618666,-4.03133 -5.90015,0.84543 -11.78547,1.86586 -17.64113,3.05539 -1.51879,1.86586 -3.04648,3.74062 -4.57121,5.62724 8.89027,-1.94892 17.83691,-3.50034 26.831006,-4.6513"
     id="path65"
     style="fill:#ffca38" /><path
     d="m 99.065524,119.28153 c -1.10943,1.51285 -2.2159,3.03461 -3.31939,4.5623 1.54252,1.32598 3.07614,2.67569 4.618666,4.03133 -0.436056,-2.8685 -0.872116,-5.73107 -1.299276,-8.59363"
     id="path67"
     style="fill:#ffca38" /><path
     d="m 107.89646,122.31021 c -0.6971,1.63151 -1.38233,3.26896 -2.07647,4.90344 5.17339,-0.57251 10.35567,-1.0056 15.54685,-1.31411 -1.54549,-1.46539 -3.08504,-2.92486 -4.62163,-4.36949 -2.95749,0.21655 -5.90905,0.47759 -8.84875,0.78016"
     id="path69"
     style="fill:#ffca38" /><path
     d="m 165.14781,109.40048 c 1.02934,0.0831 2.05867,0.17502 3.08801,0.26697 -0.65261,-1.47133 -1.30818,-2.93969 -1.96375,-4.41399 -3.03165,-0.25807 -6.05737,-0.48055 -9.08606,-0.6526 2.65492,1.56329 5.30985,3.16514 7.9618,4.79962"
     id="path71"
     style="fill:#ffca38" /><path
     d="m 172.21968,122.41107 c -3.16514,-0.33224 -6.33027,-0.62294 -9.50135,-0.86322 -2.02901,1.40903 -4.05209,2.83587 -6.07517,4.28347 5.89126,0.3263 11.77954,0.82762 17.65003,1.48912 -0.69117,-1.64041 -1.38234,-3.27193 -2.07351,-4.90937"
     id="path73"
     style="fill:#ffca38" /><path
     d="m 162.05979,100.76235 c -4.236,-12.713945 -8.47794,-25.332975 -12.71988,-37.874875 -1.50099,1.41793 -3.00199,2.84477 -4.50298,4.28643 4.11735,12.39062 8.2347,24.87022 12.34908,37.426955 1.62559,-1.29335 3.25413,-2.57483 4.87378,-3.83851"
     id="path75"
     style="fill:#ffca38" /><path
     d="m 134.62365,67.170945 c -5.96542,17.94073 -11.93379,36.065375 -17.87844,54.359105 1.53659,1.44463 3.07614,2.9041 4.62163,4.36949 5.96245,-18.82471 11.93676,-37.471445 17.91107,-55.952055 -1.55439,-0.93738 -3.10877,-1.86586 -4.65426,-2.77654"
     id="path77"
     style="fill:#ffca38" /><path
     d="m 157.18601,104.60086 c -6.90872,-0.39453 -13.82338,-0.55472 -20.73507,-0.48352 -0.44496,1.41496 -0.89288,2.8329 -1.33487,4.24787 5.54418,-0.0801 11.08837,-0.006 16.63255,0.20764 1.81247,-1.33784 3.62493,-2.66678 5.43739,-3.97199"
     id="path79"
     style="fill:#ffca38" /><path
     d="m 167.94808,117.87842 c -0.93441,-2.82993 -1.86586,-5.65987 -2.80027,-8.47794 -2.65195,-1.63448 -5.30688,-3.23633 -7.9618,-4.79962 1.84807,5.63317 3.68723,11.28118 5.53232,16.94699 1.74424,-1.23699 3.48551,-2.46211 5.22975,-3.66943"
     id="path81"
     style="fill:#ffca38" /><path
     d="m 168.23582,109.66745 c -0.65261,-1.47133 -1.30818,-2.93969 -1.96375,-4.41399 1.1124,-1.28741 2.21886,-2.57186 3.32829,-3.85037 -0.45682,2.75281 -0.90772,5.50859 -1.36454,8.26436"
     id="path83"
     style="fill:#ffca38" /><path
     d="m 174.29319,127.32044 c -0.69117,-1.64041 -1.38234,-3.27193 -2.07351,-4.90937 1.12427,-1.24885 2.25149,-2.49474 3.38169,-3.72876 -0.43903,2.87741 -0.87509,5.75777 -1.30818,8.63813"
     id="path85"
     style="fill:#ffca38" /><path
     d="m 134.62365,67.170945 c 1.54549,0.91068 3.09987,1.83916 4.65426,2.77654 1.854,-0.94331 3.70206,-1.86883 5.55902,-2.77358 -3.40542,-0.0593 -6.8138,-0.0623 -10.21328,-0.003"
     id="path87"
     style="fill:#ffca38" /><path
     d="m 175.37889,82.409295 c -1.99935,-1.69381 -3.99276,-3.36982 -5.99804,-5.031 -1.81543,1.28741 -3.63977,2.59559 -5.46113,3.91267 3.82368,0.30257 7.64736,0.67337 11.45917,1.11833"
     id="path89"
     style="fill:#ffca38" /><path
     d="m 175.37889,82.409295 c -0.42716,-2.99309 -0.85432,-5.98025 -1.28445,-8.97333 -1.91332,-1.67305 -3.82961,-3.3283 -5.7459,-4.96574 0.3441,2.97232 0.68821,5.93278 1.03231,8.90807 2.00528,1.66118 3.99869,3.33719 5.99804,5.031"
     id="path91"
     style="fill:#ffca38" /><path
     d="m 192.56022,71.709515 c -8.03298,-1.4031 -16.11343,-2.4799 -24.21168,-3.23929 1.91629,1.63744 3.83258,3.29269 5.7459,4.96574 4.09362,0.45979 8.18131,1.0056 12.25416,1.62558 2.07351,-1.1391 4.14702,-2.25446 6.21162,-3.35203"
     id="path93"
     style="fill:#ffca38" /><path
     d="m 192.56022,125.30033 c 0,-17.8636 0,-35.727205 0,-53.590815 2.06461,1.82137 4.12922,3.6546 6.1879,5.51749 0,15.03367 0,30.070305 0,45.106935 -2.05868,0.96704 -4.12329,1.95782 -6.1879,2.96639"
     id="path95"
     style="fill:#ffca38" /><path
     d="m 209.60511,88.383605 c 1.96968,-1.00857 3.93343,-1.99638 5.89422,-2.95749 1.7828,1.91629 3.56263,3.84741 5.34247,5.80226 -3.73469,-1.02341 -7.47827,-1.97265 -11.23669,-2.84477"
     id="path97"
     style="fill:#ffca38" /><path
     d="m 216.58799,76.894775 c 1.83916,-0.98781 3.68426,-1.96079 5.52342,-2.913 -0.42419,5.74887 -0.84839,11.49477 -1.27258,17.2466 -1.77687,-1.95485 -3.5567,-3.88597 -5.3395,-5.80226 0.36189,-2.84477 0.72083,-5.68954 1.08866,-8.53134"
     id="path99"
     style="fill:#ffca38" /><path
     d="m 192.56022,71.709515 c 8.05672,1.40608 16.07191,3.13251 24.02777,5.18526 -1.90146,0.96704 -3.80291,1.95188 -5.71327,2.95749 -4.03132,-0.95814 -8.07452,-1.83323 -12.1266,-2.62526 -2.05868,-1.86289 -4.12329,-3.69612 -6.1879,-5.51749"
     id="path101"
     style="fill:#ffca38" /><path
     d="m 205.93271,132.59172 c -1.52175,-1.89256 -3.04351,-3.76731 -4.57417,-5.63021 -5.85269,-1.19842 -11.73801,-2.22479 -17.63816,-3.07911 -1.53659,1.32894 -3.07615,2.67568 -4.61571,4.03132 8.9941,1.1569 17.94371,2.72018 26.82804,4.678"
     id="path103"
     style="fill:#ffca38" /><path
     d="m 204.64234,123.5472 c -1.0946,1.13019 -2.1892,2.26928 -3.2838,3.41135 1.53066,1.86586 3.05242,3.74061 4.57417,5.63317 -0.42716,-3.01682 -0.86025,-6.03067 -1.29037,-9.04452"
     id="path105"
     style="fill:#ffca38" /><path
     d="m 270.09575,96.116985 c -0.3441,3.966065 -0.69117,7.929155 -1.03527,11.895225 1.62261,1.62558 3.23633,3.26303 4.83818,4.92124 0.36487,-6.29172 0.7238,-12.58047 1.0857,-18.869205 -1.62558,0.66744 -3.25413,1.35267 -4.88861,2.05274"
     id="path107"
     style="fill:#ffca38" /><path
     d="m 270.09575,96.116985 c -10.12726,-4.73436 -20.45327,-8.89324 -30.92462,-12.46477 1.91332,2.10317 3.82664,4.2271 5.73106,6.37477 6.94136,2.52736 13.82042,5.30984 20.61345,8.35336 1.53659,-0.77127 3.05538,-1.52473 4.58011,-2.26336"
     id="path109"
     style="fill:#ffca38" /><path
     d="m 239.17113,83.652215 c 0,8.26139 0,16.525755 0,24.793085 1.91332,-0.88695 3.82664,-1.7561 5.73106,-2.60153 0,-5.26831 0,-10.545515 0,-15.816785 -1.90442,-2.14767 -3.81774,-4.2716 -5.73106,-6.37477"
     id="path111"
     style="fill:#ffca38" /><path
     d="m 244.90219,115.50531 c 4.04319,1.4654 8.06562,3.02869 12.06431,4.678 -0.58438,-1.91926 -1.16875,-3.84444 -1.75017,-5.7637 -5.30687,-2.14173 -10.65824,-4.13515 -16.0452,-5.97431 1.91332,2.33158 3.82367,4.6869 5.73106,7.06001"
     id="path113"
     style="fill:#ffca38" /><path
     d="m 239.17113,108.4453 c 0,9.57551 0,19.15695 0,28.73246 1.91332,-0.69413 3.82664,-1.37344 5.73106,-2.02901 0,-6.54386 0,-13.09662 0,-19.64344 -1.90442,-2.37311 -3.81774,-4.72843 -5.73106,-7.06001"
     id="path115"
     style="fill:#ffca38" /><path
     d="m 274.79451,136.64974 c -1.64931,0.0475 -3.28972,0.11273 -4.94794,0.19579 0.36784,4.39916 0.72973,8.79831 1.0946,13.1945 1.65228,2.34345 3.29566,4.7047 4.93311,7.08671 -0.35893,-6.82566 -0.72084,-13.6543 -1.07977,-20.477"
     id="path117"
     style="fill:#ffca38" /><path
     d="m 270.94117,150.04003 c -13.13221,-6.18789 -26.59369,-11.39687 -40.27765,-15.62991 -1.01155,1.25775 -2.02012,2.51847 -3.03166,3.79105 16.46051,4.90344 32.60361,11.21295 48.26022,18.9315 -1.64338,-2.37904 -3.2927,-4.74622 -4.95091,-7.09264"
     id="path119"
     style="fill:#ffca38" /><path
     d="m 239.17113,108.4453 c -2.11504,-0.7238 -4.23601,-1.42387 -6.36885,-2.09724 -0.59327,1.49506 -1.18655,2.98716 -1.78577,4.47925 0.88696,0.27587 1.77391,0.55768 2.65789,0.84246 1.83323,-1.09757 3.66646,-2.16844 5.49673,-3.22447"
     id="path121"
     style="fill:#ffca38" /><path
     d="m 239.17113,83.652215 c -2.84181,-0.96705 -5.69251,-1.89849 -8.55211,-2.78248 -0.61701,1.26665 -1.23105,2.52736 -1.8451,3.79401 1.63449,0.49539 3.26897,1.00561 4.90048,1.5277 1.83323,-0.86619 3.66646,-1.71161 5.49673,-2.53923"
     id="path123"
     style="fill:#ffca38" /><path
     d="m 256.9665,120.18331 c -0.58438,-1.91926 -1.16875,-3.84444 -1.75017,-5.7637 0.97001,-1.14503 1.93706,-2.28412 2.90707,-3.41728 -0.38564,3.05538 -0.7772,6.1167 -1.1569,9.18098"
     id="path125"
     style="fill:#ffca38" /><path
     d="m 264.41511,108.53726 c 1.55142,-0.18689 3.10285,-0.36487 4.64537,-0.52505 1.62261,1.62558 3.23633,3.26303 4.83818,4.92124 -3.13844,-1.52176 -6.30358,-2.98716 -9.48355,-4.39619"
     id="path127"
     style="fill:#ffca38" /></svg>
