<?xml version="1.0" encoding="UTF-8" standalone="no"?>
<!-- Created with Inkscape (http://www.inkscape.org/) -->

<svg
   xmlns:dc="http://purl.org/dc/elements/1.1/"
   xmlns:cc="http://creativecommons.org/ns#"
   xmlns:rdf="http://www.w3.org/1999/02/22-rdf-syntax-ns#"
   xmlns:svg="http://www.w3.org/2000/svg"
   xmlns="http://www.w3.org/2000/svg"
   xmlns:xlink="http://www.w3.org/1999/xlink"
   version="1.1"
   width="280"
   height="200"
   viewBox="0 0 280 200"
   id="Layer_1"
   xml:space="preserve"><metadata
     id="metadata3175"><rdf:RDF><cc:Work
         rdf:about=""><dc:format>image/svg+xml</dc:format><dc:type
           rdf:resource="http://purl.org/dc/dcmitype/StillImage" /><dc:title></dc:title></cc:Work></rdf:RDF></metadata><defs
     id="defs3173" /><g
     transform="matrix(0.52924825,0,0,0.52924825,25.210088,-2.8051245)"
     id="g3111"><defs
       id="defs3113"><polyline
         id="SVGID_1_"
         points="0,0 0,388.494 437.889,388.494 437.889,0" /></defs><clipPath
       id="SVGID_2_"><use
         id="use3117"
         style="overflow:visible"
         x="0"
         y="0"
         width="437.88867"
         height="388.49414"
         xlink:href="#SVGID_1_" /></clipPath><path
       d="m 420.66504,95.475586 c -5.39063,-2.039063 -16.52637,-4.860352 -32.50195,-3.779297 -8.85352,0.597656 -27.89942,5.72168 -27.89942,5.72168 0,0 12.66504,11.557621 26.56934,20.065431 15.89062,9.7207 27.72949,14.4668 28.2832,14.74805 0.5625,0.28125 0.32227,0.89648 -0.009,1.11621 -0.33398,0.21972 -8.58691,2.083 -20.93555,5.75683 -11.42285,3.41016 -21.14648,8.25293 -46.47363,14.12403 -34.5791,8.00683 -73.53222,4.16601 -73.59375,4.11328 -0.0527,-0.0527 -0.21972,1.38867 -0.49804,2.61035 -0.28125,1.22168 -0.77637,2.55762 -0.72071,2.61035 0.0527,0.0527 6.4336,-0.16699 17.51367,0.25488 14.78321,0.55371 18.22852,2.94434 19.00196,6.96973 0.94043,4.89551 -3.65039,8.0332 -3.65039,8.0332 0,0 16.35058,-0.21972 19.99218,11.47852 3.19629,10.24804 -9.8291,22.50879 -16.2832,27.12304 -6.43066,4.60547 -30.05566,15.61817 -52.4707,31.79883 -14.59571,10.52051 -35.29395,29.17969 -35.5752,29.68067 -0.27832,0.50097 -0.44238,0.33398 -0.1084,0.7207 0.32813,0.38672 8.29102,5.26465 13.11329,9.70313 4.73144,4.35058 9.16992,10.52929 9.16992,10.52929 0,0 0.81738,-0.0791 4.95117,-9.28125 2.10644,-4.69336 2.83594,-10.06347 3.38965,-10.73144 1.13965,-1.36231 6.16992,-1.88965 6.5039,-2.22364 0.33399,-0.33398 2.55762,-5.0625 6.50391,-8.62207 3.94629,-3.55957 6.49512,-4.50879 8.05078,-5.12402 1.56152,-0.60645 0.14356,-8.72754 6.12012,-18.59766 7.11914,-11.75976 18.0293,-13.46484 31.06055,-10.81054 14.32031,2.91797 21.52148,16.91894 21.52148,16.91894 0,0 5.10937,-0.70312 8.70703,6.65332 2.56055,5.23828 1.94531,14.51953 -2.55469,28.64356 -2.92382,9.16699 -11.23242,28.82812 -26.38476,45.29883 -14.5459,15.82031 -22.89551,18.90527 -22.89551,18.90527 0,0 -2.87988,9.43945 -11.06543,19.61719 -4.7373,5.88867 -15.1084,13.75488 -21.95508,13.69336 -8.74512,-0.0967 -11.1709,-6.80274 -12.83789,-7.85743 -1.66992,-1.05468 -6.80566,-3.0498 -8.89746,-5.50195 -3.01465,-3.52441 -5.55469,-9.39551 -5.55469,-9.39551 0,0 -5.42871,0.89649 -12.30468,7.37403 -12.11133,11.39941 -8.49024,15.14355 -9.8086,15.19629 -2.03613,0.0879 -6.27539,-10.6875 3.48926,-25.29493 4.87793,-7.28613 10.61719,-9.06152 10.61719,-9.28125 0,-0.22851 -2.21485,-0.60644 -3.94629,-1.95996 -1.84863,-1.45019 -2.42578,-2.82129 -2.39063,-2.63672 l -1.37988,-0.63281 c 0,0 2.71582,5.59863 1.77539,6.06445 -2.52539,1.23926 -7.99219,-2.22363 -12.78809,-5.13281 -6.33691,-3.84082 -7.90136,-6.15234 -8.40234,-6.09961 -0.49512,0.0615 -0.92285,4.56153 -3.70898,5.0625 -2.77735,0.49219 -4.80762,-1.38867 -8.1416,-3.83203 -3.33692,-2.44336 -6.51856,-7.63769 -6.51856,-7.63769 0,0 -1.11621,4.13086 -7.33887,17.35839 -6.22851,13.22754 -10.93945,16.25977 -15.58007,16.06641 -5.79493,-0.25488 -8.56348,-5.00976 -8.56348,-5.00976 0,0 -19.98633,9.70312 -41.73926,12.12011 -26.727538,2.97949 -42.635741,-4.11328 -43.576171,-4.16601 -0.949219,-0.0527 -5.24707,2.19726 -16.212891,2.46093 -10.183594,0.2461 -23.103515,-3.24316 -28.904297,-10.65234 -6.1054684,-7.80469 -2.472656,-15.24023 -2.472656,-15.24023 0,0 -0.9697264,-2.03028 -1.6054686,-6.30176 -0.3984375,-2.67188 1.2539066,-10.05469 8.8359376,-13.68457 7.394531,-3.53321 15.011719,2.10937 15.011719,2.10937 0,0 0.940429,-1.27441 2.109375,-2.21484 1.168945,-0.94922 2.443359,-1.66992 2.443359,-1.66992 0,0 -0.07617,-1.00196 -0.128906,-1.78418 -0.05566,-0.77344 0.02344,-1.44141 0.02344,-1.44141 0,0 -2.449218,-0.27246 -5.449218,-0.55371 -3,-0.28125 -9.169922,-2.00391 -11.557618,-2.50488 -2.390625,-0.50098 -4.004882,-0.21973 -4.508789,-0.60645 -0.500976,-0.38672 1.916016,-2.05664 5.080078,-3.17285 3.172852,-1.10742 13.350586,-4.94824 19.88086,-6.54785 8.367187,-2.03906 10.007812,-1.23047 10.007812,-1.23047 0,0 0.386719,-1.83691 0.890625,-2.8916 0.498047,-1.05469 0.996094,-2.45215 0.94043,-2.45215 -0.05273,0 -2.232422,-2.02148 -3.073242,-4.7373 -0.855469,-2.80372 -0.744141,-2.50489 -0.873047,-6.82032 0,0 -2.167969,0.55371 -5.229492,0.21973 -3.049805,-0.33398 -7.227539,-3.62988 -6.834961,-8.39355 0.55664,-6.65333 6.339844,-10.38868 6.448242,-10.66993 0.108398,-0.28125 -2.211914,-0.96679 -7.280273,-3.55957 -5.595704,-2.84765 -7.054688,-4.9834 -6.834961,-6.02929 0.228515,-1.06348 2.276367,-0.97559 4.057617,-0.97559 1.77832,0 3.333984,0.28125 3.500976,0 0.166993,-0.27246 -6.257812,-3.0498 -9.143554,-4.77246 -2.897461,-1.72266 -12.023438,-6.54785 -12.539063,-9.06152 -0.430664,-2.11817 9.896485,-0.7295 9.729492,-1.06348 -0.166992,-0.33399 -1.702148,0.39551 -10.11621,-5.05371 -3.890625,-2.52246 -9.3515629,-8.16504 -8.8359379,-9.39551 0.4248047,-1.0459 4.4326172,-0.88769 8.1445309,0.35156 3.152344,1.0459 7.640625,1.92481 7.640625,1.92481 0,0 -2.777344,-2.45215 -1.948242,-4.44727 1.300781,-3.12012 13.31543,1.89844 14.009766,1.00196 0.313476,-0.41309 -2.557618,-2.72461 -6.952149,-7.22461 -4.388672,-4.5 -4.77539,-6.80274 -4.350586,-7.875 0.527344,-1.32715 2.074219,-0.91407 3.682618,-1.01954 1.617187,-0.11425 3.83789,-0.22851 3.726562,-0.50097 -0.111328,-0.28125 -5.334961,-9.72949 -6.952148,-12.39258 -1.608399,-2.67188 -9.826172,-17.81543 -4.113282,-20.90039 5.698243,-3.07617 16.362305,10.02832 16.804688,10.08105 0.448242,0.0527 -0.773438,-3.10254 1.599609,-4.07812 2.206055,-0.90527 5.493164,3.09375 6.503907,2.28516 0.254882,-0.20215 -2.334961,-4.30665 -4.004883,-8.72754 -1.602539,-4.25391 -4.59961,-9.58008 -0.744141,-13.47364 4.353516,-4.38574 13.816406,12.1377 13.816406,12.1377 0,0 -3.978515,-14.94141 -5.507812,-25.56738 -1.441406,-9.97559 -2.53711,-19.24805 3.550781,-21.78809 4.016602,-1.67871 8.232422,5.00098 12.014648,10.38867 3.779297,5.39649 7.88379,17.01563 8.16504,17.1211 0.28125,0.11425 0.158203,-8.26172 3.55957,-8.49903 1.889648,-0.14062 3.665039,5.16797 5.446289,10.99512 2.112305,6.91699 4.388672,11.01269 4.617187,11.01269 0.219727,0 0.386719,-8.78027 0.05274,-17.23535 -0.333985,-8.44629 -0.123047,-16.92773 4.605469,-17.26172 4.719726,-0.33398 9.817382,11.37305 11.83887,16.7959 2.04785,5.49317 6.09961,18.73828 7.18066,18.87012 0.5625,0.0703 -0.17578,-6.33691 5.15918,-6.41602 5.69532,-0.0791 10.62598,21.75293 10.62598,21.75293 0,0 9.38672,-5.13281 15.83789,-6.45117 7.08398,-1.45898 15.01172,-1.16015 15.01172,-1.16015 0,0 -1.83399,-0.94922 -9.5625,-1.95118 -7.72559,-0.99316 -11.01563,-0.43066 -12.7793,-4.52636 -1.65234,-3.82325 2.91211,-6.68848 6.16992,-7.56739 2.48731,-0.67675 9.167,-1.18652 9.78223,-1.62597 0.61231,-0.44824 0.91406,-3.15528 1.40332,-4.41211 0.51563,-1.32715 1.59375,-3.31348 1.59375,-3.31348 0,0 -4.0166,2.18848 -8.94141,2.88281 -5.6748,0.79981 -8.9707,-0.19336 -9.14062,-0.58007 -0.28711,-0.65039 2.99414,-5.10645 4.10742,-7.33887 1.11328,-2.22363 2.35547,-6.96973 2.35547,-6.96973 0,0 -3.09375,0.79981 -5.04492,1.13379 -1.94238,0.33399 -5.38477,0.68555 -6.12305,0.14063 -0.64453,-0.47461 4.18945,-8.2002 5.95606,-13.68457 2.49902,-7.76954 2.97949,-13.92188 2.97949,-13.92188 0,0 -1.74024,0.65039 -2.62793,0.93164 -0.8877,0.28125 -3.80567,2.10938 -4.35938,1.6084 -0.55371,-0.50098 3.71778,-13.72852 4.55274,-18.22852 0.83496,-4.508785 3.66504,-10.107418 3.66504,-10.107418 0,0 -5.18555,1.274414 -12.21094,-1.335937 -4.33008,-1.608399 -8.70703,-9.325195 -7.37988,-9.237305 6.72363,0.448242 11.66894,-2.206055 19.4414,-9.5625 5.23828,-4.939453 16.18067,-21.955078 19.09278,-24.609375 4.67285,-4.245117 10.06054,-3.963867 10.61132,-4.280273 1.67579,-0.966797 4.50586,-15.925781 28.22461,-24.556641 18.65918,-6.785156 34.92774,-1.520508 40.09571,0.342774 1.08105,0.386718 1.74902,0.123046 1.74902,0.123046 0,0 7.53223,-12.3662104 21.23145,-13.0341792 12.81738,-0.6152344 27.13476,9.9052732 27.13476,9.9052732 0,0 4.15723,-5.8359373 18.20215,-1.933594 7.41797,2.047852 18.38672,12.541993 18.38672,12.541993 27.66797,-9.369141 66.90234,-4.280274 91.81933,22.456054 25.47657,27.342774 16.20704,53.367192 16.20704,53.367192 0,0 -3.87891,-3.78809 -10.25391,-6.187504 M 106.3125,295.69922 c -0.44824,3.0498 0.53613,5.55469 0.27246,6.89941 -0.27246,1.34473 -1.61719,5.82715 -1.61719,5.82715 0,0 0.89649,-0.27246 2.33203,-0.43945 1.49122,-0.16699 1.88086,-0.37793 1.97461,-0.72949 0.082,-0.36036 -0.42773,-3.04981 -0.42773,-4.29786 0,-1.25683 0.59766,-4.12207 0.86719,-7.43554 0.27246,-3.32227 -0.98438,-4.30664 -0.98438,-4.30664 0,0 -2.05664,2.06543 -2.41699,4.48242 z m -32.519531,6.72363 c -1.432617,1.16016 -2.504883,2.23242 -2.504883,2.68067 0,0.45703 -0.09375,2.15332 -0.360352,2.96191 -0.272461,0.7998 0.266602,3.04102 0.624024,3.1377 0.360351,0.0879 1.886719,-0.63282 3.585937,-1.25684 1.705078,-0.62402 3.761719,-1.70508 3.761719,-1.70508 0,0 -0.720703,-1.79297 -0.984375,-2.95312 -0.272461,-1.16895 -0.714844,-3.58594 -0.802734,-4.20996 -0.09375,-0.63282 -0.814453,-1.16895 -0.814453,-1.16895 0,0 -1.072266,1.34473 -2.504883,2.51367 z"
       clip-path="url(#SVGID_2_)"
       id="path3119"
       style="fill:#0022b4" /></g><path
     d="m 215.73946,57.963322 c -0.16901,-0.11163 -2.84213,-1.028 -5.17723,-2.2095 -1.89785,-0.96288 -5.56796,-3.10727 -5.56796,-3.10727 0,0 -0.62176,-0.39539 -1.34896,-0.14885 -2.53822,0.86985 -7.47512,2.59559 -10.20561,3.59103 -2.79095,1.0187 -9.91565,4.19574 -11.33128,4.70742 -1.41409,0.50702 -1.90251,0.86054 -2.35836,0.87915 -1.20942,0.0419 -2.23742,0.36747 -1.62341,0.74425 0.10699,0.0651 7.78212,0.11164 12.91283,0.009 6.17577,-0.12559 14.58276,-0.16281 15.26189,-0.21863 0.84349,-0.0744 2.17694,-0.64191 5.03768,-2.09787 2.9398,-1.49316 3.56157,-1.58619 4.0748,-1.74435 0.78146,-0.24654 0.32561,-0.4047 0.32561,-0.4047"
     id="path3121"
     style="fill:#e8000d" /><path
     d="m 193.46606,11.917182 c 0,0 -1.63581,-2.7258405 -5.96024,-4.7260265 -2.97702,-1.381524 -5.25941,-1.669923 -6.52774,-1.525723 -0.98614,0.116289 -2.16765,0.595404 -2.21881,1.269885 -0.0279,0.395386 0.59695,0.781468 1.51642,1.246628 1.11173,0.558191 1.86219,0.697739 2.00949,0.986138 0.1442,0.288399 0.40934,0.9582295 0.16901,0.9861385 -1.21872,0.148852 -2.58009,-0.3628245 -3.24372,-0.7303005 -1.70713,-0.948926 -5.68425,-3.758489 -8.52637,-5.367942 -2.8933,-1.646665 -5.78193,-2.465345 -9.9079,-1.725742 -5.04078,0.897758 -8.0271,5.972649 -8.0271,5.972649 0,0 3.21735,2.0001875 5.21753,3.0700555 1.86219,1.00009 2.65917,1.32105 4.11201,1.46525 1.4513,0.1442 2.86539,0.13955 2.97702,0.57215 0.093,0.36747 -0.66517,1.26988 -1.7583,1.27919 -2.81886,0.0233 -2.09166,0.2884 -11.50029,-4.581826 -8.35272,-4.3213325 -15.30375,-3.0467955 -15.4464,-3.0235375 -0.93032,0.1442 -9.92186,1.055912 -15.76891,6.6145735 -3.15069,2.99097 -4.31203,6.36338 -4.22365,6.94483 0.15815,1.06056 0.68223,1.30245 1.028,2.24672 0.30701,0.83264 0.29305,2.40488 -0.18141,2.3258 -0.59075,-0.0977 -1.54433,-3.16309 -3.98177,-3.2096 -1.3164,-0.0233 -3.17239,-0.0837 -6.80683,5.6796 -2.37852,3.77244 -5.56331,7.51697 -6.836299,8.82407 -1.27298,1.31175 -4.80975,4.22365 -5.93388,4.6423 -2.14594,0.80472 -2.57388,0.2977 -2.71809,0.54888 -0.1442,0.25584 1.05126,2.0281 4.24226,2.26998 4.15852,0.31631 7.489069,-2.30719 7.673579,-2.2095 0.0713,0.0372 -2.80336,4.87487 -3.584829,7.00065 -0.8683,2.3537 -1.1722,3.90269 -1.63736,5.30282 -0.4326,1.31175 -0.68379,2.68862 -0.96288,3.14913 -0.13955,0.23258 3.515049,-0.80938 5.963349,-2.63281 2.86538,-2.13508 4.17248,-4.02363 4.17248,-4.02363 0,0 -0.19537,3.07471 -2.6328,4.9493 -2.29789,1.77226 -3.92595,2.3444 -4.516699,3.19565 -0.10699,0.1535 -0.14886,3.37706 -1.00475,6.15406 -1.51797,4.93069 -3.00648,7.17276 -3.00648,7.17276 0,0 2.46224,-0.0279 5.913719,-2.26998 3.35381,-2.1816 4.78495,-3.71662 4.78495,-3.71662 0,0 0.27909,1.87924 -2.09942,3.96316 -1.98779,1.74434 -2.89484,2.0467 -3.09951,2.31649 -0.10699,0.1442 -0.5675,2.47465 -1.00475,3.72128 -0.640369,1.84203 -1.767599,3.30263 -1.604799,3.53521 0.18296,0.25584 3.391009,-0.39073 7.056469,-2.91655 2.45139,-1.68853 5.19273,-3.45148 5.19273,-3.45148 0,0 -1.80171,2.44674 -3.09951,5.2563 -1.60015,3.46544 -2.40488,5.37725 -2.20486,7.64257 0.014,0.13025 2.25293,-1.12568 4.27947,-1.82342 1.56294,-0.53959 3.42513,-1.03731 5.53075,-3.40963 1.52572,-1.71178 3.27007,-3.77709 3.27007,-3.77709 0,0 -0.92877,2.3258 -1.29159,4.50275 -0.35973,2.1816 -0.41245,5.40515 -0.14575,5.6982 0.13955,0.14885 5.30282,-2.99563 6.89366,-4.81905 2.50256,-2.86538 4.64695,-6.85646 4.64695,-6.85646 0,0 0.14419,0.22328 0.18451,0.47912 0.0341,0.25583 -0.4543,5.27956 -0.2946,7.12159 0.19226,2.21881 0.30545,2.80492 0.46361,5.6703 0.0419,0.76286 -0.0481,1.3164 0.13179,1.42339 0.18452,0.11164 0.445,-0.2791 1.17066,-0.60936 0.72719,-0.32561 5.51214,-2.10252 8.17285,-4.47484 4.6702,-4.15853 5.68115,-6.75411 5.68115,-6.75411 0,0 -0.99854,5.2563 -1.07142,7.12159 -0.12094,3.08866 0.25894,8.08447 0.62332,8.34031 0.36282,0.25584 1.94901,-1.25593 3.9492,-2.40023 0.98148,-0.56284 2.87469,-1.55828 6.02382,-5.81914 1.98158,-2.67467 3.43132,-4.56321 3.6639,-4.62834 0.23879,-0.0651 -1.28694,4.02829 -1.29934,5.3726 -0.0109,1.50246 0.7148,3.89338 1.09777,4.93999 0.30546,0.82798 0.37988,1.27919 0.62177,2.43744 0,0 3.50265,-3.40032 5.64703,-5.66565 4.84232,-5.1121 4.53841,-8.00539 4.53841,-8.00539 -7.19447,-0.79077 -14.01371,-3.13518 -18.24356,-4.6702 -11.11111,-4.02364 -17.28533,-9.11714 -23.72159,-15.15491 -3.73058,-3.50265 -4.96635,-7.06112 -4.17248,-8.8985 0.46516,-1.07917 1.54899,-1.51642 1.54899,-1.51642 0,0 -5.40051,-6.33082 -4.58183,-12.02438 0.47911,-3.34449 5.2563,-4.64694 14.13465,-2.93981 11.36075,2.18626 22.8874,8.62406 22.8874,8.62406 0,0 -4.37715,-3.04214 -6.08584,-5.43771 -1.70868,-2.40023 -2.58008,-4.28877 -2.58008,-4.28877 0,0 -2.96307,0.47911 -6.06878,-0.33027 -3.11037,-0.80937 -6.04863,-1.41408 -8.26434,-5.30747 -0.67603,-1.1815 0.19847,-0.7489 1.14584,0.47447 0.0698,0.0884 0.76442,0.71169 1.74901,0.76286 1.23267,0.0698 4.98186,-0.52098 10.55912,-5.40516 5.80519,-5.08419 10.76224,-8.9078 14.21063,-7.56349 3.45613,1.34431 4.6888,4.57717 2.65605,7.22858 -2.03584,2.65141 -2.5103,3.74453 -2.5103,3.74453 0,0 0.76596,0.46981 1.88854,1.63271 1.12879,1.1629 2.36301,2.29324 2.36301,2.29324 0,0 3.96161,-4.98186 13.8416,-11.34059 9.88464,-6.35408 14.75331,-8.14029 14.75331,-8.14029"
     id="path3123"
     style="fill:#e8000d" /><path
     d="m 177.58707,150.10679 c -0.18141,0.25584 -1.887,3.47474 -2.94912,5.58192 -1.80947,3.59568 -2.0653,6.7262 -2.66071,6.90761 -0.26824,0.0791 -3.20805,-1.65596 -7.52628,-2.56302 -3.36775,-0.7024 -7.91237,-0.85125 -8.06587,-0.87916 -0.1566,-0.0232 -0.23413,-0.20467 -0.33646,-0.38608 -0.10234,-0.18141 -0.2853,-0.49307 -0.33802,-0.57215 -0.0512,-0.0744 -0.10233,-0.22792 -0.12559,-0.40934 -0.0279,-0.18606 0.0232,-0.64657 0.0744,-0.87915 0.0512,-0.23258 2.13509,-4.60508 2.57544,-5.92148 0.4388,-1.32105 1.6017,-4.526 1.96452,-4.73532 0.36282,-0.20467 3.7864,-1.36757 9.45049,-0.22793 4.06705,0.81403 7.7046,2.97237 8.11859,3.69337 0,0 0,0.13024 -0.18141,0.39073 m -4.98807,0.85124 c -0.20776,-0.20932 -3.64374,-1.71179 -5.79433,-2.09322 -2.04206,-0.36282 -5.60983,-0.0279 -5.79124,0.0791 -0.18141,0.10234 -1.03731,2.50721 -1.37222,3.4887 -0.33492,0.98149 -1.34896,3.35845 -1.26524,3.48869 0.23258,0.36283 2.11958,-0.48841 5.63619,0.44191 3.03284,0.80007 5.35089,1.96762 5.50904,1.99088 0.1535,0.0232 0.7241,-1.93972 1.44664,-3.64685 0.5737,-1.35827 1.4234,-3.25612 1.52573,-3.40962 0.10543,-0.15816 0.10543,-0.33957 0.10543,-0.33957 z"
     id="path3125"
     style="fill:#e8000d" /><path
     d="m 82.894531,169.20624 c -0.2853,0.23259 -4.00503,0.64657 -7.78677,1.86529 -2.7491,0.88846 -6.05638,2.70258 -6.20833,2.62816 -0.1504,-0.0744 -1.34121,-2.11648 -3.48095,-4.47949 -2.13818,-2.36301 -2.31649,-1.8932 -2.57543,-3.33985 -0.0589,-0.34422 0.99544,-1.30709 2.74289,-2.38162 1.74745,-1.06986 2.63435,-1.42804 2.63435,-1.42804 0,0 0.41865,0.2605 1.29625,0.36283 0.51167,0.0558 2.19865,-0.4512 2.7584,-0.99544 0.7365,-0.72565 1.09932,-1.55364 1.44664,-1.46526 0.19072,0.0558 0.16746,0.35818 0.18296,0.64658 0.0171,0.28375 1.17066,1.58619 1.98468,2.06996 0.34887,0.20466 0.79698,0.0279 1.52108,0.26514 0.23258,0.0791 1.27453,0.82333 2.30564,1.85599 1.56448,1.56758 3.29643,4.30272 3.17859,4.39575 m -7.87981,-4.66555 c -0.79542,-0.85589 -1.92886,-2.01879 -2.10872,-2.0467 -0.17986,-0.0325 -2.12423,0.55354 -2.96772,0.91636 -0.84349,0.36283 -3.18014,1.46061 -3.25456,1.58155 -0.0744,0.12094 1.25128,1.54898 2.09321,2.57698 0.79078,0.95358 2.03585,2.28859 2.1723,2.32115 0.1349,0.0279 2.27463,-0.92102 3.14758,-1.20476 0.8745,-0.2884 3.04369,-1.13035 3.10416,-1.14895 0.0589,-0.014 -1.40013,-2.15369 -2.18625,-2.99563 z"
     id="path3127"
     style="fill:#e8000d" /><path
     d="m 162.20114,19.871402 c -0.53649,-1.43734 -2.24362,-1.70713 -2.96462,-1.79551 -0.71945,-0.0884 -3.54917,0.35817 -9.12333,5.07954 -5.57571,4.72137 -7.28285,6.07033 -8.81323,6.6983 -1.52572,0.62796 -3.14447,0.94427 -2.96306,1.12103 0.17676,0.18142 2.82972,0.88846 4.08875,1.03731 2.74444,0.31166 4.31048,-0.17676 4.31048,-0.17676 0,0 -0.12869,-4.18644 1.98313,-5.98195 3.65616,-3.11192 10.15909,0.40469 10.15909,0.40469 0,0 2.38627,-2.68863 2.96771,-3.95851 0.71635,-1.57224 0.35508,-2.42814 0.35508,-2.42814"
     id="path3129"
     style="fill:#ffc82d" /><path
     d="m 213.01207,49.529982 c 0,0 -1.47766,0.4326 -2.58474,0.7396 -1.10863,0.30701 -3.32589,0.80008 -3.26542,0.92102 0.0605,0.12559 4.67951,3.26542 6.27966,3.87944 1.6048,0.61865 4.43607,1.78621 5.42221,2.03274 0.98303,0.24654 2.33665,0.4326 2.33665,0.67913 0,0.24654 -1.84668,0.98149 -4.30893,2.03275 -2.4638,1.04196 -4.92449,2.40023 -4.92449,2.58629 0,0.18141 7.94028,0.92101 11.75924,1.35361 3.81896,0.42795 8.68453,1.04661 9.9141,1.23268 1.23112,0.18141 2.52426,0.55354 2.4638,0.36747 -0.0636,-0.18606 -0.49308,-0.36747 -1.78622,-0.92567 -1.29314,-0.55354 -6.21918,-3.57242 -8.92951,-5.47958 -2.70878,-1.90715 -7.26735,-5.54005 -9.05356,-6.83319 -1.78156,-1.29315 -3.32279,-2.58629 -3.32279,-2.58629"
     id="path3131"
     style="fill:#ffc82d" /><path
     d="m 166.68218,51.920902 c -0.31476,-0.5861 -3.19875,-3.69337 -8.38993,-7.00065 0,0 5.9773,2.37231 9.02409,-1.24198 3.76314,-4.47018 -1.35982,-9.3404 -0.93497,-10.09396 2.47,-4.35855 15.17971,-15.39213 31.21686,-20.69495 17.19385,-5.6889035 31.8929,-0.0279 42.0985,8.37752 15.21847,12.53605 11.91118,26.25361 11.91118,26.25361 0,0 -8.40698,-6.38199 -26.23035,-3.01423 -17.41557,3.29333 -18.40636,5.04233 -32.60923,9.72184 -9.62881,3.16773 -15.7348,8.44264 -26.88313,8.12633 -20.55695,-0.58145 -25.52796,-7.8705 -25.52796,-7.8705 0,0 0.31321,-2.60489 -3.64064,-6.55875 -0.96599,-0.96753 -3.329,-3.5073 -5.26251,-2.42813 -2.00329,1.12103 3.73058,8.10308 8.81012,12.13601 3.28248,2.60955 8.3062,4.62834 12.8105,5.43772 14.47576,2.60954 22.79127,1.1722 37.26703,1.48385 10.25057,0.22328 17.30394,-0.35816 30.38888,0.81404 7.67513,0.68843 14.91767,2.10717 14.91767,2.28858 0,0.18141 -3.55382,1.20477 -7.72631,2.60489 -6.16181,2.06997 -18.15052,6.71691 -29.96093,7.82399 -22.49976,2.11182 -34.95984,0.62796 -50.5954,-5.66564 -14.51763,-5.84241 -24.58524,-17.66211 -23.36962,-19.53671 0.39538,-0.60471 1.39083,-0.24188 1.39083,-0.24188 0,0 3.05609,2.38627 4.58492,3.60034 1.52727,1.20941 5.67184,3.58173 6.69985,3.81896 1.16755,0.26979 2.08856,-0.0744 2.06996,-0.35818 -0.0512,-0.67448 -0.16436,-0.53493 -3.01423,-2.06996 -4.00348,-2.15834 -8.66438,-6.11685 -10.52657,-8.36357 -1.26058,-1.53037 -6.93552,-9.76835 -3.2282,-11.99646 6.52618,-3.9306 29.37017,6.37268 31.16569,7.23323 4.72602,2.25602 9.10782,5.07489 13.90672,8.40078 0,0 -0.14265,-0.57215 -0.36282,-0.98614 m 22.81452,-31.80296 c -3.85772,2.12578 -2.87778,4.64694 -2.44829,5.00512 0.42795,0.35817 2.24207,2.22811 6.16802,-0.24189 3.92595,-2.46534 2.80491,-4.17248 2.40022,-4.79579 -0.56594,-0.8745 -2.40022,-2.01879 -6.11995,0.0326 z"
     id="path3133"
     style="fill:#ffc82d" /><path
     d="m 190.49059,21.555282 c -1.1815,0.8745 -2.43278,1.81878 -1.73039,2.59094 0.70549,0.77217 2.50256,-0.0186 3.27472,-0.39538 0.77217,-0.37678 2.31805,-1.62806 1.80017,-2.41883 -0.46516,-0.7024 -2.16144,-0.64658 -3.3445,0.22327"
     id="path3135"
     style="fill:#ffc82d" /><path
     d="m 200.95668,142.07348 c -2.52581,9.67997 -8.3093,13.17333 -8.87524,14.07108 -0.4419,0.69774 -3.45149,8.51242 -6.48432,12.29882 -3.00028,3.73988 -5.75093,6.09359 -10.67542,9.01014 -0.86985,0.52098 -0.0992,1.19546 -0.13335,1.63271 -0.0295,0.42795 -1.14584,6.01917 -6.05637,10.56378 -7.50923,6.95413 -11.26772,6.52154 -11.798,7.05182 -0.23258,0.23723 1.56294,1.53037 3.35846,1.36292 1.74434,-0.16281 7.28439,-2.78631 11.8383,-9.21017 3.6236,-5.11675 4.29808,-9.02874 4.357,-9.30784 0.13024,-0.63261 0.33181,-0.82799 0.92722,-0.43725 0.24188,0.15815 0.52098,1.00474 0.80007,0.89776 2.49326,-0.92102 9.38692,-6.79133 15.61076,-15.82473 4.53995,-6.57736 8.67523,-17.19695 9.62415,-21.54154 1.33191,-6.08429 0.0357,-10.00093 -1.39548,-10.43818 -1.56759,-0.47446 0.7272,2.88399 -1.09778,9.87068"
     id="path3137"
     style="fill:#ffc82d" /><path
     d="m 144.70494,183.43083 c -0.61402,-0.22794 -3.06696,-0.47912 -6.22384,3.15843 -3.15998,3.64219 -4.29807,8.3031 -4.0655,8.6101 0.23258,0.31166 0.5799,-2.34905 5.27957,-5.91218 4.70276,-3.56312 5.66564,-2.79561 6.22383,-3.7957 0.26979,-0.48842 -0.28995,-1.71179 -1.21406,-2.06065"
     id="path3139"
     style="fill:#ffc82d" /><path
     d="m 57.841031,153.73969 c -0.11164,0.0279 -0.5954,1.22336 -1.19081,1.59084 -0.60005,0.37213 -0.65587,0.0837 -1.22492,0.68379 -0.57059,0.60005 -2.39092,3.27472 -0.14265,5.20978 1.22337,1.05127 3.55848,0.73961 4.46554,0.42795 0.90706,-0.31165 1.63271,-1.52107 1.25283,-2.27928 -0.33802,-0.68379 -1.08072,-0.40004 -1.5924,-1.10708 -0.51167,-0.7117 -0.62486,-1.56759 -0.96753,-2.30719 -0.34267,-0.73961 -0.57215,-0.94428 -0.51323,-1.27919 0.11319,-0.65588 -0.0868,-0.93962 -0.0868,-0.93962"
     id="path3141"
     style="fill:#ffc82d" /><path
     d="m 50.412431,160.51241 c -0.93807,0.0884 -2.50255,0.20002 -5.40515,1.02335 -2.9026,0.82333 -7.05957,1.99554 -7.05957,2.3351 0,0.2791 5.99901,0.80938 8.0271,0.76751 2.70258,-0.0558 5.8331,-1.30709 6.26105,-2.44673 0.4264,-1.13964 -0.88225,-1.76296 -1.82343,-1.67923"
     id="path3143"
     style="fill:#ffc82d" /><path
     d="m 63.195021,169.50394 c 0,0 -0.71169,-0.79542 -0.85589,-0.79542 -0.1411,0 -1.07917,2.53512 -2.10253,3.50266 -1.028,0.96752 -2.39092,2.44673 -2.93205,1.65131 -0.54269,-0.80008 1.95987,-2.1909 2.75995,-3.95851 0.79697,-1.76295 1.36291,-2.9305 1.42028,-4.86557 0.0589,-1.93506 0.11474,-1.82342 -0.0853,-1.85133 -0.19691,-0.0279 -1.73504,0.71169 -3.84221,0.67913 -2.84833,-0.0372 -2.9026,-0.85124 -3.15844,-0.90706 -0.25584,-0.0558 -0.54268,1.39083 -3.18634,2.41883 -2.07461,0.80007 -3.67011,0.68379 -4.01433,1.08382 -0.33957,0.40004 -0.34422,2.47465 0.36903,4.54926 0.49307,1.442 2.08081,3.9306 1.14274,4.24226 -0.98614,0.33491 -1.25593,-0.42795 -2.25137,-2.84213 -0.67138,-1.63271 -0.7117,-2.07926 -0.82333,-2.19555 -0.1163,-0.11164 -0.51478,-0.16746 -0.71325,-0.0558 -0.20157,0.11629 -1.25438,1.36757 -1.39548,1.5955 -0.14265,0.22792 0.71015,1.33501 1.05281,1.87924 0.34267,0.53959 1.11173,1.93041 0.76752,2.50256 -0.33957,0.57215 -0.5675,0.62331 -0.76752,0.37213 -0.20002,-0.25584 -1.28539,-3.51196 -4.526,-5.35399 -3.69802,-2.10717 -7.96043,0.33492 -8.36667,3.87013 -0.46826,4.07015 3.60964,8.438 11.04289,10.85217 8.14029,2.64211 12.94849,-0.63261 12.94849,-0.63261 0,0 7.5728,4.12596 21.97569,2.64676 14.73936,-1.51643 19.78168,-5.18188 21.4051,-6.40525 1.567579,-1.18151 1.762949,-1.90716 1.562929,-1.85134 -0.19537,0.0605 -2.363009,1.28384 -4.039129,-0.31166 -3.01734,-2.86073 -1.2823,-9.07526 -1.56604,-9.30784 -0.2853,-0.22793 -1.06057,0.22793 -1.93507,0.0605 -1.48386,-0.2884 -1.99088,-1.71179 -2.27928,-1.67923 -0.51168,0.0558 -0.96753,2.53047 -3.24216,2.30254 -1.85134,-0.18606 -2.70723,-1.93506 -2.60955,-4.98186 0.0837,-2.57233 0.35818,-3.55847 0.35818,-3.55847 0,0 -1.16756,0 -2.36302,0.1442 -1.19546,0.13955 -2.67466,0.42795 -2.67466,0.42795 0,0 1.82343,1.85133 2.96152,3.41427 1.13653,1.56759 2.61574,3.9213 2.47619,4.38645 -0.0837,0.2791 -1.62341,-0.34421 -8.96672,1.85599 -5.77884,1.7304 -8.62406,3.72128 -8.82253,3.7771 -0.20157,0.0558 -0.37058,-1.19546 -1.1691,-2.39092 -0.79387,-1.19546 -1.5924,-2.3351 -1.70559,-2.3351 -0.11474,0 -0.25893,2.80956 -1.1846,4.64229 -0.97994,1.93507 -2.0281,3.34915 -2.60024,2.9026 -0.79853,-0.62797 0.82333,-2.9026 1.56293,-4.95395 0.52563,-1.44665 0.37213,-4.52601 0.37213,-4.52601"
     id="path3145"
     style="fill:#ffc82d" /><path
     d="m 100.48686,183.06335 c 0,0 -2.349049,1.75365 -11.884829,4.78184 -5.00666,1.58619 -11.00102,2.59093 -20.58331,2.06531 -8.55428,-0.47447 -11.18863,-2.46535 -11.88947,-2.5956 -0.64658,-0.12093 -4.46864,3.04215 -13.95014,0.45586 -7.66583,-2.08857 -9.13108,-5.20979 -10.18545,-5.71216 -0.25273,-0.12094 -1.72729,5.90288 10.01644,9.00549 3.2127,0.84659 9.31405,0.23258 11.76544,-0.50702 1.99553,-0.60006 2.35371,-1.028 2.52426,-1.05592 0.2853,-0.0512 0.67138,0 0.67138,0.19072 0,0.19537 0.0233,0.53029 0.0233,0.53029 0,0 6.00522,2.68861 14.74556,2.54441 8.74035,-0.14419 18.01408,-1.89784 24.83487,-5.11675 3.39722,-1.60015 3.626699,-1.92111 3.744529,-2.18625 0.12095,-0.26514 0.2884,-1.028 0.26515,-1.36757 -0.0232,-0.33491 -0.0977,-1.03265 -0.0977,-1.03265"
     id="path3147"
     style="fill:#ffc82d" /><path
     d="m 191.90002,151.02316 c -0.0527,-0.93033 -0.33491,-2.35837 -0.74115,-2.3258 -0.68533,0.0465 -0.22172,3.2189 -1.05436,6.18662 -1.77226,6.34012 -2.97392,8.99154 -6.36338,13.05238 -6.05173,7.27044 -12.41046,8.94502 -12.27557,9.31714 0.18762,0.52563 1.49317,1.13034 1.49317,1.13034 0,0 0.0837,2.30719 -2.608,6.18663 -5.09814,7.35882 -11.43052,9.6195 -13.34697,9.96837 -0.91637,0.1628 -3.56313,-0.39074 -5.86102,-2.16765 -1.45595,-1.13034 -2.67932,-3.53056 -2.67001,-4.97255 0.005,-0.60006 1.89475,-1.44665 3.39876,-2.46535 1.42494,-0.96288 2.03895,-2.64676 1.39548,-3.15843 -0.74736,-0.59541 -1.57534,1.26058 -2.6173,1.91645 -1.03885,0.66053 -2.67466,1.49782 -2.75839,1.20011 -0.1349,-0.4698 -0.093,-0.95357 -0.92102,-1.77225 -0.66208,-0.65588 -1.26524,-1.14895 -1.26524,-1.14895 0,0 1.50712,-0.35817 2.96308,-1.97227 1.14739,-1.26524 1.26988,-4.03294 0,-6.27501 -1.10709,-1.95832 -3.59569,-3.42823 -3.98177,-3.42823 -0.38143,0 -0.21863,0.79543 0.0527,1.23268 0.27599,0.43725 0.67758,0.54423 1.36602,1.08848 0.67913,0.53493 2.35836,2.74909 1.80482,4.97255 -0.36283,1.45595 -1.65132,2.53512 -4.27792,2.42348 -2.08392,-0.0884 -3.13827,-0.63262 -5.01597,-1.81412 -0.21397,-0.1349 -0.53959,0.0791 -0.21242,0.86054 0.23103,0.53959 1.21251,1.4606 1.21251,1.4606 0,0 -0.92101,-0.63261 -1.19546,-0.80007 -0.27444,-0.1628 -0.47446,-0.34422 -0.47446,-0.34422 0,0 -0.54734,-1.12103 -0.95048,-2.33975 -0.3101,-0.93032 -0.1566,-2.7677 -0.1566,-2.7677 0,0 2.27463,0.91171 4.71827,2.05135 2.87468,1.33501 4.5198,1.53503 5.30592,1.03731 0.78612,-0.50237 -1.13499,-2.6328 -1.93972,-4.47484 -0.67758,-1.54433 -1.25128,-4.22365 -0.92101,-4.31668 0.4326,-0.12559 1.12568,1.10708 6.03312,3.51661 1.67922,0.82799 5.65169,2.45139 6.20833,2.29789 0.52718,-0.14885 0.12249,-4.00502 -1.72419,-8.86594 -0.79077,-2.08857 -3.87013,-4.92604 -3.64376,-5.34469 0.0109,-0.0186 1.83894,0.014 1.83894,0.16746 0,-0.0279 -0.014,0.53493 0.24498,0.77216 0.17831,0.16281 1.10863,0.5768 1.73194,0.36748 1.00475,-0.33957 3.01424,-0.5954 8.81478,0.20467 5.43927,0.74891 9.96837,4.33529 10.03814,3.70267 0.24654,-2.22811 1.00475,-5.8145 2.7491,-9.29389 2.64676,-5.28421 4.2283,-6.48898 4.08255,-6.80528 -0.42795,-0.94428 -4.18489,-3.53056 -8.29225,-4.58648 -4.79114,-1.23267 -7.52163,-0.73495 -7.74025,-1.12103 -0.17987,-0.32561 2.69792,-4.60043 6.69519,-5.27026 3.1817,-0.53493 4.67951,0.96288 5.21289,0.75356 0.18141,-0.0698 -0.17056,-1.17221 -1.0373,-1.83273 -1.41409,-1.07452 -3.31194,-0.95358 -3.31194,-0.95358 0,0 -0.26824,-6.54944 4.67951,-11.32663 2.87003,-2.77701 9.97302,-4.33064 15.82472,-0.8652 7.91237,4.68881 7.74956,10.72193 6.36339,18.02493 -1.09313,5.73542 -4.91209,9.59625 -6.74481,11.12197 -0.4326,0.36283 -0.0698,-1.27454 -0.1256,-2.20485 m -35.00791,19.91347 c -0.19071,0.70705 1.27919,0.87916 1.75365,2.1816 0.49307,1.34897 0.28995,2.13043 0.27755,2.28394 -0.0496,0.47446 -1.03111,2.38161 0.0481,2.40487 1.1629,0.0279 2.21261,-4.28412 0.75356,-6.19592 -1.304,-1.70714 -2.66071,-1.33036 -2.83282,-0.67449 z"
     id="path3149"
     style="fill:#ffc82d" /><path
     d="m 160.16684,29.630452 c 0,0 -5.85171,-4.93999 -9.50321,-2.71188 -3.81896,2.33045 -1.33811,8.47521 2.40487,12.17788 3.66546,3.62825 8.62096,5.64704 11.21965,4.46553 3.01889,-1.37222 2.36922,-4.04689 2.36922,-4.04689 0,0 -1.65907,2.9026 -4.54151,2.82817 -4.46708,-0.11629 -8.05502,-5.27025 -8.05502,-5.27025 0,0 0.69464,-0.25119 2.21261,-0.49307 1.21872,-0.19537 2.25293,-0.53959 2.25293,-0.53959 0,0 -1.68698,-0.61866 -3.05765,-0.99079 -1.40944,-0.37678 -2.86074,-0.83729 -2.86074,-0.83729 0,0 -1.3474,-2.80956 0.84194,-4.62368 2.44209,-2.01879 6.71691,0.0419 6.71691,0.0419"
     id="path3151"
     style="fill:#ffffff" /><path
     d="m 170.07008,151.88835 c -0.093,-0.23723 -1.83738,-0.89776 -3.93989,-1.20476 -2.09788,-0.30701 -3.60654,-0.21397 -3.86548,-0.0698 -0.26049,0.13955 -0.64037,0.80008 -0.94738,1.55829 -0.3039,0.75356 -0.61091,2.0281 -0.61091,2.16764 0,0.1442 0.7303,-0.25584 3.58483,0.54424 2.85608,0.80007 3.87013,0.84659 4.05775,0.80007 0.19071,-0.0465 0.68378,-1.10708 1.01405,-1.95832 0.33026,-0.84659 0.70703,-1.83738 0.70703,-1.83738"
     id="path3153"
     style="fill:#ffffff" /><path
     d="m 188.42993,91.380392 c 0,0 -0.47911,-0.0465 -0.65432,-0.0605 -0.21087,-0.0186 -0.69929,-0.0279 -0.69929,-0.0279 0,0 -1.63271,0.94892 -2.31649,1.24662 -0.68379,0.2977 -1.86994,1.0094 -1.86064,1.19546 0.0186,0.40004 1.05281,0.36283 3.78795,0.74891 2.67932,0.38143 4.44072,1.58619 4.33373,2.53047 -0.1566,1.40013 -2.61419,3.725928 -6.77117,4.763228 -4.15543,1.03266 -11.13747,2.44209 -13.19192,2.46535 -0.78768,0.005 -0.55974,0.52563 -0.28065,0.67913 0.28065,0.15816 2.1816,1.60015 2.25137,2.27929 0.0729,0.68843 -0.63106,1.82807 -2.7584,2.44208 -2.43743,0.7024 -6.08738,0.79078 -6.80528,0.75356 -0.721,-0.0372 -0.721,0.2791 -0.63262,0.47446 0.0853,0.19072 1.5955,1.34897 1.70249,2.29789 0.10233,0.94893 -0.34422,2.45604 -6.96344,3.14913 -10.28468,1.07917 -13.57801,1.15825 -13.59662,1.55364 -0.0186,0.38608 1.02336,0.24653 5.62999,0.57679 4.19418,0.2977 11.32974,-0.44655 14.10364,-1.72109 4.28256,-1.96297 1.91955,-4.89347 1.91025,-5.07024 -0.014,-0.48841 4.59888,0.0232 5.86101,-0.36282 1.83273,-0.56284 3.57243,-2.43743 3.07005,-4.00503 -0.44035,-1.36291 -1.17685,-1.71643 -1.21251,-1.85598 -0.031,-0.13955 4.25001,0.0977 9.66912,-1.13964 3.2251,-0.73961 7.71699,-2.89795 9.12178,-5.721458 1.12413,-2.26068 -0.54424,-4.1911 -2.93051,-4.8051 -2.38627,-0.61402 -3.25147,-0.51168 -3.31659,-0.63262 -0.10233,-0.19072 0.68844,-0.40934 1.06987,-0.64658 0.66673,-0.41398 1.4792,-1.10707 1.4792,-1.10707"
     id="path3155"
     style="fill:#ffffff" /><path
     d="m 104.9586,91.924632 c 0,0 0.37988,-0.0279 0.81713,-0.0279 0.4419,0 1.06987,0.0279 1.06987,0.0279 0,0 -1.82188,1.58619 -0.92567,2.95376 0.89775,1.36292 3.7988,1.45595 5.20513,1.51177 1.35982,0.0512 1.86219,-0.23258 1.99088,0.014 0.14886,0.2791 -0.46515,0.52564 -0.78611,1.17221 -0.32251,0.64657 -0.10699,2.13043 2.71343,2.651408 4.77874,0.8838 8.96517,0.92101 9.7668,0.96288 0.80472,0.0419 1.19081,0.22792 1.19081,0.32096 0,0.28375 -0.16746,0.0837 -3.07781,0.33491 -2.48705,0.21397 -6.95258,0.25584 -9.05511,-0.15815 -2.76925,-0.54889 -3.25301,-1.58154 -3.30573,-2.288588 -0.0419,-0.56284 0.17676,-1.61875 0.10699,-1.69783 -0.0651,-0.0837 -4.62214,0.98149 -6.06103,-1.15359 -1.85754,-2.75375 0.35042,-4.62369 0.35042,-4.62369"
     id="path3157"
     style="fill:#ffffff" /><path
     d="m 134.19698,154.53511 c -2.9212,5.66564 -3.60499,9.56833 -3.64685,9.77765 -0.0512,0.2605 -1.34431,-1.55363 -1.47456,-4.29342 -0.20777,-4.29342 0.90706,-8.40543 0,-8.71244 -0.86054,-0.2977 -4.44693,6.72156 -5.42841,8.66127 -0.98614,1.93972 -5.17258,9.43809 -4.50274,10.01024 0.76751,0.65122 3.9337,-5.40515 4.80975,-6.85645 0.84193,-1.38153 3.2096,-5.60983 3.2096,-5.60983 0,0 -0.0791,4.62834 0.69773,6.15406 0.77372,1.52572 1.83739,3.49335 2.89485,3.28868 1.06056,-0.20932 0.36282,-0.91171 0.93342,-2.6142 0.5675,-1.70713 3.4887,-8.25193 4.49809,-9.95906 1.0094,-1.70714 4.80975,-7.29371 4.70742,-8.14495 -0.0837,-0.69309 -4.03759,3.13983 -6.6983,8.29845"
     id="path3159"
     style="fill:#ffffff" /><path
     d="m 81.443231,128.21173 c -1.24197,-2.23742 -4.9648,-9.56368 -5.18653,-9.58694 -0.22328,-0.0232 -0.38143,3.56777 -0.40159,5.09815 -0.0217,1.53037 -0.0682,3.61429 -0.17676,3.67941 -0.11164,0.0698 -2.28703,-2.0188 -3.84067,-3.54917 -1.55208,-1.52572 -3.50265,-3.59103 -3.90268,-4.49809 -0.40004,-0.91172 -0.88691,-2.37231 -1.28695,-2.26068 -0.55509,0.1535 -0.66207,1.86064 -0.62021,4.0748 0.0465,2.21881 0.17676,2.90725 -0.0233,3.04214 -0.20002,0.13025 -2.67001,-1.04195 -4.6795,-1.97692 -2.52892,-1.1722 -5.83311,-3.30264 -6.03312,-3.26077 -0.24189,0.0558 2.26532,3.30728 3.12897,5.16792 1.02025,2.19555 1.92731,4.21435 1.63891,4.32598 -0.28685,0.11164 -1.63891,-0.50702 -3.3476,-1.10707 -1.70558,-0.60006 -3.52746,-1.28849 -3.65925,-1.13034 -0.13335,0.1535 2.0591,2.57233 3.07935,4.16783 1.02025,1.59549 1.36912,1.9118 1.36912,2.13508 0,0.21863 -0.27909,0.50237 -0.50082,0.52563 -0.22017,0.0232 -1.6203,0.11164 -2.75064,0.1349 -1.13034,0.0232 -2.41573,-0.093 -2.57233,0.0419 -0.15351,0.1349 2.10252,2.7584 3.83756,4.46088 2.4607,2.41418 4.48104,3.36776 4.54461,3.47939 0.0698,0.11164 -1.19546,0.79078 -2.74599,1.50712 -3.39411,1.57689 -4.03604,1.31175 -4.10581,1.57689 -0.0434,0.18141 2.87004,1.06522 4.97101,1.80017 2.72583,0.95358 4.9679,1.10243 5.56486,1.1722 0.60005,0.0698 -0.55665,0.61867 -0.93032,0.84194 -0.37678,0.22328 -1.11174,0.53028 -1.11174,0.68844 0,0.307 5.00512,2.78165 9.19466,3.13983 4.39266,0.38143 8.3,-0.20002 10.43508,-1.32106 0.42329,-0.22327 0.40004,-0.55354 -0.0217,-0.71169 -0.53183,-0.19537 -1.24352,0.79542 -7.54178,0.64657 -5.60983,-0.13489 -9.62416,-1.64201 -9.80247,-1.84203 -0.15195,-0.17211 1.53193,-0.75356 2.26223,-1.13034 0.7334,-0.38143 1.64201,-0.66983 1.55363,-1.06522 -0.10233,-0.44655 -1.63581,-0.35817 -3.21735,-0.53493 -2.01879,-0.21863 -7.20687,-1.53037 -7.31851,-1.66062 -0.11164,-0.1349 1.55053,-0.93497 2.37231,-1.40013 0.82333,-0.46516 1.61876,-0.97684 1.86374,-1.0187 0.24343,-0.0465 0.66208,-0.24188 0.68844,-0.44655 0.0667,-0.53028 -0.44501,-0.61866 -0.68844,-0.77217 -0.24498,-0.1535 -1.09468,-0.93962 -3.7926,-3.06074 -1.66527,-1.31176 -3.23906,-2.90725 -3.32744,-3.06076 -0.0884,-0.15815 1.40013,-0.20002 2.55217,-0.24653 1.1505,-0.0419 1.75055,-0.11164 2.06221,-0.26514 0.31011,-0.1535 0.64192,-0.2884 0.62021,-0.66518 -0.0202,-0.37678 -0.57679,-1.17685 -1.55053,-2.46069 -0.71634,-0.94428 -2.08391,-2.37697 -2.04205,-2.50722 0.0465,-0.13024 1.04196,0.26515 2.37387,0.66519 1.3288,0.40003 2.91965,1.14893 3.29643,0.86054 0.37678,-0.2884 0.21397,-1.54898 -0.72565,-3.40962 -1.3071,-2.59559 -2.75065,-4.40971 -2.59559,-4.52135 0.1535,-0.11164 2.46534,1.37222 3.99572,2.21416 1.52727,0.84194 4.12131,2.23741 4.40971,2.1909 0.2884,-0.0465 0.80473,-1.12569 0.73495,-2.12578 -0.0667,-0.99544 -0.24343,-2.81422 -0.13024,-2.88399 0.10698,-0.0651 2.79096,3.10727 4.00967,4.19109 1.22027,1.08847 2.48551,2.08391 3.08401,2.57233 0.60006,0.48842 1.55364,1.42339 1.77226,1.62341 0.22483,0.20001 0.71169,0.1535 0.82333,-0.24654 0.11164,-0.40004 0.0217,-2.37231 0,-3.03749 -0.0233,-0.66518 0.0419,-2.53047 0.15351,-2.61885 0.11163,-0.0884 1.26523,2.21882 2.39557,3.86082 0.78147,1.13035 2.48395,3.86083 2.97237,4.67951 0.48842,0.82334 1.27453,1.88855 1.53347,1.73039 0.7086,-0.4419 -1.4699,-3.75848 -2.66381,-5.91217"
     id="path3161"
     style="fill:#ffffff" /><path
     d="m 73.358761,165.21983 c -0.36283,-0.46982 -0.88846,-1.0094 -1.0094,-1.08848 -0.12094,-0.0744 -1.05281,0.40934 -1.47921,0.54424 -0.41864,0.1349 -1.68387,0.59075 -1.77536,0.69309 -0.0868,0.10233 0.69464,0.88845 0.96598,1.25127 0.2698,0.36283 1.1443,1.33966 1.3071,1.35362 0.0698,0.009 1.11639,-0.45121 1.68853,-0.63262 0.57215,-0.17676 1.09933,-0.42329 1.26524,-0.5861 0.0791,-0.0791 -0.60006,-1.06987 -0.96288,-1.53502"
     id="path3163"
     style="fill:#ffffff" /><path
     d="m 83.511641,149.50208 c -0.36128,-0.18141 -1.37377,-2.1909 -1.08847,-4.14457 0.28219,-1.95367 1.40478,-5.6703 1.73659,-6.76342 0.33802,-1.11638 0.71325,-2.50256 0.93962,-2.53047 0.22793,-0.0279 0.97684,1.05126 0.97684,1.41409 0,0.47911 -1.23733,3.90734 -1.52107,5.26561 -0.2791,1.35826 -1.04351,6.75876 -1.04351,6.75876"
     id="path3165"
     style="fill:#ffffff" /><path
     d="m 178.85385,192.08744 c 0.64967,0 1.25438,0.16281 1.81412,0.49307 0.56439,0.32562 1.00785,0.76752 1.33346,1.33036 0.32561,0.56284 0.48842,1.16755 0.48842,1.81877 0,0.65123 -0.15971,1.26058 -0.48377,1.82343 -0.32716,0.55819 -0.77061,1.00009 -1.3319,1.3257 -0.5613,0.32562 -1.17066,0.48842 -1.82033,0.48842 -0.65742,0 -1.26523,-0.15815 -1.82498,-0.48377 -0.56284,-0.3256 -1.00629,-0.76751 -1.3319,-1.33035 -0.32406,-0.56285 -0.48687,-1.1722 -0.48687,-1.82343 0,-0.65587 0.16281,-1.26058 0.48842,-1.82342 0.32561,-0.56284 0.77216,-1.00475 1.33501,-1.33036 0.56129,-0.32561 1.16755,-0.48842 1.82032,-0.48842 m 0,0.59541 c -0.82953,0 -1.54123,0.2977 -2.12733,0.8931 -0.59075,0.59541 -0.8838,1.31176 -0.8838,2.15369 0,0.84194 0.29305,1.55829 0.87915,2.15369 0.58765,0.59075 1.29779,0.88845 2.13198,0.88845 0.82799,0 1.53813,-0.2977 2.12423,-0.8931 0.5861,-0.59541 0.8807,-1.31175 0.8807,-2.14904 0,-0.84193 -0.2946,-1.55828 -0.8838,-2.15369 -0.58766,-0.5954 -1.29624,-0.8931 -2.12113,-0.8931 z m -0.82023,5.01907 h -0.63107 v -3.9306 h 1.34587 c 0.47601,0 0.81092,0.0372 1.00629,0.11629 0.19692,0.0744 0.35352,0.20002 0.46981,0.38143 0.12094,0.17676 0.17676,0.36748 0.17676,0.5675 0,0.30235 -0.10233,0.55353 -0.30701,0.7582 -0.20931,0.20933 -0.47446,0.32562 -0.80317,0.35353 0.1473,0.0605 0.2822,0.15815 0.41244,0.30235 0.1256,0.13955 0.29305,0.36748 0.48842,0.68844 l 0.47446,0.76286 h -0.77216 l -0.34267,-0.61401 c -0.24809,-0.4419 -0.44345,-0.72565 -0.583,-0.85589 -0.13955,-0.1349 -0.33026,-0.19537 -0.56439,-0.19537 h -0.37058 v 1.66527 z m 0,-3.40497 v 1.19546 h 0.76441 c 0.32872,0 0.56439,-0.0465 0.7148,-0.1442 0.14885,-0.0977 0.22483,-0.25119 0.22483,-0.4605 0,-0.21398 -0.0744,-0.37213 -0.22018,-0.46051 -0.1442,-0.0837 -0.40004,-0.13025 -0.76597,-0.13025 h -0.71789 z"
     id="path3167"
     style="fill:#0022b4" /><path
     d="m 140.0766,107.85635 c 0,0 -1.10243,0.0325 -1.11484,0.0325 -0.0155,0 -0.10388,-0.005 -0.10388,-0.005 -2.21416,-0.093 -3.6484,-0.11164 -4.46088,-0.11164 -0.98614,0 -1.48541,0.34422 -1.48541,1.01405 0,0.30236 0.12714,1.0094 1.32726,1.0094 0.4698,0 1.05125,0.0465 1.26833,0.0977 0.94117,0.20467 1.14119,0.47912 1.20942,1.66527 0.0775,1.25128 0.0775,2.3351 0.0775,8.36822 v 4.95396 c 0,4.11666 -0.15505,7.41464 -2.10407,9.36831 -1.76296,1.7583 -4.09341,1.94901 -5.01287,1.94901 -1.35517,0 -2.95532,-0.17675 -4.53686,-1.47455 -1.71643,-1.40013 -2.85608,-3.5073 -2.85608,-9.24737 v -5.54936 c 0,-6.03312 0,-7.11694 0.0791,-8.36822 0.0791,-1.34896 0.35507,-1.54898 0.93497,-1.65597 0.4512,-0.0744 0.65122,-0.10698 1.028,-0.10698 1.20011,0 1.29314,-0.77217 1.29314,-1.0094 0,-1.01405 -1.15204,-1.01405 -1.53037,-1.01405 l -2.91655,0.0698 -1.95832,0.0465 -7.61311,0.005 -2.26223,-0.0651 -1.83118,-0.0558 c -1.12258,0 -1.29004,0.63727 -1.29004,1.01405 0,0.80938 0.74425,0.97218 1.028,1.0373 0.005,0 0.0186,0.005 0.0325,0.005 0.005,0.0232 0.014,0.0605 0.014,0.14885 0,0.40004 -0.88536,1.44199 -1.66683,2.36301 l -0.16745,0.19536 c -0.67759,0.79543 -3.03595,3.24682 -5.11521,5.40516 -0.854339,0.8838 -1.632709,1.69318 -2.237419,2.3258 0,-0.0884 0,-0.31166 0,-0.31166 0,-6.04707 0,-7.13555 0.0791,-8.38683 0.0791,-1.35361 0.35817,-1.55363 0.93497,-1.66062 0.44035,-0.0744 0.64657,-0.11163 0.995439,-0.11163 1.15049,0 1.20942,-0.84194 1.20942,-1.0094 0,-0.66983 -0.50238,-1.01405 -1.488509,-1.01405 l -2.81267,0.0698 -1.99708,0.0512 -1.75366,-0.0419 c -1.13499,-0.0372 -2.54132,-0.0791 -3.81276,-0.0791 -1.52727,0 -1.52727,0.76286 -1.52727,1.01405 0,0.30235 0.13024,1.0094 1.32881,1.0094 0.56439,0 1.16445,0.0465 1.39237,0.10233 0.93497,0.20002 1.1443,0.49307 1.21562,1.66527 0.0806,1.25593 0.0806,2.34441 0.0806,8.39148 v 6.996 c 0,3.62825 0,6.75877 -0.19537,8.38683 -0.1566,1.13499 -0.32406,1.56293 -0.63571,1.62341 -0.45121,0.10233 -0.86055,0.14885 -1.2978,0.14885 -1.20011,0 -1.29314,0.7396 -1.29314,0.96753 0,0.31631 0.14109,1.05126 1.44974,1.05126 0.91326,0 2.10873,-0.0372 3.15999,-0.0698 l 1.85133,-0.0465 1.78156,0.0419 c 1.15825,0.0326 2.59559,0.0744 3.939899,0.0744 1.34276,0 1.40944,-0.8745 1.40944,-1.05125 0,-0.46517 -0.36748,-0.96754 -1.1722,-0.96754 -0.48532,0 -1.341209,-0.0791 -1.852889,-0.15815 -0.22173,-0.0325 -0.77062,-0.12094 -0.8683,-1.53968 -0.12094,-1.68853 -0.12094,-4.82836 -0.12094,-8.46125 0,0 0,-1.028 0,-2.0281 0.93962,1.03731 15.140949,16.72714 15.140949,16.72714 l 0.0295,0.0232 c 1.7614,1.56293 2.96461,2.52581 5.29661,2.74444 0.86055,0.0791 1.59085,0.0791 2.80027,0.0791 h 3.46078 c 0.44035,0 1.6048,0 1.6048,-1.04661 0,-0.48841 -0.35817,-0.97683 -1.17065,-0.97683 -0.28064,0 -1.06211,-0.19071 -2.39712,-0.72099 -1.90716,-0.74426 -3.72128,-2.33511 -5.24235,-3.79571 -0.0325,-0.0325 -4.60508,-4.99581 -4.60508,-4.99581 0,0 -8.92641,-9.60555 -10.97622,-11.80575 1.85444,-1.91646 6.94328,-7.02857 8.12479,-8.11239 1.68853,-1.54433 3.55382,-3.12587 4.60043,-3.12587 0.50237,0 0.96288,0.12094 1.05126,1.64201 0.0791,1.25128 0.0791,2.33976 0.0791,8.36822 v 5.78659 c 0,5.19583 1.19081,8.69384 3.74454,10.99172 3.20959,2.9026 7.43324,2.9026 9.23806,2.9026 2.40488,0 5.56796,-0.33957 8.67523,-3.00959 3.5104,-3.00958 3.99417,-7.7542 3.99417,-12.43371 v -4.23761 c 0,-6.03311 0,-7.11694 0.076,-8.36822 0.0791,-1.34896 0.35817,-1.54898 0.93497,-1.65597 0.4512,-0.0744 0.65122,-0.10698 1.028,-0.10698 1.19081,0 1.36757,-0.63262 1.36757,-1.0094 0,-0.66983 -0.49772,-1.01405 -1.48386,-1.01405 -1.0094,0 -2.39092,0.0512 -3.40032,0.0837"
     id="path3169"
     style="fill:#ffffff" /></svg>