<?xml version="1.0" encoding="UTF-8" standalone="no"?>
<!-- Created with Inkscape (http://www.inkscape.org/) -->

<svg
   xmlns:dc="http://purl.org/dc/elements/1.1/"
   xmlns:cc="http://creativecommons.org/ns#"
   xmlns:rdf="http://www.w3.org/1999/02/22-rdf-syntax-ns#"
   xmlns:svg="http://www.w3.org/2000/svg"
   xmlns="http://www.w3.org/2000/svg"
   version="1.1"
   width="280"
   height="200"
   id="svg3434">
  <metadata
     id="metadata3442">
    <rdf:RDF>
      <cc:Work
         rdf:about="">
        <dc:format>image/svg+xml</dc:format>
        <dc:type
           rdf:resource="http://purl.org/dc/dcmitype/StillImage" />
        <dc:title></dc:title>
      </cc:Work>
    </rdf:RDF>
  </metadata>
  <defs
     id="defs3440" />
  <path
     d="m 104.877,115.00237 -6.931661,-7.44167 0,-70.174913 6.931661,-7.4391 34.42608,0 6.93028,7.4391 0,70.174913 -6.93028,7.44167 -2.22688,0 0,-47.853308 -29.94535,0 0,47.853308 -2.25385,0 z m 80.48586,-47.853308 0,95.463798 -6.92895,7.44045 -34.42742,0 -6.93029,-7.44045 0,-17.66516 9.15446,0 27.88718,-29.94534 0,-85.055672 L 146.23066,0 95.889885,0 68,29.946688 l 0,85.055682 27.889885,29.94534 11.240955,0 0,25.1056 27.88853,29.94669 50.34079,0 27.88986,-29.94669 0,-102.904248 -27.88716,0 z"
     id="path3436"
     style="fill:#841647" />
</svg>
