<?xml version="1.0" encoding="UTF-8" standalone="no"?>
<!-- Created with Inkscape (http://www.inkscape.org/) -->

<svg
   xmlns:dc="http://purl.org/dc/elements/1.1/"
   xmlns:cc="http://creativecommons.org/ns#"
   xmlns:rdf="http://www.w3.org/1999/02/22-rdf-syntax-ns#"
   xmlns:svg="http://www.w3.org/2000/svg"
   xmlns="http://www.w3.org/2000/svg"
   version="1.0"
   width="280"
   height="200"
   id="svg2"
   xml:space="preserve"><metadata
     id="metadata3474"><rdf:RDF><cc:Work
         rdf:about=""><dc:format>image/svg+xml</dc:format><dc:type
           rdf:resource="http://purl.org/dc/dcmitype/StillImage" /><dc:title></dc:title></cc:Work></rdf:RDF></metadata><defs
     id="defs3472" /><path
     d="m 73.92394,109.78192 12.66325,-35.50058 9.87629,-3.789929 -9.87813,3.789929 -0.76455,0 -25.87823,-0.003 -12.08503,35.54168 0.01096,-0.0118 26.05544,-0.0265 z"
     id="path35"
     style="fill:#333333;fill-opacity:1;fill-rule:nonzero;stroke:none" /><path
     d="m 257.32143,65.375232 -0.009,0.0037 -3.32316,8.207408 -95.39317,0 2.12469,-5.220405 2.41518,-6.594243 -21.90742,0 -6.18959,16.859668 -12.09051,5.55564 12.12614,-5.56934 33.73395,27.52062 -11.83474,5.22131 11.82652,-5.22131 -7.89044,22.86017 c 0,0 -6.45266,26.73139 -28.99037,26.73139 l -32.12444,0 -12.2732,-8.91899 5.2268,-14.23348 -73.150513,0 0.0064,-0.0192 10.024271,-3.94705 -10.030666,3.94705 2.551284,-8.49697 96.499374,0.29139 -0.0329,0.0191 0.0238,0 -1.09706,2.64172 0.0192,0 -3.69676,10.08639 0.0128,-0.007 21.81152,0 6.73582,-18.59889 0.005,0 -34.82188,-26.96798 0.004,-0.011 15.31684,-7.33141 -15.33694,7.33506 5.80228,-16.30611 c 11.63104,-35.392788 31.98742,-32.624102 31.66679,-32.611313 l 33.16944,0.703361 -0.0183,0.01827 0.0183,0 10.85369,7.881303 -5.04868,14.134826 -0.008,0 73.29392,0.03654 z m -19.79186,55.737288 c -4.83401,13.1419 -18.40889,11.65297 -18.40889,11.65297 l -36.09615,0 -11.50224,-7.84477 16.03573,-44.99413 19.19172,0 0.005,0 -0.074,0.22471 -15.40453,44.12453 0.0119,0 19.2858,-0.042 c 6.83174,-0.0539 8.65774,-5.43324 9.85529,-9.05327 1.18292,-3.61364 12.22935,-35.35534 12.22935,-35.35534 l 19.31595,0 c 0,0 -11.99642,34.58347 -14.4454,41.28732 M 39.248304,80.30659 C 44.244911,65.673019 56.71085,65.619125 56.71085,65.619125 l 39.127,0 10.30744,7.114915 c 0,0 -8.85322,24.36645 -12.23027,33.77323 -4.04387,11.25652 -17.5137,11.96719 -17.5137,11.96719 l -6.83448,0 -22.208869,0 -6.835396,0 -11.641089,-8.13615 10.366818,-30.03172 m 160.157246,-32.291599 -18.3687,-13.590406 -37.56955,0 c -16.92544,0 -28.93465,15.681308 -32.37838,22.075504 l -50.58996,0 C 53.6051,56.362157 36.806634,59.762042 31.996372,72.53582 28.37269,82.12346 22.025994,102.52551 19.085578,112.08575 l 9.065142,6.10097 -10.94869,-0.0804 -6.880154,22.03805 70.105044,0.0156 -3.49123,8.79202 19.83297,15.45477 35.15072,-0.0311 c 21.53565,0 32.88261,-18.75509 36.62961,-30.67296 l 11.55066,7.874 39.39372,0 c 7.00073,0.5298 20.60027,-2.28456 25.91202,-16.72448 2.18956,-5.97858 10.16769,-28.6734 10.50932,-29.64532 l 4.53074,-12.87608 -0.0264,0 8.93452,-25.870917 -72.95869,0 3.01076,-8.444905"
     id="path47"
     style="fill:#333333;fill-opacity:1;fill-rule:nonzero;stroke:none" /><path
     d="m 174.98785,69.600608 9.03956,-4.262188 -0.0767,0.03654 -8.96284,4.22565 z"
     id="path51"
     style="fill:#e76f24;fill-opacity:1;fill-rule:nonzero;stroke:none" /><path
     d="m 182.513,69.600608 -7.52506,0 8.96284,-4.22565 0.0767,-0.03654 0.008,0 5.04867,-14.134826 -10.85369,-7.88039 -0.0183,0 -8.2814,10.114704 -26.04356,0 c -5.56751,0 -11.38623,3.822816 -13.58949,9.55841 -3.45834,8.979277 -7.36885,21.186714 -7.36885,21.186714 l -15.31684,7.3314 -0.004,0.0119 34.82187,26.96706 14.53127,-7.11035 c 0,0 -6.31929,16.31799 -8.23938,22.09195 -2.81071,8.4513 -8.8313,12.13344 -17.26981,12.13344 l -32.97395,0 15.38626,-8.50793 3.69584,-10.08639 -0.0183,0 1.09706,-2.64172 -0.0238,0 -7.82284,4.23844 -16.58563,0 -64.57864,0 -10.024272,3.94705 -0.0064,0.0192 73.150512,0 -5.2268,14.23348 12.27321,8.91899 32.12443,0 c 22.53772,0 28.99037,-26.7314 28.99037,-26.7314 l 7.89044,-22.86016 -11.82652,5.22223 -34.02534,-27.1735 12.08959,-5.55564 6.1905,-16.858755 21.90743,0 -2.41518,6.594243 -2.1247,5.219492 95.39318,0 3.32315,-8.206495 -7.92332,4.221083 -66.87598,0 z"
     id="path55"
     style="fill:#ff6600;fill-opacity:1;fill-rule:nonzero;stroke:none" /><path
     d="m 229.09617,116.61238 c -3.88675,8.66139 -10.65455,11.84936 -15.87678,11.84936 l -26.60534,0 4.67416,-4.18546 -0.0119,0 15.40453,-44.12452 0.0749,-0.22471 -0.007,0 -12.41844,6.94136 -10.52484,31.46035 -12.28417,6.59242 11.50225,7.84476 36.09615,0 c 0,0 13.57487,1.48894 18.40889,-11.65388 2.44989,-6.70385 14.44631,-41.2864 14.44631,-41.2864 l -13.20036,7.52871 -9.67899,29.25801 z"
     id="path59"
     style="fill:#ff6600;fill-opacity:1;fill-rule:nonzero;stroke:none" /><path
     d="m 47.85754,109.82038 12.08503,-35.54169 25.87823,0.003 0.76455,0 9.87813,-3.789928 L 84.31816,106.112 c -2.80979,7.20625 -10.81625,7.4063 -10.81625,7.4063 l -29.384061,0 3.739691,-3.69767 z m -0.499661,8.65408 22.208871,0 6.83448,0 c 0,0 13.46983,-0.70975 17.5137,-11.96719 3.37705,-9.40678 12.23118,-33.77323 12.23118,-33.77323 l -10.30836,-7.114915 0.6376,4.87055 -36.71547,-0.0137 c -8.2202,0 -11.638351,9.861675 -11.638351,9.861675 l -8.118802,23.78458 -11.121333,6.21608 11.64109,8.13615 6.835395,0"
     id="path63"
     style="fill:#ff6600;fill-opacity:1;fill-rule:nonzero;stroke:none" /><path
     d="m 272.30596,57.475478 c 0,0 -8.93087,25.880052 -8.91808,25.893752 0,0 -4.52618,12.87882 -4.57824,13.03228 0,0 -10.4737,29.52475 -10.4737,29.52932 -5.8653,15.95351 -20.79483,19.30133 -28.86522,18.77152 l -40.33642,0 c 0,0 -5.65886,-3.85478 -9.0286,-6.15486 -5.68079,14.133 -18.41437,28.94926 -38.18614,28.94926 l -36.2222,0.0356 -22.53406,-17.55481 c 0,0 1.76388,-4.44214 2.65999,-6.69564 -8.03385,0 -69.753371,-0.0119 -69.753371,-0.0119 l 9.353794,-29.88281 c 0,0 10.075426,-32.49256 13.645214,-41.955059 C 34.778944,56.298896 54.20451,53.249779 60.49914,53.374922 l 48.84069,0 c 5.11901,-8.460434 17.52101,-22.073677 34.12674,-22.073677 l 37.57046,0 1.03495,0 21.05791,15.579001 c 0,0 -1.54282,4.317909 -2.30465,6.452657 l 72.90845,0 -1.42773,4.142525 z m -65.14772,-8.608415 c 0.5636,-1.570231 1.29436,-3.600845 1.29436,-3.600845 l -24.91818,-18.429899 -2.49739,0 -37.57046,0 c -17.14741,0 -30.23267,12.789305 -36.58485,22.077331 l -46.38258,0 c -7.53876,-0.151634 -28.9584,3.314933 -35.605623,20.943731 -3.617288,9.575759 -9.73836,29.173969 -13.058774,40.004829 0,0 -0.154374,0.48779 -0.191826,0.6111 l -0.0055,0 L 0,147.73138 c 0,0 53.45365,0.0118 69.24731,0.0118 -0.61749,1.55927 -1.46518,3.70041 -1.46518,3.70041 l 26.37971,20.55642 37.76594,-0.0384 c 19.62288,0 32.96848,-12.94916 40.0432,-26.74144 1.71182,1.17105 5.78309,3.9507 5.78309,3.9507 l 41.68285,0 c 9.37754,0.5225 26.3724,-3.44007 33.08813,-21.69642 0.008,-0.0156 10.49653,-29.58777 10.49653,-29.58777 0.0539,-0.16077 4.5819,-13.03777 4.5819,-13.03777 -0.005,-0.0384 8.92173,-25.916583 8.92173,-25.916583 L 280,48.86695 l -72.84176,0"
     id="path67"
     style="fill:#cccccc;fill-opacity:1;fill-rule:nonzero;stroke:none" /><path
     d="m 269.3533,56.459988 -8.93452,25.870912 0.0265,0 -4.53074,12.87609 c -0.34163,0.97191 -8.31976,23.66674 -10.50932,29.64531 -5.31083,14.43992 -18.91037,17.25428 -25.91202,16.72448 l -39.39281,0 -11.55157,-7.874 c -3.747,11.91696 -15.09396,30.67296 -36.62961,30.67296 l -35.14981,0.0311 -19.83388,-15.45477 3.49123,-8.79202 -70.105043,-0.0155 6.880154,-22.03897 10.94869,0.0813 -9.065142,-6.10098 C 22.026689,102.52564 28.373384,82.12358 31.996153,72.53595 36.806415,59.76217 53.60488,56.362285 60.49874,56.500217 l 50.58996,0 c 3.44373,-6.394196 15.45294,-22.075504 32.37838,-22.075504 l 37.56955,0 18.3687,13.590406 -3.01075,8.444906 72.95868,0 z m -66.22377,-9.579418 -21.05792,-15.579001 -1.03494,0 -37.56955,0 c -16.60664,0 -29.00773,13.613242 -34.12674,22.073676 l -48.84161,0 C 54.20414,53.250102 34.779492,56.298306 29.068561,71.432454 25.498773,80.89495 15.423348,113.38751 15.423348,113.38751 l -9.352881,29.88282 c 0,0 61.718603,0.0119 69.753363,0.0119 -0.89701,2.2535 -2.65998,6.69564 -2.65998,6.69564 l 22.53406,17.5548 36.22129,-0.0357 c 19.77176,0 32.50535,-14.81626 38.18613,-28.95018 3.36975,2.30009 9.02952,6.15487 9.02952,6.15487 l 40.3355,0 c 8.0713,0.52981 22.99992,-2.81801 28.86523,-18.77153 0,-0.004 10.47369,-29.52931 10.47369,-29.52931 0.0521,-0.15346 4.57916,-13.03228 4.57916,-13.03228 -0.0128,-0.0128 8.91716,-25.892838 8.91716,-25.892838 l 1.42865,-4.143439 -72.90845,0 c 0.76182,-2.134748 2.30374,-6.451743 2.30374,-6.451743"
     id="path71"
     style="fill:#ff9900;fill-opacity:1;fill-rule:nonzero;stroke:none" /><path
     d="m 48.121529,80.33774 c 0,0 3.418151,-9.861675 11.638351,-9.861675 l 36.71547,0.0137 -0.6376,-4.87055 -39.12699,0 c 0,0 -12.465941,0.05389 -17.462548,14.687465 l -10.366818,30.03171 11.121333,-6.21607 8.118802,-23.78458 z"
     id="path75"
     style="fill:#ff9900;fill-opacity:1;fill-rule:nonzero;stroke:none" /><path
     d="m 84.31834,106.11128 12.14531,-35.620234 -9.87629,3.789934 -12.66325,35.50057 -26.056339,0.0274 -0.01005,0.011 -0.0064,0.0156 -3.733297,3.68214 29.383156,0 c 0,0 8.00736,-0.19913 10.81716,-7.4063"
     id="path79"
     style="fill:#f89828;fill-opacity:1;fill-rule:nonzero;stroke:none" /><path
     d="m 47.85754,109.82038 -3.739691,3.69767 3.73421,-3.68214 0.0055,-0.0155 z"
     id="path83"
     style="fill:#f89828;fill-opacity:1;fill-rule:nonzero;stroke:none" /><path
     d="m 110.79286,128.6109 7.82011,-4.23934 0.003,0 0.0329,-0.0183 -96.49937,-0.29231 -2.551284,8.49698 10.030666,-3.94706 81.164258,0 z"
     id="path87"
     style="fill:#ff9900;fill-opacity:1;fill-rule:nonzero;stroke:none" /><path
     d="m 110.79286,128.6109 7.82285,-4.23934 -0.003,0 -7.82011,4.23934 z"
     id="path91"
     style="fill:#f89828;fill-opacity:1;fill-rule:nonzero;stroke:none" /><path
     d="m 98.47902,145.60832 32.97395,0 c 8.43851,0 14.45819,-3.68214 17.26981,-12.13344 1.91917,-5.77395 8.23938,-22.09194 8.23938,-22.09194 l -14.52944,7.11125 -10e-4,0 -0.005,0 -6.73674,18.59798 -21.81152,0 -0.0128,0.008 -15.38535,8.50792 z"
     id="path95"
     style="fill:#ff9900;fill-opacity:1;fill-rule:nonzero;stroke:none" /><path
     d="m 113.86455,137.1003 0,0 -15.38535,8.50793 15.38535,-8.50793 z"
     id="path99"
     style="fill:#f89828;fill-opacity:1;fill-rule:nonzero;stroke:none" /><path
     d="m 156.96225,111.38294 -14.53127,7.11034 0.001,0 14.52945,-7.11034 z"
     id="path103"
     style="fill:#f89828;fill-opacity:1;fill-rule:nonzero;stroke:none" /><path
     d="m 168.80823,106.13832 -33.73395,-27.52062 -12.12614,5.56935 34.02626,27.17259 11.83383,-5.22132 z"
     id="path107"
     style="fill:#ff9900;fill-opacity:1;fill-rule:nonzero;stroke:none" /><path
     d="m 143.88749,53.438274 26.04356,0 8.27957,-10.115618 0.001,0 0.0183,-0.01918 -33.16944,-0.702448 c 0.32063,-0.01279 -20.03575,-2.781475 -31.66679,32.611312 l -5.80228,16.30611 15.33694,-7.33506 c 0,0 3.9105,-12.208341 7.36885,-21.186705 2.20326,-5.736507 8.02198,-9.558409 13.58949,-9.558409"
     id="path111"
     style="fill:#ff9900;fill-opacity:1;fill-rule:nonzero;stroke:none" /><path
     d="m 169.93077,53.438274 8.28231,-10.115618 -0.001,0 -8.28049,10.115618 z"
     id="path115"
     style="fill:#f89828;fill-opacity:1;fill-rule:nonzero;stroke:none" /><path
     d="m 174.98785,69.600608 7.52506,0 66.87689,0 7.92241,-4.22565 0,0.0046 0.009,-0.0046 -73.29393,-0.03654 -9.03956,4.262188 z"
     id="path119"
     style="fill:#ff9900;fill-opacity:1;fill-rule:nonzero;stroke:none" /><path
     d="m 249.38934,69.600608 7.92332,-4.221082 0,-0.0046 -7.92332,4.22565 z"
     id="path123"
     style="fill:#f89828;fill-opacity:1;fill-rule:nonzero;stroke:none" /><path
     d="m 194.33057,86.86877 12.13892,-6.78607 0.28043,-0.15528 -19.19172,0 -16.03573,44.99321 12.28416,-6.59242 10.52394,-31.45944 z"
     id="path127"
     style="fill:#ff9900;fill-opacity:1;fill-rule:nonzero;stroke:none" /><path
     d="m 194.33057,86.86877 12.41935,-6.94135 -0.28043,0.15528 -12.13892,6.78607 z"
     id="path131"
     style="fill:#f89828;fill-opacity:1;fill-rule:nonzero;stroke:none" /><path
     d="m 220.42976,115.18026 c -1.19846,3.62094 -3.02354,8.99937 -9.85528,9.05327 l -19.28581,0.043 -4.67508,4.18546 26.60534,0 c 5.22223,0 11.99095,-3.18797 15.87679,-11.84936 l 9.67899,-29.25801 13.20036,-7.52963 -19.31596,0 c 0,0 -11.04735,31.74262 -12.22935,35.35534"
     id="path135"
     style="fill:#ff9900;fill-opacity:1;fill-rule:nonzero;stroke:none" /><path
     d="m 251.80827,142.11901 0.84403,0 c 0.44942,0 0.79928,-0.12058 0.79928,-0.61658 0,-0.47865 -0.38914,-0.60197 -0.79928,-0.60197 l -0.84403,0 0,1.21855 z m 0.72162,0.33615 -0.72162,0 0,1.50812 -0.38366,0 0,-3.39806 1.30442,0 c 0.77005,0 1.10528,0.33524 1.10528,0.94452 0,0.59466 -0.39827,0.86869 -0.85408,0.94542 l 1.02033,1.50812 -0.47317,0 -0.9975,-1.50812 z m -0.0384,2.3284 c 1.40123,0 2.47363,-1.11898 2.47363,-2.52936 0,-1.3848 -1.0724,-2.51018 -2.47363,-2.51018 -1.39303,0 -2.47548,1.12538 -2.47548,2.52206 0,1.3985 1.08245,2.51748 2.47548,2.51748 m 0,-5.37569 c 1.57662,0 2.85729,1.27975 2.85729,2.85821 0,1.57206 -1.28067,2.85364 -2.85729,2.85364 -1.5748,0 -2.85455,-1.28158 -2.85455,-2.85364 0,-1.57846 1.27975,-2.85821 2.85455,-2.85821"
     id="path139"
     style="fill:#333333;fill-opacity:1;fill-rule:nonzero;stroke:none" /></svg>