<?xml version="1.0" encoding="UTF-8" standalone="no"?>
<!-- Created with Inkscape (http://www.inkscape.org/) -->
<svg xmlns:svg="http://www.w3.org/2000/svg" xmlns="http://www.w3.org/2000/svg" version="1.0" width="167.2175" height="161.51749" id="svg16997">
  <defs id="defs16999"/>
  <g transform="translate(260.75161,34.110848)" id="layer1">
    <path d="M -100.95286,62.31568 L -115.31661,62.31568 C -115.31661,62.31568 -119.26286,61.69818 -122.30536,66.58693 L -154.36286,116.77818 C -154.36286,116.77818 -157.01911,122.17693 -160.18411,116.77818 L -193.37911,61.30318 L -176.61661,37.76943 L -156.35786,70.13693 L -137.33661,42.57193 C -137.33661,42.57193 -134.38161,37.63568 -128.35161,37.63568 L -100.95286,37.63568 L -100.95286,62.31568 z M -201.22536,50.89068 L -231.95161,0.64443034 C -234.08661,-2.8868197 -238.88286,-2.5168197 -238.88286,-2.5168197 L -253.69161,-2.5168197 L -253.63661,-26.54307 L -222.52286,-26.47557 C -217.85161,-26.47557 -214.92411,-19.98682 -214.92411,-19.98682 L -198.28661,7.7994303 L -178.82036,-21.31807 C -176.10286,-27.28182 -173.66286,-21.31807 -173.66286,-21.31807 L -155.69286,7.7994303 L -137.05786,-19.98682 C -132.85036,-27.56432 -129.68286,-26.47557 -129.68286,-26.47557 L -100.95286,-26.47557 L -100.95286,-2.5168197 L -115.76161,-2.5168197 C -121.11411,-2.8868197 -122.30536,0.64443034 -122.30536,0.64443034 L -153.47411,50.89068 C -156.54661,55.59568 -159.07536,50.89068 -159.07536,50.89068 L -176.10286,23.71568 L -195.84661,50.89068 C -199.31036,55.35943 -201.22536,50.89068 -201.22536,50.89068 M -130.83286,30.33443 L -117.83911,7.8881803 C -117.83911,7.8881803 -116.46536,4.8406803 -112.71411,5.2081803 L -93.606607,5.1544303 L -93.606607,-33.77557 L -130.05286,-33.77557 C -132.25411,-33.41682 -136.53661,-34.32557 -141.26286,-28.04932 L -155.10161,-4.7480697 L -170.09536,-31.27807 C -170.09536,-31.27807 -175.55661,-37.65182 -181.92036,-31.27807 L -198.40411,-6.0568197 L -210.64786,-28.38932 C -210.64786,-28.38932 -213.63786,-33.88807 -220.73661,-33.88807 L -260.72161,-33.88807 L -260.75161,5.0531803 L -242.48536,5.0731803 C -242.48536,5.0731803 -238.29411,4.1069303 -236.27911,8.7806803 C -236.27911,8.7806803 -163.80036,124.33943 -163.87661,124.33943 C -159.90286,128.53193 -154.25786,128.36568 -151.13536,124.21318 L -119.34161,75.42818 C -119.34161,75.42818 -116.89161,69.61818 -112.82036,69.62693 L -93.552857,69.62693 L -93.534107,30.29693 L -130.83286,30.33443 z" id="path3647" style="fill:#003366;fill-opacity:1;fill-rule:nonzero;stroke:none"/>
    <path d="M -137.33661,42.57193 L -156.35786,70.13693 L -176.61661,37.76943 L -193.37911,61.30318 L -160.18411,116.77818 C -157.01911,122.17693 -154.36286,116.77818 -154.36286,116.77818 L -122.30536,66.58693 C -119.26286,61.69818 -115.31661,62.31568 -115.31661,62.31568 L -100.95286,62.31568 L -100.95286,37.63568 L -128.35161,37.63568 C -134.38161,37.63568 -137.33661,42.57193 -137.33661,42.57193" id="path3649" style="fill:#ffcc00;fill-opacity:1;fill-rule:nonzero;stroke:none"/>
    <path d="M -129.68286,-26.47557 C -129.68286,-26.47557 -132.85036,-27.56432 -137.05786,-19.98682 L -155.69286,7.7994303 L -173.66286,-21.31807 C -173.66286,-21.31807 -176.10286,-27.28182 -178.82036,-21.31807 L -198.28661,7.7994303 L -214.92411,-19.98682 C -214.92411,-19.98682 -217.85161,-26.47557 -222.52286,-26.47557 L -253.63661,-26.54307 L -253.69161,-2.5168197 L -238.88286,-2.5168197 C -238.88286,-2.5168197 -234.08661,-2.8868197 -231.95161,0.64443034 L -201.22536,50.89068 C -201.22536,50.89068 -199.31036,55.35943 -195.84661,50.89068 L -176.10286,23.71568 L -159.07536,50.89068 C -159.07536,50.89068 -156.54661,55.59568 -153.47411,50.89068 L -122.30536,0.64443034 C -122.30536,0.64443034 -121.11411,-2.8868197 -115.76161,-2.5168197 L -100.95286,-2.5168197 L -100.95286,-26.47557 L -129.68286,-26.47557 z" id="path3651" style="fill:#ffcc00;fill-opacity:1;fill-rule:nonzero;stroke:none"/>
    <path d="M -138.02536,122.59193 L -138.95411,122.59193 L -138.95411,120.83943 L -137.53786,120.83943 C -136.92286,120.83943 -136.24911,120.93318 -136.24911,121.69693 C -136.24911,122.70818 -137.32786,122.59193 -138.02536,122.59193 M -135.63411,121.70943 C -135.63411,121.29318 -135.82036,120.85068 -136.19161,120.64193 C -136.56286,120.42193 -136.98036,120.39818 -137.39911,120.39818 L -139.55661,120.39818 L -139.55661,125.35443 L -138.95411,125.35443 L -138.95411,123.06818 L -137.83911,123.06818 L -136.42286,125.35443 L -135.70411,125.35443 L -137.20161,123.06818 C -136.32036,123.04443 -135.63411,122.68443 -135.63411,121.70943" id="path3653" style="fill:#003366;fill-opacity:1;fill-rule:nonzero;stroke:none"/>
    <path d="M -137.90911,126.78068 C -140.06786,126.78068 -141.80911,125.04068 -141.80911,122.86943 C -141.80911,120.72443 -140.06786,118.98318 -137.90911,118.98318 C -135.76161,118.98318 -134.02161,120.72443 -134.02161,122.86943 C -134.02161,125.04068 -135.76161,126.78068 -137.90911,126.78068 M -137.90911,118.44943 C -140.36911,118.44943 -142.35411,120.43443 -142.35411,122.86943 C -142.35411,125.33193 -140.36911,127.31568 -137.90911,127.31568 C -135.46161,127.31568 -133.48786,125.33193 -133.48786,122.86943 C -133.48786,120.43443 -135.46161,118.44943 -137.90911,118.44943" id="path3655" style="fill:#003366;fill-opacity:1;fill-rule:nonzero;stroke:none"/>
  </g>
</svg>