<?xml version="1.0" encoding="UTF-8"?>
<svg xmlns="http://www.w3.org/2000/svg" xmlns:xlink="http://www.w3.org/1999/xlink" width="35pt" height="25pt" viewBox="0 0 35 25" version="1.1">
<g id="surface1">
<path style=" stroke:none;fill-rule:nonzero;fill:rgb(0%,0%,0%);fill-opacity:1;" d="M 11.027344 12.441406 C 12.226562 11.917969 13.0625 10.726562 13.0625 9.335938 C 13.0625 7.464844 11.546875 5.945312 9.671875 5.945312 C 9.546875 5.945312 9.421875 5.953125 9.300781 5.964844 L 0 5.964844 L 0 9.304688 L 1.628906 9.304688 L 1.628906 15.90625 L 0 15.90625 L 0 19.242188 L 9.890625 19.242188 C 9.957031 19.246094 10.023438 19.25 10.09375 19.25 C 12.007812 19.25 13.5625 17.695312 13.5625 15.78125 C 13.5625 14.191406 12.488281 12.851562 11.027344 12.441406 Z M 5.945312 9.402344 C 5.945312 9.359375 5.980469 9.324219 6.023438 9.324219 L 8.359375 9.324219 C 8.492188 9.324219 8.597656 9.429688 8.597656 9.5625 L 8.597656 11.03125 C 8.597656 11.160156 8.492188 11.265625 8.359375 11.265625 L 6.023438 11.265625 C 5.980469 11.265625 5.945312 11.230469 5.945312 11.1875 Z M 8.714844 15.628906 C 8.714844 15.777344 8.605469 15.902344 8.46875 15.902344 L 6.027344 15.902344 C 5.980469 15.902344 5.945312 15.859375 5.945312 15.808594 L 5.945312 13.746094 C 5.945312 13.695312 5.980469 13.652344 6.027344 13.652344 L 8.46875 13.652344 C 8.605469 13.652344 8.714844 13.777344 8.714844 13.925781 Z M 8.714844 15.628906 "/>
<path style=" stroke:none;fill-rule:nonzero;fill:rgb(0%,53.333333%,80.784314%);fill-opacity:1;" d="M 19.816406 9.285156 L 19.816406 5.945312 L 13.960938 5.945312 L 13.960938 9.285156 L 15.519531 9.285156 L 15.519531 15.929688 L 13.960938 15.929688 L 13.960938 19.25 L 21.355469 19.25 L 21.355469 15.929688 L 19.816406 15.929688 Z M 19.816406 9.285156 "/>
<path style=" stroke:none;fill-rule:nonzero;fill:rgb(0%,53.333333%,80.784314%);fill-opacity:1;" d="M 35 10.449219 L 35 9.285156 C 35 7.441406 33.515625 5.945312 31.6875 5.945312 L 25.121094 5.945312 C 23.292969 5.945312 21.808594 7.441406 21.808594 9.285156 L 21.808594 15.910156 C 21.808594 17.753906 23.292969 19.25 25.121094 19.25 L 31.6875 19.25 C 33.515625 19.25 35 17.753906 35 15.910156 L 35 11.433594 L 29.578125 11.433594 L 29.578125 13.800781 L 30.703125 13.800781 L 30.703125 15.441406 C 30.703125 15.699219 30.488281 15.910156 30.226562 15.910156 L 26.582031 15.910156 C 26.320312 15.910156 26.105469 15.699219 26.105469 15.441406 L 26.105469 9.796875 C 26.105469 9.535156 26.320312 9.324219 26.582031 9.324219 L 30.226562 9.324219 C 30.488281 9.324219 30.703125 9.535156 30.703125 9.796875 L 30.703125 10.449219 Z M 35 10.449219 "/>
</g>
</svg>
