<?xml version="1.0" encoding="UTF-8"?>
<svg xmlns="http://www.w3.org/2000/svg" xmlns:xlink="http://www.w3.org/1999/xlink" width="35pt" height="25pt" viewBox="0 0 35 25" version="1.1">
<g id="surface1">
<path style=" stroke:none;fill-rule:nonzero;fill:rgb(100%,100%,100%);fill-opacity:1;" d="M 13.605469 16.3125 L 14.214844 16.3125 L 14.214844 15.949219 L 13.605469 15.949219 C 13.605469 16.070312 13.605469 16.191406 13.605469 16.3125 "/>
<path style=" stroke:none;fill-rule:nonzero;fill:rgb(100%,100%,100%);fill-opacity:1;" d="M 21.828125 17.632812 L 21.21875 17.632812 L 21.21875 19.925781 L 24.226562 19.925781 L 24.226562 23.78125 L 11.207031 23.78125 L 11.207031 19.925781 L 14.214844 19.925781 L 14.214844 17.632812 L 13.605469 17.632812 C 13.605469 18.492188 13.605469 19.105469 13.605469 19.316406 C 12.832031 19.316406 10.597656 19.316406 10.597656 19.316406 L 10.597656 24.390625 L 24.835938 24.390625 L 24.835938 19.316406 C 24.835938 19.316406 22.601562 19.316406 21.828125 19.316406 C 21.828125 19.105469 21.828125 18.492188 21.828125 17.632812 "/>
<path style=" stroke:none;fill-rule:nonzero;fill:rgb(100%,100%,100%);fill-opacity:1;" d="M 13.605469 14.105469 L 14.214844 10.734375 L 14.214844 5.074219 L 11.207031 5.074219 L 11.207031 1.21875 L 24.226562 1.21875 L 24.226562 5.074219 L 21.21875 5.074219 L 21.21875 9.714844 L 21.386719 8.800781 L 21.828125 8.375 C 21.828125 7 21.828125 5.96875 21.828125 5.683594 C 22.605469 5.683594 24.835938 5.683594 24.835938 5.683594 L 24.835938 0.609375 L 10.597656 0.609375 L 10.597656 5.683594 C 10.597656 5.683594 12.832031 5.683594 13.605469 5.683594 C 13.605469 6.3125 13.605469 10.515625 13.605469 14.105469 "/>
<path style=" stroke:none;fill-rule:nonzero;fill:rgb(100%,100%,100%);fill-opacity:1;" d="M 21.21875 16.3125 L 21.828125 16.3125 C 21.828125 16.191406 21.828125 16.070312 21.828125 15.945312 L 21.21875 15.945312 L 21.21875 16.3125 "/>
<path style=" stroke:none;fill-rule:nonzero;fill:rgb(100%,100%,100%);fill-opacity:1;" d="M 21.804688 14.351562 L 22.746094 9.132812 L 23.460938 9.132812 L 22.515625 14.351562 L 21.804688 14.351562 M 23.640625 14.597656 L 24.652344 8.988281 L 23.980469 7.878906 L 22.765625 7.878906 L 21.613281 8.941406 L 20.601562 14.546875 L 21.246094 15.605469 L 22.574219 15.605469 Z M 23.640625 14.597656 "/>
<path style=" stroke:none;fill-rule:nonzero;fill:rgb(100%,100%,100%);fill-opacity:1;" d="M 31.003906 10.199219 L 31.230469 8.953125 L 30.566406 7.867188 L 29.273438 7.867188 L 28.230469 8.929688 L 27.8125 11.238281 L 28.46875 12.335938 L 29.445312 12.46875 L 29.117188 14.34375 L 28.367188 14.34375 L 28.550781 13.316406 L 27.394531 13.316406 L 27.175781 14.523438 L 27.773438 15.628906 L 29.175781 15.628906 L 30.21875 14.574219 L 30.644531 12.226562 L 30 11.128906 L 29.023438 10.984375 L 29.359375 9.128906 L 30.105469 9.128906 L 29.914062 10.199219 L 31.003906 10.199219 "/>
<path style=" stroke:none;fill-rule:nonzero;fill:rgb(100%,100%,100%);fill-opacity:1;" d="M 9.113281 15.609375 L 9.339844 14.359375 L 8.175781 14.359375 L 9.347656 7.871094 L 8.171875 7.871094 L 6.773438 15.609375 L 9.113281 15.609375 "/>
<path style=" stroke:none;fill-rule:nonzero;fill:rgb(100%,100%,100%);fill-opacity:1;" d="M 12.820312 14.371094 L 11.652344 14.371094 L 12.828125 7.882812 L 11.652344 7.882812 L 10.253906 15.621094 L 12.59375 15.621094 L 12.820312 14.371094 "/>
<path style=" stroke:none;fill-rule:nonzero;fill:rgb(100%,100%,100%);fill-opacity:1;" d="M 6.941406 7.875 L 5.796875 7.875 L 4.398438 15.632812 L 5.539062 15.632812 L 6.941406 7.875 "/>
<path style=" stroke:none;fill-rule:nonzero;fill:rgb(100%,100%,100%);fill-opacity:1;" d="M 16.164062 7.875 L 15.019531 7.875 L 13.621094 15.632812 L 14.761719 15.632812 L 16.164062 7.875 "/>
<path style=" stroke:none;fill-rule:nonzero;fill:rgb(100%,100%,100%);fill-opacity:1;" d="M 25.824219 15.632812 L 27.222656 7.875 L 26.082031 7.875 L 24.679688 15.632812 L 25.824219 15.632812 "/>
<path style=" stroke:none;fill-rule:nonzero;fill:rgb(100%,100%,100%);fill-opacity:1;" d="M 17.765625 11.914062 L 18.160156 15.625 L 19.117188 15.625 L 20.519531 7.859375 L 19.472656 7.859375 L 18.78125 11.683594 L 18.410156 7.878906 L 17.441406 7.878906 L 16.046875 15.605469 L 17.097656 15.605469 L 17.765625 11.914062 "/>
<path style=" stroke:none;fill-rule:nonzero;fill:rgb(100%,100%,100%);fill-opacity:1;" d="M 4.089844 17.347656 L 29.816406 17.347656 L 29.960938 16.597656 L 4.238281 16.597656 L 4.089844 17.347656 "/>
<path style=" stroke:none;fill-rule:nonzero;fill:rgb(93.72549%,59.215686%,18.823529%);fill-opacity:1;" d="M 21.21875 17.632812 L 14.214844 17.632812 L 14.214844 19.925781 L 11.207031 19.925781 L 11.207031 23.78125 L 24.226562 23.78125 L 24.226562 19.925781 L 21.21875 19.925781 L 21.21875 17.632812 "/>
<path style=" stroke:none;fill-rule:nonzero;fill:rgb(93.72549%,59.215686%,18.823529%);fill-opacity:1;" d="M 19.3125 15.9375 L 17.917969 15.9375 L 17.695312 13.363281 L 17.234375 15.933594 L 15.71875 15.933594 L 17.230469 7.558594 L 18.683594 7.558594 L 18.851562 9.835938 L 19.269531 7.519531 L 20.832031 7.519531 L 19.3125 15.9375 M 11.207031 1.21875 L 11.207031 5.074219 L 14.214844 5.074219 L 14.214844 10.738281 L 14.789062 7.554688 L 16.511719 7.554688 L 14.992188 15.949219 L 14.214844 15.949219 L 14.214844 16.3125 L 21.21875 16.3125 L 21.21875 15.945312 L 21.101562 15.945312 L 20.320312 14.6875 L 21.21875 9.714844 L 21.21875 5.074219 L 24.226562 5.074219 L 24.226562 1.21875 Z M 11.207031 1.21875 "/>
<path style=" stroke:none;fill-rule:nonzero;fill:rgb(12.941176%,24.705882%,46.666667%);fill-opacity:1;" d="M 13.621094 15.632812 L 15.019531 7.875 L 16.164062 7.875 L 14.761719 15.632812 L 13.621094 15.632812 M 21.21875 16.3125 L 13.605469 16.3125 C 13.605469 16.191406 13.605469 16.070312 13.605469 15.949219 L 14.992188 15.949219 L 16.511719 7.554688 L 14.789062 7.554688 L 13.605469 14.105469 C 13.605469 10.515625 13.605469 6.3125 13.605469 5.683594 C 12.832031 5.683594 10.597656 5.683594 10.597656 5.683594 L 10.597656 0.609375 L 24.835938 0.609375 L 24.835938 5.683594 C 24.835938 5.683594 22.601562 5.683594 21.828125 5.683594 C 21.828125 5.96875 21.828125 7 21.828125 8.375 L 21.386719 8.800781 L 20.320312 14.6875 L 21.101562 15.945312 L 21.828125 15.945312 C 21.828125 16.070312 21.828125 16.191406 21.828125 16.3125 Z M 29.960938 16.597656 L 29.816406 17.347656 L 4.089844 17.347656 L 4.238281 16.597656 Z M 24.835938 19.316406 L 24.835938 24.390625 L 10.597656 24.390625 L 10.597656 19.316406 C 10.597656 19.316406 12.832031 19.316406 13.605469 19.316406 C 13.605469 19.105469 13.605469 18.492188 13.605469 17.632812 L 21.828125 17.632812 C 21.828125 18.492188 21.828125 19.105469 21.828125 19.316406 C 22.601562 19.316406 24.835938 19.316406 24.835938 19.316406 Z M 12 14.054688 L 12.996094 8.546875 C 12.996094 10.121094 12.996094 12.175781 12.996094 14.054688 Z M 12.59375 15.621094 L 10.253906 15.621094 L 11.652344 7.882812 L 12.828125 7.882812 L 11.652344 14.371094 L 12.820312 14.371094 Z M 22.765625 7.878906 L 23.980469 7.878906 L 24.652344 8.988281 L 23.640625 14.597656 L 22.570312 15.605469 L 21.246094 15.605469 L 20.601562 14.546875 L 21.613281 8.941406 Z M 22.4375 15.945312 L 22.589844 15.945312 L 23.871094 14.738281 L 24.933594 8.851562 L 24.164062 7.539062 L 22.707031 7.539062 L 22.4375 7.796875 C 22.4375 7.136719 22.4375 6.613281 22.4375 6.292969 C 23.300781 6.292969 25.445312 6.292969 25.445312 6.292969 L 25.445312 0 L 9.992188 0 L 9.992188 6.292969 C 9.992188 6.292969 12.132812 6.292969 12.996094 6.292969 C 12.996094 6.570312 12.996094 6.996094 12.996094 7.53125 L 11.425781 7.53125 L 9.90625 15.925781 L 12.828125 15.925781 L 12.996094 14.992188 C 12.996094 15.457031 12.996094 15.898438 12.996094 16.308594 L 3.953125 16.308594 L 3.75 17.632812 L 12.996094 17.632812 C 12.996094 18.089844 12.996094 18.460938 12.996094 18.707031 C 12.132812 18.707031 9.992188 18.707031 9.992188 18.707031 L 9.992188 25 L 25.445312 25 L 25.445312 18.707031 C 25.445312 18.707031 23.300781 18.707031 22.4375 18.707031 C 22.4375 18.460938 22.4375 18.089844 22.4375 17.632812 L 30.046875 17.632812 L 30.304688 16.308594 L 22.4375 16.308594 C 22.4375 16.191406 22.4375 16.070312 22.4375 15.945312 Z M 22.4375 15.945312 "/>
<path style=" stroke:none;fill-rule:nonzero;fill:rgb(12.941176%,24.705882%,46.666667%);fill-opacity:1;" d="M 22.4375 12.386719 L 22.96875 9.457031 L 23.125 9.457031 L 22.4375 13.25 C 22.4375 12.964844 22.4375 12.675781 22.4375 12.386719 M 23.460938 9.132812 L 22.746094 9.132812 L 21.804688 14.351562 L 22.515625 14.351562 Z M 23.460938 9.132812 "/>
<path style=" stroke:none;fill-rule:nonzero;fill:rgb(12.941176%,24.705882%,46.666667%);fill-opacity:1;" d="M 29.359375 9.128906 L 29.023438 10.984375 L 30 11.128906 L 30.644531 12.226562 L 30.21875 14.574219 L 29.175781 15.628906 L 27.773438 15.628906 L 27.175781 14.523438 L 27.394531 13.316406 L 28.550781 13.316406 L 28.367188 14.34375 L 29.117188 14.34375 L 29.445312 12.46875 L 28.46875 12.335938 L 27.8125 11.238281 L 28.230469 8.929688 L 29.273438 7.867188 L 30.566406 7.867188 L 31.230469 8.953125 L 31.003906 10.199219 L 29.914062 10.199219 L 30.105469 9.128906 L 29.359375 9.128906 M 31.25 10.496094 L 31.554688 8.808594 L 30.78125 7.535156 L 29.164062 7.535156 L 27.953125 8.820312 L 27.488281 11.382812 L 28.269531 12.613281 L 29.101562 12.734375 L 28.867188 14.027344 L 28.710938 14.027344 L 28.898438 12.988281 L 27.15625 12.976562 L 26.851562 14.65625 L 27.5625 15.960938 L 29.226562 15.960938 L 30.5 14.679688 L 30.964844 12.109375 L 30.234375 10.816406 L 29.359375 10.683594 L 29.574219 9.484375 L 29.738281 9.484375 L 29.554688 10.496094 Z M 31.25 10.496094 "/>
<path style=" stroke:none;fill-rule:nonzero;fill:rgb(12.941176%,24.705882%,46.666667%);fill-opacity:1;" d="M 19.117188 15.625 L 18.160156 15.625 L 17.765625 11.914062 L 17.097656 15.605469 L 16.046875 15.605469 L 17.441406 7.878906 L 18.410156 7.878906 L 18.78125 11.683594 L 19.472656 7.859375 L 20.519531 7.859375 L 19.117188 15.625 M 19.269531 7.519531 L 18.851562 9.835938 L 18.683594 7.558594 L 17.230469 7.558594 L 15.71875 15.933594 L 17.234375 15.933594 L 17.695312 13.363281 L 17.917969 15.9375 L 19.3125 15.9375 L 20.832031 7.523438 L 19.269531 7.523438 Z M 19.269531 7.519531 "/>
<path style=" stroke:none;fill-rule:nonzero;fill:rgb(12.941176%,24.705882%,46.666667%);fill-opacity:1;" d="M 8.171875 7.871094 L 9.347656 7.871094 L 8.175781 14.359375 L 9.339844 14.359375 L 9.113281 15.609375 L 6.773438 15.609375 L 8.171875 7.871094 M 9.34375 15.941406 L 9.683594 14.066406 L 8.519531 14.066406 L 9.699219 7.542969 L 7.941406 7.542969 L 6.425781 15.941406 Z M 9.34375 15.941406 "/>
<path style=" stroke:none;fill-rule:nonzero;fill:rgb(12.941176%,24.705882%,46.666667%);fill-opacity:1;" d="M 4.398438 15.632812 L 5.796875 7.875 L 6.941406 7.875 L 5.539062 15.632812 L 4.398438 15.632812 M 7.289062 7.554688 L 5.566406 7.554688 L 4.050781 15.949219 L 5.773438 15.949219 Z M 7.289062 7.554688 "/>
<path style=" stroke:none;fill-rule:nonzero;fill:rgb(12.941176%,24.705882%,46.666667%);fill-opacity:1;" d="M 26.082031 7.875 L 27.222656 7.875 L 25.824219 15.632812 L 24.679688 15.632812 L 26.082031 7.875 M 26.054688 15.949219 L 27.570312 7.554688 L 25.851562 7.554688 L 24.332031 15.949219 Z M 26.054688 15.949219 "/>
</g>
</svg>
