<?xml version="1.0" encoding="UTF-8"?>
<svg xmlns="http://www.w3.org/2000/svg" xmlns:xlink="http://www.w3.org/1999/xlink" width="35pt" height="25pt" viewBox="0 0 35 25" version="1.1">
<g id="surface1">
<path style=" stroke:none;fill-rule:nonzero;fill:rgb(70.196078%,3.137255%,21.960784%);fill-opacity:1;" d="M 14.230469 0 L 14.230469 1.878906 L 15.691406 1.878906 L 15.691406 15.691406 L 12.90625 15.691406 L 12.90625 5.214844 L 14.214844 5.214844 L 14.214844 3.328125 L 7.75 3.328125 L 7.75 5.214844 L 9.210938 5.214844 L 9.210938 17.351562 L 11.585938 19.777344 L 15.691406 19.777344 L 15.691406 22.574219 L 14.230469 22.574219 L 14.230469 25 L 21.089844 25 L 21.089844 22.574219 L 19.628906 22.574219 L 19.628906 19.777344 L 23.734375 19.777344 L 26.109375 17.351562 L 26.109375 5.214844 L 27.570312 5.214844 L 27.570312 3.328125 L 21.105469 3.328125 L 21.105469 5.214844 L 22.414062 5.214844 L 22.414062 15.691406 L 19.628906 15.691406 L 19.628906 1.878906 L 21.089844 1.878906 L 21.089844 0 Z M 14.230469 0 "/>
</g>
</svg>
