<?xml version="1.0" encoding="UTF-8"?>
<svg xmlns="http://www.w3.org/2000/svg" xmlns:xlink="http://www.w3.org/1999/xlink" width="35pt" height="25pt" viewBox="0 0 35 25" version="1.1">
<g id="surface1">
<path style="fill-rule:nonzero;fill:rgb(100%,80%,0%);fill-opacity:1;stroke-width:3.191618;stroke-linecap:butt;stroke-linejoin:miter;stroke:rgb(0%,0%,0%);stroke-opacity:1;stroke-miterlimit:4;" d="M 257.67766 390.364954 C 286.021668 384.239899 311.834403 362.177198 315.834439 332.458177 C 316.365694 328.614392 316.459445 324.739357 316.303193 320.895572 C 316.178192 318.676802 316.584446 308.801712 313.146915 309.895472 C 304.89684 312.520496 295.896758 313.770507 287.459181 311.270485 C 279.052854 308.770462 272.209042 302.739157 267.865253 295.207838 C 266.271488 292.489064 265.615232 289.551537 264.24022 286.770262 C 262.490204 283.176479 255.927644 287.176515 255.927644 287.176515 L 240.552504 300.739139 C 240.552504 300.739139 238.458735 304.364172 241.958767 304.332921 C 246.177555 304.301671 250.615096 304.707925 254.42763 306.645442 C 259.646428 309.301717 266.958994 316.145529 262.615205 322.426836 C 259.177674 327.395631 252.490113 329.614401 247.490067 332.676929 C 235.70871 339.926995 222.052336 350.36459 222.021085 365.645979 C 222.021085 380.364863 234.427448 391.708716 248.92758 391.489964 C 251.865107 391.427464 254.802634 390.95871 257.67766 390.333704 " transform="matrix(0.124999,0,0,0.124999,-17.252383,-25.385019)"/>
<path style="fill-rule:nonzero;fill:rgb(100%,80%,0%);fill-opacity:1;stroke-width:3.191618;stroke-linecap:butt;stroke-linejoin:miter;stroke:rgb(0%,0%,0%);stroke-opacity:1;stroke-miterlimit:4;" d="M 363.397372 376.458578 C 365.709893 375.802322 367.959913 374.739812 369.897431 373.302299 C 371.491196 372.114788 373.678715 370.021019 370.397436 369.864768 C 366.084896 369.646016 361.647356 369.302263 357.959822 366.83349 C 356.147306 365.645979 354.897295 363.864713 353.991036 361.927195 C 353.084778 359.895927 352.959777 357.427155 351.928518 355.520887 C 350.991009 353.770871 331.30333 350.36459 328.584555 350.208339 C 325.209524 350.052087 325.022023 350.802094 326.334535 353.552119 C 328.709556 358.552165 332.053337 363.052206 335.772121 367.114743 C 342.678433 374.55231 353.241029 379.333604 363.366122 376.458578 " transform="matrix(0.124999,0,0,0.124999,-17.252383,-25.385019)"/>
<path style="fill-rule:nonzero;fill:rgb(100%,80%,0%);fill-opacity:1;stroke-width:3.191618;stroke-linecap:butt;stroke-linejoin:miter;stroke:rgb(0%,0%,0%);stroke-opacity:1;stroke-miterlimit:4;" d="M 178.58319 357.98966 C 193.114572 340.677002 207.395952 323.020591 223.833602 307.45795 C 232.208678 299.520378 240.896257 291.957809 249.896339 284.801494 C 254.36513 281.238961 258.927671 277.738929 263.646464 274.4889 C 266.865243 272.207629 275.209069 265.176315 275.459072 268.176342 C 275.709074 271.145119 274.740315 285.832753 280.927871 293.114069 C 285.490413 298.520368 292.396726 301.207893 299.39679 300.801639 C 312.67816 300.051632 324.990772 288.739029 323.084505 274.832653 C 322.803253 272.582632 320.928235 268.957599 321.42824 266.738829 C 322.084496 264.082555 326.95954 268.926349 327.553296 269.582605 C 332.990845 275.395158 336.990882 282.676474 343.584692 287.364017 C 350.522255 292.364062 361.02235 293.895326 367.459909 287.082764 C 372.209952 282.051469 373.178711 274.020146 371.95995 267.457586 C 369.178675 252.301198 354.991045 241.926103 342.459681 234.801039 C 325.428276 225.11345 306.928108 220.207156 287.615432 217.832134 C 251.0526 213.332093 209.489721 215.675865 178.458189 237.519813 C 166.958084 245.613637 156.832992 255.957481 149.676677 268.082591 C 146.145395 274.082646 143.36412 280.520205 141.582853 287.239016 C 140.676595 290.614047 140.020339 294.051578 139.645336 297.520359 C 139.332833 300.645388 140.957848 299.926631 143.020367 298.582869 C 144.52038 297.645361 146.301646 296.270348 148.082913 296.051596 C 150.489184 295.770343 147.582908 301.489145 147.207905 302.270403 C 143.926625 309.145465 143.832874 325.489364 144.52038 326.020619 C 145.239137 326.520623 148.551667 322.489337 148.92667 322.051833 C 149.457925 321.458077 154.520471 315.458023 155.239228 318.333049 C 156.207987 322.145583 154.520471 327.27063 154.457971 331.176916 C 154.39547 335.958209 154.614222 344.89579 155.051726 345.458296 C 155.48923 345.98955 160.239273 338.739484 164.395561 338.833235 C 164.364311 349.989587 165.33307 372.114788 166.083076 372.30229 C 166.833083 372.458541 174.520653 362.833454 178.58319 357.98966 " transform="matrix(0.124999,0,0,0.124999,-17.252383,-25.385019)"/>
<path style="fill-rule:nonzero;fill:rgb(100%,80%,0%);fill-opacity:1;stroke-width:3.191618;stroke-linecap:butt;stroke-linejoin:miter;stroke:rgb(0%,0%,0%);stroke-opacity:1;stroke-miterlimit:4;" d="M 401.960223 368.98976 C 413.647829 360.333431 417.08536 346.083301 416.335354 332.208175 C 415.89785 324.114351 414.616588 315.895527 410.960305 308.55171 C 407.272771 301.207893 401.67897 295.114087 395.710166 289.582787 C 393.053892 287.114015 390.053864 283.551482 386.803835 281.895217 C 384.366313 280.613956 331.240829 331.801921 331.240829 331.801921 C 331.240829 331.801921 327.209543 336.301962 328.365803 337.895727 C 329.490813 339.489491 337.803389 334.239444 342.30343 332.833181 C 346.772221 331.395668 363.397372 330.58316 373.209961 334.145693 C 381.710039 337.208221 390.178866 343.395777 394.053901 351.770853 C 396.335172 356.645897 396.335172 362.052197 396.585174 367.302244 C 396.647674 368.364754 396.272671 371.927286 398.30394 371.427282 C 399.710202 371.052279 400.835213 369.833517 401.960223 368.98976 " transform="matrix(0.124999,0,0,0.124999,-17.252383,-25.385019)"/>
</g>
</svg>
