<?xml version="1.0" encoding="UTF-8"?>
<svg xmlns="http://www.w3.org/2000/svg" xmlns:xlink="http://www.w3.org/1999/xlink" width="35pt" height="25pt" viewBox="0 0 35 25" version="1.1">
<g id="surface1">
<path style=" stroke:none;fill-rule:nonzero;fill:rgb(100%,100%,100%);fill-opacity:1;" d="M 12.644531 16.078125 C 12.695312 15.992188 12.792969 15.914062 12.917969 15.863281 L 11.421875 15.863281 L 11.421875 16.277344 L 11.414062 16.277344 L 11.414062 16.3125 L 11.496094 16.3125 C 11.496094 16.191406 11.976562 16.09375 12.644531 16.078125 "/>
<path style=" stroke:none;fill-rule:nonzero;fill:rgb(100%,100%,100%);fill-opacity:1;" d="M 16.113281 16.042969 L 16.113281 15.863281 L 13.753906 15.863281 C 13.859375 15.90625 13.949219 15.96875 14.003906 16.042969 Z M 16.113281 16.042969 "/>
<path style=" stroke:none;fill-rule:nonzero;fill:rgb(100%,100%,100%);fill-opacity:1;" d="M 22.503906 15.863281 L 22.503906 16.3125 L 22.414062 16.3125 C 22.414062 16.433594 21.933594 16.535156 21.265625 16.546875 C 21.210938 16.640625 21.109375 16.71875 20.976562 16.769531 L 22.507812 16.769531 L 22.507812 15.863281 Z M 22.503906 15.863281 "/>
<path style=" stroke:none;fill-rule:nonzero;fill:rgb(100%,100%,100%);fill-opacity:1;" d="M 17.769531 16.585938 L 17.769531 16.769531 L 20.164062 16.769531 C 20.054688 16.722656 19.960938 16.660156 19.90625 16.585938 Z M 17.769531 16.585938 "/>
<path style=" stroke:none;fill-rule:nonzero;fill:rgb(100%,100%,100%);fill-opacity:1;" d="M 11.496094 16.3125 C 11.496094 16.433594 11.976562 16.53125 12.644531 16.546875 C 12.695312 16.640625 12.796875 16.714844 12.929688 16.769531 L 13.742188 16.769531 C 13.855469 16.722656 13.945312 16.660156 14.003906 16.585938 L 16.113281 16.585938 L 16.113281 16.769531 L 16.941406 16.769531 L 16.941406 16.3125 L 11.496094 16.3125 "/>
<path style=" stroke:none;fill-rule:nonzero;fill:rgb(100%,100%,100%);fill-opacity:1;" d="M 21.265625 16.078125 C 21.210938 15.992188 21.113281 15.914062 20.988281 15.863281 L 20.15625 15.863281 C 20.046875 15.90625 19.960938 15.96875 19.90625 16.042969 L 17.769531 16.042969 L 17.769531 15.863281 L 16.941406 15.863281 L 16.941406 16.3125 L 22.414062 16.3125 C 22.410156 16.195312 21.929688 16.09375 21.265625 16.078125 "/>
<path style=" stroke:none;fill-rule:nonzero;fill:rgb(100%,83.529412%,12.54902%);fill-opacity:1;" d="M 1.691406 11.566406 L 1.585938 11.582031 L 1.585938 14.96875 L 0.445312 14.96875 L 0.761719 14.382812 L 0.761719 9.34375 L 0.460938 8.605469 L 1.582031 8.605469 L 2.664062 12.40625 L 3.746094 8.605469 L 4.859375 8.605469 L 4.566406 9.335938 L 4.566406 14.382812 L 4.898438 14.96875 L 3.742188 14.96875 L 3.742188 11.582031 L 3.636719 11.570312 L 2.871094 14.390625 L 2.460938 14.390625 Z M 2.949219 14.496094 L 3.636719 11.976562 L 3.636719 15.074219 L 5.078125 15.074219 L 4.671875 14.355469 L 4.671875 9.355469 L 5.015625 8.5 L 3.664062 8.5 L 3.65625 8.539062 L 2.664062 12.023438 L 1.664062 8.5 L 0.304688 8.5 L 0.65625 9.363281 L 0.65625 14.355469 L 0.269531 15.074219 L 1.691406 15.074219 L 1.691406 11.972656 L 2.378906 14.496094 Z M 2.949219 14.496094 "/>
<path style=" stroke:none;fill-rule:nonzero;fill:rgb(100%,83.529412%,12.54902%);fill-opacity:1;" d="M 7.195312 12.914062 L 7.605469 10.378906 L 8.015625 12.914062 Z M 7.554688 10.042969 L 7.070312 13.019531 L 8.140625 13.019531 L 7.65625 10.042969 Z M 7.554688 10.042969 "/>
<path style=" stroke:none;fill-rule:nonzero;fill:rgb(100%,83.529412%,12.54902%);fill-opacity:1;" d="M 8.125 14.96875 L 8.371094 14.378906 L 8.257812 13.742188 L 6.960938 13.742188 L 6.847656 14.375 L 7.09375 14.96875 L 5.917969 14.96875 L 7.152344 8.605469 L 8.078125 8.605469 L 9.300781 14.96875 Z M 7.0625 8.5 L 5.792969 15.074219 L 7.25 15.074219 L 6.957031 14.359375 L 7.050781 13.847656 L 8.171875 13.847656 L 8.261719 14.367188 L 7.96875 15.074219 L 9.425781 15.074219 L 8.164062 8.5 Z M 7.0625 8.5 "/>
<path style=" stroke:none;fill-rule:nonzero;fill:rgb(100%,83.529412%,12.54902%);fill-opacity:1;" d="M 23.011719 12.914062 L 23.421875 10.378906 L 23.832031 12.914062 Z M 23.371094 10.042969 L 22.886719 13.019531 L 23.957031 13.019531 L 23.472656 10.042969 Z M 23.371094 10.042969 "/>
<path style=" stroke:none;fill-rule:nonzero;fill:rgb(100%,83.529412%,12.54902%);fill-opacity:1;" d="M 24.1875 14.378906 L 24.074219 13.742188 L 22.777344 13.742188 L 22.664062 14.375 L 22.910156 14.96875 L 21.734375 14.96875 L 22.964844 8.605469 L 23.894531 8.605469 L 25.117188 14.96875 L 23.941406 14.96875 Z M 23.980469 8.5 L 22.878906 8.5 L 21.609375 15.074219 L 23.066406 15.074219 L 22.773438 14.359375 L 22.867188 13.847656 L 23.984375 13.847656 L 24.078125 14.367188 L 23.785156 15.074219 L 25.242188 15.074219 Z M 23.980469 8.5 "/>
<path style=" stroke:none;fill-rule:nonzero;fill:rgb(100%,83.529412%,12.54902%);fill-opacity:1;" d="M 32.652344 13.640625 C 32.648438 13.957031 32.484375 14.132812 32.113281 14.136719 L 31.472656 14.136719 L 31.472656 9.4375 L 32.140625 9.4375 C 32.46875 9.441406 32.648438 9.601562 32.652344 9.925781 Z M 32.140625 9.332031 L 31.367188 9.332031 L 31.367188 14.242188 L 32.113281 14.242188 C 32.316406 14.242188 32.480469 14.1875 32.59375 14.082031 C 32.703125 13.972656 32.757812 13.820312 32.757812 13.640625 L 32.757812 9.925781 C 32.757812 9.742188 32.699219 9.589844 32.589844 9.484375 C 32.480469 9.382812 32.324219 9.332031 32.140625 9.332031 "/>
<path style=" stroke:none;fill-rule:nonzero;fill:rgb(100%,83.529412%,12.54902%);fill-opacity:1;" d="M 33.628906 13.800781 C 33.625 14.523438 33.183594 14.960938 32.425781 14.96875 L 30.175781 14.96875 L 30.507812 14.238281 L 30.507812 9.34375 L 30.175781 8.605469 L 32.425781 8.605469 C 33.191406 8.609375 33.625 9.058594 33.628906 9.78125 Z M 33.386719 8.851562 C 33.160156 8.625 32.832031 8.5 32.425781 8.5 L 30.011719 8.5 L 30.402344 9.367188 L 30.402344 14.214844 L 30.011719 15.074219 L 32.429688 15.074219 C 32.828125 15.074219 33.15625 14.949219 33.382812 14.726562 C 33.609375 14.503906 33.734375 14.183594 33.734375 13.800781 L 33.734375 9.78125 C 33.734375 9.398438 33.613281 9.074219 33.386719 8.851562 "/>
<path style=" stroke:none;fill-rule:nonzero;fill:rgb(100%,83.529412%,12.54902%);fill-opacity:1;" d="M 20.816406 13.890625 L 20.816406 14.96875 L 18.378906 14.96875 L 18.378906 8.605469 L 19.238281 8.605469 L 19.238281 14.210938 L 20.296875 14.210938 Z M 19.34375 14.105469 L 19.34375 8.5 L 18.273438 8.5 L 18.273438 15.074219 L 20.921875 15.074219 L 20.921875 13.703125 L 20.269531 14.105469 Z M 19.34375 14.105469 "/>
<path style=" stroke:none;fill-rule:nonzero;fill:rgb(100%,83.529412%,12.54902%);fill-opacity:1;" d="M 29.160156 14.96875 L 28.402344 14.96875 L 26.925781 11.085938 L 26.820312 11.105469 L 26.820312 14.234375 L 27.15625 14.96875 L 25.988281 14.96875 L 25.988281 8.605469 L 26.746094 8.605469 L 28.222656 12.40625 L 28.324219 12.390625 L 28.324219 9.339844 L 27.992188 8.605469 L 29.160156 8.605469 Z M 29.265625 8.5 L 27.828125 8.5 L 27.863281 8.574219 L 28.21875 9.363281 L 28.21875 12.109375 L 26.816406 8.5 L 25.882812 8.5 L 25.882812 15.074219 L 27.316406 15.074219 L 26.929688 14.210938 L 26.929688 11.390625 L 28.328125 15.074219 L 29.265625 15.074219 Z M 29.265625 8.5 "/>
<path style=" stroke:none;fill-rule:nonzero;fill:rgb(100%,83.529412%,12.54902%);fill-opacity:1;" d="M 16.1875 12.632812 L 16.1875 14.96875 L 15.320312 14.96875 L 15.320312 12.632812 L 14.058594 8.605469 L 15.28125 8.605469 L 15.089844 9.351562 L 15.757812 11.546875 L 16.421875 9.351562 L 16.234375 8.605469 L 17.445312 8.605469 Z M 16.3125 9.347656 L 15.757812 11.183594 L 15.199219 9.347656 L 15.414062 8.5 L 13.917969 8.5 L 15.214844 12.652344 L 15.214844 15.074219 L 16.292969 15.074219 L 16.292969 12.652344 L 17.589844 8.5 L 16.097656 8.5 Z M 16.3125 9.347656 "/>
<path style=" stroke:none;fill-rule:nonzero;fill:rgb(100%,83.529412%,12.54902%);fill-opacity:1;" d="M 12.242188 11.246094 L 11.125 11.246094 L 11.125 9.4375 L 12.242188 9.4375 Z M 12.34375 9.328125 L 11.019531 9.328125 L 11.019531 11.347656 L 12.34375 11.347656 Z M 12.34375 9.328125 "/>
<path style=" stroke:none;fill-rule:nonzero;fill:rgb(100%,83.529412%,12.54902%);fill-opacity:1;" d="M 12.269531 14.96875 L 11.308594 12.078125 L 11.019531 12.078125 L 11.019531 14.96875 L 10.160156 14.96875 L 10.160156 9.335938 L 9.828125 8.605469 L 12.671875 8.605469 C 12.855469 8.605469 12.984375 8.65625 13.070312 8.742188 C 13.15625 8.832031 13.203125 8.964844 13.203125 9.148438 L 13.203125 11.539062 C 13.199219 11.898438 13.03125 12.0625 12.679688 12.078125 L 12.1875 12.078125 L 13.183594 14.96875 Z M 12.335938 12.183594 L 12.679688 12.183594 C 13.074219 12.179688 13.316406 11.941406 13.308594 11.539062 L 13.308594 9.148438 C 13.308594 8.945312 13.257812 8.785156 13.144531 8.671875 C 13.035156 8.558594 12.875 8.5 12.671875 8.5 L 9.664062 8.5 L 10.054688 9.359375 L 10.054688 15.074219 L 11.125 15.074219 L 11.125 12.183594 L 11.230469 12.183594 L 12.195312 15.074219 L 13.332031 15.074219 L 13.308594 15.003906 Z M 12.335938 12.183594 "/>
<path style=" stroke:none;fill-rule:nonzero;fill:rgb(100%,83.529412%,12.54902%);fill-opacity:1;" d="M 24.398438 16.769531 L 25.960938 16.769531 L 25.960938 16.3125 L 24.398438 15.945312 Z M 24.398438 16.769531 "/>
<path style=" stroke:none;fill-rule:nonzero;fill:rgb(100%,83.529412%,12.54902%);fill-opacity:1;" d="M 26.28125 16.300781 L 27.839844 16.683594 L 27.839844 15.863281 L 26.28125 15.863281 Z M 26.28125 16.300781 "/>
<path style=" stroke:none;fill-rule:nonzero;fill:rgb(100%,83.529412%,12.54902%);fill-opacity:1;" d="M 29.726562 16.019531 L 29.726562 15.863281 L 29.0625 15.863281 Z M 29.726562 16.019531 "/>
<path style=" stroke:none;fill-rule:nonzero;fill:rgb(100%,83.529412%,12.54902%);fill-opacity:1;" d="M 30.042969 16.769531 L 31.605469 16.769531 L 31.605469 16.5625 L 30.042969 16.1875 Z M 30.042969 16.769531 "/>
<path style=" stroke:none;fill-rule:nonzero;fill:rgb(100%,83.529412%,12.54902%);fill-opacity:1;" d="M 32.785156 16.308594 L 33.300781 15.863281 L 31.921875 15.863281 L 31.921875 16.558594 L 32.789062 16.769531 L 33.300781 16.769531 L 32.882812 16.398438 Z M 32.785156 16.308594 "/>
<path style=" stroke:none;fill-rule:nonzero;fill:rgb(100%,83.529412%,12.54902%);fill-opacity:1;" d="M 2.207031 16.769531 L 3.769531 16.769531 L 3.769531 16.3125 L 2.207031 15.945312 Z M 2.207031 16.769531 "/>
<path style=" stroke:none;fill-rule:nonzero;fill:rgb(100%,83.529412%,12.54902%);fill-opacity:1;" d="M 4.089844 16.300781 L 5.652344 16.683594 L 5.652344 15.863281 L 4.089844 15.863281 Z M 4.089844 16.300781 "/>
<path style=" stroke:none;fill-rule:nonzero;fill:rgb(100%,83.529412%,12.54902%);fill-opacity:1;" d="M 7.539062 16.019531 L 7.539062 15.863281 L 6.871094 15.863281 Z M 7.539062 16.019531 "/>
<path style=" stroke:none;fill-rule:nonzero;fill:rgb(100%,83.529412%,12.54902%);fill-opacity:1;" d="M 7.851562 16.769531 L 9.414062 16.769531 L 9.414062 16.5625 L 7.851562 16.1875 Z M 7.851562 16.769531 "/>
<path style=" stroke:none;fill-rule:nonzero;fill:rgb(100%,83.529412%,12.54902%);fill-opacity:1;" d="M 9.734375 16.558594 L 10.605469 16.769531 L 11.414062 16.769531 L 11.414062 16.277344 L 11.417969 16.277344 L 11.417969 15.863281 L 9.734375 15.863281 Z M 9.734375 16.558594 "/>
<path style=" stroke:none;fill-rule:nonzero;fill:rgb(87.843137%,22.745098%,24.313725%);fill-opacity:1;" d="M 22.886719 13.019531 L 23.371094 10.042969 L 23.472656 10.042969 L 23.957031 13.019531 Z M 22.964844 8.605469 L 21.734375 14.96875 L 22.910156 14.96875 L 22.664062 14.375 L 22.777344 13.742188 L 24.074219 13.742188 L 24.1875 14.378906 L 23.941406 14.96875 L 25.117188 14.96875 L 23.894531 8.605469 Z M 22.964844 8.605469 "/>
<path style=" stroke:none;fill-rule:nonzero;fill:rgb(87.843137%,22.745098%,24.313725%);fill-opacity:1;" d="M 20.816406 13.890625 L 20.296875 14.210938 L 19.238281 14.210938 L 19.238281 8.605469 L 18.378906 8.605469 L 18.378906 14.96875 L 20.816406 14.96875 Z M 20.816406 13.890625 "/>
<path style=" stroke:none;fill-rule:nonzero;fill:rgb(87.843137%,22.745098%,24.313725%);fill-opacity:1;" d="M 15.320312 14.96875 L 16.1875 14.96875 L 16.1875 12.632812 L 17.445312 8.605469 L 16.234375 8.605469 L 16.421875 9.351562 L 15.757812 11.542969 L 15.089844 9.351562 L 15.28125 8.605469 L 14.058594 8.605469 L 15.320312 12.632812 Z M 15.320312 14.96875 "/>
<path style=" stroke:none;fill-rule:nonzero;fill:rgb(87.843137%,22.745098%,24.313725%);fill-opacity:1;" d="M 4.566406 9.335938 L 4.863281 8.605469 L 3.746094 8.605469 L 2.664062 12.40625 L 1.582031 8.605469 L 0.460938 8.605469 L 0.761719 9.34375 L 0.761719 14.382812 L 0.445312 14.96875 L 1.585938 14.96875 L 1.585938 11.582031 L 1.691406 11.566406 L 2.460938 14.390625 L 2.871094 14.390625 L 3.636719 11.570312 L 3.742188 11.582031 L 3.742188 14.96875 L 4.898438 14.96875 L 4.566406 14.382812 Z M 4.566406 9.335938 "/>
<path style=" stroke:none;fill-rule:nonzero;fill:rgb(87.843137%,22.745098%,24.313725%);fill-opacity:1;" d="M 32.757812 13.640625 C 32.757812 13.820312 32.703125 13.972656 32.59375 14.082031 C 32.480469 14.1875 32.316406 14.242188 32.113281 14.242188 L 31.367188 14.242188 L 31.367188 9.332031 L 32.140625 9.332031 C 32.320312 9.332031 32.480469 9.382812 32.589844 9.484375 C 32.699219 9.589844 32.757812 9.742188 32.757812 9.925781 Z M 32.425781 8.605469 L 30.175781 8.605469 L 30.507812 9.34375 L 30.507812 14.238281 L 30.175781 14.96875 L 32.425781 14.96875 C 33.183594 14.964844 33.625 14.523438 33.628906 13.800781 L 33.628906 9.78125 C 33.621094 9.058594 33.191406 8.609375 32.425781 8.605469 "/>
<path style=" stroke:none;fill-rule:nonzero;fill:rgb(87.843137%,22.745098%,24.313725%);fill-opacity:1;" d="M 7.070312 13.019531 L 7.554688 10.042969 L 7.65625 10.042969 L 8.140625 13.019531 Z M 7.148438 8.605469 L 5.917969 14.96875 L 7.09375 14.96875 L 6.847656 14.375 L 6.960938 13.742188 L 8.257812 13.742188 L 8.371094 14.378906 L 8.125 14.96875 L 9.300781 14.96875 L 8.078125 8.605469 Z M 7.148438 8.605469 "/>
<path style=" stroke:none;fill-rule:nonzero;fill:rgb(87.843137%,22.745098%,24.313725%);fill-opacity:1;" d="M 28.324219 9.339844 L 28.324219 12.386719 L 28.222656 12.40625 L 26.746094 8.605469 L 25.988281 8.605469 L 25.988281 14.96875 L 27.15625 14.96875 L 26.824219 14.234375 L 26.824219 11.105469 L 26.925781 11.085938 L 28.402344 14.96875 L 29.160156 14.96875 L 29.160156 8.605469 L 27.992188 8.605469 Z M 28.324219 9.339844 "/>
<path style=" stroke:none;fill-rule:nonzero;fill:rgb(87.843137%,22.745098%,24.313725%);fill-opacity:1;" d="M 11.019531 9.328125 L 12.34375 9.328125 L 12.34375 11.347656 L 11.019531 11.347656 Z M 13.183594 14.96875 L 12.1875 12.078125 L 12.679688 12.078125 C 13.03125 12.0625 13.199219 11.898438 13.203125 11.539062 L 13.203125 9.148438 C 13.203125 8.964844 13.15625 8.832031 13.070312 8.742188 C 12.984375 8.65625 12.855469 8.605469 12.671875 8.605469 L 9.828125 8.605469 L 10.160156 9.335938 L 10.160156 14.96875 L 11.019531 14.96875 L 11.019531 12.078125 L 11.308594 12.078125 L 12.269531 14.96875 Z M 13.183594 14.96875 "/>
<path style=" stroke:none;fill-rule:nonzero;fill:rgb(87.843137%,22.745098%,24.313725%);fill-opacity:1;" d="M 13.742188 16.769531 L 16.113281 16.769531 L 16.113281 16.585938 L 14.003906 16.585938 C 13.945312 16.660156 13.855469 16.722656 13.742188 16.769531 "/>
<path style=" stroke:none;fill-rule:nonzero;fill:rgb(87.843137%,22.745098%,24.313725%);fill-opacity:1;" d="M 11.414062 16.769531 L 12.929688 16.769531 C 12.796875 16.714844 12.695312 16.640625 12.644531 16.546875 C 11.976562 16.535156 11.496094 16.433594 11.496094 16.3125 L 11.414062 16.3125 Z M 11.414062 16.769531 "/>
<path style=" stroke:none;fill-rule:nonzero;fill:rgb(87.843137%,22.745098%,24.313725%);fill-opacity:1;" d="M 21.265625 16.078125 C 21.929688 16.09375 22.410156 16.195312 22.414062 16.3125 L 22.503906 16.3125 L 22.503906 15.863281 L 20.988281 15.863281 C 21.113281 15.914062 21.210938 15.992188 21.265625 16.078125 "/>
<path style=" stroke:none;fill-rule:nonzero;fill:rgb(87.843137%,22.745098%,24.313725%);fill-opacity:1;" d="M 20.15625 15.863281 L 17.769531 15.863281 L 17.769531 16.042969 L 19.90625 16.042969 C 19.960938 15.96875 20.046875 15.90625 20.15625 15.863281 "/>
<path style=" stroke:none;fill-rule:nonzero;fill:rgb(87.843137%,22.745098%,24.313725%);fill-opacity:1;" d="M 16.941406 16.769531 L 17.769531 16.769531 L 17.769531 16.585938 L 19.90625 16.585938 C 19.960938 16.660156 20.050781 16.722656 20.164062 16.769531 L 20.976562 16.769531 C 21.109375 16.714844 21.210938 16.640625 21.265625 16.546875 C 21.929688 16.535156 22.414062 16.433594 22.414062 16.3125 L 16.941406 16.3125 Z M 16.941406 16.769531 "/>
<path style=" stroke:none;fill-rule:nonzero;fill:rgb(87.843137%,22.745098%,24.313725%);fill-opacity:1;" d="M 16.113281 15.863281 L 16.113281 16.042969 L 14.003906 16.042969 C 13.949219 15.96875 13.859375 15.90625 13.753906 15.863281 L 12.917969 15.863281 C 12.792969 15.914062 12.695312 15.988281 12.644531 16.078125 C 11.976562 16.09375 11.496094 16.191406 11.496094 16.3125 L 16.941406 16.3125 L 16.941406 15.863281 Z M 16.113281 15.863281 "/>
<path style=" stroke:none;fill-rule:nonzero;fill:rgb(13.72549%,12.156863%,12.54902%);fill-opacity:1;" d="M 0.304688 8.5 L 1.664062 8.5 L 2.664062 12.023438 L 3.65625 8.539062 L 3.664062 8.5 L 5.019531 8.5 L 4.671875 9.355469 L 4.671875 14.355469 L 5.082031 15.074219 L 3.636719 15.074219 L 3.636719 11.976562 L 2.949219 14.496094 L 2.378906 14.496094 L 1.691406 11.972656 L 1.691406 15.074219 L 0.269531 15.074219 L 0.65625 14.355469 L 0.65625 9.363281 Z M 0 15.253906 L 1.875 15.253906 L 1.875 13.328125 L 2.238281 14.675781 L 3.089844 14.675781 L 3.453125 13.332031 L 3.453125 15.253906 L 5.375 15.253906 L 4.851562 14.347656 L 4.851562 9.378906 L 5.253906 8.320312 L 3.527344 8.320312 L 3.519531 8.359375 L 3.480469 8.488281 L 2.664062 11.359375 L 1.800781 8.320312 L 0.0703125 8.320312 L 0.476562 9.386719 L 0.476562 14.347656 Z M 0 15.253906 "/>
<path style=" stroke:none;fill-rule:nonzero;fill:rgb(13.72549%,12.156863%,12.54902%);fill-opacity:1;" d="M 7.0625 8.5 L 8.164062 8.5 L 9.429688 15.074219 L 7.96875 15.074219 L 8.261719 14.367188 L 8.171875 13.847656 L 7.050781 13.847656 L 6.957031 14.359375 L 7.25 15.074219 L 5.792969 15.074219 Z M 7.144531 14.339844 L 7.199219 14.027344 L 8.019531 14.027344 L 8.074219 14.347656 L 7.699219 15.253906 L 9.648438 15.253906 L 8.316406 8.320312 L 6.914062 8.320312 L 5.570312 15.253906 L 7.519531 15.253906 Z M 7.144531 14.339844 "/>
<path style=" stroke:none;fill-rule:nonzero;fill:rgb(13.72549%,12.156863%,12.54902%);fill-opacity:1;" d="M 7.605469 11.507812 L 7.804688 12.734375 L 7.40625 12.734375 Z M 7.605469 10.378906 L 7.195312 12.914062 L 8.015625 12.914062 Z M 7.605469 10.378906 "/>
<path style=" stroke:none;fill-rule:nonzero;fill:rgb(13.72549%,12.156863%,12.54902%);fill-opacity:1;" d="M 23.421875 11.507812 L 23.621094 12.734375 L 23.222656 12.734375 Z M 23.421875 10.378906 L 23.011719 12.914062 L 23.832031 12.914062 Z M 23.421875 10.378906 "/>
<path style=" stroke:none;fill-rule:nonzero;fill:rgb(13.72549%,12.156863%,12.54902%);fill-opacity:1;" d="M 22.878906 8.5 L 23.980469 8.5 L 25.242188 15.074219 L 23.785156 15.074219 L 24.078125 14.367188 L 23.988281 13.847656 L 22.867188 13.847656 L 22.773438 14.359375 L 23.066406 15.074219 L 21.609375 15.074219 Z M 22.960938 14.339844 L 23.015625 14.027344 L 23.835938 14.027344 L 23.890625 14.347656 L 23.515625 15.253906 L 25.464844 15.253906 L 24.128906 8.320312 L 22.730469 8.320312 L 21.386719 15.253906 L 23.335938 15.253906 Z M 22.960938 14.339844 "/>
<path style=" stroke:none;fill-rule:nonzero;fill:rgb(13.72549%,12.156863%,12.54902%);fill-opacity:1;" d="M 32.472656 13.640625 C 32.464844 13.761719 32.441406 13.835938 32.398438 13.875 C 32.351562 13.917969 32.269531 13.945312 32.109375 13.957031 L 31.652344 13.957031 L 31.652344 9.617188 L 32.140625 9.617188 C 32.269531 9.625 32.351562 9.652344 32.394531 9.691406 C 32.4375 9.734375 32.464844 9.800781 32.472656 9.929688 Z M 32.140625 9.4375 L 31.472656 9.4375 L 31.472656 14.136719 L 32.113281 14.136719 C 32.484375 14.132812 32.648438 13.957031 32.652344 13.640625 L 32.652344 9.925781 C 32.648438 9.601562 32.464844 9.441406 32.140625 9.4375 "/>
<path style=" stroke:none;fill-rule:nonzero;fill:rgb(13.72549%,12.156863%,12.54902%);fill-opacity:1;" d="M 33.734375 13.800781 C 33.734375 14.183594 33.609375 14.503906 33.382812 14.726562 C 33.15625 14.949219 32.828125 15.074219 32.429688 15.074219 L 30.011719 15.074219 L 30.402344 14.214844 L 30.402344 9.367188 L 30.011719 8.5 L 32.425781 8.5 C 32.832031 8.5 33.160156 8.625 33.386719 8.851562 C 33.613281 9.074219 33.734375 9.398438 33.734375 9.78125 Z M 33.515625 8.722656 C 33.25 8.457031 32.871094 8.320312 32.433594 8.320312 L 29.734375 8.320312 L 30.21875 9.40625 L 30.21875 14.175781 L 29.730469 15.253906 L 32.433594 15.253906 C 32.867188 15.253906 33.242188 15.117188 33.507812 14.855469 C 33.773438 14.597656 33.914062 14.222656 33.914062 13.804688 L 33.914062 9.777344 C 33.914062 9.359375 33.777344 8.984375 33.515625 8.722656 "/>
<path style=" stroke:none;fill-rule:nonzero;fill:rgb(13.72549%,12.156863%,12.54902%);fill-opacity:1;" d="M 20.921875 15.074219 L 18.277344 15.074219 L 18.277344 8.5 L 19.347656 8.5 L 19.347656 14.105469 L 20.269531 14.105469 L 20.921875 13.703125 Z M 21.101562 13.378906 L 20.21875 13.921875 L 19.527344 13.921875 L 19.527344 8.320312 L 18.09375 8.320312 L 18.09375 15.253906 L 21.101562 15.253906 Z M 21.101562 13.378906 "/>
<path style=" stroke:none;fill-rule:nonzero;fill:rgb(13.72549%,12.156863%,12.54902%);fill-opacity:1;" d="M 25.882812 8.5 L 26.816406 8.5 L 28.21875 12.109375 L 28.21875 9.363281 L 27.863281 8.574219 L 27.828125 8.5 L 29.265625 8.5 L 29.265625 15.074219 L 28.328125 15.074219 L 26.929688 11.390625 L 26.929688 14.214844 L 27.316406 15.074219 L 25.882812 15.074219 Z M 27.109375 14.171875 L 27.109375 12.375 L 28.203125 15.253906 L 29.445312 15.253906 L 29.445312 8.320312 L 27.550781 8.320312 L 27.582031 8.394531 L 27.699219 8.648438 L 28.039062 9.402344 L 28.039062 11.140625 L 26.941406 8.320312 L 25.703125 8.320312 L 25.703125 15.253906 L 27.597656 15.253906 Z M 27.109375 14.171875 "/>
<path style=" stroke:none;fill-rule:nonzero;fill:rgb(13.72549%,12.156863%,12.54902%);fill-opacity:1;" d="M 13.917969 8.5 L 15.414062 8.5 L 15.199219 9.347656 L 15.757812 11.183594 L 16.3125 9.351562 L 16.097656 8.5 L 17.589844 8.5 L 16.292969 12.652344 L 16.292969 15.074219 L 15.214844 15.074219 L 15.214844 12.652344 Z M 15.03125 15.253906 L 16.472656 15.253906 L 16.472656 12.679688 L 17.835938 8.320312 L 15.863281 8.320312 L 15.882812 8.386719 L 16.125 9.34375 L 15.753906 10.558594 L 15.386719 9.34375 L 15.648438 8.320312 L 13.667969 8.320312 L 15.03125 12.679688 Z M 15.03125 15.253906 "/>
<path style=" stroke:none;fill-rule:nonzero;fill:rgb(13.72549%,12.156863%,12.54902%);fill-opacity:1;" d="M 9.664062 8.5 L 12.671875 8.5 C 12.871094 8.5 13.035156 8.558594 13.144531 8.671875 C 13.257812 8.785156 13.308594 8.945312 13.308594 9.148438 L 13.308594 11.539062 C 13.316406 11.941406 13.074219 12.179688 12.679688 12.183594 L 12.335938 12.183594 L 13.308594 15.003906 L 13.332031 15.074219 L 12.195312 15.074219 L 11.230469 12.183594 L 11.125 12.183594 L 11.125 15.074219 L 10.054688 15.074219 L 10.054688 9.359375 Z M 9.875 15.253906 L 11.308594 15.253906 L 11.308594 12.980469 L 12.0625 15.253906 L 13.585938 15.253906 L 13.480469 14.945312 L 12.589844 12.363281 L 12.679688 12.363281 C 12.914062 12.359375 13.125 12.292969 13.277344 12.136719 C 13.425781 11.984375 13.492188 11.773438 13.492188 11.542969 L 13.492188 9.140625 C 13.492188 8.914062 13.425781 8.699219 13.273438 8.542969 C 13.125 8.386719 12.90625 8.320312 12.679688 8.320312 C 12.675781 8.320312 12.675781 8.320312 12.671875 8.320312 L 9.382812 8.320312 L 9.875 9.398438 Z M 9.875 15.253906 "/>
<path style=" stroke:none;fill-rule:nonzero;fill:rgb(13.72549%,12.156863%,12.54902%);fill-opacity:1;" d="M 12.058594 11.0625 L 11.308594 11.0625 L 11.308594 9.617188 L 12.058594 9.617188 Z M 12.242188 9.4375 L 11.125 9.4375 L 11.125 11.246094 L 12.242188 11.246094 Z M 12.242188 9.4375 "/>
<path style=" stroke:none;fill-rule:nonzero;fill:rgb(13.72549%,12.156863%,12.54902%);fill-opacity:1;" d="M 32.882812 16.398438 L 33.300781 16.769531 L 32.789062 16.769531 L 31.921875 16.558594 L 31.921875 15.863281 L 33.296875 15.863281 L 32.785156 16.3125 Z M 30.042969 16.769531 L 30.042969 16.1875 L 31.601562 16.5625 L 31.601562 16.769531 Z M 24.398438 16.769531 L 24.398438 15.945312 L 25.960938 16.3125 L 25.960938 16.769531 Z M 22.507812 16.769531 L 10.605469 16.769531 L 9.734375 16.558594 L 9.734375 15.863281 L 11.417969 15.863281 L 11.417969 16.277344 L 11.417969 15.863281 L 22.507812 15.863281 Z M 7.851562 16.769531 L 7.851562 16.1875 L 9.414062 16.5625 L 9.414062 16.769531 Z M 2.207031 16.769531 L 2.207031 15.945312 L 3.769531 16.3125 L 3.769531 16.769531 Z M 5.652344 15.863281 L 5.652344 16.683594 L 4.089844 16.300781 L 4.089844 15.863281 Z M 7.539062 15.863281 L 7.539062 16.019531 L 6.871094 15.863281 Z M 27.84375 15.863281 L 27.84375 16.683594 L 26.28125 16.300781 L 26.28125 15.863281 Z M 29.726562 15.863281 L 29.726562 16.019531 L 29.0625 15.863281 Z M 0 15.632812 L 0.777344 16.3125 L 0 17 L 33.90625 17 L 33.132812 16.3125 L 33.910156 15.632812 Z M 0 15.632812 "/>
<path style=" stroke:none;fill-rule:nonzero;fill:rgb(13.72549%,12.156863%,12.54902%);fill-opacity:1;" d="M 34.003906 14.734375 L 34.175781 14.734375 L 34.175781 15.253906 L 34.238281 15.253906 L 34.238281 14.734375 L 34.417969 14.734375 L 34.417969 14.671875 L 34.003906 14.671875 Z M 34.003906 14.734375 "/>
<path style=" stroke:none;fill-rule:nonzero;fill:rgb(13.72549%,12.156863%,12.54902%);fill-opacity:1;" d="M 34.75 15.144531 L 34.601562 14.671875 L 34.503906 14.671875 L 34.503906 15.253906 L 34.5625 15.253906 L 34.5625 14.761719 L 34.71875 15.253906 L 34.78125 15.253906 L 34.9375 14.761719 L 34.9375 15.253906 L 35 15.253906 L 35 14.671875 L 34.902344 14.671875 Z M 34.75 15.144531 "/>
</g>
</svg>
