<?xml version="1.0" encoding="UTF-8"?>
<svg xmlns="http://www.w3.org/2000/svg" xmlns:xlink="http://www.w3.org/1999/xlink" width="35pt" height="25pt" viewBox="0 0 35 25" version="1.1">
<g id="surface1">
<path style=" stroke:none;fill-rule:evenodd;fill:rgb(100%,100%,100%);fill-opacity:1;" d="M 3.035156 22.675781 L 3.035156 16.101562 L 4.785156 16.101562 L 4.785156 15.78125 L 0 15.78125 L 0 8.28125 L 4.785156 8.28125 L 3.136719 8.269531 L 3.136719 1.488281 L 13.722656 1.488281 L 17.507812 7.886719 L 21.277344 1.488281 L 31.863281 1.488281 L 31.863281 8.269531 L 30.214844 8.269531 L 35 8.28125 L 35 15.78125 L 30.214844 15.78125 L 30.214844 16.101562 L 31.964844 16.101562 L 31.964844 22.675781 L 20.285156 22.675781 L 20.285156 19.160156 L 17.503906 23.75 L 14.714844 19.179688 L 14.714844 22.675781 Z M 3.035156 22.675781 "/>
<path style=" stroke:none;fill-rule:evenodd;fill:rgb(97.254902%,90.196078%,9.411765%);fill-opacity:1;" d="M 13.746094 16.609375 L 12.929688 15.273438 L 12.457031 15.273438 L 12.457031 16.609375 Z M 21.234375 16.609375 L 22.542969 16.609375 L 22.542969 15.273438 L 22.046875 15.273438 Z M 5.292969 8.789062 L 5.292969 7.761719 L 3.648438 7.761719 L 3.648438 2 L 13.433594 2 L 17.449219 8.789062 L 17.566406 8.789062 L 21.566406 2 L 31.351562 2 L 31.351562 7.761719 L 29.707031 7.761719 L 29.707031 8.789062 L 34.492188 8.789062 L 34.492188 15.273438 L 29.707031 15.273438 L 29.707031 16.609375 L 31.457031 16.609375 L 31.457031 22.167969 L 20.792969 22.167969 L 20.792969 17.339844 L 17.503906 22.769531 L 14.207031 17.367188 L 14.207031 22.167969 L 3.542969 22.167969 L 3.542969 16.609375 L 5.292969 16.609375 L 5.292969 15.273438 L 0.507812 15.273438 L 0.507812 8.789062 Z M 5.292969 8.789062 "/>
<path style=" stroke:none;fill-rule:evenodd;fill:rgb(7.058824%,9.411765%,28.627451%);fill-opacity:1;" d="M 4.339844 7.066406 L 5.988281 7.066406 L 5.988281 17.304688 L 4.238281 17.304688 L 4.238281 21.472656 L 13.511719 21.472656 L 13.511719 17.304688 L 11.761719 17.304688 L 11.765625 12.035156 L 17.5 21.433594 L 23.238281 11.96875 L 23.238281 17.304688 L 21.488281 17.304688 L 21.488281 21.472656 L 30.761719 21.472656 L 30.761719 17.304688 L 29.011719 17.304688 L 29.011719 7.066406 L 30.660156 7.066406 L 30.660156 2.695312 L 21.964844 2.695312 L 17.511719 10.253906 L 13.035156 2.695312 L 4.339844 2.695312 Z M 4.339844 7.066406 "/>
<path style=" stroke:none;fill-rule:evenodd;fill:rgb(97.254902%,90.196078%,9.411765%);fill-opacity:1;" d="M 34.492188 15.273438 L 0.507812 15.273438 L 0.507812 8.789062 L 34.492188 8.789062 Z M 34.492188 15.273438 "/>
<path style=" stroke:none;fill-rule:evenodd;fill:rgb(7.058824%,9.411765%,28.627451%);fill-opacity:1;" d="M 33.796875 9.484375 L 33.796875 14.578125 L 1.203125 14.578125 L 1.203125 9.484375 Z M 33.796875 9.484375 "/>
<path style=" stroke:none;fill-rule:evenodd;fill:rgb(97.254902%,90.196078%,9.411765%);fill-opacity:1;" d="M 5.578125 10.925781 L 6.203125 10.925781 L 6.699219 12.230469 L 7.226562 10.925781 L 7.855469 10.925781 L 8.226562 13.371094 L 7.589844 13.371094 L 7.414062 11.960938 L 7.40625 11.960938 L 6.820312 13.371094 L 6.566406 13.371094 L 6.007812 11.960938 L 6 11.960938 L 5.796875 13.371094 L 5.164062 13.371094 Z M 5.578125 10.925781 "/>
<path style=" stroke:none;fill-rule:evenodd;fill:rgb(97.254902%,90.196078%,9.411765%);fill-opacity:1;" d="M 9.589844 13.371094 L 9.589844 10.925781 L 10.226562 10.925781 L 10.226562 13.371094 Z M 9.589844 13.371094 "/>
<path style=" stroke:none;fill-rule:evenodd;fill:rgb(97.254902%,90.196078%,9.411765%);fill-opacity:1;" d="M 13.445312 11.746094 C 13.316406 11.570312 13.105469 11.476562 12.890625 11.476562 C 12.5 11.476562 12.238281 11.773438 12.238281 12.152344 C 12.238281 12.539062 12.503906 12.816406 12.898438 12.816406 C 13.105469 12.816406 13.3125 12.71875 13.445312 12.558594 L 13.445312 13.320312 C 13.234375 13.386719 13.082031 13.433594 12.886719 13.433594 C 12.546875 13.433594 12.222656 13.304688 11.96875 13.074219 C 11.699219 12.832031 11.574219 12.511719 11.574219 12.152344 C 11.574219 11.816406 11.703125 11.496094 11.9375 11.257812 C 12.175781 11.007812 12.523438 10.859375 12.867188 10.859375 C 13.070312 10.859375 13.257812 10.90625 13.445312 10.984375 Z M 13.445312 11.746094 "/>
<path style=" stroke:none;fill-rule:evenodd;fill:rgb(97.254902%,90.196078%,9.411765%);fill-opacity:1;" d="M 17.042969 13.371094 L 16.410156 13.371094 L 16.410156 12.367188 L 15.492188 12.367188 L 15.492188 13.371094 L 14.855469 13.371094 L 14.855469 10.925781 L 15.492188 10.925781 L 15.492188 11.867188 L 16.410156 11.867188 L 16.410156 10.925781 L 17.042969 10.925781 Z M 17.042969 13.371094 "/>
<path style=" stroke:none;fill-rule:evenodd;fill:rgb(97.254902%,90.196078%,9.411765%);fill-opacity:1;" d="M 18.425781 13.371094 L 18.425781 10.925781 L 19.058594 10.925781 L 19.058594 13.371094 Z M 18.425781 13.371094 "/>
<path style=" stroke:none;fill-rule:evenodd;fill:rgb(97.254902%,90.196078%,9.411765%);fill-opacity:1;" d="M 22.90625 12.003906 C 22.902344 12.363281 22.875 12.667969 22.65625 12.96875 C 22.417969 13.304688 22.058594 13.449219 21.648438 13.449219 C 20.882812 13.449219 20.347656 12.929688 20.347656 12.160156 C 20.347656 11.367188 20.882812 10.84375 21.671875 10.84375 C 22.175781 10.84375 22.5625 11.070312 22.773438 11.527344 L 22.171875 11.78125 C 22.082031 11.546875 21.898438 11.390625 21.644531 11.390625 C 21.226562 11.390625 21.007812 11.789062 21.007812 12.164062 C 21.007812 12.542969 21.234375 12.929688 21.652344 12.929688 C 21.929688 12.929688 22.136719 12.785156 22.164062 12.503906 L 21.644531 12.503906 L 21.644531 12.003906 Z M 22.90625 12.003906 "/>
<path style=" stroke:none;fill-rule:evenodd;fill:rgb(97.254902%,90.196078%,9.411765%);fill-opacity:1;" d="M 24.675781 12.945312 L 24.507812 13.371094 L 23.835938 13.371094 L 24.773438 10.925781 L 25.46875 10.925781 L 26.386719 13.371094 L 25.710938 13.371094 L 25.550781 12.945312 Z M 25.121094 11.679688 L 25.113281 11.679688 L 24.851562 12.457031 L 25.378906 12.457031 Z M 25.121094 11.679688 "/>
<path style=" stroke:none;fill-rule:evenodd;fill:rgb(97.254902%,90.196078%,9.411765%);fill-opacity:1;" d="M 29.207031 12.417969 L 29.207031 10.925781 L 29.84375 10.925781 L 29.84375 13.371094 L 29.207031 13.371094 L 28.046875 11.871094 L 28.039062 11.871094 L 28.039062 13.371094 L 27.402344 13.371094 L 27.402344 10.925781 L 28.039062 10.925781 L 29.203125 12.417969 Z M 29.207031 12.417969 "/>
<path style=" stroke:none;fill-rule:evenodd;fill:rgb(100%,100%,100%);fill-opacity:1;" d="M 32.636719 21.136719 C 33.046875 21.136719 33.410156 21.457031 33.410156 21.902344 C 33.410156 22.347656 33.050781 22.671875 32.636719 22.671875 C 32.21875 22.671875 31.859375 22.347656 31.859375 21.902344 C 31.859375 21.457031 32.21875 21.136719 32.636719 21.136719 Z M 32.636719 21.136719 "/>
<path style=" stroke:none;fill-rule:evenodd;fill:rgb(7.058824%,9.411765%,28.627451%);fill-opacity:1;" d="M 32.042969 21.902344 C 32.042969 21.566406 32.3125 21.320312 32.636719 21.320312 C 32.953125 21.320312 33.222656 21.566406 33.222656 21.902344 C 33.222656 22.238281 32.953125 22.488281 32.636719 22.488281 C 32.3125 22.488281 32.042969 22.238281 32.042969 21.902344 Z M 32.636719 22.390625 C 32.898438 22.390625 33.105469 22.183594 33.105469 21.902344 C 33.105469 21.625 32.898438 21.417969 32.636719 21.417969 C 32.367188 21.417969 32.160156 21.625 32.160156 21.902344 C 32.160156 22.183594 32.367188 22.390625 32.636719 22.390625 Z M 32.511719 22.238281 L 32.410156 22.238281 L 32.410156 21.566406 L 32.664062 21.566406 C 32.824219 21.566406 32.902344 21.625 32.902344 21.757812 C 32.902344 21.878906 32.828125 21.929688 32.730469 21.945312 L 32.921875 22.238281 L 32.804688 22.238281 L 32.628906 21.949219 L 32.511719 21.949219 Z M 32.632812 21.863281 C 32.71875 21.863281 32.796875 21.855469 32.796875 21.753906 C 32.796875 21.667969 32.722656 21.652344 32.652344 21.652344 L 32.511719 21.652344 L 32.511719 21.863281 Z M 32.632812 21.863281 "/>
</g>
</svg>
