<?xml version="1.0" encoding="UTF-8"?>
<svg xmlns="http://www.w3.org/2000/svg" xmlns:xlink="http://www.w3.org/1999/xlink" width="35pt" height="25pt" viewBox="0 0 35 25" version="1.1">
<g id="surface1">
<path style=" stroke:none;fill-rule:evenodd;fill:rgb(100%,100%,100%);fill-opacity:1;" d="M 5 25 L 30 25 L 30 0 L 5 0 Z M 5 25 "/>
<path style=" stroke:none;fill-rule:evenodd;fill:rgb(98.039216%,72.54902%,23.921569%);fill-opacity:1;" d="M 17.5 11.597656 L 15.921875 8.957031 L 17.078125 8.957031 L 17.078125 5.84375 L 10.480469 5.84375 L 10.480469 8.957031 L 11.742188 8.957031 L 7.375 15.855469 L 6.101562 15.855469 L 6.101562 19.15625 L 12.640625 19.15625 L 12.640625 15.855469 L 11.707031 15.855469 L 13.679688 12.679688 L 14.496094 13.953125 L 13.765625 13.953125 L 13.765625 17.175781 L 21.234375 17.175781 L 21.234375 13.953125 L 20.503906 13.953125 L 21.320312 12.679688 L 23.292969 15.855469 L 22.359375 15.855469 L 22.359375 19.15625 L 28.898438 19.15625 L 28.898438 15.855469 L 27.625 15.855469 L 23.257812 8.957031 L 24.519531 8.957031 L 24.519531 5.84375 L 17.917969 5.84375 L 17.917969 8.957031 L 19.078125 8.957031 L 17.5 11.597656 "/>
<path style=" stroke:none;fill-rule:evenodd;fill:rgb(58.823529%,3.921569%,17.254902%);fill-opacity:1;" d="M 19.660156 8.628906 L 18.25 8.628906 L 18.25 6.175781 L 24.1875 6.175781 L 24.1875 8.628906 L 22.660156 8.628906 L 27.441406 16.1875 L 28.566406 16.1875 L 28.566406 18.824219 L 22.6875 18.824219 L 22.6875 16.1875 L 23.886719 16.1875 L 21.324219 12.0625 L 19.898438 14.28125 L 20.902344 14.28125 L 20.902344 16.847656 L 14.097656 16.847656 L 14.097656 14.28125 L 15.101562 14.28125 L 13.675781 12.0625 L 11.113281 16.1875 L 12.3125 16.1875 L 12.3125 18.824219 L 6.433594 18.824219 L 6.433594 16.1875 L 7.558594 16.1875 L 12.339844 8.628906 L 10.8125 8.628906 L 10.8125 6.175781 L 16.75 6.175781 L 16.75 8.628906 L 15.339844 8.628906 L 17.5 12.242188 L 19.660156 8.628906 "/>
</g>
</svg>
