<?xml version="1.0" encoding="UTF-8"?>
<svg xmlns="http://www.w3.org/2000/svg" xmlns:xlink="http://www.w3.org/1999/xlink" width="35pt" height="25pt" viewBox="0 0 35 25" version="1.1">
<g id="surface1">
<path style=" stroke:none;fill-rule:nonzero;fill:rgb(88.235294%,11.372549%,21.960784%);fill-opacity:1;" d="M 30.691406 0 L 19.8125 0 L 19.8125 7.242188 L 21.535156 7.242188 L 21.535156 11.519531 C 20.554688 10.070312 13.757812 0 13.757812 0 L 3.75 0 L 3.75 7.242188 L 5.496094 7.242188 L 5.496094 17.757812 L 3.75 17.757812 L 3.75 25 L 14.886719 25 L 14.886719 17.757812 L 13.167969 17.757812 L 13.167969 13.722656 C 14.140625 15.125 21 25 21 25 L 31 25 L 31 17.757812 L 29.230469 17.757812 L 29.230469 7.242188 L 31 7.242188 L 31 0 Z M 30.691406 0 "/>
<path style=" stroke:none;fill-rule:nonzero;fill:rgb(100%,100%,100%);fill-opacity:1;" d="M 30.691406 6.933594 L 30.691406 0.308594 L 20.121094 0.308594 L 20.121094 6.933594 L 21.84375 6.933594 L 21.84375 12.527344 C 20.414062 10.414062 13.597656 0.308594 13.597656 0.308594 L 4.058594 0.308594 L 4.058594 6.933594 L 5.804688 6.933594 L 5.804688 18.066406 L 4.058594 18.066406 L 4.058594 24.691406 L 14.578125 24.691406 L 14.578125 18.066406 L 12.859375 18.066406 L 12.859375 12.738281 C 14.28125 14.789062 21.160156 24.691406 21.160156 24.691406 L 30.691406 24.691406 L 30.691406 18.066406 L 28.921875 18.066406 L 28.921875 6.933594 Z M 30.691406 6.933594 "/>
<path style=" stroke:none;fill-rule:nonzero;fill:rgb(88.235294%,11.372549%,21.960784%);fill-opacity:1;" d="M 14.101562 18.546875 L 14.101562 24.210938 L 4.539062 24.210938 L 4.539062 18.546875 L 6.28125 18.546875 L 6.28125 6.453125 L 4.539062 6.453125 L 4.539062 0.789062 L 13.339844 0.789062 L 22.320312 14.09375 L 22.320312 6.453125 L 20.601562 6.453125 L 20.601562 0.789062 L 30.214844 0.789062 L 30.214844 6.453125 L 28.445312 6.453125 L 28.445312 18.546875 L 30.214844 18.546875 L 30.214844 24.210938 L 21.410156 24.210938 L 12.378906 11.207031 L 12.378906 18.546875 Z M 14.101562 18.546875 "/>
<path style=" stroke:none;fill-rule:nonzero;fill:rgb(13.333333%,12.156863%,12.156863%);fill-opacity:1;" d="M 31.699219 24.113281 C 31.773438 24.113281 31.847656 24.132812 31.914062 24.171875 C 31.984375 24.210938 32.039062 24.261719 32.078125 24.335938 C 32.121094 24.40625 32.140625 24.480469 32.140625 24.554688 C 32.140625 24.632812 32.121094 24.707031 32.082031 24.773438 C 32.042969 24.84375 31.988281 24.898438 31.917969 24.9375 C 31.847656 24.976562 31.773438 24.996094 31.699219 24.996094 C 31.621094 24.996094 31.546875 24.980469 31.476562 24.9375 C 31.410156 24.898438 31.355469 24.84375 31.316406 24.773438 C 31.277344 24.707031 31.257812 24.632812 31.257812 24.554688 C 31.257812 24.480469 31.277344 24.40625 31.316406 24.335938 C 31.355469 24.265625 31.410156 24.210938 31.480469 24.171875 C 31.550781 24.132812 31.621094 24.113281 31.699219 24.113281 M 31.699219 24.203125 C 31.636719 24.203125 31.578125 24.21875 31.523438 24.25 C 31.46875 24.277344 31.421875 24.320312 31.390625 24.378906 C 31.359375 24.433594 31.34375 24.492188 31.34375 24.554688 C 31.34375 24.617188 31.359375 24.675781 31.390625 24.730469 C 31.421875 24.785156 31.464844 24.832031 31.523438 24.863281 C 31.578125 24.894531 31.636719 24.910156 31.699219 24.910156 C 31.761719 24.910156 31.816406 24.894531 31.875 24.863281 C 31.929688 24.832031 31.972656 24.785156 32.003906 24.730469 C 32.039062 24.675781 32.050781 24.617188 32.050781 24.554688 C 32.050781 24.492188 32.035156 24.433594 32.003906 24.378906 C 31.972656 24.320312 31.929688 24.277344 31.871094 24.25 C 31.816406 24.21875 31.757812 24.203125 31.699219 24.203125 M 31.5 24.789062 L 31.5 24.324219 L 31.59375 24.324219 C 31.679688 24.324219 31.730469 24.324219 31.742188 24.324219 C 31.773438 24.328125 31.796875 24.335938 31.816406 24.34375 C 31.832031 24.355469 31.847656 24.367188 31.859375 24.386719 C 31.871094 24.40625 31.875 24.429688 31.875 24.453125 C 31.875 24.488281 31.863281 24.515625 31.84375 24.539062 C 31.820312 24.5625 31.789062 24.578125 31.75 24.585938 C 31.765625 24.589844 31.773438 24.597656 31.785156 24.601562 C 31.792969 24.609375 31.800781 24.621094 31.816406 24.636719 C 31.820312 24.640625 31.828125 24.660156 31.851562 24.695312 L 31.90625 24.789062 L 31.789062 24.789062 L 31.75 24.710938 C 31.722656 24.660156 31.699219 24.628906 31.683594 24.617188 C 31.667969 24.605469 31.644531 24.597656 31.617188 24.597656 L 31.59375 24.597656 L 31.59375 24.789062 Z M 31.59375 24.523438 L 31.628906 24.523438 C 31.683594 24.523438 31.71875 24.519531 31.734375 24.515625 C 31.746094 24.511719 31.757812 24.503906 31.765625 24.496094 C 31.773438 24.484375 31.777344 24.472656 31.777344 24.460938 C 31.777344 24.449219 31.773438 24.4375 31.765625 24.425781 C 31.757812 24.414062 31.746094 24.410156 31.730469 24.40625 C 31.71875 24.402344 31.683594 24.398438 31.628906 24.398438 L 31.59375 24.398438 Z M 31.59375 24.523438 "/>
</g>
</svg>
