<?xml version="1.0" encoding="UTF-8"?>
<svg xmlns="http://www.w3.org/2000/svg" xmlns:xlink="http://www.w3.org/1999/xlink" width="35pt" height="25pt" viewBox="0 0 35 25" version="1.1">
<g id="surface1">
<path style=" stroke:none;fill-rule:evenodd;fill:rgb(32.156863%,9.803922%,45.098039%);fill-opacity:1;" d="M 19.550781 4.035156 C 19.550781 4.113281 21.496094 7.316406 21.71875 7.691406 C 22.074219 8.3125 22.460938 8.890625 22.804688 9.519531 C 22.847656 9.597656 22.914062 9.667969 22.945312 9.730469 C 23.027344 9.898438 22.890625 9.933594 23.066406 9.988281 C 23.234375 10.042969 23.464844 10.144531 23.617188 10.175781 C 23.910156 10.242188 24.535156 10.515625 24.734375 10.53125 L 24.734375 0.992188 L 19.550781 0.992188 Z M 19.550781 4.035156 "/>
<path style=" stroke:none;fill-rule:evenodd;fill:rgb(32.156863%,9.803922%,45.098039%);fill-opacity:1;" d="M 10.242188 23.976562 L 15.394531 23.976562 L 15.394531 20.964844 C 15.394531 20.832031 13.894531 18.347656 13.707031 18.078125 C 13.535156 17.828125 12.035156 15.300781 12 15.1875 L 10.5625 15.011719 C 10.5625 14.761719 10.722656 14.535156 10.722656 14.339844 C 10.722656 14.28125 10.421875 13.875 10.375 13.804688 L 12 12.738281 L 12.007812 8.445312 L 13.792969 11.496094 L 14.59375 11.234375 C 14.585938 11.136719 14.5625 11.121094 14.5625 11.011719 L 14.566406 10.933594 L 18.933594 9.71875 L 13.824219 0.992188 L 10.242188 0.992188 Z M 10.242188 23.976562 "/>
<path style=" stroke:none;fill-rule:evenodd;fill:rgb(99.215686%,99.215686%,99.215686%);fill-opacity:1;" d="M 19.550781 0.992188 L 24.734375 0.992188 L 24.734375 10.53125 C 24.535156 10.515625 23.910156 10.242188 23.617188 10.175781 C 23.464844 10.144531 23.234375 10.042969 23.066406 9.988281 C 22.890625 9.933594 23.027344 9.898438 22.945312 9.730469 C 22.914062 9.667969 22.847656 9.597656 22.804688 9.519531 C 22.460938 8.890625 22.074219 8.3125 21.71875 7.691406 C 21.496094 7.316406 19.550781 4.113281 19.550781 4.035156 Z M 19.136719 4.160156 C 19.136719 4.347656 22.558594 9.796875 22.558594 9.957031 L 22.558594 10.179688 C 22.785156 10.199219 23.703125 10.484375 23.925781 10.574219 C 24.140625 10.660156 24.351562 10.707031 24.554688 10.808594 C 24.632812 10.847656 25.136719 11.101562 25.152344 11.109375 L 25.152344 0.578125 L 19.136719 0.578125 Z M 19.136719 4.160156 "/>
<path style=" stroke:none;fill-rule:evenodd;fill:rgb(99.215686%,99.215686%,99.215686%);fill-opacity:1;" d="M 18.785156 4.226562 L 18.785156 0.222656 L 25.503906 0.222656 L 25.503906 11.460938 C 25.785156 11.527344 26.152344 11.972656 26.300781 12.195312 C 26.703125 12.195312 27.59375 12.535156 27.953125 12.65625 C 28.285156 12.769531 29.082031 13.265625 29.246094 13.507812 C 29.148438 13.484375 28.328125 12.988281 28.117188 12.878906 C 27.792969 12.714844 27.1875 12.515625 26.71875 12.515625 L 26.496094 12.515625 C 26.632812 13.109375 27.367188 12.917969 27.78125 13.242188 C 28.023438 13.433594 28.824219 13.890625 28.894531 14.148438 C 28.46875 13.863281 27.355469 13.09375 26.71875 13.09375 C 26.671875 13.09375 26.652344 13.136719 26.652344 13.1875 L 26.652344 13.347656 C 26.652344 13.441406 27.03125 13.574219 27.144531 13.660156 C 27.335938 13.808594 27.417969 13.875 27.589844 14.042969 C 27.761719 14.214844 28.195312 14.800781 28.253906 15.042969 C 28.21875 15.019531 27.753906 14.433594 27.621094 14.300781 C 27.480469 14.15625 26.996094 13.796875 26.75 13.796875 C 26.527344 13.796875 26.601562 14.289062 26.453125 14.460938 C 26.152344 14.808594 26.332031 14.808594 26.183594 15.183594 C 26.039062 15.554688 25.535156 16.066406 25.535156 16.515625 L 25.535156 16.710938 C 25.535156 17.066406 26.015625 17.660156 26.015625 18.148438 L 26.015625 18.40625 C 26.015625 18.546875 25.949219 18.523438 25.949219 18.660156 C 25.949219 18.859375 26.367188 19.132812 26.367188 19.65625 C 26.367188 20.070312 26.066406 20.519531 25.984375 20.871094 C 25.886719 21.296875 25.855469 21.824219 25.847656 22.351562 L 25.503906 22.152344 L 25.503906 24.777344 L 20.765625 24.777344 C 20.609375 24.777344 20.046875 23.484375 19.839844 23.335938 L 19.472656 23.613281 L 19.429688 23.597656 L 19.230469 22.445312 L 19.265625 22.4375 L 19.253906 21.980469 L 16.191406 24.167969 L 16.191406 24.777344 L 9.441406 24.777344 L 9.441406 0.222656 L 14.257812 0.234375 L 19.871094 9.796875 C 20.089844 9.777344 20.367188 9.636719 20.574219 9.636719 L 20.640625 9.636719 C 21.046875 9.636719 21.703125 9.976562 22.144531 9.988281 C 22.09375 9.773438 20.691406 7.503906 20.460938 7.125 C 20.265625 6.804688 18.785156 4.367188 18.785156 4.226562 Z M 18.558594 4.320312 C 18.558594 4.445312 21.417969 9.078125 21.726562 9.667969 C 21.371094 9.636719 20.957031 9.410156 20.574219 9.410156 C 20.445312 9.410156 20.128906 9.507812 20 9.539062 C 19.773438 9.203125 19.480469 8.703125 19.285156 8.332031 C 19.070312 7.921875 18.785156 7.539062 18.570312 7.128906 C 18.167969 6.363281 17.617188 5.46875 17.160156 4.730469 C 16.671875 3.949219 16.210938 3.125 15.746094 2.335938 C 15.574219 2.046875 14.46875 0 14.273438 0 L 9.472656 0 C 9.324219 0 9.25 0.0742188 9.25 0.222656 L 9.25 24.902344 C 9.398438 24.941406 9.332031 25 9.441406 25 L 16.222656 25 L 16.160156 25 C 16.492188 25 16.417969 24.625 16.417969 24.296875 L 19.023438 22.414062 C 19.039062 22.828125 19.15625 23.847656 19.457031 23.847656 L 19.488281 23.847656 C 19.574219 23.847656 19.710938 23.699219 19.777344 23.65625 C 20.007812 23.828125 20.445312 25 20.703125 25 L 25.503906 25 C 25.84375 25 25.726562 24.222656 25.726562 23.878906 C 25.726562 23.429688 25.726562 22.984375 25.726562 22.535156 C 26.238281 22.78125 26.046875 21.519531 26.148438 21.101562 C 26.226562 20.792969 26.625 19.898438 26.589844 19.621094 L 26.550781 19.304688 L 26.496094 19.300781 C 26.496094 19.027344 26.289062 18.835938 26.175781 18.660156 L 26.25 18.246094 C 26.304688 17.796875 25.757812 17.011719 25.757812 16.710938 L 25.757812 16.550781 C 25.757812 16.152344 26.175781 15.675781 26.339844 15.371094 C 26.460938 15.152344 26.425781 14.828125 26.550781 14.683594 C 26.6875 14.523438 26.78125 14.335938 26.78125 14.050781 L 26.878906 14.050781 C 27.074219 14.050781 27.566406 14.566406 27.703125 14.699219 C 27.847656 14.847656 28.242188 15.523438 28.351562 15.523438 L 28.382812 15.523438 C 28.53125 15.523438 28.605469 15.449219 28.605469 15.300781 L 28.605469 15.269531 C 28.605469 15.148438 28.160156 14.425781 28.074219 14.296875 C 27.960938 14.125 27.363281 13.527344 27.359375 13.507812 C 27.769531 13.605469 28.804688 14.40625 28.957031 14.40625 L 28.988281 14.40625 C 29.066406 14.40625 29.183594 14.289062 29.183594 14.210938 C 29.183594 13.804688 27.976562 13.203125 27.839844 12.996094 C 28.175781 13.074219 29.257812 13.828125 29.375 13.828125 C 29.480469 13.828125 29.597656 13.710938 29.597656 13.605469 C 29.597656 13.21875 28.164062 12.519531 27.773438 12.355469 C 27.472656 12.230469 26.914062 12.089844 26.582031 12.011719 C 26.234375 11.925781 26.050781 11.503906 25.726562 11.332031 C 25.726562 9.398438 25.726562 7.46875 25.726562 5.539062 C 25.726562 4.566406 25.726562 3.597656 25.726562 2.625 C 25.726562 2.144531 25.726562 1.664062 25.726562 1.183594 C 25.726562 0.796875 25.867188 0 25.46875 0 L 18.753906 0 C 18.648438 0 18.558594 0.140625 18.558594 0.257812 Z M 18.558594 4.320312 "/>
<path style=" stroke:none;fill-rule:evenodd;fill:rgb(99.215686%,99.215686%,99.215686%);fill-opacity:1;" d="M 12.800781 11.394531 L 12.800781 12.675781 L 13.382812 12.320312 Z M 12.800781 11.394531 "/>
<path style=" stroke:none;fill-rule:evenodd;fill:rgb(99.215686%,99.215686%,99.215686%);fill-opacity:1;" d="M 24.957031 12.195312 L 24.957031 13.125 C 24.957031 13.40625 25.332031 13.597656 25.527344 13.707031 C 25.65625 13.78125 25.796875 13.816406 25.925781 13.886719 C 26.109375 13.988281 26.132812 14.054688 26.269531 14.148438 C 26.308594 14.066406 26.367188 13.914062 26.367188 13.796875 L 26.367188 13.765625 C 26.367188 13.617188 26.273438 13.699219 26.175781 13.699219 L 26.140625 13.699219 C 26.042969 13.699219 26.015625 13.605469 26.015625 13.507812 L 26.015625 13.414062 C 26.015625 13.34375 26.144531 13.21875 26.175781 13.21875 C 26.308594 13.21875 26.199219 13.300781 26.398438 13.316406 L 26.398438 13.15625 C 26.398438 13.085938 26.371094 13.085938 26.335938 13.035156 L 25.980469 13.09375 C 25.945312 12.957031 25.917969 13.035156 25.917969 12.933594 L 25.917969 12.898438 C 25.917969 12.8125 26.054688 12.675781 26.140625 12.675781 L 26.269531 12.675781 C 26.246094 12.386719 25.886719 12.53125 25.886719 12.226562 L 25.886719 12.101562 C 25.542969 12.101562 25.507812 11.84375 25.183594 11.84375 L 25.085938 11.84375 C 25.054688 11.984375 24.957031 12.0625 24.957031 12.195312 Z M 24.957031 12.195312 "/>
<path style=" stroke:none;fill-rule:evenodd;fill:rgb(99.215686%,99.215686%,99.215686%);fill-opacity:1;" d="M 20.992188 12.515625 C 21.316406 12.488281 22.683594 11.90625 22.847656 11.90625 C 22.921875 11.90625 22.882812 11.917969 22.976562 11.941406 C 22.984375 12.039062 23.007812 12.054688 23.007812 12.164062 L 23.007812 12.226562 C 23.007812 12.375 22.332031 12.421875 22.148438 12.457031 C 22.003906 12.488281 21.492188 12.6875 21.332031 12.761719 C 20.511719 13.140625 20.289062 12.816406 20.289062 13.957031 C 20.699219 13.738281 21.101562 13.480469 21.503906 13.285156 C 21.6875 13.191406 21.949219 13.0625 22.136719 12.957031 C 22.28125 12.875 22.320312 12.902344 22.441406 12.78125 C 22.496094 12.722656 22.632812 12.582031 22.71875 12.582031 L 22.75 12.582031 C 22.84375 12.582031 22.910156 12.691406 22.910156 12.773438 C 22.910156 13.023438 22.519531 13.09375 22.320312 13.207031 C 22.105469 13.328125 21.867188 13.441406 21.640625 13.550781 C 21.46875 13.636719 20.351562 14.242188 20.351562 14.339844 C 20.351562 14.523438 20.621094 14.871094 20.734375 14.949219 C 20.96875 14.792969 22.636719 13.253906 22.65625 13.253906 C 22.734375 13.253906 22.878906 13.398438 22.878906 13.476562 L 22.878906 13.539062 C 22.878906 13.695312 22.746094 13.597656 22.601562 13.679688 C 22.519531 13.726562 22.410156 13.808594 22.335938 13.859375 C 22.214844 13.945312 21.96875 14.144531 21.863281 14.253906 C 21.632812 14.484375 21.191406 14.894531 21.023438 15.140625 C 21.109375 15.269531 21.292969 15.300781 21.503906 15.300781 C 22.113281 15.300781 22.703125 14.65625 23 14.300781 C 23.308594 13.929688 23.253906 13.976562 23.734375 13.789062 C 24.152344 13.621094 24.253906 13.566406 24.609375 13.382812 L 24.703125 12.707031 L 24.703125 12.386719 C 24.703125 12.144531 24.609375 12.101562 24.605469 11.90625 C 24.496094 11.882812 24.5 11.84375 24.382812 11.84375 L 24.285156 11.84375 C 24.125 11.84375 23.929688 12.261719 23.742188 12.261719 L 23.648438 12.261719 C 23.546875 12.261719 23.359375 12.070312 23.359375 11.972656 L 23.359375 11.941406 C 23.359375 11.628906 24.519531 11.4375 24.894531 11.425781 L 24.894531 11.363281 C 24.542969 11.28125 24.4375 11.074219 23.871094 11.074219 L 23.613281 11.074219 C 22.804688 11.074219 21.324219 12.0625 20.992188 12.515625 Z M 20.992188 12.515625 "/>
<path style=" stroke:none;fill-rule:evenodd;fill:rgb(99.215686%,99.215686%,99.215686%);fill-opacity:1;" d="M 23.453125 14.308594 L 23.453125 14.371094 C 23.453125 14.78125 23.9375 15.425781 24.195312 15.492188 L 24.160156 15.203125 L 24.160156 15.171875 L 24.253906 14.179688 C 24.183594 14.074219 24.113281 14.019531 23.933594 14.019531 L 23.773438 14.019531 C 23.613281 14.019531 23.453125 14.136719 23.453125 14.308594 Z M 23.453125 14.308594 "/>
<path style=" stroke:none;fill-rule:evenodd;fill:rgb(99.215686%,99.215686%,99.215686%);fill-opacity:1;" d="M 25.4375 14.210938 L 25.4375 14.4375 C 25.4375 14.726562 25.597656 14.890625 25.597656 15.140625 L 25.597656 15.238281 C 25.597656 15.324219 25.582031 15.324219 25.566406 15.398438 C 25.816406 15.230469 26.046875 14.886719 26.046875 14.46875 L 26.046875 14.371094 C 26.046875 14.171875 25.859375 14.019531 25.664062 14.019531 C 25.570312 14.019531 25.4375 14.121094 25.4375 14.210938 Z M 25.4375 14.210938 "/>
<path style=" stroke:none;fill-rule:evenodd;fill:rgb(99.215686%,99.215686%,99.215686%);fill-opacity:1;" d="M 25.183594 18.535156 C 25.304688 18.566406 25.347656 18.628906 25.535156 18.628906 C 25.621094 18.628906 25.621094 18.613281 25.6875 18.597656 L 25.726562 18.085938 C 25.742188 17.921875 25.664062 17.542969 25.535156 17.542969 L 25.503906 17.542969 C 25.335938 17.542969 25.390625 17.835938 25.332031 18.011719 C 25.273438 18.179688 25.222656 18.363281 25.183594 18.535156 Z M 25.183594 18.535156 "/>
<path style=" stroke:none;fill-rule:evenodd;fill:rgb(99.215686%,99.215686%,99.215686%);fill-opacity:1;" d="M 23.453125 18.085938 L 23.453125 18.277344 C 23.453125 18.40625 23.539062 18.640625 23.582031 18.722656 L 24 18.757812 L 24.03125 18.757812 C 24.148438 18.757812 24.175781 18.726562 24.222656 18.660156 C 23.96875 18.28125 23.925781 18.078125 23.808594 17.574219 C 23.582031 17.578125 23.453125 17.863281 23.453125 18.085938 Z M 23.453125 18.085938 "/>
<path style=" stroke:none;fill-rule:evenodd;fill:rgb(99.215686%,99.215686%,99.215686%);fill-opacity:1;" d="M 15.457031 11.460938 L 15.484375 11.765625 L 14.582031 11.976562 L 14.652344 12.183594 L 11.265625 14.050781 L 11.300781 14.046875 L 11.328125 14.5 C 11.789062 14.5 12.445312 14.625 12.863281 14.628906 C 13.355469 14.632812 13.140625 14.671875 13.5625 14.558594 C 13.792969 14.496094 13.953125 14.40625 14.273438 14.40625 C 13.992188 14.828125 13.3125 15.140625 13.3125 15.8125 C 13.3125 15.890625 15.078125 18.832031 15.277344 19.160156 C 15.480469 19.492188 16.195312 20.523438 16.191406 20.902344 C 16.1875 21.796875 16.191406 22.695312 16.191406 23.589844 C 16.640625 23.292969 19.585938 21.132812 19.839844 21.125 C 19.839844 21.367188 19.679688 21.859375 19.679688 22.023438 L 19.679688 22.40625 C 19.679688 22.558594 19.714844 22.636719 19.742188 22.757812 C 20.246094 22.421875 22.015625 20.839844 22.625 20.839844 C 22.710938 20.839844 22.710938 20.855469 22.78125 20.871094 C 22.777344 21.109375 22.625 21.339844 22.625 21.671875 L 22.625 21.960938 C 22.957031 21.882812 23.414062 21.0625 24.191406 21.0625 L 25.023438 21.0625 C 25.191406 21.0625 25.4375 21.433594 25.535156 21.542969 C 25.535156 21.058594 25.542969 20.914062 25.695312 20.582031 C 25.789062 20.371094 25.949219 19.980469 25.949219 19.6875 C 25.949219 19.355469 25.773438 18.980469 25.4375 18.980469 L 25.085938 18.96875 L 24.292969 19.0625 L 23.566406 19.339844 L 23.550781 19.300781 C 23.550781 18.902344 23.714844 19.058594 23.277344 18.9375 C 22.992188 18.859375 22.953125 18.871094 22.714844 18.761719 C 22.367188 18.605469 22.082031 18.460938 21.832031 18.207031 C 21.433594 17.804688 20.925781 16.988281 20.925781 16.230469 C 20.925781 16.054688 21.023438 15.894531 21.023438 15.683594 L 21.023438 15.621094 C 21.023438 15.511719 20.839844 15.460938 20.734375 15.460938 C 20.660156 15.460938 19.570312 16.746094 19.433594 16.910156 C 19.246094 17.128906 18.300781 18.40625 18.207031 18.46875 C 18.25 18.285156 19.09375 17.042969 19.257812 16.800781 C 19.4375 16.527344 19.632812 16.253906 19.832031 15.996094 C 20.019531 15.75 20.296875 15.464844 20.4375 15.242188 L 19.96875 14.621094 L 20 14.597656 C 19.636719 14.605469 18.691406 15.535156 18.398438 15.75 C 18.199219 15.894531 17.898438 16.234375 17.703125 16.429688 C 17.539062 16.59375 17.167969 17.027344 17.023438 17.125 C 17.175781 16.550781 19.316406 14.648438 19.855469 14.277344 L 19.9375 13.347656 C 19.734375 13.363281 19.007812 13.71875 18.839844 13.820312 C 18.488281 14.042969 18.238281 14.210938 17.90625 14.457031 C 17.621094 14.664062 17.308594 14.929688 17.046875 15.164062 C 16.828125 15.363281 16.441406 15.761719 16.222656 15.910156 C 16.300781 15.621094 17.203125 14.777344 17.449219 14.539062 C 17.777344 14.226562 18.582031 13.691406 19.007812 13.476562 C 19.289062 13.335938 19.578125 13.160156 19.871094 13.027344 C 20.199219 12.882812 20.296875 12.652344 20.550781 12.394531 C 20.800781 12.148438 20.972656 12.003906 21.261719 11.792969 C 21.414062 11.679688 21.984375 11.355469 22.046875 11.269531 C 21.5625 11.269531 21.25 11.210938 20.929688 11.394531 C 20.753906 11.496094 20.335938 11.875 20.128906 11.875 L 20.0625 11.875 C 19.878906 11.875 19.808594 11.707031 19.675781 11.605469 L 17.953125 12.066406 C 17.914062 11.933594 17.886719 12.011719 17.886719 11.90625 L 17.886719 11.8125 C 18.066406 11.765625 18.71875 11.445312 18.921875 11.34375 C 19.234375 11.183594 19.632812 10.976562 19.941406 10.855469 C 20.527344 10.625 22.046875 10.753906 22.847656 10.753906 C 22.824219 10.722656 20.84375 10.117188 20.703125 10.117188 C 20.457031 10.117188 18.378906 10.667969 18.066406 10.777344 C 17.695312 10.902344 17.175781 11.023438 16.78125 11.121094 C 16.320312 11.234375 15.902344 11.355469 15.457031 11.460938 Z M 15.457031 11.460938 "/>
<path style=" stroke:none;fill-rule:evenodd;fill:rgb(99.215686%,99.215686%,99.215686%);fill-opacity:1;" d="M 20.609375 23.046875 L 21.886719 22.023438 C 21.886719 22.601562 21.976562 23.03125 22.304688 23.269531 C 22.910156 22.867188 23.464844 21.671875 24.511719 21.671875 C 24.621094 21.671875 24.632812 21.695312 24.734375 21.703125 L 24.734375 23.976562 L 21.214844 23.976562 C 21.109375 23.976562 20.675781 23.175781 20.609375 23.046875 Z M 22.335938 22.792969 L 22.175781 21.480469 C 22.007812 21.566406 20.160156 23.066406 20.160156 23.078125 C 20.160156 23.164062 20.890625 24.390625 20.960938 24.390625 L 25.152344 24.390625 L 25.152344 21.734375 C 25.152344 21.589844 24.730469 21.382812 24.542969 21.382812 L 24.414062 21.382812 C 23.402344 21.382812 22.542969 22.734375 22.335938 22.792969 Z M 22.335938 22.792969 "/>
<path style=" stroke:none;fill-rule:evenodd;fill:rgb(32.156863%,9.803922%,45.098039%);fill-opacity:1;" d="M 20.609375 23.046875 C 20.675781 23.175781 21.109375 23.976562 21.214844 23.976562 L 24.734375 23.976562 L 24.734375 21.703125 C 24.632812 21.695312 24.621094 21.671875 24.511719 21.671875 C 23.464844 21.671875 22.910156 22.867188 22.304688 23.269531 C 21.976562 23.03125 21.886719 22.601562 21.886719 22.023438 Z M 20.609375 23.046875 "/>
<path style=" stroke:none;fill-rule:evenodd;fill:rgb(99.215686%,99.215686%,99.215686%);fill-opacity:1;" d="M 10.242188 0.992188 L 13.824219 0.992188 L 18.933594 9.71875 L 14.566406 10.933594 L 14.5625 11.011719 C 14.5625 11.121094 14.585938 11.136719 14.59375 11.234375 L 13.792969 11.496094 L 12.007812 8.445312 L 12 12.738281 L 10.375 13.804688 C 10.421875 13.875 10.722656 14.28125 10.722656 14.339844 C 10.722656 14.535156 10.5625 14.761719 10.5625 15.011719 L 12 15.1875 C 12.035156 15.300781 13.535156 17.828125 13.707031 18.078125 C 13.894531 18.347656 15.394531 20.832031 15.394531 20.964844 L 15.394531 23.976562 L 10.242188 23.976562 Z M 9.824219 24.390625 L 15.808594 24.390625 L 15.808594 20.839844 C 15.808594 20.6875 14.316406 18.234375 14.121094 17.917969 C 13.890625 17.550781 12.46875 15.234375 12.417969 15.019531 L 10.976562 14.789062 C 10.980469 14.628906 11.101562 14.386719 11.0625 14.257812 C 11.027344 14.128906 10.832031 14.019531 10.824219 13.835938 L 12.417969 12.933594 L 12.433594 10.007812 L 13.730469 12.164062 L 14.144531 11.90625 C 14.070312 11.59375 14.019531 11.703125 14.375 11.59375 C 14.550781 11.539062 14.75 11.515625 14.886719 11.425781 L 14.851562 11.113281 L 19.519531 9.890625 C 18.679688 8.304688 17.644531 6.792969 16.78125 5.207031 C 16.34375 4.410156 15.84375 3.671875 15.402344 2.871094 C 15.265625 2.617188 14.101562 0.578125 13.984375 0.578125 L 9.824219 0.578125 Z M 9.824219 24.390625 "/>
<path style=" stroke:none;fill-rule:evenodd;fill:rgb(3.137255%,3.137255%,2.745098%);fill-opacity:1;" d="M 22.335938 22.792969 C 22.542969 22.734375 23.402344 21.382812 24.414062 21.382812 L 24.542969 21.382812 C 24.730469 21.382812 25.152344 21.589844 25.152344 21.734375 L 25.152344 24.390625 L 20.960938 24.390625 C 20.890625 24.390625 20.160156 23.164062 20.160156 23.078125 C 20.160156 23.066406 22.011719 21.566406 22.175781 21.480469 Z M 23.453125 18.085938 C 23.453125 17.863281 23.582031 17.578125 23.808594 17.574219 C 23.925781 18.078125 23.96875 18.28125 24.222656 18.660156 C 24.175781 18.726562 24.148438 18.757812 24.03125 18.757812 L 24 18.757812 L 23.582031 18.722656 C 23.539062 18.640625 23.453125 18.40625 23.453125 18.277344 Z M 25.183594 18.535156 C 25.222656 18.363281 25.273438 18.179688 25.332031 18.011719 C 25.390625 17.835938 25.335938 17.542969 25.503906 17.542969 L 25.535156 17.542969 C 25.664062 17.542969 25.742188 17.921875 25.726562 18.085938 L 25.6875 18.597656 C 25.621094 18.613281 25.621094 18.628906 25.535156 18.628906 C 25.347656 18.628906 25.304688 18.566406 25.183594 18.535156 Z M 25.4375 14.210938 C 25.4375 14.121094 25.570312 14.019531 25.664062 14.019531 C 25.859375 14.019531 26.046875 14.171875 26.046875 14.371094 L 26.046875 14.46875 C 26.046875 14.886719 25.816406 15.230469 25.566406 15.398438 C 25.582031 15.324219 25.597656 15.324219 25.597656 15.238281 L 25.597656 15.140625 C 25.597656 14.890625 25.4375 14.726562 25.4375 14.4375 Z M 23.453125 14.308594 C 23.453125 14.136719 23.613281 14.019531 23.773438 14.019531 L 23.933594 14.019531 C 24.113281 14.019531 24.183594 14.074219 24.253906 14.179688 L 24.160156 15.171875 L 24.160156 15.203125 L 24.195312 15.492188 C 23.9375 15.425781 23.453125 14.78125 23.453125 14.371094 Z M 24.957031 12.195312 C 24.957031 12.0625 25.054688 11.984375 25.085938 11.84375 L 25.183594 11.84375 C 25.507812 11.84375 25.542969 12.101562 25.886719 12.101562 L 25.886719 12.226562 C 25.886719 12.53125 26.246094 12.386719 26.269531 12.675781 L 26.140625 12.675781 C 26.054688 12.675781 25.917969 12.8125 25.917969 12.898438 L 25.917969 12.933594 C 25.917969 13.035156 25.945312 12.957031 25.984375 13.09375 L 26.335938 13.035156 C 26.375 13.085938 26.398438 13.085938 26.398438 13.15625 L 26.398438 13.316406 C 26.199219 13.300781 26.308594 13.21875 26.175781 13.21875 C 26.144531 13.21875 26.015625 13.34375 26.015625 13.414062 L 26.015625 13.507812 C 26.015625 13.605469 26.042969 13.699219 26.140625 13.699219 L 26.175781 13.699219 C 26.273438 13.699219 26.367188 13.617188 26.367188 13.765625 L 26.367188 13.796875 C 26.367188 13.914062 26.308594 14.066406 26.269531 14.148438 C 26.132812 14.054688 26.109375 13.988281 25.925781 13.886719 C 25.796875 13.816406 25.65625 13.777344 25.527344 13.707031 C 25.332031 13.597656 24.957031 13.40625 24.957031 13.125 Z M 12.800781 11.394531 L 13.382812 12.320312 L 12.800781 12.675781 Z M 20.992188 12.515625 C 21.324219 12.0625 22.804688 11.074219 23.613281 11.074219 L 23.871094 11.074219 C 24.4375 11.074219 24.542969 11.28125 24.894531 11.363281 L 24.894531 11.425781 C 24.519531 11.4375 23.359375 11.628906 23.359375 11.941406 L 23.359375 11.972656 C 23.359375 12.070312 23.546875 12.261719 23.648438 12.261719 L 23.742188 12.261719 C 23.929688 12.261719 24.125 11.84375 24.285156 11.84375 L 24.382812 11.84375 C 24.5 11.84375 24.496094 11.882812 24.605469 11.90625 C 24.609375 12.101562 24.703125 12.144531 24.703125 12.386719 L 24.703125 12.707031 L 24.609375 13.382812 C 24.253906 13.566406 24.152344 13.621094 23.734375 13.785156 C 23.253906 13.976562 23.308594 13.929688 23 14.300781 C 22.703125 14.65625 22.113281 15.300781 21.503906 15.300781 C 21.292969 15.300781 21.109375 15.269531 21.023438 15.140625 C 21.191406 14.890625 21.632812 14.484375 21.863281 14.253906 C 21.96875 14.144531 22.214844 13.945312 22.335938 13.859375 C 22.410156 13.808594 22.519531 13.726562 22.601562 13.679688 C 22.746094 13.597656 22.878906 13.695312 22.878906 13.539062 L 22.878906 13.476562 C 22.878906 13.398438 22.734375 13.253906 22.65625 13.253906 C 22.636719 13.253906 20.96875 14.792969 20.734375 14.949219 C 20.621094 14.871094 20.351562 14.523438 20.351562 14.339844 C 20.351562 14.242188 21.46875 13.636719 21.640625 13.550781 C 21.867188 13.441406 22.105469 13.328125 22.320312 13.207031 C 22.519531 13.09375 22.910156 13.023438 22.910156 12.773438 C 22.910156 12.691406 22.84375 12.578125 22.75 12.578125 L 22.71875 12.578125 C 22.632812 12.578125 22.496094 12.722656 22.441406 12.78125 C 22.320312 12.902344 22.28125 12.875 22.136719 12.957031 C 21.949219 13.0625 21.6875 13.191406 21.503906 13.285156 C 21.101562 13.480469 20.699219 13.738281 20.289062 13.957031 C 20.289062 12.816406 20.511719 13.140625 21.332031 12.761719 C 21.492188 12.6875 22.003906 12.488281 22.148438 12.457031 C 22.332031 12.421875 23.007812 12.375 23.007812 12.226562 L 23.007812 12.164062 C 23.007812 12.054688 22.984375 12.039062 22.976562 11.941406 C 22.882812 11.917969 22.921875 11.90625 22.847656 11.90625 C 22.683594 11.90625 21.316406 12.488281 20.992188 12.515625 Z M 15.457031 11.460938 C 15.902344 11.355469 16.320312 11.234375 16.78125 11.121094 C 17.175781 11.023438 17.695312 10.902344 18.066406 10.777344 C 18.378906 10.667969 20.457031 10.113281 20.703125 10.113281 C 20.84375 10.113281 22.824219 10.722656 22.847656 10.753906 C 22.046875 10.753906 20.527344 10.625 19.941406 10.855469 C 19.632812 10.976562 19.234375 11.183594 18.921875 11.34375 C 18.71875 11.445312 18.066406 11.765625 17.886719 11.8125 L 17.886719 11.90625 C 17.886719 12.011719 17.914062 11.933594 17.953125 12.066406 L 19.675781 11.605469 C 19.808594 11.707031 19.878906 11.875 20.0625 11.875 L 20.128906 11.875 C 20.335938 11.875 20.753906 11.496094 20.929688 11.394531 C 21.25 11.210938 21.5625 11.265625 22.046875 11.265625 C 21.984375 11.355469 21.414062 11.679688 21.261719 11.792969 C 20.972656 12.003906 20.800781 12.148438 20.550781 12.394531 C 20.296875 12.652344 20.199219 12.882812 19.871094 13.027344 C 19.578125 13.160156 19.289062 13.335938 19.007812 13.476562 C 18.582031 13.691406 17.777344 14.226562 17.449219 14.539062 C 17.203125 14.777344 16.300781 15.621094 16.222656 15.910156 C 16.441406 15.761719 16.828125 15.363281 17.046875 15.164062 C 17.308594 14.929688 17.621094 14.664062 17.90625 14.457031 C 18.238281 14.210938 18.488281 14.042969 18.839844 13.820312 C 19.007812 13.71875 19.734375 13.363281 19.9375 13.347656 L 19.855469 14.277344 C 19.316406 14.648438 17.175781 16.550781 17.023438 17.125 C 17.167969 17.027344 17.539062 16.59375 17.703125 16.429688 C 17.898438 16.234375 18.199219 15.894531 18.398438 15.75 C 18.691406 15.535156 19.636719 14.605469 20 14.597656 L 19.96875 14.621094 L 20.4375 15.242188 C 20.292969 15.464844 20.019531 15.75 19.832031 15.996094 C 19.632812 16.253906 19.4375 16.527344 19.257812 16.800781 C 19.09375 17.042969 18.25 18.285156 18.207031 18.46875 C 18.300781 18.40625 19.246094 17.128906 19.433594 16.910156 C 19.570312 16.746094 20.660156 15.460938 20.734375 15.460938 C 20.839844 15.460938 21.023438 15.511719 21.023438 15.621094 L 21.023438 15.683594 C 21.023438 15.894531 20.925781 16.054688 20.925781 16.230469 C 20.925781 16.988281 21.433594 17.804688 21.832031 18.207031 C 22.082031 18.460938 22.367188 18.605469 22.714844 18.761719 C 22.953125 18.871094 22.992188 18.859375 23.277344 18.9375 C 23.714844 19.058594 23.550781 18.902344 23.550781 19.300781 L 23.566406 19.339844 L 24.292969 19.0625 L 25.085938 18.96875 L 25.4375 18.980469 C 25.773438 18.980469 25.949219 19.355469 25.949219 19.6875 C 25.949219 19.980469 25.789062 20.371094 25.695312 20.582031 C 25.542969 20.914062 25.535156 21.058594 25.535156 21.542969 C 25.4375 21.433594 25.191406 21.0625 25.023438 21.0625 L 24.191406 21.0625 C 23.414062 21.0625 22.957031 21.882812 22.625 21.960938 L 22.625 21.671875 C 22.625 21.339844 22.777344 21.109375 22.78125 20.871094 C 22.710938 20.855469 22.710938 20.839844 22.625 20.839844 C 22.015625 20.839844 20.246094 22.421875 19.742188 22.757812 C 19.714844 22.636719 19.679688 22.558594 19.679688 22.40625 L 19.679688 22.023438 C 19.679688 21.859375 19.839844 21.367188 19.839844 21.125 C 19.585938 21.132812 16.640625 23.292969 16.191406 23.589844 C 16.191406 22.695312 16.1875 21.796875 16.191406 20.902344 C 16.195312 20.523438 15.480469 19.492188 15.277344 19.160156 C 15.078125 18.832031 13.3125 15.890625 13.3125 15.8125 C 13.3125 15.140625 13.992188 14.828125 14.273438 14.40625 C 13.953125 14.40625 13.792969 14.496094 13.5625 14.558594 C 13.140625 14.671875 13.355469 14.632812 12.863281 14.628906 C 12.445312 14.625 11.789062 14.5 11.328125 14.5 L 11.300781 14.046875 L 11.265625 14.050781 L 14.652344 12.183594 L 14.582031 11.976562 L 15.484375 11.765625 Z M 9.824219 0.574219 L 13.984375 0.574219 C 14.101562 0.574219 15.265625 2.617188 15.402344 2.871094 C 15.84375 3.671875 16.34375 4.410156 16.777344 5.207031 C 17.644531 6.792969 18.679688 8.304688 19.519531 9.890625 L 14.851562 11.113281 L 14.886719 11.425781 C 14.75 11.515625 14.550781 11.539062 14.375 11.59375 C 14.019531 11.703125 14.070312 11.59375 14.144531 11.90625 L 13.730469 12.164062 L 12.433594 10.007812 L 12.417969 12.933594 L 10.824219 13.835938 C 10.832031 14.019531 11.027344 14.128906 11.0625 14.257812 C 11.101562 14.386719 10.980469 14.628906 10.976562 14.789062 L 12.417969 15.019531 C 12.46875 15.234375 13.890625 17.550781 14.121094 17.917969 C 14.316406 18.234375 15.808594 20.6875 15.808594 20.839844 L 15.808594 24.390625 L 9.824219 24.390625 Z M 19.136719 0.574219 L 25.152344 0.574219 L 25.152344 11.109375 C 25.136719 11.101562 24.632812 10.847656 24.554688 10.808594 C 24.351562 10.707031 24.140625 10.65625 23.925781 10.574219 C 23.703125 10.484375 22.785156 10.199219 22.558594 10.179688 L 22.558594 9.957031 C 22.558594 9.796875 19.136719 4.347656 19.136719 4.160156 Z M 18.785156 4.226562 C 18.785156 4.367188 20.265625 6.804688 20.460938 7.125 C 20.691406 7.503906 22.09375 9.773438 22.144531 9.988281 C 21.703125 9.976562 21.046875 9.636719 20.640625 9.636719 L 20.574219 9.636719 C 20.367188 9.636719 20.089844 9.777344 19.871094 9.796875 L 14.257812 0.234375 L 9.441406 0.222656 L 9.441406 24.777344 L 16.191406 24.777344 L 16.191406 24.167969 L 19.253906 21.980469 L 19.265625 22.4375 L 19.230469 22.445312 L 19.429688 23.597656 L 19.472656 23.613281 L 19.839844 23.335938 C 20.046875 23.484375 20.609375 24.777344 20.765625 24.777344 L 25.503906 24.777344 L 25.503906 22.152344 L 25.847656 22.351562 C 25.855469 21.824219 25.886719 21.296875 25.984375 20.871094 C 26.066406 20.519531 26.367188 20.070312 26.367188 19.652344 C 26.367188 19.132812 25.949219 18.859375 25.949219 18.660156 C 25.949219 18.523438 26.015625 18.546875 26.015625 18.40625 L 26.015625 18.148438 C 26.015625 17.660156 25.535156 17.066406 25.535156 16.710938 L 25.535156 16.515625 C 25.535156 16.066406 26.039062 15.554688 26.183594 15.183594 C 26.332031 14.808594 26.152344 14.808594 26.453125 14.460938 C 26.601562 14.289062 26.527344 13.796875 26.75 13.796875 C 26.996094 13.796875 27.480469 14.15625 27.621094 14.300781 C 27.753906 14.433594 28.21875 15.019531 28.253906 15.042969 C 28.195312 14.800781 27.761719 14.214844 27.589844 14.042969 C 27.417969 13.875 27.335938 13.808594 27.144531 13.660156 C 27.03125 13.574219 26.652344 13.441406 26.652344 13.347656 L 26.652344 13.1875 C 26.652344 13.136719 26.671875 13.09375 26.71875 13.09375 C 27.355469 13.09375 28.46875 13.863281 28.894531 14.148438 C 28.824219 13.890625 28.023438 13.433594 27.78125 13.242188 C 27.367188 12.917969 26.632812 13.109375 26.496094 12.515625 L 26.71875 12.515625 C 27.1875 12.515625 27.792969 12.714844 28.117188 12.878906 C 28.328125 12.988281 29.148438 13.484375 29.246094 13.507812 C 29.082031 13.265625 28.285156 12.769531 27.953125 12.65625 C 27.59375 12.535156 26.703125 12.195312 26.300781 12.195312 C 26.152344 11.972656 25.785156 11.527344 25.503906 11.460938 L 25.503906 0.222656 L 18.785156 0.222656 Z M 18.785156 4.226562 "/>
</g>
</svg>
