<?xml version="1.0" encoding="UTF-8"?>
<svg xmlns="http://www.w3.org/2000/svg" xmlns:xlink="http://www.w3.org/1999/xlink" width="35pt" height="25pt" viewBox="0 0 35 25" version="1.1">
<g id="surface1">
<path style=" stroke:none;fill-rule:nonzero;fill:rgb(100%,100%,100%);fill-opacity:1;" d="M 31.324219 9.746094 L 31.335938 23.613281 L 27.195312 20.203125 L 22.421875 25 L 14.78125 24.992188 L 9.84375 20.046875 L 9.378906 20.375 L 9 21.332031 L 6.953125 22.957031 L 4.75 21.441406 L 4.75 10.542969 L 5.019531 10.394531 C 5.8125 9.964844 6.597656 9.5 7.425781 9.058594 C 8.171875 8.660156 8.953125 8.273438 9.796875 7.9375 L 9.804688 4.777344 L 14.582031 0 L 22.246094 0.00390625 L 27.171875 4.914062 L 27.171875 7.816406 C 28.515625 8.289062 30.113281 9.042969 31.324219 9.746094 Z M 31.324219 9.746094 "/>
<path style=" stroke:none;fill-rule:evenodd;fill:rgb(60%,0%,0%);fill-opacity:1;" d="M 25.394531 5.683594 L 25.394531 8.550781 C 24.320312 8.265625 23.203125 7.964844 22.066406 7.828125 L 22.066406 6.863281 L 20.140625 5.035156 L 16.644531 5.03125 L 14.820312 6.847656 L 14.820312 7.878906 C 13.71875 8.054688 12.632812 8.335938 11.578125 8.628906 C 11.578125 8.628906 11.589844 6.113281 11.566406 6.113281 L 11.574219 6.113281 C 11.5625 5.933594 11.578125 5.488281 11.578125 5.488281 L 15.3125 1.785156 L 21.5 1.785156 Z M 25.394531 5.683594 "/>
<path style=" stroke:none;fill-rule:evenodd;fill:rgb(60%,0%,0%);fill-opacity:1;" d="M 25.449219 17.355469 L 25.464844 19.417969 L 21.6875 23.1875 L 15.484375 23.179688 L 11.664062 19.367188 L 11.664062 17.464844 C 12.679688 16.9375 13.730469 16.539062 14.851562 16.25 L 14.863281 17.984375 L 16.800781 19.925781 L 20.3125 19.910156 L 22.101562 18.113281 L 22.09375 16.25 C 22.09375 16.25 24.359375 16.785156 25.449219 17.355469 Z M 25.449219 17.355469 "/>
<path style=" stroke:none;fill-rule:evenodd;fill:rgb(60%,60%,60%);fill-opacity:1;" d="M 21.644531 16.148438 L 21.644531 17.84375 L 20.09375 19.402344 L 17.085938 19.410156 L 15.429688 17.730469 L 15.429688 16.089844 L 16.164062 15.945312 L 16.164062 17.429688 L 17.367188 18.636719 L 19.710938 18.628906 L 20.921875 17.425781 L 20.921875 15.96875 C 21.160156 16.019531 21.644531 16.148438 21.644531 16.148438 Z M 21.644531 16.148438 "/>
<path style=" stroke:none;fill-rule:evenodd;fill:rgb(60%,60%,60%);fill-opacity:1;" d="M 22.207031 24.480469 L 14.996094 24.472656 L 10.363281 19.851562 L 10.363281 19.050781 C 10.363281 19.050781 9.636719 19.453125 9.261719 19.773438 L 9.261719 18.929688 C 9.84375 18.511719 10.5 18.082031 11.140625 17.738281 L 11.140625 19.53125 L 15.355469 23.738281 L 21.898438 23.730469 L 25.984375 19.632812 L 25.984375 17.625 C 26.527344 17.90625 27.023438 18.230469 27.523438 18.566406 L 27.523438 19.410156 C 27.523438 19.410156 26.953125 19.082031 26.683594 18.914062 L 26.679688 19.988281 Z M 22.207031 24.480469 "/>
<path style=" stroke:none;fill-rule:evenodd;fill:rgb(60%,60%,60%);fill-opacity:1;" d="M 26.652344 5.128906 L 26.652344 8.1875 C 28.089844 8.664062 29.472656 9.300781 30.757812 10.046875 L 30.757812 10.8125 C 29.246094 9.96875 27.617188 9.253906 25.929688 8.710938 L 25.929688 5.515625 L 21.675781 1.257812 L 15.113281 1.261719 L 11.058594 5.300781 L 11.070312 8.78125 C 9.574219 9.183594 6.921875 10.644531 5.269531 11.683594 L 5.269531 10.851562 C 6.847656 9.988281 8.414062 9.003906 10.3125 8.292969 L 10.320312 4.992188 L 14.796875 0.519531 L 22.03125 0.519531 Z M 26.652344 5.128906 "/>
<path style=" stroke:none;fill-rule:evenodd;fill:rgb(60%,60%,60%);fill-opacity:1;" d="M 21.558594 7.023438 L 21.558594 7.777344 L 20.851562 7.683594 L 20.851562 7.382812 L 19.625 6.304688 L 17.160156 6.3125 L 16.09375 7.394531 L 16.09375 7.714844 L 15.355469 7.800781 L 15.355469 7.035156 L 16.84375 5.554688 L 19.941406 5.554688 Z M 21.558594 7.023438 "/>
<path style=" stroke:none;fill-rule:evenodd;fill:rgb(13.72549%,12.156863%,12.54902%);fill-opacity:1;" d="M 27.1875 21.785156 C 27.460938 21.785156 27.679688 21.566406 27.679688 21.292969 C 27.679688 21.015625 27.460938 20.796875 27.1875 20.796875 C 26.910156 20.796875 26.691406 21.015625 26.691406 21.292969 C 26.691406 21.566406 26.910156 21.785156 27.1875 21.785156 Z M 27.1875 21.667969 C 26.972656 21.667969 26.808594 21.511719 26.808594 21.292969 C 26.808594 21.070312 26.972656 20.914062 27.1875 20.914062 C 27.398438 20.914062 27.5625 21.070312 27.5625 21.292969 C 27.5625 21.511719 27.398438 21.667969 27.1875 21.667969 Z M 27.300781 21.324219 C 27.390625 21.320312 27.4375 21.28125 27.4375 21.1875 C 27.4375 21.050781 27.359375 21.027344 27.238281 21.027344 L 26.988281 21.027344 L 26.988281 21.542969 L 27.105469 21.542969 L 27.105469 21.324219 L 27.183594 21.324219 L 27.300781 21.542969 L 27.425781 21.542969 Z M 27.105469 21.25 L 27.105469 21.117188 L 27.214844 21.117188 C 27.265625 21.117188 27.332031 21.117188 27.332031 21.171875 C 27.332031 21.234375 27.300781 21.25 27.242188 21.25 Z M 27.105469 21.25 "/>
<path style=" stroke:none;fill-rule:evenodd;fill:rgb(0%,0%,0%);fill-opacity:1;" d="M 11.371094 9.746094 L 11.371094 16.566406 L 11.164062 16.6875 L 11.171875 13.597656 C 10.769531 13.753906 10.3125 13.910156 9.933594 14.09375 L 9.933594 17.363281 L 9.703125 17.488281 L 9.707031 10.378906 L 9.929688 10.269531 L 9.925781 13.863281 C 10.332031 13.65625 10.765625 13.546875 11.171875 13.359375 L 11.171875 9.816406 Z M 11.832031 9.101562 L 11.828125 16.898438 C 11.449219 17.078125 11.089844 17.277344 10.734375 17.476562 L 10.746094 14.296875 C 10.644531 14.320312 10.5 14.386719 10.398438 14.429688 L 10.398438 17.648438 L 9.277344 18.378906 L 9.277344 10.039062 C 9.640625 9.878906 9.988281 9.714844 10.371094 9.589844 L 10.363281 13.195312 L 10.6875 13.078125 L 10.6875 9.472656 C 11.058594 9.347656 11.449219 9.203125 11.832031 9.101562 Z M 15.066406 9.46875 L 15.0625 14.550781 L 14.769531 14.617188 L 14.761719 9.539062 Z M 15.550781 9.296875 L 15.550781 14.753906 L 15.390625 15.003906 C 15.082031 15.078125 14.808594 15.144531 14.527344 15.203125 L 14.296875 15.011719 L 14.296875 9.429688 L 14.582031 9.082031 L 15.199219 8.972656 Z M 15.734375 9.234375 L 15.734375 14.753906 L 15.492188 15.144531 L 14.457031 15.398438 L 14.085938 15.074219 L 14.085938 9.382812 L 14.46875 8.929688 C 14.722656 8.871094 14.996094 8.832031 15.253906 8.789062 Z M 16.195312 9.007812 L 16.199219 14.882812 L 15.75 15.582031 C 15.253906 15.695312 14.753906 15.789062 14.269531 15.933594 L 13.640625 15.3125 L 13.640625 9.144531 L 14.289062 8.460938 L 15.398438 8.25 Z M 12.847656 9.304688 L 12.847656 15.894531 L 12.644531 15.976562 L 12.648438 9.367188 Z M 13.347656 8.679688 L 13.347656 16.242188 C 12.957031 16.382812 12.5 16.566406 12.125 16.738281 L 12.125 9 C 12.511719 8.902344 12.949219 8.761719 13.347656 8.679688 Z M 7.339844 12.957031 L 7.335938 19.875 L 6.988281 20.140625 L 6.980469 13.1875 Z M 8.039062 12.234375 L 8.039062 19.859375 L 7.808594 20.402344 C 7.476562 20.644531 7.1875 20.875 6.867188 21.125 L 6.257812 20.71875 L 6.257812 13.09375 L 6.542969 12.542969 L 7.6875 11.898438 Z M 8.269531 12.113281 C 8.273438 12.582031 8.265625 19.867188 8.265625 19.867188 L 7.96875 20.589844 C 7.582031 20.851562 7.246094 21.148438 6.886719 21.425781 L 6.011719 20.839844 L 6.015625 13.070312 L 6.371094 12.398438 L 7.746094 11.585938 Z M 8.953125 11.792969 L 8.953125 20.039062 L 8.566406 21.011719 C 7.984375 21.417969 7.449219 21.863281 6.929688 22.3125 L 5.269531 21.167969 L 5.261719 13.078125 L 5.941406 11.828125 L 7.890625 10.691406 Z M 30.097656 11.800781 L 30.097656 12.109375 C 29.660156 11.871094 29.285156 11.671875 28.804688 11.441406 L 28.804688 15.183594 C 29.242188 15.429688 29.691406 15.683594 30.128906 15.929688 L 30.128906 16.234375 C 29.6875 16.003906 29.265625 15.753906 28.804688 15.503906 L 28.804688 19.65625 C 29.269531 20.019531 29.695312 20.34375 30.128906 20.695312 L 30.128906 20.984375 C 29.613281 20.574219 29.042969 20.144531 28.503906 19.722656 L 28.503906 11.003906 C 29.054688 11.25 29.585938 11.523438 30.097656 11.800781 Z M 24.234375 9.988281 L 24.234375 12.800781 L 23.933594 12.722656 L 23.941406 9.917969 Z M 27.523438 10.316406 L 27.523438 10.519531 C 27.199219 10.390625 26.957031 10.296875 26.660156 10.191406 L 26.648438 16.96875 L 26.433594 16.851562 L 26.429688 10.117188 L 25.800781 9.917969 L 25.800781 9.703125 C 26.484375 9.917969 26.851562 10.058594 27.523438 10.316406 Z M 24.433594 9.507812 L 24.691406 9.933594 L 24.691406 13.402344 C 24.269531 13.273438 23.894531 13.140625 23.46875 13.027344 L 23.46875 9.609375 L 23.695312 9.332031 Z M 24.878906 9.839844 L 24.882812 16.09375 L 24.683594 16.007812 L 24.683594 13.621094 C 24.253906 13.472656 23.898438 13.367188 23.46875 13.242188 L 23.46875 15.582031 L 23.269531 15.53125 L 23.277344 9.558594 L 23.640625 9.101562 L 24.546875 9.324219 Z M 22.316406 8.84375 L 22.316406 9.023438 L 21.675781 8.9375 L 21.671875 15.117188 L 21.464844 15.074219 L 21.46875 8.917969 C 21.25 8.882812 20.972656 8.859375 20.753906 8.832031 L 20.765625 8.644531 C 21.277344 8.699219 21.808594 8.769531 22.316406 8.84375 Z M 20.3125 7.660156 L 20.3125 8.09375 L 22.820312 8.421875 L 22.816406 9.246094 L 23.503906 8.566406 C 23.941406 8.652344 24.371094 8.75 24.792969 8.875 C 24.960938 9.136719 25.113281 9.410156 25.304688 9.652344 C 25.304688 9.652344 25.3125 9.242188 25.3125 9.039062 C 27.234375 9.554688 29.113281 10.421875 30.757812 11.40625 L 30.761719 13.277344 C 30.34375 13.023438 29.953125 12.796875 29.492188 12.570312 L 29.484375 14.765625 C 29.6875 14.910156 30.59375 15.429688 30.800781 15.574219 L 30.800781 17.429688 C 30.363281 17.160156 29.976562 16.882812 29.519531 16.632812 C 29.519531 16.632812 29.507812 19.324219 29.511719 19.34375 C 29.976562 19.714844 30.371094 20.035156 30.800781 20.382812 L 30.800781 22.457031 C 30.800781 22.457031 28.882812 20.800781 27.832031 20.015625 L 27.824219 11.226562 C 27.601562 11.128906 27.355469 11.011719 27.117188 10.949219 L 27.125 17.773438 C 26.847656 17.59375 25.976562 17.101562 25.976562 17.101562 L 25.972656 10.488281 C 25.796875 10.40625 25.558594 10.367188 25.371094 10.304688 L 25.378906 16.8125 C 25.003906 16.644531 24.628906 16.515625 24.253906 16.359375 L 24.253906 14.035156 L 23.933594 13.945312 L 23.933594 16.230469 C 23.558594 16.125 23.128906 15.984375 22.75 15.890625 L 22.746094 9.667969 L 22.117188 9.558594 L 22.128906 15.734375 C 21.753906 15.671875 21.328125 15.539062 20.949219 15.464844 C 20.949219 15.464844 20.949219 13.421875 20.964844 12.355469 L 20.949219 12.335938 C 20.964844 11.339844 20.957031 9.410156 20.953125 9.375 C 20.769531 9.351562 20.539062 9.335938 20.347656 9.316406 L 20.351562 10.644531 L 18.714844 10.640625 L 18.71875 8.5 L 18.273438 8.507812 L 18.277344 11.566406 L 19.46875 11.5625 L 20.386719 12.441406 L 20.386719 17.335938 L 19.597656 18.152344 L 17.546875 18.15625 L 16.644531 17.257812 L 16.644531 14.144531 L 18.277344 14.144531 L 18.28125 16.441406 L 18.726562 16.441406 L 18.71875 13.257812 L 17.53125 13.257812 L 16.628906 12.371094 L 16.632812 7.636719 C 16.632812 7.636719 17.125 7.074219 17.410156 6.804688 C 18.089844 6.800781 18.769531 6.785156 19.453125 6.792969 Z M 17.734375 7.535156 L 19.109375 7.535156 L 19.625 8.0625 L 19.625 10.007812 L 19.339844 10.007812 L 19.339844 8.179688 L 18.980469 7.820312 L 17.863281 7.820312 L 17.5625 8.164062 L 17.5625 11.914062 L 17.949219 12.296875 L 19.152344 12.296875 L 19.679688 12.828125 L 19.679688 16.933594 L 19.152344 17.449219 L 17.820312 17.449219 L 17.320312 16.964844 L 17.320312 14.773438 L 17.621094 14.773438 L 17.621094 16.832031 L 17.949219 17.164062 L 19.039062 17.164062 L 19.394531 16.820312 L 19.394531 12.941406 L 19.039062 12.585938 L 17.835938 12.585938 L 17.277344 12.039062 L 17.277344 8.0625 Z M 17.734375 7.535156 "/>
</g>
</svg>
