<?xml version="1.0" encoding="UTF-8"?>
<svg xmlns="http://www.w3.org/2000/svg" xmlns:xlink="http://www.w3.org/1999/xlink" width="35pt" height="25pt" viewBox="0 0 35 25" version="1.1">
<g id="surface1">
<path style=" stroke:none;fill-rule:nonzero;fill:rgb(100%,100%,100%);fill-opacity:1;" d="M 31.246094 5.039062 C 33.839844 7.40625 35.5625 10.429688 34.84375 14.019531 C 33.863281 19.417969 28.082031 22.859375 23.207031 23.890625 C 19.136719 24.890625 14.363281 24.574219 10.457031 23.476562 C 6.53125 22.234375 2.089844 19.644531 0.460938 15.453125 C -0.839844 11.546875 0.792969 7.632812 3.839844 5.039062 C 8.074219 1.492188 13.261719 0.132812 19.035156 0.425781 C 23.574219 0.824219 27.753906 2.089844 31.246094 5.039062 "/>
<path style=" stroke:none;fill-rule:nonzero;fill:rgb(8.627451%,16.078431%,32.156863%);fill-opacity:1;" d="M 30.332031 4.941406 C 32.507812 6.683594 34.023438 8.90625 34.40625 11.496094 C 34.863281 15.503906 32.347656 18.902344 29.046875 20.953125 C 24.609375 23.648438 18.96875 24.546875 13.453125 23.589844 C 9.945312 22.984375 6.082031 20.632812 4.984375 16.976562 C 3.875 13.761719 4.683594 10.121094 7.042969 7.753906 C 8.511719 6.148438 10.28125 4.941406 12.054688 3.957031 L 11.855469 3.957031 C 8.839844 4.648438 6.015625 5.890625 3.800781 8.4375 C 1.734375 10.746094 1.535156 14.636719 2.757812 17.394531 C 3.007812 18.027344 3.410156 18.59375 3.757812 19.175781 C 1.300781 16.992188 -0.117188 13.886719 0.816406 10.582031 C 2.109375 5.707031 7.289062 2.757812 11.714844 1.601562 C 18.171875 0.0195312 25.234375 1.160156 30.332031 4.941406 "/>
<path style=" stroke:none;fill-rule:nonzero;fill:rgb(100%,100%,100%);fill-opacity:1;" d="M 17.796875 3.941406 C 20.152344 4.367188 22.386719 5.089844 24.574219 5.941406 C 25.28125 6.289062 25.597656 7.121094 26.207031 7.683594 C 28.023438 9.15625 30.257812 9.871094 31.746094 11.855469 C 32.28125 12.820312 31.734375 13.8125 31.171875 14.59375 C 30.066406 15.5625 28.773438 16.058594 27.550781 16.734375 C 26.339844 17.300781 25.132812 17.859375 23.890625 18.335938 C 23.800781 18.382812 23.917969 18.429688 23.976562 18.488281 L 24.050781 18.550781 C 25.800781 17.960938 27.539062 17.359375 29.246094 16.675781 C 29.074219 17.277344 28.746094 17.894531 28.476562 18.492188 C 28.082031 19.109375 27.765625 20.40625 25.75 20.148438 L 20.777344 19.375 C 18.386719 19.964844 16.078125 20.851562 13.4375 20.691406 C 12.488281 20.601562 11.605469 20.144531 11.054688 19.292969 C 10.707031 18.660156 10.488281 17.945312 10.554688 17.152344 C 10.679688 17.246094 10.773438 17.417969 10.882812 17.550781 C 13.230469 20.234375 17.394531 19.742188 20.550781 19.117188 C 22.726562 18.402344 24.832031 17.535156 26.832031 16.417969 C 27.605469 15.875 28.117188 15.09375 28.03125 14.136719 C 27.863281 12.171875 25.707031 11.003906 24.175781 10.28125 C 22.941406 9.847656 21.65625 9.472656 20.25 9.523438 L 23.351562 8.121094 C 23.566406 8.0625 23.667969 8.28125 23.75 8.421875 C 23.867188 8.730469 23.894531 9.121094 23.691406 9.394531 C 24.269531 9.535156 24.597656 9.613281 25.050781 9.722656 C 26.792969 10.328125 28.613281 11.1875 29.707031 12.894531 C 30.007812 13.445312 30.074219 14.152344 29.890625 14.777344 L 29.933594 14.835938 C 30.804688 14.535156 31.121094 13.78125 31.371094 12.878906 C 31.347656 11.84375 30.273438 11.238281 29.574219 10.621094 C 28.441406 9.78125 27.238281 9.113281 26.074219 8.355469 C 25.339844 7.921875 25.089844 6.972656 24.308594 6.65625 C 22.902344 6.207031 21.21875 6.472656 19.710938 6.539062 C 17.09375 6.824219 14.65625 7.53125 12.539062 9.023438 C 12.773438 7.121094 13.203125 5.265625 13.855469 3.523438 C 14.164062 2.816406 14.519531 1.925781 15.335938 1.640625 C 16.59375 1.683594 17.121094 3.117188 17.796875 3.941406 "/>
<path style=" stroke:none;fill-rule:nonzero;fill:rgb(8.627451%,16.078431%,32.156863%);fill-opacity:1;" d="M 16.851562 3.65625 C 16.910156 3.773438 17.027344 3.855469 17.011719 4 C 15.546875 4.609375 14.328125 6.164062 13.554688 7.480469 L 13.515625 7.480469 C 13.730469 5.921875 14.128906 4.449219 14.796875 3.082031 C 14.984375 2.824219 15.101562 2.46875 15.4375 2.339844 C 16.164062 2.390625 16.429688 3.199219 16.851562 3.65625 "/>
<path style=" stroke:none;fill-rule:nonzero;fill:rgb(8.627451%,16.078431%,32.156863%);fill-opacity:1;" d="M 32.214844 21.367188 C 32.269531 21.367188 32.332031 21.371094 32.398438 21.347656 C 32.515625 21.3125 32.566406 21.238281 32.550781 21.132812 C 32.539062 21 32.441406 20.964844 32.402344 20.964844 L 32.265625 20.964844 C 32.238281 20.964844 32.214844 20.980469 32.214844 21.023438 M 32.214844 21.765625 C 32.214844 21.828125 32.277344 21.839844 32.335938 21.839844 L 32.335938 21.886719 L 31.921875 21.886719 L 31.921875 21.839844 C 31.980469 21.839844 32.050781 21.820312 32.050781 21.769531 L 32.050781 21.027344 C 32.050781 20.953125 32.039062 20.953125 31.933594 20.953125 L 31.933594 20.90625 L 32.363281 20.90625 C 32.433594 20.90625 32.507812 20.90625 32.566406 20.929688 C 32.605469 20.945312 32.667969 20.980469 32.699219 21.035156 C 32.765625 21.152344 32.703125 21.285156 32.648438 21.332031 C 32.617188 21.359375 32.554688 21.402344 32.464844 21.40625 L 32.777344 21.800781 C 32.804688 21.839844 32.835938 21.839844 32.867188 21.839844 L 32.867188 21.886719 L 32.625 21.886719 L 32.28125 21.429688 L 32.214844 21.429688 Z M 32.347656 20.652344 C 31.914062 20.652344 31.558594 21.003906 31.5625 21.441406 C 31.5625 21.875 31.914062 22.230469 32.347656 22.226562 C 32.78125 22.226562 33.132812 21.875 33.132812 21.4375 C 33.132812 21.003906 32.78125 20.652344 32.347656 20.652344 Z M 32.347656 22.328125 C 31.855469 22.328125 31.457031 21.933594 31.457031 21.4375 C 31.453125 20.949219 31.855469 20.546875 32.347656 20.546875 C 32.839844 20.546875 33.238281 20.949219 33.238281 21.4375 C 33.238281 21.933594 32.839844 22.328125 32.347656 22.328125 Z M 32.347656 22.328125 "/>
</g>
</svg>
