<?xml version="1.0" encoding="UTF-8"?>
<svg xmlns="http://www.w3.org/2000/svg" xmlns:xlink="http://www.w3.org/1999/xlink" width="35pt" height="25pt" viewBox="0 0 35 25" version="1.1">
<g id="surface1">
<path style=" stroke:none;fill-rule:nonzero;fill:rgb(0%,0%,0%);fill-opacity:1;" d="M 34.34375 5.144531 C 33.039062 3.179688 30.394531 2.949219 28.515625 2.949219 L 8.117188 2.949219 L 4.859375 10.605469 L 8.492188 10.605469 L 6.898438 14.34375 L 3.261719 14.34375 L 0 22 L 18.984375 22 L 21.265625 16.648438 L 24.707031 16.648438 C 30.78125 16.648438 32.832031 13.804688 34.140625 10.730469 C 34.671875 9.480469 35.664062 7.148438 34.34375 5.144531 "/>
<path style=" stroke:none;fill-rule:nonzero;fill:rgb(66.27451%,71.764706%,70.980392%);fill-opacity:1;" d="M 18.828125 8.605469 L 25.082031 8.605469 C 25.53125 8.605469 25.859375 8.710938 25.980469 8.898438 C 26.125 9.113281 26.011719 9.460938 25.929688 9.652344 C 25.578125 10.480469 24.738281 10.992188 23.742188 10.992188 L 17.8125 10.992188 L 18.828125 8.605469 M 32.675781 6.25 C 32.089844 5.363281 30.765625 4.949219 28.515625 4.949219 L 9.441406 4.949219 L 7.882812 8.605469 L 11.515625 8.605469 L 8.21875 16.34375 L 4.582031 16.34375 L 3.023438 20 L 17.664062 20 L 19.222656 16.34375 L 15.53125 16.34375 L 16.253906 14.648438 L 24.707031 14.648438 C 29.871094 14.648438 31.242188 12.425781 32.300781 9.949219 C 32.859375 8.636719 33.347656 7.269531 32.675781 6.25 Z M 32.675781 6.25 "/>
<path style=" stroke:none;fill-rule:nonzero;fill:rgb(69.411765%,58.039216%,42.352941%);fill-opacity:1;" d="M 23.742188 11.371094 L 17.238281 11.371094 L 18.578125 8.226562 L 25.082031 8.226562 C 26.230469 8.226562 26.695312 8.820312 26.277344 9.800781 C 25.859375 10.78125 24.890625 11.371094 23.742188 11.371094 M 28.515625 5.328125 L 9.691406 5.328125 L 8.457031 8.226562 L 12.085938 8.226562 L 8.46875 16.722656 L 4.832031 16.722656 L 3.597656 19.621094 L 17.414062 19.621094 L 18.648438 16.722656 L 14.960938 16.722656 L 16.003906 14.269531 L 24.707031 14.269531 C 29.695312 14.269531 30.945312 12.15625 31.953125 9.800781 C 32.957031 7.441406 33.5 5.328125 28.515625 5.328125 Z M 28.515625 5.328125 "/>
</g>
</svg>
