<?xml version="1.0" encoding="UTF-8"?>
<svg xmlns="http://www.w3.org/2000/svg" xmlns:xlink="http://www.w3.org/1999/xlink" width="35pt" height="25pt" viewBox="0 0 35 25" version="1.1">
<g id="surface1">
<path style="fill-rule:nonzero;fill:rgb(83.529412%,23.921569%,25.098039%);fill-opacity:1;stroke-width:2.306295;stroke-linecap:round;stroke-linejoin:miter;stroke:rgb(0%,0%,0%);stroke-opacity:1;stroke-miterlimit:4;" d="M 29.15625 1.15625 L 29.15625 37.21875 L 44.125 37.21875 L 44.125 163.40625 L 29.15625 163.40625 L 29.15625 198.84375 L 125.28125 198.84375 L 125.28125 163.40625 L 109.78125 163.40625 L 109.78125 113.875 L 135.65625 113.875 L 167.78125 163.40625 L 149.59375 163.40625 L 149.59375 198.84375 L 252.125 198.84375 L 252.125 163.40625 L 233.4375 163.40625 L 196.84375 106.96875 C 203.5625 103.34375 208.84375 98.71875 213 93.78125 C 219.625 85.90625 223.46875 77.1875 225.21875 68.375 C 227.125 58.46875 226.46875 48.375 223.0625 38.65625 C 220.25 30.78125 215.59375 23.0625 208.4375 16.3125 C 203.21875 11.4375 196.59375 7.0625 188.375 4.21875 C 182.78125 2.28125 176.4375 1.125 170.03125 1.15625 C 169.9375 1.15625 169.84375 1.15625 169.75 1.15625 Z M 109.78125 37.21875 L 149.03125 37.21875 C 160.1875 37.21875 169.03125 45.78125 169.03125 58.3125 C 169.03125 70.8125 157.78125 79.5 147.75 79.5 L 109.78125 79.5 Z M 109.78125 37.21875 " transform="matrix(0.125,0,0,0.125,0,0)"/>
</g>
</svg>
