<?xml version="1.0" encoding="UTF-8" standalone="no"?>
<!-- Created with Inkscape (http://www.inkscape.org/) -->

<svg
   xmlns:dc="http://purl.org/dc/elements/1.1/"
   xmlns:cc="http://creativecommons.org/ns#"
   xmlns:rdf="http://www.w3.org/1999/02/22-rdf-syntax-ns#"
   xmlns:svg="http://www.w3.org/2000/svg"
   xmlns="http://www.w3.org/2000/svg"
   version="1.1"
   width="280"
   height="200"
   viewBox="0 0 279.99961 199.8516"
   id="Layer_1"
   xml:space="preserve"><metadata
     id="metadata3257"><rdf:RDF><cc:Work
         rdf:about=""><dc:format>image/svg+xml</dc:format><dc:type
           rdf:resource="http://purl.org/dc/dcmitype/StillImage" /><dc:title></dc:title></cc:Work></rdf:RDF></metadata><defs
     id="defs3255" /><polygon
     points="186.226,362.962 159.483,352.607 166.628,314.158 168.183,255.919 323.429,250.603 425.312,247.111 531.304,276.693 447.495,348.173 475.839,585.044 336.323,585.759 316.862,533.037 213.972,534.244 171.046,582.9 21.081,582.333 "
     transform="matrix(0.33751753,0,0,0.33751753,22.000579,-0.21893071)"
     id="polygon3133"
     style="fill:#ffffff" /><polygon
     points="405.011,282.396 417.171,280.251 414.312,255.205 299.198,255.541 214.979,255.787 168.183,255.919 171.046,272.38 185.351,297.419 206.558,305.654 216.124,303.142 215.39,297.642 211.28,289.017 206.354,282.033 200.601,275.048 193.937,269.517 402.308,269.294 "
     transform="matrix(0.33751753,0,0,0.33751753,22.000579,-0.21893071)"
     id="polygon3135"
     style="fill:#e8d3ac;fill-opacity:1" /><polygon
     points="202.491,347.185 20.796,575.025 171.046,582.9 213.972,534.244 324.159,536.392 336.323,585.759 475.839,585.044 427.901,319.603 419.151,319.826 410.015,323.892 452.233,568.587 355.64,568.587 341.327,517.072 200.378,517.072 163.175,565.009 48.698,565.724 142.046,441.666 213.972,346.072 "
     transform="matrix(0.33751753,0,0,0.33751753,22.000579,-0.21893071)"
     id="polygon3137"
     style="fill:#e8d3ac;fill-opacity:1" /><path
     d="m 119.75248,0.90856929 c 0.83468,1.24713001 0.45868,2.99412001 0.54306,4.53286001 1.53874,0.25044 3.15883,0.29128 4.53286,0.9572 0.37566,-0.24909 0.74896,0.29128 1.12326,0.20825 1.37235,0.66592 2.99547,1.37234 4.07789,2.32819 1.28797,0.83198 2.07911,2.4547707 3.0758,3.7022307 0.0422,0.29128 0.25043,0.49953 0.33346,0.83198 0.45734,1.04023 0.70812,2.24652 0.91637,3.36978 -0.0435,0.41514 0.2069,0.83198 0.2069,1.16545 0.0844,2.45375 0.33211,4.69892 -0.0422,7.32008 0.1674,0.62373 1.12325,0.3743 1.62312,0.49952 0.5407,-0.0422 1.03888,0.20825 1.4979,0.0422 3.70223,0.28993 7.52833,0.0408 11.23022,0.37296 2.87025,0.0844 5.90792,-0.12387 8.73597,-0.16606 4.28479,-0.24909 8.44335,-1.58093 12.18743,-3.07715 1.87221,-0.33346 3.45179,-1.28931 5.32502,-1.78918 4.99019,-1.66396 9.98174,-3.32758 15.09851,-4.20175 0.12522,0 0.33212,-0.16606 0.58154,-0.12387 7.07201,-1.66531 14.0188,-0.0844 20.71515,1.53874 l 0.20825,-0.0422 2.78722,0.87417 c 0.20825,-0.16606 0.25044,0.20825 0.45868,0.16606 3.03496,0.74895 5.90521,1.83002 8.73462,3.0785 0.41515,0.24909 0.74895,0.58154 1.24713,0.66592 2.07911,1.33016 4.32563,2.49594 6.3639,3.8261 0.33346,0.0422 0.45868,0.41649 0.74895,0.49952 1.45537,0.78979 2.62116,2.07911 4.07653,2.78722 4.03436,3.2854 8.19527,7.15369 11.64706,10.89811 0.45869,0.41515 0.91501,0.9572 1.3737,1.4979 5.94875,7.4453 10.35774,15.43232 13.2685,24.45821 0.5407,2.49594 1.3315,5.24199 1.62312,7.82096 0.33211,1.49655 0.45632,3.07714 0.58289,4.65808 0.49716,7.19587 0.62373,14.64252 -0.37566,22.00445 -0.49851,6.98763 -2.74503,14.26788 -4.94936,20.84036 -1.12326,3.07715 -2.2887,6.15564 -3.62055,9.14976 -1.37099,2.78857 -3.15882,5.36721 -4.78195,7.98702 -0.62373,0.91636 -1.45538,1.83137 -2.07911,2.74638 -5.3672,6.73853 -12.52123,11.93833 -20.25882,15.43231 -2.78722,1.08107 -5.82218,2.20433 -8.85984,2.61981 -1.74699,0.62373 -3.4528,0.45734 -5.19979,0.91636 -3.03631,0.49852 -6.19784,0.33212 -9.27499,1.08107 -1.41453,-0.12522 -3.20236,0.083 -4.70162,-0.20825 -0.41515,-0.0422 -0.78844,0.29128 -0.99669,0.66592 -0.0422,0.83199 -0.41785,1.53875 -0.62609,2.3282 -0.5802,2.3309 -1.1641,4.86768 -0.74761,7.19587 0,2.37174 0.16741,5.03374 0.83198,7.32245 -0.12521,-0.0422 -0.16605,-0.0422 -0.29127,-0.0422 l -0.16606,0.16606 c -0.41515,-0.12387 -1.08242,-0.16606 -1.58093,0.12521 -4.7833,0.83199 -8.73597,0.91501 -13.47708,0.74761 l 2.87025,19.09336 h -53.03483 l -4.53556,-16.47119 -33.026802,-0.0422 c -3.57702,3.41061 -6.65551,7.40446 -9.94226,11.02332 -1.08242,1.7048 -2.82941,3.16018 -3.90913,4.82549 l -0.16741,0.083 h -19.75795 v -0.083 l -0.33211,0.083 H 23.124849 l 23.668429,-33.56843 c -0.16606,-0.20825 -0.45734,0 -0.70676,0 -0.83198,0.33212 -1.66396,0.70676 -2.57897,0.70676 l -0.37431,0.20825 c -2.3282,-0.16606 -4.65943,0.58154 -6.98898,0.87282 -0.2069,0.29128 -0.62373,0.0422 -0.87282,0.25044 -2.16214,0.83198 -4.61724,1.03888 -6.531639,2.41257 -1.371,0.49852 -2.74503,1.12326 -3.94997,1.99608 -0.20825,-0.70676 0.20825,-1.16545 0.49716,-1.87221 1.20764,-5.49141 3.24591,-10.98113 6.988979,-15.55753 4.65943,-6.19784 10.9403,-11.60487 18.01231,-14.51731 4.78195,-2.0791 9.44273,-4.32562 13.85138,-7.07065 3.8261,-2.28736 6.9046,-5.40804 9.52576,-9.02589 1.20494,-1.58094 2.03692,-3.28675 2.16349,-5.24199 l 14.51596,-1.83002 h 0.16741 c -8.11089,11.81312 -16.51474,22.12968 -24.91691,33.56848 -5.69965,7.36193 -11.60486,15.01683 -17.22116,22.42129 l -8.73597,11.43746 c -2.03827,2.95463 -4.49202,5.65882 -6.15564,8.69512 5.69966,0.29128 12.06355,0.0408 18.09398,0.2069 8.23746,0.12522 16.43036,-0.29127 24.50041,-0.0408 1.24848,-0.58289 2.66335,0.74895 3.2459,-1.08107 2.99412,-3.32893 6.3639,-6.94678 9.06674,-10.56598 0.99939,-1.41454 2.37174,-2.91109 3.66139,-4.15957 0.28993,0.083 0.78979,0.083 0.95585,0 h 41.596382 l -0.083,0.2069 4.20176,16.18093 v 0.29128 h 39.80852 l -3.495,-17.4284 c -2.662,-1.08107 -4.53286,-3.4528 -6.98762,-5.03238 l -1.70616,-1.74699 0.083,0.70541 3.41062,17.88708 h -24.79033 l -0.79114,-3.45179 -3.20237,-14.18485 -49.998892,-0.0422 0.0408,-0.0408 -3.95131,-0.083 -12.52124,17.34536 c 0.0408,-0.0408 0.0844,-0.0408 0.0408,-0.12522 l -0.0408,-0.0408 -0.53935,0.54071 h -26.91264 l 8.69243,-11.56403 c 7.32008,-10.68986 15.51535,-20.92339 23.79364,-31.48802 l 13.72752,-18.26139 c 1.37235,-1.78783 2.74368,-3.66004 4.11738,-5.57444 1.496555,-2.07911 3.202362,-3.90913 4.658082,-5.98823 l 52.7861,-6.49047 c 0.25044,0 0.0844,0.33347 0.25044,0.37566 -0.12522,0.78979 0.0408,1.66396 0.33212,2.53678 -0.12387,0.45734 0.12522,0.78979 0.0844,1.33151 0,0.24909 0.20689,0.49952 0.1647,0.78979 0.4165,1.66396 0.54071,3.6192 0.91501,5.28282 l 8.02786,42.26226 v 0.12522 c 1.66531,-3.74442 4.32563,-7.36328 6.78073,-10.81642 -0.78979,-2.91109 -0.99669,-6.27952 -1.95524,-9.27634 -0.29128,-1.16274 -0.41515,-2.20297 -0.7476,-3.32623 -0.62508,-3.74442 -1.1641,-7.69574 -1.78783,-11.64706 l -3.53719,-18.96814 26.20521,-9.90007 c 1.29067,-0.45733 2.53814,-0.9572 3.78526,-1.4979 l -17.88573,-1.87086 -14.35126,0.24909 c -0.45632,-2.28871 -0.7476,-4.49303 -0.91501,-6.73989 l -79.199222,-0.0408 c 1.24713,1.24848 3.2854,2.41258 4.40866,3.99351 1.70615,1.99608 3.36978,4.07654 4.95071,6.32305 0.2069,0.91366 1.12191,1.57958 1.12191,2.57897 0.0435,0.74895 0.12522,1.37235 0.12522,2.1213 -4.49202,0.95585 -8.90068,2.1213 -13.47708,2.87025 l -0.41515,-0.12522 c -1.62312,-2.70419 -3.53617,-4.95071 -5.98959,-6.86376 l -0.91501,0.4165 c -2.49594,2.37039 -5.11676,4.57505 -7.52968,7.07066 1.24848,0.20824 2.49595,0.33211 3.6192,0.83198 0.83198,0.3743 1.9117,0.9572 1.99608,1.95524 1.9144,0.16605 3.82745,-0.49953 5.82353,-0.49953 8.48688,-1.33016 16.72164,-2.99412 25.165995,-3.78391 8.734627,-1.41454 17.844917,-2.03827 26.787797,-3.36977 l 8.48688,-1.08107 22.71122,-2.70419 c 6.53029,-0.70676 13.14462,-0.87417 19.63273,-0.99804 1.1641,0.083 2.49594,-0.0422 3.6192,0.29128 0.12387,0.20824 -0.0408,0.28992 0.0422,0.49851 l -20.79818,7.98701 -51.49643,6.77938 -16.180952,2.16349 c -8.85984,1.20629 -17.30554,2.41257 -25.99797,2.82806 -0.66592,0.33346 -1.33016,0 -1.99743,0.16606 -0.083,1.20763 -0.37296,2.37173 -0.70676,3.4528 h 0.0422 c -0.33212,1.87221 -2.45477,3.20372 -3.6192,4.78465 -0.78979,0.49851 -1.28932,1.20494 -1.95659,1.82867 -1.07972,0.83333 -2.49459,1.62312 -3.45179,2.37173 -1.53875,0.4165 -2.91109,1.1641 -4.57641,1.41454 -1.49655,0.24909 -3.53482,0.87282 -5.19844,0.41515 -4.07654,0.20824 -8.31914,-1.45538 -10.06613,-5.32367 -0.78979,-1.62312 -1.33016,-3.11933 -1.66531,-4.90851 -0.45633,-0.87418 -0.0817,-1.9144 -0.70541,-2.7042 -0.62509,0.12522 -1.66532,-0.28992 -1.78918,0.58155 -0.0408,0.99939 -0.74896,1.99878 -1.580939,2.49695 -1.74699,0.70676 -3.4096,0.45734 -4.7833,-0.41649 -2.12265,-1.28932 -2.95463,-3.90913 -2.70419,-6.19784 0.0844,-0.70676 0.49953,-1.62177 0.99939,-2.24517 l 1.03888,-1.20628 c 1.95524,-1.12326 4.03435,-0.49953 5.78134,0.45733 0.665919,0.33212 0.999389,1.87086 2.039619,1.1641 2.07911,-0.16606 4.24125,-0.41515 6.23868,-0.78979 0.41649,-0.29128 0.20824,-0.83198 0.5407,-1.12326 0.0844,-0.41649 0.66457,-0.49851 0.87282,-0.87417 1.12326,-1.87086 2.53813,-3.66004 3.4528,-5.65747 0.91502,-1.08107 1.83138,-2.53678 1.62313,-3.78526 -0.54071,-4.11737 -1.41454,-8.19391 -2.70554,-12.0622 l -0.16471,-1.12326 c 2.16214,-1.04023 4.74111,-0.99804 7.02846,-1.74699 1.24848,-1.4979 1.12326,-3.6192 2.03827,-5.24063 0.0844,-0.58289 -0.083,-1.16545 -0.29127,-1.70615 -0.2069,-0.16606 -0.24774,-0.70811 -0.49852,-0.83198 -0.78979,-2.16214 -1.87221,-4.36782 -2.70419,-6.44726 -0.29128,-0.29128 -0.45632,-0.79114 -0.24774,-1.28932 2.70284,-0.33347 5.40569,0.12522 8.19257,-0.25044 0.70676,0.20825 1.4979,-0.12387 2.20568,-0.28993 1.87086,-3.32758 4.11738,-6.57247 6.32305,-9.734 -0.20825,-1.33151 -0.62609,-2.74503 -0.79114,-4.07654 -0.25044,-2.37038 -0.12387,-4.45118 0.33212,-6.82156 0.49952,-1.70616 0.83198,-2.95463 1.37234,-4.5764 0.75031,-1.1641 1.04159,-2.57898 2.03828,-3.66004 0.83198,-1.28932 2.03826,-2.24652 3.07849,-3.41062 1.95389,-1.20629 3.95267,-2.82941 6.19784,-3.4528 2.16349,-0.9572 4.45118,-1.33016 6.78073,-1.99608 4.15822,-0.12522 8.11089,-0.29128 12.39466,-0.66592 0.54172,0.16605 1.08242,-0.083 1.62312,0.0422 0.83198,-0.12522 1.746995,-0.12522 2.496965,-0.37566 0.24774,-2.99412 0.747597,-6.11481 0.747597,-9.0259 0.20825,-0.24909 -0.123867,-0.49851 0.16606,-0.70676 0.33347,-1.41352 0.2069,-2.57897 0.87417,-3.74442 -0.0844,-0.45734 0.41514,-0.87282 0.33212,-1.33016 0.83198,-2.24651 1.95523,-4.49202 3.41061,-6.57248 1.49792,-2.8294107 4.70028,-3.5783607 7.36196,-4.4100007 0.0844,-0.33212 0.41649,-0.16606 0.5839,-0.33212 1.20629,-0.91501 0.58019,-2.53813 0.95585,-3.86829 0.29128,-1.04022001 1.41454,-1.45537001 2.37039,-1.62177001 1.37606,-0.0418 2.6232,0.20724 3.61989,1.1236 z"
     id="path3139" /><path
     d="M 113.59679,10.37372 V 7.8541493 c -3.16019,0.20825 -6.48946,1.70615 -7.94485,4.8676707 -3.2432,5.19845 -3.8261,11.60487 -3.90913,18.01095 l 0.12387,0.20825 c 0.49953,0.12387 1.04023,0.37296 1.41454,0 0.0911,-0.24909 0.18192,-0.4813 0.2717,-0.70676 1.13642,-7.25899 2.28094,-17.18403 10.04387,-19.86054 z"
     id="path3141"
     style="fill:#ffffff" /><path
     d="m 103.55292,30.2346 c 0.31119,-0.79756 0.61057,-1.49791 0.93594,-2.37174 1.83003,-3.66139 4.40866,-8.44469 9.10759,-9.02589 v -8.46325 c -7.76259,2.67651 -8.90711,12.60155 -10.04353,19.86088 z"
     id="path3143"
     style="fill:#dadbdb" /><path
     d="m 206.94132,20.08409 c 5.5309,1.41454 11.2714,2.41258 16.13874,5.36586 5.49006,3.24455 10.98113,6.73854 15.51534,11.02332 4.74111,4.40865 9.23414,9.48357 12.60426,14.97464 2.32819,3.82745 4.15821,7.56917 6.3217,11.2714 0.29128,1.16545 0.99804,2.03827 1.16545,3.20371 0.74895,0.9572 0.91366,2.16349 1.37234,3.32759 0.24774,1.20629 0.5829,2.41258 0.83198,3.74442 0,1.62177 0.5829,3.28539 0.5829,4.94936 0.29127,0.41514 0.0408,1.04023 0.20689,1.4979 0.45734,6.40507 0.83199,12.68728 -0.45733,19.17639 0.083,1.24713 -0.49953,2.61982 -0.66592,3.78526 -0.29128,3.2854 -1.03888,6.11481 -1.53875,9.27499 -0.49952,3.0363 -1.4979,6.15564 -2.57897,9.1933 -0.49952,0.83198 -0.54171,1.95389 -1.37369,2.70419 l 0.12657,0.083 c -0.33482,0.24909 -0.16741,0.45632 -0.4165,0.7476 -0.2096,1.12326 -1.20629,2.66335 -2.08046,3.86964 0,0.70676 -0.74895,1.20629 -0.78979,1.78783 -1.99743,2.74638 -3.6192,5.90655 -5.90656,8.56856 -2.20432,3.36977 -5.11676,6.32305 -8.31913,8.90337 -3.6192,2.74503 -7.6549,4.65808 -11.77227,6.40507 -0.99804,0.20825 -1.78918,0.66592 -2.82806,0.70676 -0.29128,-2.37038 0.29127,-4.94935 0.7476,-7.36193 0.33212,-0.99804 0.33212,-1.95524 0.83198,-2.87025 0.0435,-0.37431 0.0435,-0.70676 0.12522,-1.12326 1.16545,-5.11676 3.16153,-9.734 5.53225,-14.35124 2.82941,-5.32367 6.15564,-10.39858 9.35835,-15.51535 1.99878,-2.70284 3.41331,-5.78133 5.32501,-8.52771 2.07911,-3.57566 3.41197,-7.36194 4.28479,-11.18939 1.08106,-3.2432 0.79114,-6.98762 0.0408,-10.35773 -0.24909,3.12068 -0.28993,6.40608 -1.78783,9.1933 -1.66397,7.23671 -6.69635,13.31102 -11.39797,19.09337 -8.02786,10.48295 -18.30121,20.67294 -27.20459,30.53082 -3.70088,3.86964 -7.98566,8.19526 -10.94029,12.77031 -2.99412,5.32502 -5.15761,11.02332 -4.49067,17.38756 l 0.20824,3.78525 c -2.53813,0.45734 -4.82548,0.20825 -7.19722,0.0422 -3.16153,-0.70811 -6.28221,-1.58093 -8.94286,-3.6192 -2.662,-1.83002 -5.45024,-3.6192 -7.65355,-6.1148 -1.20764,-1.1641 0.083,-2.28736 0.33212,-3.53482 3.16152,-6.24003 7.11419,-11.68925 12.2718,-16.55692 9.10892,-9.31718 19.63272,-16.05571 29.78187,-23.7501 5.61528,-4.15957 10.98248,-7.90399 16.6386,-12.10574 5.57444,-4.3668 10.06612,-9.9831 12.72947,-16.34733 0.7476,-2.16348 1.66261,-4.5764 1.9117,-6.82156 0.87417,-4.11873 0.6261,-8.07005 0.83333,-12.14658 -0.0422,-1.87221 -0.0422,-3.57701 -0.12522,-5.40703 h 0.0422 c 0.16471,-2.08046 0,-3.6192 -0.25043,-5.57444 -0.54071,-1.24713 -0.12387,-2.28871 -0.74896,-3.57836 0,-0.41515 0,-0.83064 -0.29127,-1.16275 0.16741,-0.37566 -0.2069,-0.62508 -0.24774,-0.9572 -0.45869,-2.28736 -1.62312,-4.49304 -2.57897,-6.40608 -1.1668,-1.62178 -2.58134,-3.24456 -3.91048,-4.65943 -2.37309,-2.32955 -4.78465,-4.44984 -7.48749,-6.19649 -2.57897,-2.03962 -5.7405,-3.32893 -8.65429,-4.70162 -4.32562,-1.66396 -8.5672,-4.49202 -13.30966,-5.40703 -7.6549,-2.32954 -16.43036,-1.45672 -24.66781,-1.16545 -7.52833,0.79114 -15.22373,2.49595 -22.1695,5.1998 -6.36389,2.24652 -12.60425,5.24198 -17.63664,10.31521 -1.29067,-1.91305 -0.37566,-4.44983 0.58289,-6.28086 0.16471,-0.41515 0.62373,-0.70677 0.78844,-1.1641 -0.70676,0 -1.12326,0.62508 -1.70345,0.99804 -3.0785,2.57897 -5.49242,5.86571 -7.61271,9.1933 -0.083,-1.41454 0.0817,-2.49594 0,-3.86964 2.49595,-2.49459 3.24321,-6.19648 3.4518,-9.48357 -0.24909,-0.45733 -0.24909,-0.87282 -0.49953,-1.33015 -0.12387,-0.62374 -0.58154,-1.33151 -0.83198,-1.99743 -0.79114,-0.62373 -1.24713,-1.7048 -1.99608,-2.37039 0.70811,-0.3743 1.82867,-0.16606 2.66335,0 2.66065,-0.20825 5.78134,0.28993 8.40115,0.33212 3.03631,0.37431 5.82353,0.41515 8.73597,0.49953 2.20432,-0.25044 4.03434,0.16605 6.19783,-0.37431 2.95328,-0.41515 5.44922,-1.33151 8.27694,-2.1213 1.04158,-0.45733 2.20433,-0.66592 3.20372,-1.1641 3.03496,-1.04158 5.98959,-2.45476 9.06808,-2.99546 1.78918,-0.79115 3.74172,-1.28932 5.44787,-2.08046 1.29067,-0.54071 2.74638,-0.78979 4.16092,-1.1641 4.49202,-1.3737 9.23414,-1.45538 14.05828,-0.58289 l 2.16585,0.58356 z"
     id="path3145"
     style="fill:#e8d3ac;fill-opacity:1" /><polygon
     points="281.741,158.869 281.612,158.74 281.612,158.748 "
     transform="matrix(0.33751753,0,0,0.33751753,22.000579,-0.21893071)"
     id="polygon3147"
     style="fill:#dadbdb" /><path
     d="m 116.80185,28.52845 -14.2679,7.8196 c -0.91501,-0.20825 -0.41649,0.91501 -0.5407,1.37235 l 0.87822,0.91231 c 5.43843,-2.01599 9.52038,-8.3917 15.88428,-6.40237 3.46867,0.76988 6.57754,2.96779 9.66414,4.94159 0.54307,-0.31389 1.08377,-0.62744 1.60996,-0.9491 l -13.228,-7.69438 z"
     id="path3149"
     style="fill:#ffffff" /><path
     d="M 102.87113,38.63304 117.04959,53.3586 V 34.68443 l 2.82942,0.0408 -0.0422,7.15503 c 2.8176,-1.59916 5.80496,-3.11292 8.58307,-4.70803 -3.0866,-1.9738 -6.19513,-4.17138 -9.66414,-4.94159 -6.3639,-1.98933 -10.44585,4.38637 -15.88462,6.40236 z"
     id="path3151"
     style="fill:#dadbdb" /><path
     d="m 94.505758,34.22675 c -0.87417,2.82941 0.49717,5.69966 1.87086,8.11089 1.08107,0.9572 2.328205,1.74834 3.743072,1.9144 -2.038267,1.87086 -3.617852,4.32562 -4.575052,6.90459 -0.91501,-0.45868 -1.74699,-1.41453 -2.57762,-2.08046 -2.62251,-1.95388 -5.3672,-4.24259 -8.31913,-5.6983 -3.45416,-1.04023 -7.28025,-1.91305 -10.85727,-1.95524 -2.70554,0.083 -4.24259,2.74503 -6.03312,4.20175 1.04023,-2.41257 2.82941,-4.99289 5.32501,-6.48945 1.24713,-0.83198 2.49594,-1.78918 3.95132,-2.28735 3.16153,-1.62312 6.73854,-1.99743 10.35774,-2.20433 1.24713,-0.4165 2.24652,0.12387 3.49398,-0.4165 1.20629,0.083 2.08181,-0.33346 3.36977,-0.20824 0.12387,-0.0408 0.33246,0.12521 0.25044,0.20824 z"
     id="path3153"
     style="fill:#e8d3ac;fill-opacity:1" /><rect
     width="2.870249"
     height="11.065512"
     x="111.97637"
     y="34.767452"
     id="rect3155" /><rect
     width="2.205677"
     height="5.6561184"
     x="107.81545"
     y="36.265026"
     id="rect3157" /><path
     d="m 201.53328,44.29288 c -2.91109,-1.24848 -4.16092,2.91108 -6.65686,4.15956 -2.49459,0.83198 -4.5737,-0.41514 -6.65551,-2.91109 -0.41515,-0.41649 -1.66396,0.83063 -2.49459,0.83063 -7.07201,0.83198 -14.97599,-5.82217 -21.21467,0.83198 -0.83198,-1.66261 -2.08045,-3.32623 -3.74307,-3.74306 -1.62818,-0.27171 -3.43187,-0.18463 -4.95205,0.484 l 0.16741,0.18192 c 1.20628,1.45537 3.16152,1.74699 5.11676,1.74699 0.2069,0.083 0.58289,0.083 0.45869,0.37431 -1.24983,0.70811 -0.66727,2.16348 -2.08181,2.87024 -2.87025,1.83002 -5.82218,3.91048 -9.48357,3.11934 -0.0408,0.33347 0.33212,0.62508 0.20825,1.08242 0.45869,0.83198 1.28932,1.1641 2.24652,1.28797 2.20297,-0.33212 4.07653,-1.45538 6.07261,-2.28736 0.24774,-0.12387 0.54071,-0.29128 0.79114,-0.083 0,0.20825 -0.0844,0.33347 -0.12522,0.49953 -0.54171,0.58289 -0.62508,1.33015 -1.08241,1.95389 -0.45633,2.24651 -2.41258,4.24394 -4.07654,5.5336 l 0.0422,0.083 c 7.23671,0.12386 12.47903,-5.32502 17.13813,-10.48296 0.62373,0.29128 0.5407,-0.78979 1.16409,-0.62373 0.37296,0.20689 0.37296,0.66592 0.49953,0.99804 -0.58289,2.74503 -0.62373,5.49141 -2.49594,7.77876 -0.12522,0.37431 -0.58289,0.5407 -0.58289,0.91501 0.79114,-0.29128 1.7048,-0.29128 2.49594,-0.70676 2.62116,-1.66396 5.7405,-3.24456 6.90459,-6.48945 0.41515,-0.41515 0.45869,-1.62312 1.33016,-1.28932 0.0435,1.04023 0.45869,2.07911 0.58391,3.20237 -0.20825,1.4979 0.29127,3.49398 -0.24909,5.07458 1.37099,-0.24909 2.78587,-0.62374 3.9908,-1.24713 3.32894,-1.12326 4.24395,-4.82549 5.32502,-7.69574 3.57836,-0.0408 6.94678,1.1641 9.85787,3.0785 0.4165,0.20825 0.62374,0.7476 0.99939,0.87417 0.87417,-2.32955 2.37039,-4.45219 2.41393,-7.03117 -0.029,-0.19643 -0.054,-0.39422 -0.079,-0.59065 -0.53125,-0.88801 -1.18233,-1.5617 -1.83373,-1.77939 z"
     id="path3159"
     style="fill:#dadbdb" /><path
     d="m 160.76892,43.46123 c 1.66261,0.4165 2.91109,2.08046 3.74307,3.74307 6.23867,-6.65416 14.14266,0 21.21467,-0.83198 0.83063,0 2.0791,-1.24713 2.49459,-0.83063 2.08181,2.49594 4.16091,3.74307 6.65551,2.91109 2.49594,-1.24848 3.74576,-5.40804 6.65685,-4.15957 0.65141,0.2177 1.30248,0.89139 1.83542,1.77973 -0.12522,-1.0058 -0.24638,-1.99878 -0.62879,-2.90332 -0.58289,-0.99804 -1.78918,-0.83198 -2.74638,-0.79114 -1.66261,-0.0408 -2.45375,1.66531 -3.32624,2.74638 -0.87417,0.99804 -2.16483,1.62312 -3.2459,2.32954 l -2.24517,-0.3743 c -1.04023,-0.37431 -0.83198,-1.58094 -1.58093,-2.20433 -1.08242,-0.83198 -2.57897,-0.58289 -3.78526,-0.12522 -1.33151,0.99804 -3.20237,0.49851 -4.5764,-0.083 -3.03496,-0.74895 -5.98959,-2.41257 -9.27498,-2.20433 -2.49594,0.54071 -5.40805,0.49953 -6.98898,2.87025 -1.24713,0 -1.91305,-1.3315 -2.74503,-1.99743 l -1.1641,-0.70676 c -0.29127,-0.12522 -0.58289,-0.16606 -0.83198,-0.3743 -1.83137,-0.41515 -3.66139,-0.16606 -5.19979,0.83198 l 0.78844,0.8583 c 1.5195,-0.66862 3.32286,-0.7557 4.95138,-0.484 z"
     id="path3161"
     style="fill:#ffffff" /><path
     d="m 114.40109,61.17955 c -2.31773,-3.45179 -4.50249,-6.95353 -6.54346,-10.35638 -1.1641,-1.51107 -1.90395,-3.18415 -2.79499,-4.75158 -2.30221,6.51578 2.68428,13.73663 9.33845,15.10796 z"
     id="path3163"
     style="fill:#dadbdb" /><path
     d="m 105.06264,46.07159 c -0.38511,-0.67503 -0.79385,-1.3315 -1.28156,-1.94477 -0.29128,0.3743 -0.66592,0.62373 -0.70676,1.12191 -0.91636,0.79114 -1.24848,2.03961 -1.58093,3.16287 -0.083,0.083 -0.25044,0.2069 -0.12657,0.29128 -0.87147,2.11995 0.0435,4.69892 1.12326,6.4881 2.53813,4.5764 7.94618,6.40608 12.60427,7.02981 -0.23457,-0.34528 -0.46138,-0.69494 -0.6936,-1.04157 -6.65383,-1.371 -11.64032,-8.59185 -9.33811,-15.10763 z"
     id="path3165"
     style="fill:#ffffff" /><path
     d="m 79.527068,52.0308 c 0.12387,-0.46948 0.17787,-0.98217 0.62745,-1.29066 1.37099,-1.45538 3.41061,-1.95524 5.49006,-1.99608 -0.24909,-0.54071 -0.33212,-1.20629 -0.78979,-1.62177 -1.04158,0.41514 -2.1213,0.87282 -2.99682,1.58093 -2.91109,1.87086 -5.82218,3.8261 -8.27593,6.19648 l -0.0435,-0.0408 -4.3668,4.3668 c -3.36843,3.32759 -6.19784,7.40548 -9.19331,11.23157 1.14689,-0.10429 2.27825,-0.15964 3.40151,-0.20048 3.83453,-6.95084 9.88993,-12.92962 16.14717,-18.22595 z"
     id="path3167"
     style="fill:#ffffff" /><path
     d="m 78.323478,61.18192 c -0.53935,-0.12522 -1.37099,-0.33347 -1.45537,-0.9572 l 1.45537,-0.33212 c 1.78784,-0.0422 3.57837,-0.33347 5.32502,0.2069 -1.83137,-2.24652 -4.9929,-4.20041 -4.40865,-7.4453 0.14783,-0.17787 0.22546,-0.39557 0.28756,-0.62373 -6.25724,5.29598 -12.31264,11.27511 -16.14684,18.22594 2.01599,-0.0726 4.01207,-0.0962 6.04089,-0.25719 1.99743,0.0408 4.5764,-0.41649 6.57248,-0.16605 -0.62373,-1.08242 -2.07911,-1.49791 -3.0785,-2.41258 -0.49851,-0.49953 -1.33015,-0.4165 -1.74699,-1.04023 0,-0.37431 -0.29128,-0.62373 0.0844,-0.91501 2.41258,-0.83198 4.94936,-1.12326 7.48749,-0.87417 1.74699,0.45869 3.4528,0.99939 5.11676,1.66396 -1.45571,-1.91271 -3.49533,-3.57667 -5.5336,-5.07322 z"
     id="path3169"
     style="fill:#dadbdb" /><path
     d="m 227.95719,54.66918 -0.21872,-1.01661 c -0.70811,-2.74638 -3.2432,-5.24063 -5.94874,-5.78133 l -0.83198,-0.2096 c -0.53936,0.0422 -0.66457,-0.24909 -1.1641,-0.16606 -0.18867,0.58931 -0.39692,1.17591 -0.60112,1.76015 3.69413,0.15661 7.33156,2.07236 8.76466,5.41345 z"
     id="path3171"
     style="fill:#ffffff" /><path
     d="m 219.19219,49.2554 c -0.24537,0.69731 -0.484,1.38956 -0.6882,2.06729 3.61786,-0.49952 7.15504,0.83198 9.48492,3.49398 l -0.0317,-0.14783 c -1.4331,-3.34075 -5.07053,-5.2565 -8.765,-5.41344 z"
     id="path3173"
     style="fill:#dadbdb" /><path
     d="m 104.91345,66.71687 c -0.61563,-0.95045 -1.29336,-1.88403 -1.87997,-2.74908 -2.62251,-3.24321 -4.825487,-6.44726 -7.822312,-9.27634 -1.66126,-1.4277 -3.26447,-3.0363 -5.00336,-4.50383 3.0758,6.97176 7.51517,14.24189 14.705642,16.52925 z"
     id="path3175"
     style="fill:#dadbdb" /><path
     d="m 90.207808,50.18762 c -0.7422,-0.6261 -1.50701,-1.2289 -2.31638,-1.77602 0.95585,3.86694 3.20237,6.9046 5.44922,10.27336 2.95328,3.57836 6.447265,8.07005 11.189382,8.98506 0.37431,0.12521 0.9572,0 0.99804,0.0844 v -0.0422 C 105.33569,67.38011 105.1271,67.04765 104.91379,66.71689 97.722978,64.42953 93.283608,57.1594 90.207808,50.18764 z"
     id="path3177"
     style="fill:#ffffff" /><path
     d="m 207.00984,51.45736 c 0.41143,1.31699 0.58289,2.70419 0.55521,4.15045 0.0408,0.33212 -0.20825,0.9572 -0.0844,1.37235 -0.12387,0.083 -0.12387,0.16606 -0.0422,0.24909 -0.0817,0.0422 -0.0817,0.12522 -0.16471,0.12522 -0.1674,1.20628 -0.41649,2.12129 -0.74895,3.20236 1.20494,-1.28931 2.07911,-2.99546 2.95193,-4.57505 0.29128,-0.58289 0.12657,-1.37369 0.58289,-1.87221 0.45734,-0.0422 0.54071,0.49852 0.74896,0.78979 0.3743,0.62374 0.083,1.33151 0.62373,1.9144 0.083,0.54071 0.16741,1.28932 0.29128,1.87086 0.12386,0.49953 0.1674,0.83198 0.12386,1.28932 l 0.45869,-1.33016 c 0.37566,-1.56506 0.70406,-3.57836 0.31254,-5.3105 -1.61772,-1.28526 -3.58106,-2.13311 -5.60886,-1.87592 z"
     id="path3179"
     style="fill:#dadbdb" /><path
     d="m 206.27438,49.65907 c 0.30445,0.58289 0.54442,1.18401 0.73579,1.79829 2.02781,-0.25719 3.99081,0.59066 5.60853,1.87626 -0.13062,-0.57074 -0.33617,-1.11009 -0.64466,-1.59409 -1.24881,-1.87221 -3.82745,-1.9144 -5.69966,-2.08046 z"
     id="path3181"
     style="fill:#ffffff" /><path
     d="m 123.90829,72.45871 c -0.0263,-0.003 -0.0499,0 -0.0776,-0.005 0.0223,0.0186 0.0472,0.0172 0.0776,0.005 z"
     id="path3183"
     style="fill:#dadbdb" /><path
     d="m 143.79787,50.99057 c -0.0435,-0.12522 -0.4165,-0.29262 -0.4165,-0.5407 -2.24652,-0.79114 -3.74442,1.28932 -4.49303,3.03631 -0.91501,1.37234 -1.83002,2.87025 -2.28871,4.49202 -0.87282,1.33016 -1.32915,2.87025 -2.16079,4.20176 -0.62508,0.87282 -1.5411,1.58093 -1.95659,2.53678 -0.45733,0.62508 -1.28796,1.16409 -1.7048,1.74834 -0.99804,0.7476 -1.62312,1.95389 -2.662,2.70284 -1.20629,1.1641 -2.57897,1.87221 -3.41061,3.03631 -0.32436,-0.3598 -0.61564,0.18057 -0.79621,0.25448 0.215,0.0145 0.40334,-0.05 0.58796,-0.0871 0.20825,0.0408 0.20825,-0.37565 0.45733,-0.1674 0.5829,-0.24909 1.45538,-0.5829 2.16214,-0.74896 1.53334,-0.65512 2.96104,-1.48575 4.30605,-2.44025 4.94159,-4.88084 11.31595,-10.19944 10.21261,-16.81782 0,-0.4165 -1.24983,0.83198 -1.66532,1.24713 -3.74307,6.6555 -6.65415,14.14266 -13.30966,17.88573 6.65551,-3.74307 9.56659,-11.23023 13.30966,-17.88573 0.41515,-0.41515 1.66532,-1.66396 1.66532,-1.24713 1.10368,6.61838 -5.27102,11.93698 -10.21261,16.81782 2.66976,-1.89583 5.00336,-4.29018 7.13411,-6.83473 1.08107,-1.08242 1.7048,-2.41257 2.53678,-3.53617 1.20595,-2.49594 2.9121,-4.90852 2.70487,-7.65355 z"
     id="path3185"
     style="fill:#dadbdb" /><path
     d="m 187.84795,51.65515 h 0.0817 -0.0817 z"
     id="path3187" /><path
     d="m 221.49811,69.66744 c 2.91379,-3.74442 8.73597,-4.15956 12.89553,-1.66396 1.40138,0.93493 2.5432,2.13311 3.34615,3.59288 0.0685,-0.96902 0.0645,-1.92892 -0.0594,-2.84528 -0.9572,-2.20432 -3.49398,-2.70419 -5.5336,-3.07714 -2.45375,0 -4.7833,0.29127 -7.07065,1.08107 -0.0844,0.24908 -0.33212,0.24908 -0.58155,0.20824 -1.74699,0.79114 -3.49634,1.62178 -4.95205,2.78722 -0.95585,1.33151 -1.57959,2.78722 -0.99669,4.40866 0.37194,0.67908 0.98622,1.04428 1.66767,1.25894 -1.17692,-2.06426 0.052,-4.51801 1.28459,-5.75063 z"
     id="path3189"
     style="fill:#ffffff" /><path
     d="m 227.7081,84.6593 c -0.62373,0.13568 -1.27481,0.23086 -1.75746,0.68955 -0.33481,0.41649 -0.33481,1.12325 -0.1674,1.62177 0.95314,1.18401 2.3454,0.88463 3.70594,0.68955 -0.88329,-0.79925 -1.3197,-1.92622 -1.78108,-3.00087 z"
     id="path3191"
     style="fill:#ffffff" /><path
     d="m 227.98756,75.87203 c -0.81612,0.14884 -1.6454,0.2636 -2.32819,0.70001 -0.49953,0.2069 -0.74896,0.74895 -0.74896,1.24848 0.12522,0.58154 0.33212,1.33015 1.04023,1.53874 0.73714,-0.0263 1.50567,0.0726 2.24787,0.0857 0.24504,-1.19076 0.0354,-2.38254 -0.21095,-3.57296 z"
     id="path3193"
     style="fill:#ffffff" /><path
     d="m 228.41081,69.89696 c -1.29067,0.12116 -2.55501,0.269 -3.41872,1.30923 -0.20689,0.74895 -0.45632,1.62312 0,2.37038 0.37566,0.78979 1.24983,0.74895 1.95524,0.91501 0.25854,0.058 0.51809,0.0844 0.78034,0.10159 -0.28857,-1.56641 -0.377,-3.13148 0.68314,-4.69621 z"
     id="path3195"
     style="fill:#ffffff" /><path
     d="m 228.0338,80.38363 c -1.02841,0.20183 -2.06594,0.3824 -2.8743,1.09693 -0.29127,0.3743 -0.33211,0.9572 -0.16741,1.37234 0.44181,1.00074 1.38315,1.00209 2.34035,0.97577 -0.004,-0.007 -0.007,-0.0132 -0.009,-0.0199 -0.33516,-1.33792 0.40704,-2.40717 0.71047,-3.42512 z"
     id="path3197"
     style="fill:#ffffff" /><path
     d="m 237.51298,73.57657 c 0.10159,-0.65647 0.18057,-1.31969 0.22681,-1.98021 -0.80295,-1.45943 -1.94477,-2.65795 -3.34615,-3.59288 -4.15956,-2.49594 -9.98174,-2.08046 -12.89553,1.66396 -1.23261,1.23262 -2.46151,3.68637 -1.28425,5.75097 0.61158,0.19238 1.27615,0.26225 1.86681,0.32165 -0.33212,-0.25044 -0.0408,-0.58289 -0.37431,-0.83198 -0.16471,-1.20629 -0.37296,-2.74638 0.12657,-3.95132 1.70345,-2.32955 5.19709,-2.57897 7.81961,-2.28871 0.29127,0.12522 0.78844,0.12522 0.78844,0.54172 -0.0408,0.29128 -0.33212,0.33212 -0.49717,0.49851 -0.49952,0.0949 -1.0193,0.13974 -1.53334,0.18868 -1.06014,1.56506 -0.97171,3.1298 -0.6828,4.69621 0.88059,0.0554 1.76792,-0.029 2.50641,0.35744 -0.6261,0.58289 -1.4277,0.76987 -2.24652,0.92142 0.24639,1.19042 0.45633,2.38253 0.21095,3.57296 0.47185,0.009 0.93357,-0.0145 1.36998,-0.12792 0.0844,0.29128 -0.16605,0.62373 -0.49851,0.83198 -0.33887,0.0962 -0.68685,0.16606 -1.03618,0.23458 -0.30309,1.01795 -1.04563,2.0872 -0.71047,3.42512 0.003,0.007 0.005,0.0132 0.009,0.0199 0.39287,-0.0105 0.78979,-0.0263 1.15364,0.0223 0.20824,-0.0422 0.49952,0.0422 0.45868,0.29128 -0.34798,0.29668 -0.78439,0.4165 -1.23666,0.51674 0.46138,1.07466 0.89779,2.20163 1.78108,3.00087 0.60112,-0.0871 1.19582,-0.15425 1.74294,-0.0645 0.99939,-0.62508 2.12265,-0.99804 3.20236,-1.45537 1.95524,-1.28932 2.87025,-3.41197 3.20237,-5.57444 0.7503,-2.49561 -0.62339,-4.61825 -0.12387,-6.98898 z"
     id="path3199"
     style="fill:#dadbdb" /><path
     d="m 146.29246,74.07644 c -1.57958,0.45733 -3.16153,0.91501 -4.82549,1.12325 -0.58289,-1.58093 -0.37431,-3.36977 -0.37431,-4.86767 0.25044,-0.16606 0.58289,0.0422 0.87417,0.0422 2.57897,-0.33347 5.36586,-0.20825 7.77877,-1.45538 1.99608,-0.91501 4.03435,-1.33151 5.86572,-2.70419 -2.57898,2.99547 -5.32536,6.61433 -9.31886,7.8618 z"
     id="path3201"
     style="fill:#dadbdb" /><polygon
     points="306.632,212.728 306.261,212.482 306.511,212.482 "
     transform="matrix(0.33751753,0,0,0.33751753,22.000579,-0.21893071)"
     id="polygon3203" /><path
     d="m 91.217668,72.41247 c 0.25044,1.49791 -0.24909,3.24456 -1.45538,4.07654 -2.28735,0.87282 -4.82549,0.083 -6.48945,-1.53874 -0.91501,-1.04023 -2.03827,-1.66531 -2.87025,-2.78857 3.45449,-0.58121 7.15639,3.4e-4 10.81508,0.25077 z"
     id="path3205"
     style="fill:#dadbdb" /><path
     d="m 123.58124,72.57853 h 0.12387 -0.12387 z"
     id="path3207"
     style="fill:#ffffff" /><path
     d="m 122.95751,72.82897 h 0.0817 -0.0817 z"
     id="path3209"
     style="fill:#ffffff" /><path
     d="m 74.746468,74.86589 c 1.53875,1.28932 2.82941,2.99547 3.24456,5.03374 -0.0422,0.58289 0.0408,0.99803 -0.25044,1.45537 -0.5407,0.62508 -1.3315,1.04023 -2.20297,1.12326 -3.78661,-0.49851 -6.73989,-3.20237 -10.31792,-4.2426 -0.95585,-0.0422 -1.82867,-0.083 -2.8267,-0.12522 -0.20825,-1.3315 -0.4165,-2.99411 0,-4.28343 2.61981,-0.16606 5.65746,-0.0844 8.44333,-0.25044 1.41454,0.0422 2.82908,0.54206 3.91014,1.28932 z"
     id="path3211"
     style="fill:#dadbdb" /><path
     d="m 50.495498,73.95088 c 0.99939,2.16349 1.66396,4.49303 2.91109,6.53164 0.60247,-0.17416 1.19042,-0.37195 1.77872,-0.56703 -1.09423,-1.95119 -1.36999,-4.10556 -2.29816,-6.09894 -0.83603,0.0199 -1.6454,0.058 -2.39165,0.13433 z"
     id="path3213"
     style="fill:#ffffff" /><path
     d="m 58.564198,73.86785 c -1.80741,-0.029 -3.81294,-0.0935 -5.67705,-0.0513 0.92817,1.99338 1.20359,4.14775 2.29816,6.09894 0.9599,-0.31659 1.9171,-0.6261 2.9229,-0.80566 -3.4e-4,-1.83103 0.16741,-3.4528 0.45599,-5.24198 z"
     id="path3215"
     style="fill:#dadbdb" /><polygon
     points="155.538,244.033 155.163,243.908 155.538,243.908 "
     transform="matrix(0.33751753,0,0,0.33751753,22.000579,-0.21893071)"
     id="polygon3217" /><path
     d="m 65.844448,84.55905 -0.70541,-0.20824 c -2.88206,-0.12792 -5.76278,-0.17788 -8.53008,0.16335 -0.29803,0.66593 -0.88734,1.24342 -0.89375,1.90765 3.03901,-0.0462 5.96866,-0.24773 8.9243,-0.28216 l 0.12387,0.0817 3.36978,-0.0408 c -0.74997,-0.66559 -1.53841,-1.08073 -2.28871,-1.62144 z"
     id="path3219"
     style="fill:#dadbdb" /><path
     d="m 54.156548,84.93235 c -0.16605,0.49953 -0.41514,0.99939 -0.3743,1.4979 0.65006,0.008 1.29336,0.001 1.93296,-0.008 0.007,-0.66457 0.59606,-1.24207 0.89375,-1.90765 -0.82928,0.10227 -1.6481,0.23559 -2.45241,0.41751 z"
     id="path3221"
     style="fill:#ffffff" /><path
     d="m 49.289208,101.28069 c 0,-3.0785 -0.35979,-6.157 -1.0706,-9.23415 -0.35338,0.025 -0.70676,0.05 -1.04934,0.083 -0.25044,2.45376 0.95585,4.57505 1.20493,7.02847 0.79114,2.20567 -0.62373,4.03569 -1.28796,5.9079 -1.37505,2.82806 -2.91379,5.65747 -3.53719,8.73597 -0.12387,0.95585 0,1.87086 0.083,2.87025 0.29128,0.49851 0.45869,1.12191 0.79114,1.62177 0.42966,0.76212 1.15769,1.09963 1.93533,1.23532 -2.75988,-6.32475 2.93066,-12.288 2.93066,-18.24856 z"
     id="path3223"
     style="fill:#ffffff" /><path
     d="m 54.238568,113.92578 c -1.24713,-0.87417 -1.78783,-2.45477 -1.49655,-3.74442 0.24909,-1.82867 1.78783,-3.2854 3.36977,-3.78526 -2.32954,-0.28993 -4.24394,-1.87086 -5.32501,-3.99216 l 0.0408,-0.0422 c -0.41515,-0.41514 -0.37296,-1.08106 -0.66457,-1.53874 -0.083,-0.41649 -0.25044,-1.16545 0.16606,-1.41453 1.45537,-0.33212 3.20371,-0.12522 4.65942,-0.49852 -2.16213,-1.29066 -4.82548,-2.33089 -6.1148,-4.78465 2.99412,-0.83198 6.44726,-0.87282 9.23414,-2.28735 -3.14836,0.0753 -6.66732,-0.0159 -9.8896,0.20825 0.71047,3.07714 1.07061,6.15564 1.07061,9.23414 0,5.96056 -5.69021,11.92382 -2.93101,18.24822 0.5829,0.10159 1.19178,0.0884 1.72438,0.054 -0.78979,-0.20824 -1.24848,-0.91636 -1.74699,-1.4979 0,-0.29128 -0.58154,-0.58289 -0.0817,-0.87417 0.83198,0.20825 1.70345,0.66592 2.41156,0.87417 2.95328,0.62373 6.57248,0.99804 9.44273,-0.29128 1.03888,-0.66592 1.41454,-2.0791 1.371,-3.11933 -1.82833,0.37498 -3.82576,0.12454 -5.2403,-0.74828 z"
     id="path3225"
     style="fill:#dadbdb" /><path
     d="m 153.48833,95.37413 -46.00535,6.28086 c -1.3315,-2.32954 -3.20237,-4.5764 -5.1998,-6.36524 h 51.03909 l 0.16606,0.0844 z"
     id="path3227" /><rect
     width="0.042189691"
     height="0.084379382"
     x="142.71544"
     y="96.579063"
     id="rect3229"
     style="fill:#ffffff" /><path
     d="m 211.35031,108.47656 c 1.57958,2.24652 3.36843,4.61724 4.32563,7.32008 l 0.0408,0.58289 c -1.16409,1.24848 -2.74638,1.62312 -3.90912,2.66335 -0.29263,-2.03827 -1.29067,-3.70223 -2.12265,-5.57444 -2.57897,-4.78329 -5.78134,-9.48491 -9.73266,-13.06159 -1.16544,-0.9572 -2.2887,-1.66396 -3.4528,-2.45375 6.32305,0.16606 11.18938,5.82218 14.85077,10.52346 z"
     id="path3231"
     style="fill:#e8d3ac;fill-opacity:1" /><path
     d="m 173.45452,98.7007 c -0.20825,0.25044 -0.74895,0.49953 -1.1641,0.66592 -2.37039,0.9572 -4.70162,1.9144 -7.19587,2.49595 -1.49892,0.49952 -3.03766,1.28931 -4.49304,1.37369 -1.04023,0.53936 -2.37038,0.66457 -3.57836,0.87282 -3.61785,0.5829 -6.65281,0.99804 -10.4816,1.3737 -10.35774,1.49655 -20.96423,2.70284 -31.4472,4.24124 -10.35776,0.79115 -20.839032,2.95463 -31.362822,3.95132 -5.53225,0.70811 -11.35578,1.45673 -16.92988,1.70615 l -1.74699,-0.0408 c 0.20825,-1.12326 -0.7503,-2.41257 0.45733,-3.12068 3.61785,-1.1641 7.3211,-1.12191 11.06417,-1.91305 6.28086,-1.08242 12.64509,-2.1213 19.04982,-3.11934 6.990332,-0.66592 14.144022,-1.78918 21.255862,-2.49594 8.94558,-0.62373 17.55633,-3.03631 26.41616,-3.70223 6.73719,-0.74895 13.14462,-1.16545 19.80013,-1.78918 3.53516,-0.20825 6.6545,-0.33212 10.35639,-0.49953 z"
     id="path3233"
     style="fill:#dadbdb" /><polygon
     points="238.726,443.806 314.886,338.681 338.429,443.685 "
     transform="matrix(0.33751753,0,0,0.33751753,22.000579,-0.21893071)"
     id="polygon3235"
     style="fill:#ffffff" /><path
     d="m 109.91682,145.82119 c 7.38321,-0.009 16.46447,-0.0199 21.63422,-0.0263 -1.14452,-5.1063 -3.30666,-14.75188 -5.1063,-22.78648 -5.07593,7.00619 -11.91573,16.44621 -16.52792,22.81281 z"
     id="path3237"
     style="fill:#e8d3ac;fill-opacity:1" /><path
     d="m 39.055338,120.08142 c 0.12657,1.78918 0.45869,3.495 1.24983,5.24199 0.78844,1.87086 2.57897,3.36842 4.53421,4.07654 1.87086,0.5407 3.86829,-0.12522 5.65612,-0.20825 -1.20629,0.20825 -2.49459,0.41649 -3.74442,0.62373 -0.37296,0.12522 -0.58154,-0.49851 -0.87282,-0.083 -3.16153,0.12387 -6.57248,-0.49953 -8.31913,-3.16153 -0.70676,-0.5407 -0.87417,-1.4979 -1.371,-2.20432 -0.12657,-0.4165 -0.37565,-0.9572 -0.33481,-1.28932 -0.20825,-0.37431 -0.16471,-0.78979 -0.29128,-1.20629 0.12657,-0.20825 -0.24909,-0.33346 -0.20825,-0.58154 0,-0.33347 -0.0408,-0.54172 -0.24774,-0.7503 1.16342,-0.24943 2.74436,-0.62373 3.94929,-0.45768 z"
     id="path3239"
     style="fill:#dadbdb" /><path
     d="m 50.620718,129.10867 h 0.16606 -0.16606 z"
     id="path3241"
     style="fill:#ffffff" /><rect
     width="0.083029315"
     height="0.04083962"
     x="123.3308"
     y="137.92767"
     id="rect3243" /><path
     d="M 94.219888,117.31142"
     id="path3245" /><path
     d="m 118.46447,1.7393393 c -0.54307,0.0462 -1.07331,0.005 -1.59781,-0.0209 V 25.40812 h 1.59781 V 1.7393393 z"
     id="path3247"
     style="fill:#dadbdb" /><path
     d="M 115.55338,1.7393393 V 25.40776 h 1.31328 V 1.7184193 c -0.44046,-0.0226 -0.87822,-0.0358 -1.31328,0.0209 z"
     id="path3249"
     style="fill:#ffffff" /><path
     d="m 127.46674,71.0111 c 2.79127,-1.55697 5.28283,-3.18785 7.13006,-5.83129 2.18981,-3.1379 3.86694,-6.57484 5.44112,-10.06106 0.40603,-0.9005 2.03422,-4.41 2.22019,-1.61232 0.0726,1.09018 -0.6936,2.7079 -1.12866,3.68907 -1.55697,3.51355 -4.43127,6.39967 -7.15638,9.03264 -0.60517,0.58526 -1.20494,1.14047 -1.82192,1.7021"
     id="path3251"
     style="fill:#ffffff" /></svg>