<?xml version="1.0" encoding="UTF-8" standalone="no"?>
<!-- Generator: Adobe Illustrator 13.0.2, SVG Export Plug-In . SVG Version: 6.00 Build 14948)  -->
<svg xmlns:dc="http://purl.org/dc/elements/1.1/" xmlns:cc="http://creativecommons.org/ns#" xmlns:rdf="http://www.w3.org/1999/02/22-rdf-syntax-ns#" xmlns:svg="http://www.w3.org/2000/svg" xmlns="http://www.w3.org/2000/svg" xmlns:sodipodi="http://sodipodi.sourceforge.net/DTD/sodipodi-0.dtd" xmlns:inkscape="http://www.inkscape.org/namespaces/inkscape" version="1.1" id="Layer_1" x="0px" y="0px" width="720px" height="593px" viewBox="0 0 719.999 592.56" enable-background="new 0 0 719.999 592.56" xml:space="preserve" inkscape:version="0.48.1 " sodipodi:docname="USMA-BlackKnights-Logo.svg"><metadata id="metadata3257"><rdf:RDF><cc:Work rdf:about=""><dc:format>image/svg+xml</dc:format><dc:type rdf:resource="http://purl.org/dc/dcmitype/StillImage"/><dc:title/></cc:Work></rdf:RDF></metadata><defs id="defs3255">
	

		
	
			
		
				
			
					
					
					
					
					
					
					
					
					
					
					
					
					
					
					
					
					
					
					
					
					
					
					
					
					
					
					
					
					
					
					
					
					
					
					
					
					
					
					
					
					
					
					
					
					
					
					
					
					
					
					
					
					
					
					
					
					
					
					
					
				</defs><sodipodi:namedview pagecolor="#ffffff" bordercolor="#666666" borderopacity="1" objecttolerance="10" gridtolerance="10" guidetolerance="10" inkscape:pageopacity="0" inkscape:pageshadow="2" inkscape:window-width="1680" inkscape:window-height="994" id="namedview3253" showgrid="false" inkscape:zoom="1.3102867" inkscape:cx="360" inkscape:cy="296.5" inkscape:window-x="-4" inkscape:window-y="-4" inkscape:window-maximized="1" inkscape:current-layer="Layer_1"/>
<polygon style="fill:#ffffff" id="polygon3133" points="21.081,582.333 186.226,362.962 159.483,352.607 166.628,314.158 168.183,255.919 323.429,250.603 425.312,247.111 531.304,276.693 447.495,348.173 475.839,585.044 336.323,585.759 316.862,533.037 213.972,534.244 171.046,582.9 "/><polygon style="fill:#e8d3ac;fill-opacity:1" id="polygon3135" points="299.198,255.541 214.979,255.787 168.183,255.919 171.046,272.38 185.351,297.419 206.558,305.654 216.124,303.142 215.39,297.642 211.28,289.017 206.354,282.033 200.601,275.048 193.937,269.517 402.308,269.294 405.011,282.396 417.171,280.251 414.312,255.205 "/><polygon style="fill:#e8d3ac;fill-opacity:1" id="polygon3137" points="427.901,319.603 419.151,319.826 410.015,323.892 452.233,568.587 355.64,568.587 341.327,517.072 200.378,517.072 163.175,565.009 48.698,565.724 142.046,441.666 213.972,346.072 202.491,347.185 20.796,575.025 171.046,582.9 213.972,534.244 324.159,536.392 336.323,585.759 475.839,585.044 "/><path inkscape:connector-curvature="0" id="path3139" d="m 289.6201,3.3405785 c 2.473,3.695 1.359,8.8709995 1.609,13.4299995 4.559,0.742 9.359,0.863 13.43001,2.836 1.113,-0.738 2.219,0.863 3.328,0.617 4.066,1.973 8.875,4.066 12.082,6.898 3.816,2.465 6.16,7.273 9.113,10.969 0.125,0.863 0.742,1.48 0.988,2.465 1.35501,3.082 2.09801,6.656 2.71501,9.984 -0.129,1.23 0.613,2.465 0.613,3.453 0.25,7.27 0.984,13.922 -0.125,21.688 0.496,1.848 3.328,1.109 4.809,1.48 1.602,-0.125 3.078,0.617 4.438,0.125 10.969,0.859 22.30501,0.121 33.27301,1.105 8.504,0.25 17.50401,-0.367 25.88301,-0.492 12.695,-0.738 25.01601,-4.684 36.10901,-9.117 5.547,-0.988 10.22701,-3.82 15.77701,-5.301 14.785,-4.93 29.57401,-9.859 44.73401,-12.449 0.371,0 0.984,-0.492 1.723,-0.367 20.95301,-4.934 41.53502,-0.25 61.37503,4.559 l 0.617,-0.125 8.258,2.59 c 0.617,-0.492 0.742,0.617 1.359,0.492 8.992,2.219 17.49601,5.422 25.87901,9.121 1.23,0.738 2.219,1.723 3.695,1.973 6.16,3.941 12.816,7.395 18.85501,11.336 0.988,0.125 1.359,1.234 2.219,1.48 4.312,2.34 7.766,6.16 12.078,8.258 11.95301,9.734012 24.28101,21.195012 34.50801,32.289012 1.359,1.23 2.711,2.836 4.07,4.438 17.62501,22.059 30.68801,45.723 39.31202,72.465 1.602,7.395 3.945,15.531 4.809,23.172 0.984,4.434 1.352,9.117 1.727,13.801 1.473,21.32 1.848,43.383 -1.113,65.195 -1.477,20.703 -8.133,42.273 -14.66401,61.746 -3.328,9.117 -6.781,18.238 -10.727,27.109 -4.062,8.262 -9.359,15.902 -14.168,23.664 -1.848,2.715 -4.31201,5.426 -6.16001,8.137 -15.902,19.965 -37.09801,35.371 -60.02302,45.723 -8.258,3.203 -17.25,6.531 -26.25001,7.762 -5.176,1.848 -10.23,1.355 -15.406,2.715 -8.996,1.477 -18.36301,0.984 -27.48001,3.203 -4.191,-0.371 -9.488,0.246 -13.93001,-0.617 -1.23,-0.125 -2.336,0.863 -2.953,1.973 -0.125,2.465 -1.238,4.559 -1.855,6.898 -1.719,6.906 -3.449,14.422 -2.215,21.32 0,7.027 0.496,14.914 2.465,21.695 -0.371,-0.125 -0.492,-0.125 -0.863,-0.125 l -0.492,0.492 c -1.23,-0.367 -3.207,-0.492 -4.684,0.371 -14.172,2.465 -25.88301,2.711 -39.93001,2.215 l 8.504,56.57 H 329.80411 l -13.438,-48.801 -97.85203,-0.125 c -10.59801,10.105 -19.71901,21.938 -29.45701,32.66 -3.20701,5.051 -8.38301,9.363 -11.58201,14.297 l -0.496,0.246 h -58.53902 v -0.246 l -0.984,0.246 H 3.3310012 l 70.1250248,-99.457 c -0.492001,-0.617 -1.355001,0 -2.094001,0 -2.465001,0.984 -4.930002,2.094 -7.641003,2.094 l -1.109,0.617 c -6.898003,-0.492 -13.805005,1.723 -20.707007,2.586 -0.613001,0.863 -1.848001,0.125 -2.586001,0.742 -6.406003,2.465 -13.680005,3.078 -19.352007,7.148 -4.062001,1.477 -8.133003,3.328 -11.7030041,5.914 -0.6170002,-2.094 0.6170002,-3.453 1.4730005,-5.547 3.5780016,-16.27 9.6170036,-32.535 20.7070076,-46.094 13.805004,-18.363 32.414011,-34.383 53.367018,-43.012 14.168005,-6.16 27.977011,-12.816 41.039011,-20.949 11.33601,-6.777 20.45701,-16.023 28.22301,-26.742 3.57,-4.684 6.03501,-9.738 6.41001,-15.531 l 43.00801,-5.422 h 0.496 c -24.03101,35 -48.93002,65.566 -73.82403,99.457 -16.887,21.812 -34.383007,44.492 -51.023013,66.43 l -25.883009,33.887 c -6.039002,8.754 -13.309004,16.766 -18.238006,25.762 16.887006,0.863 35.742012,0.121 53.609019,0.613 24.406009,0.371 48.680019,-0.863 72.590029,-0.121 3.699,-1.727 7.891,2.219 9.617,-3.203 8.871,-9.863 18.85501,-20.582 26.86301,-31.305 2.961,-4.191 7.027,-8.625 10.848,-12.324 0.859,0.246 2.34,0.246 2.832,0 h 123.24205 l -0.246,0.613 12.449,47.941 v 0.863 h 117.94504 l -10.355,-51.637 c -7.887,-3.203 -13.43001,-10.23 -20.70301,-14.91 l -5.055,-5.176 0.246,2.09 10.105,52.996 h -73.44902 l -2.344,-10.227 -9.48801,-42.027 -148.13705,-0.125 0.121,-0.121 -11.707,-0.246 -37.09802,51.391 c 0.121,-0.121 0.25,-0.121 0.121,-0.371 l -0.121,-0.121 -1.598,1.602 H 74.569026 l 25.754004,-34.262 c 21.68801,-31.672 45.96902,-61.992 70.49603,-93.293 l 40.67201,-54.105 c 4.06601,-5.297 8.12901,-10.844 12.19901,-16.516 4.434,-6.16 9.488,-11.582 13.801,-17.742 l 156.39506,-19.23 c 0.742,0 0.25,0.988 0.742,1.113 -0.371,2.34 0.121,4.93 0.984,7.516 -0.367,1.355 0.371,2.34 0.25,3.945 0,0.738 0.613,1.48 0.488,2.34 1.234,4.93 1.602,10.723 2.711,15.652 l 23.78501,125.215 v 0.371 c 4.934,-11.094 12.816,-21.816 20.09,-32.047 -2.34,-8.625 -2.953,-18.605 -5.793,-27.484 -0.863,-3.445 -1.23,-6.527 -2.215,-9.855 -1.852,-11.094 -3.449,-22.801 -5.297,-34.508 l -10.48,-56.199 77.64102,-29.332 c 3.824,-1.355 7.52001,-2.836 11.21501,-4.438 l -52.99202,-5.543 -42.52002,0.738 c -1.352,-6.781 -2.215,-13.312 -2.711,-19.969 l -234.65208,-0.121 c 3.695,3.699 9.734,7.148 13.06201,11.832 5.055,5.914 9.984,12.078 14.668,18.734 0.613,2.707 3.324,4.68 3.324,7.641 0.129,2.219 0.371,4.066 0.371,6.285 -13.309,2.832 -26.37101,6.285 -39.93001,8.504 l -1.23,-0.371 c -4.809,-8.012 -10.47701,-14.668 -17.74601,-20.336 l -2.711,1.234 c -7.395,7.023 -15.16,13.555 -22.30901,20.949 3.699,0.617 7.39501,0.984 10.72301,2.465 2.465,1.109 5.664,2.836 5.914,5.793 5.672,0.492 11.34,-1.48 17.254,-1.48 25.14501,-3.941 49.54302,-8.871 74.56203,-11.211 25.87901,-4.191 52.87102,-6.039 79.36703,-9.984 l 25.14501,-3.203 67.28902,-8.012 c 19.34801,-2.094 38.94501,-2.59 58.16802,-2.957 3.449,0.246 7.395,-0.125 10.723,0.863 0.367,0.617 -0.121,0.859 0.125,1.477 l -61.62102,23.664 -152.57405,20.086 -47.94102,6.41 c -26.25001,3.574 -51.27301,7.148 -77.02702,8.379 -1.973,0.988 -3.94101,0 -5.91801,0.492 -0.246,3.578 -1.105,7.027 -2.094,10.23 h 0.125 c -0.984,5.547 -7.273,9.492 -10.723,14.176 -2.34,1.477 -3.82,3.57 -5.797,5.418 -3.199,2.469 -7.391,4.809 -10.227006,7.027 -4.559001,1.234 -8.625003,3.449 -13.559005,4.191 -4.434001,0.738 -10.473003,2.586 -15.402005,1.23 -12.078004,0.617 -24.648009,-4.312 -29.82401,-15.773 -2.340001,-4.809 -3.941002,-9.242 -4.934002,-14.543 -1.352,-2.59 -0.242,-5.672 -2.090001,-8.012 -1.852,0.371 -4.934001,-0.859 -5.301002,1.723 -0.121,2.961 -2.219,5.922 -4.684001,7.398 -5.176002,2.094 -10.102004,1.355 -14.1720052,-1.234 -6.2890022,-3.82 -8.75400301,-11.582 -8.01200276,-18.363 0.25000009,-2.094 1.48000056,-4.805 2.96100106,-6.652 l 3.078001,-3.574 c 5.7930019,-3.328 11.9530039,-1.48 17.1290059,1.355 1.973001,0.984 2.961001,5.543 6.043002,3.449 6.160002,-0.492 12.566005,-1.23 18.484007,-2.34 1.234,-0.863 0.617,-2.465 1.602,-3.328 0.25,-1.234 1.969001,-1.477 2.586001,-2.59 3.328001,-5.543 7.520003,-10.844 10.230004,-16.762 2.711001,-3.203 5.426002,-7.516 4.809001,-11.215 -1.602,-12.199 -4.191001,-24.277 -8.016002,-35.738 l -0.488001,-3.328 c 6.406003,-3.082 14.047005,-2.957 20.824008,-5.176 3.699001,-4.438 3.328001,-10.723 6.039002,-15.527 0.25,-1.727 -0.246,-3.453 -0.863001,-5.055 -0.613,-0.492 -0.734,-2.098 -1.477,-2.465 -2.340001,-6.406 -5.547002,-12.941 -8.012003,-19.102 -0.863,-0.863 -1.352,-2.344 -0.734,-3.82 8.008003,-0.988 16.016005,0.371 24.273008,-0.742 2.094006,0.617 4.438006,-0.367 6.535006,-0.859 5.543,-9.859 12.199,-19.473 18.734,-28.84 -0.617,-3.945 -1.855,-8.133 -2.344,-12.078 -0.742,-7.023 -0.367,-13.188 0.984,-20.211 1.48,-5.055 2.465,-8.754 4.066,-13.559 2.223,-3.449 3.08601,-7.641 6.03901,-10.844 2.465,-3.82 6.039,-6.656 9.121,-10.105 5.789,-3.574 11.711,-8.383 18.36301,-10.23 6.41,-2.836001 13.188,-3.941001 20.09,-5.914001 12.32001,-0.371 24.03101,-0.863 36.72302,-1.973 1.605,0.492 3.207,-0.246 4.809,0.125 2.465,-0.371 5.176,-0.371 7.398,-1.113 0.734,-8.87101 2.215,-18.11701 2.215,-26.74201 0.617,-0.738 -0.367,-1.477 0.492,-2.094 0.988,-4.188 0.613,-7.641 2.59,-11.094 -0.25,-1.355 1.23,-2.586 0.984,-3.941 2.465,-6.656 5.793,-13.309 10.10501,-19.473 4.438,-8.383 13.926,-10.602 21.812,-13.066 0.25,-0.984 1.234,-0.492 1.73,-0.984 3.574,-2.711 1.719,-7.5200005 2.832,-11.4610005 0.863,-3.082 4.19101,-4.312 7.02301,-4.805 4.077,-0.12399 7.772,0.614 10.725,3.329 z"/><path style="fill:#ffffff" inkscape:connector-curvature="0" id="path3141" d="m 271.382,31.384 v -7.465 c -9.363,0.617 -19.227,5.055 -23.539,14.422 -9.609,15.402 -11.336,34.383 -11.582,53.363 l 0.367,0.617 c 1.48,0.367 3.082,1.105 4.191,0 0.27,-0.738 0.539,-1.426 0.805,-2.094 3.367,-21.507 6.758,-50.913 29.758,-58.843 z"/><path style="fill:#dadbdb" inkscape:connector-curvature="0" id="path3143" d="m 241.624,90.228 c 0.922,-2.363 1.809,-4.438 2.773,-7.027 5.422,-10.848 13.062,-25.02 26.984,-26.742 V 31.384 c -22.999,7.93 -26.39,37.336 -29.757,58.844 z"/><path style="fill:#e8d3ac;fill-opacity:1" inkscape:connector-curvature="0" id="path3145" d="m 547.944,60.154 c 16.387,4.191 33.395,7.148 47.816,15.898 16.266,9.613 32.535,19.965 45.969,32.66 14.047,13.062 27.359,28.098 37.344,44.367 6.898,11.34 12.32,22.426 18.73,33.395 0.863,3.453 2.957,6.039 3.453,9.492 2.219,2.836 2.707,6.41 4.066,9.859 0.734,3.574 1.727,7.148 2.465,11.094 0,4.805 1.727,9.734 1.727,14.664 0.863,1.23 0.121,3.082 0.613,4.438 1.355,18.977 2.465,37.59 -1.355,56.816 0.246,3.695 -1.48,7.762 -1.973,11.215 -0.863,9.734 -3.078,18.117 -4.559,27.48 -1.48,8.996 -4.438,18.238 -7.641,27.238 -1.48,2.465 -1.605,5.789 -4.07,8.012 l 0.375,0.246 c -0.992,0.738 -0.496,1.352 -1.234,2.215 -0.621,3.328 -3.574,7.891 -6.164,11.465 0,2.094 -2.219,3.574 -2.34,5.297 -5.918,8.137 -10.723,17.5 -17.5,25.387 -6.531,9.984 -15.16,18.734 -24.648,26.379 -10.723,8.133 -22.68,13.801 -34.879,18.977 -2.957,0.617 -5.301,1.973 -8.379,2.094 -0.863,-7.023 0.863,-14.664 2.215,-21.812 0.984,-2.957 0.984,-5.793 2.465,-8.504 0.129,-1.109 0.129,-2.094 0.371,-3.328 3.453,-15.16 9.367,-28.84 16.391,-42.52 8.383,-15.773 18.238,-30.809 27.727,-45.969 5.922,-8.008 10.113,-17.129 15.777,-25.266 6.16,-10.594 10.109,-21.812 12.695,-33.152 3.203,-9.609 2.344,-20.703 0.121,-30.688 -0.738,9.246 -0.859,18.98 -5.297,27.238 -4.93,21.441 -19.84,39.438 -33.77,56.57 -23.785,31.059 -54.223,61.25 -80.602,90.457 -10.965,11.465 -23.66,24.281 -32.414,37.836 -8.871,15.777 -15.281,32.66 -13.305,51.516 l 0.617,11.215 c -7.52,1.355 -14.297,0.617 -21.324,0.125 -9.367,-2.098 -18.613,-4.684 -26.496,-10.723 -7.887,-5.422 -16.148,-10.723 -22.676,-18.117 -3.578,-3.449 0.246,-6.777 0.984,-10.473 9.367,-18.488 21.078,-34.633 36.359,-49.055 26.988,-27.605 58.168,-47.57 88.238,-70.367 16.637,-12.324 32.539,-23.418 49.297,-35.867 16.516,-12.938 29.824,-29.578 37.715,-48.434 2.215,-6.41 4.926,-13.559 5.664,-20.211 2.59,-12.203 1.855,-23.91 2.469,-35.988 -0.125,-5.547 -0.125,-10.598 -0.371,-16.02 h 0.125 c 0.488,-6.164 0,-10.723 -0.742,-16.516 -1.602,-3.695 -0.367,-6.781 -2.219,-10.602 0,-1.23 0,-2.461 -0.863,-3.445 0.496,-1.113 -0.613,-1.852 -0.734,-2.836 -1.359,-6.777 -4.809,-13.312 -7.641,-18.98 -3.457,-4.805 -7.648,-9.613 -11.586,-13.805 -7.031,-6.902 -14.176,-13.184 -22.184,-18.359 -7.641,-6.043 -17.008,-9.863 -25.641,-13.93 -12.816,-4.93 -25.383,-13.309 -39.434,-16.02 -22.68,-6.902 -48.68,-4.316 -73.086,-3.453 -22.305,2.344 -45.105,7.395 -65.684,15.406 -18.855,6.656 -37.344,15.531 -52.254,30.562 -3.824,-5.668 -1.113,-13.184 1.727,-18.609 0.488,-1.23 1.848,-2.094 2.336,-3.449 -2.094,0 -3.328,1.852 -5.047,2.957 -9.121,7.641 -16.273,17.379 -22.555,27.238 -0.246,-4.191 0.242,-7.395 0,-11.465 7.395,-7.391 9.609,-18.359 10.227,-28.098 -0.738,-1.355 -0.738,-2.586 -1.48,-3.941 -0.367,-1.848 -1.723,-3.945 -2.465,-5.918 -2.344,-1.848 -3.695,-5.051 -5.914,-7.023 2.098,-1.109 5.418,-0.492 7.891,0 7.883,-0.617 17.129,0.859 24.891,0.984 8.996,1.109 17.254,1.23 25.883,1.48 6.531,-0.742 11.953,0.492 18.363,-1.109 8.75,-1.23 16.145,-3.945 24.523,-6.285 3.086,-1.355 6.531,-1.973 9.492,-3.449 8.992,-3.086 17.746,-7.273 26.867,-8.875 5.301,-2.344 11.086,-3.82 16.141,-6.164 3.824,-1.602 8.137,-2.34 12.328,-3.449 13.309,-4.07 27.359,-4.312 41.652,-1.727 l 6.417,1.729 z"/><polygon style="fill:#dadbdb" id="polygon3147" points="281.612,158.74 281.612,158.748 281.741,158.869 "/><path style="fill:#ffffff" inkscape:connector-curvature="0" id="path3149" d="m 280.878,85.173 -42.273,23.168 c -2.711,-0.617 -1.234,2.711 -1.602,4.066 l 2.602,2.703 c 16.113,-5.973 28.207,-24.863 47.062,-18.969 10.277,2.281 19.488,8.793 28.633,14.641 1.609,-0.93 3.211,-1.859 4.77,-2.812 L 280.878,85.173 z"/><path style="fill:#dadbdb" inkscape:connector-curvature="0" id="path3151" d="m 239.604,115.111 42.008,43.629 v -55.328 l 8.383,0.121 -0.125,21.199 c 8.348,-4.738 17.199,-9.223 25.43,-13.949 -9.145,-5.848 -18.355,-12.359 -28.633,-14.641 -18.855,-5.894 -30.949,12.996 -47.063,18.969 z"/><path style="fill:#e8d3ac;fill-opacity:1" inkscape:connector-curvature="0" id="path3153" d="m 214.819,102.056 c -2.59,8.383 1.473,16.887 5.543,24.031 3.203,2.836 6.898,5.18 11.09,5.672 -6.039,5.543 -10.719,12.816 -13.555,20.457 -2.711,-1.359 -5.176,-4.191 -7.637,-6.164 -7.77,-5.789 -15.902,-12.57 -24.648,-16.883 -10.234,-3.082 -21.57,-5.668 -32.168,-5.793 -8.016,0.246 -12.57,8.133 -17.875,12.449 3.082,-7.148 8.383,-14.793 15.777,-19.227 3.695,-2.465 7.395,-5.301 11.707,-6.777 9.367,-4.809 19.965,-5.918 30.688,-6.531 3.695,-1.234 6.656,0.367 10.352,-1.234 3.574,0.246 6.168,-0.988 9.984,-0.617 0.367,-0.121 0.985,0.371 0.742,0.617 z"/><rect id="rect3155" height="32.785" width="8.5039997" y="103.658" x="266.58099"/><rect id="rect3157" height="16.757999" width="6.5349998" y="108.095" x="254.25301"/><path style="fill:#dadbdb" inkscape:connector-curvature="0" id="path3159" d="m 531.921,131.88 c -8.625,-3.699 -12.328,8.625 -19.723,12.324 -7.391,2.465 -13.551,-1.23 -19.719,-8.625 -1.23,-1.234 -4.93,2.461 -7.391,2.461 -20.953,2.465 -44.371,-17.25 -62.855,2.465 -2.465,-4.926 -6.164,-9.855 -11.09,-11.09 -4.824,-0.805 -10.168,-0.547 -14.672,1.434 l 0.496,0.539 c 3.574,4.312 9.367,5.176 15.16,5.176 0.613,0.246 1.727,0.246 1.359,1.109 -3.703,2.098 -1.977,6.41 -6.168,8.504 -8.504,5.422 -17.25,11.586 -28.098,9.242 -0.121,0.988 0.984,1.852 0.617,3.207 1.359,2.465 3.82,3.449 6.656,3.816 6.527,-0.984 12.078,-4.312 17.992,-6.777 0.734,-0.367 1.602,-0.863 2.344,-0.246 0,0.617 -0.25,0.988 -0.371,1.48 -1.605,1.727 -1.852,3.941 -3.207,5.789 -1.352,6.656 -7.148,12.574 -12.078,16.395 l 0.125,0.246 c 21.441,0.367 36.973,-15.777 50.777,-31.059 1.848,0.863 1.602,-2.34 3.449,-1.848 1.105,0.613 1.105,1.973 1.48,2.957 -1.727,8.133 -1.848,16.27 -7.395,23.047 -0.371,1.109 -1.727,1.602 -1.727,2.711 2.344,-0.863 5.051,-0.863 7.395,-2.094 7.766,-4.93 17.008,-9.613 20.457,-19.227 1.23,-1.23 1.359,-4.809 3.941,-3.82 0.129,3.082 1.359,6.16 1.73,9.488 -0.617,4.438 0.863,10.352 -0.738,15.035 4.062,-0.738 8.254,-1.848 11.824,-3.695 9.863,-3.328 12.574,-14.297 15.777,-22.801 10.602,-0.121 20.582,3.449 29.207,9.121 1.234,0.617 1.848,2.215 2.961,2.59 2.59,-6.902 7.023,-13.191 7.152,-20.832 -0.086,-0.582 -0.16,-1.168 -0.234,-1.75 -1.574,-2.631 -3.503,-4.627 -5.433,-5.272 z"/><path style="fill:#ffffff" inkscape:connector-curvature="0" id="path3161" d="m 411.144,129.416 c 4.926,1.234 8.625,6.164 11.09,11.09 18.484,-19.715 41.902,0 62.855,-2.465 2.461,0 6.16,-3.695 7.391,-2.461 6.168,7.395 12.328,11.09 19.719,8.625 7.395,-3.699 11.098,-16.023 19.723,-12.324 1.93,0.645 3.859,2.641 5.438,5.273 -0.371,-2.98 -0.73,-5.922 -1.863,-8.602 -1.727,-2.957 -5.301,-2.465 -8.137,-2.344 -4.926,-0.121 -7.27,4.934 -9.855,8.137 -2.59,2.957 -6.414,4.809 -9.617,6.902 l -6.652,-1.109 c -3.082,-1.109 -2.465,-4.684 -4.684,-6.531 -3.207,-2.465 -7.641,-1.727 -11.215,-0.371 -3.945,2.957 -9.488,1.477 -13.559,-0.246 -8.992,-2.219 -17.746,-7.148 -27.48,-6.531 -7.395,1.602 -16.023,1.48 -20.707,8.504 -3.695,0 -5.668,-3.945 -8.133,-5.918 l -3.449,-2.094 c -0.863,-0.371 -1.727,-0.492 -2.465,-1.109 -5.426,-1.23 -10.848,-0.492 -15.406,2.465 l 2.336,2.543 c 4.502,-1.981 9.845,-2.239 14.67,-1.434 z"/><path style="fill:#dadbdb" inkscape:connector-curvature="0" id="path3163" d="m 273.765,181.912 c -6.867,-10.227 -13.34,-20.602 -19.387,-30.684 -3.449,-4.477 -5.641,-9.434 -8.281,-14.078 -6.821,19.305 7.953,40.699 27.668,44.762 z"/><path style="fill:#ffffff" inkscape:connector-curvature="0" id="path3165" d="m 246.097,137.15 c -1.141,-2 -2.352,-3.945 -3.797,-5.762 -0.863,1.109 -1.973,1.848 -2.094,3.324 -2.715,2.344 -3.699,6.043 -4.684,9.371 -0.246,0.246 -0.742,0.613 -0.375,0.863 -2.582,6.281 0.129,13.922 3.328,19.223 7.52,13.559 23.543,18.98 37.344,20.828 -0.695,-1.023 -1.367,-2.059 -2.055,-3.086 -19.714,-4.062 -34.488,-25.456 -27.667,-44.761 z"/><path style="fill:#ffffff" inkscape:connector-curvature="0" id="path3167" d="m 170.44,154.806 c 0.367,-1.391 0.527,-2.91 1.859,-3.824 4.062,-4.312 10.105,-5.793 16.266,-5.914 -0.738,-1.602 -0.984,-3.574 -2.34,-4.805 -3.086,1.23 -6.285,2.586 -8.879,4.684 -8.625,5.543 -17.25,11.336 -24.52,18.359 l -0.129,-0.121 -12.938,12.938 c -9.98,9.859 -18.363,21.941 -27.238,33.277 3.398,-0.309 6.75,-0.473 10.078,-0.594 11.361,-20.594 29.302,-38.308 47.841,-54 z"/><path style="fill:#dadbdb" inkscape:connector-curvature="0" id="path3169" d="m 166.874,181.919 c -1.598,-0.371 -4.062,-0.988 -4.312,-2.836 l 4.312,-0.984 c 5.297,-0.125 10.602,-0.988 15.777,0.613 -5.426,-6.656 -14.793,-12.445 -13.062,-22.059 0.438,-0.527 0.668,-1.172 0.852,-1.848 -18.539,15.691 -36.48,33.406 -47.84,54 5.973,-0.215 11.887,-0.285 17.898,-0.762 5.918,0.121 13.559,-1.234 19.473,-0.492 -1.848,-3.207 -6.16,-4.438 -9.121,-7.148 -1.477,-1.48 -3.941,-1.234 -5.176,-3.082 0,-1.109 -0.863,-1.848 0.25,-2.711 7.148,-2.465 14.664,-3.328 22.184,-2.59 5.176,1.359 10.23,2.961 15.16,4.93 -4.313,-5.667 -10.356,-10.597 -16.395,-15.031 z"/><path style="fill:#ffffff" inkscape:connector-curvature="0" id="path3171" d="m 610.21,162.623 -0.648,-3.012 c -2.098,-8.137 -9.609,-15.527 -17.625,-17.129 l -2.465,-0.621 c -1.598,0.125 -1.969,-0.738 -3.449,-0.492 -0.559,1.746 -1.176,3.484 -1.781,5.215 10.945,0.464 21.722,6.14 25.968,16.039 z"/><path style="fill:#dadbdb" inkscape:connector-curvature="0" id="path3173" d="m 584.241,146.583 c -0.727,2.066 -1.434,4.117 -2.039,6.125 10.719,-1.48 21.199,2.465 28.102,10.352 l -0.094,-0.438 c -4.246,-9.898 -15.023,-15.574 -25.969,-16.039 z"/><path style="fill:#dadbdb" inkscape:connector-curvature="0" id="path3175" d="m 245.655,198.318 c -1.824,-2.816 -3.832,-5.582 -5.57,-8.145 -7.77,-9.609 -14.297,-19.102 -23.176,-27.484 -4.922,-4.23 -9.672,-8.996 -14.824,-13.344 9.113,20.656 22.266,42.196 43.57,48.973 z"/><path style="fill:#ffffff" inkscape:connector-curvature="0" id="path3177" d="m 202.085,149.345 c -2.199,-1.855 -4.465,-3.641 -6.863,-5.262 2.832,11.457 9.488,20.457 16.145,30.438 8.75,10.602 19.102,23.91 33.152,26.621 1.109,0.371 2.836,0 2.957,0.25 v -0.125 c -0.57,-0.984 -1.188,-1.969 -1.82,-2.949 -21.305,-6.777 -34.458,-28.317 -43.571,-48.973 z"/><path style="fill:#dadbdb" inkscape:connector-curvature="0" id="path3179" d="m 548.147,153.107 c 1.219,3.902 1.727,8.012 1.645,12.297 0.121,0.984 -0.617,2.836 -0.25,4.066 -0.367,0.246 -0.367,0.492 -0.125,0.738 -0.242,0.125 -0.242,0.371 -0.488,0.371 -0.496,3.574 -1.234,6.285 -2.219,9.488 3.57,-3.82 6.16,-8.875 8.746,-13.555 0.863,-1.727 0.375,-4.07 1.727,-5.547 1.355,-0.125 1.602,1.477 2.219,2.34 1.109,1.848 0.246,3.945 1.848,5.672 0.246,1.602 0.496,3.82 0.863,5.543 0.367,1.48 0.496,2.465 0.367,3.82 l 1.359,-3.941 c 1.113,-4.637 2.086,-10.602 0.926,-15.734 -4.793,-3.808 -10.61,-6.32 -16.618,-5.558 z"/><path style="fill:#ffffff" inkscape:connector-curvature="0" id="path3181" d="m 545.968,147.779 c 0.902,1.727 1.613,3.508 2.18,5.328 6.008,-0.762 11.824,1.75 16.617,5.559 -0.387,-1.691 -0.996,-3.289 -1.91,-4.723 -3.7,-5.547 -11.34,-5.672 -16.887,-6.164 z"/><path style="fill:#dadbdb" inkscape:connector-curvature="0" id="path3183" d="m 301.933,215.33 c -0.078,-0.008 -0.148,0 -0.23,-0.016 0.066,0.055 0.14,0.051 0.23,0.016 z"/><path style="fill:#dadbdb" inkscape:connector-curvature="0" id="path3185" d="m 360.862,151.724 c -0.129,-0.371 -1.234,-0.867 -1.234,-1.602 -6.656,-2.344 -11.094,3.82 -13.312,8.996 -2.711,4.066 -5.422,8.504 -6.781,13.309 -2.586,3.941 -3.938,8.504 -6.402,12.449 -1.852,2.586 -4.566,4.684 -5.797,7.516 -1.355,1.852 -3.816,3.449 -5.051,5.18 -2.957,2.215 -4.809,5.789 -7.887,8.008 -3.574,3.449 -7.641,5.547 -10.105,8.996 -0.961,-1.066 -1.824,0.535 -2.359,0.754 0.637,0.043 1.195,-0.148 1.742,-0.258 0.617,0.121 0.617,-1.113 1.355,-0.496 1.727,-0.738 4.312,-1.727 6.406,-2.219 4.543,-1.941 8.773,-4.402 12.758,-7.23 14.641,-14.461 33.527,-30.219 30.258,-49.828 0,-1.234 -3.703,2.465 -4.934,3.695 -11.09,19.719 -19.715,41.902 -39.434,52.992 19.719,-11.09 28.344,-33.273 39.434,-52.992 1.23,-1.23 4.934,-4.93 4.934,-3.695 3.27,19.609 -15.617,35.367 -30.258,49.828 7.91,-5.617 14.824,-12.711 21.137,-20.25 3.203,-3.207 5.051,-7.148 7.516,-10.477 3.573,-7.395 8.628,-14.543 8.014,-22.676 z"/><path inkscape:connector-curvature="0" id="path3187" d="m 491.374,153.693 h 0.242 -0.242 z"/><path style="fill:#ffffff" inkscape:connector-curvature="0" id="path3189" d="m 591.073,207.06 c 8.633,-11.094 25.883,-12.324 38.207,-4.93 4.152,2.77 7.535,6.32 9.914,10.645 0.203,-2.871 0.191,-5.715 -0.176,-8.43 -2.836,-6.531 -10.352,-8.012 -16.395,-9.117 -7.27,0 -14.172,0.863 -20.949,3.203 -0.25,0.738 -0.984,0.738 -1.723,0.617 -5.176,2.344 -10.359,4.805 -14.672,8.258 -2.832,3.945 -4.68,8.258 -2.953,13.062 1.102,2.012 2.922,3.094 4.941,3.73 -3.487,-6.116 0.154,-13.386 3.806,-17.038 z"/><path style="fill:#ffffff" inkscape:connector-curvature="0" id="path3191" d="m 609.472,251.478 c -1.848,0.402 -3.777,0.684 -5.207,2.043 -0.992,1.234 -0.992,3.328 -0.496,4.805 2.824,3.508 6.949,2.621 10.98,2.043 -2.617,-2.368 -3.91,-5.707 -5.277,-8.891 z"/><path style="fill:#ffffff" inkscape:connector-curvature="0" id="path3193" d="m 610.3,225.443 c -2.418,0.441 -4.875,0.781 -6.898,2.074 -1.48,0.613 -2.219,2.219 -2.219,3.699 0.371,1.723 0.984,3.941 3.082,4.559 2.184,-0.078 4.461,0.215 6.66,0.254 0.726,-3.528 0.105,-7.059 -0.625,-10.586 z"/><path style="fill:#ffffff" inkscape:connector-curvature="0" id="path3195" d="m 611.554,207.74 c -3.824,0.359 -7.57,0.797 -10.129,3.879 -0.613,2.219 -1.352,4.809 0,7.023 1.113,2.34 3.703,2.219 5.793,2.711 0.766,0.172 1.535,0.25 2.312,0.301 -0.855,-4.641 -1.117,-9.278 2.024,-13.914 z"/><path style="fill:#ffffff" inkscape:connector-curvature="0" id="path3197" d="m 610.437,238.81 c -3.047,0.598 -6.121,1.133 -8.516,3.25 -0.863,1.109 -0.984,2.836 -0.496,4.066 1.309,2.965 4.098,2.969 6.934,2.891 -0.012,-0.02 -0.02,-0.039 -0.027,-0.059 -0.993,-3.964 1.206,-7.132 2.105,-10.148 z"/><path style="fill:#dadbdb" inkscape:connector-curvature="0" id="path3199" d="m 638.522,218.642 c 0.301,-1.945 0.535,-3.91 0.672,-5.867 -2.379,-4.324 -5.762,-7.875 -9.914,-10.645 -12.324,-7.395 -29.574,-6.164 -38.207,4.93 -3.652,3.652 -7.293,10.922 -3.805,17.039 1.812,0.57 3.781,0.777 5.531,0.953 -0.984,-0.742 -0.121,-1.727 -1.109,-2.465 -0.488,-3.574 -1.105,-8.137 0.375,-11.707 5.047,-6.902 15.398,-7.641 23.168,-6.781 0.863,0.371 2.336,0.371 2.336,1.605 -0.121,0.863 -0.984,0.984 -1.473,1.477 -1.48,0.281 -3.02,0.414 -4.543,0.559 -3.141,4.637 -2.879,9.273 -2.023,13.914 2.609,0.164 5.238,-0.086 7.426,1.059 -1.855,1.727 -4.23,2.281 -6.656,2.73 0.73,3.527 1.352,7.059 0.625,10.586 1.398,0.027 2.766,-0.043 4.059,-0.379 0.25,0.863 -0.492,1.848 -1.477,2.465 -1.004,0.285 -2.035,0.492 -3.07,0.695 -0.898,3.016 -3.098,6.184 -2.105,10.148 0.008,0.02 0.016,0.039 0.027,0.059 1.164,-0.031 2.34,-0.078 3.418,0.066 0.617,-0.125 1.48,0.125 1.359,0.863 -1.031,0.879 -2.324,1.234 -3.664,1.531 1.367,3.184 2.66,6.523 5.277,8.891 1.781,-0.258 3.543,-0.457 5.164,-0.191 2.961,-1.852 6.289,-2.957 9.488,-4.312 5.793,-3.82 8.504,-10.109 9.488,-16.516 2.223,-7.394 -1.847,-13.683 -0.367,-20.707 z"/><path style="fill:#dadbdb" inkscape:connector-curvature="0" id="path3201" d="m 368.253,220.123 c -4.68,1.355 -9.367,2.711 -14.297,3.328 -1.727,-4.684 -1.109,-9.984 -1.109,-14.422 0.742,-0.492 1.727,0.125 2.59,0.125 7.641,-0.988 15.898,-0.617 23.047,-4.312 5.914,-2.711 11.953,-3.945 17.379,-8.012 -7.641,8.875 -15.778,19.597 -27.61,23.293 z"/><polygon id="polygon3203" points="306.261,212.482 306.511,212.482 306.632,212.728 "/><path style="fill:#dadbdb" inkscape:connector-curvature="0" id="path3205" d="m 205.077,215.193 c 0.742,4.438 -0.738,9.613 -4.312,12.078 -6.777,2.586 -14.297,0.246 -19.227,-4.559 -2.711,-3.082 -6.039,-4.934 -8.504,-8.262 10.235,-1.722 21.203,0.001 32.043,0.743 z"/><path style="fill:#ffffff" inkscape:connector-curvature="0" id="path3207" d="m 300.964,215.685 h 0.367 -0.367 z"/><path style="fill:#ffffff" inkscape:connector-curvature="0" id="path3209" d="m 299.116,216.427 h 0.242 -0.242 z"/><path style="fill:#dadbdb" inkscape:connector-curvature="0" id="path3211" d="m 156.276,222.462 c 4.559,3.82 8.383,8.875 9.613,14.914 -0.125,1.727 0.121,2.957 -0.742,4.312 -1.602,1.852 -3.945,3.082 -6.527,3.328 -11.219,-1.477 -19.969,-9.488 -30.57,-12.57 -2.832,-0.125 -5.418,-0.246 -8.375,-0.371 -0.617,-3.945 -1.234,-8.871 0,-12.691 7.762,-0.492 16.762,-0.25 25.016,-0.742 4.191,0.125 8.382,1.606 11.585,3.82 z"/><path style="fill:#ffffff" inkscape:connector-curvature="0" id="path3213" d="m 84.425,219.751 c 2.961,6.41 4.93,13.312 8.625,19.352 1.785,-0.516 3.527,-1.102 5.27,-1.68 -3.242,-5.781 -4.059,-12.164 -6.809,-18.07 -2.477,0.059 -4.875,0.172 -7.086,0.398 z"/><path style="fill:#dadbdb" inkscape:connector-curvature="0" id="path3215" d="m 108.331,219.505 c -5.355,-0.086 -11.297,-0.277 -16.82,-0.152 2.75,5.906 3.566,12.289 6.809,18.07 2.844,-0.938 5.68,-1.855 8.66,-2.387 -0.001,-5.425 0.496,-10.23 1.351,-15.531 z"/><polygon id="polygon3217" points="155.163,243.908 155.538,243.908 155.538,244.033 "/><path style="fill:#dadbdb" inkscape:connector-curvature="0" id="path3219" d="m 129.901,251.181 -2.09,-0.617 c -8.539,-0.379 -17.074,-0.527 -25.273,0.484 -0.883,1.973 -2.629,3.684 -2.648,5.652 9.004,-0.137 17.684,-0.734 26.441,-0.836 l 0.367,0.242 9.984,-0.121 c -2.222,-1.972 -4.558,-3.202 -6.781,-4.804 z"/><path style="fill:#ffffff" inkscape:connector-curvature="0" id="path3221" d="m 95.272,252.287 c -0.492,1.48 -1.23,2.961 -1.109,4.438 1.926,0.023 3.832,0.004 5.727,-0.023 0.02,-1.969 1.766,-3.68 2.648,-5.652 -2.457,0.303 -4.883,0.698 -7.266,1.237 z"/><path style="fill:#ffffff" inkscape:connector-curvature="0" id="path3223" d="m 80.851,300.724 c 0,-9.121 -1.066,-18.242 -3.172,-27.359 -1.047,0.074 -2.094,0.148 -3.109,0.246 -0.742,7.27 2.832,13.555 3.57,20.824 2.344,6.535 -1.848,11.957 -3.816,17.504 -4.074,8.379 -8.633,16.762 -10.48,25.883 -0.367,2.832 0,5.543 0.246,8.504 0.863,1.477 1.359,3.324 2.344,4.805 1.273,2.258 3.43,3.258 5.734,3.66 -8.177,-18.739 8.683,-36.407 8.683,-54.067 z"/><path style="fill:#dadbdb" inkscape:connector-curvature="0" id="path3225" d="m 95.515,338.189 c -3.695,-2.59 -5.297,-7.273 -4.434,-11.094 0.738,-5.418 5.297,-9.734 9.984,-11.215 -6.902,-0.859 -12.574,-5.543 -15.777,-11.828 l 0.121,-0.125 c -1.23,-1.23 -1.105,-3.203 -1.969,-4.559 -0.246,-1.234 -0.742,-3.453 0.492,-4.191 4.312,-0.984 9.492,-0.371 13.805,-1.477 -6.406,-3.824 -14.297,-6.906 -18.117,-14.176 8.871,-2.465 19.102,-2.586 27.359,-6.777 -9.328,0.223 -19.754,-0.047 -29.301,0.617 2.105,9.117 3.172,18.238 3.172,27.359 0,17.66 -16.859,35.328 -8.684,54.066 1.727,0.301 3.531,0.262 5.109,0.16 -2.34,-0.617 -3.699,-2.715 -5.176,-4.438 0,-0.863 -1.723,-1.727 -0.242,-2.59 2.465,0.617 5.047,1.973 7.145,2.59 8.75,1.848 19.473,2.957 27.977,-0.863 3.078,-1.973 4.191,-6.16 4.062,-9.242 -5.417,1.111 -11.335,0.369 -15.526,-2.217 z"/><path inkscape:connector-curvature="0" id="path3227" d="m 389.573,283.224 -136.305,18.609 c -3.945,-6.902 -9.488,-13.559 -15.406,-18.859 h 151.219 l 0.492,0.25 z"/><rect style="fill:#ffffff" id="rect3229" height="0.25" width="0.125" y="286.79401" x="357.655"/><path style="fill:#e8d3ac;fill-opacity:1" inkscape:connector-curvature="0" id="path3231" d="m 561.007,322.044 c 4.68,6.656 9.98,13.68 12.816,21.688 l 0.121,1.727 c -3.449,3.699 -8.137,4.809 -11.582,7.891 -0.867,-6.039 -3.824,-10.969 -6.289,-16.516 -7.641,-14.172 -17.129,-28.102 -28.836,-38.699 -3.453,-2.836 -6.781,-4.93 -10.23,-7.27 18.734,0.492 33.152,17.25 44,31.179 z"/><path style="fill:#dadbdb" inkscape:connector-curvature="0" id="path3233" d="m 448.729,293.08 c -0.617,0.742 -2.219,1.48 -3.449,1.973 -7.023,2.836 -13.93,5.672 -21.32,7.395 -4.441,1.48 -9,3.82 -13.312,4.07 -3.082,1.598 -7.023,1.969 -10.602,2.586 -10.719,1.727 -19.711,2.957 -31.055,4.07 -30.688,4.434 -62.113,8.008 -93.172,12.566 -30.688,2.344 -61.742,8.754 -92.922,11.707 -16.391,2.098 -33.645,4.316 -50.16,5.055 l -5.176,-0.121 c 0.617,-3.328 -2.223,-7.148 1.355,-9.246 10.719,-3.449 21.691,-3.324 32.781,-5.668 18.609,-3.207 37.465,-6.285 56.441,-9.242 20.711,-1.973 41.906,-5.301 62.977,-7.395 26.504,-1.848 52.016,-8.996 78.266,-10.969 19.961,-2.219 38.945,-3.453 58.664,-5.301 10.474,-0.617 19.716,-0.984 30.684,-1.48 z"/><polygon style="fill:#ffffff" id="polygon3235" points="314.886,338.681 338.429,443.685 238.726,443.806 "/><path style="fill:#e8d3ac;fill-opacity:1" inkscape:connector-curvature="0" id="path3237" d="m 260.479,432.689 c 21.875,-0.027 48.781,-0.059 64.098,-0.078 -3.391,-15.129 -9.797,-43.707 -15.129,-67.512 -15.039,20.758 -35.304,48.727 -48.969,67.59 z"/><path style="fill:#dadbdb" inkscape:connector-curvature="0" id="path3239" d="m 50.53,356.427 c 0.375,5.301 1.359,10.355 3.703,15.531 2.336,5.543 7.641,9.98 13.434,12.078 5.543,1.602 11.461,-0.371 16.758,-0.617 -3.574,0.617 -7.391,1.234 -11.094,1.848 -1.105,0.371 -1.723,-1.477 -2.586,-0.246 -9.367,0.367 -19.473,-1.48 -24.648,-9.367 -2.094,-1.602 -2.59,-4.438 -4.062,-6.531 -0.375,-1.234 -1.113,-2.836 -0.992,-3.82 -0.617,-1.109 -0.488,-2.34 -0.863,-3.574 0.375,-0.617 -0.738,-0.988 -0.617,-1.723 0,-0.988 -0.121,-1.605 -0.734,-2.223 3.447,-0.739 8.131,-1.848 11.701,-1.356 z"/><path style="fill:#ffffff" inkscape:connector-curvature="0" id="path3241" d="m 84.796,383.173 h 0.492 -0.492 z"/><rect id="rect3243" height="0.121" width="0.24600001" y="409.302" x="300.22198"/><path inkscape:connector-curvature="0" id="path3245" d="M 213.972,348.22"/><path style="fill:#dadbdb" inkscape:connector-curvature="0" id="path3247" d="m 285.804,5.802 c -1.609,0.137 -3.18,0.016 -4.734,-0.062 v 70.188 h 4.734 V 5.802 z"/><path style="fill:#ffffff" inkscape:connector-curvature="0" id="path3249" d="m 277.179,5.802 v 70.125 h 3.891 V 5.74 c -1.305,-0.067 -2.602,-0.106 -3.891,0.062 z"/><path style="fill:#ffffff" inkscape:connector-curvature="0" id="path3251" d="m 312.476,211.041 c 8.27,-4.613 15.652,-9.445 21.125,-17.277 6.488,-9.297 11.457,-19.48 16.121,-29.809 1.203,-2.668 6.027,-13.066 6.578,-4.777 0.215,3.23 -2.055,8.023 -3.344,10.93 -4.613,10.41 -13.129,18.961 -21.203,26.762 -1.793,1.734 -3.57,3.379 -5.398,5.043"/>
</svg>