<?xml version="1.0" encoding="UTF-8" standalone="no"?>
<!-- Created with Inkscape (http://www.inkscape.org/) -->

<svg
   xmlns:dc="http://purl.org/dc/elements/1.1/"
   xmlns:cc="http://creativecommons.org/ns#"
   xmlns:rdf="http://www.w3.org/1999/02/22-rdf-syntax-ns#"
   xmlns:svg="http://www.w3.org/2000/svg"
   xmlns="http://www.w3.org/2000/svg"
   version="1.1"
   width="280"
   height="200"
   viewBox="0 0 280 200.00001"
   id="LOGOS"
   xml:space="preserve"><metadata
     id="metadata3058"><rdf:RDF><cc:Work
         rdf:about=""><dc:format>image/svg+xml</dc:format><dc:type
           rdf:resource="http://purl.org/dc/dcmitype/StillImage" /><dc:title></dc:title></cc:Work></rdf:RDF></metadata><defs
     id="defs3056" /><g
     transform="matrix(0.65015431,0,0,0.65015431,-0.43495941,8.4294609)"
     id="g3042"><path
       d="m 266.046,60.807 c 5.171,0.68 22.936,4.136 28.906,6.493 l -59.706,72.185 -67.7,-78.825 c 5.391,-1.393 20.807,-2.958 27.762,-3.351 -0.564,-5.712 -3.657,-34.475 -3.657,-34.475 -37.22,1.271 -98.857,17.31 -136.277,50.23 2.658,3.187 16.231,20.71 20.833,26.153 5.764,-5.54 18.721,-14.324 23.004,-16.289 l 83.554,94.757 c 0,0 -0.145,40.574 -0.073,42.576 -6.413,-0.563 -24.361,-3.182 -28.771,-4.563 -0.837,5.135 -5.673,28.635 -6.512,32.707 50.911,12.187 106.298,8.433 141.92,-1.102 -3.604,-15.809 -6.94,-25.655 -8.143,-32.011 -6.973,1.559 -26.421,4.605 -30.227,4.888 l 0.053,-42.46 79.326,-96.662 c 0,0 16.601,8.897 25.362,17.699 4.13,-5.155 13.011,-17.858 19.446,-26.126 C 345.49,48.739 308.663,33.47 270.069,27.007 c -0.556,8.474 -3.342,27.958 -4.023,33.8 z"
       id="path3044"
       style="fill:#ffffff" /><g
       id="g3046"><path
         d="M 216,0.432 C 97.079,0.432 0.669,62.855 0.669,139.853 c 0,77 96.41,139.42 215.331,139.42 118.929,0 215.336,-62.42 215.336,-139.42 C 431.336,62.855 334.929,0.432 216,0.432 z M 355.7,98.76 C 346.938,89.958 330.338,81.061 330.338,81.061 l -79.326,96.662 -0.053,42.46 c 3.806,-0.282 23.254,-3.329 30.227,-4.888 1.202,6.355 4.539,16.202 8.143,32.011 -35.622,9.534 -91.009,13.288 -141.92,1.102 0.839,-4.072 5.675,-27.572 6.512,-32.707 4.41,1.381 22.358,3.999 28.771,4.563 -0.072,-2.002 0.073,-42.576 0.073,-42.576 L 99.21,82.93 C 94.927,84.895 81.97,93.679 76.206,99.219 71.604,93.776 58.031,76.253 55.373,73.066 92.793,40.145 154.431,24.107 191.65,22.836 c 0,0 3.092,28.763 3.657,34.475 -6.955,0.393 -22.371,1.958 -27.762,3.351 l 67.7,78.825 59.707,-72.187 c -5.971,-2.357 -23.735,-5.813 -28.906,-6.493 0.681,-5.842 3.467,-25.326 4.023,-33.8 38.594,6.462 75.421,21.732 105.077,45.626 -6.435,8.269 -15.316,20.972 -19.446,26.127 z"
         id="path3048"
         style="fill:#003468" /><path
         d="m 384.245,262.252 c 0,-1.767 -0.729,-2.948 -2.182,-3.55 -0.816,-0.336 -2.103,-0.504 -3.841,-0.504 h -4.92 v 14 h 2.439 v -5.505 h 1.938 c 1.301,0 2.216,0.15 2.74,0.453 0.874,0.522 1.313,1.586 1.313,3.202 v 1.107 l 0.055,0.453 c 0.017,0.059 0.021,0.11 0.035,0.153 0.017,0.045 0.028,0.09 0.031,0.136 h 2.391 l -0.104,-0.169 c -0.063,-0.118 -0.113,-0.359 -0.138,-0.728 -0.022,-0.374 -0.046,-0.722 -0.046,-1.044 v -1.022 c 0,-0.705 -0.245,-1.43 -0.748,-2.169 -0.505,-0.739 -1.31,-1.195 -2.396,-1.372 0.872,-0.139 1.555,-0.367 2.048,-0.676 0.925,-0.585 1.385,-1.517 1.385,-2.765 z m -3.891,2.394 c -0.531,0.21 -1.316,0.306 -2.363,0.306 h -2.248 v -5.012 h 2.116 c 1.378,0 2.381,0.17 3.011,0.516 0.623,0.345 0.936,1.015 0.936,2.023 -10e-4,1.065 -0.488,1.79 -1.452,2.167 z"
         id="path3050"
         style="fill:#003468" /><path
         d="m 378.467,252.48 c -3.515,0 -6.523,1.243 -9.004,3.729 -2.507,2.496 -3.754,5.5 -3.754,9.016 0,3.553 1.238,6.577 3.711,9.071 2.493,2.502 5.503,3.759 9.047,3.759 3.541,0 6.564,-1.257 9.063,-3.759 2.502,-2.506 3.751,-5.533 3.751,-9.071 0,-3.527 -1.249,-6.535 -3.751,-9.016 -2.499,-2.485 -5.522,-3.729 -9.063,-3.729 z m 7.848,20.595 c -2.149,2.157 -4.754,3.236 -7.832,3.236 -3.064,0 -5.68,-1.079 -7.826,-3.236 -2.135,-2.152 -3.206,-4.767 -3.206,-7.835 0,-3.031 1.076,-5.63 3.223,-7.776 2.16,-2.158 4.765,-3.24 7.81,-3.24 3.056,0 5.671,1.082 7.832,3.24 2.147,2.146 3.223,4.745 3.223,7.776 -10e-4,3.069 -1.076,5.683 -3.224,7.835 z"
         id="path3052"
         style="fill:#003468" /></g></g></svg>