<?xml version="1.0" encoding="UTF-8" standalone="no"?>
<!-- Created with Inkscape (http://www.inkscape.org/) -->

<svg
   xmlns:dc="http://purl.org/dc/elements/1.1/"
   xmlns:cc="http://creativecommons.org/ns#"
   xmlns:rdf="http://www.w3.org/1999/02/22-rdf-syntax-ns#"
   xmlns:svg="http://www.w3.org/2000/svg"
   xmlns="http://www.w3.org/2000/svg"
   version="1.1"
   width="280"
   height="200"
   viewBox="0 0 280 200"
   id="Layer_1"
   xml:space="preserve"><metadata
     id="metadata59"><rdf:RDF><cc:Work
         rdf:about=""><dc:format>image/svg+xml</dc:format><dc:type
           rdf:resource="http://purl.org/dc/dcmitype/StillImage" /><dc:title></dc:title></cc:Work></rdf:RDF></metadata><defs
     id="defs57" /><g
     transform="matrix(0.83332293,0,0,0.83332293,47.974645,-4.1666147)"
     id="g3"><rect
       width="17.082001"
       height="13.611"
       x="24.094999"
       y="204.923"
       id="rect5"
       style="fill:#848483" /><path
       d="m 228.169,179.099 -7.024,-8.347 c -4.417,-5.252 -6.947,-9.683 -9.561,-14.768 1.715,-0.013 3.454,-0.27 5.458,-0.821 l 8.096,-2.209 -6.594,-4.944 0.219,-3.338 c 0.622,-9.722 -2.261,-19.317 -8.578,-28.604 0.918,-0.5 1.836,-1.14 2.806,-1.926 l 3.673,-2.999 -3.493,-3.21 c -4.064,-3.733 -6.145,-6.013 -7.544,-8.279 l 3.903,1.489 -0.597,-6.555 c -0.944,-10.376 -2.857,-16.158 -8.925,-26.01 3.474,-5.287 3.686,-10.876 3.91,-16.748 l 0.321,-7.445 -5.426,1.461 c -0.481,0.131 -0.873,0.244 -1.22,0.343 -0.443,-10.594 -4.533,-24.588 -9.76,-32.026 -3.37,-4.793 -7.993,-7.326 -13.374,-7.326 -10.145,0 -20.944,8.703 -30.473,16.382 -3.03,2.443 -5.9,4.758 -8.263,6.35 -1.085,0.17 -3.897,0.222 -6.196,0.263 -2.414,0.045 -5.123,0.096 -7.836,0.253 -3.069,0.183 -6.164,0.514 -8.732,0.79 -2.112,0.228 -3.833,0.424 -4.681,0.446 -2.498,-0.43 -9.384,-6.543 -20.469,-18.17 -1.358,-1.425 -2.495,-2.613 -3.304,-3.419 L 79.759,5 77.698,11.382 c -0.196,0.604 -0.392,1.229 -0.581,1.891 C 72.35,9.749 66.693,6.153 61.431,5.829 L 60.568,5.803 c -14.582,0 -20.292,21.406 -22.321,33.05 l -6.187,-4.838 -1.156,6.79 C 29.973,46.279 30.5,52.224 32.339,57.894 30.615,57.502 28.83,57.04 26.698,56.427 l -8.626,-2.469 4.854,10.523 c 1.917,4.222 3.756,8.273 6.459,12.142 -9.933,5.98 -17.724,16.915 -20.886,29.692 l -1.579,6.385 6.434,-1.383 c 0.854,-0.183 1.702,-0.334 2.542,-0.459 -7.512,11.307 -11.229,22.025 -11.06,31.927 l 0.203,11.801 2.908,-3.801 c -0.79,7.512 -0.106,15.589 2.029,24.514 l 2.818,11.801 5.936,-13.354 c 0.889,-2.003 1.785,-4.032 2.719,-6.048 0.321,2.118 0.68,4.045 1.008,5.816 1.849,9.991 2.966,16.026 -6.109,29.099 l -4.199,6.061 7.358,0.386 c 7.653,0.437 13.185,-0.295 18.543,-2.89 -0.187,4.071 -0.424,7.628 -0.951,11.865 l -0.793,6.344 6.103,-1.913 c 1.413,-0.449 3.335,-1.143 5.38,-2.003 -0.729,1.784 -1.621,3.672 -2.712,5.766 l -2.309,4.43 4.793,1.413 h 0.003 l -4.26,1.823 8.646,3.813 c 17.699,7.795 29.991,4.905 40.373,-9.065 9.361,8.938 23.249,15.281 35.496,15.923 l 8.302,0.437 -2.934,-4.289 8.815,2.479 -2.479,-7.371 c -0.244,-0.719 -0.623,-1.926 -1.021,-3.352 0.379,0.18 0.757,0.36 1.143,0.54 l 2.813,1.322 2.035,-2.337 c 1.425,-1.644 2.94,-3.608 4.424,-5.715 0.668,2.671 1.098,5.329 1.143,7.333 l 0.142,6.202 5.656,-2.556 c 8.411,-3.788 15.095,-7.846 20.18,-12.264 -0.019,0.193 -0.038,0.373 -0.058,0.553 l -0.969,9.516 7.569,-5.843 c 1.239,-0.95 2.305,-1.824 3.256,-2.697 l 0.365,7.448 6.8,-8.745 c 2.003,-2.568 4.264,-5.611 6.408,-9.04 l 1.162,11.608 6.369,-11.853 c 6.562,-12.225 8.411,-25.144 5.586,-39.32 1.547,0.321 3.075,0.565 4.854,0.835 l 10.789,1.642 z"
       id="path7"
       style="fill:#848483" /><path
       d="m 151.532,130.723 c 0.295,-0.237 2.671,-2.401 3.608,-3.339 0.648,-0.642 1.297,-1.502 1.938,-2.363 1.349,1.073 1.221,0.925 2.022,1.477 0.982,0.681 1.528,1.168 2.563,1.644 -1.483,1.104 -2.344,1.611 -4.039,2.157 -2.266,0.725 -5.739,0.494 -6.092,0.424 m 32.938,-5.06 c -1.624,4.661 -4.745,9.583 -8.192,14.013 8.006,7.628 6.768,16.168 6.768,17.118 0,9.155 -14.852,14.741 -22.345,10.145 -6.639,7.474 -16.667,3.325 -16.667,3.325 0.744,2.324 1.315,4.906 2.973,7.641 1.085,1.785 1.823,2.723 3.28,4.212 -4.854,-1.399 -8.237,-3.621 -11.634,-8.051 -1.843,-2.401 -2.267,-5.342 -3.05,-6.434 -0.616,-0.86 -7.833,-3.801 -9.053,-3.942 -4.954,-0.578 -7.677,0.86 -11.946,3.03 -7.64,3.865 -8.745,12.341 -8.745,12.341 -0.732,-2.157 -0.514,-4.854 0.443,-7.718 2.267,-6.78 8.289,-11.172 8.289,-11.172 -8.109,0.835 -16.912,5.728 -21.015,12.893 -0.449,0.796 -3.782,5.843 -5.06,10.029 0.321,-9.593 3.229,-15.782 9.374,-21.663 3.711,-3.545 8.739,-5.445 11.615,-6.446 -12.841,-3.865 -24.803,4.019 -24.803,4.019 4.559,-6.613 12.848,-9.528 19.981,-9.528 6.125,0 9.919,1.194 18.221,4.752 7.099,3.03 19.567,10.016 27.862,8.886 3.243,-0.449 3.166,-4.609 2.324,-7.281 -4.153,-0.308 -6.491,-0.629 -10.562,-1.502 -6.138,-1.322 -10.813,-3.377 -15.287,-4.982 -3.031,-1.092 -16.896,-7.396 -23.311,-13.882 -2.408,-2.427 -2.6,-4.459 -3.57,-7.566 l -5.708,-0.295 c 4.963,-5.497 9.631,-5.962 16.283,-2.992 15.843,7.092 26.341,13.178 39.028,11.509 9.811,-1.297 12.938,-2.696 17.149,-6.898 0,0 3.557,4.844 6.523,5.101 2.921,-3.663 8.353,-12.642 7.826,-19.072 -1.155,2.828 -3.467,6.43 -5.836,8.899 -1.426,1.483 -3.666,3.236 -3.666,3.236 0.969,-2.902 1.283,-6.834 1.136,-9.194 -2.105,4.674 -5.983,8.912 -5.983,8.912 0,0 -1.972,-0.758 -3.775,-1.657 -1.811,-0.893 -7.166,-4.192 -9.49,-8.616 -1.624,-3.092 -2.24,-5.551 -2.15,-8.681 0.314,-10.064 17.464,-8.886 17.464,-8.886 -5.965,-4.385 -12.187,-8.18 -18.78,-11.949 -1.593,-0.906 -3.98,-2.203 -6.562,-3.535 -0.63,-2.527 -0.81,-4.013 -0.899,-6.61 -0.18,-5.316 1.933,-11.756 1.933,-11.756 0.476,2.716 0.796,4.655 1.823,7.403 0.206,-0.328 0.925,-1.747 1.079,-2.096 1.349,-3.117 4.796,-7.547 9.683,-8.87 0,0 -2.8,3.827 -4.077,6.549 -1.67,3.563 -2.807,9.698 -2.807,9.698 0,0 2.967,-3.175 6.261,-3.878 2.479,-0.526 3.402,-0.276 3.402,-0.276 -3.018,1.608 -7.05,6.141 -5.778,10.026 0.565,-1.849 2.588,-4.366 4.693,-5.095 6.511,-2.27 8.481,1.743 11.461,6.093 1.072,1.567 3.146,3.744 4.314,4.662 l -3.595,0.055 c -0.97,0.966 -2.293,2.083 -3.66,2.799 6.356,4.09 16.598,8.783 18.536,16.267 2.378,9.161 -0.838,14.393 -1.718,16.91 z M 70.173,145.712 c -6.01,4.713 -10.273,9.027 -14.722,16.372 1.727,-9.143 6.106,-16.205 14.665,-21.881 7.975,-5.291 15.904,-6.884 23.936,-5.368 -10.03,2.067 -15.834,4.546 -23.879,10.877 z m 3.64,-41.263 c -5.56,1.502 -8.751,3.114 -13.374,6.27 1.875,-3.371 3.287,-4.726 6.241,-6.764 2.754,-1.907 4.636,-2.703 7.923,-3.345 -3.788,-1.021 -5.496,-1.291 -9.978,-1.342 -3.043,-0.036 -5.046,0.17 -8.193,0.834 4.052,-3.782 11.699,-4.446 19.737,-3.043 6.253,1.092 11.474,3.288 15.178,5.93 -6.336,-0.54 -11.729,-0.113 -17.534,1.46 z M 68.35,87.306 c 8.392,-0.221 12.546,2.119 20.642,2.264 2.363,0.045 3.352,0.051 6.061,-0.055 0,0 -3.75,3.091 -3.839,3.124 1.823,1.133 4.745,3.307 7.107,6.09 2.228,2.623 3.557,4.366 4.636,7.493 -5.194,-4.8 -8.629,-7.127 -15.018,-10.158 C 75.932,90.366 67.451,89.03 54.275,90.761 58.378,88.221 62.327,87.473 68.35,87.306 z M 60.908,45.29 c -1.561,-3.059 -3.018,-8.6 -3.018,-8.6 4.097,6.122 11.166,12.799 11.166,12.799 -1.566,-3.226 -5.291,-16.915 -3.724,-25.163 0.642,3.4 4.372,12.389 9.611,18.688 3.544,4.26 10.607,9.474 10.607,9.474 0,0 -2.87,-0.151 -4.642,-0.571 -3.024,-0.723 -4.905,-1.888 -7.281,-3.288 0,0 1.162,3.38 6.742,7.271 -3.339,0.433 -6.036,0.591 -7.705,0.539 0.109,2.145 0.36,4.183 0.925,6.325 -3.84,-3.307 -8.797,-9.882 -12.681,-17.474 z m 32.456,3.018 c 0,0 -1.727,-2.533 -3.3,-4.446 0,0 4.437,0.94 7.236,2.559 1.618,0.934 2.53,1.493 3.961,2.69 -2.53,0.918 -4.501,1.727 -6.337,2.754 -7.178,4.01 -16.706,13.044 -16.706,13.044 0,0 2.42,-4.215 4.745,-6.996 3.474,-4.164 5.849,-6.479 10.401,-9.605 z m 38.957,49.625 c -0.141,0.119 -5.862,1.978 -10.848,1.592 -0.841,-0.067 -1.303,-0.238 -2.125,-0.469 1.99,-0.565 3.05,-1.111 4.908,-2.01 2.742,-1.335 3.653,-2.283 5.548,-4.238 0.001,10e-4 2.126,4.145 2.517,5.125 z m -13.21,-35.735 c 7.348,4.53 11.56,12.504 11.56,12.504 0,0 -1.36,-5.233 -3.133,-9.374 -2.479,-5.82 -7.227,-10.876 -7.227,-10.876 3.349,0.963 6.052,2.439 8.408,5.493 8.526,10.986 9.277,23.483 9.277,23.483 l -4.584,4.141 c -0.431,-1.714 -0.212,-2.09 -0.918,-4.568 -1.959,6.061 -7.686,11.551 -14.546,11.743 -6.826,0.183 -12.835,-5.394 -12.835,-5.394 l -6.222,-0.289 c 1.868,-0.992 3.634,-1.612 5.888,-2.78 4.95,-2.578 5.509,-6.299 12.09,-7.647 4.013,-0.822 4.688,-0.051 6.1,0.045 -0.925,-1.393 -6.343,-9.034 -18.999,-7.001 -8.109,1.303 -13.413,10.029 -22.158,9.107 -2.253,-0.237 -3.653,-0.857 -5.348,-2.257 2.504,0.157 4.726,-0.013 6.722,-0.526 8.989,-2.312 12.97,-11.419 23.5,-12.187 3.653,-0.27 8.61,0.128 10.292,1.557 -2.915,-6.462 -13.201,-8.231 -13.201,-8.231 4.946,-1.459 10.32,-0.028 15.334,3.057 z m 42.072,1.137 c 1.322,0.758 2.003,1.127 3.107,2.375 2.389,2.687 3.095,4.732 4.289,9.631 -1.374,-1.782 -2.292,-2.709 -4.064,-4.103 -2.184,-1.724 -3.499,-2.353 -6.215,-3.502 1.013,-1.679 2.883,-4.401 2.883,-4.401 z m 22.209,29.252 c 0,0 5.933,9.801 13.586,12.498 0,0 -3.808,-4.995 -5.715,-8.514 -6.362,-11.743 -7.583,-19.217 -17.034,-29.41 -15.101,-16.273 -29.945,-21.563 -29.945,-21.563 9.316,-1.137 11.724,-10.007 21.098,-14.749 1.176,-0.591 5.869,-2.642 8.091,-2.799 -6.036,5.063 -13.266,11.313 -15.423,19.073 8.411,-3.236 14.774,-14.549 14.774,-14.549 0,0 -0.424,3.958 -0.431,3.99 -1.644,6.469 -4.097,10.125 -9.381,14.649 4.643,1.399 9.895,-2.966 11.757,-5.384 1.072,-1.403 2.401,-4.623 2.401,-4.623 0,0 0.302,3.795 0.237,4.424 -0.591,5.583 -1.566,8.061 -5.207,13.413 5.611,4.693 13.778,15.011 17.015,22.228 0,0 3.987,1.191 6.035,2.591 -0.192,-2.597 -3.679,-11.984 -9.92,-16.7 7.012,-3.018 8.302,-9.48 8.302,-9.48 0,0 -2.998,0.953 -4.963,1.399 -2.735,0.62 -7.114,1.079 -7.114,1.079 0,0 3.416,-6.633 3.558,-10.02 0.397,-9.297 -0.964,-15.413 -4.521,-23.275 -1.933,-4.273 -3.519,-6.957 -6.902,-7.329 -5.933,-0.646 -15.242,8.295 -18.119,10.132 -7.736,4.931 -14.016,13.679 -23.499,12.498 0,0 -6.915,-0.164 -11.323,0 -5.265,0.189 -12.745,1.104 -13.477,1.079 -6.036,-0.218 -16.957,-12.639 -20.488,-16.813 -1.079,5.548 0.976,11.689 2.697,16.594 0,0 -3.352,-3.194 -4.938,-5.66 -2.067,-3.229 -3.5,-7.785 -3.5,-7.785 0,0 -8.09,-5.917 -10.215,-7.458 -2.132,-1.55 -6.036,-4.52 -9.381,-3.929 -4.732,0.834 -7.917,8.732 -9.592,14.7 -3.236,11.532 -2.915,20.049 -2.915,20.049 0,0 2.459,2.305 4.212,3.547 2.26,1.618 5.06,2.481 5.06,2.481 -1.182,-3.124 -3.018,-7.647 -2.581,-12.427 4.064,7.191 7.454,12.267 14.022,17.949 -9.496,0.077 -17.259,-2.289 -26.318,-8.324 0.321,5.095 5.175,9.377 9.817,11.605 3.243,1.563 8.912,2.44 8.912,2.44 -3.955,1.037 -9.072,1.018 -14.844,0.498 -3.743,-0.328 -5.811,-0.761 -9.49,-1.608 1.958,3.746 6.793,8.295 6.793,8.295 0,0 6.909,-1.782 11.429,-1.833 5.464,-0.061 8.668,0.478 13.811,2.34 -11.114,-0.835 -22.119,1.538 -32.887,8.112 -5.965,3.637 -9.914,7.567 -12.571,12.748 6.093,-4.241 8.135,-4.905 13.855,-6.719 4.481,-1.419 7.146,-1.939 11.827,-2.321 -3.371,2.302 -5.207,3.727 -8.25,6.449 -8.308,7.41 -13.823,14.405 -17.592,22.485 6.684,-5.39 19.262,-11.182 27.146,-11.865 0,0 -4.142,2.43 -8.655,5.974 -15.583,12.25 -20.867,23.131 -23.667,36.383 5.387,-7.718 9.669,-13.728 18.434,-19.394 2.896,-1.862 4.623,-2.806 7.763,-4.199 -7.994,7.605 -11.641,15.516 -12.822,25.211 -0.674,5.47 -0.032,11.21 0.642,14.754 3.512,-9.823 10.459,-19.454 18.498,-26.055 3.923,-3.21 16.867,-9.287 27.031,-8.863 -11.024,3.136 -17.708,9.492 -20.405,12.947 -3.878,4.956 -8.308,13.894 -11.101,26.093 -0.648,-4.584 -0.771,-7.307 -0.006,-11.878 0.539,-3.223 1.399,-6.998 2.915,-10.556 -2.376,2.376 -5.683,5.625 -8.199,9.811 -5.394,8.938 -4.328,16.771 -5.817,27.044 -0.976,6.678 -2.696,10.234 -4.969,13.355 6.042,-1.721 10.742,-5.843 13.804,-12.393 2.01,-4.302 2.157,-11.968 2.157,-11.968 0,0 1.824,6.062 2.267,10.029 1.297,11.634 0.642,15.948 -0.218,22.408 5.714,-3.121 9.599,-7.538 11.968,-16.052 1.881,-6.742 0.969,-10.671 0.969,-10.671 0,0 3.018,4.417 2.479,11.21 -0.25,3.249 -1.747,7.692 -3.018,10.671 0,0 0.918,5.83 0.757,9.58 -0.231,5.329 -2.908,13.367 -2.908,13.367 3.557,-0.539 10.908,-3.557 13.682,-12.995 1.085,-3.711 -0.424,-10.17 -0.424,-10.17 0,0 4.071,2.94 4.097,11.197 0.045,10.953 -8.09,19.827 -8.09,19.827 9.708,-0.745 18.119,-9.478 18.517,-19.673 0.212,-5.419 -0.796,-10.53 -0.616,-15.718 0.103,-3.005 1.47,-7.448 1.47,-7.448 0,0 0.475,19.994 14.594,33.465 4.058,3.878 9.708,6.793 12.058,7.846 0,0 -2.26,-7.396 -2.369,-9.143 0,0 -2.78,-4.482 -3.974,-7.32 -4.334,-10.35 -2.453,-18.414 -1.939,-18.748 0.449,4.199 1.111,5.406 2.26,8.732 3.891,11.197 9.278,16.693 17.904,22.947 -0.758,-6.999 -1.194,-13.252 2.241,-21.753 0.911,-2.286 1.907,-3.802 3.384,-5.304 0,0 -0.912,3.596 -0.887,5.933 0.059,4.431 0.758,7.114 3.603,10.773 0.392,-3.441 0.642,-4.841 1.361,-8.077 0.648,-2.915 2.587,-5.277 2.587,-5.277 0,0 3.346,7.756 3.448,15.409 4.854,-7.551 4.931,-12.674 2.658,-20.34 -0.886,-2.992 -3.461,-7.204 -3.461,-7.204 0,0 4.359,3.082 7.493,7.499 8.372,11.84 10.312,24.09 10.312,24.09 l 0.905,-5.2 c 0.109,-4.854 0.225,-10.119 -1.701,-13.432 0,0 2.517,2.272 3.524,4.135 2.594,4.738 2.376,10.876 2.376,10.876 0,0 4.199,-11.736 1.11,-20.648 -0.648,-1.875 -2.157,-4.61 -2.157,-4.61 0.758,0.54 2.613,1.823 3.846,3.391 4.752,6.035 4.469,11.467 4.854,17.451 0,0 6.446,-7.833 4.79,-18.196 -1.445,-9.053 -9.753,-15.204 -9.753,-15.204 2.382,0.539 10.317,4.392 15.203,13.586 2.697,5.06 3.775,14.64 3.775,14.64 0,0 2.401,-6.96 1.728,-15.5 -0.867,-10.89 -5.477,-15.229 -5.477,-15.229 3.749,0.514 9.573,11.673 10.407,14.806 0.797,2.992 2.017,7.68 2.017,7.68 l -0.07,0.372 c 2.395,-6.562 0.969,-14.267 -2.396,-22.383 -1.349,-3.248 -2.33,-5.021 -4.372,-7.884 3.235,1.721 4.963,3.249 7.435,6.035 4.964,5.611 5.188,8.398 7.897,14.832 0.449,-12.084 -1.997,-19.827 -6.928,-28.084 -4.309,-7.217 -8.726,-18.312 -8.726,-18.312 0,0 3.146,4.828 5.599,7.563 2.922,3.262 6.035,5.894 8.373,7.474 -2.222,-3.608 -5.246,-10.004 -8.264,-16.553 -1.978,-4.276 -4.848,-11.095 -4.848,-11.095 0,0 4.546,4.058 5.277,4.636 4.861,3.839 7.879,5.496 7.879,5.496 -1.4,-3.57 -3.037,-5.805 -4.122,-9.824 -0.553,-2.019 -0.842,-4.073 -1.06,-5.268 0,0 6.709,4.754 10.202,5.833 -2.594,-13.657 -20.771,-25.545 -23.03,-40.948 z"
       id="path9"
       style="fill:#ffffff;fill-rule:evenodd" /><path
       d="m 177.612,110.186 c -0.128,0.979 0.553,1.849 1.342,2.979 0.662,-0.754 1.721,-1.156 2.01,-2.315 0.289,-1.168 0.219,-2.157 -0.693,-3.005 -1.38,0.081 -2.485,1.015 -2.659,2.341"
       id="path11"
       style="fill:#848483;fill-rule:evenodd" /><path
       d="m 123.814,139.06 c -1.872,-1.168 -3.368,-3.21 -5.396,-3.21 -0.905,0 -1.304,0.539 -1.304,1.232 0,3.069 4.539,4.88 8.267,6.678 1.708,0.822 3.975,1.554 4.571,1.644 -0.893,-1.656 -1.085,-2.773 -1.335,-4.225 -1.837,-0.643 -3.056,-1.028 -4.803,-2.119"
       id="path13"
       style="fill:#ffffff;fill-rule:evenodd" /><path
       d="m 169.747,140.807 c -0.943,-0.231 -5.766,0.372 -4.636,2.581 0.347,0.667 2.157,3.068 2.864,5.175 0.334,1.015 0.392,2.337 0.218,3.826 -2.105,-4.314 -4.988,-7.974 -6.529,-9.425 -1.779,-1.683 -6.363,-0.219 -6.928,3.223 -0.636,3.93 2.612,6.96 4.706,10.324 1.624,2.62 3.698,5.137 6.741,5.663 3.531,0.604 6.53,-1.168 7.904,-1.9 4.771,-3.095 4.02,-6.164 2.94,-10.093 -1.289,-4.739 -5.713,-9.002 -7.28,-9.374"
       id="path15"
       style="fill:#ca0000;fill-rule:evenodd" /><path
       d="m 144.495,142.887 c -1.426,-0.077 -1.945,0.526 -2.935,0.758 -1.271,0.295 -4.854,-2.389 -4.854,-2.389 0,0 -1.072,-0.206 -1.772,-0.219 -0.738,-0.013 -1.143,0.09 -1.868,0.219 0,0.115 3.21,7.641 10.613,7.91 0,0 2.312,0.064 2.876,0.115 2.434,0.167 3.153,0.103 5.471,0.95 0,0 -3.242,-7.114 -7.531,-7.344"
       id="path17"
       style="fill:#ffffff;fill-rule:evenodd" /><path
       d="m 163.931,90.484 c 0,0 2.208,-0.863 2.824,-3.618 -1.906,1.178 -3.743,1.416 -6.112,1.624 0.674,0.383 3.288,1.994 3.288,1.994"
       id="path19"
       style="fill:#848483;fill-rule:evenodd" /><path
       d="m 162.081,85.021 c 0,-1.21 -0.97,-2.183 -2.183,-2.183 -1.201,0 -2.184,0.973 -2.184,2.183 0,1.201 0.982,2.183 2.184,2.183 1.213,0 2.183,-0.983 2.183,-2.183"
       id="path21"
       style="fill:#ffffff;fill-rule:evenodd" /><path
       d="m 115.047,87.204 c 1.213,0 2.183,-0.982 2.183,-2.183 0,-1.21 -0.97,-2.183 -2.183,-2.183 -1.201,0 -2.177,0.973 -2.177,2.183 0,1.2 0.976,2.183 2.177,2.183"
       id="path23"
       style="fill:#ffffff;fill-rule:evenodd" /><path
       d="m 112.999,88.045 c 0,0 1.688,3.162 4.488,3.056 4.751,-0.177 4.867,-4.334 4.867,-4.334 -1.065,0.896 -2.825,1.505 -4.803,1.724 -1.779,0.196 -3.03,0 -4.552,-0.446"
       id="path25"
       style="fill:#848483;fill-rule:evenodd" /><path
       d="m 169.593,102.825 c -6.145,0.327 -13.258,-0.206 -13.694,7.107 -0.271,4.43 3.769,7.435 3.769,7.435 0,0 2.376,2.157 4.854,2.157 3.673,0 3.994,-5.499 1.079,-6.359 -2.818,-0.835 -3.454,0.337 -4.314,1.939 -1.394,-1.281 -2.286,-2.742 -2.369,-4.632 -0.199,-4.623 6.754,-4.742 10.889,-4.742 5.394,0 7.654,0.973 7.59,-0.527 -0.099,-2.163 -3.817,-2.596 -7.804,-2.378"
       id="path27"
       style="fill:#848483;fill-rule:evenodd" /><g
       id="g29"><path
         d="m 197.279,132.973 c 1.085,4.02 2.722,6.254 4.122,9.824 0,0 -3.018,-1.657 -7.879,-5.496 -0.731,-0.578 -5.277,-4.636 -5.277,-4.636 0,0 2.87,6.818 4.848,11.095 3.018,6.549 6.042,12.944 8.264,16.553 -2.338,-1.58 -5.451,-4.212 -8.373,-7.474 -2.452,-2.735 -5.599,-7.563 -5.599,-7.563 0,0 4.417,11.095 8.726,18.312 4.931,8.257 7.377,16 6.928,28.084 -2.709,-6.434 -2.934,-9.221 -7.897,-14.832 -2.472,-2.786 -4.199,-4.314 -7.435,-6.035 2.042,2.863 3.023,4.636 4.372,7.884 3.364,8.116 4.79,15.821 2.396,22.383 l 0.07,-0.372 c 0,0 -1.22,-4.688 -2.017,-7.68 -0.834,-3.133 -6.658,-14.292 -10.407,-14.806 0,0 4.609,4.34 5.477,15.229 0.674,8.54 -1.728,15.5 -1.728,15.5 0,0 -1.078,-9.58 -3.775,-14.64 -4.886,-9.194 -12.821,-13.047 -15.203,-13.586 0,0 8.308,6.151 9.753,15.204 1.656,10.363 -4.79,18.196 -4.79,18.196 -0.386,-5.984 -0.103,-11.416 -4.854,-17.451 -1.232,-1.567 -3.088,-2.851 -3.846,-3.391 0,0 1.509,2.735 2.157,4.61 3.089,8.912 -1.11,20.648 -1.11,20.648 0,0 0.218,-6.138 -2.376,-10.876 -1.008,-1.862 -3.524,-4.135 -3.524,-4.135 1.926,3.313 1.811,8.577 1.701,13.432 l -0.905,5.2 c 0,0 -1.939,-12.25 -10.312,-24.09 -3.134,-4.417 -7.493,-7.499 -7.493,-7.499 0,0 2.575,4.212 3.461,7.204 2.272,7.666 2.195,12.789 -2.658,20.34 -0.103,-7.653 -3.448,-15.409 -3.448,-15.409 0,0 -1.938,2.362 -2.587,5.277 -0.72,3.236 -0.97,4.636 -1.361,8.077 -2.845,-3.659 -3.544,-6.343 -3.603,-10.773 -0.025,-2.337 0.887,-5.933 0.887,-5.933 -1.477,1.502 -2.473,3.018 -3.384,5.304 -3.436,8.501 -2.999,14.754 -2.241,21.753 -8.626,-6.254 -14.013,-11.75 -17.904,-22.947 -1.149,-3.326 -1.811,-4.533 -2.26,-8.732 -0.514,0.334 -2.395,8.398 1.939,18.748 1.194,2.838 3.974,7.32 3.974,7.32 0.109,1.746 2.369,9.143 2.369,9.143 -2.35,-1.053 -8,-3.968 -12.058,-7.846 C 88.3,208.62 87.825,188.626 87.825,188.626 c 0,0 -1.368,4.443 -1.47,7.448 -0.18,5.188 0.828,10.299 0.616,15.718 -0.398,10.195 -8.809,18.928 -18.517,19.673 0,0 8.135,-8.874 8.09,-19.827 -0.026,-8.257 -4.097,-11.197 -4.097,-11.197 0,0 1.509,6.459 0.424,10.17 -2.774,9.438 -10.125,12.456 -13.682,12.995 0,0 2.677,-8.038 2.908,-13.367 0.161,-3.75 -0.757,-9.58 -0.757,-9.58 1.271,-2.979 2.767,-7.422 3.018,-10.671 0.539,-6.793 -2.479,-11.21 -2.479,-11.21 0,0 0.912,3.929 -0.969,10.671 -2.37,8.514 -6.254,12.931 -11.968,16.052 0.86,-6.46 1.515,-10.774 0.218,-22.408 -0.443,-3.968 -2.267,-10.029 -2.267,-10.029 0,0 -0.147,7.666 -2.157,11.968 -3.063,6.55 -7.763,10.672 -13.804,12.393 2.273,-3.121 3.994,-6.678 4.969,-13.355 1.49,-10.272 0.424,-18.106 5.817,-27.044 2.517,-4.186 5.823,-7.435 8.199,-9.811 -1.516,3.558 -2.376,7.333 -2.915,10.556 -0.764,4.571 -0.642,7.294 0.006,11.878 2.793,-12.199 7.223,-21.137 11.101,-26.093 2.697,-3.455 9.381,-9.812 20.405,-12.947 -10.164,-0.424 -23.107,5.653 -27.031,8.863 -8.039,6.601 -14.986,16.231 -18.498,26.055 -0.674,-3.544 -1.316,-9.284 -0.642,-14.754 1.181,-9.695 4.828,-17.605 12.822,-25.211 -3.14,1.394 -4.867,2.337 -7.763,4.199 -8.764,5.666 -13.046,11.676 -18.434,19.394 2.8,-13.252 8.084,-24.132 23.667,-36.383 4.514,-3.544 8.655,-5.974 8.655,-5.974 -7.885,0.684 -20.463,6.475 -27.146,11.865 3.769,-8.081 9.284,-15.076 17.592,-22.485 3.043,-2.722 4.88,-4.147 8.25,-6.449 -4.681,0.382 -7.345,0.902 -11.827,2.321 -5.721,1.814 -7.763,2.479 -13.855,6.719 2.658,-5.181 6.606,-9.111 12.571,-12.748 10.768,-6.575 21.772,-8.947 32.887,-8.112 -5.143,-1.862 -8.347,-2.401 -13.811,-2.34 -4.52,0.051 -11.429,1.833 -11.429,1.833 0,0 -4.834,-4.549 -6.793,-8.295 3.679,0.847 5.747,1.281 9.49,1.608 5.772,0.52 10.889,0.539 14.844,-0.498 0,0 -5.669,-0.876 -8.912,-2.44 -4.642,-2.228 -9.496,-6.511 -9.817,-11.605 9.059,6.036 16.822,8.401 26.318,8.324 -6.568,-5.682 -9.958,-10.758 -14.022,-17.949 -0.437,4.78 1.399,9.304 2.581,12.427 0,0 -2.799,-0.864 -5.06,-2.481 -1.753,-1.243 -4.212,-3.547 -4.212,-3.547 0,0 -0.321,-8.517 2.915,-20.049 1.676,-5.968 4.86,-13.865 9.592,-14.7 3.345,-0.591 7.249,2.379 9.381,3.929 2.125,1.541 10.215,7.458 10.215,7.458 0,0 1.432,4.556 3.5,7.785 1.586,2.465 4.938,5.66 4.938,5.66 -1.721,-4.905 -3.775,-11.046 -2.697,-16.594 3.531,4.174 14.453,16.594 20.488,16.813 0.732,0.026 8.212,-0.889 13.477,-1.079 4.408,-0.164 11.323,0 11.323,0 9.483,1.182 15.763,-7.566 23.499,-12.498 2.877,-1.836 12.187,-10.777 18.119,-10.132 3.384,0.373 4.97,3.056 6.902,7.329 3.557,7.862 4.918,13.978 4.521,23.275 -0.142,3.387 -3.558,10.02 -3.558,10.02 0,0 4.379,-0.459 7.114,-1.079 1.965,-0.446 4.963,-1.399 4.963,-1.399 0,0 -1.29,6.462 -8.302,9.48 6.241,4.716 9.728,14.103 9.92,16.7 -2.048,-1.4 -6.035,-2.591 -6.035,-2.591 -3.236,-7.217 -11.403,-17.535 -17.015,-22.228 3.641,-5.352 4.616,-7.83 5.207,-13.413 0.064,-0.629 -0.237,-4.424 -0.237,-4.424 0,0 -1.329,3.22 -2.401,4.623 -1.862,2.417 -7.114,6.783 -11.757,5.384 5.284,-4.523 7.737,-8.18 9.381,-14.649 0.007,-0.032 0.431,-3.99 0.431,-3.99 0,0 -6.363,11.313 -14.774,14.549 2.157,-7.76 9.387,-14.01 15.423,-19.073 -2.222,0.157 -6.915,2.208 -8.091,2.799 -9.374,4.742 -11.781,13.612 -21.098,14.749 0,0 14.845,5.291 29.945,21.563 9.451,10.193 10.672,17.667 17.034,29.41 1.907,3.519 5.715,8.514 5.715,8.514 -7.653,-2.697 -13.586,-12.498 -13.586,-12.498 2.26,15.403 20.437,27.291 23.03,40.951 -3.493,-1.079 -10.202,-5.833 -10.202,-5.833 0.219,1.191 0.508,3.246 1.06,5.265 m 6.601,16.938 c 4.771,2.145 7.762,2.478 12.077,1.297 -3.024,-2.273 -7.339,-6.254 -8.63,-10.351 2.909,0.86 5.323,2.286 7.332,3.558 0.688,-10.658 -3.357,-21.038 -11.55,-30.906 3.068,0.109 4.873,-0.587 7.28,-2.552 -8.661,-7.961 -9.316,-10.395 -11.839,-17.509 1.444,0.218 5.432,1.185 6.292,1.512 -0.963,-10.559 -2.877,-15.734 -9.83,-26.607 4.771,-5.39 4.559,-11.355 4.873,-18.54 -2.8,0.754 -2.479,0.86 -6.574,1.833 1.29,-9.804 -3.236,-27.153 -8.842,-35.121 -11.736,-16.694 -34.504,8.616 -46.896,16.751 -1.297,0.847 -8.487,0.494 -15.637,0.912 -6.415,0.382 -12.932,1.429 -14.344,1.185 C 101.429,34.33 86.16,17.18 81.608,12.644 80.825,15.071 80.209,17.386 79.836,20.522 75.091,16.917 67.232,10.304 61.178,9.931 47.54,9.087 42.198,36.615 41.344,46.49 l -6.388,-4.995 c -1.214,7.133 0.404,15.108 4.282,21.895 -5.175,-0.86 -8.411,-1.506 -13.669,-3.011 2.966,6.417 5.297,12.34 10.183,17.618 C 23.81,82.934 15.54,94.973 12.49,107.3 c 3.884,-0.835 7.679,-1.104 11.647,-0.815 -8.013,10.224 -15.416,23.095 -15.191,36.235 2.337,-3.057 5.438,-6.279 8.244,-8.925 -6.652,13.175 -6.626,26.286 -3.217,40.553 3.159,-7.102 6.222,-14.421 10.562,-20.88 -0.34,24.18 10.286,29.728 -4.809,51.493 9.419,0.501 15.191,-0.552 22.749,-6.459 -0.328,7.962 -0.437,13.137 -1.297,20.032 4.103,-1.284 10.389,-3.942 13.259,-6.511 -0.938,5.805 -2.799,10.505 -5.714,16.104 3.672,1.078 7.769,2.016 11.018,1.733 -1.958,2.145 -3.146,2.8 -6.131,4.084 17.015,7.486 28.379,4.058 38.19,-11.866 8.289,10.004 23.281,17.695 36.241,18.376 -2.543,-3.711 -3.814,-6.536 -3.814,-6.536 l 11.403,3.211 c 0,0 -2.594,-7.705 -2.87,-12.662 3.082,1.939 5.683,3.441 8.636,4.828 3.057,-3.518 6.324,-8.347 8.643,-12.404 2.195,4.661 4.025,11.892 4.135,16.63 9.432,-4.251 20.508,-10.607 26.171,-19.583 0.552,4.032 0.141,8 -0.271,12.032 4.116,-3.185 5.978,-5.227 8.713,-9.58 0.54,1.824 0.86,3.981 0.977,6.318 4.392,-5.65 8.449,-11.608 11.088,-18.286 1.342,5.265 2.042,5.277 2.473,9.579 7.479,-13.933 7.993,-28.327 3.467,-43.416 4.526,1.733 6.979,2.17 11.21,2.813 -6.899,-8.193 -9.441,-14.499 -14.122,-23.487 z"
         id="path31"
         style="fill:#002649;fill-rule:evenodd" /></g><path
       d="m 177.028,150.181 c 1.079,3.929 1.83,6.998 -2.94,10.093 -1.374,0.732 -4.373,2.504 -7.904,1.9 -3.043,-0.526 -5.117,-3.043 -6.741,-5.663 -2.094,-3.364 -5.342,-6.395 -4.706,-10.324 0.564,-3.441 5.148,-4.905 6.928,-3.223 1.541,1.451 4.424,5.11 6.529,9.425 0.174,-1.489 0.116,-2.812 -0.218,-3.826 -0.707,-2.106 -2.518,-4.508 -2.864,-5.175 -1.13,-2.209 3.692,-2.813 4.636,-2.581 1.566,0.372 5.99,4.635 7.28,9.374 m -30.472,-0.9 c -0.564,-0.051 -2.876,-0.115 -2.876,-0.115 -7.403,-0.27 -10.613,-7.795 -10.613,-7.91 0.726,-0.129 1.13,-0.231 1.868,-0.219 0.7,0.013 1.772,0.219 1.772,0.219 0,0 3.582,2.684 4.854,2.389 0.989,-0.231 1.509,-0.835 2.935,-0.758 4.289,0.23 7.531,7.345 7.531,7.345 -2.318,-0.848 -3.038,-0.784 -5.471,-0.951 z m -21.175,-5.521 c -3.728,-1.798 -8.267,-3.608 -8.267,-6.678 0,-0.693 0.398,-1.232 1.304,-1.232 2.028,0 3.524,2.042 5.396,3.21 1.746,1.092 2.966,1.477 4.803,2.119 0.25,1.451 0.442,2.568 1.335,4.225 -0.597,-0.091 -2.863,-0.822 -4.571,-1.644 z m 55.583,-32.909 c -0.289,1.159 -1.348,1.561 -2.01,2.315 -0.789,-1.13 -1.47,-2 -1.342,-2.979 0.174,-1.326 1.278,-2.26 2.658,-2.34 0.913,0.846 0.983,1.835 0.694,3.004 z m -11.159,-5.121 c -4.135,0 -11.088,0.119 -10.889,4.742 0.083,1.891 0.976,3.352 2.369,4.632 0.86,-1.602 1.496,-2.774 4.314,-1.939 2.915,0.86 2.594,6.359 -1.079,6.359 -2.478,0 -4.854,-2.157 -4.854,-2.157 0,0 -4.039,-3.005 -3.769,-7.435 0.437,-7.313 7.55,-6.78 13.694,-7.107 3.987,-0.218 7.705,0.215 7.802,2.378 0.066,1.5 -2.195,0.527 -7.588,0.527 z m -5.874,-15.246 c 0,0 -2.613,-1.611 -3.288,-1.994 2.369,-0.208 4.206,-0.446 6.112,-1.624 -0.616,2.755 -2.824,3.618 -2.824,3.618 z m -6.216,-5.463 c 0,-1.21 0.982,-2.183 2.184,-2.183 1.213,0 2.183,0.973 2.183,2.183 0,1.201 -0.97,2.183 -2.183,2.183 -1.202,0 -2.184,-0.983 -2.184,-2.183 z m 9.939,7.46 c 1.367,-0.716 2.69,-1.833 3.66,-2.799 l 3.595,-0.055 c -1.168,-0.918 -3.242,-3.095 -4.314,-4.662 -2.979,-4.35 -4.95,-8.363 -11.461,-6.093 -2.105,0.729 -4.128,3.246 -4.693,5.095 -1.271,-3.885 2.761,-8.417 5.778,-10.026 0,0 -0.924,-0.25 -3.402,0.276 -3.294,0.703 -6.261,3.878 -6.261,3.878 0,0 1.137,-6.135 2.807,-9.698 1.277,-2.722 4.077,-6.549 4.077,-6.549 -4.887,1.323 -8.334,5.753 -9.683,8.87 -0.154,0.35 -0.873,1.769 -1.079,2.096 -1.027,-2.748 -1.348,-4.687 -1.823,-7.403 0,0 -2.112,6.44 -1.933,11.756 0.09,2.597 0.27,4.083 0.899,6.61 2.581,1.332 4.969,2.629 6.562,3.535 6.594,3.769 12.815,7.563 18.78,11.949 0,0 -17.149,-1.178 -17.464,8.886 -0.09,3.13 0.526,5.589 2.15,8.681 2.324,4.424 7.68,7.724 9.49,8.616 1.804,0.899 3.775,1.657 3.775,1.657 0,0 3.878,-4.238 5.983,-8.912 0.147,2.36 -0.167,6.292 -1.136,9.194 0,0 2.24,-1.753 3.666,-3.236 2.369,-2.469 4.681,-6.071 5.836,-8.899 0.526,6.43 -4.905,15.409 -7.826,19.072 -2.967,-0.257 -6.523,-5.101 -6.523,-5.101 -4.212,4.202 -7.339,5.602 -17.149,6.898 -12.688,1.669 -23.186,-4.417 -39.028,-11.509 -6.652,-2.97 -11.319,-2.504 -16.283,2.992 l 5.708,0.295 c 0.97,3.107 1.162,5.14 3.57,7.566 6.414,6.485 20.279,12.79 23.311,13.882 4.475,1.605 9.149,3.66 15.287,4.982 4.07,0.873 6.408,1.194 10.562,1.502 0.842,2.672 0.919,6.832 -2.324,7.281 -8.295,1.13 -20.764,-5.855 -27.862,-8.886 -8.302,-3.558 -12.096,-4.752 -18.221,-4.752 -7.133,0 -15.422,2.915 -19.981,9.528 0,0 11.962,-7.884 24.803,-4.019 -2.876,1.001 -7.904,2.901 -11.615,6.446 -6.145,5.881 -9.053,12.07 -9.374,21.663 1.278,-4.187 4.61,-9.233 5.06,-10.029 4.103,-7.165 12.905,-12.058 21.015,-12.893 0,0 -6.022,4.392 -8.289,11.172 -0.957,2.863 -1.175,5.561 -0.443,7.718 0,0 1.104,-8.476 8.745,-12.341 4.27,-2.17 6.992,-3.608 11.946,-3.03 1.22,0.142 8.437,3.082 9.053,3.942 0.783,1.092 1.207,4.032 3.05,6.434 3.396,4.43 6.78,6.651 11.634,8.051 -1.457,-1.489 -2.195,-2.427 -3.28,-4.212 -1.657,-2.734 -2.229,-5.316 -2.973,-7.641 0,0 10.028,4.148 16.667,-3.325 7.493,4.597 22.345,-0.989 22.345,-10.145 0,-0.95 1.238,-9.49 -6.768,-17.118 3.447,-4.43 6.568,-9.352 8.192,-14.013 0.88,-2.517 4.097,-7.75 1.721,-16.915 -1.941,-7.478 -12.182,-12.172 -18.539,-16.262 z"
       id="path33"
       style="fill:#002649;fill-rule:evenodd" /><path
       d="m 73.589,62.764 c -0.565,-2.142 -0.815,-4.18 -0.925,-6.325 1.669,0.052 4.366,-0.106 7.705,-0.539 -5.58,-3.891 -6.742,-7.271 -6.742,-7.271 2.375,1.4 4.257,2.565 7.281,3.288 1.772,0.42 4.642,0.571 4.642,0.571 0,0 -7.063,-5.213 -10.607,-9.474 -5.239,-6.299 -8.969,-15.288 -9.611,-18.688 -1.567,8.248 2.157,21.937 3.724,25.163 0,0 -7.069,-6.677 -11.166,-12.799 0,0 1.458,5.541 3.018,8.6 3.884,7.592 8.841,14.167 12.681,17.474"
       id="path35"
       style="fill:#002649;fill-rule:evenodd" /><path
       d="m 78.218,64.908 c 0,0 9.528,-9.034 16.706,-13.044 1.836,-1.027 3.808,-1.836 6.337,-2.754 -1.432,-1.197 -2.344,-1.756 -3.961,-2.69 -2.799,-1.618 -7.236,-2.559 -7.236,-2.559 1.573,1.913 3.3,4.446 3.3,4.446 -4.552,3.126 -6.928,5.441 -10.401,9.605 -2.324,2.781 -4.745,6.996 -4.745,6.996"
       id="path37"
       style="fill:#002649;fill-rule:evenodd" /><path
       d="m 117.487,91.101 c -2.8,0.106 -4.488,-3.056 -4.488,-3.056 1.522,0.446 2.774,0.642 4.552,0.446 1.978,-0.218 3.737,-0.828 4.803,-1.724 0,0 -0.116,4.157 -4.867,4.334 m -2.44,-8.264 c 1.213,0 2.183,0.973 2.183,2.183 0,1.201 -0.97,2.183 -2.183,2.183 -1.201,0 -2.177,-0.982 -2.177,-2.183 0,-1.209 0.976,-2.183 2.177,-2.183 z m 1.932,-15.463 c -1.682,-1.429 -6.639,-1.827 -10.292,-1.557 -10.53,0.768 -14.511,9.875 -23.5,12.187 -1.997,0.514 -4.218,0.684 -6.722,0.526 1.695,1.4 3.095,2.02 5.348,2.257 8.745,0.921 14.048,-7.804 22.158,-9.107 12.655,-2.032 18.074,5.608 18.999,7.001 -1.412,-0.096 -2.087,-0.867 -6.1,-0.045 -6.581,1.348 -7.14,5.069 -12.09,7.647 -2.254,1.168 -4.02,1.788 -5.888,2.78 l 6.222,0.289 c 0,0 6.009,5.577 12.835,5.394 6.86,-0.192 12.587,-5.682 14.546,-11.743 0.706,2.478 0.487,2.854 0.918,4.568 l 4.584,-4.141 c 0,0 -0.751,-12.498 -9.277,-23.483 -2.356,-3.053 -5.06,-4.53 -8.408,-5.493 0,0 4.748,5.056 7.227,10.876 1.772,4.141 3.133,9.374 3.133,9.374 0,0 -4.212,-7.975 -11.56,-12.504 -5.015,-3.085 -10.389,-4.517 -15.333,-3.056 -10e-4,-0.002 10.285,1.767 13.2,8.23 z"
       id="path39"
       style="fill:#002649;fill-rule:evenodd" /><path
       d="m 168.579,75.341 c -1.194,-4.899 -1.9,-6.944 -4.289,-9.631 -1.104,-1.249 -1.785,-1.618 -3.107,-2.375 0,0 -1.869,2.722 -2.883,4.401 2.716,1.149 4.031,1.778 6.215,3.502 1.772,1.394 2.69,2.322 4.064,4.103"
       id="path41"
       style="fill:#002649;fill-rule:evenodd" /><path
       d="m 87.939,96.064 c 6.388,3.031 9.823,5.358 15.018,10.158 -1.079,-3.127 -2.408,-4.87 -4.636,-7.493 -2.363,-2.783 -5.284,-4.957 -7.107,-6.09 0.09,-0.032 3.839,-3.124 3.839,-3.124 -2.709,0.106 -3.698,0.1 -6.061,0.055 -8.096,-0.145 -12.25,-2.485 -20.642,-2.264 -6.022,0.167 -9.971,0.915 -14.074,3.455 13.175,-1.731 21.656,-0.395 33.663,5.303"
       id="path43"
       style="fill:#002649;fill-rule:evenodd" /><path
       d="m 124.257,97.046 c -1.858,0.899 -2.918,1.445 -4.908,2.01 0.822,0.231 1.284,0.401 2.125,0.469 4.985,0.385 10.707,-1.474 10.848,-1.592 -0.392,-0.979 -2.517,-5.124 -2.517,-5.124 -1.895,1.955 -2.806,2.902 -5.548,4.237"
       id="path45"
       style="fill:#002649;fill-rule:evenodd" /><path
       d="m 91.348,102.989 c -3.705,-2.642 -8.925,-4.838 -15.178,-5.93 -8.039,-1.403 -15.686,-0.738 -19.737,3.043 3.146,-0.665 5.149,-0.87 8.193,-0.834 4.481,0.051 6.189,0.321 9.978,1.342 -3.287,0.642 -5.168,1.438 -7.923,3.345 -2.954,2.039 -4.366,3.393 -6.241,6.764 4.623,-3.156 7.814,-4.768 13.374,-6.27 5.804,-1.573 11.197,-2 17.534,-1.46"
       id="path47"
       style="fill:#002649;fill-rule:evenodd" /><path
       d="m 161.664,128.142 c -1.034,-0.476 -1.58,-0.963 -2.563,-1.644 -0.802,-0.552 -0.674,-0.404 -2.022,-1.477 -0.642,0.86 -1.29,1.721 -1.938,2.363 -0.938,0.938 -3.313,3.102 -3.608,3.339 0.353,0.07 3.826,0.302 6.093,-0.424 1.694,-0.546 2.555,-1.053 4.038,-2.157"
       id="path49"
       style="fill:#002649;fill-rule:evenodd" /><path
       d="m 70.115,140.203 c -8.559,5.676 -12.938,12.738 -14.665,21.881 4.449,-7.345 8.712,-11.659 14.722,-16.372 8.045,-6.331 13.85,-8.81 23.878,-10.877 -8.031,-1.516 -15.96,0.077 -23.935,5.368"
       id="path51"
       style="fill:#002649;fill-rule:evenodd" /><path
       d="m 33.922,207.195 c 0.629,0 1.243,0.167 1.84,0.488 0.6,0.321 1.066,0.783 1.399,1.387 0.334,0.604 0.501,1.22 0.501,1.875 0,0.642 -0.164,1.271 -0.491,1.862 -0.331,0.59 -0.793,1.053 -1.387,1.387 -0.594,0.334 -1.213,0.501 -1.862,0.501 -0.648,0 -1.271,-0.167 -1.862,-0.501 -0.597,-0.334 -1.056,-0.797 -1.39,-1.387 -0.331,-0.591 -0.494,-1.221 -0.494,-1.862 0,-0.655 0.167,-1.271 0.504,-1.875 0.334,-0.604 0.803,-1.065 1.4,-1.387 0.6,-0.321 1.213,-0.488 1.842,-0.488 z m 0,0.63 c -0.526,0 -1.04,0.128 -1.534,0.397 -0.501,0.27 -0.889,0.655 -1.172,1.156 -0.279,0.501 -0.42,1.027 -0.42,1.566 0,0.539 0.138,1.053 0.414,1.554 0.276,0.488 0.665,0.886 1.159,1.155 0.498,0.283 1.015,0.411 1.554,0.411 0.54,0 1.057,-0.128 1.554,-0.411 0.494,-0.27 0.879,-0.667 1.156,-1.155 0.272,-0.501 0.411,-1.015 0.411,-1.554 0,-0.539 -0.141,-1.065 -0.417,-1.566 -0.282,-0.501 -0.671,-0.887 -1.171,-1.156 -0.5,-0.269 -1.011,-0.397 -1.534,-0.397 z m -1.644,5.188 v -4.02 h 1.384 c 0.475,0 0.815,0.039 1.027,0.103 0.212,0.077 0.382,0.206 0.507,0.398 0.125,0.18 0.189,0.372 0.189,0.591 0,0.295 -0.106,0.539 -0.318,0.758 -0.209,0.218 -0.488,0.347 -0.835,0.372 0.141,0.064 0.257,0.129 0.344,0.219 0.16,0.153 0.359,0.424 0.594,0.796 l 0.491,0.783 h -0.793 l -0.356,-0.629 c -0.282,-0.501 -0.507,-0.81 -0.681,-0.938 -0.119,-0.09 -0.292,-0.142 -0.52,-0.142 H 32.93 v 1.708 h -0.652 z m 0.652,-2.26 h 0.787 c 0.378,0 0.635,-0.064 0.773,-0.167 0.135,-0.116 0.206,-0.27 0.206,-0.45 0,-0.115 -0.032,-0.23 -0.1,-0.32 -0.068,-0.09 -0.161,-0.167 -0.276,-0.219 -0.119,-0.038 -0.334,-0.064 -0.652,-0.064 H 32.93 v 1.22 z"
       id="path53"
       style="fill:#002649" /></g></svg>