<?xml version="1.0" encoding="UTF-8"?>
<!-- Generator: Adobe Illustrator 14.0.0, SVG Export Plug-In . SVG Version: 6.00 Build 43363)  -->
<!DOCTYPE svg PUBLIC "-//W3C//DTD SVG 1.1//EN" "http://www.w3.org/Graphics/SVG/1.1/DTD/svg11.dtd">
<svg version="1.1" id="Layer_1" xmlns="http://www.w3.org/2000/svg" xmlns:xlink="http://www.w3.org/1999/xlink" x="0px" y="0px" width="233px" height="250px" viewBox="0 0 233 250" enable-background="new 0 0 233 250" xml:space="preserve">
<g>
	<rect x="24.095" y="204.923" fill="#848483" width="17.082" height="13.611"/>
	<path fill="#848483" d="M228.169,179.099l-7.024-8.347c-4.417-5.252-6.947-9.683-9.561-14.768c1.715-0.013,3.454-0.27,5.458-0.821   l8.096-2.209l-6.594-4.944l0.219-3.338c0.622-9.722-2.261-19.317-8.578-28.604c0.918-0.5,1.836-1.14,2.806-1.926l3.673-2.999   l-3.493-3.21c-4.064-3.733-6.145-6.013-7.544-8.279l3.903,1.489l-0.597-6.555c-0.944-10.376-2.857-16.158-8.925-26.01   c3.474-5.287,3.686-10.876,3.91-16.748l0.321-7.445l-5.426,1.461c-0.481,0.131-0.873,0.244-1.22,0.343   c-0.443-10.594-4.533-24.588-9.76-32.026c-3.37-4.793-7.993-7.326-13.374-7.326c-10.145,0-20.944,8.703-30.473,16.382   c-3.03,2.443-5.9,4.758-8.263,6.35c-1.085,0.17-3.897,0.222-6.196,0.263c-2.414,0.045-5.123,0.096-7.836,0.253   c-3.069,0.183-6.164,0.514-8.732,0.79c-2.112,0.228-3.833,0.424-4.681,0.446c-2.498-0.43-9.384-6.543-20.469-18.17   c-1.358-1.425-2.495-2.613-3.304-3.419L79.759,5l-2.061,6.382c-0.196,0.604-0.392,1.229-0.581,1.891   C72.35,9.749,66.693,6.153,61.431,5.829l-0.863-0.026c-14.582,0-20.292,21.406-22.321,33.05l-6.187-4.838l-1.156,6.79   c-0.931,5.474-0.404,11.419,1.435,17.089c-1.724-0.392-3.509-0.854-5.641-1.467l-8.626-2.469l4.854,10.523   c1.917,4.222,3.756,8.273,6.459,12.142c-9.933,5.98-17.724,16.915-20.886,29.692L6.92,112.7l6.434-1.383   c0.854-0.183,1.702-0.334,2.542-0.459c-7.512,11.307-11.229,22.025-11.06,31.927l0.203,11.801l2.908-3.801   c-0.79,7.512-0.106,15.589,2.029,24.514l2.818,11.801l5.936-13.354c0.889-2.003,1.785-4.032,2.719-6.048   c0.321,2.118,0.68,4.045,1.008,5.816c1.849,9.991,2.966,16.026-6.109,29.099l-4.199,6.061l7.358,0.386   c7.653,0.437,13.185-0.295,18.543-2.89c-0.187,4.071-0.424,7.628-0.951,11.865l-0.793,6.344l6.103-1.913   c1.413-0.449,3.335-1.143,5.38-2.003c-0.729,1.784-1.621,3.672-2.712,5.766l-2.309,4.43l4.793,1.413h0.003l-4.26,1.823l8.646,3.813   c17.699,7.795,29.991,4.905,40.373-9.065c9.361,8.938,23.249,15.281,35.496,15.923l8.302,0.437l-2.934-4.289l8.815,2.479   l-2.479-7.371c-0.244-0.719-0.623-1.926-1.021-3.352c0.379,0.18,0.757,0.36,1.143,0.54l2.813,1.322l2.035-2.337   c1.425-1.644,2.94-3.608,4.424-5.715c0.668,2.671,1.098,5.329,1.143,7.333l0.142,6.202l5.656-2.556   c8.411-3.788,15.095-7.846,20.18-12.264c-0.019,0.193-0.038,0.373-0.058,0.553l-0.969,9.516l7.569-5.843   c1.239-0.95,2.305-1.824,3.256-2.697l0.365,7.448l6.8-8.745c2.003-2.568,4.264-5.611,6.408-9.04l1.162,11.608l6.369-11.853   c6.562-12.225,8.411-25.144,5.586-39.32c1.547,0.321,3.075,0.565,4.854,0.835L228.169,179.099z"/>
	<path fill-rule="evenodd" clip-rule="evenodd" fill="#FFFFFF" d="M151.532,130.723c0.295-0.237,2.671-2.401,3.608-3.339   c0.648-0.642,1.297-1.502,1.938-2.363c1.349,1.073,1.221,0.925,2.022,1.477c0.982,0.681,1.528,1.168,2.563,1.644   c-1.483,1.104-2.344,1.611-4.039,2.157C155.358,131.024,151.885,130.793,151.532,130.723 M184.47,125.663   c-1.624,4.661-4.745,9.583-8.192,14.013c8.006,7.628,6.768,16.168,6.768,17.118c0,9.155-14.852,14.741-22.345,10.145   c-6.639,7.474-16.667,3.325-16.667,3.325c0.744,2.324,1.315,4.906,2.973,7.641c1.085,1.785,1.823,2.723,3.28,4.212   c-4.854-1.399-8.237-3.621-11.634-8.051c-1.843-2.401-2.267-5.342-3.05-6.434c-0.616-0.86-7.833-3.801-9.053-3.942   c-4.954-0.578-7.677,0.86-11.946,3.03c-7.64,3.865-8.745,12.341-8.745,12.341c-0.732-2.157-0.514-4.854,0.443-7.718   c2.267-6.78,8.289-11.172,8.289-11.172c-8.109,0.835-16.912,5.728-21.015,12.893c-0.449,0.796-3.782,5.843-5.06,10.029   c0.321-9.593,3.229-15.782,9.374-21.663c3.711-3.545,8.739-5.445,11.615-6.446c-12.841-3.865-24.803,4.019-24.803,4.019   c4.559-6.613,12.848-9.528,19.981-9.528c6.125,0,9.919,1.194,18.221,4.752c7.099,3.03,19.567,10.016,27.862,8.886   c3.243-0.449,3.166-4.609,2.324-7.281c-4.153-0.308-6.491-0.629-10.562-1.502c-6.138-1.322-10.813-3.377-15.287-4.982   c-3.031-1.092-16.896-7.396-23.311-13.882c-2.408-2.427-2.6-4.459-3.57-7.566l-5.708-0.295c4.963-5.497,9.631-5.962,16.283-2.992   c15.843,7.092,26.341,13.178,39.028,11.509c9.811-1.297,12.938-2.696,17.149-6.898c0,0,3.557,4.844,6.523,5.101   c2.921-3.663,8.353-12.642,7.826-19.072c-1.155,2.828-3.467,6.43-5.836,8.899c-1.426,1.483-3.666,3.236-3.666,3.236   c0.969-2.902,1.283-6.834,1.136-9.194c-2.105,4.674-5.983,8.912-5.983,8.912s-1.972-0.758-3.775-1.657   c-1.811-0.893-7.166-4.192-9.49-8.616c-1.624-3.092-2.24-5.551-2.15-8.681c0.314-10.064,17.464-8.886,17.464-8.886   c-5.965-4.385-12.187-8.18-18.78-11.949c-1.593-0.906-3.98-2.203-6.562-3.535c-0.63-2.527-0.81-4.013-0.899-6.61   c-0.18-5.316,1.933-11.756,1.933-11.756c0.476,2.716,0.796,4.655,1.823,7.403c0.206-0.328,0.925-1.747,1.079-2.096   c1.349-3.117,4.796-7.547,9.683-8.87c0,0-2.8,3.827-4.077,6.549c-1.67,3.563-2.807,9.698-2.807,9.698s2.967-3.175,6.261-3.878   c2.479-0.526,3.402-0.276,3.402-0.276c-3.018,1.608-7.05,6.141-5.778,10.026c0.565-1.849,2.588-4.366,4.693-5.095   c6.511-2.27,8.481,1.743,11.461,6.093c1.072,1.567,3.146,3.744,4.314,4.662l-3.595,0.055c-0.97,0.966-2.293,2.083-3.66,2.799   c6.356,4.09,16.598,8.783,18.536,16.267C188.566,117.914,185.35,123.146,184.47,125.663z M70.173,145.712   c-6.01,4.713-10.273,9.027-14.722,16.372c1.727-9.143,6.106-16.205,14.665-21.881c7.975-5.291,15.904-6.884,23.936-5.368   C84.022,136.902,78.218,139.381,70.173,145.712z M73.813,104.449c-5.56,1.502-8.751,3.114-13.374,6.27   c1.875-3.371,3.287-4.726,6.241-6.764c2.754-1.907,4.636-2.703,7.923-3.345c-3.788-1.021-5.496-1.291-9.978-1.342   c-3.043-0.036-5.046,0.17-8.193,0.834c4.052-3.782,11.699-4.446,19.737-3.043c6.253,1.092,11.474,3.288,15.178,5.93   C85.011,102.449,79.618,102.876,73.813,104.449z M68.35,87.306c8.392-0.221,12.546,2.119,20.642,2.264   c2.363,0.045,3.352,0.051,6.061-0.055c0,0-3.75,3.091-3.839,3.124c1.823,1.133,4.745,3.307,7.107,6.09   c2.228,2.623,3.557,4.366,4.636,7.493c-5.194-4.8-8.629-7.127-15.018-10.158c-12.007-5.698-20.488-7.034-33.664-5.303   C58.378,88.221,62.327,87.473,68.35,87.306z M60.908,45.29c-1.561-3.059-3.018-8.6-3.018-8.6   c4.097,6.122,11.166,12.799,11.166,12.799c-1.566-3.226-5.291-16.915-3.724-25.163c0.642,3.4,4.372,12.389,9.611,18.688   c3.544,4.26,10.607,9.474,10.607,9.474s-2.87-0.151-4.642-0.571c-3.024-0.723-4.905-1.888-7.281-3.288c0,0,1.162,3.38,6.742,7.271   c-3.339,0.433-6.036,0.591-7.705,0.539c0.109,2.145,0.36,4.183,0.925,6.325C69.749,59.457,64.792,52.882,60.908,45.29z    M93.364,48.308c0,0-1.727-2.533-3.3-4.446c0,0,4.437,0.94,7.236,2.559c1.618,0.934,2.53,1.493,3.961,2.69   c-2.53,0.918-4.501,1.727-6.337,2.754c-7.178,4.01-16.706,13.044-16.706,13.044s2.42-4.215,4.745-6.996   C86.437,53.749,88.812,51.434,93.364,48.308z M132.321,97.933c-0.141,0.119-5.862,1.978-10.848,1.592   c-0.841-0.067-1.303-0.238-2.125-0.469c1.99-0.565,3.05-1.111,4.908-2.01c2.742-1.335,3.653-2.283,5.548-4.238   C129.805,92.809,131.93,96.953,132.321,97.933z M119.111,62.198c7.348,4.53,11.56,12.504,11.56,12.504s-1.36-5.233-3.133-9.374   c-2.479-5.82-7.227-10.876-7.227-10.876c3.349,0.963,6.052,2.439,8.408,5.493c8.526,10.986,9.277,23.483,9.277,23.483l-4.584,4.141   c-0.431-1.714-0.212-2.09-0.918-4.568c-1.959,6.061-7.686,11.551-14.546,11.743c-6.826,0.183-12.835-5.394-12.835-5.394   l-6.222-0.289c1.868-0.992,3.634-1.612,5.888-2.78c4.95-2.578,5.509-6.299,12.09-7.647c4.013-0.822,4.688-0.051,6.1,0.045   c-0.925-1.393-6.343-9.034-18.999-7.001c-8.109,1.303-13.413,10.029-22.158,9.107c-2.253-0.237-3.653-0.857-5.348-2.257   c2.504,0.157,4.726-0.013,6.722-0.526c8.989-2.312,12.97-11.419,23.5-12.187c3.653-0.27,8.61,0.128,10.292,1.557   c-2.915-6.462-13.201-8.231-13.201-8.231C108.723,57.682,114.097,59.113,119.111,62.198z M161.183,63.335   c1.322,0.758,2.003,1.127,3.107,2.375c2.389,2.687,3.095,4.732,4.289,9.631c-1.374-1.782-2.292-2.709-4.064-4.103   c-2.184-1.724-3.499-2.353-6.215-3.502C159.313,66.057,161.183,63.335,161.183,63.335z M183.392,92.587   c0,0,5.933,9.801,13.586,12.498c0,0-3.808-4.995-5.715-8.514c-6.362-11.743-7.583-19.217-17.034-29.41   c-15.101-16.273-29.945-21.563-29.945-21.563c9.316-1.137,11.724-10.007,21.098-14.749c1.176-0.591,5.869-2.642,8.091-2.799   c-6.036,5.063-13.266,11.313-15.423,19.073c8.411-3.236,14.774-14.549,14.774-14.549s-0.424,3.958-0.431,3.99   c-1.644,6.469-4.097,10.125-9.381,14.649c4.643,1.399,9.895-2.966,11.757-5.384c1.072-1.403,2.401-4.623,2.401-4.623   s0.302,3.795,0.237,4.424c-0.591,5.583-1.566,8.061-5.207,13.413c5.611,4.693,13.778,15.011,17.015,22.228   c0,0,3.987,1.191,6.035,2.591c-0.192-2.597-3.679-11.984-9.92-16.7c7.012-3.018,8.302-9.48,8.302-9.48s-2.998,0.953-4.963,1.399   c-2.735,0.62-7.114,1.079-7.114,1.079s3.416-6.633,3.558-10.02c0.397-9.297-0.964-15.413-4.521-23.275   c-1.933-4.273-3.519-6.957-6.902-7.329c-5.933-0.646-15.242,8.295-18.119,10.132c-7.736,4.931-14.016,13.679-23.499,12.498   c0,0-6.915-0.164-11.323,0c-5.265,0.189-12.745,1.104-13.477,1.079c-6.036-0.218-16.957-12.639-20.488-16.813   c-1.079,5.548,0.976,11.689,2.697,16.594c0,0-3.352-3.194-4.938-5.66c-2.067-3.229-3.5-7.785-3.5-7.785s-8.09-5.917-10.215-7.458   c-2.132-1.55-6.036-4.52-9.381-3.929c-4.732,0.834-7.917,8.732-9.592,14.7c-3.236,11.532-2.915,20.049-2.915,20.049   s2.459,2.305,4.212,3.547c2.26,1.618,5.06,2.481,5.06,2.481c-1.182-3.124-3.018-7.647-2.581-12.427   c4.064,7.191,7.454,12.267,14.022,17.949c-9.496,0.077-17.259-2.289-26.318-8.324c0.321,5.095,5.175,9.377,9.817,11.605   c3.243,1.563,8.912,2.44,8.912,2.44c-3.955,1.037-9.072,1.018-14.844,0.498c-3.743-0.328-5.811-0.761-9.49-1.608   c1.958,3.746,6.793,8.295,6.793,8.295s6.909-1.782,11.429-1.833c5.464-0.061,8.668,0.478,13.811,2.34   c-11.114-0.835-22.119,1.538-32.887,8.112c-5.965,3.637-9.914,7.567-12.571,12.748c6.093-4.241,8.135-4.905,13.855-6.719   c4.481-1.419,7.146-1.939,11.827-2.321c-3.371,2.302-5.207,3.727-8.25,6.449c-8.308,7.41-13.823,14.405-17.592,22.485   c6.684-5.39,19.262-11.182,27.146-11.865c0,0-4.142,2.43-8.655,5.974c-15.583,12.25-20.867,23.131-23.667,36.383   c5.387-7.718,9.669-13.728,18.434-19.394c2.896-1.862,4.623-2.806,7.763-4.199c-7.994,7.605-11.641,15.516-12.822,25.211   c-0.674,5.47-0.032,11.21,0.642,14.754c3.512-9.823,10.459-19.454,18.498-26.055c3.923-3.21,16.867-9.287,27.031-8.863   c-11.024,3.136-17.708,9.492-20.405,12.947c-3.878,4.956-8.308,13.894-11.101,26.093c-0.648-4.584-0.771-7.307-0.006-11.878   c0.539-3.223,1.399-6.998,2.915-10.556c-2.376,2.376-5.683,5.625-8.199,9.811c-5.394,8.938-4.328,16.771-5.817,27.044   c-0.976,6.678-2.696,10.234-4.969,13.355c6.042-1.721,10.742-5.843,13.804-12.393c2.01-4.302,2.157-11.968,2.157-11.968   s1.824,6.062,2.267,10.029c1.297,11.634,0.642,15.948-0.218,22.408c5.714-3.121,9.599-7.538,11.968-16.052   c1.881-6.742,0.969-10.671,0.969-10.671s3.018,4.417,2.479,11.21c-0.25,3.249-1.747,7.692-3.018,10.671c0,0,0.918,5.83,0.757,9.58   c-0.231,5.329-2.908,13.367-2.908,13.367c3.557-0.539,10.908-3.557,13.682-12.995c1.085-3.711-0.424-10.17-0.424-10.17   s4.071,2.94,4.097,11.197c0.045,10.953-8.09,19.827-8.09,19.827c9.708-0.745,18.119-9.478,18.517-19.673   c0.212-5.419-0.796-10.53-0.616-15.718c0.103-3.005,1.47-7.448,1.47-7.448s0.475,19.994,14.594,33.465   c4.058,3.878,9.708,6.793,12.058,7.846c0,0-2.26-7.396-2.369-9.143c0,0-2.78-4.482-3.974-7.32   c-4.334-10.35-2.453-18.414-1.939-18.748c0.449,4.199,1.111,5.406,2.26,8.732c3.891,11.197,9.278,16.693,17.904,22.947   c-0.758-6.999-1.194-13.252,2.241-21.753c0.911-2.286,1.907-3.802,3.384-5.304c0,0-0.912,3.596-0.887,5.933   c0.059,4.431,0.758,7.114,3.603,10.773c0.392-3.441,0.642-4.841,1.361-8.077c0.648-2.915,2.587-5.277,2.587-5.277   s3.346,7.756,3.448,15.409c4.854-7.551,4.931-12.674,2.658-20.34c-0.886-2.992-3.461-7.204-3.461-7.204s4.359,3.082,7.493,7.499   c8.372,11.84,10.312,24.09,10.312,24.09l0.905-5.2c0.109-4.854,0.225-10.119-1.701-13.432c0,0,2.517,2.272,3.524,4.135   c2.594,4.738,2.376,10.876,2.376,10.876s4.199-11.736,1.11-20.648c-0.648-1.875-2.157-4.61-2.157-4.61   c0.758,0.54,2.613,1.823,3.846,3.391c4.752,6.035,4.469,11.467,4.854,17.451c0,0,6.446-7.833,4.79-18.196   c-1.445-9.053-9.753-15.204-9.753-15.204c2.382,0.539,10.317,4.392,15.203,13.586c2.697,5.06,3.775,14.64,3.775,14.64   s2.401-6.96,1.728-15.5c-0.867-10.89-5.477-15.229-5.477-15.229c3.749,0.514,9.573,11.673,10.407,14.806   c0.797,2.992,2.017,7.68,2.017,7.68l-0.07,0.372c2.395-6.562,0.969-14.267-2.396-22.383c-1.349-3.248-2.33-5.021-4.372-7.884   c3.235,1.721,4.963,3.249,7.435,6.035c4.964,5.611,5.188,8.398,7.897,14.832c0.449-12.084-1.997-19.827-6.928-28.084   c-4.309-7.217-8.726-18.312-8.726-18.312s3.146,4.828,5.599,7.563c2.922,3.262,6.035,5.894,8.373,7.474   c-2.222-3.608-5.246-10.004-8.264-16.553c-1.978-4.276-4.848-11.095-4.848-11.095s4.546,4.058,5.277,4.636   c4.861,3.839,7.879,5.496,7.879,5.496c-1.4-3.57-3.037-5.805-4.122-9.824c-0.553-2.019-0.842-4.073-1.06-5.268   c0,0,6.709,4.754,10.202,5.833C203.828,119.878,185.651,107.99,183.392,92.587z"/>
	<path fill-rule="evenodd" clip-rule="evenodd" fill="#848483" d="M177.612,110.186c-0.128,0.979,0.553,1.849,1.342,2.979   c0.662-0.754,1.721-1.156,2.01-2.315c0.289-1.168,0.219-2.157-0.693-3.005C178.891,107.926,177.786,108.86,177.612,110.186"/>
	<path fill-rule="evenodd" clip-rule="evenodd" fill="#FFFFFF" d="M123.814,139.06c-1.872-1.168-3.368-3.21-5.396-3.21   c-0.905,0-1.304,0.539-1.304,1.232c0,3.069,4.539,4.88,8.267,6.678c1.708,0.822,3.975,1.554,4.571,1.644   c-0.893-1.656-1.085-2.773-1.335-4.225C126.78,140.536,125.561,140.151,123.814,139.06"/>
	<path fill-rule="evenodd" clip-rule="evenodd" fill="#CA0000" d="M169.747,140.807c-0.943-0.231-5.766,0.372-4.636,2.581   c0.347,0.667,2.157,3.068,2.864,5.175c0.334,1.015,0.392,2.337,0.218,3.826c-2.105-4.314-4.988-7.974-6.529-9.425   c-1.779-1.683-6.363-0.219-6.928,3.223c-0.636,3.93,2.612,6.96,4.706,10.324c1.624,2.62,3.698,5.137,6.741,5.663   c3.531,0.604,6.53-1.168,7.904-1.9c4.771-3.095,4.02-6.164,2.94-10.093C175.738,145.442,171.314,141.179,169.747,140.807"/>
	<path fill-rule="evenodd" clip-rule="evenodd" fill="#FFFFFF" d="M144.495,142.887c-1.426-0.077-1.945,0.526-2.935,0.758   c-1.271,0.295-4.854-2.389-4.854-2.389s-1.072-0.206-1.772-0.219c-0.738-0.013-1.143,0.09-1.868,0.219   c0,0.115,3.21,7.641,10.613,7.91c0,0,2.312,0.064,2.876,0.115c2.434,0.167,3.153,0.103,5.471,0.95   C152.026,150.231,148.784,143.117,144.495,142.887"/>
	<path fill-rule="evenodd" clip-rule="evenodd" fill="#848483" d="M163.931,90.484c0,0,2.208-0.863,2.824-3.618   c-1.906,1.178-3.743,1.416-6.112,1.624C161.317,88.873,163.931,90.484,163.931,90.484"/>
	<path fill-rule="evenodd" clip-rule="evenodd" fill="#FFFFFF" d="M162.081,85.021c0-1.21-0.97-2.183-2.183-2.183   c-1.201,0-2.184,0.973-2.184,2.183c0,1.201,0.982,2.183,2.184,2.183C161.111,87.204,162.081,86.221,162.081,85.021"/>
	<path fill-rule="evenodd" clip-rule="evenodd" fill="#FFFFFF" d="M115.047,87.204c1.213,0,2.183-0.982,2.183-2.183   c0-1.21-0.97-2.183-2.183-2.183c-1.201,0-2.177,0.973-2.177,2.183C112.87,86.221,113.846,87.204,115.047,87.204"/>
	<path fill-rule="evenodd" clip-rule="evenodd" fill="#848483" d="M112.999,88.045c0,0,1.688,3.162,4.488,3.056   c4.751-0.177,4.867-4.334,4.867-4.334c-1.065,0.896-2.825,1.505-4.803,1.724C115.772,88.687,114.521,88.491,112.999,88.045"/>
	<path fill-rule="evenodd" clip-rule="evenodd" fill="#848483" d="M169.593,102.825c-6.145,0.327-13.258-0.206-13.694,7.107   c-0.271,4.43,3.769,7.435,3.769,7.435s2.376,2.157,4.854,2.157c3.673,0,3.994-5.499,1.079-6.359   c-2.818-0.835-3.454,0.337-4.314,1.939c-1.394-1.281-2.286-2.742-2.369-4.632c-0.199-4.623,6.754-4.742,10.889-4.742   c5.394,0,7.654,0.973,7.59-0.527C177.298,103.04,173.58,102.607,169.593,102.825"/>
	<g>
		<path fill-rule="evenodd" clip-rule="evenodd" fill="#002649" d="M197.279,132.973c1.085,4.02,2.722,6.254,4.122,9.824    c0,0-3.018-1.657-7.879-5.496c-0.731-0.578-5.277-4.636-5.277-4.636s2.87,6.818,4.848,11.095    c3.018,6.549,6.042,12.944,8.264,16.553c-2.338-1.58-5.451-4.212-8.373-7.474c-2.452-2.735-5.599-7.563-5.599-7.563    s4.417,11.095,8.726,18.312c4.931,8.257,7.377,16,6.928,28.084c-2.709-6.434-2.934-9.221-7.897-14.832    c-2.472-2.786-4.199-4.314-7.435-6.035c2.042,2.863,3.023,4.636,4.372,7.884c3.364,8.116,4.79,15.821,2.396,22.383l0.07-0.372    c0,0-1.22-4.688-2.017-7.68c-0.834-3.133-6.658-14.292-10.407-14.806c0,0,4.609,4.34,5.477,15.229    c0.674,8.54-1.728,15.5-1.728,15.5s-1.078-9.58-3.775-14.64c-4.886-9.194-12.821-13.047-15.203-13.586    c0,0,8.308,6.151,9.753,15.204c1.656,10.363-4.79,18.196-4.79,18.196c-0.386-5.984-0.103-11.416-4.854-17.451    c-1.232-1.567-3.088-2.851-3.846-3.391c0,0,1.509,2.735,2.157,4.61c3.089,8.912-1.11,20.648-1.11,20.648s0.218-6.138-2.376-10.876    c-1.008-1.862-3.524-4.135-3.524-4.135c1.926,3.313,1.811,8.577,1.701,13.432l-0.905,5.2c0,0-1.939-12.25-10.312-24.09    c-3.134-4.417-7.493-7.499-7.493-7.499s2.575,4.212,3.461,7.204c2.272,7.666,2.195,12.789-2.658,20.34    c-0.103-7.653-3.448-15.409-3.448-15.409s-1.938,2.362-2.587,5.277c-0.72,3.236-0.97,4.636-1.361,8.077    c-2.845-3.659-3.544-6.343-3.603-10.773c-0.025-2.337,0.887-5.933,0.887-5.933c-1.477,1.502-2.473,3.018-3.384,5.304    c-3.436,8.501-2.999,14.754-2.241,21.753c-8.626-6.254-14.013-11.75-17.904-22.947c-1.149-3.326-1.811-4.533-2.26-8.732    c-0.514,0.334-2.395,8.398,1.939,18.748c1.194,2.838,3.974,7.32,3.974,7.32c0.109,1.746,2.369,9.143,2.369,9.143    c-2.35-1.053-8-3.968-12.058-7.846c-14.119-13.471-14.594-33.465-14.594-33.465s-1.368,4.443-1.47,7.448    c-0.18,5.188,0.828,10.299,0.616,15.718c-0.398,10.195-8.809,18.928-18.517,19.673c0,0,8.135-8.874,8.09-19.827    c-0.026-8.257-4.097-11.197-4.097-11.197s1.509,6.459,0.424,10.17c-2.774,9.438-10.125,12.456-13.682,12.995    c0,0,2.677-8.038,2.908-13.367c0.161-3.75-0.757-9.58-0.757-9.58c1.271-2.979,2.767-7.422,3.018-10.671    c0.539-6.793-2.479-11.21-2.479-11.21s0.912,3.929-0.969,10.671c-2.37,8.514-6.254,12.931-11.968,16.052    c0.86-6.46,1.515-10.774,0.218-22.408c-0.443-3.968-2.267-10.029-2.267-10.029s-0.147,7.666-2.157,11.968    c-3.063,6.55-7.763,10.672-13.804,12.393c2.273-3.121,3.994-6.678,4.969-13.355c1.49-10.272,0.424-18.106,5.817-27.044    c2.517-4.186,5.823-7.435,8.199-9.811c-1.516,3.558-2.376,7.333-2.915,10.556c-0.764,4.571-0.642,7.294,0.006,11.878    c2.793-12.199,7.223-21.137,11.101-26.093c2.697-3.455,9.381-9.812,20.405-12.947c-10.164-0.424-23.107,5.653-27.031,8.863    c-8.039,6.601-14.986,16.231-18.498,26.055c-0.674-3.544-1.316-9.284-0.642-14.754c1.181-9.695,4.828-17.605,12.822-25.211    c-3.14,1.394-4.867,2.337-7.763,4.199c-8.764,5.666-13.046,11.676-18.434,19.394c2.8-13.252,8.084-24.132,23.667-36.383    c4.514-3.544,8.655-5.974,8.655-5.974c-7.885,0.684-20.463,6.475-27.146,11.865c3.769-8.081,9.284-15.076,17.592-22.485    c3.043-2.722,4.88-4.147,8.25-6.449c-4.681,0.382-7.345,0.902-11.827,2.321c-5.721,1.814-7.763,2.479-13.855,6.719    c2.658-5.181,6.606-9.111,12.571-12.748c10.768-6.575,21.772-8.947,32.887-8.112c-5.143-1.862-8.347-2.401-13.811-2.34    c-4.52,0.051-11.429,1.833-11.429,1.833s-4.834-4.549-6.793-8.295c3.679,0.847,5.747,1.281,9.49,1.608    c5.772,0.52,10.889,0.539,14.844-0.498c0,0-5.669-0.876-8.912-2.44c-4.642-2.228-9.496-6.511-9.817-11.605    c9.059,6.036,16.822,8.401,26.318,8.324c-6.568-5.682-9.958-10.758-14.022-17.949c-0.437,4.78,1.399,9.304,2.581,12.427    c0,0-2.799-0.864-5.06-2.481c-1.753-1.243-4.212-3.547-4.212-3.547s-0.321-8.517,2.915-20.049c1.676-5.968,4.86-13.865,9.592-14.7    c3.345-0.591,7.249,2.379,9.381,3.929c2.125,1.541,10.215,7.458,10.215,7.458s1.432,4.556,3.5,7.785    c1.586,2.465,4.938,5.66,4.938,5.66c-1.721-4.905-3.775-11.046-2.697-16.594c3.531,4.174,14.453,16.594,20.488,16.813    c0.732,0.026,8.212-0.889,13.477-1.079c4.408-0.164,11.323,0,11.323,0c9.483,1.182,15.763-7.566,23.499-12.498    c2.877-1.836,12.187-10.777,18.119-10.132c3.384,0.373,4.97,3.056,6.902,7.329c3.557,7.862,4.918,13.978,4.521,23.275    c-0.142,3.387-3.558,10.02-3.558,10.02s4.379-0.459,7.114-1.079c1.965-0.446,4.963-1.399,4.963-1.399s-1.29,6.462-8.302,9.48    c6.241,4.716,9.728,14.103,9.92,16.7c-2.048-1.4-6.035-2.591-6.035-2.591c-3.236-7.217-11.403-17.535-17.015-22.228    c3.641-5.352,4.616-7.83,5.207-13.413c0.064-0.629-0.237-4.424-0.237-4.424s-1.329,3.22-2.401,4.623    c-1.862,2.417-7.114,6.783-11.757,5.384c5.284-4.523,7.737-8.18,9.381-14.649c0.007-0.032,0.431-3.99,0.431-3.99    s-6.363,11.313-14.774,14.549c2.157-7.76,9.387-14.01,15.423-19.073c-2.222,0.157-6.915,2.208-8.091,2.799    c-9.374,4.742-11.781,13.612-21.098,14.749c0,0,14.845,5.291,29.945,21.563c9.451,10.193,10.672,17.667,17.034,29.41    c1.907,3.519,5.715,8.514,5.715,8.514c-7.653-2.697-13.586-12.498-13.586-12.498c2.26,15.403,20.437,27.291,23.03,40.951    c-3.493-1.079-10.202-5.833-10.202-5.833C196.438,128.899,196.727,130.954,197.279,132.973 M203.88,149.911    c4.771,2.145,7.762,2.478,12.077,1.297c-3.024-2.273-7.339-6.254-8.63-10.351c2.909,0.86,5.323,2.286,7.332,3.558    c0.688-10.658-3.357-21.038-11.55-30.906c3.068,0.109,4.873-0.587,7.28-2.552c-8.661-7.961-9.316-10.395-11.839-17.509    c1.444,0.218,5.432,1.185,6.292,1.512c-0.963-10.559-2.877-15.734-9.83-26.607c4.771-5.39,4.559-11.355,4.873-18.54    c-2.8,0.754-2.479,0.86-6.574,1.833c1.29-9.804-3.236-27.153-8.842-35.121c-11.736-16.694-34.504,8.616-46.896,16.751    c-1.297,0.847-8.487,0.494-15.637,0.912c-6.415,0.382-12.932,1.429-14.344,1.185C101.429,34.33,86.16,17.18,81.608,12.644    c-0.783,2.427-1.399,4.742-1.772,7.878c-4.745-3.605-12.604-10.218-18.658-10.591C47.54,9.087,42.198,36.615,41.344,46.49    l-6.388-4.995c-1.214,7.133,0.404,15.108,4.282,21.895c-5.175-0.86-8.411-1.506-13.669-3.011    c2.966,6.417,5.297,12.34,10.183,17.618C23.81,82.934,15.54,94.973,12.49,107.3c3.884-0.835,7.679-1.104,11.647-0.815    C16.124,116.709,8.721,129.58,8.946,142.72c2.337-3.057,5.438-6.279,8.244-8.925c-6.652,13.175-6.626,26.286-3.217,40.553    c3.159-7.102,6.222-14.421,10.562-20.88c-0.34,24.18,10.286,29.728-4.809,51.493c9.419,0.501,15.191-0.552,22.749-6.459    c-0.328,7.962-0.437,13.137-1.297,20.032c4.103-1.284,10.389-3.942,13.259-6.511c-0.938,5.805-2.799,10.505-5.714,16.104    c3.672,1.078,7.769,2.016,11.018,1.733c-1.958,2.145-3.146,2.8-6.131,4.084c17.015,7.486,28.379,4.058,38.19-11.866    c8.289,10.004,23.281,17.695,36.241,18.376c-2.543-3.711-3.814-6.536-3.814-6.536l11.403,3.211c0,0-2.594-7.705-2.87-12.662    c3.082,1.939,5.683,3.441,8.636,4.828c3.057-3.518,6.324-8.347,8.643-12.404c2.195,4.661,4.025,11.892,4.135,16.63    c9.432-4.251,20.508-10.607,26.171-19.583c0.552,4.032,0.141,8-0.271,12.032c4.116-3.185,5.978-5.227,8.713-9.58    c0.54,1.824,0.86,3.981,0.977,6.318c4.392-5.65,8.449-11.608,11.088-18.286c1.342,5.265,2.042,5.277,2.473,9.579    c7.479-13.933,7.993-28.327,3.467-43.416c4.526,1.733,6.979,2.17,11.21,2.813C211.103,165.205,208.561,158.899,203.88,149.911z"/>
	</g>
	<path fill-rule="evenodd" clip-rule="evenodd" fill="#002649" d="M177.028,150.181c1.079,3.929,1.83,6.998-2.94,10.093   c-1.374,0.732-4.373,2.504-7.904,1.9c-3.043-0.526-5.117-3.043-6.741-5.663c-2.094-3.364-5.342-6.395-4.706-10.324   c0.564-3.441,5.148-4.905,6.928-3.223c1.541,1.451,4.424,5.11,6.529,9.425c0.174-1.489,0.116-2.812-0.218-3.826   c-0.707-2.106-2.518-4.508-2.864-5.175c-1.13-2.209,3.692-2.813,4.636-2.581C171.314,141.179,175.738,145.442,177.028,150.181    M146.556,149.281c-0.564-0.051-2.876-0.115-2.876-0.115c-7.403-0.27-10.613-7.795-10.613-7.91c0.726-0.129,1.13-0.231,1.868-0.219   c0.7,0.013,1.772,0.219,1.772,0.219s3.582,2.684,4.854,2.389c0.989-0.231,1.509-0.835,2.935-0.758   c4.289,0.23,7.531,7.345,7.531,7.345C149.709,149.384,148.989,149.448,146.556,149.281z M125.381,143.76   c-3.728-1.798-8.267-3.608-8.267-6.678c0-0.693,0.398-1.232,1.304-1.232c2.028,0,3.524,2.042,5.396,3.21   c1.746,1.092,2.966,1.477,4.803,2.119c0.25,1.451,0.442,2.568,1.335,4.225C129.355,145.313,127.089,144.582,125.381,143.76z    M180.964,110.851c-0.289,1.159-1.348,1.561-2.01,2.315c-0.789-1.13-1.47-2-1.342-2.979c0.174-1.326,1.278-2.26,2.658-2.34   C181.183,108.693,181.253,109.682,180.964,110.851z M169.805,105.73c-4.135,0-11.088,0.119-10.889,4.742   c0.083,1.891,0.976,3.352,2.369,4.632c0.86-1.602,1.496-2.774,4.314-1.939c2.915,0.86,2.594,6.359-1.079,6.359   c-2.478,0-4.854-2.157-4.854-2.157s-4.039-3.005-3.769-7.435c0.437-7.313,7.55-6.78,13.694-7.107   c3.987-0.218,7.705,0.215,7.802,2.378C177.459,106.703,175.198,105.73,169.805,105.73z M163.931,90.484   c0,0-2.613-1.611-3.288-1.994c2.369-0.208,4.206-0.446,6.112-1.624C166.139,89.621,163.931,90.484,163.931,90.484z M157.715,85.021   c0-1.21,0.982-2.183,2.184-2.183c1.213,0,2.183,0.973,2.183,2.183c0,1.201-0.97,2.183-2.183,2.183   C158.697,87.204,157.715,86.221,157.715,85.021z M167.654,92.481c1.367-0.716,2.69-1.833,3.66-2.799l3.595-0.055   c-1.168-0.918-3.242-3.095-4.314-4.662c-2.979-4.35-4.95-8.363-11.461-6.093c-2.105,0.729-4.128,3.246-4.693,5.095   c-1.271-3.885,2.761-8.417,5.778-10.026c0,0-0.924-0.25-3.402,0.276c-3.294,0.703-6.261,3.878-6.261,3.878s1.137-6.135,2.807-9.698   c1.277-2.722,4.077-6.549,4.077-6.549c-4.887,1.323-8.334,5.753-9.683,8.87c-0.154,0.35-0.873,1.769-1.079,2.096   c-1.027-2.748-1.348-4.687-1.823-7.403c0,0-2.112,6.44-1.933,11.756c0.09,2.597,0.27,4.083,0.899,6.61   c2.581,1.332,4.969,2.629,6.562,3.535c6.594,3.769,12.815,7.563,18.78,11.949c0,0-17.149-1.178-17.464,8.886   c-0.09,3.13,0.526,5.589,2.15,8.681c2.324,4.424,7.68,7.724,9.49,8.616c1.804,0.899,3.775,1.657,3.775,1.657   s3.878-4.238,5.983-8.912c0.147,2.36-0.167,6.292-1.136,9.194c0,0,2.24-1.753,3.666-3.236c2.369-2.469,4.681-6.071,5.836-8.899   c0.526,6.43-4.905,15.409-7.826,19.072c-2.967-0.257-6.523-5.101-6.523-5.101c-4.212,4.202-7.339,5.602-17.149,6.898   c-12.688,1.669-23.186-4.417-39.028-11.509c-6.652-2.97-11.319-2.504-16.283,2.992l5.708,0.295c0.97,3.107,1.162,5.14,3.57,7.566   c6.414,6.485,20.279,12.79,23.311,13.882c4.475,1.605,9.149,3.66,15.287,4.982c4.07,0.873,6.408,1.194,10.562,1.502   c0.842,2.672,0.919,6.832-2.324,7.281c-8.295,1.13-20.764-5.855-27.862-8.886c-8.302-3.558-12.096-4.752-18.221-4.752   c-7.133,0-15.422,2.915-19.981,9.528c0,0,11.962-7.884,24.803-4.019c-2.876,1.001-7.904,2.901-11.615,6.446   c-6.145,5.881-9.053,12.07-9.374,21.663c1.278-4.187,4.61-9.233,5.06-10.029c4.103-7.165,12.905-12.058,21.015-12.893   c0,0-6.022,4.392-8.289,11.172c-0.957,2.863-1.175,5.561-0.443,7.718c0,0,1.104-8.476,8.745-12.341   c4.27-2.17,6.992-3.608,11.946-3.03c1.22,0.142,8.437,3.082,9.053,3.942c0.783,1.092,1.207,4.032,3.05,6.434   c3.396,4.43,6.78,6.651,11.634,8.051c-1.457-1.489-2.195-2.427-3.28-4.212c-1.657-2.734-2.229-5.316-2.973-7.641   c0,0,10.028,4.148,16.667-3.325c7.493,4.597,22.345-0.989,22.345-10.145c0-0.95,1.238-9.49-6.768-17.118   c3.447-4.43,6.568-9.352,8.192-14.013c0.88-2.517,4.097-7.75,1.721-16.915C184.252,101.265,174.011,96.571,167.654,92.481z"/>
	<path fill-rule="evenodd" clip-rule="evenodd" fill="#002649" d="M73.589,62.764c-0.565-2.142-0.815-4.18-0.925-6.325   c1.669,0.052,4.366-0.106,7.705-0.539c-5.58-3.891-6.742-7.271-6.742-7.271c2.375,1.4,4.257,2.565,7.281,3.288   c1.772,0.42,4.642,0.571,4.642,0.571s-7.063-5.213-10.607-9.474c-5.239-6.299-8.969-15.288-9.611-18.688   c-1.567,8.248,2.157,21.937,3.724,25.163c0,0-7.069-6.677-11.166-12.799c0,0,1.458,5.541,3.018,8.6   C64.792,52.882,69.749,59.457,73.589,62.764"/>
	<path fill-rule="evenodd" clip-rule="evenodd" fill="#002649" d="M78.218,64.908c0,0,9.528-9.034,16.706-13.044   c1.836-1.027,3.808-1.836,6.337-2.754c-1.432-1.197-2.344-1.756-3.961-2.69c-2.799-1.618-7.236-2.559-7.236-2.559   c1.573,1.913,3.3,4.446,3.3,4.446c-4.552,3.126-6.928,5.441-10.401,9.605C80.639,60.693,78.218,64.908,78.218,64.908"/>
	<path fill-rule="evenodd" clip-rule="evenodd" fill="#002649" d="M117.487,91.101c-2.8,0.106-4.488-3.056-4.488-3.056   c1.522,0.446,2.774,0.642,4.552,0.446c1.978-0.218,3.737-0.828,4.803-1.724C122.354,86.767,122.238,90.924,117.487,91.101    M115.047,82.837c1.213,0,2.183,0.973,2.183,2.183c0,1.201-0.97,2.183-2.183,2.183c-1.201,0-2.177-0.982-2.177-2.183   C112.87,83.811,113.846,82.837,115.047,82.837z M116.979,67.374c-1.682-1.429-6.639-1.827-10.292-1.557   c-10.53,0.768-14.511,9.875-23.5,12.187c-1.997,0.514-4.218,0.684-6.722,0.526c1.695,1.4,3.095,2.02,5.348,2.257   c8.745,0.921,14.048-7.804,22.158-9.107c12.655-2.032,18.074,5.608,18.999,7.001c-1.412-0.096-2.087-0.867-6.1-0.045   c-6.581,1.348-7.14,5.069-12.09,7.647c-2.254,1.168-4.02,1.788-5.888,2.78l6.222,0.289c0,0,6.009,5.577,12.835,5.394   c6.86-0.192,12.587-5.682,14.546-11.743c0.706,2.478,0.487,2.854,0.918,4.568l4.584-4.141c0,0-0.751-12.498-9.277-23.483   c-2.356-3.053-5.06-4.53-8.408-5.493c0,0,4.748,5.056,7.227,10.876c1.772,4.141,3.133,9.374,3.133,9.374s-4.212-7.975-11.56-12.504   c-5.015-3.085-10.389-4.517-15.333-3.056C103.778,59.142,114.064,60.911,116.979,67.374z"/>
	<path fill-rule="evenodd" clip-rule="evenodd" fill="#002649" d="M168.579,75.341c-1.194-4.899-1.9-6.944-4.289-9.631   c-1.104-1.249-1.785-1.618-3.107-2.375c0,0-1.869,2.722-2.883,4.401c2.716,1.149,4.031,1.778,6.215,3.502   C166.287,72.632,167.205,73.56,168.579,75.341"/>
	<path fill-rule="evenodd" clip-rule="evenodd" fill="#002649" d="M87.939,96.064c6.388,3.031,9.823,5.358,15.018,10.158   c-1.079-3.127-2.408-4.87-4.636-7.493c-2.363-2.783-5.284-4.957-7.107-6.09c0.09-0.032,3.839-3.124,3.839-3.124   c-2.709,0.106-3.698,0.1-6.061,0.055c-8.096-0.145-12.25-2.485-20.642-2.264c-6.022,0.167-9.971,0.915-14.074,3.455   C67.451,89.03,75.932,90.366,87.939,96.064"/>
	<path fill-rule="evenodd" clip-rule="evenodd" fill="#002649" d="M124.257,97.046c-1.858,0.899-2.918,1.445-4.908,2.01   c0.822,0.231,1.284,0.401,2.125,0.469c4.985,0.385,10.707-1.474,10.848-1.592c-0.392-0.979-2.517-5.124-2.517-5.124   C127.91,94.764,126.999,95.711,124.257,97.046"/>
	<path fill-rule="evenodd" clip-rule="evenodd" fill="#002649" d="M91.348,102.989c-3.705-2.642-8.925-4.838-15.178-5.93   c-8.039-1.403-15.686-0.738-19.737,3.043c3.146-0.665,5.149-0.87,8.193-0.834c4.481,0.051,6.189,0.321,9.978,1.342   c-3.287,0.642-5.168,1.438-7.923,3.345c-2.954,2.039-4.366,3.393-6.241,6.764c4.623-3.156,7.814-4.768,13.374-6.27   C79.618,102.876,85.011,102.449,91.348,102.989"/>
	<path fill-rule="evenodd" clip-rule="evenodd" fill="#002649" d="M161.664,128.142c-1.034-0.476-1.58-0.963-2.563-1.644   c-0.802-0.552-0.674-0.404-2.022-1.477c-0.642,0.86-1.29,1.721-1.938,2.363c-0.938,0.938-3.313,3.102-3.608,3.339   c0.353,0.07,3.826,0.302,6.093-0.424C159.32,129.753,160.181,129.246,161.664,128.142"/>
	<path fill-rule="evenodd" clip-rule="evenodd" fill="#002649" d="M70.115,140.203c-8.559,5.676-12.938,12.738-14.665,21.881   c4.449-7.345,8.712-11.659,14.722-16.372c8.045-6.331,13.85-8.81,23.878-10.877C86.019,133.319,78.09,134.912,70.115,140.203"/>
	<path fill="#002649" d="M33.922,207.195c0.629,0,1.243,0.167,1.84,0.488c0.6,0.321,1.066,0.783,1.399,1.387   c0.334,0.604,0.501,1.22,0.501,1.875c0,0.642-0.164,1.271-0.491,1.862c-0.331,0.59-0.793,1.053-1.387,1.387   c-0.594,0.334-1.213,0.501-1.862,0.501c-0.648,0-1.271-0.167-1.862-0.501c-0.597-0.334-1.056-0.797-1.39-1.387   c-0.331-0.591-0.494-1.221-0.494-1.862c0-0.655,0.167-1.271,0.504-1.875c0.334-0.604,0.803-1.065,1.4-1.387   C32.68,207.362,33.293,207.195,33.922,207.195z M33.922,207.825c-0.526,0-1.04,0.128-1.534,0.397   c-0.501,0.27-0.889,0.655-1.172,1.156c-0.279,0.501-0.42,1.027-0.42,1.566s0.138,1.053,0.414,1.554   c0.276,0.488,0.665,0.886,1.159,1.155c0.498,0.283,1.015,0.411,1.554,0.411c0.54,0,1.057-0.128,1.554-0.411   c0.494-0.27,0.879-0.667,1.156-1.155c0.272-0.501,0.411-1.015,0.411-1.554s-0.141-1.065-0.417-1.566   c-0.282-0.501-0.671-0.887-1.171-1.156C34.956,207.953,34.445,207.825,33.922,207.825z M32.278,213.013v-4.02h1.384   c0.475,0,0.815,0.039,1.027,0.103c0.212,0.077,0.382,0.206,0.507,0.398c0.125,0.18,0.189,0.372,0.189,0.591   c0,0.295-0.106,0.539-0.318,0.758c-0.209,0.218-0.488,0.347-0.835,0.372c0.141,0.064,0.257,0.129,0.344,0.219   c0.16,0.153,0.359,0.424,0.594,0.796l0.491,0.783h-0.793l-0.356-0.629c-0.282-0.501-0.507-0.81-0.681-0.938   c-0.119-0.09-0.292-0.142-0.52-0.142H32.93v1.708H32.278z M32.93,210.753h0.787c0.378,0,0.635-0.064,0.773-0.167   c0.135-0.116,0.206-0.27,0.206-0.45c0-0.115-0.032-0.23-0.1-0.32s-0.161-0.167-0.276-0.219c-0.119-0.038-0.334-0.064-0.652-0.064   H32.93V210.753z"/>
</g>
</svg>