<?xml version="1.0" encoding="UTF-8" standalone="no"?>
<!-- Created with Inkscape (http://www.inkscape.org/) -->

<svg
   xmlns:dc="http://purl.org/dc/elements/1.1/"
   xmlns:cc="http://creativecommons.org/ns#"
   xmlns:rdf="http://www.w3.org/1999/02/22-rdf-syntax-ns#"
   xmlns:svg="http://www.w3.org/2000/svg"
   xmlns="http://www.w3.org/2000/svg"
   version="1.0"
   width="280"
   height="200"
   viewBox="0 0 224 160"
   id="svg2">
  <defs
     id="defs16" />
  <metadata
     id="metadata4">
Created by potrace 1.11, written by Peter Selinger 2001-2013
<rdf:RDF>
  <cc:Work
     rdf:about="">
    <dc:format>image/svg+xml</dc:format>
    <dc:type
       rdf:resource="http://purl.org/dc/dcmitype/StillImage" />
    <dc:title></dc:title>
  </cc:Work>
</rdf:RDF>
</metadata>
  <g
     transform="matrix(0.02615097,0,0,-0.02615097,11.377626,181.43882)"
     id="g6"
     style="fill:#000000;stroke:none">
    <path
       d="m 4094,6930 c -96,-8 -146,-27 -165,-62 -18,-33 -4,-95 34,-152 53,-80 104,-186 139,-289 40,-118 50,-275 24,-377 -39,-151 -120,-267 -219,-311 -132,-58 -335,-3 -410,110 -44,66 -60,128 -59,231 0,156 41,314 143,553 33,75 59,151 59,168 0,21 -10,40 -31,61 l -30,31 -107,-6 c -134,-7 -299,-48 -451,-112 -288,-121 -527,-345 -666,-624 -112,-225 -226,-600 -280,-926 -35,-213 -80,-339 -163,-462 -70,-104 -144,-162 -304,-241 -478,-236 -678,-431 -764,-742 -13,-48 -18,-103 -19,-212 0,-84 -4,-148 -9,-148 -24,0 -182,85 -241,130 -36,27 -65,44 -65,37 0,-7 11,-57 24,-112 67,-275 177,-478 346,-638 94,-89 186,-149 295,-191 119,-46 119,-47 4,-41 -197,9 -416,88 -608,219 -46,31 -85,55 -88,52 -3,-2 15,-47 40,-99 125,-264 299,-448 532,-562 452,-222 981,-119 1332,260 l 79,85 52,-7 51,-6 -20,-28 c -37,-52 -78,-154 -119,-293 -22,-77 -51,-163 -64,-191 -27,-60 -77,-120 -117,-141 -16,-8 -29,-18 -29,-23 0,-13 106,-50 180,-62 l 67,-11 1,-78 c 1,-95 24,-163 86,-259 94,-145 122,-234 105,-324 -4,-23 -8,-45 -9,-49 0,-4 -14,-23 -31,-43 -36,-41 -42,-38 107,-64 509,-90 860,-26 1274,234 191,120 358,192 570,245 210,53 313,64 567,65 267,0 246,-11 192,101 -16,34 -48,78 -70,99 -22,20 -39,38 -37,39 1,1 23,10 48,19 90,34 193,134 265,260 l 28,48 -84,-7 c -135,-10 -199,30 -185,117 12,77 29,96 89,103 123,16 245,112 302,238 l 30,67 746,1 746,0 11,78 c 69,453 18,852 -158,1220 -93,195 -196,336 -386,532 -280,287 -461,507 -553,674 -62,113 -114,248 -180,472 -56,192 -94,280 -169,402 -75,120 -133,193 -252,316 -339,350 -774,582 -1172,625 -105,12 -118,12 -254,1 z m 316,-85 c 204,-33 455,-138 675,-283 244,-160 448,-357 592,-572 96,-144 136,-236 203,-470 111,-386 212,-560 535,-920 62,-69 163,-177 225,-240 61,-63 139,-150 171,-193 166,-220 280,-485 335,-779 30,-161 29,-556 -3,-685 l -5,-23 -684,0 -684,0 0,40 0,40 639,0 639,0 16,88 c 59,334 7,669 -156,992 -91,181 -161,276 -394,530 -349,382 -457,522 -554,715 -71,143 -105,233 -171,460 -82,282 -180,448 -387,658 -332,337 -760,554 -1133,574 -64,3 -124,3 -133,0 -14,-6 -9,-21 32,-104 51,-101 77,-171 108,-283 25,-92 25,-288 0,-395 -60,-260 -204,-395 -456,-425 -108,-14 -195,-3 -275,34 -228,104 -323,478 -220,865 20,75 49,146 103,254 8,17 -179,-23 -280,-59 -237,-86 -441,-241 -565,-431 -146,-224 -235,-487 -348,-1032 -45,-217 -75,-312 -131,-422 -56,-108 -133,-201 -220,-267 -38,-28 -143,-91 -234,-139 -410,-219 -583,-383 -645,-613 -20,-74 -29,-221 -17,-298 l 9,-63 -31,7 c -70,15 -69,10 -64,172 4,124 9,160 31,227 39,119 90,198 197,306 114,116 247,206 472,319 87,43 177,92 201,109 64,44 160,151 205,228 77,133 96,196 166,558 77,398 201,738 348,953 106,155 281,304 466,396 175,88 503,168 560,137 20,-11 19,-13 -33,-133 -68,-158 -121,-323 -141,-440 -22,-125 -15,-281 15,-360 60,-155 225,-247 427,-236 145,8 256,86 327,231 129,263 95,528 -114,894 -23,40 -23,43 -7,60 34,33 234,43 388,18 z M 4039,4830 c 402,-68 683,-192 881,-390 88,-88 153,-182 222,-321 43,-86 49,-106 46,-150 l -3,-51 -74,87 c -79,93 -218,219 -316,287 l -60,42 90,-95 c 99,-103 218,-248 285,-348 41,-61 136,-249 128,-255 -1,-2 -17,-6 -35,-9 -31,-6 -33,-4 -68,61 -147,279 -448,525 -775,632 -187,61 -290,75 -560,75 -141,0 -290,-6 -350,-13 -242,-30 -487,-96 -606,-162 -29,-16 -55,-26 -58,-23 -14,14 -4,81 17,117 54,96 258,183 532,229 43,7 74,16 69,20 -27,16 -409,-26 -446,-49 -5,-3 -8,1 -8,8 0,20 92,121 148,161 105,78 257,137 416,163 114,19 368,11 525,-16 z m -95,-496 c 25,-4 46,-9 46,-13 0,-7 -642,-262 -647,-257 -2,1 4,25 12,52 21,70 18,74 -20,30 -20,-22 -38,-56 -42,-79 l -8,-41 -305,-122 c -217,-87 -306,-118 -308,-109 -5,20 26,75 62,113 29,31 31,38 34,120 2,48 9,95 16,103 20,28 326,120 544,164 193,38 484,57 616,39 z m 364,-60 c 190,-62 368,-157 519,-279 89,-72 193,-180 193,-202 0,-8 -13,-28 -29,-44 -22,-21 -39,-29 -65,-29 l -36,0 21,-52 c 12,-29 28,-78 37,-108 21,-76 20,-255 -1,-344 -20,-79 -90,-236 -106,-236 -6,0 -69,29 -139,64 -143,71 -242,109 -325,125 -87,16 -98,4 -32,-33 106,-59 158,-127 203,-266 28,-84 63,-233 57,-239 -3,-2 -15,5 -28,16 -12,11 -87,75 -165,143 l -144,123 -81,-7 c -45,-4 -111,-13 -147,-21 l -65,-14 -70,69 -70,70 0,-93 c 0,-146 -33,-174 -146,-126 -62,27 -92,23 -205,-30 -55,-26 -101,-41 -126,-41 -40,0 -98,23 -98,40 0,5 -21,21 -46,36 -25,15 -50,38 -55,51 -17,46 -9,126 22,213 28,80 30,94 30,230 0,141 1,147 34,230 46,117 59,192 53,313 l -5,102 136,63 c 75,34 138,62 141,62 3,0 5,-42 6,-93 0,-77 6,-108 33,-187 21,-60 35,-124 38,-173 l 6,-77 24,36 25,36 32,-30 c 31,-29 31,-29 81,-15 133,38 374,23 537,-32 37,-13 70,-19 73,-15 3,5 0,12 -6,15 -13,8 87,71 132,82 l 30,8 -29,41 c -17,23 -47,52 -69,64 -58,35 -83,61 -83,87 0,28 0,28 58,-1 65,-33 157,-59 182,-51 23,7 44,41 37,60 -7,17 -219,140 -305,176 -132,55 -218,46 -367,-36 -122,-68 -259,-93 -343,-64 -37,13 -52,53 -52,136 0,52 1,53 43,75 23,12 143,66 267,119 252,110 225,106 388,53 z m -303,-496 c -4,-13 -9,-30 -11,-39 -3,-9 2,-35 10,-58 l 14,-41 -57,0 c -62,0 -109,22 -137,65 -16,24 -16,26 2,40 30,23 116,54 152,54 30,1 33,-1 27,-21 z m 422,-90 84,-83 -27,-9 c -16,-5 -37,-17 -48,-27 -22,-22 -32,-20 -142,19 l -81,29 29,16 c 24,14 55,65 72,120 3,9 11,17 17,17 6,0 49,-37 96,-82 z m 735,-281 c 57,-31 108,-120 108,-187 0,-16 -16,-51 -35,-80 -56,-83 -46,-158 27,-196 30,-16 31,-17 25,-75 -7,-80 -34,-133 -70,-137 -32,-4 -98,32 -140,76 -28,29 -28,31 -18,88 25,142 23,300 -5,497 l -7,48 39,-6 c 21,-4 56,-17 76,-28 z M 719,3355 c 73,-37 271,-102 380,-126 79,-17 152,-22 416,-29 298,-8 327,-10 425,-35 57,-14 127,-38 155,-53 57,-31 169,-136 163,-154 -2,-6 -31,-18 -64,-25 -88,-20 -211,-62 -276,-94 -32,-16 -63,-29 -69,-29 -6,0 -27,14 -46,30 -45,40 -139,87 -210,105 -65,17 -248,20 -258,5 -4,-6 9,-10 32,-10 55,0 196,-36 251,-64 52,-27 106,-79 116,-113 6,-18 1,-23 -41,-37 -222,-71 -470,-34 -642,96 -84,64 -186,172 -246,263 -69,103 -160,295 -140,295 3,0 27,-11 54,-25 z m 2024,-38 c 88,-67 194,-74 311,-19 38,18 70,32 72,32 2,0 6,-15 10,-34 7,-43 -17,-203 -49,-311 l -23,-79 -94,-54 c -52,-29 -118,-71 -147,-93 l -53,-40 -12,28 c -30,74 -7,170 47,195 22,10 21,12 -55,87 -103,102 -113,132 -75,226 14,37 24,73 21,81 -8,20 -1,18 47,-19 z m 2639,-203 c 87,-28 158,-90 205,-179 22,-40 27,-67 31,-140 9,-195 -72,-334 -218,-377 -70,-20 -186,-16 -242,9 -135,61 -218,221 -152,294 24,27 29,24 48,-26 21,-54 94,-137 140,-159 42,-20 125,-21 169,-2 68,29 106,99 114,210 4,61 1,78 -19,116 -26,50 -71,85 -132,101 -58,15 -69,22 -83,51 -14,29 -4,80 23,109 18,20 31,19 116,-7 z m -2758,-16 c 15,-35 51,-209 62,-293 7,-56 -8,-126 -31,-145 -23,-19 -57,3 -107,69 -61,82 -61,82 -54,22 l 7,-54 -23,15 c -32,21 -75,102 -89,167 -9,45 -8,60 6,97 21,56 53,60 84,12 l 21,-33 0,68 c 0,80 19,107 76,107 30,0 37,-4 48,-32 z m -279,-313 c 18,-17 25,-35 25,-62 l -1,-38 -150,-49 c -83,-28 -213,-80 -290,-118 -112,-55 -150,-79 -200,-128 -34,-33 -60,-63 -57,-66 3,-2 47,20 98,50 170,101 360,166 480,166 l 55,-1 -45,-40 c -62,-56 -219,-160 -315,-209 -205,-104 -396,-133 -575,-87 -188,49 -339,121 -464,224 -61,49 -171,171 -163,180 3,2 29,-8 59,-23 137,-70 284,-100 441,-91 135,8 184,22 432,127 374,159 464,188 573,189 65,1 76,-2 97,-24 z m 991,-319 c 78,-54 74,-54 204,2 73,32 94,37 153,35 38,-1 91,-9 118,-18 69,-23 160,-95 224,-177 44,-56 55,-77 55,-107 0,-44 -34,-102 -107,-181 l -50,-54 -69,16 c -84,20 -304,98 -304,107 0,3 30,29 66,56 57,43 105,92 127,131 4,8 -16,7 -66,-2 -130,-24 -340,-28 -445,-10 -52,9 -103,21 -113,27 -42,22 -16,-16 69,-100 l 87,-88 -74,-29 c -41,-16 -105,-48 -144,-72 -38,-23 -71,-41 -72,-40 -2,2 -16,30 -33,63 -16,33 -51,91 -76,129 -25,38 -46,76 -46,85 0,27 52,102 102,148 76,69 225,135 289,129 23,-2 63,-22 105,-50 z"
       id="path8" />
    <path
       d="m 5020,1075 c 0,-35 0,-35 45,-35 l 45,0 0,-110 0,-110 40,0 40,0 0,110 0,110 40,0 c 39,0 40,1 40,35 l 0,35 -125,0 -125,0 0,-35 z"
       id="path10" />
    <path
       d="m 5300,965 0,-145 35,0 35,0 1,78 c 1,72 2,74 11,37 31,-125 25,-115 66,-115 l 37,0 22,93 21,92 1,-92 1,-93 30,0 30,0 0,146 0,145 -47,-3 -47,-3 -24,-105 -25,-105 -25,108 -25,107 -49,0 -48,0 0,-145 z"
       id="path12" />
  </g>
</svg>
