<?xml version="1.0" encoding="UTF-8" standalone="no"?>
<!-- Created with Inkscape (http://www.inkscape.org/) -->
<svg xmlns:dc="http://purl.org/dc/elements/1.1/" xmlns:cc="http://creativecommons.org/ns#" xmlns:rdf="http://www.w3.org/1999/02/22-rdf-syntax-ns#" xmlns:svg="http://www.w3.org/2000/svg" xmlns="http://www.w3.org/2000/svg" version="1.0" width="250.00002" height="175.65666" id="svg">
  <metadata id="metadata">
  </metadata>
  <defs id="defs"/>
  <path d="m 2.2808265,2.2006244 0,33.6553386 11.2621595,0 0,63.237467 40.242022,16.78667 15.406947,0 0,23.91525 -10.577904,0 0,34.26321 77.724589,0 0,-33.8033 34.72312,0 0,33.11345 77.49464,0 0,-33.57336 -11.72767,0 0,-45.071057 11.03781,0 0,-33.573344 -69.44624,0 0,-25.52494 11.03781,0 0,-34.4931635 -76.80476,0 0,34.4931635 9.88803,0 0,24.835076 -51.739745,0 0,-25.52494 9.658086,0 0,-33.3433911 -78.1788945,0.6078705 z" id="white" style="fill:#ffffff;fill-opacity:1;fill-rule:evenodd;stroke:none"/>
  <path d="m 65.731991,147.63852 11.309467,-0.72433 -0.650225,-38.35956 -22.603171,-0.37069 -32.469579,-13.566828 0,-66.006794 -10.659241,0 0,-18.9497628 62.77109,0 0,18.9497628 -10.659242,0 0,56.84929 2.368721,0 0,-16.581043 62.771089,0 0,16.581043 2.36872,0 0,-56.84929 -10.65924,0 0.60976,-18.940205 61.56915,0.414527 0.68797,18.525678 -10.75503,0 0,65.915192 -26.19572,12.25258 42.77676,0 0,-18.949762 -10.65924,0 0,-18.949763 62.77109,0 0,18.949763 -10.65924,0 0,59.218012 10.65924,0 0,18.94976 -62.87073,0 0.69182,-18.35758 10.06706,-0.72838 0,-14.07612 -71.06161,0 0,14.08254 11.25142,0.72196 0.69182,18.35758 -64.154729,0 z" id="red" style="fill:#cc0000;fill-opacity:1"/>
  <path d="m 56.849289,137.57146 10.659242,0 0,-20.13413 -14.804502,0.0502 -40.860427,-16.98729 0,-62.415 -11.8436022,0 0,-37.8995264 82.9052142,0 0,37.8995264 -10.141712,0 0.07465,20.726304 47.966588,0.23472 0,-20.621575 -10.06706,-0.118618 0,-38.306030732914 81.12867,0.189735692914 0,37.89546404 -10.65924,0 0,21.318484 68.69289,0 0,37.899526 -10.65924,0 0,40.13846 10.75925,0.11221 -0.16068,37.9171 -80.47582,0 0,-33.16208 -31.54135,0 -0.0475,33.34776 -81.128659,-0.10952 z m 77.056321,4.73744 -12.0902,0 -0.0158,-4.14526 61.77619,-0.22566 0,4.37092 -10.65924,0 0,29.64323 72.83815,-0.13696 0.0553,-29.50627 -11.35481,0 0.64024,-49.963962 10.06706,0.08464 0,-29.472809 -68.69289,0 0,-29.609005 10.65924,0 0,-29.6432375 -72.83815,0.1375729 0.0653,30.0926966 10.59391,0.0051 0,14.553966 0,14.553964 -56.849289,0 0,-29.920941 10.067062,0.08463 0,-29.4728088 -73.4303324,0 0,29.6090048 10.6211764,0 0.630245,64.4715 37.729441,16.064989 17.343309,0 0,28.42465 -10.659242,0 0,29.64323 73.65117,-0.2199 z m -68.580127,4.5166 11.309467,0.0887 -0.243717,-38.35956 -22.603171,-0.37069 -32.469579,-13.566828 0,-66.006794 -10.659241,0 0,-18.9497628 62.77109,0 0,18.9497628 -10.659242,0 0,56.84929 2.368721,0 0,-16.581043 62.771089,0 0,16.581043 2.36872,0 0,-56.84929 -10.65924,0 0,-19.143459 62.99193,-0.1952311 -0.12505,19.3386901 -10.75503,0 0,65.915192 -26.19572,12.25258 42.77676,0 0,-18.949762 -10.65924,0 0,-18.949763 62.77109,0 0,18.949763 -10.65924,0 0,59.218012 10.65924,0 0,18.94976 -62.87073,0 0.0821,-18.96734 10.67682,-0.11862 0,-14.07612 -71.06161,0 0,14.08254 11.86118,0.1122 0.0821,18.96734 -64.154729,0 z m 59.421267,3.75634 -10.80045,-0.10209 -0.28511,-21.19881 79.38952,0 0,21.18228 -10.67682,0.11862 -0.1122,11.86118 54.61035,0 0,-11.8436 -10.65924,0 0,-66.324172 10.65924,0 0,-11.278315 -54.70141,0.02689 0.0911,11.251422 10.78902,0 0,26.055925 -78.75995,0.59218 -0.45231,-26.648105 10.51937,0 0,-11.843602 -54.480568,0 0,11.843602 9.476622,0 0.590439,66.916355 -10.287897,0.14224 0.08925,11.15316 55.204334,-0.0264 -0.20325,-11.87876 z m -48.947697,-60.384791 -16.581043,0 0,-65.003615 10.067062,0.08463 0,-11.472253 -55.07275,-0.02608 0,10.093141 10.622918,0 0.628504,67.9412 28.424645,12.419838 21.910664,0.17545 z m 91.787917,1.562313 0.6285,-67.886484 10.62292,0 0,-10.659242 -55.29989,0 0.0239,11.366119 10.86249,-0.114697 0,65.139811 -17.17322,0.08619 0.20325,17.000981 17.20069,-0.12897 z m 7.33253,6.728208 1.55017,0 0,-5.921801 7.10616,0 0,9.474881 -7.40225,-0.0377 -8.21527,-0.0377 z" id="blue" style="fill:#100b2f"/>
</svg>