<?xml version="1.0" encoding="UTF-8" standalone="no"?>
<!-- Created with Inkscape (http://www.inkscape.org/) -->

<svg
   xmlns:dc="http://purl.org/dc/elements/1.1/"
   xmlns:cc="http://creativecommons.org/ns#"
   xmlns:rdf="http://www.w3.org/1999/02/22-rdf-syntax-ns#"
   xmlns:svg="http://www.w3.org/2000/svg"
   xmlns="http://www.w3.org/2000/svg"
   version="1.0"
   width="280"
   height="196.73546"
   id="svg">
  <metadata
     id="metadata">
    <rdf:RDF>
      <cc:Work
         rdf:about="">
        <dc:format>image/svg+xml</dc:format>
        <dc:type
           rdf:resource="http://purl.org/dc/dcmitype/StillImage" />
        <dc:title></dc:title>
      </cc:Work>
    </rdf:RDF>
  </metadata>
  <defs
     id="defs" />
  <path
     d="m 2.554526,2.4646838 0,37.6939782 12.613618,0 0,70.825968 45.071063,18.80106 17.25578,0 0,26.78508 -11.847252,0 0,38.37479 87.051545,0 0,-37.8597 38.88989,0 0,37.08707 86.79399,0 0,-37.60216 -13.13499,0 0,-50.47958 12.36235,0 0,-37.602145 -77.77979,0 0,-28.587932 12.36235,0 0,-38.6323415 -86.02133,0 0,38.6323415 11.0746,0 0,27.815284 -57.948522,0 0,-28.587932 10.817056,0 0,-37.3445961 -87.560358,0.6808149 z"
     id="white"
     style="fill:#ffffff;fill-opacity:1;fill-rule:evenodd;stroke:none" />
  <path
     d="M 73.619827,165.35513 86.28643,164.54388 85.558178,121.58117 60.242627,121.166 23.8767,105.97115 l 0,-73.927611 -11.938349,0 0,-21.223733 70.303618,0 0,21.223733 -11.938351,0 0,63.671203 2.652967,0 0,-18.570768 70.303625,0 0,18.570768 2.65296,0 0,-63.671203 -11.93835,0 0.68293,-21.213028 68.95745,0.46427 0.77053,20.748758 -12.04564,0 0,73.825011 -29.3392,13.72289 47.90997,0 0,-21.223732 -11.93836,0 0,-21.223734 70.30362,0 0,21.223734 -11.93834,0 0,66.324162 11.93835,0 0,21.22373 -70.41522,0 0.77484,-20.56047 11.27511,-0.81579 0,-15.76525 -79.589,0 0,15.77243 12.60159,0.80861 0.77484,20.56047 -71.853301,0 z"
     id="red"
     style="fill:#cc0000;fill-opacity:1" />
  <path
     d="m 63.671201,154.08001 11.938351,0 0,-22.55023 -16.581042,0.0562 -45.763676,-19.02576 0,-69.904798 -13.264834,0 0,-42.447468 92.853836,0 0,42.447468 -11.358717,0 0.08361,23.213459 53.722581,0.262887 0,-23.096163 -11.27511,-0.132853 0,-42.902752 90.8641,0.212504 0,42.442918 -11.93835,0 0,23.876701 76.93604,0 0,42.447467 -11.93835,0 0,44.95507 12.05036,0.12567 -0.17996,42.46716 -90.13291,0 0,-37.14152 -35.32631,0 -0.0532,37.34949 -90.864099,-0.12267 z m 86.303069,5.30593 -13.54102,0 -0.0177,-4.64269 69.18933,-0.25273 0,4.89543 -11.93835,0 0,33.20042 81.57874,-0.1534 0.0619,-33.04702 -12.71739,0 0.71707,-55.95964 11.27511,0.0948 0,-33.009544 -76.93604,0 0,-33.162084 11.93836,0 0,-33.2004249 -81.57874,0.1540816 0.0731,33.7038193 11.86517,0.0057 0,16.300441 0,16.300439 -63.671197,0 0,-33.511453 11.275109,0.09479 0,-33.0095446 -82.2419694,0 0,33.1620836 11.8957174,0 0.705874,72.208076 42.256972,17.9928 19.424506,0 0,31.8356 -11.938351,0 0,33.20042 82.489309,-0.24629 z m -76.809732,5.05859 12.666603,0.0994 -0.272963,-42.9627 -25.315551,-0.41517 -36.365927,-15.19485 0,-73.927609 -11.938349,0 0,-21.223734 70.303618,0 0,21.223734 -11.938351,0 0,63.671202 2.652967,0 0,-18.570768 70.303615,0 0,18.570768 2.65296,0 0,-63.671202 -11.93834,0 0,-21.440674 70.55095,-0.218658 -0.14005,21.659332 -12.04563,0 0,73.825009 -29.33921,13.72289 47.90998,0 0,-21.223731 -11.93836,0 0,-21.223734 70.30362,0 0,21.223734 -11.93834,0 0,66.324161 11.93835,0 0,21.22374 -70.41522,0 0.092,-21.24342 11.95803,-0.13286 0,-15.76525 -79.589,0 0,15.77244 13.28452,0.12567 0.092,21.24342 -71.853302,0 z m 66.551812,4.2071 -12.0965,-0.11434 -0.31933,-23.74266 88.91627,0 0,23.72415 -11.95805,0.13285 -0.12566,13.28453 61.16359,0 0,-13.26483 -11.93835,0 0,-74.283071 11.93835,0 0,-12.631713 -61.26558,0.03012 0.10203,12.601592 12.08371,0 0,29.182632 -88.21114,0.66325 -0.50659,-29.845882 11.78169,0 0,-13.264834 -61.018226,0 0,13.264834 10.613816,0 0.661292,74.946312 -11.522444,0.15931 0.09996,12.49154 61.828852,-0.0296 -0.22765,-13.30421 z m -54.821414,-67.63096 -18.570767,0 0,-72.80404 11.275109,0.09479 0,-12.848923 -61.681478,-0.02921 0,11.304318 11.897668,0 0.703924,76.094145 31.835601,13.9102 24.539943,0.19651 z m 102.802454,1.7498 0.70392,-76.032863 11.89768,0 0,-11.938351 -61.93587,0 0.0268,12.730053 12.166,-0.128461 0,72.956582 -19.23402,0.0965 0.22765,19.0411 19.26477,-0.14445 z m 8.21244,7.53559 1.73619,0 0,-6.63242 7.9589,0 0,10.61186 -8.29052,-0.0422 -9.20111,-0.0422 z"
     id="blue"
     style="fill:#100b2f" />
</svg>
