<?xml version="1.0" encoding="UTF-8" standalone="no"?>
<!-- Created with Inkscape (http://www.inkscape.org/) -->

<svg
   xmlns:dc="http://purl.org/dc/elements/1.1/"
   xmlns:cc="http://creativecommons.org/ns#"
   xmlns:rdf="http://www.w3.org/1999/02/22-rdf-syntax-ns#"
   xmlns:svg="http://www.w3.org/2000/svg"
   xmlns="http://www.w3.org/2000/svg"
   version="1.1"
   width="280"
   height="200"
   id="svg2"
   xml:space="preserve"><metadata
     id="metadata8"><rdf:RDF><cc:Work
         rdf:about=""><dc:format>image/svg+xml</dc:format><dc:type
           rdf:resource="http://purl.org/dc/dcmitype/StillImage" /><dc:title></dc:title></cc:Work></rdf:RDF></metadata><defs
     id="defs6" /><g
     transform="matrix(1.25,0,0,-1.25,-89.935803,278.32139)"
     id="g10"><g
       transform="matrix(0.05607852,0,0,0.05607852,92.748394,62.657107)"
       id="g12"><path
         d="m 84.8438,2210 0,-670 140.0002,0 0,-875 -140.0002,0 0,-665 954.9962,0 0,335 157.5,-247.5 137.5,232.5 0,-320 975,0 0,645 -140,0 0,310 c 0,0 70,20 100,75 0,0 80,65 70,120 0,0 40,45 25,100 0,0 40,10 10,90 0,0 10,90 -70,120 0,0 90,-60 255,-25 0,0 85,-125 190,-165 0,0 105,-95 130,-100 0,0 -30,-130 120,-170 0,0 60,-30 130,45 0,0 150,-40 130,150 0,0 40,65 -5,125 0,0 30,100 -60,170 0,0 -85,95 -195,160 0,0 -20,105 -65,165 0,0 -85,85 -110,105 0,0 35,60 -20,160 0,0 40,95 -30,190 0,0 45,95 0,175 0,0 -60,30 -180,40 0,0 -145,70 -240,60 0,0 -175,150 -505,140 0,0 -210,50 -435,-85 0,0 -255,-105 -624.996,-430 l -50,50 -80,5 c 0,0 -70,130 -250,245 0,0 -125,65 -30,90 0,0 110,10 155,-30 0,0 90,-85 175,-45 0,0 115,30 80,185 0,0 -65,140 -280,165 0,0 -170,70 -360,-65 0,0 -125.0002,-45 -145.00025,-215 0,0 -40.00005,-120 110.00025,-275 l 60,-70 -90.0002,0"
         id="path14"
         style="fill:#ffffff;fill-opacity:1;fill-rule:nonzero;stroke:none" /><path
         d="m 3194.37,1161.82 -0.06,0.82 0.08,0.8 c 0.43,4.45 -3.55,10.6 -7.38,16.56 -5.61,8.69 -11.97,18.55 -9.26,29.88 1.56,6.49 5.96,12 13.03,16.88 7.63,23.63 2.65,51.07 -13.01,69.19 l -3.91,4.54 2.15,5.6 c 9.14,23.77 9.34,55.83 8.34,84.2 -0.43,19.55 -14.69,29.23 -31.21,40.43 -15.59,10.58 -33.03,22.64 -37.09,44.59 -20.51,31.2 -50.51,45.27 -82.3,60.08 -36.29,16.89 -73.81,34.36 -97.46,78.85 l -19.3,41.99 c -39.53,87 -80.41,176.97 -165.61,240.23 l -5.88,4.38 2.39,6.92 c 10.15,29.41 28.2,103.13 -23.46,152.51 l -3.98,3.81 1.09,5.41 c 7.85,38.4 13.83,94.08 -1,143.22 -43.73,33.44 -27.24,70.6 -12.5,103.48 10.3,23.01 20,44.73 13.75,67.2 -3.36,8.27 -12.09,26.05 -25.45,29.01 -85.31,-10.18 -157.89,16.03 -228.04,41.48 -54.26,19.69 -110.37,40.05 -171.37,42.62 l -2.19,0.1 -1.93,0.98 c 0,0 -118.01,60 -117.36,59.71 -262.23,111.09 -603.74,81.05 -830.49,-73.07 l -0.52,-0.35 -0.57,-0.29 C 1202.1,2411.66 1069.52,2306.91 941.293,2205.6 883.512,2159.94 823.762,2112.73 764.227,2069.41 l -8.676,-6.31 -5.688,9.1 -42.058,67.3 -79.575,0 -2.996,4.14 c 0,0 -51.996,72 -51.964,71.95 -50.719,69.39 -117,115.8 -181.098,160.7 -44.188,30.94 -89.883,62.94 -129.824,102.06 l -0.575,0.57 -0.48,0.65 c -16.57,22.48 -8.695,54.18 0.836,76.81 l 0.273,0.65 0.368,0.61 c 31.445,52.4 90.234,78.26 174.742,76.85 l -1.164,-0.04 c 47.789,4.77 83.496,-17.95 118.031,-39.92 26.809,-17.06 52.141,-33.15 82.629,-37.01 17.543,0.09 58.242,4.48 73.797,41.25 8.8,34.56 -8.496,61.91 -24.68,78.81 -55.086,48.35 -126.594,78.75 -224.285,95.03 -139.668,21.25 -261.742,-22.58 -343.82,-123.53 -49.938,-59.73 -50.6606,-162.11 -22.2973,-227.12 20.6253,-55.83 65.5433,-94.55 113.1013,-135.54 42.719,-36.83 86.844,-74.92 112.059,-126.72 l 3.066,-4.9 9.563,-15.3 -180.918,0 0,-529.5 135.785,0 0,-1028.535 -135.785,0 0,-512.715 806.754,0 0,512.715 -141.004,0 0,303.183 17.07,-17.07 5,-5 0.965,-0.976 0.668,-1.172 348.363,-615.742 356.27,619.667 18.67,32.481 0,-315.371 -145.01,0 0,-512.715 811.51,0 0,512.715 -140.51,0 0,421.735 2.41,2.8 5.99,7.01 4.47,5.19 6.47,-2.28 c 8.83,-3.11 18.5,-1.17 28.71,0.9 5.61,1.11 11.43,2.28 16.41,2.56 21.03,3.3 29.14,18.24 38.49,35.54 9.48,17.48 20.3,36.99 45.53,44.08 6,9.73 12.44,20.28 15.35,30.12 l -1.58,-0.37 c -2.3,-0.53 -5.12,-1.45 -8.07,-2.42 -12.77,-4.2 -32.05,-10.55 -45.04,5.99 l -9.68,12.33 15.25,3.57 c 16.29,3.85 30.65,10.41 43.87,20 17.09,17.13 30.54,32.33 33.71,50.33 -14.83,-2.38 -30.47,-3.65 -43.75,3.01 l -16.72,8.34 16.23,9.28 c 1.93,1.11 3.91,2.48 6,3.95 4.88,3.41 10.41,7.28 17.54,9.07 l -2.17,-0.82 c 20.21,10.45 30.37,32.49 33.98,53.36 -1.91,-0.87 -3.83,-1.7 -5.8,-2.67 -5.62,-2.8 -11.46,-5.67 -18.12,-7.25 -15.24,-5.16 -34.96,-2.71 -42.43,12.21 l -5.25,10.52 11.23,3.5 c 18.44,5.71 49.92,19.11 65.86,45.53 -30.76,21.5 -70.14,25.25 -111.78,28.95 l -4.27,0.38 -2.68,3.38 c -16.46,20.79 -53.83,18.52 -74.63,15.32 l -11.7,-1.8 0.18,11.83 c 0.31,22.5 0.02,42.38 -0.28,61.61 -0.62,40.84 -1.15,76.13 4.34,121.45 l 1.02,8.28 8.32,0.5 51.01,3 -1.19,-0.14 c 44.45,8.01 75.02,-19.31 101.99,-43.42 14.38,-12.85 27.97,-25 44.01,-32.89 86.79,-53.11 194.43,-63.57 280.91,-27.31 l 7.84,3.29 4.51,-7.22 c 54.57,-87.55 126.6,-156.13 197.63,-188.18 l 1.98,-0.89 1.42,-1.63 c 19.38,-22.07 42.87,-39.51 65.61,-56.39 26.48,-19.64 53.85,-39.95 73.92,-67.28 l 2.97,-4.04 -1.44,-4.79 c -13.26,-43.55 13.65,-79.16 39.04,-101.66 19.79,-9.39 55.57,-21.87 86.08,-9.45 14.25,33.46 40.91,26.47 58.92,21.43 16.99,-4.73 27.89,-7.17 37.54,1.89 l 1.23,1.15 1.54,0.69 c 20.77,9.22 32.02,31.34 30.1,59.18"
         id="path16"
         style="fill:#f89a2e;fill-opacity:1;fill-rule:nonzero;stroke:none" /><path
         d="m 2291.77,1361.17 c -7.28,-20.65 -35.45,-31.56 -61.27,-40.16 l 1.72,0.76 c -8.36,-4.68 -16.19,-5.74 -23.22,-3.14 -12.34,4.57 -17.5,18.59 -21.64,29.86 -1.52,4.14 -3.09,8.42 -4.53,10.76 l -2.44,3.98 1.46,4.42 c -0.06,-0.2 -0.08,-0.33 -0.08,-0.33 0.08,0.57 -0.09,2.25 -0.21,3.36 -0.53,4.87 -1.88,17.8 11.62,22.3 l 2.34,0.79 c 0.1,-0.02 2.52,-0.41 2.52,-0.41 l 17.6,-2.87 c 23.54,-3.7 47.87,-7.53 70.47,-16.74 l 8.83,-3.6 -3.17,-8.98"
         id="path18"
         style="fill:#ffffff;fill-opacity:1;fill-rule:nonzero;stroke:none" /><path
         d="m 2299.21,1292.85 c -7.57,-45.44 -59.35,-54.06 -84.21,-58.22 l 2.18,0.64 c -7.87,-3.28 -23.06,-5.27 -36.52,18.26 l -0.76,1.35 -0.33,1.52 c -3.34,15.55 1.62,30.08 14.7,43.17 l 4.32,4.31 5.82,-1.86 c 25.63,-8.23 56.07,-7.55 81.47,1.85 l 16.17,5.99 -2.84,-17.01"
         id="path20"
         style="fill:#ffffff;fill-opacity:1;fill-rule:nonzero;stroke:none" /><path
         d="m 2272.98,1203.83 c -4.59,-16.51 -18.55,-31.23 -42.67,-45.02 -11.35,-7.31 -25.47,-6.7 -37.93,-6.15 -6.06,0.25 -11.76,0.5 -16.88,-0.1 l -5.62,-0.67 -3.46,4.52 c -9.86,12.81 -6.7,27.16 -4.16,38.69 0.96,4.29 1.86,8.36 2.11,12.07 l 0.24,3.75 2.65,2.65 c 15.39,15.38 33.28,8.15 46.35,2.88 9.04,-3.66 17.58,-7.11 25.39,-5.22 l 1.7,0.39 1.74,-0.17 c 5.68,-0.65 9.53,1.03 15.35,3.55 l 1.62,0.68 19.18,8.28 c -0.02,0 -5.61,-20.13 -5.61,-20.13"
         id="path22"
         style="fill:#ffffff;fill-opacity:1;fill-rule:nonzero;stroke:none" /><path
         d="m 2249.25,1116.17 c -2.63,-19.82 -24.68,-36.27 -45.09,-42.26 l -1.61,-0.47 -1.67,0.08 c -4.13,0.19 -8.68,0.17 -13.5,0.17 -19.34,-0.04 -43.4,-0.08 -60.43,14.12 l -3.97,3.3 0.4,5.16 c 1.32,17.21 10.85,31.86 25.48,39.18 l 4.48,2.23 4.47,-2.23 c 25.23,-12.62 51.91,-23.73 76.48,-9.32 l 17.68,10.35 -2.72,-20.31"
         id="path24"
         style="fill:#ffffff;fill-opacity:1;fill-rule:nonzero;stroke:none" /><path
         d="m 2192.89,1052.3 c -21.51,-35.42 -69.69,-36.34 -96.51,-33.76 l -1.01,0.09 -0.96,0.32 c -5.45,1.66 -9.59,5.05 -11.97,9.8 -5.02,9.98 -0.73,22.19 2.44,31.07 0.35,1.04 0.7,2.02 0.98,2.84 l 0.31,0.91 0.47,0.84 c 6.74,11.94 14.45,18.93 23.55,21.39 13.4,3.63 25.41,-3.38 37.05,-10.16 11.55,-6.73 22.46,-13.1 33.48,-8.82 l 27.46,10.68 -15.29,-25.2"
         id="path26"
         style="fill:#ffffff;fill-opacity:1;fill-rule:nonzero;stroke:none" /><path
         d="m 2693.18,2201.66 c -12.5,17.5 -136.84,99.11 -155.84,73.34 -7.89,-10.71 57.5,-101.67 149.16,-120 31.29,-6.26 8.54,-91.49 -21.66,-121.67 -6.66,-6.67 28.34,-18.33 26.66,-71.67 0,0 -121.91,-33.91 -160.41,-9.16 -15.72,10.1 -47.71,-2.23 -63.75,7.5 -24.51,14.88 -108.65,32.71 -116.25,32.5 -17.75,-0.52 -21.89,-81.89 -37.46,-81.66 -327.54,4.8 -185.33,166.71 -138.79,220.41 24.24,27.97 6.54,-33.83 110,-11.25 68.75,15 85.84,-15.84 156.66,-40 -17.05,61.97 37.56,124.83 20.84,122.5 -77.5,-10.84 -209.16,139.16 -270.84,-5.84 -40.86,-96.1 -8.65,40.09 -91.66,28.34 -86.95,-12.32 -17.36,232.5 -190,232.5 -97.5,0 -160,-570 42.5,-785 62.5,27.5 272.5,-27.5 330,-75 57.5,-47.5 112.5,-107.5 202.5,-92.5 90,15 130,32.5 145,40 32.5,-65 76.25,-152.5 146.25,-177.5 20.96,-7.48 44.08,-80.73 97.5,-111.25 35,-20 63.91,-45.64 72.5,-63.75 23.24,-48.96 -15,-120 108.75,-117.5 l 41.25,31.25 70,-7.5 25,26.25 1.25,47.5 -16.25,32.5 20,36.25 -22.23,59.24 12.23,62.01 -7.5,52.5 -48.75,40 -113.34,1.66 C 2993.18,1420 3028.18,1340 2993.18,1330 c -40,6.66 -75.84,30 -98.34,130 -24.18,107.51 -87.29,110.6 -193.34,61.66 -44.12,-20.37 -76.29,59.62 -71.66,96.67 1.76,14.01 -5,89.17 -5,89.17 l -55,-18.34 c -11.66,30.84 -5.84,78.34 35.84,75 l 31.66,-11.66 20,-19.17 c 25,38.33 80,161.67 80,161.67 l 22.5,91.25 -42.5,81.25 7.5,123.75 -31.66,10.41"
         id="path28"
         style="fill:#ffffff;fill-opacity:1;fill-rule:nonzero;stroke:none" /><path
         d="m 2599.84,2400 c 16.66,-36.67 76.66,-115 68.34,-145 23.32,21.66 48.32,101.66 48.32,101.66 5,21.67 -10,65 -50,56.67 -40,-8.33 -72.34,-0.83 -66.66,-13.33"
         id="path30"
         style="fill:#ffffff;fill-opacity:1;fill-rule:nonzero;stroke:none" /><path
         d="m 693.344,2684.5 c 23,-24.01 36.004,-55 27,-89.01 -14,-33.99 -49,-47.99 -84,-47.99 -74,9 -119,85 -199,77 -60,0.99 -130,-12 -166,-72 -8,-19 -16,-48 -1.996,-67.01 96.996,-95 225,-145 311.996,-263.99 l 52,-72 80,0 45,-72 c 191.004,139 373.996,310 581.006,415 231,157 577.99,185 840,74 l 117.99,-60 c 142.01,-6.01 250,-103 400,-84 17.01,-3 28.01,-21 34,-36 18.01,-63 -71.99,-118 -1.99,-168 15,-47 11.99,-102 1.99,-151 45,-43 45,-108 26,-163 101,-75 140,-184.01 188.01,-286 41.99,-79 134,-67 180,-139 5,-41 67.99,-42 69,-89.01 1,-27.99 1,-62 -9,-87.99 19,-22.01 24,-55 14,-82.01 -31.01,-17.99 6.99,-36.99 5,-57.99 1.99,-29 -9,-57.01 -36.01,-69 -32,-30 -77,30.99 -96,-24.01 -31.99,-15 -70,-5 -99,9.01 -32,28 -57,66.99 -42.99,113 -36,48.99 -96,73.99 -139.01,123 -81.99,37 -154,115 -201.99,192 -93.01,-39 -205,-24 -290,28 -47.01,23 -78.01,85.99 -139,75 l -51,-3 c -8.01,-66.01 -3.01,-112 -4,-182 25.99,4 65,5 84,-19.01 45,-3.99 90,-7.99 123.99,-35.99 -13.99,-31.01 -47,-49.01 -76,-58 5,-10 20,-11.01 31,-7 13,3 24,13 38,13.99 -0.99,-26.99 -11.99,-60.99 -40.99,-75.99 -8.01,-2.01 -14.01,-8.01 -21,-12.01 13.99,-6.99 32.99,-2.99 50,0 1.99,-28.99 -18.01,-50 -38.01,-70 -15,-11 -30.99,-17.99 -48,-21.99 11.01,-14.01 30,-3.01 43,0 l 14.01,10 c 5.99,-19.01 -8.01,-40 -19.01,-58.01 -49,-10 -38,-72.99 -89,-81 -16,-0.99 -32.99,-9 -50,-2.99 l -6,-7.008 0,-408.027 140.51,0 0,-532.715 -831.51,0 0,532.715 145.01,0 0,267.91 -365.01,-634.883 -356.996,630.996 -5,5 0,-269.023 141.004,0 0,-532.715 -826.754,0 0,532.715 135.785,0 0,1008.535 -135.785,0 0,549.5 172.875,0 -3.125,5 c -51,105.99 -185,153 -226.0002,264 -31,71 -26.9961,176 24.0002,236.99 87,107.01 215,148.01 353,127.01 84,-14 164,-40 230,-98 z m -273,79 c -34,-23.01 -50,-57 -75,-86 -29,7 -10,-27.01 -19,-39 8.004,-2 13.004,4 19,5 21,9 50,1 68,16.99 5,41.01 59,58.01 64,96.01 -19,2 -37.996,5 -57,7 z m 96,-17 -6.996,-7 c -4.004,-17 -15,-42 0,-55 16.996,20.99 40,28 63.996,30.99 10,-2.99 18,-11.99 15,-23.99 -6,-9 -18.996,-36.01 -33.996,-21.01 -10,-10 -29.004,-20 -29.004,-35.99 37,-15 67,-46 108,-51 9,6.99 14,16 12,26.99 -25.996,24.01 9.004,51.01 8,74.01 -43,28 -87,52 -137,62 z m -206.996,-4 c -55,-3 -104.004,-30 -141.004,-68 39,-8 69,-38 101.004,-64.01 12.996,24.01 2.996,58.01 18.996,81.01 l 9,-9 12.004,60 z m -184.004,-161 -24,-19 c -16.0002,-38 -14.0002,-93 7,-125 33,21 32,77 74,81 4,-14 -12,-25 -5,-36 26,17.99 47.004,47 48,80 -35,6 -75,0 -105,-8 -3,10.99 5,17 5,27 z m 1264.006,-214 c -28.01,-83 -28.01,-181 -33.01,-271 -1.99,-8 -5,-22 -16.99,-19 -52.01,82 -76.01,176 -82.01,277.99 -31,-26.99 -45,-65.99 -72,-90.99 -14,19 -10,45.99 -20.99,67 -14.01,6 -19.01,-9 -29.01,-14 -77,-154 -49,-369 -14,-533 l -5,-14.01 c -9,-8.99 -13,6.01 -19,9.01 -26,73 -60,142 -110.996,204 -6.996,3 -18,10 -24,0 -12,-15 -9,-41 -26,-50 -21.996,49 -46,103 -96,134 -20.996,7 -42,-1 -58,-12.01 88,-75.99 142.004,-170.99 178,-270.99 5,30 9.004,75 31,105.99 9.996,3.01 20.996,-5.99 28.996,-15 68,-128.99 86,-277.99 93,-431.99 31.01,76 47,158 46.01,246.99 0.99,4.01 3.99,10 10,8.01 33.99,-70 55,-153.01 92.99,-214 -26,120.99 -57.99,240.99 -112.99,350 -3.01,8 -6.01,28 10,24 35,-44 68.99,-83.01 112.99,-117 -1,13 -1,32 9,43 10,2 16,-3 22,-10 43,-99.01 105,-196 199,-271 l 15,55 c 7.01,34 32.01,65 33.01,96 -22.01,-22 -37.01,-52 -48.01,-81 -82.99,146.99 -159,296.99 -185,468 l 5,13.99 c 27.01,-10.99 49,-35 77.01,-45 11.99,43.01 10,98.01 47.99,127.01 1,-74 4,-154 24,-223 17,-48 32,-98 65,-137 l 7,5 c -6,37 -7.99,75 -7,115 3.01,6 2,17 12,19 20,-21.01 29,-48 43,-70 12,26 27,51 48.01,72 6.99,1.99 11,-3.01 16.99,-4 13.01,-74.01 24.01,-149.01 62,-212 61.01,-64 89,-141 96.01,-228 -11.01,-19.01 -14,-53 -38.01,-55 -5,52 -18,100.99 -45.99,144 -19.01,-9 -12.01,-41 -36,-48.01 -23.01,32.01 -32.01,70 -41.01,108.01 -5,39 -7,81 -16,115 -32.99,-79 -46.99,-167 -44,-261 l 12.01,-15 c 45.99,6 85.99,22.99 122.99,51 l 7.01,-5 c -10,-60 -34.01,-114 -65,-166 39,-12.01 81.99,-9.01 117.99,7.99 23,-18.99 7.01,-57.99 2.01,-80 45.99,3 90.99,11.01 130,32.01 24,-17.01 -18.01,-39.01 -19.01,-46 l 57,21.99 c 21.01,2 49,7 67.01,-5 2.99,-16.99 -17.01,-20.99 -26,-30.99 -23.01,-24 -30,-60 -19,-92.01 15.99,-30 46.99,-56 80.99,-56.99 62,-18.01 26,65.99 82,71.99 -2,27.01 9,51.01 31.01,67.01 -38.01,45 46,80 -5,115 -8.01,17 7.99,35 -4,50.99 -63.01,8.01 -123.01,-20.99 -176,-50.99 -22.01,10 -8.01,45.99 -12.01,65 -41.99,6 -71,-36 -107.99,-53 -11.01,-8 -35,-27 -43.01,-2 37,67.99 34.01,161 3.01,230 -119,144 -178.01,355 -82.01,527.99 4,4.01 9,11.01 14,5 2,-85 -0.99,-185 58.01,-250 6.99,13.01 8.99,29.01 21.99,36.01 l 7,-4 c 9,-78 40,-148 101.01,-204 l 6.99,0 c 27,43 35,94 48.01,144 30,-22.01 53.99,-59 73.99,-92.01 7.01,16.01 6.01,35 19,48.01 27.01,-17 42.01,-47 56,-74 85,-34.01 172.01,-106 220,-190 55,-30 137.01,-31 195,-7 28,16 45,45 48,75 -80.99,29 -176.99,26 -259,2 -37.99,62 -77.99,130 -141.99,182 -14.01,42 40,68.99 40.99,111 -8,16 -20.99,-1 -34,5 -31.99,-6 -47.99,-38 -65,-63 -16.99,-17 -31.99,10.99 -40,19 -16,-10 -17.99,-30 -26.99,-45 -44.01,46 -64.01,114 -57.01,181.99 8,34.01 33,66.01 64,87.01 15,1 31,19 44,2 -15.99,-25 -28,-60 -11.99,-89.01 7.99,-17.99 22.99,-35.99 42.99,-40.99 60,-9.01 115,22 165,50.99 54,22.01 93.01,-22.99 137.01,-38.99 6,-3 11.99,-12 2.99,-16.01 -11,-3.99 -24,2.01 -34,7.01 -31,4 -62,22 -93.99,12 l 5,-7 c 31.99,-10 70,-7.01 96,-32.01 1.99,-6.99 -1,-11.99 -7.01,-15.99 -33.99,5 -67.99,17 -101,19 l 0,-7 c 35,-11.01 76,-16.01 111,-32 -1,-6 -3.99,-12 -10,-16 -33.99,6 -68.99,16.99 -102.99,14 l 0,-10 c 34,-9 75.99,0 105,-19 7.99,-6 4,-14 -2.01,-19 l -83.99,5 c -2.01,-4.01 -10,-6 -7.01,-12 34,-10 75,-1 110,-7.01 l 7.01,-5 -16.01,-18.99 c 7.01,-26.01 11.01,-53 33,-72 4.01,24 10,48 27,67 14,0 12.01,-19 19,-29 l 12.01,29 c 11.99,-3 6,-21.01 13.99,-29 l 15,29 c 15,-4 9,-21.01 14,-31.01 l 17.01,26.01 c 11.99,-4 6,-24 13.99,-34 l 22.01,39 c 5,-21.01 6.99,-45 16.99,-63 11,16.99 17.01,36 21,56 -52,22 -121,25.99 -175,24 l -7,4 c -1.99,10 3.01,16 9.01,22 36.99,10 89,5 105.99,40.99 -13,-5.99 -26.99,-13.99 -40.99,-10 15,43.01 -42.01,39.01 -41,75 32.99,28.01 87.99,3.01 125,21.01 35,10 5,46 6.99,65 18.01,-4 29.01,-23 36,-38 23.01,-57 -15,-100 -42.99,-142 1.99,-15 20,-12 31,-12 37.99,34 60.99,79 65,130 10.99,50 -67.01,72 -36,122 11,56 6.99,123 -43.01,156 16,42 40,81 41,130 -21.99,39 -76,15 -112.99,12 -52.01,58 -145,-20 -187.01,57 -96,11 -186,5 -261.99,-31.01 32.99,10 65.99,20 102.99,19.01 3,-4.01 10,-6 8,-12 -60,-20 -120.99,-35 -173,-72.01 -11,-12.99 -28.99,-31.99 -18.99,-45 32.99,28.01 71,46.01 110,62.01 25,10 55,22 81.99,14 l -5,-9 c -53,-36 -114,-58 -155.99,-115 -4.01,-6 -13.01,-16 -3.01,-22.01 41,4.01 65,46.01 99,65 20,8.01 42,24.01 62,17.01 -13.99,-45 -61,-76 -57,-128 3.01,-14.01 18.01,-8 26,-16 63.01,15 143.01,24 202.01,-8.01 -2.01,17.01 -17.01,29.01 -29,41.01 -29.01,28.99 -75,18 -103.01,48 -5,9 -12.99,22 2.01,29 45,0 83.99,-16 121.99,-31 32,-30 75,-34 108.01,-58 1.99,-22 -25,-22 -36.01,-31 15,-10 34,-13.01 44,-29 -26,-22 -51.99,-8 -81.99,-12 -5,-12.01 21.99,-17.01 21.99,-31 -29,-25 -62.99,-39 -99,-48 -17.99,16.99 21.01,28 3,46 -38,-9.01 -60,25 -94,15.99 7.01,-25 42.01,-35 48.01,-60 -29.01,-6.99 -65,9.01 -89.01,15 l 51,-50.99 c -4,-22 -31.99,-16 -47.99,-24.01 -26.01,4.01 -50,10 -68.01,32.01 -30,22.99 -19,62.99 -20.99,97.99 -37.01,30 -91,27.01 -125,67.01 -33.01,35 -26,91 -17.01,130 -22.99,-31 -25,-77.01 -17,-115 0,-26 -16.99,-48 -38,-63 -10,-5 -22,0 -31,5 -6,33 -14,68 -39,90.99 -60,-82.99 -73.99,-196.99 -52,-301.99 -8,-13.01 -15,3 -21.99,5 -66.01,101 -48.01,261 16.99,356.99 -35,-20.99 -61.99,-62.99 -76.99,-100.99 -10,-19.01 -11.01,-42 -24,-60 -7.01,-2 -10,4 -14.01,8 -46.99,-43 -55.99,-102.01 -65,-161 -5.99,-13 3.01,-37 -15,-39 -35,127.99 -8,272 89.01,365 25,45 95.99,42.99 86.99,102.99 13.01,42.01 57.01,70 98.01,75 -18.01,31.01 20.99,54.01 30.99,74.01 -156.99,-34.01 -288,-190 -350,-331 -10,-11 3.01,-33.01 -15,-38.01 -30,115 7,227.01 63.01,319.01 l -67.01,-17 -11.99,7 c 5.99,25 29,42 40,65 -90,-26 -205.01,-89.01 -216,-197 z m 536,117.99 c 35.99,1.01 76.99,-22.99 110,-47.99 61.99,22.99 134,42 201.99,52.99 -89,48.01 -226,54.01 -311.99,-5 z M 240.344,2463.5 c -30,-9 -58,-37 -75,-65 -12,-19 -14,-44 8,-57 30,18.99 55,51 93,50 18.004,2 24,21 24,36 -13,16 -28,37 -50,36 z m 1710.996,-24 c -21.99,5.99 -48,10.99 -66.99,-5 -19,-16 -14,-42 -17.01,-64.01 1,-48.99 42.01,-93.99 79,-112.99 l 1.51,10.49 c 7.99,42.01 -25.51,80.51 -3.5,116.51 13.99,13 27.99,-4.01 41,-10 12.99,-10 15.99,12 24,17 -16.01,20 -36.01,38.99 -58.01,48 z M 377.344,2370.49 c -72.996,41.01 -54,-75 -116,-71.99 -3,-17 4,-29 12,-41 10,-2.01 16.004,2.99 24,5 35,22 79,57.99 92.004,97.99 l -12.004,10 z m -44,-125 c -11,-15 -1,-35 12,-42.99 58,-19 119.004,12.99 183,9 l 0,5 c -38.996,63 -138.996,63 -195,28.99 z M 2700.35,1813.5 c -1,-40 -22.01,-76 -48.01,-101 -14,10 -12.99,26 -19,37.99 l -20,-13.99 c -11,5 -6,18.99 -13.99,23.99 -11.01,-16.99 -26.01,-30.99 -24,-52.99 15,-32.01 30.99,22.99 52.99,19 15,-24 12.01,-65 2.01,-91.01 15.99,-5 10.99,-17.99 11.99,-32.99 37.01,-18 80,-21 111,-53 -7,-22 -41,-15 -56,-27 39,-6 92.01,-2.01 106,-40 -2,-16 -17,-15 -26,-8 -21,5 -47.99,5 -57.99,-16 -5,-16 -2.01,-35 11.99,-46 25,-29.01 68.01,-22.01 103.01,-19.01 18.99,-21.99 5,-53 11.99,-81.99 24.01,-62 122,-79 108.01,-158 12.99,-12 31,-18.01 47.99,-12 -21,37 -42.99,72.99 -41,120 3.01,23 25,33.99 41,50 6,16.99 -9,15 -16.99,23.99 0.99,9.01 4,17.01 10,24.01 7.99,17 5.99,40.99 -7.01,55 -5,14 -2.99,30.99 7.01,40.99 19,21.01 51.99,16.01 76.99,17.01 3.01,7.99 -5,9 -10,12 -46.99,7 -91,-16 -120,-55 -41,18 -30,64 -29,103 -10,29 -48.99,30 -76,37.99 -11.99,6.01 -35,5 -31.99,24.01 24,24 62.99,17 89,39 l -5,6.99 c -41.01,4.01 -90,12.01 -129,2.01 -4.01,5 -11,9 -12.01,15 0,21 25,25 36.01,36 l -15,19 c 25,15 55,2 81.99,2 -16.99,33 -58,25.99 -85.99,27 -23.01,-2 -38.01,-32 -60,-19 9,26 26.99,49 20.99,81 -0.99,14 -15.99,16.99 -25.99,10 z m -307.01,-63.01 c -18.99,-3.99 -41,30 -56,8.01 -1,-34 37.01,-33.01 56,-48.01 l 26.01,36.01 21.99,-20 c 0,16 -15,23.99 -21.99,36 l -26.01,-12.01 z m 28,-27.99 c -15.99,-20 -18,-45 -15.99,-72.01 66.99,12.01 145,7.01 207.99,-11.99 5,19 13,45 3,61.99 -15.99,-12.99 -20.99,-35 -39,-42.99 -6.99,7.99 -5,20 -11.99,29 -5,-8 -11,-16.01 -16,-24 -12.01,1 -8.01,17 -12.01,26 l -24,-29 c -7,10.99 -7,24 -15,34 l -17,-31 c -14,7.99 -9,30 -24,37.99 -6,-11.99 -5,-28.99 -19,-35.99 -5,19 -7,40 -17,58 z m 615,-274 c -8,-4 -20.99,-7 -19,-19 14,-28 7.01,-55 2.01,-82 16.99,4 31.99,10.99 46,22 10.99,17 25.99,32 24,55 -6.01,22 -34,27 -53.01,24 z m 86,-12 c -7.99,-36.01 38.01,-35 55,-58.01 l -4,27 c -12.99,16.01 -31,36.01 -51,31.01 z m -926,-53.01 c -9,-3 -3,-13 -5,-18.99 8.01,-13 11,-48 36,-34.01 21,7.01 49,17.01 55,34.01 -26.99,10.99 -56.99,13.99 -86,18.99 z m 941,-1.99 c -16.99,-2 -16.99,-23.01 -15,-34 -4,-21 -27.99,-38 -45,-41 2.01,-4 6,-4 9,-7 21,-12 54.01,-9.01 72,7 16.01,13 21.01,33 15,51 -6,14 -20,25 -36,24 z m -39,-5 -21,-31.01 c 1,-5 6,-8.99 12.01,-7 6,9.01 16.99,26.01 8.99,38.01 z m -897,-84 c -9,-9.01 -15,-20 -11.99,-34.01 3.99,-6.99 11.99,-19 23.99,-13.99 30,5 70,13.99 76.01,50 -27.01,-10 -60,-11.01 -88.01,-2 z m 967,-24.01 c -27.99,27 -23.99,-16.99 -41,-25.99 -10,-8.01 -26,-13.01 -31,-22.01 16,-10 37,-16 57,-10 17.01,5 32.01,22.01 29,41.01 l -14,16.99 z m -927,-66.99 c -25,-6.01 -48,23.99 -66.99,5 -1.01,-15 -10,-31.01 0,-44 16.99,1.99 36.99,-4 51,5 14,7.99 32.99,21 37.99,39 -7,-3 -12.99,-6.01 -22,-5 z m -439,7 c 44,-22 86,-56 135,-58.01 l -44,44 c -32.99,-4 -61,8.01 -91,14.01 z m 1323.01,-55 c -10,-9.01 -33.01,-5 -32.01,-19.01 16.01,-24 44,-24 68,-20 13.01,7.01 29.01,21 26,39.01 -6.99,33 -47.99,30 -61.99,0 z m -156,-34.01 c 13.99,-30 47.99,-40.99 81,-40.99 10,9 29,9 21.99,29 -21,57.99 -66.99,-10 -102.99,11.99 z m -816.01,7.01 c -12,-6.01 -18.99,-18 -20,-31.01 18,-15 47.01,-11 68,-11.99 17,5 36,19 38.01,34 -29,-17.01 -60,-4 -86.01,9 z m -57.99,-67.01 c -3.01,-9 -11,-26.99 1.99,-30.99 31,-3.01 70,0.99 87.01,29 -36.01,-14 -63.01,47.99 -89,1.99 z M 1548.34,2487.5 c -130,-137.01 -93.99,-383 -22,-535 11,19 10,46 10,67 -16.3,91.31 -25.69,173.68 -3,269 10,36.99 36.01,66.99 36.01,108 -35,16 -12.01,63.99 -19,91 l -2.01,0 z m 854,-98 c -50,15 -96.99,-4.01 -131.99,-39.01 0,-5 0.99,-8.99 5,-11.99 45,21 112.99,23 157.99,8 3,6 -3.99,8.99 -3.99,13.99 l -27.01,29.01 z m 63.01,0 -5,-15 c 15,-21 29,-48 52.99,-60 22.01,40 70,7 100,10 -30,52 -92.99,57 -147.99,65 z m 230,-5 c -26,-4.01 -41,-38 -70,-29.01 1.99,-30.99 32.99,-50.99 39,-80.99 22.99,23 28.99,60.99 36,95.99 l -5,14.01 z m -377.01,-55 c -12.99,-7 -35,-8 -37.99,-24.01 44,-11.99 115.99,8.01 150.99,-35.99 14.01,-4.01 33.01,-15 46,0 -20,70 -100,54 -159,60 z m 199,-29.01 c -7.99,-23.99 22.01,-38.99 34,-55 20,-2.99 41,-18.99 60,-10 0,20 -24,8.01 -29,22.01 l 3.01,2 c 35,7 55,-29.01 80.99,-41 12,25 -15,44 -25.99,65 -37.01,16.99 -83.01,29 -123.01,16.99 z m -1370,-16.99 c -14,-10 -12,-36 -17,-55 -15,-139 -5,-288.01 84.01,-391 61.99,19 86.99,-66 141.99,-72.01 -50.7,116.31 -106.71,229.99 -141.99,355 -9.01,27.01 -8.01,59.01 -21.01,84.01 -42,-1 -30,45 -38.99,70 l -7.01,9 z m 1414,-62 c 10,-25 25,-47 45,-67 13.01,-21 1,-57 29.01,-68 1.83,20.18 18.16,16.8 35.99,27 8.01,6.99 -5.5,9.49 -8.49,15.5 5,6 0.49,18.5 10.49,22.5 14,-5 3,-31.01 10,-41.01 l 5,5 c 26.01,26.01 3,55 -5,82.01 -21,11 -31,-17.01 -52.99,-10 -9.01,29 -46,22.99 -69.01,34 z m -671.99,-63 c -45,-129 -14,-280 37.99,-396 l 7.01,0 c 1.99,52.99 17.99,109 70,132 -9,57 -6.01,122 6.99,175.99 2,21.01 26,37.01 17,60 -25,-7.99 -38.99,-35 -72,-26.99 -28,6 -53,34 -66.99,55 z m 520,-139 c 22.46,-21.68 70.18,-47 111,-45 5,10 1.99,23 -3.01,33 -36.99,-7.01 -75,1 -107.99,12 z m 106,-77 c -4.01,-21 1.99,-36 15,-50 9,-8 17.99,1 25.99,5 -5.99,20 -25,35 -40.99,45"
         id="path32"
         style="fill:#1d4b9a;fill-opacity:1;fill-rule:nonzero;stroke:none" /><path
         d="m 693.344,2684.5 c 23,-24.01 36.004,-55 27,-89.01 -14,-33.99 -49,-47.99 -84,-47.99 -74,9 -119,85 -199,77 -60,0.99 -130,-12 -166,-72 -8,-19 -16,-48 -1.996,-67.01 96.996,-95 225,-145 311.996,-263.99 l 52,-72 80,0 45,-72 c 191.004,139 373.996,310 581.006,415 231,157 577.99,185 840,74 l 117.99,-60 c 142.01,-6.01 250,-103 400,-84 17.01,-3 28.01,-21 34,-36 18.01,-63 -71.99,-118 -1.99,-168 15,-47 11.99,-102 1.99,-151 45,-43 45,-108 26,-163 101,-75 140,-184.01 188.01,-286 41.99,-79 134,-67 180,-139 5,-41 67.99,-42 69,-89.01 1,-27.99 1,-62 -9,-87.99 19,-22.01 24,-55 14,-82.01 -31.01,-17.99 6.99,-36.99 5,-57.99 1.99,-29 -9,-57.01 -36.01,-69 -32,-30 -77,30.99 -96,-24.01 -31.99,-15 -70,-5 -99,9.01 -32,28 -57,66.99 -42.99,113 -36,48.99 -96,73.99 -139.01,123 -81.99,37 -154,115 -201.99,192 -93.01,-39 -205,-24 -290,28 -47.01,23 -78.01,85.99 -139,75 l -51,-3 c -8.01,-66.01 -3.01,-112 -4,-182 25.99,4 65,5 84,-19.01 45,-3.99 90,-7.99 123.99,-35.99 -13.99,-31.01 -47,-49.01 -76,-58 5,-10 20,-11.01 31,-7 13,3 24,13 38,13.99 -0.99,-26.99 -11.99,-60.99 -40.99,-75.99 -8.01,-2.01 -14.01,-8.01 -21,-12.01 13.99,-6.99 32.99,-2.99 50,0 1.99,-28.99 -18.01,-50 -38.01,-70 -15,-11 -30.99,-17.99 -48,-21.99 11.01,-14.01 30,-3.01 43,0 l 14.01,10 c 5.99,-19.01 -8.01,-40 -19.01,-58.01 -49,-10 -38,-72.99 -89,-81 -16,-0.99 -32.99,-9 -50,-2.99 l -6,-7.008 0,-408.027 140.51,0 0,-532.715 -831.51,0 0,532.715 145.01,0 0,267.91 -365.01,-634.883 -356.996,630.996 -5,5 0,-269.023 141.004,0 0,-532.715 -826.754,0 0,532.715 135.785,0 0,1008.535 -135.785,0 0,549.5 172.875,0 -3.125,5 c -51,105.99 -185,153 -226.0002,264 -31,71 -26.9961,176 24.0002,236.99 87,107.01 215,148.01 353,127.01 84,-14 164,-40 230,-98 z m -273,79 c -34,-23.01 -50,-57 -75,-86 -29,7 -10,-27.01 -19,-39 8.004,-2 13.004,4 19,5 21,9 50,1 68,16.99 5,41.01 59,58.01 64,96.01 -19,2 -37.996,5 -57,7 z m 96,-17 -6.996,-7 c -4.004,-17 -15,-42 0,-55 16.996,20.99 40,28 63.996,30.99 10,-2.99 18,-11.99 15,-23.99 -6,-9 -18.996,-36.01 -33.996,-21.01 -10,-10 -29.004,-20 -29.004,-35.99 37,-15 67,-46 108,-51 9,6.99 14,16 12,26.99 -25.996,24.01 9.004,51.01 8,74.01 -43,28 -87,52 -137,62 z m -206.996,-4 c -55,-3 -104.004,-30 -141.004,-68 39,-8 69,-38 101.004,-64.01 12.996,24.01 2.996,58.01 18.996,81.01 l 9,-9 12.004,60 z m -184.004,-161 -24,-19 c -16.0002,-38 -14.0002,-93 7,-125 33,21 32,77 74,81 4,-14 -12,-25 -5,-36 26,17.99 47.004,47 48,80 -35,6 -75,0 -105,-8 -3,10.99 5,17 5,27 z m 1264.006,-214 c -28.01,-83 -28.01,-181 -33.01,-271 -1.99,-8 -5,-22 -16.99,-19 -52.01,82 -76.01,176 -82.01,277.99 -31,-26.99 -45,-65.99 -72,-90.99 -14,19 -10,45.99 -20.99,67 -14.01,6 -19.01,-9 -29.01,-14 -77,-154 -49,-369 -14,-533 l -5,-14.01 c -9,-8.99 -13,6.01 -19,9.01 -26,73 -60,142 -110.996,204 -6.996,3 -18,10 -24,0 -12,-15 -9,-41 -26,-50 -21.996,49 -46,103 -96,134 -20.996,7 -42,-1 -58,-12.01 88,-75.99 142.004,-170.99 178,-270.99 5,30 9.004,75 31,105.99 9.996,3.01 20.996,-5.99 28.996,-15 68,-128.99 86,-277.99 93,-431.99 31.01,76 47,158 46.01,246.99 0.99,4.01 3.99,10 10,8.01 33.99,-70 55,-153.01 92.99,-214 -26,120.99 -57.99,240.99 -112.99,350 -3.01,8 -6.01,28 10,24 35,-44 68.99,-83.01 112.99,-117 -1,13 -1,32 9,43 10,2 16,-3 22,-10 43,-99.01 105,-196 199,-271 l 15,55 c 7.01,34 32.01,65 33.01,96 -22.01,-22 -37.01,-52 -48.01,-81 -82.99,146.99 -159,296.99 -185,468 l 5,13.99 c 27.01,-10.99 49,-35 77.01,-45 11.99,43.01 10,98.01 47.99,127.01 1,-74 4,-154 24,-223 17,-48 32,-98 65,-137 l 7,5 c -6,37 -7.99,75 -7,115 3.01,6 2,17 12,19 20,-21.01 29,-48 43,-70 12,26 27,51 48.01,72 6.99,1.99 11,-3.01 16.99,-4 13.01,-74.01 24.01,-149.01 62,-212 61.01,-64 89,-141 96.01,-228 -11.01,-19.01 -14,-53 -38.01,-55 -5,52 -18,100.99 -45.99,144 -19.01,-9 -12.01,-41 -36,-48.01 -23.01,32.01 -32.01,70 -41.01,108.01 -5,39 -7,81 -16,115 -32.99,-79 -46.99,-167 -44,-261 l 12.01,-15 c 45.99,6 85.99,22.99 122.99,51 l 7.01,-5 c -10,-60 -34.01,-114 -65,-166 39,-12.01 81.99,-9.01 117.99,7.99 23,-18.99 7.01,-57.99 2.01,-80 45.99,3 90.99,11.01 130,32.01 24,-17.01 -18.01,-39.01 -19.01,-46 l 57,21.99 c 21.01,2 49,7 67.01,-5 2.99,-16.99 -17.01,-20.99 -26,-30.99 -23.01,-24 -30,-60 -19,-92.01 15.99,-30 46.99,-56 80.99,-56.99 62,-18.01 26,65.99 82,71.99 -2,27.01 9,51.01 31.01,67.01 -38.01,45 46,80 -5,115 -8.01,17 7.99,35 -4,50.99 -63.01,8.01 -123.01,-20.99 -176,-50.99 -22.01,10 -8.01,45.99 -12.01,65 -41.99,6 -71,-36 -107.99,-53 -11.01,-8 -35,-27 -43.01,-2 37,67.99 34.01,161 3.01,230 -119,144 -178.01,355 -82.01,527.99 4,4.01 9,11.01 14,5 2,-85 -0.99,-185 58.01,-250 6.99,13.01 8.99,29.01 21.99,36.01 l 7,-4 c 9,-78 40,-148 101.01,-204 l 6.99,0 c 27,43 35,94 48.01,144 30,-22.01 53.99,-59 73.99,-92.01 7.01,16.01 6.01,35 19,48.01 27.01,-17 42.01,-47 56,-74 85,-34.01 172.01,-106 220,-190 55,-30 137.01,-31 195,-7 28,16 45,45 48,75 -80.99,29 -176.99,26 -259,2 -37.99,62 -77.99,130 -141.99,182 -14.01,42 40,68.99 40.99,111 -8,16 -20.99,-1 -34,5 -31.99,-6 -47.99,-38 -65,-63 -16.99,-17 -31.99,10.99 -40,19 -16,-10 -17.99,-30 -26.99,-45 -44.01,46 -64.01,114 -57.01,181.99 8,34.01 33,66.01 64,87.01 15,1 31,19 44,2 -15.99,-25 -28,-60 -11.99,-89.01 7.99,-17.99 22.99,-35.99 42.99,-40.99 60,-9.01 115,22 165,50.99 54,22.01 93.01,-22.99 137.01,-38.99 6,-3 11.99,-12 2.99,-16.01 -11,-3.99 -24,2.01 -34,7.01 -31,4 -62,22 -93.99,12 l 5,-7 c 31.99,-10 70,-7.01 96,-32.01 1.99,-6.99 -1,-11.99 -7.01,-15.99 -33.99,5 -67.99,17 -101,19 l 0,-7 c 35,-11.01 76,-16.01 111,-32 -1,-6 -3.99,-12 -10,-16 -33.99,6 -68.99,16.99 -102.99,14 l 0,-10 c 34,-9 75.99,0 105,-19 7.99,-6 4,-14 -2.01,-19 l -83.99,5 c -2.01,-4.01 -10,-6 -7.01,-12 34,-10 75,-1 110,-7.01 l 7.01,-5 -16.01,-18.99 c 7.01,-26.01 11.01,-53 33,-72 4.01,24 10,48 27,67 14,0 12.01,-19 19,-29 l 12.01,29 c 11.99,-3 6,-21.01 13.99,-29 l 15,29 c 15,-4 9,-21.01 14,-31.01 l 17.01,26.01 c 11.99,-4 6,-24 13.99,-34 l 22.01,39 c 5,-21.01 6.99,-45 16.99,-63 11,16.99 17.01,36 21,56 -52,22 -121,25.99 -175,24 l -7,4 c -1.99,10 3.01,16 9.01,22 36.99,10 89,5 105.99,40.99 -13,-5.99 -26.99,-13.99 -40.99,-10 15,43.01 -42.01,39.01 -41,75 32.99,28.01 87.99,3.01 125,21.01 35,10 5,46 6.99,65 18.01,-4 29.01,-23 36,-38 23.01,-57 -15,-100 -42.99,-142 1.99,-15 20,-12 31,-12 37.99,34 60.99,79 65,130 10.99,50 -67.01,72 -36,122 11,56 6.99,123 -43.01,156 16,42 40,81 41,130 -21.99,39 -76,15 -112.99,12 -52.01,58 -145,-20 -187.01,57 -96,11 -186,5 -261.99,-31.01 32.99,10 65.99,20 102.99,19.01 3,-4.01 10,-6 8,-12 -60,-20 -120.99,-35 -173,-72.01 -11,-12.99 -28.99,-31.99 -18.99,-45 32.99,28.01 71,46.01 110,62.01 25,10 55,22 81.99,14 l -5,-9 c -53,-36 -114,-58 -155.99,-115 -4.01,-6 -13.01,-16 -3.01,-22.01 41,4.01 65,46.01 99,65 20,8.01 42,24.01 62,17.01 -13.99,-45 -61,-76 -57,-128 3.01,-14.01 18.01,-8 26,-16 63.01,15 143.01,24 202.01,-8.01 -2.01,17.01 -17.01,29.01 -29,41.01 -29.01,28.99 -75,18 -103.01,48 -5,9 -12.99,22 2.01,29 45,0 83.99,-16 121.99,-31 32,-30 75,-34 108.01,-58 1.99,-22 -25,-22 -36.01,-31 15,-10 34,-13.01 44,-29 -26,-22 -51.99,-8 -81.99,-12 -5,-12.01 21.99,-17.01 21.99,-31 -29,-25 -62.99,-39 -99,-48 -17.99,16.99 21.01,28 3,46 -38,-9.01 -60,25 -94,15.99 7.01,-25 42.01,-35 48.01,-60 -29.01,-6.99 -65,9.01 -89.01,15 l 51,-50.99 c -4,-22 -31.99,-16 -47.99,-24.01 -26.01,4.01 -50,10 -68.01,32.01 -30,22.99 -19,62.99 -20.99,97.99 -37.01,30 -91,27.01 -125,67.01 -33.01,35 -26,91 -17.01,130 -22.99,-31 -25,-77.01 -17,-115 0,-26 -16.99,-48 -38,-63 -10,-5 -22,0 -31,5 -6,33 -14,68 -39,90.99 -60,-82.99 -73.99,-196.99 -52,-301.99 -8,-13.01 -15,3 -21.99,5 -66.01,101 -48.01,261 16.99,356.99 -35,-20.99 -61.99,-62.99 -76.99,-100.99 -10,-19.01 -11.01,-42 -24,-60 -7.01,-2 -10,4 -14.01,8 -46.99,-43 -55.99,-102.01 -65,-161 -5.99,-13 3.01,-37 -15,-39 -35,127.99 -8,272 89.01,365 25,45 95.99,42.99 86.99,102.99 13.01,42.01 57.01,70 98.01,75 -18.01,31.01 20.99,54.01 30.99,74.01 -156.99,-34.01 -288,-190 -350,-331 -10,-11 3.01,-33.01 -15,-38.01 -30,115 7,227.01 63.01,319.01 l -67.01,-17 -11.99,7 c 5.99,25 29,42 40,65 -90,-26 -205.01,-89.01 -216,-197 z m 536,117.99 c 35.99,1.01 76.99,-22.99 110,-47.99 61.99,22.99 134,42 201.99,52.99 -89,48.01 -226,54.01 -311.99,-5 z M 240.344,2463.5 c -30,-9 -58,-37 -75,-65 -12,-19 -14,-44 8,-57 30,18.99 55,51 93,50 18.004,2 24,21 24,36 -13,16 -28,37 -50,36 z m 1710.996,-24 c -21.99,5.99 -48,10.99 -66.99,-5 -19,-16 -14,-42 -17.01,-64.01 1,-48.99 42.01,-93.99 79,-112.99 l 1.51,10.49 c 7.99,42.01 -25.51,80.51 -3.5,116.51 13.99,13 27.99,-4.01 41,-10 12.99,-10 15.99,12 24,17 -16.01,20 -36.01,38.99 -58.01,48 z M 377.344,2370.49 c -72.996,41.01 -54,-75 -116,-71.99 -3,-17 4,-29 12,-41 10,-2.01 16.004,2.99 24,5 35,22 79,57.99 92.004,97.99 l -12.004,10 z m -44,-125 c -11,-15 -1,-35 12,-42.99 58,-19 119.004,12.99 183,9 l 0,5 c -38.996,63 -138.996,63 -195,28.99 z M 2700.35,1813.5 c -1,-40 -22.01,-76 -48.01,-101 -14,10 -12.99,26 -19,37.99 l -20,-13.99 c -11,5 -6,18.99 -13.99,23.99 -11.01,-16.99 -26.01,-30.99 -24,-52.99 15,-32.01 30.99,22.99 52.99,19 15,-24 12.01,-65 2.01,-91.01 15.99,-5 10.99,-17.99 11.99,-32.99 37.01,-18 80,-21 111,-53 -7,-22 -41,-15 -56,-27 39,-6 92.01,-2.01 106,-40 -2,-16 -17,-15 -26,-8 -21,5 -47.99,5 -57.99,-16 -5,-16 -2.01,-35 11.99,-46 25,-29.01 68.01,-22.01 103.01,-19.01 18.99,-21.99 5,-53 11.99,-81.99 24.01,-62 122,-79 108.01,-158 12.99,-12 31,-18.01 47.99,-12 -21,37 -42.99,72.99 -41,120 3.01,23 25,33.99 41,50 6,16.99 -9,15 -16.99,23.99 0.99,9.01 4,17.01 10,24.01 7.99,17 5.99,40.99 -7.01,55 -5,14 -2.99,30.99 7.01,40.99 19,21.01 51.99,16.01 76.99,17.01 3.01,7.99 -5,9 -10,12 -46.99,7 -91,-16 -120,-55 -41,18 -30,64 -29,103 -10,29 -48.99,30 -76,37.99 -11.99,6.01 -35,5 -31.99,24.01 24,24 62.99,17 89,39 l -5,6.99 c -41.01,4.01 -90,12.01 -129,2.01 -4.01,5 -11,9 -12.01,15 0,21 25,25 36.01,36 l -15,19 c 25,15 55,2 81.99,2 -16.99,33 -58,25.99 -85.99,27 -23.01,-2 -38.01,-32 -60,-19 9,26 26.99,49 20.99,81 -0.99,14 -15.99,16.99 -25.99,10 z m -307.01,-63.01 c -18.99,-3.99 -41,30 -56,8.01 -1,-34 37.01,-33.01 56,-48.01 l 26.01,36.01 21.99,-20 c 0,16 -15,23.99 -21.99,36 l -26.01,-12.01 z m 28,-27.99 c -15.99,-20 -18,-45 -15.99,-72.01 66.99,12.01 145,7.01 207.99,-11.99 5,19 13,45 3,61.99 -15.99,-12.99 -20.99,-35 -39,-42.99 -6.99,7.99 -5,20 -11.99,29 -5,-8 -11,-16.01 -16,-24 -12.01,1 -8.01,17 -12.01,26 l -24,-29 c -7,10.99 -7,24 -15,34 l -17,-31 c -14,7.99 -9,30 -24,37.99 -6,-11.99 -5,-28.99 -19,-35.99 -5,19 -7,40 -17,58 z m 615,-274 c -8,-4 -20.99,-7 -19,-19 14,-28 7.01,-55 2.01,-82 16.99,4 31.99,10.99 46,22 10.99,17 25.99,32 24,55 -6.01,22 -34,27 -53.01,24 z m 86,-12 c -7.99,-36.01 38.01,-35 55,-58.01 l -4,27 c -12.99,16.01 -31,36.01 -51,31.01 z m -926,-53.01 c -9,-3 -3,-13 -5,-18.99 8.01,-13 11,-48 36,-34.01 21,7.01 49,17.01 55,34.01 -26.99,10.99 -56.99,13.99 -86,18.99 z m 941,-1.99 c -16.99,-2 -16.99,-23.01 -15,-34 -4,-21 -27.99,-38 -45,-41 2.01,-4 6,-4 9,-7 21,-12 54.01,-9.01 72,7 16.01,13 21.01,33 15,51 -6,14 -20,25 -36,24 z m -39,-5 -21,-31.01 c 1,-5 6,-8.99 12.01,-7 6,9.01 16.99,26.01 8.99,38.01 z m -897,-84 c -9,-9.01 -15,-20 -11.99,-34.01 3.99,-6.99 11.99,-19 23.99,-13.99 30,5 70,13.99 76.01,50 -27.01,-10 -60,-11.01 -88.01,-2 z m 967,-24.01 c -27.99,27 -23.99,-16.99 -41,-25.99 -10,-8.01 -26,-13.01 -31,-22.01 16,-10 37,-16 57,-10 17.01,5 32.01,22.01 29,41.01 l -14,16.99 z m -927,-66.99 c -25,-6.01 -48,23.99 -66.99,5 -1.01,-15 -10,-31.01 0,-44 16.99,1.99 36.99,-4 51,5 14,7.99 32.99,21 37.99,39 -7,-3 -12.99,-6.01 -22,-5 z m -439,7 c 44,-22 86,-56 135,-58.01 l -44,44 c -32.99,-4 -61,8.01 -91,14.01 z m 1323.01,-55 c -10,-9.01 -33.01,-5 -32.01,-19.01 16.01,-24 44,-24 68,-20 13.01,7.01 29.01,21 26,39.01 -6.99,33 -47.99,30 -61.99,0 z m -156,-34.01 c 13.99,-30 47.99,-40.99 81,-40.99 10,9 29,9 21.99,29 -21,57.99 -66.99,-10 -102.99,11.99 z m -816.01,7.01 c -12,-6.01 -18.99,-18 -20,-31.01 18,-15 47.01,-11 68,-11.99 17,5 36,19 38.01,34 -29,-17.01 -60,-4 -86.01,9 z m -57.99,-67.01 c -3.01,-9 -11,-26.99 1.99,-30.99 31,-3.01 70,0.99 87.01,29 -36.01,-14 -63.01,47.99 -89,1.99 z M 1548.34,2487.5 c -130,-137.01 -93.99,-383 -22,-535 11,19 10,46 10,67 -16.3,91.31 -25.69,173.68 -3,269 10,36.99 36.01,66.99 36.01,108 -35,16 -12.01,63.99 -19,91 l -2.01,0 z m 854,-98 c -50,15 -96.99,-4.01 -131.99,-39.01 0,-5 0.99,-8.99 5,-11.99 45,21 112.99,23 157.99,8 3,6 -3.99,8.99 -3.99,13.99 l -27.01,29.01 z m 63.01,0 -5,-15 c 15,-21 29,-48 52.99,-60 22.01,40 70,7 100,10 -30,52 -92.99,57 -147.99,65 z m 230,-5 c -26,-4.01 -41,-38 -70,-29.01 1.99,-30.99 32.99,-50.99 39,-80.99 22.99,23 28.99,60.99 36,95.99 l -5,14.01 z m -377.01,-55 c -12.99,-7 -35,-8 -37.99,-24.01 44,-11.99 115.99,8.01 150.99,-35.99 14.01,-4.01 33.01,-15 46,0 -20,70 -100,54 -159,60 z m 199,-29.01 c -7.99,-23.99 22.01,-38.99 34,-55 20,-2.99 41,-18.99 60,-10 0,20 -24,8.01 -29,22.01 l 3.01,2 c 35,7 55,-29.01 80.99,-41 12,25 -15,44 -25.99,65 -37.01,16.99 -83.01,29 -123.01,16.99 z m -1370,-16.99 c -14,-10 -12,-36 -17,-55 -15,-139 -5,-288.01 84.01,-391 61.99,19 86.99,-66 141.99,-72.01 -50.7,116.31 -106.71,229.99 -141.99,355 -9.01,27.01 -8.01,59.01 -21.01,84.01 -42,-1 -30,45 -38.99,70 l -7.01,9 z m 1414,-62 c 10,-25 25,-47 45,-67 13.01,-21 1,-57 29.01,-68 1.83,20.18 18.16,16.8 35.99,27 8.01,6.99 -5.5,9.49 -8.49,15.5 5,6 0.49,18.5 10.49,22.5 14,-5 3,-31.01 10,-41.01 l 5,5 c 26.01,26.01 3,55 -5,82.01 -21,11 -31,-17.01 -52.99,-10 -9.01,29 -46,22.99 -69.01,34 z m -671.99,-63 c -45,-129 -14,-280 37.99,-396 l 7.01,0 c 1.99,52.99 17.99,109 70,132 -9,57 -6.01,122 6.99,175.99 2,21.01 26,37.01 17,60 -25,-7.99 -38.99,-35 -72,-26.99 -28,6 -53,34 -66.99,55 z m 520,-139 c 22.46,-21.68 70.18,-47 111,-45 5,10 1.99,23 -3.01,33 -36.99,-7.01 -75,1 -107.99,12 z m 106,-77 c -4.01,-21 1.99,-36 15,-50 9,-8 17.99,1 25.99,5 -5.99,20 -25,35 -40.99,45 z"
         id="path34"
         style="fill:none;stroke:#1d4b9a;stroke-width:5;stroke-linecap:butt;stroke-linejoin:miter;stroke-miterlimit:4;stroke-opacity:1;stroke-dasharray:none" /><path
         d="m 2340.35,2156.5 c -5,-10 -4.51,-26.5 7.5,-30.5 l 16.5,18.5 c 1,-1 0,-25 -17.01,-19.01 -6.99,-2.99 -11.99,5 -14,9.01 l 2.01,22 5,0"
         id="path36"
         style="fill:#ffffff;fill-opacity:1;fill-rule:nonzero;stroke:none" /><path
         d="m 2314.84,2136 c -4,1 -5.49,2.5 -8.5,6.5 l 7,7 c 5,-3 0.5,-9.5 1.5,-13.5"
         id="path38"
         style="fill:#ffffff;fill-opacity:1;fill-rule:nonzero;stroke:none" /><path
         d="m 2647.34,2132.5 5,12 0,-12 -5,0"
         id="path40"
         style="fill:#ffffff;fill-opacity:1;fill-rule:nonzero;stroke:none" /><path
         d="m 2642.34,2130.49 c -6.99,-0.99 -4,7.01 -5,12.01 l 5,-12.01"
         id="path42"
         style="fill:#ffffff;fill-opacity:1;fill-rule:nonzero;stroke:none" /><path
         d="m 2393.84,2126 -3.49,-3.5 c -6,2.99 0.99,10 2.99,15 4,0 -0.49,-8.5 0.5,-11.5"
         id="path44"
         style="fill:#ffffff;fill-opacity:1;fill-rule:nonzero;stroke:none" /><path
         d="m 677.344,2087 519.996,-919.5 5,-5 c 64,112.99 123,227.99 185,341 l 19,-48.01 c -63,-130.99 -140,-256 -211,-383.99 l -546.996,962.5 -395,0 0,-322.92 132.047,0 0,-1218.6 -133.047,0 0.355,-322.851 616.52,0 0,322.851 -146.949,0 0,750.02 468.07,-790 351,605 124.5,220.99 0,-786.01 -145,0 0,-322.851 612.5,0 0,322.851 -138.99,0 0,596.02 46,-50 0,-504.477 137.99,0 0,-412.089 -701.75,0 0,412.089 136.75,0 0,552.227 -423,-734.746 -420.992,717.986 -0.129,-535.467 144.125,0 0,-412.089 -708.25,0 0,412.089 134.066,0 0,1132.977 -134.066,0 0,420 472.25,0"
         id="path46"
         style="fill:#ffffff;fill-opacity:1;fill-rule:nonzero;stroke:none" /><path
         d="m 2040.35,1590.49 c -11,3.01 -17.01,-5.99 -24.01,-11.99 -28,-23.01 -26.99,-63.01 -19,-94 11,-15 19,-47 43.01,-41 l 0,146.99"
         id="path48"
         style="fill:#ffffff;fill-opacity:1;fill-rule:nonzero;stroke:none" /><path
         d="m 2446.59,160.625 11.97,0 c 10.08,0.215 21.2,-0.418 21.2,-12.383 0,-11.972 -11.12,-12.597 -21.2,-12.597 l -11.97,0 0,24.98 z m -16.39,-75.3789 16.39,0 0,36.5309 11.97,0 22.26,-36.5309 17.21,0 -23.31,37.7929 c 12.19,1.473 21.43,9.031 21.43,24.566 0,17.231 -10.08,26.887 -31.51,26.887 l -34.44,0 0,-89.2459 z m -48.09,44.0899 c 0,-43.0469 35.07,-78.1133 78.13,-78.1133 43.05,0 78.12,35.0664 78.12,78.1133 0,43.059 -35.07,78.125 -78.12,78.125 -43.06,0 -78.13,-35.066 -78.13,-78.125 z m 13.86,0 c 0,35.5 28.77,64.266 64.27,64.266 35.49,0 64.26,-28.766 64.26,-64.266 0,-35.4883 -28.77,-64.2579 -64.26,-64.2579 -35.5,0 -64.27,28.7696 -64.27,64.2579"
         id="path50"
         style="fill:#000000;fill-opacity:1;fill-rule:nonzero;stroke:none" /></g></g></svg>