<?xml version="1.0" encoding="UTF-8"?>
<!DOCTYPE svg PUBLIC "-//W3C//DTD SVG 1.1//EN" "http://www.w3.org/Graphics/SVG/1.1/DTD/svg11.dtd">
<svg version="1.1" id="Layer_1" xmlns="http://www.w3.org/2000/svg" width="360px" height="278.378px" viewBox="0 0 360 278.378">
<polygon fill="#C3CACE" points="130.665,261.908 88.997,275.54 95.135,270.014 "/>
<polygon fill="#C3CACE" points="178.894,269.862 235.263,248.949 183.471,264.141 "/>
<polygon fill="#C3CACE" points="192.913,245.328 211.919,239.749 193.403,242.528 "/>
<polygon fill="#C3CACE" points="303.631,221.468 360,200.557 308.212,215.746 "/>
<polygon fill="#C3CACE" points="272.395,207.258 307.797,196.417 272.887,204.456 "/>
<polygon fill="#C3CACE" points="324.191,71.044 355.071,63.702 324.681,68.25 "/>
<polygon fill="#0E0F17" points="186.292,256.621 218.492,245.427 189.606,252.458 "/>
<path fill="#0E0F17" d="M286.894,25.904c-2.509-2.154-5.594-4.138-9.422-5.845c-0.138,1.637-0.428,4.342-0.903,7.43l-5.3,0.81c-0.953-3.938-2.452-7.389-4.476-9.408C256.023,8.118,230.209,2.185,227.373,3.023c3.291,6.969,8.803,31.067,7.963,30.333c-1.169-3.026-9.918-20.266-16.191-26.149c-11.222-10.535-38.883-6.444-40.25-6.338c8.601,7.662,15.515,15.271,19.451,23.604c-5.52-5.363-22.147-18.64-36.006-20.016c-8.902-0.88-31.384,1.835-46.501,8.706c28.952,3.619,53.933,21.532,69.061,37.143c-0.2,0.481-0.424,0.983-0.665,1.51l-1.921,5.389c-8.238-8.619-18.285-13.521-34.265-11.959c-3.169,0.312-6.507,0.94-9.93,1.874l0.331-0.288c-12.771,2.928-43.363,16.494-61.457,45.495l9.518-2.432c-3.04,5.784-5.605,12.133-7.516,19.093c-6.765,24.659-0.269,43.315,12.816,53.189c-0.688,1.261-1.317,2.535-1.802,3.729c-0.854-0.367-2.156-0.973-3.521-1.771c-2.339-1.362-19.861-7.736-30.376-33.438C35.299,79.829,80.959,27.337,84.955,24.487c-4.251,1.955-60.69,28.724-64.051,71.535c-0.633-4.729-0.561-12.881-0.561-12.881S1.139,103.002,7.726,130.98c0.791,3.578,1.946,7.205,2.891,10.571c-2.312-3.63-6.453-9.475-8.042-12.721c-4.021,9.979-2.99,22.004,0.735,29.387c2.416,5.274,7.045,8.937,10.99,13.509c-4.292-1.245-9.464-3.313-9.464-3.313s1.606,20.104,23.271,25.716l-10.657,0.686c8.591,10.652,24.013,13.836,26.847,13.688c1.02-0.196,3.755,0.456,4.6,0.654c0,0-5.106,3.015-4.884,3.276c2.188,1.854,11.81,4.603,17.992,3.918c6.188-0.69,7.16-1.864,8.123-1.731c0,0-3.311,4.671-3.702,4.627c5.659,1.222,14.023,1.206,18.03-0.149c4.005-1.352,5.002-3.389,9.134-3.322c-1.078,1.965-5.829,6.618-5.829,6.618c4.527,0.459,8.832,0.207,13.297-0.655c3.906-0.758,9.905-3.478,14.827-4.587c-4.488,7.606-18.351,16.699-27.803,21.586c-0.791-0.719-1.53-1.427-2.14-2.079c0,0-3.368-3.775-11.869-7.176c0,0-7.165,1.373-10.461,6.365l-2.002-0.016c0,0-5.841,2.206-9.383,6.098c-0.736,0.811-0.548,3.285-0.548,3.285s-5.14,2.878-5.882,3.834c0,0-1.984,4.091,0.884,10.892c0,0-0.011,9.193,9.656,10.677c0,0-0.737-3.448,0.854-5.361c0,0,2.724,2.906,6.654,2.476c0,0-0.203-4.748,0.965-6.45c0,0,1.924,0.271,2.773-0.045c0,0,2.267,2.805,5.348,3.336c0,0,0.339-3.819,1.403-4.46c0,0,2.143-1.143,5.84,1.597c3.7,2.736,7.839,5.465,7.839,5.465s0.445,4.399-4.55,11.204c0,0,12.201,0.264,17.302-9.615c0,0,4.812-4.347,5.237-8.596c0,0,0.126-1.352,0.219-2.907c7.911-0.128,12.945-1.765,14.095-1.881c-0.092-0.362-3.792-1.677-3.951-2.624c1.946-1.261,27.571-2.247,36.98-8.114c0,0-2.843-1.03-4.481-2.199l0.14-0.893c2.068-0.723,4.025-1.274,5.843-2.15c0.072,0.004,0.127,0.006,0.127,0.006c0.992,2.268,8.104,4.865,8.104,4.865c6.172,5.305,6.545,15.903,6.545,15.903c-1.08,4.844-8.778,12.147-8.778,12.147c15.634,7.714,27.268-10.492,27.268-10.492c4.412-1.063,7.207-10.69,7.695-12.505c0.354-1.323,1.986-11.672,2.85-17.193c3.597-1.06,6.996-2.112,8.672-2.765c0.69,0.332,1.534,0.846,4.888,2.338c6.072,1.224,12.999,0.633,17.38,0.782l-6.764-5.383c0,0,9.144,3.785,13.241,5.133c6.08,0.538,12.229,0.174,16.888-0.191c0,0-4.607-3.336-6.086-4.917l0.169-0.095c3.36,1.83,7.087,2.885,10.519,4.766c4.01,0.104,13.737,0.385,19.345-0.918c0,0-11.533-4.817-12.936-5.939c3.896,0.619,17.565,5.056,18.318,4.966c7.625-0.782,13.303-5.346,14.771-5.307c0,0-13.434-3.215-16.84-5.309c5.873,1.035,16.337,2.391,22.203,3.783c1.863,0.102,13.21-5.73,18.986-11.498c-9.679-1.104-89.362-13.511-94.513-14.35c-4.417-0.998-8.675-2.633-12.985-3.419l5.168,0.563c3.818-0.352,11.328-0.108,14.729-1.154c0,0-5-3.203-6.189-3.897c19.473,1.146,34.033-7.692,34.135-8.934c0,0-7.827-1.424-7.895-2.233c16.369-3.263,23.423-11.975,25.165-14.358c0.297-0.107-14.638-4.484-18.222-7.493c5.203,1.854,6.824,1.531,13.319,2.095c10.538,0.918,20.573-11.083,24.119-20.581c-0.544,0.219-1.324-0.477-1.836,0.12c-5.107,0.253-14.037,2.136-21.942,1.34c24.859-2.64,26.756-10.917,28.004-12.49c4.175-9.552,6.203-19.531,7.104-25.735c3.595-3.069,7.451-6.914,8.845-10.266c2.865-6.892,24.74-64.323,24.74-64.323c2.204-4.59,10.995-10.869,10.995-10.869L286.894,25.904z"/>
<path fill="#0E0F17" d="M187.628,143.601c-7.066,8.537-9.802,11.698-15.507,15.707c-0.176-0.442-0.374-0.868-0.591-1.249c-1.458-2.551-4.372-6.293-5.391-7.2c-1.017-0.905-2.271-2.273-2.479-2.637c2.367-0.735,4.367-0.578,6.733-0.631c0,0-0.926-1.265-2.218-2.357c-0.811-0.686-1.72-1.338-2.692-1.955l27.546-7.441C191.364,138.635,189.549,141.278,187.628,143.601"/>
<polygon fill="#0E0F17" points="118.4,260.904 101.267,265.185 100.881,262.191 "/>
<polygon fill="#0E0F17" points="292.605,213.31 335.113,197.966 295.92,209.147 "/>
<polygon fill="#0E0F17" points="334.757,45.494 346.823,41.158 335.248,42.698 "/>
<path fill="#0E0F17" d="M205.63,204.994c4.544-0.289,97.578-21.994,106.289-24.61C291.322,187.856,229.111,205.467,205.63,204.994"/>
<path fill="#A41F35" d="M200.669,133.744c-7.513,12.266-18.795,25.466-20.14,28.496c-1.559,3.507,0.389,7.79,0.389,7.79c5.739-9.794,17.902-24.739,24.132-37.271L200.669,133.744z"/>
<path fill="#A41F35" d="M254.858,208.678c1.114-0.574,4.669-1.662,5.892-0.873c5.563,0.947,24.925,4.863,28.036,6.229C279.056,212.354,264.427,210.784,254.858,208.678"/>
<path fill="#A41F35" d="M245.221,213.644l2.482-1.167c2.833,0.735,16.62,5.332,20.934,6.982C261.386,217.743,252.747,215.735,245.221,213.644"/>
<path fill="#A41F35" d="M275.317,119.836c-3.157,1.578-18.979,6.152-21.028,6.311v-0.737c2.101-1.048,12.826-5.628,15.771-7.463c2.551-1.65,5.128-3.343,7.701-5.079l-10.389,2.884l-2.336-4.028l-5.228,6.083l-9.923,2.678c0.842,2.609,1.794,5.262,0.87,8.332c-0.632,2.153-2.104,4.102-2.263,6.311c0.057,0.735-0.787,0.789-1.104,1.365c0.631,7.304-5.938,13.089-11.354,16.405c-1.211,5.205-5.783,9.778-10.095,12.983l-5.311,2.42c-1.312,3.891-5.623,6.833-9.356,8.092c-0.577,0.161-1.259,0.161-1.733-0.257c-0.105-0.633,0.475-0.686,0.998-0.633c2.627-0.268,5.958-3.966,5.94-4.576c0.211-0.313,0.369-0.682,0.369-1.102c-1.63-0.266-3.366-1.104-4.943-0.789c-3.468,3.101-8.095,3.47-12.617,4.048c-0.896-0.578-2.421,0.686-2.628-0.738c2.628,0.738,8.991-2.731,11.617-4.783c2.367-1.26,2.472-3.835,3.522-5.834c-2.944,0.578-5.414,0-8.571,0c-0.732-0.418,0.316-0.787,0-1.367c6.207-1.155,14.095-5.291,16.066-7.554c1.975-2.266,4.229-5.064,4.229-5.064c-0.947-0.367-1.252,0.475-3.679,0.789c-2.426,0.316-4.838,0.896-7.94,0.316c-0.576-0.475-0.314-1.313,0.262-1.629c5.891-0.999,13.144-5.717,15.018-7.671c1.873-1.951,3.542-5.736,4.647-8.101c-1.688,0.434-2.535,0.852-4.523,1.629c-1.989,0.775-4.178,1.324-5.166,1.544c-0.984,0.219-1.984,0.61-2.508,0.769c-0.371,0.054-0.632-0.158-0.894-0.262c0.314-0.999,1.575-0.686,2.259-1.266c4.894-1.655,9.343-4.835,12.637-8.988l-19.64,5.305c-3.194,7.618-9.244,20.071-23.843,39.76c-4.366,7.878-11.688,12.382-12.21,11.912c-3.68-1.548-7.351-2.387-9.419-2.775l-1.803-0.179c-1.282,6.41-11.218,16.669-11.218,16.669l-5.759-3.72c-3.061,2.276-14.922,9.65-27.905,12.695l-0.318-2.888c-6.11-2.654-11.67-5.664-15.815-7.111c-0.039,0.008-0.073,0.017-0.106,0.023l-0.197,0.233c0.854,1.438,6.918,11.146,7.369,11.447c2.42,1.892,7.822,3.681,10.126,7.009l1.557-4.286l5.452,9.35c0,0,3.345-9.432,3.5-8.956c-0.669,1.212,1.209,3.166,1.756,4.763c1.107-2.294,2.584-4.763,4.568-7.42c0,0,7.022-1.764,9.147-1.48c0,0,3.714,1.735,6.404,5.982c0,0,1.315-7.543,6.132-11.794c0,0,6.725-2.578,12.391-0.736c0,0,4.848,5.096,5.13,6.655c0,0,4.078-7.541,6.773-7.682c0,0,8.2,0.861,11.886,3.268c0,0,0.657,0.923,1.448,2.617c4.46-1.014,7.29-1.611,7.406-1.527c0.158,2.05-1.999,2.89-2.894,4.523c4.522-0.582,15.952-1.792,16.565-0.896c-1.505,1.537-2.566,3.309-4.839,4.412c4.674-0.363,20.586-1.363,21.035-0.785c0.419,0.346-21.413,10.584-35.37,13.716c-0.182,0.828-0.399,1.668-0.656,2.531c18.922-3.447,39.852-17.202,51.796-20.044l-8.771-1.305c-17.508-1.71-46.505-9.833-53.692-13.379c-2.874-1.417,9.821,0.138,8.591-0.343c-7.903-3.092-17.183-5.498-17.183-5.498c14.777-1.373,26.369,3.586,26.369,3.586c5.845,0.582,10.515,0,12.347-0.507c-2.25-1.706-7.38-6.414-6.766-7.064c5.168,1.632,9.539,3.892,14.584,3.551c5.051-0.343,10.138-2.06,13.693-5.155c-2.642-0.898-10.494-2.897-12.327-6.11c5.333,1.2,7.748,2.315,13.324,2.762c5.496-0.09,10.646-2.612,13.215-6.08c-6.087-0.793-17.596-3.025-21.116-7.494c15.603,3.955,21.044,4.124,24.395,3.856c2.243-1.31,4.646-2.62,6.604-4.303c-1.237-1.232-14.144-6.46-16.859-12.819c1.376-0.116,12.347,6.479,26.086,5.19c6.627-0.622,9.088-5.902,13.059-11.538c0,0-18.554,0.483-31.696-3.03c-0.229-0.27-0.426-0.753-0.193-1.027c3.35-0.456,7.003-0.318,10.404-0.721c8.341-1.406,14.681-2.486,22.175-5.987c3.688-1.707,7.1-11.225,8.229-23.672C296.555,108.379,280.929,116.794,275.317,119.836"/>
<path fill="#A41F35" d="M235.979,218.694c0,0,1.438-0.815,2.222-1.132c4.465,1.696,9.392,3.868,13.7,5.986C250.185,222.99,238.893,219.522,235.979,218.694"/>
<path fill="#A41F35" d="M242.711,135.231c-2.733,1.422-5.572,2.735-8.464,3.786c1.787-2.469,2.472-5.359,3.257-8.2c2.685-0.896,5.207-2.998,7.729-4.153C245.601,130.028,243.764,132.449,242.711,135.231"/>
<path fill="#A41F35" d="M227.043,151.529c0.797-1.134,1.265-1.525,1.524-2.418c0.791-1.575,1.788-3.102,1.895-4.891c1.626,0,2.839-0.892,4.311-1.259c2.153-0.631,4.361-1.262,6.518-1.895C239.083,147.481,233.249,150.373,227.043,151.529"/>
<path fill="#A41F35" d="M234.757,226.022c-4.57-2.021-4.444-1.419-8.956-3.704l1.095-0.692C231.127,224.117,230.767,223.504,234.757,226.022"/>
<path fill="#A41F35" d="M224.416,162.518c-2.314,1.472-4.94,2.836-8.096,2.628c0.105-1.684,1.367-2.89,0.895-4.786c1.475-1.419,3.677-2.679,4.939-4.412c3.052,0.209,6.1-0.32,8.938-1.002C230.041,158.153,226.937,160.203,224.416,162.518"/>
<path fill="#A41F35" d="M219.471,227.664c-0.856-0.097-3.103-0.776-3.737-1.25c0.112,0,1.193-0.381,1.193-0.381S219.15,227.433,219.471,227.664"/>
<path fill="#A41F35" d="M110.846,192.515l0.336-0.049l-1.069-3.267c-1.482-0.928-3.239-2.04-5.336-3.999C105.974,188.632,107.885,190.736,110.846,192.515"/>
<path fill="#C3CACE" d="M125.098,199.816c-0.104-1.996,0.316-4.522-0.369-6.416c0.631,0.894,1.157,1.526,1.63,2.526h0.524c1.578-1.738,3.419-3.524,4.263-5.47C130.513,194.081,128.777,198.342,125.098,199.816"/>
<path fill="#A41F35" d="M126.571,186.359c0.158-1.317,2.021-3.453,2.753-4.402c0.318,0.79,0.591,2.548,0.54,3.444L126.571,186.359z"/>
<path fill="#C3CACE" d="M126.254,177.843c-0.8,0.719-2.665,2.802-2.823,5.437c-2.681-2.264-3.02-5.688-3.132-8.39c0.877-1.516,2.59-4.172,4.008-5.33c1.378,0.347,3.236,2.742,3.647,3.423c0.411,0.686,0.789,1.773,0.999,2.679C128.269,175.949,127.057,177.123,126.254,177.843"/>
<path fill="#A41F35" d="M116.977,178.784c-0.529,2.261,2.581,6.863,3.896,8.65c-0.788,2.577,1.447,5.245,0.683,10.31c-0.521-0.58-4.048-3.426-5.649-3.942c-1.602-1.921-3.467-5.854-4.202-9.749c-7.024,1.048-9.936-6.469-10.576-7.853l-2.151,1.238c0,0-0.482-4.789,3.16-10.626c0.316,3.835,2.348,7.618,6.245,9.339c2.025,0.893,3.637,1.149,5.113,1.257c-1.87,2.463-3.82,2.672-5.417,3.052C110.751,181.33,115.783,179.902,116.977,178.784"/>
<path fill="#A41F35" d="M95.499,182.721c0.43,0.047,2.177-2.054,3.841-2.41c0.291,2.039,0.832,4.669,2.423,7.845c-1.094-0.608-2.908-3.296-3.787-5.291l-3.232,2.134c-0.332-1.06-0.764-2.024-0.845-3.287c-0.532-3.29,0.366-10.559,3.788-17.924C97.687,163.787,93.745,171.762,95.499,182.721"/>
<path fill="#A41F35" d="M165.45,164.523l-0.369-1.262c-0.473-1.841-1.576-3.471-2.418-5.051c0.244-0.167,2.208-0.365,3.155-0.262c-1.894-3.678-6.144-7.449-8.046-8.831c-1.904-1.391-3.772-2.59-4.681-3.788c1.079-0.775,2.894-1.526,2.894-1.526c-2.738-0.84-6.079-1.791-8.761-1.684c-0.853-0.149-3.336-0.262-5.124,0.316c-5.935,2.206-11.476,8.422-14.631,14.05c0,0-0.185-1.972-0.237-2.394c0.893-3.577,3.592-8.62,7.184-11.854c-0.62,0.336-5.868,1.197-8.142,2.874c-1.38,1.017-3.51,3.548-5.269,6.105c-1.247,0.237-4.55-6.105-4.55-6.105c-2.255,0.925-5.494,1.874-7.303,4.191c2.995,1.117,8.542,6.544,9.22,7.781c1.16,1.157,0.201,0.399,0.576,1.487c-0.475,0.525-6.175-3.739-9.197-5.319c-2.157-0.475-4.093-0.563-6.25-0.826c0.374,0.684,1.264,1.315,2,1.733c3.364,0.947,5.732,3.946,8.097,6.209c2.527,1.891,4.733,5.204,7.942,5.521c0.47-1.367,0.361-2.91,0.692-3.927c0.246-0.763,0.518-1.856,1.306-1.962c0.423,1.556,1.98,4.77,3.051,5.785c2.931,0.088,3.922-2.672,4.724-3.839c0.803-1.169,3.896-12.414,5.37-13.201c0.262-0.578,10.061-3.514,8.445-3.187c-1.614,0.332,3.84-0.894,3.788-0.104c-0.511,0.703-1.808,1.749-2.99,2.709c9.446,3.017,15.625,13.217,16.631,15.993c1.087,2.997,1.04,5.678,1.264,5.676c-0.106,0.475-3.946-0.892-5.418-0.999c0.21,4.314-0.313,8.571-1.053,12.831c-0.473,0.527-6.204,3.367-8.413,4.839c-3.791,1.89-11.937,5.734-11.886,5.155c4.618-2.681,13.035-8.181,16.671-12.358c0.581-5.049,2.003-10.456,1.112-15.506c0,0,2.676,0.937,4.306,1.097c-1.237-2.415-2.991-7.504-11.598-12.37c1.584,1.625,2.902,3.735,3.232,6.441c0.081,0.671,0.088,1.313,0.061,1.937c0.027,0.341,0.048,0.679,0.048,1.021c0,7.2-5.836,13.036-13.033,13.036c-1.008,0-1.984-0.127-2.92-0.347c1.79,1.366,4.573,2.468,6.428,2.586c-2.369,1.367-7.087,1.088-8.684-0.095c2.577,6.467,3.223,11.19,0.854,17.815c-0.262,0.736-0.947,1.525-0.789,2.156c0,0,16.62-8.886,17.563-9.464c1.474-0.211,4.525,2.153,4.525,2.153c3.89-3.946,7.836-9.831,6.311-16.511l5.361,0.835C166.969,171.036,165.922,167.468,165.45,164.523"/>
<path fill="#FFCF1B" d="M138.928,152.437c-0.403,1.718-0.988,3.607-1.75,5.486c0.722-0.47,1.578-0.749,2.505-0.749c2.556,0,4.628,2.072,4.628,4.629c0,2.558-2.073,4.63-4.628,4.63c-2.438,0-4.412-1.894-4.593-4.282c-1.433,2.401-3.214,4.514-5.348,5.884c1.789,2.321,4.586,3.824,7.741,3.824c5.393,0,9.77-4.375,9.77-9.771C147.252,157.185,143.638,153.137,138.928,152.437"/>
<path fill="#C3CACE" d="M141.649,164.97c0.412-0.018,0.73-0.367,0.712-0.775c-0.016-0.414-0.364-0.732-0.775-0.715c-0.412,0.02-0.73,0.367-0.712,0.778C140.892,164.668,141.238,164.985,141.649,164.97"/>
<path fill="#FFCF1B" d="M117.968,168.349c-0.404,1.657-1.887,2.892-3.667,2.892c-2.091,0-3.789-1.698-3.789-3.786c0-1.447,0.821-2.689,2.015-3.328c-2.039-2.558-3.574-3.797-5.131-4.988c-1.474,1.594-2.387,3.8-2.387,6.238c0,4.848,3.599,8.775,8.033,8.775c3.328,0,6.18-2.203,7.4-5.343C119.636,168.762,118.807,168.617,117.968,168.349"/>
<path fill="#C3CACE" d="M115.853,170.157c0.339-0.016,0.597-0.299,0.583-0.637c-0.014-0.335-0.301-0.598-0.633-0.58c-0.337,0.011-0.6,0.296-0.585,0.633C115.231,169.913,115.519,170.171,115.853,170.157"/>
<path fill="#0E0F17" d="M125.795,172.367l0.459,0.805l-1.487,1.145C124.767,174.316,125.055,172.807,125.795,172.367"/>
<path fill="#A41F35" d="M99.202,216.676c1.584-2.488,4.349-6.535,5.026-9.55l-0.567-0.457c-5.488,2.816-9.586,7.168-23.768,4.979c1.189-0.853,1.642-2.162,2.602-3.409c-0.508-1.178-7.605,1.157-11.8,1.157c-4.189,0-5.741-1.352-10.777-2.27c1.523-2.228,4.414-2.816,5.318-5.504c0.622-0.26-11.311,1.464-17.824,0.461c-2.265-0.397-6.489-1.483-10.978-5.506c3.621-0.522,11.6-4.584,11.656-5.961l-0.396-0.327c-14.194,2.349-22.69-3.145-22.69-3.145l-5.434-6.943l0.45-0.459c6.283,3.339,19.879,5.719,24.559,5.337c0.263-0.053,0.579-0.369,0.631-0.629c-0.264-0.949-9.398-3.808-13.878-6.576c-6.469-3.361-12.884-8.251-17.822-13.979c-1.155-2.103-1.281-5.01-1.702-7.481l0.389-5.064c8.358,10.255,16.349,18.747,27.966,23.53c2.803,1.675,7.415,2.524,7.415,2.524c0.105-0.474,1.05-0.683,0.526-1.261c0.31,0.327-3.841-2.527-5.784-3.683c0,0-10.117-7.385-17.296-15.614c-4.258-5.517-7.465-11.722-10.621-17.819c-0.262-2.052-1.422-14.301,0.158-18.136c0-2.629,1.315-4.996,1.998-7.466c1.042,10.619,10.357,29.914,13.879,34.959c3.837,6.099,9.902,13.273,12.82,15.318c2.92,2.046,5.895,2.295,5.739,1.82c-2.525-1.576-4.36-3.631-6.424-6.432c-2.066-2.8-5.82-8.462-10.506-18.907c-4.684-10.448-7.676-25.915-7.941-32.802c-0.313-6.625,0.923-14.004,4.155-19.086c4.003-6.152,6.993-11.563,12.617-16.138c-3.259,11.405-6.15,23.604-5.307,36.117c0.156,11.303,2.154,22.186,5.94,32.172c5.154,11.251,12.09,21.819,22.343,29.863c4.469,4.362,19.689,14.614,30.806,19.45c1.159,1.997,4.523,5.311,4.523,5.311c-1,0.314-2.103,0.314-3.155,0.473v-0.105c-1.63,0.525-3.703,3.107-5.965,2.846c1.302-1.637,3.021-5.003,4.071-6.735c0.108-0.475-0.208-0.735-0.522-1.054c-3.63,3.364-8.571,2.733-12.986,1.524c2.103-0.945,4.258-2.153,5.414-4.258c0,0-1.035-0.692-3.26-0.262c-4.941,1.105-11.304,1.577-14.877-2.419c4.347-2.784,4.677-4.414,4.677-4.414c-0.621,0.072-2.048,0.313-3.152,0.158c-4.047-0.37-8.883-0.316-11.252-4.315c1.686-1.154,4.26-2.101,4.681-4.521c0,0-6.765,2.229-15.297-2.942c2.884,6.34,6.939,4.677,6.204,7.992c0.89,2.364,2.891,4.152,4.412,6.044c-0.577,0.158-1.205,0.262-1.89,0c-2.473-0.052-4.783-0.685-6.835-1.892c0.602,11.814,13.56,13.946,13.56,13.946c3.001,3.605,6.735,7.603,11.319,7.864c2.493,0.786,5.318,1.113,7.979,0.984c1.243,2.88,4.47,3.008,6.961,3.929c2.602,0.325,5.319,0,7.866-0.328c3.453-0.916,3.56-2.871,5.879-5.624c2.427,7.958,7.572,12.126,7.572,12.126C106.079,216.838,99.202,216.676,99.202,216.676"/>
<path fill="#A41F35" d="M88.44,203.522c-0.059-0.329-0.51-0.723,0-0.982l0.283-0.327c2.149,0.195,4.411,0.98,6.506,0.525C93.304,204.898,90.816,203.916,88.44,203.522"/>
<path fill="#A41F35" d="M89.952,180.612c-12.393-7.98-13.609-8.43-27.344-22.025c-13.737-13.593-16.719-27.072-18.191-34.33c3.47,11.2,8.673,21.767,17.192,30.442c7.94,9.306,27.179,20.67,28.127,20.819L89.952,180.612z"/>
<path fill="#A41F35" d="M74.574,198.48c-1.02-0.921-2.037-1.775-3.11-2.688c1.639-0.459,3.621,0.853,5.318,0.131c1.754,1.112,3.285,2.947,5.432,3.013C80.066,200.838,76.838,199.462,74.574,198.48"/>
<path fill="#A41F35" d="M55.73,187.145c1.868,0.262,4.016,0.262,5.713-0.655c1.528,1.374,3.056,4.063,5.153,4.586C62.804,190.354,58.729,190.158,55.73,187.145"/>
<path fill="#A41F35" d="M237.726,23.475l0.266,0.999c0.743,1.257,1.525,4.333,2.158,8.598l18.371-2.816C253.065,26.942,245.755,24.241,237.726,23.475"/>
<path fill="#A41F35" d="M196.804,39.697c0.007,0.006,0.009,0.016,0.016,0.024l4.939-0.759c-10.235-15.042-20.02-18.91-21.326-19.84c-2.168-1.553-14.052-2.446-20.202-0.681l0.163,0.106c0.911,0.355,20.033,10.8,27.351,19c-0.248-0.288-0.47-0.569-0.729-0.859C191.452,36.891,195.737,38.157,196.804,39.697"/>
<path fill="#A41F35" d="M225.332,23.931c-5.267-6.187-21.046-7.133-27.354-6.923c0.88,1.238,6.741,8.16,12.239,20.654l19.782-3.031C228.265,29.318,226.469,25.262,225.332,23.931"/>
<path fill="#C3CACE" d="M187.539,26.98c-1.654-1.84-9.332-2.855-15.299-1.564c2.455,1.424,4.689,3.377,7.396,5.176C183.504,27.602,189.346,28.987,187.539,26.98"/>
<path fill="#C3CACE" d="M27.354,114.744c1.625,3.648,2.94-2.943,8.236-6.403v-0.068c-0.379-5.658,0.007-11.252,0.843-16.738C30.037,98.441,25.609,110.829,27.354,114.744"/>
<path fill="#C3CACE" d="M31.693,129.96c1.079,2.42,1.944-2.204,5.658-4.333c-0.556-2.877-0.983-5.804-1.279-8.768C32.783,121.376,30.715,127.759,31.693,129.96"/>
<path fill="#C3CACE" d="M19.927,144.737c1.941,2.426,0.875-4.14,4.245-8.121c-1.507-3.288-3.02-6.897-4.3-10.444C17.899,132.892,18.11,142.472,19.927,144.737"/>
<path fill="#C3CACE" d="M27.508,155.49c1.322,1.652,0.463-3.212,3.167-5.667c0.156-0.145,0.287-0.298,0.396-0.463c-0.22-0.328-0.43-0.653-0.633-0.978c-0.75-1.075-1.769-2.804-2.909-4.957C26.206,147.726,26.328,154.017,27.508,155.49"/>
<path fill="#C3CACE" d="M23.023,171.043c2.392,0.92-0.16-2.824,0.913-6.816c-2.445-2.266-4.782-4.726-7.085-7.352C17.067,162.709,20.542,170.087,23.023,171.043"/>
<path fill="#C3CACE" d="M31.578,174.74c1.477,0.571,0.021-1.641,0.527-4.091c-1.469-0.949-2.875-1.973-4.245-3.059C28.493,170.864,30.256,174.23,31.578,174.74"/>
<path fill="#C3CACE" d="M34.761,188.029c1.824-0.199-0.475-1.588-1.527-4.157c-2.265-0.45-4.582-1.004-6.736-1.641C29.104,185.507,32.993,188.224,34.761,188.029"/>
<path fill="#C3CACE" d="M41.835,188.716c1.209-0.128-1.123-1.281-1.023-3.448c0.002-0.103-0.014-0.19-0.027-0.281c-1.213-0.105-2.574-0.271-4.01-0.492C37.907,186.663,40.71,188.843,41.835,188.716"/>
<path fill="#C3CACE" d="M51.437,198.247c2.071-1.158-2.993-1.443-4.484-5.41c-0.098-0.263-0.22-0.48-0.362-0.67c-1.526,1.06-3.982,2.325-6.27,3.237C44.12,197.889,49.703,199.219,51.437,198.247"/>
<path fill="#C3CACE" d="M222.113,30.64c-1.91-3.206-9.738-7.12-19.798-7.443c1.888,2.794,4.127,6.494,6.214,11.028c0.402-0.073,0.821-0.186,1.264-0.364C217.285,30.818,224.169,34.086,222.113,30.64"/>
<path fill="#C3CACE" d="M245.916,32.181c-2.149-0.811-4.076-1.178-6.186-1.668c0.158,0.847,0.306,1.763,0.452,2.741C241.644,32.728,243.286,32.728,245.916,32.181"/>
<path fill="#C3CACE" d="M274.777,130.641c-3.635,0.561,2.612-5.384,4.53-13.031c5.56-2.698,10.9-5.838,13.064-7.065C287.415,120.906,278.544,130.06,274.777,130.641"/>
<path fill="#C3CACE" d="M261.224,133.107c-3.283,0.391,0.834-3.777,1.071-9.005c3.47-1.166,6.528-1.636,9.862-3.124C269.187,127.284,264.168,132.756,261.224,133.107"/>
<path fill="#C3CACE" d="M247.468,162.084c-1.845-1.215,4.632-2.695,7.845-6.102c0.976,0.831,5.34,3.287,6.871,4.127C257.15,162.876,249.38,163.341,247.468,162.084"/>
<path fill="#C3CACE" d="M188.516,38.451c-0.239-0.296-0.499-0.599-0.771-0.904C188.002,37.85,188.281,38.155,188.516,38.451"/>
<path fill="#A41F35" d="M188.516,38.451c0.002,0.002,0.005,0.004,0.005,0.004c0.554,0.775,1.124,1.528,1.695,2.281l0.01-0.007c-0.572-0.75-1.149-1.497-1.705-2.272C188.521,38.458,188.518,38.453,188.516,38.451"/>
<path fill="#C3CACE" d="M196.804,39.697c-1.067-1.54-5.353-2.806-9.789-3.009c0.26,0.29,0.481,0.571,0.729,0.859c0.272,0.305,0.529,0.608,0.771,0.904c0.002,0.002,0.005,0.004,0.005,0.004c0.556,0.777,1.133,1.523,1.705,2.274l6.594-1.008C196.813,39.712,196.811,39.703,196.804,39.697"/>
<path fill="#A41F35" d="M148.801,99.632c-0.73,1.372-2.245,2.064-3.081,2.355c-1.011,0.298-3.644,0.791-5.393-1.482c-2.265-2.593-2.686-6.581-1.225-11.277l0.574-1.855c0,0-5.047-0.201-8.792,6.492c-5.151,9.2-5.411,17.998-4.622,20.828c0.787,2.832,0.009,0.083,0.009,0.083c0.335,3.375,2.794,6.089,5.049,7.025l-0.09-0.045c3.049,1.03,4.628,0.158,6.877-0.923l-0.083,0.037c4.677-1.763,7.669-6.479,9.358-10.127c3.101-5.718,3.338-10.426,3.347-10.625L148.801,99.632z"/>
<path fill="#C3CACE" d="M173.029,125.621l26.518-6.857c0,0,10.637-12.884,14.304-21.129c-0.649,5.497-2.52,14.891-2.792,18.077l16.618-4.29c0,0,18.079-32.806,22.351-52.923l-17.594,2.842c0,0-4.113,13.647-7.24,17.517l-2.122-17.454l-10.272,18.605c0,0-0.319-10.977-1.191-15.082l-23.146,3.644c1.107,1.966,2.828,6.578,2.133,10.75C189.892,83.494,186.134,108.845,173.029,125.621"/>
<path fill="#C3CACE" d="M253.819,58.045c-1.477,6.152-10.244,35.4-21.465,52.124l34.088-8.868l10.883-23.282c0,0-4.833,7.016-13.759,8.241c3.644-8.065,8.486-22.485,10.373-31.673L253.819,58.045z"/>
<path fill="#C3CACE" d="M281.429,76.227c0,0-5.398,12.959-6.512,15.312c-1.112,2.357,0.966,7.289,4.715,6.367c3.742-0.924,32.63-8.406,32.63-8.406l6.276-16.123l-14.012-9.328c0,0,10.258-1.602,11.677-1.708c1.417-0.102,4.744,1.499,5.317,3.053c0,0,4.361-11.834,5.314-13.853c0.954-2.018-0.492-5.363-5.934-4.591c-5.639,0.805-30.143,4.898-30.143,4.898l-6.216,17.184c0,0,11.957,7.186,12.671,7.832c0.712,0.649,0.849,1.678-0.435,2.173c-1.608,0.621-8.17,2.029-9.694,2.565C284.542,82.494,281.544,78.02,281.429,76.227"/>
<path fill="#FFFFFF" d="M234.013,63.262c-4.479,14.21-10.082,22.228-10.082,22.228l-0.786-6.385l-1.341-11.07l-10.845,19.633l-0.221-7.615c-0.004-0.091-0.241-8.001-0.826-12.683l-18.426,2.902c0.942,2.579,1.701,6.069,1.136,9.439l-0.09,0.549c-2.782,16.954-7.75,31.266-14.475,41.842l20.271-5.242c2.165-3.013,15.774-21.205,18.269-28.617l-0.453,6.87c-0.419,3.521-0.948,11.457-2.236,17.643l12.403-3.198c2.578-4.78,16.244-30.53,20.958-48.438L234.013,63.262z"/>
<path fill="#FFFFFF" d="M263.937,88.378l-3.936,0.705l1.699-3.752c3.021-6.7,7.269-18.871,9.512-28.095l-15.741,2.708c-1.9,7.093-9.04,30.408-18.538,46.82l28.069-7.306l6.268-13.419C269.292,87.008,266.879,87.851,263.937,88.378"/>
<path fill="#FFFFFF" d="M324.891,49.804c-0.384-0.549-1.554-1.028-3.688-0.725c-4.85,0.691-23.996,3.872-28.928,4.694l-5.185,14.325c5.181,3.119,10.818,6.564,11.469,7.156c0.949,0.861,1.402,2.066,1.207,3.219c-0.195,1.162-1.018,2.101-2.252,2.58c-0.921,0.354-2.826,0.83-5.63,1.512c-1.647,0.405-3.514,0.857-4.122,1.074c-0.962,0.336-2.491,0.47-4.315-0.805c-0.64-0.447-1.257-1.04-1.813-1.702c-1.686,4.03-4.136,9.834-4.863,11.372c-0.215,0.456-0.079,1.701,0.624,2.615c0.651,0.848,1.306,0.802,1.74,0.696c3.306-0.815,26.987-6.945,31.707-8.163l5.008-13.524l-17.051-11.36l5.402-0.843c1.058-0.166,10.378-1.619,11.835-1.726c1.208-0.089,3.069,0.486,4.649,1.465c1.378-3.703,3.607-9.626,4.296-11.089C325.07,50.392,325.091,50.093,324.891,49.804"/>
<polygon fill="#A41F35" points="196.402,125.37 166.281,133.159 161.413,138.484 192.109,130.294 "/>
<path fill="#A41F35" d="M92.922,152.753c-3.171-3.652-7.852-10.637-9.057-20.356c-1.89-15.293,4.898-30.496,4.898-30.496s-5.412,19.497-2.394,30.747c0,0,1.292,9.351,8.313,18.344C94.506,151.347,93.162,152.514,92.922,152.753"/>
<polygon fill="#A41F35" points="206.885,122.622 202.531,127.605 219.942,122.96 224.063,118.152 "/>
<polyline fill="#A41F35" points="228.245,117.065 263.234,107.957 259.457,112.427 224.125,121.819 228.072,117.065 "/>
<polygon fill="#A41F35" points="276.062,104.638 304.409,97.196 300.227,101.603 272.285,108.992 "/>
<path fill="#C3CACE" d="M158.181,101.684c-4.098,13.431-15.309,24.486-25.041,24.703c-9.729,0.214-14.299-10.504-10.199-23.934c4.1-13.428,15.311-24.487,25.043-24.702C157.716,77.54,162.281,88.254,158.181,101.684 M182.588,67.765c-5.146-11.164-15.414-17.978-28.967-17.691c-1.01,0.02-3.896-0.032-3.896-0.032c-27.343,3.416-43.499,16.31-56.684,34.393c0,0,8.738-4.367,14.07-5.974c-5.45,7.608-9.742,16.34-12.275,25.681c-4.654,17.126-2.238,32.246,5.295,41.945c1.157-0.929,4.717-3.423,7.583-4.805c4.625-2.469,10.934-4.655,16.403-5.234c0,0-2.755,2.719-3.316,9.464c2.358-4.707,5.314-7.414,8.997-10.097c5.729-0.524,11.276,0.042,15.717,0.606c1.987,0.255,5.475,1.062,9.279,2.353c8.275-10.106,20.557-28.159,24.786-50.362c1.528-8.015-2.595-14.007-2.595-14.007L182.588,67.765z"/>
<path fill="#FFFFFF" d="M160.138,102.32c-4.432,14.52-16.31,26.079-27.035,26.313c-4.493,0.098-8.32-1.88-10.776-5.569c-3.406-5.122-3.897-12.868-1.34-21.242c4.433-14.522,16.31-26.079,27.037-26.316c4.491-0.098,8.318,1.88,10.774,5.569C162.207,86.199,162.695,93.943,160.138,102.32 M181.074,69.45c-0.962-2.242-2.13-4.326-3.534-6.208c-5.443-7.317-13.912-11.229-23.855-11.021c-1.017,0.019-2.823-0.065-2.823-0.065c-4.611,0.708-27.313,2.836-49.303,25.538c0,0,10.549-4.834,18.421-7.085c-1.788,1.1-6.331,3.716-8.79,5.915c-6.535,8.18-11.505,17.677-14.369,28.222c-4.229,15.566-2.572,29.978,4.539,39.542c0.147,0.194,0.303,0.378,0.452,0.567c1.623-1.136,3.924-2.617,5.903-3.572c4.627-2.468,10.934-4.658,16.401-5.236c0,0-2.753,2.721-3.314,9.466c2.355-4.707,5.314-7.414,8.997-10.097c5.729-0.526,11.278,0.042,15.72,0.606c1.984,0.255,5.472,1.062,9.276,2.353c8.275-10.106,20.557-28.159,24.786-50.362c1.528-8.015-2.595-14.004-2.595-14.004L181.074,69.45z"/>
<path fill="#A41F35" d="M129.934,227.479c-4.435-0.976-10.077-6.205-10.077-6.205c-1.24,1.14-14.479,14.216-28.104,20.588c1.992,1.613,3.601,2.814,3.601,2.814c1.745,0.895,3.184,1.706,4.414,2.446c4.103-0.882,6.67-2.23,6.575-2.262c-2.127-0.176-4.077-1.243-5.054-1.951c0,0,14.9-1.599,18.713-6.297c-2.66,0.18-6.918-0.531-7.983-1.598c0,0,0.013,0.037,0.02,0.063c0.012,0.036,0.009,0.026,0,0c-0.002-0.015-0.007-0.026-0.02-0.063C116.614,234.341,128.095,230.635,129.934,227.479"/>
<path fill="#A41F35" d="M112.04,235.079C112.051,235.105,112.053,235.115,112.04,235.079"/>
<path fill="#0E0F17" d="M115.468,12.9l0.371,0.263C115.681,13.057,115.625,12.849,115.468,12.9"/>
<path fill="#0E0F17" d="M84.955,24.487c0.165-0.075,0.264-0.12,0.264-0.12C85.181,24.345,85.091,24.392,84.955,24.487"/>
<path fill="#C3CACE" d="M48.989,251.66c0.741-0.622,2.423-1.879,3.792-2.327c0.23,2.121,0.732,2.795,0.997,4.124c-1.263-0.932-1.333-0.997-2.263-1.197c-1.13,0.731-2.127,2.262-2.396,3.061C49.007,253.738,48.619,252.713,48.989,251.66"/>
<path fill="#FFCF1B" d="M52.097,255.923c1.411,0.545,2.812,4.094,2.556,5.106c-1.107,1.823-1.889,2.909-1.623,5.594c-1.978-2.271-3.257-5.404-2.308-8.406C51.152,257.422,51.539,256.631,52.097,255.923"/>
<path fill="#C3CACE" d="M56.684,249.845c-0.812-1.544-1.049-4.271-0.732-6.264c1.335-1.183,3.035-2.429,5.343-3.403c1.036-0.3,2.751,0.531,2.751,0.531c-0.308,2.29-0.016,4.372,0.463,6.478c-1.187-1.183-2.111-2.134-3.944-2.443C59.328,245.565,57.574,247.756,56.684,249.845"/>
<path fill="#FFCF1B" d="M61.317,248.134c1.548,1.524,2.606,5.377,2.251,7.717c-2.567,2.579-2.55,4.674-2.516,7.995c-2.29-2.733-3.415-6.205-3.067-9.879C58.695,251.904,59.202,249.333,61.317,248.134"/>
<path fill="#C3CACE" d="M67.501,237.813c2.118-1.572,5.977-3.674,5.977-3.674c5.224,1.822,11.776,6.681,14.84,11.559c2.973,3.37,10.626,5.668,13.107,10.718c0.199,2.521-1.006,7.618-2.706,7.618c-0.787,0.276-1.277-0.495-2.977-0.62c-1.702-0.121-3.563,0.741-3.563,0.741c-2.506-4.556,4.411-5.617,1.829-9.917c-5.755,0.216-10.547-3.685-12.965-8.399c-1.259-0.095-0.464,3.627-3.921,3.693c-0.532-5.117-2.778-8.998-5.994-10.153c-1.579,1.349-3.416,2.918-4.18,4.834C67.454,242.061,66.188,239.647,67.501,237.813"/>
<path fill="#FFCF1B" d="M71.601,243.218c1.501,1.576,2.796,5.116,2.398,7.511c-3.036,2.823-3.458,6.983-3.567,7.889c-2.596-4.206-4.007-10.477,0.152-14.814C70.819,243.449,71.156,243.236,71.601,243.218"/>
<path fill="#FFCF1B" d="M92.509,266.779c1.485-1.109,4.43-0.136,4.968,0c-1.114,3.962-4.523,6.21-7.803,7.095C91.342,272.249,92.386,267.276,92.509,266.779"/>
<path fill="#C3CACE" d="M141.398,212.053c2.726-0.712,6.36-1.066,6.36-1.066c3.549,2.925,5.233,6.647,6.03,8.611c-0.088,1.777,0,4.171-0.88,7.33c-0.694,2.483-3.44,5.829-3.979,5.744c1.006-4.245-0.739-8.985-2.152-11.25c-1.412-2.264-3.096-3.241-4.339-3.817c-2.216,1.468-4.918,5.359-5.642,8.58C136.907,220.964,137.989,216.075,141.398,212.053"/>
<path fill="#FFCF1B" d="M142.633,221.334c2.673,2.981,4.527,8.072,2.606,11.931c-0.672,1.93-0.333,6.402,0.364,9.198c-4.629-2.907-7.554-8.407-6.753-14.081C139.235,225.623,140.986,222.889,142.633,221.334"/>
<path fill="#C3CACE" d="M159.872,213.232c0.483-1.984,1.338-6.444,4.076-8.627c0.662-0.099,4.414-0.589,7.224-0.435c6.102,6.759,6.082,15.765,5.924,16.8c-0.16,1.026-0.16,4.514-2.111,6.346c0,0,0-3.813-0.44-5.941c-0.445-2.127-3.208-9.417-7.629-10.731c-4.022,3.252-5.497,8.515-6.267,12.676C159.239,220.021,159.388,215.214,159.872,213.232"/>
<path fill="#FFCF1B" d="M167.256,215.025c2.006,0.771,5.533,6.855,4.966,11.933c-1.411,3.239-2.248,8.385-1.759,11.868c-5.544-4.814-7.559-10.936-6.135-17.651C164.81,219.068,165.857,216.778,167.256,215.025"/>
<path fill="#FFCF1B" d="M175.359,261.077c2.73-1.968,7.977-0.213,7.205,1.838c-3.697,4.729-9.483,7.163-15.382,7.399C170.504,268.212,173.135,264.092,175.359,261.077"/>
<path fill="#C3CACE" d="M176.747,250.922c2.787-0.912,5.399-1.378,8.085,0.591c1.439-0.004,2.437-0.384,3.368-1.981c0.934-1.596,2.659-4.654,2.659-4.654c0.553,4.45-1.332,13.301-6.117,14.366c-2.22-2.253-6.419-2.261-8.479-1.578c-0.767,0.251-1.822,1.026-2.681,0.853C171.704,254.721,174.647,251.75,176.747,250.922"/>
<path fill="#C3CACE" d="M186.692,203.092c-3.372,3.106-5.765,8.172-5.703,13.838c0.024,2.51,1.146,7.381,4.096,9.235c-2.807-4.948,0.87-12.063,2.021-13.656c1.212-1.676,3.322-3.649,4.376-3.904c1.149,0.888,5.521,6.396,5.637,10.602c0.753-5.198-0.262-9.916-3.246-13.897C192.589,204.067,187.581,203.092,186.692,203.092"/>
<path fill="#FFCF1B" d="M191.302,212.773c4.678,4.627,5.511,13.994,1.846,20.076c-0.675,0.973-0.971,2.145-2.021,2.911c0-4.452-1.988-8.392-2.263-8.574c-2.648-2.243-1.501-7.33-0.932-9.092C188.502,216.332,190.045,213.916,191.302,212.773"/>
<polygon fill="#FFFFFF" points="193.086,53.287 199.168,49.432 200.733,49.176 196.352,59.546 190.533,63.23 205.729,60.739 202.891,58.929 207.485,48.071 209.867,47.682 212.785,49.599 215.169,43.959 195.679,47.151 "/>
<polygon fill="#FFFFFF" points="194.908,51.133 196.273,47.903 213.798,45.035 212.403,48.34 210.051,46.798 206.89,47.313 201.842,59.259 203.42,60.268 194.47,61.732 197.024,60.114 202.1,48.098 198.865,48.629 "/>
<path fill="#FFFFFF" d="M232.196,44.933l-4.116,2.631l-2.425,0.396l1.32-3.119l5.008-0.823l0.809,0.534L232.196,44.933z M217.72,43.502l2.767,1.815l-4.644,10.994l-5.818,3.687l20.343-3.332l2.591-6.136l-6.083,3.855l-4.228,0.694l1.712-4.053l3.202-0.528l2.438,1.6l3.106-7.343l1.796,1.179l2.384-5.634L217.72,43.502z"/>
<polygon fill="#FFFFFF" points="232.171,43.134 226.383,44.083 224.288,49.041 228.387,48.367 231.507,46.371 229.621,50.842 227.752,49.619 223.765,50.272 221.278,56.156 227.181,55.191 231.136,52.682 229.772,55.912 213.96,58.502 216.514,56.879 221.533,44.999 219.994,43.984 235.916,41.375 234.522,44.678 "/>
<polygon fill="#FFFFFF" points="249.333,50.681 257.723,43.268 254.937,49.867 249.119,53.556 264.315,51.068 261.478,49.259 266.12,38.27 272.014,34.57 260.896,36.389 253.191,43.143 250.512,38.089 240.31,39.762 243.079,41.579 238.431,52.574 232.615,56.257 245.694,54.117 242.857,52.309 246.132,44.554 "/>
<polygon fill="#FFFFFF" points="239.106,53.143 244.128,41.26 242.58,40.243 250.05,39.018 252.945,44.481 261.27,37.18 268.033,36.073 265.447,37.698 260.426,49.585 262.006,50.591 253.054,52.058 255.608,50.439 259.941,40.187 249.583,49.336 246.053,42.583 241.806,52.634 243.386,53.64 236.546,54.761 "/>
<polygon fill="#FFFFFF" points="309.561,37.971 303.385,41.805 299.553,42.393 304.219,31.976 310.152,28.325 295.044,30.64 297.709,32.495 292.754,43.554 286.899,47.187 306.801,44.141 "/>
<polygon fill="#FFFFFF" points="293.418,44.135 298.762,32.201 297.25,31.153 306.168,29.787 303.556,31.392 298.151,43.459 303.681,42.612 307.667,40.135 306.217,43.376 290.84,45.736 "/>
<path fill="#FFFFFF" d="M330.763,28.759l-4.169,2.611l-2.389,0.365l1.407-3.146l4.972-0.761l0.789,0.546L330.763,28.759z M316.496,27.132l2.666,1.853l-4.955,11.061l-5.855,3.636l20.247-3.105l2.767-6.166l-6.175,3.83l-4.188,0.643l1.828-4.083l3.179-0.486l2.367,1.648l3.305-7.374l1.74,1.217l2.538-5.658L316.496,27.132z"/>
<polygon fill="#FFFFFF" points="330.792,26.942 325.033,27.828 322.806,32.803 326.895,32.174 330.036,30.208 328.025,34.695 326.21,33.433 322.249,34.039 319.605,39.947 325.487,39.05 329.472,36.575 328.02,39.813 312.292,42.225 314.87,40.625 320.215,28.694 318.705,27.643 334.564,25.215 333.074,28.53 "/>
<path fill="#FFFFFF" d="M277.301,46.762l1.646-3.676l2.025-0.313c7.85-1.201,12.659-5.029,12.229-7.851c-0.341-2.219-3.556-3.082-8.601-2.307l-11.524,1.761l2.665,1.858l-4.95,11.058l-5.858,3.636l15.103-2.313L277.301,46.762z"/>
<polygon fill="#C3CACE" points="194.908,51.133 196.273,47.903 213.798,45.035 212.403,48.34 210.051,46.798 206.89,47.313 201.842,59.259 203.42,60.268 194.47,61.732 197.024,60.114 202.1,48.098 198.865,48.629 "/>
<polygon fill="#C3CACE" points="232.171,43.134 226.383,44.083 224.288,49.041 228.387,48.367 231.507,46.371 229.621,50.842 227.752,49.619 223.765,50.272 221.278,56.156 227.181,55.191 231.136,52.682 229.772,55.912 213.96,58.502 216.514,56.879 221.533,44.999 219.994,43.984 235.916,41.375 234.522,44.678 "/>
<polygon fill="#C3CACE" points="239.106,53.143 244.128,41.26 242.58,40.243 250.05,39.018 252.945,44.481 261.27,37.18 268.033,36.073 265.447,37.698 260.426,49.585 262.006,50.591 253.054,52.058 255.608,50.439 259.941,40.187 249.583,49.336 246.053,42.583 241.806,52.634 243.386,53.64 236.546,54.761 "/>
<path fill="#C3CACE" d="M278.369,42.326l-2.122,4.737l1.542,1.044l-8.916,1.365l2.579-1.602l5.342-11.928l-1.508-1.051l9.44-1.446c5.335-0.816,7.45,0.351,7.64,1.603c0.32,2.095-3.907,5.729-11.524,6.897L278.369,42.326z"/>
<polygon fill="#C3CACE" points="293.418,44.135 298.762,32.201 297.25,31.153 306.168,29.787 303.556,31.392 298.151,43.459 303.681,42.612 307.667,40.135 306.217,43.376 290.84,45.736 "/>
<polygon fill="#C3CACE" points="330.792,26.942 325.033,27.828 322.806,32.803 326.895,32.174 330.036,30.208 328.025,34.695 326.21,33.433 322.249,34.039 319.605,39.947 325.487,39.05 329.472,36.575 328.02,39.813 312.292,42.225 314.87,40.625 320.215,28.694 318.705,27.643 334.564,25.215 333.074,28.53 "/>
<path fill="#FFFFFF" d="M286.087,36.821c-0.593,1.325-2.806,2.742-4.732,3.04c0,0-0.543,0.082-1.032,0.158l1.874-4.181c0.367-0.055,2.019-0.312,2.019-0.312c0.899-0.135,1.624-0.003,1.893,0.35C286.316,36.152,286.211,36.543,286.087,36.821 M281.619,35.075l-2.696,6.012l2.56-0.391c2.242-0.346,4.654-1.93,5.371-3.528c0.31-0.691,0.283-1.329-0.079-1.802c-0.467-0.619-1.448-0.858-2.686-0.67L281.619,35.075z"/>
<path fill="#0E0F17" d="M286.087,36.821c-0.593,1.325-2.806,2.745-4.732,3.039c0,0-0.543,0.083-1.032,0.16l1.874-4.181c0.367-0.055,2.019-0.315,2.019-0.315c0.899-0.132,1.624-0.001,1.893,0.353C286.316,36.152,286.211,36.543,286.087,36.821"/>
<path fill="#C3CACE" d="M268.668,150.92c-2.652-0.626,3.588-3.103,5.873-8.413c4.104,0.165,8.396,0.479,10.271,0.246C280.142,148.09,271.419,151.568,268.668,150.92"/>
<path fill="#C3CACE" d="M256.943,148.088c-2.39-0.642,3.136-3.918,3.877-7.225c2.602,0.189,4.851,0.96,7.394,0.905C265.407,145.027,259.083,148.659,256.943,148.088"/>
<polygon fill="#FFFFFF" points="230.844,166.102 230.844,168.474 231.314,168.474 231.314,166.563 236.375,166.563 236.375,168.474 236.84,168.474 236.84,166.102 "/>
<rect x="232.226" y="172.611" fill="#FFFFFF" width="3.403" height="0.543"/>
<polygon fill="#FFFFFF" points="231.994,167.241 231.994,168.475 232.465,168.475 232.465,167.7 233.075,167.7 233.075,171.542 232.226,171.542 232.226,172.087 233.544,172.087 233.544,167.241 "/>
<polygon fill="#FFFFFF" points="234.223,167.241 234.214,172.087 235.536,172.087 235.536,171.542 234.69,171.542 234.69,167.7 235.287,167.7 235.287,168.475 235.755,168.475 235.755,167.241 "/>
</svg>