<?xml version="1.0" encoding="UTF-8" standalone="no"?>
<!-- Created with Inkscape (http://www.inkscape.org/) -->

<svg
   xmlns:dc="http://purl.org/dc/elements/1.1/"
   xmlns:cc="http://creativecommons.org/ns#"
   xmlns:rdf="http://www.w3.org/1999/02/22-rdf-syntax-ns#"
   xmlns:svg="http://www.w3.org/2000/svg"
   xmlns="http://www.w3.org/2000/svg"
   version="1.1"
   width="280"
   height="200"
   viewBox="0 0 279.99999 200.00001"
   id="Layer_1">
  <metadata
     id="metadata3728">
    <rdf:RDF>
      <cc:Work
         rdf:about="">
        <dc:format>image/svg+xml</dc:format>
        <dc:type
           rdf:resource="http://purl.org/dc/dcmitype/StillImage" />
        <dc:title></dc:title>
      </cc:Work>
    </rdf:RDF>
  </metadata>
  <defs
     id="defs3726" />
  <polygon
     points="95.135,270.014 130.665,261.908 88.997,275.54 "
     transform="matrix(0.71844052,0,0,0.71844052,11.999682,1.6430931e-5)"
     id="polygon3486"
     style="fill:#c3cace" />
  <polygon
     points="183.471,264.141 178.894,269.862 235.263,248.949 "
     transform="matrix(0.71844052,0,0,0.71844052,11.999682,1.6430931e-5)"
     id="polygon3488"
     style="fill:#c3cace" />
  <polygon
     points="193.403,242.528 192.913,245.328 211.919,239.749 "
     transform="matrix(0.71844052,0,0,0.71844052,11.999682,1.6430931e-5)"
     id="polygon3490"
     style="fill:#c3cace" />
  <polygon
     points="308.212,215.746 303.631,221.468 360,200.557 "
     transform="matrix(0.71844052,0,0,0.71844052,11.999682,1.6430931e-5)"
     id="polygon3492"
     style="fill:#c3cace" />
  <polygon
     points="272.887,204.456 272.395,207.258 307.797,196.417 "
     transform="matrix(0.71844052,0,0,0.71844052,11.999682,1.6430931e-5)"
     id="polygon3494"
     style="fill:#c3cace" />
  <polygon
     points="324.681,68.25 324.191,71.044 355.071,63.702 "
     transform="matrix(0.71844052,0,0,0.71844052,11.999682,1.6430931e-5)"
     id="polygon3496"
     style="fill:#c3cace" />
  <polygon
     points="189.606,252.458 186.292,256.621 218.492,245.427 "
     transform="matrix(0.71844052,0,0,0.71844052,11.999682,1.6430931e-5)"
     id="polygon3498"
     style="fill:#0e0f17" />
  <path
     d="m 218.11595,18.610499 c -1.80257,-1.547521 -4.01895,-2.972907 -6.76914,-4.199285 -0.0991,1.176087 -0.3075,3.119469 -0.64876,5.338013 l -3.80773,0.581937 c -0.68467,-2.829219 -1.76162,-5.308557 -3.21574,-6.759088 -7.7376,-7.7397596 -26.28343,-12.0022666 -28.32093,-11.4002136 2.36439,5.006812 6.32444,22.3197906 5.72095,21.7924556 C 180.23474,21.790317 173.9491,9.4044024 169.44233,5.1778174 161.37999,-2.3909536 141.5072,0.54818643 140.52509,0.62434143 146.7044,6.1290324 151.6717,11.595646 154.49948,17.582411 150.53369,13.729414 138.58818,4.1906804 128.63131,3.2021064 c -6.39556,-0.632228 -22.54753,1.318338 -33.4082,6.254742 20.80029,2.6000366 38.74765,15.4694616 49.61622,26.6850356 -0.14369,0.34557 -0.30462,0.706227 -0.47776,1.084846 l -1.38013,3.871676 c -5.91851,-6.192239 -13.13668,-9.714035 -24.61736,-8.591831 -2.27674,0.224154 -4.67489,0.675335 -7.13412,1.346358 l 0.23781,-0.206911 c -9.17521,2.103594 -31.15373,11.849958 -44.1532,32.685447 l 6.83812,-1.74724 c -2.18406,4.15546 -4.02686,8.71684 -5.3998,13.71719 -4.86025,17.71602 -0.19326,31.119251 9.20753,38.213131 -0.49428,0.90595 -0.94618,1.82124 -1.29463,2.67906 -0.61354,-0.26367 -1.54895,-0.69904 -2.52962,-1.27236 C 72.45573,116.94274 59.867219,112.3634 52.312817,93.898039 37.359914,57.352404 70.16391,19.640024 73.0348,17.592469 69.98071,18.99702 29.432642,38.228954 27.017963,68.986109 c -0.454773,-3.3975 -0.403045,-9.25423 -0.403045,-9.25423 0,0 -13.796932,14.26895 -9.064564,34.36948 0.568286,2.57058 1.398085,5.17636 2.077012,7.594631 -1.661035,-2.607941 -4.636097,-6.807221 -5.777699,-9.139281 -2.88885,7.16932 -2.148137,15.808571 0.528054,21.112811 1.735752,3.78906 5.061413,6.42071 7.895661,9.70542 -3.083547,-0.89446 -6.799321,-2.3802 -6.799321,-2.3802 0,0 1.153815,14.44353 16.718829,18.47542 l -7.65642,0.49285 c 6.172122,7.65283 17.251912,9.94034 19.287972,9.83401 0.732809,-0.14081 2.697744,0.32761 3.304826,0.46986 0,0 -3.668357,2.1661 -3.508863,2.35361 1.571948,1.33199 8.484782,3.30699 12.926182,2.81485 4.44571,-0.49572 5.144033,-1.33917 5.835893,-1.24362 0,0 -2.378757,3.35584 -2.659668,3.32423 4.065658,0.87793 10.074688,0.86644 12.953478,-0.10705 2.87736,-0.97133 3.59364,-2.43479 6.56224,-2.38666 -0.77448,1.41174 -4.18779,4.75464 -4.18779,4.75464 3.25238,0.32976 6.34527,0.14872 9.5531,-0.47058 2.80623,-0.54458 7.11615,-2.49873 10.65232,-3.29548 -3.22436,5.46445 -13.1841,11.99723 -19.9748,15.50825 -0.56829,-0.51656 -1.09921,-1.02521 -1.53746,-1.49364 0,0 -2.41971,-2.71211 -8.52717,-5.15552 0,0 -5.147629,0.98641 -7.515609,4.57287 l -1.438318,-0.0115 c 0,0 -4.196411,1.58488 -6.741128,4.38105 -0.528772,0.58266 -0.393705,2.36008 -0.393705,2.36008 0,0 -3.692784,2.06767 -4.225867,2.7545 0,0 -1.425386,2.93914 0.635101,7.82526 0,0 -0.0079,6.60462 6.937262,7.67079 0,0 -0.529491,-2.47719 0.613548,-3.85156 0,0 1.957032,2.08778 4.780503,1.77885 0,0 -0.145843,-3.41115 0.693295,-4.63394 0,0 1.38228,0.1947 1.992236,-0.0323 0,0 1.628702,2.01523 3.842222,2.39672 0,0 0.24355,-2.74372 1.00797,-3.20424 0,0 1.53962,-0.82118 4.19569,1.14735 2.65823,1.96565 5.63186,3.92627 5.63186,3.92627 0,0 0.3197,3.16042 -3.26891,8.04941 0,0 8.7657,0.18967 12.43046,-6.9078 0,0 3.45713,-3.12307 3.76247,-6.17572 0,0 0.0905,-0.97133 0.15734,-2.08851 5.68358,-0.092 9.30021,-1.26804 10.12642,-1.35138 -0.0661,-0.26008 -2.72433,-1.20483 -2.83856,-1.88519 1.39808,-0.90595 19.80812,-1.61434 26.56793,-5.82943 0,0 -2.04253,-0.73999 -3.21933,-1.57985 l 0.10058,-0.64156 c 1.48573,-0.51944 2.89172,-0.9153 4.19785,-1.54465 0.0517,0.003 0.0912,0.004 0.0912,0.004 0.71269,1.62942 5.82224,3.49521 5.82224,3.49521 4.43422,3.81133 4.70219,11.42536 4.70219,11.42536 -0.77591,3.48013 -6.30647,8.7269 -6.30647,8.7269 11.2321,5.54205 19.59044,-7.53788 19.59044,-7.53788 3.16976,-0.7637 5.1778,-7.68013 5.5284,-8.9841 0.25433,-0.95049 1.42682,-8.38564 2.04755,-12.35215 2.58424,-0.76154 5.02621,-1.51734 6.23032,-1.98648 0.49572,0.23852 1.10209,0.6078 3.51174,1.67971 4.36237,0.87937 9.33901,0.45477 12.48649,0.56182 l -4.85953,-3.86736 c 0,0 6.56942,2.71929 9.51287,3.68775 4.36812,0.38652 8.78581,0.12501 12.13303,-0.13722 0,0 -3.30986,-2.39672 -4.37243,-3.53257 l 0.12141,-0.0683 c 2.41396,1.31475 5.09159,2.07271 7.55728,3.42409 2.88095,0.0747 9.86922,0.2766 13.89823,-0.65953 0,0 -8.28577,-3.46072 -9.29374,-4.26681 2.79904,0.44471 12.6194,3.63243 13.16039,3.56777 5.47811,-0.56182 9.55741,-3.84078 10.61208,-3.81276 0,0 -9.65153,-2.30979 -12.09853,-3.8142 4.2194,0.74358 11.73716,1.71779 15.95153,2.71786 1.33845,0.0733 9.4906,-4.11667 13.64031,-8.26063 -6.95378,-0.79316 -64.20128,-9.70685 -67.90197,-10.30962 -3.17335,-0.71701 -6.23247,-1.89166 -9.32895,-2.45635 l 3.7129,0.40448 c 2.74301,-0.25289 8.1385,-0.0776 10.58191,-0.82908 0,0 -3.5922,-2.30117 -4.44642,-2.79976 13.99019,0.82333 24.45068,-5.52625 24.52396,-6.41855 0,0 -5.62323,-1.02306 -5.67208,-1.60428 11.76015,-2.34427 16.82803,-8.60332 18.07955,-10.31537 0.21338,-0.0769 -10.51653,-3.22148 -13.09142,-5.38327 3.73804,1.33199 4.90264,1.09993 9.56891,1.50513 7.57092,0.65953 14.78047,-7.96248 17.32806,-14.786221 -0.39083,0.15734 -0.95121,-0.3427 -1.31905,0.0862 -3.66908,0.18177 -10.08475,1.534591 -15.76402,0.962711 17.85971,-1.896681 19.22259,-7.843211 20.1192,-8.973321 2.99949,-6.86255 4.45649,-14.03186 5.1038,-18.48907 2.5828,-2.2049 5.3531,-4.9673 6.35461,-7.37551 2.05833,-4.951495 17.77422,-46.212252 17.77422,-46.212252 1.58344,-3.297642 7.89925,-7.80873 7.89925,-7.80873 l -48.32155,7.407452 z"
     id="path3500"
     style="fill:#0e0f17" />
  <path
     d="m 146.79924,103.1688 c -5.0765,6.13332 -7.04216,8.40431 -11.14086,11.28454 -0.12645,-0.31755 -0.2687,-0.6236 -0.4246,-0.89733 -1.04749,-1.83274 -3.14102,-4.52115 -3.87311,-5.17277 -0.73066,-0.65019 -1.63158,-1.63302 -1.78102,-1.89453 1.70055,-0.52805 3.13743,-0.41526 4.83726,-0.45334 0,0 -0.66527,-0.90882 -1.5935,-1.69336 -0.58265,-0.49285 -1.23572,-0.96127 -1.93404,-1.40455 l 19.79016,-5.345921 c -1.1962,2.00948 -2.50017,3.908321 -3.88029,5.577261"
     id="path3502"
     style="fill:#0e0f17" />
  <polygon
     points="100.881,262.191 118.4,260.904 101.267,265.185 "
     transform="matrix(0.71844052,0,0,0.71844052,11.999682,1.6430931e-5)"
     id="polygon3504"
     style="fill:#0e0f17" />
  <polygon
     points="295.92,209.147 292.605,213.31 335.113,197.966 "
     transform="matrix(0.71844052,0,0,0.71844052,11.999682,1.6430931e-5)"
     id="polygon3506"
     style="fill:#0e0f17" />
  <polygon
     points="335.248,42.698 334.757,45.494 346.823,41.158 "
     transform="matrix(0.71844052,0,0,0.71844052,11.999682,1.6430931e-5)"
     id="polygon3508"
     style="fill:#0e0f17" />
  <path
     d="m 159.7326,147.27602 c 3.2646,-0.20763 70.10399,-15.80139 76.36233,-17.68083 -14.79772,5.36819 -59.49263,18.02065 -76.36233,17.68083"
     id="path3510"
     style="fill:#0e0f17" />
  <path
     d="m 156.16842,96.087129 c -5.39764,8.812391 -13.50309,18.295801 -14.46939,20.472681 -1.12005,2.51957 0.27947,5.59665 0.27947,5.59665 4.12313,-7.03641 12.86152,-17.7735 17.33741,-26.777001 l -3.14749,0.70767 z"
     id="path3512"
     style="fill:#a41f35" />
  <path
     d="m 195.09999,149.92275 c 0.80034,-0.41238 3.3544,-1.19405 4.23305,-0.6272 3.99669,0.68036 17.90713,3.49378 20.1422,4.47517 -6.99042,-1.20698 -17.50049,-2.33493 -24.37525,-3.84797"
     id="path3514"
     style="fill:#a41f35" />
  <path
     d="m 188.17638,153.49053 1.78317,-0.83842 c 2.03534,0.52805 11.94048,3.83072 15.03983,5.01615 -5.20941,-1.23285 -11.41602,-2.67547 -16.823,-4.17773"
     id="path3516"
     style="fill:#a41f35" />
  <path
     d="m 209.79857,86.095059 c -2.26812,1.1337 -13.63529,4.41984 -15.10737,4.53408 v -0.52949 c 1.50944,-0.75293 9.21472,-4.04339 11.33052,-5.36173 1.83275,-1.18542 3.68417,-2.40174 5.53271,-3.64896 l -7.46387,2.07199 -1.67828,-2.89388 -3.75601,4.37027 -7.12908,1.92399 c 0.60492,1.87441 1.28888,3.78043 0.62504,5.98604 -0.45405,1.5468 -1.5116,2.94705 -1.62583,4.53408 0.0409,0.52805 -0.56541,0.56685 -0.79316,0.98067 0.45334,5.247491 -4.2661,9.403671 -8.15717,11.786021 -0.87003,3.73948 -4.15474,7.02491 -7.25266,9.32751 l -3.81564,1.73863 c -0.94259,2.79545 -4.03979,4.9091 -6.72173,5.81362 -0.41454,0.11567 -0.90451,0.11567 -1.24505,-0.18464 -0.0754,-0.45477 0.34126,-0.49285 0.717,-0.45477 1.88734,-0.19255 4.28047,-2.84934 4.26754,-3.28759 0.15159,-0.22487 0.2651,-0.48997 0.2651,-0.79172 -1.17106,-0.1911 -2.41827,-0.79316 -3.55125,-0.56685 -2.49155,2.22789 -5.81578,2.49299 -9.06456,2.90825 -0.64373,-0.41526 -1.73935,0.49285 -1.88807,-0.53021 1.88807,0.53021 6.4595,-1.96206 8.34613,-3.4363 1.70055,-0.90524 1.77598,-2.75522 2.53034,-4.19138 -2.11508,0.41526 -3.88963,0 -6.15775,0 -0.5259,-0.30031 0.22703,-0.56542 0,-0.98211 4.45936,-0.8298 10.12642,-3.80127 11.54247,-5.4271 1.41892,-1.62799 3.03828,-3.63818 3.03828,-3.63818 -0.68036,-0.26367 -0.89949,0.34126 -2.64314,0.56685 -1.74294,0.22702 -3.47582,0.64372 -5.70442,0.22702 -0.41382,-0.34126 -0.22559,-0.94331 0.18823,-1.17034 4.23234,-0.71772 9.44318,-4.10732 10.78954,-5.51115 1.34564,-1.401681 2.54472,-4.120981 3.3386,-5.820091 -1.21273,0.3118 -1.82125,0.61211 -3.24951,1.17034 -1.42898,0.55679 -3.00165,0.95121 -3.71146,1.10927 -0.70695,0.15734 -1.42539,0.43825 -1.80185,0.55248 -0.26655,0.0388 -0.45406,-0.11351 -0.64229,-0.18823 0.22559,-0.71772 1.13154,-0.49285 1.62296,-0.90955 3.51605,-1.18901 6.71239,-3.47366 9.07893,-6.45734 l -14.11017,3.81133 c -2.2947,5.47308 -6.64127,14.419821 -17.12978,28.565191 -3.13671,5.65988 -8.39713,8.89573 -8.77216,8.55807 -2.64386,-1.11215 -5.28125,-1.71492 -6.76699,-1.99368 l -1.29535,-0.1286 c -0.92104,4.60521 -8.05946,11.97569 -8.05946,11.97569 l -4.1375,-2.6726 c -2.19915,1.63517 -10.72057,6.93295 -20.04808,9.1206 l -0.22847,-2.07485 c -4.38967,-1.90675 -8.3842,-4.06925 -11.36213,-5.10883 -0.028,0.006 -0.0525,0.0122 -0.0762,0.0165 l -0.14153,0.1674 c 0.61355,1.03311 4.97017,8.00773 5.29419,8.22398 1.73862,1.35929 5.61964,2.64458 7.27492,5.03555 l 1.11862,-3.07923 3.91693,6.71742 c 0,0 2.40319,-6.77633 2.51455,-6.43436 -0.48064,0.87075 0.86859,2.27459 1.26158,3.42194 0.79531,-1.64811 1.85645,-3.42194 3.28183,-5.33083 0,0 5.04489,-1.26733 6.57158,-1.06329 0,0 2.66829,1.24649 4.60089,4.29771 0,0 0.94475,-5.4192 4.40548,-8.47329 0,0 4.83151,-1.85214 8.9022,-0.52877 0,0 3.483,3.66117 3.6856,4.78122 0,0 2.9298,-5.41776 4.86599,-5.51906 0,0 5.89122,0.61858 8.53939,2.34786 0,0 0.47201,0.66312 1.0403,1.88016 3.20424,-0.7285 5.23743,-1.15741 5.32077,-1.09706 0.11351,1.47281 -1.43616,2.0763 -2.07917,3.24951 3.24879,-0.41813 11.46057,-1.28745 11.90097,-0.64372 -1.08125,1.10424 -1.84352,2.37732 -3.47653,3.16976 3.35799,-0.2608 14.78981,-0.97924 15.11239,-0.56398 0.30103,0.24858 -15.38396,7.60397 -25.41124,9.85413 -0.13075,0.59487 -0.28666,1.19836 -0.4713,1.81837 13.59434,-2.47646 28.6313,-12.35861 37.21235,-14.40042 l -6.30144,-0.93756 c -12.57846,-1.22854 -33.41108,-7.06443 -38.57451,-9.61202 -2.0648,-1.01803 7.0558,0.0991 6.17212,-0.24642 -5.67783,-2.22142 -12.34496,-3.94999 -12.34496,-3.94999 10.61639,-0.98642 18.94456,2.57633 18.94456,2.57633 4.19928,0.41813 7.5544,0 8.87058,-0.36425 -1.61649,-1.22566 -5.30209,-4.60808 -4.86097,-5.07507 3.7129,1.1725 6.85321,2.79617 10.47774,2.55119 3.62884,-0.24643 7.28355,-1.47999 9.83761,-3.70356 -1.89812,-0.64516 -7.53932,-2.08133 -8.85622,-4.38968 3.83144,0.86213 5.56648,1.66319 9.5725,1.98434 3.94855,-0.0647 7.64852,-1.87657 9.49419,-4.36812 -4.37315,-0.56973 -12.64168,-2.17328 -15.17059,-5.384 11.20983,2.84144 15.11886,2.96285 17.52636,2.77031 1.61146,-0.94116 3.33787,-1.88231 4.74458,-3.09145 -0.88871,-0.88512 -10.16162,-4.64112 -12.11219,-9.20969 0.98858,-0.0833 8.87059,4.65478 18.74124,3.72871 4.76111,-0.44687 6.52919,-4.24024 9.38212,-8.28937 0,0 -13.32995,0.34701 -22.7717,-2.17687 -0.16452,-0.19398 -0.30605,-0.540991 -0.13865,-0.737841 2.40677,-0.32761 5.03123,-0.22846 7.47465,-0.518 5.99251,-1.01012 10.54743,-1.78604 15.93142,-4.3013 2.64961,-1.22638 5.10093,-8.06449 5.91205,-17.00692 0,7.2e-4 -11.22636,6.04639 -15.25824,8.23189"
     id="path3518"
     style="fill:#a41f35" />
  <path
     d="m 181.53655,157.11865 c 0,0 1.03312,-0.58553 1.59638,-0.81327 3.20784,1.21847 6.74759,2.77892 9.84263,4.30058 -1.23284,-0.40089 -9.34547,-2.89244 -11.43901,-3.48731"
     id="path3520"
     style="fill:#a41f35" />
  <path
     d="m 186.37309,97.155449 c -1.96349,1.02162 -4.00315,1.96493 -6.08088,2.72002 1.28386,-1.77383 1.77599,-3.85013 2.33997,-5.89122 1.92901,-0.64372 3.74091,-2.15388 5.55282,-2.98368 0.26439,2.41683 -1.05539,4.15618 -1.81191,6.15488"
     id="path3522"
     style="fill:#a41f35" />
  <path
     d="m 175.11657,108.86459 c 0.5726,-0.81471 0.90883,-1.09562 1.0949,-1.73719 0.56829,-1.13154 1.28457,-2.2286 1.36145,-3.51389 1.16818,0 2.03965,-0.64085 3.09719,-0.90452 1.54681,-0.45333 3.13312,-0.90667 4.6828,-1.36144 -1.58632,4.6088 -5.7777,6.68653 -10.23634,7.51704"
     id="path3524"
     style="fill:#a41f35" />
  <path
     d="m 180.65862,162.38338 c -3.28327,-1.45197 -3.19275,-1.01946 -6.43435,-2.6611 l 0.78669,-0.49716 c 3.03972,1.78963 2.78108,1.34923 5.64766,3.15826"
     id="path3526"
     style="fill:#a41f35" />
  <path
     d="m 173.22923,116.75954 c -1.66248,1.05754 -3.5491,2.03749 -5.8165,1.88806 0.0754,-1.20986 0.98211,-2.0763 0.64301,-3.43846 1.0597,-1.01947 2.6417,-1.9247 3.54837,-3.16976 2.19268,0.15016 4.38249,-0.2299 6.42142,-0.71988 -0.75508,2.30404 -2.98512,3.77685 -4.7963,5.44004"
     id="path3528"
     style="fill:#a41f35" />
  <path
     d="m 169.67654,163.56306 c -0.61499,-0.0697 -2.22932,-0.55751 -2.68481,-0.89805 0.0805,0 0.85709,-0.27372 0.85709,-0.27372 0,0 1.5971,1.00581 1.82772,1.17177"
     id="path3530"
     style="fill:#a41f35" />
  <path
     d="m 91.63594,138.3106 0.24139,-0.0352 -0.76801,-2.34714 c -1.06473,-0.66672 -2.32703,-1.46562 -3.8336,-2.87305 0.85997,2.46569 2.23291,3.97729 4.36022,5.2554"
     id="path3532"
     style="fill:#a41f35" />
  <path
     d="m 101.87515,143.55593 c -0.0747,-1.43401 0.22703,-3.24879 -0.2651,-4.60951 0.45333,0.64228 0.83123,1.09634 1.17105,1.81478 h 0.37647 c 1.1337,-1.24865 2.45635,-2.53179 3.06271,-3.92987 -0.45477,2.60434 -1.70199,5.66562 -4.34513,6.7246"
     id="path3534"
     style="fill:#c3cace" />
  <path
     d="m 102.93341,133.88788 c 0.11352,-0.94619 1.45197,-2.48078 1.97787,-3.16258 0.22846,0.56757 0.4246,1.83059 0.38796,2.47431 l -2.36583,0.68827 z"
     id="path3536"
     style="fill:#a41f35" />
  <path
     d="m 102.70567,127.76964 c -0.57475,0.51656 -1.91465,2.01307 -2.02816,3.90616 -1.92614,-1.62655 -2.16969,-4.08649 -2.25016,-6.02772 0.63008,-1.08915 1.86077,-2.99733 2.87951,-3.82929 0.99002,0.2493 2.32488,1.96997 2.62016,2.45923 0.29528,0.49285 0.56685,1.27379 0.71772,1.9247 -0.49141,0.20619 -1.36216,1.04964 -1.93907,1.56692"
     id="path3538"
     style="fill:#c3cace" />
  <path
     d="m 96.0407,128.44569 c -0.38006,1.62439 1.85429,4.93066 2.79904,6.21451 -0.56613,1.85142 1.03958,3.76822 0.49069,7.40712 -0.3743,-0.41669 -2.90824,-2.46138 -4.05847,-2.83209 -1.15094,-1.38012 -2.49083,-4.20575 -3.01888,-7.00408 -5.04633,0.75293 -7.13843,-4.64759 -7.59823,-5.64191 l -1.54536,0.88943 c 0,0 -0.34629,-3.44061 2.27027,-7.63415 0.22702,2.75522 1.68689,5.47308 4.48666,6.70952 1.45484,0.64156 2.61297,0.82548 3.67338,0.90308 -1.34348,1.76951 -2.74444,1.91967 -3.89179,2.19268 1.91967,0.62504 5.53487,-0.40089 6.39269,-1.20411"
     id="path3540"
     style="fill:#a41f35" />
  <path
     d="m 80.61003,131.27419 c 0.30893,0.0338 1.56405,-1.47568 2.75953,-1.73144 0.20907,1.4649 0.59774,3.3544 1.74078,5.63616 -0.78597,-0.43681 -2.08922,-2.36798 -2.72073,-3.80126 l -2.322,1.53315 c -0.23852,-0.76155 -0.54889,-1.45413 -0.60708,-2.36152 -0.38221,-2.36367 0.26295,-7.58601 2.72145,-12.87732 0,-7.2e-4 -2.83209,5.72884 -1.57195,13.60223"
     id="path3542"
     style="fill:#a41f35" />
  <path
     d="m 130.86566,118.20001 -0.2651,-0.90667 c -0.33982,-1.32265 -1.13226,-2.49371 -1.73719,-3.62885 0.1753,-0.11998 1.58632,-0.26223 2.26668,-0.18823 -1.36073,-2.64242 -4.4141,-5.35166 -5.78057,-6.34455 -1.36791,-0.99935 -2.70996,-1.86076 -3.36302,-2.72145 0.77519,-0.55679 2.07916,-1.09634 2.07916,-1.09634 -1.96709,-0.60349 -4.3674,-1.28673 -6.29425,-1.20985 -0.61283,-0.10705 -2.39672,-0.18823 -3.68129,0.22703 -4.26395,1.58488 -8.24483,6.0507 -10.51151,10.09408 0,0 -0.13291,-1.41676 -0.17027,-1.71994 0.64157,-2.56986 2.58064,-6.19296 5.16128,-8.5164 -0.44543,0.2414 -4.21581,0.85998 -5.84954,2.0648 -0.99145,0.73066 -2.52173,2.54903 -3.78547,4.38608 -0.89589,0.17027 -3.2689,-4.38608 -3.2689,-4.38608 -1.62008,0.66456 -3.94711,1.34636 -5.24677,3.01099 2.15173,0.80249 6.13692,4.70147 6.62402,5.59018 0.83339,0.83124 0.14441,0.28666 0.41382,1.06832 -0.34126,0.37718 -4.43637,-2.68625 -6.6075,-3.82138 -1.54967,-0.34126 -2.94057,-0.40448 -4.49025,-0.59343 0.2687,0.49141 0.90811,0.94475 1.43688,1.24505 2.41684,0.68037 4.1181,2.83497 5.81721,4.4608 1.8155,1.35857 3.40038,3.73877 5.70586,3.96651 0.33767,-0.98211 0.25936,-2.09066 0.49716,-2.82132 0.17674,-0.54817 0.37215,-1.33342 0.93828,-1.40958 0.3039,1.1179 1.42252,3.42697 2.19197,4.15618 2.10574,0.0632 2.81772,-1.91967 3.39391,-2.75809 0.57691,-0.83986 2.79904,-8.91872 3.85802,-9.48413 0.18824,-0.41526 7.22823,-2.5246 6.06723,-2.28967 -1.15956,0.23852 2.75882,-0.64229 2.72146,-0.0747 -0.36713,0.50506 -1.29894,1.25655 -2.14814,1.94625 6.78639,2.16754 11.22563,9.49563 11.94838,11.49002 0.78095,2.15317 0.74718,4.07931 0.90811,4.07787 -0.0761,0.34126 -2.83496,-0.64085 -3.89251,-0.71772 0.15087,3.09935 -0.22487,6.15775 -0.75652,9.21831 -0.33982,0.37862 -4.4572,2.41899 -6.04424,3.47653 -2.7236,1.35786 -8.57602,4.11954 -8.53938,3.70356 3.31776,-1.92613 9.36487,-5.87756 11.97712,-8.87848 0.41742,-3.62741 1.43904,-7.51202 0.79891,-11.14014 0,0 1.92254,0.67318 3.0936,0.78813 -0.88871,-1.73504 -2.14885,-5.39118 -8.33247,-8.88711 1.13801,1.16746 2.08491,2.68337 2.322,4.62747 0.0582,0.48208 0.0632,0.94332 0.0438,1.39162 0.0194,0.24499 0.0345,0.48782 0.0345,0.73353 0,5.17277 -4.19282,9.36559 -9.36344,9.36559 -0.72418,0 -1.42538,-0.0912 -2.09784,-0.2493 1.28601,0.98139 3.28543,1.77311 4.61813,1.85789 -1.70198,0.98211 -5.09158,0.78166 -6.23893,-0.0683 1.85142,4.64615 2.31553,8.03935 0.61354,12.79902 -0.18823,0.52877 -0.68036,1.09562 -0.56685,1.54895 0,0 11.94049,-6.38406 12.61798,-6.79932 1.05898,-0.15159 3.25094,1.5468 3.25094,1.5468 2.79473,-2.83496 5.6297,-7.06298 4.53408,-11.86217 l 3.85156,0.5999 c 0.33766,-2.18909 -0.41454,-4.75248 -0.75365,-6.86829"
     id="path3544"
     style="fill:#a41f35" />
  <path
     d="m 111.81118,109.51694 c -0.28953,1.23428 -0.70982,2.59141 -1.25727,3.94136 0.51872,-0.33767 1.1337,-0.53811 1.7997,-0.53811 1.83633,0 3.32494,1.48861 3.32494,3.32566 0,1.83777 -1.48933,3.32638 -3.32494,3.32638 -1.75156,0 -3.16976,-1.36073 -3.2998,-3.07636 -1.02953,1.72497 -2.30907,3.24304 -3.84222,4.2273 1.28529,1.6675 3.29477,2.74732 5.56145,2.74732 3.87455,0 7.01916,-3.14318 7.01916,-7.01988 -7.2e-4,-3.52252 -2.59716,-6.43076 -5.98102,-6.93367"
     id="path3546"
     style="fill:#ffcf1b" />
  <path
     d="m 113.76606,118.52115 c 0.296,-0.0129 0.52446,-0.26367 0.51153,-0.55679 -0.0115,-0.29743 -0.26151,-0.5259 -0.55679,-0.51368 -0.296,0.0144 -0.52446,0.26366 -0.51153,0.55894 0.0129,0.29456 0.26151,0.52231 0.55679,0.51153"
     id="path3548"
     style="fill:#c3cace" />
  <path
     d="m 96.75267,120.94876 c -0.29025,1.19046 -1.3557,2.07773 -2.63452,2.07773 -1.50226,0 -2.72217,-1.21991 -2.72217,-2.72001 0,-1.03959 0.58984,-1.93189 1.44765,-2.39097 -1.4649,-1.83777 -2.5677,-2.72792 -3.68631,-3.58358 -1.05898,1.14519 -1.71492,2.73007 -1.71492,4.48163 0,3.483 2.58567,6.30431 5.77123,6.30431 2.39097,0 4.43996,-1.58272 5.31646,-3.83862 -0.57906,-0.0338 -1.17465,-0.13795 -1.77742,-0.33049"
     id="path3550"
     style="fill:#ffcf1b" />
  <path
     d="m 95.23317,122.2477 c 0.24355,-0.0115 0.42891,-0.21481 0.41885,-0.45764 -0.0101,-0.24068 -0.21625,-0.42963 -0.45477,-0.4167 -0.24212,0.008 -0.43107,0.21266 -0.42029,0.45477 0.009,0.24427 0.21625,0.42963 0.45621,0.41957"
     id="path3552"
     style="fill:#c3cace" />
  <path
     d="m 102.3759,123.83546 0.32977,0.57834 -1.06832,0.82262 c 0,-7.2e-4 0.20691,-1.08485 0.73855,-1.40096"
     id="path3554"
     style="fill:#0e0f17" />
  <path
     d="m 83.27042,155.66884 c 1.138,-1.78748 3.12449,-4.69501 3.61088,-6.86111 l -0.40736,-0.32833 c -3.9428,2.02313 -6.88697,5.14978 -17.07589,3.57712 0.85423,-0.61283 1.17968,-1.55327 1.86938,-2.44917 -0.36496,-0.84632 -5.46374,0.83124 -8.4776,0.83124 -3.009542,0 -4.124562,-0.97133 -7.742629,-1.63086 1.094185,-1.60068 3.171197,-2.02313 3.820667,-3.9543 0.44687,-0.18679 -8.126281,1.0518 -12.805484,0.33121 -1.627267,-0.28523 -4.66196,-1.06545 -7.88704,-3.95574 2.601473,-0.37502 8.33391,-3.29333 8.374143,-4.28262 l -0.284502,-0.23493 c -10.197545,1.68761 -16.301416,-2.2595 -16.301416,-2.2595 l -3.904006,-4.98813 0.323299,-0.32976 c 4.513961,2.39887 14.281879,4.10876 17.64418,3.83431 0.18895,-0.0381 0.415977,-0.2651 0.453336,-0.4519 -0.189668,-0.6818 -6.751904,-2.73582 -9.970517,-4.72446 -4.647592,-2.41468 -9.256388,-5.92785 -12.804047,-10.04308 -0.829799,-1.51088 -0.920322,-3.59939 -1.222786,-5.37465 l 0.279474,-3.63819 c 6.004725,7.36761 11.745784,13.46861 20.091907,16.90491 2.013789,1.20339 5.327236,1.81334 5.327236,1.81334 0.07544,-0.34054 0.754363,-0.49069 0.3779,-0.90595 0.222717,0.23493 -2.75953,-1.8155 -4.15546,-2.64602 0,0 -7.268462,-5.30568 -12.426147,-11.21773 -3.05912,-3.96363 -5.363158,-8.42156 -7.630557,-12.801891 -0.188231,-1.47424 -1.021622,-10.27442 0.113514,-13.02964 0,-1.88878 0.944749,-3.58933 1.435444,-5.36387 0.748615,7.62912 7.440889,21.491431 9.971236,25.115961 2.756656,4.38177 7.113998,9.53586 9.210407,11.00507 2.097847,1.46993 4.235207,1.64882 4.123131,1.30756 -1.814063,-1.13226 -3.132401,-2.60866 -4.615262,-4.62101 -1.484298,-2.01163 -4.181324,-6.07944 -7.547936,-13.58355 -3.365176,-7.506271 -5.51475,-18.618391 -5.705137,-23.566291 -0.224871,-4.75967 0.663121,-10.06104 2.985121,-13.71216 2.875917,-4.419844 5.024054,-8.307325 9.064564,-11.594191 -2.341398,8.193814 -4.418409,16.958071 -3.812764,25.947921 0.112077,8.12053 1.547521,15.93932 4.267537,23.113671 3.702842,8.08317 8.685945,15.67565 16.052116,21.45479 3.210711,3.13383 14.145378,10.49929 22.132278,13.97366 0.83267,1.43473 3.24951,3.81564 3.24951,3.81564 -0.71844,0.22559 -1.51088,0.22559 -2.26668,0.33982 v -0.0754 c -1.17106,0.37718 -2.66039,2.23219 -4.2855,2.04468 0.93541,-1.17609 2.17041,-3.59436 2.92477,-4.8387 0.0776,-0.34126 -0.14943,-0.52805 -0.37503,-0.75723 -2.60793,2.41683 -6.15775,1.96349 -9.32966,1.0949 1.51088,-0.67893 3.05912,-1.5468 3.88963,-3.05912 0,0 -0.74358,-0.49716 -2.34211,-0.18823 -3.54982,0.79388 -8.12125,1.13298 -10.688242,-1.73791 3.123062,-2.00014 3.360142,-3.1712 3.360142,-3.1712 -0.44615,0.0517 -1.47136,0.22488 -2.26452,0.11352 -2.907529,-0.26582 -6.381908,-0.22703 -8.083893,-3.10007 1.211291,-0.82908 3.060556,-1.50945 3.36302,-3.24807 0,0 -4.86025,1.6014 -10.989985,-2.11365 2.071983,4.55491 4.985259,3.36014 4.457205,5.74177 0.639412,1.6984 2.077012,2.98297 3.16976,4.34226 -0.41454,0.11351 -0.865721,0.18823 -1.357853,0 -1.776703,-0.0374 -3.436301,-0.49213 -4.910541,-1.35929 0.432502,8.48765 9.742054,10.01937 9.742054,10.01937 2.15604,2.58998 4.838693,5.4623 8.132023,5.64982 1.79108,0.56469 3.82067,0.79962 5.73244,0.70694 0.89302,2.06911 3.21143,2.16107 5.00107,2.82275 1.86938,0.2335 3.82138,0 5.65125,-0.23565 2.48077,-0.65809 2.55764,-2.06264 4.22371,-4.0405 1.74365,5.71735 5.44003,8.71181 5.44003,8.71181 -3.2531,1.97642 -8.19381,1.86004 -8.19381,1.86004"
     id="path3556"
     style="fill:#a41f35" />
  <path
     d="m 75.53856,146.21847 c -0.0424,-0.23637 -0.3664,-0.51943 0,-0.70551 l 0.20332,-0.23493 c 1.54393,0.1401 3.16904,0.70407 4.67417,0.37718 -1.38299,1.55184 -3.17047,0.84633 -4.87749,0.56326"
     id="path3558"
     style="fill:#a41f35" />
  <path
     d="m 76.62484,129.759 c -8.90363,-5.73316 -9.77725,-6.05645 -19.645034,-15.82365 -9.869217,-9.76577 -12.011607,-19.449631 -13.069151,-24.664071 2.492989,8.04654 6.231035,15.638301 12.351429,21.870771 5.704416,6.68581 19.526496,14.85017 20.207576,14.95721 l 0.15518,3.65974 z"
     id="path3560"
     style="fill:#a41f35" />
  <path
     d="m 65.57667,142.59609 c -0.73281,-0.66168 -1.46347,-1.27523 -2.23435,-1.93116 1.17752,-0.32977 2.60147,0.61283 3.82066,0.0941 1.26015,0.79891 2.36008,2.11725 3.90257,2.16466 -1.54321,1.36648 -3.86234,0.3779 -5.48888,-0.32761"
     id="path3562"
     style="fill:#a41f35" />
  <path
     d="m 52.038373,134.45257 c 1.342046,0.18823 2.885257,0.18823 4.10445,-0.47058 1.097777,0.98714 2.195554,2.91903 3.702124,3.29477 -2.724326,-0.51871 -5.651971,-0.65953 -7.806574,-2.82419"
     id="path3564"
     style="fill:#a41f35" />
  <path
     d="m 182.79167,16.865407 0.1911,0.717722 c 0.53381,0.90308 1.09563,3.113003 1.5504,6.177152 l 13.19847,-2.023129 c -3.91981,-2.380912 -9.17161,-4.32142 -14.93997,-4.871745"
     id="path3566"
     style="fill:#a41f35" />
  <path
     d="m 153.39165,28.519949 c 0.005,0.0043 0.006,0.01149 0.0115,0.01724 l 3.54838,-0.545297 c -7.35324,-10.806782 -14.38318,-13.58571 -15.32146,-14.25386 -1.55758,-1.115738 -10.09553,-1.757305 -14.51394,-0.489258 l 0.11711,0.07615 c 0.6545,0.255047 14.39252,7.759158 19.65006,13.65037 -0.17817,-0.206911 -0.33766,-0.408793 -0.52374,-0.61714 3.187,0.145843 6.26552,1.055389 7.0321,2.161787"
     id="path3568"
     style="fill:#a41f35" />
  <path
     d="m 173.88732,17.193016 c -3.78403,-4.444992 -15.1203,-5.124636 -19.65222,-4.973764 0.63222,0.88943 4.843,5.862475 8.79299,14.838671 l 14.21219,-2.177594 c -1.24578,-3.817074 -2.5361,-6.731069 -3.35296,-7.687313"
     id="path3570"
     style="fill:#a41f35" />
  <path
     d="m 146.73529,19.383541 c -1.1883,-1.321931 -6.70448,-2.051148 -10.99142,-1.123641 1.76377,1.023059 3.36877,2.426174 5.31359,3.718648 2.77893,-2.148137 6.97606,-1.153097 5.67783,-2.595007"
     id="path3572"
     style="fill:#c3cace" />
  <path
     d="m 31.651904,82.436759 c 1.167466,2.62087 2.112216,-2.11437 5.917077,-4.60018 v -0.0489 c -0.272289,-4.06494 0.005,-8.0839 0.605645,-12.02526 -4.595146,4.96155 -7.7764,13.86159 -6.522722,16.67429"
     id="path3574"
     style="fill:#c3cace" />
  <path
     d="m 34.769218,93.368549 c 0.775197,1.73863 1.396648,-1.58344 4.064936,-3.113 -0.399453,-2.06696 -0.706227,-4.16983 -0.918885,-6.29929 -2.362951,3.2452 -3.848686,7.831 -3.146051,9.41229"
     id="path3576"
     style="fill:#c3cace" />
  <path
     d="m 26.316047,103.98495 c 1.394493,1.74293 0.628635,-2.97435 3.04978,-5.834461 -1.08269,-2.36223 -2.169691,-4.95508 -3.089294,-7.50339 -1.417484,4.82792 -1.265893,11.710581 0.03951,13.337851"
     id="path3578"
     style="fill:#c3cace" />
  <path
     d="m 31.762544,111.71034 c 0.949779,1.18686 0.332638,-2.30763 2.275301,-4.07141 0.112077,-0.10417 0.206193,-0.21409 0.284503,-0.33263 -0.158057,-0.23565 -0.30893,-0.46915 -0.454773,-0.70264 -0.53883,-0.77232 -1.270921,-2.01451 -2.089943,-3.56131 -0.950497,3.09001 -0.862847,7.60972 -0.01509,8.66799"
     id="path3580"
     style="fill:#c3cace" />
  <path
     d="m 28.540339,122.88424 c 1.718509,0.66097 -0.114951,-2.02887 0.655936,-4.89689 -1.756587,-1.62799 -3.435583,-3.39535 -5.090151,-5.28197 0.155183,4.19138 2.651764,9.49203 4.434215,10.17886"
     id="path3582"
     style="fill:#c3cace" />
  <path
     d="m 34.686597,125.54032 c 1.061137,0.41023 0.01509,-1.17896 0.378618,-2.93914 -1.055389,-0.6818 -2.065516,-1.41749 -3.04978,-2.19771 0.454773,2.35217 1.721384,4.77044 2.671162,5.13685"
     id="path3584"
     style="fill:#c3cace" />
  <path
     d="m 36.973393,135.08767 c 1.310436,-0.14297 -0.341259,-1.14088 -1.097058,-2.98656 -1.627268,-0.32329 -3.291895,-0.72131 -4.839416,-1.17896 1.872256,2.35362 4.666272,4.30562 5.936474,4.16552"
     id="path3586"
     style="fill:#c3cace" />
  <path
     d="m 42.055642,135.58124 c 0.868594,-0.092 -0.806809,-0.92032 -0.734965,-2.47718 0.0014,-0.074 -0.01006,-0.13651 -0.0194,-0.20188 -0.871468,-0.0754 -1.849266,-0.1947 -2.880946,-0.35348 0.813274,1.55758 2.827063,3.12378 3.635309,3.03254"
     id="path3588"
     style="fill:#c3cace" />
  <path
     d="m 48.954107,142.4287 c 1.487891,-0.83196 -2.150292,-1.03671 -3.221487,-3.88677 -0.07041,-0.18895 -0.158057,-0.34485 -0.260075,-0.48135 -1.096341,0.76155 -2.86083,1.67037 -4.504622,2.32559 2.729355,1.78533 6.740409,2.74085 7.986184,2.04253"
     id="path3590"
     style="fill:#c3cace" />
  <path
     d="m 171.57466,22.013033 c -1.37222,-2.30332 -6.99618,-5.115296 -14.22369,-5.347352 1.35642,2.007322 2.96501,4.665552 4.46439,7.922962 0.28881,-0.05245 0.58984,-0.13363 0.90811,-0.261513 5.38256,-2.186214 10.3283,0.161649 8.85119,-2.314097"
     id="path3592"
     style="fill:#c3cace" />
  <path
     d="m 188.6757,23.12015 c -1.54393,-0.582655 -2.92837,-0.846323 -4.44428,-1.198359 0.11352,0.608519 0.21985,1.266611 0.32474,1.969246 1.05036,-0.3779 2.23004,-0.3779 4.11954,-0.770887"
     id="path3594"
     style="fill:#c3cace" />
  <path
     d="m 209.41061,93.857809 c -2.61153,0.40304 1.87657,-3.86809 3.25453,-9.362 3.99453,-1.93835 7.83101,-4.19426 9.38571,-5.07578 -3.56059,7.44376 -9.93388,14.02036 -12.64024,14.43778"
     id="path3596"
     style="fill:#c3cace" />
  <path
     d="m 199.67358,95.629479 c -2.35864,0.28091 0.59918,-2.71355 0.76945,-6.46955 2.49299,-0.83771 4.68998,-1.17537 7.08526,-2.24441 -2.13376,4.53048 -5.73962,8.46179 -7.85471,8.71396"
     id="path3598"
     style="fill:#c3cace" />
  <path
     d="m 189.79072,116.44773 c -1.32553,-0.8729 3.32781,-1.93619 5.63616,-4.38392 0.7012,0.59702 3.83647,2.36151 4.93641,2.965 -3.61663,1.98793 -9.19892,2.322 -10.57257,1.41892"
     id="path3600"
     style="fill:#c3cace" />
  <path
     d="m 147.43721,27.624772 c -0.17171,-0.212658 -0.3585,-0.430346 -0.55392,-0.64947 0.18464,0.217687 0.38509,0.436812 0.55392,0.64947"
     id="path3602"
     style="fill:#c3cace" />
  <path
     d="m 147.43721,27.624772 c 0.001,0.0014 0.004,0.0029 0.004,0.0029 0.39802,0.556791 0.80753,1.097777 1.21776,1.638763 l 0.007,-0.005 c -0.41094,-0.538831 -0.82548,-1.075506 -1.22494,-1.632297 0,7.18e-4 -0.002,-0.0029 -0.004,-0.0043"
     id="path3604"
     style="fill:#a41f35" />
  <path
     d="m 153.39165,28.519949 c -0.76658,-1.106398 -3.84582,-2.015944 -7.03282,-2.161787 0.1868,0.208347 0.34557,0.410229 0.52375,0.61714 0.19541,0.219124 0.38005,0.436812 0.55391,0.64947 0.001,0.0014 0.004,0.0029 0.004,0.0029 0.39946,0.558228 0.814,1.094185 1.22495,1.633734 l 4.73739,-0.724188 c -0.004,-0.0065 -0.006,-0.01293 -0.0108,-0.01724"
     id="path3606"
     style="fill:#c3cace" />
  <path
     d="m 118.90435,71.579679 c -0.52447,0.98571 -1.6129,1.48287 -2.21352,1.69193 -0.72634,0.2141 -2.618,0.56829 -3.87455,-1.06473 -1.62727,-1.86292 -1.92973,-4.72806 -0.88009,-8.10185 l 0.41239,-1.33271 c 0,0 -3.62597,-0.14441 -6.31653,4.66412 -3.70069,6.60965 -3.88748,12.93049 -3.32063,14.96368 0.56541,2.03462 0.006,0.0596 0.006,0.0596 0.24068,2.42474 2.00732,4.37458 3.62741,5.04704 l -0.0647,-0.0323 c 2.19052,0.74 3.32494,0.11352 4.94071,-0.66312 l -0.0596,0.0266 c 3.36015,-1.26662 5.50972,-4.65478 6.72317,-7.27565 2.22788,-4.10804 2.39815,-7.49046 2.40462,-7.63343 l -1.38515,-0.34917 z"
     id="path3608"
     style="fill:#a41f35" />
  <path
     d="m 136.31072,90.251239 19.05161,-4.92635 c 0,0 7.64205,-9.25639 10.27657,-15.17993 -0.46627,3.94927 -1.81047,10.6983 -2.00588,12.98725 l 11.93904,-3.08211 c 0,0 12.98869,-23.569164 16.05786,-38.022031 l -12.64024,2.041808 c 0,0 -2.95494,9.804557 -5.20151,12.584922 l -1.52453,-12.539661 -7.37982,13.366586 c 0,0 -0.22918,-7.886321 -0.85566,-10.83552 L 147.39913,49.2642 c 0.79532,1.412455 2.03175,4.725902 1.53244,7.723236 -0.50578,2.998052 -3.20568,21.211243 -12.62085,33.263803"
     id="path3610"
     style="fill:#c3cace" />
  <path
     d="m 194.35353,41.701896 c -1.06113,4.419846 -7.3597,25.432793 -15.42132,37.447993 l 24.4902,-6.37113 7.81878,-16.726733 c 0,0 -3.47222,5.040583 -9.88502,5.920673 2.618,-5.794227 6.09669,-16.154139 7.45239,-22.755171 l -14.45503,2.484368 z"
     id="path3612"
     style="fill:#c3cace" />
  <path
     d="m 214.18967,54.764581 c 0,0 -3.87814,9.310268 -4.67848,11.000758 -0.79891,1.69337 0.69401,5.23672 3.38745,4.57431 2.6884,-0.66384 23.44271,-6.03921 23.44271,-6.03921 l 4.50893,-11.583413 -10.06678,-6.701614 c 0,0 7.36976,-1.150941 8.38923,-1.227096 1.01803,-0.07328 3.40828,1.076942 3.81994,2.193399 0,0 3.13312,-8.502025 3.8178,-9.952556 0.68539,-1.449813 -0.35348,-3.852997 -4.26323,-3.298361 -4.05129,0.578345 -21.65595,3.518922 -21.65595,3.518922 l -4.46583,12.345682 c 0,0 8.59039,5.162713 9.10336,5.626826 0.51153,0.466268 0.60996,1.205543 -0.31252,1.561171 -1.15525,0.446151 -5.86966,1.457716 -6.96456,1.8428 -1.82556,0.640849 -3.97944,-2.573454 -4.06207,-3.861618"
     id="path3614"
     style="fill:#c3cace" />
  <path
     d="m 180.1241,45.45 c -3.2179,10.20904 -7.24332,15.969499 -7.24332,15.969499 l -0.56469,-4.587246 -0.96343,-7.953137 -7.79149,14.105143 -0.15877,-5.470925 c -0.003,-0.06538 -0.17315,-5.748242 -0.59344,-9.111981 l -13.23798,2.084915 c 0.67677,1.852858 1.22207,4.360215 0.81615,6.78136 l -0.0647,0.394424 c -1.9987,12.180437 -5.56792,22.462767 -10.39943,30.060987 l 14.56351,-3.76606 c 1.55542,-2.16466 11.33268,-15.23454 13.12519,-20.55962 l -0.32545,4.93569 c -0.30103,2.52963 -0.68109,8.23118 -1.60644,12.67545 l 8.91082,-2.29757 c 1.85214,-3.43415 11.67035,-21.933996 15.05708,-34.799829 l -9.52365,1.5389 z"
     id="path3616"
     style="fill:#ffffff" />
  <path
     d="m 201.62271,63.494349 -2.82778,0.5065 1.22063,-2.69559 c 2.17041,-4.813547 5.22235,-13.557686 6.83381,-20.184582 l -11.30897,1.945537 c -1.36504,5.095899 -6.49471,21.846335 -13.31845,33.637385 l 20.1659,-5.24893 4.50319,-9.64075 c -1.42108,0.69617 -3.15467,1.30181 -5.26833,1.68043"
     id="path3618"
     style="fill:#ffffff" />
  <path
     d="m 245.41454,35.781227 c -0.27588,-0.394424 -1.11646,-0.738557 -2.64961,-0.520869 -3.48444,0.496442 -17.2397,2.781802 -20.78305,3.37236 l -3.72511,10.29166 c 3.72224,2.240816 7.77209,4.715844 8.23979,5.14116 0.6818,0.618578 1.00725,1.484299 0.86716,2.31266 -0.1401,0.834828 -0.73137,1.509444 -1.61793,1.853577 -0.66168,0.254328 -2.03031,0.596306 -4.04482,1.086282 -1.18327,0.290968 -2.5246,0.615704 -2.96141,0.771605 -0.69114,0.241396 -1.78964,0.337667 -3.10007,-0.578344 -0.4598,-0.321143 -0.90308,-0.747179 -1.30253,-1.222786 -1.2113,2.895317 -2.97147,7.065147 -3.49378,8.170107 -0.15447,0.32761 -0.0568,1.22207 0.44831,1.87872 0.4677,0.60924 0.93828,0.57619 1.25008,0.50003 2.37517,-0.58552 19.38856,-4.98956 22.7796,-5.86463 l 3.59795,-9.716185 -12.25013,-8.161484 3.88101,-0.605645 c 0.76011,-0.119261 7.45598,-1.163155 8.50275,-1.240029 0.86787,-0.06394 2.20489,0.349163 3.34003,1.052516 0.99001,-2.660385 2.59141,-6.915709 3.08642,-7.966787 0.0639,-0.131475 0.079,-0.346288 -0.0647,-0.553918"
     id="path3620"
     style="fill:#ffffff" />
  <polygon
     points="196.402,125.37 166.281,133.159 161.413,138.484 192.109,130.294 "
     transform="matrix(0.71844052,0,0,0.71844052,11.999682,1.6430931e-5)"
     id="polygon3622"
     style="fill:#a41f35" />
  <path
     d="m 78.75861,109.74396 c -2.27817,-2.62374 -5.64119,-7.64205 -6.50691,-14.624571 -1.35786,-10.98711 3.51892,-21.90956 3.51892,-21.90956 0,0 -3.8882,14.00743 -1.71995,22.08989 0,0 0.92823,6.718141 5.9724,13.179071 -0.12645,0.25505 -1.09203,1.09347 -1.26446,1.26517"
     id="path3624"
     style="fill:#a41f35" />
  <polygon
     points="206.885,122.622 202.531,127.605 219.942,122.96 224.063,118.152 "
     transform="matrix(0.71844052,0,0,0.71844052,11.999682,1.6430931e-5)"
     id="polygon3626"
     style="fill:#a41f35" />
  <polyline
     points="228.245,117.065 263.234,107.957 259.457,112.427 224.125,121.819 228.072,117.065 "
     id="polyline3628"
     style="fill:#a41f35"
     transform="matrix(0.71844052,0,0,0.71844052,11.999682,1.6430931e-5)" />
  <polygon
     points="276.062,104.638 304.409,97.196 300.227,101.603 272.285,108.992 "
     transform="matrix(0.71844052,0,0,0.71844052,11.999682,1.6430931e-5)"
     id="polygon3630"
     style="fill:#a41f35" />
  <path
     d="m 125.64332,73.053929 c -2.94417,9.64937 -10.99861,17.59173 -17.99047,17.74763 -6.98971,0.15375 -10.27298,-7.5465 -7.32738,-17.19515 2.94561,-9.64723 11.00005,-17.59246 17.99191,-17.746925 6.99186,-0.151591 10.27154,7.545785 7.32594,17.194445 M 143.1783,48.685137 c -3.6971,-8.020669 -11.07405,-12.916123 -20.81107,-12.709931 -0.72563,0.01437 -2.79904,-0.02299 -2.79904,-0.02299 -19.64432,2.454193 -31.25145,11.717765 -40.72408,24.709325 0,0 6.27773,-3.13743 10.10845,-4.291964 -3.9155,5.465892 -6.99904,11.739322 -8.81885,18.450272 -3.34362,12.30401 -1.60787,23.16684 3.80414,30.134991 0.83123,-0.66743 3.38888,-2.45922 5.44793,-3.45211 3.32279,-1.773831 7.85543,-3.344341 11.78458,-3.760311 0,0 -1.9793,1.95344 -2.38235,6.799321 1.69408,-3.3817 3.81779,-5.326521 6.46381,-7.254101 4.11595,-0.37646 8.10114,0.0302 11.29173,0.43538 1.42754,0.1832 3.93346,0.76298 6.66641,1.69049 5.9451,-7.26056 14.76898,-20.23057 17.80727,-36.18211 1.09777,-5.758297 -1.86436,-10.063193 -1.86436,-10.063193 l 4.02543,-4.483069 z"
     id="path3632"
     style="fill:#c3cace" />
  <path
     d="m 127.04931,73.510849 c -3.18413,10.43176 -11.71777,18.73621 -19.42304,18.90433 -3.22796,0.0704 -5.97743,-1.35067 -7.74192,-4.001 -2.44701,-3.67985 -2.79976,-9.24489 -0.96271,-15.26111 3.18485,-10.4332 11.71777,-18.736213 19.42448,-18.906484 3.22651,-0.07041 5.97599,1.350669 7.74048,4.000996 2.44916,3.681288 2.79976,9.244888 0.96271,15.263268 M 142.09058,49.89571 c -0.69114,-1.610744 -1.53028,-3.107974 -2.53897,-4.460079 -3.91047,-5.256829 -9.99495,-8.067369 -17.1384,-7.917933 -0.73065,0.01365 -2.02816,-0.0467 -2.02816,-0.0467 -3.31273,0.508656 -19.62276,2.037498 -35.42127,18.347534 0,0 7.57883,-3.472941 13.23439,-5.090151 -1.28457,0.790285 -4.54844,2.669725 -6.31509,4.249576 -4.69501,5.876842 -8.26565,12.699872 -10.32327,20.275832 -3.03828,11.18325 -1.84783,21.53741 3.261,28.408581 0.10561,0.13937 0.21769,0.27157 0.32473,0.40735 1.16603,-0.81615 2.81917,-1.88016 4.24096,-2.56627 3.32422,-1.773111 7.85543,-3.346491 11.78314,-3.761751 0,0 -1.97786,1.95487 -2.38091,6.800761 1.69193,-3.3817 3.81779,-5.326521 6.46381,-7.254101 4.11595,-0.3779 8.10257,0.0302 11.29388,0.43538 1.42539,0.1832 3.93131,0.76298 6.66426,1.69049 5.94509,-7.26056 14.76898,-20.23057 17.80727,-36.18211 1.09777,-5.7583 -1.86436,-10.06104 -1.86436,-10.06104 l 2.93699,-3.27537 z"
     id="path3634"
     style="fill:#ffffff" />
  <path
     d="m 105.34953,163.43015 c -3.18628,-0.7012 -7.23973,-4.45792 -7.23973,-4.45792 -0.89086,0.81902 -10.4023,10.21335 -20.19104,14.79125 1.43113,1.15884 2.5871,2.02169 2.5871,2.02169 1.25368,0.64301 2.28751,1.22566 3.1712,1.75731 2.94775,-0.63367 4.79199,-1.60212 4.72374,-1.62511 -1.52812,-0.12645 -2.92908,-0.89303 -3.631,-1.40168 0,0 10.70476,-1.14879 13.44418,-4.52402 -1.91105,0.12932 -4.97017,-0.38149 -5.73531,-1.14807 0,0 0.009,0.0266 0.0144,0.0453 0.009,0.0259 0.006,0.0187 0,0 -0.001,-0.0108 -0.005,-0.0187 -0.0144,-0.0453 3.30123,-0.48351 11.54965,-3.14605 12.87086,-5.41345"
     id="path3636"
     style="fill:#a41f35" />
  <path
     d="m 92.49375,168.8903 c 0.008,0.0187 0.009,0.0259 0,0"
     id="path3638"
     style="fill:#a41f35" />
  <path
     d="m 94.95657,9.2678994 0.26654,0.188949 c -0.11351,-0.07615 -0.15375,-0.22559 -0.26654,-0.188949"
     id="path3640"
     style="fill:#0e0f17" />
  <path
     d="m 73.0348,17.592469 c 0.11854,-0.05388 0.18966,-0.08621 0.18966,-0.08621 -0.0273,-0.01581 -0.092,0.01796 -0.18966,0.08621"
     id="path3642"
     style="fill:#0e0f17" />
  <path
     d="m 47.195365,180.80276 c 0.532364,-0.44687 1.740781,-1.34995 2.724326,-1.67181 0.165242,1.52381 0.525899,2.00804 0.716286,2.96285 -0.907391,-0.66959 -0.957682,-0.71629 -1.625831,-0.85998 -0.811838,0.52518 -1.528123,1.62512 -1.721384,2.19915 -0.08047,-1.13729 -0.35922,-1.87369 -0.0934,-2.63021"
     id="path3644"
     style="fill:#c3cace" />
  <path
     d="m 49.428278,183.86547 c 1.01372,0.39155 2.020255,2.9413 1.836334,3.66836 -0.795314,1.30972 -1.357134,2.08994 -1.166029,4.01896 -1.421075,-1.63158 -2.339961,-3.88246 -1.658161,-6.03921 0.30893,-0.57117 0.586966,-1.13945 0.987856,-1.64811"
     id="path3646"
     style="fill:#ffcf1b" />
  <path
     d="m 52.723765,179.49879 c -0.583374,-1.10927 -0.753644,-3.06846 -0.525899,-4.50031 0.959118,-0.84992 2.180467,-1.74509 3.838628,-2.44485 0.744304,-0.21554 1.97643,0.38149 1.97643,0.38149 -0.22128,1.64523 -0.01149,3.14102 0.332638,4.65406 -0.852789,-0.84992 -1.516628,-1.53316 -2.83353,-1.75515 -0.88871,0.58984 -2.148855,2.16394 -2.788267,3.66476"
     id="path3648"
     style="fill:#c3cace" />
  <path
     d="m 56.0523,178.26954 c 1.112146,1.0949 1.872256,3.86305 1.617209,5.5442 -1.844237,1.85286 -1.832023,3.358 -1.807596,5.74394 -1.645229,-1.9635 -2.453474,-4.45793 -2.203457,-7.09748 0.510093,-1.48214 0.874342,-3.32925 2.393844,-4.19066"
     id="path3650"
     style="fill:#ffcf1b" />
  <path
     d="m 60.495136,170.85451 c 1.521654,-1.12938 4.294114,-2.63955 4.294114,-2.63955 3.75314,1.309 8.46036,4.79991 10.66166,8.30446 2.13593,2.42114 7.63415,4.07212 9.4166,7.70024 0.14297,1.81119 -0.72275,5.47308 -1.9441,5.47308 -0.56541,0.19829 -0.91745,-0.35562 -2.1388,-0.44543 -1.22278,-0.0869 -2.5598,0.53236 -2.5598,0.53236 -1.80041,-3.27321 3.16904,-4.03548 1.31403,-7.12477 -4.13463,0.15518 -7.57739,-2.64745 -9.31458,-6.03418 -0.90452,-0.0682 -0.33336,2.60578 -2.81701,2.6532 -0.38221,-3.67626 -1.99583,-6.46453 -4.30633,-7.29433 -1.13442,0.96918 -2.454193,2.09641 -3.003082,3.47294 0.363531,-1.54608 -0.546015,-3.2804 0.397298,-4.59802"
     id="path3652"
     style="fill:#c3cace" />
  <path
     d="m 63.44074,174.73769 c 1.07838,1.13226 2.00876,3.67554 1.72282,5.3962 -2.18118,2.02816 -2.48436,5.01687 -2.56268,5.66778 -1.865067,-3.02176 -2.878786,-7.5271 0.10921,-10.64298 0.16883,-0.25504 0.41095,-0.40807 0.73065,-0.421"
     id="path3654"
     style="fill:#ffcf1b" />
  <path
     d="m 78.4619,191.66486 c 1.06688,-0.79675 3.18269,-0.0977 3.56921,0 -0.80034,2.84646 -3.24951,4.46152 -5.60599,5.09734 1.19836,-1.16747 1.94841,-4.74027 2.03678,-5.09734"
     id="path3656"
     style="fill:#ffcf1b" />
  <path
     d="m 113.58573,152.34749 c 1.95847,-0.51153 4.56928,-0.76586 4.56928,-0.76586 2.54975,2.10144 3.7596,4.77547 4.3322,6.18649 -0.0632,1.27667 0,2.99662 -0.63223,5.26617 -0.4986,1.78389 -2.47143,4.18779 -2.85867,4.12672 0.72275,-3.04978 -0.53093,-6.45519 -1.54609,-8.08245 -1.01444,-1.62655 -2.22429,-2.32847 -3.11731,-2.74229 -1.59207,1.05467 -3.53329,3.85012 -4.05344,6.16422 0.0797,-3.75098 0.8571,-7.26344 3.30626,-10.153"
     id="path3658"
     style="fill:#c3cace" />
  <path
     d="m 114.47301,159.01533 c 1.92039,2.14167 3.25238,5.79926 1.87225,8.57172 -0.48279,1.38659 -0.23924,4.59945 0.26151,6.60821 -3.32566,-2.0885 -5.4271,-6.03993 -4.85163,-10.11636 0.2766,-1.98218 1.53459,-3.94639 2.71787,-5.06357"
     id="path3660"
     style="fill:#ffcf1b" />
  <path
     d="m 126.8582,153.19453 c 0.34701,-1.42539 0.96127,-4.62963 2.92836,-6.19799 0.47561,-0.0711 3.1712,-0.42316 5.19002,-0.31252 4.38392,4.85594 4.36955,11.32622 4.25604,12.0698 -0.11495,0.73712 -0.11495,3.24304 -1.51663,4.55922 0,0 0,-2.73941 -0.31611,-4.26825 -0.31971,-1.52812 -2.30476,-6.76555 -5.48098,-7.70959 -2.88957,2.33637 -3.94927,6.11753 -4.50247,9.10696 -1.013,-2.37014 -0.90595,-5.82368 -0.55823,-7.24763"
     id="path3662"
     style="fill:#c3cace" />
  <path
     d="m 132.16317,154.48269 c 1.44119,0.55392 3.97513,4.92491 3.56777,8.57315 -1.01372,2.32703 -1.61505,6.02413 -1.26374,8.52645 -3.98303,-3.45857 -5.43069,-7.85686 -4.40763,-12.68119 0.34629,-1.51375 1.0985,-3.15898 2.1036,-4.41841"
     id="path3664"
     style="fill:#ffcf1b" />
  <path
     d="m 137.98469,187.56831 c 1.96134,-1.41389 5.731,-0.15302 5.17636,1.3205 -2.65607,3.3975 -6.81297,5.14619 -11.05105,5.31574 2.38666,-1.51016 4.27688,-4.47014 5.87469,-6.63624"
     id="path3666"
     style="fill:#ffcf1b" />
  <path
     d="m 138.98188,180.27255 c 2.0023,-0.65522 3.87887,-0.99001 5.8086,0.4246 1.03383,-0.003 1.75084,-0.27588 2.4197,-1.42323 0.67103,-1.14663 1.91034,-3.34362 1.91034,-3.34362 0.39729,3.19706 -0.95697,9.55597 -4.3947,10.32111 -1.59494,-1.61864 -4.61167,-1.62439 -6.09166,-1.1337 -0.55104,0.18033 -1.309,0.73712 -1.92614,0.61283 -1.34923,-2.72863 0.76514,-4.86312 2.27386,-5.45799"
     id="path3668"
     style="fill:#c3cace" />
  <path
     d="m 146.12678,145.90954 c -2.42259,2.23148 -4.14181,5.8711 -4.09727,9.94178 0.0172,1.80329 0.82333,5.30281 2.94273,6.6348 -2.01666,-3.55484 0.62505,-8.66655 1.45197,-9.81102 0.87075,-1.20411 2.38666,-2.62159 3.1439,-2.8048 0.82548,0.63798 3.96651,4.59515 4.04984,7.61691 0.54099,-3.73445 -0.18823,-7.12406 -2.33205,-9.98417 -0.92248,-0.89302 -4.52043,-1.5935 -5.15912,-1.5935"
     id="path3670"
     style="fill:#c3cace" />
  <path
     d="m 149.43879,152.86476 c 3.36086,3.32423 3.95932,10.05386 1.32624,14.42342 -0.48495,0.69904 -0.69761,1.54105 -1.45197,2.09138 0,-3.1985 -1.42826,-6.02916 -1.62583,-6.15991 -1.90243,-1.61146 -1.07838,-5.26617 -0.66959,-6.53206 0.40951,-1.2659 1.51807,-3.00165 2.42115,-3.82283"
     id="path3672"
     style="fill:#ffcf1b" />
  <polygon
     points="209.867,47.682 212.785,49.599 215.169,43.959 195.679,47.151 193.086,53.287 199.168,49.432 200.733,49.176 196.352,59.546 190.533,63.23 205.729,60.739 202.891,58.929 207.485,48.071 "
     transform="matrix(0.71844052,0,0,0.71844052,11.999682,1.6430931e-5)"
     id="polygon3674"
     style="fill:#ffffff" />
  <polygon
     points="194.47,61.732 197.024,60.114 202.1,48.098 198.865,48.629 194.908,51.133 196.273,47.903 213.798,45.035 212.403,48.34 210.051,46.798 206.89,47.313 201.842,59.259 203.42,60.268 "
     transform="matrix(0.71844052,0,0,0.71844052,11.999682,1.6430931e-5)"
     id="polygon3676"
     style="fill:#ffffff" />
  <path
     d="m 178.81869,32.281704 -2.9571,1.890217 -1.74222,0.284502 0.94834,-2.240816 3.59796,-0.591276 0.58121,0.383647 -0.42819,0.273726 z m -10.40014,-1.028089 1.98792,1.30397 -3.33643,7.898535 -4.17989,2.64889 14.61523,-2.393844 1.86148,-4.408351 -4.37027,2.769588 -3.03757,0.498598 1.22997,-2.911839 2.30045,-0.379337 1.75156,1.149505 2.23147,-5.275509 1.29032,0.847042 1.71277,-4.047694 -14.05701,2.300446 z"
     id="path3678"
     style="fill:#ffffff" />
  <polygon
     points="224.288,49.041 228.387,48.367 231.507,46.371 229.621,50.842 227.752,49.619 223.765,50.272 221.278,56.156 227.181,55.191 231.136,52.682 229.772,55.912 213.96,58.502 216.514,56.879 221.533,44.999 219.994,43.984 235.916,41.375 234.522,44.678 232.171,43.134 226.383,44.083 "
     transform="matrix(0.71844052,0,0,0.71844052,11.999682,1.6430931e-5)"
     id="polygon3680"
     style="fill:#ffffff" />
  <polygon
     points="254.937,49.867 249.119,53.556 264.315,51.068 261.478,49.259 266.12,38.27 272.014,34.57 260.896,36.389 253.191,43.143 250.512,38.089 240.31,39.762 243.079,41.579 238.431,52.574 232.615,56.257 245.694,54.117 242.857,52.309 246.132,44.554 249.333,50.681 257.723,43.268 "
     transform="matrix(0.71844052,0,0,0.71844052,11.999682,1.6430931e-5)"
     id="polygon3682"
     style="fill:#ffffff" />
  <polygon
     points="242.58,40.243 250.05,39.018 252.945,44.481 261.27,37.18 268.033,36.073 265.447,37.698 260.426,49.585 262.006,50.591 253.054,52.058 255.608,50.439 259.941,40.187 249.583,49.336 246.053,42.583 241.806,52.634 243.386,53.64 236.546,54.761 239.106,53.143 244.128,41.26 "
     transform="matrix(0.71844052,0,0,0.71844052,11.999682,1.6430931e-5)"
     id="polygon3684"
     style="fill:#ffffff" />
  <polygon
     points="309.561,37.971 303.385,41.805 299.553,42.393 304.219,31.976 310.152,28.325 295.044,30.64 297.709,32.495 292.754,43.554 286.899,47.187 306.801,44.141 "
     transform="matrix(0.71844052,0,0,0.71844052,11.999682,1.6430931e-5)"
     id="polygon3686"
     style="fill:#ffffff" />
  <polygon
     points="293.418,44.135 298.762,32.201 297.25,31.153 306.168,29.787 303.556,31.392 298.151,43.459 303.681,42.612 307.667,40.135 306.217,43.376 290.84,45.736 "
     transform="matrix(0.71844052,0,0,0.71844052,11.999682,1.6430931e-5)"
     id="polygon3688"
     style="fill:#ffffff" />
  <path
     d="m 249.63322,20.661647 -2.99518,1.875848 -1.71635,0.262231 1.01084,-2.260214 3.57209,-0.546733 0.56685,0.392268 -0.43825,0.2766 z m -10.24999,-1.168903 1.91536,1.33127 -3.55987,7.946671 -4.20647,2.612249 14.54626,-2.230757 1.98793,-4.429905 -4.43637,2.751628 -3.00883,0.461957 1.31331,-2.933393 2.28392,-0.349162 1.70055,1.18399 2.37445,-5.29778 1.25008,0.874342 1.8234,-4.064937 -13.98372,2.143827 z"
     id="path3690"
     style="fill:#ffffff" />
  <polygon
     points="322.806,32.803 326.895,32.174 330.036,30.208 328.025,34.695 326.21,33.433 322.249,34.039 319.605,39.947 325.487,39.05 329.472,36.575 328.02,39.813 312.292,42.225 314.87,40.625 320.215,28.694 318.705,27.643 334.564,25.215 333.074,28.53 330.792,26.942 325.033,27.828 "
     transform="matrix(0.71844052,0,0,0.71844052,11.999682,1.6430931e-5)"
     id="polygon3692"
     style="fill:#ffffff" />
  <path
     d="m 211.22395,33.595731 1.18256,-2.640987 1.45484,-0.224872 c 5.63976,-0.862847 9.09474,-3.613037 8.78581,-5.640476 -0.24499,-1.59422 -2.55478,-2.214234 -6.17931,-1.657443 l -8.27931,1.265174 1.91465,1.334863 -3.55629,7.944515 -4.20862,2.612249 10.85061,-1.661752 -1.96494,-1.331271 z"
     id="path3694"
     style="fill:#ffffff" />
  <polygon
     points="194.47,61.732 197.024,60.114 202.1,48.098 198.865,48.629 194.908,51.133 196.273,47.903 213.798,45.035 212.403,48.34 210.051,46.798 206.89,47.313 201.842,59.259 203.42,60.268 "
     transform="matrix(0.71844052,0,0,0.71844052,11.999682,1.6430931e-5)"
     id="polygon3696"
     style="fill:#c3cace" />
  <polygon
     points="224.288,49.041 228.387,48.367 231.507,46.371 229.621,50.842 227.752,49.619 223.765,50.272 221.278,56.156 227.181,55.191 231.136,52.682 229.772,55.912 213.96,58.502 216.514,56.879 221.533,44.999 219.994,43.984 235.916,41.375 234.522,44.678 232.171,43.134 226.383,44.083 "
     transform="matrix(0.71844052,0,0,0.71844052,11.999682,1.6430931e-5)"
     id="polygon3698"
     style="fill:#c3cace" />
  <polygon
     points="242.58,40.243 250.05,39.018 252.945,44.481 261.27,37.18 268.033,36.073 265.447,37.698 260.426,49.585 262.006,50.591 253.054,52.058 255.608,50.439 259.941,40.187 249.583,49.336 246.053,42.583 241.806,52.634 243.386,53.64 236.546,54.761 239.106,53.143 244.128,41.26 "
     transform="matrix(0.71844052,0,0,0.71844052,11.999682,1.6430931e-5)"
     id="polygon3700"
     style="fill:#c3cace" />
  <path
     d="m 211.99125,30.408729 -1.52453,3.403253 1.10783,0.750052 -6.40561,0.980671 1.85285,-1.150942 3.83791,-8.569558 -1.08341,-0.755081 6.78208,-1.038865 c 3.83288,-0.586248 5.35238,0.252173 5.48889,1.15166 0.2299,1.505133 -2.80695,4.115946 -8.27931,4.955084 l -1.7767,0.273726 z"
     id="path3702"
     style="fill:#c3cace" />
  <polygon
     points="293.418,44.135 298.762,32.201 297.25,31.153 306.168,29.787 303.556,31.392 298.151,43.459 303.681,42.612 307.667,40.135 306.217,43.376 290.84,45.736 "
     transform="matrix(0.71844052,0,0,0.71844052,11.999682,1.6430931e-5)"
     id="polygon3704"
     style="fill:#c3cace" />
  <polygon
     points="322.806,32.803 326.895,32.174 330.036,30.208 328.025,34.695 326.21,33.433 322.249,34.039 319.605,39.947 325.487,39.05 329.472,36.575 328.02,39.813 312.292,42.225 314.87,40.625 320.215,28.694 318.705,27.643 334.564,25.215 333.074,28.53 330.792,26.942 325.033,27.828 "
     transform="matrix(0.71844052,0,0,0.71844052,11.999682,1.6430931e-5)"
     id="polygon3706"
     style="fill:#c3cace" />
  <path
     d="m 217.53617,26.453714 c -0.42603,0.951934 -2.01594,1.969964 -3.39966,2.184059 0,0 -0.39011,0.05891 -0.74143,0.113514 l 1.34636,-3.0038 c 0.26366,-0.03951 1.45053,-0.224153 1.45053,-0.224153 0.64588,-0.09699 1.16675,-0.0022 1.36001,0.251454 0.14871,0.198289 0.0733,0.4792 -0.0158,0.678926 m -3.20999,-1.254397 -1.93692,4.319264 1.83921,-0.28091 c 1.61074,-0.24858 3.34362,-1.38659 3.85874,-2.534658 0.22272,-0.496442 0.20332,-0.954807 -0.0567,-1.29463 -0.33551,-0.444715 -1.0403,-0.616422 -1.92973,-0.481355 l -1.77455,0.272289 z"
     id="path3708"
     style="fill:#ffffff" />
  <path
     d="m 217.53617,26.453714 c -0.42603,0.951934 -2.01594,1.972119 -3.39966,2.183341 0,0 -0.39011,0.05963 -0.74143,0.11495 l 1.34636,-3.003799 c 0.26366,-0.03952 1.45053,-0.226309 1.45053,-0.226309 0.64588,-0.09483 1.16675,-7.19e-4 1.36001,0.253609 0.14871,0.197571 0.0733,0.478482 -0.0158,0.678208"
     id="path3710"
     style="fill:#0e0f17" />
  <path
     d="m 205.02166,108.42706 c -1.90531,-0.44974 2.57776,-2.22932 4.2194,-6.04424 2.94848,0.11855 6.03202,0.34414 7.3791,0.17674 -3.35512,3.83432 -9.62207,6.33305 -11.5985,5.8675"
     id="path3712"
     style="fill:#c3cace" />
  <path
     d="m 196.59794,106.39244 c -1.71707,-0.46124 2.25303,-2.81485 2.78539,-5.19073 1.86939,0.13578 3.48516,0.6897 5.31215,0.65019 -2.01666,2.34139 -6.56008,4.95077 -8.09754,4.54054"
     id="path3714"
     style="fill:#c3cace" />
  <polygon
     points="236.375,166.563 236.375,168.474 236.84,168.474 236.84,166.102 230.844,166.102 230.844,168.474 231.314,168.474 231.314,166.563 "
     transform="matrix(0.71844052,0,0,0.71844052,11.999682,1.6430931e-5)"
     id="polygon3716"
     style="fill:#ffffff" />
  <rect
     width="2.4448531"
     height="0.39011317"
     x="178.84024"
     y="124.01074"
     id="rect3718"
     style="fill:#ffffff" />
  <polygon
     points="231.994,167.241 231.994,168.475 232.465,168.475 232.465,167.7 233.075,167.7 233.075,171.542 232.226,171.542 232.226,172.087 233.544,172.087 233.544,167.241 "
     transform="matrix(0.71844052,0,0,0.71844052,11.999682,1.6430931e-5)"
     id="polygon3720"
     style="fill:#ffffff" />
  <polygon
     points="234.223,167.241 234.214,172.087 235.536,172.087 235.536,171.542 234.69,171.542 234.69,167.7 235.287,167.7 235.287,168.475 235.755,168.475 235.755,167.241 "
     transform="matrix(0.71844052,0,0,0.71844052,11.999682,1.6430931e-5)"
     id="polygon3722"
     style="fill:#ffffff" />
</svg>
