<?xml version="1.0" encoding="UTF-8" standalone="no"?>
<!-- Created with Inkscape (http://www.inkscape.org/) -->

<svg
   xmlns:dc="http://purl.org/dc/elements/1.1/"
   xmlns:cc="http://creativecommons.org/ns#"
   xmlns:rdf="http://www.w3.org/1999/02/22-rdf-syntax-ns#"
   xmlns:svg="http://www.w3.org/2000/svg"
   xmlns="http://www.w3.org/2000/svg"
   version="1.1"
   width="280"
   height="200"
   id="svg2"
   xml:space="preserve"><metadata
     id="metadata8"><rdf:RDF><cc:Work
         rdf:about=""><dc:format>image/svg+xml</dc:format><dc:type
           rdf:resource="http://purl.org/dc/dcmitype/StillImage" /><dc:title></dc:title></cc:Work></rdf:RDF></metadata><defs
     id="defs6" /><g
     transform="matrix(1.25,0,0,-1.25,-20.79721,221.18101)"
     id="g10"><g
       transform="matrix(0.08300649,0,0,0.08300649,50.022145,16.474321)"
       id="g12"><path
         d="m 2.59766,5.66797 1927.56004,0 0,1927.56003 -1927.56004,0 0,-1927.56003 z"
         id="path14"
         style="fill:#ffffff;fill-opacity:1;fill-rule:evenodd;stroke:none" /><path
         d="m 483.313,1417.87 -150.094,-379.19 232.586,0 67.269,85.88 141.098,0 c 0,0 -145.52,-384.185 -216.684,-553.99 -6.636,-15.832 -12.66,-29.941 -17.832,-41.535 C 515.023,473.602 487.344,411.441 392.375,415.121 L 309.398,203.762 952.02,193.57 l 66.3,214.207 c -36.429,6.754 -67.269,19.817 -81.593,40.793 -22.493,32.93 -0.547,66.227 5.089,81.614 10.356,28.183 234.614,561.026 234.614,561.026 l 132.61,-5.11 20.4,-81.6 224.41,0 158.11,413.12 -1228.647,0.25"
         id="path16"
         style="fill:#231f20;fill-opacity:1;fill-rule:evenodd;stroke:none" /><path
         d="m 522.926,581.781 c 0.027,-0.031 0.058,-0.093 0.121,-0.121 l 3.086,7.563 -0.012,0 -3.195,-7.442"
         id="path18"
         style="fill:#ffffff;fill-opacity:1;fill-rule:evenodd;stroke:none" /><path
         d="m 526.121,589.223 0.012,0 1.543,3.672 -1.555,-3.672"
         id="path20"
         style="fill:#ffffff;fill-opacity:1;fill-rule:evenodd;stroke:none" /><path
         d="m 529.305,596.844 8.425,20.347 C 421.41,704.336 346.641,808.035 306.027,875.543 313.93,854.41 323.164,832.809 334.223,810.691 382.184,714.914 466.457,641.727 529.305,596.844"
         id="path22"
         style="fill:#ffffff;fill-opacity:1;fill-rule:evenodd;stroke:none" /><path
         d="m 1620.98,1435.73 c -0.35,3.42 -0.79,6.91 -1.4,10.51 -12.79,77.87 -88.59,164.99 -197.81,227.39 -94.73,54.13 -353.07,166.07 -706.348,37.78 -240.238,-82.3 -364.227,-257.32 -435.457,-407.92 -22.125,-49.54 -119.699,-257.97 17.707,-529.646 55.84,-110.391 153.082,-191.317 221.832,-238.414 3.926,8.906 8.219,18.742 12.801,29.523 -0.117,0.063 -0.219,0.121 -0.321,0.211 l -1.89,-4.273 c -65.668,45.57 -155.797,121.957 -207.856,224.882 -4.394,8.571 -8.519,17.266 -12.449,26.055 -45.75,100.442 -57.644,190.332 -55.629,261.802 0.207,29.07 2.844,55.02 7.711,76.07 13.344,74.43 39.078,123.64 48.231,139.46 1.976,4.35 3.949,8.66 6.058,13.09 16.625,44.21 115.781,273.78 415,381.2 469.13,168.46 836.51,-77.73 863.42,-241.43 0.36,-2.16 0.54,-4.2 0.8,-6.29 1.58,-12.99 1.32,-24.96 -1.18,-35.39 l 26.01,0 c 1.7,10.23 2.18,21.93 0.77,35.39"
         id="path24"
         style="fill:#1f98dd;fill-opacity:1;fill-rule:evenodd;stroke:none" /><path
         d="m 1594.58,1442.02 c -26.91,163.7 -394.29,409.89 -863.42,241.43 -13.844,-4.96 -27.113,-10.27 -40.14,-15.73 -0.754,-0.33 -1.54,-0.67 -2.317,-0.96 -324.207,-131.56 -413.488,-442.63 -426.832,-517.07 -3.957,-22.08 -6.902,-47.62 -7.711,-76.06 -2.015,-71.47 9.879,-161.36 55.629,-261.802 3.902,-8.609 8.024,-17.301 12.449,-26.055 52.684,-102.601 142.188,-179.312 207.856,-224.882 l 1.867,4.273 c 0,0 0,0 0.023,0 l 4.629,10.699 -0.05,0 3.246,7.563 c -63.176,44.648 -147.868,117.469 -196.082,212.773 -11.118,22.02 -20.399,43.508 -28.352,64.551 -48.348,127.934 273.996,539.21 336.035,546.43 16.629,1.95 31.711,2.43 44.824,10.57 18.145,11.32 28.364,22.82 26.571,37.85 -0.571,4.81 -4.11,11.1 -6.453,15.14 49.437,-3.94 105.847,-22.58 214.285,-76.88 94.283,-47.32 133.593,-31.06 149.823,-9 13.33,18.23 12.31,43.16 3.81,61.85 17.15,-10.57 34.35,-22.53 50.58,-35.4 54.61,-43.38 89.44,-60.08 112.67,-54.04 7.67,2 17.86,7.51 23,22.39 2.24,6.58 6.13,14.84 11.73,16.84 9.77,3.52 29.64,-7.79 48.88,-18.78 30.86,-17.57 69.37,-39.54 105.59,-24.19 21.07,9.01 23.92,29.59 25.39,40.86 4.7,-2.47 12.56,-7.28 25.58,-16.87 27.35,-20.13 62.63,-23.63 85.69,-8.43 21.01,13.88 26.53,40.59 21.2,72.93"
         id="path26"
         style="fill:#231f20;fill-opacity:1;fill-rule:evenodd;stroke:none" /><path
         d="m 594.199,987.668 -304.402,0 13.629,34.092 c -12.867,46.92 -16.934,98.04 -11.867,150.72 -17.778,-74.95 -24.532,-183.796 23.816,-311.73 40.828,-67.18 115.984,-170.371 232.902,-257.062 l -8.468,-20.262 c 0,-0.031 0.043,-0.031 0.043,-0.031 l -1.688,-3.887 -1.539,-3.676 0.258,-0.152 c 69.523,164.218 196.933,497.43 196.933,497.43 l -72.039,0 -67.578,-85.442"
         id="path28"
         style="fill:#669fad;fill-opacity:1;fill-rule:evenodd;stroke:none" /><path
         d="m 1563.34,1436.89 c -23.05,100.77 -228.11,325.29 -657.719,263.4 -12.598,-1.79 -45.258,-10.24 -57.754,-12.66 97.887,-0.28 191.703,-23.41 191.703,-23.41 -71.566,12.03 -168.39,15.09 -261.644,-7.77 -366.516,-89.89 -513.547,-449.56 -457.379,-623.42 110.301,289.64 199.617,386.65 321.918,402.56 13.191,1.72 29.027,7.34 36.515,9.74 8.102,2.62 10.665,11.64 10.965,12.42 4.496,38.57 -53.402,42.77 -53.402,42.77 l 31.242,2.4 c 70.754,4.83 127.266,-5.44 276.028,-79.85 66.437,-33.35 100.737,-31 110.557,-17.62 7.4,10.1 3.96,29.9 -0.29,37.85 -33.93,63.45 -158.174,90.54 -158.174,90.54 0,0 126.124,-6.35 254.244,-98.96 64.79,-46.83 75.32,-50.61 87.54,-45.43 12.17,5.18 18.87,33.71 32.23,38.51 23.08,8.34 48.34,-6.06 75.16,-21.33 27.12,-15.45 55.22,-31.45 77.37,-21.99 5.02,2.15 6.29,5.96 7.77,17.12 1.16,8.81 2.91,22.1 15.23,27.08 12.59,5.1 27.55,-1.06 59.33,-24.48 16.26,-11.94 37.18,-14.64 49.65,-6.36 12.81,8.45 11.91,25.83 8.91,38.89"
         id="path30"
         style="fill:#669fad;fill-opacity:1;fill-rule:evenodd;stroke:none" /><path
         d="M 458.355,1005.71 C 522.594,898.074 613.082,861.289 613.082,861.289 552.434,915.258 509.625,966.211 480.262,1012.08 l -21.907,-6.37"
         id="path32"
         style="fill:#ffffff;fill-opacity:1;fill-rule:evenodd;stroke:none" /><path
         d="M 385.398,1003.48 C 409.574,938.957 461.93,857.043 574.203,794.195 484.941,862.543 438.516,939.582 416.461,1005.63 l -31.063,-2.15"
         id="path34"
         style="fill:#ffffff;fill-opacity:1;fill-rule:evenodd;stroke:none" /><path
         d="m 483.957,1019.14 c 20.512,-50.031 59.047,-105.585 129.125,-157.851 -52.355,52.293 -82.687,105.309 -99.066,154.561 l -30.059,3.29"
         id="path36"
         style="fill:#231f20;fill-opacity:1;fill-rule:evenodd;stroke:none" /><path
         d="m 1202.15,1450.5 c 0,0 48.58,77.57 146.08,10.69 -12.2,28.08 -109.37,128.6 -292.32,152.02 0,0 210.44,-6.25 322.52,-144.48 20.26,52 118.52,-4.94 118.52,-4.94 -5.95,34.68 -55.56,124.34 -188.66,173.19 0,0 195.41,-53.34 230.14,-197.5 5.14,-21.21 -17.5,-22.46 -37.41,-6.18 -18.08,14.8 -43.19,25.41 -65.9,25 -38.24,-0.66 -14.79,-36.44 -44.42,-43.63 -24.59,-5.94 -70.78,49.16 -132.61,35.56 -38.15,-8.33 -12.8,-60.26 -77.01,-12.9 -63.81,47.13 -139.01,105.16 -345.791,118.87 0,0 216.191,11.96 366.861,-105.7"
         id="path38"
         style="fill:#ffffff;fill-opacity:1;fill-rule:evenodd;stroke:none" /><path
         d="m 991.238,1460.83 c -2.976,8.04 1.36,19.45 15.672,3.64 8.64,-9.5 13.45,-20.08 6.62,-29.56 -27.401,-38.04 -175.702,81.26 -277.624,83.59 0,0 72.055,0.27 206.59,-61.5 37.984,-17.45 55.484,-14.2 48.742,3.83"
         id="path40"
         style="fill:#ffffff;fill-opacity:1;fill-rule:evenodd;stroke:none" /><path
         d="m 1034.9,1664.95 c 1.55,-0.27 3.17,-0.48 4.67,-0.73 0,0 -1.62,0.27 -4.67,0.73"
         id="path42"
         style="fill:#ffffff;fill-opacity:1;fill-rule:evenodd;stroke:none" /><path
         d="m 1034.9,1664.95 c -71.095,11.39 -165.724,13.9 -256.974,-8.5 -350.613,-85.99 -500.352,-418.84 -463.52,-599.78 l 14.141,-65.682 C 383.336,834.484 576.074,736.492 576.074,736.492 427.383,837.258 380.543,935.25 357.559,1001.8 l -7.621,24.24 c 0,0 -72.661,214.44 149.167,444.46 222.04,230.27 497.051,200.02 535.795,194.45"
         id="path44"
         style="fill:#ffffff;fill-opacity:1;fill-rule:evenodd;stroke:none" /><path
         d="m 1620.98,1435.73 c 1.41,-13.46 0.93,-25.16 -0.77,-35.39 l 67.77,0 -147.46,-377.26 -195.18,0 -12.91,85.43 -169.04,0 c 0,0 -231.277,-563.459 -241.687,-591.49 -5.668,-15.301 -18.933,-51.04 3.668,-83.793 14.422,-20.887 38.942,-34.278 75.559,-40.977 l -73.004,-183.246 -603.031,0 77.281,193.586 c 95.469,-3.641 123.258,58.223 148.035,113.355 5.18,11.567 11.25,25.61 17.91,41.36 71.531,168.961 217.797,551.205 217.797,551.205 l 89.43,286.42 -34.399,40.8 c -54.152,22.84 -90.992,32.32 -124.597,35.01 2.343,-4.04 13.64,-18.47 -0.676,-35.01 l -246.723,0 -179.156,-448.062 304.402,0 67.578,85.442 72.039,0 c 0,0 -127.41,-333.212 -196.933,-497.43 -1.563,-3.703 -18.985,-43.809 -19.727,-45.481 C 488.781,467.027 469.82,428.18 376.855,435.555 l -104.839,-261.934 680.582,0 99.242,249.059 c -121.985,3.879 -106.52,54.449 -96.195,82.234 10.312,27.824 232.125,568.196 232.125,568.196 l 113.5,0 12.9,-85.442 251.2,0 175.12,448.062 -119.51,0"
         id="path46"
         style="fill:#1f98dd;fill-opacity:1;fill-rule:evenodd;stroke:none" /><path
         d="m 877.242,1400.34 -383.664,0 -150.875,-377.26 233.785,0 67.617,85.43 141.813,0 91.324,291.83"
         id="path48"
         style="fill:#231f20;fill-opacity:1;fill-rule:evenodd;stroke:none" /><path
         d="m 521.727,1359.91 -118.516,-296.37 153.062,0 c 16.707,21.1 67.598,85.42 67.598,85.42 l 221.574,0 c 0,0 -165.988,-433.929 -240.308,-609.737 -6.485,-15.266 -12.239,-28.625 -17.153,-39.535 C 564.762,447.93 530.621,372.086 430.656,362.969 l -45.304,-113.504 514.398,0 46.586,116.941 c -23.684,10.367 -41.941,25.012 -55.148,44.168 -34.399,49.848 -14.723,102.828 -8.266,120.254 10.457,28.242 252.578,618.132 252.578,618.132 l 232.54,0 12.9,-85.42 131.21,0 115.84,296.37 -166.96,0 -56.57,-32.15 -78.92,32.15 -50.63,0 -38.71,-20.24 -59.54,20.24 -654.933,0"
         id="path50"
         style="fill:#ffffff;fill-opacity:1;fill-rule:evenodd;stroke:none" /><path
         d="m 1594.2,1400.34 c -3.19,-13.19 -9.85,-24.01 -20.82,-31.25 -23.06,-15.2 -58.34,-11.7 -85.69,8.43 -13.02,9.59 -20.88,14.4 -25.58,16.87 -1.47,-11.27 -4.32,-31.85 -25.39,-40.86 -36.22,-15.35 -74.73,6.62 -105.59,24.19 -19.24,10.99 -39.11,22.3 -48.88,18.78 -5.6,-2 -9.49,-10.26 -11.73,-16.84 -5.14,-14.88 -15.33,-20.39 -23,-22.39 -21.13,-5.48 -52.49,6.11 -102.24,46.82 l -59.85,42.57 c 0,0 10.18,-31.21 2.61,-46.32 -2.92,-5.83 -4.12,-10.71 -7.58,-15.48 -16.23,-22.06 -55.54,-38.32 -149.823,9 -4.516,2.25 -8.778,4.36 -13.121,6.48 -29.067,14.33 -54.317,26.02 -76.567,35.39 l -1.386,-35.39 c 0,0 44.679,-19.51 71.57,-33.96 157.517,-84.58 183.147,-6.72 183.147,-6.72 l 52.65,0.19 c 0,0 47.37,-47.69 103.06,-32.36 18.39,5.07 32.78,16.8 41.06,34.05 6.41,-3.29 13.79,-7.45 19.14,-10.49 33.01,-18.83 82.84,-47.22 133.33,-25.8 12.93,5.51 21.89,13.53 28.22,22.14 36.56,-22.73 81.97,-24.66 113.42,-3.96 12.34,8.17 29.78,25.13 35.05,56.91 l -26.01,0"
         id="path52"
         style="fill:#1f98dd;fill-opacity:1;fill-rule:evenodd;stroke:none" /><path
         d="m 1051.73,168.246 -15.59,0 0,60.395 -22.61,0 0,12.968 60.82,0 0,-12.968 -22.62,0 0,-60.395"
         id="path54"
         style="fill:#231f20;fill-opacity:1;fill-rule:evenodd;stroke:none" /><path
         d="m 1155.45,168.277 -14.6,0 0,61.379 -0.22,0 -13.97,-61.379 -15.32,0 -13.64,61.379 -0.21,0 0,-61.379 -14.63,0 0,73.332 22.86,0 13.54,-57.828 0.22,0 13.32,57.828 22.65,0 0,-73.332"
         id="path56"
         style="fill:#231f20;fill-opacity:1;fill-rule:evenodd;stroke:none" /></g></g></svg>