<?xml version="1.0" encoding="UTF-8" standalone="no"?>
<!-- Created with Inkscape (http://www.inkscape.org/) -->

<svg
   xmlns:dc="http://purl.org/dc/elements/1.1/"
   xmlns:cc="http://creativecommons.org/ns#"
   xmlns:rdf="http://www.w3.org/1999/02/22-rdf-syntax-ns#"
   xmlns:svg="http://www.w3.org/2000/svg"
   xmlns="http://www.w3.org/2000/svg"
   version="1.1"
   width="280"
   height="200"
   id="svg2"
   xml:space="preserve"><metadata
     id="metadata8"><rdf:RDF><cc:Work
         rdf:about=""><dc:format>image/svg+xml</dc:format><dc:type
           rdf:resource="http://purl.org/dc/dcmitype/StillImage" /><dc:title></dc:title></cc:Work></rdf:RDF></metadata><defs
     id="defs6" /><g
     transform="matrix(1.25,0,0,-1.25,-20.79721,221.18101)"
     id="g10"><g
       transform="matrix(0.08300649,0,0,0.08300649,48.422145,16.47432)"
       id="g12"><path
         d="m 2.59766,5.66797 1927.56004,0 0,1927.56003 -1927.56004,0 0,-1927.56003 z"
         id="path14"
         style="fill:#ffffff;fill-opacity:1;fill-rule:evenodd;stroke:none" /><path
         d="m 531.461,1718.96 22.98,1.67 c 24.821,1.79 40.813,-24.1 40.813,-48.82 0,-11.73 -3.348,-19.18 -10.203,-28.53 -4.946,-6.82 -15.067,-13.47 -15.305,-15.85 C 568.906,1619.08 783.41,262.938 783.41,262.938 L 772.027,245.93 c 0,0 -135.644,867.06 -141.062,872.45 L 743.191,236.215 713.859,223.262 533.453,1623.87 c 0,0 -30.098,12.03 -33.851,37.17 l -1.352,9.05 c -2.691,18.03 16.633,44.56 33.211,48.87"
         id="path16"
         style="fill:#231f20;fill-opacity:1;fill-rule:evenodd;stroke:none" /><path
         d="m 601.188,1635.84 c 3.027,0 3.191,-3.65 5.742,-5.07 11.156,-6.66 16.738,-13.48 24.23,-24.09 5.738,-8.25 15.301,-10.78 15.301,-20.93 0,-3.16 -3.82,-4.43 -7.016,-4.43 -12.754,0 -14.504,14.42 -24.867,21.55 -11,7.61 -25.504,9.99 -25.504,23.45 0,5.87 6.219,9.52 12.114,9.52"
         id="path18"
         style="fill:#231f20;fill-opacity:1;fill-rule:evenodd;stroke:none" /><path
         d="m 934.098,1593.52 c 38.941,7 96.442,-5.07 126.202,-33.02 13.04,-12.25 23.91,-40.94 31.88,-80.56 2.55,-12.69 20.01,20.32 51.8,31.7 l 33.22,11.88 c 12.14,4.35 50.35,7.8 50.48,0 0,0 1.32,-54.85 1.32,-83.2 l 2.66,-27.73 5.32,-42.27 c 3.73,-29.73 24.91,-83.57 33.2,-112.25 13.72,-47.07 45.81,-100.03 61.11,-139.33 8.3,-21.55 12.57,-39.51 20.23,-61.22 3.98,-11.41 7.67,-23.65 7.67,-35.85 0,-5.23 -67.81,2.64 -73.06,2.64 -3.83,0 -55.79,-4.86 -75.72,-10.56 -35.71,-10.3 -61.83,-26.629 -94.99,-43.59 -25.5,-12.988 -38.1,-21.668 -66.79,-21.668 -15.62,0 -20.83,17.438 -22.32,32.957 0,0 -7.2,61.751 -7.2,75.211 0,0 -42.508,-1.97 -116.505,-39.71 -19.476,-9.93 -30.925,-20.286 -52.925,-20.286 -4.782,0 -5.578,5.236 -9.563,7.606 -5.582,3.33 -10.738,6.06 -11.476,12.68 0,0 -2.305,20.15 -2.555,22.82 0,0 7.715,127.18 -19.523,209.05 -14.79,44.48 -48.032,96.41 -73.063,136.03 -17.059,26.95 -60.457,111.52 -70.652,137.99 -5.903,15.53 -13.035,31.72 -15.309,39.93 -2.152,7.8 5.262,15.85 13.391,15.85 14.031,0 21.215,-5.47 35.07,-7.6 0,0 35.453,-5.82 38.168,-5.89 l 64.426,0 c 14.984,0 79.941,15.07 89.984,18.56 8.289,2.86 33.156,7.61 33.156,7.61 6.551,1.5 12.364,2.22 12.364,2.22"
         id="path20"
         style="fill:#231f20;fill-opacity:1;fill-rule:evenodd;stroke:none" /><path
         d="m 916.824,1575.03 9.301,2.64 c 22.582,6.6 59.902,-1.17 65.75,-1.59 14.615,-1.05 28.535,-7.28 43.365,-17.74 2.55,-1.75 19.72,-19.61 27.05,-28.88 7.31,-9.24 11.95,-29.71 13.95,-64.05 l -1.33,-25.09 c -53.14,15.85 -109.734,7.71 -127.668,7.71 l 2.793,-5.07 c 6.055,-6.66 33.211,-144.61 38.52,-240.36 0.527,-9.49 57.735,14.36 102.295,-5.94 0,-3.17 -1.89,-12.28 0.66,-13.87 l -0.16,-20.03 0,-25.36 2.55,0 0,-22.82 2.55,0 0,-22.82 2.55,0 0,-11.42 c 0,0 -86.54,-3.86 -106.457,-9.14 -32.133,-8.53 -57.863,-18.94 -87.672,-33.68 -11.48,-5.71 -40.527,-18.03 -40.527,-18.03 0,0 41.191,64.91 91.828,97.62 0,0 -5.59,16.25 -10.844,13.95 -31.164,-13.64 -80.785,-76.65 -95.59,-96.84 l -3.246,56.26 -2.551,38.05 c 0,0 -2.324,51.29 -2.836,56.24 -2.386,23.02 -15.019,56.6 -15.019,56.6 8.609,-7.77 32.367,-31.16 38.266,-30.85 l 12.746,14.36 c -5.575,2.7 -41.414,36.28 -51.934,51.02 -19.289,26.94 -45.301,72.08 -48.484,78.58 -14.992,29.79 -53.352,88.91 -62.446,106.97 -5.894,11.73 -21.25,45.57 -21.25,45.57 24.454,-26.25 78.379,-60.75 83.696,-62.73 8.949,-3.34 16.242,16.42 16.242,16.42 -14.981,2.37 -76.93,48.95 -94.629,68.75 -9.559,10.79 -17.594,26.34 -17.594,26.34 0,0 12.285,-2.56 24.231,-5.07 0,0 56.468,-11.36 110.933,-1.45 9.918,1.8 81.887,15.56 100.961,25.75"
         id="path22"
         style="fill:#ee293d;fill-opacity:1;fill-rule:evenodd;stroke:none" /><path
         d="m 1195.79,1514.28 18.6,0 c -0.32,-12.28 0.62,-74.09 2.66,-85.85 6.48,-37.34 11.2,-93.36 19.26,-118.2 11.64,-35.8 35.36,-102.39 45.17,-124.14 6.81,-15.09 14.43,-30.66 21.91,-45.56 11.96,-23.94 33.88,-101.69 33.88,-101.69 0,0 -37.04,5.28 -60.45,5.28 -21.25,0 -61.84,-7.77 -74.38,-11.89 -14.54,-4.76 -39.99,-15.44 -62.63,-26.69 -31.72,-15.688 -50.29,-24.813 -80.34,-41.837 l 0,6.34 c -0.51,12.004 28.99,38.477 39.35,47.667 5.58,4.91 11.87,23.06 13.28,30.37 5.98,31.04 0,73.96 0,73.96 18.34,9.03 28.64,13.13 46.5,23.12 7.01,3.8 29.22,11.22 29.22,13.86 0,2.38 -14.13,31.85 -18.59,47.54 -4.31,15.38 -8.19,27.71 -13.28,42.92 -3.2,9.51 -14.62,73.96 -14.62,121.51 l -0.67,9.9 c -17.93,0.66 -26.94,-18.21 -30.82,-11.47 -15.67,27.32 -7.17,64.52 -9.69,74.2 l 1.99,13.87 c 11.96,9.24 19.47,29.96 32.55,35.66 9.72,4.12 31.22,19.15 61.1,21.13"
         id="path24"
         style="fill:#ee293d;fill-opacity:1;fill-rule:evenodd;stroke:none" /><path
         d="m 840.805,988.039 c 9.093,0 15.945,-8.078 15.945,-17.117 0,-3.484 -2.23,-6.973 -5.738,-6.973 -9.887,0 -18.496,7.289 -18.496,17.121 0,4.278 3.992,6.969 8.289,6.969"
         id="path26"
         style="fill:#ee293d;fill-opacity:1;fill-rule:evenodd;stroke:none" /><path
         d="m 1345.91,980.066 c 5.56,-0.457 5.7,-6.351 5.31,-11.882 l -1.33,-19.153 c -2.37,-34.246 -5.97,-97.726 9.3,-186.215 6.15,-35.625 25.17,-112.91 35.87,-138.668 8.97,-21.609 23.03,-49.71 38.52,-75.277 11.76,-19.394 33.22,-51.508 35.87,-54.808 7.34,-9.122 -30.45,-10.598 -43.84,-15.188 -35.07,-12.363 -59.43,-12.707 -91,-32.355 -5.74,-3.489 -3.03,-0.872 -0.66,-7.266 11.29,-30.375 22.57,-41.399 20.59,-66.031 l -1.33,-16.508 c -0.88,-11.039 -25.03,-41.047 -43.83,-47.551 -7.5,-2.531 -27.9,-5.937 -27.9,-5.937 -8.42,-1.797 -30.59,-0.223 -39.19,0 l -45.08,1.187 c -16.85,0.441 -23.45,3.016 -35.29,6.074 l -15.73,4.063 c -18.2,4.703 -25.32,2.996 -44.05,4.519 0,0 -45.14,3.965 -48.49,3.965 -3.35,0 -35.86,-1.316 -35.86,-1.316 -17.68,-0.656 -43.185,-11.891 -46.954,-12.242 -7.461,-0.68 -13.648,5.293 -14.664,12.679 l -1.488,10.778 c -0.368,2.679 1.996,15.855 1.996,15.855 0.336,2.676 4.593,22.82 4.593,22.82 1.586,0.157 3.821,17.746 3.821,17.746 0.574,2.645 2.551,20.282 2.551,20.282 0.339,2.672 4.972,75.843 4.972,75.843 0.18,2.684 0.129,104.204 0.129,104.204 0.02,13.332 -0.945,37.097 -1.457,39.746 0,0 -4.812,31.75 -8.637,44.902 -5.734,19.656 -9.269,29.031 -16.601,48.207 -11.481,29.477 -16.024,45.117 -25.59,75.07 -14.188,44.059 -20.906,68.887 -40.813,111.579 -7.953,17.062 -13.968,23.996 -20.406,43.734 -2.058,6.332 3.067,7.996 9.762,7.996 5.098,0 8.894,-1.02 13.195,-3.555 11.16,-6.652 18.813,-9.672 30.614,-15.211 29.968,-14.265 48.062,-21.089 79.062,-32.964 33.875,-12.981 46.815,-17.579 82.365,-28.825 13.55,-4.285 34.49,-8.07 50.48,-11.89 l 1.07,0.14 0,20.285 c 0,2.692 2.55,25.36 2.55,25.36 1.02,10.097 8.29,14.578 16.57,20.285 16.59,11.57 27.42,16.758 45.92,25.355 34.85,16.211 100.03,24.727 131.16,22.149 l 23.92,-1.981"
         id="path28"
         style="fill:#231f20;fill-opacity:1;fill-rule:evenodd;stroke:none" /><path
         d="m 1335.28,962.238 c 0.96,-2.054 -5.31,-36.98 -5.31,-36.98 -5.99,-36.317 3.32,-127.442 9.3,-163.754 3.25,-19.746 10.6,-52.09 14.61,-70 2.66,-11.883 3.71,-22.82 9.3,-35.656 5.73,-13.313 5.97,-21.793 11.3,-34.473 13.02,-31.016 21.68,-48.18 38.25,-77.336 9.73,-17.277 16.21,-26.207 28.06,-43.113 -12.52,-5.543 -11.85,-2.903 -27.13,-6.863 0,0 -33.21,-6.606 -49.82,-11.231 -10.52,-2.922 -16.87,-7.234 -27.23,-10.559 -9.25,-3.015 -13.29,-7.265 -18.25,-10.652 -3.67,9.328 -3.75,17.707 -8.93,27.902 -8.69,17.082 -20.64,22.524 -20.64,42.176 0,4.278 0.6,11.36 3.32,14.531 6.53,7.286 3.12,3.872 11.95,7.918 8.64,3.961 7.31,3.961 21.26,7.266 0,0 -6.65,13.207 -14.62,30.375 -7.23,15.574 -7.86,23.305 -13.28,39.625 -6.06,18.387 -8.88,36.231 -12.62,57.449 -1.05,5.918 -6.64,69.328 -6.64,69.328 -1.34,12.555 -5.74,51.645 -3.99,58.774 l -7.97,0 -11.95,33.015 c -10.63,15.856 -28.54,18.336 -35.87,22.458 -38.74,21.707 -23.92,9.238 -63.77,29.046 l -11.95,9.246 c 19.93,26.418 89.55,47.09 99.63,48.868 15.78,2.789 39.85,4.625 73.06,3.965 l 19.93,-1.325"
         id="path30"
         style="fill:#ee293d;fill-opacity:1;fill-rule:evenodd;stroke:none" /><path
         d="m 891.582,929.223 c 6.375,-4.754 51.539,-26.555 60.445,-30.375 33.875,-14.528 45.828,-16.508 68.413,-25.098 33.32,-12.664 67.08,-19.809 102.95,-28.387 12.74,-3.054 68.42,-15.847 114.92,-22.449 l 11.19,-2.48 2.75,-19.977 c 5.98,-56.785 -6.64,-58.109 -12.62,-61.41 -6.17,-3.41 -19.93,-6.606 -25.84,-6.098 l -44.64,0 c -25.17,-0.508 -42.44,2.793 -42.44,2.793 l -1.32,0 c 0.66,-11.879 0.53,-21.285 3.98,-38.953 4.75,-24.25 17.43,-75.598 25.24,-99.051 3.35,-10.304 11.96,-81.883 5.98,-117.543 l -0.36,-4.625 c 13.86,-6.808 22.82,-10.203 38.25,-12.679 23.88,-3.828 62.48,-2.536 62.48,-2.536 13.88,3.993 27.16,4.653 33.17,10.141 11.26,-18.699 16.89,-29.5 24.54,-47.086 9.25,-21.082 17.58,-32.57 12.44,-54.972 -3.14,-13.708 -15.16,-21.684 -28.38,-33.516 -6.64,-5.942 -45.83,-21.133 -25.18,-7.692 -91.05,-0.89 -95.04,-5.511 -154.82,14.958 -10.07,3.441 -28.56,0.664 -45.17,3.3 l -15.27,0 c -14.62,1.977 -62.923,-0.668 -69.138,-3.047 l 0,6.344 c 12.018,25.09 21.418,29.903 35.928,50.188 8.13,11.414 20.19,18.75 20.19,32.859 0,10.938 -2.93,25.25 -7.65,27.258 l -24.5,-35.02 c -35.944,-51.539 -14.62,34.993 -19.925,118.2 -1.273,1.105 -1.996,28.394 -1.996,28.394 5.311,-7.926 6.641,-14.527 9.971,-18.496 2.67,-3.191 7.96,-9.898 15.94,-16.504 l 11.29,11.883 c -1.89,8.508 -12.89,28.348 -19.27,42.926 -7.96,18.222 -11.18,23.742 -16.603,42.918 -7.011,24.57 -11.129,41.789 -19.257,66.039 -3.508,10.769 -24.45,61.254 -31.305,81.695 -3.504,10.625 -4.145,17.277 -7.652,27.898 -2.071,6.176 -2.067,17.059 -6.211,21.809 0,0 17.8,-22.789 26.566,-35 11.477,-16.164 24.391,-26.09 35.871,-42.258 9.721,-13.633 38.531,-36.324 38.531,-36.324 9.29,-0.656 23.85,8.09 23.85,8.09 -21.37,19.176 -38.47,36.164 -57.736,58.613 -11.797,13.746 -42.504,50.84 -53.133,66.027 -7.297,10.43 -15.278,18.493 -22.582,29.719 -6.242,9.586 -14.614,23.11 -23.25,36.317 l -8.637,13.207"
         id="path32"
         style="fill:#ee293d;fill-opacity:1;fill-rule:evenodd;stroke:none" /><path
         d="m 948.516,292.996 3.828,0 c 0.636,-2.695 2.551,-4.117 2.551,-6.969 0,-16.168 -10.36,-23.304 -15.305,-38.672 -3.985,-12.523 -3.985,-29.167 -17.219,-29.167 -5.898,0 -9.558,6.183 -9.558,12.046 0,8.086 6.691,11.094 10.199,18.387 8.609,17.91 14.343,27.734 25.504,44.375"
         id="path34"
         style="fill:#ee293d;fill-opacity:1;fill-rule:evenodd;stroke:none" /><path
         d="m 546.734,1700.59 c -12.394,0.7 -22.16,-5.28 -27.113,-16.6 -5.328,-12.21 -2,-24.95 8.637,-33.02 -4.758,11.71 -4.375,21.07 1.328,32.36 4.273,8.45 8.699,12.91 17.148,17.26"
         id="path36"
         style="fill:#ffffff;fill-opacity:1;fill-rule:evenodd;stroke:none" /><path
         d="m 832.082,976.227 c 9.406,0 16.5,-8.364 16.5,-17.711 0,-3.614 -2.312,-7.223 -5.937,-7.223 -10.235,0 -19.145,7.551 -19.145,17.715 0,4.43 4.129,7.219 8.582,7.219"
         id="path38"
         style="fill:#ffffff;fill-opacity:1;fill-rule:evenodd;stroke:none" /><path
         d="m 1885.18,1035.25 c -34.21,38.86 -84.29,3.64 -84.29,3.64 -79.39,43.71 -219.86,-35.22 -276.05,-140.859 -56.19,-105.64 -117.26,-120.222 -117.26,-120.222 25.65,52.211 13.43,146.933 10.99,156.652 -2.44,9.719 -10.99,6.066 25.65,36.422 41.33,34.237 8.55,71.647 8.55,71.647 -42.74,44.93 -145.66,-28.23 -179.55,-48.268 -31.98,-18.907 -147.8,-121.731 -147.8,-121.731 -60.26,-79.129 -164.897,-103.222 -164.897,-103.222 14.661,43.714 111.157,86.214 111.157,86.214 136.8,75.286 205.6,148.747 265.06,242.867 46.41,73.47 29.92,129.93 17.1,149.97 -23.77,37.12 -89.78,25.5 -89.78,25.5 -16.9,-4.33 -181.39,-45.54 -326.134,-289.618 -59.086,-99.64 -82.449,-133.574 -122.758,-167.574 -40.309,-34.004 -93.441,-52.824 -93.441,-52.824 59.851,92.289 130.086,162.113 153.296,193.683 23.204,31.571 -17.101,99.573 -69.625,74.073 -52.527,-25.5 -147.796,-138.432 -178.332,-195.502 -30.535,-57.071 -68.402,-70.434 -68.402,-70.434 25.649,66.793 95.27,143.297 114.816,185.793 19.54,42.496 -18.324,76.503 -58.632,76.503 -40.309,0 -78.172,-71.644 -119.7,-109.292 -41.531,-37.645 -29.316,-19.43 -29.316,-19.43 51.301,99.571 139.246,211.302 139.246,211.302 301.707,-55.86 365.82,69.6 385.981,100.78 10.991,17 13.431,35.22 3.664,54.65 -9.77,19.42 -23.207,12.14 -102.598,-19.43 -79.395,-31.58 -229.641,10.93 -317.586,23.07 -37.863,6.07 -60.652,13.12 -139.246,15.79 -107.488,3.64 -173.449,-30.36 -189.324,-43.72 -24.242,-20.39 -94.059,-102 -20.77,-94.72 111.926,11.13 201.543,-1.21 201.543,-1.21 C 414.527,1131.18 285.047,923.531 256.957,859.168 228.867,794.801 164.125,718.305 154.355,711.016 144.586,703.734 139.699,687.945 89.6172,698.875 39.5352,709.801 35.8711,694.02 35.8711,694.02 26.3203,680.637 15.1094,616.301 165.352,590.801 c 31.929,-5.422 62.769,-3.469 91.605,14.57 100.117,62.637 174.672,235.578 174.672,235.578 -3.668,-24.289 12.215,-27.926 12.215,-27.926 C 398.652,725.59 432.848,677.016 432.848,677.016 501.254,588.367 597.75,657.59 597.75,657.59 c 92.832,-59.496 216.199,29.144 216.199,29.144 54.969,-94.718 272.391,19.426 272.391,19.426 125.8,-144.512 388.42,-15.781 388.42,-15.781 69.63,-109.289 207.65,-35.223 207.65,-35.223 56.19,-20.64 86.73,-19.426 119.71,-3.64 46.64,22.32 48.75,59.453 35.42,87.429 -10.99,23.075 -52.53,12.145 -52.53,12.145 0,0 64.74,134.793 86.73,174.867 21.99,40.074 47.64,70.426 13.44,109.293 z m -661.1,98.29 c 0,0 -6.07,-15.09 -23.28,-37.23 -20.14,-25.9 -71.87,-75.48 -116.41,-100.638 0,0 61.75,88.558 139.69,137.868 z m 66.55,-343.286 c -35.73,-25.5 -64.13,-36.43 -100.77,-14.574 0,0 106.26,100.183 125.5,111.113 0,0 10.99,-71.039 -24.73,-96.539 z m 449.19,129.633 c -15.15,-27.129 -65.96,-122.645 -70.84,-131.149 -4.89,-8.5 -35.43,-52.211 -76.96,-40.074 -20.76,6.07 -7.32,23.066 8.56,53.43 24.95,47.715 86.42,114.867 98.94,122.648 19.53,12.141 52.51,17.004 40.3,-4.855"
         id="path40"
         style="fill:#ffffff;fill-opacity:1;fill-rule:evenodd;stroke:none" /><path
         d="m 190.387,707.375 c 20.25,18.117 53.133,72.863 53.133,72.863 80.617,131.145 139.25,262.292 227.195,378.872 -91.61,27.93 -161.809,14.19 -249.754,14.19 15.531,36.04 56.41,73.31 93.207,79.8 160.531,28.31 305.566,-17.49 466.801,-39.35 43.976,0 92.832,3.64 129.476,10.93 21.985,7.29 41.977,21.13 63.961,28.42 0,-36.43 -22.465,-63.09 -51.781,-84.95 C 820.023,1102.58 697.371,1126.97 596.391,1137.27 552.418,1078.98 498.395,1012.36 461.75,946.789 403.121,830.215 359.809,715.473 257.207,635.328 235.223,613.469 179.531,609.586 143.285,619.879 111.77,628.828 47.4805,640.48 60.3008,678.23 96.9453,649.09 153.746,674.59 190.387,707.375"
         id="path42"
         style="fill:#1b458f;fill-opacity:1;fill-rule:evenodd;stroke:none" /><g
         transform="scale(1.00293,0.99707)"
         id="g44"><path
           d="m 572.861,1273.34 c 87.688,-12.18 237.495,-54.81 316.658,-23.14 79.159,31.67 92.557,38.97 102.298,19.49 9.743,-19.49 7.307,-37.76 -3.653,-54.81 -20.102,-31.27 -84.028,-157.11 -384.853,-101.08 0,0 -87.689,-112.06 -138.84,-211.92 0,0 -12.179,-18.268 29.231,19.487 41.406,37.759 79.159,109.613 119.35,109.613 40.191,0 77.943,-34.106 58.461,-76.727 -19.49,-42.621 -88.907,-119.35 -114.481,-186.339 0,0 37.757,13.402 68.203,70.64 30.446,57.238 125.437,170.506 177.811,196.076 52.37,25.58 92.557,-42.626 69.421,-74.289 -23.143,-31.663 -93.172,-101.693 -152.849,-194.253 0,0 52.978,18.876 93.169,52.979 40.191,34.1 63.486,68.134 122.399,168.067 144.324,244.796 308.334,286.126 325.184,290.476 0,0 65.82,11.65 89.51,-25.58 12.79,-20.1 29.23,-76.73 -17.05,-150.42 -59.28,-94.39 -127.88,-168.067 -264.28,-243.573 0,0 -96.215,-42.625 -110.832,-86.468 0,0 104.322,24.164 164.412,103.526 0,0 115.48,103.126 147.37,122.088 33.8,20.097 136.41,93.467 179.03,48.407 0,0 32.68,-37.52 -8.53,-71.855 -36.53,-30.444 -28,-26.781 -25.57,-36.528 2.43,-9.748 14.61,-104.749 -10.96,-157.113 0,0 60.89,14.625 116.92,120.576 56.02,105.95 196.09,185.11 275.24,141.27 0,0 49.94,35.32 84.04,-3.65 34.1,-38.98 8.52,-69.42 -13.4,-109.612 -21.92,-40.192 -86.47,-175.381 -86.47,-175.381 0,0 41.41,10.961 52.37,-12.181 13.29,-28.058 11.19,-65.3 -35.32,-87.686 -32.88,-15.832 -63.33,-17.05 -119.35,3.651 0,0 -137.62,-74.284 -207.05,35.326 0,0 -261.85,-129.108 -387.29,15.828 0,0 -216.78,-114.48 -271.588,-19.483 0,0 -123.007,-88.901 -215.568,-29.23 0,0 -96.214,-69.426 -164.421,19.483 0,0 -34.095,48.717 10.964,136.407 0,0 -15.836,3.648 -12.179,28.008 0,0 -74.337,-173.449 -174.162,-236.27 -28.751,-18.092 -59.501,-20.051 -91.337,-14.613 -149.8038,25.575 -138.6256,90.1 -129.1027,103.522 0,0 3.6534,15.827 53.5891,4.869 49.9356,-10.961 54.8086,4.874 64.5496,12.177 9.741,7.31 74.294,84.031 102.301,148.587 28.008,64.553 157.111,272.808 169.29,287.428 0,0 -89.356,12.38 -200.955,1.21 -73.075,-7.3 -3.462,74.54 20.709,95 15.829,13.4 81.597,47.5 188.771,43.85 78.365,-2.68 101.087,-9.75 138.84,-15.84"
           id="path46"
           style="fill:none;stroke:#1b458f;stroke-width:10.96179962;stroke-linecap:round;stroke-linejoin:miter;stroke-miterlimit:2.61310005;stroke-opacity:1;stroke-dasharray:none" /></g><g
         transform="scale(1.00293,0.99707)"
         id="g48"><path
           d="m 1081.22,998.597 c 0,0 61.57,88.823 139.28,138.273 0,0 -6.05,-15.13 -23.21,-37.34 -20.08,-25.97 -71.66,-75.7 -116.07,-100.933"
           id="path50"
           style="fill:none;stroke:#1b458f;stroke-width:10.96179962;stroke-linecap:butt;stroke-linejoin:round;stroke-miterlimit:2.61310005;stroke-opacity:1;stroke-dasharray:none" /></g><g
         transform="scale(1.00293,0.99707)"
         id="g52"><path
           d="m 1186.38,777.959 c 0,0 105.96,100.478 125.14,111.44 0,0 10.96,-71.248 -24.66,-96.823 -35.63,-25.575 -63.95,-36.537 -100.48,-14.617"
           id="path54"
           style="fill:none;stroke:#1b458f;stroke-width:10.96179962;stroke-linecap:butt;stroke-linejoin:round;stroke-miterlimit:2.61310005;stroke-opacity:1;stroke-dasharray:none" /></g><path
         d="m 1874.18,981.512 c 7,20.498 -3.66,23.678 -3.66,30.968 -21.98,21.86 -58.63,15.48 -65.96,-13.664 -43.97,51.004 -112.68,17.304 -141.08,1.824 -14.37,-7.839 -33.9,-24.593 -56.8,-45.538 -42.13,-38.532 -64.13,-90.164 -108.1,-141.168 -29.31,-29.145 -62.89,-45.95 -101.69,-63.754 -11.91,-5.465 -31.13,-7.227 -27.48,-0.91 24.73,42.808 39.39,103.824 32.06,154.828 -7.33,21.859 -10.08,28.234 -10.08,50.093 4.29,17.032 28.41,30.051 40.32,36.426 11.34,6.071 12.53,24.293 2.74,33.703 -26.56,25.5 -104.43,-25.504 -152.99,-55.558 -125.96,-77.973 -195.12,-210.383 -341.698,-224.957 -36.649,0 20.535,69.14 43.054,82.879 132.834,81.058 294.754,173.261 360.714,348.116 7.33,36.43 -12.9,79.03 -53.82,75.38 -79.81,-7.1 -182.3,-86.52 -235.44,-146.63 -73.911,-83.62 -127.938,-193.159 -200.622,-281.421 -36.265,-44.027 -89.781,-63.75 -141.082,-85.609 -7.328,0 -15.574,-8.196 -22.902,6.375 0,7.285 2.399,13.937 6.414,20.039 15.574,23.679 32.977,44.621 47.637,73.769 36.64,51 112.68,118.399 110.848,142.074 -0.797,10.27 -17.407,41.903 -32.063,34.613 C 741.883,962.387 690.582,889.527 639.277,809.379 624.621,780.238 544.945,698.688 536.676,751.09 c -7.328,46.453 76.035,137.527 112.679,203.101 14.661,29.141 -17.406,59.199 -46.722,44.625 -51.301,-43.714 -87.945,-106.863 -144.742,-132.968 -18.981,-8.723 -5.52,-25.332 6.414,-31.879 6.351,-3.492 14.457,-0.297 13.742,-2.731 -13.742,-46.449 -59.492,-122.824 -6.418,-156.648 35.73,-22.77 100.773,-20.039 122.762,18.215 73.285,-58.289 166.73,-16.395 228.109,29.144 5.875,4.356 2.109,-16.883 32.977,-37.344 63.214,-41.894 189.633,29.145 240.933,51.004 43.97,-72.859 126.22,-75 199.71,-70.129 25.24,1.672 42.46,6.071 49.17,7.891 10.07,2.731 27.75,8.094 43.36,13.059 45.8,14.574 69.62,23.675 98.02,38.25 6.52,3.343 13.74,-28.235 24.74,-39.164 25.91,-25.754 74.09,-34.028 110.84,-27.321 44.89,8.2 55.89,30.055 67.8,21.86 35.13,-24.184 93.44,-20.95 122.75,8.195 7.33,7.289 19.24,30.055 -0.91,40.984 -21.99,0 -32.98,-11.839 -54.97,-4.554 -7.33,7.289 -3.66,7.289 -3.66,14.574 36.64,87.43 103.52,191.254 120.92,242.258 z m -855.59,-47.223 c 30.37,55.344 62.77,109.691 97.18,141.891 34.41,32.2 111.34,106.68 149.81,116.74 38.47,10.06 12.15,-25.16 12.15,-26.17 0,-1 -77.94,-127.8 -170.06,-188.184 0,0 -74.91,-50.32 -90.09,-50.32 l 1.01,6.043 z m 263.79,-176.82 c -75.12,-38.254 -109.02,-3.645 -115.43,1.82 -6.41,5.465 -4.58,13.66 2.75,22.766 42.93,53.347 119.09,116.578 152.07,137.527 0,0 12.83,11.84 15.57,-8.199 2.75,-20.035 20.16,-115.664 -54.96,-153.914 z m 419.57,38.554 c -2.43,-9.71 -39.08,-65.57 -103.82,-70.433 -91.48,-6.867 13.44,133.578 13.44,133.578 0,0 52.52,88.648 107.48,100.793 54.97,12.144 52.53,-27.934 50.09,-34.004 -2.44,-6.07 -64.75,-120.219 -67.19,-129.934"
         id="path56"
         style="fill:#1b458f;fill-opacity:1;fill-rule:evenodd;stroke:none" /><path
         d="m 1739.82,919.887 c -15.15,-27.129 -65.96,-122.645 -70.84,-131.149 -4.89,-8.5 -35.43,-52.211 -76.96,-40.074 -20.76,6.07 -7.32,23.066 8.56,53.43 24.95,47.715 86.42,114.867 98.94,122.648 19.53,12.141 52.51,17.004 40.3,-4.855"
         id="path58"
         style="fill:#ffffff;fill-opacity:1;fill-rule:evenodd;stroke:none" /><g
         transform="scale(1.00293,0.99707)"
         id="g60"><path
           d="m 1734.74,922.59 c -15.11,-27.209 -65.77,-123.005 -70.64,-131.534 -4.87,-8.525 -35.32,-52.365 -76.73,-40.192 -20.7,6.088 -7.3,23.134 8.53,53.586 24.88,47.855 86.18,115.205 98.65,123.009 19.48,12.177 52.36,17.054 40.19,-4.869 z"
           id="path62"
           style="fill:none;stroke:#1b458f;stroke-width:10.96179962;stroke-linecap:butt;stroke-linejoin:round;stroke-miterlimit:2.61310005;stroke-opacity:1;stroke-dasharray:none" /></g></g></g></svg>