<?xml version="1.0" encoding="UTF-8" standalone="no"?>
<!-- Created with Inkscape (http://www.inkscape.org/) -->

<svg
   xmlns:ns="http://ns.adobe.com/SaveForWeb/1.0/"
   xmlns:dc="http://purl.org/dc/elements/1.1/"
   xmlns:cc="http://creativecommons.org/ns#"
   xmlns:rdf="http://www.w3.org/1999/02/22-rdf-syntax-ns#"
   xmlns:svg="http://www.w3.org/2000/svg"
   xmlns="http://www.w3.org/2000/svg"
   version="1.1"
   width="280"
   height="200"
   viewBox="0 0 280 200.00001"
   id="Layer_1"
   xml:space="preserve"><defs
     id="defs13" /><metadata
     id="metadata3"><ns:sfw><ns:slices /><ns:sliceSourceBounds
         bottomLeftOrigin="true"
         x="-97"
         y="-12.081"
         width="443.75"
         height="168.679" /></ns:sfw><rdf:RDF><cc:Work
         rdf:about=""><dc:format>image/svg+xml</dc:format><dc:type
           rdf:resource="http://purl.org/dc/dcmitype/StillImage" /><dc:title></dc:title></cc:Work></rdf:RDF></metadata><path
     d="m 88.2295,99.54088 c 9.57836,-4.18407 16.27439,-13.73657 16.27439,-24.85706 0,-14.97708 -12.1408,-27.117884 -27.11788,-27.117884 -1.00832,0 -2.00275,0.05931 -2.98267,0.16658 H 0 V 74.44404 h 13.040586 v 52.7927 H 0 v 26.71154 h 79.12122 c 0.53886,0.0309 1.07961,0.0511 1.62605,0.0511 15.32286,0 27.74382,-12.42223 27.74382,-27.74447 -6.3e-4,-12.72824 -8.57573,-23.44743 -20.26159,-26.71404 z M 47.56056,75.23341 c 0,-0.34831 0.28269,-0.63099 0.63099,-0.63099 h 10.49014 5.28451 2.91831 c 1.04554,0 1.89295,0.84742 1.89295,1.89296 v 11.75211 c 0,1.04555 -0.84741,1.89296 -1.89295,1.89296 H 63.9662 58.68169 48.19155 c -0.3483,0 -0.63099,-0.28268 -0.63099,-0.63099 V 75.23341 z m 22.16338,49.78668 c 0,1.20896 -0.88527,2.19078 -1.97751,2.19078 h -3.04892 -5.5205 -10.9577 c -0.36408,0 -0.65875,-0.32685 -0.65875,-0.73005 v -16.523 c 0,-0.40383 0.2953,-0.73005 0.65875,-0.73005 h 10.95834 5.52049 3.04892 c 1.09161,0 1.97751,0.98182 1.97751,2.19079 v 13.60153 z"
     id="path5" /><polygon
     points="251.25,42.348 251.25,29.348 251.25,0 177,0 177,42.348 196.75,42.348 196.75,126.598 177,126.598 177,168.679 270.75,168.679 270.75,126.598 251.25,126.598 "
     transform="matrix(0.63098592,0,0,0.63098592,0,47.565936)"
     id="polygon7"
     style="fill:#0088ce" /><path
     d="M 280,83.59397 V 74.28062 C 280,59.52691 268.13557,47.565936 253.49796,47.565936 h -52.52831 c -14.63762,0 -26.50204,11.960974 -26.50204,26.714684 v 53.00407 c 0,14.75435 11.86442,26.7147 26.50204,26.7147 h 52.52831 c 14.63761,0 26.50204,-11.96035 26.50204,-26.7147 v -35.8034 h -34.38873 -8.99155 v 18.92958 h 8.99155 v 13.10494 c 0,2.08415 -1.69546,3.77393 -3.78592,3.77393 h -29.1831 c -2.09045,0 -3.78591,-1.69041 -3.78591,-3.77393 V 78.37698 c 0,-2.08415 1.69546,-3.77456 3.78591,-3.77456 h 29.1831 c 2.09046,0 3.78592,1.69041 3.78592,3.77456 v 5.21699 H 280 z"
     id="path9"
     style="fill:#0088ce" /></svg>