<svg xmlns:dc="http://purl.org/dc/elements/1.1/" xmlns:cc="http://web.resource.org/cc/" xmlns:rdf="http://www.w3.org/1999/02/22-rdf-syntax-ns#" xmlns:svg="http://www.w3.org/2000/svg" xmlns:sodipodi="http://inkscape.sourceforge.net/DTD/sodipodi-0.dtd" xmlns:inkscape="http://www.inkscape.org/namespaces/inkscape" xmlns="http://www.w3.org/2000/svg" xmlns:xlink="http://www.w3.org/1999/xlink" version="1.1" inkscape:version="0.43" width="345.44" height="220.51" viewBox="138.022 203.082 345.439 220.512" overflow="visible" enable-background="new 138.022 203.082 345.439 220.512" xml:space="preserve"><path fill="#FFCC00" stroke="#000000" stroke-width="3.9375" d="M285.645 420.233c34.969-7.554 66.831-34.742 71.751-71.435 c0.634-4.729 0.786-9.499 0.56-14.262c-0.131-2.736 0.35-14.898-3.89-13.553c-10.184 3.232-21.255 4.781-31.698 1.69 c-10.36-3.072-18.808-10.532-24.153-19.802c-1.95-3.384-2.776-6.984-4.465-10.42c-2.172-4.423-10.271 0.5-10.271 0.5l-18.975 16.73 c0 0-2.578 4.47 1.74 4.435c5.219-0.039 10.67 0.45 15.4 2.856c6.444 3.28 15.47 11.73 10.1 19.46 c-4.263 6.129-12.515 8.858-18.659 12.65c-14.527 8.963-31.39 21.837-31.419 40.672c-0.028 18.15 15.3 32.14 33.18 31.88 C278.463 421.57 282.11 421 285.64 420.23"/><path fill="#FFCC00" stroke="#000000" stroke-width="3.9375" d="M416.053 403.092c2.883-0.816 5.652-2.106 8.056-3.908 c1.943-1.459 4.642-4.027 0.584-4.229c-5.303-0.261-10.764-0.675-15.326-3.722c-2.224-1.485-3.773-3.664-4.887-6.069 c-1.149-2.483-1.268-5.53-2.544-7.888c-1.177-2.17-25.475-6.391-28.808-6.562c-4.152-0.214-4.418 0.73-2.793 4.13 c2.942 6.15 7.05 11.72 11.67 16.71C390.508 400.73 403.55 406.63 416.05 403.09"/><path fill="#FFCC00" stroke="#000000" stroke-width="3.9375" d="M188.068 380.309c17.938-21.365 35.558-43.127 55.836-62.356 c10.304-9.771 21.021-19.099 32.138-27.936c5.534-4.399 11.15-8.702 16.954-12.74c3.993-2.779 14.291-11.455 14.602-7.78 s-0.889 21.8 6.72 30.794c5.634 6.66 14.17 9.96 22.81 9.47c16.357-0.929 31.554-14.882 29.229-32.041 c-0.375-2.77-2.696-7.236-2.047-9.973c0.786-3.303 6.81 2.69 7.56 3.506c6.702 7.18 11.64 16.14 19.74 21.94 c8.571 6.14 21.55 8.06 29.467-0.341c5.854-6.215 7.054-16.134 5.564-24.228c-3.438-18.689-20.939-31.495-36.41-40.29 c-20.99-11.934-43.839-17.987-67.663-20.93c-45.087-5.568-96.362-2.683-134.66 24.271c-14.191 9.989-26.661 22.744-35.497 37.73 c-4.354 7.388-7.799 15.328-10.007 23.621c-1.108 4.16-1.903 8.404-2.358 12.685c-0.412 3.87 1.6 2.98 4.16 1.32 c1.826-1.182 4.025-2.863 6.245-3.122c2.965-0.346-0.622 6.695-1.083 7.658c-4.067 8.487-4.183 28.662-3.32 29.3 s4.981-4.357 5.442-4.879c0.646-0.733 6.882-8.146 7.777-4.598c1.183 4.688-0.876 11.018-0.949 15.86 c-0.089 5.87 0.18 16.92 0.72 17.585s6.41-8.284 11.534-8.155c-0.043 13.77 1.15 41.06 2.08 41.27 S183.044 386.29 188.07 380.31"/><path fill="#FFCC00" stroke="#000000" stroke-width="3.9375" d="M463.664 393.885c14.389-10.668 18.642-28.271 17.707-45.382 c-0.545-9.999-2.11-20.14-6.636-29.173c-4.542-9.064-11.432-16.597-18.813-23.432c-3.274-3.032-6.971-7.426-10.959-9.483 c-3.01-1.552-68.547 61.594-68.547 61.594s-4.982 5.545-3.578 7.521s11.665-4.515 17.201-6.27s26.051-2.768 38.14 1.62 c10.466 3.8 20.95 11.42 25.73 21.74c2.79 6.02 2.81 12.69 3.11 19.183c0.06 1.299-0.393 5.71 2.1 5.07 C460.857 396.43 462.27 394.92 463.66 393.88"/></svg>