<?xml version="1.0" encoding="UTF-8" standalone="no"?>
<!-- Created with Inkscape (http://www.inkscape.org/) -->

<svg
   xmlns:dc="http://purl.org/dc/elements/1.1/"
   xmlns:cc="http://creativecommons.org/ns#"
   xmlns:rdf="http://www.w3.org/1999/02/22-rdf-syntax-ns#"
   xmlns:svg="http://www.w3.org/2000/svg"
   xmlns="http://www.w3.org/2000/svg"
   version="1.1"
   width="280"
   height="200"
   viewBox="138.022 203.082 279.99919 200.00182"
   id="svg2"
   xml:space="preserve"
   style="overflow:visible"><metadata
     id="metadata16"><rdf:RDF><cc:Work
         rdf:about=""><dc:format>image/svg+xml</dc:format><dc:type
           rdf:resource="http://purl.org/dc/dcmitype/StillImage" /><dc:title></dc:title></cc:Work></rdf:RDF></metadata><defs
     id="defs14" /><path
     d="m 257.67743,390.34942 c 28.34481,-6.12305 54.17118,-28.16082 58.15918,-57.90305 0.5139,-3.83318 0.63711,-7.6996 0.45392,-11.56034 -0.10618,-2.21772 0.2837,-12.07587 -3.15312,-10.98566 -8.25484,2.61977 -17.22866,3.87534 -25.69343,1.36987 -8.39751,-2.49007 -15.2452,-8.53692 -19.57769,-16.0509 -1.58061,-2.74297 -2.25015,-5.66102 -3.6192,-8.44614 -1.76055,-3.58515 -8.32536,0.40529 -8.32536,0.40529 l -15.38056,13.56083 c 0,0 -2.08965,3.62324 1.41039,3.59487 4.23037,-0.0316 8.64878,0.36476 12.48278,2.31499 5.22331,2.65867 12.53951,9.50798 8.18675,15.77369 -3.45546,4.96798 -10.14428,7.18002 -15.12442,10.2537 -11.77515,7.26514 -25.44378,17.70041 -25.46729,32.96749 -0.0227,14.71184 12.40172,26.05171 26.8947,25.84096 2.93183,-0.0519 5.88798,-0.5139 8.74929,-1.13804"
     id="path4"
     style="fill:#ffcc00;stroke:#000000;stroke-width:3.1916182" /><path
     d="m 363.3822,376.45544 c 2.33687,-0.66142 4.58134,-1.70706 6.52995,-3.16771 1.57493,-1.18262 3.76266,-3.26416 0.47337,-3.42789 -4.29845,-0.21156 -8.72497,-0.54714 -12.42279,-3.01695 -1.80271,-1.20369 -3.05828,-2.96992 -3.96126,-4.91934 -0.93134,-2.01265 -1.0278,-4.48245 -2.06209,-6.39378 -0.95404,-1.75893 -20.64926,-5.18035 -23.35089,-5.31895 -3.36548,-0.17347 -3.58109,0.59171 -2.26392,3.34765 2.3847,4.985 5.71452,9.49988 9.45935,13.54462 6.89227,7.43779 17.46372,12.22015 27.59585,9.35073"
     id="path6"
     style="fill:#ffcc00;stroke:#000000;stroke-width:3.1916182" /><path
     d="m 178.58447,357.98823 c 14.54,-17.31782 28.82223,-34.95744 45.25897,-50.54388 8.35211,-7.92008 17.03898,-15.48107 26.05008,-22.64408 4.4857,-3.56569 9.03786,-7.05357 13.7424,-10.32665 3.23661,-2.25258 11.58385,-9.28508 11.83594,-6.30624 0.25209,2.97885 -0.72059,17.67042 5.44703,24.96069 4.56675,5.39839 11.48577,8.07327 18.48909,7.67609 13.25849,-0.75302 25.57672,-12.0629 23.69215,-25.97146 -0.30397,-2.24528 -2.1853,-5.86528 -1.65924,-8.08381 0.63711,-2.67731 5.51998,2.18043 6.12791,2.84185 5.43243,5.81989 9.43503,13.0826 16.00064,17.7839 6.94739,4.9769 17.46778,6.53319 23.88506,-0.2764 4.74507,-5.03769 5.71776,-13.07773 4.51001,-19.63848 -2.78674,-15.14874 -16.97252,-25.5289 -29.51284,-32.65786 -17.01386,-9.67333 -35.53457,-14.57971 -54.84558,-16.96522 -36.54616,-4.51325 -78.10812,-2.17476 -109.15131,19.67334 -11.5028,8.09678 -21.6106,18.43559 -28.7728,30.58279 -3.52922,5.98849 -6.32163,12.42441 -8.11137,19.14647 -0.89811,3.37197 -1.54251,6.81203 -1.91132,10.28207 -0.33396,3.13691 1.29691,2.4155 3.37197,1.06996 1.4801,-0.9581 3.26254,-2.32066 5.06201,-2.5306 2.40334,-0.28046 -0.50418,5.42676 -0.87785,6.20734 -3.29659,6.87931 -3.39061,23.23255 -2.69109,23.74969 0.69952,0.51715 4.03745,-3.53165 4.41112,-3.95477 0.52363,-0.59414 5.57834,-6.6029 6.3038,-3.727 0.9589,3.79995 -0.71006,8.93086 -0.76923,12.85564 -0.0721,4.75804 0.1459,13.71484 0.58361,14.25387 0.43771,0.53903 5.19575,-6.71476 9.34911,-6.6102 -0.0349,11.16155 0.93215,33.28199 1.68598,33.45221 0.75383,0.17022 8.42344,-9.45124 12.49737,-14.29845"
     id="path8"
     style="fill:#ffcc00;stroke:#000000;stroke-width:3.1916182" /><path
     d="m 401.97423,368.99253 c 11.66329,-8.64716 15.11064,-22.91562 14.35276,-36.78528 -0.44176,-8.10488 -1.7103,-16.32487 -5.37894,-23.64675 -3.68161,-7.347 -9.26644,-13.45302 -15.24925,-18.99327 -2.65381,-2.45764 -5.65048,-6.01929 -8.88303,-7.68663 -2.43982,-1.258 -55.56212,49.92623 -55.56212,49.92623 0,0 -4.03826,4.49461 -2.90022,6.0963 1.13804,1.60168 9.45529,-3.65973 13.94261,-5.08228 4.48731,-1.42255 21.11615,-2.24365 30.91512,1.31313 8.48343,3.08016 16.98144,9.2567 20.85596,17.62178 2.26149,4.87963 2.2777,10.28613 2.52087,15.54916 0.0486,1.05293 -0.31855,4.62835 1.7022,4.10959 1.40877,-0.35908 2.55411,-1.58304 3.6808,-2.42604"
     id="path10"
     style="fill:#ffcc00;stroke:#000000;stroke-width:3.1916182" /></svg>