<?xml version="1.0" encoding="UTF-8" standalone="no"?>
<!-- Created with Inkscape (http://www.inkscape.org/) -->

<svg
   xmlns:dc="http://purl.org/dc/elements/1.1/"
   xmlns:cc="http://creativecommons.org/ns#"
   xmlns:rdf="http://www.w3.org/1999/02/22-rdf-syntax-ns#"
   xmlns:svg="http://www.w3.org/2000/svg"
   xmlns="http://www.w3.org/2000/svg"
   version="1.1"
   width="280"
   height="200"
   id="svg2"
   xml:space="preserve"><metadata
     id="metadata8"><rdf:RDF><cc:Work
         rdf:about=""><dc:format>image/svg+xml</dc:format><dc:type
           rdf:resource="http://purl.org/dc/dcmitype/StillImage" /><dc:title></dc:title></cc:Work></rdf:RDF></metadata><defs
     id="defs6"><clipPath
       id="clipPath16"><path
         d="M 0,792 1224,792 1224,0 0,0 0,792 z"
         id="path18" /></clipPath></defs><g
     transform="matrix(1.25,0,0,-1.25,-626.52681,660.34897)"
     id="g10"><g
       transform="matrix(0.83421565,0,0,0.83421565,101.66252,116.86011)"
       id="g12"><g
         clip-path="url(#clipPath16)"
         id="g14"><g
           transform="translate(575.9561,369.8242)"
           id="g20"><path
             d="m 0,0 c 0.4,0.674 1.147,1.26 2.109,1.67 l -11.489,0 0,-3.184 -0.01,0 -0.029,0 0,-0.278 0.61,0 C -8.799,-0.874 -5.107,-0.112 0,0"
             id="path22"
             style="fill:#ffffff;fill-opacity:1;fill-rule:nonzero;stroke:none" /></g><g
           transform="translate(602.582,370.1074)"
           id="g24"><path
             d="m 0,0 0,1.382 -18.115,0 C -17.29,1.03 -16.616,0.562 -16.191,0 L 0,0 z"
             id="path26"
             style="fill:#ffffff;fill-opacity:1;fill-rule:nonzero;stroke:none" /></g><g
           transform="translate(651.6201,371.4893)"
           id="g28"><path
             d="m 0,0 0,-3.462 -0.708,0 0.005,0 c 0,-0.928 -3.696,-1.689 -8.814,-1.802 -0.415,-0.698 -1.196,-1.294 -2.197,-1.704 l 11.734,0 L 0.02,0 0,0 z"
             id="path30"
             style="fill:#ffffff;fill-opacity:1;fill-rule:nonzero;stroke:none" /></g><g
           transform="translate(615.2969,365.9424)"
           id="g32"><path
             d="m 0,0 0,-1.416 18.369,0 C 17.51,-1.069 16.812,-0.581 16.372,0 L 0,0 z"
             id="path34"
             style="fill:#ffffff;fill-opacity:1;fill-rule:nonzero;stroke:none" /></g><g
           transform="translate(567.1475,368.0225)"
           id="g36"><path
             d="m 0,0 c 0,-0.923 3.696,-1.68 8.809,-1.802 0.41,-0.698 1.196,-1.289 2.202,-1.699 l 6.24,0 c 0.859,0.356 1.553,0.84 1.992,1.421 l 16.192,0 0,-1.421 6.357,0 0,3.506 L 0,0.005 0,0"
             id="path38"
             style="fill:#ffffff;fill-opacity:1;fill-rule:nonzero;stroke:none" /></g><g
           transform="translate(642.1035,369.8242)"
           id="g40"><path
             d="m 0,0 c -0.405,0.674 -1.147,1.26 -2.109,1.67 l -6.407,0 C -9.341,1.318 -10.01,0.84 -10.435,0.283 l -16.372,0 0,1.387 -6.352,0 0,-3.462 41.968,0 C 8.789,-0.879 5.107,-0.112 0,0"
             id="path42"
             style="fill:#ffffff;fill-opacity:1;fill-rule:nonzero;stroke:none" /></g><g
           transform="translate(491.9375,404.4336)"
           id="g44"><path
             d="m 0,0 -0.796,-0.107 0,-25.987 -8.76,0 2.417,4.502 0.005,38.657 -2.3,5.66 8.609,0 8.286,-29.156 8.296,29.156 8.564,0 -2.251,-5.606 0,-38.721 2.544,-4.492 -8.886,0 0,25.987 -0.796,0.102 -5.894,-21.641 -3.144,0 L 0,0 z m 9.658,-22.451 5.259,19.326 0,-23.77 11.079,0 -3.125,5.508 0,38.35 2.647,6.567 -10.372,0 -0.083,-0.298 -7.602,-26.713 -7.676,27.011 -10.415,0 2.691,-6.621 0,-38.301 -2.969,-5.503 10.923,0 0,23.775 5.258,-19.331 4.385,0 z"
             id="path46"
             style="fill:#ffd520;fill-opacity:1;fill-rule:nonzero;stroke:none" /></g><g
           transform="translate(534.1592,394.1016)"
           id="g48"><path
             d="M 0,0 3.159,19.453 6.313,0 0,0 z m 2.759,22.041 -3.711,-22.842 8.208,0 -3.701,22.842 -0.796,0 z"
             id="path50"
             style="fill:#ffd520;fill-opacity:1;fill-rule:nonzero;stroke:none" /></g><g
           transform="translate(541.3125,378.3398)"
           id="g52"><path
             d="m 0,0 1.88,4.531 -0.874,4.883 -9.942,0 L -9.805,4.57 -7.93,0 l -9.008,0 9.448,48.818 7.119,0 L 9.004,0 0,0 z m -8.164,49.624 -9.746,-50.425 11.186,0 -2.251,5.464 0.713,3.945 8.594,0 0.713,-3.984 -2.251,-5.425 0.601,0 10.581,0 -9.683,50.425 -8.457,0 z"
             id="path54"
             style="fill:#ffd520;fill-opacity:1;fill-rule:nonzero;stroke:none" /></g><g
           transform="translate(655.4922,394.1016)"
           id="g56"><path
             d="M 0,0 3.159,19.463 6.318,0 0,0 z m 2.764,22.041 -3.711,-22.847 8.213,0 -3.706,22.847 -0.796,0 z"
             id="path58"
             style="fill:#ffd520;fill-opacity:1;fill-rule:nonzero;stroke:none" /></g><g
           transform="translate(664.5254,382.8711)"
           id="g60"><path
             d="m 0,0 -0.869,4.878 -9.942,0 -0.869,-4.839 1.875,-4.57 -9.004,0 9.444,48.818 7.119,0 9.375,-48.818 -9.009,0 L 0,0 z m -1.587,45.093 -8.452,0 -9.746,-50.43 11.181,0 -2.241,5.469 0.708,3.94 8.594,0 0.713,-3.979 -2.251,-5.43 0.605,0 10.581,0 -9.692,50.43 z"
             id="path62"
             style="fill:#ffd520;fill-opacity:1;fill-rule:nonzero;stroke:none" /></g><g
           transform="translate(729.4814,388.5303)"
           id="g64"><path
             d="m 0,0 c -0.044,-2.417 -1.309,-3.765 -4.146,-3.813 l -4.917,0 0,36.074 5.113,0 c 2.514,-0.039 3.916,-1.28 3.95,-3.75 L 0,0 z m -3.95,33.062 -5.918,0 0,-37.676 5.727,0 c 1.563,0 2.813,0.42 3.667,1.24 0.865,0.82 1.28,2.002 1.28,3.374 l 0,28.511 c 0,1.406 -0.454,2.578 -1.304,3.369 -0.845,0.791 -2.046,1.191 -3.452,1.182"
             id="path66"
             style="fill:#ffd520;fill-opacity:1;fill-rule:nonzero;stroke:none" /></g><g
           transform="translate(736.9521,387.3047)"
           id="g68"><path
             d="m 0,0 c -0.034,-5.537 -3.408,-8.916 -9.214,-8.955 l -17.27,0 2.548,5.591 0,37.544 -2.548,5.674 17.27,0 C -3.345,39.814 -0.034,36.377 0,30.84 L 0,0 z m -1.855,37.979 c -1.734,1.723 -4.258,2.685 -7.359,2.675 l -18.525,0 2.993,-6.64 0,-37.202 -2.993,-6.578 18.535,0 c 3.061,0 5.581,0.943 7.324,2.652 C -0.137,-5.4 0.806,-2.949 0.806,0 l 0,30.84 c 0,2.939 -0.928,5.41 -2.661,7.139"
             id="path70"
             style="fill:#ffd520;fill-opacity:1;fill-rule:nonzero;stroke:none" /></g><g
           transform="translate(638.6514,386.6113)"
           id="g72"><path
             d="m 0,0 0,-8.262 -18.677,0 0,48.809 6.597,0 0,-42.993 8.12,0 L 0,0 z m -11.27,-1.641 0,42.989 -8.212,0 0,-50.42 0.405,0 19.888,0 0,10.517 -4.996,-3.086 -7.085,0 z"
             id="path74"
             style="fill:#ffd520;fill-opacity:1;fill-rule:nonzero;stroke:none" /></g><g
           transform="translate(702.6699,378.3447)"
           id="g76"><path
             d="m 0,0 -5.815,0 -11.329,29.785 -0.786,-0.141 0,-24.019 2.549,-5.625 -8.95,0 0,48.813 5.815,0 11.338,-29.16 0.777,0.137 0,23.379 -2.544,5.644 8.945,0 L 0,0 z m 0.806,49.624 -11.006,0 0.259,-0.576 2.734,-6.055 0,-21.055 -10.757,27.686 -7.163,0 0,-50.43 10.996,0 -2.988,6.607 0,21.645 10.752,-28.252 7.173,0 0,50.43 z"
             id="path78"
             style="fill:#ffd520;fill-opacity:1;fill-rule:nonzero;stroke:none" /></g><g
           transform="translate(603.1484,396.25)"
           id="g80"><path
             d="m 0,0 0,-17.91 -6.66,0 0,17.91 -9.668,30.908 9.365,0 -1.455,-5.713 5.117,-16.836 5.113,16.827 -1.456,5.722 9.302,0 L 0,0 z m 0.977,25.205 -4.278,-14.072 -4.282,14.082 1.655,6.499 -11.494,0 9.956,-31.836 0,-18.589 8.267,0 0,18.589 9.951,31.836 -11.431,0 1.656,-6.509 z"
             id="path82"
             style="fill:#ffd520;fill-opacity:1;fill-rule:nonzero;stroke:none" /></g><path
           d="m 572.87,406.914 -8.545,0 0,13.877 8.545,0 0,-13.877 z m 0.806,14.688 -10.161,0 0,-15.493 10.161,0 0,15.493 z"
           id="path84"
           style="fill:#ffd520;fill-opacity:1;fill-rule:nonzero;stroke:none" /><g
           transform="translate(573.0947,378.3447)"
           id="g86"><path
             d="m 0,0 -7.378,22.163 -2.207,0 0,-22.163 -6.592,0 0,43.218 -2.549,5.595 21.822,0 c 1.391,0 2.387,-0.38 3.047,-1.054 0.664,-0.679 1.03,-1.699 1.03,-3.096 l 0,-18.35 C 7.124,23.545 5.854,22.285 3.149,22.163 l -3.779,0 L 7.026,0 0,0 z m 0.508,21.362 2.651,0 c 3.023,0.025 4.873,1.875 4.82,4.951 l 0,18.35 c 0.004,1.533 -0.406,2.788 -1.26,3.652 -0.845,0.87 -2.085,1.309 -3.623,1.299 l -23.072,0 2.994,-6.572 0,-43.848 8.208,0 0,22.168 0.815,0 7.383,-22.168 8.735,0 -0.18,0.533 -7.471,21.635 z"
             id="path88"
             style="fill:#ffd520;fill-opacity:1;fill-rule:nonzero;stroke:none" /></g><g
           transform="translate(666.1465,364.5215)"
           id="g90"><path
             d="m 0,0 11.987,0 0,3.506 L 0,6.338 0,0 z"
             id="path92"
             style="fill:#ffd520;fill-opacity:1;fill-rule:nonzero;stroke:none" /></g><g
           transform="translate(680.5801,368.1348)"
           id="g94"><path
             d="m 0,0 11.982,-2.935 0,6.289 L 0,3.354 0,0 z"
             id="path96"
             style="fill:#ffd520;fill-opacity:1;fill-rule:nonzero;stroke:none" /></g><g
           transform="translate(707.0303,370.2686)"
           id="g98"><path
             d="m 0,0 0,1.221 -5.112,0 L 0,0 z"
             id="path100"
             style="fill:#ffd520;fill-opacity:1;fill-rule:nonzero;stroke:none" /></g><g
           transform="translate(709.4375,364.5215)"
           id="g102"><path
             d="m 0,0 11.987,0 0,1.582 L 0,4.468 0,0 z"
             id="path104"
             style="fill:#ffd520;fill-opacity:1;fill-rule:nonzero;stroke:none" /></g><g
           transform="translate(730.4971,368.0566)"
           id="g106"><path
             d="m 0,0 3.936,3.433 -10.567,0 0,-5.337 6.66,-1.631 3.926,0 L 0.752,-0.669 0,0 z"
             id="path108"
             style="fill:#ffd520;fill-opacity:1;fill-rule:nonzero;stroke:none" /></g><g
           transform="translate(495.8975,364.5215)"
           id="g110"><path
             d="m 0,0 11.987,0 0,3.506 L 0,6.338 0,0 z"
             id="path112"
             style="fill:#ffd520;fill-opacity:1;fill-rule:nonzero;stroke:none" /></g><g
           transform="translate(510.3311,368.1348)"
           id="g114"><path
             d="m 0,0 11.997,-2.935 0,6.289 L 0,3.354 0,0 z"
             id="path116"
             style="fill:#ffd520;fill-opacity:1;fill-rule:nonzero;stroke:none" /></g><g
           transform="translate(536.8008,370.2686)"
           id="g118"><path
             d="m 0,0 0,1.221 -5.117,0 L 0,0 z"
             id="path120"
             style="fill:#ffd520;fill-opacity:1;fill-rule:nonzero;stroke:none" /></g><g
           transform="translate(539.208,364.5215)"
           id="g122"><path
             d="m 0,0 11.987,0 0,1.582 L 0,4.468 0,0 z"
             id="path124"
             style="fill:#ffd520;fill-opacity:1;fill-rule:nonzero;stroke:none" /></g><g
           transform="translate(553.6465,366.1523)"
           id="g126"><path
             d="m 0,0 6.67,-1.626 6.226,0 0,3.501 0,0.283 0.019,0 L 12.92,5.342 0,5.342 0,0 z"
             id="path128"
             style="fill:#ffd520;fill-opacity:1;fill-rule:nonzero;stroke:none" /></g><g
           transform="translate(654.5449,393.3008)"
           id="g130"><path
             d="m 0,0 3.711,22.842 0.796,0 L 8.213,0 0,0 z m 0.61,33.857 -9.438,-48.818 9.004,0 -1.87,4.57 0.864,4.844 9.946,0 0.864,-4.883 -1.875,-4.531 9.004,0 -9.38,48.818 -7.119,0 z"
             id="path132"
             style="fill:#e03a3e;fill-opacity:1;fill-rule:nonzero;stroke:none" /></g><g
           transform="translate(638.6514,386.6113)"
           id="g134"><path
             d="m 0,0 -3.96,-2.446 -8.12,0 0,42.993 -6.597,0 0,-48.809 L 0,-8.262 0,0 z"
             id="path136"
             style="fill:#e03a3e;fill-opacity:1;fill-rule:nonzero;stroke:none" /></g><g
           transform="translate(596.4883,378.3447)"
           id="g138"><path
             d="m 0,0 6.66,0 0,17.905 9.653,30.908 -9.296,0 1.455,-5.722 -5.113,-16.826 -5.117,16.836 1.455,5.712 -9.365,0 L 0,17.905 0,0 z"
             id="path140"
             style="fill:#e03a3e;fill-opacity:1;fill-rule:nonzero;stroke:none" /></g><g
           transform="translate(514.0029,421.5527)"
           id="g142"><path
             d="m 0,0 2.261,5.605 -8.57,0 -8.295,-29.155 -8.292,29.155 -8.603,0 2.3,-5.659 0,-38.657 -2.422,-4.502 8.76,0 0,25.986 0.791,0.108 5.898,-21.646 3.145,0 5.893,21.641 0.796,-0.103 0,-25.986 8.892,0 L 0,-38.721 0,0 z"
             id="path144"
             style="fill:#e03a3e;fill-opacity:1;fill-rule:nonzero;stroke:none" /></g><g
           transform="translate(730.2871,388.5303)"
           id="g146"><path
             d="m 0,0 c 0,-1.372 -0.42,-2.554 -1.279,-3.374 -0.855,-0.82 -2.105,-1.24 -3.667,-1.24 l -5.733,0 0,37.676 5.928,0 c 1.397,0.009 2.603,-0.391 3.447,-1.182 C -0.454,31.089 0,29.917 0,28.511 L 0,0 z m -2.549,38.628 -17.275,0 2.553,-5.669 0,-37.549 -2.553,-5.591 17.275,0 c 5.811,0.035 9.18,3.418 9.209,8.951 l 0,30.839 c -0.034,5.533 -3.345,8.98 -9.209,9.019"
             id="path148"
             style="fill:#e03a3e;fill-opacity:1;fill-rule:nonzero;stroke:none" /></g><g
           transform="translate(533.207,393.3008)"
           id="g150"><path
             d="m 0,0 3.706,22.842 0.801,0 L 8.213,0 0,0 z m 0.61,33.857 -9.438,-48.818 9.009,0 -1.88,4.57 0.864,4.844 9.951,0 0.864,-4.883 -1.879,-4.531 9.008,0 -9.375,48.818 -7.124,0 z"
             id="path152"
             style="fill:#e03a3e;fill-opacity:1;fill-rule:nonzero;stroke:none" /></g><g
           transform="translate(696.2686,421.5137)"
           id="g154"><path
             d="m 0,0 0,-23.374 -0.776,-0.142 -11.338,29.161 -5.816,0 0,-48.814 8.951,0 -2.544,5.62 0,24.024 0.781,0.141 11.328,-29.785 5.815,0 0,48.814 -8.945,0 L 0,0 z"
             id="path156"
             style="fill:#e03a3e;fill-opacity:1;fill-rule:nonzero;stroke:none" /></g><path
           d="m 563.515,421.602 10.161,0 0,-15.493 -10.161,0 0,15.493 z m 16.606,-43.257 -7.651,22.173 3.779,0 c 2.7,0.112 3.97,1.372 4.019,4.14 l 0,18.35 c 0,1.401 -0.372,2.417 -1.031,3.091 -0.659,0.678 -1.655,1.054 -3.042,1.054 l -21.821,0 2.544,-5.59 0,-43.218 6.597,0 0,22.173 2.202,0 7.378,-22.173 7.026,0 z"
           id="path158"
           style="fill:#e03a3e;fill-opacity:1;fill-rule:nonzero;stroke:none" /><g
           transform="translate(584.3936,364.5215)"
           id="g160"><path
             d="m 0,0 18.188,0 0,1.416 -16.191,0 C 1.558,0.845 0.859,0.352 0,0"
             id="path162"
             style="fill:#e03a3e;fill-opacity:1;fill-rule:nonzero;stroke:none" /></g><g
           transform="translate(566.542,364.5215)"
           id="g164"><path
             d="M 0,0 11.611,0 C 10.61,0.41 9.824,1.006 9.414,1.704 4.297,1.816 0.605,2.578 0.605,3.506 L 0,3.506 0,0 z"
             id="path166"
             style="fill:#e03a3e;fill-opacity:1;fill-rule:nonzero;stroke:none" /></g><g
           transform="translate(642.1035,369.8242)"
           id="g168"><path
             d="m 0,0 c 5.107,-0.112 8.789,-0.879 8.809,-1.792 l 0.708,0 0,3.462 -11.626,0 C -1.147,1.26 -0.405,0.674 0,0"
             id="path170"
             style="fill:#e03a3e;fill-opacity:1;fill-rule:nonzero;stroke:none" /></g><g
           transform="translate(633.5928,371.4893)"
           id="g172"><path
             d="m 0,0 -18.296,0 0,-1.382 16.372,0 C -1.499,-0.815 -0.825,-0.347 0,0"
             id="path174"
             style="fill:#e03a3e;fill-opacity:1;fill-rule:nonzero;stroke:none" /></g><g
           transform="translate(608.9443,364.5215)"
           id="g176"><path
             d="m 0,0 6.353,0 0,1.416 16.372,0 C 23.164,0.845 23.857,0.352 24.722,0 l 6.235,0 c 1.006,0.41 1.787,1.006 2.202,1.704 5.112,0.112 8.809,0.874 8.809,1.802 L 0,3.506 0,0 z"
             id="path178"
             style="fill:#e03a3e;fill-opacity:1;fill-rule:nonzero;stroke:none" /></g><g
           transform="translate(602.582,371.4893)"
           id="g180"><path
             d="m 0,0 0,-1.382 -16.191,0 c -0.425,0.567 -1.099,1.035 -1.924,1.382 l -6.406,0 c -0.958,-0.405 -1.705,-0.981 -2.105,-1.67 -5.103,-0.112 -8.799,-0.869 -8.809,-1.792 l 41.792,0 L 6.357,0 0,0 z"
             id="path182"
             style="fill:#e03a3e;fill-opacity:1;fill-rule:nonzero;stroke:none" /></g><g
           transform="translate(481.3076,427.9639)"
           id="g184"><path
             d="m 0,0 10.41,0 7.686,-27.012 7.597,26.714 0.083,0.298 10.376,0 -2.646,-6.567 0,-38.35 3.125,-5.508 -11.079,0 0,23.77 -5.264,-19.326 -4.385,0 -5.258,19.331 0,-23.775 -10.918,0 2.963,5.503 0,38.301 L 0,0 z m -2.344,-51.812 14.375,0 0,14.766 2.808,-10.322 6.514,0 2.807,10.317 0,-14.761 14.736,0 -4.008,6.954 0,38.115 3.076,8.135 -13.233,0 -0.087,-0.293 -0.289,-1.006 -6.259,-22.012 -6.636,23.311 -13.272,0 3.111,-8.194 0,-38.066 -3.643,-6.944 z"
             id="path186"
             style="fill:#231f20;fill-opacity:1;fill-rule:nonzero;stroke:none" /></g><g
           transform="translate(533.1533,427.9639)"
           id="g188"><path
             d="m 0,0 8.447,0 9.693,-50.425 -10.586,0 -0.606,0 2.256,5.425 -0.708,3.979 -8.603,0 -0.704,-3.94 2.247,-5.464 -11.192,0 L 0,0 z m 0.63,-44.81 0.425,2.403 6.269,0 0.435,-2.442 -2.896,-6.967 14.961,0 L 9.6,1.392 l -10.752,0 -10.288,-53.208 14.951,0 -2.881,7.006 z"
             id="path190"
             style="fill:#231f20;fill-opacity:1;fill-rule:nonzero;stroke:none" /></g><g
           transform="translate(537.3135,404.8828)"
           id="g192"><path
             d="m 0,0 1.519,-9.385 -3.042,0 L 0,0 z m 0,8.672 -3.154,-19.453 6.313,0 L 0,8.672 z"
             id="path194"
             style="fill:#231f20;fill-opacity:1;fill-rule:nonzero;stroke:none" /></g><g
           transform="translate(658.6514,404.8828)"
           id="g196"><path
             d="m 0,0 1.519,-9.385 -3.042,0 L 0,0 z m 0,8.672 -3.159,-19.453 6.313,0 L 0,8.672 z"
             id="path198"
             style="fill:#231f20;fill-opacity:1;fill-rule:nonzero;stroke:none" /></g><g
           transform="translate(654.4912,427.9639)"
           id="g200"><path
             d="m 0,0 8.447,0 9.693,-50.435 -10.581,0 -0.606,0 2.246,5.435 -0.703,3.979 -8.599,0 -0.703,-3.94 2.242,-5.474 -11.187,0 L 0,0 z m 0.63,-44.81 0.425,2.403 6.274,0 0.43,-2.442 -2.891,-6.967 14.956,0 L 9.6,1.392 l -10.747,0 -10.293,-53.208 14.951,0 -2.881,7.006 z"
             id="path202"
             style="fill:#231f20;fill-opacity:1;fill-rule:nonzero;stroke:none" /></g><g
           transform="translate(728.0898,388.5449)"
           id="g204"><path
             d="m 0,0 c -0.073,-0.957 -0.249,-1.504 -0.581,-1.816 -0.342,-0.332 -0.991,-0.547 -2.202,-0.625 l -3.506,0 0,33.3 3.73,-0.009 c 1.011,-0.059 1.621,-0.254 1.963,-0.572 C -0.259,29.961 -0.063,29.434 0,28.467 L 0,0 z m -2.559,32.246 -5.112,0 0,-36.074 4.917,0 c 2.837,0.049 4.102,1.396 4.146,3.808 l 0,28.516 c -0.039,2.471 -1.441,3.706 -3.951,3.75"
             id="path206"
             style="fill:#231f20;fill-opacity:1;fill-rule:nonzero;stroke:none" /></g><g
           transform="translate(737.7578,387.3047)"
           id="g208"><path
             d="m 0,0 c 0,-2.949 -0.942,-5.4 -2.686,-7.114 -1.748,-1.709 -4.262,-2.652 -7.324,-2.652 l -18.535,0 2.993,6.578 0,37.202 -2.993,6.64 18.53,0 c 3.091,0.01 5.62,-0.952 7.354,-2.675 C -0.928,36.25 0,33.779 0,30.84 L 0,0 z m -1.68,38.965 0,0 c -2.031,2.021 -4.941,3.086 -8.3,3.086 l -0.069,0 -20.639,0 3.74,-8.34 0,-36.602 -3.755,-8.261 20.723,0 c 3.33,0 6.23,1.045 8.261,3.047 2.041,1.997 3.106,4.853 3.101,8.066 l 0,0.015 0,30.864 0,0.029 c 0.005,3.213 -1.035,6.074 -3.062,8.096"
             id="path210"
             style="fill:#231f20;fill-opacity:1;fill-rule:nonzero;stroke:none" /></g><g
           transform="translate(639.4619,377.5391)"
           id="g212"><path
             d="m 0,0 -19.888,0 -0.4,0 0,50.425 8.208,0 0,-42.993 7.085,0 L 0,10.518 0,0 z m 1.387,13.008 -6.778,-4.185 -5.307,0 0,42.993 -10.987,0 0,-53.203 23.072,0 0,14.395 z"
             id="path214"
             style="fill:#231f20;fill-opacity:1;fill-rule:nonzero;stroke:none" /></g><g
           transform="translate(677.5381,427.9639)"
           id="g216"><path
             d="m 0,0 7.168,0 10.757,-27.676 0,21.05 -2.73,6.055 -0.263,0.571 11.006,0 0,-50.425 -7.178,0 -10.747,28.252 0,-21.65 2.993,-6.602 L 0,-50.425 0,0 z m 9.399,-43.516 0,13.785 8.399,-22.085 9.526,0 0,53.208 -14.536,0 0.249,-0.567 0.889,-1.963 2.602,-5.791 0,-13.33 -8.408,21.651 -9.512,0 0,-53.208 14.551,0 -3.76,8.3 z"
             id="path218"
             style="fill:#231f20;fill-opacity:1;fill-rule:nonzero;stroke:none" /></g><g
           transform="translate(585.7266,427.959)"
           id="g220"><path
             d="m 0,0 11.494,0 -1.655,-6.494 4.277,-14.082 4.282,14.067 -1.65,6.509 11.431,0 -9.951,-31.836 0,-18.584 -8.277,0 0,18.584 L 0,0 z m 8.56,-51.816 11.054,0 0,19.765 10.449,33.447 -15.112,0 0.132,-0.507 1.87,-7.364 -2.842,-9.316 -2.827,9.326 2.002,7.861 -15.181,0 10.455,-33.437 0,-19.775 z"
             id="path222"
             style="fill:#231f20;fill-opacity:1;fill-rule:nonzero;stroke:none" /></g><g
           transform="translate(553.1191,427.959)"
           id="g224"><path
             d="m 0,0 23.076,0 c 1.528,0 2.769,-0.43 3.618,-1.299 0.85,-0.864 1.26,-2.119 1.26,-3.652 l 0,-18.35 c 0.054,-3.076 -1.797,-4.927 -4.819,-4.951 l -2.652,0 7.471,-21.636 0.181,-0.532 -8.74,0 -7.378,22.168 -0.816,0 0,-22.168 -8.208,0 0,43.848 L 0,0 z m 1.597,-51.816 10.996,0 0,17.441 5.796,-17.441 11.699,0 -0.825,2.387 -6.831,19.79 0.703,0 c 1.772,0.03 3.403,0.557 4.56,1.739 1.158,1.176 1.646,2.812 1.646,4.56 l 0,0.01 0,18.379 0,0.044 c 0,1.753 -0.484,3.393 -1.651,4.585 -1.162,1.191 -2.817,1.718 -4.58,1.718 -0.014,0 -0.029,0 -0.048,-0.004 l -25.22,0.004 3.755,-8.271 0,-44.941 z"
             id="path226"
             style="fill:#231f20;fill-opacity:1;fill-rule:nonzero;stroke:none" /></g><path
           d="m 571.469,408.311 -5.762,0 0,11.084 5.762,0 0,-11.084 z m 1.401,12.48 -8.545,0 0,-13.877 8.545,0 0,13.877 z"
           id="path228"
           style="fill:#231f20;fill-opacity:1;fill-rule:nonzero;stroke:none" /><g
           transform="translate(731.2441,367.3828)"
           id="g230"><path
             d="m 0,0 3.208,-2.861 -3.921,0 -6.665,1.631 0,5.336 10.562,0 L -0.747,0.664 0,0 z m -21.807,-2.861 0,4.467 11.983,-2.885 0,-1.582 -11.983,0 z m -43.286,0 0,6.338 11.978,-2.832 0,-3.506 -11.978,0 z m -14.511,0 -11.734,0 -6.24,0 -18.369,0 -6.358,0 -6.357,0 -18.189,0 -6.24,0 -11.611,0 -6.226,0 -6.67,1.631 0,5.336 12.92,0 0,-3.178 0.005,0 0,3.178 11.494,0 6.407,0 18.11,0 6.357,0 6.358,0 18.291,0 6.406,0 11.626,0 0.02,0 0,-6.967 z m -112.437,0 0,4.467 11.992,-2.885 0,-1.582 -11.992,0 z m -43.306,0 0,6.338 11.988,-2.832 0,-3.506 -11.988,0 z m 26.426,6.967 0,-6.289 -11.992,2.935 0,3.354 11.992,0 z m 14.478,0 0,-1.215 -5.118,1.215 5.118,0 z m 155.766,0 0,-6.289 -11.987,2.935 0,3.354 11.987,0 z m 14.463,0 0,-1.215 -5.112,1.215 5.112,0 z m -228.066,1.763 5.952,-5.215 -5.943,-5.278 260.118,0 -5.938,5.278 5.972,5.215 -260.161,0 z"
             id="path232"
             style="fill:#231f20;fill-opacity:1;fill-rule:nonzero;stroke:none" /></g><g
           transform="translate(739.8379,380.1367)"
           id="g234"><path
             d="m 0,0 1.313,0 0,-3.984 0.484,0 0,3.984 1.382,0 0,0.479 L 0,0.479 0,0 z"
             id="path236"
             style="fill:#231f20;fill-opacity:1;fill-rule:nonzero;stroke:none" /></g><g
           transform="translate(745.5703,376.9824)"
           id="g238"><path
             d="m 0,0 -1.143,3.633 -0.766,0 0,-4.463 0.473,0 0,3.789 1.197,-3.789 0.478,0 1.197,3.789 0,-3.789 0.473,0 0,4.463 -0.762,0 L 0,0 z"
             id="path240"
             style="fill:#231f20;fill-opacity:1;fill-rule:nonzero;stroke:none" /></g></g></g></g></svg>