<?xml version="1.0" encoding="UTF-8" standalone="no"?>
<!-- Created with Inkscape (http://www.inkscape.org/) -->

<svg
   xmlns:dc="http://purl.org/dc/elements/1.1/"
   xmlns:cc="http://creativecommons.org/ns#"
   xmlns:rdf="http://www.w3.org/1999/02/22-rdf-syntax-ns#"
   xmlns:svg="http://www.w3.org/2000/svg"
   xmlns="http://www.w3.org/2000/svg"
   version="1.1"
   width="280"
   height="200"
   id="svg2"
   xml:space="preserve"><metadata
     id="metadata8"><rdf:RDF><cc:Work
         rdf:about=""><dc:format>image/svg+xml</dc:format><dc:type
           rdf:resource="http://purl.org/dc/dcmitype/StillImage" /><dc:title></dc:title></cc:Work></rdf:RDF></metadata><defs
     id="defs6" /><g
     transform="matrix(1.25,0,0,-1.25,-20.79721,221.18101)"
     id="g10"><g
       transform="matrix(0.08300649,0,0,0.08300649,48.422145,16.47432)"
       id="g12"><path
         d="m 2.59766,5.66797 1927.56004,0 0,1927.56003 -1927.56004,0 0,-1927.56003 z"
         id="path14"
         style="fill:#ffffff;fill-opacity:1;fill-rule:evenodd;stroke:none" /><path
         d="m 966.383,1038.89 -121.672,203.62 89.289,0.01 0,240.11 -508.742,0 0,-240.11 97.168,0 -336.637,-531.875 -98.1523,0 0,-254.372 504.1213,0 0,254.372 -72.164,0 152.285,244.91 62.945,-98.067 -56.351,0 0,-248.593 575.807,0 0,248.593 -56.35,0 62.94,98.067 152.29,-244.91 -72.16,0 0,-254.372 504.12,0 0,254.372 -98.15,0 -336.65,531.885 97.18,-0.01 0,240.11 -508.75,0 0,-240.11 89.3,0 -121.667,-203.63"
         id="path16"
         style="fill:#fab93d;fill-opacity:1;fill-rule:evenodd;stroke:none" /><path
         d="m 1132.88,1267.95 -108.69,0 0,189.24 457.87,0 0,-189.24 -117.94,0 368.84,-582.743 86.72,0 0,-203.496 -453.25,0 0,203.496 92.51,0 -197.73,317.963 -109.83,-171.119 77.46,0 0,-197.715 -524.93,0 0,197.715 77.469,0 -109.844,171.119 -197.715,-317.963 92.5,0 0,-203.496 -453.246,0 0,203.496 86.719,0 368.84,582.743 -117.938,0 0,189.24 457.871,0 0,-189.24 -108.687,0 166.5,-278.649 166.501,278.649"
         id="path18"
         style="fill:#960a2c;fill-opacity:1;fill-rule:evenodd;stroke:none" /></g></g></svg>