<?xml version="1.0" encoding="UTF-8" standalone="no"?>
<!-- Created with Inkscape (http://www.inkscape.org/) -->

<svg
   xmlns:dc="http://purl.org/dc/elements/1.1/"
   xmlns:cc="http://creativecommons.org/ns#"
   xmlns:rdf="http://www.w3.org/1999/02/22-rdf-syntax-ns#"
   xmlns:svg="http://www.w3.org/2000/svg"
   xmlns="http://www.w3.org/2000/svg"
   version="1.1"
   width="280"
   height="200"
   viewBox="-1.045 -1.179 280 200"
   id="Layer_1"
   xml:space="preserve"><metadata
     id="metadata3855"><rdf:RDF><cc:Work
         rdf:about=""><dc:format>image/svg+xml</dc:format><dc:type
           rdf:resource="http://purl.org/dc/dcmitype/StillImage" /><dc:title></dc:title></cc:Work></rdf:RDF></metadata><defs
     id="defs3853" /><g
     transform="matrix(4.84156,0,0,4.84156,28.955,-1.1790002)"
     id="g3841"><path
       d="M 44.52,0 H 26.544 v 11.965 h 2.843 v 7.071 C 27.77,16.642 16.539,0 16.539,0 H 0 V 11.965 H 2.885 V 29.344 H 0 V 41.309 H 18.402 V 29.344 H 15.56 v -6.669 c 1.611,2.32 12.942,18.634 12.942,18.634 H 45.029 V 29.344 H 42.103 V 11.965 h 2.926 V 0 H 44.52 z"
       id="path3843"
       style="fill:#e11d38" /><path
       d="M 44.52,11.456 V 0.509 H 27.053 v 10.947 h 2.842 V 20.7 C 27.537,17.206 16.269,0.509 16.269,0.509 H 0.509 V 11.456 H 3.394 V 29.852 H 0.509 V 40.797 H 17.893 V 29.853 H 15.051 V 21.05 c 2.353,3.389 13.717,19.749 13.717,19.749 H 44.52 V 29.853 H 41.594 V 11.456 h 2.926 z"
       id="path3845"
       style="fill:#ffffff" /><polygon
       points="17.102,30.644 17.102,40.007 1.301,40.007 1.301,30.644 4.185,30.644 4.185,10.664 1.301,10.664 1.301,1.301 15.848,1.301 30.688,23.288 30.688,10.664 27.846,10.664 27.846,1.301 43.729,1.301 43.729,10.664 40.803,10.664 40.803,30.644 43.729,30.644 43.729,40.007 29.182,40.007 14.259,18.521 14.259,30.644 "
       id="polygon3847"
       style="fill:#e11d38" /><path
       d="m 46.18,39.847 c 0.125,0 0.246,0.03 0.36,0.095 0.114,0.062 0.205,0.149 0.271,0.268 0.066,0.117 0.101,0.239 0.101,0.366 0,0.127 -0.033,0.248 -0.099,0.361 -0.063,0.114 -0.152,0.205 -0.27,0.27 -0.115,0.065 -0.236,0.098 -0.363,0.098 -0.127,0 -0.248,-0.031 -0.363,-0.098 -0.114,-0.063 -0.205,-0.154 -0.27,-0.27 -0.064,-0.113 -0.097,-0.234 -0.097,-0.361 0,-0.127 0.032,-0.249 0.099,-0.366 0.064,-0.117 0.156,-0.206 0.271,-0.268 0.116,-0.064 0.235,-0.095 0.36,-0.095 m 0,0.145 c -0.101,0 -0.197,0.024 -0.289,0.075 -0.09,0.049 -0.164,0.12 -0.217,0.214 -0.053,0.094 -0.078,0.19 -0.078,0.293 0,0.102 0.025,0.199 0.076,0.291 0.053,0.092 0.124,0.164 0.217,0.215 0.092,0.052 0.189,0.078 0.291,0.078 0.103,0 0.198,-0.026 0.291,-0.078 0.092,-0.051 0.164,-0.123 0.217,-0.215 0.053,-0.092 0.078,-0.189 0.078,-0.291 0,-0.103 -0.027,-0.199 -0.08,-0.293 -0.053,-0.094 -0.125,-0.165 -0.217,-0.214 -0.094,-0.05 -0.19,-0.075 -0.289,-0.075 m -0.33,0.968 v -0.767 h 0.156 c 0.146,0 0.229,0.001 0.247,0.002 0.052,0.004 0.093,0.015 0.121,0.03 0.028,0.017 0.054,0.04 0.071,0.072 0.019,0.033 0.029,0.07 0.029,0.11 0,0.056 -0.019,0.103 -0.056,0.142 -0.035,0.04 -0.087,0.064 -0.151,0.073 0.022,0.009 0.041,0.02 0.055,0.029 0.013,0.011 0.029,0.029 0.052,0.059 0.006,0.008 0.024,0.039 0.058,0.094 l 0.09,0.154 h -0.194 l -0.063,-0.124 c -0.043,-0.084 -0.08,-0.136 -0.107,-0.158 -0.029,-0.021 -0.065,-0.03 -0.109,-0.03 h -0.041 v 0.313 l -0.158,10e-4 0,0 z m 0.155,-0.439 h 0.063 c 0.091,0 0.146,-0.003 0.17,-0.011 0.021,-0.007 0.039,-0.019 0.052,-0.035 0.013,-0.018 0.019,-0.035 0.019,-0.058 0,-0.021 -0.006,-0.04 -0.019,-0.056 -0.013,-0.019 -0.03,-0.028 -0.054,-0.035 -0.022,-0.007 -0.078,-0.011 -0.168,-0.011 h -0.063 v 0.206 z"
       id="path3849"
       style="fill:#221f1f" /></g></svg>