<?xml version="1.0" encoding="UTF-8"?>
<!-- Generator: Adobe Illustrator 13.0.1, SVG Export Plug-In . SVG Version: 6.00 Build 14948)  -->
<!DOCTYPE svg PUBLIC "-//W3C//DTD SVG 1.1//EN" "http://www.w3.org/Graphics/SVG/1.1/DTD/svg11.dtd">
<svg version="1.1" id="Layer_1" xmlns="http://www.w3.org/2000/svg" xmlns:xlink="http://www.w3.org/1999/xlink" x="0px" y="0px" width="48.667px" height="43.5px" viewBox="-1.045 -1.179 48.667 43.5" enable-background="new -1.045 -1.179 48.667 43.5" xml:space="preserve">
<g>
	<path fill="#E11D38" d="M44.52,0H26.544v11.965h2.843v7.071C27.77,16.642,16.539,0,16.539,0H0v11.965h2.885v17.379H0v11.965h18.402   V29.344H15.56v-6.669c1.611,2.32,12.942,18.634,12.942,18.634h16.527V29.344h-2.926V11.965h2.926V0H44.52z"/>
	<path fill="#FFFFFF" d="M44.52,11.456V0.509H27.053v10.947h2.842V20.7C27.537,17.206,16.269,0.509,16.269,0.509H0.509v10.947h2.885   v18.396H0.509v10.945h17.384V29.853h-2.842V21.05c2.353,3.389,13.717,19.749,13.717,19.749H44.52V29.853h-2.926V11.456H44.52z"/>
	<polygon fill="#E11D38" points="43.729,10.664 40.803,10.664 40.803,30.644 43.729,30.644 43.729,40.007 29.182,40.007    14.259,18.521 14.259,30.644 17.102,30.644 17.102,40.007 1.301,40.007 1.301,30.644 4.185,30.644 4.185,10.664 1.301,10.664    1.301,1.301 15.848,1.301 30.688,23.288 30.688,10.664 27.846,10.664 27.846,1.301 43.729,1.301  "/>
	<path fill="#221F1F" d="M46.18,39.847c0.125,0,0.246,0.03,0.36,0.095c0.114,0.062,0.205,0.149,0.271,0.268   c0.066,0.117,0.101,0.239,0.101,0.366s-0.033,0.248-0.099,0.361c-0.063,0.114-0.152,0.205-0.27,0.27   c-0.115,0.065-0.236,0.098-0.363,0.098s-0.248-0.031-0.363-0.098c-0.114-0.063-0.205-0.154-0.27-0.27   c-0.064-0.113-0.097-0.234-0.097-0.361s0.032-0.249,0.099-0.366c0.064-0.117,0.156-0.206,0.271-0.268   C45.936,39.878,46.055,39.847,46.18,39.847 M46.18,39.992c-0.101,0-0.197,0.024-0.289,0.075c-0.09,0.049-0.164,0.12-0.217,0.214   s-0.078,0.19-0.078,0.293c0,0.102,0.025,0.199,0.076,0.291c0.053,0.092,0.124,0.164,0.217,0.215   c0.092,0.052,0.189,0.078,0.291,0.078c0.103,0,0.198-0.026,0.291-0.078c0.092-0.051,0.164-0.123,0.217-0.215   s0.078-0.189,0.078-0.291c0-0.103-0.027-0.199-0.08-0.293s-0.125-0.165-0.217-0.214C46.375,40.017,46.279,39.992,46.18,39.992    M45.85,40.96v-0.767h0.156c0.146,0,0.229,0.001,0.247,0.002c0.052,0.004,0.093,0.015,0.121,0.03   c0.028,0.017,0.054,0.04,0.071,0.072c0.019,0.033,0.029,0.07,0.029,0.11c0,0.056-0.019,0.103-0.056,0.142   c-0.035,0.04-0.087,0.064-0.151,0.073c0.022,0.009,0.041,0.02,0.055,0.029c0.013,0.011,0.029,0.029,0.052,0.059   c0.006,0.008,0.024,0.039,0.058,0.094l0.09,0.154h-0.194l-0.063-0.124c-0.043-0.084-0.08-0.136-0.107-0.158   c-0.029-0.021-0.065-0.03-0.109-0.03h-0.041v0.313L45.85,40.96L45.85,40.96z M46.005,40.521h0.063c0.091,0,0.146-0.003,0.17-0.011   c0.021-0.007,0.039-0.019,0.052-0.035c0.013-0.018,0.019-0.035,0.019-0.058c0-0.021-0.006-0.04-0.019-0.056   c-0.013-0.019-0.03-0.028-0.054-0.035c-0.022-0.007-0.078-0.011-0.168-0.011h-0.063V40.521z"/>
</g>
</svg>