<?xml version="1.0" encoding="UTF-8" standalone="no"?>
<!-- Created with Inkscape (http://www.inkscape.org/) -->

<svg
   xmlns:dc="http://purl.org/dc/elements/1.1/"
   xmlns:cc="http://creativecommons.org/ns#"
   xmlns:rdf="http://www.w3.org/1999/02/22-rdf-syntax-ns#"
   xmlns:svg="http://www.w3.org/2000/svg"
   xmlns="http://www.w3.org/2000/svg"
   version="1.1"
   width="280.13776"
   height="200"
   viewBox="0 0 280.13775 199.99999"
   id="Layer_1"
   xml:space="preserve"><metadata
     id="metadata3896"><rdf:RDF><cc:Work
         rdf:about=""><dc:format>image/svg+xml</dc:format><dc:type
           rdf:resource="http://purl.org/dc/dcmitype/StillImage" /><dc:title></dc:title></cc:Work></rdf:RDF></metadata><defs
     id="defs3894" /><g
     transform="matrix(1.1666633,0,0,1.1666633,-5.7641751,-2.5606712)"
     id="g3872"><path
       d="m 219.209,36.757 c 17.768,16.224 29.59,36.958 24.67,61.582 -6.729,37.004 -46.378,60.602 -79.793,67.688 -27.925,6.844 -60.66,4.678 -87.45,-2.858 C 49.731,154.666 19.278,136.898 8.089,108.161 -0.829,81.371 10.37,54.53 31.284,36.757 60.297,12.427 95.89,3.105 135.481,5.11 c 31.117,2.743 59.785,11.425 83.728,31.647"
       id="path3874"
       style="fill:#ffffff" /><path
       d="m 219.209,36.757 c 17.768,16.224 29.59,36.958 24.67,61.582 -6.729,37.004 -46.378,60.602 -79.793,67.688 -27.925,6.844 -60.66,4.678 -87.45,-2.858 C 49.731,154.666 19.278,136.898 8.089,108.161 -0.829,81.371 10.37,54.53 31.284,36.757 60.297,12.427 95.89,3.105 135.481,5.11 c 31.117,2.743 59.785,11.425 83.728,31.647 z"
       id="path3876"
       style="fill:none;stroke:#ffffff;stroke-width:0;stroke-linecap:square;stroke-miterlimit:2" /><path
       d="m 212.93,36.071 c 14.909,11.943 25.303,27.187 27.93,44.955 3.146,27.481 -14.104,50.78 -36.733,64.836 C 173.685,164.368 135.01,170.52 97.193,163.965 73.146,159.793 46.644,143.685 39.109,118.612 31.516,96.564 37.046,71.6 53.224,55.377 63.318,44.356 75.439,36.071 87.607,29.336 h -1.371 c -20.683,4.73 -40.041,13.251 -55.238,30.725 -14.161,15.82 -15.532,42.5 -7.144,61.409 1.717,4.344 4.459,8.216 6.856,12.226 C 13.862,118.716 4.149,97.428 10.543,74.752 19.404,41.326 54.928,21.109 85.266,13.17 129.536,2.316 177.971,10.14 212.93,36.071"
       id="path3878"
       style="fill:#162952" /><path
       d="m 212.93,36.071 c 14.909,11.943 25.303,27.187 27.93,44.955 3.146,27.481 -14.104,50.78 -36.733,64.836 C 173.685,164.368 135.01,170.52 97.193,163.965 73.146,159.793 46.644,143.685 39.109,118.612 31.516,96.564 37.046,71.6 53.224,55.377 63.318,44.356 75.439,36.071 87.607,29.336 h -1.371 c -20.683,4.73 -40.041,13.251 -55.238,30.725 -14.161,15.82 -15.532,42.5 -7.144,61.409 1.717,4.344 4.459,8.216 6.856,12.226 C 13.862,118.716 4.149,97.428 10.543,74.752 19.404,41.326 54.928,21.109 85.266,13.17 129.536,2.316 177.971,10.14 212.93,36.071 z"
       id="path3880"
       style="fill:none;stroke:#000000;stroke-width:0;stroke-linecap:square;stroke-miterlimit:2" /><path
       d="m 126.966,29.215 c 16.16,2.916 31.474,7.881 46.487,13.712 4.852,2.396 7.018,8.106 11.2,11.943 12.444,10.111 27.758,15.02 37.978,28.61 3.664,6.631 -0.08,13.44 -3.94,18.793 -7.593,6.625 -16.442,10.048 -24.842,14.668 -8.285,3.895 -16.569,7.72 -25.073,10.98 -0.634,0.335 0.161,0.657 0.564,1.061 l 0.519,0.427 c 11.995,-4.057 23.921,-8.182 35.639,-12.859 -1.198,4.113 -3.434,8.342 -5.3,12.456 -2.696,4.229 -4.852,13.112 -18.678,11.36 l -34.118,-5.312 c -16.379,4.056 -32.2,10.116 -50.313,9.033 -6.51,-0.622 -12.571,-3.768 -16.338,-9.586 -2.397,-4.355 -3.883,-9.265 -3.422,-14.703 0.853,0.646 1.486,1.832 2.224,2.754 16.108,18.401 44.673,15.014 66.318,10.739 14.898,-4.909 29.358,-10.854 43.07,-18.517 5.301,-3.71 8.792,-9.068 8.216,-15.642 -1.141,-13.481 -15.936,-21.484 -26.433,-26.45 -8.469,-2.961 -17.272,-5.531 -26.916,-5.19 l 21.247,-9.604 c 1.486,-0.403 2.178,1.083 2.754,2.063 0.783,2.114 0.968,4.793 -0.403,6.677 3.952,0.945 6.211,1.492 9.31,2.235 11.938,4.16 24.439,10.047 31.929,21.754 2.052,3.779 2.513,8.631 1.256,12.911 l 0.288,0.403 c 5.992,-2.063 8.158,-7.225 9.875,-13.418 -0.161,-7.092 -7.535,-11.257 -12.329,-15.48 -7.777,-5.772 -16.004,-10.335 -24.001,-15.538 -5.023,-2.979 -6.74,-9.489 -12.11,-11.661 -9.644,-3.076 -21.189,-1.25 -31.525,-0.789 -17.934,1.936 -34.665,6.792 -49.183,17.013 1.613,-13.026 4.574,-25.758 9.034,-37.695 2.108,-4.863 4.563,-10.975 10.163,-12.911 8.626,0.283 12.221,10.111 16.853,15.763"
       id="path3882"
       style="fill:#ffffff" /><path
       d="m 126.966,29.215 c 16.16,2.916 31.474,7.881 46.487,13.712 4.852,2.396 7.018,8.106 11.2,11.943 12.444,10.111 27.758,15.02 37.978,28.61 3.664,6.631 -0.08,13.44 -3.94,18.793 -7.593,6.625 -16.442,10.048 -24.842,14.668 -8.285,3.895 -16.569,7.72 -25.073,10.98 -0.634,0.335 0.161,0.657 0.564,1.061 l 0.519,0.427 c 11.995,-4.057 23.921,-8.182 35.639,-12.859 -1.198,4.113 -3.434,8.342 -5.3,12.456 -2.696,4.229 -4.852,13.112 -18.678,11.36 l -34.118,-5.312 c -16.379,4.056 -32.2,10.116 -50.313,9.033 -6.51,-0.622 -12.571,-3.768 -16.338,-9.586 -2.397,-4.355 -3.883,-9.265 -3.422,-14.703 0.853,0.646 1.486,1.832 2.224,2.754 16.108,18.401 44.673,15.014 66.318,10.739 14.898,-4.909 29.358,-10.854 43.07,-18.517 5.301,-3.71 8.792,-9.068 8.216,-15.642 -1.141,-13.481 -15.936,-21.484 -26.433,-26.45 -8.469,-2.961 -17.272,-5.531 -26.916,-5.19 l 21.247,-9.604 c 1.486,-0.403 2.178,1.083 2.754,2.063 0.783,2.114 0.968,4.793 -0.403,6.677 3.952,0.945 6.211,1.492 9.31,2.235 11.938,4.16 24.439,10.047 31.929,21.754 2.052,3.779 2.513,8.631 1.256,12.911 l 0.288,0.403 c 5.992,-2.063 8.158,-7.225 9.875,-13.418 -0.161,-7.092 -7.535,-11.257 -12.329,-15.48 -7.777,-5.772 -16.004,-10.335 -24.001,-15.538 -5.023,-2.979 -6.74,-9.489 -12.11,-11.661 -9.644,-3.076 -21.189,-1.25 -31.525,-0.789 -17.934,1.936 -34.665,6.792 -49.183,17.013 1.613,-13.026 4.574,-25.758 9.034,-37.695 2.108,-4.863 4.563,-10.975 10.163,-12.911 8.626,0.283 12.221,10.111 16.853,15.763 z"
       id="path3884"
       style="fill:none;stroke:#ffffff;stroke-width:0;stroke-linecap:square;stroke-miterlimit:2" /><path
       d="m 120.502,27.274 c 0.403,0.801 1.21,1.371 1.095,2.351 -10.059,4.166 -18.401,14.841 -23.713,23.869 h -0.277 c 1.475,-10.681 4.217,-20.792 8.792,-30.16 1.302,-1.769 2.108,-4.223 4.401,-5.087 4.967,0.345 6.799,5.887 9.702,9.027"
       id="path3886"
       style="fill:#162952" /><path
       d="m 120.502,27.274 c 0.403,0.801 1.21,1.371 1.095,2.351 -10.059,4.166 -18.401,14.841 -23.713,23.869 h -0.277 c 1.475,-10.681 4.217,-20.792 8.792,-30.16 1.302,-1.769 2.108,-4.223 4.401,-5.087 4.967,0.345 6.799,5.887 9.702,9.027 z"
       id="path3888"
       style="fill:none;stroke:#000000;stroke-width:0;stroke-linecap:square;stroke-miterlimit:2" /><path
       d="m 225.834,148.721 c 0.381,0 0.818,0.022 1.268,-0.139 0.807,-0.242 1.141,-0.761 1.049,-1.463 -0.092,-0.934 -0.749,-1.152 -1.025,-1.152 h -0.934 c -0.185,0 -0.357,0.092 -0.357,0.38 m -0.001,5.092 c 0,0.427 0.45,0.507 0.83,0.507 v 0.323 h -2.823 v -0.323 c 0.403,0 0.864,-0.115 0.864,-0.461 v -5.093 c 0,-0.507 -0.08,-0.53 -0.783,-0.53 v -0.311 h 2.949 c 0.461,0 0.968,0.012 1.371,0.173 0.277,0.092 0.703,0.334 0.922,0.703 0.461,0.817 0.035,1.717 -0.356,2.051 -0.196,0.173 -0.634,0.483 -1.245,0.495 l 2.132,2.72 c 0.185,0.253 0.403,0.253 0.634,0.253 v 0.323 h -1.683 l -2.351,-3.135 h -0.461 v 2.305 z m 0.911,-7.627 c -2.974,0 -5.404,2.42 -5.382,5.416 0,2.973 2.408,5.393 5.393,5.369 2.973,0 5.393,-2.396 5.393,-5.393 -0.001,-2.973 -2.42,-5.392 -5.404,-5.392 z m 0.011,11.5 c -3.376,0 -6.106,-2.72 -6.106,-6.107 -0.023,-3.364 2.73,-6.106 6.106,-6.106 3.365,0 6.096,2.742 6.096,6.106 0,3.387 -2.731,6.095 -6.096,6.107 z"
       id="path3890"
       style="fill:#162952" /></g></svg>