<?xml version="1.0" encoding="UTF-8" standalone="no"?>
<!-- Created with Inkscape (http://www.inkscape.org/) -->

<svg
   xmlns:dc="http://purl.org/dc/elements/1.1/"
   xmlns:cc="http://creativecommons.org/ns#"
   xmlns:rdf="http://www.w3.org/1999/02/22-rdf-syntax-ns#"
   xmlns:svg="http://www.w3.org/2000/svg"
   xmlns="http://www.w3.org/2000/svg"
   version="1.0"
   width="280"
   height="200"
   id="svg4679">
  <metadata
     id="metadata4684">
    <rdf:RDF>
      <cc:Work
         rdf:about="">
        <dc:format>image/svg+xml</dc:format>
        <dc:type
           rdf:resource="http://purl.org/dc/dcmitype/StillImage" />
        <dc:title></dc:title>
      </cc:Work>
    </rdf:RDF>
  </metadata>
  <defs
     id="defs4682" />
  <path
     d="m 116.34922,199.57205 c -1.83366,-0.12208 -7.50046,-0.83715 -12.59291,-1.58902 l -9.259011,-1.36705 -7.605029,-1.97462 c -14.497093,-3.7641 -24.190386,-8.43381 -33.352305,-16.06734 l -3.465704,-2.88756 -3.046382,-3.92313 -3.046382,-3.92314 -1.940622,-4.07303 c -1.067336,-2.24016 -2.298233,-5.49826 -2.735307,-7.24023 l -0.794694,-3.16722 -6.922049,0 -6.922048,0 0,-16.33614 0,-16.33615 6.667821,0 6.667811,0 0,-31.338719 0,-31.338724 -7.001209,0 -7.0012,0 0,-16.002752 0,-16.002752 35.339407,0 35.339408,0 0.0037,6.501118 0.0037,6.501118 3.218155,-5.667642 c 1.769927,-3.117203 6.74191,-11.893712 11.0488,-19.503355 L 116.78391,0 l 21.87928,0 21.87926,0 10.90906,19.38523 10.90904,19.385229 0.19086,-6.382994 0.19084,-6.382992 35.31526,0 35.31527,0 0,16.002752 0,16.002752 -7.00121,0 -7.0012,0 0,31.338724 0,31.338719 6.66781,0 6.66782,0 0,16.33615 0,16.33614 -6.9885,0 -6.98851,0 -0.39233,1.83365 c -0.84629,3.95524 -2.58563,8.03634 -5.33549,12.5189 l -2.87355,4.68422 -4.24997,4.08101 -4.24995,4.08102 -4.2976,2.78186 c -13.42403,8.68945 -30.40886,13.63736 -54.97297,16.0144 L 155.68932,200 137.68621,199.89701 c -9.9017,-0.0566 -19.50334,-0.20287 -21.33699,-0.32496 z m 40.05776,-36.93537 c 12.85152,-1.27878 25.49855,-4.52206 31.20694,-8.0029 l 2.08123,-1.26909 -14.83589,-0.003 -14.83588,-0.003 0,-16.33614 0,-16.33614 9.29691,0 9.2969,0 -4.02086,-7.00757 -4.02087,-7.00756 -32.04058,0.17305 -32.04058,0.17307 -3.84813,6.66781 -3.848141,6.66781 9.275681,0.18501 9.27567,0.185 0,16.30507 0,16.30509 -14.79556,0.17945 -14.795548,0.17945 4.293748,2.08123 c 6.693382,3.24436 16.62165,5.6692 27.96448,6.82993 l 5.66765,0.57997 11.71956,0.0886 11.71956,0.0886 7.28371,-0.72475 z m -5.05175,-89.718178 c 0,-0.411231 -11.86572,-21.567552 -12.47215,-22.237565 -0.36274,-0.400777 -0.17211,-0.710471 -7.48662,12.163206 l -5.96685,10.501805 12.96282,0 12.9628,0 0,-0.427446 z m -68.553887,-12.741485 1.317737,-2.16704 -2.721508,0 -2.721508,0 0.0025,4.500774 0.0025,4.500775 1.401265,-2.333735 c 0.770702,-1.283554 1.994259,-3.308903 2.719022,-4.500774 z m 115.338377,2.168438 -0.22359,-4.335478 -2.3402,0 -2.3402,0 1.63872,2.833821 c 0.90129,1.558601 1.99054,3.508937 2.42055,4.334079 1.08343,2.078984 1.09586,2.03731 0.84472,-2.832422 z"
     id="path2526"
     style="fill:#f7490f;fill-opacity:0.94117647" />
  <g
     transform="matrix(0.91749108,0,0,0.91749108,-664.11832,-0.0680306)"
     id="g2540"
     style="fill:#002649;fill-opacity:1">
    <path
       d="m 757.60809,152.78478 c 0.22487,-3.67511 0.40885,-8.19016 0.40885,-10.03345 l 0,-3.35145 11.45349,0 11.45348,0 37.04698,-65.687708 37.04697,-65.6877095 19.83215,-0.1655582 19.8322,-0.1655581 0.87377,1.4197387 c 0.48055,0.7808592 17.19268,30.4148261 37.13805,65.8532671 l 36.26431,64.433528 11.48164,0 11.48164,0 0,10.03345 0,10.03344 -42.95569,0 -42.95568,0 0,-9.93573 0,-9.93575 12.04026,-0.43226 c 6.62212,-0.23775 12.12936,-0.5214 12.23829,-0.63033 0.20636,-0.20635 -1.96202,-4.23794 -10.91676,-20.29712 l -5.33248,-9.56312 -39.06232,0 -39.06232,0 -8.53511,15.06455 c -4.69431,8.28552 -8.53511,15.19919 -8.53511,15.36372 0,0.16453 5.64381,0.29915 12.5418,0.29915 l 12.54181,0 0,10.03345 0,10.03344 -43.36454,0 -43.36451,0 0.40883,-6.68199 z M 900.60619,85.313342 C 896.62726,77.56551 875.84566,41.356118 875.1269,40.918798 874.54012,40.561776 857.09268,70.648685 849.01878,85.940432 l -0.74497,1.410954 26.6895,0 26.6895,0 -1.04662,-2.038044 z"
       id="path2532"
       style="fill:#002649;fill-opacity:1;fill-rule:evenodd;stroke:none" />
    <path
       d="m 773.06711,93.935834 0,-37.938963 -7.83863,0 -7.83863,0 0,-10.033445 0,-10.033445 31.04097,0 31.04097,0 0,10.033445 0,10.033445 -8.46572,0 -8.46572,0 0,15.344673 0,15.344687 -12.6958,22.594279 c -12.63075,22.47852 -12.70626,22.59429 -14.73662,22.59429 l -2.04082,0 0,-37.938966 z"
       id="path2534"
       style="fill:#002649;fill-opacity:1;fill-rule:evenodd;stroke:none" />
    <path
       d="m 851.76694,210.25615 c -30.37431,-3.26352 -48.37622,-8.98941 -63.23024,-20.11169 -4.95843,-3.71276 -6.56207,-5.34852 -8.86374,-9.04139 -3.50471,-5.62309 -5.96462,-10.85385 -5.97264,-12.70026 l -0.006,-1.41096 17.00029,0 17.00029,0 3.53692,3.24209 c 7.71395,7.07093 23.54915,12.23483 44.92487,14.65011 9.87853,1.11619 28.5069,0.94689 40.55796,-0.36862 9.20598,-1.00494 21.23154,-3.64681 27.48134,-6.03733 5.98918,-2.29081 13.4303,-6.79779 16.25688,-9.84651 l 1.52027,-1.63974 17.21406,0 17.21406,0 -0.40265,2.03805 c -0.67379,3.41069 -4.62587,11.09718 -7.42415,14.43942 -6.41712,7.66454 -19.65088,15.65341 -32.46376,19.59749 -8.21223,2.52791 -13.31371,3.6463 -26.02424,5.70526 -9.14223,1.48092 -11.95514,1.64298 -31.66806,1.82421 -11.89904,0.10937 -23.89214,-0.0437 -26.65134,-0.34012 l 0,-1e-5 z"
       id="path2536"
       style="fill:#002649;fill-opacity:1;fill-rule:evenodd;stroke:none" />
    <path
       d="m 960.09679,109.34804 -12.69858,-22.511138 0,-15.420019 0,-15.420012 -8.77927,0 -8.77926,0 0,-10.033445 0,-10.033445 31.35452,0 31.35451,0 0,10.033445 0,10.033445 -7.52508,0 -7.52509,0 0,37.938963 0,37.938966 -2.35159,-0.008 -2.35158,-0.008 -12.69858,-22.51112 z"
       id="path2538"
       style="fill:#002649;fill-opacity:1;fill-rule:evenodd;stroke:none" />
  </g>
</svg>
