<?xml version="1.0" encoding="UTF-8" standalone="no"?>
<!-- Created with Inkscape (http://www.inkscape.org/) -->

<svg
   xmlns:dc="http://purl.org/dc/elements/1.1/"
   xmlns:cc="http://creativecommons.org/ns#"
   xmlns:rdf="http://www.w3.org/1999/02/22-rdf-syntax-ns#"
   xmlns:svg="http://www.w3.org/2000/svg"
   xmlns="http://www.w3.org/2000/svg"
   version="1.1"
   width="280"
   height="200"
   id="svg2">
  <metadata
     id="metadata12">
    <rdf:RDF>
      <cc:Work
         rdf:about="">
        <dc:format>image/svg+xml</dc:format>
        <dc:type
           rdf:resource="http://purl.org/dc/dcmitype/StillImage" />
        <dc:title></dc:title>
      </cc:Work>
    </rdf:RDF>
  </metadata>
  <defs
     id="defs10" />
  <ellipse
     cx="189.10001"
     cy="123.2"
     rx="183.8"
     ry="117.5"
     transform="matrix(0.7464676,0,0,0.7464676,-1.1663556,9.535332)"
     id="ellipse4"
     style="fill:#ffffff;stroke:#ec151b;stroke-width:7.5" />
  <path
     d="M 53.997595,43.051727 C 84.901355,25.733679 121.25433,20.209819 156.33831,22.449222 c 25.60384,1.940816 50.90909,9.256198 72.85524,22.692615 11.86883,7.390029 22.91655,16.720874 29.63476,29.261529 H 196.19968 C 181.41962,59.996542 161.63823,50.14317 140.81179,49.620642 c -15.45188,0.298587 -30.75447,4.85204 -43.519065,13.36177 -9.55479,6.344975 -17.84058,15.227939 -20.9011,26.424949 -3.20981,11.047719 0.37324,22.916559 6.19568,32.322049 10.00267,15.52653 27.843245,24.85737 45.982415,26.4996 12.91389,1.1197 26.05172,-0.0746 38.36843,-4.10557 13.43642,-4.18022 25.60384,-14.03359 31.20235,-27.09677 H 114.98401 V 92.16929 h 150.41322 c 1.49293,-0.298579 1.19435,1.94082 1.41829,2.91123 0.22394,6.41962 0.37323,12.98853 -1.56759,19.25886 -4.85204,17.54199 -18.21381,31.50093 -33.29245,41.13037 C 202.32072,174.43002 166.26633,180.775 131.48094,180.40176 112.81925,179.6553 93.933615,176.81872 76.167685,170.2498 60.193285,164.27806 45.114635,155.3951 32.947213,143.30232 23.168488,132.92643 14.957344,120.38577 13.165822,105.97894 12.494001,98.29033 12.792588,90.377771 15.778458,83.137041 22.720607,65.445755 37.948546,52.457219 53.997595,43.051727 z"
     id="path6"
     style="fill:#1a1718" />
</svg>
