<?xml version="1.0" encoding="UTF-8" standalone="no"?>
<!-- Created with Inkscape (http://www.inkscape.org/) -->

<svg
   xmlns:dc="http://purl.org/dc/elements/1.1/"
   xmlns:cc="http://creativecommons.org/ns#"
   xmlns:rdf="http://www.w3.org/1999/02/22-rdf-syntax-ns#"
   xmlns:svg="http://www.w3.org/2000/svg"
   xmlns="http://www.w3.org/2000/svg"
   version="1.1"
   width="280"
   height="200"
   id="svg2"
   xml:space="preserve"><metadata
     id="metadata8"><rdf:RDF><cc:Work
         rdf:about=""><dc:format>image/svg+xml</dc:format><dc:type
           rdf:resource="http://purl.org/dc/dcmitype/StillImage" /><dc:title></dc:title></cc:Work></rdf:RDF></metadata><defs
     id="defs6" /><g
     transform="matrix(1.25,0,0,-1.25,-20.4725,220.47249)"
     id="g10"><g
       transform="matrix(0.0830065,0,0,0.0830065,48.378,16.378)"
       id="g12"><path
         d="m 0,0 1927.56,0 0,1927.56 L 0,1927.56 0,0 z"
         id="path14"
         style="fill:#ffffff;fill-opacity:1;fill-rule:evenodd;stroke:none" /><path
         d="m 1156.31,449.789 25.33,0 -56.27,119.555 -91.44,-86.047 0,-33.606 60.48,0 0,-278.117 -489.551,0 0,278.117 77.137,0 0,223.95 -116.527,0 -195.543,234.664 0,566.965 -75.571,0 0,289.71 490.571,0 0,-290.43 -53.453,0 0,-184.69 225.078,0 0,184.69 -63.305,0 0,290.34 486.734,0 0,-290.34 -54.85,0 0,-184.69 298.23,0 0,-278.04 -45.01,0 -222.28,-210.418 163.19,-351.711 112.54,0 0,-278.117 -475.49,0 0,278.215"
         id="path16"
         style="fill:#231f20;fill-opacity:1;fill-rule:evenodd;stroke:none" /><path
         d="m 393.609,1667.93 293.079,0 0,-82.56 -60.731,0 0,-312.03 -26.723,0 0,-261.52 74.555,0 0,-231.277 -56.266,0 -147.71,172.09 0,632.737 -76.204,0 0,82.56"
         id="path18"
         style="fill:#285eac;fill-opacity:1;fill-rule:evenodd;stroke:none" /><path
         d="m 991.488,1666.48 282.992,0 0,-81.03 -61.9,0 0,-295.59 -68.93,0 0,-260.66 26.03,0 -145.33,-140.626 1.52,140.626 64.33,0 0,260.66 -29.54,0 0,295.51 -69.172,0 0,81.11"
         id="path20"
         style="fill:#285eac;fill-opacity:1;fill-rule:evenodd;stroke:none" /><path
         d="m 700.758,1191.36 289.558,0 0,-91.41 -66.824,0 0,-430.22 438.438,431.09 -114.88,0 0,86.92 281.36,0 0,-74.76 -290.5,-293.328 215.23,-464.117 84.64,0 0,-91.254 -281.59,0 0,91.254 75.27,0 -179.37,378.07 -222.266,-217.714 0,-160.356 67.528,0 0,-91.254 -281.36,0 0,91.254 64.707,0 0,740.505 -79.941,0 0,95.32"
         id="path22"
         style="fill:#285eac;fill-opacity:1;fill-rule:evenodd;stroke:none" /><path
         d="m 1765.25,202.469 c 0,-22.031 -19.27,-39.895 -43.05,-39.895 -23.77,0 -43.04,17.864 -43.04,39.895 0,22.031 19.27,39.894 43.04,39.894 23.78,0 43.05,-17.863 43.05,-39.894 l 0,0 z m -42.84,33.804 c -20.13,0 -36.47,-15.136 -36.47,-33.804 0,-18.672 16.34,-33.809 36.47,-33.809 20.15,0 36.48,15.137 36.48,33.809 0,18.668 -16.33,33.804 -36.48,33.804 l 0,0"
         id="path24"
         style="fill:#285eac;fill-opacity:1;fill-rule:evenodd;stroke:none" /><path
         d="m 1714.7,220.227 7.56,0 c 4.46,0 7.69,-0.625 9.71,-1.883 2.01,-1.246 3.02,-3.235 3.02,-5.949 0,-2.54 -0.96,-4.387 -2.88,-5.52 -1.91,-1.141 -5.12,-1.711 -9.61,-1.711 l -7.8,0 0,15.063 z m 26.8,-15.008 c 2,2.164 3,4.871 3,8.097 0,4.137 -1.73,7.239 -5.16,9.325 -3.45,2.086 -8.59,3.129 -15.44,3.129 l -18.48,0 0,-45.403 9.28,0 0,19.363 9.09,0 9.97,-19.363 10.5,0 -11.09,20.723 c 3.56,0.574 6.34,1.949 8.33,4.129 l 0,0"
         id="path26"
         style="fill:#285eac;fill-opacity:1;fill-rule:evenodd;stroke:none" /></g></g></svg>