<?xml version="1.0" encoding="UTF-8" standalone="no"?>
<!-- Created with Inkscape (http://www.inkscape.org/) -->

<svg
   xmlns:dc="http://purl.org/dc/elements/1.1/"
   xmlns:cc="http://creativecommons.org/ns#"
   xmlns:rdf="http://www.w3.org/1999/02/22-rdf-syntax-ns#"
   xmlns:svg="http://www.w3.org/2000/svg"
   xmlns="http://www.w3.org/2000/svg"
   version="1.1"
   width="280"
   height="200"
   id="svg3000">
  <defs
     id="defs3002" />
  <metadata
     id="metadata3005">
    <rdf:RDF>
      <cc:Work
         rdf:about="">
        <dc:format>image/svg+xml</dc:format>
        <dc:type
           rdf:resource="http://purl.org/dc/dcmitype/StillImage" />
        <dc:title></dc:title>
      </cc:Work>
    </rdf:RDF>
  </metadata>
  <g
     transform="translate(-222.85709,-176.09258)"
     id="layer1">
    <g
       transform="matrix(0.61139376,0,0,0.61139376,208.48934,129.78943)"
       id="g3">
      <path
         d="m 69.256,183.591 c 0,37.678 0,75.356 0,113.035 26.132,0 52.264,0 78.396,0 0,8.51 0,17.017 0,25.525 -40.717,0 -81.435,0 -122.152,0 0,-46.186 0,-92.375 0,-138.561 14.585,0.001 29.17,0.001 43.756,0.001 z"
         id="path5"
         style="fill:#461d7c;fill-rule:evenodd;stroke:#fdd023;stroke-width:4" />
      <path
         d="m 313.562,183.591 c 0,7.9 0,15.799 0,23.701 l -80.219,0 c -11.766,0.772 -23.124,6.452 -23.702,16.408 -0.279,4.805 0.491,11.857 -0.02,16.645 0,0 74.818,-0.551 103.941,-0.236 0,20.054 0,40.109 0,60.164 -7.398,10.611 -18.442,17.905 -32.803,21.371 -4.984,1.203 -41.405,0.508 -58.356,0.508 -21.204,0 -41.82,0 -58.341,0 0,0 -0.076,-21.22 0.126,-25.912 15.735,0 35.448,0.387 52.746,0.387 17.192,0 34.598,1.993 47.403,-3.646 4.79,-4.936 3.27,-26.332 3.27,-26.332 0.599,-1.493 -103.418,-0.597 -103.418,-0.597 l -0.126,-49.644 c 2.22,-16.414 20.153,-32.255 32.817,-32.816 15.375,-0.682 37.069,0 58.343,0 20.724,-0.001 41.863,-0.001 58.339,-0.001 z"
         id="path7"
         style="fill:#461d7c;fill-rule:evenodd;stroke:#fdd023;stroke-width:4" />
      <path
         d="m 375.551,183.591 c 0,37.07 0,74.144 0,111.212 0.854,0.54 54.654,0.24 54.654,0.24 7.475,-8.968 5.381,-16.141 5.509,-54.935 0.069,-21.2 0,-41.796 0,-56.518 14.585,0 29.171,0 43.756,0 0,38.894 0,77.789 0,116.682 -2.336,6.428 -20.569,20.476 -30.434,21.371 -0.59,0.055 -44.284,0.508 -60.725,0.508 -19.287,0 -39.88,0 -56.519,0 0,-46.186 0,-92.375 0,-138.561 14.586,0.001 29.173,0.001 43.759,0.001 z"
         id="path9"
         style="fill:#461d7c;fill-rule:evenodd;stroke:#fdd023;stroke-width:4" />
    </g>
  </g>
</svg>
