<?xml version="1.0" encoding="UTF-8" standalone="no"?>
<!-- Created with Inkscape (http://www.inkscape.org/) -->
<svg xmlns:dc="http://purl.org/dc/elements/1.1/" xmlns:cc="http://creativecommons.org/ns#" xmlns:rdf="http://www.w3.org/1999/02/22-rdf-syntax-ns#" xmlns:svg="http://www.w3.org/2000/svg" xmlns="http://www.w3.org/2000/svg" xmlns:sodipodi="http://sodipodi.sourceforge.net/DTD/sodipodi-0.dtd" xmlns:inkscape="http://www.inkscape.org/namespaces/inkscape" width="403.99997" height="247.60641" id="svg2" version="1.1" inkscape:version="0.48.4 r" sodipodi:docname="MSUlogo.svg">
  <defs id="defs4"/>
  <sodipodi:namedview id="base" pagecolor="#ffffff" bordercolor="#666666" borderopacity="1.0" inkscape:pageopacity="0.0" inkscape:pageshadow="2" inkscape:zoom="3.2606281" inkscape:cx="197.74225" inkscape:cy="123.00621" inkscape:document-units="px" inkscape:current-layer="layer1" showgrid="false" fit-margin-top="2" fit-margin-left="2" fit-margin-right="2" fit-margin-bottom="2" inkscape:window-width="1920" inkscape:window-height="1005" inkscape:window-x="-9" inkscape:window-y="-9" inkscape:window-maximized="1"/>
  <metadata id="metadata7">
    <rdf:RDF>
      <cc:Work rdf:about="">
        <dc:format>image/svg+xml</dc:format>
        <dc:type rdf:resource="http://purl.org/dc/dcmitype/StillImage"/>
        <dc:title/>
      </cc:Work>
    </rdf:RDF>
  </metadata>
  <g inkscape:label="Layer 1" inkscape:groupmode="layer" id="layer1" transform="translate(-977.66682,-191.97107)">
    <path inkscape:connector-curvature="0" id="path3083-5-0" d="m 1036.7028,418.32257 0,-19.2539 4.0617,-6.19314 c 6.0363,-9.20371 6.6903,-10.24557 6.5311,-10.4047 -0.2259,-0.22588 -9.8884,5.08258 -17.1717,9.43378 -3.6154,2.16001 -6.7022,3.98446 -6.8595,4.05437 -0.1572,0.0699 -0.2859,-6.83513 -0.2859,-15.34447 0,-11.26269 -0.1174,-15.47157 -0.4315,-15.47157 -0.5243,0 -0.5388,0.009 -14.0552,8.42238 -5.9758,3.71976 -14.88535,9.43347 -19.79909,12.6971 -4.91374,3.26363 -8.97467,5.89331 -9.02426,5.84371 -0.0854,-0.0854 3.18982,-10.7064 8.25578,-26.77258 1.25619,-3.98384 4.90711,-15.64778 8.11317,-25.91984 l 5.8292,-18.67652 -1.8008,-4.00662 c -0.99035,-2.20365 -4.45721,-9.80038 -7.70402,-16.88163 l -5.90338,-12.875 3.48741,-2.42351 c 10.01649,-6.96073 19.47349,-12.43231 34.55759,-19.99401 6.6048,-3.31101 14.9679,-7.29474 18.5845,-8.85274 3.6167,-1.55799 6.576,-2.94833 6.5762,-3.08963 3e-4,-0.14131 -2.9159,-4.91496 -6.4804,-10.60811 l -6.4809,-10.35119 0,-18.84184 0,-18.84184 48.5114,0.008 48.5113,0.008 4.2954,6.75889 c 2.3624,3.7174 10.4254,16.26614 17.9178,27.88611 l 13.6224,21.1272 10.1025,0.002 10.1026,0.002 8.0955,-12.5511 c 4.4525,-6.90311 12.5155,-19.44993 17.9178,-27.88182 l 9.8223,-15.33067 48.5114,-0.0138 48.5114,-0.0138 0,18.83621 0,18.83622 -6.4809,10.37358 c -3.5645,5.70547 -6.4807,10.48165 -6.4805,10.61374 3e-4,0.13208 2.9596,1.51487 6.5762,3.07287 8.7984,3.79018 29.0871,13.9928 36.8835,18.54771 6.3024,3.68207 13.0132,7.94715 17.402,11.05998 l 2.3435,1.66214 -5.9001,12.87521 c -3.245,7.08137 -6.7117,14.67819 -7.7038,16.88184 l -1.8037,4.00662 5.8291,18.67653 c 3.2061,10.27206 6.857,21.936 8.1132,25.91984 4.955,15.71434 8.342,26.68638 8.2623,26.76598 -0.046,0.046 -3.8495,-2.41165 -8.4524,-5.46145 -13.3429,-8.84085 -32.8512,-21.05764 -34.1811,-21.40544 -0.6484,-0.16953 -0.6831,0.60989 -0.6831,15.33738 0,8.53382 -0.1286,15.45884 -0.2859,15.38892 -0.1573,-0.0699 -3.244,-1.89432 -6.8595,-4.05433 -7.4043,-4.42355 -16.947,-9.65848 -17.1805,-9.42494 -0.085,0.0849 2.2657,3.84722 5.2237,8.3607 l 5.378,8.20634 0,19.26488 0,19.26488 -53.1797,0 -53.1797,0 -0.097,-39.32843 -0.097,-39.32844 -13.776,21.69659 c -7.5768,11.93312 -15.7066,24.74165 -18.0662,28.4634 -2.3597,3.72175 -4.414,6.76682 -4.5652,6.76682 -0.1511,0 -2.2054,-3.04507 -4.565,-6.76682 -2.3596,-3.72175 -10.4895,-16.53028 -18.0663,-28.4634 l -13.776,-21.69659 -0.097,39.32844 -0.097,39.32843 -53.1797,0 -53.1796,0 z m -12.39,-135.78568 c -31.09732,104.69373 -15.5487,52.34686 0,0 z" style="fill:#d0d3d6" sodipodi:nodetypes="ccscscsssssssccscssscscccccsscccsscccccssssscsscsscscscscscccccccssssscccccccc"/>
    <path inkscape:connector-curvature="0" id="path3073-2-5" d="m 1045.0808,429.28474 c 0,-0.15726 0,-6.53053 0.01,-14.16286 l 0.018,-13.87696 6.472,-9.87716 6.4721,-9.87715 0,-6.45013 0,-6.45013 -1.0484,0.4399 c -3.4011,1.4271 -17.0755,8.25861 -21.4442,10.71315 l -5.1466,2.89166 -0.1,-14.84571 c -0.055,-8.16516 -0.2333,-14.84574 -0.3967,-14.84574 -1.1232,0 -19.5729,10.29566 -28.7742,16.05714 -3.30862,2.07175 -6.24691,3.76677 -6.52951,3.76677 -0.28265,0 -0.6813,-0.21444 -0.88598,-0.47654 -0.3606,-0.46178 0.67973,-3.91789 12.49729,-41.51737 l 3.4333,-10.92375 -3.2959,-7.18464 c -1.8127,-3.95155 -4.9139,-10.70067 -6.89143,-14.99806 -2.83784,-6.16693 -3.52073,-7.97447 -3.2406,-8.57765 0.19519,-0.42033 2.73394,-2.24367 5.64173,-4.05186 15.9515,-9.91952 31.969,-18.03074 50.0812,-25.36101 l 5.909,-2.39147 0.1099,-3.46544 0.1099,-3.46544 -6.5052,-10.4483 -6.5051,-10.4483 0,-13.6451 0,-13.64509 42.0212,0 42.0211,0 16.3191,25.35173 16.3191,25.35174 6.1932,-0.19062 c 3.4062,-0.10483 8.6807,-0.19061 11.721,-0.19061 3.0403,0 8.3147,0.0858 11.7209,0.19061 l 6.1932,0.19062 16.3191,-25.35174 16.3192,-25.35173 42.0211,0 42.0212,0 0,13.64509 0,13.6451 -6.5052,10.4483 -6.5051,10.4483 0.1098,3.46544 0.1099,3.46544 5.9091,2.39147 c 18.1122,7.33027 34.1297,15.44149 50.0812,25.36101 2.9077,1.80819 5.4465,3.63153 5.6417,4.05186 0.2801,0.60318 -0.4028,2.41072 -3.2406,8.57765 -1.9776,4.29739 -5.0787,11.04651 -6.8915,14.99806 l -3.2958,7.18464 3.4333,10.92375 c 11.8175,37.59948 12.8578,41.05559 12.4972,41.51737 -0.2046,0.2621 -0.6033,0.47654 -0.8859,0.47654 -0.2826,0 -3.2209,-1.69502 -6.5295,-3.76677 -9.2012,-5.76148 -27.6509,-16.05714 -28.7741,-16.05714 -0.1633,0 -0.3419,6.68058 -0.3967,14.84574 l -0.1,14.84571 -5.1466,-2.89166 c -4.3687,-2.45454 -18.0431,-9.28605 -21.4442,-10.71315 l -1.0484,-0.4399 0,6.4533 0,6.45325 5.5098,8.38548 c 3.0304,4.61204 5.9429,9.07146 6.4721,9.90986 l 0.9623,1.52438 0.027,14.03171 0.027,14.03171 -44.8128,0.0969 -44.8127,0.0969 0,-41.32207 0,-41.32203 -3.9076,-0.44722 c -2.1492,-0.24597 -4.3747,-0.53521 -4.9455,-0.64276 -0.9381,-0.17666 -1.1988,0.0548 -2.7097,2.40583 -0.9194,1.43071 -6.9485,10.9216 -13.3979,21.09089 -19.0571,30.04863 -19.8252,31.24725 -20.0243,31.24725 -0.1955,0 -1.74,-2.40685 -17.3601,-27.05373 -18.6853,-29.48342 -17.4403,-27.64674 -18.6935,-27.57686 -0.6139,0.0343 -2.8747,0.26801 -5.0239,0.51943 l -3.9076,0.45717 0,41.32047 0,41.32047 -44.7943,0 c -24.637,0 -44.7985,-0.12867 -44.8034,-0.28592 z m 12.9708,-70.14593 c 30.3414,-12.83347 63.4365,-21.09692 95.6885,-23.89217 18.0392,-1.56342 33.8079,-1.56342 51.8471,0 36.678,3.17885 74.9618,13.5994 107.7926,29.3402 l 5.8137,2.78739 0,-35.45408 0,-35.45411 -7.3387,-3.55312 c -35.5411,-17.20783 -73.2218,-27.22344 -113.3203,-30.12084 -8.8207,-0.63735 -28.921,-0.63735 -37.7417,0 -40.0703,2.89536 -77.9526,12.9626 -113.3203,30.11492 l -7.3387,3.55904 0,35.45411 0,35.45408 5.8138,-2.78739 c 3.1975,-1.53308 8.6443,-3.98468 12.104,-5.44803 z m 234.2653,-13.1781 c -9.1422,-3.73208 -23.3363,-8.61281 -32.4045,-11.14253 -2.7258,-0.7604 -5.1704,-1.44825 -5.4325,-1.52858 -0.344,-0.10537 -0.4766,-1.32736 -0.4766,-4.39278 l 0,-4.24682 0.9976,0.25037 c 0.5487,0.1377 1.4922,0.3493 2.0967,0.47019 l 1.0992,0.21986 0,-17.14229 0,-17.1423 -2.0967,-0.46924 -2.0968,-0.46923 0,-4.3568 c 0,-2.39623 0.062,-4.35679 0.138,-4.35679 0.076,0 2.6063,0.69421 5.6232,1.54268 7.785,2.18953 21.236,6.76499 28.7809,9.79007 l 6.4401,2.58211 0.1052,5.81375 c 0.058,3.19755 -0.01,5.81374 -0.1507,5.81374 -0.1408,0 -2.4612,-0.8807 -5.1565,-1.95711 l -4.9006,-1.9571 0,-1.46417 c 0,-1.82964 0,-1.83121 -8.8787,-4.86656 -4.9596,-1.69608 -6.8318,-2.18913 -6.9678,-1.83491 -0.1022,0.26641 -0.1383,3.1181 -0.08,6.3371 l 0.1057,5.85273 5.909,2.07772 c 3.25,1.14274 6.5095,2.29288 7.2434,2.55585 l 1.3343,0.47814 0.1092,3.91615 c 0.101,3.62706 0.059,3.89686 -0.5719,3.65482 -3.8006,-1.45846 -13.8097,-4.68345 -13.9866,-4.50657 -0.1254,0.12542 -0.228,3.10571 -0.228,6.62288 0,4.69725 0.1265,6.47675 0.4765,6.70328 0.381,0.24658 12.2266,4.49767 14.8467,5.3281 0.5385,0.17067 0.6652,-0.11029 0.7624,-1.69026 l 0.1166,-1.89494 4.956,2.00073 4.956,2.00069 0.1104,3.30515 c 0.061,1.81781 0.061,4.62972 0,6.24868 l -0.1104,2.94359 z m -226.736,-4.53129 -3.717,-2.31056 0,-3.09699 0,-3.09699 4.4794,-1.79997 c 2.4637,-0.98998 4.7797,-1.90805 5.1466,-2.04015 0.598,-0.21524 0.6672,0.0606 0.6672,2.65984 0,1.59502 0.1286,2.89917 0.2859,2.89818 0.1573,0 3.717,-1.18292 7.9105,-2.62644 l 7.6246,-2.62461 0.1033,-7.47613 c 0.089,-6.43955 0.024,-7.47613 -0.4688,-7.47613 -0.6243,0 -13.5016,4.46593 -17.1415,5.9448 -1.2418,0.50453 -2.4876,0.91733 -2.7685,0.91733 -0.2808,0 -1.7095,-0.79716 -3.1747,-1.77147 l -2.664,-1.77146 0.016,-6.9015 0.016,-6.9015 4.273,-5.88993 c 4.9387,-6.80756 3.2885,-5.78059 16.5844,-10.32033 l 7.7365,-2.64157 4.1675,2.75441 4.1675,2.7544 0.01,2.36799 0.01,2.36799 -1.6202,0.42462 c -1.7623,0.46186 -7.8079,2.26274 -8.5777,2.55516 -0.3434,0.13046 -0.4765,-0.37414 -0.4765,-1.80671 0,-1.73688 -0.084,-1.95526 -0.6672,-1.73056 -0.3669,0.14144 -3.2404,1.12975 -6.3855,2.19626 -3.1452,1.06651 -6.4476,2.24969 -7.3387,2.6293 l -1.6202,0.6902 0,5.73198 c 0,3.1526 0.1511,5.73199 0.3358,5.73199 0.1847,0 1.5143,-0.44605 2.9545,-0.99121 4.4521,-1.68516 15.92,-5.50867 16.7251,-5.57626 0.4198,-0.0353 2.0925,0.8328 3.717,1.929 l 2.9536,1.9931 -0.01,8.28011 -0.01,8.28011 -4.443,5.60129 -4.4429,5.60128 -5.9394,1.94061 c -3.2666,1.06733 -7.7277,2.62114 -9.9134,3.45291 -2.1858,0.83176 -4.1587,1.50014 -4.3842,1.48523 -0.2255,-0.0149 -2.0826,-1.06679 -4.127,-2.33762 z m 53.9309,-16.33704 0.1083,-4.31552 1.1436,-0.2699 c 0.6291,-0.14845 1.6155,-0.37676 2.1921,-0.50736 l 1.0484,-0.23745 0,-16.95743 c 0,-15.89467 -0.042,-16.95762 -0.6672,-16.96036 -0.3669,-0.002 -2.5049,0.3747 -4.7511,0.83626 l -4.084,0.8392 -0.1095,3.04262 -0.1095,3.04262 -3.8123,0.86814 c -2.0968,0.47747 -3.9447,0.87638 -4.1064,0.88648 -0.1618,0.0101 -0.2476,-3.28004 -0.1907,-7.31139 l 0.1036,-7.32973 2.8592,-0.67968 c 10.9808,-2.61033 30.7002,-5.9283 39.0759,-6.57489 1.6775,-0.12949 3.4359,-0.31589 3.9076,-0.41423 l 0.8578,-0.17879 0,7.4038 0,7.4038 -2.3827,0.24106 c -1.3104,0.13258 -3.1975,0.33707 -4.1935,0.45443 l -1.8108,0.21338 0,-2.83146 c 0,-1.5573 -0.087,-2.91865 -0.1938,-3.02524 -0.1822,-0.18225 -6.9946,0.61083 -8.8604,1.03152 l -0.8578,0.19341 0,16.99486 0,16.99487 2.2874,-0.26548 2.2874,-0.26548 0,4.42157 0,4.42156 -0.9316,0 c -0.8457,0 -14.6647,2.25908 -17.6663,2.888 l -1.2519,0.26232 z m 110.2835,2.86688 c -0.4758,-0.18006 -12.1872,-1.93508 -15.1539,-2.27087 l -2.192,-0.24814 0,-4.32055 0,-4.32055 2.2873,0.20741 2.2874,0.20741 0,-17.01038 0,-17.01038 -0.8578,-0.1902 c -0.7126,-0.15802 -7.7977,-0.96801 -8.4673,-0.96801 -0.1131,0 -0.2056,1.27652 -0.2056,2.83671 0,1.5602 -0.1287,2.90307 -0.2859,2.98416 -0.1573,0.0811 -2.1302,-0.0216 -4.3842,-0.22818 l -4.0982,-0.37561 0,-7.37724 0,-7.37723 2.0015,0.20364 c 1.1008,0.11201 4.7143,0.46052 8.03,0.77446 10.2369,0.96928 25.6234,3.45459 34.9535,5.64591 l 2.0968,0.49245 0.1037,7.35679 c 0.098,6.96979 0.067,7.34718 -0.5942,7.17427 -0.3839,-0.10039 -2.2684,-0.49996 -4.1878,-0.88794 l -3.4898,-0.70542 -0.1095,-3.06252 -0.1094,-3.06252 -4.5748,-0.82688 c -2.5161,-0.45479 -4.6176,-0.78531 -4.67,-0.73449 -0.053,0.0508 -0.095,7.74733 -0.095,17.10335 l 0,17.01096 1.4297,0.24118 c 2.9476,0.49727 2.7639,0.17985 2.7639,4.77504 l 0,4.16782 -1.0484,-0.0301 c -0.5766,-0.0164 -1.2199,-0.095 -1.4296,-0.17434 z m -79.7852,-7.46167 0.1083,-4.34259 2.05,-0.19061 2.05,-0.19062 1.0802,-3.04983 c 0.5941,-1.67741 4.0678,-11.45593 7.7193,-21.73006 l 6.6392,-18.68023 1.6675,-0.25766 c 0.9172,-0.14172 3.6672,-0.27038 6.1111,-0.28592 l 4.4437,-0.0282 0.6378,1.81084 c 1.1837,3.36088 10.5546,30.74209 12.2968,35.93084 0.9505,2.83063 1.8972,5.36104 2.1038,5.62313 0.2173,0.27558 1.2403,0.47654 2.4258,0.47654 l 2.0501,0 0,4.43678 0,4.43678 -2.3827,-0.23361 c -1.3104,-0.12848 -5.5135,-0.34986 -9.3401,-0.49194 l -6.9574,-0.25832 0,-4.32608 0,-4.32607 1.9061,0 c 1.0484,0 1.9003,-0.12867 1.8931,-0.28592 -0.01,-0.15726 -0.5858,-1.91568 -1.2858,-3.9076 l -1.2726,-3.62168 -1.6801,-0.31182 c -0.9241,-0.1715 -4.8213,-0.1715 -8.6604,0 l -6.9802,0.31182 -1.437,3.89786 c -0.7903,2.14382 -1.3468,3.98801 -1.2366,4.09821 0.1102,0.1102 1.0295,0.20036 2.043,0.20036 l 1.8425,0 0,4.16608 0,4.1661 -2.0014,0.20263 c -1.1008,0.11144 -3.8885,0.29782 -6.195,0.41415 -2.3064,0.11633 -5.4431,0.31902 -6.9704,0.4504 l -2.7769,0.23889 0.1083,-4.34259 z m 27.2,-21.68851 3.921,0 -2.6579,-7.70614 c -2.65,-7.68332 -2.8566,-8.1978 -3.1672,-7.88716 -0.247,0.24701 -5.5543,15.23708 -5.5543,15.68774 0,0.24515 0.6582,0.30021 1.7687,0.14799 0.9729,-0.13333 3.5332,-0.24243 5.6897,-0.24243 z m -159.3721,50.4053 c 3.1418,-1.68354 7.2135,-3.80161 9.0481,-4.7068 l 3.3358,-1.64585 0,-25.77953 c 0,-24.68859 0.03,-25.80681 0.7121,-26.42404 0.9965,-0.90176 14.3789,-7.58792 21.0179,-10.50103 3.0403,-1.33404 5.7423,-2.59336 6.0044,-2.7985 0.6174,-0.48319 0.6864,-10.5728 0.072,-10.5728 -1.343,0 -16.5516,6.73466 -26.7865,11.8616 -11.2682,5.64452 -24.2753,13.10292 -24.2753,13.9197 0,0.24477 2.6591,6.23013 5.909,13.3008 3.25,7.07068 5.9091,13.13077 5.9091,13.46687 0,0.33611 -2.4017,8.27903 -5.3372,17.65094 -2.9355,9.37187 -5.3372,17.15584 -5.3372,17.2977 0,0.14181 0.9034,-0.25196 2.0075,-0.87512 1.1041,-0.62312 4.5781,-2.51039 7.7199,-4.19394 z m 328.0641,-12.15674 c -2.9479,-9.41145 -5.3598,-17.38673 -5.3598,-17.72284 0,-0.3361 2.6591,-6.39619 5.9091,-13.46687 3.25,-7.07067 5.909,-13.05603 5.909,-13.3008 0,-0.41587 -6.4027,-4.36506 -13.6389,-8.41252 -4.2378,-2.37031 -17.152,-8.81114 -22.5778,-11.26045 -5.5097,-2.48719 -14.3101,-6.10833 -14.845,-6.10833 -0.6141,0 -0.545,10.08961 0.072,10.5728 0.2621,0.20514 2.9641,1.46446 6.0044,2.7985 6.6391,2.91311 20.0215,9.59927 21.0179,10.50103 0.682,0.6172 0.7122,1.73627 0.7137,26.4137 l 0,25.76917 5.431,2.74931 c 2.987,1.51211 7.9185,4.11259 10.9588,5.77887 3.0403,1.66627 5.5808,2.97797 5.6457,2.91487 0.065,-0.0631 -2.2941,-7.815 -5.242,-17.22644 z" style="fill:#620b0c" sodipodi:nodetypes="cccccccsscsssscscsscsscccccccccccssscccccccccccsscsscscsssscsscccsscccccccscsssscccccsccsssscccsssscccsssscscsccccccsssscssscsssscsscsscscsscccsscsccccscscscssssscccsscccccssscsscssscscccccsscccccsscscscccscscssscccsscssscccccccsscccccccccccssssscccssscssscccscscsscccccccsscsscsssscccsscccscscsscssscccssscccscssssssscscssssssssscscsssssssssscssccc"/>
    <path style="fill:#ffffff;fill-opacity:1;stroke:none" d="m 30.807914,161.61416 c 0.219171,-0.57115 7.590481,-24.64249 9.149895,-29.87938 l 1.300168,-4.36629 -1.093691,-2.68757 c -0.601531,-1.47817 -3.256853,-7.51387 -5.900716,-13.41268 -4.503707,-10.04837 -4.772025,-10.75123 -4.25236,-11.13893 6.833447,-5.098175 38.440273,-21.054711 48.762389,-24.617427 l 1.590939,-0.549118 0.212106,1.697623 c 0.28147,2.252834 -0.115754,8.13297 -0.577843,8.55378 -0.199443,0.181628 -3.467856,1.767715 -7.263137,3.524637 -7.546052,3.49324 -16.604165,8.004034 -18.586322,9.25569 -1.105857,0.698306 -1.282419,0.970051 -1.456774,2.242115 -0.109122,0.79613 -0.198403,12.46003 -0.198403,25.91979 l 0,24.47228 -5.443737,2.82771 c -2.994055,1.55525 -7.822036,4.11747 -10.728847,5.69382 -2.906811,1.57636 -5.371258,2.8661 -5.476549,2.8661 -0.105291,0 -0.121994,-0.18097 -0.03712,-0.40215 z" id="path3249" inkscape:connector-curvature="0" transform="translate(977.66682,191.97107)"/>
    <path style="fill:#ffffff;fill-opacity:1;stroke:none" d="m 62.614914,139.91542 0,-35.29625 6.21046,-3.00328 C 88.893617,91.9112 107.56979,85.080067 128.39979,79.825514 c 16.74046,-4.222931 30.9718,-6.642253 49.99036,-8.498344 8.06285,-0.786883 39.16732,-0.786883 47.23017,0 40.76849,3.978746 74.29948,13.269328 109.87147,30.44258 l 5.90377,2.85019 0,35.27069 0,35.27068 -4.69718,-2.24498 c -31.54883,-15.07855 -66.37855,-25.06941 -101.08349,-28.99568 -49.69812,-5.62249 -101.4615,1.5927 -149.691583,20.8652 -6.094121,2.43518 -17.069608,7.27829 -21.084895,9.30404 l -2.223498,1.12178 0,-35.29625 z m 254.858876,8.94481 0,-6.40892 -4.98371,-1.99597 c -2.74103,-1.09778 -5.01566,-1.96558 -5.05472,-1.92845 -0.0391,0.0371 -0.18519,0.8176 -0.32473,1.73439 -0.18167,1.19364 -0.37918,1.64463 -0.6957,1.58852 -0.24309,-0.0431 -3.64199,-1.2098 -7.55309,-2.59266 -5.72991,-2.02594 -7.14384,-2.63619 -7.27968,-3.14187 -0.0927,-0.34518 -0.17048,-3.28691 -0.17278,-6.5372 l -0.004,-5.90961 0.8434,0.19026 c 0.46386,0.10465 3.66259,1.13537 7.10827,2.29048 3.44569,1.15512 6.37841,2.03005 6.51715,1.9443 0.13875,-0.0858 0.25227,-1.85661 0.25227,-3.93525 l 0,-3.77935 -4.9837,-1.77129 c -2.74104,-0.9742 -6.01878,-2.13946 -7.28387,-2.58945 l -2.30018,-0.81817 -0.0832,-6.03402 c -0.0622,-4.5102 0.009,-6.03402 0.28214,-6.03402 0.67111,0 12.35587,4.00281 13.75538,4.71213 1.29757,0.65766 1.38927,0.7877 1.53345,2.17451 l 0.15334,1.47502 4.48799,1.76762 c 2.46838,0.97219 4.78005,1.86032 5.13704,1.97363 0.6458,0.20497 0.64907,0.17595 0.64907,-5.7696 l 0,-5.9756 -5.44374,-2.15824 c -2.99405,-1.18704 -8.13493,-3.112241 -11.42418,-4.278227 -9.00743,-3.192995 -23.73999,-7.699584 -24.07515,-7.364421 -0.0764,0.07643 -0.23156,2.078688 -0.34474,4.449458 l -0.20577,4.310491 1.65538,0.374913 c 0.91045,0.206203 1.89689,0.441169 2.19208,0.522147 0.50291,0.137962 0.5367,1.216019 0.5367,17.120159 l 0,16.97293 -1.76346,-0.42144 c -2.8489,-0.68085 -2.65137,-0.98722 -2.42374,3.75899 0.11084,2.31126 0.30529,4.30605 0.4321,4.43286 0.12681,0.12681 3.26625,1.12646 6.97653,2.22144 10.27247,3.03163 26.36099,8.6504 32.16738,11.23416 0.69331,0.30852 1.36408,0.57069 1.49059,0.5826 0.12651,0.0119 0.23002,-2.86235 0.23002,-6.38725 z m -217.694505,0.46629 c 4.102415,-1.41297 8.612605,-2.94744 10.022655,-3.40993 l 2.56371,-0.8409 4.41263,-5.56073 4.41263,-5.56073 9.2e-4,-8.5175 9.2e-4,-8.51751 -2.60677,-1.69918 c -1.43373,-0.93455 -3.05535,-1.7691 -3.6036,-1.85456 -1.09971,-0.17141 -4.87591,0.95177 -14.36927,4.27396 l -5.705203,1.99653 -0.19717,-3.42165 c -0.108446,-1.88191 -0.1978,-4.40823 -0.198566,-5.61404 l -0.0015,-2.19238 2.223498,-0.80662 c 1.222924,-0.44365 4.707685,-1.68549 7.743905,-2.75967 6.13281,-2.1697 5.91683,-2.18276 5.95889,0.3605 0.0138,0.83322 0.15985,1.29937 0.40492,1.29218 0.21085,-0.006 2.59152,-0.67253 5.29039,-1.48075 l 4.90703,-1.4695 0.0832,-2.58288 0.0832,-2.582893 -4.19211,-2.710308 -4.19212,-2.710307 -7.85202,2.669091 c -8.681733,2.951135 -11.742923,4.266221 -12.953872,5.564977 -0.444514,0.47675 -2.41116,3.07064 -4.370324,5.7642 l -3.562143,4.89739 0,7.06811 0,7.06812 2.530187,1.58925 c 1.391603,0.87409 2.751317,1.67252 3.021586,1.77428 0.270269,0.10176 3.927542,-1.04952 8.127269,-2.5584 6.775727,-2.43439 11.611567,-4.0346 12.192607,-4.0346 0.10832,0 0.19632,3.27775 0.19556,7.28388 l -0.002,7.28387 -7.52226,2.57154 c -4.13725,1.41435 -7.581264,2.51255 -7.65337,2.44044 -0.07211,-0.0721 -0.225932,-1.26815 -0.34183,-2.65787 -0.115898,-1.38972 -0.313584,-2.59033 -0.439305,-2.66803 -0.125721,-0.0777 -2.417187,0.72469 -5.092148,1.78308 l -4.863421,1.92435 -0.08701,3.28342 -0.08701,3.28342 1.608737,1.00027 c 3.265873,2.03062 5.935766,3.55006 6.287476,3.57819 0.198904,0.0159 3.718166,-1.12714 7.820581,-2.54011 l 0,0 z M 150.07308,136.1269 c 4.44157,-0.74484 8.86913,-1.45079 9.83904,-1.56878 l 1.76346,-0.21453 0,-4.57084 0,-4.57085 -0.69005,0.14066 c -0.37953,0.0774 -1.4146,0.22275 -2.30017,0.32309 l -1.61012,0.18244 0,-16.85411 0,-16.854109 0.8434,-0.160926 c 1.34684,-0.256987 4.98714,-0.756182 6.85806,-0.940447 l 1.72102,-0.169502 0.19313,1.60781 c 0.10622,0.884295 0.19432,2.194353 0.19579,2.91124 0.002,1.036218 0.11269,1.303252 0.53937,1.302565 0.63917,-0.001 5.63624,-0.558185 7.05385,-0.786481 l 0.99675,-0.160517 0,-7.51389 0,-7.513889 -0.99675,0.161956 c -0.5482,0.08908 -3.54992,0.448644 -6.67049,0.79904 -9.93306,1.115344 -19.29214,2.672303 -31.6361,5.262925 l -7.56098,1.586821 -0.22343,4.767347 c -0.20638,4.403414 -0.0563,9.719637 0.2839,10.059887 0.0792,0.0792 1.94781,-0.23606 4.15249,-0.70056 l 4.00849,-0.84455 0,-3.028271 c 0,-2.144425 0.11189,-3.068623 0.38337,-3.166522 1.00841,-0.363662 8.38211,-1.581593 8.55969,-1.413826 0.11132,0.105173 0.30214,7.662189 0.42405,16.793379 l 0.22164,16.60215 -2.34086,0.55185 -2.34086,0.55186 0,4.39092 c 0,2.41501 0.0578,4.39092 0.12837,4.39092 0.0706,0 3.76237,-0.60941 8.20394,-1.35426 l 0,0 z m 104.52938,-3.97525 c 0,-2.95096 -0.10977,-4.19386 -0.39102,-4.42728 -0.21507,-0.17849 -1.11214,-0.42018 -1.99349,-0.5371 l -1.60245,-0.21257 0,-16.97408 0,-16.974083 0.8434,0.153664 c 0.46387,0.08452 2.41308,0.420155 4.33158,0.745866 1.91849,0.325712 3.55914,0.663165 3.64587,0.749896 0.0867,0.08673 0.2263,1.469381 0.31016,3.072555 0.12221,2.336532 0.25074,2.942162 0.64777,3.052472 2.03535,0.56546 7.15432,1.45151 7.53712,1.30461 0.4064,-0.15595 0.47209,-1.18075 0.47209,-7.364733 l 0,-7.183578 -0.76698,-0.192499 c -5.65982,-1.420525 -20.15335,-3.983658 -28.68405,-5.072683 -4.41918,-0.56415 -16.7133,-1.855169 -17.6664,-1.855169 -0.34331,0 -0.41943,1.357909 -0.41943,7.482764 l 0,7.482763 2.07016,0.17949 c 1.13858,0.09872 3.11902,0.26501 4.40096,0.369534 l 2.33081,0.190045 0.19938,-1.454626 c 0.10966,-0.800044 0.19937,-2.125414 0.19937,-2.945268 0,-0.819853 0.10351,-1.489389 0.23002,-1.487858 0.68834,0.0083 8.26352,0.94855 8.5873,1.065846 0.30036,0.108806 0.38337,3.787171 0.38337,16.987712 0,15.88248 -0.0308,16.84274 -0.53671,16.74267 -0.29519,-0.0584 -1.33027,-0.17351 -2.30017,-0.25582 l -1.76346,-0.14966 0,4.43446 c 0,3.28642 0.0992,4.46198 0.38336,4.54076 0.21085,0.0585 2.72953,0.41532 5.59708,0.79302 2.86754,0.3777 6.59382,0.9318 8.28061,1.23134 1.68679,0.29955 3.65344,0.5594 4.37033,0.57746 l 1.30342,0.0328 0,-4.10276 z m -73.60886,0.26559 c 3.96584,-0.25497 7.65915,-0.53725 8.20736,-0.62728 l 0.99674,-0.16369 0,-4.27975 0,-4.27976 -1.84014,0 c -1.01208,0 -1.84168,-0.10351 -1.84357,-0.23002 -0.002,-0.1265 0.56572,-1.90629 1.26137,-3.95507 l 1.26481,-3.72506 5.64116,-0.22265 c 7.14514,-0.28201 11.10348,-0.11499 11.48125,0.48444 0.50925,0.80806 2.4229,6.80883 2.25697,7.07732 -0.0899,0.14539 -0.91429,0.26435 -1.83207,0.26435 l -1.66869,0 0,4.447 0,4.44699 0.99674,0.003 c 1.51056,0.004 12.61473,0.56465 15.48781,0.78135 l 2.53019,0.19085 0,-4.62787 0,-4.62787 -1.91681,-0.005 c -1.05425,-0.002 -2.08445,-0.11122 -2.28935,-0.24143 -0.53493,-0.33992 -1.25038,-2.31608 -8.68264,-23.982332 l -6.68051,-19.474775 -4.70642,0.07508 c -2.58853,0.04129 -5.39949,0.150798 -6.24659,0.243345 l -1.54016,0.168267 -7.69548,21.684947 -7.69548,21.68494 -1.99951,0.27386 -1.99951,0.27385 -0.18903,1.37907 c -0.10396,0.75835 -0.18902,2.73978 -0.18902,4.40302 l 0,3.02409 0.83998,0 c 0.462,0 4.08476,-0.20861 8.0506,-0.46358 l 0,0 z" id="path3251" inkscape:connector-curvature="0" transform="translate(977.66682,191.97107)"/>
    <path style="fill:#ffffff;fill-opacity:1;stroke:none" d="m 192.34422,106.76153 c 4.5e-4,-0.30675 2.86995,-8.547698 4.25392,-12.21688 1.19408,-3.16574 1.22064,-3.204668 1.56897,-2.300171 1.59628,4.14497 5.01323,14.261961 4.86611,14.407691 -0.20665,0.20471 -10.6893,0.31195 -10.689,0.10936 z" id="path3253" inkscape:connector-curvature="0" transform="translate(977.66682,191.97107)"/>
    <path style="fill:#ffffff;fill-opacity:1;stroke:none" d="m 362.09709,156.19829 -10.42744,-5.49733 -0.15334,-25.76719 c -0.13308,-22.36126 -0.21415,-25.826779 -0.61338,-26.217979 -1.00462,-0.984419 -12.13393,-6.569947 -23.30839,-11.697911 -1.77113,-0.812773 -3.39223,-1.629809 -3.60243,-1.815636 -0.47976,-0.424128 -0.8579,-6.143763 -0.56249,-8.508127 l 0.21453,-1.717083 3.03374,1.182285 c 8.21324,3.200793 25.09263,11.155864 33.42572,15.75317 5.29194,2.919527 13.34035,7.779703 13.85923,8.369151 0.44858,0.50959 0.16935,1.25094 -3.78823,10.05751 -5.88406,13.09346 -7.31079,16.4197 -7.31079,17.04416 0,0.29548 2.2133,7.82925 4.91845,16.74172 5.60237,18.45774 5.35437,17.58687 5.00553,17.57759 -0.1448,-0.004 -4.95562,-2.48081 -10.69071,-5.50433 z" id="path3255" inkscape:connector-curvature="0" transform="translate(977.66682,191.97107)"/>
  </g>
</svg>