<?xml version="1.0" encoding="UTF-8" standalone="no"?>
<!-- Created with Inkscape (http://www.inkscape.org/) -->

<svg
   xmlns:dc="http://purl.org/dc/elements/1.1/"
   xmlns:cc="http://creativecommons.org/ns#"
   xmlns:rdf="http://www.w3.org/1999/02/22-rdf-syntax-ns#"
   xmlns:svg="http://www.w3.org/2000/svg"
   xmlns="http://www.w3.org/2000/svg"
   version="1.1"
   width="284"
   height="200"
   id="svg2">
  <defs
     id="defs4" />
  <metadata
     id="metadata7">
    <rdf:RDF>
      <cc:Work
         rdf:about="">
        <dc:format>image/svg+xml</dc:format>
        <dc:type
           rdf:resource="http://purl.org/dc/dcmitype/StillImage" />
        <dc:title></dc:title>
      </cc:Work>
    </rdf:RDF>
  </metadata>
  <g
     transform="translate(-1037.6668,-203.03585)"
     id="layer1">
    <path
       d="m 1079.592,375.55809 0,-13.47773 2.8432,-4.3352 c 4.2254,-6.4426 4.6832,-7.1719 4.5717,-7.28329 -0.1581,-0.15812 -6.9218,3.55781 -12.0201,6.60365 -2.5308,1.512 -4.6916,2.78912 -4.8017,2.83806 -0.11,0.0489 -0.2001,-4.7846 -0.2001,-10.74113 0,-7.88389 -0.082,-10.8301 -0.3021,-10.8301 -0.367,0 -0.3771,0.006 -9.8386,5.89566 -4.1831,2.60383 -10.4198,6.60343 -13.8594,8.88797 -3.4396,2.28454 -6.2822,4.12532 -6.317,4.0906 -0.06,-0.0598 2.2329,-7.49448 5.7791,-18.74081 0.8793,-2.78869 3.435,-10.95344 5.6792,-18.14389 l 4.0804,-13.07356 -1.2605,-2.80464 c -0.6933,-1.54255 -3.1201,-6.86026 -5.3928,-11.81714 l -4.1324,-9.0125 2.4412,-1.69646 c 7.0115,-4.87251 13.6314,-8.70262 24.1903,-13.99581 4.6234,-2.3177 10.4775,-5.10631 13.0092,-6.19691 2.5316,-1.0906 4.6032,-2.06384 4.6033,-2.16275 2e-4,-0.0989 -2.0411,-3.44047 -4.5363,-7.42567 l -4.5366,-7.24584 0,-13.18929 0,-13.18929 33.958,0.006 33.9579,0.006 3.0068,4.73123 c 1.6536,2.60218 7.2977,11.3863 12.5424,19.52028 l 9.5357,14.78904 7.0718,10e-4 7.0718,0.001 5.6668,-8.78577 c 3.1168,-4.83218 8.7609,-13.61496 12.5425,-19.51728 l 6.8756,-10.73147 33.958,-0.01 33.958,-0.01 0,13.18535 0,13.18535 -4.5367,7.26151 c -2.4951,3.99383 -4.5365,7.33716 -4.5363,7.42962 2e-4,0.0925 2.0717,1.06041 4.6033,2.15101 6.1589,2.65313 20.361,9.79496 25.8185,12.9834 4.4117,2.57745 9.1092,5.563 12.1814,7.74198 l 1.6404,1.1635 -4.13,9.01265 c -2.2715,4.95696 -4.6982,10.27473 -5.3927,11.81729 l -1.2626,2.80463 4.0804,13.07358 c 2.2443,7.19044 4.7999,15.3552 5.6792,18.14389 3.4685,11.00004 5.8394,18.68046 5.7836,18.73618 -0.032,0.0322 -2.6946,-1.68815 -5.9166,-3.82301 -9.3401,-6.1886 -22.9959,-14.74035 -23.9268,-14.98381 -0.4539,-0.11867 -0.4782,0.42692 -0.4782,10.73617 0,5.97367 -0.09,10.82119 -0.2001,10.77224 -0.1101,-0.0489 -2.2708,-1.32602 -4.8017,-2.83803 -5.183,-3.09648 -11.8629,-6.76094 -12.0263,-6.59746 -0.06,0.0594 1.586,2.69306 3.6566,5.85249 l 3.7646,5.74444 0,13.48542 0,13.48542 -37.2258,0 -37.2258,0 -0.068,-27.52991 -0.068,-27.52991 -9.6432,15.18762 c -5.3038,8.35318 -10.9946,17.31915 -12.6464,19.92438 -1.6518,2.60522 -3.0898,4.73677 -3.1956,4.73677 -0.1058,0 -1.5438,-2.13155 -3.1955,-4.73677 -1.6517,-2.60523 -7.3427,-11.5712 -12.6464,-19.92438 l -9.6432,-15.18762 -0.068,27.52991 -0.068,27.52991 -37.2258,0 -37.2257,0 z m -8.673,-95.04999 c -21.7681,73.28562 -10.8841,36.64281 0,0 z"
       id="path3083-5-0"
       style="fill:#d0d3d6" />
    <path
       d="m 1085.4566,383.23161 c 0,-0.11008 0,-4.57137 0.01,-9.914 l 0.013,-9.71388 4.5304,-6.91401 4.5305,-6.914 0,-4.5151 0,-4.51509 -0.7339,0.30793 c -2.3808,0.99897 -11.9529,5.78103 -15.011,7.49921 l -3.6026,2.02416 -0.07,-10.392 c -0.038,-5.71561 -0.1633,-10.39202 -0.2777,-10.39202 -0.7862,0 -13.701,7.20697 -20.1419,11.24 -2.316,1.45023 -4.3729,2.63674 -4.5707,2.63674 -0.1978,0 -0.4769,-0.15011 -0.6202,-0.33358 -0.2524,-0.32324 0.4759,-2.74252 8.7481,-29.06216 l 2.4034,-7.64662 -2.3072,-5.02925 c -1.2689,-2.76609 -3.4397,-7.49047 -4.824,-10.49865 -1.9865,-4.31685 -2.4645,-5.58212 -2.2684,-6.00435 0.1366,-0.29423 1.9138,-1.57057 3.9492,-2.8363 11.1661,-6.94367 22.3783,-12.62152 35.0569,-17.75271 l 4.1363,-1.67403 0.077,-2.42581 0.077,-2.42581 -4.5536,-7.31381 -4.5536,-7.31381 0,-9.55157 0,-9.55156 29.4149,0 29.4147,0 11.4234,17.74621 11.4234,17.74622 4.3352,-0.13344 c 2.3843,-0.0734 6.0765,-0.13342 8.2047,-0.13342 2.1282,0 5.8203,0.0601 8.2046,0.13342 l 4.3353,0.13344 11.4234,-17.74622 11.4234,-17.74621 29.4148,0 29.4148,0 0,9.55156 0,9.55157 -4.5536,7.31381 -4.5536,7.31381 0.077,2.42581 0.077,2.42581 4.1364,1.67403 c 12.6785,5.13119 23.8908,10.80904 35.0568,17.75271 2.0354,1.26573 3.8126,2.54207 3.9492,2.8363 0.1961,0.42223 -0.282,1.6875 -2.2684,6.00435 -1.3843,3.00818 -3.5551,7.73256 -4.8241,10.49865 l -2.307,5.02925 2.4033,7.64662 c 8.2722,26.31964 9.0004,28.73892 8.748,29.06216 -0.1432,0.18347 -0.4223,0.33358 -0.6201,0.33358 -0.1978,0 -2.2546,-1.18651 -4.5707,-2.63674 -6.4408,-4.03303 -19.3556,-11.24 -20.1418,-11.24 -0.1143,0 -0.2394,4.67641 -0.2777,10.39202 l -0.07,10.392 -3.6026,-2.02416 c -3.0581,-1.71818 -12.6302,-6.50024 -15.011,-7.49921 l -0.7339,-0.30793 0,4.51731 0,4.51728 3.8569,5.86984 c 2.1213,3.22842 4.16,6.35002 4.5305,6.9369 l 0.6736,1.06706 0.019,9.8222 0.019,9.8222 -31.369,0.0678 -31.3689,0.0678 0,-28.92545 0,-28.92543 -2.7353,-0.31305 c -1.5044,-0.17218 -3.0623,-0.37465 -3.4619,-0.44993 -0.6566,-0.12366 -0.8391,0.0384 -1.8967,1.68408 -0.6436,1.0015 -4.864,7.64512 -9.3786,14.76362 -13.34,21.03405 -13.8776,21.87308 -14.017,21.87308 -0.1368,0 -1.218,-1.68479 -12.1521,-18.93761 -13.0797,-20.6384 -12.2082,-19.35272 -13.0854,-19.30381 -0.4297,0.024 -2.0123,0.18761 -3.5167,0.36361 l -2.7354,0.32001 0,28.92434 0,28.92433 -31.356,0 c -17.2459,0 -31.3589,-0.0901 -31.3624,-0.20015 z m 9.0796,-49.10216 c 21.2389,-8.98343 44.4055,-14.76784 66.9819,-16.72452 12.6274,-1.09439 23.6655,-1.09439 36.293,0 25.6746,2.2252 52.4732,9.51958 75.4548,20.53815 l 4.0696,1.95117 0,-24.81786 0,-24.81788 -5.1371,-2.48718 c -24.8788,-12.04549 -51.2553,-19.05641 -79.3242,-21.08459 -6.1745,-0.44615 -20.2447,-0.44615 -26.4192,0 -28.0492,2.02675 -54.5668,9.07382 -79.3242,21.08044 l -5.1371,2.49133 0,24.81788 0,24.81786 4.0696,-1.95117 c 2.2383,-1.07316 6.0511,-2.78928 8.4729,-3.81363 z m 163.9857,-9.22467 c -6.3996,-2.61245 -16.3354,-6.02896 -22.6832,-7.79977 -1.908,-0.53228 -3.6193,-1.01377 -3.8027,-1.07 -0.2408,-0.0738 -0.3336,-0.92916 -0.3336,-3.07495 l 0,-2.97278 0.6983,0.17526 c 0.3841,0.0964 1.0445,0.24451 1.4677,0.32914 l 0.7694,0.1539 0,-11.99961 0,-11.99961 -1.4677,-0.32846 -1.4677,-0.32847 0,-3.04976 c 0,-1.67736 0.043,-3.04975 0.097,-3.04975 0.053,0 1.8244,0.48595 3.9362,1.07988 5.4495,1.53267 14.8652,4.73549 20.1466,6.85305 l 4.5081,1.80747 0.074,4.06963 c 0.041,2.23828 -0.01,4.06962 -0.1055,4.06962 -0.099,0 -1.7228,-0.61649 -3.6095,-1.36998 l -3.4304,-1.36997 0,-1.02492 c 0,-1.28075 0,-1.28185 -6.2151,-3.40659 -3.4717,-1.18726 -4.7823,-1.53239 -4.8775,-1.28444 -0.072,0.18649 -0.097,2.18267 -0.056,4.43597 l 0.074,4.09691 4.1363,1.45441 c 2.275,0.79992 4.5567,1.60501 5.0704,1.78909 l 0.934,0.3347 0.076,2.74131 c 0.071,2.53894 0.041,2.7278 -0.4003,2.55837 -2.6604,-1.02092 -9.6668,-3.27842 -9.7906,-3.1546 -0.088,0.0878 -0.1596,2.174 -0.1596,4.63602 0,3.28807 0.088,4.53372 0.3335,4.69229 0.2667,0.17261 8.5587,3.14837 10.3927,3.72967 0.377,0.11947 0.4657,-0.0772 0.5337,-1.18318 l 0.082,-1.32646 3.4692,1.40052 3.4692,1.40048 0.077,2.3136 c 0.043,1.27247 0.043,3.24081 0,4.37408 l -0.077,2.06051 z m -158.7152,-3.1719 -2.6019,-1.61739 0,-2.1679 0,-2.16789 3.1355,-1.25998 c 1.7246,-0.69298 3.3458,-1.33563 3.6027,-1.4281 0.4186,-0.15067 0.467,0.0424 0.467,1.86189 0,1.11651 0.09,2.02941 0.2001,2.02872 0.1101,0 2.6019,-0.82804 5.5374,-1.83851 l 5.3372,-1.83722 0.072,-5.2333 c 0.062,-4.50768 0.017,-5.23329 -0.3281,-5.23329 -0.4371,0 -9.4512,3.12615 -11.9991,4.16136 -0.8693,0.35317 -1.7413,0.64213 -1.9379,0.64213 -0.1966,0 -1.1967,-0.55801 -2.2223,-1.24002 l -1.8648,-1.24003 0.011,-4.83105 0.011,-4.83105 2.9911,-4.12295 c 3.4571,-4.76529 2.3019,-4.04641 11.609,-7.22423 l 5.4156,-1.8491 2.9172,1.92809 2.9173,1.92808 0.01,1.65759 0.01,1.65759 -1.1341,0.29724 c -1.2337,0.3233 -5.4656,1.58392 -6.0044,1.78861 -0.2404,0.0913 -0.3336,-0.2619 -0.3336,-1.2647 0,-1.21581 -0.059,-1.36868 -0.467,-1.21139 -0.2569,0.099 -2.2683,0.79083 -4.4699,1.53738 -2.2016,0.74656 -4.5133,1.57479 -5.1371,1.84051 l -1.1341,0.48314 0,4.01239 c 0,2.20682 0.1058,4.01239 0.2351,4.01239 0.1292,0 1.06,-0.31223 2.0681,-0.69384 3.1165,-1.17962 11.144,-3.85607 11.7076,-3.90339 0.2938,-0.0247 1.4647,0.58296 2.6019,1.3503 l 2.0675,1.39517 -0.01,5.79608 -0.01,5.79608 -3.1101,3.9209 -3.11,3.9209 -4.1576,1.35843 c -2.2866,0.74713 -5.4094,1.83479 -6.9394,2.41703 -1.5301,0.58224 -2.9111,1.0501 -3.0689,1.03966 -0.1579,-0.0104 -1.4579,-0.74675 -2.8889,-1.63633 z m 37.7516,-11.43593 0.076,-3.02086 0.8005,-0.18893 c 0.4404,-0.10392 1.1309,-0.26374 1.5345,-0.35516 l 0.7339,-0.16621 0,-11.8702 c 0,-11.12627 -0.029,-11.87034 -0.4671,-11.87226 -0.2568,-10e-4 -1.7534,0.26229 -3.3257,0.58539 l -2.8588,0.58744 -0.077,2.12983 -0.077,2.12983 -2.6686,0.6077 c -1.4678,0.33423 -2.7613,0.61347 -2.8745,0.62054 -0.1133,0.007 -0.1733,-2.29603 -0.1335,-5.11798 l 0.072,-5.13081 2.0014,-0.47577 c 7.6866,-1.82723 21.4902,-4.14981 27.3532,-4.60243 1.1742,-0.0906 2.4051,-0.22112 2.7353,-0.28996 l 0.6005,-0.12515 0,5.18266 0,5.18266 -1.6679,0.16874 c -0.9173,0.0928 -2.2383,0.23595 -2.9355,0.3181 l -1.2675,0.14937 0,-1.98202 c 0,-1.09011 -0.061,-2.04306 -0.1357,-2.11767 -0.1275,-0.12758 -4.8962,0.42758 -6.2023,0.72206 l -0.6004,0.13539 0,11.8964 0,11.89641 1.6011,-0.18583 1.6012,-0.18584 0,3.0951 0,3.09509 -0.6521,0 c -0.592,0 -10.2653,1.58136 -12.3664,2.0216 l -0.8763,0.18363 z m 77.1985,2.00682 c -0.3331,-0.12605 -8.5311,-1.35456 -10.6078,-1.58961 l -1.5344,-0.1737 0,-3.02439 0,-3.02438 1.6011,0.14519 1.6012,0.14518 0,-11.90726 0,-11.90727 -0.6004,-0.13314 c -0.4989,-0.11062 -5.4584,-0.67761 -5.9272,-0.67761 -0.079,0 -0.1439,0.89357 -0.1439,1.9857 0,1.09214 -0.09,2.03215 -0.2001,2.08891 -0.1101,0.0568 -1.4911,-0.0151 -3.0689,-0.15973 l -2.8688,-0.26292 0,-5.16407 0,-5.16406 1.4011,0.14255 c 0.7705,0.0784 3.3,0.32236 5.621,0.54212 7.1658,0.67849 17.9363,2.41821 24.4674,3.95214 l 1.4678,0.34471 0.073,5.14975 c 0.069,4.87886 0.047,5.14303 -0.416,5.02199 -0.2687,-0.0703 -1.5879,-0.34997 -2.9314,-0.62155 l -2.4429,-0.4938 -0.077,-2.14376 -0.077,-2.14377 -3.2024,-0.57881 c -1.7613,-0.31836 -3.2323,-0.54972 -3.269,-0.51415 -0.037,0.0356 -0.066,5.42314 -0.066,11.97235 l 0,11.90767 1.0008,0.16883 c 2.0633,0.34809 1.9347,0.12589 1.9347,3.34253 l 0,2.91747 -0.7338,-0.0211 c -0.4037,-0.0115 -0.854,-0.0665 -1.0008,-0.12204 z m -55.8497,-5.22317 0.076,-3.03982 1.435,-0.13342 1.435,-0.13344 0.7562,-2.13488 c 0.4158,-1.17419 2.8474,-8.01915 5.4035,-15.21104 l 4.6474,-13.07616 1.1673,-0.18037 c 0.642,-0.0992 2.567,-0.18926 4.2777,-0.20014 l 3.1106,-0.0197 0.4465,1.26759 c 0.8286,2.35261 7.3882,21.51946 8.6077,25.15159 0.6654,1.98144 1.3281,3.75273 1.4727,3.93619 0.1521,0.19291 0.8682,0.33358 1.6981,0.33358 l 1.435,0 0,3.10574 0,3.10575 -1.6679,-0.16353 c -0.9172,-0.0899 -3.8594,-0.2449 -6.538,-0.34435 l -4.8702,-0.18083 0,-3.02825 0,-3.02825 1.3343,0 c 0.7338,0 1.3302,-0.0901 1.3251,-0.20015 -0.01,-0.11008 -0.41,-1.34097 -0.9,-2.73532 l -0.8909,-2.53517 -1.176,-0.21828 c -0.6469,-0.12005 -3.3749,-0.12005 -6.0623,0 l -4.8861,0.21828 -1.0059,2.7285 c -0.5533,1.50067 -0.9428,2.7916 -0.8657,2.86874 0.077,0.0771 0.7207,0.14026 1.4301,0.14026 l 1.2898,0 0,2.91625 0,2.91627 -1.401,0.14184 c -0.7706,0.078 -2.7219,0.20848 -4.3365,0.28991 -1.6145,0.0814 -3.8102,0.22331 -4.8793,0.31528 l -1.9438,0.16722 0.076,-3.03981 z m 19.04,-15.18196 2.7447,0 -1.8605,-5.3943 c -1.855,-5.37832 -1.9996,-5.73846 -2.2171,-5.52101 -0.1729,0.1729 -3.888,10.66595 -3.888,10.98142 0,0.1716 0.4608,0.21014 1.2381,0.10359 0.681,-0.0933 2.4733,-0.1697 3.9828,-0.1697 z m -111.5605,35.28371 c 2.1993,-1.17848 5.0495,-2.66112 6.3337,-3.29476 l 2.3351,-1.15209 0,-18.04568 c 0,-17.28201 0.021,-18.06476 0.4984,-18.49683 0.6976,-0.63123 10.0653,-5.31154 14.7126,-7.35072 2.1282,-0.93383 4.0196,-1.81535 4.203,-1.95895 0.4322,-0.33823 0.4805,-7.40096 0.05,-7.40096 -0.9401,0 -11.5861,4.71426 -18.7505,8.30312 -7.8878,3.95117 -16.9927,9.17205 -16.9927,9.74379 0,0.17134 1.8613,4.36109 4.1363,9.31056 2.275,4.94948 4.1363,9.19154 4.1363,9.42681 0,0.23528 -1.6811,5.79533 -3.736,12.35566 -2.0548,6.56031 -3.736,12.00909 -3.736,12.10839 0,0.0993 0.6323,-0.17637 1.4052,-0.61258 0.7729,-0.43618 3.2047,-1.75727 5.4039,-2.93576 z m 229.6449,-8.50972 c -2.0635,-6.58801 -3.7518,-12.17071 -3.7518,-12.40599 0,-0.23527 1.8613,-4.47733 4.1363,-9.42681 2.275,-4.94947 4.1363,-9.13922 4.1363,-9.31056 0,-0.29111 -4.4819,-3.05554 -9.5472,-5.88876 -2.9665,-1.65922 -12.0064,-6.1678 -15.8045,-7.88232 -3.8568,-1.74103 -10.017,-4.27583 -10.3915,-4.27583 -0.4298,0 -0.3815,7.06273 0.05,7.40096 0.1835,0.1436 2.0749,1.02512 4.2031,1.95895 4.6474,2.03918 14.0151,6.71949 14.7126,7.35072 0.4774,0.43204 0.4985,1.21539 0.4995,18.4896 l 0,18.03842 3.8017,1.92451 c 2.0909,1.05848 5.543,2.87882 7.6712,4.04521 2.1282,1.16639 3.9066,2.08458 3.952,2.04041 0.046,-0.0442 -1.6059,-5.4705 -3.6694,-12.05851 z"
       id="path3073-2-5"
       style="fill:#620b0c" />
    <path
       d="m 1059.8323,330.24195 c 0.1535,-0.39981 5.3134,-17.24975 6.405,-20.91557 l 0.9101,-3.0564 -0.7656,-1.8813 c -0.4211,-1.03472 -2.2798,-5.25971 -4.1305,-9.38888 -3.1526,-7.03386 -3.3404,-7.52586 -2.9767,-7.79725 4.7835,-3.56872 26.9082,-14.7383 34.1337,-17.2322 l 1.1137,-0.38439 0.1485,1.18834 c 0.197,1.57699 -0.081,5.69308 -0.4045,5.98765 -0.1396,0.12714 -2.4275,1.2374 -5.0842,2.46724 -5.2823,2.44527 -11.6229,5.60283 -13.0105,6.47899 -0.7741,0.48881 -0.8977,0.67903 -1.0197,1.56948 -0.076,0.55729 -0.1389,8.72202 -0.1389,18.14385 l 0,17.1306 -3.8106,1.9794 c -2.0958,1.08867 -5.4754,2.88223 -7.5102,3.98567 -2.0348,1.10345 -3.7599,2.00627 -3.8336,2.00627 -0.074,0 -0.085,-0.12668 -0.026,-0.2815 z"
       id="path3249"
       style="fill:#ffffff;fill-opacity:1;stroke:none" />
    <path
       d="m 1082.0972,315.05283 0,-24.70738 4.3474,-2.1023 c 14.0477,-6.79328 27.1211,-11.57507 41.7021,-15.25326 11.7183,-2.95605 21.6802,-4.64958 34.9932,-5.94884 5.644,-0.55082 27.4171,-0.55082 33.0611,0 28.538,2.78512 52.0097,9.28853 76.9101,21.30981 l 4.1326,1.99513 0,24.68949 0,24.68947 -3.288,-1.57148 c -22.0842,-10.55499 -46.465,-17.54859 -70.7585,-20.29698 -34.7886,-3.93574 -71.023,1.11489 -104.7841,14.60564 -4.2659,1.70463 -11.9487,5.0948 -14.7594,6.51283 l -1.5565,0.78525 0,-24.70738 z m 178.4013,6.26137 0,-4.48625 -3.4886,-1.39718 c -1.9187,-0.76844 -3.511,-1.3759 -3.5383,-1.34991 -0.027,0.026 -0.1297,0.57232 -0.2273,1.21407 -0.1272,0.83555 -0.2655,1.15124 -0.487,1.11196 -0.1702,-0.0302 -2.5494,-0.84686 -5.2872,-1.81486 -4.0109,-1.41816 -5.0007,-1.84533 -5.0958,-2.19931 -0.065,-0.24162 -0.1193,-2.30083 -0.1209,-4.57604 l 0,-4.13673 0.5904,0.13319 c 0.3247,0.0733 2.5638,0.79476 4.9758,1.60333 2.4119,0.80859 4.4648,1.42104 4.562,1.36101 0.097,-0.0601 0.1766,-1.29962 0.1766,-2.75467 l 0,-2.64555 -3.4886,-1.2399 c -1.9188,-0.68194 -4.2132,-1.49762 -5.0987,-1.81262 l -1.6102,-0.57271 -0.058,-4.22382 c -0.044,-3.15714 0.01,-4.22381 0.1975,-4.22381 0.4698,0 8.6491,2.80196 9.6287,3.29849 0.9083,0.46036 0.9725,0.55139 1.0735,1.52215 l 0.1073,1.03252 3.1416,1.23733 c 1.7279,0.68054 3.346,1.30223 3.5959,1.38154 0.4521,0.14348 0.4544,0.12317 0.4544,-4.03872 l 0,-4.18292 -3.8106,-1.51076 c -2.0959,-0.83093 -5.6945,-2.17857 -7.997,-2.99476 -6.3052,-2.2351 -16.618,-5.38971 -16.8526,-5.1551 -0.053,0.0535 -0.1621,1.45508 -0.2413,3.11462 l -0.144,3.01735 1.1587,0.26243 c 0.6373,0.14435 1.3279,0.30882 1.5345,0.36551 0.352,0.0966 0.3757,0.85121 0.3757,11.98411 l 0,11.88105 -1.2344,-0.29501 c -1.9943,-0.47659 -1.856,-0.69105 -1.6967,2.6313 0.078,1.61788 0.2137,3.01423 0.3025,3.103 0.089,0.0888 2.2864,0.78852 4.8836,1.55501 7.1907,2.12214 18.4527,6.05528 22.5171,7.86391 0.4854,0.21597 0.9549,0.39948 1.0435,0.40782 0.088,0.008 0.161,-2.00364 0.161,-4.47107 z m -152.3862,0.3264 c 2.8717,-0.98908 6.0288,-2.06321 7.0159,-2.38695 l 1.7946,-0.58863 3.0888,-3.89251 3.0888,-3.89252 7e-4,-5.96225 6e-4,-5.96225 -1.8247,-1.18943 c -1.0036,-0.65418 -2.1388,-1.23837 -2.5225,-1.29819 -0.7698,-0.11999 -3.4132,0.66624 -10.0585,2.99177 l -3.9937,1.39757 -0.138,-2.39515 c -0.076,-1.31734 -0.1384,-3.08576 -0.139,-3.92983 l 0,-1.53467 1.5564,-0.56463 c 0.8561,-0.31056 3.2954,-1.17985 5.4208,-1.93177 4.2929,-1.51879 4.1417,-1.52793 4.1712,0.25235 0.01,0.58325 0.1119,0.90956 0.2834,0.90452 0.1476,-0.004 1.8141,-0.47077 3.7033,-1.03652 l 3.4349,-1.02865 0.058,-1.80802 0.058,-1.80802 -2.9345,-1.89722 -2.9345,-1.89721 -5.4964,1.86836 c -6.0772,2.0658 -8.22,2.98636 -9.0677,3.89549 -0.3111,0.33372 -1.6878,2.14944 -3.0592,4.03494 l -2.4935,3.42817 0,4.94768 0,4.94768 1.7711,1.11248 c 0.9741,0.61186 1.9259,1.17076 2.1151,1.24199 0.1892,0.0712 2.7493,-0.73466 5.6891,-1.79088 4.743,-1.70407 8.1281,-2.82422 8.5348,-2.82422 0.076,0 0.1375,2.29443 0.1369,5.09872 l 0,5.09871 -5.2656,1.80008 c -2.896,0.99004 -5.3068,1.75878 -5.3573,1.7083 -0.05,-0.0505 -0.1582,-0.8877 -0.2393,-1.8605 -0.081,-0.97281 -0.2195,-1.81324 -0.3075,-1.86763 -0.088,-0.0544 -1.692,0.50729 -3.5645,1.24816 l -3.4044,1.34705 -0.061,2.29839 -0.061,2.29839 1.1261,0.70019 c 2.2861,1.42144 4.155,2.48505 4.4012,2.50474 0.1393,0.0111 2.6027,-0.789 5.4744,-1.77808 l 0,0 z m 35.2057,-9.23974 c 3.1091,-0.52138 6.2084,-1.01555 6.8873,-1.09814 l 1.2344,-0.15017 0,-3.19959 0,-3.1996 -0.483,0.0985 c -0.2657,0.0542 -0.9902,0.15592 -1.6101,0.22616 l -1.1271,0.12771 0,-11.79788 0,-11.79788 0.5904,-0.11265 c 0.9427,-0.17989 3.491,-0.52933 4.8006,-0.65831 l 1.2047,-0.11865 0.1352,1.12546 c 0.074,0.61901 0.136,1.53605 0.1371,2.03787 0,0.72536 0.079,0.91228 0.3775,0.9118 0.4474,-7e-4 3.9454,-0.39073 4.9377,-0.55054 l 0.6977,-0.11236 0,-5.25972 0,-5.25973 -0.6977,0.11337 c -0.3837,0.0624 -2.4849,0.31405 -4.6693,0.55933 -6.9532,0.78074 -13.5045,1.87061 -22.1453,3.68405 l -5.2927,1.11077 -0.1564,3.33715 c -0.1445,3.08239 -0.039,6.80374 0.1987,7.04192 0.055,0.0554 1.3635,-0.16524 2.9068,-0.49039 l 2.8059,-0.59119 0,-2.11979 c 0,-1.5011 0.078,-2.14803 0.2684,-2.21656 0.7059,-0.25457 5.8675,-1.10712 5.9918,-0.98968 0.078,0.0736 0.2115,5.36353 0.2968,11.75536 l 0.1552,11.62151 -1.6386,0.3863 -1.6387,0.3863 0,3.07364 c 0,1.69051 0.04,3.07365 0.09,3.07365 0.049,0 2.6337,-0.42659 5.7428,-0.94799 l 0,0 z m 73.1705,-2.78267 c 0,-2.06567 -0.077,-2.9357 -0.2737,-3.0991 -0.1505,-0.12494 -0.7785,-0.29412 -1.3954,-0.37597 l -1.1217,-0.1488 0,-11.88185 0,-11.88186 0.5903,0.10756 c 0.3248,0.0592 1.6892,0.29411 3.0322,0.52211 1.3429,0.228 2.4914,0.46421 2.5521,0.52492 0.061,0.0607 0.1584,1.02857 0.2171,2.15079 0.085,1.63558 0.1755,2.05952 0.4534,2.13673 1.4248,0.39583 5.008,1.01606 5.276,0.91323 0.2845,-0.10916 0.3305,-0.82652 0.3305,-5.15531 l 0,-5.02851 -0.5369,-0.13475 c -3.9619,-0.99436 -14.1074,-2.78856 -20.0789,-3.55088 -3.0934,-0.3949 -11.6993,-1.29861 -12.3664,-1.29861 -0.2404,0 -0.2936,0.95053 -0.2936,5.23793 l 0,5.23794 1.4491,0.12564 c 0.797,0.0691 2.1833,0.18551 3.0806,0.25867 l 1.6316,0.13303 0.1396,-1.01823 c 0.077,-0.56003 0.1395,-1.48779 0.1395,-2.06169 0,-0.5739 0.072,-1.04257 0.161,-1.0415 0.4819,0.006 5.7845,0.66398 6.0112,0.74609 0.2102,0.0762 0.2683,2.65102 0.2683,11.8914 0,11.11774 -0.022,11.78992 -0.3757,11.71987 -0.2066,-0.0409 -0.9312,-0.12146 -1.6101,-0.17907 l -1.2344,-0.10477 0,3.10413 c 0,2.30049 0.069,3.12338 0.2683,3.17853 0.1476,0.0409 1.9107,0.29072 3.918,0.55511 2.0073,0.26439 4.6157,0.65226 5.7964,0.86194 1.1808,0.20969 2.5574,0.39158 3.0592,0.40422 l 0.9124,0.023 0,-2.87193 z m -51.5262,0.18591 c 2.7761,-0.17848 5.3614,-0.37607 5.7452,-0.43909 l 0.6977,-0.11459 0,-2.99582 0,-2.99584 -1.2881,0 c -0.7085,0 -1.2892,-0.0725 -1.2905,-0.16101 0,-0.0885 0.396,-1.3344 0.883,-2.76855 l 0.8853,-2.60754 3.9488,-0.15586 c 5.0016,-0.1974 7.7725,-0.0805 8.0369,0.33911 0.3565,0.56564 1.696,4.76618 1.5799,4.95413 -0.063,0.10177 -0.64,0.18504 -1.2825,0.18504 l -1.168,0 0,3.1129 0,3.1129 0.6977,0.002 c 1.0574,0.003 8.8303,0.39525 10.8415,0.54694 l 1.7711,0.1336 0,-3.23951 0,-3.23951 -1.3418,-0.003 c -0.738,-10e-4 -1.4591,-0.0779 -1.6025,-0.169 -0.3745,-0.23795 -0.8753,-1.62126 -6.0779,-16.78764 l -4.6763,-13.63234 -3.2945,0.0525 c -1.812,0.0289 -3.7797,0.10556 -4.3726,0.17035 l -1.0782,0.11778 -5.3868,15.17947 -5.3868,15.17945 -1.3997,0.19171 -1.3996,0.19169 -0.1324,0.96535 c -0.073,0.53085 -0.1323,1.91785 -0.1323,3.08212 l 0,2.11686 0.588,0 c 0.3234,0 2.8593,-0.14603 5.6354,-0.32451 l 0,0 z"
       id="path3251"
       style="fill:#ffffff;fill-opacity:1;stroke:none" />
    <path
       d="m 1172.9078,291.8451 c 3e-4,-0.21472 2.0089,-5.98339 2.9777,-8.55181 0.8359,-2.21602 0.8545,-2.24327 1.0983,-1.61012 1.1174,2.90148 3.5093,9.98337 3.4063,10.08538 -0.1447,0.1433 -7.4825,0.21837 -7.4823,0.0765 z"
       id="path3253"
       style="fill:#ffffff;fill-opacity:1;stroke:none" />
    <path
       d="m 1291.7348,326.45084 -7.2992,-3.84813 -0.1074,-18.03704 c -0.093,-15.65288 -0.1499,-18.07875 -0.4293,-18.35259 -0.7033,-0.68909 -8.4938,-4.59896 -16.3159,-8.18853 -1.2398,-0.56894 -2.3746,-1.14087 -2.5217,-1.27095 -0.3358,-0.29689 -0.6005,-4.30063 -0.3937,-5.95569 l 0.1501,-1.20196 2.1236,0.8276 c 5.7493,2.24056 17.5649,7.80911 23.3981,11.02722 3.7043,2.04367 9.3382,5.4458 9.7014,5.85841 0.314,0.35671 0.1186,0.87566 -2.6517,7.04026 -4.1189,9.16542 -5.1176,11.49379 -5.1176,11.93091 0,0.20684 1.5493,5.48048 3.4429,11.71921 3.9217,12.92041 3.7481,12.31081 3.5039,12.30431 -0.1014,-0.003 -3.4689,-1.73657 -7.4835,-3.85303 z"
       id="path3255"
       style="fill:#ffffff;fill-opacity:1;stroke:none" />
  </g>
</svg>
