<?xml version="1.0" encoding="UTF-8" standalone="no"?>
<!-- Created with Inkscape (http://www.inkscape.org/) -->

<svg
   xmlns:dc="http://purl.org/dc/elements/1.1/"
   xmlns:cc="http://creativecommons.org/ns#"
   xmlns:rdf="http://www.w3.org/1999/02/22-rdf-syntax-ns#"
   xmlns:svg="http://www.w3.org/2000/svg"
   xmlns="http://www.w3.org/2000/svg"
   version="1.1"
   width="280"
   height="200"
   viewBox="-1 -0.2 280.00001 200"
   id="svg2"
   xml:space="preserve"><metadata
     id="metadata14"><rdf:RDF><cc:Work
         rdf:about=""><dc:format>image/svg+xml</dc:format><dc:type
           rdf:resource="http://purl.org/dc/dcmitype/StillImage" /><dc:title></dc:title></cc:Work></rdf:RDF></metadata><defs
     id="defs4" /><path
     d="M 231.57143,157.04206 V -0.2 H 154.28968 L 142.28571,20.335715 130.28175,-0.2 H 52.999999 l 0,157.24206 c 0,0 0,42.75794 89.285711,42.75794 89.28572,0 89.28572,-42.75794 89.28572,-42.75794 z"
     id="path6" /><path
     d="m 75.321427,109.72064 h 46.329363 l 0,10.31746 c 0,0 -5.15873,0 -5.15873,3.47222 v 20.63492 c 0,0 0,10.31746 25.79365,10.31746 25.79365,0 25.79365,-10.31746 25.79365,-10.31746 v -20.63492 c 0,-3.47222 -5.15873,-3.47222 -5.15873,-3.47222 V 109.72064 H 209.25 v 10.31746 c 0,0 -5.15873,0 -5.15873,3.47222 v 24.00793 c 0,0 0,27.48016 -61.80556,27.48016 -61.805553,0 -61.805553,-27.48016 -61.805553,-27.48016 v -24.00793 c 0,-3.47222 -5.15873,-3.47222 -5.15873,-3.47222 l 0,-10.31746 z"
     id="path8"
     style="fill:#f1b831" /><path
     d="m 75.321427,22.121429 h 44.642863 l 22.32142,37.79762 22.32143,-37.79762 H 209.25 v 12.003969 c 0,0 -5.15873,0 -5.15873,3.472222 v 36.011905 c 0,3.472223 5.15873,3.472223 5.15873,3.472223 V 89.085716 H 168.07936 V 77.081748 c 0,0 5.15873,0 5.15873,-3.472223 V 46.129366 l -25.79365,42.95635 h -10.31746 l -25.79365,-42.95635 v 27.480159 c 0.19842,3.075397 5.15873,3.472223 5.15873,3.472223 V 89.085716 H 75.321427 V 77.081748 c 0,0 5.15873,0 5.15873,-3.472223 V 37.59762 c -0.09921,-3.472222 -5.15873,-3.472222 -5.15873,-3.472222 V 22.121429 z"
     id="path10"
     style="fill:#f1b831" /></svg>