<?xml version="1.0" encoding="UTF-8"?>
<!-- Generator: Adobe Illustrator 13.0.1, SVG Export Plug-In . SVG Version: 6.00 Build 14948)  -->
<!DOCTYPE svg PUBLIC "-//W3C//DTD SVG 1.1//EN" "http://www.w3.org/Graphics/SVG/1.1/DTD/svg11.dtd">
<svg version="1.1" id="Layer_1" xmlns="http://www.w3.org/2000/svg" xmlns:xlink="http://www.w3.org/1999/xlink" x="0px" y="0px" width="409.895px" height="136.257px" viewBox="0 0 409.895 136.257" enable-background="new 0 0 409.895 136.257" xml:space="preserve">
<g>
	<path fill-rule="evenodd" clip-rule="evenodd" fill="#00003D" d="M302.254,58.749c6.684-1.107,11.425-5.841,11.278-11.261   c0.065-6.251-6.237-11.371-14.111-11.464c-3.731-0.014-7.319,1.141-9.985,3.213l10.969-19.603c0.799-1.519,1.078-3.177,0.805-4.809   c-0.996-5.095-5.144-9.452-11.043-11.606c-7.465-2.816-13.473,0.77-18.554,4.613l-8.503,7.234   c-0.156-5.904-7.369-9.943-14.201-11.041c-10.391-1.668-17.599,4.984-22.984,10.823l-0.137-1.31   c0.333-5.62-4.175-10.705-10.951-12.354c-3.992-0.886-8.205-0.934-12.228-0.138l-9.61,3.021c-1.997-1.953-5.027-2.039-7.895-1.857   c-5.874,0.676-11.341,2.777-15.652,6.016c-9.472,6.735-15.414,16.559-9.317,26.361c3.495,5.619,11.062,5.977,16.697,3.275   c9.561-4.582,13.565-8.076,21.558-13.947c-0.809,3.011-1.975,5.954-3.483,8.791c-7.732,16.414-15.607,32.787-23.626,49.116   c-3.28,5.854-6.165,11.843-8.643,17.94c-3.159,7.678-4.417,18.956-0.379,26.316c1.381,2.518,3.272,5.243,6.982,5.834   c6.861,1.094,10.255-5.355,12.087-9.172c3.594-6.777,7.283-13.522,11.068-20.234l-2.365,5.654c-0.354,1.668-0.41,3.367-0.164,5.048   c0.654,5.111,2.466,13.116,7.668,17.299c4.112,3.308,10.034,1.958,12.735-1.517l4.297-7.305c5.525-8.49,10.479-17.207,14.84-26.113   c0.792-1.565,1.601-3.125,2.43-4.678c-1.522,4.028-2.977,8.073-4.359,12.133c-1.176,3.496-2.104,7.042-2.777,10.621   c-0.965,6.663-1.596,13.854,6.077,18.541c2.97,1.781,6.743,2.496,10.405,1.971c6.465-0.825,11.705-3.301,17.049-6.07   c5.068,4.508,12.258,7.58,20.07,5.442c4.757-1.335,8.888-3.792,11.837-7.042c1.437-1.134,3.162-2.01,5.063-2.569   c0.859-0.219,1.608,0.104,2.022,0.665c1.596,2.09,3.887,3.789,6.622,4.91c12.148,5.215,22.843,4.458,34.479-1.117l5.794-2.516   c0.937-0.351,1.994-0.442,3.005-0.26c1.242,0.4,2.31,1.084,3.063,1.965c3.94,4.345,13.492,6.059,19.79,6.568   c23.925,1.938,40.211-14.767,39.915-31.803c-0.058-3.293-2.428-6.647-6.779-6.317c-3.271,0.247-6.834,3.093-8.79,5.291   c3.827-11.4,2.893-24.183-1.504-35.565l3.458-5.598c0.5-0.836,0.825-1.732,0.965-2.65c0.663-4.583-2.512-8.838-8.047-9.816   c-12.085-2.139-21.033,5.994-25.712,13.524c-2.422,3.8-4.374,7.778-5.829,11.878c-3.444,7.759-7.51,15.334-12.173,22.681   c0.385-2.548,0.785-7.017,0.614-9.563c-0.318-4.71-1.909-18.013-3.23-21.513l2.909-6.146c0.112-0.307,0.447-1.845,0.458-1.97   c0.461-9.503-14.369-14.196-22.271-7.05c-7.02,5.729-12.337,12.631-15.559,20.201c-5.029,10.656-17.496,27.703-26.088,35.204   c0.514-2.366,1.266-4.696,2.249-6.967l6.655-12.034c2.444-4.221,5.408-8.238,8.85-11.995   C303.793,69.837,307.01,63.303,302.254,58.749L302.254,58.749z M285.188,46.831c-0.189,3.764,1.536,6.635,3.972,8.652   c-7.751,1.439-14.061,10.33-16.982,14.6L285.188,46.831L285.188,46.831z M264.034,84.638c-1.635,3.402-3.124,6.848-4.469,10.328   c-1.301,3.578-3.739,10.203-6.137,13.021C254.303,100.965,260.313,91.287,264.034,84.638L264.034,84.638z M365.772,103.388   c-0.044-1.59,3.499-5.617,4.893-7.287c0.073,1.607,0.02,3.217-0.161,4.819c-0.126,0.89-0.938,2.565-2.143,2.669   C367.49,103.655,366.61,103.587,365.772,103.388L365.772,103.388z M313.542,103.384c0.027-1.926,2.779-4.545,3.654-5.525   c-0.121,1.156-0.297,2.309-0.532,3.453c-0.203,0.836-0.673,1.617-1.367,2.268C315.03,103.773,313.844,103.483,313.542,103.384   L313.542,103.384z"/>
	<path fill-rule="evenodd" clip-rule="evenodd" fill="#00003D" d="M71.352,103.989c-0.285,6.307,0.489,12.617,2.3,18.762   c2.091,6.77,9.252,13.397,18.623,13.407c8.731,0.009,18.805-5.045,25.124-10.003c11.254,8.426,23.451,7.793,32.76-2.695   c3.912-4.457,6.91-9.376,8.884-14.576c0.601-1.555-0.011-4.09-0.596-5.674c-1.297-3.515-6.037-4.781-10.081-2.936   c-0.313,0.152-0.621,0.313-0.922,0.48c5.909-5.881,10.736-12.4,14.336-19.359l0.173-0.404c2.104-5.429,3.111-12.832,0.904-18.556   c-2.14-5.55-9.59-9.849-17.139-8.549c-5.828,1.153-11.294,3.245-16.06,6.146c4.781-10.532,17.703-42.896,8.693-55.242   c-3.934-5.391-12.02-4.246-17.441-0.784c-11.634,7.431-22.169,23.714-28.393,34.901c-0.019-6.911-1.072-13.795-3.139-20.508   l0.392-4.347c0.876-1.571,1.27-3.284,1.148-5.001c-0.745-8.984-17.458-9.41-24.968-8.916C33.331,2.28,14.924,38.521,7.441,58.946   c-6.393,17.451-10.253,38.57-4.94,56.938c1.087,3.751,2.871,7.353,5.293,10.687c5.494,7.809,16.221,11.712,26.88,8.629   C51.521,130.328,63.501,115.823,71.352,103.989L71.352,103.989z M106.35,96.841c-0.731,3.762-1.147,7.557-1.246,11.361   l-2.207,1.146c-0.889,0.428-1.875,0.712-2.902,0.838c-1.298-3.039,1.254-7.914,3.625-10.418   C104.539,98.798,105.449,97.822,106.35,96.841L106.35,96.841z M141.463,106.183c-6.495,7.082-5.904,6.104-7.103,6.453   c-0.149-0.287-0.259-0.588-0.327-0.893C136.627,109.991,139.107,108.136,141.463,106.183L141.463,106.183z M39.305,108.827   c-3.263,3.717-5.621,4.119-6.226,4.135c-8.955-4.189-4.009-25.043-2.869-29.564c3.181-12.021,7.394-23.855,12.61-35.42   c8.662,1.12,15.891-3.357,21.24-8.202c-1.276,8.685-3.241,17.296-5.882,25.784c-2.389,8.279-5.13,16.492-8.217,24.625   C47.721,95.912,43.929,103.546,39.305,108.827L39.305,108.827z"/>
	<path fill-rule="evenodd" clip-rule="evenodd" fill="#C60001" d="M62.475,66.401c-16.06,58.281-31.546,49.631-31.546,49.631   c-21.222-9.107,9.177-72.396,9.177-72.396c15.486,5.919,29.252-16.393,29.252-16.393C69.931,43.181,62.475,66.401,62.475,66.401   L62.475,66.401L62.475,66.401z M84.915,18.704l0.502-5.575c5.699-9.462-11.935-9.979-19.102-9.493   C54.837,4.414,46.309,9.407,38.947,16.157c-13.256,12.157-21.671,28.525-27.256,43.77C-1.317,95.442,3.588,127.8,22.648,132.2   c19.061,4.399,45.057-20.825,58.067-56.341C88.909,53.489,89.997,32.37,84.915,18.704L84.915,18.704L84.915,18.704z"/>
	<path fill-rule="evenodd" clip-rule="evenodd" fill="#C60001" d="M128.276,94.914c-2.088-0.901-0.617-6.243,3.279-11.932   c3.9-5.688,8.75-9.569,10.838-8.667c2.087,0.901,0.617,6.243-3.281,11.932C135.214,91.937,130.364,95.815,128.276,94.914   L128.276,94.914L128.276,94.914z M105.668,56.493c4.603-10.044,9.422-17.873,10.762-17.487c1.337,0.386-1.308,8.844-5.912,18.89   c-4.605,10.045-9.422,17.877-10.763,17.489C98.416,74.998,101.064,66.54,105.668,56.493L105.668,56.493L105.668,56.493z    M157.686,80.062c8.03-25.043-10.898-22.767-10.898-22.767c-38.428,7.741-37.281,52.817-37.281,52.817   c-6.339,3.773-14.227,6.516-14.238-1.865c-0.009-8.469,9.771-14.67,14.562-21.509c5.69-8.128,10.423-16.698,14.509-25.403   c13.38-28.514,16.744-53.844,7.512-56.573c-9.232-2.73-27.563,18.171-40.943,46.686c-4.573,9.738-7.248,19.245-10.104,27.329   c-9.202,26.035-2.843,43.175-2.843,43.175c10.898,24.588,39.576-0.911,39.576-0.911c24.09,22.312,37.282-13.204,37.282-13.204   c0-9.562-7.457-2.276-7.457-2.276c-6.309,7.74-8.604,9.106-8.604,9.106c-9.75,5.464-9.177-4.554-9.177-4.554   C150.803,95.997,157.686,80.062,157.686,80.062L157.686,80.062L157.686,80.062z"/>
	<path fill-rule="evenodd" clip-rule="evenodd" fill="#C60001" d="M309.106,47.505c0,4.402-4.365,7.969-9.75,7.969   s-9.75-3.566-9.75-7.969c0-4.399,4.365-7.967,9.75-7.967S309.106,43.105,309.106,47.505L309.106,47.505L309.106,47.505z"/>
	<path fill-rule="evenodd" clip-rule="evenodd" fill="#C60001" d="M364.38,106.724c0,0-6.105-0.937-0.987-8.272l9.909-11.872   C373.302,86.579,381.48,110.542,364.38,106.724L364.38,106.724L364.38,106.724z M311.401,106.47c0,0-5.162-1.365,0-8.195   l9.751-10.928C321.152,87.347,325.741,111.479,311.401,106.47L311.401,106.47L311.401,106.47z M396.289,105.56   c0,0-9.178,15.937-13.192,7.285c0,0,16.632-17.756,5.165-46.895c-0.563-1.424,4.451-6.779,4.585-8.873   c0.552-8.598-11.986-6.922-17.325-2.991c-7.025,5.175-11.04,12.966-13.646,20.056c0,0-14.913,34.605-29.251,40.524   c0,0-2.867-1.366,0.572-3.643c0,0,8.608-4.101,8.482-24.588c0,0-1.597-18.649-3.317-21.396c-0.607-0.972,3.499-6.931,3.448-8.603   c-0.204-6.825-9.24-8.773-14.592-4.535c-6.191,4.905-12.136,12.45-14.669,19.053c0,0-13.187,26.401-30.966,39.608   c-8.25,6.126-2.283-11.77-1.145-13.885c4.549-8.443,9.061-17.413,16.051-24.813c0,0,10.897-11.84-4.59-13.205   c0,0-12.617-1.366-28.104,37.336c0,0-5.162,17.758-12.045,16.848c0,0-8.03,1.366,2.867-20.035c0,0,39.971-71.619,40.149-71.94   c1.112-1.994,2.409-3.175,2.057-5.582c-0.677-4.601-7.741-10.655-13.75-9.37c-6.052,1.291-13.013,8.439-16.983,11.766   l-16.635,16.391c0,0,15.479-18.203,6.316-23.673c-15.844-9.458-24.271,5.034-33.273,14.111l-1.147-10.928   c0,0,1.147-11.839-17.78-9.106L189.232,9.03c1.991-3.083-0.248-3.549-3.494-3.342c-9.675,0.617-20.508,9.3-22.858,16.366   c-2.22,6.681,0.875,17.294,11.685,12.791c8.002-3.331,15.945-10.044,22.697-14.888c0,0,12.045-6.829,1.721,14.115   c-8.05,16.336-15.158,32.9-23.622,49.111c-6.162,11.801-13.747,24.557-10.37,37.687c2.414,9.386,7.645,10.742,12.197,0.625   c0,0,30.971-59.192,43.59-70.575c0,0-24.663,52.358-26.384,57.828c-1.399,4.447,3.501,24.776,11.386,19.117   c1.751-1.256,3.6-5.959,4.818-7.732c14.275-20.811,21.232-45.756,41.152-64.205c-7.388,15.734-14.852,31.723-20.001,48.02   c-1.749,5.532-4.903,15.813-2.042,21.322c5.892,11.348,21.65,2.275,29.498-1.953c0,0,12.046,15.936,27.531,0.91   c0,0,9.178-7.74,14.34-1.365c2.556,3.154,7.649,4.896,11.998,5.863c5.389,1.195,10.273,0.961,15.604-0.401   c9.259-2.374,16.939-11.222,25.167-2.73c3.19,3.293,11.856,4.697,16.58,5.05c21.177,1.582,35.04-12.992,35.04-28.271   C405.465,102.372,405.465,94.177,396.289,105.56L396.289,105.56L396.289,105.56z"/>
</g>
</svg>