<?xml version="1.0" encoding="UTF-8" standalone="no"?>
<!-- Created with Inkscape (http://www.inkscape.org/) -->

<svg
   xmlns:dc="http://purl.org/dc/elements/1.1/"
   xmlns:cc="http://creativecommons.org/ns#"
   xmlns:rdf="http://www.w3.org/1999/02/22-rdf-syntax-ns#"
   xmlns:svg="http://www.w3.org/2000/svg"
   xmlns="http://www.w3.org/2000/svg"
   version="1.1"
   width="280"
   height="200"
   viewBox="0 0 280.00001 199.99999"
   id="Layer_1"
   xml:space="preserve"><metadata
     id="metadata21"><rdf:RDF><cc:Work
         rdf:about=""><dc:format>image/svg+xml</dc:format><dc:type
           rdf:resource="http://purl.org/dc/dcmitype/StillImage" /><dc:title></dc:title></cc:Work></rdf:RDF></metadata><defs
     id="defs19" /><g
     transform="matrix(0.683099,0,0,0.683099,4.8342641e-4,52.92353)"
     id="g3"><path
       d="m 302.254,58.749 c 6.684,-1.107 11.425,-5.841 11.278,-11.261 0.065,-6.251 -6.237,-11.371 -14.111,-11.464 -3.731,-0.014 -7.319,1.141 -9.985,3.213 l 10.969,-19.603 c 0.799,-1.519 1.078,-3.177 0.805,-4.809 -0.996,-5.095 -5.144,-9.452 -11.043,-11.606 -7.465,-2.816 -13.473,0.77 -18.554,4.613 l -8.503,7.234 C 262.954,9.162 255.741,5.123 248.909,4.025 238.518,2.357 231.31,9.009 225.925,14.848 l -0.137,-1.31 C 226.121,7.918 221.613,2.833 214.837,1.184 210.845,0.298 206.632,0.25 202.609,1.046 l -9.61,3.021 c -1.997,-1.953 -5.027,-2.039 -7.895,-1.857 -5.874,0.676 -11.341,2.777 -15.652,6.016 -9.472,6.735 -15.414,16.559 -9.317,26.361 3.495,5.619 11.062,5.977 16.697,3.275 9.561,-4.582 13.565,-8.076 21.558,-13.947 -0.809,3.011 -1.975,5.954 -3.483,8.791 -7.732,16.414 -15.607,32.787 -23.626,49.116 -3.28,5.854 -6.165,11.843 -8.643,17.94 -3.159,7.678 -4.417,18.956 -0.379,26.316 1.381,2.518 3.272,5.243 6.982,5.834 6.861,1.094 10.255,-5.355 12.087,-9.172 3.594,-6.777 7.283,-13.522 11.068,-20.234 l -2.365,5.654 c -0.354,1.668 -0.41,3.367 -0.164,5.048 0.654,5.111 2.466,13.116 7.668,17.299 4.112,3.308 10.034,1.958 12.735,-1.517 l 4.297,-7.305 c 5.525,-8.49 10.479,-17.207 14.84,-26.113 0.792,-1.565 1.601,-3.125 2.43,-4.678 -1.522,4.028 -2.977,8.073 -4.359,12.133 -1.176,3.496 -2.104,7.042 -2.777,10.621 -0.965,6.663 -1.596,13.854 6.077,18.541 2.97,1.781 6.743,2.496 10.405,1.971 6.465,-0.825 11.705,-3.301 17.049,-6.07 5.068,4.508 12.258,7.58 20.07,5.442 4.757,-1.335 8.888,-3.792 11.837,-7.042 1.437,-1.134 3.162,-2.01 5.063,-2.569 0.859,-0.219 1.608,0.104 2.022,0.665 1.596,2.09 3.887,3.789 6.622,4.91 12.148,5.215 22.843,4.458 34.479,-1.117 l 5.794,-2.516 c 0.937,-0.351 1.994,-0.442 3.005,-0.26 1.242,0.4 2.31,1.084 3.063,1.965 3.94,4.345 13.492,6.059 19.79,6.568 23.925,1.938 40.211,-14.767 39.915,-31.803 -0.058,-3.293 -2.428,-6.647 -6.779,-6.317 -3.271,0.247 -6.834,3.093 -8.79,5.291 3.827,-11.4 2.893,-24.183 -1.504,-35.565 l 3.458,-5.598 c 0.5,-0.836 0.825,-1.732 0.965,-2.65 0.663,-4.583 -2.512,-8.838 -8.047,-9.816 -12.085,-2.139 -21.033,5.994 -25.712,13.524 -2.422,3.8 -4.374,7.778 -5.829,11.878 -3.444,7.759 -7.51,15.334 -12.173,22.681 0.385,-2.548 0.785,-7.017 0.614,-9.563 -0.318,-4.71 -1.909,-18.013 -3.23,-21.513 l 2.909,-6.146 c 0.112,-0.307 0.447,-1.845 0.458,-1.97 0.461,-9.503 -14.369,-14.196 -22.271,-7.05 -7.02,5.729 -12.337,12.631 -15.559,20.201 -5.029,10.656 -17.496,27.703 -26.088,35.204 0.514,-2.366 1.266,-4.696 2.249,-6.967 l 6.655,-12.034 c 2.444,-4.221 5.408,-8.238 8.85,-11.995 3.725,-4.091 6.942,-10.625 2.186,-15.179 l 0,0 z M 285.188,46.831 c -0.189,3.764 1.536,6.635 3.972,8.652 -7.751,1.439 -14.061,10.33 -16.982,14.6 l 13.01,-23.252 0,0 z m -21.154,37.807 c -1.635,3.402 -3.124,6.848 -4.469,10.328 -1.301,3.578 -3.739,10.203 -6.137,13.021 0.875,-7.022 6.885,-16.7 10.606,-23.349 l 0,0 z m 101.738,18.75 c -0.044,-1.59 3.499,-5.617 4.893,-7.287 0.073,1.607 0.02,3.217 -0.161,4.819 -0.126,0.89 -0.938,2.565 -2.143,2.669 -0.871,0.066 -1.751,-0.002 -2.589,-0.201 l 0,0 z m -52.23,-0.004 c 0.027,-1.926 2.779,-4.545 3.654,-5.525 -0.121,1.156 -0.297,2.309 -0.532,3.453 -0.203,0.836 -0.673,1.617 -1.367,2.268 -0.267,0.193 -1.453,-0.097 -1.755,-0.196 l 0,0 z"
       id="path5"
       style="fill:#00003d;fill-rule:evenodd" /><path
       d="m 71.352,103.989 c -0.285,6.307 0.489,12.617 2.3,18.762 2.091,6.77 9.252,13.397 18.623,13.407 8.731,0.009 18.805,-5.045 25.124,-10.003 11.254,8.426 23.451,7.793 32.76,-2.695 3.912,-4.457 6.91,-9.376 8.884,-14.576 0.601,-1.555 -0.011,-4.09 -0.596,-5.674 -1.297,-3.515 -6.037,-4.781 -10.081,-2.936 -0.313,0.152 -0.621,0.313 -0.922,0.48 5.909,-5.881 10.736,-12.4 14.336,-19.359 l 0.173,-0.404 c 2.104,-5.429 3.111,-12.832 0.904,-18.556 -2.14,-5.55 -9.59,-9.849 -17.139,-8.549 -5.828,1.153 -11.294,3.245 -16.06,6.146 C 134.439,49.5 147.361,17.136 138.351,4.79 134.417,-0.601 126.331,0.544 120.91,4.006 109.276,11.437 98.741,27.72 92.517,38.907 92.498,31.996 91.445,25.112 89.378,18.399 L 89.77,14.052 C 90.646,12.481 91.04,10.768 90.918,9.051 90.173,0.067 73.46,-0.359 65.95,0.135 33.331,2.28 14.924,38.521 7.441,58.946 c -6.393,17.451 -10.253,38.57 -4.94,56.938 1.087,3.751 2.871,7.353 5.293,10.687 5.494,7.809 16.221,11.712 26.88,8.629 16.847,-4.872 28.827,-19.377 36.678,-31.211 l 0,0 z m 34.998,-7.148 c -0.731,3.762 -1.147,7.557 -1.246,11.361 l -2.207,1.146 c -0.889,0.428 -1.875,0.712 -2.902,0.838 -1.298,-3.039 1.254,-7.914 3.625,-10.418 0.919,-0.97 1.829,-1.946 2.73,-2.927 l 0,0 z m 35.113,9.342 c -6.495,7.082 -5.904,6.104 -7.103,6.453 -0.149,-0.287 -0.259,-0.588 -0.327,-0.893 2.594,-1.752 5.074,-3.607 7.43,-5.56 l 0,0 z m -102.158,2.644 c -3.263,3.717 -5.621,4.119 -6.226,4.135 -8.955,-4.189 -4.009,-25.043 -2.869,-29.564 3.181,-12.021 7.394,-23.855 12.61,-35.42 8.662,1.12 15.891,-3.357 21.24,-8.202 -1.276,8.685 -3.241,17.296 -5.882,25.784 -2.389,8.279 -5.13,16.492 -8.217,24.625 -2.24,5.727 -6.032,13.361 -10.656,18.642 l 0,0 z"
       id="path7"
       style="fill:#00003d;fill-rule:evenodd" /><path
       d="m 62.475,66.401 c -16.06,58.281 -31.546,49.631 -31.546,49.631 -21.222,-9.107 9.177,-72.396 9.177,-72.396 15.486,5.919 29.252,-16.393 29.252,-16.393 0.573,15.938 -6.883,39.158 -6.883,39.158 l 0,0 0,0 z m 22.44,-47.697 0.502,-5.575 C 91.116,3.667 73.482,3.15 66.315,3.636 54.837,4.414 46.309,9.407 38.947,16.157 25.691,28.314 17.276,44.682 11.691,59.927 -1.317,95.442 3.588,127.8 22.648,132.2 c 19.061,4.399 45.057,-20.825 58.067,-56.341 8.194,-22.37 9.282,-43.489 4.2,-57.155 l 0,0 0,0 z"
       id="path9"
       style="fill:#c60001;fill-rule:evenodd" /><path
       d="m 128.276,94.914 c -2.088,-0.901 -0.617,-6.243 3.279,-11.932 3.9,-5.688 8.75,-9.569 10.838,-8.667 2.087,0.901 0.617,6.243 -3.281,11.932 -3.898,5.69 -8.748,9.568 -10.836,8.667 l 0,0 0,0 z M 105.668,56.493 c 4.603,-10.044 9.422,-17.873 10.762,-17.487 1.337,0.386 -1.308,8.844 -5.912,18.89 -4.605,10.045 -9.422,17.877 -10.763,17.489 -1.339,-0.387 1.309,-8.845 5.913,-18.892 l 0,0 0,0 z m 52.018,23.569 c 8.03,-25.043 -10.898,-22.767 -10.898,-22.767 -38.428,7.741 -37.281,52.817 -37.281,52.817 -6.339,3.773 -14.227,6.516 -14.238,-1.865 -0.009,-8.469 9.771,-14.67 14.562,-21.509 5.69,-8.128 10.423,-16.698 14.509,-25.403 13.38,-28.514 16.744,-53.844 7.512,-56.573 -9.232,-2.73 -27.563,18.171 -40.943,46.686 -4.573,9.738 -7.248,19.245 -10.104,27.329 -9.202,26.035 -2.843,43.175 -2.843,43.175 10.898,24.588 39.576,-0.911 39.576,-0.911 24.09,22.312 37.282,-13.204 37.282,-13.204 0,-9.562 -7.457,-2.276 -7.457,-2.276 -6.309,7.74 -8.604,9.106 -8.604,9.106 -9.75,5.464 -9.177,-4.554 -9.177,-4.554 21.221,-14.116 28.104,-30.051 28.104,-30.051 l 0,0 0,0 z"
       id="path11"
       style="fill:#c60001;fill-rule:evenodd" /><path
       d="m 309.106,47.505 c 0,4.402 -4.365,7.969 -9.75,7.969 -5.385,0 -9.75,-3.566 -9.75,-7.969 0,-4.399 4.365,-7.967 9.75,-7.967 5.385,0 9.75,3.567 9.75,7.967 l 0,0 0,0 z"
       id="path13"
       style="fill:#c60001;fill-rule:evenodd" /><path
       d="m 364.38,106.724 c 0,0 -6.105,-0.937 -0.987,-8.272 l 9.909,-11.872 c 0,-0.001 8.178,23.962 -8.922,20.144 l 0,0 0,0 z m -52.979,-0.254 c 0,0 -5.162,-1.365 0,-8.195 l 9.751,-10.928 c 0,0 4.589,24.132 -9.751,19.123 l 0,0 0,0 z m 84.888,-0.91 c 0,0 -9.178,15.937 -13.192,7.285 0,0 16.632,-17.756 5.165,-46.895 -0.563,-1.424 4.451,-6.779 4.585,-8.873 0.552,-8.598 -11.986,-6.922 -17.325,-2.991 -7.025,5.175 -11.04,12.966 -13.646,20.056 0,0 -14.913,34.605 -29.251,40.524 0,0 -2.867,-1.366 0.572,-3.643 0,0 8.608,-4.101 8.482,-24.588 0,0 -1.597,-18.649 -3.317,-21.396 -0.607,-0.972 3.499,-6.931 3.448,-8.603 -0.204,-6.825 -9.24,-8.773 -14.592,-4.535 -6.191,4.905 -12.136,12.45 -14.669,19.053 0,0 -13.187,26.401 -30.966,39.608 -8.25,6.126 -2.283,-11.77 -1.145,-13.885 4.549,-8.443 9.061,-17.413 16.051,-24.813 0,0 10.897,-11.84 -4.59,-13.205 0,0 -12.617,-1.366 -28.104,37.336 0,0 -5.162,17.758 -12.045,16.848 0,0 -8.03,1.366 2.867,-20.035 0,0 39.971,-71.619 40.149,-71.94 1.112,-1.994 2.409,-3.175 2.057,-5.582 -0.677,-4.601 -7.741,-10.655 -13.75,-9.37 -6.052,1.291 -13.013,8.439 -16.983,11.766 l -16.635,16.391 c 0,0 15.479,-18.203 6.316,-23.673 -15.844,-9.458 -24.271,5.034 -33.273,14.111 l -1.147,-10.928 c 0,0 1.147,-11.839 -17.78,-9.106 L 189.232,9.03 c 1.991,-3.083 -0.248,-3.549 -3.494,-3.342 -9.675,0.617 -20.508,9.3 -22.858,16.366 -2.22,6.681 0.875,17.294 11.685,12.791 8.002,-3.331 15.945,-10.044 22.697,-14.888 0,0 12.045,-6.829 1.721,14.115 -8.05,16.336 -15.158,32.9 -23.622,49.111 -6.162,11.801 -13.747,24.557 -10.37,37.687 2.414,9.386 7.645,10.742 12.197,0.625 0,0 30.971,-59.192 43.59,-70.575 0,0 -24.663,52.358 -26.384,57.828 -1.399,4.447 3.501,24.776 11.386,19.117 1.751,-1.256 3.6,-5.959 4.818,-7.732 14.275,-20.811 21.232,-45.756 41.152,-64.205 -7.388,15.734 -14.852,31.723 -20.001,48.02 -1.749,5.532 -4.903,15.813 -2.042,21.322 5.892,11.348 21.65,2.275 29.498,-1.953 0,0 12.046,15.936 27.531,0.91 0,0 9.178,-7.74 14.34,-1.365 2.556,3.154 7.649,4.896 11.998,5.863 5.389,1.195 10.273,0.961 15.604,-0.401 9.259,-2.374 16.939,-11.222 25.167,-2.73 3.19,3.293 11.856,4.697 16.58,5.05 21.177,1.582 35.04,-12.992 35.04,-28.271 0,-0.001 0,-8.196 -9.176,3.187 l 0,0 0,0 z"
       id="path15"
       style="fill:#c60001;fill-rule:evenodd" /></g></svg>