<?xml version="1.0" encoding="UTF-8" standalone="no"?>
<!-- Created with Inkscape (http://www.inkscape.org/) -->

<svg
   xmlns:dc="http://purl.org/dc/elements/1.1/"
   xmlns:cc="http://creativecommons.org/ns#"
   xmlns:rdf="http://www.w3.org/1999/02/22-rdf-syntax-ns#"
   xmlns:svg="http://www.w3.org/2000/svg"
   xmlns="http://www.w3.org/2000/svg"
   version="1.1"
   width="280"
   height="200"
   viewBox="0 0 224 160"
   id="svg2">
  <metadata
     id="metadata55">
    <rdf:RDF>
      <cc:Work
         rdf:about="">
        <dc:format>image/svg+xml</dc:format>
        <dc:type
           rdf:resource="http://purl.org/dc/dcmitype/StillImage" />
        <dc:title></dc:title>
      </cc:Work>
    </rdf:RDF>
  </metadata>
  <defs
     id="defs53" />
  <g
     transform="matrix(0.3260589,0,0,0.3260589,28.703878,-0.95099747)"
     id="#000000ff" />
  <g
     transform="matrix(0.3260589,0,0,0.3260589,28.703878,-0.95099747)"
     id="#ffffffff">
    <path
       d="m 250.87,3.42 c 9.68,-1.25 19.41,0.18 29.1,0.52 32.13,2.64 63.85,11.51 92.46,26.43 6.53,3.29 13,6.78 19,10.96 12.19,7.44 23.6,16.25 34.03,25.99 7.07,5.61 13.02,12.5 19,19.21 36.61,41.32 58.71,95.45 60.87,150.66 0.47,3.73 -0.36,7.54 0.5,11.22 -0.79,3.44 -0.1,6.99 -0.47,10.48 -0.35,2.98 -0.16,5.98 0.26,8.95 l -1.34,-0.8 c 0.58,4.94 -0.26,9.88 -0.95,14.78 -6.64,49.96 -29.49,97.56 -64.06,134.16 -2.77,3.63 -6.29,6.59 -9.46,9.86 -4.18,2.85 -7.14,7.09 -11.37,9.87 -49.1,42.21 -115.71,62.99 -180.07,56.86 -34.65,-3.01 -68.7,-13.6 -98.84,-30.94 -21.26,-11.95 -40.51,-27.26 -57.37,-44.8 -2.55,-3.81 -6.32,-6.52 -8.98,-10.22 -7.08,-8.68 -14.16,-17.5 -19.82,-27.19 -4.6,-6.62 -8.3,-13.8 -11.99,-20.94 -12.03,-23.7 -19.97,-49.45 -23.77,-75.74 -0.76,-4.18 -1.21,-8.45 -0.9,-12.69 l -1.25,0.73 c 0.29,-5.58 0.42,-11.22 -0.42,-16.76 -0.39,-38.32 7.4,-76.99 24.35,-111.49 13,-27.63 31.66,-52.4 53.72,-73.41 2.49,-2.16 5.19,-4.06 7.39,-6.53 14.22,-11.92 29.45,-22.78 46.03,-31.2 1.99,-1.04 4,-2.04 6.03,-3.02 C 183,13.09 216.85,4.67 250.87,3.42 m -1.76,8.76 C 191.19,14.75 134.69,39.72 93.74,80.75 62.57,111.62 40.27,151.36 30.26,194.09 c -5.48,23.51 -7.57,47.87 -5.61,71.95 3.94,56.92 29.67,111.99 70.75,151.58 36.73,36.26 85.79,59.76 137.06,65.68 42.97,5.23 87.37,-1.75 126.67,-19.91 33.8,-15.52 63.78,-39.22 86.83,-68.41 25.38,-31.98 42.24,-70.67 48.26,-111.07 5.43,-35.28 2.62,-71.77 -8.01,-105.84 C 472.41,133.57 445.03,93.43 408.73,64.26 364.27,28.14 306.31,9.26 249.11,12.18 z"
       id="path6"
       style="fill:#ffffff" />
    <path
       d="m 215.17,45.72 c 32.16,-6.71 65.84,-6.45 97.71,1.76 -0.12,19.17 -0.01,38.34 -0.06,57.51 -3.6,-4.59 -6.93,-9.38 -10.19,-14.22 0,-10.68 0.13,-21.36 -0.06,-32.03 C 277.85,53.36 252.13,52.83 227.19,57 223.31,53.25 219.52,49.41 215.4,45.92 l -0.23,-0.2 z"
       id="path8"
       style="fill:#ffffff" />
    <path
       d="m 115.22,100.27 c 23.22,-22.71 51.72,-40.06 82.72,-49.84 -0.21,43.24 -0.15,86.49 -0.03,129.73 l -0.2,-0.23 c -3.01,-3.52 -6.06,-7.01 -9.28,-10.34 -0.09,-33.97 0.02,-67.93 -0.06,-101.9 -37.41,15.07 -70.11,41.85 -91.69,75.97 -9.22,14.4 -16.69,29.96 -21.74,46.32 -4.41,-0.49 -8.8,-1.03 -13.2,-1.57 9.96,-33.29 28.71,-63.82 53.48,-88.14 z"
       id="path10"
       style="fill:#ffffff" />
    <path
       d="m 330.37,52.96 c 56.14,19.82 102.66,65.12 123.86,120.78 1.18,3.03 2.28,6.1 3.37,9.16 -0.59,0.49 -1.19,0.98 -1.78,1.46 -4.32,-2.16 -8.98,-3.48 -13.46,-5.22 C 424.56,132.17 387.88,92.64 342.09,71.9 338.04,65.68 334.45,59.17 330.37,52.96 z"
       id="path12"
       style="fill:#ffffff" />
    <path
       d="m 254.33,237.96 c 0.18,-50.97 -0.03,-101.94 0.11,-152.9 0.18,0.09 0.55,0.27 0.73,0.36 2.89,3.37 5.95,6.58 8.73,10.04 -0.18,43.64 0,87.28 -0.09,130.92 16.35,-0.04 32.71,0.07 49.07,-0.06 -0.12,16.29 -0.01,32.57 -0.06,48.86 l -0.42,-0.38 c -3.29,-2.93 -6.53,-5.91 -9.75,-8.91 0.02,-9.28 -0.02,-18.56 0.03,-27.85 -16.12,-0.12 -32.23,0.04 -48.35,-0.08 z"
       id="path14"
       style="fill:#ffffff" />
    <path
       d="m 369.29,126.89 c 0.4,0.61 0.8,1.21 1.22,1.82 2.69,7.75 5.95,15.3 8.44,23.13 -0.27,64.34 -0.09,128.69 -0.09,193.04 13.82,-16.77 23.98,-36.62 29.42,-57.66 16.58,7.25 33.31,14.17 50.04,21.07 -0.44,1.52 -2.08,1.94 -3.38,2.46 -3.79,1.33 -7.52,2.86 -11.34,4.11 -9.7,-4.31 -19.47,-8.5 -29.37,-12.33 -8.91,25.82 -24.9,48.89 -44.9,67.37 0.09,-81 0.17,-162.01 -0.04,-243.01 z"
       id="path16"
       style="fill:#ffffff" />
    <path
       d="m 111.95,186.44 c 3.63,-0.74 7.2,-1.75 10.7,-2.97 0.17,0.03 0.52,0.07 0.7,0.1 l -1.48,0.78 c 24.97,28.65 49.47,57.71 74.32,86.47 0.66,0.95 1.94,1.77 1.65,3.12 -0.1,57.48 0.13,114.97 -0.12,172.45 l -0.33,-0.52 c -3.27,-5.44 -6.07,-11.16 -8.97,-16.8 -0.05,-49.66 -0.01,-99.33 -0.02,-148.99 -26.37,-31.03 -53.06,-61.79 -79.44,-92.81 0.99,-0.29 1.99,-0.57 2.99,-0.83 z"
       id="path18"
       style="fill:#ffffff" />
    <path
       d="m 254.33,266.09 c 0.26,0 0.77,-0.02 1.02,-0.03 2.85,2.87 5.72,5.72 8.55,8.6 -0.18,42.18 -0.01,84.36 -0.08,126.55 16.7,-0.39 33.33,-3.57 49.05,-9.24 -0.13,19.18 0.04,38.36 -0.08,57.54 -3.54,-3.69 -6.88,-7.56 -10.2,-11.45 0.15,-10.59 0.02,-21.18 0.08,-31.77 -15.72,4.16 -32.07,5.89 -48.31,5.39 0.04,-48.53 0.1,-97.06 -0.03,-145.59 z"
       id="path20"
       style="fill:#ffffff" />
    <path
       d="m 61.17,308.23 c 17.18,-7.06 34.16,-14.65 51.46,-21.4 6.46,24.56 19.06,47.51 36.51,65.98 3.17,7.11 6.43,14.2 10.11,21.07 -0.23,0.32 -0.68,0.97 -0.91,1.29 -23.74,-18.85 -41.9,-44.67 -51.78,-73.34 -9.88,3.94 -19.69,8.08 -29.46,12.29 -5.09,-1.75 -10.05,-3.84 -15.13,-5.61 -0.2,-0.07 -0.6,-0.21 -0.8,-0.28 z"
       id="path22"
       style="fill:#ffffff" />
  </g>
  <g
     transform="matrix(0.3260589,0,0,0.3260589,28.703878,-0.95099747)"
     id="#1d427dff">
    <path
       d="m 249.11,12.18 c 57.2,-2.92 115.16,15.96 159.62,52.08 36.3,29.17 63.68,69.31 77.48,113.81 10.63,34.07 13.44,70.56 8.01,105.84 -6.02,40.4 -22.88,79.09 -48.26,111.07 -23.05,29.19 -53.03,52.89 -86.83,68.41 -39.3,18.16 -83.7,25.14 -126.67,19.91 C 181.19,477.38 132.13,453.88 95.4,417.62 54.32,378.03 28.59,322.96 24.65,266.04 22.69,241.96 24.78,217.6 30.26,194.09 40.27,151.36 62.57,111.62 93.74,80.75 c 40.95,-41.03 97.45,-66 155.37,-68.57 m -33.94,33.54 0.23,0.2 c -0.07,135.01 0.12,270.03 -0.09,405.04 32.02,7.29 65.63,6.26 97.48,-1.45 0.12,-19.18 -0.05,-38.36 0.08,-57.54 -15.72,5.67 -32.35,8.85 -49.05,9.24 0.07,-42.19 -0.1,-84.37 0.08,-126.55 16.16,0.34 32.33,0.05 48.5,0.14 l 0.42,0.38 c 0.05,-16.29 -0.06,-32.57 0.06,-48.86 -16.36,0.13 -32.72,0.02 -49.07,0.06 0.09,-43.64 -0.09,-87.28 0.09,-130.92 16.63,0.86 33.32,3.52 48.92,9.53 0.05,-19.17 -0.06,-38.34 0.06,-57.51 -31.87,-8.21 -65.55,-8.47 -97.71,-1.76 m -99.95,54.55 C 90.45,124.59 71.7,155.12 61.74,188.41 l -0.41,-0.06 c 29.52,34.04 58.67,68.4 88.07,102.54 -0.17,20.64 0.33,41.29 -0.26,61.92 -17.45,-18.47 -30.05,-41.42 -36.51,-65.98 -17.3,6.75 -34.28,14.34 -51.46,21.4 0.2,0.07 0.6,0.21 0.8,0.28 2.44,9.42 6.21,18.46 10.22,27.32 22.64,49 65.17,88.32 115.77,107.09 3.1,1.12 6.17,2.39 9.43,2.95 l 0.33,0.52 c 0.25,-57.48 0.02,-114.97 0.12,-172.45 0.29,-1.35 -0.99,-2.17 -1.65,-3.12 C 171.34,242.06 146.84,213 121.87,184.35 l 1.48,-0.78 c -0.18,-0.03 -0.53,-0.07 -0.7,-0.1 l 0.29,-0.09 c 0.15,-1.7 0.92,-3.23 1.71,-4.7 6.64,-12.61 14.78,-24.53 24.74,-34.75 -0.03,12.02 0.11,24.03 -0.08,36.05 16.14,0 32.27,0.1 48.4,-0.05 l 0.2,0.23 c -0.12,-43.24 -0.18,-86.49 0.03,-129.73 -31,9.78 -59.5,27.13 -82.72,49.84 M 330.19,52.69 c -0.02,130.45 0.05,260.9 -0.03,391.35 26.19,-9.43 50.48,-24.09 70.94,-42.98 25.99,-23.82 45.68,-54.4 56.72,-87.89 0.25,-1.53 1.93,-3.57 0.5,-4.88 -16.73,-6.9 -33.46,-13.82 -50.04,-21.07 -5.44,21.04 -15.6,40.89 -29.42,57.66 0,-64.35 -0.18,-128.7 0.09,-193.04 12.86,16.09 22.9,34.57 28.4,54.46 14.42,-5.77 28.67,-11.97 43.03,-17.89 2.54,-0.99 4.96,-2.37 7.68,-2.83 -0.09,-0.95 -0.17,-1.91 -0.24,-2.85 l -0.22,0.17 c -1.09,-3.06 -2.19,-6.13 -3.37,-9.16 C 433.03,118.08 386.51,72.78 330.37,52.96 l -0.18,-0.27 z"
       id="path25"
       style="fill:#1d427d" />
  </g>
  <g
     transform="matrix(0.3260589,0,0,0.3260589,28.703878,-0.95099747)"
     id="#e6a623ff">
    <path
       d="m 215.4,45.92 c 4.12,3.49 7.91,7.33 11.79,11.08 -0.45,26.65 -0.06,53.32 -0.19,79.98 0.05,100.94 -0.1,201.88 0.06,302.82 24.99,4.31 50.77,3.8 75.53,-1.74 3.32,3.89 6.66,7.76 10.2,11.45 -31.85,7.71 -65.46,8.74 -97.48,1.45 0.21,-135.01 0.02,-270.03 0.09,-405.04 z"
       id="path28"
       style="fill:#e6a623" />
    <path
       d="m 330.19,52.69 0.18,0.27 c 4.08,6.21 7.67,12.72 11.72,18.94 -0.2,94.03 -0.03,188.06 -0.1,282.08 0.07,23.71 -0.11,47.42 0.12,71.12 46.73,-21.29 83.92,-62.04 101.49,-110.24 3.82,-1.25 7.55,-2.78 11.34,-4.11 1.3,-0.52 2.94,-0.94 3.38,-2.46 1.43,1.31 -0.25,3.35 -0.5,4.88 -11.04,33.49 -30.73,64.07 -56.72,87.89 -20.46,18.89 -44.75,33.55 -70.94,42.98 0.08,-130.45 0.01,-260.9 0.03,-391.35 z"
       id="path30"
       style="fill:#e6a623" />
    <path
       d="m 255.17,85.42 c 8.83,-0.89 17.7,0.04 26.48,1.08 7.07,0.98 14.16,2.12 20.98,4.27 3.26,4.84 6.59,9.63 10.19,14.22 -15.6,-6.01 -32.29,-8.67 -48.92,-9.53 -2.78,-3.46 -5.84,-6.67 -8.73,-10.04 z"
       id="path32"
       style="fill:#e6a623" />
    <path
       d="m 123.83,159.85 c 10.09,-15.22 22.37,-29.17 37.08,-40.06 0.27,16.65 -0.08,33.31 0.17,49.96 9.12,-0.01 18.24,0.19 27.35,-0.16 3.22,3.33 6.27,6.82 9.28,10.34 -16.13,0.15 -32.26,0.05 -48.4,0.05 0.19,-12.02 0.05,-24.03 0.08,-36.05 -9.96,10.22 -18.1,22.14 -24.74,34.75 -0.79,1.47 -1.56,3 -1.71,4.7 l -0.29,0.09 c -3.5,1.22 -7.07,2.23 -10.7,2.97 -0.48,-0.05 -1.44,-0.16 -1.91,-0.21 3.5,-9.32 8.49,-17.99 13.79,-26.38 z"
       id="path34"
       style="fill:#e6a623" />
    <path
       d="m 370.51,128.71 c 5.16,4.07 9.55,9 13.88,13.93 12.3,14.4 22.1,30.93 28.79,48.66 9.89,-3.63 19.54,-7.91 29.18,-12.16 4.48,1.74 9.14,3.06 13.46,5.22 0.59,-0.48 1.19,-0.97 1.78,-1.46 l 0.22,-0.17 c 0.07,0.94 0.15,1.9 0.24,2.85 -2.72,0.46 -5.14,1.84 -7.68,2.83 -14.36,5.92 -28.61,12.12 -43.03,17.89 -5.5,-19.89 -15.54,-38.37 -28.4,-54.46 -2.49,-7.83 -5.75,-15.38 -8.44,-23.13 z"
       id="path36"
       style="fill:#e6a623" />
    <path
       d="m 61.33,188.35 0.41,0.06 c 4.4,0.54 8.79,1.08 13.2,1.57 28.32,32.42 56.04,65.37 84.26,97.88 2.61,2.33 1.67,6.06 1.83,9.15 -0.1,24.33 0.05,48.65 -0.07,72.98 -0.02,2.14 0.34,4.23 0.74,6.33 -1.19,-0.27 -2.38,-0.56 -3.56,-0.85 l 0.2,-0.3 c 0.23,-0.32 0.68,-0.97 0.91,-1.29 -3.68,-6.87 -6.94,-13.96 -10.11,-21.07 0.59,-20.63 0.09,-41.28 0.26,-61.92 C 120,256.75 90.85,222.39 61.33,188.35 z"
       id="path38"
       style="fill:#e6a623" />
    <path
       d="m 255.35,266.06 c 15.75,-0.62 31.54,-0.24 47.3,-0.17 3.22,3 6.46,5.98 9.75,8.91 -16.17,-0.09 -32.34,0.2 -48.5,-0.14 -2.83,-2.88 -5.7,-5.73 -8.55,-8.6 z"
       id="path40"
       style="fill:#e6a623" />
    <path
       d="m 61.97,308.51 c 5.08,1.77 10.04,3.86 15.13,5.61 1.75,3.91 3.24,7.92 4.92,11.85 20.1,46.52 59.14,84.67 106.4,103.1 2.9,5.64 5.7,11.36 8.97,16.8 -3.26,-0.56 -6.33,-1.83 -9.43,-2.95 -50.6,-18.77 -93.13,-58.09 -115.77,-107.09 -4.01,-8.86 -7.78,-17.9 -10.22,-27.32 z"
       id="path42"
       style="fill:#e6a623" />
  </g>
  <g
     transform="matrix(0.3260589,0,0,0.3260589,28.703878,-0.95099747)"
     id="#ffd24fff">
    <path
       d="m 227.19,57 c 24.94,-4.17 50.66,-3.64 75.38,1.74 0.19,10.67 0.06,21.35 0.06,32.03 -6.82,-2.15 -13.91,-3.29 -20.98,-4.27 -8.78,-1.04 -17.65,-1.97 -26.48,-1.08 -0.18,-0.09 -0.55,-0.27 -0.73,-0.36 -0.14,50.96 0.07,101.93 -0.11,152.9 16.12,0.12 32.23,-0.04 48.35,0.08 -0.05,9.29 -0.01,18.57 -0.03,27.85 -15.76,-0.07 -31.55,-0.45 -47.3,0.17 -0.25,0.01 -0.76,0.03 -1.02,0.03 0.13,48.53 0.07,97.06 0.03,145.59 16.24,0.5 32.59,-1.23 48.31,-5.39 -0.06,10.59 0.07,21.18 -0.08,31.77 -24.76,5.54 -50.54,6.05 -75.53,1.74 C 226.9,338.86 227.05,237.92 227,136.98 227.13,110.32 226.74,83.65 227.19,57 z"
       id="path45"
       style="fill:#ffd24f" />
    <path
       d="m 96.68,143.66 c 21.58,-34.12 54.28,-60.9 91.69,-75.97 0.08,33.97 -0.03,67.93 0.06,101.9 -9.11,0.35 -18.23,0.15 -27.35,0.16 -0.25,-16.65 0.1,-33.31 -0.17,-49.96 -14.71,10.89 -26.99,24.84 -37.08,40.06 -5.3,8.39 -10.29,17.06 -13.79,26.38 0.47,0.05 1.43,0.16 1.91,0.21 -1,0.26 -2,0.54 -2.99,0.83 26.38,31.02 53.07,61.78 79.44,92.81 0.01,49.66 -0.03,99.33 0.02,148.99 -47.26,-18.43 -86.3,-56.58 -106.4,-103.1 -1.68,-3.93 -3.17,-7.94 -4.92,-11.85 9.77,-4.21 19.58,-8.35 29.46,-12.29 9.88,28.67 28.04,54.49 51.78,73.34 l -0.2,0.3 c 1.18,0.29 2.37,0.58 3.56,0.85 -0.4,-2.1 -0.76,-4.19 -0.74,-6.33 0.12,-24.33 -0.03,-48.65 0.07,-72.98 -0.16,-3.09 0.78,-6.82 -1.83,-9.15 -28.22,-32.51 -55.94,-65.46 -84.26,-97.88 5.05,-16.36 12.52,-31.92 21.74,-46.32 z"
       id="path47"
       style="fill:#ffd24f" />
    <path
       d="m 342.09,71.9 c 45.79,20.74 82.47,60.27 100.27,107.24 -9.64,4.25 -19.29,8.53 -29.18,12.16 -6.69,-17.73 -16.49,-34.26 -28.79,-48.66 -4.33,-4.93 -8.72,-9.86 -13.88,-13.93 -0.42,-0.61 -0.82,-1.21 -1.22,-1.82 0.21,81 0.13,162.01 0.04,243.01 20,-18.48 35.99,-41.55 44.9,-67.37 9.9,3.83 19.67,8.02 29.37,12.33 -17.57,48.2 -54.76,88.95 -101.49,110.24 -0.23,-23.7 -0.05,-47.41 -0.12,-71.12 0.07,-94.02 -0.1,-188.05 0.1,-282.08 z"
       id="path49"
       style="fill:#ffd24f" />
  </g>
</svg>
