<?xml version="1.0" encoding="UTF-8"?>
<!DOCTYPE svg PUBLIC "-//W3C//DTD SVG 1.1//EN" "http://www.w3.org/Graphics/SVG/1.1/DTD/svg11.dtd">
<svg width="524pt" height="498pt" viewBox="0 0 524 498" version="1.1" xmlns="http://www.w3.org/2000/svg">
<g id="#000000ff">
</g>
<g id="#ffffffff">
<path fill="#ffffff" opacity="1.00" d=" M 250.87 3.42 C 260.55 2.17 270.28 3.60 279.97 3.94 C 312.10 6.58 343.82 15.45 372.43 30.37 C 378.96 33.66 385.43 37.15 391.43 41.33 C 403.62 48.77 415.03 57.58 425.46 67.32 C 432.53 72.93 438.48 79.82 444.46 86.53 C 481.07 127.85 503.17 181.98 505.33 237.19 C 505.80 240.92 504.97 244.73 505.83 248.41 C 505.04 251.85 505.73 255.40 505.36 258.89 C 505.01 261.87 505.20 264.87 505.62 267.84 L 504.28 267.04 C 504.86 271.98 504.02 276.92 503.33 281.82 C 496.69 331.78 473.84 379.38 439.27 415.98 C 436.50 419.61 432.98 422.57 429.81 425.84 C 425.63 428.69 422.67 432.93 418.44 435.71 C 369.34 477.92 302.73 498.70 238.37 492.57 C 203.72 489.56 169.67 478.97 139.53 461.63 C 118.27 449.68 99.02 434.37 82.16 416.83 C 79.61 413.02 75.84 410.31 73.18 406.61 C 66.10 397.93 59.02 389.11 53.36 379.42 C 48.76 372.80 45.06 365.62 41.37 358.48 C 29.34 334.78 21.40 309.03 17.60 282.74 C 16.84 278.56 16.39 274.29 16.70 270.05 L 15.45 270.78 C 15.74 265.20 15.87 259.56 15.03 254.02 C 14.64 215.70 22.43 177.03 39.38 142.53 C 52.38 114.90 71.04 90.13 93.10 69.12 C 95.59 66.96 98.29 65.06 100.49 62.59 C 114.71 50.67 129.94 39.81 146.52 31.39 C 148.51 30.35 150.52 29.35 152.55 28.37 C 183.00 13.09 216.85 4.67 250.87 3.42 M 249.11 12.18 C 191.19 14.75 134.69 39.72 93.74 80.75 C 62.57 111.62 40.27 151.36 30.26 194.09 C 24.78 217.60 22.69 241.96 24.65 266.04 C 28.59 322.96 54.32 378.03 95.40 417.62 C 132.13 453.88 181.19 477.38 232.46 483.30 C 275.43 488.53 319.83 481.55 359.13 463.39 C 392.93 447.87 422.91 424.17 445.96 394.98 C 471.34 363.00 488.20 324.31 494.22 283.91 C 499.65 248.63 496.84 212.14 486.21 178.07 C 472.41 133.57 445.03 93.43 408.73 64.26 C 364.27 28.14 306.31 9.26 249.11 12.18 Z"/>
<path fill="#ffffff" opacity="1.00" d=" M 215.17 45.72 C 247.33 39.01 281.01 39.27 312.88 47.48 C 312.76 66.65 312.87 85.82 312.82 104.99 C 309.22 100.40 305.89 95.61 302.63 90.77 C 302.63 80.09 302.76 69.41 302.57 58.74 C 277.85 53.36 252.13 52.83 227.19 57.00 C 223.31 53.25 219.52 49.41 215.40 45.92 L 215.17 45.72 Z"/>
<path fill="#ffffff" opacity="1.00" d=" M 115.22 100.27 C 138.44 77.56 166.94 60.21 197.94 50.43 C 197.73 93.67 197.79 136.92 197.91 180.16 L 197.71 179.93 C 194.70 176.41 191.65 172.92 188.43 169.59 C 188.34 135.62 188.45 101.66 188.37 67.69 C 150.96 82.76 118.26 109.54 96.68 143.66 C 87.46 158.06 79.99 173.62 74.94 189.98 C 70.53 189.49 66.14 188.95 61.74 188.41 C 71.70 155.12 90.45 124.59 115.22 100.27 Z"/>
<path fill="#ffffff" opacity="1.00" d=" M 330.37 52.96 C 386.51 72.78 433.03 118.08 454.23 173.74 C 455.41 176.77 456.51 179.84 457.60 182.90 C 457.01 183.39 456.41 183.88 455.82 184.36 C 451.50 182.20 446.84 180.88 442.36 179.14 C 424.56 132.17 387.88 92.64 342.09 71.90 C 338.04 65.68 334.45 59.17 330.37 52.96 Z"/>
<path fill="#ffffff" opacity="1.00" d=" M 254.33 237.96 C 254.51 186.99 254.30 136.02 254.44 85.06 C 254.62 85.15 254.99 85.33 255.17 85.42 C 258.06 88.79 261.12 92.00 263.90 95.46 C 263.72 139.10 263.90 182.74 263.81 226.38 C 280.16 226.34 296.52 226.45 312.88 226.32 C 312.76 242.61 312.87 258.89 312.82 275.18 L 312.40 274.80 C 309.11 271.87 305.87 268.89 302.65 265.89 C 302.67 256.61 302.63 247.33 302.68 238.04 C 286.56 237.92 270.45 238.08 254.33 237.96 Z"/>
<path fill="#ffffff" opacity="1.00" d=" M 369.29 126.89 C 369.69 127.50 370.09 128.10 370.51 128.71 C 373.20 136.46 376.46 144.01 378.95 151.84 C 378.68 216.18 378.86 280.53 378.86 344.88 C 392.68 328.11 402.84 308.26 408.28 287.22 C 424.86 294.47 441.59 301.39 458.32 308.29 C 457.88 309.81 456.24 310.23 454.94 310.75 C 451.15 312.08 447.42 313.61 443.60 314.86 C 433.90 310.55 424.13 306.36 414.23 302.53 C 405.32 328.35 389.33 351.42 369.33 369.90 C 369.42 288.90 369.50 207.89 369.29 126.89 Z"/>
<path fill="#ffffff" opacity="1.00" d=" M 111.95 186.44 C 115.58 185.70 119.15 184.69 122.65 183.47 C 122.82 183.50 123.17 183.54 123.35 183.57 L 121.87 184.35 C 146.84 213.00 171.34 242.06 196.19 270.82 C 196.85 271.77 198.13 272.59 197.84 273.94 C 197.74 331.42 197.97 388.91 197.72 446.39 L 197.39 445.87 C 194.12 440.43 191.32 434.71 188.42 429.07 C 188.37 379.41 188.41 329.74 188.40 280.08 C 162.03 249.05 135.34 218.29 108.96 187.27 C 109.95 186.98 110.95 186.70 111.95 186.44 Z"/>
<path fill="#ffffff" opacity="1.00" d=" M 254.33 266.09 C 254.59 266.09 255.10 266.07 255.35 266.06 C 258.20 268.93 261.07 271.78 263.90 274.66 C 263.72 316.84 263.89 359.02 263.82 401.21 C 280.52 400.82 297.15 397.64 312.87 391.97 C 312.74 411.15 312.91 430.33 312.79 449.51 C 309.25 445.82 305.91 441.95 302.59 438.06 C 302.74 427.47 302.61 416.88 302.67 406.29 C 286.95 410.45 270.60 412.18 254.36 411.68 C 254.40 363.15 254.46 314.62 254.33 266.09 Z"/>
<path fill="#ffffff" opacity="1.00" d=" M 61.17 308.23 C 78.35 301.17 95.33 293.58 112.63 286.83 C 119.09 311.39 131.69 334.34 149.14 352.81 C 152.31 359.92 155.57 367.01 159.25 373.88 C 159.02 374.20 158.57 374.85 158.34 375.17 C 134.60 356.32 116.44 330.50 106.56 301.83 C 96.68 305.77 86.87 309.91 77.10 314.12 C 72.01 312.37 67.05 310.28 61.97 308.51 C 61.77 308.44 61.37 308.30 61.17 308.23 Z"/>
</g>
<g id="#1d427dff">
<path fill="#1d427d" opacity="1.00" d=" M 249.11 12.18 C 306.31 9.26 364.27 28.14 408.73 64.26 C 445.03 93.43 472.41 133.57 486.21 178.07 C 496.84 212.14 499.65 248.63 494.22 283.91 C 488.20 324.31 471.34 363.00 445.96 394.98 C 422.91 424.17 392.93 447.87 359.13 463.39 C 319.83 481.55 275.43 488.53 232.46 483.30 C 181.19 477.38 132.13 453.88 95.40 417.62 C 54.32 378.03 28.59 322.96 24.65 266.04 C 22.69 241.96 24.78 217.60 30.26 194.09 C 40.27 151.36 62.57 111.62 93.74 80.75 C 134.69 39.72 191.19 14.75 249.11 12.18 M 215.17 45.72 L 215.40 45.92 C 215.33 180.93 215.52 315.95 215.31 450.96 C 247.33 458.25 280.94 457.22 312.79 449.51 C 312.91 430.33 312.74 411.15 312.87 391.97 C 297.15 397.64 280.52 400.82 263.82 401.21 C 263.89 359.02 263.72 316.84 263.90 274.66 C 280.06 275.00 296.23 274.71 312.40 274.80 L 312.82 275.18 C 312.87 258.89 312.76 242.61 312.88 226.32 C 296.52 226.45 280.16 226.34 263.81 226.38 C 263.90 182.74 263.72 139.10 263.90 95.46 C 280.53 96.32 297.22 98.98 312.82 104.99 C 312.87 85.82 312.76 66.65 312.88 47.48 C 281.01 39.27 247.33 39.01 215.17 45.72 M 115.22 100.27 C 90.45 124.59 71.70 155.12 61.74 188.41 L 61.33 188.35 C 90.85 222.39 120.00 256.75 149.40 290.89 C 149.23 311.53 149.73 332.18 149.14 352.81 C 131.69 334.34 119.09 311.39 112.63 286.83 C 95.33 293.58 78.35 301.17 61.17 308.23 C 61.37 308.30 61.77 308.44 61.97 308.51 C 64.41 317.93 68.18 326.97 72.19 335.83 C 94.83 384.83 137.36 424.15 187.96 442.92 C 191.06 444.04 194.13 445.31 197.39 445.87 L 197.72 446.39 C 197.97 388.91 197.74 331.42 197.84 273.94 C 198.13 272.59 196.85 271.77 196.19 270.82 C 171.34 242.06 146.84 213.00 121.87 184.35 L 123.35 183.57 C 123.17 183.54 122.82 183.50 122.65 183.47 L 122.94 183.38 C 123.09 181.68 123.86 180.15 124.65 178.68 C 131.29 166.07 139.43 154.15 149.39 143.93 C 149.36 155.95 149.50 167.96 149.31 179.98 C 165.45 179.98 181.58 180.08 197.71 179.93 L 197.91 180.16 C 197.79 136.92 197.73 93.67 197.94 50.43 C 166.94 60.21 138.44 77.56 115.22 100.27 M 330.19 52.69 C 330.17 183.14 330.24 313.59 330.16 444.04 C 356.35 434.61 380.64 419.95 401.10 401.06 C 427.09 377.24 446.78 346.66 457.82 313.17 C 458.07 311.64 459.75 309.60 458.32 308.29 C 441.59 301.39 424.86 294.47 408.28 287.22 C 402.84 308.26 392.68 328.11 378.86 344.88 C 378.86 280.53 378.68 216.18 378.95 151.84 C 391.81 167.93 401.85 186.41 407.35 206.30 C 421.77 200.53 436.02 194.33 450.38 188.41 C 452.92 187.42 455.34 186.04 458.06 185.58 C 457.97 184.63 457.89 183.67 457.82 182.73 L 457.60 182.90 C 456.51 179.84 455.41 176.77 454.23 173.74 C 433.03 118.08 386.51 72.78 330.37 52.96 L 330.19 52.69 Z"/>
</g>
<g id="#e6a623ff">
<path fill="#e6a623" opacity="1.00" d=" M 215.40 45.92 C 219.52 49.41 223.31 53.25 227.19 57.00 C 226.74 83.65 227.13 110.32 227.00 136.98 C 227.05 237.92 226.90 338.86 227.06 439.80 C 252.05 444.11 277.83 443.60 302.59 438.06 C 305.91 441.95 309.25 445.82 312.79 449.51 C 280.94 457.22 247.33 458.25 215.31 450.96 C 215.52 315.95 215.33 180.93 215.40 45.92 Z"/>
<path fill="#e6a623" opacity="1.00" d=" M 330.19 52.69 L 330.37 52.96 C 334.45 59.17 338.04 65.68 342.09 71.90 C 341.89 165.93 342.06 259.96 341.99 353.98 C 342.06 377.69 341.88 401.40 342.11 425.10 C 388.84 403.81 426.03 363.06 443.60 314.86 C 447.42 313.61 451.15 312.08 454.94 310.75 C 456.24 310.23 457.88 309.81 458.32 308.29 C 459.75 309.60 458.07 311.64 457.82 313.17 C 446.78 346.66 427.09 377.24 401.10 401.06 C 380.64 419.95 356.35 434.61 330.16 444.04 C 330.24 313.59 330.17 183.14 330.19 52.69 Z"/>
<path fill="#e6a623" opacity="1.00" d=" M 255.17 85.42 C 264.00 84.53 272.87 85.46 281.65 86.50 C 288.72 87.48 295.81 88.62 302.63 90.77 C 305.89 95.61 309.22 100.40 312.82 104.99 C 297.22 98.98 280.53 96.32 263.90 95.46 C 261.12 92.00 258.06 88.79 255.17 85.42 Z"/>
<path fill="#e6a623" opacity="1.00" d=" M 123.83 159.85 C 133.92 144.63 146.20 130.68 160.91 119.79 C 161.18 136.44 160.83 153.10 161.08 169.75 C 170.20 169.74 179.32 169.94 188.43 169.59 C 191.65 172.92 194.70 176.41 197.71 179.93 C 181.58 180.08 165.45 179.98 149.31 179.98 C 149.50 167.96 149.36 155.95 149.39 143.93 C 139.43 154.15 131.29 166.07 124.65 178.68 C 123.86 180.15 123.09 181.68 122.94 183.38 L 122.65 183.47 C 119.15 184.69 115.58 185.70 111.95 186.44 C 111.47 186.39 110.51 186.28 110.04 186.23 C 113.54 176.91 118.53 168.24 123.83 159.85 Z"/>
<path fill="#e6a623" opacity="1.00" d=" M 370.51 128.71 C 375.67 132.78 380.06 137.71 384.39 142.64 C 396.69 157.04 406.49 173.57 413.18 191.30 C 423.07 187.67 432.72 183.39 442.36 179.14 C 446.84 180.88 451.50 182.20 455.82 184.36 C 456.41 183.88 457.01 183.39 457.60 182.90 L 457.82 182.73 C 457.89 183.67 457.97 184.63 458.06 185.58 C 455.34 186.04 452.92 187.42 450.38 188.41 C 436.02 194.33 421.77 200.53 407.35 206.30 C 401.85 186.41 391.81 167.93 378.95 151.84 C 376.46 144.01 373.20 136.46 370.51 128.71 Z"/>
<path fill="#e6a623" opacity="1.00" d=" M 61.33 188.35 L 61.74 188.41 C 66.14 188.95 70.53 189.49 74.94 189.98 C 103.26 222.40 130.98 255.35 159.20 287.86 C 161.81 290.19 160.87 293.92 161.03 297.01 C 160.93 321.34 161.08 345.66 160.96 369.99 C 160.94 372.13 161.30 374.22 161.70 376.32 C 160.51 376.05 159.32 375.76 158.14 375.47 L 158.34 375.17 C 158.57 374.85 159.02 374.20 159.25 373.88 C 155.57 367.01 152.31 359.92 149.14 352.81 C 149.73 332.18 149.23 311.53 149.40 290.89 C 120.00 256.75 90.85 222.39 61.33 188.35 Z"/>
<path fill="#e6a623" opacity="1.00" d=" M 255.35 266.06 C 271.10 265.44 286.89 265.82 302.65 265.89 C 305.87 268.89 309.11 271.87 312.40 274.80 C 296.23 274.71 280.06 275.00 263.90 274.66 C 261.07 271.78 258.20 268.93 255.35 266.06 Z"/>
<path fill="#e6a623" opacity="1.00" d=" M 61.97 308.51 C 67.05 310.28 72.01 312.37 77.10 314.12 C 78.85 318.03 80.34 322.04 82.02 325.97 C 102.12 372.49 141.16 410.64 188.42 429.07 C 191.32 434.71 194.12 440.43 197.39 445.87 C 194.13 445.31 191.06 444.04 187.96 442.92 C 137.36 424.15 94.83 384.83 72.19 335.83 C 68.18 326.97 64.41 317.93 61.97 308.51 Z"/>
</g>
<g id="#ffd24fff">
<path fill="#ffd24f" opacity="1.00" d=" M 227.19 57.00 C 252.13 52.83 277.85 53.36 302.57 58.74 C 302.76 69.41 302.63 80.09 302.63 90.77 C 295.81 88.62 288.72 87.48 281.65 86.50 C 272.87 85.46 264.00 84.53 255.17 85.42 C 254.99 85.33 254.62 85.15 254.44 85.06 C 254.30 136.02 254.51 186.99 254.33 237.96 C 270.45 238.08 286.56 237.92 302.68 238.04 C 302.63 247.33 302.67 256.61 302.65 265.89 C 286.89 265.82 271.10 265.44 255.35 266.06 C 255.10 266.07 254.59 266.09 254.33 266.09 C 254.46 314.62 254.40 363.15 254.36 411.68 C 270.60 412.18 286.95 410.45 302.67 406.29 C 302.61 416.88 302.74 427.47 302.59 438.06 C 277.83 443.60 252.05 444.11 227.06 439.80 C 226.90 338.86 227.05 237.92 227.00 136.98 C 227.13 110.32 226.74 83.65 227.19 57.00 Z"/>
<path fill="#ffd24f" opacity="1.00" d=" M 96.68 143.66 C 118.26 109.54 150.96 82.76 188.37 67.69 C 188.45 101.66 188.34 135.62 188.43 169.59 C 179.32 169.94 170.20 169.74 161.08 169.75 C 160.83 153.10 161.18 136.44 160.91 119.79 C 146.20 130.68 133.92 144.63 123.83 159.85 C 118.53 168.24 113.54 176.91 110.04 186.23 C 110.51 186.28 111.47 186.39 111.95 186.44 C 110.95 186.70 109.95 186.98 108.96 187.27 C 135.34 218.29 162.03 249.05 188.40 280.08 C 188.41 329.74 188.37 379.41 188.42 429.07 C 141.16 410.64 102.12 372.49 82.02 325.97 C 80.34 322.04 78.85 318.03 77.10 314.12 C 86.87 309.91 96.68 305.77 106.56 301.83 C 116.44 330.50 134.60 356.32 158.34 375.17 L 158.14 375.47 C 159.32 375.76 160.51 376.05 161.70 376.32 C 161.30 374.22 160.94 372.13 160.96 369.99 C 161.08 345.66 160.93 321.34 161.03 297.01 C 160.87 293.92 161.81 290.19 159.20 287.86 C 130.98 255.35 103.26 222.40 74.94 189.98 C 79.99 173.62 87.46 158.06 96.68 143.66 Z"/>
<path fill="#ffd24f" opacity="1.00" d=" M 342.09 71.90 C 387.88 92.64 424.56 132.17 442.36 179.14 C 432.72 183.39 423.07 187.67 413.18 191.30 C 406.49 173.57 396.69 157.04 384.39 142.64 C 380.06 137.71 375.67 132.78 370.51 128.71 C 370.09 128.10 369.69 127.50 369.29 126.89 C 369.50 207.89 369.42 288.90 369.33 369.90 C 389.33 351.42 405.32 328.35 414.23 302.53 C 424.13 306.36 433.90 310.55 443.60 314.86 C 426.03 363.06 388.84 403.81 342.11 425.10 C 341.88 401.40 342.06 377.69 341.99 353.98 C 342.06 259.96 341.89 165.93 342.09 71.90 Z"/>
</g>
</svg>