<?xml version="1.0" encoding="UTF-8"?>
<!-- Generator: Adobe Illustrator 14.0.0, SVG Export Plug-In . SVG Version: 6.00 Build 43363)  -->
<!DOCTYPE svg PUBLIC "-//W3C//DTD SVG 1.1//EN" "http://www.w3.org/Graphics/SVG/1.1/DTD/svg11.dtd">
<svg version="1.1" id="Layer_1" xmlns="http://www.w3.org/2000/svg" xmlns:xlink="http://www.w3.org/1999/xlink" x="0px" y="0px" width="300.068px" height="275.063px" viewBox="0 0 300.068 275.063" enable-background="new 0 0 300.068 275.063" xml:space="preserve">
<path fill-rule="evenodd" clip-rule="evenodd" fill="#F57F20" d="M0,0c100.013,0,200.056,0,300.068,0c0,32.671,0,65.351,0,98.022  c-13.001,0-26.007,0-39.009,0c-3.701-43.822-56.702-44.045-79.018-17.003c-0.389,44.865-10.413,124.283,16.003,144.033  c6.78,5.068,17.864,6.763,30.007,11.002c0,13.001,0,26.007,0,39.009c-51.673,0-103.362,0-155.035,0c0-13.001,0-26.007,0-39.009  c51.618,0.578,46.01-50.383,46.011-102.023c0-18.002,0-36.01,0-54.012c-2.278-5.924-9.688-8.752-15.003-12.003  c-31.41-19.205-57.37,4.665-66.015,31.007c-12.668-0.333-25.34-0.667-38.009-1C0,65.351,0,32.671,0,0z"/>
</svg>