<?xml version="1.0" encoding="UTF-8" standalone="no"?>
<!-- Created with Inkscape (http://www.inkscape.org/) -->

<svg
   xmlns:dc="http://purl.org/dc/elements/1.1/"
   xmlns:cc="http://creativecommons.org/ns#"
   xmlns:rdf="http://www.w3.org/1999/02/22-rdf-syntax-ns#"
   xmlns:svg="http://www.w3.org/2000/svg"
   xmlns="http://www.w3.org/2000/svg"
   version="1.1"
   width="280"
   height="200"
   viewBox="0 0 280 200.00001"
   id="Layer_1"
   xml:space="preserve"><metadata
     id="metadata9"><rdf:RDF><cc:Work
         rdf:about=""><dc:format>image/svg+xml</dc:format><dc:type
           rdf:resource="http://purl.org/dc/dcmitype/StillImage" /><dc:title></dc:title></cc:Work></rdf:RDF></metadata><defs
     id="defs7" /><path
     d="M 33.999998,0 C 106.72007,0 179.46196,0 252.1813,0 c 0,23.755286 0,47.517116 0,71.272404 -9.45311,0 -18.90985,0 -28.36369,0 -2.69102,-31.863249 -41.22837,-32.025394 -57.45447,-12.362988 -0.28285,32.621618 -7.57136,90.366934 11.63588,104.727284 4.92978,3.68497 12.98902,4.91742 21.81827,7.99962 0,9.45311 0,18.90985 0,28.36368 -37.57176,0 -75.15515,0 -112.726908,0 0,-9.4531 0,-18.90985 0,-28.36368 37.531768,0.42027 33.454158,-36.63379 33.454888,-74.181556 0,-13.08936 0,-26.18309 0,-39.272454 -1.65635,-4.307377 -7.04421,-6.363634 -10.90878,-8.727456 -22.838404,-13.964074 -41.714081,3.39195 -47.999914,22.54538 -9.210981,-0.24212 -18.424871,-0.48498 -27.636578,-0.7271 0,-23.756018 0,-47.517848 0,-71.273134 z"
     id="path3"
     style="fill:#f57f20;fill-rule:evenodd" /></svg>