<?xml version="1.0" encoding="UTF-8" standalone="no"?>
<!-- Created with Inkscape (http://www.inkscape.org/) -->

<svg
   xmlns:dc="http://purl.org/dc/elements/1.1/"
   xmlns:cc="http://creativecommons.org/ns#"
   xmlns:rdf="http://www.w3.org/1999/02/22-rdf-syntax-ns#"
   xmlns:svg="http://www.w3.org/2000/svg"
   xmlns="http://www.w3.org/2000/svg"
   version="1.0"
   width="280"
   height="200"
   id="svg2">
  <metadata
     id="metadata50">
    <rdf:RDF>
      <cc:Work
         rdf:about="">
        <dc:format>image/svg+xml</dc:format>
        <dc:type
           rdf:resource="http://purl.org/dc/dcmitype/StillImage" />
        <dc:title></dc:title>
      </cc:Work>
    </rdf:RDF>
  </metadata>
  <defs
     id="defs93" />
  <g
     transform="matrix(1.5399423,0,0,1.5399423,20,0)"
     id="g88"
     style="fill:#000000;fill-rule:nonzero;stroke:none">
    <path
       d="m 87.3054,0.0459 c 0,2.1338 0,7.4161 0.006,8.4336 0.611,0.0069 2.348,-0.0029 3.311,-0.0029 3.289,-0.0127 7.936,-0.0127 9.7636,1.7891 3.559,3.7861 -1.0796,7.2402 -5.3466,13.0097 -6.726,8.9441 -2.556,14.7931 1.88,11.6531 2.57,-1.883 8.1116,-6.007 10.8206,-7.3786 5.638,-2.6807 9.257,4.4686 3.383,12.2256 -2.319,3.185 -6.775,7.198 -9.644,11.446 -3.5346,5.113 -1.8826,11.976 4.941,6.876 7.868,-5.92 10.652,3.252 2.341,11.878 -7.627,8.184 -12.2636,14.084 -10.0266,21.213 0.833,2.596 1.8206,5.448 2.6856,7.939 0.115,0.277 0.299,0.45 0.299,0.45 0,0 -0.194,0.328 -0.194,0.328 0,0 -0.179,-0.095 -0.713,-0.104 0,0 -4.7706,0 -4.7706,0 -0.263,-0.71 -2.765,-7.481 -5.445,-14.747 -0.845,-2.16 -1.919,-3.695 -7.149,-5.262 -1.125,-0.335 -2.066,-0.619 -2.596,-0.775 -0.885,-0.234 -1.346,-0.107 -1.983,0.332 -1.227,0.904 -2.798,2.062 -3.364,2.482 -3.141,2.312 -4.69,3.037 -6.042,2.7 -1.044,-0.29 -1.582,-1.077 -1.555,-2.417 0,-0.124 0,-0.306 0,-0.365 1.502,-2.439 2.68,-5.067 3.509,-7.851 0.833,-2.784 1.292,-5.621 1.373,-8.477 0.042,-0.058 0.133,-0.195 0.195,-0.286 0.712,-1.138 1.59,-1.503 2.618,-1.171 1.32,0.462 2.218,1.916 3.574,5.572 0.238,0.647 0.889,2.403 1.412,3.815 0.322,0.839 0.654,1.217 1.714,1.535 0.91,0.267 2.609,0.782 4.437,1.327 0.188,0.052 0.348,0.232 0.41,0.287 0.061,-0.059 0.325,-0.326 0.325,-0.326 0,0 -0.215,-0.195 -0.312,-0.449 -1.867,-5.057 -3.315,-8.989 -3.435,-9.328 -2.206,-5.848 -3.688,-8.231 -7.803,-11.267 -4.004,-2.849 -10.151,-5.067 -13.638,-7.084 -10.603,-6.03 -8.801,-14.74 -2.775,-14.408 2.317,0.032 7.576,1.996 11.323,3.447 6.499,2.401 6.7,-5.614 -1.714,-11.7808 -10.692,-7.8447 -12.728,-11.9297 -10.23,-15.1211 1.337,-1.7002 5.003,-1.7138 8.639,-1.6875 0.65,-0.0068 2.482,-0.0068 2.928,0 0,-2.1045 0.019,-6.1337 0.019,-8.457 C 70.4764,0.0391 0.0068,0 0.0068,0 0.0068,0 0,8.4766 0,8.4766 c 1.75,-0.0234 3.1426,0.0449 5.2139,0.208 5.9101,0.5205 10.3632,3.3828 15.0556,15.4434 4.1182,10.8175 37.9839,96.606 41.4579,105.747 0.943,-0.021 34.327,0 34.327,0 2.96,-7.559 36.0336,-92.5125 41.4046,-106.0986 4.795,-12.126 9.914,-14.4931 15.612,-14.9551 1.353,-0.1103 3.031,-0.1757 4.443,-0.163 0,0 0,-8.5801 0,-8.5801 0,0 -70.2086,-0.0323 -70.2086,-0.0323 z m -25.23,79.4466 c -4.488,-1.607 -6.199,-2.998 -6.727,-7.65 -0.139,-1.165 -0.172,-2.784 -0.172,-2.784 0,0 0.917,-1.334 1.675,-2.231 2.989,-3.598 5.181,-3.822 9.817,-2.7 0.523,0.117 2.468,0.541 4.023,0.878 -0.049,2.791 -0.481,5.562 -1.295,8.288 -0.812,2.725 -1.984,5.301 -3.48,7.669 -1.487,-0.569 -3.337,-1.281 -3.841,-1.47 z"
       id="path90" />
  </g>
</svg>
