<?xml version="1.0" encoding="UTF-8"?>
<svg xmlns="http://www.w3.org/2000/svg" xmlns:xlink="http://www.w3.org/1999/xlink" width="35pt" height="25pt" viewBox="0 0 35 25" version="1.1">
<g id="surface1">
<path style=" stroke:none;fill-rule:evenodd;fill:rgb(100%,100%,100%);fill-opacity:1;" d="M 5.25 25 L 30.25 25 L 30.25 0 L 5.25 0 Z M 5.25 25 "/>
<path style=" stroke:none;fill-rule:evenodd;fill:rgb(27.45098%,31.372549%,63.529412%);fill-opacity:1;" d="M 13.710938 4.121094 C 12.34375 4.59375 11.675781 5.375 11.675781 6.433594 C 10.894531 6.90625 10.644531 7.40625 10.949219 7.964844 L 9.140625 9.664062 C 8.441406 9.859375 8.191406 10.25 8.332031 10.78125 L 8.609375 11.921875 C 8.722656 12.3125 9 12.535156 9.417969 12.617188 C 9.558594 13.09375 10.253906 13.316406 11.507812 13.34375 C 12.039062 13.261719 12.371094 12.980469 12.484375 12.507812 C 13.457031 11.8125 14.238281 11.363281 14.824219 11.113281 C 17.027344 11.363281 18.390625 10.890625 18.976562 9.691406 L 18.976562 9.722656 C 19.144531 9.386719 19.199219 9.082031 19.171875 8.773438 C 19.367188 9.21875 19.394531 9.664062 19.28125 10.109375 C 19.671875 10.78125 19.8125 11.589844 19.726562 12.535156 C 19.671875 11.894531 19.421875 11.335938 18.949219 10.835938 L 18.921875 10.863281 C 18.53125 11.394531 17.890625 11.671875 16.96875 11.671875 C 16.800781 12.367188 16.355469 13.09375 15.632812 13.84375 L 12.316406 14.234375 C 11.953125 14.261719 11.589844 14.402344 11.230469 14.679688 C 11.035156 14.484375 10.671875 14.429688 10.199219 14.484375 L 7.105469 14.820312 L 7.941406 15.710938 L 7.1875 18.75 L 9.390625 18.5 C 9.917969 18.441406 10.335938 18.277344 10.589844 18.023438 C 10.785156 18.21875 11.144531 18.304688 11.730469 18.21875 L 14.15625 17.941406 C 13.515625 18.582031 13.515625 19.195312 14.097656 19.726562 L 13.429688 19.808594 L 13.347656 20.226562 C 13.070312 21.144531 13.570312 21.535156 14.878906 21.339844 L 26.667969 19.890625 L 27.585938 16.519531 L 28.3125 15.769531 L 25.273438 16.128906 L 25.300781 16.046875 L 25.273438 16.128906 C 26.136719 10.945312 24.132812 7.714844 19.308594 6.40625 C 20.84375 6.601562 22.320312 7.296875 23.714844 8.496094 L 24.605469 8.496094 L 23.992188 7.910156 C 22.847656 6.824219 21.59375 6.015625 20.230469 5.429688 C 19.589844 5.152344 18.949219 4.984375 18.335938 4.929688 L 19.699219 4.816406 C 20.0625 4.621094 20.371094 4.480469 20.5625 4.453125 C 18.863281 3.925781 17.164062 3.871094 15.464844 4.289062 L 15.714844 3.925781 C 14.742188 4.230469 14.042969 4.511719 13.570312 4.789062 C 12.707031 5.289062 12.398438 6.015625 12.59375 6.933594 C 12.679688 7.324219 12.957031 7.324219 13.375 6.90625 C 13.738281 6.628906 14.128906 6.460938 14.601562 6.40625 C 14.238281 5.625 14.515625 5.152344 15.4375 5.011719 L 16.886719 4.871094 C 17.21875 4.816406 17.5 4.707031 17.722656 4.566406 C 17.582031 4.871094 17.25 5.039062 16.71875 5.066406 C 16.191406 5.09375 15.742188 5.207031 15.410156 5.457031 C 14.964844 5.765625 14.878906 6.152344 15.1875 6.628906 C 14.65625 6.710938 14.210938 6.960938 13.90625 7.351562 C 13.488281 7.828125 12.984375 7.964844 12.457031 7.742188 C 12.539062 7.9375 12.734375 8.078125 12.984375 8.132812 C 12.039062 8.746094 11.367188 9.359375 10.949219 9.945312 C 10.867188 10.109375 10.753906 10.195312 10.589844 10.222656 C 10.253906 10.222656 9.976562 10.304688 9.78125 10.445312 C 9.417969 10.722656 9.335938 11.171875 9.558594 11.8125 C 9.640625 12.0625 9.585938 12.089844 9.390625 11.839844 C 9.195312 11.589844 9.140625 11.394531 9.167969 11.226562 C 9.082031 11.308594 9.082031 11.503906 9.140625 11.78125 C 9.167969 11.894531 9.140625 11.949219 9.113281 11.949219 C 9.082031 11.976562 9.054688 11.949219 9.027344 11.894531 C 8.890625 11.726562 8.832031 11.558594 8.832031 11.421875 L 8.722656 10.640625 C 8.582031 10.363281 8.832031 10.140625 9.472656 10 C 10.226562 9.136719 11.007812 8.355469 11.816406 7.660156 C 11.171875 7.351562 11.285156 6.988281 12.203125 6.570312 C 12.121094 5.570312 12.621094 4.761719 13.738281 4.175781 C 13.933594 4.09375 13.933594 4.0625 13.710938 4.121094 Z M 16.578125 5.792969 C 16.382812 5.902344 16.300781 6.097656 16.273438 6.40625 L 15.632812 6.378906 L 15.492188 6.460938 C 15.410156 6.238281 15.464844 6.015625 15.660156 5.792969 C 15.910156 5.570312 16.328125 5.402344 16.914062 5.289062 C 16.496094 5.511719 16.246094 5.734375 16.160156 5.960938 L 16.21875 5.988281 C 16.355469 5.847656 16.46875 5.792969 16.578125 5.792969 Z M 18.921875 15.628906 L 18.699219 16.464844 L 19.894531 16.324219 L 19.785156 16.742188 L 17.636719 17.023438 L 18.308594 14.429688 L 17.945312 14.039062 L 20.59375 13.734375 L 20.453125 14.179688 L 19.253906 14.320312 L 19.03125 15.183594 L 19.839844 15.070312 L 19.726562 15.515625 Z M 17.777344 14.820312 L 17.25 14.875 L 17.25 14.820312 C 17.277344 14.652344 17.191406 14.570312 17.027344 14.597656 C 16.886719 14.625 16.800781 14.652344 16.71875 14.710938 C 16.636719 14.765625 16.609375 14.847656 16.578125 14.933594 L 16.609375 15.097656 L 17.277344 15.738281 C 17.414062 15.878906 17.445312 16.046875 17.414062 16.242188 L 17.359375 16.382812 C 17.304688 16.574219 17.164062 16.742188 16.96875 16.910156 C 16.773438 17.050781 16.578125 17.132812 16.328125 17.160156 L 15.910156 17.21875 C 15.632812 17.246094 15.4375 17.21875 15.296875 17.132812 C 15.160156 17.023438 15.128906 16.855469 15.214844 16.605469 L 15.214844 16.574219 L 15.773438 16.492188 L 15.742188 16.632812 C 15.714844 16.6875 15.714844 16.742188 15.773438 16.769531 L 15.996094 16.800781 C 16.132812 16.769531 16.21875 16.742188 16.273438 16.6875 C 16.355469 16.632812 16.414062 16.546875 16.441406 16.464844 C 16.441406 16.382812 16.414062 16.324219 16.382812 16.296875 L 15.714844 15.628906 C 15.578125 15.488281 15.546875 15.351562 15.578125 15.15625 L 15.632812 14.988281 C 15.660156 14.820312 15.800781 14.652344 15.996094 14.484375 C 16.21875 14.320312 16.441406 14.234375 16.664062 14.207031 L 17.054688 14.152344 C 17.636719 14.066406 17.863281 14.289062 17.777344 14.765625 Z M 15.269531 18.582031 C 15.296875 18.472656 15.351562 18.386719 15.4375 18.359375 C 15.519531 18.304688 15.605469 18.277344 15.742188 18.246094 L 17.136719 18.082031 L 16.441406 20.644531 L 17.414062 20.53125 L 18.113281 17.941406 L 18.835938 17.859375 L 18.949219 17.410156 L 15.382812 17.859375 C 15.128906 17.886719 14.90625 17.996094 14.710938 18.136719 C 14.515625 18.277344 14.378906 18.472656 14.324219 18.664062 L 14.265625 18.804688 C 14.238281 19 14.265625 19.140625 14.40625 19.277344 L 15.101562 19.949219 C 15.128906 19.976562 15.160156 20.03125 15.128906 20.113281 C 15.101562 20.199219 15.074219 20.28125 14.992188 20.335938 C 14.9375 20.394531 14.824219 20.421875 14.683594 20.449219 L 14.460938 20.421875 C 14.433594 20.394531 14.40625 20.335938 14.40625 20.28125 L 14.433594 20.253906 L 14.460938 20.171875 L 13.90625 20.226562 L 13.875 20.253906 C 13.820312 20.503906 13.847656 20.671875 13.988281 20.785156 C 14.097656 20.867188 14.324219 20.894531 14.628906 20.867188 L 15.046875 20.839844 C 15.269531 20.8125 15.492188 20.699219 15.714844 20.53125 C 15.910156 20.394531 16.050781 20.226562 16.105469 20.03125 L 16.132812 19.863281 C 16.191406 19.695312 16.132812 19.53125 15.996094 19.390625 L 15.324219 18.75 Z M 18.976562 18.082031 L 18.335938 20.421875 L 19.308594 20.308594 L 19.671875 19 L 20.339844 18.917969 L 20.007812 20.226562 L 20.984375 20.085938 L 21.59375 17.800781 C 21.652344 17.605469 21.59375 17.441406 21.457031 17.328125 C 21.316406 17.1875 21.121094 17.160156 20.871094 17.1875 L 20.035156 17.300781 C 19.785156 17.328125 19.5625 17.410156 19.367188 17.550781 C 19.144531 17.71875 19.003906 17.886719 18.976562 18.082031 Z M 20.089844 17.800781 L 20.371094 17.664062 C 20.480469 17.664062 20.5625 17.691406 20.59375 17.71875 C 20.648438 17.746094 20.675781 17.800781 20.648438 17.886719 L 20.480469 18.472656 L 19.785156 18.554688 L 19.921875 17.996094 Z M 24.550781 16.742188 L 21.902344 17.050781 L 21.789062 17.496094 L 22.625 17.382812 L 21.929688 19.976562 L 22.90625 19.863281 L 23.601562 17.273438 L 24.4375 17.160156 Z M 21.207031 15.738281 C 22.515625 13.398438 22.375 11.140625 20.816406 8.96875 C 22.652344 10.167969 23.324219 12.367188 22.820312 15.546875 Z M 24.019531 19.726562 L 26.25 19.445312 L 26.359375 19 L 25.132812 19.167969 L 25.355469 18.304688 L 26.609375 18.164062 L 26.722656 17.71875 L 25.46875 17.886719 L 25.691406 17.023438 L 26.945312 16.882812 L 27.058594 16.4375 L 24.855469 16.6875 Z M 12.679688 10.167969 L 11.925781 10.640625 L 11.621094 10.835938 C 11.980469 10.417969 12.566406 10 13.375 9.554688 C 13.375 9.21875 13.488281 8.96875 13.738281 8.800781 C 13.597656 9.050781 13.597656 9.332031 13.765625 9.691406 C 13.933594 10.027344 14.15625 10.25 14.433594 10.390625 C 14.128906 10.335938 13.847656 10.195312 13.570312 9.945312 L 13.457031 9.804688 C 13.292969 9.832031 13.039062 9.972656 12.679688 10.167969 Z M 13.402344 8.1875 C 13.960938 7.992188 14.351562 7.742188 14.574219 7.464844 C 14.710938 7.742188 14.683594 7.992188 14.488281 8.242188 C 14.183594 8.4375 13.820312 8.410156 13.402344 8.1875 Z M 10.5625 10.917969 C 10.589844 11.058594 10.53125 11.226562 10.394531 11.421875 C 10.476562 11.28125 10.476562 11.140625 10.421875 11.058594 C 10.394531 10.976562 10.308594 10.976562 10.199219 11.003906 C 10.058594 11.03125 9.917969 11.113281 9.835938 11.28125 C 9.917969 11.003906 10.085938 10.835938 10.367188 10.808594 C 10.476562 10.835938 10.53125 10.890625 10.5625 10.917969 Z M 9.726562 12.507812 L 10.949219 12.453125 C 11.339844 12.089844 11.703125 11.867188 12.007812 11.753906 L 12.679688 11.726562 C 12.066406 11.976562 11.621094 12.285156 11.3125 12.648438 C 10.671875 12.757812 10.144531 12.703125 9.726562 12.507812 Z M 9.53125 16.324219 C 9.613281 16.296875 9.695312 16.269531 9.78125 16.1875 C 9.863281 16.128906 9.917969 16.074219 9.949219 15.992188 L 10.03125 15.65625 C 10.058594 15.574219 10.03125 15.546875 10.003906 15.515625 C 9.949219 15.488281 9.863281 15.460938 9.78125 15.460938 L 9.417969 15.515625 L 9.195312 16.351562 Z M 9.082031 16.800781 L 8.859375 17.636719 L 9.195312 17.605469 C 9.277344 17.578125 9.363281 17.550781 9.445312 17.496094 C 9.53125 17.441406 9.585938 17.355469 9.613281 17.273438 L 9.695312 16.964844 C 9.726562 16.800781 9.640625 16.714844 9.445312 16.742188 Z M 8.082031 15.238281 L 10.253906 14.988281 C 10.503906 14.960938 10.699219 14.988281 10.839844 15.097656 C 10.980469 15.238281 11.007812 15.40625 10.980469 15.601562 L 10.921875 15.738281 C 10.867188 15.933594 10.753906 16.128906 10.589844 16.269531 C 10.503906 16.351562 10.394531 16.410156 10.253906 16.4375 C 10.367188 16.464844 10.449219 16.492188 10.503906 16.574219 C 10.617188 16.714844 10.644531 16.855469 10.589844 17.050781 L 10.5625 17.21875 C 10.503906 17.410156 10.367188 17.578125 10.171875 17.71875 C 9.976562 17.859375 9.753906 17.96875 9.53125 17.996094 L 7.800781 18.191406 L 8.441406 15.628906 Z M 14.042969 14.542969 L 15.464844 14.347656 L 14.683594 17.382812 L 13.738281 17.496094 L 14.40625 14.902344 Z M 13.90625 15.238281 L 13.488281 16.855469 C 13.457031 17.050781 13.320312 17.21875 13.125 17.382812 C 12.902344 17.523438 12.679688 17.605469 12.457031 17.636719 L 11.648438 17.746094 C 11.398438 17.773438 11.203125 17.71875 11.0625 17.605469 C 10.921875 17.46875 10.894531 17.328125 10.949219 17.132812 L 11.339844 15.515625 C 11.398438 15.320312 11.535156 15.15625 11.730469 14.988281 C 11.925781 14.847656 12.148438 14.765625 12.371094 14.738281 L 13.207031 14.625 C 13.429688 14.597656 13.625 14.625 13.765625 14.765625 C 13.90625 14.875 13.960938 15.042969 13.90625 15.238281 Z M 12.289062 15.433594 L 11.871094 17.050781 L 11.898438 17.21875 L 12.121094 17.246094 C 12.234375 17.246094 12.316406 17.21875 12.398438 17.132812 C 12.484375 17.078125 12.539062 17.023438 12.566406 16.9375 L 12.984375 15.320312 C 12.984375 15.238281 12.957031 15.183594 12.929688 15.15625 C 12.875 15.128906 12.816406 15.097656 12.734375 15.097656 C 12.621094 15.128906 12.539062 15.15625 12.457031 15.210938 C 12.371094 15.292969 12.316406 15.351562 12.289062 15.433594 Z M 27.976562 21.3125 L 27.976562 20.839844 L 27.808594 21.3125 L 27.753906 21.3125 L 27.558594 20.839844 L 27.558594 21.3125 L 27.445312 21.3125 L 27.445312 20.726562 L 27.613281 20.726562 L 27.78125 21.144531 L 27.921875 20.726562 L 28.089844 20.726562 L 28.089844 21.3125 Z M 27.308594 20.8125 L 27.113281 20.8125 L 27.113281 21.3125 L 27 21.3125 L 27 20.8125 L 26.835938 20.8125 L 26.835938 20.726562 L 27.308594 20.726562 L 27.308594 20.8125 "/>
<path style=" stroke:none;fill-rule:evenodd;fill:rgb(95.294118%,38.039216%,25.098039%);fill-opacity:1;" d="M 14.601562 3.589844 C 12.621094 3.589844 11.535156 4.480469 11.3125 6.265625 C 10.644531 6.601562 10.367188 7.15625 10.503906 7.910156 C 9.585938 8.828125 9.082031 9.304688 8.945312 9.359375 C 7.96875 9.664062 7.664062 10.277344 8.050781 11.199219 C 8.164062 11.617188 8.21875 11.894531 8.21875 12.007812 C 8.21875 12.117188 8.304688 12.257812 8.46875 12.453125 C 8.664062 12.703125 8.917969 12.84375 9.167969 12.898438 C 9.222656 13.261719 9.753906 13.511719 10.753906 13.621094 C 11.398438 13.679688 11.871094 13.59375 12.203125 13.371094 C 12.371094 13.261719 12.539062 13.035156 12.734375 12.730469 C 13.488281 12.171875 14.210938 11.753906 14.851562 11.449219 C 15.4375 11.558594 16.023438 11.558594 16.636719 11.449219 C 16.46875 12.171875 16.078125 12.84375 15.464844 13.484375 L 12.34375 13.871094 C 11.757812 13.929688 11.367188 14.066406 11.144531 14.261719 C 10.839844 14.152344 10.367188 14.125 9.78125 14.207031 L 6.351562 14.570312 L 7.550781 15.851562 L 6.714844 19.167969 L 9.140625 18.859375 C 9.835938 18.832031 10.308594 18.664062 10.5625 18.414062 C 10.785156 18.582031 11.230469 18.636719 11.898438 18.554688 L 13.457031 18.386719 C 13.292969 18.695312 13.292969 19.027344 13.429688 19.417969 L 13.097656 19.472656 L 12.957031 20.199219 C 12.652344 21.367188 13.234375 21.871094 14.742188 21.675781 L 26.863281 20.199219 L 27.867188 16.714844 L 29.148438 15.292969 L 25.859375 15.710938 C 26 14.570312 26 13.539062 25.859375 12.675781 C 25.71875 11.839844 25.523438 11.140625 25.328125 10.613281 C 25.078125 9.972656 24.714844 9.386719 24.242188 8.828125 L 25.300781 8.828125 C 24.214844 7.324219 22.488281 6.042969 20.117188 5.011719 C 20.5625 4.761719 21.09375 4.59375 21.679688 4.453125 C 20.257812 3.8125 18.445312 3.617188 16.246094 3.8125 L 16.71875 3.285156 C 15.964844 3.480469 15.074219 3.757812 14.097656 4.121094 Z M 13.710938 4.121094 C 12.34375 4.59375 11.675781 5.375 11.675781 6.433594 C 10.894531 6.90625 10.644531 7.40625 10.949219 7.964844 L 9.140625 9.664062 C 8.441406 9.859375 8.191406 10.25 8.332031 10.78125 L 8.609375 11.921875 C 8.722656 12.3125 9 12.535156 9.417969 12.617188 C 9.558594 13.09375 10.253906 13.316406 11.507812 13.34375 C 12.039062 13.261719 12.371094 12.980469 12.484375 12.507812 C 13.457031 11.8125 14.238281 11.363281 14.824219 11.113281 C 17.027344 11.363281 18.390625 10.890625 18.976562 9.691406 L 18.976562 9.722656 C 19.144531 9.386719 19.199219 9.082031 19.171875 8.773438 C 19.367188 9.21875 19.394531 9.664062 19.28125 10.109375 C 19.671875 10.78125 19.8125 11.589844 19.726562 12.535156 C 19.671875 11.894531 19.421875 11.335938 18.949219 10.835938 L 18.921875 10.863281 C 18.53125 11.394531 17.890625 11.671875 16.96875 11.671875 C 16.800781 12.367188 16.355469 13.09375 15.632812 13.84375 L 12.316406 14.234375 C 11.953125 14.261719 11.589844 14.402344 11.230469 14.679688 C 11.035156 14.484375 10.671875 14.429688 10.199219 14.484375 L 7.105469 14.820312 L 7.941406 15.710938 L 7.1875 18.75 L 9.390625 18.5 C 9.917969 18.441406 10.335938 18.277344 10.589844 18.023438 C 10.785156 18.21875 11.144531 18.304688 11.730469 18.21875 L 14.15625 17.941406 C 13.515625 18.582031 13.515625 19.195312 14.097656 19.726562 L 13.429688 19.808594 L 13.347656 20.226562 C 13.070312 21.144531 13.570312 21.535156 14.878906 21.339844 L 26.667969 19.890625 L 27.585938 16.519531 L 28.3125 15.769531 L 25.273438 16.128906 L 25.300781 16.046875 L 25.273438 16.128906 C 26.136719 10.945312 24.132812 7.714844 19.308594 6.40625 C 20.84375 6.601562 22.320312 7.296875 23.714844 8.496094 L 24.605469 8.496094 L 23.992188 7.910156 C 22.847656 6.824219 21.59375 6.015625 20.230469 5.429688 C 19.589844 5.152344 18.949219 4.984375 18.335938 4.929688 L 19.699219 4.816406 C 20.0625 4.621094 20.371094 4.480469 20.5625 4.453125 C 18.863281 3.925781 17.164062 3.871094 15.464844 4.289062 L 15.714844 3.925781 C 14.742188 4.230469 14.042969 4.511719 13.570312 4.789062 C 12.707031 5.289062 12.398438 6.015625 12.59375 6.933594 C 12.679688 7.324219 12.957031 7.324219 13.375 6.90625 C 13.738281 6.628906 14.128906 6.460938 14.601562 6.40625 C 14.238281 5.625 14.515625 5.152344 15.4375 5.011719 L 16.886719 4.871094 C 17.21875 4.816406 17.5 4.707031 17.722656 4.566406 C 17.582031 4.871094 17.25 5.039062 16.71875 5.066406 C 16.191406 5.09375 15.742188 5.207031 15.410156 5.457031 C 14.964844 5.765625 14.878906 6.152344 15.1875 6.628906 C 14.65625 6.710938 14.210938 6.960938 13.90625 7.351562 C 13.488281 7.828125 12.984375 7.964844 12.457031 7.742188 C 12.539062 7.9375 12.734375 8.078125 12.984375 8.132812 C 12.039062 8.746094 11.367188 9.359375 10.949219 9.945312 C 10.867188 10.109375 10.753906 10.195312 10.589844 10.222656 C 10.253906 10.222656 9.976562 10.304688 9.78125 10.445312 C 9.417969 10.722656 9.335938 11.171875 9.558594 11.8125 C 9.640625 12.0625 9.585938 12.089844 9.390625 11.839844 C 9.195312 11.589844 9.140625 11.394531 9.167969 11.226562 C 9.082031 11.308594 9.082031 11.503906 9.140625 11.78125 C 9.167969 11.894531 9.140625 11.949219 9.113281 11.949219 C 9.082031 11.976562 9.054688 11.949219 9.027344 11.894531 C 8.890625 11.726562 8.832031 11.558594 8.832031 11.421875 L 8.722656 10.640625 C 8.582031 10.363281 8.832031 10.140625 9.472656 10 C 10.226562 9.136719 11.007812 8.355469 11.816406 7.660156 C 11.171875 7.351562 11.285156 6.988281 12.203125 6.570312 C 12.121094 5.570312 12.621094 4.761719 13.738281 4.175781 C 13.933594 4.09375 13.933594 4.0625 13.710938 4.121094 Z M 16.578125 5.792969 C 16.382812 5.902344 16.300781 6.097656 16.273438 6.40625 L 15.632812 6.378906 L 15.492188 6.460938 C 15.410156 6.238281 15.464844 6.015625 15.660156 5.792969 C 15.910156 5.570312 16.328125 5.402344 16.914062 5.289062 C 16.496094 5.511719 16.246094 5.734375 16.160156 5.960938 L 16.21875 5.988281 C 16.355469 5.847656 16.46875 5.792969 16.578125 5.792969 Z M 21.207031 15.738281 C 22.515625 13.398438 22.375 11.140625 20.816406 8.96875 C 22.652344 10.167969 23.324219 12.367188 22.820312 15.546875 Z M 12.679688 10.167969 L 11.925781 10.640625 L 11.621094 10.835938 C 11.980469 10.417969 12.566406 10 13.375 9.554688 C 13.375 9.21875 13.488281 8.96875 13.738281 8.800781 C 13.597656 9.050781 13.597656 9.332031 13.765625 9.691406 C 13.933594 10.027344 14.15625 10.25 14.433594 10.390625 C 14.128906 10.335938 13.847656 10.195312 13.570312 9.945312 L 13.457031 9.804688 C 13.292969 9.832031 13.039062 9.972656 12.679688 10.167969 Z M 10.5625 10.917969 C 10.589844 11.058594 10.53125 11.226562 10.394531 11.421875 C 10.476562 11.28125 10.476562 11.140625 10.421875 11.058594 C 10.394531 10.976562 10.308594 10.976562 10.199219 11.003906 C 10.058594 11.03125 9.917969 11.113281 9.835938 11.28125 C 9.917969 11.003906 10.085938 10.835938 10.367188 10.808594 C 10.476562 10.835938 10.53125 10.890625 10.5625 10.917969 "/>
<path style=" stroke:none;fill-rule:evenodd;fill:rgb(100%,100%,100%);fill-opacity:1;" d="M 18.921875 15.628906 L 18.699219 16.464844 L 19.894531 16.324219 L 19.785156 16.742188 L 17.636719 17.023438 L 18.308594 14.429688 L 17.945312 14.039062 L 20.59375 13.734375 L 20.453125 14.179688 L 19.253906 14.320312 L 19.03125 15.183594 L 19.839844 15.070312 L 19.726562 15.515625 Z M 17.777344 14.820312 L 17.25 14.875 L 17.25 14.820312 C 17.277344 14.652344 17.191406 14.570312 17.027344 14.597656 C 16.886719 14.625 16.800781 14.652344 16.71875 14.710938 C 16.636719 14.765625 16.609375 14.847656 16.578125 14.933594 L 16.609375 15.097656 L 17.277344 15.738281 C 17.414062 15.878906 17.445312 16.046875 17.414062 16.242188 L 17.359375 16.382812 C 17.304688 16.574219 17.164062 16.742188 16.96875 16.910156 C 16.773438 17.050781 16.578125 17.132812 16.328125 17.160156 L 15.910156 17.21875 C 15.632812 17.246094 15.4375 17.21875 15.296875 17.132812 C 15.160156 17.023438 15.128906 16.855469 15.214844 16.605469 L 15.214844 16.574219 L 15.773438 16.492188 L 15.742188 16.632812 C 15.714844 16.6875 15.714844 16.742188 15.773438 16.769531 L 15.996094 16.800781 C 16.132812 16.769531 16.21875 16.742188 16.273438 16.6875 C 16.355469 16.632812 16.414062 16.546875 16.441406 16.464844 C 16.441406 16.382812 16.414062 16.324219 16.382812 16.296875 L 15.714844 15.628906 C 15.578125 15.488281 15.546875 15.351562 15.578125 15.15625 L 15.632812 14.988281 C 15.660156 14.820312 15.800781 14.652344 15.996094 14.484375 C 16.21875 14.320312 16.441406 14.234375 16.664062 14.207031 L 17.054688 14.152344 C 17.636719 14.066406 17.863281 14.289062 17.777344 14.765625 Z M 15.269531 18.582031 C 15.296875 18.472656 15.351562 18.386719 15.4375 18.359375 C 15.519531 18.304688 15.605469 18.277344 15.742188 18.246094 L 17.136719 18.082031 L 16.441406 20.644531 L 17.414062 20.53125 L 18.113281 17.941406 L 18.835938 17.859375 L 18.949219 17.410156 L 15.382812 17.859375 C 15.128906 17.886719 14.90625 17.996094 14.710938 18.136719 C 14.515625 18.277344 14.378906 18.472656 14.324219 18.664062 L 14.265625 18.804688 C 14.238281 19 14.265625 19.140625 14.40625 19.277344 L 15.101562 19.949219 C 15.128906 19.976562 15.160156 20.03125 15.128906 20.113281 C 15.101562 20.199219 15.074219 20.28125 14.992188 20.335938 C 14.9375 20.394531 14.824219 20.421875 14.683594 20.449219 L 14.460938 20.421875 C 14.433594 20.394531 14.40625 20.335938 14.40625 20.28125 L 14.433594 20.253906 L 14.460938 20.171875 L 13.90625 20.226562 L 13.875 20.253906 C 13.820312 20.503906 13.847656 20.671875 13.988281 20.785156 C 14.097656 20.867188 14.324219 20.894531 14.628906 20.867188 L 15.046875 20.839844 C 15.269531 20.8125 15.492188 20.699219 15.714844 20.53125 C 15.910156 20.394531 16.050781 20.226562 16.105469 20.03125 L 16.132812 19.863281 C 16.191406 19.695312 16.132812 19.53125 15.996094 19.390625 L 15.324219 18.75 Z M 18.976562 18.082031 L 18.335938 20.421875 L 19.308594 20.308594 L 19.671875 19 L 20.339844 18.917969 L 20.007812 20.226562 L 20.984375 20.085938 L 21.59375 17.800781 C 21.652344 17.605469 21.59375 17.441406 21.457031 17.328125 C 21.316406 17.1875 21.121094 17.160156 20.871094 17.1875 L 20.035156 17.300781 C 19.785156 17.328125 19.5625 17.410156 19.367188 17.550781 C 19.144531 17.71875 19.003906 17.886719 18.976562 18.082031 Z M 20.089844 17.800781 L 20.371094 17.664062 C 20.480469 17.664062 20.5625 17.691406 20.59375 17.71875 C 20.648438 17.746094 20.675781 17.800781 20.648438 17.886719 L 20.480469 18.472656 L 19.785156 18.554688 L 19.921875 17.996094 Z M 24.550781 16.742188 L 21.902344 17.050781 L 21.789062 17.496094 L 22.625 17.382812 L 21.929688 19.976562 L 22.90625 19.863281 L 23.601562 17.273438 L 24.4375 17.160156 Z M 24.019531 19.726562 L 26.25 19.445312 L 26.359375 19 L 25.132812 19.167969 L 25.355469 18.304688 L 26.609375 18.164062 L 26.722656 17.71875 L 25.46875 17.886719 L 25.691406 17.023438 L 26.945312 16.882812 L 27.058594 16.4375 L 24.855469 16.6875 Z M 13.402344 8.1875 C 13.960938 7.992188 14.351562 7.742188 14.574219 7.464844 C 14.710938 7.742188 14.683594 7.992188 14.488281 8.242188 C 14.183594 8.4375 13.820312 8.410156 13.402344 8.1875 Z M 9.726562 12.507812 L 10.949219 12.453125 C 11.339844 12.089844 11.703125 11.867188 12.007812 11.753906 L 12.679688 11.726562 C 12.066406 11.976562 11.621094 12.285156 11.3125 12.648438 C 10.671875 12.757812 10.144531 12.703125 9.726562 12.507812 Z M 9.53125 16.324219 C 9.613281 16.296875 9.695312 16.269531 9.78125 16.1875 C 9.863281 16.128906 9.917969 16.074219 9.949219 15.992188 L 10.03125 15.65625 C 10.058594 15.574219 10.03125 15.546875 10.003906 15.515625 C 9.949219 15.488281 9.863281 15.460938 9.78125 15.460938 L 9.417969 15.515625 L 9.195312 16.351562 Z M 9.082031 16.800781 L 8.859375 17.636719 L 9.195312 17.605469 C 9.277344 17.578125 9.363281 17.550781 9.445312 17.496094 C 9.53125 17.441406 9.585938 17.355469 9.613281 17.273438 L 9.695312 16.964844 C 9.726562 16.800781 9.640625 16.714844 9.445312 16.742188 Z M 8.082031 15.238281 L 10.253906 14.988281 C 10.503906 14.960938 10.699219 14.988281 10.839844 15.097656 C 10.980469 15.238281 11.007812 15.40625 10.980469 15.601562 L 10.921875 15.738281 C 10.867188 15.933594 10.753906 16.128906 10.589844 16.269531 C 10.503906 16.351562 10.394531 16.410156 10.253906 16.4375 C 10.367188 16.464844 10.449219 16.492188 10.503906 16.574219 C 10.617188 16.714844 10.644531 16.855469 10.589844 17.050781 L 10.5625 17.21875 C 10.503906 17.410156 10.367188 17.578125 10.171875 17.71875 C 9.976562 17.859375 9.753906 17.96875 9.53125 17.996094 L 7.800781 18.191406 L 8.441406 15.628906 Z M 14.042969 14.542969 L 15.464844 14.347656 L 14.683594 17.382812 L 13.738281 17.496094 L 14.40625 14.902344 Z M 13.90625 15.238281 L 13.488281 16.855469 C 13.457031 17.050781 13.320312 17.21875 13.125 17.382812 C 12.902344 17.523438 12.679688 17.605469 12.457031 17.636719 L 11.648438 17.746094 C 11.398438 17.773438 11.203125 17.71875 11.0625 17.605469 C 10.921875 17.46875 10.894531 17.328125 10.949219 17.132812 L 11.339844 15.515625 C 11.398438 15.320312 11.535156 15.15625 11.730469 14.988281 C 11.925781 14.847656 12.148438 14.765625 12.371094 14.738281 L 13.207031 14.625 C 13.429688 14.597656 13.625 14.625 13.765625 14.765625 C 13.90625 14.875 13.960938 15.042969 13.90625 15.238281 Z M 12.289062 15.433594 L 11.871094 17.050781 L 11.898438 17.21875 L 12.121094 17.246094 C 12.234375 17.246094 12.316406 17.21875 12.398438 17.132812 C 12.484375 17.078125 12.539062 17.023438 12.566406 16.9375 L 12.984375 15.320312 C 12.984375 15.238281 12.957031 15.183594 12.929688 15.15625 C 12.875 15.128906 12.816406 15.097656 12.734375 15.097656 C 12.621094 15.128906 12.539062 15.15625 12.457031 15.210938 C 12.371094 15.292969 12.316406 15.351562 12.289062 15.433594 "/>
</g>
</svg>
