<?xml version="1.0" encoding="UTF-8"?>
<svg xmlns="http://www.w3.org/2000/svg" xmlns:xlink="http://www.w3.org/1999/xlink" width="35pt" height="25pt" viewBox="0 0 35 25" version="1.1">
<g id="surface1">
<path style=" stroke:none;fill-rule:evenodd;fill:rgb(100%,100%,100%);fill-opacity:1;" d="M 4.75 25 L 29.75 25 L 29.75 0 L 4.75 0 Z M 4.75 25 "/>
<path style=" stroke:none;fill-rule:evenodd;fill:rgb(8.627451%,52.54902%,31.764706%);fill-opacity:1;" d="M 17.265625 1.101562 C 10.988281 1.101562 5.859375 6.230469 5.859375 12.507812 C 5.859375 18.785156 10.988281 23.898438 17.265625 23.898438 C 23.527344 23.898438 28.640625 18.785156 28.640625 12.507812 C 28.640625 6.230469 23.527344 1.101562 17.265625 1.101562 "/>
<path style=" stroke:none;fill-rule:evenodd;fill:rgb(96.862745%,93.333333%,19.607843%);fill-opacity:1;" d="M 17.265625 23.097656 C 11.429688 23.097656 6.65625 18.328125 6.65625 12.492188 C 6.65625 6.65625 11.429688 1.886719 17.265625 1.886719 C 23.085938 1.886719 27.855469 6.65625 27.855469 12.492188 C 27.855469 18.328125 23.085938 23.097656 17.265625 23.097656 "/>
<path style=" stroke:none;fill-rule:evenodd;fill:rgb(8.627451%,52.54902%,31.764706%);fill-opacity:1;" d="M 23.914062 19.035156 C 23.113281 19.082031 24.710938 16.894531 25.816406 15.980469 C 26.070312 15.757812 26.378906 15.507812 26.4375 15.09375 C 26.484375 14.796875 26.335938 14.605469 26.054688 14.589844 C 25.609375 14.5625 24.460938 15.167969 24.445312 15.152344 C 26.421875 11.546875 23.394531 9.730469 24.652344 8.933594 C 25.078125 8.667969 26.023438 8.945312 26.527344 9.007812 C 21.875 6.230469 21.046875 9.007812 19.644531 10.292969 C 19.421875 10.5 18.433594 10.292969 18.238281 10.054688 C 17.988281 9.746094 17.488281 8.652344 18.046875 7.941406 C 18.875 6.894531 22.273438 3.804688 25.34375 6.539062 C 23.839844 4.085938 20.382812 2.269531 17.308594 2.359375 C 14.222656 2.269531 10.75 4.085938 9.242188 6.539062 C 12.332031 3.804688 15.726562 6.894531 16.554688 7.941406 C 17.117188 8.652344 16.613281 9.746094 16.363281 10.054688 C 16.171875 10.292969 15.183594 10.5 14.960938 10.292969 C 13.558594 9.007812 12.730469 6.230469 8.0625 9.007812 C 8.5625 8.945312 9.507812 8.667969 9.9375 8.933594 C 11.191406 9.730469 8.164062 11.546875 10.144531 15.152344 C 10.128906 15.167969 8.976562 14.5625 8.535156 14.589844 C 8.253906 14.605469 8.105469 14.796875 8.148438 15.09375 C 8.210938 15.507812 8.519531 15.757812 8.769531 15.980469 C 9.878906 16.894531 11.472656 19.082031 10.675781 19.035156 C 9.878906 18.992188 8.105469 16.363281 7.824219 15.726562 C 8.148438 16.820312 8.800781 17.871094 9.449219 18.769531 C 9.804688 19.242188 10.203125 19.640625 10.707031 19.820312 C 11.03125 19.953125 11.355469 20.011719 11.679688 19.847656 C 11.945312 19.730469 12.109375 19.480469 12.152344 19.199219 C 12.210938 18.769531 11.976562 18.269531 11.769531 17.929688 C 11.488281 17.457031 10.839844 16.628906 10.101562 16.066406 C 9.050781 15.285156 8.3125 15.0625 8.59375 14.886719 C 8.769531 14.753906 9.773438 15.300781 9.980469 15.417969 C 11.089844 15.992188 12.640625 17.691406 12.816406 18.933594 C 12.964844 19.921875 11.84375 20.632812 11.074219 20.367188 C 13.570312 22.507812 16.347656 22.582031 17.308594 22.613281 C 18.269531 22.582031 21.03125 22.507812 23.511719 20.367188 C 22.746094 20.632812 21.636719 19.921875 21.785156 18.933594 C 21.960938 17.691406 23.5 15.992188 24.605469 15.417969 C 24.8125 15.300781 25.816406 14.753906 25.996094 14.886719 C 26.277344 15.0625 25.539062 15.285156 24.488281 16.066406 C 23.75 16.628906 23.101562 17.457031 22.820312 17.929688 C 22.613281 18.269531 22.390625 18.769531 22.449219 19.199219 C 22.496094 19.480469 22.640625 19.730469 22.90625 19.847656 C 23.234375 20.011719 23.558594 19.953125 23.882812 19.820312 C 24.386719 19.640625 24.785156 19.242188 25.136719 18.769531 C 25.789062 17.871094 26.4375 16.820312 26.761719 15.726562 C 26.484375 16.363281 24.710938 18.992188 23.914062 19.035156 "/>
<path style=" stroke:none;fill-rule:evenodd;fill:rgb(96.862745%,93.333333%,19.607843%);fill-opacity:1;" d="M 12.921875 11.339844 C 12.804688 11.578125 12.65625 11.992188 12.273438 11.960938 C 11.8125 11.917969 11.886719 11.53125 11.207031 11.488281 C 11.207031 11.488281 10.378906 11.546875 10.394531 11.8125 C 10.425781 12.210938 10.855469 12.34375 11.132812 12.449219 C 11.546875 12.582031 12.035156 12.375 12.375 12.773438 C 12.476562 12.890625 12.566406 13.054688 12.523438 13.203125 C 12.476562 13.347656 12.464844 13.277344 12.003906 13.320312 C 12.257812 13.628906 12.417969 14.117188 12.417969 14.546875 C 12.433594 15.683594 12.730469 16.570312 12.613281 16.96875 C 12.050781 16.304688 12.066406 15.300781 11.976562 14.5 C 11.933594 14.074219 11.769531 13.613281 11.578125 13.304688 C 11.328125 12.949219 10.882812 12.9375 10.585938 12.714844 C 10.308594 12.507812 9.878906 12.167969 9.90625 11.84375 C 9.953125 11.398438 10.351562 11.265625 10.691406 11.164062 C 11.679688 10.851562 12.09375 11.238281 12.375 11.265625 C 12.066406 10.910156 12.140625 10.320312 12.550781 10.246094 C 13.320312 10.128906 13.097656 10.957031 12.921875 11.339844 "/>
<path style=" stroke:none;fill-rule:evenodd;fill:rgb(96.862745%,93.333333%,19.607843%);fill-opacity:1;" d="M 13.558594 15.417969 C 13.21875 14.707031 13.070312 13.570312 13.097656 12.816406 C 13.144531 12.433594 13.230469 11.976562 13.570312 11.769531 C 13.792969 11.664062 14.074219 11.605469 14.324219 11.695312 C 14.722656 11.8125 14.84375 12.167969 15.0625 12.476562 C 15.285156 12.816406 15.65625 13.054688 15.949219 13.171875 C 16.140625 13.601562 15.816406 14.648438 15.507812 15.121094 C 15.34375 15.476562 14.621094 16.347656 14.769531 17.664062 C 14.207031 16.835938 13.75 15.949219 13.558594 15.417969 "/>
<path style=" stroke:none;fill-rule:evenodd;fill:rgb(96.862745%,93.333333%,19.607843%);fill-opacity:1;" d="M 17.292969 19.40625 C 17.132812 19.4375 15.816406 19.167969 16.039062 18.683594 C 16.039062 18.683594 16.082031 18.636719 16.140625 18.636719 C 16.527344 18.683594 16.953125 18.769531 17.292969 18.757812 C 17.632812 18.769531 18.0625 18.683594 18.445312 18.636719 C 18.503906 18.636719 18.550781 18.683594 18.550781 18.683594 C 18.773438 19.167969 17.441406 19.4375 17.292969 19.40625 "/>
<path style=" stroke:none;fill-rule:evenodd;fill:rgb(96.862745%,93.333333%,19.607843%);fill-opacity:1;" d="M 19.097656 18.078125 C 18.710938 18.417969 18.210938 18.636719 17.5 18.429688 C 17.339844 18.3125 17.425781 17.957031 17.53125 17.796875 C 17.855469 17.367188 18.359375 17.53125 18.503906 17.324219 C 18.636719 17.117188 18.550781 16.96875 18.460938 16.851562 C 18.34375 16.703125 18.136719 16.746094 17.972656 16.792969 C 17.6875 16.847656 17.480469 16.976562 17.292969 17.160156 L 17.292969 17.175781 C 17.292969 17.171875 17.289062 17.171875 17.285156 17.167969 C 17.285156 17.171875 17.28125 17.171875 17.28125 17.175781 L 17.28125 17.160156 C 17.089844 16.976562 16.886719 16.847656 16.601562 16.792969 C 16.4375 16.746094 16.230469 16.703125 16.113281 16.851562 C 16.023438 16.96875 15.933594 17.117188 16.066406 17.324219 C 16.214844 17.53125 16.71875 17.367188 17.042969 17.796875 C 17.148438 17.957031 17.234375 18.3125 17.074219 18.429688 C 16.363281 18.636719 15.863281 18.417969 15.476562 18.078125 C 14.605469 17.339844 15.800781 15.757812 16.394531 15.109375 C 16.714844 14.757812 16.917969 14.453125 17.28125 14.445312 L 17.28125 14.441406 C 17.28125 14.441406 17.285156 14.445312 17.285156 14.445312 C 17.289062 14.445312 17.292969 14.441406 17.292969 14.441406 L 17.292969 14.445312 C 17.652344 14.453125 17.859375 14.757812 18.179688 15.109375 C 18.773438 15.757812 19.96875 17.339844 19.097656 18.078125 "/>
<path style=" stroke:none;fill-rule:evenodd;fill:rgb(96.862745%,93.333333%,19.607843%);fill-opacity:1;" d="M 20.988281 15.417969 C 20.796875 15.949219 20.335938 16.835938 19.777344 17.664062 C 19.921875 16.347656 19.199219 15.476562 19.039062 15.121094 C 18.726562 14.648438 18.402344 13.601562 18.59375 13.171875 C 18.890625 13.054688 19.257812 12.816406 19.480469 12.476562 C 19.703125 12.167969 19.820312 11.8125 20.21875 11.695312 C 20.46875 11.605469 20.75 11.664062 20.972656 11.769531 C 21.3125 11.976562 21.402344 12.433594 21.445312 12.816406 C 21.476562 13.570312 21.328125 14.707031 20.988281 15.417969 "/>
<path style=" stroke:none;fill-rule:evenodd;fill:rgb(96.862745%,93.333333%,19.607843%);fill-opacity:1;" d="M 24.046875 12.714844 C 23.75 12.9375 23.308594 12.949219 23.054688 13.304688 C 22.863281 13.613281 22.699219 14.074219 22.65625 14.5 C 22.566406 15.300781 22.582031 16.304688 22.035156 16.96875 C 21.917969 16.570312 22.214844 15.683594 22.226562 14.546875 C 22.226562 14.117188 22.390625 13.628906 22.625 13.320312 C 22.183594 13.277344 22.167969 13.347656 22.125 13.203125 C 22.082031 13.054688 22.167969 12.890625 22.273438 12.773438 C 22.597656 12.375 23.085938 12.582031 23.5 12.449219 C 23.78125 12.34375 24.207031 12.210938 24.238281 11.8125 C 24.25 11.546875 23.425781 11.488281 23.425781 11.488281 C 22.746094 11.53125 22.820312 11.917969 22.375 11.960938 C 21.992188 11.992188 21.84375 11.578125 21.726562 11.339844 C 21.546875 10.957031 21.328125 10.128906 22.09375 10.246094 C 22.496094 10.320312 22.566406 10.910156 22.273438 11.265625 C 22.539062 11.238281 22.953125 10.851562 23.941406 11.164062 C 24.28125 11.265625 24.679688 11.398438 24.726562 11.84375 C 24.753906 12.167969 24.324219 12.507812 24.046875 12.714844 "/>
<path style=" stroke:none;fill-rule:evenodd;fill:rgb(8.627451%,52.54902%,31.764706%);fill-opacity:1;" d="M 14.855469 13.808594 C 15.0625 12.996094 14.132812 11.945312 13.777344 12.269531 C 13.496094 12.523438 13.484375 12.921875 13.792969 13.113281 C 13.96875 13.214844 14.355469 13.171875 14.503906 13.4375 C 14.722656 13.777344 14.769531 13.835938 14.855469 13.808594 "/>
<path style=" stroke:none;fill-rule:evenodd;fill:rgb(8.627451%,52.54902%,31.764706%);fill-opacity:1;" d="M 19.6875 13.808594 C 19.777344 13.835938 19.820312 13.777344 20.042969 13.4375 C 20.191406 13.171875 20.574219 13.214844 20.75 13.113281 C 21.0625 12.921875 21.046875 12.523438 20.765625 12.269531 C 20.410156 11.945312 19.480469 12.996094 19.6875 13.808594 "/>
</g>
</svg>
