<?xml version="1.0" encoding="UTF-8"?>
<svg xmlns="http://www.w3.org/2000/svg" xmlns:xlink="http://www.w3.org/1999/xlink" width="35pt" height="25pt" viewBox="0 0 35 25" version="1.1">
<g id="surface1">
<path style=" stroke:none;fill-rule:evenodd;fill:rgb(100%,100%,100%);fill-opacity:1;" d="M 5 25 L 30 25 L 30 0 L 5 0 Z M 5 25 "/>
<path style=" stroke:none;fill-rule:evenodd;fill:rgb(13.72549%,12.156863%,12.54902%);fill-opacity:1;" d="M 12.082031 7.730469 C 12.0625 7.714844 13.535156 6.191406 13.523438 6.171875 C 13.675781 5.992188 13.835938 5.769531 14.011719 5.617188 C 14.242188 5.414062 14.507812 5.292969 14.71875 5.054688 C 14.964844 5.011719 15.164062 4.78125 15.398438 4.683594 C 15.597656 4.601562 15.886719 4.539062 16.050781 4.402344 C 16.328125 4.367188 16.570312 4.207031 16.84375 4.171875 C 16.9375 4.039062 17.160156 4.136719 17.253906 4.003906 C 17.359375 3.992188 17.585938 4.050781 17.640625 3.9375 C 17.847656 3.867188 18.226562 3.992188 18.371094 3.820312 L 19.476562 3.820312 C 19.703125 3.984375 20.148438 3.785156 20.351562 3.984375 C 20.558594 3.941406 20.679688 4.0625 20.875 4.054688 C 21.003906 4.171875 21.242188 4.109375 21.359375 4.191406 C 21.558594 4.320312 21.847656 4.347656 22.011719 4.5 C 22.339844 4.539062 22.488281 4.789062 22.757812 4.917969 C 23.214844 5.132812 24.035156 6.167969 24.320312 6.617188 C 24.402344 6.742188 24.445312 6.90625 24.625 6.917969 C 24.921875 6.9375 25.261719 7.035156 25.554688 6.988281 C 25.664062 7.054688 25.875 6.957031 25.945312 7.082031 C 26.210938 7.003906 26.382812 7.226562 26.632812 7.269531 C 26.664062 7.273438 27.351562 7.535156 27.398438 7.558594 C 27.675781 7.695312 28.125 8.074219 28.34375 8.296875 C 28.5 8.460938 28.675781 8.691406 28.867188 8.8125 C 29.015625 9.101562 29.203125 9.347656 29.292969 9.667969 C 29.539062 10.515625 29.722656 11.003906 29.585938 11.910156 C 29.527344 12.28125 29.558594 12.578125 29.332031 12.910156 C 29.320312 13.242188 28.65625 13.875 28.449219 14.152344 C 28.394531 14.222656 28.34375 14.296875 28.285156 14.367188 C 28.25 14.40625 28.1875 14.417969 28.148438 14.453125 C 28.054688 14.535156 27.9375 14.667969 27.855469 14.765625 C 27.761719 14.878906 27.65625 14.96875 27.566406 15.085938 C 27.359375 15.355469 27.074219 15.539062 26.886719 15.8125 C 26.648438 16.160156 26.226562 16.449219 25.933594 16.765625 C 25.71875 16.996094 25.351562 16.792969 25.097656 17.046875 C 24.945312 17.199219 24.675781 17.238281 24.496094 17.394531 C 24.417969 17.464844 24.292969 17.472656 24.195312 17.464844 C 23.972656 17.21875 23.660156 16.636719 23.371094 16.53125 C 23.085938 16.59375 22.957031 16.984375 22.738281 17.171875 C 22.472656 17.402344 22.359375 17.632812 22.03125 17.84375 C 21.753906 18.019531 21.851562 18.148438 21.457031 18.269531 C 21.351562 18.300781 21.027344 18.539062 20.882812 18.609375 C 20.652344 18.726562 20.40625 18.902344 20.261719 19.125 C 20.148438 19.164062 20.117188 19.3125 20 19.355469 C 19.835938 19.566406 19.625 19.726562 19.351562 19.746094 C 19.082031 20.042969 18.390625 19.871094 18.019531 19.910156 C 17.910156 20.042969 17.667969 19.941406 17.5625 20.074219 C 16.90625 20.253906 17.203125 19.777344 17.089844 19.492188 C 17.140625 19.109375 17.242188 18.101562 17.390625 17.785156 C 17.460938 17.632812 17.542969 17.367188 17.621094 17.242188 C 17.714844 17.09375 18.09375 16.964844 18.242188 16.804688 C 18.285156 16.8125 18.316406 16.785156 18.320312 16.746094 C 18.3125 16.699219 18.367188 16.6875 18.398438 16.6875 C 18.433594 16.738281 18.476562 16.695312 18.523438 16.683594 C 18.523438 16.683594 18.777344 16.226562 18.65625 15.960938 C 18.53125 15.691406 16.824219 15.292969 16.292969 15.492188 L 15.308594 16.023438 C 15.253906 16.132812 14.957031 16.242188 14.84375 16.328125 C 14.71875 16.421875 14.449219 16.417969 14.292969 16.53125 C 14.148438 16.542969 14.058594 16.671875 13.902344 16.636719 C 13.785156 16.613281 13.769531 16.65625 13.660156 16.675781 C 13.535156 16.785156 13.175781 16.742188 13.011719 16.746094 C 12.535156 16.753906 12.035156 16.792969 11.5625 16.765625 C 11.433594 16.554688 11.023438 16.789062 10.902344 16.582031 C 10.773438 16.589844 10.714844 16.464844 10.582031 16.484375 C 10.40625 16.386719 10.171875 16.363281 10.027344 16.210938 C 9.847656 16.210938 9.683594 16.113281 9.503906 16.113281 C 9.394531 15.996094 9.203125 16.082031 9.097656 16.164062 C 8.75 16.421875 8.691406 16.820312 8.640625 17.210938 C 8.617188 17.390625 8.613281 17.566406 8.59375 17.746094 C 8.539062 18.171875 8.578125 18.578125 8.417969 18.976562 C 8.363281 19.109375 8.371094 19.230469 8.261719 19.335938 C 8.195312 19.625 7.816406 20.148438 7.554688 20.289062 C 7.273438 20.4375 7.285156 20.542969 7.078125 20.707031 C 6.914062 20.835938 6.773438 21.234375 6.503906 21.171875 C 6.3125 20.992188 5.976562 20.328125 5.855469 20.242188 C 5.777344 19.957031 5.558594 19.75 5.503906 19.453125 C 5.476562 19.292969 5.359375 19.015625 5.367188 18.871094 C 5.378906 18.730469 5.472656 18.574219 5.503906 18.429688 C 5.523438 18.339844 5.515625 18.261719 5.523438 18.171875 C 5.550781 17.929688 5.78125 17.796875 5.902344 17.617188 C 6.054688 17.390625 5.785156 16.835938 6.085938 16.472656 C 6.394531 16.101562 6.523438 15.757812 6.574219 15.289062 C 6.582031 15.175781 6.636719 15.0625 6.648438 14.949219 C 6.738281 14.214844 7.070312 14.15625 7.320312 13.675781 C 7.527344 13.667969 7.660156 13.460938 7.875 13.425781 C 8.078125 13.386719 8.148438 13.128906 8.136719 12.949219 C 8.101562 12.503906 8.101562 12.113281 8.117188 11.667969 C 8.128906 11.230469 8.308594 10.824219 8.300781 10.394531 C 8.132812 10.210938 7.316406 9.96875 7.347656 9.628906 C 7.566406 9.621094 8.746094 9.597656 8.84375 9.578125 C 8.957031 9.558594 9.445312 9.039062 9.542969 8.929688 C 9.671875 8.78125 9.921875 8.707031 10 8.550781 C 10.265625 8.507812 10.40625 8.386719 10.621094 8.25 C 10.707031 8.195312 10.777344 8.230469 10.863281 8.25 C 11.097656 8.300781 11.765625 7.835938 12.082031 7.730469 "/>
<path style=" stroke:none;fill-rule:evenodd;fill:rgb(90.588235%,67.843137%,10.588235%);fill-opacity:1;" d="M 16.023438 16.691406 L 14.539062 15.132812 L 14.535156 10.53125 L 14.105469 10.53125 L 14.105469 8.871094 L 16.730469 8.871094 L 16.730469 10.53125 L 16.292969 10.53125 L 16.285156 14.84375 L 19.699219 14.84375 L 20.136719 14.339844 L 20.15625 10.53125 L 19.730469 10.53125 L 19.730469 8.871094 L 22.351562 8.871094 L 22.351562 10.53125 L 21.914062 10.53125 L 21.898438 15.136719 L 20.457031 16.6875 L 16.023438 16.691406 "/>
<path style=" stroke:none;fill-rule:evenodd;fill:rgb(90.588235%,67.843137%,10.588235%);fill-opacity:1;" d="M 13.359375 11.605469 L 13.878906 12.125 L 17.128906 12.125 L 17.59375 11.621094 L 17.582031 10.972656 L 19.339844 10.972656 L 19.324219 12.417969 L 17.882812 13.96875 L 12.957031 13.972656 L 11.472656 12.414062 L 11.472656 7.660156 L 12.957031 6.101562 L 17.882812 6.109375 L 19.324219 7.65625 L 19.339844 9.101562 L 17.582031 9.101562 L 17.59375 8.457031 L 17.128906 7.949219 L 13.8125 7.949219 L 13.359375 8.472656 L 13.359375 11.605469 "/>
<path style=" stroke:none;fill-rule:evenodd;fill:rgb(90.588235%,67.843137%,10.588235%);fill-opacity:1;" d="M 27.003906 9.714844 C 27.003906 9.910156 26.800781 10.023438 26.699219 10.171875 C 26.53125 10.425781 26.382812 10.675781 26.285156 10.96875 C 26.023438 11.167969 26.226562 12.636719 25.390625 12.753906 C 25.320312 12.765625 25.035156 12.671875 24.964844 12.636719 C 24.734375 12.527344 24.730469 12.183594 24.679688 11.96875 C 24.820312 11.636719 24.941406 11.339844 25.148438 11.046875 C 25.332031 10.785156 25.566406 10.625 25.777344 10.394531 C 25.960938 10.199219 26.53125 9.953125 26.613281 9.78125 C 26.742188 9.765625 26.875 9.746094 27.003906 9.714844 "/>
<path style=" stroke:none;fill-rule:evenodd;fill:rgb(13.72549%,12.156863%,12.54902%);fill-opacity:1;" d="M 22.351562 20.003906 L 22.351562 19.90625 L 22.410156 19.90625 C 22.445312 19.90625 22.492188 19.910156 22.492188 19.949219 C 22.492188 19.996094 22.46875 20.003906 22.429688 20.003906 Z M 22.351562 20.074219 L 22.390625 20.074219 L 22.488281 20.246094 L 22.589844 20.246094 L 22.484375 20.066406 C 22.539062 20.0625 22.585938 20.035156 22.585938 19.960938 C 22.585938 19.867188 22.523438 19.835938 22.414062 19.835938 L 22.261719 19.835938 L 22.261719 20.246094 L 22.351562 20.246094 Z M 22.796875 20.042969 C 22.796875 19.800781 22.617188 19.660156 22.414062 19.660156 C 22.210938 19.660156 22.03125 19.800781 22.03125 20.042969 C 22.03125 20.28125 22.210938 20.421875 22.414062 20.421875 C 22.617188 20.421875 22.796875 20.28125 22.796875 20.042969 Z M 22.6875 20.042969 C 22.6875 20.21875 22.5625 20.335938 22.414062 20.335938 C 22.261719 20.335938 22.140625 20.21875 22.140625 20.042969 C 22.140625 19.867188 22.261719 19.75 22.414062 19.75 C 22.5625 19.75 22.6875 19.867188 22.6875 20.042969 "/>
</g>
</svg>
