<?xml version="1.0" encoding="UTF-8"?>
<svg xmlns="http://www.w3.org/2000/svg" xmlns:xlink="http://www.w3.org/1999/xlink" width="35pt" height="25pt" viewBox="0 0 35 25" version="1.1">
<g id="surface1">
<path style=" stroke:none;fill-rule:nonzero;fill:rgb(72.941176%,73.72549%,74.901961%);fill-opacity:1;" d="M 29.796875 19.316406 L 31.808594 16.992188 L 29.941406 15.0625 L 31.925781 12.859375 L 30.019531 10.847656 L 31.949219 8.746094 L 29.941406 6.664062 L 33.566406 2.675781 L 19.09375 0.0195312 L 19.09375 7.609375 C 18.792969 7.5625 17.75 7.546875 17.359375 7.539062 C 16.898438 7.527344 16.035156 7.597656 15.597656 7.640625 L 15.597656 0 L 1.117188 2.679688 L 4.746094 6.667969 L 2.734375 8.75 L 4.820312 10.851562 L 2.8125 12.863281 L 4.878906 15.0625 L 2.789062 16.996094 L 4.886719 19.316406 L 0.75 25 L 15.582031 22.648438 L 15.601562 15.824219 C 15.964844 15.722656 17.007812 15.664062 17.359375 15.664062 C 17.75 15.664062 18.703125 15.707031 19.089844 15.808594 L 19.109375 22.667969 L 33.933594 24.996094 L 29.796875 19.316406 "/>
<path style=" stroke:none;fill-rule:nonzero;fill:rgb(13.72549%,12.156863%,12.54902%);fill-opacity:1;" d="M 28.742188 19.25 L 30.691406 17.015625 L 28.671875 15 L 30.691406 12.859375 L 28.769531 10.855469 L 30.726562 8.703125 L 28.730469 6.652344 L 31.90625 3.101562 L 19.925781 0.851562 L 19.925781 8.476562 C 19.324219 8.425781 18.332031 8.324219 17.359375 8.316406 C 16.777344 8.3125 15.484375 8.414062 14.757812 8.480469 C 14.757812 8.480469 14.757812 7.839844 14.757812 0.851562 L 2.773438 3.105469 L 5.953125 6.65625 L 3.953125 8.707031 L 5.914062 10.859375 L 3.992188 12.863281 L 6.007812 15.003906 L 3.992188 17.019531 L 5.941406 19.25 L 2.5625 23.976562 L 14.808594 21.96875 L 14.820312 15.175781 C 15.839844 14.972656 16.917969 14.957031 17.359375 14.949219 C 17.90625 14.9375 19.214844 15.007812 19.859375 15.171875 L 19.875 21.96875 L 32.121094 23.976562 L 28.742188 19.25 "/>
<path style=" stroke:none;fill-rule:nonzero;fill:rgb(100%,100%,100%);fill-opacity:1;" d="M 27.617188 19.242188 L 29.582031 17.015625 L 27.617188 15.050781 C 27.617188 14.976562 29.582031 12.859375 29.582031 12.859375 L 27.617188 10.890625 C 27.617188 10.820312 29.582031 8.703125 29.582031 8.703125 L 27.617188 6.664062 L 30.367188 3.621094 L 21.414062 2 L 21.414062 9.539062 C 20.332031 9.363281 18.296875 9.171875 17.359375 9.183594 C 16.296875 9.191406 14.71875 9.277344 13.269531 9.542969 L 13.269531 2.003906 L 4.316406 3.625 L 7.066406 6.667969 L 5.097656 8.707031 C 5.097656 8.707031 7.066406 10.820312 7.066406 10.894531 L 5.097656 12.863281 C 5.097656 12.863281 7.066406 14.976562 7.066406 15.050781 L 5.097656 17.019531 L 7.066406 19.242188 L 4.257812 22.898438 L 13.265625 21.417969 L 13.273438 14.453125 C 14.265625 14.195312 16.46875 14.023438 17.359375 14.046875 C 18.121094 14.0625 20.339844 14.21875 21.410156 14.449219 C 21.414062 15.101562 21.429688 21.414062 21.429688 21.414062 L 30.425781 22.894531 L 27.617188 19.242188 "/>
<path style=" stroke:none;fill-rule:nonzero;fill:rgb(0%,34.509804%,21.568627%);fill-opacity:1;" d="M 27.175781 6.386719 L 29.414062 3.933594 L 21.855469 2.53125 L 21.855469 10.011719 C 20.652344 9.785156 18.21875 9.609375 17.359375 9.605469 C 16.246094 9.597656 14.324219 9.695312 12.828125 10.015625 L 12.828125 2.53125 L 5.265625 3.9375 L 7.511719 6.390625 L 7.507812 19.496094 L 5.355469 22.265625 L 12.8125 21.039062 L 12.828125 14.09375 C 14 13.753906 16.34375 13.597656 17.359375 13.605469 C 18.4375 13.609375 20.664062 13.808594 21.851562 14.089844 L 21.871094 21.039062 L 29.328125 22.265625 L 27.175781 19.492188 L 27.175781 6.386719 "/>
<path style=" stroke:none;fill-rule:nonzero;fill:rgb(100%,100%,100%);fill-opacity:1;" d="M 26.148438 11.007812 L 24.316406 9.121094 L 26.148438 7.238281 L 26.148438 11.007812 "/>
<path style=" stroke:none;fill-rule:nonzero;fill:rgb(100%,100%,100%);fill-opacity:1;" d="M 26.148438 14.742188 L 24.316406 12.855469 L 26.148438 10.972656 L 26.148438 14.742188 "/>
<path style=" stroke:none;fill-rule:nonzero;fill:rgb(100%,100%,100%);fill-opacity:1;" d="M 26.148438 18.507812 L 24.316406 16.621094 L 26.148438 14.734375 L 26.148438 18.507812 "/>
<path style=" stroke:none;fill-rule:nonzero;fill:rgb(100%,100%,100%);fill-opacity:1;" d="M 8.53125 11.007812 L 10.367188 9.125 L 8.53125 7.238281 L 8.53125 11.007812 "/>
<path style=" stroke:none;fill-rule:nonzero;fill:rgb(100%,100%,100%);fill-opacity:1;" d="M 8.53125 14.742188 L 10.367188 12.859375 L 8.53125 10.972656 L 8.53125 14.742188 "/>
<path style=" stroke:none;fill-rule:nonzero;fill:rgb(100%,100%,100%);fill-opacity:1;" d="M 8.53125 18.507812 L 10.367188 16.625 L 8.53125 14.738281 L 8.53125 18.507812 "/>
</g>
</svg>
