<?xml version="1.0" encoding="UTF-8"?>
<svg xmlns="http://www.w3.org/2000/svg" xmlns:xlink="http://www.w3.org/1999/xlink" width="35pt" height="25pt" viewBox="0 0 35 25" version="1.1">
<g id="surface1">
<path style=" stroke:none;fill-rule:nonzero;fill:rgb(65.098039%,67.843137%,70.588235%);fill-opacity:1;" d="M 8.414062 8.394531 L 8.414062 21.289062 L 9.574219 21.042969 L 9.574219 8.183594 L 9.539062 8.179688 Z M 8.414062 8.394531 "/>
<path style=" stroke:none;fill-rule:nonzero;fill:rgb(65.098039%,67.843137%,70.588235%);fill-opacity:1;" d="M 17.835938 25 L 23.621094 22.714844 L 24.777344 19.382812 L 26.097656 21.75 L 26.09375 21.769531 L 29.671875 20.417969 L 29.273438 19.605469 L 29.273438 5.472656 L 29.671875 4.65625 L 27.261719 3.707031 L 27.261719 16.605469 L 26.097656 16.832031 L 26.097656 3.253906 L 23.378906 2.179688 L 23.378906 17.351562 L 21.773438 17.660156 L 21.773438 1.550781 L 17.835938 0 Z M 17.835938 25 "/>
<path style=" stroke:none;fill-rule:nonzero;fill:rgb(65.098039%,67.843137%,70.588235%);fill-opacity:1;" d="M 13.902344 7.339844 L 12.292969 7.648438 L 12.292969 22.820312 L 13.902344 22.371094 Z M 13.902344 7.339844 "/>
<path style=" stroke:none;fill-rule:nonzero;fill:rgb(65.098039%,67.843137%,70.588235%);fill-opacity:1;" d="M 9.582031 3.230469 L 9.578125 3.25 L 10.898438 5.617188 L 11.726562 3.253906 Z M 9.582031 3.230469 "/>
<path style=" stroke:none;fill-rule:nonzero;fill:rgb(28.235294%,15.294118%,51.372549%);fill-opacity:1;" d="M 26.09375 21.769531 L 26.097656 21.75 L 24.777344 19.382812 L 23.949219 21.746094 Z M 26.09375 21.769531 "/>
<path style=" stroke:none;fill-rule:nonzero;fill:rgb(28.235294%,15.294118%,51.372549%);fill-opacity:1;" d="M 27.261719 3.707031 L 26.097656 3.960938 L 26.097656 16.832031 L 27.261719 16.605469 Z M 27.261719 3.707031 "/>
<path style=" stroke:none;fill-rule:nonzero;fill:rgb(28.235294%,15.294118%,51.372549%);fill-opacity:1;" d="M 23.378906 2.179688 L 21.773438 2.628906 L 21.773438 17.660156 L 23.378906 17.351562 Z M 23.378906 2.179688 "/>
<path style=" stroke:none;fill-rule:nonzero;fill:rgb(28.235294%,15.294118%,51.372549%);fill-opacity:1;" d="M 9.574219 21.746094 L 12.292969 22.820312 L 12.292969 7.648438 L 13.902344 7.339844 L 13.902344 23.453125 L 17.835938 25 L 17.835938 0 L 12.054688 2.285156 L 12.0625 2.296875 L 10.898438 5.617188 L 9.578125 3.25 L 9.582031 3.230469 L 6 4.582031 L 6.402344 5.398438 L 6.402344 19.527344 L 6 20.34375 L 8.414062 21.289062 L 8.414062 8.394531 L 9.574219 8.171875 Z M 9.574219 21.746094 "/>
</g>
</svg>
