<?xml version="1.0" encoding="UTF-8"?>
<svg xmlns="http://www.w3.org/2000/svg" xmlns:xlink="http://www.w3.org/1999/xlink" width="35pt" height="25pt" viewBox="0 0 35 25" version="1.1">
<g id="surface1">
<path style=" stroke:none;fill-rule:nonzero;fill:rgb(9.411765%,24.313725%,37.254902%);fill-opacity:1;" d="M 13.792969 21.902344 L 13.597656 21.902344 L 13.597656 21.832031 L 14.074219 21.832031 L 14.074219 21.902344 L 13.875 21.902344 L 13.875 22.472656 L 13.792969 22.472656 L 13.792969 21.902344 "/>
<path style=" stroke:none;fill-rule:nonzero;fill:rgb(9.411765%,24.313725%,37.254902%);fill-opacity:1;" d="M 14.679688 22.191406 C 14.675781 22.101562 14.671875 21.996094 14.671875 21.914062 L 14.667969 21.914062 C 14.648438 21.988281 14.621094 22.070312 14.589844 22.160156 L 14.476562 22.46875 L 14.410156 22.46875 L 14.308594 22.164062 C 14.277344 22.074219 14.253906 21.992188 14.234375 21.914062 C 14.230469 21.996094 14.226562 22.101562 14.222656 22.199219 L 14.203125 22.472656 L 14.125 22.472656 L 14.167969 21.832031 L 14.273438 21.832031 L 14.382812 22.144531 C 14.410156 22.222656 14.429688 22.292969 14.449219 22.359375 C 14.46875 22.292969 14.492188 22.222656 14.519531 22.144531 L 14.632812 21.832031 L 14.738281 21.832031 L 14.777344 22.472656 L 14.695312 22.472656 L 14.679688 22.191406 "/>
<path style=" stroke:none;fill-rule:nonzero;fill:rgb(9.411765%,24.313725%,37.254902%);fill-opacity:1;" d="M 28.257812 17.03125 C 28.289062 17.15625 28.324219 17.242188 28.402344 17.398438 C 28.402344 17.398438 28.464844 17.535156 28.503906 17.542969 C 28.539062 17.550781 28.667969 17.480469 28.808594 17.316406 C 28.863281 17.257812 28.90625 17.175781 28.941406 17.097656 C 29.007812 16.957031 28.21875 16.882812 28.257812 17.03125 "/>
<path style=" stroke:none;fill-rule:nonzero;fill:rgb(9.411765%,24.313725%,37.254902%);fill-opacity:1;" d="M 27.128906 18.652344 C 27.128906 18.652344 27.667969 18.421875 27.894531 18.074219 C 27.894531 18.074219 27.941406 18.011719 27.972656 18.03125 C 28 18.046875 28.0625 18.203125 28.089844 18.464844 C 28.121094 18.726562 28.109375 18.949219 28.109375 18.949219 C 28.109375 18.949219 28.117188 18.988281 28.050781 18.957031 C 27.988281 18.929688 27.128906 18.652344 27.128906 18.652344 "/>
<path style=" stroke:none;fill-rule:nonzero;fill:rgb(9.411765%,24.313725%,37.254902%);fill-opacity:1;" d="M 29.710938 17.257812 C 29.695312 17.390625 29.65625 17.582031 29.578125 17.78125 C 29.578125 17.78125 29.535156 17.875 29.597656 17.859375 C 29.660156 17.84375 29.933594 17.707031 30.191406 17.414062 C 30.191406 17.414062 30.222656 17.390625 30.175781 17.363281 C 30.132812 17.339844 29.726562 17.132812 29.710938 17.257812 "/>
<path style=" stroke:none;fill-rule:nonzero;fill:rgb(9.411765%,24.313725%,37.254902%);fill-opacity:1;" d="M 29.214844 17.023438 C 29.195312 17.15625 29.160156 17.34375 29.082031 17.546875 C 29.082031 17.546875 29.039062 17.640625 29.101562 17.625 C 29.164062 17.605469 29.433594 17.472656 29.695312 17.175781 C 29.695312 17.175781 29.722656 17.15625 29.679688 17.128906 C 29.636719 17.105469 29.230469 16.898438 29.214844 17.023438 "/>
<path style=" stroke:none;fill-rule:nonzero;fill:rgb(9.411765%,24.313725%,37.254902%);fill-opacity:1;" d="M 30.03125 18.625 C 30.058594 18.625 30.4375 18.273438 30.730469 17.824219 C 30.839844 17.660156 30.375 17.273438 30.289062 17.644531 C 30.21875 17.964844 30.117188 18.335938 29.992188 18.597656 C 29.992188 18.597656 29.980469 18.625 29.996094 18.632812 C 30.015625 18.640625 30.03125 18.625 30.03125 18.625 "/>
<path style=" stroke:none;fill-rule:nonzero;fill:rgb(9.411765%,24.313725%,37.254902%);fill-opacity:1;" d="M 31.0625 17.777344 C 31.0625 17.777344 31.027344 18.089844 30.925781 18.347656 C 30.925781 18.347656 30.917969 18.375 30.929688 18.378906 C 30.953125 18.382812 31.160156 18.234375 31.460938 17.839844 L 31.0625 17.777344 "/>
<path style=" stroke:none;fill-rule:nonzero;fill:rgb(9.411765%,24.313725%,37.254902%);fill-opacity:1;" d="M 28.144531 18.703125 C 28.144531 18.703125 28.515625 18.542969 28.777344 18.269531 C 28.777344 18.269531 28.816406 18.222656 28.835938 18.226562 C 28.855469 18.226562 28.859375 18.253906 28.863281 18.289062 C 28.882812 18.542969 28.878906 18.609375 28.820312 18.875 L 28.144531 18.703125 "/>
<path style=" stroke:none;fill-rule:nonzero;fill:rgb(9.411765%,24.313725%,37.254902%);fill-opacity:1;" d="M 28.816406 19.257812 C 28.816406 19.257812 29.148438 19.039062 29.378906 18.753906 C 29.378906 18.753906 29.417969 18.714844 29.429688 18.726562 C 29.4375 18.738281 29.433594 18.742188 29.429688 18.777344 C 29.414062 19.089844 29.414062 19.332031 29.296875 19.578125 L 28.816406 19.257812 "/>
<path style=" stroke:none;fill-rule:nonzero;fill:rgb(9.411765%,24.313725%,37.254902%);fill-opacity:1;" d="M 29.535156 19.746094 C 29.535156 19.746094 29.855469 19.457031 30.113281 19.035156 C 30.113281 19.035156 30.136719 19 30.152344 19.042969 C 30.164062 19.085938 30.136719 19.496094 30.050781 19.835938 L 29.535156 19.746094 "/>
<path style=" stroke:none;fill-rule:nonzero;fill:rgb(9.411765%,24.313725%,37.254902%);fill-opacity:1;" d="M 29.910156 19.953125 C 29.910156 19.953125 30.226562 19.664062 30.488281 19.242188 C 30.488281 19.242188 30.511719 19.207031 30.523438 19.25 C 30.539062 19.292969 30.53125 19.5 30.449219 19.839844 L 29.910156 19.953125 "/>
<path style=" stroke:none;fill-rule:nonzero;fill:rgb(9.411765%,24.313725%,37.254902%);fill-opacity:1;" d="M 28.050781 15.101562 C 28.050781 15.101562 27.78125 14.878906 27.511719 14.792969 C 27.511719 14.792969 27.667969 15 27.636719 15.167969 C 27.636719 15.167969 27.9375 15.289062 28.050781 15.101562 "/>
<path style=" stroke:none;fill-rule:nonzero;fill:rgb(9.411765%,24.313725%,37.254902%);fill-opacity:1;" d="M 7.046875 14.207031 C 12.488281 13.042969 17.851562 13.175781 17.851562 13.175781 C 17.851562 13.175781 13.402344 13.734375 10.148438 14.609375 C 10.148438 14.609375 10.882812 14.710938 11.148438 14.984375 C 11.148438 14.984375 6.734375 15.988281 2.421875 17.867188 C 2.421875 17.867188 4.890625 17.992188 7.011719 18.34375 L 7.25 18.386719 C 12.476562 16.359375 17.300781 16 17.300781 16 C 12.824219 16.859375 9.21875 18.773438 9.21875 18.773438 C 10.042969 18.972656 10.269531 19.03125 11.066406 19.289062 C 11.066406 19.289062 15.773438 17.007812 20.332031 16.636719 C 20.332031 16.636719 19.726562 16.996094 19.578125 17.617188 C 19.578125 17.617188 21.359375 17.050781 23.210938 17.164062 C 23.210938 17.164062 21.359375 17.464844 19.867188 18.269531 C 19.066406 18.699219 17.878906 19.703125 17.878906 19.703125 C 17.878906 19.703125 17.878906 18.738281 18.265625 18.101562 C 18.265625 18.101562 15.726562 18.582031 13.6875 20.398438 C 13.6875 20.398438 16.25 21.726562 16.773438 23.6875 C 16.773438 23.6875 16.820312 23.90625 16.824219 23.953125 L 16.828125 24 C 20.472656 18.199219 29.640625 20.179688 29.640625 20.179688 C 29.640625 20.179688 29.949219 20.226562 30.492188 19.886719 C 30.492188 19.886719 30.644531 19.785156 30.640625 19.660156 C 30.636719 19.492188 29.824219 19.46875 29.824219 19.46875 C 29.027344 19.222656 29.339844 19.050781 28.597656 18.703125 C 28 18.425781 27.476562 18.429688 26.984375 18.453125 C 26.984375 18.453125 26.816406 18.449219 26.765625 18.355469 C 26.613281 18.074219 26.921875 17.769531 26.921875 17.769531 C 27.292969 17.464844 28.378906 16.710938 29.976562 17.640625 C 31.109375 18.300781 31.855469 17.851562 32.011719 17.753906 C 32.125 17.679688 32.144531 17.660156 32.144531 17.660156 C 32.214844 17.597656 32.269531 17.527344 32.332031 17.429688 C 32.808594 16.71875 32.222656 16.457031 32.222656 16.457031 C 31.890625 16.308594 31.5625 16.199219 31.5625 16.199219 C 31.003906 15.945312 29.484375 15.367188 28.804688 14.519531 C 27.855469 13.339844 27.367188 13.058594 27.367188 13.058594 C 26.457031 12.53125 24.855469 11.644531 24.074219 11.347656 C 24 11.3125 23.898438 11.265625 23.824219 11.234375 C 21.144531 10.097656 20.078125 9.101562 19.933594 9.121094 C 19.792969 9.140625 19.417969 9.136719 19.488281 9.628906 C 19.519531 9.855469 19.5625 10.304688 19.621094 10.566406 C 19.621094 10.566406 15.765625 10.574219 13.84375 10.253906 L 14.398438 10.78125 C 14.398438 10.78125 10.167969 11.328125 8.382812 11.207031 L 9.054688 11.777344 C 9.054688 11.777344 6.800781 12.382812 2.929688 12.867188 C 2.929688 12.867188 5.554688 13.167969 7.046875 14.207031 M 21.042969 13.855469 C 21.042969 13.855469 20.859375 13.984375 20.6875 13.765625 C 20.515625 13.546875 19.734375 12.746094 19.507812 11.519531 C 19.507812 11.519531 19.4375 11.191406 19.582031 11.101562 C 19.734375 11.007812 20.085938 11.167969 20.085938 11.167969 C 20.085938 11.167969 21.386719 11.738281 22.398438 12.394531 C 22.398438 12.394531 22.519531 12.476562 22.464844 12.546875 C 22.441406 12.578125 22.375 12.59375 22.375 12.59375 C 21.945312 12.738281 21.019531 12.6875 21.019531 12.6875 C 21.019531 12.6875 21.304688 13.136719 21.699219 13.351562 C 21.699219 13.351562 21.277344 13.445312 21.113281 13.433594 C 21.113281 13.433594 21.507812 13.628906 21.042969 13.855469 M 27.277344 15.539062 C 27.277344 15.539062 27.257812 15.554688 27.246094 15.539062 C 27.234375 15.523438 27.25 15.539062 27.246094 15.503906 C 27.167969 14.847656 26.773438 14.15625 26.773438 14.15625 C 26.773438 14.15625 26.734375 14.109375 26.769531 14.074219 C 26.804688 14.035156 26.847656 14.074219 26.847656 14.074219 L 29.683594 15.957031 C 27.667969 14.855469 27.277344 15.539062 27.277344 15.539062 M 28.964844 16.921875 C 28.9375 16.953125 28.660156 16.878906 28.648438 16.875 C 28.488281 16.847656 28.328125 16.839844 28.167969 16.855469 C 28.007812 16.875 27.847656 16.910156 27.695312 16.960938 C 27.585938 17 27.433594 17.105469 27.316406 17.082031 C 27.316406 16.996094 27.425781 16.898438 27.492188 16.84375 C 27.609375 16.75 27.738281 16.675781 27.882812 16.628906 C 28.117188 16.554688 28.363281 16.574219 28.59375 16.660156 C 28.703125 16.699219 28.925781 16.789062 28.964844 16.914062 C 28.964844 16.917969 28.964844 16.917969 28.964844 16.921875 M 31.21875 16.984375 C 31.21875 16.984375 31.039062 16.851562 31.140625 16.640625 C 31.242188 16.425781 31.644531 16.421875 31.808594 16.480469 C 31.96875 16.542969 32.441406 16.714844 32.246094 17.132812 C 32.046875 17.554688 31.855469 17.601562 31.855469 17.601562 C 31.855469 17.601562 31.757812 17.621094 31.722656 17.574219 C 31.683594 17.53125 31.667969 17.492188 31.703125 17.472656 C 31.738281 17.449219 32.003906 17.332031 32.019531 17.171875 C 32.03125 17.011719 31.9375 16.96875 31.902344 16.964844 C 31.863281 16.964844 31.773438 16.988281 31.816406 17.105469 C 31.863281 17.222656 31.753906 17.300781 31.753906 17.300781 C 31.753906 17.300781 31.675781 17.367188 31.625 17.3125 C 31.574219 17.257812 31.273438 17.019531 31.21875 16.984375 "/>
<path style=" stroke:none;fill-rule:nonzero;fill:rgb(0%,16.470588%,36.078431%);fill-opacity:1;" d="M 0 12.609375 C 0 12.308594 0.00390625 12.003906 0.00390625 11.703125 C 0.128906 11.601562 0.21875 11.5 0.265625 11.398438 C 0.3125 11.296875 0.335938 11.140625 0.335938 10.929688 L 0.335938 8.332031 C 0.335938 8.175781 0.3125 8.082031 0.261719 8.050781 C 0.214844 8.019531 0.128906 8.035156 0.00390625 8.097656 C 0.00390625 7.8125 0 7.523438 0 7.234375 C 0.570312 6.832031 1.148438 6.457031 1.738281 6.097656 C 2.304688 6.761719 2.878906 7.449219 3.460938 8.152344 L 3.460938 6.542969 C 3.460938 6.351562 3.429688 6.234375 3.375 6.1875 C 3.320312 6.136719 3.222656 6.140625 3.085938 6.195312 L 3.085938 5.328125 C 3.816406 4.933594 4.558594 4.574219 5.3125 4.242188 L 5.3125 5.113281 C 5.164062 5.210938 5.066406 5.304688 5.011719 5.398438 C 4.957031 5.492188 4.929688 5.652344 4.929688 5.882812 L 4.929688 9.789062 C 4.433594 10.015625 3.945312 10.253906 3.460938 10.507812 C 2.878906 9.792969 2.304688 9.097656 1.738281 8.421875 L 1.738281 10.027344 C 1.738281 10.226562 1.761719 10.347656 1.8125 10.390625 C 1.863281 10.433594 1.953125 10.421875 2.089844 10.363281 C 2.089844 10.660156 2.089844 10.960938 2.09375 11.261719 C 1.382812 11.679688 0.683594 12.128906 0 12.609375 "/>
<path style=" stroke:none;fill-rule:nonzero;fill:rgb(0%,16.470588%,36.078431%);fill-opacity:1;" d="M 6.214844 9.242188 L 6.214844 8.339844 C 6.355469 8.257812 6.453125 8.175781 6.503906 8.09375 C 6.558594 8.007812 6.582031 7.855469 6.582031 7.636719 L 6.582031 5.148438 C 6.582031 4.929688 6.558594 4.796875 6.503906 4.753906 C 6.453125 4.710938 6.355469 4.703125 6.214844 4.734375 L 6.214844 3.867188 C 7.902344 3.191406 9.636719 2.675781 11.394531 2.316406 L 11.394531 3.957031 C 10.855469 4.070312 10.316406 4.195312 9.777344 4.335938 L 9.777344 4.277344 C 9.777344 4.070312 9.714844 3.945312 9.585938 3.894531 C 9.453125 3.847656 9.222656 3.871094 8.894531 3.96875 C 8.683594 4.027344 8.476562 4.09375 8.265625 4.160156 L 8.265625 5.28125 C 8.933594 5.070312 9.609375 4.882812 10.285156 4.714844 L 10.285156 5.621094 C 9.609375 5.785156 8.933594 5.972656 8.265625 6.1875 L 8.265625 7.480469 C 8.515625 7.402344 8.761719 7.324219 9.011719 7.253906 C 9.296875 7.171875 9.5 7.074219 9.609375 6.964844 C 9.722656 6.851562 9.777344 6.6875 9.777344 6.460938 L 9.777344 6.269531 C 10.316406 6.128906 10.855469 6.003906 11.394531 5.890625 L 11.394531 7.691406 C 9.636719 8.050781 7.902344 8.570312 6.214844 9.242188 "/>
<path style=" stroke:none;fill-rule:nonzero;fill:rgb(0%,16.470588%,36.078431%);fill-opacity:1;" d="M 13.625 7.324219 C 13.234375 6.027344 12.847656 4.742188 12.457031 3.464844 C 12.410156 3.3125 12.355469 3.210938 12.289062 3.160156 C 12.222656 3.109375 12.125 3.078125 11.992188 3.070312 L 11.992188 2.199219 C 12.859375 2.042969 13.730469 1.921875 14.605469 1.835938 L 14.605469 2.707031 C 14.464844 2.738281 14.367188 2.785156 14.304688 2.835938 C 14.246094 2.886719 14.214844 2.953125 14.214844 3.035156 C 14.214844 3.066406 14.21875 3.09375 14.222656 3.121094 C 14.230469 3.148438 14.234375 3.175781 14.246094 3.203125 C 14.523438 4.183594 14.796875 5.164062 15.074219 6.152344 C 15.328125 5.136719 15.578125 4.121094 15.832031 3.113281 C 15.839844 3.085938 15.84375 3.058594 15.847656 3.027344 C 15.851562 2.996094 15.851562 2.957031 15.851562 2.910156 C 15.851562 2.820312 15.824219 2.753906 15.761719 2.714844 C 15.703125 2.671875 15.601562 2.644531 15.453125 2.636719 L 15.453125 1.769531 C 16.230469 1.714844 17.007812 1.691406 17.789062 1.699219 L 17.789062 2.570312 C 17.675781 2.601562 17.585938 2.652344 17.519531 2.726562 C 17.453125 2.800781 17.398438 2.902344 17.359375 3.039062 C 16.988281 4.386719 16.613281 5.742188 16.242188 7.101562 C 15.367188 7.136719 14.492188 7.210938 13.625 7.324219 "/>
<path style=" stroke:none;fill-rule:nonzero;fill:rgb(0%,16.470588%,36.078431%);fill-opacity:1;" d="M 17.625 7.074219 L 17.625 6.171875 C 17.746094 6.144531 17.839844 6.097656 17.902344 6.027344 C 17.96875 5.957031 18.03125 5.816406 18.085938 5.613281 C 18.445312 4.316406 18.804688 3.027344 19.160156 1.746094 C 20.03125 1.792969 20.902344 1.875 21.769531 2 C 22.160156 3.386719 22.550781 4.78125 22.941406 6.183594 C 22.992188 6.355469 23.046875 6.480469 23.109375 6.554688 C 23.171875 6.632812 23.261719 6.695312 23.375 6.742188 L 23.375 7.648438 C 22.523438 7.480469 21.667969 7.347656 20.808594 7.253906 L 20.808594 6.351562 C 20.925781 6.355469 21.015625 6.339844 21.085938 6.304688 C 21.152344 6.269531 21.1875 6.214844 21.1875 6.140625 C 21.1875 6.121094 21.183594 6.097656 21.183594 6.070312 C 21.179688 6.042969 21.171875 6.015625 21.167969 5.984375 C 21.144531 5.90625 21.125 5.828125 21.101562 5.75 C 20.613281 5.691406 20.125 5.644531 19.636719 5.609375 C 19.613281 5.675781 19.59375 5.742188 19.570312 5.808594 C 19.5625 5.847656 19.558594 5.878906 19.554688 5.902344 C 19.554688 5.929688 19.550781 5.949219 19.550781 5.972656 C 19.550781 6.0625 19.582031 6.128906 19.648438 6.175781 C 19.714844 6.222656 19.816406 6.253906 19.960938 6.269531 L 19.960938 7.175781 C 19.183594 7.113281 18.40625 7.078125 17.625 7.074219 M 19.824219 4.859375 C 20.171875 4.882812 20.515625 4.917969 20.859375 4.953125 C 20.6875 4.25 20.511719 3.546875 20.339844 2.84375 C 20.167969 3.515625 19.996094 4.183594 19.824219 4.859375 "/>
<path style=" stroke:none;fill-rule:nonzero;fill:rgb(0%,16.470588%,36.078431%);fill-opacity:1;" d="M 26.449219 8.417969 C 25.632812 8.167969 24.808594 7.953125 23.980469 7.773438 L 23.980469 6.867188 C 24.128906 6.875 24.230469 6.855469 24.285156 6.804688 C 24.335938 6.75 24.363281 6.613281 24.363281 6.394531 L 24.363281 3.910156 C 24.363281 3.691406 24.335938 3.542969 24.285156 3.464844 C 24.230469 3.386719 24.128906 3.320312 23.980469 3.265625 L 23.980469 2.394531 C 24.808594 2.578125 25.632812 2.792969 26.449219 3.042969 C 27.535156 3.378906 28.269531 3.808594 28.660156 4.253906 C 29.054688 4.699219 29.25 5.316406 29.25 6.085938 L 29.25 7.371094 C 29.25 8.183594 29.066406 8.648438 28.691406 8.78125 C 28.316406 8.917969 27.574219 8.765625 26.449219 8.417969 M 26.082031 7.230469 C 26.246094 7.28125 26.414062 7.328125 26.578125 7.382812 C 26.980469 7.507812 27.246094 7.550781 27.382812 7.5 C 27.515625 7.449219 27.582031 7.269531 27.582031 6.960938 L 27.582031 5.339844 C 27.582031 4.984375 27.519531 4.726562 27.386719 4.570312 C 27.257812 4.414062 27.019531 4.277344 26.664062 4.167969 C 26.632812 4.15625 26.601562 4.144531 26.570312 4.136719 C 26.40625 4.085938 26.242188 4.039062 26.082031 3.996094 Z M 26.082031 7.230469 "/>
<path style=" stroke:none;fill-rule:nonzero;fill:rgb(0%,16.470588%,36.078431%);fill-opacity:1;" d="M 29.8125 9.675781 L 29.8125 8.773438 C 29.925781 8.796875 30.011719 8.785156 30.074219 8.742188 C 30.132812 8.695312 30.191406 8.582031 30.242188 8.398438 C 30.574219 7.25 30.90625 6.109375 31.234375 4.972656 C 32.03125 5.375 32.816406 5.816406 33.585938 6.296875 C 33.933594 7.847656 34.28125 9.402344 34.621094 10.964844 C 34.664062 11.160156 34.714844 11.304688 34.769531 11.40625 C 34.824219 11.511719 34.898438 11.609375 35 11.707031 L 35 12.609375 C 34.257812 12.089844 33.5 11.605469 32.726562 11.160156 L 32.726562 10.253906 C 32.832031 10.308594 32.914062 10.332031 32.976562 10.320312 C 33.039062 10.3125 33.066406 10.273438 33.066406 10.199219 C 33.066406 10.179688 33.066406 10.15625 33.0625 10.128906 C 33.058594 10.097656 33.054688 10.066406 33.050781 10.03125 C 33.03125 9.945312 33.011719 9.859375 32.992188 9.773438 C 32.554688 9.515625 32.113281 9.265625 31.667969 9.03125 C 31.648438 9.089844 31.628906 9.148438 31.609375 9.207031 C 31.601562 9.242188 31.597656 9.269531 31.59375 9.292969 C 31.59375 9.316406 31.589844 9.339844 31.589844 9.359375 C 31.589844 9.449219 31.621094 9.53125 31.679688 9.605469 C 31.738281 9.675781 31.832031 9.75 31.960938 9.824219 L 31.960938 10.730469 C 31.257812 10.347656 30.539062 9.996094 29.8125 9.675781 M 31.839844 8.359375 C 32.152344 8.523438 32.464844 8.699219 32.773438 8.878906 C 32.617188 8.101562 32.460938 7.328125 32.304688 6.554688 C 32.152344 7.15625 31.996094 7.757812 31.839844 8.359375 "/>
</g>
</svg>
