<?xml version="1.0" encoding="UTF-8"?>
<svg xmlns="http://www.w3.org/2000/svg" xmlns:xlink="http://www.w3.org/1999/xlink" width="35pt" height="25pt" viewBox="0 0 35 25" version="1.1">
<g id="surface1">
<path style=" stroke:none;fill-rule:evenodd;fill:rgb(100%,100%,100%);fill-opacity:1;" d="M 4.75 25 L 29.75 25 L 29.75 0 L 4.75 0 Z M 4.75 25 "/>
<path style=" stroke:none;fill-rule:evenodd;fill:rgb(13.72549%,12.156863%,12.54902%);fill-opacity:1;" d="M 25.632812 13.082031 L 26.222656 11.695312 L 25.96875 11.128906 C 25.628906 10.359375 24.964844 9.179688 24.449219 8.292969 L 25.269531 6.125 C 25.273438 6.125 25.273438 6.121094 25.273438 6.117188 L 25.277344 6.109375 C 25.277344 6.109375 25.277344 6.109375 25.273438 6.109375 C 25.28125 6.050781 25.21875 5.890625 25.160156 5.753906 C 25.089844 5.59375 23.675781 2.367188 23.675781 2.367188 C 23.675781 2.367188 21.132812 1.101562 17.273438 1.101562 C 13.414062 1.101562 10.742188 2.347656 10.742188 2.347656 L 8.992188 5.832031 C 8.992188 5.832031 8.992188 5.832031 8.996094 5.835938 L 10.070312 8.304688 C 10.070312 8.304688 10.0625 8.316406 10.058594 8.328125 C 9.542969 9.210938 8.890625 10.371094 8.554688 11.128906 L 8.277344 11.757812 L 8.859375 13.179688 L 9.878906 15.113281 C 9.878906 15.113281 12.105469 16.609375 17.261719 23.484375 C 22.421875 16.609375 24.648438 15.113281 24.648438 15.113281 L 25.667969 13.183594 L 25.632812 13.082031 "/>
<path style=" stroke:none;fill-rule:evenodd;fill:rgb(100%,100%,100%);fill-opacity:1;" d="M 10.84375 2.480469 C 10.789062 2.589844 9.28125 5.589844 9.175781 5.804688 C 9.460938 6.101562 10.367188 7.042969 10.667969 7.347656 L 10.769531 7.449219 L 10.726562 7.554688 C 10.277344 8.304688 9.1875 10.15625 8.722656 11.203125 C 8.722656 11.203125 8.617188 11.441406 8.535156 11.628906 C 8.816406 11.691406 9.667969 11.878906 9.667969 11.878906 L 9.527344 12.101562 C 9.371094 12.339844 9.25 12.589844 9.164062 12.84375 C 9.164062 12.84375 9.113281 12.996094 9.078125 13.109375 C 9.179688 13.183594 9.308594 13.273438 9.308594 13.273438 C 9.332031 13.292969 11.898438 15.128906 16.957031 21.867188 C 16.957031 21.867188 17.132812 22.097656 17.261719 22.273438 C 17.398438 22.097656 17.566406 21.867188 17.566406 21.867188 C 22.613281 15.148438 25.191406 13.292969 25.21875 13.273438 C 25.21875 13.273438 25.351562 13.179688 25.449219 13.109375 C 25.410156 12.992188 25.359375 12.839844 25.359375 12.839844 C 25.277344 12.59375 25.164062 12.355469 25.027344 12.140625 L 24.898438 11.941406 C 24.898438 11.941406 25.71875 11.671875 25.972656 11.585938 C 25.898438 11.417969 25.804688 11.203125 25.804688 11.203125 C 25.339844 10.15625 24.246094 8.304688 23.800781 7.554688 L 23.761719 7.449219 L 24.308594 6.890625 C 24.308594 6.890625 25.074219 6.113281 25.140625 6.046875 C 25.128906 6.011719 23.621094 2.617188 23.566406 2.492188 C 23.167969 2.3125 20.742188 1.269531 17.273438 1.269531 C 13.785156 1.269531 11.246094 2.304688 10.84375 2.480469 "/>
<path style=" stroke:none;fill-rule:evenodd;fill:rgb(13.72549%,12.156863%,12.54902%);fill-opacity:1;" d="M 24.195312 11.773438 L 25.453125 11.355469 C 24.867188 10.039062 23.246094 7.378906 23.246094 7.378906 L 24.851562 6.03125 L 23.242188 2.554688 C 23.242188 2.554688 20.867188 1.441406 17.261719 1.441406 C 13.660156 1.441406 11.167969 2.539062 11.167969 2.539062 L 9.433594 5.792969 L 11.277344 7.378906 C 11.277344 7.378906 9.660156 10.039062 9.070312 11.355469 L 10.410156 11.652344 C 10.410156 11.652344 9.800781 12.144531 9.527344 12.960938 C 9.527344 12.960938 12.105469 14.769531 17.261719 21.640625 C 22.421875 14.769531 25 12.960938 25 12.960938 C 24.726562 12.144531 24.195312 11.773438 24.195312 11.773438 "/>
<path style=" stroke:none;fill-rule:evenodd;fill:rgb(100%,100%,100%);fill-opacity:1;" d="M 24.011719 12.542969 C 23.222656 11.957031 22.632812 11.714844 22.222656 11.660156 C 23.167969 11 23.945312 11.128906 23.945312 11.128906 C 23.679688 10.863281 23.261719 10.710938 22.976562 10.628906 C 22.617188 10.527344 22.113281 10.4375 21.796875 10.441406 C 22.289062 9.914062 23.089844 9.546875 23.089844 9.546875 C 21.316406 9.023438 20.351562 10.292969 20.351562 10.292969 C 20.460938 10.820312 20.128906 11.457031 20.128906 11.457031 C 21.09375 12.152344 21.542969 13.035156 21.542969 13.035156 C 21.511719 13.007812 21.476562 12.980469 21.445312 12.953125 C 19.761719 11.550781 18.746094 12.246094 18.746094 12.246094 L 18.683594 11.871094 L 17.765625 13.953125 L 18.054688 12.015625 L 17.660156 11.6875 C 18.714844 11.851562 19.042969 10.929688 19.371094 10.402344 C 19.703125 9.878906 20.292969 9.417969 20.292969 9.417969 C 19.429688 9.550781 18.847656 9.960938 18.503906 10.292969 C 19.203125 7.871094 23.058594 6.191406 23.058594 6.191406 C 23.058594 6.191406 20.746094 6.421875 19.390625 7.535156 L 19.703125 7.144531 C 18.8125 6.980469 18.664062 6.816406 17.28125 6.816406 C 16.082031 6.816406 15.808594 6.941406 15.175781 7.082031 C 15.082031 7.101562 14.976562 7.125 14.859375 7.144531 L 15.386719 7.804688 C 15.386719 7.804688 14.023438 6.660156 11.558594 6.367188 C 11.558594 6.367188 15.328125 7.867188 16.050781 10.257812 C 16.050781 10.269531 16.054688 10.28125 16.058594 10.292969 C 16.0625 10.292969 16.039062 10.269531 16.023438 10.257812 C 15.675781 9.933594 15.101562 9.546875 14.269531 9.417969 C 14.289062 9.429688 14.867188 9.886719 15.191406 10.402344 C 15.519531 10.929688 15.847656 11.851562 16.902344 11.6875 L 16.507812 12.015625 L 16.796875 13.953125 L 16.75 13.851562 C 16.765625 13.882812 16.78125 13.914062 16.796875 13.953125 L 15.882812 11.871094 L 15.816406 12.246094 C 15.816406 12.246094 14.800781 11.550781 13.117188 12.953125 C 13.082031 12.980469 13.050781 13.007812 13.019531 13.035156 C 13.019531 13.035156 13.46875 12.152344 14.433594 11.457031 C 14.433594 11.457031 14.101562 10.820312 14.210938 10.292969 C 14.210938 10.292969 13.25 9.023438 11.472656 9.546875 C 11.472656 9.546875 12.273438 9.914062 12.769531 10.441406 C 12.082031 10.4375 11.011719 10.71875 10.617188 11.128906 C 10.617188 11.128906 11.390625 11.003906 12.335938 11.65625 C 11.925781 11.710938 11.339844 11.957031 10.550781 12.542969 C 10.550781 12.542969 11.40625 12.574219 13.90625 14.253906 L 13.578125 14.714844 C 13.578125 14.714844 14.703125 15.074219 15.011719 16.476562 C 15.226562 17.46875 15.664062 18.675781 16.003906 19.21875 C 16.25 19.613281 16.664062 19.894531 17.273438 19.894531 C 17.277344 19.894531 17.277344 19.894531 17.28125 19.894531 C 17.285156 19.894531 17.289062 19.894531 17.289062 19.894531 C 17.898438 19.894531 18.316406 19.613281 18.558594 19.21875 C 18.898438 18.675781 19.335938 17.46875 19.550781 16.476562 C 19.859375 15.074219 20.984375 14.714844 20.984375 14.714844 L 20.65625 14.253906 C 23.15625 12.574219 24.011719 12.542969 24.011719 12.542969 "/>
<path style=" stroke:none;fill-rule:evenodd;fill:rgb(13.72549%,12.156863%,12.54902%);fill-opacity:1;" d="M 20.820312 13.738281 C 20.820312 13.738281 20.425781 11.917969 19.582031 12.566406 C 19.105469 12.933594 19.289062 13.742188 19.105469 14.78125 C 18.886719 15.996094 18.953125 16.777344 17.28125 16.777344 C 15.609375 16.777344 15.675781 15.996094 15.457031 14.78125 C 15.273438 13.742188 15.460938 12.933594 14.980469 12.566406 C 14.136719 11.917969 13.742188 13.738281 13.742188 13.738281 C 14.136719 13.609375 14.675781 13.78125 14.675781 13.78125 C 14.417969 14 14.328125 14.5 14.328125 14.5 C 15.675781 15.84375 15.429688 16.878906 15.847656 18.230469 C 16.15625 19.21875 16.796875 19.382812 17.28125 19.382812 C 17.765625 19.382812 18.441406 19.21875 18.714844 18.230469 C 19.089844 16.867188 18.886719 15.84375 20.234375 14.5 C 20.234375 14.5 20.148438 14 19.886719 13.78125 C 19.886719 13.78125 20.425781 13.609375 20.820312 13.738281 "/>
<path style=" stroke:none;fill-rule:evenodd;fill:rgb(100%,100%,100%);fill-opacity:1;" d="M 16.234375 16.847656 C 16.222656 16.839844 16.238281 16.847656 16.203125 16.832031 C 16.070312 16.773438 15.957031 16.695312 15.863281 16.605469 C 15.875 17.5 16.191406 18.144531 16.191406 18.144531 C 16.191406 18.144531 16.402344 17.226562 16.507812 16.9375 C 16.40625 16.910156 16.316406 16.882812 16.234375 16.847656 "/>
<path style=" stroke:none;fill-rule:evenodd;fill:rgb(13.72549%,12.156863%,12.54902%);fill-opacity:1;" d="M 17.804688 14.882812 C 17.804688 14.882812 17.867188 14.84375 17.28125 14.84375 C 16.695312 14.84375 16.742188 14.882812 16.742188 14.882812 C 16.308594 13.492188 15.5625 12.667969 15.5625 12.667969 C 15.5625 12.667969 16.171875 14.292969 16.261719 15.714844 C 16.3125 16.539062 17.28125 16.496094 17.28125 16.496094 C 17.28125 16.496094 18.292969 16.539062 18.300781 15.714844 C 18.3125 14.445312 19.105469 12.667969 19.105469 12.667969 C 19.105469 12.667969 18.238281 13.492188 17.804688 14.882812 "/>
<path style=" stroke:none;fill-rule:evenodd;fill:rgb(100%,100%,100%);fill-opacity:1;" d="M 19.460938 10.71875 L 19.417969 10.785156 C 19.453125 10.84375 19.472656 10.914062 19.472656 10.988281 C 19.472656 11.160156 19.308594 11.425781 18.996094 11.410156 L 18.824219 11.671875 C 18.824219 11.671875 18.945312 11.539062 19.367188 11.503906 C 20 11.449219 20.007812 10.464844 20.007812 10.464844 C 19.5625 10.425781 19.460938 10.71875 19.460938 10.71875 "/>
<path style=" stroke:none;fill-rule:evenodd;fill:rgb(100%,100%,100%);fill-opacity:1;" d="M 15.101562 10.71875 L 15.148438 10.785156 C 15.109375 10.84375 15.089844 10.914062 15.089844 10.988281 C 15.089844 11.160156 15.253906 11.425781 15.566406 11.410156 L 15.742188 11.671875 C 15.742188 11.671875 15.621094 11.539062 15.195312 11.503906 C 14.5625 11.449219 14.558594 10.464844 14.558594 10.464844 C 15 10.425781 15.101562 10.71875 15.101562 10.71875 "/>
<path style=" stroke:none;fill-rule:evenodd;fill:rgb(100%,100%,100%);fill-opacity:1;" d="M 16.769531 16.0625 C 16.769531 16.0625 16.511719 15.226562 17.183594 15.390625 C 17.765625 15.53125 17.941406 15.128906 17.941406 15.128906 C 17.941406 15.128906 16.832031 15.011719 16.527344 15.257812 C 16.226562 15.503906 16.769531 16.0625 16.769531 16.0625 "/>
<path style=" stroke:none;fill-rule:evenodd;fill:rgb(100%,100%,100%);fill-opacity:1;" d="M 11.273438 6.660156 C 11.734375 6.988281 12.105469 7.441406 12.371094 7.824219 C 12.371094 7.824219 12.375 7.828125 12.375 7.828125 C 12.667969 8.253906 12.828125 8.597656 12.828125 8.597656 C 13.855469 8.761719 14.667969 9.027344 14.667969 9.027344 C 12.445312 6.804688 11.273438 6.660156 11.273438 6.660156 "/>
<path style=" stroke:none;fill-rule:evenodd;fill:rgb(100%,100%,100%);fill-opacity:1;" d="M 17.546875 18.585938 L 17.316406 19.167969 L 17.511719 19.164062 C 17.527344 19.160156 17.664062 19.121094 17.679688 19.117188 L 17.546875 18.585938 "/>
<path style=" stroke:none;fill-rule:evenodd;fill:rgb(100%,100%,100%);fill-opacity:1;" d="M 16.761719 19.082031 C 16.664062 18.804688 16.460938 18.085938 16.460938 18.085938 C 16.460938 18.085938 16.351562 18.375 16.277344 18.75 C 16.355469 18.839844 16.433594 18.90625 16.515625 18.960938 C 16.597656 19.015625 16.679688 19.054688 16.761719 19.082031 "/>
<path style=" stroke:none;fill-rule:evenodd;fill:rgb(100%,100%,100%);fill-opacity:1;" d="M 22.222656 7.125 C 22.023438 7.246094 21.800781 7.390625 21.550781 7.578125 C 21.523438 7.597656 21.515625 7.601562 21.515625 7.601562 C 21.0625 7.941406 20.519531 8.402344 19.894531 9.027344 L 20.992188 8.738281 C 21.21875 8.6875 21.46875 8.640625 21.734375 8.597656 C 21.734375 8.597656 22.320312 7.351562 23.289062 6.660156 C 23.289062 6.660156 22.925781 6.703125 22.222656 7.125 "/>
<path style=" stroke:none;fill-rule:evenodd;fill:rgb(100%,100%,100%);fill-opacity:1;" d="M 16.992188 18.585938 L 16.863281 19.117188 C 16.878906 19.121094 17.015625 19.160156 17.03125 19.164062 L 17.226562 19.167969 L 16.992188 18.585938 "/>
<path style=" stroke:none;fill-rule:evenodd;fill:rgb(100%,100%,100%);fill-opacity:1;" d="M 18.078125 18.085938 C 18.078125 18.085938 17.875 18.804688 17.777344 19.082031 C 17.859375 19.054688 17.945312 19.015625 18.023438 18.960938 C 18.105469 18.90625 18.1875 18.839844 18.261719 18.75 C 18.191406 18.375 18.078125 18.085938 18.078125 18.085938 "/>
<path style=" stroke:none;fill-rule:evenodd;fill:rgb(100%,100%,100%);fill-opacity:1;" d="M 16.890625 17 C 16.894531 17 16.863281 16.996094 16.84375 16.996094 C 16.757812 16.984375 16.683594 16.96875 16.613281 16.949219 L 16.867188 17.71875 L 17.207031 17.019531 C 17.207031 17.019531 16.945312 17.007812 16.890625 17 "/>
<path style=" stroke:none;fill-rule:evenodd;fill:rgb(100%,100%,100%);fill-opacity:1;" d="M 18.4375 16.796875 C 18.4375 16.796875 18.351562 16.839844 18.25 16.875 C 18.171875 16.902344 18.097656 16.925781 18.054688 16.933594 C 18.164062 17.226562 18.375 18.144531 18.375 18.144531 C 18.375 18.144531 18.6875 17.5 18.703125 16.605469 C 18.625 16.679688 18.539062 16.742188 18.4375 16.796875 "/>
<path style=" stroke:none;fill-rule:evenodd;fill:rgb(100%,100%,100%);fill-opacity:1;" d="M 17.660156 16.988281 C 17.640625 16.988281 17.625 16.992188 17.632812 16.992188 C 17.574219 16.996094 17.316406 17 17.316406 17 L 17.632812 17.707031 L 17.910156 16.945312 C 17.835938 16.964844 17.753906 16.976562 17.660156 16.988281 "/>
<path style=" stroke:none;fill-rule:evenodd;fill:rgb(100%,100%,100%);fill-opacity:1;" d="M 19.238281 1.859375 C 19.09375 1.84375 18.949219 1.824219 18.808594 1.808594 C 18.402344 1.773438 18.164062 1.933594 18.1875 2.238281 C 18.1875 2.238281 18.199219 2.378906 18.21875 2.601562 C 18.234375 2.832031 18.261719 3.15625 18.285156 3.496094 C 18.3125 3.855469 18.34375 4.238281 18.367188 4.539062 C 18.390625 4.851562 18.40625 5.070312 18.40625 5.070312 C 18.667969 5.304688 18.9375 5.546875 19.214844 5.792969 C 19.453125 5.792969 19.6875 5.792969 19.925781 5.792969 C 20.160156 5.792969 20.398438 5.792969 20.632812 5.792969 C 20.828125 5.5625 21.015625 5.34375 21.199219 5.136719 C 21.128906 4.878906 21.0625 4.632812 20.996094 4.394531 C 20.933594 4.167969 20.875 3.945312 20.816406 3.730469 C 20.757812 3.523438 20.703125 3.320312 20.652344 3.125 C 20.601562 2.9375 20.550781 2.753906 20.503906 2.578125 C 20.457031 2.417969 20.367188 2.28125 20.234375 2.171875 C 20.082031 2.046875 19.878906 1.960938 19.628906 1.917969 C 19.496094 1.898438 19.367188 1.878906 19.238281 1.859375 Z M 19.527344 2.503906 C 19.539062 2.554688 19.628906 3.027344 19.726562 3.539062 C 19.832031 4.09375 19.949219 4.703125 19.960938 4.773438 C 19.867188 4.769531 19.617188 4.761719 19.519531 4.757812 C 19.511719 4.6875 19.410156 4.070312 19.320312 3.503906 C 19.238281 2.988281 19.164062 2.511719 19.15625 2.460938 C 19.234375 2.472656 19.449219 2.496094 19.527344 2.503906 "/>
<path style=" stroke:none;fill-rule:evenodd;fill:rgb(100%,100%,100%);fill-opacity:1;" d="M 15.957031 1.773438 C 15.9375 1.773438 15.917969 1.777344 15.902344 1.777344 C 15.867188 2.027344 15.835938 2.289062 15.800781 2.5625 C 15.761719 2.851562 15.722656 3.15625 15.679688 3.472656 C 15.636719 3.808594 15.589844 4.160156 15.542969 4.535156 C 15.492188 4.929688 15.4375 5.347656 15.378906 5.792969 C 15.695312 5.792969 16.015625 5.792969 16.332031 5.792969 C 16.648438 5.792969 16.964844 5.792969 17.285156 5.792969 C 17.585938 5.613281 17.882812 5.441406 18.175781 5.273438 C 18.175781 5.273438 18.082031 3.71875 18.082031 3.71875 C 18.066406 3.523438 17.777344 3.394531 17.585938 3.332031 C 17.761719 3.222656 18.023438 3.039062 18.011719 2.867188 C 18.011719 2.847656 18.003906 2.421875 18 2.363281 C 17.992188 2.214844 17.917969 2.070312 17.792969 1.957031 C 17.632812 1.808594 17.402344 1.726562 17.144531 1.726562 C 16.949219 1.726562 16.75 1.730469 16.550781 1.738281 C 16.355469 1.746094 16.15625 1.757812 15.957031 1.773438 Z M 17.042969 2.363281 C 17.042969 2.453125 17.03125 2.9375 17.027344 3.035156 C 16.957031 3.035156 16.808594 3.039062 16.734375 3.039062 C 16.738281 2.941406 16.761719 2.453125 16.765625 2.367188 C 16.835938 2.367188 16.972656 2.363281 17.042969 2.363281 Z M 17.011719 3.820312 C 17.007812 3.933594 16.992188 4.609375 16.988281 4.734375 C 16.90625 4.734375 16.738281 4.734375 16.652344 4.738281 C 16.660156 4.609375 16.691406 3.933594 16.695312 3.824219 C 16.773438 3.824219 16.929688 3.820312 17.011719 3.820312 "/>
<path style=" stroke:none;fill-rule:evenodd;fill:rgb(100%,100%,100%);fill-opacity:1;" d="M 14.558594 1.945312 C 14.425781 1.96875 14.289062 1.992188 14.15625 2.019531 C 13.671875 2.117188 13.339844 2.359375 13.222656 2.695312 C 13.160156 2.867188 13.101562 3.046875 13.035156 3.230469 C 12.96875 3.417969 12.902344 3.613281 12.832031 3.816406 C 12.761719 4.023438 12.6875 4.238281 12.609375 4.457031 C 12.527344 4.6875 12.445312 4.921875 12.363281 5.167969 C 12.535156 5.363281 12.710938 5.570312 12.886719 5.792969 C 13.125 5.792969 13.363281 5.792969 13.597656 5.792969 C 13.835938 5.792969 14.070312 5.792969 14.308594 5.792969 C 14.601562 5.550781 14.890625 5.3125 15.167969 5.082031 C 15.210938 4.796875 15.25 4.523438 15.289062 4.257812 C 15.328125 4.003906 15.367188 3.761719 15.402344 3.527344 C 15.4375 3.300781 15.46875 3.082031 15.5 2.871094 C 15.53125 2.667969 15.5625 2.46875 15.589844 2.277344 C 15.609375 2.148438 15.578125 2.042969 15.5 1.972656 C 15.402344 1.878906 15.226562 1.847656 14.996094 1.878906 C 14.851562 1.898438 14.703125 1.921875 14.558594 1.945312 Z M 14.597656 2.53125 C 14.585938 2.582031 14.476562 3.050781 14.359375 3.5625 C 14.230469 4.113281 14.085938 4.714844 14.070312 4.785156 C 13.976562 4.789062 13.722656 4.800781 13.628906 4.804688 C 13.648438 4.734375 13.804688 4.144531 13.949219 3.601562 C 14.082031 3.097656 14.207031 2.636719 14.21875 2.585938 C 14.296875 2.574219 14.519531 2.542969 14.597656 2.53125 "/>
<path style=" stroke:none;fill-rule:evenodd;fill:rgb(100%,100%,100%);fill-opacity:1;" d="M 12.425781 2.4375 C 12.085938 2.539062 11.734375 2.652344 11.371094 2.773438 C 11.269531 2.976562 11.160156 3.191406 11.050781 3.410156 C 10.9375 3.636719 10.820312 3.871094 10.695312 4.117188 C 10.570312 4.367188 10.4375 4.632812 10.300781 4.90625 C 10.15625 5.1875 10.007812 5.484375 9.851562 5.792969 C 10.21875 5.792969 10.582031 5.792969 10.949219 5.792969 C 11.3125 5.792969 11.679688 5.792969 12.042969 5.792969 C 12.15625 5.480469 12.261719 5.179688 12.363281 4.890625 C 12.363281 4.890625 11.554688 4.949219 11.425781 4.957031 C 11.441406 4.925781 11.527344 4.722656 11.644531 4.441406 C 11.757812 4.171875 11.898438 3.839844 12.027344 3.527344 C 12.152344 3.226562 12.273438 2.945312 12.359375 2.742188 C 12.441406 2.546875 12.492188 2.417969 12.492188 2.417969 C 12.472656 2.425781 12.449219 2.433594 12.425781 2.4375 "/>
<path style=" stroke:none;fill-rule:evenodd;fill:rgb(100%,100%,100%);fill-opacity:1;" d="M 22.867188 2.734375 C 22.597656 2.644531 22.328125 2.558594 22.070312 2.484375 C 21.8125 2.40625 21.5625 2.335938 21.316406 2.269531 C 20.816406 2.148438 20.664062 2.324219 20.730469 2.550781 L 21.003906 3.492188 C 21.046875 3.632812 21.140625 3.765625 21.277344 3.875 C 21.46875 4.03125 21.730469 4.132812 22.027344 4.167969 C 22.027344 4.167969 22.527344 4.234375 22.640625 4.25 C 22.679688 4.34375 22.882812 4.859375 22.921875 4.957031 C 22.859375 4.953125 22.488281 4.925781 22.136719 4.902344 C 21.785156 4.878906 21.453125 4.859375 21.453125 4.859375 C 21.539062 5.15625 21.632812 5.46875 21.730469 5.792969 C 22.0625 5.792969 22.398438 5.792969 22.734375 5.792969 C 23.070312 5.792969 23.40625 5.792969 23.742188 5.792969 C 23.90625 5.609375 24.070312 5.445312 24.238281 5.292969 C 24.066406 4.933594 23.90625 4.59375 23.75 4.269531 C 23.683594 4.128906 23.578125 4.011719 23.429688 3.910156 C 23.242188 3.785156 22.996094 3.6875 22.65625 3.613281 C 22.65625 3.613281 22.148438 3.511719 22.039062 3.488281 C 22.007812 3.40625 21.851562 2.988281 21.824219 2.914062 C 21.882812 2.929688 22.214844 3.007812 22.535156 3.09375 C 22.863281 3.179688 23.179688 3.269531 23.179688 3.269531 C 23.097656 3.09375 23.019531 2.925781 22.941406 2.757812 C 22.914062 2.75 22.890625 2.742188 22.867188 2.734375 "/>
<path style=" stroke:none;fill-rule:evenodd;fill:rgb(13.72549%,12.156863%,12.54902%);fill-opacity:1;" d="M 17.144531 1.824219 C 17.375 1.824219 17.578125 1.898438 17.71875 2.027344 C 17.816406 2.121094 17.878906 2.238281 17.882812 2.355469 C 17.882812 2.355469 17.886719 2.359375 17.886719 2.359375 C 17.886719 2.414062 17.894531 2.855469 17.894531 2.859375 C 17.898438 2.976562 17.597656 3.183594 17.390625 3.292969 C 17.339844 3.320312 17.285156 3.347656 17.234375 3.371094 C 17.292969 3.386719 17.347656 3.398438 17.40625 3.414062 C 17.628906 3.46875 17.945312 3.605469 17.953125 3.714844 C 17.953125 3.714844 18.019531 5.0625 18.023438 5.164062 C 17.953125 5.203125 17.277344 5.59375 17.25 5.609375 C 17.234375 5.609375 16.84375 5.609375 16.441406 5.609375 C 16.035156 5.609375 15.617188 5.609375 15.550781 5.609375 C 15.554688 5.582031 15.589844 5.296875 15.636719 4.898438 C 15.679688 4.519531 15.738281 4.050781 15.792969 3.597656 C 15.84375 3.179688 15.890625 2.777344 15.925781 2.464844 C 15.960938 2.171875 15.988281 1.949219 16 1.867188 C 16.050781 1.863281 16.335938 1.847656 16.609375 1.835938 C 16.882812 1.828125 17.144531 1.824219 17.144531 1.824219 Z M 17.101562 2.253906 C 16.953125 2.253906 16.804688 2.257812 16.65625 2.261719 C 16.640625 2.546875 16.621094 2.847656 16.605469 3.167969 C 16.785156 3.164062 16.96875 3.160156 17.148438 3.160156 C 17.152344 2.839844 17.15625 2.539062 17.160156 2.253906 C 17.140625 2.253906 17.121094 2.253906 17.101562 2.253906 Z M 17.078125 3.679688 C 16.910156 3.683594 16.742188 3.683594 16.574219 3.6875 C 16.550781 4.066406 16.53125 4.46875 16.503906 4.898438 C 16.710938 4.898438 16.917969 4.898438 17.125 4.898438 C 17.132812 4.46875 17.136719 4.0625 17.140625 3.679688 C 17.121094 3.679688 17.097656 3.679688 17.078125 3.679688 "/>
<path style=" stroke:none;fill-rule:evenodd;fill:rgb(13.72549%,12.156863%,12.54902%);fill-opacity:1;" d="M 18.304688 2.246094 C 18.28125 2 18.476562 1.875 18.820312 1.910156 C 19.09375 1.9375 19.371094 1.972656 19.648438 2.015625 C 19.867188 2.050781 20.042969 2.121094 20.167969 2.222656 C 20.273438 2.3125 20.34375 2.421875 20.378906 2.554688 C 20.378906 2.554688 20.515625 3.082031 20.671875 3.664062 C 20.839844 4.304688 21.027344 5.023438 21.035156 5.058594 C 21 5.097656 20.570312 5.585938 20.542969 5.621094 C 20.492188 5.621094 19.292969 5.613281 19.242188 5.613281 C 19.203125 5.574219 18.59375 5.039062 18.542969 4.992188 C 18.542969 4.972656 18.523438 4.753906 18.496094 4.449219 C 18.46875 4.15625 18.4375 3.792969 18.410156 3.449219 C 18.351562 2.8125 18.304688 2.246094 18.304688 2.246094 Z M 19.566406 2.40625 C 19.382812 2.382812 19.203125 2.363281 19.023438 2.34375 C 19.078125 2.703125 19.132812 3.089844 19.195312 3.496094 C 19.261719 3.9375 19.332031 4.40625 19.40625 4.910156 C 19.648438 4.917969 19.890625 4.925781 20.132812 4.933594 C 20.03125 4.4375 19.941406 3.976562 19.855469 3.546875 C 19.773438 3.144531 19.699219 2.769531 19.625 2.414062 C 19.605469 2.410156 19.585938 2.40625 19.566406 2.40625 "/>
<path style=" stroke:none;fill-rule:evenodd;fill:rgb(13.72549%,12.156863%,12.54902%);fill-opacity:1;" d="M 13.347656 2.671875 C 13.445312 2.382812 13.710938 2.199219 14.128906 2.113281 C 14.414062 2.0625 14.699219 2.015625 14.976562 1.976562 C 15.179688 1.949219 15.328125 1.976562 15.410156 2.050781 C 15.46875 2.105469 15.492188 2.183594 15.476562 2.285156 C 15.476562 2.285156 15.394531 2.796875 15.296875 3.390625 C 15.246094 3.710938 15.191406 4.054688 15.140625 4.351562 C 15.089844 4.664062 15.050781 4.914062 15.035156 5.003906 C 14.984375 5.050781 14.332031 5.582031 14.289062 5.617188 C 14.242188 5.617188 13.039062 5.625 12.988281 5.625 C 12.960938 5.59375 12.5625 5.128906 12.53125 5.09375 C 12.542969 5.058594 12.773438 4.367188 12.984375 3.75 C 13.175781 3.183594 13.347656 2.671875 13.347656 2.671875 Z M 14.683594 2.417969 C 14.496094 2.445312 14.3125 2.472656 14.125 2.5 C 14.027344 2.851562 13.925781 3.222656 13.816406 3.613281 C 13.703125 4.035156 13.578125 4.480469 13.445312 4.960938 C 13.691406 4.953125 13.933594 4.941406 14.175781 4.933594 C 14.289062 4.4375 14.390625 3.980469 14.488281 3.546875 C 14.578125 3.144531 14.664062 2.765625 14.742188 2.410156 C 14.722656 2.414062 14.703125 2.417969 14.683594 2.417969 "/>
<path style=" stroke:none;fill-rule:evenodd;fill:rgb(13.72549%,12.156863%,12.54902%);fill-opacity:1;" d="M 12.324219 2.546875 C 12.316406 2.566406 12.253906 2.710938 12.164062 2.921875 C 12.070312 3.136719 11.941406 3.429688 11.8125 3.734375 C 11.675781 4.054688 11.53125 4.386719 11.421875 4.644531 C 11.304688 4.914062 11.226562 5.097656 11.226562 5.097656 C 11.226562 5.097656 12.042969 5.046875 12.167969 5.039062 C 12.132812 5.140625 11.988281 5.527344 11.949219 5.636719 C 11.882812 5.636719 11.449219 5.644531 11.007812 5.648438 C 10.570312 5.65625 10.132812 5.664062 10.066406 5.664062 C 10.082031 5.632812 10.191406 5.410156 10.34375 5.101562 C 10.488281 4.804688 10.671875 4.433594 10.84375 4.085938 C 11.007812 3.753906 11.164062 3.433594 11.277344 3.203125 C 11.390625 2.976562 11.464844 2.824219 11.472656 2.808594 C 11.585938 2.769531 12.214844 2.578125 12.324219 2.546875 "/>
<path style=" stroke:none;fill-rule:evenodd;fill:rgb(13.72549%,12.156863%,12.54902%);fill-opacity:1;" d="M 21.34375 3.800781 C 21.242188 3.71875 21.171875 3.621094 21.136719 3.515625 C 21.136719 3.515625 20.855469 2.578125 20.855469 2.578125 C 20.804688 2.410156 20.902344 2.253906 21.347656 2.363281 C 21.347656 2.363281 21.675781 2.445312 22.027344 2.546875 C 22.386719 2.652344 22.769531 2.773438 22.835938 2.792969 C 22.863281 2.855469 22.96875 3.078125 22.996094 3.140625 C 22.933594 3.121094 22.585938 3.023438 22.265625 2.941406 C 21.953125 2.859375 21.65625 2.785156 21.65625 2.785156 C 21.75 3.039062 21.84375 3.300781 21.941406 3.574219 C 22.191406 3.617188 22.445312 3.667969 22.699219 3.714844 C 22.996094 3.777344 23.210938 3.859375 23.359375 3.960938 C 23.46875 4.035156 23.546875 4.125 23.601562 4.238281 C 23.601562 4.238281 23.984375 5.058594 24.0625 5.226562 C 24.03125 5.253906 23.652344 5.628906 23.628906 5.65625 C 23.601562 5.652344 23.1875 5.648438 22.761719 5.644531 C 22.332031 5.636719 21.898438 5.632812 21.828125 5.632812 C 21.792969 5.515625 21.671875 5.117188 21.640625 5.011719 C 21.703125 5.011719 22.070312 5.03125 22.425781 5.054688 C 22.78125 5.074219 23.121094 5.097656 23.121094 5.097656 C 22.988281 4.769531 22.859375 4.457031 22.738281 4.15625 C 22.484375 4.117188 22.234375 4.082031 21.984375 4.046875 C 21.730469 4.015625 21.5 3.925781 21.34375 3.800781 "/>
<path style=" stroke:none;fill-rule:evenodd;fill:rgb(13.72549%,12.156863%,12.54902%);fill-opacity:1;" d="M 18.667969 23.296875 L 18.242188 23.296875 L 18.242188 23.382812 L 18.40625 23.382812 L 18.40625 23.898438 L 18.503906 23.898438 L 18.503906 23.382812 L 18.667969 23.382812 Z M 18.910156 23.296875 L 18.765625 23.296875 L 18.765625 23.898438 L 18.859375 23.898438 L 18.859375 23.410156 L 18.863281 23.410156 L 19.03125 23.898438 L 19.097656 23.898438 L 19.265625 23.410156 L 19.269531 23.410156 L 19.269531 23.898438 L 19.363281 23.898438 L 19.363281 23.296875 L 19.21875 23.296875 L 19.066406 23.738281 L 18.910156 23.296875 "/>
</g>
</svg>
