<?xml version="1.0" encoding="UTF-8"?>
<svg xmlns="http://www.w3.org/2000/svg" xmlns:xlink="http://www.w3.org/1999/xlink" width="35pt" height="25pt" viewBox="0 0 35 25" version="1.1">
<defs>
<clipPath id="clip1">
  <path d="M 4.75 0 L 29.097656 0 L 29.097656 25 L 4.75 25 Z M 4.75 0 "/>
</clipPath>
</defs>
<g id="surface1">
<g clip-path="url(#clip1)" clip-rule="nonzero">
<path style=" stroke:none;fill-rule:nonzero;fill:rgb(100%,100%,100%);fill-opacity:1;" d="M 22.609375 15.816406 C 22.773438 15.355469 22.886719 14.765625 22.929688 14.214844 L 23.925781 16.535156 L 26.964844 19.304688 C 26.964844 19.304688 33.289062 9.9375 24.15625 2.507812 C 17.96875 -2.527344 6.996094 0.316406 4.75 8.351562 L 10.148438 8.757812 L 10.304688 9.097656 L 11.433594 9.546875 C 8.089844 13.972656 7.023438 19.40625 7.023438 19.40625 L 9.75 16.503906 L 10.492188 15.082031 L 7.636719 25 L 18.007812 19.054688 C 18.042969 19.039062 19.320312 18.386719 20.957031 19.304688 L 20.972656 19.3125 L 27.960938 22.222656 L 22.582031 16.304688 C 22.609375 16.066406 22.605469 15.875 22.609375 15.816406 M 26.71875 18.347656 L 24.199219 15.75 L 27.898438 15.441406 C 27.40625 17.277344 26.71875 18.347656 26.71875 18.347656 M 27.996094 15.023438 L 24.828125 13.265625 L 28.277344 11.898438 C 28.339844 13.796875 27.996094 15.023438 27.996094 15.023438 M 28.238281 11.390625 L 24.675781 10.742188 L 27.503906 8.339844 C 28.171875 10.117188 28.238281 11.390625 28.238281 11.390625 M 27.386719 8.023438 L 23.785156 8.402344 L 25.828125 5.304688 C 26.96875 6.824219 27.386719 8.023438 27.386719 8.023438 M 25.605469 5.015625 L 22.273438 6.433594 L 23.316406 2.871094 C 24.851562 3.988281 25.605469 5.015625 25.605469 5.015625 M 23.015625 2.652344 L 20.265625 5.011719 L 20.183594 1.300781 C 21.984375 1.902344 23.015625 2.652344 23.015625 2.652344 M 19.976562 1.226562 L 18.007812 4.265625 L 16.878906 0.730469 C 18.777344 0.800781 19.976562 1.226562 19.976562 1.226562 M 16.484375 0.753906 L 15.464844 4.230469 L 13.375 1.164062 C 15.214844 0.6875 16.484375 0.753906 16.484375 0.753906 M 13.101562 1.277344 L 13.160156 4.894531 L 10.253906 2.589844 C 11.867188 1.589844 13.101562 1.277344 13.101562 1.277344 M 10.023438 2.753906 L 11.105469 6.210938 L 7.664062 4.820312 C 8.929688 3.402344 10.023438 2.753906 10.023438 2.753906 M 5.757812 7.9375 C 6.523438 6.199219 7.367188 5.246094 7.367188 5.246094 L 9.457031 8.199219 Z M 26.242188 21.046875 L 21.203125 18.6875 C 19.285156 17.609375 17.75 18.445312 17.75 18.445312 L 8.476562 23.914062 L 11.1875 14.5 C 14.816406 14.257812 15.796875 13.03125 15.796875 13.03125 L 12.078125 13.03125 C 10.347656 13.554688 9.3125 16.230469 9.3125 16.230469 L 8.085938 17.535156 C 9.101562 13.972656 11.425781 10.386719 11.425781 10.386719 C 11.679688 10.015625 11.992188 9.660156 12.320312 9.351562 C 12.320312 9.351562 11.558594 9.050781 11.148438 8.890625 C 11.039062 8.84375 10.84375 8.773438 10.679688 8.703125 L 9.75 6.691406 L 11.796875 7.441406 C 11.890625 7.359375 11.988281 7.273438 12.085938 7.195312 L 11.695312 4.984375 L 13.492188 6.292969 C 13.605469 6.238281 13.71875 6.183594 13.835938 6.136719 L 14.070312 3.867188 L 15.457031 5.648438 C 15.597656 5.625 15.734375 5.605469 15.875 5.585938 L 16.769531 3.441406 L 17.601562 5.582031 C 17.726562 5.597656 17.855469 5.613281 17.980469 5.632812 L 19.476562 3.8125 L 19.660156 6.121094 C 19.738281 6.152344 19.816406 6.1875 19.890625 6.222656 L 21.835938 4.863281 L 21.382812 7.140625 C 21.476562 7.21875 21.570312 7.296875 21.664062 7.378906 L 23.925781 6.632812 L 22.835938 8.683594 C 22.902344 8.777344 22.96875 8.875 23.03125 8.972656 L 25.402344 8.898438 L 23.789062 10.546875 C 23.855469 10.742188 23.914062 10.9375 23.964844 11.136719 L 26.21875 11.820312 L 24.191406 12.855469 C 24.191406 12.890625 24.191406 12.925781 24.191406 12.960938 C 24.191406 13.144531 24.183594 13.328125 24.171875 13.507812 L 26.0625 14.847656 L 23.863281 15.148438 L 23.554688 14.394531 L 23.152344 13.417969 C 23.152344 10.027344 20.402344 7.277344 17.007812 7.277344 C 15.359375 7.277344 13.859375 7.929688 12.753906 8.992188 C 13.769531 8.21875 15.035156 7.757812 16.410156 7.757812 C 19.742188 7.757812 22.445312 10.457031 22.445312 13.789062 C 22.445312 14.421875 22.300781 15.210938 22.113281 15.71875 L 22.015625 16.617188 Z M 26.242188 21.046875 "/>
</g>
<path style=" stroke:none;fill-rule:nonzero;fill:rgb(100%,83.529412%,12.156863%);fill-opacity:1;" d="M 13.660156 12.292969 L 15.757812 12.292969 C 15.214844 11.523438 14.320312 9.714844 17.199219 8.953125 C 16.886719 8.910156 16.683594 8.910156 16.683594 8.910156 C 12.515625 8.910156 11.429688 12.535156 11.429688 12.535156 C 11.738281 12.210938 13.660156 12.292969 13.660156 12.292969 "/>
<path style=" stroke:none;fill-rule:nonzero;fill:rgb(100%,83.529412%,12.156863%);fill-opacity:1;" d="M 16.441406 13.554688 C 16.441406 13.554688 16.441406 13.554688 16.445312 13.550781 C 16.28125 13.6875 16.105469 13.8125 15.925781 13.929688 C 15.628906 14.871094 14.574219 17.289062 10.972656 20.902344 L 17.789062 17.183594 C 18.222656 16.988281 18.621094 16.882812 18.976562 16.839844 C 19.003906 16.835938 19.015625 16.832031 19.027344 16.832031 C 18.183594 16.195312 17.238281 15.179688 16.441406 13.554688 "/>
<path style=" stroke:none;fill-rule:nonzero;fill:rgb(99.607843%,74.901961%,34.117647%);fill-opacity:1;" d="M 23.964844 11.136719 C 24.105469 11.6875 24.179688 12.261719 24.191406 12.855469 L 26.214844 11.820312 L 23.964844 11.136719 "/>
<path style=" stroke:none;fill-rule:nonzero;fill:rgb(99.607843%,74.901961%,34.117647%);fill-opacity:1;" d="M 23.03125 8.972656 C 23.34375 9.460938 23.597656 9.988281 23.789062 10.546875 L 25.402344 8.898438 L 23.03125 8.972656 "/>
<path style=" stroke:none;fill-rule:nonzero;fill:rgb(99.607843%,74.901961%,34.117647%);fill-opacity:1;" d="M 21.664062 7.378906 C 22.101562 7.765625 22.496094 8.203125 22.835938 8.683594 L 23.925781 6.632812 L 21.664062 7.378906 "/>
<path style=" stroke:none;fill-rule:nonzero;fill:rgb(99.607843%,74.901961%,34.117647%);fill-opacity:1;" d="M 21.835938 4.863281 L 19.890625 6.222656 C 20.425781 6.472656 20.925781 6.78125 21.382812 7.140625 L 21.835938 4.863281 "/>
<path style=" stroke:none;fill-rule:nonzero;fill:rgb(99.607843%,74.901961%,34.117647%);fill-opacity:1;" d="M 19.476562 3.8125 L 17.980469 5.632812 C 18.566406 5.730469 19.128906 5.894531 19.660156 6.121094 L 19.476562 3.8125 "/>
<path style=" stroke:none;fill-rule:nonzero;fill:rgb(99.607843%,74.901961%,34.117647%);fill-opacity:1;" d="M 17.601562 5.582031 L 16.769531 3.441406 L 15.875 5.585938 C 16.167969 5.550781 16.464844 5.535156 16.765625 5.535156 C 17.046875 5.535156 17.328125 5.550781 17.601562 5.582031 "/>
<path style=" stroke:none;fill-rule:nonzero;fill:rgb(99.607843%,74.901961%,34.117647%);fill-opacity:1;" d="M 15.457031 5.648438 L 14.070312 3.871094 L 13.835938 6.136719 C 14.351562 5.914062 14.894531 5.75 15.457031 5.648438 "/>
<path style=" stroke:none;fill-rule:nonzero;fill:rgb(99.607843%,74.901961%,34.117647%);fill-opacity:1;" d="M 11.796875 7.441406 L 9.75 6.691406 L 10.679688 8.703125 C 11.003906 8.242188 11.378906 7.820312 11.796875 7.441406 "/>
<path style=" stroke:none;fill-rule:nonzero;fill:rgb(99.607843%,74.901961%,34.117647%);fill-opacity:1;" d="M 13.492188 6.292969 L 11.695312 4.984375 L 12.085938 7.195312 C 12.519531 6.84375 12.988281 6.542969 13.492188 6.292969 "/>
<path style=" stroke:none;fill-rule:nonzero;fill:rgb(99.607843%,74.901961%,34.117647%);fill-opacity:1;" d="M 23.863281 15.148438 L 26.058594 14.847656 L 24.171875 13.507812 C 24.128906 14.074219 24.023438 14.625 23.863281 15.148438 "/>
<path style=" stroke:none;fill-rule:nonzero;fill:rgb(99.607843%,74.901961%,34.117647%);fill-opacity:1;" d="M 10.925781 20.929688 L 10.972656 20.902344 C 14.574219 17.289062 15.628906 14.871094 15.925781 13.925781 C 14.285156 14.980469 12.164062 15.234375 12.164062 15.234375 L 10.925781 20.929688 "/>
<path style=" stroke:none;fill-rule:nonzero;fill:rgb(99.607843%,74.901961%,34.117647%);fill-opacity:1;" d="M 19.503906 13.90625 L 20.761719 14.097656 C 21.246094 9.9375 18.402344 9.113281 17.199219 8.953125 C 14.320312 9.714844 15.214844 11.523438 15.757812 12.292969 L 17.472656 12.292969 C 17.230469 12.789062 16.867188 13.207031 16.441406 13.554688 C 17.238281 15.179688 18.183594 16.195312 19.027344 16.832031 C 20.226562 16.703125 20.949219 17.246094 20.949219 17.246094 L 19.929688 15.214844 C 20.574219 15.480469 22.015625 16.617188 22.015625 16.617188 L 22.109375 15.71875 C 20.472656 14.394531 19.132812 14.125 19.132812 14.125 C 19.230469 13.894531 19.503906 13.90625 19.503906 13.90625 "/>
<path style=" stroke:none;fill-rule:nonzero;fill:rgb(30.196078%,56.078431%,80%);fill-opacity:1;" d="M 23.964844 11.136719 C 23.914062 10.9375 23.855469 10.742188 23.789062 10.546875 C 23.597656 9.988281 23.34375 9.460938 23.03125 8.972656 C 22.96875 8.875 22.902344 8.777344 22.835938 8.683594 C 22.5 8.203125 22.101562 7.765625 21.664062 7.378906 C 21.570312 7.296875 21.476562 7.21875 21.382812 7.144531 C 20.925781 6.78125 20.425781 6.472656 19.890625 6.222656 C 19.816406 6.1875 19.738281 6.152344 19.660156 6.121094 C 19.128906 5.894531 18.566406 5.730469 17.980469 5.632812 C 17.855469 5.613281 17.726562 5.597656 17.601562 5.582031 C 17.328125 5.550781 17.046875 5.535156 16.765625 5.535156 C 16.464844 5.535156 16.167969 5.550781 15.875 5.585938 C 15.734375 5.605469 15.597656 5.625 15.457031 5.648438 C 14.894531 5.75 14.351562 5.914062 13.835938 6.136719 C 13.71875 6.1875 13.605469 6.238281 13.492188 6.292969 C 12.988281 6.542969 12.519531 6.84375 12.085938 7.195312 C 11.988281 7.273438 11.890625 7.359375 11.796875 7.441406 C 11.378906 7.820312 11.003906 8.242188 10.679688 8.703125 C 10.84375 8.773438 11.039062 8.84375 11.148438 8.890625 C 12.410156 7.152344 14.457031 6.023438 16.765625 6.023438 C 20.597656 6.023438 23.703125 9.128906 23.703125 12.960938 C 23.703125 13.453125 23.648438 13.933594 23.550781 14.394531 L 23.863281 15.148438 C 24.023438 14.625 24.128906 14.074219 24.171875 13.507812 C 24.183594 13.328125 24.191406 13.144531 24.191406 12.960938 C 24.191406 12.925781 24.191406 12.890625 24.191406 12.855469 C 24.179688 12.261719 24.105469 11.6875 23.964844 11.136719 "/>
<path style=" stroke:none;fill-rule:nonzero;fill:rgb(30.196078%,56.078431%,80%);fill-opacity:1;" d="M 7.257812 6.910156 L 8.890625 7.785156 L 7.300781 5.652344 L 7.257812 6.910156 "/>
<path style=" stroke:none;fill-rule:nonzero;fill:rgb(30.196078%,56.078431%,80%);fill-opacity:1;" d="M 9.835938 3.121094 L 9.410156 4.304688 L 10.691406 5.636719 L 9.835938 3.121094 "/>
<path style=" stroke:none;fill-rule:nonzero;fill:rgb(30.196078%,56.078431%,80%);fill-opacity:1;" d="M 12.816406 1.574219 L 12.070312 2.589844 L 12.925781 4.230469 L 12.816406 1.574219 "/>
<path style=" stroke:none;fill-rule:nonzero;fill:rgb(30.196078%,56.078431%,80%);fill-opacity:1;" d="M 16.125 0.957031 L 15.109375 1.703125 L 15.4375 3.523438 L 16.125 0.957031 "/>
<path style=" stroke:none;fill-rule:nonzero;fill:rgb(30.196078%,56.078431%,80%);fill-opacity:1;" d="M 18.390625 1.746094 L 18.183594 3.585938 L 19.574219 1.316406 L 18.390625 1.746094 "/>
<path style=" stroke:none;fill-rule:nonzero;fill:rgb(30.196078%,56.078431%,80%);fill-opacity:1;" d="M 21.347656 2.699219 L 20.628906 4.40625 L 22.605469 2.625 L 21.347656 2.699219 "/>
<path style=" stroke:none;fill-rule:nonzero;fill:rgb(30.196078%,56.078431%,80%);fill-opacity:1;" d="M 24.003906 4.558594 L 22.804688 5.96875 L 25.222656 4.863281 L 24.003906 4.558594 "/>
<path style=" stroke:none;fill-rule:nonzero;fill:rgb(30.196078%,56.078431%,80%);fill-opacity:1;" d="M 25.988281 7.117188 L 24.429688 8.109375 L 27.066406 7.769531 L 25.988281 7.117188 "/>
<path style=" stroke:none;fill-rule:nonzero;fill:rgb(30.196078%,56.078431%,80%);fill-opacity:1;" d="M 28 11.054688 L 27.152344 10.125 L 25.375 10.644531 L 28 11.054688 "/>
<path style=" stroke:none;fill-rule:nonzero;fill:rgb(30.196078%,56.078431%,80%);fill-opacity:1;" d="M 25.519531 13.398438 L 27.878906 14.628906 L 27.371094 13.476562 L 25.519531 13.398438 "/>
<path style=" stroke:none;fill-rule:nonzero;fill:rgb(30.196078%,56.078431%,80%);fill-opacity:1;" d="M 24.824219 16.074219 L 26.722656 17.9375 L 26.570312 16.6875 L 24.824219 16.074219 "/>
<path style=" stroke:none;fill-rule:nonzero;fill:rgb(0%,37.647059%,66.27451%);fill-opacity:1;" d="M 19.929688 15.214844 L 20.949219 17.246094 C 20.949219 17.246094 20.226562 16.703125 19.027344 16.832031 C 19.015625 16.832031 19.003906 16.835938 18.976562 16.839844 C 18.621094 16.882812 18.222656 16.988281 17.785156 17.183594 L 10.972656 20.902344 L 10.925781 20.929688 L 12.164062 15.234375 C 12.164062 15.234375 14.285156 14.980469 15.925781 13.929688 C 16.105469 13.8125 16.277344 13.6875 16.445312 13.550781 C 16.441406 13.554688 16.441406 13.554688 16.441406 13.554688 C 16.867188 13.207031 17.230469 12.789062 17.476562 12.292969 L 13.660156 12.292969 C 13.660156 12.292969 11.738281 12.210938 11.429688 12.535156 C 11.429688 12.535156 12.511719 8.910156 16.683594 8.910156 C 16.683594 8.910156 16.886719 8.910156 17.199219 8.953125 C 18.402344 9.113281 21.246094 9.9375 20.765625 14.097656 L 19.503906 13.90625 C 19.503906 13.90625 19.230469 13.894531 19.132812 14.125 C 19.132812 14.125 20.472656 14.394531 22.109375 15.71875 C 22.300781 15.210938 22.445312 14.421875 22.445312 13.792969 C 22.445312 10.457031 19.742188 7.757812 16.410156 7.757812 C 15.035156 7.757812 13.769531 8.21875 12.753906 8.992188 C 13.859375 7.929688 15.355469 7.277344 17.007812 7.277344 C 20.398438 7.277344 23.148438 10.027344 23.148438 13.421875 L 23.550781 14.394531 C 23.648438 13.933594 23.699219 13.453125 23.699219 12.960938 C 23.699219 9.128906 20.597656 6.023438 16.765625 6.023438 C 14.457031 6.023438 12.410156 7.152344 11.148438 8.890625 C 11.558594 9.050781 12.320312 9.351562 12.320312 9.351562 C 11.992188 9.660156 11.679688 10.015625 11.425781 10.386719 C 11.425781 10.386719 9.101562 13.976562 8.085938 17.535156 L 9.3125 16.230469 C 9.3125 16.230469 10.347656 13.554688 12.078125 13.03125 L 15.792969 13.03125 C 15.792969 13.03125 14.816406 14.253906 11.1875 14.5 L 8.476562 23.914062 L 17.75 18.445312 C 17.75 18.445312 19.285156 17.609375 21.203125 18.6875 L 26.242188 21.046875 L 22.015625 16.617188 C 22.015625 16.617188 20.574219 15.480469 19.929688 15.214844 "/>
<path style=" stroke:none;fill-rule:nonzero;fill:rgb(0%,37.647059%,66.27451%);fill-opacity:1;" d="M 7.367188 5.246094 C 7.367188 5.246094 6.523438 6.199219 5.757812 7.9375 L 9.457031 8.199219 L 7.367188 5.246094 M 7.300781 5.652344 L 8.890625 7.785156 L 7.257812 6.910156 Z M 7.300781 5.652344 "/>
<path style=" stroke:none;fill-rule:nonzero;fill:rgb(0%,37.647059%,66.27451%);fill-opacity:1;" d="M 10.023438 2.753906 C 10.023438 2.753906 8.929688 3.402344 7.664062 4.820312 L 11.101562 6.210938 L 10.023438 2.753906 M 9.835938 3.121094 L 10.691406 5.636719 L 9.410156 4.304688 Z M 9.835938 3.121094 "/>
<path style=" stroke:none;fill-rule:nonzero;fill:rgb(0%,37.647059%,66.27451%);fill-opacity:1;" d="M 13.101562 1.277344 C 13.101562 1.277344 11.867188 1.589844 10.253906 2.589844 L 13.160156 4.894531 L 13.101562 1.277344 M 12.070312 2.589844 L 12.816406 1.574219 L 12.925781 4.230469 Z M 12.070312 2.589844 "/>
<path style=" stroke:none;fill-rule:nonzero;fill:rgb(0%,37.647059%,66.27451%);fill-opacity:1;" d="M 16.484375 0.753906 C 16.484375 0.753906 15.210938 0.6875 13.375 1.164062 L 15.464844 4.230469 L 16.484375 0.753906 M 15.109375 1.703125 L 16.125 0.957031 L 15.4375 3.527344 Z M 15.109375 1.703125 "/>
<path style=" stroke:none;fill-rule:nonzero;fill:rgb(0%,37.647059%,66.27451%);fill-opacity:1;" d="M 19.976562 1.226562 C 19.976562 1.226562 18.777344 0.800781 16.878906 0.730469 L 18.003906 4.265625 L 19.976562 1.226562 M 18.390625 1.746094 L 19.574219 1.316406 L 18.183594 3.585938 Z M 18.390625 1.746094 "/>
<path style=" stroke:none;fill-rule:nonzero;fill:rgb(0%,37.647059%,66.27451%);fill-opacity:1;" d="M 23.015625 2.652344 C 23.015625 2.652344 21.984375 1.902344 20.183594 1.300781 L 20.265625 5.011719 L 23.015625 2.652344 M 21.347656 2.699219 L 22.605469 2.625 L 20.628906 4.40625 Z M 21.347656 2.699219 "/>
<path style=" stroke:none;fill-rule:nonzero;fill:rgb(0%,37.647059%,66.27451%);fill-opacity:1;" d="M 25.605469 5.015625 C 25.605469 5.015625 24.851562 3.988281 23.316406 2.871094 L 22.273438 6.433594 L 25.605469 5.015625 M 24.003906 4.558594 L 25.222656 4.863281 L 22.804688 5.96875 Z M 24.003906 4.558594 "/>
<path style=" stroke:none;fill-rule:nonzero;fill:rgb(0%,37.647059%,66.27451%);fill-opacity:1;" d="M 27.386719 8.023438 C 27.386719 8.023438 26.96875 6.824219 25.828125 5.304688 L 23.785156 8.402344 L 27.386719 8.023438 M 25.988281 7.117188 L 27.066406 7.769531 L 24.429688 8.109375 Z M 25.988281 7.117188 "/>
<path style=" stroke:none;fill-rule:nonzero;fill:rgb(0%,37.647059%,66.27451%);fill-opacity:1;" d="M 28.238281 11.390625 C 28.238281 11.390625 28.171875 10.121094 27.503906 8.339844 L 24.675781 10.742188 L 28.238281 11.390625 M 28 11.054688 L 25.375 10.644531 L 27.152344 10.125 Z M 28 11.054688 "/>
<path style=" stroke:none;fill-rule:nonzero;fill:rgb(0%,37.647059%,66.27451%);fill-opacity:1;" d="M 28.277344 11.898438 L 24.828125 13.265625 L 27.996094 15.023438 C 27.996094 15.023438 28.339844 13.796875 28.277344 11.898438 M 25.519531 13.398438 L 27.371094 13.476562 L 27.878906 14.628906 Z M 25.519531 13.398438 "/>
<path style=" stroke:none;fill-rule:nonzero;fill:rgb(0%,37.647059%,66.27451%);fill-opacity:1;" d="M 26.71875 18.347656 C 26.71875 18.347656 27.40625 17.277344 27.898438 15.441406 L 24.199219 15.75 L 26.71875 18.347656 M 26.722656 17.9375 L 24.824219 16.074219 L 26.570312 16.6875 Z M 26.722656 17.9375 "/>
<path style=" stroke:none;fill-rule:nonzero;fill:rgb(0%,37.647059%,66.27451%);fill-opacity:1;" d="M 27.628906 20.207031 L 27.492188 19.863281 L 27.378906 19.863281 L 27.378906 20.316406 L 27.449219 20.316406 L 27.449219 19.933594 L 27.453125 19.933594 L 27.601562 20.316406 L 27.652344 20.316406 L 27.800781 19.933594 L 27.804688 19.933594 L 27.804688 20.316406 L 27.875 20.316406 L 27.875 19.863281 L 27.761719 19.863281 L 27.628906 20.207031 "/>
<path style=" stroke:none;fill-rule:nonzero;fill:rgb(0%,37.647059%,66.27451%);fill-opacity:1;" d="M 26.929688 19.933594 L 27.070312 19.933594 L 27.070312 20.3125 L 27.144531 20.3125 L 27.144531 19.933594 L 27.285156 19.933594 L 27.285156 19.863281 L 26.929688 19.863281 L 26.929688 19.933594 "/>
</g>
</svg>
