<?xml version="1.0" encoding="UTF-8"?>
<svg xmlns="http://www.w3.org/2000/svg" xmlns:xlink="http://www.w3.org/1999/xlink" width="35pt" height="25pt" viewBox="0 0 35 25" version="1.1">
<g id="surface1">
<path style=" stroke:none;fill-rule:evenodd;fill:rgb(100%,100%,100%);fill-opacity:1;" d="M 5.25 25 L 30.25 25 L 30.25 0 L 5.25 0 Z M 5.25 25 "/>
<path style=" stroke:none;fill-rule:evenodd;fill:rgb(79.215686%,70.980392%,41.176471%);fill-opacity:1;" d="M 19.152344 13.828125 L 18.964844 11.542969 C 18.964844 11.542969 15.921875 11.539062 15.769531 11.539062 L 15.769531 10.496094 L 13.039062 10.496094 L 13.296875 13.511719 C 13.296875 13.511719 16.839844 13.515625 16.992188 13.515625 C 16.992188 13.570312 16.992188 13.992188 16.992188 14.472656 C 16.992188 14.472656 18.492188 14.433594 19.152344 13.828125 "/>
<path style=" stroke:none;fill-rule:evenodd;fill:rgb(79.215686%,70.980392%,41.176471%);fill-opacity:1;" d="M 16.546875 15.976562 C 17.992188 15.976562 19.351562 15.734375 20.371094 15.296875 C 21.507812 14.808594 22.234375 14.066406 22.472656 13.15625 C 22.488281 13.15625 22.992188 13.15625 23.011719 13.15625 C 23.011719 13.171875 23.019531 13.226562 23.019531 13.226562 L 23.96875 13.65625 C 23.96875 13.65625 24.039062 13.558594 24.058594 13.53125 C 24.066406 13.566406 24.113281 13.753906 24.113281 13.753906 L 25.253906 13.753906 L 25.253906 13.75 C 25.261719 13.738281 25.320312 13.65625 25.339844 13.621094 C 25.359375 13.648438 25.417969 13.722656 25.46875 13.792969 L 25.472656 13.796875 L 26.746094 13.492188 L 26.75 13.488281 C 26.769531 13.457031 26.828125 13.359375 26.84375 13.316406 C 26.875 13.359375 26.96875 13.441406 26.972656 13.449219 L 26.976562 13.453125 L 29.148438 12.460938 L 26.976562 11.480469 L 26.972656 11.484375 C 26.96875 11.488281 26.871094 11.554688 26.832031 11.59375 C 26.820312 11.550781 26.78125 11.457031 26.773438 11.433594 L 26.769531 11.429688 L 25.40625 11.105469 C 25.40625 11.105469 25.324219 11.273438 25.316406 11.296875 C 25.285156 11.265625 25.199219 11.1875 25.167969 11.160156 C 25.160156 11.15625 24.101562 11.164062 24.101562 11.164062 L 24.09375 11.164062 C 24.09375 11.164062 24.042969 11.351562 24.035156 11.386719 C 24.015625 11.359375 23.945312 11.261719 23.945312 11.261719 L 22.96875 11.703125 C 22.96875 11.703125 22.972656 11.753906 22.972656 11.769531 C 22.953125 11.769531 22.476562 11.769531 22.464844 11.769531 C 21.921875 9.820312 19.101562 8.945312 16.546875 8.945312 L 9.519531 8.945312 C 9.519531 8.945312 10.292969 11.800781 10.300781 11.824219 C 10.273438 11.824219 9.789062 11.816406 9.789062 11.816406 L 9.5625 11.808594 C 9.5 11.804688 9.328125 11.800781 9.160156 11.921875 C 9.15625 11.917969 9.136719 11.910156 9.136719 11.910156 C 8.917969 11.757812 8.523438 11.765625 8.296875 11.875 C 8.203125 11.902344 8.148438 11.886719 8.0625 11.867188 C 8.003906 11.851562 7.933594 11.832031 7.847656 11.832031 C 7.847656 11.832031 7.851562 11.832031 7.851562 11.835938 C 7.839844 11.832031 7.792969 11.828125 7.636719 11.824219 C 7.476562 11.820312 7.300781 11.8125 7.179688 11.820312 C 7.171875 11.820312 7.148438 11.820312 7.0625 11.820312 C 6.789062 11.820312 6.601562 11.824219 6.480469 11.929688 C 6.261719 12.117188 6.386719 12.503906 6.402344 12.550781 C 6.535156 12.945312 6.726562 13.011719 6.828125 13.015625 L 6.839844 13.015625 C 6.839844 13.015625 6.851562 13.015625 6.851562 13.015625 C 7.050781 13.003906 7.621094 12.980469 7.835938 13.015625 C 7.941406 13.039062 8.066406 13.007812 8.175781 12.9375 C 8.316406 13.042969 8.507812 13.050781 8.527344 13.050781 C 8.527344 13.050781 9.457031 13.054688 9.855469 13.054688 C 9.855469 13.054688 10.25 13.054688 10.3125 13.054688 C 10.304688 13.078125 9.519531 15.976562 9.519531 15.976562 Z M 12.863281 12.460938 C 12.863281 12.460938 12.65625 10.679688 12.640625 10.566406 C 12.664062 10.566406 15.886719 10.5625 15.886719 10.5625 C 16.878906 10.539062 18.539062 10.5 19.300781 11.246094 C 19.605469 11.542969 19.75 11.9375 19.75 12.460938 C 19.75 14.242188 17.894531 14.488281 15.886719 14.488281 C 15.886719 14.488281 12.65625 14.488281 12.632812 14.488281 C 12.636719 14.46875 12.863281 12.460938 12.863281 12.460938 "/>
<path style=" stroke:none;fill-rule:evenodd;fill:rgb(13.72549%,12.156863%,12.54902%);fill-opacity:1;" d="M 23.046875 12.921875 L 23.222656 12.921875 L 23.238281 13.066406 L 23.886719 13.359375 L 24.03125 13.160156 C 24.089844 13.171875 24.152344 13.179688 24.214844 13.191406 L 24.296875 13.515625 L 25.128906 13.519531 L 25.238281 13.191406 C 25.285156 13.183594 25.335938 13.175781 25.386719 13.167969 L 25.5625 13.539062 L 26.644531 13.28125 L 26.632812 12.898438 C 26.679688 12.886719 26.726562 12.875 26.773438 12.863281 L 26.996094 13.183594 L 28.574219 12.460938 L 26.976562 11.734375 L 26.746094 12.054688 C 26.703125 12.042969 26.65625 12.03125 26.609375 12.019531 L 26.621094 11.636719 L 25.539062 11.378906 L 25.367188 11.75 C 25.316406 11.742188 25.265625 11.734375 25.214844 11.726562 L 25.105469 11.398438 L 24.277344 11.402344 L 24.191406 11.726562 C 24.128906 11.738281 24.066406 11.746094 24.007812 11.757812 L 23.867188 11.558594 L 23.214844 11.851562 L 23.222656 12.007812 L 22.980469 12.007812 C 22.925781 12 22.835938 12 22.746094 12.066406 C 22.625 12.144531 22.570312 12.089844 22.570312 12.089844 C 22.472656 11.996094 22.355469 12.003906 22.355469 12.003906 L 22.285156 12.007812 C 21.898438 10.023438 19.003906 9.183594 16.546875 9.183594 C 15.570312 9.183594 9.832031 9.183594 9.832031 9.183594 L 10.609375 12.058594 C 10.066406 12.066406 9.867188 12.050781 9.546875 12.046875 C 9.546875 12.046875 9.417969 12.023438 9.289062 12.117188 C 9.289062 12.117188 9.183594 12.21875 9.011719 12.113281 C 8.878906 12.007812 8.53125 12.007812 8.371094 12.097656 C 8.128906 12.175781 8.003906 12.070312 7.847656 12.070312 C 7.683594 12.066406 7.363281 12.046875 7.195312 12.058594 C 7.074219 12.066406 6.71875 12.035156 6.632812 12.109375 C 6.554688 12.175781 6.601562 12.394531 6.625 12.472656 C 6.730469 12.773438 6.835938 12.777344 6.835938 12.777344 C 6.835938 12.777344 7.597656 12.734375 7.878906 12.78125 C 7.878906 12.78125 7.96875 12.8125 8.082031 12.714844 C 8.125 12.679688 8.238281 12.671875 8.296875 12.734375 C 8.363281 12.808594 8.53125 12.8125 8.53125 12.8125 C 8.988281 12.820312 10.300781 12.8125 10.621094 12.816406 L 9.832031 15.742188 L 16.546875 15.742188 C 19.195312 15.742188 21.933594 14.917969 22.289062 12.917969 L 22.585938 12.917969 C 22.585938 12.917969 22.683594 12.925781 22.757812 12.871094 C 22.757812 12.871094 22.820312 12.804688 22.910156 12.875 C 22.910156 12.875 22.960938 12.933594 23.046875 12.921875 Z M 15.886719 10.324219 C 17.613281 10.285156 19.988281 10.300781 19.988281 12.460938 C 19.988281 14.625 17.527344 14.726562 15.886719 14.726562 C 15.59375 14.726562 12.367188 14.726562 12.367188 14.726562 L 12.625 12.460938 L 12.371094 10.328125 L 15.886719 10.324219 "/>
<path style=" stroke:none;fill-rule:evenodd;fill:rgb(74.901961%,12.54902%,20%);fill-opacity:1;" d="M 15.507812 10.5625 L 15.507812 11.800781 L 18.726562 11.800781 L 18.914062 13.980469 C 18.476562 14.238281 17.898438 14.371094 17.253906 14.433594 L 17.253906 13.253906 L 13.535156 13.253906 L 13.3125 10.566406 L 15.507812 10.5625 "/>
<path style=" stroke:none;fill-rule:evenodd;fill:rgb(79.215686%,70.980392%,41.176471%);fill-opacity:1;" d="M 14.53125 12.640625 C 14.53125 12.773438 14.402344 12.875 14.125 12.875 C 14.078125 12.875 14.027344 12.871094 13.980469 12.867188 L 13.753906 12.84375 L 13.878906 12.6875 L 14.003906 12.785156 C 14.03125 12.796875 14.066406 12.804688 14.105469 12.804688 C 14.1875 12.804688 14.265625 12.769531 14.265625 12.707031 C 14.265625 12.671875 14.242188 12.664062 14.214844 12.652344 L 13.949219 12.550781 C 13.847656 12.511719 13.773438 12.445312 13.773438 12.367188 C 13.773438 12.277344 13.871094 12.164062 14.136719 12.164062 C 14.1875 12.164062 14.242188 12.171875 14.285156 12.175781 L 14.507812 12.199219 L 14.378906 12.34375 L 14.265625 12.257812 C 14.246094 12.246094 14.21875 12.238281 14.179688 12.238281 C 14.125 12.238281 14.046875 12.253906 14.046875 12.3125 C 14.046875 12.332031 14.070312 12.363281 14.09375 12.371094 L 14.398438 12.488281 C 14.449219 12.507812 14.53125 12.550781 14.53125 12.640625 "/>
<path style=" stroke:none;fill-rule:evenodd;fill:rgb(79.215686%,70.980392%,41.176471%);fill-opacity:1;" d="M 15.253906 12.769531 L 15.394531 12.859375 L 14.820312 12.859375 L 14.964844 12.769531 L 14.964844 12.261719 L 14.824219 12.261719 L 14.652344 12.371094 L 14.652344 12.179688 L 15.566406 12.179688 L 15.566406 12.371094 L 15.394531 12.261719 L 15.253906 12.261719 L 15.253906 12.769531 "/>
<path style=" stroke:none;fill-rule:evenodd;fill:rgb(79.215686%,70.980392%,41.176471%);fill-opacity:1;" d="M 15.886719 12.597656 L 16.003906 12.390625 L 16.117188 12.597656 Z M 16.164062 12.679688 L 16.214844 12.773438 L 16.074219 12.859375 L 16.6875 12.859375 L 16.542969 12.769531 L 16.195312 12.179688 L 15.980469 12.179688 L 15.640625 12.769531 L 15.496094 12.859375 L 15.925781 12.859375 L 15.785156 12.773438 L 15.835938 12.679688 L 16.164062 12.679688 "/>
<path style=" stroke:none;fill-rule:evenodd;fill:rgb(79.215686%,70.980392%,41.176471%);fill-opacity:1;" d="M 17.199219 12.769531 L 17.339844 12.859375 L 16.765625 12.859375 L 16.910156 12.769531 L 16.910156 12.261719 L 16.769531 12.261719 L 16.597656 12.371094 L 16.597656 12.179688 L 17.511719 12.179688 L 17.511719 12.371094 L 17.339844 12.261719 L 17.199219 12.261719 L 17.199219 12.769531 "/>
<path style=" stroke:none;fill-rule:evenodd;fill:rgb(79.215686%,70.980392%,41.176471%);fill-opacity:1;" d="M 18.457031 12.859375 L 17.597656 12.859375 L 17.738281 12.769531 L 17.738281 12.265625 L 17.597656 12.179688 L 18.457031 12.179688 L 18.457031 12.371094 L 18.285156 12.261719 L 18.03125 12.261719 L 18.03125 12.453125 L 18.199219 12.453125 L 18.339844 12.367188 L 18.339844 12.625 L 18.199219 12.539062 L 18.03125 12.539062 L 18.03125 12.773438 L 18.285156 12.773438 L 18.457031 12.667969 L 18.457031 12.859375 "/>
<path style=" stroke:none;fill-rule:evenodd;fill:rgb(79.215686%,70.980392%,41.176471%);fill-opacity:1;" d="M 15.769531 9.023438 C 15.769531 8.875 15.769531 8.703125 15.769531 8.675781 C 15.898438 8.675781 16.765625 8.675781 16.894531 8.675781 L 16.894531 10.453125 L 16.113281 11.230469 L 18.933594 11.230469 L 19.507812 6.90625 L 12.75 6.90625 L 12.917969 9.023438 L 15.769531 9.023438 "/>
<path style=" stroke:none;fill-rule:evenodd;fill:rgb(74.901961%,12.54902%,20%);fill-opacity:1;" d="M 19.210938 7.167969 L 13.03125 7.167969 L 13.179688 8.949219 L 15.507812 8.949219 L 15.507812 8.414062 L 17.15625 8.414062 L 17.15625 10.566406 L 16.71875 10.96875 L 18.707031 10.96875 L 19.210938 7.167969 "/>
<path style=" stroke:none;fill-rule:evenodd;fill:rgb(79.215686%,70.980392%,41.176471%);fill-opacity:1;" d="M 16.992188 15.964844 C 16.992188 16.144531 16.992188 16.269531 16.992188 16.300781 C 16.855469 16.300781 15.46875 16.300781 15.328125 16.300781 L 15.328125 14.652344 L 16.523438 13.847656 L 13.308594 13.847656 L 12.734375 18.09375 L 19.523438 18.09375 L 19.316406 15.648438 L 16.992188 15.964844 "/>
<path style=" stroke:none;fill-rule:evenodd;fill:rgb(74.901961%,12.54902%,20%);fill-opacity:1;" d="M 15.066406 14.488281 L 15.613281 14.105469 L 13.535156 14.105469 L 13.03125 17.832031 L 19.238281 17.832031 L 19.058594 15.710938 C 18.476562 15.84375 17.863281 15.921875 17.253906 15.957031 L 17.253906 16.558594 L 15.070312 16.558594 L 15.066406 14.488281 "/>
</g>
</svg>
