<?xml version="1.0" encoding="UTF-8"?>
<svg xmlns="http://www.w3.org/2000/svg" xmlns:xlink="http://www.w3.org/1999/xlink" width="35pt" height="25pt" viewBox="0 0 35 25" version="1.1">
<g id="surface1">
<path style=" stroke:none;fill-rule:nonzero;fill:rgb(82.352941%,83.137255%,83.529412%);fill-opacity:1;" d="M 31.867188 4.152344 L 31.863281 3.9375 L 31.863281 3.636719 L 31.597656 3.492188 L 30.792969 3.050781 L 30.777344 3.042969 L 30.757812 3.035156 C 30.382812 2.863281 29.601562 2.453125 29.425781 2.355469 L 29.386719 2.335938 L 29.347656 2.320312 C 29.25 2.289062 29.148438 2.234375 29.039062 2.175781 C 28.878906 2.089844 28.699219 2 28.484375 1.9375 C 28.265625 1.824219 28.042969 1.742188 27.828125 1.667969 C 27.730469 1.632812 27.640625 1.601562 27.550781 1.566406 C 27.402344 1.5 27.253906 1.457031 27.125 1.417969 C 27.003906 1.386719 26.894531 1.355469 26.8125 1.3125 L 26.761719 1.296875 C 26.757812 1.296875 26.6875 1.269531 26.6875 1.269531 L 25.84375 1.035156 C 25.320312 0.882812 24.847656 0.75 24.285156 0.609375 C 24.261719 0.597656 24.117188 0.566406 24.074219 0.550781 L 23.875 0.507812 L 23.691406 0.472656 C 23.554688 0.449219 23.53125 0.445312 23.375 0.414062 L 23.269531 0.394531 L 23.1875 0.382812 C 23 0.363281 22.917969 0.347656 22.761719 0.316406 C 22.566406 0.277344 22.347656 0.242188 22.070312 0.226562 C 21.746094 0.183594 21.460938 0.148438 21.164062 0.125 C 20.960938 0.105469 20.765625 0.0898438 20.574219 0.0585938 L 20.550781 0.0546875 L 20.523438 0.0546875 C 20.523438 0.0546875 19.738281 0.015625 19.730469 0.015625 C 19.15625 -0.0078125 18.582031 0 18.023438 0.0117188 C 17.570312 0.015625 17.160156 0.0429688 16.707031 0.03125 L 16.503906 0.0351562 L 16.417969 0.0429688 L 16.34375 0.0429688 L 16.023438 0.0742188 C 14.417969 0.222656 13.058594 0.390625 11.65625 0.722656 L 11.601562 0.738281 L 11.558594 0.75 C 11.453125 0.785156 11.40625 0.792969 11.296875 0.828125 C 10.363281 1.042969 9.484375 1.386719 8.636719 1.722656 L 8.382812 1.820312 C 8.289062 1.847656 8.214844 1.886719 8.15625 1.917969 C 8.140625 1.925781 8.121094 1.9375 8.109375 1.941406 L 8.082031 1.949219 L 8.039062 1.964844 C 7.710938 2.089844 7.398438 2.246094 7.101562 2.394531 C 6.8125 2.542969 6.539062 2.679688 6.261719 2.785156 L 6.175781 2.820312 L 6.128906 2.859375 C 6.121094 2.863281 6.109375 2.867188 6.101562 2.871094 C 6.007812 2.90625 5.855469 2.964844 5.726562 3.121094 L 5.617188 3.253906 C 5.617188 3.257812 5.613281 3.429688 5.613281 3.429688 L 5.585938 4.265625 C 5.566406 4.964844 5.542969 5.6875 5.542969 6.363281 L 5.542969 7.246094 L 6.308594 6.808594 C 6.324219 6.796875 6.339844 6.789062 6.355469 6.78125 C 6.351562 7.132812 6.339844 7.492188 6.320312 7.828125 L 6.320312 7.859375 C 6.320312 8.398438 6.296875 9.003906 6.273438 9.59375 L 6.25 10.265625 C 6.25 10.257812 6.25 10.285156 6.25 10.285156 C 6.210938 11.078125 6.171875 11.953125 6.234375 12.777344 C 5.167969 13.726562 4.804688 15.058594 4.785156 15.144531 L 4.75 15.269531 L 4.785156 15.394531 C 4.816406 15.511719 5.578125 18.214844 8.097656 20.363281 C 8.078125 20.503906 8.066406 20.648438 8.066406 20.792969 C 8.066406 22.703125 9.9375 24.257812 12.234375 24.257812 C 12.710938 24.257812 13.171875 24.191406 13.613281 24.0625 C 13.808594 24.324219 14.164062 24.679688 14.722656 24.828125 C 15.140625 24.9375 15.800781 24.960938 16.574219 24.445312 C 16.988281 24.167969 17.433594 24.453125 17.484375 24.484375 C 17.511719 24.503906 17.539062 24.519531 17.570312 24.539062 C 18.21875 25.082031 18.914062 25.074219 19.8125 24.878906 C 20.242188 24.789062 21.691406 24.402344 22.3125 23.289062 C 22.316406 23.285156 22.316406 23.28125 22.320312 23.277344 C 23.277344 23.511719 24.226562 23.609375 25.148438 23.566406 C 27.269531 23.472656 28.894531 22.710938 29.722656 21.421875 C 30.375 20.410156 30.472656 19.144531 30.015625 17.835938 C 30.578125 16.992188 31.46875 15.628906 31.726562 13.847656 L 31.738281 13.75 L 31.714844 13.652344 C 31.695312 13.585938 31.382812 12.488281 29.75 11.742188 C 29.78125 11.597656 29.820312 11.425781 29.867188 11.226562 C 30.109375 10.152344 30.558594 8.171875 30.800781 7.191406 C 30.90625 7.253906 31.019531 7.3125 31.144531 7.359375 L 31.800781 7.601562 L 31.835938 6.902344 C 31.878906 6.03125 31.871094 5.035156 31.867188 4.152344 "/>
<path style=" stroke:none;fill-rule:nonzero;fill:rgb(21.568627%,20.784314%,20.784314%);fill-opacity:1;" d="M 31.308594 6.878906 C 31.355469 5.953125 31.34375 4.875 31.335938 3.941406 L 30.53125 3.503906 C 30.136719 3.324219 29.355469 2.910156 29.164062 2.808594 C 28.859375 2.707031 28.609375 2.496094 28.28125 2.414062 C 27.984375 2.257812 27.660156 2.167969 27.347656 2.046875 C 27.097656 1.921875 26.832031 1.886719 26.554688 1.765625 C 25.703125 1.535156 24.859375 1.28125 24 1.074219 C 23.949219 1.070312 23.9375 1.042969 23.890625 1.046875 C 23.855469 1.78125 23.851562 2.710938 23.835938 3.484375 C 23.835938 3.484375 24.289062 3.636719 24.441406 3.683594 C 24.628906 3.742188 24.644531 3.964844 24.667969 4.109375 C 24.714844 4.320312 24.738281 4.527344 24.808594 4.726562 C 24.886719 5.390625 25.03125 6.132812 25.113281 6.792969 C 25.136719 6.90625 25.183594 7.046875 25.125 7.15625 C 24.921875 7.121094 24.761719 7.003906 24.570312 6.949219 C 24.378906 6.882812 24.167969 6.796875 24 6.75 C 23.9375 7.5625 24.023438 8.46875 23.863281 9.25 C 23.792969 9.414062 23.828125 9.609375 23.722656 9.753906 C 23.417969 9.785156 23.1875 9.605469 22.890625 9.53125 C 22.820312 9.507812 22.734375 9.523438 22.683594 9.460938 C 22.664062 7.316406 22.757812 5.453125 22.761719 3.386719 L 22.792969 3.265625 C 23.097656 3.289062 23.398438 3.382812 23.695312 3.40625 C 23.742188 2.648438 23.71875 1.8125 23.765625 1.054688 L 23.761719 1.007812 C 23.53125 0.980469 23.363281 0.949219 23.1875 0.914062 C 23.078125 0.902344 22.417969 0.777344 22.007812 0.746094 C 21.542969 0.671875 20.984375 0.644531 20.480469 0.570312 L 19.695312 0.527344 C 18.671875 0.488281 17.640625 0.550781 16.621094 0.527344 L 16.582031 0.558594 L 16.570312 1.140625 C 16.574219 1.398438 16.5625 1.640625 16.527344 1.875 C 16.503906 1.882812 16.5 1.859375 16.484375 1.847656 C 16.425781 1.476562 16.222656 1.148438 16.125 0.777344 C 16.09375 0.71875 16.089844 0.644531 16.054688 0.585938 C 14.554688 0.726562 13.175781 0.886719 11.757812 1.222656 C 11.660156 1.265625 11.605469 1.261719 11.46875 1.308594 C 10.441406 1.535156 9.5 1.929688 8.539062 2.304688 C 8.417969 2.335938 8.328125 2.421875 8.203125 2.445312 C 7.597656 2.675781 7.035156 3.035156 6.429688 3.265625 C 6.328125 3.351562 6.183594 3.351562 6.109375 3.445312 C 6.085938 4.347656 6.039062 5.417969 6.039062 6.363281 C 6.28125 6.222656 6.53125 6.101562 6.773438 5.945312 L 6.855469 5.945312 C 6.855469 6.554688 6.855469 7.238281 6.816406 7.863281 C 6.816406 8.625 6.769531 9.546875 6.746094 10.28125 C 6.703125 11.167969 6.660156 12.117188 6.75 12.976562 C 5.613281 13.851562 5.242188 15.269531 5.242188 15.269531 C 5.242188 15.269531 6.007812 18.074219 8.621094 20.175781 C 8.566406 20.375 8.539062 20.582031 8.539062 20.792969 C 8.539062 22.4375 10.1875 23.769531 12.21875 23.769531 C 12.792969 23.769531 13.332031 23.664062 13.8125 23.476562 C 13.828125 23.5 13.839844 23.527344 13.851562 23.550781 L 13.863281 23.574219 C 13.9375 23.714844 14.234375 24.195312 14.832031 24.355469 C 15.152344 24.441406 15.664062 24.457031 16.285156 24.042969 C 16.964844 23.585938 17.664062 24.027344 17.742188 24.078125 C 17.769531 24.097656 17.796875 24.117188 17.828125 24.132812 C 18.335938 24.578125 18.851562 24.585938 19.695312 24.402344 C 20.074219 24.320312 21.347656 23.984375 21.871094 23.050781 C 21.933594 22.933594 21.980469 22.816406 22.015625 22.695312 C 23.023438 22.984375 24.078125 23.128906 25.113281 23.082031 C 28.902344 22.910156 30.570312 20.542969 29.453125 17.773438 C 29.972656 16.992188 30.960938 15.601562 31.226562 13.777344 C 31.226562 13.777344 30.9375 12.683594 29.144531 12.027344 C 29.40625 10.882812 30.386719 6.484375 30.472656 6.421875 C 30.761719 6.546875 31.011719 6.769531 31.308594 6.878906 M 10.574219 13.691406 C 10.804688 13.460938 11.019531 13.214844 11.222656 12.960938 C 11.519531 12.527344 11.804688 12.085938 11.992188 11.601562 C 11.992188 11.617188 11.992188 11.628906 11.992188 11.640625 C 12 12.941406 12.507812 14.023438 13.535156 14.894531 C 12.472656 14.640625 11.433594 14.167969 10.574219 13.691406 M 18.3125 12.113281 C 18.1875 11.894531 17.527344 11.242188 17.527344 11.242188 L 17.140625 11.363281 C 16.132812 12.414062 15.523438 13.945312 15.523438 13.945312 C 15.46875 13.699219 15.4375 13.449219 15.4375 13.191406 C 15.433594 12.550781 15.609375 11.949219 15.921875 11.417969 C 16.0625 11.386719 16.203125 11.355469 16.34375 11.324219 C 16.34375 10.601562 16.402344 9.988281 16.402344 9.222656 L 16.429688 9.183594 L 16.460938 9.210938 C 16.652344 9.820312 16.898438 10.398438 17.097656 11.003906 C 17.148438 11.085938 17.089844 11.261719 17.246094 11.253906 C 17.878906 11.167969 18.527344 11.238281 19.183594 11.230469 C 18.707031 11.699219 18.3125 12.113281 18.3125 12.113281 M 21.523438 14.214844 C 21.058594 12.773438 20.277344 11.710938 19.960938 11.324219 C 20.421875 11.394531 20.855469 11.523438 21.304688 11.613281 C 21.421875 11.675781 21.570312 11.652344 21.679688 11.742188 C 22.207031 11.839844 22.664062 12.09375 23.179688 12.210938 C 23.59375 12.386719 24.003906 12.5625 24.414062 12.746094 C 23.484375 13.324219 22.371094 13.945312 21.523438 14.214844 "/>
<path style=" stroke:none;fill-rule:nonzero;fill:rgb(82.352941%,83.137255%,83.529412%);fill-opacity:1;" d="M 17.429688 2.886719 C 17.5 3.085938 17.417969 3.207031 17.449219 3.402344 C 17.453125 3.734375 17.425781 4.039062 17.417969 4.359375 C 17.378906 4.273438 17.320312 4.167969 17.308594 4.058594 C 17.164062 3.675781 17.019531 3.304688 16.902344 2.917969 C 17.058594 2.867188 17.257812 2.898438 17.429688 2.886719 "/>
<path style=" stroke:none;fill-rule:nonzero;fill:rgb(82.352941%,83.137255%,83.529412%);fill-opacity:1;" d="M 20.320312 2.988281 C 20.386719 3.816406 20.296875 4.566406 20.308594 5.390625 C 20.261719 6.59375 20.289062 7.648438 20.222656 8.875 L 20.222656 8.921875 C 20.007812 8.902344 19.75 8.890625 19.515625 8.875 C 19.460938 8.683594 19.496094 8.398438 19.484375 8.238281 C 19.515625 6.390625 19.542969 4.753906 19.59375 2.917969 L 19.613281 2.898438 C 19.839844 2.953125 20.097656 2.917969 20.320312 2.988281 "/>
<path style=" stroke:none;fill-rule:nonzero;fill:rgb(21.568627%,20.784314%,20.784314%);fill-opacity:1;" d="M 10.75 3.78125 C 10.726562 5.570312 10.6875 7.542969 10.621094 9.335938 C 10.589844 10.328125 10.304688 11.496094 9.261719 11.90625 C 9.089844 11.914062 8.96875 11.785156 8.886719 11.640625 C 8.839844 10.714844 8.914062 9.757812 8.925781 8.792969 C 8.9375 7.414062 9.015625 6.128906 9.027344 4.734375 C 9.003906 4.453125 9.28125 4.359375 9.472656 4.238281 C 9.828125 4.082031 10.246094 3.929688 10.640625 3.78125 Z M 10.75 3.78125 "/>
<path style=" stroke:none;fill-rule:nonzero;fill:rgb(21.568627%,20.784314%,20.784314%);fill-opacity:1;" d="M 28.503906 4.933594 C 28.710938 5.222656 28.519531 5.570312 28.503906 5.90625 C 28.335938 6.699219 28.167969 7.484375 28 8.277344 C 27.925781 8.542969 27.808594 9.097656 27.808594 9.097656 C 27.757812 9.222656 27.746094 9.378906 27.710938 9.488281 C 27.652344 9.203125 27.625 8.910156 27.558594 8.625 C 27.539062 8.226562 27.449219 7.820312 27.363281 7.433594 C 27.324219 6.667969 27.121094 5.9375 27.058594 5.222656 C 27.015625 5.140625 27.023438 5 27.003906 4.890625 C 27 4.640625 26.894531 4.410156 26.933594 4.179688 C 27.460938 4.417969 28.027344 4.5625 28.503906 4.933594 "/>
<path style=" stroke:none;fill-rule:nonzero;fill:rgb(82.352941%,83.137255%,83.529412%);fill-opacity:1;" d="M 10.445312 4.335938 C 10.433594 5.792969 10.355469 7.074219 10.34375 8.585938 C 10.328125 8.910156 10.308594 9.25 10.292969 9.613281 C 10.253906 9.871094 10.210938 10.234375 10.109375 10.519531 C 9.992188 10.910156 9.71875 11.292969 9.371094 11.542969 C 9.28125 11.554688 9.203125 11.542969 9.179688 11.445312 C 9.199219 10.640625 9.191406 9.933594 9.234375 9.082031 C 9.246094 7.652344 9.320312 6.332031 9.332031 4.914062 C 9.367188 4.796875 9.328125 4.613281 9.484375 4.585938 C 9.785156 4.429688 10.101562 4.339844 10.414062 4.21875 Z M 10.445312 4.335938 "/>
<path style=" stroke:none;fill-rule:nonzero;fill:rgb(82.352941%,83.137255%,83.529412%);fill-opacity:1;" d="M 28 4.984375 C 28.085938 5.058594 28.214844 5.066406 28.265625 5.179688 C 28.285156 5.570312 27.828125 7.496094 27.769531 7.738281 C 27.71875 7.480469 27.363281 5.105469 27.292969 4.777344 L 27.304688 4.707031 C 27.554688 4.757812 27.78125 4.875 28 4.984375 "/>
<path style=" stroke:none;fill-rule:nonzero;fill:rgb(82.352941%,83.137255%,83.529412%);fill-opacity:1;" d="M 16.347656 8.960938 C 16.164062 9.042969 15.519531 9.140625 15.472656 9.070312 C 15.515625 8.238281 15.496094 7.515625 15.542969 6.695312 C 15.617188 6.765625 16.175781 8.40625 16.347656 8.960938 "/>
<path style=" stroke:none;fill-rule:nonzero;fill:rgb(100%,100%,100%);fill-opacity:1;" d="M 13.449219 12.078125 C 13.4375 11.980469 13.339844 11.417969 12.84375 10.71875 C 12.773438 10.996094 12.730469 11.289062 12.722656 11.589844 C 12.695312 13 13.460938 14.269531 14.601562 14.929688 C 13.914062 14.132812 13.507812 13.132812 13.449219 12.078125 "/>
<path style=" stroke:none;fill-rule:nonzero;fill:rgb(100%,100%,100%);fill-opacity:1;" d="M 13.90625 12.132812 C 13.984375 13.1875 14.449219 14.175781 15.222656 14.914062 C 14.902344 14.34375 14.722656 13.683594 14.734375 12.988281 C 14.746094 12.355469 14.921875 11.769531 15.210938 11.265625 C 14.785156 11.375 14.160156 11.621094 13.90625 12.132812 "/>
<path style=" stroke:none;fill-rule:nonzero;fill:rgb(81.176471%,18.039216%,30.196078%);fill-opacity:1;" d="M 15.097656 8.335938 C 14.175781 8.628906 13.425781 9.304688 13.03125 10.199219 C 13.242188 10.460938 13.402344 10.714844 13.523438 10.945312 C 13.722656 9.902344 14.285156 8.976562 15.097656 8.335938 "/>
<path style=" stroke:none;fill-rule:nonzero;fill:rgb(81.176471%,18.039216%,30.196078%);fill-opacity:1;" d="M 20.378906 14.71875 C 18.902344 15.210938 17.433594 15.433594 15.988281 15.382812 C 16.054688 15.363281 16.121094 15.339844 16.183594 15.304688 C 17.683594 14.421875 19.402344 14.542969 20.378906 14.71875 "/>
<path style=" stroke:none;fill-rule:nonzero;fill:rgb(81.176471%,18.039216%,30.196078%);fill-opacity:1;" d="M 15.042969 10.097656 C 15.019531 9.992188 15.003906 9.882812 14.992188 9.773438 C 14.808594 9.878906 14.609375 10.007812 14.480469 10.132812 C 14.480469 10.132812 14.648438 9.730469 14.96875 9.425781 C 14.96875 9.394531 14.96875 9.367188 14.96875 9.335938 C 14.972656 9.25 14.976562 9.164062 14.984375 9.078125 C 14.398438 9.6875 14.019531 10.492188 13.921875 11.367188 C 14.347656 11 14.910156 10.832031 15.257812 10.753906 C 15.207031 10.636719 15.164062 10.519531 15.125 10.394531 C 14.894531 10.464844 14.511719 10.59375 14.300781 10.757812 C 14.300781 10.757812 14.550781 10.3125 15.042969 10.097656 "/>
<path style=" stroke:none;fill-rule:nonzero;fill:rgb(100%,100%,100%);fill-opacity:1;" d="M 18.519531 18.621094 C 18.519531 18.621094 20.351562 16.835938 24.167969 18.929688 C 27.980469 21.023438 29.058594 19.167969 29.058594 19.167969 C 29.058594 19.167969 29.378906 20.335938 28.074219 21.167969 C 26.769531 22 24.550781 22.390625 22.03125 21.390625 C 22.03125 21.390625 20.765625 18.949219 19.667969 19 C 19.667969 19 19.746094 18.597656 18.519531 18.621094 "/>
<path style=" stroke:none;fill-rule:nonzero;fill:rgb(82.352941%,83.137255%,83.529412%);fill-opacity:1;" d="M 27.933594 20.636719 C 26.523438 21.449219 24.171875 21.761719 21.574219 20.621094 C 21.855469 21.046875 22.03125 21.390625 22.03125 21.390625 C 24.550781 22.390625 26.769531 22 28.074219 21.167969 C 29.269531 20.402344 29.101562 19.359375 29.066406 19.191406 C 28.976562 19.625 28.703125 20.191406 27.933594 20.636719 "/>
<path style=" stroke:none;fill-rule:nonzero;fill:rgb(100%,100%,100%);fill-opacity:1;" d="M 16.644531 18.753906 C 16.644531 18.753906 14.816406 17.566406 12.503906 20.085938 C 10.1875 22.609375 9.253906 20.558594 9.253906 20.558594 C 9.253906 20.558594 9.226562 21.746094 10.28125 22.410156 C 11.105469 22.929688 12.292969 23.117188 13.53125 22.550781 C 13.148438 21.308594 14.054688 20.554688 14.652344 20.429688 C 15.265625 20.304688 15.816406 20.046875 15.816406 20.046875 C 15.816406 20.046875 15.503906 19.171875 16.644531 18.753906 "/>
<path style=" stroke:none;fill-rule:nonzero;fill:rgb(82.352941%,83.137255%,83.529412%);fill-opacity:1;" d="M 10.191406 21.824219 C 9.632812 21.472656 9.378906 20.972656 9.261719 20.578125 C 9.257812 20.566406 9.253906 20.558594 9.253906 20.558594 C 9.253906 20.558594 9.226562 21.746094 10.28125 22.410156 C 11.105469 22.933594 12.292969 23.117188 13.53125 22.550781 C 13.46875 22.339844 13.441406 22.148438 13.441406 21.964844 C 12.207031 22.53125 11.019531 22.347656 10.191406 21.824219 "/>
<path style=" stroke:none;fill-rule:nonzero;fill:rgb(82.352941%,83.137255%,83.529412%);fill-opacity:1;" d="M 20.949219 14.484375 C 19.78125 11.535156 19.316406 11.921875 19.316406 11.921875 C 19.140625 12.15625 18.265625 12.96875 18.265625 12.96875 C 17.949219 12.722656 17.351562 11.894531 17.351562 11.894531 L 17.289062 11.863281 C 17.359375 12.964844 18.105469 13.546875 18.105469 13.546875 C 18.09375 13.5625 18.804688 13.054688 19.183594 12.6875 C 19.183594 12.6875 18.859375 13.367188 18.035156 14.136719 C 20.21875 14.007812 20.949219 14.484375 20.949219 14.484375 "/>
<path style=" stroke:none;fill-rule:nonzero;fill:rgb(82.352941%,83.137255%,83.529412%);fill-opacity:1;" d="M 19.171875 15.664062 C 17.242188 16.058594 15.316406 16.039062 13.445312 15.601562 C 10.367188 14.886719 8.449219 13.257812 8.3125 13.136719 C 8.210938 13.125 7.21875 13.066406 6.089844 14.898438 C 6.441406 14.574219 7.253906 13.914062 8.132812 13.699219 C 8.132812 13.699219 8.144531 13.695312 8.144531 13.695312 L 8.160156 13.703125 L 8.578125 13.972656 C 10.109375 14.96875 12.664062 16.632812 17.429688 16.359375 C 19.316406 16.253906 21.230469 15.742188 23.121094 14.835938 C 24.671875 14.097656 25.808594 13.277344 26.347656 12.855469 L 26.359375 12.847656 L 26.371094 12.847656 C 28.351562 12.878906 29.738281 13.277344 30.179688 13.421875 C 29.332031 12.675781 27.078125 12.34375 26.363281 12.257812 C 23.996094 14.023438 21.578125 15.167969 19.171875 15.664062 "/>
<path style=" stroke:none;fill-rule:nonzero;fill:rgb(98.823529%,81.176471%,76.078431%);fill-opacity:1;" d="M 21.125 17.394531 C 21.429688 17.429688 21.761719 17.5 22.109375 17.621094 C 21.789062 16.453125 21.328125 17.042969 21.125 17.394531 "/>
<path style=" stroke:none;fill-rule:nonzero;fill:rgb(98.823529%,81.176471%,76.078431%);fill-opacity:1;" d="M 16.578125 17.980469 C 16.578125 17.945312 16.582031 17.90625 16.601562 17.875 C 16.601562 17.875 16.242188 17.882812 16.375 18.160156 L 16.59375 18.242188 C 16.578125 18.1875 16.570312 18.128906 16.570312 18.070312 C 16.570312 18.039062 16.574219 18.011719 16.578125 17.980469 "/>
<path style=" stroke:none;fill-rule:nonzero;fill:rgb(98.823529%,81.176471%,76.078431%);fill-opacity:1;" d="M 17.925781 17.113281 L 17.558594 16.722656 C 17.527344 16.730469 17.496094 16.738281 17.464844 16.753906 L 16.90625 17.839844 C 16.90625 17.839844 16.902344 17.847656 16.894531 17.867188 C 16.855469 17.925781 16.832031 18 16.832031 18.082031 C 16.832031 18.3125 17.019531 18.503906 17.253906 18.511719 C 17.484375 18.519531 17.671875 18.335938 17.671875 18.105469 C 17.671875 18.035156 17.652344 17.96875 17.625 17.910156 C 17.707031 17.863281 17.867188 17.804688 18.097656 17.867188 C 18.097656 17.867188 17.933594 17.992188 17.957031 18.21875 C 17.957031 18.21875 18.1875 18.042969 18.402344 17.972656 C 18.617188 17.90625 18.589844 17.753906 18.449219 17.644531 C 18.3125 17.535156 17.96875 17.460938 17.671875 17.566406 C 17.671875 17.566406 17.972656 17.089844 18.640625 17.5 C 18.640625 17.5 18.964844 17.707031 19.570312 17.53125 C 19.898438 17.433594 20.183594 17.410156 20.410156 17.414062 C 20.367188 17.363281 20.320312 17.296875 20.261719 17.222656 C 19.988281 16.929688 19.292969 16.476562 17.925781 17.113281 "/>
<path style=" stroke:none;fill-rule:nonzero;fill:rgb(98.823529%,81.176471%,76.078431%);fill-opacity:1;" d="M 16.5 17.21875 C 16.5 17.214844 16.496094 17.214844 16.492188 17.210938 C 16.066406 17.15625 15.390625 17.164062 15.382812 17.789062 L 15.179688 18.007812 C 15.183594 18.023438 15.1875 18.035156 15.1875 18.035156 C 15.632812 17.949219 16.050781 18.066406 16.050781 18.066406 C 15.851562 17.542969 16.617188 17.609375 16.617188 17.609375 C 16.644531 17.566406 16.722656 17.417969 16.800781 17.269531 C 16.75 17.253906 16.640625 17.230469 16.503906 17.210938 C 16.503906 17.214844 16.5 17.214844 16.5 17.21875 "/>
<path style=" stroke:none;fill-rule:nonzero;fill:rgb(98.823529%,81.176471%,76.078431%);fill-opacity:1;" d="M 19.546875 23.316406 C 18.613281 23.515625 18.386719 23.507812 17.757812 22.53125 C 17.132812 21.554688 16.398438 21.984375 16.398438 21.984375 C 17.160156 22.046875 17.425781 22.894531 17.425781 22.894531 C 17.425781 22.894531 16.785156 22.464844 15.902344 23.054688 C 15.023438 23.640625 14.582031 23.027344 14.492188 22.851562 C 14.394531 22.675781 13.503906 21.183594 15.011719 20.824219 C 16.277344 20.523438 16.554688 20 16.609375 19.839844 C 15.976562 19.523438 16.546875 19.253906 16.882812 19.136719 C 17.625 18.859375 18.839844 18.960938 18.839844 18.960938 C 18.839844 18.960938 19.253906 18.96875 19.199219 19.234375 C 19.128906 19.578125 19.71875 19.449219 19.71875 19.449219 C 20.054688 19.675781 21.015625 20.488281 21.347656 21.484375 C 21.683594 22.484375 20.480469 23.117188 19.546875 23.316406 M 18.578125 19.636719 C 18.574219 19.59375 18.539062 19.566406 18.5 19.566406 C 17.890625 19.574219 17.34375 19.699219 17.324219 19.707031 C 17.28125 19.714844 17.257812 19.753906 17.265625 19.792969 C 17.273438 19.832031 17.308594 19.859375 17.351562 19.859375 C 18.035156 19.804688 18.191406 19.941406 18.222656 20.003906 C 18.277344 20.101562 18.171875 20.246094 18.171875 20.246094 C 18.148438 20.277344 18.152344 20.320312 18.179688 20.347656 C 18.210938 20.378906 18.253906 20.378906 18.285156 20.355469 C 18.628906 20.058594 18.582031 19.652344 18.578125 19.636719 "/>
<path style=" stroke:none;fill-rule:nonzero;fill:rgb(82.352941%,83.137255%,83.529412%);fill-opacity:1;" d="M 13.324219 8.664062 C 13.378906 6.871094 13.375 5.101562 13.429688 3.402344 L 13.402344 3.363281 C 13.28125 3.386719 13.15625 3.402344 13.042969 3.445312 C 12.921875 3.484375 12.746094 3.46875 12.679688 3.570312 C 12.644531 4.410156 12.621094 5.246094 12.609375 6.015625 C 12.554688 7.027344 12.527344 9.007812 12.484375 9.757812 C 12.699219 9.355469 12.984375 8.988281 13.324219 8.664062 "/>
<path style=" stroke:none;fill-rule:nonzero;fill:rgb(81.176471%,18.039216%,30.196078%);fill-opacity:1;" d="M 14.847656 7.277344 C 14.917969 6.789062 14.824219 6.316406 14.890625 5.777344 C 14.941406 4.914062 14.902344 4.121094 14.957031 3.207031 C 15.105469 3.53125 15.230469 3.882812 15.335938 4.238281 L 15.363281 4.265625 C 16.074219 6.367188 16.855469 8.441406 17.597656 10.53125 C 17.957031 10.554688 18.421875 10.488281 18.75 10.53125 L 18.789062 10.5 C 18.808594 8.675781 18.867188 6.488281 18.90625 4.792969 C 18.953125 3.882812 18.847656 3.121094 19.027344 2.320312 C 19.195312 2.09375 19.527344 2.164062 19.78125 2.152344 L 19.792969 1.082031 L 19.761719 1.042969 C 18.847656 1.046875 17.953125 0.96875 17.125 1.054688 C 17.136719 1.425781 17.105469 1.777344 17.125 2.152344 C 17.429688 2.183594 17.8125 2.058594 17.984375 2.363281 C 18.042969 3.875 17.980469 7.554688 17.917969 7.738281 C 17.917969 7.738281 16.5 3.75 15.875 2.042969 C 15.816406 1.726562 15.660156 1.449219 15.582031 1.140625 C 14.953125 1.226562 14.363281 1.296875 13.738281 1.402344 C 13.539062 1.441406 13.332031 1.4375 13.152344 1.515625 L 13.125 2.640625 L 13.121094 2.71875 C 13.371094 2.6875 13.703125 2.523438 13.929688 2.679688 C 13.96875 2.738281 13.980469 2.800781 14.015625 2.859375 C 14.039062 4.492188 13.976562 5.847656 13.957031 7.542969 C 13.9375 7.777344 13.9375 8.007812 13.941406 8.242188 C 14.21875 8.050781 14.519531 7.882812 14.839844 7.742188 C 14.847656 7.53125 14.851562 7.363281 14.847656 7.277344 "/>
<path style=" stroke:none;fill-rule:nonzero;fill:rgb(81.176471%,18.039216%,30.196078%);fill-opacity:1;" d="M 25.238281 10.054688 C 25.25 9.335938 25.269531 8.632812 25.28125 7.890625 C 25.101562 7.726562 24.832031 7.703125 24.625 7.582031 C 24.625 8.039062 24.578125 8.492188 24.554688 8.921875 C 24.441406 9.40625 24.511719 10.019531 24.019531 10.308594 C 23.300781 10.40625 22.699219 9.992188 22.027344 9.863281 C 22.003906 8.574219 22.066406 7.386719 22.085938 6.09375 C 22.148438 4.875 22.0625 3.804688 22.210938 2.667969 C 22.386719 2.34375 22.789062 2.570312 23.085938 2.582031 C 23.109375 2.207031 23.097656 1.789062 23.097656 1.417969 C 22.644531 1.347656 22.132812 1.277344 21.695312 1.210938 C 21.152344 1.179688 20.667969 1.09375 20.140625 1.070312 C 20.085938 1.449219 20.121094 1.816406 20.109375 2.195312 C 20.332031 2.210938 20.554688 2.207031 20.734375 2.304688 C 20.878906 2.378906 20.933594 2.539062 20.945312 2.691406 C 20.957031 3.949219 20.9375 5.128906 20.890625 6.390625 C 20.851562 7.425781 20.921875 8.433594 20.777344 9.390625 C 20.601562 9.648438 20.199219 9.476562 19.972656 9.488281 L 19.972656 10.609375 C 21.527344 10.917969 23.015625 11.390625 24.433594 12.027344 C 24.472656 12.023438 24.953125 12.273438 25.179688 12.339844 C 25.1875 12.335938 25.195312 12.332031 25.199219 12.328125 C 25.25 11.605469 25.203125 10.824219 25.238281 10.054688 "/>
<path style=" stroke:none;fill-rule:nonzero;fill:rgb(81.176471%,18.039216%,30.196078%);fill-opacity:1;" d="M 29.65625 7.234375 C 29.824219 6.695312 29.800781 6.0625 30.152344 5.609375 C 30.375 5.5625 30.558594 5.671875 30.726562 5.792969 C 30.757812 5.296875 30.785156 4.796875 30.757812 4.277344 C 30.34375 4.039062 29.921875 3.820312 29.503906 3.59375 C 29.113281 3.4375 28.753906 3.195312 28.347656 3.054688 C 28.261719 3.015625 28.167969 2.929688 28.070312 2.945312 C 28.046875 3.363281 28.0625 3.878906 28.058594 4.277344 C 28.289062 4.421875 28.550781 4.492188 28.753906 4.695312 C 29.011719 4.914062 28.925781 5.265625 28.902344 5.570312 C 28.539062 7.335938 28.109375 9.078125 27.699219 10.820312 C 27.660156 10.945312 27.664062 11.089844 27.582031 11.195312 C 27.503906 10.667969 27.421875 10.140625 27.335938 9.613281 C 27.171875 8.429688 26.988281 7.199219 26.808594 5.972656 C 26.773438 5.917969 26.820312 5.828125 26.765625 5.777344 C 26.710938 5.3125 26.65625 4.890625 26.597656 4.445312 C 26.59375 4.242188 26.53125 3.953125 26.710938 3.792969 C 26.992188 3.75 27.230469 3.960938 27.472656 4.011719 C 27.484375 3.589844 27.515625 3.1875 27.503906 2.738281 L 27.472656 2.679688 C 26.507812 2.339844 25.511719 2.007812 24.527344 1.738281 C 24.519531 2.105469 24.492188 2.542969 24.503906 2.957031 C 24.734375 3.015625 24.980469 3.078125 25.128906 3.304688 C 25.464844 4.097656 25.492188 5.019531 25.640625 5.886719 C 25.96875 7.777344 26.199219 9.707031 26.402344 11.625 C 27.261719 11.648438 27.972656 11.753906 28.558594 11.902344 C 28.9375 10.355469 29.28125 8.800781 29.65625 7.234375 "/>
<path style=" stroke:none;fill-rule:nonzero;fill:rgb(81.176471%,18.039216%,30.196078%);fill-opacity:1;" d="M 10.023438 13.417969 C 10.785156 12.691406 11.359375 11.765625 11.613281 10.75 C 11.707031 10.511719 11.699219 10.203125 11.773438 9.972656 C 11.84375 9.445312 11.867188 8.878906 11.875 8.292969 C 11.875 8.292969 11.855469 7.746094 11.890625 7.414062 C 11.898438 6.003906 11.917969 4.816406 12 3.363281 C 12.011719 3.132812 12.214844 2.96875 12.417969 2.898438 C 12.539062 2.859375 12.671875 2.824219 12.804688 2.789062 L 12.816406 1.886719 C 12.820312 1.753906 12.820312 1.6875 12.816406 1.570312 C 11.929688 1.824219 11.070312 2.003906 10.207031 2.320312 C 10.164062 2.738281 10.207031 3.175781 10.164062 3.59375 C 10.410156 3.546875 10.652344 3.367188 10.902344 3.457031 C 10.992188 3.492188 10.988281 3.589844 11.027344 3.652344 C 11.074219 5.023438 10.976562 6.332031 10.96875 7.679688 C 10.957031 9.402344 11.148438 11.542969 9.304688 12.324219 C 9.199219 12.3125 9.128906 12.394531 9.015625 12.363281 C 8.613281 12.21875 8.578125 11.726562 8.566406 11.363281 C 8.523438 10.140625 8.597656 8.84375 8.609375 7.671875 C 8.625 6.558594 8.621094 5.535156 8.71875 4.527344 C 8.828125 4.09375 9.296875 4.007812 9.621094 3.832031 C 9.632812 3.410156 9.660156 3.023438 9.652344 2.554688 L 9.621094 2.511719 C 8.636719 2.929688 7.636719 3.351562 6.691406 3.847656 C 6.679688 4.371094 6.652344 4.828125 6.664062 5.308594 C 6.882812 5.214844 7.058594 5.03125 7.316406 5.042969 C 7.453125 5.097656 7.460938 5.273438 7.46875 5.390625 C 7.445312 7.785156 7.417969 10.003906 7.386719 12.363281 C 7.398438 12.460938 7.402344 12.558594 7.410156 12.660156 C 7.730469 12.515625 8.085938 12.414062 8.492188 12.382812 C 8.492188 12.382812 9.097656 12.859375 10.023438 13.417969 "/>
</g>
</svg>
