<?xml version="1.0" encoding="UTF-8"?>
<svg xmlns="http://www.w3.org/2000/svg" xmlns:xlink="http://www.w3.org/1999/xlink" width="35pt" height="25pt" viewBox="0 0 35 25" version="1.1">
<g id="surface1">
<path style=" stroke:none;fill-rule:nonzero;fill:rgb(0%,18.823529%,34.117647%);fill-opacity:1;" d="M 35 23.527344 L 34.691406 23.527344 L 34.691406 21.800781 L 34.679688 21.800781 L 33.984375 23.527344 L 33.792969 23.527344 L 33.117188 21.800781 L 33.109375 21.800781 L 33.109375 23.527344 L 32.796875 23.527344 L 32.796875 21.492188 L 33.304688 21.492188 L 33.890625 22.929688 L 34.496094 21.492188 L 35 21.492188 Z M 32.425781 21.800781 L 31.757812 21.800781 L 31.757812 23.527344 L 31.449219 23.527344 L 31.449219 21.800781 L 30.78125 21.800781 L 30.78125 21.492188 L 32.425781 21.492188 Z M 32.425781 21.800781 "/>
<path style=" stroke:none;fill-rule:nonzero;fill:rgb(0%,18.823529%,34.117647%);fill-opacity:1;" d="M 30.21875 0.164062 L 20.410156 0.164062 L 20.410156 7.296875 L 30.542969 7.296875 L 30.542969 0.164062 Z M 30.21875 0.164062 "/>
<path style=" stroke:none;fill-rule:nonzero;fill:rgb(0%,18.823529%,34.117647%);fill-opacity:1;" d="M 30.542969 16.851562 C 27.199219 16.109375 23.8125 15.644531 20.410156 15.445312 L 20.410156 17.777344 C 20.410156 18.695312 20.410156 19.359375 20.089844 19.742188 C 19.753906 20.144531 18.972656 20.324219 17.566406 20.324219 L 15.996094 20.324219 C 14.589844 20.324219 13.8125 20.144531 13.476562 19.742188 C 13.152344 19.359375 13.152344 18.695312 13.152344 17.777344 L 13.152344 15.445312 C 9.753906 15.636719 6.363281 16.105469 3.023438 16.84375 L 3.023438 19.222656 C 3.011719 19.507812 3.015625 20.878906 4.171875 22.226562 C 5.660156 23.953125 8.339844 24.886719 12.144531 25 L 21.4375 25 C 25.230469 24.886719 27.90625 23.953125 29.390625 22.226562 C 30.519531 20.910156 30.558594 19.605469 30.542969 19.222656 Z M 30.542969 16.851562 "/>
<path style=" stroke:none;fill-rule:nonzero;fill:rgb(0%,18.823529%,34.117647%);fill-opacity:1;" d="M 12.832031 0.164062 L 3.023438 0.164062 L 3.023438 7.296875 L 13.152344 7.296875 L 13.152344 0.164062 Z M 12.832031 0.164062 "/>
<path style=" stroke:none;fill-rule:nonzero;fill:rgb(61.568627%,58.823529%,55.294118%);fill-opacity:1;" d="M 3.632812 0.789062 L 12.546875 0.789062 L 12.546875 7.296875 L 3.632812 7.296875 Z M 3.632812 0.789062 "/>
<path style=" stroke:none;fill-rule:nonzero;fill:rgb(61.568627%,58.823529%,55.294118%);fill-opacity:1;" d="M 21.015625 0.789062 L 29.933594 0.789062 L 29.933594 7.296875 L 21.015625 7.296875 Z M 21.015625 0.789062 "/>
<path style=" stroke:none;fill-rule:nonzero;fill:rgb(61.568627%,58.823529%,55.294118%);fill-opacity:1;" d="M 29.933594 16.722656 C 26.988281 16.097656 24.007812 15.683594 21.015625 15.484375 L 21.015625 17.777344 C 21.015625 19.753906 21.015625 20.945312 17.566406 20.945312 L 15.996094 20.945312 C 12.546875 20.945312 12.546875 19.753906 12.546875 17.777344 L 12.546875 15.484375 C 9.554688 15.683594 6.574219 16.09375 3.632812 16.714844 L 3.632812 19.238281 C 3.625 19.375 3.585938 20.597656 4.628906 21.816406 C 6 23.410156 8.53125 24.273438 12.152344 24.378906 L 21.421875 24.378906 C 25.039062 24.273438 27.5625 23.410156 28.933594 21.816406 C 29.953125 20.628906 29.945312 19.460938 29.933594 19.242188 Z M 29.933594 16.722656 "/>
<path style=" stroke:none;fill-rule:nonzero;fill:rgb(0%,18.823529%,34.117647%);fill-opacity:1;" d="M 21.410156 1.195312 L 29.539062 1.195312 L 29.539062 7.296875 L 21.410156 7.296875 Z M 21.410156 1.195312 "/>
<path style=" stroke:none;fill-rule:nonzero;fill:rgb(0%,18.823529%,34.117647%);fill-opacity:1;" d="M 29.539062 16.644531 C 26.851562 16.089844 24.136719 15.71875 21.410156 15.515625 L 21.410156 17.777344 C 21.410156 19.769531 21.410156 21.351562 17.566406 21.351562 L 15.996094 21.351562 C 12.152344 21.351562 12.152344 19.769531 12.152344 17.777344 L 12.152344 15.507812 C 9.425781 15.707031 6.710938 16.078125 4.023438 16.625 L 4.023438 19.253906 C 4.023438 19.253906 3.65625 23.722656 12.152344 23.972656 L 21.410156 23.972656 C 29.910156 23.722656 29.539062 19.253906 29.539062 19.253906 Z M 29.539062 16.644531 "/>
<path style=" stroke:none;fill-rule:nonzero;fill:rgb(0%,18.823529%,34.117647%);fill-opacity:1;" d="M 4.023438 1.195312 L 12.152344 1.195312 L 12.152344 7.296875 L 4.023438 7.296875 Z M 4.023438 1.195312 "/>
<path style=" stroke:none;fill-rule:nonzero;fill:rgb(61.568627%,58.823529%,55.294118%);fill-opacity:1;" d="M 14.363281 9.8125 C 13.660156 11.171875 12.957031 12.550781 12.246094 13.960938 C 12.253906 12.589844 12.257812 11.210938 12.265625 9.839844 C 12.964844 9.828125 13.664062 9.816406 14.363281 9.8125 M 17.332031 11.617188 C 16.945312 11.613281 16.558594 11.609375 16.171875 11.609375 C 16.371094 11.167969 16.574219 10.726562 16.773438 10.285156 C 16.960938 10.726562 17.144531 11.171875 17.332031 11.617188 M 21.519531 9.855469 C 21.527344 11.261719 21.535156 12.667969 21.542969 14.074219 C 20.828125 12.617188 20.117188 11.207031 19.410156 9.820312 C 20.113281 9.828125 20.816406 9.839844 21.519531 9.855469 M 4.253906 10.691406 C 3.757812 10.679688 3.253906 10.667969 2.9375 10.664062 C 2.941406 10.445312 2.941406 10.222656 2.941406 10.003906 C 3.378906 9.980469 3.820312 9.960938 4.257812 9.9375 C 4.253906 10.191406 4.253906 10.441406 4.253906 10.691406 M 4.210938 13.753906 C 3.8125 13.808594 3.414062 13.863281 3.019531 13.921875 C 3.019531 13.660156 3.019531 13.394531 3.023438 13.128906 C 3.417969 13.109375 3.816406 13.089844 4.214844 13.074219 C 4.210938 13.300781 4.210938 13.527344 4.210938 13.753906 M 29.121094 13.75 C 29.117188 13.457031 29.117188 13.164062 29.113281 12.875 C 30.273438 13.011719 31.425781 13.171875 32.578125 13.351562 C 32.578125 12.617188 32.578125 11.878906 32.578125 11.144531 C 31.421875 11.039062 30.261719 10.945312 29.105469 10.863281 C 29.101562 10.613281 29.101562 10.367188 29.101562 10.121094 C 30.332031 10.183594 31.566406 10.257812 32.792969 10.34375 L 32.792969 10.238281 C 32.792969 9.5 32.792969 8.757812 32.792969 8.015625 L 32.792969 7.996094 C 22.5625 8 11.738281 8 1.507812 8.003906 C 0.6875 8 0 8.6875 0 9.507812 L 0 12.085938 C 0 12.523438 0.371094 12.972656 0.8125 13.148438 C 0.550781 13.1875 0.285156 13.226562 0.0234375 13.265625 L 0.0234375 15.175781 C 0.0234375 15.84375 0.691406 16.480469 1.476562 16.289062 C 2.839844 15.972656 4.210938 15.703125 5.585938 15.476562 C 6.273438 15.351562 7.339844 14.640625 7.34375 13.957031 C 7.351562 13.207031 7.355469 12.457031 7.359375 11.707031 C 7.355469 11.191406 6.890625 10.914062 6.332031 10.792969 C 6.640625 10.777344 6.949219 10.757812 7.261719 10.742188 C 7.261719 10.488281 7.265625 10.230469 7.265625 9.976562 C 7.953125 9.949219 8.640625 9.925781 9.324219 9.90625 L 9.292969 14.972656 C 10.273438 14.863281 11.257812 14.78125 12.242188 14.71875 C 13.117188 14.664062 13.988281 14.628906 14.859375 14.613281 C 15.042969 14.203125 15.222656 13.792969 15.40625 13.386719 C 16.296875 13.378906 17.1875 13.382812 18.082031 13.40625 C 18.265625 13.816406 18.453125 14.230469 18.636719 14.644531 C 20.59375 14.71875 22.546875 14.882812 24.492188 15.132812 C 24.484375 13.402344 24.46875 11.671875 24.457031 9.941406 C 24.84375 9.957031 25.824219 9.96875 26.210938 9.984375 C 26.222656 11.753906 26.234375 13.523438 26.246094 15.289062 C 28.5 15.621094 30.738281 16.070312 32.953125 16.640625 L 32.953125 14.382812 C 31.679688 14.144531 30.402344 13.933594 29.121094 13.75 "/>
<path style=" stroke:none;fill-rule:nonzero;fill:rgb(0%,18.823529%,34.117647%);fill-opacity:1;" d="M 7.277344 8.304688 C 7.277344 8.761719 7.273438 9.21875 7.269531 9.675781 C 8.074219 9.648438 8.878906 9.625 9.6875 9.609375 C 9.675781 11.289062 9.664062 12.96875 9.65625 14.648438 C 10.398438 14.574219 11.140625 14.515625 11.882812 14.46875 L 11.90625 9.5625 C 12.777344 9.550781 13.644531 9.542969 14.515625 9.535156 C 14.726562 9.117188 14.9375 8.695312 15.148438 8.277344 C 12.523438 8.277344 9.902344 8.289062 7.277344 8.304688 "/>
<path style=" stroke:none;fill-rule:nonzero;fill:rgb(0%,18.823529%,34.117647%);fill-opacity:1;" d="M 17.828125 11.898438 C 17.484375 11.078125 17.140625 10.265625 16.800781 9.453125 L 16.765625 9.453125 C 16.402344 10.261719 16.035156 11.074219 15.664062 11.886719 C 16.386719 11.882812 17.105469 11.886719 17.828125 11.898438 M 15.546875 8.269531 C 16.441406 8.269531 17.332031 8.269531 18.226562 8.269531 C 19.277344 10.300781 20.332031 12.363281 21.390625 14.523438 C 20.558594 14.460938 19.726562 14.414062 18.894531 14.378906 C 18.707031 13.960938 18.523438 13.546875 18.339844 13.136719 C 17.273438 13.109375 16.210938 13.101562 15.144531 13.113281 C 14.964844 13.523438 14.785156 13.933594 14.601562 14.34375 C 13.863281 14.359375 13.128906 14.390625 12.390625 14.429688 C 13.449219 12.320312 14.503906 10.289062 15.546875 8.269531 "/>
<path style=" stroke:none;fill-rule:nonzero;fill:rgb(0%,18.823529%,34.117647%);fill-opacity:1;" d="M 0.371094 15.105469 C 0.371094 14.589844 0.371094 14.078125 0.375 13.5625 C 1.136719 13.4375 1.902344 13.324219 2.671875 13.21875 C 2.667969 13.507812 2.667969 13.796875 2.667969 14.089844 C 2.667969 14.203125 2.78125 14.292969 2.917969 14.269531 C 3.390625 14.195312 3.859375 14.121094 4.328125 14.050781 C 4.414062 14.039062 4.558594 13.933594 4.5625 13.816406 C 4.5625 13.457031 4.566406 13.101562 4.566406 12.742188 C 4.566406 12.734375 1.378906 12.875 1.324219 12.886719 C 0.894531 12.914062 0.351562 12.441406 0.351562 12.042969 C 0.351562 11.195312 0.351562 10.34375 0.351562 9.492188 C 0.351562 8.882812 0.878906 8.34375 1.507812 8.34375 C 2.9375 8.328125 4.371094 8.316406 5.804688 8.308594 C 6.460938 8.304688 6.921875 8.777344 6.917969 9.238281 C 6.914062 9.648438 6.910156 10.054688 6.910156 10.464844 C 6.140625 10.503906 5.375 10.542969 4.605469 10.59375 C 4.605469 10.339844 4.609375 10.085938 4.609375 9.832031 C 4.609375 9.722656 4.464844 9.617188 4.320312 9.621094 C 3.820312 9.640625 3.320312 9.660156 2.824219 9.683594 C 2.683594 9.691406 2.589844 9.832031 2.589844 9.917969 C 2.589844 10.273438 2.589844 10.628906 2.585938 10.988281 C 2.585938 10.984375 5.449219 11.019531 5.691406 11.035156 C 6.121094 11.039062 7 11.15625 7.007812 11.734375 C 7.003906 12.488281 6.996094 13.242188 6.992188 13.996094 C 6.988281 14.480469 6.132812 15.078125 5.585938 15.171875 C 4.210938 15.386719 2.839844 15.648438 1.476562 15.953125 C 0.894531 16.085938 0.371094 15.582031 0.371094 15.105469 "/>
<path style=" stroke:none;fill-rule:nonzero;fill:rgb(0%,18.823529%,34.117647%);fill-opacity:1;" d="M 28.761719 14.019531 C 28.761719 13.515625 28.757812 13.015625 28.753906 12.511719 C 29.914062 12.636719 31.070312 12.78125 32.222656 12.945312 C 32.222656 12.453125 32.21875 11.957031 32.21875 11.464844 C 31.066406 11.347656 29.90625 11.246094 28.746094 11.15625 C 28.746094 10.699219 28.742188 10.238281 28.738281 9.78125 C 29.972656 9.832031 31.207031 9.894531 32.4375 9.964844 L 32.4375 9.863281 C 32.4375 9.363281 32.4375 8.867188 32.4375 8.371094 L 32.4375 8.347656 C 28.039062 8.304688 23.039062 8.277344 18.636719 8.269531 C 18.847656 8.691406 19.058594 9.113281 19.269531 9.539062 C 20.140625 9.550781 21.007812 9.5625 21.878906 9.582031 C 21.886719 11.242188 21.898438 12.90625 21.90625 14.566406 C 22.648438 14.628906 23.390625 14.703125 24.132812 14.792969 C 24.121094 13.074219 24.109375 11.355469 24.097656 9.636719 C 24.722656 9.652344 25.945312 9.671875 26.566406 9.695312 C 26.578125 11.476562 26.589844 13.257812 26.601562 15.039062 C 28.617188 15.332031 30.617188 15.71875 32.601562 16.195312 C 32.597656 15.6875 32.597656 15.179688 32.597656 14.671875 C 31.324219 14.425781 30.046875 14.207031 28.761719 14.019531 "/>
</g>
</svg>
