<?xml version="1.0" encoding="UTF-8"?>
<svg xmlns="http://www.w3.org/2000/svg" xmlns:xlink="http://www.w3.org/1999/xlink" width="35pt" height="25pt" viewBox="0 0 35 25" version="1.1">
<g id="surface1">
<path style="fill-rule:nonzero;fill:rgb(28.627451%,18.431373%,14.117647%);fill-opacity:1;stroke-width:1.5;stroke-linecap:butt;stroke-linejoin:miter;stroke:rgb(100%,76.862745%,14.509804%);stroke-opacity:1;stroke-miterlimit:4;" d="M 205.384689 277.069941 C 200.788853 274.553173 198.217374 266.893447 192.472579 264.814378 C 192.199017 264.540816 192.199017 264.540816 192.253729 264.267255 C 192.527291 264.267255 192.800853 264.048405 193.347976 264.048405 C 195.755319 263.829556 197.177839 261.859912 198.326798 259.561994 C 198.60036 259.179008 198.764497 258.905446 199.202196 259.179008 C 199.421045 259.616706 199.749319 259.23372 199.968168 259.671419 C 201.281264 261.531638 201.718963 263.501282 203.52447 263.774844 C 203.798032 263.774844 203.962169 262.954159 203.962169 262.954159 C 204.509292 261.093939 203.798032 259.671419 202.649073 257.920624 C 199.694607 253.707774 196.357154 249.604349 191.761318 248.728952 C 188.970989 248.291253 185.688249 247.361143 184.046879 246.266897 L 181.858386 244.187828 C 181.748961 243.367143 181.25655 242.491746 182.077235 242.272896 C 183.82803 241.671061 184.594003 243.148294 185.961811 243.640705 C 187.274907 244.406677 189.244551 246.923445 190.612359 245.336787 C 190.612359 245.336787 190.612359 245.063225 190.885921 244.789664 C 188.478578 235.488567 181.639537 230.619169 174.800495 226.40632 C 174.800495 226.132758 174.69107 225.859196 174.69107 225.859196 L 176.223016 223.725415 L 178.356797 225.530922 L 180.162304 227.336429 C 181.037701 227.281717 181.913098 227.008155 182.18666 226.515744 C 182.460222 224.983799 181.913098 224.381963 181.584824 223.287717 C 179.505756 219.129579 174.69107 219.348429 170.095234 216.667524 C 169.876385 216.120401 169.274549 214.862017 169.876385 214.205469 C 170.149947 214.205469 170.69707 214.260181 170.69707 214.260181 L 173.706248 217.652346 L 175.62118 218.308894 C 175.62118 217.925908 175.840029 216.831661 176.168303 216.120401 C 175.675892 215.135579 175.894742 214.041332 175.292906 212.618811 C 174.526933 209.390784 172.174303 206.874016 169.274549 206.108044 C 170.259371 198.448317 165.061699 191.882837 166.976631 184.660809 C 166.976631 184.387247 166.648357 183.402425 166.210659 183.347713 C 165.937097 183.621275 165.389973 183.566562 165.116412 183.566562 L 163.693891 183.621275 L 161.997809 195.822125 L 160.520576 197.244646 C 159.973452 196.916372 159.699891 196.916372 158.98863 196.588098 C 156.253014 191.828125 155.432329 185.098508 150.617643 181.87048 C 150.617643 181.87048 150.344082 181.87048 149.906383 181.596918 C 148.866849 180.830946 149.085698 179.463137 148.866849 178.314178 C 149.195123 177.767055 149.796958 177.712343 150.234657 177.438781 C 151.602465 177.548205 153.517397 176.289822 154.338082 174.812589 L 154.99463 171.256287 C 155.213479 170.435602 155.815315 169.231931 156.417151 169.122506 C 157.511397 169.505492 158.222658 170.763876 159.20748 171.256287 C 159.809315 172.405246 161.778959 172.405246 162.654357 171.639273 C 162.599644 168.73952 161.833672 165.620917 160.739425 163.322999 C 159.973452 162.17404 158.933918 160.751519 158.27737 159.985546 C 155.541753 159.383711 153.298548 161.298642 150.891205 161.298642 C 150.398794 160.696807 151.110054 159.930834 151.493041 159.110149 C 148.483862 141.766339 152.259013 121.413351 148.702712 105.656199 C 147.882027 101.607486 145.474684 99.364281 145.85767 96.355102 C 147.006629 93.783622 145.036985 91.868691 145.255835 90.227321 C 145.802958 90.391458 146.185944 91.266855 146.185944 91.540417 C 149.35926 92.142252 153.079698 90.719732 155.70589 89.953759 C 156.471863 90.282033 157.292548 91.048006 158.441507 90.555595 C 160.575288 90.282033 161.177124 87.984115 161.943096 86.780444 L 163.365617 86.342745 C 163.092055 86.561594 163.365617 86.616307 163.91274 86.23332 C 164.788138 86.014471 165.280549 84.920224 167.195481 85.740909 C 167.687892 86.616307 169.165125 86.014471 169.438686 85.740909 C 170.587645 83.224142 172.830851 81.582772 175.511755 79.503703 C 176.113591 76.822799 174.417509 74.470169 174.636358 71.843977 C 171.791317 69.983757 172.612002 65.935045 169.76696 65.169072 C 169.219837 64.840798 168.946275 64.293675 168.399152 64.238962 L 168.070878 62.54288 C 167.304905 61.558058 165.991809 60.463811 165.171124 60.299674 C 164.897562 60.244962 164.350439 59.9714 164.076877 59.643126 C 160.411151 57.782907 154.721068 57.345208 149.249835 59.369565 C 147.49904 60.19025 145.638821 60.080825 144.763424 60.846798 L 143.942739 62.707017 C 143.942739 63.035291 143.778602 63.25414 143.176766 63.637127 C 140.93356 63.910688 140.058163 66.044469 140.058163 67.849976 L 140.277012 72.883511 C 140.003451 73.10236 139.018629 73.047648 138.143231 73.157073 C 136.2283 70.913867 136.501861 66.919867 133.65682 65.223784 C 132.836135 64.89551 131.140053 64.786086 130.647642 65.82562 C 130.592929 66.646305 130.647642 67.904689 130.647642 68.451812 C 129.225121 68.780086 128.349724 69.272497 127.255477 68.780086 C 124.027449 68.725374 122.604928 73.211785 119.212764 73.375922 C 116.31301 70.695018 110.841777 62.707017 109.200407 59.533702 C 107.559037 55.156715 113.850955 53.351208 116.148873 50.342029 C 119.705175 47.825262 129.881669 44.761371 130.155231 42.84644 C 135.462327 44.870796 140.605286 47.5517 147.061342 46.074467 C 151.493041 44.706659 155.815315 43.065289 159.043343 39.126001 C 158.715069 37.70348 158.933918 36.335672 159.316904 34.858439 C 157.620822 29.223069 154.502219 25.830904 149.304547 23.532986 C 147.991451 22.438739 146.185944 22.329315 145.255835 21.28978 C 143.888026 18.335314 145.365259 15.380848 145.036985 11.879259 C 144.2163 10.183176 143.176766 8.87008 141.754245 8.760656 C 141.15241 9.143642 140.386437 8.541806 139.784601 9.034217 C 139.29219 9.581341 137.979094 9.034217 137.705533 8.760656 C 137.431971 8.487094 137.431971 8.213532 137.322546 7.885258 C 136.556574 6.900436 134.532217 6.079751 132.562573 5.915614 L 128.677998 9.143642 L 125.44997 11.386848 C 119.541038 9.636053 113.467969 9.909615 107.230763 12.809368 C 105.206406 13.903615 105.425256 16.420382 104.878132 18.882438 C 105.75353 26.378027 111.279475 29.387206 115.054626 34.201891 C 115.3829 35.35085 114.726352 36.116823 114.288654 37.046932 C 108.762708 41.806905 104.385721 46.238604 98.476789 49.959043 C 96.343008 52.47581 92.950844 53.187071 92.950844 57.509345 C 92.950844 65.11436 95.68646 72.500525 99.735173 77.041648 C 100.774707 79.88669 102.580214 80.707375 104.495146 83.060005 C 105.370543 84.482526 106.300653 85.52206 107.066626 86.671019 C 110.075804 99.856692 99.516324 116.325104 108.543859 128.142968 C 109.419256 129.729626 108.762708 130.76916 107.996735 132.136968 C 105.972379 134.599023 105.698817 138.593024 105.096982 141.766339 C 101.595392 141.109791 98.531502 138.921298 95.084625 140.234394 C 93.880953 139.741983 93.662104 138.593024 92.896131 137.717627 C 85.455254 127.158146 69.971663 129.674913 59.357471 127.322283 L 57.661388 125.407351 C 60.561142 119.771981 62.530786 113.534775 62.257224 107.024007 C 62.530786 103.467706 61.491252 99.911404 60.944128 95.753266 C 60.397005 91.813978 57.606676 89.570773 55.418183 86.069183 C 54.105087 85.029649 52.463717 84.920224 50.931771 84.099539 C 46.007661 82.129895 40.044017 79.777265 34.353934 82.294032 C 29.758098 83.661841 28.992125 89.406636 25.162262 93.291211 C 21.715385 97.230499 18.159083 101.279212 20.949412 107.954117 C 19.308042 111.565131 18.104371 114.847871 16.189439 118.185323 C 15.915878 120.100255 15.04048 122.124611 14.766919 124.313105 C 13.508535 128.635379 8.310863 136.185681 12.906699 137.33464 C 13.344398 140.945654 12.031302 144.009545 11.374754 146.909299 C 10.772918 150.027902 10.827631 153.091792 10.225795 155.663272 C 8.310863 155.006724 12.250151 157.03108 11.320042 158.234752 C 12.68785 162.338177 7.599603 167.09815 9.623959 170.873301 C 9.897521 170.873301 10.11637 171.146862 10.389932 171.201575 C 16.244152 167.973547 15.368754 158.508313 22.53607 156.374532 C 25.435824 152.818231 26.475358 147.784696 27.405468 142.696449 C 28.937413 138.811873 27.405468 134.708448 30.086372 130.0579 C 33.204975 125.790338 35.174619 119.607844 36.815989 113.863049 C 37.964948 113.42535 39.66103 113.097076 40.809989 113.042364 L 42.779633 117.474063 L 43.600318 119.334282 C 43.928592 120.428529 44.475716 121.030365 45.077551 122.617022 C 45.569962 125.516776 46.390648 127.814694 46.44536 131.261571 C 45.624675 132.902941 42.998483 133.942475 40.919414 135.747982 C 39.989304 136.951654 38.347934 138.483599 37.034838 139.632558 C 34.627496 141.821052 32.603139 144.720805 30.305221 147.729984 C 28.116728 152.872943 25.928235 157.687628 23.849166 163.377711 C 23.083193 166.660451 23.083193 170.928013 24.451002 174.922013 C 24.998125 177.712343 26.913057 180.338535 27.131906 183.074151 C 28.499714 185.700343 29.593961 188.107686 30.414646 190.515029 C 29.539249 193.250645 28.663851 193.852481 25.982947 195.603276 C 22.645495 197.737057 21.496536 199.597276 16.736563 203.591276 C 13.508535 205.725057 7.380754 211.524565 8.201439 217.542922 C 10.663494 222.521744 16.68185 222.521744 21.332399 224.929087 C 25.928235 227.445854 30.141084 229.087224 34.518071 230.783306 L 31.071194 236.199827 C 30.469358 236.746951 30.086372 237.950622 30.414646 239.373143 C 25.545248 243.203006 45.734099 257.154651 50.65821 267.714132 C 52.026018 272.255255 53.7221 275.811557 56.950128 278.109475 L 55.199333 281.009229 C 54.159799 284.291969 57.333114 286.42575 58.482073 288.559531 C 59.904594 291.842271 61.272402 294.851449 65.047553 297.313504 C 66.251225 297.970052 67.290759 297.313504 68.166156 296.27397 C 71.941307 288.668955 69.260403 280.735667 67.454896 272.583529 C 62.202512 264.86909 56.184155 256.333966 50.986484 248.783664 C 49.01684 246.431034 48.79799 243.914266 50.548785 240.850376 C 50.384648 240.576814 50.712922 240.576814 50.712922 240.576814 C 51.643032 241.069225 51.095908 240.905088 51.588319 241.616348 C 53.229689 242.546458 55.308758 244.899088 57.880238 244.24254 C 58.427361 244.46139 58.974484 244.899088 58.755635 245.446212 C 58.755635 245.446212 58.482073 245.665061 58.427361 246.212184 C 57.059553 247.962979 57.442539 248.236541 56.238868 250.09676 C 55.965306 253.981336 61.327115 255.567993 62.804348 258.577172 C 64.008019 259.069583 63.953307 259.616706 65.375827 259.835556 C 66.470074 260.492104 68.220869 261.58635 68.986841 259.94498 C 68.767992 259.397857 69.643389 256.935802 70.299937 255.73213 C 68.767992 247.470568 70.190513 244.680239 66.688923 236.582814 C 64.008019 234.558457 58.86506 230.236183 55.965306 229.032512 C 62.530786 221.318073 64.828704 214.971442 71.77717 205.342071 C 74.129801 204.247824 76.755993 206.545742 78.452075 208.1324 C 78.999198 210.813304 80.421719 212.728236 80.968842 214.971442 C 80.91413 215.245003 80.640568 215.518565 80.640568 215.518565 L 75.442897 217.925908 L 72.597855 222.302895 L 75.99002 227.938265 C 76.646568 228.211827 76.646568 228.813662 77.193691 229.087224 L 78.069089 230.017334 C 78.835061 229.634347 79.108623 229.634347 79.382185 229.68906 C 80.038733 230.017334 80.531144 229.579635 80.038733 230.290895 C 79.765171 234.558457 81.297116 238.224184 83.157336 241.835198 C 85.400541 244.023691 85.12698 246.376321 86.713638 247.306431 C 88.136158 247.251719 89.558679 246.978157 90.598213 245.938623 C 91.145337 242.491746 91.200049 239.482567 91.418898 235.871553 C 91.200049 235.160293 92.020734 233.68306 92.62257 233.190649 C 92.567857 233.464211 93.114981 233.792485 93.388542 234.066046 C 95.412899 237.403499 96.452433 240.24854 99.735173 243.640705 C 101.157694 245.391499 102.799064 248.400678 105.425256 248.728952 C 105.972379 249.330787 106.793064 249.659061 107.121338 250.643883 L 106.46479 251.956979 C 105.644105 251.902267 105.698817 253.051226 104.221584 253.926623 C 100.665283 264.704953 109.255119 277.234078 109.966379 288.614243 C 111.881311 291.623421 112.045448 295.125011 111.553037 298.407751 C 112.264297 302.182902 112.592571 305.520354 114.343366 309.240793 C 114.452791 315.204437 115.273476 319.96441 113.905667 325.81863 C 108.653283 332.110548 114.999914 340.262686 114.069804 347.703564 C 116.258298 350.712742 120.635284 350.220331 123.097339 353.01066 C 124.465148 353.503071 126.270655 355.418003 128.076162 354.159619 C 127.747888 348.305399 124.51986 340.481536 125.066983 334.189617 C 123.644463 326.74874 122.823778 320.620958 122.003093 313.891341 C 123.316189 310.936875 122.276654 307.818272 121.94838 304.754382 C 121.510682 302.784738 122.604928 301.088655 122.057805 299.119011 C 122.16723 287.355859 122.386079 273.951338 125.668819 262.680597 C 126.270655 261.914624 126.544217 261.914624 127.419614 261.531638 C 131.851313 260.327967 135.243478 255.841555 139.565752 256.443391 C 139.565752 256.443391 139.29219 274.553173 139.51104 273.732488 C 140.003451 287.027585 139.346903 306.341039 139.346903 306.341039 C 138.799779 306.341039 138.471505 306.997587 137.486683 307.0523 C 135.29819 310.11619 129.115696 310.389752 127.638463 315.25915 C 127.693176 316.626958 126.872491 318.268328 128.240299 318.870164 C 130.975916 319.800273 133.273834 317.283506 135.626464 315.915698 C 135.790601 315.368574 137.486683 315.204437 138.471505 315.423287 C 138.58093 315.97041 138.526218 316.517533 138.471505 317.392931 C 136.665998 320.839808 133.054984 320.89452 129.936381 322.590602 C 129.389258 323.137726 129.279833 324.505534 129.334546 325.599781 C 130.975916 328.335397 133.766245 330.906877 137.158409 332.657672 C 148.319725 331.016302 159.098055 321.82463 172.229015 320.620958 C 178.739783 319.25315 180.600002 312.742382 186.946633 310.827451 L 203.250908 306.12219 C 203.52447 305.848628 203.52447 305.848628 203.579182 305.575067 L 203.579182 303.660135 L 194.38751 297.91534 C 193.621538 297.149367 194.442223 295.672134 194.770497 294.906161 C 195.810031 294.249613 196.740141 294.577887 197.834387 294.687312 C 200.077593 294.960874 201.609538 297.149367 202.375511 298.298326 C 202.649073 298.188902 202.649073 298.188902 202.977347 298.188902 L 204.673429 297.368217 C 205.275265 297.094655 205.220552 295.726846 204.618717 294.304326 C 202.977347 289.763202 198.381511 287.246435 194.442223 283.252434 C 194.004524 281.556352 192.089592 278.656598 193.019702 277.069941 C 197.615538 275.975694 201.17184 281.611064 204.399867 283.361859 C 205.111128 283.525996 206.752498 283.908982 206.643073 283.088297 C 206.971347 282.431749 207.73732 281.939338 207.73732 281.665777 C 207.299621 279.969694 206.150662 278.2189 205.384689 277.069941 Z M 39.113907 219.457853 C 36.268866 217.488209 33.861523 215.62799 31.180619 213.822483 C 37.472537 210.758592 41.466537 209.77377 46.007661 206.655167 C 43.600318 211.032154 41.357113 215.026154 39.113907 219.457853 Z M 134.969916 164.800232 C 134.641642 164.745519 134.641642 164.745519 134.36808 164.745519 C 130.264655 159.493135 134.532217 152.599381 132.836135 146.635737 C 130.592929 140.562668 134.58693 135.310284 135.517039 130.112612 C 136.337724 130.003187 136.93956 130.0579 136.830135 129.346639 L 136.556574 127.376995 L 137.048985 129.784338 C 137.924382 133.723626 135.735889 136.896941 136.283012 141.219216 C 137.322546 146.690449 136.2283 152.544669 139.128053 156.757519 C 139.128053 158.836587 140.495862 159.493135 141.042985 161.572204 C 140.167588 164.307821 136.994272 163.541848 134.969916 164.800232 Z M 150.836493 296.492819 C 149.195123 298.024765 147.280191 301.471642 145.474684 303.167724 C 144.325725 297.149367 145.365259 286.699311 145.419972 279.914982 C 145.365259 274.389036 145.14641 267.002871 145.967095 261.148652 L 146.514218 261.422213 C 151.602465 267.331145 155.104055 275.592708 159.043343 283.197722 C 156.636 288.012407 152.204301 291.021586 150.836493 296.492819 Z M 150.836493 296.492819 " transform="matrix(0.0713962,0,0,0.0713962,10.223043,-0.367665)"/>
<path style=" stroke:none;fill-rule:nonzero;fill:rgb(0%,0%,0%);fill-opacity:1;" d="M 23.347656 23.976562 C 23.480469 23.964844 23.59375 24.019531 23.664062 24.082031 C 23.734375 24.140625 23.792969 24.234375 23.804688 24.355469 C 23.816406 24.496094 23.761719 24.59375 23.695312 24.664062 C 23.625 24.742188 23.539062 24.792969 23.414062 24.800781 C 23.167969 24.820312 22.980469 24.648438 22.960938 24.425781 C 22.949219 24.285156 23.003906 24.183594 23.066406 24.113281 C 23.128906 24.046875 23.222656 23.988281 23.347656 23.976562 Z M 23.089844 24.195312 C 23.054688 24.246094 23.019531 24.316406 23.027344 24.417969 C 23.046875 24.6875 23.375 24.824219 23.597656 24.664062 C 23.675781 24.605469 23.742188 24.5 23.734375 24.367188 C 23.730469 24.300781 23.707031 24.246094 23.675781 24.199219 C 23.621094 24.125 23.507812 24.042969 23.347656 24.054688 C 23.230469 24.066406 23.140625 24.125 23.089844 24.195312 Z M 23.089844 24.195312 "/>
<path style=" stroke:none;fill-rule:nonzero;fill:rgb(0%,0%,0%);fill-opacity:1;" d="M 23.476562 24.550781 C 23.457031 24.546875 23.4375 24.503906 23.425781 24.488281 C 23.40625 24.464844 23.394531 24.441406 23.375 24.425781 C 23.363281 24.425781 23.347656 24.425781 23.335938 24.425781 C 23.335938 24.464844 23.339844 24.515625 23.332031 24.550781 C 23.304688 24.550781 23.277344 24.550781 23.246094 24.550781 C 23.242188 24.441406 23.246094 24.324219 23.246094 24.210938 C 23.246094 24.207031 23.246094 24.203125 23.25 24.203125 C 23.375 24.207031 23.53125 24.179688 23.535156 24.292969 C 23.539062 24.347656 23.507812 24.382812 23.46875 24.402344 C 23.5 24.457031 23.546875 24.496094 23.582031 24.550781 M 23.4375 24.285156 C 23.421875 24.261719 23.378906 24.269531 23.335938 24.269531 C 23.335938 24.296875 23.335938 24.328125 23.335938 24.359375 C 23.398438 24.375 23.46875 24.339844 23.4375 24.285156 Z M 23.4375 24.285156 "/>
</g>
</svg>
