<?xml version="1.0" encoding="UTF-8"?>
<svg xmlns="http://www.w3.org/2000/svg" xmlns:xlink="http://www.w3.org/1999/xlink" width="15pt" height="25pt" viewBox="0 0 15 25" version="1.1">
<g id="surface1">
<path style="fill-rule:nonzero;fill:rgb(28.627451%,18.431373%,14.117647%);fill-opacity:1;stroke-width:1.5;stroke-linecap:butt;stroke-linejoin:miter;stroke:rgb(100%,76.862745%,14.509804%);stroke-opacity:1;stroke-miterlimit:4;" d="M 205.36875 277.03125 C 200.8125 274.5 198.225 266.90625 192.4875 264.825 C 192.20625 264.54375 192.20625 264.54375 192.2625 264.2625 C 192.54375 264.2625 192.825 264.0375 193.3875 264.0375 C 195.75 263.8125 197.15625 261.84375 198.3375 259.5375 C 198.61875 259.14375 198.7875 258.91875 199.18125 259.2 C 199.40625 259.65 199.74375 259.25625 199.96875 259.65 C 201.2625 261.5625 201.7125 263.53125 203.5125 263.75625 C 203.79375 263.8125 203.9625 262.96875 203.9625 262.96875 C 204.525 261.05625 203.79375 259.65 202.66875 257.90625 C 199.6875 253.6875 196.3125 249.58125 191.75625 248.7375 C 189 248.2875 185.68125 247.33125 184.05 246.2625 L 181.85625 244.18125 C 181.74375 243.3375 181.2375 242.49375 182.08125 242.26875 C 183.825 241.70625 184.55625 243.1125 185.9625 243.61875 C 187.3125 244.40625 189.225 246.88125 190.575 245.30625 C 190.575 245.30625 190.63125 245.08125 190.9125 244.8 C 188.49375 235.51875 181.63125 230.625 174.76875 226.40625 C 174.76875 226.125 174.65625 225.84375 174.65625 225.84375 L 176.23125 223.7625 L 178.36875 225.5625 L 180.16875 227.3625 C 181.0125 227.25 181.9125 227.025 182.19375 226.51875 C 182.475 225 181.9125 224.38125 181.575 223.25625 C 179.49375 219.15 174.7125 219.375 170.1 216.675 C 169.875 216.1125 169.25625 214.81875 169.875 214.2 C 170.15625 214.2 170.71875 214.25625 170.71875 214.25625 L 173.7 217.63125 L 175.6125 218.30625 C 175.66875 217.9125 175.8375 216.7875 176.175 216.1125 C 175.66875 215.15625 175.89375 214.03125 175.275 212.625 C 174.54375 209.3625 172.18125 206.8875 169.3125 206.1 C 170.26875 198.45 165.09375 191.86875 167.00625 184.66875 C 167.00625 184.3875 166.66875 183.375 166.21875 183.375 C 165.9375 183.6 165.375 183.6 165.09375 183.54375 L 163.6875 183.6 L 162 195.80625 L 160.48125 197.2125 C 159.975 196.93125 159.69375 196.875 159.01875 196.59375 C 156.2625 191.8125 155.41875 185.11875 150.58125 181.9125 C 150.58125 181.9125 150.35625 181.85625 149.90625 181.575 C 148.8375 180.7875 149.11875 179.4375 148.89375 178.3125 C 149.23125 177.80625 149.79375 177.69375 150.1875 177.4125 C 151.59375 177.525 153.50625 176.2875 154.29375 174.825 L 154.96875 171.28125 C 155.19375 170.4375 155.8125 169.25625 156.375 169.14375 C 157.5 169.48125 158.23125 170.775 159.1875 171.28125 C 159.80625 172.40625 161.775 172.40625 162.675 171.61875 C 162.61875 168.75 161.83125 165.65625 160.70625 163.35 C 159.975 162.16875 158.9625 160.70625 158.2875 159.975 C 155.53125 159.4125 153.28125 161.325 150.91875 161.325 C 150.35625 160.70625 151.14375 159.91875 151.48125 159.13125 C 148.44375 141.75 152.26875 121.3875 148.725 105.69375 C 147.88125 101.5875 145.4625 99.3375 145.85625 96.35625 C 146.98125 93.76875 145.0125 91.85625 145.29375 90.225 C 145.8 90.39375 146.19375 91.2375 146.19375 91.51875 C 149.34375 92.1375 153.1125 90.73125 155.7 89.94375 C 156.4875 90.28125 157.275 91.0125 158.45625 90.5625 C 160.59375 90.28125 161.15625 87.975 161.94375 86.79375 L 163.35 86.34375 C 163.06875 86.56875 163.35 86.56875 163.9125 86.23125 C 164.8125 86.00625 165.31875 84.9375 167.175 85.725 C 167.68125 86.625 169.14375 86.00625 169.425 85.78125 C 170.60625 83.19375 172.8 81.5625 175.5 79.5375 C 176.11875 76.78125 174.43125 74.475 174.6 71.83125 C 171.7875 70.03125 172.63125 65.925 169.7625 65.1375 C 169.2 64.85625 168.975 64.29375 168.4125 64.2375 L 168.075 62.55 C 167.34375 61.5375 165.99375 60.46875 165.15 60.3 C 164.86875 60.24375 164.3625 59.9625 164.08125 59.68125 C 160.425 57.76875 154.6875 57.375 149.23125 59.34375 C 147.4875 60.1875 145.6875 60.075 144.7875 60.8625 L 143.94375 62.71875 C 143.94375 63 143.775 63.28125 143.15625 63.675 C 140.90625 63.9 140.0625 66.09375 140.0625 67.89375 L 140.2875 72.84375 C 140.00625 73.125 138.99375 73.06875 138.15 73.125 C 136.2375 70.93125 136.51875 66.9375 133.65 65.19375 C 132.8625 64.9125 131.175 64.8 130.66875 65.86875 C 130.6125 66.65625 130.66875 67.95 130.6125 68.45625 C 129.20625 68.79375 128.30625 69.3 127.2375 68.79375 C 124.03125 68.7375 122.56875 73.18125 119.19375 73.35 C 116.325 70.70625 110.8125 62.71875 109.18125 59.56875 C 107.55 55.125 113.85 53.38125 116.15625 50.34375 C 119.7 47.8125 129.88125 44.775 130.1625 42.8625 C 135.50625 44.8875 140.625 47.5875 147.0375 46.06875 C 151.48125 44.71875 155.8125 43.03125 159.01875 39.15 C 158.7375 37.74375 158.9625 36.3375 159.35625 34.875 C 157.6125 29.19375 154.4625 25.81875 149.2875 23.5125 C 147.99375 22.44375 146.1375 22.33125 145.2375 21.31875 C 143.8875 18.3375 145.35 15.35625 145.06875 11.86875 C 144.16875 10.18125 143.15625 8.83125 141.75 8.775 C 141.1875 9.1125 140.4 8.55 139.78125 9.05625 C 139.33125 9.5625 137.98125 9.05625 137.7 8.775 C 137.41875 8.49375 137.475 8.2125 137.30625 7.93125 C 136.575 6.8625 134.49375 6.075 132.58125 5.90625 L 128.7 9.1125 L 125.4375 11.41875 C 119.53125 9.61875 113.45625 9.9 107.2125 12.76875 C 105.1875 13.89375 105.46875 16.425 104.85 18.84375 C 105.75 26.38125 111.2625 29.41875 115.03125 34.2 C 115.36875 35.325 114.75 36.1125 114.24375 37.06875 C 108.73125 41.79375 104.4 46.2375 98.49375 49.95 C 96.35625 52.48125 92.925 53.2125 92.925 57.4875 C 92.98125 65.08125 95.68125 72.45 99.73125 77.0625 C 100.8 79.875 102.54375 80.6625 104.5125 83.025 C 105.35625 84.4875 106.3125 85.5 107.04375 86.68125 C 110.08125 99.9 99.5625 116.325 108.5625 128.1375 C 109.40625 129.7125 108.7875 130.78125 108 132.13125 C 105.975 134.60625 105.75 138.6 105.075 141.75 C 101.64375 141.075 98.55 138.9375 95.0625 140.23125 C 93.88125 139.725 93.65625 138.6 92.86875 137.75625 C 85.44375 127.125 69.975 129.65625 59.34375 127.29375 L 57.65625 125.38125 C 60.58125 119.75625 62.55 113.56875 62.26875 107.04375 C 62.55 103.44375 61.48125 99.9 60.975 95.7375 C 60.35625 91.8 57.6 89.55 55.4625 86.0625 C 54.1125 85.05 52.425 84.9375 50.9625 84.09375 C 46.0125 82.125 39.99375 79.7625 34.36875 82.29375 C 29.75625 83.64375 28.96875 89.4375 25.2 93.31875 C 21.7125 97.2 18.16875 101.25 20.925 107.94375 C 19.29375 111.6 18.1125 114.80625 16.2 118.18125 C 15.91875 120.09375 15.075 122.11875 14.79375 124.3125 C 13.5 128.64375 8.325 136.18125 12.88125 137.30625 C 13.33125 140.9625 11.98125 144 11.3625 146.86875 C 10.74375 150.01875 10.8 153.05625 10.2375 155.64375 C 8.325 154.96875 12.20625 157.05 11.30625 158.23125 C 12.7125 162.3375 7.59375 167.11875 9.61875 170.83125 C 9.9 170.8875 10.125 171.16875 10.40625 171.16875 C 16.25625 167.9625 15.35625 158.5125 22.5 156.375 C 25.425 152.83125 26.49375 147.76875 27.39375 142.70625 C 28.9125 138.825 27.39375 134.71875 30.09375 130.05 C 33.1875 125.83125 35.15625 119.5875 36.84375 113.90625 C 37.96875 113.4 39.7125 113.11875 40.8375 113.0625 L 42.75 117.45 L 43.59375 119.30625 C 43.93125 120.43125 44.49375 121.05 45.05625 122.625 C 45.5625 125.55 46.40625 127.8 46.4625 131.2875 C 45.61875 132.8625 43.03125 133.93125 40.95 135.73125 C 39.99375 136.9125 38.3625 138.4875 37.0125 139.6125 C 34.59375 141.80625 32.56875 144.73125 30.2625 147.76875 C 28.125 152.8875 25.93125 157.725 23.85 163.35 C 23.0625 166.6125 23.0625 170.94375 24.46875 174.88125 C 24.975 177.69375 26.8875 180.3375 27.16875 183.09375 C 28.51875 185.68125 29.5875 188.1 30.43125 190.51875 C 29.53125 193.21875 28.63125 193.8375 25.9875 195.6375 C 22.6125 197.71875 21.4875 199.63125 16.7625 203.56875 C 13.5 205.70625 7.36875 211.5 8.2125 217.51875 C 10.6875 222.525 16.70625 222.525 21.31875 224.8875 C 25.93125 227.41875 30.15 229.10625 34.5375 230.79375 L 31.05 236.19375 C 30.4875 236.75625 30.09375 237.9375 30.43125 239.34375 C 25.5375 243.16875 45.7875 257.11875 50.625 267.69375 C 52.03125 272.25 53.71875 275.79375 56.925 278.1 L 55.18125 281.025 C 54.1125 284.2875 57.375 286.425 58.44375 288.5625 C 59.90625 291.88125 61.25625 294.8625 65.025 297.3375 C 66.2625 297.95625 67.275 297.3375 68.175 296.26875 C 71.94375 288.675 69.24375 280.74375 67.44375 272.5875 C 62.2125 264.88125 56.19375 256.33125 50.9625 248.79375 C 49.05 246.43125 48.76875 243.9 50.5125 240.8625 C 50.4 240.58125 50.68125 240.58125 50.68125 240.58125 C 51.6375 241.0875 51.075 240.91875 51.58125 241.59375 C 53.2125 242.55 55.29375 244.9125 57.88125 244.2375 C 58.44375 244.4625 58.95 244.9125 58.78125 245.41875 C 58.78125 245.41875 58.5 245.7 58.44375 246.2625 C 57.0375 247.95 57.4875 248.23125 56.19375 250.0875 C 55.96875 253.96875 61.3125 255.54375 62.775 258.58125 C 64.0125 259.0875 63.95625 259.59375 65.3625 259.875 C 66.43125 260.49375 68.175 261.5625 69.01875 259.93125 C 68.79375 259.36875 69.6375 256.95 70.25625 255.76875 C 68.7375 247.5 70.2 244.6875 66.7125 236.53125 C 64.0125 234.5625 58.8375 230.23125 55.96875 229.05 C 62.55 221.34375 64.8 214.9875 71.775 205.36875 C 74.1375 204.24375 76.78125 206.49375 78.46875 208.18125 C 78.975 210.825 80.38125 212.7375 80.94375 214.9875 C 80.94375 215.26875 80.6625 215.49375 80.6625 215.49375 L 75.43125 217.9125 L 72.5625 222.3 L 75.99375 227.925 C 76.66875 228.2625 76.6125 228.76875 77.175 229.10625 L 78.075 230.00625 C 78.80625 229.6125 79.0875 229.66875 79.36875 229.66875 C 80.04375 230.00625 80.49375 229.6125 80.04375 230.2875 C 79.7625 234.5625 81.3375 238.21875 83.19375 241.81875 C 85.3875 244.06875 85.10625 246.375 86.7375 247.33125 C 88.14375 247.275 89.55 246.9375 90.61875 245.925 C 91.125 242.49375 91.18125 239.45625 91.4625 235.85625 C 91.2375 235.18125 92.025 233.71875 92.5875 233.2125 C 92.5875 233.4375 93.15 233.775 93.375 234.05625 C 95.4 237.375 96.46875 240.24375 99.73125 243.61875 C 101.19375 245.41875 102.76875 248.4 105.4125 248.7375 C 105.975 249.3 106.7625 249.6375 107.15625 250.65 L 106.48125 252 C 105.6375 251.94375 105.69375 253.0125 104.23125 253.9125 C 100.6875 264.7125 109.2375 277.2 109.96875 288.61875 C 111.88125 291.65625 112.05 295.0875 111.54375 298.40625 C 112.275 302.175 112.6125 305.55 114.3 309.20625 C 114.46875 315.225 115.25625 319.95 113.90625 325.8 C 108.675 332.1 114.975 340.25625 114.075 347.68125 C 116.2125 350.71875 120.6 350.2125 123.075 352.96875 C 124.48125 353.53125 126.28125 355.44375 128.08125 354.15 C 127.74375 348.35625 124.5375 340.48125 125.1 334.18125 C 123.6375 326.75625 122.79375 320.625 122.00625 313.93125 C 123.3 310.95 122.2875 307.85625 121.95 304.7625 C 121.5 302.79375 122.625 301.10625 122.0625 299.08125 C 122.11875 287.325 122.34375 273.9375 125.6625 262.6875 C 126.28125 261.9 126.5625 261.9 127.40625 261.5625 C 131.85 260.325 135.28125 255.88125 139.55625 256.44375 C 139.55625 256.44375 139.33125 274.55625 139.5 273.7125 C 140.00625 287.04375 139.3875 306.3375 139.3875 306.3375 C 138.825 306.3375 138.4875 307.0125 137.475 307.06875 C 135.3375 310.10625 129.09375 310.3875 127.6875 315.28125 C 127.6875 316.63125 126.9 318.2625 128.25 318.88125 C 131.00625 319.78125 133.25625 317.30625 135.61875 315.95625 C 135.7875 315.39375 137.475 315.225 138.43125 315.45 C 138.54375 316.0125 138.54375 316.51875 138.4875 317.3625 C 136.6875 320.85 133.03125 320.90625 129.9375 322.59375 C 129.375 323.1 129.2625 324.50625 129.31875 325.63125 C 130.95 328.33125 133.7625 330.8625 137.1375 332.6625 C 148.33125 331.03125 159.075 321.80625 172.2375 320.625 C 178.7625 319.275 180.61875 312.75 186.91875 310.8375 L 203.23125 306.1125 C 203.56875 305.83125 203.56875 305.83125 203.56875 305.55 L 203.56875 303.6375 L 194.4 297.9 C 193.6125 297.16875 194.4 295.70625 194.7375 294.8625 C 195.80625 294.24375 196.7625 294.58125 197.8875 294.69375 C 200.08125 294.975 201.6 297.16875 202.3875 298.29375 C 202.66875 298.18125 202.66875 298.18125 202.95 298.18125 L 204.69375 297.3375 C 205.25625 297.1125 205.2 295.70625 204.6375 294.3 C 202.95 289.74375 198.39375 287.2125 194.45625 283.21875 C 194.00625 281.53125 192.09375 278.6625 193.05 277.03125 C 197.60625 275.9625 201.15 281.5875 204.4125 283.33125 C 205.0875 283.55625 206.71875 283.95 206.6625 283.10625 C 207 282.43125 207.73125 281.925 207.73125 281.64375 C 207.28125 279.95625 206.15625 278.2125 205.36875 277.03125 Z M 39.09375 219.43125 C 36.28125 217.4625 33.8625 215.6625 31.21875 213.80625 C 37.4625 210.76875 41.45625 209.8125 46.0125 206.6625 C 43.59375 211.05 41.34375 215.04375 39.09375 219.43125 Z M 134.94375 164.75625 C 134.6625 164.75625 134.6625 164.75625 134.38125 164.75625 C 130.275 159.46875 134.49375 152.55 132.80625 146.64375 C 130.55625 140.56875 134.60625 135.28125 135.50625 130.10625 C 136.35 129.99375 136.9125 130.05 136.8 129.375 L 136.51875 127.40625 L 137.08125 129.76875 C 137.925 133.70625 135.73125 136.85625 136.29375 141.1875 C 137.30625 146.7 136.18125 152.55 139.1625 156.76875 C 139.1625 158.85 140.5125 159.46875 141.075 161.60625 C 140.175 164.30625 136.96875 163.51875 134.94375 164.75625 Z M 150.8625 296.49375 C 149.23125 298.0125 147.2625 301.5 145.4625 303.13125 C 144.3375 297.1125 145.35 286.70625 145.40625 279.9 C 145.35 274.3875 145.18125 267.01875 145.96875 261.1125 L 146.53125 261.45 C 151.59375 267.3 155.08125 275.56875 159.075 283.1625 C 156.65625 288 152.2125 291.0375 150.8625 296.49375 Z M 150.8625 296.49375 " transform="matrix(0.0694444,0,0,0.0694444,0,0)"/>
<path style=" stroke:none;fill-rule:nonzero;fill:rgb(0%,0%,0%);fill-opacity:1;" d="M 12.765625 23.679688 C 12.894531 23.667969 13.003906 23.71875 13.074219 23.78125 C 13.140625 23.839844 13.199219 23.929688 13.210938 24.046875 C 13.21875 24.183594 13.167969 24.28125 13.105469 24.347656 C 13.035156 24.421875 12.949219 24.472656 12.832031 24.480469 C 12.589844 24.5 12.410156 24.332031 12.390625 24.113281 C 12.378906 23.976562 12.429688 23.878906 12.492188 23.8125 C 12.554688 23.746094 12.640625 23.691406 12.765625 23.679688 Z M 12.515625 23.890625 C 12.480469 23.941406 12.445312 24.011719 12.453125 24.109375 C 12.472656 24.371094 12.792969 24.503906 13.007812 24.347656 C 13.082031 24.292969 13.152344 24.1875 13.140625 24.058594 C 13.136719 23.996094 13.117188 23.941406 13.082031 23.898438 C 13.03125 23.824219 12.917969 23.742188 12.765625 23.753906 C 12.652344 23.765625 12.566406 23.824219 12.515625 23.890625 Z M 12.515625 23.890625 "/>
<path style=" stroke:none;fill-rule:nonzero;fill:rgb(0%,0%,0%);fill-opacity:1;" d="M 12.890625 24.238281 C 12.875 24.234375 12.851562 24.191406 12.839844 24.175781 C 12.824219 24.152344 12.808594 24.128906 12.792969 24.113281 C 12.78125 24.113281 12.765625 24.113281 12.753906 24.113281 C 12.753906 24.15625 12.757812 24.203125 12.753906 24.238281 C 12.722656 24.238281 12.695312 24.238281 12.667969 24.238281 C 12.664062 24.132812 12.667969 24.015625 12.667969 23.90625 C 12.667969 23.902344 12.667969 23.898438 12.671875 23.898438 C 12.792969 23.902344 12.945312 23.875 12.949219 23.988281 C 12.953125 24.039062 12.921875 24.074219 12.882812 24.089844 C 12.914062 24.144531 12.960938 24.1875 12.992188 24.238281 M 12.851562 23.980469 C 12.839844 23.957031 12.796875 23.964844 12.753906 23.960938 C 12.753906 23.992188 12.753906 24.019531 12.753906 24.050781 C 12.816406 24.066406 12.882812 24.03125 12.851562 23.980469 Z M 12.851562 23.980469 "/>
</g>
</svg>
