<?xml version="1.0" encoding="UTF-8"?>
<svg xmlns="http://www.w3.org/2000/svg" xmlns:xlink="http://www.w3.org/1999/xlink" width="35pt" height="25pt" viewBox="0 0 35 25" version="1.1">
<g id="surface1">
<path style=" stroke:none;fill-rule:nonzero;fill:rgb(100%,100%,100%);fill-opacity:1;" d="M 10.605469 15.296875 L 9.480469 14.859375 L 9.78125 13.234375 L 9.84375 10.777344 L 16.394531 10.554688 L 20.695312 10.40625 L 25.164062 11.65625 L 21.628906 14.671875 L 22.824219 24.664062 L 16.941406 24.695312 L 16.117188 22.46875 L 11.777344 22.523438 L 9.964844 24.574219 L 3.640625 24.550781 Z M 10.605469 15.296875 "/>
<path style=" stroke:none;fill-rule:nonzero;fill:rgb(90.980392%,82.745098%,67.45098%);fill-opacity:1;" d="M 19.835938 11.894531 L 20.351562 11.804688 L 20.230469 10.75 L 15.375 10.761719 L 11.820312 10.773438 L 9.84375 10.777344 L 9.964844 11.472656 L 10.570312 12.53125 L 11.464844 12.878906 L 11.867188 12.769531 L 11.835938 12.539062 L 11.664062 12.175781 L 11.457031 11.878906 L 11.214844 11.585938 L 10.933594 11.351562 L 19.722656 11.34375 Z M 19.835938 11.894531 "/>
<path style=" stroke:none;fill-rule:nonzero;fill:rgb(90.980392%,82.745098%,67.45098%);fill-opacity:1;" d="M 11.292969 14.628906 L 3.628906 24.242188 L 9.964844 24.574219 L 11.777344 22.523438 L 16.425781 22.613281 L 16.941406 24.695312 L 22.824219 24.664062 L 20.804688 13.464844 L 20.433594 13.476562 L 20.046875 13.648438 L 21.828125 23.96875 L 17.753906 23.96875 L 17.152344 21.796875 L 11.203125 21.796875 L 9.632812 23.820312 L 4.804688 23.851562 L 8.742188 18.617188 L 11.777344 14.582031 Z M 11.292969 14.628906 "/>
<path style=" stroke:none;fill-rule:nonzero;fill:rgb(0%,0%,0%);fill-opacity:1;" d="M 14.96875 0.121094 C 15.074219 0.277344 15.027344 0.496094 15.035156 0.6875 C 15.230469 0.722656 15.433594 0.726562 15.605469 0.808594 C 15.652344 0.777344 15.695312 0.84375 15.742188 0.835938 C 15.914062 0.917969 16.117188 1.007812 16.253906 1.125 C 16.414062 1.230469 16.511719 1.433594 16.636719 1.589844 C 16.644531 1.625 16.667969 1.652344 16.679688 1.691406 C 16.738281 1.824219 16.769531 1.972656 16.792969 2.113281 C 16.789062 2.167969 16.820312 2.21875 16.820312 2.261719 C 16.832031 2.566406 16.863281 2.847656 16.816406 3.175781 C 16.835938 3.253906 16.957031 3.222656 17.019531 3.238281 C 17.085938 3.230469 17.148438 3.261719 17.207031 3.242188 C 17.667969 3.277344 18.144531 3.246094 18.609375 3.289062 C 18.96875 3.300781 19.347656 3.273438 19.699219 3.269531 C 20.238281 3.238281 20.757812 3.070312 21.222656 2.882812 C 21.457031 2.84375 21.65625 2.722656 21.890625 2.660156 C 22.515625 2.453125 23.136719 2.246094 23.777344 2.136719 C 23.792969 2.136719 23.820312 2.113281 23.851562 2.121094 C 24.734375 1.910156 25.601562 2.109375 26.4375 2.3125 L 26.464844 2.304688 L 26.8125 2.414062 C 26.839844 2.394531 26.84375 2.441406 26.871094 2.4375 C 27.25 2.53125 27.609375 2.664062 27.964844 2.820312 C 28.015625 2.851562 28.054688 2.894531 28.117188 2.90625 C 28.378906 3.070312 28.660156 3.214844 28.914062 3.382812 C 28.957031 3.386719 28.972656 3.433594 29.007812 3.445312 C 29.191406 3.542969 29.335938 3.707031 29.515625 3.792969 C 30.023438 4.203125 30.542969 4.6875 30.972656 5.15625 C 31.03125 5.207031 31.085938 5.277344 31.144531 5.34375 C 31.890625 6.273438 32.441406 7.273438 32.804688 8.402344 C 32.871094 8.710938 32.96875 9.054688 33.007812 9.378906 C 33.046875 9.566406 33.0625 9.761719 33.078125 9.960938 C 33.140625 10.859375 33.15625 11.789062 33.03125 12.710938 C 32.96875 13.585938 32.6875 14.496094 32.414062 15.316406 C 32.273438 15.699219 32.128906 16.085938 31.960938 16.460938 C 31.789062 16.808594 31.566406 17.128906 31.363281 17.457031 C 31.285156 17.574219 31.179688 17.6875 31.105469 17.800781 C 30.433594 18.644531 29.539062 19.292969 28.570312 19.730469 C 28.222656 19.867188 27.84375 20.007812 27.464844 20.058594 C 27.246094 20.136719 27.03125 20.113281 26.8125 20.171875 C 26.433594 20.234375 26.039062 20.214844 25.65625 20.308594 C 25.476562 20.292969 25.253906 20.316406 25.066406 20.28125 C 25.015625 20.277344 24.96875 20.316406 24.941406 20.363281 C 24.9375 20.46875 24.890625 20.558594 24.863281 20.65625 C 24.792969 20.945312 24.71875 21.265625 24.769531 21.554688 C 24.769531 21.851562 24.792969 22.183594 24.875 22.46875 C 24.859375 22.464844 24.855469 22.464844 24.839844 22.464844 L 24.816406 22.484375 C 24.765625 22.46875 24.683594 22.464844 24.621094 22.5 C 24.023438 22.605469 23.527344 22.617188 22.933594 22.59375 L 23.292969 24.980469 L 16.664062 24.980469 L 16.097656 22.921875 L 11.96875 22.917969 C 11.523438 23.34375 11.136719 23.84375 10.726562 24.296875 C 10.589844 24.507812 10.371094 24.691406 10.238281 24.898438 L 10.214844 24.910156 L 7.746094 24.910156 L 7.746094 24.898438 L 7.707031 24.910156 L 2.890625 24.910156 L 5.847656 20.714844 C 5.828125 20.6875 5.792969 20.714844 5.761719 20.714844 C 5.65625 20.753906 5.554688 20.800781 5.4375 20.800781 L 5.390625 20.828125 C 5.101562 20.808594 4.808594 20.898438 4.519531 20.9375 C 4.492188 20.972656 4.441406 20.941406 4.410156 20.96875 C 4.136719 21.070312 3.832031 21.097656 3.59375 21.269531 C 3.421875 21.332031 3.25 21.410156 3.097656 21.519531 C 3.074219 21.429688 3.125 21.375 3.160156 21.285156 C 3.3125 20.597656 3.566406 19.914062 4.035156 19.339844 C 4.617188 18.566406 5.402344 17.890625 6.285156 17.527344 C 6.882812 17.265625 7.464844 16.984375 8.015625 16.640625 C 8.496094 16.355469 8.878906 15.964844 9.207031 15.511719 C 9.359375 15.316406 9.460938 15.101562 9.480469 14.859375 L 11.292969 14.628906 L 11.3125 14.628906 C 10.300781 16.105469 9.25 17.394531 8.199219 18.824219 C 7.488281 19.746094 6.75 20.703125 6.046875 21.628906 L 4.953125 23.058594 C 4.699219 23.425781 4.394531 23.765625 4.183594 24.144531 C 4.898438 24.179688 5.691406 24.148438 6.445312 24.171875 C 7.476562 24.1875 8.5 24.132812 9.507812 24.164062 C 9.664062 24.09375 9.84375 24.257812 9.914062 24.03125 C 10.289062 23.613281 10.710938 23.160156 11.046875 22.710938 C 11.171875 22.53125 11.34375 22.347656 11.507812 22.191406 C 11.542969 22.199219 11.605469 22.199219 11.625 22.191406 L 16.824219 22.191406 L 16.816406 22.214844 L 17.339844 24.238281 L 17.339844 24.273438 L 22.316406 24.273438 L 21.878906 22.097656 C 21.546875 21.960938 21.3125 21.664062 21.007812 21.46875 L 20.792969 21.25 L 20.804688 21.335938 L 21.230469 23.574219 L 18.128906 23.574219 L 18.03125 23.140625 L 17.632812 21.367188 L 11.382812 21.363281 L 11.386719 21.359375 L 10.894531 21.347656 L 9.328125 23.515625 C 9.332031 23.511719 9.339844 23.511719 9.332031 23.5 L 9.328125 23.496094 L 9.261719 23.5625 L 5.894531 23.5625 L 6.984375 22.117188 C 7.898438 20.78125 8.921875 19.5 9.957031 18.179688 L 11.671875 15.898438 C 11.84375 15.675781 12.015625 15.441406 12.1875 15.203125 C 12.375 14.941406 12.585938 14.710938 12.769531 14.453125 L 19.367188 13.640625 C 19.398438 13.640625 19.378906 13.683594 19.398438 13.6875 C 19.382812 13.789062 19.40625 13.898438 19.441406 14.003906 C 19.425781 14.0625 19.457031 14.105469 19.453125 14.171875 C 19.453125 14.203125 19.476562 14.234375 19.472656 14.269531 C 19.523438 14.480469 19.539062 14.722656 19.585938 14.929688 L 20.589844 20.214844 L 20.589844 20.230469 C 20.796875 19.761719 21.128906 19.308594 21.4375 18.878906 C 21.339844 18.511719 21.3125 18.09375 21.191406 17.71875 C 21.15625 17.574219 21.140625 17.441406 21.097656 17.300781 C 21.019531 16.835938 20.953125 16.339844 20.875 15.847656 L 20.433594 13.476562 L 23.710938 12.238281 C 23.871094 12.179688 24.027344 12.117188 24.183594 12.050781 L 21.945312 11.816406 L 20.152344 11.847656 C 20.097656 11.5625 20.058594 11.285156 20.039062 11.003906 L 10.140625 11 C 10.292969 11.15625 10.550781 11.300781 10.691406 11.5 C 10.902344 11.75 11.109375 12.007812 11.308594 12.289062 C 11.335938 12.402344 11.449219 12.488281 11.449219 12.613281 C 11.453125 12.707031 11.464844 12.785156 11.464844 12.878906 C 10.902344 12.996094 10.351562 13.140625 9.78125 13.234375 L 9.726562 13.21875 C 9.523438 12.882812 9.285156 12.601562 8.980469 12.363281 L 8.863281 12.414062 C 8.554688 12.710938 8.226562 12.988281 7.925781 13.296875 C 8.078125 13.324219 8.234375 13.339844 8.375 13.402344 C 8.480469 13.449219 8.613281 13.523438 8.625 13.648438 C 8.863281 13.667969 9.105469 13.585938 9.355469 13.585938 C 10.414062 13.417969 11.445312 13.210938 12.5 13.113281 C 13.589844 12.933594 14.730469 12.855469 15.847656 12.691406 L 16.910156 12.554688 L 19.746094 12.21875 C 20.5625 12.128906 21.390625 12.109375 22.203125 12.09375 C 22.347656 12.101562 22.515625 12.085938 22.652344 12.128906 C 22.667969 12.15625 22.648438 12.164062 22.660156 12.191406 L 20.058594 13.1875 L 13.621094 14.035156 L 11.601562 14.308594 C 10.492188 14.457031 9.4375 14.609375 8.351562 14.660156 C 8.265625 14.703125 8.183594 14.660156 8.101562 14.679688 C 8.089844 14.832031 8.054688 14.976562 8.011719 15.113281 L 8.015625 15.113281 C 7.976562 15.347656 7.710938 15.511719 7.566406 15.710938 C 7.464844 15.773438 7.402344 15.863281 7.320312 15.941406 C 7.1875 16.042969 7.007812 16.144531 6.890625 16.234375 C 6.695312 16.289062 6.523438 16.382812 6.316406 16.414062 C 6.128906 16.445312 5.875 16.523438 5.667969 16.464844 C 5.15625 16.492188 4.628906 16.28125 4.410156 15.800781 C 4.308594 15.597656 4.242188 15.410156 4.199219 15.1875 C 4.144531 15.078125 4.191406 14.945312 4.113281 14.847656 C 4.035156 14.863281 3.90625 14.8125 3.890625 14.921875 C 3.882812 15.046875 3.796875 15.171875 3.691406 15.234375 C 3.472656 15.320312 3.265625 15.289062 3.09375 15.179688 C 2.828125 15.019531 2.722656 14.691406 2.753906 14.40625 C 2.765625 14.316406 2.816406 14.203125 2.878906 14.125 L 3.011719 13.972656 C 3.253906 13.835938 3.515625 13.910156 3.734375 14.03125 C 3.816406 14.074219 3.859375 14.265625 3.988281 14.175781 C 4.246094 14.15625 4.519531 14.125 4.769531 14.078125 C 4.820312 14.042969 4.792969 13.972656 4.835938 13.9375 C 4.847656 13.886719 4.917969 13.875 4.945312 13.828125 C 5.085938 13.59375 5.261719 13.371094 5.375 13.121094 C 5.492188 12.988281 5.605469 12.804688 5.578125 12.648438 C 5.511719 12.132812 5.402344 11.625 5.242188 11.140625 L 5.21875 11 C 5.492188 10.871094 5.8125 10.875 6.097656 10.78125 C 6.253906 10.59375 6.238281 10.328125 6.351562 10.125 C 6.363281 10.054688 6.34375 9.980469 6.316406 9.914062 C 6.292969 9.894531 6.285156 9.824219 6.253906 9.808594 C 6.15625 9.539062 6.019531 9.261719 5.917969 9.003906 C 5.878906 8.96875 5.859375 8.90625 5.886719 8.84375 C 6.222656 8.800781 6.5625 8.859375 6.910156 8.8125 C 7 8.835938 7.097656 8.796875 7.183594 8.773438 C 7.417969 8.359375 7.699219 7.953125 7.976562 7.558594 C 7.949219 7.390625 7.898438 7.214844 7.875 7.046875 C 7.84375 6.753906 7.863281 6.492188 7.917969 6.195312 C 7.980469 5.984375 8.023438 5.828125 8.089844 5.625 C 8.183594 5.476562 8.21875 5.300781 8.34375 5.167969 C 8.449219 5.003906 8.597656 4.886719 8.730469 4.738281 C 8.972656 4.589844 9.222656 4.386719 9.503906 4.308594 C 9.773438 4.1875 10.0625 4.140625 10.351562 4.058594 C 10.871094 4.042969 11.367188 4.023438 11.902344 3.976562 C 11.96875 3.996094 12.035156 3.964844 12.105469 3.980469 C 12.207031 3.964844 12.324219 3.964844 12.417969 3.933594 C 12.445312 3.558594 12.507812 3.167969 12.507812 2.804688 C 12.535156 2.773438 12.496094 2.742188 12.53125 2.71875 C 12.570312 2.539062 12.554688 2.394531 12.640625 2.25 C 12.628906 2.191406 12.691406 2.140625 12.679688 2.082031 C 12.785156 1.800781 12.925781 1.523438 13.109375 1.261719 C 13.292969 0.90625 13.695312 0.8125 14.027344 0.710938 C 14.039062 0.667969 14.078125 0.6875 14.101562 0.667969 C 14.25 0.554688 14.171875 0.351562 14.21875 0.183594 C 14.257812 0.0546875 14.398438 0.00390625 14.515625 -0.0195312 C 14.6875 -0.0234375 14.84375 0.0078125 14.96875 0.121094 Z M 14.96875 0.121094 "/>
<path style=" stroke:none;fill-rule:nonzero;fill:rgb(100%,100%,100%);fill-opacity:1;" d="M 14.199219 1.304688 L 14.199219 0.992188 C 13.804688 1.015625 13.386719 1.203125 13.207031 1.597656 C 12.800781 2.25 12.726562 3.050781 12.71875 3.851562 L 12.734375 3.875 C 12.796875 3.890625 12.863281 3.921875 12.910156 3.875 C 12.921875 3.847656 12.933594 3.816406 12.945312 3.789062 C 13.085938 2.882812 13.230469 1.640625 14.199219 1.304688 Z M 14.199219 1.304688 "/>
<path style=" stroke:none;fill-rule:nonzero;fill:rgb(85.490196%,85.882353%,85.882353%);fill-opacity:1;" d="M 12.945312 3.789062 C 12.984375 3.6875 13.019531 3.601562 13.0625 3.492188 C 13.289062 3.035156 13.613281 2.4375 14.199219 2.363281 L 14.199219 1.304688 C 13.230469 1.640625 13.085938 2.882812 12.945312 3.789062 Z M 12.945312 3.789062 "/>
<path style=" stroke:none;fill-rule:nonzero;fill:rgb(90.980392%,82.745098%,67.45098%);fill-opacity:1;" d="M 25.867188 2.519531 C 26.558594 2.695312 27.277344 2.820312 27.886719 3.191406 C 28.570312 3.597656 29.257812 4.03125 29.824219 4.570312 C 30.417969 5.121094 30.980469 5.753906 31.398438 6.441406 C 31.691406 6.917969 31.917969 7.386719 32.191406 7.847656 C 32.226562 7.996094 32.316406 8.105469 32.335938 8.25 C 32.429688 8.371094 32.449219 8.519531 32.507812 8.664062 C 32.539062 8.816406 32.582031 8.96875 32.613281 9.132812 C 32.613281 9.335938 32.683594 9.542969 32.683594 9.753906 C 32.722656 9.804688 32.6875 9.882812 32.710938 9.941406 C 32.765625 10.738281 32.8125 11.527344 32.652344 12.335938 C 32.664062 12.492188 32.589844 12.664062 32.570312 12.808594 C 32.535156 13.21875 32.441406 13.574219 32.378906 13.96875 C 32.316406 14.347656 32.191406 14.738281 32.054688 15.117188 C 31.992188 15.222656 31.988281 15.363281 31.882812 15.457031 L 31.898438 15.464844 C 31.855469 15.496094 31.878906 15.523438 31.847656 15.558594 C 31.820312 15.699219 31.695312 15.894531 31.585938 16.042969 C 31.585938 16.132812 31.492188 16.195312 31.488281 16.265625 C 31.238281 16.609375 31.035156 17.003906 30.75 17.339844 C 30.472656 17.757812 30.109375 18.128906 29.710938 18.453125 C 29.257812 18.792969 28.753906 19.035156 28.238281 19.253906 C 28.113281 19.277344 28.015625 19.335938 27.886719 19.339844 C 27.847656 19.042969 27.921875 18.722656 27.976562 18.421875 C 28.019531 18.296875 28.019531 18.175781 28.082031 18.0625 C 28.089844 18.015625 28.089844 17.972656 28.097656 17.921875 C 28.242188 17.28125 28.492188 16.703125 28.789062 16.128906 C 29.144531 15.460938 29.558594 14.828125 29.960938 14.1875 C 30.210938 13.851562 30.386719 13.464844 30.625 13.121094 C 30.886719 12.675781 31.050781 12.203125 31.160156 11.722656 C 31.296875 11.316406 31.257812 10.847656 31.164062 10.429688 C 31.132812 10.816406 31.128906 11.230469 30.941406 11.578125 C 30.734375 12.480469 30.105469 13.242188 29.515625 13.964844 C 28.515625 15.273438 27.230469 16.546875 26.117188 17.78125 C 25.65625 18.265625 25.117188 18.804688 24.75 19.375 C 24.375 20.042969 24.105469 20.753906 24.1875 21.550781 L 24.214844 22.023438 C 23.898438 22.082031 23.609375 22.050781 23.316406 22.027344 C 22.917969 21.941406 22.527344 21.832031 22.195312 21.574219 C 21.863281 21.347656 21.515625 21.125 21.238281 20.8125 C 21.089844 20.667969 21.25 20.527344 21.28125 20.371094 C 21.675781 19.589844 22.171875 18.910156 22.816406 18.300781 C 23.953125 17.136719 25.269531 16.292969 26.539062 15.332031 C 27.238281 14.8125 27.910156 14.34375 28.617188 13.816406 C 29.316406 13.273438 29.875 12.570312 30.210938 11.773438 C 30.300781 11.503906 30.417969 11.203125 30.449219 10.921875 C 30.558594 10.40625 30.527344 9.914062 30.550781 9.402344 C 30.546875 9.167969 30.546875 8.957031 30.535156 8.726562 L 30.542969 8.726562 C 30.5625 8.46875 30.542969 8.277344 30.511719 8.03125 C 30.441406 7.875 30.496094 7.746094 30.417969 7.582031 C 30.417969 7.53125 30.417969 7.480469 30.378906 7.4375 C 30.402344 7.390625 30.355469 7.359375 30.351562 7.320312 C 30.292969 7.03125 30.148438 6.757812 30.027344 6.519531 C 29.882812 6.316406 29.703125 6.113281 29.539062 5.9375 C 29.242188 5.644531 28.941406 5.378906 28.601562 5.160156 C 28.28125 4.90625 27.886719 4.746094 27.519531 4.574219 C 26.980469 4.367188 26.449219 4.011719 25.855469 3.898438 C 24.898438 3.605469 23.804688 3.714844 22.773438 3.75 C 21.832031 3.851562 20.871094 4.0625 20.003906 4.402344 C 19.207031 4.683594 18.425781 5.058594 17.796875 5.691406 C 17.636719 5.453125 17.75 5.136719 17.871094 4.90625 C 17.890625 4.855469 17.949219 4.816406 17.96875 4.761719 C 17.878906 4.761719 17.828125 4.839844 17.757812 4.886719 C 17.371094 5.207031 17.070312 5.617188 16.804688 6.035156 C 16.792969 5.859375 16.816406 5.722656 16.804688 5.550781 C 17.117188 5.238281 17.210938 4.777344 17.234375 4.367188 C 17.203125 4.308594 17.203125 4.257812 17.171875 4.199219 C 17.160156 4.121094 17.101562 4.03125 17.070312 3.949219 C 16.972656 3.871094 16.914062 3.738281 16.820312 3.652344 C 16.910156 3.605469 17.046875 3.632812 17.152344 3.652344 C 17.484375 3.628906 17.875 3.6875 18.203125 3.695312 C 18.582031 3.742188 18.929688 3.746094 19.296875 3.757812 C 19.570312 3.726562 19.800781 3.777344 20.070312 3.710938 C 20.4375 3.660156 20.75 3.542969 21.105469 3.445312 C 21.234375 3.386719 21.378906 3.363281 21.503906 3.300781 C 21.882812 3.167969 22.253906 2.992188 22.636719 2.925781 C 22.863281 2.828125 23.105469 2.765625 23.320312 2.664062 C 23.480469 2.597656 23.664062 2.566406 23.839844 2.519531 C 24.402344 2.347656 24.992188 2.335938 25.597656 2.445312 Z M 25.867188 2.519531 "/>
<path style=" stroke:none;fill-rule:nonzero;fill:rgb(85.490196%,85.882353%,85.882353%);fill-opacity:1;" d="M 14.636719 6.683594 L 14.632812 6.679688 Z M 14.636719 6.683594 "/>
<path style=" stroke:none;fill-rule:nonzero;fill:rgb(100%,100%,100%);fill-opacity:1;" d="M 14.601562 3.574219 L 12.816406 4.554688 C 12.703125 4.527344 12.765625 4.667969 12.75 4.722656 L 12.859375 4.839844 C 13.539062 4.585938 14.050781 3.789062 14.84375 4.039062 C 15.277344 4.132812 15.667969 4.410156 16.050781 4.65625 C 16.121094 4.617188 16.1875 4.578125 16.253906 4.539062 Z M 14.601562 3.574219 "/>
<path style=" stroke:none;fill-rule:nonzero;fill:rgb(85.490196%,85.882353%,85.882353%);fill-opacity:1;" d="M 12.859375 4.839844 L 14.632812 6.679688 L 14.632812 4.34375 L 14.984375 4.351562 L 14.980469 5.246094 C 15.332031 5.042969 15.707031 4.855469 16.050781 4.65625 C 15.667969 4.410156 15.277344 4.132812 14.84375 4.039062 C 14.050781 3.789062 13.539062 4.585938 12.859375 4.839844 Z M 12.859375 4.839844 "/>
<path style=" stroke:none;fill-rule:nonzero;fill:rgb(90.980392%,82.745098%,67.45098%);fill-opacity:1;" d="M 11.8125 4.289062 C 11.703125 4.640625 11.875 5 12.046875 5.300781 C 12.183594 5.421875 12.339844 5.519531 12.515625 5.539062 C 12.261719 5.773438 12.0625 6.082031 11.941406 6.402344 C 11.828125 6.347656 11.726562 6.226562 11.621094 6.144531 C 11.292969 5.898438 10.949219 5.613281 10.582031 5.429688 C 10.148438 5.300781 9.671875 5.191406 9.222656 5.1875 C 8.886719 5.199219 8.695312 5.53125 8.46875 5.710938 C 8.601562 5.410156 8.824219 5.089844 9.136719 4.902344 C 9.292969 4.796875 9.449219 4.675781 9.628906 4.613281 C 10.023438 4.414062 10.472656 4.367188 10.925781 4.339844 C 11.078125 4.289062 11.203125 4.355469 11.359375 4.289062 C 11.511719 4.296875 11.621094 4.246094 11.78125 4.261719 C 11.796875 4.257812 11.824219 4.277344 11.8125 4.289062 Z M 11.8125 4.289062 "/>
<path style=" stroke:none;fill-rule:nonzero;fill:rgb(0%,0%,0%);fill-opacity:1;" d="M 13.996094 4.355469 L 14.355469 4.355469 L 14.355469 5.738281 L 13.996094 5.738281 Z M 13.996094 4.355469 "/>
<path style=" stroke:none;fill-rule:nonzero;fill:rgb(0%,0%,0%);fill-opacity:1;" d="M 13.476562 4.542969 L 13.753906 4.542969 L 13.753906 5.25 L 13.476562 5.25 Z M 13.476562 4.542969 "/>
<path style=" stroke:none;fill-rule:nonzero;fill:rgb(85.490196%,85.882353%,85.882353%);fill-opacity:1;" d="M 25.191406 5.546875 C 24.828125 5.390625 24.671875 5.910156 24.359375 6.066406 C 24.046875 6.167969 23.789062 6.015625 23.527344 5.703125 C 23.476562 5.648438 23.320312 5.804688 23.214844 5.804688 C 22.332031 5.910156 21.34375 5.078125 20.5625 5.910156 C 20.460938 5.703125 20.304688 5.492188 20.097656 5.441406 C 19.890625 5.40625 19.667969 5.417969 19.476562 5.503906 L 19.496094 5.523438 C 19.648438 5.707031 19.894531 5.742188 20.136719 5.742188 C 20.164062 5.753906 20.210938 5.753906 20.195312 5.789062 C 20.039062 5.878906 20.113281 6.0625 19.933594 6.148438 C 19.574219 6.378906 19.207031 6.636719 18.75 6.539062 C 18.746094 6.582031 18.789062 6.617188 18.773438 6.675781 C 18.832031 6.777344 18.9375 6.820312 19.054688 6.835938 C 19.332031 6.792969 19.566406 6.652344 19.816406 6.550781 C 19.847656 6.535156 19.882812 6.511719 19.914062 6.539062 C 19.914062 6.566406 19.902344 6.582031 19.898438 6.601562 C 19.832031 6.675781 19.820312 6.769531 19.761719 6.84375 C 19.707031 7.125 19.460938 7.375 19.253906 7.539062 L 19.257812 7.546875 C 20.164062 7.5625 20.820312 6.882812 21.402344 6.238281 C 21.480469 6.273438 21.46875 6.136719 21.546875 6.160156 C 21.59375 6.183594 21.59375 6.242188 21.609375 6.285156 C 21.535156 6.628906 21.53125 6.96875 21.296875 7.257812 C 21.28125 7.304688 21.222656 7.324219 21.222656 7.371094 C 21.324219 7.335938 21.4375 7.335938 21.535156 7.28125 C 21.863281 7.074219 22.253906 6.878906 22.398438 6.472656 C 22.453125 6.417969 22.457031 6.269531 22.566406 6.308594 C 22.570312 6.441406 22.621094 6.570312 22.636719 6.710938 C 22.613281 6.898438 22.675781 7.148438 22.605469 7.34375 C 22.777344 7.3125 22.957031 7.265625 23.105469 7.1875 C 23.523438 7.046875 23.636719 6.585938 23.773438 6.226562 C 24.21875 6.222656 24.640625 6.371094 25.003906 6.613281 C 25.054688 6.636719 25.082031 6.707031 25.128906 6.722656 C 25.238281 6.429688 25.425781 6.164062 25.429688 5.84375 C 25.425781 5.816406 25.425781 5.792969 25.421875 5.769531 C 25.355469 5.65625 25.273438 5.574219 25.191406 5.546875 Z M 25.191406 5.546875 "/>
<path style=" stroke:none;fill-rule:nonzero;fill:rgb(100%,100%,100%);fill-opacity:1;" d="M 20.097656 5.441406 C 20.304688 5.492188 20.460938 5.703125 20.5625 5.910156 C 21.34375 5.078125 22.332031 5.910156 23.214844 5.804688 C 23.320312 5.804688 23.476562 5.648438 23.527344 5.703125 C 23.789062 6.015625 24.046875 6.167969 24.359375 6.066406 C 24.671875 5.910156 24.828125 5.390625 25.191406 5.546875 C 25.273438 5.574219 25.355469 5.65625 25.421875 5.769531 C 25.40625 5.644531 25.390625 5.519531 25.34375 5.40625 C 25.269531 5.28125 25.117188 5.300781 25 5.304688 C 24.792969 5.300781 24.691406 5.515625 24.582031 5.648438 C 24.472656 5.773438 24.3125 5.851562 24.179688 5.941406 L 23.898438 5.894531 C 23.765625 5.847656 23.792969 5.695312 23.699219 5.617188 C 23.5625 5.515625 23.378906 5.546875 23.226562 5.601562 C 23.058594 5.726562 22.824219 5.664062 22.652344 5.59375 C 22.273438 5.5 21.90625 5.292969 21.496094 5.316406 C 21.183594 5.382812 20.820312 5.378906 20.621094 5.675781 C 20.464844 5.675781 20.382812 5.507812 20.277344 5.425781 L 20.132812 5.339844 C 20.097656 5.324219 20.058594 5.316406 20.027344 5.292969 C 19.800781 5.238281 19.570312 5.269531 19.378906 5.394531 L 19.476562 5.503906 C 19.667969 5.417969 19.890625 5.40625 20.097656 5.441406 Z M 20.097656 5.441406 "/>
<path style=" stroke:none;fill-rule:nonzero;fill:rgb(85.490196%,85.882353%,85.882353%);fill-opacity:1;" d="M 14.300781 7.65625 C 14.011719 7.226562 13.738281 6.789062 13.480469 6.363281 C 13.335938 6.171875 13.246094 5.964844 13.132812 5.769531 C 12.84375 6.582031 13.46875 7.484375 14.300781 7.65625 Z M 14.300781 7.65625 "/>
<path style=" stroke:none;fill-rule:nonzero;fill:rgb(100%,100%,100%);fill-opacity:1;" d="M 13.132812 5.769531 C 13.085938 5.683594 13.035156 5.601562 12.972656 5.523438 C 12.9375 5.570312 12.890625 5.601562 12.882812 5.664062 C 12.769531 5.765625 12.726562 5.921875 12.6875 6.0625 C 12.675781 6.070312 12.65625 6.085938 12.671875 6.097656 C 12.5625 6.363281 12.675781 6.683594 12.8125 6.90625 C 13.128906 7.480469 13.804688 7.707031 14.386719 7.785156 C 14.359375 7.742188 14.328125 7.699219 14.300781 7.65625 C 13.46875 7.484375 12.84375 6.582031 13.132812 5.769531 Z M 13.132812 5.769531 "/>
<path style=" stroke:none;fill-rule:nonzero;fill:rgb(100%,100%,100%);fill-opacity:1;" d="M 9.941406 6.511719 C 9.957031 6.453125 9.964844 6.390625 10.019531 6.351562 C 10.191406 6.167969 10.445312 6.105469 10.707031 6.101562 C 10.675781 6.035156 10.664062 5.953125 10.605469 5.898438 C 10.476562 5.953125 10.339844 6.007812 10.230469 6.097656 C 9.867188 6.332031 9.503906 6.574219 9.199219 6.871094 L 9.191406 6.867188 L 8.644531 7.414062 C 8.226562 7.828125 7.871094 8.339844 7.496094 8.816406 C 7.640625 8.804688 7.78125 8.796875 7.921875 8.792969 C 8.402344 7.921875 9.160156 7.175781 9.941406 6.511719 Z M 9.941406 6.511719 "/>
<path style=" stroke:none;fill-rule:nonzero;fill:rgb(85.490196%,85.882353%,85.882353%);fill-opacity:1;" d="M 9.789062 7.65625 C 9.722656 7.640625 9.617188 7.617188 9.609375 7.539062 L 9.789062 7.496094 C 10.015625 7.492188 10.238281 7.453125 10.457031 7.523438 C 10.226562 7.242188 9.832031 6.996094 9.90625 6.589844 C 9.921875 6.570312 9.933594 6.542969 9.941406 6.511719 C 9.160156 7.175781 8.402344 7.921875 7.921875 8.792969 C 8.175781 8.78125 8.425781 8.777344 8.675781 8.757812 C 8.925781 8.765625 9.25 8.707031 9.5 8.738281 C 9.421875 8.601562 9.238281 8.550781 9.113281 8.4375 C 9.050781 8.375 8.949219 8.386719 8.894531 8.308594 C 8.894531 8.261719 8.859375 8.230469 8.90625 8.191406 C 9.207031 8.089844 9.523438 8.050781 9.84375 8.082031 C 10.0625 8.140625 10.273438 8.207031 10.480469 8.292969 C 10.300781 8.050781 10.046875 7.84375 9.789062 7.65625 Z M 9.789062 7.65625 "/>
<path style=" stroke:none;fill-rule:nonzero;fill:rgb(100%,100%,100%);fill-opacity:1;" d="M 28.496094 6.84375 L 28.46875 6.714844 C 28.378906 6.371094 28.0625 6.0625 27.722656 5.992188 L 27.621094 5.96875 C 27.550781 5.972656 27.535156 5.9375 27.472656 5.945312 C 27.449219 6.019531 27.425781 6.09375 27.398438 6.167969 C 27.859375 6.1875 28.316406 6.425781 28.496094 6.84375 Z M 28.496094 6.84375 "/>
<path style=" stroke:none;fill-rule:nonzero;fill:rgb(85.490196%,85.882353%,85.882353%);fill-opacity:1;" d="M 27.398438 6.167969 C 27.367188 6.253906 27.339844 6.339844 27.3125 6.425781 C 27.765625 6.363281 28.207031 6.527344 28.5 6.863281 L 28.496094 6.84375 C 28.316406 6.425781 27.859375 6.1875 27.398438 6.167969 Z M 27.398438 6.167969 "/>
<path style=" stroke:none;fill-rule:nonzero;fill:rgb(85.490196%,85.882353%,85.882353%);fill-opacity:1;" d="M 13.113281 8.347656 C 13.039062 8.230469 12.953125 8.113281 12.878906 8.003906 C 12.550781 7.601562 12.277344 7.199219 11.902344 6.84375 C 11.695312 6.667969 11.492188 6.464844 11.277344 6.28125 C 11.660156 7.152344 12.214844 8.0625 13.113281 8.347656 Z M 13.113281 8.347656 "/>
<path style=" stroke:none;fill-rule:nonzero;fill:rgb(100%,100%,100%);fill-opacity:1;" d="M 11.277344 6.28125 C 11.183594 6.203125 11.085938 6.128906 10.988281 6.0625 C 11.105469 6.542969 11.386719 6.921875 11.667969 7.34375 C 12.035156 7.792969 12.472656 8.355469 13.066406 8.46875 C 13.113281 8.484375 13.1875 8.46875 13.191406 8.480469 L 13.191406 8.472656 C 13.167969 8.433594 13.140625 8.390625 13.113281 8.347656 C 12.214844 8.0625 11.660156 7.152344 11.277344 6.28125 Z M 11.277344 6.28125 "/>
<path style=" stroke:none;fill-rule:nonzero;fill:rgb(85.490196%,85.882353%,85.882353%);fill-opacity:1;" d="M 25.875 6.441406 C 25.925781 6.605469 25.949219 6.78125 25.945312 6.960938 C 25.949219 7 25.917969 7.078125 25.933594 7.132812 C 25.917969 7.140625 25.917969 7.152344 25.929688 7.164062 C 25.917969 7.167969 25.917969 7.179688 25.910156 7.179688 C 25.886719 7.328125 25.855469 7.445312 25.816406 7.578125 C 25.964844 7.417969 26.074219 7.203125 26.183594 7.007812 C 26.222656 6.933594 26.199219 6.835938 26.257812 6.773438 C 26.316406 6.769531 26.324219 6.835938 26.351562 6.871094 C 26.398438 6.949219 26.363281 7.039062 26.429688 7.109375 C 26.4375 7.179688 26.449219 7.273438 26.464844 7.34375 C 26.480469 7.40625 26.488281 7.449219 26.480469 7.507812 L 26.539062 7.339844 C 26.585938 7.144531 26.625 6.890625 26.578125 6.675781 C 26.375 6.515625 26.128906 6.410156 25.875 6.441406 Z M 25.875 6.441406 "/>
<path style=" stroke:none;fill-rule:nonzero;fill:rgb(100%,100%,100%);fill-opacity:1;" d="M 25.785156 6.214844 C 25.824219 6.289062 25.851562 6.363281 25.875 6.441406 C 26.128906 6.410156 26.375 6.515625 26.578125 6.675781 C 26.5625 6.605469 26.535156 6.539062 26.496094 6.476562 C 26.339844 6.242188 26.019531 6.238281 25.785156 6.214844 Z M 25.785156 6.214844 "/>
<path style=" stroke:none;fill-rule:nonzero;fill:rgb(85.490196%,85.882353%,85.882353%);fill-opacity:1;" d="M 17.976562 6.382812 C 17.96875 6.367188 17.921875 6.347656 17.921875 6.316406 C 17.640625 6.214844 17.453125 6.476562 17.359375 6.695312 C 17.246094 6.867188 17.132812 7.054688 17.074219 7.257812 C 16.964844 7.421875 16.910156 7.617188 16.804688 7.78125 C 16.726562 7.890625 16.613281 7.980469 16.558594 8.097656 C 16.503906 8.175781 16.398438 8.246094 16.347656 8.316406 C 16.222656 8.410156 16.144531 8.5625 16.015625 8.65625 C 15.863281 8.800781 15.691406 8.890625 15.589844 9.035156 C 15.546875 8.988281 15.511719 9.058594 15.488281 9.066406 C 15.515625 9.070312 15.539062 9.058594 15.5625 9.054688 C 15.589844 9.0625 15.589844 9.007812 15.621094 9.035156 C 15.691406 9.003906 15.800781 8.960938 15.890625 8.941406 C 16.082031 8.859375 16.257812 8.753906 16.429688 8.636719 C 17.046875 8.027344 17.84375 7.359375 17.703125 6.535156 C 17.703125 6.480469 17.546875 6.636719 17.496094 6.691406 C 17.027344 7.523438 16.664062 8.457031 15.832031 8.925781 C 16.664062 8.457031 17.027344 7.523438 17.496094 6.691406 C 17.546875 6.636719 17.703125 6.480469 17.703125 6.535156 C 17.84375 7.359375 17.046875 8.027344 16.429688 8.636719 C 16.761719 8.398438 17.054688 8.101562 17.320312 7.78125 C 17.453125 7.648438 17.53125 7.480469 17.636719 7.339844 C 17.789062 7.027344 18 6.726562 17.976562 6.382812 Z M 17.976562 6.382812 "/>
<path style=" stroke:none;fill-rule:nonzero;fill:rgb(100%,100%,100%);fill-opacity:1;" d="M 27.6875 8.71875 C 28.050781 8.25 28.78125 8.199219 29.300781 8.507812 C 29.472656 8.625 29.617188 8.777344 29.71875 8.957031 C 29.726562 8.835938 29.726562 8.71875 29.710938 8.601562 C 29.589844 8.328125 29.273438 8.265625 29.019531 8.21875 C 28.710938 8.21875 28.421875 8.253906 28.132812 8.355469 C 28.125 8.386719 28.09375 8.386719 28.0625 8.378906 C 27.84375 8.480469 27.625 8.582031 27.441406 8.726562 C 27.324219 8.894531 27.246094 9.078125 27.316406 9.277344 C 27.363281 9.363281 27.441406 9.410156 27.527344 9.4375 C 27.378906 9.179688 27.535156 8.871094 27.6875 8.71875 Z M 27.6875 8.71875 "/>
<path style=" stroke:none;fill-rule:nonzero;fill:rgb(100%,100%,100%);fill-opacity:1;" d="M 28.464844 10.589844 C 28.386719 10.609375 28.304688 10.621094 28.242188 10.679688 C 28.203125 10.730469 28.203125 10.816406 28.222656 10.878906 C 28.34375 11.027344 28.515625 10.992188 28.6875 10.964844 C 28.574219 10.867188 28.519531 10.726562 28.464844 10.589844 Z M 28.464844 10.589844 "/>
<path style=" stroke:none;fill-rule:nonzero;fill:rgb(100%,100%,100%);fill-opacity:1;" d="M 28.5 9.492188 C 28.394531 9.511719 28.292969 9.527344 28.207031 9.582031 C 28.144531 9.605469 28.113281 9.675781 28.113281 9.738281 C 28.128906 9.808594 28.15625 9.902344 28.242188 9.929688 C 28.335938 9.925781 28.433594 9.9375 28.523438 9.941406 C 28.554688 9.792969 28.527344 9.640625 28.5 9.492188 Z M 28.5 9.492188 "/>
<path style=" stroke:none;fill-rule:nonzero;fill:rgb(100%,100%,100%);fill-opacity:1;" d="M 28.550781 8.746094 C 28.390625 8.761719 28.230469 8.78125 28.125 8.910156 C 28.097656 9.003906 28.066406 9.113281 28.125 9.207031 C 28.171875 9.304688 28.28125 9.300781 28.367188 9.320312 C 28.402344 9.328125 28.433594 9.332031 28.464844 9.332031 C 28.429688 9.136719 28.417969 8.941406 28.550781 8.746094 Z M 28.550781 8.746094 "/>
<path style=" stroke:none;fill-rule:nonzero;fill:rgb(100%,100%,100%);fill-opacity:1;" d="M 28.503906 10.058594 C 28.375 10.082031 28.246094 10.105469 28.144531 10.195312 C 28.109375 10.242188 28.101562 10.3125 28.125 10.367188 C 28.179688 10.492188 28.296875 10.492188 28.417969 10.488281 C 28.417969 10.488281 28.414062 10.484375 28.414062 10.484375 C 28.375 10.316406 28.464844 10.183594 28.503906 10.058594 Z M 28.503906 10.058594 "/>
<path style=" stroke:none;fill-rule:nonzero;fill:rgb(85.490196%,85.882353%,85.882353%);fill-opacity:1;" d="M 29.6875 9.207031 C 29.703125 9.125 29.710938 9.042969 29.71875 8.957031 C 29.617188 8.777344 29.472656 8.625 29.300781 8.507812 C 28.78125 8.199219 28.050781 8.25 27.6875 8.71875 C 27.535156 8.871094 27.378906 9.179688 27.527344 9.4375 C 27.601562 9.460938 27.6875 9.46875 27.761719 9.476562 C 27.71875 9.445312 27.753906 9.402344 27.714844 9.371094 C 27.691406 9.222656 27.667969 9.03125 27.730469 8.878906 C 27.941406 8.585938 28.378906 8.554688 28.707031 8.59375 C 28.742188 8.609375 28.804688 8.609375 28.804688 8.660156 C 28.800781 8.695312 28.761719 8.703125 28.742188 8.722656 C 28.679688 8.734375 28.617188 8.742188 28.550781 8.746094 C 28.417969 8.941406 28.429688 9.136719 28.464844 9.332031 C 28.574219 9.339844 28.6875 9.328125 28.78125 9.378906 C 28.699219 9.449219 28.601562 9.472656 28.5 9.492188 C 28.527344 9.640625 28.554688 9.792969 28.523438 9.941406 C 28.582031 9.941406 28.640625 9.9375 28.695312 9.925781 C 28.707031 9.960938 28.675781 10 28.632812 10.027344 C 28.589844 10.039062 28.546875 10.046875 28.503906 10.058594 C 28.464844 10.183594 28.375 10.316406 28.414062 10.484375 C 28.414062 10.484375 28.417969 10.488281 28.417969 10.488281 C 28.464844 10.488281 28.515625 10.484375 28.5625 10.492188 C 28.585938 10.484375 28.625 10.496094 28.617188 10.527344 C 28.574219 10.5625 28.519531 10.578125 28.464844 10.589844 C 28.519531 10.726562 28.574219 10.867188 28.6875 10.964844 C 28.761719 10.957031 28.835938 10.949219 28.902344 10.957031 C 29.027344 10.878906 29.167969 10.832031 29.304688 10.777344 C 29.546875 10.617188 29.664062 10.351562 29.703125 10.078125 C 29.796875 9.769531 29.625 9.503906 29.6875 9.207031 Z M 29.6875 9.207031 "/>
<path style=" stroke:none;fill-rule:nonzero;fill:rgb(85.490196%,85.882353%,85.882353%);fill-opacity:1;" d="M 18.285156 9.269531 C 18.089844 9.324219 17.890625 9.382812 17.683594 9.410156 C 17.609375 9.210938 17.636719 8.988281 17.636719 8.800781 C 17.667969 8.78125 17.710938 8.804688 17.746094 8.804688 C 18.066406 8.765625 18.417969 8.78125 18.71875 8.625 C 18.96875 8.507812 19.222656 8.457031 19.453125 8.285156 C 19.128906 8.660156 18.785156 9.113281 18.285156 9.269531 Z M 18.285156 9.269531 "/>
<path style=" stroke:none;fill-rule:nonzero;fill:rgb(0%,0%,0%);fill-opacity:1;" d="M 15.6875 8.957031 L 15.671875 8.945312 L 15.683594 8.945312 Z M 15.6875 8.957031 "/>
<path style=" stroke:none;fill-rule:nonzero;fill:rgb(85.490196%,85.882353%,85.882353%);fill-opacity:1;" d="M 11.402344 9.0625 C 11.433594 9.25 11.371094 9.464844 11.21875 9.570312 C 10.933594 9.679688 10.617188 9.582031 10.410156 9.378906 C 10.292969 9.246094 10.15625 9.167969 10.050781 9.03125 C 10.480469 8.957031 10.945312 9.03125 11.402344 9.0625 Z M 11.402344 9.0625 "/>
<path style=" stroke:none;fill-rule:nonzero;fill:rgb(85.490196%,85.882353%,85.882353%);fill-opacity:1;" d="M 9.34375 9.367188 C 9.535156 9.527344 9.695312 9.742188 9.75 9.996094 C 9.742188 10.070312 9.753906 10.121094 9.71875 10.179688 C 9.648438 10.257812 9.550781 10.308594 9.441406 10.320312 C 8.96875 10.257812 8.601562 9.917969 8.152344 9.789062 C 8.03125 9.785156 7.925781 9.777344 7.800781 9.773438 C 7.773438 9.605469 7.746094 9.398438 7.800781 9.238281 C 8.125 9.21875 8.507812 9.226562 8.855469 9.207031 C 9.03125 9.210938 9.207031 9.273438 9.34375 9.367188 Z M 9.34375 9.367188 "/>
<path style=" stroke:none;fill-rule:nonzero;fill:rgb(100%,100%,100%);fill-opacity:1;" d="M 6.3125 9.253906 C 6.4375 9.523438 6.519531 9.816406 6.675781 10.070312 C 6.75 10.046875 6.824219 10.023438 6.898438 10 C 6.761719 9.753906 6.726562 9.484375 6.609375 9.238281 C 6.507812 9.238281 6.40625 9.242188 6.3125 9.253906 Z M 6.3125 9.253906 "/>
<path style=" stroke:none;fill-rule:nonzero;fill:rgb(85.490196%,85.882353%,85.882353%);fill-opacity:1;" d="M 7.320312 9.242188 C 7.09375 9.238281 6.84375 9.230469 6.609375 9.238281 C 6.726562 9.484375 6.761719 9.753906 6.898438 10 C 7.019531 9.960938 7.136719 9.921875 7.261719 9.898438 C 7.261719 9.667969 7.285156 9.464844 7.320312 9.242188 Z M 7.320312 9.242188 "/>
<path style=" stroke:none;fill-rule:nonzero;fill:rgb(0%,0%,0%);fill-opacity:1;" d="M 9.3125 10.277344 L 9.296875 10.273438 L 9.3125 10.273438 Z M 9.3125 10.277344 "/>
<path style=" stroke:none;fill-rule:nonzero;fill:rgb(85.490196%,85.882353%,85.882353%);fill-opacity:1;" d="M 8.230469 10.578125 L 8.140625 10.554688 C 7.78125 10.539062 7.421875 10.53125 7.074219 10.574219 C 7.039062 10.65625 6.964844 10.730469 6.964844 10.8125 C 7.34375 10.804688 7.710938 10.78125 8.078125 10.777344 L 8.09375 10.785156 L 8.515625 10.78125 C 8.421875 10.699219 8.324219 10.648438 8.230469 10.578125 Z M 8.230469 10.578125 "/>
<path style=" stroke:none;fill-rule:nonzero;fill:rgb(100%,100%,100%);fill-opacity:1;" d="M 6.769531 10.625 C 6.75 10.6875 6.71875 10.75 6.722656 10.8125 C 6.804688 10.8125 6.882812 10.8125 6.964844 10.8125 C 6.964844 10.730469 7.039062 10.65625 7.074219 10.574219 C 6.972656 10.585938 6.871094 10.601562 6.769531 10.625 Z M 6.769531 10.625 "/>
<path style=" stroke:none;fill-rule:nonzero;fill:rgb(100%,100%,100%);fill-opacity:1;" d="M 6.160156 12.667969 C 6.160156 12.285156 6.117188 11.898438 6.027344 11.515625 C 5.984375 11.519531 5.9375 11.519531 5.894531 11.527344 C 5.863281 11.832031 6.015625 12.097656 6.046875 12.402344 C 6.144531 12.679688 5.96875 12.910156 5.886719 13.140625 C 5.714844 13.496094 5.523438 13.851562 5.445312 14.234375 C 5.429688 14.355469 5.445312 14.46875 5.453125 14.59375 C 5.492188 14.65625 5.511719 14.734375 5.554688 14.796875 C 5.605469 14.890625 5.699219 14.933594 5.792969 14.949219 C 5.449219 14.160156 6.160156 13.414062 6.160156 12.667969 Z M 6.160156 12.667969 "/>
<path style=" stroke:none;fill-rule:nonzero;fill:rgb(85.490196%,85.882353%,85.882353%);fill-opacity:1;" d="M 6.78125 14.25 C 6.625 14.140625 6.554688 13.941406 6.59375 13.78125 C 6.625 13.554688 6.816406 13.371094 7.015625 13.308594 C 6.722656 13.273438 6.484375 13.074219 6.347656 12.808594 L 6.351562 12.804688 C 6.300781 12.753906 6.308594 12.667969 6.269531 12.613281 C 6.261719 12.558594 6.238281 12.464844 6.292969 12.433594 C 6.472656 12.394531 6.691406 12.417969 6.875 12.371094 C 6.601562 12.210938 6.269531 12.082031 6.109375 11.773438 C 6.484375 11.671875 6.914062 11.664062 7.261719 11.488281 C 6.871094 11.5 6.429688 11.488281 6.027344 11.515625 C 6.117188 11.898438 6.160156 12.285156 6.160156 12.667969 C 6.160156 13.414062 5.449219 14.160156 5.792969 14.949219 C 5.867188 14.964844 5.945312 14.960938 6.011719 14.957031 C 5.910156 14.929688 5.855469 14.84375 5.792969 14.769531 C 5.792969 14.734375 5.71875 14.695312 5.78125 14.660156 C 5.886719 14.6875 5.996094 14.742188 6.082031 14.769531 C 6.453125 14.847656 6.90625 14.894531 7.261719 14.734375 C 7.394531 14.648438 7.441406 14.472656 7.433594 14.34375 C 7.207031 14.390625 6.957031 14.359375 6.78125 14.25 Z M 6.78125 14.25 "/>
<path style=" stroke:none;fill-rule:nonzero;fill:rgb(0%,0%,0%);fill-opacity:1;" d="M 19.1875 11.929688 L 13.433594 12.714844 C 13.269531 12.425781 13.035156 12.144531 12.785156 11.921875 L 19.164062 11.921875 Z M 19.1875 11.929688 "/>
<path style=" stroke:none;fill-rule:nonzero;fill:rgb(100%,100%,100%);fill-opacity:1;" d="M 17.839844 12.082031 L 17.84375 12.082031 L 17.84375 12.09375 L 17.839844 12.09375 Z M 17.839844 12.082031 "/>
<path style=" stroke:none;fill-rule:nonzero;fill:rgb(90.980392%,82.745098%,67.45098%);fill-opacity:1;" d="M 26.417969 13.570312 C 26.617188 13.851562 26.839844 14.144531 26.960938 14.484375 L 26.964844 14.558594 C 26.820312 14.710938 26.621094 14.757812 26.476562 14.890625 C 26.4375 14.636719 26.316406 14.425781 26.210938 14.191406 C 25.886719 13.59375 25.488281 13.007812 24.992188 12.558594 C 24.847656 12.441406 24.707031 12.351562 24.5625 12.253906 C 25.351562 12.273438 25.960938 12.980469 26.417969 13.570312 Z M 26.417969 13.570312 "/>
<path style=" stroke:none;fill-rule:nonzero;fill:rgb(85.490196%,85.882353%,85.882353%);fill-opacity:1;" d="M 21.683594 12.347656 C 21.65625 12.378906 21.589844 12.410156 21.535156 12.429688 C 21.238281 12.550781 20.949219 12.667969 20.636719 12.742188 C 20.449219 12.804688 20.257812 12.902344 20.074219 12.914062 C 19.945312 12.980469 19.777344 12.996094 19.628906 13.023438 C 19.175781 13.097656 18.796875 13.148438 18.316406 13.195312 C 17.023438 13.382812 15.695312 13.53125 14.386719 13.726562 C 13.09375 13.824219 11.78125 14.09375 10.464844 14.21875 C 9.773438 14.308594 9.046875 14.402344 8.351562 14.433594 L 8.132812 14.425781 C 8.15625 14.285156 8.039062 14.125 8.1875 14.035156 C 8.640625 13.890625 9.105469 13.898438 9.570312 13.796875 C 10.355469 13.664062 11.152344 13.53125 11.953125 13.40625 C 12.828125 13.324219 13.722656 13.183594 14.609375 13.097656 C 15.726562 13.019531 16.804688 12.714844 17.914062 12.632812 C 18.753906 12.539062 19.554688 12.488281 20.386719 12.410156 C 20.828125 12.382812 21.21875 12.367188 21.683594 12.347656 Z M 21.683594 12.347656 "/>
<path style=" stroke:none;fill-rule:nonzero;fill:rgb(100%,100%,100%);fill-opacity:1;" d="M 12.820312 18.707031 L 16.035156 14.269531 L 17.027344 18.699219 Z M 12.820312 18.707031 "/>
<path style=" stroke:none;fill-rule:nonzero;fill:rgb(90.980392%,82.745098%,67.45098%);fill-opacity:1;" d="M 13.738281 18.238281 C 14.664062 18.234375 15.796875 18.234375 16.445312 18.234375 C 16.300781 17.59375 16.03125 16.390625 15.804688 15.386719 C 15.171875 16.261719 14.316406 17.441406 13.738281 18.238281 Z M 13.738281 18.238281 "/>
<path style=" stroke:none;fill-rule:nonzero;fill:rgb(85.490196%,85.882353%,85.882353%);fill-opacity:1;" d="M 4.882812 15.019531 C 4.898438 15.242188 4.9375 15.457031 5.039062 15.675781 C 5.136719 15.910156 5.359375 16.097656 5.605469 16.183594 C 5.839844 16.25 6.089844 16.167969 6.3125 16.160156 C 6.160156 16.183594 6 16.210938 5.84375 16.234375 C 5.796875 16.25 5.769531 16.175781 5.734375 16.226562 C 5.339844 16.242188 4.914062 16.164062 4.695312 15.832031 C 4.605469 15.761719 4.585938 15.644531 4.523438 15.554688 C 4.507812 15.503906 4.476562 15.433594 4.480469 15.394531 C 4.457031 15.347656 4.460938 15.296875 4.445312 15.242188 C 4.460938 15.21875 4.414062 15.203125 4.417969 15.171875 C 4.417969 15.128906 4.414062 15.101562 4.386719 15.078125 C 4.535156 15.046875 4.730469 15 4.882812 15.019531 Z M 4.882812 15.019531 "/>
<path style=" stroke:none;fill-rule:nonzero;fill:rgb(0%,0%,0%);fill-opacity:1;" d="M 15.417969 17.25 L 15.425781 17.25 L 15.425781 17.253906 L 15.417969 17.253906 Z M 15.417969 17.25 "/>
<path style=" stroke:none;fill-rule:nonzero;fill:rgb(85.490196%,85.882353%,85.882353%);fill-opacity:1;" d="M 14.808594 0.226562 C 14.738281 0.234375 14.675781 0.226562 14.609375 0.222656 L 14.609375 3.183594 L 14.808594 3.183594 Z M 14.808594 0.226562 "/>
<path style=" stroke:none;fill-rule:nonzero;fill:rgb(100%,100%,100%);fill-opacity:1;" d="M 14.445312 0.226562 L 14.445312 3.183594 L 14.609375 3.183594 L 14.609375 0.222656 C 14.554688 0.222656 14.5 0.21875 14.445312 0.226562 Z M 14.445312 0.226562 "/>
<path style=" stroke:none;fill-rule:nonzero;fill:rgb(100%,100%,100%);fill-opacity:1;" d="M 15.933594 8.886719 C 16.28125 8.691406 16.59375 8.488281 16.824219 8.15625 C 17.097656 7.765625 17.308594 7.335938 17.503906 6.898438 C 17.554688 6.785156 17.757812 6.347656 17.78125 6.699219 C 17.792969 6.832031 17.695312 7.035156 17.640625 7.160156 C 17.445312 7.597656 17.085938 7.957031 16.746094 8.289062 C 16.671875 8.359375 16.597656 8.429688 16.519531 8.5 "/>
</g>
</svg>
