<?xml version="1.0" encoding="UTF-8"?>
<svg xmlns="http://www.w3.org/2000/svg" xmlns:xlink="http://www.w3.org/1999/xlink" width="35pt" height="25pt" viewBox="0 0 35 25" version="1.1">
<g id="surface1">
<path style=" stroke:none;fill-rule:nonzero;fill:rgb(100%,100%,100%);fill-opacity:1;" d="M 21.566406 5.996094 C 21.988281 6.050781 23.429688 6.332031 23.917969 6.523438 L 19.0625 12.390625 L 13.5625 5.984375 C 14 5.871094 15.253906 5.742188 15.816406 5.710938 C 15.773438 5.246094 15.519531 2.910156 15.519531 2.910156 C 12.496094 3.011719 7.488281 4.316406 4.445312 6.992188 C 4.660156 7.25 5.765625 8.675781 6.140625 9.117188 C 6.605469 8.667969 7.660156 7.953125 8.007812 7.792969 L 14.796875 15.492188 C 14.796875 15.492188 14.785156 18.792969 14.792969 18.953125 C 14.273438 18.910156 12.8125 18.695312 12.453125 18.582031 C 12.386719 19 11.992188 20.910156 11.925781 21.242188 C 16.0625 22.230469 20.5625 21.925781 23.460938 21.152344 C 23.167969 19.867188 22.894531 19.066406 22.796875 18.550781 C 22.230469 18.675781 20.648438 18.925781 20.339844 18.949219 L 20.34375 15.496094 L 26.792969 7.640625 C 26.792969 7.640625 28.140625 8.363281 28.851562 9.078125 C 29.1875 8.660156 29.910156 7.628906 30.433594 6.957031 C 28.023438 5.015625 25.03125 3.773438 21.894531 3.25 C 21.847656 3.9375 21.621094 5.519531 21.566406 5.996094 Z M 21.566406 5.996094 "/>
<path style=" stroke:none;fill-rule:nonzero;fill:rgb(0%,20.392157%,40.784314%);fill-opacity:1;" d="M 17.5 1.089844 C 7.835938 1.089844 0 6.160156 0 12.417969 C 0 18.675781 7.835938 23.75 17.5 23.75 C 27.164062 23.75 35 18.675781 35 12.417969 C 35 6.160156 27.164062 1.089844 17.5 1.089844 Z M 28.851562 9.078125 C 28.140625 8.363281 26.792969 7.640625 26.792969 7.640625 L 20.34375 15.496094 L 20.339844 18.949219 C 20.648438 18.925781 22.230469 18.675781 22.796875 18.550781 C 22.894531 19.066406 23.167969 19.867188 23.460938 21.152344 C 20.5625 21.925781 16.0625 22.230469 11.925781 21.242188 C 11.992188 20.910156 12.386719 19 12.453125 18.582031 C 12.8125 18.695312 14.273438 18.910156 14.792969 18.953125 C 14.785156 18.792969 14.796875 15.496094 14.796875 15.496094 L 8.007812 7.792969 C 7.660156 7.953125 6.605469 8.667969 6.140625 9.117188 C 5.765625 8.675781 4.660156 7.25 4.445312 6.992188 C 7.488281 4.316406 12.496094 3.011719 15.519531 2.910156 C 15.519531 2.910156 15.773438 5.246094 15.816406 5.710938 C 15.253906 5.742188 14 5.871094 13.5625 5.984375 L 19.0625 12.390625 L 23.917969 6.523438 C 23.429688 6.332031 21.988281 6.050781 21.566406 5.996094 C 21.621094 5.519531 21.847656 3.9375 21.894531 3.25 C 25.03125 3.773438 28.023438 5.015625 30.433594 6.957031 C 29.910156 7.628906 29.1875 8.660156 28.851562 9.078125 Z M 28.851562 9.078125 "/>
<path style=" stroke:none;fill-rule:nonzero;fill:rgb(0%,20.392157%,40.784314%);fill-opacity:1;" d="M 31.171875 22.367188 C 31.171875 22.222656 31.113281 22.128906 30.996094 22.078125 C 30.929688 22.050781 30.824219 22.039062 30.683594 22.039062 L 30.285156 22.039062 L 30.285156 23.175781 L 30.480469 23.175781 L 30.480469 22.726562 L 30.640625 22.726562 C 30.746094 22.726562 30.820312 22.738281 30.863281 22.765625 C 30.933594 22.808594 30.96875 22.894531 30.96875 23.023438 L 30.96875 23.113281 L 30.972656 23.152344 C 30.972656 23.15625 30.976562 23.160156 30.976562 23.164062 C 30.976562 23.167969 30.976562 23.171875 30.980469 23.175781 L 31.171875 23.175781 L 31.164062 23.160156 C 31.160156 23.152344 31.15625 23.132812 31.152344 23.101562 C 31.152344 23.070312 31.148438 23.042969 31.148438 23.015625 L 31.148438 22.933594 C 31.148438 22.875 31.128906 22.816406 31.089844 22.757812 C 31.046875 22.699219 30.980469 22.660156 30.894531 22.644531 C 30.964844 22.636719 31.019531 22.617188 31.058594 22.589844 C 31.136719 22.542969 31.171875 22.46875 31.171875 22.367188 Z M 30.855469 22.5625 C 30.8125 22.578125 30.75 22.585938 30.664062 22.585938 L 30.480469 22.585938 L 30.480469 22.179688 L 30.652344 22.179688 C 30.765625 22.179688 30.847656 22.191406 30.898438 22.222656 C 30.949219 22.25 30.976562 22.304688 30.976562 22.386719 C 30.976562 22.472656 30.933594 22.53125 30.855469 22.5625 Z M 30.855469 22.5625 "/>
<path style=" stroke:none;fill-rule:nonzero;fill:rgb(0%,20.392157%,40.784314%);fill-opacity:1;" d="M 30.703125 21.574219 C 30.417969 21.574219 30.171875 21.671875 29.972656 21.875 C 29.769531 22.078125 29.667969 22.324219 29.667969 22.609375 C 29.667969 22.898438 29.765625 23.144531 29.96875 23.34375 C 30.171875 23.550781 30.414062 23.652344 30.703125 23.652344 C 30.992188 23.652344 31.238281 23.550781 31.441406 23.34375 C 31.644531 23.140625 31.746094 22.894531 31.746094 22.609375 C 31.746094 22.320312 31.644531 22.078125 31.441406 21.875 C 31.238281 21.671875 30.992188 21.574219 30.703125 21.574219 Z M 31.339844 23.246094 C 31.167969 23.421875 30.953125 23.507812 30.703125 23.507812 C 30.457031 23.507812 30.242188 23.421875 30.070312 23.246094 C 29.894531 23.070312 29.808594 22.859375 29.808594 22.609375 C 29.808594 22.363281 29.894531 22.152344 30.070312 21.976562 C 30.246094 21.800781 30.457031 21.714844 30.703125 21.714844 C 30.953125 21.714844 31.164062 21.800781 31.339844 21.976562 C 31.515625 22.152344 31.601562 22.363281 31.601562 22.609375 C 31.601562 22.859375 31.515625 23.070312 31.339844 23.246094 Z M 31.339844 23.246094 "/>
</g>
</svg>
