<?xml version="1.0" encoding="UTF-8"?>
<svg xmlns="http://www.w3.org/2000/svg" xmlns:xlink="http://www.w3.org/1999/xlink" width="35pt" height="25pt" viewBox="0 0 35 25" version="1.1">
<g id="surface1">
<path style=" stroke:none;fill-rule:nonzero;fill:rgb(0%,0%,40%);fill-opacity:1;" d="M 8.132812 24.988281 C 8.097656 24.984375 8.050781 24.96875 8.027344 24.953125 C 7.964844 24.921875 7.867188 24.804688 7.851562 24.742188 C 7.839844 24.707031 7.835938 24.140625 7.835938 23.15625 C 7.835938 21.644531 7.835938 21.621094 7.867188 21.554688 C 7.902344 21.472656 7.957031 21.414062 8.03125 21.375 C 8.089844 21.34375 8.109375 21.339844 8.832031 21.335938 C 9.554688 21.328125 9.574219 21.328125 9.628906 21.296875 C 9.699219 21.257812 9.769531 21.1875 9.808594 21.113281 C 9.832031 21.066406 9.835938 21.019531 9.839844 20.664062 L 9.84375 20.261719 L 6.566406 20.261719 C 3.660156 20.261719 3.285156 20.261719 3.238281 20.238281 C 3.152344 20.203125 3.097656 20.152344 3.050781 20.070312 L 3.003906 19.992188 L 3 18.375 C 2.996094 16.578125 2.992188 16.660156 3.097656 16.546875 C 3.125 16.511719 3.175781 16.472656 3.210938 16.453125 C 3.265625 16.425781 3.289062 16.421875 3.820312 16.414062 C 4.347656 16.410156 4.371094 16.40625 4.429688 16.375 C 4.460938 16.359375 4.511719 16.316406 4.542969 16.285156 C 4.648438 16.167969 4.640625 16.472656 4.640625 12.488281 C 4.640625 8.523438 4.648438 8.816406 4.546875 8.695312 C 4.515625 8.664062 4.460938 8.621094 4.425781 8.601562 C 4.355469 8.566406 4.347656 8.566406 3.804688 8.558594 C 3.320312 8.554688 3.25 8.550781 3.207031 8.527344 C 3.144531 8.492188 3.078125 8.421875 3.039062 8.347656 L 3.003906 8.289062 L 3 6.675781 C 2.996094 4.871094 2.992188 4.960938 3.097656 4.84375 C 3.128906 4.808594 3.183594 4.765625 3.226562 4.746094 L 3.300781 4.714844 L 9.84375 4.714844 L 9.84375 4.355469 C 9.84375 3.953125 9.832031 3.890625 9.746094 3.792969 C 9.71875 3.757812 9.664062 3.714844 9.625 3.699219 C 9.558594 3.664062 9.554688 3.664062 8.824219 3.65625 C 8.109375 3.648438 8.089844 3.648438 8.03125 3.617188 C 7.957031 3.574219 7.902344 3.515625 7.867188 3.4375 C 7.835938 3.371094 7.835938 3.347656 7.835938 1.835938 C 7.835938 0.703125 7.839844 0.289062 7.851562 0.246094 C 7.875 0.171875 7.964844 0.0703125 8.046875 0.03125 L 8.109375 0 L 10.589844 0 C 12.242188 0 13.097656 0.00390625 13.140625 0.015625 C 13.261719 0.0429688 13.386719 0.117188 13.480469 0.210938 C 13.5625 0.289062 13.730469 0.5625 14.894531 2.503906 L 16.214844 4.707031 L 23.355469 4.714844 L 23.355469 4.355469 C 23.355469 3.953125 23.347656 3.890625 23.261719 3.792969 C 23.234375 3.757812 23.179688 3.714844 23.140625 3.699219 C 23.070312 3.664062 23.070312 3.664062 22.335938 3.65625 C 21.515625 3.648438 21.546875 3.652344 21.441406 3.535156 C 21.34375 3.425781 21.347656 3.535156 21.347656 1.824219 C 21.347656 0.078125 21.339844 0.214844 21.460938 0.101562 C 21.574219 -0.0078125 21.203125 0 25.433594 0 C 29.230469 0 29.242188 0 29.308594 0.03125 C 29.386719 0.0664062 29.445312 0.121094 29.488281 0.199219 L 29.519531 0.257812 L 29.523438 1.796875 C 29.527344 2.832031 29.523438 3.355469 29.511719 3.390625 C 29.488281 3.480469 29.410156 3.570312 29.324219 3.617188 L 29.242188 3.65625 L 28.550781 3.65625 C 27.777344 3.65625 27.753906 3.660156 27.648438 3.757812 C 27.613281 3.785156 27.570312 3.84375 27.554688 3.882812 C 27.519531 3.953125 27.519531 3.96875 27.519531 4.335938 L 27.519531 4.714844 L 28.546875 4.714844 C 29.683594 4.714844 29.660156 4.710938 29.839844 4.804688 C 29.917969 4.84375 30.109375 5.03125 31.167969 6.09375 C 32.253906 7.179688 32.414062 7.347656 32.457031 7.425781 C 32.550781 7.613281 32.546875 7.214844 32.546875 12.488281 C 32.546875 15.742188 32.539062 17.324219 32.53125 17.371094 C 32.523438 17.40625 32.496094 17.476562 32.46875 17.53125 C 32.429688 17.621094 32.332031 17.71875 31.199219 18.855469 C 30.460938 19.597656 29.9375 20.109375 29.886719 20.144531 C 29.839844 20.175781 29.757812 20.214844 29.707031 20.234375 C 29.613281 20.261719 29.570312 20.261719 28.566406 20.261719 L 27.519531 20.261719 L 27.519531 22.46875 C 27.519531 24.914062 27.523438 24.75 27.421875 24.871094 C 27.394531 24.902344 27.339844 24.945312 27.304688 24.960938 L 27.234375 24.996094 L 25.5625 24.996094 C 23.898438 24.996094 23.890625 24.996094 23.824219 24.96875 C 23.789062 24.949219 23.738281 24.917969 23.714844 24.890625 C 23.691406 24.867188 23.054688 23.816406 22.300781 22.554688 L 20.929688 20.261719 L 14.003906 20.261719 L 14.007812 20.664062 C 14.011719 21.019531 14.015625 21.066406 14.039062 21.113281 C 14.078125 21.1875 14.148438 21.257812 14.21875 21.296875 C 14.273438 21.328125 14.292969 21.328125 15.015625 21.335938 L 15.757812 21.339844 L 15.824219 21.382812 C 15.863281 21.40625 15.910156 21.445312 15.933594 21.472656 C 16.019531 21.585938 16.011719 21.492188 16.011719 23.15625 C 16.011719 24.296875 16.007812 24.699219 15.996094 24.746094 C 15.972656 24.820312 15.867188 24.9375 15.789062 24.96875 C 15.730469 24.996094 15.597656 24.996094 11.960938 25 C 9.890625 25 8.167969 24.996094 8.132812 24.988281 Z M 9.84375 12.488281 L 9.84375 8.558594 L 9.464844 8.5625 C 9.050781 8.566406 9.03125 8.570312 8.929688 8.664062 C 8.898438 8.691406 8.859375 8.738281 8.84375 8.773438 L 8.808594 8.832031 L 8.804688 12.457031 C 8.800781 15.175781 8.804688 16.101562 8.816406 16.144531 C 8.839844 16.21875 8.898438 16.300781 8.960938 16.34375 C 9.054688 16.410156 9.097656 16.414062 9.480469 16.414062 L 9.84375 16.414062 Z M 18.617188 16.40625 C 18.613281 16.398438 17.644531 14.777344 16.460938 12.800781 C 14.738281 9.914062 14.304688 9.203125 14.269531 9.183594 C 14.183594 9.140625 14.097656 9.164062 14.039062 9.25 L 14.003906 9.296875 L 14.003906 16.414062 L 16.316406 16.414062 C 17.585938 16.414062 18.621094 16.410156 18.617188 16.40625 Z M 28.789062 16.375 C 28.867188 16.335938 28.929688 16.269531 28.964844 16.199219 C 28.992188 16.144531 28.992188 16.042969 28.996094 12.511719 C 29 9.152344 28.996094 8.871094 28.976562 8.8125 C 28.941406 8.726562 28.859375 8.636719 28.777344 8.597656 C 28.714844 8.570312 28.6875 8.566406 28.117188 8.5625 L 27.519531 8.558594 L 27.519531 16.417969 L 28.125 16.414062 C 28.714844 16.410156 28.730469 16.40625 28.789062 16.375 Z M 23.273438 16.105469 C 23.363281 16.035156 23.355469 16.300781 23.355469 12.269531 L 23.355469 8.558594 L 20.945312 8.558594 C 19.019531 8.558594 18.53125 8.5625 18.539062 8.578125 C 18.570312 8.652344 23.03125 16.066406 23.0625 16.097656 C 23.121094 16.148438 23.214844 16.152344 23.273438 16.105469 Z M 23.273438 16.105469 "/>
</g>
</svg>
