<?xml version="1.0" encoding="UTF-8" standalone="no"?>
<!-- Created with Inkscape (http://www.inkscape.org/) -->

<svg
   xmlns:dc="http://purl.org/dc/elements/1.1/"
   xmlns:cc="http://creativecommons.org/ns#"
   xmlns:rdf="http://www.w3.org/1999/02/22-rdf-syntax-ns#"
   xmlns:svg="http://www.w3.org/2000/svg"
   xmlns="http://www.w3.org/2000/svg"
   version="1.1"
   width="280"
   height="200"
   id="svg2"
   xml:space="preserve"><metadata
     id="metadata8"><rdf:RDF><cc:Work
         rdf:about=""><dc:format>image/svg+xml</dc:format><dc:type
           rdf:resource="http://purl.org/dc/dcmitype/StillImage" /><dc:title></dc:title></cc:Work></rdf:RDF></metadata><defs
     id="defs6" /><g
     transform="matrix(1.25,0,0,-1.25,-20.4725,220.47249)"
     id="g10"><g
       transform="matrix(0.0830065,0,0,0.0830065,49.978,16.378)"
       id="g12"><path
         d="m 0,0 1927.56,0 0,1927.56 L 0,1927.56 0,0 z"
         id="path14"
         style="fill:#ffffff;fill-opacity:1;fill-rule:evenodd;stroke:none" /><path
         d="M 652.242,1609.9 C 546.969,1573.37 495.406,1513.21 495.406,1431.57 435.25,1395.05 415.91,1356.37 439.539,1313.4 L 299.887,1182.34 c -53.711,-15.04 -73.047,-45.11 -62.305,-85.94 l 21.481,-88.09 c 8.593,-30.076 30.082,-47.259 62.308,-53.712 10.746,-36.524 64.457,-53.711 161.137,-55.864 40.832,6.454 66.609,27.93 75.203,64.457 75.199,53.719 135.355,88.089 180.477,107.429 169.734,-19.34 275.012,17.18 320.132,109.58 l 0,-2.16 c 12.89,25.78 17.18,49.42 15.03,73.05 15.04,-34.37 17.19,-68.75 8.6,-103.12 30.08,-51.57 40.82,-113.88 34.37,-186.919 -4.29,49.409 -23.63,92.379 -60.16,131.059 l -2.14,-2.15 c -30.08,-40.82 -79.5,-62.31 -150.399,-62.31 C 890.734,973.938 856.359,918.074 800.492,860.066 L 544.816,829.984 c -27.933,-2.152 -55.855,-12.886 -83.789,-34.375 -15.043,15.036 -42.964,19.336 -79.492,15.036 L 143.043,784.863 207.5,716.117 149.492,481.926 319.23,501.266 c 40.817,4.289 73.043,17.183 92.379,36.527 15.043,-15.047 42.969,-21.492 88.086,-15.047 l 186.93,21.488 C 637.207,494.82 637.207,447.551 682.324,406.727 l -51.562,-6.446 -6.453,-32.226 C 602.828,297.156 641.504,267.074 742.48,282.109 l 908.83,111.731 70.9,259.969 55.86,58.007 -234.19,-27.933 2.15,6.453 -2.15,-6.453 c 66.6,399.627 -88.09,648.857 -459.79,749.837 118.18,-15.04 232.04,-68.75 339.47,-161.14 l 68.76,0 -47.27,45.12 c -88.09,83.79 -184.78,146.1 -290.05,191.22 -49.42,21.48 -98.84,34.37 -146.1,38.67 l 105.28,8.6 c 27.93,15.03 51.56,25.77 66.6,27.93 -131.06,40.82 -262.116,45.11 -393.182,12.89 l 19.34,27.93 c -75.204,-23.64 -128.915,-45.12 -165.434,-66.6 -66.606,-38.68 -90.234,-94.54 -75.203,-165.44 6.445,-30.08 27.933,-30.08 60.16,2.15 27.93,21.48 58.016,34.37 94.539,38.67 -27.934,60.16 -6.449,96.68 64.445,107.42 l 111.731,10.75 c 25.777,4.3 47.269,12.89 64.457,23.63 -10.746,-23.63 -36.528,-36.52 -77.356,-38.67 -40.812,-2.15 -75.191,-10.74 -100.972,-30.08 -34.375,-23.63 -40.825,-53.72 -17.188,-90.24 -40.824,-6.44 -75.199,-25.78 -98.832,-55.86 -32.23,-36.53 -70.898,-47.27 -111.726,-30.08 6.445,-15.04 21.492,-25.78 40.828,-30.07 -73.047,-47.27 -124.614,-94.54 -156.848,-139.66 -6.441,-12.89 -15.035,-19.34 -27.93,-21.48 -25.781,0 -47.261,-6.46 -62.308,-17.19 -27.93,-21.49 -34.375,-55.87 -17.184,-105.28 6.442,-19.344 2.149,-21.484 -12.887,-2.15 -15.046,19.33 -19.343,34.38 -17.199,47.27 -6.441,-6.45 -6.441,-21.49 -2.144,-42.98 2.144,-8.59 0,-12.89 -2.149,-12.89 -2.148,-2.14 -4.297,0 -6.441,4.3 -10.742,12.9 -15.047,25.78 -15.047,36.53 l -8.594,60.15 c -10.734,21.49 8.594,38.68 58.016,49.42 58.004,66.6 118.168,126.77 180.476,180.48 -49.421,23.63 -40.828,51.56 30.075,83.79 -6.442,77.35 32.23,139.65 118.168,184.77 15.039,6.45 15.039,8.6 -2.149,4.3 z m 221.305,-128.91 c -15.047,-8.6 -21.488,-23.63 -23.641,-47.27 l -49.414,2.15 -10.742,-6.45 c -6.445,17.19 -2.152,34.38 12.895,51.57 19.328,17.19 51.562,30.08 96.679,38.67 -32.23,-17.19 -51.562,-34.37 -58.011,-51.56 l 4.3,-2.15 c 10.746,10.74 19.336,15.04 27.934,15.04 z m 180.473,-758.431 -17.2,-64.457 92.39,10.746 -8.59,-32.227 -165.432,-21.488 51.562,199.812 -27.93,30.078 204.11,23.637 -10.75,-34.371 -92.38,-10.746 -17.19,-66.609 62.31,8.593 -8.6,-34.375 -62.3,-8.593 z m -88.094,62.304 -40.821,-4.289 0,4.289 c 2.153,12.899 -4.3,19.34 -17.183,17.192 -10.746,-2.145 -17.188,-4.293 -23.645,-8.594 -6.441,-4.293 -8.589,-10.746 -10.73,-17.191 l 2.141,-12.887 51.57,-49.418 c 10.734,-10.742 12.887,-23.629 10.734,-38.676 l -4.293,-10.738 c -4.301,-15.043 -15.035,-27.93 -30.078,-40.824 -15.039,-10.743 -30.074,-17.188 -49.414,-19.336 l -32.234,-4.293 c -21.481,-2.153 -36.528,0 -47.258,6.441 -10.746,8.594 -12.899,21.492 -6.453,40.824 l 0,2.145 42.976,6.453 -2.152,-10.746 c -2.148,-4.301 -2.148,-8.594 2.152,-10.746 l 17.192,-2.149 c 10.73,2.149 17.183,4.301 21.476,8.594 6.453,4.301 10.742,10.746 12.895,17.188 0,6.449 -2.153,10.746 -4.301,12.894 l -51.562,51.563 c -10.747,10.746 -12.887,21.492 -10.747,36.527 l 4.301,12.894 c 2.153,12.883 12.891,25.782 27.938,38.665 17.183,12.898 34.371,19.339 51.558,21.488 l 30.082,4.293 c 45.118,6.457 62.309,-10.735 55.856,-47.258 l 0,-4.305 z M 772.559,494.82 c 2.156,8.594 6.445,15.035 12.886,17.188 6.457,4.293 12.899,6.441 23.641,8.594 l 107.426,12.886 -53.711,-197.664 75.191,8.594 53.715,199.816 55.863,6.446 8.59,34.379 -275.004,-34.379 c -19.34,-2.145 -36.527,-10.739 -51.562,-21.485 -15.043,-10.746 -25.781,-25.781 -30.082,-40.828 l -4.293,-10.73 c -2.153,-15.047 0,-25.793 10.734,-36.528 l 53.715,-51.574 c 2.148,-2.137 4.301,-6.441 2.148,-12.883 -2.148,-6.441 -4.293,-12.894 -10.742,-17.187 -4.293,-4.301 -12.886,-6.453 -23.633,-8.594 l -17.187,2.141 c -2.149,2.152 -4.301,6.453 -4.301,10.746 l 2.152,2.148 2.149,6.446 -42.969,-4.297 -2.148,-2.149 c -4.301,-19.336 -2.149,-32.222 8.593,-40.816 8.594,-6.453 25.782,-8.594 49.411,-6.453 l 32.234,2.148 c 17.184,2.156 34.375,10.746 51.563,23.633 15.035,10.746 25.781,23.637 30.082,38.676 l 2.14,12.894 c 4.305,12.887 0,25.782 -10.73,36.528 l -51.575,49.41 -4.296,12.894 z m 285.761,38.668 -49.42,-180.476 75.19,8.593 27.94,100.985 51.56,6.441 -25.78,-100.976 75.2,10.746 47.26,176.176 c 4.3,15.035 0,27.933 -10.73,36.527 -10.75,10.742 -25.79,12.887 -45.13,10.742 l -64.45,-8.594 c -19.34,-2.148 -36.53,-8.593 -51.57,-19.336 -17.18,-12.894 -27.93,-25.781 -30.07,-40.828 z m 85.93,21.489 21.49,10.746 c 8.6,0 15.04,-2.153 17.19,-4.301 4.3,-2.152 6.44,-6.445 4.3,-12.887 l -12.89,-45.121 -53.72,-6.449 10.74,42.976 12.89,15.036 z m 343.77,81.644 -204.11,-23.637 -8.59,-34.375 64.46,8.59 -53.72,-199.801 75.19,8.59 53.72,199.809 64.46,8.594 8.59,32.23 z m -257.82,77.344 c 100.98,180.48 90.23,354.505 -30.08,522.085 141.79,-92.38 193.37,-262.112 154.69,-507.046 L 1230.2,713.965 z m 217,-307.238 171.87,21.488 8.6,34.375 -94.53,-12.887 17.18,66.598 96.68,10.746 8.6,34.375 -96.68,-12.887 17.19,66.598 96.68,10.742 8.59,34.375 -169.73,-19.336 -64.45,-234.187 z m -874.454,736.943 -58.004,-36.53 -23.637,-15.03 c 27.93,32.22 73.047,64.45 135.356,98.83 0,25.78 8.594,45.11 27.93,58 -10.743,-19.33 -10.743,-40.81 2.152,-68.74 12.887,-25.79 30.082,-42.97 51.562,-53.72 -23.628,4.3 -45.117,15.04 -66.601,34.38 l -8.594,10.74 c -12.894,-2.15 -32.23,-12.89 -60.164,-27.93 z m 55.863,152.54 c 42.969,15.04 73.055,34.38 90.239,55.87 10.746,-21.49 8.593,-40.83 -6.442,-60.16 -23.636,-15.04 -51.57,-12.89 -83.797,4.29 z M 409.457,1085.66 c 2.152,-10.74 -2.141,-23.63 -12.883,-38.67 6.442,10.74 6.442,21.48 2.149,27.93 -2.149,6.44 -8.594,6.44 -17.188,4.29 -10.742,-2.14 -21.488,-8.59 -27.933,-21.48 6.445,21.48 19.339,34.38 40.82,36.53 8.594,-2.15 12.894,-6.46 15.035,-8.6 z m -64.445,-122.469 94.527,4.301 c 30.086,27.934 58.016,45.118 81.645,53.718 l 51.562,2.15 c -47.258,-19.34 -81.641,-42.981 -105.277,-70.915 -49.406,-8.593 -90.235,-4.289 -122.457,10.746 z M 329.965,668.848 c 6.449,2.148 12.894,4.297 19.336,10.742 6.445,4.293 10.746,8.598 12.894,15.039 l 6.446,25.781 c 2.152,6.449 0,8.594 -2.153,10.742 -4.293,2.153 -10.742,4.301 -17.187,4.301 l -27.93,-4.301 -17.187,-64.457 25.781,2.153 z m -34.375,-36.528 -17.188,-64.457 25.782,2.149 c 6.449,2.152 12.894,4.304 19.336,8.597 6.445,4.301 10.746,10.746 12.894,17.188 l 6.445,23.637 c 2.153,12.886 -4.3,19.339 -19.339,17.187 l -27.93,-4.301 z m -77.344,120.321 167.582,19.339 c 19.336,2.141 34.375,0 45.121,-8.597 10.742,-10.742 12.891,-23.637 10.742,-38.676 l -4.3,-10.742 c -4.293,-15.035 -12.887,-30.082 -25.782,-40.82 -6.445,-6.45 -15.035,-10.743 -25.781,-12.895 8.594,-2.148 15.035,-4.289 19.336,-10.742 8.594,-10.735 10.746,-21.477 6.445,-36.524 l -2.152,-12.886 c -4.293,-15.039 -15.035,-27.934 -30.07,-38.676 -15.039,-10.742 -32.235,-19.34 -49.422,-21.481 l -133.207,-15.046 49.418,197.664 -27.93,30.082 z m 459.777,53.714 109.575,15.036 -60.157,-234.192 -73.05,-8.59 51.562,199.813 -27.93,27.933 z m -10.738,-53.714 -32.23,-124.61 c -2.145,-15.047 -12.887,-27.933 -27.934,-40.832 -17.187,-10.742 -34.375,-17.187 -51.562,-19.336 l -62.305,-8.593 c -19.34,-2.145 -34.375,2.152 -45.117,10.742 -10.746,10.746 -12.887,21.492 -8.598,36.527 l 30.086,124.613 c 4.289,15.047 15.035,27.934 30.07,40.828 15.047,10.735 32.235,17.188 49.422,19.329 l 64.457,8.601 c 17.188,2.145 32.227,0 42.969,-10.742 10.742,-8.594 15.035,-21.488 10.742,-36.527 z m -124.613,-15.047 -32.231,-124.61 2.153,-12.886 17.187,-2.153 c 8.59,0 15.035,2.153 21.489,8.594 6.441,4.301 10.734,8.594 12.882,15.035 l 32.235,124.625 c 0,6.442 -2.153,10.735 -4.301,12.887 -4.293,2.148 -8.594,4.297 -15.035,4.297 -8.598,-2.149 -15.047,-4.297 -21.492,-8.59 -6.442,-6.453 -10.743,-10.742 -12.887,-17.199 z m 1209.608,-453.328 0,36.519 -12.89,-36.519 -4.3,0 -15.03,36.519 0,-36.519 -8.6,0 0,45.113 12.9,0 12.88,-32.223 10.75,32.223 12.89,0 0,-45.113 -8.6,0 z m -51.57,38.675 -15.03,0 0,-38.675 -8.59,0 0,38.675 -12.89,0 0,6.438 36.51,0 0,-6.438"
         id="path16"
         style="fill:#4650a2;fill-opacity:1;fill-rule:evenodd;stroke:none" /><path
         d="m 721,1650.72 c -152.547,0 -236.34,-68.76 -253.531,-206.26 -51.559,-25.78 -73.047,-68.75 -62.305,-126.76 -70.898,-70.9 -109.574,-107.42 -120.32,-111.72 -75.192,-23.64 -98.828,-70.91 -68.75,-141.8 8.594,-32.23 12.898,-53.72 12.898,-62.31 0,-8.597 6.442,-19.343 19.328,-34.378 15.043,-19.336 34.383,-30.082 53.711,-34.371 4.301,-27.933 45.121,-47.273 122.473,-55.867 49.41,-4.301 85.937,2.152 111.719,19.34 12.894,8.594 25.781,25.781 40.828,49.41 58.004,42.969 113.867,75.206 163.289,98.836 45.105,-8.6 90.226,-8.6 137.496,0 C 864.949,988.973 834.871,937.41 787.598,888 L 546.969,857.918 c -45.121,-4.293 -75.196,-15.035 -92.391,-30.086 -23.629,8.594 -60.156,10.746 -105.277,4.301 L 85.0391,804.203 177.418,705.375 112.973,449.703 299.887,473.332 c 53.715,2.152 90.242,15.035 109.57,34.375 17.195,-12.887 51.57,-17.187 103.137,-10.742 l 120.316,12.89 c -12.894,-23.628 -12.894,-49.417 -2.148,-79.492 l -25.782,-4.3 -10.746,-55.852 c -23.636,-90.242 21.481,-128.918 137.5,-113.879 l 934.606,113.879 77.35,268.562 98.83,109.567 L 1589,716.117 c 10.74,88.086 10.74,167.582 0,234.188 -10.75,64.455 -25.78,118.165 -40.83,158.985 -19.33,49.42 -47.26,94.53 -83.78,137.51 l 81.64,0 c -83.79,116.02 -217,214.85 -399.62,294.34 34.37,19.34 75.19,32.23 120.31,42.98 -109.57,49.41 -249.22,64.45 -418.958,49.41 l 36.515,40.83 C 826.273,1659.31 757.523,1637.83 682.324,1609.9 L 721,1650.72 z M 652.242,1609.9 C 546.969,1573.37 495.406,1513.21 495.406,1431.57 435.25,1395.05 415.91,1356.37 439.539,1313.4 L 299.887,1182.34 c -53.711,-15.04 -73.047,-45.11 -62.305,-85.94 l 21.481,-88.09 c 8.593,-30.076 30.082,-47.259 62.308,-53.712 10.746,-36.524 64.457,-53.711 161.137,-55.864 40.832,6.454 66.609,27.93 75.203,64.457 75.199,53.719 135.355,88.089 180.477,107.429 169.734,-19.34 275.012,17.18 320.132,109.58 l 0,-2.16 c 12.89,25.78 17.18,49.42 15.03,73.05 15.04,-34.37 17.19,-68.75 8.6,-103.12 30.08,-51.57 40.82,-113.88 34.37,-186.919 -4.29,49.409 -23.63,92.379 -60.16,131.059 l -2.14,-2.15 c -30.08,-40.82 -79.5,-62.31 -150.399,-62.31 C 890.734,973.938 856.359,918.074 800.492,860.066 L 544.816,829.984 c -27.933,-2.152 -55.855,-12.886 -83.789,-34.375 -15.043,15.036 -42.964,19.336 -79.492,15.036 L 143.043,784.863 207.5,716.117 149.492,481.926 319.23,501.266 c 40.817,4.289 73.043,17.183 92.379,36.527 15.043,-15.047 42.969,-21.492 88.086,-15.047 l 186.93,21.488 C 637.207,494.82 637.207,447.551 682.324,406.727 l -51.562,-6.446 -6.453,-32.226 C 602.828,297.156 641.504,267.074 742.48,282.109 l 908.83,111.731 70.9,259.969 55.86,58.007 -234.19,-27.933 2.15,6.453 -2.15,-6.453 c 66.6,399.627 -88.09,648.857 -459.79,749.837 118.18,-15.04 232.04,-68.75 339.47,-161.14 l 68.76,0 -47.27,45.12 c -88.09,83.79 -184.78,146.1 -290.05,191.22 -49.42,21.48 -98.84,34.37 -146.1,38.67 l 105.28,8.6 c 27.93,15.03 51.56,25.77 66.6,27.93 -131.06,40.82 -262.116,45.11 -393.182,12.89 l 19.34,27.93 c -75.204,-23.64 -128.915,-45.12 -165.434,-66.6 -66.606,-38.68 -90.234,-94.54 -75.203,-165.44 6.445,-30.08 27.933,-30.08 60.16,2.15 27.93,21.48 58.016,34.37 94.539,38.67 -27.934,60.16 -6.449,96.68 64.445,107.42 l 111.731,10.75 c 25.777,4.3 47.269,12.89 64.457,23.63 -10.746,-23.63 -36.528,-36.52 -77.356,-38.67 -40.812,-2.15 -75.191,-10.74 -100.972,-30.08 -34.375,-23.63 -40.825,-53.72 -17.188,-90.24 -40.824,-6.44 -75.199,-25.78 -98.832,-55.86 -32.23,-36.53 -70.898,-47.27 -111.726,-30.08 6.445,-15.04 21.492,-25.78 40.828,-30.07 -73.047,-47.27 -124.614,-94.54 -156.848,-139.66 -6.441,-12.89 -15.035,-19.34 -27.93,-21.48 -25.781,0 -47.261,-6.46 -62.308,-17.19 -27.93,-21.49 -34.375,-55.87 -17.184,-105.28 6.442,-19.344 2.149,-21.484 -12.887,-2.15 -15.046,19.33 -19.343,34.38 -17.199,47.27 -6.441,-6.45 -6.441,-21.49 -2.144,-42.98 2.144,-8.59 0,-12.89 -2.149,-12.89 -2.148,-2.14 -4.297,0 -6.441,4.3 -10.742,12.9 -15.047,25.78 -15.047,36.53 l -8.594,60.15 c -10.734,21.49 8.594,38.68 58.016,49.42 58.004,66.6 118.168,126.77 180.476,180.48 -49.421,23.63 -40.828,51.56 30.075,83.79 -6.442,77.35 32.23,139.65 118.168,184.77 15.039,6.45 15.039,8.6 -2.149,4.3 z m 221.305,-128.91 c -15.047,-8.6 -21.488,-23.63 -23.641,-47.27 l -49.414,2.15 -10.742,-6.45 c -6.445,17.19 -2.152,34.38 12.895,51.57 19.328,17.19 51.562,30.08 96.679,38.67 -32.23,-17.19 -51.562,-34.37 -58.011,-51.56 l 4.3,-2.15 c 10.746,10.74 19.336,15.04 27.934,15.04 z M 1230.2,713.965 c 100.98,180.48 90.23,354.505 -30.08,522.085 141.79,-92.38 193.37,-262.112 154.69,-507.046 L 1230.2,713.965 z m -657.454,429.705 -58.004,-36.53 -23.637,-15.03 c 27.93,32.22 73.047,64.45 135.356,98.83 0,25.78 8.594,45.11 27.93,58 -10.743,-19.33 -10.743,-40.81 2.152,-68.74 12.887,-25.79 30.082,-42.97 51.562,-53.72 -23.628,4.3 -45.117,15.04 -66.601,34.38 l -8.594,10.74 c -12.894,-2.15 -32.23,-12.89 -60.164,-27.93 z m -163.289,-58.01 c 2.152,-10.74 -2.141,-23.63 -12.883,-38.67 6.442,10.74 6.442,21.48 2.149,27.93 -2.149,6.44 -8.594,6.44 -17.188,4.29 -10.742,-2.14 -21.488,-8.59 -27.933,-21.48 6.445,21.48 19.339,34.38 40.82,36.53 8.594,-2.15 12.894,-6.46 15.035,-8.6"
         id="path18"
         style="fill:#f36140;fill-opacity:1;fill-rule:evenodd;stroke:none" /><path
         d="m 1054.02,722.559 -17.2,-64.457 92.39,10.746 -8.59,-32.227 -165.432,-21.488 51.562,199.812 -27.93,30.078 204.11,23.637 -10.75,-34.371 -92.38,-10.746 -17.19,-66.609 62.31,8.593 -8.6,-34.375 -62.3,-8.593 z m -88.094,62.304 -40.821,-4.289 0,4.289 c 2.153,12.899 -4.3,19.34 -17.183,17.192 -10.746,-2.145 -17.188,-4.293 -23.645,-8.594 -6.441,-4.293 -8.589,-10.746 -10.73,-17.191 l 2.141,-12.887 51.57,-49.418 c 10.734,-10.742 12.887,-23.629 10.734,-38.676 l -4.293,-10.738 c -4.301,-15.043 -15.035,-27.93 -30.078,-40.824 -15.039,-10.743 -30.074,-17.188 -49.414,-19.336 l -32.234,-4.293 c -21.481,-2.153 -36.528,0 -47.258,6.441 -10.746,8.594 -12.899,21.492 -6.453,40.824 l 0,2.145 42.976,6.453 -2.152,-10.746 c -2.148,-4.301 -2.148,-8.594 2.152,-10.746 l 17.192,-2.149 c 10.73,2.149 17.183,4.301 21.476,8.594 6.453,4.301 10.742,10.746 12.895,17.188 0,6.449 -2.153,10.746 -4.301,12.894 l -51.562,51.563 c -10.747,10.746 -12.887,21.492 -10.747,36.527 l 4.301,12.894 c 2.153,12.883 12.891,25.782 27.938,38.665 17.183,12.898 34.371,19.339 51.558,21.488 l 30.082,4.293 c 45.118,6.457 62.309,-10.735 55.856,-47.258 l 0,-4.305 z M 772.559,494.82 c 2.156,8.594 6.445,15.035 12.886,17.188 6.457,4.293 12.899,6.441 23.641,8.594 l 107.426,12.886 -53.711,-197.664 75.191,8.594 53.715,199.816 55.863,6.446 8.59,34.379 -275.004,-34.379 c -19.34,-2.145 -36.527,-10.739 -51.562,-21.485 -15.043,-10.746 -25.781,-25.781 -30.082,-40.828 l -4.293,-10.73 c -2.153,-15.047 0,-25.793 10.734,-36.528 l 53.715,-51.574 c 2.148,-2.137 4.301,-6.441 2.148,-12.883 -2.148,-6.441 -4.293,-12.894 -10.742,-17.187 -4.293,-4.301 -12.886,-6.453 -23.633,-8.594 l -17.187,2.141 c -2.149,2.152 -4.301,6.453 -4.301,10.746 l 2.152,2.148 2.149,6.446 -42.969,-4.297 -2.148,-2.149 c -4.301,-19.336 -2.149,-32.222 8.593,-40.816 8.594,-6.453 25.782,-8.594 49.411,-6.453 l 32.234,2.148 c 17.184,2.156 34.375,10.746 51.563,23.633 15.035,10.746 25.781,23.637 30.082,38.676 l 2.14,12.894 c 4.305,12.887 0,25.782 -10.73,36.528 l -51.575,49.41 -4.296,12.894 z m 285.761,38.668 -49.42,-180.476 75.19,8.593 27.94,100.985 51.56,6.441 -25.78,-100.976 75.2,10.746 47.26,176.176 c 4.3,15.035 0,27.933 -10.73,36.527 -10.75,10.742 -25.79,12.887 -45.13,10.742 l -64.45,-8.594 c -19.34,-2.148 -36.53,-8.593 -51.57,-19.336 -17.18,-12.894 -27.93,-25.781 -30.07,-40.828 z m 85.93,21.489 21.49,10.746 c 8.6,0 15.04,-2.153 17.19,-4.301 4.3,-2.152 6.44,-6.445 4.3,-12.887 l -12.89,-45.121 -53.72,-6.449 10.74,42.976 12.89,15.036 z m 343.77,81.644 -204.11,-23.637 -8.59,-34.375 64.46,8.59 -53.72,-199.801 75.19,8.59 53.72,199.809 64.46,8.594 8.59,32.23 z m -40.82,-229.894 171.87,21.488 8.6,34.375 -94.53,-12.887 17.18,66.598 96.68,10.746 8.6,34.375 -96.68,-12.887 17.19,66.598 96.68,10.742 8.59,34.375 -169.73,-19.336 -64.45,-234.187 z M 628.609,1296.21 c 42.969,15.04 73.055,34.38 90.239,55.87 10.746,-21.49 8.593,-40.83 -6.442,-60.16 -23.636,-15.04 -51.57,-12.89 -83.797,4.29 z m -283.597,-333.019 94.527,4.301 c 30.086,27.934 58.016,45.118 81.645,53.718 l 51.562,2.15 c -47.258,-19.34 -81.641,-42.981 -105.277,-70.915 -49.406,-8.593 -90.235,-4.289 -122.457,10.746 z M 329.965,668.848 c 6.449,2.148 12.894,4.297 19.336,10.742 6.445,4.293 10.746,8.598 12.894,15.039 l 6.446,25.781 c 2.152,6.449 0,8.594 -2.153,10.742 -4.293,2.153 -10.742,4.301 -17.187,4.301 l -27.93,-4.301 -17.187,-64.457 25.781,2.153 z m -34.375,-36.528 -17.188,-64.457 25.782,2.149 c 6.449,2.152 12.894,4.304 19.336,8.597 6.445,4.301 10.746,10.746 12.894,17.188 l 6.445,23.637 c 2.153,12.886 -4.3,19.339 -19.339,17.187 l -27.93,-4.301 z m -77.344,120.321 167.582,19.339 c 19.336,2.141 34.375,0 45.121,-8.597 10.742,-10.742 12.891,-23.637 10.742,-38.676 l -4.3,-10.742 c -4.293,-15.035 -12.887,-30.082 -25.782,-40.82 -6.445,-6.45 -15.035,-10.743 -25.781,-12.895 8.594,-2.148 15.035,-4.289 19.336,-10.742 8.594,-10.735 10.746,-21.477 6.445,-36.524 l -2.152,-12.886 c -4.293,-15.039 -15.035,-27.934 -30.07,-38.676 -15.039,-10.742 -32.235,-19.34 -49.422,-21.481 l -133.207,-15.046 49.418,197.664 -27.93,30.082 z m 459.777,53.714 109.575,15.036 -60.157,-234.192 -73.05,-8.59 51.562,199.813 -27.93,27.933 z m -10.738,-53.714 -32.23,-124.61 c -2.145,-15.047 -12.887,-27.933 -27.934,-40.832 -17.187,-10.742 -34.375,-17.187 -51.562,-19.336 l -62.305,-8.593 c -19.34,-2.145 -34.375,2.152 -45.117,10.742 -10.746,10.746 -12.887,21.492 -8.598,36.527 l 30.086,124.613 c 4.289,15.047 15.035,27.934 30.07,40.828 15.047,10.735 32.235,17.188 49.422,19.329 l 64.457,8.601 c 17.188,2.145 32.227,0 42.969,-10.742 10.742,-8.594 15.035,-21.488 10.742,-36.527 z m -124.613,-15.047 -32.231,-124.61 2.153,-12.886 17.187,-2.153 c 8.59,0 15.035,2.153 21.489,8.594 6.441,4.301 10.734,8.594 12.882,15.035 l 32.235,124.625 c 0,6.442 -2.153,10.735 -4.301,12.887 -4.293,2.148 -8.594,4.297 -15.035,4.297 -8.598,-2.149 -15.047,-4.297 -21.492,-8.59 -6.442,-6.453 -10.743,-10.742 -12.887,-17.199"
         id="path20"
         style="fill:#ffffff;fill-opacity:1;fill-rule:evenodd;stroke:none" /></g></g></svg>