<?xml version="1.0" encoding="UTF-8" standalone="no"?>
<!-- Created with Inkscape (http://www.inkscape.org/) -->

<svg
   xmlns:dc="http://purl.org/dc/elements/1.1/"
   xmlns:cc="http://creativecommons.org/ns#"
   xmlns:rdf="http://www.w3.org/1999/02/22-rdf-syntax-ns#"
   xmlns:svg="http://www.w3.org/2000/svg"
   xmlns="http://www.w3.org/2000/svg"
   version="1.1"
   width="280"
   height="200"
   id="svg2"
   xml:space="preserve"><metadata
     id="metadata8"><rdf:RDF><cc:Work
         rdf:about=""><dc:format>image/svg+xml</dc:format><dc:type
           rdf:resource="http://purl.org/dc/dcmitype/StillImage" /><dc:title></dc:title></cc:Work></rdf:RDF></metadata><defs
     id="defs6" /><g
     transform="matrix(1.25,0,0,-1.25,-20.79721,221.18101)"
     id="g10"><g
       transform="matrix(0.08300649,0,0,0.08300649,46.822145,16.47432)"
       id="g12"><path
         d="m 2.59766,5.66797 1927.56004,0 0,1927.56003 -1927.56004,0 0,-1927.56003 z"
         id="path14"
         style="fill:#ffffff;fill-opacity:1;fill-rule:evenodd;stroke:none" /><path
         d="m 967.52,1848.19 c -484.071,0 -879.3012,-395.23 -879.3012,-879.303 0,-484.086 395.2302,-878.18 879.3012,-878.18 482.92,0 877.02,394.094 877.02,878.18 0,484.073 -394.1,879.303 -877.02,879.303"
         id="path16"
         style="fill:#168651;fill-opacity:1;fill-rule:evenodd;stroke:none" /><path
         d="m 967.52,152.223 c -449.911,0 -817.801,367.894 -817.801,817.789 0,449.918 367.89,817.808 817.801,817.808 448.75,0 816.64,-367.89 816.64,-817.808 0,-449.895 -367.89,-817.789 -816.64,-817.789"
         id="path18"
         style="fill:#f7ee32;fill-opacity:1;fill-rule:evenodd;stroke:none" /><path
         d="m 1480.07,465.43 c -61.51,-3.399 61.49,165.175 146.92,235.773 19.37,17.086 43.28,36.461 47.83,68.348 3.43,22.769 -7.98,37.601 -29.6,38.746 -34.17,2.258 -123.01,-44.43 -124.15,-43.285 152.61,277.918 -80.88,418.008 15.95,479.508 33.03,20.5 105.91,-1.14 144.66,-5.7 -358.81,214.14 -422.58,0 -530.79,-99.09 -17.08,-15.94 -93.4,0 -108.19,18.23 -19.37,23.92 -58.091,108.2 -14.8,162.88 63.77,80.86 325.74,318.91 562.63,108.2 -116.17,189.07 -382.69,329.17 -619.596,322.33 -238.047,6.84 -505.719,-133.26 -621.891,-322.33 238.051,210.71 500.016,-27.34 563.805,-108.2 43.281,-54.68 4.55,-138.96 -14.805,-162.88 -14.813,-18.23 -91.125,-34.17 -108.211,-18.23 -108.203,99.09 -171.98,313.23 -531.91,99.09 38.73,4.56 111.625,26.2 144.652,5.7 96.817,-61.5 -136.672,-201.59 15.953,-479.508 -1.144,-1.145 -89.98,45.543 -124.156,43.285 -21.641,-1.145 -33.027,-15.977 -29.613,-38.746 4.555,-31.887 28.48,-51.262 47.836,-68.348 85.433,-70.598 208.437,-239.172 146.933,-235.773 -61.5,3.429 -198.183,206.179 -219.828,255.144 25.059,-84.285 75.176,-165.14 125.293,-234.629 27.332,-36.457 58.094,-67.203 96.813,-80.855 25.054,-10.262 50.113,-14.836 75.172,-2.285 20.503,9.113 33.027,28.488 36.453,50.113 4.554,33.027 -13.672,71.742 -29.617,97.945 C 522.172,587.32 472.055,651.09 415.105,694.375 334.238,754.75 277.285,771.836 298.93,785.496 312.594,795.75 390.047,753.609 405.996,744.492 491.418,700.063 611.012,569.09 624.68,473.434 636.07,397.117 549.508,342.426 490.281,362.945 682.773,197.77 896.898,192.086 970.934,189.797 c 74.046,2.289 287.016,7.973 478.366,173.148 -59.23,-20.519 -144.63,34.172 -133.26,110.489 13.69,95.656 132.12,226.629 217.55,271.058 15.94,9.117 93.4,51.258 107.05,41.004 21.66,-13.66 -35.28,-30.746 -116.17,-91.121 -56.94,-43.285 -107.06,-107.055 -128.68,-143.512 -15.95,-26.203 -33.03,-64.918 -28.49,-97.945 3.43,-21.625 14.8,-41 35.32,-50.113 25.06,-12.551 50.11,-7.977 75.17,2.285 38.71,13.652 69.48,44.398 96.8,80.855 50.11,69.489 100.23,150.344 125.29,234.629 -21.63,-48.965 -158.32,-251.715 -219.81,-255.144"
         id="path20"
         style="fill:#168651;fill-opacity:1;fill-rule:evenodd;stroke:none" /><path
         d="m 632.648,1058.87 c -9.105,-18.23 -20.496,-50.12 -50.117,-47.84 -35.304,3.41 -29.601,33.02 -81.996,36.44 0,0 -63.789,-4.54 -62.644,-25.06 2.269,-30.742 35.308,-40.996 56.945,-48.969 31.891,-10.257 69.48,5.684 95.68,-25.054 7.968,-9.117 14.804,-21.66 11.382,-33.035 -3.414,-11.399 -4.554,-5.711 -39.863,-9.11 19.363,-23.914 31.895,-61.519 31.895,-94.551 1.133,-87.683 23.922,-156.031 14.804,-186.8 -43.277,51.257 -42.144,128.718 -48.976,190.23 -3.418,33.031 -15.945,68.352 -30.754,92.262 -19.359,27.312 -53.527,28.457 -76.316,45.543 -21.633,15.961 -54.661,42.156 -52.395,67.214 3.422,34.16 34.176,44.42 60.375,52.38 76.309,23.92 108.203,-5.68 129.848,-7.96 -23.926,27.34 -18.231,72.9 13.664,78.59 59.226,9.11 42.14,-54.68 28.468,-84.28"
         id="path22"
         style="fill:#f7ee32;fill-opacity:1;fill-rule:evenodd;stroke:none" /><path
         d="m 681.629,744.492 c -26.191,54.688 -37.586,142.371 -35.309,200.461 3.418,29.633 10.25,64.937 36.453,80.887 17.079,7.97 38.723,12.52 58.082,5.69 30.754,-9.12 39.872,-36.448 56.954,-60.374 17.078,-26.203 45.558,-44.429 68.339,-53.547 14.805,-33.027 -10.253,-113.886 -34.171,-150.343 -12.532,-27.313 -68.34,-94.52 -56.954,-195.891 -43.277,63.773 -78.585,132.117 -93.394,173.117"
         id="path24"
         style="fill:#f7ee32;fill-opacity:1;fill-rule:evenodd;stroke:none" /><path
         d="m 969.801,436.973 c -12.539,-2.289 -113.906,18.23 -96.817,55.8 0,0 3.414,3.43 7.969,3.43 29.621,-3.43 62.645,-10.258 88.848,-9.113 26.183,-1.145 59.209,5.683 88.839,9.113 4.54,0 7.97,-3.43 7.97,-3.43 17.09,-37.57 -85.434,-58.089 -96.809,-55.8"
         id="path26"
         style="fill:#f7ee32;fill-opacity:1;fill-rule:evenodd;stroke:none" /><path
         d="m 1108.75,539.488 c -29.63,-26.199 -68.33,-43.285 -123,-27.343 -12.539,9.117 -5.699,36.46 2.266,48.972 25.054,33.031 63.784,20.516 75.164,36.461 10.25,15.942 3.43,27.313 -3.4,36.426 -9.12,11.398 -25.05,7.973 -37.6,4.574 -22.211,-4.449 -37.883,-14.367 -52.379,-28.582 l 0,-1.047 c -0.184,0.184 -0.387,0.34 -0.571,0.524 -0.187,-0.184 -0.386,-0.34 -0.574,-0.524 l 0,1.047 c -14.5,14.215 -30.187,24.133 -52.394,28.582 -12.528,3.399 -28.469,6.824 -37.586,-4.574 -6.832,-9.113 -13.664,-20.484 -3.41,-36.426 11.382,-15.945 50.113,-3.43 75.172,-36.461 7.968,-12.512 14.808,-39.855 2.277,-48.972 -54.672,-15.942 -93.402,1.144 -123.016,27.343 -67.207,56.946 25.055,178.801 70.625,228.918 24.696,26.977 40.602,50.485 68.332,51.137 l 0,0.121 c 0.203,0 0.371,-0.062 0.574,-0.062 0.2,0 0.368,0.062 0.571,0.062 l 0,-0.121 c 27.73,-0.652 43.639,-24.16 68.329,-51.137 45.57,-50.117 137.82,-171.972 70.62,-228.918"
         id="path28"
         style="fill:#f7ee32;fill-opacity:1;fill-rule:evenodd;stroke:none" /><path
         d="m 1254.56,744.492 c -14.84,-41 -50.15,-109.344 -93.4,-173.117 11.36,101.371 -44.43,168.578 -56.98,195.891 -23.92,36.457 -48.97,117.316 -34.14,150.343 22.77,9.118 51.22,27.344 68.31,53.547 17.09,23.926 26.2,51.254 56.97,60.374 19.34,6.83 41.01,2.28 58.09,-5.69 26.2,-15.95 33.03,-51.254 36.43,-80.887 2.29,-58.09 -9.11,-145.773 -35.28,-200.461"
         id="path30"
         style="fill:#f7ee32;fill-opacity:1;fill-rule:evenodd;stroke:none" /><path
         d="m 1490.3,952.926 c -22.77,-17.086 -56.94,-18.231 -76.32,-45.543 -14.79,-23.91 -27.31,-59.231 -30.74,-92.262 -6.83,-61.512 -5.68,-138.973 -47.83,-190.23 -9.11,30.769 13.66,99.117 14.8,186.8 0,33.032 12.55,70.637 30.74,94.551 -34.16,3.399 -35.28,-2.289 -38.71,9.11 -3.43,11.375 3.43,23.918 11.4,33.035 25.06,30.738 62.63,14.797 94.52,25.054 21.66,7.973 54.68,18.227 56.97,48.969 1.11,20.52 -62.66,25.06 -62.66,25.06 -52.4,-3.42 -46.68,-33.03 -80.86,-36.44 -29.63,-2.28 -41,29.61 -50.11,47.84 -13.69,29.6 -30.77,93.39 28.45,84.28 30.78,-5.69 36.46,-51.25 13.69,-78.59 20.49,2.28 52.37,31.88 128.69,7.96 26.2,-7.96 56.97,-18.22 60.37,-52.38 2.29,-25.058 -30.74,-51.253 -52.4,-67.214"
         id="path32"
         style="fill:#f7ee32;fill-opacity:1;fill-rule:evenodd;stroke:none" /><path
         d="m 781.863,868.637 c 15.946,62.664 -55.812,143.523 -83.148,118.461 -21.641,-19.34 -22.781,-50.118 1.137,-64.914 13.671,-7.973 43.289,-4.575 54.671,-25.059 17.086,-26.199 20.5,-30.742 27.34,-28.488"
         id="path34"
         style="fill:#168651;fill-opacity:1;fill-rule:evenodd;stroke:none" /><path
         d="m 1154.3,868.637 c 6.86,-2.254 10.25,2.289 27.34,28.488 11.4,20.484 41,17.086 54.69,25.059 23.91,14.796 22.77,45.574 1.13,64.914 -27.33,25.062 -99.11,-55.797 -83.16,-118.461"
         id="path36"
         style="fill:#168651;fill-opacity:1;fill-rule:evenodd;stroke:none" /></g></g></svg>