<?xml version="1.0" encoding="UTF-8" standalone="no"?>
<!-- Created with Inkscape (http://www.inkscape.org/) -->

<svg
   xmlns:dc="http://purl.org/dc/elements/1.1/"
   xmlns:cc="http://creativecommons.org/ns#"
   xmlns:rdf="http://www.w3.org/1999/02/22-rdf-syntax-ns#"
   xmlns:svg="http://www.w3.org/2000/svg"
   xmlns="http://www.w3.org/2000/svg"
   version="1.1"
   width="280"
   height="200"
   viewBox="0 0 280 199.99999"
   id="Layer_1"
   xml:space="preserve"><metadata
     id="metadata3482"><rdf:RDF><cc:Work
         rdf:about=""><dc:format>image/svg+xml</dc:format><dc:type
           rdf:resource="http://purl.org/dc/dcmitype/StillImage" /><dc:title></dc:title></cc:Work></rdf:RDF></metadata><defs
     id="defs3480" /><polygon
     points="11.01,38.29 11.01,97.12 16.31,95.99 16.31,37.33 16.14,37.31 "
     transform="matrix(1.7536168,0,0,1.7536168,48,0)"
     id="polygon3462"
     style="fill:#a6adb4" /><polygon
     points="54,114.05 80.38,103.63 85.66,88.42 91.68,99.23 91.66,99.32 108,93.15 106.17,89.44 106.17,24.96 108,21.25 96.99,16.92 96.99,75.76 91.69,76.78 91.69,14.84 79.29,9.95 79.29,79.16 71.95,80.57 71.95,7.07 54,0 "
     transform="matrix(1.7536168,0,0,1.7536168,48,0)"
     id="polygon3464"
     style="fill:#a6adb4" /><polygon
     points="36.05,33.49 28.71,34.9 28.71,104.1 36.05,102.06 "
     transform="matrix(1.7536168,0,0,1.7536168,48,0)"
     id="polygon3466"
     style="fill:#a6adb4" /><polygon
     points="16.34,14.74 16.32,14.83 22.34,25.63 26.13,14.85 "
     transform="matrix(1.7536168,0,0,1.7536168,48,0)"
     id="polygon3468"
     style="fill:#a6adb4" /><polygon
     points="91.66,99.32 91.68,99.23 85.66,88.42 81.88,99.2 "
     transform="matrix(1.7536168,0,0,1.7536168,48,0)"
     id="polygon3470"
     style="fill:#482783" /><polygon
     points="96.99,16.92 91.69,18.07 91.69,76.78 96.99,75.76 "
     transform="matrix(1.7536168,0,0,1.7536168,48,0)"
     id="polygon3472"
     style="fill:#482783" /><polygon
     points="79.29,9.95 71.95,11.99 71.95,80.57 79.29,79.16 "
     transform="matrix(1.7536168,0,0,1.7536168,48,0)"
     id="polygon3474"
     style="fill:#482783" /><polygon
     points="16.31,99.21 28.71,104.1 28.71,34.9 36.05,33.49 36.05,106.99 54,114.05 54,0 27.62,10.42 27.66,10.47 22.34,25.63 16.32,14.82 16.34,14.74 0,20.91 1.83,24.62 1.83,89.09 0,92.8 11.01,97.12 11.01,38.29 16.31,37.28 "
     transform="matrix(1.7536168,0,0,1.7536168,48,0)"
     id="polygon3476"
     style="fill:#482783" /></svg>