<?xml version="1.0" encoding="UTF-8"?>
<!DOCTYPE svg PUBLIC "-//W3C//DTD SVG 1.1//EN" "http://www.w3.org/Graphics/SVG/1.1/DTD/svg11.dtd">
<svg version="1.1" id="Layer_1" xmlns="http://www.w3.org/2000/svg" xmlns:xlink="http://www.w3.org/1999/xlink" x="0px" y="0px" width="108px" height="114.05px" viewBox="0 0 108 114.05" enable-background="new 0 0 108 114.05" xml:space="preserve">
<polygon fill="#A6ADB4" points="11.01,97.12 16.31,95.99 16.31,37.33 16.14,37.31 11.01,38.29 "/>
<polygon fill="#A6ADB4" points="85.66,88.42 91.68,99.23 91.66,99.32 108,93.15 106.17,89.44 106.17,24.96 108,21.25 96.99,16.92 96.99,75.76 91.69,76.78 91.69,14.84 79.29,9.95 79.29,79.16 71.95,80.57 71.95,7.07 54,0 54,114.05 80.38,103.63 "/>
<polygon fill="#A6ADB4" points="28.71,104.1 36.05,102.06 36.05,33.49 28.71,34.9 "/>
<polygon fill="#A6ADB4" points="22.34,25.63 26.13,14.85 16.34,14.74 16.32,14.83 "/>
<polygon fill="#482783" points="85.66,88.42 81.88,99.2 91.66,99.32 91.68,99.23 "/>
<polygon fill="#482783" points="91.69,76.78 96.99,75.76 96.99,16.92 91.69,18.07 "/>
<polygon fill="#482783" points="71.95,80.57 79.29,79.16 79.29,9.95 71.95,11.99 "/>
<polygon fill="#482783" points="36.05,106.99 54,114.05 54,0 27.62,10.42 27.66,10.47 22.34,25.63 16.32,14.82 16.34,14.74 0,20.91 1.83,24.62 1.83,89.09 0,92.8 11.01,97.12 11.01,38.29 16.31,37.28 16.31,99.21 28.71,104.1 28.71,34.9 36.05,33.49 "/>
</svg>