<?xml version="1.0" encoding="UTF-8" standalone="no"?>
<!-- Created with Inkscape (http://www.inkscape.org/) -->

<svg
   xmlns:dc="http://purl.org/dc/elements/1.1/"
   xmlns:cc="http://creativecommons.org/ns#"
   xmlns:rdf="http://www.w3.org/1999/02/22-rdf-syntax-ns#"
   xmlns:svg="http://www.w3.org/2000/svg"
   xmlns="http://www.w3.org/2000/svg"
   version="1.1"
   width="280"
   height="200"
   id="svg2"
   xml:space="preserve"><metadata
     id="metadata8"><rdf:RDF><cc:Work
         rdf:about=""><dc:format>image/svg+xml</dc:format><dc:type
           rdf:resource="http://purl.org/dc/dcmitype/StillImage" /><dc:title></dc:title></cc:Work></rdf:RDF></metadata><defs
     id="defs6" /><g
     transform="matrix(1.25,0,0,-1.25,-20.4725,220.47249)"
     id="g10"><g
       transform="matrix(0.0830065,0,0,0.0830065,46.778,16.378)"
       id="g12"><path
         d="m 0,0 1927.56,0 0,1927.56 L 0,1927.56 0,0 z"
         id="path14"
         style="fill:#ffffff;fill-opacity:1;fill-rule:evenodd;stroke:none" /><path
         d="m 1610.17,918.82 45.56,106.87 -19.57,43.95 c -26.27,59.1 -77.5,150.08 -117.41,218.58 l 63.36,166.98 c 0.15,0.21 0.25,0.48 0.32,0.81 l 0.24,0.65 c -0.06,-0.06 -0.11,-0.11 -0.16,-0.17 0.4,4.61 -4.32,16.79 -8.9,27.43 -5.28,12.24 -114.5,261.25 -114.5,261.25 0,0 -196.09,97.35 -493.559,97.35 -297.481,0 -503.512,-95.99 -503.512,-95.99 L 327.035,1477.95 c 0,0 0.156,-0.16 0.391,-0.4 l 82.793,-190.45 c 0.086,0.14 -0.512,-0.87 -0.887,-1.53 -39.684,-68.18 -89.941,-157.59 -115.871,-215.93 l -21.625,-48.67 45.035,-109.708 78.574,-149.012 c 0,0 171.715,-115.434 569.375,-645.242 397.66,529.808 569.36,645.242 569.36,645.242 l 78.5,148.961 -2.51,7.609"
         id="path16"
         style="fill:#231f20;fill-opacity:1;fill-rule:evenodd;stroke:none" /><path
         d="m 469.98,1736.37 c -4.281,-8.51 -120.578,-239.86 -128.875,-256.37 22.157,-23 92.071,-95.52 115.161,-118.98 l 7.707,-7.83 -3.16,-8.2 c -34.512,-57.69 -118.645,-200.57 -154.434,-281.1 0,0 -8.199,-18.44 -14.602,-32.85 21.625,-4.8 87.532,-19.41 87.532,-19.41 l -11.067,-17.087 c -11.945,-18.414 -21.289,-37.637 -27.777,-57.125 0,0 -3.902,-11.738 -6.871,-20.68 7.82,-5.539 17.867,-12.664 17.867,-12.664 1.898,-1.332 199.824,-143.008 589.84,-662.64 0,0 13.344,-17.786 23.515,-31.336 10.309,13.746 23.504,31.332 23.504,31.332 388.97,518.238 587.91,661.281 589.86,662.664 -0.02,-0.012 10.1,7.152 17.8,12.609 -3,9.082 -6.84,20.754 -6.84,20.754 -6.39,19.199 -15.04,37.41 -25.7,54.074 l -9.81,15.339 c 0,0 63.09,20.83 82.82,27.34 -5.79,13.02 -13.2,29.68 -13.2,29.68 -35.86,80.67 -119.95,223.45 -154.44,281.1 l -3.08,8.19 42.42,43.13 c 0,0 58.81,59.79 63.99,65.07 -0.82,2.55 -117.26,264.53 -121.39,273.96 -30.69,14.05 -217.59,94.23 -485.152,94.23 -268.883,0 -464.664,-79.8 -495.618,-93.2"
         id="path18"
         style="fill:#ffffff;fill-opacity:1;fill-rule:evenodd;stroke:none" /><path
         d="m 1499.34,1019.93 97.04,32.02 c -45.2,101.68 -170.15,306.75 -170.15,306.75 l 123.64,103.94 -124.22,267.84 c 0,0 -183.09,85.9 -460.83,85.9 -277.746,0 -470.105,-84.7 -470.105,-84.7 L 361.266,1481 503.406,1358.7 c 0,0 -124.965,-205.07 -170.164,-306.75 l 103.082,-22.83 c 0,0 -46.965,-37.952 -67.957,-100.983 0,0 198.793,-139.239 596.453,-669.055 397.66,529.816 596.43,669.055 596.43,669.055 -20.99,63.031 -61.91,91.793 -61.91,91.793"
         id="path20"
         style="fill:#231f20;fill-opacity:1;fill-rule:evenodd;stroke:none" /><path
         d="m 1485.2,960.449 c -60.86,45.201 -106.43,63.941 -138.04,68.121 73.03,50.75 132.99,40.98 132.99,40.98 -20.77,20.43 -52.86,32.25 -74.81,38.44 -27.82,7.85 -66.45,14.68 -91.13,14.65 38.13,40.38 99.96,68.7 99.96,68.7 -137,40.59 -211.25,-57.43 -211.25,-57.43 8.58,-40.73 -17.12,-89.72 -17.12,-89.72 74.3,-53.69 109.11,-121.803 109.11,-121.803 -2.59,2.258 -5.16,4.41 -7.71,6.527 0.12,-0.086 0.19,-0.133 0.19,-0.137 -129.97,108.223 -208.13,54.516 -208.13,54.516 l -5.08,28.957 -70.71,-160.363 22.49,149.163 -30.444,25.36 c 81.204,-12.68 106.564,58.37 131.944,98.96 25.37,40.59 71.04,76.11 71.04,76.11 -66.55,-10.22 -111.5,-41.88 -138,-67.45 53.93,186.66 351.15,316.1 351.15,316.1 0,0 -178.41,-17.63 -282.76,-103.52 0,0 0,0.01 0,0.02 l 23.94,29.93 c -68.51,12.66 -80.04,25.35 -186.611,25.35 -92.633,0 -113.473,-9.59 -162.321,-20.41 0.008,-0.01 0.008,-0.01 0.012,-0.01 -0.004,0 -0.012,0.01 -0.012,0.01 -7.363,-1.62 -15.328,-3.3 -24.293,-4.94 l 40.594,-50.74 c 0,0 -105.062,88.13 -295.347,110.96 0,0 290.632,-115.73 346.336,-300.15 0.257,-0.86 0.515,-1.72 0.765,-2.59 0.133,-0.13 -1.687,1.62 -2.769,2.63 -26.829,25.07 -70.957,54.94 -135.25,64.81 0,0 0.062,-0.04 0.089,-0.05 1.325,-1.04 45.977,-36.07 70.969,-76.06 25.363,-40.59 50.738,-111.64 131.942,-98.96 l -30.461,-25.36 22.507,-149.163 -3.617,7.562 c 1.215,-2.304 2.422,-4.801 3.617,-7.562 l -70.703,160.363 -5.093,-28.957 c 0,-0.004 -78.157,53.707 -208.125,-54.516 0,0 0.011,0.004 0.011,0.008 -2.5,-2.078 -5.011,-4.199 -7.55,-6.398 0,0 34.843,68.113 109.113,121.803 0,0 -25.68,48.99 -17.113,89.72 0,0 -74.223,98.02 -211.247,57.43 0,0 61.856,-28.32 99.965,-68.7 0.004,0 0.008,0 0.02,0 -52.922,0.09 -135.445,-21.44 -165.953,-53.09 0,0 59.672,9.66 132.492,-40.68 -31.598,-4.19 -76.715,-23.23 -137.567,-68.421 0,0 65.965,-2.535 258.805,-131.926 L 680.66,792.996 c -0.004,0 86.813,-27.691 110.496,-135.887 16.715,-76.425 50.418,-169.511 76.477,-211.39 18.918,-30.442 51.012,-52.012 97.887,-52.012 0.253,0 0.464,0.012 0.699,0.031 0.246,-0.019 0.469,-0.031 0.715,-0.031 46.866,0 78.956,21.57 97.886,52.012 26.06,41.879 59.74,134.965 76.47,211.39 23.68,108.196 110.49,135.887 110.49,135.887 l -25.34,35.527 c 192.81,129.391 258.76,131.926 258.76,131.926"
         id="path22"
         style="fill:#ffffff;fill-opacity:1;fill-rule:evenodd;stroke:none" /><path
         d="m 1239.04,868.305 c 0,0 -30.36,140.445 -95.4,90.371 -36.88,-28.391 -22.5,-90.531 -36.83,-170.711 -16.72,-93.727 -11.71,-153.996 -140.591,-153.996 -128.891,0 -123.86,60.269 -140.59,153.996 -14.332,80.18 0.062,142.32 -36.828,170.711 -65.043,50.074 -95.41,-90.371 -95.41,-90.371 30.468,9.836 71.988,-3.344 71.988,-3.344 -20.098,-16.742 -26.789,-55.246 -26.789,-55.246 103.769,-103.762 84.785,-183.586 117.16,-287.867 23.641,-76.129 73.094,-88.696 110.469,-88.696 37.381,0 89.541,12.567 110.461,88.696 28.96,105.281 13.41,184.105 117.17,287.867 0,0 -6.71,38.504 -26.78,55.246 0,0 41.52,13.18 71.97,3.344"
         id="path24"
         style="fill:#231f20;fill-opacity:1;fill-rule:evenodd;stroke:none" /><path
         d="m 885.387,628.664 c -0.832,0.367 0.316,-0.148 -2.391,1.082 -10.223,4.656 -18.801,10.488 -26.164,17.508 1.008,-68.938 25.281,-118.57 25.281,-118.57 0,0 16.231,70.597 24.571,93.089 -7.848,1.875 -14.914,4.168 -21.297,6.891"
         id="path26"
         style="fill:#ffffff;fill-opacity:1;fill-rule:evenodd;stroke:none" /><path
         d="m 1006.52,780.195 c 0,0 4.89,2.758 -40.301,2.758 -45.18,0 -41.457,-2.758 -41.457,-2.758 -33.489,107.11 -90.942,170.614 -90.942,170.614 0,0 46.825,-125.344 53.75,-234.809 4.012,-63.574 78.649,-60.266 78.649,-60.266 0,0 78.051,-3.425 78.661,60.266 0.96,97.668 61.98,234.809 61.98,234.809 0,0 -66.86,-63.504 -100.34,-170.614"
         id="path28"
         style="fill:#231f20;fill-opacity:1;fill-rule:evenodd;stroke:none" /><path
         d="m 1134.38,1101.17 -3.54,-5.27 c 2.8,-4.52 4.45,-9.91 4.37,-15.71 -0.13,-13.11 -12.67,-33.56 -36.67,-32.45 l -13.5,-20.13 c 0,0 9.32,10.25 41.9,13.04 48.83,4.18 49.36,80.08 49.36,80.08 -34.18,2.95 -41.92,-19.56 -41.92,-19.56"
         id="path30"
         style="fill:#ffffff;fill-opacity:1;fill-rule:evenodd;stroke:none" /><path
         d="m 798.055,1101.17 3.543,-5.27 c -2.801,-4.52 -4.426,-9.91 -4.36,-15.71 0.121,-13.11 12.676,-33.56 36.657,-32.45 l 13.515,-20.13 c 0,0 -9.336,10.25 -41.91,13.04 -48.832,4.18 -49.359,80.08 -49.359,80.08 34.183,2.95 41.914,-19.56 41.914,-19.56"
         id="path32"
         style="fill:#ffffff;fill-opacity:1;fill-rule:evenodd;stroke:none" /><path
         d="m 926.617,689.223 c 0,0 -19.812,64.218 32.141,51.687 44.832,-10.801 58.232,20.281 58.232,20.281 0,0 -85.498,8.954 -108.791,-10.039 -23.289,-19.027 18.418,-61.929 18.418,-61.929"
         id="path34"
         style="fill:#ffffff;fill-opacity:1;fill-rule:evenodd;stroke:none" /><path
         d="m 503.043,1414.07 c 35.473,-25.34 64.219,-60.22 84.66,-89.89 0.02,-0.02 0.055,-0.09 0.055,-0.09 22.613,-32.83 35.055,-59.28 35.055,-59.28 79.261,-12.89 141.894,-33.17 141.894,-33.17 -171.367,171.38 -261.664,182.43 -261.664,182.43"
         id="path36"
         style="fill:#ffffff;fill-opacity:1;fill-rule:evenodd;stroke:none" /><path
         d="m 986.699,494.469 -17.797,-44.93 15.012,0.559 c 1.184,0.144 11.766,3.242 12.957,3.422 l -10.172,40.949"
         id="path38"
         style="fill:#ffffff;fill-opacity:1;fill-rule:evenodd;stroke:none" /><path
         d="m 926.145,456.367 c -7.54,21.196 -23.133,76.793 -23.133,76.793 0,0 -8.586,-22.371 -14.094,-51.402 5.797,-6.715 11.992,-12.008 18.371,-16.192 0,-0.007 0.004,-0.011 0.004,-0.019 6.176,-4.043 12.512,-7.016 18.852,-9.18"
         id="path40"
         style="fill:#ffffff;fill-opacity:1;fill-rule:evenodd;stroke:none" /><path
         d="m 1347.09,1378.07 c -15.21,-9.12 -32.51,-20.49 -51.8,-34.77 -2.06,-1.53 -2.49,-1.84 -2.49,-1.84 -35.14,-26.15 -76.91,-61.64 -125.07,-109.82 l 84.5,22.16 c 17.49,3.84 36.88,7.67 57.4,11.01 0,0 45,95.83 119.77,149.26 0,0 -27.97,-3.43 -82.31,-36"
         id="path42"
         style="fill:#ffffff;fill-opacity:1;fill-rule:evenodd;stroke:none" /><path
         d="m 944.016,494.469 -10.18,-40.949 c 1.203,-0.18 11.769,-3.278 12.957,-3.422 l 15.035,-0.559 -17.812,44.93"
         id="path44"
         style="fill:#ffffff;fill-opacity:1;fill-rule:evenodd;stroke:none" /><path
         d="m 1027.71,533.16 c 0,0 -15.6,-55.597 -23.14,-76.793 6.33,2.164 12.68,5.137 18.85,9.18 0,0.008 0,0.012 0,0.023 0,-0.004 0,-0.004 0,-0.004 6.38,4.184 12.58,9.477 18.36,16.192 -5.49,29.031 -14.07,51.402 -14.07,51.402"
         id="path46"
         style="fill:#ffffff;fill-opacity:1;fill-rule:evenodd;stroke:none" /><path
         d="m 935.965,616.758 c 0.43,-0.051 -1.86,0.25 -3.598,0.48 -6.406,0.875 -12.297,2.047 -17.683,3.532 l 19.605,-59.262 26.164,53.91 c 0,0 -20.043,0.816 -24.488,1.34"
         id="path48"
         style="fill:#ffffff;fill-opacity:1;fill-rule:evenodd;stroke:none" /><path
         d="m 1055.27,632.586 0,0 c 0,0.004 0,0.023 0,0.023 0,0 -6.45,-3.468 -14.48,-6.191 -6.03,-2.043 -11.54,-3.832 -14.89,-4.629 8.34,-22.492 24.58,-93.074 24.58,-93.074 0,0 24.27,49.617 25.27,118.558 -5.95,-5.683 -12.72,-10.558 -20.48,-14.687"
         id="path50"
         style="fill:#ffffff;fill-opacity:1;fill-rule:evenodd;stroke:none" /><path
         d="m 995.535,617.801 c -1.535,-0.156 -2.773,-0.321 -2.191,-0.266 -4.449,-0.414 -24.504,-0.793 -24.504,-0.793 l 24.598,-54.445 21.312,58.793 c -5.82,-1.465 -12.23,-2.555 -19.215,-3.289"
         id="path52"
         style="fill:#ffffff;fill-opacity:1;fill-rule:evenodd;stroke:none" /><path
         d="m 1116.97,1784.06 c -11.08,1.42 -22.13,2.73 -33.11,3.92 -31.25,2.88 -49.48,-9.62 -47.68,-32.92 0,0 0.86,-11.06 2.18,-28.18 1.39,-17.79 3.3,-42.65 5.32,-68.89 2.14,-27.73 4.41,-57.08 6.2,-80.26 1.87,-24.24 3.16,-41.04 3.16,-41.04 20.08,-18.1 40.84,-36.67 62.26,-55.69 18.25,0 36.47,0 54.72,0 18.25,0 36.5,0 54.73,0 14.86,17.8 29.34,34.64 43.55,50.54 -5.39,19.71 -10.56,38.71 -15.56,57.07 -4.83,17.73 -9.5,34.86 -14.01,51.41 -4.37,16.02 -8.59,31.53 -12.69,46.55 -3.96,14.56 -7.81,28.66 -11.52,42.36 -3.37,12.32 -10.32,22.76 -20.59,31.24 -11.78,9.7 -27.52,16.33 -46.82,19.52 -10.1,1.54 -20.14,3.01 -30.14,4.37 l 0,0 z m 22.48,-49.58 c 0.75,-3.85 7.68,-40.23 15.2,-79.7 8.19,-42.95 17.13,-89.84 18.15,-95.23 -7.14,0.27 -26.63,0.95 -33.89,1.19 -0.87,5.54 -8.45,53.07 -15.36,96.51 -6.35,39.88 -12.19,76.59 -12.8,80.44 6.02,-0.63 22.55,-2.47 28.7,-3.21"
         id="path54"
         style="fill:#ffffff;fill-opacity:1;fill-rule:evenodd;stroke:none" /><path
         d="m 863.961,1790.86 c -1.383,-0.11 -2.797,-0.23 -4.184,-0.35 -2.523,-19.28 -5.148,-39.49 -7.882,-60.67 -2.891,-22.2 -5.918,-45.54 -9.11,-70.08 -3.355,-25.85 -6.902,-53.1 -10.629,-81.86 -3.945,-30.44 -8.144,-62.68 -12.582,-96.9 24.469,0 48.926,0 73.387,0 24.465,0 48.93,0 73.402,0 23.418,13.71 46.317,27.05 68.687,39.97 0,0 -7.19,119.89 -7.19,119.93 -0.99,14.99 -23.39,24.98 -38.29,29.89 13.69,8.28 33.88,22.56 33.09,35.81 -0.01,1.29 -0.78,34.2 -1.05,38.67 -0.69,11.41 -6.41,22.53 -15.98,31.36 -12.411,11.45 -30.064,17.8 -49.942,17.9 -15.231,-0.12 -30.438,-0.44 -45.711,-1.05 -15.282,-0.62 -30.625,-1.52 -46.016,-2.62 l 0,0 z m 83.945,-45.48 c -0.16,-6.83 -1.035,-44.41 -1.215,-51.81 -5.625,-0.05 -17.003,-0.23 -22.714,-0.34 0.336,7.56 2.125,45.12 2.453,51.84 5.328,0.12 16.09,0.26 21.476,0.31 l 0,0 z m -2.613,-112.4 c -0.211,-8.78 -1.434,-60.76 -1.641,-70.52 -6.441,-0.01 -19.414,-0.08 -25.914,-0.11 0.457,9.87 2.93,61.79 3.336,70.44 6.016,0.05 18.149,0.16 24.219,0.19"
         id="path56"
         style="fill:#ffffff;fill-opacity:1;fill-rule:evenodd;stroke:none" /><path
         d="m 756.16,1777.53 c -10.234,-1.75 -20.551,-3.62 -30.945,-5.58 -37.207,-7.72 -62.934,-26.22 -71.981,-52.2 -4.652,-13.34 -9.433,-27.09 -14.355,-41.24 -5.09,-14.57 -10.309,-29.62 -15.703,-45.12 -5.571,-15.97 -11.324,-32.48 -17.246,-49.53 -6.153,-17.63 -12.504,-35.84 -19.051,-54.68 13.32,-15.05 26.855,-31.1 40.59,-48.18 18.246,0 36.492,0 54.726,0 18.254,0 36.489,0 54.731,0 22.742,18.61 44.808,36.88 66.187,54.8 3.332,21.97 6.528,43.08 9.61,63.38 2.953,19.53 5.797,38.33 8.539,56.45 2.664,17.48 5.211,34.34 7.668,50.62 2.39,15.73 4.695,30.94 6.922,45.64 1.511,9.95 -0.903,18.12 -6.887,23.64 -7.742,7.1 -21.121,9.59 -38.934,7.22 -11.211,-1.62 -22.496,-3.36 -33.871,-5.22 l 0,0 z m 3.172,-45.24 c -0.898,-3.83 -9.367,-40.06 -18.543,-79.26 -9.969,-42.62 -20.832,-89.07 -22.09,-94.4 -7.164,-0.31 -26.808,-1.18 -34.097,-1.53 1.398,5.3 13.531,50.97 24.668,92.91 10.257,38.64 19.75,74.36 20.75,78.1 6.214,0.94 23.085,3.33 29.312,4.18"
         id="path58"
         style="fill:#ffffff;fill-opacity:1;fill-rule:evenodd;stroke:none" /><path
         d="m 591.945,1739.56 c -26.371,-7.88 -53.472,-16.47 -81.41,-25.77 -7.933,-15.8 -16.16,-32.16 -24.676,-49.06 -8.804,-17.53 -17.929,-35.68 -27.386,-54.48 -9.817,-19.54 -20,-39.8 -30.594,-60.85 -11.004,-21.9 -22.469,-44.69 -34.402,-68.4 28.156,0 56.269,0 84.421,0 28.145,0 56.274,0 84.415,0 8.578,24.15 16.804,47.33 24.707,69.56 0,0 -62.5,-4.45 -72.211,-5.2 1.019,2.4 7.652,18.19 16.734,39.77 8.699,20.74 19.496,46.4 29.648,70.57 9.688,23.04 18.836,44.81 25.418,60.46 6.34,15.12 10.446,24.88 10.446,24.88 -1.696,-0.49 -3.403,-0.99 -5.11,-1.48"
         id="path60"
         style="fill:#ffffff;fill-opacity:1;fill-rule:evenodd;stroke:none" /><path
         d="m 1396.94,1716.67 c -20.98,6.95 -41.49,13.47 -61.52,19.46 -19.76,5.91 -39.09,11.29 -58.08,16.32 -38.57,9.44 -50.43,-3.97 -45.25,-21.66 l 21.21,-72.56 c 3.14,-10.71 10.34,-20.97 20.89,-29.46 14.88,-12 34.99,-19.78 58.08,-22.61 0,0 38.4,-5.09 47.26,-6.35 2.85,-7.16 18.61,-46.81 21.68,-54.56 -5.07,0.4 -33.6,2.56 -60.73,4.39 -27.02,1.84 -52.67,3.38 -52.67,3.38 6.8,-22.98 13.9,-46.97 21.31,-72.02 25.86,0 51.72,0 77.58,0 25.85,0 51.71,0 77.57,0 12.69,13.94 25.48,26.77 38.37,38.45 -13.17,27.59 -25.69,53.84 -37.62,78.8 -5.22,10.92 -13.32,19.9 -24.84,27.75 -14.45,9.83 -33.49,17.25 -59.64,22.93 0,0 -38.93,7.9 -47.48,9.55 -2.42,6.46 -14.4,38.53 -16.6,44.4 4.58,-1.08 29.99,-7.26 54.83,-13.81 25.17,-6.69 49.8,-13.68 49.8,-13.68 -6.41,13.52 -12.59,26.64 -18.62,39.42 -1.84,0.62 -3.69,1.24 -5.53,1.86"
         id="path62"
         style="fill:#ffffff;fill-opacity:1;fill-rule:evenodd;stroke:none" /><path
         d="m 955.637,1786.85 c 17.789,-0.09 33.406,-5.62 44.172,-15.61 7.771,-7.23 12.381,-16.2 12.911,-25.33 0,-0.08 0.01,-0.25 0.01,-0.25 0.22,-4.3 0.68,-38.19 0.68,-38.54 0.43,-8.94 -22.742,-24.95 -38.875,-33.34 -3.972,-2.08 -7.953,-4.19 -11.949,-6.29 4.387,-1.03 8.812,-2.07 13.211,-3.11 17.258,-4.18 41.653,-14.68 42.143,-23.25 0,-0.01 5.19,-103.94 5.56,-111.64 -5.42,-3.1 -57.621,-33.08 -59.719,-34.28 -1.183,0 -31.32,-0.01 -62.496,-0.06 -31.148,-0.05 -63.316,-0.13 -68.523,-0.16 0.254,2.23 2.886,24.12 6.578,54.96 3.492,29.16 7.836,65.4 11.988,100.1 3.883,32.4 7.602,63.5 10.488,87.44 2.719,22.75 4.743,39.66 5.512,46.06 3.867,0.27 26.024,1.63 47.145,2.36 21.07,0.73 41.164,0.94 41.164,0.94 l 0,0 z m -3.168,-33 c -11.473,-0.09 -22.949,-0.26 -34.434,-0.54 -1.273,-22.14 -2.609,-45.42 -4.023,-69.93 13.98,0.29 27.957,0.49 41.929,0.6 0.34,24.5 0.637,47.75 0.946,69.88 -1.465,0 -2.946,-0.01 -4.418,-0.01 l 0,0 z m -2.028,-110.14 c -12.906,-0.05 -25.824,-0.17 -38.742,-0.36 -1.687,-29.35 -3.48,-60.49 -5.386,-93.62 15.949,0.09 31.894,0.16 47.859,0.19 0.426,33.19 0.859,64.39 1.25,93.81 -1.664,0 -3.324,0 -4.981,-0.02"
         id="path64"
         style="fill:#231f20;fill-opacity:1;fill-rule:evenodd;stroke:none" /><path
         d="m 1045,1754.5 c -1.64,18.74 13.28,28.36 39.96,25.92 21.06,-2.34 42.31,-5.06 63.77,-8.17 16.97,-2.74 30.47,-8.23 40.1,-16.21 8.04,-6.67 13.52,-15.18 16.21,-25.44 0,0 10.63,-40.54 22.44,-85.5 12.99,-49.46 27.53,-104.88 28.23,-107.55 -2.75,-3 -35.8,-40.66 -38.06,-43.31 -3.83,0.05 -96.29,0.59 -100.14,0.6 -3.22,2.83 -50.1,44.25 -54.03,47.73 -0.13,1.49 -1.6,18.38 -3.64,41.96 -1.99,22.57 -4.45,50.73 -6.74,77.23 -4.28,48.96 -8.1,92.74 -8.1,92.74 l 0,0 z m 97.42,-12.4 c -14.06,1.75 -28.07,3.33 -41.99,4.77 4.16,-27.8 8.57,-57.4 13.28,-89 5.05,-33.8 10.46,-70.03 16.27,-108.98 18.66,-0.51 37.32,-1.04 56.02,-1.65 -7.64,38.09 -14.76,73.58 -21.41,106.72 -6.25,31.05 -12.07,60.18 -17.57,87.54 -1.52,0.2 -3.06,0.41 -4.6,0.6"
         id="path66"
         style="fill:#231f20;fill-opacity:1;fill-rule:evenodd;stroke:none" /><path
         d="m 662.988,1721.68 c 7.442,22.02 27.817,36.46 60.219,42.95 22.039,3.97 43.805,7.51 65.297,10.62 15.57,2.05 27.082,0.03 33.398,-5.82 4.559,-4.23 6.278,-10.29 5.086,-18.01 -0.004,-0.04 -6.359,-39.39 -13.758,-85.22 -4.003,-24.67 -8.316,-51.41 -12,-74.27 -3.871,-23.91 -6.968,-43.13 -8.128,-50.3 -4.114,-3.42 -54.176,-44.4 -57.555,-47.12 -3.793,-0.01 -96.379,-0.74 -100.262,-0.77 -2.097,2.57 -32.816,38.31 -35.441,41.19 0.879,2.61 18.879,55.82 35.039,103.62 14.73,43.6 28.105,83.13 28.105,83.13 l 0,0 z m 102.813,19.37 c -14.235,-1.96 -28.551,-4.09 -42.985,-6.37 -7.421,-26.9 -15.289,-55.45 -23.668,-85.8 -8.918,-32.36 -18.449,-66.9 -28.632,-103.86 18.832,0.78 37.609,1.5 56.351,2.16 8.531,38.1 16.481,73.6 23.91,106.78 6.961,31.09 13.493,60.26 19.633,87.7 -1.543,-0.2 -3.07,-0.39 -4.609,-0.61"
         id="path68"
         style="fill:#231f20;fill-opacity:1;fill-rule:evenodd;stroke:none" /><path
         d="m 584.012,1731.34 c -0.711,-1.64 -5.485,-12.74 -12.469,-28.95 -7.207,-16.78 -16.949,-39.39 -27.039,-62.84 -10.59,-24.61 -21.609,-50.17 -30.191,-70.11 -8.922,-20.73 -15.024,-34.9 -15.024,-34.9 0,0 63.07,4 72.746,4.56 -2.914,-7.96 -13.824,-37.81 -16.898,-46.21 -5.078,-0.07 -38.758,-0.5 -72.508,-0.98 -33.777,-0.47 -67.613,-1.01 -72.797,-1.1 1.141,2.33 9.648,19.58 21.402,43.46 11.282,22.88 25.301,51.33 38.61,78.34 12.636,25.64 24.687,50.07 33.519,68.03 8.532,17.32 14.305,29.02 15.047,30.52 8.692,2.83 57.285,17.77 65.602,20.18"
         id="path70"
         style="fill:#231f20;fill-opacity:1;fill-rule:evenodd;stroke:none" /><path
         d="m 1279.5,1634.38 c -8.05,6.48 -13.38,13.93 -15.92,22.08 -0.02,0.1 -21.89,72.4 -21.89,72.4 -3.92,12.94 3.67,24.91 38.15,16.62 0,0 25.2,-6.57 52.3,-14.38 27.57,-7.95 57.31,-17.3 62.31,-18.91 2.15,-4.66 10.16,-21.99 12.4,-26.82 -4.93,1.43 -31.51,8.98 -56.22,15.46 -24.37,6.41 -47.05,11.87 -47.05,11.87 7.05,-19.34 14.39,-39.54 22.06,-60.64 19.21,-3.49 38.65,-7.16 58.27,-11.05 22.79,-4.74 39.5,-10.96 50.84,-18.71 8.42,-5.75 14.52,-12.71 18.69,-21.43 0.06,-0.14 29.67,-63.46 35.69,-76.34 -2.53,-2.19 -31.66,-30.83 -33.59,-32.95 -1.93,0.04 -34.05,0.49 -66.93,0.92 -32.88,0.41 -66.54,0.8 -71.75,0.85 -2.7,8.85 -12.18,39.8 -14.66,47.93 4.98,-0.25 33.37,-1.79 60.66,-3.42 27.36,-1.66 53.62,-3.41 53.62,-3.41 -10.31,25.32 -20.15,49.48 -29.54,72.55 -19.52,2.99 -38.87,5.8 -58.05,8.46 -19.77,2.62 -37.34,9.31 -49.39,18.92"
         id="path72"
         style="fill:#231f20;fill-opacity:1;fill-rule:evenodd;stroke:none" /><path
         d="m 1073.25,131.309 -33.06,0 0,-6.723 12.85,0 0,-39.5469 7.39,0 0,39.5469 12.82,0 0,6.723 z m 18.6,0 -11.33,0 0,-46.2699 7.38,0 0,37.6129 0.21,0 13.02,-37.6129 5.06,0 13.03,37.6129 0.18,0 0,-37.6129 7.39,0 0,46.2699 -11.3,0 -11.73,-34.0238 -11.91,34.0238"
         id="path74"
         style="fill:#231f20;fill-opacity:1;fill-rule:evenodd;stroke:none" /></g></g></svg>