<?xml version="1.0" encoding="UTF-8" standalone="no"?>
<!-- Created with Inkscape (http://www.inkscape.org/) -->

<svg
   xmlns:dc="http://purl.org/dc/elements/1.1/"
   xmlns:cc="http://creativecommons.org/ns#"
   xmlns:rdf="http://www.w3.org/1999/02/22-rdf-syntax-ns#"
   xmlns:svg="http://www.w3.org/2000/svg"
   xmlns="http://www.w3.org/2000/svg"
   version="1.1"
   width="280"
   height="200"
   id="svg2"
   xml:space="preserve"><metadata
     id="metadata8"><rdf:RDF><cc:Work
         rdf:about=""><dc:format>image/svg+xml</dc:format><dc:type
           rdf:resource="http://purl.org/dc/dcmitype/StillImage" /><dc:title></dc:title></cc:Work></rdf:RDF></metadata><defs
     id="defs6" /><g
     transform="matrix(1.25,0,0,-1.25,-20.4725,220.47249)"
     id="g10"><g
       transform="matrix(0.0830065,0,0,0.0830065,49.978,16.378)"
       id="g12"><path
         d="m 0,0 1927.56,0 0,1927.56 L 0,1927.56 0,0 z"
         id="path14"
         style="fill:#ffffff;fill-opacity:1;fill-rule:evenodd;stroke:none" /><path
         d="m 1072.04,861.234 -14.45,176.456 c 0,0 -234.863,0.13 -246.524,0.13 l 0,80.46 -210.562,0 19.973,-232.589 c 0,0 273.168,-0.203 284.933,-0.211 0,-4.363 0,-36.703 0,-73.89 0,0 115.71,3.144 166.63,49.644"
         id="path16"
         style="fill:#cab569;fill-opacity:1;fill-rule:evenodd;stroke:none" /><path
         d="m 871.047,695.602 c 111.414,0 216.123,18.664 294.843,52.515 87.7,37.719 143.69,94.789 162.06,165.113 1.03,-0.011 40.1,-0.128 41.38,-0.128 0.12,-1.039 0.6,-5.336 0.6,-5.336 l 73.21,-33.231 c 0,0 5.49,7.688 6.92,9.692 0.69,-2.594 4.44,-17.043 4.44,-17.043 l 87.75,-0.008 0.22,0.324 c 0.59,0.852 5.03,7.246 6.56,9.969 1.56,-2.231 5.89,-8.094 9.76,-13.328 l 0.28,-0.395 98.44,23.551 0.15,0.266 c 1.56,2.554 5.96,9.91 7.14,13.171 2.62,-3.105 9.74,-9.679 10.07,-9.996 l 0.36,-0.332 167.29,76.481 -167.21,75.473 -0.34,-0.23 c -0.38,-0.25 -7.98,-5.47 -10.87,-8.38 -0.83,3.27 -3.97,10.56 -4.72,12.23 l -0.16,0.33 -105.2,25.06 c 0,0 -6.15,-13.16 -7,-14.96 -2.12,2.6 -8.94,8.62 -11.35,10.7 -0.48,0.18 -82.31,-0.4 -82.31,-0.4 l -0.58,-0.02 c 0,0 -3.78,-14.44 -4.44,-17.04 -1.43,2.01 -6.91,9.71 -6.91,9.71 l -75.19,-34.2 c 0,0 0.22,-3.91 0.29,-5.07 -1.49,0 -38.22,0 -39.21,0 -41.97,150.36 -259.28,217.69 -456.273,217.69 l -541.774,0 c 0,0 59.508,-219.96 60.028,-221.87 -1.887,0.02 -39.262,0.65 -39.262,0.65 l -17.391,0.43 c -5.003,0.52 -18.128,0.71 -31.218,-8.53 -0.367,0.15 -1.727,0.79 -1.727,0.79 0,0 -0.062,-0.08 -0.078,-0.09 -16.863,11.74 -47.145,11.16 -64.828,2.91 -7.082,-2.22 -11.363,-1.09 -17.82,0.58 -4.774,1.25 -10.157,2.65 -16.602,2.67 0,0 0.125,-0.16 0.254,-0.28 -1.066,0.3 -4.617,0.42 -16.738,0.78 -12.176,0.48 -25.864,1.01 -35.223,0.34 l 0.203,-0.09 c -0.601,0.09 -2.48,0.07 -9.266,0.03 -21.066,0.17 -35.546,-0.31 -44.8316,-8.31 -16.7539,-14.399 -7.0625,-44.454 -5.8867,-47.841 10.3242,-30.422 24.8903,-35.582 32.6683,-35.941 l 0.91,-0.039 c 0.09,0 1,0.054 1,0.054 15.515,0.903 59.445,2.672 76,0 8.191,-1.793 17.703,0.473 26.16,6.098 10.906,-8.199 25.48,-8.812 27.125,-8.84 0.082,0 71.691,-0.16 102.473,-0.234 0,0 30.281,-0.027 35.121,-0.027 -0.516,-1.872 -61.071,-225.418 -61.071,-225.418 l 541.774,0 0,0 z m -283.938,271.14 c -0.027,0.168 -16.195,137.458 -17.254,146.248 1.676,0 250.114,0.17 250.114,0.17 l 0.058,0 c 76.528,1.77 204.673,4.71 263.343,-52.62 23.37,-22.85 34.73,-53.52 34.73,-93.774 0,-137.446 -143.276,-156.379 -298.116,-156.379 0,0 -248.937,0 -250.621,0 0.184,1.64 17.746,156.355 17.746,156.355"
         id="path18"
         style="fill:#cab569;fill-opacity:1;fill-rule:evenodd;stroke:none" /><path
         d="m 1372.27,931.383 13.32,-0.07 1.29,-11.165 50.09,-22.757 11.13,15.558 c 4.5,-0.898 9.19,-1.699 13.99,-2.383 l 6.55,-25.152 63.96,-0.187 8.47,25.386 c 3.79,0.516 7.68,1.102 11.66,1.762 l 13.28,-28.633 83.47,19.707 -0.96,29.641 c 3.69,0.93 7.31,1.871 10.89,2.801 l 17.39,-24.852 121.7,55.777 -123.4,56.014 -17.6,-24.787 c -3.53,0.891 -7.09,1.82 -10.67,2.727 l 0.94,29.65 -83.46,19.74 -13.3,-28.65 c -3.99,0.63 -7.88,1.23 -11.64,1.76 l -8.46,25.36 -64,-0.18 -6.57,-25.14 c -4.78,-0.7 -9.45,-1.5 -13.96,-2.41 l -11.09,15.59 -50.13,-22.81 0.63,-11.86 -18.84,-0.02 c -4.02,0.48 -10.91,0.41 -18.04,-4.46 -9.18,-6.285 -13.34,-2.02 -13.34,-2.02 -7.62,7.22 -16.84,6.8 -16.84,6.8 l -5.21,-0.32 c -29.81,152.93 -253.14,217.69 -442.473,217.69 -75.457,0 -517.891,0 -517.891,0 l 59.989,-221.744 c -41.836,-0.523 -57.204,0.524 -81.75,0.984 0,0 -10.032,1.88 -19.981,-5.5 0,0 -8.219,-7.648 -21.348,0.497 -10.316,8.143 -36.925,8.143 -49.418,0.992 -18.804,-6.004 -28.445,2.301 -40.304,2.324 -12.672,0.035 -37.317,1.816 -50.356,0.879 -9.398,-0.641 -36.808,1.617 -43.316,-3.992 -5.93,-5.102 -2.613,-21.903 -0.524,-28.051 7.895,-23.219 16.258,-23.617 16.258,-23.617 0,0 58.539,3.426 80.434,-0.246 0,0 6.699,-2.332 15.461,5.191 3.293,2.828 12.121,3.336 16.496,-1.512 5.297,-5.847 18.344,-6.14 18.344,-6.14 35.113,-0.594 136.211,0 161.097,-0.266 l -61.082,-225.406 517.891,0 c 204.203,0 415.223,63.496 442.823,217.66 l 22.83,-0.059 c 0,0 7.62,-0.437 13.33,3.762 0,0 4.57,4.945 11.56,-0.449 0,0 3.86,-4.328 10.68,-3.414 l 0,0 z M 819.984,1131.43 c 133.313,3.07 316.406,1.86 316.406,-164.664 0,-166.969 -189.73,-174.653 -316.406,-174.653 -22.316,0 -271.101,0 -271.101,0 l 19.836,174.653 -19.781,164.534 271.046,0.13"
         id="path20"
         style="fill:#231f20;fill-opacity:1;fill-rule:evenodd;stroke:none" /><path
         d="m 790.977,1113.27 0,-95.53 248.133,-0.11 14.3,-168.142 C 1019.7,829.863 975.203,819.633 925.484,814.594 l 0,90.941 -286.531,0 0,0.231 -17.324,207.224 169.348,0.28"
         id="path22"
         style="fill:#bf2033;fill-opacity:1;fill-rule:evenodd;stroke:none" /><path
         d="m 715.582,952.852 c 0,-10.278 -9.777,-18.016 -31.312,-18.016 -3.598,0 -7.454,0.187 -11.047,0.648 l -17.543,1.844 9.761,11.879 9.5,-7.359 c 2.008,-0.985 4.743,-1.668 7.891,-1.668 6.191,0 12.344,2.726 12.344,7.613 0,2.832 -2.004,3.453 -4.004,4.348 l -20.547,7.777 c -7.617,2.855 -13.527,8.18 -13.527,14.023 0,7.09 7.496,15.622 28.035,15.622 4.019,0 8.039,-0.375 11.633,-0.715 l 16.953,-1.864 -9.789,-11.187 -8.891,6.652 c -1.43,1 -3.434,1.516 -6.453,1.516 -4.316,0 -10.211,-1.336 -10.211,-5.86 0,-1.507 1.723,-3.714 3.586,-4.433 l 23.277,-8.859 c 4.164,-1.504 10.344,-4.981 10.344,-11.961"
         id="path24"
         style="fill:#cab569;fill-opacity:1;fill-rule:evenodd;stroke:none" /><path
         d="m 771.297,942.906 10.914,-6.734 -44.227,0 10.934,6.734 0,39.102 -10.648,0 -13.368,-8.242 0,14.722 70.391,0 0,-14.722 -13.211,8.242 -10.785,0 0,-39.102"
         id="path26"
         style="fill:#cab569;fill-opacity:1;fill-rule:evenodd;stroke:none" /><path
         d="m 820.16,956.391 8.903,15.781 8.757,-15.781 -17.66,0 0,0 z m 21.254,-6.551 3.887,-7.024 -10.778,-6.644 47.247,0 -11.063,6.816 -26.844,45.5 -16.383,0 -26.292,-45.5 -11.067,-6.816 33.059,0 -10.774,6.644 3.86,7.024 25.148,0"
         id="path28"
         style="fill:#cab569;fill-opacity:1;fill-rule:evenodd;stroke:none" /><path
         d="m 921.27,942.906 10.921,-6.734 -44.246,0 10.934,6.734 0,39.102 -10.633,0 -13.375,-8.242 0,14.722 70.402,0 0,-14.722 -13.242,8.242 -10.761,0 0,-39.102"
         id="path30"
         style="fill:#cab569;fill-opacity:1;fill-rule:evenodd;stroke:none" /><path
         d="m 1018.37,936.172 -66.35,0 10.894,6.734 0,38.844 -10.894,6.738 66.35,0 0,-14.722 -13.35,8.242 -19.547,0 0,-14.535 13.074,0 10.773,6.64 0,-19.941 -10.773,6.746 -13.074,0 0,-18.266 19.547,0 13.35,8.239 0,-14.719"
         id="path32"
         style="fill:#cab569;fill-opacity:1;fill-rule:evenodd;stroke:none" /><path
         d="m 811.227,1231.78 c 0,11.36 -0.161,24.85 -0.161,26.83 10.036,0 76.762,0 86.797,0 l 0,-136.91 -60.32,-59.99 217.497,0 44.18,333.37 -521.06,0 13.172,-163.3 219.895,0"
         id="path34"
         style="fill:#cab569;fill-opacity:1;fill-rule:evenodd;stroke:none" /><path
         d="m 1076.29,1374.99 -476.317,0 11.422,-137.46 179.582,0 0,41.16 126.882,0 0.051,-165.84 -33.59,-31.05 153.17,0 38.8,293.19"
         id="path36"
         style="fill:#bf2033;fill-opacity:1;fill-rule:evenodd;stroke:none" /><path
         d="m 905.41,696.531 c 0,-13.828 0,-23.398 0,-25.672 -10.683,0 -117.633,0 -128.289,0 l 0,126.825 92.02,62.257 -247.657,0 -44.57,-327.457 523.546,0 -16,188.563 -179.05,-24.516"
         id="path38"
         style="fill:#cab569;fill-opacity:1;fill-rule:evenodd;stroke:none" /><path
         d="m 757.004,810.344 42.18,29.515 -160.231,0 -38.98,-287.289 478.657,0 -13.9,163.7 c -45.02,-10.161 -92.328,-16.301 -139.246,-18.903 l 0,-46.582 -168.429,0 -0.051,159.559"
         id="path40"
         style="fill:#bf2033;fill-opacity:1;fill-rule:evenodd;stroke:none" /></g></g></svg>