<?xml version="1.0" encoding="UTF-8" standalone="no"?>
<!-- Created with Inkscape (http://www.inkscape.org/) -->

<svg
   xmlns:dc="http://purl.org/dc/elements/1.1/"
   xmlns:cc="http://creativecommons.org/ns#"
   xmlns:rdf="http://www.w3.org/1999/02/22-rdf-syntax-ns#"
   xmlns:svg="http://www.w3.org/2000/svg"
   xmlns="http://www.w3.org/2000/svg"
   version="1.1"
   width="280"
   height="200"
   id="svg2"
   xml:space="preserve"><metadata
     id="metadata8"><rdf:RDF><cc:Work
         rdf:about=""><dc:format>image/svg+xml</dc:format><dc:type
           rdf:resource="http://purl.org/dc/dcmitype/StillImage" /><dc:title></dc:title></cc:Work></rdf:RDF></metadata><defs
     id="defs6"><clipPath
       id="clipPath16"><path
         d="M 0,792 1224,792 1224,0 0,0 0,792 z"
         id="path18" /></clipPath></defs><g
     transform="matrix(1.25,0,0,-1.25,-646.00015,572.47191)"
     id="g10"><g
       transform="matrix(0.75075174,0,0,0.75075174,180.84273,94.210241)"
       id="g12"><g
         clip-path="url(#clipPath16)"
         id="g14"><g
           transform="translate(719.1484,449.1279)"
           id="g20"><path
             d="M 0,0 -0.012,1.834 -0.029,4.409 -2.288,5.64 -9.149,9.39 -9.287,9.469 -9.434,9.536 c -3.219,1.465 -9.879,4.975 -11.376,5.786 l -0.325,0.176 -0.348,0.117 c -0.821,0.281 -1.7,0.747 -2.628,1.245 -1.351,0.721 -2.877,1.512 -4.708,2.045 -1.878,0.949 -3.774,1.638 -5.611,2.291 -0.823,0.293 -1.599,0.569 -2.361,0.867 -1.263,0.575 -2.52,0.932 -3.639,1.243 -1.013,0.278 -1.968,0.542 -2.651,0.908 l -0.44,0.14 c -0.026,0.006 -0.635,0.223 -0.635,0.223 l -7.196,2.004 c -4.464,1.304 -8.481,2.449 -13.265,3.624 -0.202,0.114 -1.442,0.387 -1.802,0.504 l -1.72,0.369 -1.538,0.293 c -1.163,0.211 -1.374,0.237 -2.724,0.501 l -0.876,0.161 -0.712,0.103 c -1.591,0.187 -2.3,0.307 -3.624,0.568 -1.673,0.334 -3.522,0.65 -5.88,0.782 -2.78,0.372 -5.224,0.651 -7.726,0.87 -1.76,0.153 -3.425,0.302 -5.042,0.542 l -0.214,0.033 -0.211,0.011 c 0,0 -6.714,0.343 -6.764,0.346 -4.887,0.193 -9.803,0.117 -14.558,0.038 -3.861,-0.061 -7.374,-0.284 -11.235,-0.196 l -1.72,-0.026 -0.718,-0.053 -0.638,-0.015 -2.745,-0.255 c -13.685,-1.271 -25.254,-2.695 -37.219,-5.531 l -0.475,-0.132 -0.363,-0.111 c -0.897,-0.296 -1.289,-0.349 -2.218,-0.662 -7.974,-1.834 -15.457,-4.764 -22.693,-7.612 l -2.145,-0.843 c -0.811,-0.244 -1.462,-0.577 -1.951,-0.835 -0.129,-0.068 -0.293,-0.153 -0.384,-0.197 l -0.258,-0.049 -0.36,-0.138 c -2.804,-1.067 -5.437,-2.397 -7.986,-3.686 -2.461,-1.242 -4.784,-2.414 -7.163,-3.319 l -0.742,-0.284 -0.395,-0.349 c -0.067,-0.029 -0.144,-0.058 -0.211,-0.085 -0.797,-0.307 -2.124,-0.82 -3.202,-2.141 l -0.932,-1.149 c -0.003,-0.02 -0.047,-1.497 -0.047,-1.497 l -0.211,-7.116 c -0.187,-5.965 -0.383,-12.132 -0.383,-17.865 l 0,-7.533 6.542,3.733 c 0.129,0.073 0.257,0.146 0.386,0.217 -0.038,-3.009 -0.12,-6.05 -0.307,-8.915 l -0.009,-0.141 0,-0.144 c 0,-4.57 -0.193,-9.755 -0.387,-14.771 l -0.202,-5.719 c 0.003,0.065 -0.009,-0.178 -0.009,-0.178 -0.313,-6.759 -0.647,-14.23 -0.134,-21.229 -9.062,-8.121 -12.167,-19.468 -12.355,-20.183 l -0.284,-1.081 0.296,-1.075 c 0.272,-1.002 6.759,-24.041 28.251,-42.343 -0.185,-1.215 -0.287,-2.437 -0.287,-3.65 0,-16.286 15.949,-29.537 35.557,-29.537 4.055,0 7.992,0.559 11.754,1.655 1.667,-2.226 4.696,-5.256 9.443,-6.524 3.565,-0.947 9.196,-1.155 15.776,3.243 3.539,2.37 7.35,-0.047 7.778,-0.328 0.208,-0.144 0.457,-0.296 0.718,-0.443 5.543,-4.637 11.449,-4.57 19.122,-2.921 3.653,0.78 16.002,4.07 21.316,13.574 0.018,0.032 0.033,0.064 0.053,0.096 8.168,-2.006 16.269,-2.841 24.129,-2.484 18.082,0.82 31.928,7.318 38.98,18.296 5.546,8.631 6.404,19.415 2.484,30.574 4.825,7.184 12.393,18.815 14.59,33.993 l 0.12,0.838 -0.214,0.821 c -0.152,0.58 -2.818,9.934 -16.752,16.28 0.284,1.248 0.615,2.701 0.993,4.388 2.083,9.185 5.898,26.057 7.975,34.415 0.893,-0.518 1.857,-1.019 2.918,-1.415 l 5.596,-2.085 0.301,5.964 C 0.105,-16.017 0.05,-7.506 0,0"
             id="path22"
             style="fill:#d2d4d5;fill-opacity:1;fill-rule:nonzero;stroke:none" /></g><g
           transform="translate(714.3789,425.9014)"
           id="g24"><path
             d="m 0,0 c 0.398,7.896 0.299,17.071 0.249,25.02 l -6.858,3.75 c -3.355,1.526 -10.035,5.047 -11.649,5.918 -2.616,0.887 -4.734,2.668 -7.55,3.357 -2.513,1.333 -5.276,2.121 -7.945,3.158 -2.121,1.037 -4.392,1.333 -6.759,2.367 -7.254,1.975 -14.455,4.149 -21.761,5.924 -0.437,0.032 -0.548,0.264 -0.964,0.22 -0.299,-6.27 -0.32,-14.186 -0.466,-20.798 0,0 3.882,-1.266 5.177,-1.676 1.585,-0.495 1.731,-2.42 1.93,-3.65 0.393,-1.781 0.589,-3.557 1.184,-5.233 0.688,-5.677 1.925,-11.991 2.613,-17.616 0.202,-0.987 0.592,-2.174 0.1,-3.111 -1.729,0.296 -3.109,1.283 -4.738,1.778 -1.626,0.539 -3.404,1.28 -4.836,1.679 -0.542,-6.911 0.199,-14.66 -1.181,-21.319 -0.595,-1.38 -0.299,-3.059 -1.187,-4.292 -2.616,-0.247 -4.59,1.283 -7.107,1.924 -0.592,0.197 -1.333,0.047 -1.775,0.592 -0.15,18.258 0.641,34.146 0.688,51.765 l 0.249,1.034 c 2.616,-0.196 5.18,-0.987 7.696,-1.184 0.399,6.463 0.2,13.571 0.595,20.037 l -0.029,0.386 c -1.96,0.264 -3.396,0.528 -4.905,0.821 -0.928,0.079 -6.559,1.166 -10.057,1.429 -3.943,0.636 -8.695,0.865 -12.99,1.506 l -6.709,0.346 c -8.737,0.346 -17.52,-0.199 -26.203,0 l -0.346,-0.246 -0.1,-4.984 c 0.05,-2.171 -0.05,-4.245 -0.343,-6.266 -0.199,-0.05 -0.249,0.146 -0.398,0.246 -0.489,3.158 -2.218,5.971 -3.059,9.129 -0.246,0.495 -0.295,1.134 -0.591,1.629 -12.78,-1.187 -24.525,-2.57 -36.616,-5.429 -0.835,-0.355 -1.295,-0.316 -2.487,-0.735 -8.73,-1.925 -16.758,-5.288 -24.949,-8.491 -1.034,-0.249 -1.828,-0.99 -2.862,-1.186 -5.18,-1.975 -9.97,-5.033 -15.147,-7.008 -0.841,-0.741 -2.074,-0.741 -2.716,-1.529 -0.199,-7.699 -0.594,-16.828 -0.594,-24.87 2.074,1.183 4.195,2.22 6.266,3.55 l 0.694,0 c 0,-5.179 0,-11.004 -0.348,-16.33 0,-6.512 -0.393,-14.361 -0.592,-20.628 -0.349,-7.541 -0.729,-15.659 0.018,-22.983 -9.674,-7.444 -12.847,-19.529 -12.847,-19.529 0,0 6.524,-23.918 28.802,-41.816 -0.446,-1.705 -0.689,-3.466 -0.689,-5.273 0,-14.01 14.048,-25.365 31.38,-25.365 4.869,0 9.475,0.899 13.582,2.496 0.117,-0.223 0.214,-0.437 0.337,-0.657 l 0.094,-0.172 c 0.644,-1.219 3.158,-5.312 8.261,-6.674 2.731,-0.73 7.096,-0.853 12.378,2.677 5.787,3.871 11.76,0.112 12.419,-0.328 0.238,-0.167 0.487,-0.31 0.742,-0.436 4.312,-3.806 8.704,-3.864 15.905,-2.318 3.223,0.689 14.092,3.56 18.551,11.532 0.545,0.981 0.94,1.995 1.242,3.026 8.572,-2.455 17.563,-3.683 26.39,-3.281 32.312,1.465 46.524,21.621 36.994,45.243 4.45,6.65 12.87,18.504 15.12,34.046 0,0 -2.458,9.346 -17.751,14.918 2.247,9.773 10.591,47.273 11.346,47.806 C -4.638,2.813 -2.517,0.938 0,0 m -176.733,-58.087 c 1.954,1.978 3.791,4.081 5.504,6.226 2.543,3.72 4.99,7.47 6.592,11.587 0,-0.109 -0.009,-0.214 -0.006,-0.323 0.059,-11.083 4.369,-20.314 13.14,-27.756 -9.047,2.168 -17.909,6.226 -25.23,10.266 m 65.956,13.471 c -1.058,1.848 -6.683,7.403 -6.683,7.403 l -3.308,-1.031 c -8.572,-8.962 -13.778,-22.011 -13.778,-22.011 -0.477,2.092 -0.741,4.234 -0.75,6.425 -0.026,5.478 1.471,10.608 4.149,15.126 1.195,0.269 2.39,0.542 3.588,0.806 0,6.169 0.496,11.399 0.496,17.912 l 0.246,0.348 0.246,-0.249 c 1.629,-5.182 3.75,-10.116 5.425,-15.299 0.446,-0.688 -0.046,-2.17 1.287,-2.121 5.373,0.73 10.913,0.123 16.503,0.217 -4.043,-4.019 -7.421,-7.526 -7.421,-7.526 m 27.36,-17.927 c -3.935,12.293 -10.623,21.331 -13.315,24.65 3.928,-0.591 7.634,-1.699 11.461,-2.472 0.99,-0.542 2.273,-0.346 3.213,-1.087 4.489,-0.838 8.385,-3.009 12.78,-3.996 3.518,-1.512 7.037,-3.012 10.526,-4.585 -7.922,-4.91 -17.423,-10.225 -24.665,-12.51"
             id="path26"
             style="fill:#373535;fill-opacity:1;fill-rule:nonzero;stroke:none" /></g><g
           transform="translate(596.084,459.9121)"
           id="g28"><path
             d="m 0,0 c 0.592,-1.676 -0.097,-2.713 0.146,-4.392 0.053,-2.809 -0.193,-5.425 -0.243,-8.141 -0.345,0.741 -0.838,1.629 -0.937,2.566 -1.237,3.258 -2.47,6.416 -3.457,9.721 C -3.158,0.199 -1.482,-0.097 0,0"
             id="path30"
             style="fill:#d2d4d5;fill-opacity:1;fill-rule:nonzero;stroke:none" /></g><g
           transform="translate(620.708,459.0742)"
           id="g32"><path
             d="m 0,0 c 0.592,-7.055 -0.196,-13.474 -0.1,-20.479 -0.395,-10.265 -0.146,-19.245 -0.735,-29.704 l 0,-0.395 c -1.828,0.146 -3.999,0.246 -6.023,0.395 -0.446,1.629 -0.15,4.043 -0.246,5.426 0.246,15.741 0.492,29.707 0.937,45.349 l 0.146,0.149 C -4.096,0.299 -1.875,0.592 0,0"
             id="path34"
             style="fill:#d2d4d5;fill-opacity:1;fill-rule:nonzero;stroke:none" /></g><g
           transform="translate(539.1396,452.3154)"
           id="g36"><path
             d="M 0,0 C -0.196,-15.249 -0.542,-32.074 -1.087,-47.373 -1.383,-55.811 -3.8,-65.78 -12.68,-69.284 c -1.482,-0.05 -2.516,1.037 -3.211,2.27 -0.392,7.896 0.246,16.04 0.349,24.282 0.1,11.742 0.738,22.696 0.838,34.587 -0.199,2.42 2.171,3.208 3.8,4.246 3.055,1.333 6.612,2.613 9.966,3.899 L 0,0 z"
             id="path38"
             style="fill:#373535;fill-opacity:1;fill-rule:nonzero;stroke:none" /></g><g
           transform="translate(690.4844,442.4951)"
           id="g40"><path
             d="m 0,0 c 1.775,-2.47 0.149,-5.432 0,-8.291 -1.433,-6.762 -2.862,-13.471 -4.295,-20.232 -0.642,-2.271 -1.629,-7.005 -1.629,-7.005 -0.442,-1.04 -0.542,-2.37 -0.835,-3.308 -0.495,2.417 -0.741,4.937 -1.286,7.354 -0.196,3.404 -0.934,6.858 -1.676,10.163 -0.345,6.512 -2.074,12.732 -2.616,18.849 -0.346,0.695 -0.293,1.875 -0.442,2.816 -0.05,2.124 -0.938,4.092 -0.592,6.07 C -8.88,4.392 -4.046,3.158 0,0"
             id="path42"
             style="fill:#373535;fill-opacity:1;fill-rule:nonzero;stroke:none" /></g><g
           transform="translate(536.5234,447.5781)"
           id="g44"><path
             d="m 0,0 c -0.1,-12.437 -0.738,-23.341 -0.838,-36.22 -0.149,-2.762 -0.296,-5.675 -0.442,-8.783 -0.349,-2.174 -0.695,-5.279 -1.582,-7.699 -0.988,-3.358 -3.305,-6.612 -6.267,-8.736 -0.788,-0.1 -1.43,0 -1.629,0.84 0.15,6.862 0.1,12.879 0.445,20.133 0.097,12.191 0.739,23.441 0.838,35.528 0.299,0.988 -0.046,2.567 1.284,2.816 2.566,1.33 5.282,2.071 7.945,3.108 L 0,0 z"
             id="path46"
             style="fill:#d2d4d5;fill-opacity:1;fill-rule:nonzero;stroke:none" /></g><g
           transform="translate(686.1924,442.0498)"
           id="g48"><path
             d="m 0,0 c 0.738,-0.642 1.822,-0.688 2.268,-1.676 0.149,-3.31 -3.747,-19.74 -4.243,-21.814 -0.442,2.22 -3.454,22.456 -4.046,25.268 l 0.097,0.589 C -3.803,1.925 -1.875,0.938 0,0"
             id="path50"
             style="fill:#d2d4d5;fill-opacity:1;fill-rule:nonzero;stroke:none" /></g><g
           transform="translate(586.8584,408.1504)"
           id="g52"><path
             d="m 0,0 c -1.582,-0.691 -7.058,-1.532 -7.453,-0.94 0.346,7.107 0.199,13.274 0.595,20.235 C -6.22,18.7 -1.479,4.737 0,0"
             id="path54"
             style="fill:#d2d4d5;fill-opacity:1;fill-rule:nonzero;stroke:none" /></g><g
           transform="translate(562.1465,381.5635)"
           id="g56"><path
             d="M 0,0 C -0.114,0.829 -0.929,5.651 -5.145,11.604 -5.777,9.24 -6.141,6.75 -6.193,4.169 -6.431,-7.854 0.103,-18.662 9.832,-24.313 3.967,-17.517 0.486,-8.985 0,0"
             id="path58"
             style="fill:#ffffff;fill-opacity:1;fill-rule:nonzero;stroke:none" /></g><g
           transform="translate(566.0547,381.1152)"
           id="g60"><path
             d="M 0,0 C 0.645,-8.988 4.626,-17.435 11.224,-23.733 8.473,-18.867 6.94,-13.233 7.058,-7.301 7.163,-1.893 8.631,3.105 11.112,7.386 7.482,6.439 2.145,4.348 0,0"
             id="path62"
             style="fill:#ffffff;fill-opacity:1;fill-rule:nonzero;stroke:none" /></g><g
           transform="translate(576.2002,413.4824)"
           id="g64"><path
             d="m 0,0 c -7.852,-2.502 -14.244,-8.276 -17.631,-15.879 1.808,-2.256 3.176,-4.418 4.216,-6.387 C -11.713,-13.354 -6.94,-5.461 0,0"
             id="path66"
             style="fill:#cf2e4d;fill-opacity:1;fill-rule:nonzero;stroke:none" /></g><g
           transform="translate(621.2178,359.0576)"
           id="g68"><path
             d="m 0,0 c -12.592,-4.195 -25.09,-6.088 -37.436,-5.648 0.578,0.143 1.158,0.36 1.691,0.673 C -22.966,2.525 -8.306,1.5 0,0"
             id="path70"
             style="fill:#cf2e4d;fill-opacity:1;fill-rule:nonzero;stroke:none" /></g><g
           transform="translate(575.7432,398.459)"
           id="g72"><path
             d="M 0,0 C -0.196,0.902 -0.346,1.822 -0.451,2.754 -2.007,1.863 -3.7,0.773 -4.813,-0.29 c 0,0 1.438,3.407 4.183,6.029 -0.003,0.243 -0.012,0.487 -0.006,0.736 0.012,0.741 0.059,1.482 0.138,2.212 C -5.502,3.478 -8.73,-3.36 -9.565,-10.84 c 3.632,3.135 8.425,4.594 11.402,5.241 -0.442,0.994 -0.829,2.013 -1.16,3.056 -1.969,-0.583 -5.221,-1.693 -7.031,-3.079 0,0 2.159,3.8 6.354,5.622"
             id="path74"
             style="fill:#cf2e4d;fill-opacity:1;fill-rule:nonzero;stroke:none" /></g><g
           transform="translate(605.3535,325.8086)"
           id="g76"><path
             d="m 0,0 c 0,0 15.624,15.199 48.152,-2.646 32.523,-17.841 41.713,-2.042 41.713,-2.042 0,0 2.716,-9.934 -8.393,-17.024 -11.113,-7.093 -30.053,-10.444 -51.51,-1.925 0,0 -10.787,20.833 -20.165,20.391 0,0 0.68,3.448 -9.797,3.246"
             id="path78"
             style="fill:#ffffff;fill-opacity:1;fill-rule:nonzero;stroke:none" /></g><g
           transform="translate(685.6328,308.6143)"
           id="g80"><path
             d="m 0,0 c -12.044,-6.94 -32.071,-9.604 -54.226,0.123 2.391,-3.636 3.909,-6.565 3.909,-6.565 21.457,-8.517 40.397,-5.165 51.512,1.924 10.19,6.507 8.748,15.405 8.438,16.826 C 8.883,8.634 6.563,3.782 0,0"
             id="path82"
             style="fill:#d2d4d5;fill-opacity:1;fill-rule:nonzero;stroke:none" /></g><g
           transform="translate(589.3896,324.6631)"
           id="g84"><path
             d="m 0,0 c 0,0 -15.574,10.119 -35.312,-11.37 -19.737,-21.489 -27.697,-4.026 -27.697,-4.026 0,0 -0.222,-10.119 8.748,-15.773 7.049,-4.444 17.171,-6.032 27.73,-1.192 -3.282,10.579 4.456,17.015 9.548,18.07 5.22,1.078 9.931,3.278 9.931,3.278 0,0 -2.686,7.453 7.052,11.013"
             id="path86"
             style="fill:#ffffff;fill-opacity:1;fill-rule:nonzero;stroke:none" /></g><g
           transform="translate(534.3818,298.4775)"
           id="g88"><path
             d="m 0,0 c -4.778,3.012 -6.938,7.28 -7.922,10.626 -0.05,0.1 -0.082,0.161 -0.082,0.161 0,0 -0.217,-10.116 8.751,-15.77 7.049,-4.445 17.171,-6.033 27.727,-1.19 -0.551,1.781 -0.771,3.434 -0.762,4.975 C 17.159,-6.026 7.046,-4.441 0,0"
             id="path90"
             style="fill:#d2d4d5;fill-opacity:1;fill-rule:nonzero;stroke:none" /></g><g
           transform="translate(626.0869,361.0615)"
           id="g92"><path
             d="m 0,0 c -9.97,25.143 -13.922,21.853 -13.922,21.853 -1.512,-1.999 -8.95,-8.921 -8.95,-8.921 -2.692,2.074 -7.814,9.129 -7.814,9.129 l -0.533,0.278 c 0.618,-9.399 6.961,-14.356 6.961,-14.356 -0.079,-0.126 5.965,4.21 9.214,7.333 0,0 -2.774,-5.78 -9.791,-12.348 C -6.226,4.046 0,0 0,0"
             id="path94"
             style="fill:#d2d4d5;fill-opacity:1;fill-rule:nonzero;stroke:none" /></g><g
           transform="translate(610.9316,351.0186)"
           id="g96"><path
             d="m 0,0 c -16.45,-3.375 -32.874,-3.202 -48.812,0.51 -26.252,6.114 -42.585,19.989 -43.775,21.02 -0.844,0.097 -9.296,0.616 -18.937,-15.017 3.014,2.748 9.917,8.405 17.405,10.239 0,0 0.126,0.029 0.123,0.029 l 0.108,-0.067 3.592,-2.315 c 13.025,-8.478 34.822,-22.67 75.46,-20.355 16.066,0.917 32.385,5.285 48.504,12.987 13.213,6.314 22.91,13.301 27.513,16.902 l 0.085,0.064 0.105,0 C 78.243,23.739 90.076,20.344 93.826,19.116 86.619,25.477 67.409,28.283 61.289,29.033 41.139,13.978 20.52,4.207 0,0"
             id="path98"
             style="fill:#d2d4d5;fill-opacity:1;fill-rule:nonzero;stroke:none" /></g><g
           transform="translate(627.5693,336.2471)"
           id="g100"><path
             d="M 0,0 C 2.625,-0.296 5.426,-0.896 8.394,-1.931 5.669,8.021 1.743,3.015 0,0"
             id="path102"
             style="fill:#fccfc2;fill-opacity:1;fill-rule:nonzero;stroke:none" /></g><g
           transform="translate(588.8184,331.2461)"
           id="g104"><path
             d="m 0,0 c 0.003,0.325 0.05,0.633 0.185,0.908 0,0 -3.059,-0.05 -1.902,-2.429 l 1.852,-0.703 c -0.12,0.472 -0.194,0.961 -0.194,1.465 0,0.258 0.024,0.513 0.059,0.759"
             id="path106"
             style="fill:#fccfc2;fill-opacity:1;fill-rule:nonzero;stroke:none" /></g><g
           transform="translate(600.3232,338.6494)"
           id="g108"><path
             d="M 0,0 -3.141,3.334 C -3.419,3.278 -3.691,3.199 -3.946,3.076 l -4.746,-9.261 c 0,0 -0.047,-0.085 -0.109,-0.225 -0.328,-0.53 -0.527,-1.152 -0.527,-1.834 0,-1.975 1.602,-3.624 3.577,-3.68 1.978,-0.053 3.577,1.503 3.577,3.481 0,0.594 -0.158,1.154 -0.419,1.655 0.712,0.398 2.077,0.893 4.029,0.378 0,0 -1.386,-1.081 -1.184,-3.003 0,0 1.98,1.488 3.809,2.08 1.834,0.589 1.587,1.881 0.398,2.807 -1.189,0.922 -4.105,1.547 -6.63,0.676 0,0 2.572,4.035 8.265,0.557 0,0 2.757,-1.781 7.907,-0.27 2.792,0.821 5.229,1.035 7.154,1.008 -0.351,0.422 -0.773,0.991 -1.248,1.632 C 17.566,1.553 11.643,5.423 0,0"
             id="path110"
             style="fill:#fccfc2;fill-opacity:1;fill-rule:nonzero;stroke:none" /></g><g
           transform="translate(588.1563,337.7617)"
           id="g112"><path
             d="m 0,0 c -0.018,0.018 -0.041,0.035 -0.059,0.059 -3.653,0.477 -9.413,0.389 -9.471,-4.94 l -1.717,-1.846 c 0.038,-0.143 0.064,-0.234 0.064,-0.234 3.794,0.727 7.357,-0.264 7.357,-0.264 -1.711,4.445 4.825,3.879 4.825,3.879 0.214,0.378 0.888,1.635 1.573,2.912 C 2.115,-0.322 1.184,-0.111 0.029,0.044 0.021,0.029 0.009,0.012 0,0"
             id="path114"
             style="fill:#fccfc2;fill-opacity:1;fill-rule:nonzero;stroke:none" /></g><g
           transform="translate(614.1279,285.7715)"
           id="g116"><path
             d="m 0,0 c -7.963,-1.708 -9.894,-1.649 -15.24,6.694 -5.347,8.338 -11.602,4.65 -11.602,4.65 6.484,-0.528 8.754,-7.758 8.754,-7.758 0,0 -5.458,3.68 -12.967,-1.342 -7.503,-5.015 -11.258,0.211 -12.052,1.711 -0.803,1.503 -8.423,14.233 4.432,17.279 10.799,2.558 13.166,7.043 13.647,8.414 -5.423,2.675 -0.554,4.972 2.332,5.983 6.325,2.37 16.667,1.512 16.667,1.512 0,0 3.539,-0.088 3.067,-2.362 C -3.557,31.866 1.477,32.953 1.477,32.953 4.318,31.049 12.513,24.105 15.354,15.606 18.199,7.107 7.96,1.705 0,0 m -8.259,31.38 c -0.044,0.343 -0.337,0.595 -0.677,0.589 -5.168,-0.062 -9.832,-1.146 -10.028,-1.193 -0.334,-0.076 -0.539,-0.401 -0.477,-0.741 0.061,-0.334 0.375,-0.577 0.714,-0.554 5.848,0.46 7.155,-0.711 7.442,-1.236 0.477,-0.852 -0.428,-2.057 -0.437,-2.077 -0.205,-0.261 -0.173,-0.642 0.074,-0.876 0.243,-0.24 0.624,-0.255 0.881,-0.038 2.948,2.511 2.529,5.985 2.508,6.126"
             id="path118"
             style="fill:#fccfc2;fill-opacity:1;fill-rule:nonzero;stroke:none" /></g><g
           transform="translate(561.083,410.667)"
           id="g120"><path
             d="M 0,0 C 0.451,15.287 0.422,30.375 0.902,44.854 L 0.656,45.199 C -0.378,45.003 -1.418,44.854 -2.399,44.508 -3.439,44.165 -4.919,44.314 -5.511,43.424 -5.807,36.27 -6.003,29.162 -6.103,22.6 -6.563,13.957 -6.812,-2.915 -7.175,-9.308 -5.332,-5.892 -2.903,-2.763 0,0"
             id="path122"
             style="fill:#d2d4d5;fill-opacity:1;fill-rule:nonzero;stroke:none" /></g><g
           transform="translate(574.0762,422.5088)"
           id="g124"><path
             d="M 0,0 C 0.592,4.146 -0.193,8.191 0.346,12.779 0.788,20.133 0.445,26.895 0.94,34.69 2.174,31.928 3.258,28.916 4.146,25.907 l 0.246,-0.246 c 6.07,-17.912 12.732,-35.578 19.048,-53.393 3.059,-0.2 7.008,0.345 9.821,0 l 0.345,0.246 c 0.147,15.542 0.642,34.198 0.988,48.656 0.392,7.746 -0.495,14.262 1.034,21.07 1.433,1.925 4.245,1.33 6.419,1.43 l 0.097,9.129 -0.249,0.348 c -7.796,-0.049 -15.443,0.639 -22.5,-0.099 0.096,-3.158 -0.15,-6.17 0,-9.378 2.613,-0.246 5.871,0.794 7.35,-1.775 0.495,-12.894 -0.047,-44.262 -0.592,-45.844 0,0 -12.088,33.999 -17.417,48.559 -0.495,2.716 -1.828,5.08 -2.469,7.697 -5.379,-0.742 -10.41,-1.33 -15.742,-2.218 -1.675,-0.346 -3.451,-0.299 -4.986,-0.987 l -0.246,-9.575 -0.009,-0.659 c 2.124,0.249 4.945,1.647 6.87,0.314 C -7.5,38.687 -7.4,38.145 -7.104,37.652 -6.908,23.736 -7.45,12.188 -7.6,-2.268 -7.755,-4.269 -7.758,-6.252 -7.731,-8.229 -5.37,-6.606 -2.81,-5.18 -0.076,-3.984 -0.023,-2.18 0.023,-0.732 0,0"
             id="path126"
             style="fill:#cf2e4d;fill-opacity:1;fill-rule:nonzero;stroke:none" /></g><g
           transform="translate(662.6553,398.8223)"
           id="g128"><path
             d="m 0,0 c 0.097,6.12 0.246,12.138 0.343,18.457 -1.53,1.383 -3.8,1.576 -5.575,2.616 0,-3.902 -0.393,-7.749 -0.592,-11.402 -0.988,-4.146 -0.393,-9.375 -4.591,-11.842 -6.12,-0.838 -11.25,2.713 -16.975,3.8 -0.196,11.004 0.346,21.12 0.493,32.124 0.544,10.412 -0.194,19.541 1.086,29.215 1.48,2.762 4.937,0.838 7.454,0.741 0.193,3.205 0.096,6.759 0.096,9.917 -3.846,0.592 -8.238,1.184 -11.938,1.775 -4.641,0.246 -8.786,0.988 -13.278,1.184 -0.445,-3.208 -0.146,-6.363 -0.246,-9.574 1.875,-0.147 3.8,-0.097 5.332,-0.935 1.231,-0.641 1.676,-2.021 1.776,-3.307 0.099,-10.708 -0.053,-20.775 -0.446,-31.533 -0.345,-8.836 0.247,-17.417 -0.987,-25.564 -1.479,-2.215 -4.933,-0.735 -6.861,-0.835 l 0,-9.574 c 13.277,-2.617 25.957,-6.659 38.048,-12.091 0.334,0.05 4.418,-2.098 6.363,-2.666 0.05,0.032 0.108,0.07 0.161,0.105 C 0.085,-13.216 -0.296,-6.56 0,0"
             id="path130"
             style="fill:#cf2e4d;fill-opacity:1;fill-rule:nonzero;stroke:none" /></g><g
           transform="translate(700.3047,422.8545)"
           id="g132"><path
             d="m 0,0 c 1.43,4.591 1.23,10.017 4.245,13.866 1.875,0.396 3.454,-0.542 4.884,-1.579 0.249,4.242 0.492,8.487 0.249,12.929 -3.504,2.024 -7.107,3.899 -10.664,5.821 -3.352,1.333 -6.413,3.407 -9.867,4.591 -0.742,0.346 -1.53,1.087 -2.368,0.94 -0.199,-3.556 -0.049,-7.948 -0.099,-11.352 1.974,-1.234 4.195,-1.825 5.921,-3.554 2.22,-1.875 1.482,-4.884 1.283,-7.45 -3.108,-15.053 -6.762,-29.906 -10.263,-44.757 -0.345,-1.087 -0.296,-2.32 -0.987,-3.208 -0.688,4.491 -1.383,8.982 -2.124,13.474 -1.38,10.116 -2.959,20.575 -4.488,31.037 -0.296,0.492 0.096,1.233 -0.346,1.676 -0.492,3.949 -0.938,7.552 -1.43,11.349 -0.047,1.729 -0.594,4.196 0.938,5.578 2.417,0.346 4.438,-1.432 6.512,-1.875 0.1,3.604 0.343,7.008 0.25,10.858 l -0.25,0.492 c -8.238,2.912 -16.728,5.722 -25.116,8.042 -0.052,-3.155 -0.299,-6.858 -0.199,-10.409 1.975,-0.495 4.049,-1.04 5.329,-2.962 2.865,-6.762 3.111,-14.608 4.345,-22.008 2.809,-16.128 4.766,-32.555 6.501,-48.908 7.33,-0.223 13.386,-1.108 18.381,-2.385 C -6.129,-26.584 -3.182,-13.339 0,0"
             id="path134"
             style="fill:#cf2e4d;fill-opacity:1;fill-rule:nonzero;stroke:none" /></g><g
           transform="translate(532.9375,370.1406)"
           id="g136"><path
             d="m 0,0 c 6.51,6.196 11.399,14.109 13.553,22.761 0.794,2.024 0.741,4.64 1.385,6.612 0.589,4.488 0.789,9.325 0.835,14.312 0,0 -0.146,4.684 0.15,7.5 0.05,12.041 0.246,22.157 0.937,34.541 0.1,1.974 1.828,3.357 3.554,3.949 1.037,0.346 2.171,0.641 3.308,0.937 l 0.099,7.7 c 0.021,1.122 0.021,1.687 0,2.712 -7.552,-2.173 -14.906,-3.7 -22.257,-6.416 -0.345,-3.55 0,-7.3 -0.345,-10.857 2.071,0.398 4.145,1.928 6.266,1.187 C 8.273,84.639 8.227,83.804 8.572,83.259 8.968,71.563 8.127,60.413 8.077,48.914 7.98,34.257 9.606,15.999 -6.135,9.337 -7.022,9.439 -7.614,8.748 -8.602,8.991 c -3.404,1.234 -3.7,5.432 -3.799,8.54 -0.396,10.412 0.249,21.463 0.345,31.48 0.15,9.477 0.097,18.211 0.938,26.798 0.937,3.7 4.933,4.438 7.699,5.92 0.097,3.604 0.343,6.909 0.246,10.905 l -0.246,0.345 c -8.388,-3.55 -16.928,-7.154 -24.97,-11.396 -0.099,-4.444 -0.345,-8.341 -0.246,-12.437 1.875,0.792 3.355,2.368 5.575,2.271 1.137,-0.492 1.231,-1.975 1.284,-2.962 -0.2,-20.429 -0.446,-39.331 -0.695,-59.464 0.085,-0.829 0.147,-1.67 0.214,-2.513 2.701,1.227 5.754,2.08 9.217,2.352 0,0 5.153,-4.072 13.04,-8.83"
             id="path138"
             style="fill:#cf2e4d;fill-opacity:1;fill-rule:nonzero;stroke:none" /></g></g></g></g></svg>