<?xml version="1.0" encoding="UTF-8" standalone="no"?>
<!-- Created with Inkscape (http://www.inkscape.org/) -->

<svg
   xmlns:dc="http://purl.org/dc/elements/1.1/"
   xmlns:cc="http://creativecommons.org/ns#"
   xmlns:rdf="http://www.w3.org/1999/02/22-rdf-syntax-ns#"
   xmlns:svg="http://www.w3.org/2000/svg"
   xmlns="http://www.w3.org/2000/svg"
   version="1.1"
   width="279.99957"
   height="200"
   viewBox="0 0 279.99957 200"
   id="Layer_1"
   xml:space="preserve"><metadata
     id="metadata4129"><rdf:RDF><cc:Work
         rdf:about=""><dc:format>image/svg+xml</dc:format><dc:type
           rdf:resource="http://purl.org/dc/dcmitype/StillImage" /><dc:title></dc:title></cc:Work></rdf:RDF></metadata><defs
     id="defs4127" /><path
     d="m 279.99956,188.22761 h -2.48074 v -13.82016 h -0.0761 l -5.57628,13.82016 h -1.5077 l -5.42039,-13.82016 h -0.0761 v 13.82016 h -2.48108 v -16.29416 h 4.06891 l 4.68338,11.49294 4.83959,-11.49294 h 4.02615 v 16.29416 z m -20.59472,-13.82016 h -5.3453 v 13.82016 h -2.4767 v -13.82016 h -5.34464 v -2.474 h 13.16664 v 2.474 z"
     id="path4095"
     style="fill:#003057" /><polygon
     points="735.712,20.588 510.309,20.588 502.645,20.588 502.645,28.265 502.645,190.009 743.391,190.009 743.391,28.265 743.391,20.588 "
     transform="matrix(0.33669103,0,0,0.33669103,-5.963569,-5.6064317)"
     id="polygon4097"
     style="fill:#003057" /><path
     d="m 244.3295,134.81057 c -26.72451,-5.93149 -53.83891,-9.66943 -81.05701,-11.23572 v 18.63821 c 0,7.36276 0,12.67675 -2.56121,15.73222 -2.69353,3.20867 -8.91524,4.64061 -20.17453,4.64061 h -12.56598 c -11.25895,0 -17.47932,-1.43194 -20.17183,-4.64061 -2.56492,-3.0548 -2.56492,-8.36913 -2.56492,-15.73222 v -18.64797 c -27.215739,1.54002 -54.327789,5.26887 -81.052299,11.18588 v 19.04459 c -0.099,2.26593 -0.0505,13.22758 9.20614,24.0118 11.88284,13.8279 33.33309,21.30143 63.75682,22.19265 h 0.0414 0.0411 74.093239 0.0407 0.035 l 0.1138,-0.005 c 30.33014,-0.89054 51.72887,-8.35936 63.60935,-22.18726 9.04015,-10.52867 9.34284,-20.9634 9.21052,-24.0118 v -18.98499 z"
     id="path4099"
     style="fill:#003057" /><polygon
     points="322.601,20.588 97.211,20.588 89.53,20.588 89.53,28.265 89.53,190.009 330.261,190.009 330.261,28.265 330.261,20.588 "
     transform="matrix(0.33669103,0,0,0.33669103,-5.963569,-5.6064317)"
     id="polygon4101"
     style="fill:#003057" /><rect
     width="71.320587"
     height="52.084084"
     x="29.051617"
     y="6.2989731"
     id="rect4103"
     style="fill:#9d968d" /><rect
     width="71.326645"
     height="52.084084"
     x="168.13533"
     y="6.2989731"
     id="rect4105"
     style="fill:#9d968d" /><path
     d="m 239.46196,133.76582 c -23.54884,-4.98337 -47.38825,-8.28934 -71.32665,-9.8866 v 18.33148 c 0,15.80529 0,25.34206 -27.59654,25.34206 h -12.57036 c -27.59755,0 -27.59755,-9.53644 -27.59755,-25.34206 v -18.34562 c -23.932339,1.59053 -47.770739,4.88168 -71.320589,9.85562 v 20.18597 c -0.0599,1.08448 -0.35554,10.88893 7.99507,20.62132 10.94852,12.74746 31.19072,19.64962 60.18183,20.50044 h 74.093239 0.0522 c 28.92681,-0.85553 49.14106,-7.75265 60.08857,-20.50044 8.15702,-9.50109 8.09506,-18.84191 8.00113,-20.59472 v -20.16745 z"
     id="path4107"
     style="fill:#9d968d" /><rect
     width="65.031868"
     height="48.837368"
     x="171.28001"
     y="9.5480423"
     id="rect4109"
     style="fill:#003057" /><path
     d="m 236.31188,133.149 c -21.49031,-4.41604 -43.2153,-7.41461 -65.03187,-9.02164 v 18.08334 c 0,15.95444 0,28.59315 -30.74124,28.59315 h -12.56969 c -30.741229,0 -30.741229,-12.63871 -30.741229,-28.59315 v -18.13788 c -21.81556,1.57638 -43.54324,4.55139 -65.03894,8.93409 v 21.01828 c 0,0 -2.95245,35.74817 65.03894,37.76091 h 74.051819 c 67.99273,-2.01308 65.03187,-37.76091 65.03187,-37.76091 V 133.149 z"
     id="path4111"
     style="fill:#003057" /><rect
     width="65.03894"
     height="48.837368"
     x="32.186871"
     y="9.5480423"
     id="rect4113"
     style="fill:#003057" /><path
     d="m 114.9085,78.501008 c -5.61802,10.88825 -11.26501,21.900072 -16.932529,33.200102 0.0458,-10.99701 0.0946,-21.999732 0.1431,-32.996742 5.596139,-0.0946 11.192949,-0.15959 16.789429,-0.20336 m 23.75558,14.43361 c -3.09655,-0.032 -6.19344,-0.0461 -9.29099,-0.0461 1.60467,-3.54098 3.21102,-7.07589 4.81299,-10.61283 1.48751,3.5467 2.98107,7.09711 4.478,10.65896 m 33.49233,-14.0757 c 0.062,11.24379 0.12323,22.482882 0.18754,33.723312 -5.70893,-11.65625 -11.40642,-22.941462 -17.07225,-34.028362 5.6288,0.0758 11.25659,0.1798 16.88471,0.30505 m -138.137249,6.66914 c -3.95679,-0.0848 -7.97588,-0.17238 -10.50409,-0.22087 0.007,-1.75921 0.0138,-3.51606 0.0246,-5.27157 3.50293,-0.18181 7.00755,-0.35588 10.5125,-0.52355 -0.009,2.00398 -0.0212,4.00999 -0.033,6.01599 m -0.33871,24.511782 c -3.17938,0.42558 -6.35639,0.87675 -9.53105,1.34879 0.0114,-2.11644 0.0188,-4.23356 0.0279,-6.34831 3.17736,-0.16566 6.35404,-0.32154 9.53341,-0.45824 -0.0118,1.81881 -0.0209,3.63828 -0.0303,5.45776 m 199.273609,-0.0428 c -0.0118,-2.33663 -0.0232,-4.67361 -0.038,-7.00822 9.26271,1.11546 18.49949,2.39353 27.70766,3.82784 -0.004,-5.88772 -0.004,-11.779812 -0.0141,-17.667192 -9.24351,-0.84105 -18.50117,-1.59154 -27.77835,-2.24943 -0.009,-1.97907 -0.0236,-3.96387 -0.0283,-5.94024 9.86269,0.51514 19.71629,1.1104 29.55541,1.7848 v -0.82927 c 0,-5.92846 -0.005,-11.85355 -0.005,-17.77965 v -0.17575 c -81.83848,0.0259 -168.458979,0.0279 -250.294759,0.0815 -6.54763,-0.0532 -12.06128002,5.45945 -12.05859001611679,12.03064 v 20.61762 C 9.8388317e-7,100.19871 2.960191,103.771 6.501501,105.17938 c -2.10532,0.30976 -4.21335,0.6313 -6.31868002,0.9525 v 15.28072 c 0,5.34531 5.35204002,10.42295 11.62897002,8.90582 10.9024,-2.52822 21.86607,-4.70189 32.87283,-6.51902 5.51736,-0.97371 14.03901,-6.6658 14.07672,-12.14242 0.0418,-6.00455 0.0832,-12.009772 0.12424,-18.012972 -0.0461,-4.11605 -3.77431,-6.3372 -8.24186,-7.28835 2.48141,-0.1404 4.9635,-0.28114 7.44323,-0.4111 0.0118,-2.04978 0.0259,-4.09618 0.0414,-6.14394 5.49244,-0.21009 10.98286,-0.39662 16.47732,-0.55621 l -0.26161,40.532882 c 7.85635,-0.85822 15.72718,-1.53564 23.60642,-2.03698 6.975229,-0.42254 13.956849,-0.70436 20.938809,-0.84307 1.45215,-3.28274 2.90194,-6.55033 4.34534,-9.80916 7.13852,-0.0684 14.27637,-0.0189 21.41153,0.14848 1.4838,3.2989 2.96995,6.60218 4.45408,9.92229 15.65176,0.59527 31.285,1.88984 46.85157,3.89181 -0.0923,-13.83262 -0.18956,-27.671962 -0.28114,-41.511312 3.07399,0.10875 10.93707,0.22457 14.01881,0.34847 0.0946,14.14675 0.18922,28.292492 0.2882,42.438562 18.01466,2.64673 35.92561,6.24596 53.65677,10.79432 v -18.04328 c -10.18659,-1.92318 -20.41526,-3.6201 -30.67996,-5.08033"
     id="path4115"
     style="fill:#9d968d" /><path
     d="m 58.229941,66.427948 c -0.0239,3.65882 -0.0508,7.31427 -0.0744,10.97309 6.44224,-0.20807 12.88584,-0.38786 19.33414,-0.53769 -0.0848,13.43633 -0.16868,26.877032 -0.25386,40.317072 5.94057,-0.57642 11.88788,-1.05149 17.83755,-1.42757 l 0.18417,-39.237982 c 6.952669,-0.10639 13.904329,-0.1808 20.858679,-0.22457 1.69625,-3.36354 3.38577,-6.72002 5.07394,-10.07077 -20.98966,0.0145 -41.980319,0.0855 -62.960209,0.20842"
     id="path4117"
     style="fill:#003057" /><path
     d="m 142.61817,95.179678 c -2.74672,-6.54999 -5.48537,-13.06092 -8.21425,-19.56478 h -0.26632 c -2.92753,6.48837 -5.86549,12.97102 -8.80986,19.47522 5.76314,-0.0239 11.52763,0.004 17.29043,0.0896 m -18.23956,-29.02614 c 7.14829,-0.005 14.29119,0 21.43611,0.009 8.39135,16.23794 16.83859,32.73108 25.31883,50.034312 -6.65201,-0.51043 -13.31075,-0.89796 -19.97857,-1.17 -1.48414,-3.32651 -2.96794,-6.63955 -4.45173,-9.93778 -8.51122,-0.22019 -17.02815,-0.27642 -25.54037,-0.17272 -1.44643,3.26523 -2.89588,6.54022 -4.34534,9.82229 -5.89916,0.14006 -11.79563,0.37137 -17.690079,0.69964 C 107.59658,98.554608 116.0216,82.312298 124.37861,66.153148"
     id="path4119"
     style="fill:#003057" /><path
     d="m 2.979281,120.8288 c 0,-4.10662 0.004,-8.21829 0.007,-12.32761 6.11397,-0.99222 12.24309,-1.90903 18.38198,-2.75278 -0.009,2.32047 -0.0226,4.64128 -0.0293,6.96108 -0.005,0.91311 0.92152,1.63767 2.01543,1.45821 3.75815,-0.61412 7.51999,-1.19559 11.28521,-1.74641 0.66059,-0.0946 1.84439,-0.95688 1.8518,-1.89254 0.0141,-2.86154 0.0306,-5.72341 0.0505,-8.58461 -0.0148,-0.0684 -25.51208,1.05148 -25.95753,1.14172 -3.42145,0.23837 -7.78463,-3.544352 -7.77958,-6.733152 0.003,-6.79948 0.008,-13.59862 0.0128,-20.40011 0,-4.89684 4.2248,-9.18729 9.23578,-9.2048 11.45624,-0.10841 22.91889,-0.20774 34.37985,-0.28248 5.24093,-0.0175 8.93309,3.7642 8.90918,7.45266 -0.0249,3.26825 -0.0461,6.53214 -0.0687,9.80141 -6.14798,0.30235 -12.28821,0.6387 -18.42441,1.01613 0.009,-2.0225 0.0212,-4.04534 0.0343,-6.06582 0.007,-0.89291 -1.17235,-1.74238 -2.31811,-1.69625 -3.99585,0.1542 -7.99271,0.32255 -11.98452,0.49796 -1.10603,0.0488 -1.85382,1.19795 -1.85618,1.87739 -0.009,2.84841 -0.0212,5.6958 -0.0343,8.54421 -0.005,-0.0152 22.9024,0.27541 24.83534,0.38181 3.43795,0.0488 10.48422,0.97842 10.53271,5.60489 -0.0418,6.03351 -0.0828,12.072062 -0.12424,18.101862 -0.0259,3.85612 -6.8786,8.64622 -11.23336,9.38055 -11.0098,1.73934 -21.97515,3.82784 -32.88327,6.25235 -4.65037,1.06664 -8.83847,-2.96759 -8.83847,-6.78567"
     id="path4121"
     style="fill:#003057" /><path
     d="m 230.10498,112.16136 c -0.0212,-4.02379 -0.0475,-8.04994 -0.0663,-12.07643 9.26709,1.01074 18.51599,2.17368 27.73594,3.48273 -0.006,-3.957132 -0.01,-7.907192 -0.0145,-11.864322 -9.24318,-0.91883 -18.50589,-1.73194 -27.78307,-2.44101 -0.0236,-3.67094 -0.0374,-7.34424 -0.0616,-11.01687 9.87212,0.42626 19.73683,0.91648 29.58336,1.47774 v -0.82455 c 0,-3.98037 -0.004,-7.95837 -0.004,-11.94345 v -0.16868 c -35.19364,-0.35756 -75.19253,-0.56362 -110.41378,-0.61884 1.69423,3.36961 3.39082,6.75302 5.08942,10.15225 6.95166,0.0788 13.90602,0.18888 20.85532,0.32962 0.0754,13.29222 0.1505,26.589502 0.22929,39.883412 5.94226,0.50066 11.87576,1.10569 17.79917,1.80062 -0.0896,-13.74979 -0.18384,-27.496212 -0.27643,-41.249362 4.99785,0.14309 14.77064,0.30235 19.76107,0.47978 0.097,14.25079 0.19326,28.496522 0.28821,42.752022 16.09619,2.35347 32.10012,5.43487 47.97578,9.24149 -0.008,-4.05477 -0.008,-8.10954 -0.008,-12.167 -10.18861,-1.98479 -20.42233,-3.72818 -30.68905,-5.22915"
     id="path4123"
     style="fill:#003057" /></svg>