<?xml version="1.0" encoding="UTF-8" standalone="no"?>
<!-- Created with Inkscape (http://www.inkscape.org/) -->

<svg
   xmlns:dc="http://purl.org/dc/elements/1.1/"
   xmlns:cc="http://creativecommons.org/ns#"
   xmlns:rdf="http://www.w3.org/1999/02/22-rdf-syntax-ns#"
   xmlns:svg="http://www.w3.org/2000/svg"
   xmlns="http://www.w3.org/2000/svg"
   version="1.1"
   width="280"
   height="200.00999"
   viewBox="0 0 279.99999 200.01"
   id="Layer_1"
   xml:space="preserve"><metadata
     id="metadata17"><rdf:RDF><cc:Work
         rdf:about=""><dc:format>image/svg+xml</dc:format><dc:type
           rdf:resource="http://purl.org/dc/dcmitype/StillImage" /><dc:title></dc:title></cc:Work></rdf:RDF></metadata><defs
     id="defs15" /><g
     transform="matrix(0.57116923,0,0,0.57116923,81.784333,-2.9413169)"
     id="g3"><path
       d="m 205.389,277.052 c -4.598,-2.524 -7.156,-10.169 -12.912,-12.218 -0.262,-0.296 -0.262,-0.296 -0.242,-0.572 0.281,0.021 0.576,-0.234 1.14,-0.197 2.399,-0.254 3.803,-2.232 4.938,-4.51 0.313,-0.395 0.472,-0.66 0.869,-0.359 0.252,0.434 0.56,0.039 0.81,0.473 1.274,1.889 1.7,3.852 3.509,4.109 0.279,0.021 0.475,-0.797 0.475,-0.797 0.555,-1.9 -0.19,-3.334 -1.334,-5.069 -2.938,-4.214 -6.304,-8.313 -10.879,-9.179 -2.773,-0.463 -6.078,-1.377 -7.691,-2.453 l -2.24,-2.09 c -0.083,-0.836 -0.586,-1.699 0.271,-1.918 1.726,-0.576 2.469,0.855 3.838,1.364 1.349,0.784 3.283,3.267 4.654,1.698 0,0 0.021,-0.273 0.318,-0.531 -2.445,-9.297 -9.27,-14.184 -16.139,-18.388 0.019,-0.272 -0.104,-0.558 -0.104,-0.558 l 1.551,-2.107 2.122,1.801 1.843,1.787 c 0.849,-0.082 1.701,-0.303 2.021,-0.834 0.245,-1.505 -0.276,-2.096 -0.62,-3.225 -2.098,-4.15 -6.887,-3.924 -11.479,-6.586 -0.238,-0.57 -0.854,-1.855 -0.248,-2.504 0.279,0.017 0.84,0.056 0.84,0.056 l 2.994,3.382 1.92,0.682 c 0.029,-0.41 0.242,-1.502 0.57,-2.172 -0.492,-1.002 -0.274,-2.096 -0.883,-3.52 -0.757,-3.234 -3.111,-5.745 -6.009,-6.495 0.95,-7.685 -4.209,-14.259 -2.312,-21.461 0.02,-0.276 -0.33,-1.271 -0.752,-1.3 -0.297,0.258 -0.854,0.22 -1.133,0.201 l -1.408,0.045 -1.685,12.199 -1.5,1.418 c -0.542,-0.312 -0.821,-0.33 -1.499,-0.652 -2.763,-4.754 -3.563,-11.449 -8.395,-14.68 0,0 -0.277,-0.021 -0.68,-0.322 -1.068,-0.764 -0.837,-2.133 -1.039,-3.253 0.317,-0.533 0.887,-0.629 1.321,-0.879 1.396,0.094 3.31,-1.161 4.111,-2.628 l 0.668,-3.551 c 0.198,-0.817 0.84,-2.019 1.407,-2.118 1.1,0.352 1.851,1.646 2.804,2.126 0.622,1.148 2.584,1.144 3.481,0.373 -0.078,-2.911 -0.85,-6.006 -1.955,-8.294 -0.761,-1.159 -1.785,-2.613 -2.436,-3.349 -2.764,-0.6 -5.004,1.324 -7.389,1.3 -0.523,-0.587 0.234,-1.367 0.57,-2.173 -3.013,-17.363 0.775,-37.72 -2.772,-53.458 -0.843,-4.07 -3.214,-6.306 -2.864,-9.326 1.156,-2.55 -0.816,-4.481 -0.563,-6.124 0.549,0.175 0.912,1.028 0.895,1.305 3.182,0.631 6.932,-0.777 9.512,-1.57 0.819,0.332 1.609,1.076 2.766,0.601 2.125,-0.271 2.705,-2.583 3.488,-3.776 l 1.438,-0.458 c -0.301,0.257 -0.021,0.276 0.568,-0.099 0.855,-0.22 1.353,-1.294 3.261,-0.472 0.5,0.862 1.946,0.27 2.243,0.014 1.16,-2.551 3.379,-4.201 6.046,-6.233 0.61,-2.726 -1.058,-5.054 -0.875,-7.669 -2.82,-1.851 -1.978,-5.946 -4.872,-6.695 -0.542,-0.312 -0.782,-0.883 -1.342,-0.921 l -0.307,-1.681 c -0.771,-1.019 -2.103,-2.078 -2.932,-2.271 -0.279,-0.02 -0.816,-0.334 -1.078,-0.627 -3.656,-1.907 -9.385,-2.295 -14.857,-0.312 -1.744,0.851 -3.561,0.728 -4.451,1.498 l -0.834,1.88 c -0.021,0.278 -0.178,0.543 -0.768,0.918 -2.264,0.263 -3.111,2.42 -3.098,4.22 l 0.219,4.995 c -0.3,0.256 -1.275,0.189 -2.125,0.27 -1.951,-2.208 -1.678,-6.202 -4.506,-7.914 -0.822,-0.332 -2.498,-0.446 -2.992,0.628 -0.061,0.826 -0.004,2.076 -0.041,2.625 -1.426,0.321 -2.303,0.812 -3.391,0.326 -3.225,-0.081 -4.656,4.389 -8.033,4.576 -2.906,-2.687 -8.389,-10.669 -9.998,-13.821 -1.66,-4.4 4.641,-6.187 6.953,-9.215 3.541,-2.527 13.719,-5.575 13.99,-7.494 5.334,2.02 10.479,4.72 16.904,3.216 4.444,-1.36 8.768,-3.004 11.983,-6.938 -0.321,-1.406 -0.087,-2.771 0.295,-4.269 -1.716,-5.65 -4.851,-9.044 -10.022,-11.331 -1.332,-1.056 -3.15,-1.18 -4.062,-2.21 -1.338,-2.997 0.129,-5.942 -0.194,-9.422 -0.861,-1.719 -1.896,-3.033 -3.291,-3.127 -0.588,0.376 -1.39,-0.234 -1.986,0.281 -0.459,0.521 -1.822,0.015 -2.084,-0.281 -0.26,-0.292 -0.242,-0.569 -0.366,-0.854 -0.769,-1.021 -2.817,-1.85 -4.772,-1.982 l -3.869,3.197 -3.244,2.271 c -5.913,-1.785 -11.969,-1.5 -18.206,1.398 -2.042,1.106 -1.792,3.614 -2.382,6.064 0.886,7.534 6.432,10.535 10.173,15.355 0.342,1.128 -0.275,1.917 -0.76,2.854 -5.521,4.745 -9.896,9.154 -15.77,12.911 -2.137,2.481 -5.555,3.222 -5.572,7.508 0.039,7.612 2.756,14.992 6.793,19.555 1.069,2.836 2.837,3.649 4.78,5.994 0.884,1.442 1.797,2.474 2.558,3.632 3.019,13.209 -7.517,29.655 1.496,41.471 0.87,1.582 0.236,2.645 -0.558,3.975 -1.996,2.494 -2.271,6.488 -2.91,9.628 -3.464,-0.65 -6.546,-2.796 -10.002,-1.506 -1.228,-0.499 -1.431,-1.62 -2.211,-2.502 -7.412,-10.6 -22.891,-8.048 -33.531,-10.43 l -1.695,-1.912 c 2.917,-5.615 4.889,-11.845 4.637,-18.365 0.246,-3.582 -0.775,-7.11 -1.328,-11.299 -0.572,-3.912 -3.364,-6.176 -5.512,-9.642 -1.331,-1.059 -3.004,-1.172 -4.496,-1.965 -4.914,-1.991 -10.929,-4.333 -16.58,-1.811 -4.584,1.351 -5.401,7.106 -9.178,11.001 -3.498,3.916 -7.006,7.967 -4.238,14.658 -1.654,3.625 -2.86,6.864 -4.773,10.194 -0.276,1.917 -1.114,3.938 -1.404,6.128 -1.284,4.343 -6.436,11.88 -1.884,13.019 0.452,3.627 -0.881,6.72 -1.501,9.582 -0.635,3.141 -0.565,6.187 -1.165,8.777 -1.92,-0.683 2.007,1.382 1.085,2.566 1.402,4.106 -3.699,8.882 -1.712,12.613 0.278,0.018 0.539,0.313 0.818,0.333 5.838,-3.206 4.947,-12.673 12.111,-14.817 2.911,-3.54 3.961,-8.588 4.871,-13.646 1.532,-3.908 -0.007,-8.024 2.699,-12.684 3.099,-4.219 5.074,-10.449 6.728,-16.148 1.155,-0.477 2.862,-0.775 3.991,-0.838 l 1.94,4.421 0.854,1.856 c 0.344,1.132 0.862,1.719 1.458,3.28 0.498,2.939 1.325,5.209 1.368,8.672 -0.812,1.603 -3.411,2.673 -5.501,4.47 -0.923,1.182 -2.575,2.73 -3.918,3.886 -2.395,2.191 -4.42,5.096 -6.735,8.124 -2.177,5.11 -4.335,9.944 -6.411,15.615 -0.786,3.269 -0.802,7.555 0.608,11.526 0.51,2.8 2.433,5.422 2.664,8.204 1.366,2.584 2.462,5.012 3.281,7.416 -0.892,2.709 -1.776,3.34 -4.424,5.1 -3.375,2.121 -4.485,3.988 -9.251,7.953 -3.233,2.133 -9.39,7.943 -8.541,13.949 2.459,5.01 8.497,5.004 13.104,7.392 4.599,2.522 8.835,4.194 13.211,5.873 l -3.463,5.438 c -0.596,0.516 -0.96,1.735 -0.637,3.139 -4.897,3.82 15.338,17.777 20.224,28.346 1.373,4.523 3.092,8.096 6.302,10.391 l -1.747,2.928 c -1.065,3.248 2.156,5.4 3.27,7.553 1.46,3.281 2.797,6.279 6.558,8.747 1.219,0.632 2.244,0.009 3.159,-1.033 3.755,-7.634 1.072,-15.563 -0.752,-23.711 -5.226,-7.687 -11.232,-16.258 -16.465,-23.804 -1.944,-2.346 -2.195,-4.854 -0.438,-7.918 -0.122,-0.282 0.159,-0.266 0.159,-0.266 0.947,0.479 0.399,0.305 0.91,1.028 1.619,0.94 3.704,3.296 6.278,2.642 0.547,0.176 1.078,0.625 0.898,1.166 0,0 -0.295,0.256 -0.333,0.809 -1.382,1.703 -0.982,2.011 -2.233,3.859 -0.266,3.859 5.095,5.465 6.575,8.471 1.228,0.5 1.19,1.049 2.58,1.281 1.08,0.627 2.83,1.713 3.643,0.107 -0.243,-0.57 0.626,-3.001 1.27,-4.203 -1.534,-8.27 -0.078,-11.076 -3.588,-19.197 -2.672,-1.98 -7.844,-6.34 -10.711,-7.504 6.568,-7.721 8.829,-14.072 15.812,-23.701 2.32,-1.088 4.97,1.168 6.682,2.808 0.52,2.659 1.931,4.558 2.479,6.81 -0.019,0.273 -0.315,0.53 -0.315,0.53 l -5.221,2.416 -2.832,4.373 3.404,5.628 c 0.679,0.319 0.642,0.873 1.183,1.186 l 0.918,0.893 c 0.728,-0.365 1.009,-0.344 1.288,-0.328 0.681,0.324 1.128,-0.063 0.661,0.6 -0.293,4.269 1.275,7.973 3.132,11.559 2.234,2.225 1.933,4.556 3.552,5.496 1.406,-0.043 2.831,-0.362 3.887,-1.396 0.519,-3.426 0.586,-6.465 0.832,-10.047 -0.231,-0.703 0.57,-2.174 1.166,-2.688 -0.018,0.272 0.521,0.59 0.781,0.883 2.02,3.32 3.086,6.158 6.363,9.563 1.422,1.756 3.038,4.771 5.683,5.088 0.521,0.588 1.341,0.922 1.693,1.914 l -0.656,1.338 c -0.837,-0.057 -0.774,1.055 -2.235,1.926 -3.554,10.828 4.99,23.305 5.748,34.701 1.895,3.033 2.078,6.506 1.572,9.791 0.721,3.785 1.053,7.127 2.762,10.839 0.15,5.964 0.943,10.722 -0.44,16.577 -5.207,6.287 1.108,14.464 0.175,21.871 2.178,3.051 6.563,2.518 9.041,5.313 1.368,0.51 3.199,2.433 4.973,1.167 -0.303,-5.83 -3.551,-13.66 -2.975,-19.981 -1.453,-7.433 -2.293,-13.579 -3.097,-20.273 1.329,-2.956 0.283,-6.07 -0.073,-9.139 -0.424,-1.965 0.68,-3.689 0.115,-5.664 0.105,-11.756 0.326,-25.162 3.631,-36.424 0.614,-0.787 0.895,-0.768 1.758,-1.125 4.438,-1.221 7.836,-5.695 12.146,-5.127 0,0 -0.264,18.107 -0.064,17.291 0.484,13.314 -0.146,32.644 -0.146,32.644 -0.557,-0.039 -0.885,0.629 -1.871,0.704 -2.176,3.035 -8.372,3.308 -9.83,8.191 0.045,1.387 -0.77,2.991 0.592,3.635 2.745,0.879 5.021,-1.596 7.361,-2.964 0.18,-0.538 1.875,-0.699 2.843,-0.497 0.101,0.561 0.062,1.111 0.009,1.938 -1.787,3.477 -5.438,3.508 -8.506,5.237 -0.596,0.511 -0.691,1.89 -0.627,2.999 1.637,2.739 4.407,5.279 7.798,7.029 11.2,-1.594 21.942,-10.83 35.079,-12.018 6.549,-1.356 8.4,-7.872 14.711,-9.8 l 16.327,-4.708 c 0.298,-0.255 0.298,-0.255 0.315,-0.534 l -0.008,-1.934 -9.149,-5.739 c -0.792,-0.745 0.013,-2.216 0.35,-3.021 1.025,-0.621 1.984,-0.277 3.103,-0.205 2.226,0.287 3.762,2.465 4.522,3.629 0.29,-0.121 0.29,-0.121 0.569,-0.104 l 1.742,-0.854 c 0.58,-0.235 0.531,-1.621 -0.069,-3.047 -1.653,-4.539 -6.254,-7.064 -10.19,-11.065 -0.438,-1.688 -2.348,-4.585 -1.393,-6.183 4.564,-1.074 8.105,4.561 11.355,6.303 0.688,0.187 2.346,0.572 2.261,-0.264 0.329,-0.666 1.065,-1.168 1.085,-1.447 -0.447,-1.7 -1.591,-3.436 -2.354,-4.593 z M 39.095,219.457 c -2.811,-1.988 -5.213,-3.813 -7.893,-5.652 6.244,-3.035 10.244,-4.014 14.812,-7.162 -2.407,4.402 -4.649,8.403 -6.919,12.814 z m 95.848,-54.679 c -0.277,-0.02 -0.277,-0.02 -0.56,-0.038 -4.128,-5.259 0.138,-12.166 -1.561,-18.09 -2.246,-6.103 1.767,-11.366 2.686,-16.561 0.849,-0.083 1.408,-0.044 1.312,-0.741 l -0.284,-1.957 0.537,2.388 c 0.854,3.931 -1.332,7.105 -0.787,11.431 1.026,5.465 -0.08,11.339 2.86,15.55 -0.006,2.077 1.354,2.722 1.912,4.835 -0.886,2.705 -4.063,1.937 -6.115,3.183 z m 15.911,131.688 c -1.649,1.552 -3.574,5.017 -5.375,6.692 -1.129,-6.025 -0.127,-16.471 -0.086,-23.247 -0.035,-5.54 -0.23,-12.886 0.596,-18.78 l 0.539,0.313 c 5.07,5.882 8.57,14.143 12.541,21.738 -2.438,4.819 -6.858,7.839 -8.215,13.284 z"
       id="path5"
       style="fill:#492f24;stroke:#ffc425;stroke-width:1.5" /><g
       id="g7"><path
         d="m 183.85,340.981 c 1.846,-0.151 3.412,0.58 4.404,1.455 0.977,0.861 1.836,2.175 1.967,3.86 0.152,1.937 -0.604,3.346 -1.529,4.333 -0.989,1.056 -2.199,1.759 -3.934,1.895 -3.459,0.271 -6.066,-2.133 -6.336,-5.279 -0.166,-1.961 0.588,-3.378 1.457,-4.334 0.891,-0.978 2.172,-1.782 3.971,-1.93 z m -3.608,3.059 c -0.52,0.715 -1.012,1.716 -0.91,3.132 0.273,3.758 4.865,5.685 7.977,3.423 1.096,-0.796 2.065,-2.282 1.93,-4.15 -0.066,-0.916 -0.375,-1.673 -0.838,-2.33 -0.758,-1.074 -2.356,-2.221 -4.551,-2.04 -1.666,0.135 -2.911,1.004 -3.608,1.965 z"
         id="path9" /><path
         d="m 185.632,349.029 c -0.247,-0.082 -0.562,-0.653 -0.729,-0.874 -0.262,-0.35 -0.438,-0.697 -0.69,-0.91 -0.183,0 -0.362,0 -0.546,0 -0.023,0.583 0.047,1.261 -0.037,1.784 -0.4,0 -0.801,0 -1.201,0 -0.084,-1.519 -0.012,-3.192 -0.037,-4.771 0,-0.062 0.027,-0.095 0.074,-0.108 1.752,0.034 3.932,-0.346 4.006,1.273 0.033,0.742 -0.375,1.223 -0.947,1.493 0.457,0.77 1.093,1.359 1.566,2.112 m -2.005,-3.714 c -0.204,-0.349 -0.822,-0.233 -1.42,-0.256 0,0.426 0,0.851 0,1.274 0.865,0.249 1.857,-0.276 1.42,-1.018 z"
         id="path11" /></g></g></svg>