<?xml version="1.0" encoding="UTF-8"?>
<svg xmlns="http://www.w3.org/2000/svg" xmlns:xlink="http://www.w3.org/1999/xlink" width="35pt" height="25pt" viewBox="0 0 35 25" version="1.1">
<g id="surface1">
<path style=" stroke:none;fill-rule:evenodd;fill:rgb(100%,100%,100%);fill-opacity:1;" d="M 5 25 L 30 25 L 30 0 L 5 0 Z M 5 25 "/>
<path style=" stroke:none;fill-rule:evenodd;fill:rgb(58.039216%,52.54902%,40.784314%);fill-opacity:1;" d="M 28.789062 8.914062 C 28.554688 8.539062 28 8.417969 27.117188 8.554688 L 21.152344 9.40625 L 23.476562 8.601562 L 11.398438 10.242188 L 8.253906 13.992188 L 11.199219 12.890625 L 6.101562 16.5 L 24.980469 13.355469 C 25.738281 13.230469 26.25 12.96875 26.527344 12.566406 L 27.332031 11.574219 C 27.535156 11.375 27.640625 11.15625 27.625 10.910156 L 27.96875 10.847656 L 28.632812 10.042969 L 28.648438 10.027344 L 28.648438 10.011719 C 28.726562 9.902344 28.804688 9.765625 28.851562 9.609375 C 28.925781 9.34375 28.910156 9.113281 28.789062 8.914062 "/>
<path style=" stroke:none;fill-rule:evenodd;fill:rgb(5.490196%,16.862745%,34.509804%);fill-opacity:1;" d="M 25.984375 13.710938 L 26.171875 13.710938 L 26.171875 14.160156 L 26.292969 14.160156 L 26.292969 13.710938 L 26.464844 13.710938 L 26.464844 13.589844 L 25.984375 13.589844 L 25.984375 13.710938 "/>
<path style=" stroke:none;fill-rule:evenodd;fill:rgb(5.490196%,16.862745%,34.509804%);fill-opacity:1;" d="M 26.867188 13.929688 L 26.726562 13.589844 L 26.527344 13.589844 L 26.527344 14.160156 L 26.652344 14.160156 L 26.652344 13.710938 L 26.820312 14.160156 L 26.898438 14.160156 L 27.070312 13.710938 L 27.070312 14.160156 L 27.191406 14.160156 L 27.191406 13.589844 L 26.992188 13.589844 L 26.867188 13.929688 "/>
<path style=" stroke:none;fill-rule:evenodd;fill:rgb(5.490196%,16.862745%,34.509804%);fill-opacity:1;" d="M 21.046875 9.207031 L 11.539062 10.507812 L 11.523438 10.507812 L 9.136719 13.371094 L 9.167969 13.355469 L 11.675781 12.425781 L 12.652344 12.210938 L 7.296875 15.988281 L 7.296875 16.019531 L 24.855469 13.0625 C 25.304688 12.984375 25.707031 12.828125 26.03125 12.597656 L 26.292969 12.363281 L 27.132812 11.390625 C 27.207031 11.328125 27.253906 11.25 27.300781 11.15625 C 27.378906 10.988281 27.378906 10.847656 27.269531 10.707031 L 27.8125 10.585938 L 28.433594 9.855469 C 28.648438 9.53125 28.695312 9.269531 28.554688 9.066406 C 28.386719 8.804688 27.921875 8.710938 27.148438 8.820312 L 19.402344 9.949219 L 21.046875 9.222656 L 21.046875 9.207031 "/>
<path style=" stroke:none;fill-rule:evenodd;fill:rgb(58.039216%,52.54902%,40.784314%);fill-opacity:1;" d="M 18.351562 10.523438 L 20.179688 10.242188 L 18.382812 12.378906 L 17.128906 12.566406 L 18.691406 10.722656 L 18.351562 10.523438 "/>
<path style=" stroke:none;fill-rule:evenodd;fill:rgb(58.039216%,52.54902%,40.784314%);fill-opacity:1;" d="M 20.253906 10.226562 L 20.613281 10.414062 L 17.824219 13.726562 L 19.078125 13.542969 L 20.148438 12.257812 L 21.835938 11.992188 C 22.378906 11.902344 22.765625 11.699219 23.011719 11.375 L 23.863281 10.351562 C 24.296875 9.839844 24.140625 9.640625 23.382812 9.75 L 22.082031 9.964844 L 22.082031 9.949219 Z M 20.703125 11.589844 L 21.539062 10.617188 L 22.71875 10.429688 L 21.898438 11.390625 L 20.703125 11.589844 "/>
<path style=" stroke:none;fill-rule:evenodd;fill:rgb(58.039216%,52.54902%,40.784314%);fill-opacity:1;" d="M 23.707031 11.035156 L 24.714844 9.824219 L 24.359375 9.625 L 27.488281 9.160156 C 28.246094 9.035156 28.402344 9.238281 27.96875 9.75 L 27.609375 10.183594 L 26.355469 10.382812 L 26.820312 9.824219 L 25.644531 10.011719 L 24.871094 10.925781 L 26.203125 10.691406 C 26.960938 10.554688 27.117188 10.753906 26.683594 11.28125 L 26.015625 12.070312 C 25.875 12.320312 25.628906 12.472656 25.273438 12.550781 L 19.667969 13.464844 L 20.226562 12.796875 L 24.964844 12.023438 L 25.503906 11.390625 L 24.1875 11.605469 C 23.429688 11.746094 23.261719 11.542969 23.707031 11.035156 "/>
<path style=" stroke:none;fill-rule:evenodd;fill:rgb(58.039216%,52.54902%,40.784314%);fill-opacity:1;" d="M 10.53125 12.394531 L 11.617188 11.976562 L 14.695312 11.421875 L 10.003906 14.5625 L 12.066406 14.207031 L 9.03125 15.167969 L 17.375 13.820312 L 18.351562 12.675781 L 13.519531 13.496094 L 18.011719 10.492188 L 15.980469 10.816406 L 18.96875 9.902344 L 11.753906 10.957031 L 10.53125 12.394531 "/>
</g>
</svg>
