<?xml version="1.0" encoding="UTF-8"?>
<svg xmlns="http://www.w3.org/2000/svg" xmlns:xlink="http://www.w3.org/1999/xlink" width="35pt" height="25pt" viewBox="0 0 35 25" version="1.1">
<g id="surface1">
<path style=" stroke:none;fill-rule:evenodd;fill:rgb(100%,100%,100%);fill-opacity:1;" d="M 4.75 25 L 29.75 25 L 29.75 0 L 4.75 0 Z M 4.75 25 "/>
<path style=" stroke:none;fill-rule:evenodd;fill:rgb(92.156863%,16.470588%,23.921569%);fill-opacity:1;" d="M 24.84375 16.15625 L 24.40625 15.71875 L 16.707031 7.214844 L 16.707031 8.585938 L 19.351562 11.300781 L 16.722656 9.183594 L 16.730469 10.378906 L 19.214844 12.929688 L 16.707031 10.898438 C 16.707031 11.453125 16.839844 11.644531 17.023438 11.964844 L 16.238281 11.964844 C 16.019531 11.855469 15.792969 11.347656 15.792969 10.964844 C 15.792969 10.582031 15.792969 7.703125 15.792969 7.703125 L 15.519531 7.429688 L 15.511719 10.988281 C 15.511719 11.71875 15.941406 11.964844 15.941406 11.964844 L 14.941406 11.949219 C 14.738281 11.824219 14.519531 11.394531 14.519531 10.992188 C 14.519531 10.65625 14.519531 8.9375 14.519531 8.9375 L 14.21875 8.636719 L 14.203125 11.089844 C 14.1875 11.929688 15.773438 12.992188 15.773438 12.992188 L 15.78125 13.867188 L 14.183594 12.542969 L 14.179688 13.28125 L 15.707031 14.5625 L 14.203125 13.703125 L 14.203125 14.492188 C 14.707031 14.9375 15.269531 15.332031 15.742188 15.769531 C 15.238281 15.457031 14.714844 15.199219 14.203125 14.917969 L 14.203125 15.566406 C 14.203125 15.566406 15.238281 16.40625 15.742188 16.84375 L 15.640625 16.824219 C 15.167969 16.523438 14.691406 16.238281 14.203125 15.984375 C 14.125 17.082031 15.855469 17.957031 15.855469 17.957031 C 15.855469 17.957031 15.304688 18.339844 14.867188 18.230469 C 14.429688 18.121094 13.699219 17.464844 13.566406 17.28125 L 12.8125 16.84375 L 12.8125 17.464844 L 15.167969 19.277344 C 15.167969 19.277344 13.574219 18.390625 12.835938 17.960938 C 12.816406 18.398438 13.085938 18.792969 13.429688 19.066406 L 15.117188 20.363281 C 14.851562 20.632812 14.320312 20.679688 14.101562 20.570312 C 13.882812 20.460938 13.042969 19.984375 13.042969 19.984375 C 13.042969 19.984375 13.808594 21.300781 14.0625 21.664062 C 14.320312 22.03125 14.941406 22.101562 15.414062 21.445312 C 15.890625 20.789062 16.472656 20.3125 16.730469 20.058594 C 16.984375 19.800781 17.898438 19.621094 17.898438 19.621094 C 17.898438 19.621094 17.203125 19.070312 17.132812 18.890625 L 17.132812 18.195312 C 17.203125 17.941406 18.117188 17.464844 18.117188 17.464844 C 18.117188 17.464844 17.605469 17.027344 17.605469 16.480469 C 17.605469 15.929688 17.605469 15.347656 17.605469 15.347656 L 16.621094 14.542969 L 16.621094 13.609375 L 20.632812 16.777344 C 20.632812 16.777344 23.78125 16.769531 24.171875 16.769531 C 24.558594 16.769531 24.886719 16.613281 24.84375 16.15625 "/>
<path style=" stroke:none;fill-rule:evenodd;fill:rgb(92.156863%,16.470588%,23.921569%);fill-opacity:1;" d="M 12.765625 11.964844 L 13.277344 12.386719 C 13.277344 12.125 13.277344 11.964844 13.277344 11.964844 L 12.765625 11.964844 "/>
<path style=" stroke:none;fill-rule:evenodd;fill:rgb(92.156863%,16.470588%,23.921569%);fill-opacity:1;" d="M 12.8125 12.449219 L 12.8125 13.15625 L 13.277344 13.453125 C 13.277344 13.191406 13.277344 12.949219 13.277344 12.738281 L 12.8125 12.449219 "/>
<path style=" stroke:none;fill-rule:evenodd;fill:rgb(92.156863%,16.470588%,23.921569%);fill-opacity:1;" d="M 12.8125 14.25 L 13.277344 14.539062 C 13.277344 14.300781 13.277344 14.058594 13.277344 13.828125 L 12.8125 13.546875 L 12.8125 14.25 "/>
<path style=" stroke:none;fill-rule:evenodd;fill:rgb(92.156863%,16.470588%,23.921569%);fill-opacity:1;" d="M 12.8125 14.625 L 12.8125 15.253906 L 13.277344 15.59375 C 13.277344 15.378906 13.277344 15.148438 13.277344 14.910156 L 12.8125 14.625 "/>
<path style=" stroke:none;fill-rule:evenodd;fill:rgb(92.156863%,16.470588%,23.921569%);fill-opacity:1;" d="M 12.8125 16.414062 L 13.277344 16.753906 C 13.277344 16.683594 13.277344 16.394531 13.277344 15.984375 L 12.8125 15.695312 L 12.8125 16.414062 "/>
<path style=" stroke:none;fill-rule:evenodd;fill:rgb(13.72549%,12.156863%,12.54902%);fill-opacity:1;" d="M 13.980469 5.878906 L 13.976562 6.742188 L 9.910156 2.625 C 9.457031 2.078125 8.933594 1.476562 8.898438 0.777344 L 13.980469 5.878906 "/>
<path style=" stroke:none;fill-rule:evenodd;fill:rgb(13.72549%,12.156863%,12.54902%);fill-opacity:1;" d="M 12.800781 6.445312 L 12.808594 7.335938 L 9.769531 4.222656 C 9.433594 3.71875 8.953125 3.316406 8.960938 2.574219 L 12.800781 6.445312 "/>
<path style=" stroke:none;fill-rule:evenodd;fill:rgb(13.72549%,12.156863%,12.54902%);fill-opacity:1;" d="M 12.773438 8.105469 L 12.75 8.921875 C 11.5 7.589844 9.972656 6.253906 9.1875 5.050781 C 9.125 4.882812 8.902344 4.488281 8.960938 4.289062 L 12.773438 8.105469 "/>
<path style=" stroke:none;fill-rule:evenodd;fill:rgb(13.72549%,12.156863%,12.54902%);fill-opacity:1;" d="M 23.929688 13.617188 C 24.988281 14.800781 25.824219 16.472656 25.210938 18.085938 C 25.085938 18.398438 24.828125 18.683594 24.558594 18.910156 C 25.273438 20.296875 25.777344 21.867188 25.546875 23.570312 L 21.601562 20.4375 C 21.359375 20.328125 21.105469 20.210938 20.828125 20.261719 L 21.742188 21.027344 L 24.699219 23.433594 L 24.699219 23.46875 C 22.902344 23.746094 21.207031 23.265625 19.636719 22.730469 C 19.425781 22.871094 19.207031 22.964844 18.949219 22.992188 C 17.847656 23.023438 16.285156 23.007812 15.078125 23.007812 C 14.539062 22.933594 13.941406 22.746094 13.714844 22.167969 L 12.054688 19.347656 C 11.859375 18.921875 11.785156 18.371094 11.800781 17.867188 L 11.816406 11.550781 L 13.222656 11.550781 L 13.152344 10.890625 L 13.152344 6.816406 L 14.292969 7.953125 L 14.296875 5.367188 L 15.609375 6.679688 L 15.609375 4.277344 Z M 15.78125 4.691406 L 15.78125 6.980469 L 14.492188 5.824219 L 14.488281 8.421875 L 13.324219 7.25 L 13.320312 10.527344 C 13.320312 10.527344 13.289062 11.375 13.46875 11.695312 L 11.984375 11.695312 L 11.984375 18.230469 C 11.984375 18.726562 12.1875 19.226562 12.1875 19.226562 L 13.675781 21.730469 C 13.851562 21.972656 13.976562 22.285156 14.269531 22.429688 C 14.597656 22.605469 15.035156 22.5625 15.355469 22.417969 L 17.863281 20 C 18.257812 19.714844 18.796875 19.589844 19.265625 19.699219 C 18.890625 19.320312 18.351562 19.09375 18.109375 18.613281 C 18.117188 18.378906 18.097656 18.050781 18.097656 18.050781 C 18.117188 17.902344 18.226562 17.867188 18.359375 17.875 L 20.144531 17.867188 C 20.308594 17.875 20.398438 17.738281 20.417969 17.59375 C 20.417969 17.445312 20.398438 17.15625 20.398438 17.15625 L 19.386719 16.40625 L 19.378906 16.917969 C 19.414062 17.039062 19.570312 17.128906 19.632812 17.136719 L 20.164062 17.136719 L 20.164062 17.609375 C 20.164062 17.609375 19.25 17.648438 18.828125 17.523438 C 17.992188 17.152344 18.109375 16.203125 18.109375 15.382812 L 16.621094 14.234375 L 16.621094 13.609375 C 16.621094 13.609375 20.820312 16.917969 20.964844 17.035156 C 21.113281 17.152344 21.300781 17.136719 21.300781 17.136719 L 24.835938 17.136719 C 24.835938 17.136719 25.066406 17.136719 25.183594 16.769531 C 25.300781 16.40625 24.742188 14.878906 24.15625 14.140625 Z M 24.105469 19.109375 C 23.011719 19.601562 22.070312 18.734375 20.855469 19.164062 C 20.601562 19.253906 20.234375 19.382812 20.234375 19.382812 L 20.25 19.75 C 20.753906 19.78125 21.332031 19.730469 21.753906 20 L 24.648438 22.308594 L 25.171875 22.695312 C 25.152344 21.34375 24.816406 20.167969 24.105469 19.109375 Z M 20.953125 21.050781 C 20.777344 21.570312 20.207031 22.042969 19.722656 22.21875 C 20.929688 22.671875 22.199219 23.066406 23.542969 23.097656 L 20.953125 21.050781 "/>
<path style=" stroke:none;fill-rule:evenodd;fill:rgb(13.72549%,12.156863%,12.54902%);fill-opacity:1;" d="M 24.207031 14.703125 C 24.539062 15.144531 24.769531 15.617188 24.84375 16.15625 L 24.40625 15.71875 L 16.707031 7.214844 L 16.707031 8.585938 L 19.351562 11.300781 L 16.722656 9.183594 L 16.730469 10.378906 L 19.214844 12.929688 L 16.707031 10.898438 C 16.707031 11.453125 16.839844 11.644531 17.023438 11.964844 L 16.472656 11.964844 C 16.472656 11.964844 16.042969 11.632812 16.042969 10.878906 L 16.046875 5.585938 L 24.207031 14.703125 "/>
<path style=" stroke:none;fill-rule:evenodd;fill:rgb(13.72549%,12.156863%,12.54902%);fill-opacity:1;" d="M 15.519531 7.429688 L 15.511719 10.988281 C 15.511719 11.71875 15.941406 11.964844 15.941406 11.964844 L 15.222656 11.964844 C 15.222656 11.964844 14.855469 11.792969 14.855469 10.550781 L 14.851562 6.742188 L 15.519531 7.429688 "/>
<path style=" stroke:none;fill-rule:evenodd;fill:rgb(13.72549%,12.156863%,12.54902%);fill-opacity:1;" d="M 14.21875 8.636719 L 14.203125 11.089844 C 14.1875 11.929688 15.773438 12.992188 15.773438 12.992188 L 15.78125 13.539062 L 14.183594 12.226562 L 14.179688 13.28125 L 15.707031 14.5625 L 14.203125 13.703125 L 14.203125 14.492188 C 14.707031 14.9375 15.269531 15.332031 15.742188 15.769531 C 15.238281 15.457031 14.714844 15.199219 14.203125 14.917969 L 14.203125 15.566406 C 14.203125 15.566406 15.238281 16.40625 15.742188 16.84375 L 15.640625 16.824219 C 15.167969 16.523438 14.691406 16.238281 14.203125 15.984375 C 14.125 17.082031 15.855469 17.957031 15.855469 17.957031 C 15.195312 18.503906 14.511719 17.816406 14.003906 17.421875 C 13.683594 17.046875 13.554688 16.597656 13.515625 16.105469 L 13.515625 11.964844 L 13.953125 11.964844 C 13.78125 11.816406 13.632812 11.324219 13.582031 10.746094 L 13.585938 7.992188 L 14.21875 8.636719 "/>
<path style=" stroke:none;fill-rule:evenodd;fill:rgb(13.72549%,12.156863%,12.54902%);fill-opacity:1;" d="M 12.765625 11.964844 L 13.269531 12.375 L 13.273438 12.726562 L 12.8125 12.449219 L 12.8125 13.15625 L 13.269531 13.4375 L 13.273438 13.8125 L 12.8125 13.546875 L 12.8125 14.25 L 13.28125 14.539062 L 13.277344 14.910156 L 12.8125 14.625 L 12.8125 15.253906 L 13.273438 15.589844 L 13.273438 15.976562 L 12.8125 15.695312 L 12.8125 16.414062 L 13.292969 16.761719 C 13.289062 17 13.566406 17.28125 13.566406 17.28125 L 12.8125 16.84375 L 12.8125 17.464844 L 15.167969 19.277344 C 15.167969 19.277344 13.574219 18.390625 12.835938 17.960938 C 12.816406 18.398438 13.085938 18.792969 13.429688 19.066406 L 15.117188 20.363281 C 15.117188 20.363281 14.96875 20.460938 14.902344 20.503906 C 13.976562 20.554688 13.40625 19.730469 12.691406 19.261719 C 12.382812 18.992188 12.328125 18.5625 12.21875 18.214844 L 12.222656 11.964844 L 12.765625 11.964844 "/>
<path style=" stroke:none;fill-rule:evenodd;fill:rgb(13.72549%,12.156863%,12.54902%);fill-opacity:1;" d="M 12.8125 21.945312 C 12.898438 22.027344 12.9375 22.128906 12.9375 22.246094 C 12.9375 22.367188 12.898438 22.46875 12.8125 22.554688 C 12.730469 22.636719 12.628906 22.679688 12.511719 22.679688 C 12.390625 22.679688 12.289062 22.636719 12.207031 22.554688 C 12.125 22.46875 12.082031 22.367188 12.082031 22.246094 C 12.082031 22.128906 12.125 22.027344 12.207031 21.945312 C 12.292969 21.859375 12.390625 21.820312 12.511719 21.820312 C 12.628906 21.820312 12.730469 21.859375 12.8125 21.945312 Z M 12.863281 21.898438 C 12.765625 21.800781 12.648438 21.75 12.511719 21.75 C 12.375 21.75 12.257812 21.800781 12.160156 21.898438 C 12.0625 21.992188 12.015625 22.109375 12.015625 22.246094 C 12.015625 22.386719 12.0625 22.503906 12.160156 22.601562 C 12.253906 22.699219 12.371094 22.746094 12.511719 22.746094 C 12.648438 22.746094 12.765625 22.699219 12.863281 22.601562 C 12.960938 22.503906 13.007812 22.386719 13.007812 22.246094 C 13.007812 22.109375 12.960938 21.992188 12.863281 21.898438 Z M 12.585938 22.226562 C 12.5625 22.234375 12.535156 22.238281 12.492188 22.238281 L 12.40625 22.238281 L 12.40625 22.039062 L 12.488281 22.039062 C 12.542969 22.039062 12.582031 22.046875 12.605469 22.058594 C 12.628906 22.074219 12.640625 22.101562 12.640625 22.140625 C 12.640625 22.179688 12.621094 22.210938 12.585938 22.226562 Z M 12.308594 22.519531 L 12.40625 22.519531 L 12.40625 22.304688 L 12.480469 22.304688 C 12.53125 22.304688 12.570312 22.308594 12.589844 22.320312 C 12.625 22.34375 12.640625 22.382812 12.640625 22.449219 L 12.640625 22.492188 L 12.644531 22.507812 C 12.644531 22.511719 12.644531 22.511719 12.644531 22.515625 C 12.644531 22.515625 12.644531 22.519531 12.644531 22.519531 L 12.734375 22.519531 L 12.730469 22.511719 C 12.730469 22.507812 12.726562 22.5 12.726562 22.484375 C 12.726562 22.46875 12.726562 22.457031 12.726562 22.445312 L 12.726562 22.402344 C 12.726562 22.375 12.714844 22.347656 12.695312 22.320312 C 12.675781 22.289062 12.644531 22.273438 12.601562 22.265625 C 12.636719 22.261719 12.664062 22.25 12.679688 22.238281 C 12.71875 22.214844 12.734375 22.179688 12.734375 22.132812 C 12.734375 22.0625 12.707031 22.015625 12.648438 21.992188 C 12.617188 21.980469 12.570312 21.972656 12.5 21.972656 L 12.308594 21.972656 L 12.308594 22.519531 "/>
</g>
</svg>
