<?xml version="1.0" encoding="UTF-8"?>
<svg xmlns="http://www.w3.org/2000/svg" xmlns:xlink="http://www.w3.org/1999/xlink" width="35pt" height="25pt" viewBox="0 0 35 25" version="1.1">
<g id="surface1">
<path style=" stroke:none;fill-rule:evenodd;fill:rgb(100%,100%,100%);fill-opacity:1;" d="M 4.75 25 L 29.75 25 L 29.75 0 L 4.75 0 Z M 4.75 25 "/>
<path style=" stroke:none;fill-rule:evenodd;fill:rgb(95.294118%,39.607843%,17.254902%);fill-opacity:1;" d="M 9.183594 17.304688 L 5.851562 18.136719 L 13.488281 3.503906 C 14.125 2.449219 15.597656 1.421875 16.984375 1.449219 C 18.707031 1.484375 21.484375 1.449219 21.816406 1.449219 C 23.234375 1.449219 24.039062 2.5625 24.316406 3.058594 C 24.59375 3.558594 25.507812 5.199219 25.507812 5.199219 C 26.730469 5.144531 27.035156 5.671875 27.257812 6.058594 C 27.566406 6.597656 28.648438 8.753906 28.648438 8.753906 L 28.148438 9 C 27.757812 8.445312 27.453125 7.835938 26.703125 7.835938 C 26.039062 7.835938 18.875 7.835938 18.875 7.835938 L 16.929688 5.226562 L 24.773438 5.226562 C 24.511719 4.699219 24.148438 4.171875 23.316406 4.171875 C 22.484375 4.171875 16.929688 4.171875 16.929688 4.171875 C 16.042969 4.171875 15.765625 4.949219 15.597656 5.171875 C 15.429688 5.394531 9.574219 16.527344 9.574219 16.527344 C 10.574219 16.304688 11.988281 15.941406 11.988281 15.941406 C 12.960938 15.804688 14.210938 16.164062 14.710938 16.609375 C 15.210938 17.054688 20.207031 21.078125 20.207031 21.078125 C 21.34375 22.050781 22.398438 22.566406 24.636719 22.023438 C 24.746094 22.425781 24.816406 22.605469 24.816406 22.605469 L 21.429688 23.4375 C 20.152344 23.828125 18.375 23.105469 17.875 22.660156 C 17.375 22.21875 12.488281 18.21875 12.488281 18.21875 C 11.378906 17.277344 10.683594 17.082031 9.183594 17.304688 "/>
<path style=" stroke:none;fill-rule:evenodd;fill:rgb(95.294118%,39.607843%,17.254902%);fill-opacity:1;" d="M 19.207031 19.609375 L 20.652344 20.71875 C 20.652344 20.71875 21.152344 21.136719 21.566406 21.300781 C 21.734375 20.636719 24.148438 10.222656 24.148438 10.222656 C 24.371094 9.335938 25.175781 9.113281 25.507812 9.058594 C 25.59375 8.753906 25.648438 8.445312 25.648438 8.445312 L 22.871094 8.445312 C 22.261719 8.445312 21.679688 9.222656 21.59375 9.558594 C 21.585938 9.59375 19.207031 19.609375 19.207031 19.609375 "/>
<path style=" stroke:none;fill-rule:evenodd;fill:rgb(95.294118%,39.607843%,17.254902%);fill-opacity:1;" d="M 9.8125 19.398438 L 9.703125 19.398438 L 9.703125 18.890625 L 9.894531 18.890625 C 10.027344 18.890625 10.101562 18.925781 10.101562 19.042969 C 10.101562 19.136719 10.046875 19.171875 9.980469 19.175781 L 10.109375 19.398438 L 9.980469 19.398438 L 9.863281 19.183594 L 9.8125 19.183594 Z M 9.910156 19.097656 C 9.957031 19.097656 9.988281 19.089844 9.988281 19.03125 C 9.988281 18.980469 9.929688 18.976562 9.890625 18.976562 L 9.8125 18.976562 L 9.8125 19.097656 Z M 9.890625 19.617188 C 9.640625 19.617188 9.417969 19.445312 9.417969 19.144531 C 9.417969 18.84375 9.640625 18.671875 9.890625 18.671875 C 10.140625 18.671875 10.367188 18.84375 10.367188 19.144531 C 10.367188 19.445312 10.140625 19.617188 9.890625 19.617188 Z M 9.890625 18.78125 C 9.703125 18.78125 9.550781 18.925781 9.550781 19.144531 C 9.550781 19.363281 9.703125 19.507812 9.890625 19.507812 C 10.074219 19.507812 10.230469 19.363281 10.230469 19.144531 C 10.230469 18.925781 10.074219 18.78125 9.890625 18.78125 "/>
</g>
</svg>
