<?xml version="1.0" encoding="UTF-8"?>
<svg xmlns="http://www.w3.org/2000/svg" xmlns:xlink="http://www.w3.org/1999/xlink" width="35pt" height="25pt" viewBox="0 0 35 25" version="1.1">
<g id="surface1">
<path style=" stroke:none;fill-rule:nonzero;fill:rgb(1.568627%,10.196078%,60.784314%);fill-opacity:1;" d="M 31.996094 14.808594 L 31.996094 14.777344 C 33.394531 14.515625 34.6875 13.585938 34.6875 12.050781 C 34.6875 9.859375 32.722656 8.804688 30.375 8.789062 L 24.925781 8.738281 L 24.925781 5.597656 C 24.925781 5.113281 25.117188 4.832031 25.605469 4.832031 L 27.558594 4.832031 L 27.558594 3.234375 L 18.707031 3.234375 L 18.707031 4.832031 L 20.921875 4.832031 C 21.410156 4.832031 21.601562 5.113281 21.601562 5.597656 L 21.601562 8.738281 L 10.316406 8.738281 L 10.316406 10.449219 L 12.558594 10.449219 C 13.050781 10.449219 13.246094 11.167969 13.246094 11.65625 L 13.246094 14.226562 C 9.039062 14.226562 8.5 12.125 8.5 10.339844 L 8.5 5.597656 C 8.5 5.113281 9.015625 4.832031 9.503906 4.832031 L 11.269531 4.832031 L 11.269531 3.234375 L 0 3.234375 L 0 4.832031 L 2.152344 4.832031 C 2.640625 4.832031 2.832031 5.113281 2.832031 5.597656 L 2.832031 10.265625 C 2.832031 14.109375 6.816406 15.613281 13.246094 15.613281 L 13.246094 18.824219 C 13.246094 19.332031 12.945312 19.601562 12.46875 19.601562 L 10.53125 19.601562 L 10.53125 21.203125 L 30.253906 21.246094 C 30.375 21.246094 35 21.488281 35 17.863281 C 35 16.085938 33.652344 15.035156 31.996094 14.808594 Z M 24.925781 11.207031 L 24.925781 10.539062 L 27.929688 10.539062 C 29.425781 10.539062 30.449219 10.925781 30.449219 12.292969 C 30.449219 13.507812 29.140625 14.167969 27.929688 14.023438 L 23.472656 14.023438 C 24.484375 13.269531 24.925781 12.136719 24.925781 11.207031 Z M 18.824219 10.539062 L 21.601562 10.539062 L 21.601562 11.425781 C 21.601562 12.515625 20.921875 14.015625 18.824219 14.015625 Z M 28.050781 19.511719 L 18.824219 19.511719 L 18.824219 15.730469 L 28.050781 15.730469 C 29.257812 15.730469 30.601562 16.082031 30.601562 17.914062 C 30.601562 19.386719 28.777344 19.511719 28.050781 19.511719 Z M 28.050781 19.511719 "/>
</g>
</svg>
