<?xml version="1.0" encoding="UTF-8"?>
<svg xmlns="http://www.w3.org/2000/svg" xmlns:xlink="http://www.w3.org/1999/xlink" width="35pt" height="25pt" viewBox="0 0 35 25" version="1.1">
<g id="surface1">
<path style=" stroke:none;fill-rule:nonzero;fill:rgb(55.294118%,19.215686%,28.627451%);fill-opacity:1;" d="M 12.359375 2.769531 L 18.226562 0.171875 L 30.773438 0.171875 L 34.328125 2.769531 L 31.621094 8.671875 L 22.386719 8.671875 L 24.238281 4.546875 L 20.851562 4.546875 L 15.949219 15.464844 L 19.339844 15.464844 L 21.242188 11.226562 L 30.671875 11.226562 L 27.945312 17.265625 L 22.09375 19.855469 L 9.398438 19.855469 L 5.878906 17.214844 L 6.726562 15.324219 L 10.6875 15.324219 L 10.941406 14.78125 L 1.847656 14.78125 L 2.394531 13.601562 L 7.5 13.601562 L 8.230469 11.976562 L 14.851562 11.976562 L 15.074219 11.484375 L 1.214844 11.484375 L 1.980469 9.777344 L 9.222656 9.777344 L 10.992188 5.816406 L 13.667969 5.816406 L 13.886719 5.300781 L 4.515625 5.300781 L 5.042969 4.128906 L 11.75 4.128906 Z M 12.359375 2.769531 "/>
<path style=" stroke:none;fill-rule:nonzero;fill:rgb(55.294118%,19.215686%,28.627451%);fill-opacity:1;" d="M 0.910156 21.832031 L 29.171875 21.832031 L 28.257812 23.863281 L 0 23.863281 Z M 0.910156 21.832031 "/>
<path style=" stroke:none;fill-rule:nonzero;fill:rgb(99.215686%,82.745098%,16.862745%);fill-opacity:1;" d="M 0.683594 24.214844 L 0.371094 24.855469 L 28.941406 24.855469 L 30.300781 21.832031 L 29.582031 21.832031 L 28.511719 24.214844 Z M 0.683594 24.214844 "/>
<path style=" stroke:none;fill-rule:nonzero;fill:rgb(99.215686%,82.745098%,16.862745%);fill-opacity:1;" d="M 30.707031 12.207031 L 31.523438 12.207031 L 28.832031 18.203125 L 22.582031 20.984375 L 9.03125 20.984375 L 5.785156 18.535156 L 6.085938 17.859375 L 9.164062 20.167969 L 22.375 20.167969 L 28.210938 17.59375 Z M 30.707031 12.207031 "/>
<path style=" stroke:none;fill-rule:nonzero;fill:rgb(99.215686%,82.745098%,16.862745%);fill-opacity:1;" d="M 6.726562 15.324219 L 2.398438 15.324219 L 2.144531 15.898438 L 6.46875 15.898438 Z M 6.726562 15.324219 "/>
<path style=" stroke:none;fill-rule:nonzero;fill:rgb(99.215686%,82.745098%,16.862745%);fill-opacity:1;" d="M 1.886719 11.976562 L 8.230469 11.976562 L 7.933594 12.628906 L 1.566406 12.628906 Z M 1.886719 11.976562 "/>
<path style=" stroke:none;fill-rule:nonzero;fill:rgb(99.215686%,82.745098%,16.862745%);fill-opacity:1;" d="M 4.828125 5.816406 L 4.550781 6.417969 L 10.722656 6.417969 L 10.992188 5.816406 Z M 4.828125 5.816406 "/>
<path style=" stroke:none;fill-rule:nonzero;fill:rgb(99.215686%,82.745098%,16.862745%);fill-opacity:1;" d="M 16.441406 15.464844 L 17.347656 15.464844 L 21.726562 5.707031 L 23.71875 5.707031 L 24.066406 4.941406 L 21.195312 4.941406 Z M 16.441406 15.464844 "/>
<path style=" stroke:none;fill-rule:nonzero;fill:rgb(99.215686%,82.745098%,16.862745%);fill-opacity:1;" d="M 22.972656 9.019531 L 22.628906 9.773438 L 32.226562 9.773438 L 35 3.910156 L 34.496094 3.53125 L 31.882812 9.019531 Z M 22.972656 9.019531 "/>
<path style=" stroke:none;fill-rule:nonzero;fill:rgb(99.215686%,82.745098%,16.862745%);fill-opacity:1;" d="M 30.683594 24.027344 C 30.648438 24.007812 30.59375 24 30.515625 24 L 30.402344 24 L 30.402344 24.277344 L 30.523438 24.277344 C 30.582031 24.277344 30.625 24.273438 30.652344 24.261719 C 30.707031 24.238281 30.734375 24.199219 30.734375 24.140625 C 30.734375 24.085938 30.714844 24.046875 30.683594 24.027344 M 30.535156 23.90625 C 30.632812 23.90625 30.703125 23.914062 30.746094 23.933594 C 30.824219 23.964844 30.867188 24.03125 30.867188 24.128906 C 30.867188 24.199219 30.839844 24.25 30.789062 24.28125 C 30.765625 24.300781 30.726562 24.3125 30.679688 24.320312 C 30.738281 24.328125 30.785156 24.355469 30.8125 24.394531 C 30.839844 24.433594 30.851562 24.476562 30.851562 24.515625 L 30.851562 24.570312 C 30.851562 24.589844 30.855469 24.609375 30.855469 24.628906 C 30.855469 24.648438 30.859375 24.660156 30.863281 24.667969 L 30.867188 24.679688 L 30.738281 24.679688 C 30.738281 24.675781 30.738281 24.671875 30.738281 24.671875 C 30.738281 24.667969 30.734375 24.664062 30.734375 24.660156 L 30.734375 24.574219 C 30.734375 24.488281 30.707031 24.425781 30.660156 24.398438 C 30.632812 24.382812 30.582031 24.375 30.507812 24.375 L 30.402344 24.375 L 30.402344 24.679688 L 30.265625 24.679688 L 30.265625 23.90625 Z M 30.121094 23.867188 C 30.003906 23.984375 29.945312 24.128906 29.945312 24.292969 C 29.945312 24.464844 30.003906 24.605469 30.121094 24.726562 C 30.238281 24.84375 30.378906 24.902344 30.546875 24.902344 C 30.714844 24.902344 30.859375 24.84375 30.976562 24.726562 C 31.09375 24.605469 31.152344 24.464844 31.152344 24.292969 C 31.152344 24.128906 31.09375 23.984375 30.976562 23.867188 C 30.859375 23.746094 30.714844 23.6875 30.546875 23.6875 C 30.382812 23.6875 30.238281 23.746094 30.121094 23.867188 M 31.046875 24.792969 C 30.910156 24.929688 30.742188 25 30.546875 25 C 30.355469 25 30.1875 24.929688 30.050781 24.792969 C 29.914062 24.65625 29.847656 24.488281 29.847656 24.292969 C 29.847656 24.101562 29.914062 23.933594 30.054688 23.796875 C 30.191406 23.660156 30.355469 23.59375 30.546875 23.59375 C 30.742188 23.59375 30.910156 23.660156 31.046875 23.796875 C 31.183594 23.933594 31.253906 24.097656 31.253906 24.292969 C 31.253906 24.488281 31.183594 24.65625 31.046875 24.792969 "/>
</g>
</svg>
