<?xml version="1.0" encoding="UTF-8"?>
<svg xmlns="http://www.w3.org/2000/svg" xmlns:xlink="http://www.w3.org/1999/xlink" width="35pt" height="25pt" viewBox="0 0 35 25" version="1.1">
<g id="surface1">
<path style=" stroke:none;fill-rule:nonzero;fill:rgb(99.607843%,99.607843%,99.607843%);fill-opacity:1;" d="M 0 0.464844 L 35 0.464844 L 35 25 L 0 25 Z M 0 0.464844 "/>
<path style=" stroke:none;fill-rule:nonzero;fill:rgb(23.921569%,23.921569%,23.921569%);fill-opacity:1;" d="M 9.101562 1.644531 C 16.0625 1.644531 23.023438 1.644531 29.984375 1.644531 C 29.988281 4.253906 29.984375 6.863281 29.984375 9.472656 C 29.160156 9.472656 28.332031 9.472656 27.507812 9.472656 C 27.304688 8.53125 27.105469 7.574219 26.664062 6.707031 C 26.316406 5.996094 25.785156 5.328125 25.023438 5.039062 C 23.746094 4.527344 22.34375 4.46875 20.980469 4.421875 C 20.375 4.417969 19.761719 4.410156 19.164062 4.539062 C 19.144531 4.660156 19.128906 4.777344 19.128906 4.898438 C 19.132812 6.421875 19.128906 7.941406 19.128906 9.460938 C 19.507812 9.867188 19.773438 10.355469 20.007812 10.851562 C 20.523438 10.777344 21.0625 10.644531 21.46875 10.300781 C 21.867188 9.917969 22.105469 9.402344 22.304688 8.894531 C 22.589844 8.167969 22.734375 7.394531 22.902344 6.632812 C 23.726562 6.636719 24.550781 6.636719 25.375 6.636719 C 25.375 10.570312 25.375 14.503906 25.375 18.441406 C 24.53125 18.441406 23.691406 18.4375 22.851562 18.445312 C 22.714844 17.519531 22.609375 16.574219 22.246094 15.703125 C 22.085938 15.308594 21.878906 14.921875 21.570312 14.621094 C 21.226562 14.296875 20.769531 14.136719 20.320312 14.015625 C 20.125 14.960938 19.71875 15.863281 19.132812 16.628906 C 19.128906 17.847656 19.128906 19.0625 19.132812 20.277344 C 19.140625 20.417969 19.144531 20.585938 19.25 20.6875 C 19.578125 20.828125 19.945312 20.84375 20.300781 20.871094 C 21.398438 20.921875 22.503906 20.867188 23.582031 20.652344 C 24.394531 20.488281 25.1875 20.222656 25.898438 19.792969 C 26.671875 19.324219 27.300781 18.652344 27.832031 17.929688 C 28.359375 17.203125 28.789062 16.414062 29.183594 15.609375 C 30.023438 15.597656 30.863281 15.609375 31.703125 15.605469 C 31.140625 18.289062 30.585938 20.976562 30.027344 23.664062 C 23.054688 23.660156 16.078125 23.664062 9.101562 23.660156 C 9.101562 22.808594 9.101562 21.953125 9.101562 21.097656 C 9.898438 21.0625 10.703125 21.089844 11.480469 20.886719 C 11.082031 20.910156 10.832031 20.558594 10.621094 20.273438 C 10.496094 20.410156 10.367188 20.566406 10.175781 20.617188 C 10.015625 20.660156 9.851562 20.675781 9.6875 20.707031 C 9.679688 20.5 9.707031 20.292969 9.671875 20.089844 C 9.59375 19.808594 9.390625 19.542969 9.105469 19.449219 C 8.804688 19.339844 8.449219 19.324219 8.160156 19.484375 C 7.785156 19.6875 7.433594 19.933594 7.054688 20.128906 C 6.996094 19.871094 6.882812 19.617188 6.914062 19.347656 C 6.925781 19.183594 7.003906 19.03125 7.078125 18.882812 C 6.367188 19.105469 5.878906 19.703125 5.269531 20.09375 C 4.914062 20.328125 4.515625 20.5 4.183594 20.769531 C 4.074219 20.683594 3.960938 20.601562 3.851562 20.515625 C 3.78125 20.453125 3.710938 20.390625 3.640625 20.332031 C 3.824219 20.007812 3.964844 19.65625 4.09375 19.304688 C 3.859375 19.507812 3.585938 19.648438 3.316406 19.796875 C 3.117188 19.902344 2.851562 19.828125 2.730469 19.636719 C 2.601562 19.457031 2.652344 19.21875 2.75 19.035156 C 2.859375 18.894531 2.988281 18.765625 3.078125 18.613281 C 2.742188 18.8125 2.402344 19.011719 2.03125 19.140625 C 1.804688 19.207031 1.550781 19.09375 1.4375 18.886719 C 1.34375 18.71875 1.363281 18.511719 1.417969 18.332031 C 1.308594 18.324219 1.195312 18.332031 1.089844 18.304688 C 0.960938 18.171875 0.886719 17.984375 0.914062 17.796875 C 0.992188 17.03125 1.078125 16.257812 1.277344 15.511719 C 1.398438 15.042969 1.570312 14.589844 1.726562 14.128906 C 1.585938 14.117188 1.429688 14.09375 1.324219 13.988281 C 1.15625 13.839844 1.136719 13.589844 1.191406 13.382812 C 1.453125 12.53125 1.808594 11.695312 2.304688 10.953125 C 2.628906 10.46875 2.984375 10.007812 3.398438 9.597656 C 3.367188 9.492188 3.324219 9.386719 3.359375 9.277344 C 3.402344 9.113281 3.546875 9.011719 3.617188 8.863281 C 3.804688 8.15625 4.195312 7.5 4.75 7.015625 C 4.984375 6.8125 5.261719 6.65625 5.5625 6.566406 C 5.488281 6.242188 5.703125 5.957031 5.933594 5.761719 C 6.242188 5.507812 6.636719 5.398438 7.015625 5.296875 C 7.855469 5.082031 8.722656 4.933594 9.589844 4.945312 C 10.425781 4.9375 11.246094 5.117188 12.054688 5.3125 C 12.03125 5.082031 12 4.828125 11.832031 4.648438 C 11.667969 4.488281 11.4375 4.421875 11.21875 4.378906 C 10.519531 4.242188 9.808594 4.242188 9.101562 4.199219 C 9.101562 3.347656 9.101562 2.496094 9.101562 1.644531 Z M 9.101562 1.644531 "/>
<path style=" stroke:none;fill-rule:nonzero;fill:rgb(99.607843%,99.607843%,99.607843%);fill-opacity:1;" d="M 9.625 2.171875 C 16.238281 2.167969 22.851562 2.167969 29.460938 2.171875 C 29.460938 4.429688 29.464844 6.6875 29.460938 8.949219 C 28.949219 8.949219 28.4375 8.945312 27.929688 8.949219 C 27.71875 7.9375 27.433594 6.921875 26.890625 6.035156 C 26.550781 5.472656 26.082031 4.96875 25.484375 4.671875 C 24.914062 4.386719 24.289062 4.230469 23.660156 4.121094 C 22.804688 3.972656 21.9375 3.921875 21.074219 3.902344 C 20.441406 3.890625 19.804688 3.882812 19.183594 4 C 19.023438 4.035156 18.839844 4.074219 18.746094 4.222656 C 18.644531 4.390625 18.613281 4.597656 18.605469 4.796875 C 18.605469 6.195312 18.609375 7.597656 18.605469 9 C 18.480469 8.921875 18.351562 8.84375 18.226562 8.765625 C 18.234375 7.472656 18.226562 6.183594 18.230469 4.894531 C 18.238281 4.566406 18.28125 4.21875 18.488281 3.953125 C 18.648438 3.742188 18.921875 3.675781 19.171875 3.625 C 19.625 3.546875 20.085938 3.527344 20.542969 3.53125 C 21.488281 3.523438 22.433594 3.570312 23.371094 3.699219 C 24.148438 3.816406 24.925781 3.988281 25.636719 4.332031 C 26.285156 4.652344 26.800781 5.191406 27.179688 5.796875 C 27.707031 6.644531 28.011719 7.605469 28.222656 8.570312 C 28.511719 8.570312 28.796875 8.570312 29.085938 8.570312 C 29.085938 6.5625 29.085938 4.554688 29.085938 2.550781 C 22.726562 2.550781 16.363281 2.550781 10.003906 2.550781 C 10.003906 2.816406 10.003906 3.078125 10.003906 3.34375 C 10.582031 3.390625 11.171875 3.421875 11.734375 3.589844 C 12.113281 3.707031 12.472656 3.941406 12.675781 4.289062 C 12.90625 4.675781 12.96875 5.144531 12.941406 5.589844 C 12.816406 5.546875 12.695312 5.503906 12.574219 5.464844 C 12.578125 5.101562 12.53125 4.710938 12.308594 4.40625 C 12.128906 4.148438 11.835938 4 11.535156 3.917969 C 10.914062 3.753906 10.265625 3.738281 9.625 3.695312 C 9.628906 3.1875 9.625 2.679688 9.625 2.171875 Z M 9.625 2.171875 "/>
<path style=" stroke:none;fill-rule:nonzero;fill:rgb(18.039216%,38.823529%,23.529412%);fill-opacity:1;" d="M 10.003906 2.550781 C 16.363281 2.550781 22.726562 2.550781 29.085938 2.550781 C 29.085938 4.554688 29.085938 6.5625 29.085938 8.570312 C 28.796875 8.570312 28.511719 8.570312 28.222656 8.570312 C 28.011719 7.605469 27.707031 6.644531 27.179688 5.796875 C 26.800781 5.191406 26.285156 4.652344 25.636719 4.332031 C 24.925781 3.988281 24.148438 3.816406 23.371094 3.699219 C 22.433594 3.570312 21.488281 3.523438 20.542969 3.53125 C 20.085938 3.527344 19.625 3.546875 19.171875 3.625 C 18.921875 3.675781 18.648438 3.742188 18.488281 3.953125 C 18.28125 4.21875 18.238281 4.566406 18.230469 4.894531 C 18.226562 6.183594 18.234375 7.472656 18.226562 8.765625 C 18.191406 8.78125 18.121094 8.8125 18.085938 8.828125 C 17.613281 8.585938 17.113281 8.394531 16.605469 8.242188 C 16.507812 8.222656 16.453125 8.128906 16.394531 8.058594 C 16.277344 7.886719 16.078125 7.800781 15.945312 7.644531 C 15.140625 6.734375 14.0625 6.113281 12.925781 5.707031 C 12.929688 5.679688 12.9375 5.617188 12.941406 5.589844 C 12.96875 5.144531 12.90625 4.675781 12.675781 4.289062 C 12.472656 3.941406 12.113281 3.707031 11.734375 3.589844 C 11.171875 3.421875 10.582031 3.390625 10.003906 3.34375 C 10.003906 3.078125 10.003906 2.816406 10.003906 2.550781 Z M 10.003906 2.550781 "/>
<path style=" stroke:none;fill-rule:nonzero;fill:rgb(99.607843%,99.607843%,99.607843%);fill-opacity:1;" d="M 6.761719 5.488281 C 7.570312 5.257812 8.402344 5.097656 9.246094 5.066406 C 9.96875 5.023438 10.691406 5.128906 11.394531 5.277344 C 11.914062 5.390625 12.425781 5.53125 12.925781 5.707031 C 14.0625 6.113281 15.140625 6.734375 15.945312 7.644531 C 16.078125 7.800781 16.277344 7.886719 16.394531 8.058594 C 16.453125 8.128906 16.507812 8.222656 16.605469 8.242188 C 17.113281 8.394531 17.613281 8.585938 18.085938 8.828125 C 18.917969 9.230469 19.503906 10 19.867188 10.832031 C 20.316406 11.816406 20.414062 12.941406 20.199219 13.996094 C 19.980469 15.125 19.433594 16.183594 18.648438 17.019531 C 18.457031 17.222656 18.203125 17.015625 17.992188 16.972656 C 17.90625 16.875 17.84375 16.753906 17.835938 16.621094 C 17.804688 16.261719 17.910156 15.914062 17.949219 15.558594 C 17.980469 15.355469 17.84375 15.183594 17.761719 15.011719 C 17.394531 14.980469 17.023438 14.9375 16.652344 14.929688 C 16.128906 14.96875 15.605469 15.042969 15.085938 15.132812 C 14.457031 15.199219 13.886719 14.765625 13.253906 14.871094 C 13.113281 15.03125 12.925781 15.171875 12.875 15.390625 C 12.828125 15.613281 12.832031 15.839844 12.804688 16.066406 C 12.949219 16.179688 13.132812 16.136719 13.292969 16.09375 C 13.511719 16.039062 13.644531 15.84375 13.808594 15.703125 C 13.855469 15.933594 13.953125 16.167969 13.910156 16.410156 C 13.859375 16.675781 13.660156 16.878906 13.4375 17.019531 C 13.355469 17.066406 13.269531 17.113281 13.1875 17.164062 C 13.566406 17.359375 14.042969 17.378906 14.4375 17.214844 C 14.722656 17.097656 14.992188 16.953125 15.273438 16.832031 C 14.988281 17.226562 14.75 17.664062 14.417969 18.023438 C 14.273438 18.15625 14.085938 18.234375 13.90625 18.316406 C 14.136719 18.292969 14.363281 18.269531 14.589844 18.265625 C 14.660156 18.398438 14.699219 18.546875 14.746094 18.6875 C 14.347656 18.9375 13.949219 19.1875 13.507812 19.359375 C 13.316406 19.417969 13.117188 19.445312 12.917969 19.476562 C 12.992188 19.539062 13.066406 19.601562 13.144531 19.660156 C 13.40625 19.8125 13.695312 19.910156 13.976562 20.011719 C 13.949219 20.164062 13.917969 20.3125 13.875 20.460938 L 13.847656 20.472656 C 13.222656 20.429688 12.546875 20.570312 11.976562 20.242188 C 11.957031 20.59375 11.5625 20.871094 11.234375 20.726562 C 10.953125 20.585938 10.8125 20.289062 10.597656 20.078125 C 10.5 20.21875 10.410156 20.375 10.253906 20.457031 C 10.117188 20.53125 9.957031 20.539062 9.804688 20.566406 C 9.824219 20.296875 9.820312 20.003906 9.660156 19.769531 C 9.40625 19.316406 8.820312 19.179688 8.347656 19.285156 C 7.90625 19.433594 7.546875 19.75 7.128906 19.949219 C 7.078125 19.738281 6.988281 19.523438 7.035156 19.304688 C 7.074219 19.085938 7.210938 18.910156 7.328125 18.726562 C 6.640625 18.796875 6.117188 19.289062 5.609375 19.703125 C 5.148438 20.097656 4.574219 20.316406 4.097656 20.6875 C 4.027344 20.628906 3.953125 20.570312 3.882812 20.511719 C 4.191406 20.273438 4.542969 20.097656 4.875 19.898438 C 5.375 19.59375 5.773438 19.15625 6.277344 18.859375 C 6.65625 18.613281 7.121094 18.46875 7.574219 18.566406 C 7.460938 18.9375 7.046875 19.21875 7.160156 19.644531 C 7.492188 19.457031 7.800781 19.214844 8.167969 19.101562 C 8.5625 18.996094 8.988281 19.070312 9.339844 19.265625 C 9.710938 19.492188 9.929688 19.917969 9.941406 20.34375 C 10.15625 20.253906 10.246094 20.027344 10.394531 19.867188 C 10.445312 19.808594 10.519531 19.851562 10.566406 19.890625 C 10.800781 20.0625 10.929688 20.335938 11.15625 20.515625 C 11.3125 20.648438 11.582031 20.519531 11.617188 20.324219 C 11.652344 20.113281 11.605469 19.898438 11.59375 19.6875 C 11.796875 20.023438 12.167969 20.226562 12.558594 20.253906 C 12.96875 20.28125 13.382812 20.257812 13.796875 20.269531 C 13.425781 20.113281 13.011719 20.015625 12.710938 19.734375 C 12.574219 19.609375 12.5 19.433594 12.488281 19.253906 C 13.253906 19.371094 13.914062 18.894531 14.527344 18.523438 C 14.019531 18.554688 13.496094 18.632812 13.003906 18.476562 C 12.902344 18.414062 12.957031 18.28125 12.949219 18.1875 C 13.3125 18.164062 13.699219 18.1875 14.019531 17.988281 C 14.234375 17.859375 14.363281 17.636719 14.496094 17.433594 C 13.992188 17.683594 13.402344 17.601562 12.898438 17.40625 C 12.75 17.378906 12.644531 17.265625 12.609375 17.125 C 12.917969 17.007812 13.261719 16.894531 13.476562 16.621094 C 13.578125 16.5 13.585938 16.335938 13.585938 16.1875 C 13.183594 16.46875 12.648438 16.445312 12.199219 16.308594 C 12.03125 15.914062 12.183594 15.464844 12.425781 15.136719 C 12.625 14.863281 12.953125 14.691406 13.289062 14.664062 C 13.859375 14.609375 14.371094 14.984375 14.9375 14.9375 C 15.457031 14.84375 15.976562 14.78125 16.5 14.734375 C 16.914062 14.746094 17.332031 14.730469 17.742188 14.773438 C 17.765625 14.753906 17.789062 14.730469 17.816406 14.707031 C 17.976562 14.980469 18.09375 15.28125 18.121094 15.601562 C 18.097656 15.933594 17.953125 16.242188 17.949219 16.578125 C 17.933594 16.703125 18.035156 16.792969 18.136719 16.84375 C 18.113281 16.738281 18.054688 16.640625 18.058594 16.53125 C 18.085938 16.214844 18.273438 15.925781 18.257812 15.601562 C 18.242188 14.992188 17.867188 14.433594 17.371094 14.101562 C 17.042969 13.90625 16.699219 13.695312 16.3125 13.671875 C 15.878906 13.652344 15.449219 13.757812 15.046875 13.902344 C 14.734375 14.019531 14.40625 14.101562 14.070312 14.128906 C 13.640625 14.027344 13.3125 13.648438 12.851562 13.636719 C 12.496094 13.652344 12.164062 13.792969 11.832031 13.90625 C 11.71875 13.9375 11.578125 13.988281 11.472656 13.914062 C 11.28125 13.8125 11.140625 13.636719 10.953125 13.53125 C 10.8125 13.574219 10.90625 13.714844 10.984375 13.773438 C 10.789062 13.796875 10.601562 13.859375 10.429688 13.949219 C 10.433594 13.972656 10.445312 14.027344 10.449219 14.054688 C 10.660156 13.980469 10.871094 13.886719 11.09375 13.847656 C 11.242188 13.957031 11.367188 14.101562 11.515625 14.214844 C 11.570312 14.25 11.640625 14.292969 11.710938 14.269531 C 12.0625 14.148438 12.371094 13.902344 12.75 13.851562 C 13.214844 13.863281 13.582031 14.199219 14.019531 14.300781 C 14.441406 14.289062 14.847656 14.144531 15.238281 13.992188 C 15.585938 13.878906 15.949219 13.792969 16.3125 13.8125 C 16.875 13.90625 17.386719 14.222656 17.761719 14.648438 C 17.703125 14.664062 17.644531 14.699219 17.585938 14.671875 C 17.242188 14.605469 16.894531 14.609375 16.550781 14.582031 C 15.996094 14.605469 15.445312 14.6875 14.898438 14.757812 C 14.335938 14.8125 13.84375 14.433594 13.289062 14.460938 C 13.125 14.46875 12.972656 14.527344 12.8125 14.5625 C 12.542969 14.617188 12.261719 14.640625 12.003906 14.757812 C 11.8125 14.851562 11.597656 14.871094 11.386719 14.859375 C 11.121094 14.816406 10.914062 14.628906 10.667969 14.535156 C 10.414062 14.503906 10.175781 14.417969 9.9375 14.328125 C 9.777344 14.074219 9.878906 13.75 10.054688 13.53125 C 10.335938 13.277344 10.710938 13.140625 10.984375 12.878906 C 10.78125 12.898438 10.546875 12.890625 10.382812 13.035156 C 10.167969 13.199219 9.949219 13.351562 9.734375 13.511719 C 9.679688 13.753906 9.625 13.996094 9.628906 14.246094 C 9.6875 14.453125 9.90625 14.546875 10.085938 14.625 C 10.292969 14.71875 10.542969 14.6875 10.71875 14.839844 C 10.558594 14.820312 10.402344 14.789062 10.246094 14.753906 C 9.828125 15.324219 9.226562 15.746094 8.566406 15.980469 C 8.296875 16.078125 8.007812 16.105469 7.722656 16.109375 C 8.226562 16.355469 8.789062 16.203125 9.320312 16.269531 C 9.253906 16.371094 9.195312 16.496094 9.078125 16.554688 C 8.15625 16.945312 7.101562 17.019531 6.261719 17.601562 C 6.695312 17.378906 7.183594 17.398438 7.65625 17.378906 C 6.875 17.910156 5.988281 18.347656 5.429688 19.136719 C 5.109375 19.464844 4.753906 19.769531 4.324219 19.945312 C 4.496094 19.53125 4.675781 19.117188 4.839844 18.695312 C 5.15625 17.933594 5.21875 17.089844 5.175781 16.273438 C 5.148438 16.277344 5.089844 16.285156 5.0625 16.289062 C 4.648438 17.269531 4.316406 18.390625 3.414062 19.046875 C 3.84375 18.417969 4.105469 17.695312 4.292969 16.964844 C 4.289062 16.886719 4.207031 16.847656 4.140625 16.875 C 3.582031 17.457031 2.949219 17.992188 2.207031 18.316406 C 2.5625 17.714844 2.917969 17.101562 3.101562 16.421875 C 3.238281 15.902344 3.496094 15.414062 3.578125 14.878906 C 3.625 14.621094 3.585938 14.355469 3.554688 14.09375 C 3.488281 14.066406 3.4375 14.082031 3.398438 14.144531 C 2.714844 15.050781 2.082031 16 1.570312 17.019531 C 1.742188 15.796875 2.132812 14.609375 2.667969 13.496094 C 2.886719 13.050781 3.125 12.605469 3.40625 12.195312 C 3.480469 12.070312 3.316406 11.902344 3.191406 11.984375 C 2.710938 12.289062 2.308594 12.691406 1.886719 13.070312 C 2.402344 11.472656 3.449219 10.054688 4.824219 9.089844 C 5.042969 8.953125 5.199219 8.746094 5.351562 8.539062 C 5.457031 8.453125 5.671875 8.378906 5.601562 8.203125 C 5.46875 8.207031 5.359375 8.292969 5.234375 8.324219 C 4.90625 8.417969 4.5625 8.46875 4.246094 8.597656 C 4.492188 8.101562 4.792969 7.597656 5.269531 7.292969 C 5.488281 7.171875 5.730469 7.085938 5.980469 7.050781 C 6.261719 7.015625 6.527344 6.90625 6.808594 6.855469 C 6.964844 6.832031 7.117188 6.785156 7.261719 6.726562 C 7.125 6.601562 6.925781 6.613281 6.761719 6.546875 C 6.546875 6.46875 6.316406 6.449219 6.089844 6.402344 C 7.128906 5.714844 8.425781 5.589844 9.636719 5.671875 C 11.023438 5.738281 12.382812 6.105469 13.640625 6.6875 C 14.296875 7.007812 14.886719 7.449219 15.476562 7.878906 C 15.085938 7.828125 14.6875 7.925781 14.335938 8.089844 C 14.25 8.113281 14.265625 8.285156 14.359375 8.28125 C 14.445312 8.28125 14.519531 8.234375 14.601562 8.210938 C 14.695312 8.257812 14.796875 8.296875 14.902344 8.320312 C 15.90625 8.570312 16.894531 8.898438 17.816406 9.371094 C 18.964844 10.03125 19.726562 11.316406 19.746094 12.640625 C 19.753906 13.199219 19.625 13.75 19.511719 14.292969 C 19.316406 15.152344 18.984375 16.027344 18.320312 16.632812 C 18.242188 16.628906 18.113281 16.613281 18.125 16.730469 C 18.136719 16.832031 18.300781 16.980469 18.394531 16.867188 C 19.339844 15.859375 19.914062 14.503906 19.964844 13.117188 C 20.015625 12.019531 19.65625 10.917969 19.011719 10.03125 C 18.730469 9.644531 18.359375 9.324219 17.9375 9.101562 C 17.140625 8.6875 16.277344 8.394531 15.390625 8.269531 C 15.140625 8.222656 14.886719 8.246094 14.640625 8.191406 C 14.960938 8.082031 15.300781 8.019531 15.636719 8.074219 C 15.789062 8.097656 15.929688 8.160156 16.078125 8.199219 C 15.960938 8.070312 15.796875 7.992188 15.691406 7.847656 C 14.699219 6.726562 13.296875 6.066406 11.871094 5.6875 C 10.984375 5.460938 10.070312 5.28125 9.152344 5.328125 C 8.34375 5.359375 7.542969 5.515625 6.765625 5.730469 C 6.4375 5.828125 6.089844 5.960938 5.875 6.242188 C 5.808594 6.316406 5.796875 6.417969 5.777344 6.511719 C 5.996094 6.578125 6.222656 6.625 6.433594 6.714844 C 6.003906 6.808594 5.5625 6.890625 5.167969 7.09375 C 4.644531 7.410156 4.277344 7.933594 4.019531 8.476562 C 3.921875 8.660156 3.890625 8.871094 3.820312 9.066406 C 3.746094 9.195312 3.636719 9.300781 3.570312 9.4375 C 3.796875 9.363281 3.972656 9.199219 4.136719 9.035156 C 4.296875 8.871094 4.519531 8.78125 4.734375 8.710938 C 4.644531 8.8125 4.554688 8.914062 4.453125 9.007812 C 4.066406 9.351562 3.683594 9.703125 3.335938 10.082031 C 2.429688 11.070312 1.761719 12.269531 1.410156 13.5625 C 1.34375 13.703125 1.503906 13.878906 1.640625 13.785156 C 1.949219 13.539062 2.199219 13.230469 2.492188 12.96875 C 2.136719 13.695312 1.875 14.460938 1.621094 15.226562 C 1.355469 16.042969 1.253906 16.898438 1.160156 17.746094 C 1.152344 17.835938 1.152344 17.925781 1.160156 18.015625 C 1.257812 18.019531 1.351562 18.023438 1.445312 18.027344 C 1.835938 17.355469 2.039062 16.589844 2.492188 15.949219 C 2.753906 15.570312 2.980469 15.167969 3.207031 14.769531 C 3.175781 14.992188 3.089844 15.203125 3.027344 15.421875 C 2.859375 15.953125 2.707031 16.496094 2.46875 17.003906 C 2.21875 17.546875 1.921875 18.066406 1.609375 18.578125 C 1.574219 18.707031 1.675781 18.886719 1.828125 18.839844 C 2.636719 18.554688 3.296875 17.980469 3.921875 17.410156 C 3.710938 17.984375 3.492188 18.570312 3.105469 19.050781 C 3.023438 19.160156 2.902344 19.253906 2.898438 19.402344 C 2.871094 19.476562 2.945312 19.53125 3.007812 19.535156 C 3.34375 19.371094 3.679688 19.1875 3.933594 18.90625 C 4.441406 18.378906 4.6875 17.671875 4.949219 17.007812 C 4.839844 17.707031 4.710938 18.414062 4.453125 19.078125 C 4.277344 19.558594 4.109375 20.046875 3.855469 20.496094 C 3.828125 20.46875 3.769531 20.414062 3.738281 20.386719 C 4.019531 19.90625 4.195312 19.371094 4.382812 18.851562 C 4.226562 19.007812 4.078125 19.179688 3.898438 19.3125 C 3.703125 19.464844 3.476562 19.574219 3.257812 19.695312 C 3.074219 19.796875 2.8125 19.664062 2.777344 19.457031 C 2.757812 19.296875 2.808594 19.128906 2.921875 19.011719 C 3.144531 18.765625 3.3125 18.476562 3.460938 18.179688 C 3.015625 18.527344 2.53125 18.839844 1.996094 19.03125 C 1.761719 19.097656 1.503906 18.910156 1.492188 18.671875 C 1.453125 18.507812 1.542969 18.359375 1.636719 18.234375 C 1.480469 18.21875 1.316406 18.222656 1.160156 18.195312 C 1.054688 18.101562 1.007812 17.949219 1.03125 17.816406 C 1.125 16.855469 1.242188 15.886719 1.558594 14.972656 C 1.679688 14.625 1.792969 14.273438 1.929688 13.929688 C 1.769531 14.011719 1.546875 14.042969 1.40625 13.902344 C 1.261719 13.78125 1.253906 13.570312 1.308594 13.402344 C 1.539062 12.648438 1.839844 11.914062 2.257812 11.246094 C 2.625 10.652344 3.058594 10.09375 3.554688 9.601562 C 3.507812 9.515625 3.4375 9.429688 3.464844 9.328125 C 3.503906 9.152344 3.679688 9.050781 3.738281 8.886719 C 3.878906 8.296875 4.199219 7.753906 4.609375 7.308594 C 4.910156 6.984375 5.296875 6.742188 5.730469 6.636719 C 5.648438 6.476562 5.648438 6.277344 5.757812 6.132812 C 5.984375 5.785156 6.378906 5.601562 6.761719 5.488281 Z M 6.761719 5.488281 "/>
<path style=" stroke:none;fill-rule:nonzero;fill:rgb(23.921569%,23.921569%,23.921569%);fill-opacity:1;" d="M 9.164062 6.183594 C 9.285156 6.144531 9.417969 6.105469 9.535156 6.171875 C 10.207031 6.425781 10.90625 6.621094 11.550781 6.945312 C 11.4375 6.78125 11.320312 6.617188 11.199219 6.457031 C 11.308594 6.421875 11.417969 6.351562 11.539062 6.378906 C 11.972656 6.445312 12.34375 6.699219 12.675781 6.972656 C 12.824219 7.101562 12.988281 7.21875 13.113281 7.375 C 12.976562 7.375 12.882812 7.269531 12.777344 7.199219 C 12.351562 6.882812 11.898438 6.535156 11.351562 6.480469 C 11.503906 6.699219 11.734375 6.886719 11.792969 7.152344 C 11.664062 7.171875 11.558594 7.066406 11.441406 7.03125 C 10.71875 6.742188 10 6.425781 9.238281 6.261719 C 9.246094 6.328125 9.273438 6.386719 9.328125 6.421875 C 9.507812 6.570312 9.71875 6.679688 9.878906 6.851562 C 9.9375 6.90625 9.863281 7.023438 9.785156 6.988281 C 9.613281 6.957031 9.460938 6.855469 9.292969 6.808594 C 8.726562 6.644531 8.113281 6.679688 7.554688 6.851562 C 7.675781 6.875 7.972656 7.035156 7.789062 7.164062 C 7.601562 7.105469 7.277344 7.011719 7.335938 6.753906 C 7.597656 6.628906 7.886719 6.589844 8.171875 6.554688 C 8.550781 6.519531 8.9375 6.527344 9.304688 6.625 C 9.238281 6.550781 9.167969 6.476562 9.09375 6.40625 C 9.109375 6.332031 9.089844 6.230469 9.164062 6.183594 Z M 9.164062 6.183594 "/>
<path style=" stroke:none;fill-rule:nonzero;fill:rgb(99.607843%,99.607843%,99.607843%);fill-opacity:1;" d="M 23.324219 7.160156 C 23.832031 7.160156 24.339844 7.160156 24.851562 7.160156 C 24.851562 10.746094 24.851562 14.332031 24.851562 17.917969 C 24.332031 17.914062 23.816406 17.917969 23.300781 17.914062 C 23.183594 17.011719 23.011719 16.101562 22.628906 15.265625 C 22.417969 14.8125 22.132812 14.382812 21.734375 14.074219 C 21.339844 13.777344 20.871094 13.609375 20.394531 13.5 C 20.402344 13.371094 20.414062 13.242188 20.425781 13.117188 C 21.191406 13.292969 21.972656 13.621094 22.457031 14.265625 C 23.183594 15.199219 23.453125 16.390625 23.628906 17.535156 C 23.914062 17.539062 24.195312 17.539062 24.480469 17.535156 C 24.484375 14.203125 24.484375 10.871094 24.480469 7.539062 C 24.195312 7.539062 23.914062 7.539062 23.632812 7.539062 C 23.472656 8.226562 23.292969 8.90625 23.011719 9.554688 C 22.769531 10.097656 22.460938 10.636719 22.003906 11.03125 C 21.515625 11.425781 20.894531 11.621094 20.277344 11.71875 C 20.257812 11.597656 20.230469 11.476562 20.195312 11.359375 C 20.726562 11.257812 21.269531 11.117188 21.707031 10.785156 C 22.179688 10.402344 22.472656 9.847656 22.707031 9.296875 C 22.992188 8.613281 23.175781 7.886719 23.324219 7.160156 Z M 23.324219 7.160156 "/>
<path style=" stroke:none;fill-rule:nonzero;fill:rgb(18.039216%,38.823529%,23.529412%);fill-opacity:1;" d="M 23.632812 7.539062 C 23.914062 7.539062 24.195312 7.539062 24.480469 7.539062 C 24.484375 10.871094 24.484375 14.203125 24.480469 17.535156 C 24.195312 17.539062 23.914062 17.539062 23.628906 17.535156 C 23.453125 16.390625 23.183594 15.199219 22.457031 14.265625 C 21.972656 13.621094 21.191406 13.292969 20.425781 13.117188 C 20.382812 12.84375 20.363281 12.570312 20.347656 12.292969 C 20.335938 12.101562 20.257812 11.914062 20.277344 11.71875 C 20.894531 11.621094 21.515625 11.425781 22.003906 11.03125 C 22.460938 10.636719 22.769531 10.097656 23.011719 9.554688 C 23.292969 8.90625 23.472656 8.226562 23.632812 7.539062 Z M 23.632812 7.539062 "/>
<path style=" stroke:none;fill-rule:nonzero;fill:rgb(23.921569%,23.921569%,23.921569%);fill-opacity:1;" d="M 8.667969 7.871094 C 8.929688 7.730469 9.246094 7.738281 9.535156 7.746094 C 10.480469 7.820312 11.304688 8.394531 11.9375 9.066406 C 12.273438 9.480469 12.945312 9.390625 13.300781 9.046875 C 13.574219 8.796875 13.589844 8.398438 13.582031 8.050781 L 13.625 8.050781 C 13.628906 8.390625 13.71875 8.75 13.578125 9.078125 C 13.34375 9.570312 12.75 9.839844 12.214844 9.734375 C 12.253906 10.0625 12.089844 10.398438 11.800781 10.5625 C 11.410156 10.808594 10.84375 10.71875 10.558594 10.347656 C 10.316406 10.042969 10.332031 9.558594 10.613281 9.277344 C 10.757812 9.109375 10.976562 9.027344 11.1875 8.984375 C 10.871094 8.71875 10.507812 8.457031 10.078125 8.441406 C 9.777344 8.613281 9.597656 8.941406 9.546875 9.273438 C 9.484375 9.703125 9.582031 10.152344 9.820312 10.515625 C 10.019531 10.808594 10.347656 10.964844 10.636719 11.152344 C 10.734375 11.199219 10.714844 11.363281 10.613281 11.386719 C 10.539062 11.410156 10.46875 11.355469 10.402344 11.335938 C 9.890625 11.128906 9.453125 10.695312 9.328125 10.144531 C 9.234375 9.707031 9.242188 9.21875 9.46875 8.816406 C 9.570312 8.628906 9.75 8.503906 9.933594 8.410156 C 9.332031 8.359375 8.714844 8.394531 8.132812 8.566406 C 7.953125 8.644531 7.765625 8.695312 7.578125 8.734375 C 7.671875 8.5625 7.867188 8.492188 8.035156 8.410156 C 8.757812 8.117188 9.566406 8.082031 10.332031 8.199219 C 9.886719 8.042969 9.4375 7.835938 8.957031 7.871094 C 8.859375 7.875 8.761719 7.875 8.667969 7.871094 Z M 8.667969 7.871094 "/>
<path style=" stroke:none;fill-rule:nonzero;fill:rgb(23.921569%,23.921569%,23.921569%);fill-opacity:1;" d="M 6.523438 9.574219 C 6.597656 9.492188 6.683594 9.425781 6.78125 9.375 C 6.707031 9.511719 6.589844 9.617188 6.503906 9.742188 C 6.265625 10.082031 6.117188 10.472656 5.949219 10.847656 C 5.679688 11.460938 5.453125 12.113281 5.441406 12.792969 C 5.925781 12.296875 6.355469 11.746094 6.835938 11.246094 C 6.984375 11.09375 7.113281 10.910156 7.308594 10.820312 C 7.320312 10.90625 7.324219 10.992188 7.304688 11.074219 C 7.226562 11.546875 7.097656 12.011719 7.0625 12.488281 C 7.035156 12.796875 7.0625 13.109375 7.101562 13.414062 C 7.273438 13.019531 7.492188 12.640625 7.785156 12.324219 C 7.921875 12.316406 7.871094 12.457031 7.867188 12.542969 C 7.804688 12.9375 7.953125 13.324219 8.144531 13.660156 C 8.277344 13.132812 8.726562 12.714844 9.242188 12.570312 C 9.355469 12.597656 9.363281 12.753906 9.25 12.789062 C 8.859375 13.015625 8.417969 13.320312 8.363281 13.808594 C 8.332031 13.910156 8.378906 14.082031 8.25 14.121094 C 8.199219 14.136719 8.144531 14.101562 8.121094 14.058594 C 7.890625 13.667969 7.644531 13.25 7.664062 12.777344 C 7.402344 13.203125 7.125 13.679688 7.191406 14.199219 C 7.050781 14.285156 6.957031 14.148438 6.945312 14.019531 C 6.882812 13.476562 6.78125 12.925781 6.875 12.382812 C 6.9375 11.953125 7.085938 11.542969 7.203125 11.125 C 6.726562 11.878906 6.074219 12.492188 5.46875 13.136719 C 5.414062 13.214844 5.324219 13.199219 5.246094 13.183594 C 5.171875 12.941406 5.191406 12.6875 5.21875 12.4375 C 5.289062 11.84375 5.496094 11.273438 5.765625 10.738281 C 5.984375 10.332031 6.203125 9.910156 6.523438 9.574219 Z M 6.523438 9.574219 "/>
<path style=" stroke:none;fill-rule:nonzero;fill:rgb(18.039216%,38.823529%,23.529412%);fill-opacity:1;" d="M 13.253906 14.871094 C 13.886719 14.765625 14.457031 15.199219 15.085938 15.132812 C 15.605469 15.042969 16.128906 14.96875 16.652344 14.929688 C 17.023438 14.9375 17.394531 14.980469 17.761719 15.011719 C 17.84375 15.183594 17.980469 15.355469 17.949219 15.558594 C 17.910156 15.914062 17.804688 16.261719 17.835938 16.621094 C 17.84375 16.753906 17.90625 16.875 17.992188 16.972656 L 18.046875 17.039062 C 18.105469 17.070312 18.167969 17.101562 18.230469 17.132812 L 18.230469 17.1875 C 18.226562 18.167969 18.230469 19.152344 18.226562 20.132812 C 18.230469 20.492188 18.273438 20.871094 18.484375 21.175781 C 18.625 21.382812 18.851562 21.515625 19.089844 21.589844 C 19.507812 21.71875 19.953125 21.75 20.390625 21.777344 C 21.59375 21.820312 22.808594 21.746094 23.988281 21.484375 C 24.945312 21.261719 25.886719 20.914062 26.691406 20.347656 C 28.050781 19.378906 28.992188 17.953125 29.746094 16.492188 C 30.027344 16.492188 30.3125 16.492188 30.59375 16.496094 C 30.195312 18.488281 29.769531 20.476562 29.363281 22.46875 C 29.34375 22.566406 29.324219 22.660156 29.292969 22.753906 C 28.710938 22.78125 28.128906 22.757812 27.550781 22.765625 C 21.703125 22.765625 15.855469 22.761719 10.007812 22.769531 C 10.007812 22.5 10.003906 22.230469 10.003906 21.964844 C 10.632812 21.941406 11.28125 21.90625 11.875 21.6875 C 12.359375 21.511719 12.746094 21.09375 12.855469 20.589844 L 12.871094 20.535156 C 13.125 20.523438 13.375 20.53125 13.628906 20.527344 C 13.707031 20.53125 13.78125 20.511719 13.847656 20.472656 L 13.875 20.460938 C 13.917969 20.3125 13.949219 20.164062 13.976562 20.011719 C 13.695312 19.90625 13.40625 19.8125 13.144531 19.660156 C 13.234375 19.527344 13.367188 19.433594 13.507812 19.359375 C 13.949219 19.1875 14.347656 18.9375 14.746094 18.6875 C 14.699219 18.546875 14.660156 18.398438 14.589844 18.265625 C 14.535156 18.183594 14.476562 18.105469 14.417969 18.023438 C 14.75 17.664062 14.988281 17.226562 15.273438 16.832031 C 14.992188 16.953125 14.722656 17.097656 14.4375 17.214844 C 14.109375 17.238281 13.773438 17.292969 13.449219 17.199219 C 13.445312 17.140625 13.441406 17.078125 13.4375 17.019531 C 13.660156 16.878906 13.863281 16.675781 13.910156 16.410156 C 13.953125 16.167969 13.855469 15.933594 13.808594 15.703125 C 13.644531 15.84375 13.511719 16.039062 13.292969 16.09375 C 13.132812 16.136719 12.949219 16.179688 12.804688 16.066406 C 12.832031 15.839844 12.828125 15.609375 12.875 15.390625 C 12.925781 15.171875 13.113281 15.03125 13.253906 14.871094 Z M 13.253906 14.871094 "/>
<path style=" stroke:none;fill-rule:nonzero;fill:rgb(99.607843%,99.607843%,99.607843%);fill-opacity:1;" d="M 29.507812 16.128906 C 30.027344 16.125 30.542969 16.128906 31.058594 16.128906 C 30.570312 18.464844 30.085938 20.800781 29.601562 23.136719 C 22.949219 23.136719 16.296875 23.144531 9.644531 23.132812 C 9.605469 22.628906 9.636719 22.113281 9.628906 21.605469 C 10.316406 21.578125 11.023438 21.578125 11.6875 21.363281 C 12.070312 21.238281 12.375 20.933594 12.492188 20.546875 C 12.613281 20.5625 12.734375 20.574219 12.855469 20.589844 C 12.746094 21.09375 12.359375 21.511719 11.875 21.6875 C 11.28125 21.90625 10.632812 21.941406 10.003906 21.964844 C 10.003906 22.230469 10.007812 22.5 10.007812 22.769531 C 15.855469 22.761719 21.703125 22.769531 27.550781 22.765625 C 28.128906 22.757812 28.710938 22.78125 29.292969 22.753906 C 29.324219 22.660156 29.34375 22.566406 29.363281 22.46875 C 29.769531 20.476562 30.195312 18.488281 30.59375 16.496094 C 30.3125 16.492188 30.027344 16.492188 29.746094 16.492188 C 28.992188 17.953125 28.050781 19.378906 26.691406 20.347656 C 25.886719 20.914062 24.945312 21.261719 23.988281 21.484375 C 22.808594 21.746094 21.59375 21.820312 20.390625 21.777344 C 19.953125 21.75 19.507812 21.71875 19.085938 21.589844 C 18.851562 21.515625 18.625 21.382812 18.484375 21.175781 C 18.273438 20.871094 18.230469 20.492188 18.226562 20.132812 C 18.230469 19.152344 18.226562 18.167969 18.230469 17.1875 C 18.351562 17.226562 18.480469 17.230469 18.605469 17.207031 C 18.605469 18.230469 18.605469 19.253906 18.605469 20.277344 C 18.613281 20.546875 18.667969 20.839844 18.855469 21.042969 C 19.03125 21.214844 19.285156 21.261719 19.515625 21.308594 C 19.96875 21.390625 20.425781 21.414062 20.882812 21.410156 C 22.128906 21.421875 23.386719 21.300781 24.582031 20.9375 C 25.363281 20.695312 26.125 20.347656 26.765625 19.828125 C 27.976562 18.855469 28.816406 17.503906 29.507812 16.128906 Z M 29.507812 16.128906 "/>
<path style=" stroke:none;fill-rule:nonzero;fill:rgb(23.921569%,23.921569%,23.921569%);fill-opacity:1;" d="M 2.195312 17.214844 C 2.289062 16.964844 2.398438 16.71875 2.527344 16.484375 C 2.433594 16.734375 2.328125 16.984375 2.195312 17.214844 Z M 2.195312 17.214844 "/>
<path style=" stroke:none;fill-rule:nonzero;fill:rgb(23.921569%,23.921569%,23.921569%);fill-opacity:1;" d="M 13.1875 17.164062 C 13.269531 17.113281 13.355469 17.066406 13.4375 17.019531 C 13.441406 17.078125 13.445312 17.140625 13.449219 17.199219 C 13.773438 17.292969 14.109375 17.238281 14.4375 17.214844 C 14.042969 17.378906 13.566406 17.359375 13.1875 17.164062 Z M 13.1875 17.164062 "/>
<path style=" stroke:none;fill-rule:nonzero;fill:rgb(23.921569%,23.921569%,23.921569%);fill-opacity:1;" d="M 13.90625 18.316406 C 14.085938 18.234375 14.273438 18.15625 14.417969 18.023438 C 14.476562 18.105469 14.535156 18.183594 14.589844 18.265625 C 14.363281 18.269531 14.136719 18.292969 13.90625 18.316406 Z M 13.90625 18.316406 "/>
<path style=" stroke:none;fill-rule:nonzero;fill:rgb(23.921569%,23.921569%,23.921569%);fill-opacity:1;" d="M 12.917969 19.476562 C 13.117188 19.445312 13.316406 19.417969 13.507812 19.359375 C 13.367188 19.433594 13.234375 19.527344 13.144531 19.660156 C 13.066406 19.601562 12.992188 19.539062 12.917969 19.476562 Z M 12.917969 19.476562 "/>
<path style=" stroke:none;fill-rule:nonzero;fill:rgb(23.921569%,23.921569%,23.921569%);fill-opacity:1;" d="M 31.027344 21.597656 C 31.453125 21.589844 31.878906 21.589844 32.300781 21.59375 C 32.300781 21.6875 32.296875 21.78125 32.296875 21.871094 C 32.144531 21.871094 31.988281 21.871094 31.835938 21.875 C 31.835938 22.296875 31.835938 22.722656 31.835938 23.148438 C 31.722656 23.148438 31.609375 23.148438 31.496094 23.148438 C 31.496094 22.726562 31.496094 22.300781 31.496094 21.875 C 31.339844 21.871094 31.1875 21.871094 31.03125 21.871094 C 31.03125 21.78125 31.03125 21.6875 31.027344 21.597656 Z M 31.027344 21.597656 "/>
<path style=" stroke:none;fill-rule:nonzero;fill:rgb(23.921569%,23.921569%,23.921569%);fill-opacity:1;" d="M 32.46875 21.59375 C 32.628906 21.59375 32.792969 21.59375 32.957031 21.59375 C 33.042969 21.984375 33.144531 22.378906 33.222656 22.773438 C 33.328125 22.382812 33.410156 21.984375 33.503906 21.59375 C 33.660156 21.59375 33.820312 21.59375 33.976562 21.59375 C 33.976562 22.113281 33.976562 22.628906 33.976562 23.148438 C 33.875 23.148438 33.773438 23.148438 33.671875 23.152344 C 33.667969 22.742188 33.679688 22.332031 33.667969 21.925781 C 33.574219 22.332031 33.480469 22.742188 33.390625 23.152344 C 33.28125 23.148438 33.171875 23.148438 33.0625 23.148438 C 32.96875 22.753906 32.894531 22.351562 32.785156 21.960938 C 32.785156 22.359375 32.785156 22.753906 32.785156 23.148438 C 32.679688 23.148438 32.574219 23.148438 32.46875 23.148438 C 32.46875 22.628906 32.46875 22.113281 32.46875 21.59375 Z M 32.46875 21.59375 "/>
</g>
</svg>
