<?xml version="1.0" encoding="UTF-8"?>
<svg xmlns="http://www.w3.org/2000/svg" xmlns:xlink="http://www.w3.org/1999/xlink" width="35pt" height="25pt" viewBox="0 0 35 25" version="1.1">
<g id="surface1">
<path style=" stroke:none;fill-rule:nonzero;fill:rgb(8.235294%,21.176471%,43.529412%);fill-opacity:1;" d="M 0 25 L 35 25 L 35 0.542969 L 0 0.542969 Z M 0 25 "/>
<path style=" stroke:none;fill-rule:nonzero;fill:rgb(100%,100%,100%);fill-opacity:1;" d="M 14.777344 4.320312 C 11.671875 4.300781 8.722656 5.363281 6.691406 7.253906 C 6.679688 7.128906 6.585938 5.996094 6.585938 5.996094 L 5.742188 7.054688 L 5.585938 7.246094 C 4.875 8.144531 4.105469 9.25 3.804688 10.660156 C 3.722656 11.027344 3.683594 11.382812 3.683594 11.742188 C 3.683594 12.414062 3.828125 13.089844 4.125 13.851562 C 3.875 13.804688 3.582031 13.746094 3.582031 13.746094 L 3.976562 14.503906 C 5.1875 16.824219 7.316406 18.496094 10.171875 19.449219 C 11.316406 19.828125 11.960938 19.878906 12.324219 19.917969 C 10.125 19.117188 8.632812 17.539062 7.695312 16.050781 C 7.886719 16.089844 8.074219 16.128906 8.074219 16.128906 L 7.796875 15.425781 C 7.5625 14.835938 7.453125 14.066406 7.453125 13.445312 C 7.453125 13.125 7.480469 12.84375 7.539062 12.652344 C 7.832031 11.6875 10.222656 10.628906 11.644531 10.808594 C 11.515625 10.824219 11.207031 10.886719 11.207031 10.886719 C 11.207031 10.886719 12.441406 10.9375 13.480469 11.195312 C 14.519531 11.453125 15.785156 11.824219 16.890625 12.3125 C 17.382812 12.527344 18.847656 13.261719 19.929688 14 L 19.746094 13.683594 C 19.746094 13.683594 19.832031 13.699219 20.066406 13.859375 C 20.429688 14.101562 20.800781 14.566406 20.828125 14.65625 C 20.832031 14.714844 20.785156 14.734375 20.519531 14.789062 C 20.171875 14.867188 19.804688 14.929688 19.804688 14.929688 C 19.804688 14.929688 20.15625 15.285156 20.695312 15.464844 C 21.238281 15.644531 21.59375 15.660156 21.933594 15.625 C 22.230469 16.066406 22.773438 16.554688 23.773438 16.816406 C 25.273438 17.207031 26.542969 16.863281 27.445312 16.488281 C 27.636719 16.894531 27.738281 17.277344 27.738281 17.597656 C 27.738281 17.703125 27.730469 17.800781 27.707031 17.890625 C 27.625 18.21875 27.015625 18.742188 26.609375 18.894531 C 26.207031 19.050781 26.097656 19.089844 25.96875 19.132812 C 26.117188 19.261719 26.496094 19.445312 26.667969 19.507812 C 26.894531 19.589844 27.175781 19.640625 27.324219 19.667969 C 28.015625 19.785156 28.714844 19.726562 29.324219 19.527344 C 30.105469 19.273438 30.683594 18.78125 30.992188 18.097656 C 31.230469 17.578125 31.320312 17.066406 31.320312 16.585938 C 31.320312 15.351562 30.710938 14.335938 30.386719 13.886719 C 30.5625 13.710938 30.664062 13.484375 30.671875 13.222656 C 30.671875 13.210938 30.671875 13.199219 30.671875 13.1875 C 30.671875 12.484375 30.011719 11.695312 29.347656 11.210938 C 29.164062 10.421875 28.691406 9.640625 27.867188 8.769531 C 27.476562 8.355469 27.003906 7.953125 26.503906 7.527344 C 26.046875 7.140625 24.542969 6.097656 24.140625 5.542969 C 24.140625 5.542969 24.417969 6.160156 24.5 6.347656 C 23.492188 5.660156 21.835938 4.84375 20.808594 4.4375 L 19.414062 3.886719 C 19.414062 3.886719 19.757812 4.328125 20.03125 4.679688 C 18.878906 4.3125 17.578125 4.039062 17.089844 3.976562 L 17.105469 3.976562 C 16.074219 3.828125 14.476562 3.746094 13.976562 3.78125 C 14.101562 3.863281 14.421875 4.078125 14.777344 4.320312 "/>
<path style=" stroke:none;fill-rule:nonzero;fill:rgb(100%,100%,100%);fill-opacity:1;" d="M 29.980469 14.027344 C 29.980469 13.925781 29.941406 13.710938 29.960938 13.703125 C 30.703125 13.269531 29.957031 12.109375 28.984375 11.453125 C 28.851562 10.714844 28.421875 9.949219 27.570312 9.050781 C 26.84375 8.28125 25.832031 7.5625 24.714844 6.484375 C 24.753906 6.59375 24.9375 7.195312 24.925781 7.183594 C 24.355469 6.601562 21.988281 5.34375 20.65625 4.820312 C 20.769531 4.960938 21.023438 5.304688 21.207031 5.578125 C 20.105469 5.007812 17.8125 4.484375 17.035156 4.382812 C 16.511719 4.292969 15.984375 4.28125 15.414062 4.253906 C 15.644531 4.410156 15.960938 4.660156 16.144531 4.808594 C 12.179688 4.363281 8.488281 5.757812 6.359375 8.175781 L 6.320312 7.71875 L 6.265625 7.058594 C 6.160156 7.1875 6.039062 7.335938 5.90625 7.503906 C 5.308594 8.257812 4.503906 9.34375 4.203125 10.746094 C 3.9375 11.988281 4.167969 13.0625 4.808594 14.40625 L 4.339844 14.3125 C 5.433594 16.40625 7.386719 18.210938 10.269531 19.316406 C 10.703125 19.480469 11.058594 19.601562 11.371094 19.691406 C 11.75 19.800781 12.039062 19.863281 12.324219 19.917969 C 9.46875 18.878906 7.71875 17.253906 6.917969 15.472656 L 7.414062 15.574219 C 7.035156 14.621094 6.949219 13.207031 7.144531 12.535156 C 7.265625 12.121094 7.457031 11.699219 7.722656 11.375 C 7.902344 11.160156 8.160156 10.953125 8.386719 10.835938 L 8.242188 11.0625 L 7.773438 11.738281 C 8.519531 11.039062 10.539062 10.222656 12.699219 10.367188 C 12.882812 10.378906 13.070312 10.398438 13.257812 10.421875 L 12.398438 10.613281 L 13.167969 10.75 C 14.132812 10.914062 15.949219 11.449219 17.054688 11.9375 C 17.675781 12.210938 18.5625 12.613281 19.613281 13.328125 C 19.5 13.117188 19.398438 12.90625 19.289062 12.714844 C 19.835938 13.128906 20.503906 13.667969 20.660156 13.832031 C 21.035156 14.226562 21.359375 14.609375 21.34375 14.839844 C 21.328125 15.070312 20.84375 15.046875 20.816406 15.074219 C 21.410156 15.257812 21.921875 15.261719 22.136719 15.15625 C 22.332031 15.570312 22.792969 16.136719 23.878906 16.417969 C 25.476562 16.839844 26.800781 16.347656 27.632812 15.960938 C 27.96875 16.546875 28.265625 17.332031 28.105469 17.984375 C 28.003906 18.398438 27.640625 18.832031 26.957031 19.140625 C 27.03125 19.175781 27.238281 19.226562 27.378906 19.25 C 28.488281 19.4375 30.039062 19.207031 30.621094 17.929688 C 31.371094 16.277344 30.480469 14.683594 29.980469 14.027344 "/>
<path style=" stroke:none;fill-rule:nonzero;fill:rgb(100%,100%,100%);fill-opacity:1;" d="M 9.925781 19.507812 C 7.042969 18.402344 5.089844 16.601562 3.996094 14.507812 L 4.011719 14.511719 C 4.007812 14.503906 4.007812 14.5 4.003906 14.496094 L 3.652344 14.425781 C 4.746094 16.515625 6.695312 18.3125 9.5625 19.414062 C 10.171875 19.644531 10.632812 19.789062 11.027344 19.886719 C 10.714844 19.796875 10.355469 19.675781 9.925781 19.507812 "/>
<path style=" stroke:none;fill-rule:nonzero;fill:rgb(100%,100%,100%);fill-opacity:1;" d="M 15.507812 4.417969 C 11.46875 4.132812 8.25 5.21875 6.199219 7.296875 L 6.238281 7.753906 C 8.214844 5.503906 11.441406 4.273438 15.546875 4.460938 C 15.53125 4.445312 15.519531 4.433594 15.507812 4.417969 "/>
<path style=" stroke:none;fill-rule:nonzero;fill:rgb(92.941176%,68.235294%,3.529412%);fill-opacity:1;" d="M 15.648438 4.601562 C 11.609375 4.316406 8.386719 5.402344 6.335938 7.480469 L 6.375 7.9375 C 8.355469 5.691406 11.582031 4.457031 15.683594 4.648438 C 15.671875 4.632812 15.660156 4.617188 15.648438 4.601562 "/>
<path style=" stroke:none;fill-rule:nonzero;fill:rgb(92.941176%,68.235294%,3.529412%);fill-opacity:1;" d="M 5.503906 6.90625 C 4.914062 7.65625 3.929688 8.785156 3.609375 10.355469 L 3.632812 10.863281 C 3.9375 9.382812 4.894531 7.683594 5.503906 6.90625 "/>
<path style=" stroke:none;fill-rule:nonzero;fill:rgb(92.941176%,68.235294%,3.529412%);fill-opacity:1;" d="M 12.699219 10.367188 L 11.761719 10.578125 C 11.914062 10.566406 12.132812 10.578125 12.398438 10.613281 L 13.257812 10.421875 C 13.070312 10.398438 12.882812 10.378906 12.699219 10.367188 "/>
<path style=" stroke:none;fill-rule:nonzero;fill:rgb(92.941176%,68.235294%,3.529412%);fill-opacity:1;" d="M 7.722656 11.375 C 7.875 11.269531 8.046875 11.164062 8.242188 11.0625 L 8.363281 10.886719 C 8.113281 10.984375 7.902344 11.160156 7.722656 11.375 "/>
<path style=" stroke:none;fill-rule:nonzero;fill:rgb(92.941176%,68.235294%,3.529412%);fill-opacity:1;" d="M 4.644531 16.832031 C 4.671875 17.242188 5.472656 17.9375 6.015625 18.265625 C 7.113281 18.921875 8.074219 19.203125 8.074219 19.203125 C 8.074219 19.203125 6.585938 18.429688 6.121094 18.105469 C 5.652344 17.785156 5.039062 17.289062 4.644531 16.832031 "/>
<path style=" stroke:none;fill-rule:nonzero;fill:rgb(92.941176%,68.235294%,3.529412%);fill-opacity:1;" d="M 29.234375 13.765625 C 29.019531 13.863281 28.824219 13.871094 28.675781 13.847656 C 28.289062 13.894531 27.953125 13.761719 27.933594 13.757812 C 27.9375 13.757812 28.105469 13.761719 28.332031 13.722656 C 28.054688 13.707031 27.785156 13.613281 27.535156 13.460938 C 27.40625 13.464844 27.300781 13.46875 27.1875 13.449219 C 27.5625 13.761719 27.832031 14.039062 28.015625 14.289062 C 28.488281 14.847656 28.855469 15.410156 28.855469 15.410156 C 28.855469 15.410156 28.351562 14.847656 28.085938 14.585938 C 27.621094 14.117188 26.960938 13.65625 26.328125 13.277344 C 25.128906 12.664062 24.734375 12.492188 23.867188 12.472656 C 22.984375 12.457031 22.199219 12.953125 21.972656 13.519531 C 21.886719 13.855469 21.933594 14.28125 22.101562 14.667969 L 22.09375 14.527344 C 22.097656 14.570312 22.382812 15.625 23.957031 16.039062 C 25.453125 16.429688 26.6875 16.066406 27.480469 15.710938 C 27.394531 15.578125 27.300781 15.457031 27.203125 15.339844 L 27.085938 15.394531 C 26.722656 15.570312 25.683594 16.066406 24.230469 15.589844 C 23.695312 15.414062 23.433594 15.164062 23.308594 14.933594 C 23.128906 14.746094 23.015625 14.527344 23.007812 14.277344 C 22.992188 14.28125 22.976562 14.28125 22.960938 14.285156 C 22.957031 14.292969 22.949219 14.296875 22.945312 14.300781 C 22.941406 14.230469 22.964844 14.074219 22.964844 14.074219 C 23.15625 13.460938 23.867188 13.175781 24.804688 13.402344 C 25.535156 13.582031 27.066406 14.269531 27.960938 15.683594 C 28.128906 15.949219 28.269531 16.253906 28.378906 16.550781 C 28.566406 17.054688 28.617188 17.761719 28.394531 18.199219 C 28.085938 18.789062 27.332031 19.132812 27.242188 19.117188 C 27.523438 19.164062 27.992188 19.125 28.375 19.050781 C 29.117188 18.910156 29.824219 18.484375 30.140625 17.785156 C 30.203125 17.652344 30.25 17.519531 30.289062 17.386719 C 30.535156 15.84375 29.375 13.703125 29.234375 13.765625 "/>
<path style=" stroke:none;fill-rule:nonzero;fill:rgb(92.941176%,68.235294%,3.529412%);fill-opacity:1;" d="M 29.496094 12.71875 C 29.269531 12.273438 28.960938 12.199219 28.960938 12.199219 L 28.949219 12.722656 C 28.949219 12.722656 28.828125 12.273438 28.761719 12.050781 C 28.535156 11.292969 27.863281 10.273438 27.085938 9.554688 C 27.136719 9.664062 27.175781 9.773438 27.171875 9.863281 C 26.75 9.347656 25.546875 8.367188 25.546875 8.367188 L 25.695312 8.820312 C 25.695312 8.820312 25.617188 8.71875 25.53125 8.613281 C 24.730469 7.667969 22.527344 6.519531 21.855469 6.175781 L 22.152344 6.648438 C 22.097656 6.621094 22.023438 6.582031 21.929688 6.535156 L 22.226562 7.039062 L 20.671875 6.308594 L 21.511719 6.457031 C 21.273438 6.347656 20.421875 5.996094 20.679688 6.09375 C 20.933594 6.191406 19.070312 5.484375 18.066406 5.292969 C 17.886719 5.261719 17.703125 5.230469 17.519531 5.207031 C 17.683594 5.3125 17.96875 5.703125 18.105469 5.828125 C 14.820312 5.367188 12.117188 5.59375 10 6.394531 C 8.601562 7.042969 7.316406 8.046875 6.144531 9.488281 L 6.109375 9.289062 C 6.109375 9.289062 6.109375 9.292969 6.105469 9.292969 L 5.992188 8.644531 C 5.523438 9.261719 4.949219 10.273438 4.765625 10.980469 C 4.765625 10.984375 4.75 11.039062 4.75 11.046875 C 4.589844 11.675781 4.574219 12.226562 4.667969 12.761719 C 4.800781 13.339844 5.0625 13.910156 5.410156 14.546875 L 5.335938 14.535156 C 5.375 14.601562 5.410156 14.671875 5.449219 14.742188 L 5.089844 14.667969 C 5.695312 15.609375 6.648438 16.660156 7.695312 17.394531 C 7.015625 16.667969 6.519531 15.945312 6.222656 15.125 L 6.261719 15.132812 C 6.234375 15.066406 6.207031 15 6.183594 14.933594 L 6.683594 15.035156 C 6.648438 14.898438 6.617188 14.757812 6.589844 14.621094 C 6.355469 13.585938 6.417969 12.527344 6.710938 11.785156 C 6.949219 11.179688 7.910156 9.820312 9.523438 9.398438 L 9.285156 9.761719 C 9.386719 9.734375 9.496094 9.707031 9.605469 9.683594 L 9.226562 10.1875 C 10.554688 9.636719 12.429688 9.449219 14.707031 10.117188 L 14.480469 10.148438 C 14.550781 10.175781 14.617188 10.203125 14.679688 10.234375 L 14.289062 10.332031 C 14.980469 10.496094 15.84375 10.742188 16.230469 10.878906 C 16.640625 11.019531 17.144531 11.257812 17.636719 11.511719 C 17.515625 11.421875 17.441406 11.367188 17.441406 11.367188 C 18.167969 11.59375 18.785156 11.855469 19.304688 12.128906 L 19.214844 11.96875 C 19.960938 12.375 20.460938 12.621094 20.789062 12.867188 C 21.113281 13.113281 21.421875 13.332031 21.703125 13.765625 C 21.707031 13.464844 21.835938 12.71875 22.035156 13.027344 C 22.378906 12.5 23.15625 12.203125 23.824219 12.226562 C 24.515625 12.25 25.183594 12.441406 25.855469 12.839844 C 25.730469 12.699219 25.722656 12.507812 25.765625 12.367188 C 25.773438 12.34375 25.777344 12.328125 25.789062 12.308594 C 25.792969 12.265625 25.804688 12.226562 25.820312 12.191406 C 25.859375 12.105469 25.9375 12.050781 26.015625 12.015625 C 25.96875 11.855469 25.800781 11.519531 25.398438 11.476562 C 25.140625 11.445312 25.019531 11.542969 25.015625 11.546875 C 25.019531 11.542969 25.097656 11.40625 25.230469 11.347656 C 25.097656 11.269531 24.75 11.34375 24.742188 11.347656 C 24.757812 11.34375 25.078125 11.039062 25.566406 11.195312 C 25.664062 11.226562 25.753906 11.273438 25.832031 11.316406 C 25.761719 11.21875 25.71875 11.160156 25.71875 11.160156 C 25.777344 11.160156 26.144531 11.269531 26.347656 11.691406 C 26.390625 11.785156 26.503906 12.03125 26.566406 12.164062 C 26.679688 12.40625 26.898438 12.738281 27.125 12.972656 C 27.492188 13.347656 27.898438 13.480469 28.355469 13.476562 C 28.824219 13.472656 28.996094 13.160156 29 13.148438 C 28.996094 13.160156 29.011719 13.375 28.871094 13.539062 C 28.976562 13.484375 29.105469 13.351562 29.136719 13.257812 C 29.183594 13.128906 29.152344 12.878906 29.105469 12.828125 C 29.132812 12.855469 29.429688 13.117188 29.367188 13.382812 C 29.355469 13.429688 29.339844 13.488281 29.300781 13.546875 C 29.34375 13.574219 29.398438 13.613281 29.457031 13.652344 L 29.375 13.535156 L 29.640625 13.6875 C 29.738281 13.574219 29.714844 13.144531 29.496094 12.71875 "/>
<path style=" stroke:none;fill-rule:nonzero;fill:rgb(92.941176%,68.235294%,3.529412%);fill-opacity:1;" d="M 4.832031 14.785156 C 4.191406 13.4375 3.960938 12.367188 4.226562 11.121094 C 4.527344 9.71875 5.332031 8.632812 5.933594 7.878906 L 5.886719 7.367188 C 5.320312 8.097656 4.21875 9.335938 3.863281 11.046875 C 3.605469 12.289062 3.839844 13.359375 4.484375 14.703125 L 4.371094 14.679688 C 4.375 14.683594 4.375 14.6875 4.378906 14.695312 L 4.832031 14.785156 "/>
<path style=" stroke:none;fill-rule:nonzero;fill:rgb(92.941176%,68.235294%,3.529412%);fill-opacity:1;" d="M 10.25 19.601562 C 7.367188 18.496094 5.414062 16.695312 4.320312 14.601562 L 4.335938 14.601562 C 4.332031 14.597656 4.328125 14.59375 4.328125 14.589844 L 3.972656 14.515625 C 5.070312 16.605469 7.019531 18.40625 9.886719 19.503906 C 10.496094 19.738281 10.957031 19.878906 11.351562 19.980469 C 11.039062 19.886719 10.679688 19.769531 10.25 19.601562 "/>
<path style=" stroke:none;fill-rule:nonzero;fill:rgb(8.235294%,21.176471%,43.529412%);fill-opacity:1;" d="M 27.871094 11.605469 L 27.714844 11.367188 C 27.152344 10.539062 26.507812 10.304688 26.300781 10.289062 C 26.617188 10.40625 27.027344 10.679688 27.554688 11.464844 L 27.710938 11.699219 C 27.921875 12.03125 28.101562 12.242188 28.417969 12.320312 C 28.171875 12.257812 28.078125 11.925781 27.871094 11.605469 "/>
<path style=" stroke:none;fill-rule:nonzero;fill:rgb(41.960784%,26.27451%,1.960784%);fill-opacity:1;" d="M 26.023438 12.046875 C 25.988281 11.90625 25.828125 11.523438 25.398438 11.476562 C 25.140625 11.445312 25.019531 11.542969 25.015625 11.546875 C 25.019531 11.542969 25.097656 11.40625 25.230469 11.347656 C 25.097656 11.269531 24.75 11.34375 24.742188 11.347656 C 24.757812 11.34375 25.078125 11.039062 25.566406 11.195312 C 25.664062 11.226562 25.753906 11.273438 25.832031 11.316406 C 25.761719 11.21875 25.71875 11.160156 25.71875 11.160156 C 25.777344 11.160156 26.144531 11.269531 26.347656 11.691406 C 26.390625 11.785156 26.503906 12.03125 26.566406 12.164062 C 26.679688 12.40625 26.898438 12.738281 27.125 12.972656 C 27.4375 13.289062 27.773438 13.433594 28.152344 13.46875 C 27.949219 13.414062 27.8125 13.296875 27.839844 13.171875 C 28.125 13.292969 28.402344 13.34375 28.542969 13.003906 C 28.6875 12.667969 28.613281 11.523438 27.28125 10.0625 C 27.292969 10.144531 27.328125 10.28125 27.332031 10.429688 C 26.984375 9.9375 26.277344 9.195312 25.839844 8.855469 C 25.859375 8.945312 25.933594 9.234375 25.96875 9.355469 C 25.734375 9.113281 25.082031 8.558594 25.082031 8.558594 L 25.214844 8.972656 C 25.214844 8.972656 25.144531 8.875 25.066406 8.78125 C 24.335938 7.917969 22.324219 6.871094 21.714844 6.554688 L 21.980469 6.988281 C 21.933594 6.960938 21.867188 6.925781 21.78125 6.882812 L 22.050781 7.34375 L 20.632812 6.675781 L 21.398438 6.824219 C 21.144531 6.640625 20.890625 6.527344 20.375 6.292969 C 19.640625 6.007812 19.167969 5.839844 18.25 5.667969 C 18.085938 5.636719 17.921875 5.613281 17.753906 5.589844 C 17.882812 5.671875 18.09375 6.03125 18.230469 6.179688 C 16.808594 5.980469 15.5 5.910156 14.296875 5.957031 C 16.5625 5.953125 20.660156 7.125 22.328125 8.261719 C 23.710938 9.207031 23.484375 9.429688 22 8.765625 C 18.703125 7.292969 16.03125 7.210938 16.03125 7.210938 L 14.203125 8.320312 C 14.203125 8.320312 17.269531 8.71875 19.390625 9.855469 C 21.21875 10.832031 20.59375 10.882812 18.78125 10.234375 C 16.0625 9.261719 13.128906 9.089844 11.777344 9.265625 C 12.980469 9.308594 15.085938 9.582031 15.910156 9.859375 C 15.703125 9.921875 15.167969 10.160156 14.914062 10.21875 C 15.371094 10.1875 20.457031 11.75 21.851562 13.578125 C 21.855469 13.519531 21.863281 13.457031 21.878906 13.390625 C 22.042969 12.636719 23.015625 12.199219 23.824219 12.226562 C 24.515625 12.25 25.183594 12.441406 25.855469 12.839844 C 25.730469 12.699219 25.722656 12.507812 25.765625 12.367188 C 25.804688 12.238281 25.886719 12.148438 25.933594 12.136719 C 25.957031 12.101562 25.988281 12.070312 26.023438 12.046875 "/>
<path style=" stroke:none;fill-rule:nonzero;fill:rgb(92.941176%,68.235294%,3.529412%);fill-opacity:1;" d="M 23.777344 12.136719 C 22.96875 12.097656 21.996094 12.546875 21.832031 13.300781 C 21.761719 13.648438 21.820312 13.890625 21.820312 13.890625 C 21.820312 13.890625 21.847656 13.6875 21.875 13.605469 C 21.992188 12.96875 22.847656 12.363281 23.820312 12.382812 C 24.699219 12.398438 25.09375 12.578125 26.324219 13.207031 C 26.324219 13.207031 25.273438 12.210938 23.777344 12.136719 "/>
<path style=" stroke:none;fill-rule:nonzero;fill:rgb(92.941176%,68.235294%,3.529412%);fill-opacity:1;" d="M 28.417969 12.320312 C 28.101562 12.242188 27.921875 12.03125 27.710938 11.699219 L 27.554688 11.464844 C 27.027344 10.679688 26.617188 10.40625 26.300781 10.289062 C 26.507812 10.304688 27.152344 10.539062 27.714844 11.367188 L 27.871094 11.605469 C 28.078125 11.925781 28.171875 12.257812 28.417969 12.320312 "/>
<path style=" stroke:none;fill-rule:nonzero;fill:rgb(8.235294%,21.176471%,43.529412%);fill-opacity:1;" d="M 28.25 12.386719 C 27.933594 12.308594 27.757812 12.097656 27.542969 11.765625 L 27.390625 11.53125 C 26.859375 10.746094 26.449219 10.472656 26.132812 10.359375 C 26.339844 10.371094 26.988281 10.605469 27.546875 11.433594 L 27.703125 11.671875 C 27.910156 11.992188 28.003906 12.328125 28.25 12.386719 "/>
<path style=" stroke:none;fill-rule:nonzero;fill:rgb(8.235294%,21.176471%,43.529412%);fill-opacity:1;" d="M 26.003906 12.933594 C 25.816406 12.738281 25.75 12.476562 25.933594 12.136719 C 25.886719 12.144531 25.804688 12.238281 25.765625 12.367188 C 25.722656 12.507812 25.730469 12.699219 25.855469 12.839844 C 25.183594 12.441406 24.515625 12.25 23.824219 12.226562 C 23.015625 12.199219 22.042969 12.636719 21.878906 13.390625 C 21.804688 13.738281 21.867188 13.984375 21.867188 13.984375 C 21.867188 13.984375 21.894531 13.78125 21.921875 13.695312 C 22.039062 13.058594 22.894531 12.453125 23.867188 12.472656 C 24.742188 12.492188 25.140625 12.667969 26.371094 13.300781 L 26.566406 13.34375 C 26.378906 13.191406 26.191406 13.054688 26.003906 12.933594 "/>
<path style=" stroke:none;fill-rule:nonzero;fill:rgb(8.235294%,21.176471%,43.529412%);fill-opacity:1;" d="M 29.105469 12.828125 C 29.152344 12.878906 29.183594 13.128906 29.136719 13.257812 C 29.105469 13.351562 28.976562 13.484375 28.871094 13.539062 C 29.011719 13.375 28.996094 13.160156 29 13.148438 C 28.996094 13.160156 28.824219 13.472656 28.355469 13.476562 C 27.898438 13.480469 27.492188 13.347656 27.125 12.972656 C 26.898438 12.738281 26.679688 12.40625 26.566406 12.164062 C 26.503906 12.03125 26.390625 11.785156 26.347656 11.691406 C 26.144531 11.269531 25.777344 11.160156 25.71875 11.160156 C 25.71875 11.160156 25.761719 11.21875 25.832031 11.316406 C 25.753906 11.273438 25.664062 11.226562 25.566406 11.195312 C 25.078125 11.039062 24.757812 11.34375 24.742188 11.347656 C 24.75 11.34375 25.097656 11.269531 25.230469 11.347656 C 25.097656 11.40625 25.019531 11.542969 25.015625 11.546875 C 25.019531 11.542969 25.140625 11.445312 25.398438 11.476562 C 25.847656 11.523438 26.003906 11.945312 26.027344 12.066406 C 26.1875 11.964844 26.402344 12.09375 26.46875 12.136719 C 26.539062 12.242188 26.609375 12.355469 26.683594 12.484375 C 26.636719 12.480469 26.59375 12.496094 26.558594 12.523438 C 26.640625 12.617188 26.691406 12.710938 26.691406 12.710938 L 26.472656 12.679688 C 26.460938 12.8125 26.550781 12.957031 26.71875 13.011719 C 26.824219 13.046875 26.914062 13.042969 26.996094 13.011719 C 27.0625 13.082031 27.128906 13.148438 27.199219 13.210938 C 27.109375 13.289062 27.027344 13.363281 26.871094 13.351562 C 26.882812 13.359375 27.042969 13.472656 27.042969 13.472656 C 27.679688 13.957031 27.890625 14.246094 28.171875 14.53125 C 28.003906 14.222656 27.6875 13.867188 27.1875 13.449219 C 27.300781 13.46875 27.40625 13.464844 27.535156 13.460938 C 27.785156 13.613281 28.054688 13.707031 28.332031 13.722656 C 28.105469 13.761719 27.9375 13.757812 27.933594 13.757812 C 27.960938 13.761719 28.546875 13.996094 29.074219 13.734375 C 29.300781 13.625 29.34375 13.480469 29.367188 13.382812 C 29.429688 13.117188 29.132812 12.855469 29.105469 12.828125 "/>
<path style=" stroke:none;fill-rule:nonzero;fill:rgb(41.960784%,26.27451%,1.960784%);fill-opacity:1;" d="M 21.339844 8.210938 L 21.484375 8.097656 C 20.285156 7.488281 18.921875 7.023438 17.429688 6.75 C 16.960938 6.664062 16.171875 6.582031 15.699219 6.539062 C 16.117188 6.59375 16.589844 6.628906 16.910156 6.6875 C 18.585938 6.996094 20.042969 7.480469 21.339844 8.210938 "/>
<path style=" stroke:none;fill-rule:nonzero;fill:rgb(92.941176%,68.235294%,3.529412%);fill-opacity:1;" d="M 22.402344 12.53125 L 22.636719 12.386719 C 21.570312 11.566406 20.21875 10.875 18.804688 10.332031 C 18.359375 10.164062 17.605469 9.898438 17.152344 9.765625 C 17.550781 9.898438 18.003906 10.058594 18.308594 10.175781 C 19.894531 10.785156 21.265625 11.578125 22.402344 12.53125 "/>
<path style=" stroke:none;fill-rule:nonzero;fill:rgb(92.941176%,68.235294%,3.529412%);fill-opacity:1;" d="M 18.082031 8.964844 L 18.308594 8.8125 C 17.035156 8.382812 15.453125 8.097656 13.9375 8.046875 C 13.460938 8.03125 12.664062 8.027344 12.1875 8.050781 C 12.609375 8.042969 13.089844 8.050781 13.414062 8.0625 C 15.117188 8.117188 16.695312 8.433594 18.082031 8.964844 "/>
<path style=" stroke:none;fill-rule:nonzero;fill:rgb(8.235294%,21.176471%,43.529412%);fill-opacity:1;" d="M 20.054688 8.234375 C 20.101562 8.195312 20.238281 8.09375 20.3125 8.058594 C 18.183594 6.9375 14.367188 6.671875 11.929688 7.367188 C 12.484375 7.242188 12.992188 7.183594 13.382812 7.15625 C 15.386719 7.003906 18.679688 7.523438 20.054688 8.234375 "/>
<path style=" stroke:none;fill-rule:nonzero;fill:rgb(92.941176%,68.235294%,3.529412%);fill-opacity:1;" d="M 16.984375 10.46875 L 17.1875 10.269531 C 15.910156 9.84375 14.351562 9.601562 12.835938 9.550781 C 12.363281 9.535156 11.5625 9.527344 11.089844 9.554688 C 11.507812 9.546875 11.988281 9.554688 12.316406 9.566406 C 14.015625 9.621094 15.59375 9.9375 16.984375 10.46875 "/>
<path style=" stroke:none;fill-rule:nonzero;fill:rgb(8.235294%,21.176471%,43.529412%);fill-opacity:1;" d="M 5.113281 15.546875 C 6.261719 17.109375 7.96875 18.433594 10.269531 19.316406 C 10.703125 19.480469 11.058594 19.601562 11.371094 19.691406 C 11.734375 19.796875 12.035156 19.863281 12.324219 19.917969 C 9.507812 18.890625 7.765625 17.296875 6.949219 15.546875 L 6.398438 15.546875 C 6.777344 16.367188 7.371094 17.101562 8.15625 17.863281 C 7.199219 17.285156 6.292969 16.414062 5.617188 15.546875 Z M 7.273438 15.546875 L 7.414062 15.574219 C 7.410156 15.566406 7.40625 15.554688 7.402344 15.546875 Z M 22.386719 15.546875 C 22.65625 15.875 23.109375 16.21875 23.878906 16.417969 C 25.476562 16.839844 26.800781 16.347656 27.632812 15.960938 C 27.96875 16.546875 28.265625 17.332031 28.105469 17.984375 C 28.003906 18.398438 27.640625 18.832031 26.957031 19.140625 C 27.03125 19.175781 27.238281 19.226562 27.378906 19.25 C 28.488281 19.4375 30.039062 19.207031 30.621094 17.929688 C 31.003906 17.078125 30.957031 16.246094 30.753906 15.546875 L 30.300781 15.546875 C 30.460938 16.230469 30.488281 17.023438 30.140625 17.785156 C 29.824219 18.484375 29.117188 18.910156 28.375 19.050781 C 27.992188 19.125 27.523438 19.164062 27.242188 19.117188 C 27.332031 19.132812 28.09375 18.792969 28.394531 18.199219 C 28.667969 17.648438 28.566406 17.054688 28.378906 16.550781 C 28.269531 16.253906 28.128906 15.949219 27.960938 15.683594 C 27.929688 15.636719 27.902344 15.589844 27.871094 15.546875 L 27.367188 15.546875 C 27.40625 15.601562 27.441406 15.65625 27.480469 15.710938 C 26.6875 16.066406 25.453125 16.429688 23.957031 16.039062 C 23.492188 15.917969 23.132812 15.738281 22.851562 15.546875 Z M 24.109375 15.546875 C 24.148438 15.5625 24.1875 15.574219 24.230469 15.589844 C 25.359375 15.957031 26.238281 15.742188 26.742188 15.546875 L 24.109375 15.546875 "/>
<path style=" stroke:none;fill-rule:nonzero;fill:rgb(8.235294%,21.176471%,43.529412%);fill-opacity:1;" d="M 5.617188 15.546875 C 5.378906 15.242188 5.171875 14.941406 4.996094 14.648438 L 5.449219 14.742188 C 4.742188 13.441406 4.394531 12.429688 4.75 11.046875 C 4.75 11.039062 4.765625 10.984375 4.765625 10.980469 C 4.949219 10.269531 5.527344 9.253906 5.996094 8.640625 L 6.144531 9.488281 C 9.171875 5.765625 12.964844 4.941406 17.492188 5.730469 C 17.394531 5.625 17.179688 5.25 16.910156 5.003906 C 18.789062 5.007812 21.628906 6.359375 22.152344 6.648438 L 21.738281 5.984375 C 23.144531 6.609375 24.59375 7.402344 25.515625 8.226562 C 25.464844 8.09375 25.382812 7.789062 25.351562 7.703125 C 25.511719 7.828125 26.691406 8.835938 27.335938 9.441406 C 28.347656 10.382812 28.796875 11.429688 29.011719 12.085938 C 29.027344 12.078125 28.980469 11.746094 28.976562 11.675781 C 29.519531 12.230469 30.105469 13.003906 29.742188 13.640625 C 29.726562 13.667969 29.710938 13.691406 29.691406 13.71875 L 29.375 13.535156 L 29.457031 13.65625 C 29.550781 13.789062 30.066406 14.558594 30.300781 15.546875 L 30.753906 15.546875 C 30.558594 14.886719 30.226562 14.34375 29.980469 14.027344 C 29.980469 13.925781 29.941406 13.710938 29.960938 13.703125 C 30.703125 13.269531 29.957031 12.109375 28.984375 11.453125 C 28.851562 10.714844 28.421875 9.949219 27.570312 9.050781 C 26.84375 8.28125 25.832031 7.5625 24.714844 6.484375 C 24.753906 6.59375 24.9375 7.195312 24.925781 7.183594 C 24.355469 6.601562 21.988281 5.34375 20.65625 4.820312 C 20.769531 4.960938 21.023438 5.304688 21.207031 5.578125 C 20.105469 5.007812 17.8125 4.484375 17.035156 4.382812 C 16.511719 4.292969 15.984375 4.28125 15.414062 4.253906 C 15.644531 4.410156 15.960938 4.660156 16.144531 4.808594 C 12.179688 4.363281 8.488281 5.757812 6.359375 8.175781 L 6.320312 7.71875 L 6.265625 7.058594 C 6.160156 7.1875 6.039062 7.335938 5.90625 7.503906 C 5.308594 8.257812 4.503906 9.34375 4.203125 10.746094 C 3.9375 11.988281 4.167969 13.0625 4.808594 14.40625 L 4.339844 14.3125 C 4.5625 14.738281 4.820312 15.148438 5.113281 15.546875 Z M 6.949219 15.546875 C 6.9375 15.523438 6.929688 15.5 6.917969 15.472656 L 7.273438 15.546875 L 7.402344 15.546875 C 7.035156 14.589844 6.953125 13.203125 7.144531 12.535156 C 7.265625 12.121094 7.457031 11.699219 7.722656 11.375 C 7.902344 11.160156 8.160156 10.953125 8.386719 10.835938 L 8.242188 11.0625 L 7.773438 11.738281 C 8.519531 11.039062 10.539062 10.222656 12.699219 10.367188 C 12.882812 10.378906 13.070312 10.398438 13.257812 10.421875 L 12.398438 10.613281 L 12.191406 10.660156 C 12.40625 10.644531 12.75 10.675781 13.167969 10.75 C 14.132812 10.914062 15.949219 11.449219 17.054688 11.9375 C 17.675781 12.210938 18.5625 12.613281 19.613281 13.328125 C 19.5 13.117188 19.398438 12.90625 19.289062 12.714844 C 19.835938 13.128906 20.574219 13.722656 20.730469 13.886719 C 21.101562 14.28125 21.359375 14.609375 21.34375 14.839844 C 21.328125 15.070312 20.84375 15.046875 20.816406 15.074219 C 21.410156 15.257812 21.921875 15.261719 22.136719 15.15625 C 22.121094 15.121094 22.105469 15.085938 22.089844 15.054688 C 21.855469 14.765625 21.695312 14.457031 21.65625 14.0625 C 21.464844 13.789062 20.34375 12.265625 17.441406 11.367188 C 17.441406 11.367188 17.671875 11.535156 18.011719 11.785156 C 17.488281 11.539062 16.863281 11.277344 16.269531 11.070312 C 15.796875 10.90625 14.613281 10.574219 13.902344 10.425781 L 14.679688 10.234375 C 13.292969 9.5625 10.359375 9.796875 9.023438 10.453125 L 9.605469 9.683594 C 7.894531 10.035156 7.046875 11.199219 6.75 11.976562 C 6.425781 12.824219 6.378906 14.070312 6.742188 15.230469 L 6.222656 15.125 C 6.277344 15.269531 6.332031 15.410156 6.398438 15.546875 Z M 22.851562 15.546875 C 22.183594 15.085938 21.988281 14.550781 21.984375 14.519531 L 21.992188 14.667969 C 21.992188 14.683594 22.003906 14.839844 22.089844 15.054688 C 22.113281 15.082031 22.140625 15.113281 22.164062 15.140625 C 22.15625 15.148438 22.148438 15.152344 22.136719 15.15625 C 22.195312 15.277344 22.273438 15.410156 22.386719 15.546875 Z M 26.742188 15.546875 C 26.890625 15.488281 27.003906 15.433594 27.085938 15.394531 L 27.203125 15.339844 C 27.257812 15.40625 27.3125 15.476562 27.367188 15.546875 L 27.871094 15.546875 C 26.96875 14.226562 25.511719 13.574219 24.804688 13.402344 C 23.867188 13.175781 23.15625 13.460938 22.964844 14.074219 C 22.964844 14.074219 22.941406 14.230469 22.945312 14.300781 C 22.949219 14.296875 22.957031 14.292969 22.960938 14.285156 C 23.03125 14.269531 23.128906 14.261719 23.230469 14.257812 C 23.433594 14.253906 23.671875 14.277344 23.855469 14.296875 C 24.148438 14.332031 24.714844 14.433594 24.980469 14.484375 C 24.746094 14.363281 24.0625 14.167969 23.800781 14.140625 C 23.757812 14.136719 23.71875 14.132812 23.683594 14.128906 C 23.523438 14.109375 23.378906 14.101562 23.257812 14.117188 C 23.273438 14.109375 23.285156 14.105469 23.285156 14.105469 L 23.359375 14.011719 C 23.664062 13.6875 24.230469 13.664062 24.726562 13.785156 C 25.292969 13.925781 26.3125 14.363281 27.082031 15.203125 C 26.636719 15.386719 25.542969 15.710938 24.320312 15.3125 C 23.285156 14.972656 23.226562 14.339844 23.230469 14.3125 C 23.226562 14.347656 22.980469 15.121094 24.109375 15.546875 L 26.742188 15.546875 "/>
<path style=" stroke:none;fill-rule:nonzero;fill:rgb(8.235294%,21.176471%,43.529412%);fill-opacity:1;" d="M 22.089844 15.054688 C 22.105469 15.085938 22.121094 15.121094 22.136719 15.15625 C 22.148438 15.152344 22.15625 15.148438 22.164062 15.140625 C 22.140625 15.113281 22.113281 15.082031 22.089844 15.054688 "/>
<path style=" stroke:none;fill-rule:nonzero;fill:rgb(100%,100%,100%);fill-opacity:1;" d="M 25.226562 10.464844 C 24.847656 10.445312 24.523438 10.5625 24.332031 10.730469 C 24.183594 10.863281 24.167969 11.078125 24.269531 11.222656 C 24.230469 11.066406 24.324219 10.929688 24.445312 10.824219 C 24.597656 10.6875 24.914062 10.605469 25.234375 10.605469 C 25.597656 10.605469 26.03125 10.699219 26.273438 10.925781 C 26.09375 10.667969 25.769531 10.496094 25.226562 10.464844 "/>
<path style=" stroke:none;fill-rule:nonzero;fill:rgb(92.941176%,68.235294%,3.529412%);fill-opacity:1;" d="M 25.269531 10.511719 C 24.878906 10.488281 24.542969 10.613281 24.347656 10.785156 C 24.191406 10.925781 24.175781 11.144531 24.277344 11.296875 C 24.238281 11.132812 24.339844 10.992188 24.460938 10.882812 C 24.621094 10.742188 24.949219 10.65625 25.277344 10.65625 C 25.65625 10.65625 26.105469 10.753906 26.355469 10.988281 C 26.171875 10.71875 25.832031 10.542969 25.269531 10.511719 "/>
<path style=" stroke:none;fill-rule:nonzero;fill:rgb(100%,100%,100%);fill-opacity:1;" d="M 21.980469 10.523438 L 23.621094 10.515625 L 24.105469 7.828125 L 11.703125 7.863281 L 11.21875 10.511719 L 11.871094 10.511719 L 10.527344 16.425781 L 9.988281 16.425781 L 9.265625 19.113281 L 21.902344 19.113281 L 22.625 16.425781 L 21.042969 16.425781 C 20.855469 15.960938 19.472656 12.574219 19.472656 12.574219 L 21.980469 10.523438 "/>
<path style="fill:none;stroke-width:40;stroke-linecap:butt;stroke-linejoin:miter;stroke:rgb(92.941176%,68.235294%,3.529412%);stroke-opacity:1;stroke-miterlimit:4;" d="M 4834.657414 3182.591586 L 5195.090015 3184.307932 L 5301.50345 3774.73086 L 2576.804617 3767.007304 L 2470.391183 3185.166105 L 2613.70605 3185.166105 L 2318.494586 1885.892393 L 2200.066732 1885.892393 L 2041.304752 1295.469465 L 4817.493957 1295.469465 L 4976.255936 1885.892393 L 4628.695927 1885.892393 C 4587.50363 1988.014964 4283.710437 2732.050834 4283.710437 2732.050834 Z M 4834.657414 3182.591586 " transform="matrix(0.00455182,0,0,-0.00455182,-0.0260306,25.010028)"/>
<path style=" stroke:none;fill-rule:nonzero;fill:rgb(8.235294%,21.176471%,43.529412%);fill-opacity:1;" d="M 23.160156 10.070312 L 23.472656 8.332031 L 17.449219 8.332031 L 17.019531 10.070312 L 17.4375 10.070312 L 15.425781 11.792969 L 15.84375 10.070312 L 16.414062 10.070312 L 16.84375 8.332031 L 12.152344 8.332031 L 11.839844 10.070312 L 12.589844 10.070312 L 10.933594 16.90625 L 10.371094 16.90625 L 9.890625 18.675781 L 14.601562 18.675781 L 15.042969 16.894531 L 14.1875 16.894531 L 14.316406 16.371094 L 16.09375 14.851562 L 16.9375 16.886719 L 15.789062 16.890625 L 15.347656 18.675781 L 21.433594 18.675781 L 21.917969 16.875 L 20.648438 16.875 L 18.824219 12.4375 L 21.726562 10.070312 L 23.160156 10.070312 "/>
<path style="fill:none;stroke-width:40;stroke-linecap:butt;stroke-linejoin:miter;stroke:rgb(92.941176%,68.235294%,3.529412%);stroke-opacity:1;stroke-miterlimit:4;" d="M 5093.825618 3282.139638 L 5162.479447 3664.026561 L 3839.176896 3664.026561 L 3744.777881 3282.139638 L 3836.602377 3282.139638 L 3394.643354 2903.685406 L 3486.46785 3282.139638 L 3611.761087 3282.139638 L 3706.160102 3664.026561 L 2675.494496 3664.026561 L 2606.840668 3282.139638 L 2771.609857 3282.139638 L 2407.744564 1780.337131 L 2284.167672 1780.337131 L 2178.61241 1391.584826 L 3213.56888 1391.584826 L 3310.542413 1782.91165 L 3122.602557 1782.91165 L 3150.922261 1897.906813 L 3541.390913 2231.736056 L 3726.756251 1784.627996 L 3474.45343 1783.769823 L 3377.479896 1391.584826 L 4714.513213 1391.584826 L 4820.926648 1787.202514 L 4542.020468 1787.202514 L 4141.253742 2762.086884 L 4778.876178 3282.139638 Z M 5093.825618 3282.139638 " transform="matrix(0.00455182,0,0,-0.00455182,-0.0260306,25.010028)"/>
<path style=" stroke:none;fill-rule:evenodd;fill:rgb(100%,100%,100%);fill-opacity:1;" d="M 22.910156 18.863281 L 22.804688 18.863281 L 22.734375 19.0625 L 22.667969 18.863281 L 22.558594 18.863281 L 22.558594 19.199219 L 22.625 19.199219 L 22.625 18.929688 L 22.628906 18.929688 L 22.714844 19.199219 L 22.753906 19.199219 L 22.84375 18.929688 L 22.84375 19.199219 L 22.910156 19.199219 Z M 22.523438 18.863281 L 22.265625 18.863281 L 22.265625 18.929688 L 22.359375 18.929688 L 22.359375 19.199219 L 22.425781 19.199219 L 22.425781 18.929688 L 22.523438 18.929688 L 22.523438 18.863281 "/>
<path style=" stroke:none;fill-rule:evenodd;fill:rgb(100%,100%,100%);fill-opacity:1;" d="M 31.9375 22.003906 C 32.066406 22 32.171875 21.894531 32.167969 21.761719 C 32.167969 21.632812 32.058594 21.53125 31.929688 21.53125 C 31.800781 21.535156 31.695312 21.640625 31.699219 21.769531 C 31.699219 21.902344 31.808594 22.003906 31.9375 22.003906 Z M 31.9375 21.945312 C 31.835938 21.949219 31.761719 21.875 31.761719 21.769531 C 31.757812 21.664062 31.828125 21.589844 31.929688 21.585938 C 32.03125 21.585938 32.105469 21.660156 32.109375 21.765625 C 32.109375 21.871094 32.039062 21.945312 31.9375 21.945312 Z M 31.988281 21.785156 C 32.035156 21.78125 32.058594 21.765625 32.058594 21.714844 C 32.058594 21.65625 32.023438 21.640625 31.957031 21.640625 L 31.835938 21.644531 L 31.839844 21.898438 L 31.894531 21.894531 L 31.890625 21.789062 L 31.933594 21.789062 L 31.992188 21.894531 L 32.054688 21.894531 Z M 31.890625 21.75 L 31.890625 21.679688 L 31.945312 21.679688 C 31.972656 21.679688 32.007812 21.675781 32.007812 21.710938 C 32.007812 21.742188 31.988281 21.75 31.960938 21.75 L 31.890625 21.75 "/>
<path style=" stroke:none;fill-rule:nonzero;fill:rgb(92.941176%,68.235294%,3.529412%);fill-opacity:1;" d="M 5.222656 20.761719 L 4.191406 20.761719 L 4.105469 21.257812 L 4.433594 21.257812 C 4.371094 21.417969 4.15625 21.523438 4.003906 21.523438 C 3.625 21.523438 3.574219 21.226562 3.632812 20.902344 C 3.703125 20.496094 3.890625 20.230469 4.1875 20.230469 C 4.382812 20.230469 4.5 20.332031 4.519531 20.519531 L 5.234375 20.519531 C 5.242188 19.957031 4.851562 19.667969 4.296875 19.667969 C 3.554688 19.667969 3.007812 20.171875 2.878906 20.90625 C 2.738281 21.707031 3.195312 22.085938 3.785156 22.085938 C 4.144531 22.085938 4.375 21.949219 4.523438 21.804688 L 4.511719 22.03125 L 4.996094 22.03125 L 5.222656 20.761719 "/>
<path style="fill:none;stroke-width:28;stroke-linecap:butt;stroke-linejoin:miter;stroke:rgb(100%,100%,100%);stroke-opacity:1;stroke-miterlimit:3.86369;" d="M 1153.095841 933.320518 L 926.538206 933.320518 L 907.658403 824.332565 L 979.744924 824.332565 C 966.014158 789.147477 918.81465 765.97681 885.345909 765.97681 C 802.103141 765.97681 790.946894 831.197948 803.819487 902.426295 C 819.266599 991.676272 860.458896 1050.032027 925.680033 1050.032027 C 968.588676 1050.032027 994.333862 1027.719533 998.624727 986.527235 L 1155.67036 986.527235 C 1157.386706 1110.104127 1071.56942 1173.608919 949.708873 1173.608919 C 786.65603 1173.608919 666.511829 1062.90462 638.192125 901.568122 C 607.297902 725.642686 707.704127 642.399918 837.288229 642.399918 C 916.240132 642.399918 966.872331 672.435968 999.482899 704.188364 L 996.908381 654.414338 L 1103.321816 654.414338 Z M 1153.095841 933.320518 " transform="matrix(0.00455182,0,0,-0.00455182,-0.0260306,25.010028)"/>
<path style=" stroke:none;fill-rule:evenodd;fill:rgb(92.941176%,68.235294%,3.529412%);fill-opacity:1;" d="M 5.277344 21.355469 C 5.359375 21.824219 5.722656 22.085938 6.269531 22.085938 C 6.789062 22.085938 7.265625 21.828125 7.519531 21.355469 L 6.734375 21.355469 C 6.644531 21.460938 6.523438 21.523438 6.371094 21.523438 C 6.214844 21.523438 6.121094 21.457031 6.070312 21.355469 L 5.277344 21.355469 "/>
<path style=" stroke:none;fill-rule:evenodd;fill:rgb(92.941176%,68.235294%,3.529412%);fill-opacity:1;" d="M 6.070312 21.355469 C 6.003906 21.222656 6.007812 21.03125 6.035156 20.863281 C 6.085938 20.574219 6.25 20.230469 6.589844 20.230469 C 6.925781 20.21875 6.992188 20.550781 6.9375 20.863281 C 6.902344 21.066406 6.835938 21.238281 6.734375 21.355469 L 7.519531 21.355469 C 7.601562 21.210938 7.65625 21.046875 7.691406 20.863281 C 7.796875 20.257812 7.515625 19.667969 6.695312 19.667969 C 5.984375 19.667969 5.414062 20.136719 5.285156 20.859375 C 5.253906 21.042969 5.25 21.210938 5.277344 21.355469 L 6.070312 21.355469 "/>
<path style="fill:none;stroke-width:28;stroke-linecap:butt;stroke-linejoin:miter;stroke:rgb(100%,100%,100%);stroke-opacity:1;stroke-miterlimit:3.86369;" d="M 1453.456343 1050.032027 C 1527.259209 1052.606546 1541.848147 979.661852 1529.833727 911.008024 C 1515.244789 827.765256 1476.62701 765.97681 1405.398662 765.97681 C 1325.588586 765.97681 1320.439549 846.645059 1331.595796 911.008024 C 1342.752044 974.512815 1378.795304 1050.032027 1453.456343 1050.032027 Z M 1453.456343 1050.032027 " transform="matrix(0.00455182,0,0,-0.00455182,-0.0260306,25.010028)"/>
<path style="fill:none;stroke-width:28;stroke-linecap:butt;stroke-linejoin:miter;stroke:rgb(100%,100%,100%);stroke-opacity:1;stroke-miterlimit:3.86369;" d="M 1476.62701 1173.608919 C 1320.439549 1173.608919 1195.146312 1070.628176 1166.826607 911.866196 C 1136.790557 741.089797 1225.182362 642.399918 1383.086168 642.399918 C 1532.408246 642.399918 1664.566866 739.373451 1695.461089 911.008024 C 1718.631757 1044.024817 1656.843311 1173.608919 1476.62701 1173.608919 Z M 1476.62701 1173.608919 " transform="matrix(0.00455182,0,0,-0.00455182,-0.0260306,25.010028)"/>
<path style=" stroke:none;fill-rule:nonzero;fill:rgb(92.941176%,68.235294%,3.529412%);fill-opacity:1;" d="M 9.378906 22.023438 L 9.476562 21.488281 L 8.441406 21.488281 L 8.753906 19.730469 L 8 19.730469 L 7.597656 22.023438 L 9.378906 22.023438 "/>
<path style="fill:none;stroke-width:28;stroke-linecap:butt;stroke-linejoin:miter;stroke:rgb(100%,100%,100%);stroke-opacity:1;stroke-miterlimit:3.86369;" d="M 2066.191765 656.130684 L 2087.646087 773.700366 L 1860.230279 773.700366 L 1928.884108 1159.878153 L 1763.256745 1159.878153 L 1674.864941 656.130684 Z M 2066.191765 656.130684 " transform="matrix(0.00455182,0,0,-0.00455182,-0.0260306,25.010028)"/>
<path style=" stroke:none;fill-rule:evenodd;fill:rgb(92.941176%,68.235294%,3.529412%);fill-opacity:1;" d="M 10.492188 20.265625 L 10.636719 20.265625 C 11.039062 20.265625 11.171875 20.394531 11.085938 20.871094 C 11.011719 21.304688 10.789062 21.488281 10.4375 21.488281 L 10.277344 21.488281 Z M 10.417969 22.023438 C 11.15625 22.023438 11.695312 21.691406 11.847656 20.828125 C 11.980469 20.074219 11.582031 19.730469 10.84375 19.730469 L 9.835938 19.730469 L 9.429688 22.023438 L 10.417969 22.023438 "/>
<path style="fill:none;stroke-width:28;stroke-linecap:butt;stroke-linejoin:miter;stroke:rgb(100%,100%,100%);stroke-opacity:1;stroke-miterlimit:3.86369;" d="M 2310.771031 1042.308471 L 2342.523426 1042.308471 C 2430.915231 1042.308471 2460.093108 1013.988767 2441.213305 909.291678 C 2424.908021 814.03449 2375.992168 773.700366 2298.756611 773.700366 L 2263.571523 773.700366 Z M 2310.771031 1042.308471 " transform="matrix(0.00455182,0,0,-0.00455182,-0.0260306,25.010028)"/>
<path style="fill:none;stroke-width:28;stroke-linecap:butt;stroke-linejoin:miter;stroke:rgb(100%,100%,100%);stroke-opacity:1;stroke-miterlimit:3.86369;" d="M 2294.465746 656.130684 C 2456.660417 656.130684 2575.088272 729.075377 2608.557013 918.731579 C 2637.73489 1084.358941 2550.201259 1159.878153 2388.006588 1159.878153 L 2166.59799 1159.878153 L 2077.348012 656.130684 Z M 2294.465746 656.130684 " transform="matrix(0.00455182,0,0,-0.00455182,-0.0260306,25.010028)"/>
<path style=" stroke:none;fill-rule:nonzero;fill:rgb(92.941176%,68.235294%,3.529412%);fill-opacity:1;" d="M 13.605469 22.023438 L 13.699219 21.488281 L 12.535156 21.488281 L 12.597656 21.128906 L 13.546875 21.128906 L 13.640625 20.59375 L 12.691406 20.59375 L 12.75 20.265625 L 13.871094 20.265625 L 13.964844 19.730469 L 12.09375 19.730469 L 11.6875 22.023438 L 13.605469 22.023438 "/>
<path style="fill:none;stroke-width:28;stroke-linecap:butt;stroke-linejoin:miter;stroke:rgb(100%,100%,100%);stroke-opacity:1;stroke-miterlimit:3.86369;" d="M 2994.734801 656.130684 L 3015.330949 773.700366 L 2759.595437 773.700366 L 2773.326202 852.652269 L 2981.862208 852.652269 L 3002.458356 970.221951 L 2793.922351 970.221951 L 2806.794944 1042.308471 L 3053.090555 1042.308471 L 3073.686704 1159.878153 L 2662.621903 1159.878153 L 2573.371926 656.130684 Z M 2994.734801 656.130684 " transform="matrix(0.00455182,0,0,-0.00455182,-0.0260306,25.010028)"/>
<path style=" stroke:none;fill-rule:nonzero;fill:rgb(92.941176%,68.235294%,3.529412%);fill-opacity:1;" d="M 14.820312 19.730469 L 14.117188 19.730469 L 13.710938 22.023438 L 14.429688 22.023438 L 14.558594 21.296875 L 14.621094 20.773438 L 15.222656 22.023438 L 15.925781 22.023438 L 16.328125 19.730469 L 15.609375 19.730469 L 15.480469 20.460938 L 15.417969 20.980469 L 14.820312 19.730469 "/>
<path style="fill:none;stroke-width:28;stroke-linecap:butt;stroke-linejoin:miter;stroke:rgb(100%,100%,100%);stroke-opacity:1;stroke-miterlimit:3.86369;" d="M 3261.62656 1159.878153 L 3107.155445 1159.878153 L 3017.905468 656.130684 L 3175.809274 656.130684 L 3204.128979 815.750836 L 3217.859744 930.745999 L 3350.018365 656.130684 L 3504.48948 656.130684 L 3592.881284 1159.878153 L 3434.977478 1159.878153 L 3406.657774 999.399828 L 3392.927008 885.262838 Z M 3261.62656 1159.878153 " transform="matrix(0.00455182,0,0,-0.00455182,-0.0260306,25.010028)"/>
<path style=" stroke:none;fill-rule:nonzero;fill:rgb(92.941176%,68.235294%,3.529412%);fill-opacity:1;" d="M 17.683594 22.023438 L 17.824219 21.21875 L 18.644531 21.21875 L 18.742188 20.683594 L 17.917969 20.683594 L 17.992188 20.265625 L 19.023438 20.265625 L 19.117188 19.730469 L 17.335938 19.730469 L 16.929688 22.023438 L 17.683594 22.023438 "/>
<path style="fill:none;stroke-width:28;stroke-linecap:butt;stroke-linejoin:miter;stroke:rgb(100%,100%,100%);stroke-opacity:1;stroke-miterlimit:3.86369;" d="M 3890.667267 656.130684 L 3921.56149 832.914293 L 4101.777791 832.914293 L 4123.232112 950.483975 L 3942.157639 950.483975 L 3958.462923 1042.308471 L 4185.020558 1042.308471 L 4205.616707 1159.878153 L 3814.289883 1159.878153 L 3725.039905 656.130684 Z M 3890.667267 656.130684 " transform="matrix(0.00455182,0,0,-0.00455182,-0.0260306,25.010028)"/>
<path style=" stroke:none;fill-rule:nonzero;fill:rgb(92.941176%,68.235294%,3.529412%);fill-opacity:1;" d="M 20.589844 22.023438 L 20.683594 21.488281 L 19.652344 21.488281 L 19.964844 19.730469 L 19.210938 19.730469 L 18.808594 22.023438 L 20.589844 22.023438 "/>
<path style="fill:none;stroke-width:28;stroke-linecap:butt;stroke-linejoin:miter;stroke:rgb(100%,100%,100%);stroke-opacity:1;stroke-miterlimit:3.86369;" d="M 4529.147876 656.130684 L 4549.744024 773.700366 L 4323.186389 773.700366 L 4391.840218 1159.878153 L 4226.212856 1159.878153 L 4137.821051 656.130684 Z M 4529.147876 656.130684 " transform="matrix(0.00455182,0,0,-0.00455182,-0.0260306,25.010028)"/>
<path style=" stroke:none;fill-rule:evenodd;fill:rgb(92.941176%,68.235294%,3.529412%);fill-opacity:1;" d="M 22.046875 21.242188 L 21.574219 21.242188 L 21.949219 20.421875 Z M 21.207031 22.023438 L 21.34375 21.722656 L 22.09375 21.722656 L 22.128906 22.023438 L 22.878906 22.023438 L 22.460938 19.730469 L 21.695312 19.730469 L 20.46875 22.023438 L 21.207031 22.023438 "/>
<path style="fill:none;stroke-width:28;stroke-linecap:butt;stroke-linejoin:miter;stroke:rgb(100%,100%,100%);stroke-opacity:1;stroke-miterlimit:3.86369;" d="M 4849.246353 827.765256 L 4745.407436 827.765256 L 4827.792031 1007.981557 Z M 4849.246353 827.765256 " transform="matrix(0.00455182,0,0,-0.00455182,-0.0260306,25.010028)"/>
<path style="fill:none;stroke-width:28;stroke-linecap:butt;stroke-linejoin:miter;stroke:rgb(100%,100%,100%);stroke-opacity:1;stroke-miterlimit:3.86369;" d="M 4664.739188 656.130684 L 4694.775238 722.209994 L 4859.544427 722.209994 L 4867.267983 656.130684 L 5032.037172 656.130684 L 4940.212676 1159.878153 L 4772.010795 1159.878153 L 4502.544517 656.130684 Z M 4664.739188 656.130684 " transform="matrix(0.00455182,0,0,-0.00455182,-0.0260306,25.010028)"/>
<path style=" stroke:none;fill-rule:nonzero;fill:rgb(92.941176%,68.235294%,3.529412%);fill-opacity:1;" d="M 25.078125 20.394531 C 25.09375 19.996094 24.859375 19.667969 24.222656 19.667969 C 23.648438 19.667969 23.1875 19.914062 23.101562 20.402344 C 22.945312 21.277344 24.304688 21.039062 24.246094 21.386719 C 24.226562 21.496094 24.089844 21.554688 23.902344 21.554688 C 23.828125 21.554688 23.753906 21.535156 23.699219 21.5 C 23.644531 21.460938 23.609375 21.398438 23.609375 21.316406 L 22.886719 21.316406 C 22.832031 21.730469 23.164062 22.085938 23.769531 22.085938 C 24.398438 22.085938 24.886719 21.828125 24.980469 21.292969 C 25.128906 20.460938 23.773438 20.671875 23.832031 20.328125 C 23.847656 20.246094 23.929688 20.199219 24.09375 20.199219 C 24.167969 20.199219 24.234375 20.210938 24.28125 20.238281 C 24.332031 20.269531 24.363281 20.316406 24.363281 20.394531 L 25.078125 20.394531 "/>
<path style="fill:none;stroke-width:28;stroke-linecap:butt;stroke-linejoin:miter;stroke:rgb(100%,100%,100%);stroke-opacity:1;stroke-miterlimit:3.86369;" d="M 5515.188493 1013.988767 C 5518.621184 1101.522399 5467.130812 1173.608919 5327.248636 1173.608919 C 5201.097225 1173.608919 5099.832828 1119.544029 5080.953025 1012.272421 C 5046.626111 820.0417 5345.270266 872.390245 5332.397673 796.01286 C 5328.106809 771.98402 5298.070759 759.111427 5256.878461 759.111427 C 5240.573177 759.111427 5224.267893 763.402292 5212.253473 771.125847 C 5200.239053 779.707576 5192.515497 793.438342 5192.515497 811.459972 L 5033.753518 811.459972 C 5021.739098 720.493648 5094.683791 642.399918 5227.700584 642.399918 C 5365.866415 642.399918 5473.138022 699.039327 5493.734171 816.609009 C 5526.34474 999.399828 5228.558757 953.058494 5241.43135 1028.577705 C 5244.864041 1046.599336 5262.885671 1056.89741 5298.928932 1056.89741 C 5315.234216 1056.89741 5329.823155 1054.322891 5340.121229 1048.315681 C 5351.277476 1041.450298 5358.142859 1031.152224 5358.142859 1013.988767 Z M 5515.188493 1013.988767 " transform="matrix(0.00455182,0,0,-0.00455182,-0.0260306,25.010028)"/>
<path style=" stroke:none;fill-rule:nonzero;fill:rgb(92.941176%,68.235294%,3.529412%);fill-opacity:1;" d="M 25.671875 22.023438 L 25.832031 21.136719 L 26.539062 21.136719 L 26.382812 22.023438 L 27.136719 22.023438 L 27.539062 19.730469 L 26.789062 19.730469 L 26.652344 20.503906 L 25.941406 20.503906 L 26.078125 19.730469 L 25.328125 19.730469 L 24.921875 22.023438 L 25.671875 22.023438 "/>
<path style="fill:none;stroke-width:28;stroke-linecap:butt;stroke-linejoin:miter;stroke:rgb(100%,100%,100%);stroke-opacity:1;stroke-miterlimit:3.86369;" d="M 5645.630767 656.130684 L 5680.815855 850.935923 L 5836.145142 850.935923 L 5801.818228 656.130684 L 5967.44559 656.130684 L 6055.837395 1159.878153 L 5891.068206 1159.878153 L 5861.032155 989.959927 L 5704.844695 989.959927 L 5734.880745 1159.878153 L 5570.111556 1159.878153 L 5480.861578 656.130684 Z M 5645.630767 656.130684 " transform="matrix(0.00455182,0,0,-0.00455182,-0.0260306,25.010028)"/>
<path style=" stroke:none;fill-rule:nonzero;fill:rgb(92.941176%,68.235294%,3.529412%);fill-opacity:1;" d="M 29.257812 22.023438 L 29.351562 21.488281 L 28.1875 21.488281 L 28.253906 21.128906 L 29.199219 21.128906 L 29.292969 20.59375 L 28.347656 20.59375 L 28.40625 20.265625 L 29.523438 20.265625 L 29.617188 19.730469 L 27.746094 19.730469 L 27.34375 22.023438 L 29.257812 22.023438 "/>
<path style="fill:none;stroke-width:28;stroke-linecap:butt;stroke-linejoin:miter;stroke:rgb(100%,100%,100%);stroke-opacity:1;stroke-miterlimit:3.86369;" d="M 6433.433454 656.130684 L 6454.029602 773.700366 L 6198.29409 773.700366 L 6212.883028 852.652269 L 6420.560861 852.652269 L 6441.157009 970.221951 L 6233.479177 970.221951 L 6246.35177 1042.308471 L 6491.789208 1042.308471 L 6512.385357 1159.878153 L 6101.320556 1159.878153 L 6012.928752 656.130684 Z M 6433.433454 656.130684 " transform="matrix(0.00455182,0,0,-0.00455182,-0.0260306,25.010028)"/>
<path style=" stroke:none;fill-rule:nonzero;fill:rgb(92.941176%,68.235294%,3.529412%);fill-opacity:1;" d="M 31.5625 20.394531 C 31.578125 19.996094 31.347656 19.667969 30.710938 19.667969 C 30.136719 19.667969 29.671875 19.914062 29.585938 20.402344 C 29.433594 21.277344 30.792969 21.039062 30.730469 21.386719 C 30.714844 21.496094 30.578125 21.554688 30.390625 21.554688 C 30.316406 21.554688 30.242188 21.535156 30.1875 21.5 C 30.128906 21.460938 30.097656 21.398438 30.09375 21.316406 L 29.375 21.316406 C 29.316406 21.730469 29.648438 22.085938 30.253906 22.085938 C 30.886719 22.085938 31.375 21.828125 31.46875 21.292969 C 31.617188 20.460938 30.257812 20.671875 30.320312 20.328125 C 30.335938 20.246094 30.414062 20.199219 30.582031 20.199219 C 30.65625 20.199219 30.71875 20.210938 30.769531 20.238281 C 30.816406 20.269531 30.851562 20.316406 30.847656 20.394531 L 31.5625 20.394531 "/>
<path style="fill:none;stroke-width:28;stroke-linecap:butt;stroke-linejoin:miter;stroke:rgb(100%,100%,100%);stroke-opacity:1;stroke-miterlimit:3.86369;" d="M 6939.755441 1013.988767 C 6943.188133 1101.522399 6892.555934 1173.608919 6752.673758 1173.608919 C 6626.522347 1173.608919 6524.399777 1119.544029 6505.519974 1012.272421 C 6472.051232 820.0417 6770.695388 872.390245 6756.964622 796.01286 C 6753.531931 771.98402 6723.49588 759.111427 6682.303583 759.111427 C 6665.998299 759.111427 6649.693014 763.402292 6637.678594 771.125847 C 6624.806001 779.707576 6617.940619 793.438342 6617.082446 811.459972 L 6459.178639 811.459972 C 6446.306046 720.493648 6519.25074 642.399918 6652.267533 642.399918 C 6791.291536 642.399918 6898.563144 699.039327 6919.159293 816.609009 C 6951.769861 999.399828 6653.125706 953.058494 6666.856472 1028.577705 C 6670.289163 1046.599336 6687.45262 1056.89741 6724.354053 1056.89741 C 6740.659338 1056.89741 6754.390103 1054.322891 6765.546351 1048.315681 C 6775.844425 1041.450298 6783.567981 1031.152224 6782.709808 1013.988767 Z M 6939.755441 1013.988767 " transform="matrix(0.00455182,0,0,-0.00455182,-0.0260306,25.010028)"/>
</g>
</svg>
