<?xml version="1.0" encoding="UTF-8"?>
<svg xmlns="http://www.w3.org/2000/svg" xmlns:xlink="http://www.w3.org/1999/xlink" width="35pt" height="25pt" viewBox="0 0 35 25" version="1.1">
<g id="surface1">
<path style=" stroke:none;fill-rule:nonzero;fill:rgb(0%,16.862745%,36.078431%);fill-opacity:1;" d="M 9.144531 24.226562 L 9.417969 23.625 C 9.429688 23.601562 9.4375 23.570312 9.4375 23.539062 C 9.433594 23.433594 9.355469 23.347656 9.257812 23.347656 L 8.101562 23.347656 C 8.035156 23.347656 7.976562 23.390625 7.949219 23.449219 L 7.359375 24.722656 C 7.347656 24.746094 7.34375 24.777344 7.34375 24.804688 C 7.34375 24.914062 7.425781 25 7.523438 25 L 8.679688 25 C 8.746094 25 8.800781 24.957031 8.828125 24.898438 L 8.957031 24.628906 L 7.945312 24.628906 L 8.363281 23.71875 L 8.835938 23.71875 L 8.605469 24.226562 Z M 9.144531 24.226562 "/>
<path style=" stroke:none;fill-rule:nonzero;fill:rgb(0%,16.862745%,36.078431%);fill-opacity:1;" d="M 24.503906 24.226562 L 24.777344 23.625 C 24.785156 23.601562 24.792969 23.570312 24.792969 23.539062 C 24.792969 23.433594 24.710938 23.347656 24.613281 23.347656 L 23.457031 23.347656 C 23.390625 23.347656 23.335938 23.390625 23.308594 23.449219 L 22.71875 24.722656 C 22.707031 24.746094 22.699219 24.777344 22.699219 24.804688 C 22.703125 24.914062 22.78125 25 22.878906 25 L 24.035156 25 C 24.101562 25 24.160156 24.957031 24.1875 24.898438 L 24.3125 24.628906 L 23.300781 24.628906 L 23.722656 23.71875 L 24.195312 23.71875 L 23.960938 24.226562 Z M 24.503906 24.226562 "/>
<path style=" stroke:none;fill-rule:nonzero;fill:rgb(0%,16.862745%,36.078431%);fill-opacity:1;" d="M 11.34375 23.539062 C 11.34375 23.433594 11.261719 23.347656 11.167969 23.347656 L 10.011719 23.347656 C 9.945312 23.347656 9.886719 23.390625 9.859375 23.449219 L 9.269531 24.722656 C 9.257812 24.746094 9.253906 24.777344 9.253906 24.804688 C 9.253906 24.914062 9.332031 25 9.429688 25 L 10.585938 25 C 10.652344 25 10.710938 24.957031 10.738281 24.898438 L 11.328125 23.625 C 11.339844 23.601562 11.34375 23.570312 11.34375 23.539062 M 10.324219 24.628906 L 9.851562 24.628906 L 10.273438 23.71875 L 10.746094 23.71875 Z M 10.324219 24.628906 "/>
<path style=" stroke:none;fill-rule:nonzero;fill:rgb(0%,16.862745%,36.078431%);fill-opacity:1;" d="M 13.910156 24.398438 L 14.59375 24.398438 L 14.765625 24.027344 L 14.082031 24.027344 L 14.222656 23.71875 L 15.09375 23.71875 L 15.261719 23.347656 L 13.863281 23.347656 L 13.089844 25 L 13.636719 25 Z M 13.910156 24.398438 "/>
<path style=" stroke:none;fill-rule:nonzero;fill:rgb(0%,16.862745%,36.078431%);fill-opacity:1;" d="M 16.058594 23.71875 L 16.929688 23.71875 L 17.09375 23.347656 L 15.695312 23.347656 L 14.925781 25 L 16.34375 25 L 16.511719 24.628906 L 15.636719 24.628906 L 15.742188 24.398438 L 16.425781 24.398438 L 16.601562 24.027344 L 15.917969 24.027344 Z M 16.058594 23.71875 "/>
<path style=" stroke:none;fill-rule:nonzero;fill:rgb(0%,16.862745%,36.078431%);fill-opacity:1;" d="M 19.910156 23.71875 L 20.78125 23.71875 L 20.945312 23.347656 L 19.546875 23.347656 L 18.777344 25 L 20.195312 25 L 20.363281 24.628906 L 19.488281 24.628906 L 19.59375 24.398438 L 20.277344 24.398438 L 20.453125 24.027344 L 19.769531 24.027344 Z M 19.910156 23.71875 "/>
<path style=" stroke:none;fill-rule:nonzero;fill:rgb(0%,16.862745%,36.078431%);fill-opacity:1;" d="M 25.703125 23.71875 L 26.574219 23.71875 L 26.742188 23.347656 L 25.339844 23.347656 L 24.570312 25 L 25.992188 25 L 26.15625 24.628906 L 25.28125 24.628906 L 25.386719 24.398438 L 26.074219 24.398438 L 26.246094 24.027344 L 25.5625 24.027344 Z M 25.703125 23.71875 "/>
<path style=" stroke:none;fill-rule:nonzero;fill:rgb(0%,16.862745%,36.078431%);fill-opacity:1;" d="M 22.65625 23.347656 L 21.402344 23.347656 L 20.632812 25 L 21.171875 25 L 21.765625 23.71875 L 22.234375 23.71875 L 21.636719 25 L 22.183594 25 L 22.820312 23.625 C 22.832031 23.601562 22.835938 23.570312 22.835938 23.539062 C 22.835938 23.433594 22.753906 23.347656 22.65625 23.347656 "/>
<path style=" stroke:none;fill-rule:nonzero;fill:rgb(0%,16.862745%,36.078431%);fill-opacity:1;" d="M 13.128906 23.347656 L 11.875 23.347656 L 11.105469 25 L 11.644531 25 L 12.238281 23.71875 L 12.710938 23.71875 L 12.109375 25 L 12.65625 25 L 13.292969 23.625 C 13.304688 23.601562 13.308594 23.570312 13.308594 23.539062 C 13.308594 23.433594 13.226562 23.347656 13.128906 23.347656 "/>
<path style=" stroke:none;fill-rule:nonzero;fill:rgb(0%,16.862745%,36.078431%);fill-opacity:1;" d="M 18.804688 23.347656 L 17.546875 23.347656 L 16.777344 25 L 17.320312 25 L 17.558594 24.480469 L 17.773438 24.480469 L 17.976562 25 L 18.472656 25 L 18.269531 24.480469 L 18.574219 24.480469 L 18.964844 23.625 C 18.976562 23.601562 18.984375 23.570312 18.984375 23.539062 C 18.984375 23.433594 18.902344 23.347656 18.804688 23.347656 M 18.203125 24.109375 L 17.734375 24.109375 L 17.914062 23.722656 L 18.382812 23.722656 Z M 18.203125 24.109375 "/>
<path style=" stroke:none;fill-rule:nonzero;fill:rgb(0%,16.862745%,36.078431%);fill-opacity:1;" d="M 12.058594 21.640625 L 11.886719 22.011719 L 12.355469 22.011719 L 12.527344 21.640625 Z M 12.058594 21.640625 "/>
<path style=" stroke:none;fill-rule:nonzero;fill:rgb(0%,16.862745%,36.078431%);fill-opacity:1;" d="M 23.808594 21.757812 L 24.082031 21.160156 C 24.09375 21.132812 24.101562 21.105469 24.101562 21.074219 C 24.097656 20.96875 24.019531 20.878906 23.917969 20.878906 L 22.765625 20.878906 C 22.699219 20.878906 22.640625 20.921875 22.613281 20.980469 L 22.023438 22.253906 C 22.011719 22.28125 22.007812 22.308594 22.007812 22.339844 C 22.007812 22.445312 22.089844 22.53125 22.1875 22.53125 L 23.339844 22.53125 C 23.40625 22.53125 23.464844 22.492188 23.492188 22.429688 L 23.617188 22.160156 L 22.609375 22.160156 L 23.027344 21.253906 L 23.5 21.253906 L 23.265625 21.757812 Z M 23.808594 21.757812 "/>
<path style=" stroke:none;fill-rule:nonzero;fill:rgb(0%,16.862745%,36.078431%);fill-opacity:1;" d="M 27.882812 20.878906 L 26.628906 20.878906 L 25.855469 22.53125 L 26.398438 22.53125 L 26.992188 21.253906 L 27.460938 21.253906 L 26.863281 22.53125 L 27.410156 22.53125 L 28.042969 21.160156 C 28.058594 21.132812 28.0625 21.105469 28.0625 21.074219 C 28.0625 20.96875 27.980469 20.878906 27.882812 20.878906 "/>
<path style=" stroke:none;fill-rule:nonzero;fill:rgb(0%,16.862745%,36.078431%);fill-opacity:1;" d="M 7.730469 22.53125 L 8.277344 22.53125 L 9.050781 20.878906 L 6.457031 20.878906 L 6.589844 21.257812 L 6 22.53125 L 6.539062 22.53125 L 7.132812 21.253906 L 7.457031 21.253906 L 6.863281 22.53125 L 7.410156 22.53125 L 8.003906 21.253906 L 8.332031 21.253906 Z M 7.730469 22.53125 "/>
<path style=" stroke:none;fill-rule:nonzero;fill:rgb(0%,16.862745%,36.078431%);fill-opacity:1;" d="M 17.546875 20.878906 L 15.261719 20.878906 L 14.496094 22.53125 L 15.035156 22.53125 L 15.628906 21.253906 L 15.953125 21.253906 L 15.359375 22.53125 L 15.90625 22.53125 L 16.5 21.253906 L 16.828125 21.253906 L 16.226562 22.53125 L 16.773438 22.53125 Z M 17.546875 20.878906 "/>
<path style=" stroke:none;fill-rule:nonzero;fill:rgb(0%,16.862745%,36.078431%);fill-opacity:1;" d="M 10.03125 20.878906 L 9.480469 20.878906 L 8.726562 22.53125 L 9.273438 22.53125 Z M 10.03125 20.878906 "/>
<path style=" stroke:none;fill-rule:nonzero;fill:rgb(0%,16.862745%,36.078431%);fill-opacity:1;" d="M 22.308594 20.878906 L 21.761719 20.878906 L 21.003906 22.53125 L 21.550781 22.53125 Z M 22.308594 20.878906 "/>
<path style=" stroke:none;fill-rule:nonzero;fill:rgb(0%,16.862745%,36.078431%);fill-opacity:1;" d="M 11.75 20.878906 L 10.496094 20.878906 L 9.722656 22.53125 L 11.171875 22.53125 C 11.238281 22.53125 11.292969 22.492188 11.320312 22.429688 L 11.910156 21.160156 C 11.921875 21.132812 11.929688 21.105469 11.929688 21.074219 C 11.925781 20.96875 11.847656 20.878906 11.75 20.878906 M 10.90625 22.160156 L 10.4375 22.160156 L 10.859375 21.253906 L 11.328125 21.253906 Z M 10.90625 22.160156 "/>
<path style=" stroke:none;fill-rule:nonzero;fill:rgb(0%,16.862745%,36.078431%);fill-opacity:1;" d="M 18.347656 21.253906 L 19.21875 21.253906 L 19.382812 20.878906 L 17.980469 20.878906 L 17.214844 22.53125 L 18.632812 22.53125 L 18.800781 22.160156 L 17.925781 22.160156 L 18.03125 21.929688 L 18.714844 21.929688 L 18.886719 21.558594 L 18.207031 21.558594 Z M 18.347656 21.253906 "/>
<path style=" stroke:none;fill-rule:nonzero;fill:rgb(0%,16.862745%,36.078431%);fill-opacity:1;" d="M 21.058594 20.878906 L 19.800781 20.878906 L 19.035156 22.53125 L 19.574219 22.53125 L 19.816406 22.011719 L 20.027344 22.011719 L 20.234375 22.53125 L 20.726562 22.53125 L 20.523438 22.011719 L 20.828125 22.011719 L 21.222656 21.160156 C 21.234375 21.132812 21.238281 21.105469 21.238281 21.074219 C 21.238281 20.96875 21.15625 20.878906 21.058594 20.878906 M 20.457031 21.640625 L 19.988281 21.640625 L 20.167969 21.253906 L 20.640625 21.253906 Z M 20.457031 21.640625 "/>
<path style=" stroke:none;fill-rule:nonzero;fill:rgb(0%,16.862745%,36.078431%);fill-opacity:1;" d="M 13.882812 21.699219 L 13.402344 21.699219 L 13.609375 21.238281 L 14.09375 21.238281 Z M 12.476562 22.53125 L 13.015625 22.53125 L 13.242188 22.046875 L 13.71875 22.046875 L 13.488281 22.53125 L 14.03125 22.53125 L 14.792969 20.890625 L 13.402344 20.890625 C 13.300781 20.890625 13.207031 20.953125 13.164062 21.042969 Z M 12.476562 22.53125 "/>
<path style=" stroke:none;fill-rule:nonzero;fill:rgb(0%,16.862745%,36.078431%);fill-opacity:1;" d="M 25.269531 21.699219 L 24.789062 21.699219 L 24.996094 21.238281 L 25.480469 21.238281 Z M 23.863281 22.53125 L 24.402344 22.53125 L 24.625 22.046875 L 25.105469 22.046875 L 24.875 22.53125 L 25.417969 22.53125 L 26.179688 20.890625 L 24.789062 20.890625 C 24.6875 20.890625 24.59375 20.953125 24.550781 21.042969 Z M 23.863281 22.53125 "/>
<path style=" stroke:none;fill-rule:nonzero;fill:rgb(100%,100%,100%);fill-opacity:1;" d="M 6.261719 2.996094 C 6.707031 10.34375 10.949219 16.664062 17.050781 20.023438 C 23.152344 16.664062 27.390625 10.34375 27.835938 2.996094 C 24.6875 1.09375 20.996094 0 17.050781 0 C 13.101562 0 9.410156 1.09375 6.261719 2.996094 "/>
<path style=" stroke:none;fill-rule:nonzero;fill:rgb(0%,16.862745%,36.078431%);fill-opacity:1;" d="M 21.242188 7.125 C 21.347656 6.90625 21.574219 6.75 21.824219 6.75 L 25.308594 6.75 L 24.304688 8.976562 L 22.929688 8.976562 L 23.554688 7.601562 L 22.375 7.601562 L 21.3125 9.917969 L 25.464844 9.917969 C 26.371094 7.890625 26.929688 5.695312 27.0625 3.394531 C 24.167969 1.699219 20.730469 0.71875 17.050781 0.71875 C 13.367188 0.71875 9.933594 1.699219 7.035156 3.394531 C 7.167969 5.679688 7.714844 7.859375 8.613281 9.875 L 9.652344 7.613281 L 9.277344 6.75 L 15.769531 6.75 L 13.90625 10.769531 L 12.535156 10.769531 L 14.011719 7.601562 L 13.191406 7.601562 L 11.734375 10.769531 L 10.359375 10.769531 L 11.820312 7.601562 L 11.011719 7.601562 L 9.550781 10.769531 L 9.042969 10.769531 C 10.796875 14.21875 13.589844 17.132812 17.050781 19.160156 C 20.511719 17.132812 23.300781 14.21875 25.054688 10.769531 L 19.5625 10.769531 Z M 21.242188 7.125 "/>
<path style=" stroke:none;fill-rule:nonzero;fill:rgb(100%,100%,100%);fill-opacity:1;" d="M 17.070312 6.75 C 16.816406 6.75 16.589844 6.90625 16.488281 7.125 L 14.804688 10.769531 L 16.160156 10.769531 L 16.714844 9.585938 L 17.882812 9.585938 L 17.324219 10.769531 L 18.695312 10.769531 L 20.554688 6.75 Z M 18.285156 8.730469 L 17.109375 8.730469 L 17.621094 7.601562 L 18.800781 7.601562 Z M 18.285156 8.730469 "/>
<path style=" stroke:none;fill-rule:nonzero;fill:rgb(100%,100%,100%);fill-opacity:1;" d="M 17.050781 1.648438 C 20.207031 1.648438 23.320312 2.445312 26.074219 3.953125 C 26.007812 4.570312 25.910156 5.179688 25.785156 5.78125 L 8.316406 5.78125 C 8.191406 5.179688 8.089844 4.570312 8.023438 3.953125 C 10.777344 2.445312 13.890625 1.648438 17.050781 1.648438 "/>
<path style=" stroke:none;fill-rule:nonzero;fill:rgb(100%,100%,100%);fill-opacity:1;" d="M 17.050781 18.050781 C 14.429688 16.476562 12.273438 14.3125 10.710938 11.777344 L 23.386719 11.777344 C 21.828125 14.3125 19.667969 16.476562 17.050781 18.050781 "/>
<path style=" stroke:none;fill-rule:nonzero;fill:rgb(0%,63.137255%,37.647059%);fill-opacity:1;" d="M 11.859375 12.398438 C 12.9375 13.929688 14.257812 15.296875 15.777344 16.445312 C 15.496094 15.492188 15.113281 14.101562 14.742188 12.398438 Z M 11.859375 12.398438 "/>
<path style=" stroke:none;fill-rule:nonzero;fill:rgb(0%,63.137255%,37.647059%);fill-opacity:1;" d="M 8.832031 5.214844 L 13.667969 5.214844 C 13.601562 4.367188 13.554688 3.496094 13.535156 2.609375 C 11.847656 2.941406 10.214844 3.507812 8.6875 4.296875 C 8.726562 4.605469 8.777344 4.914062 8.832031 5.214844 "/>
<path style=" stroke:none;fill-rule:nonzero;fill:rgb(0%,63.137255%,37.647059%);fill-opacity:1;" d="M 25.265625 5.214844 C 25.320312 4.914062 25.371094 4.605469 25.414062 4.296875 C 23.886719 3.507812 22.25 2.941406 20.566406 2.609375 C 20.546875 3.496094 20.5 4.367188 20.433594 5.214844 Z M 25.265625 5.214844 "/>
<path style=" stroke:none;fill-rule:nonzero;fill:rgb(0%,63.137255%,37.647059%);fill-opacity:1;" d="M 22.242188 12.398438 L 19.355469 12.398438 C 18.988281 14.101562 18.605469 15.492188 18.320312 16.441406 C 19.839844 15.296875 21.160156 13.929688 22.242188 12.398438 "/>
<path style=" stroke:none;fill-rule:nonzero;fill:rgb(65.490196%,66.27451%,67.45098%);fill-opacity:1;" d="M 17.050781 14.589844 L 16.285156 15.148438 L 16.578125 14.25 L 15.808594 13.691406 L 16.757812 13.691406 L 17.050781 12.789062 L 17.34375 13.691406 L 18.289062 13.691406 L 17.523438 14.25 L 17.816406 15.148438 Z M 17.050781 14.589844 "/>
<path style=" stroke:none;fill-rule:nonzero;fill:rgb(65.490196%,66.27451%,67.45098%);fill-opacity:1;" d="M 14.550781 4.628906 L 15.207031 3.207031 L 15.574219 3.207031 L 14.921875 4.628906 Z M 14.550781 4.628906 "/>
<path style=" stroke:none;fill-rule:nonzero;fill:rgb(65.490196%,66.27451%,67.45098%);fill-opacity:1;" d="M 16.890625 3.351562 C 16.890625 3.367188 16.882812 3.386719 16.875 3.402344 L 16.386719 4.460938 C 16.339844 4.558594 16.238281 4.628906 16.125 4.628906 L 15.230469 4.628906 L 15.363281 4.34375 L 16.074219 4.34375 L 16.195312 4.078125 L 15.664062 4.078125 C 15.582031 4.078125 15.523438 4.015625 15.53125 3.933594 C 15.53125 3.914062 15.535156 3.898438 15.542969 3.882812 L 15.777344 3.375 C 15.824219 3.273438 15.929688 3.207031 16.042969 3.207031 L 16.757812 3.207031 C 16.835938 3.207031 16.894531 3.269531 16.890625 3.351562 M 15.953125 3.792969 L 16.328125 3.792969 L 16.464844 3.492188 L 16.089844 3.492188 Z M 15.953125 3.792969 "/>
<path style=" stroke:none;fill-rule:nonzero;fill:rgb(65.490196%,66.27451%,67.45098%);fill-opacity:1;" d="M 18.101562 4.484375 C 18.101562 4.464844 18.109375 4.449219 18.117188 4.433594 L 18.601562 3.375 C 18.652344 3.277344 18.753906 3.207031 18.867188 3.207031 L 19.761719 3.207031 L 19.625 3.492188 L 18.917969 3.492188 L 18.796875 3.757812 L 19.328125 3.757812 C 19.410156 3.757812 19.46875 3.820312 19.460938 3.902344 C 19.460938 3.917969 19.453125 3.9375 19.449219 3.953125 L 19.214844 4.460938 C 19.164062 4.558594 19.0625 4.628906 18.949219 4.628906 L 18.234375 4.628906 C 18.152344 4.628906 18.09375 4.566406 18.101562 4.484375 M 19.035156 4.042969 L 18.660156 4.042969 L 18.523438 4.34375 L 18.898438 4.34375 Z M 19.035156 4.042969 "/>
<path style=" stroke:none;fill-rule:nonzero;fill:rgb(65.490196%,66.27451%,67.45098%);fill-opacity:1;" d="M 18.355469 3.207031 L 17.988281 3.207031 L 17.71875 3.792969 L 17.34375 3.792969 L 17.613281 3.207031 L 17.429688 3.207031 C 17.316406 3.207031 17.214844 3.273438 17.167969 3.375 L 16.933594 3.882812 C 16.925781 3.898438 16.921875 3.914062 16.917969 3.933594 C 16.914062 4.015625 16.972656 4.078125 17.054688 4.078125 L 17.585938 4.078125 L 17.335938 4.628906 L 17.703125 4.628906 Z M 18.355469 3.207031 "/>
<path style=" stroke:none;fill-rule:nonzero;fill:rgb(0%,16.862745%,36.078431%);fill-opacity:1;" d="M 22.382812 16.929688 L 22.226562 16.929688 L 22.035156 17.359375 L 21.886719 17.359375 L 22.078125 16.929688 L 21.921875 16.929688 L 21.976562 16.8125 L 22.433594 16.8125 Z M 22.972656 17.359375 L 22.824219 17.359375 L 23.015625 16.929688 L 23 16.929688 L 22.730469 17.230469 L 22.628906 17.230469 L 22.628906 16.925781 L 22.609375 16.925781 L 22.417969 17.359375 L 22.277344 17.359375 L 22.519531 16.8125 L 22.757812 16.8125 L 22.75 17.078125 L 22.984375 16.8125 L 23.214844 16.8125 Z M 22.972656 17.359375 "/>
</g>
</svg>
