<?xml version="1.0" encoding="UTF-8"?>
<svg xmlns="http://www.w3.org/2000/svg" xmlns:xlink="http://www.w3.org/1999/xlink" width="35pt" height="25pt" viewBox="0 0 35 25" version="1.1">
<g id="surface11">
<path style=" stroke:none;fill-rule:nonzero;fill:rgb(100%,100%,100%);fill-opacity:1;" d="M 30.328125 18.976562 L 29.386719 17.40625 L 29.386719 15.554688 L 29.394531 15.542969 L 30.722656 13.359375 L 28.59375 13.355469 C 28.34375 12.058594 28.0625 10.988281 27.761719 10.175781 C 27.03125 8.277344 26.171875 6.699219 25.132812 5.351562 C 22.566406 2.078125 18.851562 0.0820312 15.191406 0.015625 C 13.535156 -0.0976562 12.0625 0.46875 11.082031 0.914062 C 8.03125 1.054688 6.554688 2.636719 6.558594 3.394531 C 6.230469 3.652344 5.734375 4.101562 5.714844 4.726562 C 5.667969 4.738281 4.277344 5.011719 4.605469 7.234375 C 5.132812 10.855469 7.269531 11.972656 7.269531 11.972656 C 7.269531 11.972656 7.253906 10.640625 7.523438 10.207031 C 7.792969 9.777344 9.234375 10.328125 9.292969 11.535156 C 9.320312 12.09375 8.828125 12.734375 8.023438 13.347656 L 5.28125 13.347656 L 6.605469 15.542969 L 6.617188 17.34375 L 5.398438 19.390625 C 5.027344 19.484375 4.640625 19.597656 4.640625 19.597656 C 4.640625 19.597656 3.617188 20.707031 3.265625 21.167969 C 2.914062 21.628906 1.5 23.472656 1.5 23.472656 C 1.5 23.472656 3.382812 22.765625 4.625 22.449219 C 3.957031 23.109375 2.3125 24.738281 2.3125 24.738281 L 8.128906 23.292969 L 8.546875 22.84375 C 8.792969 23.121094 9.277344 23.691406 9.53125 24.25 C 9.53125 24.25 10.238281 24.066406 10.859375 24.261719 L 13.675781 25 C 13.675781 25 13.253906 24.464844 12.644531 23.59375 L 25.347656 23.359375 L 25.488281 23.179688 L 25.984375 23.742188 L 26.792969 23.238281 L 27.296875 23.566406 C 27.632812 23.648438 27.863281 23.617188 29.292969 22.960938 C 30.648438 22.34375 31.023438 21.660156 31.082031 21.167969 L 33.414062 19.015625 C 33.414062 19.015625 30.996094 18.980469 30.328125 18.976562 "/>
<path style=" stroke:none;fill-rule:nonzero;fill:rgb(0%,0%,0%);fill-opacity:1;" d="M 32.601562 19.324219 L 30.804688 19.296875 C 30.734375 19.296875 30.496094 19.296875 30.167969 19.316406 L 29.0625 17.570312 L 29.0625 15.375 L 30.144531 13.683594 L 28.324219 13.679688 C 28.113281 12.527344 27.824219 11.273438 27.457031 10.289062 C 26.816406 8.613281 26 7.003906 24.875 5.550781 C 22.414062 2.410156 18.785156 0.40625 15.1875 0.339844 C 13.722656 0.242188 12.394531 0.667969 11.164062 1.234375 C 9.660156 1.320312 8.25 1.695312 7.191406 2.789062 C 7.023438 3.015625 6.835938 3.257812 6.886719 3.554688 C 6.4375 3.890625 5.933594 4.335938 6.054688 4.945312 C 5.996094 5.050781 5.847656 4.996094 5.757812 5.058594 C 4.917969 5.433594 4.78125 6.277344 4.925781 7.183594 C 5.195312 8.746094 5.785156 10.230469 7.035156 11.332031 C 7.035156 11.332031 6.992188 10.390625 7.289062 10.039062 C 7.585938 9.6875 7.785156 9.730469 7.949219 9.730469 C 8.109375 9.730469 8.316406 9.789062 8.566406 9.925781 C 9.160156 10.214844 9.632812 10.855469 9.617188 11.542969 C 9.601562 12.335938 8.925781 13.089844 8.132812 13.671875 L 5.855469 13.671875 L 6.929688 15.367188 L 6.929688 17.515625 L 5.597656 19.671875 C 5.210938 19.769531 4.976562 19.839844 4.945312 19.847656 L 4.796875 19.890625 L 4.683594 19.988281 C 4.113281 20.472656 2.363281 22.847656 2.363281 22.847656 C 2.363281 22.847656 5.332031 21.863281 5.820312 21.746094 C 5.464844 22.066406 3.375 24.140625 3.375 24.140625 L 7.957031 23 L 8.546875 22.375 C 8.875 22.6875 9.242188 23.171875 9.453125 23.507812 L 9.691406 23.886719 C 9.691406 23.886719 10.136719 23.839844 10.136719 23.839844 C 10.339844 23.820312 10.730469 23.890625 10.941406 23.949219 L 12.863281 24.464844 C 12.863281 24.464844 12.367188 23.761719 12.027344 23.28125 L 25.1875 23.039062 L 25.476562 22.675781 L 26.046875 23.324219 L 26.800781 22.851562 C 26.800781 22.851562 27.070312 23.085938 27.304688 23.167969 C 27.535156 23.253906 27.769531 23.324219 29.15625 22.667969 C 30.878906 21.855469 30.769531 21.015625 30.769531 21.015625 Z M 32.601562 19.324219 "/>
<path style=" stroke:none;fill-rule:nonzero;fill:rgb(80.784314%,6.666667%,0%);fill-opacity:1;" d="M 22.945312 4.585938 C 23.710938 5.363281 24.785156 7.144531 25.441406 8.679688 C 26.59375 11.410156 27.027344 13.671875 27.027344 13.671875 L 26.554688 13.679688 C 26.554688 13.679688 25.28125 12.867188 24.410156 12.414062 C 23.539062 11.964844 22.453125 11.609375 22.453125 11.609375 C 23.707031 12.542969 24.632812 13.949219 24.632812 13.949219 L 23.789062 15.394531 L 22.753906 13.675781 L 15.695312 13.660156 C 15.695312 13.660156 15.699219 12.417969 14.699219 11.636719 C 15.261719 11.671875 15.714844 11.859375 15.722656 11.828125 C 14.738281 10.238281 13.519531 9.9375 13.519531 9.9375 C 14.597656 10.078125 16.191406 10.945312 16.191406 10.945312 C 16.070312 8.941406 15.304688 7.640625 14.300781 7.453125 C 12.980469 7.105469 11.542969 6.980469 10.121094 6.929688 C 10.394531 6.488281 10.484375 6.058594 10.433594 5.449219 C 10.390625 4.640625 9.847656 4.253906 9.304688 3.796875 C 9.132812 3.605469 9.25 3.210938 9.460938 2.84375 C 9.132812 2.898438 8.882812 3.113281 8.652344 3.355469 C 8.398438 3.367188 8.078125 3.371094 7.835938 3.363281 C 7.910156 2.96875 8.226562 2.628906 8.582031 2.476562 C 9.15625 2.214844 9.761719 1.953125 10.363281 1.859375 C 10.363281 1.859375 9.832031 2.234375 9.730469 2.660156 C 10.910156 1.628906 12.453125 1.339844 13.960938 1.070312 C 17.484375 0.722656 20.433594 2.285156 22.945312 4.585938 M 12.847656 4.074219 C 12.15625 4.40625 11.046875 4.683594 10.25 4.222656 C 10.597656 4.574219 10.683594 4.800781 10.773438 5.007812 C 12.039062 4.859375 12.566406 6.265625 13.582031 6.757812 C 14.265625 7.105469 14.925781 6.949219 14.925781 6.949219 C 14.925781 6.949219 13.566406 6.53125 13.449219 6.023438 C 15.375 6.675781 16.082031 5.152344 16.082031 5.152344 C 14.652344 6.320312 12.894531 5.414062 12.40625 4.8125 C 12.605469 4.683594 12.820312 4.585938 13.03125 4.46875 C 13.433594 5.058594 14.257812 5.199219 14.972656 5.089844 C 15.816406 4.878906 16.015625 4.09375 15.917969 3.71875 C 16.359375 3.632812 17.59375 3.886719 17.898438 4.074219 C 17.6875 4.179688 17.496094 4.394531 17.40625 4.617188 C 18.09375 4.523438 19.191406 4.6875 19.90625 4.996094 C 19.808594 4.660156 19.484375 4.347656 19.253906 4.074219 C 18.4375 3.429688 17.457031 3.175781 16.394531 3.113281 C 15.113281 3.09375 13.933594 3.53125 12.847656 4.074219 M 19.480469 3.667969 C 20.160156 4.203125 21.023438 4.773438 21.0625 5.710938 C 21.109375 6.980469 20.1875 7.546875 19.164062 8.007812 C 18.761719 8.109375 18.074219 8.335938 17.632812 8.289062 C 19.890625 8.84375 21.828125 9.539062 24.15625 10.957031 C 24.15625 10.957031 23.339844 8.894531 21.375 7.671875 C 22.25 7.796875 23.082031 8.105469 23.808594 8.636719 C 23.808594 8.636719 23.109375 7.277344 21.886719 6.476562 C 22.136719 5.238281 20.382812 3.953125 19.480469 3.667969 "/>
<path style=" stroke:none;fill-rule:nonzero;fill:rgb(65.490196%,66.27451%,67.45098%);fill-opacity:1;" d="M 8.375 3.882812 C 8.878906 3.960938 9.347656 4.355469 9.566406 4.832031 C 9.917969 5.550781 10.046875 6.695312 9.511719 7.375 C 9.535156 7.390625 11.941406 7.15625 14.464844 7.984375 C 15.113281 8.351562 15.417969 9.230469 15.488281 9.9375 L 14.878906 9.625 C 13.5625 8.902344 11.789062 8.746094 10.183594 8.800781 C 9.28125 8.875 8.375 8.769531 7.664062 9.234375 C 7.761719 9.058594 7.9375 8.871094 8.085938 8.710938 C 8.699219 8.246094 9.667969 8.375 10.546875 8.300781 C 12.003906 8.359375 13.457031 8.488281 14.671875 9.128906 C 14.488281 8.367188 13.660156 8.191406 13.058594 8.082031 C 11.628906 7.859375 10.03125 7.734375 8.601562 7.949219 C 7.386719 8.164062 6.984375 9.460938 6.769531 10.464844 C 6.234375 9.488281 5.871094 8.445312 5.707031 7.316406 C 5.695312 6.777344 5.542969 6.15625 5.96875 5.761719 C 6.335938 5.601562 6.882812 5.691406 7.246094 5.875 C 7.949219 6.230469 8.539062 6.777344 8.878906 7.445312 C 8.800781 6.703125 8.515625 5.699219 6.964844 5.171875 C 6.863281 5.085938 6.546875 5.171875 6.65625 4.910156 C 6.957031 4.25 7.652344 3.871094 8.375 3.882812 M 8.011719 5.5 C 8.300781 5.410156 8.59375 5.246094 8.84375 5.203125 C 9.019531 5.347656 9.132812 5.488281 9.269531 5.664062 C 9.347656 5.398438 9.078125 4.550781 8.730469 4.875 C 8.480469 5.050781 8.199219 5.226562 8.011719 5.5 "/>
<path style=" stroke:none;fill-rule:nonzero;fill:rgb(65.490196%,66.27451%,67.45098%);fill-opacity:1;" d="M 15.039062 18.050781 L 14.78125 18.046875 L 14.789062 14.894531 L 15.0625 14.882812 L 15.5 14.164062 L 13.121094 14.148438 L 13.5625 14.890625 L 13.8125 14.890625 L 13.8125 18.046875 L 13.554688 18.046875 L 13.105469 18.78125 L 15.464844 18.769531 Z M 15.039062 18.050781 "/>
<path style=" stroke:none;fill-rule:nonzero;fill:rgb(65.490196%,66.27451%,67.45098%);fill-opacity:1;" d="M 28.839844 18.050781 L 28.601562 18.046875 L 28.589844 14.894531 L 28.859375 14.882812 L 29.296875 14.164062 L 26.917969 14.148438 L 27.363281 14.890625 L 27.621094 14.890625 L 27.609375 18.046875 L 27.351562 18.046875 L 26.902344 18.78125 L 29.261719 18.769531 Z M 28.839844 18.050781 "/>
<path style=" stroke:none;fill-rule:nonzero;fill:rgb(65.490196%,66.27451%,67.45098%);fill-opacity:1;" d="M 12.132812 18.042969 L 11.875 18.042969 L 11.875 14.890625 L 12.132812 14.890625 L 12.578125 14.152344 L 10.945312 14.152344 L 9.640625 16.375 L 8.335938 14.152344 L 6.703125 14.152344 L 7.148438 14.890625 L 7.410156 14.890625 L 7.410156 18.042969 L 7.148438 18.042969 L 6.703125 18.78125 L 9.082031 18.78125 L 8.636719 18.042969 L 8.378906 18.042969 L 8.378906 15.898438 L 9.640625 18.046875 L 10.898438 15.898438 L 10.898438 18.042969 L 10.640625 18.042969 L 10.195312 18.78125 L 12.578125 18.78125 Z M 12.132812 18.042969 "/>
<path style=" stroke:none;fill-rule:nonzero;fill:rgb(65.490196%,66.27451%,67.45098%);fill-opacity:1;" d="M 26.273438 18.042969 L 26.015625 18.042969 L 26.015625 14.890625 L 26.273438 14.890625 L 26.71875 14.152344 L 25.085938 14.152344 L 23.78125 16.375 L 22.476562 14.152344 L 20.847656 14.152344 L 21.289062 14.890625 L 21.550781 14.890625 L 21.550781 18.042969 L 21.289062 18.042969 L 20.84375 18.78125 L 23.222656 18.78125 L 22.777344 18.042969 L 22.519531 18.042969 L 22.519531 15.898438 L 23.78125 18.046875 L 25.042969 15.898438 L 25.042969 18.042969 L 24.78125 18.042969 L 24.335938 18.78125 L 26.71875 18.78125 Z M 26.273438 18.042969 "/>
<path style=" stroke:none;fill-rule:nonzero;fill:rgb(65.490196%,66.27451%,67.45098%);fill-opacity:1;" d="M 20.652344 18.78125 L 18.324219 18.78125 L 18.769531 18.042969 L 18.976562 18.042969 L 18.773438 17.421875 L 17.554688 17.421875 L 17.351562 18.042969 L 17.550781 18.042969 L 17.996094 18.78125 L 15.679688 18.78125 L 16.121094 18.042969 L 16.324219 18.042969 L 17.347656 14.890625 L 17.101562 14.890625 L 16.65625 14.152344 L 19.707031 14.152344 L 19.261719 14.890625 L 18.980469 14.890625 L 20.011719 18.042969 L 20.203125 18.042969 Z M 18.160156 15.542969 L 17.839844 16.53125 L 18.484375 16.53125 Z M 18.160156 15.542969 "/>
<path style=" stroke:none;fill-rule:nonzero;fill:rgb(100%,100%,100%);fill-opacity:1;" d="M 14.371094 3.847656 C 14.289062 3.863281 14.214844 3.882812 14.136719 3.90625 C 14.152344 3.945312 14.328125 4.160156 13.996094 4.355469 C 13.828125 4.449219 13.550781 4.316406 13.488281 4.203125 C 13.421875 4.242188 13.351562 4.285156 13.277344 4.335938 C 13.464844 4.53125 13.695312 4.671875 13.988281 4.664062 C 14.136719 4.644531 14.265625 4.585938 14.386719 4.484375 C 14.644531 4.199219 14.371094 3.847656 14.371094 3.847656 "/>
<path style=" stroke:none;fill-rule:nonzero;fill:rgb(100%,100%,100%);fill-opacity:1;" d="M 14.621094 18.207031 L 14.617188 14.734375 L 14.972656 14.746094 L 15.214844 14.296875 L 13.402344 14.3125 L 13.652344 14.730469 L 13.996094 14.730469 L 13.996094 18.207031 L 13.644531 18.203125 L 13.40625 18.625 L 15.179688 18.632812 L 14.949219 18.210938 Z M 14.621094 18.207031 "/>
<path style=" stroke:none;fill-rule:nonzero;fill:rgb(100%,100%,100%);fill-opacity:1;" d="M 28.417969 18.207031 L 28.414062 14.734375 L 28.773438 14.722656 L 29.011719 14.296875 L 27.199219 14.3125 L 27.449219 14.730469 L 27.769531 14.730469 L 27.769531 18.207031 L 27.441406 18.203125 L 27.1875 18.625 L 29 18.609375 L 28.746094 18.210938 Z M 28.417969 18.207031 "/>
<path style=" stroke:none;fill-rule:nonzero;fill:rgb(100%,100%,100%);fill-opacity:1;" d="M 20.367188 18.625 L 18.609375 18.625 L 18.859375 18.203125 L 19.195312 18.203125 L 18.890625 17.261719 L 17.4375 17.261719 L 17.132812 18.203125 L 17.460938 18.203125 L 17.714844 18.625 L 15.960938 18.625 L 16.214844 18.203125 L 16.4375 18.203125 L 17.570312 14.730469 L 17.191406 14.730469 L 16.9375 14.308594 L 19.425781 14.308594 L 19.171875 14.730469 L 18.757812 14.730469 L 19.894531 18.203125 L 20.113281 18.203125 Z M 17.617188 16.691406 L 18.703125 16.691406 L 18.160156 15.027344 Z M 17.617188 16.691406 "/>
<path style=" stroke:none;fill-rule:nonzero;fill:rgb(100%,100%,100%);fill-opacity:1;" d="M 25.855469 18.203125 L 25.855469 14.730469 L 26.183594 14.730469 L 26.4375 14.308594 L 25.179688 14.308594 L 23.78125 16.691406 L 22.386719 14.308594 L 21.128906 14.308594 L 21.382812 14.730469 L 21.710938 14.730469 L 21.710938 18.203125 L 21.382812 18.203125 L 21.128906 18.625 L 22.941406 18.625 L 22.6875 18.203125 L 22.359375 18.203125 L 22.359375 15.3125 L 23.78125 17.730469 L 25.226562 15.3125 L 25.226562 18.203125 L 24.871094 18.203125 L 24.617188 18.625 L 26.4375 18.625 L 26.183594 18.203125 Z M 25.855469 18.203125 "/>
<path style=" stroke:none;fill-rule:nonzero;fill:rgb(100%,100%,100%);fill-opacity:1;" d="M 11.714844 18.203125 L 11.714844 14.730469 L 12.042969 14.730469 L 12.296875 14.308594 L 11.039062 14.308594 L 9.640625 16.691406 L 8.246094 14.308594 L 6.988281 14.308594 L 7.238281 14.730469 L 7.570312 14.730469 L 7.570312 18.203125 L 7.238281 18.203125 L 6.988281 18.625 L 8.800781 18.625 L 8.546875 18.203125 L 8.21875 18.203125 L 8.21875 15.3125 L 9.640625 17.730469 L 11.058594 15.3125 L 11.058594 18.203125 L 10.730469 18.203125 L 10.476562 18.625 L 12.296875 18.625 L 12.042969 18.203125 Z M 11.714844 18.203125 "/>
<path style=" stroke:none;fill-rule:nonzero;fill:rgb(80.784314%,6.666667%,0%);fill-opacity:1;" d="M 13.691406 20.851562 L 12.988281 20.867188 L 12.6875 21.261719 L 13.277344 21.25 L 12.972656 21.644531 L 12.382812 21.65625 L 11.984375 22.171875 L 12.707031 22.160156 L 12.402344 22.554688 L 10.847656 22.585938 L 12.160156 20.878906 L 11.839844 20.886719 L 12.148438 20.492188 L 13.996094 20.460938 Z M 13.691406 20.851562 "/>
<path style=" stroke:none;fill-rule:nonzero;fill:rgb(80.784314%,6.666667%,0%);fill-opacity:1;" d="M 20.285156 22.410156 L 19.496094 22.425781 L 19.691406 22.039062 L 19.207031 22.050781 L 18.808594 22.4375 L 18.027344 22.453125 L 20.148438 20.347656 L 21.355469 20.324219 Z M 20.46875 20.71875 L 20.425781 20.722656 L 19.570312 21.652344 L 19.933594 21.648438 Z M 20.46875 20.71875 "/>
<path style=" stroke:none;fill-rule:nonzero;fill:rgb(80.784314%,6.666667%,0%);fill-opacity:1;" d="M 23.039062 22.359375 L 22.304688 22.375 L 22.695312 21.480469 L 22.597656 21.484375 L 21.777344 22.382812 L 21.042969 22.398438 L 21.707031 20.316406 L 22.664062 20.300781 L 22.273438 21.347656 L 23.246094 20.289062 L 23.664062 20.28125 L 23.210938 21.332031 L 24.242188 20.273438 L 25.203125 20.253906 Z M 23.039062 22.359375 "/>
<path style=" stroke:none;fill-rule:nonzero;fill:rgb(80.784314%,6.666667%,0%);fill-opacity:1;" d="M 25.757812 21.125 L 27 20.222656 L 27.285156 20.605469 L 26.210938 21.328125 L 26.738281 22.046875 L 26.183594 22.390625 L 25.441406 21.554688 L 24.835938 22.328125 L 24 22.34375 L 25.613281 20.246094 L 26.445312 20.230469 Z M 25.757812 21.125 "/>
<path style=" stroke:none;fill-rule:nonzero;fill:rgb(80.784314%,6.666667%,0%);fill-opacity:1;" d="M 30.792969 20.015625 L 30.207031 20.558594 C 28.894531 20.558594 28.238281 21.0625 28.238281 21.0625 L 30.050781 21.035156 C 30.050781 21.035156 30.027344 21.480469 28.859375 22.015625 C 27.691406 22.546875 27.601562 22.527344 27.601562 22.527344 L 26.957031 22.089844 C 26.957031 22.089844 28.164062 21.878906 28.691406 21.449219 L 27.050781 21.476562 C 27.050781 21.476562 27.050781 21.136719 27.375 20.882812 C 28.535156 19.980469 30.792969 20.015625 30.792969 20.015625 "/>
<path style=" stroke:none;fill-rule:nonzero;fill:rgb(80.784314%,6.666667%,0%);fill-opacity:1;" d="M 16.363281 20.714844 L 15.21875 22.203125 L 14.445312 22.519531 L 12.972656 22.546875 L 14.28125 20.839844 L 14 20.847656 L 14.3125 20.453125 L 16.027344 20.421875 Z M 15.460938 20.820312 L 15.113281 20.828125 L 14.109375 22.132812 L 14.457031 22.128906 Z M 15.460938 20.820312 "/>
<path style=" stroke:none;fill-rule:nonzero;fill:rgb(80.784314%,6.666667%,0%);fill-opacity:1;" d="M 19.253906 20.242188 L 19.953125 19.332031 L 19.117188 19.34375 L 18.253906 20.480469 C 18.015625 20.550781 17.792969 20.628906 17.585938 20.714844 L 18.589844 19.355469 L 17.183594 19.378906 L 16.792969 19.898438 L 17.375 19.882812 L 15.417969 22.488281 L 16.238281 22.484375 L 17.066406 21.40625 C 17.339844 21.230469 17.625 21.074219 17.910156 20.933594 L 16.722656 22.476562 L 17.558594 22.460938 L 19.121094 20.417969 C 19.609375 20.238281 19.949219 20.144531 19.949219 20.144531 C 19.703125 20.171875 19.472656 20.203125 19.253906 20.242188 "/>
<path style=" stroke:none;fill-rule:nonzero;fill:rgb(80.784314%,6.666667%,0%);fill-opacity:1;" d="M 9.667969 21.425781 C 9.667969 21.425781 10.429688 22.265625 11.128906 23.253906 C 11.128906 23.253906 10.492188 23.082031 10.0625 23.125 C 10.0625 23.125 9.199219 21.75 8.445312 21.429688 L 7.578125 22.355469 L 5.726562 22.816406 C 5.726562 22.816406 7.152344 21.398438 8.742188 20.40625 C 8.742188 20.40625 6.953125 20.632812 4.304688 21.425781 C 4.304688 21.425781 4.632812 20.972656 5.148438 20.535156 C 5.148438 20.535156 8.1875 19.636719 11.558594 19.484375 C 11.558594 19.484375 12.136719 19.992188 12.226562 20.066406 C 12.226562 20.066406 11.832031 20.757812 9.667969 21.425781 M 11.386719 19.929688 C 11.386719 19.929688 10.613281 20.042969 9.710938 20.226562 C 9.710938 20.226562 8.925781 20.914062 8.660156 21.179688 C 8.660156 21.179688 10.589844 21.039062 11.386719 19.929688 "/>
</g>
</svg>
