<?xml version="1.0" encoding="UTF-8"?>
<svg xmlns="http://www.w3.org/2000/svg" xmlns:xlink="http://www.w3.org/1999/xlink" width="35pt" height="25pt" viewBox="0 0 35 25" version="1.1">
<g id="surface1">
<path style=" stroke:none;fill-rule:nonzero;fill:rgb(70.980392%,70.980392%,70.980392%);fill-opacity:1;" d="M 14.328125 0.0195312 C 14.660156 -0.0703125 14.964844 0.175781 15.097656 0.460938 C 15.410156 1.109375 15.769531 1.742188 16.222656 2.300781 C 16.421875 1.734375 16.65625 1.144531 17.121094 0.742188 C 17.394531 0.503906 17.765625 0.351562 18.128906 0.417969 C 18.390625 0.484375 18.539062 0.738281 18.6875 0.945312 C 19.21875 1.738281 19.6875 2.570312 20.160156 3.402344 C 20.433594 3.414062 20.707031 3.4375 20.980469 3.457031 C 21.164062 2.960938 21.339844 2.460938 21.542969 1.976562 C 22.445312 3.09375 23.335938 4.226562 24.234375 5.351562 C 24.375 5.550781 24.574219 5.71875 24.664062 5.953125 C 26.101562 6.234375 27.542969 6.507812 28.980469 6.800781 C 29.257812 7.484375 29.679688 8.097656 30.082031 8.714844 C 30.140625 8.820312 30.269531 8.914062 30.242188 9.050781 C 30.128906 9.921875 29.820312 10.785156 29.253906 11.464844 C 28.605469 12.253906 27.644531 12.757812 26.644531 12.929688 C 25.898438 13.042969 25.15625 13.1875 24.410156 13.308594 C 24.351562 13.328125 24.261719 13.320312 24.230469 13.386719 C 24.007812 13.78125 23.921875 14.238281 23.894531 14.6875 C 25.472656 14.691406 27.050781 14.6875 28.632812 14.691406 C 28.367188 15.390625 28.082031 16.085938 27.835938 16.792969 C 27.8125 18.21875 27.835938 19.644531 27.824219 21.066406 C 27.808594 21.269531 27.921875 21.441406 27.996094 21.621094 C 28.242188 22.199219 28.5 22.773438 28.734375 23.355469 C 27.941406 23.351562 27.144531 23.332031 26.351562 23.328125 C 26.644531 23.890625 26.96875 24.433594 27.261719 24.996094 C 20.21875 25.003906 13.179688 25 6.136719 24.996094 C 6.367188 24.445312 6.628906 23.90625 6.855469 23.355469 C 6.082031 23.355469 5.304688 23.363281 4.53125 23.351562 C 4.777344 22.785156 5.042969 22.230469 5.296875 21.667969 C 5.355469 21.523438 5.457031 21.386719 5.453125 21.222656 C 5.449219 19.777344 5.453125 18.332031 5.449219 16.890625 C 5.453125 16.753906 5.378906 16.640625 5.328125 16.519531 C 5.050781 15.914062 4.777344 15.300781 4.5 14.691406 C 5.121094 14.683594 5.742188 14.695312 6.367188 14.683594 C 6.539062 13.136719 7.023438 11.625 7.78125 10.261719 C 8.785156 8.433594 10.21875 6.851562 11.914062 5.636719 C 11.898438 4.027344 12.160156 2.316406 13.15625 1.003906 C 13.480469 0.613281 13.808594 0.148438 14.328125 0.0195312 M 14.179688 0.566406 C 13.625 1.054688 13.1875 1.679688 12.902344 2.363281 C 12.445312 3.464844 12.347656 4.679688 12.371094 5.859375 C 12.265625 5.984375 12.109375 6.058594 11.984375 6.164062 C 10.730469 7.136719 9.628906 8.304688 8.746094 9.621094 C 7.617188 11.277344 6.878906 13.210938 6.691406 15.210938 C 6.230469 15.210938 5.769531 15.210938 5.3125 15.210938 C 5.519531 15.675781 5.730469 16.136719 5.9375 16.597656 C 5.984375 16.691406 5.972656 16.792969 5.976562 16.890625 C 5.96875 18.402344 5.980469 19.914062 5.96875 21.421875 C 5.785156 21.902344 5.542969 22.359375 5.339844 22.832031 C 6.019531 22.835938 6.703125 22.832031 7.386719 22.835938 C 7.378906 23.011719 7.414062 23.195312 7.34375 23.363281 C 7.199219 23.734375 7.058594 24.105469 6.917969 24.472656 C 13.441406 24.480469 19.964844 24.472656 26.484375 24.476562 C 26.28125 24.085938 26.054688 23.707031 25.84375 23.316406 C 25.792969 23.164062 25.828125 22.992188 25.820312 22.835938 C 26.53125 22.832031 27.238281 22.835938 27.945312 22.832031 C 27.746094 22.363281 27.542969 21.890625 27.339844 21.421875 C 27.285156 21.308594 27.304688 21.183594 27.300781 21.066406 C 27.304688 19.640625 27.304688 18.214844 27.304688 16.789062 C 27.300781 16.71875 27.316406 16.652344 27.34375 16.585938 C 27.519531 16.128906 27.695312 15.671875 27.871094 15.210938 C 26.390625 15.210938 24.914062 15.214844 23.4375 15.210938 C 23.410156 14.421875 23.511719 13.585938 23.980469 12.929688 C 24.863281 12.765625 25.75 12.613281 26.636719 12.472656 C 27.464844 12.316406 28.253906 11.90625 28.816406 11.277344 C 29.355469 10.671875 29.664062 9.886719 29.773438 9.085938 C 29.386719 8.464844 28.957031 7.859375 28.648438 7.191406 C 27.066406 6.886719 25.484375 6.574219 23.902344 6.265625 C 23.972656 6.152344 24.039062 6.035156 24.109375 5.917969 C 23.296875 4.90625 22.492188 3.886719 21.679688 2.875 C 21.546875 3.238281 21.40625 3.597656 21.277344 3.960938 C 20.820312 3.894531 20.359375 3.855469 19.894531 3.855469 C 19.519531 3.183594 19.121094 2.523438 18.734375 1.855469 C 18.550781 1.570312 18.375 1.277344 18.171875 1.007812 C 18.117188 0.949219 18.074219 0.855469 17.984375 0.855469 C 17.632812 0.859375 17.347656 1.109375 17.152344 1.378906 C 16.761719 1.9375 16.59375 2.617188 16.464844 3.277344 C 15.726562 2.519531 15.148438 1.617188 14.691406 0.667969 C 14.609375 0.457031 14.339844 0.40625 14.179688 0.566406 Z M 14.179688 0.566406 "/>
<path style=" stroke:none;fill-rule:nonzero;fill:rgb(0%,0%,0%);fill-opacity:1;" d="M 14.179688 0.566406 C 14.339844 0.40625 14.609375 0.457031 14.691406 0.667969 C 15.148438 1.617188 15.726562 2.519531 16.464844 3.277344 C 16.59375 2.617188 16.761719 1.9375 17.152344 1.378906 C 17.347656 1.109375 17.632812 0.859375 17.984375 0.855469 C 18.074219 0.855469 18.117188 0.949219 18.171875 1.007812 C 18.375 1.277344 18.550781 1.570312 18.734375 1.855469 C 19.121094 2.523438 19.519531 3.183594 19.894531 3.855469 C 20.359375 3.855469 20.820312 3.894531 21.277344 3.960938 C 21.40625 3.597656 21.546875 3.238281 21.679688 2.875 C 22.492188 3.886719 23.296875 4.90625 24.109375 5.917969 C 24.039062 6.035156 23.972656 6.152344 23.902344 6.265625 C 25.484375 6.574219 27.066406 6.886719 28.648438 7.191406 C 28.957031 7.859375 29.386719 8.464844 29.773438 9.085938 C 29.664062 9.886719 29.355469 10.671875 28.816406 11.277344 C 28.253906 11.90625 27.464844 12.316406 26.636719 12.472656 C 25.75 12.613281 24.863281 12.765625 23.980469 12.929688 C 23.511719 13.585938 23.410156 14.421875 23.4375 15.210938 C 24.914062 15.214844 26.390625 15.210938 27.871094 15.210938 C 27.695312 15.671875 27.519531 16.128906 27.34375 16.585938 C 27.316406 16.652344 27.300781 16.71875 27.304688 16.789062 C 27.304688 18.214844 27.304688 19.640625 27.300781 21.066406 C 27.304688 21.183594 27.285156 21.308594 27.339844 21.421875 C 27.542969 21.890625 27.746094 22.363281 27.945312 22.832031 C 27.238281 22.835938 26.53125 22.832031 25.820312 22.835938 C 25.828125 22.992188 25.792969 23.164062 25.84375 23.316406 C 26.054688 23.707031 26.28125 24.085938 26.484375 24.476562 C 19.964844 24.472656 13.441406 24.480469 6.917969 24.472656 C 7.058594 24.105469 7.199219 23.734375 7.34375 23.363281 C 7.414062 23.195312 7.378906 23.011719 7.386719 22.835938 C 6.703125 22.832031 6.019531 22.835938 5.339844 22.832031 C 5.542969 22.359375 5.785156 21.902344 5.96875 21.421875 C 5.980469 19.914062 5.96875 18.402344 5.976562 16.890625 C 5.972656 16.792969 5.984375 16.691406 5.9375 16.597656 C 5.730469 16.136719 5.519531 15.675781 5.3125 15.210938 C 5.769531 15.210938 6.230469 15.210938 6.691406 15.210938 C 6.878906 13.210938 7.617188 11.277344 8.746094 9.621094 C 9.628906 8.304688 10.730469 7.136719 11.984375 6.164062 C 12.109375 6.058594 12.265625 5.984375 12.371094 5.859375 C 12.347656 4.679688 12.445312 3.464844 12.902344 2.363281 C 13.1875 1.679688 13.625 1.054688 14.179688 0.566406 M 13.261719 5.433594 C 13.933594 5.023438 14.648438 4.671875 15.414062 4.460938 C 14.75 3.917969 14.289062 3.160156 14.027344 2.347656 C 13.484375 3.277344 13.257812 4.367188 13.261719 5.433594 M 21.804688 4.378906 C 21.785156 4.644531 21.761719 4.910156 21.742188 5.175781 C 21.460938 5.019531 21.171875 4.867188 20.847656 4.820312 C 20.535156 4.765625 20.21875 4.824219 19.917969 4.910156 C 19.652344 4.988281 19.382812 5.121094 19.222656 5.359375 C 19.03125 5.660156 19.074219 6.0625 19.242188 6.363281 C 18.753906 6.054688 18.070312 6.046875 17.609375 6.414062 C 17.335938 6.621094 17.199219 6.992188 17.304688 7.328125 C 16.277344 7 15.105469 6.9375 14.128906 7.453125 C 13.535156 7.753906 13.070312 8.261719 12.742188 8.832031 C 13.523438 8.636719 14.371094 8.652344 15.136719 8.917969 C 13.792969 9.375 12.808594 10.542969 12.269531 11.816406 C 13.050781 11.457031 13.921875 11.367188 14.765625 11.246094 C 13.621094 12.003906 12.785156 13.261719 12.667969 14.644531 C 13.902344 13.53125 15.46875 12.824219 17.097656 12.53125 C 16.195312 13.414062 15.339844 14.398438 14.867188 15.585938 C 15.414062 15.203125 16.035156 14.929688 16.679688 14.773438 C 17.632812 14.539062 18.613281 14.457031 19.59375 14.480469 C 19.421875 14.769531 19.257812 15.0625 19.078125 15.347656 C 19.765625 15.324219 20.457031 15.34375 21.144531 15.296875 C 21.429688 14.734375 21.734375 14.1875 21.988281 13.613281 C 21.46875 13.816406 20.949219 14.019531 20.429688 14.222656 C 20.753906 13.664062 21.105469 13.125 21.414062 12.5625 C 20.914062 12.621094 20.410156 12.679688 19.90625 12.722656 C 20.183594 12.34375 20.511719 11.996094 20.773438 11.601562 C 22.722656 11.515625 24.679688 11.472656 26.632812 11.390625 C 27.414062 10.996094 28.160156 10.347656 28.34375 9.457031 C 28.460938 9.695312 28.546875 9.949219 28.566406 10.214844 C 28.734375 9.9375 28.855469 9.636719 28.980469 9.339844 C 28.847656 9.050781 28.703125 8.765625 28.570312 8.476562 C 28.484375 8.667969 28.417969 8.871094 28.328125 9.058594 C 28.222656 8.859375 28.128906 8.632812 27.929688 8.511719 C 27.789062 8.421875 27.605469 8.492188 27.488281 8.585938 C 27.261719 8.785156 27.242188 9.113281 27.242188 9.394531 C 26.984375 9.242188 26.71875 9.015625 26.707031 8.691406 C 26.691406 8.304688 26.960938 7.988281 27.21875 7.734375 C 25.800781 7.433594 24.390625 7.121094 22.972656 6.824219 C 23.074219 6.667969 23.183594 6.515625 23.292969 6.363281 C 22.832031 5.675781 22.351562 5 21.804688 4.378906 M 6.847656 15.210938 C 7.621094 15.214844 8.394531 15.210938 9.167969 15.214844 C 9.277344 14.421875 9.515625 13.640625 9.921875 12.945312 C 8.722656 13.421875 7.675781 14.234375 6.847656 15.210938 M 10.367188 15.214844 C 10.71875 15.210938 11.066406 15.214844 11.414062 15.210938 C 11.433594 14.988281 11.472656 14.765625 11.515625 14.546875 C 11.117188 14.738281 10.734375 14.964844 10.367188 15.214844 M 22.582031 14.773438 C 22.570312 14.921875 22.554688 15.066406 22.539062 15.210938 C 22.75 15.210938 22.960938 15.210938 23.171875 15.214844 C 22.957031 15.097656 22.761719 14.945312 22.582031 14.773438 M 6.363281 15.871094 C 6.441406 16.066406 6.617188 16.226562 6.644531 16.441406 C 6.648438 18.132812 6.644531 19.828125 6.648438 21.523438 C 6.667969 21.773438 6.488281 21.96875 6.402344 22.1875 C 7.179688 22.1875 7.953125 22.191406 8.730469 22.1875 C 8.640625 21.964844 8.464844 21.765625 8.484375 21.519531 C 8.488281 20.425781 8.484375 19.335938 8.484375 18.242188 C 10.246094 19.242188 12 20.25 13.757812 21.257812 C 13.757812 21.363281 13.757812 21.46875 13.753906 21.574219 C 13.761719 21.792969 13.625 21.980469 13.566406 22.1875 C 14.304688 22.1875 15.042969 22.191406 15.78125 22.1875 C 15.707031 21.996094 15.570312 21.828125 15.542969 21.625 C 15.539062 19.929688 15.542969 18.234375 15.539062 16.539062 C 15.519531 16.289062 15.699219 16.09375 15.78125 15.871094 C 15.027344 15.867188 14.273438 15.871094 13.519531 15.871094 C 13.597656 16.097656 13.789062 16.289062 13.757812 16.542969 C 13.753906 17.320312 13.761719 18.097656 13.757812 18.871094 C 11.988281 17.886719 10.238281 16.871094 8.46875 15.894531 C 7.769531 15.875 7.066406 15.878906 6.363281 15.871094 M 16.230469 15.871094 C 16.296875 16.101562 16.5 16.289062 16.472656 16.542969 C 16.472656 18.203125 16.46875 19.863281 16.46875 21.523438 C 16.484375 21.761719 16.339844 21.964844 16.269531 22.1875 C 17.007812 22.191406 17.75 22.1875 18.492188 22.1875 C 18.414062 22 18.277344 21.832031 18.25 21.625 C 18.246094 19.929688 18.25 18.234375 18.246094 16.539062 C 18.222656 16.289062 18.402344 16.089844 18.492188 15.871094 C 17.738281 15.867188 16.984375 15.871094 16.230469 15.871094 M 18.957031 15.871094 C 19.035156 16.09375 19.21875 16.289062 19.1875 16.539062 C 19.1875 18.050781 19.1875 19.558594 19.1875 21.066406 C 19.632812 21.425781 20.085938 21.78125 20.535156 22.140625 C 20.589844 22.203125 20.671875 22.203125 20.75 22.203125 C 22.191406 22.199219 23.628906 22.203125 25.070312 22.203125 C 25.546875 21.824219 26.023438 21.445312 26.5 21.066406 C 26.5 19.542969 26.5 18.019531 26.496094 16.492188 C 26.484375 16.261719 26.65625 16.082031 26.726562 15.871094 C 25.96875 15.871094 25.214844 15.867188 24.457031 15.871094 C 24.539062 16.09375 24.722656 16.289062 24.699219 16.539062 C 24.695312 17.75 24.703125 18.957031 24.695312 20.167969 C 24.703125 20.253906 24.628906 20.316406 24.585938 20.382812 C 24.507812 20.46875 24.445312 20.585938 24.324219 20.613281 C 24.125 20.667969 23.929688 20.765625 23.714844 20.757812 C 23.144531 20.757812 22.574219 20.757812 22.003906 20.757812 C 21.75 20.769531 21.511719 20.65625 21.277344 20.582031 C 21.160156 20.460938 21.015625 20.332031 20.988281 20.164062 C 20.988281 18.9375 20.992188 17.714844 20.988281 16.492188 C 20.980469 16.261719 21.148438 16.082031 21.222656 15.871094 C 20.46875 15.867188 19.714844 15.871094 18.957031 15.871094 M 25.957031 21.734375 C 25.996094 21.777344 26.046875 21.796875 26.101562 21.796875 C 26.136719 21.9375 26.03125 22.152344 26.160156 22.246094 C 26.167969 22.097656 26.164062 21.945312 26.164062 21.796875 C 26.222656 21.796875 26.269531 21.773438 26.308594 21.734375 C 26.191406 21.726562 26.074219 21.726562 25.957031 21.734375 M 26.398438 21.707031 C 26.386719 21.761719 26.363281 21.867188 26.351562 21.917969 C 26.375 21.925781 26.425781 21.941406 26.449219 21.949219 C 26.484375 22.046875 26.523438 22.140625 26.5625 22.238281 C 26.617188 22.125 26.667969 22.015625 26.71875 21.90625 C 26.769531 22.007812 26.707031 22.191406 26.839844 22.246094 C 26.8125 22.066406 26.777344 21.890625 26.738281 21.714844 C 26.683594 21.839844 26.628906 21.96875 26.558594 22.089844 C 26.507812 21.960938 26.453125 21.835938 26.398438 21.707031 M 26.335938 21.921875 C 26.328125 22.027344 26.3125 22.140625 26.300781 22.246094 C 26.417969 22.1875 26.40625 22.015625 26.335938 21.921875 M 10.933594 22.902344 C 10.960938 22.972656 11 23.046875 10.996094 23.128906 C 10.992188 23.359375 11.007812 23.597656 10.976562 23.828125 C 11.097656 23.894531 11.214844 23.972656 11.34375 24.027344 C 11.628906 24.039062 11.914062 24.039062 12.195312 24.027344 C 12.328125 23.972656 12.445312 23.894531 12.570312 23.824219 C 12.53125 23.59375 12.554688 23.359375 12.546875 23.125 C 12.539062 23.042969 12.582031 22.972656 12.613281 22.902344 C 12.398438 22.90625 12.179688 22.90625 11.960938 22.902344 C 12.085938 23.132812 12.007812 23.410156 12.023438 23.664062 C 11.921875 23.84375 11.488281 23.800781 11.558594 23.539062 C 11.578125 23.324219 11.507812 23.09375 11.628906 22.902344 C 11.398438 22.90625 11.167969 22.90625 10.933594 22.902344 M 13.828125 23.113281 C 13.828125 23.203125 13.828125 23.289062 13.828125 23.378906 C 13.914062 23.425781 13.992188 23.476562 14.082031 23.515625 C 14.25 23.5625 14.429688 23.546875 14.59375 23.605469 C 14.652344 23.675781 14.582031 23.742188 14.507812 23.753906 C 14.257812 23.773438 14.007812 23.761719 13.761719 23.703125 C 13.828125 23.8125 13.894531 23.925781 13.960938 24.035156 C 14.246094 24.027344 14.53125 24.042969 14.8125 24.027344 C 14.945312 23.972656 15.066406 23.890625 15.195312 23.824219 C 15.195312 23.71875 15.195312 23.613281 15.195312 23.507812 C 15.097656 23.457031 15.007812 23.394531 14.90625 23.359375 C 14.738281 23.324219 14.558594 23.320312 14.390625 23.273438 C 14.425781 23.210938 14.480469 23.152344 14.5625 23.164062 C 14.777344 23.152344 14.992188 23.15625 15.203125 23.207031 C 15.140625 23.105469 15.082031 23.007812 15.023438 22.90625 C 14.753906 22.90625 14.484375 22.894531 14.214844 22.910156 C 14.078125 22.960938 13.957031 23.046875 13.828125 23.113281 M 17.59375 22.902344 C 17.460938 23.082031 17.230469 23.140625 17.054688 23.261719 C 17.050781 23.136719 17.054688 23.007812 17.121094 22.902344 C 16.894531 22.90625 16.667969 22.90625 16.4375 22.902344 C 16.546875 23.074219 16.492188 23.285156 16.503906 23.480469 C 16.492188 23.664062 16.546875 23.871094 16.4375 24.035156 C 16.664062 24.03125 16.894531 24.03125 17.125 24.035156 C 17.035156 23.902344 17.054688 23.738281 17.058594 23.585938 C 17.125 23.550781 17.195312 23.515625 17.265625 23.480469 C 17.367188 23.660156 17.511719 23.824219 17.550781 24.035156 C 17.789062 24.035156 18.03125 24.035156 18.269531 24.03125 C 18.019531 23.820312 17.886719 23.511719 17.695312 23.253906 C 17.871094 23.128906 18.101562 23.074219 18.242188 22.90625 C 18.027344 22.898438 17.808594 22.90625 17.59375 22.902344 M 19.34375 22.902344 C 19.378906 22.976562 19.421875 23.046875 19.414062 23.132812 C 19.410156 23.371094 19.414062 23.605469 19.410156 23.839844 C 19.417969 23.910156 19.371094 23.972656 19.34375 24.035156 C 19.578125 24.03125 19.8125 24.03125 20.042969 24.035156 C 19.941406 23.867188 19.988281 23.667969 19.980469 23.480469 C 19.988281 23.289062 19.9375 23.078125 20.042969 22.902344 C 19.8125 22.90625 19.578125 22.902344 19.34375 22.902344 M 21.34375 22.902344 C 21.445312 23.082031 21.394531 23.292969 21.40625 23.488281 C 21.394531 23.671875 21.441406 23.871094 21.339844 24.035156 C 21.757812 24.03125 22.175781 24.035156 22.597656 24.035156 C 22.660156 23.921875 22.726562 23.8125 22.792969 23.703125 C 22.519531 23.769531 22.234375 23.769531 21.957031 23.75 C 21.957031 23.703125 21.957031 23.613281 21.957031 23.566406 C 22.105469 23.558594 22.25 23.574219 22.394531 23.605469 C 22.394531 23.492188 22.390625 23.378906 22.390625 23.265625 C 22.25 23.296875 22.105469 23.320312 21.964844 23.300781 C 21.960938 23.265625 21.953125 23.199219 21.949219 23.164062 C 22.210938 23.160156 22.476562 23.144531 22.734375 23.207031 C 22.671875 23.105469 22.613281 23.003906 22.550781 22.902344 C 22.148438 22.902344 21.746094 22.90625 21.34375 22.902344 M 24.242188 22.910156 C 24.109375 22.964844 23.988281 23.046875 23.859375 23.117188 C 23.859375 23.203125 23.863281 23.292969 23.863281 23.378906 C 23.949219 23.425781 24.035156 23.484375 24.128906 23.519531 C 24.308594 23.5625 24.496094 23.546875 24.667969 23.625 C 24.636719 23.6875 24.601562 23.761719 24.519531 23.753906 C 24.277344 23.773438 24.039062 23.757812 23.804688 23.703125 C 23.863281 23.8125 23.925781 23.921875 23.988281 24.027344 C 24.230469 24.035156 24.472656 24.03125 24.71875 24.035156 C 24.914062 24.050781 25.0625 23.898438 25.226562 23.824219 C 25.226562 23.714844 25.226562 23.609375 25.222656 23.5 C 25.128906 23.453125 25.042969 23.398438 24.949219 23.359375 C 24.773438 23.3125 24.578125 23.34375 24.417969 23.253906 C 24.445312 23.230469 24.496094 23.191406 24.527344 23.171875 C 24.761719 23.148438 25 23.15625 25.234375 23.207031 C 25.171875 23.105469 25.113281 23.003906 25.054688 22.902344 C 24.78125 22.910156 24.511719 22.894531 24.242188 22.910156 M 8.035156 22.902344 C 8.066406 22.972656 8.113281 23.042969 8.101562 23.128906 C 8.101562 23.363281 8.105469 23.601562 8.101562 23.839844 C 8.105469 23.914062 8.0625 23.972656 8.035156 24.035156 C 8.261719 24.03125 8.492188 24.03125 8.71875 24.035156 C 8.628906 23.894531 8.65625 23.726562 8.65625 23.566406 C 8.785156 23.578125 8.9375 23.535156 9.054688 23.585938 C 9.066406 23.738281 9.082031 23.902344 8.992188 24.035156 C 9.222656 24.03125 9.449219 24.03125 9.679688 24.035156 C 9.574219 23.871094 9.621094 23.667969 9.613281 23.484375 C 9.625 23.289062 9.570312 23.078125 9.675781 22.902344 C 9.449219 22.90625 9.222656 22.90625 8.996094 22.902344 C 9.070312 23.015625 9.0625 23.152344 9.0625 23.285156 C 8.925781 23.292969 8.789062 23.292969 8.652344 23.289062 C 8.652344 23.15625 8.644531 23.015625 8.71875 22.902344 C 8.492188 22.90625 8.265625 22.90625 8.035156 22.902344 Z M 8.035156 22.902344 "/>
<path style=" stroke:none;fill-rule:nonzero;fill:rgb(100%,100%,100%);fill-opacity:1;" d="M 13.261719 5.433594 C 13.257812 4.367188 13.484375 3.277344 14.027344 2.347656 C 14.289062 3.160156 14.75 3.917969 15.414062 4.460938 C 14.648438 4.671875 13.933594 5.023438 13.261719 5.433594 Z M 13.261719 5.433594 "/>
<path style=" stroke:none;fill-rule:nonzero;fill:rgb(100%,100%,100%);fill-opacity:1;" d="M 21.804688 4.378906 C 22.351562 5 22.832031 5.675781 23.292969 6.363281 C 23.183594 6.515625 23.074219 6.667969 22.972656 6.824219 C 24.390625 7.121094 25.800781 7.433594 27.21875 7.734375 C 26.960938 7.988281 26.691406 8.304688 26.707031 8.691406 C 26.71875 9.015625 26.984375 9.242188 27.242188 9.394531 C 27.242188 9.113281 27.261719 8.785156 27.488281 8.585938 C 27.605469 8.492188 27.789062 8.421875 27.929688 8.511719 C 28.128906 8.632812 28.222656 8.859375 28.328125 9.058594 C 28.417969 8.871094 28.484375 8.667969 28.570312 8.476562 C 28.703125 8.765625 28.847656 9.050781 28.980469 9.339844 C 28.855469 9.636719 28.734375 9.9375 28.566406 10.214844 C 28.546875 9.949219 28.460938 9.695312 28.34375 9.457031 C 28.160156 10.347656 27.414062 10.996094 26.632812 11.390625 C 24.679688 11.472656 22.722656 11.515625 20.773438 11.601562 C 19.875 11.660156 18.964844 11.917969 18.246094 12.480469 C 17.835938 12.792969 17.523438 13.21875 17.257812 13.65625 C 17.03125 14.011719 16.847656 14.390625 16.679688 14.773438 C 16.035156 14.929688 15.414062 15.203125 14.867188 15.585938 C 15.339844 14.398438 16.195312 13.414062 17.097656 12.53125 C 15.46875 12.824219 13.902344 13.53125 12.667969 14.644531 C 12.785156 13.261719 13.621094 12.003906 14.765625 11.246094 C 13.921875 11.367188 13.050781 11.457031 12.269531 11.816406 C 12.808594 10.542969 13.792969 9.375 15.136719 8.917969 C 14.371094 8.652344 13.523438 8.636719 12.742188 8.832031 C 13.070312 8.261719 13.535156 7.753906 14.128906 7.453125 C 15.105469 6.9375 16.277344 7 17.304688 7.328125 C 17.199219 6.992188 17.335938 6.621094 17.609375 6.414062 C 18.070312 6.046875 18.753906 6.054688 19.242188 6.363281 C 19.074219 6.0625 19.03125 5.660156 19.222656 5.359375 C 19.382812 5.121094 19.652344 4.988281 19.917969 4.910156 C 20.21875 4.824219 20.535156 4.765625 20.847656 4.820312 C 21.171875 4.867188 21.460938 5.019531 21.742188 5.175781 C 21.761719 4.910156 21.785156 4.644531 21.804688 4.378906 M 19.796875 5.53125 C 19.886719 5.839844 19.972656 6.148438 20.070312 6.453125 C 19.964844 6.5625 19.835938 6.675781 19.816406 6.839844 C 19.777344 7.085938 19.945312 7.3125 20.148438 7.433594 C 20.585938 7.703125 21.277344 7.660156 21.554688 7.183594 C 22.050781 7.355469 22.441406 7.722656 22.785156 8.105469 C 22.691406 7.730469 22.59375 7.355469 22.5 6.984375 C 21.597656 6.5 20.699219 6.015625 19.796875 5.53125 Z M 19.796875 5.53125 "/>
<path style=" stroke:none;fill-rule:nonzero;fill:rgb(0%,0%,0%);fill-opacity:1;" d="M 19.796875 5.53125 C 20.699219 6.015625 21.597656 6.5 22.5 6.984375 C 22.59375 7.355469 22.691406 7.730469 22.785156 8.105469 C 22.441406 7.722656 22.050781 7.355469 21.554688 7.183594 C 21.277344 7.660156 20.585938 7.703125 20.148438 7.433594 C 19.945312 7.3125 19.777344 7.085938 19.816406 6.839844 C 19.835938 6.675781 19.964844 6.5625 20.070312 6.453125 C 19.972656 6.148438 19.886719 5.839844 19.796875 5.53125 Z M 19.796875 5.53125 "/>
<path style=" stroke:none;fill-rule:nonzero;fill:rgb(70.980392%,70.980392%,70.980392%);fill-opacity:1;" d="M 18.246094 12.480469 C 18.964844 11.917969 19.875 11.660156 20.773438 11.601562 C 20.511719 11.996094 20.183594 12.34375 19.90625 12.722656 C 20.410156 12.679688 20.914062 12.621094 21.414062 12.5625 C 21.105469 13.125 20.753906 13.664062 20.429688 14.222656 C 20.949219 14.019531 21.46875 13.816406 21.988281 13.613281 C 21.734375 14.1875 21.429688 14.734375 21.144531 15.296875 C 20.457031 15.34375 19.765625 15.324219 19.078125 15.347656 C 19.257812 15.0625 19.421875 14.769531 19.59375 14.480469 C 18.613281 14.457031 17.632812 14.539062 16.679688 14.773438 C 16.847656 14.390625 17.03125 14.011719 17.257812 13.65625 C 17.523438 13.21875 17.835938 12.792969 18.246094 12.480469 Z M 18.246094 12.480469 "/>
<path style=" stroke:none;fill-rule:nonzero;fill:rgb(70.980392%,70.980392%,70.980392%);fill-opacity:1;" d="M 6.847656 15.210938 C 7.675781 14.234375 8.722656 13.421875 9.921875 12.945312 C 9.515625 13.640625 9.277344 14.421875 9.167969 15.214844 C 8.394531 15.210938 7.621094 15.214844 6.847656 15.210938 M 7.828125 14.683594 C 8.15625 14.695312 8.484375 14.691406 8.808594 14.683594 C 8.855469 14.386719 8.9375 14.09375 9.023438 13.808594 C 8.582031 14.03125 8.1875 14.339844 7.828125 14.683594 Z M 7.828125 14.683594 "/>
<path style=" stroke:none;fill-rule:nonzero;fill:rgb(70.980392%,70.980392%,70.980392%);fill-opacity:1;" d="M 10.367188 15.214844 C 10.734375 14.964844 11.117188 14.738281 11.515625 14.546875 C 11.472656 14.765625 11.433594 14.988281 11.414062 15.210938 C 11.066406 15.214844 10.71875 15.210938 10.367188 15.214844 Z M 10.367188 15.214844 "/>
<path style=" stroke:none;fill-rule:nonzero;fill:rgb(70.980392%,70.980392%,70.980392%);fill-opacity:1;" d="M 22.582031 14.773438 C 22.761719 14.945312 22.957031 15.097656 23.171875 15.214844 C 22.960938 15.210938 22.75 15.210938 22.539062 15.210938 C 22.554688 15.066406 22.570312 14.921875 22.582031 14.773438 Z M 22.582031 14.773438 "/>
<path style=" stroke:none;fill-rule:nonzero;fill:rgb(74.509804%,5.882353%,15.686275%);fill-opacity:1;" d="M 6.363281 15.871094 C 7.066406 15.878906 7.769531 15.875 8.46875 15.894531 C 10.238281 16.871094 11.988281 17.886719 13.757812 18.871094 C 13.761719 18.097656 13.753906 17.320312 13.757812 16.542969 C 13.789062 16.289062 13.597656 16.097656 13.519531 15.871094 C 14.273438 15.871094 15.027344 15.867188 15.78125 15.871094 C 15.699219 16.09375 15.519531 16.289062 15.539062 16.539062 C 15.542969 18.234375 15.539062 19.929688 15.542969 21.625 C 15.570312 21.828125 15.707031 21.996094 15.78125 22.1875 C 15.042969 22.191406 14.304688 22.1875 13.566406 22.1875 C 13.625 21.980469 13.761719 21.792969 13.753906 21.574219 C 13.757812 21.46875 13.757812 21.363281 13.757812 21.257812 C 12 20.25 10.246094 19.242188 8.484375 18.242188 C 8.484375 19.335938 8.488281 20.425781 8.484375 21.519531 C 8.464844 21.765625 8.640625 21.964844 8.730469 22.1875 C 7.953125 22.191406 7.179688 22.1875 6.402344 22.1875 C 6.488281 21.96875 6.667969 21.773438 6.648438 21.523438 C 6.644531 19.828125 6.648438 18.132812 6.644531 16.441406 C 6.617188 16.226562 6.441406 16.066406 6.363281 15.871094 M 6.769531 16.105469 C 6.816406 16.195312 6.886719 16.28125 6.878906 16.386719 C 6.878906 18.148438 6.878906 19.914062 6.878906 21.675781 C 6.882812 21.777344 6.816406 21.863281 6.777344 21.957031 C 7.304688 21.953125 7.832031 21.957031 8.355469 21.953125 C 8.308594 21.871094 8.257812 21.789062 8.210938 21.703125 C 7.847656 21.699219 7.488281 21.703125 7.125 21.703125 C 7.128906 19.839844 7.128906 17.972656 7.132812 16.109375 C 7.011719 16.109375 6.890625 16.109375 6.769531 16.105469 M 13.890625 16.105469 C 13.941406 16.191406 14.007812 16.28125 13.996094 16.386719 C 13.992188 17.25 14 18.113281 13.992188 18.976562 C 14.078125 19.027344 14.164062 19.078125 14.246094 19.128906 C 14.25 18.121094 14.25 17.113281 14.25 16.105469 C 14.128906 16.105469 14.011719 16.105469 13.890625 16.105469 M 8.46875 17.617188 C 8.488281 17.75 8.40625 17.953125 8.570312 18.011719 C 10.378906 19.054688 12.179688 20.105469 13.988281 21.148438 C 13.980469 21.417969 14.039062 21.707031 13.90625 21.957031 C 14.40625 21.957031 14.90625 21.957031 15.410156 21.957031 C 15.359375 21.871094 15.3125 21.789062 15.261719 21.703125 C 14.921875 21.699219 14.582031 21.703125 14.242188 21.703125 C 14.242188 21.441406 14.25 21.179688 14.238281 20.921875 C 12.308594 19.832031 10.394531 18.714844 8.46875 17.617188 Z M 8.46875 17.617188 "/>
<path style=" stroke:none;fill-rule:nonzero;fill:rgb(74.509804%,5.882353%,15.686275%);fill-opacity:1;" d="M 16.230469 15.871094 C 16.984375 15.871094 17.738281 15.867188 18.492188 15.871094 C 18.402344 16.089844 18.222656 16.289062 18.246094 16.539062 C 18.25 18.234375 18.246094 19.929688 18.25 21.625 C 18.277344 21.832031 18.414062 22 18.492188 22.1875 C 17.75 22.1875 17.007812 22.191406 16.269531 22.1875 C 16.339844 21.964844 16.484375 21.761719 16.46875 21.523438 C 16.46875 19.863281 16.472656 18.203125 16.472656 16.542969 C 16.5 16.289062 16.296875 16.101562 16.230469 15.871094 M 16.597656 16.109375 C 16.632812 16.183594 16.703125 16.25 16.703125 16.335938 C 16.703125 18.097656 16.699219 19.859375 16.699219 21.621094 C 16.707031 21.738281 16.65625 21.847656 16.617188 21.957031 C 17.117188 21.953125 17.617188 21.957031 18.117188 21.953125 C 18.066406 21.871094 18.019531 21.789062 17.96875 21.703125 C 17.640625 21.699219 17.308594 21.699219 16.980469 21.703125 C 16.976562 19.835938 16.984375 17.96875 16.976562 16.105469 C 16.851562 16.101562 16.722656 16.105469 16.597656 16.109375 Z M 16.597656 16.109375 "/>
<path style=" stroke:none;fill-rule:nonzero;fill:rgb(74.509804%,5.882353%,15.686275%);fill-opacity:1;" d="M 18.957031 15.871094 C 19.714844 15.871094 20.46875 15.867188 21.222656 15.871094 C 21.148438 16.082031 20.980469 16.261719 20.988281 16.492188 C 20.992188 17.714844 20.988281 18.9375 20.988281 20.164062 C 21.015625 20.332031 21.160156 20.460938 21.277344 20.582031 C 21.511719 20.65625 21.75 20.769531 22.003906 20.757812 C 22.574219 20.757812 23.144531 20.757812 23.714844 20.757812 C 23.929688 20.765625 24.125 20.667969 24.324219 20.613281 C 24.445312 20.585938 24.507812 20.46875 24.585938 20.382812 C 24.628906 20.316406 24.703125 20.253906 24.695312 20.167969 C 24.703125 18.957031 24.695312 17.75 24.699219 16.539062 C 24.722656 16.289062 24.539062 16.09375 24.457031 15.871094 C 25.214844 15.867188 25.96875 15.871094 26.726562 15.871094 C 26.65625 16.082031 26.484375 16.261719 26.496094 16.492188 C 26.5 18.019531 26.5 19.542969 26.5 21.066406 C 26.023438 21.445312 25.546875 21.824219 25.070312 22.203125 C 23.628906 22.203125 22.191406 22.199219 20.75 22.203125 C 20.671875 22.203125 20.589844 22.203125 20.535156 22.140625 C 20.085938 21.78125 19.632812 21.425781 19.1875 21.066406 C 19.1875 19.558594 19.1875 18.050781 19.1875 16.539062 C 19.21875 16.289062 19.035156 16.09375 18.957031 15.871094 M 19.347656 16.105469 C 19.394531 16.195312 19.464844 16.28125 19.453125 16.386719 C 19.449219 17.898438 19.453125 19.40625 19.445312 20.914062 C 19.90625 21.257812 20.375 21.59375 20.839844 21.929688 C 22.085938 21.925781 23.332031 21.9375 24.578125 21.925781 C 24.730469 21.863281 24.855469 21.757812 24.984375 21.664062 C 23.660156 21.65625 22.332031 21.683594 21.007812 21.6875 C 20.589844 21.390625 20.175781 21.09375 19.757812 20.800781 C 19.761719 19.234375 19.757812 17.671875 19.761719 16.105469 C 19.625 16.105469 19.484375 16.105469 19.347656 16.105469 M 24.878906 16.105469 C 24.925781 16.195312 24.996094 16.28125 24.984375 16.390625 C 24.984375 17.699219 24.984375 19.007812 24.984375 20.3125 C 24.894531 20.433594 24.804688 20.546875 24.714844 20.667969 C 25.003906 20.640625 25.171875 20.382812 25.332031 20.175781 C 25.34375 18.820312 25.328125 17.464844 25.339844 16.109375 C 25.1875 16.101562 25.035156 16.101562 24.878906 16.105469 Z M 24.878906 16.105469 "/>
<path style=" stroke:none;fill-rule:nonzero;fill:rgb(100%,100%,100%);fill-opacity:1;" d="M 6.769531 16.105469 C 6.890625 16.109375 7.011719 16.109375 7.132812 16.109375 C 7.128906 17.972656 7.128906 19.839844 7.125 21.703125 C 7.488281 21.703125 7.847656 21.699219 8.210938 21.703125 C 8.257812 21.789062 8.308594 21.871094 8.355469 21.953125 C 7.832031 21.957031 7.304688 21.953125 6.777344 21.957031 C 6.816406 21.863281 6.882812 21.777344 6.878906 21.675781 C 6.878906 19.914062 6.878906 18.148438 6.878906 16.386719 C 6.886719 16.28125 6.816406 16.195312 6.769531 16.105469 Z M 6.769531 16.105469 "/>
<path style=" stroke:none;fill-rule:nonzero;fill:rgb(100%,100%,100%);fill-opacity:1;" d="M 13.890625 16.105469 C 14.011719 16.105469 14.128906 16.105469 14.25 16.105469 C 14.25 17.113281 14.25 18.121094 14.246094 19.128906 C 14.164062 19.078125 14.078125 19.027344 13.992188 18.976562 C 14 18.113281 13.992188 17.25 13.996094 16.386719 C 14.007812 16.28125 13.941406 16.191406 13.890625 16.105469 Z M 13.890625 16.105469 "/>
<path style=" stroke:none;fill-rule:nonzero;fill:rgb(100%,100%,100%);fill-opacity:1;" d="M 16.597656 16.109375 C 16.722656 16.105469 16.851562 16.101562 16.976562 16.105469 C 16.984375 17.96875 16.976562 19.835938 16.980469 21.703125 C 17.308594 21.699219 17.640625 21.699219 17.96875 21.703125 C 18.019531 21.789062 18.066406 21.871094 18.117188 21.953125 C 17.617188 21.957031 17.117188 21.953125 16.617188 21.957031 C 16.65625 21.847656 16.707031 21.738281 16.699219 21.621094 C 16.699219 19.859375 16.703125 18.097656 16.703125 16.335938 C 16.703125 16.25 16.632812 16.183594 16.597656 16.109375 Z M 16.597656 16.109375 "/>
<path style=" stroke:none;fill-rule:nonzero;fill:rgb(100%,100%,100%);fill-opacity:1;" d="M 19.347656 16.105469 C 19.484375 16.105469 19.625 16.105469 19.761719 16.105469 C 19.757812 17.671875 19.761719 19.234375 19.757812 20.800781 C 20.175781 21.09375 20.589844 21.390625 21.007812 21.6875 C 22.332031 21.683594 23.660156 21.65625 24.984375 21.664062 C 24.855469 21.757812 24.730469 21.863281 24.578125 21.925781 C 23.332031 21.9375 22.085938 21.925781 20.839844 21.929688 C 20.375 21.59375 19.90625 21.257812 19.445312 20.914062 C 19.453125 19.40625 19.449219 17.898438 19.453125 16.386719 C 19.464844 16.28125 19.394531 16.195312 19.347656 16.105469 Z M 19.347656 16.105469 "/>
<path style=" stroke:none;fill-rule:nonzero;fill:rgb(100%,100%,100%);fill-opacity:1;" d="M 24.878906 16.105469 C 25.035156 16.101562 25.1875 16.101562 25.339844 16.109375 C 25.328125 17.464844 25.34375 18.820312 25.332031 20.175781 C 25.171875 20.382812 25.003906 20.640625 24.714844 20.667969 C 24.804688 20.546875 24.894531 20.433594 24.984375 20.3125 C 24.984375 19.007812 24.984375 17.699219 24.984375 16.390625 C 24.996094 16.28125 24.925781 16.195312 24.878906 16.105469 Z M 24.878906 16.105469 "/>
<path style=" stroke:none;fill-rule:nonzero;fill:rgb(100%,100%,100%);fill-opacity:1;" d="M 8.46875 17.617188 C 10.394531 18.714844 12.308594 19.832031 14.238281 20.921875 C 14.25 21.179688 14.242188 21.441406 14.242188 21.703125 C 14.582031 21.703125 14.921875 21.699219 15.261719 21.703125 C 15.3125 21.789062 15.359375 21.871094 15.410156 21.957031 C 14.90625 21.957031 14.40625 21.957031 13.90625 21.957031 C 14.039062 21.707031 13.980469 21.417969 13.988281 21.148438 C 12.179688 20.105469 10.378906 19.054688 8.570312 18.011719 C 8.40625 17.953125 8.488281 17.75 8.46875 17.617188 Z M 8.46875 17.617188 "/>
<path style=" stroke:none;fill-rule:nonzero;fill:rgb(100%,100%,100%);fill-opacity:1;" d="M 25.957031 21.734375 C 26.074219 21.726562 26.191406 21.726562 26.308594 21.734375 C 26.269531 21.773438 26.222656 21.796875 26.164062 21.796875 C 26.164062 21.945312 26.167969 22.097656 26.160156 22.246094 C 26.03125 22.152344 26.136719 21.9375 26.101562 21.796875 C 26.046875 21.796875 25.996094 21.777344 25.957031 21.734375 Z M 25.957031 21.734375 "/>
<path style=" stroke:none;fill-rule:nonzero;fill:rgb(100%,100%,100%);fill-opacity:1;" d="M 26.398438 21.707031 C 26.453125 21.835938 26.507812 21.960938 26.558594 22.089844 C 26.628906 21.96875 26.683594 21.839844 26.738281 21.714844 C 26.777344 21.890625 26.8125 22.066406 26.839844 22.246094 C 26.707031 22.191406 26.769531 22.007812 26.71875 21.90625 C 26.667969 22.015625 26.617188 22.125 26.5625 22.238281 C 26.523438 22.140625 26.484375 22.046875 26.449219 21.949219 C 26.425781 21.941406 26.375 21.925781 26.351562 21.917969 C 26.363281 21.867188 26.386719 21.761719 26.398438 21.707031 Z M 26.398438 21.707031 "/>
<path style=" stroke:none;fill-rule:nonzero;fill:rgb(100%,100%,100%);fill-opacity:1;" d="M 26.335938 21.921875 C 26.40625 22.015625 26.417969 22.1875 26.300781 22.246094 C 26.3125 22.140625 26.328125 22.027344 26.335938 21.921875 Z M 26.335938 21.921875 "/>
<path style=" stroke:none;fill-rule:nonzero;fill:rgb(100%,100%,100%);fill-opacity:1;" d="M 10.933594 22.902344 C 11.167969 22.90625 11.398438 22.90625 11.628906 22.902344 C 11.507812 23.09375 11.578125 23.324219 11.558594 23.539062 C 11.488281 23.800781 11.921875 23.84375 12.023438 23.664062 C 12.007812 23.410156 12.085938 23.132812 11.960938 22.902344 C 12.179688 22.90625 12.398438 22.90625 12.613281 22.902344 C 12.582031 22.972656 12.539062 23.042969 12.546875 23.125 C 12.554688 23.359375 12.53125 23.59375 12.570312 23.824219 C 12.445312 23.894531 12.328125 23.972656 12.195312 24.027344 C 11.914062 24.039062 11.628906 24.039062 11.34375 24.027344 C 11.214844 23.972656 11.097656 23.894531 10.976562 23.828125 C 11.007812 23.597656 10.992188 23.359375 10.996094 23.128906 C 11 23.046875 10.960938 22.972656 10.933594 22.902344 Z M 10.933594 22.902344 "/>
<path style=" stroke:none;fill-rule:nonzero;fill:rgb(100%,100%,100%);fill-opacity:1;" d="M 13.828125 23.113281 C 13.957031 23.046875 14.078125 22.960938 14.214844 22.910156 C 14.484375 22.894531 14.753906 22.90625 15.023438 22.90625 C 15.082031 23.007812 15.140625 23.105469 15.203125 23.207031 C 14.992188 23.15625 14.777344 23.152344 14.5625 23.164062 C 14.480469 23.152344 14.425781 23.210938 14.390625 23.273438 C 14.558594 23.320312 14.738281 23.324219 14.90625 23.359375 C 15.007812 23.394531 15.097656 23.457031 15.195312 23.507812 C 15.195312 23.613281 15.195312 23.71875 15.195312 23.824219 C 15.066406 23.890625 14.945312 23.972656 14.8125 24.027344 C 14.53125 24.042969 14.246094 24.027344 13.960938 24.035156 C 13.894531 23.925781 13.828125 23.8125 13.761719 23.703125 C 14.007812 23.761719 14.257812 23.773438 14.507812 23.753906 C 14.582031 23.742188 14.652344 23.675781 14.59375 23.605469 C 14.429688 23.546875 14.25 23.5625 14.082031 23.515625 C 13.992188 23.476562 13.914062 23.425781 13.828125 23.378906 C 13.828125 23.289062 13.828125 23.203125 13.828125 23.113281 Z M 13.828125 23.113281 "/>
<path style=" stroke:none;fill-rule:nonzero;fill:rgb(100%,100%,100%);fill-opacity:1;" d="M 17.59375 22.902344 C 17.808594 22.90625 18.027344 22.898438 18.242188 22.90625 C 18.101562 23.074219 17.871094 23.128906 17.695312 23.253906 C 17.886719 23.511719 18.019531 23.820312 18.269531 24.03125 C 18.03125 24.035156 17.789062 24.035156 17.550781 24.035156 C 17.511719 23.824219 17.367188 23.660156 17.265625 23.480469 C 17.195312 23.515625 17.125 23.550781 17.058594 23.585938 C 17.054688 23.738281 17.035156 23.902344 17.125 24.035156 C 16.894531 24.03125 16.664062 24.03125 16.4375 24.035156 C 16.546875 23.871094 16.492188 23.664062 16.503906 23.480469 C 16.492188 23.285156 16.546875 23.074219 16.4375 22.902344 C 16.667969 22.90625 16.894531 22.90625 17.121094 22.902344 C 17.054688 23.007812 17.050781 23.136719 17.054688 23.261719 C 17.230469 23.140625 17.460938 23.082031 17.59375 22.902344 Z M 17.59375 22.902344 "/>
<path style=" stroke:none;fill-rule:nonzero;fill:rgb(100%,100%,100%);fill-opacity:1;" d="M 19.34375 22.902344 C 19.578125 22.902344 19.8125 22.90625 20.042969 22.902344 C 19.9375 23.078125 19.988281 23.289062 19.980469 23.480469 C 19.988281 23.667969 19.941406 23.867188 20.042969 24.035156 C 19.8125 24.03125 19.578125 24.03125 19.34375 24.035156 C 19.371094 23.972656 19.417969 23.910156 19.410156 23.839844 C 19.414062 23.605469 19.410156 23.371094 19.414062 23.132812 C 19.421875 23.046875 19.378906 22.976562 19.34375 22.902344 Z M 19.34375 22.902344 "/>
<path style=" stroke:none;fill-rule:nonzero;fill:rgb(100%,100%,100%);fill-opacity:1;" d="M 21.34375 22.902344 C 21.746094 22.90625 22.148438 22.902344 22.550781 22.902344 C 22.613281 23.003906 22.671875 23.105469 22.734375 23.207031 C 22.476562 23.144531 22.210938 23.160156 21.949219 23.164062 C 21.953125 23.199219 21.960938 23.265625 21.964844 23.300781 C 22.105469 23.320312 22.25 23.296875 22.390625 23.265625 C 22.390625 23.378906 22.394531 23.492188 22.394531 23.605469 C 22.25 23.574219 22.105469 23.558594 21.957031 23.566406 C 21.957031 23.613281 21.957031 23.703125 21.957031 23.75 C 22.234375 23.769531 22.519531 23.769531 22.792969 23.703125 C 22.726562 23.8125 22.660156 23.921875 22.597656 24.035156 C 22.175781 24.035156 21.757812 24.03125 21.339844 24.035156 C 21.441406 23.871094 21.394531 23.671875 21.40625 23.488281 C 21.394531 23.292969 21.445312 23.082031 21.34375 22.902344 Z M 21.34375 22.902344 "/>
<path style=" stroke:none;fill-rule:nonzero;fill:rgb(100%,100%,100%);fill-opacity:1;" d="M 24.242188 22.910156 C 24.511719 22.894531 24.78125 22.910156 25.054688 22.902344 C 25.113281 23.003906 25.171875 23.105469 25.234375 23.207031 C 25 23.15625 24.761719 23.148438 24.527344 23.171875 C 24.496094 23.191406 24.445312 23.230469 24.417969 23.253906 C 24.578125 23.34375 24.773438 23.3125 24.949219 23.359375 C 25.042969 23.398438 25.128906 23.453125 25.222656 23.5 C 25.226562 23.609375 25.226562 23.714844 25.226562 23.824219 C 25.0625 23.898438 24.914062 24.050781 24.71875 24.035156 C 24.472656 24.03125 24.230469 24.035156 23.988281 24.027344 C 23.925781 23.921875 23.863281 23.8125 23.804688 23.703125 C 24.039062 23.757812 24.277344 23.773438 24.519531 23.753906 C 24.601562 23.761719 24.636719 23.6875 24.667969 23.625 C 24.496094 23.546875 24.308594 23.5625 24.128906 23.519531 C 24.035156 23.484375 23.949219 23.425781 23.863281 23.378906 C 23.863281 23.292969 23.859375 23.203125 23.859375 23.117188 C 23.988281 23.046875 24.109375 22.964844 24.242188 22.910156 Z M 24.242188 22.910156 "/>
<path style=" stroke:none;fill-rule:nonzero;fill:rgb(100%,100%,100%);fill-opacity:1;" d="M 8.035156 22.902344 C 8.265625 22.90625 8.492188 22.90625 8.71875 22.902344 C 8.644531 23.015625 8.652344 23.15625 8.652344 23.289062 C 8.789062 23.292969 8.925781 23.292969 9.0625 23.285156 C 9.0625 23.152344 9.070312 23.015625 8.996094 22.902344 C 9.222656 22.90625 9.449219 22.90625 9.675781 22.902344 C 9.570312 23.078125 9.625 23.289062 9.613281 23.484375 C 9.621094 23.667969 9.574219 23.871094 9.679688 24.035156 C 9.449219 24.03125 9.222656 24.03125 8.992188 24.035156 C 9.082031 23.902344 9.066406 23.738281 9.054688 23.585938 C 8.9375 23.535156 8.785156 23.578125 8.65625 23.566406 C 8.65625 23.726562 8.628906 23.894531 8.71875 24.035156 C 8.492188 24.03125 8.261719 24.03125 8.035156 24.035156 C 8.0625 23.972656 8.105469 23.914062 8.101562 23.839844 C 8.105469 23.601562 8.101562 23.363281 8.101562 23.128906 C 8.113281 23.042969 8.066406 22.972656 8.035156 22.902344 Z M 8.035156 22.902344 "/>
</g>
</svg>
