<?xml version="1.0" encoding="UTF-8"?>
<svg xmlns="http://www.w3.org/2000/svg" xmlns:xlink="http://www.w3.org/1999/xlink" width="35pt" height="25pt" viewBox="0 0 35 25" version="1.1">
<g id="surface1">
<path style=" stroke:none;fill-rule:nonzero;fill:rgb(100%,100%,100%);fill-opacity:1;" d="M 2.75 0 L 32.175781 0 L 32.175781 25 L 2.75 25 Z M 2.75 0 "/>
<path style=" stroke:none;fill-rule:nonzero;fill:rgb(0%,41.176471%,30.588235%);fill-opacity:1;" d="M 15.628906 0.214844 C 16.730469 0.152344 17.839844 0.171875 18.945312 0.222656 C 18.960938 3.035156 18.957031 5.847656 18.960938 8.65625 C 18.464844 8.636719 17.957031 8.613281 17.480469 8.765625 C 17.265625 8.816406 17.050781 8.957031 16.824219 8.871094 C 16.445312 8.753906 16.046875 8.71875 15.648438 8.703125 C 15.628906 8.183594 15.648438 7.667969 15.636719 7.148438 C 15.289062 7.179688 14.933594 7.160156 14.589844 7.226562 C 14.570312 7.757812 14.585938 8.292969 14.585938 8.828125 C 14.183594 8.929688 13.796875 9.078125 13.402344 9.210938 C 12.714844 8.96875 11.996094 8.84375 11.265625 8.847656 C 11.238281 6.140625 11.261719 3.433594 11.234375 0.730469 C 12.335938 0.519531 13.445312 0.367188 14.5625 0.277344 C 14.570312 1.457031 14.566406 2.640625 14.570312 3.824219 C 14.921875 3.820312 15.277344 3.796875 15.632812 3.765625 C 15.632812 2.582031 15.632812 1.398438 15.628906 0.214844 Z M 15.628906 0.214844 "/>
<path style=" stroke:none;fill-rule:nonzero;fill:rgb(0%,41.176471%,30.588235%);fill-opacity:1;" d="M 19.578125 0.265625 C 20.6875 0.367188 21.792969 0.5 22.886719 0.710938 C 22.894531 3.5 22.898438 6.285156 22.910156 9.074219 C 22.375 8.929688 21.816406 8.824219 21.265625 8.9375 C 20.917969 8.984375 20.605469 9.152344 20.28125 9.269531 C 20.046875 9.132812 19.828125 8.972656 19.59375 8.839844 C 19.589844 5.980469 19.574219 3.121094 19.578125 0.265625 Z M 19.578125 0.265625 "/>
<path style=" stroke:none;fill-rule:nonzero;fill:rgb(0%,41.176471%,30.588235%);fill-opacity:1;" d="M 8.335938 1.421875 C 8.722656 1.28125 9.144531 1.1875 9.554688 1.261719 C 9.9375 1.347656 10.285156 1.605469 10.457031 1.964844 C 10.679688 2.421875 10.628906 2.949219 10.625 3.445312 C 10.628906 5.285156 10.632812 7.128906 10.636719 8.96875 C 9.980469 9.1875 9.3125 9.546875 8.601562 9.378906 C 8.371094 9.324219 8.113281 9.023438 7.902344 9.257812 C 7.867188 9.769531 8.183594 10.277344 8.640625 10.5 C 8.867188 10.628906 9.132812 10.613281 9.378906 10.660156 C 9.679688 11.039062 10.039062 11.363281 10.449219 11.628906 C 9.65625 12.359375 8.972656 13.214844 8.484375 14.179688 C 7.96875 15.09375 7.699219 16.121094 7.492188 17.144531 C 8.199219 16.628906 8.828125 15.996094 9.628906 15.617188 C 9.359375 16.042969 9.074219 16.460938 8.863281 16.917969 C 8.78125 17.050781 8.738281 17.234375 8.570312 17.28125 C 7.464844 17.695312 6.402344 18.21875 5.339844 18.738281 C 4.871094 18.984375 4.296875 19.066406 3.804688 18.847656 C 3.316406 18.640625 3.03125 18.105469 3.042969 17.585938 C 3.019531 13.800781 3.027344 10.015625 3.011719 6.230469 C 3.007812 5.832031 2.964844 5.429688 3.054688 5.039062 C 3.226562 4.277344 3.671875 3.578125 4.289062 3.09375 C 4.738281 2.738281 5.296875 2.570312 5.8125 2.335938 C 6.632812 1.980469 7.488281 1.710938 8.335938 1.421875 Z M 8.335938 1.421875 "/>
<path style=" stroke:none;fill-rule:nonzero;fill:rgb(0%,41.176471%,30.588235%);fill-opacity:1;" d="M 23.890625 1.632812 C 24.261719 1.21875 24.882812 1.136719 25.394531 1.296875 C 26.683594 1.683594 27.960938 2.117188 29.195312 2.65625 C 30.058594 3.023438 30.703125 3.8125 31.015625 4.683594 C 31.214844 5.234375 31.136719 5.824219 31.152344 6.394531 C 31.148438 9.699219 31.183594 13.003906 31.171875 16.304688 C 31.171875 16.730469 31.222656 17.171875 31.070312 17.578125 C 30.875 18.128906 30.398438 18.621094 29.800781 18.699219 C 29.484375 18.714844 29.207031 18.542969 28.933594 18.40625 C 27.773438 17.796875 26.53125 17.347656 25.253906 17.0625 C 25.222656 16.675781 25.261719 16.28125 25.203125 15.894531 C 25.03125 14.402344 24.25 13.011719 23.125 12.019531 C 23.523438 11.703125 23.867188 11.320312 24.113281 10.871094 C 24.230469 10.625 24.539062 10.59375 24.71875 10.40625 C 25.058594 10.089844 25.277344 9.5625 25.113281 9.109375 C 24.964844 8.871094 24.734375 9.117188 24.589844 9.226562 C 24.296875 9.488281 23.875 9.390625 23.53125 9.304688 C 23.535156 7.132812 23.527344 4.957031 23.523438 2.78125 C 23.515625 2.371094 23.601562 1.9375 23.890625 1.632812 Z M 23.890625 1.632812 "/>
<path style=" stroke:none;fill-rule:nonzero;fill:rgb(100%,100%,100%);fill-opacity:1;" d="M 27.132812 5.113281 C 27.355469 5.039062 27.558594 5.238281 27.667969 5.410156 C 27.90625 5.832031 27.832031 6.335938 27.828125 6.796875 C 27.855469 9.175781 27.851562 11.558594 27.859375 13.9375 C 27.867188 14.140625 27.828125 14.367188 27.65625 14.5 C 27.535156 14.628906 27.332031 14.582031 27.207031 14.484375 C 26.988281 14.320312 26.878906 14.046875 26.871094 13.777344 C 26.882812 11.019531 26.832031 8.257812 26.863281 5.5 C 26.867188 5.332031 26.972656 5.171875 27.132812 5.113281 Z M 27.132812 5.113281 "/>
<path style=" stroke:none;fill-rule:nonzero;fill:rgb(100%,100%,100%);fill-opacity:1;" d="M 6.453125 5.503906 C 6.554688 5.304688 6.757812 5.207031 6.945312 5.109375 C 7.152344 5.222656 7.328125 5.410156 7.304688 5.664062 C 7.316406 8.394531 7.3125 11.125 7.324219 13.855469 C 7.351562 14.242188 7.15625 14.671875 6.769531 14.800781 C 6.382812 14.839844 6.328125 14.382812 6.339844 14.097656 C 6.339844 11.667969 6.320312 9.238281 6.324219 6.808594 C 6.34375 6.375 6.230469 5.902344 6.453125 5.503906 Z M 6.453125 5.503906 "/>
<path style=" stroke:none;fill-rule:nonzero;fill:rgb(0%,0%,0%);fill-opacity:1;" d="M 17.007812 9.246094 C 17.589844 9.054688 18.199219 8.882812 18.820312 8.976562 C 19.34375 9.050781 19.84375 9.289062 20.222656 9.664062 C 20.886719 9.292969 21.6875 9.089844 22.4375 9.289062 C 22.988281 9.402344 23.5 9.683594 24.066406 9.722656 C 24.390625 9.757812 24.667969 9.558594 24.917969 9.378906 C 24.8125 9.683594 24.714844 10.019531 24.457031 10.230469 C 24.292969 10.382812 23.988281 10.332031 23.914062 10.578125 C 23.628906 11.167969 23.128906 11.609375 22.636719 12.019531 C 23.515625 12.726562 24.230469 13.652344 24.613281 14.71875 C 24.769531 15.15625 24.839844 15.617188 24.90625 16.074219 C 24.523438 15.679688 24.140625 15.265625 23.617188 15.0625 C 23.84375 15.40625 24.089844 15.742188 24.246094 16.125 C 24.402344 16.484375 24.453125 16.871094 24.507812 17.253906 C 26.277344 17.511719 27.957031 18.183594 29.503906 19.066406 C 30.234375 19.507812 30.980469 19.953125 31.625 20.519531 C 31.363281 20.390625 31.121094 20.21875 30.871094 20.0625 C 29.773438 19.398438 28.585938 18.894531 27.371094 18.476562 C 26.144531 18.066406 24.863281 17.8125 23.566406 17.746094 C 23.0625 17.746094 22.554688 17.753906 22.050781 17.777344 C 22.140625 17.8125 22.230469 17.851562 22.320312 17.886719 C 22.972656 17.914062 23.605469 18.078125 24.242188 18.222656 C 27.140625 18.945312 29.910156 20.351562 32.046875 22.460938 C 31.582031 22.179688 31.183594 21.808594 30.71875 21.535156 C 28.066406 19.804688 25.003906 18.539062 21.796875 18.503906 C 21.972656 18.574219 22.152344 18.636719 22.339844 18.683594 C 23.980469 19.101562 25.546875 19.789062 26.972656 20.699219 C 27.828125 21.246094 28.664062 21.828125 29.414062 22.515625 C 29.832031 22.910156 30.28125 23.28125 30.640625 23.734375 C 30.199219 23.386719 29.796875 22.992188 29.34375 22.65625 C 27.691406 21.4375 25.882812 20.40625 23.933594 19.742188 C 23.8125 21.074219 23.617188 22.46875 22.851562 23.601562 C 22.28125 22.558594 21.480469 21.550781 20.324219 21.136719 C 20.335938 21.496094 20.378906 21.863281 20.296875 22.214844 C 20.21875 22.554688 19.964844 22.820312 19.898438 23.164062 C 19.765625 23.703125 19.4375 24.207031 18.964844 24.507812 C 18.351562 24.921875 17.539062 24.890625 16.863281 24.667969 C 16.171875 24.433594 15.660156 23.847656 15.378906 23.191406 C 15.140625 22.707031 15.070312 22.164062 14.996094 21.636719 C 13.992188 21.84375 13.179688 22.566406 12.617188 23.394531 C 12.3125 23.84375 12.085938 24.335938 11.851562 24.820312 C 11.082031 24.035156 10.433594 23.074219 10.253906 21.972656 C 10.148438 21.46875 10.160156 20.949219 10.1875 20.4375 C 9.222656 20.824219 8.296875 21.304688 7.4375 21.886719 C 7.089844 22.121094 6.785156 22.414062 6.425781 22.628906 C 7.128906 21.832031 8.027344 21.230469 8.9375 20.699219 C 11.304688 19.339844 14.042969 18.765625 16.746094 18.605469 C 16.21875 18.480469 15.671875 18.484375 15.136719 18.460938 C 12.171875 18.359375 9.175781 18.894531 6.460938 20.097656 C 5.867188 20.351562 5.316406 20.683594 4.738281 20.96875 C 6.496094 19.65625 8.59375 18.882812 10.71875 18.402344 C 12.539062 18.015625 14.402344 17.84375 16.261719 17.914062 C 16.421875 17.925781 16.582031 17.921875 16.738281 17.898438 C 14.785156 17.210938 12.65625 17.1875 10.636719 17.550781 C 8.925781 17.855469 7.253906 18.351562 5.65625 19.039062 C 5.480469 19.113281 5.300781 19.183594 5.121094 19.242188 C 6.324219 18.535156 7.632812 18.019531 8.925781 17.503906 C 9.328125 16.5625 9.910156 15.710938 10.582031 14.9375 C 9.585938 15.09375 8.78125 15.746094 8 16.335938 C 8.441406 14.472656 9.527344 12.796875 10.980469 11.558594 C 10.421875 11.253906 9.863281 10.890625 9.570312 10.304688 C 9.28125 10.300781 8.964844 10.347656 8.707031 10.183594 C 8.453125 10.050781 8.320312 9.785156 8.214844 9.535156 C 8.558594 9.769531 8.992188 9.777344 9.390625 9.703125 C 9.902344 9.601562 10.351562 9.304688 10.867188 9.230469 C 11.722656 9.105469 12.605469 9.234375 13.402344 9.566406 C 14.515625 9.050781 15.824219 8.851562 17.007812 9.246094 Z M 17.007812 9.246094 "/>
<path style=" stroke:none;fill-rule:nonzero;fill:rgb(89.411765%,73.333333%,52.156863%);fill-opacity:1;" d="M 17.855469 9.65625 C 18.472656 9.417969 19.183594 9.53125 19.699219 9.9375 C 19.835938 10.007812 19.96875 10.210938 20.132812 10.09375 C 20.695312 9.820312 21.332031 9.636719 21.960938 9.71875 C 22.445312 9.816406 22.871094 10.078125 23.332031 10.242188 C 23.316406 10.261719 23.28125 10.304688 23.265625 10.328125 C 22.503906 10.550781 21.832031 10.996094 21.28125 11.5625 C 22.492188 12.210938 23.351562 13.367188 23.886719 14.605469 C 23.296875 14.257812 22.699219 13.898438 22.023438 13.75 C 22.851562 14.527344 23.363281 15.574219 23.625 16.667969 C 23.410156 16.515625 23.195312 16.371094 22.957031 16.265625 C 23 16.566406 23.230469 16.867188 23.152344 17.171875 C 22.941406 17.191406 22.722656 17.183594 22.511719 17.191406 C 22.304688 16.75 22.070312 16.296875 21.667969 16.003906 C 21.414062 15.796875 21.097656 15.707031 20.792969 15.617188 C 20.523438 15.5625 20.59375 15.199219 20.519531 14.996094 C 20.832031 14.945312 21.160156 14.863281 21.386719 14.621094 C 21.761719 14.222656 21.851562 13.660156 22 13.152344 C 21.371094 13.625 20.601562 13.8125 19.859375 14.027344 C 20.015625 14.539062 20.183594 15.046875 20.328125 15.5625 C 20.152344 15.5 19.976562 15.4375 19.800781 15.390625 C 19.972656 15.554688 20.175781 15.695312 20.300781 15.902344 C 20.433594 16.109375 20.441406 16.359375 20.472656 16.597656 C 19.832031 16.480469 19.183594 16.578125 18.558594 16.730469 C 18.398438 16.445312 18.230469 16.128906 17.914062 15.984375 C 17.667969 15.84375 17.382812 15.898438 17.113281 15.871094 C 16.957031 15.417969 16.851562 14.949219 16.714844 14.492188 C 15.882812 14.582031 15.03125 14.527344 14.214844 14.351562 C 13.800781 14.265625 13.417969 14.085938 13.066406 13.855469 C 13.550781 14.5625 14.101562 15.289062 14.910156 15.644531 C 15.414062 15.871094 15.976562 15.785156 16.492188 15.660156 C 16.550781 15.789062 16.585938 15.925781 16.628906 16.0625 C 16.171875 16.296875 15.742188 16.589844 15.378906 16.953125 C 13.507812 16.625 11.59375 16.882812 9.765625 17.339844 C 10.0625 16.453125 10.605469 15.652344 11.285156 15.011719 C 11.695312 14.625 12.179688 14.332031 12.652344 14.027344 C 11.648438 14 10.644531 14.164062 9.726562 14.574219 C 9.957031 13.082031 10.996094 11.832031 12.257812 11.058594 C 11.945312 10.792969 11.617188 10.535156 11.234375 10.382812 C 10.914062 10.25 10.566406 10.1875 10.230469 10.09375 C 11.3125 9.605469 12.597656 9.734375 13.644531 10.25 C 14.679688 10.777344 15.484375 11.683594 16.050781 12.683594 C 16.253906 13.023438 16.382812 13.398438 16.589844 13.730469 C 16.234375 12.355469 15.519531 11.03125 14.40625 10.121094 C 15.261719 9.5625 16.382812 9.59375 17.300781 9.96875 C 18.21875 10.375 18.847656 11.222656 19.269531 12.101562 C 19.507812 12.558594 19.644531 13.054688 19.828125 13.535156 C 19.746094 12.453125 19.421875 11.34375 18.730469 10.488281 C 18.472656 10.175781 18.160156 9.921875 17.855469 9.65625 Z M 17.855469 9.65625 "/>
<path style=" stroke:none;fill-rule:nonzero;fill:rgb(100%,100%,100%);fill-opacity:1;" d="M 20.558594 14.148438 C 20.679688 14.097656 20.804688 14.046875 20.929688 14.003906 C 20.921875 14.28125 20.820312 14.5625 20.582031 14.726562 C 20.566406 14.535156 20.5625 14.339844 20.558594 14.148438 Z M 20.558594 14.148438 "/>
<path style=" stroke:none;fill-rule:nonzero;fill:rgb(0%,0%,0%);fill-opacity:1;" d="M 17.339844 15.167969 C 17.898438 14.40625 19.039062 14.375 19.785156 14.863281 C 18.960938 14.871094 18.132812 14.914062 17.339844 15.167969 Z M 17.339844 15.167969 "/>
<path style=" stroke:none;fill-rule:nonzero;fill:rgb(100%,100%,100%);fill-opacity:1;" d="M 15.382812 14.796875 C 15.539062 14.8125 15.699219 14.835938 15.851562 14.867188 C 15.933594 15.089844 16.027344 15.304688 16.105469 15.53125 C 15.773438 15.398438 15.496094 15.144531 15.382812 14.796875 Z M 15.382812 14.796875 "/>
<path style=" stroke:none;fill-rule:nonzero;fill:rgb(89.411765%,73.333333%,52.156863%);fill-opacity:1;" d="M 20.660156 15.941406 C 21.253906 16.128906 21.667969 16.660156 21.882812 17.226562 C 21.660156 17.269531 21.4375 17.308594 21.214844 17.351562 C 21.144531 17.917969 21.039062 18.488281 20.777344 19.003906 C 21.097656 19.046875 21.417969 19.0625 21.734375 19.132812 C 21.628906 19.269531 21.519531 19.402344 21.410156 19.53125 C 20.832031 19.285156 20.234375 19.09375 19.644531 18.871094 C 19.675781 18.667969 19.542969 18.378906 19.753906 18.25 C 20.230469 17.910156 20.609375 17.433594 20.804688 16.878906 C 20.894531 16.5625 20.746094 16.242188 20.660156 15.941406 Z M 20.660156 15.941406 "/>
<path style=" stroke:none;fill-rule:nonzero;fill:rgb(89.411765%,73.333333%,52.156863%);fill-opacity:1;" d="M 17.015625 16.386719 C 17.265625 16.242188 17.605469 16.195312 17.84375 16.382812 C 18.144531 16.613281 18.171875 17.023438 18.386719 17.316406 C 18.625 17.648438 18.90625 17.949219 19.214844 18.21875 C 19.40625 18.351562 19.289062 18.601562 19.25 18.78125 C 18.171875 19.027344 17.058594 19.214844 16.070312 19.742188 C 15.890625 19.59375 15.738281 19.414062 15.660156 19.195312 C 16.3125 19.085938 16.972656 19.136719 17.628906 19.070312 C 17.484375 18.613281 17.421875 18.125 17.519531 17.648438 C 17.066406 17.382812 16.5625 17.246094 16.070312 17.074219 C 16.363281 16.816406 16.683594 16.585938 17.015625 16.386719 Z M 17.015625 16.386719 "/>
<path style=" stroke:none;fill-rule:nonzero;fill:rgb(100%,100%,100%);fill-opacity:1;" d="M 17.589844 19.5 C 18.175781 19.289062 18.78125 19.152344 19.394531 19.058594 C 19.855469 19.238281 20.320312 19.425781 20.75 19.671875 C 20.652344 19.984375 20.476562 20.277344 20.183594 20.445312 C 20.25 20.082031 20.1875 19.664062 19.886719 19.414062 C 19.777344 19.253906 19.605469 19.449219 19.476562 19.476562 C 19.367188 19.394531 19.257812 19.3125 19.148438 19.234375 C 19.058594 19.339844 18.972656 19.449219 18.882812 19.554688 C 18.773438 19.484375 18.664062 19.414062 18.554688 19.34375 C 18.457031 19.472656 18.359375 19.605469 18.261719 19.734375 C 18.15625 19.65625 18.050781 19.582031 17.945312 19.507812 C 17.664062 19.84375 17.675781 20.296875 17.617188 20.703125 C 17.3125 20.496094 17.027344 20.160156 17.109375 19.765625 C 17.214844 19.601562 17.421875 19.570312 17.589844 19.5 Z M 17.589844 19.5 "/>
<path style=" stroke:none;fill-rule:nonzero;fill:rgb(89.411765%,73.333333%,52.156863%);fill-opacity:1;" d="M 12.871094 19.566406 C 13.628906 19.410156 14.398438 19.3125 15.164062 19.210938 C 15.402344 19.699219 15.714844 20.175781 15.78125 20.730469 C 15.871094 21.359375 15.933594 22.015625 16.230469 22.589844 C 16.429688 22.960938 16.8125 23.304688 17.261719 23.242188 C 17.578125 23.15625 17.828125 22.890625 18.164062 22.871094 C 18.621094 22.824219 19.097656 22.902344 19.511719 23.113281 C 19.28125 23.511719 18.96875 23.882812 18.539062 24.078125 C 17.710938 24.445312 16.667969 24.148438 16.113281 23.441406 C 15.46875 22.640625 15.273438 21.585938 15.203125 20.585938 C 15.101562 20.824219 15.0625 21.082031 15.003906 21.332031 C 14.738281 21.183594 14.4375 21.042969 14.285156 20.761719 C 14.09375 20.476562 14.070312 20.128906 14.027344 19.800781 C 13.789062 19.964844 13.554688 20.152344 13.410156 20.410156 C 13.203125 20.738281 13.140625 21.125 13.046875 21.496094 C 12.640625 21.003906 12.515625 20.328125 12.632812 19.710938 C 12.664062 19.601562 12.785156 19.59375 12.871094 19.566406 Z M 12.871094 19.566406 "/>
<path style=" stroke:none;fill-rule:nonzero;fill:rgb(89.411765%,73.333333%,52.156863%);fill-opacity:1;" d="M 21.578125 20.070312 C 21.90625 19.867188 22.121094 19.546875 22.34375 19.242188 C 22.683594 19.304688 23.011719 19.410156 23.335938 19.519531 C 23.304688 19.894531 23.285156 20.269531 23.179688 20.632812 C 23.003906 20.308594 22.855469 19.953125 22.535156 19.734375 C 22.695312 20.453125 22.699219 21.332031 22.085938 21.847656 C 22.078125 21.222656 21.957031 20.578125 21.578125 20.070312 Z M 21.578125 20.070312 "/>
<path style=" stroke:none;fill-rule:nonzero;fill:rgb(89.411765%,73.333333%,52.156863%);fill-opacity:1;" d="M 11.175781 20.046875 C 11.375 19.972656 11.578125 19.90625 11.785156 19.847656 C 11.679688 20.183594 11.621094 20.53125 11.546875 20.875 C 11.40625 20.605469 11.292969 20.328125 11.175781 20.046875 Z M 11.175781 20.046875 "/>
<path style=" stroke:none;fill-rule:nonzero;fill:rgb(100%,100%,100%);fill-opacity:1;" d="M 17.207031 22.902344 C 16.515625 22.46875 16.628906 21.511719 16.847656 20.84375 C 16.929688 21.390625 17.046875 22.007812 17.554688 22.324219 C 17.621094 22.203125 17.6875 22.078125 17.75 21.957031 C 17.820312 22.042969 17.894531 22.125 17.964844 22.210938 C 18.046875 22.097656 18.132812 21.984375 18.21875 21.875 C 18.300781 21.96875 18.378906 22.066406 18.460938 22.160156 C 18.554688 22.042969 18.648438 21.921875 18.738281 21.804688 C 18.84375 21.933594 18.945312 22.066406 19.046875 22.199219 C 19.511719 21.902344 19.660156 21.351562 19.714844 20.839844 C 20.027344 21.421875 20.019531 22.222656 19.503906 22.6875 C 19.03125 22.617188 18.550781 22.453125 18.070312 22.566406 C 17.753906 22.59375 17.484375 22.769531 17.207031 22.902344 Z M 17.207031 22.902344 "/>
</g>
</svg>
