<?xml version="1.0" encoding="UTF-8"?>
<svg xmlns="http://www.w3.org/2000/svg" xmlns:xlink="http://www.w3.org/1999/xlink" width="35pt" height="25pt" viewBox="0 0 35 25" version="1.1">
<g id="surface1">
<path style=" stroke:none;fill-rule:evenodd;fill:rgb(100%,100%,100%);fill-opacity:1;" d="M 4.75 25 L 29.75 25 L 29.75 0 L 4.75 0 Z M 4.75 25 "/>
<path style=" stroke:none;fill-rule:evenodd;fill:rgb(16.470588%,29.803922%,57.254902%);fill-opacity:1;" d="M 14.140625 9.625 L 13.25 10.757812 L 5.851562 13.296875 L 14.140625 9.625 "/>
<path style=" stroke:none;fill-rule:evenodd;fill:rgb(16.470588%,29.803922%,57.254902%);fill-opacity:1;" d="M 12.429688 8.691406 C 12.613281 8.703125 12.714844 8.71875 12.886719 8.765625 C 13.027344 8.800781 13.105469 8.828125 13.238281 8.890625 C 13.496094 8.609375 13.59375 8.492188 13.980469 8.253906 C 14.425781 7.976562 14.847656 7.808594 15.402344 7.644531 C 14.726562 7.753906 14.226562 7.910156 13.511719 8.191406 C 13.082031 8.359375 12.84375 8.472656 12.429688 8.691406 Z M 19.074219 9.453125 C 18.980469 9.589844 18.878906 9.71875 18.746094 9.878906 C 19.734375 9.523438 20.28125 9.273438 21.199219 8.765625 C 21.972656 8.339844 22.390625 8.070312 23.101562 7.546875 L 23.183594 7.242188 C 22.460938 7.75 22.039062 8.019531 21.265625 8.441406 C 20.382812 8.917969 20.015625 9.097656 19.074219 9.453125 Z M 19.398438 8.851562 C 20.179688 8.53125 20.597656 8.324219 21.332031 7.902344 C 22.105469 7.457031 22.527344 7.171875 23.230469 6.625 C 21.375 6.640625 20.289062 6.851562 18.558594 7.527344 C 17.074219 8.105469 16.265625 8.578125 15.03125 9.582031 L 14.863281 9.347656 C 15.328125 8.882812 15.617188 8.640625 16.148438 8.253906 C 16.636719 7.898438 16.929688 7.710938 17.464844 7.429688 C 16.503906 7.605469 16.109375 7.691406 15.25 7.988281 C 14.613281 8.207031 13.574219 8.847656 13.484375 9.324219 C 13.132812 9.160156 12.925781 9.089844 12.546875 9 C 12.152344 8.90625 11.921875 8.875 11.515625 8.867188 C 12.632812 8.292969 13.300781 8.03125 14.507812 7.6875 C 15.917969 7.28125 16.753906 7.148438 18.21875 7.078125 C 19.371094 6.542969 20.074219 6.324219 21.324219 6.109375 C 22.835938 5.851562 23.738281 5.847656 25.253906 6.082031 C 24.246094 7.261719 23.5625 7.859375 22.257812 8.6875 C 20.726562 9.660156 19.734375 10.074219 17.96875 10.460938 C 16.832031 11.34375 16.183594 11.8125 14.8125 12.53125 C 14.242188 12.828125 13.796875 13.042969 13.222656 13.285156 C 13.222656 13.285156 13.234375 13.167969 13.589844 12.964844 C 14.355469 12.570312 15.023438 12.21875 15.820312 11.601562 C 16.660156 10.949219 16.96875 10.613281 17.613281 9.898438 C 16.914062 10.300781 16.515625 10.519531 15.792969 10.886719 C 15.078125 11.25 14.671875 11.449219 13.9375 11.777344 C 14.382812 11.175781 14.984375 10.082031 14.984375 10.082031 C 15.886719 9.730469 16.402344 9.542969 17.300781 9.179688 L 19.753906 8.183594 C 19.648438 8.449219 19.515625 8.636719 19.398438 8.851562 "/>
<path style=" stroke:none;fill-rule:evenodd;fill:rgb(97.254902%,82.745098%,9.803922%);fill-opacity:1;" d="M 9.765625 12.929688 L 9.941406 18.609375 L 8.269531 19.085938 L 8.082031 13.074219 L 6.914062 13.410156 L 6.875 12.09375 L 10.882812 10.945312 L 10.925781 12.261719 L 9.753906 12.597656 L 9.171875 12.761719 L 9.765625 12.929688 "/>
<path style="fill:none;stroke-width:24.014;stroke-linecap:butt;stroke-linejoin:miter;stroke:rgb(16.470588%,29.803922%,57.254902%);stroke-opacity:1;stroke-miterlimit:2.6131;" d="M 387.593828 928.551387 L 401.177724 491.621336 L 271.979781 454.96008 L 257.490292 917.432809 L 167.232851 891.589629 L 164.214207 992.858836 L 473.927032 1081.206453 L 477.24754 979.937246 L 386.688235 954.094065 L 341.710446 941.472977 Z M 387.593828 928.551387 " transform="matrix(0.0129404,0,0,-0.0129991,4.75,24.999999)"/>
<path style=" stroke:none;fill-rule:evenodd;fill:rgb(97.254902%,82.745098%,9.803922%);fill-opacity:1;" d="M 15.65625 15.9375 L 15.058594 16.351562 L 15.640625 16.269531 L 16.855469 16.121094 L 16.800781 17.230469 L 14.175781 17.578125 L 14.5 11.410156 L 15.90625 11.207031 L 15.65625 15.9375 "/>
<path style="fill:none;stroke-width:24.014;stroke-linecap:butt;stroke-linejoin:miter;stroke:rgb(16.470588%,29.803922%,57.254902%);stroke-opacity:1;stroke-miterlimit:2.6131;" d="M 842.80527 697.164771 L 796.620024 665.311549 L 841.597813 671.622093 L 935.477626 683.041173 L 931.251525 597.698577 L 728.398681 570.95389 L 753.453422 1045.146201 L 862.124589 1061.072812 Z M 842.80527 697.164771 " transform="matrix(0.0129404,0,0,-0.0129991,4.75,24.999999)"/>
<path style=" stroke:none;fill-rule:evenodd;fill:rgb(97.254902%,82.745098%,9.803922%);fill-opacity:1;" d="M 18.941406 12.472656 L 18.414062 12.183594 L 18.984375 12.148438 L 20.253906 12.074219 L 20.402344 10.984375 L 17.746094 11.144531 L 16.9375 17.203125 L 19.691406 17.039062 L 19.835938 15.949219 L 18.464844 16.03125 L 18.664062 14.519531 L 19.847656 14.445312 L 19.988281 13.410156 L 18.804688 13.480469 L 18.941406 12.472656 "/>
<path style="fill:none;stroke-width:24.014;stroke-linecap:butt;stroke-linejoin:miter;stroke:rgb(16.470588%,29.803922%,57.254902%);stroke-opacity:1;stroke-miterlimit:2.6131;" d="M 1096.67319 963.710132 L 1055.921503 985.947288 L 1099.993698 988.651806 L 1198.099612 994.361346 L 1209.570458 1078.201432 L 1004.302699 1065.880846 L 941.816778 599.802092 L 1154.631146 612.42318 L 1165.800127 696.263265 L 1059.845739 689.952721 L 1075.240821 806.247033 L 1166.70572 811.956573 L 1177.572836 891.589629 L 1086.107938 886.180591 Z M 1096.67319 963.710132 " transform="matrix(0.0129404,0,0,-0.0129991,4.75,24.999999)"/>
<path style=" stroke:none;fill-rule:evenodd;fill:rgb(97.254902%,82.745098%,9.803922%);fill-opacity:1;" d="M 26.414062 12.6875 L 25.960938 12.300781 L 26.867188 12.414062 C 27.121094 12.445312 27.199219 12.511719 27.132812 12.734375 L 26.046875 16.230469 C 25.980469 16.449219 25.863281 16.496094 25.609375 16.464844 C 25.355469 16.433594 25.273438 16.363281 25.34375 16.140625 Z M 23.910156 16.039062 C 23.609375 17.011719 24.152344 17.34375 25.292969 17.488281 C 26.433594 17.628906 27.136719 17.449219 27.4375 16.476562 L 28.566406 12.835938 C 28.867188 11.863281 28.324219 11.53125 27.183594 11.390625 C 26.042969 11.25 25.339844 11.425781 25.039062 12.398438 L 23.910156 16.039062 "/>
<path style="fill:none;stroke-width:24.014;stroke-linecap:butt;stroke-linejoin:miter;stroke:rgb(16.470588%,29.803922%,57.254902%);stroke-opacity:1;stroke-miterlimit:2.6131;" d="M 1674.139695 947.182517 L 1639.12343 976.932225 L 1709.15596 968.217664 C 1728.777143 965.813647 1734.81443 960.705111 1729.682736 943.576492 L 1646.06631 674.627114 C 1640.632752 657.798996 1631.576822 654.192971 1611.955639 656.596988 C 1592.334456 659.001005 1585.995304 664.410043 1591.428863 681.538662 L 1674.139695 947.182517 M 1480.644646 689.351717 C 1457.401091 614.526694 1499.360236 588.984016 1587.504626 577.865438 C 1675.649017 567.047363 1729.9846 580.870459 1753.228155 655.695482 L 1840.466953 935.763437 C 1863.710508 1010.58846 1821.751363 1036.131138 1733.606973 1046.949213 C 1645.462582 1057.767289 1591.126998 1044.244695 1567.883443 969.419672 Z M 1480.644646 689.351717 " transform="matrix(0.0129404,0,0,-0.0129991,4.75,24.999999)"/>
<path style=" stroke:none;fill-rule:evenodd;fill:rgb(97.254902%,82.745098%,9.803922%);fill-opacity:1;" d="M 22.320312 12.09375 L 22.675781 12.097656 C 22.972656 12.097656 23.007812 12.230469 22.914062 12.671875 L 22.339844 15.382812 C 22.242188 15.824219 22.148438 15.957031 21.855469 15.953125 L 21.496094 15.953125 L 22.246094 12.414062 L 21.753906 12.09375 Z M 19.914062 17.015625 L 21.679688 17.023438 C 22.945312 17.027344 23.402344 16.757812 23.820312 14.804688 L 24.132812 13.316406 C 24.550781 11.363281 24.210938 11.082031 22.941406 11.078125 L 21.175781 11.070312 L 19.914062 17.015625 "/>
<path style="fill:none;stroke-width:24.014;stroke-linecap:butt;stroke-linejoin:miter;stroke:rgb(16.470588%,29.803922%,57.254902%);stroke-opacity:1;stroke-miterlimit:2.6131;" d="M 1357.785855 992.858836 L 1385.255511 992.558334 C 1408.197201 992.558334 1410.91398 982.341262 1403.669236 948.384525 L 1359.295176 739.836069 C 1351.748567 705.879332 1344.503823 695.662261 1321.863997 695.962763 L 1294.092476 695.962763 L 1352.050432 968.217664 L 1314.015523 992.858836 L 1357.785855 992.858836 M 1171.837414 614.226192 L 1308.280101 613.625188 C 1406.084151 613.324686 1441.40228 634.059331 1473.701766 784.31038 L 1497.850914 898.801679 C 1530.150399 1049.052728 1503.888201 1070.688879 1405.782286 1070.989381 L 1269.339599 1071.590385 Z M 1171.837414 614.226192 " transform="matrix(0.0129404,0,0,-0.0129991,4.75,24.999999)"/>
<path style=" stroke:none;fill-rule:evenodd;fill:rgb(97.254902%,82.745098%,9.803922%);fill-opacity:1;" d="M 11.753906 13.28125 L 11.195312 13.097656 L 12.113281 12.867188 C 12.371094 12.804688 12.46875 12.835938 12.46875 13.0625 L 12.46875 16.605469 C 12.46875 16.832031 12.371094 16.914062 12.113281 16.976562 C 11.855469 17.042969 11.753906 17.007812 11.753906 16.78125 Z M 10.324219 17.214844 C 10.324219 18.199219 10.957031 18.300781 12.113281 18.015625 C 13.269531 17.726562 13.902344 17.308594 13.902344 16.324219 L 13.902344 12.632812 C 13.902344 11.644531 13.269531 11.542969 12.113281 11.832031 C 10.957031 12.117188 10.324219 12.535156 10.324219 13.519531 L 10.324219 17.214844 "/>
<path style="fill:none;stroke-width:24.014;stroke-linecap:butt;stroke-linejoin:miter;stroke:rgb(16.470588%,29.803922%,57.254902%);stroke-opacity:1;stroke-miterlimit:2.6131;" d="M 541.242783 901.506198 L 498.076181 915.629797 L 569.014303 933.35942 C 588.93735 938.167454 596.483959 935.763437 596.483959 918.334315 L 596.483959 645.778913 C 596.483959 628.349791 588.93735 622.039247 569.014303 617.231213 C 549.091256 612.122678 541.242783 614.827196 541.242783 632.256318 L 541.242783 901.506198 M 430.76043 598.900585 C 430.76043 523.174057 479.662455 515.361002 569.014303 537.297655 C 658.366151 559.53481 707.268176 591.688535 707.268176 667.415064 L 707.268176 951.389546 C 707.268176 1027.416577 658.366151 1035.229632 569.014303 1012.992476 C 479.662455 991.055823 430.76043 958.902099 430.76043 883.17557 Z M 430.76043 598.900585 " transform="matrix(0.0129404,0,0,-0.0129991,4.75,24.999999)"/>
<path style=" stroke:none;fill-rule:evenodd;fill:rgb(97.254902%,82.745098%,9.803922%);fill-opacity:1;" d="M 9.765625 12.929688 L 9.941406 18.609375 L 8.269531 19.085938 L 8.082031 13.074219 L 6.914062 13.410156 L 6.875 12.09375 L 10.882812 10.945312 L 10.925781 12.261719 L 9.753906 12.597656 L 9.171875 12.761719 L 9.765625 12.929688 "/>
<path style=" stroke:none;fill-rule:evenodd;fill:rgb(97.254902%,82.745098%,9.803922%);fill-opacity:1;" d="M 15.65625 15.9375 L 15.058594 16.351562 L 15.640625 16.269531 L 16.855469 16.121094 L 16.800781 17.230469 L 14.175781 17.578125 L 14.5 11.410156 L 15.90625 11.207031 L 15.65625 15.9375 "/>
<path style=" stroke:none;fill-rule:evenodd;fill:rgb(97.254902%,82.745098%,9.803922%);fill-opacity:1;" d="M 18.941406 12.472656 L 18.414062 12.183594 L 18.984375 12.148438 L 20.253906 12.074219 L 20.402344 10.984375 L 17.746094 11.144531 L 16.9375 17.203125 L 19.691406 17.039062 L 19.835938 15.949219 L 18.464844 16.03125 L 18.664062 14.519531 L 19.847656 14.445312 L 19.988281 13.410156 L 18.804688 13.480469 L 18.941406 12.472656 "/>
<path style=" stroke:none;fill-rule:evenodd;fill:rgb(97.254902%,82.745098%,9.803922%);fill-opacity:1;" d="M 26.414062 12.6875 L 25.960938 12.300781 L 26.867188 12.414062 C 27.121094 12.445312 27.199219 12.511719 27.132812 12.734375 L 26.046875 16.230469 C 25.980469 16.449219 25.863281 16.496094 25.609375 16.464844 C 25.355469 16.433594 25.273438 16.363281 25.34375 16.140625 Z M 23.910156 16.039062 C 23.609375 17.011719 24.152344 17.34375 25.292969 17.488281 C 26.433594 17.628906 27.136719 17.449219 27.4375 16.476562 L 28.566406 12.835938 C 28.867188 11.863281 28.324219 11.53125 27.183594 11.390625 C 26.042969 11.25 25.339844 11.425781 25.039062 12.398438 L 23.910156 16.039062 "/>
<path style=" stroke:none;fill-rule:evenodd;fill:rgb(97.254902%,82.745098%,9.803922%);fill-opacity:1;" d="M 22.320312 12.09375 L 22.675781 12.097656 C 22.972656 12.097656 23.007812 12.230469 22.914062 12.671875 L 22.339844 15.382812 C 22.242188 15.824219 22.148438 15.957031 21.855469 15.953125 L 21.496094 15.953125 L 22.246094 12.414062 L 21.753906 12.09375 Z M 19.914062 17.015625 L 21.679688 17.023438 C 22.945312 17.027344 23.402344 16.757812 23.820312 14.804688 L 24.132812 13.316406 C 24.550781 11.363281 24.210938 11.082031 22.941406 11.078125 L 21.175781 11.070312 L 19.914062 17.015625 "/>
<path style=" stroke:none;fill-rule:evenodd;fill:rgb(97.254902%,82.745098%,9.803922%);fill-opacity:1;" d="M 11.753906 13.28125 L 11.195312 13.097656 L 12.113281 12.867188 C 12.371094 12.804688 12.46875 12.835938 12.46875 13.0625 L 12.46875 16.605469 C 12.46875 16.832031 12.371094 16.914062 12.113281 16.976562 C 11.855469 17.042969 11.753906 17.007812 11.753906 16.78125 Z M 10.324219 17.214844 C 10.324219 18.199219 10.957031 18.300781 12.113281 18.015625 C 13.269531 17.726562 13.902344 17.308594 13.902344 16.324219 L 13.902344 12.632812 C 13.902344 11.644531 13.269531 11.542969 12.113281 11.832031 C 10.957031 12.117188 10.324219 12.535156 10.324219 13.519531 L 10.324219 17.214844 "/>
</g>
</svg>
