<?xml version="1.0" encoding="UTF-8"?>
<svg xmlns="http://www.w3.org/2000/svg" xmlns:xlink="http://www.w3.org/1999/xlink" width="35pt" height="25pt" viewBox="0 0 35 25" version="1.1">
<g id="surface1">
<path style=" stroke:none;fill-rule:nonzero;fill:rgb(53.72549%,54.117647%,55.686275%);fill-opacity:1;" d="M 33.417969 13.328125 C 31.652344 12.726562 30.058594 10.40625 29.542969 9.867188 C 31.203125 9.945312 32.5 8.46875 32.5 8.46875 L 31.667969 8.597656 C 31.132812 8.695312 30.609375 8.558594 29.96875 8.15625 C 29.707031 7.957031 29.445312 7.75 29.195312 7.550781 C 28.53125 7.019531 27.847656 6.472656 27.074219 6.058594 C 28.527344 5.726562 29.03125 4.121094 29.03125 4.121094 C 29.027344 4.121094 28.609375 4.476562 27.925781 4.730469 C 27.066406 5.054688 25.855469 4.597656 24.953125 4.183594 C 24.527344 3.953125 23.9375 3.753906 23.46875 3.617188 C 23.839844 3.441406 24.429688 3.191406 25.203125 2.253906 C 23.097656 3.207031 20.773438 1.847656 19.425781 1.703125 C 18.59375 1.617188 17.628906 1.652344 16.664062 1.910156 C 16.757812 1.679688 16.8125 1.375 16.761719 0.976562 L 16.714844 0.605469 L 16.394531 0.800781 C 15.875 1.117188 15.417969 1.117188 14.890625 1.117188 C 14.617188 1.117188 14.324219 1.117188 14.003906 1.160156 C 14.058594 1.042969 14.109375 0.957031 14.144531 0.75 C 14.175781 0.535156 14.164062 0 14.164062 0 C 14.164062 0 14.09375 0.152344 13.980469 0.332031 C 13.867188 0.511719 13.703125 0.667969 13.703125 0.667969 C 13.050781 1.195312 12.460938 1.320312 11.359375 1.457031 C 10.675781 1.550781 10.066406 1.734375 9.546875 2.007812 C 8.285156 2.09375 7.558594 2.40625 7.316406 2.960938 C 7.136719 3.386719 7.308594 3.8125 7.453125 4.058594 L 7.390625 4.089844 C 6.75 4.394531 6.019531 4.742188 5.535156 5.101562 L 5.445312 5.171875 L 5.4375 5.289062 C 5.4375 5.308594 5.421875 5.730469 5.539062 6.265625 L 4.976562 6.730469 C 4.53125 7.09375 4.113281 7.4375 3.644531 7.847656 L 3.199219 7.855469 L 3.117188 7.859375 C 3.117188 7.859375 3.054688 7.90625 3.054688 7.90625 C 2.566406 8.28125 1.902344 9.140625 1.582031 9.554688 L 1.507812 9.648438 L 1.539062 9.765625 C 1.546875 9.789062 1.679688 10.308594 1.90625 10.710938 C 1.824219 10.882812 1.757812 11.046875 1.757812 11.054688 L 1.699219 11.199219 L 1.804688 11.308594 C 1.890625 11.402344 1.992188 11.554688 2.09375 11.753906 L 2.152344 11.871094 L 2.285156 11.882812 L 2.503906 11.902344 L 2.511719 11.9375 L 2.425781 11.992188 L 2.261719 12.101562 L 2.332031 12.285156 C 2.40625 12.472656 2.476562 12.667969 2.53125 12.839844 L 2.570312 12.96875 L 2.703125 13 C 2.738281 13.011719 2.867188 13.050781 3.011719 13.09375 C 3.84375 13.347656 4.328125 13.484375 4.5 13.492188 L 4.566406 13.496094 L 4.621094 13.464844 C 5.402344 13.050781 6.144531 12.597656 6.898438 12.125 L 6.957031 12.089844 L 6.988281 12.023438 C 7.097656 11.796875 7.199219 11.5 7.246094 11.351562 C 7.824219 11.015625 8.449219 10.753906 9.253906 10.511719 C 10.160156 10.8125 11.148438 11.082031 12.320312 10.910156 C 12.964844 11.335938 12.851562 11.882812 12.785156 12.09375 C 12.71875 12.308594 12.753906 12.6875 12.210938 12.925781 C 8.878906 13.429688 5.765625 14.070312 4.285156 14.53125 L 3.707031 14.710938 C 3.707031 14.710938 6.167969 15.707031 6.890625 15.996094 L 4.144531 21.765625 L 0.75 25 C 6.167969 24.828125 9.347656 22.984375 10.238281 22.378906 C 12.222656 21.027344 16.996094 18.472656 24.621094 17.855469 C 25.621094 17.773438 26.519531 17.789062 27.316406 17.808594 C 28.367188 17.835938 29.199219 17.855469 29.742188 17.597656 C 30.460938 17.269531 30.667969 16.78125 30.949219 16.105469 C 31.355469 15.132812 31.675781 14.1875 33.148438 13.664062 L 33.808594 13.433594 Z M 33.417969 13.328125 "/>
<path style=" stroke:none;fill-rule:nonzero;fill:rgb(0%,0%,0%);fill-opacity:1;" d="M 15.964844 2.335938 C 15.964844 2.335938 16.65625 2.058594 16.519531 1.007812 C 15.476562 1.648438 14.671875 1.128906 13.398438 1.542969 C 13.769531 1.246094 13.855469 0.859375 13.855469 0.859375 C 13.148438 1.429688 12.503906 1.558594 11.390625 1.699219 C 10.777344 1.78125 10.15625 1.953125 9.613281 2.25 C 6.382812 2.445312 7.785156 4.117188 7.785156 4.117188 L 7.835938 4.144531 C 7.160156 4.472656 6.234375 4.886719 5.683594 5.296875 C 5.683594 5.296875 5.664062 5.78125 5.808594 6.359375 C 5.054688 6.984375 4.457031 7.457031 3.738281 8.089844 C 3.527344 8.09375 3.203125 8.101562 3.203125 8.101562 C 2.742188 8.453125 2.082031 9.304688 1.773438 9.703125 C 1.773438 9.703125 1.933594 10.316406 2.183594 10.703125 C 2.078125 10.894531 1.984375 11.144531 1.984375 11.144531 C 2.09375 11.265625 2.207031 11.441406 2.308594 11.640625 L 2.710938 11.679688 L 2.78125 12.050781 L 2.558594 12.195312 C 2.644531 12.410156 2.714844 12.609375 2.761719 12.765625 C 2.933594 12.808594 4.277344 13.238281 4.507812 13.25 C 5.28125 12.84375 6.015625 12.390625 6.769531 11.921875 C 6.910156 11.625 7.042969 11.191406 7.042969 11.191406 C 7.738281 10.773438 8.464844 10.492188 9.257812 10.253906 C 10.242188 10.585938 11.21875 10.851562 12.398438 10.65625 C 12.769531 10.886719 13.253906 11.410156 13.019531 12.203125 C 12.710938 13.246094 12.308594 13.128906 11.367188 13.332031 C 11.253906 13.433594 10.753906 14.5 10.746094 14.628906 C 21.378906 11.402344 23.863281 15.21875 33.078125 13.460938 C 32.179688 12.964844 31.570312 12.402344 31 11.839844 C 30.1875 11.023438 29.554688 10.164062 28.992188 9.585938 C 29.136719 9.609375 30.597656 9.605469 31.710938 8.835938 C 31.003906 8.964844 30.382812 8.703125 29.832031 8.359375 C 27.851562 6.753906 26.5 6.070312 26.390625 5.992188 C 26.390625 5.992188 27.777344 5.796875 28.457031 4.730469 C 26.992188 5.996094 24.066406 4.007812 23.542969 3.894531 C 23.246094 3.828125 22.652344 3.652344 22.652344 3.652344 C 23.292969 3.5 23.878906 3.15625 24.4375 2.699219 C 22.71875 3.246094 20.730469 2.082031 19.179688 1.929688 C 17.867188 1.796875 16.347656 2.199219 15.964844 2.335938 "/>
<path style=" stroke:none;fill-rule:nonzero;fill:rgb(60.784314%,51.764706%,29.019608%);fill-opacity:1;" d="M 25.8125 10.863281 C 24.390625 9.164062 23.007812 7.671875 20.945312 6.121094 C 18.871094 4.589844 14.746094 3.28125 12.421875 3.691406 C 12.671875 3.554688 13.199219 3.164062 13.421875 2.945312 C 13.457031 2.03125 16.097656 2.476562 16.164062 1.527344 C 15.371094 2.023438 13.273438 1.375 12.152344 2.730469 C 11.835938 3.074219 12.035156 3.433594 12.1875 3.714844 C 11.574219 3.863281 10.691406 4.078125 10.292969 4.207031 C 10.648438 3.945312 11.042969 3.78125 11.40625 3.515625 C 11.40625 3.515625 11.378906 3.441406 11.371094 3.394531 C 10.28125 3.726562 8.527344 4.792969 7.667969 5.328125 C 7.726562 5.113281 7.792969 4.75 7.867188 4.582031 C 7.367188 4.832031 6.507812 5.207031 6.269531 5.457031 C 6.269531 5.457031 6.242188 5.761719 6.324219 6.054688 C 6.640625 5.84375 7.300781 5.550781 7.300781 5.550781 C 7.296875 5.554688 3.84375 8.496094 3.84375 8.496094 C 3.652344 8.523438 3.46875 8.53125 3.269531 8.59375 C 2.980469 8.902344 2.613281 9.300781 2.332031 9.726562 C 2.433594 10.113281 2.484375 10.273438 2.621094 10.523438 C 2.574219 10.609375 2.476562 10.832031 2.441406 10.964844 C 2.441406 10.964844 2.664062 10.988281 2.761719 10.984375 C 2.808594 10.8125 2.898438 10.675781 2.929688 10.589844 C 2.84375 10.363281 2.65625 10.027344 2.667969 9.832031 C 2.8125 9.609375 3.144531 9.269531 3.320312 9.085938 C 3.558594 9.042969 3.828125 9.042969 4.03125 9.03125 C 4.03125 9.03125 3.207031 9.730469 3.390625 10.21875 C 3.445312 10.332031 3.554688 10.402344 3.675781 10.4375 C 3.992188 10.5 4.664062 10.179688 4.894531 9.921875 C 4.855469 10.101562 4.777344 10.253906 4.683594 10.410156 C 5.25 9.984375 5.582031 9.363281 5.597656 8.683594 C 5.511719 8.488281 5.226562 8.585938 5 8.582031 C 5.253906 8.445312 5.929688 8.15625 6.265625 8.085938 C 6.265625 8.085938 6.339844 8.238281 6.367188 8.472656 C 6.9375 8.085938 7.402344 7.898438 7.402344 7.898438 C 7.402344 7.898438 7.492188 8.011719 7.496094 8.230469 C 7.496094 8.230469 7.28125 8.453125 7.070312 8.824219 C 7.675781 8.46875 8.128906 8.191406 8.699219 7.882812 C 8.726562 7.660156 8.578125 7.5 8.578125 7.5 C 8.933594 7.308594 9.8125 6.851562 10.164062 6.664062 C 10.382812 6.746094 11.007812 6.902344 11.007812 6.902344 C 10.636719 7.191406 10.363281 7.496094 10.324219 7.839844 C 10.226562 8.3125 10.375 8.679688 10.722656 8.957031 C 11.289062 9.332031 12.421875 9.304688 13.175781 8.824219 C 14.527344 8.140625 14.121094 5.796875 13.789062 5.421875 C 14.066406 5.390625 14.382812 5.40625 14.382812 5.40625 C 14.574219 5.671875 14.78125 6.246094 14.78125 6.246094 C 17.28125 6.3125 20.46875 8.335938 22.03125 10.472656 C 23.589844 12.609375 26.148438 12.144531 28.921875 12.582031 C 27.511719 12.242188 26.203125 11.363281 25.8125 10.863281 "/>
<path style=" stroke:none;fill-rule:nonzero;fill:rgb(49.019608%,28.235294%,3.137255%);fill-opacity:1;" d="M 22.898438 3.105469 C 21.839844 3.699219 20.667969 3.589844 19.535156 4.03125 C 23.183594 3.386719 25.34375 5.359375 26.652344 5.46875 C 25.199219 5.996094 23.996094 5.035156 22.460938 5.679688 C 22.460938 5.683594 22.460938 5.6875 22.460938 5.691406 C 23.667969 5.589844 26.117188 6.050781 27.84375 7.414062 C 28.699219 8.144531 29.386719 8.667969 30.3125 9.046875 C 29.476562 9.246094 28.800781 8.914062 28.046875 8.582031 C 27.292969 8.25 26.019531 7.84375 24.941406 8.117188 C 26.375 8.226562 27.695312 9.058594 28.554688 9.9375 C 29.167969 10.550781 29.582031 11.433594 30.304688 12.003906 C 30.554688 12.253906 30.832031 12.410156 31.117188 12.597656 C 29.789062 12.335938 28.664062 11.777344 27.578125 11.085938 C 27.214844 10.851562 26.894531 10.570312 26.558594 10.28125 C 27.035156 10.644531 28.472656 11.234375 28.96875 11.335938 C 28.148438 10.863281 26.851562 9.058594 25.089844 8.617188 C 24.691406 8.238281 24.5625 8.15625 24.210938 7.753906 C 24.859375 7.519531 26.238281 7.617188 27.144531 7.902344 C 26.101562 6.910156 24.363281 6.429688 22.796875 6.535156 C 22.234375 6.066406 21.933594 5.832031 21.335938 5.417969 C 21.335938 5.410156 21.339844 5.402344 21.339844 5.394531 C 22.015625 5.128906 22.726562 5.011719 23.417969 5.085938 C 23.421875 5.082031 22.128906 4.390625 20.050781 4.753906 C 19.359375 4.425781 18.816406 4.148438 18.054688 3.90625 C 18.578125 3.652344 19.644531 3.421875 20.238281 3.363281 C 19.777344 3.226562 18.34375 2.875 16.691406 3.527344 C 16.375 3.453125 15.484375 3.253906 15.15625 3.222656 C 16.3125 2.738281 17.136719 2.496094 18.515625 2.429688 C 20.078125 2.355469 21.261719 3.320312 22.898438 3.105469 "/>
<path style=" stroke:none;fill-rule:nonzero;fill:rgb(13.72549%,12.156863%,12.54902%);fill-opacity:1;" d="M 5.039062 9.121094 C 4.910156 9.496094 4.644531 9.9375 4.191406 10.058594 C 4.097656 10.066406 3.921875 10.085938 3.90625 9.988281 C 3.878906 9.628906 4.292969 9.539062 4.53125 9.355469 C 4.542969 9.34375 4.558594 9.332031 4.570312 9.320312 C 4.480469 9.269531 4.308594 9.324219 4.203125 9.328125 C 4.417969 9.128906 4.6875 9.003906 5.003906 9 C 5.046875 9 5.0625 9.046875 5.039062 9.121094 "/>
<path style=" stroke:none;fill-rule:nonzero;fill:rgb(100%,100%,100%);fill-opacity:1;" d="M 5.90625 10.476562 C 5.90625 10.476562 5.441406 11 5.285156 11.292969 C 5.535156 11.148438 6.175781 10.601562 6.175781 10.601562 C 6.089844 10.984375 5.917969 11.464844 5.917969 11.464844 C 5.59375 11.71875 4.714844 12.207031 4.410156 12.308594 C 4.132812 12.25 3.609375 12.164062 3.203125 12.074219 C 3.179688 11.957031 3.132812 11.679688 3.132812 11.679688 C 3.496094 11.675781 3.875 11.742188 4.316406 11.792969 C 4.664062 11.332031 5.460938 10.5625 5.90625 10.476562 "/>
<path style=" stroke:none;fill-rule:nonzero;fill:rgb(60.784314%,51.764706%,29.019608%);fill-opacity:1;" d="M 5.917969 9.878906 C 5.917969 9.878906 6.566406 9.425781 7.121094 9.285156 C 7.121094 9.285156 7.417969 9.414062 7.527344 9.535156 C 7.527344 9.535156 6.992188 10.226562 6.902344 10.488281 C 6.902344 10.488281 7.050781 9.917969 6.871094 9.792969 C 6.691406 9.667969 6.402344 9.738281 5.917969 9.878906 "/>
<path style=" stroke:none;fill-rule:nonzero;fill:rgb(60.784314%,51.764706%,29.019608%);fill-opacity:1;" d="M 18.523438 11.882812 C 18.574219 12.042969 18.523438 12.328125 18.160156 12.402344 C 17.738281 12.457031 16.394531 12.628906 15.972656 12.679688 C 16.121094 12.589844 16.332031 12.121094 16.1875 11.636719 C 16.042969 11.148438 15.484375 10.1875 14.316406 9.578125 C 14.769531 9.199219 14.917969 8.554688 14.917969 8.554688 C 16.929688 9.1875 18.320312 11.183594 18.523438 11.882812 "/>
<path style=" stroke:none;fill-rule:nonzero;fill:rgb(0%,0%,0%);fill-opacity:1;" d="M 10.457031 5.238281 C 10.457031 5.238281 9.964844 5.128906 9.863281 5.171875 C 9.578125 5.285156 8.496094 5.875 8.019531 6.261719 C 8.015625 6.265625 8.015625 6.265625 8.015625 6.265625 C 8.015625 6.265625 7.625 6.523438 7.042969 6.5625 C 7.042969 6.5625 7.855469 6.996094 8.773438 6.847656 C 9.328125 6.757812 9.558594 6.613281 9.828125 6.46875 C 10.5625 6.066406 10.457031 5.238281 10.457031 5.238281 "/>
<path style=" stroke:none;fill-rule:nonzero;fill:rgb(100%,100%,100%);fill-opacity:1;" d="M 12.421875 3.691406 C 12.421875 3.691406 15.097656 3.253906 19.085938 5.394531 C 24.75 8.441406 24.550781 12.042969 28.921875 12.582031 C 25.066406 11.664062 24.050781 7.265625 19.132812 4.980469 C 16.980469 3.976562 14.832031 3.117188 12.421875 3.691406 "/>
<path style=" stroke:none;fill-rule:nonzero;fill:rgb(100%,100%,100%);fill-opacity:1;" d="M 2.332031 9.726562 C 2.332031 9.726562 2.40625 10.148438 2.621094 10.523438 L 2.441406 10.964844 L 2.761719 10.984375 L 2.929688 10.589844 L 2.667969 9.832031 L 3.84375 8.496094 C 3.84375 8.496094 3.515625 8.5 3.269531 8.59375 C 3.269531 8.59375 2.601562 9.273438 2.332031 9.726562 "/>
<path style=" stroke:none;fill-rule:nonzero;fill:rgb(100%,100%,100%);fill-opacity:1;" d="M 3.84375 8.496094 L 4.324219 8.433594 L 7.300781 5.550781 C 7.300781 5.550781 5.597656 6.839844 3.84375 8.496094 "/>
<path style=" stroke:none;fill-rule:nonzero;fill:rgb(100%,100%,100%);fill-opacity:1;" d="M 6.269531 5.457031 L 6.59375 5.550781 C 6.59375 5.550781 7.5 4.769531 7.867188 4.582031 C 7.867188 4.582031 6.738281 5.054688 6.269531 5.457031 "/>
<path style=" stroke:none;fill-rule:evenodd;fill:rgb(49.019608%,28.235294%,3.137255%);fill-opacity:1;" d="M 10.082031 3.425781 C 10.082031 3.425781 10.328125 2.816406 10.714844 2.582031 C 11.105469 2.351562 11.691406 2.203125 12.207031 1.972656 C 12.207031 1.972656 11.371094 2.425781 11.367188 3.011719 C 11.367188 3.011719 10.820312 3.117188 10.082031 3.425781 "/>
<path style=" stroke:none;fill-rule:nonzero;fill:rgb(100%,100%,100%);fill-opacity:1;" d="M 12.207031 1.972656 C 11.78125 2.0625 11.808594 1.992188 11.390625 2.09375 C 10.527344 2.242188 9.621094 2.742188 9.171875 3.480469 C 9.378906 3.25 10.28125 2.632812 10.746094 2.566406 C 11.132812 2.34375 11.703125 2.199219 12.207031 1.972656 "/>
<path style=" stroke:none;fill-rule:evenodd;fill:rgb(0%,0%,0%);fill-opacity:1;" d="M 31.859375 13.171875 C 31.492188 13.140625 31.117188 13.105469 30.773438 13.042969 C 27.390625 12.433594 23.402344 12.207031 19.246094 12.394531 C 14.371094 12.613281 6.996094 13.914062 4.347656 14.738281 C 4.347656 14.738281 6.753906 15.710938 7.1875 15.878906 L 4.324219 21.894531 L 1.242188 24.757812 C 6.320312 24.40625 9.175781 22.722656 10.132812 22.105469 C 11.085938 21.492188 15.496094 18.429688 24.601562 17.636719 C 26.925781 17.4375 28.765625 17.816406 29.652344 17.402344 C 31.183594 16.699219 30.375 14.417969 33.078125 13.460938 C 33.078125 13.460938 32.339844 13.214844 31.859375 13.171875 "/>
<path style=" stroke:none;fill-rule:nonzero;fill:rgb(53.72549%,54.117647%,55.686275%);fill-opacity:1;" d="M 14.710938 13.558594 C 14.777344 13.546875 14.839844 13.53125 14.90625 13.519531 C 14.917969 13.683594 14.925781 13.835938 14.933594 14.007812 C 15.074219 13.804688 15.195312 13.621094 15.320312 13.429688 C 15.367188 13.421875 15.40625 13.414062 15.453125 13.402344 C 15.472656 13.5625 15.492188 13.710938 15.507812 13.878906 C 15.636719 13.679688 15.746094 13.503906 15.863281 13.320312 C 15.917969 13.308594 15.972656 13.300781 16.027344 13.289062 C 15.847656 13.558594 15.679688 13.828125 15.46875 14.128906 C 15.425781 14.140625 15.382812 14.148438 15.339844 14.160156 C 15.332031 13.984375 15.316406 13.828125 15.300781 13.65625 C 15.164062 13.859375 15.03125 14.050781 14.875 14.265625 C 14.828125 14.277344 14.785156 14.285156 14.738281 14.296875 C 14.742188 14.042969 14.730469 13.804688 14.710938 13.558594 "/>
<path style=" stroke:none;fill-rule:nonzero;fill:rgb(53.72549%,54.117647%,55.686275%);fill-opacity:1;" d="M 16.335938 13.246094 C 16.609375 13.207031 16.855469 13.171875 17.128906 13.132812 C 17.113281 13.171875 17.101562 13.210938 17.085938 13.253906 C 16.875 13.285156 16.679688 13.3125 16.46875 13.34375 C 16.449219 13.402344 16.429688 13.453125 16.40625 13.511719 C 16.53125 13.492188 16.644531 13.476562 16.769531 13.457031 C 16.753906 13.5 16.738281 13.542969 16.722656 13.585938 C 16.597656 13.605469 16.480469 13.625 16.359375 13.644531 C 16.332031 13.710938 16.3125 13.769531 16.285156 13.835938 C 16.503906 13.800781 16.703125 13.769531 16.917969 13.734375 C 16.898438 13.785156 16.882812 13.832031 16.863281 13.882812 C 16.582031 13.925781 16.324219 13.96875 16.039062 14.019531 C 16.152344 13.742188 16.242188 13.496094 16.335938 13.246094 "/>
<path style=" stroke:none;fill-rule:nonzero;fill:rgb(53.72549%,54.117647%,55.686275%);fill-opacity:1;" d="M 17.613281 13.195312 C 17.59375 13.246094 17.570312 13.296875 17.550781 13.351562 C 17.714844 13.332031 17.863281 13.316406 18.03125 13.296875 C 18.179688 13.28125 18.207031 13.304688 18.152344 13.449219 C 18.140625 13.484375 18.125 13.515625 18.113281 13.550781 C 18.054688 13.695312 17.996094 13.734375 17.847656 13.753906 C 17.683594 13.773438 17.53125 13.792969 17.367188 13.8125 C 17.214844 13.832031 17.1875 13.804688 17.246094 13.652344 C 17.25 13.648438 17.261719 13.628906 17.261719 13.621094 C 17.261719 13.621094 17.367188 13.605469 17.425781 13.597656 C 17.425781 13.597656 17.402344 13.640625 17.390625 13.671875 C 17.582031 13.648438 17.75 13.628906 17.941406 13.605469 C 17.960938 13.550781 17.984375 13.492188 18.007812 13.433594 C 17.84375 13.453125 17.691406 13.472656 17.527344 13.492188 C 17.378906 13.507812 17.351562 13.480469 17.40625 13.335938 C 17.417969 13.308594 17.429688 13.285156 17.4375 13.253906 C 17.496094 13.117188 17.550781 13.082031 17.695312 13.066406 C 17.84375 13.050781 17.984375 13.039062 18.128906 13.023438 C 18.269531 13.011719 18.3125 13.035156 18.257812 13.15625 C 18.257812 13.160156 18.238281 13.195312 18.238281 13.195312 L 18.085938 13.207031 C 18.085938 13.207031 18.101562 13.167969 18.113281 13.140625 C 17.941406 13.160156 17.785156 13.175781 17.613281 13.195312 "/>
<path style=" stroke:none;fill-rule:nonzero;fill:rgb(53.72549%,54.117647%,55.686275%);fill-opacity:1;" d="M 18.765625 13.660156 C 18.703125 13.667969 18.648438 13.671875 18.585938 13.679688 C 18.679688 13.464844 18.757812 13.277344 18.84375 13.078125 C 18.726562 13.089844 18.613281 13.097656 18.496094 13.105469 C 18.511719 13.066406 18.53125 13.027344 18.546875 12.984375 C 18.847656 12.960938 19.117188 12.941406 19.414062 12.917969 C 19.398438 12.960938 19.382812 13 19.363281 13.039062 C 19.246094 13.046875 19.136719 13.058594 19.015625 13.066406 C 18.933594 13.261719 18.855469 13.449219 18.765625 13.660156 "/>
<path style=" stroke:none;fill-rule:nonzero;fill:rgb(53.72549%,54.117647%,55.686275%);fill-opacity:1;" d="M 19.652344 12.90625 C 19.914062 12.890625 20.152344 12.878906 20.414062 12.863281 C 20.394531 12.902344 20.378906 12.9375 20.363281 12.976562 C 20.160156 12.988281 19.976562 13 19.773438 13.011719 C 19.75 13.0625 19.726562 13.113281 19.703125 13.164062 C 19.820312 13.15625 19.933594 13.152344 20.050781 13.144531 C 20.03125 13.183594 20.015625 13.222656 19.996094 13.265625 C 19.878906 13.269531 19.769531 13.277344 19.652344 13.285156 C 19.625 13.34375 19.597656 13.402344 19.570312 13.464844 C 19.773438 13.453125 19.96875 13.4375 20.171875 13.425781 C 20.152344 13.472656 20.132812 13.519531 20.113281 13.5625 C 19.84375 13.582031 19.597656 13.597656 19.332031 13.613281 C 19.449219 13.359375 19.550781 13.132812 19.652344 12.90625 "/>
<path style=" stroke:none;fill-rule:nonzero;fill:rgb(53.72549%,54.117647%,55.686275%);fill-opacity:1;" d="M 20.761719 12.847656 C 20.980469 12.839844 21.179688 12.835938 21.394531 12.828125 C 21.511719 12.824219 21.546875 12.851562 21.503906 12.949219 C 21.480469 13.003906 21.457031 13.054688 21.429688 13.109375 C 21.382812 13.207031 21.316406 13.246094 21.199219 13.25 C 21.167969 13.253906 21.136719 13.253906 21.101562 13.253906 C 21.175781 13.34375 21.246094 13.421875 21.316406 13.511719 C 21.234375 13.515625 21.152344 13.519531 21.070312 13.523438 C 21.011719 13.429688 20.957031 13.351562 20.898438 13.261719 C 20.839844 13.265625 20.789062 13.265625 20.734375 13.269531 C 20.691406 13.359375 20.648438 13.445312 20.601562 13.539062 C 20.546875 13.542969 20.488281 13.546875 20.433594 13.546875 C 20.554688 13.296875 20.65625 13.074219 20.761719 12.847656 M 20.878906 12.957031 C 20.847656 13.023438 20.820312 13.085938 20.789062 13.148438 C 20.921875 13.144531 21.042969 13.140625 21.179688 13.132812 C 21.234375 13.132812 21.257812 13.125 21.28125 13.078125 C 21.292969 13.050781 21.304688 13.023438 21.320312 12.996094 C 21.339844 12.949219 21.320312 12.941406 21.265625 12.945312 C 21.136719 12.949219 21.007812 12.953125 20.878906 12.957031 "/>
<path style=" stroke:none;fill-rule:nonzero;fill:rgb(53.72549%,54.117647%,55.686275%);fill-opacity:1;" d="M 21.933594 12.8125 C 21.972656 12.8125 22.007812 12.8125 22.050781 12.8125 C 22.164062 12.941406 22.40625 13.25 22.417969 13.277344 C 22.445312 13.21875 22.585938 12.921875 22.644531 12.800781 C 22.695312 12.800781 22.746094 12.800781 22.796875 12.800781 C 22.691406 13.027344 22.582031 13.242188 22.457031 13.488281 C 22.417969 13.488281 22.378906 13.492188 22.339844 13.492188 C 22.230469 13.34375 21.992188 13.03125 21.980469 13.011719 C 21.960938 13.066406 21.8125 13.367188 21.742188 13.5 C 21.691406 13.503906 21.640625 13.503906 21.589844 13.503906 C 21.714844 13.257812 21.824219 13.039062 21.933594 12.8125 "/>
<path style=" stroke:none;fill-rule:nonzero;fill:rgb(53.72549%,54.117647%,55.686275%);fill-opacity:1;" d="M 23.828125 12.804688 C 23.875 12.804688 23.917969 12.804688 23.964844 12.804688 C 24.011719 12.949219 24.054688 13.078125 24.09375 13.226562 C 24.285156 13.085938 24.457031 12.957031 24.640625 12.820312 C 24.6875 12.820312 24.730469 12.824219 24.777344 12.824219 C 24.664062 13.054688 24.546875 13.273438 24.414062 13.515625 C 24.363281 13.515625 24.3125 13.511719 24.257812 13.511719 C 24.339844 13.363281 24.507812 13.042969 24.53125 13.007812 C 24.5 13.039062 24.15625 13.300781 23.996094 13.421875 C 23.984375 13.417969 23.972656 13.417969 23.960938 13.417969 C 23.933594 13.296875 23.90625 13.183594 23.875 13.0625 C 23.867188 13.039062 23.863281 13.019531 23.867188 12.992188 C 23.855469 13.019531 23.6875 13.347656 23.605469 13.496094 C 23.558594 13.496094 23.515625 13.496094 23.46875 13.492188 C 23.601562 13.25 23.714844 13.03125 23.828125 12.804688 "/>
<path style=" stroke:none;fill-rule:nonzero;fill:rgb(53.72549%,54.117647%,55.686275%);fill-opacity:1;" d="M 25.152344 12.835938 C 25.207031 12.839844 25.261719 12.839844 25.320312 12.84375 C 25.195312 13.074219 25.078125 13.292969 24.9375 13.535156 C 24.878906 13.535156 24.824219 13.53125 24.769531 13.53125 C 24.910156 13.285156 25.027344 13.070312 25.152344 12.835938 "/>
<path style=" stroke:none;fill-rule:nonzero;fill:rgb(53.72549%,54.117647%,55.686275%);fill-opacity:1;" d="M 25.792969 12.988281 C 25.707031 13.136719 25.628906 13.273438 25.539062 13.425781 C 25.691406 13.433594 25.835938 13.441406 25.988281 13.449219 C 26.019531 13.398438 26.054688 13.332031 26.054688 13.332031 L 26.226562 13.339844 C 26.207031 13.367188 26.191406 13.394531 26.175781 13.421875 C 26.09375 13.558594 26.035156 13.585938 25.898438 13.578125 C 25.753906 13.574219 25.613281 13.566406 25.46875 13.558594 C 25.332031 13.550781 25.3125 13.519531 25.390625 13.382812 C 25.464844 13.261719 25.53125 13.140625 25.601562 13.019531 C 25.679688 12.886719 25.730469 12.859375 25.871094 12.867188 C 26.019531 12.871094 26.15625 12.878906 26.304688 12.886719 C 26.445312 12.894531 26.46875 12.921875 26.390625 13.054688 C 26.378906 13.078125 26.355469 13.117188 26.34375 13.136719 L 26.175781 13.132812 C 26.199219 13.089844 26.222656 13.050781 26.246094 13.007812 C 26.09375 13 25.945312 12.992188 25.792969 12.988281 "/>
<path style=" stroke:none;fill-rule:nonzero;fill:rgb(53.72549%,54.117647%,55.686275%);fill-opacity:1;" d="M 26.851562 12.914062 C 26.910156 12.917969 26.964844 12.921875 27.019531 12.925781 C 26.964844 13.015625 26.910156 13.101562 26.855469 13.191406 C 27.03125 13.203125 27.199219 13.214844 27.375 13.226562 C 27.433594 13.132812 27.488281 13.046875 27.542969 12.957031 C 27.601562 12.960938 27.65625 12.964844 27.714844 12.96875 C 27.566406 13.203125 27.425781 13.421875 27.265625 13.664062 C 27.207031 13.660156 27.15625 13.65625 27.097656 13.652344 C 27.167969 13.550781 27.230469 13.453125 27.292969 13.351562 C 27.121094 13.339844 26.953125 13.328125 26.777344 13.316406 C 26.710938 13.417969 26.648438 13.515625 26.585938 13.617188 C 26.527344 13.613281 26.476562 13.613281 26.417969 13.605469 C 26.570312 13.371094 26.710938 13.148438 26.851562 12.914062 "/>
<path style=" stroke:none;fill-rule:nonzero;fill:rgb(53.72549%,54.117647%,55.686275%);fill-opacity:1;" d="M 28.097656 13 C 28.15625 13.003906 28.207031 13.007812 28.265625 13.015625 C 28.105469 13.25 27.953125 13.46875 27.785156 13.707031 C 27.730469 13.703125 27.679688 13.699219 27.625 13.695312 C 27.792969 13.453125 27.941406 13.238281 28.097656 13 "/>
<path style=" stroke:none;fill-rule:nonzero;fill:rgb(53.72549%,54.117647%,55.686275%);fill-opacity:1;" d="M 28.707031 13.179688 C 28.597656 13.332031 28.496094 13.476562 28.386719 13.625 C 28.554688 13.640625 28.714844 13.660156 28.882812 13.675781 C 28.921875 13.625 28.960938 13.574219 29 13.519531 C 28.910156 13.511719 28.828125 13.503906 28.738281 13.492188 C 28.769531 13.453125 28.796875 13.414062 28.824219 13.375 C 28.96875 13.390625 29.101562 13.402344 29.246094 13.417969 C 29.183594 13.5 29.125 13.578125 29.066406 13.660156 C 28.960938 13.796875 28.902344 13.820312 28.769531 13.808594 C 28.613281 13.789062 28.457031 13.773438 28.300781 13.757812 C 28.167969 13.742188 28.152344 13.710938 28.25 13.574219 C 28.339844 13.449219 28.425781 13.328125 28.515625 13.203125 C 28.613281 13.070312 28.671875 13.046875 28.804688 13.058594 C 28.972656 13.074219 29.121094 13.089844 29.289062 13.109375 C 29.417969 13.125 29.441406 13.15625 29.34375 13.285156 L 29.304688 13.332031 L 29.152344 13.3125 C 29.175781 13.285156 29.191406 13.261719 29.210938 13.234375 C 29.039062 13.214844 28.878906 13.199219 28.707031 13.179688 "/>
<path style=" stroke:none;fill-rule:nonzero;fill:rgb(53.72549%,54.117647%,55.686275%);fill-opacity:1;" d="M 30.019531 13.207031 C 30.074219 13.210938 30.121094 13.21875 30.175781 13.226562 C 30.128906 13.484375 30.082031 13.71875 30.03125 13.976562 C 29.96875 13.96875 29.914062 13.960938 29.855469 13.953125 C 29.867188 13.898438 29.878906 13.84375 29.890625 13.789062 C 29.746094 13.769531 29.609375 13.746094 29.464844 13.726562 C 29.398438 13.777344 29.339844 13.820312 29.273438 13.867188 C 29.21875 13.863281 29.167969 13.855469 29.117188 13.847656 C 29.425781 13.625 29.707031 13.425781 30.019531 13.207031 M 29.921875 13.652344 C 29.945312 13.550781 29.96875 13.453125 29.988281 13.351562 C 29.863281 13.441406 29.75 13.519531 29.625 13.613281 C 29.726562 13.625 29.820312 13.640625 29.921875 13.652344 "/>
<path style=" stroke:none;fill-rule:nonzero;fill:rgb(53.72549%,54.117647%,55.686275%);fill-opacity:1;" d="M 30.78125 13.324219 C 30.816406 13.328125 30.851562 13.335938 30.886719 13.34375 C 30.9375 13.511719 31.015625 13.910156 31.015625 13.941406 C 31.058594 13.882812 31.320312 13.566406 31.421875 13.445312 C 31.46875 13.453125 31.511719 13.460938 31.558594 13.46875 C 31.367188 13.707031 31.191406 13.921875 31.003906 14.160156 C 30.972656 14.152344 30.9375 14.144531 30.902344 14.140625 C 30.855469 13.960938 30.773438 13.550781 30.773438 13.523438 C 30.734375 13.578125 30.476562 13.914062 30.378906 14.039062 C 30.332031 14.03125 30.289062 14.023438 30.242188 14.011719 C 30.425781 13.773438 30.59375 13.558594 30.78125 13.324219 "/>
<path style=" stroke:none;fill-rule:nonzero;fill:rgb(60.784314%,51.764706%,29.019608%);fill-opacity:1;" d="M 13.945312 13.324219 L 13.785156 13.347656 C 9.394531 13.925781 5.816406 14.867188 5.816406 14.867188 C 5.816406 14.867188 7.464844 15.371094 7.933594 15.550781 L 4.78125 22.289062 L 2.683594 24.082031 C 2.683594 24.082031 6.050781 23.578125 8.386719 22.492188 C 10.917969 21.316406 12.320312 17.84375 12.449219 17.058594 L 12.480469 16.859375 L 11.960938 16.976562 C 13.957031 15.15625 13.945312 13.324219 13.945312 13.324219 M 9.582031 15.726562 C 9.84375 15.636719 10.550781 15.449219 10.953125 15.339844 C 10.472656 16.148438 9.390625 16.957031 8.804688 17.359375 Z M 7.851562 19.472656 C 8.164062 19.367188 8.933594 19.121094 9.355469 18.984375 C 8.789062 20.117188 7.738281 20.640625 7.234375 20.832031 Z M 7.851562 19.472656 "/>
<path style=" stroke:none;fill-rule:nonzero;fill:rgb(60.784314%,51.764706%,29.019608%);fill-opacity:1;" d="M 20.355469 14.101562 L 19.960938 14.121094 C 19.109375 14.15625 18.464844 14.238281 17.902344 14.53125 C 17.289062 14.851562 16.804688 15.417969 16.382812 16.308594 C 16.035156 17.046875 16.015625 17.800781 16.332031 18.234375 C 16.507812 18.472656 16.765625 18.578125 17.0625 18.539062 C 18.28125 18.363281 18.945312 17.117188 19.480469 15.789062 L 19.488281 15.769531 L 19.488281 15.746094 C 19.492188 15.726562 19.453125 15.308594 19.339844 14.914062 Z M 18.085938 15.710938 C 17.90625 16.335938 17.425781 16.914062 17.132812 17.152344 C 17.148438 16.96875 17.226562 16.679688 17.351562 16.425781 C 17.523438 16.078125 17.847656 15.679688 18.050781 15.492188 C 18.070312 15.5625 18.082031 15.648438 18.085938 15.710938 "/>
<path style=" stroke:none;fill-rule:nonzero;fill:rgb(60.784314%,51.764706%,29.019608%);fill-opacity:1;" d="M 24.214844 14.015625 C 24.214844 14.015625 22.835938 13.992188 22.191406 14.175781 L 21.667969 15.261719 L 21.648438 14.554688 L 22.109375 14.0625 C 22.109375 14.0625 21.027344 14.132812 20.511719 14.273438 L 18.75 18.011719 C 19.453125 17.84375 20.976562 17.546875 20.976562 17.546875 L 20.570312 17.046875 L 20.898438 16.332031 L 21.214844 17.496094 C 21.628906 17.425781 22.746094 17.277344 22.746094 17.277344 L 22.367188 16.585938 L 23.25 14.675781 C 23.535156 14.410156 24.214844 14.015625 24.214844 14.015625 "/>
<path style=" stroke:none;fill-rule:nonzero;fill:rgb(100%,100%,100%);fill-opacity:1;" d="M 12.316406 17.035156 C 12.207031 17.707031 10.867188 21.203125 8.332031 22.367188 C 6.023438 23.429688 3.132812 23.875 3.132812 23.875 L 4.890625 22.371094 L 8.117188 15.480469 C 7.773438 15.320312 6.332031 14.882812 6.332031 14.882812 C 7.6875 14.558594 10.0625 13.980469 13.800781 13.480469 C 13.800781 13.480469 13.566406 15.457031 11.453125 17.234375 Z M 11.214844 15.132812 C 11.214844 15.132812 9.789062 15.503906 9.484375 15.617188 L 8.476562 17.738281 C 8.476562 17.738281 10.675781 16.398438 11.214844 15.132812 M 9.605469 18.761719 C 9.605469 18.761719 8.121094 19.234375 7.753906 19.363281 L 6.984375 21.058594 C 6.984375 21.058594 8.878906 20.589844 9.605469 18.761719 "/>
<path style=" stroke:none;fill-rule:nonzero;fill:rgb(60.784314%,51.764706%,29.019608%);fill-opacity:1;" d="M 16.441406 15.410156 C 16.550781 15.246094 16.988281 14.757812 17.15625 14.578125 L 17.410156 14.300781 L 17.046875 14.351562 C 15.167969 14.621094 13.773438 15.195312 13.761719 15.203125 L 13.714844 15.222656 L 13.691406 15.269531 L 11.628906 19.894531 L 11.617188 19.898438 C 11.617188 19.898438 11.601562 19.945312 11.601562 19.945312 L 11.402344 20.410156 L 11.246094 20.769531 L 11.574219 20.582031 C 12.652344 19.976562 13.835938 19.492188 13.847656 19.488281 L 14.019531 19.417969 L 13.898438 19.273438 L 13.566406 18.875 L 13.875 18.152344 L 14.222656 18.011719 L 14.464844 19.113281 L 14.5 19.261719 L 14.636719 19.207031 C 15.140625 19.003906 16.035156 18.683594 16.042969 18.679688 L 16.238281 18.613281 L 16.09375 18.460938 C 15.871094 18.21875 15.703125 18.070312 15.632812 18.015625 L 15.453125 17.269531 C 16.128906 16.777344 16.398438 15.601562 16.441406 15.410156 M 14.53125 15.9375 L 15.003906 15.738281 C 14.933594 15.878906 14.851562 16.03125 14.777344 16.125 L 14.773438 16.132812 L 14.769531 16.136719 C 14.636719 16.351562 14.472656 16.484375 14.191406 16.652344 Z M 14.53125 15.9375 "/>
<path style=" stroke:none;fill-rule:nonzero;fill:rgb(100%,100%,100%);fill-opacity:1;" d="M 11.515625 20.464844 L 13.808594 15.328125 C 13.808594 15.328125 15.179688 14.753906 17.0625 14.484375 C 17.0625 14.484375 16.433594 15.152344 16.320312 15.34375 C 16.320312 15.34375 16.046875 16.734375 15.300781 17.210938 L 15.527344 18.09375 C 15.527344 18.09375 15.71875 18.246094 16.003906 18.554688 C 16.003906 18.554688 15.105469 18.875 14.589844 19.082031 L 14.3125 17.832031 L 13.78125 18.042969 L 13.414062 18.898438 L 13.804688 19.363281 C 13.804688 19.363281 12.613281 19.84375 11.515625 20.464844 M 14.875 16.210938 C 15.050781 15.992188 15.261719 15.488281 15.261719 15.488281 L 14.441406 15.828125 L 13.902344 16.957031 C 14.277344 16.785156 14.636719 16.589844 14.875 16.210938 "/>
<path style=" stroke:none;fill-rule:nonzero;fill:rgb(49.019608%,28.235294%,3.137255%);fill-opacity:1;" d="M 13.78125 18.042969 L 14.3125 17.832031 L 14.25 17.554688 L 13.511719 17.863281 L 13.058594 18.910156 L 13.300781 19.230469 C 13.300781 19.230469 12.550781 19.566406 11.714844 20 L 11.515625 20.464844 C 12.613281 19.84375 13.804688 19.363281 13.804688 19.363281 L 13.414062 18.898438 Z M 13.78125 18.042969 "/>
<path style=" stroke:none;fill-rule:nonzero;fill:rgb(100%,100%,100%);fill-opacity:1;" d="M 19.96875 14.253906 C 18.375 14.324219 17.371094 14.542969 16.507812 16.367188 C 15.972656 17.492188 16.300781 18.507812 17.042969 18.402344 C 18.070312 18.257812 18.726562 17.300781 19.355469 15.742188 C 19.355469 15.742188 19.320312 15.277344 19.179688 14.890625 Z M 18.222656 15.726562 C 18 16.539062 17.335938 17.242188 17.035156 17.386719 C 16.925781 17.214844 17.066406 16.695312 17.230469 16.367188 C 17.449219 15.921875 17.910156 15.382812 18.109375 15.277344 C 18.203125 15.40625 18.222656 15.726562 18.222656 15.726562 "/>
<path style=" stroke:none;fill-rule:nonzero;fill:rgb(49.019608%,28.235294%,3.137255%);fill-opacity:1;" d="M 19.96875 14.253906 C 19.832031 14.261719 19.082031 14.667969 18.855469 14.816406 C 18.996094 15.207031 19.050781 15.679688 19.050781 15.679688 C 18.835938 16.320312 18.480469 17.027344 18.003906 17.507812 C 17.40625 18.117188 16.582031 18.398438 16.308594 17.882812 C 16.53125 18.582031 17.160156 18.503906 17.753906 18.152344 C 18.347656 17.796875 18.960938 16.925781 19.355469 15.742188 C 19.355469 15.742188 19.320312 15.277344 19.179688 14.890625 Z M 19.96875 14.253906 "/>
<path style=" stroke:none;fill-rule:nonzero;fill:rgb(100%,100%,100%);fill-opacity:1;" d="M 18.988281 17.816406 L 20.605469 14.378906 C 20.605469 14.378906 20.992188 14.296875 21.78125 14.222656 L 21.519531 14.503906 L 21.570312 15.765625 L 22.28125 14.285156 C 22.28125 14.285156 22.929688 14.167969 23.742188 14.15625 C 23.4375 14.304688 23.144531 14.597656 23.144531 14.597656 L 22.222656 16.585938 L 22.539062 17.164062 C 22.539062 17.164062 21.777344 17.238281 21.308594 17.339844 L 20.929688 15.957031 L 20.417969 17.066406 L 20.734375 17.453125 C 20.734375 17.453125 19.773438 17.613281 18.988281 17.816406 "/>
<path style=" stroke:none;fill-rule:nonzero;fill:rgb(49.019608%,28.235294%,3.137255%);fill-opacity:1;" d="M 20.929688 15.957031 L 20.808594 15.527344 L 20.109375 17.003906 L 20.296875 17.269531 C 20.296875 17.269531 19.773438 17.363281 19.125 17.515625 L 18.988281 17.816406 C 19.773438 17.613281 20.734375 17.453125 20.734375 17.453125 L 20.417969 17.066406 Z M 20.929688 15.957031 "/>
<path style=" stroke:none;fill-rule:nonzero;fill:rgb(49.019608%,28.235294%,3.137255%);fill-opacity:1;" d="M 21.234375 14.464844 L 21.566406 15.765625 L 21.519531 14.503906 L 21.78125 14.21875 C 21.566406 14.300781 21.234375 14.464844 21.234375 14.464844 "/>
<path style=" stroke:none;fill-rule:nonzero;fill:rgb(49.019608%,28.235294%,3.137255%);fill-opacity:1;" d="M 22.878906 14.476562 L 21.886719 16.582031 L 22.101562 16.933594 C 22.101562 16.933594 21.679688 17.007812 21.234375 17.082031 L 21.308594 17.339844 C 21.777344 17.238281 22.539062 17.164062 22.539062 17.164062 L 22.222656 16.585938 L 23.144531 14.597656 C 23.144531 14.597656 23.4375 14.304688 23.742188 14.15625 C 23.570312 14.148438 22.878906 14.476562 22.878906 14.476562 "/>
<path style=" stroke:none;fill-rule:nonzero;fill:rgb(60.784314%,51.764706%,29.019608%);fill-opacity:1;" d="M 31.082031 14.542969 L 30.832031 14.476562 C 29.890625 14.230469 28.996094 13.996094 28.484375 14.828125 C 28.367188 15.019531 28.328125 15.183594 28.371094 15.328125 C 28.433594 15.558594 28.671875 15.675781 28.863281 15.769531 C 29.050781 15.863281 29.09375 15.914062 29.078125 15.988281 C 29.03125 16.246094 28.355469 16.242188 28.070312 16.183594 L 28.003906 16.171875 C 28.003906 16.171875 27.964844 16.234375 27.964844 16.234375 L 27.644531 16.753906 C 27.644531 16.753906 27.511719 16.972656 27.511719 16.972656 L 27.425781 17.113281 L 27.585938 17.140625 C 27.605469 17.140625 28.105469 17.222656 28.75 17.15625 C 29.199219 17.109375 29.75 16.980469 30.011719 16.398438 C 30.171875 16.046875 30.015625 15.699219 29.789062 15.507812 L 29.785156 15.511719 C 29.671875 15.386719 29.511719 15.3125 29.378906 15.253906 C 29.332031 15.230469 29.28125 15.210938 29.242188 15.1875 C 29.417969 15.0625 29.863281 15.207031 30.148438 15.367188 L 30.246094 15.421875 L 30.515625 14.890625 Z M 31.082031 14.542969 "/>
<path style=" stroke:none;fill-rule:nonzero;fill:rgb(49.019608%,28.235294%,3.137255%);fill-opacity:1;" d="M 29.71875 15.59375 C 29.789062 15.710938 29.882812 15.925781 29.78125 16.140625 C 29.554688 16.597656 29.15625 16.71875 28.691406 16.761719 C 28.335938 16.796875 27.96875 16.8125 27.734375 16.8125 L 27.601562 17.03125 C 27.601562 17.03125 28.101562 17.109375 28.738281 17.046875 C 29.203125 16.996094 29.683594 16.867188 29.914062 16.351562 C 30.0625 16.023438 29.878906 15.730469 29.71875 15.59375 "/>
<path style=" stroke:none;fill-rule:nonzero;fill:rgb(49.019608%,28.235294%,3.137255%);fill-opacity:1;" d="M 15.300781 17.210938 C 16.046875 16.757812 16.324219 15.347656 16.324219 15.347656 C 16.4375 15.160156 17.066406 14.484375 17.066406 14.484375 C 17.066406 14.484375 16.332031 14.96875 16.0625 15.21875 C 16.0625 15.21875 15.871094 16.585938 14.957031 17.1875 L 15.242188 18.207031 L 15.519531 18.410156 C 15.519531 18.410156 14.726562 18.691406 14.519531 18.769531 L 14.589844 19.082031 C 15.105469 18.871094 16.003906 18.554688 16.003906 18.554688 C 15.71875 18.246094 15.527344 18.09375 15.527344 18.09375 Z M 15.300781 17.210938 "/>
<path style=" stroke:none;fill-rule:nonzero;fill:rgb(49.019608%,28.235294%,3.137255%);fill-opacity:1;" d="M 30.246094 14.671875 L 30.074219 14.957031 C 29.769531 14.785156 29.273438 14.808594 29.113281 14.984375 C 28.957031 15.152344 29.089844 15.28125 29.089844 15.265625 C 29.082031 15.238281 29.089844 15.207031 29.113281 15.167969 C 29.304688 14.882812 29.894531 15.101562 30.199219 15.269531 L 30.433594 14.8125 L 30.808594 14.582031 C 30.675781 14.550781 30.246094 14.671875 30.246094 14.671875 "/>
<path style=" stroke:none;fill-rule:nonzero;fill:rgb(49.019608%,28.235294%,3.137255%);fill-opacity:1;" d="M 13.800781 13.480469 C 13.613281 13.507812 13.574219 13.496094 13.394531 13.523438 C 13.371094 13.738281 12.746094 16.105469 10.234375 17.851562 C 10.675781 17.75 11.199219 17.640625 11.746094 17.53125 C 11.273438 18.769531 9.925781 21.164062 7.992188 22.054688 C 6.488281 22.75 4.734375 23.179688 3.695312 23.394531 L 3.132812 23.875 C 3.132812 23.875 6.023438 23.429688 8.332031 22.367188 C 10.867188 21.203125 12.207031 17.707031 12.316406 17.035156 L 11.453125 17.234375 C 13.539062 15.59375 13.800781 13.480469 13.800781 13.480469 "/>
<path style=" stroke:none;fill-rule:evenodd;fill:rgb(53.72549%,54.117647%,55.686275%);fill-opacity:1;" d="M 9.378906 5.972656 C 9.359375 6.109375 9.234375 6.214844 9.085938 6.214844 C 9 6.214844 8.925781 6.175781 8.886719 6.113281 C 8.796875 6.171875 8.71875 6.222656 8.648438 6.269531 C 8.734375 6.394531 8.878906 6.46875 9.058594 6.472656 C 9.359375 6.464844 9.617188 6.25 9.65625 5.972656 C 9.667969 5.863281 9.644531 5.765625 9.59375 5.683594 C 9.507812 5.730469 9.429688 5.777344 9.34375 5.828125 C 9.371094 5.871094 9.386719 5.917969 9.378906 5.972656 "/>
<path style=" stroke:none;fill-rule:evenodd;fill:rgb(100%,100%,100%);fill-opacity:1;" d="M 9.085938 6.21875 C 9.234375 6.214844 9.359375 6.109375 9.378906 5.972656 C 9.386719 5.917969 9.371094 5.871094 9.34375 5.828125 C 9.183594 5.925781 9.03125 6.023438 8.882812 6.113281 C 8.925781 6.175781 8.996094 6.214844 9.085938 6.21875 "/>
<path style=" stroke:none;fill-rule:evenodd;fill:rgb(100%,100%,100%);fill-opacity:1;" d="M 22.441406 3.949219 C 20.375 3.664062 18.945312 4.21875 18.945312 4.21875 C 19.097656 4.273438 19.28125 4.363281 19.390625 4.410156 C 21.613281 3.859375 23.261719 4.363281 23.972656 4.707031 C 24.558594 4.988281 25.503906 5.5625 26.652344 5.46875 C 25.230469 5.222656 23.917969 4.152344 22.441406 3.949219 "/>
<path style=" stroke:none;fill-rule:evenodd;fill:rgb(100%,100%,100%);fill-opacity:1;" d="M 26.238281 6.445312 C 23.625 5.25 21.839844 5.796875 21.839844 5.796875 C 22.058594 5.941406 22.253906 6.101562 22.253906 6.101562 C 23.949219 5.871094 25.949219 6.390625 27.914062 7.835938 C 28.4375 8.21875 29.339844 8.824219 30.3125 9.046875 C 28.886719 8.445312 27.933594 7.222656 26.238281 6.445312 "/>
<path style=" stroke:none;fill-rule:evenodd;fill:rgb(100%,100%,100%);fill-opacity:1;" d="M 27.714844 9.222656 C 25.527344 7.761719 24.644531 8.203125 24.644531 8.203125 C 24.832031 8.382812 24.976562 8.507812 24.976562 8.507812 C 27.914062 8.574219 29.769531 12.140625 31.117188 12.597656 C 29.824219 11.753906 29.265625 10.253906 27.714844 9.222656 "/>
<path style=" stroke:none;fill-rule:evenodd;fill:rgb(100%,100%,100%);fill-opacity:1;" d="M 13.789062 5.421875 C 13.789062 5.421875 13.488281 5.453125 13.332031 5.492188 C 14.003906 6.449219 13.839844 8.425781 12.675781 9.0625 C 12.851562 9 13.023438 8.921875 13.175781 8.824219 C 14.527344 8.140625 14.121094 5.796875 13.789062 5.421875 "/>
<path style=" stroke:none;fill-rule:nonzero;fill:rgb(60.784314%,51.764706%,29.019608%);fill-opacity:1;" d="M 8.125 3.824219 C 8.308594 3.386719 8.570312 3.027344 8.890625 2.738281 C 7.496094 2.964844 8.113281 3.816406 8.113281 3.816406 Z M 8.125 3.824219 "/>
<path style=" stroke:none;fill-rule:nonzero;fill:rgb(60.784314%,51.764706%,29.019608%);fill-opacity:1;" d="M 28.804688 14.1875 C 28.804688 14.1875 27.441406 14.058594 26.925781 14.289062 C 26.46875 14.492188 26.03125 14.945312 25.726562 15.585938 C 25.46875 16.117188 25.457031 16.660156 25.6875 16.972656 C 25.8125 17.144531 26.027344 17.226562 26.246094 17.21875 C 27.421875 17.160156 28.070312 15.152344 28.070312 15.152344 C 28.070312 15.152344 28.039062 14.929688 27.96875 14.6875 Z M 26.96875 15.1875 C 26.847656 15.605469 26.519531 15.992188 26.320312 16.152344 C 26.332031 16.03125 26.382812 15.835938 26.46875 15.667969 C 26.585938 15.433594 26.804688 15.164062 26.945312 15.039062 C 26.957031 15.085938 26.964844 15.144531 26.96875 15.1875 "/>
<path style=" stroke:none;fill-rule:nonzero;fill:rgb(100%,100%,100%);fill-opacity:1;" d="M 28.445312 14.273438 C 27.242188 14.226562 26.46875 14.316406 25.839844 15.628906 C 25.453125 16.4375 25.691406 17.167969 26.230469 17.09375 C 26.980469 16.988281 27.457031 16.300781 27.917969 15.179688 C 27.917969 15.179688 27.902344 14.898438 27.796875 14.621094 Z M 27.09375 15.167969 C 26.929688 15.753906 26.445312 16.257812 26.226562 16.363281 C 26.144531 16.238281 26.25 15.867188 26.367188 15.628906 C 26.527344 15.308594 26.867188 14.921875 27.011719 14.84375 C 27.078125 14.9375 27.09375 15.167969 27.09375 15.167969 "/>
<path style=" stroke:none;fill-rule:nonzero;fill:rgb(49.019608%,28.235294%,3.137255%);fill-opacity:1;" d="M 28.445312 14.273438 C 28.347656 14.277344 27.71875 14.40625 27.554688 14.515625 C 27.65625 14.792969 27.695312 15.132812 27.695312 15.132812 C 27.539062 15.597656 27.28125 16.105469 26.933594 16.453125 C 26.496094 16.886719 25.894531 17.089844 25.695312 16.71875 C 25.855469 17.222656 26.316406 17.167969 26.75 16.914062 C 27.183594 16.660156 27.632812 16.03125 27.917969 15.179688 C 27.917969 15.179688 27.902344 14.898438 27.796875 14.621094 Z M 28.445312 14.273438 "/>
<path style=" stroke:none;fill-rule:nonzero;fill:rgb(60.784314%,51.764706%,29.019608%);fill-opacity:1;" d="M 24.203125 15.832031 C 24.089844 15.988281 23.914062 16.113281 23.820312 16.195312 C 23.824219 16.0625 23.875 15.847656 23.964844 15.660156 C 24.085938 15.402344 24.355469 15.097656 24.507812 14.957031 C 24.523438 15.007812 24.554688 15.074219 24.5625 15.121094 C 24.535156 15.226562 24.492188 15.332031 24.445312 15.429688 L 25.625 15.382812 C 25.707031 15.171875 25.75 15.03125 25.75 15.03125 C 25.75 15.03125 25.683594 14.75 25.609375 14.472656 L 26.589844 13.929688 C 26.589844 13.929688 24.988281 13.875 24.417969 14.148438 C 23.910156 14.390625 23.441406 14.898438 23.121094 15.605469 C 22.859375 16.191406 22.863281 16.78125 23.140625 17.109375 C 23.292969 17.289062 23.539062 17.367188 23.78125 17.347656 C 24.589844 17.28125 25.144531 16.433594 25.453125 15.78125 Z M 24.203125 15.832031 "/>
<path style=" stroke:none;fill-rule:nonzero;fill:rgb(100%,100%,100%);fill-opacity:1;" d="M 24.25 15.976562 C 24.074219 16.199219 23.839844 16.363281 23.722656 16.421875 C 23.625 16.292969 23.726562 15.886719 23.847656 15.625 C 24.015625 15.273438 24.414062 14.832031 24.574219 14.742188 C 24.65625 14.839844 24.699219 15.09375 24.699219 15.09375 C 24.683594 15.15625 24.667969 15.21875 24.644531 15.277344 L 25.511719 15.242188 C 25.535156 15.183594 25.554688 15.128906 25.578125 15.066406 C 25.578125 15.066406 25.535156 14.710938 25.40625 14.410156 L 26.136719 14.066406 C 24.773438 14.066406 23.90625 14.199219 23.253906 15.644531 C 22.851562 16.539062 23.15625 17.320312 23.761719 17.214844 C 24.382812 17.109375 24.820312 16.660156 25.199219 15.9375 Z M 24.25 15.976562 "/>
<path style=" stroke:none;fill-rule:nonzero;fill:rgb(49.019608%,28.235294%,3.137255%);fill-opacity:1;" d="M 25.25 15.253906 L 25.523438 15.242188 C 25.542969 15.183594 25.5625 15.128906 25.578125 15.070312 C 25.578125 15.070312 25.535156 14.710938 25.40625 14.410156 L 26.136719 14.066406 C 26.023438 14.074219 25.320312 14.242188 25.136719 14.367188 C 25.265625 14.664062 25.328125 15.03125 25.328125 15.03125 C 25.304688 15.101562 25.277344 15.175781 25.25 15.253906 "/>
<path style=" stroke:none;fill-rule:nonzero;fill:rgb(49.019608%,28.235294%,3.137255%);fill-opacity:1;" d="M 24.925781 15.949219 C 24.808594 16.148438 24.675781 16.332031 24.523438 16.488281 C 24.050781 16.980469 23.382812 17.226562 23.140625 16.835938 C 23.34375 17.371094 23.863281 17.289062 24.339844 16.996094 C 24.652344 16.804688 24.96875 16.433594 25.226562 15.9375 Z M 24.925781 15.949219 "/>
<path style=" stroke:none;fill-rule:nonzero;fill:rgb(100%,100%,100%);fill-opacity:1;" d="M 29.089844 15.046875 C 29.257812 14.746094 29.75 14.835938 30.054688 15.007812 L 30.242188 14.675781 L 30.804688 14.582031 C 29.8125 14.324219 29.035156 14.140625 28.574219 14.886719 C 28.085938 15.675781 29.304688 15.636719 29.191406 16.011719 C 29.054688 16.492188 28.054688 16.292969 28.054688 16.292969 L 27.734375 16.8125 C 28.882812 16.929688 29.621094 16.660156 29.789062 16.140625 C 30.066406 15.28125 28.878906 15.425781 29.089844 15.046875 "/>
<path style=" stroke:none;fill-rule:nonzero;fill:rgb(100%,100%,100%);fill-opacity:1;" d="M 18.492188 2.726562 C 20.054688 2.652344 21.3125 3.636719 22.898438 3.101562 C 21.261719 3.320312 20.082031 2.351562 18.519531 2.429688 C 17.136719 2.496094 16.3125 2.738281 15.15625 3.222656 C 15.273438 3.234375 15.457031 3.265625 15.664062 3.304688 C 16.5625 2.960938 17.328125 2.78125 18.492188 2.726562 "/>
</g>
</svg>
