<?xml version="1.0" encoding="UTF-8" standalone="no"?>
<!-- Created with Inkscape (http://www.inkscape.org/) -->

<svg
   xmlns:dc="http://purl.org/dc/elements/1.1/"
   xmlns:cc="http://creativecommons.org/ns#"
   xmlns:rdf="http://www.w3.org/1999/02/22-rdf-syntax-ns#"
   xmlns:svg="http://www.w3.org/2000/svg"
   xmlns="http://www.w3.org/2000/svg"
   version="1.0"
   width="280"
   height="200"
   id="svg3864">
  <metadata
     id="metadata3869">
    <rdf:RDF>
      <cc:Work
         rdf:about="">
        <dc:format>image/svg+xml</dc:format>
        <dc:type
           rdf:resource="http://purl.org/dc/dcmitype/StillImage" />
        <dc:title></dc:title>
      </cc:Work>
    </rdf:RDF>
  </metadata>
  <defs
     id="defs3867" />
  <g
     transform="matrix(0.37796996,0,0,0.37796996,-346.09862,-0.32407729)"
     id="g4632">
    <path
       d="m 1126.474,511.9275 c 32.5466,-63.72855 68.5003,-130.84689 97.1308,-196.32726 l 59.5103,29.30485 c -9.1271,16.96034 -49.7612,31.35952 -67.5884,37.54217 l 31.7883,22.47009 c -8.3745,19.53623 -19.4653,38.91502 -28.1486,60.56749 l 134.5178,-0.60744 c 14.6495,-4.90895 20.6277,-12.47511 27.0472,-25.57254 4.6523,-9.1686 9.2401,-20.09958 11.5933,-23.22043 1.678,-2.22545 4.5732,-1.86455 7.0438,-2.6436 3.9377,-1.24168 6.0681,-0.57882 7.58,3.60247 0.7599,-3.23953 1.2445,-6.12992 -1.6251,-9.42273 l -12.106,-7.42742 40.1937,-0.81575 c 16.2739,0 28.2293,1.58769 33.6677,2.68224 -1.8529,3.34719 -30.1195,61.64174 -34.6016,68.41305 -17.7791,26.85996 -37.9828,37.15358 -90.1703,40.42169 -18.826,1.17893 -204.9562,1.10447 -215.8329,1.03312 z m 222.3746,-126.68223 4.6781,-2.74583 -10.202,-9.45276 21.2434,-1.03778 c 2.4918,4.92478 7.8528,15.12012 9.6949,20.33459 -6.5162,1.46367 -21.0274,-3.58937 -25.4144,-7.09822 z m -38.2705,-0.12982 10.621,-1.38455 c -14.8787,-4.87803 -21.7835,-8.86129 -32.6035,-20.6866 8.3066,1.3956 20.6375,6.59248 25.5598,5.55443 l -26.4002,-21.6504 c 31.632,-18.60047 34.5507,-41.90275 24.1125,-73.34969 -5.7315,-14.14066 -17.363,-26.24627 -53.2522,-52.96657 -27.4223,-20.41649 -39.1939,-31.4631 -50.2314,-48.22694 -6.1836,-9.3918 -19.1595,-39.17705 -20.9803,-52.10842 8.4941,10.10488 22.3942,44.3353 86.7498,90.7351 26.8752,23.54146 46.0595,30.93183 67.9356,80.62269 4.059,2.68151 7.9736,4.33629 12.4477,5.2209 -3.0781,-3.67839 -7.722,-4.37594 -11.6133,-10.25757 0,-2.72255 4.9194,-19.41708 8.6241,-27.06601 17.4956,-35.03378 54.0064,-56.82794 87.147,-75.69862 11.2923,-4.59808 33.4476,-26.33834 55.7476,-34.17943 -19.1037,38.44072 -87.1157,53.84502 -110.447,105.80505 -6.6846,18.52754 -13.806,39.78409 -7.5051,58.6192 l -28.3528,-5.17228 c 1.876,3.46358 7.2737,12.35949 6.6314,12.61246 l -24.5006,6.99259 26.6651,9.05479 c -6.5018,2.01289 -16.0381,8.03298 -21.346,11.27834 5.6539,1.59094 8.124,1.10438 12.411,2.63608 -3.462,7.64252 -7.7016,3.73685 -11.1235,9.4375 3.3363,8.71325 6.288,22.42565 9.6242,31.1389 -11.4609,0.75608 -24.46,-1.56423 -35.9209,-6.96095 z m -52.7691,-69.28873 c -21.73,-9.40633 -36.1232,-27.90222 -48.9416,-48.17939 8.5333,1.88184 11.6542,3.48056 21.2559,7.04622 -27.835,-21.35386 -39.7238,-30.60537 -53.5902,-64.32654 22.4936,12.0039 45.8854,36.60833 67.5506,46.63299 -37.2004,-25.53253 -54.6055,-59.18441 -69.3784,-101.9983 27.7415,31.13454 52.7941,56.12131 87.181,79.5149 32.7316,21.99544 45.8055,43.57317 45.8055,60.60265 -4.1879,30.01197 -27.0841,30.95196 -49.8828,20.70747 z m 208.0337,-48.92329 c -11.5231,-0.36646 -20.6703,-0.19933 -35.9313,0.51914 9.5473,-15.0501 30.7871,-36.89815 47.9482,-47.05372 27.0193,0.86254 52.4769,0.70684 79.3068,1.1876 l -43.4218,87.89081 -67.8325,-0.54383 19.9306,-42 z M 1027.1256,302.7168 1168.5772,15.548065 c 93.3544,1.116368 211.7356,-7.3213589 266.5148,10.854024 15.8173,22.947067 -16.984,70.393183 -25.5716,87.319081 -14.8806,20.3966 -40.8868,29.77216 -65.0579,35.00401 15.8271,4.57082 18.4119,6.78227 29.6657,20.23662 2.9908,23.37273 -28.1922,75.14758 -39.1359,96.86635 L 1289.7364,217.554 c 6.7785,-13.51889 19.2329,-28.27042 7.6314,-41.31164 l -60.1239,-1.55051 c -14.3089,-13.81013 -26.6949,-29.92756 -36.0046,-47.19864 42.046,0.77449 88.8729,2.81724 130.4858,-5.98125 9.2684,-4.99399 33.9579,-47.938415 22.3904,-56.05101 l -138.6572,-3.078177 c -8.34,11.879296 -12.2324,26.934848 -21.3887,39.346427 -4.0613,-10.107432 -2.0438,-32.086316 -0.646,-42.11545 -19.0979,27.443579 -8.1668,68.23887 -3.2069,101.57922 -16.7011,-21.48877 -29.5568,-51.8222 -31.645,-75.61827 -4.318,38.70359 -0.314,50.65513 15.1604,84.44355 -16.3233,-1.29352 -30.9268,-25.68987 -34.1525,-37.7483 1.3737,24.02933 13.0724,41.2688 27.4195,63.4185 -10.2867,2.45518 -21.6506,-5.72048 -29.9137,-10.9202 l 8.5418,18.71926 c -7.0322,18.10322 -18.7997,35.06157 -26.4744,54.17232 l 74.3494,0.72557 c 7.7912,14.129 13.5432,32.18431 23.3304,45.19087 -6.7139,-0.84892 -190.093,0.24429 -189.707,-0.85947 z m 380.6113,-42.19279 c -3.1615,0.64298 -11.63,5.87443 -17.3214,9.0228 0.033,-8.12464 10.8881,-29.55788 24.3598,-42.98932 20.7214,-17.96519 44.6066,-31.67247 69.5378,-42.91059 -11.7482,16.29474 -22.6137,27.38502 -39.7799,37.99886 8.1588,-1.92122 25.2203,-4.9296 30.1568,-3.4388 -21.1613,16.81233 -33.7568,20.48332 -49.0474,48.07386 -7.5487,13.83869 -15.9055,30.97697 -35.2254,38.98219 5.2889,-10.54639 13.9477,-33.2081 17.3197,-44.739 z"
       id="path3944"
       style="fill:#84061c;fill-opacity:1" />
    <path
       d="m 1215.4414,319.00445 c 2.606,-0.0481 6.2119,-0.0663 9.1024,0.22256 0,1.13307 -12.1792,26.06342 -45.5311,93.27299 -41.3816,83.39095 -47.0127,94.95333 -47.0127,96.53094 0,1.57991 204.0356,0.72595 219,-0.9166 43.8259,-4.81049 62.3176,-13.84315 78.7894,-38.48637 C 1434.7469,462.21116 1464,405.26996 1464,403.03704 1464,402.3434 1453.7844,402 1433.1492,402 c -19.8208,0 -34.2714,-0.13646 -36.8841,-0.13646 -3.7362,0 -2.7926,-4.17907 -0.5758,-6.2752 1.7654,-1.66929 3.8461,-0.58834 41.3616,-0.58834 l 44.3642,0 c -15.3339,25.62688 -29.6008,54.41841 -42.8401,80.97387 -16.2109,24.23056 -39.2654,38.91921 -76.075,43.76698 l -244.5593,-0.56551 97.5007,-200.17089 z M 1215,467.65849 c 0,-0.18783 6.7616,-14.14351 15.0257,-31.0126 14.9097,-30.43433 14.6622,-32.20425 17.3655,-31.55602 1.4984,0.35931 4.2549,2.35043 6.7881,2.92925 -8.8656,17.57957 -18.4049,34.25863 -24.9106,52.43578 45.2727,-1.82775 115.6402,-0.52679 134.1868,-7.93051 11.398,-14.06501 16.3492,-25.90137 26.1985,-42.06259 1.5895,0.96138 3.4012,2.23793 4.0475,3.79817 1.0794,2.60598 -0.2265,4.70835 -7.3675,19.32682 -6.914,14.15404 -8.5505,16.69675 -14.8037,23.00098 -5.8787,5.92674 -8.0859,7.44196 -13.4745,9.25 -6.355,2.13231 -7.3894,2.16223 -74.75,2.16223 C 1245.7376,468 1215,467.84632 1215,467.65849 z m 221.5527,-152.31287 c 7.3998,-14.62594 12.524,-25.89828 19.0483,-40.98096 l -23.0603,-1.46123 1.4711,-8.01113 c 0.1641,-0.89356 2.9196,-0.23699 12.5891,-0.23699 5.9016,0 13.5673,-0.65531 17.0592,-0.65531 l 6.349,0 -10.5215,21.02486 c -7.2891,14.56545 -10.1292,21.17546 -9.2443,21.51502 0.7026,0.26959 14.9511,0.3709 31.6635,0.22514 L 1512.2929,306.5 1532.587,266 c 11.1617,-22.275 20.3208,-41.0625 20.3535,-41.75 0.047,-0.97865 -8.0111,-1.25 -37.1186,-1.25 l -39.6255,0 9.2159,-7.30395 81.8232,1.16799 -50.0557,98.43339 -80.6271,0.0482 z M 1163.1107,9.1493135 1266.6649,9.3881193 c 102.0079,-0.308578 124.1172,0.184772 142.9666,3.4050227 33.5272,5.727835 45.5878,26.468268 33.9859,55.610588 -3.8375,9.639324 -26.4313,50.82759 -29.9259,55.58824 -14.1361,20.13884 -24.3564,18.81381 -43.71,28.0925 7.7788,6.75405 15.5534,15.68837 13.021,32.41159 l -42.0624,88.26006 -7.684,-10.82298 18.6821,-36.63228 c 9.2283,-18.6522 17.366,-35.68785 18.0838,-37.85698 2.0623,-6.23223 1.6566,-14.4106 -0.9856,-19.86869 -3.7363,-7.71822 -13.998,-13.95011 -27.7864,-16.87456 -2.8875,-0.61242 -5.25,-1.36922 -5.25,-1.68176 0,-0.31254 3.9056,-1.37218 8.6791,-2.35476 27.3867,-5.63729 47.2052,-15.77491 59.5048,-30.43822 4.4082,-5.25534 26.2204,-48.064389 29.6768,-58.244317 6.6153,-19.483626 2.3983,-27.706299 -16.8607,-32.876372 -19.2291,-5.162046 -42.5617,-6.08522 -154.0752,-6.096138 L 1170.3495,19 1141.2283,77.75 c -16.0167,32.3125 -47.3862,95.65 -69.71,140.75 l -40.5887,82 91.4448,0.5 97.9707,0.5 5.1919,10.11247 -210.8157,-0.34946 L 1163.1107,9.1493135 z M 1125.3879,237.75 c 6.2082,-12.7875 12.6322,-25.89152 14.2756,-29.12005 l 3.396,-6.82175 5.8615,8.36962 -20.0854,42.9143 61.4481,0.93567 c 0.7718,1.97628 1.6999,4.89662 2.0759,6.98902 -1.3597,0 -16.6278,-0.0168 -39.8095,-0.0168 l -38.4498,0 11.2876,-23.25 z m 159.4973,-24.80324 c 5.2492,-7.64213 11.7172,-22.72993 6.6617,-30.05633 l -47.6895,-1.3555 -8.2519,-10.41508 32.3945,0.0541 c 25.5571,0.303 27.7473,0.47044 31,2.37 1.925,1.12419 4.3869,3.68061 5.4709,5.68094 1.7744,3.27426 1.8519,4.2044 0.7775,9.32682 -0.6564,3.12942 -3.5683,10.62647 -6.4709,16.66012 l -6.0933,12.87369 -7.799,-5.13878 z m -87.038,-90.12785 c 36.8726,-9.18821 103.4235,2.5389 132.4728,-8.51346 5.8375,-9.10737 20.0477,-30.31258 19.4057,-43.695954 l -129.6066,0.720208 c -6.4971,10.299965 -13.4127,29.551136 -22.175,40.207646 -0.416,0 -4.1347,-8.34761 -4.5036,-11.03015 2.0511,-4.658752 2.7976,-6.075638 11.1533,-23.417131 l 8.7478,-18.155221 68.5792,0.282576 c 76.1904,0.313937 73.7959,0.100218 78.1166,6.9724 3.4107,5.424939 2.2245,10.089994 -7.7136,30.335093 -9.7679,19.898253 -13.2992,24.428763 -22.386,28.720363 C 1320.5337,129.68667 1315.9145,130 1259.842,130 l -56.2515,0 c -2.4482,-2.48836 -3.9469,-3.51124 -5.7433,-7.18109 z"
       id="path4013"
       style="fill:#c4b264;fill-opacity:1" />
    <g
       id="g4627">
      <path
         d="m 1353.4811,308.85109 c 9.9703,3.26302 18.9792,6.33376 28.9495,9.59678 9.2452,7.79498 18.4905,15.58996 27.7357,23.38494 0.1813,3.98813 0.3625,7.97626 0.5438,11.96439 -9.0639,0.58782 -15.0515,1.17564 -27.1918,-0.54384 1.6315,4.89452 3.263,9.78905 4.8945,14.68357 -15.7712,-10.36053 -31.5425,-13.41462 -47.3137,-20.12193 5.0758,-3.62557 9.1902,-6.28978 14.266,-9.91535 -7.2511,-2.90046 -13.5409,-6.76228 -20.792,-9.66274 7.0699,-2.5379 14.9088,-4.3067 21.9787,-6.8446 -1.0877,-3.98813 -1.983,-8.55309 -3.0707,-12.54122 z"
         id="path4084"
         style="fill:#ffffff;fill-opacity:1;fill-rule:evenodd;stroke:#000000;stroke-width:1px;stroke-linecap:butt;stroke-linejoin:miter;stroke-opacity:1" />
      <path
         d="m 1259.5238,366.84925 c 10.2832,16.06814 26.527,24.63755 41.6171,34.74517 -18.2795,10.77761 -30.72,4.92985 -50.8294,2.71353 -12.8215,-6.0865 -22.951,-11.01935 -32.1193,-21.14362 13.7772,-5.43836 27.5544,-9.5308 41.3316,-16.31508 z"
         id="path4086"
         style="fill:#ffffff;fill-opacity:1;fill-rule:evenodd;stroke:#000000;stroke-width:1px;stroke-linecap:butt;stroke-linejoin:miter;stroke-opacity:1" />
      <path
         d="m 1403.8056,355.61655 c 7.0091,2.43614 8.0837,8.46297 8.4404,15.02422 2.3239,-1.83906 3.3234,-2.6848 4.4885,-6.17938 -1.8769,-2.50126 -3.2572,-5.49918 -5.1342,-8.00044 -2.9845,-1.77143 -5.1413,-2.54955 -7.7947,-0.8444 z"
         id="path4623"
         style="fill:#ffffff;fill-opacity:1;fill-rule:evenodd;stroke:none" />
    </g>
    <path
       d="m 1340.2313,406.17264 c 1.6388,-2.81086 4.6723,-2.67837 4.0174,-5.07114 -1.0855,-1.01108 -3.6028,-3.53378 -4.7028,-4.37894 -1.9678,-1.51196 0.9925,-1.65946 3.3428,-1.69076 3.4374,-0.0458 24.1518,9.48998 27.1113,12.718 2.1529,2.10075 4.0339,4.88129 4.8271,7.52587 -5.402,-2.72385 -8.9741,-4.98029 -11.2802,-5.28965 0.6462,2.66172 0.4766,5.59536 -0.5087,7.98517 -6.6506,-9.77909 -8.6786,-12.21639 -22.8069,-11.79855 z m 52.6424,5.85595 c -2.9997,-3.19299 -10.177,-4.51208 -14.5153,-3.69822 -3.2661,0.61272 -3.1708,-2.65572 -0.8966,-4.06127 4.0361,-2.32781 -4.8578,-0.90318 -9.1363,-7.46137 5.9767,-1.92275 28.5682,6.46494 32.4644,8.69682 5.1599,2.95577 6.3435,5.69457 1.4474,5.21867 -4.7976,-0.46632 -5.8934,-3.90886 -4.5595,-0.40054 1.2398,3.26109 -1.8788,4.81978 -4.8041,1.70591 z m 15.4777,-36.45184 c -0.061,-9.79464 -9.974,-14.29617 -16.5855,-16.44332 2.2017,7.03262 4.9219,10.31136 5.8671,17.38815 -5.615,-4.14757 -13.9198,-22.47149 -13.3375,-23.05381 5.3003,0.3366 10.4221,1.23141 15.8044,0.88633 9.0066,-0.83708 11.0814,-0.15542 13.6982,4.50043 7.7342,9.68215 0.7793,14.00236 -5.4467,16.72222 z m 6.0416,-8.15854 c 1.2324,-3.21164 0.5248,-5.5007 -2.7852,-9.00997 -2.2437,-2.37875 -4.0213,-3.43453 -5.25,-3.11832 -1.531,0.39397 -1.462,0.49848 0.3922,0.59408 1.2375,0.0638 2.25,0.58422 2.25,1.15649 0,0.57227 0.9591,2.3377 2.1313,3.92318 1.3825,1.86999 1.9582,3.78794 1.6386,5.45951 -0.5377,2.8131 0.6468,3.53927 1.6231,0.99503 z m -15.6961,-4.70982 c 3.1493,1.22363 2.1337,7.3536 -0.4178,9.74476 -1.537,-3.35778 -1.7321,-7.97675 0.4178,-9.74476 z m -6.0741,-19.41895 c 1.052,1.73179 1.8158,3.07938 1.2611,4.12998 -0.5547,1.0506 -1.8841,1.80421 -2.8431,1.80421 -1.3942,-0.57346 -1.8463,-1.58718 -1.6111,-3.62718 0.1445,-1.25295 1.6338,-2.04717 3.1931,-2.30701 z"
       id="path4082"
       style="fill:#c4b264;fill-opacity:1" />
    <path
       d="m 1103.9835,521.75 c 2.1198,-4.5375 25.2322,-51.45 51.3608,-104.25 l 47.5066,-96 -101.2553,-0.5 -101.2552,-0.5 79.0777,-159.82129 79.0777,-159.82129452 112.5021,0.45462832 c 73.8848,0.2985735 115.9347,0.8415419 122.5021,1.5818075 31.941,3.6003186 48.1042,9.7880597 56.1804,21.5075077 8.0169,11.633302 8.221,25.022914 0.6844,44.899735 -3.8476,10.147715 -22.9037,48.236326 -27.8721,55.709946 -7.414,11.15223 -19.8437,21.81294 -32.7345,28.07578 l -4.4723,2.17281 2.2832,4.12018 c 1.2557,2.26611 2.7942,6.97684 3.4188,10.46831 1.8424,10.29847 -0.3331,20.05166 -8.7315,39.14433 -0.361,0.82085 1.1211,0.0915 3.2936,-1.6207 5.4641,-4.30648 14.6684,-9.7945 29.95,-17.8576 34.9934,-18.4637 53.4418,-31.91538 67.1558,-48.96684 11.8639,-14.75119 18.2719,-29.21785 20.7186,-46.774451 l 1.2923,-9.272859 1.7069,5.5 c 3.8712,12.47385 3.9095,26.28131 0.1141,41.13687 -1.8864,7.38371 -9.8611,24.63861 -14.5103,31.39602 -2.3219,3.37471 -2.6919,4.3831 -1.3418,3.65632 2.0658,-1.11199 14.3711,-13.71489 18.736,-19.18921 l 2.7908,-3.5 -0.6482,4.78819 c -1.2603,9.31 -6.9525,22.48444 -13.896,32.16178 -1.9534,2.72248 -3.3863,5.11523 -3.1843,5.31723 0.7989,0.79889 10.4617,-4.8453 15.5996,-9.11199 2.9913,-2.48401 5.5869,-4.36816 5.7681,-4.18699 0.1811,0.18117 -1.0124,2.98738 -2.6523,6.23602 -4.0745,8.07159 -10.8748,16.16819 -18.212,21.68364 l -6.1355,4.61212 47.5991,0 c 26.1795,0 47.5991,0.22634 47.5991,0.50298 0,0.27664 -13.4637,27.72664 -29.9194,61 L 1524.1613,327 l -52.5807,0 C 1436.8629,327 1419,326.65704 1419,325.99048 c 0,-0.55524 4.5021,-10.00524 10.0048,-21 L 1439.0095,285 l -6.7547,0.0433 -6.7548,0.0433 -5.5,9.06323 c -6.4861,10.68815 -15.1636,20.51724 -22.0569,24.98391 -4.5679,2.95995 -6.1693,4.86622 -4.0877,4.86622 1.6883,0 14.5601,12.59119 17.3234,16.94578 1.6741,2.63818 2.8212,5.83219 2.8212,7.85564 0,2.16857 0.9005,4.48006 2.4737,6.34969 3.4279,4.07382 4.933,10.08658 3.5635,14.23607 -1.3226,4.00759 -6.1245,8.68962 -11.8568,11.56088 l -4.3197,2.16365 0.6382,-4.30585 c 0.3511,-2.36822 0.2183,-5.43086 -0.2949,-6.80586 -0.8937,-2.39428 -1.0287,-2.27798 -3.1918,2.75 -1.2421,2.8875 -2.75,5.25 -3.3506,5.25 -0.6007,0 -3.5828,-2.65297 -6.6269,-5.8955 -3.078,-3.27867 -7.893,-7.07323 -10.8478,-8.54883 -6.1349,-3.06372 -20.1869,-8.59127 -20.1869,-7.9408 0,0.24195 2.7405,5.13775 6.0899,10.87956 3.3494,5.74181 7.5983,13.90945 9.4418,18.15031 4.9783,11.45183 7.5883,12.12218 11.5529,2.9672 l 2.4154,-5.57781 53.1916,-0.0171 53.1916,-0.0171 -19.1416,38.75 c -27.3989,55.46626 -32.7928,64.39506 -47.1255,78.00975 -18.7651,17.82495 -41.6597,25.23716 -87.099,28.19859 C 1332.974,529.58029 1280.9225,530 1213.3317,530 l -113.2025,0 3.8543,-8.25 z M 1352,516.14881 C 1398.6269,511.07295 1418.4568,501.15341 1436.2589,474 1440.3236,467.80014 1476,398.25488 1476,396.5313 1476,396.23908 1458.2972,396 1436.6605,396 l -39.3395,0 -1.0667,2.34116 c -0.9931,2.17958 -0.7315,2.48276 3.7889,4.39259 5.8727,2.48113 8.9477,6.92358 8.9531,12.93446 0.01,6.9862 -0.9335,7.86333 -3.3522,3.12883 -2.4305,-4.75768 -4.6441,-6.08294 -4.6441,-2.78037 0,1.20083 -1.53,3.71333 -3.4,5.58333 -3.8213,3.82129 -6.3184,4.61094 -4.6352,1.46574 1.5849,-2.96137 1.2381,-6.59387 -0.8787,-9.20496 -1.0527,-1.29843 -2.1318,-2.13578 -2.398,-1.86078 -0.2662,0.275 -4.3639,8.375 -9.1061,18 -7.4693,15.16022 -9.3921,18.23536 -14.381,23 -9.8686,9.42489 -6.286,9.01064 -77.8799,9.00495 L 1226.1422,462 1239.0711,435.621 C 1246.182,421.11255 1252,409.02103 1252,408.75096 c 0,-0.27007 -2.1375,-1.06103 -4.75,-1.75768 -6.1237,-1.63296 -15.4888,-6.281 -21.4434,-10.64268 -4.6199,-3.38402 -12.3855,-11.84897 -12.995,-14.16525 -0.1893,-0.71944 4.824,-2.91451 12.7731,-5.59272 20.7844,-7.00266 42.3499,-18.73956 51.1892,-27.85938 l 3.2292,-3.33167 -7.6108,-2.23914 c -12.8391,-3.77731 -30.4622,-13.29845 -38.447,-20.77146 C 1231.7516,320.33786 1230.3954,320 1224.3482,320 l -7.0425,0 -48.6528,98.43154 C 1141.8938,472.56889 1120,517.15168 1120,517.50441 c 0,1.16848 220.6575,-0.12085 232,-1.3556 z m -0.2179,-67.69949 c 5.9583,-2.4851 9.409,-6.67561 15.2438,-18.51154 l 5.4741,-11.10431 -3,-2.5868 -3,-2.5868 -0.5351,3.92006 c -0.6815,4.99348 -1.2855,5.91537 -6.2148,9.48612 -5.6414,4.08664 -7.2855,3.81174 -4.22,-0.7056 3.9782,-5.86212 3.2781,-12.37405 -1.6016,-14.89744 -5.1887,-2.68315 -9.7106,-1.91623 -14.0014,2.37465 -4.2456,4.24558 -4.9271,3.83549 -4.9271,-2.9649 0,-2.93245 0.6746,-4.63826 2.5929,-6.55657 l 2.5929,-2.5929 -2.8429,-2.32568 c -1.5636,-1.27913 -3.8886,-2.34187 -5.1666,-2.36165 -2.6732,-0.0414 -17.1016,-4.72905 -18.7394,-6.08833 -0.7339,-0.60908 -2.7671,1.48015 -6.1516,6.3213 -2.7805,3.97709 -5.9913,8.07396 -7.1351,9.10416 -3.1501,2.83711 -12.4441,4.59391 -24.3952,4.61129 L 1265.01,411 l -9.505,18.99 c -5.2277,10.4445 -9.505,19.2195 -9.505,19.5 0,0.2805 22.9644,0.51 51.0321,0.51 43.8381,0 51.5562,-0.2186 54.75,-1.55068 z m 10.8219,-36.52426 c -0.6221,-3.89012 -0.5485,-4.0437 1.6222,-3.38598 1.2506,0.37893 3.8488,1.61131 5.7738,2.73862 l 3.5,2.04966 -3.5,-3.75104 c -4.2619,-4.56758 -22.3949,-13.59069 -27.2221,-13.54591 -2.9417,0.0273 -3.0728,0.14422 -1.2779,1.13998 1.1,0.61027 2.8027,1.80507 3.7838,2.65512 1.6937,1.46755 1.6483,1.65349 -0.8989,3.6846 l -2.6827,2.13905 5.9467,-0.43015 c 5.2756,-0.3816 6.2935,-0.13836 9.0192,2.15518 1.6899,1.42192 3.6355,3.94443 4.3235,5.60556 1.7371,4.1938 2.384,3.77067 1.6124,-1.05469 z m 33.472,-2.22506 -0.9799,-2.57737 4.108,1.44936 c 5.1363,1.81221 5.8028,1.28119 1.8895,-1.50535 -3.5058,-2.49636 -25.9923,-10.02848 -27.8436,-9.32658 -2.2187,0.84119 -1.3426,1.92017 2.918,3.59382 3.9617,1.55616 4.0855,1.72855 2.5,3.48043 -2.4274,2.68234 -2.0708,3.16161 1.5747,2.1161 4.5143,-1.29471 8.9678,-0.23729 12.9055,3.06424 1.8435,1.54564 3.4769,2.69156 3.6298,2.54649 0.1529,-0.14507 -0.163,-1.42358 -0.702,-2.84114 z m -104.6506,-7.16068 5.0746,-1.1677 -5.9403,-1.76906 c -13.8996,-4.1394 -25.5141,-12.11203 -30.9847,-21.26902 l -2.925,-4.89602 -8.392,4.21175 c -4.6156,2.31647 -11.733,4.99939 -15.8164,5.96205 -7.2361,1.70593 -7.3802,1.79933 -5.683,3.68502 3.1169,3.46295 16.5525,10.69321 24.7414,13.31436 13.4837,4.31594 26.7628,4.9574 39.9254,1.92862 z m 79.2395,-14.79889 c -0.7491,-1.79276 -2.6959,-5.40285 -4.3264,-8.02242 l -2.9645,-4.76286 -8.7802,-0.40932 c -8.4433,-0.39361 -8.717,-0.3394 -7.1312,1.41286 0.907,1.00219 4.4364,3.33398 7.8432,5.18174 l 6.1942,3.35957 -5,0.5 -5,0.5 5,2.148 c 5.9566,2.55898 7.9399,3.08232 12.2634,3.236 l 3.2634,0.116 -1.3619,-3.25957 z M 1342.3955,386.25 c -1.2825,-5.48918 -4.5795,-14.67955 -6.9303,-19.31872 -2.1709,-4.28404 -2.8206,-4.80946 -6.6849,-5.40589 -2.3542,-0.36336 -6.7553,-1.37537 -9.7803,-2.24893 l -5.5,-1.58829 10,-1.4138 c 5.5,-0.77759 12.7,-1.74333 16,-2.14609 l 6,-0.73228 -4,-1.19242 c -2.2,-0.65584 -4.675,-1.20183 -5.5,-1.21332 -0.825,-0.0115 -2.1097,-0.4072 -2.8548,-0.87936 -0.9833,-0.62306 0.7865,-2.26423 6.4537,-5.98469 4.2947,-2.81942 8.3918,-5.12621 9.1048,-5.12621 0.713,0 1.2963,-0.41767 1.2963,-0.92815 0,-1.09819 -8.9559,-4.57493 -17.75,-6.89072 -3.4375,-0.90521 -6.25,-1.94405 -6.25,-2.30853 0,-0.92915 16.816,-7.55985 21.3109,-8.40311 2.0412,-0.38292 3.9228,-1.03853 4.1813,-1.45692 0.2586,-0.41839 -1.3214,-3.53256 -3.511,-6.92038 -2.1897,-3.38782 -3.9812,-6.42746 -3.9812,-6.75476 0,-1.54408 17.6269,2.51228 27.6787,6.36951 1.0471,0.40183 1.3221,-1.84949 1.3253,-10.84995 0.011,-30.03189 9.7471,-57.35942 27.1753,-76.27358 9.0569,-9.82909 21.4304,-19.05335 43.8207,-32.66776 10.175,-6.1869 21.0163,-13.17047 24.0919,-15.51904 6.4111,-4.89578 14.5147,-13.54117 17.3429,-18.50248 1.722,-3.02074 1.2447,-2.75833 -4.3388,2.38534 -10.3799,9.56228 -16.0209,13.0507 -56.096,34.69038 -38.6076,20.84727 -60.4732,42.72766 -73.0308,73.08031 -4.3389,10.48739 -7.1624,20.94868 -5.6555,20.95412 0.6525,0.002 3.022,1.23986 5.2656,2.75 5.859,3.9436 12.2844,9.63232 9.9207,8.78329 -1.1,-0.39512 -6.4408,-1.72499 -11.8685,-2.95527 l -9.8685,-2.23688 -2.2174,-6.92271 c -7.5725,-23.64148 -22.6929,-41.50296 -59.1362,-69.85656 -47.3204,-36.81615 -67.0782,-56.83932 -81.7913,-82.88976 -2.5399,-4.49701 -4.618,-7.74961 -4.618,-7.22799 -2e-4,3.16129 5.9549,19.69008 10.472,29.06574 11.0143,22.86104 24.1738,36.91202 59.0137,63.0113 37.1119,27.8014 45.9565,36.39272 53.5063,51.97456 5.1434,10.61513 7.2747,19.18709 7.335,29.5 0.1082,18.52041 -7.7578,31.20809 -27.347,44.11025 l -2.4448,1.61025 6.5308,6.53082 c 3.592,3.59195 10.4465,9.0832 15.2324,12.20276 4.7858,3.11957 8.7015,5.81452 8.7015,5.98879 0,0.4717 -14.4291,-2.26158 -22.9125,-4.34026 l -7.4124,-1.81629 3.4124,2.83675 c 4.5254,3.76189 17.5985,10.19496 26.9125,13.2432 l 7.5,2.45456 -7,0.33959 -7,0.33958 5,1.68035 c 2.971,0.99847 8.3555,1.70861 13.269,1.75 l 8.2691,0.0697 -0.6426,-2.75 z m 72.6451,-16.32588 c 1.6419,-3.06785 1.0616,-7.30939 -1.5195,-11.1079 -3.003,-4.41928 -6.4678,-5.38428 -13.8384,-3.85416 -3.7502,0.77855 -6.1755,0.80106 -8.0851,0.0751 -3.4629,-1.31662 -5.5976,-1.32275 -5.5976,-0.0161 0,1.81013 6.0738,13.54223 8.5714,16.55653 2.3223,2.80275 2.3024,2.65624 -0.487,-3.57757 -1.5998,-3.575 -3.2036,-7.51295 -3.5642,-8.75099 -0.6143,-2.10909 -0.4793,-2.18395 2.1416,-1.18748 9.8906,3.7604 16.3382,9.61262 16.3382,14.82956 0,2.07802 0.091,2.09554 2.5406,0.49035 1.3973,-0.91557 2.9723,-2.47136 3.5,-3.45732 z m -15.1109,-3.6151 c 0.039,-1.20504 -0.3797,-2.4691 -0.9297,-2.80902 -0.617,-0.38132 -0.9731,1.22388 -0.9297,4.19098 0.053,3.60725 0.285,4.30922 0.9297,2.80902 0.4727,-1.1 0.8911,-2.98594 0.9297,-4.19098 z M 1383,357 c -1.1403,-2.89301 -1.8425,-5.4908 -1.5605,-5.77285 0.2821,-0.28205 3.0736,0.001 6.2034,0.63001 3.1299,0.62856 6.7957,1.14284 8.1463,1.14284 2.0257,0 2.2461,-0.25252 1.2588,-1.4422 -0.6583,-0.7932 -2.5805,-1.5807 -4.2716,-1.75 -4.4084,-0.44132 -5.7823,-3.08875 -3.1202,-6.01286 1.1491,-1.26222 1.8631,-2.92008 1.5868,-3.68414 -1.1836,-3.27241 1.9807,0.38682 3.9412,4.55777 2.391,5.08653 4.0825,6.17743 6.5019,4.19331 1.4746,-1.20921 1.5957,-1.10964 1.0809,0.88812 -0.517,2.00646 -0.2111,2.25 2.8266,2.25 3.0723,0 3.4064,-0.27739 3.4064,-2.82856 0,-7.49067 -12.3539,-19.16846 -29.3114,-27.70729 -10.4017,-5.23766 -21.2841,-9.20204 -22.3457,-8.14038 -0.2798,0.27983 1.11,2.90896 3.0886,5.84251 l 3.5975,5.33372 -7.7875,0.59754 c -4.2832,0.32864 -9.5221,1.17 -11.6422,1.86969 l -3.8547,1.27216 4.8777,1.72673 c 2.6827,0.9497 7.3517,2.98492 10.3755,4.52271 4.23,2.15126 5.1524,3.00151 4,3.68726 -0.8238,0.4902 -4.1631,2.53446 -7.4207,4.5428 l -5.9228,3.65153 8.7425,2.81669 c 8.999,2.89933 20.8176,8.1453 26.1032,11.58655 1.65,1.07425 3.129,1.84815 3.2867,1.71977 0.1576,-0.12837 -0.6464,-2.60042 -1.7867,-5.49343 z m 9,-8.91821 c 0,-0.50502 0.2731,-1.63002 0.607,-2.5 0.3983,-1.03799 0.054,-1.58179 -1,-1.58179 -1.0475,0 -1.607,0.87047 -1.607,2.5 0,1.375 0.45,2.5 1,2.5 0.55,0 1,-0.4132 1,-0.91821 z M 1289.5616,315.9702 c 5.3815,-2.60516 10.8869,-7.96878 13.5624,-13.21324 1.7693,-3.46813 2.0393,-5.42345 1.6838,-12.19372 -0.3504,-6.67092 -0.9771,-9.09929 -3.6294,-14.06324 -7.0427,-13.18025 -19.2808,-24.66238 -43.6784,-40.98009 -9.35,-6.25351 -20.825,-14.41638 -25.5,-18.13971 -11.8772,-9.45939 -36.27,-34.06926 -44.8295,-45.2284 -3.9438,-5.14151 -7.1705,-9.15659 -7.1705,-8.92241 0,1.35074 5.9506,14.74541 10.5601,23.77061 11.0473,21.62997 27.378,43.82284 44.703,60.75 5.2071,5.0875 9.1876,9.25 8.8455,9.25 -2.6895,0 -35.2426,-20.28419 -51.8505,-32.30866 C 1187.175,221.0111 1182.7733,218 1182.4765,218 c -0.2968,0 1.3554,2.5875 3.6715,5.75 16.3496,22.32419 38.3652,44.90053 54.2416,55.62308 2.1392,1.44481 3.4125,2.62692 2.8296,2.62692 -1.855,0 -18.5361,-6.13406 -23.4692,-8.63019 -2.6125,-1.32193 -4.75,-2.15299 -4.75,-1.84682 0,3.66317 12.9643,20.54029 21.2282,27.63523 8.1181,6.96978 19.2775,13.85934 26.6837,16.47386 8.8002,3.10664 20.6209,3.25662 26.6497,0.33812 z m 250.9067,-49.62806 C 1553.4107,240.13031 1564,218.53031 1564,218.34214 1564,218.15396 1546.4784,218 1525.063,218 l -38.9369,0 -10.3131,7.17796 c -22.2901,15.51411 -28.3518,21.33723 -36.8609,35.40982 -7.5409,12.47129 -8.1386,11.41222 6.4409,11.41222 7.8173,0 12.607,0.38354 12.607,1.00952 0,0.55524 -4.5021,10.00524 -10.0048,21 L 1437.9905,314 l 39.473,0 39.473,0 23.5318,-47.65786 z M 1219,308.18709 c 0,-0.4471 -1.3559,-2.11196 -3.0131,-3.69968 -7.7626,-7.43702 -19.9075,-28.70176 -24.123,-42.23741 l -2.258,-7.25 -31.9099,0 c -25.1264,0 -31.8043,-0.26573 -31.413,-1.25 0.2734,-0.6875 5.0699,-10.71258 10.6589,-22.27796 l 10.1619,-21.02797 -4.0987,-7.07948 c -4.1293,-7.13232 -8.9449,-19.29982 -8.984,-22.69958 -0.017,-1.44871 0.9594,-0.9719 4.6368,2.26509 7.4847,6.58823 23.3421,13.44544 23.3421,10.09377 0,-0.67438 -2.8627,-4.31808 -6.3615,-8.09713 -12.1543,-13.12778 -17.4868,-27.1985 -18.3527,-48.42674 -0.2917,-7.15 -0.1975,-12.68473 0.2092,-12.29941 0.4067,0.38533 2.1865,4.28929 3.955,8.67547 1.7686,4.38619 4.7533,10.56524 6.6328,13.73123 4.0192,6.77052 14.0466,17.39327 18.6594,19.76732 l 3.2421,1.66866 -3.9602,-6.1272 c -5.0795,-7.85905 -9.4316,-19.18784 -11.4391,-29.77654 -2.9429,-15.52295 -1.6064,-38.337572 3.1716,-54.13953 l 1.663,-5.5 0.783,9 c 2.5084,28.8326 11.2508,52.22477 26.7219,71.5 1.5663,1.95145 1.1634,0.0864 -1.836,-8.5 -9.8755,-28.26975 -9.3017,-53.503334 1.7459,-76.783782 3.7022,-7.80162 9.8752,-17.339923 10.6929,-16.522262 0.209,0.208992 -0.2585,3.963349 -1.0388,8.343015 C 1194.0414,73.272122 1195.0742,107 1197.942,107 c 0.4052,0 5.0674,-9 10.3605,-20 l 9.6238,-20 63.7869,0.07685 c 68.9701,0.0831 70.9649,0.223168 72.6813,5.103534 0.7841,2.229646 -0.3335,5.288265 -7.4321,20.339268 -9.5091,20.162208 -13.1986,24.815928 -22.7237,28.662738 -5.738,2.31733 -5.7457,2.31765 -63.5193,2.61311 l -57.7806,0.29551 3.7806,7.20108 c 5.5933,10.65369 13.9337,21.37102 27.4015,35.21045 l 12.0088,12.34019 23.6851,0.32864 c 24.229,0.33618 27.1918,0.79753 28.5944,4.45259 0.9329,2.43119 -1.9604,11.52776 -6.6044,20.76424 l -4.0321,8.01952 2.465,2.04614 c 1.3557,1.12538 5.6705,4.68281 9.5885,7.9054 11.0468,9.08624 27.3643,26.53347 33.2116,35.51104 2.9124,4.47133 5.61,8.1297 5.9948,8.1297 1.1802,0 36.7262,-72.14221 38.3985,-77.9315 0.8629,-2.98733 1.5689,-8.35775 1.5689,-11.93428 0,-10.95118 -4.58,-17.69382 -15.4493,-22.74428 -2.825,-1.31264 -4.3273,-2.48272 -3.5,-2.72607 26.8393,-7.89519 38.8041,-14.82959 49.443,-28.65563 6.4386,-8.36748 29.9985,-56.458321 32.5827,-66.508242 3.3393,-12.986857 1.6712,-21.00238 -5.7217,-27.493439 -14.953,-13.128911 -41.7442,-15.282757 -184.0862,-14.799388 L 1166.037,13.5 1093.0185,160.89409 C 1052.8583,241.96083 1020,308.44833 1020,308.64409 c 0,0.19575 44.775,0.35591 99.5,0.35591 54.725,0 99.5,-0.36581 99.5,-0.81291 z m 180.3349,-9.28552 c 7.1158,-4.71331 11.9937,-11.13104 19.3068,-25.40157 14.2653,-27.83668 23.6045,-38.42647 44.2786,-50.20811 4.8094,-2.74075 6.7505,-4.29189 5.3709,-4.29189 -4.2279,0 -22.0925,4.28329 -32.1688,7.71289 -0.8923,0.30372 2.4133,-2.24207 7.3457,-5.65732 15.6002,-10.80159 28.028,-22.21003 37.5472,-34.46739 0.8166,-1.05151 -1.7004,0.40982 -5.5933,3.24739 -3.8929,2.83757 -14.0179,9.17671 -22.5,14.08698 -8.4821,4.91027 -19.2464,11.32394 -23.9207,14.25261 -10.9391,6.85382 -24.436,20.23326 -28.8305,28.57967 -3.1078,5.9027 -8.5245,20.24517 -7.646,20.24517 0.2232,0 2.5153,-1.33786 5.0937,-2.97302 5.1367,-3.25757 11.1752,-5.56662 12.1108,-4.63101 1.8218,1.82183 -7.1314,26.9075 -13.2008,36.98674 -1.8604,3.08951 -3.0426,5.61729 -2.627,5.61729 0.4156,0 2.8606,-1.39429 5.4334,-3.09843 z M 1168.4125,236.75 c -3.3164,-3.4375 -7.6243,-8.0901 -9.5732,-10.33911 l -3.5434,-4.0891 -5.142,10.3391 -5.1419,10.33911 14.7151,0 14.7151,0 -6.0297,-6.25 z m 112.8219,-38.5 2.4888,-5.75 -4.8251,-0.30099 c -2.6538,-0.16555 -7.3222,-0.16555 -10.3743,0 l -5.5492,0.30099 7.2627,5.73623 c 3.9945,3.15492 7.543,5.74242 7.8855,5.75 0.3426,0.008 1.7428,-2.57373 3.1116,-5.73623 z m 38.229,-88.53814 c 2.1799,-0.98347 4.8182,-2.55847 5.8631,-3.5 C 1327.2226,104.50314 1339,81.939448 1339,80.015377 1339,79.34019 1320.0723,79 1282.5059,79 l -56.4941,0 -8.0059,15.988239 C 1213.6027,103.78177 1210,111.22888 1210,111.53737 c 0,0.30849 23.7375,0.42628 52.75,0.26176 48.1318,-0.27294 53.097,-0.45568 56.7134,-2.08727 z"
       id="path3875"
       style="fill:#000000" />
  </g>
</svg>
