<?xml version="1.0" encoding="UTF-8" standalone="no"?>
<!-- Created with Inkscape (http://www.inkscape.org/) -->

<svg
   xmlns:dc="http://purl.org/dc/elements/1.1/"
   xmlns:cc="http://creativecommons.org/ns#"
   xmlns:rdf="http://www.w3.org/1999/02/22-rdf-syntax-ns#"
   xmlns:svg="http://www.w3.org/2000/svg"
   xmlns="http://www.w3.org/2000/svg"
   version="1.1"
   width="280"
   height="200"
   viewBox="0 0 280 199.99999"
   id="Layer_1"
   xml:space="preserve"
   style="overflow:visible"><metadata
     id="metadata3046"><rdf:RDF><cc:Work
         rdf:about=""><dc:format>image/svg+xml</dc:format><dc:type
           rdf:resource="http://purl.org/dc/dcmitype/StillImage" /><dc:title></dc:title></cc:Work></rdf:RDF></metadata><defs
     id="defs3044" /><g
     transform="matrix(1.1843781,0,0,1.1843781,22,-3.9792573e-6)"
     id="g3014"><path
       d="m 110.887,0 24.115,39.194 v 90.479 l -24.115,39.192 h 52.844 c 20.084,0 36.27,-15.339 36.27,-35.357 V 36.139 C 200,16.12 183.814,0 163.796,0 h -52.909 l 0,0 z"
       id="path3016"
       style="fill:#00009c;fill-rule:evenodd" /><polygon
       points="0,168.865 0,168.865 24.179,129.672 24.179,39.194 0,0.065 105.362,0.065 81.183,39.194 81.183,129.672 105.362,168.865 "
       id="polygon3018"
       style="fill:#00009c;fill-rule:evenodd" /><path
       d="m 87.813,28.34 c 0,0 8.32,-15.925 17.939,-15.535 l -2.405,17.549 2.016,0.39 c 0,0 2.406,-9.554 1.95,-10.789 0,0 7.605,3.574 5.59,14.365 0,0 12.414,5.589 18.004,25.934 l 4.159,5.2 -0.583,4.485 c 0,0 4.354,3.9 5.2,5.915 0,0 10.918,17.744 11.568,26.714 0,0 1.95,1.625 -13.585,1.17 0,0 -0.39,7.605 -5.2,7.605 0,0 5.98,4.81 0.78,10.398 0,0 5.591,1.17 9.23,7.996 0,0 7.538,13.845 9.943,19.109 0,0 6.371,13.194 -3.964,8.386 l -13.584,-7.995 c 0,0 2.794,12.869 -3.966,10.53 0,0 -12.869,-3.9 -30.354,-14.106 0,0 -19.564,-7.15 -28.729,-2.794 0,0 -11.959,2.794 -27.56,13.976 0,0 -4.354,-14.366 5.2,-26.715 0,0 4.03,-0.391 0.39,-4.811 0,0 -1.56,-4.42 2.404,-5.2 0,0 3.576,-3.185 0.391,-6.37 0,0 -2.405,-5.2 0.845,-10.399 0,0 1.949,-0.78 -0.455,-4.744 0,0 -13.715,-16.38 -10.465,-35.555 0.002,-10e-4 2.407,-42.769 45.241,-34.709 l 0,0 z"
       id="path3020"
       style="fill:#ffffff;fill-rule:evenodd" /><path
       d="m 92.167,40.299 c 0,0 2.405,-22.294 11.569,-25.544 0,0 -4.354,10.399 -2.404,15.599 0,0 0.844,5.98 5.589,1.17 0,0 2.016,-3.184 2.016,-7.15 0,0 2.795,4.745 2.405,11.181 0,0 10.789,5.979 15.534,21.513 0,0 4.029,7.995 5.2,9.166 l -1.171,3.639 6.37,6.37 10.334,22.36 c 0,0 1.626,2.794 -1.56,3.184 l -10.79,-0.39 c 0,0 2.016,6.76 -4.81,6.76 l -1.169,1.626 c 0,0 5.59,6.76 2.795,7.539 0,0 -0.78,2.014 -3.187,2.404 0,0 11.181,8.776 11.96,12.807 l 9.164,17.158 c 0,0 4.031,7.541 -4.353,2.339 0,0 -23.53,-11.958 -28.34,-12.739 0,0 -7.995,-2.795 -1.626,1.562 l 16.381,7.214 c 0,0 3.184,12.351 -4.421,7.148 0,0 -28.729,-14.362 -38.283,-15.143 0,0 -13.975,-6.371 -41.469,10.399 0,0 -3.64,-12.415 9.165,-22.359 0,0 -6.371,-9.945 3.185,-5.981 0,0 0.78,6.76 12.739,7.997 0,0 -15.924,-12.415 -17.159,-17.159 0,0 -1.95,-13.976 7.214,-5.981 l 13.585,9.556 c 0,0 1.56,0 -2.015,-3.574 0,0 -11.959,-7.607 -15.599,-13.196 0,0 -19.89,-15.144 -11.96,-42.704 0,0 2.016,-27.949 33.929,-27.104 0,0 9.62,0.39 4.03,5.59 0,0 -2.405,5.589 2.795,7.149 0.003,-10e-4 3.578,2.014 4.357,-2.406 l 0,0 z"
       id="path3022"
       style="fill:#00009c;fill-rule:evenodd" /><path
       d="m 108.938,53.883 c 0,0 -6.761,0 -0.781,3.185 l 4.746,5.591 c 0,0 -3.575,2.014 -3.184,4.03 0,0 2.403,0 5.199,-1.235 0,0 3.574,3.965 2.793,6.369 0,0 -1.17,4.81 4.421,1.626 0,0 8.774,-14.755 -13.194,-19.566 l 0,0 z"
       id="path3024"
       style="fill:#ffffff;fill-rule:evenodd" /><path
       d="m 79.428,67.858 c 0,0 3.575,11.18 2.34,-1.625 0,0 -5.979,-9.555 -8.319,-10.335 0,0 -7.215,-6.37 -5.59,-12.415 0,0 -6.435,1.625 -7.215,20.409 0,0 0,16.707 6.76,28.274 0,0 6.045,11.57 15.599,15.99 0,0 3.575,-9.554 0.391,-17.94 0,0 -0.391,12.74 -2.015,13.521 0,0 -26.325,-16.314 -14.755,-53.818 0,0 2.404,6.369 6.37,8.775 -0.001,0 5.589,5.589 6.434,9.164 l 0,0 z"
       id="path3026"
       style="fill:#ffffff;fill-rule:evenodd" /><path
       d="m 70.653,61.489 c 0,0 -6.435,-9.229 -2.015,1.17 l 7.15,13.974 c 0,0 -1.949,7.215 0.845,9.166 0,0 2.795,5.589 2.795,-1.562 0,0 -4.419,-2.794 -0.455,-7.213 l -8.32,-15.535 0,0 z"
       id="path3028"
       style="fill:#ffffff;fill-rule:evenodd" /><path
       d="m 126.161,132.987 c 0,0 13.454,5.394 1.886,-5.395 0,0 -0.326,-0.52 0.261,-0.065 3.965,3.185 12.738,8.059 2.989,-1.82 -2.6,-2.601 -7.149,-4.68 -8.517,-5.914 -0.714,-0.649 -0.454,-2.99 1.301,-2.86 0,0 8.775,2.403 4.42,-3.186 0,0 -7.215,-5.2 -18.004,-7.604 0,0 -2.341,0.389 -1.56,4.811 0,0 -0.391,4.81 -2.016,-2.406 0,0 -3.575,-15.144 5.98,-14.753 0,0 8.773,0.779 14.365,-3.187 0,0 9.619,-5.979 3.184,0 0,0 -7.541,7.149 0.455,3.576 0,0 9.165,-0.39 9.165,4.81 l 3.186,0.39 c 0,0 2.405,0 0.39,-3.184 l -9.555,-18.786 c 0,0 -4.419,-5.2 -6.436,-3.575 0,0 -1.56,1.625 1.626,4.81 l -4.354,-0.845 c 0,0 -13.585,11.18 -26.39,0.455 0,0 -6.37,-5.59 -3.575,3.965 0,0 3.965,4.81 -1.17,10.791 0,0 -12.805,17.55 1.56,34.709 0,0 22.618,10.918 34.32,13.975 3.573,0.91 8.968,0.194 -4.616,-4.616 4.226,0.387 6.241,-0.847 1.105,-4.096 l 0,0 z"
       id="path3030"
       style="fill:#ffffff;fill-rule:evenodd" /><path
       d="m 103.736,108.157 c 0,0 -1.17,-10.79 0,-12.349 0,0 0.78,-6.437 -3.964,-2.015 0,0 -1.234,11.568 3.964,14.364 l 0,0 z"
       id="path3032"
       style="fill:#00009c;fill-rule:evenodd" /><path
       d="m 119.336,98.212 c 0,0 12.351,3.574 12.351,5.979 l 0.779,-4.81 c 0,0 10.4,-2.016 -1.169,-2.405 l -5.785,0.779 c 0,0 2.6,-3.184 -2.602,-1.558 l -3.574,2.015 0,0 z"
       id="path3034"
       style="fill:#ffffff;fill-rule:evenodd" /><path
       d="m 114.918,99.382 c 0,0 -6.762,-0.779 -2.796,4.354 l 14.364,6.046 2.796,-5.2 -14.364,-5.2 0,0 z"
       id="path3036"
       style="fill:#ffffff;fill-rule:evenodd" /><path
       d="m 114.072,49.139 c -2.666,-1.885 -6.956,-4.81 -10.855,-4.81 -4.224,0 -6.174,4.614 -5.849,8.71 1.43,-1.885 5.07,-4.615 6.303,-5.069 1.301,-0.326 7.412,0.519 10.401,1.169 l 0,0 z"
       id="path3038"
       style="fill:#ffffff;fill-rule:evenodd" /><path
       d="m 196.294,163.147 c 0.326,0.063 0.521,0.129 0.65,0.193 0.13,0.13 0.26,0.326 0.26,0.521 0,0.261 -0.063,0.455 -0.26,0.52 -0.13,0.13 -0.324,0.13 -0.65,0.196 v 0.647 l 0.78,1.626 h 0.91 l -0.975,-1.884 c 0.324,-0.066 0.585,-0.196 0.714,-0.39 0.196,-0.196 0.261,-0.455 0.261,-0.782 0,-0.39 -0.13,-0.647 -0.39,-0.844 -0.325,-0.195 -0.715,-0.26 -1.301,-0.324 v 0.521 l 0.001,0 z m 0,5.394 v -0.521 c 0.392,0 0.716,-0.129 1.106,-0.26 0.388,-0.131 0.715,-0.39 1.039,-0.65 0.261,-0.324 0.521,-0.647 0.65,-1.039 0.194,-0.391 0.259,-0.78 0.259,-1.234 0,-0.456 -0.064,-0.846 -0.194,-1.235 -0.194,-0.391 -0.391,-0.781 -0.715,-1.039 -0.324,-0.326 -0.651,-0.521 -1.039,-0.716 -0.326,-0.129 -0.715,-0.195 -1.106,-0.261 v -0.455 c 0.392,0 0.716,0.066 1.04,0.195 0.39,0.131 0.781,0.325 1.105,0.585 0.455,0.325 0.778,0.78 1.04,1.3 0.259,0.52 0.39,1.04 0.39,1.626 0,0.519 -0.131,0.974 -0.324,1.43 -0.131,0.454 -0.391,0.844 -0.781,1.17 -0.324,0.324 -0.779,0.584 -1.233,0.779 -0.39,0.196 -0.782,0.259 -1.237,0.325 l 0,0 z m -0.844,-5.394 h 0.65 c 0.064,0 0.129,0 0.193,0 v -0.521 c 0,0 0,0 -0.064,0 h -1.56 v 4.224 h 0.78 v -1.819 h 0.779 l 0.064,0.193 v -0.647 c 0,0 -0.129,0 -0.193,0 h -0.65 v -1.43 l 10e-4,0 z m 0.844,-2.017 v 0.455 c 0,0 -0.064,0 -0.129,0 -0.454,0 -0.846,0.132 -1.235,0.261 -0.39,0.13 -0.715,0.39 -1.04,0.649 -0.26,0.324 -0.52,0.715 -0.716,1.105 -0.129,0.39 -0.193,0.779 -0.193,1.235 0,0.388 0.064,0.844 0.193,1.234 0.196,0.392 0.391,0.715 0.716,0.975 0.325,0.325 0.65,0.584 1.04,0.715 0.39,0.194 0.781,0.26 1.171,0.26 0.064,0 0.129,0 0.193,0 v 0.521 c 0,0 -0.064,0 -0.129,0 -0.521,0 -0.975,-0.129 -1.429,-0.325 -0.455,-0.195 -0.847,-0.455 -1.172,-0.779 -0.391,-0.391 -0.65,-0.782 -0.845,-1.236 -0.195,-0.455 -0.26,-0.909 -0.26,-1.363 0,-0.391 0.064,-0.846 0.195,-1.235 0.131,-0.391 0.325,-0.715 0.585,-1.039 0.39,-0.456 0.779,-0.845 1.3,-1.041 0.52,-0.26 1.04,-0.391 1.625,-0.391 0.065,-0.001 0.13,-0.001 0.13,-0.001 l 0,0 z"
       id="path3040"
       style="fill:#00009c;fill-rule:evenodd" /></g></svg>