<?xml version="1.0" encoding="UTF-8" standalone="no"?>
<!-- Created with Inkscape (http://www.inkscape.org/) -->

<svg
   xmlns:dc="http://purl.org/dc/elements/1.1/"
   xmlns:cc="http://creativecommons.org/ns#"
   xmlns:rdf="http://www.w3.org/1999/02/22-rdf-syntax-ns#"
   xmlns:svg="http://www.w3.org/2000/svg"
   xmlns="http://www.w3.org/2000/svg"
   version="1.0"
   width="280"
   height="200"
   viewBox="0 0 224 160"
   id="svg2">
  <defs
     id="defs18" />
  <metadata
     id="metadata4">
Created by potrace 1.11, written by Peter Selinger 2001-2013
<rdf:RDF>
  <cc:Work
     rdf:about="">
    <dc:format>image/svg+xml</dc:format>
    <dc:type
       rdf:resource="http://purl.org/dc/dcmitype/StillImage" />
    <dc:title></dc:title>
  </cc:Work>
</rdf:RDF>
</metadata>
  <g
     transform="matrix(0.03221973,0,0,-0.03221973,19.176247,173.01996)"
     id="g6"
     style="fill:#000000;stroke:none">
    <path
       d="m 1990,5355 c 0,-8 -7,-15 -15,-15 -8,0 -15,-7 -15,-15 0,-8 -7,-15 -15,-15 -8,0 -15,-7 -15,-15 0,-8 -4,-15 -10,-15 -5,0 -10,-7 -10,-15 0,-8 -6,-15 -14,-15 -8,0 -17,-12 -21,-27 -3,-15 -17,-37 -31,-50 -13,-12 -24,-31 -24,-43 0,-11 -7,-20 -15,-20 -10,0 -15,-10 -15,-30 0,-20 -5,-30 -15,-30 -8,0 -15,-7 -15,-15 0,-8 -4,-15 -10,-15 -5,0 -13,-12 -16,-27 -4,-15 -13,-34 -21,-41 -7,-7 -13,-26 -13,-42 0,-16 -7,-30 -15,-34 -10,-3 -15,-19 -15,-46 0,-36 -2,-40 -25,-40 -16,0 -25,6 -25,15 0,8 -7,15 -15,15 -8,0 -15,7 -15,15 0,8 -6,15 -14,15 -8,0 -17,7 -20,16 -3,8 -10,12 -16,9 -5,-3 -10,1 -10,9 0,9 -7,16 -15,16 -8,0 -15,7 -15,15 0,8 -5,15 -10,15 -6,0 -13,-7 -16,-15 -4,-8 -12,-15 -20,-15 -8,0 -14,-9 -14,-20 0,-11 -7,-23 -15,-26 -8,-4 -15,-12 -15,-20 0,-8 -4,-14 -9,-14 -5,0 -12,-13 -16,-30 -4,-16 -11,-30 -16,-30 -5,0 -9,-11 -9,-25 0,-14 -7,-28 -15,-31 -9,-4 -15,-19 -15,-38 0,-41 -10,-77 -20,-71 -4,2 -10,-32 -12,-77 -3,-49 -10,-84 -16,-86 -17,-5 -16,-234 0,-250 7,-7 14,-52 16,-104 3,-51 9,-96 14,-99 6,-4 13,-28 16,-55 2,-27 9,-52 14,-55 5,-3 11,-23 15,-45 3,-21 9,-41 13,-44 4,-3 11,-24 14,-46 9,-49 -10,-74 -55,-74 -16,0 -29,-4 -29,-9 0,-5 -12,-12 -27,-16 -15,-3 -30,-11 -33,-16 -3,-4 -16,-10 -29,-12 -12,-2 -26,-8 -29,-14 -4,-6 -17,-13 -29,-17 -13,-4 -23,-12 -23,-17 0,-5 -7,-9 -15,-9 -8,0 -15,-7 -15,-15 0,-8 -6,-15 -14,-15 -8,0 -17,-13 -21,-30 -4,-16 -11,-30 -16,-30 -5,0 -9,-11 -9,-25 0,-16 -6,-25 -15,-25 -12,0 -15,-13 -15,-60 0,-47 -3,-60 -15,-60 -21,0 -21,-88 0,-96 10,-4 15,-21 15,-54 0,-33 5,-50 15,-54 8,-3 15,-17 15,-31 0,-16 6,-25 15,-25 8,0 15,-7 15,-15 0,-8 7,-15 15,-15 8,0 15,-7 15,-15 0,-8 5,-15 10,-15 34,0 -31,-75 -74,-86 -14,-3 -26,-12 -26,-20 0,-8 -5,-14 -11,-14 -17,0 -65,-53 -74,-80 -4,-14 -13,-28 -19,-32 -16,-11 -15,-220 2,-226 6,-2 12,-15 12,-28 0,-14 7,-27 15,-30 8,-4 15,-17 15,-30 0,-15 6,-24 15,-24 8,0 15,-7 15,-15 0,-8 6,-15 13,-15 7,0 20,-9 30,-20 9,-11 25,-20 34,-20 17,-1 17,-1 1,-14 -10,-7 -18,-25 -18,-40 0,-16 -5,-26 -15,-26 -10,0 -15,-10 -15,-29 0,-16 -6,-31 -15,-35 -12,-4 -15,-25 -15,-101 0,-78 3,-95 15,-95 10,0 15,-10 15,-30 0,-20 5,-30 15,-30 8,0 15,-5 15,-11 0,-14 85,-99 99,-99 6,0 11,-7 11,-15 0,-8 7,-15 15,-15 8,0 15,-7 15,-15 0,-8 7,-15 15,-15 8,0 15,-7 15,-15 0,-8 7,-15 15,-15 8,0 15,-7 15,-15 0,-8 5,-15 11,-15 6,0 36,-25 65,-55 30,-30 59,-55 64,-55 6,0 10,-7 10,-15 0,-8 7,-15 15,-15 8,0 15,-7 15,-15 0,-9 9,-15 25,-15 16,0 25,-6 25,-15 0,-8 7,-15 15,-15 8,0 15,-7 15,-15 0,-8 7,-15 15,-15 8,0 15,-7 15,-15 0,-8 7,-15 15,-15 8,0 15,-7 15,-15 0,-8 5,-15 10,-15 6,0 37,-27 70,-60 33,-33 60,-64 60,-70 0,-5 5,-10 10,-10 5,0 28,-18 50,-40 22,-22 44,-40 49,-40 5,0 36,-27 70,-60 34,-33 66,-60 71,-60 6,0 10,-7 10,-15 0,-8 7,-15 15,-15 8,0 15,-7 15,-15 0,-8 7,-15 15,-15 8,0 15,-7 15,-15 0,-8 7,-15 15,-15 8,0 15,-7 15,-15 0,-8 7,-15 15,-15 8,0 15,-7 15,-15 0,-8 4,-14 8,-12 5,1 29,-19 55,-45 26,-25 60,-52 77,-60 16,-7 30,-19 30,-25 0,-7 7,-13 15,-13 8,0 15,-7 15,-15 0,-8 7,-15 15,-15 8,0 15,-7 15,-15 0,-8 7,-15 15,-15 8,0 15,-7 15,-15 0,-8 7,-15 15,-15 8,0 15,-7 15,-15 0,-8 5,-15 11,-15 6,0 24,-13 40,-29 27,-28 33,-30 82,-24 28,3 53,10 55,14 2,5 19,11 38,15 19,3 34,10 34,14 0,4 18,10 40,14 l 40,6 0,80 c 0,62 3,82 15,86 10,4 15,20 15,45 0,28 4,39 15,39 10,0 15,10 15,30 0,20 5,30 15,30 8,0 15,7 15,15 0,8 7,15 15,15 8,0 15,7 15,15 0,8 5,15 10,15 6,0 10,7 10,15 0,8 7,15 15,15 8,0 15,7 15,15 0,8 7,15 15,15 8,0 15,7 15,15 0,8 5,15 10,15 6,0 21,11 34,25 13,14 28,25 35,25 6,0 11,6 11,14 0,8 11,17 25,20 14,4 25,11 25,16 0,6 9,10 20,10 12,0 20,7 20,18 1,16 1,16 14,0 8,-11 26,-18 45,-18 19,0 31,-5 31,-13 0,-8 14,-14 36,-15 51,-4 58,-6 66,-17 11,-16 410,-13 415,3 3,7 24,12 59,12 39,0 56,4 60,15 4,11 21,15 55,15 37,0 49,4 49,15 0,10 11,15 35,15 19,0 35,5 35,11 0,5 5,7 10,4 6,-3 10,-1 10,4 0,6 11,11 24,11 13,0 26,7 30,15 3,9 18,15 36,15 16,0 30,4 30,10 0,5 11,12 25,16 14,3 25,10 25,14 0,5 14,11 30,15 17,4 30,10 30,15 0,5 14,11 30,15 17,4 30,11 30,16 0,5 11,9 25,9 14,0 28,7 31,15 4,8 17,15 30,15 15,0 24,6 24,15 0,11 12,15 45,15 33,0 45,-4 45,-15 0,-8 7,-15 15,-15 8,0 15,-7 15,-15 0,-21 83,-21 104,0 8,8 19,15 25,15 6,0 11,7 11,15 0,8 7,15 15,15 8,0 15,7 15,15 0,8 7,15 15,15 8,0 15,7 15,15 0,8 7,15 15,15 8,0 15,7 15,15 0,8 6,15 13,15 8,0 7,4 -3,10 -13,8 -12,10 3,10 10,0 17,8 17,20 0,11 7,20 15,20 9,0 15,9 15,24 0,13 7,26 15,30 8,3 15,17 15,31 0,14 4,25 10,25 5,0 12,16 16,35 3,19 10,35 14,35 4,0 10,21 13,47 3,26 10,49 16,51 14,5 15,322 2,322 -6,0 -13,32 -17,70 -3,39 -10,70 -14,70 -4,0 -10,19 -13,42 -3,24 -11,44 -16,46 -6,2 -11,17 -11,33 0,19 -5,29 -15,29 -10,0 -15,10 -15,29 0,16 -7,36 -15,45 -8,8 -15,26 -15,40 0,16 -6,26 -15,26 -10,0 -15,10 -15,30 0,20 -5,30 -15,30 -8,0 -15,7 -15,15 0,8 -4,15 -10,15 -5,0 -12,11 -16,24 -3,14 -12,27 -20,30 -8,3 -14,10 -14,16 0,7 -13,25 -30,42 -16,16 -30,36 -30,44 0,8 -7,14 -15,14 -8,0 -15,4 -15,9 0,19 -68,81 -89,81 -12,0 -21,6 -21,15 0,8 -7,15 -15,15 -8,0 -15,4 -15,9 0,5 -9,13 -21,16 -44,14 -57,39 -61,121 -2,49 -8,79 -16,82 -7,2 -12,24 -12,58 0,39 -4,56 -15,60 -8,4 -15,18 -15,34 0,16 -7,35 -15,44 -8,8 -15,23 -15,34 0,11 -7,22 -15,26 -8,3 -15,12 -15,21 0,8 -7,15 -15,15 -8,0 -15,5 -15,11 0,15 -84,99 -99,99 -6,0 -14,7 -17,15 -4,8 -17,15 -30,15 -15,0 -24,6 -24,15 0,10 -10,15 -30,15 -20,0 -30,5 -30,15 0,10 -10,15 -30,15 -20,0 -30,5 -30,15 0,10 -10,15 -30,15 -16,0 -30,4 -30,10 0,5 -12,13 -27,16 -15,4 -34,13 -41,21 -7,7 -20,13 -28,13 -8,0 -14,5 -14,10 0,6 -13,10 -29,10 -16,0 -36,6 -43,13 -7,8 -26,17 -41,21 -15,3 -27,11 -27,16 0,6 -13,10 -30,10 -20,0 -30,5 -30,15 0,10 -10,15 -30,15 -20,0 -30,5 -30,15 0,10 -10,15 -29,15 -16,0 -36,7 -45,15 -8,8 -26,15 -40,15 -16,0 -26,6 -26,15 0,10 -10,15 -29,15 -16,0 -31,6 -35,15 -3,8 -17,15 -31,15 -14,0 -25,4 -25,9 0,5 -13,12 -30,16 -16,4 -30,10 -30,15 0,5 -13,11 -30,15 -16,4 -30,11 -30,16 0,5 -11,9 -25,9 -16,0 -25,6 -25,15 0,10 -10,15 -30,15 -20,0 -30,5 -30,15 0,10 -10,15 -30,15 -20,0 -30,5 -30,15 0,9 -9,15 -24,15 -13,0 -26,7 -30,15 -3,8 -17,15 -31,15 -16,0 -25,6 -25,15 0,8 -7,15 -15,15 -8,0 -15,4 -15,9 0,5 -12,12 -27,16 -15,3 -37,17 -48,30 -12,12 -32,26 -43,30 -12,3 -22,11 -22,16 0,5 -7,9 -15,9 -9,0 -18,7 -21,15 -4,8 -12,15 -20,15 -8,0 -14,7 -14,15 0,9 -9,15 -25,15 -16,0 -25,6 -25,15 0,8 -7,15 -15,15 -8,0 -15,7 -15,15 0,8 -7,15 -15,15 -8,0 -15,7 -15,15 0,8 -7,15 -15,15 -8,0 -15,7 -15,15 0,8 -5,15 -11,15 -14,0 -75,61 -71,72 1,4 -5,8 -13,8 -8,0 -15,7 -15,15 0,8 -6,15 -14,15 -8,0 -17,14 -21,30 -4,17 -11,30 -16,30 -5,0 -9,7 -9,15 0,8 -7,15 -15,15 -8,0 -15,6 -15,14 0,8 -7,16 -15,20 -8,3 -15,14 -15,25 0,10 -7,21 -15,25 -8,3 -15,17 -15,31 0,16 -6,25 -15,25 -8,0 -15,7 -15,15 0,8 -4,15 -10,15 -5,0 -13,18 -16,40 -4,22 -10,40 -14,40 -5,0 -11,14 -15,30 -4,17 -11,30 -16,30 -5,0 -9,13 -9,29 0,16 -7,34 -15,41 -8,7 -15,27 -15,44 0,18 -7,41 -15,52 -8,10 -15,31 -15,47 0,17 -5,27 -15,27 -8,0 -15,-7 -15,-15 z M 3110,3361 c 0,-5 9,-11 20,-14 11,-3 19,-11 18,-19 -2,-7 3,-12 10,-10 6,1 12,-5 12,-13 0,-8 -4,-15 -9,-15 -5,0 -12,-13 -16,-30 -4,-16 -11,-30 -16,-30 -5,0 -9,-10 -9,-22 0,-13 -7,-36 -15,-52 -22,-41 -22,-246 0,-246 8,0 14,-5 13,-11 -2,-6 7,-13 19,-15 49,-8 63,-37 63,-129 0,-72 -3,-88 -20,-105 -21,-21 -70,-28 -70,-10 0,6 -18,10 -39,10 -22,0 -46,7 -55,15 -8,8 -22,15 -30,15 -9,0 -16,7 -16,15 0,8 -7,15 -15,15 -8,0 -15,7 -15,15 0,8 -7,15 -15,15 -10,0 -15,10 -15,29 0,16 -6,31 -12,34 -10,3 -13,37 -13,127 0,90 3,124 13,128 6,2 12,19 12,37 0,19 7,40 15,49 8,8 15,24 15,36 0,11 7,23 15,26 8,4 15,17 15,30 0,15 6,24 15,24 8,0 15,7 15,15 0,8 7,15 15,15 9,0 15,9 15,23 0,17 10,28 33,39 39,19 47,20 47,9 z m 1084,-406 c 11,-8 32,-15 48,-15 15,0 28,-4 28,-9 0,-5 14,-12 30,-16 17,-4 30,-10 30,-15 0,-5 9,-11 20,-15 28,-9 120,-100 120,-119 0,-9 7,-19 15,-22 8,-4 15,-12 15,-20 0,-8 7,-14 15,-14 9,0 15,-9 15,-24 0,-13 7,-26 15,-30 8,-3 15,-12 15,-21 0,-8 4,-15 10,-15 5,0 13,-12 16,-27 4,-15 13,-34 21,-41 7,-7 13,-22 13,-33 0,-11 4,-18 9,-15 5,3 11,-13 14,-36 3,-22 10,-44 15,-47 5,-3 12,-23 16,-43 4,-20 12,-38 18,-40 7,-3 11,-64 11,-190 0,-159 -3,-189 -17,-203 -9,-9 -16,-27 -16,-41 0,-39 -17,-28 -24,16 -3,22 -10,40 -15,40 -5,0 -12,14 -16,30 -4,17 -11,30 -16,30 -5,0 -9,7 -9,15 0,8 -7,15 -15,15 -8,0 -15,7 -15,15 0,8 -7,15 -15,15 -8,0 -15,4 -15,10 0,15 -33,50 -47,50 -7,0 -13,7 -13,15 0,8 -5,15 -11,15 -7,0 -22,11 -35,25 -13,14 -32,25 -42,25 -11,0 -22,7 -26,15 -3,8 -17,15 -31,15 -16,0 -25,6 -25,15 0,11 -11,15 -39,15 -25,0 -41,5 -45,15 -3,9 -19,15 -41,15 -20,0 -44,7 -52,16 -13,13 -38,15 -151,12 -97,-2 -137,-7 -140,-15 -2,-8 -22,-13 -53,-13 -35,0 -51,-4 -55,-15 -4,-8 -16,-15 -29,-15 -13,0 -25,-7 -29,-15 -3,-8 -12,-15 -21,-15 -8,0 -15,-4 -15,-10 0,-5 -11,-12 -25,-16 -14,-3 -25,-12 -25,-20 0,-8 -6,-14 -14,-14 -8,0 -17,-11 -20,-25 -4,-14 -11,-25 -16,-25 -6,0 -10,-7 -10,-15 0,-9 -7,-18 -15,-21 -8,-4 -15,-16 -15,-29 0,-13 -7,-25 -15,-29 -12,-4 -15,-26 -15,-105 0,-75 4,-103 15,-115 8,-8 15,-26 15,-40 0,-16 6,-26 15,-26 8,0 15,-7 15,-15 0,-8 7,-15 15,-15 8,0 15,-5 15,-11 0,-18 82,-95 110,-104 14,-4 28,-13 32,-18 8,-14 308,-12 317,1 3,5 24,12 46,15 22,4 41,11 43,17 5,13 62,13 62,0 0,-5 -9,-10 -19,-10 -10,0 -21,-7 -25,-15 -3,-8 -15,-15 -26,-15 -11,0 -23,-7 -26,-15 -4,-8 -17,-15 -30,-15 -15,0 -24,-6 -24,-15 0,-10 -10,-15 -30,-15 -18,0 -33,-6 -36,-15 -4,-9 -19,-15 -40,-15 -24,0 -34,-5 -34,-15 0,-11 -11,-15 -40,-15 -27,0 -43,-5 -46,-15 -4,-10 -20,-15 -49,-15 -26,0 -45,-5 -47,-12 -4,-10 -41,-13 -143,-13 -102,0 -139,3 -142,13 -3,6 -20,12 -39,12 -22,0 -37,6 -40,15 -4,9 -19,15 -35,15 -19,0 -29,5 -29,15 0,8 -7,15 -15,15 -8,0 -15,6 -15,13 0,7 -9,13 -19,14 -23,2 -87,64 -96,93 -3,11 -11,20 -16,20 -5,0 -9,14 -9,30 0,20 -5,30 -15,30 -12,0 -15,15 -15,74 0,53 -4,79 -15,90 -18,18 -20,43 -2,48 8,3 13,37 15,111 3,84 7,107 18,107 8,0 14,9 14,20 0,11 4,20 9,20 5,0 13,10 17,23 4,12 17,32 30,44 13,12 24,27 24,33 0,5 6,10 14,10 8,0 16,7 20,15 3,8 17,15 31,15 16,0 25,6 25,15 0,10 10,15 30,15 17,0 30,4 30,10 0,5 18,13 40,16 22,4 40,10 40,14 0,4 27,10 60,14 33,4 60,11 60,15 0,5 44,11 97,13 63,3 98,8 101,16 2,7 10,12 18,12 8,0 14,5 14,11 0,5 5,7 12,3 7,-4 8,-3 4,4 -4,7 -16,12 -27,12 -10,0 -19,6 -19,14 0,8 -6,16 -12,19 -17,5 -17,129 0,135 7,2 12,17 12,33 0,19 5,29 15,29 9,0 15,9 15,25 0,14 7,28 15,31 8,4 15,12 15,20 0,8 7,14 15,14 8,0 15,7 15,15 0,8 7,15 15,15 8,0 14,3 14,8 -4,26 4,41 26,46 14,4 25,11 25,16 0,6 7,10 15,10 9,0 18,7 21,15 4,9 19,15 40,15 22,0 37,6 40,15 8,21 161,21 188,0 z m -156,-763 c 2,-13 10,-26 18,-29 8,-3 14,-16 14,-29 0,-15 6,-24 15,-24 11,0 15,-11 15,-36 0,-23 4,-33 11,-28 7,4 10,1 7,-7 -3,-10 -27,-15 -86,-17 -68,-2 -82,0 -82,13 0,8 -4,15 -10,15 -5,0 -12,17 -16,38 -4,20 -11,40 -16,43 -5,3 -12,25 -15,48 l -6,42 74,-3 c 69,-3 74,-5 77,-26 z m -228,-13 c 0,-6 7,-17 15,-25 8,-9 15,-24 15,-35 0,-11 4,-18 9,-15 10,6 21,-26 21,-61 0,-22 -3,-23 -90,-23 -73,0 -90,-3 -90,-15 0,-12 -13,-15 -55,-15 -54,0 -55,0 -55,30 0,20 5,30 15,30 8,0 15,7 15,15 0,8 4,15 9,15 5,0 12,11 15,24 3,14 16,28 28,32 12,3 31,17 42,30 16,18 32,24 64,24 23,0 42,-5 42,-11 z m 430,-29 c 0,-5 7,-10 15,-10 8,0 15,-9 15,-20 0,-11 7,-20 15,-20 10,0 15,-10 15,-30 0,-16 4,-30 9,-30 14,0 23,-37 16,-60 -8,-24 -55,-28 -55,-5 0,10 -10,15 -30,15 -20,0 -30,5 -30,15 0,8 -7,15 -15,15 -8,0 -15,7 -15,15 0,8 -5,15 -11,15 -5,0 -8,4 -4,9 3,5 1,12 -5,16 -11,7 -13,45 -4,69 7,18 84,23 84,6 z m -415,-217 47,-6 -5,-40 c -3,-22 -10,-43 -15,-46 -5,-3 -12,-23 -16,-43 -4,-21 -11,-38 -16,-38 -6,0 -10,-7 -10,-15 0,-8 -7,-15 -15,-15 -8,0 -15,-7 -15,-15 0,-10 -10,-15 -30,-15 -20,0 -30,5 -30,15 0,9 -9,15 -25,15 -16,0 -25,6 -25,15 0,8 -9,23 -20,32 -11,10 -20,22 -20,27 0,5 -11,19 -25,32 -28,26 -34,74 -10,74 8,0 15,4 15,10 0,5 26,11 58,13 31,2 69,4 83,5 14,1 48,-1 74,-5 z m 275,-17 c 0,-8 6,-17 13,-19 8,-4 9,-8 1,-14 -6,-4 -14,-33 -16,-63 -3,-30 -11,-56 -17,-58 -6,-2 -11,-10 -11,-18 0,-9 -11,-14 -29,-14 -16,0 -31,-5 -33,-11 -2,-6 -27,-14 -56,-17 l -52,-5 0,32 c 0,17 4,31 9,31 5,0 11,26 13,57 3,31 10,59 16,61 7,2 12,15 12,28 0,23 2,24 75,24 58,0 75,-3 75,-14 z m 170,-30 c 0,-8 7,-16 15,-20 19,-7 19,-32 1,-43 -8,-4 -16,-19 -18,-33 -3,-23 -8,-25 -55,-28 l -53,-3 0,43 c 0,24 6,56 13,71 10,23 18,27 55,27 29,0 42,-4 42,-14 z"
       id="path8" />
    <path
       d="m 4097,2882 c -43,-9 -80,-82 -42,-82 8,0 15,-7 15,-15 0,-8 7,-15 15,-15 8,0 15,-7 15,-15 0,-8 7,-15 15,-15 8,0 15,-7 15,-15 0,-8 5,-15 10,-15 6,0 10,-10 10,-22 0,-39 11,-64 33,-77 15,-10 22,-11 25,-2 2,6 9,11 17,11 7,0 15,14 19,31 3,17 10,28 16,24 6,-4 10,8 10,29 0,25 -4,36 -15,36 -10,0 -15,10 -15,30 0,20 -5,30 -15,30 -8,0 -15,4 -15,10 0,15 -33,50 -47,50 -7,0 -13,4 -13,9 0,11 -29,18 -53,13 z"
       id="path10" />
    <path
       d="m 3290,2165 c 0,-14 -7,-28 -15,-31 -10,-4 -15,-20 -15,-49 0,-29 -5,-45 -15,-49 -12,-4 -15,-25 -15,-96 0,-73 3,-90 15,-90 8,0 15,-7 15,-15 0,-8 7,-15 15,-15 8,0 15,5 15,10 0,6 7,10 15,10 12,0 15,18 15,104 0,72 4,106 12,108 7,3 14,32 16,71 l 4,67 -31,0 c -27,0 -31,-4 -31,-25 z"
       id="path12" />
    <path
       d="m 2890,645 c 0,-8 -7,-15 -15,-15 -12,0 -15,-16 -15,-80 0,-67 3,-83 20,-100 11,-11 23,-20 26,-20 3,0 12,-7 20,-15 11,-11 30,-13 72,-9 31,3 59,9 62,13 3,5 15,11 27,15 13,4 26,18 29,32 3,13 10,24 15,24 5,0 9,25 9,56 0,39 -4,54 -12,52 -8,-3 -11,-23 -9,-56 2,-42 -1,-52 -13,-52 -9,0 -16,-7 -16,-15 0,-8 -7,-15 -15,-15 -8,0 -15,7 -15,15 0,8 -7,15 -15,15 -10,0 -15,10 -15,30 0,20 5,30 15,30 9,0 15,9 15,24 0,49 -9,56 -66,56 -41,0 -54,4 -54,15 0,9 -9,15 -25,15 -16,0 -25,-6 -25,-15 z m 50,-30 c 0,-12 9,-13 45,-8 44,6 45,5 45,-21 0,-15 -7,-29 -15,-32 -9,-4 -15,-19 -15,-35 0,-19 5,-29 15,-29 8,0 15,-7 15,-15 0,-8 7,-15 15,-15 8,0 15,-7 15,-15 0,-12 -14,-15 -65,-15 -89,0 -108,19 -113,112 -4,57 -2,68 12,68 9,0 16,5 16,10 0,6 7,10 15,10 8,0 15,-7 15,-15 z"
       id="path14" />
  </g>
</svg>
