<?xml version="1.0" encoding="UTF-8" standalone="no"?>
<!-- Created with Inkscape (http://www.inkscape.org/) -->

<svg
   xmlns:dc="http://purl.org/dc/elements/1.1/"
   xmlns:cc="http://creativecommons.org/ns#"
   xmlns:rdf="http://www.w3.org/1999/02/22-rdf-syntax-ns#"
   xmlns:svg="http://www.w3.org/2000/svg"
   xmlns="http://www.w3.org/2000/svg"
   version="1.0"
   width="280"
   height="200"
   id="svg2"
   xml:space="preserve"><metadata
     id="metadata3270"><rdf:RDF><cc:Work
         rdf:about=""><dc:format>image/svg+xml</dc:format><dc:type
           rdf:resource="http://purl.org/dc/dcmitype/StillImage" /><dc:title></dc:title></cc:Work></rdf:RDF></metadata><defs
     id="defs5" /><path
     d="m 201.82401,15.53624 0.21491,115.52146 c 0,7.39428 0,29.91209 -56.71046,30.00689 l -10.65691,0 C 77.95476,160.96979 77.95476,138.45198 77.95476,131.0577 L 78.17599,15.53624 0,15.53624 0.06953,148.39319 C 0.06953,185.14341 103.11165,188 134.69683,188 l 10.61267,0 c 31.57885,0 134.62098,-2.85659 134.62098,-39.60681 L 280,15.53624 l -78.17599,0 z"
     id="path23"
     style="fill:#ffffff" /><path
     d="m 207.85598,131.05706 0.0253,-109.884102 66.30547,0 c 0,0 -0.0822,122.820942 -0.0822,127.219592 0,24.11675 -66.19802,33.78619 -128.79317,33.78619 0,-3.03987 0.019,-10.50367 0.019,-15.30048 31.33234,-0.0505 62.52562,-6.67381 62.52562,-35.8212"
     id="path27"
     style="fill:#005030" /><path
     d="m 72.14592,131.05706 -0.0253,-109.884102 -66.305482,0 c 0,0 0.07585,122.820942 0.07585,127.219592 0,24.11675 66.210662,33.78619 128.805822,33.78619 0,-3.03987 -0.0316,-10.50367 -0.0316,-15.30048 -31.32602,-0.0505 -62.5193,-6.67381 -62.5193,-35.8212"
     id="path31"
     style="fill:#f47321" /></svg>