<?xml version="1.0" encoding="UTF-8" standalone="no"?>
<!-- Created with Inkscape (http://www.inkscape.org/) -->

<svg
   xmlns:dc="http://purl.org/dc/elements/1.1/"
   xmlns:cc="http://creativecommons.org/ns#"
   xmlns:rdf="http://www.w3.org/1999/02/22-rdf-syntax-ns#"
   xmlns:svg="http://www.w3.org/2000/svg"
   xmlns="http://www.w3.org/2000/svg"
   version="1.0"
   width="280"
   height="200"
   id="svg22611">
  <metadata
     id="metadata3298">
    <rdf:RDF>
      <cc:Work
         rdf:about="">
        <dc:format>image/svg+xml</dc:format>
        <dc:type
           rdf:resource="http://purl.org/dc/dcmitype/StillImage" />
        <dc:title></dc:title>
      </cc:Work>
    </rdf:RDF>
  </metadata>
  <defs
     id="defs3296" />
  <path
     d="m 175.66306,103.51235 c 0,0 -46.55483,-49.439731 -46.55483,-49.439731 5.9426,-0.664312 12.09412,-1.018696 18.38771,-1.018696 9.82222,0 19.28145,0.955337 28.16712,2.629754 0,0 0,47.828673 0,47.828673 z m -28.16712,43.76072 c -11.44867,0 -22.41111,-1.18303 -32.53635,-3.28204 0,0 0,-40.47868 0,-40.47868 0,0 41.1601,43.51248 41.1601,43.51248 -2.8403,0.15922 -5.71491,0.24824 -8.62375,0.24824 M 78.288583,130.46733 C 63.643446,121.86411 54.73547,110.92563 54.73547,99.99914 c 0,-9.40958 6.612084,-18.77982 17.809061,-26.64681 7.070912,22.10294 7.968052,41.19776 5.744052,57.115 M 236.75522,111.6567 c -3.66042,5.95976 -10.07046,11.89037 -18.5384,17.15505 -5.1037,-22.20225 -4.71848,-41.93568 -1.83705,-58.489809 8.36178,4.888009 14.89167,10.397489 18.98697,15.963449 0,0 27.74939,-30.351747 27.74939,-30.351747 C 254.36397,46.378515 242.85709,38.008154 229.2957,31.277977 234.73324,20.5638 239.56133,14.698223 239.56133,14.698223 239.56133,14.698223 201.22102,0 201.22102,0 c 0,0 -12.71903,17.494039 -12.71903,17.494039 -12.81836,-2.638316 -26.46702,-4.071324 -40.63452,-4.071324 -18.0299,0 -35.22431,2.309592 -50.922357,6.490485 0,0 -13.93635,-14.800923 -13.93635,-14.800923 0,0 -37.698278,14.057892 -37.698278,14.057892 4.0919,6.043631 7.742022,11.938316 10.989846,17.678931 C 30.268177,52.643014 14,75.09182 14,99.99914 c 0,27.71344 20.134016,52.38449 51.456538,68.23322 -7.418438,12.94161 -15.032068,19.62901 -15.032068,19.62901 0,0 39.614083,12.13863 39.614083,12.13863 0,0 12.506777,-18.51101 12.506777,-18.51101 14.15548,3.29747 29.41524,5.09173 45.32214,5.09173 14.53386,0 28.51984,-1.50661 41.62236,-4.27336 0,0 14.92766,15.77852 14.92766,15.77852 0,0 35.14384,-16.61401 35.14384,-16.61401 -2.78558,-4.78695 -5.29031,-9.50375 -7.54853,-14.14176 13.11278,-6.86373 24.19166,-15.2923 32.52948,-24.85599 0,0 -27.78706,-30.81742 -27.78706,-30.81742"
     id="path3292"
     style="fill:#56a0d3" />
</svg>
