<?xml version="1.0" encoding="UTF-8" standalone="no"?>
<!-- Created with Inkscape (http://www.inkscape.org/) -->

<svg
   xmlns:dc="http://purl.org/dc/elements/1.1/"
   xmlns:cc="http://creativecommons.org/ns#"
   xmlns:rdf="http://www.w3.org/1999/02/22-rdf-syntax-ns#"
   xmlns:svg="http://www.w3.org/2000/svg"
   xmlns="http://www.w3.org/2000/svg"
   version="1.0"
   width="280"
   height="200"
   id="svg2"
   xml:space="preserve"><metadata
     id="metadata3289"><rdf:RDF><cc:Work
         rdf:about=""><dc:format>image/svg+xml</dc:format><dc:type
           rdf:resource="http://purl.org/dc/dcmitype/StillImage" /><dc:title></dc:title></cc:Work></rdf:RDF></metadata><defs
     id="defs5" /><path
     d="m 215.00335,70.993228 -36.83744,0 0,10.360532 12.63757,0 24.19987,24.81974 0,56.55914 -24.97153,25.22453 -93.017088,0 -24.971539,-25.22453 0,-33.73814 35.382677,0 0,-11.79001 -10.423789,0 -24.958888,-25.426947 0,-53.700193 24.933588,-26.034158 93.080339,0 24.94623,26.034158 0,32.915878 z M 94.041929,5.161471 l -28.880457,30.14548 0,59.278942 27.033525,27.539537 -27.033525,0 0,43.44085 28.981659,29.27261 98.747639,0 28.9943,-29.27261 0,-62.40354 -24.98418,-25.287791 24.98418,0 0,-42.567998 -28.8931,-30.14548 -98.950041,0 z"
     id="path559"
     style="fill:#000000;fill-opacity:1;fill-rule:nonzero;stroke:none" /><path
     d="m 205.27516,193.96585 c -1.60658,0 -2.89691,-1.30297 -2.89691,-2.89689 0,-1.59393 1.29033,-2.89691 2.89691,-2.89691 1.59392,0 2.8969,1.30298 2.8969,2.89691 0,1.59392 -1.30298,2.89689 -2.8969,2.89689 m 0,-6.57812 c -2.03669,0 -3.68122,1.64453 -3.68122,3.68122 0,2.03668 1.64453,3.68121 3.68122,3.68121 2.03668,0 3.68121,-1.64453 3.68121,-3.68121 0,-2.03669 -1.64453,-3.68122 -3.68121,-3.68122"
     id="path563"
     style="fill:#000000;fill-opacity:1;fill-rule:nonzero;stroke:none" /><path
     d="m 205.71809,190.70227 -0.98672,0 0,-0.92347 0.98672,0 c 0.26565,0 0.46807,0.21507 0.46807,0.46806 0,0.25301 -0.20242,0.45541 -0.46807,0.45541 m 1.25237,-0.45541 c 0,-0.69576 -0.55661,-1.25237 -1.25237,-1.25237 l -1.77103,0 0,4.21252 0.78431,0 0,-1.72043 0.56926,0 0.79696,1.72043 0.87287,0 -0.82227,-1.78368 c 0.48071,-0.1771 0.82227,-0.64516 0.82227,-1.17647"
     id="path567"
     style="fill:#000000;fill-opacity:1;fill-rule:nonzero;stroke:none" /><path
     d="m 126.27451,124.87016 0,18.49462 33.18154,0 0,-6.45161 13.33333,0 0,-5.90765 -13.33333,0 0,-6.13536 -33.18153,0 z"
     id="path571"
     style="fill:#000000;fill-opacity:1;fill-rule:nonzero;stroke:none" /><path
     d="m 136.7742,47.893922 22.68185,17.748262 0,-17.748262 -22.68185,0 z"
     id="path575"
     style="fill:#000000;fill-opacity:1;fill-rule:nonzero;stroke:none" /><path
     d="m 149.36135,81.35358 -23.11195,-17.786213 0,17.786213 23.11195,0 z"
     id="path579"
     style="fill:#000000;fill-opacity:1;fill-rule:nonzero;stroke:none" /><path
     d="m 98.44421,15.484053 -22.960157,23.972171 0,50.904495 22.960157,23.402911 10.25933,0 10.63883,-7.57748 47.03353,0 11.81531,8.55155 0,16.26818 -1.97344,0 0,5.90766 1.97344,0 0,17.14105 -11.65086,8.3871 -47.00822,0 -12.10626,-8.82985 0,-21.17648 -31.941817,0 0,28.88047 22.960157,23.20051 90.14548,0 22.9728,-23.20051 0,-53.75081 -22.31499,-22.770399 -11.08159,0 0,5.414295 -17.29286,0 -7.04617,-5.414295 -27.57748,0 0,5.325743 -18.82353,-0.0253 0,-50.942445 18.17836,0 6.76787,5.300443 27.08413,0 0,-5.300443 18.70968,0 0,28.399749 33.39658,0 0,-28.096144 -22.9728,-23.972171 -90.14548,0 z"
     id="path583"
     style="fill:#f5002e;fill-opacity:1;fill-rule:nonzero;stroke:none" /><path
     d="m 174.72487,86.768055 0,-44.174576 -11.82796,0 0,30.120179 -38.48198,-30.120179 -13.54839,0 0,44.098675 11.94181,0 0,-30.107529 39.22834,30.18343 12.68818,0 z"
     id="path587"
     style="fill:#f5002e;fill-opacity:1;fill-rule:nonzero;stroke:none" /><path
     d="m 174.76282,116.48325 -9.50032,-6.85642 -44.81974,0 -9.57622,6.81847 0,35.4206 9.67742,7.13473 44.89564,0 9.32322,-6.70462 0,-11.9418 -11.86591,0 0,6.4516 -40.06326,0 0,-25.37633 40.06326,0 0,6.13536 11.86591,0 0,-11.08159 z"
     id="path591"
     style="fill:#f5002e;fill-opacity:1;fill-rule:nonzero;stroke:none" /><path
     d="m 205.27516,188.17242 c -1.60658,0 -2.89691,1.30297 -2.89691,2.8969 0,1.59392 1.29033,2.89689 2.89691,2.89689 1.59392,0 2.8969,-1.30297 2.8969,-2.89689 0,-1.59392 -1.30298,-2.8969 -2.8969,-2.8969"
     id="path595"
     style="fill:#ffffff;fill-opacity:1;fill-rule:nonzero;stroke:none" /><path
     d="m 205.71809,189.77881 -0.98672,0 0,0.92348 0.98672,0 c 0.26565,0 0.46807,-0.20241 0.46807,-0.45541 0,-0.25301 -0.20242,-0.46807 -0.46807,-0.46807"
     id="path599"
     style="fill:#ffffff;fill-opacity:1;fill-rule:nonzero;stroke:none" /><path
     d="m 221.8849,77.874768 -24.98419,0 24.98419,25.287792 0,62.40353 -28.99431,29.27261 -98.74764,0 -28.981659,-29.2726 0,-43.44085 27.033525,0 -27.033525,-27.539538 0,-59.278942 28.880458,-30.145479 98.950041,0 28.89311,30.145479 0,42.567998 z M 227.03354,33.232134 195.19293,0 91.84061,0 60,33.232134 l 0,63.466165 19.8988,20.265661 -19.8988,0 0,50.72737 31.992413,32.30866 103.061367,0 5.04743,-5.09803 c 1.18913,1.60657 3.11196,2.64389 5.2625,2.64389 3.63061,0 6.56546,-2.93485 6.56546,-6.55281 0,-2.18848 -1.07527,-4.11133 -2.70715,-5.3131 l 17.81152,-17.98861 0,-66.46425 -17.58381,-18.191021 17.58381,0 0,-49.803925 z"
     id="path603"
     style="fill:#ffffff;fill-opacity:1;fill-rule:nonzero;stroke:none" /><path
     d="m 162.89709,127.56502 0,-6.13535 -40.06326,0 0,25.37633 40.06326,0 0,-6.45161 11.86591,0 0,11.9418 -9.32322,6.70462 -44.89564,0 -9.67742,-7.13472 0,-35.42061 9.57622,-6.81847 44.81974,0 9.50032,6.85642 0,11.08159 -11.86591,0 z m 9.89247,3.44086 0,5.90765 -13.33333,0 0,6.45161 -33.18153,0 0,-18.49461 33.18153,0 0,6.13535 13.33333,0 z m -36.01518,-83.111958 22.68185,0 0,17.748262 -22.68185,-17.748262 z m 12.58697,33.459838 -23.11196,0 0,-17.786212 23.11196,17.786212 z m -26.55282,-24.769135 0,30.107529 -11.94181,0 0,-44.098675 13.54839,0 38.48198,30.120179 0,-30.120179 11.82796,0 0,44.174576 -12.68818,0 -39.22834,-30.18343 z m 88.75396,10.967743 -33.39658,0 0,-28.399749 -18.70968,0 0,5.300443 -27.08413,0 -6.76787,-5.300443 -18.17836,0 0,50.942445 18.82353,0.0253 0,-5.325743 27.57748,0 7.04617,5.414295 17.29286,0 0,-5.414295 11.08159,0 22.31499,22.770399 0,53.75078 -22.9728,23.20052 -90.14548,0 -22.960157,-23.20052 0,-28.88044 31.941817,0 0,21.17646 12.10626,8.82985 47.00822,0 11.65086,-8.38708 0,-17.14105 -1.97344,0 0,-5.90766 1.97344,0 0,-16.26818 -11.81531,-8.55155 -47.03353,0 -10.63883,7.57748 -10.25933,0 -22.960157,-23.402911 0,-50.904495 22.960157,-23.972171 90.14548,0 22.9728,23.972171 0,28.096144 z M 96.976781,12.043192 72.043193,38.07735 l 0,53.700193 24.958888,25.426947 10.423789,0 0,11.79001 -35.382677,0 0,33.73813 24.971539,25.22454 93.017088,0 24.97153,-25.22454 0,-56.55913 -24.19987,-24.81974 -12.63757,0 0,-10.360532 36.83744,0 0,-32.915878 -24.94623,-26.034158 -93.080339,0 z"
     id="path607"
     style="fill:#ffffff;fill-opacity:1;fill-rule:nonzero;stroke:none" /></svg>