<?xml version="1.0" encoding="UTF-8" standalone="no"?>
<svg xmlns:svg="http://www.w3.org/2000/svg" xmlns="http://www.w3.org/2000/svg" version="1.0" width="325.71" height="260" id="svg22611"><path d="M 209.98254,134.54849 C 209.98254,134.54849 149.69403,70.524041 149.69403,70.524041 C 157.3897,69.663757 165.35592,69.20483 173.50612,69.20483 C 186.22589,69.20483 198.47559,70.441992 209.98254,72.610362 C 209.98254,72.610362 209.98254,134.54849 209.98254,134.54849 z M 173.50612,191.21863 C 158.68009,191.21863 144.48373,189.6866 131.37154,186.96839 C 131.37154,186.96839 131.37154,134.54849 131.37154,134.54849 C 131.37154,134.54849 184.67387,190.89715 184.67387,190.89715 C 180.99568,191.10334 177.27306,191.21863 173.50612,191.21863 M 83.882583,169.45519 C 64.917129,158.31402 53.381299,144.14869 53.381299,129.99888 C 53.381299,117.81348 61.943948,105.67902 76.444033,95.491267 C 85.600859,124.11458 86.762663,148.84237 83.882583,169.45519 M 289.09688,145.09543 C 284.35664,152.81332 276.05564,160.49346 265.08965,167.31121 C 258.48037,138.5593 258.97923,113.00451 262.71068,91.566914 C 273.53918,97.896888 281.99539,105.03166 287.2988,112.23958 C 287.2988,112.23958 323.23426,72.934068 323.23426,72.934068 C 311.90022,60.560177 296.9988,49.720559 279.4368,41.00498 C 286.47842,27.130121 292.73079,19.534199 292.73079,19.534199 C 292.73079,19.534199 243.0801,0.5 243.0801,0.5 C 243.0801,0.5 226.60895,23.15478 226.60895,23.15478 C 210.00917,19.738161 192.33416,17.882416 173.98725,17.882416 C 150.63853,17.882416 128.37176,20.873338 108.04279,26.287594 C 108.04279,26.287594 89.995212,7.1203986 89.995212,7.1203986 C 89.995212,7.1203986 41.175944,25.325369 41.175944,25.325369 C 46.474954,33.151871 51.201863,40.785488 55.407794,48.219585 C 21.696155,68.672703 0.62886609,97.743913 0.62886609,129.99888 C 0.62886609,165.88779 26.702416,197.8368 67.265083,218.3609 C 57.658205,235.12029 47.798554,243.78047 47.798554,243.78047 C 47.798554,243.78047 99.098793,259.5 99.098793,259.5 C 99.098793,259.5 115.29507,235.52824 115.29507,235.52824 C 133.62642,239.79846 153.38781,242.12203 173.98725,242.12203 C 192.8086,242.12203 210.92044,240.17097 227.8882,236.58803 C 227.8882,236.58803 247.21952,257.02122 247.21952,257.02122 C 247.21952,257.02122 292.73079,235.50607 292.73079,235.50607 C 289.12347,229.30697 285.87984,223.19871 282.95545,217.19249 C 299.9365,208.30396 314.28365,197.38896 325.08113,185.00399 C 325.08113,185.00399 289.09688,145.09543 289.09688,145.09543" style="fill:#56A0D3"/></svg>