<?xml version="1.0" encoding="UTF-8" standalone="no"?>
<!-- Created with Inkscape (http://www.inkscape.org/) -->

<svg
   xmlns:dc="http://purl.org/dc/elements/1.1/"
   xmlns:cc="http://creativecommons.org/ns#"
   xmlns:rdf="http://www.w3.org/1999/02/22-rdf-syntax-ns#"
   xmlns:svg="http://www.w3.org/2000/svg"
   xmlns="http://www.w3.org/2000/svg"
   version="1.1"
   width="280"
   height="200"
   viewBox="0 0 280.00001 200"
   id="Layer_1"
   xml:space="preserve"><metadata
     id="metadata3603"><rdf:RDF><cc:Work
         rdf:about=""><dc:format>image/svg+xml</dc:format><dc:type
           rdf:resource="http://purl.org/dc/dcmitype/StillImage" /><dc:title></dc:title></cc:Work></rdf:RDF></metadata><defs
     id="defs3601" /><g
     transform="matrix(1.0610417,0,0,1.0610417,8.6947921,-5.0452423)"
     id="g3301"><path
       d="m 8.59,172.213 c 0.156,0.052 0.156,0.318 0.371,0.208 0.897,-1.054 1.587,-2.263 2.433,-3.323 3.434,-1.046 7.131,-1.565 10.829,-1.929 0.208,0.111 -0.156,0.268 0.052,0.371 0.048,1.958 -0.06,3.961 0.2,5.808 11.092,-3.619 22.451,-6.653 34.437,-8.055 1.269,1.268 2.637,2.439 4.117,3.39 5.285,-2.471 10.725,-4.569 16.169,-6.676 3.323,0.964 7.02,0.92 10.502,1.402 l -1.272,1.95 0.267,0.104 c 1.635,0.06 3.274,0.008 4.854,0.067 l 12.832,-0.237 11.144,-0.505 c 4.068,-1.253 8.033,-2.833 12.101,-4.087 0.63,-0.163 1.372,-0.689 1.898,-0.155 0.155,-0.111 0.319,-0.319 0.475,-0.319 8.233,1.869 16.202,4.31 24.165,6.757 0.159,0.111 0.582,0.163 0.479,0.482 l 1.104,0.526 c 1.532,0.379 3.06,1.017 4.539,1.595 0.315,0.268 0.895,0.156 0.895,0.638 -0.319,0.786 -0.794,1.528 -1.009,2.27 10.454,0.386 20.167,2.737 29.875,4.918 l 13.67,3.679 2.478,0.846 -0.371,1.053 6,6.461 c 4.443,-3.271 8.834,-6.742 13.44,-9.687 0.048,-0.423 0.578,-0.371 0.842,-0.631 l 1.001,0.319 c 4.432,2.01 9.075,3.5 13.559,5.466 l 0.526,-0.734 c -1.424,-1.009 -3.056,-1.698 -4.535,-2.551 -0.567,-3.909 -1.514,-7.603 -2.396,-11.408 l -4.094,-13.684 c -1.991,-6.023 -3.883,-12.105 -6.505,-17.809 l 0.264,-0.475 c -1.524,-3.486 -2.837,-7.076 -4.729,-10.406 0.264,-0.423 0.79,-0.475 1.001,-0.897 -1.253,-3.968 -3.152,-7.61 -4.669,-11.415 0.53,0.052 1.161,0.215 1.532,-0.215 -1.209,-3.486 -2.838,-6.757 -4.365,-10.087 0.107,-0.319 0.479,-0.216 0.686,-0.371 -1.672,-4.489 -4.094,-8.613 -6.304,-12.844 l 0.374,-1.476 c -1.42,-2.959 -3.371,-5.711 -5.314,-8.458 0.264,-0.373 0.742,-0.528 0.897,-1.003 -0.993,-3.063 -2.307,-6.026 -3.782,-8.878 l 0.215,-0.211 c 2.529,0.642 5.066,1.439 7.858,1.495 0.905,-0.417 1.539,-1.42 1.91,-2.266 -1.896,-1.957 -4.058,-4.124 -5.9,-6.189 -7.48,-8.253 -14.956,-16.611 -17.945,-26.861 -1.951,-1.854 -3.846,-3.809 -5.797,-5.609 -1.58,-0.373 -3.43,-0.428 -5.014,-0.272 -2.481,-1.591 -5.381,-2.602 -8.548,-2.451 l -0.104,-0.16 0.475,-1.37 -0.052,-0.16 c -1.847,-0.424 -4.22,-0.486 -5.963,0.148 -0.582,0.156 -1.057,0.577 -1.64,0.63 -0.267,-0.159 -0.318,-0.479 -0.259,-0.793 -0.897,-1.849 -1.892,-3.703 -3.315,-5.392 l -1.64,-0.692 c -1.261,-1.743 -2.736,-3.49 -4.584,-4.762 -0.682,-0.582 -1.632,-0.691 -2.214,-1.379 -2.162,-0.319 -4.168,-0.907 -6.122,-1.754 -0.42,-0.371 -1.317,-0.056 -1.425,-0.845 -1.684,-0.479 -3.374,-0.909 -5.01,-1.489 -0.471,-0.319 -0.419,-1.059 -0.687,-1.533 l -0.682,-0.004 c -4.491,0.94 -9.346,1.298 -13.993,1.237 l -0.319,-0.16 c -0.211,-0.949 -0.523,-1.898 -0.89,-2.798 -2.54,1.788 -5.077,3.577 -7.617,5.316 -2.273,1.682 -4.754,2.895 -6.976,4.628 -0.634,0.161 -0.527,-0.581 -0.901,-0.846 -0.523,-0.213 -1.102,-0.107 -1.632,-0.165 -2.058,0.156 -4.491,0.152 -6.653,-0.117 -4.484,-0.38 -9.186,-0.391 -13.51,-1.192 -2.7,2.37 -4.769,5.164 -5.674,8.381 l 0.156,0.319 c -0.846,2.004 -1.276,4.224 -1.539,6.49 -0.382,3.061 0.037,6.019 0.456,8.871 -0.215,0.315 -0.586,0.315 -0.846,0.213 -1.472,-4.705 -1.298,-10.827 0.667,-15.263 -0.482,-0.054 -1.057,0 -1.483,0.052 -1.691,0.152 -3.323,-0.482 -5.014,-0.382 -1.061,3.482 -1.813,7.389 -0.868,11.088 0.371,1.424 1.157,2.747 1.839,4.015 -0.742,0.686 -1.795,0.896 -2.752,1.207 l -0.259,-0.156 c -0.738,-1.535 -1.261,-3.119 -1.732,-4.754 -1.168,3.164 -1.969,6.592 -1.98,10.184 -0.052,1.373 0.312,2.587 0.367,3.803 -1.854,1.947 -3.394,4.113 -4.606,6.325 0.1,0.79 0.73,1.322 0.89,2.061 -1.803,1.37 -3.545,2.737 -5.185,4.422 -0.319,1.743 -0.43,3.486 -0.49,5.225 0.527,1.114 -0.634,1.583 -1.272,2.166 l -0.211,1.53 c -0.586,0.897 -1.587,1.42 -2.329,2.001 -0.267,0.844 -0.164,1.745 -0.531,2.481 -0.745,1.791 -2.333,3.319 -2.125,5.327 -0.275,2.16 0.623,3.855 1.253,5.706 0.793,1.218 1.368,2.589 1.943,3.911 0.052,1.689 1.317,2.91 2.366,4.124 l 0.423,0.054 c 0.475,0.052 0.423,0.742 0.901,0.797 0.419,-0.267 0.842,-0.319 1.213,-0.742 l 2.429,-0.152 c 0.367,0.267 0.582,0.689 0.634,1.057 -0.271,0.686 0.204,1.32 0.312,1.955 1.943,3.913 4.102,7.719 6.942,11.257 v 0.318 c -0.793,1.009 -2.062,1.425 -3.019,2.27 -5.811,3.464 -11.837,7.15 -16.863,11.786 -0.219,1.372 -1.116,2.484 -1.961,3.59 -0.215,0.318 -0.583,0.63 -0.957,0.571 -0.63,-0.475 -1.476,-0.794 -2.318,-1.002 -1.851,0.942 -3.119,2.634 -4.81,3.946 -2.915,3.056 -6.457,5.845 -8.737,9.22 -0.156,0.37 0.371,0.793 0.156,1.164 -0.95,1.372 -1.958,2.744 -3.067,4.005 -1.22,1.691 -2.6,3.427 -3.868,5.17 -4.391,6.739 -8.215,13.704 -10.18,21.41"
       id="path3303"
       style="fill:#1b3561" /><path
       d="m 10.362,159.018 0.631,-0.318 c 3.393,-6.431 7.792,-12.498 12.29,-18.402 l -0.838,-1.898 0.215,-0.423 c 5.236,-5.11 10.896,-10.116 16.184,-14.804 l 3.278,-0.994 c 0.052,-0.475 -0.742,-1.105 0,-1.372 5.919,-3.946 11.741,-8.314 17.719,-12.053 -2.218,-3.123 -3.946,-6.396 -5.629,-9.781 -0.052,-0.208 0.371,-0.423 -0.052,-0.579 -0.53,0.267 -1.113,0.423 -1.536,0.842 0.111,0.156 0.156,0.419 -0.052,0.475 -0.319,0 -0.793,0.575 -1.005,0 l -1.316,-1.799 -1.528,0.048 -2.054,-3.015 -0.69,-0.107 c -0.312,-0.845 -0.786,-1.743 -0.786,-2.692 l 0.375,-0.421 -0.79,-1.956 -2.054,-2.225 c 0,-0.475 0.478,-0.838 0.638,-1.265 -0.416,-1.795 -0.942,-3.538 -1.413,-5.335 1.005,-1.37 2.222,-2.685 3.282,-4.007 l 0.534,-3.429 c 0.319,-0.209 0.742,-0.209 1.057,-0.471 l 1.113,-1.583 0.271,-1.899 0.897,-0.369 c 0.375,-2.11 0.538,-4.381 0.753,-6.545 0.53,-0.315 1.216,-0.104 1.743,-0.419 -0.367,-0.634 0.159,-1.269 0.53,-1.845 1.061,-1.37 2.381,-2.688 3.656,-3.847 -0.475,-0.687 0.052,-1.584 0.164,-2.377 0.53,-1.686 1.061,-3.323 1.906,-4.906 0.423,-0.102 0.85,0.267 1.32,0.323 -0.571,-3.011 -0.512,-6.284 -0.03,-9.346 0.534,-3.113 1.387,-6.019 2.344,-8.969 0.578,0.102 1.157,0.634 1.735,0.793 l 0.111,-0.054 c -0.312,-2.483 -0.467,-5.229 0.119,-7.656 0.426,-0.262 1.009,-0.208 1.428,-0.421 0.315,-0.156 0.897,0.058 0.953,-0.417 0.263,-0.688 -0.104,-1.583 0.479,-2.112 l 4.91,0.699 c 1.643,-3.323 4.603,-6.381 7.777,-8.537 0.527,0.213 1.001,0.581 1.476,0.793 0,-0.684 0.111,-1.37 0.06,-2.058 l 0.953,0.004 c 7.072,0.91 14.355,1.561 21.587,1.949 4.495,-2.58 10.792,-6.59 15.124,-9.483 l 1.053,1.28 c 0.159,0.367 0.842,0.847 0.104,1.109 -0.163,0.213 -0.371,0.315 -0.475,0.475 l 0.104,0.105 c 5.066,0.593 10.399,0.92 15.309,0.035 0.267,0.315 0.367,0.686 0.422,1.109 1.899,0.638 3.954,0.853 6.067,0.911 0.423,0.315 -0.107,0.844 0,1.265 2.321,1.116 4.959,1.702 7.599,1.971 0.315,0.319 -0.163,0.688 -0.219,1.003 2.904,1.33 5.541,3.497 7.807,6.038 l 0.738,-0.102 c 1.476,1.689 2.629,3.697 3.471,5.708 2.8,-0.733 6.127,-0.566 8.923,-0.087 0.319,0.16 0.104,0.373 0.104,0.634 l -0.056,1.322 c 2.533,0.269 4.858,1.013 7.021,2.285 1.269,-0.208 2.585,-0.048 3.798,0.274 l 1.587,-1.109 c 0.212,0.054 0.264,0.213 0.264,0.425 2.002,2.223 3.901,4.391 6.219,6.191 0.415,1.902 1.153,3.751 1.991,5.494 0.367,0.105 -0.003,0.424 0.212,0.58 5.096,11.048 13.577,20.834 22.317,30.146 -0.263,1.055 -1.112,1.792 -1.798,2.635 l -1.588,1.37 c -1.583,0.365 -3.223,0.414 -5.018,0.41 l -0.052,0.106 c 0.89,2.01 1.787,3.966 2.573,6.024 -0.052,0.424 -1.005,0.58 -0.422,1.001 1.787,2.435 3.1,5.025 4.205,7.721 -0.212,0.581 -0.897,1.159 -0.742,1.845 2.841,3.39 5.107,6.979 6.995,10.738 0.155,0.475 0.422,0.949 0.312,1.424 -0.26,0.26 -0.734,0.044 -0.95,0.26 1.58,3.753 2.997,7.558 3.938,11.57 -0.215,0.104 -0.318,0.318 -0.37,0.526 1.731,3.701 3.627,7.299 5.095,11.052 -0.267,0.26 -0.842,-0.06 -1.104,0.26 1.624,3.642 2.885,7.395 4.139,11.147 l -0.367,0.052 v 0.423 c 1.316,2.381 2.313,4.917 3.256,7.454 l -0.104,0.104 2.202,6.445 3.987,13.313 c 0.778,4.065 1.936,8.025 2.61,12.149 1.899,1.009 3.798,2.069 5.645,3.182 l -1.061,2.581 c -1.22,0.846 -2.226,2.003 -3.338,2.952 -4.747,-2.225 -9.493,-4.457 -14.448,-6.312 -4.446,2.996 -8.678,6.683 -12.275,10.896 l -3.538,0.104 c -2.792,-2.492 -5.532,-4.813 -8.218,-7.521 l 0.212,-1.313 c -9.335,-3.983 -19.418,-6.067 -29.977,-7.143 l -13.091,-0.928 -0.475,-0.111 -1.898,-2.01 c 0.215,-0.415 0.43,-0.89 0.849,-1.261 l 0.004,-0.267 c -8.863,-3.924 -17.993,-7.062 -27.279,-9.88 -4.755,1.417 -9.457,2.938 -14.16,4.51 l -0.682,-0.638 -7.554,0.512 -17.107,1.23 c -2.166,0 -4.22,0.26 -6.338,0.356 -0.523,-0.689 -0.946,-1.587 -1.369,-2.433 -3.115,-0.06 -6.757,-0.912 -9.553,0.349 -4.28,1.527 -8.3,3.834 -12.424,5.785 -0.371,0.155 -0.742,0 -1.053,-0.111 -0.163,-0.104 -0.215,-0.267 -0.423,-0.371 -0.215,0.26 -0.526,0.475 -0.897,0.319 -1.261,-1.432 -2.477,-2.967 -3.79,-4.398 -3.597,0.631 -7.187,1.521 -10.725,2.515 l -14.9,4.034 c -2.848,0.786 -5.704,1.521 -8.452,2.515 -0.264,0.156 -0.531,0.794 -0.901,0.423 l -1.261,-0.905 c 0.163,-2.054 0.219,-4.22 0.066,-6.334 -1.902,0.423 -3.964,0.623 -5.971,0.986 -1.272,1.483 -2.7,2.952 -4.072,4.376 -0.586,-0.155 -0.949,-0.682 -1.053,-1.268 L 5,172.094 c 1.276,-4.531 3.082,-8.915 5.362,-13.076"
       id="path3305"
       style="fill:#1b3561" /><polygon
       points="60.869,170.604 77.06,162.86 84.451,164.974 85.156,167.437 116.485,165.322 129.524,160.546 159.074,170.952 159.074,175.18 184.771,177.286 203.424,183.628 212.225,192.075 226.31,180.809 240.387,187.144 243.554,183.271 237.568,180.461 233.344,161.799 229.469,149.836 224.544,135.758 221.726,124.848 217.505,117.453 217.505,112.528 214.338,105.481 214.338,101.612 208.353,92.459 208.353,88.237 204.132,82.958 204.132,79.439 201.662,73.808 208.353,74.51 210.814,71.343 203.071,63.6 197.09,56.208 191.104,47.058 186.88,36.496 179.485,31.213 173.855,29.808 167.874,28.4 164.707,26.641 159.43,26.991 155.559,21.36 146.896,15.482 138.654,11.858 133.589,9.728 118.948,9.04 116.485,6.93 103.109,16.081 80.479,14.341 72.131,22.769 67.207,22.769 63.684,33.68 61.221,35.793 60.168,49.871 55.784,56.528 52.758,63.067 49.606,70.989 46.439,74.862 44.681,80.848 45.382,87.889 48.197,94.223 52.424,98.096 55.591,97.74 61.577,109.71 37.991,126.257 24.614,138.576 23.558,142.44 12.647,157.223 8.775,165.679 7.018,172.361 8.775,174.119 12.294,170.247 20.746,169.194 20.746,175.884 55.944,166.376 "
       id="polygon3307"
       style="fill:#1b3561" /><path
       d="m 24.563,142.938 c 0.211,-0.741 1.376,-1.268 1.057,-2.113 -0.263,-0.794 0.579,-1.477 1.053,-2.166 2.8,-3.219 6.179,-6.282 9.293,-9.234 1.053,-0.904 2.059,-1.958 3.219,-2.589 0.957,0.208 1.743,0.631 2.537,1.054 0.897,-0.526 1.372,-1.528 1.951,-2.381 0.267,-0.52 0.586,-1.046 0.638,-1.684 5.963,-5.652 13.039,-9.294 19.588,-13.625 1.372,1.535 2.956,2.959 4.54,4.013 l -0.052,0.215 -2.484,1.269 -1.691,-1.535 c -0.523,0.215 -1.209,0.533 -1.58,0.949 l 0.371,0.897 c -0.901,0.741 -1.958,1.112 -2.855,1.854 0.215,0.312 0.686,0.631 0.638,1.054 -1.483,0.846 -2.855,1.847 -4.332,2.589 -0.211,-0.475 -0.371,-0.95 -0.578,-1.425 l -0.527,0.26 c -1.268,-0.155 -2.748,-0.312 -3.909,0.104 l 1.261,1.112 -0.1,0.312 c -2.692,1.854 -5.336,3.908 -7.814,6.126 -0.107,0.742 -0.422,1.432 -0.319,2.218 -4.379,2.433 -8.552,5.281 -12.409,8.923 l -1.053,6.653 c 0.264,0.423 -0.263,0.371 -0.475,0.475 -0.319,0.06 -0.371,-0.475 -0.686,-0.363 -5.704,6.066 -10.614,12.46 -14.311,19.373 2.744,-0.052 5.596,-0.371 8.344,-0.526 0,0.845 0.371,1.527 0.156,2.27 10.877,-2.27 21.969,-4.332 33.109,-5.964 l 3.642,2.789 c 6.179,-2.373 12.405,-4.531 18.795,-6.438 l 0.052,0.475 c 3.378,0.215 7.076,0.215 10.455,0.318 l 0.052,0.268 -1.212,3.167 c 0.156,0.104 0.211,-0.163 0.367,-0.163 l 24.821,0.326 2.266,-0.06 9.026,-5.014 c 0.794,0.526 1.376,-0.475 2.062,-0.689 l 6.02,2.433 c 0.315,0.155 0.475,-0.216 0.634,-0.319 7.495,2.692 15.209,4.91 23.13,6.497 2.374,0.416 4.691,0.949 7.072,1.372 -0.159,0.26 -0.211,0.527 0.048,0.683 l 0.111,0.897 -0.479,0.586 0.738,0.312 c 5.548,1.432 11.037,3.063 16.525,4.599 l 0.794,-1.269 c 8.552,1.002 16.896,2.478 25.076,4.272 0.268,0.689 0.319,1.535 0.371,2.27 1.584,1.958 2.907,4.124 4.487,6.074 l 0.371,-0.052 12.831,-6.705 c 0.371,-0.37 -0.052,-0.897 0.104,-1.476 1.32,-0.06 2.748,0.363 4.172,0.155 -2.43,-13.677 -6.179,-26.871 -10.825,-39.703 0.267,-0.155 1.005,0.104 0.849,-0.475 l -4.49,-10.829 0.475,-0.104 -0.104,-0.475 c -0.845,-2.218 -1.531,-4.539 -2.532,-6.809 -0.375,-0.156 -0.742,0.423 -1.116,0 0.267,-2.692 0.481,-5.541 0.793,-8.345 -1.001,-2.848 -2.425,-5.54 -3.745,-8.29 l 0.26,-2.162 -3.056,-4.435 0.37,-3.38 c -1.958,-3.008 -4.013,-5.965 -6.341,-8.817 2.062,8.923 3.642,18.428 3.485,28.242 -2.796,-3.797 -5.911,-7.603 -9.346,-11.242 0,-0.26 0.053,-0.526 0.319,-0.682 l -3.434,-5.544 -4.065,-2.906 h -0.159 c -2.373,3.907 -5.277,7.656 -8.76,10.927 0.575,0.53 0.523,1.372 0.738,2.061 -1.432,1.424 -3.063,2.588 -4.591,3.908 -0.375,-0.897 -0.582,-1.95 -0.957,-2.959 -0.842,-0.527 -1.791,-1.002 -2.744,-1.32 -0.687,0.155 -0.742,1.32 -1.584,1.001 -0.159,0 -0.318,0.215 -0.207,0.423 l 0.682,4.332 -0.107,0.104 -1.791,-0.423 -0.107,0.111 c 0.052,0.63 0.371,1.157 0.264,1.787 -0.527,0.06 -1.058,-0.26 -1.688,-0.312 0,0.69 0.155,1.372 0.263,2.055 -0.686,-0.097 -1.32,-0.415 -2.006,-0.63 l -4.116,2.484 c -0.742,-0.371 -1.269,-1.165 -1.799,-1.743 l -0.419,0.052 c -3.167,1.64 -6.334,3.219 -9.449,4.962 0.26,0.319 0.842,0.475 0.842,0.949 -7.287,0.846 -14.204,2.485 -20.063,6.868 l -1.583,3.798 c 0.155,0.423 0.634,0.794 0.845,1.269 -0.741,1.164 -1.639,2.27 -2.588,3.322 v 0.111 c 1.164,-0.215 2.27,-0.638 3.326,-1.061 -0.107,-0.63 -0.526,-1.157 -0.901,-1.684 1.269,-1.009 3.067,-1.216 4.65,-1.69 3.271,-0.69 7.076,-0.69 10.455,-0.371 l 1.265,2.952 c -6.55,1.483 -12.936,3.278 -18.372,7.506 -0.268,-0.111 0.104,-0.371 0.052,-0.638 -0.159,-0.268 -0.475,-0.475 -0.742,-0.69 l -0.312,0.111 c -0.69,1.632 -1.324,3.271 -2.325,4.747 -0.53,0.111 -1.265,0.111 -1.691,0.423 0,0.267 0.267,0.104 0.319,0.267 l -0.108,0.371 c -1.112,1.209 -2.374,2.218 -3.538,3.271 l 1.691,2.113 c -1.532,1.32 -3.327,2.27 -5.125,3.167 -0.367,-0.63 -0.897,-1.216 -1.476,-1.795 -1.265,0.846 -2.589,1.528 -3.909,2.27 0.215,0.579 0.793,1.002 1.009,1.528 -1.691,0.897 -3.538,1.535 -5.493,1.854 -0.263,-0.319 -0.107,-0.846 -0.634,-1.061 -0.475,0.104 -1.32,0 -1.269,0.741 -0.897,0.578 -1.743,-0.208 -2.641,0.371 l 0.215,0.475 c -1.958,0.312 -3.805,-0.215 -5.652,-0.526 -0.953,-0.216 -1.847,-0.586 -2.744,-1.002 -0.638,0.097 -1.001,0.631 -1.532,0.891 -2.377,-0.734 -4.383,-2.374 -6.494,-3.901 0,-0.111 -0.059,-0.163 0,-0.319 0.527,-0.267 0.897,-0.689 1.372,-1.009 -0.215,-0.363 -0.742,-0.155 -1.112,-0.155 l -2.055,0.215 c -1.799,-1.587 -3.067,-3.486 -4.436,-5.281 0.527,-0.897 1.105,-1.743 1.528,-2.692 l -2.166,-2.641 0.742,-1.958 c 0,-0.363 -0.475,-0.475 -0.526,-0.838 -0.427,-0.586 -0.315,-1.432 0.052,-2.01 0.156,-0.156 0.315,0 0.371,0.155 0.367,0.742 1.053,1.372 1.688,1.906 0.156,0.475 -0.686,1.165 0.107,1.477 0.475,0.052 0.208,-0.579 0.527,-0.846 l 0.107,-0.156 c -4.491,-5.866 -7.183,-13.521 -4.91,-21.071 0.048,-0.104 0.208,-0.104 0.264,0 1.424,2.959 3.479,5.651 6.071,8.084 0.208,0.104 0.315,-0.163 0.315,-0.318 -1.109,-2.478 -2.374,-4.962 -3.063,-7.654 0.211,-2.063 0.582,-4.064 1.057,-6.075 0.056,-0.052 0.16,-0.052 0.267,-0.052 0.367,0.363 0.683,0.897 1.109,1.157 -0.16,-1.209 -0.426,-2.633 -0.534,-3.953 l 1.532,-4.754 c -1.476,-2.535 -2.741,-5.172 -3.85,-7.918 -1.375,1.266 -2.644,2.798 -3.96,4.222 0.315,0.897 0.634,1.899 1.265,2.64 -0.471,2.746 -0.579,5.81 -0.471,8.762 l -4.91,2.276 c -1.061,-1.75 -1.005,-4.02 -1.376,-6.126 0.156,-0.267 0.634,-0.215 0.526,-0.586 0.056,-0.208 0.267,-0.052 0.371,-0.104 0.267,-0.319 0.423,-0.683 0.479,-1.105 l -0.211,-0.319 c 0.312,-0.052 0.419,-0.423 0.367,-0.689 -0.211,-0.052 -0.211,-0.26 -0.156,-0.423 0.1,-0.104 0.367,-0.155 0.315,-0.363 -0.107,-0.163 -0.215,0.104 -0.315,0 0.1,-2.063 0.63,-4.015 0.894,-6.024 l -1.213,-1.688 c -0.367,0.53 -0.422,1.165 -0.79,1.587 -0.583,-0.267 -0.742,-1.057 -1.32,-1.376 -0.638,5.336 -0.423,11.246 0.949,16.267 -0.69,0.527 -1.268,-0.378 -1.847,-0.638 -5.018,-3.693 -7.395,-9.084 -9.928,-14.153 -0.427,-0.583 0.156,-1.213 -0.211,-1.843 l 0.052,-0.161 c -0.793,-0.315 -1.902,-0.102 -2.796,-0.05 -0.423,0.315 -0.897,0.686 -1.424,0.686 L 52.02,95.529 C 50.967,95.475 50.54,94.26 49.91,93.573 49.38,92.885 48.905,92.095 48.961,91.142 48.327,90.037 48.06,88.717 47.266,87.66 c -0.63,-1.689 -1.528,-3.327 -1.476,-5.277 0,-0.897 -0.052,-1.743 0.215,-2.591 0.682,-1.159 1.157,-2.319 1.743,-3.536 0.475,-0.421 0.419,-1.161 0.527,-1.849 0,-1.478 1.898,-1.478 2.477,-2.746 l 0.319,-1.635 1.213,-1.003 c 0,-2.112 -0.048,-4.276 0.419,-6.286 1.643,-1.636 3.382,-3.113 5.177,-4.432 -0.367,-0.634 -0.734,-1.32 -0.842,-2.116 1.268,-2.164 2.8,-4.382 4.591,-6.334 -1.005,-4.697 0.107,-9.712 1.635,-13.94 0.052,-0.156 0.163,0.057 0.267,-0.048 0.526,1.635 0.949,3.327 1.743,4.803 -0.634,0.373 -1.483,0.475 -1.958,1.163 -0.152,1.53 -0.104,3.113 0,4.645 0.53,-0.054 1.005,-0.315 1.483,-0.634 0.423,-1.372 0.63,-2.8 1.213,-4.117 l 0.159,0.052 c 1.001,2.427 2.27,4.698 3.642,6.916 l -0.104,0.106 -2.588,-0.79 c -0.052,0.684 0.267,1.478 0.267,2.214 -0.056,0.265 -0.371,0.213 -0.583,0.054 l -1.532,-1.318 c -1.268,0.529 -2.537,1.53 -3.326,2.746 0.1,0.367 0.63,0.208 0.686,0.634 -0.475,1.001 -1.161,1.849 -1.536,2.848 0,0.373 0.164,0.688 0.267,1.001 0.052,0.901 0.423,1.637 0.638,2.431 0.475,-1.109 0.682,-2.323 1.053,-3.534 0.315,-0.107 0.634,0.315 0.897,0.527 l 1.528,1.478 c 0.263,-0.634 0.319,-1.375 0.582,-1.956 1.109,0.742 1.955,1.902 2.748,2.906 l 1.636,2.484 c -0.156,0.262 0.052,0.577 0.107,0.842 l 0.156,0.156 c 1.112,-0.156 2.062,-0.684 3.115,-0.949 1.958,1.113 3.749,2.59 5.437,4.12 0.582,0.897 1.424,1.109 2.381,1.003 0.63,0.159 1.368,-0.421 1.688,0.265 l -0.052,0.528 c -2.429,1.055 -4.858,2.164 -7.127,3.642 l -0.056,-0.105 c 0.156,-0.897 0.156,-1.899 0.104,-2.8 -1.476,1.637 -2.952,3.326 -4.22,5.069 -0.793,-0.105 -1.587,-0.265 -2.481,-0.208 -0.159,0.63 0.367,1.21 0.846,1.686 -1.272,2.323 -2.744,4.541 -3.75,6.972 0.052,1.583 0.312,3.221 0.579,4.751 0.315,0.261 0.583,-0.106 0.793,-0.213 3.167,0.319 6.282,0.742 9.186,1.637 L 76.99,88.5 c 1.268,0.373 2.64,0.634 3.857,1.055 0.578,-0.208 0.263,-0.949 0.526,-1.316 5.596,1.951 10.77,4.962 15.947,7.813 0.475,0 0.742,-0.319 1.161,-0.371 0.849,0.211 1.479,0.846 2.325,1.057 l 3.909,-1.741 C 104.5,94.891 104.34,94.678 104.34,94.413 l 0.056,-0.104 c 1.632,-0.686 3.271,-1.32 5.014,-1.795 l 1.32,0.74 c 0.63,-0.16 1.372,-0.265 1.951,-0.528 -0.263,-0.371 -0.894,-0.211 -1.105,-0.74 0.475,-0.319 1.105,-0.421 1.691,-0.528 0.63,0.209 1.053,0.949 1.795,0.897 l 2.374,-0.423 c 2.485,1.163 4.91,2.59 7.339,4.013 0.211,-0.367 -0.052,-1.001 0.263,-1.372 1.95,0.846 3.854,1.902 5.756,2.904 0.104,-0.475 -0.423,-1.001 -0.052,-1.376 1.795,0.849 3.426,1.906 5.121,2.8 0.522,-0.208 0.264,-0.842 0.367,-1.368 l 3.749,-2.959 c -0.738,-1.793 -1.851,-3.434 -3.274,-4.964 v -0.156 c 2.325,0.261 4.547,1.109 6.653,2.004 0.741,-0.634 -0.371,-1.268 -0.579,-1.902 -0.846,-1.316 -2.058,-2.639 -3.274,-3.85 l 0.104,-0.107 c 2.378,0 4.491,0.897 6.653,1.691 0.319,-0.213 0.427,-0.634 0.687,-0.901 -0.842,-1.636 -2.003,-3.167 -3.271,-4.697 -0.052,-0.209 0.268,-0.209 0.423,-0.16 1.269,0.213 2.374,0.848 3.59,1.214 -0.104,-0.367 -0.846,-0.686 -0.634,-1.109 0.793,-0.105 1.479,0.423 2.218,0.634 l 2.273,1.159 c 0.259,0.213 0.207,0.475 0,0.74 0.838,2.959 1.95,6.232 1.001,9.399 -0.794,-1.53 -1.951,-3.167 -3.274,-4.489 0.315,1.163 0.793,2.271 1.108,3.434 0.69,2.323 0.897,5.173 0.156,7.546 -1.265,-1.368 -2.478,-2.952 -4.064,-4.061 l -0.104,0.052 c 0.212,1.532 0.638,3.06 0.371,4.592 -0.689,0.366 -0.634,1.16 -0.479,1.798 0.319,2.001 0.319,4.167 0.212,6.177 1.268,0.526 2.64,0.846 4.064,0.846 l 1.483,-2.166 c 1.579,0.312 3.063,1.105 4.535,1.743 0.427,-0.111 0.953,-0.475 1.057,-0.949 -1.057,-0.905 -2.373,-1.483 -3.59,-2.114 -0.682,-0.318 -1.424,-0.526 -2.113,-0.897 0.371,-0.846 0.849,-1.743 1.479,-2.482 l 2.218,0.896 c 0.901,-0.74 1.531,-1.793 2.429,-2.583 1.958,0.683 3.857,1.636 5.704,2.635 0.318,-0.052 0.318,-0.415 0.53,-0.631 -1.747,-1.162 -3.646,-2.004 -5.492,-2.905 0.683,-0.897 1.476,-1.847 2.27,-2.64 3.905,0.53 7.547,2.062 11.088,3.593 1.369,-0.794 2.478,-2.11 3.643,-3.171 0.475,-0.949 2.903,-1.847 1.32,-3.007 0,-0.211 -0.476,-0.319 -0.208,-0.581 4.061,-4.595 6.965,-9.714 8.655,-15.311 -0.267,-0.742 -0.371,-1.532 -0.793,-2.218 0,-0.267 0.314,-0.107 0.422,-0.267 l 0.371,-0.683 c -1.216,-3.642 -3.011,-7.076 -5.28,-10.298 l -0.216,-0.104 c -2.373,0.104 -4.802,0.104 -7.12,0.315 l -0.267,-0.262 c -1.265,-2.692 -2.692,-5.336 -4.384,-7.815 -0.526,0.159 -1.053,0.58 -1.584,0.421 l -2.325,-3.907 c 0.319,-0.369 0.85,-0.528 1.269,-0.738 l -0.052,-0.265 -3.909,-5.754 c -5.169,-2.429 -10.77,-4.013 -16.84,-4.332 -0.107,0.371 -0.687,0.899 -0.107,1.165 4.224,1.057 8.129,2.902 11.407,6.123 0.052,0.106 0,0.16 -0.111,0.211 -4.324,-1.689 -9.397,-2.164 -14.411,-1.689 0.104,0.949 0.741,1.796 0.794,2.692 -2.641,0.213 -5.333,0.369 -7.814,1.003 -1.851,0.421 -3.586,1.109 -5.277,1.849 -0.426,-0.58 -0.846,-1.322 -0.741,-2.164 0,-0.213 -0.212,-0.108 -0.315,-0.054 -1.112,0.844 -2.429,1.215 -3.697,1.638 l -0.156,-0.054 c -0.371,-1.003 -0.901,-1.902 -1.113,-3.011 1.536,-0.79 2.96,-1.686 4.332,-2.902 0.314,0.054 0.263,0.475 0.582,0.583 2.533,-0.794 5.065,-1.638 7.81,-1.691 0.475,0.529 0.842,1.163 1.376,1.638 l 0.687,-0.74 2.585,-0.528 c -0.423,-1.424 -1.005,-2.902 -1.58,-4.381 0.894,-0.583 1.898,-1.109 2.692,-1.953 -2.218,0.261 -4.754,0.736 -7.343,0.421 -0.949,-0.052 -2.003,-0.208 -2.796,-0.686 1.268,-1.057 2.744,-2.166 3.693,-3.642 l -0.104,-0.054 c -3.063,1.003 -6.391,1.902 -9.873,1.478 -0.159,-0.05 -0.107,-0.315 -0.052,-0.423 1.743,-0.949 3.478,-2.479 4.695,-4.116 l -0.052,-0.056 c -2.059,0.74 -4.384,0.899 -6.653,1.164 l -3.007,3.167 c 3.586,2.427 7.602,4.17 12.038,4.75 l 1.636,1.953 c -0.526,0.478 -1.372,0.424 -2.11,0.532 -1.636,0 -3.274,-0.107 -4.751,-0.532 0,-0.417 0.104,-1.052 0.104,-1.583 l -0.056,-0.106 -0.212,0.211 c -1.372,3.062 -4.379,5.757 -7.81,5.757 -0.319,-0.793 -0.638,-1.587 -0.949,-2.431 -1.216,0.369 -2.381,0.949 -3.538,1.428 -1.639,-1.001 -2.537,-2.798 -3.33,-4.328 -0.259,0.736 -0.104,1.583 -0.156,2.374 -1.958,1.269 -4.064,2.058 -6.178,3.011 l -0.423,4.958 c -0.156,0.16 -0.319,0 -0.423,-0.156 -1.587,-2.429 -3.642,-4.595 -5.385,-7.02 l 0.052,-0.108 c 1.583,0.108 3.167,0.16 4.702,0 l 0.104,0.369 c 4.754,-2.533 9.234,-5.965 13.41,-9.926 l -0.526,-0.634 c 1.053,-1.265 2.477,-2.218 3.534,-3.536 1.743,-1.845 3.223,-3.855 4.595,-5.913 v -0.319 c -0.475,-0.79 -0.953,-1.636 -1.583,-2.425 -3.111,3.853 -6.968,7.603 -10.77,10.981 0.156,0.843 0.634,1.531 0.949,2.271 l -0.315,0.369 c -4.595,3.534 -9.293,6.6 -14.471,8.711 -2.9,-3.38 -6.015,-6.494 -9.449,-9.345 l 0.211,-0.16 2.8,-1.216 c 1.691,0.901 3.115,2.696 4.65,3.855 -0.793,-1.53 -1.958,-3.062 -3.278,-4.382 l 1.955,-0.844 c 2.218,1.743 3.642,4.066 5.173,6.232 -0.319,0.634 -1.372,0.736 -1.372,1.476 l 0.682,0.475 c 3.961,-2.27 7.87,-4.803 11.459,-7.97 -0.104,-0.267 -0.263,-0.688 -0.583,-0.688 -1.531,1.109 -3.007,2.271 -4.646,3.113 l -0.312,-0.105 -3.594,1.849 c -0.53,-0.315 -1.005,-0.842 -1.424,-1.424 0.894,-0.371 1.739,-0.845 2.585,-1.428 0.215,-0.634 -1.424,-1.424 -0.048,-1.845 4.854,-3.171 9.394,-7.287 13.618,-11.723 0.211,0 0.107,0.213 0.107,0.265 l 1.372,1.532 c 0.846,-0.529 1.587,-1.269 2.218,-2.112 -0.319,-0.74 -1.213,-1.268 -1.688,-1.956 1.057,-1.161 2.006,-2.483 3.111,-3.534 0.056,0.682 0.264,1.424 0.423,2.058 5.812,-1.163 11.671,0.211 16.422,2.9 l 0.104,-0.102 0.211,-2.271 c 0.319,-0.265 0.794,-0.052 1.161,0.054 2.804,1.159 5.281,3.38 7.446,5.753 0.846,0 1.425,-0.528 2.166,-0.843 -1.691,-2.798 -4.539,-5.86 -7.706,-6.918 l -0.53,0.634 c -2.11,-1.213 -4.276,-2.218 -6.709,-2.692 -0.052,0.159 0,0.475 -0.26,0.371 -4.176,-1.32 -9.56,-1.374 -13.781,-0.159 -0.159,-0.16 -0.159,-0.581 -0.534,-0.527 l -3.85,2.585 -1.476,-1.001 -0.215,-1.851 2.114,-1.635 c 0,-0.636 0.052,-1.265 0,-1.899 h -0.107 l -0.048,1.792 -2.062,1.587 c -0.423,0.054 -0.215,0.583 -0.582,0.738 -3.275,2.377 -6.442,4.91 -9.82,6.972 l -0.156,-0.478 c -4.224,3.117 -8.556,6.022 -12.887,8.817 -0.363,1.481 -0.363,3.062 -0.786,4.489 L 89.72,34.543 c -1.165,-1.163 -2.166,-2.323 -3.223,-3.54 -2.696,1.535 -5.277,3.486 -7.654,5.652 -0.211,-0.742 -0.056,-1.637 0,-2.481 0.052,-1.005 0.315,-1.955 0.634,-2.852 1.951,-0.79 3.801,-1.689 5.645,-2.692 l 0.056,-1.161 c 4.068,-2.325 8.185,-4.595 12.038,-7.395 -0.211,-0.156 -0.475,-0.367 -0.842,-0.367 0,0.266 -0.107,0.475 -0.371,0.475 -7.606,0.953 -15.208,1.954 -22.069,4.7 -0.793,1.211 -1.057,2.587 -1.376,4.011 -0.682,3.646 -0.367,7.814 0.479,11.3 -0.107,0.104 -0.319,0.054 -0.427,-0.052 -1.212,-1.478 -2.162,-3.171 -2.956,-4.858 -0.263,4.011 0.53,7.917 1.743,11.457 0.159,0.475 0.526,0.95 0.426,1.374 -0.163,0.156 -0.426,0.104 -0.582,-0.056 -1.799,-2.427 -3.434,-5.018 -4.335,-7.812 0.319,-0.265 1.165,-0.265 0.957,-0.794 -3.011,-4.066 -2.537,-10.4 -0.897,-14.939 l 0.208,-0.16 c 2.01,0.107 3.857,0.688 5.919,0.423 0.048,0.105 -0.163,0.315 0.1,0.367 0.475,-0.208 0.742,-0.683 1.324,-0.79 1.001,-3.273 3.06,-6.23 5.912,-8.661 4.328,0.793 9.026,0.847 13.41,1.163 2.485,0.526 5.333,0.159 7.814,0.211 0.686,-0.106 1.005,0.582 1.269,1.003 4.965,-3.113 9.92,-6.388 14.73,-9.924 0.367,-0.056 0.367,0.315 0.423,0.525 l 0.682,2.323 0.319,0.107 c -0.108,0.106 0,0.262 -0.052,0.367 l 0.686,-0.421 c 4.858,0.16 9.397,-0.581 13.889,-1.322 0.419,0.373 0.367,1.007 0.574,1.482 1.64,0.736 3.438,1.057 5.126,1.583 l 0.367,0.528 c 2.325,0.899 4.646,1.849 7.235,2.164 0.578,0.634 1.476,0.742 2.165,1.268 1.899,1.213 3.486,3.221 4.747,4.906 1.112,0.267 2.173,1.061 2.7,2.062 0.949,1.532 1.898,3.008 2.321,4.699 0.631,0.052 1.105,-0.475 1.688,-0.582 1.851,-0.634 4.068,-0.581 5.967,-0.156 0.634,0.475 -0.208,1.109 -0.104,1.691 3.063,-0.107 5.911,0.896 8.396,2.425 1.739,-0.156 3.482,-0.052 5.066,0.319 1.958,1.847 3.96,3.855 5.859,5.7 3.594,12.146 13.413,21.752 22.439,31.47 l 1.376,1.318 c 0,0.74 -0.582,1.319 -1.001,1.849 -0.905,1.531 -2.647,0.369 -3.961,0.475 -1.69,-0.211 -3.278,-0.74 -4.857,-1.109 l -0.053,0.054 c 1.425,2.852 2.745,5.754 3.694,8.817 -0.107,0.423 -0.583,0.684 -0.846,1.057 l 3.642,5.437 1.64,2.902 -0.371,1.534 4.491,8.66 1.791,4.114 -0.104,0.215 -0.422,0.156 -0.108,0.052 3.275,7.283 1.061,2.804 -0.111,0.156 -0.683,0.318 -0.638,-0.052 3.33,7.811 1.261,3.434 -0.1,0.208 -0.794,0.586 -0.104,0.104 2.214,4.436 2.484,5.963 -0.215,0.586 2.536,6.067 3.223,9.346 4.751,15.738 1.847,8.077 0.638,3.59 4.272,2.322 0.212,0.155 0.052,0.215 -0.527,0.69 -0.211,0.104 -2.8,-1.112 -2.266,-0.949 -2.801,-1.002 -5.544,-2.321 -1.108,-0.319 -0.582,0.268 -0.26,0.371 -4.068,2.692 -9.35,6.86 -0.207,-0.052 -5.971,-6.497 0.163,-0.579 0.104,-0.318 v -0.104 l -4.591,-1.372 -11.192,-3.063 -12.249,-2.64 -7.235,-1.269 -7.18,-0.846 -3.327,-0.155 -0.159,-0.216 0.953,-2.055 -0.056,-0.318 -1.269,-0.526 -2.321,-0.897 -1.902,-0.639 -0.79,-0.363 -0.26,-0.37 -12.097,-3.643 -9.502,-2.536 -2.852,-0.638 -0.315,0.267 h -0.267 l -0.159,-0.215 -1.157,0.318 -8.188,2.7 -4.436,1.476 -9.82,0.476 -17.579,0.267 -1.583,-0.111 -0.16,-0.208 0.108,-0.267 1.053,-1.483 -0.052,-0.097 -8.767,-0.957 -1.32,-0.37 -10.502,4.124 -5.756,2.477 -1.161,-0.734 -2.325,-1.898 -0.742,-0.741 -4.064,0.578 -7.499,1.32 -6.917,1.587 -7.97,2.166 -7.499,2.373 -0.319,0.053 -0.16,-0.053 -0.1,-0.267 -0.107,-5.333 -0.107,-0.423 -2.478,0.215 -4.543,0.734 -3.542,0.846 -2.374,3.278 -0.156,0.104 -0.267,-0.053 -0.263,-0.37 1.109,-3.643 1.795,-4.702 2.062,-4.271 2.114,-3.857 3.59,-5.651 4.013,-5.281 1.263,-1.583 z"
       id="path3309"
       style="fill:#cdb87c" /><path
       d="m 49.324,77.837 c 1.216,-1.743 2.64,-3.327 4.12,-4.91 -0.211,-0.897 -0.53,-1.851 -0.53,-2.852 1.112,0.315 2.218,1.109 3.06,2.062 -0.204,0.577 -1.105,0.842 -0.842,1.53 1.005,0.949 1.847,2.004 2.484,3.113 0.686,3.008 1.795,5.859 3.427,8.5 -1.424,0.528 -2.796,1.003 -4.064,1.902 -0.104,0.265 0.107,0.528 0.107,0.793 -0.319,0.583 -1.851,0.736 -1.112,1.634 l -1.532,1.587 c 0,0.736 0.107,1.637 1.009,1.686 0.523,0 0.634,0.478 0.734,0.847 v 0.106 c -0.734,0.104 -1.424,-0.211 -2.11,-0.475 l -2.218,-0.793 c -0.263,-1.37 -1.583,-2.798 -0.582,-4.17 -0.208,-0.58 -0.156,-1.32 -0.475,-1.849 -0.475,0 -0.156,0.634 -0.527,0.688 -0.734,-2.96 -1.157,-6.073 -0.949,-9.399"
       id="path3311"
       style="fill:#1b3561" /><path
       d="m 56.607,62.155 c 0.423,0.844 0.534,1.902 1.113,2.692 l 0.156,-0.054 c 0.586,-1.211 1.268,-2.425 2.114,-3.534 0.793,1.161 1.639,2.479 2.796,3.482 0.267,0.052 0.211,-0.264 0.211,-0.369 0.211,-1.743 0.53,-3.38 1.057,-4.964 1.691,0.475 3.271,1.478 4.858,2.166 1.743,1.001 3.486,1.955 5.014,3.273 -0.842,1.37 -1.898,2.746 -2.848,4.174 L 69.443,71.5 c -0.53,-0.054 -0.742,-0.74 -1.005,-1.214 0,-0.369 -0.475,-0.684 -0.211,-1.109 0.475,-0.156 1.109,-0.054 1.531,-0.107 -0.315,-1.001 -0.897,-1.951 -1.531,-2.794 -2.162,0.79 -4.172,2.587 -5.544,4.485 0.949,0.686 1.691,1.849 2.377,2.798 0.738,0.159 1.479,0 2.214,0 -1.372,2.431 -2.692,4.858 -3.798,7.341 0.208,0.156 0,0.369 0.052,0.528 -2.429,-3.17 -3.115,-7.181 -3.538,-11.298 -0.371,-0.213 -0.846,-0.054 -1.216,0 l -0.104,0.102 c 0.211,1.902 0.423,3.699 0.63,5.544 -0.419,0.107 -0.052,-0.527 -0.208,-0.74 -2.218,-2.64 -3.59,-5.753 -4.695,-8.921 0.468,-1.427 1.317,-2.745 2.21,-3.96"
       id="path3313"
       style="fill:#1b3561" /><path
       d="m 59.886,89.4 c 0.475,0.052 0.787,0.686 1.161,0.953 l 1.001,-1.957 c 0.53,0.369 0.686,1.109 1.109,1.584 l 0.16,-0.054 1.161,-1.898 c 0.53,0.579 0.897,1.424 1.372,2.058 h 0.163 c 0.419,-0.581 0.683,-1.32 1.157,-1.955 l 1.535,2.429 h 0.264 c 0.419,-0.475 0.575,-1.161 1.005,-1.635 0.519,0.634 0.894,1.53 1.424,2.164 0.52,-0.475 0.846,-1.268 1.269,-1.849 l 1.632,2.377 c 0.111,0.105 0.371,0.105 0.423,-0.108 l 1.105,-1.951 c 0.586,0.631 0.957,1.476 1.535,2.11 0.475,-0.265 0.846,0.054 1.001,0.475 l 0.215,1.057 c -0.689,0.261 -1.431,0.367 -2.166,0.367 l -0.634,1.797 C 75.411,95.204 75.092,94.681 74.877,94.309 74.51,93.94 74.35,93.146 73.72,93.146 l -0.793,1.322 C 72.452,93.94 72.03,93.305 71.607,92.672 h -0.104 l -0.897,1.637 C 70.131,94.1 69.76,93.412 69.338,92.937 c 0,-0.106 -0.104,-0.265 -0.211,-0.319 -0.475,0.529 -0.53,1.217 -0.894,1.743 L 66.854,92.672 H 66.646 L 65.96,93.99 c -0.427,-0.423 -0.742,-1.109 -1.269,-1.478 -0.475,0.369 -0.475,1.055 -0.79,1.535 -0.426,-0.267 -0.689,-0.688 -1.001,-1.11 -0.957,0.949 0.682,1.687 0.949,2.586 0.419,0.154 1.053,-0.213 1.316,0.262 0.052,4.327 0.16,8.872 1.48,12.833 -0.052,0.104 -0.052,0.208 -0.211,0.208 -0.16,0.052 -0.367,-0.423 -0.475,-0.104 -0.056,0.104 0.055,0.156 0,0.208 -0.634,-0.734 -1.324,-1.528 -1.903,-2.27 -0.156,-0.363 -0.423,-0.683 -0.79,-0.897 l 0.263,0.638 -0.056,0.052 c -3.167,-3.906 -4.484,-8.661 -5.437,-13.515 0.426,-1.269 1.268,-2.324 1.85,-3.538"
       id="path3315"
       style="fill:#ffffff" /><path
       d="m 63.42,82.747 1.108,0.634 0.319,1.424 -0.742,1.001 C 63.738,85.914 63.367,85.545 63,85.331 62.837,84.754 62.625,84.174 62.577,83.54 l 0.843,-0.793 z"
       id="path3317"
       style="fill:#1b3561" /><polygon
       points="63.739,106.824 63.739,106.713 63.951,106.98 "
       id="polygon3319"
       style="fill:#ffffff" /><path
       d="m 77.783,45.419 0.052,-0.16 -0.742,-1.899 c 2.589,-1.003 5.125,-2.116 7.554,-3.432 2.637,1.902 5.226,3.907 7.603,6.23 v 0.156 l -5.759,2.431 c -0.259,0 -0.208,-0.319 -0.312,-0.528 -1.112,-1.001 -2.114,-1.954 -3.33,-2.744 -0.527,0.211 -1.001,0.526 -1.476,0.896 0.63,0.688 1.32,1.109 1.951,1.689 v 0.16 c -0.838,0.634 -1.795,0.897 -2.692,1.424 0.267,0.422 0.846,0.634 1.216,0.953 v 0.156 l -6.757,2.692 c -0.163,0 -0.475,0.108 -0.526,-0.156 -0.111,-0.793 -0.371,-1.428 -0.215,-2.221 1.32,-0.896 2.692,-1.739 4.013,-2.794 l -0.371,0.05 c -1.157,0.686 -2.425,1.214 -3.746,1.689 -0.422,-0.05 -0.319,-0.63 -0.422,-1.003 0.052,-0.527 -0.156,-0.95 -0.208,-1.424 l 4.167,-2.165 z"
       id="path3321"
       style="fill:#cdb87c" /><path
       d="m 76.567,53.232 c 2.273,-0.369 4.539,-0.74 6.705,-1.428 3.538,1.902 6.92,4.33 9.924,7.182 l 1.009,-0.79 c -2.322,-2.692 -5.177,-4.75 -7.921,-6.653 0.052,-0.209 0.052,-0.583 0.371,-0.634 3.59,-1.109 7.072,-2.427 10.399,-4.224 h 0.159 c 1.161,1.269 2.377,2.377 3.275,3.696 -0.793,1.163 -2.166,2.112 -3.275,3.011 3.275,3.536 6.234,7.337 8.504,11.298 l -0.371,1.001 h -0.156 c -0.957,-1.001 -1.798,-2.058 -2.907,-2.852 -0.104,0 -0.267,0.108 -0.215,0.267 2.01,2.271 3.909,4.697 5.44,7.178 8.871,-1.159 18.583,-0.63 26.928,1.272 0.052,0.631 -0.104,1.265 -0.212,1.899 -2.214,-0.267 -4.49,-0.634 -6.809,-0.688 -0.107,0.475 0,1.109 0,1.583 -0.374,0.213 -0.897,0 -1.269,0.054 -4.539,-0.156 -8.974,0.16 -13.198,0.95 -0.267,0.688 -0.156,1.481 -0.211,2.221 -3.853,1.211 -7.603,2.587 -11.144,4.538 -2.106,-4.222 -4.487,-8.502 -8.129,-12.144 -0.312,-0.108 -0.579,0.211 -0.846,0.265 l 0.052,0.369 c 1.008,1.424 1.958,2.906 2.692,4.382 -0.104,0.213 -0.367,0.582 -0.687,0.475 -0.419,-0.736 -1.105,-1.476 -1.739,-2.11 -0.319,0 -0.578,0.211 -0.845,0.371 1.847,3.696 3.223,7.547 4.228,11.56 -1.799,1.216 -3.597,2.537 -5.285,4.12 -2.006,-1.32 -4.172,-2.377 -6.334,-3.432 -0.056,-0.262 0.367,-0.315 0.582,-0.475 1.476,-0.529 2.956,-1.055 4.436,-1.743 -2.8,-1.583 -5.759,-2.798 -8.715,-3.961 l -0.104,-0.209 c 2.429,-1.055 4.962,-2.004 7.443,-3.011 l -0.104,-0.159 c -2.006,-1.157 -4.068,-2.214 -6.23,-3.114 v -0.209 l 4.009,-1.956 c 0.793,-0.475 -0.156,-1.161 -0.26,-1.795 l -0.793,-1.318 0.63,-0.684 c -3.004,-4.28 -7.335,-7.712 -11.823,-9.77 0.741,-1.534 1.847,-2.908 2.796,-4.333"
       id="path3323"
       style="fill:#cdb87c" /><path
       d="m 76.782,122.712 c 2.9,3.701 6.705,7.023 10.558,9.612 -0.582,1.216 -1.479,2.425 -1.902,3.693 -0.734,0.156 -1.372,0.638 -2.166,0.846 -0.683,0.052 -1.795,0.846 -2.27,-0.208 -2.588,-4.124 -4.276,-8.715 -4.22,-13.943"
       id="path3325"
       style="fill:#ffffff" /><path
       d="m 80.527,139.504 0.95,0.215 1.009,-0.526 c 0.894,0.949 1.787,1.839 2.581,2.789 1.324,0 2.537,-0.364 3.753,-0.52 l 0.419,0.52 c 2.904,0.904 6.39,0.853 9.346,0.163 0.056,-0.053 0.107,-0.268 0.211,-0.163 0.163,0.267 0.319,0.689 0.582,0.853 3.115,-0.897 6.175,-2.062 8.552,-4.547 -0.16,-0.475 -0.894,-0.312 -1.213,-0.786 0.738,-0.957 1.532,-1.95 2.322,-2.804 0.371,0.06 0.526,0.475 0.846,0.638 l 1.743,-2.536 c -0.163,-0.26 -0.582,-0.319 -0.845,-0.638 l 2.588,-4.221 c 0.367,0.052 0.63,0.371 0.842,0.579 0.479,-0.891 1.269,-1.743 1.587,-2.745 -0.267,-0.207 -0.686,-0.267 -1.005,-0.475 1.161,-1.95 2.062,-3.96 3.115,-5.963 0.423,-0.052 0.897,0.897 1.165,0.052 l 1.053,-2.321 c -0.211,-0.163 -0.579,-0.319 -0.897,-0.423 0.579,-1.587 1.372,-3.167 2.01,-4.755 0.419,0.104 0.63,0.631 0.845,0.69 2.003,-4.332 3.69,-8.768 5.325,-13.201 1.795,0.579 3.435,1.631 5.073,2.749 0.208,-0.108 0.475,-0.108 0.527,-0.375 -0.163,-0.687 0,-1.269 -0.163,-1.951 2.433,1.424 4.49,3.329 6.601,5.331 0.482,-0.37 0.949,-0.741 1.64,-0.689 0.37,0.111 0.423,0.586 0.793,0.689 0.742,0.216 0.794,-0.741 1.528,-0.526 l 0.475,0.052 c 2.218,3.435 3.382,7.336 4.068,11.349 -1.109,-1.105 -2.162,-2.529 -3.119,-3.901 l -1.105,0.63 -12.724,8.5 c -0.159,0.052 -0.367,-0.052 -0.419,-0.26 l 0.312,-0.163 c 0.526,-0.846 1.001,-1.69 1.531,-2.588 0.108,0.111 0.367,0.163 0.42,0 1.112,-3.115 1.854,-6.387 1.905,-9.925 l -0.526,-0.475 c -0.638,1.217 -1.061,2.589 -1.69,3.806 -1.691,3.479 -3.857,6.705 -6.387,9.761 0,0.318 0.312,0.318 0.526,0.475 -0.638,2.692 -1.531,5.333 -2.907,7.766 -0.367,0.949 -1.58,1.795 -1.161,2.907 l 2.325,3.056 c -0.319,0.052 -0.475,0.475 -0.845,0.268 -0.846,-0.742 -1.48,-1.743 -2.218,-2.434 l -0.211,0.216 c -0.211,2.899 -0.849,5.6 -1.743,8.181 -7.02,5.541 -14.678,9.664 -23.601,10.777 -1.264,0.155 -2.64,0.155 -3.909,0 L 80.106,140.144 c -10e-4,-0.269 0.214,-0.537 0.421,-0.64"
       id="path3327"
       style="fill:#1b3561" /><path
       d="m 83.116,92.407 c 2.477,-0.105 4.858,0.373 6.386,2.271 -0.63,5.228 -0.578,11.033 0.319,16.099 -0.897,-0.63 -1.795,-1.632 -2.585,-2.478 -0.794,-0.949 -1.48,-2.002 -2.222,-3.011 -0.104,0 -0.259,0.163 -0.259,0.267 0.104,-0.215 0.104,-0.475 -0.056,-0.741 -2.006,-3.48 -3.275,-7.334 -3.801,-11.404 0.579,-0.736 1.424,-0.841 2.218,-1.003"
       id="path3329"
       style="fill:#ffffff" /><path
       d="m 84.54,105.875 0.742,2.27 c -1.165,3.219 -1.695,7.966 0.683,10.821 0.267,0.156 0.319,-0.163 0.371,-0.371 0.267,-1.476 1.161,-2.899 2.273,-3.849 0.63,-0.371 1.057,0.312 1.635,0.312 3.375,0.422 5.648,-2.271 8.923,-2.322 1.847,-0.155 3.642,0.104 5.066,1.217 0.53,-1.165 0.586,-2.589 0.742,-3.909 0.163,-1.847 0.163,-3.96 -0.156,-5.755 0.363,-0.787 1.161,-1.373 2.002,-1.373 1.109,2.011 1.532,4.332 1.743,6.758 l -0.104,0.845 -8.077,13.307 c 0.527,1.476 1.269,2.848 2.006,4.228 l 0.523,0.949 -0.312,-0.111 c -3.909,-4.064 -7.239,-8.5 -9.189,-13.514 -0.156,-0.267 -0.319,0.052 -0.527,0.052 -1.268,1.535 -1.483,3.538 -2.114,5.385 -0.738,3.642 -0.583,7.603 0.267,11.089 -0.319,0 -0.056,-0.423 -0.319,-0.579 -0.687,-1.053 -1.105,-2.217 -1.58,-3.382 -0.163,-0.267 -0.375,-0.318 -0.638,-0.423 -1.053,-0.683 -2.218,-1.216 -3.063,-2.158 -1.528,-2.804 -2.588,-5.814 -3.59,-8.818 0.209,-3.86 1.058,-7.398 2.693,-10.669"
       id="path3331"
       style="fill:#1b3561" /><path
       d="m 92.988,120.071 c 0.267,0.06 0.475,0.318 0.526,0.534 1.743,4.435 5.333,8.552 9.19,11.399 0.156,0 0.263,-0.207 0.419,-0.104 0,1.483 -0.949,2.692 -2.162,3.59 -1.688,1.164 -4.328,1.639 -6.282,0.526 0.052,-0.208 0.367,-0.155 0.475,-0.371 -2.114,-4.589 -3.275,-10.182 -2.166,-15.574"
       id="path3333"
       style="fill:#ffffff" /><path
       d="m 106.45,99.591 c 0.111,0.211 0.371,0.894 -0.104,0.949 -0.682,0.159 -1.372,0.212 -1.902,0.738 -0.1,-0.264 -0.315,-0.687 0.056,-0.897 0.637,-0.316 1.212,-0.738 1.95,-0.79"
       id="path3335"
       style="fill:#1b3561" /><path
       d="m 106.083,49.114 c 1.216,0.425 2.533,0.475 3.749,0.896 0.371,0.265 -0.052,0.425 -0.159,0.584 l -4.064,3.062 -0.16,-0.213 0.315,-4.116 0.319,-0.213 z"
       id="path3337"
       style="fill:#cdb87c" /><path
       d="m 109.884,118.647 c 0.422,-0.156 0.526,0.37 0.897,0.267 0.897,-1.372 1.691,-2.849 2.27,-4.332 0.579,-0.155 0.949,0.371 1.428,0.527 2.006,-3.538 3.749,-7.231 5.492,-10.821 0.312,-0.053 0.897,-0.156 0.842,0.318 -2.956,8.396 -6.286,16.629 -11.144,24.231 -0.419,-0.155 -0.894,-0.526 -1.161,-0.897 0.479,-0.949 1.061,-1.898 1.643,-2.907 0.104,0 0.259,-0.208 0.311,-0.312 l -0.052,-0.104 -0.104,0.155 c -0.052,-0.423 0.579,-0.371 0.367,-0.794 l 1.48,-2.744 c 0.208,-0.052 0.423,0.215 0.582,0.371 0.79,-0.897 1.161,-2.01 1.688,-3.063 -0.312,-0.26 -0.527,-0.683 -1.001,-0.638 l -0.267,0.163 c -0.363,0.794 -0.793,1.64 -1.368,2.374 -0.475,-0.104 -0.738,-0.683 -1.213,-0.631 -0.849,1.691 -1.743,3.434 -2.804,5.065 -0.363,-0.104 -0.738,-0.423 -1.053,-0.682 l 3.167,-5.546 z"
       id="path3339"
       style="fill:#1b3561" /><path
       d="m 111.627,48.797 c 1.899,1.956 4.168,2.958 6.809,3.065 l 0.159,2.954 c -3.274,-0.105 -6.916,-1.637 -8.133,-5.012 0.212,-0.478 0.794,-0.692 1.165,-1.007"
       id="path3341"
       style="fill:#cdb87c" /><path
       d="m 112.154,103.969 c 1.424,1.061 2.956,1.854 4.699,2.062 -0.419,1.848 -1.636,3.486 -2.904,4.962 -0.371,0.371 -0.95,0.423 -1.372,0.26 -1.161,-2.056 -1.054,-4.955 -0.423,-7.284"
       id="path3343"
       style="fill:#ffffff" /><path
       d="m 117.486,97.533 c 1.636,0.63 3.434,1.372 5.385,0.949 -0.897,1.899 -2.425,3.538 -4.012,5.124 l -0.319,-0.06 c -0.786,-1.793 -1.157,-3.795 -1.157,-5.961 l 0.103,-0.052 z"
       id="path3345"
       style="fill:#ffffff" /><path
       d="m 127.358,22.396 c 4.12,-0.844 8.185,0.319 11.615,2.008 0.375,0.79 0.742,1.583 1.009,2.322 l -3.49,-0.263 c -2.903,-1.53 -5.907,-2.745 -9.394,-2.954 l 0.26,-1.113 z"
       id="path3347"
       style="fill:#1b3561" /><path
       d="m 145.522,27.52 c -0.422,0.213 -0.897,0.423 -1.428,0.423 0.479,-0.156 0.954,-0.37 1.428,-0.423"
       id="path3349"
       style="fill:#1b3561" /><path
       d="m 150.433,51.172 c 1.848,1.637 3.909,3.221 5.545,4.964 -0.107,0.262 -0.583,0.421 -0.479,0.688 3.538,1.845 6.868,4.222 10.087,6.759 h 0.319 c 3.849,4.222 6.649,8.867 8.552,13.938 0,0.105 0.104,0.367 -0.104,0.367 0.794,5.385 0.475,11.404 -1.587,16.106 -0.104,0.106 -0.211,0.106 -0.312,0.106 -0.215,-3.54 -0.957,-6.867 -2.065,-10.085 -0.683,-0.213 -1.477,-0.054 -2.214,0 0.104,0.686 0.423,1.37 0.578,2.058 -1.372,0.16 -2.692,0.265 -3.905,0.846 -1.851,-7.393 -4.91,-14.31 -8.923,-20.803 0.315,-0.213 0.738,-0.213 1.109,-0.265 3.642,3.751 6.653,7.976 8.818,12.461 0.312,0.105 0.786,0.159 1.105,0.052 -3.749,-10.558 -12.668,-19.903 -22.069,-26.768 1.692,-0.685 3.698,-0.739 5.545,-0.424"
       id="path3351"
       style="fill:#cdb87c" /><path
       d="m 150.329,28.417 c 3.167,-0.315 5.808,1.476 7.603,4.013 0.052,0.107 0.267,0.107 0.211,0.263 l -0.211,0.052 c -2.325,-0.95 -4.754,-1.743 -7.184,-2.426 -1.265,-1.003 -2.11,-2.484 -3.326,-3.593 1.376,-0.949 1.958,1.061 2.907,1.691"
       id="path3353"
       style="fill:#1b3561" /><path
       d="m 148.69,125.248 c 2.907,-1.847 5.703,-4.013 8.24,-6.549 0.526,0.689 0.734,1.639 1.104,2.433 -2.321,2.796 -4.962,5.281 -7.813,7.388 -0.634,-0.95 -1.005,-2.106 -1.531,-3.168 v -0.104 z"
       id="path3355"
       style="fill:#cdb87c" /><path
       d="m 152.914,39.398 c 3.326,0.423 6.39,1.745 9.394,3.065 l 0.111,-0.052 -0.578,-3.962 c -0.427,-0.265 -1.058,-0.211 -1.477,-0.634 -0.586,-0.896 0.045,-2.639 -1.432,-2.852 -0.155,-0.475 -0.315,-0.949 -0.315,-1.476 2.641,-1.109 6.282,-1.109 9.03,-0.213 0.208,0.475 -0.11,1.322 0.527,1.481 5.651,-0.107 10.347,2.533 14.359,6.28 0.318,1.269 0.741,2.481 1.057,3.696 l -0.264,-0.054 c -4.91,-3.748 -10.031,-7.284 -16.317,-7.549 -0.526,0.105 -1.104,-0.054 -1.527,0.265 l 1.268,3.221 c 6.49,1.424 12.405,5.279 16.896,10.823 1.161,1.53 1.95,3.221 2.373,5.07 0.423,0.102 0.794,-0.848 1.32,-0.373 4.592,5.283 10.243,8.925 16.259,11.248 0.475,0.475 1.168,0.95 1.375,1.583 -0.793,0.108 0.16,0.742 -0.419,1.109 C 197,68.279 190.299,64.478 184.12,59.46 l -0.53,0.054 -5.285,2.483 c -0.786,-0.74 -1.476,-1.849 -2.21,-2.692 -1.376,-0.793 -2.8,-1.639 -4.176,-2.537 l -0.423,0.054 -1.32,-2.271 0.371,-0.421 c -1.743,-3.221 -3.693,-6.388 -5.859,-9.453 -0.631,-0.048 -1.157,0.634 -1.795,0.742 l -0.267,-1.265 -0.95,-0.638 c -2.848,-1.265 -5.703,-2.586 -8.814,-3.376 -0.107,-0.214 0.052,-0.475 0.052,-0.742"
       id="path3357"
       style="fill:#1b3561" /><path
       d="m 181.955,139.029 c 3.746,0.475 7.287,1.372 10.874,2.165 0.163,0.527 0.107,1.157 0,1.691 -4.229,0 -8.337,0.26 -12.306,0.897 -0.312,-1.216 -0.475,-2.484 -0.949,-3.649 l 2.381,-1.104 z"
       id="path3359"
       style="fill:#cdb87c" /><path
       d="m 186.494,134.86 c 3.698,0.527 7.34,1.372 10.981,2.218 0.846,-0.215 1.799,-0.215 2.637,-0.526 -0.101,-0.319 -0.312,-0.689 -0.045,-1.009 l 3.056,-1.743 c 0.164,-1.527 0.056,-3.271 0,-4.851 l 1.644,-0.534 c 0,-0.63 -0.319,-1.269 -0.375,-1.95 0.212,-0.111 0.53,-0.052 0.742,0 -1.061,-4.644 -2.485,-9.242 -4.172,-13.625 l 0.107,-0.156 2.64,0.268 c 1.688,3.479 3.063,7.18 4.324,10.873 -0.104,0.267 -0.578,0.052 -0.734,0.371 l 3.271,7.654 c -0.371,0.475 -1.372,0.741 -1.054,1.476 1.265,2.433 2.322,4.91 3.427,7.395 -0.475,0.527 -1.157,0.95 -1.743,1.477 l -0.419,-0.156 c -1.479,-1.164 -2.955,-2.27 -4.535,-3.33 -1.958,0.423 -3.701,1.217 -5.548,1.795 -4.013,-1.105 -8.081,-1.95 -12.249,-2.685 l -2.007,-2.804 0.052,-0.158 z"
       id="path3361"
       style="fill:#cdb87c" /><path
       d="m 190.3,68.228 c 1.579,1.001 3.167,2.11 4.591,3.327 -0.156,0.367 -0.586,-0.213 -0.742,0.208 0.794,1.749 1.64,3.488 2.374,5.283 -0.312,0.107 -0.838,0.054 -1.157,0 V 76.57 l -1.847,-3.642 c -1.424,-1.322 -2.96,-2.643 -4.487,-3.805 0.263,-0.369 0.793,-0.684 1.268,-0.895"
       id="path3363"
       style="fill:#1b3561" /><path
       d="m 15.628,165.048 8.181,-0.831 c 0,0.371 0,0.957 -0.419,1.002 l -7.977,0.571 c -0.418,-0.111 -0.103,-0.69 0.215,-0.742"
       id="path3365"
       style="fill:#1b3561" /><path
       d="m 25.182,166.442 11.463,-2.41 13.681,-2.292 7.391,-0.979 c 1.053,0.891 2.266,1.64 3.378,2.381 6.334,-2.099 12.52,-4.517 19.018,-6.186 0.159,0.208 -0.267,0.786 0.259,0.89 3.486,0.379 7.128,0.23 10.614,0.289 -0.319,1.054 -0.849,2.055 -1.275,3.168 1.112,0.155 2.381,0.163 3.538,0.11 l 16.051,0.09 7.235,-0.245 8.989,-5.162 0.738,0.534 c 0.371,-0.475 1.001,-0.786 1.528,-1.105 1.958,0.794 3.856,1.906 5.859,2.604 l 0.634,-0.794 c 5.434,2.174 10.974,4.035 16.726,5.526 4.698,0.853 9.342,1.713 14.145,2.358 -0.212,0.578 -0.427,1.209 -0.846,1.632 l 0.419,1.424 0.101,0.111 c 5.439,1.12 10.506,3.189 15.938,4.361 l 0.156,-0.052 0.797,-1.691 c 8.396,0.186 15.888,2.678 23.753,4.279 l 1.844,0.534 0.259,2.581 c 1.425,1.854 2.793,3.761 4.373,5.556 l 0.367,-0.052 c 4.231,-2.418 8.618,-4.361 12.846,-6.676 h 0.104 l 0.052,0.846 -1.005,0.578 -12.368,6.416 c -0.689,-0.423 -1.105,-1.217 -1.58,-1.854 l -3.159,-4.383 -0.26,-2.114 c -8.069,-1.921 -16.414,-3.264 -24.91,-4.279 l -0.901,1.268 c -5.8,-1.653 -11.607,-3.3 -17.415,-4.902 -0.208,-0.371 0.319,-0.578 0.427,-0.846 -0.049,-0.363 0.004,-0.793 -0.315,-1.053 -0.052,-0.104 0.052,-0.215 0,-0.312 -10.184,-1.929 -20.264,-4.272 -29.761,-7.885 l -0.475,0.371 c -2.11,-0.689 -4.165,-1.543 -6.227,-2.447 -0.687,0.215 -1.269,1.112 -2.01,0.682 -3.167,1.632 -6.186,3.583 -9.405,5.052 L 89.081,162.09 c -0.108,0.052 -0.267,0.267 -0.427,0.052 l -0.048,-0.208 1.165,-3.115 c -3.375,-0.215 -6.913,-0.223 -10.347,-0.393 -0.156,-0.104 -0.156,-0.268 -0.156,-0.423 l -0.582,0.104 c -6.026,1.943 -12.101,3.99 -18.02,6.245 l -0.371,-0.104 -3.479,-2.7 -15.313,2.5 c -5.915,1.046 -11.834,2.188 -17.642,3.441 -0.267,-0.052 -0.111,-0.415 -0.163,-0.631 l 1.484,-0.416 z"
       id="path3367"
       style="fill:#1b3561" /><path
       d="m 31.894,139.207 c 0.267,-0.208 0.527,-0.526 0.846,-0.631 l 0.052,0.156 -1.179,7.023 c -0.208,0.104 -0.475,0.527 -0.79,0.208 l 1.071,-6.756 z"
       id="path3369"
       style="fill:#1b3561" /><path
       d="m 45.542,127.518 c -0.267,0.949 0.312,2.589 -1.113,2.692 l -0.163,-0.06 c 0.267,-0.949 -0.045,-2.476 1.276,-2.632"
       id="path3371"
       style="fill:#1b3561" /><path
       d="m 49.027,77.948 c 1.216,-1.631 2.596,-3.269 4.131,-4.795 -0.263,-0.896 -0.526,-1.851 -0.575,-2.852 0.315,-0.159 0.686,0.106 1.005,0.213 l 0.675,2.483 c -1.32,1.686 -3.063,3.213 -4.179,4.957 -0.007,2.794 0.308,5.438 0.671,8.077 0.156,-0.106 0.319,-0.315 0.527,-0.315 0.367,0.848 0.363,1.849 0.63,2.746 l -0.479,0.74 1.102,3.065 c 1.105,0.58 2.266,0.899 3.427,1.324 0.107,0.213 0.208,0.427 0.104,0.634 -0.631,0.209 -1.265,-0.16 -1.847,-0.319 l -2.581,-0.957 c -0.423,-1.374 -1.684,-2.907 -0.679,-4.385 -0.156,-0.475 -0.156,-1.051 -0.367,-1.583 -0.211,0.213 -0.104,0.74 -0.53,0.688 -0.575,-1.637 -0.782,-3.486 -1.042,-5.283 -0.052,-1.425 -0.156,-2.96 0.007,-4.438"
       id="path3373"
       style="fill:#1b3561" /><path
       d="m 52.421,120.405 c 0.419,0.267 0.842,0.586 1.157,0.949 -0.156,0.37 -0.582,0.475 -0.894,0.689 -0.423,-0.475 -1.216,-0.794 -1.48,-1.372 l 1.217,-0.266 z"
       id="path3375"
       style="fill:#1b3561" /><path
       d="m 56.456,62.231 c 0.315,0.105 0.315,0.526 0.367,0.845 l -1.802,2.845 c 0.946,3.278 2.366,6.343 4.153,9.199 -0.215,0.421 0.423,0.794 -0.059,1.055 -0.156,0 -0.312,-0.211 -0.364,-0.315 l 0.104,-0.371 c -2.27,-2.75 -3.63,-5.873 -4.732,-9.145 0.479,-1.478 1.328,-2.848 2.333,-4.113"
       id="path3377"
       style="fill:#1b3561" /><path
       d="m 55.814,89.789 c 0.208,0.213 -0.104,0.373 -0.267,0.475 l -1.216,1.105 c -0.104,0 -0.156,-0.052 -0.208,-0.156 0.419,-0.58 1.057,-1.109 1.691,-1.424"
       id="path3379"
       style="fill:#1b3561" /><path
       d="m 56.823,88.05 c 0.263,0.054 0.26,0.369 0,0.475 l -0.949,0.631 C 55.71,89.21 55.555,89.05 55.607,88.841 l 1.216,-0.791 z"
       id="path3381"
       style="fill:#1b3561" /><path
       d="m 58.41,85.994 c 0.734,-0.312 1.428,-0.732 2.217,-0.946 0.16,0.213 0.423,0.425 0.26,0.634 -1.368,0.475 -2.744,1.051 -4.064,1.789 -0.16,0.048 -0.26,-0.213 -0.156,-0.373 l 1.743,-1.104 z"
       id="path3383"
       style="fill:#1b3561" /><path
       d="m 59.834,61.341 c 0.371,0.052 0.319,0.475 0.371,0.74 l -2.385,3.164 c -0.104,0.102 -0.156,-0.054 -0.211,-0.16 0.534,-1.318 1.328,-2.586 2.225,-3.744"
       id="path3385"
       style="fill:#1b3561" /><path
       d="m 59.664,69.472 0.949,-0.054 c 0.26,1.428 0.416,2.855 0.623,4.28 0.575,2.431 1.15,4.914 2.358,7.131 -0.315,0.319 0.108,0.847 -0.267,1.057 -1.524,-1.691 -2.155,-3.805 -2.785,-5.917 -0.367,-1.747 -0.623,-3.595 -0.834,-5.442 -0.312,-0.265 -0.793,0.156 -1.001,-0.211 0.267,-0.316 0.426,-0.949 0.957,-0.844"
       id="path3387"
       style="fill:#1b3561" /><path
       d="m 60.613,117.571 c 0.419,0.216 0.786,0.69 0.89,1.113 -0.26,0.207 -0.579,0.422 -0.949,0.312 l -0.683,-0.787 c 0.16,-0.267 0.475,-0.422 0.742,-0.638"
       id="path3389"
       style="fill:#1b3561" /><path
       d="m 62.337,52.634 c -0.056,-0.367 -0.53,-0.265 -0.686,-0.581 0.056,-0.265 0.319,-0.475 0.475,-0.74 0.534,0.004 0.897,0.532 1.32,0.846 l -0.052,0.321 -1.587,2.527 0.623,2.116 c -0.104,0.636 -0.211,1.318 -0.53,1.847 -0.475,-0.107 -0.156,-0.742 -0.475,-1.003 -0.156,-1.055 -0.994,-2.221 -0.256,-3.272 l 1.168,-2.061 z"
       id="path3391"
       style="fill:#1b3561" /><path
       d="m 62.779,114.99 c 0.475,0.052 0.686,0.526 0.949,0.794 -0.156,0.312 -0.579,0.475 -0.949,0.475 -0.371,-0.32 -0.738,-1.061 0,-1.269"
       id="path3393"
       style="fill:#1b3561" /><path
       d="m 63.798,59.607 c 0.375,-0.159 0.794,0.16 1.109,0.319 -0.586,1.583 -1.272,3.113 -1.75,4.697 -0.052,0.104 -0.159,0.21 -0.319,0.156 L 62.734,64.62 c 0.163,-1.744 0.538,-3.429 1.064,-5.013"
       id="path3395"
       style="fill:#1b3561" /><path
       d="m 63.098,41.972 c 0.215,-0.267 0.534,-0.634 0.901,-0.579 0.1,1.739 -0.059,3.376 0.097,5.014 -0.267,0.265 -0.634,0.475 -1.005,0.367 -0.209,-1.529 -0.149,-3.167 0.007,-4.802"
       id="path3397"
       style="fill:#1b3561" /><path
       d="m 63.335,54.432 c 0.897,0.479 1.632,1.218 2.321,1.958 -0.059,0.422 -0.104,0.79 -0.319,1.108 -0.949,-0.638 -1.476,-1.587 -2.425,-2.225 0.052,-0.314 0.215,-0.633 0.423,-0.841"
       id="path3399"
       style="fill:#1b3561" /><path
       d="m 68.59,65.955 c 0.634,0.265 0.897,0.953 1.213,1.428 l 0.734,1.428 c -0.156,0.421 -0.686,0.315 -1.053,0.364 -0.475,-0.79 -0.845,-1.689 -1.424,-2.429 -0.846,0.159 -1.639,0.736 -2.377,1.211 l -1.161,0.945 -0.163,-0.105 c 1.22,-1.37 2.699,-2.319 4.231,-2.842"
       id="path3401"
       style="fill:#1b3561" /><path
       d="m 66.479,41.766 h 0.208 c 1.053,2.275 2.37,4.445 3.738,6.609 0.052,0.369 -0.371,0.421 -0.634,0.58 h -0.16 c -1.476,-2.114 -2.633,-4.335 -3.63,-6.66 -0.104,-0.319 0.319,-0.368 0.478,-0.529"
       id="path3403"
       style="fill:#1b3561" /><path
       d="m 66.502,54.651 c 0.69,0.371 1.32,0.953 1.899,1.587 l 2.737,3.596 c 0.156,0.478 0.156,1.003 0.367,1.374 l 2.748,-1.153 c 2.373,1.059 4.428,3.073 6.378,5.081 l 2.478,0.478 c 0.215,0.111 0.215,0.373 0.163,0.532 -0.794,-0.159 -1.639,-0.109 -2.485,-0.061 l -0.949,-0.211 c -1.847,-1.908 -3.901,-3.547 -6.06,-4.873 -1.061,0.16 -2.062,0.63 -3.123,0.838 -0.475,0.054 -0.415,-0.581 -0.519,-0.896 l 0.052,-0.105 c -1.053,-1.902 -2.473,-3.757 -4.161,-5.344 0.052,-0.316 0.163,-0.687 0.475,-0.843"
       id="path3405"
       style="fill:#1b3561" /><path
       d="m 67.192,79.203 c 0.208,-0.054 0.259,0.16 0.259,0.315 0.104,1.689 0.208,3.384 0.623,4.914 l 0.211,0.16 c 3.646,-0.204 6.649,1.068 9.713,2.344 l -0.008,1.055 3.063,1.064 c 0.156,0.261 0,0.526 -0.104,0.736 l -0.215,0.106 c -1.269,-0.371 -2.589,-0.69 -3.957,-0.96 0.052,-0.523 0,-1.052 0.107,-1.632 -2.904,-0.905 -5.963,-1.339 -9.079,-1.604 -0.211,0.102 -0.475,0.365 -0.793,0.209 l -0.26,-0.479 c -0.156,-1.583 -0.519,-3.115 -0.356,-4.75 l 0.796,-1.478 z"
       id="path3407"
       style="fill:#1b3561" /><path
       d="m 67.151,48.158 c 1.213,-0.048 0.579,1.428 0.842,2.058 -0.056,0.373 -0.423,0.267 -0.686,0.319 -0.371,-0.686 -0.419,-1.534 -0.471,-2.327 l 0.315,-0.05 z"
       id="path3409"
       style="fill:#1b3561" /><path
       d="m 68.215,69.281 c 1.161,-0.369 1.053,1.161 1.632,1.743 -0.108,0.371 -0.264,0.686 -0.527,0.949 C 68.578,71.866 68.371,71.024 68.052,70.438 68,70.123 67.578,69.383 68.215,69.281"
       id="path3411"
       style="fill:#1b3561" /><path
       d="m 69.157,72.344 c 1.057,-0.528 1.424,0.584 2.055,1.113 -0.156,0.421 -0.683,0.526 -1.053,0.682 -0.583,-0.424 -1.054,-1.058 -1.002,-1.795"
       id="path3413"
       style="fill:#1b3561" /><path
       d="m 69.398,35.439 c 0.056,-0.105 0.156,-0.054 0.211,-0.054 l 0.63,1.587 c 0.256,3.695 0.931,7.182 2.036,10.508 -0.055,0.319 -0.003,0.794 -0.426,0.794 l -0.263,-0.16 c -1.472,-3.91 -2.462,-8.137 -2.188,-12.675"
       id="path3415"
       style="fill:#1b3561" /><path
       d="m 74.905,99.016 0.215,0.056 1.684,3.067 c -0.593,2.69 -0.545,5.806 -0.549,8.609 -0.371,0.26 -0.793,0.415 -1.216,0.415 -0.416,-2.855 -0.097,-5.703 0.386,-8.446 -0.631,-0.741 -0.89,-1.743 -1.313,-2.588 0.052,-0.475 0.474,-0.738 0.793,-1.113"
       id="path3417"
       style="fill:#1b3561" /><path
       d="m 80.257,139.682 0.63,0.111 c 4.113,3.864 8.063,7.995 12.116,11.904 9.879,-0.082 18.387,-3.709 26.052,-9.338 0.16,0 0.211,0.155 0.16,0.267 -7.247,5.63 -15.124,9.783 -24.413,10.451 l -2.537,-0.008 -3.004,-2.907 -9.483,-9.687 c -0.051,-0.319 0.212,-0.63 0.479,-0.793"
       id="path3419"
       style="fill:#1b3561" /><path
       d="m 81.087,49.456 c 0.475,0.211 0.95,0.58 1.316,1.005 -0.156,0.209 -0.475,0.634 -0.845,0.423 -0.422,-0.32 -2.106,-1.167 -0.471,-1.428"
       id="path3421"
       style="fill:#1b3561" /><path
       d="m 80.813,79.075 c 2.325,-1.053 4.699,-1.839 7.131,-2.521 0.16,0.056 0.267,0.109 0.367,0.215 v 0.104 c -2.429,1.051 -4.862,1.997 -7.291,2.889 -0.318,-0.053 -0.21,-0.475 -0.207,-0.687"
       id="path3423"
       style="fill:#1b3561" /><path
       d="m 81.94,46.023 c 0.738,0.48 1.48,1.166 2.055,1.8 -0.16,0.319 -0.53,0.688 -0.901,0.579 l -1.947,-1.641 c 0,-0.423 0.53,-0.525 0.793,-0.738"
       id="path3425"
       style="fill:#1b3561" /><path
       d="M 81.584,87.523 C 86.965,89.7 92.027,92.669 96.93,95.9 l 2.118,-0.892 1.899,1.115 3.271,-0.788 0.052,0.159 -3.697,1.682 -2.318,-1.061 -1.217,0.312 C 91.92,93.405 86.647,90.701 81.159,88.526 c 0.058,-0.368 0.11,-0.793 0.425,-1.003"
       id="path3427"
       style="fill:#1b3561" /><path
       d="m 81.933,72.793 c 1.324,-0.79 2.748,-1.42 4.228,-1.891 0.211,0.267 -0.156,0.423 -0.211,0.582 l -3.968,1.838 c -0.156,-0.106 -0.049,-0.373 -0.049,-0.529"
       id="path3429"
       style="fill:#1b3561" /><path
       d="m 84.091,51.573 c 2.429,0.955 4.536,2.759 6.642,4.398 1.001,0.897 2.055,1.854 2.9,2.855 0,0.267 -0.319,0.423 -0.53,0.529 l -0.315,-0.106 c -2.896,-2.807 -6.112,-5.188 -9.49,-6.938 -0.263,-0.475 0.478,-0.475 0.793,-0.738"
       id="path3431"
       style="fill:#1b3561" /><path
       d="m 85.386,39.643 c 2.637,1.589 5.166,3.974 7.328,6.301 0.052,0.369 -0.375,0.369 -0.53,0.529 -1.213,-1.059 -2.426,-2.066 -3.638,-3.125 l -3.953,-3.069 c 0.107,-0.373 0.474,-0.475 0.793,-0.636"
       id="path3433"
       style="fill:#1b3561" /><path
       d="m 84.863,85.367 c 1.213,-0.471 2.437,-0.732 3.697,-0.996 l 0.052,0.16 -3.594,1.417 c -0.263,0.053 -0.204,-0.422 -0.155,-0.581"
       id="path3435"
       style="fill:#1b3561" /><path
       d="m 92.009,30.208 0.104,0.159 -0.801,4.538 c -0.267,0.105 -0.638,0.58 -0.953,0.209 l 0.693,-4.33 0.957,-0.576 z"
       id="path3437"
       style="fill:#1b3561" /><path
       d="m 92.651,73.557 c 2.103,3.49 3.519,7.294 4.621,11.202 0,0.478 -0.634,0.475 -1.005,0.736 l -0.208,-0.052 c -1.105,-3.909 -2.414,-7.766 -4.257,-11.411 0.215,-0.214 0.533,-0.369 0.849,-0.475"
       id="path3439"
       style="fill:#1b3561" /><path
       d="m 92.84,35.595 c 1.528,1.007 2.477,2.696 3.475,4.128 0.108,0.102 -0.055,0.102 -0.104,0.156 -1.424,-1.113 -2.848,-2.594 -4.272,-3.707 0.159,-0.316 0.582,-0.422 0.901,-0.577"
       id="path3441"
       style="fill:#1b3561" /><path
       d="m 92.973,70.179 0.264,0.054 c 1.212,1.428 1.947,3.011 2.74,4.599 -0.056,0.369 -0.534,0.369 -0.793,0.421 -1.005,-1.48 -1.843,-3.067 -2.896,-4.599 0.055,-0.372 0.474,-0.266 0.685,-0.475"
       id="path3443"
       style="fill:#1b3561" /><path
       d="m 95.799,34.176 h 0.267 c 2.158,1.96 3.686,4.178 4.999,6.399 0.052,0.421 -0.423,0.475 -0.69,0.581 -1.053,-1.112 -1.839,-2.537 -2.841,-3.809 -0.738,-0.846 -1.58,-1.795 -2.425,-2.541 0.052,-0.314 0.427,-0.474 0.69,-0.63"
       id="path3445"
       style="fill:#1b3561" /><path
       d="m 97.661,53.027 0.208,0.054 c 3.427,3.601 6.267,7.406 8.366,11.53 0,0.319 -0.312,0.528 -0.475,0.736 -0.475,0.107 -0.156,-0.475 -0.419,-0.634 -2.366,-3.805 -5.107,-7.506 -8.422,-10.948 0.104,-0.369 0.475,-0.471 0.742,-0.738"
       id="path3447"
       style="fill:#1b3561" /><path
       d="m 97.991,46.537 0.527,0.371 0.53,-0.425 c 1.795,0.109 3.586,0.011 5.229,-0.25 4.176,-2.631 8.248,-5.472 12,-9.11 0,-0.315 -0.686,-0.581 -0.311,-0.95 3.119,-2.946 5.926,-6.11 8.203,-9.433 0.104,-0.104 0.315,-0.05 0.315,0.052 l 0.211,0.319 c -2.173,3.427 -4.977,6.746 -8.203,9.54 0.048,0.315 0.527,0.421 0.467,0.847 -4.228,3.896 -8.619,7.371 -13.429,9.944 -0.263,0.054 -0.156,-0.265 -0.263,-0.421 -1.528,0.156 -3.011,0.152 -4.539,-0.011 l -0.052,0.105 c 0.787,1.059 1.843,2.062 2.418,3.175 0,0.315 -0.422,0.369 -0.63,0.475 l -0.211,-0.056 c -0.949,-1.216 -2.106,-2.431 -3.163,-3.651 0.052,-0.419 0.582,-0.366 0.901,-0.521"
       id="path3449"
       style="fill:#1b3561" /><path
       d="m 99.374,41.734 c 0.475,0.16 0.95,0.532 1.053,0.953 -0.319,0.156 -0.638,0.525 -1.001,0.312 -0.215,-0.315 -0.794,-0.367 -0.53,-0.896 l 0.478,-0.369 z"
       id="path3451"
       style="fill:#1b3561" /><path
       d="m 102.022,63.018 0.419,0.159 2.637,2.645 0.259,-0.264 c 1.001,1.269 1.951,2.645 2.737,3.965 8.982,-1.458 18.428,-0.171 26.928,1.593 0.208,0.373 -0.004,0.899 -0.056,1.322 -0.156,0.211 -0.319,0.102 -0.53,0.102 -0.319,-0.054 -0.052,-0.369 -0.156,-0.528 -8.34,-2.077 -18.108,-2.415 -26.979,-1.326 -1.58,-2.537 -3.419,-4.972 -5.474,-7.245 0,-0.21 0.104,-0.374 0.215,-0.423"
       id="path3453"
       style="fill:#1b3561" /><path
       d="m 104.114,94.225 c 1.743,-1.104 3.649,-1.836 5.604,-2.52 0.79,0.213 1.368,1.059 2.006,1.587 -0.215,0.315 -0.742,0.261 -1.113,0.421 l -1.476,-0.793 c -1.639,0.524 -3.223,1.098 -4.81,1.728 -0.156,-0.054 -0.263,-0.262 -0.211,-0.423"
       id="path3455"
       style="fill:#1b3561" /><path
       d="m 106.854,48.666 c 1.161,0.213 2.373,0.378 3.434,0.853 -0.111,0.371 -0.219,0.793 -0.479,1.001 -1.057,-0.581 -2.485,-0.532 -3.642,-0.957 -0.266,-0.319 0.268,-1.003 0.687,-0.897"
       id="path3457"
       style="fill:#1b3561" /><path
       d="m 108.727,134.891 c 0.156,0 0.363,-0.053 0.419,0.163 -0.375,0.734 -0.901,1.424 -1.431,2.106 0.263,0.207 0.634,0.267 0.793,0.475 -0.056,0.371 -0.375,0.683 -0.686,0.949 -0.482,-0.267 -1.061,-0.267 -1.424,-0.742 l 0.104,-0.259 2.225,-2.692 z"
       id="path3459"
       style="fill:#1b3561" /><path
       d="m 109.899,152.632 c 0.263,0.526 1.32,1.009 0.63,1.639 -0.156,0.156 -0.319,0.476 -0.53,0.476 -0.367,-0.476 -0.842,-1.009 -1.205,-1.588 0.259,-0.261 0.734,-0.631 1.105,-0.527"
       id="path3461"
       style="fill:#1b3561" /><path
       d="m 111.264,133.154 c -0.16,-0.267 -0.634,-0.267 -0.846,-0.689 0.905,-1.424 1.75,-2.952 2.755,-4.324 l 0.264,0.052 -0.052,0.379 -1.854,3.211 c 0.267,0.26 0.686,0.26 0.897,0.586 -0.586,1.209 -1.276,2.263 -2.069,3.323 -0.211,0.052 -0.423,0 -0.579,-0.163 0.371,-0.846 1.061,-1.588 1.484,-2.375"
       id="path3463"
       style="fill:#1b3561" /><path
       d="m 111.089,43.713 c 0.319,0.054 0.315,0.423 0.419,0.636 v 1.849 c -0.107,0.156 -0.319,0.105 -0.423,0.05 -0.259,-0.738 -0.156,-1.637 -0.052,-2.427 l 0.056,-0.108 z"
       id="path3465"
       style="fill:#1b3561" /><path
       d="m 112.135,48.256 c 1.954,1.853 4.328,2.757 6.805,3.235 0.363,0.899 0.208,2.008 0.363,3.012 -0.156,0.315 -0.475,0.526 -0.846,0.58 -0.259,-0.847 -0.052,-1.902 -0.259,-2.855 -2.585,-0.109 -4.903,-1.174 -6.75,-3.022 -0.163,0.102 -0.371,0.05 -0.371,-0.159 0.209,-0.37 0.691,-0.635 1.058,-0.791"
       id="path3467"
       style="fill:#1b3561" /><path
       d="m 114.312,90.763 c 0.634,0.532 1.32,1.061 1.739,1.641 -0.367,0.213 -0.894,0.369 -1.428,0.369 l -1.684,-0.905 c -0.475,-0.052 -1.113,0.738 -1.483,-0.052 0.854,-0.582 1.855,-1 2.856,-1.053"
       id="path3469"
       style="fill:#1b3561" /><path
       d="m 112.643,34.952 0.208,0.105 c 0.312,0.848 0.786,1.641 0.89,2.431 -0.259,0.265 -0.842,0.688 -0.949,0.048 l -0.786,-1.795 c -0.052,-0.368 0.422,-0.524 0.637,-0.789"
       id="path3471"
       style="fill:#1b3561" /><path
       d="m 112.658,124.024 c 0.052,0.052 0.208,0.104 0.156,0.208 0,0.111 -0.104,0.163 -0.156,0.215 -0.267,0 -0.156,-0.371 0,-0.423"
       id="path3473"
       style="fill:#1b3561" /><path
       d="m 115.447,126.086 c -0.312,-0.104 -0.786,-0.155 -0.949,-0.526 1.112,-1.958 2.069,-3.953 3.078,-5.963 0.052,-0.104 0.267,-0.052 0.371,-0.052 l 0.104,0.163 c -0.742,1.684 -1.591,3.322 -2.44,4.954 0.211,0.371 0.742,0.371 0.846,0.742 -0.479,1.104 -1.064,2.218 -1.802,3.322 -0.107,0.156 -0.371,0.104 -0.53,-0.111 0.265,-0.897 1.059,-1.579 1.322,-2.529"
       id="path3475"
       style="fill:#1b3561" /><path
       d="m 116.997,22.131 h 0.267 c 0.526,0.213 0.89,1.322 1.424,0.851 l 1.372,-1.109 c 0.215,0 0.371,0.265 0.475,0.424 l -0.056,0.369 -2.118,2.001 c -0.683,-0.319 -1.102,-1.055 -1.632,-1.639 -0.099,-0.315 0.164,-0.582 0.268,-0.897"
       id="path3477"
       style="fill:#1b3561" /><path
       d="m 118.221,91.195 c 2.425,1.061 4.636,2.753 6.586,4.765 -0.052,0.164 0,0.423 -0.215,0.423 -2.262,-1.379 -4.584,-2.703 -7.009,-3.87 -0.052,-0.421 0.263,-0.844 0.423,-1.211 l 0.215,-0.107 z"
       id="path3479"
       style="fill:#1b3561" /><path
       d="m 118.732,146.527 1.58,1.854 c -0.163,0.423 -0.319,0.949 -0.742,1.157 l -0.215,-0.052 -1.684,-2.063 c 0.157,-0.368 0.639,-0.791 1.061,-0.896"
       id="path3481"
       style="fill:#1b3561" /><path
       d="m 119.801,117.438 c -0.267,-0.312 -1.113,-0.164 -0.846,-0.742 l 1.965,-4.539 c 0.156,-0.097 0.367,-0.045 0.419,0.06 l 0.104,0.104 c -0.367,1.269 -0.953,2.426 -1.487,3.642 0.163,0.312 0.582,0.423 0.793,0.689 -0.319,1.157 -1.009,2.314 -1.539,3.427 -0.104,0.104 -0.315,0.104 -0.423,-0.007 l -0.107,-0.208 1.121,-2.426 z"
       id="path3483"
       style="fill:#1b3561" /><path
       d="m 120.869,37.399 c 1.899,0.85 3.746,1.962 5.644,2.81 1.899,0.903 3.961,1.435 6.016,2.021 l 1.58,1.8 c 0,0.262 -0.319,0.475 -0.527,0.577 -0.526,-0.369 -0.949,-1.003 -1.476,-1.535 -4.436,-0.536 -8.444,-2.338 -12.083,-4.78 0.215,-0.366 0.482,-0.578 0.846,-0.893"
       id="path3485"
       style="fill:#1b3561" /><path
       d="m 122.193,132.599 0.211,0.052 c 0.631,1.164 1.476,2.225 2.262,3.278 0,0.215 -0.263,0.319 -0.475,0.423 l -0.371,-0.111 c -0.842,-0.794 -1.528,-1.684 -2.262,-2.537 0.104,-0.371 0.368,-0.794 0.635,-1.105"
       id="path3487"
       style="fill:#1b3561" /><path
       d="m 122.129,17.761 c 5.6,-1.519 11.456,0.076 16.258,2.253 0.264,0.526 0.26,1.214 0.256,1.795 l -0.1,0.107 c -4.695,-2.492 -10.451,-4.039 -16.155,-2.781 -0.366,-0.216 -0.206,-0.953 -0.259,-1.374"
       id="path3489"
       style="fill:#1b3561" /><path
       d="m 127.177,99.558 c 0.212,-0.052 0.475,0 0.582,0.211 -1.595,4.429 -3.4,8.753 -5.258,13.085 -0.104,0.207 -0.319,0.052 -0.475,0 l -0.052,-0.111 c 1.75,-4.376 3.552,-8.752 5.203,-13.185"
       id="path3491"
       style="fill:#1b3561" /><path
       d="m 123.168,49.706 c 1.583,-0.736 3.115,-1.63 4.495,-2.894 0.318,-0.106 0.419,0.315 0.526,0.426 2.273,-0.79 4.754,-1.155 7.339,-1.253 0.163,-0.156 0.264,-0.581 0.582,-0.367 l 1.105,1.268 c 0.905,-0.524 2.01,-0.575 3.012,-0.734 l 0.475,1.216 c -1.058,0.634 -2.744,-0.111 -3.33,1.316 l -0.208,-0.004 -1.528,-1.693 c -2.641,0.152 -5.073,0.937 -7.454,1.78 -0.26,-0.054 -0.526,-0.319 -0.63,-0.584 -1.32,1.109 -2.641,2.16 -4.228,2.685 -0.16,-0.372 -0.263,-0.793 -0.156,-1.162"
       id="path3493"
       style="fill:#1b3561" /><path
       d="m 125.5,93.744 c 1.899,0.901 3.742,2.068 5.222,3.814 0.048,0.107 0.1,0.263 -0.004,0.315 h -0.319 c -1.743,-1.109 -3.687,-1.906 -5.485,-2.971 0.164,-0.416 0.164,-0.944 0.586,-1.158"
       id="path3495"
       style="fill:#1b3561" /><path
       d="m 128.794,132.294 c 0.263,0 0.263,0.268 0.315,0.423 v 0.156 c -1.054,0.423 -2.166,0.846 -3.379,1.104 l -0.107,-0.104 c 0.534,-1.371 2.114,-1.104 3.171,-1.579"
       id="path3497"
       style="fill:#1b3561" /><path
       d="m 127.24,22.945 c 3.534,0.009 6.705,0.756 9.553,2.29 0.838,0.057 1.739,-0.152 2.529,0.061 l 0.738,1.637 c -0.16,0.421 -0.687,0.106 -1.058,0.156 l -2.692,-0.271 c -2.899,-1.537 -5.963,-2.654 -9.39,-2.924 -0.107,-0.265 -0.051,-0.895 0.32,-0.949"
       id="path3499"
       style="fill:#1b3561" /><path
       d="m 128.968,125.271 c 0.315,-0.208 0.635,-0.526 0.95,-0.571 l 0.107,0.156 -1.592,3.53 0.631,1.061 c 4.384,-1.84 10.087,-2.144 14.945,-1.343 0.578,0.949 0.894,2.063 1.205,3.123 -0.155,0.363 -0.53,0.415 -0.79,0.63 l -0.314,-0.318 c -0.212,-0.846 -0.631,-1.64 -0.998,-2.433 -4.966,-0.379 -10.194,-0.127 -14.475,1.765 -0.53,-0.371 -0.79,-1.061 -1.265,-1.587 0.535,-1.321 1.117,-2.641 1.596,-4.013"
       id="path3501"
       style="fill:#1b3561" /><path
       d="m 142.456,113.478 2.696,-1.847 0.479,0.059 1.891,2.589 c 0.16,0.742 0.367,1.483 0.315,2.218 -0.318,-0.052 -0.578,-0.475 -0.794,-0.742 -0.89,-1.001 -1.684,-2.062 -2.418,-3.174 l -1.958,1.209 -11.845,7.899 c -0.155,0 -0.423,0 -0.475,-0.216 l 0.215,-0.26 11.894,-7.735 z"
       id="path3503"
       style="fill:#1b3561" /><path
       d="m 131.037,95.5 c 1.848,0.745 3.538,2.014 4.799,3.653 0.053,0.211 -0.215,0.211 -0.314,0.159 l -4.854,-2.811 c 0.106,-0.311 0.051,-0.793 0.369,-1.001"
       id="path3505"
       style="fill:#1b3561" /><path
       d="m 132.613,100.043 c 0.319,-0.1 0.583,0.268 0.842,0.427 0.216,0.526 0.208,1.161 0.156,1.743 -0.212,0.155 -0.579,0.048 -0.842,-0.06 -0.211,-0.63 0.001,-1.424 -0.156,-2.11"
       id="path3507"
       style="fill:#1b3561" /><path
       d="m 134.441,108.656 c -0.155,-0.215 -0.63,-0.319 -0.37,-0.638 0.163,-0.215 0.111,-0.526 0.374,-0.631 0.949,0.26 0.738,1.269 0.687,1.951 -0.379,2.744 -0.912,5.437 -1.869,7.921 l -0.212,-0.052 c 0.746,-2.751 1.384,-5.539 1.39,-8.551"
       id="path3509"
       style="fill:#1b3561" /><path
       d="m 137.179,88.651 c 2.007,0.269 4.013,0.642 5.7,1.541 0.315,0.425 0.79,0.848 0.686,1.374 -0.107,0.369 -0.481,0.369 -0.793,0.21 -1.899,-0.848 -3.854,-1.538 -6.016,-1.91 -0.215,-0.319 0.104,-0.74 0.163,-1.112 l 0.26,-0.103 z"
       id="path3511"
       style="fill:#1b3561" /><path
       d="m 139.815,18.434 c 3.379,1.328 6.383,3.816 8.696,6.618 -0.104,0.315 -0.578,0.315 -0.949,0.369 -2.321,-2.54 -5.007,-4.925 -8.066,-5.932 -0.211,-0.319 0.108,-0.634 0.16,-1.003 l 0.159,-0.052 z"
       id="path3513"
       style="fill:#1b3561" /><path
       d="m 139.986,84.801 c 2.429,0.217 4.591,0.96 6.701,1.914 0.104,0.369 -0.268,0.688 -0.423,0.949 h -0.423 c -1.958,-0.849 -4.013,-1.487 -6.23,-1.704 -0.207,-0.315 0.06,-0.684 0.111,-1.055 l 0.264,-0.104 z"
       id="path3515"
       style="fill:#1b3561" /><path
       d="m 144.062,80.852 c 1.002,0.16 1.899,0.53 2.849,0.903 0.215,-0.319 0.004,-0.95 0.475,-0.95 1.902,0.425 3.701,1.011 5.273,2.124 0.107,0.475 -0.367,0.842 -0.367,1.316 1.05,2.909 1.568,6.71 0.504,9.826 -0.052,0.102 -0.159,0.102 -0.263,0.102 l -0.104,-0.315 c 0.742,-3.272 -0.355,-6.441 -1.09,-9.453 0.104,-0.105 0.215,-0.319 0.06,-0.475 -1.372,-0.849 -2.797,-1.591 -4.384,-1.962 l -0.104,0.156 c 0.207,0.371 0.682,0.634 0.734,1.059 l -0.104,0.054 c -1.268,-0.532 -2.529,-1.064 -3.904,-1.435 0.106,-0.316 0.053,-0.742 0.425,-0.95"
       id="path3517"
       style="fill:#1b3561" /><path
       d="m 144.618,43.313 c 4.591,0.482 8.492,2.765 11.919,5.939 0.104,0.426 -0.215,0.897 -0.53,1.105 -2.266,-1.747 -4.64,-3.439 -7.225,-4.5 -1.424,-0.584 -2.955,-1.014 -4.432,-1.489 -0.314,-0.32 0.109,-0.741 0.268,-1.055"
       id="path3519"
       style="fill:#1b3561" /><path
       d="m 145.553,50.44 c 1.847,-0.204 3.856,-0.254 5.703,-0.091 2.215,1.326 4.269,3.229 6.112,5.188 0.052,0.261 -0.156,0.421 -0.264,0.58 3.742,1.537 7.491,3.08 10.599,6.199 v 0.319 l -1.954,1.366 -0.374,-0.105 c -3.004,-2.857 -6.538,-4.662 -10.018,-6.624 -0.207,-0.156 -0.052,-0.369 0.056,-0.525 l 0.264,-0.319 c -1.688,-1.8 -3.635,-3.334 -5.533,-4.921 -1.639,-0.164 -3.431,-0.167 -5.018,0.254 l -0.155,-0.106 0.582,-1.215 z"
       id="path3521"
       style="fill:#1b3561" /><path
       d="m 146.55,100.814 c 0.111,-1.531 -0.204,-3.06 -0.411,-4.491 0.211,-0.156 0.419,-0.052 0.578,0.163 l 0.475,0.526 c 0.208,1.48 0.468,3.063 0.045,4.488 l -0.371,0.526 c 0.419,1.956 0.305,4.174 0.2,6.236 l 3.742,0.689 c 0.211,0.318 -0.212,0.586 -0.315,0.846 -0.634,0.312 -1.32,-0.06 -2.01,-0.111 l -2.21,-0.586 -0.164,-0.208 c 0.271,-2.277 0.171,-4.65 -0.248,-6.811 -0.156,-0.584 0.478,-0.792 0.689,-1.267"
       id="path3523"
       style="fill:#1b3561" /><path
       d="m 147.666,26.633 0.794,0.058 c 0.838,0.58 1.313,1.743 2.263,1.902 l 0.63,0.74 5.333,1.808 c 0.578,0.424 0.89,1.166 1.424,1.587 0.045,0.106 0.101,0.319 -0.056,0.369 l -0.582,-0.054 c -2.218,-0.953 -4.591,-1.697 -6.965,-2.392 -1.268,-1.003 -2.106,-2.483 -3.315,-3.649 -0.001,-0.209 0.259,-0.369 0.474,-0.369"
       id="path3525"
       style="fill:#1b3561" /><path
       d="m 148.148,117.445 c 0.582,-0.208 1.275,-1.105 1.743,-0.415 0.056,0.207 0.475,0.318 0.215,0.578 -0.427,0.156 -0.741,1.054 -1.216,0.631 -0.267,-0.26 -0.686,-0.423 -0.742,-0.794"
       id="path3527"
       style="fill:#1b3561" /><path
       d="m 148.612,124.633 c 3.011,-2.211 5.87,-4.421 8.674,-7.01 l 0.212,0.06 1.153,2.744 c 0,0.586 -0.475,1.054 -0.85,1.477 -0.155,0.052 -0.264,-0.163 -0.155,-0.319 l 0.107,-0.104 c -0.319,-0.786 -0.631,-1.58 -1.002,-2.321 -2.433,2.365 -5.073,4.531 -7.884,6.267 -0.259,-0.06 -0.362,-0.534 -0.255,-0.794"
       id="path3529"
       style="fill:#1b3561" /><path
       d="m 149.32,89.415 1.477,1.853 c 0.89,2.8 0.989,6.18 0.24,9.081 -0.1,0.159 -0.367,0.056 -0.526,0 l -0.104,-0.107 c 0.849,-3.694 -0.145,-7.441 -1.454,-10.666 l 0.056,-0.213 0.311,0.052 z"
       id="path3531"
       style="fill:#1b3561" /><path
       d="m 152.873,106.743 c 1.424,0.741 2.9,1.319 4.169,2.225 0,0.26 -0.268,0.423 -0.479,0.475 l -0.475,-0.06 c -1.372,-0.734 -2.849,-1.216 -4.328,-1.802 0.216,-0.363 0.379,-1.477 1.113,-0.838"
       id="path3533"
       style="fill:#1b3561" /><path
       d="m 153.125,39.793 c 3.59,0.801 6.965,1.967 10.132,3.666 0.363,0.526 0.363,1.428 0.26,2.004 -0.267,0.159 -0.534,0.421 -0.846,0.373 -0.263,-0.582 -0.052,-1.428 -0.683,-1.854 -3.011,-1.378 -6.066,-2.602 -9.286,-3.453 -0.263,-0.261 -0.155,-1.105 0.423,-0.736"
       id="path3535"
       style="fill:#1b3561" /><path
       d="m 153.519,102.042 c 0.897,0.268 1.791,0.586 2.585,1.059 0.107,0.319 -0.264,0.475 -0.427,0.742 l -0.267,0.052 -2.159,-0.853 c -0.104,0.052 -0.267,0.215 -0.37,0 0.163,-0.365 0.37,-0.732 0.638,-1"
       id="path3537"
       style="fill:#1b3561" /><path
       d="m 156.185,65.09 c 1.588,-0.471 2.374,1.272 3.427,2.12 2.948,3.595 5.215,7.4 7.05,11.422 l -0.052,0.156 c -0.423,0.054 -1.001,0.102 -1.164,-0.425 -2.1,-4.333 -5.044,-8.355 -8.574,-12.058 -0.371,-0.054 -0.794,0.209 -1.165,0 l 0.478,-1.215 z"
       id="path3539"
       style="fill:#1b3561" /><path
       d="m 161.121,101.427 c 1.053,0.586 2.113,1.061 3.063,1.8 -0.164,0.208 -0.22,0.683 -0.586,0.742 -1.795,-1.009 -3.643,-1.808 -5.541,-2.602 -0.312,-0.371 0.319,-0.687 0.534,-1.001 l 2.53,1.061 z"
       id="path3541"
       style="fill:#1b3561" /><path
       d="m 158.577,33.785 c 0.682,0.213 1.32,0.532 1.95,0.851 l 0.468,2.533 1.531,0.642 c 0.423,1.371 0.419,2.954 0.679,4.432 -0.155,0.266 -0.631,0.106 -0.949,0.106 -0.319,-1.113 -0.419,-2.377 -0.631,-3.592 -0.574,-0.213 -1.424,-0.163 -1.684,-0.953 l -0.415,-2.062 -0.897,-0.528 c -0.107,-0.425 -0.208,-0.847 -0.264,-1.322 l 0.212,-0.107 z"
       id="path3543"
       style="fill:#1b3561" /><path
       d="m 161.767,96.784 c 3.749,0.797 7.172,2.18 10.603,3.768 1.798,-1.473 3.334,-3.264 4.869,-4.951 0.267,0 0.267,0.267 0.315,0.475 l -0.212,0.367 c -1.587,1.743 -3.33,3.586 -5.236,4.902 -3.586,-1.487 -7.176,-2.814 -11.081,-3.612 -0.264,-0.319 0.215,-0.638 0.319,-0.901 l 0.423,-0.048 z"
       id="path3545"
       style="fill:#1b3561" /><path
       d="m 165.312,43.989 0.267,0.107 c 2.263,3.067 4.206,6.241 5.941,9.466 v 0.262 l -1.269,0.524 c -1.787,-3.117 -3.679,-6.186 -5.678,-9.197 -0.211,-0.319 -0.686,0.315 -0.741,-0.265 l 1.48,-0.897 z"
       id="path3547"
       style="fill:#1b3561" /><path
       d="m 165.905,110.251 c 0.897,0.008 0.526,1.009 0.793,1.483 0.101,0.371 -0.318,0.475 -0.534,0.578 l -0.159,-0.052 c -0.208,-0.586 -0.363,-1.269 -0.312,-1.958 l 0.212,-0.051 z"
       id="path3549"
       style="fill:#1b3561" /><path
       d="m 167.065,63.635 c 4.428,4.076 7.054,9.043 8.682,14.328 0.052,0.263 -0.267,0.263 -0.423,0.209 l -1.005,-0.213 c -1.991,-4.914 -4.677,-9.512 -8.362,-13.693 0.207,-0.421 0.689,-0.523 1.108,-0.631"
       id="path3551"
       style="fill:#1b3561" /><path
       d="m 166.65,36.285 c 5.752,-0.143 10.343,2.609 14.771,5.735 l 1.743,1.483 c 0.101,0.579 0.468,1.057 0.416,1.585 -0.479,0.208 -0.842,-0.373 -1.209,-0.586 -4.747,-3.653 -9.706,-6.831 -15.933,-7.005 0,-0.369 -0.633,-1.216 0.212,-1.212"
       id="path3553"
       style="fill:#1b3561" /><path
       d="m 167.284,108.723 c 0.579,-0.104 0.794,0.431 0.794,0.854 0.045,0.26 0.1,0.578 -0.008,0.786 -0.155,0.104 -0.318,0.215 -0.578,0.215 -0.264,-0.526 -0.208,-1.164 -0.363,-1.795 l 0.155,-0.06 z"
       id="path3555"
       style="fill:#1b3561" /><path
       d="m 168.449,84.178 c 0.897,-0.369 0.786,0.686 1.001,1.059 0.26,0.529 -0.482,0.79 -0.794,1.105 l -0.163,-0.054 c -0.211,-0.634 -0.475,-1.32 -0.519,-2.004 l 0.475,-0.106 z"
       id="path3557"
       style="fill:#1b3561" /><path
       d="m 169.405,104.295 c 0.315,1.372 0.36,2.907 0.571,4.384 -0.215,0.207 -0.582,0.475 -0.846,0.371 -0.259,-1.536 -0.519,-3.123 -0.675,-4.651 0.261,-0.267 0.632,-0.001 0.95,-0.104"
       id="path3559"
       style="fill:#1b3561" /><path
       d="m 171.416,54.616 c 0.419,0.213 0.419,0.634 0.737,0.899 l 4.536,2.071 c 0.997,1.374 1.787,2.802 2.625,4.178 v 0.159 l -1.316,0.523 c -0.737,-0.899 -1.42,-1.906 -2.162,-2.753 l -4.164,-2.487 c -0.419,0.208 -0.687,-0.267 -0.842,-0.586 l -0.738,-1.428 c 0.375,-0.261 0.901,-0.417 1.324,-0.576"
       id="path3561"
       style="fill:#1b3561" /><path
       d="m 173.871,89.945 c 0.904,-3.695 0.704,-8.025 0.186,-11.772 0.318,-0.054 0.737,0.105 1.053,0.213 0.734,1.902 0.415,4.381 0.356,6.494 -0.268,3.059 -0.965,6.019 -2.292,8.654 -0.419,-0.213 0.007,-0.848 0.059,-1.269 l 0.638,-2.32 z"
       id="path3563"
       style="fill:#1b3561" /><path
       d="m 178.781,91.274 c 2.647,-4.007 4.977,-8.171 6.148,-12.763 0.056,-0.107 0.267,-0.107 0.318,0 l 0.26,0.899 c -1.802,5.537 -4.562,10.656 -8.688,15.132 -0.319,0.054 -0.212,-0.315 -0.107,-0.475 l 2.069,-2.793 z"
       id="path3565"
       style="fill:#1b3561" /><path
       d="m 178.707,100.777 c 0.63,0.475 0.63,1.428 0.786,2.168 -0.268,0.26 -0.583,0.578 -0.953,0.578 -0.315,-0.534 -0.152,-1.374 -0.734,-1.741 0.107,-0.426 0.582,-0.741 0.901,-1.005"
       id="path3567"
       style="fill:#1b3561" /><path
       d="m 179.586,61.128 c 1.635,-1 3.438,-1.63 5.125,-2.521 1.213,0.847 2.373,1.956 3.586,2.807 5.059,3.707 10.384,6.777 16.347,8.324 0.268,0.265 0,0.527 -0.052,0.793 l -0.159,0.102 c -7.547,-1.812 -14.296,-5.627 -20.516,-10.762 -1.376,0.421 -2.589,1.208 -3.912,1.732 -0.212,0 -0.419,-0.262 -0.419,-0.475"
       id="path3569"
       style="fill:#1b3561" /><path
       d="m 182.159,138.376 c 3.957,0.438 7.703,1.283 11.4,2.3 0.155,0.578 0.155,1.32 -0.004,1.898 -0.26,0.215 -0.479,0.475 -0.846,0.475 l -0.104,-1.372 c -3.583,-0.904 -7.18,-1.654 -10.922,-2.188 l -2.062,0.941 c -0.375,0 -0.16,-0.526 -0.16,-0.741 l 2.698,-1.313 z"
       id="path3571"
       style="fill:#1b3561" /><path
       d="m 185.152,75.185 c 0.312,0.475 0.475,1.057 -0.008,1.532 -0.104,0.159 -0.312,0.211 -0.526,0.208 -1.054,-0.58 0.06,-1.211 0.371,-1.739 h 0.163 z"
       id="path3573"
       style="fill:#1b3561" /><path
       d="m 187.185,134.223 c 3.59,0.586 7.128,1.328 10.45,2.447 0.738,0 1.372,-0.363 2.063,-0.519 0.312,0.155 0.155,0.571 0.312,0.786 l -0.319,0.215 -2.589,0.363 c -3.479,-0.904 -7.017,-1.602 -10.547,-2.239 -0.164,-0.422 0.362,-0.794 0.63,-1.053"
       id="path3575"
       style="fill:#1b3561" /><path
       d="m 189.706,68.647 c 1.424,0.955 2.796,2.227 4.058,3.39 0.894,1.693 1.468,3.542 2.202,5.285 0.052,0.369 -0.423,0.263 -0.682,0.263 -0.427,-0.054 0.048,-0.369 -0.216,-0.634 l -1.728,-3.543 c -1.48,-1.424 -3.06,-2.7 -4.592,-3.916 0.164,-0.422 0.639,-0.636 0.958,-0.845"
       id="path3577"
       style="fill:#1b3561" /><path
       d="m 199.812,82.767 c 0.527,0.425 0.949,1.007 1.265,1.587 1.877,8.769 3.13,17.902 2.997,27.357 0,0.104 -0.156,0.104 -0.26,0.052 l -0.475,-0.63 c 0.022,-9.93 -1.491,-19.279 -3.635,-28.313 l 0.108,-0.053 z"
       id="path3579"
       style="fill:#1b3561" /><path
       d="m 202.815,133.354 c 0.16,-0.052 0.367,0.111 0.315,0.268 l -0.052,0.578 -3.067,1.788 c -0.426,-0.052 -0.207,-0.638 -0.207,-0.897 l 3.011,-1.737 z"
       id="path3581"
       style="fill:#1b3561" /><path
       d="m 204.236,112.343 0.312,0.43 c 1.632,3.85 3.152,7.766 4.413,11.778 l -0.371,0.475 c 1.05,2.433 2.203,4.807 3.148,7.239 -0.315,0.475 -0.842,0.897 -1.269,1.32 1.153,2.589 2.422,5.125 3.52,7.766 -0.318,0.475 -0.793,0.897 -1.269,1.217 -0.475,-0.053 -1.104,0.044 -1.476,-0.164 0.319,-0.533 0.897,-0.845 1.372,-1.268 -0.994,-2.589 -2.311,-5.178 -3.516,-7.766 0.208,-0.527 0.794,-0.794 1.157,-1.217 -0.942,-2.536 -2.203,-5.065 -3.197,-7.662 0.156,-0.207 0.476,-0.155 0.687,-0.312 -1.209,-3.648 -2.577,-7.187 -4.149,-10.673 -0.846,-0.267 -1.795,-0.215 -2.692,-0.43 -0.053,-0.371 0.53,-0.579 0.793,-0.846 l 2.537,0.113 z"
       id="path3583"
       style="fill:#1b3561" /><path
       d="m 203.828,128.022 c 0.267,0.052 0.689,-0.26 0.794,0.163 0.056,0.207 0.211,0.475 0.052,0.63 -0.526,0.156 -1.002,0.579 -1.584,0.319 0.156,-0.37 0.212,-0.948 0.738,-1.112"
       id="path3585"
       style="fill:#1b3561" /><path
       d="m 204.681,125.812 c 0.367,0.208 0.312,0.742 0.423,1.054 -0.267,0.104 -0.638,0.104 -0.793,-0.156 0.051,-0.319 0.207,-0.69 0.37,-0.898"
       id="path3587"
       style="fill:#1b3561" /><path
       d="m 225.375,175.432 4.009,0.534 c 0.107,0.267 0.211,0.638 0.056,0.905 -1.38,0.363 -2.804,-0.067 -4.173,-0.223 l -0.211,-0.104 c -0.052,-0.423 -0.526,-0.904 -0.371,-1.327 l 0.69,0.215 z"
       id="path3589"
       style="fill:#1b3561" /><path
       d="m 114.216,42.039 c 0.845,-0.421 1.743,-0.74 2.637,-1.001 0.686,0.846 1.268,1.795 1.531,2.852 -0.793,0.523 -1.743,0.79 -2.588,1.109 -0.734,-0.844 -1.105,-1.851 -1.635,-2.8 l 0.055,-0.16 z"
       id="path3591"
       style="fill:#ffffff" /><path
       d="m 116.749,40.032 c 2.058,-1.001 5.122,-0.74 6.861,0.742 0.638,0.475 1.005,1.109 1.424,1.689 -0.471,1.53 -1.687,3.221 -3.267,3.748 -0.742,0.107 -1.324,0.583 -2.114,0.475 -0.423,-0.424 -0.423,-1.109 -0.69,-1.689 0.53,-0.528 1.113,-1.055 1.691,-1.637 l -0.211,-0.265 c -1.213,-1.003 -2.533,-1.74 -3.75,-2.798 l 0.056,-0.265 z"
       id="path3593"
       style="fill:#ffffff" /><polygon
       points="224.484,193.218 224.484,188.797 222.86,188.797 222.86,187.841 227.229,187.841 227.229,188.797 225.604,188.797 225.604,193.218 "
       id="polygon3595"
       style="fill:#1b3561" /><polygon
       points="227.837,193.218 227.837,187.848 229.483,187.848 230.455,192.075 230.47,192.075 231.427,187.848 233.051,187.848 233.051,193.218 231.998,193.218 231.998,188.73 231.983,188.73 230.981,193.218 229.884,193.218 228.905,188.73 228.891,188.73 228.891,193.218 "
       id="polygon3597"
       style="fill:#1b3561" /></g></svg>