<?xml version="1.0" encoding="UTF-8" standalone="no"?>
<!-- Created with Inkscape (http://www.inkscape.org/) -->

<svg
   xmlns:dc="http://purl.org/dc/elements/1.1/"
   xmlns:cc="http://creativecommons.org/ns#"
   xmlns:rdf="http://www.w3.org/1999/02/22-rdf-syntax-ns#"
   xmlns:svg="http://www.w3.org/2000/svg"
   xmlns="http://www.w3.org/2000/svg"
   version="1.0"
   width="280"
   height="200"
   id="svg2641">
  <metadata
     id="metadata2646">
    <rdf:RDF>
      <cc:Work
         rdf:about="">
        <dc:format>image/svg+xml</dc:format>
        <dc:type
           rdf:resource="http://purl.org/dc/dcmitype/StillImage" />
        <dc:title></dc:title>
      </cc:Work>
    </rdf:RDF>
  </metadata>
  <defs
     id="defs2644" />
  <g
     transform="matrix(0.34843206,0,0,0.34843206,68.167247,-2.4390244)"
     id="g3547">
    <path
       d="m 11.95515,499.5 -0.01052,-56 -0.01053,-56 77.28295,0 77.28295,0 0.26466,30.25 0.26467,30.25 55.48533,0 55.48534,0 -1.31903,-90 -93.59523,0 -93.59523,0 L 50.24525,318.74531 11,279.49062 11,183.97888 11,88.467144 51.77837,47.733572 92.55675,7 220.38254,7 348.20834,7 433.01667,89.274884 432.75833,144.88744 432.5,200.5 354.75,200.75613 277,201.01226 277,170.50613 277,140 l -55,0 -55,0 0,45 0,45 93.75475,0 93.75474,0 39.24526,39.25469 39.24525,39.25469 0,95.49988 0,95.49989 -40.75452,40.74542 L 351.49096,581 223.99548,580.99241 96.5,580.98483 11.95515,499.5 z"
       id="path2664"
       style="fill:#ff5e16;fill-opacity:1" />
    <path
       d="m 11.95515,499.5 -0.01052,-56 -0.01053,-56 77.28295,0 77.28295,0 0.26466,30.25 0.26467,30.25 55.48533,0 55.48534,0 -1.31903,-90 -93.59523,0 -93.59523,0 L 50.24525,318.74531 11,279.49062 11,183.97888 11,88.467144 51.77837,47.733572 92.55675,7 220.38254,7 348.20834,7 433.01667,89.274884 432.75833,144.88744 432.5,200.5 354.75,200.75613 277,201.01226 277,170.50613 277,140 l -55,0 -55,0 0,45 0,45 93.75475,0 93.75474,0 39.24526,39.25469 39.24525,39.25469 0,95.49988 0,95.49989 -40.75452,40.74542 L 351.49096,581 223.99548,580.99241 96.5,580.98483 11.95515,499.5 z M 385.75,533.06869 424,495.22006 l 0,-90.89889 0,-90.8989 -37.25,-37.20824 -37.25,-37.20824 -96.25,-0.003 L 157,239 l 0,-54.50729 0,-54.5073 64.75,0.2573 64.75,0.25729 0.26466,30.25 0.26467,30.25 67.98533,0 L 423,191 423,142.12997 423,93.259931 344.52213,17 220.51593,17 96.50974,17 58.75487,54.745066 21,92.490131 l 0,91.509999 0,91.51001 36.75,36.7399 36.75,36.73991 96.23719,0.25503 96.2372,0.25502 0.1332,54 0.13321,54 -65.10573,0.25724 -65.10572,0.25723 -0.26468,-30.25723 L 156.5,397.5 l -67.5,0 -67.5,0 -0.26769,48.57628 -0.2677,48.57627 39.2677,38.11057 39.26769,38.11057 124,0.0218 124,0.0218 38.25,-37.84864 z"
       id="path2662"
       style="fill:#012675;fill-opacity:1" />
  </g>
</svg>
