<?xml version="1.0" encoding="UTF-8" standalone="no"?>
<!-- Created with Inkscape (http://www.inkscape.org/) -->

<svg
   xmlns:dc="http://purl.org/dc/elements/1.1/"
   xmlns:cc="http://creativecommons.org/ns#"
   xmlns:rdf="http://www.w3.org/1999/02/22-rdf-syntax-ns#"
   xmlns:svg="http://www.w3.org/2000/svg"
   xmlns="http://www.w3.org/2000/svg"
   version="1.0"
   width="280"
   height="200"
   viewBox="0 0 280 199.99999"
   id="svg2"
   xml:space="preserve"
   style="overflow:visible"><metadata
     id="metadata3647"><rdf:RDF><cc:Work
         rdf:about=""><dc:format>image/svg+xml</dc:format><dc:type
           rdf:resource="http://purl.org/dc/dcmitype/StillImage" /><dc:title></dc:title></cc:Work></rdf:RDF></metadata><defs
     id="defs24" /><path
     d="m 165.8971,40.697804 c 1.32175,-4.310391 2.86706,-9.335911 2.86706,-9.335911 1.28383,-4.048917 1.97543,-4.503881 2.84744,-5.077815 l 0.62231,-0.414436 c 0.72167,-0.503336 3.46452,-1.717881 5.57331,-2.5376 l 2.59382,-1.005366 0.16603,-22.0526755 -4.12344,0 -176.44363,0 0,25.4361425 c 0,0 7.347405,0 9.143728,0 0.451042,0.704671 1.21193,2.081329 2.311426,4.947079 0.0026,0.0052 0.05622,0.141196 0.10459,0.265396 0.101974,0.346452 36.713495,126.061612 36.713495,126.061612 l 22.188641,0 c 0,0 13.064524,-42.48814 18.373744,-59.75585 5.054283,17.29255 17.431136,59.6225 17.431136,59.6225 l 3.06447,-0.005 19.4314,0 c 0,0 25.51067,-79.908925 27.9293,-87.482505 0.48634,0.90862 0.82233,2.417322 0.82233,5.05559 0,0 0,93.268915 0,95.721535 -4.94054,0 -20.02495,0.005 -20.02495,0.005 L 137.29059,196 l 92.42435,0 0,-25.85973 c 0,0 -17.7449,0 -21.5598,0 -0.0118,-3.26581 -0.0902,-32.09718 -0.10982,-38.82882 5.30268,1.51001 14.64513,8.55019 15.55114,18.60123 l 0.91516,10.13602 22.80964,0 c 0,0 0,-77.615802 0,-78.751904 7.92526,7.680784 8.83388,14.786324 9.25616,18.526704 0,0.009 1.19493,10.45371 1.19493,10.45371 l 22.22787,-0.0353 0,-69.544107 c -0.003,0 -104.06254,0 -114.10312,0 l 0,0 z M 70.231784,71.116325 C 69.218574,67.884512 68.035406,64.10099 68.035406,64.10099 62.539233,46.546967 56.880947,28.460845 56.191964,25.952006 c 0.85894,-0.210486 2.210758,-0.405284 4.728748,-0.474574 2.107477,-0.05491 8.76067,1.511317 9.96737,4.80719 0.137274,0.54648 4.881711,19.534685 5.382432,21.531036 -0.278469,0.886395 -3.393926,10.839384 -6.03873,19.300667 l 0,0 z M 137.67626,31.933213 c 0.0183,-0.07191 -5.88185,21.022469 -10.0262,35.84148 -4.23849,-15.360261 -10.8956,-39.489036 -10.8956,-39.489036 0,0 -0.0471,-0.152962 -0.0667,-0.215715 -0.004,-0.01177 -0.0994,-1.058968 -0.0994,-1.058968 l -0.0275,-0.386981 c -0.001,-0.04314 -0.001,-0.08629 -0.001,-0.132044 0,-0.805338 0.5151,-1.468174 1.01582,-1.5793 0.52033,-0.08236 2.88144,-0.190876 4.72091,-0.224867 0,0 0.34122,-0.0052 0.42358,-0.0078 1.07858,0.09674 7.98017,0.7099 7.98017,0.7099 2.22123,0.234019 7.23368,2.315348 7.75662,3.656707 -0.0353,0.121586 -0.7805,2.886668 -0.7805,2.886668 l 0,0 z m 87.83811,47.58687 -1.75841,8.999918 c -2.11402,10.828929 -10.05104,16.399619 -15.78254,17.398449 -0.017,-6.71856 -0.0876,-33.030642 -0.0876,-33.030642 0,-4.846412 1.17794,-4.846412 3.32987,-4.846412 l 10.91259,0 c 3.52859,0 10.73088,2.217296 19.43272,8.46259 1.44071,1.009288 2.67226,2.015961 3.84104,3.016097 -1.08773,0 -19.88767,0 -19.88767,0 l 0,0 z"
     id="path15"
     style="fill:#ffffff" /><path
     d="m 160.35778,44.792479 4.49343,-14.630749 c 1.94536,-6.130247 3.41876,-6.514613 5.03598,-7.644178 1.61067,-1.132181 6.4427,-3.003024 6.4427,-3.003024 l 0.11505,-15.1458525 -51.16775,0 0,16.4270735 c 0,0 3.60049,0.286313 5.85177,0.520332 2.24737,0.237941 12.61218,3.13376 11.32181,8.623396 -0.20656,0.872014 -0.46281,1.610677 -0.80403,2.983413 -0.12159,0.435353 -9.91639,34.23734 -14.50394,50.644803 -4.66861,-16.921258 -14.33006,-54.173388 -14.33006,-54.173388 l -0.0392,-0.130737 c -0.20525,-0.637995 -0.23271,-1.498243 -0.29285,-2.354569 -0.20264,-2.850061 1.66167,-5.42819 4.21103,-5.991665 1.06943,-0.235326 5.52755,-0.32292 5.52755,-0.32292 l 0,-16.2257385 -118.127189,0 0,17.2480995 6.568215,0 c 0.749121,0 2.340188,1.649898 4.616314,7.572273 0,0 0.07975,0.207872 0.160807,0.415743 0.171265,0.592238 35.904234,123.284759 35.904234,123.284759 l 16.096309,0 c 0,0 13.87117,-44.94338 21.495737,-69.91148 7.249353,24.97203 20.396243,69.77682 20.396243,69.77682 l 16.43884,0 28.35027,-88.805554 0.0667,0 c 2.02773,0 7.41931,0 7.41931,10.469399 l 0,96.981835 c 0,1.38189 -0.15427,2.27482 -0.30331,2.83437 -2.84483,0 -19.75171,0.003 -19.75171,0.003 l -0.13596,17.67561 84.20885,0 0,-17.67692 -19.96743,0 c -0.96745,0 -1.32567,-0.15427 -1.40672,-0.19218 -0.0798,-0.16735 -0.18173,-0.55694 -0.18173,-1.00537 0,-0.0131 -0.0902,-31.71674 -0.12681,-46.14092 0.81318,0 2.22644,0 2.22644,0 6.83623,0 20.30473,9.34245 21.50359,22.65014 l 0.57785,6.40872 14.9759,0 0,-72.340574 -14.34182,0 -1.10996,5.689663 c -2.81738,14.425491 -14.32875,20.915261 -21.60686,20.915261 0,0 -1.43026,0 -2.27221,0 -0.0274,-9.94775 -0.10328,-37.322723 -0.10328,-37.322723 0,-6.264906 2.22383,-8.948931 7.42454,-8.948931 l 10.9126,0 c 4.33392,0 12.34285,2.425167 21.82127,9.231322 14.91968,10.447174 16.1656,21.476126 16.69508,26.185262 l 0.77919,6.81269 14.48041,-0.0235 0,-61.362598 -115.54515,0 0,0 z M 70.231784,84.824073 C 62.951054,61.512403 53.016368,29.940785 52.197956,26.869778 c -0.819719,-3.069699 0.826256,-3.961323 0.817105,-4.093367 1.265531,-0.65107 2.850061,-1.255073 7.794525,-1.389732 2.638268,-0.07321 11.898352,1.60414 13.974452,7.610186 0.130736,0.526869 4.924853,19.705951 5.732806,22.940378 -0.662835,2.133624 -5.429497,17.359226 -10.28506,32.88683 l 0,0 z"
     id="path17" /><path
     d="m 158.11696,51.359386 -1.79633,5.667439 c 10.16479,1.167479 12.32586,10.740024 12.32586,17.390603 l 0,96.981832 c 0,4.93924 -1.44594,9.87455 -6.55121,9.87455 0,0 -9.07575,0.0889 -13.64108,0 l 0,4.06591 70.13112,0 0,-4.06591 -12.93117,0 c -7.85336,0 -8.62994,-6.00735 -8.62994,-8.23772 l -0.14511,-53.18372 9.28753,0 c 10.91652,0 27.01414,12.41346 28.51631,29.06148 l 1.49824,0 0,-58.258918 -1.49824,0 c -3.40962,17.463818 -17.59979,26.603618 -28.51631,26.603618 l -9.29276,0 -0.12159,-44.340673 c 0,-12.961242 8.18935,-16.010023 14.46341,-16.010023 l 10.91259,0 c 6.00736,0 15.28313,2.911508 25.92772,10.553071 18.10573,12.673621 19.09802,27.014135 19.6432,31.652675 l 1.63943,0 0,-47.754214 -111.22167,0 0,0 z"
     id="path19"
     style="fill:#9e7e38;fill-opacity:1;stroke:#9e7e38;stroke-width:1.30736756;stroke-opacity:1" /><path
     d="m 132.31736,10.46493 0,4.799347 c 4.02539,0.736048 9.84971,2.827836 13.26717,5.885768 3.92995,3.142912 4.25548,7.092469 3.19259,11.703554 l -22.48542,75.539691 0,0 -20.22889,-76.992176 c -1.0995,-3.45668 -0.94131,-10.218385 2.2016,-12.891951 1.6669,-1.077271 3.82274,-2.39902 7.38401,-3.204358 l 0,-4.839875 -47.630009,0 0,5.330138 c 5.093503,0.794879 11.107394,3.256652 13.522102,11.201525 L 87.828951,52.147729 70.22394,108.42467 44.602151,26.370364 c -0.94392,-3.617486 0.444505,-6.559063 2.200299,-7.862509 1.611984,-1.192319 4.306469,-2.263053 7.816751,-2.819991 l 0,-5.222934 -43.958926,0 0,4.876481 c 7.368323,0 10.35958,9.27708 11.452539,12.005556 l 34.517118,118.970453 5.595533,0 26.878169,-87.998916 25.514586,87.866866 6.00474,0 37.52145,-118.155957 c 3.67893,-11.600272 9.68236,-12.553343 11.73101,-12.553343 l 0,-5.01114 -37.55806,0 0,0 z"
     id="path21"
     style="fill:#9e7e38;fill-opacity:1;stroke:#9e7e38;stroke-width:1.30736756;stroke-opacity:1" /></svg>