<?xml version="1.0" encoding="UTF-8" standalone="no"?>
<!-- Created with Inkscape (http://www.inkscape.org/) -->

<svg
   xmlns:dc="http://purl.org/dc/elements/1.1/"
   xmlns:cc="http://creativecommons.org/ns#"
   xmlns:rdf="http://www.w3.org/1999/02/22-rdf-syntax-ns#"
   xmlns:svg="http://www.w3.org/2000/svg"
   xmlns="http://www.w3.org/2000/svg"
   version="1.1"
   width="280"
   height="200"
   id="svg2"
   xml:space="preserve"><metadata
     id="metadata8"><rdf:RDF><cc:Work
         rdf:about=""><dc:format>image/svg+xml</dc:format><dc:type
           rdf:resource="http://purl.org/dc/dcmitype/StillImage" /><dc:title></dc:title></cc:Work></rdf:RDF></metadata><defs
     id="defs6"><clipPath
       id="clipPath16"><path
         d="m 167.37,403.767 240.629,0 0,275.692 -240.629,0 0,-275.692 z"
         id="path18" /></clipPath></defs><g
     transform="matrix(1.25,0,0,-1.25,-272.3238,777.01625)"
     id="g10"><g
       transform="matrix(0.58035779,0,0,0.58035779,163.92456,227.28368)"
       id="g12"><g
         clip-path="url(#clipPath16)"
         id="g14"><g
           transform="translate(331.0693,678.4102)"
           id="g20"><path
             d="m 0,0 -96.731,0 0,-64.407 11.207,0 c -9.831,-24.578 -54.557,-130.206 -59.318,-142.105 l -17.81,0 0,-67.082 95.8,0 0,64.177 -6.308,0 2.192,7.802 57.146,0 3.413,-7.802 -9.792,0 0,-64.177 96.082,0 0,65.338 -17.61,0 c -4.76,11.902 -47.708,119.271 -57.539,143.849 l 10.74,0 L 11.472,0 0,0 z m -42.396,-124.916 c 3.118,-7.804 3.564,-8.908 6.272,-15.685 l -12.548,0 c 2.712,6.777 3.152,7.881 6.276,15.685"
             id="path22"
             style="fill:#ffd358;fill-opacity:1;fill-rule:nonzero;stroke:none" /></g><g
           transform="translate(381.5732,458.6831)"
           id="g24"><path
             d="m 0,0 -66.716,166.79 16.212,0 0,41.465 -85.26,0 0,-41.465 16.68,0 L -185.802,0 l -14.719,0 0,-42.396 73.144,0 0,42.396 -13.23,0 11.366,28.422 72.679,0 L -45.19,0 l -12.303,0 0,-42.396 73.145,0 L 15.652,0 0,0 z m -112.842,69.418 19.943,49.852 19.939,-49.852 -39.882,0 z"
             id="path26"
             style="fill:#ffffff;fill-opacity:1;fill-rule:nonzero;stroke:none" /></g><g
           transform="translate(331.0693,679.459)"
           id="g28"><path
             d="m 0,0 -96.731,0 c -0.578,0 -1.05,-0.469 -1.05,-1.049 l 0,-64.407 c 0,-0.581 0.472,-1.048 1.05,-1.048 l 9.652,0 c -6.317,-15.673 -23.755,-57.182 -37.877,-90.791 -9.765,-23.237 -18.227,-43.382 -20.593,-49.219 l -17.103,0 c -0.577,0 -1.048,-0.467 -1.048,-1.047 l 0,-67.082 c 0,-0.577 0.471,-1.049 1.048,-1.049 l 95.8,0 c 0.579,0 1.047,0.472 1.047,1.049 l 0,64.177 c 0,0.58 -0.468,1.049 -1.047,1.049 l -4.923,0 c 0.452,1.618 1.317,4.696 1.6,5.703 l 55.666,0 c 0.371,-0.843 1.735,-3.961 2.496,-5.703 l -8.188,0 c -0.579,0 -1.048,-0.469 -1.048,-1.049 l 0,-64.177 c 0,-0.577 0.469,-1.049 1.048,-1.049 l 96.082,0 c 0.58,0 1.05,0.472 1.05,1.049 l 0,65.338 c 0,0.581 -0.47,1.048 -1.05,1.048 l -16.901,0 C 58.463,-206.962 3.401,-69.312 2.281,-66.504 l 9.191,0 c 0.577,0 1.049,0.467 1.049,1.048 l 0,64.407 C 12.521,-0.469 12.049,0 11.472,0 L 0,0 z m 0,-2.098 10.425,0 0,-62.311 -9.693,0 c -0.346,0 -0.674,-0.172 -0.87,-0.46 -0.116,-0.178 -0.177,-0.382 -0.177,-0.587 0,-0.133 0.024,-0.266 0.072,-0.391 l 57.541,-143.845 c 0.16,-0.399 0.543,-0.658 0.973,-0.658 l 16.564,0 0,-63.246 -93.986,0 0,62.08 8.742,0 c 0.353,0 0.685,0.181 0.878,0.477 0.113,0.173 0.172,0.373 0.172,0.573 0,0.146 -0.029,0.286 -0.089,0.42 l -3.415,7.802 c -0.167,0.379 -0.543,0.627 -0.959,0.627 l -57.146,0 c -0.472,0 -0.884,-0.313 -1.01,-0.766 l -2.19,-7.799 c -0.09,-0.317 -0.025,-0.654 0.173,-0.916 0.199,-0.261 0.506,-0.418 0.835,-0.418 l 5.259,0 0,-62.08 -93.702,0 0,64.985 16.761,0 c 0.428,0 0.814,0.261 0.972,0.661 1.949,4.869 10.705,25.709 20.847,49.846 14.553,34.638 32.669,77.749 38.472,92.257 0.049,0.125 0.074,0.258 0.074,0.391 0,0.205 -0.061,0.409 -0.179,0.587 -0.197,0.288 -0.52,0.46 -0.868,0.46 l -10.159,0 0,62.311 95.683,0 z"
             id="path30"
             style="fill:#373535;fill-opacity:1;fill-rule:nonzero;stroke:none" /></g><g
           transform="translate(287.6992,553.8843)"
           id="g32"><path
             d="m 0,0 -6.274,-15.685 c -0.128,-0.321 -0.088,-0.689 0.106,-0.978 0.197,-0.286 0.52,-0.459 0.867,-0.459 l 12.55,0 c 0.346,0 0.672,0.173 0.869,0.459 0.194,0.289 0.233,0.657 0.103,0.978 L 1.947,0 C 1.785,0.397 1.402,0.66 0.973,0.66 0.545,0.66 0.159,0.397 0,0 m -2.672,-12.322 c 0,0 2.433,6.079 3.645,9.111 1.155,-2.885 4.132,-10.331 4.726,-11.815 l -9.453,0 c 0.49,1.225 1.082,2.704 1.082,2.704"
             id="path34"
             style="fill:#373535;fill-opacity:1;fill-rule:nonzero;stroke:none" /></g><g
           transform="translate(331.0693,667.6372)"
           id="g36"><path
             d="m 0,0 -85.957,0 0,-42.862 16.345,0 c -0.755,-1.89 -65.808,-164.523 -66.157,-165.393 l -14.947,0 0,-43.794 74.541,0 0,43.794 -12.896,0 c 0.705,1.76 10.477,26.198 10.808,27.021 l 71.734,0 c 0.329,-0.823 10.104,-25.261 10.809,-27.021 l -11.967,0 0,-43.794 74.544,0 0,43.794 -15.879,0 c -0.348,0.87 -65.401,163.503 -66.158,165.393 l 15.877,0 L 0.697,0 0,0 z m -0.698,-1.399 0,-40.066 -16.544,0 67.272,-168.186 15.429,0 0,-41 -71.748,0 0,41 12.632,0 -11.926,29.818 -73.626,0 -11.927,-29.818 13.565,0 0,-41 -71.748,0 0,41 14.494,0 67.276,168.186 -17.01,0 0,40.066 83.861,0 z"
             id="path38"
             style="fill:#373535;fill-opacity:1;fill-rule:nonzero;stroke:none" /></g><g
           transform="translate(288.0239,578.2124)"
           id="g40"><path
             d="m 0,0 -20.323,-50.807 41.946,0 L 0.648,1.623 0,0 z m 0.648,-2.143 c 1.19,-2.974 18.196,-45.484 18.908,-47.268 l -37.816,0 c 0.713,1.784 17.717,44.294 18.908,47.268"
             id="path42"
             style="fill:#373535;fill-opacity:1;fill-rule:nonzero;stroke:none" /></g><g
           transform="translate(229.1279,510.9458)"
           id="g44"><path
             d="m 0,0 -1.346,1.484 c 0,0 5.388,4.58 7.341,6.129 1.952,1.549 4.914,1.345 5.318,-1.415 0,0 1.561,2.117 3.032,2.29 2.288,0.266 2.558,-4.312 2.558,-4.312 0,0 1.597,2.071 2.897,3.772 1.751,2.289 3.842,1.684 3.842,-1.414 0,-3.099 -0.472,-11.516 -0.609,-14.208 -0.135,-2.698 1.55,-4.448 2.896,-1.281 l 0.069,-1.417 c 0,0 -0.674,-4.039 -2.965,-4.039 -2.289,0 -3.3,2.896 -3.3,6.398 l 0,8.554 c 0,1.144 -0.605,2.223 -1.616,0.673 -1.01,-1.551 -1.214,-2.358 -1.214,-3.502 l 0,-8.689 c 0,-1.548 -0.942,-2.625 -2.489,-2.625 -1.55,0 -1.886,0.873 -1.886,3.502 l 0,9.292 c 0,1.216 -0.744,3.233 -1.685,1.08 C 9.901,-1.885 9.427,-3.702 9.427,-5.25 l 0,-5.995 c 0,-1.012 -0.132,-2.491 -1.682,-2.491 -1.549,0 -2.357,0.739 -2.357,3.836 l 0,8.823 c 0,3.166 0.403,4.782 -0.134,5.053 C 4.714,4.244 3.772,3.638 0,0"
             id="path46"
             style="fill:#373535;fill-opacity:1;fill-rule:nonzero;stroke:none" /></g><g
           transform="translate(263.0732,506.0972)"
           id="g48"><path
             d="m 0,0 c -0.777,-0.573 -1.821,-0.064 -1.821,2.899 0,2.154 -0.267,4.039 -1.952,4.917 -1.23,0.636 -4.714,0.337 -4.714,-4.984 l 0,-6.534 c 0,-1.147 0.404,-4.178 2.828,-5.324 2.425,-1.144 3.838,0.273 3.838,3.775 l 0,2.294 c 0.81,-0.139 1.438,0.037 2.021,0.266 0.876,0.334 1.685,1.614 1.685,1.614 L 2.087,2.224 C 2.087,2.224 1.28,0.945 0,0 m -4.378,-5.389 c -0.214,-3.494 -1.954,-0.536 -1.954,0.476 l 0,4.244 c 0,1.885 0.964,2.207 1.618,1.88 0.536,-0.266 0.605,-2.153 0.336,-6.6"
             id="path50"
             style="fill:#373535;fill-opacity:1;fill-rule:nonzero;stroke:none" /></g><g
           transform="translate(266.6411,513.0352)"
           id="g52"><path
             d="m 0,0 c -0.606,0.608 -2.022,0.605 -2.022,-1.21 l 0,-11.184 c 0,-1.412 0.741,-3.704 2.697,-3.772 1.45,-0.05 3.635,2.832 3.635,2.832 l -1.009,1.955 c 0,0 -0.608,-1.687 -1.28,-2.022 -0.673,-0.335 -1.55,0 -1.55,2.759 l 0,8.083 C 0.471,-1.347 0.675,-0.675 0,0"
             id="path54"
             style="fill:#373535;fill-opacity:1;fill-rule:nonzero;stroke:none" /></g><g
           transform="translate(272.1602,512.7788)"
           id="g56"><path
             d="m 0,0 c -0.655,0.476 -1.612,0.189 -2.017,-1.496 -0.404,-1.682 -0.606,-8.755 -0.47,-10.709 0.133,-1.95 1.027,-3.912 2.588,-3.801 2.215,0.159 4.213,2.724 4.213,2.724 l -0.538,2.696 c 0,0 -1.564,-2.656 -2.56,-2.829 -1.25,-0.215 -1.682,1.21 -1.415,4.514 0.27,3.297 0.605,5.183 0.675,6.195 C 0.544,-1.696 0.741,-0.537 0,0"
             id="path58"
             style="fill:#373535;fill-opacity:1;fill-rule:nonzero;stroke:none" /></g><g
           transform="translate(278.5986,513.0171)"
           id="g60"><path
             d="m 0,0 c -0.774,0.416 -1.982,0.466 -2.271,-2.503 -0.244,-2.489 -0.7,-6.637 -0.642,-9.316 0.058,-2.681 0.523,-3.729 1.397,-4.252 0.873,-0.527 1.338,0.129 1.575,2.212 0.347,3.085 0.521,5.475 0.581,6.407 0.06,0.931 1.921,2.037 1.862,0.289 -0.057,-1.744 -0.288,-4.484 0.468,-6.463 0.756,-1.978 3.553,-2.213 6.114,1.456 L 8.793,-8.5 c 0,0 -0.99,-2.274 -2.038,-3.032 -1.049,-0.753 -1.69,-0.463 -1.69,2.217 0,2.678 0.12,6.696 0.175,8.153 C 5.299,0.291 4.891,1.285 3.551,0.41 2.211,-0.465 0.7,-2.327 0.7,-2.327 c 0,0 0.056,1.92 -0.7,2.327"
             id="path62"
             style="fill:#373535;fill-opacity:1;fill-rule:nonzero;stroke:none" /></g><g
           transform="translate(311.4414,512.0879)"
           id="g64"><path
             d="m 0,0 c -0.771,0.413 -1.978,0.467 -2.269,-2.505 -0.243,-2.49 -0.698,-6.637 -0.64,-9.315 0.057,-2.682 0.524,-3.731 1.399,-4.253 0.872,-0.525 1.332,0.129 1.571,2.212 0.348,3.087 0.521,5.475 0.582,6.406 0.058,0.933 1.92,2.038 1.865,0.29 -0.061,-1.746 -0.292,-4.482 0.465,-6.465 0.757,-1.979 3.462,-3.111 6.024,0.558 l -0.288,3.671 c 0,0 -0.994,-2.275 -2.041,-3.029 -1.05,-0.756 -1.597,0.433 -1.597,3.113 0,2.68 0.115,6.696 0.171,8.153 C 5.301,0.292 4.896,1.283 3.555,0.407 2.216,-0.467 0.701,-2.33 0.701,-2.33 c 0,0 0.06,1.923 -0.701,2.33"
             id="path66"
             style="fill:#373535;fill-opacity:1;fill-rule:nonzero;stroke:none" /></g><g
           transform="translate(293.2725,501.6641)"
           id="g68"><path
             d="m 0,0 c 0,0 -0.349,-1.457 -1.221,-2.389 -0.875,-0.933 -2.446,-0.988 -2.446,3.32 0,2.033 0.168,5.162 0.37,8.092 0.365,0.003 0.689,0.003 0.91,0.003 1.104,0 2.505,0.755 1.104,1.165 -0.901,0.263 -1.131,0.284 -1.912,0.266 0.2,2.705 0.411,5.035 0.517,5.849 0.234,1.804 0.351,2.329 -0.64,2.794 -0.735,0.346 -1.923,0.757 -1.923,-1.281 0,-1.872 -0.294,-4.49 -0.384,-7.433 -0.886,-0.084 -1.613,-0.381 -2.41,-0.429 -0.933,-0.058 -1.34,-1.164 -0.059,-1.049 0.547,0.05 1.469,0.079 2.43,0.095 -0.117,-3.43 -0.684,-9.554 0.25,-11.856 0.989,-2.447 2.214,-3.265 3.845,-2.392 1.628,0.874 2.559,3.206 2.559,3.206 L 0,0 z"
             id="path70"
             style="fill:#373535;fill-opacity:1;fill-rule:nonzero;stroke:none" /></g><g
           transform="translate(303.7549,500.6709)"
           id="g72"><path
             d="m 0,0 c 0,0 -1.032,-0.836 -1.747,-0.915 -0.718,-0.078 -1.391,0.953 -1.193,2.983 0.197,2.033 0.435,4.616 0.634,5.772 0.2,1.15 0.437,1.59 -0.037,1.789 0,0 -0.957,0.435 -1.354,1.032 -0.398,0.596 -1.114,1.472 -1.87,1.752 -0.758,0.275 -3.221,0.358 -4.217,-5.572 -0.993,-5.925 0.111,-9.428 1.153,-10.58 1.553,-1.709 4.217,1.114 4.217,1.114 0,0 2.427,-1.354 5.172,0.557 L 0,0 z m -5.567,1.871 c 0.038,-1.432 -0.557,-2.587 -1.234,-2.746 -0.674,-0.16 -1.512,1.633 -0.915,5.489 0.599,3.861 1.155,4.972 2.508,4.376 0,0 -0.397,-5.689 -0.359,-7.119"
             id="path74"
             style="fill:#373535;fill-opacity:1;fill-rule:nonzero;stroke:none" /></g><g
           transform="translate(305.3091,511.8501)"
           id="g76"><path
             d="m 0,0 c -1.235,0.194 -2.07,-0.599 -2.07,-3.661 0,-3.062 -0.08,-6.843 0.239,-8.433 0.322,-1.59 0.954,-3.025 2.426,-3.143 1.989,-0.157 3.58,2.07 3.58,2.07 l -0.795,1.748 c 0,0 -0.677,-0.956 -1.273,-1.391 -0.597,-0.438 -1.831,-0.235 -1.75,3.185 0.079,3.418 0.238,5.684 0.437,6.998 C 0.996,-1.312 0.757,-0.119 0,0"
             id="path78"
             style="fill:#373535;fill-opacity:1;fill-rule:nonzero;stroke:none" /></g><g
           transform="translate(306.9785,517.2603)"
           id="g80"><path
             d="m 0,0 c 0,-1.034 -0.783,-1.868 -1.749,-1.868 -0.967,0 -1.751,0.834 -1.751,1.868 0,1.033 0.784,1.871 1.751,1.871 C -0.783,1.871 0,1.033 0,0"
             id="path82"
             style="fill:#373535;fill-opacity:1;fill-rule:nonzero;stroke:none" /></g><g
           transform="translate(327.0088,501.457)"
           id="g84"><path
             d="m 0,0 c -1.079,-1.978 -2.205,-3.961 -3.781,-3.734 -0.913,0.132 -1.463,1.391 -1.732,3.323 5.961,3.877 5.517,11.179 2.59,12.554 -2.97,1.396 -5.736,-2.788 -5.736,-8.996 0,-10.343 5.599,-8.952 6.681,-8.097 1.079,0.854 2.562,3.238 2.562,3.238 L 0,0 z m -5.669,4.678 c 0.225,4.991 1.664,6.249 2.295,5.844 0.631,-0.404 0.765,-2.112 0.268,-4.181 -0.409,-1.714 -2.032,-3.771 -2.586,-4.439 -0.026,0.867 -0.02,1.787 0.023,2.776"
             id="path86"
             style="fill:#373535;fill-opacity:1;fill-rule:nonzero;stroke:none" /></g><g
           transform="translate(348.4238,510.835)"
           id="g88"><path
             d="m 0,0 c -0.523,0.349 0,0.874 -0.523,1.31 -0.526,0.437 -1.048,0.437 -1.663,-1.485 -0.609,-1.923 -1.394,-7.687 -3.319,-10.656 -1.923,-2.97 -3.229,-1.137 -3.142,0.61 0.085,1.744 0.874,6.115 1.219,7.775 0.352,1.66 -0.086,2.183 -0.697,2.183 -0.609,0 -1.486,0.439 -2.271,1.049 -0.786,0.612 -1.308,0.524 -1.308,-0.176 0,-0.697 -0.176,-3.231 -1.398,-7.686 -1.226,-4.455 -3.234,-6.036 -4.317,-6.036 -0.923,0 -1.466,1.391 -1.733,3.323 5.64,3.996 5.513,11.176 2.588,12.554 -2.971,1.396 -5.77,-2.787 -5.77,-8.995 0,-10.344 5.061,-9.563 6.277,-8.883 3.741,2.098 4.963,9.697 4.963,9.697 l 0.873,-0.262 -0.439,-2.969 c -0.434,-2.972 -0.082,-4.632 1.313,-5.769 1.398,-1.134 4.28,-0.26 4.28,-0.26 0,0 1.659,-1.487 3.496,-1.487 1.833,0 2.358,2.45 2.358,4.719 0,2.27 0.085,7.076 0.085,8.472 C 0.872,-1.571 0.523,-0.351 0,0 m -19.309,-4.7 c 0.225,4.992 1.665,6.249 2.294,5.845 0.63,-0.405 0.765,-2.113 0.271,-4.182 -0.41,-1.714 -2.035,-3.771 -2.586,-4.439 -0.027,0.867 -0.024,1.788 0.021,2.776 m 16.95,-9.101 c -1.311,-0.79 -2.186,1.308 -2.186,1.308 0.875,1.049 2.274,3.846 2.274,3.846 0.959,-1.838 1.222,-4.368 -0.088,-5.154"
             id="path90"
             style="fill:#373535;fill-opacity:1;fill-rule:nonzero;stroke:none" /></g></g></g></g></svg>