<?xml version="1.0" encoding="UTF-8" standalone="no"?>
<!-- Created with Inkscape (http://www.inkscape.org/) -->

<svg
   xmlns:dc="http://purl.org/dc/elements/1.1/"
   xmlns:cc="http://creativecommons.org/ns#"
   xmlns:rdf="http://www.w3.org/1999/02/22-rdf-syntax-ns#"
   xmlns:svg="http://www.w3.org/2000/svg"
   xmlns="http://www.w3.org/2000/svg"
   version="1.1"
   width="280"
   height="200"
   id="svg2"
   xml:space="preserve"><metadata
     id="metadata8"><rdf:RDF><cc:Work
         rdf:about=""><dc:format>image/svg+xml</dc:format><dc:type
           rdf:resource="http://purl.org/dc/dcmitype/StillImage" /><dc:title></dc:title></cc:Work></rdf:RDF></metadata><defs
     id="defs6"><clipPath
       id="clipPath16"><path
         d="m 0,747 1098.75,0 0,-747 L 0,0 0,747 z"
         id="path18" /></clipPath></defs><g
     transform="matrix(1.25,0,0,-1.25,-555.07813,566.54576)"
     id="g10"><g
       transform="matrix(0.25773048,0,0,0.25773048,412.74825,275.95643)"
       id="g12"><g
         clip-path="url(#clipPath16)"
         id="g14"><g
           transform="translate(200.125,652.5)"
           id="g20"><path
             d="m 0,0 150.688,0 31.875,-31.875 218.812,0 15.188,-15.375 c 0.824,17.025 7.312,34.65 11.812,44.55 4.5,9.9 7.95,18.75 11.55,21 3.6,2.25 9.3,5.25 10.8,5.25 1.5,0 9.15,-4.65 11.7,-7.05 2.55,-2.4 9.188,-9.977 15.6,-13.35 6.714,-3.533 19.833,-6.451 29.25,-14.55 4.05,4.35 10.95,10.5 10.95,10.5 l 16.95,-9.9 c 0,0 3.9,7.35 17.55,19.8 4.5,-4.5 13.5,-13.5 17.4,-19.35 6.3,3.9 13.65,7.8 17.25,9.6 4.2,-4.2 10.65,-10.65 10.65,-10.65 5.4,5.25 10.5,6.75 17.4,9.75 6.9,3 8.964,0.925 19.5,10.65 3.9,3.6 6.771,7.286 9.879,9.321 3.107,2.036 8.129,5.642 9.75,5.679 1.169,0.027 3.888,-1.918 6.321,-3.187 2.875,-1.5 6.813,-3.313 10.563,-11.938 3.75,-8.625 17.187,-36.175 17.187,-57.625 0,-14.7 -5.125,-30.25 -7.5,-34.625 11.25,-7.375 19.227,-18.083 24.625,-29.875 5.709,-12.473 23.975,-78.15 28.025,-88.65 -10.05,10.95 -27.15,30.025 -27.15,30.025 -0.125,-6.375 -0.419,-21.238 -3,-25.625 -3.75,-6.375 -5.5,-8.625 -11.375,-13.25 -4.5,-11.375 -10.5,-16.375 -28.25,-27 9.125,-0.125 126.5,0 126.5,0 l 0,-111.125 -24.875,0 24.875,-25 0,-137.625 -144.5,0 -26.25,26.125 0,-10.875 -138.125,0 0,49.875 -6.25,-49.875 -198.875,0 0,15.625 -15.5,-15.5 -80.625,0 -28.75,29 0,63 -20.125,-107 -157.875,0 -52.25,273.5 78.625,0 0,41.125 9.75,0 0,119 L 0,-77.5 0,0 z"
             id="path22"
             style="fill:#231f20;fill-opacity:1;fill-rule:nonzero;stroke:none" /></g><g
           transform="translate(214.3125,638.0625)"
           id="g24"><path
             d="m 0,0 130.875,0 25.313,-25.125 0,-84.938 -17.813,-17.812 30.75,-73.125 0,169.312 110.063,0 0,-49.687 -60.188,0 0,-24.938 45.188,0 0,-50.25 -45,0 0,-24.562 59.812,0 0,-50.438 -97.125,0 6.188,-14.25 -37.5,0 -44.813,-237 -59.625,0 -8.062,40.5 -7.5,-40.312 -59.813,0 -46.5,245.062 75.75,0 0,41.25 9.938,0 0,147 -9.938,0 L 0,0 z"
             id="path26"
             style="fill:#ffffff;fill-opacity:1;fill-rule:nonzero;stroke:none" /></g><g
           transform="translate(224.25,628.05)"
           id="g28"><path
             d="m 0,0 117.15,0 18.9,-19.2 0,-76.95 -19.8,-19.8 46.8,-109.5 -62.85,0 0,28.8 14.4,0 -32.7,75.75 -39.9,0 0,-75.3 10.05,0 0,-29.1 -51.9,0 0,29.1 9.45,0 0,167.55 -9.6,0 L 0,0 z"
             id="path30"
             style="fill:#cd2531;fill-opacity:1;fill-rule:nonzero;stroke:none" /></g><g
           transform="translate(266.25,599.25)"
           id="g32"><path
             d="m 0,0 51.45,0 9.9,-9.45 0,-43.8 -9,-9.45 -52.5,0 L 0,0 z"
             id="path34"
             style="fill:#ffffff;fill-opacity:1;fill-rule:nonzero;stroke:none" /></g><g
           transform="translate(276.5999,588.8999)"
           id="g36"><path
             d="m 0,0 37.35,0 4.05,-3.75 0,-34.8 L 37.5,-42.6 0,-42.6 0,0 z"
             id="path38"
             style="fill:#231f20;fill-opacity:1;fill-rule:nonzero;stroke:none" /></g><path
           d="m 290.7,574.5 13.05,0 0,-14.1 -13.05,0 0,14.1 z"
           id="path40"
           style="fill:#ffffff;fill-opacity:1;fill-rule:nonzero;stroke:none" /><g
           transform="translate(276.5999,497.25)"
           id="g42"><path
             d="m 0,0 23.25,0 23.25,-55.5 -8.85,0 0,-41.25 -28.2,0 0,41.25 L 0,-55.5 0,0 z"
             id="path44"
             style="fill:#231f20;fill-opacity:1;fill-rule:nonzero;stroke:none" /></g><g
           transform="translate(290.3999,482.8501)"
           id="g46"><path
             d="M 0,0 0,-27 11.4,-27 0,0 z"
             id="path48"
             style="fill:#ffffff;fill-opacity:1;fill-rule:nonzero;stroke:none" /></g><g
           transform="translate(393.5,596.5)"
           id="g50"><path
             d="m 0,0 90.25,0 0,-29.5 -60.25,0 0,-45.5 45.25,0 0,-30 -45,0 0,-44.75 60,0 0,-29.75 L 0,-179.5 0,0 z"
             id="path52"
             style="fill:#cd2531;fill-opacity:1;fill-rule:nonzero;stroke:none" /></g><g
           transform="translate(506.3999,606.1499)"
           id="g54"><path
             d="m 0,0 89.7,0 20.4,-20.55 0,-158.35 -20.75,-20.625 -89.375,0 L 0,0 z"
             id="path56"
             style="fill:#ffffff;fill-opacity:1;fill-rule:nonzero;stroke:none" /></g><g
           transform="translate(516.375,596.375)"
           id="g58"><path
             d="M 0,0 75.375,0 90,-15.125 90,-164.625 75.375,-179.5 0,-179.5 0,0 z"
             id="path60"
             style="fill:#cd2531;fill-opacity:1;fill-rule:nonzero;stroke:none" /></g><path
           d="m 546.75,566.813 29.813,0 0,-119.813 -29.813,0 0,119.813 z"
           id="path62"
           style="fill:#ffffff;fill-opacity:1;fill-rule:nonzero;stroke:none" /><path
           d="m 556.313,556.5 10.688,0 0,-99.563 -10.688,0 0,99.563 z"
           id="path64"
           style="fill:#231f20;fill-opacity:1;fill-rule:nonzero;stroke:none" /><g
           transform="translate(150.5999,390.6001)"
           id="g66"><path
             d="m 0,0 64.5,0 0,-31.95 -21.75,0 25.2,-132.15 18,89.4 31.95,0 16.65,-85.95 25.65,128.7 -20.55,0 0,32.1 64.35,0 -42.9,-225.45 -43.05,0 -16.65,83.85 -15.45,-83.85 -42.9,0 L 0,0 z"
             id="path68"
             style="fill:#cd2531;fill-opacity:1;fill-rule:nonzero;stroke:none" /></g><g
           transform="translate(225.1499,392.3999)"
           id="g70"><path
             d="m 0,0 54.75,0 0,-44.25 18.3,0 -12.75,-65.25 -8.4,42.6 -49.05,0 -9,-46.8 -13.35,69.6 19.35,0 L 0,0 z"
             id="path72"
             style="fill:#231f20;fill-opacity:1;fill-rule:nonzero;stroke:none" /></g><path
           d="m 239.25,378.45 26.7,0 0,-38.85 -26.7,0 0,38.85 z"
           id="path74"
           style="fill:#ffffff;fill-opacity:1;fill-rule:nonzero;stroke:none" /><g
           transform="translate(386.625,370.5)"
           id="g76"><path
             d="m 0,0 69,0 20.5,-20.75 0,-158.375 -20.875,-20.875 -68.5,0 -20.75,20.75 0,158.75 L 0,0 z"
             id="path78"
             style="fill:#ffffff;fill-opacity:1;fill-rule:nonzero;stroke:none" /></g><g
           transform="translate(391,360.5)"
           id="g80"><path
             d="M 0,0 60.25,0 75,-14.75 l 0,-150.125 -14.875,-15 -60.125,0 -15.125,15.125 0,149.75 L 0,0 z"
             id="path82"
             style="fill:#cd2531;fill-opacity:1;fill-rule:nonzero;stroke:none" /></g><path
           d="m 406,330.438 29.75,0 0,-119.938 -29.75,0 0,119.938 z"
           id="path84"
           style="fill:#ffffff;fill-opacity:1;fill-rule:nonzero;stroke:none" /><path
           d="m 416.063,320.438 9.75,0 0,-99.938 -9.75,0 0,99.938 z"
           id="path86"
           style="fill:#231f20;fill-opacity:1;fill-rule:nonzero;stroke:none" /><g
           transform="translate(490.6069,370.5)"
           id="g88"><path
             d="m 0,0 50.357,0 0,-150 54.857,0 -19.821,150 50.4,0 6.15,-52.5 5.85,52.5 50.55,0 -25.8,-200.1 -60.9,0 -1.2,7.2 -0.15,-7.2 -110.4,0 L 0,0 z"
             id="path90"
             style="fill:#ffffff;fill-opacity:1;fill-rule:nonzero;stroke:none" /></g><g
           transform="translate(500.6997,360.75)"
           id="g92"><path
             d="m 0,0 30.45,0 0,-150.45 59.7,0 0,-29.7 -90.15,0 L 0,0 z"
             id="path94"
             style="fill:#cd2531;fill-opacity:1;fill-rule:nonzero;stroke:none" /></g><g
           transform="translate(587.375,360.5)"
           id="g96"><path
             d="m 0,0 30.375,0 14.375,-129.5 15.5,129.625 30.125,0 -23.75,-180 -43.25,0 L 0,0 z"
             id="path98"
             style="fill:#cd2531;fill-opacity:1;fill-rule:nonzero;stroke:none" /></g><g
           transform="translate(695.8125,370.5)"
           id="g100"><path
             d="m 0,0 110.25,0 0,-50.25 -60.187,0 0,-24.563 45.187,0 0,-50.25 -45.187,0 0,-24.937 60,0 0,-50.063 L 0,-200.063 0,0 z"
             id="path102"
             style="fill:#ffffff;fill-opacity:1;fill-rule:nonzero;stroke:none" /></g><g
           transform="translate(705.5625,360.5625)"
           id="g104"><path
             d="m 0,0 90.375,0 0,-29.625 -60.375,0 0,-45.375 45.375,0 0,-29.625 -45.562,0 0,-45.75 60.187,0 0,-29.438 -90,0 L 0,0 z"
             id="path106"
             style="fill:#cd2531;fill-opacity:1;fill-rule:nonzero;stroke:none" /></g><g
           transform="translate(804.9375,276.375)"
           id="g108"><path
             d="m 0,0 -0.188,-24.563 24.563,0 L 0,0 z"
             id="path110"
             style="fill:#ffffff;fill-opacity:1;fill-rule:nonzero;stroke:none" /></g><g
           transform="translate(857.0625,400.6875)"
           id="g112"><path
             d="m 0,0 119.25,0 0,-83.25 -56.062,0 0,25.5 -5.063,5.062 -35.437,0 -5,-5.375 0,-33.5 4.75,-5.375 66.125,0 30.875,-30.75 0,-118.375 -124.626,0 -33,33.25 0,49.875 56.001,0 0,-25.375 4.5,-5.125 41.375,0 0,39.25 -5.25,4.875 -66.001,0 -30.625,30.75 0,86.5 L 0,0 z"
             id="path114"
             style="fill:#ffffff;fill-opacity:1;fill-rule:nonzero;stroke:none" /></g><g
           transform="translate(930.5996,327.6001)"
           id="g116"><path
             d="m 0,0 35.7,0 0,63 -105.45,0 -31.95,-27 0,-77.1 25.05,-24.75 66.15,0 10.65,-10.95 0,-53.55 -55.8,0 -10.35,10.05 0,20.4 -35.85,0 0,-35.1 27.15,-27.45 110.7,0 0,103.2 -24.9,24.9 -66.6,0 -10.5,10.95 0,43.05 10.5,10.5 45,0 L 0,19.35 0,0 z"
             id="path118"
             style="fill:#cd2531;fill-opacity:1;fill-rule:nonzero;stroke:none" /></g><path
           d="m 888.75,333.9 17.7,0 0,-16.05 -17.7,0 0,16.05 z"
           id="path120"
           style="fill:#ffffff;fill-opacity:1;fill-rule:nonzero;stroke:none" /><path
           d="m 888.75,237.15 17.85,0 0,-16.05 -17.85,0 0,16.05 z"
           id="path122"
           style="fill:#ffffff;fill-opacity:1;fill-rule:nonzero;stroke:none" /><g
           transform="translate(417.4063,392.75)"
           id="g124"><path
             d="m 0,0 184.469,0 29.375,29.25 13.625,-10.25 0.125,2.625 5.437,-5.344 C 233.5,1.75 238.75,-3.5 252.25,-8 l -109.781,0 19.594,-150 -24.469,0 0,150 -78.281,0 0,-15.375 -15.563,15.469 -40.5,0 L 0,0 z"
             id="path126"
             style="fill:#ffffff;fill-opacity:1;fill-rule:nonzero;stroke:none" /></g><g
           transform="translate(806.5713,384.6426)"
           id="g128"><path
             d="m 0,0 c 0,0 4.623,11.563 5.679,13.607 0.897,1.737 4.908,-0.042 8.013,-2.008 2.672,-1.692 3.281,-5.126 2.379,-6.027 -3.107,-3.108 -6.75,-5.679 -6.75,-5.679 L 0,0 z"
             id="path130"
             style="fill:#ffffff;fill-opacity:1;fill-rule:nonzero;stroke:none" /></g><g
           transform="translate(595.875,493.3125)"
           id="g132"><path
             d="m 0,0 c 9.938,37.5 13.973,47.894 28.313,62.063 8.803,8.698 11.169,7.446 11.491,12.053 0.321,4.607 -8.465,15 -8.465,35.25 0,22.822 15,51 16.607,54.75 1.608,3.75 3.858,6.75 6.643,6.75 4.286,0 8.145,-7.462 15.429,-13.072 17.25,-13.285 24.321,-7.285 42.428,-25.071 3.446,3.658 11.786,12.857 11.786,12.857 0,0 8.143,-5.357 10.286,-6.428 2.143,-1.072 3.215,-1.995 5.786,-1.929 4.178,0.107 6.107,3.536 9.214,7.607 3.107,4.072 7.178,8.143 7.178,8.143 0,0 6.643,-6.964 8.572,-9.964 1.928,-3 4.714,-5.63 7.714,-5.571 5.464,0.106 8.25,3.642 16.5,8.25 3.75,-3.644 11.893,-13.072 11.893,-13.072 3.964,3.964 8.508,8.677 17.25,12.964 11.143,5.464 18.088,4.096 32.571,19.714 3.349,3.612 5.992,5.706 8.429,5.706 2.438,0 5.125,-3.062 8.75,-12.062 3.625,-9 13.625,-30 13.625,-49.875 0,-15.59 -4.339,-23.911 -5.625,-27.019 -1.286,-3.106 -2.496,-4.822 -2.571,-7.928 -0.108,-4.393 6.04,-6.425 10.928,-11.143 13.166,-12.707 16.393,-18.91 28.893,-62.66 -6.125,7.125 -13.25,15 -13.25,15 2.25,-12.25 1.25,-20.626 0,-30.376 -3.5,3.625 -6.875,7 -6.875,7 4.875,-8.125 6.125,-13.285 6.125,-18.643 0,-5.357 -1.607,-9.75 -9.536,-16.928 -0.857,0.964 -1.5,1.928 -1.5,1.928 -1.5,-9.214 -7.285,-15.964 -18.75,-23.571 -0.857,2.464 -2.143,5.25 -2.143,5.25 -3.535,-4.929 -9.214,-10.071 -11.893,-12.643 -2.678,-2.571 -6.857,-5.893 -7.392,-11.786 -0.536,-5.892 0.964,-8.678 -11.143,-14.571 -1.393,6.214 -2.786,8.357 -6.536,10.286 -3.75,1.928 -8.573,5.492 -15.75,5.357 -5.678,-0.107 -5.893,-1.822 -7.714,-6 -1.822,-4.179 -9.643,-22.286 -9.643,-22.286 0.964,-2.893 4.286,-17.143 -12.429,-22.5 -3.964,-6.857 -11.678,-8.143 -14.892,-9.643 -0.75,3.322 -2.358,6.857 -2.358,6.857 -3.107,-6.321 -6.107,-12.214 -10.928,-12.214 -4.822,0 -7.607,4.072 -11.464,12.429 -1.179,-4.393 -2.143,-8.036 -2.143,-8.036 -7.5,3.107 -12.215,6.75 -18.215,12.107 -8.571,2.25 -11.142,9.214 -9.535,21.107 -6.215,15.215 -7.607,18.75 -9.429,22.5 -1.821,3.75 -3.321,5.786 -7.928,5.786 -4.608,0 -19.5,-6.536 -20.25,-10.286 -0.75,-3.75 -1.393,-6 -1.393,-6 -8.143,5.036 -11.384,5.785 -11.679,13.607 -0.214,5.679 -0.857,7.286 -3.428,9.858 -2.572,2.571 -12.108,10.071 -15.536,16.071 -0.965,-2.893 -1.607,-5.464 -1.607,-5.464 -5.893,3.428 -15.215,8.035 -19.822,23.357 -0.107,-1.393 -0.428,-1.607 -0.428,-1.607 -5.893,4.5 -9.429,16.714 -9.429,16.714 L 11.25,12.75 C 11.25,12.75 4.079,4.597 0,0"
             id="path134"
             style="fill:#ffffff;fill-opacity:1;fill-rule:nonzero;stroke:none" /></g><g
           transform="translate(680.125,384.625)"
           id="g136"><path
             d="M 0,0 19,0 C 16.125,6.125 13.875,14.25 12.875,14.5 11.875,14.75 3.625,11.375 3,9.5 2.375,7.625 0,0 0,0"
             id="path138"
             style="fill:#ffffff;fill-opacity:1;fill-rule:nonzero;stroke:none" /></g><g
           transform="translate(650.25,658.5)"
           id="g140"><path
             d="m 0,0 c 26.4,-29.4 37.5,-15.9 56.1,-39 6.385,1.2 14.293,12.75 14.293,12.75 3.964,-2.571 9.968,-6.969 15.321,-7.179 5.465,-0.214 9.643,3.429 16.393,13.607 3.214,-4.607 9.536,-13.714 15.857,-13.714 6.322,0 16.5,7.393 16.5,7.393 3.965,-4.929 6.536,-9.75 13.929,-12.964 21.536,25.821 27.536,7.607 56.25,39.107 6.321,-11.893 17.607,-38 17.607,-55.625 0,-22.375 -8.25,-28.75 -8.25,-35.5 0,-6.75 3.625,-7.875 9.125,-12.125 4.42,-3.416 17.625,-14.125 23.5,-39.75 -7.5,8.625 -14.5,9.875 -14.5,9.875 6.125,-10.125 10.875,-18.75 9.5,-35.25 -21.5,17.75 -40.75,30.625 -72.875,33.125 -16.625,-17.125 -26.625,-18.75 -41.5,-20.875 4.25,-3.25 8.5,-4.526 11.875,-4.5 16.25,0.125 18.625,18.875 33.125,18.875 14.875,0 67.5,-22.125 67.5,-49.25 0,-7.125 -4.25,-10.625 -4.25,-10.625 -2,2.75 -7.375,9.5 -7.375,9.5 4.5,-15.5 -2.875,-23.875 -10.125,-30.125 -2.125,4.25 -4.875,8.625 -4.875,8.625 -2.625,-8.25 -7,-11.5 -12.375,-17.25 -5.375,-5.75 -11.5,-8.5 -12,-18.25 -0.359,-7.009 -2.5,-7.25 -2.5,-7.25 -4.375,7.75 -17.5,13.375 -25.625,13.375 -6.375,0 -10.187,-3.688 -10.812,-5.188 -1.485,-3.562 -12.5,-28.437 -12.5,-28.437 2.25,-4.375 2.25,-12.313 -3.813,-16.438 -0.375,2.188 -2.687,7.063 -4.187,7.75 -0.813,-11.312 -4.625,-12.75 -9.688,-16.812 -1.312,3.375 -3.625,7.375 -7,9.312 -2.625,-4.687 -8.312,-16.125 -10.437,-16.125 -2.125,0 -10.313,15.938 -10.313,15.938 -2.625,-1.375 -4.937,-5.375 -6.625,-9.5 -2.812,1.812 -10.125,5.812 -9.437,17.062 -3.5,-2.375 -4.313,-6.875 -4.313,-8.062 -3.5,1.687 -7.312,7.75 -4.312,17.062 -3.25,7.063 -7.813,18.5 -10.313,23.875 -2.5,5.375 -5,9.313 -13.312,9.313 -8.313,0 -20.313,-5.25 -25.375,-13.375 -4,1.687 -0.162,10.747 -5.375,16.562 -12.284,13.704 -15.376,12.563 -21.313,25.813 -2.25,-3.875 -4.75,-8.25 -4.75,-8.25 -5.188,3.5 -16.125,16.937 -10,30 -3.875,-4.563 -7.313,-9.188 -7.313,-9.188 -3.5,3 -4.437,5.938 -4.437,10.625 0,24.638 47.75,49.013 68,49.013 13.5,0 16,-18.575 32.25,-18.575 5.875,0 12.875,4.625 12.875,4.625 -10.875,0.125 -22.875,1.75 -42.625,20.25 -34.375,-2.5 -54.75,-18.5 -72.625,-33.25 -0.75,16.625 4.125,29.625 9.875,36 -8.25,-3.375 -11.875,-6.5 -15.5,-10.375 8.125,27 18.125,35.294 26.5,41.875 5.25,4.125 6.875,4.875 6.875,10.375 0,6.625 -8.5,15.75 -8.25,35.5 0.221,17.499 7.9,35.75 17.625,55.625"
             id="path142"
             style="fill:#231f20;fill-opacity:1;fill-rule:nonzero;stroke:none" /></g><g
           transform="translate(650.875,641.75)"
           id="g144"><path
             d="M 0,0 C 13.875,-22.5 24,-20.375 26,-43 17.625,-26.875 2.375,-23.625 0.375,-14.75 -3.75,-20 -4.125,-31.375 6.25,-44.125 c -4.125,1.25 -8.5,3.625 -8.5,3.625 4.125,-6 16.875,-18 12,-34 -5.625,-0.125 -10,-1.125 -12.25,-2.125 2,17.375 -6.25,24.875 -6.25,39.875 0,15 6.25,30.75 8.75,36.75"
             id="path146"
             style="fill:#cd2531;fill-opacity:1;fill-rule:nonzero;stroke:none" /></g><g
           transform="translate(676.25,627.375)"
           id="g148"><path
             d="m 0,0 c 22.5,-9.125 26.75,-22.25 22.625,-48.375 4.25,0.75 5.25,0.25 9.25,-0.25 -4.75,-3.625 -14.25,-11.75 -18.375,-22.625 -7.125,6 -15.75,8.375 -18.875,9 C 1.75,-55.125 21.125,-28.875 0,0"
             id="path150"
             style="fill:#cd2531;fill-opacity:1;fill-rule:nonzero;stroke:none" /></g><g
           transform="translate(827.125,627.5)"
           id="g152"><path
             d="M 0,0 C -18.75,-23.75 -5.875,-50.75 5.25,-62.125 -1.625,-63.75 -10,-67.25 -12.875,-70.5 c -5.25,9.375 -12.875,17.625 -20.375,22.5 3.125,1.25 10.875,-0.625 10.875,-0.625 C -25.25,-30.375 -28.25,-11.375 0,0"
             id="path154"
             style="fill:#cd2531;fill-opacity:1;fill-rule:nonzero;stroke:none" /></g><g
           transform="translate(852.75,639.75)"
           id="g156"><path
             d="m 0,0 c 3.625,-9.625 9.125,-23.75 9.125,-38.5 0,-14.75 -7.75,-26.25 -6.625,-38 -4.125,1.625 -10.5,2.75 -13.125,2.75 -1.375,8.875 2,21.375 13,33.5 -5.5,-4.125 -7.875,-2.625 -8.5,-2.625 4.5,5.75 12.5,13.625 6.125,28.125 C -2.125,-21.375 -7.25,-23.25 -12.875,-28 -18.5,-32.75 -24,-38 -25.75,-43.875 -24.875,-20.875 -8.625,-17.25 0,0"
             id="path158"
             style="fill:#cd2531;fill-opacity:1;fill-rule:nonzero;stroke:none" /></g><g
           transform="translate(727.875,403.75)"
           id="g160"><path
             d="m 0,0 c 7.875,-2.375 40.25,-4.125 49.5,0.125 -2.75,-5.25 -7.125,-13.5 -7.125,-13.5 l -4.25,8 -5,-4.375 -3.875,4.125 -4.625,-3.125 -4,3.125 -4,-4.375 -5.5,5 -4.5,-8 c 0,0 -4,8 -6.625,13"
             id="path162"
             style="fill:#ffffff;fill-opacity:1;fill-rule:nonzero;stroke:none" /></g><g
           transform="translate(738.6426,384.2144)"
           id="g164"><path
             d="m 0,0 c 1.072,1.071 3.536,3.428 3.536,3.428 l 3.643,-3.535 3.75,4.071 3.107,-3.428 2.893,3.214 3.428,-3.536 4.5,3.429 2.893,-3.75 C 22.929,-4.286 8.143,-5.893 0,0"
             id="path166"
             style="fill:#ffffff;fill-opacity:1;fill-rule:nonzero;stroke:none" /></g><g
           transform="translate(707.4644,428.25)"
           id="g168"><path
             d="m 0,0 4.607,-0.107 c 5.464,-11.572 15.536,-34.5 17.679,-39.429 2.142,-4.928 8.678,-11.357 22.178,-11.357 13.5,0 19.393,4.393 23.786,12.964 4.393,8.572 17.464,38.358 17.464,38.358 l 5.036,0.107 c 0,0 -17.464,-39.215 -19.179,-43.822 -2.571,-0.643 -9.214,-6.75 -10.393,-11.785 -4.821,2.785 -11.25,1.928 -16.178,-4.5 -3.643,5.678 -11.679,8.25 -16.5,5.035 -1.822,6.643 -8.25,11.25 -10.286,11.786 C 14.25,-33.964 0,0 0,0"
             id="path170"
             style="fill:#cd2531;fill-opacity:1;fill-rule:nonzero;stroke:none" /></g><g
           transform="translate(752.5498,613.5)"
           id="g172"><path
             d="m 0,0 c 4.05,-5.7 12,-15.3 29.85,-4.35 2.85,-6 7.95,-8.55 10.8,-9.15 -1.05,-6.6 -1.05,-10.2 0,-13.35 -3.45,2.55 -7.35,6.75 -8.7,8.7 -2.25,-3.15 -5.85,-8.25 -5.85,-8.25 -4.65,4.5 -12,10.2 -16.35,10.5 1.95,-2.25 4.744,-7.556 4.744,-7.556 L 3.9,-31.35 c 16.95,0 34.8,0.6 56.4,-36.9 14.4,9.3 41.55,22.5 65.7,-10.8 -7.65,0.75 -10.95,-3.6 -10.95,-3.6 7.8,-8.85 9.6,-12 12.45,-22.35 -11.85,10.2 -25.35,18.3 -59.7,19.5 2.4,4.5 4.5,10.35 4.5,10.35 l -2.85,1.2 c -5.85,-9.15 -20.7,-27.3 -45.3,-27.3 -4.8,0 -9,-3 -11.1,-5.1 -9.343,-7.093 -7.95,-11.1 -7.95,-11.1 5.4,0.75 11.4,1.95 11.4,1.95 5.55,-6.75 13.35,-10.5 19.8,-10.5 6.45,0 19.05,2.1 32.25,17.1 7.5,-9.75 11.55,-13.5 15.75,-24.6 -8.25,1.65 -17.25,-0.15 -23.4,-5.25 6.9,-4.8 11.7,-10.65 13.05,-17.1 -6.15,2.7 -15.9,8.85 -23.7,9 3.75,-6 6.75,-10.05 6.75,-16.05 0,-6 -8.55,-10.35 -22.5,-14.1 -4.35,-11.4 -6.959,-17.829 -8.25,-21.6 -1.626,-4.75 -8.324,-6.3 -26.25,-6.3 -24.3,0 -24.45,2.55 -26.25,6.3 -1.306,2.722 -8.4,21.45 -8.4,21.45 -10.8,2.25 -22.35,7.35 -22.35,14.55 0,7.2 6.15,16.35 6.15,16.35 -6.9,-2.55 -19.8,-7.2 -22.95,-9.15 3,8.85 8.85,14.25 13.2,16.5 -7.5,6.9 -17.85,5.4 -23.55,5.1 1.2,7.35 12.75,22.95 16.05,24.9 5.4,-7.95 19.35,-17.1 30.6,-17.1 11.25,0 21.3,10.2 21.3,10.2 5.4,-0.9 12,-1.95 12,-1.95 -0.6,4.35 -10.35,15 -17.4,15.6 -7.05,0.6 -34.8,3.75 -47.7,28.8 -1.95,-1.05 -2.7,-1.95 -2.7,-1.95 l 3.9,-10.2 c -12.6,-0.15 -38.25,-1.05 -59.85,-19.05 2.25,12.15 13.05,22.05 13.05,22.05 -5.4,4.8 -11.1,3.6 -11.1,3.6 10.05,11.55 20.85,21.15 37.2,21.15 12.45,0 24,-7.8 28.65,-10.65 13.65,22.95 25.2,37.5 56.4,36.9 -4.425,3.862 -10.706,9.281 -10.706,9.281 l 4.125,5.906 c -4.031,0.469 -10.594,-4.5 -15.188,-9.468 -3.375,4.125 -6.093,7.781 -6.093,7.781 l -8.907,-8.813 c 0.563,3.844 1.5,10.969 -0.468,13.125 4.312,1.782 8.437,4.594 11.906,9.188 6.75,-4.969 17.25,-10.988 29.081,4.5"
             id="path174"
             style="fill:#cd2531;fill-opacity:1;fill-rule:nonzero;stroke:none" /></g><g
           transform="translate(734.25,543.2998)"
           id="g176"><path
             d="m 0,0 c 7.5,-2.7 15,-21.45 4.2,-30.75 -10.5,17.25 -19.35,22.2 -44.1,25.2 6.45,3.9 35.85,4.8 41.55,-4.2 C 1.35,-6 1.2,-2.85 0,0"
             id="path178"
             style="fill:#231f20;fill-opacity:1;fill-rule:nonzero;stroke:none" /></g><g
           transform="translate(770.6997,543.4502)"
           id="g180"><path
             d="M 0,0 C -0.9,-4.05 -1.35,-6.45 -1.95,-9.75 6.3,-3.3 15.9,-1.95 40.2,-5.4 16.05,-10.05 7.35,-11.4 -4.95,-31.35 -14.4,-21.6 -9.3,-4.05 0,0"
             id="path182"
             style="fill:#231f20;fill-opacity:1;fill-rule:nonzero;stroke:none" /></g><g
           transform="translate(721.6499,468.75)"
           id="g184"><path
             d="m 0,0 c 5.4,7.5 15.75,26.7 30.6,15.3 8.25,6.75 24,3.15 30.15,-15.9 -6.15,0.15 -16.95,18 -30,7.35 C 21.45,19.05 7.35,-0.9 0,0"
             id="path186"
             style="fill:#231f20;fill-opacity:1;fill-rule:nonzero;stroke:none" /></g><g
           transform="translate(725.5498,450.4502)"
           id="g188"><path
             d="m 0,0 c 2.85,6.45 12.75,24.6 26.55,14.4 5.55,7.65 22.8,2.25 27,-13.5 C 47.25,1.35 37.5,16.95 26.85,6.3 19.65,17.1 5.25,1.35 0,0"
             id="path190"
             style="fill:#231f20;fill-opacity:1;fill-rule:nonzero;stroke:none" /></g><g
           transform="translate(752.5498,445.9497)"
           id="g192"><path
             d="m 0,0 c 6.3,0 4.2,-3.3 9.6,-3.45 4.198,-0.116 7.2,2.55 9.9,-0.6 2.7,-3.15 7.5,-7.5 5.7,-11.25 -1.8,-3.75 -4.95,-9.3 -6.6,-12.15 -1.65,-2.85 -3.75,-3.9 -6.75,-3.9 -8.55,0 -7.8,4.05 -11.7,4.05 -3.9,0 -3.9,-4.05 -12,-4.05 -5.4,0 -6,2.7 -7.5,5.1 -1.5,2.4 -5.7,9.3 -5.7,13.8 0,4.5 5.4,10.2 10.2,10.2 4.8,0 4.95,-0.75 6.75,-0.75 3.45,0 2.7,3 8.1,3"
             id="path194"
             style="fill:#231f20;fill-opacity:1;fill-rule:nonzero;stroke:none" /></g><g
           transform="translate(382.6069,90.75)"
           id="g196"><path
             d="M 0,0 -2.464,21.964 -4.821,0 0,0 z m -15.232,-15.625 7.393,55.125 10.678,0 7.358,-55.25 3.321,0 0,-7.375 -11.25,0 -1.375,14.875 -6.875,0 -1.625,-15 -11.125,0 -0.125,7.625 3.625,0 z"
             id="path198"
             style="fill:#231f20;fill-opacity:1;fill-rule:nonzero;stroke:none" /></g><g
           transform="translate(478.9897,90.4663)"
           id="g200"><path
             d="M 0,0 -2.464,21.964 -4.821,0 0,0 z m -15.232,-15.625 7.393,55.125 10.678,0 7.358,-55.25 3.321,0 0,-7.375 -11.25,0 -1.375,14.875 -6.875,0 -1.625,-15 -11.125,0 -0.125,7.625 3.625,0 z"
             id="path202"
             style="fill:#231f20;fill-opacity:1;fill-rule:nonzero;stroke:none" /></g><g
           transform="translate(573.9399,90.4663)"
           id="g204"><path
             d="M 0,0 -2.464,21.964 -4.821,0 0,0 z m -15.232,-15.625 7.393,55.125 10.678,0 7.358,-55.25 3.321,0 0,-7.375 -11.25,0 -1.375,14.875 -6.875,0 -1.625,-15 -11.125,0 -0.125,7.625 3.625,0 z"
             id="path206"
             style="fill:#231f20;fill-opacity:1;fill-rule:nonzero;stroke:none" /></g><g
           transform="translate(711.9399,90.3672)"
           id="g208"><path
             d="M 0,0 -2.464,21.964 -4.821,0 0,0 z m -15.232,-15.625 7.393,55.125 10.678,0 7.358,-55.25 3.321,0 0,-7.375 -11.25,0 -1.375,14.875 -6.875,0 -1.625,-15 -11.125,0 -0.125,7.625 3.625,0 z"
             id="path210"
             style="fill:#231f20;fill-opacity:1;fill-rule:nonzero;stroke:none" /></g><g
           transform="translate(408.875,103.5)"
           id="g212"><path
             d="m 0,0 4.688,0 c 1.875,0 2.375,1.5 2.375,3.75 l 0,12.125 c 0,2.688 -1,3.688 -2.375,3.688 l -4.751,0 L 0,0 z m -11.25,26.625 19.25,0 c 3.75,0 7.375,-3.125 7.375,-8.875 l 0,-15.25 c 0,-2.25 -0.25,-5.25 -2.75,-6.5 2.5,-1.25 3.25,-2.625 3.25,-5.625 l 0,-18.875 3.25,0 0,-7.375 -11.75,0 0,24.5 C 7.375,-8.75 6.411,-9 5.018,-9 l -4.822,0 0,-26.786 -11.464,0 0,7.286 2.893,0 0,48 -2.893,0 0.018,7.125 z"
             id="path214"
             style="fill:#231f20;fill-opacity:1;fill-rule:nonzero;stroke:none" /></g><g
           transform="translate(429.75,130.1875)"
           id="g216"><path
             d="m 0,0 11.5,0 0,-26.875 8.188,26.938 9.625,0 0,-7.188 -3.438,0 -6.312,-20.438 c 3.687,0 6.75,-2 6.75,-5.437 l 0,-22.125 3.125,0 0,-7.438 -11.438,0 0,24.5 c 0,2.563 -0.5,3.125 -2,3.125 l -4.5,0 0,-27.625 -11.5,0 0,7.375 3,0 0,48 -3,0 L 0,0 z"
             id="path218"
             style="fill:#231f20;fill-opacity:1;fill-rule:nonzero;stroke:none" /></g><g
           transform="translate(494.2031,130.1719)"
           id="g220"><path
             d="m 0,0 12.188,0 9.562,-35.156 0,35.015 11.25,0 0,-7.781 -2.953,0 0,-54.75 -8.25,0 -10.5,37.641 0,-37.594 -11.297,0 0,7.453 3,0 0,48 -3,0 L 0,0 z"
             id="path222"
             style="fill:#231f20;fill-opacity:1;fill-rule:nonzero;stroke:none" /></g><g
           transform="translate(536.75,130.0625)"
           id="g224"><path
             d="m 0,0 16,0 0,-14.563 -8.375,0 0,7.5 -4.312,0 c -1.375,0 -2.375,-0.562 -2.375,-2.375 l 0,-14.875 c 0,-1.062 0.25,-2.25 1.937,-2.25 l 5.938,0 c 3.812,0 7.937,-3.125 7.937,-7.5 l 0,-20.687 c 0,-2.5 -2.75,-7.813 -7.5,-7.813 l -16.5,0 0,15.063 8.313,0 0,-7.625 4.812,0 C 7,-55.125 8.5,-54.688 8.5,-52 l 0,14.687 c 0,1.563 -0.562,2.5 -2.5,2.5 l -5.875,0 c -2.5,0 -7.375,2.063 -7.375,7.25 l 0,20.375 C -7.25,-3.5 -4,0 0,0"
             id="path226"
             style="fill:#231f20;fill-opacity:1;fill-rule:nonzero;stroke:none" /></g><g
           transform="translate(597.3672,129.7788)"
           id="g228"><path
             d="m 0,0 16,0 0,-14.563 -8.375,0 0,7.5 -4.312,0 c -1.375,0 -2.375,-0.562 -2.375,-2.375 l 0,-14.875 c 0,-1.062 0.25,-2.25 1.937,-2.25 l 5.938,0 c 3.812,0 7.937,-3.125 7.937,-7.5 l 0,-20.687 c 0,-2.5 -2.75,-7.813 -7.5,-7.813 l -16.5,0 0,15.063 8.313,0 0,-7.625 4.812,0 C 7,-55.125 8.5,-54.688 8.5,-52 l 0,14.687 c 0,1.563 -0.562,2.5 -2.5,2.5 l -5.875,0 c -2.5,0 -7.375,2.063 -7.375,7.25 l 0,20.375 C -7.25,-3.5 -4,0 0,0"
             id="path230"
             style="fill:#231f20;fill-opacity:1;fill-rule:nonzero;stroke:none" /></g><g
           transform="translate(642.7007,129.7788)"
           id="g232"><path
             d="m 0,0 16,0 0,-14.563 -8.375,0 0,7.5 -4.312,0 c -1.375,0 -2.375,-0.562 -2.375,-2.375 l 0,-14.875 c 0,-1.062 0.25,-2.25 1.937,-2.25 l 5.938,0 c 3.812,0 7.937,-3.125 7.937,-7.5 l 0,-20.687 c 0,-2.5 -2.75,-7.813 -7.5,-7.813 l -16.5,0 0,15.063 8.313,0 0,-7.625 4.812,0 C 7,-55.125 8.5,-54.688 8.5,-52 l 0,14.687 c 0,1.563 -0.562,2.5 -2.5,2.5 l -5.875,0 c -2.5,0 -7.375,2.063 -7.375,7.25 l 0,20.375 C -7.25,-3.5 -4,0 0,0"
             id="path234"
             style="fill:#231f20;fill-opacity:1;fill-rule:nonzero;stroke:none" /></g><g
           transform="translate(726.5356,115.5)"
           id="g236"><path
             d="m 0,0 0,15 30.643,0 0,-15.107 -8.25,0 0,7.714 -3,0 0,-48.107 3.321,0 0,-7.286 -15,0 0,7.393 3.215,0 0,47.893 -3,0 0,-7.5 L 0,0 z"
             id="path238"
             style="fill:#231f20;fill-opacity:1;fill-rule:nonzero;stroke:none" /></g><g
           transform="translate(661.6353,114.8335)"
           id="g240"><path
             d="m 0,0 0,15 30.643,0 0,-15.107 -8.25,0 0,7.714 -3,0 0,-48.107 3.321,0 0,-7.286 -15,0 0,7.393 3.215,0 0,47.893 -3,0 0,-7.5 L 0,0 z"
             id="path242"
             style="fill:#231f20;fill-opacity:1;fill-rule:nonzero;stroke:none" /></g><g
           transform="translate(759,130.2188)"
           id="g244"><path
             d="m 0,0 26.438,0 0,-16.219 -8.438,0 0,9.094 -6.75,0 0,-19.969 10.406,0 0,-7.594 -10.312,0 0,-20.531 7.219,0 0,9.094 8.437,0 0,-16.313 -27,0 0,7.219 2.906,0 0,48.094 L 0,-7.125 0,0 z"
             id="path246"
             style="fill:#231f20;fill-opacity:1;fill-rule:nonzero;stroke:none" /></g></g></g></g></svg>