<?xml version="1.0" encoding="UTF-8" standalone="no"?>
<svg
   xmlns:dc="http://purl.org/dc/elements/1.1/"
   xmlns:cc="http://creativecommons.org/ns#"
   xmlns:rdf="http://www.w3.org/1999/02/22-rdf-syntax-ns#"
   xmlns:svg="http://www.w3.org/2000/svg"
   xmlns="http://www.w3.org/2000/svg"
   id="svg2"
   version="1.1"
   width="280"
   viewBox="0 0 280 199.99866"
   height="200"
   xml:space="preserve"><metadata
     id="metadata24"><rdf:RDF><cc:Work
         rdf:about=""><dc:format>image/svg+xml</dc:format><dc:type
           rdf:resource="http://purl.org/dc/dcmitype/StillImage" /><dc:title></dc:title></cc:Work></rdf:RDF></metadata><defs
     id="defs22" /><g
     id="g4"
     transform="matrix(0.89407623,0,0,-0.89407623,-196.60106,588.5542)"><g
       id="g6"
       transform="matrix(7.1853,0,0,7.1853,-2304.7,-3374.1)"><path
         style="fill:#111111;fill-rule:evenodd"
         id="path8"
         d="m 372.95,533.31 c 0,0 -0.115,0.977 -0.02,1.583 0.054,0.339 0.416,1.281 0.77,1.201 -0.097,0.513 0.349,0.846 0.349,0.846 0,0 -0.91,-0.325 -1.877,0.228 -0.94,0.537 -0.899,1.554 -0.899,1.554 0,0 0.105,-1.367 -0.891,-2.408 0.057,0.239 -0.311,5.119 -5.904,6.664 -2.887,0.797 -5.651,-0.599 -5.651,-0.599 1.025,4.04 4.526,5.408 4.526,5.408 0,0 -0.462,0.01 -0.944,-0.097 -0.286,-0.063 -0.721,-0.25 -0.721,-0.25 0,0 1.866,4.565 6.927,5.337 0.13,0.02 -0.249,0.447 -0.713,0.475 -0.464,0.028 -0.934,-0.37 -0.934,-0.37 0,0 -0.399,0.984 0.913,1.776 0.69,0.416 1.471,0.108 1.471,0.108 0,0 -0.164,0.837 -0.896,1.12 -0.98,0.379 -1.448,0.06 -1.448,0.06 0,0 0.565,1.143 2.094,1.408 1.635,0.282 2.535,-0.259 2.535,-0.259 0,0 1.483,4.208 6.477,4.102 6.727,-0.144 7.05,-6.542 4.933,-9.663 0.217,0.804 0.012,2.606 -1.757,2.569 -1.53,-0.032 -1.693,-1.707 -1.693,-1.707 0,0 0.875,-0.215 1.813,-0.966 0.817,-0.653 1.332,-1.281 1.341,-1.776 0.007,-0.387 -0.074,-0.462 -0.074,-0.462 0.11,-0.123 1.787,-1.663 1.988,-3.2 0.2,-1.537 -0.191,-2.729 -0.191,-2.729 0,0 1.88,-2.114 2.107,-4.015 0.474,-3.961 -1.297,-5.001 -1.297,-5.001 0,0 0.114,0.523 -0.002,0.95 -0.116,0.427 -0.31,0.651 -0.31,0.651 0,0 -0.087,-1.911 -0.625,-2.766 -0.538,-0.855 -1.721,-1.795 -2.381,-1.814 l -0.659,-0.018 c 0,0 -0.719,-0.971 -1.388,-1.123 -0.669,-0.151 -1.515,0.302 -1.515,0.302 0,0 -0.742,-0.374 -1.302,-0.362 -0.559,0.013 -1.738,1.317 -2.235,1.448 -1.497,0.394 -1.935,1.908 -1.935,1.908 0,0 0.021,0.078 0.018,-0.113" /><g
         id="g10"><path
           style="fill:#a27752"
           id="path12"
           transform="matrix(0.8,0,0,-0.8,358.27,561.78)"
           d="m 25.188,2.2246 c -0.35054,-0.011093 -0.72125,-0.00125 -1.1152,0.033203 -6.3025,0.5525 -5.7754,5.8262 -5.7754,5.8262 0,0 -0.91586,-1.0995 -2.2871,-1.3008 -1.37,-0.20125 -2.5059,0.14258 -2.5059,0.14258 0,0 1.42,0.22312 1.875,1.4844 0.3625,1.0025 -0.13672,2.0645 -0.13672,2.0645 0,0 1.5491,-0.56969 4.1191,-0.39844 2.57,0.17125 3.5879,0.62695 3.5879,0.62695 0,0 0.48305,-2.4488 3.123,-3.1875 3.1188,-0.8725 4.7715,0.82227 4.7715,0.82227 0.11,-0.9528 -0.398,-5.947 -5.656,-6.1134 z m 4.0723,14.199 c 0,0 -1.6945,1.8207 -2.9395,2.0957 -0.82125,0.1825 -1.2716,-0.35484 -2.3691,-0.74609 -1.0975,-0.39125 -2.4223,-0.34156 -2.8535,0.80469 -0.43125,1.145 0.07187,2.583 1.7969,3.0742 1.725,0.4925 4.9688,-0.67774 4.9688,-0.67774 l -0.95,-0.225 c 0,0 -2.9354,0.63141 -4.0879,0.37891 -1.1512,-0.2525 -1.533,-1.8382 -1.1367,-2.627 0.3975,-0.7875 1.5371,-0.39844 1.5371,-0.39844 0,0 6.375,2.7416 7.0312,3.1504 0.65625,0.4075 1.4746,1.4219 1.4746,1.4219 0,0 0.43031,-1.6772 -0.05469,-3.4297 -0.485,-1.7512 -2.418,-2.8223 -2.418,-2.8223 z m -6.1738,5.8965 c -1.1737,-0.03127 -2.9766,0.10391 -4.2422,1.043 -1.9338,1.435 -2.5652,3.3017 -1.7539,4.918 0.73125,1.4562 2.2746,1.6114 3.0059,1.4727 0.7325,-0.13875 1.9741,-0.99125 2.2129,-2.5 0.24125,-1.51 0.54398,-2.8764 0.89648,-3.3789 0.3525,-0.5025 1.0625,-1.457 1.0625,-1.457 0,0 -0.47742,-0.07889 -1.1816,-0.09766 z m 2.8223,0.09766 c 0,0 -1.0098,0.65859 -1.3223,1.0586 -0.3125,0.39875 -0.82274,1.6545 -0.74024,2.5957 0.12,1.3775 -0.36914,2.0156 -0.36914,2.0156 0,0 0.60758,0.03766 1.2051,-0.40234 0.95625,-0.705 0.49508,-2.5742 0.58008,-3.5742 0.08625,-1 0.64648,-1.6934 0.64648,-1.6934 z" /><path
           style="fill:#006f71"
           id="path14"
           transform="matrix(0.8,0,0,-0.8,358.27,561.78)"
           d="m 20.557,11.424 c -0.73618,-0.01528 -1.5413,0.02758 -2.4199,0.14258 -6.7862,0.8875 -10.572,5.1719 -10.572,5.1719 0,0 1.0993,-0.60312 2.248,-0.73438 1.6025,-0.18125 2.3867,0.50781 2.3867,0.50781 0,0 -1.4748,-0.09227 -3.6211,1.1465 -3.5412,2.045 -3.7539,3.8398 -3.7539,3.8398 0,0 1.3577,-0.57172 3.9727,0.11328 1.7762,0.46625 3.4414,2.0879 3.4414,2.0879 0,0 -0.13391,-0.88508 -0.28516,-1.2988 -0.1525,-0.4125 -0.25391,-0.67383 -0.25391,-0.67383 0,0 1.1012,0.32703 2.5137,2.1758 0.7925,1.0388 1.1406,3.084 1.1406,3.084 0,0 0.30055,-2.5827 2.373,-4.1602 2.0712,-1.5762 3.3008,-1.2578 3.3008,-1.2578 0,0 -1.4395,-1.3845 -0.76953,-3.0332 0.67,-1.6475 2.2606,-1.6316 3.0469,-1.5078 0.78625,0.12625 1.5213,0.60578 1.8613,0.70703 0.34125,0.1025 0.80586,0.37 1.5059,0 0.6975,-0.37 1.4297,-1.1426 1.4297,-1.1426 l 0.43359,-0.61328 c 0,0 0.39578,-0.01227 0.51953,-0.13477 0.1225,-0.12125 0.34758,-0.28695 0.01758,-1.0645 -0.43375,-1.025 -1.7227,-1.5781 -1.7227,-1.5781 0,0 0.19562,0.33547 0.20312,0.66797 0.0062,0.33375 -0.06445,0.55469 -0.06445,0.55469 0,0 -1.7784,-2.8931 -6.9316,-3 z m 6.9414,10.723 c 0,0 -0.55977,0.28219 -0.72852,1.9297 -0.16875,1.6488 0.13031,2.6983 -0.36719,3.5508 -0.99625,1.7075 -2.8418,1.4375 -2.8418,1.4375 0,0 0.48078,0.13047 0.61328,0.44922 0.13125,0.3175 0,0.47266 0,0.47266 0,0 0.31969,-0.32359 0.49219,-0.33984 0.1725,-0.01375 0.4375,0.0098 0.4375,0.0098 -0.005,-0.275 -0.24609,-0.44531 -0.24609,-0.44531 0,0 0.65539,0.18625 1.1191,0.6875 0.67,0.72375 0.52539,1.2344 0.52539,1.2344 0,0 0.20445,-0.15523 0.3457,-0.17773 0.3225,-0.05 0.52734,0.03125 0.52734,0.03125 l -0.375,-0.315 c 0,0 0.26961,-0.05297 0.44336,-0.04297 0.20875,0.01375 0.51953,0.13281 0.51953,0.13281 0,0 -0.04352,-0.1968 -0.19727,-0.37305 -0.095,-0.10875 -0.32812,-0.29297 -0.32812,-0.29297 0,0 1.3834,0.37648 2.0371,1.4902 0.9375,1.5937 0.7168,3.4102 0.7168,3.4102 l -0.85156,0.40234 c 0,0 0.47898,-3.0325 -1.4785,-3.8125 -0.99,-0.39375 -2.1016,0.58398 -2.1016,0.58398 0,0 0.46156,-1.4459 -0.46094,-1.6797 -0.9225,-0.23125 -1.9805,0.78125 -1.9805,0.78125 l 0.2832,-1.4062 c 0,0 -0.45211,-0.39805 -1.0059,-0.2168 -0.55375,0.18125 -1.0175,0.52656 -1.2812,1.1953 -0.265,0.66875 -0.39844,1.5352 -0.39844,1.5352 0,0 0.10898,-0.27703 0.42773,-0.55078 0.3175,-0.27375 0.35547,-0.25977 0.35547,-0.25977 0,0 -0.41094,0.73922 -0.42969,1.3867 -0.02,0.6475 0.37891,1.9238 0.37891,1.9238 0,0 -0.04594,-1.1552 0.13281,-1.7227 0.179,-0.566 0.367,-0.808 0.367,-0.808 l 0.47461,0.63477 c 0,0 -0.54625,1.3792 0.25,3.0742 0.51375,1.0938 1.3644,1.3377 1.6094,1.3164 0.245,-0.02125 0.1875,-0.01563 0.1875,-0.01563 0,0 -0.27727,-0.66234 -0.35352,-0.99609 -0.43125,-1.9 0.0059,-2.7539 0.0059,-2.7539 l 0.82422,0.88867 c 0,0 -0.08976,1.1491 0.02148,1.5566 0.1125,0.4075 0.41422,1.4627 0.63672,1.6152 0.2225,0.15125 0.64726,0.45703 0.97852,0.33203 0.33125,-0.1225 0.69352,-0.53586 0.85352,-1.0996 0.15875,-0.565 0.17383,-0.60547 0.17383,-0.60547 l -0.435,0.208 -0.121,-0.274 c 0,0 0.48109,-0.38312 0.49609,-0.85938 0.015,-0.47625 0.18945,-1.5176 0.18945,-1.5176 l 0.70508,-0.4043 c 0,0 -0.46352,1.8636 -0.04102,2.7773 0.06375,0.1375 0.40492,0.51477 0.66992,0.50977 0.26625,-0.0038 2.2946,-0.48508 2.7871,-3.1113 0.49125,-2.6262 0.20117,-3.7324 0.20117,-3.7324 0,0 0.35562,0.10024 0.70312,0.61523 0.32375,0.48 0.47266,0.9707 0.47266,0.9707 0,0 0.33242,-1.8113 -0.01758,-2.7676 -0.35,-0.9575 -0.80469,-1.5508 -0.80469,-1.5508 0,0 0.59453,0.10844 0.83203,0.24219 0.37875,0.215 0.83008,0.6543 0.83008,0.6543 0,0 -0.84898,-3.5513 -3.1152,-4.2988 -0.805,-1.645 -3.6641,-1.6113 -3.6641,-1.6113 z M 20.014,33.829 c 0,0 -0.50617,0.61898 -0.32617,1.1777 0.17875,0.55875 0.7257,1.3345 1.4707,1.5957 0.745,0.2625 1.4046,1.013 1.5371,1.2305 0.13375,0.21625 0.53633,0.51047 0.95508,0.60547 0.42125,0.0925 0.83008,-0.26953 0.83008,-0.26953 0,0 -1.5804,-0.44016 -2.1504,-1.1289 -0.56875,-0.68875 -0.4707,-1.041 -0.4707,-1.041 0,0 -0.6157,0.03867 -0.9707,-0.42383 -0.35375,-0.4625 -0.875,-1.7461 -0.875,-1.7461 z" /><path
           style="fill:#111111"
           id="path16"
           transform="matrix(0.8,0,0,-0.8,358.27,561.78)"
           d="m 20.807,11.98 c -0.43219,0.03453 -0.90234,0.22742 -1.3711,0.73242 -0.93875,1.01 -0.33594,2.4102 -0.33594,2.4102 0,0 0.51219,-1.5399 1.7109,-1.8262 1.2,-0.285 2.2539,0.75977 2.2539,0.75977 0,0 0.88641,2.3288 1.2852,2.7988 0.3975,0.47125 0.76695,0.85555 1.6582,0.81055 0.89125,-0.045 1.3379,-1.0312 1.3379,-1.0312 0,0 0.63016,0.09344 1.0664,-0.28906 0.56625,-0.49625 0.04883,-1.6836 0.04883,-1.6836 0,0 -0.21766,0.31477 -0.47266,0.35352 0.21125,0.585 -0.09328,0.62617 -0.39453,0.76367 -0.3,0.13625 -1.3377,-0.55219 -1.8789,-0.96094 -0.54,-0.40875 -3.1433,-2.3686 -3.7695,-2.6211 -0.3125,-0.12688 -0.70648,-0.25133 -1.1387,-0.2168 z m -1.7793,3.4727 c -0.6842,0.01242 -1.4473,0.12633 -2.2676,0.4082 -5.1325,1.765 -6.0645,5.0332 -6.0645,5.0332 0,0 2.2161,-2.0377 4.2148,-2.6289 1.5975,-0.47375 2.6445,-0.44727 2.6445,-0.44727 0,0 -0.60367,0.3925 -0.79492,1.4688 -0.2275,1.2775 0.36914,2.0723 0.36914,2.0723 0,0 0.16024,-1.0898 1.084,-1.3848 0.925,-0.295 1.1973,0 1.1973,0 0,0 -0.45859,-1.0065 0.47266,-2.3965 0.8325,-1.24 2.5352,-1.2852 2.5352,-1.2852 0,0 -1.338,-0.87711 -3.3906,-0.83984 z m 10.291,1.7441 c -0.20062,-0.02094 -0.45297,0.02906 -0.62109,0.14844 -0.335,0.2375 -0.57812,0.94336 -0.57812,0.94336 0,0 0.1218,-0.0257 0.24805,-0.18945 0.12375,-0.16375 0.44438,-0.25445 0.60937,-0.2832 0.165,-0.02875 0.5793,0.006 0.6543,-0.33398 0.03813,-0.17062 -0.11188,-0.26422 -0.3125,-0.28516 z m 0.0293,6.2383 c 0,0 0.60164,0.38226 0.86914,0.79102 0.4125,0.62875 0.29883,0.83594 0.29883,0.83594 0,0 -0.385,-0.52703 -1,-0.73828 -0.8975,-0.3075 -1.8223,-0.24414 -1.8223,-0.24414 0,0 0.81664,0.28641 1.4004,0.75391 0.575,0.46 0.53516,0.79102 0.53516,0.79102 0,0 -0.19961,-0.17461 -0.94336,-0.31836 -0.49375,-0.095 -1.4805,0.08594 -1.4805,0.08594 0,0 1.9652,0.51062 2.9727,2.4531 1.2488,2.4038 0.87695,5.0938 0.87695,5.0938 0,0 0.725,-1.4252 0.78125,-2.6289 0.0375,-0.81 -0.23828,-1.9902 -0.23828,-1.9902 0,0 0.36125,0.07461 0.6875,0.44336 0.30625,0.34625 0.5332,0.96484 0.5332,0.96484 0,0 -0.03312,-1.1873 -0.60938,-2.3848 -0.32625,-0.68125 -0.94726,-1.377 -0.94726,-1.377 0,0 0.39211,0.01781 0.69336,0.13281 0.55375,0.21125 0.90039,0.53125 0.90039,0.53125 0,0 -0.32906,-0.92375 -1.4141,-1.9375 -1.0838,-1.0138 -2.0938,-1.2578 -2.0938,-1.2578 z m -7.0332,1.3379 c 0,0 -0.44562,0.28726 -0.79688,0.54102 -0.34875,0.25375 -0.83203,0.39453 -0.83203,0.39453 0,0 0.1425,0.50898 0.09375,1.084 -0.04875,0.57375 -0.55742,1.5628 -1.5137,1.6953 -0.955,0.1325 -1.7578,-1.1113 -1.7578,-1.1113 0,0 -0.04016,1.244 0.96484,1.6777 1.005,0.4325 1.6666,0.32344 2.5879,-0.47656 0.9225,-0.8 1.2539,-3.8047 1.2539,-3.8047 z" /><path
           style="fill:#ffffff"
           id="path18"
           transform="matrix(0.8,0,0,-0.8,358.27,561.78)"
           d="m 24.029,14.787 c 0,0 0.3125,0.73742 0.46875,1.0137 0.155,0.275 0.39391,1.0524 1.1602,1.2324 0.76625,0.18 1.0605,-0.46289 1.0605,-0.46289 0,0 -0.72828,-0.38547 -1.082,-0.57422 -0.355,-0.18875 -1.6074,-1.209 -1.6074,-1.209 z m -1.3535,3.6973 c -0.12228,-0.0075 -0.22078,0.0084 -0.27734,0.06055 -0.22625,0.20875 -0.24383,0.38227 -0.04883,0.54102 0.19375,0.1575 0.73578,0.48742 0.98828,0.57617 0.2525,0.08875 0.31445,0.14648 0.31445,0.14648 l 0.04492,0.34375 c 0,0 -1.0002,-0.365 -1.2539,-0.46875 -0.25375,-0.1025 -0.51758,-0.25977 -0.51758,-0.25977 0,0 0.27227,0.8282 0.85352,1.0957 1.0612,0.485 3.0547,0.09375 3.0547,0.09375 0,0 -0.50922,-0.14969 -0.63672,-0.17969 -0.12875,-0.03125 -0.34375,-0.10938 -0.34375,-0.10938 l 0.23438,-0.19531 c 0,0 0.20164,-0.01156 0.52539,0.02344 0.3225,0.035 1.0527,0.09766 1.0527,0.09766 0,0 -2.2225,-1.1102 -2.6875,-1.334 -0.34875,-0.16781 -0.93588,-0.40902 -1.3027,-0.43164 z" /></g></g></g></svg>