<?xml version="1.0" encoding="UTF-8"?>
<!-- Generator: Adobe Illustrator 14.0.0, SVG Export Plug-In . SVG Version: 6.00 Build 43363)  -->
<!DOCTYPE svg PUBLIC "-//W3C//DTD SVG 1.1//EN" "http://www.w3.org/Graphics/SVG/1.1/DTD/svg11.dtd">
<svg version="1.1" id="Layer_1" xmlns="http://www.w3.org/2000/svg" xmlns:xlink="http://www.w3.org/1999/xlink" x="0px" y="0px" width="105.479px" height="29.64px" viewBox="0 0 105.479 29.64" enable-background="new 0 0 105.479 29.64" xml:space="preserve">
<g>
	<defs>
		<rect id="SVGID_1_" width="105.479" height="29.64"/>
	</defs>
	<clipPath id="SVGID_2_">
		<use xlink:href="#SVGID_1_" overflow="visible"/>
	</clipPath>
	<path clip-path="url(#SVGID_2_)" fill="#9DB7C4" d="M105.147,2.582c-0.817-1.534-2.438-2.437-5.495-2.498L21.875,0.112H5.112   l0.013,1.034c0.024,1.84,0.832,5.286,3.645,5.926c0.683,1.033,1.887,1.763,3.583,2.187c-0.082,0.157-0.216,0.414-0.216,0.414   c-0.125,0.24-0.231,0.477-0.324,0.711c-0.379,0.738-0.777,1.515-1.185,2.307H0.018l0.019,1.038c0.003,0.2,0.127,4.681,3.519,5.701   c0.422,0.761,1.186,1.556,2.543,2.082c-0.563,1.099-0.915,1.781-0.915,1.781l-0.023,0.051c-0.168,0.35-0.368,0.917-0.368,1.631   c0,0.673,0.186,1.325,0.539,1.886c0.526,0.834,1.642,1.829,3.975,1.829c0,0,58.063-0.012,78.658-0.017   c6.334,0,7.515-0.742,9.955-6.427l6.547-14.938C105.496,5.069,105.633,3.493,105.147,2.582"/>
	<path clip-path="url(#SVGID_2_)" fill="#003876" d="M104.053,3.03c-0.648-1.216-2.141-1.94-4.519-1.932L21.875,1.133H6.147   c0,0,0.06,4.729,3.265,5.009c0.583,1.262,2.085,2.056,4.479,2.379c-0.415,0.794-0.848,1.624-0.848,1.624   c-0.117,0.224-0.215,0.444-0.297,0.658c-0.476,0.924-0.981,1.909-1.494,2.908H1.057c0,0,0.073,4.31,3.216,4.849   c0.557,1.425,1.957,2.048,3.298,2.321c-0.884,1.72-1.473,2.866-1.473,2.866l-0.019,0.04c-0.156,0.325-0.268,0.741-0.268,1.188   c0,0.438,0.107,0.905,0.384,1.342c0.564,0.898,1.61,1.352,3.109,1.352l79.816-0.016c3.541,0,5.421-0.293,7.477-4.944l6.933-15.812   C104.202,5.318,104.6,4.057,104.053,3.03"/>
	<path clip-path="url(#SVGID_2_)" fill="#9A8348" d="M42.979,2.443h-6.487c-3.727,0-5.028,2.695-5.122,2.901   c-0.005,0.011-4.537,8.522-4.537,8.522h10.696l0.602-1.13l0.008-0.051c0.013-0.079,0.02-0.156,0.02-0.231   c0-0.286-0.09-0.541-0.267-0.749c-0.26-0.308-0.69-0.481-1.212-0.487h-2.767c0.307-0.576,0.97-1.821,1.095-2.056h4.241l1.411-2.648   h-4.242c0.161-0.301,0.33-0.618,0.33-0.618c0.283-0.534,0.845-0.805,1.668-0.805h3.665l1.41-2.648H42.979"/>
	<path clip-path="url(#SVGID_2_)" fill="#FFFFFF" d="M31.913,5.627l0.005-0.009l0.005-0.01c0.047-0.104,1.188-2.552,4.568-2.552   h5.978c-0.261,0.49-0.646,1.214-0.757,1.423h-3.297c-1.33,0-1.937,0.614-2.21,1.13l-0.81,1.518h4.242   c-0.261,0.49-0.646,1.214-0.758,1.423h-4.241l-1.747,3.281h3.783c0.338,0.004,0.604,0.099,0.747,0.269   c0.081,0.095,0.122,0.214,0.122,0.355c0,0.029-0.005,0.061-0.008,0.092c-0.041,0.077-0.268,0.502-0.377,0.707h-9.308   C28.28,12.451,31.913,5.627,31.913,5.627"/>
	<path clip-path="url(#SVGID_2_)" fill="#9A8348" d="M63.076,5.475c0.3,0,0.398,0.039,0.43,0.056   c-0.002,0.021-0.01,0.076-0.072,0.19c0,0-0.284,0.531-0.406,0.758c-0.141,0.049-0.938,0.328-1.619,0.567   c0.345-0.642,0.739-1.376,0.845-1.571H63.076 M58.404,2.443l-6.149,11.423h5.503c0,0,1.753-3.288,2.023-3.794   c0.297,0.195,0.714,0.468,0.971,0.636c-0.22,0.415-1.677,3.158-1.677,3.158h5.354l2.32-4.353c0,0-0.977-0.557-1.524-0.869   c0.786-0.275,2.454-0.858,2.454-0.858l1.694-3.108c0.157-0.29,0.213-0.54,0.213-0.749c0-0.231-0.068-0.413-0.148-0.546   c-0.543-0.91-2.396-0.939-2.606-0.94H58.404z"/>
	<path clip-path="url(#SVGID_2_)" fill="#FFFFFF" d="M62.07,4.862h-0.184L60.12,8.146l3.334-1.169l0.52-0.966   c0.17-0.316,0.192-0.584,0.066-0.795c-0.188-0.314-0.614-0.355-0.964-0.355H62.07 M66.831,3.056   c0.657,0.002,1.805,0.177,2.081,0.641c0.02,0.034,0.063,0.106,0.063,0.23c0,0.109-0.032,0.259-0.141,0.461   c-0.002,0.003-1.475,2.705-1.58,2.898c-0.206,0.072-3.501,1.223-3.501,1.223s1.793,1.023,2.175,1.241   c-0.232,0.437-1.719,3.226-1.867,3.504h-3.967c0.344-0.646,1.462-2.752,1.462-2.752l-2.001-1.31c0,0-2.006,3.764-2.165,4.062   h-4.108c0.438-0.816,5.328-9.899,5.488-10.198H66.831z"/>
	<polyline clip-path="url(#SVGID_2_)" fill="#9A8348" points="90.307,2.443 85.457,2.443 79.374,13.866 84.734,13.866 90.817,2.443     "/>
	<path clip-path="url(#SVGID_2_)" fill="#FFFFFF" d="M89.797,3.056c-0.433,0.813-5.27,9.896-5.431,10.198h-3.973   c0.435-0.814,5.271-9.897,5.432-10.198H89.797"/>
	<path clip-path="url(#SVGID_2_)" fill="#9A8348" d="M28.01,17.374c0.045,0.002,0.132,0.026,0.152,0.062   c0.006,0.011,0.01,0.03,0.01,0.057c0,0.069-0.029,0.195-0.135,0.388c0,0-2.78,5.068-3.313,6.041h-0.665   c-0.061,0-0.137-0.024-0.149-0.045c-0.004-0.006-0.007-0.019-0.007-0.04c0-0.06,0.024-0.182,0.134-0.381c0,0,2.8-5.105,3.336-6.082   H28.01 M23.115,16.641l-0.006,0.01l-4.105,7.486c-0.138,0.25-0.506,0.915-0.161,1.498c0.29,0.491,0.968,0.729,2.074,0.729h4.405   c0.11,0,2.733-0.021,3.789-1.945l4.091-7.459c0.312-0.569,0.211-0.971,0.07-1.207c-0.47-0.795-2.015-0.821-2.188-0.821h-4.239   C24.258,14.932,23.161,16.571,23.115,16.641"/>
	<path clip-path="url(#SVGID_2_)" fill="#FFFFFF" d="M28.022,16.752h-1.019l-3.513,6.406c-0.235,0.428-0.273,0.778-0.114,1.041   c0.209,0.344,0.639,0.346,0.688,0.345h1.026l3.491-6.365c0.234-0.427,0.274-0.781,0.119-1.052c-0.201-0.351-0.622-0.373-0.67-0.375   H28.022 M26.845,15.553h4.238c0.441,0.002,1.427,0.13,1.655,0.516c0.03,0.053,0.126,0.214-0.082,0.592l-4.09,7.46   c-0.878,1.598-3.222,1.621-3.244,1.621h-4.405c-1.121,0-1.445-0.265-1.538-0.423c-0.04-0.067-0.056-0.144-0.056-0.224   c0-0.25,0.155-0.533,0.225-0.658c0,0,3.937-7.178,4.093-7.464C23.712,16.869,24.651,15.553,26.845,15.553"/>
	<path clip-path="url(#SVGID_2_)" fill="#9A8348" d="M65.901,14.933h-4.079c0,0-2.095,3.889-2.256,4.19H58.64   c0.391-0.724,2.255-4.19,2.255-4.19h-4.597l-1.225,2.292c0.124-0.324,0.226-0.675,0.226-1.007c0-0.236-0.051-0.463-0.182-0.662   c-0.275-0.417-0.829-0.62-1.695-0.62h-5.206c-1.527,0-2.479,0.632-3.134,1.381l0.76-1.385h-4.66c0,0-4.76,8.679-4.931,8.99h-0.69   c-0.101,0-0.156-0.01-0.188-0.018c0.009-0.061,0.052-0.194,0.221-0.501l4.646-8.471h-4.661l-5.048,9.205   c-0.139,0.25-0.504,0.915-0.16,1.498c0.29,0.491,0.969,0.729,2.074,0.729h4.404c0.111,0,2.734-0.021,3.789-1.945l3.695-6.736   c0.584-0.003,2.407-0.01,3.005-0.013c-0.428,0.812-4.648,8.812-4.648,8.812h4.626c0,0,4.483-8.499,4.649-8.814   c0.298,0,2.509-0.001,2.87-0.002l-4.714,8.819h4.598c0,0,2.21-4.177,2.371-4.483h0.929c-0.388,0.733-2.372,4.483-2.372,4.483h4.595   l6.176-11.552H65.901"/>
	<path clip-path="url(#SVGID_2_)" fill="#FFFFFF" d="M44.792,15.553c-0.455,0.829-4.698,8.568-4.698,8.568   c-0.877,1.598-3.22,1.621-3.244,1.621h-4.404c-1.12,0-1.445-0.265-1.538-0.423c-0.04-0.067-0.057-0.144-0.057-0.224   c0-0.25,0.156-0.533,0.226-0.658c0,0,4.216-7.688,4.872-8.884h3.24c-0.447,0.818-4.14,7.551-4.14,7.551   c-0.161,0.293-0.302,0.577-0.302,0.833c0,0.104,0.023,0.203,0.079,0.296c0.184,0.311,0.599,0.311,0.734,0.311h1.06   c0,0,4.76-8.679,4.931-8.991H44.792"/>
	<path clip-path="url(#SVGID_2_)" fill="#FFFFFF" d="M48.215,15.549h5.208c0.625,0,1.034,0.118,1.181,0.343   c0.056,0.083,0.082,0.191,0.082,0.325c0,0.212-0.07,0.492-0.207,0.837c-0.357,0-2.883,0.002-2.883,0.002s-4.483,8.498-4.649,8.813   h-3.24c0.427-0.809,4.652-8.816,4.652-8.816s-2.317,0.01-3.086,0.013C45.857,16.258,46.699,15.549,48.215,15.549"/>
	<path clip-path="url(#SVGID_2_)" fill="#FFFFFF" d="M65.385,15.551c-0.439,0.823-5.352,10.011-5.514,10.315h-3.195   c0.387-0.733,2.371-4.482,2.371-4.482h-2.328c0,0-2.21,4.177-2.372,4.482h-3.191c0.438-0.823,5.351-10.011,5.514-10.315h3.191   c-0.391,0.724-2.257,4.19-2.257,4.19h2.332c0,0,2.095-3.889,2.256-4.19H65.385"/>
	<path clip-path="url(#SVGID_2_)" fill="#9A8348" d="M49.839,4.855c0.078,0.004,0.239,0.04,0.28,0.113   c0.009,0.015,0.015,0.038,0.015,0.069c0,0.071-0.03,0.182-0.111,0.335c0,0-2.697,5.065-3.217,6.041h-0.813   c-0.096,0-0.245-0.034-0.279-0.091c-0.007-0.01-0.011-0.029-0.011-0.056c0-0.062,0.023-0.169,0.109-0.329   c0,0,2.718-5.103,3.238-6.082H49.839 M44.103,4.131l-0.008,0.011l-3.79,7.106c-0.38,0.709-0.433,1.301-0.157,1.758   c0.339,0.566,1.109,0.841,2.356,0.841h5.176c0.13,0,3.179-0.021,4.203-1.947l3.974-7.458c0.275-0.519,0.173-0.894,0.038-1.118   c-0.522-0.872-2.437-0.901-2.653-0.901h-4.98C45.253,2.423,44.147,4.061,44.103,4.131"/>
	<path clip-path="url(#SVGID_2_)" fill="#FFFFFF" d="M49.848,4.244h-1.165l-3.412,6.406c-0.212,0.399-0.238,0.734-0.079,0.994   c0.233,0.381,0.749,0.383,0.807,0.382h1.176l3.39-6.365c0.213-0.398,0.24-0.735,0.084-1.001c-0.227-0.391-0.734-0.415-0.793-0.416   H49.848 M48.261,3.035h4.98c0.733,0.002,1.881,0.191,2.128,0.604c0.016,0.026,0.048,0.08,0.048,0.175   c0,0.081-0.023,0.192-0.102,0.34c-0.002,0-3.974,7.459-3.974,7.459c-0.851,1.6-3.634,1.621-3.662,1.621h-5.176   c-0.985,0-1.619-0.188-1.832-0.542c-0.062-0.105-0.086-0.221-0.086-0.341c0-0.329,0.185-0.676,0.259-0.814   c0,0,3.6-6.747,3.776-7.079C44.698,4.347,45.662,3.035,48.261,3.035"/>
	<path clip-path="url(#SVGID_2_)" fill="#9A8348" d="M75.557,14.933h-4.966c-3.034,0-4.383,2.804-4.438,2.923   c-0.001,0-4.36,8.174-4.36,8.174l-0.243,0.455h8.453l0.419-0.883l-0.007,0.016c0.28-0.513,0.321-0.985,0.116-1.331   c-0.214-0.359-0.656-0.541-1.316-0.541h-1.599c0.313-0.582,0.983-1.826,1.109-2.062h3.19l1.433-2.663h-3.189   c0.163-0.302,0.333-0.617,0.333-0.617c0.288-0.537,0.751-0.809,1.376-0.809h2.772l1.435-2.662H75.557"/>
	<path clip-path="url(#SVGID_2_)" fill="#FFFFFF" d="M66.706,18.133c0.056-0.119,1.25-2.582,3.885-2.582h4.448   c-0.267,0.494-0.656,1.217-0.769,1.426h-2.402c-0.858,0-1.523,0.392-1.921,1.134l-0.823,1.529h3.189   c-0.266,0.494-0.654,1.217-0.768,1.426h-3.189l-1.775,3.299h2.634c0.414,0,0.692,0.084,0.783,0.238   c0.029,0.048,0.043,0.109,0.043,0.18c0,0.146-0.058,0.334-0.17,0.538l-0.004,0.008c0,0-0.161,0.339-0.255,0.537h-7.031   C63.014,25.055,66.706,18.133,66.706,18.133"/>
	<path clip-path="url(#SVGID_2_)" fill="#9A8348" d="M80.81,17.595c0.155,0,0.228,0.017,0.262,0.028   c-0.006,0.035-0.025,0.103-0.087,0.218c0,0-0.294,0.545-0.414,0.768c-0.111,0.046-0.644,0.265-1.216,0.5   c0.352-0.65,0.715-1.325,0.815-1.514H80.81 M76.959,14.933l-6.176,11.552h4.645c0,0,1.925-3.64,2.236-4.226   c0.249,0.217,0.466,0.406,0.642,0.56c-0.198,0.38-1.928,3.666-1.928,3.666h4.521l2.541-4.805c0,0-0.771-0.579-1.188-0.892   c0.648-0.266,2.144-0.88,2.144-0.88l1.47-2.729c0.165-0.307,0.248-0.591,0.248-0.851c0-0.204-0.052-0.393-0.154-0.565   c-0.48-0.804-1.894-0.83-2.054-0.83H76.959z"/>
	<path clip-path="url(#SVGID_2_)" fill="#FFFFFF" d="M79.985,16.977H79.8l-1.81,3.363l3.021-1.244l0.519-0.962   c0.067-0.127,0.275-0.514,0.084-0.835c-0.192-0.322-0.637-0.322-0.804-0.322H79.985 M83.905,15.551   c0.313,0.001,1.268,0.101,1.522,0.529c0.113,0.191,0.077,0.462-0.107,0.806c0,0-1.267,2.353-1.364,2.534   c-0.189,0.077-2.946,1.209-2.946,1.209s1.331,0.999,1.636,1.229c-0.212,0.401-1.968,3.72-2.119,4.008h-3.124   c0.358-0.682,1.68-3.192,1.68-3.192l-1.6-1.395c0,0-2.267,4.282-2.428,4.587h-3.238c0.438-0.823,5.351-10.011,5.514-10.315H83.905z   "/>
	<path clip-path="url(#SVGID_2_)" fill="#9A8348" d="M83.669,2.443H75.07c-3.361,0.008-4.29,1.811-5.188,3.554   c-0.006,0.012-2.481,4.754-2.481,4.754c-0.199,0.381-0.728,1.394-0.241,2.196c0.368,0.607,1.184,0.901,2.494,0.901h8.572   l3.212-6.233h-6.368l-1.364,2.648h1.182c-0.201,0.389-0.399,0.774-0.493,0.955h-0.98c-0.486,0.003-0.569-0.11-0.577-0.123   c-0.006-0.01-0.014-0.03-0.014-0.069c0-0.079,0.032-0.234,0.187-0.532c0,0,2.323-4.507,2.784-5.403h2.044   c-0.074,0.145-0.383,0.748-0.383,0.748h4.977l1.739-3.396H83.669"/>
	<path clip-path="url(#SVGID_2_)" fill="#FFFFFF" d="M67.683,12.63c-0.078-0.129-0.108-0.278-0.108-0.433   c0-0.455,0.265-0.962,0.37-1.163l2.476-4.742c0.896-1.739,1.663-3.229,4.651-3.236h8.097c-0.299,0.584-0.987,1.926-1.112,2.17h-3.6   c0.075-0.145,0.383-0.747,0.383-0.747H75.42l-2.956,5.734c-0.188,0.366-0.377,0.833-0.151,1.202   c0.175,0.283,0.534,0.419,1.102,0.416h1.354l1.123-2.181H74.71c0.251-0.487,0.623-1.209,0.733-1.422h4.989   C80.055,8.96,78,12.949,77.852,13.236h-8.198C68.604,13.236,67.924,13.026,67.683,12.63"/>
	<path clip-path="url(#SVGID_2_)" fill="#9A8348" d="M96.979,5.349c0.412,0.012,0.481,0.102,0.484,0.107   c0.005,0.007,0.011,0.024,0.011,0.057c0,0.078-0.036,0.249-0.212,0.617c-0.002,0.004-1.122,2.423-1.434,3.098h-1.286   C94.999,8.503,96.828,5.591,96.979,5.349 M94.056,2.443l-8.461,11.423h5.604c0,0,1.13-1.748,1.286-1.99h2.071   c-0.24,0.53-0.905,1.99-0.905,1.99h5.258l3.464-7.818l-0.005,0.013c0.538-1.083,0.614-1.908,0.231-2.524   c-0.456-0.737-1.512-1.094-3.227-1.094H94.056z"/>
	<path clip-path="url(#SVGID_2_)" fill="#FFFFFF" d="M96.806,4.735l-0.165,0.003l-3.207,5.103h2.787l1.597-3.45   c0.2-0.418,0.397-0.9,0.161-1.266C97.747,4.764,97.231,4.727,96.806,4.735 M99.372,3.056c1.444-0.001,2.38,0.277,2.706,0.803   c0.098,0.159,0.147,0.346,0.147,0.566c0,0.364-0.136,0.816-0.407,1.363L101.812,5.8c0,0-3.148,7.107-3.303,7.454h-3.907   c0.242-0.53,0.906-1.99,0.906-1.99H92.15c0,0-1.131,1.748-1.286,1.99h-4.054c0.652-0.88,7.384-9.967,7.555-10.198H99.372z"/>
	<path clip-path="url(#SVGID_2_)" fill="#9A8348" d="M30.473,2.443H7.684L7.74,2.798c0.238,1.488,1.439,2.045,2.713,2.246   c0.008,0.049,0.018,0.114,0.018,0.114c0.281,1.758,3.368,2.151,5.5,2.211c-0.358,0.688-1.766,3.382-1.766,3.382   c-0.139,0.267-0.441,0.845-0.441,1.444c0,0.254,0.056,0.513,0.2,0.752c0.368,0.607,1.184,0.901,2.494,0.901h8.573l3.211-6.233   h-6.368l-1.364,2.648h1.182c-0.2,0.389-0.399,0.774-0.492,0.955h-0.981c-0.485,0.003-0.568-0.11-0.577-0.123   c-0.006-0.01-0.014-0.03-0.014-0.069c0-0.079,0.033-0.234,0.187-0.532c0,0,2.323-4.507,2.784-5.403h2.044   c-0.073,0.145-0.383,0.748-0.383,0.748h4.978l1.737-3.396H30.473"/>
	<path clip-path="url(#SVGID_2_)" fill="#FFFFFF" d="M21.875,3.056h8.097c-0.299,0.584-0.985,1.926-1.11,2.17h-3.601   c0.075-0.145,0.383-0.747,0.383-0.747h-3.419l-2.956,5.734c-0.188,0.366-0.377,0.833-0.15,1.202   c0.174,0.283,0.534,0.419,1.101,0.416h1.354l1.123-2.181h-1.182c0.251-0.487,0.623-1.209,0.733-1.422h4.99   c-0.378,0.732-2.434,4.721-2.581,5.008h-8.199c-1.048,0-1.729-0.21-1.97-0.606c-0.078-0.129-0.109-0.278-0.109-0.433   c0-0.455,0.265-0.962,0.37-1.163l2.226-4.264l-0.502-0.004c-2.831-0.018-4.731-0.516-5.258-1.351h6.472l0.536-0.87L17.678,4.54   h-5.68c-2.09-0.006-3.205-0.471-3.556-1.484H21.875"/>
	<path clip-path="url(#SVGID_2_)" fill="#9A8348" d="M22.18,14.936H2.494l0.057,0.355c0.238,1.488,1.439,2.045,2.712,2.246   c0.008,0.05,0.019,0.114,0.019,0.114c0.295,1.843,2.58,2.173,4.451,2.216C9.711,19.98,9.7,20.088,9.7,20.187   c0,0.159,0.034,0.294,0.089,0.413c0.13,0.794,0.841,1.241,2.123,1.326c0.005,0,1.531,0.073,1.531,0.073   c0.579,0.032,0.672,0.123,0.682,0.137c0,0.001,0.002,0.005,0.002,0.016c0,0.036-0.015,0.139-0.138,0.362   c0,0-0.633,1.156-0.774,1.413h-0.616c-0.168,0-0.251-0.014-0.295-0.025c0.013-0.052,0.046-0.152,0.146-0.347   c0.084-0.167,0.114-0.312,0.114-0.436c0-0.149-0.045-0.267-0.097-0.353c-0.231-0.386-0.801-0.478-1.237-0.487H8.397l-1.129,2.059   c-0.021,0.043-0.33,0.702,0.035,1.281c0.31,0.491,0.983,0.74,2.001,0.74h4.492c0.121-0.001,2.864-0.057,3.78-1.726   c0.002-0.004,1.464-2.751,1.464-2.751c0.242-0.436,0.326-0.801,0.326-1.097c0-0.27-0.07-0.483-0.154-0.642   c-0.268-0.504-0.88-0.834-1.681-0.905c-0.002,0-1.584-0.129-1.687-0.137c-0.179-0.025-0.685-0.099-0.739-0.189   c-0.002-0.001-0.005-0.008-0.005-0.027c0-0.058,0.029-0.22,0.248-0.62c0,0,0.329-0.602,0.491-0.896h1.068   c-0.135,0.256-0.508,0.963-0.508,0.963h4.496c0,0,0.389-0.738,0.508-0.963h0.039l1.234-2.433H22.18"/>
	<path clip-path="url(#SVGID_2_)" fill="#FFFFFF" d="M16.128,15.549h5.553c-0.227,0.446-0.511,1.006-0.612,1.207h-0.033   c0,0-0.388,0.738-0.507,0.963h-3.111c0.135-0.256,0.508-0.963,0.508-0.963h-2.448l-0.665,1.215c-0.27,0.494-0.417,0.89-0.255,1.215   c0.176,0.349,0.594,0.434,1.211,0.523l0.01,0.001l1.702,0.138c0.589,0.052,1.023,0.265,1.192,0.582   c0.191,0.361,0.013,0.83-0.17,1.159c-0.003,0.005-1.464,2.753-1.464,2.753c-0.742,1.352-3.22,1.405-3.245,1.405H9.305   c-0.779,0-1.292-0.156-1.479-0.451c-0.065-0.101-0.086-0.214-0.086-0.317c0-0.188,0.067-0.344,0.073-0.358   c0.013-0.022,0.804-1.464,0.948-1.729h2.463c0.482,0.01,0.682,0.128,0.719,0.19c0.029,0.05-0.023,0.163-0.04,0.197   c-0.167,0.329-0.314,0.674-0.141,0.956c0.164,0.268,0.516,0.304,0.837,0.304h0.979l0.949-1.731   c0.106-0.194,0.213-0.427,0.213-0.657c0-0.106-0.023-0.212-0.079-0.313c-0.194-0.349-0.686-0.423-1.187-0.45   c-0.002,0-1.527-0.074-1.527-0.074c-1.459-0.096-1.535-0.652-1.561-0.835l-0.008-0.062l-0.032-0.053   c-0.012-0.02-0.035-0.072-0.035-0.179c0-0.11,0.024-0.276,0.105-0.524l0.131-0.4l-0.421-0.001c-2.375-0.01-3.729-0.455-4.129-1.351   h5.3l0.53-0.866l-0.54-0.01H6.809c-2.091-0.006-3.205-0.471-3.557-1.484H16.128"/>
	<path clip-path="url(#SVGID_2_)" fill="#9A8348" d="M88.021,15.289l-5.483,11.164h4.398c0,0,1.575-3.324,2.176-4.591   c0.166,1.334,0.57,4.591,0.57,4.591h1.627c0.87-0.058,2.497-0.574,3.63-3.372c-0.002,0.005,3.221-7.541,3.221-7.541l0.177-0.415   l-4.214-0.001c0,0-1.327,3.03-1.875,4.281c-0.194-1.302-0.638-4.281-0.638-4.281l-3.507-0.002L88.021,15.289"/>
	<path clip-path="url(#SVGID_2_)" fill="#FFFFFF" d="M88.475,15.718c0.3,0,2.219,0.001,2.62,0.001   c0.068,0.458,0.868,5.821,0.868,5.821s2.404-5.488,2.549-5.82c0.302,0,2.276,0,2.922,0.001c-0.316,0.74-3.046,7.131-3.046,7.131   c-1.01,2.496-2.38,2.955-3.111,3.006h-1.068c-0.058-0.473-0.758-6.104-0.758-6.104s-2.74,5.784-2.892,6.104h-3.064   C83.876,25.079,88.322,16.028,88.475,15.718"/>
	<path clip-path="url(#SVGID_2_)" fill="#003876" d="M96.551,28.128c-0.043-0.017-0.104-0.026-0.184-0.026H96.29v0.355h0.123   c0.074,0,0.132-0.015,0.174-0.045c0.042-0.03,0.063-0.078,0.063-0.145C96.649,28.2,96.617,28.154,96.551,28.128 M95.978,29.099   v-1.205c0.075,0,0.188,0.001,0.336,0.001c0.149,0.001,0.232,0.001,0.249,0.002c0.096,0.007,0.175,0.028,0.237,0.063   c0.108,0.059,0.161,0.155,0.161,0.288c0,0.102-0.028,0.175-0.085,0.22c-0.057,0.046-0.127,0.073-0.21,0.082   c0.078,0.016,0.137,0.039,0.176,0.069c0.073,0.057,0.11,0.147,0.11,0.27v0.107c0,0.012,0,0.024,0.001,0.035   c0.002,0.012,0.003,0.024,0.006,0.036l0.007,0.033h-0.302c-0.01-0.038-0.017-0.093-0.02-0.166c-0.004-0.072-0.01-0.121-0.02-0.147   c-0.016-0.042-0.046-0.072-0.089-0.088c-0.024-0.01-0.061-0.016-0.109-0.019l-0.069-0.005H96.29v0.425H95.978z M95.821,27.873   c-0.174,0.176-0.26,0.386-0.26,0.629c0,0.251,0.089,0.465,0.264,0.641c0.175,0.176,0.387,0.264,0.634,0.264   s0.458-0.089,0.633-0.266c0.174-0.177,0.262-0.391,0.262-0.639c0-0.242-0.087-0.452-0.261-0.629   c-0.176-0.181-0.387-0.272-0.634-0.272C96.21,27.601,95.997,27.692,95.821,27.873 M97.221,29.279   c-0.212,0.205-0.466,0.307-0.763,0.307c-0.307,0-0.565-0.105-0.775-0.315c-0.21-0.209-0.314-0.468-0.314-0.774   c0-0.318,0.113-0.583,0.34-0.794c0.213-0.197,0.463-0.295,0.75-0.295c0.301,0,0.557,0.106,0.77,0.319   c0.214,0.213,0.32,0.469,0.32,0.77C97.548,28.806,97.438,29.067,97.221,29.279"/>
</g>
</svg>