<?xml version="1.0" encoding="UTF-8" standalone="no"?>
<!-- Created with Inkscape (http://www.inkscape.org/) -->

<svg
   xmlns:dc="http://purl.org/dc/elements/1.1/"
   xmlns:cc="http://creativecommons.org/ns#"
   xmlns:rdf="http://www.w3.org/1999/02/22-rdf-syntax-ns#"
   xmlns:svg="http://www.w3.org/2000/svg"
   xmlns="http://www.w3.org/2000/svg"
   xmlns:xlink="http://www.w3.org/1999/xlink"
   version="1.1"
   width="280"
   height="200"
   viewBox="0 0 280 200.00001"
   id="Layer_1"
   xml:space="preserve"><metadata
     id="metadata77"><rdf:RDF><cc:Work
         rdf:about=""><dc:format>image/svg+xml</dc:format><dc:type
           rdf:resource="http://purl.org/dc/dcmitype/StillImage" /><dc:title></dc:title></cc:Work></rdf:RDF></metadata><defs
     id="defs75" /><g
     transform="matrix(2.6565689,0,0,2.6565689,-0.04781965,57.40276)"
     id="g3"><defs
       id="defs5"><rect
         width="105.479"
         height="29.639999"
         x="0"
         y="0"
         id="SVGID_1_" /></defs><clipPath
       id="SVGID_2_"><use
         id="use9"
         style="overflow:visible"
         x="0"
         y="0"
         width="105.479"
         height="29.639999"
         xlink:href="#SVGID_1_" /></clipPath><path
       d="M 105.147,2.582 C 104.33,1.048 102.709,0.145 99.652,0.084 L 21.875,0.112 H 5.112 l 0.013,1.034 c 0.024,1.84 0.832,5.286 3.645,5.926 0.683,1.033 1.887,1.763 3.583,2.187 -0.082,0.157 -0.216,0.414 -0.216,0.414 -0.125,0.24 -0.231,0.477 -0.324,0.711 -0.379,0.738 -0.777,1.515 -1.185,2.307 H 0.018 l 0.019,1.038 c 0.003,0.2 0.127,4.681 3.519,5.701 0.422,0.761 1.186,1.556 2.543,2.082 -0.563,1.099 -0.915,1.781 -0.915,1.781 l -0.023,0.051 c -0.168,0.35 -0.368,0.917 -0.368,1.631 0,0.673 0.186,1.325 0.539,1.886 0.526,0.834 1.642,1.829 3.975,1.829 0,0 58.063,-0.012 78.658,-0.017 6.334,0 7.515,-0.742 9.955,-6.427 l 6.547,-14.938 c 1.029,-2.239 1.166,-3.815 0.68,-4.726"
       clip-path="url(#SVGID_2_)"
       id="path11"
       style="fill:#9db7c4" /><path
       d="M 104.053,3.03 C 103.405,1.814 101.912,1.09 99.534,1.098 L 21.875,1.133 H 6.147 c 0,0 0.06,4.729 3.265,5.009 0.583,1.262 2.085,2.056 4.479,2.379 -0.415,0.794 -0.848,1.624 -0.848,1.624 -0.117,0.224 -0.215,0.444 -0.297,0.658 -0.476,0.924 -0.981,1.909 -1.494,2.908 H 1.057 c 0,0 0.073,4.31 3.216,4.849 0.557,1.425 1.957,2.048 3.298,2.321 -0.884,1.72 -1.473,2.866 -1.473,2.866 l -0.019,0.04 c -0.156,0.325 -0.268,0.741 -0.268,1.188 0,0.438 0.107,0.905 0.384,1.342 0.564,0.898 1.61,1.352 3.109,1.352 L 89.12,27.653 c 3.541,0 5.421,-0.293 7.477,-4.944 L 103.53,6.897 c 0.672,-1.579 1.07,-2.84 0.523,-3.867"
       clip-path="url(#SVGID_2_)"
       id="path13"
       style="fill:#003876" /><path
       d="m 42.979,2.443 h -6.487 c -3.727,0 -5.028,2.695 -5.122,2.901 -0.005,0.011 -4.537,8.522 -4.537,8.522 h 10.696 l 0.602,-1.13 0.008,-0.051 c 0.013,-0.079 0.02,-0.156 0.02,-0.231 0,-0.286 -0.09,-0.541 -0.267,-0.749 -0.26,-0.308 -0.69,-0.481 -1.212,-0.487 h -2.767 c 0.307,-0.576 0.97,-1.821 1.095,-2.056 h 4.241 L 40.66,6.514 h -4.242 c 0.161,-0.301 0.33,-0.618 0.33,-0.618 0.283,-0.534 0.845,-0.805 1.668,-0.805 h 3.665 l 1.41,-2.648 h -0.512"
       clip-path="url(#SVGID_2_)"
       id="path15"
       style="fill:#9a8348" /><path
       d="m 31.913,5.627 0.005,-0.009 0.005,-0.01 C 31.97,5.504 33.111,3.056 36.491,3.056 h 5.978 c -0.261,0.49 -0.646,1.214 -0.757,1.423 h -3.297 c -1.33,0 -1.937,0.614 -2.21,1.13 l -0.81,1.518 h 4.242 c -0.261,0.49 -0.646,1.214 -0.758,1.423 h -4.241 l -1.747,3.281 h 3.783 c 0.338,0.004 0.604,0.099 0.747,0.269 0.081,0.095 0.122,0.214 0.122,0.355 0,0.029 -0.005,0.061 -0.008,0.092 -0.041,0.077 -0.268,0.502 -0.377,0.707 H 27.85 c 0.43,-0.803 4.063,-7.627 4.063,-7.627"
       clip-path="url(#SVGID_2_)"
       id="path17"
       style="fill:#ffffff" /><path
       d="m 63.076,5.475 c 0.3,0 0.398,0.039 0.43,0.056 -0.002,0.021 -0.01,0.076 -0.072,0.19 0,0 -0.284,0.531 -0.406,0.758 -0.141,0.049 -0.938,0.328 -1.619,0.567 0.345,-0.642 0.739,-1.376 0.845,-1.571 h 0.822 M 58.404,2.443 52.255,13.866 h 5.503 c 0,0 1.753,-3.288 2.023,-3.794 0.297,0.195 0.714,0.468 0.971,0.636 -0.22,0.415 -1.677,3.158 -1.677,3.158 h 5.354 l 2.32,-4.353 c 0,0 -0.977,-0.557 -1.524,-0.869 0.786,-0.275 2.454,-0.858 2.454,-0.858 l 1.694,-3.108 c 0.157,-0.29 0.213,-0.54 0.213,-0.749 0,-0.231 -0.068,-0.413 -0.148,-0.546 -0.543,-0.91 -2.396,-0.939 -2.606,-0.94 h -8.428 z"
       clip-path="url(#SVGID_2_)"
       id="path19"
       style="fill:#9a8348" /><path
       d="M 62.07,4.862 H 61.886 L 60.12,8.146 63.454,6.977 63.974,6.011 C 64.144,5.695 64.166,5.427 64.04,5.216 63.852,4.902 63.426,4.861 63.076,4.861 H 62.07 m 4.761,-1.805 c 0.657,0.002 1.805,0.177 2.081,0.641 0.02,0.034 0.063,0.106 0.063,0.23 0,0.109 -0.032,0.259 -0.141,0.461 -0.002,0.003 -1.475,2.705 -1.58,2.898 -0.206,0.072 -3.501,1.223 -3.501,1.223 0,0 1.793,1.023 2.175,1.241 -0.232,0.437 -1.719,3.226 -1.867,3.504 h -3.967 c 0.344,-0.646 1.462,-2.752 1.462,-2.752 l -2.001,-1.31 c 0,0 -2.006,3.764 -2.165,4.062 H 53.282 C 53.72,12.438 58.61,3.355 58.77,3.056 h 8.061 z"
       clip-path="url(#SVGID_2_)"
       id="path21"
       style="fill:#ffffff" /><polyline
       clip-path="url(#SVGID_2_)"
       points="90.307,2.443 85.457,2.443 79.374,13.866 84.734,13.866 90.817,2.443     "
       id="polyline23"
       style="fill:#9a8348" /><path
       d="m 89.797,3.056 c -0.433,0.813 -5.27,9.896 -5.431,10.198 H 80.393 C 80.828,12.44 85.664,3.357 85.825,3.056 h 3.972"
       clip-path="url(#SVGID_2_)"
       id="path25"
       style="fill:#ffffff" /><path
       d="m 28.01,17.374 c 0.045,0.002 0.132,0.026 0.152,0.062 0.006,0.011 0.01,0.03 0.01,0.057 0,0.069 -0.029,0.195 -0.135,0.388 0,0 -2.78,5.068 -3.313,6.041 h -0.665 c -0.061,0 -0.137,-0.024 -0.149,-0.045 -0.004,-0.006 -0.007,-0.019 -0.007,-0.04 0,-0.06 0.024,-0.182 0.134,-0.381 0,0 2.8,-5.105 3.336,-6.082 h 0.637 m -4.895,-0.733 -0.006,0.01 -4.105,7.486 c -0.138,0.25 -0.506,0.915 -0.161,1.498 0.29,0.491 0.968,0.729 2.074,0.729 h 4.405 c 0.11,0 2.733,-0.021 3.789,-1.945 l 4.091,-7.459 c 0.312,-0.569 0.211,-0.971 0.07,-1.207 -0.47,-0.795 -2.015,-0.821 -2.188,-0.821 h -4.239 c -2.587,0 -3.684,1.639 -3.73,1.709"
       clip-path="url(#SVGID_2_)"
       id="path27"
       style="fill:#9a8348" /><path
       d="m 28.022,16.752 h -1.019 l -3.513,6.406 c -0.235,0.428 -0.273,0.778 -0.114,1.041 0.209,0.344 0.639,0.346 0.688,0.345 h 1.026 l 3.491,-6.365 c 0.234,-0.427 0.274,-0.781 0.119,-1.052 -0.201,-0.351 -0.622,-0.373 -0.67,-0.375 h -0.008 m -1.177,-1.199 h 4.238 c 0.441,0.002 1.427,0.13 1.655,0.516 0.03,0.053 0.126,0.214 -0.082,0.592 l -4.09,7.46 c -0.878,1.598 -3.222,1.621 -3.244,1.621 h -4.405 c -1.121,0 -1.445,-0.265 -1.538,-0.423 -0.04,-0.067 -0.056,-0.144 -0.056,-0.224 0,-0.25 0.155,-0.533 0.225,-0.658 0,0 3.937,-7.178 4.093,-7.464 0.071,-0.104 1.01,-1.42 3.204,-1.42"
       clip-path="url(#SVGID_2_)"
       id="path29"
       style="fill:#ffffff" /><path
       d="m 65.901,14.933 h -4.079 c 0,0 -2.095,3.889 -2.256,4.19 H 58.64 c 0.391,-0.724 2.255,-4.19 2.255,-4.19 h -4.597 l -1.225,2.292 c 0.124,-0.324 0.226,-0.675 0.226,-1.007 0,-0.236 -0.051,-0.463 -0.182,-0.662 -0.275,-0.417 -0.829,-0.62 -1.695,-0.62 h -5.206 c -1.527,0 -2.479,0.632 -3.134,1.381 l 0.76,-1.385 h -4.66 c 0,0 -4.76,8.679 -4.931,8.99 h -0.69 c -0.101,0 -0.156,-0.01 -0.188,-0.018 0.009,-0.061 0.052,-0.194 0.221,-0.501 l 4.646,-8.471 h -4.661 l -5.048,9.205 c -0.139,0.25 -0.504,0.915 -0.16,1.498 0.29,0.491 0.969,0.729 2.074,0.729 h 4.404 c 0.111,0 2.734,-0.021 3.789,-1.945 l 3.695,-6.736 c 0.584,-0.003 2.407,-0.01 3.005,-0.013 -0.428,0.812 -4.648,8.812 -4.648,8.812 h 4.626 c 0,0 4.483,-8.499 4.649,-8.814 0.298,0 2.509,-10e-4 2.87,-0.002 l -4.714,8.819 h 4.598 c 0,0 2.21,-4.177 2.371,-4.483 h 0.929 c -0.388,0.733 -2.372,4.483 -2.372,4.483 h 4.595 l 6.176,-11.552 h -0.517"
       clip-path="url(#SVGID_2_)"
       id="path31"
       style="fill:#9a8348" /><path
       d="m 44.792,15.553 c -0.455,0.829 -4.698,8.568 -4.698,8.568 -0.877,1.598 -3.22,1.621 -3.244,1.621 h -4.404 c -1.12,0 -1.445,-0.265 -1.538,-0.423 -0.04,-0.067 -0.057,-0.144 -0.057,-0.224 0,-0.25 0.156,-0.533 0.226,-0.658 0,0 4.216,-7.688 4.872,-8.884 h 3.24 c -0.447,0.818 -4.14,7.551 -4.14,7.551 -0.161,0.293 -0.302,0.577 -0.302,0.833 0,0.104 0.023,0.203 0.079,0.296 0.184,0.311 0.599,0.311 0.734,0.311 h 1.06 c 0,0 4.76,-8.679 4.931,-8.991 h 3.241"
       clip-path="url(#SVGID_2_)"
       id="path33"
       style="fill:#ffffff" /><path
       d="m 48.215,15.549 h 5.208 c 0.625,0 1.034,0.118 1.181,0.343 0.056,0.083 0.082,0.191 0.082,0.325 0,0.212 -0.07,0.492 -0.207,0.837 -0.357,0 -2.883,0.002 -2.883,0.002 0,0 -4.483,8.498 -4.649,8.813 h -3.24 c 0.427,-0.809 4.652,-8.816 4.652,-8.816 0,0 -2.317,0.01 -3.086,0.013 0.584,-0.808 1.426,-1.517 2.942,-1.517"
       clip-path="url(#SVGID_2_)"
       id="path35"
       style="fill:#ffffff" /><path
       d="m 65.385,15.551 c -0.439,0.823 -5.352,10.011 -5.514,10.315 h -3.195 c 0.387,-0.733 2.371,-4.482 2.371,-4.482 h -2.328 c 0,0 -2.21,4.177 -2.372,4.482 h -3.191 c 0.438,-0.823 5.351,-10.011 5.514,-10.315 h 3.191 c -0.391,0.724 -2.257,4.19 -2.257,4.19 h 2.332 c 0,0 2.095,-3.889 2.256,-4.19 h 3.193"
       clip-path="url(#SVGID_2_)"
       id="path37"
       style="fill:#ffffff" /><path
       d="m 49.839,4.855 c 0.078,0.004 0.239,0.04 0.28,0.113 0.009,0.015 0.015,0.038 0.015,0.069 0,0.071 -0.03,0.182 -0.111,0.335 0,0 -2.697,5.065 -3.217,6.041 h -0.813 c -0.096,0 -0.245,-0.034 -0.279,-0.091 -0.007,-0.01 -0.011,-0.029 -0.011,-0.056 0,-0.062 0.023,-0.169 0.109,-0.329 0,0 2.718,-5.103 3.238,-6.082 h 0.789 m -5.736,-0.724 -0.008,0.011 -3.79,7.106 c -0.38,0.709 -0.433,1.301 -0.157,1.758 0.339,0.566 1.109,0.841 2.356,0.841 h 5.176 c 0.13,0 3.179,-0.021 4.203,-1.947 L 55.857,4.442 C 56.132,3.923 56.03,3.548 55.895,3.324 55.373,2.452 53.458,2.423 53.242,2.423 h -4.98 c -3.009,0 -4.115,1.638 -4.159,1.708"
       clip-path="url(#SVGID_2_)"
       id="path39"
       style="fill:#9a8348" /><path
       d="m 49.848,4.244 h -1.165 l -3.412,6.406 c -0.212,0.399 -0.238,0.734 -0.079,0.994 0.233,0.381 0.749,0.383 0.807,0.382 h 1.176 l 3.39,-6.365 C 50.778,5.263 50.805,4.926 50.649,4.66 50.422,4.269 49.915,4.245 49.856,4.244 H 49.848 M 48.261,3.035 h 4.98 c 0.733,0.002 1.881,0.191 2.128,0.604 0.016,0.026 0.048,0.08 0.048,0.175 0,0.081 -0.023,0.192 -0.102,0.34 -0.002,0 -3.974,7.459 -3.974,7.459 -0.851,1.6 -3.634,1.621 -3.662,1.621 h -5.176 c -0.985,0 -1.619,-0.188 -1.832,-0.542 -0.062,-0.105 -0.086,-0.221 -0.086,-0.341 0,-0.329 0.185,-0.676 0.259,-0.814 0,0 3.6,-6.747 3.776,-7.079 0.078,-0.111 1.042,-1.423 3.641,-1.423"
       clip-path="url(#SVGID_2_)"
       id="path41"
       style="fill:#ffffff" /><path
       d="m 75.557,14.933 h -4.966 c -3.034,0 -4.383,2.804 -4.438,2.923 -0.001,0 -4.36,8.174 -4.36,8.174 l -0.243,0.455 h 8.453 l 0.419,-0.883 -0.007,0.016 c 0.28,-0.513 0.321,-0.985 0.116,-1.331 -0.214,-0.359 -0.656,-0.541 -1.316,-0.541 h -1.599 c 0.313,-0.582 0.983,-1.826 1.109,-2.062 h 3.19 l 1.433,-2.663 h -3.189 c 0.163,-0.302 0.333,-0.617 0.333,-0.617 0.288,-0.537 0.751,-0.809 1.376,-0.809 h 2.772 l 1.435,-2.662 h -0.518"
       clip-path="url(#SVGID_2_)"
       id="path43"
       style="fill:#9a8348" /><path
       d="m 66.706,18.133 c 0.056,-0.119 1.25,-2.582 3.885,-2.582 h 4.448 c -0.267,0.494 -0.656,1.217 -0.769,1.426 h -2.402 c -0.858,0 -1.523,0.392 -1.921,1.134 l -0.823,1.529 h 3.189 c -0.266,0.494 -0.654,1.217 -0.768,1.426 h -3.189 l -1.775,3.299 h 2.634 c 0.414,0 0.692,0.084 0.783,0.238 0.029,0.048 0.043,0.109 0.043,0.18 0,0.146 -0.058,0.334 -0.17,0.538 l -0.004,0.008 c 0,0 -0.161,0.339 -0.255,0.537 h -7.031 c 0.433,-0.811 4.125,-7.733 4.125,-7.733"
       clip-path="url(#SVGID_2_)"
       id="path45"
       style="fill:#ffffff" /><path
       d="m 80.81,17.595 c 0.155,0 0.228,0.017 0.262,0.028 -0.006,0.035 -0.025,0.103 -0.087,0.218 0,0 -0.294,0.545 -0.414,0.768 -0.111,0.046 -0.644,0.265 -1.216,0.5 0.352,-0.65 0.715,-1.325 0.815,-1.514 h 0.64 m -3.851,-2.662 -6.176,11.552 h 4.645 c 0,0 1.925,-3.64 2.236,-4.226 0.249,0.217 0.466,0.406 0.642,0.56 -0.198,0.38 -1.928,3.666 -1.928,3.666 h 4.521 L 83.44,21.68 c 0,0 -0.771,-0.579 -1.188,-0.892 0.648,-0.266 2.144,-0.88 2.144,-0.88 l 1.47,-2.729 c 0.165,-0.307 0.248,-0.591 0.248,-0.851 0,-0.204 -0.052,-0.393 -0.154,-0.565 -0.48,-0.804 -1.894,-0.83 -2.054,-0.83 h -6.947 z"
       clip-path="url(#SVGID_2_)"
       id="path47"
       style="fill:#9a8348" /><path
       d="M 79.985,16.977 H 79.8 l -1.81,3.363 3.021,-1.244 0.519,-0.962 c 0.067,-0.127 0.275,-0.514 0.084,-0.835 -0.192,-0.322 -0.637,-0.322 -0.804,-0.322 h -0.825 m 3.92,-1.426 c 0.313,10e-4 1.268,0.101 1.522,0.529 0.113,0.191 0.077,0.462 -0.107,0.806 0,0 -1.267,2.353 -1.364,2.534 -0.189,0.077 -2.946,1.209 -2.946,1.209 0,0 1.331,0.999 1.636,1.229 -0.212,0.401 -1.968,3.72 -2.119,4.008 h -3.124 c 0.358,-0.682 1.68,-3.192 1.68,-3.192 l -1.6,-1.395 c 0,0 -2.267,4.282 -2.428,4.587 h -3.238 c 0.438,-0.823 5.351,-10.011 5.514,-10.315 h 6.574 z"
       clip-path="url(#SVGID_2_)"
       id="path49"
       style="fill:#ffffff" /><path
       d="M 83.669,2.443 H 75.07 c -3.361,0.008 -4.29,1.811 -5.188,3.554 -0.006,0.012 -2.481,4.754 -2.481,4.754 -0.199,0.381 -0.728,1.394 -0.241,2.196 0.368,0.607 1.184,0.901 2.494,0.901 h 8.572 L 81.438,7.615 H 75.07 l -1.364,2.648 h 1.182 c -0.201,0.389 -0.399,0.774 -0.493,0.955 h -0.98 c -0.486,0.003 -0.569,-0.11 -0.577,-0.123 -0.006,-0.01 -0.014,-0.03 -0.014,-0.069 0,-0.079 0.032,-0.234 0.187,-0.532 0,0 2.323,-4.507 2.784,-5.403 h 2.044 c -0.074,0.145 -0.383,0.748 -0.383,0.748 h 4.977 l 1.739,-3.396 h -0.503"
       clip-path="url(#SVGID_2_)"
       id="path51"
       style="fill:#9a8348" /><path
       d="m 67.683,12.63 c -0.078,-0.129 -0.108,-0.278 -0.108,-0.433 0,-0.455 0.265,-0.962 0.37,-1.163 l 2.476,-4.742 c 0.896,-1.739 1.663,-3.229 4.651,-3.236 h 8.097 C 82.87,3.64 82.182,4.982 82.057,5.226 h -3.6 C 78.532,5.081 78.84,4.479 78.84,4.479 h -3.42 l -2.956,5.734 c -0.188,0.366 -0.377,0.833 -0.151,1.202 0.175,0.283 0.534,0.419 1.102,0.416 h 1.354 L 75.892,9.65 H 74.71 c 0.251,-0.487 0.623,-1.209 0.733,-1.422 h 4.989 C 80.055,8.96 78,12.949 77.852,13.236 h -8.198 c -1.05,0 -1.73,-0.21 -1.971,-0.606"
       clip-path="url(#SVGID_2_)"
       id="path53"
       style="fill:#ffffff" /><path
       d="m 96.979,5.349 c 0.412,0.012 0.481,0.102 0.484,0.107 0.005,0.007 0.011,0.024 0.011,0.057 0,0.078 -0.036,0.249 -0.212,0.617 C 97.26,6.134 96.14,8.553 95.828,9.228 H 94.542 C 94.999,8.503 96.828,5.591 96.979,5.349 M 94.056,2.443 85.595,13.866 h 5.604 c 0,0 1.13,-1.748 1.286,-1.99 h 2.071 c -0.24,0.53 -0.905,1.99 -0.905,1.99 h 5.258 l 3.464,-7.818 -0.005,0.013 c 0.538,-1.083 0.614,-1.908 0.231,-2.524 C 102.143,2.8 101.087,2.443 99.372,2.443 h -5.316 z"
       clip-path="url(#SVGID_2_)"
       id="path55"
       style="fill:#9a8348" /><path
       d="m 96.806,4.735 -0.165,0.003 -3.207,5.103 h 2.787 l 1.597,-3.45 c 0.2,-0.418 0.397,-0.9 0.161,-1.266 -0.232,-0.361 -0.748,-0.398 -1.173,-0.39 m 2.566,-1.679 c 1.444,-10e-4 2.38,0.277 2.706,0.803 0.098,0.159 0.147,0.346 0.147,0.566 0,0.364 -0.136,0.816 -0.407,1.363 L 101.812,5.8 c 0,0 -3.148,7.107 -3.303,7.454 h -3.907 c 0.242,-0.53 0.906,-1.99 0.906,-1.99 H 92.15 c 0,0 -1.131,1.748 -1.286,1.99 H 86.81 c 0.652,-0.88 7.384,-9.967 7.555,-10.198 h 5.007 z"
       clip-path="url(#SVGID_2_)"
       id="path57"
       style="fill:#ffffff" /><path
       d="M 30.473,2.443 H 7.684 L 7.74,2.798 c 0.238,1.488 1.439,2.045 2.713,2.246 0.008,0.049 0.018,0.114 0.018,0.114 0.281,1.758 3.368,2.151 5.5,2.211 -0.358,0.688 -1.766,3.382 -1.766,3.382 -0.139,0.267 -0.441,0.845 -0.441,1.444 0,0.254 0.056,0.513 0.2,0.752 0.368,0.607 1.184,0.901 2.494,0.901 h 8.573 l 3.211,-6.233 h -6.368 l -1.364,2.648 h 1.182 c -0.2,0.389 -0.399,0.774 -0.492,0.955 h -0.981 c -0.485,0.003 -0.568,-0.11 -0.577,-0.123 -0.006,-0.01 -0.014,-0.03 -0.014,-0.069 0,-0.079 0.033,-0.234 0.187,-0.532 0,0 2.323,-4.507 2.784,-5.403 h 2.044 C 24.57,5.236 24.26,5.839 24.26,5.839 h 4.978 l 1.737,-3.396 h -0.502"
       clip-path="url(#SVGID_2_)"
       id="path59"
       style="fill:#9a8348" /><path
       d="m 21.875,3.056 h 8.097 c -0.299,0.584 -0.985,1.926 -1.11,2.17 h -3.601 c 0.075,-0.145 0.383,-0.747 0.383,-0.747 h -3.419 l -2.956,5.734 c -0.188,0.366 -0.377,0.833 -0.15,1.202 0.174,0.283 0.534,0.419 1.101,0.416 h 1.354 L 22.697,9.65 h -1.182 c 0.251,-0.487 0.623,-1.209 0.733,-1.422 h 4.99 c -0.378,0.732 -2.434,4.721 -2.581,5.008 h -8.199 c -1.048,0 -1.729,-0.21 -1.97,-0.606 -0.078,-0.129 -0.109,-0.278 -0.109,-0.433 0,-0.455 0.265,-0.962 0.37,-1.163 L 16.975,6.77 16.473,6.766 C 13.642,6.748 11.742,6.25 11.215,5.415 h 6.472 L 18.223,4.545 17.678,4.54 h -5.68 C 9.908,4.534 8.793,4.069 8.442,3.056 h 13.433"
       clip-path="url(#SVGID_2_)"
       id="path61"
       style="fill:#ffffff" /><path
       d="M 22.18,14.936 H 2.494 l 0.057,0.355 c 0.238,1.488 1.439,2.045 2.712,2.246 0.008,0.05 0.019,0.114 0.019,0.114 0.295,1.843 2.58,2.173 4.451,2.216 -0.022,0.113 -0.033,0.221 -0.033,0.32 0,0.159 0.034,0.294 0.089,0.413 0.13,0.794 0.841,1.241 2.123,1.326 0.005,0 1.531,0.073 1.531,0.073 0.579,0.032 0.672,0.123 0.682,0.137 0,0.001 0.002,0.005 0.002,0.016 0,0.036 -0.015,0.139 -0.138,0.362 0,0 -0.633,1.156 -0.774,1.413 h -0.616 c -0.168,0 -0.251,-0.014 -0.295,-0.025 0.013,-0.052 0.046,-0.152 0.146,-0.347 0.084,-0.167 0.114,-0.312 0.114,-0.436 0,-0.149 -0.045,-0.267 -0.097,-0.353 C 12.236,22.38 11.666,22.288 11.23,22.279 H 8.397 l -1.129,2.059 c -0.021,0.043 -0.33,0.702 0.035,1.281 0.31,0.491 0.983,0.74 2.001,0.74 h 4.492 c 0.121,-0.001 2.864,-0.057 3.78,-1.726 0.002,-0.004 1.464,-2.751 1.464,-2.751 0.242,-0.436 0.326,-0.801 0.326,-1.097 0,-0.27 -0.07,-0.483 -0.154,-0.642 -0.268,-0.504 -0.88,-0.834 -1.681,-0.905 -0.002,0 -1.584,-0.129 -1.687,-0.137 -0.179,-0.025 -0.685,-0.099 -0.739,-0.189 -0.002,-10e-4 -0.005,-0.008 -0.005,-0.027 0,-0.058 0.029,-0.22 0.248,-0.62 0,0 0.329,-0.602 0.491,-0.896 h 1.068 c -0.135,0.256 -0.508,0.963 -0.508,0.963 h 4.496 c 0,0 0.389,-0.738 0.508,-0.963 h 0.039 l 1.234,-2.433 H 22.18"
       clip-path="url(#SVGID_2_)"
       id="path63"
       style="fill:#9a8348" /><path
       d="m 16.128,15.549 h 5.553 c -0.227,0.446 -0.511,1.006 -0.612,1.207 h -0.033 c 0,0 -0.388,0.738 -0.507,0.963 h -3.111 c 0.135,-0.256 0.508,-0.963 0.508,-0.963 h -2.448 l -0.665,1.215 c -0.27,0.494 -0.417,0.89 -0.255,1.215 0.176,0.349 0.594,0.434 1.211,0.523 l 0.01,0.001 1.702,0.138 c 0.589,0.052 1.023,0.265 1.192,0.582 0.191,0.361 0.013,0.83 -0.17,1.159 -0.003,0.005 -1.464,2.753 -1.464,2.753 -0.742,1.352 -3.22,1.405 -3.245,1.405 H 9.305 C 8.526,25.747 8.013,25.591 7.826,25.296 7.761,25.195 7.74,25.082 7.74,24.979 c 0,-0.188 0.067,-0.344 0.073,-0.358 0.013,-0.022 0.804,-1.464 0.948,-1.729 h 2.463 c 0.482,0.01 0.682,0.128 0.719,0.19 0.029,0.05 -0.023,0.163 -0.04,0.197 -0.167,0.329 -0.314,0.674 -0.141,0.956 0.164,0.268 0.516,0.304 0.837,0.304 h 0.979 l 0.949,-1.731 c 0.106,-0.194 0.213,-0.427 0.213,-0.657 0,-0.106 -0.023,-0.212 -0.079,-0.313 -0.194,-0.349 -0.686,-0.423 -1.187,-0.45 -0.002,0 -1.527,-0.074 -1.527,-0.074 -1.459,-0.096 -1.535,-0.652 -1.561,-0.835 l -0.008,-0.062 -0.032,-0.053 c -0.012,-0.02 -0.035,-0.072 -0.035,-0.179 0,-0.11 0.024,-0.276 0.105,-0.524 l 0.131,-0.4 -0.421,-10e-4 C 7.751,19.25 6.397,18.805 5.997,17.909 h 5.3 l 0.53,-0.866 -0.54,-0.01 H 6.809 C 4.718,17.027 3.604,16.562 3.252,15.549 h 12.876"
       clip-path="url(#SVGID_2_)"
       id="path65"
       style="fill:#ffffff" /><path
       d="m 88.021,15.289 -5.483,11.164 h 4.398 c 0,0 1.575,-3.324 2.176,-4.591 0.166,1.334 0.57,4.591 0.57,4.591 h 1.627 c 0.87,-0.058 2.497,-0.574 3.63,-3.372 -0.002,0.005 3.221,-7.541 3.221,-7.541 l 0.177,-0.415 -4.214,-10e-4 c 0,0 -1.327,3.03 -1.875,4.281 -0.194,-1.302 -0.638,-4.281 -0.638,-4.281 l -3.507,-0.002 -0.082,0.167"
       clip-path="url(#SVGID_2_)"
       id="path67"
       style="fill:#9a8348" /><path
       d="m 88.475,15.718 c 0.3,0 2.219,10e-4 2.62,10e-4 0.068,0.458 0.868,5.821 0.868,5.821 0,0 2.404,-5.488 2.549,-5.82 0.302,0 2.276,0 2.922,10e-4 -0.316,0.74 -3.046,7.131 -3.046,7.131 -1.01,2.496 -2.38,2.955 -3.111,3.006 h -1.068 c -0.058,-0.473 -0.758,-6.104 -0.758,-6.104 0,0 -2.74,5.784 -2.892,6.104 h -3.064 c 0.381,-0.779 4.827,-9.83 4.98,-10.14"
       clip-path="url(#SVGID_2_)"
       id="path69"
       style="fill:#ffffff" /><path
       d="M 96.551,28.128 C 96.508,28.111 96.447,28.102 96.367,28.102 H 96.29 v 0.355 h 0.123 c 0.074,0 0.132,-0.015 0.174,-0.045 0.042,-0.03 0.063,-0.078 0.063,-0.145 -0.001,-0.067 -0.033,-0.113 -0.099,-0.139 m -0.573,0.971 v -1.205 c 0.075,0 0.188,0.001 0.336,0.001 0.149,0.001 0.232,0.001 0.249,0.002 0.096,0.007 0.175,0.028 0.237,0.063 0.108,0.059 0.161,0.155 0.161,0.288 0,0.102 -0.028,0.175 -0.085,0.22 -0.057,0.046 -0.127,0.073 -0.21,0.082 0.078,0.016 0.137,0.039 0.176,0.069 0.073,0.057 0.11,0.147 0.11,0.27 v 0.107 c 0,0.012 0,0.024 0.001,0.035 0.002,0.012 0.003,0.024 0.006,0.036 l 0.007,0.033 h -0.302 c -0.01,-0.038 -0.017,-0.093 -0.02,-0.166 -0.004,-0.072 -0.01,-0.121 -0.02,-0.147 -0.016,-0.042 -0.046,-0.072 -0.089,-0.088 -0.024,-0.01 -0.061,-0.016 -0.109,-0.019 L 96.357,28.675 H 96.29 V 29.1 h -0.312 z m -0.157,-1.226 c -0.174,0.176 -0.26,0.386 -0.26,0.629 0,0.251 0.089,0.465 0.264,0.641 0.175,0.176 0.387,0.264 0.634,0.264 0.247,0 0.458,-0.089 0.633,-0.266 0.174,-0.177 0.262,-0.391 0.262,-0.639 0,-0.242 -0.087,-0.452 -0.261,-0.629 -0.176,-0.181 -0.387,-0.272 -0.634,-0.272 -0.249,0 -0.462,0.091 -0.638,0.272 m 1.4,1.406 c -0.212,0.205 -0.466,0.307 -0.763,0.307 -0.307,0 -0.565,-0.105 -0.775,-0.315 -0.21,-0.209 -0.314,-0.468 -0.314,-0.774 0,-0.318 0.113,-0.583 0.34,-0.794 0.213,-0.197 0.463,-0.295 0.75,-0.295 0.301,0 0.557,0.106 0.77,0.319 0.214,0.213 0.32,0.469 0.32,0.77 -0.001,0.309 -0.111,0.57 -0.328,0.782"
       clip-path="url(#SVGID_2_)"
       id="path71"
       style="fill:#003876" /></g></svg>