<?xml version="1.0" encoding="UTF-8" standalone="no"?>
<!-- Created with Inkscape (http://www.inkscape.org/) -->

<svg
   xmlns:dc="http://purl.org/dc/elements/1.1/"
   xmlns:cc="http://creativecommons.org/ns#"
   xmlns:rdf="http://www.w3.org/1999/02/22-rdf-syntax-ns#"
   xmlns:svg="http://www.w3.org/2000/svg"
   xmlns="http://www.w3.org/2000/svg"
   version="1.0"
   width="280"
   height="199.97"
   id="svg2"
   xml:space="preserve"
   style="overflow:visible"><metadata
     id="metadata3433"><rdf:RDF><cc:Work
         rdf:about=""><dc:format>image/svg+xml</dc:format><dc:type
           rdf:resource="http://purl.org/dc/dcmitype/StillImage" /><dc:title></dc:title></cc:Work></rdf:RDF></metadata><defs
     id="defs265" /><polygon
     points="10.31,43.925 10.31,37.004 15.045,37.004 15.045,7.502 10.31,7.502 10.31,0.581 30.298,0.581 30.298,7.502 25.624,7.502 25.624,37.004 25.624,37.004 30.298,37.004 30.298,43.925 "
     transform="matrix(4.4937761,0,0,4.4937761,51.99952,-0.00303772)"
     id="polygon248"
     style="stroke:#000000;stroke-width:1.16199994" /><polygon
     points="10.829,37.522 15.55,37.522 15.55,6.967 10.829,6.967 10.829,1.096 29.783,1.096 29.783,6.967 25.116,6.967 25.116,37.522 29.774,37.522 29.774,37.522 29.774,43.393 10.829,43.393 "
     transform="matrix(4.4937761,0,0,4.4937761,51.99952,-0.00303772)"
     id="polygon252"
     style="fill:#b18e5f;fill-opacity:1" /><path
     d="m 232.18197,124.65431 c -0.26513,-3.78825 -2.52999,-6.15198 -3.50065,-7.16308 -0.24266,-0.25615 -0.37298,-0.41792 -0.65609,-0.62014 0,0 -1.85593,-1.30769 -2.6019,-1.83796 1.083,-1.81548 1.79751,-3.90509 1.79751,-6.51148 0,-1.14591 -0.10335,-2.36372 -0.31007,-3.65793 -0.004,-0.005 -0.3595,-2.01771 -0.3595,-2.01771 -0.35501,-1.92333 -0.61565,-3.473688 -0.61565,-4.718458 0,-1.13243 0.21571,-2.00872 0.77293,-2.6738 0.83585,-0.99762 1.27624,-2.24239 1.27624,-3.50964 0,-0.47184 -0.0629,-0.95268 -0.18874,-1.42003 -0.46735,-1.72561 -1.74808,-3.10969 -3.42875,-3.71186 -8.16519,-2.92096 -12.77581,2.56595 -14.50591,4.63758 0,0 -1.78403,1.81548 -3.34337,3.41077 1.38857,-2.20195 2.66031,-4.40839 3.75679,-6.37667 l 0.44039,-0.78191 c 2.58393,-4.60612 3.35236,-7.52708 4.6241,-12.35339 l 0.11684,-0.46286 c 0.52577,-2.00423 1.06502,-5.05101 1.06502,-7.81019 0,-0.16627 -0.004,-0.32804 -0.009,-0.48532 -0.0944,-3.78376 -2.15252,-6.90694 -5.65317,-8.57862 -4.92069,-2.36822 -10.15594,1.15939 -16.00684,10.81202 -1.71212,2.8176 -2.83557,5.47342 -3.86015,8.28653 -0.39995,-0.18425 -2.60639,-1.2268 -2.60639,-1.2268 -0.72799,-0.34602 -1.53238,-0.52578 -2.34126,-0.52578 -0.0225,0 -0.0629,0.009 -0.0854,0.009 -0.19323,-0.16177 -0.31906,-0.33703 -0.53925,-0.49431 -3.15463,-2.2424 -5.779,-1.87391 -6.89795,-1.71663 -2.41316,0.17975 -6.09805,1.60428 -7.84164,2.76817 -0.29659,0.20222 -0.58419,0.53925 -0.84932,0.72799 0,-1.01559 -0.0584,-6.25084 -0.0584,-6.25084 l 2.73671,-7.51359 c 0.21121,-0.58869 0.31007,-1.17288 0.31007,-1.7391 0,-1.94131 -1.18186,-3.6804 -3.09172,-4.64656 0,0 -0.13481,-0.0719 -0.23817,-0.11684 -1.20433,-1.03357 -2.63784,-1.5908 -4.27358,-1.21332 l -4.04889,0.93471 c -2.21543,0.71001 -3.87364,1.71213 -5.05101,3.06475 -0.96616,1.10547 -1.4425,2.55696 -1.32566,4.02643 0.0629,0.76843 -0.027,1.50092 -0.29659,2.45809 0,0.0135 -1.27174,3.51413 -1.27174,3.51413 l -0.23817,0.61116 c 0.005,-0.0135 0.005,-0.018 0.005,-0.018 0,0.027 -0.68306,1.84694 -0.99762,2.68279 -0.364,-0.0629 -0.67407,-0.26064 -1.04705,-0.2876 -2.29632,-0.17077 -4.70499,0.355 -6.86649,1.42902 -3.75231,1.5144 -6.21939,3.6804 -7.98544,5.9902 -0.1438,-0.2157 -0.24716,-0.45837 -0.41792,-0.6471 -2.59741,-2.8895 -6.96985,-4.49378 -11.7692,-1.42902 -0.51229,-0.68306 -1.32117,-0.88977 -2.90748,-0.82686 l -4.89821,0.19773 -0.39096,0.12582 c -0.009,0 -4.72745,2.05366 -4.72745,2.05366 -1.0111,0.44039 -1.71213,1.12344 -2.18398,1.9458 -1.16389,-0.23817 -2.31429,-0.45387 -3.4647,-0.0719 -0.88527,-0.50779 -1.75707,-1.07401 -2.82209,-1.25825 -4.39941,-0.76395 -7.13612,1.00211 -9.33358,2.41765 l -0.58868,0.37298 c -0.364,0.22918 -0.6516,0.55723 -0.99762,0.82236 0.70103,-4.52972 1.447,-8.70444 2.27835,-12.07028 0.036,-0.15728 1.44699,-5.93179 1.44699,-5.93179 l 2.41316,-10.78955 c 0.0944,-0.41792 0.13931,-0.83135 0.13931,-1.23579 0,-1.70764 -0.81338,-3.28046 -2.28284,-4.30953 -1.81998,-1.26275 -4.16124,-1.17288 -6.01717,0.0404 l -7.31587,4.75891 -5.41949,3.66243 c -0.0989,0.0674 -0.27861,0.19772 -0.37298,0.26962 l -1.7346,1.34814 c -5.06449,3.90958 -6.92491,6.12951 -6.92491,10.24581 0,1.66719 0.30558,3.65344 0.83135,6.18793 0,0 0.25165,1.30319 0.45836,2.39069 -0.0944,0.036 -0.19323,0.0225 -0.2831,0.0629 -0.31906,-1.13693 -0.68306,-2.43563 -0.68306,-2.43563 -0.62913,-2.21992 -2.56594,-3.72534 -4.87125,-3.87813 -2.30531,-0.14829 -4.42637,1.24478 -5.33861,3.36584 l -5.46443,12.67245 C 52.1483,88.322072 52,89.054552 52,89.787042 c 0,0.80888 0.17976,1.60877 0.53476,2.35024 6.22388,13.027458 15.36872,27.982748 19.00868,33.797688 0.51229,0.81787 1.2268,1.48295 2.08511,1.93682 l 1.69415,0.88977 c 0.34602,0.18424 0.74147,0.17076 1.11446,0.27861 -0.1483,0.50331 -0.30558,1.0111 -0.30558,1.53688 0,1.13692 0.35501,2.28283 1.083,3.26248 1.64472,2.20195 4.67353,2.84006 7.05972,1.48294 4.68701,-2.66031 9.51333,-4.75891 15.66531,-6.80357 5.02853,-1.67169 12.07927,-3.70288 16.48766,-4.46682 13.81387,-2.39069 24.97192,-3.43774 35.10988,-3.28495 12.47472,0.17975 21.33195,0.85382 32.35968,3.87813 5.08695,1.39307 7.76974,2.69627 13.65658,5.54083 l 3.45572,1.69415 c 3.86465,1.92783 6.92491,3.44673 11.81863,4.74992 3.50514,0.9392 8.48874,0.7954 11.32881,-0.33254 1.9458,-0.76394 4.4758,-1.76156 6.45756,-4.99708 1.04255,-1.70314 1.59529,-3.75679 1.59529,-5.85539 0,-0.26513 -0.005,-0.52577 -0.027,-0.7909 z M 143.7894,73.690392 c 0.0944,-0.0539 0.19772,-0.0674 0.29209,-0.11234 0.10785,-0.0449 0.17526,-0.10785 0.28311,-0.1483 -0.19323,0.0719 -0.39096,0.16178 -0.5752,0.26064 z"
     id="path256" /><path
     d="m 88.50247,69.834732 c -3.5411,14.38458 -5.1993,35.527798 -6.0666,50.083138 -1.17288,0.78641 -2.92095,3.29843 -4.64207,3.95452 l -1.69415,-0.88977 C 69.67804,112.72333 62.28128,99.965502 57.38307,89.728682 l 5.46892,-12.68144 c 1.18636,3.75231 3.24002,12.17364 4.57916,15.84955 2.46708,6.86649 4.95664,15.463088 8.92015,22.401478 l 0.43589,-0.23817 c 0.21121,-8.79882 2.44462,-24.455128 3.50065,-40.133918 -1.05154,0.84933 -4.04889,7.04624 -5.04651,6.34971 -2.52999,-15.15302 -4.46232,-12.33991 4.52074,-19.38166 5.6352,-3.69838 8.25058,-5.78349 12.50169,-8.28203 -0.70103,4.75442 -2.76367,11.58945 -3.76129,16.22253 z"
     id="path260"
     style="fill:#ffffff" /><path
     d="m 210.11304,73.429752 c -1.32117,5.01955 -1.90986,7.40125 -4.22864,11.53553 -2.3143,4.13427 -5.24424,9.55826 -8.65951,13.0679 -0.0584,1.14142 0.0539,1.95928 0.38197,3.136648 0.31007,1.11446 1.00661,2.15252 1.76156,2.8176 1.49643,1.32117 3.22204,0.77293 4.22415,0.35052 2.00872,-0.83135 2.82209,-1.85144 4.31852,-3.25799 2.90747,-2.727718 4.332,-4.134278 6.0666,-6.205908 2.11656,-2.52999 4.3275,-4.49377 8.48425,-3.00184 -3.36584,4.00845 -1.74808,9.239208 -1.00661,13.786908 0.73249,4.5477 0.59318,8.41684 -6.29578,9.70655 -0.35501,1.14142 0.21121,1.76156 1.02009,2.14353 0.80438,0.38198 1.87839,0.4359 2.48056,0.56622 1.5908,0.35051 2.55696,0.72799 3.43774,1.23129 0.87179,0.49881 1.5908,1.06503 2.47158,1.76157 0.74596,0.7909 1.97726,1.97726 2.11657,3.87812 0.0944,1.37959 -0.27862,2.59291 -0.79091,3.43325 -1.04256,1.71213 -2.2379,2.15252 -3.80623,2.77266 -1.56833,0.62014 -5.27569,0.84034 -7.91803,0.13032 -5.42399,-1.4425 -8.28203,-3.16811 -13.74197,-5.81045 -6.45756,-3.12318 -9.41446,-4.59264 -15.14852,-6.16547 -12.02534,-3.29393 -21.68247,-3.8961 -33.72579,-4.07136 -12.03883,-0.17525 -24.35627,1.33466 -36.11648,3.36584 -4.57916,0.7954 -11.71078,2.8176 -17.28306,4.66904 -5.5633,1.85143 -10.98728,4.02642 -16.63147,7.22599 6.39914,-6.16097 14.37559,-10.31771 22.79693,-13.35551 8.42583,-3.04228 17.29654,-4.96562 25.47522,-6.66427 12.93758,-3.02431 25.628,-2.66031 38.17912,-0.59317 12.54662,2.06713 19.41761,5.01954 30.688,9.5987 3.26248,1.32567 8.98755,4.93417 11.89502,6.48902 3.55009,1.90086 7.41473,2.37271 9.56276,0.33703 1.03357,-0.97964 0.96167,-2.03568 0.61115,-3.08273 -0.34602,-1.04256 -1.06502,-1.96828 -1.99973,-2.53899 -1.72112,-1.14141 -4.58365,-1.55934 -7.1496,-2.36372 -2.56594,-0.80439 -3.249,-1.99973 -3.78376,-4.70499 0.84483,-1.35712 0.39995,-0.86729 1.60878,-0.34602 1.20882,0.52128 2.49854,1.083 3.64894,-0.10335 1.0111,-1.65821 1.21782,-3.49616 1.11446,-5.35209 -0.0989,-1.85144 -0.10785,-3.83769 -0.80439,-5.42848 -0.34602,-0.78192 -2.27385,1.1549 -3.16362,2.03568 -0.96166,0.94819 -1.12793,1.10996 -2.3772,2.20195 -2.11657,1.85143 -2.0267,2.11657 -4.44435,2.90298 -2.01321,0.66058 -3.12767,0.70552 -5.32962,-0.61565 -1.49193,-0.89426 -2.22891,-1.71662 -3.08722,-3.26248 -0.87629,-1.5863 -1.09199,-3.05577 -1.77055,-4.58365 -1.72561,0.96616 -1.16838,0.94818 -2.98836,1.94131 -1.93682,1.05604 -3.96351,1.32117 -5.9902,1.14591 -1.24029,-0.10336 -3.09172,-0.94819 -3.90959,-1.67168 -0.82236,-0.72799 -1.10547,-1.37959 -2.01321,-2.00872 -1.54137,0.90325 -2.93444,1.39307 -4.55669,1.91884 -1.61776,0.53476 -3.1771,0.90774 -4.93417,0.35501 -1.67168,-0.53027 -2.82658,-1.77954 -3.56805,-2.772658 0,0 -1.92783,-3.02431 -0.92123,-4.09383 -1.85143,1.97726 -4.37244,3.73433 -6.29128,5.015048 -1.64922,1.10547 -3.42426,2.47607 -6.08008,2.24689 -0.84933,-0.2876 -1.22231,-1.00211 -1.43352,-1.77953 -0.20671,-0.78192 -0.74597,-1.703138 -0.41792,-2.183978 -0.95717,1.402058 -2.69627,2.759178 -5.1948,3.464698 -2.46259,0.71002 -5.00158,1.1594 -6.74516,-0.31906 l -1.0875,-1.35712 -0.54374,-1.523388 c -1.8065,0.53027 -3.1771,1.190848 -5.67115,2.426638 -1.67618,0.83135 -4.22864,3.17261 -4.75891,1.94131 -0.24266,-0.56172 -0.13931,-1.34363 -0.0944,-2.46708 0.0539,-1.12344 0.33254,-3.091718 0.5078,-4.349968 0.26963,-1.84695 0.44039,-3.37483 0.44039,-5.43747 0,-1.83796 0.4314,-3.47819 -1.54137,-3.40629 l -1.5863,0.39995 -1.12344,0.59318 c -1.39307,0.7954 -2.74121,1.35263 -3.26248,6.32724 -0.27412,2.61088 -0.21571,2.34125 -0.81787,4.839788 -0.52128,2.17948 -0.82686,2.17499 -1.90536,4.51625 -0.32355,0.70552 -1.63574,2.10309 -3.04678,2.71873 -1.63124,0.71002 -2.20195,0.84483 -3.96801,1.02009 -0.63811,0.0629 -3.51862,0.52577 -5.45994,-0.62014 -1.14141,-0.67407 -2.43562,0.62463 -3.16811,1.23129 -0.73698,0.61116 -1.59529,1.41105 -2.63335,1.89188 -1.56833,0.72799 -3.24001,1.21782 -4.96113,1.02009 -1.72112,-0.20671 -3.66243,-0.7954 -4.90271,-2.47607 -1.74808,-2.36822 -2.14802,-6.60136 -1.40655,-9.42345 0.70552,-2.700758 1.12794,-4.165728 2.53898,-6.776608 1.14591,-2.11657 3.51863,-5.03753 5.72507,-6.4306 2.21094,-1.40206 3.52312,-2.47157 6.08008,-2.02669 1.40655,0.24266 2.10309,1.11895 2.37721,1.85144 0.27412,0.72799 0.44039,1.31667 1.32117,1.2268 0.98863,-0.0944 0.59767,-1.63124 1.76156,-2.0222 0.74597,-0.25615 2.34126,0.52577 2.99735,1.49642 -1.02009,2.43114 -1.90087,4.50277 -2.68279,7.02378 -1.59079,5.17683 -0.27861,7.742768 0.12134,8.560638 0.60666,1.2313 2.46259,0.7954 3.34786,0.2876 1.98625,-1.11895 2.18398,-2.55246 2.58392,-3.950028 0.53925,-1.90536 0.60217,-3.1007 0.75945,-6.36318 0.15279,-3.02432 0.44938,-6.53395 -0.52128,-9.34706 1.07851,-0.60666 2.27835,-1.20433 3.54559,-1.56833 1.27174,-0.3595 1.1549,-0.60216 2.5255,-0.27412 0.31906,0.7235 0.54375,1.39307 0.47634,2.28734 -0.0584,0.74596 -0.0944,2.10308 0.84483,2.05814 1.69416,-0.0764 3.29394,-2.42663 5.02404,-3.82869 1.72561,-1.40206 3.5411,-2.15252 5.54532,0.0854 0.59768,1.34364 0.71002,2.69177 0.62464,4.03541 -0.0944,1.35263 -0.38647,2.70525 -0.62464,4.06237 -0.2876,1.36611 -0.33703,2.94343 -0.35051,4.05339 -0.018,1.10996 0.17526,1.67168 1.49643,1.67168 4.29155,0 3.41077,-5.05999 5.25322,-9.383 1.59529,-3.7523 3.68939,-6.7137 8.31349,-8.49773 1.25376,-0.66059 2.7457,-1.03806 4.20617,-0.93021 1.46048,0.10785 2.87602,0.70552 3.98598,1.99074 0.93021,-0.91673 1.5189,-2.20644 2.01771,-3.60401 0.5033,-1.39307 0.92572,-2.8895 1.53237,-4.21516 0.66958,-1.71213 1.27624,-3.19058 1.68068,-4.6241 0.40893,-1.438 0.61564,-2.84006 0.48533,-4.39041 0.56172,-0.64261 1.53237,-1.10997 2.61537,-1.45149 1.07851,-0.35052 2.27385,-0.5797 3.28046,-0.75047 l 0.32805,0.40894 0.81337,0.40893 c -1.49194,5.14987 -3.84667,10.21885 -5.75203,15.35074 -1.90537,5.1274 -3.83769,10.31771 -5.45545,15.71923 -0.0449,0.67407 -0.42691,1.76156 -0.46286,2.6019 -0.027,0.84483 0.29659,1.44699 1.68966,1.18635 4.42188,-0.99312 7.05074,-5.93178 10.15594,-9.86383 2.7412,-3.47819 3.85566,-4.29156 6.26881,-5.90033 1.05604,-0.70553 3.87364,-1.76156 5.10943,-1.84695 0.88078,-0.0629 1.76605,-0.48532 3.43774,0.70103 1.43351,1.02458 0.94369,2.43563 1.67168,2.73222 1.54586,0.62463 0.87629,-1.23579 2.11657,-1.23579 l 1.5863,0.75046 1.40655,0.66059 -4.22864,7.5765 -1.40655,3.69838 c -0.23368,1.04705 -1.02009,3.86465 0.39545,5.10493 1.17288,1.02458 3.51413,0.78641 4.25561,0.54824 1.67168,-0.52577 4.15674,-2.39518 4.64207,-5.30715 0.61565,-3.62198 0.9392,-7.39675 2.05365,-10.98728 1.34814,-4.36346 2.50753,-7.47315 4.7679,-11.20298 2.26486,-3.72984 6.68674,-9.82789 8.98755,-8.71344 1.35263,0.64711 2.50304,1.74808 2.55247,3.78826 0.0629,2.12555 -0.3595,4.86226 -0.8673,6.80357 z m -4.13877,-3.96351 c -3.613,4.0489 -8.41235,16.42026 -9.24819,22.54977 5.01505,-4.58365 10.91988,-16.56406 9.24819,-22.54977 z m -27.83445,15.07662 c -2.64683,0.24267 -10.18739,7.55853 -9.25268,10.9019 0.91223,2.9659 5.1229,1.5908 6.25533,0.62014 1.5908,-1.45149 3.56806,-4.88922 4.75891,-8.5876 0.34602,-2.17499 -0.44488,-3.29394 -1.76156,-2.93444 z m -28.07262,-2.25587 c -3.65344,0.40893 -6.36319,4.30054 -8.00341,7.50011 -1.03807,2.79962 -1.99075,5.97672 1.35712,6.64629 1.93232,0.31007 4.5477,-1.97276 5.93178,-4.36795 1.16838,-2.72322 4.78587,-8.83027 0.71451,-9.77845 z m -50.02921,8.98306 c -1.77953,-0.0494 -3.19507,1.71212 -4.25561,2.60189 -2.41765,2.31879 -4.73644,6.668768 -3.68939,10.030108 1.05155,2.64234 2.78165,1.98176 4.31403,1.69865 3.1052,-1.39307 4.89372,-7.122638 5.37006,-10.155938 -0.036,-1.42452 1.0111,-3.8242 -1.73909,-4.17471 z"
     id="path262"
     style="fill:#ffffff" /></svg>