<?xml version="1.0" encoding="UTF-8" standalone="no"?>
<!-- Created with Inkscape (http://www.inkscape.org/) -->
<svg xmlns:dc="http://purl.org/dc/elements/1.1/" xmlns:cc="http://creativecommons.org/ns#" xmlns:rdf="http://www.w3.org/1999/02/22-rdf-syntax-ns#" xmlns:svg="http://www.w3.org/2000/svg" xmlns="http://www.w3.org/2000/svg" version="1.1" width="292.5" height="105.01375" id="svg2" xml:space="preserve"><metadata id="metadata8"><rdf:RDF><cc:Work rdf:about=""><dc:format>image/svg+xml</dc:format><dc:type rdf:resource="http://purl.org/dc/dcmitype/StillImage"/><dc:title/></cc:Work></rdf:RDF></metadata><defs id="defs6"><clipPath id="clipPath18"><path d="m 0,0 1224,0 0,1584 L 0,1584 0,0 z" id="path20"/></clipPath></defs><g transform="matrix(1.25,0,0,-1.25,-813.43725,1663.4438)" id="g10"><g id="g12"/><path d="m 723.9199,1287.57 c 4.1779,1.737 5.81,3.646 7.8109,8.974 l 8.5371,22.887 c 0.2729,0.675 0.365,1.234 0.365,1.626 0,1.18 -1.3661,1.74 -4.4521,1.74 l -17.6179,0 1.904,-4.711 -7.047,-19.001 c -1.1791,-3.087 -2.907,-4.096 -7.0851,-4.096 -2.9969,0 -4.5399,0.728 -4.5399,2.245 0,0.504 0.0919,0.84 0.633,2.41 l 7.5029,20.126 c 0.1821,0.393 0.2731,1.008 0.2731,1.287 0,1.18 -1.3611,1.74 -4.4501,1.74 l -17.6229,0 1.9069,-4.711 -7.721,-20.811 c -0.6309,-1.683 -1.1779,-3.758 -1.1779,-4.77 0,-5.216 7.083,-7.738 22.1619,-7.738 9.901,0 16.0791,0.897 20.6191,2.803" id="path3658" style="fill:#ffffff;fill-opacity:1;fill-rule:nonzero;stroke:none"/><path d="m 736.3008,1288.412 c -0.181,-0.449 -0.273,-0.953 -0.273,-1.29 0,-1.176 1.273,-1.739 4.272,-1.739 l 27.522,0 c 4.541,0 5.536,0.447 6.447,2.971 l 6.542,17.629 -13.798,-10.612 -8.753,0 8.925,24.399 c 0.182,0.448 0.271,0.953 0.271,1.232 0,1.235 -1.363,1.795 -4.453,1.795 l -17.617,0 1.902,-4.711 -10.987,-29.674 z" id="path3660" style="fill:#ffffff;fill-opacity:1;fill-rule:nonzero;stroke:none"/><path d="m 851.8984,1320.331 c -0.091,1.96 -1,2.466 -4.813,2.466 l -18.804,0 1,-4.766 -9.599,-12.977 -1.482,14.769 c -0.183,2.58 -0.816,2.974 -5.178,2.974 l -17.8,0 1.2709,-4.766 -17.9799,-29.897 c -0.273,-0.508 -0.553,-1.066 -0.553,-1.463 0,-0.896 1.002,-1.288 3.544,-1.288 l 15.755,0 -1.359,4.544 8.26,15.657 1.686,-20.201 15.077,0 14.266,21.987 -2.482,-18.958 c -0.091,-2.411 0.724,-3.029 4.084,-3.029 l 16.804,0 -3.271,5.16 1.574,29.788 z" id="path3662" style="fill:#ffffff;fill-opacity:1;fill-rule:nonzero;stroke:none"/><path d="m 715.9619,1272.588 0.0449,-0.232 c 0.172,-0.037 0.2561,-0.106 0.286,-0.292 0.008,-0.032 -0.002,-0.137 -0.01,-0.343 l -0.3269,-5.326 -1.977,4.917 c -0.0761,0.192 -0.122,0.304 -0.129,0.338 -0.029,0.167 0.0369,0.264 0.189,0.36 l -0.044,0.231 -3.1911,-0.561 0.044,-0.235 c 0.1741,-0.036 0.2571,-0.109 0.2911,-0.289 0.004,-0.05 0.012,-0.153 0.002,-0.342 l -0.284,-5.319 -2.114,4.878 c -0.07,0.141 -0.117,0.256 -0.1291,0.336 -0.0359,0.201 0.0321,0.298 0.2141,0.38 l -0.0451,0.235 -2.617,-0.464 0.0431,-0.229 c 0.253,-0.079 0.33,-0.204 0.438,-0.423 l 3.1459,-6.755 c 0.065,-0.123 0.099,-0.222 0.1091,-0.304 0.0429,-0.232 0,-0.311 -0.1821,-0.393 l 0.047,-0.266 2.922,0.516 -0.0419,0.232 c -0.1771,0.037 -0.258,0.107 -0.293,0.292 -0.012,0.083 -0.007,0.202 -0.007,0.36 l 0.253,6.15 2.3129,-5.701 c 0.0561,-0.142 0.1031,-0.252 0.118,-0.338 0.031,-0.184 -0.024,-0.278 -0.172,-0.375 l 0.0401,-0.232 2.807,0.496 -0.046,0.267 c -0.2021,0.031 -0.2961,0.102 -0.3281,0.25 -0.0169,0.118 -0.0109,0.238 0.008,0.377 l 0.701,6.714 c 0.055,0.487 0.1361,0.898 0.3761,1.282 l -0.039,0.233 -2.416,-0.425 z" id="path3664" style="fill:#ffffff;fill-opacity:1;fill-rule:nonzero;stroke:none"/><path d="m 728.541,1268.826 0.688,4.017 1.731,-3.719 -2.419,-0.298 z m 5.627,-1.964 -3.164,6.778 c -0.112,0.259 -0.182,0.453 -0.184,0.506 -0.024,0.183 0.02,0.256 0.169,0.293 l -0.029,0.235 -3.587,-0.442 0.03,-0.233 c 0.153,0 0.212,-0.061 0.239,-0.245 0.005,-0.068 -0.011,-0.258 -0.058,-0.533 l -1.119,-6.573 c -0.092,-0.541 -0.131,-0.985 -0.501,-1.286 l 0.027,-0.236 2.462,0.302 -0.028,0.237 c -0.2,0.041 -0.312,0.149 -0.339,0.367 -0.01,0.084 -0.008,0.169 0.02,0.29 l 0.173,0.992 3.353,0.411 0.409,-0.92 c 0.075,-0.179 0.119,-0.292 0.129,-0.375 0.018,-0.151 -0.052,-0.261 -0.225,-0.333 l 0.029,-0.236 2.64,0.323 -0.028,0.236 c -0.265,0.086 -0.32,0.234 -0.418,0.442" id="path3666" style="fill:#ffffff;fill-opacity:1;fill-rule:nonzero;stroke:none"/><path d="m 745.2705,1272.104 -1.784,-0.126 -0.142,2.007 1.728,0.117 c 1.135,0.08 1.669,-0.07 1.729,-0.875 0.053,-0.743 -0.454,-1.05 -1.531,-1.123 m 3.211,-3.624 -1.224,2 c 1.198,0.523 1.77,1.494 1.671,2.877 -0.115,1.703 -1.187,2.727 -3.055,2.599 l -5.043,-0.354 0.017,-0.237 c 0.295,-0.06 0.358,-0.142 0.382,-0.463 l 0.516,-7.401 c 0.022,-0.319 -0.029,-0.407 -0.314,-0.511 l 0.02,-0.236 2.75,0.193 -0.017,0.235 c -0.298,0.064 -0.375,0.142 -0.393,0.464 l -0.18,2.545 1.489,0.104 1.353,-2.192 c 0.105,-0.178 0.229,-0.306 0.238,-0.457 0.01,-0.136 -0.066,-0.242 -0.216,-0.304 l 0.017,-0.234 2.917,0.2 -0.018,0.239 c -0.382,0.073 -0.6,0.414 -0.91,0.933" id="path3668" style="fill:#ffffff;fill-opacity:1;fill-rule:nonzero;stroke:none"/><path d="m 765.0332,1268.446 -0.129,7.415 c -0.008,0.322 0.047,0.409 0.337,0.496 l -0.006,0.236 -2.756,-0.048 0.004,-0.234 c 0.29,-0.082 0.362,-0.163 0.369,-0.487 l 0.042,-2.465 -3.602,-0.061 -0.04,2.466 c -0.007,0.319 0.057,0.406 0.348,0.496 l -0.005,0.235 -2.754,-0.047 0.004,-0.237 c 0.293,-0.078 0.349,-0.162 0.356,-0.484 l 0.13,-7.416 c 0.003,-0.323 -0.048,-0.405 -0.345,-0.496 l 0.009,-0.236 2.76,0.05 -0.008,0.236 c -0.291,0.077 -0.364,0.16 -0.365,0.48 l -0.053,2.911 3.6,0.059 0.053,-2.907 c 0.003,-0.32 -0.063,-0.406 -0.355,-0.494 l 0.006,-0.237 2.756,0.048 -0.002,0.236 c -0.291,0.082 -0.347,0.163 -0.354,0.485" id="path3670" style="fill:#ffffff;fill-opacity:1;fill-rule:nonzero;stroke:none"/><path d="m 776.6396,1274.866 1.121,-3.945 -2.434,0.085 1.313,3.86 z m -1.917,-6.967 c -0.197,0.075 -0.288,0.195 -0.28,0.415 0.002,0.084 0.019,0.167 0.064,0.286 l 0.326,0.953 3.38,-0.12 0.255,-0.971 c 0.049,-0.187 0.074,-0.308 0.067,-0.392 -10e-4,-0.153 -0.088,-0.25 -0.271,-0.291 l -0.009,-0.238 2.659,-0.095 0.01,0.238 c -0.246,0.126 -0.283,0.277 -0.345,0.5 l -2.064,7.19 c -0.073,0.273 -0.108,0.476 -0.107,0.528 0.008,0.187 0.065,0.25 0.217,0.264 l 0.008,0.237 -3.614,0.127 -0.01,-0.238 c 0.154,-0.021 0.208,-0.091 0.201,-0.277 -0.003,-0.068 -0.049,-0.255 -0.141,-0.522 l -2.134,-6.315 c -0.171,-0.52 -0.282,-0.953 -0.691,-1.193 l -0.008,-0.234 2.477,-0.09 0.01,0.238 z" id="path3672" style="fill:#ffffff;fill-opacity:1;fill-rule:nonzero;stroke:none"/><path d="m 787.9688,1275.316 1.4199,-7.317 c 0.031,-0.135 0.039,-0.238 0.031,-0.322 -0.013,-0.236 -0.073,-0.3 -0.2749,-0.34 l -0.0161,-0.268 2.958,-0.208 0.0191,0.239 c -0.1631,0.078 -0.226,0.167 -0.2151,0.352 0.007,0.084 0.0431,0.2 0.0821,0.35 l 1.7309,5.908 0.867,-6.091 c 0.016,-0.154 0.0361,-0.27 0.0271,-0.355 -0.0111,-0.186 -0.086,-0.264 -0.2561,-0.323 l -0.018,-0.234 2.8501,-0.2 0.0189,0.27 c -0.19,0.081 -0.2639,0.171 -0.254,0.323 0.003,0.119 0.044,0.233 0.093,0.364 l 2.3031,6.345 c 0.173,0.461 0.35,0.839 0.678,1.154 l 0.0189,0.236 -2.4469,0.172 -0.0191,-0.236 c 0.164,-0.078 0.2281,-0.169 0.213,-0.354 -0.002,-0.033 -0.038,-0.132 -0.091,-0.334 l -1.6079,-5.086 -0.7281,5.251 c -0.0269,0.205 -0.047,0.324 -0.044,0.359 0.01,0.168 0.099,0.246 0.2701,0.301 l 0.0189,0.237 -3.2359,0.224 -0.0161,-0.234 c 0.1621,-0.08 0.226,-0.168 0.2091,-0.354 -0.002,-0.05 -0.0251,-0.148 -0.08,-0.332 l -1.5621,-5.087 -0.872,5.24 c -0.029,0.157 -0.049,0.274 -0.0399,0.36 0.012,0.2 0.1019,0.28 0.297,0.316 l 0.0169,0.239 -2.6549,0.183 -0.016,-0.236 c 0.226,-0.133 0.273,-0.272 0.326,-0.512" id="path3674" style="fill:#ffffff;fill-opacity:1;fill-rule:nonzero;stroke:none"/><path d="m 809.1182,1265.331 c -0.276,0.125 -0.3351,0.216 -0.29,0.535 l 0.245,1.724 1.63,1.342 1.141,-3.214 c 0.071,-0.199 0.162,-0.348 0.143,-0.499 -0.018,-0.134 -0.117,-0.221 -0.2741,-0.249 l -0.034,-0.236 3.0611,-0.429 0.031,0.234 c -0.354,0.168 -0.494,0.546 -0.701,1.104 l -1.663,4.67 2.666,2.169 c 0.208,0.174 0.427,0.347 0.826,0.377 l 0.029,0.236 -3.495,0.488 -0.0331,-0.23 c 0.164,-0.025 0.2281,-0.086 0.206,-0.233 -0.013,-0.085 -0.1599,-0.219 -0.3949,-0.408 l -2.728,-2.226 0.38,2.727 c 0.046,0.318 0.1229,0.39 0.4279,0.433 l 0.0291,0.237 -2.7271,0.383 -0.034,-0.233 c 0.2751,-0.127 0.3191,-0.218 0.2731,-0.536 l -1.032,-7.345 c -0.044,-0.318 -0.11,-0.393 -0.414,-0.437 l -0.0301,-0.233 2.732,-0.382 0.0301,0.231 z" id="path3676" style="fill:#ffffff;fill-opacity:1;fill-rule:nonzero;stroke:none"/><path d="m 822.7461,1266.203 -0.153,0.135 -1.509,-2.461 0.155,-0.135 c 0.14,0.148 0.23,0.235 0.322,0.216 0.152,-0.031 1.155,-1.034 3.547,-1.502 2.303,-0.443 3.94,0.596 4.272,2.287 0.341,1.76 -0.581,2.676 -2.757,3.256 -1.5,0.394 -2.298,0.517 -2.164,1.193 0.1,0.515 0.822,0.824 1.951,0.603 1.332,-0.26 2.469,-1.012 2.381,-1.475 -0.012,-0.054 -0.055,-0.114 -0.082,-0.212 l 0.155,-0.134 1.321,2.153 -0.156,0.136 c -0.136,-0.183 -0.218,-0.183 -0.366,-0.151 -0.42,0.079 -1.413,1.012 -3.062,1.332 -2.175,0.423 -3.718,-0.479 -4.026,-2.039 -0.301,-1.577 0.646,-2.585 2.83,-3.116 1.318,-0.323 2.192,-0.475 2.008,-1.44 -0.119,-0.612 -0.832,-0.922 -1.976,-0.698 -1.698,0.329 -2.875,1.317 -2.757,1.911 0.009,0.05 0.031,0.099 0.066,0.141" id="path3678" style="fill:#ffffff;fill-opacity:1;fill-rule:nonzero;stroke:none"/><path d="m 875.7148,1275.036 c 0,0 -1.677,-4.056 -6.625,-6.918 -1.876,-1.082 -8.623,-4.112 -8.623,-4.112 l 8.644,0.04 c 0,0 -3.877,-5.2 -11.873,-7.642 -3.586,-1.095 -7.552,-1.688 -11.612,-1.898 l -1.624,-3.418 c -19.778,5.899 -43.608,9.047 -74.708,9.371 -31.161,-0.324 -54.993,-3.472 -74.77,-9.371 l -1.587,3.331 c -5.112,0.027 -10.191,0.617 -14.675,1.985 -7.995,2.442 -11.873,7.642 -11.873,7.642 l 8.644,-0.04 c 0,0 -6.747,3.03 -8.622,4.112 -4.949,2.862 -6.621,6.918 -6.621,6.918 l 12.798,-0.839 c 0,0 -8.19,2.794 -11.592,5.897 -2.518,2.302 -4.356,6.938 -4.356,6.938 0,0 15.934,-3.767 29.17,-6.868 -1.9711,2.091 -5.05,5.363 -5.182,5.519 -2.031,1.672 -3.204,3.91 -3.204,6.822 0,1.73 0.761,4.335 1.418,6.072 l 7.213,19.45 -3.435,8.485 23.134,0 c 1.643,0 3.339,-0.132 4.75,-0.689 0.974,-0.385 3.998,-3.272 3.998,-3.272 l -1.419,3.961 49.92,0 c 1.641,0 3.359,-0.129 4.782,-0.706 0.913,-0.373 1.818,-0.99 2.463,-1.883 l 5.909,-6.304 c 0.792,-0.848 1.383,-2.019 1.383,-3.514 0,-0.824 -0.211,-1.804 -0.546,-2.629 l -1.915,-5.237 12.517,9.443 2.089,-1.767 2.813,4.679 -2.113,7.918 22.644,0 c 5.516,-0.099 7.166,-1.681 7.439,-1.991 l 4.165,-3.961 -0.884,5.952 23.337,0 c 2.864,0 5.371,-0.646 7.617,-2.94 l 5.479,-5.605 c 0,0 0.456,-0.908 0.887,-1.933 0.417,-0.994 0.885,-2.271 0.928,-3.13 l -1.532,-28.27 1.159,-1.668 c 9.31,2.192 17.237,4.066 17.237,4.066 0,0 -1.838,-4.636 -4.358,-6.938 -3.4,-3.103 -11.591,-5.897 -11.591,-5.897 l 12.803,0.839 z m -13.505,15.027 2.653,0 0,-0.845 -0.829,0 0,-2.998 -0.995,0 0,2.998 -0.829,0 0,0.845 z m 3.282,0 0.989,0 0.778,-2.055 0.829,2.055 0.993,0 0.582,-3.843 -1.003,0 -0.278,2.212 -0.011,0 -0.921,-2.212 -0.399,0 -0.88,2.212 -0.009,0 -0.326,-2.212 -0.993,0 0.649,3.843 z m 15.319,-7.339 c 0.86,1.605 3.939,9.413 3.939,9.413 l -13.497,-3.186 0,1.74 c 0,0.733 -0.595,1.327 -1.33,1.327 l -4.809,0 1.122,21.002 c -0.074,1.723 -0.873,3.752 -1.249,4.655 -0.49,1.157 -1.313,2.792 -1.313,2.792 l -5.933,6.072 c -3.28,3.351 -7.03,4.216 -10.655,4.216 l -62.225,0 2.45,-9.149 -5.851,-5.032 c -0.427,1.587 -1.239,2.914 -2.203,3.944 l -5.755,6.141 c -1.176,1.516 -2.698,2.501 -4.126,3.081 -2.216,0.898 -4.615,1.015 -6.373,1.015 l -86.678,0 5.1809,-12.795 -6.6439,-17.897 c -0.676,-1.802 -1.685,-5.006 -1.685,-7.558 0,-2.382 0.546,-4.281 1.5269,-6.019 -12.3039,2.897 -23.9539,5.651 -23.9539,5.651 0,0 3.08,-7.808 3.94,-9.413 0.598,-1.121 1.462,-2.583 2.552,-3.901 l -2.941,0.195 c 0,0 1.214,-3.024 1.609,-3.988 0.42,-1.023 0.89,-2.119 1.055,-2.414 0.293,-0.535 0.748,-1.287 1.397,-2.144 0.647,-0.855 1.495,-1.822 2.563,-2.792 l -1.706,0.011 c 0,0 2.424,-3.29 3.2139,-4.346 0.76,-1.008 1.6791,-2.221 2.0421,-2.611 0.586,-0.63 1.4419,-1.473 2.57,-2.394 2.257,-1.837 5.634,-4.007 10.161,-5.389 4.218,-1.285 8.824,-1.925 13.431,-2.094 l 1.955,-4.113 2.962,0.885 c 19.335,5.765 42.789,8.891 73.703,9.217 30.8839,-0.321 54.364,-3.447 73.71,-9.217 l 2.969,-0.885 2.042,4.302 c 3.546,0.302 7.049,0.907 10.313,1.905 4.53,1.382 7.907,3.552 10.164,5.389 1.128,0.921 1.985,1.764 2.57,2.394 0.365,0.39 1.283,1.603 2.043,2.611 0.793,1.056 3.197,4.319 3.197,4.319 l -1.694,0.01 c 1.072,0.97 1.915,1.935 2.568,2.799 0.648,0.857 1.103,1.609 1.398,2.144 0.163,0.295 0.633,1.391 1.053,2.414 0.396,0.964 1.609,3.988 1.609,3.988 l -2.944,-0.195 c 1.093,1.318 1.956,2.78 2.556,3.901" id="path3680" style="fill:#af8006;fill-opacity:1;fill-rule:nonzero;stroke:none"/><path d="m 728.541,1268.826 2.419,0.298 -1.731,3.719 -0.688,-4.017 z" id="path3682" style="fill:#711f23;fill-opacity:1;fill-rule:nonzero;stroke:none"/><path d="m 776.6396,1274.866 -1.313,-3.86 2.434,-0.085 -1.121,3.945 z" id="path3684" style="fill:#711f23;fill-opacity:1;fill-rule:nonzero;stroke:none"/><path d="m 745.0723,1274.102 -1.7281,-0.116 0.1421,-2.009 1.784,0.127 c 1.077,0.074 1.5839,0.381 1.531,1.123 -0.06,0.806 -0.594,0.956 -1.729,0.875" id="path3686" style="fill:#711f23;fill-opacity:1;fill-rule:nonzero;stroke:none"/><path d="m 772.2432,1267.985 c 0.409,0.24 0.521,0.673 0.6909,1.192 l 2.1341,6.316 c 0.093,0.267 0.139,0.454 0.1419,0.522 0.007,0.186 -0.047,0.256 -0.2009,0.277 l 0.009,0.238 3.615,-0.128 -0.008,-0.236 c -0.153,-0.014 -0.2091,-0.077 -0.218,-0.264 -10e-4,-0.052 0.034,-0.255 0.107,-0.528 l 2.065,-7.19 c 0.0609,-0.223 0.099,-0.374 0.345,-0.5 l -0.01,-0.239 -2.659,0.096 0.009,0.237 c 0.182,0.042 0.2689,0.139 0.27,0.292 0.008,0.084 -0.018,0.205 -0.0661,0.392 l -0.255,0.971 -3.3799,0.119 -0.3261,-0.952 c -0.0449,-0.119 -0.0629,-0.202 -0.065,-0.286 -0.008,-0.22 0.083,-0.34 0.2801,-0.415 l -0.009,-0.238 -2.4779,0.09 0.008,0.234 z m 15.416,8.08 2.654,-0.183 -0.016,-0.24 c -0.196,-0.036 -0.2851,-0.115 -0.297,-0.316 -0.009,-0.086 0.011,-0.203 0.04,-0.36 l 0.872,-5.24 1.5609,5.087 c 0.055,0.185 0.0791,0.283 0.081,0.333 0.0161,0.186 -0.047,0.273 -0.2089,0.354 l 0.015,0.234 3.237,-0.225 -0.019,-0.236 c -0.171,-0.055 -0.2611,-0.134 -0.271,-0.301 -0.002,-0.036 0.018,-0.154 0.044,-0.36 l 0.7289,-5.251 1.6071,5.086 c 0.0539,0.202 0.089,0.301 0.0909,0.334 0.0161,0.185 -0.0489,0.277 -0.2129,0.354 l 0.0199,0.237 2.4461,-0.173 -0.018,-0.235 c -0.3291,-0.316 -0.505,-0.693 -0.6781,-1.154 l -2.3039,-6.345 c -0.049,-0.132 -0.09,-0.245 -0.093,-0.365 -0.009,-0.152 0.065,-0.241 0.2539,-0.323 l -0.0179,-0.269 -2.85,0.199 0.018,0.235 c 0.1699,0.058 0.245,0.136 0.255,0.323 0.009,0.085 -0.01,0.201 -0.027,0.355 l -0.866,6.09 -1.732,-5.908 c -0.039,-0.15 -0.075,-0.265 -0.0821,-0.349 -0.01,-0.185 0.052,-0.275 0.2151,-0.353 l -0.018,-0.238 -2.958,0.208 0.015,0.268 c 0.203,0.039 0.263,0.104 0.276,0.34 0.008,0.084 0,0.187 -0.031,0.322 l -1.42,7.317 c -0.0531,0.24 -0.1001,0.379 -0.327,0.511 l 0.017,0.237 z m 18.727,-10.351 c 0.304,0.045 0.37,0.12 0.414,0.438 l 1.032,7.344 c 0.046,0.319 0.002,0.41 -0.2731,0.536 l 0.034,0.234 2.7271,-0.384 -0.0291,-0.236 c -0.305,-0.043 -0.3819,-0.115 -0.4279,-0.433 l -0.38,-2.728 2.728,2.227 c 0.235,0.189 0.3819,0.322 0.3949,0.408 0.0221,0.147 -0.042,0.207 -0.206,0.233 l 0.0331,0.23 3.495,-0.489 -0.029,-0.235 c -0.399,-0.031 -0.618,-0.203 -0.826,-0.377 l -2.666,-2.169 1.663,-4.671 c 0.207,-0.557 0.347,-0.935 0.701,-1.103 l -0.031,-0.234 -3.0611,0.429 0.034,0.236 c 0.1571,0.027 0.2561,0.115 0.2741,0.248 0.019,0.151 -0.072,0.301 -0.143,0.5 l -1.141,3.214 -1.63,-1.343 -0.245,-1.723 c -0.0451,-0.319 0.014,-0.411 0.29,-0.535 l -0.0301,-0.232 -2.732,0.383 0.0301,0.232 z m 19.051,-1.563 c 1.144,-0.224 1.857,0.086 1.9759,0.698 0.1841,0.966 -0.6909,1.117 -2.0079,1.441 -2.184,0.53 -3.131,1.538 -2.83,3.115 0.308,1.56 1.8509,2.462 4.026,2.039 1.649,-0.319 2.642,-1.252 3.0619,-1.332 0.1481,-0.031 0.2301,-0.031 0.3661,0.151 l 0.156,-0.135 -1.3211,-2.153 -0.1549,0.134 c 0.0269,0.097 0.07,0.158 0.0819,0.211 0.0881,0.463 -1.0489,1.215 -2.3809,1.476 -1.129,0.221 -1.852,-0.088 -1.951,-0.604 -0.134,-0.676 0.664,-0.798 2.164,-1.193 2.176,-0.58 3.098,-1.496 2.757,-3.256 -0.332,-1.691 -1.969,-2.73 -4.272,-2.286 -2.392,0.467 -3.3951,1.47 -3.547,1.501 -0.092,0.019 -0.182,-0.068 -0.3221,-0.216 l -0.1549,0.136 1.5089,2.46 0.1531,-0.135 c -0.035,-0.042 -0.0571,-0.091 -0.066,-0.141 -0.118,-0.594 1.0589,-1.581 2.757,-1.911 m -62.804,3.527 -0.006,0.237 c 0.2921,0.088 0.3581,0.174 0.3551,0.494 l -0.052,2.907 -3.601,-0.06 0.0529,-2.91 c 10e-4,-0.32 0.0741,-0.403 0.3651,-0.481 l 0.008,-0.236 -2.76,-0.05 -0.009,0.236 c 0.297,0.091 0.3481,0.174 0.3451,0.497 l -0.13,7.416 c -0.007,0.321 -0.062,0.405 -0.355,0.483 l -0.005,0.238 2.754,0.046 0.005,-0.234 c -0.2911,-0.091 -0.355,-0.178 -0.3481,-0.497 l 0.0401,-2.466 3.602,0.062 -0.042,2.465 c -0.006,0.323 -0.079,0.405 -0.369,0.486 l -0.004,0.234 2.756,0.048 0.006,-0.236 c -0.2899,-0.086 -0.3449,-0.173 -0.3369,-0.496 l 0.1289,-7.415 c 0.007,-0.321 0.0641,-0.403 0.3551,-0.485 l 10e-4,-0.236 -2.756,-0.047 z m -16.141,-0.57 -0.017,0.233 c 0.151,0.063 0.226,0.169 0.216,0.306 -0.009,0.15 -0.133,0.278 -0.238,0.455 l -1.353,2.193 -1.4891,-0.104 0.1811,-2.544 c 0.0169,-0.323 0.0949,-0.4 0.3919,-0.465 l 0.0171,-0.236 -2.75,-0.192 -0.02,0.236 c 0.286,0.105 0.336,0.192 0.314,0.512 l -0.516,7.4 c -0.0241,0.32 -0.087,0.402 -0.382,0.463 l -0.0171,0.237 5.0431,0.354 c 1.8679,0.129 2.94,-0.897 3.0559,-2.599 0.0981,-1.383 -0.474,-2.354 -1.6709,-2.876 l 1.2229,-2 c 0.31,-0.52 0.529,-0.861 0.9101,-0.934 l 0.018,-0.238 -2.917,-0.201 z m -14.5191,-1.247 -0.0279,0.236 c 0.173,0.073 0.243,0.182 0.225,0.333 -0.01,0.084 -0.0541,0.196 -0.1291,0.375 l -0.409,0.92 -3.3529,-0.411 -0.1731,-0.992 c -0.0279,-0.121 -0.0299,-0.206 -0.0199,-0.29 0.027,-0.217 0.138,-0.325 0.339,-0.367 l 0.028,-0.237 -2.4621,-0.302 -0.0269,0.236 c 0.37,0.301 0.409,0.746 0.5009,1.286 l 1.1191,6.573 c 0.047,0.275 0.063,0.466 0.057,0.534 -0.026,0.183 -0.086,0.245 -0.2381,0.245 l -0.0299,0.232 3.5869,0.442 0.029,-0.234 c -0.149,-0.038 -0.193,-0.111 -0.1689,-0.294 0.002,-0.053 0.071,-0.246 0.184,-0.505 l 3.164,-6.779 c 0.0969,-0.208 0.153,-0.356 0.418,-0.442 l 0.0279,-0.236 -2.641,-0.323 z m -13.932,5.637 -0.701,-6.714 c -0.0189,-0.139 -0.026,-0.259 -0.008,-0.377 0.0319,-0.148 0.1259,-0.219 0.328,-0.25 l 0.046,-0.267 -2.808,-0.496 -0.0391,0.232 c 0.148,0.097 0.2021,0.192 0.1721,0.375 -0.0161,0.086 -0.062,0.196 -0.1181,0.338 l -2.3139,5.701 -0.252,-6.15 c 0,-0.158 -0.005,-0.277 0.006,-0.36 0.0361,-0.185 0.1171,-0.255 0.2931,-0.292 l 0.042,-0.232 -2.922,-0.516 -0.046,0.266 c 0.182,0.083 0.225,0.161 0.182,0.393 -0.011,0.082 -0.045,0.181 -0.109,0.304 l -3.147,6.755 c -0.107,0.219 -0.184,0.344 -0.437,0.423 l -0.0431,0.229 2.617,0.464 0.0451,-0.235 c -0.1831,-0.082 -0.25,-0.179 -0.2141,-0.38 0.0121,-0.08 0.0591,-0.195 0.1291,-0.336 l 2.1129,-4.878 0.284,5.319 c 0.0111,0.189 0.002,0.292 -9e-4,0.342 -0.035,0.18 -0.118,0.253 -0.292,0.289 l -0.0431,0.235 3.1911,0.561 0.044,-0.231 c -0.1521,-0.096 -0.218,-0.193 -0.19,-0.36 0.007,-0.034 0.0539,-0.146 0.1289,-0.338 l 1.9781,-4.917 0.3269,5.326 c 0.008,0.206 0.018,0.311 0.0101,0.343 -0.03,0.186 -0.1141,0.255 -0.2861,0.292 l -0.0449,0.232 2.416,0.425 0.039,-0.233 c -0.24,-0.384 -0.321,-0.795 -0.3761,-1.282 m 51.221,9.627 c -30.557,0.299 -57.2479,-4.158 -80.3079,-10.402 l 6.6599,-15.424 c 21.7051,6.174 44.7411,8.907 73.6801,8.999 28.873,-0.092 51.918,-3.384 73.623,-9.563 l 6.6549,15.988 c -23.0609,6.244 -49.7539,10.701 -80.31,10.402" id="path3688" style="fill:#711f23;fill-opacity:1;fill-rule:nonzero;stroke:none"/><path d="m 863.0391,1286.22 0.995,0 0,2.999 0.8289,0 0,0.845 -2.6529,0 0,-0.845 0.829,0 0,-2.999 z" id="path3690" style="fill:#231f20;fill-opacity:1;fill-rule:nonzero;stroke:none"/><path d="m 865.8359,1286.22 0.326,2.212 0.009,0 0.88,-2.212 0.399,0 0.9209,2.212 0.0111,0 0.278,-2.212 1.003,0 -0.582,3.844 -0.993,0 -0.829,-2.055 -0.778,2.055 -0.989,0 -0.649,-3.844 0.993,0 z" id="path3692" style="fill:#231f20;fill-opacity:1;fill-rule:nonzero;stroke:none"/><path d="m 836.791,1285.382 c -3.359,0 -4.175,0.618 -4.084,3.029 l 2.482,18.958 -14.265,-21.987 -15.077,0 -1.687,20.201 -8.26,-15.657 1.36,-4.544 -15.755,0 c -2.542,0 -3.544,0.392 -3.544,1.289 0,0.396 0.279,0.955 0.553,1.462 l 17.979,29.897 -1.27,4.767 17.799,0 c 4.363,0 4.996,-0.395 5.178,-2.975 l 1.483,-14.769 9.598,12.977 -1,4.767 18.805,0 c 3.812,0 4.722,-0.507 4.812,-2.467 l -1.574,-29.788 3.272,-5.16 -16.805,0 z m 6.126,-30.647 c -21.705,6.179 -44.75,9.47 -73.623,9.563 -28.939,-0.093 -51.975,-2.826 -73.68,-8.999 l -6.66,15.424 c 23.06,6.244 49.751,10.701 80.308,10.401 30.556,0.3 57.249,-4.157 80.31,-10.401 l -6.655,-15.988 z m -161.778,37.77 c 0,1.012 0.547,3.086 1.178,4.769 l 7.721,20.811 -1.907,4.712 17.623,0 c 3.089,0 4.45,-0.561 4.45,-1.741 0,-0.278 -0.091,-0.894 -0.273,-1.286 l -7.503,-20.126 c -0.541,-1.57 -0.633,-1.906 -0.633,-2.411 0,-1.516 1.543,-2.244 4.54,-2.244 4.178,0 5.906,1.008 7.085,4.095 l 7.047,19.001 -1.905,4.712 17.619,0 c 3.086,0 4.452,-0.561 4.452,-1.741 0,-0.391 -0.092,-0.951 -0.365,-1.626 l -8.538,-22.887 c -2.001,-5.327 -3.632,-7.236 -7.81,-8.973 -4.54,-1.906 -10.718,-2.803 -20.619,-2.803 -15.079,0 -22.162,2.521 -22.162,7.738 m 81.864,30.292 c 3.09,0 4.453,-0.561 4.453,-1.796 0,-0.279 -0.089,-0.784 -0.271,-1.231 l -8.925,-24.399 8.753,0 13.798,10.612 -6.542,-17.63 c -0.912,-2.523 -1.907,-2.971 -6.448,-2.971 l -27.521,0 c -2.999,0 -4.273,0.563 -4.273,1.74 0,0.336 0.093,0.84 0.274,1.289 l 10.987,29.674 -1.902,4.712 17.617,0 z m 115.857,-35.766 c 0,0 -7.926,-1.873 -17.236,-4.066 l -1.159,1.669 1.532,28.269 c -0.043,0.859 -0.512,2.137 -0.929,3.131 -0.43,1.025 -0.886,1.932 -0.886,1.932 l -5.479,5.605 c -2.246,2.294 -4.753,2.941 -7.617,2.941 l -23.337,0 0.884,-5.952 -4.165,3.961 c -0.273,0.31 -1.923,1.892 -7.439,1.991 l -22.644,0 2.113,-7.918 -2.813,-4.679 -2.089,1.766 -12.517,-9.443 1.915,5.238 c 0.335,0.825 0.546,1.804 0.546,2.629 0,1.495 -0.591,2.666 -1.383,3.514 l -5.909,6.304 c -0.645,0.893 -1.55,1.51 -2.463,1.883 -1.423,0.576 -3.141,0.706 -4.782,0.706 l -49.92,0 1.419,-3.962 c 0,0 -3.024,2.888 -3.998,3.272 -1.411,0.558 -3.108,0.69 -4.75,0.69 l -23.134,0 3.435,-8.485 -7.213,-19.451 c -0.657,-1.736 -1.418,-4.341 -1.418,-6.071 0,-2.913 1.173,-5.15 3.204,-6.822 0.132,-0.156 3.211,-3.428 5.182,-5.519 -13.236,3.101 -29.17,6.867 -29.17,6.867 0,0 1.838,-4.635 4.356,-6.937 3.401,-3.104 11.592,-5.898 11.592,-5.898 l -12.798,0.84 c 0,0 1.672,-4.056 6.621,-6.918 1.875,-1.082 8.622,-4.112 8.622,-4.112 l -8.644,0.04 c 0,0 3.878,-5.2 11.873,-7.642 4.484,-1.369 9.563,-1.958 14.675,-1.985 l 1.586,-3.331 c 19.778,5.899 43.61,9.047 74.771,9.371 31.1,-0.324 54.93,-3.472 74.708,-9.371 l 1.624,3.418 c 4.06,0.209 8.025,0.803 11.612,1.898 7.995,2.442 11.873,7.642 11.873,7.642 l -8.644,-0.04 c 0,0 6.747,3.03 8.623,4.112 4.948,2.862 6.625,6.918 6.625,6.918 l -12.803,-0.84 c 0,0 8.191,2.794 11.591,5.898 2.519,2.302 4.357,6.937 4.357,6.937" id="path3694" style="fill:#231f20;fill-opacity:1;fill-rule:nonzero;stroke:none"/></g></svg>