<?xml version="1.0" encoding="UTF-8" standalone="no"?>
<!-- Created with Inkscape (http://www.inkscape.org/) -->

<svg
   xmlns:dc="http://purl.org/dc/elements/1.1/"
   xmlns:cc="http://creativecommons.org/ns#"
   xmlns:rdf="http://www.w3.org/1999/02/22-rdf-syntax-ns#"
   xmlns:svg="http://www.w3.org/2000/svg"
   xmlns="http://www.w3.org/2000/svg"
   version="1.1"
   width="280"
   height="200"
   id="svg2"
   xml:space="preserve"><metadata
     id="metadata8"><rdf:RDF><cc:Work
         rdf:about=""><dc:format>image/svg+xml</dc:format><dc:type
           rdf:resource="http://purl.org/dc/dcmitype/StillImage" /><dc:title></dc:title></cc:Work></rdf:RDF></metadata><defs
     id="defs6"><clipPath
       id="clipPath32"><path
         d="m 0,150.667 248,0 L 248,0 0,0 0,150.667 z"
         id="path34" /></clipPath></defs><g
     transform="matrix(1.25,0,0,-1.25,-16.783188,212.84654)"
     id="g10"><g
       transform="matrix(0.95666847,0,0,0.95666847,160.69782,122.53341)"
       id="g12"><path
         d="M 0,0 2.763,5.26 -10.482,8.515 0,0 z"
         id="path14"
         style="fill:#ee2622;fill-opacity:1;fill-rule:nonzero;stroke:none" /></g><g
       transform="matrix(0.95666847,0,0,0.95666847,166.1734,131.41244)"
       id="g16"><path
         d="M 0,0 4.282,4.119 -7.257,11.39 0,0 z"
         id="path18"
         style="fill:#ee2622;fill-opacity:1;fill-rule:nonzero;stroke:none" /></g><g
       transform="matrix(0.95666847,0,0,0.95666847,174.1613,138.36886)"
       id="g20"><path
         d="M 0,0 5.328,2.63 -3.47,13.052 0,0 z"
         id="path22"
         style="fill:#ee2622;fill-opacity:1;fill-rule:nonzero;stroke:none" /></g><g
       transform="matrix(0.95666847,0,0,0.95666847,183.75037,142.4721)"
       id="g24"><path
         d="M 0,0 5.895,0.746 0.982,13.469 0,0 z"
         id="path26"
         style="fill:#ee2622;fill-opacity:1;fill-rule:nonzero;stroke:none" /></g><g
       transform="matrix(0.95666847,0,0,0.95666847,5.4349243,17.681973)"
       id="g28"><g
         clip-path="url(#clipPath32)"
         id="g30"><g
           transform="translate(203.2495,133.2529)"
           id="g36"><path
             d="M 0,0 -0.977,10.917 -5.633,-1.76 -3.582,-2.077 c 0,0 0.999,0.788 3.582,2.077"
             id="path38"
             style="fill:#ee2622;fill-opacity:1;fill-rule:nonzero;stroke:none" /></g><g
           transform="translate(216.3999,137.6509)"
           id="g40"><path
             d="M 0,0 0.404,1.54 -0.995,-0.128 0,0 z"
             id="path42"
             style="fill:#ee2622;fill-opacity:1;fill-rule:nonzero;stroke:none" /></g><g
           transform="translate(215.5532,134.4243)"
           id="g44"><path
             d="m 0,0 -2.21,-8.427 -5.217,2.844 4.081,4.867 c 0,0 1.941,0.682 3.346,0.716"
             id="path46"
             style="fill:#ee2622;fill-opacity:1;fill-rule:nonzero;stroke:none" /></g><g
           transform="translate(225.231,128.0415)"
           id="g48"><path
             d="m 0,0 -7.76,-4.984 4.134,-4.267 3.608,5.772 c 0,0 0.249,1.771 0.018,3.479"
             id="path50"
             style="fill:#ee2622;fill-opacity:1;fill-rule:nonzero;stroke:none" /></g><g
           transform="translate(237.6665,118.0835)"
           id="g52"><path
             d="m 0,0 -9.084,-2.167 c 0,0 -0.833,-2.833 -1.708,-4.208 l 0.25,-2.25 L 0,0 z"
             id="path54"
             style="fill:#ee2622;fill-opacity:1;fill-rule:nonzero;stroke:none" /></g><g
           transform="translate(242.4995,103.875)"
           id="g56"><path
             d="m 0,0 -13.583,0.75 1,-5.833 L 0,0 z"
             id="path58"
             style="fill:#ee2622;fill-opacity:1;fill-rule:nonzero;stroke:none" /></g><g
           transform="translate(242.3325,88.6665)"
           id="g60"><path
             d="M 0,0 -12.625,5.125 -13.375,-0.917 0,0 z"
             id="path62"
             style="fill:#ee2622;fill-opacity:1;fill-rule:nonzero;stroke:none" /></g><g
           transform="translate(237.7075,74.2915)"
           id="g64"><path
             d="M 0,0 -10.25,8.583 -12.958,3.542 0,0 z"
             id="path66"
             style="fill:#ee2622;fill-opacity:1;fill-rule:nonzero;stroke:none" /></g><g
           transform="translate(228.6665,62.3335)"
           id="g68"><path
             d="m 0,0 -7.083,11.25 c 0,0 -1.916,-2.292 -4,-4 L 0,0 z"
             id="path70"
             style="fill:#ee2622;fill-opacity:1;fill-rule:nonzero;stroke:none" /></g><g
           transform="translate(216.6245,53.625)"
           id="g72"><path
             d="m 0,0 -3.458,12.917 c 0,0 -3.042,-1.875 -4.875,-2.709 L 0,0 z"
             id="path74"
             style="fill:#ee2622;fill-opacity:1;fill-rule:nonzero;stroke:none" /></g><g
           transform="translate(202.3335,49)"
           id="g76"><path
             d="m 0,0 0.791,13.25 c 0,0 -3.083,-0.833 -5.708,-0.875 L 0,0 z"
             id="path78"
             style="fill:#ee2622;fill-opacity:1;fill-rule:nonzero;stroke:none" /></g><g
           transform="translate(221.5923,113.1099)"
           id="g80"><path
             d="m 0,0 c 0,0 -7.81,14.762 -26.904,14.762 -19.095,0 -28.97,-15.316 -30.33,-23.478 l 7.154,0 -2.77,-10.783 -3.476,0 c -3.326,-7.154 2.972,-17.533 11.687,-23.428 C -28.988,-35.672 -9.613,-18.422 0,0"
             id="path82"
             style="fill:#f68213;fill-opacity:1;fill-rule:nonzero;stroke:none" /></g><g
           transform="translate(224.6665,107.125)"
           id="g84"><path
             d="m 0,0 c 0,0 -13.625,-24.688 -41.5,-40.188 0,0 4.187,-2.437 11.937,-2.437 14.688,0 31.376,11.625 31.376,31.937 C 1.813,-4.125 0,0 0,0"
             id="path86"
             style="fill:#f68213;fill-opacity:1;fill-rule:nonzero;stroke:none" /></g><g
           transform="translate(185.0522,10.1465)"
           id="g88"><path
             d="m 0,0 c 0.2,0 0.363,0.029 0.488,0.088 0.117,0.054 0.176,0.175 0.176,0.362 0,0.268 -0.2,0.401 -0.601,0.401 L -0.5,0.851 -0.5,0 0,0 z m -0.5,-1.527 -0.413,0 0,2.722 1.051,0 c 0.317,0 0.554,-0.06 0.714,-0.181 C 1.01,0.889 1.089,0.692 1.089,0.426 1.089,0.196 1.026,0.019 0.901,-0.106 0.772,-0.224 0.604,-0.299 0.395,-0.332 l 0.769,-1.195 -0.469,0 -0.719,1.183 -0.476,0 0,-1.183 z m -1.17,0.357 c 0.171,-0.309 0.404,-0.547 0.7,-0.714 0.297,-0.171 0.62,-0.256 0.97,-0.256 0.351,0 0.674,0.085 0.971,0.256 0.296,0.171 0.529,0.411 0.7,0.72 0.167,0.305 0.251,0.639 0.251,1.001 0,0.263 -0.049,0.519 -0.145,0.77 C 1.682,0.841 1.546,1.051 1.371,1.239 1.2,1.418 0.993,1.558 0.751,1.658 0.514,1.759 0.264,1.809 0,1.809 -0.258,1.809 -0.507,1.761 -0.744,1.664 -0.982,1.564 -1.19,1.425 -1.37,1.245 -1.55,1.065 -1.688,0.855 -1.783,0.613 -1.833,0.479 -1.868,0.356 -1.89,0.244 c -0.024,-0.13 -0.037,-0.265 -0.037,-0.407 0,-0.362 0.085,-0.698 0.257,-1.007 m 0.751,-1.189 c -0.301,0.121 -0.558,0.288 -0.77,0.501 -0.225,0.22 -0.401,0.477 -0.526,0.769 -0.129,0.288 -0.194,0.597 -0.194,0.926 0,0.334 0.065,0.644 0.194,0.933 0.125,0.292 0.303,0.546 0.532,0.763 0.221,0.208 0.478,0.373 0.77,0.494 C -0.63,2.14 -0.325,2.196 0,2.196 0.33,2.196 0.639,2.138 0.927,2.021 1.206,1.908 1.461,1.743 1.69,1.526 1.902,1.318 2.076,1.065 2.209,0.77 2.334,0.478 2.397,0.167 2.397,-0.163 2.397,-0.617 2.288,-1.022 2.071,-1.377 1.854,-1.731 1.561,-2.013 1.189,-2.222 0.818,-2.43 0.422,-2.534 0,-2.534 c -0.329,0 -0.636,0.058 -0.919,0.175"
             id="path90"
             style="fill:#231f20;fill-opacity:1;fill-rule:nonzero;stroke:none" /></g><g
           transform="translate(218.9985,137.2773)"
           id="g92"><path
             d="m 0,0 c -7.942,0 -13.67,-3.553 -20.818,-7.817 l 0.836,-0.377 c 0,0 11.831,6.856 19.23,6.856 4.975,0 8.486,-3.428 8.486,-8.862 0,-24.442 -42.664,-61.456 -61.123,-61.456 -6.214,0 -6.757,4.189 -6.757,4.189 l -5.648,-1.304 c 0,0 2.931,-6.956 11.191,-6.956 20.434,0 65.107,38.802 65.107,65.541 C 10.504,-3.991 6.235,0 0,0"
             id="path94"
             style="fill:#231f20;fill-opacity:1;fill-rule:nonzero;stroke:none" /></g><g
           transform="translate(75.9648,119.9092)"
           id="g96"><path
             d="m 0,0 -27.674,0 c -11.44,0 -15.195,-6.355 -16.235,-10.053 -1.04,-3.697 -1.272,-4.91 -2.658,-10.514 -2.427,-9.706 4.333,-11.324 8.724,-11.324 l 14.964,0 -2.715,-10.803 -9.649,0 1.445,5.084 -16.235,0 -3.987,-16.292 28.887,0 c 8.955,0 14.155,2.889 16.004,10.226 1.849,7.338 2.079,7.567 3.004,11.784 2.022,8.436 -4.333,10.574 -9.879,10.574 l -13.751,0 2.253,9.994 9.533,0 -1.156,-4.969 15.08,0 L 0,0 z"
             id="path98"
             style="fill:#231f20;fill-opacity:1;fill-rule:nonzero;stroke:none" /></g><g
           transform="translate(117.9082,103.2129)"
           id="g100"><path
             d="m 0,0 -17.68,0 -7.799,-29.581 -7.395,0 7.742,29.523 -17.622,0 -2.253,-8.204 3.64,0 c 0,0 -3.526,-13.229 -5.49,-20.278 -1.964,-7.049 1.676,-9.071 9.187,-9.071 l 14.097,0 c 8.955,0 11.555,5.026 12.364,7.569 0.809,2.542 5.777,21.722 5.777,21.722 l 3.64,0 L 0,0 z"
             id="path102"
             style="fill:#231f20;fill-opacity:1;fill-rule:nonzero;stroke:none" /></g><g
           transform="translate(139.5151,103.1548)"
           id="g104"><path
             d="m 0,0 -16.929,0 -2.253,-8.262 3.409,0 -5.546,-21.319 -3.294,0 -2.08,-7.973 16.177,0 5.201,21.435 9.069,-21.434 16.524,0 2.426,7.857 -3.582,0 5.546,21.377 3.467,0 2.08,8.32 -16.178,0 L 8.664,-22.647 0,0 z"
             id="path106"
             style="fill:#231f20;fill-opacity:1;fill-rule:nonzero;stroke:none" /></g><g
           transform="translate(46.6206,40.4844)"
           id="g108"><path
             d="m 0,0 -9.315,0 2.711,10.054 8.822,0 L 0,0 z m -4.485,-21.391 -9.956,0 2.859,11.336 9.808,0 -2.711,-11.336 z m 21.281,25.82 c 2.7,9.261 4.446,16.822 -7.889,16.822 l -33.803,0 -2.783,-11.171 4.111,0 -7.806,-31.271 -4.028,0 -2.865,-11.462 34.964,0 c 7.351,0 13.372,2.159 15.822,12.168 2.45,10.008 3.945,14.284 -6.894,15.405 l 0,0.539 c 0,0 8.471,-0.291 11.171,8.97"
             id="path110"
             style="fill:#231f20;fill-opacity:1;fill-rule:nonzero;stroke:none" /></g><g
           transform="translate(109.4971,61.7715)"
           id="g112"><path
             d="m 0,0 -38.513,0 -1.373,-8.308 3.52,0 -4.4,-22.178 -3.661,0 -1.584,-8.379 39.182,0 2.711,13.237 -13.342,0 -0.986,-4.964 -7.85,0 1.654,7.991 11.195,0 1.69,7.217 -11.441,0 1.408,6.934 7.498,0 -0.809,-4.471 12.039,0 L 0,0 z"
             id="path114"
             style="fill:#231f20;fill-opacity:1;fill-rule:nonzero;stroke:none" /></g><g
           transform="translate(135.9009,61.7354)"
           id="g116"><path
             d="m 0,0 -21.827,0 -1.584,-8.238 3.309,0 -4.224,-22.354 -3.696,0 -1.655,-8.308 39.146,0 3.204,15.032 -13.061,0 -1.655,-6.653 -7.674,0 4.718,22.214 3.45,0 L 0,0 z"
             id="path118"
             style="fill:#231f20;fill-opacity:1;fill-rule:nonzero;stroke:none" /></g><g
           transform="translate(189.1987,61.7715)"
           id="g120"><path
             d="m 0,0 -17.392,0 c 0,0 -2.638,-1.584 -7.744,-1.584 -5.105,0 -5.915,1.514 -5.915,1.514 l -15.524,0 -2.675,-14.082 10.455,0 1.303,5.774 5.104,0 -4.259,-22.214 -3.416,0 -1.583,-8.414 21.755,0 1.725,8.52 -3.731,0 4.505,22.072 5.21,0 -1.09,-5.844 10.525,0 L 0,0 z"
             id="path122"
             style="fill:#231f20;fill-opacity:1;fill-rule:nonzero;stroke:none" /></g><g
           transform="translate(63.3726,7.3174)"
           id="g124"><path
             d="m 0,0 c -0.814,0 -1.411,0.221 -1.791,0.662 -0.378,0.441 -0.481,1.037 -0.308,1.79 l 1.674,7.243 c 0.171,0.741 0.55,1.333 1.137,1.778 0.588,0.443 1.285,0.666 2.093,0.666 l 6.646,0 -0.922,-3.991 -3.371,0 0.336,1.454 -2.026,0 -1.628,-7.048 2.025,0 0.478,2.068 3.371,0 L 6.646,0 0,0 z"
             id="path126"
             style="fill:#231f20;fill-opacity:1;fill-rule:nonzero;stroke:none" /></g><g
           transform="translate(76.1226,9.8711)"
           id="g128"><path
             d="m 0,0 1.928,0 1.628,7.048 -1.928,0 L 0,0 z M 5.81,-0.102 C 5.637,-0.849 5.257,-1.443 4.67,-1.888 4.083,-2.332 3.389,-2.554 2.588,-2.554 l -4.428,0 c -0.814,0 -1.411,0.221 -1.79,0.662 -0.379,0.441 -0.482,1.038 -0.308,1.79 l 1.673,7.244 c 0.171,0.74 0.551,1.333 1.138,1.777 0.587,0.443 1.284,0.666 2.092,0.666 l 4.428,0 c 0.807,0 1.4,-0.221 1.78,-0.662 C 7.552,8.48 7.656,7.887 7.483,7.142 L 5.81,-0.102 z"
             id="path130"
             style="fill:#231f20;fill-opacity:1;fill-rule:nonzero;stroke:none" /></g><g
           transform="translate(103.2622,9.8711)"
           id="g132"><path
             d="m 0,0 -0.59,-2.554 -6.25,0 0.59,2.554 1.114,0 1.629,7.048 -1.115,0 0.587,2.537 10.474,0 -0.896,-3.879 -3.41,0 0.31,1.342 -2.104,0 -0.525,-2.273 2.878,0 -0.528,-2.289 -2.878,0 L -1.289,0 0,0 z"
             id="path134"
             style="fill:#231f20;fill-opacity:1;fill-rule:nonzero;stroke:none" /></g><g
           transform="translate(107.3726,7.3174)"
           id="g136"><path
             d="m 0,0 0.59,2.554 1.114,0 1.629,7.048 -1.115,0 0.587,2.537 10.358,0 -0.896,-3.879 -3.197,0 0.309,1.342 -2.2,0 -0.525,-2.273 2.937,0 -0.513,-2.222 -2.937,0 -0.59,-2.553 2.2,0 0.371,1.606 3.4,0 L 10.562,0 0,0 z"
             id="path138"
             style="fill:#231f20;fill-opacity:1;fill-rule:nonzero;stroke:none" /></g><g
           transform="translate(125.6353,14.5615)"
           id="g140"><path
             d="m 0,0 2.064,0 0.545,2.357 -2.065,0 L 0,0 z m 4.36,4.895 c 0.817,0 1.414,-0.22 1.792,-0.659 C 6.529,3.798 6.632,3.202 6.458,2.451 L 6.024,0.571 C 5.911,0.083 5.659,-0.299 5.269,-0.573 4.877,-0.846 4.334,-1.023 3.635,-1.103 c 0.7,-0.136 1.17,-0.339 1.409,-0.61 0.239,-0.27 0.301,-0.656 0.185,-1.158 l -0.421,-1.819 1.095,0 -0.59,-2.554 -3.262,0 c -0.505,0 -0.862,0.09 -1.07,0.269 -0.208,0.179 -0.27,0.452 -0.186,0.816 l 0.899,3.887 -2.219,0 -1.149,-4.972 -5,0 0.59,2.554 1.114,0 1.629,7.047 -1.115,0 0.587,2.538 8.229,0 z"
             id="path142"
             style="fill:#231f20;fill-opacity:1;fill-rule:nonzero;stroke:none" /></g><g
           transform="translate(131.6255,7.3174)"
           id="g144"><path
             d="m 0,0 0.591,2.554 1.114,0 1.628,7.048 -1.114,0 0.587,2.537 10.357,0 -0.895,-3.879 -3.198,0 0.31,1.342 -2.2,0 -0.525,-2.273 2.937,0 -0.514,-2.222 -2.936,0 -0.59,-2.553 2.2,0 0.371,1.606 3.4,0 L 10.562,0 0,0 z"
             id="path146"
             style="fill:#231f20;fill-opacity:1;fill-rule:nonzero;stroke:none" /></g><g
           transform="translate(159.6294,7.3174)"
           id="g148"><path
             d="m 0,0 c -0.814,0 -1.41,0.221 -1.79,0.662 -0.379,0.441 -0.482,1.037 -0.309,1.79 l 1.674,7.243 c 0.172,0.741 0.551,1.333 1.138,1.778 0.588,0.443 1.284,0.666 2.093,0.666 l 6.646,0 -0.922,-3.991 -3.371,0 0.335,1.454 -2.025,0 -1.628,-7.048 2.025,0 0.478,2.068 3.371,0 L 6.646,0 0,0 z"
             id="path150"
             style="fill:#231f20;fill-opacity:1;fill-rule:nonzero;stroke:none" /></g><g
           transform="translate(167.3413,7.3174)"
           id="g152"><path
             d="m 0,0 0.591,2.554 1.114,0 1.628,7.048 -1.114,0 0.586,2.537 10.359,0 -0.896,-3.879 -3.198,0 0.31,1.342 -2.2,0 -0.525,-2.273 2.937,0 -0.514,-2.222 -2.936,0 -0.59,-2.553 2.2,0 0.371,1.606 3.4,0 L 10.562,0 0,0 z"
             id="path154"
             style="fill:#231f20;fill-opacity:1;fill-rule:nonzero;stroke:none" /></g><g
           transform="translate(94.1108,19.4561)"
           id="g156"><path
             d="M 0,0 -1.405,-6.082 -3.75,0 l -4.748,0 -0.586,-2.537 1.114,0 -1.629,-7.048 -1.114,0 -0.59,-2.554 4.748,0 1.408,6.091 2.342,-6.091 4.632,-0.005 0.59,2.559 -1.008,0 1.629,7.048 1.094,0 L 4.719,0 0,0 z"
             id="path158"
             style="fill:#231f20;fill-opacity:1;fill-rule:nonzero;stroke:none" /></g><g
           transform="translate(154.1353,19.4561)"
           id="g160"><path
             d="M 0,0 -1.405,-6.082 -3.75,0 l -4.748,0 -0.586,-2.537 1.113,0 -1.628,-7.048 -1.114,0 -0.59,-2.554 4.748,0 1.408,6.091 2.342,-6.091 4.632,-0.005 0.59,2.559 -1.008,0 1.628,7.048 1.096,0 L 4.719,0 0,0 z"
             id="path162"
             style="fill:#231f20;fill-opacity:1;fill-rule:nonzero;stroke:none" /></g></g></g></g></svg>