<?xml version="1.0" encoding="UTF-8" standalone="no"?>
<svg
   xmlns:dc="http://purl.org/dc/elements/1.1/"
   xmlns:cc="http://creativecommons.org/ns#"
   xmlns:rdf="http://www.w3.org/1999/02/22-rdf-syntax-ns#"
   xmlns:svg="http://www.w3.org/2000/svg"
   xmlns="http://www.w3.org/2000/svg"
   xmlns:sodipodi="http://sodipodi.sourceforge.net/DTD/sodipodi-0.dtd"
   xmlns:inkscape="http://www.inkscape.org/namespaces/inkscape"
   version="1.0"
   width="280"
   height="200"
   viewBox="0 0 223.99999 160"
   preserveAspectRatio="xMidYMid meet"
   id="svg2"
   inkscape:version="0.48.4 r9939"
   sodipodi:docname="Texas_State_Bobcats_Primary_Athletic_Logo.svg">
  <defs
     id="defs32" />
  <sodipodi:namedview
     pagecolor="#ffffff"
     bordercolor="#666666"
     borderopacity="1"
     objecttolerance="10"
     gridtolerance="10"
     guidetolerance="10"
     inkscape:pageopacity="0"
     inkscape:pageshadow="2"
     inkscape:window-width="1360"
     inkscape:window-height="480"
     id="namedview30"
     showgrid="false"
     fit-margin-top="0"
     fit-margin-left="0"
     fit-margin-right="0"
     fit-margin-bottom="0"
     inkscape:zoom="0.26258693"
     inkscape:cx="88.501549"
     inkscape:cy="117.18751"
     inkscape:window-x="65"
     inkscape:window-y="34"
     inkscape:window-maximized="0"
     inkscape:current-layer="svg2" />
  <metadata
     id="metadata4">
Created by potrace 1.11, written by Peter Selinger 2001-2013
<rdf:RDF>
  <cc:Work
     rdf:about="">
    <dc:format>image/svg+xml</dc:format>
    <dc:type
       rdf:resource="http://purl.org/dc/dcmitype/StillImage" />
    <dc:title></dc:title>
  </cc:Work>
</rdf:RDF>
</metadata>
  <g
     transform="matrix(0.02411454,0,0,-0.02411454,38.197181,163.37603)"
     id="g6"
     style="fill:#000000;stroke:none">
    <path
       d="m 2434,6702 c 21,-241 133,-545 267,-729 27,-37 45,-70 41,-73 -4,-4 -27,-12 -52,-19 -280,-80 -554,-408 -715,-855 -34,-94 -35,-98 -13,-82 216,158 447,218 829,214 107,0 178,-3 159,-5 -442,-46 -837,-317 -1015,-696 -67,-143 -67,-143 2,-98 153,102 417,162 651,148 50,-3 92,-2 92,3 0,16 138,145 205,190 122,82 294,157 405,175 l 45,7 -30,-22 c -102,-78 -212,-205 -282,-329 l -43,-75 80,-23 c 212,-61 332,-167 316,-280 -8,-62 -31,-100 -99,-167 l -61,-59 91,5 c 102,6 172,32 200,75 20,30 33,15 33,-40 0,-50 -11,-71 -74,-136 l -51,-53 86,6 c 109,8 178,30 229,74 59,50 83,103 84,184 1,38 4,68 7,68 15,0 87,83 113,129 15,28 25,51 22,51 -4,0 -23,-9 -43,-20 -49,-26 -111,-34 -161,-21 -78,21 -226,172 -284,288 -58,117 -24,190 117,258 105,50 185,68 305,69 90,1 111,-2 146,-21 58,-31 131,-116 170,-198 31,-64 32,-74 23,-116 -6,-26 -27,-81 -48,-123 -27,-53 -35,-76 -25,-76 30,0 108,45 144,83 l 38,39 32,-17 c 49,-25 86,-6 116,60 60,130 57,301 -4,334 -18,10 -22,7 -32,-24 -17,-52 -27,-43 -26,23 0,31 -3,70 -7,85 -7,26 -6,28 15,22 33,-10 68,-36 102,-79 29,-35 31,-43 31,-121 0,-97 16,-100 36,-7 25,117 -47,331 -149,443 -33,37 -51,67 -56,93 -15,77 -67,221 -103,280 -77,126 -236,254 -473,379 -58,31 -253,122 -435,202 -181,81 -382,174 -445,207 -228,120 -373,234 -461,366 l -52,77 7,-73 z m 451,-527 c 50,-23 149,-66 220,-95 72,-29 166,-70 210,-92 76,-38 229,-137 222,-144 -1,-2 -50,12 -107,30 -58,18 -139,39 -180,46 -80,14 -314,18 -367,6 -31,-7 -33,-6 -78,71 -52,90 -83,167 -92,230 l -6,45 44,-28 c 24,-15 85,-46 134,-69 z m 1192,-753 c 67,-35 70,-42 41,-128 l -26,-75 32,19 c 17,10 41,32 52,50 17,25 23,28 28,16 16,-42 1,-80 -41,-102 -87,-47 -181,50 -199,206 l -7,62 40,-14 c 22,-8 58,-23 80,-34 z"
       id="path8"
       inkscape:connector-curvature="0" />
    <path
       d="m 150,3335 0,-125 125,0 125,0 0,-580 0,-580 160,0 160,0 0,585 0,585 130,0 130,0 0,120 0,120 -415,0 -415,0 0,-125 z"
       id="path10"
       inkscape:connector-curvature="0" />
    <path
       d="m 1464,3451 c -55,-14 -117,-55 -145,-96 -62,-93 -62,-94 -67,-727 l -4,-578 437,0 436,0 -3,123 -3,122 -267,3 -268,2 0,165 0,165 268,2 267,3 3,123 3,122 -271,0 -270,0 0,170 0,170 270,0 270,0 0,120 0,120 -312,-1 c -172,-1 -327,-4 -344,-8 z"
       id="path12"
       inkscape:connector-curvature="0" />
    <path
       d="m 2530,3293 c 0,-93 5,-197 11,-233 19,-120 75,-210 170,-274 l 48,-32 -44,-27 c -94,-60 -155,-157 -174,-277 -6,-36 -11,-140 -11,-232 l 0,-168 165,0 165,0 0,133 c 0,158 13,243 45,306 25,51 110,151 128,151 21,0 109,-102 133,-154 30,-67 44,-161 44,-313 l 0,-123 166,0 166,0 -4,203 c -4,166 -9,213 -25,263 -27,82 -73,147 -142,198 l -57,42 53,38 c 69,48 117,114 144,196 19,55 23,96 27,268 l 4,202 -166,0 -166,0 0,-122 c 0,-153 -14,-247 -44,-314 -24,-52 -112,-154 -133,-154 -18,0 -103,100 -128,151 -32,63 -45,148 -45,307 l 0,132 -165,0 -165,0 0,-167 z"
       id="path14"
       inkscape:connector-curvature="0" />
    <path
       d="m 4135,3442 c -76,-26 -111,-56 -145,-125 -44,-89 -49,-180 -50,-764 l 0,-503 165,0 165,0 0,215 0,215 180,0 180,0 0,-215 0,-215 165,0 165,0 0,523 c 0,306 -4,557 -11,607 -18,148 -74,229 -181,264 -76,24 -561,23 -633,-2 z m 495,-472 0,-250 -180,0 -180,0 0,250 0,250 180,0 180,0 0,-250 z"
       id="path16"
       inkscape:connector-curvature="0" />
    <path
       d="m 5481,3448 c -54,-15 -78,-36 -100,-88 -32,-74 -44,-193 -39,-390 4,-172 5,-178 33,-235 47,-94 65,-99 318,-104 l 207,-3 0,-164 0,-164 -275,0 -275,0 0,-125 0,-125 343,0 c 199,0 361,5 387,11 25,6 57,22 73,37 48,45 59,105 64,332 7,292 -11,371 -98,420 -42,24 -53,25 -241,28 l -198,4 0,169 0,169 250,0 250,0 0,120 0,120 -332,-1 c -183,0 -348,-5 -367,-11 z"
       id="path18"
       inkscape:connector-curvature="0" />
    <path
       d="m 345,1563 c -56,-6 -110,-25 -132,-46 -13,-11 -33,-45 -45,-76 -20,-51 -22,-78 -26,-283 -4,-251 4,-308 55,-369 48,-56 75,-62 316,-67 l 217,-4 0,-164 0,-164 -290,0 -290,0 0,-125 0,-125 360,0 c 407,0 444,4 489,55 47,54 53,91 58,336 6,309 -10,374 -105,421 -44,21 -62,23 -254,26 l -208,4 0,164 0,164 265,0 265,0 0,130 0,130 -322,-1 c -178,-1 -336,-4 -353,-6 z"
       id="path20"
       inkscape:connector-curvature="0" />
    <path
       d="m 1380,1440 0,-130 150,0 150,0 0,-585 0,-585 165,0 165,0 0,585 0,585 150,0 150,0 0,130 0,130 -465,0 -465,0 0,-130 z"
       id="path22"
       inkscape:connector-curvature="0" />
    <path
       d="m 2887,1560 c -144,-25 -216,-114 -237,-296 -5,-49 -10,-319 -10,-606 l 0,-518 170,0 170,0 0,215 0,215 203,-2 202,-3 3,-212 2,-213 166,0 165,0 -3,597 c -4,667 -2,647 -75,732 -43,51 -90,76 -168,90 -67,13 -515,13 -588,1 z m 503,-495 0,-245 -205,0 -205,0 0,245 0,245 205,0 205,0 0,-245 z"
       id="path24"
       inkscape:connector-curvature="0" />
    <path
       d="m 4067,1563 c -4,-3 -7,-62 -7,-130 l 0,-123 145,0 145,0 0,-585 0,-585 165,0 165,0 0,585 0,585 145,0 145,0 0,130 0,130 -448,0 c -247,0 -452,-3 -455,-7 z"
       id="path26"
       inkscape:connector-curvature="0" />
    <path
       d="m 5516,1559 c -108,-18 -187,-86 -223,-192 -15,-47 -18,-114 -21,-639 l -3,-588 471,0 471,0 -3,128 -3,127 -297,3 -298,2 0,160 0,160 298,2 297,3 3,128 3,127 -301,0 -300,0 0,165 0,165 300,0 300,0 0,130 0,130 -322,-1 c -178,-1 -345,-5 -372,-10 z"
       id="path28"
       inkscape:connector-curvature="0" />
  </g>
</svg>
