<?xml version="1.0" encoding="UTF-8" standalone="no"?>
<!-- Created with Inkscape (http://www.inkscape.org/) -->

<svg
   xmlns:dc="http://purl.org/dc/elements/1.1/"
   xmlns:cc="http://creativecommons.org/ns#"
   xmlns:rdf="http://www.w3.org/1999/02/22-rdf-syntax-ns#"
   xmlns:svg="http://www.w3.org/2000/svg"
   xmlns="http://www.w3.org/2000/svg"
   version="1.1"
   width="280"
   height="200"
   id="svg2"
   xml:space="preserve"><metadata
     id="metadata8"><rdf:RDF><cc:Work
         rdf:about=""><dc:format>image/svg+xml</dc:format><dc:type
           rdf:resource="http://purl.org/dc/dcmitype/StillImage" /><dc:title></dc:title></cc:Work></rdf:RDF></metadata><defs
     id="defs6" /><g
     transform="matrix(1.25,0,0,-1.25,-20.4725,220.47249)"
     id="g10"><g
       transform="matrix(0.0830065,0,0,0.0830065,49.978,16.378)"
       id="g12"><path
         d="m 0,0 1927.56,0 0,1927.56 L 0,1927.56 0,0 z"
         id="path14"
         style="fill:#ffffff;fill-opacity:1;fill-rule:evenodd;stroke:none" /><path
         d="m 1624.71,1349.71 -164.38,-23.94 c 17.26,34.55 23.25,62.59 25.72,86.06 l 3.18,30.19 -33.03,-7.08 -0.18,-0.06 c -61.35,-13.97 -233.94,-29.35 -370.78,-36.27 l 0,261.36 c 0,0 -5.83,18.78 -8.25,22.02 -4.8,8.72 -11.68,16.68 -20.26,23.67 18.15,14.61 28.51,33.63 28.51,54.3 0,46.3 -51.98,82.56 -118.338,82.56 -66.355,0 -118.332,-36.26 -118.332,-82.56 0,-20.67 10.364,-39.69 28.516,-54.3 -8.586,-6.99 -15.465,-14.95 -20.27,-23.67 -3.597,-4.73 -8.246,-22.02 -8.246,-22.02 l 0,-260.91 c -135.715,7.13 -302.324,22.2 -362.004,35.94 -0.128,0.04 -1.066,0.33 -1.066,0.33 l -1.406,0.21 -28.934,7.17 1.899,-30.88 c 2.48,-23.56 8.492,-51.74 25.925,-86.48 l -167.293,24.36 0,-838.226 535.707,0 0,-235.742 c 0,-62.652 53.387,-129.191 98.176,-173.976 l 0.176,0 16.063,-16.7269 14.882,16.7269 0.028,0 c 44.787,44.785 98.187,111.32 98.187,173.976 l 0,235.742 545.8,0 0,838.226"
         id="path16"
         style="fill:#231f20;fill-opacity:1;fill-rule:nonzero;stroke:none" /><path
         d="m 965.145,1295.58 c -27.805,-0.66 -59.454,-2.94 -91.735,-6.26 l 0,-60.62 91.735,0 0,66.88"
         id="path18"
         style="fill:#ffffff;fill-opacity:1;fill-rule:nonzero;stroke:none" /><path
         d="m 873.41,275.742 c 0,-47.703 38.531,-105.211 91.735,-158.406 l 0,1082.294 -91.735,0 0,-923.888"
         id="path20"
         style="fill:#ffffff;fill-opacity:1;fill-rule:nonzero;stroke:none" /><path
         d="m 965.156,117.336 c 53.204,53.195 91.734,110.703 91.734,158.406 l 0,923.888 -91.734,0 0,-1082.294"
         id="path22"
         style="fill:#b5b9c4;fill-opacity:1;fill-rule:nonzero;stroke:none" /><path
         d="m 1056.89,1290.58 c -30.29,2.87 -59.656,4.75 -85.331,5.13 -2.094,-0.03 -4.258,-0.08 -6.403,-0.13 l 0,-66.88 91.734,0 0,61.88"
         id="path24"
         style="fill:#b5b9c4;fill-opacity:1;fill-rule:nonzero;stroke:none" /><path
         d="m 1445.06,1298.52 c -24.65,-39.91 -63.91,-87.56 -126.98,-145.25 l -37.59,-34.4 0.72,50.95 -0.05,0.76 0,5.74 0.14,0.47 c 0,0 0.79,55.46 1.05,73.76 -9.44,4.08 -26.08,8.68 -47.29,13.34 -45.41,-13.68 -78.79,-32.25 -101.41,-56.16 l -326.9,0 c -22.441,23.72 -55.469,42.17 -100.344,55.83 -20.457,-4.55 -36.5,-9.01 -45.648,-12.97 0.265,-18.59 1.867,-126.21 1.867,-126.21 l -37.602,28.89 c -62.843,57.49 -102.046,105 -126.707,144.82 l -157.859,22.98 0,-784.816 1259.493,0 0,784.816 -154.89,-22.55"
         id="path26"
         style="fill:#ae1d4d;fill-opacity:1;fill-rule:nonzero;stroke:none" /><path
         d="m 1558.64,1295.59 -127.79,-18.61 c -24.8,-35.25 -60.67,-76.05 -112.77,-123.71 l -37.59,-34.4 0.72,50.95 -0.05,0.76 0,5.74 0.14,0.47 c 0,0 0.79,55.46 1.05,73.76 -2.53,1.09 -5.59,2.22 -9.1,3.38 -63.92,-14.27 -106.87,-35.8 -131.24,-65.46 -17.3,0 -326.322,0 -343.615,0 -24.176,29.42 -66.661,50.83 -129.707,65.11 -3.012,-1.03 -5.7,-2.02 -7.93,-2.99 0.265,-18.59 1.867,-126.21 1.867,-126.21 l -37.602,28.89 c -51.875,47.46 -87.671,88.13 -112.46,123.28 l -152.836,22.25 0,-743.28 1220.953,0 0,743.28 -22.04,-3.21"
         id="path28"
         style="fill:#ffffff;fill-opacity:1;fill-rule:nonzero;stroke:none" /><path
         d="m 1414.56,1255.15 c -23.55,-30.03 -54.8,-63.75 -96.48,-101.88 l -37.59,-34.4 0.72,50.95 -0.05,0.76 0,5.74 0.14,0.47 c 0,0 0.5,35.51 0.84,59.07 l -4.18,-0.61 c -74.3,-16.5 -110.08,-41.27 -126.59,-66.04 l -362.339,0 c -16.515,24.77 -52.289,49.54 -126.59,66.04 l -1.464,0.21 c 0.523,-35.38 1.648,-111.08 1.648,-111.08 l -37.602,28.89 c -41.476,37.94 -72.617,71.52 -96.128,101.43 l -149.907,21.84 0,-701.755 1182.422,0 0,701.755 -146.85,-21.39"
         id="path30"
         style="fill:#8b959f;fill-opacity:1;fill-rule:nonzero;stroke:none" /><path
         d="m 966.926,1738.69 c -29.633,0 -53.649,9.54 -53.649,21.33 0,11.79 24.016,21.34 53.649,21.34 29.625,0 53.644,-9.55 53.644,-21.34 0,-11.79 -24.019,-21.33 -53.644,-21.33 z m 95.294,-78.72 c -4.37,20.14 -24.48,37.12 -52.27,45.89 31.56,9.94 53.27,30.41 53.27,54.1 0,33.44 -43.13,60.54 -96.318,60.54 -53.195,0 -96.316,-27.1 -96.316,-60.54 0,-23.69 21.711,-44.16 53.269,-54.1 -27.792,-8.77 -47.89,-25.75 -52.273,-45.89 l -0.996,-5.5 0,-256.51 c 10.898,-0.51 21.41,-0.94 31.711,-1.34 l 0,244.81 0.125,0 c -0.035,0.54 -0.125,1.09 -0.125,1.64 0,24.27 28.984,43.94 64.742,43.94 35.761,0 64.751,-19.67 64.751,-43.94 0,-0.55 -0.1,-1.1 -0.13,-1.64 l 0.13,0 0,-245.11 c 10.17,0.36 20.59,0.75 31.44,1.24 l 0,256.91 -1.01,5.5"
         id="path32"
         style="fill:#b5b9c4;fill-opacity:1;fill-rule:nonzero;stroke:none" /><path
         d="m 936.598,1407.25 -22.016,0 0,-11.09 c 7.582,-0.26 14.895,-0.47 22.016,-0.66 l 0,11.75"
         id="path34"
         style="fill:#ae1d4d;fill-opacity:1;fill-rule:nonzero;stroke:none" /><path
         d="m 936.598,1407.25 0,-11.75 c 12.386,-0.31 24.105,-0.53 34.82,-0.59 14.359,0.09 30.502,0.43 47.822,0.97 l 0,11.37 -82.642,0"
         id="path36"
         style="fill:#992241;fill-opacity:1;fill-rule:nonzero;stroke:none" /><path
         d="m 978.34,1763.32 c 11.883,0 22.59,-1.61 30.19,-4.2 0.05,0.28 0.13,0.55 0.13,0.83 0,7.48 -18.699,13.54 -41.758,13.54 -23.066,0 -41.757,-6.06 -41.757,-13.54 0,-3.63 4.414,-6.91 11.562,-9.34 1.316,7.09 19.422,12.71 41.633,12.71"
         id="path38"
         style="fill:#ae1d4d;fill-opacity:1;fill-rule:nonzero;stroke:none" /><path
         d="m 1008.53,1759.12 c -7.6,2.59 -18.307,4.2 -30.19,4.2 -22.211,0 -40.317,-5.62 -41.633,-12.71 7.606,-2.59 18.309,-4.21 30.195,-4.21 22.2,0 40.308,5.62 41.628,12.72"
         id="path40"
         style="fill:#a41b48;fill-opacity:1;fill-rule:nonzero;stroke:none" /><path
         d="m 988.922,1662.97 c 10.047,0 19.398,-1.88 27.358,-5.09 -7.11,13.37 -26.503,17.47 -49.37,17.47 -28.797,0 -52.14,-9.7 -52.316,-28.49 l -0.012,0 0,-0.15 c 0,-0.02 -0.004,-0.05 -0.004,-0.07 0,-0.02 0.004,-0.04 0.004,-0.07 l 0,-8.15 24.188,0 c 6.378,14.18 26.394,24.55 50.152,24.55"
         id="path42"
         style="fill:#ae1d4d;fill-opacity:1;fill-rule:nonzero;stroke:none" /><path
         d="m 936.598,1423.77 82.642,0 0,37.15 -82.642,0 0,-37.15"
         id="path44"
         style="fill:#992241;fill-opacity:1;fill-rule:nonzero;stroke:none" /><path
         d="m 936.598,1477.43 82.642,0 0,37.15 -82.642,0 0,-37.15"
         id="path46"
         style="fill:#992241;fill-opacity:1;fill-rule:nonzero;stroke:none" /><path
         d="m 936.598,1621.91 0,-37.16 82.642,0 0,37.16 -82.642,0"
         id="path48"
         style="fill:#992241;fill-opacity:1;fill-rule:nonzero;stroke:none" /><path
         d="m 936.598,1531.09 82.642,0 0,37.15 -82.642,0 0,-37.15"
         id="path50"
         style="fill:#992241;fill-opacity:1;fill-rule:nonzero;stroke:none" /><path
         d="m 938.77,1638.42 80.47,0 0,8.44 -0.02,0 c -0.04,3.86 -1.09,7.56 -2.94,11.02 -7.96,3.21 -17.311,5.09 -27.358,5.09 -23.758,0 -43.774,-10.37 -50.152,-24.55"
         id="path52"
         style="fill:#992241;fill-opacity:1;fill-rule:nonzero;stroke:none" /><path
         d="m 1019.24,1621.91 -104.658,0 0,-37.16 22.016,0 0,29.68 82.642,0 0,7.48"
         id="path54"
         style="fill:#ae1d4d;fill-opacity:1;fill-rule:nonzero;stroke:none" /><path
         d="m 1019.24,1568.24 -104.658,0 0,-37.15 22.016,0 0,29.68 82.642,0 0,7.47"
         id="path56"
         style="fill:#ae1d4d;fill-opacity:1;fill-rule:nonzero;stroke:none" /><path
         d="m 1019.24,1514.58 -104.658,0 0,-37.15 22.016,0 0,29.68 82.642,0 0,7.47"
         id="path58"
         style="fill:#ae1d4d;fill-opacity:1;fill-rule:nonzero;stroke:none" /><path
         d="m 1019.24,1460.92 -104.658,0 0,-37.15 22.016,0 0,29.67 82.642,0 0,7.48"
         id="path60"
         style="fill:#ae1d4d;fill-opacity:1;fill-rule:nonzero;stroke:none" /><path
         d="m 637.156,1169.51 -0.035,2.27 c -26.562,34.33 -63.285,110.86 -57.961,136.22 -41.695,33.62 -84.488,72.88 -101.66,105.84 -0.406,0.1 -0.887,0.2 -1.285,0.29 5.504,-52.28 31.594,-126.29 160.941,-244.62"
         id="path62"
         style="fill:#b5b9c4;fill-opacity:1;fill-rule:nonzero;stroke:none" /><path
         d="m 637.121,1171.78 -1.293,90.99 c 0.301,0.3 0.758,0.61 1.117,0.91 -16.804,12.42 -37.152,27.68 -57.785,44.32 -5.324,-25.36 31.399,-101.89 57.961,-136.22"
         id="path64"
         style="fill:#ffffff;fill-opacity:1;fill-rule:nonzero;stroke:none" /><path
         d="m 968.816,1372.89 c -137.199,0.84 -411.484,22.14 -491.316,40.95 17.172,-32.96 59.965,-72.22 101.66,-105.84 0.184,0.89 0.422,1.72 0.711,2.47 81.008,23.63 306.231,36.38 388.945,38.27 82.724,-1.89 307.944,-14.64 388.954,-38.27 0.29,-0.75 0.52,-1.58 0.71,-2.47 41.68,33.62 84.48,72.88 101.65,105.84 -79.83,-18.81 -354.11,-40.11 -491.314,-40.95"
         id="path66"
         style="fill:#ffffff;fill-opacity:1;fill-rule:nonzero;stroke:none" /><path
         d="m 1358.48,1308 c -0.19,0.89 -0.42,1.72 -0.71,2.47 -78.45,22.88 -292.14,35.57 -380.7,38.06 l 0,0.38 c -2.554,-0.05 -5.332,-0.1 -8.254,-0.17 -2.918,0.07 -5.699,0.12 -8.253,0.17 l 0,-0.38 c -88.551,-2.49 -302.247,-15.18 -380.692,-38.06 -0.289,-0.75 -0.527,-1.58 -0.711,-2.47 20.633,-16.64 40.981,-31.9 57.785,-44.32 28.223,23.95 228.481,52.56 331.871,54.06 103.394,-1.5 303.654,-30.11 331.874,-54.06 16.81,12.42 37.15,27.68 57.79,44.32"
         id="path68"
         style="fill:#b5b9c4;fill-opacity:1;fill-rule:nonzero;stroke:none" /><path
         d="m 1300.48,1169.51 0.04,2.27 c 26.56,34.33 63.28,110.86 57.96,136.22 41.68,33.62 84.48,72.88 101.65,105.84 0.41,0.1 0.89,0.2 1.29,0.29 -5.5,-52.28 -31.6,-126.29 -160.94,-244.62"
         id="path70"
         style="fill:#b5b9c4;fill-opacity:1;fill-rule:nonzero;stroke:none" /><path
         d="m 1300.52,1171.78 1.28,90.99 c -0.3,0.3 -0.75,0.61 -1.11,0.91 16.81,12.42 37.15,27.68 57.79,44.32 5.32,-25.36 -31.4,-101.89 -57.96,-136.22"
         id="path72"
         style="fill:#ffffff;fill-opacity:1;fill-rule:nonzero;stroke:none" /><path
         d="m 1039.26,1089.71 0.5,0.01 c -30.96,0 -56.151,-25.19 -56.151,-56.15 l 0,-302.765 154.831,0 c 30.95,0 56.14,25.191 56.14,56.148 l 0,307.387 -17.01,-0.5 -138.31,-4.13 z m -83.862,-165.417 0,111.077 c 0,14.99 -5.839,29.09 -16.437,39.69 -10.606,10.61 -24.707,16.45 -39.699,16.45 l 0.82,-0.03 -155.652,7.75 0,-366.906 108.718,0 0,16.571 c 0.02,-0.133 2.997,-16.571 2.997,-16.571 l 109.066,0 c 0,0 -23.441,136.836 -26.168,152.719 10.27,10.406 16.355,24.324 16.355,39.25 z m 533.482,261.217 -113.63,-18.22 c 0,0 -11.26,-42.91 -19.77,-75.34 -7.29,27.83 -18.12,69.11 -18.12,69.11 l -126.11,-9.9 c 0,0 76.97,-276.031 78.16,-280.308 0,-4.426 0,-218.735 0,-218.735 l 125.37,-12.328 c 0,0 0,210.012 0,214.719 1.36,4.558 100.06,335.162 100.06,335.162 l -25.96,-4.16 z m -1036.622,-15.83 0,-108.51 c 0,0 50.367,-6.04 68.406,-8.21 0,-27.24 0,-413.171 0,-413.171 l 125.367,12.328 c 0,0 0,352.053 0,385.803 19.168,-2.3 66.328,-7.96 66.328,-7.96 l 0,127.12 -259.546,31.14 -0.555,-18.54"
         id="path74"
         style="fill:#231f20;fill-opacity:1;fill-rule:nonzero;stroke:none" /><g
         id="g76"><path
           d="m 1039.26,1089.71 0.5,0.01 c -30.96,0 -56.151,-25.19 -56.151,-56.15 l 0,-302.765 154.831,0 c 30.95,0 56.14,25.191 56.14,56.148 l 0,307.387 -17.01,-0.5 -138.31,-4.13 z m -83.862,-165.417 0,111.077 c 0,14.99 -5.84,29.09 -16.437,39.69 -10.606,10.61 -24.707,16.45 -39.699,16.45 l 0.82,-0.03 -155.652,7.75 0,-366.906 108.718,0 0,16.571 c 0.02,-0.133 2.996,-16.571 2.996,-16.571 l 109.067,0 c 0,0 -23.442,136.836 -26.168,152.719 10.269,10.406 16.355,24.324 16.355,39.25 z m 533.482,261.217 -113.63,-18.22 c 0,0 -11.26,-42.91 -19.77,-75.34 -7.29,27.83 -18.12,69.11 -18.12,69.11 l -126.11,-9.9 c 0,0 76.97,-276.031 78.16,-280.308 0,-4.426 0,-218.735 0,-218.735 l 125.37,-12.328 c 0,0 0,210.012 0,214.719 1.36,4.558 100.06,335.162 100.06,335.162 l -25.96,-4.16 z m -1036.622,-15.83 0,-108.51 c 0,0 50.367,-6.04 68.406,-8.21 0,-27.24 0,-413.171 0,-413.171 l 125.367,12.328 c 0,0 0,352.053 0,385.803 19.168,-2.3 66.328,-7.96 66.328,-7.96 l 0,127.12 -259.547,31.14 -0.554,-18.54 z"
           id="path78"
           style="fill:none;stroke:#231f20;stroke-width:27.51980019;stroke-linecap:butt;stroke-linejoin:miter;stroke-miterlimit:2.61310005;stroke-opacity:1;stroke-dasharray:none" /></g><path
         d="m 1563.69,1234.02 -2.28,-0.37 0,-7.26 c 1.47,4.9 2.28,7.63 2.28,7.63"
         id="path80"
         style="fill:#6f7980;fill-opacity:1;fill-rule:nonzero;stroke:none" /><path
         d="m 415.777,1204.34 -1.019,-34.34 0,-140.57 c 0,0 48.492,-5.82 68.406,-8.21 0,-35.482 0,-420.9 0,-420.9 l 196.914,19.364 c 0,0 0,334.504 0,377.906 6.711,-0.805 16.676,-1.996 26.848,-3.219 l 0,-297.824 c 0,0 202.887,0 239.183,0 0,-0.195 0,-1.516 0,-1.516 l 190.611,0 c 50.68,0 91.91,41.239 91.91,91.922 l 0,162.504 c 12.93,-46.367 22.76,-81.617 23.28,-83.5 0,-5.867 0,-246.273 0,-246.273 l 196.92,-19.364 c 0,0 0,242.711 0,248.965 1.67,5.578 96.63,323.655 112.58,377.105 l 0,7.26 -32.32,-5.18 -21.63,-3.47 -138.65,-22.23 c -14.94,-15.64 -31.7,-32.09 -50.73,-49.5 l -37.59,-34.4 0.72,50.95 -0.05,0.76 0,5.74 0.14,0.47 c 0,0 0.09,6.57 0.23,15.91 -52.29,-4.11 -118.14,-9.27 -118.14,-9.27 0,0 6.05,-21.7 14.98,-53.72 l -141.89,-4.24 0,-0.13 c -27.26,-0.47 -51.394,-12.98 -67.945,-32.29 -1.992,2.45 -3.742,5.05 -6.004,7.31 -16.746,16.75 -39.133,26.26 -63.031,26.77 l 0.629,0.09 -153.723,7.64 0,53.95 -84.89,10.19 c 0.523,-35.23 1.109,-74.62 1.109,-74.62 l -37.602,28.89 c -22.117,20.23 -41.218,39.19 -57.871,57.05 l -150.656,18.08 -0.719,-24.06"
         id="path82"
         style="fill:#6f7980;fill-opacity:1;fill-rule:nonzero;stroke:none" /><path
         d="m 1037.13,1103.46 0.9,0.02 c -38.546,0 -69.901,-31.36 -69.901,-69.91 l 0,-246.843 c -7.168,41.828 -15.168,88.503 -16.199,94.55 9.867,12.364 15.508,27.266 15.508,43.016 l 0,111.077 c 0,18.66 -7.274,36.22 -20.477,49.42 -12.836,12.84 -29.824,19.94 -47.926,20.33 0,0.01 0.004,0.11 0.004,0.11 l -170.094,8.46 0,-395.127 239.184,0 0,-1.516 168.591,0 c 38.53,0 69.89,31.355 69.89,69.906 l 0,321.567 -14.16,-0.42 -155.32,-4.64 z m 473.81,99.8 -25.96,-4.17 -122.48,-19.63 c 0,0 -5.89,-22.46 -8.74,-33.28 -1.88,7.17 -7.74,29.5 -7.74,29.5 l -154.24,-12.11 c 0,0 81.15,-291.019 82.15,-294.601 0,-3.703 0,-229.324 0,-229.324 l 152.89,-15.036 c 0,0 0,223.95 0,227.891 1.13,3.809 105.75,354.23 105.75,354.23 l -21.63,-3.47 z m -1073.608,-14.63 -0.559,-18.95 0,-120.72 c 0,0 51.993,-6.24 68.407,-8.21 0,-22.99 0,-416.141 0,-416.141 l 152.883,15.036 c 0,0 0,354.183 0,382.765 18.16,-2.18 66.328,-7.96 66.328,-7.96 l 0,154.83 -286.61,34.39 -0.449,-15.04"
         id="path84"
         style="fill:#231f20;fill-opacity:1;fill-rule:nonzero;stroke:none" /><path
         d="m 1039.26,1089.71 0.5,0.01 c -30.96,0 -56.151,-25.19 -56.151,-56.15 l 0,-302.765 154.831,0 c 30.95,0 56.13,25.191 56.13,56.148 l 0,307.387 -17,-0.5 -138.31,-4.13 z m -83.858,-165.417 0,111.077 c 0,14.99 -5.847,29.09 -16.441,39.69 -10.606,10.61 -24.707,16.45 -39.699,16.45 l 0.82,-0.03 -155.652,7.75 0,-366.906 108.718,0 0,16.571 c 0.02,-0.133 2.997,-16.571 2.997,-16.571 l 109.062,0 c 0,0 -23.437,136.836 -26.164,152.719 10.273,10.406 16.359,24.324 16.359,39.25 z m 533.478,261.217 -113.63,-18.22 c 0,0 -11.26,-42.91 -19.77,-75.34 -7.3,27.83 -18.12,69.11 -18.12,69.11 l -126.11,-9.9 c 0,0 76.96,-276.031 78.16,-280.308 0,-4.426 0,-218.735 0,-218.735 l 125.36,-12.328 c 0,0 0,210.012 0,214.719 1.37,4.558 100.07,335.162 100.07,335.162 l -25.96,-4.16 z m -1036.622,-15.83 0,-108.51 c 0,0 50.367,-6.04 68.406,-8.21 0,-27.24 0,-413.171 0,-413.171 l 125.367,12.328 c 0,0 0,352.053 0,385.803 19.168,-2.3 66.328,-7.96 66.328,-7.96 l 0,127.12 -259.546,31.14 -0.555,-18.54"
         id="path86"
         style="fill:#ae1d4d;fill-opacity:1;fill-rule:nonzero;stroke:none" /><path
         d="m 696.035,1142.43 -115.359,13.84 -111.16,13.34 -0.551,0.07 0,-93.6 37.773,39.26 -0.156,0.23 74.027,-8.8 0.008,0 0.012,-0.01 0.047,0 80.277,-9.55 c 0,0 -0.012,0.02 -0.012,0.02 l 35.094,45.11 0,0.09"
         id="path88"
         style="fill:#ffffff;fill-opacity:1;fill-rule:nonzero;stroke:none" /><path
         d="m 506.582,1115.57 0.156,-0.23 -37.773,-39.26 0,-0.26 68.406,-8.21 0,-0.19 43.238,39.35 -74.027,8.8"
         id="path90"
         style="fill:#8b959f;fill-opacity:1;fill-rule:nonzero;stroke:none" /><path
         d="m 580.676,1106.76 0,-0.05 49.176,-50.2 66.183,-7.94 0,0.2 c -10.914,16.25 -34.855,48.14 -35.082,48.44 l -80.277,9.55"
         id="path92"
         style="fill:#8b959f;fill-opacity:1;fill-rule:nonzero;stroke:none" /><path
         d="m 660.941,1097.23 c 0,0 0.012,-0.02 0.012,-0.02 0.227,-0.3 24.168,-32.19 35.082,-48.44 l 0,93.57 -35.094,-45.11"
         id="path94"
         style="fill:#b5b9c4;fill-opacity:1;fill-rule:nonzero;stroke:none" /><path
         d="m 580.676,709 0.027,0.027 49.008,-41.586 0,389.089 0.141,-0.02 -49.176,50.2 0,-397.71"
         id="path96"
         style="fill:#b5b9c4;fill-opacity:1;fill-rule:nonzero;stroke:none" /><path
         d="m 580.676,1106.71 -0.047,0.05 -0.02,0.01 -43.238,-39.35 0,-409.416 0.301,0.023 43.004,50.973 0,397.71"
         id="path98"
         style="fill:#ffffff;fill-opacity:1;fill-rule:nonzero;stroke:none" /><path
         d="m 580.703,709.027 -0.027,-0.027 -43.004,-50.973 43.004,4.239 49.035,4.82 0,0.355 -49.008,41.586"
         id="path100"
         style="fill:#8b959f;fill-opacity:1;fill-rule:nonzero;stroke:none" /><path
         d="m 831.066,1002.45 -38.199,39.52 -0.086,0 0,-131.115 38.285,31.911 0,59.684"
         id="path102"
         style="fill:#b5b9c4;fill-opacity:1;fill-rule:nonzero;stroke:none" /><path
         d="m 897.816,938.668 0,67.942 c 0,8.82 -2.968,16.74 -7.66,22.25 l -27.254,-26.32 c 2.2,-1.41 3.668,-3.852 3.668,-6.657 l 0,-45.266 c 0,-4.367 -3.535,-7.91 -7.906,-7.91 l -27.598,0 0,0.059 -38.285,-31.911 0,-0.105 92.328,0 c 6.215,5.496 12.707,17.578 12.707,27.918"
         id="path104"
         style="fill:#ffffff;fill-opacity:1;fill-rule:nonzero;stroke:none" /><path
         d="m 947.133,749.207 -41.957,31.285 -0.004,-0.008 -33.274,-31.648 75.297,0 -0.062,0.371"
         id="path106"
         style="fill:#8b959f;fill-opacity:1;fill-rule:nonzero;stroke:none" /><path
         d="m 831.066,1003.79 27.598,0 c 1.566,0 3.016,-0.47 4.238,-1.25 l 27.254,26.32 c -4.156,4.88 -9.668,7.88 -15.734,7.88 l -81.555,5.23 38.199,-39.52 0,1.34"
         id="path108"
         style="fill:#8b959f;fill-opacity:1;fill-rule:nonzero;stroke:none" /><path
         d="m 792.781,779.039 0.082,0.078 45.34,-30.168 0,127.457 0.098,0 -45.52,34.305 0,-131.672"
         id="path110"
         style="fill:#b5b9c4;fill-opacity:1;fill-rule:nonzero;stroke:none" /><path
         d="m 884.883,910.523 c 0.074,0.063 0.152,0.157 0.226,0.227 l -92.328,0 0,-0.039 45.52,-34.305 9.617,0 36.984,33.973 -0.019,0.144"
         id="path112"
         style="fill:#8b959f;fill-opacity:1;fill-rule:nonzero;stroke:none" /><path
         d="m 897.816,1006.61 0,-67.942 c 0,-10.34 -6.492,-22.422 -12.707,-27.918 l 0.2,0 0.691,0.633 -0.691,-0.633 1.41,0 -1.41,0 -0.407,-0.371 20.27,-129.895 0.004,0.008 41.957,-31.285 -24.344,142.106 c 10.652,7.105 17.668,19.222 17.668,32.98 l 0,111.077 c 0,11.68 -5.082,22.14 -13.121,29.4 l -37.18,-35.91 c 4.692,-5.51 7.66,-13.43 7.66,-22.25"
         id="path114"
         style="fill:#b5b9c4;fill-opacity:1;fill-rule:nonzero;stroke:none" /><path
         d="m 884.902,910.379 -36.984,-33.973 0.496,0 23.094,-127.57 0.39,0 33.274,31.648 -20.27,129.895"
         id="path116"
         style="fill:#ffffff;fill-opacity:1;fill-rule:nonzero;stroke:none" /><path
         d="m 791.086,910.75 1.648,0 -0.046,0.031 0.093,0.074 0,131.115 0.086,0 0,0 81.555,-5.23 c 6.066,0 11.578,-3 15.734,-7.88 l 37.18,35.91 c -7.027,6.34 -16.301,10.23 -26.508,10.23 l -138.316,6.88 0,-333.044 0.234,0 30.035,30.203 0,131.672 -0.047,0.039 -1.648,0"
         id="path118"
         style="fill:#ffffff;fill-opacity:1;fill-rule:nonzero;stroke:none" /><path
         d="m 792.863,779.117 -0.082,-0.078 -30.035,-30.203 75.457,0 0,0.113 -45.34,30.168"
         id="path120"
         style="fill:#8b959f;fill-opacity:1;fill-rule:nonzero;stroke:none" /><path
         d="m 1039.95,1073.21 c -10.45,0 -19.91,-4.07 -27,-10.67 -7.75,-7.24 -12.64,-17.52 -12.64,-28.97 l 0,-286.254 0.04,0 34.71,34.399 0,225.415 c 0,9.92 3.59,18.73 9.17,24.45 4.12,4.22 9.32,6.77 14.98,6.77 l 84.01,3.24 35.04,35.04 0,0.71 -138.31,-4.13"
         id="path122"
         style="fill:#ffffff;fill-opacity:1;fill-rule:nonzero;stroke:none" /><path
         d="m 1119.36,781.672 -84.3,0 0,0.043 -34.71,-34.399 138.28,0 c 8.95,0 17.17,3 23.81,8.008 l -30.91,30.625 c -3.58,-2.707 -7.73,-4.277 -12.17,-4.277"
         id="path124"
         style="fill:#8b959f;fill-opacity:1;fill-rule:nonzero;stroke:none" /><path
         d="m 1178.26,786.953 0,289.677 -35.04,-35.04 0.29,0.01 0,-228.713 c 0,-11.496 -4.82,-21.524 -11.98,-26.938 l 30.91,-30.625 c 9.59,7.231 15.82,18.688 15.82,31.629"
         id="path126"
         style="fill:#b5b9c4;fill-opacity:1;fill-rule:nonzero;stroke:none" /><path
         d="m 1067.89,814.277 0,170.653 c 0,6.34 2.55,12.074 6.66,16.28 -6.35,6.5 -18.28,18.42 -30.32,30.37 -5.58,-5.72 -9.17,-14.53 -9.17,-24.45 l 0,-225.415 32.88,32.562 -0.05,0"
         id="path128"
         style="fill:#b5b9c4;fill-opacity:1;fill-rule:nonzero;stroke:none" /><path
         d="m 1044.23,1031.58 c 12.04,-11.95 23.97,-23.87 30.32,-30.37 4.23,4.32 10.11,7.01 16.63,7.01 l 17.99,0 0,-0.69 34.05,34.06 -84.01,-3.24 c -5.66,0 -10.86,-2.55 -14.98,-6.77"
         id="path130"
         style="fill:#8b959f;fill-opacity:1;fill-rule:nonzero;stroke:none" /><path
         d="m 1109.17,837.57 c 0,-8.035 -4.07,-15.121 -10.26,-19.308 l 32.62,-32.313 c 7.16,5.414 11.98,15.442 11.98,26.938 l 0,228.713 -0.29,-0.01 -34.05,-34.06 0,-169.96"
         id="path132"
         style="fill:#ffffff;fill-opacity:1;fill-rule:nonzero;stroke:none" /><path
         d="m 1085.88,814.277 -17.94,0 -32.88,-32.562 0,-0.043 84.3,0 c 4.44,0 8.59,1.57 12.17,4.277 l -32.62,32.313 c -3.72,-2.516 -8.21,-3.985 -13.03,-3.985"
         id="path134"
         style="fill:#ffffff;fill-opacity:1;fill-rule:nonzero;stroke:none" /><path
         d="m 1355.01,877.5 0,151.93 -29.92,114.03 -34.25,-45.36 64.17,-220.6"
         id="path136"
         style="fill:#b5b9c4;fill-opacity:1;fill-rule:nonzero;stroke:none" /><path
         d="m 1440.04,1160.93 -51.19,-8.21 -0.17,-0.02 -33,-125.82 -0.67,2.55 0,-151.93 71.58,238.6 0.11,-0.1 64.68,53.16 -51.34,-8.23"
         id="path138"
         style="fill:#ffffff;fill-opacity:1;fill-rule:nonzero;stroke:none" /><path
         d="m 1491.38,1169.16 -64.68,-53.16 -0.11,0.1 -71.58,-238.6 43.57,-20.18 93.11,311.89 -0.31,-0.05"
         id="path140"
         style="fill:#8b959f;fill-opacity:1;fill-rule:nonzero;stroke:none" /><path
         d="m 1355.01,712.98 0.35,0.321 43.1,-55.051 0,198.676 0.12,0.394 -43.57,20.18 0,-164.52"
         id="path142"
         style="fill:#b5b9c4;fill-opacity:1;fill-rule:nonzero;stroke:none" /><path
         d="m 1290.84,1098.1 34.25,45.36 -0.01,0.06 -46.39,-3.64 -45.95,-3.61 0,-0.01 73.38,-263.151 0,-205.921 48.89,45.792 0,164.52 -64.17,220.6"
         id="path144"
         style="fill:#ffffff;fill-opacity:1;fill-rule:nonzero;stroke:none" /><path
         d="m 1355.36,713.301 -0.35,-0.321 -48.89,-45.792 0,-0.102 48.89,-4.813 43.45,-4.269 0,0.246 -43.1,55.051"
         id="path146"
         style="fill:#8b959f;fill-opacity:1;fill-rule:nonzero;stroke:none" /><path
         d="m 1808.63,643.754 -434.98,0 0,-65.309 c -126.09,48.461 -267.8,74.262 -413.998,74.262 -142.683,0 -281.605,-24.754 -405.742,-71.215 l 0,62.262 -434.976,0 134.664,-186.102 135.382,0 79.446,-129.66 7.105,4.602 c 130.707,84.625 302.641,131.238 484.121,131.238 186.088,0 361.238,-48.738 493.188,-137.246 l 7,-4.688 87.32,135.754 126.8,0 134.67,186.102"
         id="path148"
         style="fill:#231f20;fill-opacity:1;fill-rule:nonzero;stroke:none" /><path
         d="m 262.203,476.375 c -4.449,6.152 -94.219,130.211 -110.262,152.391 l 371.903,0 -147.957,-133.715 -6.235,-3.992 8.996,-14.684 -116.445,0 z m 182.067,58.219 c 35.179,31.789 79.05,71.437 92.781,83.847 l 0,-41.562 c -32.039,-12.637 -63.02,-26.762 -92.781,-42.285"
         id="path150"
         style="fill:#ae1d4d;fill-opacity:1;fill-rule:nonzero;stroke:none" /><path
         d="m 1548.72,476.375 9,14.684 -6.23,3.992 -147.95,133.715 371.9,0 c -16.05,-22.18 -105.81,-146.239 -110.27,-152.391 l -116.45,0 z m -158.4,100.504 0,41.562 c 13.74,-12.41 57.61,-52.058 92.79,-83.847 -29.77,15.523 -60.75,29.648 -92.79,42.285"
         id="path152"
         style="fill:#ae1d4d;fill-opacity:1;fill-rule:nonzero;stroke:none" /><path
         d="m 1537.01,476.551 c -7.73,4.988 -15.56,9.851 -23.5,14.625 -38.67,23.23 -79.82,43.84 -123,61.687 -0.06,0.02 -0.12,0.047 -0.17,0.071 -5.48,2.261 -10.98,4.476 -16.52,6.648 -0.05,0.027 -0.11,0.047 -0.17,0.07 -125.66,49.266 -267.48,75.578 -413.998,75.578 -142.984,0 -282.011,-25.218 -405.742,-72.449 -0.055,-0.023 -0.121,-0.043 -0.172,-0.062 -5.539,-2.114 -11.043,-4.278 -16.511,-6.481 -0.055,-0.019 -0.118,-0.043 -0.176,-0.062 -45.84,-18.453 -89.473,-39.969 -130.27,-64.399 -4.875,-2.922 -9.711,-5.879 -14.504,-8.879 0.782,-1.273 2.246,-3.66 4.192,-6.835 l 1.543,-2.52 c 2.769,-4.523 6.304,-10.289 10.332,-16.859 22.441,-36.629 60.125,-98.125 65.5,-106.907 132.449,83.485 304.426,129.602 485.808,129.602 186.068,0 361.508,-48.133 495.298,-135.516 6.06,9.426 50.43,78.383 72.58,112.821 4.93,7.683 8.78,13.656 10.83,16.859 l -1.35,3.008"
         id="path154"
         style="fill:#ae1d4d;fill-opacity:1;fill-rule:nonzero;stroke:none" /><path
         d="m 520.621,498.508 31.692,-72.578 -20.215,-8.832 -31.692,72.578 -39.746,-17.363 -6.941,15.902 99.875,43.621 6.941,-15.898 -39.914,-17.43"
         id="path156"
         style="fill:#ffffff;fill-opacity:1;fill-rule:nonzero;stroke:none" /><path
         d="m 668.066,548.445 -47.695,-13.078 7.102,-25.875 47.695,13.078 c 3.676,1.004 6.043,2.235 7.094,3.692 1.054,1.457 1.207,3.566 0.453,6.328 l -3.07,11.18 c -0.739,2.695 -1.934,4.398 -3.586,5.117 -1.649,0.715 -4.317,0.562 -7.993,-0.442 z m -47.644,-95.785 -25.539,93.153 78.144,21.429 c 7.215,1.977 12.832,1.977 16.852,0 4.016,-1.976 6.898,-6.156 8.656,-12.523 l 5.981,-21.828 c 1.714,-6.258 1.343,-11.266 -1.106,-15.02 -2.445,-3.75 -7.281,-6.613 -14.496,-8.594 l -11.898,-3.261 51.664,-23.672 -30.422,-8.336 -46.36,25.117 -20.078,-5.504 9.645,-35.187 -21.043,-5.774"
         id="path158"
         style="fill:#ffffff;fill-opacity:1;fill-rule:nonzero;stroke:none" /><path
         d="m 783.332,509.113 71.988,8.594 -7.238,60.625 -71.988,-8.598 7.238,-60.621 z m -28.629,52.457 c -1.043,8.735 -0.144,14.907 2.699,18.508 2.84,3.598 8.852,5.949 18.055,7.047 l 69.059,8.246 c 9.097,1.082 15.429,0.207 19,-2.625 3.57,-2.832 5.879,-8.617 6.925,-17.355 l 6.028,-50.473 c 1.039,-8.711 0.156,-14.836 -2.656,-18.371 -2.813,-3.535 -8.762,-5.848 -17.856,-6.934 l -69.062,-8.246 c -9.2,-1.094 -15.598,-0.262 -19.196,2.508 -3.605,2.766 -5.926,8.512 -6.961,17.227 l -6.035,50.468"
         id="path160"
         style="fill:#ffffff;fill-opacity:1;fill-rule:nonzero;stroke:none" /><path
         d="m 941.914,503.418 c -9.258,-0.004 -15.5,1.594 -18.742,4.805 -3.25,3.203 -4.867,9.226 -4.867,18.074 l -0.004,19.965 22.355,4.285 0.008,-28.895 43.004,0.004 -0.016,78.438 22.018,0.004 0.01,-73.785 c 0,-8.848 -1.63,-14.879 -4.87,-18.083 -3.247,-3.203 -9.435,-4.8 -18.56,-4.804 l -40.336,-0.008"
         id="path162"
         style="fill:#ffffff;fill-opacity:1;fill-rule:nonzero;stroke:none" /><path
         d="m 1078.45,535.879 41.17,-5.027 -15.52,41.562 -25.65,-36.535 z m -46.72,-33.008 64.86,89.367 21.08,-2.566 42.21,-102.43 -24.55,2.992 -8.73,22.336 -59.59,7.266 -13.5,-19.621 -21.78,2.656"
         id="path164"
         style="fill:#ffffff;fill-opacity:1;fill-rule:nonzero;stroke:none" /><path
         d="m 1191.89,480.52 25.24,93.3 14.49,-3.918 49.32,-72.363 c 1.69,-2.414 3.15,-4.66 4.37,-6.73 1.23,-2.063 2.3,-4.137 3.23,-6.219 1.06,5.332 1.84,9.105 2.31,11.316 0.47,2.211 0.87,3.895 1.19,5.071 l 13.25,48.996 19.21,-5.2 -25.24,-93.3 -14.49,3.918 -51.36,75.754 c -1.21,1.906 -2.27,3.617 -3.15,5.117 -0.89,1.504 -1.69,3.011 -2.38,4.527 -0.5,-2.957 -1.01,-5.742 -1.56,-8.34 -0.55,-2.601 -1.08,-4.844 -1.58,-6.722 l -13.64,-50.407 -19.21,5.2"
         id="path166"
         style="fill:#ffffff;fill-opacity:1;fill-rule:nonzero;stroke:none" /><path
         d="m 1454.7,472.234 -56.15,25.829 -8.66,-18.833 53.47,-24.605 c 8.42,-3.867 13.44,-7.941 15.05,-12.227 1.62,-4.285 0.6,-10.39 -3.05,-18.328 l -5.54,-12.05 c -3.69,-8.008 -7.69,-12.809 -12,-14.395 -4.32,-1.59 -10.69,-0.445 -19.11,3.422 l -52.98,24.383 c -8.43,3.879 -13.46,7.976 -15.06,12.293 -1.61,4.308 -0.57,10.472 3.12,18.484 l 1.11,2.422 19.37,-4.352 -4.81,-10.441 60.77,-27.961 9.21,20.027 -53.53,24.633 c -8.34,3.832 -13.3,7.887 -14.87,12.153 -1.58,4.269 -0.54,10.378 3.12,18.328 l 4.46,9.699 c 3.68,7.98 7.65,12.773 11.92,14.363 4.28,1.594 10.59,0.473 18.92,-3.363 l 48.68,-22.399 c 8.07,-3.714 12.99,-7.683 14.74,-11.921 1.76,-4.235 0.98,-9.961 -2.33,-17.168 l -0.84,-1.817 -19.57,3.891 4.56,9.933"
         id="path168"
         style="fill:#ffffff;fill-opacity:1;fill-rule:nonzero;stroke:none" /><path
         d="m 1565.55,433.004 0,-20.469 -5.93,0 0,20.469 -11.78,0 0,4.469 29.49,0 0,-4.469 -11.78,0"
         id="path170"
         style="fill:#231f20;fill-opacity:1;fill-rule:nonzero;stroke:none" /><path
         d="m 1585.82,412.535 0,24.938 4.73,0 11.96,-14.797 11.88,14.797 4.79,0 0,-24.938 -5.5,0 0,17.16 -10.92,-14.168 -1.15,0 -11.06,13.766 0,-16.758 -4.73,0"
         id="path172"
         style="fill:#231f20;fill-opacity:1;fill-rule:nonzero;stroke:none" /></g></g></svg>