<?xml version="1.0" encoding="UTF-8" standalone="no"?>
<!-- Created with Inkscape (http://www.inkscape.org/) -->

<svg
   xmlns:dc="http://purl.org/dc/elements/1.1/"
   xmlns:cc="http://creativecommons.org/ns#"
   xmlns:rdf="http://www.w3.org/1999/02/22-rdf-syntax-ns#"
   xmlns:svg="http://www.w3.org/2000/svg"
   xmlns="http://www.w3.org/2000/svg"
   version="1.1"
   width="280"
   height="200"
   viewBox="0 0 280 200"
   id="Layer_1"
   xml:space="preserve"><metadata
     id="metadata107"><rdf:RDF><cc:Work
         rdf:about=""><dc:format>image/svg+xml</dc:format><dc:type
           rdf:resource="http://purl.org/dc/dcmitype/StillImage" /><dc:title></dc:title></cc:Work></rdf:RDF></metadata><defs
     id="defs105" /><g
     transform="matrix(1.0375812,0,0,1.0375812,42,0)"
     id="g3"><polygon
       points="0,192.756 0,0 0,0 192.756,0 192.756,192.756 "
       id="polygon5"
       style="fill:#ffffff;fill-rule:evenodd" /><path
       d="m 119.953,8.504 2.664,10.189 c 0.666,3.396 1.199,6.992 1.598,10.789 1.199,12.121 0.732,23.975 -1.332,35.629 -1.664,-0.933 -3.33,-1.665 -5.061,-2.265 L 117.623,62.78 91.45,58.118 c -3.996,-0.533 -7.925,-0.333 -11.987,0.799 -2.597,0.666 -5.527,1.865 -8.724,3.53 L 58.817,59.45 c -1.665,-0.533 -3.596,-0.866 -5.86,-0.866 -2.863,0.067 -5.527,0.6 -7.991,1.665 -4.729,2.064 -8.191,5.727 -10.189,11.055 -2.864,7.525 -2.864,13.652 -0.2,18.381 l 0.866,1.265 c -5.128,4.529 -9.39,9.724 -12.787,15.717 -4.195,7.525 -6.793,16.05 -7.792,25.507 l -0.2,4.195 c 0,5.261 0.999,10.39 2.93,15.317 1.998,4.995 4.795,9.523 8.591,13.652 5.395,5.928 12.054,10.589 20.046,13.919 7.925,3.329 16.316,4.994 25.107,4.994 9.79,-0.066 19.446,-1.998 29.102,-5.86 7.26,-2.863 14.252,-6.727 20.912,-11.588 h 28.504 c 5.26,0 9.457,-2.131 12.719,-6.459 1.266,-1.666 2.465,-3.797 3.598,-6.261 l 2.662,-6.727 9.258,-29.235 h -40.291 c 1.398,-1.199 2.73,-2.465 3.93,-3.729 l 2.064,0.399 c 4.529,0.933 8.324,1.065 11.389,0.466 5.66,-0.999 9.922,-4.328 12.852,-9.789 1.133,-2.331 1.732,-4.662 1.732,-7.192 0,-2.065 -0.4,-4.129 -1.266,-6.061 -1.664,-3.663 -4.195,-5.994 -7.658,-6.859 L 156.849,84.29 C 160.113,70.771 159.98,58.185 156.316,46.463 153.92,38.738 150.123,31.812 144.929,25.885 139.667,19.891 133.275,15.03 125.681,11.3 l -5.728,-2.796 0,0 z"
       id="path7"
       style="fill:#a49e78;fill-rule:evenodd" /><path
       d="m 124.414,13.832 c 6.461,3.196 12.055,7.259 16.717,12.187 4.662,4.928 8.258,10.522 10.855,16.783 5.328,13.12 5.793,27.638 1.332,43.554 l 6.793,1.798 c 1.332,0.333 2.529,0.999 3.662,2.064 1,1.065 1.799,2.331 2.398,3.863 1.264,3.397 1.064,6.726 -0.666,10.056 -2.531,4.861 -6.328,7.725 -11.455,8.458 -2.465,0.399 -5.928,0.133 -10.256,-0.666 l -2.998,-0.6 c -3.262,3.596 -7.125,6.727 -11.586,9.391 h 45.484 l -6.393,19.579 c -1.6,4.861 -2.998,8.524 -3.996,10.988 -1.332,3.13 -2.598,5.527 -3.863,7.259 -1.398,1.865 -2.93,3.13 -4.596,3.996 -1.73,0.799 -3.795,1.199 -6.26,1.199 h -28.902 c -6.525,4.794 -13.318,8.724 -20.445,11.654 -9.656,3.995 -19.246,5.927 -28.902,5.993 -7.526,0 -14.651,-1.266 -21.577,-3.796 -6.726,-2.465 -12.587,-5.928 -17.648,-10.39 -5.128,-4.528 -8.924,-9.723 -11.455,-15.517 -2.597,-6.127 -3.596,-12.521 -2.93,-19.246 0.932,-9.656 3.796,-18.381 8.458,-26.039 3.597,-5.861 8.059,-10.855 13.52,-15.185 -2.064,-1.598 -3.33,-3.729 -3.93,-6.393 -0.732,-3.463 -0.2,-7.592 1.666,-12.521 2.064,-5.46 5.793,-8.923 11.055,-10.255 1.932,-0.533 3.863,-0.666 5.861,-0.533 1.598,0.067 2.797,0.333 3.729,0.666 l 12.986,3.33 c 3.263,-1.731 6.06,-2.931 8.391,-3.597 3.996,-1.198 7.858,-1.531 11.654,-0.932 l 0,0 25.84,4.595 c 3.195,0.999 5.793,2.598 7.791,4.662 4.596,-20.776 4.463,-39.556 -0.334,-56.405 l 0,0 z"
       id="path9"
       style="fill:#366c3f;fill-rule:evenodd" /><path
       d="m 51.825,66.177 c -1.731,-0.4 -3.462,0.133 -5.194,1.598 -1.665,1.465 -2.997,3.596 -4.062,6.327 -1.132,2.73 -1.465,5.328 -1.132,7.726 0.399,2.397 1.332,3.862 2.863,4.528 l 1.532,0.2 0.133,0.067 c 2.131,-0.133 4.129,-1.465 6.061,-4.129 l 17.382,3.396 0.666,-0.732 c 0.732,-0.8 1.398,-1.865 2.064,-3.264 l 0.666,-1.665 0.333,-1.065 0.067,-0.6 -18.048,-4.262 c 0.267,-1.998 0.066,-3.729 -0.466,-5.194 -0.533,-1.532 -1.399,-2.464 -2.598,-2.864 l -0.267,-0.067 0,0 z"
       id="path11"
       style="fill:#a49e78;fill-rule:evenodd" /><path
       d="m 159.111,99.142 0.201,-0.732 -10.057,-2.198 h -0.133 l -0.068,0.067 c -1.197,2.064 -2.33,3.929 -3.461,5.461 l -0.135,0.133 9.99,2.265 c 1.466,-1 2.665,-2.665 3.663,-4.996 l 0,0 z"
       id="path13"
       style="fill:#a49e78;fill-rule:evenodd" /><path
       d="m 45.964,86.622 15.384,2.797 c 3.196,-0.267 5.927,-1.399 8.058,-3.53 L 52.024,82.493 c -1.93,2.664 -3.928,3.996 -6.06,4.129 l 0,0 z"
       id="path15"
       style="fill-rule:evenodd" /><path
       d="m 128.277,85.556 4.262,1.066 c 8.258,-22.377 8.393,-42.755 0.4,-60.937 3.065,22.311 1.465,42.29 -4.662,59.871 l 0,0 z"
       id="path17"
       style="fill-rule:evenodd" /><path
       d="m 155.449,104.137 -9.99,-2.265 -2.131,2.598 7.592,1.398 c 1.799,-0.266 3.33,-0.865 4.529,-1.731 l 0,0 z"
       id="path19"
       style="fill-rule:evenodd" /><path
       d="m 101.771,82.559 c -4.527,1.066 -7.258,0.333 -8.057,-2.197 l -0.466,0.799 c -0.533,0.666 -1.132,1.265 -1.732,1.731 -2.131,1.731 -4.861,2.397 -8.124,2.064 0.333,2.397 2.131,5.194 5.394,8.258 -11.521,1.265 -21.11,5.794 -28.769,13.586 2.597,-1.599 5.328,-3.063 8.258,-4.329 11.122,-4.928 20.845,-5.194 29.103,-0.732 -0.133,-2.465 1.598,-4.396 5.195,-5.661 -1.332,-0.2 -2.664,-0.732 -3.93,-1.531 -1.332,-0.799 -2.398,-1.731 -3.197,-2.931 -0.866,-1.198 -1.266,-2.397 -1.199,-3.596 0,-1.332 0.666,-2.53 1.864,-3.596 3.73,1.065 7.127,2.73 10.057,4.928 3.264,2.464 4.994,4.862 5.061,7.193 l 0,0 c 0.068,0.532 0,0.999 -0.133,1.398 l -0.199,0.599 10.389,1.932 c -5.129,9.257 -9.457,16.184 -12.986,20.712 6.594,-5.928 12.32,-12.587 17.115,-19.979 l 1.332,0.267 c 2.33,0.066 4.395,-0.999 6.26,-3.263 l -16.85,-3.063 c -3.262,-1.266 -5.193,-2.864 -5.859,-4.929 -0.334,-1.065 -0.4,-1.931 -0.133,-2.73 -4.063,0.065 -6.86,-1.6 -8.394,-4.93 l 0,0 z"
       id="path21"
       style="fill-rule:evenodd" /><path
       d="m 54.689,69.107 c 0.532,1.465 0.732,3.196 0.466,5.194 l 18.048,4.262 c 0.266,-2.73 -0.799,-5.394 -3.33,-7.792 l -8.99,-2.264 -8.725,-2.198 c 1.132,0.334 1.998,1.266 2.531,2.798 l 0,0 z"
       id="path23"
       style="fill:#ffffff;fill-rule:evenodd" /><path
       d="m 48.295,157.015 c -3.196,-3.396 -5.394,-7.459 -6.526,-11.988 h -8.791 c 2.264,7.593 6.859,13.853 13.652,18.78 7.592,5.461 16.849,8.259 27.704,8.392 4.861,-0.133 9.39,-0.466 13.652,-1.198 8.524,-1.466 17.648,-4.462 27.171,-8.925 -13.387,4.329 -25.44,6.327 -36.229,6.127 -10.056,-0.199 -18.314,-2.397 -24.774,-6.459 h -7.592 l 1.733,-4.729 0,0 z"
       id="path25"
       style="fill:#a49e78;fill-rule:evenodd" /><path
       d="m 116.623,75.7 c 0.732,-2.931 -1.133,-4.795 -5.727,-5.794 -5.262,-1.132 -12.986,-2.198 -23.176,-3.33 -5.461,0.333 -9.457,1.532 -11.921,3.529 l 1.732,2.997 0.333,0.799 0.466,2.464 -0.067,2.397 -0.333,1.931 -0.533,1.732 -0.333,1.065 -1.132,2.331 -0.532,0.867 c -0.399,0.732 -0.999,1.465 -1.731,2.331 l -1.598,1.532 -1.199,0.933 -1.865,1.132 -0.932,0.467 h -0.067 c -2.198,0.932 -4.662,1.398 -7.259,1.398 l -7.392,5.128 c -3.796,2.663 -7.059,5.395 -9.657,7.991 -7.992,8.125 -12.054,17.515 -12.121,28.037 0,1.731 0.134,3.396 0.399,5.128 l 8.924,-6.26 c 0.933,-11.188 7.259,-20.445 19.114,-27.704 7.659,-7.792 17.248,-12.321 28.769,-13.586 -3.263,-3.063 -5.061,-5.86 -5.394,-8.258 3.263,0.333 5.993,-0.333 8.124,-2.064 0.6,-0.466 1.199,-1.065 1.732,-1.731 l 0.466,-0.799 c 0.799,2.531 3.53,3.263 8.057,2.197 1.533,3.33 4.33,4.995 8.393,4.928 -0.268,0.799 -0.201,1.665 0.133,2.73 0.666,2.064 2.598,3.663 5.859,4.929 l 16.85,3.063 c -1.865,2.264 -3.93,3.329 -6.26,3.263 l -1.332,-0.267 c -4.795,7.393 -10.521,14.052 -17.115,19.979 11.521,-4.662 20.379,-12.188 26.705,-22.644 l 4.662,-9.989 v -0.066 c 10.256,-26.905 7.992,-47.883 -6.727,-62.801 7.992,18.182 7.857,38.56 -0.4,60.937 l 1.266,0.333 c 1.332,0.333 2.199,1.265 2.598,2.93 l -12.586,-2.93 0.799,-2.331 0.066,-0.466 v -0.2 c 0.401,-4.396 -2.263,-7.192 -8.058,-8.258 l 0,0 z"
       id="path27"
       style="fill:#a49e78;fill-rule:evenodd" /><path
       d="m 91.583,75.101 c 0.533,-2.064 0.466,-3.463 -0.2,-4.062 -1.266,-1.265 -2.931,-1.398 -5.062,-0.466 0.799,2.064 0.799,4.462 0.133,7.193 0.333,0.932 1.132,1.265 2.464,0.999 1.2,-0.268 2.132,-1.467 2.665,-3.664 l 0,0 z"
       id="path29"
       style="fill:#ffffff;fill-rule:evenodd" /><path
       d="m 111.629,79.097 c 0.799,-2.064 0.932,-3.663 0.332,-4.662 -0.332,-0.599 -1.131,-0.999 -2.396,-1.332 l -2.264,-0.266 c 0.199,2.331 -0.533,4.995 -2.332,7.992 0.133,0.533 0.666,0.999 1.666,1.398 0.799,0.4 1.465,0.6 1.863,0.466 1.266,-0.267 2.332,-1.399 3.131,-3.596 l 0,0 z"
       id="path31"
       style="fill:#ffffff;fill-rule:evenodd" /><path
       d="m 113.561,86.888 c 0.398,0.466 0.932,0.732 1.531,0.866 1.73,0.333 3.264,-0.732 4.596,-3.263 0.732,-1.465 0.998,-2.597 0.732,-3.33 -0.334,-0.999 -1.6,-1.665 -3.93,-1.998 -0.199,1.931 -1.332,4.062 -3.264,6.459 -0.132,0.4 0.001,0.867 0.335,1.266 l 0,0 z"
       id="path33"
       style="fill:#ffffff;fill-rule:evenodd" /><path
       d="m 102.105,75.7 c 0.4,-1.865 0.266,-3.131 -0.334,-3.796 -0.398,-0.333 -1.93,-0.599 -4.66,-0.866 -0.134,3.396 -0.667,5.661 -1.533,6.926 0.866,1.398 2.197,1.798 4.062,1.265 1.2,-0.399 2.065,-1.598 2.465,-3.529 l 0,0 z"
       id="path35"
       style="fill:#ffffff;fill-rule:evenodd" /><path
       d="m 132.939,25.686 c 16.051,16.25 17.516,39.026 4.461,68.195 -5.66,12.654 -15.316,21.71 -29.102,27.305 5.328,-1.132 10.588,-3.197 15.783,-6.327 7.658,-4.528 13.652,-10.521 17.98,-17.848 17.584,-29.835 14.521,-53.611 -9.122,-71.325 l 0,0 z"
       id="path37"
       style="fill:#ffffff;fill-rule:evenodd" /><path
       d="m 133.805,86.955 -9.189,-2.331 -0.799,2.331 12.586,2.93 c -0.399,-1.665 -1.266,-2.598 -2.598,-2.93 l 0,0 z"
       id="path39"
       style="fill:#ffffff;fill-rule:evenodd" /><path
       d="m 159.111,94.88 c -0.531,-1 -1.199,-1.665 -2.131,-1.932 l -5.527,-1.332 -2.33,4.595 10.189,2.198 c 0.465,-1.199 0.399,-2.397 -0.201,-3.529 l 0,0 z"
       id="path41"
       style="fill:#ffffff;fill-rule:evenodd" /><path
       d="m 47.829,92.482 c -2.73,1.998 -4.595,3.396 -5.594,4.195 -2.73,2.265 -5.194,4.595 -7.259,7.06 -6.127,7.125 -9.989,15.517 -11.588,25.106 -1.132,7.325 -0.333,14.186 2.464,20.512 2.397,5.528 6.327,10.522 11.588,14.718 4.728,3.797 10.056,6.793 16.183,8.924 5.594,1.998 10.988,2.997 16.05,2.997 18.446,0 33.698,-4.661 45.485,-13.919 -11.188,5.262 -21.844,8.458 -31.833,9.657 -8.991,0.999 -17.182,0.399 -24.574,-1.932 -6.66,-2.064 -12.32,-5.461 -16.916,-10.056 -4.262,-4.263 -7.192,-9.191 -8.924,-14.719 h -7.06 l 6.127,-4.262 c -0.266,-1.731 -0.399,-3.396 -0.399,-5.128 0.066,-10.522 4.129,-19.912 12.121,-28.037 2.598,-2.597 5.86,-5.328 9.657,-7.991 l 7.392,-5.128 -5.261,-0.466 -7.659,-1.531 0,0 z"
       id="path43"
       style="fill-rule:evenodd" /><path
       d="m 51.759,148.023 -1.132,-2.997 H 41.77 c 1.132,4.529 3.33,8.592 6.526,11.988 l 3.463,-8.991 0,0 z"
       id="path45"
       style="fill:#ffffff;fill-rule:evenodd" /><path
       d="m 98.643,94.547 c 1.266,0.799 2.598,1.332 3.93,1.531 -3.598,1.266 -5.328,3.196 -5.195,5.661 -8.258,-4.462 -17.981,-4.195 -29.103,0.732 -8.125,3.596 -14.518,8.059 -19.113,13.253 -4.928,5.594 -7.659,11.854 -8.258,18.78 l 10.656,-7.393 c 0.533,-1.332 1.132,-2.53 1.798,-3.529 4.329,-6.394 11.254,-10.723 20.845,-12.92 6.06,-1.465 12.12,-1.864 18.047,-1.398 5.194,0.466 9.522,-0.533 12.987,-2.931 2.93,-2.064 4.928,-4.861 5.859,-8.391 0.732,-2.464 -0.666,-5.128 -4.129,-7.925 -3.062,-2.531 -6.66,-4.396 -10.855,-5.594 -1.199,1.065 -1.864,2.264 -1.864,3.596 -0.067,1.199 0.333,2.398 1.199,3.596 0.798,1.2 1.864,2.133 3.196,2.932 l 0,0 z"
       id="path47"
       style="fill:#ffffff;fill-rule:evenodd" /><path
       d="m 74.468,163.741 c -2.664,-0.334 -5.328,-1 -7.858,-1.933 l -12.454,-0.065 c 6.46,4.062 14.718,6.26 24.774,6.459 10.789,0.2 22.842,-1.798 36.229,-6.127 -14.186,2.997 -27.771,3.597 -40.691,1.666 l 0,0 z"
       id="path49"
       style="fill:#ffffff;fill-rule:evenodd" /><path
       d="m 67.808,123.384 7.059,-8.525 -38.359,26.506 7.326,-2.531 h 18.314 l -3.796,2.531 -2.331,6.193 4.529,-2.531 2.264,-6.193 h 6.526 l 6.26,-2.53 h -8.325 l -4.462,2.464 4.995,-15.384 0,0 0,0 z m -1.465,0.332 -3.13,4.529 -2.93,8.058 h -7.925 l -6.06,1.132 20.045,-13.719 0,0 z"
       id="path51"
       style="fill:#ffffff;fill-rule:evenodd" /><polygon
       points="56.021,147.558 63.013,147.558 65.344,141.364 70.605,141.364 75.6,136.303 69.34,138.833 62.813,138.833 62.813,138.833 60.549,145.026 "
       id="polygon53"
       style="fill:#a49e78;fill-rule:evenodd" /><polygon
       points="67.275,136.303 74.867,114.858 74.867,114.858 67.808,123.384 62.813,138.767 "
       id="polygon55"
       style="fill:#a49e78;fill-rule:evenodd" /><polygon
       points="36.508,141.364 58.352,141.364 58.352,141.364 62.147,138.833 43.833,138.833 "
       id="polygon57"
       style="fill:#a49e78;fill-rule:evenodd" /><polygon
       points="52.358,136.303 63.146,128.245 63.146,128.245 66.343,123.716 46.298,137.435 "
       id="polygon59"
       style="fill:#a49e78;fill-rule:evenodd" /><path
       d="m 96.977,122.251 0.134,0.133 c 0.799,1.132 0.865,2.397 0.332,3.863 -0.599,1.531 -1.665,2.863 -3.196,3.862 -1.598,1.065 -3.263,1.599 -4.928,1.599 -1.798,0 -2.997,-0.6 -3.796,-1.665 l -0.133,-0.267 -4.395,2.931 c 0.399,0.599 1.132,1.065 2.331,1.531 1.332,0.466 2.797,0.666 4.462,0.6 4.329,-0.066 8.458,-1.865 12.453,-5.262 2.863,-3.796 3.064,-6.926 0.4,-9.39 l -3.596,2.131 -0.068,-0.066 0,0 z"
       id="path61"
       style="fill:#ffffff;fill-rule:evenodd" /><path
       d="m 104.77,117.522 -0.199,-0.199 c -1.799,-1.799 -4.797,-2.664 -8.992,-2.664 -4.062,0 -7.858,0.932 -11.388,2.863 -3.996,2.198 -6.727,5.194 -8.191,8.99 -1.132,3.197 -0.999,5.861 0.466,7.992 l 0.533,0.665 3.996,-2.463 c -1.199,-2.664 -1.199,-5.129 -0.067,-7.46 1.132,-2.131 3.13,-3.995 6.06,-5.526 5.461,-2.864 10.057,-2.731 13.653,0.466 l 4.129,-2.664 0,0 z"
       id="path63"
       style="fill:#ffffff;fill-rule:evenodd" /><path
       d="m 88.786,136.902 -13.652,10.389 8.191,-2.53 c 4.129,-3.197 7.992,-6.46 11.455,-9.656 -2.065,0.798 -4.129,1.331 -5.994,1.797 l 0,0 z"
       id="path65"
       style="fill:#ffffff;fill-rule:evenodd" /><path
       d="m 97.045,122.317 3.596,-2.131 c -3.596,-3.197 -8.192,-3.33 -13.653,-0.466 -2.93,1.531 -4.928,3.396 -6.06,5.526 -1.132,2.331 -1.132,4.796 0.067,7.46 l 4.395,-2.931 c -1.465,-2.331 -0.533,-4.795 2.73,-7.326 3.729,-2.662 6.66,-2.662 8.925,-0.132 l 0,0 z"
       id="path67"
       style="fill:#a49e78;fill-rule:evenodd" /><path
       d="m 104.77,117.522 -4.129,2.664 c 2.664,2.464 2.463,5.594 -0.4,9.39 -3.996,3.396 -8.125,5.195 -12.453,5.262 -1.665,0.066 -3.13,-0.134 -4.462,-0.6 -1.199,-0.466 -1.931,-0.933 -2.331,-1.531 l -3.996,2.463 c 1.665,1.999 4.794,2.731 9.323,2.132 2.731,-0.333 5.461,-1.065 8.458,-2.197 -3.463,3.196 -7.326,6.459 -11.455,9.656 l -8.191,2.53 h 9.656 l 12.653,-10.322 c 3.131,-2.797 5.527,-5.461 7.059,-7.991 2.865,-4.596 2.932,-8.392 0.268,-11.456 l 0,0 z"
       id="path69"
       style="fill:#a49e78;fill-rule:evenodd" /><polygon
       points="110.23,125.647 102.172,147.357 106.967,144.761 114.625,144.761 117.756,142.562 110.297,142.562 107.232,144.361 110.23,136.436 117.156,136.436 120.553,134.104 120.553,134.038 113.494,134.038 113.494,134.104 110.363,135.771 113.227,128.045 121.285,128.045 121.285,128.045 124.082,125.647 "
       id="polygon71"
       style="fill:#ffffff;fill-rule:evenodd" /><polygon
       points="118.82,138.833 120.553,134.104 120.553,134.104 117.156,136.436 110.23,136.436 107.232,144.361 110.297,142.562 111.762,138.833 "
       id="polygon73"
       style="fill:#a49e78;fill-rule:evenodd" /><polygon
       points="122.283,130.442 124.082,125.647 124.082,125.647 121.285,128.045 113.227,128.045 110.363,135.771 113.494,134.104 114.758,130.442 "
       id="polygon75"
       style="fill:#a49e78;fill-rule:evenodd" /><polygon
       points="114.625,144.761 106.967,144.761 102.172,147.357 116.023,147.357 116.023,147.357 117.756,142.562 "
       id="polygon77"
       style="fill:#a49e78;fill-rule:evenodd" /><path
       d="m 142.33,126.646 c -1.133,-0.533 -2.598,-0.8 -4.33,-0.8 h -9.389 l -8.059,21.711 4.662,-2.265 2.797,-7.792 h 4.994 l -2.996,1.665 v 0.067 l 2.863,8.324 c 1.266,-0.666 2.465,-1.266 3.729,-1.932 l -3.463,-8.125 c 2.064,-0.199 3.797,-0.666 4.996,-1.397 1.264,-0.8 2.264,-1.865 2.93,-3.396 0.865,-1.865 0.332,-3.197 -1.6,-4.063 l -2.596,2.064 c 0.666,0.467 0.799,1.199 0.398,2.132 -0.666,1.798 -2.463,2.73 -5.395,2.73 h -0.598 l -0.068,0.066 -3.062,1.665 3.396,-9.057 h 4.861 c 1.598,0 2.664,0.133 3.062,0.398 l 2.799,-1.997 h 0.069 l 0,0.002 z"
       id="path79"
       style="fill:#ffffff;fill-rule:evenodd" /><polygon
       points="128.012,137.501 125.215,145.293 120.553,147.558 126.945,147.558 126.945,147.558 130.01,139.166 133.006,137.501 "
       id="polygon81"
       style="fill:#a49e78;fill-rule:evenodd" /><path
       d="m 139.465,128.644 c 1.932,0.866 2.465,2.198 1.6,4.063 -0.666,1.531 -1.666,2.597 -2.93,3.396 -1.199,0.731 -2.932,1.198 -4.996,1.397 l 3.463,8.125 c -1.264,0.666 -2.463,1.266 -3.729,1.932 h 7.857 l -4.328,-8.924 c 2.598,-0.199 4.729,-1.531 6.527,-3.996 2.863,-4.262 2.664,-6.926 -0.666,-7.991 l -2.798,1.998 0,0 z"
       id="path83"
       style="fill:#a49e78;fill-rule:evenodd" /><path
       d="m 133.273,130.176 h 1.197 c 1.266,0.066 2.131,0.267 2.398,0.532 l 2.596,-2.064 c -0.398,-0.266 -1.465,-0.398 -3.062,-0.398 h -4.861 l -3.396,9.057 3.131,-1.731 1.997,-5.396 0,0 z"
       id="path85"
       style="fill:#a49e78;fill-rule:evenodd" /><path
       d="m 161.242,128.511 4.197,-1.065 c -1.865,-1.132 -4.197,-1.731 -6.928,-1.731 -2.463,0 -4.729,0.666 -6.793,1.998 -2.064,1.332 -3.529,3.063 -4.328,5.261 -0.666,1.932 -0.6,3.33 0.199,4.263 l 3.398,-2.265 c -0.268,-2.997 0.998,-5.062 3.729,-6.26 1.131,-0.399 2.264,-0.666 3.529,-0.666 1.134,-0.067 2.132,0.132 2.997,0.465 l 0,0 z"
       id="path87"
       style="fill:#ffffff;fill-rule:evenodd" /><path
       d="m 154.184,132.84 -0.133,0.066 -3.062,2.064 c 0.332,0.666 1.264,1.198 2.729,1.665 2.398,0.732 3.863,1.665 4.264,2.53 l 3.463,-2.264 c -0.666,-0.933 -1.865,-1.599 -3.664,-2.198 l -1.465,-0.399 c -1.266,-0.466 -1.998,-0.933 -2.131,-1.398 v -0.066 l -0.001,0 z"
       id="path89"
       style="fill:#ffffff;fill-rule:evenodd" /><path
       d="m 154.65,141.497 v 0.133 c -0.268,0.666 -0.799,1.199 -1.6,1.599 -0.732,0.399 -1.465,0.533 -2.33,0.533 -1.73,0 -3.33,-0.732 -4.729,-2.265 l -4.395,4.596 4.594,-0.732 c 1.133,0.599 2.465,0.932 3.93,0.932 1.398,0.066 2.73,-0.199 3.996,-0.799 1.332,-0.533 2.33,-1.398 3.062,-2.397 0.732,-1.132 1,-2.464 0.801,-3.93 l -3.329,2.33 0,0 z"
       id="path91"
       style="fill:#ffffff;fill-rule:evenodd" /><path
       d="m 161.309,131.841 4.131,-4.396 -4.197,1.065 c -0.865,-0.333 -1.863,-0.532 -2.996,-0.466 -1.266,0 -2.398,0.267 -3.529,0.666 -2.73,1.198 -3.996,3.263 -3.729,6.26 l 3.195,-2.131 c -0.066,-0.399 0.066,-0.8 0.533,-1.198 0.398,-0.467 0.932,-0.8 1.598,-1 1.732,-0.532 3.396,-0.132 4.994,1.2 l 0,0 z"
       id="path93"
       style="fill:#a49e78;fill-rule:evenodd" /><path
       d="m 147.59,137.235 c 0.734,0.865 1.998,1.465 3.863,1.931 2.531,0.533 3.596,1.332 3.197,2.331 l 3.33,-2.331 c -0.4,-0.865 -1.865,-1.798 -4.264,-2.53 -1.465,-0.467 -2.396,-0.999 -2.729,-1.665 l -3.397,2.264 0,0 z"
       id="path95"
       style="fill:#a49e78;fill-rule:evenodd" /><path
       d="m 160.576,142.763 c 0.732,-1.133 1.133,-2.265 1.332,-3.33 0.135,-1.132 0,-1.932 -0.465,-2.53 l -3.463,2.264 c 0.199,1.466 -0.068,2.798 -0.801,3.93 -0.732,0.999 -1.73,1.864 -3.062,2.397 -1.266,0.6 -2.598,0.865 -3.996,0.799 -1.465,0 -2.797,-0.333 -3.93,-0.932 l -4.594,0.732 c 3.129,2.53 7.059,3.13 11.854,1.864 3.065,-0.666 5.395,-2.397 7.125,-5.194 l 0,0 z"
       id="path97"
       style="fill:#a49e78;fill-rule:evenodd" /><polygon
       points="52.025,158.413 58.218,155.216 148.922,155.216 158.58,151.753 158.58,151.753 54.622,151.753 51.958,158.413 "
       id="polygon99"
       style="fill:#ffffff;fill-rule:evenodd" /><path
       d="m 148.656,158.413 c 2.797,0 5.195,-0.999 7.191,-2.931 0.668,-0.599 1.6,-1.864 2.732,-3.729 l -9.658,3.463 H 58.218 l -6.193,3.197 h 96.631 l 0,0 z"
       id="path101"
       style="fill:#a49e78;fill-rule:evenodd" /></g></svg>