<?xml version="1.0" encoding="UTF-8" standalone="no"?>
<!-- Created with Inkscape (http://www.inkscape.org/) -->
<svg xmlns:dc="http://purl.org/dc/elements/1.1/" xmlns:cc="http://creativecommons.org/ns#" xmlns:rdf="http://www.w3.org/1999/02/22-rdf-syntax-ns#" xmlns:svg="http://www.w3.org/2000/svg" xmlns="http://www.w3.org/2000/svg" version="1.1" width="494.67889" height="184.5025" id="svg2" xml:space="preserve"><metadata id="metadata8"><rdf:RDF><cc:Work rdf:about=""><dc:format>image/svg+xml</dc:format><dc:type rdf:resource="http://purl.org/dc/dcmitype/StillImage"/><dc:title/></cc:Work></rdf:RDF></metadata><defs id="defs6"><clipPath id="clipPath26"><path d="M 0,612 792,612 792,0 0,0 0,612 z" id="path28"/></clipPath><clipPath id="clipPath40"><path d="M 0.5,0 792,0 792,611.5 0.5,611.5 0.5,0 z" id="path42"/></clipPath><clipPath id="clipPath60"><path d="M 0,612 792,612 792,0 0,0 0,612 z" id="path62"/></clipPath><clipPath id="clipPath340"><path d="M 0,612 792,612 792,0 0,0 0,612 z" id="path342"/></clipPath><clipPath id="clipPath354"><path d="M 0,612 792,612 792,0 0,0 0,612 z" id="path356"/></clipPath><clipPath id="clipPath402"><path d="M 0,612 792,612 792,0 0,0 0,612 z" id="path404"/></clipPath></defs><g transform="matrix(1.25,0,0,-1.25,-218.09414,310.88426)" id="g10"><path d="m 181.58009,226.39841 c -5.297,6.504 -6.756,13.123 -7.021,14.759 -0.504,3.12 1.233,7.55 6.11,7.55 0.99,0 1.856,-0.256 2.325,-0.414 0.582,-0.198 1.061,-0.439 1.061,-0.439 0,0 6.261,-3.332 33.093,-9.006 14.322,-3.027 100.86,-1.737 116.762,-1.469 l 4.754,5.212 51.535,0.393 5.558,-6.691 c 16.523,-0.439 106.735,-2.541 131.831,2.565 26.727,5.436 32.98,8.956 32.98,8.956 0,0 0.526,0.268 1.107,0.467 0.468,0.161 1.347,0.426 2.349,0.426 4.878,0 6.616,-4.43 6.11,-7.55 -0.265,-1.636 -1.723,-8.255 -7.021,-14.759 2.315,-2.088 1.275,-5.689 0.213,-7.632 -0.67,-1.229 -4.893,-8.785 -13.849,-13.689 0.542,-1.572 0.485,-3.525 -0.935,-5.445 -0.22,-0.295 -0.862,-1.228 -1.92,-2.486 -1.101,-1.31 -2.638,-2.956 -4.616,-4.614 -2.859,-2.397 -6.723,-4.883 -11.577,-6.334 -0.021,-2.942 -0.894,-7.016 -4.745,-9.915 l -3.117,-2.347 -0.409,0.264 2.489,-6.905 8.763,-4.035 20.017,-35.771 -13.047,-26.384 c 0,0 -19.615,10.634 -46.571,18.539 -27.204,7.976 -67.068,15.988 -117.461,15.988 l -8.002,0 c -50.393,0 -90.257,-8.012 -117.46,-15.988 -26.957,-7.905 -46.572,-18.539 -46.572,-18.539 l -13.048,26.384 20.017,35.771 8.763,4.035 2.523,6.999 c -0.275,-0.21 -0.474,-0.334 -0.474,-0.334 l -3.086,2.323 c -3.851,2.899 -4.723,6.973 -4.744,9.915 -4.854,1.451 -8.719,3.937 -11.578,6.334 -1.978,1.658 -3.515,3.304 -4.616,4.614 -1.056,1.258 -1.7,2.191 -1.919,2.486 -1.645,2.227 -1.474,4.481 -0.65,6.145 -9.053,3.748 -13.538,11.895 -14.135,12.989 -1.061,1.943 -2.101,5.544 0.213,7.632" id="path168" style="fill:#c8cbcd;fill-opacity:1;fill-rule:nonzero;stroke:none"/><path d="m 341.1543,237.00591 46.432,0.354 5.481,-6.6 c 0,0 107.203,-3.178 135.638,2.606 28.157,5.728 34.538,9.527 34.538,9.527 0,0 1.631,0.841 1.358,-0.84 -0.271,-1.682 -2.914,-13.693 -15.919,-20.049 0,0 5.082,-0.803 9.385,0.051 0,0 0.779,0.2 0.341,-0.603 -0.719,-1.315 -7.132,-12.743 -21.545,-14.704 0,0 1.852,-2.576 7.029,-3.077 0,0 0.478,-0.253 0.143,-0.704 -0.779,-1.055 -7.547,-11.208 -20.056,-12.329 0,0 2.753,-6.549 -1.665,-9.877 0,0 -2.889,1.856 -5.405,0.211 -2.58,-1.69 -0.952,-6.094 -0.952,-6.094 l 4.214,-11.689 9.239,-4.256 17.685,-31.605 -9.159,-18.52 c 0,0 -59.607,32.427 -161.589,32.427 l -5.328,0 -1.422,0 -1.252,0 c -101.98,0 -161.587,-32.427 -161.587,-32.427 l -9.161,18.52 17.686,31.605 9.239,4.256 4.214,11.689 c 0,0 1.629,4.404 -0.952,6.094 -2.515,1.645 -5.404,-0.211 -5.404,-0.211 -4.42,3.328 -1.666,9.877 -1.666,9.877 -12.51,1.121 -19.277,11.274 -20.057,12.329 -0.334,0.451 0.143,0.704 0.143,0.704 5.179,0.501 7.03,3.077 7.03,3.077 -14.413,1.961 -20.826,13.389 -21.545,14.704 -0.438,0.803 0.342,0.603 0.342,0.603 4.301,-0.854 9.384,-0.051 9.384,-0.051 -13.005,6.356 -15.648,18.367 -15.92,20.049 -0.271,1.681 1.36,0.84 1.36,0.84 0,0 6.425,-3.583 34.537,-9.527 16.581,-3.505 120.435,-1.547 120.435,-1.547 l 4.731,5.187 z" id="path172" style="fill:#234f80;fill-opacity:1;fill-rule:nonzero;stroke:none"/><path d="m 523.1543,144.6738 0,-5.535 -1.846,0.625 0,5.535 -1.525,0.517 0,1.562 4.894,-1.658 0,-1.562 -1.523,0.516 z" id="path176" style="fill:#ffffff;fill-opacity:1;fill-rule:evenodd;stroke:none"/><path d="m 524.9209,138.53999 1.205,6.689 1.817,-0.613 1.44,-4.283 1.525,3.278 1.836,-0.621 1.073,-7.462 -1.844,0.625 -0.518,4.261 -1.722,-3.503 -0.735,0.249 -1.629,4.637 -0.611,-3.878 -1.837,0.621 z" id="path180" style="fill:#ffffff;fill-opacity:1;fill-rule:evenodd;stroke:none"/><path d="m 492.38181,221.6992 4.477,0 c 6.138,0 29.875,0.619 46.432,7.244 0,0 0.486,0.166 0.408,-0.35 -0.078,-0.516 -10.753,-11.553 -30.054,-14.745 0,0 10.542,-0.598 19.654,0.997 0,0 0.597,0.181 0.393,-0.375 -0.227,-0.613 -6.964,-7.533 -24.506,-10.875 0,0 3.09,-1.937 12.398,-2.031 0,0 0.66,-0.003 0.294,-0.469 -0.424,-0.541 -7.617,-4.533 -17.51,-3.783 0,0 6.769,-3.626 4.035,-8.126 0,0 -0.239,-0.188 -0.345,0.082 -0.3,0.747 -1.783,3.868 -6.078,2.809 -0.952,-0.234 -2.91,-1.58 -0.986,-4.853 l 5.784,-13.089 c 1.99,-4.302 6.815,-14.983 8.02,-18.693 4.2,-12.921 -2.739,-14.365 -25.271,-7.897 l -28.391,6.545 c -10.339,1.996 -17.053,1.841 -25.15,5.772 -8.915,4.424 -10.487,7.137 -11.349,12.25 l -8.703,35.591 -7.121,0 -3.516,14.032 42.263,0 4.308,-14.032 -5.786,0 10.569,-36.304 23.097,-5.162 -14.593,41.466 -5.631,0 -4.571,14.032 37.411,0 0.018,-0.036 z" id="path184" style="fill:#ffffff;fill-opacity:1;fill-rule:nonzero;stroke:none"/><path d="m 270.2119,221.1055 60.072,0 -3.058,-19.29 -26.14,0 1.556,6.042 -21.09,0 -4.178,-13.959 33.764,0.813 -11.155,-15.378 -28.278,-0.816 -4.097,-11.338 14.714,2.125 -5.34,-14.654 c -22.12,-3.928 -47.411,-10.715 -64.611,-18.794 l 10.58,19.006 9.833,3.454 7.322,20.389 -6.072,14.051 6.349,0.052 c 0.036,0.887 1.174,4.504 1.174,4.504 -9.893,-0.75 -17.086,3.242 -17.51,3.783 -0.366,0.466 0.293,0.469 0.293,0.469 9.309,0.094 12.4,2.03 12.4,2.03 -17.543,3.343 -24.28,10.263 -24.506,10.875 -0.205,0.557 0.391,0.376 0.391,0.376 9.113,-1.595 19.656,-0.997 19.656,-0.997 -19.302,3.192 -29.977,14.229 -30.055,14.744 -0.078,0.517 0.408,0.351 0.408,0.351 18.745,-7.5 47.553,-7.804 47.553,-7.804 l 0.204,-0.033 19.828,0.019 -0.007,-0.02 z" id="path188" style="fill:#ffffff;fill-opacity:1;fill-rule:nonzero;stroke:none"/><path d="m 310.78371,172.4619 -8.035,-1.047 -4.401,-13.475 c 11.727,1.795 23.178,2.937 36.478,3.499 l 8.381,14.876 37.994,0 8.536,-15.54 c 13.917,-0.869 22.288,-1.201 36.47,-2.482 l -5.224,14.169 -8.674,0.628 -31.396,55.037 -34.909,0 -35.22,-55.665 z m 64.706,21.105 -24.952,0 13.045,22.209 11.907,-22.209 z" id="path192" style="fill:#ffffff;fill-opacity:1;fill-rule:evenodd;stroke:none"/></g></svg>