<?xml version="1.0" encoding="UTF-8" standalone="no"?>
<!-- Created with Inkscape (http://www.inkscape.org/) -->

<svg
   xmlns:dc="http://purl.org/dc/elements/1.1/"
   xmlns:cc="http://creativecommons.org/ns#"
   xmlns:rdf="http://www.w3.org/1999/02/22-rdf-syntax-ns#"
   xmlns:svg="http://www.w3.org/2000/svg"
   xmlns="http://www.w3.org/2000/svg"
   version="1.0"
   width="280"
   height="200"
   id="svg2"
   xml:space="preserve"><metadata
     id="metadata3175"><rdf:RDF><cc:Work
         rdf:about=""><dc:format>image/svg+xml</dc:format><dc:type
           rdf:resource="http://purl.org/dc/dcmitype/StillImage" /><dc:title></dc:title></cc:Work></rdf:RDF></metadata><defs
     id="defs5"><clipPath
       id="clipPath21"><path
         d="M 0,0 612,0 612,792 0,792 0,0 z"
         id="path23" /></clipPath><clipPath
       id="clipPath89"><path
         d="M 0,0 612,0 612,792 0,792 0,0 z"
         id="path91" /></clipPath><clipPath
       id="clipPath125"><path
         d="M 0,0 612,0 612,792 0,792 0,0 z"
         id="path127" /></clipPath></defs><path
     d="m 172.936,120.72745 -32.89404,54.1682 -32.89561,-54.1682 -6.13648,0 39.03209,64.70432 39.02894,-64.70432 -6.1349,0 z"
     id="path15"
     style="fill:#ffffff;fill-opacity:1;fill-rule:nonzero;stroke:none" /><path
     d="m 99.210574,136.0508 0,-15.32382 -4.641006,0 0,19.52786 c 0,8.81192 8.385992,21.36725 16.500652,21.36725 l 0,17.09221 -72.770089,0 0,-17.09221 c 8.379682,0 16.497498,-12.55533 16.497498,-21.36725 l 0,-19.52786 -4.773516,0 0,15.32382 c 0,10.49195 -6.013431,21.92253 -16.809843,21.92253 l 0,25.91044 82.91973,0 0,-25.91044 c -10.28057,0 -16.923426,-10.76803 -16.923426,-21.92253"
     id="path27"
     style="fill:#ffffff;fill-opacity:1;fill-rule:nonzero;stroke:none" /><path
     d="m 50.024744,59.898251 0,21.130617 4.771939,0 0,-25.049128 c 0,-9.09429 -8.116239,-17.906206 -16.497499,-17.906206 l 0,-14.481453 61.260648,0 34.425788,57.436787 12.1152,0 34.41475,-57.436787 61.26223,0 0,14.481453 c -8.37968,0 -16.49908,8.811916 -16.49908,17.906206 l 0,25.049128 4.77194,0 0,-21.130617 c 0,-9.730022 6.01816,-17.355659 16.81931,-17.355659 l 0,-24.380268 -69.23807,0 -37.59025,62.587326 -37.59815,-62.587326 -69.228599,0 0,24.380268 c 10.794834,0 16.809843,7.625637 16.809843,17.355659"
     id="path31"
     style="fill:#ffffff;fill-opacity:1;fill-rule:nonzero;stroke:none" /><path
     d="m 230.05066,136.0508 0,-15.32382 -4.77194,0 0,19.52786 c 0,8.81192 8.1194,21.36725 16.49908,21.36725 l 0,17.09221 -72.77009,0 0,-17.09221 c 8.12097,0 16.50065,-12.55533 16.50065,-21.36725 l 0,-19.52786 -4.64101,0 0,15.32382 c 0,11.1545 -6.64443,21.92253 -16.92184,21.92253 l 0,25.91044 82.92446,0 0,-25.91044 c -10.80115,0 -16.81931,-11.43058 -16.81931,-21.92253"
     id="path35"
     style="fill:#ffffff;fill-opacity:1;fill-rule:nonzero;stroke:none" /><path
     d="m 40.33274,115.39424 0,-2.31419 c -3.177086,-0.407 -3.491008,-0.99856 -3.491008,-4.0384 l 0,-12.83928 9.166854,19.19187 3.309596,0 8.210889,-18.73597 0,12.8377 c 0,2.94677 -0.04575,3.35692 -3.311173,3.44683 l 0,2.45144 12.881868,0 0,-2.31419 c -2.768513,-0.407 -3.585659,-1.50021 -3.585659,-3.67558 l 0,-15.78605 c 0,-0.95438 -0.130932,-2.766931 0.228738,-3.631401 0.225582,-0.449588 0.730383,-0.951233 3.356921,-1.315635 l 0,-2.266868 -9.39086,0 -9.119529,20.416004 -9.703205,-20.416004 -9.168432,0 0,2.266868 c 3.175508,0.408572 3.311173,0.90864 3.311173,2.402533 0,1.905623 0.08992,12.525353 0,16.699413 -0.135665,4.62681 -0.634155,4.89972 -3.311173,5.30672 l 0,2.31419 10.615,0 z"
     id="path39"
     style="fill:#ffffff;fill-opacity:1;fill-rule:nonzero;stroke:none" /><path
     d="m 84.872831,113.07989 0,2.31419 10.704917,0 0,-2.45143 c -1.902465,0 -2.449858,-0.3155 -3.125028,-2.13278 l -9.212602,-24.952905 -3.227566,0 -8.845044,24.411815 c -0.54266,1.49547 -1.037995,2.5382 -2.902601,2.81111 l 0,2.31419 9.211025,0 0,-2.45143 c -1.951368,-0.0899 -2.131203,-0.36283 -2.131203,-1.26831 0,-1.36139 0.995403,-4.08258 1.40713,-5.48971 l 8.346554,0 c 0.905486,2.81426 1.676883,5.30829 1.676883,6.03552 0,0.26975 0,0.54266 -1.902465,0.85974 m -6.898409,-10.56925 2.766936,-8.30554 2.954658,8.30554 -5.721594,0 z"
     id="path43"
     style="fill:#ffffff;fill-opacity:1;fill-rule:nonzero;stroke:none" /><path
     d="m 108.44605,104.09902 c 0.58841,0 1.04273,-0.0915 1.49863,-0.0915 2.13435,3.85541 5.21521,8.34971 6.57659,9.70952 1.17682,1.22571 2.58553,2.22112 4.99595,2.22112 1.08374,0 2.17695,-0.17984 4.16775,-0.63416 l 0.0473,-2.26844 c -1.85829,0 -2.81268,-0.22874 -4.44539,-1.85988 -1.35823,-1.36138 -3.94533,-5.08113 -6.21535,-9.03276 2.81268,-2.0823 4.07941,-5.43765 4.07941,-7.98058 0,-7.620901 -7.48366,-8.255056 -11.11349,-8.255056 -3.12818,0 -8.210887,0.361247 -11.203405,0.54266 l 0,2.445125 c 2.992518,0 3.443685,0.77613 3.443685,4.450131 l 0,15.96903 c 0,1.72421 -0.13567,3.40267 -3.533603,3.7655 l 0,2.31419 12.157793,0 0,-2.44986 c -2.81584,-0.13724 -3.22125,-1.53964 -3.22125,-3.08717 l 0,-5.75787 2.76535,0 z m -2.76536,-11.66561 c 0,-0.22085 0.0931,-1.900891 0.13567,-2.989367 0.86131,-0.137242 1.85829,-0.181412 2.08387,-0.181412 2.90576,0 5.44554,1.63429 5.44554,5.761029 0,4.76563 -2.27003,5.80836 -5.35246,5.80836 l -2.31262,0 0,-8.39861 z"
     id="path47"
     style="fill:#ffffff;fill-opacity:1;fill-rule:nonzero;stroke:none" /><path
     d="m 136.92498,112.35755 c -2.04445,0 -7.44264,-0.50322 -7.57988,-6.67125 l -2.44986,0 0,8.25822 c 3.35848,1.31405 5.98975,2.22112 9.9335,2.22112 7.80863,0 9.80259,-4.5858 9.80259,-7.98373 0,-2.67702 -0.81398,-4.62839 -2.67227,-6.48826 -2.22428,-2.26845 -5.21838,-3.44842 -7.85122,-5.08271 -1.72579,-1.0869 -3.03986,-2.17537 -3.03986,-4.17722 0,-1.131066 0.63258,-3.038264 4.3555,-3.038264 4.25923,0 5.30828,2.000271 5.58119,6.264254 l 2.5871,0 0,-9.255194 c -3.45157,-0.181413 -3.49732,-0.815568 -8.80561,-0.815568 -6.07812,0 -9.16527,3.625096 -9.16527,7.937982 0,5.0764 4.13147,7.48524 7.7124,9.43661 1.45287,0.81241 3.36007,1.67846 4.53688,2.85685 0.86763,0.86447 1.18312,1.68004 1.18312,2.86158 0,1.81097 -0.95123,3.67558 -4.12831,3.67558"
     id="path51"
     style="fill:#ffffff;fill-opacity:1;fill-rule:nonzero;stroke:none" /><path
     d="m 177.46374,88.895231 0,-2.402533 -12.24929,0 0,2.402533 c 2.76851,0.04733 3.44999,0.320233 3.44999,5.855679 l 0,3.35534 -12.06787,0 0,-3.35534 c 0,-5.535446 0.6799,-5.808354 3.44526,-5.855679 l 0,-2.402533 -12.24772,0 0,2.402533 c 2.9026,0 3.44526,0.04733 3.44526,4.495879 l 0,13.29359 c 0,5.57804 -0.49533,5.75946 -3.44526,6.39519 l 0,2.31419 12.24772,0 0,-2.31419 c -2.7133,-0.45274 -3.44526,-0.81715 -3.44526,-3.17551 l 0,-8.16672 12.06787,0 0,8.16672 c 0,2.35836 -0.72722,2.72277 -3.44999,3.17551 l 0,2.31419 12.24929,0 0,-2.31419 c -2.94835,-0.63573 -3.44999,-0.81715 -3.44999,-6.39519 l 0,-13.29359 c 0,-4.448554 0.55212,-4.495879 3.44999,-4.495879"
     id="path55"
     style="fill:#ffffff;fill-opacity:1;fill-rule:nonzero;stroke:none" /><path
     d="m 195.23397,113.07989 0,2.31419 10.70491,0 0,-2.45143 c -1.90246,0 -2.4467,-0.3155 -3.12503,-2.13278 l -9.2126,-24.952905 -3.22441,0 -8.84504,24.411815 c -0.53951,1.49547 -1.04115,2.5382 -2.9026,2.81111 l 0,2.31419 9.20787,0 0,-2.45143 c -1.94822,-0.0899 -2.13121,-0.36283 -2.13121,-1.26831 0,-1.36139 0.99856,-4.08258 1.40713,-5.48971 l 8.34971,0 c 0.90864,2.81426 1.68004,5.30829 1.68004,6.03552 0,0.26975 0,0.54266 -1.90877,0.85974 m -6.89684,-10.56925 2.76536,-8.30554 2.95466,8.30554 -5.72002,0 z"
     id="path59"
     style="fill:#ffffff;fill-opacity:1;fill-rule:nonzero;stroke:none" /><path
     d="m 207.10245,112.94328 0,2.45143 21.00757,0 0,-8.3923 -2.22743,0 c -0.94808,4.4454 -2.67386,4.98963 -5.88881,4.98963 -3.54307,0 -3.76549,-0.72565 -3.76549,-2.76693 0,0 0,-13.42926 0.0425,-16.69627 0.082,-2.557123 0.30288,-3.110825 0.90864,-3.314323 0.81714,-0.318655 1.81412,-0.318655 2.67228,-0.451165 l 0,-2.270023 -12.74936,0 0,2.449858 c 2.54451,0.04575 3.45,0.184568 3.45,6.942583 l 0,9.02961 c 0,7.57515 -0.94966,8.12097 -3.45,8.0279"
     id="path63"
     style="fill:#ffffff;fill-opacity:1;fill-rule:nonzero;stroke:none" /><path
     d="m 248.05783,107.00194 c -0.95281,4.44697 -2.67544,4.98963 -5.8967,4.98963 -3.53676,0 -3.76707,-0.72565 -3.76707,-2.76693 0,0 0,-13.42927 0.0473,-16.69627 0.0852,-2.561859 0.30131,-3.110829 0.90391,-3.314326 0.81715,-0.318655 1.81728,-0.318655 2.68175,-0.451165 l 0,-2.270023 -12.74778,0 0,2.449858 c 2.53662,0.04733 3.44369,0.184567 3.44369,6.942576 l 0,9.02961 c 0,7.57516 -0.95439,8.12097 -3.44369,8.0279 l 0,2.45144 21.00284,0 0,-8.3923 -2.22427,0 z"
     id="path67"
     style="fill:#ffffff;fill-opacity:1;fill-rule:nonzero;stroke:none" /><path
     d="m 94.569883,140.25469 0,-19.52787 -39.771938,0 0,19.52787 c 0,8.81191 -8.117817,21.36724 -16.497499,21.36724 l 0,17.09222 72.770094,0 0,-17.09222 c -8.11466,0 -16.500657,-12.55533 -16.500657,-21.36724"
     id="path71"
     style="fill:#00562a;fill-opacity:1;fill-rule:nonzero;stroke:none" /><path
     d="m 54.797314,55.980055 0,25.049128 79.187366,0 -34.425794,-57.436787 -61.259071,0 0,14.481453 c 8.379682,0 16.497499,8.811917 16.497499,17.906206"
     id="path75"
     style="fill:#00562a;fill-opacity:1;fill-rule:nonzero;stroke:none" /><path
     d="m 180.51589,23.591923 -34.41475,57.436787 79.17632,0 0,-25.049128 c 0,-9.094289 8.12097,-17.906206 16.50065,-17.906206 l 0,-14.481453 -61.26222,0 z"
     id="path79"
     style="fill:#00562a;fill-opacity:1;fill-rule:nonzero;stroke:none" /><path
     d="m 107.14556,120.72745 32.89562,54.1682 32.89402,-54.1682 -65.78964,0 z"
     id="path83"
     style="fill:#00562a;fill-opacity:1;fill-rule:nonzero;stroke:none" /><path
     d="m 225.27809,140.25469 0,-19.52787 -39.77036,0 0,19.52787 c 0,8.81191 -8.37968,21.36724 -16.50065,21.36724 l 0,17.09222 72.77166,0 0,-17.09222 c -8.37968,0 -16.50065,-12.55533 -16.50065,-21.36724"
     id="path95"
     style="fill:#00562a;fill-opacity:1;fill-rule:nonzero;stroke:none" /><path
     d="m 237.428,81.029183 0,-13.957723 c 0,-10.717537 -0.0709,-17.641186 17.02123,-17.641186 l 0,-39.762473 -81.55835,0 -32.84829,54.464776 -32.86091,-54.464776 -81.558342,0 0,39.762473 c 17.093794,0 17.024384,6.923649 17.024384,17.641186 l 0,13.957723 -42.647722,0 0,39.697797 42.647722,0 0,7.84806 c 0,10.38152 0.06941,22.61976 -17.024384,22.61976 l 0,40.8052 98.174152,0 0,-18.39838 11.05513,18.39838 10.37364,0 11.0567,-18.39838 0,18.39838 98.16627,0 0,-40.8052 c -17.09222,0 -17.02123,-12.23824 -17.02123,-22.61976 l 0,-7.84806 42.572,0 0,-39.697797 -42.572,0 z M 33.21427,42.54133 l 0,-24.37869 69.2286,0 37.59972,62.587326 37.59026,-62.587326 69.23649,0 0,24.37869 c -10.80115,0 -16.81931,7.627214 -16.81931,17.357236 l 0,21.130617 -180.025917,0 0,-21.130617 c 0,-9.730022 -6.013431,-17.357236 -16.809843,-17.357236 m 173.88786,46.402173 0,-2.449859 12.74936,0 0,2.268446 c -0.85816,0.13251 -1.85514,0.13251 -2.67229,0.452743 -0.60418,0.203497 -0.82661,0.7572 -0.90864,3.314327 l -0.0425,16.69626 c 0,2.04129 0.22243,2.76536 3.7655,2.76536 3.21494,0 4.94073,-0.54266 5.89038,-4.98805 l 2.22743,0 0,8.3923 -21.00915,0 0,-2.45144 c 2.50034,0.0931 3.45,-0.45432 3.45,-8.0279 l 0,-9.02961 c 0,-6.75801 -0.90391,-6.89683 -3.45,-6.942577 m -11.64037,17.240497 -8.34813,0 c -0.40857,1.40871 -1.40871,4.1299 -1.40871,5.49128 0,0.90391 0.18299,1.17839 2.1312,1.26831 l 0,2.45144 -9.20629,0 0,-2.31577 c 1.86145,-0.27291 2.36152,-1.31406 2.9026,-2.81111 l 8.84347,-24.411816 3.22441,0 9.21418,24.954476 c 0.67832,1.8157 1.22098,2.13278 3.12503,2.13278 l 0,2.45144 -10.70492,0 0,-2.31577 c 1.90878,-0.3155 1.90878,-0.58999 1.90878,-0.85974 0,-0.72565 -0.7714,-3.22126 -1.68162,-6.03552 m -17.9977,6.89526 0,2.31577 -12.24929,0 0,-2.31577 c 2.72276,-0.45275 3.44999,-0.81557 3.44999,-3.17393 l 0,-8.16672 -12.06945,0 0,8.16672 c 0,2.35836 0.73353,2.72118 3.44683,3.17393 l 0,2.31577 -12.24771,0 0,-2.31577 c 2.94993,-0.63574 3.44526,-0.81557 3.44526,-6.39361 l 0,-13.29517 c 0,-4.446977 -0.54266,-4.49588 -3.44526,-4.49588 l 0,-2.400956 12.24771,0 0,2.400956 c -2.76535,0.0489 -3.44683,0.320233 -3.44683,5.85568 l 0,3.35534 12.06945,0 0,-3.35534 c 0,-5.535447 -0.68148,-5.806777 -3.44999,-5.85568 l 0,-2.400956 12.24929,0 0,2.400956 c -2.89787,0 -3.44999,0.0489 -3.44999,4.49588 l 0,13.29517 c 0,5.57804 0.50164,5.75787 3.44999,6.39361 m -37.59341,-7.25808 c -1.17682,-1.17839 -3.08402,-2.04444 -4.53689,-2.85685 -3.58251,-1.95137 -7.7124,-4.36022 -7.7124,-9.43661 0,-4.312887 3.08559,-7.937983 9.16527,-7.937983 5.30829,0 5.35246,0.632577 8.80561,0.815567 l 0,9.255196 -2.58868,0 c -0.2729,-4.265562 -1.32036,-6.265832 -5.58119,-6.265832 -3.72133,0 -4.35548,1.908775 -4.35548,3.038262 0,2.00185 1.31563,3.09033 3.04142,4.17722 2.63285,1.63429 5.62694,2.81426 7.84964,5.08271 1.85987,1.86145 2.67229,3.81282 2.67229,6.48826 0,3.39951 -1.99239,7.98531 -9.80101,7.98531 -3.94533,0 -6.57502,-0.90707 -9.93352,-2.2227 l 0,-8.25822 2.44828,0 c 0.13882,6.16961 5.53702,6.67125 7.58146,6.67125 3.17551,0 4.12675,-1.86303 4.12675,-3.67557 0,-1.18155 -0.31393,-1.99554 -1.18155,-2.86001 m -30.96791,7.12241 0,2.45144 -12.159374,0 0,-2.31577 c 3.399514,-0.36283 3.533604,-2.04129 3.533604,-3.7655 l 0,-15.96903 c 0,-3.674 -0.449591,-4.45013 -3.443686,-4.45013 l 0,-2.445126 c 2.994095,-0.181412 8.076806,-0.54266 11.204986,-0.54266 3.62983,0 11.11349,0.634155 11.11349,8.255056 0,2.54293 -1.26673,5.89985 -4.07942,7.98215 2.26845,3.95007 4.85713,7.66981 6.21378,9.03277 1.63271,1.62956 2.5871,1.85987 4.44697,1.85987 l -0.0489,2.26687 c -1.99081,0.45432 -3.08244,0.63416 -4.16776,0.63416 -2.41042,0 -3.81755,-0.9954 -4.99436,-2.21955 -1.36296,-1.36138 -4.44382,-5.8541 -6.57818,-9.71109 -0.4559,0 -0.91022,0.0915 -1.49862,0.0915 l -2.76378,0 0,5.75788 c 0,1.54753 0.40541,2.94992 3.22125,3.08717 m -23.804479,-6.75959 -8.346554,0 c -0.410151,1.40871 -1.407131,4.12989 -1.407131,5.49128 0,0.9039 0.179835,1.17839 2.131203,1.26831 l 0,2.45143 -9.211024,0 0,-2.31577 c 1.864605,-0.27291 2.35994,-1.31406 2.904178,-2.8111 l 8.843467,-24.411821 3.227565,0 9.212602,24.954481 c 0.675171,1.8157 1.222563,2.13278 3.125029,2.13278 l 0,2.45143 -10.704918,0 0,-2.31577 c 1.904043,-0.3155 1.904043,-0.58998 1.904043,-0.85974 0,-0.72565 -0.772975,-3.22125 -1.67846,-6.03551 m -44.766305,6.89525 0,2.31577 -10.615,0 0,-2.31577 c 2.678564,-0.40699 3.177054,-0.6799 3.311142,-5.30513 0.08992,-4.17564 0,-14.79537 0,-16.699415 0,-1.49547 -0.134088,-1.995537 -3.311174,-2.40411 l 0,-2.265291 9.168432,0 9.703205,20.414436 9.121107,-20.414436 9.389282,0 0,2.265291 c -2.626538,0.36598 -3.129761,0.866048 -3.355343,1.317213 -0.361248,0.86447 -0.228738,2.677022 -0.228738,3.631402 l 0,15.78605 c 0,2.17537 0.817145,3.267 3.584081,3.674 l 0,2.31577 -12.881868,0 0,-2.45144 c 3.26694,-0.0899 3.31111,-0.50007 3.31111,-3.44684 l 0,-12.83769 -8.210889,18.73597 -3.308018,0 -9.168432,-19.19345 0,12.84085 c 0,3.03985 0.3155,3.62983 3.491008,4.03683 m 75.802049,70.80451 -82.91973,0 0,-25.91044 c 10.796412,0 16.809843,-11.43058 16.809843,-21.92253 l 0,-15.32382 49.186461,0 0,15.32382 c 0,11.1545 6.642856,21.92253 16.923426,21.92253 l 0,25.91044 z m 23.90859,1.5491 -39.03367,-64.70589 78.06261,0 -39.02894,64.70589 z m 106.82675,-27.45954 0,25.91044 -82.92446,0 0,-25.91044 c 10.27741,0 16.92342,-10.76803 16.92342,-21.92253 l 0,-15.32382 49.18173,0 0,15.32382 c 0,10.49195 6.01816,21.92253 16.81931,21.92253 m 3.41213,-42.5783 -21.00284,0 0,-2.45144 c 2.4893,0.0931 3.44368,-0.45432 3.44368,-8.0279 l 0,-9.02961 c 0,-6.75801 -0.90548,-6.89683 -3.44368,-6.942577 l 0,-2.449859 12.74778,0 0,2.268446 c -0.86447,0.13251 -1.8646,0.13251 -2.68017,0.452743 -0.60261,0.203497 -0.8203,0.752467 -0.90391,3.314327 l -0.0488,16.69626 c 0,2.04129 0.23189,2.76536 3.76707,2.76536 3.22284,0 4.94547,-0.54266 5.8967,-4.98805 l 2.22427,0 0,8.3923 z"
     id="path99"
     style="fill:#000000;fill-opacity:1;fill-rule:nonzero;stroke:none" /><path
     d="m 107.99283,100.83123 c 3.08402,0 5.35246,-1.04115 5.35246,-5.80678 0,-4.12674 -2.53977,-5.76103 -5.44553,-5.76103 -0.22558,0 -1.22098,0.04259 -2.08388,0.181412 -0.041,1.086898 -0.13408,2.766938 -0.13408,2.987788 l 0,8.39861 2.31103,0 z"
     id="path103"
     style="fill:#000000;fill-opacity:1;fill-rule:nonzero;stroke:none" /><path
     d="m 77.973949,102.51079 5.721593,0 -2.95308,-8.30554 -2.768513,8.30554 z"
     id="path107"
     style="fill:#000000;fill-opacity:1;fill-rule:nonzero;stroke:none" /><path
     d="m 188.33777,102.51079 5.71843,0 -2.95308,-8.30554 -2.76535,8.30554 z"
     id="path111"
     style="fill:#000000;fill-opacity:1;fill-rule:nonzero;stroke:none" /><path
     d="m 257.46793,182.31243 3.21021,0 0,9.68743 1.16578,0 0,-9.68743 3.379,0 0,-1.16577 -7.75499,0 0,1.16577 z"
     id="path115"
     style="fill:#000000;fill-opacity:1;fill-rule:nonzero;stroke:none" /><path
     d="m 271.42282,189.97561 -2.78429,-8.82927 -1.86776,0 0,10.8532 1.16261,0 0,-9.21891 2.90892,9.21891 1.16104,0 2.90575,-9.21891 0,9.21891 1.16577,0 0,-10.8532 -1.86933,0 -2.78271,8.82927 z"
     id="path119"
     style="fill:#000000;fill-opacity:1;fill-rule:nonzero;stroke:none" /></svg>