<?xml version="1.0" encoding="UTF-8" standalone="no"?>
<!-- Created with Inkscape (http://www.inkscape.org/) -->
<svg xmlns:svg="http://www.w3.org/2000/svg" xmlns="http://www.w3.org/2000/svg" version="1.0" width="221.87" height="144.47874" id="svg2" xml:space="preserve"><defs id="defs5"><clipPath id="clipPath21"><path d="M 0,0 L 612,0 L 612,792 L 0,792 L 0,0 z" id="path23"/></clipPath><clipPath id="clipPath89"><path d="M 0,0 L 612,0 L 612,792 L 0,792 L 0,0 z" id="path91"/></clipPath><clipPath id="clipPath125"><path d="M 0,0 L 612,0 L 612,792 L 0,792 L 0,0 z" id="path127"/></clipPath></defs><path d="M 137.03325,88.00287 L 110.96825,130.92537 L 84.902,88.00287 L 80.0395,88.00287 L 110.96825,139.27412 L 141.8945,88.00287 L 137.03325,88.00287 z" id="path15" style="fill:#ffffff;fill-opacity:1;fill-rule:nonzero;stroke:none"/><path d="M 78.61375,100.14499 L 78.61375,88.002495 L 74.93625,88.002495 L 74.93625,103.47624 C 74.93625,110.45874 81.58125,120.4075 88.01125,120.4075 L 88.01125,133.95124 L 30.34875,133.95124 L 30.34875,120.4075 C 36.98875,120.4075 43.42125,110.45874 43.42125,103.47624 L 43.42125,88.002495 L 39.63875,88.002495 L 39.63875,100.14499 C 39.63875,108.45874 34.87375,117.51625 26.31875,117.51625 L 26.31875,138.04749 L 92.02375,138.04749 L 92.02375,117.51625 C 83.8775,117.51625 78.61375,108.98374 78.61375,100.14499" id="path27" style="fill:#ffffff;fill-opacity:1;fill-rule:nonzero;stroke:none"/><path d="M 39.63925,39.802245 L 39.63925,56.545995 L 43.4205,56.545995 L 43.4205,36.697245 C 43.4205,29.490995 36.98925,22.508495 30.348,22.508495 L 30.348,11.033495 L 78.8905,11.033495 L 106.16925,56.545995 L 115.76925,56.545995 L 143.03925,11.033495 L 191.583,11.033495 L 191.583,22.508495 C 184.943,22.508495 178.50925,29.490995 178.50925,36.697245 L 178.50925,56.545995 L 182.2905,56.545995 L 182.2905,39.802245 C 182.2905,32.092245 187.05925,26.049745 195.618,26.049745 L 195.618,6.730995 L 140.75425,6.730995 L 110.968,56.324745 L 81.1755,6.730995 L 26.31925,6.730995 L 26.31925,26.049745 C 34.873,26.049745 39.63925,32.092245 39.63925,39.802245" id="path31" style="fill:#ffffff;fill-opacity:1;fill-rule:nonzero;stroke:none"/><path d="M 182.2905,100.14499 L 182.2905,88.002495 L 178.50925,88.002495 L 178.50925,103.47624 C 178.50925,110.45874 184.943,120.4075 191.583,120.4075 L 191.583,133.95124 L 133.9205,133.95124 L 133.9205,120.4075 C 140.3555,120.4075 146.9955,110.45874 146.9955,103.47624 L 146.9955,88.002495 L 143.318,88.002495 L 143.318,100.14499 C 143.318,108.98374 138.053,117.51625 129.90925,117.51625 L 129.90925,138.04749 L 195.618,138.04749 L 195.618,117.51625 C 187.05925,117.51625 182.2905,108.45874 182.2905,100.14499" id="path35" style="fill:#ffffff;fill-opacity:1;fill-rule:nonzero;stroke:none"/><path d="M 31.959375,83.77687 L 31.959375,81.94312 C 29.441875,81.62062 29.193125,81.15187 29.193125,78.74312 L 29.193125,68.56937 L 36.456875,83.77687 L 39.079375,83.77687 L 45.585625,68.93062 L 45.585625,79.10312 C 45.585625,81.43812 45.549375,81.76312 42.961875,81.83437 L 42.961875,83.77687 L 53.169375,83.77687 L 53.169375,81.94312 C 50.975625,81.62062 50.328125,80.75437 50.328125,79.03062 L 50.328125,66.52187 C 50.328125,65.76562 50.224375,64.32937 50.509375,63.64437 C 50.688125,63.28812 51.088125,62.89062 53.169375,62.60187 L 53.169375,60.80562 L 45.728125,60.80562 L 38.501875,76.98312 L 30.813125,60.80562 L 23.548125,60.80562 L 23.548125,62.60187 C 26.064375,62.92562 26.171875,63.32187 26.171875,64.50562 C 26.171875,66.01562 26.243125,74.43062 26.171875,77.73812 C 26.064375,81.40437 25.669375,81.62062 23.548125,81.94312 L 23.548125,83.77687 L 31.959375,83.77687 z" id="path39" style="fill:#ffffff;fill-opacity:1;fill-rule:nonzero;stroke:none"/><path d="M 67.252625,81.942995 L 67.252625,83.776745 L 75.735125,83.776745 L 75.735125,81.834245 C 74.227625,81.834245 73.793875,81.584245 73.258875,80.144245 L 65.958875,60.371745 L 63.401375,60.371745 L 56.392625,79.715495 C 55.962625,80.900495 55.570125,81.726745 54.092625,81.942995 L 54.092625,83.776745 L 61.391375,83.776745 L 61.391375,81.834245 C 59.845125,81.762995 59.702625,81.546745 59.702625,80.829245 C 59.702625,79.750495 60.491375,77.594245 60.817625,76.479245 L 67.431375,76.479245 C 68.148875,78.709245 68.760125,80.685495 68.760125,81.261745 C 68.760125,81.475495 68.760125,81.691745 67.252625,81.942995 M 61.786375,73.567995 L 63.978875,66.986745 L 66.320125,73.567995 L 61.786375,73.567995 z" id="path43" style="fill:#ffffff;fill-opacity:1;fill-rule:nonzero;stroke:none"/><path d="M 85.931875,74.82662 C 86.398125,74.82662 86.758125,74.75412 87.119375,74.75412 C 88.810625,77.80912 91.251875,81.37037 92.330625,82.44787 C 93.263125,83.41912 94.379375,84.20787 96.289375,84.20787 C 97.148125,84.20787 98.014375,84.06537 99.591875,83.70537 L 99.629375,81.90787 C 98.156875,81.90787 97.400625,81.72662 96.106875,80.43412 C 95.030625,79.35537 92.980625,76.40787 91.181875,73.27662 C 93.410625,71.62662 94.414375,68.96787 94.414375,66.95287 C 94.414375,60.91412 88.484375,60.41162 85.608125,60.41162 C 83.129375,60.41162 79.101875,60.69787 76.730625,60.84162 L 76.730625,62.77912 C 79.101875,62.77912 79.459375,63.39412 79.459375,66.30537 L 79.459375,78.95912 C 79.459375,80.32537 79.351875,81.65537 76.659375,81.94287 L 76.659375,83.77662 L 86.293125,83.77662 L 86.293125,81.83537 C 84.061875,81.72662 83.740625,80.61537 83.740625,79.38912 L 83.740625,74.82662 L 85.931875,74.82662 z M 83.740625,65.58287 C 83.740625,65.40787 83.814375,64.07662 83.848125,63.21412 C 84.530625,63.10537 85.320625,63.07037 85.499375,63.07037 C 87.801875,63.07037 89.814375,64.36537 89.814375,67.63537 C 89.814375,71.41162 88.015625,72.23787 85.573125,72.23787 L 83.740625,72.23787 L 83.740625,65.58287 z" id="path47" style="fill:#ffffff;fill-opacity:1;fill-rule:nonzero;stroke:none"/><path d="M 108.49838,81.37062 C 106.87837,81.37062 102.60088,80.97187 102.49213,76.08437 L 100.55088,76.08437 L 100.55088,82.62812 C 103.21212,83.66937 105.29712,84.38812 108.42212,84.38812 C 114.60962,84.38812 116.18962,80.75437 116.18962,78.06187 C 116.18962,75.94062 115.54463,74.39437 114.07213,72.92062 C 112.30963,71.12312 109.93712,70.18812 107.85088,68.89312 C 106.48338,68.03187 105.44212,67.16937 105.44212,65.58312 C 105.44212,64.68687 105.94337,63.17562 108.89338,63.17562 C 112.26837,63.17562 113.09963,64.76062 113.31588,68.13937 L 115.36588,68.13937 L 115.36588,60.80562 C 112.63088,60.66187 112.59463,60.15937 108.38838,60.15937 C 103.57212,60.15937 101.12588,63.03187 101.12588,66.44937 C 101.12588,70.47187 104.39963,72.38062 107.23713,73.92687 C 108.38838,74.57062 109.89963,75.25687 110.83212,76.19062 C 111.51963,76.87562 111.76962,77.52187 111.76962,78.45812 C 111.76962,79.89312 111.01587,81.37062 108.49838,81.37062" id="path51" style="fill:#ffffff;fill-opacity:1;fill-rule:nonzero;stroke:none"/><path d="M 140.621,62.779245 L 140.621,60.875495 L 130.91475,60.875495 L 130.91475,62.779245 C 133.1085,62.816745 133.6485,63.032995 133.6485,67.419245 L 133.6485,70.077995 L 124.086,70.077995 L 124.086,67.419245 C 124.086,63.032995 124.62475,62.816745 126.816,62.779245 L 126.816,60.875495 L 117.111,60.875495 L 117.111,62.779245 C 119.411,62.779245 119.841,62.816745 119.841,66.341745 L 119.841,76.875495 C 119.841,81.295495 119.4485,81.439245 117.111,81.942995 L 117.111,83.776745 L 126.816,83.776745 L 126.816,81.942995 C 124.666,81.584245 124.086,81.295495 124.086,79.426745 L 124.086,72.955495 L 133.6485,72.955495 L 133.6485,79.426745 C 133.6485,81.295495 133.07225,81.584245 130.91475,81.942995 L 130.91475,83.776745 L 140.621,83.776745 L 140.621,81.942995 C 138.28475,81.439245 137.88725,81.295495 137.88725,76.875495 L 137.88725,66.341745 C 137.88725,62.816745 138.32475,62.779245 140.621,62.779245" id="path55" style="fill:#ffffff;fill-opacity:1;fill-rule:nonzero;stroke:none"/><path d="M 154.702,81.942995 L 154.702,83.776745 L 163.1845,83.776745 L 163.1845,81.834245 C 161.677,81.834245 161.24575,81.584245 160.70825,80.144245 L 153.40825,60.371745 L 150.85325,60.371745 L 143.8445,79.715495 C 143.417,80.900495 143.0195,81.726745 141.5445,81.942995 L 141.5445,83.776745 L 148.84075,83.776745 L 148.84075,81.834245 C 147.297,81.762995 147.152,81.546745 147.152,80.829245 C 147.152,79.750495 147.94325,77.594245 148.267,76.479245 L 154.88325,76.479245 C 155.60325,78.709245 156.2145,80.685495 156.2145,81.261745 C 156.2145,81.475495 156.2145,81.691745 154.702,81.942995 M 149.237,73.567995 L 151.42825,66.986745 L 153.7695,73.567995 L 149.237,73.567995 z" id="path59" style="fill:#ffffff;fill-opacity:1;fill-rule:nonzero;stroke:none"/><path d="M 164.1065,81.834745 L 164.1065,83.777245 L 180.75275,83.777245 L 180.75275,77.127245 L 178.98775,77.127245 C 178.2365,80.649745 176.869,81.080995 174.3215,81.080995 C 171.514,81.080995 171.33775,80.505995 171.33775,78.888495 C 171.33775,78.888495 171.33775,68.247245 171.3715,65.658495 C 171.4365,63.632245 171.6115,63.193495 172.0915,63.032245 C 172.739,62.779745 173.529,62.779745 174.209,62.674745 L 174.209,60.875995 L 164.1065,60.875995 L 164.1065,62.817245 C 166.12275,62.853495 166.84025,62.963495 166.84025,68.318495 L 166.84025,75.473495 C 166.84025,81.475995 166.08775,81.908495 164.1065,81.834745" id="path63" style="fill:#ffffff;fill-opacity:1;fill-rule:nonzero;stroke:none"/><path d="M 196.55925,77.12687 C 195.80425,80.65062 194.43925,81.08062 191.88675,81.08062 C 189.08425,81.08062 188.90175,80.50562 188.90175,78.88812 C 188.90175,78.88812 188.90175,68.24687 188.93925,65.65812 C 189.00675,63.62812 189.178,63.19312 189.6555,63.03187 C 190.303,62.77937 191.0955,62.77937 191.7805,62.67437 L 191.7805,60.87562 L 181.67925,60.87562 L 181.67925,62.81687 C 183.68925,62.85437 184.408,62.96312 184.408,68.31812 L 184.408,75.47312 C 184.408,81.47562 183.65175,81.90812 181.67925,81.83437 L 181.67925,83.77687 L 198.32175,83.77687 L 198.32175,77.12687 L 196.55925,77.12687 z" id="path67" style="fill:#ffffff;fill-opacity:1;fill-rule:nonzero;stroke:none"/><path d="M 74.9365,103.47612 L 74.9365,88.00237 L 43.4215,88.00237 L 43.4215,103.47612 C 43.4215,110.45862 36.989,120.40737 30.349,120.40737 L 30.349,133.95112 L 88.0115,133.95112 L 88.0115,120.40737 C 81.5815,120.40737 74.9365,110.45862 74.9365,103.47612" id="path71" style="fill:#00562a;fill-opacity:1;fill-rule:nonzero;stroke:none"/><path d="M 43.421,36.697495 L 43.421,56.546245 L 106.1685,56.546245 L 78.88975,11.033745 L 30.3485,11.033745 L 30.3485,22.508745 C 36.9885,22.508745 43.421,29.491245 43.421,36.697495" id="path75" style="fill:#00562a;fill-opacity:1;fill-rule:nonzero;stroke:none"/><path d="M 143.0395,11.03337 L 115.7695,56.54587 L 178.50825,56.54587 L 178.50825,36.69712 C 178.50825,29.49087 184.94325,22.50837 191.58325,22.50837 L 191.58325,11.03337 L 143.0395,11.03337 z" id="path79" style="fill:#00562a;fill-opacity:1;fill-rule:nonzero;stroke:none"/><path d="M 84.901375,88.00287 L 110.96763,130.92537 L 137.03262,88.00287 L 84.901375,88.00287 z" id="path83" style="fill:#00562a;fill-opacity:1;fill-rule:nonzero;stroke:none"/><path d="M 178.50875,103.47612 L 178.50875,88.00237 L 146.995,88.00237 L 146.995,103.47612 C 146.995,110.45862 140.355,120.40737 133.92,120.40737 L 133.92,133.95112 L 191.58375,133.95112 L 191.58375,120.40737 C 184.94375,120.40737 178.50875,110.45862 178.50875,103.47612" id="path95" style="fill:#00562a;fill-opacity:1;fill-rule:nonzero;stroke:none"/><path d="M 188.13625,56.546245 L 188.13625,45.486245 C 188.13625,36.993745 188.08,31.507495 201.62375,31.507495 L 201.62375,-5e-06 L 136.9975,-5e-06 L 110.96875,43.157495 L 84.93,-5e-06 L 20.30375,-5e-06 L 20.30375,31.507495 C 33.84875,31.507495 33.79375,36.993745 33.79375,45.486245 L 33.79375,56.546245 L 7.1054274e-15,56.546245 L 7.1054274e-15,88.002495 L 33.79375,88.002495 L 33.79375,94.221245 C 33.79375,102.44749 33.84875,112.14499 20.30375,112.14499 L 20.30375,144.47874 L 98.09625,144.47874 L 98.09625,129.89999 L 106.85625,144.47874 L 115.07625,144.47874 L 123.8375,129.89999 L 123.8375,144.47874 L 201.62375,144.47874 L 201.62375,112.14499 C 188.08,112.14499 188.13625,102.44749 188.13625,94.221245 L 188.13625,88.002495 L 221.87,88.002495 L 221.87,56.546245 L 188.13625,56.546245 z M 26.31875,26.048745 L 26.31875,6.731245 L 81.175,6.731245 L 110.96875,56.324995 L 140.755,6.731245 L 195.6175,6.731245 L 195.6175,26.048745 C 187.05875,26.048745 182.29,32.092495 182.29,39.802495 L 182.29,56.546245 L 39.63875,56.546245 L 39.63875,39.802495 C 39.63875,32.092495 34.87375,26.048745 26.31875,26.048745 M 164.10625,62.817495 L 164.10625,60.876245 L 174.20875,60.876245 L 174.20875,62.673745 C 173.52875,62.778745 172.73875,62.778745 172.09125,63.032495 C 171.6125,63.193745 171.43625,63.632495 171.37125,65.658745 L 171.3375,78.888745 C 171.3375,80.506245 171.51375,81.079995 174.32125,81.079995 C 176.86875,81.079995 178.23625,80.649995 178.98875,77.127495 L 180.75375,77.127495 L 180.75375,83.777495 L 164.10625,83.777495 L 164.10625,81.834995 C 166.0875,81.908745 166.84,81.474995 166.84,75.473745 L 166.84,68.318745 C 166.84,62.963745 166.12375,62.853745 164.10625,62.817495 M 154.8825,76.478745 L 148.2675,76.478745 C 147.94375,77.594995 147.15125,79.751245 147.15125,80.829995 C 147.15125,81.546245 147.29625,81.763745 148.84,81.834995 L 148.84,83.777495 L 141.545,83.777495 L 141.545,81.942495 C 143.02,81.726245 143.41625,80.901245 143.845,79.714995 L 150.8525,60.371245 L 153.4075,60.371245 L 160.70875,80.144995 C 161.24625,81.583745 161.67625,81.834995 163.185,81.834995 L 163.185,83.777495 L 154.7025,83.777495 L 154.7025,81.942495 C 156.215,81.692495 156.215,81.474995 156.215,81.261245 C 156.215,80.686245 155.60375,78.708745 154.8825,76.478745 M 140.62125,81.942495 L 140.62125,83.777495 L 130.915,83.777495 L 130.915,81.942495 C 133.0725,81.583745 133.64875,81.296245 133.64875,79.427495 L 133.64875,72.956245 L 124.085,72.956245 L 124.085,79.427495 C 124.085,81.296245 124.66625,81.583745 126.81625,81.942495 L 126.81625,83.777495 L 117.11125,83.777495 L 117.11125,81.942495 C 119.44875,81.438745 119.84125,81.296245 119.84125,76.876245 L 119.84125,66.341245 C 119.84125,62.817495 119.41125,62.778745 117.11125,62.778745 L 117.11125,60.876245 L 126.81625,60.876245 L 126.81625,62.778745 C 124.625,62.817495 124.085,63.032495 124.085,67.418745 L 124.085,70.077495 L 133.64875,70.077495 L 133.64875,67.418745 C 133.64875,63.032495 133.10875,62.817495 130.915,62.778745 L 130.915,60.876245 L 140.62125,60.876245 L 140.62125,62.778745 C 138.325,62.778745 137.8875,62.817495 137.8875,66.341245 L 137.8875,76.876245 C 137.8875,81.296245 138.285,81.438745 140.62125,81.942495 M 110.8325,76.191245 C 109.9,75.257495 108.38875,74.571245 107.2375,73.927495 C 104.39875,72.381245 101.12625,70.472495 101.12625,66.449995 C 101.12625,63.032495 103.57125,60.159995 108.38875,60.159995 C 112.595,60.159995 112.63,60.661245 115.36625,60.806245 L 115.36625,68.139995 L 113.315,68.139995 C 113.09875,64.759995 112.26875,63.174995 108.8925,63.174995 C 105.94375,63.174995 105.44125,64.687495 105.44125,65.582495 C 105.44125,67.168745 106.48375,68.031245 107.85125,68.892495 C 109.9375,70.187495 112.31,71.122495 114.07125,72.919995 C 115.545,74.394995 116.18875,75.941245 116.18875,78.061245 C 116.18875,80.754995 114.61,84.388745 108.4225,84.388745 C 105.29625,84.388745 103.2125,83.669995 100.55125,82.627495 L 100.55125,76.083745 L 102.49125,76.083745 C 102.60125,80.972495 106.87875,81.369995 108.49875,81.369995 C 111.015,81.369995 111.76875,79.893745 111.76875,78.457495 C 111.76875,77.521245 111.52,76.876245 110.8325,76.191245 M 86.29375,81.834995 L 86.29375,83.777495 L 76.65875,83.777495 L 76.65875,81.942495 C 79.3525,81.654995 79.45875,80.324995 79.45875,78.958745 L 79.45875,66.304995 C 79.45875,63.393745 79.1025,62.778745 76.73,62.778745 L 76.73,60.841245 C 79.1025,60.697495 83.13,60.411245 85.60875,60.411245 C 88.485,60.411245 94.415,60.913745 94.415,66.952495 C 94.415,68.967495 93.41125,71.627495 91.1825,73.277495 C 92.98,76.407495 95.03125,79.354995 96.10625,80.434995 C 97.4,81.726245 98.15625,81.908745 99.63,81.908745 L 99.59125,83.704995 C 98.01375,84.064995 97.14875,84.207495 96.28875,84.207495 C 94.37875,84.207495 93.26375,83.418745 92.33125,82.448745 C 91.25125,81.369995 88.81,77.809995 87.11875,74.753745 C 86.7575,74.753745 86.3975,74.826245 85.93125,74.826245 L 83.74125,74.826245 L 83.74125,79.388745 C 83.74125,80.614995 84.0625,81.726245 86.29375,81.834995 M 67.43125,76.478745 L 60.8175,76.478745 C 60.4925,77.594995 59.7025,79.751245 59.7025,80.829995 C 59.7025,81.546245 59.845,81.763745 61.39125,81.834995 L 61.39125,83.777495 L 54.0925,83.777495 L 54.0925,81.942495 C 55.57,81.726245 55.9625,80.901245 56.39375,79.714995 L 63.40125,60.371245 L 65.95875,60.371245 L 73.25875,80.144995 C 73.79375,81.583745 74.2275,81.834995 75.735,81.834995 L 75.735,83.777495 L 67.2525,83.777495 L 67.2525,81.942495 C 68.76125,81.692495 68.76125,81.474995 68.76125,81.261245 C 68.76125,80.686245 68.14875,78.708745 67.43125,76.478745 M 31.95875,81.942495 L 31.95875,83.777495 L 23.5475,83.777495 L 23.5475,81.942495 C 25.67,81.619995 26.065,81.403745 26.17125,77.738745 C 26.2425,74.429995 26.17125,66.014995 26.17125,64.506245 C 26.17125,63.321245 26.065,62.924995 23.5475,62.601245 L 23.5475,60.806245 L 30.8125,60.806245 L 38.50125,76.982495 L 45.72875,60.806245 L 53.16875,60.806245 L 53.16875,62.601245 C 51.0875,62.891245 50.68875,63.287495 50.51,63.644995 C 50.22375,64.329995 50.32875,65.766245 50.32875,66.522495 L 50.32875,79.031245 C 50.32875,80.754995 50.97625,81.619995 53.16875,81.942495 L 53.16875,83.777495 L 42.96125,83.777495 L 42.96125,81.834995 C 45.55,81.763745 45.585,81.438745 45.585,79.103745 L 45.585,68.931245 L 39.07875,83.777495 L 36.4575,83.777495 L 29.1925,68.568745 L 29.1925,78.743745 C 29.1925,81.152495 29.4425,81.619995 31.95875,81.942495 M 92.02375,138.04749 L 26.31875,138.04749 L 26.31875,117.51625 C 34.87375,117.51625 39.63875,108.45874 39.63875,100.14499 L 39.63875,88.002495 L 78.61375,88.002495 L 78.61375,100.14499 C 78.61375,108.98374 83.8775,117.51625 92.02375,117.51625 L 92.02375,138.04749 z M 110.96875,139.27499 L 80.03875,88.002495 L 141.895,88.002495 L 110.96875,139.27499 z M 195.6175,117.51625 L 195.6175,138.04749 L 129.90875,138.04749 L 129.90875,117.51625 C 138.0525,117.51625 143.31875,108.98374 143.31875,100.14499 L 143.31875,88.002495 L 182.29,88.002495 L 182.29,100.14499 C 182.29,108.45874 187.05875,117.51625 195.6175,117.51625 M 198.32125,83.777495 L 181.67875,83.777495 L 181.67875,81.834995 C 183.65125,81.908745 184.4075,81.474995 184.4075,75.473745 L 184.4075,68.318745 C 184.4075,62.963745 183.69,62.853745 181.67875,62.817495 L 181.67875,60.876245 L 191.78,60.876245 L 191.78,62.673745 C 191.095,62.778745 190.3025,62.778745 189.65625,63.032495 C 189.17875,63.193745 189.00625,63.628745 188.94,65.658745 L 188.90125,78.888745 C 188.90125,80.506245 189.085,81.079995 191.88625,81.079995 C 194.44,81.079995 195.805,80.649995 196.55875,77.127495 L 198.32125,77.127495 L 198.32125,83.777495 z" id="path99" style="fill:#000000;fill-opacity:1;fill-rule:nonzero;stroke:none"/><path d="M 85.57275,72.237245 C 88.0165,72.237245 89.814,71.412245 89.814,67.635995 C 89.814,64.365995 87.8015,63.070995 85.499,63.070995 C 85.32025,63.070995 84.5315,63.104745 83.84775,63.214745 C 83.81525,64.075995 83.7415,65.407245 83.7415,65.582245 L 83.7415,72.237245 L 85.57275,72.237245 z" id="path103" style="fill:#000000;fill-opacity:1;fill-rule:nonzero;stroke:none"/><path d="M 61.786,73.56812 L 66.31975,73.56812 L 63.97975,66.98687 L 61.786,73.56812 z" id="path107" style="fill:#000000;fill-opacity:1;fill-rule:nonzero;stroke:none"/><path d="M 149.2375,73.56812 L 153.76875,73.56812 L 151.42875,66.98687 L 149.2375,73.56812 z" id="path111" style="fill:#000000;fill-opacity:1;fill-rule:nonzero;stroke:none"/><path d="M 204.01575,136.80237 L 206.5595,136.80237 L 206.5595,144.47862 L 207.48325,144.47862 L 207.48325,136.80237 L 210.16075,136.80237 L 210.16075,135.87862 L 204.01575,135.87862 L 204.01575,136.80237 z" id="path115" style="fill:#000000;fill-opacity:1;fill-rule:nonzero;stroke:none"/><path d="M 215.0735,142.87462 L 212.86725,135.87837 L 211.38725,135.87837 L 211.38725,144.47837 L 212.3085,144.47837 L 212.3085,137.17337 L 214.6135,144.47837 L 215.5335,144.47837 L 217.836,137.17337 L 217.836,144.47837 L 218.75975,144.47837 L 218.75975,135.87837 L 217.2785,135.87837 L 215.0735,142.87462 z" id="path119" style="fill:#000000;fill-opacity:1;fill-rule:nonzero;stroke:none"/></svg>