<?xml version="1.0" encoding="UTF-8" standalone="no"?>
<!-- Created with Inkscape (http://www.inkscape.org/) -->

<svg
   xmlns:dc="http://purl.org/dc/elements/1.1/"
   xmlns:cc="http://creativecommons.org/ns#"
   xmlns:rdf="http://www.w3.org/1999/02/22-rdf-syntax-ns#"
   xmlns:svg="http://www.w3.org/2000/svg"
   xmlns="http://www.w3.org/2000/svg"
   version="1.0"
   width="280.00003"
   height="200"
   viewBox="0 0 224.00003 160"
   id="svg2">
  <defs
     id="defs46" />
  <metadata
     id="metadata4">
Created by potrace 1.11, written by Peter Selinger 2001-2013
<rdf:RDF>
  <cc:Work
     rdf:about="">
    <dc:format>image/svg+xml</dc:format>
    <dc:type
       rdf:resource="http://purl.org/dc/dcmitype/StillImage" />
    <dc:title></dc:title>
  </cc:Work>
</rdf:RDF>
</metadata>
  <g
     transform="matrix(0.01493469,0,0,-0.01493469,-0.02032276,144.0289)"
     id="g6"
     style="fill:#000000;stroke:none">
    <path
       d="m 4384,7884 c -84,-174 -154,-318 -154,-320 0,-2 88,-4 195,-4 l 195,0 0,-580 0,-580 -47,0 -48,0 -122,-305 -121,-305 523,0 522,0 122,298 c 67,163 121,300 121,305 0,4 -65,7 -145,7 l -145,0 0,225 0,226 63,-68 c 102,-112 207,-222 518,-548 162,-171 324,-340 358,-377 l 63,-68 219,0 219,0 0,905 0,905 58,0 c 54,0 60,2 71,28 29,61 241,562 241,567 0,3 -244,5 -542,5 l -543,0 -34,-78 c -27,-62 -85,-200 -218,-519 -4,-10 30,-13 151,-13 l 156,0 0,-231 c 0,-215 -1,-230 -17,-218 -19,16 -484,538 -753,846 l -185,212 -283,1 -283,0 -155,-316 z m 1221,-389 c 301,-333 550,-605 551,-605 2,0 4,180 4,400 l 0,400 -131,0 c -101,0 -130,3 -126,13 3,6 42,99 87,205 l 82,192 435,0 c 412,0 434,-1 429,-18 -3,-10 -42,-101 -85,-202 l -80,-185 -75,-3 -76,-3 0,-899 0,-900 -144,0 -144,0 -239,248 c -353,368 -549,575 -741,784 l -172,188 0,-405 0,-404 124,-3 123,-3 -58,-140 c -33,-77 -71,-168 -85,-202 l -26,-63 -414,0 -413,0 83,203 82,202 62,3 62,3 0,679 0,680 -165,0 c -91,0 -165,2 -165,4 0,2 48,101 106,220 l 106,216 228,0 227,0 548,-605 z"
       id="path8" />
    <path
       d="m 4550,7884 c -44,-92 -80,-169 -80,-170 0,-2 68,-4 150,-4 l 150,0 0,-730 0,-729 -72,-3 -72,-3 -58,-145 c -32,-80 -58,-148 -58,-152 0,-5 161,-8 359,-8 l 359,0 12,33 c 7,17 35,85 62,151 27,65 47,121 43,124 -3,3 -52,4 -110,3 l -105,-3 0,494 0,493 38,-40 c 38,-40 229,-249 325,-355 52,-58 95,-103 377,-400 96,-101 189,-198 205,-216 17,-17 86,-88 154,-158 l 124,-126 109,0 108,0 0,900 0,899 86,3 85,3 48,115 c 27,63 56,132 65,153 l 16,37 -384,0 -384,0 -43,-97 c -23,-54 -53,-124 -65,-155 l -23,-58 120,0 119,0 0,-492 0,-493 -43,45 c -23,25 -121,132 -217,239 -96,107 -180,199 -185,205 -6,6 -100,110 -209,231 -110,121 -236,261 -281,310 -45,50 -117,129 -161,177 l -79,88 -202,0 -202,0 -81,-166 z"
       id="path10" />
    <path
       d="m 7795,7790 c -316,-49 -600,-203 -757,-409 -252,-332 -272,-879 -46,-1226 144,-223 373,-364 656,-405 107,-16 372,-7 472,15 257,57 514,225 648,422 47,69 113,197 132,256 l 12,37 161,-2 162,-3 3,-67 c 3,-65 2,-68 -20,-68 -21,0 -36,-29 -142,-267 -66,-148 -121,-271 -123,-275 -2,-5 204,-8 458,-8 l 462,0 -5,260 c -3,143 -4,260 -3,260 1,0 105,-117 231,-260 l 229,-260 720,0 720,1 117,257 c 64,141 120,265 123,275 7,16 -4,17 -134,17 l -141,0 0,335 0,335 171,2 172,3 148,355 c 82,195 152,365 155,378 l 6,22 -752,-2 -752,-3 -173,-375 -172,-375 270,-3 c 248,-2 271,-1 283,15 12,15 13,-33 8,-332 -4,-192 -9,-352 -11,-355 -3,-3 -86,-4 -184,-3 -272,3 -257,-4 -466,211 l -171,177 57,60 c 111,117 169,245 178,390 10,159 -36,275 -156,395 -86,86 -173,136 -296,172 -77,22 -94,23 -463,23 l -383,0 -120,-269 c -65,-148 -119,-270 -119,-272 0,-2 22,-4 48,-4 27,0 90,-3 140,-6 l 92,-7 0,-74 0,-74 -151,3 -152,3 -19,70 c -23,83 -83,214 -129,282 -116,169 -305,298 -519,353 -97,25 -369,36 -475,20 z m 310,-90 c 247,-28 436,-125 570,-293 72,-89 138,-226 167,-346 l 23,-91 232,0 233,0 0,170 0,169 -113,3 -114,3 78,175 77,175 364,0 363,0 75,-29 c 243,-92 370,-274 340,-487 -12,-82 -37,-153 -79,-218 -31,-48 -119,-138 -174,-177 l -28,-20 195,-204 c 273,-286 281,-290 677,-290 l 199,0 0,535 0,535 -29,0 c -27,0 -34,-8 -83,-102 l -55,-103 -166,-3 c -134,-2 -167,0 -167,11 0,7 56,134 124,283 l 123,269 652,3 c 358,1 651,-1 650,-5 0,-5 -53,-132 -117,-283 l -117,-275 -123,-3 -122,-3 0,106 0,105 -65,0 -65,0 2,-532 3,-533 113,-3 c 105,-2 113,-4 107,-21 -3,-10 -39,-90 -79,-177 l -74,-159 -663,-2 -664,-3 -295,326 c -162,179 -301,331 -309,337 -12,10 -13,-38 -6,-326 l 7,-337 -336,0 c -185,0 -336,3 -336,6 0,3 35,84 77,180 l 77,174 38,0 38,0 0,165 0,165 -244,0 -245,0 -16,-57 c -119,-410 -513,-681 -992,-683 -441,-1 -769,238 -875,639 -25,98 -34,297 -19,416 46,352 266,616 620,745 186,68 362,90 546,70 z"
       id="path12" />
    <path
       d="m 7835,7649 c -222,-25 -447,-125 -598,-268 -111,-104 -176,-212 -224,-368 -25,-82 -27,-101 -27,-278 0,-214 13,-284 79,-420 75,-157 194,-273 357,-350 141,-66 219,-80 428,-79 154,1 186,4 272,27 117,31 247,90 333,152 85,61 192,179 245,270 42,75 100,227 100,265 0,19 9,20 290,20 l 290,0 0,-215 0,-215 -49,0 -48,0 -43,-97 c -24,-54 -49,-113 -57,-130 l -13,-33 276,0 277,0 -5,355 c -5,335 -4,355 13,355 9,0 29,-15 44,-32 29,-35 78,-90 179,-198 59,-63 148,-160 346,-378 l 94,-102 640,2 640,3 56,125 57,125 -101,5 -101,5 -3,583 -2,582 115,0 115,0 0,-105 0,-105 83,0 82,0 90,217 c 50,119 93,225 97,235 7,17 -15,18 -593,18 l -600,0 -31,-67 c -17,-38 -64,-140 -104,-227 -41,-88 -74,-163 -74,-168 0,-4 53,-8 118,-8 l 117,0 55,105 55,105 68,0 67,0 -2,-582 -3,-583 -265,0 c -282,0 -333,7 -420,51 -41,20 -176,152 -424,411 l -78,83 62,46 c 138,101 220,221 241,354 32,202 -86,375 -309,452 -65,22 -77,23 -412,23 l -345,0 -52,-120 c -28,-66 -52,-123 -52,-127 -1,-5 44,-8 99,-8 l 100,0 0,-220 0,-220 -279,0 -278,0 -7,52 c -11,80 -62,225 -108,308 -26,48 -70,104 -122,156 -67,66 -99,89 -176,127 -172,85 -351,112 -575,86 z m 220,-295 c 89,-22 198,-77 254,-129 27,-25 65,-76 84,-113 36,-68 70,-178 61,-194 -3,-4 -76,-8 -163,-8 l -158,0 -60,-142 -61,-143 219,-3 c 121,-1 219,-6 219,-11 0,-17 -39,-119 -65,-171 -28,-55 -132,-170 -154,-170 -6,0 -14,-6 -17,-14 -9,-24 -135,-74 -214,-85 -234,-32 -491,93 -594,287 -52,100 -69,184 -70,332 0,265 87,427 279,520 136,66 288,81 440,44 z m 1786,-8 c 135,-29 199,-85 207,-182 6,-69 -9,-105 -66,-154 -48,-42 -172,-90 -235,-90 l -32,0 3,207 c 1,115 5,214 7,221 6,16 34,15 116,-2 z"
       id="path14" />
    <path
       d="m 7810,7320 c -141,-18 -276,-92 -340,-184 -108,-157 -119,-481 -22,-660 93,-173 346,-290 555,-256 166,26 303,138 366,298 l 21,52 -225,2 -224,3 81,192 81,192 146,3 c 169,3 161,-4 109,110 -37,81 -113,157 -190,193 -104,47 -250,70 -358,55 z m 190,-100 c 77,-15 159,-55 208,-103 23,-22 42,-45 42,-49 0,-4 -48,-9 -106,-10 l -105,-3 -120,-284 c -65,-156 -119,-285 -119,-287 0,-2 97,-4 215,-4 140,0 215,-4 215,-10 0,-22 -94,-103 -148,-128 -51,-24 -68,-27 -162,-26 -85,0 -116,5 -163,23 -121,48 -225,152 -258,261 -6,19 -13,91 -16,160 -7,181 22,284 104,361 94,90 256,129 413,99 z"
       id="path16" />
    <path
       d="m 9770,7177 c 0,-72 -3,-150 -7,-171 l -6,-39 38,7 c 64,12 138,51 173,90 28,32 32,44 32,93 0,51 -3,59 -35,88 -32,31 -65,43 -162,59 l -33,6 0,-133 z"
       id="path18" />
    <path
       d="m 12370,7504 c -63,-146 -116,-270 -118,-275 -2,-4 50,-10 115,-11 l 118,-3 3,-437 2,-438 -29,0 c -27,0 -35,-12 -151,-222 -68,-123 -136,-247 -152,-275 l -30,-53 491,0 491,0 0,365 0,365 200,0 200,0 0,-89 c 0,-83 -2,-90 -21,-93 -16,-2 -43,-53 -130,-243 -61,-132 -117,-255 -124,-273 l -14,-32 461,2 461,3 122,270 123,270 -119,3 -119,3 2,437 c 3,435 3,437 24,440 17,2 44,53 137,255 64,139 119,260 123,270 6,16 -20,17 -458,17 l -464,0 -121,-267 -121,-268 119,-3 119,-3 0,-59 0,-60 -200,0 -200,0 0,335 0,335 -313,0 -312,0 -115,-266 z m 650,-171 0,-336 286,6 c 157,3 289,8 292,12 3,3 8,71 10,150 l 5,145 -97,0 c -53,0 -96,2 -96,3 0,2 35,82 78,178 l 79,174 361,3 360,2 -82,-177 -82,-178 -37,-3 -37,-3 0,-534 0,-534 88,-3 88,-3 -80,-177 -81,-178 -354,0 c -332,0 -353,1 -346,18 3,9 39,90 78,179 l 72,162 40,3 40,3 0,185 0,185 -292,3 -293,2 -2,-367 -3,-368 -358,-3 c -286,-2 -358,0 -355,10 2,7 44,88 93,180 l 90,168 48,0 47,0 0,535 0,534 -94,3 -94,3 75,178 76,177 239,0 238,0 0,-337 z"
       id="path20" />
    <path
       d="m 12605,7623 c -27,-4 -34,-12 -64,-81 -19,-42 -44,-99 -56,-127 l -22,-50 83,-3 84,-3 0,-579 0,-579 -57,-3 -58,-3 -55,-101 c -30,-56 -60,-108 -66,-115 -6,-8 -14,-22 -17,-31 -6,-17 12,-18 293,-18 l 300,0 0,365 0,365 340,0 340,0 0,-235 0,-235 -48,0 -47,0 -50,-112 c -28,-62 -53,-120 -57,-130 -7,-17 8,-18 296,-18 l 303,0 16,33 c 18,35 97,218 97,223 0,2 -33,4 -72,6 l -73,3 -3,583 -2,582 47,0 48,0 55,121 c 30,67 57,126 58,130 2,6 -127,8 -304,7 l -307,-3 -58,-127 c -34,-76 -53,-128 -46,-129 7,-1 42,0 80,1 l 67,2 0,-201 0,-201 -340,0 -340,0 0,335 0,335 -167,-2 c -93,0 -182,-3 -198,-5 z"
       id="path22" />
    <path
       d="m 14780,7645 c 0,-96 3,-115 15,-115 12,0 15,17 16,88 l 0,87 31,-87 c 22,-61 36,-88 47,-88 11,0 25,27 46,88 l 30,87 3,-87 c 2,-69 6,-88 17,-88 12,0 15,21 15,115 0,114 0,115 -24,115 -21,0 -27,-10 -51,-85 -15,-47 -30,-85 -35,-85 -4,0 -20,38 -36,85 -24,74 -31,85 -51,85 -23,0 -23,-2 -23,-115 z"
       id="path24" />
    <path
       d="M 548,7505 C 534,7478 432,7261 322,7024 186,6731 118,6574 109,6531 c -25,-131 7,-260 95,-374 l 37,-48 -110,-227 C 13,5638 -5,5582 3,5482 12,5361 110,5212 249,5108 l 34,-26 -98,-208 C 48,4581 41,4552 82,4443 c 30,-82 140,-189 278,-272 179,-108 790,-473 1630,-974 443,-264 908,-541 1033,-616 l 228,-136 -743,-3 c -793,-3 -852,0 -945,44 -48,23 -59,24 -202,22 l -150,-3 682,-648 c 375,-357 706,-664 736,-682 63,-40 125,-55 227,-55 115,0 236,29 632,154 l 364,114 171,-75 172,-75 62,-82 c 166,-218 429,-473 675,-655 l 97,-71 -6,-63 c -8,-86 15,-160 84,-272 31,-50 57,-91 58,-93 2,-2 26,43 53,100 27,57 69,124 91,150 52,58 147,108 207,108 61,0 68,-18 60,-148 l -6,-103 76,52 c 144,100 217,212 218,334 2,181 -119,286 -314,272 -41,-3 -81,-7 -89,-9 -15,-4 -156,242 -144,253 5,4 52,31 106,61 l 99,54 101,-19 c 100,-18 120,-28 145,-74 5,-8 52,-18 132,-28 133,-17 238,-39 255,-56 18,-18 -18,-63 -93,-114 l -73,-49 38,-15 c 62,-24 242,-20 329,7 160,49 274,166 274,279 0,62 -51,155 -126,231 l -67,67 -2,105 c -2,180 -52,271 -234,433 -105,92 -441,403 -620,573 l -83,79 12,99 c 9,66 11,160 7,278 l -6,178 441,2 441,3 122,297 122,298 -152,0 -152,0 -6,233 c -4,127 -7,395 -7,595 l 0,362 35,0 35,0 0,-145 0,-145 208,0 207,0 188,438 c 103,240 187,443 187,450 0,9 -210,12 -1013,12 l -1013,0 -204,-445 c -113,-245 -208,-444 -211,-442 -4,1 -174,191 -379,422 -205,231 -403,454 -440,495 -96,107 -926,1043 -1107,1247 -178,201 -206,248 -209,348 -2,58 -11,90 -52,189 l -49,118 -25,-53 c -14,-30 -87,-191 -163,-359 l -139,-305 -4,-91 c -5,-108 0,-120 99,-245 l 68,-86 -102,-229 c -93,-209 -101,-234 -102,-291 0,-56 -2,-61 -16,-50 -58,42 -1388,1273 -1406,1300 -47,74 -68,197 -44,260 8,19 0,45 -35,128 -24,57 -48,113 -53,124 -7,18 -11,14 -33,-30 z m 45,-147 c 20,-45 22,-61 15,-106 -17,-111 25,-233 113,-324 54,-56 3387,-3119 3425,-3148 11,-8 4,1 -17,20 -20,19 -455,439 -967,933 -821,792 -932,903 -952,949 -36,84 -27,121 89,381 55,125 101,231 101,236 0,5 -38,56 -84,115 -134,168 -132,182 49,583 70,153 128,280 131,282 2,2 15,-21 29,-53 17,-38 25,-75 25,-111 0,-65 28,-144 74,-205 18,-25 455,-520 971,-1100 1045,-1175 1256,-1415 1331,-1510 241,-306 426,-705 500,-1075 26,-127 28,-160 29,-360 0,-121 -4,-248 -8,-282 l -8,-61 193,-183 c 106,-100 283,-264 393,-363 252,-228 279,-256 318,-336 30,-62 32,-71 33,-186 l 1,-121 72,-68 c 103,-98 142,-173 126,-245 -10,-46 -95,-127 -167,-159 -77,-34 -132,-48 -223,-56 l -70,-6 28,21 c 42,33 80,105 73,136 -12,47 -143,89 -338,109 -62,7 -69,10 -87,39 -19,30 -27,33 -134,54 -62,12 -123,22 -134,22 -26,0 -289,-145 -285,-156 2,-5 42,-82 90,-172 82,-153 89,-162 112,-157 138,29 194,28 261,-6 40,-20 85,-69 101,-108 19,-48 11,-125 -17,-185 -25,-54 -130,-176 -150,-176 -6,0 -9,23 -7,53 5,69 -17,124 -53,133 -128,32 -308,-74 -379,-224 -16,-34 -32,-62 -36,-62 -3,0 -20,27 -38,59 -44,80 -56,151 -38,219 l 13,53 -85,61 c -276,199 -556,471 -746,723 -36,48 -46,54 -225,131 l -188,82 -299,-94 c -537,-169 -625,-190 -748,-178 -127,12 -126,11 -822,673 -348,332 -634,606 -634,609 0,13 158,-8 195,-26 87,-43 115,-45 940,-49 435,-2 833,-3 885,-1 l 95,3 -50,29 c -101,59 -2406,1433 -2884,1719 -338,203 -418,286 -409,421 4,52 20,96 118,305 l 114,243 -29,22 c -127,91 -213,188 -245,273 -24,64 -27,172 -6,229 7,22 64,142 125,268 l 111,228 -45,50 c -84,94 -120,207 -103,330 7,50 47,145 205,485 108,233 198,423 200,423 2,0 14,-24 26,-52 z M 7030,5387 c 0,-8 -65,-164 -144,-348 l -145,-334 -125,-3 -126,-3 0,146 0,145 -130,0 -130,0 0,-695 0,-694 129,-3 129,-3 -82,-197 -81,-198 -417,0 -416,0 -11,50 c -6,28 -11,57 -11,63 0,7 24,73 54,147 l 54,135 61,3 61,3 0,694 0,695 -137,0 -138,0 -83,-145 -84,-145 -179,0 c -98,0 -179,2 -179,5 0,5 307,672 317,688 2,4 411,7 909,7 744,0 904,-2 904,-13 z m -1430,-1092 0,-595 -42,0 -43,0 -44,-111 -44,-112 -32,89 c -121,335 -289,617 -553,924 l -90,105 282,3 282,2 83,145 83,145 59,0 59,0 0,-595 z"
       id="path26" />
    <path
       d="m 400,6947 c -85,-188 -162,-364 -172,-392 -36,-103 -16,-230 52,-324 33,-46 79,-84 591,-498 160,-129 793,-642 919,-744 58,-47 150,-121 205,-166 129,-104 457,-369 616,-499 68,-55 203,-164 299,-242 208,-168 372,-301 539,-437 68,-55 138,-111 156,-125 29,-22 34,-32 37,-78 1,-28 -1,-52 -5,-52 -4,0 -33,20 -65,45 -31,25 -196,152 -367,283 -170,131 -339,260 -375,288 -99,77 -647,498 -779,598 C 1776,4815 637,5690 550,5757 417,5861 375,5926 361,6047 l -6,52 -119,-246 C 124,5622 117,5603 112,5534 c -4,-66 -2,-79 27,-140 46,-98 118,-161 447,-389 159,-109 399,-276 534,-370 463,-324 2035,-1419 2285,-1592 249,-173 250,-174 263,-221 7,-26 11,-55 10,-65 -2,-14 -209,119 -938,604 -514,342 -1223,813 -1575,1046 -352,233 -654,436 -671,452 -40,37 -73,109 -82,178 l -7,54 -114,-243 C 163,4574 154,4539 190,4466 c 34,-71 121,-141 332,-267 364,-219 1808,-1080 2763,-1648 187,-112 344,-207 349,-212 14,-13 -1837,-12 -1944,2 -47,5 -111,21 -143,34 l -59,23 98,-91 c 54,-51 130,-123 169,-160 42,-41 96,-81 135,-100 l 65,-32 380,-5 380,-5 55,-26 55,-26 -50,-6 c -113,-15 -603,-49 -645,-45 -25,3 -74,17 -110,31 l -65,26 100,-97 c 165,-160 227,-214 270,-233 70,-32 104,-29 675,62 l 315,51 55,-27 c 30,-16 51,-29 45,-31 -10,-4 -392,-87 -665,-145 -165,-36 -255,-36 -334,0 -43,18 -36,10 90,-112 203,-196 217,-203 383,-194 126,7 124,7 598,154 l 371,115 202,-88 201,-87 46,-61 c 118,-155 335,-384 498,-526 73,-64 230,-183 307,-235 l 57,-37 -19,-39 c -23,-43 -26,-112 -8,-170 l 11,-39 33,49 c 102,151 325,241 432,174 27,-17 52,-70 52,-110 0,-28 0,-28 26,10 64,95 79,172 46,237 -28,57 -73,80 -157,80 -39,0 -94,-7 -121,-15 -27,-8 -54,-15 -61,-15 -11,0 -220,372 -229,408 -4,13 31,37 149,104 178,101 161,74 173,284 25,453 -130,917 -449,1343 -68,91 -259,290 -412,431 -38,35 -106,98 -150,140 -220,206 -386,362 -665,620 -168,156 -343,320 -390,364 -90,86 -279,262 -525,491 -82,77 -179,167 -215,200 -104,98 -789,738 -851,795 -8,8 -45,42 -80,76 -35,33 -136,127 -224,209 -88,81 -191,178 -230,215 -38,36 -104,97 -145,135 -441,406 -530,495 -562,565 -34,71 -52,167 -45,230 3,28 5,50 4,50 -1,0 -72,-154 -157,-343 z"
       id="path28" />
    <path
       d="m 2380,6901 c -154,-345 -155,-338 124,-631 39,-41 161,-169 271,-285 110,-115 202,-212 205,-215 3,-3 55,-57 115,-120 106,-111 202,-212 424,-445 58,-61 150,-157 206,-215 481,-501 720,-752 726,-764 9,-17 -2,-106 -13,-106 -5,0 -443,433 -973,963 -1031,1029 -1003,999 -1023,1117 l -7,44 -93,-210 c -51,-115 -95,-226 -99,-246 -10,-64 31,-131 144,-234 54,-49 145,-134 203,-189 98,-93 142,-135 356,-335 44,-41 140,-131 214,-200 74,-69 171,-159 215,-200 145,-137 220,-207 246,-231 15,-13 87,-80 160,-149 125,-116 171,-159 369,-346 41,-39 145,-135 230,-215 85,-79 182,-169 215,-199 33,-31 98,-92 145,-135 271,-250 420,-439 568,-723 l 66,-127 8,45 c 5,25 12,104 17,175 42,574 -181,1149 -673,1735 -44,52 -83,97 -86,100 -3,3 -37,41 -75,85 -60,69 -112,126 -150,169 -6,6 -44,49 -85,96 -41,47 -77,87 -80,90 -8,8 -169,189 -240,270 -36,41 -90,102 -120,135 -92,102 -193,215 -280,315 -46,52 -104,118 -129,145 -55,61 -91,101 -195,220 -44,50 -114,128 -156,175 -93,103 -468,525 -529,595 -58,67 -101,155 -109,225 l -7,57 -105,-236 z"
       id="path30" />
    <path
       d="m 5406,2413 c 46,-119 93,-281 116,-401 20,-102 23,-150 23,-372 0,-162 -5,-282 -13,-329 -7,-40 -10,-76 -8,-79 3,-2 65,-15 138,-29 129,-23 156,-35 170,-72 2,-5 55,-19 119,-30 235,-42 309,-80 309,-161 0,-27 -8,-48 -26,-69 l -25,-30 52,15 c 125,37 228,101 256,158 33,70 2,126 -135,246 l -84,73 -51,-8 c -92,-12 -88,-14 -102,32 -15,49 -62,137 -111,206 -19,26 -32,47 -29,47 3,0 69,-61 148,-135 78,-74 147,-135 154,-135 16,0 26,75 21,153 -2,42 -13,82 -32,120 -26,55 -67,96 -432,432 -176,162 -220,203 -234,215 -23,20 -210,192 -226,208 -24,23 -24,12 2,-55 z"
       id="path32" />
    <path
       d="m 5203,5253 c -23,-49 -78,-169 -123,-268 -45,-99 -86,-184 -90,-190 -4,-5 -10,-18 -13,-28 -6,-16 2,-17 124,-15 l 131,3 82,140 82,140 177,3 177,2 0,-745 0,-745 -67,0 -68,0 -59,-145 c -32,-80 -57,-148 -54,-150 2,-2 181,-5 397,-5 l 393,-1 55,133 c 30,73 57,141 60,151 5,15 -5,17 -111,17 l -116,0 0,745 0,745 180,0 180,0 0,-145 0,-145 84,0 84,0 112,263 c 62,144 119,277 127,295 l 13,32 -858,0 -859,0 -40,-87 z"
       id="path34" />
    <path
       d="m 13180,5496 c -252,-54 -451,-209 -550,-430 -39,-88 -54,-158 -54,-261 0,-159 53,-284 165,-389 131,-124 272,-189 457,-211 63,-7 119,-18 125,-24 6,-6 11,-27 11,-47 0,-71 -72,-102 -214,-92 -82,6 -101,18 -161,100 l -45,63 -135,12 c -206,18 -189,20 -190,-29 0,-24 -4,-63 -7,-88 -6,-38 -9,-42 -21,-30 -7,8 -160,330 -340,715 l -327,700 -198,0 -197,0 -177,-372 -177,-373 -150,0 -150,0 -112,-248 c -62,-136 -115,-255 -119,-264 -6,-17 5,-18 144,-18 l 151,0 -31,-70 -31,-70 -121,1 -121,0 -40,52 c -208,273 -295,391 -293,398 3,7 285,342 641,759 l 174,205 -136,6 c -75,4 -258,7 -408,8 l -271,1 -36,-65 c -34,-62 -306,-444 -316,-444 -3,0 -84,113 -181,252 l -176,252 -298,0 -297,0 -124,-260 -124,-260 230,-5 229,-5 176,-238 c 98,-134 172,-244 168,-250 -28,-48 -321,-415 -374,-468 -78,-77 -239,-220 -427,-377 l -133,-112 468,0 468,0 26,38 c 112,162 322,452 327,452 4,0 88,-113 187,-250 l 179,-250 559,2 559,3 119,259 c 65,142 121,267 124,277 6,17 0,19 -54,19 -34,0 -61,2 -61,5 0,3 13,35 29,70 l 30,65 133,0 133,-1 161,-342 161,-342 359,-6 c 258,-4 372,-9 404,-19 70,-21 319,-19 400,3 147,40 327,149 420,254 126,141 189,284 197,450 10,185 -33,311 -141,418 -106,106 -223,153 -442,180 -126,16 -171,33 -180,69 -13,54 25,86 101,86 71,0 94,-10 106,-49 6,-20 14,-39 18,-43 6,-7 323,-60 326,-55 22,31 214,472 208,476 -5,3 -59,37 -119,75 -182,115 -241,135 -424,141 -83,3 -147,0 -190,-9 z m 375,-114 c 33,-12 101,-47 152,-78 l 92,-56 -23,-51 c -119,-265 -131,-287 -151,-286 -11,0 -54,6 -95,13 l -75,12 -11,39 c -14,52 -44,66 -153,73 -104,5 -157,-8 -196,-48 -24,-26 -30,-40 -33,-94 -8,-130 47,-172 258,-196 288,-32 446,-144 495,-351 20,-86 19,-151 -5,-243 -51,-201 -211,-385 -414,-476 -144,-65 -323,-81 -491,-44 -69,15 -124,17 -390,15 l -310,-3 -164,346 -164,346 -196,0 -196,0 -77,-162 -77,-163 65,-3 c 35,-2 64,-5 64,-7 0,-2 -36,-82 -79,-177 l -79,-173 -505,-3 -505,-2 -203,280 c -112,154 -206,280 -209,280 -6,0 -205,-268 -340,-457 l -72,-103 -311,0 c -264,0 -309,2 -297,14 8,7 78,68 155,134 77,66 172,153 212,194 86,88 424,519 419,534 -8,20 -379,526 -408,555 l -30,29 -164,0 c -160,0 -165,1 -159,20 3,11 37,85 76,165 l 69,145 239,0 240,0 97,-137 c 264,-375 306,-433 312,-433 4,0 97,127 206,281 110,154 204,283 210,285 6,2 134,3 283,2 l 272,-3 -330,-385 c -182,-212 -348,-409 -371,-437 -48,-63 -65,-29 150,-307 86,-110 172,-222 191,-248 l 36,-47 174,2 173,2 64,150 c 35,83 67,158 70,168 5,16 -6,17 -140,17 -80,0 -146,2 -146,4 0,3 33,78 74,168 l 74,163 152,5 152,5 177,372 176,373 131,0 130,0 328,-702 c 180,-386 335,-708 345,-714 15,-12 117,-34 153,-34 12,0 16,19 22,87 3,48 7,87 9,88 1,1 42,-2 91,-6 62,-6 92,-13 98,-23 19,-34 75,-100 98,-117 34,-25 160,-43 243,-35 147,14 217,76 217,192 0,56 -23,107 -58,130 -16,10 -70,22 -145,31 -134,15 -230,47 -319,106 -190,127 -267,298 -228,508 30,163 175,345 340,427 124,61 180,72 340,68 108,-2 147,-7 195,-24 z"
       id="path36" />
    <path
       d="m 13145,5336 c -148,-48 -259,-128 -334,-240 -72,-106 -95,-183 -89,-298 6,-115 34,-194 92,-256 48,-52 136,-114 211,-148 59,-27 183,-54 251,-54 148,0 237,-133 192,-284 -37,-121 -203,-187 -398,-157 -96,15 -144,43 -198,114 l -44,58 -52,-3 -51,-3 -3,-50 c -1,-27 -5,-65 -8,-84 l -5,-34 -78,6 c -83,5 -155,30 -182,63 -8,10 -159,326 -334,702 l -318,682 -101,0 -101,0 -177,-373 -177,-372 -150,-3 -151,-3 -16,-30 c -8,-17 -31,-67 -50,-112 -20,-45 -38,-88 -41,-94 -4,-10 28,-13 141,-13 80,0 146,-3 146,-7 -1,-5 -40,-100 -88,-213 l -88,-205 -199,0 -200,0 -148,190 c -218,281 -298,386 -303,399 -3,7 93,126 211,266 119,140 260,307 313,369 53,63 114,134 136,158 l 39,43 -221,0 -221,0 -213,-300 c -117,-165 -217,-300 -223,-299 -5,0 -60,73 -122,162 -62,89 -156,224 -209,300 l -97,137 -214,0 -214,0 -53,-112 -54,-113 139,-5 138,-5 36,-35 c 29,-28 302,-393 424,-568 l 23,-32 -34,-44 c -311,-409 -445,-563 -607,-694 l -94,-77 228,-3 c 208,-2 231,-1 246,15 15,15 150,197 368,495 31,43 60,76 64,75 4,-1 104,-134 220,-295 l 213,-294 474,2 c 261,0 476,3 479,6 3,3 31,60 62,127 l 56,122 -64,3 c -34,2 -63,7 -63,12 0,5 44,101 98,214 l 97,206 225,0 226,0 163,-345 164,-345 296,0 c 231,0 314,-4 376,-16 109,-22 282,-22 364,0 188,51 368,193 450,358 120,240 53,501 -153,597 -74,35 -123,47 -246,61 -223,26 -310,91 -310,233 0,96 56,171 149,197 53,15 155,12 225,-6 65,-17 96,-37 96,-64 0,-34 24,-51 80,-57 l 55,-5 62,135 61,136 -37,24 c -126,83 -207,107 -366,106 -97,0 -133,-4 -190,-23 z m -1405,-594 c 21,-54 42,-109 45,-124 l 7,-28 -122,0 c -143,0 -136,-21 -52,173 64,149 53,151 122,-21 z"
       id="path38" />
    <path
       d="m 7222,5243 c -62,-142 -112,-261 -112,-265 0,-5 52,-8 115,-8 l 115,0 0,-507 c -1,-280 -5,-527 -9,-550 -4,-23 -52,-119 -105,-213 -54,-95 -94,-175 -91,-178 4,-4 298,-7 653,-7 l 647,0 51,27 c 27,14 66,44 85,65 30,33 246,397 265,446 6,16 -22,17 -445,17 l -451,0 0,65 0,65 318,0 318,0 117,253 c 64,138 119,260 123,270 6,16 -19,17 -435,17 l -441,0 0,115 0,115 61,0 61,0 -4,-55 -3,-55 235,0 235,0 158,315 c 86,173 157,317 157,320 0,3 -339,5 -753,5 l -753,0 -112,-257 z m 1457,150 c 0,-5 -48,-105 -107,-223 l -107,-215 -157,-3 -158,-3 0,56 0,55 -150,0 -150,0 0,-205 0,-205 410,0 c 226,0 410,-3 410,-7 0,-5 -35,-83 -77,-175 l -77,-168 -338,0 -338,0 0,-127 c 0,-71 3,-145 6,-165 l 7,-38 412,-2 413,-3 -77,-132 c -42,-73 -90,-146 -106,-164 -57,-60 -42,-59 -651,-59 -305,0 -554,4 -552,8 2,4 32,60 68,123 l 65,114 3,608 3,607 -87,0 c -65,0 -85,3 -81,13 3,6 33,81 68,165 l 63,152 643,0 c 354,0 643,-3 642,-7 z"
       id="path40" />
    <path
       d="m 7380,5243 c -23,-60 -44,-114 -47,-120 -4,-10 14,-13 71,-13 l 77,0 -3,-627 -3,-628 -52,-97 -53,-98 518,0 c 492,0 519,1 548,19 27,17 128,169 150,226 5,13 -41,15 -390,15 l -396,0 0,215 0,215 344,0 343,0 56,123 56,122 -399,3 -400,2 0,255 0,255 200,0 200,0 0,-55 0,-55 118,0 117,0 88,175 87,175 -594,0 -593,0 -43,-107 z"
       id="path42" />
  </g>
</svg>
