<?xml version="1.0" encoding="UTF-8" standalone="no"?>
<!-- Created with Inkscape (http://www.inkscape.org/) -->

<svg
   xmlns:dc="http://purl.org/dc/elements/1.1/"
   xmlns:cc="http://creativecommons.org/ns#"
   xmlns:rdf="http://www.w3.org/1999/02/22-rdf-syntax-ns#"
   xmlns:svg="http://www.w3.org/2000/svg"
   xmlns="http://www.w3.org/2000/svg"
   version="1.1"
   width="280"
   height="200"
   id="svg8805">
  <defs
     id="defs8807">
    <clipPath
       id="clip62">
      <path
         d="m 159.69922,126 c 0.18359,-0.10937 0.35547,-0.23437 0.51172,-0.375 0.87109,0.26563 1.65234,0.62109 2.30468,1.07813 -0.82031,0.88671 -1.78515,1.63281 -2.85937,2.19531 0.0195,-0.96875 0.0352,-1.9375 0.043,-2.89844 z m 1.52734,-6.32812 c -0.96875,-3.12891 -4.125,-5.31641 -7.25781,-5.35547 -2.78125,-0.1836 -4.58203,1.66015 -4.71484,4.76562 -0.12891,3.00781 1.60937,5.30469 4.14062,6.5 l 0.28516,4.42969 c -4.73438,-0.61328 -8.03907,-4.94531 -8.03907,-9.23047 0,-5.07031 4.64454,-10.10156 10.07422,-10.13281 4.3086,0 9.61328,3.5625 9.64453,8.75781 0.004,0.54297 -0.0352,1.07422 -0.11328,1.59766 -1.32031,-0.64453 -2.72265,-1.0625 -4.01953,-1.33203"
         id="path738" />
    </clipPath>
    <clipPath
       id="clip61">
      <path
         d="m 235.96484,131.30859 c 0.0195,3.67969 -3.11328,6.70703 -6.65234,6.70703 -3.35156,0 -5.75,-2.96484 -5.75,-5.86328 0,-3.1914 2.91406,-6.35156 6.33203,-6.37109 2.69922,0 6.05078,2.23047 6.07031,5.52734 z m -2.66797,1.14453 c 0.0352,-2.23437 -2.29687,-4.08203 -4.47265,-4.10937 -1.375,-0.0234 -2.73438,1.34375 -2.73438,2.76172 0,2.2539 2.23047,4.53515 5.00782,4.39453 1.0664,-0.0547 2.16406,-1.24219 2.19921,-3.04688"
         id="path735" />
    </clipPath>
    <clipPath
       id="clip60">
      <path
         d="m 222.84375,127.85938 c -0.004,0.11328 -0.25,7.49218 -0.22656,10.10156 0.0508,0.0391 0.42578,0.32812 0.64843,0.58984 0.38282,0.44141 0.72266,1.30469 0.72266,1.30469 0,0 -1.87109,-0.23828 -2.80078,-0.25391 -1.11719,-0.0156 -2.72656,0.26563 -2.72656,0.26563 0,0 0.1875,-0.73438 0.45703,-1.125 0.19922,-0.29688 0.46484,-0.5586 0.62109,-0.66407 0.0195,-3.40234 -0.0195,-7.03125 -0.21875,-10.3164 -0.0195,-0.0234 -0.41406,-0.36719 -0.60937,-0.65625 -0.26172,-0.38672 -0.45313,-1.11719 -0.45313,-1.11719 0,0 2.49219,0.10547 3.07422,0.082 0.61328,-0.0234 2.75781,-0.0898 2.75781,-0.0898 0,0 -0.28125,0.87891 -0.64453,1.32031 -0.20312,0.2461 -0.60156,0.5586 -0.60156,0.5586"
         id="path732" />
    </clipPath>
    <clipPath
       id="clip59">
      <path
         d="m 183.09375,131.30859 c 0.0156,3.67969 -3.11719,6.70703 -6.65625,6.70703 -3.34766,0 -5.75,-2.96484 -5.75,-5.86328 0,-3.1914 2.91797,-6.35156 6.33594,-6.37109 2.69922,0 6.05078,2.23047 6.07031,5.52734 z m -2.67188,1.14453 c 0.0391,-2.23437 -2.29687,-4.08203 -4.47265,-4.10937 -1.3711,-0.0234 -2.73047,1.34375 -2.73047,2.76172 0,2.2539 2.23047,4.53515 5.00391,4.39453 1.0664,-0.0547 2.16796,-1.24219 2.19921,-3.04688"
         id="path729" />
    </clipPath>
    <clipPath
       id="clip58">
      <path
         d="m 150.42969,119.64844 c 0,0 1.48047,0.33594 3.10156,0.37109 0.98437,0.0234 2.30859,-0.0312 3.35547,-0.0156 3.38672,0.0547 16.26172,1.21093 12.4414,14.02343 -1.02734,3.45313 -3.88671,5.64063 -7.29296,5.96875 -1.23047,0.1211 -2.50391,0.0156 -3.75782,-0.0937 -2.10547,-0.17968 -5.36718,0.15625 -5.37109,0.15625 l -0.19922,0.0352 c 0,0 0.28125,-1.02344 0.91406,-1.69141 0.70313,-0.74218 1.375,-1.03515 1.375,-1.03515 l -0.90234,-13.58985 c 0,0 -0.71484,-0.21484 -1.26953,-0.58593 -2.10547,-1.40625 -2.39453,-3.54297 -2.39453,-3.54297 z m 8.34765,17.72656 c 2.48828,0.10547 3.66407,-0.48828 5.23047,-2.07813 1.71094,-1.77343 1.70313,-4.53515 1.15625,-6.33984 -0.70703,-2.34765 -2.82812,-3.64062 -5.28125,-4.26562 -0.19922,-0.0469 -0.72656,-0.0703 -1.03515,-0.10938 -0.004,4.19141 -0.13672,8.48828 -0.0703,12.79297"
         id="path726" />
    </clipPath>
    <clipPath
       id="clip57">
      <path
         d="m 202.91406,127.85938 c -0.004,0.11328 -0.25,7.49218 -0.22656,10.10156 0.0508,0.0391 0.42578,0.32812 0.65234,0.58984 0.37891,0.44141 0.72266,1.30469 0.72266,1.30469 0,0 -1.875,-0.23828 -2.80469,-0.25391 -1.11719,-0.0156 -2.72656,0.26563 -2.72656,0.26563 0,0 0.19141,-0.73438 0.45703,-1.125 0.19922,-0.29688 0.46484,-0.5586 0.62109,-0.66407 0.0234,-3.40234 -0.0156,-7.03125 -0.21875,-10.3164 -0.0195,-0.0234 -0.41406,-0.36719 -0.60937,-0.65625 -0.26172,-0.38672 -0.45313,-1.11719 -0.45313,-1.11719 0,0 2.49219,0.10547 3.07422,0.082 0.61328,-0.0234 2.75782,-0.0898 2.75782,-0.0898 0,0 -0.27735,0.87891 -0.64454,1.32031 -0.20312,0.2461 -0.60156,0.5586 -0.60156,0.5586"
         id="path723" />
    </clipPath>
    <clipPath
       id="clip56">
      <path
         d="m 166.43359,112.26953 c -0.44922,-0.45312 -0.58593,-1.05469 -0.58593,-1.05469 0,0 1.90625,0.0586 2.92578,0.0586 1.125,0 3.38672,-0.0469 3.38672,-0.0469 0,0 -0.32032,0.71875 -0.61329,1.125 -0.27343,0.38282 -0.80859,0.89063 -0.80859,0.89063 -0.20312,2.71094 -0.49219,5.37109 -0.48047,7.98828 0.9961,1.05859 2.71485,0.84766 3.08203,0.78906 0.043,-0.11719 0.4336,-1.21094 1.27735,-1.91015 0.71875,-0.60157 1.67968,-0.75391 1.67968,-0.75391 0,0 -0.51562,1.21875 -0.67578,2.04297 -0.24218,1.25 0.0156,3.26172 0.0156,3.26172 l -6.19141,-0.0156 c -0.83594,-1.35156 -2.00781,-2.37109 -3.32422,-3.13672 0.082,-0.10156 0.27735,-0.34375 0.35547,-0.44922 0.0977,-0.1289 0.58594,-0.55078 0.91797,-0.71484 0,0 -0.0664,-4.94922 -0.24609,-7.46875 -0.0508,-0.0352 -0.46094,-0.34766 -0.71485,-0.60547"
         id="path720" />
    </clipPath>
    <clipPath
       id="clip55">
      <path
         d="m 210.38281,138.65625 c 0.30469,0.35547 0.72656,1.21484 0.72656,1.21484 0,0 -2.3789,-0.23047 -3.12109,-0.23047 -1.0625,-0.004 -3.45312,0.26172 -3.45312,0.26172 0,0 0.44531,-0.85547 1.11328,-1.45312 0.35547,-0.32031 0.71093,-0.46094 0.71093,-0.46094 0.22657,-3.07031 0.27735,-9.53125 0.27735,-9.53125 0,0 -0.51563,-0.85547 -0.94141,-1.28125 -0.42969,-0.42969 -1.24609,-1.05469 -1.24609,-1.05469 0,0 1.35156,-0.17578 2.29687,-0.17578 1.07422,0 2.58203,0.30469 2.58203,0.30469 l 0.59766,0.60156 c 1.0625,1.20313 1.85547,2.3125 2.60938,3.41016 0.6914,1 1.35156,1.99219 2.17578,3.04297 -0.0547,-1.0625 -0.0391,-2.51563 -0.17578,-3.66407 -0.0937,-0.76953 -0.19532,-2.14453 -0.19532,-2.14453 l -2.36718,-1.55859 c 0,0 3.33203,0.10938 3.70703,0.12891 0.32812,0.0234 1.9414,-0.0625 1.9414,-0.0625 0,0 -0.36328,3.49218 -0.64453,11.10156 l 0.0391,3.04687 c 0,0 -1.14062,-0.5664 -2.57421,-2.03906 -1.35547,-1.38672 -2.03907,-2.32031 -2.7461,-3.3125 -0.66797,-0.93359 -1.34765,-1.92187 -2.60156,-3.42578 0.11328,2.17187 0.19531,4.48828 0.4375,6.57031 0.17969,0.11328 0.60547,0.42188 0.85156,0.71094"
         id="path717" />
    </clipPath>
    <clipPath
       id="clip54">
      <path
         d="m 184.88281,125.8125 c 0.88281,0.0508 2.31641,0.30469 2.31641,0.30469 0,0 2.26953,5.17968 3.17187,7.80078 0.82032,-2.32031 1.80469,-5.12891 2.32813,-7.11719 l 0.17578,-0.67187 c 0,0 0.90625,0.0469 1.46484,0.0469 1.40235,0.008 3.21485,-0.16406 3.21485,-0.16406 0,0 -0.27735,0.60547 -0.9336,1.19531 -0.375,0.33985 -0.55859,0.46094 -0.91406,0.67969 0.0469,0.24219 0.14453,1.17578 0.15625,1.33984 l 1.25781,8.76563 c 0.0391,0.0273 0.39063,0.48828 0.57422,0.83984 0.20313,0.38281 0.38672,1.03906 0.38672,1.03906 0,0 -1.26172,-0.34765 -2.80469,-0.53125 -1.39062,-0.16406 -3.13672,-0.13672 -3.13672,-0.13672 0,0 0.40625,-0.78515 0.75391,-1.22265 0.24609,-0.3125 0.55859,-0.62891 0.69922,-0.7461 -0.19141,-1.47656 -0.33203,-2.54687 -0.58594,-4.0625 -1.17187,2.77344 -2.39453,5.89454 -2.39453,5.89454 l -2.21094,-0.83985 c 0,0 -1.125,-2.8789 -1.33203,-3.38281 -0.17969,-0.44531 -0.36719,-0.91016 -0.72265,-1.82031 -0.26954,1.54687 -0.44922,2.67187 -0.60938,4.03906 0,0 0.35156,0.5 0.50781,0.85547 0.16407,0.36719 0.29688,0.98437 0.29688,0.98437 0,0 -1.72266,-0.0664 -2.81641,-0.008 -1.2539,0.0664 -3.19531,0.38672 -3.19531,0.38672 0,0 0.5625,-1.03125 1.28125,-1.58594 0.77344,-0.59765 1.16797,-0.75781 1.24219,-0.79297 0.28125,-1.13672 0.99218,-5.14062 1.51172,-7.65625 -0.0781,-0.22656 -0.53516,-1.29687 -0.98438,-1.94531 -0.73047,-1.05859 -1.54687,-1.38281 -1.54687,-1.38281 0,0 1.44531,-0.1875 2.84765,-0.10547"
         id="path714" />
    </clipPath>
    <clipPath
       id="clip53">
      <path
         d="m 240.72266,138.65625 c 0.30468,0.35547 0.73046,1.21484 0.73046,1.21484 0,0 -2.38281,-0.23047 -3.12109,-0.23047 -1.06641,-0.004 -3.45703,0.26172 -3.45703,0.26172 0,0 0.44531,-0.85547 1.11328,-1.45312 0.35547,-0.32031 0.71094,-0.46094 0.71094,-0.46094 0.22656,-3.07031 0.27734,-9.53125 0.27734,-9.53125 0,0 -0.51172,-0.85547 -0.9414,-1.28125 -0.42579,-0.42969 -1.2461,-1.05469 -1.2461,-1.05469 0,0 1.35156,-0.17578 2.29688,-0.17578 1.07812,0 2.58203,0.30469 2.58203,0.30469 l 0.59765,0.60156 c 1.06641,1.20313 1.85547,2.3125 2.61329,3.41016 0.6875,1 1.35156,1.99219 2.17578,3.04297 -0.0586,-1.0625 -0.043,-2.51563 -0.17969,-3.66407 -0.0898,-0.76953 -0.082,-3.67968 -0.082,-3.67968 l -2.69141,-1.5586 c 0,0 3.65625,-0.0547 4.03125,-0.0352 0.32813,0.0195 1.94141,-0.0625 1.94141,-0.0625 0,0 -0.47266,5.1914 -0.75781,12.80078 l 0.0391,3.04687 c 0,0 -1.13672,-0.5664 -2.57422,-2.03906 -1.35156,-1.38672 -2.03906,-2.32031 -2.74609,-3.3125 -0.66797,-0.93359 -1.34375,-1.92187 -2.60157,-3.42578 0.11328,2.17187 0.19532,4.48828 0.4375,6.57031 0.1836,0.11328 0.60547,0.42188 0.85157,0.71094"
         id="path711" />
    </clipPath>
    <clipPath
       id="clip52">
      <path
         d="m 174.61328,111.32813 c 0,0 1.52734,0.13671 2.50391,0.14062 1.01953,0.004 1.69922,-0.11328 2.60547,-0.12891 0.23828,-0.004 2.07812,-0.19531 3.57031,0.0547 1.62109,0.27344 3.40234,1.01953 4.34765,2.69531 0.89454,1.57813 1.11719,4.3086 0.41797,6.17188 -0.79297,2.10547 -2.15234,3.91016 -5.41406,4.38672 -0.90625,0.13281 -1.59766,0.0547 -2.29297,-0.043 -0.34765,-0.0469 -0.69531,-0.0977 -1.07812,-0.13281 -0.37891,-0.0312 -0.78907,-0.043 -1.26563,-0.0117 -0.76953,0.0469 -2.22656,0.21875 -2.22656,0.21875 0,0 0.53125,-0.94922 1.03516,-1.41016 0.30078,-0.27734 0.84765,-0.61328 0.84765,-0.61328 l -0.55469,-9.26562 c 0,0 -0.89843,-0.25 -1.375,-0.58985 -0.71875,-0.51172 -1.12109,-1.47265 -1.12109,-1.47265 z m 9.60938,10.03125 c 1.08984,-1.13282 1.05078,-2.96485 0.46093,-4.50782 -0.58593,-1.51562 -1.26172,-2.64843 -3.34375,-3.11718 -0.0547,-0.0117 -0.21875,-0.0312 -0.38281,-0.0508 l -0.25,-0.0312 c -0.008,2.77344 -0.11328,5.79688 -0.0703,8.63672 1.32812,0.33203 2.59765,0.0703 3.58594,-0.92968"
         id="path708" />
    </clipPath>
    <clipPath
       id="clip51">
      <path
         d="m 219.42578,80.847656 c 0,0 2.41016,0.210938 4.24609,1.082032 1.42969,0.675781 2.16407,1.53125 2.47266,1.777343 0,0 1.49219,-0.460937 2.47266,-0.503906 1.125,-0.05078 1.78906,0.03906 2.85937,0.386719 0,0 1.32422,1.53125 1.81641,2.046875 -0.11328,-0.128907 -1.80078,-0.710938 -3.86328,-0.695313 -1.34375,0.01172 -3.39844,0.578125 -3.39844,0.578125 0,0 -1.17578,-1.332031 -2.16406,-1.8125 -2.07032,-1.007812 -4.26172,-0.925781 -4.42188,-0.886719 0.0859,0.02344 1.88281,0.699219 3.30078,1.8125 1.09375,0.859376 1.58203,1.8125 1.58203,1.8125 0,0 0.89844,-0.09766 1.45313,0.02344 0.83984,0.1875 1.21484,0.539062 1.21484,0.539062 0,0 1.38282,-0.597656 2.96485,-0.628906 2.35156,-0.05078 3.10937,1.027344 5.23437,1.027344 0,0 -1.78125,1.382812 -3.51562,1.054688 -2.17578,-0.414063 -3.67578,0.515624 -4.00391,0.820312 -0.80469,-1.042969 -1.75781,-1.480469 -3.07422,-1.402344 -0.54297,0.03125 -1.0039,0.230469 -1.35547,0.347656 -0.0117,0.0039 -1.15625,-1.894531 -2.93359,-2.359374 -1.55859,-0.40625 -3.05078,-1.929688 -3.05078,-1.929688 l 0.53906,2.085938 c 0,0 -0.69531,-0.183594 -1.15234,-0.234376 -0.5,-0.05078 -1.28125,0.0039 -1.28125,0.0039 0,0 0.44922,0.253906 0.82422,0.570312 0.28515,0.242188 0.60546,0.742188 0.60546,0.742188 0,0 -1.53515,1.148437 -2,3.15625 -0.65625,2.835937 0.60938,4.96875 0.60938,4.96875 0,0 0.97266,-0.65625 2.64453,-0.867188 1.73047,-0.21875 3.17578,0.02344 3.17578,0.02344 0,0 -1.0664,-0.820313 -3.03515,-0.84375 -1.16797,-0.01563 -1.95313,0.210937 -2.32032,0.398437 -0.008,-0.140625 -0.0664,-1.195312 -0.0664,-1.195312 0,0 1.16797,-0.28125 2.38281,-0.195313 1.13281,0.08203 2.60547,0.453125 2.60547,0.453125 0,0 -0.79688,-0.84375 -2.64844,-1.21875 -1.47656,-0.296875 -2.26953,-0.05859 -2.26953,-0.05859 0.0117,-0.316406 0.20312,-1.046874 0.30469,-1.253906 0,0 0.98047,-0.07031 2.39453,0.339844 1.26953,0.371094 2.10156,0.785156 2.10156,0.785156 -0.70312,-1.054687 -1.99219,-1.964844 -3.98437,-2.152344 0.23046,-0.300781 0.64062,-0.78125 1.41796,-1.066406 2.82422,-1.042968 4.4375,0.667969 4.4375,0.667969 l -0.58593,0.539063 -0.17969,2.964843 1.66016,2.164063 c 0,0 -0.0742,0.515625 -0.19141,0.84375 0,0 -2.125,-0.457032 -4.59375,-0.144532 -1.07031,0.132813 -2.3125,0.589844 -2.6875,0.75 -0.0469,-0.08203 0.42187,1.335938 0.29297,2.585938 -0.11328,1.101562 -0.64453,2.082029 -0.88281,2.699219 -0.39454,1.01562 -0.98829,4.375 0.80078,5.78125 1.41015,1.11328 2.86718,-0.10938 4.58984,0.41016 1.40234,0.42187 1.87109,1.47656 3.37109,1.66406 0.72657,0.0898 2.01172,-0.24219 2.01172,-0.24219 0,0 0.0273,2.18359 -0.74218,3.92578 -0.57813,1.3125 -1.95313,2.78516 -2.125,2.85938 0.0625,-0.22657 0.25,-0.79297 0.24609,-1.31641 -0.004,-0.37109 -0.14063,-0.94141 -0.14063,-0.94141 -0.30078,0.76172 -0.42968,1.07813 -0.91796,1.60938 -0.73438,0.78906 -1.77344,1.14844 -1.77344,1.14844 0.18359,-0.31641 0.3125,-0.85547 0.34765,-1.42578 0.0234,-0.39454 0.008,-0.61719 -0.0625,-1.00391 -0.20703,0.28906 -0.33203,0.44531 -0.57031,0.70703 -0.86328,0.95313 -2.48047,1.73828 -2.48047,1.73828 0,0 -1.07031,-1.07422 -1.42578,-1.95312 -0.44531,-1.08985 -0.39844,-1.17969 -0.40625,-1.96094 -0.23828,0.28125 -0.35937,0.45312 -0.55469,0.76562 -0.44531,0.71485 -0.49218,1.0586 -0.71093,1.70704 -0.48438,-0.57032 -0.79688,-1.16016 -0.98828,-2.01172 -0.12891,-0.57813 -0.0898,-1.51172 -0.0898,-1.51172 0,0 -0.375,0.47265 -0.5664,0.82031 -0.1875,0.35156 -0.48829,1.03906 -0.48829,1.03906 0,0 -0.64062,-1.48437 -0.58203,-2.82031 0.0977,-2.1875 1.16797,-4.62891 1.41797,-5.33203 0.0937,-0.26953 0.17188,-0.51172 0.2461,-0.84766 0.51171,-2.27343 -0.58204,-3.70703 -1.08204,-5.87109 -0.23437,-1.015625 -0.27734,-2.941407 -0.30859,-2.976563 0,0 -0.48828,0.53125 -0.78125,0.882813 -0.33594,0.398437 -0.57422,0.65625 -0.83203,1.046875 0.0664,-0.539063 0.34766,-3.8125 1.1875,-5.832032 0.77344,-1.851562 1.91016,-3.09375 1.96875,-3.242187 -0.0312,-0.03125 -0.88281,0.195313 -1.42969,0.382813 -0.88672,0.3125 -2.0039,0.9375 -2.17578,1.046874 0.12109,-0.226562 1.71875,-4.179687 4.37891,-6.375 2.20312,-1.816406 4.71484,-2.472656 4.71484,-2.472656"
         id="path705" />
    </clipPath>
    <clipPath
       id="clip50">
      <path
         d="m 225.42578,68.988281 -0.26562,1.148438 c 0.5,-0.949219 1.59375,-1.480469 2.6875,-1.230469 1.20312,0.28125 1.98828,1.414062 1.85937,2.613281 l 0.33984,-1.464843 c 0.50391,-0.28125 1.10938,-0.382813 1.71485,-0.242188 1.03125,0.238281 1.7539,1.101562 1.86328,2.097656 l 0.22656,-0.976562 c 0.50391,-0.28125 1.10938,-0.382813 1.71485,-0.242188 1.30468,0.300782 2.11328,1.601563 1.8164,2.902344 -0.16015,0.691406 -0.60547,1.246094 -1.17969,1.566406 l -3.94921,2.691406 1.01562,-4.394531 c -0.21875,0.347657 -0.51953,0.628907 -0.87109,0.824219 l -3.94922,2.691406 1.125,-4.878906 c -0.11328,0.320312 -0.29688,0.605469 -0.51953,0.839844 l -2.98047,3.488281 -1.10547,-4.511719 c -0.0508,-0.183594 -0.0781,-0.375 -0.0859,-0.566406 l -1.05469,4.5625 -2.37109,-4.152344 c -0.22656,-0.328125 -0.375,-0.714844 -0.41797,-1.121094 l -1.01172,4.394532 -2.375,-4.152344 c -0.375,-0.539062 -0.53125,-1.230469 -0.37109,-1.921875 0.30078,-1.304687 1.60156,-2.113281 2.90234,-1.8125 0.60547,0.136719 1.10547,0.496094 1.4375,0.96875 l -0.22656,0.976563 c 0.53516,-0.847657 1.5625,-1.308594 2.59375,-1.066407 0.60938,0.136719 1.10938,0.496094 1.4375,0.96875"
         id="path702" />
    </clipPath>
    <clipPath
       id="clip49">
      <path
         d="m 227.32812,67.253906 c 0.10547,-0.460937 0.5625,-0.746094 1.02344,-0.640625 0.46094,0.105469 0.7461,0.566407 0.64063,1.023438 -0.10547,0.460937 -0.5625,0.746093 -1.02344,0.640625 -0.46094,-0.105469 -0.74609,-0.5625 -0.64063,-1.023438"
         id="path699" />
    </clipPath>
    <clipPath
       id="clip48">
      <path
         d="m 170.14453,89.523438 c 2.42969,-3.195313 6.41016,-0.40625 6.41016,-0.40625 0,0 -2.47657,-0.367188 -3.39844,1.027343 -0.34375,0.53125 -0.51172,1.03125 -0.62891,1.851563 -2.30859,0.613281 -3.21484,-1.386719 -2.38281,-2.472656"
         id="path696" />
    </clipPath>
    <clipPath
       id="clip47">
      <path
         d="m 170.74609,85.765625 c 0.34766,-0.08594 1.33594,-0.398437 1.33594,-0.398437 l 1.70703,0.117187 -1.33203,-0.957031 c 0.1875,-0.421875 0.30078,-0.734375 1.42578,-1.898438 1.10547,-1.144531 2.53125,-1.570312 2.53125,-1.570312 l 1.6875,0.304687 c -2.41406,0.773438 -2.76562,1.5 -3.16406,2.390625 -0.57813,1.292969 0.71094,2.585938 0.71094,2.585938 0,0 -0.37891,0.230468 -1.13282,0.769531 -0.65625,-0.05469 -1.16015,-0.152344 -1.9414,-0.07813 -0.6836,0.06641 -3.41797,0.320312 -3.98047,3.230469 -0.39844,2.0625 2.01172,2.835937 2.62109,2.882812 -1.03125,0.84375 -1.85156,1.90625 -2.90234,3.230469 -0.83984,1.058594 -2.01563,2.8125 -2.01563,2.8125 l 3.04297,-0.515625 c 0,0 -3.03515,3.89454 -4.41015,10.23046 -1.07032,-0.0312 -1.9336,-0.0586 -1.9336,-0.0586 0,0 0.41797,1.90234 0.53907,2.4375 -1.15235,-0.94141 -2.47266,-1.67968 -3.84375,-2.17968 0.23046,-1.28125 0.52343,-2.60937 0.89062,-3.96484 3.8125,-14.042975 6.30078,-15.878913 8.47656,-18.785163 0,0 0.91407,-0.390624 1.6875,-0.585937"
         id="path693" />
    </clipPath>
    <clipPath
       id="clip46">
      <path
         d="m 178.26562,82.324219 c 2.96094,-0.847657 4.16016,1.867187 4.16016,1.867187 0,0 -1.28516,-0.753906 -2.54687,0.03125 -1.00391,0.621094 -1.33204,1.097656 -1.73438,1.894532 -0.60547,0.02344 -1.39062,-0.25 -1.78906,-0.800782 -0.44531,-0.613281 -0.28125,-1.453125 -0.28125,-1.453125 0,0 0.78125,-1.136719 2.1914,-1.539062"
         id="path690" />
    </clipPath>
    <clipPath
       id="clip45">
      <path
         d="m 182.15234,81.832031 c -0.0547,-0.07422 -0.5625,-0.375 -0.98437,-0.585937 -0.84375,-0.421875 -1.75781,-0.332032 -1.75781,-0.332032 0,0 0.85156,-0.804687 1.59375,-1.257812 1.45312,-0.890625 1.98828,-1.171875 1.98828,-1.171875 0,0 -0.60938,1.113281 -0.20313,2.195313 0.15625,0.425781 0.1836,0.402343 0.30078,0.730468 l -0.9375,0.421875"
         id="path687" />
    </clipPath>
    <clipPath
       id="clip44">
      <path
         d="m 186.53125,78.320312 c 3.49609,-0.367187 2.64453,2.667969 2.64453,2.667969 0,0 -0.98437,-1.355469 -2.64062,-0.558593 -0.72657,0.351562 -1.10547,0.816406 -1.64844,1.304687 -0.52344,-0.394531 -0.69531,-0.757813 -0.88672,-1.425781 -0.1875,-0.652344 0.0547,-1.085938 0.0547,-1.085938 0,0 1.07422,-0.757812 2.47656,-0.902344"
         id="path684" />
    </clipPath>
    <clipPath
       id="clip43">
      <path
         d="m 192.26953,77.4375 c 2.93359,-0.410156 2.83203,2.054688 2.83203,2.054688 0,0 -0.91406,-0.84375 -2.55078,-0.164063 -0.39844,0.164063 -0.23047,0.105469 -0.98437,0.628906 -0.36329,-0.472656 -0.375,-0.484375 -1.05469,-1.097656 -0.32031,-0.289063 -0.85156,-0.613281 -0.85156,-0.613281 0,0 1.19921,-0.613282 2.60937,-0.808594"
         id="path681" />
    </clipPath>
    <clipPath
       id="clip42">
      <path
         d="m 230.74219,90.636719 c 2.03906,0.992187 2.08203,2.574219 2.08203,2.574219 -0.16016,-0.03125 -1.04297,-0.08594 -1.67969,0.02734 -0.81641,0.144531 -1.64062,0.601563 -1.64062,0.601563 0,0 1.05468,-0.09766 1.98828,0.03125 0.99218,0.136718 1.52343,0.421875 1.52343,0.421875 0,0 0.0469,0.667969 -0.11718,1.417969 -0.28125,-0.164063 -0.57422,-0.457032 -1.8125,-0.800782 -1.10938,-0.308594 -2.80078,-0.08203 -2.80078,-0.08203 0,0 1.47265,0.308594 2.30859,0.636719 1.34375,0.523437 2.04687,1.179687 2.04687,1.179687 0,0 -0.375,0.878907 -0.63281,1.207031 -0.49219,-0.40625 -0.85156,-0.679687 -1.40234,-1.007812 -1.47656,-0.867188 -3.04688,-0.9375 -3.14063,-0.9375 -0.0937,0 1.64453,0.789062 2.57813,1.476562 0.60937,0.449219 1.47265,1.265626 1.47265,1.265626 l -0.9375,1.261718 c 0,0 -1.0039,-1.308594 -2.0039,-2.027344 -1.01172,-0.726562 -3.20703,-1.855468 -3.20703,-1.855468 l 0.1914,-0.847656 3.10938,-1.519532 -0.75,-3.386718 c 0,0 1.39844,-0.332032 2.82422,0.363281"
         id="path678" />
    </clipPath>
    <clipPath
       id="clip41">
      <path
         d="m 243.93359,89.339844 c 2.03125,2.539062 -0.0937,5.105468 -0.80859,5.777344 -0.0156,-0.128907 -0.57031,-1.511719 -0.60156,-1.597657 -0.61719,-1.703125 -2.23828,-2.9375 -2.23828,-2.9375 0,0 1.1875,0.1875 1.85156,0.539063 0.80859,0.429687 1.46875,1.316406 1.46875,1.316406 0.0312,-0.03516 0,-2.164062 -2.16406,-3.476562 -0.33985,-0.207032 -2.15235,-0.734376 -2.16016,-0.773438 0.55469,-0.390625 3.05078,-0.851562 4.65234,1.152344"
         id="path675" />
    </clipPath>
    <clipPath
       id="clip40">
      <path
         d="m 203.27734,80.847656 c 3.25,-2.722656 6.88672,-0.261718 7.45703,0.535156 -0.0547,0.01172 -1.35546,-0.417968 -3.78906,-0.03516 -2.0625,0.328125 -3.05078,1.855469 -3.05078,1.855469 0,0 1.34375,-0.5 2.24219,-0.539063 1.28515,-0.05859 2.74219,0.617188 2.74219,0.617188 -0.0937,0.0039 -1.76563,0.0039 -3.20704,0.539062 -0.65234,0.246094 -1.50781,0.964844 -1.50781,0.964844 0,0 0.82422,0.179688 1.31641,0.390625 0.95703,0.402344 1.58203,1.042969 1.58203,1.042969 0,0 -1.84375,0.792969 -2.80469,1.609375 -2.15234,1.828125 -3.34765,5.285156 -3.34765,5.285156 0.0312,0.03125 1.51171,-0.910156 2.5625,-1.308593 1.04296,-0.394532 1.35546,-0.460938 2.25,-0.628907 -1.00391,1.34375 -0.96875,1.050781 -2.25,3.664063 -2.80469,5.73829 -2.27735,13.41407 -2.27735,13.41407 0,0 0.72656,-1.73828 1.79688,-2.9961 0.50781,-0.59765 1.3164,-1.05078 1.3164,-1.05078 0,0 -0.82422,3.77735 0.36719,8.94531 0.76563,3.31641 2.30859,5.88282 2.30859,5.88282 0,0 -2.73046,-0.83985 -5.07031,-1.98047 -2.92578,-1.42578 -4.91015,-3.91016 -4.91015,-3.91016 l 0.1914,2.99219 c 0,0 -2.42578,-1.69141 -4.04297,-3.10547 -2.42968,-2.13672 -3.84375,-4.12891 -3.84375,-4.12891 0,0 -0.21484,1.16797 -0.33203,3.10938 -1.4375,-1.77344 -3.50781,-2.53516 -5.14844,-2.83594 -0.4414,-1.08984 -0.77734,-2.18359 -0.99218,-3.27734 -0.42188,-2.125 -0.51563,-3.95703 -0.39453,-5.52735 1.79296,-0.855469 2.99218,-1.433594 4.98046,-2.167969 1.96875,-0.730469 3.98047,-1.265625 5.14844,-1.59375 0,0 -0.41797,1.734375 -0.375,3.234375 0.0898,2.765634 0.46875,4.355474 1.21094,5.914064 -0.17969,-5.26172 0.0664,-8.570314 2.16406,-13.175783 2.3125,-5.082031 6.34375,-7.019531 6.34375,-7.019531 0,0 -0.29687,-3.324219 1.36328,-4.714844"
         id="path672" />
    </clipPath>
  </defs>
  <metadata
     id="metadata8810">
    <rdf:RDF>
      <cc:Work
         rdf:about="">
        <dc:format>image/svg+xml</dc:format>
        <dc:type
           rdf:resource="http://purl.org/dc/dcmitype/StillImage" />
        <dc:title></dc:title>
      </cc:Work>
    </rdf:RDF>
  </metadata>
  <g
     transform="translate(-201.25205,-385.21968)"
     id="layer1">
    <path
       d="m 322.81992,573.26454 -2.92872,10.2125 -22.67851,-2.86961 -5.58733,3.62924 -16.49195,-5.10627 0.0505,-24.38343 c 0,0 -3.34226,1.75555 -8.79457,2.16909 -3.08908,0.23633 -6.26254,0.0761 -9.4107,-0.19403 -1.96653,-0.1687 -12.82049,0.34606 -12.82049,0.34606 l -7.29224,0.57391 c 0,0 0.40513,-5.4945 1.6205,-8.74391 1.25756,-3.35073 3.43511,-6.54953 4.70113,-7.87462 l -0.42201,-6.56639 c -1.22381,-0.53174 -6.6339,-2.57422 -9.99306,-5.49451 -1.40951,-1.22381 -2.32947,-2.22818 -3.3254,-3.45199 -3.77272,-4.66737 -6.05998,-10.53323 -6.19502,-16.53411 l 0,-0.2448 0,-0.32069 c 0,-14.66045 13.02304,-28.84826 28.78914,-28.93265 l 0.2279,0.009 c 0.97058,0.009 1.94963,0.076 2.93713,0.20244 0.66677,-3.23255 1.40949,-6.44823 2.19444,-9.61326 7.30911,-29.41371 18.94799,-40.36051 19.33623,-40.72343 l 0.42201,-0.38825 5.34256,-1.92434 c 0.25322,-0.40513 0.59082,-0.91153 1.02127,-1.49389 1.05501,-1.44325 2.65864,-3.34229 4.91214,-5.30882 1.31664,-1.14785 3.15657,-2.11847 4.48168,-2.75148 1.40105,-0.66676 3.36759,-1.40949 3.36759,-1.40949 l 3.87401,0.93684 c 0.17716,-0.17723 0.37135,-0.36292 0.58237,-0.55703 1.0972,-1.01282 2.68394,-2.32102 4.58295,-3.41824 2.83587,-1.63738 3.1566,-1.76399 5.31726,-2.54048 l 0.97062,-0.34603 0.97061,0.35449 c 0.9453,0.35447 1.87371,0.72584 2.58266,1.01279 0.83557,-0.46419 1.83994,-0.98749 2.70083,-1.35884 1.82306,-0.78493 4.52389,-1.37574 4.52389,-1.37574 l 2.28726,1.42639 c 0.85246,-0.30385 2.03407,-0.65834 3.38448,-0.91155 2.73461,-0.49795 6.62548,-0.64144 10.18719,1.4095 4.60829,2.6502 4.83619,9.73143 4.70957,11.65577 1.73021,1.1985 2.59955,2.86962 3.03001,4.38041 0.54016,-3.51953 2.22818,-8.54981 7.40195,-11.40256 2.59954,-1.43482 5.12312,-1.9159 7.24158,-1.95809 l -2.43067,-1.73884 c 0,0 3.09751,-1.7049 5.22441,-2.4392 6.21191,-2.11002 12.66012,-1.43482 13.09904,-1.37574 l 2.32101,-8.93806 c 0,0 -0.43044,-1.69644 0.0761,-3.8993 1.43483,-6.21191 7.63828,-10.0859 13.85019,-8.65111 1.44327,0.33762 2.7768,0.93685 3.93308,1.73023 1.40108,-0.20247 2.85275,-0.16041 4.30445,0.17717 0.32074,0.0674 0.63301,0.16041 0.94531,0.26165 1.87369,-2.52359 5.12312,-3.83181 8.381,-3.08064 3.26631,0.75962 5.6211,3.37603 6.19502,6.47356 0.41357,0.0507 0.83557,0.11823 1.25758,0.21943 1.44325,0.32917 2.7768,0.92842 3.93309,1.73023 1.40105,-0.21111 2.85276,-0.16042 4.30443,0.1687 6.2119,1.43482 10.0859,7.63829 8.6511,13.8502 -0.53171,2.29569 -1.58672,3.57016 -1.58672,3.57016 l -2.01719,8.46541 c 3.77272,1.1816 6.39758,2.97935 8.27129,4.507 3.81491,3.12283 6.0431,8.73549 6.0431,8.73549 0,0 -0.35449,0 -2.73459,-0.40512 l 0.75117,1.45169 c 0.78493,0.41357 1.23225,0.71741 1.89057,1.23226 1.49391,1.17317 3.32541,3.1144 4.07656,6.00934 1.30822,5.02187 -0.29539,9.3263 -2.03405,12.2128 -0.8862,1.45172 -1.8315,2.59956 -2.56578,3.39292 0.16871,0.7343 0.35447,1.68804 0.54017,2.75148 0.43887,2.45607 0.84399,5.7899 0.54858,8.76925 -1.33353,13.31847 -5.89116,21.20997 -5.89116,21.20997 l -1.01282,-3.03001 c 0,0 -1.31667,7.18251 -5.02186,12.27189 -0.75117,1.03814 -2.00875,2.9034 -2.46449,3.51107 -0.26166,0.34606 -4.3551,5.46918 -4.3551,5.46918 0,0 0.40513,-3.44355 0.20246,-5.16532 -0.69208,1.47702 -1.47701,2.9034 -2.33791,4.13564 -0.50642,0.7174 -1.10564,1.48546 -1.75554,2.26193 l 36.19111,-0.10129 c 0,0 -1.80618,18.50069 -2.41388,34.67188 l -0.58236,13.57166 -19.47129,0 0.0761,17.62291 -10.93835,8.60047 -8.73551,-1.83994 c -11.46163,3.12283 -14.87986,3.87399 -31.33806,3.27475 -7.59606,-0.27009 -14.80392,-1.83994 -20.45878,-3.46044 -3.75584,-1.08033 -6.89555,-2.2113 -9.0731,-3.04686 -5.30036,-1.7471 -17.51315,-5.08936 -33.65906,-5.25817"
       id="path1616"
       style="fill:#93bfeb;fill-opacity:1;fill-rule:nonzero;stroke:none" />
    <path
       d="m 390.66137,555.36309 c -10.15344,0 -21.41252,0.0172 -29.44748,0.0337 7.4948,1.86526 19.06617,3.88244 33.0767,3.45201 l -3.62922,-3.48579 z m 37.52464,-133.31122 c 9.00557,2.05094 11.83301,7.46104 11.83301,7.46104 0,0 -3.73895,-1.72178 -7.30912,-0.3376 1.87369,0.60768 4.20318,1.22382 6.06844,3.12284 1.29131,1.31664 2.5067,4.00903 2.5067,4.00903 0,0 4.25378,1.67113 5.34257,5.84054 2.09315,8.06029 -5.00498,14.02743 -5.00498,14.02743 0,0 1.99187,6.93776 1.41793,12.1031 -0.74273,6.61704 -3.07218,13.40285 -3.07218,13.40285 0,0 -0.74272,-2.81897 -1.6205,-5.16531 -0.45576,-1.20695 -1.73866,-3.14816 -1.73866,-3.14816 0,0 0.53174,10.23783 -1.41793,16.44128 -1.83148,5.84898 -5.9165,11.04807 -6.00934,10.93836 0.43044,-0.58237 0.3376,-3.8318 0.0845,-6.26254 -0.15193,-1.47702 -0.66676,-3.75584 -0.66676,-3.75584 0,0 -2.41386,9.57106 -5.94182,14.60979 -2.20285,3.13127 -6.61703,7.48637 -8.67639,9.46134 9.90023,-0.0422 16.63539,-0.0929 17.09117,-0.12653 l -5.62109,-3.34225 31.63344,-0.0929 c 0,0 -1.57827,16.23871 -2.19441,32.46901 l -0.48952,11.56293 -19.57259,0 0.0846,18.70325 -9.36008,7.35976 -8.27127,-1.74712 -0.0929,0.0252 c -11.65576,3.18191 -14.62667,3.90776 -31.10175,3.31697 -7.36821,-0.27008 -14.39878,-1.78931 -19.95237,-3.39294 -3.7052,-1.06344 -6.80271,-2.17753 -8.93805,-2.99622 -5.93339,-1.96655 -20.3575,-5.89119 -39.25485,-5.34257 l 2.53201,2.58265 -2.11001,7.37664 -21.64884,-2.74303 -5.41009,3.51952 -14.06964,-4.35509 -0.093,-21.50535 9.36008,-7.3513 3.3507,0.70895 c -2.48138,-1.06345 -4.35509,-2.91185 -6.2541,-5.23284 -3.81493,6.11906 -10.21251,9.92554 -17.41191,10.61762 -2.95404,0.28696 -6.00935,0.0674 -9.02247,-0.19403 -2.05937,-0.17718 -4.69267,-0.0674 -6.80272,0.0337 -3.65454,0.17717 -10.94678,0.61613 -10.94678,0.61613 0,0 0.2532,-3.33384 0.87778,-5.35945 0.37979,-1.22384 0.64142,-1.90748 1.23224,-3.05533 1.13098,-2.21129 3.37604,-4.70114 3.8318,-5.08093 l -0.58255,-8.94644 c -0.43043,-0.10129 -4.51545,-1.69646 -7.11499,-3.30852 -2.81056,-1.7302 -5.65487,-4.20318 -6.56641,-5.33414 -3.51107,-4.32976 -5.60422,-9.74831 -5.73081,-15.25967 l 0,-0.10129 0,-0.11823 -0.009,-0.29541 c 0,-13.55479 12.13684,-26.73821 26.68757,-26.82263 l 0.27851,0 c 1.73022,0.0252 3.50266,0.25321 5.25819,0.66678 0.76805,-3.85713 1.63738,-7.72267 2.57422,-11.4954 7.17409,-28.84824 18.50913,-39.33082 18.50913,-39.33082 l 5.76458,-2.06783 c 0,0 1.73021,-3.37603 5.86585,-6.9884 2.0172,-1.7471 6.17816,-3.33383 6.17816,-3.33383 l 4.59984,1.11409 c 0,0 2.34634,-2.74303 5.67174,-4.65893 2.5911,-1.49389 2.87807,-1.6205 4.85306,-2.32947 1.92434,0.70897 3.7474,1.51079 3.78115,1.51079 0.009,0 2.05096,-1.2407 3.61236,-1.9159 1.55298,-0.66677 2.87808,-0.96217 2.87808,-0.96217 l 2.53203,1.56985 c 0,0 6.98838,-3.34227 12.43223,-0.20257 3.27477,1.88215 3.46046,8.1447 3.29164,9.10687 -0.1687,-0.0844 -2.24505,-2.3801 -6.33849,-0.96217 -1.12254,0.37981 -1.69646,1.11409 -1.69646,1.11409 l 1.28288,2.11847 c 0,0 4.89526,-1.52766 7.46948,-0.16041 3.64613,1.94121 2.55736,7.08967 2.55736,7.08967 0,0 -2.05094,-2.32947 -5.80678,-0.40513 -1.19851,0.61613 -1.09722,0.77649 -2.05094,1.39262 -0.23633,1.9581 -0.70053,3.73052 -1.40106,4.86994 -3.1566,5.14846 -15.25968,9.03932 -15.25968,9.03932 0,0 -6.53264,3.36759 -8.54136,13.95991 11.84142,-6.3807 22.07926,-7.89991 22.07926,-7.89991 0,0 2.00031,-8.3979 8.88741,-15.98554 2.51516,-2.77679 6.25412,-5.19065 7.28381,-5.96714 -0.0507,-1.56986 -0.0846,-9.1997 6.1697,-12.65169 5.57045,-3.07219 10.64295,-0.81026 10.82863,-0.81026 0.8609,-0.45576 4.085,-1.56985 6.42291,-1.24068 -3.22411,-2.25351 -5.05563,-3.01312 -8.07718,-3.663 0.0422,-0.15194 2.68396,-1.13942 6.61704,-1.52766 3.5364,-0.34605 5.60422,0.0254 7.73956,0.40512 l 0.34606,0.0759 1.70488,-6.80273 3.32542,0.81871 c 0,0 -0.81025,-1.79774 -1.04658,-2.4814 -0.93685,-2.66706 -1.4686,-4.65046 -0.93685,-6.96307 1.08875,-4.68426 5.76458,-7.61295 10.44881,-6.53261 1.41794,0.32914 2.67553,0.98749 3.71365,1.88213 l 0.16041,0.13499 0.20246,-0.0505 c 1.32509,-0.34605 2.74303,-0.38826 4.16095,-0.059 0.88622,0.20246 1.71335,0.54016 2.46453,0.97904 l 0.43887,0.26166 0.15194,-0.48952 c 0.83557,-2.61644 3.55327,-4.19474 6.27097,-3.57017 2.75991,0.64146 4.51543,3.3085 4.05969,6.05153 l -0.0845,0.53174 0.53175,-0.059 c 0.96216,-0.10977 1.94963,-0.059 2.94558,0.1687 1.41793,0.32915 2.67551,0.98749 3.71365,1.87367 l 0.16041,0.14348 0.21108,-0.059 c 1.31668,-0.34603 2.7346,-0.37981 4.15254,-0.0589 4.69268,1.08879 7.61297,5.7646 6.53264,10.44885 -0.5233,2.26193 -1.84839,3.63767 -3.77273,5.54514 -0.59925,0.59079 -2.27039,1.93277 -2.27039,1.93277 l 3.37604,0.83557 -1.60362,6.38915 0.54016,0.11824"
       id="path1618"
       style="fill:#002b5f;fill-opacity:1;fill-rule:nonzero;stroke:none" />
    <path
       d="m 354.81629,422.11939 c 7.02217,-5.88274 14.87989,-0.56548 16.11212,1.15629 -0.11822,0.0254 -2.92868,-0.90309 -8.18687,-0.0759 -4.45637,0.70898 -6.59171,4.00905 -6.59171,4.00905 0,0 2.90339,-1.08033 4.84462,-1.16473 2.77677,-0.12653 5.92495,1.33352 5.92495,1.33352 -0.20247,0.009 -3.81494,0.009 -6.92934,1.16474 -1.40949,0.53172 -3.25786,2.0847 -3.25786,2.0847 0,0 1.78085,0.38825 2.84431,0.84401 2.06783,0.86934 3.41824,2.25351 3.41824,2.25351 0,0 -3.98372,1.71333 -6.06,3.47731 -4.65047,3.94995 -7.23314,11.41944 -7.23314,11.41944 0.0674,0.0676 3.2663,-1.96654 5.53671,-2.82743 2.25348,-0.85244 2.92868,-0.99593 4.86149,-1.35885 -2.16911,2.90338 -2.09315,2.27038 -4.86149,7.91681 -6.06,12.39849 -4.92059,28.98327 -4.92059,28.98327 0,0 1.56985,-3.75584 3.88245,-6.47356 1.0972,-1.29133 2.8443,-2.27038 2.8443,-2.27038 0,0 -1.78087,8.16158 0.79337,19.32781 1.65426,7.16564 4.98808,12.71077 4.98808,12.71077 0,0 -5.8996,-1.81462 -10.95522,-4.27912 -6.32163,-3.08062 -10.60918,-8.44854 -10.60918,-8.44854 l 0.41354,6.46512 c 0,0 -5.24128,-3.65457 -8.73549,-6.70988 -5.24971,-4.61674 -8.30506,-8.92117 -8.30506,-8.92117 0,0 -0.46419,2.52359 -0.7174,6.71831 -3.10594,-3.8318 -7.57919,-5.47763 -11.12404,-6.1275 -0.95372,-2.35478 -1.67957,-4.71801 -2.14376,-7.08124 -0.91154,-4.59141 -1.11411,-8.54981 -0.85245,-11.94275 3.87399,-1.84836 6.46509,-3.09748 10.7611,-4.68423 4.2538,-1.5783 8.60046,-2.73458 11.12404,-3.44355 0,0 -0.90309,3.7474 -0.81025,6.98839 0.19402,5.9756 1.01281,9.4107 2.61644,12.77829 -0.38826,-11.36881 0.14347,-18.51755 4.67579,-28.46842 4.99655,-10.98056 13.70672,-15.16684 13.70672,-15.16684 0,0 -0.64145,-7.18253 2.94558,-10.18719"
       id="path1620"
       style="fill:#a8adb4;fill-opacity:1;fill-rule:evenodd;stroke:none" />
    <g
       transform="matrix(2.1606631,0,0,2.1606631,-84.39755,247.43485)"
       clip-path="url(#clip40)"
       id="g1622">
      <path
         d="m 202.82812,80.496094 c 3.25391,-2.722656 7.92969,-0.04297 8.33985,1.171875 -0.043,0.0078 -1.07422,-0.417969 -2.67188,-0.328125 -0.5625,-0.121094 -1.39453,-0.328125 -1.97265,-0.328125 -2.48438,0 -4.07032,1.734375 -4.53125,2.578125 -0.42578,-0.9375 0.043,-2.429688 0.83593,-3.09375"
         id="path1624"
         style="fill:#fffdff;fill-opacity:1;fill-rule:nonzero;stroke:none" />
    </g>
    <path
       d="m 390.29,433.85113 3.28319,2.03404 c 0,0 -0.49796,0.97906 -1.72176,0.91154 -0.98749,-0.0507 -1.77242,-0.58238 -1.92435,-1.34198 -0.18562,-0.91997 0.36292,-1.6036 0.36292,-1.6036"
       id="path1626"
       style="fill:#a8adb4;fill-opacity:1;fill-rule:evenodd;stroke:none" />
    <path
       d="m 442.66075,440.46815 c 4.38886,5.48605 -0.20244,11.0312 -1.74707,12.48289 -0.0337,-0.27852 -1.23225,-3.26631 -1.29977,-3.452 -1.33354,-3.67988 -4.83617,-6.34695 -4.83617,-6.34695 0,0 2.56578,0.40513 4.0006,1.16473 1.74707,0.92841 3.17346,2.84432 3.17346,2.84432 0.0674,-0.0759 0,-4.67582 -4.6758,-7.51168 -0.7343,-0.44732 -4.65051,-1.58674 -4.66737,-1.67115 1.19848,-0.844 6.59169,-1.83992 10.05212,2.48984"
       id="path1628"
       style="fill:#a8adb4;fill-opacity:1;fill-rule:evenodd;stroke:none" />
    <g
       transform="matrix(2.1606631,0,0,2.1606631,-84.39755,247.43485)"
       clip-path="url(#clip41)"
       id="g1630">
      <path
         d="m 244.16406,89.164062 c 0.92188,1.152344 1.10156,2.738282 0.48828,3.46875 -0.3125,-0.886718 -0.92578,-2.015624 -2.1289,-2.789062 -0.28516,-0.3125 -1.05469,-0.480469 -1.5,-0.75 -0.33594,-0.207031 -2.14453,-0.871094 -2.15235,-0.914062 0.55469,-0.390626 3.69141,-1.019532 5.29297,0.984374"
         id="path1632"
         style="fill:#fffdff;fill-opacity:1;fill-rule:nonzero;stroke:none" />
    </g>
    <path
       d="m 414.15858,443.27025 c 4.40573,2.1438 4.49858,5.56203 4.49858,5.56203 -0.34606,-0.0676 -2.25351,-0.18569 -3.62925,0.0591 -1.76398,0.31228 -3.54484,1.29977 -3.54484,1.29977 0,0 2.27883,-0.21099 4.29601,0.0676 2.14378,0.2954 3.29162,0.91154 3.29162,0.91154 0,0 0.1013,1.44325 -0.25318,3.06375 -0.6077,-0.35449 -1.2407,-0.9875 -3.9162,-1.73023 -2.39699,-0.66676 -6.05154,-0.17724 -6.05154,-0.17724 0,0 3.1819,0.66676 4.98809,1.37573 2.90337,1.13099 4.42258,2.54891 4.42258,2.54891 0,0 -0.81024,1.89902 -1.36728,2.60799 -1.06346,-0.87776 -1.83993,-1.46857 -3.02997,-2.17755 -3.19037,-1.87369 -6.58329,-2.02561 -6.78586,-2.02561 -0.20245,0 3.55328,1.7049 5.57047,3.19035 1.31664,0.9706 3.1819,2.73458 3.1819,2.73458 l -2.02561,2.72616 c 0,0 -2.1691,-2.82743 -4.32977,-4.38041 -2.18598,-1.56985 -6.9293,-4.00903 -6.9293,-4.00903 l 0.41355,-1.8315 6.71832,-3.28321 -1.6205,-7.31756 c 0,0 3.02156,-0.7174 6.1022,0.78493"
       id="path1634"
       style="fill:#a8adb4;fill-opacity:1;fill-rule:evenodd;stroke:none" />
    <g
       transform="matrix(2.1606631,0,0,2.1606631,-84.39755,247.43485)"
       clip-path="url(#clip42)"
       id="g1636">
      <path
         d="m 231.30859,93.378906 -0.30468,0.02344 c -0.81641,0.144531 -1.03125,0.328125 -1.03125,0.328125 0,0 0.49218,-0.132813 1.40625,-0.02344 0.0508,0.339844 0.0273,1.054688 -0.0273,1.476563 -0.0937,-0.03125 -0.28515,-0.160156 -0.39844,-0.1875 -1.10546,-0.308594 -1.9414,-0.07031 -1.9414,-0.07031 0,0 0.9414,0.07031 1.77734,0.394531 0.24219,0.09375 0.34375,0.207032 0.53906,0.308594 -0.0469,0.183594 -0.1875,0.5 -0.25781,0.699219 -0.0742,0.226563 -0.25781,0.617187 -0.34765,0.820313 -0.0703,-0.04297 -0.30079,-0.191407 -0.375,-0.234376 -1.47657,-0.867187 -2.25,-0.820312 -2.34375,-0.820312 -0.0937,0 1.29296,0.394531 2.22656,1.078125 0.125,0.09375 0.16797,0.261719 0.30469,0.375 -0.27344,0.457031 -0.77344,1.09375 -1.03125,1.382813 -0.31641,-0.328126 -0.8086,-0.699219 -1.17188,-0.960938 -1.01172,-0.726562 -3.16016,-1.851562 -3.16016,-1.851562 l 0.21094,-1.050782 2.97266,-1.476562 -0.42188,-2.578125 c 1.3125,0.28125 2.78907,0.75 3.375,2.367187"
         id="path1638"
         style="fill:#fffdff;fill-opacity:1;fill-rule:nonzero;stroke:none" />
    </g>
    <path
       d="m 398.02956,446.08924 3.84026,3.20724 4.49857,-1.56986 1.08875,1.24914 -6.54951,2.95402 -4.30444,-4.96276 1.42637,-0.87778"
       id="path1640"
       style="fill:#a8adb4;fill-opacity:1;fill-rule:evenodd;stroke:none" />
    <path
       d="m 389.26876,455.36489 c 0.75961,-0.0929 1.97496,0 1.97496,0 -1.266,1.34199 -2.07625,3.46889 -2.48138,4.65895 -0.38824,-0.47265 -0.93683,-1.51922 -1.1394,-2.43074 -0.20246,-0.93687 -0.0846,-1.39263 -0.0761,-1.82307 0.34605,-0.0928 1.03814,-0.32073 1.72179,-0.40514"
       id="path1642"
       style="fill:#fffdff;fill-opacity:1;fill-rule:evenodd;stroke:none" />
    <path
       d="m 331.03213,414.75119 c 6.33849,-0.8862 6.11905,4.43949 6.11905,4.43949 0,0 -1.97496,-1.82306 -5.51136,-0.35449 -0.8609,0.35449 -0.49798,0.22789 -2.12689,1.35885 -0.78496,-1.02125 -0.81025,-1.04656 -2.27885,-2.37166 -0.69206,-0.62455 -1.83993,-1.3251 -1.83993,-1.3251 0,0 2.5911,-1.32508 5.63798,-1.74709"
       id="path1644"
       style="fill:#a8adb4;fill-opacity:1;fill-rule:evenodd;stroke:none" />
    <g
       transform="matrix(2.1606631,0,0,2.1606631,-84.39755,247.43485)"
       clip-path="url(#clip43)"
       id="g1646">
      <path
         d="m 192.26953,77.335938 c 1.36719,-0.191407 2.17188,0.359374 2.53906,0.878906 -0.70312,-0.152344 -2.01562,-0.269532 -3.40625,0.292968 -0.32812,0.132813 -0.79297,0.332032 -1.04297,0.445313 l -0.19921,-0.08203 c -0.32032,-0.289063 -0.64454,-0.65625 -0.64454,-0.65625 0,0 1.34375,-0.683594 2.75391,-0.878906"
         id="path1648"
         style="fill:#fffdff;fill-opacity:1;fill-rule:nonzero;stroke:none" />
    </g>
    <path
       d="m 318.63365,416.65866 c 7.55386,-0.79339 5.71393,5.76457 5.71393,5.76457 0,0 -2.12689,-2.92871 -5.7055,-1.20692 -1.56987,0.7596 -2.38854,1.76397 -3.56173,2.81897 -1.13097,-0.85244 -1.50231,-1.63736 -1.9159,-3.08062 -0.40511,-1.40949 0.11823,-2.34634 0.11823,-2.34634 0,0 2.32104,-1.63739 5.35101,-1.94966"
       id="path1650"
       style="fill:#a8adb4;fill-opacity:1;fill-rule:evenodd;stroke:none" />
    <g
       transform="matrix(2.1606631,0,0,2.1606631,-84.39755,247.43485)"
       clip-path="url(#clip44)"
       id="g1652">
      <path
         d="m 186.64844,78.25 c 1.48047,-0.15625 2.16406,0.371094 2.48047,0.949219 -0.82032,-0.207031 -2.04688,-0.285157 -3.30079,0.199219 -0.8164,0.3125 -1.5039,0.769531 -1.88671,1.074218 l -0.0352,-0.171875 c -0.1875,-0.65625 0.0586,-1.113281 0.0586,-1.113281 0,0 1.28125,-0.792969 2.6836,-0.9375"
         id="path1654"
         style="fill:#fffdff;fill-opacity:1;fill-rule:nonzero;stroke:none" />
    </g>
    <path
       d="m 309.17229,424.24628 c -0.11824,-0.1604 -1.21538,-0.81024 -2.12689,-1.266 -1.82307,-0.91153 -3.79805,-0.71742 -3.79805,-0.71742 0,0 1.83994,-1.73865 3.44356,-2.71769 3.13971,-1.92434 4.29601,-2.53205 4.29601,-2.53205 0,0 -1.31666,2.40545 -0.4389,4.74335 0.33761,0.91997 0.3967,0.86932 0.64988,1.57829 l -2.02561,0.91152"
       id="path1656"
       style="fill:#a8adb4;fill-opacity:1;fill-rule:nonzero;stroke:none" />
    <g
       transform="matrix(2.1606631,0,0,2.1606631,-84.39755,247.43485)"
       clip-path="url(#clip45)"
       id="g1658">
      <path
         d="m 180.95703,81.210938 c -0.79297,-0.332032 -1.72266,-0.222657 -1.72266,-0.222657 0,0 0.875,-0.996093 1.61719,-1.453125 1.45313,-0.886718 2.29297,-1.203125 2.29297,-1.203125 0,0 -0.46094,0.84375 -0.39844,1.695313 -0.27734,0.144531 -0.83593,0.429687 -0.99218,0.539062 -0.125,0.08594 -0.5,0.402344 -0.79688,0.644532"
         id="path1660"
         style="fill:#fffdff;fill-opacity:1;fill-rule:nonzero;stroke:none" />
    </g>
    <path
       d="m 300.7744,425.30975 c 6.39758,-1.83151 8.9887,4.03435 8.9887,4.03435 0,0 -2.77679,-1.62893 -5.50293,0.0676 -2.16911,1.34198 -2.8781,2.37166 -3.7474,4.09345 -1.30823,0.0507 -3.00467,-0.54017 -3.86557,-1.73023 -0.96217,-1.32508 -0.60768,-3.13971 -0.60768,-3.13971 0,0 1.68801,-2.45605 4.73488,-3.32539"
       id="path1662"
       style="fill:#a8adb4;fill-opacity:1;fill-rule:evenodd;stroke:none" />
    <g
       transform="matrix(2.1606631,0,0,2.1606631,-84.39755,247.43485)"
       clip-path="url(#clip46)"
       id="g1664">
      <path
         d="m 178.14453,82.207031 c 1.54297,-0.441406 3,0.09375 3.53906,0.820313 -1.19922,-0.21875 -2.86328,-0.210938 -4.14453,0.75 -0.6914,0.515625 -1.16406,1.191406 -1.38281,1.542968 -0.30078,-0.582031 -0.25781,-1.472656 -0.25781,-1.472656 0,0 0.83593,-1.238281 2.24609,-1.640625"
         id="path1666"
         style="fill:#fffdff;fill-opacity:1;fill-rule:nonzero;stroke:none" />
    </g>
    <path
       d="m 284.52723,432.74547 c 0.75117,-0.18569 2.88651,-0.86089 2.88651,-0.86089 l 3.68832,0.25319 -2.87808,-2.06781 c 0.40514,-0.91154 0.6499,-1.58674 3.08065,-4.10189 2.38853,-2.47295 5.46917,-3.39292 5.46917,-3.39292 l 3.64611,0.65834 c -5.21596,1.67112 -5.97556,3.24099 -6.83646,5.16533 -1.24914,2.79367 1.5361,5.58733 1.5361,5.58733 0,0 -0.81869,0.49798 -2.44764,1.66269 -1.41793,-0.11822 -2.5067,-0.32915 -4.19471,-0.16887 -1.47703,0.14346 -7.38508,0.69209 -8.60046,6.97996 -0.8609,4.45638 4.34665,6.1275 5.66329,6.22879 -2.22818,1.82305 -4.0006,4.11877 -6.27098,6.97995 -1.8146,2.28726 -4.35509,6.07687 -4.35509,6.07687 l 6.57483,-1.11409 c 0,0 -6.55793,8.41477 -9.52884,22.10459 -2.3126,-0.0674 -4.17786,-0.12653 -4.17786,-0.12653 0,0 0.90309,4.11031 1.16474,5.26661 -2.48984,-2.03406 -5.34258,-3.62925 -8.30504,-4.70957 0.49794,-2.76835 1.13094,-5.63797 1.92432,-8.56668 8.23754,-30.34213 13.61388,-34.30899 18.31499,-40.58841 0,0 1.975,-0.84401 3.64613,-1.26601"
       id="path1668"
       style="fill:#a8adb4;fill-opacity:1;fill-rule:nonzero;stroke:none" />
    <g
       transform="matrix(2.2685983,0,0,2.2685983,-127.66478,235.55641)"
       clip-path="url(#clip47)"
       id="g1670">
      <path
         d="m 184.44022,83.755041 c 1.01195,-1.049152 2.47406,-1.49932 2.56707,-1.529083 l 0.44273,1.194248 c -1.13844,0.558059 -1.22773,0.933819 -1.51792,1.584889 -0.50969,1.142163 0.40924,2.351292 0.55806,2.507549 l -2.02018,-0.915218 -0.17486,-0.08557 -1.19424,-0.703156 c 0.17858,-0.401803 0.26042,-0.944981 1.33934,-2.05366"
         id="path1672"
         style="fill:#fffdff;fill-opacity:1;fill-rule:nonzero;stroke:none" />
      <path
         d="m 171.0319,109.25094 c 0.093,-0.52458 0.1823,-1.14589 0.29019,-1.67418 0.15626,-0.72177 0.37949,-1.52909 0.58038,-2.27317 1.84532,-6.797167 3.3186,-10.577092 4.63934,-13.028835 1.25006,-2.235961 2.33641,-3.471132 3.29999,-4.750949 l -0.22322,-0.513416 1.83044,1.830436 c -0.73292,0.431567 -1.38027,0.993347 -1.62954,2.276884 -0.10417,0.543179 -0.0558,0.989627 0.15626,1.357946 -0.79245,1.02311 -2.46663,3.303714 -3.32232,4.817916 -2.53731,4.505408 -4.02547,8.657368 -5.04113,12.202908 -0.16371,-0.067 -0.41297,-0.18602 -0.58039,-0.24554"
         id="path1674"
         style="fill:#fffdff;fill-opacity:1;fill-rule:nonzero;stroke:none" />
    </g>
    <path
       d="m 283.22746,440.86482 c 5.24974,-6.90398 13.8502,-0.87776 13.8502,-0.87776 0,0 -5.35105,-0.79336 -7.34289,2.21974 -0.74273,1.14785 -1.10565,2.22818 -1.35887,4.0006 -4.98808,1.32509 -6.94618,-2.99623 -5.14844,-5.34258"
       id="path1676"
       style="fill:#a8adb4;fill-opacity:1;fill-rule:evenodd;stroke:none" />
    <g
       transform="matrix(2.1606631,0,0,2.1606631,-84.39755,247.43485)"
       clip-path="url(#clip48)"
       id="g1678">
      <path
         d="m 169.97266,89.398438 c 1.52343,-2.003907 4.03125,-1.546876 5.41015,-1.007813 -1.34765,0.128906 -3.09375,0.550781 -4.03906,1.640625 -0.58594,0.675781 -0.875,1.386719 -0.97266,1.777344 -0.64843,-0.550782 -0.88672,-1.769532 -0.39843,-2.410156"
         id="path1680"
         style="fill:#fffdff;fill-opacity:1;fill-rule:nonzero;stroke:none" />
    </g>
    <path
       d="m 317.62083,438.06272 c 0,0 -1.08033,6.03467 -5.18222,8.40633 -4.09344,2.3801 -11.51228,3.13127 -11.51228,3.13127 0,0 8.0603,-2.91183 11.73172,-6.14438 2.55735,-2.26195 4.96278,-5.39322 4.96278,-5.39322"
       id="path1682"
       style="fill:#a8adb4;fill-opacity:1;fill-rule:evenodd;stroke:none" />
    <path
       d="m 328.87147,425.49542 c 0,0 1.46012,2.7768 0.21109,5.17379 -1.44326,2.78521 -7.86618,4.507 -7.86618,4.507 0,0 2.95404,-1.69646 5.00499,-4.49856 2.29569,-3.13973 2.65019,-5.18223 2.65019,-5.18223"
       id="path1684"
       style="fill:#a8adb4;fill-opacity:1;fill-rule:evenodd;stroke:none" />
    <path
       d="m 318.3973,427.83333 c 0,0 1.44326,1.90747 0.21111,4.31289 -1.49392,2.9287 -7.6636,5.20753 -7.6636,5.20753 0,0 1.55298,-1.55297 4.14406,-4.2538 2.6924,-2.80212 3.30852,-5.26662 3.30852,-5.26662"
       id="path1686"
       style="fill:#a8adb4;fill-opacity:1;fill-rule:evenodd;stroke:none" />
    <path
       d="m 306.961,434.08743 c 0,0 1.54452,3.60393 0,5.82366 -2.70083,3.88246 -7.98434,4.10189 -7.98434,4.10189 0,0 2.37168,-1.13098 5.28351,-3.82335 2.85275,-2.64175 2.70083,-6.1022 2.70083,-6.1022"
       id="path1688"
       style="fill:#a8adb4;fill-opacity:1;fill-rule:evenodd;stroke:none" />
    <path
       d="m 295.65971,444.23241 c 0,0 1.58674,3.85714 0.37981,6.27945 -2.05096,4.10187 -9.05622,4.96276 -9.05622,4.96276 0,0 4.44794,-1.7893 6.5495,-5.06405 2.70083,-4.2116 2.12691,-6.17816 2.12691,-6.17816"
       id="path1690"
       style="fill:#a8adb4;fill-opacity:1;fill-rule:evenodd;stroke:none" />
    <path
       d="m 391.22686,417.74742 c 0,0 -1.58674,-2.06782 -3.83181,-3.41823 -1.97499,-1.19006 -3.89932,-1.78086 -5.1569,-2.22818 l 0.88622,-3.78117 41.73623,9.63858 -0.88618,3.44357 c -0.86089,-0.0172 -1.94122,-0.0759 -3.22413,0.0676 -2.64176,0.2954 -4.16097,0.95372 -5.78146,1.81461 0.16871,-0.47265 0.76806,-1.41792 1.35885,-2.24507 0.74273,-1.04657 2.23663,-1.94966 2.23663,-1.94966 0,0 -3.36759,-1.66269 -8.38102,0.54862 -0.89463,0.38825 -1.89058,1.24069 -2.57421,1.82304 -0.11823,-0.58235 -0.13501,-1.52763 -0.66678,-2.90337 -0.82712,-2.15223 -3.99215,-3.99216 -3.99215,-3.99216 0,0 0.27008,1.89058 -1.51079,2.91183 -0.94528,0.5486 -1.80618,0.8862 -2.64175,1.08033 0,0 -0.35446,-1.53611 -1.5614,-2.70083 -2.74305,-2.64174 -6.80273,-3.14815 -6.80273,-3.14815 0,0 1.41795,1.36728 1.4095,3.25786 0,0.71741 -0.43046,1.43482 -0.61612,1.78087"
       id="path1692"
       style="fill:#a8adb4;fill-opacity:1;fill-rule:evenodd;stroke:none" />
    <path
       d="m 406.78194,392.74786 c 0.22788,-0.99591 1.21537,-1.61204 2.21131,-1.38416 0.99592,0.2279 1.61206,1.22382 1.38417,2.21132 -0.22787,0.99591 -1.21536,1.61204 -2.21129,1.38415 -0.99595,-0.22787 -1.61206,-1.21537 -1.38419,-2.21131"
       id="path1694"
       style="fill:#a8adb4;fill-opacity:1;fill-rule:evenodd;stroke:none" />
    <g
       transform="matrix(2.1606631,0,0,2.1606631,-84.39755,247.43485)"
       clip-path="url(#clip49)"
       id="g1696">
      <path
         d="m 229.08203,67.359375 c -0.23828,-0.125 -0.64844,-0.238281 -1.00391,-0.04687 -0.3164,0.171875 -0.47265,0.558594 -0.51953,0.832031 -0.21875,-0.203125 -0.39843,-0.578125 -0.32812,-0.890625 0.10547,-0.457031 0.71094,-0.902344 1.17187,-0.796875 0.35938,0.08203 0.63282,0.558594 0.67969,0.902344"
         id="path1698"
         style="fill:#fffdff;fill-opacity:1;fill-rule:nonzero;stroke:none" />
    </g>
    <path
       d="m 402.67162,396.49528 -0.57391,2.48139 c 1.08033,-2.05096 3.44355,-3.1988 5.80677,-2.65863 2.59954,0.60767 4.29601,3.05531 4.01749,5.64642 l 0.73426,-3.16504 c 1.08878,-0.60767 2.39701,-0.82713 3.70523,-0.52329 2.22818,0.51485 3.78957,2.38011 4.02591,4.53233 l 0.48953,-2.11002 c 1.08876,-0.60769 2.39698,-0.82713 3.70521,-0.52329 2.81897,0.6499 4.56608,3.46044 3.92462,6.271 -0.34603,1.49389 -1.30821,2.69238 -2.54891,3.38446 l -8.53292,5.81524 2.19442,-9.4951 c -0.47265,0.75117 -1.12252,1.35885 -1.88213,1.78085 l -8.53294,5.81523 2.43075,-10.54167 c -0.24477,0.69206 -0.64146,1.30821 -1.12253,1.81461 l -6.43979,7.537 -2.38856,-9.74831 c -0.10976,-0.39668 -0.1687,-0.81025 -0.18559,-1.2238 l -2.27882,9.85801 -5.12315,-8.97182 c -0.48951,-0.70897 -0.81024,-1.54453 -0.90308,-2.4223 l -2.18598,9.49511 -5.13159,-8.97182 c -0.81024,-1.16473 -1.14786,-2.65863 -0.8018,-4.15253 0.64988,-2.81898 3.46044,-4.56608 6.27098,-3.91621 1.30822,0.29541 2.38855,1.07192 3.10596,2.09315 l -0.48952,2.11004 c 1.1563,-1.83151 3.37603,-2.82745 5.60423,-2.30416 1.31666,0.29541 2.39698,1.07188 3.10594,2.09315"
       id="path1700"
       style="fill:#a8adb4;fill-opacity:1;fill-rule:nonzero;stroke:none" />
    <g
       transform="matrix(2.1606631,0,0,2.1606631,-84.39755,247.43485)"
       clip-path="url(#clip50)"
       id="g1702">
      <path
         d="m 221.39062,69.117188 c -0.14843,-0.292969 -0.67578,-0.875 -1.41406,-0.976563 -0.97265,-0.132813 -1.62109,0.375 -1.89844,1.121094 -0.23046,0.617187 -0.27734,1.378906 -0.22656,2.042969 l -0.28125,-0.375 c -0.375,-0.539063 -0.68359,-1.296876 -0.52344,-1.988282 0.29688,-1.304687 1.83594,-2.257812 3.13672,-1.957031 0.60547,0.140625 1.25782,0.5 1.58985,0.972656 l -0.38282,1.160157"
         id="path1704"
         style="fill:#fffdff;fill-opacity:1;fill-rule:nonzero;stroke:none" />
      <path
         d="m 225.58203,68.894531 -0.38672,1.101563 c -0.14844,-0.292969 -0.67578,-0.875 -1.41406,-0.976563 -0.97266,-0.136719 -1.625,0.375 -1.89844,1.121094 -0.23047,0.617187 -0.27734,1.390625 -0.22656,2.054687 l -0.29297,-0.292968 c -0.22656,-0.328125 -0.29297,-0.792969 -0.33594,-1.199219 l 0.42578,-1.839844 c 0.53125,-0.847656 1.57422,-1.191406 2.60547,-0.953125 0.60547,0.140625 1.19141,0.511719 1.52344,0.984375"
         id="path1706"
         style="fill:#fffdff;fill-opacity:1;fill-rule:nonzero;stroke:none" />
      <path
         d="m 229.71094,71.507812 c -0.19141,-0.46875 -0.74219,-1.449218 -2.09375,-1.601562 -1.09375,-0.125 -1.78125,0.464844 -2.04688,1.210938 -0.21875,0.621093 -0.32812,1.394531 -0.35156,1.992187 l -0.31641,-0.960937 c -0.0508,-0.183594 -0.043,-0.484376 -0.0469,-0.679688 l 0.375,-1.589844 c 0.5,-0.949218 1.58594,-1.320312 2.67969,-1.066406 1.20312,0.277344 2.07421,1.460938 1.80078,2.695312"
         id="path1708"
         style="fill:#fffdff;fill-opacity:1;fill-rule:nonzero;stroke:none" />
      <path
         d="m 230.00781,69.898438 c 0.50391,-0.277344 1.23047,-0.3125 1.83594,-0.171876 1.02734,0.234376 1.86328,1.167969 1.77734,2.167969 -0.16015,-0.28125 -0.75,-1.082031 -2.24218,-1.121093 -0.76172,-0.01953 -1.3125,0.289062 -1.66407,0.726562 l 0.29297,-1.601562"
         id="path1710"
         style="fill:#fffdff;fill-opacity:1;fill-rule:nonzero;stroke:none" />
      <path
         d="m 233.71875,70.835938 c 0.50391,-0.277344 1.51172,-0.386719 2.12109,-0.246094 1.02344,0.238281 1.95313,1.277344 1.58985,2.183594 -0.16407,-0.28125 -0.75391,-1.082032 -2.2461,-1.121094 -0.75781,-0.01953 -1.30078,0.265625 -1.65625,0.683594 l 0.10157,-0.433594 0.0898,-1.066406"
         id="path1712"
         style="fill:#fffdff;fill-opacity:1;fill-rule:nonzero;stroke:none" />
    </g>
    <path
       d="m 389.70764,422.11939 c 0,0 5.20754,0.45576 9.17436,2.33791 3.08909,1.46012 4.67583,3.30852 5.3426,3.84023 0,0 3.22412,-0.99593 5.34257,-1.08877 2.43075,-0.10976 3.86557,0.0844 6.17816,0.83557 0,0 2.86118,3.30851 3.92464,4.4226 -0.24476,-0.27851 -3.89087,-1.53609 -8.34725,-1.50234 -2.9034,0.0254 -7.34288,1.24915 -7.34288,1.24915 0,0 -2.54046,-2.87807 -4.6758,-3.91621 -4.47328,-2.17754 -9.20816,-2.00029 -9.55421,-1.91589 0.18561,0.0507 4.06811,1.51077 7.13188,3.91619 2.36323,1.85682 3.41824,3.91622 3.41824,3.91622 0,0 1.94123,-0.21102 3.13972,0.0507 1.81461,0.40512 2.62486,1.16471 2.62486,1.16471 0,0 2.9878,-1.29133 6.40604,-1.35885 5.08093,-0.10975 6.71829,2.21975 11.3097,2.21975 0,0 -3.84867,2.9878 -7.59606,2.27883 -4.70114,-0.89466 -7.94213,1.11409 -8.65111,1.77242 -1.73865,-2.25351 -3.79803,-3.19881 -6.64234,-3.03 -1.17316,0.0676 -2.16909,0.49798 -2.92872,0.75117 -0.0252,0.009 -2.49828,-4.09344 -6.3385,-5.09781 -3.36759,-0.87777 -6.59172,-4.16941 -6.59172,-4.16941 l 1.16473,4.50702 c 0,0 -1.50233,-0.3967 -2.48982,-0.50641 -1.08033,-0.10976 -2.76835,0.009 -2.76835,0.009 0,0 0.97061,0.5486 1.78086,1.23225 0.61611,0.52328 1.3082,1.60361 1.3082,1.60361 0,0 -3.31694,2.48139 -4.32133,6.81959 -1.41793,6.1275 1.31668,10.7358 1.31668,10.7358 0,0 2.10158,-1.41793 5.71393,-1.8737 3.73897,-0.47265 6.86178,0.0507 6.86178,0.0507 0,0 -2.30413,-1.77244 -6.55792,-1.82306 -2.5236,-0.0337 -4.22007,0.45575 -5.01342,0.86088 -0.0172,-0.30384 -0.14348,-2.58268 -0.14348,-2.58268 0,0 2.52359,-0.60767 5.14845,-0.422 2.44761,0.17725 5.62955,0.97907 5.62955,0.97907 0,0 -1.72179,-1.82307 -5.72239,-2.63332 -3.19035,-0.64144 -4.90371,-0.12653 -4.90371,-0.12653 0.0252,-0.68365 0.43888,-2.26193 0.65836,-2.70927 0,0 2.11845,-0.15193 5.17376,0.73428 2.74303,0.80182 4.54076,1.69648 4.54076,1.69648 -1.5192,-2.27884 -4.30445,-4.24538 -8.60888,-4.6505 0.49795,-0.64989 1.38416,-1.68802 3.06375,-2.30415 6.10217,-2.25349 9.58794,1.44326 9.58794,1.44326 l -1.266,1.16473 -0.38825,6.40604 3.58704,4.67579 c 0,0 -0.16023,1.11412 -0.41357,1.82307 0,0 -4.59142,-0.98749 -9.92554,-0.31228 -2.31259,0.28696 -4.99655,1.27445 -5.8068,1.6205 -0.10129,-0.17725 0.91153,2.88651 0.63301,5.58734 -0.24476,2.3801 -1.39261,4.49857 -1.90745,5.8321 -0.85246,2.19441 -2.13536,9.4529 1.73023,12.49134 3.04684,2.40542 6.195,-0.23634 9.91709,0.88622 3.02998,0.91151 4.0428,3.19035 7.28378,3.59546 1.56989,0.19403 4.34666,-0.52329 4.34666,-0.52329 0,0 0.0589,4.71801 -1.6036,8.48229 -1.24914,2.83587 -4.22005,6.0178 -4.5914,6.17816 0.13499,-0.48955 0.54016,-1.71334 0.5317,-2.84432 -0.009,-0.80179 -0.30385,-2.03406 -0.30385,-2.03406 -0.64987,1.64582 -0.92841,2.32947 -1.98341,3.47732 -1.58675,1.7049 -3.8318,2.48139 -3.8318,2.48139 0.39668,-0.68366 0.6752,-1.84838 0.75115,-3.08063 0.0505,-0.85247 0.0172,-1.33354 -0.135,-2.16911 -0.44732,0.62457 -0.71741,0.96216 -1.23225,1.52766 -1.86525,2.05939 -5.35944,3.75583 -5.35944,3.75583 0,0 -2.31259,-2.32103 -3.08064,-4.22003 -0.96218,-2.35479 -0.8609,-2.54891 -0.87777,-4.23694 -0.51484,0.6077 -0.77647,0.97904 -1.19849,1.65425 -0.96218,1.54455 -1.06345,2.28728 -1.5361,3.68834 -1.04658,-1.23226 -1.72179,-2.50671 -2.13534,-4.34664 -0.27851,-1.24914 -0.19402,-3.26633 -0.19402,-3.26633 0,0 -0.81026,1.02124 -1.22381,1.77242 -0.40511,0.75961 -1.05502,2.24505 -1.05502,2.24505 0,0 -1.38415,-3.20721 -1.25757,-6.09374 0.2111,-4.72644 2.5236,-10.0015 3.06377,-11.5207 0.20244,-0.58238 0.37136,-1.10566 0.53172,-1.83152 1.10564,-4.91213 -1.25759,-8.00965 -2.33792,-12.68544 -0.50639,-2.19443 -0.59923,-6.3554 -0.66677,-6.43137 0,0 -1.05501,1.14787 -1.688,1.90747 -0.72585,0.86089 -1.2407,1.41793 -1.79775,2.26194 0.14346,-1.16472 0.75119,-8.23753 2.5658,-12.60106 1.67114,-4.0006 4.12721,-6.68454 4.25381,-7.00527 -0.0674,-0.0676 -1.90747,0.42201 -3.0891,0.82714 -1.9159,0.6752 -4.32973,2.02561 -4.70111,2.26194 0.26163,-0.48952 3.71364,-9.0309 9.46135,-13.77423 4.7602,-3.92464 10.18718,-5.34258 10.18718,-5.34258"
       id="path1714"
       style="fill:#a8adb4;fill-opacity:1;fill-rule:evenodd;stroke:none" />
    <g
       transform="matrix(2.1606631,0,0,2.1606631,-84.39755,247.43485)"
       clip-path="url(#clip51)"
       id="g1716">
      <path
         d="m 235.3125,87.382812 c -0.25,0.183594 -2.01172,1.519532 -3.60938,1.21875 -2.17578,-0.414062 -3.74609,0.539063 -4.07421,0.84375 -0.28907,-0.378906 -0.66407,-0.738281 -1.00782,-0.960937 1.06641,-0.6875 2.78516,-1.519531 4.44922,-1.171875 2,0.417969 3.46875,0.25 4.24219,0.07031"
         id="path1718"
         style="fill:#fffdff;fill-opacity:1;fill-rule:nonzero;stroke:none" />
      <path
         d="m 223.90625,83.894531 c -2.00391,-0.976562 -4.16406,-1.117187 -4.44141,-1.078125 -0.51953,-0.01563 -0.97265,0.01953 -1.46484,0.113282 0.44531,0.246093 1.01172,0.539062 1.71484,0.871093 2.71485,1.28125 4.09375,3.160157 4.6836,4.238281 -0.41797,0.06641 -0.79297,0.347657 -1.07813,0.445313 -0.16015,-0.207031 -1.32422,-2.023437 -2.99609,-2.460937 -1.5586,-0.40625 -3.02344,-1.976563 -3.02344,-1.976563 -0.10547,-0.265625 -0.23437,-0.632813 -0.3125,-0.871094 l -0.62109,-1.179687 c 1.58593,-0.902344 2.83203,-1.265625 2.83203,-1.265625 l 0.0625,0.06641 c 1.17969,0.316406 3.07031,0.910156 4.17578,1.597656 1.65234,1.03125 2.40234,2.597657 2.67187,3.324219 0.0781,0.347656 -1.21093,-1.34375 -2.20312,-1.824219"
         id="path1720"
         style="fill:#fffdff;fill-opacity:1;fill-rule:nonzero;stroke:none" />
      <path
         d="m 215.14844,90.425781 c -0.625,2.707031 0.15625,4.410157 0.25781,4.59375 0.0508,2.640625 -1.10547,4.464844 -2.20313,5.574219 -0.22265,-0.632812 -0.53125,-1.277344 -0.69921,-2.015625 -0.23829,-1.015625 -0.16016,-2.730469 -0.19141,-2.765625 0,0 -0.54688,0.609375 -0.83984,0.960938 -0.33594,0.398437 -0.66016,0.710937 -0.91407,1.101562 0.0625,-0.539062 0.375,-4.28125 1.21485,-6.300781 0.77343,-1.851563 1.72265,-2.84375 1.78125,-2.996094 -0.0312,-0.02734 -0.78907,0.277344 -1.33594,0.46875 -0.88672,0.308594 -1.91016,0.777344 -2.08203,0.890625 0.11328,-0.214844 1.5039,-4.058594 3.91015,-6.300781 1.46094,0.242187 3.17579,1.726562 3.92188,2.585937 -0.10156,-0.02734 -0.78516,-0.179687 -1.20313,-0.222656 -0.49609,-0.05078 -0.86718,-0.09375 -0.86718,-0.09375 0,0 0.28125,0.152344 0.65625,0.46875 0.28515,0.242188 0.49218,0.75 0.49218,0.75 0,0 -1.43359,1.292969 -1.89843,3.300781"
         id="path1722"
         style="fill:#fffdff;fill-opacity:1;fill-rule:nonzero;stroke:none" />
      <path
         d="m 215.26562,102.39453 c -0.14843,0.85156 -0.30468,1.86328 -0.0469,2.83594 -0.14844,0.80078 -0.25,1.78906 -0.043,2.17578 1.33203,2.48438 4.39844,0.51563 5.98828,1.80469 1.96094,1.58203 2.50781,1.17187 3.32813,1.14844 0.43359,1.60546 0.5,3.01953 -0.23438,4.63671 -0.46875,0.58985 -0.96484,1.0625 -1.05469,1.09766 0.0586,-0.22266 0.21875,-0.83594 0.21094,-1.35547 -0.004,-0.37109 -0.0469,-0.65625 -0.0469,-0.65625 -0.30078,0.76172 -0.51563,0.96875 -1.00782,1.4961 -0.73046,0.79296 -1.7539,0.91406 -1.7539,0.91406 0.17969,-0.31641 0.22265,-0.69141 0.25781,-1.26172 0.0234,-0.39063 0.1875,-0.60156 0.11719,-0.98438 -0.20313,0.28907 -0.42188,0.51172 -0.65625,0.77344 -0.86328,0.95313 -2.46094,1.58985 -2.46094,1.58985 0,0 -1.16406,-1.17969 -1.51953,-2.0586 -0.44531,-1.08984 -0.36719,-0.85937 -0.375,-1.64062 -0.24219,0.28125 -0.22656,0.46093 -0.42188,0.77343 -0.44531,0.71485 -0.41406,1.01563 -0.63281,1.66407 -0.48437,-0.57032 -0.98047,-1.42188 -1.17187,-2.27344 -0.12891,-0.57813 -0.11719,-1.26563 -0.11719,-1.26563 0,0 -0.23047,0.33204 -0.42188,0.67969 -0.1875,0.35156 -0.44531,1.17188 -0.44531,1.17188 0,0 -0.97265,-1.80469 -0.91015,-3.13672 0.0937,-2.19141 1.17578,-4.44922 1.42578,-5.15625 0.0664,-0.19141 0.22656,-0.51172 0.28125,-0.72266 0.45703,-0.65625 1.27343,-1.64453 1.71093,-2.25"
         id="path1724"
         style="fill:#fffdff;fill-opacity:1;fill-rule:nonzero;stroke:none" />
      <path
         d="m 218.82422,90.144531 c 0.92578,-0.550781 2.3125,-0.628906 3.27734,-0.511719 l 0.0469,2.855469 1.59375,2.203125 c 0,0 -0.32813,0.746094 -0.44532,1.074219 0,0 -2.07812,-0.519531 -4.54296,-0.207031 -0.4336,0.05078 -0.91407,0.277344 -1.33594,0.394531 -0.0937,-0.339844 -0.26563,-1.113281 -0.30469,-1.542969 0.28125,-0.07031 0.74219,-0.214844 1.07813,-0.257812 1.73046,-0.21875 2.32031,0.02344 2.32031,0.02344 0,0 -0.39844,-0.421875 -2.36719,-0.445312 -0.40234,-0.0039 -0.71875,-0.01953 -1.03125,0.02344 0.0117,-0.136718 0.0273,-0.421875 0.0469,-0.5625 0.0352,-0.226562 0.11718,-0.59375 0.16406,-0.796875 0.28906,-0.01563 0.6289,-0.04687 0.9375,-0.02344 1.13281,0.08203 2.08594,0.445312 2.08594,0.445312 0,0 -0.28125,-0.515625 -2.13282,-0.890625 -0.20703,-0.03906 -0.5,-0.04687 -0.67968,-0.07031 0.17187,-0.386719 0.46875,-1.042969 0.70312,-1.3125 0.125,0.03125 0.5,0.148437 0.63281,0.1875 1.26953,0.371093 1.52344,0.632812 1.52344,0.632812 -0.39062,-0.582031 -0.80078,-0.820312 -1.57031,-1.21875"
         id="path1726"
         style="fill:#fffdff;fill-opacity:1;fill-rule:nonzero;stroke:none" />
    </g>
    <path
       d="m 387.28534,465.77153 c 2.38854,-0.87777 4.70112,-0.2363 6.64235,1.58676 1.05501,0.99591 1.91588,3.19035 1.91588,3.19035 0,0 0.65833,-3.19035 4.81087,-2.2282 1.37573,0.32073 4.59984,1.56985 4.66736,4.54922 0.0422,1.5192 -1.10566,2.76834 -1.53608,3.24099 -0.0337,-0.0507 -0.11823,-1.71333 -0.80183,-2.87807 -0.68363,-1.16474 -1.83992,-2.1691 -1.83992,-2.1691 0,0 -0.23634,1.20692 -0.91155,2.48981 -0.72583,1.39264 -2.26193,3.26632 -2.26193,3.26632 -0.65834,0.0505 -1.99188,0 -3.99217,-0.65831 -1.7471,-0.56549 -3.46888,-1.73866 -3.46888,-1.73866 0,0 -0.39669,-1.98342 -0.48107,-3.26632 -0.0846,-1.26603 0.0337,-3.25787 0.0337,-3.25787 0,0 -0.98749,0.21109 -2.51515,1.28289 -1.06346,0.75116 -1.94964,2.37166 -2.11847,2.55734 -0.11823,-0.26163 -0.45576,-2.56578 -0.45576,-2.76835 0,-0.0252 0.19403,-2.42229 2.3126,-3.1988"
       id="path1728"
       style="fill:#a8adb4;fill-opacity:1;fill-rule:evenodd;stroke:none" />
    <path
       d="m 388.62731,470.1857 c -0.0761,0.2111 -0.10977,2.33791 0.0761,3.81493 0.1687,1.29977 0.57391,2.77679 0.73427,3.28319 -0.17716,0.10129 -1.19006,0.20247 -1.94122,0.0929 -1.06344,-0.15194 -1.97498,-0.86089 -1.97498,-0.86089 0,0 0.81024,-4.85306 3.10596,-6.33007"
       id="path1730"
       style="fill:#fffdff;fill-opacity:1;fill-rule:evenodd;stroke:none" />
    <path
       d="m 416.08292,439.83514 -3.84024,0.38824 c 0,0 0.0172,1.08877 1.14787,1.56985 0.9115,0.38825 1.84836,0.25322 2.32101,-0.36292 0.56549,-0.74273 0.37136,-1.59517 0.37136,-1.59517"
       id="path1732"
       style="fill:#a8adb4;fill-opacity:1;fill-rule:evenodd;stroke:none" />
    <path
       d="m 408.5628,460.41208 c -0.5908,-0.48953 -1.67113,-1.04657 -1.67113,-1.04657 0.3629,1.80618 -0.0761,4.03436 -0.36292,5.25817 0.58236,-0.19402 1.6036,-0.78492 2.25349,-1.46013 0.66677,-0.68364 0.81026,-1.13097 1.0297,-1.50235 -0.24477,-0.26163 -0.70898,-0.81868 -1.24914,-1.24912"
       id="path1734"
       style="fill:#fffdff;fill-opacity:1;fill-rule:evenodd;stroke:none" />
    <path
       d="m 397.99582,438.05429 0,0"
       id="path1736"
       style="fill:#a8adb4;fill-opacity:1;fill-rule:nonzero;stroke:none" />
    <path
       d="m 401.66725,473.66304 c -0.0422,0.21943 -1.00438,2.11843 -1.86525,3.33381 -0.75962,1.0719 -1.80618,2.17755 -2.18599,2.55736 0.10976,0.16871 0.95372,0.73428 1.66269,0.9875 1.01282,0.37133 2.15223,0.1687 2.15223,0.1687 0,0 1.56142,-4.66737 0.23632,-7.04746"
       id="path1738"
       style="fill:#fffdff;fill-opacity:1;fill-rule:evenodd;stroke:none" />
    <path
       d="m 443.73267,558.30871 -0.97906,0 -0.63302,1.91588 -0.63301,-1.91588 -0.98749,0 0,3.24099 0.61613,0 0,-2.61644 0.009,0 0.81025,2.61644 0.36291,0 0.81024,-2.61644 0.0172,0 0,2.61644 0.6077,0 0,-3.24099 z m -3.57018,0 -2.3801,0 0,0.62455 0.85245,0 0,2.61644 0.67521,0 0,-2.61644 0.85244,0 0,-0.62455"
       id="path1740"
       style="fill:#002b5f;fill-opacity:1;fill-rule:evenodd;stroke:none" />
    <path
       d="m 292.88291,487.97743 c 0,0 3.30007,0.29539 5.41012,0.30382 2.20284,0.009 3.67144,-0.24475 5.62953,-0.27852 0.51485,-0.009 4.49012,-0.422 7.71425,0.11824 3.50263,0.59081 7.3513,2.20285 9.39381,5.82364 1.93279,3.40982 2.41387,9.30943 0.90308,13.33535 -1.71334,4.54922 -4.65047,8.44854 -11.69795,9.47822 -1.95811,0.28698 -3.45201,0.11824 -4.95435,-0.0928 -0.75115,-0.1013 -1.50232,-0.2111 -2.32945,-0.28696 -0.81869,-0.0674 -1.7049,-0.0929 -2.73459,-0.0252 -1.6627,0.10129 -4.81085,0.47265 -4.81085,0.47265 0,0 1.14785,-2.05095 2.23664,-3.04688 0.64988,-0.59925 1.83148,-1.32509 1.83148,-1.32509 l -1.1985,-20.01991 c 0,0 -1.94121,-0.54017 -2.97091,-1.27446 -1.55298,-1.10566 -2.42231,-3.18189 -2.42231,-3.18189 z m 20.76265,21.67414 c 2.35477,-2.44763 2.27037,-6.40603 0.9959,-9.73987 -1.26599,-3.27475 -2.72615,-5.72237 -7.22472,-6.73518 -0.11823,-0.0252 -0.47263,-0.0674 -0.82712,-0.10976 l -0.54016,-0.0674 c -0.0173,5.99247 -0.24477,12.5251 -0.15194,18.66104 2.86962,0.7174 5.61264,0.15193 7.74802,-2.00872"
       id="path1742"
       style="fill:#a8adb4;fill-opacity:1;fill-rule:evenodd;stroke:none" />
    <g
       transform="matrix(2.1606631,0,0,2.1606631,-84.39755,247.43485)"
       clip-path="url(#clip52)"
       id="g1744">
      <path
         d="m 184.06641,121.20703 c 1.08984,-1.1289 1.09375,-2.64062 0.50781,-4.1875 l -0.0859,-0.16406 0.88281,-1.16016 c 0,0 1.98047,3.90235 -0.42578,6.3086 -1.80078,1.80078 -4.9375,0.97265 -4.9375,0.97265 l 0.75781,-0.83984 c 1.32813,0.33594 2.3125,0.0742 3.30079,-0.92969"
         id="path1746"
         style="fill:#fffdff;fill-opacity:1;fill-rule:nonzero;stroke:none" />
      <path
         d="m 177.55078,122.64844 -0.59766,-9.20313 1.36329,-0.4414 0.28125,10.30468 c 0,0 -0.91016,0.33204 -1.35938,0.53516 -0.47266,0.21484 -1.25,0.70703 -1.50781,0.87109 0.0352,-0.0664 0.45703,-1.03125 0.9414,-1.47656 0.30079,-0.27734 0.87891,-0.58984 0.87891,-0.58984"
         id="path1748"
         style="fill:#fffdff;fill-opacity:1;fill-rule:nonzero;stroke:none" />
      <path
         d="m 174.49219,111.21094 c 0,0 1.6914,0.14062 2.66797,0.14453 1.01953,0.004 1.73046,-0.16797 2.63671,-0.18359 0.23438,-0.008 2.13672,-0.14844 3.62891,0.10156 1.62109,0.27344 3.46484,1.01562 4.41406,2.6875 0.0625,0.11328 0.12891,0.35156 0.1836,0.47656 l -1.41016,-0.0898 c -0.52734,-0.85547 -1.89062,-1.81641 -3.51953,-2.01172 -2.84766,-0.34766 -3.375,-0.043 -5.46875,-0.082 -1.07031,-0.0234 -2.00781,-0.21875 -3.00391,-0.92188 l -0.1289,-0.12109"
         id="path1750"
         style="fill:#fffdff;fill-opacity:1;fill-rule:nonzero;stroke:none" />
    </g>
    <path
       d="m 435.72302,547.02429 c 0.65831,0.76805 1.57828,2.62486 1.57828,2.62486 0,0 -5.14846,-0.49797 -6.74361,-0.49797 -2.30417,-0.009 -7.46949,0.56548 -7.46949,0.56548 0,0 0.96216,-1.84838 2.40543,-3.13969 0.76805,-0.69209 1.53609,-0.99593 1.53609,-0.99593 0.48952,-6.63392 0.59925,-20.59383 0.59925,-20.59383 0,0 -1.10566,-1.84838 -2.03405,-2.76835 -0.91999,-0.92841 -2.69241,-2.27883 -2.69241,-2.27883 0,0 2.92026,-0.37981 4.96279,-0.37981 2.32945,0 5.57889,0.65835 5.57889,0.65835 l 1.29132,1.29976 c 2.30416,2.59956 4.00905,4.99653 5.64643,7.36821 1.48547,2.16067 2.92027,4.30444 4.70114,6.57483 -0.1267,-2.29572 -0.093,-5.43543 -0.38825,-7.91683 -0.19402,-1.66269 -0.17717,-7.95054 -0.17717,-7.95054 l -5.81523,-3.36761 c 0,0 7.89992,-0.11824 8.71018,-0.0761 0.70897,0.0422 4.19472,-0.135 4.19472,-0.135 0,0 -1.02124,11.21687 -1.63736,27.65819 l 0.0846,6.58324 c 0,0 -2.45607,-1.22379 -5.56201,-4.40571 -2.92027,-2.99623 -4.40573,-5.01342 -5.93337,-7.1572 -1.44327,-2.01717 -2.9034,-4.15251 -5.62114,-7.40195 0.24476,4.69268 0.42203,9.69766 0.94531,14.19623 0.39669,0.24476 1.30822,0.91153 1.83994,1.5361"
       id="path1752"
       style="fill:#a8adb4;fill-opacity:1;fill-rule:evenodd;stroke:none" />
    <g
       transform="matrix(2.1606631,0,0,2.1606631,-84.39755,247.43485)"
       clip-path="url(#clip53)"
       id="g1754">
      <path
         d="m 241.98437,135.11328 c -0.66406,-0.92969 -1.29687,-2.21875 -2.54687,-3.71484 l -0.0117,-1.85938 6.45703,7.85938 c 0,0 0.25781,0.83593 0.69141,1.63672 0.23437,0.4375 0.71094,1.03906 0.96484,1.33984 -0.11328,-0.0586 -1.55078,-0.6875 -2.90625,-2.07813 -1.35547,-1.38671 -1.9414,-2.19531 -2.64844,-3.18359"
         id="path1756"
         style="fill:#fffdff;fill-opacity:1;fill-rule:nonzero;stroke:none" />
      <path
         d="m 246.15234,124.22266 c 0.30469,0.0156 1.77344,0.004 2.00391,-0.008 -0.1875,0.19922 -0.58594,0.67969 -0.95313,0.92188 -0.35937,0.23437 -1.01953,0.42578 -1.01953,0.42578 l -0.20703,8.92187 -0.98828,-1.28125 c -0.0547,-1.05859 -0.12891,-2.42968 -0.26172,-3.57031 -0.0937,-0.76953 -0.11719,-3.5625 -0.11719,-3.5625 l -3.02343,-1.80078 c 0,0 4.1914,-0.0703 4.5664,-0.0469"
         id="path1758"
         style="fill:#fffdff;fill-opacity:1;fill-rule:nonzero;stroke:none" />
      <path
         d="m 237.06641,125.78906 c 1.0039,0 2.57421,0.29688 2.7539,0.32813 -0.12109,0.11328 -0.5039,0.39453 -0.86328,0.55469 -0.53516,0.23437 -0.95312,0.30468 -0.95312,0.30468 l -0.082,11.57031 c 0,0 -0.7539,0.16407 -1.51562,0.50782 -0.53906,0.24609 -1.32813,0.71484 -1.71094,0.95312 0.0547,-0.0977 0.39063,-0.98437 1.01563,-1.54687 0.35547,-0.32032 0.86328,-0.63282 0.86328,-0.63282 0.23047,-3.07031 0.30469,-9.29687 0.30469,-9.29687 0,0 -0.50782,-0.78906 -0.9375,-1.21875 -0.42579,-0.42578 -1.4961,-1.28906 -1.4961,-1.28906 0,0 1.67578,-0.23438 2.6211,-0.23438"
         id="path1760"
         style="fill:#fffdff;fill-opacity:1;fill-rule:nonzero;stroke:none" />
    </g>
    <path
       d="m 315.07192,519.27327 c 1.90745,0.10976 5.00498,0.65833 5.00498,0.65833 0,0 4.90368,11.19154 6.85334,16.85487 1.77244,-5.01342 3.89932,-11.08186 5.03031,-15.37786 l 0.37978,-1.45169 c 0,0 1.95812,0.10129 3.16504,0.10129 3.03,0.0172 6.94621,-0.35447 6.94621,-0.35447 0,0 -0.59926,1.30823 -2.01719,2.58267 -0.81026,0.73429 -1.20693,0.99592 -1.97498,1.46857 0.10129,0.5233 0.31227,2.54046 0.33759,2.89494 l 2.71772,18.93958 c 0.0846,0.059 0.84401,1.05501 1.24068,1.81462 0.4389,0.82712 0.83558,2.24506 0.83558,2.24506 0,0 -2.72615,-0.75116 -6.05998,-1.14786 -3.00468,-0.35447 -6.7774,-0.29541 -6.7774,-0.29541 0,0 0.87776,-1.69643 1.62895,-2.64173 0.53171,-0.67519 1.2069,-1.35887 1.51077,-1.61206 -0.41358,-3.19035 -0.71742,-5.50293 -1.26601,-8.7777 -2.53203,5.99246 -5.17379,12.73612 -5.17379,12.73612 l -4.77709,-1.81464 c 0,0 -2.43074,-6.22033 -2.87807,-7.30911 -0.38824,-0.96217 -0.79337,-1.96655 -1.5614,-3.93308 -0.58239,3.34227 -0.97062,5.77301 -1.31667,8.72705 0,0 0.7596,1.08033 1.09722,1.84838 0.35449,0.79337 0.64145,2.1269 0.64145,2.1269 0,0 -3.72209,-0.14347 -6.08532,-0.0172 -2.70925,0.14347 -6.90397,0.83557 -6.90397,0.83557 0,0 1.21536,-2.22818 2.76834,-3.42669 1.67114,-1.29132 2.52358,-1.63737 2.68396,-1.71333 0.60768,-2.45607 2.14376,-11.10714 3.26631,-16.54258 -0.1687,-0.48952 -1.15629,-2.8021 -2.12692,-4.20316 -1.5783,-2.28726 -3.34227,-2.98778 -3.34227,-2.98778 0,0 3.12283,-0.40514 6.15283,-0.22789"
       id="path1762"
       style="fill:#a8adb4;fill-opacity:1;fill-rule:evenodd;stroke:none" />
    <g
       transform="matrix(2.1606631,0,0,2.1606631,-84.39755,247.43485)"
       clip-path="url(#clip54)"
       id="g1764">
      <path
         d="m 185.05469,125.65234 c 0.85937,0.0469 2.25781,0.36719 2.33203,0.38282 0,0 -0.9375,0.42968 -1.36328,0.53515 -0.42578,0.10547 -1.20313,0.19532 -1.20313,0.19532 l 0.78125,1.9414 -1.6914,8.94922 c 0,0 -0.91797,0.25 -1.60938,0.57422 -0.60937,0.28906 -1.48828,0.85937 -1.89844,1.13281 0.0547,-0.0937 0.66797,-1.28906 1.35157,-1.81641 0.76953,-0.59375 0.88671,-0.80859 0.96093,-0.84375 0.27735,-1.13281 1.14063,-4.85937 1.66016,-7.375 -0.0781,-0.22656 -0.41797,-1.32031 -0.86719,-1.96874 -0.73047,-1.05469 -1.58984,-1.5 -1.58984,-1.5 0,0 1.73437,-0.28907 3.13672,-0.20704"
         id="path1766"
         style="fill:#fffdff;fill-opacity:1;fill-rule:nonzero;stroke:none" />
      <path
         d="m 193.32031,137.125 c -0.1875,-1.46484 -0.12109,-2.28516 -0.375,-3.78125 l 0.84766,-2.25781 1.0625,6.96484 c 0,0 -0.80078,0.26953 -1.30078,0.47656 -0.4375,0.17969 -1.15235,0.53907 -1.58594,0.75782 0.0508,-0.0937 0.39453,-0.90625 0.71875,-1.31641 0.25,-0.3125 0.49219,-0.72656 0.63281,-0.84375"
         id="path1768"
         style="fill:#fffdff;fill-opacity:1;fill-rule:nonzero;stroke:none" />
      <path
         d="m 194.42187,126.00391 c 1.35547,0.004 3.21485,-0.0977 3.33594,-0.10547 -0.41406,0.21875 -1.45703,0.76172 -2.08594,0.96484 -0.74218,0.24219 -1.96093,0.41797 -1.96093,0.41797 l -2.87891,7.85937 -0.49609,-1.34375 c 0.82031,-2.3164 1.73828,-4.96484 2.26172,-6.95312 l 0.23046,-0.89062 c 0,0 1.03516,0.0469 1.59375,0.0508"
         id="path1770"
         style="fill:#fffdff;fill-opacity:1;fill-rule:nonzero;stroke:none" />
      <path
         d="m 187.02344,135.01953 c -0.17969,-0.44531 -0.34766,-0.90234 -0.70313,-1.80469 l 0.3125,-1.85547 2.66016,6.1211 c 0,0 0.28125,0.53906 0.52344,0.84375 0.20703,0.26172 0.72656,0.6875 0.97656,0.88281 l -2.50781,-0.83984 c 0,0 -1.0586,-2.84375 -1.26172,-3.34766"
         id="path1772"
         style="fill:#fffdff;fill-opacity:1;fill-rule:nonzero;stroke:none" />
    </g>
    <path
       d="m 370.16881,547.02429 c 0.65835,0.76805 1.56985,2.62486 1.56985,2.62486 0,0 -5.13999,-0.49797 -6.74362,-0.49797 -2.29569,-0.009 -7.46103,0.56548 -7.46103,0.56548 0,0 0.96218,-1.84838 2.40543,-3.13969 0.76805,-0.69209 1.53608,-0.99593 1.53608,-0.99593 0.48955,-6.63392 0.59926,-20.59383 0.59926,-20.59383 0,0 -1.11411,-1.84838 -2.03407,-2.76835 -0.92841,-0.92841 -2.69237,-2.27883 -2.69237,-2.27883 0,0 2.92026,-0.37981 4.96275,-0.37981 2.32103,0 5.57889,0.65835 5.57889,0.65835 l 1.29135,1.29976 c 2.2957,2.59956 4.00905,4.99653 5.63799,7.36821 1.49388,2.16067 2.92027,4.30444 4.70114,6.57483 -0.11824,-2.29572 -0.0846,-5.43543 -0.37981,-7.91683 -0.20245,-1.66269 -0.42203,-4.6336 -0.42203,-4.6336 l -5.11467,-3.36759 c 0,0 7.19939,0.23634 8.00964,0.27854 0.70895,0.0507 4.19471,-0.135 4.19471,-0.135 0,0 -0.78493,7.54541 -1.39261,23.98673 l 0.0846,6.58327 c 0,0 -2.46449,-1.22381 -5.562,-4.40574 -2.92872,-2.99623 -4.40574,-5.01341 -5.9334,-7.15718 -1.44325,-2.01718 -2.91181,-4.15252 -5.6211,-7.40197 0.24478,4.69268 0.42201,9.69766 0.9453,14.19623 0.38824,0.24476 1.30823,0.91154 1.83994,1.5361"
       id="path1774"
       style="fill:#a8adb4;fill-opacity:1;fill-rule:evenodd;stroke:none" />
    <g
       transform="matrix(2.1606631,0,0,2.1606631,-84.39755,247.43485)"
       clip-path="url(#clip55)"
       id="g1776">
      <path
         d="m 211.63672,134.9375 c -0.66406,-0.92969 -1.28516,-2.03516 -2.53516,-3.53125 l -0.0156,-1.86719 6.45312,7.85938 c 0,0 0.26172,0.83593 0.69141,1.63672 0.23437,0.4375 0.60547,0.91796 0.86328,1.21875 -0.11719,-0.0586 -1.41016,-0.67188 -2.76563,-2.0625 -1.35546,-1.38672 -1.98437,-2.26172 -2.6914,-3.25391"
         id="path1778"
         style="fill:#fffdff;fill-opacity:1;fill-rule:nonzero;stroke:none" />
      <path
         d="m 215.6875,125.95313 c 0.30078,0.0195 1.77734,-0.008 2.00781,-0.0195 -0.21094,0.19532 -0.65625,0.57032 -0.94531,0.73829 -0.37109,0.21875 -1.01953,0.42578 -1.01953,0.42578 l -0.0937,7.38671 -0.98047,-1.26953 c -0.0547,-1.05859 -0.0391,-2.4414 -0.17578,-3.58203 -0.0898,-0.76953 -0.21094,-2.0625 -0.21094,-2.0625 l -2.42187,-1.66406 c 0,0 3.46484,0.0273 3.83984,0.0469"
         id="path1780"
         style="fill:#fffdff;fill-opacity:1;fill-rule:nonzero;stroke:none" />
      <path
         d="m 206.77734,125.85156 c 1.00391,0 2.44141,0.28907 2.6211,0.32813 -0.1211,0.10937 -0.42188,0.33203 -0.78125,0.49219 -0.53516,0.23437 -0.95703,0.30468 -0.95703,0.30468 l -0.082,11.57031 c 0,0 -0.75,0.16407 -1.51562,0.50782 -0.53516,0.24609 -1.23828,0.66406 -1.61719,0.89843 0.0508,-0.0977 0.42969,-0.95312 1.05469,-1.51562 0.35547,-0.32031 0.62109,-0.59766 0.62109,-0.59766 0.22657,-3.07031 0.41797,-9.34375 0.41797,-9.34375 0,0 -0.48437,-0.80078 -0.91015,-1.23046 -0.42969,-0.42579 -1.32422,-1.19532 -1.32422,-1.19532 0,0 1.52343,-0.21875 2.47265,-0.21875"
         id="path1782"
         style="fill:#fffdff;fill-opacity:1;fill-rule:nonzero;stroke:none" />
    </g>
    <path
       d="m 275.20936,490.01148 c -0.9706,-0.97905 -1.266,-2.27883 -1.266,-2.27883 0,0 4.11876,0.1267 6.32162,0.1267 2.43075,0 7.31756,-0.10129 7.31756,-0.10129 0,0 -0.6921,1.55297 -1.3251,2.43075 -0.5908,0.82713 -1.7471,1.92434 -1.7471,1.92434 -0.43887,5.85743 -1.06344,11.60513 -1.03812,17.25998 2.15223,2.28726 5.86588,1.83151 6.65922,1.70489 0.093,-0.25321 0.93686,-2.61643 2.75992,-4.12718 1.55299,-1.29979 3.62923,-1.62896 3.62923,-1.62896 0,0 -1.11408,2.63331 -1.46013,4.41419 -0.52327,2.70082 0.0337,7.04748 0.0337,7.04748 l -13.37756,-0.0337 c -1.80617,-2.92027 -4.33819,-5.12314 -7.18251,-6.7774 0.17717,-0.21944 0.59927,-0.74272 0.76806,-0.97062 0.21108,-0.2785 1.266,-1.19004 1.98342,-1.54452 0,0 -0.14347,-10.6936 -0.53171,-16.13746 -0.10977,-0.0761 -0.99595,-0.75117 -1.54456,-1.30821"
       id="path1784"
       style="fill:#a8adb4;fill-opacity:1;fill-rule:evenodd;stroke:none" />
    <g
       transform="matrix(2.1606631,0,0,2.1606631,-84.39755,247.43485)"
       clip-path="url(#clip56)"
       id="g1786">
      <path
         d="m 167.25,121.08984 c -0.39453,0.0859 -0.91797,0.3125 -1.17188,0.4375 0.0312,-0.0352 0.0664,-0.38671 0.21875,-0.55859 0.14063,-0.16406 0.58204,-0.58594 0.91407,-0.75 0,0 -0.0586,-4.69531 -0.23438,-7.21484 -0.0508,-0.0352 -0.46875,-0.44141 -0.72656,-0.70313 -0.44531,-0.44922 -0.67969,-1.26562 -0.67969,-1.26562 0,0 2.375,0.0508 3.39453,0.0508 1.125,0 3.36719,0.0391 3.36719,0.0391 -0.92187,0.50391 -1.57031,0.67969 -2.52734,0.89063 -0.59375,0.1289 -1.54297,0.22265 -1.54297,0.22265 l 0,8.75781 c 0,0 -0.625,0.008 -1.01172,0.0937"
         id="path1788"
         style="fill:#fffdff;fill-opacity:1;fill-rule:nonzero;stroke:none" />
      <path
         d="m 169.44141,121.82031 0.96093,-0.70312 c 0.9961,1.0625 2.4375,0.53906 2.80078,0.48047 0.043,-0.11328 0.42579,-1.14844 1.26563,-1.84766 0.71875,-0.59766 2.02734,-0.53516 2.02734,-0.53516 -0.30859,0.1875 -1.2539,0.85547 -1.69922,1.86329 -0.36718,0.83984 -0.51171,1.10937 -0.60937,1.87109 -0.89844,0.0273 -1.43359,0.10937 -2.5625,-0.082 -1.77734,-0.30078 -2.18359,-1.04688 -2.18359,-1.04688"
         id="path1790"
         style="fill:#fffdff;fill-opacity:1;fill-rule:nonzero;stroke:none" />
    </g>
    <path
       d="m 354.03138,523.69588 c -0.009,0.24477 -0.54017,16.18809 -0.48953,21.82608 0.10977,0.0845 0.91996,0.70895 1.40948,1.27444 0.8187,0.95373 1.56144,2.81899 1.56144,2.81899 0,0 -4.05125,-0.51484 -6.06001,-0.5486 -2.41386,-0.0337 -5.89116,0.57393 -5.89116,0.57393 0,0 0.41357,-1.58675 0.98748,-2.43076 0.43045,-0.64145 1.00435,-1.20694 1.34196,-1.43481 0.0505,-7.35132 -0.0337,-15.19218 -0.47263,-22.29027 -0.0422,-0.0507 -0.89466,-0.79337 -1.31665,-1.41794 -0.5655,-0.83557 -0.97907,-2.41386 -0.97907,-2.41386 0,0 5.38479,0.22787 6.64236,0.17717 1.3251,-0.0505 5.95872,-0.19403 5.95872,-0.19403 0,0 -0.59927,1.89902 -1.39263,2.85273 -0.43887,0.53175 -1.29976,1.20695 -1.29976,1.20695"
       id="path1792"
       style="fill:#a8adb4;fill-opacity:1;fill-rule:evenodd;stroke:none" />
    <g
       transform="matrix(2.1606631,0,0,2.1606631,-84.39755,247.43485)"
       clip-path="url(#clip57)"
       id="g1794">
      <path
         d="m 201.40234,125.93359 c 0.59766,-0.0273 2.74219,0 2.84375,0 -0.4414,0.23047 -1.27343,0.64844 -2.05468,0.90235 -0.62891,0.19922 -1.46485,0.34375 -1.46485,0.34375 l -0.0195,11.32812 c 0,0 -0.53906,0.19531 -1.05859,0.48828 -0.33594,0.1875 -0.94532,0.71875 -1.17969,0.92578 0.0195,-0.0703 0.16406,-0.77343 0.41406,-1.14453 0.19922,-0.29297 0.41797,-0.67968 0.57422,-0.78515 0.0195,-3.40235 0.0352,-6.92578 -0.16406,-10.21094 -0.0195,-0.0234 -0.42578,-0.40234 -0.6211,-0.69141 -0.26171,-0.38671 -0.44531,-1.1914 -0.44531,-1.1914 0,0 2.58985,0.0547 3.17578,0.0352"
         id="path1796"
         style="fill:#fffdff;fill-opacity:1;fill-rule:nonzero;stroke:none" />
    </g>
    <path
       d="m 240.63034,505.95482 c 0,0 3.19877,0.72584 6.70142,0.8018 2.12689,0.0505 4.98807,-0.0674 7.25003,-0.0337 7.31756,0.11824 35.13609,2.61641 26.88167,30.29991 -2.21972,7.46105 -8.39786,12.18749 -15.75763,12.89644 -2.65862,0.26167 -5.41009,0.0337 -8.11937,-0.20243 -4.54922,-0.38824 -11.59668,0.33759 -11.60511,0.33759 l -0.43046,0.0761 c 0,0 0.60768,-2.21131 1.97498,-3.65456 1.51923,-1.60361 2.97091,-2.23661 2.97091,-2.23661 l -1.94965,-29.36309 c 0,0 -1.54454,-0.4642 -2.74303,-1.26599 -4.54921,-3.03845 -5.17376,-7.65518 -5.17376,-7.65518 z m 18.03645,38.30112 c 5.37633,0.22788 7.91682,-1.05501 11.30129,-4.49014 3.69675,-3.83178 3.67988,-9.79892 2.49826,-13.69826 -1.52766,-5.07248 -6.11062,-7.86615 -11.411,-9.21656 -0.43045,-0.1013 -1.56985,-0.15194 -2.23662,-0.23635 -0.009,9.05624 -0.2954,18.34032 -0.15193,27.64131"
       id="path1798"
       style="fill:#a8adb4;fill-opacity:1;fill-rule:evenodd;stroke:none" />
    <g
       transform="matrix(2.1606631,0,0,2.1606631,-84.39755,247.43485)"
       clip-path="url(#clip58)"
       id="g1800">
      <path
         d="m 158.96875,137.14844 c 2.48828,0.10937 3.23047,-0.375 4.79687,-1.96485 1.45704,-1.50781 1.73438,-3.4375 1.42969,-5.17578 l 1.1211,-1.54687 c 0,0 1.90625,6.72265 -3.78125,9.2539 -1.66407,0.74219 -4.63282,0.52735 -4.63282,0.52735 l 0.875,-0.875 0.19141,-0.21875"
         id="path1802"
         style="fill:#fffdff;fill-opacity:1;fill-rule:nonzero;stroke:none" />
      <path
         d="m 154.28125,138.91797 c -0.39844,0.21094 -1.21484,0.86719 -1.70703,1.27734 0.0312,-0.11719 0.22656,-1.15625 0.82031,-1.78125 0.69922,-0.73828 1.37891,-1.14844 1.37891,-1.14844 l -0.82422,-13.38281 1.32812,-0.95312 0.78907,15.22265 c 0,0 -0.73047,0.21485 -1.78516,0.76563"
         id="path1804"
         style="fill:#fffdff;fill-opacity:1;fill-rule:nonzero;stroke:none" />
      <path
         d="m 150.27734,119.49219 c 0,0 1.63282,0.33594 3.25782,0.375 0.98046,0.0195 2.63281,-0.15625 3.67578,-0.14063 2.60547,0.0391 10.67187,1.04297 12.57422,7.21094 l -1.55469,-0.20703 c 0,0 -1.32422,-3.875 -7.44531,-5.10156 -4.38282,-0.88282 -6.13672,-0.0977 -7.77735,-0.5586 -1.39453,-0.39453 -2.1875,-1 -2.60156,-1.44531 l -0.12891,-0.13281"
         id="path1806"
         style="fill:#fffdff;fill-opacity:1;fill-rule:nonzero;stroke:none" />
    </g>
    <path
       d="m 311.20635,531.14846 c 0.0337,7.95058 -6.7352,14.49164 -14.3819,14.49164 -7.23318,0 -12.42381,-6.40602 -12.42381,-12.66857 0,-6.89554 6.30473,-13.72358 13.68982,-13.76577 5.8321,0 13.0737,4.81929 13.11589,11.9427 z m -5.77303,2.47296 c 0.0845,-4.82774 -4.96276,-8.8199 -9.66389,-8.87898 -2.96249,-0.0507 -5.89963,2.90339 -5.89963,5.96715 0,4.86993 4.81931,9.79893 10.81178,9.49511 2.30412,-0.11823 4.68423,-2.68395 4.75174,-6.58328"
       id="path1808"
       style="fill:#a8adb4;fill-opacity:1;fill-rule:evenodd;stroke:none" />
    <g
       transform="matrix(2.1606631,0,0,2.1606631,-84.39755,247.43485)"
       clip-path="url(#clip59)"
       id="g1810">
      <path
         d="m 180.16016,132.51172 c 0.0117,-0.63672 -0.0117,-1.14453 -0.32813,-1.6875 l 0.84375,-1.10156 c 1.32031,1.97265 0.65234,4.69921 -0.71094,5.83593 -2.05468,1.70703 -4.73047,0.5586 -6.16406,-0.83593 l 1.30078,-0.38282 c 0.87891,0.71485 1.82422,1.04688 3.08985,0.98438 1.07031,-0.0547 1.9375,-1.00781 1.96875,-2.8125"
         id="path1812"
         style="fill:#fffdff;fill-opacity:1;fill-rule:nonzero;stroke:none" />
      <path
         d="m 172.59766,136.60937 c -1.19922,-1.1289 -2.0625,-2.9375 -2.0625,-4.51953 0,-3.1914 3.14062,-6.44531 6.55859,-6.46093 1.77734,0 3.92187,1.08593 5.12891,2.6914 l -1.25391,0.30469 c -1.1875,-1.40625 -4.88281,-3.07422 -7.64844,-0.30859 -3.24609,3.24609 -0.43359,6.79296 -0.43359,6.79296 l -0.28906,1.5"
         id="path1814"
         style="fill:#fffdff;fill-opacity:1;fill-rule:nonzero;stroke:none" />
    </g>
    <path
       d="m 397.09273,523.69588 c -0.009,0.24477 -0.54017,16.18809 -0.48954,21.82608 0.10976,0.0845 0.91998,0.70895 1.40105,1.27444 0.82716,0.95373 1.56143,2.81899 1.56143,2.81899 0,0 -4.04281,-0.51484 -6.05155,-0.5486 -2.41388,-0.0337 -5.89118,0.57393 -5.89118,0.57393 0,0 0.40512,-1.58675 0.98749,-2.43076 0.43045,-0.64145 1.00437,-1.20694 1.34196,-1.43481 0.0422,-7.35132 -0.0422,-15.19218 -0.47265,-22.29027 -0.0422,-0.0507 -0.89463,-0.79337 -1.31663,-1.41794 -0.5655,-0.83557 -0.97906,-2.41386 -0.97906,-2.41386 0,0 5.38477,0.22787 6.64235,0.17717 1.32508,-0.0505 5.9587,-0.19403 5.9587,-0.19403 0,0 -0.60767,1.89902 -1.39262,2.85273 -0.43888,0.53175 -1.29975,1.20695 -1.29975,1.20695"
       id="path1816"
       style="fill:#a8adb4;fill-opacity:1;fill-rule:evenodd;stroke:none" />
    <g
       transform="matrix(2.1606631,0,0,2.1606631,-84.39755,247.43485)"
       clip-path="url(#clip60)"
       id="g1818">
      <path
         d="m 221.35547,125.97656 c 0.59375,-0.0234 2.71875,-0.043 2.82031,-0.043 -0.44141,0.23047 -1.27734,0.64844 -2.05469,0.90235 -0.6289,0.19922 -1.46484,0.34375 -1.46484,0.34375 l -0.0195,11.32812 c 0,0 -0.53906,0.19531 -1.0586,0.48828 -0.33593,0.1875 -0.95703,0.71875 -1.1914,0.92969 0.0156,-0.0742 0.14844,-0.85937 0.40234,-1.23047 0.19922,-0.29297 0.5,-0.57422 0.65625,-0.67969 0.0195,-3.40234 0,-6.9375 -0.19922,-10.22265 -0.0195,-0.0234 -0.47265,-0.39063 -0.66797,-0.67969 -0.26171,-0.38672 -0.44531,-1.22656 -0.44531,-1.22656 0,0 2.63672,0.11719 3.22266,0.0898"
         id="path1820"
         style="fill:#fffdff;fill-opacity:1;fill-rule:nonzero;stroke:none" />
    </g>
    <path
       d="m 425.44298,531.14846 c 0.0422,7.95058 -6.72675,14.49164 -14.37348,14.49164 -7.24158,0 -12.42381,-6.40602 -12.42381,-12.66857 0,-6.89554 6.29631,-13.72358 13.68139,-13.76577 5.83211,0 13.07369,4.81929 13.1159,11.9427 z m -5.7646,2.47296 c 0.0761,-4.82774 -4.96275,-8.8199 -9.66388,-8.87898 -2.97091,-0.0507 -5.90807,2.90339 -5.90807,5.96715 0,4.86993 4.81929,9.79893 10.8202,9.49511 2.30414,-0.11823 4.67582,-2.68395 4.75175,-6.58328"
       id="path1822"
       style="fill:#a8adb4;fill-opacity:1;fill-rule:evenodd;stroke:none" />
    <g
       transform="matrix(2.1606631,0,0,2.1606631,-84.39755,247.43485)"
       clip-path="url(#clip61)"
       id="g1824">
      <path
         d="m 233.10937,132.46484 c 0.0117,-0.63672 -0.082,-1.07422 -0.39843,-1.61328 l 0.83593,-1.1289 c 1.32422,1.97265 0.65235,4.69921 -0.71093,5.83593 -2.05469,1.70703 -4.72657,0.5586 -6.16016,-0.83593 l 1.30469,-0.40625 c 0.8789,0.71484 1.84765,1.14062 3.11719,1.07812 1.0664,-0.0547 1.98046,-1.125 2.01171,-2.92969"
         id="path1826"
         style="fill:#fffdff;fill-opacity:1;fill-rule:nonzero;stroke:none" />
      <path
         d="m 225.42969,136.60937 c -1.19922,-1.1289 -1.99219,-2.86718 -1.99219,-4.44921 0,-3.19141 3.04687,-6.49219 6.46484,-6.50782 1.77735,0 3.99219,1.10938 5.19922,2.71485 l -1.26172,0.25781 c -1.1875,-1.40625 -4.88281,-3.07422 -7.64453,-0.30859 -3.24609,3.24609 -0.43359,6.79296 -0.43359,6.79296 l -0.33203,1.5"
         id="path1828"
         style="fill:#fffdff;fill-opacity:1;fill-rule:nonzero;stroke:none" />
    </g>
    <path
       d="m 418.50524,559.75194 -0.33761,0.11824 -2.32947,0.62457 c -9.77363,2.64174 -16.61009,3.76428 -30.74725,2.55736 -4.89525,-0.41357 -10.11125,-1.59518 -14.72795,-2.92027 -0.21111,-0.076 -0.32073,-0.11823 -0.32073,-0.11823 0,0 11.64731,2.64175 28.08017,1.67114 12.28034,-0.71743 19.68231,-3.82338 19.68231,-3.82338 l 6.05997,0.79339 3.95841,-3.12286 -6.30473,-1.95809 -4.72647,3.05531 -21.3028,-2.43917 0.50642,-1.81463 20.09586,2.54045 5.13999,-3.33383 10.56701,3.26632 -7.22472,5.8237 -6.06841,-0.92"
       id="path1830"
       style="fill:#fffdff;fill-opacity:1;fill-rule:evenodd;stroke:none" />
    <path
       d="m 431.70554,557.62504 -5.56203,4.49013 0,14.72797 5.60422,-4.3973 -0.0422,-14.8208"
       id="path1832"
       style="fill:#a8adb4;fill-opacity:1;fill-rule:evenodd;stroke:none" />
    <path
       d="m 418.50524,561.90417 5.15687,0.70895 0,15.08246 -5.15687,-1.08876 0,-14.70265"
       id="path1834"
       style="fill:#a8adb4;fill-opacity:1;fill-rule:evenodd;stroke:none" />
    <path
       d="m 293.54968,570.30207 0.33759,-0.11824 2.32949,-0.63301 c 9.77364,-2.64176 16.61009,-3.76428 30.74724,-2.55733 4.89526,0.42199 10.34756,1.50233 14.72795,2.92025 0.2111,0.0761 0.32073,0.11824 0.32073,0.11824 0,0 -11.42787,-2.6333 -28.08017,-1.67114 -12.28035,0.71741 -19.6823,3.82336 -19.6823,3.82336 l -6.06842,-0.78491 -3.94997,3.11439 6.30475,1.96653 4.72644,-3.06376 21.3028,2.44765 -0.50642,1.81461 -20.09584,-2.54891 -5.14001,3.34229 -10.56699,-3.27477 7.2247,-5.82367 6.06843,0.92842"
       id="path1836"
       style="fill:#fffdff;fill-opacity:1;fill-rule:evenodd;stroke:none" />
    <path
       d="m 327.14124,564.9004 c -14.39877,-1.23227 -21.48847,-0.0846 -31.4731,2.61643 l 0,-14.08652 c 11.36038,-3.10596 15.19216,-4.05124 30.15645,-3.20722 14.04431,0.79336 30.68818,7.42727 30.68818,7.42727 0,0 15.99395,6.54107 29.40525,7.37664 16.13746,1.01282 19.89331,0.1267 30.44344,-2.55734 l 0,14.08652 c -11.36881,3.10595 -14.01899,3.78958 -30.15647,3.20722 -14.06119,-0.50639 -27.04204,-5.82366 -30.23239,-7.11499 0,0 -15.43692,-6.60859 -28.83136,-7.74801"
       id="path1838"
       style="fill:#a8adb4;fill-opacity:1;fill-rule:nonzero;stroke:none" />
    <path
       d="m 280.34938,572.42897 5.56203,-4.49012 0,-14.73643 -5.60422,4.40575 0.0422,14.8208"
       id="path1840"
       style="fill:#a8adb4;fill-opacity:1;fill-rule:evenodd;stroke:none" />
    <path
       d="m 293.54968,568.14984 -5.15688,-0.70896 0,-15.0909 5.15688,1.08879 0,14.71107"
       id="path1842"
       style="fill:#a8adb4;fill-opacity:1;fill-rule:evenodd;stroke:none" />
    <path
       d="m 260.65866,483.175 c 0.19403,-1.18162 0.43044,-2.37166 0.69208,-3.57859 -0.25321,1.19849 -0.48109,2.39697 -0.69208,3.57859"
       id="path1844"
       style="fill:#a8adb4;fill-opacity:1;fill-rule:nonzero;stroke:none" />
    <path
       d="m 260.65866,519.6784 c 0.39668,-0.23632 0.76806,-0.50641 1.10566,-0.81025 1.88212,0.57393 3.57014,1.34196 4.97963,2.32947 -1.77242,1.91589 -3.85711,3.52795 -6.17813,4.74333 0.0422,-2.09315 0.0761,-4.18629 0.0929,-6.26255 z m 3.30005,-13.67294 c -2.09312,-6.76052 -8.91272,-11.48698 -15.68167,-11.57136 -6.00934,-0.39671 -9.90023,3.58703 -10.18719,10.29689 -0.27852,6.49887 3.47731,11.46165 8.94651,14.04431 l 0.61613,9.57108 c -10.22941,-1.3251 -17.36972,-10.68516 -17.36972,-19.94395 0,-10.95523 10.03527,-21.82606 21.76698,-21.89358 9.30943,0 20.77106,7.69736 20.83859,18.92267 0.009,1.17318 -0.076,2.32103 -0.24476,3.452 -2.85275,-1.3926 -5.88274,-2.2957 -8.68487,-2.87806"
       id="path1846"
       style="fill:#a8adb4;fill-opacity:1;fill-rule:evenodd;stroke:none" />
    <g
       transform="matrix(2.1606631,0,0,2.1606631,-84.39755,247.43485)"
       clip-path="url(#clip62)"
       id="g1848">
      <path
         d="m 153.62891,127.10156 c -0.76563,-0.30859 -1.61719,-0.77343 -2.22266,-1.23828 l 1.70703,-0.67969 c 0.16797,0.0937 0.40625,0.24219 0.58594,0.32813 l -0.0703,1.58984"
         id="path1850"
         style="fill:#fffdff;fill-opacity:1;fill-rule:nonzero;stroke:none" />
      <path
         d="m 161.07422,119.75 c -0.21875,-0.70703 -0.47656,-1.21094 -0.89063,-1.80469 l 0.48438,-1.91797 c 0.94531,0.95313 1.71875,2.50782 2.04687,4.09766 -0.49609,-0.14453 -1.16406,-0.27734 -1.64062,-0.375"
         id="path1852"
         style="fill:#fffdff;fill-opacity:1;fill-rule:nonzero;stroke:none" />
      <path
         d="m 149.76172,128.78906 c -2.5625,-1.76172 -4.44922,-4.98437 -4.44922,-7.96484 0,-5.06641 5.01562,-10.46094 10.44531,-10.48828 2.50781,0 5.64063,1.47265 7.58985,3.51172 l -1.75782,0.42187 c -3.26562,-2.78906 -8.30078,-3.42969 -11.90625,0.17578 -5.41797,5.41407 -1.28515,11.30469 0.28516,12.375 l -0.20703,1.96875"
         id="path1854"
         style="fill:#fffdff;fill-opacity:1;fill-rule:nonzero;stroke:none" />
      <path
         d="m 161.51953,125.95313 c -0.10547,0.12109 -0.35156,0.34375 -0.46875,0.45312 -0.39453,0.37891 -0.98828,0.78516 -1.5,1 0.008,-0.42969 -0.0469,-1.04687 -0.0469,-1.47266 0.1875,-0.10937 0.57031,-0.30468 0.72656,-0.44531 0.41406,0.125 0.92187,0.30078 1.28906,0.46485"
         id="path1856"
         style="fill:#fffdff;fill-opacity:1;fill-rule:nonzero;stroke:none" />
    </g>
    <path
       d="m 308.80937,558.76445 c 0,1.2829 -0.76804,1.92435 -2.10159,2.13534 -1.34197,0.21111 -2.11002,-0.18559 -2.11002,-1.46855 l 0,-4.4817 c 0,-0.15194 0.0505,-0.27854 0.47265,-0.3798 l 0,-0.20247 -3.45199,0.54861 0,0.20245 c 0.42199,-0.0337 0.47264,0.0761 0.47264,0.22788 l 0,4.4817 c 0,2.93715 2.05094,3.58705 4.61672,3.18192 2.55735,-0.40512 4.61673,-1.7049 4.61673,-4.6505 l 0,-4.4817 c 0,-0.14346 0.0505,-0.27007 0.4642,-0.37136 l 0,-0.20245 -3.44354,0.54861 0,0.20247 c 0.42198,-0.0337 0.4642,0.076 0.4642,0.22786 l 0,4.48169"
       id="path1858"
       style="fill:#fffdff;fill-opacity:1;fill-rule:evenodd;stroke:none" />
    <path
       d="m 315.71338,561.23739 c 0,0.15194 -0.0505,0.27009 -0.46423,0.28699 l 0,0.20244 3.17347,0.10977 0,-0.20245 c -0.41354,-0.0507 -0.46419,-0.1687 -0.46419,-0.31228 l 0,-5.2582 c 4.41416,5.08938 4.82771,5.32572 4.82771,5.53671 0,0.11823 -0.0845,0.1856 -0.37979,0.17717 l 0,0.19402 3.17348,0.11824 0,-0.20247 c -0.41355,-0.0507 -0.4642,-0.1687 -0.4642,-0.32073 l 0,-7.7902 c 0,-0.15194 0.0505,-0.27009 0.4642,-0.28695 l 0,-0.20247 -3.06377,-0.10129 0,0.20247 c 0.21947,0.0172 0.3545,0.10975 0.3545,0.31227 l 0,4.46481 c -1.17317,-1.33355 -4.0597,-4.50701 -4.0597,-4.6927 0,-0.10129 0.0846,-0.20245 0.4642,-0.20245 l 0,-0.20246 -4.02591,-0.135 0,0.19403 c 0.41358,0.0507 0.46423,0.1687 0.46423,0.32073 l 0,7.79019"
       id="path1860"
       style="fill:#fffdff;fill-opacity:1;fill-rule:evenodd;stroke:none" />
    <path
       d="m 332.87207,562.97606 0,-0.19402 c -0.42201,-0.0929 -0.47266,-0.21944 -0.47266,-0.37137 l 0,-7.79023 c 0,-0.15194 0.0505,-0.26163 0.47266,-0.23631 l 0,-0.20245 -3.44357,-0.4811 0,0.20246 c 0.41357,0.0929 0.46422,0.21109 0.46422,0.36292 l 0,7.79867 c 0,0.14347 -0.0505,0.25318 -0.46422,0.22789 l 0,0.20245 3.44357,0.48107"
       id="path1862"
       style="fill:#fffdff;fill-opacity:1;fill-rule:evenodd;stroke:none" />
    <path
       d="m 342.53597,565.05233 0,-0.21944 c -0.15194,-0.0337 -0.23633,-0.1267 -0.23633,-0.20245 0,-0.23633 3.19879,-6.68456 3.36759,-7.17411 0.0505,-0.135 0.10977,-0.16041 0.24479,-0.16041 l 0,-0.19402 -2.87808,-0.71741 0,0.19403 c 0.20245,0.0674 0.25322,0.135 0.25322,0.25321 0,0.19403 -0.26167,0.61613 -2.25353,4.53234 -2.09313,-5.06406 -2.34634,-5.52827 -2.34634,-5.66332 0,-0.11823 0.0674,-0.1687 0.3376,-0.11823 l 0,-0.20244 -3.42667,-0.85247 0,0.20247 c 0.1687,0.0505 0.23632,0.16024 0.37979,0.55703 0.37137,0.96218 3.36761,8.46542 3.36761,8.61734 0,0.0674 -0.0505,0.10129 -0.25321,0.0929 l 0,0.19403 3.44356,0.86089"
       id="path1864"
       style="fill:#fffdff;fill-opacity:1;fill-rule:evenodd;stroke:none" />
    <path
       d="m 354.9007,563.47402 -0.20245,-0.0674 c -0.0505,0.19403 -0.1687,0.32073 -0.50642,0.20246 l -3.10594,-1.13097 0,-1.39261 5.36789,1.95809 c 0.18561,0.0674 0.2532,0.16871 0.30385,0.57395 l 0.19402,0.076 0,-2.91183 -0.19402,-0.0761 c -0.0507,0.37137 -0.11824,0.43045 -0.30385,0.36293 l -8.34726,-3.03844 0,0.20247 c 0.42203,0.18559 0.47265,0.32072 0.47265,0.47264 l 0,7.7902 c 0,0.15194 -0.0507,0.24476 -0.47265,0.1267 l 0,0.20246 8.34726,3.03843 c 0.18561,0.0674 0.2532,0.17718 0.30385,0.48111 l 0.19402,0.0674 0,-2.9034 -0.19402,-0.076 c -0.0507,0.3967 -0.11824,0.45577 -0.30385,0.38825 l -5.36789,-1.94965 0,-1.56143 3.10594,1.13941 c 0.33761,0.11824 0.45578,0.32916 0.50642,0.5655 l 0.20245,0.0761 0,-2.61644"
       id="path1866"
       style="fill:#fffdff;fill-opacity:1;fill-rule:evenodd;stroke:none" />
    <path
       d="m 362.58962,568.92633 1.63737,0.56548 c 0.21943,0.43046 1.99187,3.34227 1.99187,3.49419 0,0.20245 -0.135,0.23633 -0.36293,0.17718 l 0,0.20245 3.47731,1.19847 0,-0.20244 c -0.18559,-0.0674 -0.3376,-0.20247 -0.48952,-0.47266 l -1.97497,-3.45198 c 1.39261,0.0929 2.39697,-0.3798 2.39697,-1.9159 0,-1.90745 -1.05501,-3.13971 -3.5364,-3.99218 l -6.11907,-2.11001 0,0.20246 c 0.42202,0.17717 0.47265,0.31227 0.47265,0.46419 l 0,7.79022 c 0,0.15194 -0.0505,0.24476 -0.47265,0.13499 l 0,0.20247 3.45202,1.19004 0,-0.20245 c -0.42201,-0.17717 -0.47265,-0.31229 -0.47265,-0.46419 l 0,-2.81056 z m 0,-3.61237 2.81056,0.97062 c 0.98747,0.33759 1.29133,0.87776 1.29133,1.35887 0,0.48951 -0.30386,0.81866 -1.29133,0.48107 l -2.81056,-0.97059 0,-1.83997"
       id="path1868"
       style="fill:#fffdff;fill-opacity:1;fill-rule:evenodd;stroke:none" />
    <path
       d="m 371.52767,574.54742 0.20247,0.0846 c 0.0929,-0.0761 0.19403,-0.17718 0.32915,-0.15194 0.38824,0.0674 1.6205,1.055 4.41416,1.54452 3.62926,0.64147 4.71801,-0.75959 4.71801,-2.1944 0,-3.84868 -6.92086,-3.24944 -6.92086,-4.73489 0,-0.38824 0.49797,-0.69209 1.9581,-0.43888 1.56984,0.2785 3.47732,1.08034 3.47732,1.49389 l 0,0.18559 0.20243,0.13499 1.14785,-2.11846 -0.18559,-0.1013 c -0.11823,0.11823 -0.22788,0.21111 -0.44732,0.17718 -0.45576,-0.0846 -2.11003,-1.08033 -4.39729,-1.477 -2.46453,-0.4389 -4.06812,0.43042 -4.06812,2.10157 0,3.23256 6.89554,3.0722 6.89554,4.31289 0,0.73428 -0.75115,1.00436 -2.43075,0.70895 -1.73864,-0.30382 -3.52794,-1.37573 -3.52794,-1.82305 0,-0.15193 0,-0.27007 0.0337,-0.34604 l -0.16023,-0.11823 -1.24071,2.75991"
       id="path1870"
       style="fill:#fffdff;fill-opacity:1;fill-rule:evenodd;stroke:none" />
    <path
       d="m 387.81705,577.15541 0,-0.20245 c -0.41356,-0.0507 -0.46419,-0.17717 -0.46419,-0.32073 l 0,-7.79864 c 0,-0.15194 0.0505,-0.26163 0.46419,-0.27851 l 0,-0.19403 -3.44356,-0.18562 0,0.20247 c 0.41358,0.059 0.46421,0.17718 0.46421,0.32916 l 0,7.7902 c 0,0.15194 -0.0505,0.26165 -0.46421,0.27853 l 0,0.20245 3.44356,0.17717"
       id="path1872"
       style="fill:#fffdff;fill-opacity:1;fill-rule:evenodd;stroke:none" />
    <path
       d="m 396.983,577.20606 0,-0.20245 c -0.41357,-0.0252 -0.46421,-0.13499 -0.46421,-0.28697 l 0,-6.2541 2.86964,-0.0507 c 0.18559,-0.009 0.25321,0.0761 0.30382,0.4642 l 0.20247,-0.009 0,-2.97937 -0.20247,0.009 c -0.0505,0.38822 -0.11823,0.47264 -0.30382,0.47264 l -8.25441,0.14348 c -0.18561,0 -0.25322,-0.0761 -0.30386,-0.4642 l -0.20244,0.009 0,2.97091 0.20244,0 c 0.0505,-0.38823 0.11823,-0.47265 0.30386,-0.47265 l 2.86962,-0.0507 0,6.25412 c 0,0.15194 -0.0422,0.27008 -0.4642,0.31228 l 0,0.19402 3.44356,-0.0589"
       id="path1874"
       style="fill:#fffdff;fill-opacity:1;fill-rule:evenodd;stroke:none" />
    <path
       d="m 408.74003,567.55059 c 0.15194,-0.0252 0.37138,-0.0337 0.37138,0.14347 0,0.1687 -1.75553,2.74304 -1.94123,3.10596 -0.55703,-0.75962 -1.8568,-2.38855 -1.8568,-2.5658 0,-0.18559 0.21109,-0.23632 0.41355,-0.26164 l 0,-0.20247 -3.67145,0.51484 0,0.20247 c 0.14347,-0.0172 0.19402,0.0252 0.54862,0.48953 l 3.19035,4.13566 0,2.94558 c 0,0.15194 -0.0507,0.27009 -0.4642,0.36292 l 0,0.20245 3.44356,-0.48109 0,-0.20246 c -0.422,0.0252 -0.47264,-0.0846 -0.47264,-0.2363 l 0,-3.25788 3.21567,-4.9881 c 0.11822,-0.1687 0.23632,-0.32916 0.39667,-0.35449 l 0,-0.20244 -3.17348,0.44733 0,0.20245"
       id="path1876"
       style="fill:#fffdff;fill-opacity:1;fill-rule:evenodd;stroke:none" />
  </g>
</svg>
