<?xml version="1.0" encoding="UTF-8"?>
<!-- Generator: Adobe Illustrator 15.0.0, SVG Export Plug-In . SVG Version: 6.00 Build 0)  -->
<!DOCTYPE svg PUBLIC "-//W3C//DTD SVG 1.1//EN" "http://www.w3.org/Graphics/SVG/1.1/DTD/svg11.dtd">
<svg version="1.1" id="Layer_1" xmlns="http://www.w3.org/2000/svg" xmlns:xlink="http://www.w3.org/1999/xlink" x="0px" y="0px" width="656.163px" height="500px" viewBox="0 0 656.163 500" enable-background="new 0 0 656.163 500" xml:space="preserve">
<g>
	<g>
		<path fill="#FFFFFF" d="M316.728,198.55c-4.729,9.91-11.203,14.231-14.428,15.864c-0.356-5.194-4.34-11.455-10.389-14.152    c15.8-1.023,40.921-6.759,49.088-8.112c8.188-1.348,52.908-10.81,59.405-11.468c3.008-0.308,9.326-0.9,8.969,3.004    c-0.684,7.33-6.553,22.497-12.166,26.276c0.682-7.195-1.054-16.073-6.073-21.956c-3.671,8.879-11.263,17.417-15.931,20.817    c-0.261-8.514-1.973-12.961-7.788-18.034c-2.685,7.018-9.067,14.354-14.65,16.215c0.506-2.885-4.442-10.451-7.984-13.032    c-4.539,11.452-10.033,17.531-14.768,19.305C329.242,207.697,324.52,202.009,316.728,198.55z"/>
		<path fill="#FFFFFF" d="M487.915,227.973c-3.803-4.942-6.882-15.489-5.253-21.465c-2.819,1.224-6.159,4.075-8.144,6.211    c-1.031-3.036-2.722-7.638-5.06-9.963c-1.32,1.957-4.265,5.073-6.313,5.892c-1.605-2.203-3.103-5.769-4.198-8.484    c-1.345,1.878-3.696,4.211-6.273,5.677c-2.404-2.697-5.961-9.49-6.471-14.051c-6.684,3.745-16.173,22.522-18.986,29.606    c-6.625-7.897-7.123-20.287-4.361-30.675c0.974-2.206,3.31-5.42,7.599-6.527c4.289-1.11,10.578,1.36,13.666,3.254    c6.288,3.882,15.569,8.658,20.278,10.409c4.712,1.759,16.214,5.455,24.267,7.621C492.386,209.041,490.983,221.387,487.915,227.973    z"/>
		<path fill="#FFFFFF" d="M448.535,326.472c-3.431-0.1-7.695-2.593-10.625-4.361c-5.633,3.95-12.033,3.139-15.054,0.823    c-4.154,2.918-13.506,0.655-15.53-1.174c1.807-4.059,12.104-10.615,14.547-12.132c0.197,3.969,2.27,8.689,3.605,9.309    c3.344,0.53,9.481-4.039,12.65-7.316c1.301,1.747,2.513,3.949,2.662,6.064c3.59,0.832,9.943-2.851,11.6-5.362    c4.482,0.543,8.932,3.689,10.625,5.579C459.541,321.981,453.687,326.631,448.535,326.472z"/>
		<path fill="#FFFFFF" d="M399.824,312.612c-1.735,1.266-4.156,1.052-6.353,0.617c-6.273-1.518-6.602-4.554-13.093-12.457    c-6.485-7.897-28.398-28.018-47.166-37.153c-8.848-4.52-22.555-8.838-22.555-8.838c6.118-1.143,13.462-6.567,15.509-11.398    c3.06,4.511,2.112,13.314,1.476,16.569c4.155,1.88,7.213,0.912,10.539-0.57c3.806-1.695,8.269-9.769,8.269-9.769    c3.329,4.002,3.613,14.452,1.102,19.133c6.642,3.087,15.841-1.253,18.504-3.699c2.901,4.112,1.051,15.254-0.399,17.773    c5.941,2.078,15.073-1.108,18.303-4.1c1.617,6.04,0.924,13.637-2.704,18.967c0.071,1.185,2.312,1.861,2.312,1.861    c6.795,1.577,16.59-6.694,22.88-14.567C409.149,294.571,406.167,305.582,399.824,312.612z"/>
		<path fill="#FFFFFF" d="M306.039,253.579c-5.764-1.793-11.968-3.075-17.756-4.266c4.383-0.82,13.113-6.094,15.444-10.273    C306.782,242.775,309.604,249.561,306.039,253.579z"/>
		<path fill="#FFFFFF" d="M91.681,18.338L75.177,66.011c-1.441,4.19-5.475,7.353-9.347,7.353c-1.809,0-3.35-0.72-4.25-2.013    c-1.092-1.534-1.255-3.696-0.432-6.084L77.38,18.338H61.059c-2.071,5.938-15.845,45.74-15.845,45.74    c-1.557,4.529-1.275,8.36,0.859,11.347c2.794,3.95,8.692,6.208,16.104,6.208c11.531,0,25.943-5.724,30.295-18.311l15.56-44.984    H91.681z"/>
		<path fill="#FFFFFF" d="M131.417,18.338l-2.885,5.048v22.417l8.668-16.586l-5.985,33.177l0,0h-2.684v8.274h1.542l-1.542,9.751    v0.791h14.569l7.745-62.871H131.417z M128.532,23.386L95.686,81.209h14.211l5.68-10.542h12.955v-8.274h-8.642l8.642-16.59V23.386    L128.532,23.386z M128.532,80.418v0.791h-0.111L128.532,80.418z"/>
		<path fill="#FFFFFF" d="M189.259,77.084c7.148-3.1,13.195-8.297,16.146-16.798c2.771-8.044-1.673-13.104-3.63-14.36l-1.585-1.049    l1.673-0.909c5.06-2.775,8.381-6.375,9.877-10.691c1.013-2.946,0.748-5.578-0.837-7.804c-3.147-4.4-11.003-6.985-21.644-7.135    v8.337c3.404,0.3,4.971,1.47,5.693,2.481c0.93,1.285,1.079,2.996,0.458,4.791l0,0c-0.902,2.63-2.655,4.741-6.151,5.843V77.084z     M188.248,18.338h-7.925V49.27l4.931-0.343l0.351,0.229c1.782,1.146,4.95,5.735,2.813,11.875l0,0    c-1.695,4.908-3.913,8.458-8.095,10.349v8.459c3.055-0.632,6.072-1.526,8.937-2.754V39.791c-1.743,0.53-3.896,0.822-6.561,0.822    l4.841-14.002c0.617,0,1.19,0.025,1.719,0.065v-8.337H188.248z M180.323,18.338h-6.242l-21.79,62.871h13.421    c4.641,0,9.679-0.348,14.611-1.371v-8.459c-2.285,1.023-5.124,1.565-8.799,1.565l8.158-23.626l0.641-0.049V18.338z"/>
		<path fill="#FFFFFF" d="M277.782,45.926l-1.581-1.049l1.673-0.909c5.06-2.775,8.383-6.375,9.878-10.691    c1.036-2.946,0.747-5.578-0.835-7.804c-3.125-4.4-10.997-6.985-21.669-7.135v8.337c3.427,0.3,4.992,1.47,5.698,2.481    c0.942,1.285,1.101,2.996,0.484,4.791l0,0c-0.921,2.63-2.664,4.741-6.182,5.843v37.293c7.17-3.1,13.217-8.297,16.167-16.798    C284.192,52.242,279.745,47.183,277.782,45.926z M265.249,18.338h-0.974h-7.937V49.27l4.926-0.343l0.375,0.229    c1.759,1.146,4.905,5.735,2.795,11.875l0,0c-1.693,4.908-3.917,8.458-8.096,10.349v8.459c3.059-0.632,6.071-1.526,8.911-2.754    V39.791c-1.712,0.53-3.875,0.822-6.531,0.822l4.836-14.002c0.615,0,1.184,0.025,1.695,0.065V18.338z M256.338,18.338h-6.27    l-21.737,62.871h13.4c4.641,0,9.678-0.348,14.607-1.371v-8.459c-2.289,1.023-5.132,1.565-8.803,1.565l8.163-23.626l0.641-0.049    V18.338z"/>
		<polygon fill="#FFFFFF" points="324.168,18.338 307.846,18.338 286.058,81.209 321.547,81.209 324.404,72.944 305.283,72.944       "/>
		<path fill="#FFFFFF" d="M361.923,18.338l-2.86,5.059v22.406l8.644-16.586l-5.985,33.177l0,0h-2.658v8.274h1.512l-1.512,9.744    v0.798h14.536l7.769-62.871H361.923z M359.062,23.397l-32.896,57.812h14.263l5.629-10.542h13.004v-8.274h-8.674l8.674-16.59    V23.397L359.062,23.397z M359.062,80.411v0.798h-0.136L359.062,80.411z"/>
		<polygon fill="#FFFFFF" points="440.84,18.338 402.444,18.338 399.583,26.611 417.407,26.611 379.28,81.209 420.047,81.209     422.908,72.944 402.689,72.944   "/>
		<polygon fill="#FFFFFF" points="456.125,61.128 472.628,61.128 475.489,52.856 458.991,52.856 468.056,26.611 488.428,26.611     491.278,18.338 454.592,18.338 442.637,52.856 437.645,52.856 434.767,61.128 439.765,61.128 432.806,81.209 469.546,81.209     472.404,72.944 452.039,72.944   "/>
		<path fill="#FFFFFF" d="M520.764,58.562l-1.119-1.216l1.518-0.617c3.47-1.351,15.068-6.802,19.513-19.645    c1.515-4.389,1.232-8.109-0.856-11.044c-3.5-4.895-12.166-7.701-23.811-7.701h-0.242v8.447c3.44,0.04,6.609,1.031,7.95,2.925    c1.399,1.985,1.537,4.741,0.324,8.194c-1.688,4.961-4.834,8.701-8.274,11.125v32.18h9.271c1.273-3.845,2.327-8.289,1.228-12.776    C525.173,63.754,522.042,59.972,520.764,58.562z M515.767,18.338h-13.706L480.31,81.209h16.342l6.313-18.234    c2.621,1.751,5.15,5.301,6.162,9.226c0.665,2.744,0.462,5.601-0.504,9.008h7.145v-32.18c-3.037,2.134-6.313,3.232-9.084,3.232l0,0    l8.803-25.487l0.281,0.012V18.338z"/>
		<path fill="#FFFFFF" d="M575.569,26.014c2.18,0,3.607,0.218,5.058,0.571l7.972-7.438c-2.58-0.758-6.057-1.229-9.446-1.229    c-14.384,0-25.824,6.178-29.144,15.776c-1.899,5.463-0.534,9.87,5.209,16.875c4.795,5.74,8.016,10.258,5.985,16.204    c-1.317,3.782-6.024,6.422-11.416,6.422c-2.998,0-5.792-0.469-7.855-1.264l-8.409,7.854c3.349,1.253,7.397,1.847,12.547,1.847    c15.748,0,28.295-6.787,31.94-17.298c2.25-6.483,0.973-10.955-5.193-18.386c-4.686-5.7-8.048-9.815-6.333-14.78    C567.517,28.134,571.258,26.014,575.569,26.014z"/>
		<path fill="#FFFFFF" d="M341.062,148.26c7.348-6.124-5.257-8.919-5.257-8.919C343.857,141.92,341.062,148.26,341.062,148.26z"/>
	</g>
	<g>
		<path fill="#F3D687" d="M612.267,295.425c1.652-0.546,3.279-0.957,4.884-1.242c7.438-4.494,15.597-19.775,4.379-34.486    C623.072,267.277,624.039,281.633,612.267,295.425z"/>
		<path fill="#F3D687" d="M444.907,260.987c5.195,5.629,8.23,11.661,9.573,16.005c5.038-5.209,5.779-13.927,4.107-17.305    c6.804,2.046,32.963,18.949,37.711,22.899c4.752,3.956,16.351,13.937,22.046,16.923c4.819,2.526,13.425,4.361,19.096,2.617    c-15.685-6.447-24.065-12.006-30.492-18.536c1.3-0.285,2.419-0.427,3.695-1.415c-9.68-5.537-19.623-14.238-27.365-18.429    c-7.749-4.202-26.733-16.56-42.502-19.178c-1.215-1.05-0.162-2.683,0.014-3.904c-4.778,0.316-10.359,0.805-15.466-0.522    c-13.286-0.783-24.2-4.948-30.272-6.084c-5.677-1.071-18.263-2.957-35.467-2.588c-0.352,0.147-1.672,0.518-3.261,0.957    c-3.162,0.902-7.541,2.127-8.135,2.585c1.324,0.209,2.819,0.423,4.401,0.627c14.345,1.818,37.932,3.147,49.877,5.856    C416.481,244.673,436.19,251.503,444.907,260.987z"/>
	</g>
	<g>
		<path fill="#E8AE10" d="M598.784,351.61c-4.23-5.88-13.907-9.145-19.102-9.627c-5.238-0.482-12.562-0.945-19.25-0.229l-1.384,0.15    v3.718c9.247-0.406,19.888-0.024,25.438,2.962c2.414,1.304,4.707,3.616,5.388,6.352c-4.711-2.036-12.985-3.735-15.508-4.086l0,0    c-2.465-0.342-10.499-0.808-15.318-0.214v6.162c5.591-0.067,11.377-0.09,16.677,0.744c6.426,0.82,13.468,3.328,17.556,6.827    c4.088,3.483,6.819,7.099,7.702,10.14C602.523,366.917,602.892,357.34,598.784,351.61z M559.048,341.905    c-11.839,1.142-22.745,1-27.635,0.418c-5.06-0.62-9.941-1.419-15.949-3.906c1.145,3.342,4.094,6.413,7.28,9.02    c6.251,5.125,15.358,8.536,24.069,9.185c3.787,0.288,7.963,0.221,12.234,0.177v-6.162l-0.197,0.024    c-4.819,0.62-16.61,0.62-21.958-0.795c-2.723-0.712-5.895-2.281-8.685-4.062c5.06,1.206,10.907,1.782,17.572,0.933    c3.15-0.415,7.969-0.893,13.269-1.112V341.905z"/>
		<path fill="#E8AE10" d="M656.157,336.09c0.355-22.573-15.482-46.146-39.007-41.906c-1.604,0.285-3.231,0.696-4.884,1.242    c0.661-0.057,1.214-0.016,1.824-0.057c27.547-1.197,31.667,21.668,31.667,21.668c-14.086-8.081-26.912-7.489-43.258-3.93    c-12.982,2.815-18.504,2.871-28.576-6.114c2.192,7.289,7.388,12.056,13.106,13.998c-19.274-5.232-34.011,13.78-56.822,11.319    c-1.783-0.188-3.59-0.469-5.479-0.946c15.931,7.572,31.372,1.686,43.583-2.827c16.586-6.135,46.64,7.246,58.436-4.036    c-8.696,0.043-23.034-3.037-30.98-5.373c0,0,3.827-1.913,21.695-2.375C635.349,316.292,650.224,328.526,656.157,336.09z"/>
		<path fill="#E8AE10" d="M520.344,279.126c-6.399-0.517-25.452-16.028-28.793-18.096c-17.25-10.669-45.233-22.319-45.233-22.319    c0.569-1.727,0.305-5.985-0.707-7.194c-3.342,3.265-14.956,4.024-22.88,2.541c-7.917-1.501-21.806-3.249-27.613-3.983    c-10.321-1.333-30.01-0.471-35.534,1.395c17.205-0.368,29.791,1.517,35.467,2.588c6.072,1.136,16.986,5.301,30.272,6.084    c5.107,1.328,10.688,0.838,15.466,0.522c-0.176,1.221-1.229,2.854-0.014,3.904c15.769,2.618,34.753,14.976,42.502,19.178    c7.743,4.19,17.686,12.892,27.365,18.429c-1.275,0.987-2.395,1.13-3.695,1.415c6.427,6.53,14.808,12.089,30.492,18.536    c-5.671,1.744-14.277-0.09-19.096-2.617c-5.695-2.986-17.293-12.967-22.046-16.923c-4.748-3.95-30.908-20.853-37.711-22.899    c1.671,3.378,0.93,12.096-4.107,17.305c-1.343-4.344-4.378-10.375-9.573-16.005c-8.717-9.484-28.425-16.314-42.44-19.492    c-11.945-2.708-35.532-4.038-49.877-5.856c0.592,0.724,2.506,0.365,3.126,1.101c0.881,0.178,10.672,2.078,14.238,2.861    c17.065,2.628,35.107,5.427,50.381,14.026c6.948,4.035,16.229,11.143,19.775,16.079c3.519,4.942,6.712,10.42,5.195,18.58    c10.997,0.562,19.314-7.977,21.982-14.938c5.294,2.035,7.431,4.126,11.061,6.403c11.969,7.448,22.59,20.451,34.3,27.434    c16.256,9.727,40.722-2.035,45.036-7.277c-13.801-1.392-33.929-9.14-43.476-15.33    C517.332,283.545,519.534,281.684,520.344,279.126z"/>
		<path fill="#E8AE10" d="M339.565,150.244c4.027-0.229,8.276-0.501,12.768-0.975c-3.662-2.616-7.246-7.273-10.963-9.292    c-0.593-0.33-1.214-0.635-1.805-0.921v1.565c2.996,1.38,6.007,3.885,1.497,7.641l0,0c0,0,1.74-3.944-1.497-6.895V150.244z     M330.942,150.838c2.751-0.253,5.633-0.419,8.623-0.594v-8.878c-0.854-0.77-2.065-1.482-3.76-2.024c0,0,1.894,0.415,3.76,1.278    v-1.565c-7.836-3.871-13.991-4.33-17.132-2.519c-2.819,1.627-9.95,7.557-10.633,13.585v1.82c0.134,1.074,0.513,2.145,1.189,3.185    c0,0,2.901-1.266,7.835-2.655c0.178-0.061,0.418-0.073,0.611-0.128c2.16-5.475,5.35-10.989,8.805-14.23    C329.337,142.361,329.646,146.679,330.942,150.838z"/>
		<path fill="#E8AE10" d="M407.438,365.271c2.114-4.744,2.971-11.287,1.521-16.204c-6.25,3.771-15.907,6.626-20.725,6.099    c1.757-2.241,2.818-11.25,1.251-12.894c-4.398,1.75-14.056,3.178-18.213,1.086c3.873-2.182,4.728-5.877,4.818-9.594    c-6.648,1.164-12.961-1.208-12.961-1.208c-3.366-10.433-17.291-24.371-22.307-28.141c-4.533-3.413-18.967-11.015-27.852-14.576    c-8.013-3.174-25.989-8.115-41.21-9.118c7.918,24.089,43.013,40.901,76.767,68.524c8.112,6.629,27.251,24.25,43.799,42.649    c9.152-10.038,18.721-21.118,28.509-33.238C416.856,361.815,412.303,363.925,407.438,365.271z"/>
		<path fill="#E8AE10" d="M132.872,249.425c0.68-4.156,1.34-8.283,2.111-12.531c-1.961-0.783-4.158-1.519-7.576-1.178    c2.732-7.05,6.409-13.318,10.717-19.192c-3.035-1.341-7.299-1.626-11.375-1.17c2.923-7.286,10.806-16.564,17.645-20.114    c-3.059-2.327-7.59-3.794-12.004-4.305c6.641-7.055,13.507-14.439,23.493-17.898c-2.862-4.214-8.274-7.051-13.729-8.229    c6.859-7.075,23.672-10.721,31.617-8.753c-2.887-4.568-7.305-6.909-11.237-10.577c11.237-5.938,38.654-5.871,50.133-2.869    c-0.901-3.786-4.047-7.832-7.566-10.315c7.388-1.936,17.908-0.133,28.008,3.535v-0.012c0,0-8.476-16.852-10.741-27.754H72.849    C89.195,161.186,110.142,208.27,132.872,249.425z"/>
		<path fill="#E8AE10" d="M495.817,246.444c22.11-40.462,42.526-86.487,58.476-138.381H350.695c0.38,0.248,0.771,0.501,1.108,0.753    c4.521,3.268,15.926,16.398,20.495,24.589c3.175-1.973,6.182-3.426,9.202-5.831c2.728-1.7,5.807-1.071,11.457,0.866    c2.816,3.398,8.257,15.313,11.644,17.59c3.254-2.237,16.282-15.527,35.973-15.709c16.168,8.045,18.764,19.164,21.536,22.924    c7.241-3.329,15.487-4.571,23.098-6.528c3.7-0.359,7.486,1.179,8.519,3.617c1.826,6.258,3.277,12.932,4.528,19.532    c-0.897,5.969-1.339,13.255-1.536,19.492c0.945,4.435,3.3,8.901,6.268,11.785c-0.506,3.811-0.743,7.264-1.494,10.731    c-0.569,0.961-5.171,3.447-5.98,3.614c-0.071,5.062-1.063,15.395-3.171,28.248C493.375,244.483,494.556,245.409,495.817,246.444z"/>
		<path fill="#E8AE10" d="M281.349,108.673c6.296,7.916,3.68,19.269,3.68,19.269c1.952-2.728,5.721-7.084,7.785-9.056    c-1.273-2.625-2.887-6.55-3.938-10.824h-8.056C280.997,108.265,281.198,108.481,281.349,108.673z"/>
		<path fill="#E8AE10" d="M111.24,16.062H90.052L76.151,56.311v6.961l15.53-44.933h16.351l-15.56,44.984    c-2.684,7.706-9.108,12.86-16.321,15.669v2.42c8.095-2.966,15.448-8.646,18.457-17.333L111.24,16.062L111.24,16.062z     M76.151,28.941v-6.973l1.229-3.629h-1.229v-2.277h4.442L76.151,28.941z M76.151,56.311l-3.108,8.957    c-1.144,3.266-4.312,5.823-7.213,5.823c-0.745,0-1.785-0.181-2.4-1.063c-0.661-0.9-0.7-2.359-0.126-4.015l12.847-37.07v-6.973    L61.148,65.267c-0.823,2.388-0.66,4.55,0.432,6.084c0.9,1.292,2.441,2.013,4.25,2.013c3.873,0,7.906-3.162,9.347-7.353l0.974-2.74    V56.311L76.151,56.311z M76.151,16.062v2.277H61.059c-2.071,5.938-15.845,45.74-15.845,45.74    c-1.557,4.529-1.275,8.36,0.859,11.347c2.794,3.95,8.692,6.208,16.104,6.208l0,0c4.49,0,9.373-0.853,13.974-2.642v2.42    c-4.627,1.691-9.513,2.514-13.974,2.514c-8.16,0-14.713-2.621-17.951-7.176c-2.554-3.578-2.948-8.217-1.141-13.428l16.359-47.261    H76.151z"/>
		<path fill="#E8AE10" d="M130.092,16.062l-6.818,12.021v4.601l8.143-14.345h19.429l-7.745,62.871l0,0h-14.68l1.653-10.542h-6.8    v2.277h4.134l-1.644,10.55h19.338l8.321-67.433H130.092z M123.273,28.082L91.749,83.495h19.516l5.653-10.55h6.355v-2.277h-7.697    l-5.68,10.542H95.686l27.587-48.526V28.082z"/>
		<path fill="#E8AE10" d="M131.215,62.394l5.985-33.177l-9.214,17.674v4.91l4.312-8.306l-2.972,16.624l0,0h-1.34v2.275H131.215z     M127.986,46.891l-8.096,15.503h8.096v-2.275h-4.337l4.337-8.318V46.891z"/>
		<path fill="#E8AE10" d="M188.248,16.062h-5.921v2.277h5.921c11.172,0,19.421,2.594,22.656,7.135    c1.584,2.226,1.85,4.857,0.837,7.804l0,0c-1.497,4.316-4.817,7.916-9.877,10.691l-1.673,0.909l1.585,1.049    c1.957,1.256,6.4,6.316,3.63,14.36c-3.851,11.141-13.046,16.619-23.079,19.102v2.339c10.871-2.56,20.963-8.431,25.229-20.696    c2.538-7.314-0.171-13.081-3.163-15.926c4.776-2.938,7.966-6.65,9.508-11.077c1.253-3.645,0.862-7.063-1.146-9.871    C209.104,19.01,200.174,16.062,188.248,16.062z M182.326,16.062h-9.878l-23.344,67.433h16.608c5.261,0,11.049-0.455,16.614-1.768    v-2.339c-5.546,1.365-11.353,1.822-16.614,1.822h-13.421l21.79-62.871h8.245V16.062z"/>
		<path fill="#E8AE10" d="M189.719,39.616c3.208-1.126,4.817-3.163,5.691-5.668c0.621-1.795,0.472-3.506-0.458-4.791    c-0.68-0.966-2.135-2.075-5.233-2.423v2.253c1.627,0.183,2.818,0.684,3.388,1.483c0.616,0.872,0.418,1.964,0.154,2.723l0,0    c-0.55,1.601-1.826,2.941-3.542,3.854V39.616z M187.54,26.611l-4.841,14.002c2.93,0,5.238-0.352,7.021-0.997v-2.569    c-1.104,0.596-2.404,1-3.782,1.177l3.213-9.284c0.19,0,0.392,0.016,0.569,0.046v-2.253    C189.083,26.651,188.354,26.611,187.54,26.611z"/>
		<path fill="#E8AE10" d="M185.604,49.155l-0.351-0.229l-4.444,0.312v3.794l0.506-1.473c1.032-0.044,2.357-0.146,3.343-0.265    c1.165,1.044,3.211,4.375,1.606,8.992l0,0c-1.214,3.503-3.076,6.187-5.455,7.926v2.925c3.875-1.933,5.985-5.399,7.609-10.107    C190.554,54.891,187.386,50.302,185.604,49.155z M180.809,49.238l-1.127,0.08l-8.158,23.626c3.937,0,6.924-0.62,9.286-1.807    v-2.925c-1.759,1.289-3.784,2.066-6.052,2.328l6.052-17.507V49.238z"/>
		<path fill="#E8AE10" d="M280.403,45.104c4.776-2.938,7.97-6.65,9.507-11.077c1.254-3.645,0.859-7.063-1.146-9.871    c-3.649-5.146-12.585-8.095-24.489-8.095h-5.938v2.277h5.938c11.156,0,19.409,2.594,22.643,7.135    c1.582,2.226,1.871,4.857,0.835,7.804c-1.495,4.316-4.819,7.916-9.878,10.691l-1.673,0.909l1.581,1.049    c1.962,1.256,6.41,6.316,3.634,14.36l0,0c-3.851,11.141-13.069,16.619-23.079,19.102v2.339    c10.868-2.56,20.971-8.431,25.213-20.696C286.08,53.716,283.396,47.949,280.403,45.104z M258.338,16.062h-9.879l-23.336,67.433    h16.608c5.277,0,11.042-0.455,16.607-1.768v-2.339c-5.542,1.365-11.33,1.822-16.607,1.822h-13.4l21.737-62.871h8.27V16.062z"/>
		<path fill="#E8AE10" d="M265.731,39.616c3.219-1.126,4.838-3.163,5.7-5.668c0.617-1.795,0.458-3.506-0.484-4.791    c-0.663-0.966-2.11-2.075-5.216-2.423v2.253c1.628,0.183,2.794,0.684,3.362,1.483c0.642,0.872,0.443,1.964,0.18,2.723l0,0    c-0.551,1.601-1.826,2.941-3.542,3.854V39.616z M263.554,26.611l-4.836,14.002c2.922,0,5.21-0.352,7.013-0.997v-2.569    c-1.104,0.596-2.396,1-3.787,1.177l3.213-9.284c0.203,0,0.403,0.016,0.574,0.046v-2.253    C265.09,26.651,264.371,26.611,263.554,26.611z"/>
		<path fill="#E8AE10" d="M261.64,49.155l-0.375-0.229l-4.444,0.312v3.794l0.505-1.473c1.036-0.044,2.353-0.146,3.326-0.265    c1.182,1.044,3.236,4.375,1.623,8.992l0,0c-1.206,3.503-3.059,6.187-5.454,7.938v2.913c3.87-1.933,5.985-5.399,7.614-10.107    C266.545,54.891,263.399,50.302,261.64,49.155z M256.821,49.238l-1.123,0.08l-8.163,23.626c3.915,0,6.935-0.62,9.286-1.807v-2.913    c-1.743,1.277-3.784,2.054-6.048,2.315l6.048-17.507V49.238z"/>
		<path fill="#E8AE10" d="M361.721,62.394l5.985-33.177l-9.219,17.674v4.91l4.333-8.306l-2.984,16.624l0,0h-1.348v2.275H361.721z     M358.487,46.891l-8.099,15.503h8.099v-2.275h-4.333l4.333-8.318V46.891z"/>
		<path fill="#E8AE10" d="M445.211,16.062h-35.157v2.277h30.786l-30.786,44.055v3.965L445.211,16.062L445.211,16.062z     M410.054,28.877v-2.267h7.353l-7.353,10.536v-3.98l2.997-4.289H410.054L410.054,28.877z M410.054,83.495h11.622l4.418-12.827    h-16.041v2.277h12.854l0,0l-2.861,8.265h-9.993V83.495z M410.054,16.062h-9.235l-4.447,12.816h13.682v-2.267h-10.47l2.861-8.272    h7.609V16.062L410.054,16.062z M410.054,33.167l-29.738,42.572v3.978l29.738-42.57V33.167L410.054,33.167z M380.315,45.321V26.762    l1.052-8.423h-1.052v-2.277h3.604L380.315,45.321L380.315,45.321z M380.315,83.495h29.738v-2.285h-29.738V83.495L380.315,83.495z     M410.054,70.667v2.277h-7.365l7.365-10.551v3.965l-2.985,4.309H410.054z M380.315,75.739l-4.562,6.531l4.562-36.949V26.762    l-6.717,54.448h-14.672l0,0l1.648-10.542h-6.795v2.277h4.134l-1.627,10.55h24.03v-2.285h-1.036l1.036-1.493V75.739L380.315,75.739    z M380.315,16.062v2.277h-18.393l-8.144,14.357V28.07l6.819-12.008H380.315z M353.779,28.07l-29.217,51.365l3.06-8.768h-19.14    l18.876-54.606h-21.146l-0.967,2.818v6.933l2.6-7.474h16.322l-18.885,54.606h19.121l-2.856,8.265l0,0h-16.301v2.285h36.543    l5.653-10.55h6.336v-2.277h-7.721l-5.629,10.542h-14.263l27.613-48.514V28.07z M305.246,18.879l-22.374,64.615h22.374v-2.285    h-19.188l19.188-55.397V18.879z"/>
		<path fill="#E8AE10" d="M462.066,63.407h12.171l4.44-12.825h-16.52l7.523-21.705h20.369l4.451-12.816h-32.435v2.277h29.212    l-2.85,8.272h-20.373l-5.99,17.335v8.91h13.423l-2.861,8.272h-10.562V63.407L462.066,63.407z M462.066,83.495h9.107l4.43-12.827    h-13.537v2.277h10.338l0,0l-2.858,8.265h-7.48V83.495z M457.733,63.407h4.333v-2.279h-5.941l-4.086,11.816h10.027v-2.277h-6.841    L457.733,63.407L457.733,63.407z M462.066,16.062v2.277h-7.474l-11.955,34.518h-4.992l-2.878,8.272h4.998l-6.958,20.082h29.26    v2.285h-32.422l6.949-20.088h-5.019l4.439-12.825h5.005l11.942-34.521H462.066L462.066,16.062z M462.066,43.946l-3.075,8.91h3.075    V43.946z"/>
		<path fill="#E8AE10" d="M523.444,58.224c4.802-2.143,15.124-8.074,19.39-20.394c1.783-5.123,1.382-9.534-1.163-13.112    c-3.989-5.586-13.096-8.657-25.663-8.657h-5.06v2.277h5.06c11.645,0,20.311,2.806,23.811,7.701    c2.089,2.936,2.372,6.656,0.856,11.044c-4.444,12.842-16.042,18.294-19.513,19.645l-1.518,0.617l1.119,1.216    c1.277,1.41,4.409,5.192,5.501,9.872c1.099,4.487,0.045,8.931-1.228,12.776l0,0h-14.088v2.285h15.708    c1.495-4.328,3.132-10.242,1.831-15.587C527.5,63.726,525.1,60.235,523.444,58.224z M510.949,16.062h-10.511l-23.328,67.433    h21.173L504,66.979c1.121,1.336,2.292,3.3,2.901,5.764c0.664,2.696-0.13,7.056-1.4,10.752h5.448v-2.285h-2.327    c0.967-3.407,1.169-6.264,0.504-9.008c-1.012-3.925-3.541-7.475-6.162-9.226l-6.313,18.234H480.31l21.751-62.871h8.888V16.062z"/>
		<path fill="#E8AE10" d="M523.717,29.71c-1.285-1.794-4.183-2.778-7.42-2.913v4.605l0.794-2.309    c1.764,0.087,3.76,0.519,4.772,1.941c1.19,1.676,0.692,4.253,0.048,6.14l0,0c-1.19,3.415-3.348,6.201-5.614,8.284v3.188    c3.237-2.433,6.136-6.044,7.744-10.742C525.254,34.451,525.116,31.695,523.717,29.71z M516.297,26.798    c-0.288-0.012-0.546-0.024-0.811-0.024l-8.803,25.487c2.93,0,6.423-1.228,9.614-3.615v-3.188c-2.242,2.064-4.592,3.452-6.265,4.1    l6.265-18.156V26.798z"/>
		<path fill="#E8AE10" d="M575.569,28.296c2.225,0,4.153,0.392,5.703,0.798l11.498-10.728c-2.241-1.415-9.039-2.735-13.618-2.735    c-6.862,0-13.021,1.287-18.08,3.628v2.612c4.972-2.532,11.175-3.953,18.08-3.953c3.389,0,6.866,0.472,9.446,1.229l-7.972,7.438    c-1.45-0.354-2.877-0.571-5.058-0.571c-4.311,0-8.053,2.12-9.085,5.156c-1.715,4.965,1.648,9.08,6.333,14.78l0,0    c6.166,7.431,7.443,11.902,5.193,18.386c-2.376,6.865-8.554,12.151-16.938,14.99v2.387c9.416-3.009,16.408-8.891,19.074-16.622    c2.837-8.188,0.114-13.749-5.562-20.593c-4.911-5.96-7.222-8.98-5.97-12.586C569.256,30.119,571.828,28.296,575.569,28.296    L575.569,28.296z M561.073,67.103v-7.757c0.876,2.345,1.056,4.743,0.131,7.428L561.073,67.103z M561.073,19.259    c-6.471,2.992-11.131,7.705-13.219,13.689c-2.161,6.288-0.645,11.446,5.61,19.072c5.103,6.104,7.103,9.573,5.584,14.01    c-1.011,2.877-4.817,4.889-9.26,4.889c-2.998,0-6.536-0.808-8.361-1.651l-11.95,11.214c3.937,1.851,10.25,3.444,16.594,3.444    c5.413,0,10.487-0.783,15.002-2.214v-2.387c-4.447,1.497-9.549,2.308-15.002,2.308c-5.15,0-9.198-0.593-12.547-1.847l8.409-7.854    c2.063,0.795,4.858,1.264,7.855,1.264c5.257,0,9.83-2.486,11.285-6.093v-7.757c-1.075-2.854-3.234-5.629-5.854-8.775    c-5.743-7.006-7.108-11.413-5.209-16.875c1.731-4.998,5.651-9.069,11.064-11.823V19.259z"/>
	</g>
	<g>
		<path fill="#D63647" d="M424.639,355.15c-1.202,1.29-2.458,2.462-3.806,3.507c-9.788,12.12-19.357,23.2-28.509,33.238    c-0.067,0.082-0.154,0.176-0.218,0.271c-2.731,2.958-5.392,5.843-8.013,8.609c-0.174,0.175-0.307,0.333-0.485,0.499    c-2.633,2.808-5.254,5.534-7.832,8.159c0,0.012,0,0.012-0.022,0.043c-36.079,36.9-62.188,55.306-62.188,55.306    s-0.135-0.111-0.38-0.281c-0.086-0.052-0.154-0.111-0.282-0.189c-0.2-0.166-0.485-0.368-0.841-0.62    c-0.219-0.163-0.435-0.325-0.7-0.53c-0.354-0.265-0.777-0.569-1.213-0.914c-0.331-0.245-0.616-0.451-0.988-0.732    c-0.77-0.592-1.612-1.24-2.569-1.997c-0.491-0.361-1.011-0.793-1.542-1.212c-0.592-0.459-1.197-0.928-1.829-1.446    c-0.66-0.518-1.32-1.056-2.025-1.63c-0.613-0.506-1.253-1.012-1.914-1.553c-0.786-0.648-1.581-1.296-2.441-2.013    c-0.618-0.493-1.253-1.05-1.894-1.582c-1.784-1.504-3.696-3.125-5.697-4.862c-0.592-0.517-1.186-1.01-1.777-1.553    c-1.151-0.976-2.333-2.025-3.508-3.084c-0.718-0.62-1.403-1.24-2.133-1.883c-1.255-1.12-2.507-2.27-3.823-3.456    c-0.685-0.644-1.409-1.3-2.111-1.961c-4.601-4.246-9.552-8.926-14.741-14.024c-0.728-0.72-1.479-1.432-2.221-2.166    c-1.562-1.566-3.175-3.19-4.8-4.822c-0.81-0.816-1.604-1.645-2.446-2.487c-1.673-1.724-3.361-3.45-5.076-5.254    c-0.555-0.576-1.102-1.17-1.671-1.738c-3.68-3.867-7.421-7.915-11.266-12.144c-0.53-0.59-1.057-1.154-1.605-1.751    c-1.78-1.997-3.634-4.072-5.46-6.147c-0.897-1.031-1.823-2.059-2.728-3.118c-1.821-2.087-3.647-4.207-5.494-6.377    c-0.885-1.044-1.783-2.127-2.688-3.179c-6.18-7.353-12.492-15.15-18.86-23.378c-0.988-1.287-2-2.553-2.965-3.846    c-1.854-2.411-3.697-4.851-5.55-7.332c-1.074-1.46-2.152-2.938-3.253-4.419c-1.821-2.511-3.692-5.041-5.518-7.614    c-0.995-1.388-2.008-2.823-2.992-4.233c-3.416-4.835-6.823-9.816-10.21-14.904c-1.123-1.645-2.222-3.272-3.302-4.94    c-1.711-2.599-3.429-5.258-5.12-7.922c-1.255-1.966-2.514-3.934-3.769-5.931c-1.671-2.661-3.339-5.344-4.988-8.064    c-1.301-2.123-2.577-4.288-3.878-6.451c-1.605-2.707-3.23-5.396-4.84-8.167c-2.548-4.407-5.082-8.896-7.584-13.444v-0.006    c-22.73-41.156-43.677-88.24-60.023-141.363h149.518c-0.04-0.27-0.13-0.534-0.17-0.799c-0.489-2.695-0.687-5.718-0.599-8.766    H59.92l3.776,12.372c38.524,125.167,102.769,216.722,149.876,271.494c51.165,59.497,92.747,88.992,94.514,90.226l5.479,3.878    l5.518-3.878c1.74-1.234,43.312-30.729,94.492-90.226c6.978-8.115,14.369-17.141,21.959-26.849    C431.724,355.961,426.754,355.546,424.639,355.15z"/>
		<path fill="#D63647" d="M584.486,348.585c-8.696-4.701-30.063-2.962-38.708-1.85c-6.665,0.849-12.512,0.273-17.572-0.933    c2.79,1.782,5.962,3.35,8.685,4.062c5.349,1.415,17.139,1.415,21.958,0.795c4.815-0.629,13.001-0.152,15.516,0.19    c2.523,0.351,10.796,2.051,15.508,4.086C589.193,352.201,586.9,349.889,584.486,348.585z"/>
		<path fill="#D63647" d="M280.818,108.062h8.056c-0.793-3.103-1.292-6.412-1.161-9.565h-17.496    C274.996,102.22,278.755,105.67,280.818,108.062z"/>
		<path fill="#D63647" d="M614.091,295.369c-0.61,0.119-1.256,0.175-1.824,0.057c11.772-13.792,10.806-28.148,9.263-35.728    c-3.697,23.648-21.14,34.27-37.446,33.89c-10.8-0.253-16.896-1.683-27.412-7.096c-10.514-5.423-13.727-18.112-28.666-24.658    c2.043,4.079,2.419,12.234-0.929,16.052c-3.321-4.817-14.321-16.223-23.912-25.007c22.576-41.019,43.784-88.416,60.284-142.009    l3.802-12.372H452.936v9.565h101.356c-15.95,51.895-36.366,97.919-58.476,138.381c-1.261-1.035-2.441-1.961-3.476-2.707    c-0.485-0.341-0.928-0.681-1.358-0.961c-7.263-4.791-22.738-16.025-38.047-23.022v21.816c8.778,3.862,24.526,11.081,36.37,18.093    c0.744,0.466,1.515,0.905,2.245,1.368c0.835,0.501,2.637,1.845,4.975,3.601c7.06,5.25,19.001,14.096,23.819,14.495    c-0.81,2.558-3.013,4.419-6.135,5.452c9.546,6.19,29.675,13.938,43.476,15.33c-4.313,5.242-28.779,17.004-45.036,7.277l0,0    c-9.554-5.692-18.414-15.382-27.833-22.804c-0.488-0.383-0.968-0.784-1.471-1.154c-1.633-1.241-3.305-2.416-4.996-3.476    c-3.629-2.276-5.767-4.368-11.061-6.403c-2.008,5.237-7.202,11.372-14.353,13.827v12.902c6.186,3.25,13.467,7.421,20.242,11.817    c6.183,4.027,11.902,8.244,15.931,12.13c6.202,6.033,7.895,13.887,9.324,19.729c5.705-5.561,5.044-20.959,3.433-24.248    c5.387,3.617,9.708,7.838,14.806,9.361c3.874,1.529,8.627,2.676,13.537,3.441c22.812,2.461,37.548-16.551,56.822-11.319    c-5.718-1.942-10.915-6.709-13.106-13.998c10.071,8.985,15.593,8.929,28.576,6.114c16.346-3.559,29.172-4.15,43.258,3.93    C645.758,317.037,641.638,294.172,614.091,295.369z M452.936,98.497H308.678c2.444,1.66,4.752,3.312,7.062,4.667    c3.827-0.319,9.917-0.509,13.705,0.053c0.177-1.737,2.133-3.629,3.916-3.088c4.226,0.945,12.129,4.463,17.334,7.934h102.241    V98.497L452.936,98.497z M452.936,219.753c-4.689-2.143-9.349-3.894-13.75-4.929c-2.458,2.071-8.584,14.013-8.624,18.806    c-11.614-6.922-14.916-17.584-17.825-26.434c-6.313,5.288-20.192,12.76-23.975,12.052c2.023-2.353,2.858-11.879,1.078-15.005    c-5.043,5.522-13.842,15.067-22.906,15.42c1.478-2.198,2.642-12.295,0.091-15.484c-3.127,5.174-11.682,11.638-19.737,12.448    c0.42-2.44,0.814-6.135-1.744-8.664c-4.834,7.792-13.764,14.475-21.91,14.521c0.929-5.791-0.432-10.865-4.463-14.195    c-4.049,6.04-8.884,13.058-21.671,13.689c-0.085-4.613-4.288-14.468-8.692-16.012c-3.692,3.68-7.517,18.578-7.918,22.4    c-0.553,5.503,1.736,13.448,8.298,12.788c5.696-0.577,11.413-7.502,13.575-12.044c5.932,1.835,10.226,11.413,11.653,16.603    c3.286-2.218,9.333-7.874,10.779-13.526c7.222,4.744,10.123,13.621,10.104,20.329c4.174-3.479,9.128-9.917,10.494-14.658    c5.985,3.781,11.325,15.351,10.362,24.358c3.517-1.202,7.985-3.896,11.005-7.654c5.317,4.52,8.554,14.002,7.163,21.143    c2.909-0.506,11.254-6.191,13.317-10.124c2.661,4.113,4.748,18.522,3.76,24.123c5.743-3.505,14.656-13.562,17.997-19.894    c1.759,3.106,3.855,9.759,4.048,14.495c10.779,2.846,24.44,8.361,33.091,12.531c1.914,0.921,4.088,2.013,6.4,3.241v-12.902    c-2.353,0.842-4.907,1.253-7.63,1.111c1.517-8.16-1.676-13.638-5.195-18.58c-3.547-4.937-12.827-12.044-19.775-16.079    c-15.274-8.599-33.316-11.397-50.381-14.026c-3.566-0.783-13.357-2.684-14.238-2.861c-0.62-0.736-2.535-0.377-3.126-1.101    c-1.582-0.205-3.077-0.418-4.401-0.627c0.594-0.458,4.973-1.683,8.135-2.585c0.404-0.252,1.151-0.53,3.261-0.957    c5.523-1.866,25.213-2.728,35.534-1.395c5.807,0.734,19.695,2.482,27.613,3.983c7.924,1.483,19.538,0.724,22.88-2.541    c1.012,1.209,1.276,5.467,0.707,7.194c0,0,2.554,1.063,6.618,2.858V219.753z"/>
	</g>
	<g>
		<path fill="#4DA691" d="M375.754,409.476c-22.877-0.489-54.405,9.057-62.213,16.108c7.741,6.104,13.663,15.097,21.493,22.104    C345.684,438.609,359.724,425.869,375.754,409.476z"/>
		<path fill="#4DA691" d="M147.188,202.095c-0.525,1.578-3.451,6.84-3.846,8.397l-3.412-1.272    C140.726,207.911,146.137,203.282,147.188,202.095z"/>
		<path fill="#4DA691" d="M156.514,181.146l-4.305,6.904l-5.349-1.823C150.008,184.402,153,181.916,156.514,181.146z"/>
		<path fill="#4DA691" d="M173.499,162.994c-1.821,1.814-4.568,4.566-6.664,6.518l-8.353-5.617    C163.582,163.112,167.872,162.858,173.499,162.994z"/>
		<path fill="#4DA691" d="M203.91,149.485c-6.25,1.691-12.127,5.021-18.266,7.222c-1.254-2.676-3.25-6.788-7.164-8.084    C186.305,147.438,196.206,146.75,203.91,149.485z"/>
		<path fill="#4DA691" d="M221.683,138.823c2.336,0.231,5.942,1.749,6.802,2.476c0,0-1.339,2.549-3.455,5.985    C224.77,144.283,222.718,141.563,221.683,138.823z"/>
		<path fill="#4DA691" d="M218.717,228.49c5.871,8.98,13.084,15.419,17.358,19.626c-4.095-1.356-15.137-1.188-23.056-0.98    C214.342,244.922,217.177,232.538,218.717,228.49z"/>
		<path fill="#4DA691" d="M244.717,258.386c4.071,4.513,5.657,9.608,7.174,13.214c-13.335-3.806-25.81,0.506-37.683,5.432    c-2.131-5.009-2.333-10.919-2.468-16.551C216.25,256.433,233.877,255.385,244.717,258.386z"/>
		<path fill="#4DA691" d="M253.986,280.126c6.267,4.748,9.238,13.148,14.14,20.177c-19.556,0.205-41.577,10.688-41.577,10.688    s-8.033-13.61-9.551-24.231C226.486,279.938,246.042,277.839,253.986,280.126z"/>
		<path fill="#4DA691" d="M275.629,308.564c6.312,6.728,12.436,13.829,19.278,19.591c-14.546,6.329-31.292,9.919-44.004,20.389    c-6.716-8.257-14.541-16.961-18.523-26.485C245.047,313.436,260.429,309.359,275.629,308.564z"/>
		<path fill="#4DA691" d="M304.272,337.118c5.637,7.673,24.781,16.578,34,22.801c-21.414,0.596-40.844,9.086-59.166,21.29    c-6.688-6.279-13.926-14.345-20.171-22.023C272.153,346.976,287.36,339.627,304.272,337.118z"/>
		<path fill="#4DA691" d="M286.127,389.628c20.263-11.304,42.175-20.223,66.92-16.961c9.131,7.63,17.337,15.839,25.853,24.722    c-17.796-0.269-51.923,3.139-71.351,16.187C299.283,406.966,286.127,389.628,286.127,389.628z"/>
		<path fill="#4DA691" d="M269.625,190.423c11.025,3.901,26.624,2.738,41.604,0.313c15.492-2.507,84.174-18.809,107.631-18.909    c2.551-0.01,4.549,0.151,5.895,0.558c-9.109-3.604-55.179-1.497-77.514,6.496c-20.48,7.305-59.768,9.76-72.051,2.965    c4.755-6.377,7.412-20.786,0.819-26.443c0.521,15.512-13.512,33.525-33.794,33.929c7.98,4.328,15.29,5.439,21.361,2.787    c-5.409,14.076-9.105,38.815-6.581,42.74c2.792,4.302,10.255,13.056,10.255,13.056l7.348,6.842c0,0-11.721-15.969-13.199-22.358    c-1.496-6.394,6.096-32.937,8.226-41.964V190.423z"/>
	</g>
	<g>
		<path fill="#008061" d="M177.951,173.571c-0.577,1.897-1.525,6.451-1.525,6.451l-7.581,6.626c0,0-2.669,1.142-5.113,1.9    C166.376,184.953,175.199,176.05,177.951,173.571z"/>
		<path fill="#008061" d="M154.055,212.871c0.486,2.088,0.194,6.4,0.194,6.4s-6.857,9.131-8.689,15.152    C147.921,227.097,149.344,219.271,154.055,212.871z"/>
		<path fill="#008061" d="M160.507,225.903c3.403-0.762,8.044-0.778,11.195,0c-11.024,12.137-15.931,23.324-20.6,35.325    c-1.599-4.043-2.857-9.273-2.481-13.571C151.345,240.333,156.459,232.558,160.507,225.903z"/>
		<path fill="#008061" d="M161.867,207.128c4.158-5.902,16.831-18.58,16.831-18.58s4.974-1.102,8.511-0.746    c-0.554,3.214-0.766,12.144-1.163,13.053c-6.906,4.312-13.068,10.439-18.55,16.065l-5.873,0.648L161.867,207.128z"/>
		<path fill="#008061" d="M178.129,216.425c0,0,9.349-8.694,12.144-10.056l6.242,0.188c-4.708,2.089-14.78,10.998-18.765,15.169    C177.575,219.461,178.129,216.425,178.129,216.425z"/>
		<path fill="#008061" d="M186.683,169.001c5.743-3.395,18.171-10.408,18.171-10.408s7.504-0.81,11.396,0.191    c-1.56,3.778-6.071,9.766-6.071,9.766c-6.27,3.389-14.477,7.487-19.845,11.931H182.9    C183.687,176.433,184.857,172.65,186.683,169.001z"/>
		<path fill="#008061" d="M197.284,185.323c5.483-3.913,12.915-7.708,18.786-10.46c3.963,1.353,7.004,2.486,10.321,5.357    c-0.917,3.783-3.144,7.581-4.048,10.972l-17.887,10.962c-2.883-0.387-5.103-2.474-7.856-3.395    C196.514,194.229,196.624,190.031,197.284,185.323z"/>
		<path fill="#008061" d="M453.377,334.82c-6.754,4.13-13.992,5.507-17.755,5.546c-3.736,0.04-11.576-0.876-18.917-2.225    c-7.395-1.34-17.605-5.949-26.714-8.502c-5.676-2.238-10.205-6.182-12.537-11.562c8.531,7.161,19.38,9.925,25.404,9.609    c4.226,2.977,11.512,5.851,19.829,3.747c2.815,3.969,12.607,3.313,16.235-0.11C442.744,333.686,448.912,335.291,453.377,334.82z"/>
		<path fill="#008061" d="M388.54,146.536c-3.545-0.375-6.933-0.398-10.162-1.289c1.359-1.818,3.719-3.438,5.582-3.695l4.76,4.72    L388.54,146.536z"/>
		<path fill="#008061" d="M358.067,140.002c-4.723-3.597-21.603-17.058-30.912-17.488c0,0,2.49,3.075,2.49,5.479    c-6.273-0.684-12.104-0.553-16.306,1.422c-5.608,3.775-12.673,15.832-12.385,21.397c-2.793,0.949-5.058-2.652-9.704-2.568    c8.273-7.927,4.337-23.754,14.147-30.707c5.349-1.349,27.761-5.009,33.661-1.581c6.229,2.375,17.448,13.115,22.638,17.056    c2.909,2.534,3.301,9.582,5.06,12.619C366.757,145.632,362.759,143.552,358.067,140.002z"/>
		<path fill="#008061" d="M271.453,137.536c-2.667-4.024-3.26-15.356,1.298-20.769c-5.882-6.719-21.429-19.993-33.944-23.962    c6.812,5.681,15.179,13.077,17.092,17.314c-4.335-1.827-11.603-1.771-12.832-0.502c5.788,1.956,10.147,4.791,12.63,7.594    c-3.628,0.042-6.467,1.741-9.435,3.979c3.362,0.383,14.366,2.894,15.792,6.455c0.027,2.196,0.378,4.677,0.05,6.55    c-2.616-1.023-4.691-1.481-7.31-2.238c-1.556-7.094-16.149-8.588-17.047-9.359c2.971-1.74,5.3-2.04,4.505-4.836    c-0.79-2.785-5.891-9.993-10.182-13.245c2.942,0.028,5.411-0.73,6.574-1.743c0.553-4.668-4.969-10.736-9.366-15.045    c17.88,2.04,39.487,18.153,46.569,28.873C272.554,121.237,271.453,130.54,271.453,137.536z"/>
		<path fill="#008061" d="M487.635,188.319c0.833-3.416,0.48-9.096,0.26-10.673c-0.196-1.584-0.77-4.125-1.316-5.167    c-0.966,0.254-1.87,0.59-2.509,1.535c1.272,2.351,2.64,4.537,2.554,7.396c-0.092,0.43-0.486,0.6-0.839,0.771    c-2.992-4.108-10.672-11.509-14.257-14.128c1.632-2.348,4.224-3.616,6.339-6.116c2.86-1.89,5.982-0.055,8.998-1.51    c0.529-2.792-3.479-2.315-4.776-2.222c-4.977,0.352-20.903,8.771-20.286,14.883c-0.088,0.886-1.051,0.784-1.475,0.784    c-1.6-2.871-1.253-10.499-3.455-13.039c-5.061-6.443-9.809-12.12-15.615-18.393c-0.537-0.24-1.146-0.415-1.829-0.532v11.574    c5.703,4.54,11.354,11.965,12.648,13.494c0.988,1.17,3.324,4.61,1.691,6.419l0,0c-3.387-1.505-5.652-4.643-8.622-7.43    c-0.569-0.869-1.517-2.182-2.901-2.353c-0.553,1.655,2.724,4.605,1.759,5.812c-1.673-0.902-3.06-2.037-4.576-3.128v10.337    c2.726,1.234,5.34,2.716,7.854,4.524c7.877,5.682,26.845,13.45,42.196,14.565C487.851,194.162,487.062,190.584,487.635,188.319z     M439.429,141.909c-4.926-0.921-12.433,1.047-12.433,1.047c-3.962,0.497-8.974,6.708-12.626,7.976    c0.064,1.831,4.005,6.274,4.332,7.243c-0.245,0.597-0.725,1.379-1.208,1.719c-5.107-2.013-15.575-4.269-20.457-4.867    c-9.772-1.173-33.773,0.617-41.32,0.831c-14.219-1.577-33.487,1.21-42.592,3.305c-8.298,1.897-18.747,6.065-24.45,8.911    c1.696-2.837,2.264-5.881,2.202-8.388c-7.127-6.594-27.811-15.318-43.179-12.587c-2.818,1.633-6.142,4.847-7.925,7.701    c-2.886,4.756-4.77,9.639-5.946,15.093l-0.062,0.872v4.263c0.966,13.416,10.977,24.019,17.56,29.129    c-1.127,0.506-3.035,1.448-6.23,0.736c-1.536,4.328-2.106,10.774-0.945,16.135c-1.541,1.842-4.948,3.356-7.459,4.017    c0,0,23.829,30.411,31.153,39.475c11.18,0.062,25.299,2.316,34.103,4.431c8.803,2.094,31.861,10.989,49.416,22.022    c-20.223-19.569-48.848-30.562-55.069-32.343c-6.226-1.785-16.982-3.397-21.693-3.872l-7.348-6.842c0,0-7.464-8.754-10.255-13.056    c-2.524-3.925,1.172-28.664,6.581-42.74c-6.071,2.652-13.38,1.541-21.361-2.787c20.283-0.404,34.316-18.417,33.794-33.929    c6.593,5.657,3.936,20.066-0.819,26.443c12.283,6.795,51.571,4.34,72.051-2.965c22.335-7.992,68.405-10.1,77.514-6.496    c-1.346-0.407-3.343-0.568-5.895-0.558c7.21,0.517,14.167,1.922,20.569,4.808v-10.337c-1.12-0.822-2.354-1.632-3.832-2.304    c-3.454-1.564-7.851-2.846-11.068-3.617c3.565-3.185,6.757-8.194,11.375-9.298c1.148,0.632,2.357,1.455,3.524,2.405V141.909z"/>
	</g>
	<g>
		<g>
			<polygon fill="#231F20" points="362.82,43.495 354.154,60.119 359.835,60.119    "/>
			<path fill="#231F20" d="M186.264,60.286c1.605-4.616-0.441-7.948-1.606-8.992c-0.986,0.119-2.311,0.221-3.343,0.265l-6.558,18.98     C180.102,69.932,184.173,66.358,186.264,60.286z"/>
			<polygon fill="#231F20" points="132.298,43.495 123.649,60.119 129.326,60.119    "/>
			<path fill="#231F20" d="M269.273,33.193c0.264-0.759,0.462-1.851-0.18-2.723c-0.608-0.902-2.038-1.419-3.937-1.529l-3.213,9.284     C265.47,37.768,268.371,35.829,269.273,33.193z"/>
			<path fill="#231F20" d="M193.261,33.193c0.264-0.759,0.461-1.851-0.154-2.723c-0.641-0.902-2.046-1.419-3.957-1.529l-3.213,9.284     C189.451,37.768,192.359,35.829,193.261,33.193z"/>
			<path fill="#231F20" d="M262.275,60.286c1.613-4.616-0.441-7.948-1.623-8.992c-0.974,0.119-2.291,0.221-3.326,0.265l-6.553,18.98     C256.117,69.932,260.188,66.358,262.275,60.286z"/>
			<path fill="#231F20" d="M444.005,169.425c0.964-1.206-2.312-4.156-1.759-5.812c1.384,0.171,2.333,1.483,2.901,2.353     c2.97,2.787,5.235,5.924,8.622,7.43c1.632-1.81-0.703-5.25-1.691-6.419c-1.584-1.853-9.461-12.3-16.172-15.898     c-4.618,1.104-7.81,6.113-11.375,9.298c3.217,0.771,7.614,2.053,11.068,3.617C439.048,165.565,441.073,167.844,444.005,169.425z"/>
			<path fill="#231F20" d="M521.911,37.175c0.645-1.887,1.142-4.463-0.048-6.14c-1.012-1.422-3.008-1.854-4.772-1.941l-7.059,20.465     C513.396,48.25,519.534,43.968,521.911,37.175z"/>
		</g>
		<path fill="#231F20" d="M561.117,98.497h6.134l-3.802,12.372c-0.767,2.467-1.54,4.929-2.332,7.372v61.892    C585.98,127.286,608.638,67.37,626.7,0h-65.583v19.239c5.058-2.332,11.226-3.607,18.036-3.607c4.579,0,11.376,1.32,13.618,2.735    l-11.498,10.728c-1.55-0.406-3.479-0.798-5.703-0.798c-3.741,0-6.313,1.823-6.956,3.616c-1.252,3.606,1.059,6.626,5.97,12.586l0,0    c5.677,6.844,8.4,12.405,5.562,20.593c-2.666,7.719-9.615,13.598-19.029,16.598V98.497z M536.69,98.497h24.427V81.688    c-4.507,1.455-9.594,2.238-15.046,2.238c-3.236,0-6.475-0.419-9.38-1.072V98.497L536.69,98.497z M561.117,118.241    c-7.354,23.11-15.6,45.025-24.427,65.762v44.708c8.317-15.484,16.48-31.663,24.427-48.578V118.241L561.117,118.241z M561.117,0    H536.69v20.363c2.095,1.213,3.787,2.66,4.981,4.355c2.545,3.578,2.946,7.989,1.163,13.112c-1.472,4.266-3.676,7.764-6.144,10.613    v25.271l4.736-4.446c1.826,0.843,5.364,1.651,8.361,1.651c4.442,0,8.249-2.011,9.26-4.889c1.519-4.437-0.481-7.906-5.584-14.01    c-6.255-7.626-7.771-12.785-5.61-19.072c2.088-6.017,6.771-10.729,13.264-13.71V0z M510.513,98.497h26.178V82.854    c-2.787-0.632-5.277-1.475-7.213-2.372l7.213-6.768V48.443c-4.618,5.353-10.119,8.373-13.246,9.781    c1.656,2.011,4.056,5.501,5.043,9.683c1.301,5.346-0.335,11.259-1.831,15.587l0,0h-16.145V98.497L510.513,98.497z M536.69,184.003    c-8.265,19.449-17.092,37.86-26.178,55.207v20.662c1.871,1.838,3.746,3.685,5.48,5.49c6.974-11.746,13.886-23.961,20.698-36.65    V184.003L536.69,184.003z M536.69,0h-26.178v16.062h5.496c8.76,0,15.843,1.505,20.682,4.302V0z M485.808,239.281    c2,1.36,3.758,2.552,5.175,3.494c0.43,0.281,0.874,0.621,1.358,0.961c2.108-12.853,3.1-23.186,3.171-28.248    c0.81-0.167,5.411-2.652,5.98-3.614c0.75-3.468,0.988-6.921,1.494-10.731c-2.968-2.884-5.323-7.35-6.268-11.785    c0.197-6.237,0.639-13.523,1.536-19.492c-1.251-6.601-2.702-13.274-4.528-19.532c-0.994-2.305-4.42-3.806-7.919-3.656v11.752    c0.771,0.304,1.255,0.887,1.056,1.997c-0.347,0.166-0.7,0.301-1.056,0.392v11.902c0.242-0.095,0.506-0.178,0.771-0.242    c0.546,1.041,1.121,3.582,1.316,5.167c0.221,1.578,0.574,7.257-0.26,10.673c-0.572,2.265,0.216,5.843,1.845,7.404    c-1.213-0.08-2.417-0.198-3.672-0.368v9.329c0.987,0.284,1.937,0.549,2.858,0.791c3.72,3.565,2.317,15.911-0.75,22.497l0,0    c-0.722-0.969-1.455-2.135-2.107-3.44V239.281L485.808,239.281z M485.808,98.497h24.705V83.495h-5.012    c1.27-3.696,2.064-8.056,1.4-10.752c-0.609-2.464-1.78-4.428-2.901-5.764l-5.716,16.516h-12.476V98.497L485.808,98.497z     M510.513,239.21c-2.417,4.648-4.881,9.202-7.348,13.697c2.421,2.213,4.911,4.577,7.348,6.965V239.21L510.513,239.21z M510.513,0    h-24.705v16.062h8.693l-4.451,12.816h-4.242v29.492l14.631-42.308h10.074V0L510.513,0z M485.808,182.182v-4.781    c0.506,1.23,0.854,2.535,0.815,4.01C486.531,181.84,486.137,181.999,485.808,182.182z M456.085,354.578    c8.625-11.393,17.383-23.497,26.182-36.324c-2.819-2.111-5.869-4.252-9.088-6.359c-5.657-3.668-11.681-7.193-17.093-10.145v11.555    c3.053,1.234,5.717,3.236,6.93,4.597c-1.831,2.123-4.269,4.411-6.93,6.084V354.578L456.085,354.578z M456.085,221.256    c11.22,5.518,22.264,12.942,29.723,18.025v-14.749c-2.707-5.439-4.471-13.215-3.146-18.025c-2.819,1.224-6.159,4.075-8.144,6.211    c-1.031-3.036-2.722-7.638-5.06-9.963c-1.32,1.957-4.265,5.073-6.313,5.892c-1.605-2.203-3.103-5.769-4.198-8.484    c-0.71,0.992-1.724,2.111-2.863,3.171V221.256L456.085,221.256z M485.808,146.679c-0.196,0.014-0.399,0.024-0.6,0.039    c-7.611,1.957-15.856,3.199-23.098,6.528c-1.432-1.938-2.81-5.824-6.025-10.25v16.812l0.788,1.026    c2.201,2.54,1.854,10.168,3.455,13.039c0.424,0,1.387,0.102,1.475-0.784c-0.617-6.112,15.309-14.532,20.286-14.883    c0.799-0.056,2.551-0.245,3.72,0.226V146.679L485.808,146.679z M456.085,98.497h29.723V83.495h-8.697l8.697-25.125V28.877h-16.126    l-7.523,21.705h16.52l-4.44,12.825h-16.504l-1.648,4.785v2.476h19.518l-4.43,12.827l0,0h-15.088V98.497L456.085,98.497z     M485.808,0h-29.723v16.062h29.723V0L485.808,0z M485.808,160.819v11.902c-0.656,0.242-1.276,0.608-1.739,1.293    c0.617,1.145,1.254,2.229,1.739,3.386v4.781h-0.024c-2.992-4.108-10.672-11.509-14.257-14.128    c1.632-2.348,4.224-3.616,6.339-6.116C480.373,160.265,483.144,161.507,485.808,160.819L485.808,160.819z M485.808,195.356v9.329    c-7.724-2.186-17.228-5.28-21.409-6.83c-2.091-0.794-5.085-2.146-8.314-3.775v-7.894    C464.399,190.167,475.625,193.996,485.808,195.356z M437.428,378.362c6.11-7.562,12.36-15.491,18.657-23.785v-30.591    c-2.465,1.541-5.082,2.564-7.55,2.486c-3.431-0.1-7.695-2.593-10.625-4.361c-0.154,0.123-0.306,0.23-0.482,0.344v9.951    c0.57-0.313,1.051-0.685,1.494-1.083c3.822,2.363,9.99,3.968,14.455,3.498c-5.806,3.554-11.941,5.081-15.949,5.455V378.362    L437.428,378.362z M456.085,301.75c-3.517-1.913-6.793-3.585-9.549-4.914c-2.64-1.276-5.759-2.676-9.107-4.083v19.604    c0.24-0.254,0.482-0.501,0.7-0.735c1.301,1.747,2.513,3.949,2.662,6.064c3.59,0.832,9.943-2.851,11.6-5.362    c1.254,0.152,2.498,0.518,3.695,0.982V301.75L456.085,301.75z M437.428,217.007c0.66-1.012,1.268-1.783,1.758-2.183    c5.392,1.277,11.18,3.612,16.899,6.432v-17.922c-1.035,0.929-2.208,1.81-3.41,2.505c-2.404-2.697-5.961-9.49-6.471-14.051    c-2.688,1.513-5.807,5.438-8.775,10.062V217.007L437.428,217.007z M456.085,142.996c-3.035-4.159-7.68-8.781-15.511-12.675    c-1.083,0.012-2.134,0.063-3.146,0.155v11.214c1.43,0.062,2.771,0.281,3.83,0.75c5.495,5.942,10.057,11.334,14.827,17.367V142.996    L456.085,142.996z M437.428,98.497h18.657V83.495h-18.657V98.497L437.428,98.497z M456.085,0h-18.657v16.062h7.783l-7.783,11.144    v23.376h3.589l11.942-34.521h3.125V0L456.085,0z M456.085,68.191v2.476h-0.86L456.085,68.191L456.085,68.191z M456.085,186.185    v7.894c-4.046-2.032-8.471-4.479-11.964-6.633c-1.619-0.988-4.1-2.134-6.693-2.854v-8.808c3.431,1.364,6.732,3.128,9.855,5.374    C449.461,182.73,452.496,184.461,456.085,186.185z M428.407,389.265c2.989-3.562,5.985-7.187,9.021-10.902v-38.087    c-0.66,0.052-1.279,0.091-1.807,0.091l0,0c-1.689,0.02-4.25-0.159-7.215-0.486v15.711c2.249,0.156,4.882,0.196,7.127-0.077    c-2.396,3.069-4.772,6.077-7.127,9.009V389.265L428.407,389.265z M437.428,292.752c-2.886-1.206-5.942-2.418-9.021-3.578v29.308    c2.989-1.087,6.577-3.806,9.021-6.127V292.752L437.428,292.752z M428.407,232.237c0.684,0.479,1.408,0.94,2.155,1.393    c0.04-3.867,4.022-12.386,6.866-16.623V201.85c-3.61,5.598-6.997,12.215-9.021,16.782V232.237L428.407,232.237z M437.428,130.477    c-3.214,0.264-6.203,0.856-9.021,1.672v10.483c1.976-0.431,5.721-1.103,9.021-0.941V130.477L437.428,130.477z M428.407,98.497    h9.021V83.495h-7.785l6.949-20.088h-5.019l4.439-12.825h1.416V27.206L428.407,40.1V98.497L428.407,98.497z M437.428,0h-9.021    v16.062h9.021V0L437.428,0z M437.428,175.784v8.808c-2.428-0.641-4.931-0.94-6.973-0.4c-0.733,0.182-1.435,0.455-2.048,0.749    v-11.828C431.486,173.761,434.522,174.634,437.428,175.784L437.428,175.784z M437.428,322.455v9.951    c-2.428,1.358-5.942,2.001-9.021,1.676v-9.242C431.178,325.05,434.392,324.415,437.428,322.455z M415.422,404.374    c4.274-4.848,8.585-9.886,12.985-15.109v-24.742c-4.447,5.527-8.775,10.765-12.985,15.701V404.374L415.422,404.374z     M428.407,289.175c-4.399-1.631-8.842-3.153-12.985-4.316v29.119c2.727-2.001,5.371-3.668,6.451-4.349l0,0    c0.197,3.969,2.27,8.689,3.605,9.309c0.832,0.126,1.831-0.052,2.928-0.454V289.175L428.407,289.175z M415.422,214.824    c2.448,6.218,6.007,12.555,12.985,17.413v-13.604c-0.462,1.031-0.857,1.983-1.189,2.762c-6.625-7.897-7.123-20.287-4.361-30.675    c0.823-1.818,2.559-4.344,5.551-5.778v-11.828c-3.108-0.633-6.289-1.055-9.546-1.286c-1.063,0-2.201,0.04-3.438,0.123V214.824    L415.422,214.824z M428.407,132.148c-5.036,1.475-9.396,3.66-12.985,5.873v12.454c3.526-1.915,7.987-7.072,11.575-7.519    c0,0,0.553-0.135,1.41-0.324V132.148L428.407,132.148z M415.422,98.497h12.985V40.1l-12.985,18.593v11.975h10.672l-4.418,12.827    l0,0h-6.254V98.497L415.422,98.497z M428.407,0h-12.985v16.062h12.985V0L428.407,0z M428.407,324.839v9.242    c-2.443-0.253-4.616-1.096-5.72-2.649c-2.53,0.636-4.969,0.823-7.265,0.681v-7.854c2.778,0.24,5.589-0.033,7.434-1.325    C424.182,323.946,426.143,324.676,428.407,324.839L428.407,324.839z M428.407,339.88v15.711c-1.541-0.101-2.904-0.273-3.768-0.441    c-1.202,1.29-2.458,2.462-3.806,3.507c-1.711,1.353-3.517,2.519-5.411,3.526v-24.295c0.442,0.1,0.843,0.176,1.283,0.254    C420.707,338.87,424.841,339.49,428.407,339.88L428.407,339.88z M415.422,159.15v-5.795c1.213,1.937,3.061,4.174,3.28,4.82    c-0.245,0.597-0.725,1.379-1.208,1.719C416.875,159.644,416.175,159.404,415.422,159.15z M407.374,413.361    c2.66-2.915,5.325-5.91,8.048-8.987v-24.15l-1.847,2.139l0,0c-2.066,2.424-4.131,4.795-6.202,7.12V413.361L407.374,413.361z     M415.422,284.858c-0.676-0.2-1.341-0.38-1.977-0.553c-0.193-4.736-2.289-11.389-4.048-14.495    c-0.53,1.021-1.206,2.149-2.023,3.319v17.247c0.088,1.317,0.088,2.658,0,3.993v27.26c1.1-2.242,4.665-5.199,8.048-7.652V284.858    L415.422,284.858z M407.374,211.085c2.071-1.329,3.916-2.678,5.364-3.89c0.822,2.439,1.657,5.02,2.685,7.628V171.95    c-2.397,0.128-5.1,0.368-8.048,0.7v8.253c1.276,0.436,2.139,1.278,2,2.783c-0.224,2.29-0.924,5.346-2,8.591V211.085    L407.374,211.085z M415.422,138.021c-3.383,2.092-6.089,4.214-8.048,5.783v13.172c2.857,0.66,5.744,1.417,8.048,2.174v-5.795    c-0.59-0.933-1.027-1.817-1.052-2.423c0.328-0.105,0.68-0.256,1.052-0.457V138.021L415.422,138.021z M407.374,98.497h8.048V83.495    h-8.048V98.497L407.374,98.497z M415.422,0h-8.048v16.062h8.048V0L415.422,0z M415.422,58.693v11.975h-8.048v-0.479    L415.422,58.693L415.422,58.693z M415.422,324.259v7.854c-2.989-0.199-5.72-0.945-8.048-1.933v-8.362    C408.578,322.833,411.951,323.946,415.422,324.259L415.422,324.259z M415.422,337.887v24.295    c-2.523,1.304-5.206,2.317-7.984,3.088c2.114-4.744,2.971-11.287,1.521-16.204c-0.485,0.313-1.012,0.608-1.584,0.909v-14.456    C410.23,336.505,412.962,337.351,415.422,337.887L415.422,337.887z M407.374,36.995v-8.118h5.677L407.374,36.995z     M383.545,438.583c7.55-7.654,15.555-16.057,23.829-25.222v-23.878c-8.273,9.388-16.279,17.973-23.829,25.753V438.583    L383.545,438.583z M407.374,273.129c-4.135,6.088-11.18,13.644-15.973,16.575c0.987-5.601-1.1-20.01-3.76-24.123    c-0.755,1.414-2.289,3.047-4.095,4.588v8.91c0.158-0.119,0.289-0.24,0.415-0.359c1.197,4.442,1.127,9.727-0.415,14.314v6.514    h0.023c6.795,1.577,16.59-6.694,22.88-14.567c0.506,1.752,0.814,3.573,0.925,5.395V273.129L407.374,273.129z M383.545,210.756    c2.44-2.288,4.579-4.628,6.296-6.513c1.78,3.125,0.945,12.652-1.078,15.005c2.901,0.542,11.792-3.755,18.611-8.162v-18.809    c-2.329,7.106-6.322,15.091-10.166,17.686l0,0c0.682-7.195-1.054-16.073-6.073-21.956c-1.846,4.441-4.661,8.8-7.59,12.48V210.756    L383.545,210.756z M407.374,143.804c-1.23,1.03-2.177,1.812-2.772,2.227c-3.387-2.277-8.828-14.192-11.644-17.59    c-4.306-1.472-7.101-2.19-9.413-1.688v14.891c0.158-0.035,0.289-0.064,0.415-0.09l0,0l4.76,4.72l-0.18,0.264    c-1.695-0.189-3.367-0.275-4.995-0.427v8.567c5.325-0.104,10.206-0.044,13.492,0.35l0,0c2.481,0.313,6.419,1.028,10.337,1.949    V143.804L407.374,143.804z M383.545,98.497h23.829V83.495h-23.829V98.497L383.545,98.497z M407.374,0h-23.829v16.062h0.375    l-0.375,3.177v51.899l23.829-34.143v-8.118h-11.001l4.447-12.816h6.555V0L407.374,0z M407.374,70.188v0.479h-0.305L407.374,70.188    L407.374,70.188z M407.374,172.65v8.253c-2.023-0.707-5.128-0.422-6.97-0.222c-2.206,0.222-8.783,1.463-16.859,3.048v-7.424    C392.281,174.756,400.515,173.445,407.374,172.65L407.374,172.65z M407.374,294.369v27.26l-0.047,0.131l0.047,0.059v8.362    c-1.72-0.733-3.254-1.605-4.515-2.495c-4.66,0.253-12.182-1.348-19.313-5.395v-17.461c3.677,4.966,4.865,7.175,9.926,8.4    c2.197,0.435,4.618,0.648,6.353-0.617C404.159,307.814,406.935,301.162,407.374,294.369L407.374,294.369z M407.374,335.521    c-5.589-1.887-11.706-4.289-17.383-5.882c-2.375-0.933-4.552-2.167-6.446-3.684v17.878c2.312-0.39,4.424-0.959,5.94-1.56    c1.566,1.644,0.506,10.653-1.251,12.894c4.428,0.478,12.956-1.873,19.14-5.19V335.521L407.374,335.521z M383.545,401.369v-18.935    c2.972,3.086,5.916,6.253,8.779,9.46c-0.067,0.082-0.154,0.176-0.218,0.271c-2.731,2.958-5.392,5.843-8.013,8.609    c-0.174,0.175-0.307,0.333-0.485,0.499L383.545,401.369z M332.503,485.333c12.409-10.119,30.119-25.594,51.042-46.75v-23.348    c-21.496,22.097-39.554,37.708-51.042,47.013V485.333L332.503,485.333z M383.545,270.169c-3.253,2.76-7.349,5.214-9.222,5.536    c1.392-7.141-1.845-16.623-7.163-21.143c-3.02,3.757-7.488,6.452-11.005,7.654c0.963-9.008-4.377-20.578-10.362-24.358    c-1.366,4.74-6.32,11.179-10.494,14.658c0.019-3.655-0.835-7.957-2.796-11.882v20.354c1.981-0.075,3.785-0.768,5.678-1.604    c3.806-1.695,8.269-9.769,8.269-9.769c3.329,4.002,3.613,14.452,1.102,19.133c6.642,3.087,15.841-1.253,18.504-3.699    c2.901,4.112,1.051,15.254-0.399,17.773c5.72,1.992,14.345-0.859,17.888-3.741V270.169L383.545,270.169z M332.503,220.121    c5.172-2.632,9.967-7.163,13.041-12.158c2.559,2.529,2.164,6.224,1.744,8.664c8.056-0.81,16.61-7.274,19.737-12.448    c2.551,3.189,1.387,13.286-0.091,15.484c5.985-0.229,11.856-4.463,16.61-8.907v-10.269c-2.921,3.657-6.009,6.641-8.341,8.336    c-0.261-8.514-1.973-12.961-7.788-18.034c-2.685,7.018-9.067,14.354-14.65,16.215c0.506-2.885-4.442-10.451-7.984-13.032    c-3.744,9.487-8.182,15.311-12.279,18.013V220.121L332.503,220.121z M383.545,126.752c-0.723,0.146-1.408,0.411-2.044,0.822    c-3.02,2.404-6.027,3.858-9.202,5.831c-4.569-8.19-15.974-21.321-20.495-24.589c-0.336-0.252-0.728-0.505-1.108-0.753    c-5.205-3.471-13.108-6.989-17.334-7.934c-0.287-0.09-0.569-0.114-0.858-0.079v14.54c2.815,0.145,5.172,0.544,6.556,1.368l0,0    c6.229,2.375,17.448,13.115,22.638,17.056c2.909,2.534,3.301,9.582,5.06,12.619c0,0-3.998-2.08-8.689-5.629    c-3.937-2.984-16.166-12.728-25.564-16.223v12.55c2.642,0.7,5.631,1.89,8.867,3.646c3.717,2.019,7.301,6.676,10.963,9.292    c-7.205,0.774-13.82,0.964-19.83,1.435v5.436c7.726-0.761,16.105-1.063,23.213-0.282c5.019-0.149,17.29-0.985,27.829-1.181v-8.567    c-1.783-0.173-3.498-0.403-5.167-0.862c1.277-1.671,3.384-3.185,5.167-3.604V126.752L383.545,126.752z M332.503,98.497h51.042    V83.495h-27.259l1.627-10.55h-10.47l-5.653,10.55h-9.287V98.497L332.503,98.497z M383.545,0h-51.042v65.47l28.095-49.409h22.947V0    L383.545,0z M383.545,19.239v51.899l-7.791,11.132L383.545,19.239L383.545,19.239z M383.545,176.306v7.424    c-15.753,3.099-37.138,7.535-42.546,8.419c-1.961,0.328-4.914,0.909-8.496,1.609v-7.273    C347.203,183.41,366.365,179.362,383.545,176.306L383.545,176.306z M383.545,293.035v6.514c-0.266-0.08-2.218-0.752-2.289-1.861    C382.227,296.271,383,294.702,383.545,293.035L383.545,293.035z M383.545,304.829v17.461c-2.087-1.191-4.155-2.582-6.091-4.214    c1.336,3.125,3.453,5.767,6.091,7.878v17.878c-4.443,0.755-9.542,0.897-12.273-0.474c3.873-2.182,4.728-5.877,4.818-9.594    c-6.648,1.164-12.961-1.208-12.961-1.208c-3.366-10.433-17.291-24.371-22.307-28.141c-1.676-1.267-4.713-3.097-8.318-5.084    v-18.587c6.402,3.043,12.936,6.515,18.857,10.227c-5.831-5.641-12.365-10.567-18.857-14.773v-12.942l0.709,0.365    c18.768,9.135,40.681,29.255,47.166,37.153C381.636,302.303,382.647,303.643,383.545,304.829L383.545,304.829z M383.545,382.434    v18.935c-2.638,2.774-5.214,5.472-7.769,8.064c0,0.012,0,0.012-0.022,0.043c-13.615-0.296-30.315,2.984-43.251,7.163v-13.602    c16.721-4.463,34.938-5.827,46.397-5.648c-8.516-8.883-16.722-17.092-25.853-24.722l0,0c-7.084-0.929-13.903-0.866-20.545-0.036    v-12.353c1.91-0.191,3.854-0.308,5.77-0.358c-1.634-1.116-3.617-2.319-5.77-3.578v-19.477c5.298,3.917,10.666,8.013,16.022,12.381    C355.234,354.72,369.441,367.712,383.545,382.434L383.545,382.434z M332.503,449.804v-4.497c0.834,0.817,1.654,1.612,2.507,2.382    L332.503,449.804z M297.983,488.717C307.75,496.304,313.364,500,313.364,500s7.044-4.796,19.139-14.667v-23.085    c-8.031,6.513-12.866,9.946-13.419,10.34l-5.518,3.878l-5.479-3.878c-0.506-0.347-4.072-2.877-10.103-7.668V488.717    L297.983,488.717z M332.503,240.633c-1.623-3.27-4.027-6.293-7.308-8.446c-1.446,5.653-7.494,11.309-10.779,13.526    c-1.427-5.19-5.721-14.768-11.653-16.603c-0.989,2.043-2.685,4.594-4.779,6.812v8.716c2.536-1.771,4.751-3.782,5.744-5.598l0,0    c3.055,3.736,5.876,10.521,2.312,14.539c-2.618-0.81-5.349-1.521-8.056-2.167v7.746c5.941,1.995,20.128,7.728,34.52,17.04v-12.942    c-8.841-4.375-21.846-8.474-21.846-8.474c6.118-1.143,13.462-6.567,15.509-11.398l0,0c3.06,4.511,2.112,13.314,1.476,16.569    c1.783,0.808,3.368,1.102,4.861,1.035V240.633L332.503,240.633z M297.983,221.955c12.432-0.783,17.187-7.704,21.188-13.666    c4.031,3.33,5.392,8.405,4.463,14.195c2.925-0.022,5.962-0.881,8.869-2.363v-8.136c-0.832,0.554-1.672,0.997-2.489,1.292    c-0.771-5.58-5.494-11.269-13.286-14.728c-4.729,9.91-11.203,14.231-14.428,15.864c-0.221-3.158-1.764-6.716-4.316-9.622V221.955    L297.983,221.955z M332.503,100.05c-1.493,0.143-2.907,1.712-3.058,3.167c-3.788-0.562-9.878-0.372-13.705-0.053    c-2.31-1.354-4.618-3.007-7.062-4.667h23.825V83.495h-34.52v48.021c1.228-5.451,2.794-10.7,7.415-13.977    c4.095-1.028,18.084-3.404,27.104-2.949V100.05L332.503,100.05z M332.503,0h-34.52v39.855l8.229-23.793h21.146l-18.876,54.606    h19.14l-3.06,8.768l7.94-13.965V0L332.503,0z M332.503,123.78v12.55c-4.462-1.201-7.94-1.012-10.07,0.206    c-3.615,2.075-14.306,11.214-9.444,18.59c0,0,2.901-1.266,7.835-2.655c0.178-0.061,0.418-0.073,0.611-0.128l0,0    c2.16-5.475,5.35-10.989,8.805-14.23c-0.902,4.249-0.593,8.566,0.703,12.725l1.561-0.135v5.436    c-7.719,0.758-14.802,1.973-19.379,3.023c-4.753,1.091-10.255,2.937-15.141,4.855v-13.559c1.012,0.445,1.959,0.7,2.971,0.354    c-0.288-5.565,6.777-17.622,12.385-21.397c4.202-1.975,10.033-2.106,16.306-1.422c0-2.405-2.49-5.479-2.49-5.479    C328.746,122.586,330.567,123.051,332.503,123.78L332.503,123.78z M332.503,186.486v7.273c-9.462,1.885-23.254,4.652-34.52,5.946    v-7.257c4.379-0.392,8.827-1.018,13.246-1.712C315.277,190.076,322.953,188.494,332.503,186.486L332.503,186.486z     M332.503,280.744v18.587c-6.134-3.4-13.949-7.246-19.534-9.492c-3.476-1.375-8.803-3.078-14.986-4.652V268.07    c1.406,0.285,2.727,0.582,3.96,0.878C307.773,270.337,319.894,274.723,332.503,280.744L332.503,280.744z M332.503,336.864v19.477    c-9.854-5.792-23.605-12.927-28.23-19.223c-2.131,0.323-4.218,0.714-6.289,1.18v-26.546    C308.086,319.653,320.073,327.712,332.503,336.864L332.503,336.864z M332.503,360.278v12.353    c-12.122,1.518-23.582,5.592-34.52,10.831v-13.133C308.965,365.041,320.422,361.416,332.503,360.278L332.503,360.278z     M332.503,403.037v13.602c-8.778,2.842-15.813,6.099-18.962,8.946c6.882,5.435,12.342,13.155,18.962,19.722v4.497    c-11.838,9.981-18.938,14.979-18.938,14.979s-0.135-0.111-0.38-0.281c-0.086-0.052-0.154-0.111-0.282-0.189    c-0.2-0.166-0.485-0.368-0.841-0.62c-0.219-0.163-0.435-0.325-0.7-0.53c-0.354-0.265-0.777-0.569-1.213-0.914    c-0.331-0.245-0.616-0.451-0.988-0.732c-0.77-0.592-1.612-1.24-2.569-1.997c-0.491-0.361-1.011-0.793-1.542-1.212    c-0.592-0.459-1.197-0.928-1.829-1.446c-0.66-0.518-1.32-1.056-2.025-1.63c-0.613-0.506-1.253-1.012-1.914-1.553l-1.299-1.08    v-48.562c3.277,3.697,6.731,7.262,9.566,9.539C314.487,408.935,323.266,405.507,332.503,403.037z M292.046,484.032    c2.106,1.692,4.091,3.253,5.938,4.685V464.92c-1.784-1.408-3.76-3.001-5.938-4.806V484.032L292.046,484.032z M297.983,235.921    c-1.784,1.874-3.831,3.526-5.938,4.45v7.653c1.912-0.857,4.022-2.051,5.938-3.388V235.921L297.983,235.921z M292.046,208.492    c3.011,3.636,5.383,10.032,5.454,13.486l0.484-0.024v-17.163c-1.605-1.833-3.629-3.415-5.938-4.478V208.492L292.046,208.492z     M297.983,0h-5.938v57.033l5.938-17.178V0L297.983,0z M297.983,83.495v48.021c-1.293,5.748-2.241,11.733-5.938,15.911v-27.754    c0.285-0.289,0.549-0.545,0.767-0.786c-0.242-0.514-0.506-1.084-0.767-1.697V83.495H297.983L297.983,83.495z M297.983,150.458    v13.559c-2.136,0.826-4.159,1.684-5.938,2.47V148.26C294.576,148.45,296.354,149.703,297.983,150.458L297.983,150.458z     M297.983,192.448v7.257c-2.087,0.241-4.072,0.426-5.938,0.545v-7.387C294.007,192.771,295.983,192.624,297.983,192.448    L297.983,192.448z M297.983,251.411v7.746c-0.66-0.218-1.229-0.395-1.692-0.529c-1.253-0.361-2.708-0.7-4.245-1.052v-7.48    C294.007,250.516,296.006,250.943,297.983,251.411L297.983,251.411z M297.983,268.07v17.117c-1.915-0.491-3.913-0.966-5.938-1.409    v-16.843C294.136,267.3,296.12,267.671,297.983,268.07L297.983,268.07z M297.983,311.752v26.546c-2,0.458-3.977,0.965-5.938,1.582    v-10.511c0.969-0.403,1.912-0.794,2.861-1.213c-0.972-0.812-1.912-1.665-2.861-2.538v-18.698    C293.936,308.524,295.919,310.134,297.983,311.752L297.983,311.752z M297.983,370.329v13.133c-2,0.948-3.977,1.945-5.938,2.973    v-13.058C294.007,372.306,295.983,371.294,297.983,370.329L297.983,370.329z M297.983,404.037v48.562l-1.142-0.933    c-0.618-0.493-1.253-1.05-1.894-1.582c-0.921-0.793-1.914-1.604-2.901-2.465v-50.547    C293.824,399.233,295.873,401.665,297.983,404.037z M286.74,479.72c1.854,1.518,3.63,2.949,5.306,4.312v-23.918    c-1.676-1.353-3.435-2.824-5.306-4.401V479.72L286.74,479.72z M292.046,240.372c-0.945,0.415-1.895,0.681-2.858,0.783    c-0.882,0.081-1.7,0.017-2.448-0.176v15.561c1.822,0.318,3.606,0.672,5.306,1.037v-7.48l-3.763-0.783    c1.05-0.196,2.36-0.644,3.763-1.288V240.372L292.046,240.372z M286.74,209.052c0.705-1.32,1.389-2.406,2.068-3.085    c1.103,0.39,2.227,1.292,3.238,2.526v-8.179l-0.135-0.052l0.135-0.012v-7.387c-1.784,0.074-3.561,0.122-5.306,0.098V209.052    L286.74,209.052z M292.046,0h-5.306v21.979c0.812,0.664,1.475,1.395,2.025,2.177c2.004,2.807,2.4,6.226,1.146,9.871    c-0.723,2.032-1.758,3.91-3.17,5.641v32.624l5.306-15.259V0L292.046,0z M292.046,83.495v33.695c-1.108-2.489-2.31-5.7-3.171-9.127    c-0.793-3.103-1.292-6.412-1.161-9.565h-0.974V83.495H292.046L292.046,83.495z M292.046,119.672v27.754    c-0.266,0.276-0.526,0.553-0.795,0.819c0.269-0.011,0.529,0,0.795,0.015v18.227c-1.234,0.555-2.376,1.092-3.372,1.586    c1.696-2.837,2.264-5.881,2.202-8.388c-1.076-1.004-2.482-2.049-4.136-3.091v-30.925    C288.433,123.593,290.508,121.25,292.046,119.672L292.046,119.672z M292.046,266.936v16.843c-1.74-0.387-3.499-0.75-5.306-1.081    v-16.595C288.562,266.363,290.33,266.643,292.046,266.936L292.046,266.936z M292.046,306.919v18.698    c-1.807-1.644-3.561-3.364-5.306-5.139v-18.282C288.417,303.778,290.199,305.35,292.046,306.919L292.046,306.919z     M292.046,329.369v10.511c-1.784,0.538-3.546,1.142-5.306,1.811v-10.282C288.524,330.749,290.282,330.069,292.046,329.369    L292.046,329.369z M292.046,373.377v13.058c-1.784,0.925-3.546,1.87-5.306,2.842v-12.899    C288.5,375.342,290.262,374.343,292.046,373.377L292.046,373.377z M292.046,397.071v50.547l-2.796-2.397    c-0.592-0.517-1.186-1.01-1.777-1.553l-0.733-0.608v-52.604C287.689,391.691,289.63,394.146,292.046,397.071z M281.526,475.36    c1.807,1.542,3.565,2.968,5.213,4.36v-24.007c-1.648-1.403-3.383-2.901-5.213-4.489V475.36L281.526,475.36z M286.74,240.978    c-2.661-0.725-4.356-3.183-5.213-6.033v20.729c1.672,0.252,3.451,0.548,5.213,0.864V240.978L286.74,240.978z M281.526,224.924    c0.995-4.522,3.02-11.524,5.213-15.873V192.96c-1.781-0.011-3.493-0.084-5.213-0.215V224.924L281.526,224.924z M286.74,0h-5.213    v18.892c2.07,0.85,3.831,1.89,5.213,3.088V0L286.74,0z M286.74,39.668v32.624l-3.868,11.203h3.868v15.002h-5.213V65.67    c0.776-1.443,1.455-2.979,2.024-4.64c2.223-6.384,0.442-11.578-2.024-14.686v-1.957C283.613,42.978,285.357,41.396,286.74,39.668    L286.74,39.668z M286.74,125.668v30.925c-1.536-0.997-3.3-1.982-5.213-2.939v-44.76c6.073,7.897,3.502,19.048,3.502,19.048    C285.488,127.261,286.104,126.491,286.74,125.668L286.74,125.668z M286.74,266.102v16.595c-1.711-0.32-3.478-0.617-5.213-0.875    V265.43C283.287,265.632,285.028,265.862,286.74,266.102L286.74,266.102z M286.74,302.197v18.282    c-1.735-1.805-3.493-3.681-5.213-5.549V296.8C283.131,298.621,284.868,300.414,286.74,302.197L286.74,302.197z M286.74,331.409    v10.282c-1.735,0.672-3.493,1.403-5.213,2.206v-10.562C283.262,332.698,285.028,332.057,286.74,331.409L286.74,331.409z     M286.74,376.377v12.899l-0.612,0.351l0.612,0.829v52.604c-0.9-0.791-1.821-1.634-2.775-2.476c-0.718-0.62-1.403-1.24-2.133-1.883    l-0.306-0.282v-58.792C283.262,378.512,285.005,377.425,286.74,376.377z M273.035,468.075c2.974,2.579,5.812,5.02,8.492,7.285    v-24.135c-2.66-2.33-5.494-4.832-8.492-7.531V468.075L273.035,468.075z M281.526,234.945c-0.637-2.155-0.838-4.543-0.637-6.579    c0.091-0.771,0.309-1.971,0.637-3.442v-32.179c-2.988-0.229-5.831-0.648-8.492-1.315v61.15c0.973,1.35,1.563,2.176,1.563,2.176    c1.691,0.175,4.158,0.494,6.929,0.918V234.945L281.526,234.945z M281.526,0h-8.492v16.667c3.214,0.469,6.072,1.23,8.492,2.225V0    L281.526,0z M281.526,44.388v1.957c-0.352-0.465-0.724-0.886-1.123-1.24C280.802,44.867,281.175,44.625,281.526,44.388    L281.526,44.388z M281.526,65.67v32.827h-8.492V75.309C276.419,72.846,279.348,69.692,281.526,65.67L281.526,65.67z     M281.526,108.894v44.76c-2.569-1.274-5.456-2.485-8.492-3.532v-26.797c0.685-2.64,1.606-5.005,2.815-6.724    c-0.767-1.162-1.711-2.396-2.815-3.668v-12.171c3.456,2.842,6.165,5.4,7.784,7.301c0.178,0.202,0.38,0.419,0.53,0.61l0,0    L281.526,108.894L281.526,108.894z M281.526,265.43v16.392c-2.861-0.44-5.696-0.781-8.492-0.998v-16.137    C275.831,264.849,278.665,265.101,281.526,265.43L281.526,265.43z M281.526,296.8v18.129c-1.959-2.113-3.913-4.266-5.897-6.365    c-0.854,0.04-1.715,0.09-2.594,0.175v-24.663C275.02,288.51,277.894,292.712,281.526,296.8L281.526,296.8z M281.526,333.334    v10.562c-2.88,1.339-5.72,2.871-8.492,4.566v-11.981C275.85,335.39,278.716,334.357,281.526,333.334L281.526,333.334z     M281.526,379.628v58.792c-1.138-1.026-2.312-2.075-3.517-3.174c-0.685-0.644-1.409-1.3-2.111-1.961l-2.864-2.628v-55.441    c2.048,2.107,4.073,4.132,6.072,5.994l0,0C279.897,380.667,280.712,380.145,281.526,379.628z M257.881,454.375    c5.363,4.996,10.421,9.544,15.153,13.699v-24.381c-4.711-4.263-9.771-9.002-15.153-14.228V454.375L257.881,454.375z M273.035,0    h-15.153v16.062h6.394c3.131,0,6.072,0.214,8.759,0.605V0L273.035,0z M273.035,75.309v23.188h-2.817    c0.995,0.782,1.936,1.529,2.817,2.265v12.171c-3.676-4.269-9.02-8.986-15.153-13.167V81.841    C263.312,80.598,268.597,78.553,273.035,75.309L273.035,75.309z M273.035,123.324c-1.146,4.492-1.582,9.809-1.582,14.211    c-2.667-4.024-3.26-15.356,1.298-20.769c-2.993-3.431-8.515-8.566-14.87-13.31v20.923c2.066,0.945,3.671,2.049,4.174,3.265    c0.027,2.196,0.378,4.677,0.05,6.55c-1.55-0.593-2.866-0.992-4.224-1.372v13.943c5.102,0.454,10.335,1.695,15.153,3.355V123.324    L273.035,123.324z M273.035,191.43v61.15c-3.237-4.602-10.495-15.246-11.636-20.182c-1.496-6.394,6.096-32.937,8.226-41.964    v-0.012C270.727,190.814,271.873,191.154,273.035,191.43L273.035,191.43z M273.035,264.687c-1.782-0.095-3.517-0.157-5.193-0.169    c-2.201-2.721-5.897-7.361-9.96-12.532v31.973c3.873,4.735,6.467,10.942,10.245,16.346c-3.389,0.039-6.838,0.395-10.245,0.933    v9.846c4.996-1.194,10.072-1.961,15.153-2.344v-24.663c-0.481-1.102-0.905-2.227-1.276-3.355l1.276,0.103V264.687L273.035,264.687    z M273.035,336.481v11.981c-4.908,3.008-9.612,6.585-14.099,10.724c4.399,5.4,9.281,10.99,14.099,16.029v55.441    c-3.762-3.518-7.724-7.325-11.877-11.396c-0.728-0.72-1.479-1.432-2.221-2.166l-1.055-1.072v-72.358    C262.675,340.782,267.825,338.516,273.035,336.481z M242.855,439.986c5.209,5.138,10.226,9.929,15.026,14.39v-24.909    c-4.777-4.62-9.816-9.63-15.026-15.026V439.986L242.855,439.986z M257.881,0h-15.026v32.264l5.604-16.202l0,0h9.422V0L257.881,0z     M257.881,81.841v17.924c-4.69-3.213-9.837-6.111-15.026-8.274v-8.02C247.666,83.422,252.836,82.981,257.881,81.841    L257.881,81.841z M257.881,103.457c-4.777-3.566-10.038-6.897-15.026-9.107v1.869c5.734,4.986,11.483,10.473,13.044,13.9    c-4.335-1.827-11.603-1.771-12.832-0.502c5.788,1.956,10.147,4.791,12.63,7.594c-3.628,0.042-6.467,1.741-9.435,3.979    c2.196,0.252,7.697,1.419,11.619,3.19V103.457L257.881,103.457z M257.881,132.823v13.943c-3.524-0.306-6.96-0.237-10.185,0.331    c-1.565,0.916-3.309,2.316-4.841,3.883v-27.02c4.66,1.238,10.954,3.48,11.94,7.996    C255.899,132.27,256.883,132.539,257.881,132.823L257.881,132.823z M257.881,251.985v31.973c-1.172-1.436-2.44-2.732-3.895-3.832    c-2.664-0.77-6.669-1.035-11.131-0.807v-9.137c2.963,0.103,5.979,0.549,9.036,1.418c-1.517-3.606-3.103-8.701-7.174-13.214    c-0.61-0.162-1.23-0.316-1.862-0.458v-25.031C247.072,238.256,252.773,245.53,257.881,251.985L257.881,251.985z M257.881,301.237    v9.846c-5.18,1.232-10.215,2.922-15.026,5.124V304.82C247.4,303.415,252.576,302.085,257.881,301.237L257.881,301.237z     M257.881,343.664v72.358c-1.239-1.218-2.491-2.482-3.746-3.75c-0.81-0.816-1.604-1.645-2.446-2.487    c-1.673-1.724-3.361-3.45-5.076-5.254c-0.555-0.576-1.102-1.17-1.671-1.738l-2.087-2.222v-61.904    c2.656,3.383,5.432,6.669,8.048,9.878l0,0C253.104,346.724,255.458,345.118,257.881,343.664L257.881,343.664z M242.855,222.22    v-26.334c2.857,3.474,5.933,6.289,8.467,8.27c-1.127,0.506-3.035,1.448-6.23,0.736c-1.536,4.328-2.106,10.774-0.945,16.135    C243.796,221.437,243.352,221.848,242.855,222.22z M234.929,432.066c2.689,2.721,5.322,5.365,7.927,7.919V414.44    c-2.604-2.661-5.238-5.439-7.927-8.286V432.066L234.929,432.066z M242.855,0h-7.927v55.109l7.927-22.845V0L242.855,0z     M242.855,83.471v8.02c-2.645-1.114-5.311-2.023-7.927-2.695v-5.302h6.802L242.855,83.471L242.855,83.471z M242.855,94.35v1.869    c-1.369-1.173-2.732-2.334-4.048-3.414l0,0C240.124,93.219,241.464,93.745,242.855,94.35L242.855,94.35z M242.855,123.961v27.02    c-1.215,1.229-2.314,2.564-3.084,3.818c-2.087,3.463-3.68,7.009-4.843,10.788v-58.466c3.459,3.587,6.711,8.457,7.325,10.641    c0.795,2.796-1.534,3.096-4.505,4.836C238.075,122.875,240.19,123.262,242.855,123.961L242.855,123.961z M242.855,195.886v26.334    c-1.744,1.299-4.226,2.312-6.167,2.823l6.167,7.854v25.031c-2.444-0.542-5.156-0.905-7.927-1.104v-9.015    c0.439,0.098,0.811,0.2,1.146,0.307l-1.146-1.114v-65.508C236.583,187.019,239.57,191.89,242.855,195.886L242.855,195.886z     M242.855,270.183v9.137c-2.538,0.147-5.221,0.432-7.927,0.895v-9.582C237.545,270.248,240.166,270.071,242.855,270.183    L242.855,270.183z M242.855,304.82v11.386c-2.718,1.235-5.349,2.628-7.927,4.205v-12.885    C237.242,306.663,239.921,305.719,242.855,304.82L242.855,304.82z M242.855,338.667v61.904c-2.604-2.762-5.238-5.603-7.927-8.539    v-64.79C237.174,331.18,239.949,334.975,242.855,338.667L242.855,338.667z M234.929,104.288c1.654-0.301,2.97-0.854,3.717-1.514    c0.311-2.683-1.381-5.829-3.717-8.837V104.288z M231.827,428.885c1.038,1.075,2.07,2.122,3.102,3.181v-25.912    c-1.031-1.095-2.063-2.213-3.102-3.343V428.885L231.827,428.885z M234.929,0h-3.102v64.129l3.102-9.02V0L234.929,0z     M234.929,83.495v5.302c-1.031-0.28-2.063-0.5-3.102-0.688v-4.613H234.929L234.929,83.495z M234.929,93.936v10.352    c-0.86,0.159-1.821,0.24-2.857,0.229c0.945,0.7,1.917,1.604,2.857,2.604v58.466c-0.419,1.403-0.791,2.826-1.104,4.305    c-0.434,4.099,0.052,7.997,1.104,11.602v65.508c-0.94-0.909-2.004-1.92-3.102-3.024V135.381l1.28,0.448v-0.012    c0,0-0.487-0.969-1.28-2.626V90.309C232.905,91.468,233.988,92.69,234.929,93.936L234.929,93.936z M234.929,247.809v9.015    c-1.031-0.058-2.063-0.109-3.102-0.149v-9.318C233.017,247.472,234.052,247.617,234.929,247.809L234.929,247.809z     M234.929,270.632v9.582c-1.031,0.178-2.063,0.384-3.102,0.613v-9.646C232.865,270.973,233.897,270.77,234.929,270.632    L234.929,270.632z M234.929,307.526v12.885c-0.86,0.526-1.712,1.08-2.549,1.648c0.728,1.747,1.608,3.48,2.549,5.182v64.79    l-1.252-1.383c-0.53-0.59-1.057-1.154-1.605-1.751l-0.245-0.281v-79.877C232.751,308.352,233.811,307.957,234.929,307.526z     M225.07,421.878c2.293,2.397,4.535,4.732,6.757,7.007v-26.074c-2.222-2.391-4.463-4.847-6.757-7.364V421.878L225.07,421.878z     M231.827,0h-6.757v117.242c2.266,6.249,5.126,12.534,6.757,15.949V90.309c-0.859-0.909-1.716-1.778-2.547-2.581    c0.831,0.083,1.688,0.218,2.547,0.38v-4.613h-6.705l6.705-19.366V0L231.827,0z M231.827,135.381v108.596    c-2.087-2.036-4.401-4.399-6.757-7.094v-52.75c0.53-1.292,0.991-2.604,1.321-3.913c-0.437-0.376-0.877-0.729-1.321-1.047v-31.975    c2.09-3.394,3.415-5.899,3.415-5.899c-0.506-0.423-1.873-1.076-3.415-1.625v-6.317    C227.319,133.915,229.561,134.606,231.827,135.381L231.827,135.381z M231.827,247.356v9.318c-2.291-0.047-4.57,0-6.757,0.169    v-9.818C227.536,247.061,229.85,247.168,231.827,247.356L231.827,247.356z M231.827,271.181v9.646    c-2.307,0.506-4.594,1.146-6.757,1.909v-9.766C227.319,272.261,229.537,271.657,231.827,271.181L231.827,271.181z     M231.827,308.739v79.877c-1.716-1.918-3.479-3.889-5.215-5.866l-1.542-1.743v-72.66c0.9,1.655,1.479,2.645,1.479,2.645l0,0    C226.549,310.992,228.525,310.06,231.827,308.739z M211.5,407.192c4.625,5.119,9.155,10.017,13.57,14.686v-26.431    c-3.755-4.186-7.609-8.547-11.498-13.084l-2.072-2.419V407.192L211.5,407.192z M225.07,0H211.5v22.667    c0.467,0.479,0.882,0.973,1.253,1.49c2.008,2.807,2.4,6.226,1.146,9.871c-0.571,1.644-1.365,3.211-2.4,4.65v59.82h10.097    c-0.087,3.048,0.11,6.071,0.599,8.766c0.04,0.266,0.131,0.53,0.17,0.799c0.597,2.795,1.567,5.993,2.704,9.179V0L225.07,0z     M225.07,133.357v6.317c-1.137-0.411-2.376-0.75-3.388-0.852l0,0c1.036,2.74,3.087,5.46,3.348,8.461l0.04-0.086v31.975    c-2.809-2.124-5.562-3.136-9-4.31c-1.448,0.681-2.981,1.416-4.57,2.214v-10.349c1.451-2.063,3.72-5.475,4.75-7.944    c-1.319-0.345-3.036-0.479-4.75-0.504v-15.949c0.395,0.086,0.793,0.181,1.166,0.278c-0.221-1.025-0.645-2.058-1.166-3.093v-8.004    C215.659,131.463,220.318,132.148,225.07,133.357L225.07,133.357z M225.07,184.133v52.75c-2.151-2.511-4.328-5.303-6.353-8.393    c-1.541,4.048-4.375,16.432-5.698,18.646l0,0c3.695-0.098,8.056-0.19,12.051-0.11v9.818c-5.98,0.443-11.17,1.697-13.33,3.638    c0.135,5.632,0.337,11.542,2.468,16.551l0,0c3.561-1.483,7.194-2.901,10.862-4.063v9.766c-3.036,1.083-5.847,2.417-8.072,4.025    c1.095,7.759,5.696,17.108,8.072,21.586v72.66l-1.187-1.375c-1.821-2.087-3.647-4.207-5.494-6.377    c-0.885-1.044-1.783-2.127-2.688-3.179c-1.384-1.66-2.794-3.348-4.202-5.06V197.842l10.843-6.649    C222.935,188.963,224.109,186.575,225.07,184.133z M191.193,383.865c6.902,8.234,13.682,16.014,20.307,23.327v-27.248    c-6.506-7.626-13.31-15.928-20.307-24.916V383.865L191.193,383.865z M211.5,0h-20.307v16.124    c9.278,0.396,16.476,2.711,20.307,6.543V0L211.5,0z M211.5,38.677v59.82h-20.307V78.716c7.215-3.355,13.309-8.866,16.361-17.686    c2.538-7.314-0.171-13.081-3.163-15.926C207.384,43.262,209.757,41.119,211.5,38.677L211.5,38.677z M211.5,131.512v8.004    c-1.448-2.754-3.831-5.411-6.4-7.222C207.032,131.8,209.188,131.539,211.5,131.512L211.5,131.512z M211.5,142.331v15.949    c-3.343-0.039-6.646,0.313-6.646,0.313s-7.59,4.288-13.661,7.785v-11.912c4.203-1.834,8.376-3.791,12.716-4.98    c-3.853-1.375-8.272-1.885-12.716-1.904v-6.961C198.961,140.551,206.436,141.188,211.5,142.331L211.5,142.331z M211.5,166.729    v10.349c-4.862,2.415-10.096,5.3-14.216,8.246l0,0c-0.66,4.708-0.77,8.906-0.684,13.437c2.753,0.921,4.973,3.008,7.856,3.395    l7.044-4.313v167.175c-4.843-5.842-9.725-11.954-14.658-18.319c-0.988-1.287-2-2.553-2.965-3.846l-2.684-3.526V209.948    c2.044-1.54,3.938-2.768,5.321-3.39l-5.321-0.161v-26.591c5.34-4.181,13.028-8.032,18.986-11.255    C210.18,168.55,210.712,167.832,211.5,166.729z M182.457,373.315c2.946,3.604,5.854,7.099,8.736,10.55v-28.837    c-2.882-3.684-5.791-7.495-8.736-11.405V373.315L182.457,373.315z M191.193,0h-8.736v16.062h5.791l0,0    c1.012,0,1.973,0.024,2.946,0.062V0L191.193,0z M191.193,78.716v19.781h-8.736V81.7C185.47,80.969,188.418,80.003,191.193,78.716    L191.193,78.716z M191.193,140.62v6.961c-2.946-0.008-5.917,0.209-8.736,0.518v-7.115    C185.343,140.757,188.288,140.636,191.193,140.62L191.193,140.62z M191.193,154.466v11.912c-1.692,0.971-3.257,1.878-4.51,2.624    c-1.826,3.649-2.996,7.432-3.783,11.48h7.435l0,0c0.289-0.231,0.571-0.447,0.858-0.676v26.591l-0.921-0.027    c-1.526,0.734-4.981,3.643-7.815,6.138v-9.223c1.189-0.856,2.376-1.679,3.589-2.43c0.396-0.909,0.609-9.839,1.163-13.053    c-1.499-0.142-3.211-0.036-4.752,0.138v-36.521c1.472,1.695,2.467,3.747,3.187,5.288    C187.517,156.039,189.368,155.269,191.193,154.466L191.193,154.466z M191.193,209.948c-2.839,2.106-6.032,4.805-8.736,7.259    v110.317l2.616,3.578c1.101,1.48,2.179,2.959,3.253,4.419c0.949,1.28,1.917,2.554,2.867,3.806V209.948z M166.001,352.332    c5.522,7.262,11.024,14.278,16.456,20.983v-29.691c-5.411-7.242-10.914-14.855-16.456-22.852V352.332L166.001,352.332z M182.457,0    h-16.456v34.68l6.447-18.618h10.009V0L182.457,0z M182.457,81.7v16.797h-16.456V83.495    C171.234,83.471,176.955,83.023,182.457,81.7L182.457,81.7z M182.457,140.983v7.115c-1.364,0.146-2.707,0.335-3.977,0.525l0,0    c1.622,0.539,2.925,1.585,3.977,2.796v36.521c-2.09,0.242-3.759,0.608-3.759,0.608s-7.355,7.376-12.697,13.497v-14.266    c1.589-0.58,2.844-1.13,2.844-1.13l7.581-6.626c0,0,0.948-4.554,1.525-6.451l0,0c-2.202,1.973-8.23,8.044-11.95,12.223v-16.852    l0.834,0.569l0,0c2.096-1.952,4.843-4.704,6.664-6.518c-2.726-0.064-5.138-0.032-7.498,0.095v-7.452    c2.968-0.221,5.677-0.104,7.769,0.418c-2.047-3.245-4.888-5.379-7.769-7.652v-4.395    C170.491,142.441,176.319,141.465,182.457,140.983L182.457,140.983z M182.457,203.285v9.223c-2.375,2.094-4.328,3.917-4.328,3.917    l0,0c0,0-0.554,3.036-0.38,5.301c1.142-1.203,2.818-2.808,4.708-4.52v110.317c-0.973-1.329-1.936-2.668-2.901-4.036    c-0.995-1.388-2.008-2.823-2.992-4.233c-3.416-4.835-6.823-9.816-10.21-14.904l-0.352-0.521v-71.04    c1.696-2.277,3.562-4.561,5.701-6.887c-1.628-0.406-3.652-0.587-5.701-0.583v-8.235l1.496-0.165l0,0    C172.007,212.287,176.979,207.298,182.457,203.285z M151.695,333.014c4.779,6.654,9.551,13.088,14.306,19.318v-31.56    c-4.755-6.856-9.527-13.979-14.306-21.382V333.014L151.695,333.014z M166.001,0h-14.306v16.062h1.728l0,0l-1.728,14.024v45.935    l14.306-41.341V0L166.001,0z M166.001,83.495v15.002h-14.306V83.495h14.017H166.001L166.001,83.495z M166.001,144.008v4.395    c-1.166-0.925-2.352-1.867-3.469-2.925C163.558,144.943,164.724,144.454,166.001,144.008L166.001,144.008z M166.001,155.637v7.452    c-2.482,0.145-4.886,0.415-7.519,0.805l7.519,5.048v16.852c-0.949,1.083-1.744,2.025-2.269,2.754    c0.752-0.229,1.538-0.508,2.269-0.77v14.266c-1.671,1.9-3.122,3.673-4.134,5.083l-0.243,10.441l4.377-0.484v8.235    c-1.913,0.023-3.851,0.224-5.494,0.583c-2.819,4.618-6.142,9.801-8.812,14.973v-17.977c1.431-2.157,2.554-3.628,2.554-3.628    s0.292-4.312-0.194-6.4l0,0c-0.905,1.206-1.675,2.483-2.359,3.784v-28.779l0.514,0.175l4.305-6.904    c-1.692,0.371-3.276,1.152-4.819,2.066v-8.404c1.348-0.66,2.739-1.265,4.187-1.771c-1.08-1.588-2.531-2.973-4.187-4.146v-9.947    C156.272,157.123,161.448,155.964,166.001,155.637L166.001,155.637z M166.001,232.79v71.04c-0.987-1.462-1.984-2.929-2.95-4.419    c-1.711-2.599-3.429-5.258-5.12-7.922c-1.255-1.966-2.514-3.934-3.769-5.931c-0.832-1.308-1.644-2.632-2.466-3.948v-21.875    C155.286,250.571,159.182,241.854,166.001,232.79z M143.56,321.53c2.707,3.919,5.435,7.726,8.135,11.484V299.39    c-2.7-4.217-5.428-8.508-8.135-12.899V321.53L143.56,321.53z M151.695,0h-8.135v16.062h8.135V0L151.695,0z M151.695,30.086v45.935    l-2.591,7.474h2.591v15.002h-8.135V83.495h1.542L151.695,30.086L151.695,30.086z M151.695,158.944v9.947    c-2.391-1.695-5.229-2.962-8.135-3.756v-1.592C145.733,161.727,148.597,160.174,151.695,158.944L151.695,158.944z     M151.695,174.808v8.404c-1.646,0.969-3.227,2.083-4.834,3.016l0,0l4.834,1.648v28.779c-2.925,5.565-4.217,11.835-6.135,17.769    c1.104-3.602,3.984-8.31,6.135-11.524v17.977c-1.181,2.263-2.242,4.533-3.075,6.781l0,0c-0.375,4.297,0.882,9.527,2.481,13.571    l0.594-1.494v21.875c-0.834-1.364-1.687-2.742-2.521-4.116c-1.301-2.123-2.577-4.288-3.878-6.451l-1.736-2.93v-58.25    c0.771-2.035,3.147-6.363,3.628-7.768l0,0c-0.525,0.586-2.087,1.997-3.628,3.416v-9.803c0.281-0.167,0.552-0.333,0.834-0.468    c-0.266-0.204-0.553-0.403-0.834-0.591v-14.563C146.043,178.073,148.73,176.268,151.695,174.808z M101.491,255.093    c13.798,23.998,27.941,46.151,42.069,66.437v-35.039c-14.456-23.393-28.755-49.345-42.069-77.771V255.093L101.491,255.093z     M143.56,0h-42.069v16.062h9.749l-9.749,28.129v22.168l28.601-50.297h13.468V0L143.56,0z M143.56,83.495v15.002h-42.069V83.495    h9.773l5.653-10.55h10.489l-1.644,10.55H143.56L143.56,83.495z M143.56,163.543v1.592c-0.459-0.106-0.945-0.229-1.407-0.328    C142.587,164.385,143.055,163.954,143.56,163.543L143.56,163.543z M143.56,180.086v14.563c-3.012-1.989-7.122-3.241-11.17-3.713    C135.883,187.198,139.473,183.383,143.56,180.086L143.56,180.086z M143.56,195.708v9.803c-1.632,1.507-3.238,3.037-3.629,3.708    l3.412,1.272c0.041-0.166,0.126-0.368,0.218-0.629v58.25c-1.035-1.738-2.064-3.479-3.104-5.238    c-2.548-4.407-5.082-8.896-7.584-13.444v-0.006c0.68-4.156,1.34-8.283,2.111-12.531c-1.961-0.783-4.158-1.519-7.576-1.178    c2.732-7.05,6.409-13.318,10.717-19.192c-3.035-1.341-7.299-1.626-11.375-1.17C129.567,208.369,136.935,199.53,143.56,195.708z     M76.609,208.823c8.096,16.14,16.434,31.56,24.882,46.27v-46.373c-8.821-18.808-17.178-38.696-24.882-59.666V208.823    L76.609,208.823z M101.491,0H76.609v16.062h3.984l-3.984,11.526v27.358l13.443-38.885h11.439V0L101.491,0z M101.491,44.19v22.168    l-9.742,17.136h9.742v15.002H76.609V81.242c7.925-3.02,15.048-8.649,17.999-17.163L101.491,44.19z M0,0    c19.65,79.827,46.645,149.205,76.609,208.823v-59.768c-4.546-12.357-8.867-25.083-12.913-38.186L59.92,98.497h16.689V81.242    c-4.772,1.798-9.808,2.685-14.432,2.685c-8.16,0-14.713-2.621-17.951-7.176l0,0c-2.554-3.578-2.948-8.217-1.141-13.428    l16.359-47.261h17.165V0H0L0,0z M76.609,27.588v27.358l-3.566,10.321c-1.144,3.266-4.312,5.823-7.213,5.823    c-0.745,0-1.785-0.181-2.4-1.063c-0.661-0.9-0.7-2.359-0.126-4.015L76.609,27.588z"/>
	</g>
</g>
</svg>