<?xml version="1.0" encoding="UTF-8" standalone="no"?>
<!-- Created with Inkscape (http://www.inkscape.org/) -->

<svg
   xmlns:dc="http://purl.org/dc/elements/1.1/"
   xmlns:cc="http://creativecommons.org/ns#"
   xmlns:rdf="http://www.w3.org/1999/02/22-rdf-syntax-ns#"
   xmlns:svg="http://www.w3.org/2000/svg"
   xmlns="http://www.w3.org/2000/svg"
   version="1.1"
   width="280"
   height="200"
   viewBox="0 0 279.99999 200"
   id="Layer_1"
   xml:space="preserve"><metadata
     id="metadata4044"><rdf:RDF><cc:Work
         rdf:about=""><dc:format>image/svg+xml</dc:format><dc:type
           rdf:resource="http://purl.org/dc/dcmitype/StillImage" /><dc:title></dc:title></cc:Work></rdf:RDF></metadata><defs
     id="defs4042" /><g
     transform="matrix(0.4,0,0,0.4,13.999989,0)"
     id="g3864"><g
       id="g3866"><path
         d="m 316.728,198.55 c -4.729,9.91 -11.203,14.231 -14.428,15.864 -0.356,-5.194 -4.34,-11.455 -10.389,-14.152 15.8,-1.023 40.921,-6.759 49.088,-8.112 8.188,-1.348 52.908,-10.81 59.405,-11.468 3.008,-0.308 9.326,-0.9 8.969,3.004 -0.684,7.33 -6.553,22.497 -12.166,26.276 0.682,-7.195 -1.054,-16.073 -6.073,-21.956 -3.671,8.879 -11.263,17.417 -15.931,20.817 -0.261,-8.514 -1.973,-12.961 -7.788,-18.034 -2.685,7.018 -9.067,14.354 -14.65,16.215 0.506,-2.885 -4.442,-10.451 -7.984,-13.032 -4.539,11.452 -10.033,17.531 -14.768,19.305 -0.771,-5.58 -5.493,-11.268 -13.285,-14.727 z"
         id="path3868"
         style="fill:#ffffff" /><path
         d="m 487.915,227.973 c -3.803,-4.942 -6.882,-15.489 -5.253,-21.465 -2.819,1.224 -6.159,4.075 -8.144,6.211 -1.031,-3.036 -2.722,-7.638 -5.06,-9.963 -1.32,1.957 -4.265,5.073 -6.313,5.892 -1.605,-2.203 -3.103,-5.769 -4.198,-8.484 -1.345,1.878 -3.696,4.211 -6.273,5.677 -2.404,-2.697 -5.961,-9.49 -6.471,-14.051 -6.684,3.745 -16.173,22.522 -18.986,29.606 -6.625,-7.897 -7.123,-20.287 -4.361,-30.675 0.974,-2.206 3.31,-5.42 7.599,-6.527 4.289,-1.11 10.578,1.36 13.666,3.254 6.288,3.882 15.569,8.658 20.278,10.409 4.712,1.759 16.214,5.455 24.267,7.621 3.72,3.563 2.317,15.909 -0.751,22.495 z"
         id="path3870"
         style="fill:#ffffff" /><path
         d="m 448.535,326.472 c -3.431,-0.1 -7.695,-2.593 -10.625,-4.361 -5.633,3.95 -12.033,3.139 -15.054,0.823 -4.154,2.918 -13.506,0.655 -15.53,-1.174 1.807,-4.059 12.104,-10.615 14.547,-12.132 0.197,3.969 2.27,8.689 3.605,9.309 3.344,0.53 9.481,-4.039 12.65,-7.316 1.301,1.747 2.513,3.949 2.662,6.064 3.59,0.832 9.943,-2.851 11.6,-5.362 4.482,0.543 8.932,3.689 10.625,5.579 -3.474,4.079 -9.328,8.729 -14.48,8.57 z"
         id="path3872"
         style="fill:#ffffff" /><path
         d="m 399.824,312.612 c -1.735,1.266 -4.156,1.052 -6.353,0.617 -6.273,-1.518 -6.602,-4.554 -13.093,-12.457 -6.485,-7.897 -28.398,-28.018 -47.166,-37.153 -8.848,-4.52 -22.555,-8.838 -22.555,-8.838 6.118,-1.143 13.462,-6.567 15.509,-11.398 3.06,4.511 2.112,13.314 1.476,16.569 4.155,1.88 7.213,0.912 10.539,-0.57 3.806,-1.695 8.269,-9.769 8.269,-9.769 3.329,4.002 3.613,14.452 1.102,19.133 6.642,3.087 15.841,-1.253 18.504,-3.699 2.901,4.112 1.051,15.254 -0.399,17.773 5.941,2.078 15.073,-1.108 18.303,-4.1 1.617,6.04 0.924,13.637 -2.704,18.967 0.071,1.185 2.312,1.861 2.312,1.861 6.795,1.577 16.59,-6.694 22.88,-14.567 2.701,9.59 -0.281,20.601 -6.624,27.631 z"
         id="path3874"
         style="fill:#ffffff" /><path
         d="m 306.039,253.579 c -5.764,-1.793 -11.968,-3.075 -17.756,-4.266 4.383,-0.82 13.113,-6.094 15.444,-10.273 3.055,3.735 5.877,10.521 2.312,14.539 z"
         id="path3876"
         style="fill:#ffffff" /><path
         d="M 91.681,18.338 75.177,66.011 c -1.441,4.19 -5.475,7.353 -9.347,7.353 -1.809,0 -3.35,-0.72 -4.25,-2.013 -1.092,-1.534 -1.255,-3.696 -0.432,-6.084 L 77.38,18.338 H 61.059 c -2.071,5.938 -15.845,45.74 -15.845,45.74 -1.557,4.529 -1.275,8.36 0.859,11.347 2.794,3.95 8.692,6.208 16.104,6.208 11.531,0 25.943,-5.724 30.295,-18.311 l 15.56,-44.984 H 91.681 z"
         id="path3878"
         style="fill:#ffffff" /><path
         d="m 131.417,18.338 -2.885,5.048 v 22.417 l 8.668,-16.586 -5.985,33.177 0,0 h -2.684 v 8.274 h 1.542 l -1.542,9.751 V 81.21 H 143.1 l 7.745,-62.871 h -19.428 z m -2.885,5.048 -32.846,57.823 h 14.211 l 5.68,-10.542 h 12.955 v -8.274 h -8.642 l 8.642,-16.59 V 23.386 l 0,0 z m 0,57.032 v 0.791 h -0.111 l 0.111,-0.791 z"
         id="path3880"
         style="fill:#ffffff" /><path
         d="m 189.259,77.084 c 7.148,-3.1 13.195,-8.297 16.146,-16.798 2.771,-8.044 -1.673,-13.104 -3.63,-14.36 l -1.585,-1.049 1.673,-0.909 c 5.06,-2.775 8.381,-6.375 9.877,-10.691 1.013,-2.946 0.748,-5.578 -0.837,-7.804 -3.147,-4.4 -11.003,-6.985 -21.644,-7.135 v 8.337 c 3.404,0.3 4.971,1.47 5.693,2.481 0.93,1.285 1.079,2.996 0.458,4.791 l 0,0 c -0.902,2.63 -2.655,4.741 -6.151,5.843 v 37.294 z m -1.011,-58.746 h -7.925 V 49.27 l 4.931,-0.343 0.351,0.229 c 1.782,1.146 4.95,5.735 2.813,11.875 l 0,0 c -1.695,4.908 -3.913,8.458 -8.095,10.349 v 8.459 c 3.055,-0.632 6.072,-1.526 8.937,-2.754 V 39.791 c -1.743,0.53 -3.896,0.822 -6.561,0.822 l 4.841,-14.002 c 0.617,0 1.19,0.025 1.719,0.065 v -8.337 h -1.011 z m -7.925,0 h -6.242 l -21.79,62.871 h 13.421 c 4.641,0 9.679,-0.348 14.611,-1.371 v -8.459 c -2.285,1.023 -5.124,1.565 -8.799,1.565 l 8.158,-23.626 0.641,-0.049 V 18.338 z"
         id="path3882"
         style="fill:#ffffff" /><path
         d="m 277.782,45.926 -1.581,-1.049 1.673,-0.909 c 5.06,-2.775 8.383,-6.375 9.878,-10.691 1.036,-2.946 0.747,-5.578 -0.835,-7.804 -3.125,-4.4 -10.997,-6.985 -21.669,-7.135 v 8.337 c 3.427,0.3 4.992,1.47 5.698,2.481 0.942,1.285 1.101,2.996 0.484,4.791 l 0,0 c -0.921,2.63 -2.664,4.741 -6.182,5.843 v 37.293 c 7.17,-3.1 13.217,-8.297 16.167,-16.798 2.777,-8.043 -1.67,-13.102 -3.633,-14.359 z M 265.249,18.338 h -0.974 -7.937 V 49.27 l 4.926,-0.343 0.375,0.229 c 1.759,1.146 4.905,5.735 2.795,11.875 l 0,0 c -1.693,4.908 -3.917,8.458 -8.096,10.349 v 8.459 c 3.059,-0.632 6.071,-1.526 8.911,-2.754 V 39.791 c -1.712,0.53 -3.875,0.822 -6.531,0.822 l 4.836,-14.002 c 0.615,0 1.184,0.025 1.695,0.065 v -8.338 z m -8.911,0 h -6.27 l -21.737,62.871 h 13.4 c 4.641,0 9.678,-0.348 14.607,-1.371 v -8.459 c -2.289,1.023 -5.132,1.565 -8.803,1.565 l 8.163,-23.626 0.641,-0.049 V 18.338 z"
         id="path3884"
         style="fill:#ffffff" /><polygon
         points="321.547,81.209 324.404,72.944 305.283,72.944 324.168,18.338 307.846,18.338 286.058,81.209 "
         id="polygon3886"
         style="fill:#ffffff" /><path
         d="m 361.923,18.338 -2.86,5.059 v 22.406 l 8.644,-16.586 -5.985,33.177 0,0 h -2.658 v 8.274 h 1.512 l -1.512,9.744 V 81.21 H 373.6 l 7.769,-62.871 h -19.446 z m -2.861,5.059 -32.896,57.812 h 14.263 l 5.629,-10.542 h 13.004 v -8.274 h -8.674 l 8.674,-16.59 V 23.397 l 0,0 z m 0,57.014 v 0.798 h -0.136 l 0.136,-0.798 z"
         id="path3888"
         style="fill:#ffffff" /><polygon
         points="420.047,81.209 422.908,72.944 402.689,72.944 440.84,18.338 402.444,18.338 399.583,26.611 417.407,26.611 379.28,81.209 "
         id="polygon3890"
         style="fill:#ffffff" /><polygon
         points="488.428,26.611 491.278,18.338 454.592,18.338 442.637,52.856 437.645,52.856 434.767,61.128 439.765,61.128 432.806,81.209 469.546,81.209 472.404,72.944 452.039,72.944 456.125,61.128 472.628,61.128 475.489,52.856 458.991,52.856 468.056,26.611 "
         id="polygon3892"
         style="fill:#ffffff" /><path
         d="m 520.764,58.562 -1.119,-1.216 1.518,-0.617 c 3.47,-1.351 15.068,-6.802 19.513,-19.645 1.515,-4.389 1.232,-8.109 -0.856,-11.044 -3.5,-4.895 -12.166,-7.701 -23.811,-7.701 h -0.242 v 8.447 c 3.44,0.04 6.609,1.031 7.95,2.925 1.399,1.985 1.537,4.741 0.324,8.194 -1.688,4.961 -4.834,8.701 -8.274,11.125 v 32.18 h 9.271 c 1.273,-3.845 2.327,-8.289 1.228,-12.776 -1.093,-4.68 -4.224,-8.462 -5.502,-9.872 z M 515.767,18.338 H 502.061 L 480.31,81.209 h 16.342 l 6.313,-18.234 c 2.621,1.751 5.15,5.301 6.162,9.226 0.665,2.744 0.462,5.601 -0.504,9.008 h 7.145 v -32.18 c -3.037,2.134 -6.313,3.232 -9.084,3.232 l 0,0 8.803,-25.487 0.281,0.012 v -8.448 z"
         id="path3894"
         style="fill:#ffffff" /><path
         d="m 575.569,26.014 c 2.18,0 3.607,0.218 5.058,0.571 l 7.972,-7.438 c -2.58,-0.758 -6.057,-1.229 -9.446,-1.229 -14.384,0 -25.824,6.178 -29.144,15.776 -1.899,5.463 -0.534,9.87 5.209,16.875 4.795,5.74 8.016,10.258 5.985,16.204 -1.317,3.782 -6.024,6.422 -11.416,6.422 -2.998,0 -5.792,-0.469 -7.855,-1.264 l -8.409,7.854 c 3.349,1.253 7.397,1.847 12.547,1.847 15.748,0 28.295,-6.787 31.94,-17.298 2.25,-6.483 0.973,-10.955 -5.193,-18.386 -4.686,-5.7 -8.048,-9.815 -6.333,-14.78 1.033,-3.034 4.774,-5.154 9.085,-5.154 z"
         id="path3896"
         style="fill:#ffffff" /><path
         d="m 341.062,148.26 c 7.348,-6.124 -5.257,-8.919 -5.257,-8.919 8.052,2.579 5.257,8.919 5.257,8.919 z"
         id="path3898"
         style="fill:#ffffff" /></g><g
       id="g3900"><path
         d="m 612.267,295.425 c 1.652,-0.546 3.279,-0.957 4.884,-1.242 7.438,-4.494 15.597,-19.775 4.379,-34.486 1.542,7.58 2.509,21.936 -9.263,35.728 z"
         id="path3902"
         style="fill:#f3d687" /><path
         d="m 444.907,260.987 c 5.195,5.629 8.23,11.661 9.573,16.005 5.038,-5.209 5.779,-13.927 4.107,-17.305 6.804,2.046 32.963,18.949 37.711,22.899 4.752,3.956 16.351,13.937 22.046,16.923 4.819,2.526 13.425,4.361 19.096,2.617 -15.685,-6.447 -24.065,-12.006 -30.492,-18.536 1.3,-0.285 2.419,-0.427 3.695,-1.415 -9.68,-5.537 -19.623,-14.238 -27.365,-18.429 -7.749,-4.202 -26.733,-16.56 -42.502,-19.178 -1.215,-1.05 -0.162,-2.683 0.014,-3.904 -4.778,0.316 -10.359,0.805 -15.466,-0.522 -13.286,-0.783 -24.2,-4.948 -30.272,-6.084 -5.677,-1.071 -18.263,-2.957 -35.467,-2.588 -0.352,0.147 -1.672,0.518 -3.261,0.957 -3.162,0.902 -7.541,2.127 -8.135,2.585 1.324,0.209 2.819,0.423 4.401,0.627 14.345,1.818 37.932,3.147 49.877,5.856 14.014,3.178 33.723,10.008 42.44,19.492 z"
         id="path3904"
         style="fill:#f3d687" /></g><g
       id="g3906"><path
         d="m 598.784,351.61 c -4.23,-5.88 -13.907,-9.145 -19.102,-9.627 -5.238,-0.482 -12.562,-0.945 -19.25,-0.229 l -1.384,0.15 v 3.718 c 9.247,-0.406 19.888,-0.024 25.438,2.962 2.414,1.304 4.707,3.616 5.388,6.352 -4.711,-2.036 -12.985,-3.735 -15.508,-4.086 l 0,0 c -2.465,-0.342 -10.499,-0.808 -15.318,-0.214 v 6.162 c 5.591,-0.067 11.377,-0.09 16.677,0.744 6.426,0.82 13.468,3.328 17.556,6.827 4.088,3.483 6.819,7.099 7.702,10.14 1.54,-7.592 1.909,-17.169 -2.199,-22.899 z m -39.736,-9.705 c -11.839,1.142 -22.745,1 -27.635,0.418 -5.06,-0.62 -9.941,-1.419 -15.949,-3.906 1.145,3.342 4.094,6.413 7.28,9.02 6.251,5.125 15.358,8.536 24.069,9.185 3.787,0.288 7.963,0.221 12.234,0.177 v -6.162 l -0.197,0.024 c -4.819,0.62 -16.61,0.62 -21.958,-0.795 -2.723,-0.712 -5.895,-2.281 -8.685,-4.062 5.06,1.206 10.907,1.782 17.572,0.933 3.15,-0.415 7.969,-0.893 13.269,-1.112 v -3.72 z"
         id="path3908"
         style="fill:#e8ae10" /><path
         d="m 656.157,336.09 c 0.355,-22.573 -15.482,-46.146 -39.007,-41.906 -1.604,0.285 -3.231,0.696 -4.884,1.242 0.661,-0.057 1.214,-0.016 1.824,-0.057 27.547,-1.197 31.667,21.668 31.667,21.668 -14.086,-8.081 -26.912,-7.489 -43.258,-3.93 -12.982,2.815 -18.504,2.871 -28.576,-6.114 2.192,7.289 7.388,12.056 13.106,13.998 -19.274,-5.232 -34.011,13.78 -56.822,11.319 -1.783,-0.188 -3.59,-0.469 -5.479,-0.946 15.931,7.572 31.372,1.686 43.583,-2.827 16.586,-6.135 46.64,7.246 58.436,-4.036 -8.696,0.043 -23.034,-3.037 -30.98,-5.373 0,0 3.827,-1.913 21.695,-2.375 17.887,-0.461 32.762,11.773 38.695,19.337 z"
         id="path3910"
         style="fill:#e8ae10" /><path
         d="m 520.344,279.126 c -6.399,-0.517 -25.452,-16.028 -28.793,-18.096 -17.25,-10.669 -45.233,-22.319 -45.233,-22.319 0.569,-1.727 0.305,-5.985 -0.707,-7.194 -3.342,3.265 -14.956,4.024 -22.88,2.541 -7.917,-1.501 -21.806,-3.249 -27.613,-3.983 -10.321,-1.333 -30.01,-0.471 -35.534,1.395 17.205,-0.368 29.791,1.517 35.467,2.588 6.072,1.136 16.986,5.301 30.272,6.084 5.107,1.328 10.688,0.838 15.466,0.522 -0.176,1.221 -1.229,2.854 -0.014,3.904 15.769,2.618 34.753,14.976 42.502,19.178 7.743,4.19 17.686,12.892 27.365,18.429 -1.275,0.987 -2.395,1.13 -3.695,1.415 6.427,6.53 14.808,12.089 30.492,18.536 -5.671,1.744 -14.277,-0.09 -19.096,-2.617 -5.695,-2.986 -17.293,-12.967 -22.046,-16.923 -4.748,-3.95 -30.908,-20.853 -37.711,-22.899 1.671,3.378 0.93,12.096 -4.107,17.305 -1.343,-4.344 -4.378,-10.375 -9.573,-16.005 -8.717,-9.484 -28.425,-16.314 -42.44,-19.492 -11.945,-2.708 -35.532,-4.038 -49.877,-5.856 0.592,0.724 2.506,0.365 3.126,1.101 0.881,0.178 10.672,2.078 14.238,2.861 17.065,2.628 35.107,5.427 50.381,14.026 6.948,4.035 16.229,11.143 19.775,16.079 3.519,4.942 6.712,10.42 5.195,18.58 10.997,0.562 19.314,-7.977 21.982,-14.938 5.294,2.035 7.431,4.126 11.061,6.403 11.969,7.448 22.59,20.451 34.3,27.434 16.256,9.727 40.722,-2.035 45.036,-7.277 -13.801,-1.392 -33.929,-9.14 -43.476,-15.33 3.125,-1.033 5.327,-2.894 6.137,-5.452 z"
         id="path3912"
         style="fill:#e8ae10" /><path
         d="m 339.565,150.244 c 4.027,-0.229 8.276,-0.501 12.768,-0.975 -3.662,-2.616 -7.246,-7.273 -10.963,-9.292 -0.593,-0.33 -1.214,-0.635 -1.805,-0.921 v 1.565 c 2.996,1.38 6.007,3.885 1.497,7.641 l 0,0 c 0,0 1.74,-3.944 -1.497,-6.895 v 8.877 z m -8.623,0.594 c 2.751,-0.253 5.633,-0.419 8.623,-0.594 v -8.878 c -0.854,-0.77 -2.065,-1.482 -3.76,-2.024 0,0 1.894,0.415 3.76,1.278 v -1.565 c -7.836,-3.871 -13.991,-4.33 -17.132,-2.519 -2.819,1.627 -9.95,7.557 -10.633,13.585 v 1.82 c 0.134,1.074 0.513,2.145 1.189,3.185 0,0 2.901,-1.266 7.835,-2.655 0.178,-0.061 0.418,-0.073 0.611,-0.128 2.16,-5.475 5.35,-10.989 8.805,-14.23 -0.903,4.248 -0.594,8.566 0.702,12.725 z"
         id="path3914"
         style="fill:#e8ae10" /><path
         d="m 407.438,365.271 c 2.114,-4.744 2.971,-11.287 1.521,-16.204 -6.25,3.771 -15.907,6.626 -20.725,6.099 1.757,-2.241 2.818,-11.25 1.251,-12.894 -4.398,1.75 -14.056,3.178 -18.213,1.086 3.873,-2.182 4.728,-5.877 4.818,-9.594 -6.648,1.164 -12.961,-1.208 -12.961,-1.208 -3.366,-10.433 -17.291,-24.371 -22.307,-28.141 -4.533,-3.413 -18.967,-11.015 -27.852,-14.576 -8.013,-3.174 -25.989,-8.115 -41.21,-9.118 7.918,24.089 43.013,40.901 76.767,68.524 8.112,6.629 27.251,24.25 43.799,42.649 9.152,-10.038 18.721,-21.118 28.509,-33.238 -3.979,3.159 -8.532,5.269 -13.397,6.615 z"
         id="path3916"
         style="fill:#e8ae10" /><path
         d="m 132.872,249.425 c 0.68,-4.156 1.34,-8.283 2.111,-12.531 -1.961,-0.783 -4.158,-1.519 -7.576,-1.178 2.732,-7.05 6.409,-13.318 10.717,-19.192 -3.035,-1.341 -7.299,-1.626 -11.375,-1.17 2.923,-7.286 10.806,-16.564 17.645,-20.114 -3.059,-2.327 -7.59,-3.794 -12.004,-4.305 6.641,-7.055 13.507,-14.439 23.493,-17.898 -2.862,-4.214 -8.274,-7.051 -13.729,-8.229 6.859,-7.075 23.672,-10.721 31.617,-8.753 -2.887,-4.568 -7.305,-6.909 -11.237,-10.577 11.237,-5.938 38.654,-5.871 50.133,-2.869 -0.901,-3.786 -4.047,-7.832 -7.566,-10.315 7.388,-1.936 17.908,-0.133 28.008,3.535 v -0.012 c 0,0 -8.476,-16.852 -10.741,-27.754 H 72.849 c 16.346,53.123 37.293,100.207 60.023,141.362 z"
         id="path3918"
         style="fill:#e8ae10" /><path
         d="m 495.817,246.444 c 22.11,-40.462 42.526,-86.487 58.476,-138.381 H 350.695 c 0.38,0.248 0.771,0.501 1.108,0.753 4.521,3.268 15.926,16.398 20.495,24.589 3.175,-1.973 6.182,-3.426 9.202,-5.831 2.728,-1.7 5.807,-1.071 11.457,0.866 2.816,3.398 8.257,15.313 11.644,17.59 3.254,-2.237 16.282,-15.527 35.973,-15.709 16.168,8.045 18.764,19.164 21.536,22.924 7.241,-3.329 15.487,-4.571 23.098,-6.528 3.7,-0.359 7.486,1.179 8.519,3.617 1.826,6.258 3.277,12.932 4.528,19.532 -0.897,5.969 -1.339,13.255 -1.536,19.492 0.945,4.435 3.3,8.901 6.268,11.785 -0.506,3.811 -0.743,7.264 -1.494,10.731 -0.569,0.961 -5.171,3.447 -5.98,3.614 -0.071,5.062 -1.063,15.395 -3.171,28.248 1.033,0.747 2.214,1.673 3.475,2.708 z"
         id="path3920"
         style="fill:#e8ae10" /><path
         d="m 281.349,108.673 c 6.296,7.916 3.68,19.269 3.68,19.269 1.952,-2.728 5.721,-7.084 7.785,-9.056 -1.273,-2.625 -2.887,-6.55 -3.938,-10.824 h -8.056 c 0.177,0.203 0.378,0.419 0.529,0.611 z"
         id="path3922"
         style="fill:#e8ae10" /><path
         d="M 111.24,16.062 H 90.052 L 76.151,56.311 v 6.961 l 15.53,-44.933 h 16.351 l -15.56,44.984 c -2.684,7.706 -9.108,12.86 -16.321,15.669 v 2.42 c 8.095,-2.966 15.448,-8.646 18.457,-17.333 l 16.632,-48.017 0,0 z M 76.151,28.941 v -6.973 l 1.229,-3.629 h -1.229 v -2.277 h 4.442 l -4.442,12.879 z m 0,27.37 -3.108,8.957 c -1.144,3.266 -4.312,5.823 -7.213,5.823 -0.745,0 -1.785,-0.181 -2.4,-1.063 -0.661,-0.9 -0.7,-2.359 -0.126,-4.015 L 76.151,28.943 V 21.97 L 61.148,65.267 c -0.823,2.388 -0.66,4.55 0.432,6.084 0.9,1.292 2.441,2.013 4.25,2.013 3.873,0 7.906,-3.162 9.347,-7.353 l 0.974,-2.74 v -6.96 l 0,0 z m 0,-40.249 v 2.277 H 61.059 c -2.071,5.938 -15.845,45.74 -15.845,45.74 -1.557,4.529 -1.275,8.36 0.859,11.347 2.794,3.95 8.692,6.208 16.104,6.208 l 0,0 c 4.49,0 9.373,-0.853 13.974,-2.642 v 2.42 c -4.627,1.691 -9.513,2.514 -13.974,2.514 -8.16,0 -14.713,-2.621 -17.951,-7.176 -2.554,-3.578 -2.948,-8.217 -1.141,-13.428 L 59.444,16.061 h 16.707 z"
         id="path3924"
         style="fill:#e8ae10" /><path
         d="m 130.092,16.062 -6.818,12.021 v 4.601 l 8.143,-14.345 h 19.429 l -7.745,62.871 0,0 h -14.68 l 1.653,-10.542 h -6.8 v 2.277 h 4.134 l -1.644,10.55 h 19.338 l 8.321,-67.433 h -23.331 z m -6.819,12.02 -31.524,55.413 h 19.516 l 5.653,-10.55 h 6.355 v -2.277 h -7.697 l -5.68,10.542 h -14.21 l 27.587,-48.526 v -4.602 z"
         id="path3926"
         style="fill:#e8ae10" /><path
         d="m 131.215,62.394 5.985,-33.177 -9.214,17.674 v 4.91 l 4.312,-8.306 -2.972,16.624 0,0 h -1.34 v 2.275 h 3.229 z m -3.229,-15.503 -8.096,15.503 h 8.096 v -2.275 h -4.337 l 4.337,-8.318 v -4.91 z"
         id="path3928"
         style="fill:#e8ae10" /><path
         d="m 188.248,16.062 h -5.921 v 2.277 h 5.921 c 11.172,0 19.421,2.594 22.656,7.135 1.584,2.226 1.85,4.857 0.837,7.804 l 0,0 c -1.497,4.316 -4.817,7.916 -9.877,10.691 l -1.673,0.909 1.585,1.049 c 1.957,1.256 6.4,6.316 3.63,14.36 -3.851,11.141 -13.046,16.619 -23.079,19.102 v 2.339 c 10.871,-2.56 20.963,-8.431 25.229,-20.696 2.538,-7.314 -0.171,-13.081 -3.163,-15.926 4.776,-2.938 7.966,-6.65 9.508,-11.077 1.253,-3.645 0.862,-7.063 -1.146,-9.871 -3.651,-5.148 -12.581,-8.096 -24.507,-8.096 z m -5.922,0 h -9.878 l -23.344,67.433 h 16.608 c 5.261,0 11.049,-0.455 16.614,-1.768 v -2.339 c -5.546,1.365 -11.353,1.822 -16.614,1.822 h -13.421 l 21.79,-62.871 h 8.245 v -2.277 z"
         id="path3930"
         style="fill:#e8ae10" /><path
         d="m 189.719,39.616 c 3.208,-1.126 4.817,-3.163 5.691,-5.668 0.621,-1.795 0.472,-3.506 -0.458,-4.791 -0.68,-0.966 -2.135,-2.075 -5.233,-2.423 v 2.253 c 1.627,0.183 2.818,0.684 3.388,1.483 0.616,0.872 0.418,1.964 0.154,2.723 l 0,0 c -0.55,1.601 -1.826,2.941 -3.542,3.854 v 2.569 z m -2.179,-13.005 -4.841,14.002 c 2.93,0 5.238,-0.352 7.021,-0.997 v -2.569 c -1.104,0.596 -2.404,1 -3.782,1.177 l 3.213,-9.284 c 0.19,0 0.392,0.016 0.569,0.046 v -2.253 c -0.637,-0.082 -1.366,-0.122 -2.18,-0.122 z"
         id="path3932"
         style="fill:#e8ae10" /><path
         d="m 185.604,49.155 -0.351,-0.229 -4.444,0.312 v 3.794 l 0.506,-1.473 c 1.032,-0.044 2.357,-0.146 3.343,-0.265 1.165,1.044 3.211,4.375 1.606,8.992 l 0,0 c -1.214,3.503 -3.076,6.187 -5.455,7.926 v 2.925 c 3.875,-1.933 5.985,-5.399 7.609,-10.107 2.136,-6.139 -1.032,-10.728 -2.814,-11.875 z m -4.795,0.083 -1.127,0.08 -8.158,23.626 c 3.937,0 6.924,-0.62 9.286,-1.807 v -2.925 c -1.759,1.289 -3.784,2.066 -6.052,2.328 l 6.052,-17.507 v -3.795 z"
         id="path3934"
         style="fill:#e8ae10" /><path
         d="m 280.403,45.104 c 4.776,-2.938 7.97,-6.65 9.507,-11.077 1.254,-3.645 0.859,-7.063 -1.146,-9.871 -3.649,-5.146 -12.585,-8.095 -24.489,-8.095 h -5.938 v 2.277 h 5.938 c 11.156,0 19.409,2.594 22.643,7.135 1.582,2.226 1.871,4.857 0.835,7.804 -1.495,4.316 -4.819,7.916 -9.878,10.691 l -1.673,0.909 1.581,1.049 c 1.962,1.256 6.41,6.316 3.634,14.36 l 0,0 c -3.851,11.141 -13.069,16.619 -23.079,19.102 v 2.339 c 10.868,-2.56 20.971,-8.431 25.213,-20.696 2.529,-7.315 -0.155,-13.082 -3.148,-15.927 z M 258.338,16.062 h -9.879 l -23.336,67.433 h 16.608 c 5.277,0 11.042,-0.455 16.607,-1.768 v -2.339 c -5.542,1.365 -11.33,1.822 -16.607,1.822 h -13.4 l 21.737,-62.871 h 8.27 v -2.277 z"
         id="path3936"
         style="fill:#e8ae10" /><path
         d="m 265.731,39.616 c 3.219,-1.126 4.838,-3.163 5.7,-5.668 0.617,-1.795 0.458,-3.506 -0.484,-4.791 -0.663,-0.966 -2.11,-2.075 -5.216,-2.423 v 2.253 c 1.628,0.183 2.794,0.684 3.362,1.483 0.642,0.872 0.443,1.964 0.18,2.723 l 0,0 c -0.551,1.601 -1.826,2.941 -3.542,3.854 v 2.569 z m -2.177,-13.005 -4.836,14.002 c 2.922,0 5.21,-0.352 7.013,-0.997 v -2.569 c -1.104,0.596 -2.396,1 -3.787,1.177 l 3.213,-9.284 c 0.203,0 0.403,0.016 0.574,0.046 v -2.253 c -0.641,-0.082 -1.36,-0.122 -2.177,-0.122 z"
         id="path3938"
         style="fill:#e8ae10" /><path
         d="m 261.64,49.155 -0.375,-0.229 -4.444,0.312 v 3.794 l 0.505,-1.473 c 1.036,-0.044 2.353,-0.146 3.326,-0.265 1.182,1.044 3.236,4.375 1.623,8.992 l 0,0 c -1.206,3.503 -3.059,6.187 -5.454,7.938 v 2.913 c 3.87,-1.933 5.985,-5.399 7.614,-10.107 2.11,-6.139 -1.036,-10.728 -2.795,-11.875 z m -4.819,0.083 -1.123,0.08 -8.163,23.626 c 3.915,0 6.935,-0.62 9.286,-1.807 v -2.913 c -1.743,1.277 -3.784,2.054 -6.048,2.315 l 6.048,-17.507 v -3.794 z"
         id="path3940"
         style="fill:#e8ae10" /><path
         d="m 361.721,62.394 5.985,-33.177 -9.219,17.674 v 4.91 l 4.333,-8.306 -2.984,16.624 0,0 h -1.348 v 2.275 h 3.233 z m -3.234,-15.503 -8.099,15.503 h 8.099 v -2.275 h -4.333 l 4.333,-8.318 v -4.91 z"
         id="path3942"
         style="fill:#e8ae10" /><path
         d="m 445.211,16.062 h -35.157 v 2.277 h 30.786 l -30.786,44.055 v 3.965 l 35.157,-50.297 0,0 z M 410.054,28.877 V 26.61 h 7.353 l -7.353,10.536 v -3.98 l 2.997,-4.289 h -2.997 l 0,0 z m 0,54.618 h 11.622 l 4.418,-12.827 h -16.041 v 2.277 h 12.854 l 0,0 -2.861,8.265 h -9.993 v 2.285 z m 0,-67.433 h -9.235 l -4.447,12.816 h 13.682 v -2.267 h -10.47 l 2.861,-8.272 h 7.609 v -2.277 l 0,0 z m 0,17.105 -29.738,42.572 v 3.978 l 29.738,-42.57 v -3.98 l 0,0 z M 380.315,45.321 V 26.762 l 1.052,-8.423 h -1.052 v -2.277 h 3.604 l -3.604,29.259 0,0 z m 0,38.174 h 29.738 V 81.21 h -29.738 v 2.285 l 0,0 z m 29.739,-12.828 v 2.277 h -7.365 l 7.365,-10.551 v 3.965 l -2.985,4.309 h 2.985 z m -29.739,5.072 -4.562,6.531 4.562,-36.949 V 26.762 l -6.717,54.448 h -14.672 l 0,0 1.648,-10.542 h -6.795 v 2.277 h 4.134 l -1.627,10.55 h 24.03 V 81.21 h -1.036 l 1.036,-1.493 v -3.978 l -10e-4,0 z m 0,-59.677 v 2.277 h -18.393 l -8.144,14.357 V 28.07 l 6.819,-12.008 h 19.718 z m -26.536,12.008 -29.217,51.365 3.06,-8.768 h -19.14 l 18.876,-54.606 h -21.146 l -0.967,2.818 v 6.933 l 2.6,-7.474 h 16.322 l -18.885,54.606 h 19.121 l -2.856,8.265 0,0 h -16.301 v 2.285 h 36.543 l 5.653,-10.55 h 6.336 v -2.277 h -7.721 l -5.629,10.542 H 326.165 L 353.778,32.695 V 28.07 z m -48.533,-9.191 -22.374,64.615 h 22.374 v -2.285 h -19.188 l 19.188,-55.397 v -6.933 z"
         id="path3944"
         style="fill:#e8ae10" /><path
         d="m 462.066,63.407 h 12.171 l 4.44,-12.825 h -16.52 l 7.523,-21.705 h 20.369 L 494.5,16.061 h -32.435 v 2.277 h 29.212 l -2.85,8.272 h -20.373 l -5.99,17.335 v 8.91 h 13.423 l -2.861,8.272 h -10.562 v 2.28 l 0.002,0 z m 0,20.088 h 9.107 l 4.43,-12.827 h -13.537 v 2.277 h 10.338 l 0,0 -2.858,8.265 h -7.48 v 2.285 z m -4.333,-20.088 h 4.333 v -2.279 h -5.941 l -4.086,11.816 h 10.027 v -2.277 h -6.841 l 2.508,-7.26 0,0 z m 4.333,-47.345 v 2.277 h -7.474 l -11.955,34.518 h -4.992 l -2.878,8.272 h 4.998 l -6.958,20.082 h 29.26 v 2.285 h -32.422 l 6.949,-20.088 h -5.019 l 4.439,-12.825 h 5.005 l 11.942,-34.521 h 9.105 l 0,0 z m 0,27.884 -3.075,8.91 h 3.075 v -8.91 z"
         id="path3946"
         style="fill:#e8ae10" /><path
         d="m 523.444,58.224 c 4.802,-2.143 15.124,-8.074 19.39,-20.394 1.783,-5.123 1.382,-9.534 -1.163,-13.112 -3.989,-5.586 -13.096,-8.657 -25.663,-8.657 h -5.06 v 2.277 h 5.06 c 11.645,0 20.311,2.806 23.811,7.701 2.089,2.936 2.372,6.656 0.856,11.044 -4.444,12.842 -16.042,18.294 -19.513,19.645 l -1.518,0.617 1.119,1.216 c 1.277,1.41 4.409,5.192 5.501,9.872 1.099,4.487 0.045,8.931 -1.228,12.776 l 0,0 h -14.088 v 2.285 h 15.708 c 1.495,-4.328 3.132,-10.242 1.831,-15.587 -0.987,-4.181 -3.387,-7.672 -5.043,-9.683 z M 510.949,16.062 H 500.438 L 477.11,83.495 h 21.173 L 504,66.979 c 1.121,1.336 2.292,3.3 2.901,5.764 0.664,2.696 -0.13,7.056 -1.4,10.752 h 5.448 V 81.21 h -2.327 c 0.967,-3.407 1.169,-6.264 0.504,-9.008 -1.012,-3.925 -3.541,-7.475 -6.162,-9.226 L 496.651,81.21 H 480.31 l 21.751,-62.871 h 8.888 v -2.277 z"
         id="path3948"
         style="fill:#e8ae10" /><path
         d="m 523.717,29.71 c -1.285,-1.794 -4.183,-2.778 -7.42,-2.913 v 4.605 l 0.794,-2.309 c 1.764,0.087 3.76,0.519 4.772,1.941 1.19,1.676 0.692,4.253 0.048,6.14 l 0,0 c -1.19,3.415 -3.348,6.201 -5.614,8.284 v 3.188 c 3.237,-2.433 6.136,-6.044 7.744,-10.742 1.213,-3.453 1.075,-6.209 -0.324,-8.194 z m -7.42,-2.912 c -0.288,-0.012 -0.546,-0.024 -0.811,-0.024 l -8.803,25.487 c 2.93,0 6.423,-1.228 9.614,-3.615 v -3.188 c -2.242,2.064 -4.592,3.452 -6.265,4.1 l 6.265,-18.156 v -4.604 z"
         id="path3950"
         style="fill:#e8ae10" /><path
         d="m 575.569,28.296 c 2.225,0 4.153,0.392 5.703,0.798 L 592.77,18.366 c -2.241,-1.415 -9.039,-2.735 -13.618,-2.735 -6.862,0 -13.021,1.287 -18.08,3.628 v 2.612 c 4.972,-2.532 11.175,-3.953 18.08,-3.953 3.389,0 6.866,0.472 9.446,1.229 l -7.972,7.438 c -1.45,-0.354 -2.877,-0.571 -5.058,-0.571 -4.311,0 -8.053,2.12 -9.085,5.156 -1.715,4.965 1.648,9.08 6.333,14.78 l 0,0 c 6.166,7.431 7.443,11.902 5.193,18.386 -2.376,6.865 -8.554,12.151 -16.938,14.99 v 2.387 c 9.416,-3.009 16.408,-8.891 19.074,-16.622 2.837,-8.188 0.114,-13.749 -5.562,-20.593 -4.911,-5.96 -7.222,-8.98 -5.97,-12.586 0.643,-1.793 3.215,-3.616 6.956,-3.616 l 0,0 z m -14.496,38.807 v -7.757 c 0.876,2.345 1.056,4.743 0.131,7.428 l -0.131,0.329 z m 0,-47.844 c -6.471,2.992 -11.131,7.705 -13.219,13.689 -2.161,6.288 -0.645,11.446 5.61,19.072 5.103,6.104 7.103,9.573 5.584,14.01 -1.011,2.877 -4.817,4.889 -9.26,4.889 -2.998,0 -6.536,-0.808 -8.361,-1.651 l -11.95,11.214 c 3.937,1.851 10.25,3.444 16.594,3.444 5.413,0 10.487,-0.783 15.002,-2.214 v -2.387 c -4.447,1.497 -9.549,2.308 -15.002,2.308 -5.15,0 -9.198,-0.593 -12.547,-1.847 l 8.409,-7.854 c 2.063,0.795 4.858,1.264 7.855,1.264 5.257,0 9.83,-2.486 11.285,-6.093 v -7.757 c -1.075,-2.854 -3.234,-5.629 -5.854,-8.775 -5.743,-7.006 -7.108,-11.413 -5.209,-16.875 1.731,-4.998 5.651,-9.069 11.064,-11.823 v -2.614 z"
         id="path3952"
         style="fill:#e8ae10" /></g><g
       id="g3954"><path
         d="m 424.639,355.15 c -1.202,1.29 -2.458,2.462 -3.806,3.507 -9.788,12.12 -19.357,23.2 -28.509,33.238 -0.067,0.082 -0.154,0.176 -0.218,0.271 -2.731,2.958 -5.392,5.843 -8.013,8.609 -0.174,0.175 -0.307,0.333 -0.485,0.499 -2.633,2.808 -5.254,5.534 -7.832,8.159 0,0.012 0,0.012 -0.022,0.043 -36.079,36.9 -62.188,55.306 -62.188,55.306 0,0 -0.135,-0.111 -0.38,-0.281 -0.086,-0.052 -0.154,-0.111 -0.282,-0.189 -0.2,-0.166 -0.485,-0.368 -0.841,-0.62 -0.219,-0.163 -0.435,-0.325 -0.7,-0.53 -0.354,-0.265 -0.777,-0.569 -1.213,-0.914 -0.331,-0.245 -0.616,-0.451 -0.988,-0.732 -0.77,-0.592 -1.612,-1.24 -2.569,-1.997 -0.491,-0.361 -1.011,-0.793 -1.542,-1.212 -0.592,-0.459 -1.197,-0.928 -1.829,-1.446 -0.66,-0.518 -1.32,-1.056 -2.025,-1.63 -0.613,-0.506 -1.253,-1.012 -1.914,-1.553 -0.786,-0.648 -1.581,-1.296 -2.441,-2.013 -0.618,-0.493 -1.253,-1.05 -1.894,-1.582 -1.784,-1.504 -3.696,-3.125 -5.697,-4.862 -0.592,-0.517 -1.186,-1.01 -1.777,-1.553 -1.151,-0.976 -2.333,-2.025 -3.508,-3.084 -0.718,-0.62 -1.403,-1.24 -2.133,-1.883 -1.255,-1.12 -2.507,-2.27 -3.823,-3.456 -0.685,-0.644 -1.409,-1.3 -2.111,-1.961 -4.601,-4.246 -9.552,-8.926 -14.741,-14.024 -0.728,-0.72 -1.479,-1.432 -2.221,-2.166 -1.562,-1.566 -3.175,-3.19 -4.8,-4.822 -0.81,-0.816 -1.604,-1.645 -2.446,-2.487 -1.673,-1.724 -3.361,-3.45 -5.076,-5.254 -0.555,-0.576 -1.102,-1.17 -1.671,-1.738 -3.68,-3.867 -7.421,-7.915 -11.266,-12.144 -0.53,-0.59 -1.057,-1.154 -1.605,-1.751 -1.78,-1.997 -3.634,-4.072 -5.46,-6.147 -0.897,-1.031 -1.823,-2.059 -2.728,-3.118 -1.821,-2.087 -3.647,-4.207 -5.494,-6.377 -0.885,-1.044 -1.783,-2.127 -2.688,-3.179 -6.18,-7.353 -12.492,-15.15 -18.86,-23.378 -0.988,-1.287 -2,-2.553 -2.965,-3.846 -1.854,-2.411 -3.697,-4.851 -5.55,-7.332 -1.074,-1.46 -2.152,-2.938 -3.253,-4.419 -1.821,-2.511 -3.692,-5.041 -5.518,-7.614 -0.995,-1.388 -2.008,-2.823 -2.992,-4.233 -3.416,-4.835 -6.823,-9.816 -10.21,-14.904 -1.123,-1.645 -2.222,-3.272 -3.302,-4.94 -1.711,-2.599 -3.429,-5.258 -5.12,-7.922 -1.255,-1.966 -2.514,-3.934 -3.769,-5.931 -1.671,-2.661 -3.339,-5.344 -4.988,-8.064 -1.301,-2.123 -2.577,-4.288 -3.878,-6.451 -1.605,-2.707 -3.23,-5.396 -4.84,-8.167 -2.548,-4.407 -5.082,-8.896 -7.584,-13.444 v -0.006 C 110.144,208.27 89.197,161.186 72.851,108.063 h 149.518 c -0.04,-0.27 -0.13,-0.534 -0.17,-0.799 -0.489,-2.695 -0.687,-5.718 -0.599,-8.766 H 59.92 l 3.776,12.372 c 38.524,125.167 102.769,216.722 149.876,271.494 51.165,59.497 92.747,88.992 94.514,90.226 l 5.479,3.878 5.518,-3.878 c 1.74,-1.234 43.312,-30.729 94.492,-90.226 6.978,-8.115 14.369,-17.141 21.959,-26.849 -3.81,0.446 -8.78,0.031 -10.895,-0.365 z"
         id="path3956"
         style="fill:#d63647" /><path
         d="m 584.486,348.585 c -8.696,-4.701 -30.063,-2.962 -38.708,-1.85 -6.665,0.849 -12.512,0.273 -17.572,-0.933 2.79,1.782 5.962,3.35 8.685,4.062 5.349,1.415 17.139,1.415 21.958,0.795 4.815,-0.629 13.001,-0.152 15.516,0.19 2.523,0.351 10.796,2.051 15.508,4.086 -0.68,-2.734 -2.973,-5.046 -5.387,-6.35 z"
         id="path3958"
         style="fill:#d63647" /><path
         d="m 280.818,108.062 h 8.056 c -0.793,-3.103 -1.292,-6.412 -1.161,-9.565 h -17.496 c 4.779,3.723 8.538,7.173 10.601,9.565 z"
         id="path3960"
         style="fill:#d63647" /><path
         d="m 614.091,295.369 c -0.61,0.119 -1.256,0.175 -1.824,0.057 11.772,-13.792 10.806,-28.148 9.263,-35.728 -3.697,23.648 -21.14,34.27 -37.446,33.89 -10.8,-0.253 -16.896,-1.683 -27.412,-7.096 -10.514,-5.423 -13.727,-18.112 -28.666,-24.658 2.043,4.079 2.419,12.234 -0.929,16.052 -3.321,-4.817 -14.321,-16.223 -23.912,-25.007 22.576,-41.019 43.784,-88.416 60.284,-142.009 l 3.802,-12.372 H 452.936 v 9.565 h 101.356 c -15.95,51.895 -36.366,97.919 -58.476,138.381 -1.261,-1.035 -2.441,-1.961 -3.476,-2.707 -0.485,-0.341 -0.928,-0.681 -1.358,-0.961 -7.263,-4.791 -22.738,-16.025 -38.047,-23.022 v 21.816 c 8.778,3.862 24.526,11.081 36.37,18.093 0.744,0.466 1.515,0.905 2.245,1.368 0.835,0.501 2.637,1.845 4.975,3.601 7.06,5.25 19.001,14.096 23.819,14.495 -0.81,2.558 -3.013,4.419 -6.135,5.452 9.546,6.19 29.675,13.938 43.476,15.33 -4.313,5.242 -28.779,17.004 -45.036,7.277 l 0,0 c -9.554,-5.692 -18.414,-15.382 -27.833,-22.804 -0.488,-0.383 -0.968,-0.784 -1.471,-1.154 -1.633,-1.241 -3.305,-2.416 -4.996,-3.476 -3.629,-2.276 -5.767,-4.368 -11.061,-6.403 -2.008,5.237 -7.202,11.372 -14.353,13.827 v 12.902 c 6.186,3.25 13.467,7.421 20.242,11.817 6.183,4.027 11.902,8.244 15.931,12.13 6.202,6.033 7.895,13.887 9.324,19.729 5.705,-5.561 5.044,-20.959 3.433,-24.248 5.387,3.617 9.708,7.838 14.806,9.361 3.874,1.529 8.627,2.676 13.537,3.441 22.812,2.461 37.548,-16.551 56.822,-11.319 -5.718,-1.942 -10.915,-6.709 -13.106,-13.998 10.071,8.985 15.593,8.929 28.576,6.114 16.346,-3.559 29.172,-4.15 43.258,3.93 0,0.002 -4.12,-22.863 -31.667,-21.666 z M 452.936,98.497 H 308.678 c 2.444,1.66 4.752,3.312 7.062,4.667 3.827,-0.319 9.917,-0.509 13.705,0.053 0.177,-1.737 2.133,-3.629 3.916,-3.088 4.226,0.945 12.129,4.463 17.334,7.934 h 102.241 v -9.566 l 0,0 z m 0,121.256 c -4.689,-2.143 -9.349,-3.894 -13.75,-4.929 -2.458,2.071 -8.584,14.013 -8.624,18.806 -11.614,-6.922 -14.916,-17.584 -17.825,-26.434 -6.313,5.288 -20.192,12.76 -23.975,12.052 2.023,-2.353 2.858,-11.879 1.078,-15.005 -5.043,5.522 -13.842,15.067 -22.906,15.42 1.478,-2.198 2.642,-12.295 0.091,-15.484 -3.127,5.174 -11.682,11.638 -19.737,12.448 0.42,-2.44 0.814,-6.135 -1.744,-8.664 -4.834,7.792 -13.764,14.475 -21.91,14.521 0.929,-5.791 -0.432,-10.865 -4.463,-14.195 -4.049,6.04 -8.884,13.058 -21.671,13.689 -0.085,-4.613 -4.288,-14.468 -8.692,-16.012 -3.692,3.68 -7.517,18.578 -7.918,22.4 -0.553,5.503 1.736,13.448 8.298,12.788 5.696,-0.577 11.413,-7.502 13.575,-12.044 5.932,1.835 10.226,11.413 11.653,16.603 3.286,-2.218 9.333,-7.874 10.779,-13.526 7.222,4.744 10.123,13.621 10.104,20.329 4.174,-3.479 9.128,-9.917 10.494,-14.658 5.985,3.781 11.325,15.351 10.362,24.358 3.517,-1.202 7.985,-3.896 11.005,-7.654 5.317,4.52 8.554,14.002 7.163,21.143 2.909,-0.506 11.254,-6.191 13.317,-10.124 2.661,4.113 4.748,18.522 3.76,24.123 5.743,-3.505 14.656,-13.562 17.997,-19.894 1.759,3.106 3.855,9.759 4.048,14.495 10.779,2.846 24.44,8.361 33.091,12.531 1.914,0.921 4.088,2.013 6.4,3.241 v -12.902 c -2.353,0.842 -4.907,1.253 -7.63,1.111 1.517,-8.16 -1.676,-13.638 -5.195,-18.58 -3.547,-4.937 -12.827,-12.044 -19.775,-16.079 -15.274,-8.599 -33.316,-11.397 -50.381,-14.026 -3.566,-0.783 -13.357,-2.684 -14.238,-2.861 -0.62,-0.736 -2.535,-0.377 -3.126,-1.101 -1.582,-0.205 -3.077,-0.418 -4.401,-0.627 0.594,-0.458 4.973,-1.683 8.135,-2.585 0.404,-0.252 1.151,-0.53 3.261,-0.957 5.523,-1.866 25.213,-2.728 35.534,-1.395 5.807,0.734 19.695,2.482 27.613,3.983 7.924,1.483 19.538,0.724 22.88,-2.541 1.012,1.209 1.276,5.467 0.707,7.194 0,0 2.554,1.063 6.618,2.858 v -21.816 z"
         id="path3962"
         style="fill:#d63647" /></g><g
       id="g3964"><path
         d="m 375.754,409.476 c -22.877,-0.489 -54.405,9.057 -62.213,16.108 7.741,6.104 13.663,15.097 21.493,22.104 10.65,-9.079 24.69,-21.819 40.72,-38.212 z"
         id="path3966"
         style="fill:#4da691" /><path
         d="m 147.188,202.095 c -0.525,1.578 -3.451,6.84 -3.846,8.397 l -3.412,-1.272 c 0.796,-1.309 6.207,-5.938 7.258,-7.125 z"
         id="path3968"
         style="fill:#4da691" /><path
         d="m 156.514,181.146 -4.305,6.904 -5.349,-1.823 c 3.148,-1.825 6.14,-4.311 9.654,-5.081 z"
         id="path3970"
         style="fill:#4da691" /><path
         d="m 173.499,162.994 c -1.821,1.814 -4.568,4.566 -6.664,6.518 l -8.353,-5.617 c 5.1,-0.783 9.39,-1.037 15.017,-0.901 z"
         id="path3972"
         style="fill:#4da691" /><path
         d="m 203.91,149.485 c -6.25,1.691 -12.127,5.021 -18.266,7.222 -1.254,-2.676 -3.25,-6.788 -7.164,-8.084 7.825,-1.185 17.726,-1.873 25.43,0.862 z"
         id="path3974"
         style="fill:#4da691" /><path
         d="m 221.683,138.823 c 2.336,0.231 5.942,1.749 6.802,2.476 0,0 -1.339,2.549 -3.455,5.985 -0.26,-3.001 -2.312,-5.721 -3.347,-8.461 z"
         id="path3976"
         style="fill:#4da691" /><path
         d="m 218.717,228.49 c 5.871,8.98 13.084,15.419 17.358,19.626 -4.095,-1.356 -15.137,-1.188 -23.056,-0.98 1.323,-2.214 4.158,-14.598 5.698,-18.646 z"
         id="path3978"
         style="fill:#4da691" /><path
         d="m 244.717,258.386 c 4.071,4.513 5.657,9.608 7.174,13.214 -13.335,-3.806 -25.81,0.506 -37.683,5.432 -2.131,-5.009 -2.333,-10.919 -2.468,-16.551 4.51,-4.048 22.137,-5.096 32.977,-2.095 z"
         id="path3980"
         style="fill:#4da691" /><path
         d="m 253.986,280.126 c 6.267,4.748 9.238,13.148 14.14,20.177 -19.556,0.205 -41.577,10.688 -41.577,10.688 0,0 -8.033,-13.61 -9.551,-24.231 9.488,-6.822 29.044,-8.921 36.988,-6.634 z"
         id="path3982"
         style="fill:#4da691" /><path
         d="m 275.629,308.564 c 6.312,6.728 12.436,13.829 19.278,19.591 -14.546,6.329 -31.292,9.919 -44.004,20.389 -6.716,-8.257 -14.541,-16.961 -18.523,-26.485 12.667,-8.623 28.049,-12.7 43.249,-13.495 z"
         id="path3984"
         style="fill:#4da691" /><path
         d="m 304.272,337.118 c 5.637,7.673 24.781,16.578 34,22.801 -21.414,0.596 -40.844,9.086 -59.166,21.29 -6.688,-6.279 -13.926,-14.345 -20.171,-22.023 13.218,-12.21 28.425,-19.559 45.337,-22.068 z"
         id="path3986"
         style="fill:#4da691" /><path
         d="m 286.127,389.628 c 20.263,-11.304 42.175,-20.223 66.92,-16.961 9.131,7.63 17.337,15.839 25.853,24.722 -17.796,-0.269 -51.923,3.139 -71.351,16.187 -8.266,-6.61 -21.422,-23.948 -21.422,-23.948 z"
         id="path3988"
         style="fill:#4da691" /><path
         d="m 269.625,190.423 c 11.025,3.901 26.624,2.738 41.604,0.313 15.492,-2.507 84.174,-18.809 107.631,-18.909 2.551,-0.01 4.549,0.151 5.895,0.558 -9.109,-3.604 -55.179,-1.497 -77.514,6.496 -20.48,7.305 -59.768,9.76 -72.051,2.965 4.755,-6.377 7.412,-20.786 0.819,-26.443 0.521,15.512 -13.512,33.525 -33.794,33.929 7.98,4.328 15.29,5.439 21.361,2.787 -5.409,14.076 -9.105,38.815 -6.581,42.74 2.792,4.302 10.255,13.056 10.255,13.056 l 7.348,6.842 c 0,0 -11.721,-15.969 -13.199,-22.358 -1.496,-6.394 6.096,-32.937 8.226,-41.964 v -0.012 z"
         id="path3990"
         style="fill:#4da691" /></g><g
       id="g3992"><path
         d="m 177.951,173.571 c -0.577,1.897 -1.525,6.451 -1.525,6.451 l -7.581,6.626 c 0,0 -2.669,1.142 -5.113,1.9 2.644,-3.595 11.467,-12.498 14.219,-14.977 z"
         id="path3994"
         style="fill:#008061" /><path
         d="m 154.055,212.871 c 0.486,2.088 0.194,6.4 0.194,6.4 0,0 -6.857,9.131 -8.689,15.152 2.361,-7.326 3.784,-15.152 8.495,-21.552 z"
         id="path3996"
         style="fill:#008061" /><path
         d="m 160.507,225.903 c 3.403,-0.762 8.044,-0.778 11.195,0 -11.024,12.137 -15.931,23.324 -20.6,35.325 -1.599,-4.043 -2.857,-9.273 -2.481,-13.571 2.724,-7.324 7.838,-15.099 11.886,-21.754 z"
         id="path3998"
         style="fill:#008061" /><path
         d="m 161.867,207.128 c 4.158,-5.902 16.831,-18.58 16.831,-18.58 0,0 4.974,-1.102 8.511,-0.746 -0.554,3.214 -0.766,12.144 -1.163,13.053 -6.906,4.312 -13.068,10.439 -18.55,16.065 l -5.873,0.648 0.244,-10.44 z"
         id="path4000"
         style="fill:#008061" /><path
         d="m 178.129,216.425 c 0,0 9.349,-8.694 12.144,-10.056 l 6.242,0.188 c -4.708,2.089 -14.78,10.998 -18.765,15.169 -0.175,-2.265 0.379,-5.301 0.379,-5.301 z"
         id="path4002"
         style="fill:#008061" /><path
         d="m 186.683,169.001 c 5.743,-3.395 18.171,-10.408 18.171,-10.408 0,0 7.504,-0.81 11.396,0.191 -1.56,3.778 -6.071,9.766 -6.071,9.766 -6.27,3.389 -14.477,7.487 -19.845,11.931 H 182.9 c 0.787,-4.048 1.957,-7.831 3.783,-11.48 z"
         id="path4004"
         style="fill:#008061" /><path
         d="m 197.284,185.323 c 5.483,-3.913 12.915,-7.708 18.786,-10.46 3.963,1.353 7.004,2.486 10.321,5.357 -0.917,3.783 -3.144,7.581 -4.048,10.972 l -17.887,10.962 c -2.883,-0.387 -5.103,-2.474 -7.856,-3.395 -0.086,-4.53 0.024,-8.728 0.684,-13.436 z"
         id="path4006"
         style="fill:#008061" /><path
         d="m 453.377,334.82 c -6.754,4.13 -13.992,5.507 -17.755,5.546 -3.736,0.04 -11.576,-0.876 -18.917,-2.225 -7.395,-1.34 -17.605,-5.949 -26.714,-8.502 -5.676,-2.238 -10.205,-6.182 -12.537,-11.562 8.531,7.161 19.38,9.925 25.404,9.609 4.226,2.977 11.512,5.851 19.829,3.747 2.815,3.969 12.607,3.313 16.235,-0.11 3.822,2.363 9.99,3.968 14.455,3.497 z"
         id="path4008"
         style="fill:#008061" /><path
         d="m 388.54,146.536 c -3.545,-0.375 -6.933,-0.398 -10.162,-1.289 1.359,-1.818 3.719,-3.438 5.582,-3.695 l 4.76,4.72 -0.18,0.264 z"
         id="path4010"
         style="fill:#008061" /><path
         d="m 358.067,140.002 c -4.723,-3.597 -21.603,-17.058 -30.912,-17.488 0,0 2.49,3.075 2.49,5.479 -6.273,-0.684 -12.104,-0.553 -16.306,1.422 -5.608,3.775 -12.673,15.832 -12.385,21.397 -2.793,0.949 -5.058,-2.652 -9.704,-2.568 8.273,-7.927 4.337,-23.754 14.147,-30.707 5.349,-1.349 27.761,-5.009 33.661,-1.581 6.229,2.375 17.448,13.115 22.638,17.056 2.909,2.534 3.301,9.582 5.06,12.619 0.001,0.001 -3.997,-2.079 -8.689,-5.629 z"
         id="path4012"
         style="fill:#008061" /><path
         d="m 271.453,137.536 c -2.667,-4.024 -3.26,-15.356 1.298,-20.769 -5.882,-6.719 -21.429,-19.993 -33.944,-23.962 6.812,5.681 15.179,13.077 17.092,17.314 -4.335,-1.827 -11.603,-1.771 -12.832,-0.502 5.788,1.956 10.147,4.791 12.63,7.594 -3.628,0.042 -6.467,1.741 -9.435,3.979 3.362,0.383 14.366,2.894 15.792,6.455 0.027,2.196 0.378,4.677 0.05,6.55 -2.616,-1.023 -4.691,-1.481 -7.31,-2.238 -1.556,-7.094 -16.149,-8.588 -17.047,-9.359 2.971,-1.74 5.3,-2.04 4.505,-4.836 -0.79,-2.785 -5.891,-9.993 -10.182,-13.245 2.942,0.028 5.411,-0.73 6.574,-1.743 0.553,-4.668 -4.969,-10.736 -9.366,-15.045 17.88,2.04 39.487,18.153 46.569,28.873 -3.293,4.635 -4.394,13.938 -4.394,20.934 z"
         id="path4014"
         style="fill:#008061" /><path
         d="m 487.635,188.319 c 0.833,-3.416 0.48,-9.096 0.26,-10.673 -0.196,-1.584 -0.77,-4.125 -1.316,-5.167 -0.966,0.254 -1.87,0.59 -2.509,1.535 1.272,2.351 2.64,4.537 2.554,7.396 -0.092,0.43 -0.486,0.6 -0.839,0.771 -2.992,-4.108 -10.672,-11.509 -14.257,-14.128 1.632,-2.348 4.224,-3.616 6.339,-6.116 2.86,-1.89 5.982,-0.055 8.998,-1.51 0.529,-2.792 -3.479,-2.315 -4.776,-2.222 -4.977,0.352 -20.903,8.771 -20.286,14.883 -0.088,0.886 -1.051,0.784 -1.475,0.784 -1.6,-2.871 -1.253,-10.499 -3.455,-13.039 -5.061,-6.443 -9.809,-12.12 -15.615,-18.393 -0.537,-0.24 -1.146,-0.415 -1.829,-0.532 v 11.574 c 5.703,4.54 11.354,11.965 12.648,13.494 0.988,1.17 3.324,4.61 1.691,6.419 l 0,0 c -3.387,-1.505 -5.652,-4.643 -8.622,-7.43 -0.569,-0.869 -1.517,-2.182 -2.901,-2.353 -0.553,1.655 2.724,4.605 1.759,5.812 -1.673,-0.902 -3.06,-2.037 -4.576,-3.128 v 10.337 c 2.726,1.234 5.34,2.716 7.854,4.524 7.877,5.682 26.845,13.45 42.196,14.565 -1.627,-1.56 -2.416,-5.138 -1.843,-7.403 z m -48.206,-46.41 c -4.926,-0.921 -12.433,1.047 -12.433,1.047 -3.962,0.497 -8.974,6.708 -12.626,7.976 0.064,1.831 4.005,6.274 4.332,7.243 -0.245,0.597 -0.725,1.379 -1.208,1.719 -5.107,-2.013 -15.575,-4.269 -20.457,-4.867 -9.772,-1.173 -33.773,0.617 -41.32,0.831 -14.219,-1.577 -33.487,1.21 -42.592,3.305 -8.298,1.897 -18.747,6.065 -24.45,8.911 1.696,-2.837 2.264,-5.881 2.202,-8.388 -7.127,-6.594 -27.811,-15.318 -43.179,-12.587 -2.818,1.633 -6.142,4.847 -7.925,7.701 -2.886,4.756 -4.77,9.639 -5.946,15.093 l -0.062,0.872 v 4.263 c 0.966,13.416 10.977,24.019 17.56,29.129 -1.127,0.506 -3.035,1.448 -6.23,0.736 -1.536,4.328 -2.106,10.774 -0.945,16.135 -1.541,1.842 -4.948,3.356 -7.459,4.017 0,0 23.829,30.411 31.153,39.475 11.18,0.062 25.299,2.316 34.103,4.431 8.803,2.094 31.861,10.989 49.416,22.022 -20.223,-19.569 -48.848,-30.562 -55.069,-32.343 -6.226,-1.785 -16.982,-3.397 -21.693,-3.872 l -7.348,-6.842 c 0,0 -7.464,-8.754 -10.255,-13.056 -2.524,-3.925 1.172,-28.664 6.581,-42.74 -6.071,2.652 -13.38,1.541 -21.361,-2.787 20.283,-0.404 34.316,-18.417 33.794,-33.929 6.593,5.657 3.936,20.066 -0.819,26.443 12.283,6.795 51.571,4.34 72.051,-2.965 22.335,-7.992 68.405,-10.1 77.514,-6.496 -1.346,-0.407 -3.343,-0.568 -5.895,-0.558 7.21,0.517 14.167,1.922 20.569,4.808 v -10.337 c -1.12,-0.822 -2.354,-1.632 -3.832,-2.304 -3.454,-1.564 -7.851,-2.846 -11.068,-3.617 3.565,-3.185 6.757,-8.194 11.375,-9.298 1.148,0.632 2.357,1.455 3.524,2.405 v -11.576 z"
         id="path4016"
         style="fill:#008061" /></g><g
       id="g4018"><g
         id="g4020"><polygon
           points="362.82,43.495 354.154,60.119 359.835,60.119 "
           id="polygon4022"
           style="fill:#231f20" /><path
           d="m 186.264,60.286 c 1.605,-4.616 -0.441,-7.948 -1.606,-8.992 -0.986,0.119 -2.311,0.221 -3.343,0.265 l -6.558,18.98 c 5.345,-0.607 9.416,-4.181 11.507,-10.253 z"
           id="path4024"
           style="fill:#231f20" /><polygon
           points="132.298,43.495 123.649,60.119 129.326,60.119 "
           id="polygon4026"
           style="fill:#231f20" /><path
           d="m 269.273,33.193 c 0.264,-0.759 0.462,-1.851 -0.18,-2.723 -0.608,-0.902 -2.038,-1.419 -3.937,-1.529 l -3.213,9.284 c 3.527,-0.457 6.428,-2.396 7.33,-5.032 z"
           id="path4028"
           style="fill:#231f20" /><path
           d="m 193.261,33.193 c 0.264,-0.759 0.461,-1.851 -0.154,-2.723 -0.641,-0.902 -2.046,-1.419 -3.957,-1.529 l -3.213,9.284 c 3.514,-0.457 6.422,-2.396 7.324,-5.032 z"
           id="path4030"
           style="fill:#231f20" /><path
           d="m 262.275,60.286 c 1.613,-4.616 -0.441,-7.948 -1.623,-8.992 -0.974,0.119 -2.291,0.221 -3.326,0.265 l -6.553,18.98 c 5.344,-0.607 9.415,-4.181 11.502,-10.253 z"
           id="path4032"
           style="fill:#231f20" /><path
           d="m 444.005,169.425 c 0.964,-1.206 -2.312,-4.156 -1.759,-5.812 1.384,0.171 2.333,1.483 2.901,2.353 2.97,2.787 5.235,5.924 8.622,7.43 1.632,-1.81 -0.703,-5.25 -1.691,-6.419 -1.584,-1.853 -9.461,-12.3 -16.172,-15.898 -4.618,1.104 -7.81,6.113 -11.375,9.298 3.217,0.771 7.614,2.053 11.068,3.617 3.449,1.571 5.474,3.85 8.406,5.431 z"
           id="path4034"
           style="fill:#231f20" /><path
           d="m 521.911,37.175 c 0.645,-1.887 1.142,-4.463 -0.048,-6.14 -1.012,-1.422 -3.008,-1.854 -4.772,-1.941 l -7.059,20.465 c 3.364,-1.309 9.502,-5.591 11.879,-12.384 z"
           id="path4036"
           style="fill:#231f20" /></g><path
         d="m 561.117,98.497 h 6.134 l -3.802,12.372 c -0.767,2.467 -1.54,4.929 -2.332,7.372 v 61.892 C 585.98,127.286 608.638,67.37 626.7,0 h -65.583 v 19.239 c 5.058,-2.332 11.226,-3.607 18.036,-3.607 4.579,0 11.376,1.32 13.618,2.735 l -11.498,10.728 c -1.55,-0.406 -3.479,-0.798 -5.703,-0.798 -3.741,0 -6.313,1.823 -6.956,3.616 -1.252,3.606 1.059,6.626 5.97,12.586 l 0,0 c 5.677,6.844 8.4,12.405 5.562,20.593 -2.666,7.719 -9.615,13.598 -19.029,16.598 v 16.807 z m -24.427,0 h 24.427 V 81.688 c -4.507,1.455 -9.594,2.238 -15.046,2.238 -3.236,0 -6.475,-0.419 -9.38,-1.072 v 15.643 l -10e-4,0 z m 24.427,19.744 c -7.354,23.11 -15.6,45.025 -24.427,65.762 v 44.708 c 8.317,-15.484 16.48,-31.663 24.427,-48.578 v -61.892 l 0,0 z M 561.117,0 H 536.69 v 20.363 c 2.095,1.213 3.787,2.66 4.981,4.355 2.545,3.578 2.946,7.989 1.163,13.112 -1.472,4.266 -3.676,7.764 -6.144,10.613 v 25.271 l 4.736,-4.446 c 1.826,0.843 5.364,1.651 8.361,1.651 4.442,0 8.249,-2.011 9.26,-4.889 1.519,-4.437 -0.481,-7.906 -5.584,-14.01 -6.255,-7.626 -7.771,-12.785 -5.61,-19.072 2.088,-6.017 6.771,-10.729 13.264,-13.71 V 0 z m -50.604,98.497 h 26.178 V 82.854 c -2.787,-0.632 -5.277,-1.475 -7.213,-2.372 l 7.213,-6.768 V 48.443 c -4.618,5.353 -10.119,8.373 -13.246,9.781 1.656,2.011 4.056,5.501 5.043,9.683 1.301,5.346 -0.335,11.259 -1.831,15.587 l 0,0 h -16.145 v 15.003 l 10e-4,0 z m 26.177,85.506 c -8.265,19.449 -17.092,37.86 -26.178,55.207 v 20.662 c 1.871,1.838 3.746,3.685 5.48,5.49 6.974,-11.746 13.886,-23.961 20.698,-36.65 v -44.709 l 0,0 z M 536.69,0 h -26.178 v 16.062 h 5.496 c 8.76,0 15.843,1.505 20.682,4.302 V 0 z m -50.882,239.281 c 2,1.36 3.758,2.552 5.175,3.494 0.43,0.281 0.874,0.621 1.358,0.961 2.108,-12.853 3.1,-23.186 3.171,-28.248 0.81,-0.167 5.411,-2.652 5.98,-3.614 0.75,-3.468 0.988,-6.921 1.494,-10.731 -2.968,-2.884 -5.323,-7.35 -6.268,-11.785 0.197,-6.237 0.639,-13.523 1.536,-19.492 -1.251,-6.601 -2.702,-13.274 -4.528,-19.532 -0.994,-2.305 -4.42,-3.806 -7.919,-3.656 v 11.752 c 0.771,0.304 1.255,0.887 1.056,1.997 -0.347,0.166 -0.7,0.301 -1.056,0.392 v 11.902 c 0.242,-0.095 0.506,-0.178 0.771,-0.242 0.546,1.041 1.121,3.582 1.316,5.167 0.221,1.578 0.574,7.257 -0.26,10.673 -0.572,2.265 0.216,5.843 1.845,7.404 -1.213,-0.08 -2.417,-0.198 -3.672,-0.368 v 9.329 c 0.987,0.284 1.937,0.549 2.858,0.791 3.72,3.565 2.317,15.911 -0.75,22.497 l 0,0 c -0.722,-0.969 -1.455,-2.135 -2.107,-3.44 v 14.749 l 0,0 z m 0,-140.784 h 24.705 V 83.495 h -5.012 c 1.27,-3.696 2.064,-8.056 1.4,-10.752 -0.609,-2.464 -1.78,-4.428 -2.901,-5.764 l -5.716,16.516 h -12.476 v 15.002 l 0,0 z m 24.705,140.713 c -2.417,4.648 -4.881,9.202 -7.348,13.697 2.421,2.213 4.911,4.577 7.348,6.965 V 239.21 l 0,0 z m 0,-239.21 h -24.705 v 16.062 h 8.693 l -4.451,12.816 h -4.242 V 58.37 l 14.631,-42.308 h 10.074 V 0 l 0,0 z m -24.705,182.182 v -4.781 c 0.506,1.23 0.854,2.535 0.815,4.01 -0.092,0.429 -0.486,0.588 -0.815,0.771 z m -29.723,172.396 c 8.625,-11.393 17.383,-23.497 26.182,-36.324 -2.819,-2.111 -5.869,-4.252 -9.088,-6.359 -5.657,-3.668 -11.681,-7.193 -17.093,-10.145 v 11.555 c 3.053,1.234 5.717,3.236 6.93,4.597 -1.831,2.123 -4.269,4.411 -6.93,6.084 v 30.592 l -0.001,0 z m 0,-133.322 c 11.22,5.518 22.264,12.942 29.723,18.025 v -14.749 c -2.707,-5.439 -4.471,-13.215 -3.146,-18.025 -2.819,1.224 -6.159,4.075 -8.144,6.211 -1.031,-3.036 -2.722,-7.638 -5.06,-9.963 -1.32,1.957 -4.265,5.073 -6.313,5.892 -1.605,-2.203 -3.103,-5.769 -4.198,-8.484 -0.71,0.992 -1.724,2.111 -2.863,3.171 v 17.922 l 10e-4,0 z m 29.723,-74.577 c -0.196,0.014 -0.399,0.024 -0.6,0.039 -7.611,1.957 -15.856,3.199 -23.098,6.528 -1.432,-1.938 -2.81,-5.824 -6.025,-10.25 v 16.812 l 0.788,1.026 c 2.201,2.54 1.854,10.168 3.455,13.039 0.424,0 1.387,0.102 1.475,-0.784 -0.617,-6.112 15.309,-14.532 20.286,-14.883 0.799,-0.056 2.551,-0.245 3.72,0.226 v -11.753 l -0.001,0 z M 456.085,98.497 h 29.723 V 83.495 h -8.697 L 485.808,58.37 V 28.877 h -16.126 l -7.523,21.705 h 16.52 l -4.44,12.825 h -16.504 l -1.648,4.785 v 2.476 h 19.518 l -4.43,12.827 0,0 h -15.088 v 15.002 l -0.002,0 z M 485.808,0 h -29.723 v 16.062 h 29.723 V 0 l 0,0 z m 0,160.819 v 11.902 c -0.656,0.242 -1.276,0.608 -1.739,1.293 0.617,1.145 1.254,2.229 1.739,3.386 v 4.781 h -0.024 c -2.992,-4.108 -10.672,-11.509 -14.257,-14.128 1.632,-2.348 4.224,-3.616 6.339,-6.116 2.507,-1.672 5.278,-0.43 7.942,-1.118 l 0,0 z m 0,34.537 v 9.329 c -7.724,-2.186 -17.228,-5.28 -21.409,-6.83 -2.091,-0.794 -5.085,-2.146 -8.314,-3.775 v -7.894 c 8.314,3.981 19.54,7.81 29.723,9.17 z m -48.38,183.006 c 6.11,-7.562 12.36,-15.491 18.657,-23.785 v -30.591 c -2.465,1.541 -5.082,2.564 -7.55,2.486 -3.431,-0.1 -7.695,-2.593 -10.625,-4.361 -0.154,0.123 -0.306,0.23 -0.482,0.344 v 9.951 c 0.57,-0.313 1.051,-0.685 1.494,-1.083 3.822,2.363 9.99,3.968 14.455,3.498 -5.806,3.554 -11.941,5.081 -15.949,5.455 v 38.086 l 0,0 z m 18.657,-76.612 c -3.517,-1.913 -6.793,-3.585 -9.549,-4.914 -2.64,-1.276 -5.759,-2.676 -9.107,-4.083 v 19.604 c 0.24,-0.254 0.482,-0.501 0.7,-0.735 1.301,1.747 2.513,3.949 2.662,6.064 3.59,0.832 9.943,-2.851 11.6,-5.362 1.254,0.152 2.498,0.518 3.695,0.982 V 301.75 l -0.001,0 z m -18.657,-84.743 c 0.66,-1.012 1.268,-1.783 1.758,-2.183 5.392,1.277 11.18,3.612 16.899,6.432 v -17.922 c -1.035,0.929 -2.208,1.81 -3.41,2.505 -2.404,-2.697 -5.961,-9.49 -6.471,-14.051 -2.688,1.513 -5.807,5.438 -8.775,10.062 v 15.157 l -10e-4,0 z m 18.657,-74.011 c -3.035,-4.159 -7.68,-8.781 -15.511,-12.675 -1.083,0.012 -2.134,0.063 -3.146,0.155 v 11.214 c 1.43,0.062 2.771,0.281 3.83,0.75 5.495,5.942 10.057,11.334 14.827,17.367 v -16.811 l 0,0 z M 437.428,98.497 h 18.657 V 83.495 h -18.657 v 15.002 l 0,0 z M 456.085,0 h -18.657 v 16.062 h 7.783 l -7.783,11.144 v 23.376 h 3.589 l 11.942,-34.521 h 3.125 V 0 l 10e-4,0 z m 0,68.191 v 2.476 h -0.86 l 0.86,-2.476 0,0 z m 0,117.994 v 7.894 c -4.046,-2.032 -8.471,-4.479 -11.964,-6.633 -1.619,-0.988 -4.1,-2.134 -6.693,-2.854 v -8.808 c 3.431,1.364 6.732,3.128 9.855,5.374 2.178,1.572 5.213,3.303 8.802,5.027 z m -27.678,203.08 c 2.989,-3.562 5.985,-7.187 9.021,-10.902 v -38.087 c -0.66,0.052 -1.279,0.091 -1.807,0.091 l 0,0 c -1.689,0.02 -4.25,-0.159 -7.215,-0.486 v 15.711 c 2.249,0.156 4.882,0.196 7.127,-0.077 -2.396,3.069 -4.772,6.077 -7.127,9.009 v 24.741 l 10e-4,0 z m 9.021,-96.513 c -2.886,-1.206 -5.942,-2.418 -9.021,-3.578 v 29.308 c 2.989,-1.087 6.577,-3.806 9.021,-6.127 v -19.603 l 0,0 z m -9.021,-60.515 c 0.684,0.479 1.408,0.94 2.155,1.393 0.04,-3.867 4.022,-12.386 6.866,-16.623 V 201.85 c -3.61,5.598 -6.997,12.215 -9.021,16.782 v 13.605 l 0,0 z m 9.021,-101.76 c -3.214,0.264 -6.203,0.856 -9.021,1.672 v 10.483 c 1.976,-0.431 5.721,-1.103 9.021,-0.941 v -11.214 l 0,0 z m -9.021,-31.98 h 9.021 V 83.495 h -7.785 l 6.949,-20.088 h -5.019 l 4.439,-12.825 h 1.416 V 27.206 L 428.407,40.1 v 58.397 l 0,0 z M 437.428,0 h -9.021 v 16.062 h 9.021 V 0 l 0,0 z m 0,175.784 v 8.808 c -2.428,-0.641 -4.931,-0.94 -6.973,-0.4 -0.733,0.182 -1.435,0.455 -2.048,0.749 v -11.828 c 3.079,0.648 6.115,1.521 9.021,2.671 l 0,0 z m 0,146.671 v 9.951 c -2.428,1.358 -5.942,2.001 -9.021,1.676 v -9.242 c 2.771,0.21 5.985,-0.425 9.021,-2.385 z m -22.006,81.919 c 4.274,-4.848 8.585,-9.886 12.985,-15.109 v -24.742 c -4.447,5.527 -8.775,10.765 -12.985,15.701 v 24.15 l 0,0 z m 12.985,-115.199 c -4.399,-1.631 -8.842,-3.153 -12.985,-4.316 v 29.119 c 2.727,-2.001 5.371,-3.668 6.451,-4.349 l 0,0 c 0.197,3.969 2.27,8.689 3.605,9.309 0.832,0.126 1.831,-0.052 2.928,-0.454 v -29.309 l 10e-4,0 z m -12.985,-74.351 c 2.448,6.218 6.007,12.555 12.985,17.413 v -13.604 c -0.462,1.031 -0.857,1.983 -1.189,2.762 -6.625,-7.897 -7.123,-20.287 -4.361,-30.675 0.823,-1.818 2.559,-4.344 5.551,-5.778 v -11.828 c -3.108,-0.633 -6.289,-1.055 -9.546,-1.286 -1.063,0 -2.201,0.04 -3.438,0.123 v 42.873 l -0.002,0 z m 12.985,-82.676 c -5.036,1.475 -9.396,3.66 -12.985,5.873 v 12.454 c 3.526,-1.915 7.987,-7.072 11.575,-7.519 0,0 0.553,-0.135 1.41,-0.324 v -10.484 l 0,0 z M 415.422,98.497 h 12.985 V 40.1 l -12.985,18.593 v 11.975 h 10.672 l -4.418,12.827 0,0 h -6.254 v 15.002 l 0,0 z M 428.407,0 h -12.985 v 16.062 h 12.985 V 0 l 0,0 z m 0,324.839 v 9.242 c -2.443,-0.253 -4.616,-1.096 -5.72,-2.649 -2.53,0.636 -4.969,0.823 -7.265,0.681 v -7.854 c 2.778,0.24 5.589,-0.033 7.434,-1.325 1.326,1.012 3.287,1.742 5.551,1.905 l 0,0 z m 0,15.041 v 15.711 c -1.541,-0.101 -2.904,-0.273 -3.768,-0.441 -1.202,1.29 -2.458,2.462 -3.806,3.507 -1.711,1.353 -3.517,2.519 -5.411,3.526 v -24.295 c 0.442,0.1 0.843,0.176 1.283,0.254 4.002,0.728 8.136,1.348 11.702,1.738 l 0,0 z M 415.422,159.15 v -5.795 c 1.213,1.937 3.061,4.174 3.28,4.82 -0.245,0.597 -0.725,1.379 -1.208,1.719 -0.619,-0.25 -1.319,-0.49 -2.072,-0.744 z m -8.048,254.211 c 2.66,-2.915 5.325,-5.91 8.048,-8.987 v -24.15 l -1.847,2.139 0,0 c -2.066,2.424 -4.131,4.795 -6.202,7.12 v 23.878 l 0.001,0 z m 8.048,-128.503 c -0.676,-0.2 -1.341,-0.38 -1.977,-0.553 -0.193,-4.736 -2.289,-11.389 -4.048,-14.495 -0.53,1.021 -1.206,2.149 -2.023,3.319 v 17.247 c 0.088,1.317 0.088,2.658 0,3.993 v 27.26 c 1.1,-2.242 4.665,-5.199 8.048,-7.652 v -29.119 l 0,0 z m -8.048,-73.773 c 2.071,-1.329 3.916,-2.678 5.364,-3.89 0.822,2.439 1.657,5.02 2.685,7.628 V 171.95 c -2.397,0.128 -5.1,0.368 -8.048,0.7 v 8.253 c 1.276,0.436 2.139,1.278 2,2.783 -0.224,2.29 -0.924,5.346 -2,8.591 v 18.808 l -10e-4,0 z m 8.048,-73.064 c -3.383,2.092 -6.089,4.214 -8.048,5.783 v 13.172 c 2.857,0.66 5.744,1.417 8.048,2.174 v -5.795 c -0.59,-0.933 -1.027,-1.817 -1.052,-2.423 0.328,-0.105 0.68,-0.256 1.052,-0.457 v -12.454 l 0,0 z m -8.048,-39.524 h 8.048 V 83.495 h -8.048 v 15.002 l 0,0 z M 415.422,0 h -8.048 v 16.062 h 8.048 V 0 l 0,0 z m 0,58.693 v 11.975 h -8.048 v -0.479 l 8.048,-11.496 0,0 z m 0,265.566 v 7.854 c -2.989,-0.199 -5.72,-0.945 -8.048,-1.933 v -8.362 c 1.204,1.015 4.577,2.128 8.048,2.441 l 0,0 z m 0,13.628 v 24.295 c -2.523,1.304 -5.206,2.317 -7.984,3.088 2.114,-4.744 2.971,-11.287 1.521,-16.204 -0.485,0.313 -1.012,0.608 -1.584,0.909 v -14.456 c 2.855,0.986 5.587,1.832 8.047,2.368 l 0,0 z M 407.374,36.995 v -8.118 h 5.677 l -5.677,8.118 z m -23.829,401.588 c 7.55,-7.654 15.555,-16.057 23.829,-25.222 v -23.878 c -8.273,9.388 -16.279,17.973 -23.829,25.753 v 23.347 l 0,0 z m 23.829,-165.454 c -4.135,6.088 -11.18,13.644 -15.973,16.575 0.987,-5.601 -1.1,-20.01 -3.76,-24.123 -0.755,1.414 -2.289,3.047 -4.095,4.588 v 8.91 c 0.158,-0.119 0.289,-0.24 0.415,-0.359 1.197,4.442 1.127,9.727 -0.415,14.314 v 6.514 h 0.023 c 6.795,1.577 16.59,-6.694 22.88,-14.567 0.506,1.752 0.814,3.573 0.925,5.395 v -17.247 l 0,0 z m -23.829,-62.373 c 2.44,-2.288 4.579,-4.628 6.296,-6.513 1.78,3.125 0.945,12.652 -1.078,15.005 2.901,0.542 11.792,-3.755 18.611,-8.162 v -18.809 c -2.329,7.106 -6.322,15.091 -10.166,17.686 l 0,0 c 0.682,-7.195 -1.054,-16.073 -6.073,-21.956 -1.846,4.441 -4.661,8.8 -7.59,12.48 v 10.269 l 0,0 z m 23.829,-66.952 c -1.23,1.03 -2.177,1.812 -2.772,2.227 -3.387,-2.277 -8.828,-14.192 -11.644,-17.59 -4.306,-1.472 -7.101,-2.19 -9.413,-1.688 v 14.891 c 0.158,-0.035 0.289,-0.064 0.415,-0.09 l 0,0 4.76,4.72 -0.18,0.264 c -1.695,-0.189 -3.367,-0.275 -4.995,-0.427 v 8.567 c 5.325,-0.104 10.206,-0.044 13.492,0.35 l 0,0 c 2.481,0.313 6.419,1.028 10.337,1.949 v -13.173 l 0,0 z M 383.545,98.497 h 23.829 V 83.495 h -23.829 v 15.002 l 0,0 z M 407.374,0 h -23.829 v 16.062 h 0.375 l -0.375,3.177 v 51.899 l 23.829,-34.143 v -8.118 h -11.001 l 4.447,-12.816 h 6.555 V 0 l -10e-4,0 z m 0,70.188 v 0.479 h -0.305 l 0.305,-0.479 0,0 z m 0,102.462 v 8.253 c -2.023,-0.707 -5.128,-0.422 -6.97,-0.222 -2.206,0.222 -8.783,1.463 -16.859,3.048 v -7.424 c 8.736,-1.549 16.97,-2.86 23.829,-3.655 l 0,0 z m 0,121.719 v 27.26 l -0.047,0.131 0.047,0.059 v 8.362 c -1.72,-0.733 -3.254,-1.605 -4.515,-2.495 -4.66,0.253 -12.182,-1.348 -19.313,-5.395 V 304.83 c 3.677,4.966 4.865,7.175 9.926,8.4 2.197,0.435 4.618,0.648 6.353,-0.617 4.334,-4.799 7.11,-11.451 7.549,-18.244 l 0,0 z m 0,41.152 c -5.589,-1.887 -11.706,-4.289 -17.383,-5.882 -2.375,-0.933 -4.552,-2.167 -6.446,-3.684 v 17.878 c 2.312,-0.39 4.424,-0.959 5.94,-1.56 1.566,1.644 0.506,10.653 -1.251,12.894 4.428,0.478 12.956,-1.873 19.14,-5.19 v -14.456 l 0,0 z m -23.829,65.848 v -18.935 c 2.972,3.086 5.916,6.253 8.779,9.46 -0.067,0.082 -0.154,0.176 -0.218,0.271 -2.731,2.958 -5.392,5.843 -8.013,8.609 -0.174,0.175 -0.307,0.333 -0.485,0.499 l -0.063,0.096 z m -51.042,83.964 c 12.409,-10.119 30.119,-25.594 51.042,-46.75 v -23.348 c -21.496,22.097 -39.554,37.708 -51.042,47.013 v 23.085 l 0,0 z m 51.042,-215.164 c -3.253,2.76 -7.349,5.214 -9.222,5.536 1.392,-7.141 -1.845,-16.623 -7.163,-21.143 -3.02,3.757 -7.488,6.452 -11.005,7.654 0.963,-9.008 -4.377,-20.578 -10.362,-24.358 -1.366,4.74 -6.32,11.179 -10.494,14.658 0.019,-3.655 -0.835,-7.957 -2.796,-11.882 v 20.354 c 1.981,-0.075 3.785,-0.768 5.678,-1.604 3.806,-1.695 8.269,-9.769 8.269,-9.769 3.329,4.002 3.613,14.452 1.102,19.133 6.642,3.087 15.841,-1.253 18.504,-3.699 2.901,4.112 1.051,15.254 -0.399,17.773 5.72,1.992 14.345,-0.859 17.888,-3.741 v -8.912 l 0,0 z m -51.042,-50.048 c 5.172,-2.632 9.967,-7.163 13.041,-12.158 2.559,2.529 2.164,6.224 1.744,8.664 8.056,-0.81 16.61,-7.274 19.737,-12.448 2.551,3.189 1.387,13.286 -0.091,15.484 5.985,-0.229 11.856,-4.463 16.61,-8.907 v -10.269 c -2.921,3.657 -6.009,6.641 -8.341,8.336 -0.261,-8.514 -1.973,-12.961 -7.788,-18.034 -2.685,7.018 -9.067,14.354 -14.65,16.215 0.506,-2.885 -4.442,-10.451 -7.984,-13.032 -3.744,9.487 -8.182,15.311 -12.279,18.013 v 8.136 l 10e-4,0 z m 51.042,-93.369 c -0.723,0.146 -1.408,0.411 -2.044,0.822 -3.02,2.404 -6.027,3.858 -9.202,5.831 -4.569,-8.19 -15.974,-21.321 -20.495,-24.589 -0.336,-0.252 -0.728,-0.505 -1.108,-0.753 -5.205,-3.471 -13.108,-6.989 -17.334,-7.934 -0.287,-0.09 -0.569,-0.114 -0.858,-0.079 v 14.54 c 2.815,0.145 5.172,0.544 6.556,1.368 l 0,0 c 6.229,2.375 17.448,13.115 22.638,17.056 2.909,2.534 3.301,9.582 5.06,12.619 0,0 -3.998,-2.08 -8.689,-5.629 -3.937,-2.984 -16.166,-12.728 -25.564,-16.223 v 12.55 c 2.642,0.7 5.631,1.89 8.867,3.646 3.717,2.019 7.301,6.676 10.963,9.292 -7.205,0.774 -13.82,0.964 -19.83,1.435 v 5.436 c 7.726,-0.761 16.105,-1.063 23.213,-0.282 5.019,-0.149 17.29,-0.985 27.829,-1.181 v -8.567 c -1.783,-0.173 -3.498,-0.403 -5.167,-0.862 1.277,-1.671 3.384,-3.185 5.167,-3.604 v -14.892 l -0.002,0 z M 332.503,98.497 h 51.042 V 83.495 h -27.259 l 1.627,-10.55 h -10.47 l -5.653,10.55 h -9.287 v 15.002 l 0,0 z M 383.545,0 h -51.042 v 65.47 l 28.095,-49.409 h 22.947 V 0 l 0,0 z m 0,19.239 v 51.899 l -7.791,11.132 7.791,-63.031 0,0 z m 0,157.067 v 7.424 c -15.753,3.099 -37.138,7.535 -42.546,8.419 -1.961,0.328 -4.914,0.909 -8.496,1.609 v -7.273 c 14.7,-3.075 33.862,-7.123 51.042,-10.179 l 0,0 z m 0,116.729 v 6.514 c -0.266,-0.08 -2.218,-0.752 -2.289,-1.861 0.971,-1.417 1.744,-2.986 2.289,-4.653 l 0,0 z m 0,11.794 v 17.461 c -2.087,-1.191 -4.155,-2.582 -6.091,-4.214 1.336,3.125 3.453,5.767 6.091,7.878 v 17.878 c -4.443,0.755 -9.542,0.897 -12.273,-0.474 3.873,-2.182 4.728,-5.877 4.818,-9.594 -6.648,1.164 -12.961,-1.208 -12.961,-1.208 -3.366,-10.433 -17.291,-24.371 -22.307,-28.141 -1.676,-1.267 -4.713,-3.097 -8.318,-5.084 v -18.587 c 6.402,3.043 12.936,6.515 18.857,10.227 -5.831,-5.641 -12.365,-10.567 -18.857,-14.773 v -12.942 l 0.709,0.365 c 18.768,9.135 40.681,29.255 47.166,37.153 1.257,1.529 2.268,2.869 3.166,4.055 l 0,0 z m 0,77.605 v 18.935 c -2.638,2.774 -5.214,5.472 -7.769,8.064 0,0.012 0,0.012 -0.022,0.043 -13.615,-0.296 -30.315,2.984 -43.251,7.163 v -13.602 c 16.721,-4.463 34.938,-5.827 46.397,-5.648 -8.516,-8.883 -16.722,-17.092 -25.853,-24.722 l 0,0 c -7.084,-0.929 -13.903,-0.866 -20.545,-0.036 v -12.353 c 1.91,-0.191 3.854,-0.308 5.77,-0.358 -1.634,-1.116 -3.617,-2.319 -5.77,-3.578 v -19.477 c 5.298,3.917 10.666,8.013 16.022,12.381 6.71,5.474 20.917,18.466 35.021,33.188 l 0,0 z m -51.042,67.37 v -4.497 c 0.834,0.817 1.654,1.612 2.507,2.382 l -2.507,2.115 z m -34.52,38.913 c 9.767,7.587 15.381,11.283 15.381,11.283 0,0 7.044,-4.796 19.139,-14.667 v -23.085 c -8.031,6.513 -12.866,9.946 -13.419,10.34 l -5.518,3.878 -5.479,-3.878 c -0.506,-0.347 -4.072,-2.877 -10.103,-7.668 v 23.797 l -10e-4,0 z m 34.52,-248.084 c -1.623,-3.27 -4.027,-6.293 -7.308,-8.446 -1.446,5.653 -7.494,11.309 -10.779,13.526 -1.427,-5.19 -5.721,-14.768 -11.653,-16.603 -0.989,2.043 -2.685,4.594 -4.779,6.812 v 8.716 c 2.536,-1.771 4.751,-3.782 5.744,-5.598 l 0,0 c 3.055,3.736 5.876,10.521 2.312,14.539 -2.618,-0.81 -5.349,-1.521 -8.056,-2.167 v 7.746 c 5.941,1.995 20.128,7.728 34.52,17.04 v -12.942 c -8.841,-4.375 -21.846,-8.474 -21.846,-8.474 6.118,-1.143 13.462,-6.567 15.509,-11.398 l 0,0 c 3.06,4.511 2.112,13.314 1.476,16.569 1.783,0.808 3.368,1.102 4.861,1.035 v -20.355 l -0.001,0 z m -34.52,-18.678 c 12.432,-0.783 17.187,-7.704 21.188,-13.666 4.031,3.33 5.392,8.405 4.463,14.195 2.925,-0.022 5.962,-0.881 8.869,-2.363 v -8.136 c -0.832,0.554 -1.672,0.997 -2.489,1.292 -0.771,-5.58 -5.494,-11.269 -13.286,-14.728 -4.729,9.91 -11.203,14.231 -14.428,15.864 -0.221,-3.158 -1.764,-6.716 -4.316,-9.622 v 17.164 l -10e-4,0 z m 34.52,-121.905 c -1.493,0.143 -2.907,1.712 -3.058,3.167 -3.788,-0.562 -9.878,-0.372 -13.705,-0.053 -2.31,-1.354 -4.618,-3.007 -7.062,-4.667 h 23.825 V 83.495 h -34.52 v 48.021 c 1.228,-5.451 2.794,-10.7 7.415,-13.977 4.095,-1.028 18.084,-3.404 27.104,-2.949 v -14.54 l 10e-4,0 z m 0,-100.05 h -34.52 v 39.855 l 8.229,-23.793 h 21.146 l -18.876,54.606 h 19.14 l -3.06,8.768 7.94,-13.965 V 0 l 10e-4,0 z m 0,123.78 v 12.55 c -4.462,-1.201 -7.94,-1.012 -10.07,0.206 -3.615,2.075 -14.306,11.214 -9.444,18.59 0,0 2.901,-1.266 7.835,-2.655 0.178,-0.061 0.418,-0.073 0.611,-0.128 l 0,0 c 2.16,-5.475 5.35,-10.989 8.805,-14.23 -0.902,4.249 -0.593,8.566 0.703,12.725 l 1.561,-0.135 v 5.436 c -7.719,0.758 -14.802,1.973 -19.379,3.023 -4.753,1.091 -10.255,2.937 -15.141,4.855 v -13.559 c 1.012,0.445 1.959,0.7 2.971,0.354 -0.288,-5.565 6.777,-17.622 12.385,-21.397 4.202,-1.975 10.033,-2.106 16.306,-1.422 0,-2.405 -2.49,-5.479 -2.49,-5.479 1.59,0.072 3.411,0.537 5.347,1.266 l 0,0 z m 0,62.706 v 7.273 c -9.462,1.885 -23.254,4.652 -34.52,5.946 v -7.257 c 4.379,-0.392 8.827,-1.018 13.246,-1.712 4.048,-0.66 11.724,-2.242 21.274,-4.25 l 0,0 z m 0,94.258 v 18.587 c -6.134,-3.4 -13.949,-7.246 -19.534,-9.492 -3.476,-1.375 -8.803,-3.078 -14.986,-4.652 V 268.07 c 1.406,0.285 2.727,0.582 3.96,0.878 5.83,1.389 17.951,5.775 30.56,11.796 l 0,0 z m 0,56.12 v 19.477 c -9.854,-5.792 -23.605,-12.927 -28.23,-19.223 -2.131,0.323 -4.218,0.714 -6.289,1.18 v -26.546 c 10.102,7.901 22.089,15.96 34.519,25.112 l 0,0 z m 0,23.414 v 12.353 c -12.122,1.518 -23.582,5.592 -34.52,10.831 v -13.133 c 10.982,-5.288 22.439,-8.913 34.52,-10.051 l 0,0 z m 0,42.759 v 13.602 c -8.778,2.842 -15.813,6.099 -18.962,8.946 6.882,5.435 12.342,13.155 18.962,19.722 v 4.497 c -11.838,9.981 -18.938,14.979 -18.938,14.979 0,0 -0.135,-0.111 -0.38,-0.281 -0.086,-0.052 -0.154,-0.111 -0.282,-0.189 -0.2,-0.166 -0.485,-0.368 -0.841,-0.62 -0.219,-0.163 -0.435,-0.325 -0.7,-0.53 -0.354,-0.265 -0.777,-0.569 -1.213,-0.914 -0.331,-0.245 -0.616,-0.451 -0.988,-0.732 -0.77,-0.592 -1.612,-1.24 -2.569,-1.997 -0.491,-0.361 -1.011,-0.793 -1.542,-1.212 -0.592,-0.459 -1.197,-0.928 -1.829,-1.446 -0.66,-0.518 -1.32,-1.056 -2.025,-1.63 -0.613,-0.506 -1.253,-1.012 -1.914,-1.553 l -1.299,-1.08 v -48.562 c 3.277,3.697 6.731,7.262 9.566,9.539 6.938,-4.641 15.717,-8.069 24.954,-10.539 z m -40.457,80.995 c 2.106,1.692 4.091,3.253 5.938,4.685 V 464.92 c -1.784,-1.408 -3.76,-3.001 -5.938,-4.806 v 23.918 l 0,0 z m 5.937,-248.111 c -1.784,1.874 -3.831,3.526 -5.938,4.45 v 7.653 c 1.912,-0.857 4.022,-2.051 5.938,-3.388 v -8.715 l 0,0 z m -5.937,-27.429 c 3.011,3.636 5.383,10.032 5.454,13.486 l 0.484,-0.024 v -17.163 c -1.605,-1.833 -3.629,-3.415 -5.938,-4.478 v 8.179 l 0,0 z M 297.983,0 h -5.938 v 57.033 l 5.938,-17.178 V 0 l 0,0 z m 0,83.495 v 48.021 c -1.293,5.748 -2.241,11.733 -5.938,15.911 v -27.754 c 0.285,-0.289 0.549,-0.545 0.767,-0.786 -0.242,-0.514 -0.506,-1.084 -0.767,-1.697 V 83.495 h 5.938 l 0,0 z m 0,66.963 v 13.559 c -2.136,0.826 -4.159,1.684 -5.938,2.47 V 148.26 c 2.531,0.19 4.309,1.443 5.938,2.198 l 0,0 z m 0,41.99 v 7.257 c -2.087,0.241 -4.072,0.426 -5.938,0.545 v -7.387 c 1.962,-0.092 3.938,-0.239 5.938,-0.415 l 0,0 z m 0,58.963 v 7.746 c -0.66,-0.218 -1.229,-0.395 -1.692,-0.529 -1.253,-0.361 -2.708,-0.7 -4.245,-1.052 v -7.48 c 1.961,0.42 3.96,0.847 5.937,1.315 l 0,0 z m 0,16.659 v 17.117 c -1.915,-0.491 -3.913,-0.966 -5.938,-1.409 v -16.843 c 2.091,0.365 4.075,0.736 5.938,1.135 l 0,0 z m 0,43.682 v 26.546 c -2,0.458 -3.977,0.965 -5.938,1.582 v -10.511 c 0.969,-0.403 1.912,-0.794 2.861,-1.213 -0.972,-0.812 -1.912,-1.665 -2.861,-2.538 V 306.92 c 1.891,1.604 3.874,3.214 5.938,4.832 l 0,0 z m 0,58.577 v 13.133 c -2,0.948 -3.977,1.945 -5.938,2.973 v -13.058 c 1.962,-1.071 3.938,-2.083 5.938,-3.048 l 0,0 z m 0,33.708 v 48.562 l -1.142,-0.933 c -0.618,-0.493 -1.253,-1.05 -1.894,-1.582 -0.921,-0.793 -1.914,-1.604 -2.901,-2.465 v -50.547 c 1.778,2.161 3.827,4.593 5.937,6.965 z M 286.74,479.72 c 1.854,1.518 3.63,2.949 5.306,4.312 v -23.918 c -1.676,-1.353 -3.435,-2.824 -5.306,-4.401 v 24.007 l 0,0 z m 5.306,-239.348 c -0.945,0.415 -1.895,0.681 -2.858,0.783 -0.882,0.081 -1.7,0.017 -2.448,-0.176 v 15.561 c 1.822,0.318 3.606,0.672 5.306,1.037 v -7.48 l -3.763,-0.783 c 1.05,-0.196 2.36,-0.644 3.763,-1.288 v -7.654 l 0,0 z m -5.306,-31.32 c 0.705,-1.32 1.389,-2.406 2.068,-3.085 1.103,0.39 2.227,1.292 3.238,2.526 v -8.179 l -0.135,-0.052 0.135,-0.012 v -7.387 c -1.784,0.074 -3.561,0.122 -5.306,0.098 v 16.091 l 0,0 z M 292.046,0 h -5.306 v 21.979 c 0.812,0.664 1.475,1.395 2.025,2.177 2.004,2.807 2.4,6.226 1.146,9.871 -0.723,2.032 -1.758,3.91 -3.17,5.641 v 32.624 l 5.306,-15.259 V 0 l -0.001,0 z m 0,83.495 v 33.695 c -1.108,-2.489 -2.31,-5.7 -3.171,-9.127 -0.793,-3.103 -1.292,-6.412 -1.161,-9.565 H 286.74 V 83.495 h 5.306 l 0,0 z m 0,36.177 v 27.754 c -0.266,0.276 -0.526,0.553 -0.795,0.819 0.269,-0.011 0.529,0 0.795,0.015 v 18.227 c -1.234,0.555 -2.376,1.092 -3.372,1.586 1.696,-2.837 2.264,-5.881 2.202,-8.388 -1.076,-1.004 -2.482,-2.049 -4.136,-3.091 v -30.925 c 1.693,-2.076 3.768,-4.419 5.306,-5.997 l 0,0 z m 0,147.264 v 16.843 c -1.74,-0.387 -3.499,-0.75 -5.306,-1.081 v -16.595 c 1.822,0.26 3.59,0.54 5.306,0.833 l 0,0 z m 0,39.983 v 18.698 c -1.807,-1.644 -3.561,-3.364 -5.306,-5.139 v -18.282 c 1.677,1.582 3.459,3.154 5.306,4.723 l 0,0 z m 0,22.45 v 10.511 c -1.784,0.538 -3.546,1.142 -5.306,1.811 v -10.282 c 1.784,-0.66 3.542,-1.34 5.306,-2.04 l 0,0 z m 0,44.008 v 13.058 c -1.784,0.925 -3.546,1.87 -5.306,2.842 v -12.899 c 1.76,-1.036 3.522,-2.035 5.306,-3.001 l 0,0 z m 0,23.694 v 50.547 l -2.796,-2.397 c -0.592,-0.517 -1.186,-1.01 -1.777,-1.553 l -0.733,-0.608 v -52.604 c 0.949,1.235 2.89,3.69 5.306,6.615 z m -10.52,78.289 c 1.807,1.542 3.565,2.968 5.213,4.36 v -24.007 c -1.648,-1.403 -3.383,-2.901 -5.213,-4.489 v 24.136 l 0,0 z m 5.214,-234.382 c -2.661,-0.725 -4.356,-3.183 -5.213,-6.033 v 20.729 c 1.672,0.252 3.451,0.548 5.213,0.864 v -15.56 l 0,0 z m -5.214,-16.054 c 0.995,-4.522 3.02,-11.524 5.213,-15.873 V 192.96 c -1.781,-0.011 -3.493,-0.084 -5.213,-0.215 v 32.179 l 0,0 z M 286.74,0 h -5.213 v 18.892 c 2.07,0.85 3.831,1.89 5.213,3.088 V 0 l 0,0 z m 0,39.668 v 32.624 l -3.868,11.203 h 3.868 v 15.002 h -5.213 V 65.67 c 0.776,-1.443 1.455,-2.979 2.024,-4.64 2.223,-6.384 0.442,-11.578 -2.024,-14.686 v -1.957 c 2.086,-1.409 3.83,-2.991 5.213,-4.719 l 0,0 z m 0,86 v 30.925 c -1.536,-0.997 -3.3,-1.982 -5.213,-2.939 v -44.76 c 6.073,7.897 3.502,19.048 3.502,19.048 0.459,-0.681 1.075,-1.451 1.711,-2.274 l 0,0 z m 0,140.434 v 16.595 c -1.711,-0.32 -3.478,-0.617 -5.213,-0.875 V 265.43 c 1.76,0.202 3.501,0.432 5.213,0.672 l 0,0 z m 0,36.095 v 18.282 c -1.735,-1.805 -3.493,-3.681 -5.213,-5.549 V 296.8 c 1.604,1.821 3.341,3.614 5.213,5.397 l 0,0 z m 0,29.212 v 10.282 c -1.735,0.672 -3.493,1.403 -5.213,2.206 v -10.562 c 1.735,-0.637 3.501,-1.278 5.213,-1.926 l 0,0 z m 0,44.968 v 12.899 l -0.612,0.351 0.612,0.829 v 52.604 c -0.9,-0.791 -1.821,-1.634 -2.775,-2.476 -0.718,-0.62 -1.403,-1.24 -2.133,-1.883 l -0.306,-0.282 v -58.792 c 1.736,-1.115 3.479,-2.202 5.214,-3.25 z m -13.705,91.698 c 2.974,2.579 5.812,5.02 8.492,7.285 v -24.135 c -2.66,-2.33 -5.494,-4.832 -8.492,-7.531 v 24.381 l 0,0 z m 8.491,-233.13 c -0.637,-2.155 -0.838,-4.543 -0.637,-6.579 0.091,-0.771 0.309,-1.971 0.637,-3.442 v -32.179 c -2.988,-0.229 -5.831,-0.648 -8.492,-1.315 v 61.15 c 0.973,1.35 1.563,2.176 1.563,2.176 1.691,0.175 4.158,0.494 6.929,0.918 v -20.729 l 0,0 z M 281.526,0 h -8.492 v 16.667 c 3.214,0.469 6.072,1.23 8.492,2.225 V 0 l 0,0 z m 0,44.388 v 1.957 c -0.352,-0.465 -0.724,-0.886 -1.123,-1.24 0.399,-0.238 0.772,-0.48 1.123,-0.717 l 0,0 z m 0,21.282 v 32.827 h -8.492 V 75.309 c 3.385,-2.463 6.314,-5.617 8.492,-9.639 l 0,0 z m 0,43.224 v 44.76 c -2.569,-1.274 -5.456,-2.485 -8.492,-3.532 v -26.797 c 0.685,-2.64 1.606,-5.005 2.815,-6.724 -0.767,-1.162 -1.711,-2.396 -2.815,-3.668 v -12.171 c 3.456,2.842 6.165,5.4 7.784,7.301 0.178,0.202 0.38,0.419 0.53,0.61 l 0,0 0.178,0.221 0,0 z m 0,156.536 v 16.392 c -2.861,-0.44 -5.696,-0.781 -8.492,-0.998 v -16.137 c 2.797,0.162 5.631,0.414 8.492,0.743 l 0,0 z m 0,31.37 v 18.129 c -1.959,-2.113 -3.913,-4.266 -5.897,-6.365 -0.854,0.04 -1.715,0.09 -2.594,0.175 v -24.663 c 1.985,4.434 4.859,8.636 8.491,12.724 l 0,0 z m 0,36.534 v 10.562 c -2.88,1.339 -5.72,2.871 -8.492,4.566 v -11.981 c 2.816,-1.091 5.682,-2.124 8.492,-3.147 l 0,0 z m 0,46.294 v 58.792 c -1.138,-1.026 -2.312,-2.075 -3.517,-3.174 -0.685,-0.644 -1.409,-1.3 -2.111,-1.961 l -2.864,-2.628 v -55.441 c 2.048,2.107 4.073,4.132 6.072,5.994 l 0,0 c 0.791,-0.543 1.606,-1.065 2.42,-1.582 z m -23.645,74.747 c 5.363,4.996 10.421,9.544 15.153,13.699 v -24.381 c -4.711,-4.263 -9.771,-9.002 -15.153,-14.228 v 24.91 l 0,0 z M 273.035,0 h -15.153 v 16.062 h 6.394 c 3.131,0 6.072,0.214 8.759,0.605 V 0 l 0,0 z m 0,75.309 v 23.188 h -2.817 c 0.995,0.782 1.936,1.529 2.817,2.265 v 12.171 c -3.676,-4.269 -9.02,-8.986 -15.153,-13.167 V 81.841 c 5.43,-1.243 10.715,-3.288 15.153,-6.532 l 0,0 z m 0,48.015 c -1.146,4.492 -1.582,9.809 -1.582,14.211 -2.667,-4.024 -3.26,-15.356 1.298,-20.769 -2.993,-3.431 -8.515,-8.566 -14.87,-13.31 v 20.923 c 2.066,0.945 3.671,2.049 4.174,3.265 0.027,2.196 0.378,4.677 0.05,6.55 -1.55,-0.593 -2.866,-0.992 -4.224,-1.372 v 13.943 c 5.102,0.454 10.335,1.695 15.153,3.355 v -26.796 l 0.001,0 z m 0,68.106 v 61.15 c -3.237,-4.602 -10.495,-15.246 -11.636,-20.182 -1.496,-6.394 6.096,-32.937 8.226,-41.964 v -0.012 c 1.102,0.392 2.248,0.732 3.41,1.008 l 0,0 z m 0,73.257 c -1.782,-0.095 -3.517,-0.157 -5.193,-0.169 -2.201,-2.721 -5.897,-7.361 -9.96,-12.532 v 31.973 c 3.873,4.735 6.467,10.942 10.245,16.346 -3.389,0.039 -6.838,0.395 -10.245,0.933 v 9.846 c 4.996,-1.194 10.072,-1.961 15.153,-2.344 v -24.663 c -0.481,-1.102 -0.905,-2.227 -1.276,-3.355 l 1.276,0.103 v -16.138 l 0,0 z m 0,71.794 v 11.981 c -4.908,3.008 -9.612,6.585 -14.099,10.724 4.399,5.4 9.281,10.99 14.099,16.029 v 55.441 c -3.762,-3.518 -7.724,-7.325 -11.877,-11.396 -0.728,-0.72 -1.479,-1.432 -2.221,-2.166 l -1.055,-1.072 v -72.358 c 4.793,-2.882 9.943,-5.148 15.153,-7.183 z m -30.18,103.505 c 5.209,5.138 10.226,9.929 15.026,14.39 v -24.909 c -4.777,-4.62 -9.816,-9.63 -15.026,-15.026 v 25.545 l 0,0 z M 257.881,0 h -15.026 v 32.264 l 5.604,-16.202 0,0 h 9.422 V 0 l 0,0 z m 0,81.841 v 17.924 c -4.69,-3.213 -9.837,-6.111 -15.026,-8.274 v -8.02 c 4.811,-0.049 9.981,-0.49 15.026,-1.63 l 0,0 z m 0,21.616 C 253.104,99.891 247.843,96.56 242.855,94.35 v 1.869 c 5.734,4.986 11.483,10.473 13.044,13.9 -4.335,-1.827 -11.603,-1.771 -12.832,-0.502 5.788,1.956 10.147,4.791 12.63,7.594 -3.628,0.042 -6.467,1.741 -9.435,3.979 2.196,0.252 7.697,1.419 11.619,3.19 v -20.923 l 0,0 z m 0,29.366 v 13.943 c -3.524,-0.306 -6.96,-0.237 -10.185,0.331 -1.565,0.916 -3.309,2.316 -4.841,3.883 v -27.02 c 4.66,1.238 10.954,3.48 11.94,7.996 1.104,0.314 2.088,0.583 3.086,0.867 l 0,0 z m 0,119.162 v 31.973 c -1.172,-1.436 -2.44,-2.732 -3.895,-3.832 -2.664,-0.77 -6.669,-1.035 -11.131,-0.807 v -9.137 c 2.963,0.103 5.979,0.549 9.036,1.418 -1.517,-3.606 -3.103,-8.701 -7.174,-13.214 -0.61,-0.162 -1.23,-0.316 -1.862,-0.458 v -25.031 c 4.217,5.359 9.918,12.633 15.026,19.088 l 0,0 z m 0,49.252 v 9.846 c -5.18,1.232 -10.215,2.922 -15.026,5.124 V 304.82 c 4.545,-1.405 9.721,-2.735 15.026,-3.583 l 0,0 z m 0,42.427 v 72.358 c -1.239,-1.218 -2.491,-2.482 -3.746,-3.75 -0.81,-0.816 -1.604,-1.645 -2.446,-2.487 -1.673,-1.724 -3.361,-3.45 -5.076,-5.254 -0.555,-0.576 -1.102,-1.17 -1.671,-1.738 l -2.087,-2.222 v -61.904 c 2.656,3.383 5.432,6.669 8.048,9.878 l 0,0 c 2.201,-1.821 4.555,-3.427 6.978,-4.881 l 0,0 z M 242.855,222.22 v -26.334 c 2.857,3.474 5.933,6.289 8.467,8.27 -1.127,0.506 -3.035,1.448 -6.23,0.736 -1.536,4.328 -2.106,10.774 -0.945,16.135 -0.351,0.41 -0.795,0.821 -1.292,1.193 z m -7.926,209.846 c 2.689,2.721 5.322,5.365 7.927,7.919 V 414.44 c -2.604,-2.661 -5.238,-5.439 -7.927,-8.286 v 25.912 l 0,0 z M 242.855,0 h -7.927 v 55.109 l 7.927,-22.845 V 0 l 0,0 z m 0,83.471 v 8.02 c -2.645,-1.114 -5.311,-2.023 -7.927,-2.695 v -5.302 h 6.802 l 1.125,-0.023 0,0 z m 0,10.879 v 1.869 c -1.369,-1.173 -2.732,-2.334 -4.048,-3.414 l 0,0 c 1.317,0.414 2.657,0.94 4.048,1.545 l 0,0 z m 0,29.611 v 27.02 c -1.215,1.229 -2.314,2.564 -3.084,3.818 -2.087,3.463 -3.68,7.009 -4.843,10.788 v -58.466 c 3.459,3.587 6.711,8.457 7.325,10.641 0.795,2.796 -1.534,3.096 -4.505,4.836 0.327,0.277 2.442,0.664 5.107,1.363 l 0,0 z m 0,71.925 v 26.334 c -1.744,1.299 -4.226,2.312 -6.167,2.823 l 6.167,7.854 v 25.031 c -2.444,-0.542 -5.156,-0.905 -7.927,-1.104 v -9.015 c 0.439,0.098 0.811,0.2 1.146,0.307 l -1.146,-1.114 v -65.508 c 1.655,5.525 4.642,10.396 7.927,14.392 l 0,0 z m 0,74.297 v 9.137 c -2.538,0.147 -5.221,0.432 -7.927,0.895 v -9.582 c 2.617,-0.385 5.238,-0.562 7.927,-0.45 l 0,0 z m 0,34.637 v 11.386 c -2.718,1.235 -5.349,2.628 -7.927,4.205 v -12.885 c 2.314,-0.863 4.993,-1.807 7.927,-2.706 l 0,0 z m 0,33.847 v 61.904 c -2.604,-2.762 -5.238,-5.603 -7.927,-8.539 v -64.79 c 2.246,3.938 5.021,7.733 7.927,11.425 l 0,0 z m -7.926,-234.379 c 1.654,-0.301 2.97,-0.854 3.717,-1.514 0.311,-2.683 -1.381,-5.829 -3.717,-8.837 v 10.351 z m -3.102,324.597 c 1.038,1.075 2.07,2.122 3.102,3.181 v -25.912 c -1.031,-1.095 -2.063,-2.213 -3.102,-3.343 v 26.074 l 0,0 z M 234.929,0 h -3.102 v 64.129 l 3.102,-9.02 V 0 l 0,0 z m 0,83.495 v 5.302 c -1.031,-0.28 -2.063,-0.5 -3.102,-0.688 v -4.613 h 3.102 l 0,-10e-4 z m 0,10.441 v 10.352 c -0.86,0.159 -1.821,0.24 -2.857,0.229 0.945,0.7 1.917,1.604 2.857,2.604 v 58.466 c -0.419,1.403 -0.791,2.826 -1.104,4.305 -0.434,4.099 0.052,7.997 1.104,11.602 v 65.508 c -0.94,-0.909 -2.004,-1.92 -3.102,-3.024 V 135.381 l 1.28,0.448 v -0.012 c 0,0 -0.487,-0.969 -1.28,-2.626 V 90.309 c 1.078,1.159 2.161,2.381 3.102,3.627 l 0,0 z m 0,153.873 v 9.015 c -1.031,-0.058 -2.063,-0.109 -3.102,-0.149 v -9.318 c 1.19,0.115 2.225,0.26 3.102,0.452 l 0,0 z m 0,22.823 v 9.582 c -1.031,0.178 -2.063,0.384 -3.102,0.613 v -9.646 c 1.038,-0.208 2.07,-0.411 3.102,-0.549 l 0,0 z m 0,36.894 v 12.885 c -0.86,0.526 -1.712,1.08 -2.549,1.648 0.728,1.747 1.608,3.48 2.549,5.182 v 64.79 l -1.252,-1.383 c -0.53,-0.59 -1.057,-1.154 -1.605,-1.751 l -0.245,-0.281 v -79.877 c 0.924,-0.387 1.984,-0.782 3.102,-1.213 z m -9.859,114.352 c 2.293,2.397 4.535,4.732 6.757,7.007 v -26.074 c -2.222,-2.391 -4.463,-4.847 -6.757,-7.364 v 26.431 l 0,0 z M 231.827,0 h -6.757 v 117.242 c 2.266,6.249 5.126,12.534 6.757,15.949 V 90.309 c -0.859,-0.909 -1.716,-1.778 -2.547,-2.581 0.831,0.083 1.688,0.218 2.547,0.38 v -4.613 h -6.705 l 6.705,-19.366 V 0 l 0,0 z m 0,135.381 v 108.596 c -2.087,-2.036 -4.401,-4.399 -6.757,-7.094 v -52.75 c 0.53,-1.292 0.991,-2.604 1.321,-3.913 -0.437,-0.376 -0.877,-0.729 -1.321,-1.047 v -31.975 c 2.09,-3.394 3.415,-5.899 3.415,-5.899 -0.506,-0.423 -1.873,-1.076 -3.415,-1.625 v -6.317 c 2.249,0.558 4.491,1.249 6.757,2.024 l 0,0 z m 0,111.975 v 9.318 c -2.291,-0.047 -4.57,0 -6.757,0.169 v -9.818 c 2.466,0.036 4.78,0.143 6.757,0.331 l 0,0 z m 0,23.825 v 9.646 c -2.307,0.506 -4.594,1.146 -6.757,1.909 v -9.766 c 2.249,-0.709 4.467,-1.313 6.757,-1.789 l 0,0 z m 0,37.558 v 79.877 c -1.716,-1.918 -3.479,-3.889 -5.215,-5.866 l -1.542,-1.743 v -72.66 c 0.9,1.655 1.479,2.645 1.479,2.645 l 0,0 c 0,0 1.976,-0.932 5.278,-2.253 z M 211.5,407.192 c 4.625,5.119 9.155,10.017 13.57,14.686 v -26.431 c -3.755,-4.186 -7.609,-8.547 -11.498,-13.084 l -2.072,-2.419 v 27.248 l 0,0 z M 225.07,0 H 211.5 v 22.667 c 0.467,0.479 0.882,0.973 1.253,1.49 2.008,2.807 2.4,6.226 1.146,9.871 -0.571,1.644 -1.365,3.211 -2.4,4.65 v 59.82 h 10.097 c -0.087,3.048 0.11,6.071 0.599,8.766 0.04,0.266 0.131,0.53 0.17,0.799 0.597,2.795 1.567,5.993 2.704,9.179 V 0 l 0.001,0 z m 0,133.357 v 6.317 c -1.137,-0.411 -2.376,-0.75 -3.388,-0.852 l 0,0 c 1.036,2.74 3.087,5.46 3.348,8.461 l 0.04,-0.086 v 31.975 c -2.809,-2.124 -5.562,-3.136 -9,-4.31 -1.448,0.681 -2.981,1.416 -4.57,2.214 v -10.349 c 1.451,-2.063 3.72,-5.475 4.75,-7.944 -1.319,-0.345 -3.036,-0.479 -4.75,-0.504 V 142.33 c 0.395,0.086 0.793,0.181 1.166,0.278 -0.221,-1.025 -0.645,-2.058 -1.166,-3.093 v -8.004 c 4.159,-0.048 8.818,0.637 13.57,1.846 l 0,0 z m 0,50.776 v 52.75 c -2.151,-2.511 -4.328,-5.303 -6.353,-8.393 -1.541,4.048 -4.375,16.432 -5.698,18.646 l 0,0 c 3.695,-0.098 8.056,-0.19 12.051,-0.11 v 9.818 c -5.98,0.443 -11.17,1.697 -13.33,3.638 0.135,5.632 0.337,11.542 2.468,16.551 l 0,0 c 3.561,-1.483 7.194,-2.901 10.862,-4.063 v 9.766 c -3.036,1.083 -5.847,2.417 -8.072,4.025 1.095,7.759 5.696,17.108 8.072,21.586 v 72.66 l -1.187,-1.375 c -1.821,-2.087 -3.647,-4.207 -5.494,-6.377 -0.885,-1.044 -1.783,-2.127 -2.688,-3.179 -1.384,-1.66 -2.794,-3.348 -4.202,-5.06 V 197.842 l 10.843,-6.649 c 0.593,-2.23 1.767,-4.618 2.728,-7.06 z m -33.877,199.732 c 6.902,8.234 13.682,16.014 20.307,23.327 v -27.248 c -6.506,-7.626 -13.31,-15.928 -20.307,-24.916 v 28.837 l 0,0 z M 211.5,0 h -20.307 v 16.124 c 9.278,0.396 16.476,2.711 20.307,6.543 V 0 l 0,0 z m 0,38.677 v 59.82 H 191.193 V 78.716 c 7.215,-3.355 13.309,-8.866 16.361,-17.686 2.538,-7.314 -0.171,-13.081 -3.163,-15.926 2.993,-1.842 5.366,-3.985 7.109,-6.427 l 0,0 z m 0,92.835 v 8.004 c -1.448,-2.754 -3.831,-5.411 -6.4,-7.222 1.932,-0.494 4.088,-0.755 6.4,-0.782 l 0,0 z m 0,10.819 v 15.949 c -3.343,-0.039 -6.646,0.313 -6.646,0.313 0,0 -7.59,4.288 -13.661,7.785 v -11.912 c 4.203,-1.834 8.376,-3.791 12.716,-4.98 -3.853,-1.375 -8.272,-1.885 -12.716,-1.904 v -6.961 c 7.768,-0.07 15.243,0.567 20.307,1.71 l 0,0 z m 0,24.398 v 10.349 c -4.862,2.415 -10.096,5.3 -14.216,8.246 l 0,0 c -0.66,4.708 -0.77,8.906 -0.684,13.437 2.753,0.921 4.973,3.008 7.856,3.395 l 7.044,-4.313 v 167.175 c -4.843,-5.842 -9.725,-11.954 -14.658,-18.319 -0.988,-1.287 -2,-2.553 -2.965,-3.846 l -2.684,-3.526 V 209.948 c 2.044,-1.54 3.938,-2.768 5.321,-3.39 l -5.321,-0.161 v -26.591 c 5.34,-4.181 13.028,-8.032 18.986,-11.255 0.001,-10e-4 0.533,-0.719 1.321,-1.822 z m -29.043,206.586 c 2.946,3.604 5.854,7.099 8.736,10.55 v -28.837 c -2.882,-3.684 -5.791,-7.495 -8.736,-11.405 v 29.692 l 0,0 z M 191.193,0 h -8.736 v 16.062 h 5.791 l 0,0 c 1.012,0 1.973,0.024 2.946,0.062 V 0 l -10e-4,0 z m 0,78.716 v 19.781 h -8.736 V 81.7 c 3.013,-0.731 5.961,-1.697 8.736,-2.984 l 0,0 z m 0,61.904 v 6.961 c -2.946,-0.008 -5.917,0.209 -8.736,0.518 v -7.115 c 2.886,-0.227 5.831,-0.348 8.736,-0.364 l 0,0 z m 0,13.846 v 11.912 c -1.692,0.971 -3.257,1.878 -4.51,2.624 -1.826,3.649 -2.996,7.432 -3.783,11.48 h 7.435 l 0,0 c 0.289,-0.231 0.571,-0.447 0.858,-0.676 v 26.591 l -0.921,-0.027 c -1.526,0.734 -4.981,3.643 -7.815,6.138 v -9.223 c 1.189,-0.856 2.376,-1.679 3.589,-2.43 0.396,-0.909 0.609,-9.839 1.163,-13.053 -1.499,-0.142 -3.211,-0.036 -4.752,0.138 v -36.521 c 1.472,1.695 2.467,3.747 3.187,5.288 1.873,-0.668 3.724,-1.438 5.549,-2.241 l 0,0 z m 0,55.482 c -2.839,2.106 -6.032,4.805 -8.736,7.259 v 110.317 l 2.616,3.578 c 1.101,1.48 2.179,2.959 3.253,4.419 0.949,1.28 1.917,2.554 2.867,3.806 V 209.948 z m -25.192,142.384 c 5.522,7.262 11.024,14.278 16.456,20.983 v -29.691 c -5.411,-7.242 -10.914,-14.855 -16.456,-22.852 v 31.56 l 0,0 z M 182.457,0 h -16.456 v 34.68 l 6.447,-18.618 h 10.009 V 0 l 0,0 z m 0,81.7 V 98.497 H 166.001 V 83.495 c 5.233,-0.024 10.954,-0.472 16.456,-1.795 l 0,0 z m 0,59.283 v 7.115 c -1.364,0.146 -2.707,0.335 -3.977,0.525 l 0,0 c 1.622,0.539 2.925,1.585 3.977,2.796 v 36.521 c -2.09,0.242 -3.759,0.608 -3.759,0.608 0,0 -7.355,7.376 -12.697,13.497 v -14.266 c 1.589,-0.58 2.844,-1.13 2.844,-1.13 l 7.581,-6.626 c 0,0 0.948,-4.554 1.525,-6.451 l 0,0 c -2.202,1.973 -8.23,8.044 -11.95,12.223 v -16.852 l 0.834,0.569 0,0 c 2.096,-1.952 4.843,-4.704 6.664,-6.518 -2.726,-0.064 -5.138,-0.032 -7.498,0.095 v -7.452 c 2.968,-0.221 5.677,-0.104 7.769,0.418 -2.047,-3.245 -4.888,-5.379 -7.769,-7.652 v -4.395 c 4.49,-1.567 10.318,-2.543 16.456,-3.025 l 0,0 z m 0,62.302 v 9.223 c -2.375,2.094 -4.328,3.917 -4.328,3.917 l 0,0 c 0,0 -0.554,3.036 -0.38,5.301 1.142,-1.203 2.818,-2.808 4.708,-4.52 v 110.317 c -0.973,-1.329 -1.936,-2.668 -2.901,-4.036 -0.995,-1.388 -2.008,-2.823 -2.992,-4.233 -3.416,-4.835 -6.823,-9.816 -10.21,-14.904 l -0.352,-0.521 v -71.04 c 1.696,-2.277 3.562,-4.561 5.701,-6.887 -1.628,-0.406 -3.652,-0.587 -5.701,-0.583 v -8.235 l 1.496,-0.165 0,0 c 4.509,-4.632 9.481,-9.621 14.959,-13.634 z m -30.762,129.729 c 4.779,6.654 9.551,13.088 14.306,19.318 v -31.56 c -4.755,-6.856 -9.527,-13.979 -14.306,-21.382 v 33.624 l 0,0 z M 166.001,0 h -14.306 v 16.062 h 1.728 l 0,0 -1.728,14.024 V 76.021 L 166.001,34.68 V 0 l 0,0 z m 0,83.495 V 98.497 H 151.695 V 83.495 h 14.017 0.289 l 0,0 z m 0,60.513 v 4.395 c -1.166,-0.925 -2.352,-1.867 -3.469,-2.925 1.026,-0.535 2.192,-1.024 3.469,-1.47 l 0,0 z m 0,11.629 v 7.452 c -2.482,0.145 -4.886,0.415 -7.519,0.805 l 7.519,5.048 v 16.852 c -0.949,1.083 -1.744,2.025 -2.269,2.754 0.752,-0.229 1.538,-0.508 2.269,-0.77 v 14.266 c -1.671,1.9 -3.122,3.673 -4.134,5.083 l -0.243,10.441 4.377,-0.484 v 8.235 c -1.913,0.023 -3.851,0.224 -5.494,0.583 -2.819,4.618 -6.142,9.801 -8.812,14.973 v -17.977 c 1.431,-2.157 2.554,-3.628 2.554,-3.628 0,0 0.292,-4.312 -0.194,-6.4 l 0,0 c -0.905,1.206 -1.675,2.483 -2.359,3.784 v -28.779 l 0.514,0.175 4.305,-6.904 c -1.692,0.371 -3.276,1.152 -4.819,2.066 v -8.404 c 1.348,-0.66 2.739,-1.265 4.187,-1.771 -1.08,-1.588 -2.531,-2.973 -4.187,-4.146 v -9.947 c 4.576,-1.821 9.752,-2.98 14.305,-3.307 l 0,0 z m 0,77.153 v 71.04 c -0.987,-1.462 -1.984,-2.929 -2.95,-4.419 -1.711,-2.599 -3.429,-5.258 -5.12,-7.922 -1.255,-1.966 -2.514,-3.934 -3.769,-5.931 -0.832,-1.308 -1.644,-2.632 -2.466,-3.948 v -21.875 c 3.59,-9.164 7.486,-17.881 14.305,-26.945 z m -22.441,88.74 c 2.707,3.919 5.435,7.726 8.135,11.484 V 299.39 c -2.7,-4.217 -5.428,-8.508 -8.135,-12.899 v 35.039 l 0,0 z M 151.695,0 h -8.135 v 16.062 h 8.135 V 0 l 0,0 z m 0,30.086 v 45.935 l -2.591,7.474 h 2.591 V 98.497 H 143.56 V 83.495 h 1.542 l 6.593,-53.409 0,0 z m 0,128.858 v 9.947 c -2.391,-1.695 -5.229,-2.962 -8.135,-3.756 v -1.592 c 2.173,-1.816 5.037,-3.369 8.135,-4.599 l 0,0 z m 0,15.864 v 8.404 c -1.646,0.969 -3.227,2.083 -4.834,3.016 l 0,0 4.834,1.648 v 28.779 c -2.925,5.565 -4.217,11.835 -6.135,17.769 1.104,-3.602 3.984,-8.31 6.135,-11.524 v 17.977 c -1.181,2.263 -2.242,4.533 -3.075,6.781 l 0,0 c -0.375,4.297 0.882,9.527 2.481,13.571 l 0.594,-1.494 v 21.875 c -0.834,-1.364 -1.687,-2.742 -2.521,-4.116 -1.301,-2.123 -2.577,-4.288 -3.878,-6.451 l -1.736,-2.93 v -58.25 c 0.771,-2.035 3.147,-6.363 3.628,-7.768 l 0,0 c -0.525,0.586 -2.087,1.997 -3.628,3.416 v -9.803 c 0.281,-0.167 0.552,-0.333 0.834,-0.468 -0.266,-0.204 -0.553,-0.403 -0.834,-0.591 v -14.563 c 2.483,-2.013 5.17,-3.818 8.135,-5.278 z m -50.204,80.285 c 13.798,23.998 27.941,46.151 42.069,66.437 V 286.491 C 129.104,263.098 114.805,237.146 101.491,208.72 v 46.373 l 0,0 z M 143.56,0 h -42.069 v 16.062 h 9.749 l -9.749,28.129 V 66.359 L 130.092,16.062 H 143.56 V 0 l 0,0 z m 0,83.495 V 98.497 H 101.491 V 83.495 h 9.773 l 5.653,-10.55 h 10.489 l -1.644,10.55 h 17.798 l 0,0 z m 0,80.048 v 1.592 c -0.459,-0.106 -0.945,-0.229 -1.407,-0.328 0.434,-0.422 0.902,-0.853 1.407,-1.264 l 0,0 z m 0,16.543 v 14.563 c -3.012,-1.989 -7.122,-3.241 -11.17,-3.713 3.493,-3.738 7.083,-7.553 11.17,-10.85 l 0,0 z m 0,15.622 v 9.803 c -1.632,1.507 -3.238,3.037 -3.629,3.708 l 3.412,1.272 c 0.041,-0.166 0.126,-0.368 0.218,-0.629 v 58.25 c -1.035,-1.738 -2.064,-3.479 -3.104,-5.238 -2.548,-4.407 -5.082,-8.896 -7.584,-13.444 v -0.006 c 0.68,-4.156 1.34,-8.283 2.111,-12.531 -1.961,-0.783 -4.158,-1.519 -7.576,-1.178 2.732,-7.05 6.409,-13.318 10.717,-19.192 -3.035,-1.341 -7.299,-1.626 -11.375,-1.17 2.817,-6.984 10.185,-15.823 16.81,-19.645 z m -66.951,13.115 c 8.096,16.14 16.434,31.56 24.882,46.27 V 208.72 C 92.67,189.912 84.313,170.024 76.609,149.054 v 59.769 l 0,0 z M 101.491,0 H 76.609 v 16.062 h 3.984 L 76.609,27.588 V 54.946 L 90.052,16.061 h 11.439 V 0 l 0,0 z m 0,44.19 v 22.168 l -9.742,17.136 h 9.742 V 98.496 H 76.609 V 81.242 c 7.925,-3.02 15.048,-8.649 17.999,-17.163 L 101.491,44.19 z M 0,0 C 19.65,79.827 46.645,149.205 76.609,208.823 V 149.055 C 72.063,136.698 67.742,123.972 63.696,110.869 L 59.92,98.497 H 76.609 V 81.242 c -4.772,1.798 -9.808,2.685 -14.432,2.685 -8.16,0 -14.713,-2.621 -17.951,-7.176 l 0,0 C 41.672,73.173 41.278,68.534 43.085,63.323 L 59.444,16.062 H 76.609 V 0 H 0 l 0,0 z m 76.609,27.588 v 27.358 l -3.566,10.321 c -1.144,3.266 -4.312,5.823 -7.213,5.823 -0.745,0 -1.785,-0.181 -2.4,-1.063 -0.661,-0.9 -0.7,-2.359 -0.126,-4.015 L 76.609,27.588 z"
         id="path4038"
         style="fill:#231f20" /></g></g></svg>