<?xml version="1.0" encoding="UTF-8" standalone="no"?>
<!-- Created with Inkscape (http://www.inkscape.org/) -->

<svg
   xmlns:dc="http://purl.org/dc/elements/1.1/"
   xmlns:cc="http://creativecommons.org/ns#"
   xmlns:rdf="http://www.w3.org/1999/02/22-rdf-syntax-ns#"
   xmlns:svg="http://www.w3.org/2000/svg"
   xmlns="http://www.w3.org/2000/svg"
   version="1.1"
   width="280"
   height="200"
   viewBox="0 0 280 200"
   id="Layer_1"
   xml:space="preserve"><metadata
     id="metadata69"><rdf:RDF><cc:Work
         rdf:about=""><dc:format>image/svg+xml</dc:format><dc:type
           rdf:resource="http://purl.org/dc/dcmitype/StillImage" /><dc:title></dc:title></cc:Work></rdf:RDF></metadata><defs
     id="defs67" /><path
     d="m 265.54407,42.616291 c -1.2703,-1.038963 -30.12421,-24.149559 -90.9056,-34.132924 0.63106,-3.79291 1.31117,-7.868654 1.31117,-7.868654 L 122.6993,0 c 0,0 -1.42888,4.571928 -2.0673,6.613887 C 91.216508,10.208161 46.004036,26.375441 26.915234,49.300478 L 25.439759,51.0735 9.999998,101.21757 c 0,0 10.329141,0.18638 13.320145,0.23788 -2.474383,9.66783 -5.099175,19.91359 -5.099175,19.91359 l 0.112806,-0.40136 c -6.447948,21.84275 -2.358307,41.93292 10.943037,53.74162 7.293178,6.47983 22.693702,14.84221 49.846527,8.05585 0,0.008 -2.348499,17.23485 -2.348499,17.23485 l 66.960401,-17.39098 c 0,0 2.76376,-14.37955 3.90899,-20.3542 11.49644,-3.26158 82.59307,-23.42122 82.59307,-23.42122 0,0 4.68065,-16.90298 6.10872,-22.04466 9.55339,-7.03568 31.94954,-27.411949 33.40622,-64.824433 l 0.22234,-5.722063 -4.43051,-3.626153 z"
     id="path3"
     style="fill:#ffffff" /><path
     d="m 172.11013,10.328324 c 0.52235,-3.14223 1.25804,-7.553123 1.25804,-7.553123 L 124.3023,2.211986 c 0,0 -1.87193,5.986913 -2.00027,6.393997 -28.927482,3.167571 -74.651674,19.216323 -93.702057,42.096401 l -1.195912,1.43215 -14.451479,46.947077 c 0,0 13.081454,0.23215 13.179547,0.23624 -2.580651,10.074099 -5.784189,22.600509 -5.784189,22.600509 l 0.08828,-0.32942 c -6.201081,21.00814 -2.35422,40.25307 10.294809,51.48303 7.231053,6.42016 22.835119,14.77192 51.004019,6.74631 -0.14223,1.05532 -2.346864,17.2414 -2.346864,17.2414 l 62.453876,-16.22123 c 0,0 2.77928,-14.4662 3.9049,-20.32232 9.62532,-2.73351 82.70506,-23.45228 82.70506,-23.45228 0,0 4.70027,-16.9602 5.97874,-21.58036 8.82424,-6.31797 31.67244,-26.195599 33.13156,-63.600726 l 0.18066,-4.634872 -3.58692,-2.9346 C 262.89148,43.275146 233.75883,20.015777 172.11013,10.328324"
     id="path5"
     style="fill:#8e8e91" /><path
     d="m 167.68616,13.555567 c 0.0221,-0.138146 1.16812,-6.996448 1.16812,-6.996448 l -41.74245,-0.483105 -1.21635,3.893455 c 0,0 -0.36294,1.168118 -0.69155,2.216073 -30.427482,2.516073 -76.315974,20.144115 -93.656277,40.968337 l -0.702997,0.843596 -12.729138,41.341086 c 0,0 10.137861,0.17902 12.931045,0.22888 -2.210351,8.648489 -6.984186,27.299149 -6.984186,27.299149 l 0.04986,-0.19537 c -5.766204,19.54657 -2.342776,37.31358 9.166745,47.53155 7.07247,6.28364 23.027217,14.50461 53.075406,4.12806 -0.64741,4.74032 -2.39591,17.57899 -2.39591,17.57899 l 54.577862,-14.17518 c 0,0 2.99918,-15.63186 3.89182,-20.26919 6.00081,-1.70027 82.90615,-23.50623 82.90615,-23.50623 0,0 4.86457,-17.55856 5.76703,-20.81932 7.18282,-4.85476 31.16153,-23.804599 32.62883,-61.409997 l 0.10627,-2.725337 -2.10981,-1.727246 C 260.4686,46.248166 230.91986,22.696155 167.68616,13.555567"
     id="path7"
     style="fill:#00285e" /><path
     d="m 162.39407,11.962382 -31.2678,-0.362125 -1.80327,5.774379 C 101.41486,18.518231 53.213836,35.695865 35.756639,56.659051 l -10.260477,33.32938 12.577095,0.22398 -8.70571,34.008669 c -10.417425,35.28143 11.250393,64.17866 63.666941,41.66807 l -2.54468,18.66128 43.317652,-11.25121 3.87466,-20.1809 83.19389,-23.5888 5.50626,-19.87027 c 0,0 30.28197,-17.356649 31.87516,-58.141881 0,0 -30.4896,-24.957187 -96.89496,-33.348184 l 1.0316,-6.206803 z"
     id="path9"
     style="fill:#ffffff" /><path
     d="m 120.97778,58.683027 -3.21171,0.113624 -25.193432,0.877928 -13.186086,56.470221 c -2.945227,12.77083 -6.347402,19.48281 -10.107615,19.9512 -0.238692,0.0311 -0.945776,0.11689 -1.432151,-2.84387 -0.446321,-2.7237 1.292369,-9.87382 1.949589,-12.56319 l 14.722053,-60.745424 -42.317929,1.571115 -6.676013,25.15337 c 0,0 9.052304,-0.42098 12.679275,-0.58692 -1.426429,5.41961 -9.068653,34.439459 -9.068653,34.439459 -1.362668,5.47357 -2.710623,11.97873 -2.710623,18.32941 0,3.1316 0.326975,6.22233 1.143595,9.1365 1.841687,6.58037 8.4474,21.53948 29.873257,18.33104 17.186621,-2.57166 30.138111,-7.68555 40.326653,-50.35743 0.007,-0.0204 13.20979,-57.277033 13.20979,-57.277033"
     id="path11"
     style="fill:#8e8e91" /><path
     d="m 156.74394,17.15311 -3.06948,0.05967 -18.6531,0.372752 c 0,0 -1.31199,4.193455 -1.86131,5.940319 -2.65258,-0.0057 -12.42423,-0.02207 -12.42423,-0.02207 0,0 -0.77984,2.147408 -0.95232,2.620705 -0.66703,0.03025 -1.34468,0.06376 -1.34468,0.06376 -40.181966,0.894279 -66.961222,23.634575 -68.082746,24.600786 l -5.802172,5.012527 c 0,0 59.573218,-5.393453 66.339148,-6.004896 -0.25259,1.101088 -1.22779,5.377922 -1.22779,5.377922 0,0 12.69889,-0.232153 16.84821,-0.308174 -1.29646,5.811981 -27.004872,120.839349 -27.004872,120.839349 l 27.434022,-8.60353 c 0,0 21.60242,-108.893317 22.35283,-112.658434 2.82915,-0.0515 12.60652,-0.232153 12.60652,-0.232153 0,0 1.2278,-4.353672 1.73869,-6.18882 3.63433,0.08093 85.71569,1.862123 85.71569,1.862123 l -15.69562,-8.181733 -0.0638,-0.03024 c -8.9117,-4.031602 -32.13756,-14.500525 -63.67512,-16.091259 0.25586,-0.919617 0.61472,-2.203811 0.61472,-2.203811 0,0 -11.22015,0.02861 -15.04658,0.0376 0.32698,-1.625066 1.25395,-6.26239 1.25395,-6.26239"
     id="path13"
     style="fill:#8e8e91" /><path
     d="m 171.31559,112.37723 c 0.40217,-2.14577 0.63841,-3.41934 0.89754,-4.78773 2.56921,-0.41935 12.8493,-2.09182 12.8493,-2.09182 l 4.46975,-24.665369 c 0,0 -8.98364,1.09455 -12.59589,1.52943 0.19373,-1.04795 0.24441,-1.30463 0.39564,-2.10981 3.07847,-0.20844 18.94248,-1.2989 18.94248,-1.2989 l 4.28092,-23.699972 -3.08174,0.129972 -46.37324,1.97166 -4.82615,25.04792 c 0,0 4.8613,-0.44959 6.46103,-0.59673 -1.04469,5.1891 -6.24441,30.929389 -6.82724,33.814129 -1.87438,0.23624 -6.52233,0.8297 -6.52233,0.8297 l -6.21089,32.18006 60.78057,-15.61469 4.34223,-24.08335 c -8.2e-4,0 -21.83376,2.7891 -26.98198,3.4455"
     id="path15"
     style="fill:#8e8e91" /><path
     d="m 228.21905,53.898565 c 0.0139,0 -23.11386,0.598364 -23.11386,0.598364 l -2.00845,0.05313 -4.10517,23.247112 c 0,0 4.93242,-0.0907 6.81416,-0.1267 -0.92207,5.26756 -9.59754,54.587659 -9.59754,54.587659 l 21.92532,-6.08337 c 0,0 3.85585,-19.25311 4.36838,-21.80596 19.22123,-5.327249 28.59315,-28.424764 29.13838,-48.201032 l 0.0679,-2.520977 -2.52343,-0.0098 c -0.11853,8.17e-4 -11.74494,-0.04251 -20.96564,0.26158"
     id="path17"
     style="fill:#8e8e91" /><path
     d="m 113.41321,64.56776 -13.40679,0.472479 c 0,0 -6.836232,29.407322 -12.578732,54.630171 -4.4861,19.68717 -15.852569,18.33349 -15.888536,18.3294 -0.72752,0.3376 -1.388827,0.47248 -1.959398,0.54523 -2.33215,0.28938 -3.602448,-1.45749 -4.16321,-4.89645 -0.559127,-3.38909 1.358581,-10.96265 2.105719,-14.04848 l 13.834315,-57.071857 -5.165389,3.420159 -26.072989,0.927792 -2.85204,10.887447 -8.498081,6.28528 12.672735,-0.59182 7.415793,-4.13951 -11.22587,44.802119 c -1.611169,6.54931 -3.967842,17.45311 -1.554766,26.16863 1.326701,4.77465 3.903264,9.65884 8.357482,12.95966 3.474109,1.04713 7.633232,1.37983 12.646577,0.63024 14.986898,-2.24223 28.088788,-5.74658 38.29287,-48.49203 l 12.47982,-54.129082 -4.43951,3.310622 z"
     id="path19"
     style="fill:#00285e" /><polygon
     points="193.883,167.358 186.02,168.378 182.23,188.229 173.723,197.251 241.591,179.815 245.829,156.312 240.274,161.31 208.259,165.545 212.793,160.528 215.043,148.516 230.748,145.96 235.105,121.911 229.768,126.779 214.619,128.318 219.671,123.783 221.342,114.861 244.503,113.275 248.652,90.304 243.072,94.314 200.146,96.28 197.597,109.653 189.604,116.967 197.549,116.239 205.363,110.866 "
     transform="matrix(0.81743759,0,0,0.81743759,-5.676003,-15.970278)"
     id="polygon21"
     style="fill:#00285e" /><polygon
     points="229.768,126.78 235.105,121.911 219.671,123.783 214.619,128.318 "
     transform="matrix(0.81743759,0,0,0.81743759,-5.676003,-15.970278)"
     id="polygon23"
     style="fill:#f47a3f" /><path
     d="m 240.09805,67.813805 c -3.22969,20.099976 -12.49208,23.766176 -22.15664,24.774076 l 5.00435,-5.09672 2.36975,-13.799163 1.10681,-0.06376 c 4.12725,-0.236239 8.43432,-0.738963 8.43432,-0.738963 l 5.24141,-5.07547 z"
     id="path25"
     style="fill:#00285e" /><path
     d="m 209.24959,59.907548 -1.76157,10.103529 -5.55041,5.181737 6.81253,-0.03842 5.03051,-3.599995 -8.65993,50.580581 -5.8079,6.70544 16.70271,-4.63732 4.36429,-21.78308 c 17.56919,-3.839499 27.26482,-23.951729 28.64302,-43.372416 l 0.15122,-2.946045 c -0.96621,0.715258 -3.79536,2.794819 -3.79536,2.794819 -3.91471,0.03106 -8.91007,0.264032 -13.27192,0.408719 l -22.85719,0.602451 z"
     id="path27"
     style="fill:#00285e" /><polygon
     points="245.826,156.312 212.791,160.528 208.259,165.545 240.274,161.312 "
     transform="matrix(0.81743759,0,0,0.81743759,-5.676003,-15.970278)"
     id="polygon29"
     style="fill:#f47a3f" /><polygon
     points="268.469,107.072 262.314,111.477 250.77,177.152 257.879,168.952 "
     transform="matrix(0.81743759,0,0,0.81743759,-5.676003,-15.970278)"
     id="polygon31"
     style="fill:#f47a3f" /><path
     d="m 87.427688,119.66959 c 5.7425,-25.223669 12.578732,-54.630168 12.578732,-54.630168 l 13.40679,-0.470844 4.44196,-3.310623 -23.310052,0.813351 c 0,0 -6.93269,29.408955 -12.75448,54.630174 -0.20027,0.86811 -0.40136,1.6831 -0.59918,2.48501 -0.0499,0.18882 -0.0981,0.38256 -0.14632,0.56812 -0.193737,0.75367 -0.386653,1.48283 -0.580385,2.17438 -0.04251,0.14796 -0.0842,0.28447 -0.122616,0.43079 -0.170027,0.58855 -0.336784,1.15504 -0.507629,1.70436 -0.04578,0.15122 -0.09155,0.3049 -0.139782,0.45286 -0.190462,0.60572 -0.378473,1.1861 -0.573841,1.74196 -0.0515,0.15776 -0.105449,0.30817 -0.157765,0.46185 -0.17248,0.4921 -0.346594,0.96621 -0.516621,1.41662 -0.0327,0.076 -0.06049,0.15613 -0.08992,0.22806 -0.190463,0.49864 -0.383378,0.96376 -0.575476,1.41335 -0.05232,0.12425 -0.106267,0.25177 -0.160218,0.37357 -0.18801,0.43406 -0.380108,0.85259 -0.568936,1.24332 -0.03188,0.0638 -0.06621,0.12671 -0.09646,0.19292 -0.172479,0.34823 -0.344959,0.68092 -0.512533,0.994 -0.04169,0.0785 -0.08501,0.1594 -0.125886,0.23379 -0.192097,0.34332 -0.380926,0.66458 -0.567301,0.97193 -0.03597,0.058 -0.07357,0.11363 -0.111989,0.17412 -0.180654,0.2861 -0.362943,0.55504 -0.539509,0.80436 -0.0139,0.0196 -0.03188,0.049 -0.04659,0.0687 -0.193733,0.27057 -0.386648,0.51662 -0.575476,0.74877 -0.02943,0.0343 -0.05967,0.0687 -0.08992,0.10709 -0.39237,0.46267 -0.773296,0.85749 -1.146048,1.17956 -0.0139,0.0123 -0.02616,0.0245 -0.03842,0.0319 -0.582833,0.50436 -1.140326,0.85177 -1.662668,1.09455 h 0.0016 c 0.03433,0.007 11.400799,1.36103 15.886899,-18.32777"
     id="path33"
     style="fill:#f47a3f" /><polygon
     points="186.02,168.378 193.883,167.36 205.363,110.866 197.549,116.239 187.964,163.693 180.002,164.709 173.723,197.251 182.232,188.229 "
     transform="matrix(0.81743759,0,0,0.81743759,-5.676003,-15.970278)"
     id="polygon35"
     style="fill:#f47a3f" /><path
     d="m 46.077606,150.28835 c -2.414711,-8.71552 -0.05804,-19.61932 1.550679,-26.16781 l 11.228322,-44.800479 -7.415793,4.13786 -9.923693,37.688779 c -1.6267,6.55667 -4.017705,17.45965 -1.576837,26.1719 0.146322,0.51662 0.309809,1.03242 0.487193,1.54905 0.04986,0.15122 0.10218,0.3049 0.157766,0.45531 0.142234,0.40299 0.298364,0.80272 0.461034,1.20654 0.05395,0.12997 0.10218,0.25994 0.157766,0.3891 0.208446,0.49455 0.436511,0.98419 0.67929,1.46648 0.07602,0.15613 0.160218,0.30654 0.240327,0.4594 0.182289,0.34986 0.374387,0.69482 0.574659,1.03733 0.103814,0.17656 0.208446,0.35068 0.314713,0.52479 0.26812,0.43079 0.550953,0.86158 0.85177,1.27847 0.10545,0.14796 0.221526,0.28938 0.332697,0.43652 0.244414,0.32125 0.49455,0.6376 0.756947,0.94577 0.150409,0.17984 0.310627,0.35804 0.470845,0.53461 0.248501,0.27057 0.507628,0.53705 0.769208,0.79781 0.154496,0.15123 0.302452,0.30573 0.46267,0.45532 0.385013,0.35722 0.793732,0.70136 1.216347,1.03242 0.197003,0.15204 0.405449,0.29837 0.608174,0.44632 0.287738,0.20763 0.584468,0.41036 0.886919,0.60572 0.219074,0.13733 0.43406,0.27957 0.661307,0.41199 0.483106,0.2812 0.976021,0.55341 1.498364,0.79782 0.205994,0.0997 0.430789,0.18638 0.643323,0.27875 0.378474,0.1643 0.763487,0.3188 1.159944,0.4643 0.25831,0.0924 0.52316,0.18229 0.791279,0.26894 0.118529,0.0376 0.230518,0.0842 0.348229,0.12016 -0.0139,-0.0106 -0.02616,-0.0221 -0.04005,-0.0343 -4.452582,-3.3 -7.029145,-8.185 -8.353394,-12.95884"
     id="path37"
     style="fill:#f47a3f" /><path
     d="m 169.96763,30.465081 -23.07871,0.414441 5.59209,-4.989639 1.24414,-6.210891 -6.24768,4.792637 -7.9504,0.157765 -1.87356,5.980374 -12.50843,-0.02289 -0.91962,2.536508 -2.98774,0.142235 C 81.271568,34.509761 51.966426,52.656875 51.966426,52.656875 l 62.538884,-5.664025 5.91007,-6.501899 -1.18201,5.910892 -6.46757,6.25258 16.8384,-0.310627 7.7395,-7.150944 -26.05256,119.520818 -8.44658,7.35939 21.96537,-6.88446 22.4501,-113.173414 12.76429,-0.234604 1.75913,-6.266477 77.07046,1.679017 c 0,0 -28.29887,-12.881181 -69.45685,-14.686901 l 0.57057,-2.041142 z"
     id="path39"
     style="fill:#00285e" /><polygon
     points="174.963,74.823 165.495,83.571 132.76,230.04 143.092,221.037 "
     transform="matrix(0.81743759,0,0,0.81743759,-5.676003,-15.970278)"
     id="polygon41"
     style="fill:#f47a3f" /><path
     d="m 146.89137,30.878705 23.07626,-0.414441 -0.56812,2.041142 c 41.15798,1.805719 69.45686,14.686901 69.45686,14.686901 l -6.27465,-3.274655 C 222.4226,39.32447 198.86241,28.877618 166.71259,27.890153 l 0.57139,-2.040324 -14.80297,0.04005 -5.58964,4.988822 z"
     id="path43"
     style="fill:#f47a3f" /><path
     d="m 124.22628,33.123388 0.91961,-2.534874 12.51089,0.02125 1.87356,-5.980374 7.94877,-0.157765 6.24767,-4.792637 -16.88009,0.336785 -1.87356,5.977921 -12.51007,-0.01962 -0.92125,2.534874 -2.98119,0.139782 C 85.306438,28.464807 51.970513,52.656055 51.970513,52.656055 c 0,0 29.305135,-18.146297 69.271297,-19.391255 l 2.98447,-0.141417 z"
     id="path45"
     style="fill:#f47a3f" /><polygon
     points="154.254,69.073 147.023,77.026 144.898,83.948 152.806,76.303 "
     transform="matrix(0.81743759,0,0,0.81743759,-5.676003,-15.970278)"
     id="polygon47"
     style="fill:#f47a3f" /><polygon
     points="189.602,116.967 197.597,109.656 200.143,96.28 243.074,94.372 248.65,90.304 194.3,92.613 "
     transform="matrix(0.81743759,0,0,0.81743759,-5.676003,-15.970278)"
     id="polygon49"
     style="fill:#f47a3f" /><polygon
     points="54.37,122.357 64.768,114.668 68.255,101.352 100.151,100.214 106.468,96.032 60.912,97.721 "
     transform="matrix(0.81743759,0,0,0.81743759,-5.676003,-15.970278)"
     id="polygon51"
     style="fill:#f47a3f" /><path
     d="m 228.29916,56.363139 -23.12776,0.599999 -3.2346,18.315507 5.54468,-5.233236 1.7673,-10.137861 36.12829,-1.010352 c 0,-0.02371 2.4564,-1.791006 3.79536,-2.79482 8.2e-4,0 -11.58881,-0.04659 -20.87327,0.260763"
     id="path53"
     style="fill:#f47a3f" /><polygon
     points="195.106,221.439 193.108,221.439 193.108,226.974 191.957,226.974 191.957,221.439 189.959,221.439 189.959,220.496 195.106,220.496 "
     transform="matrix(0.81743759,0,0,0.81743759,-5.676003,-15.970278)"
     id="polygon55"
     style="fill:#00285e" /><polygon
     points="201.683,220.498 203.439,220.498 203.439,226.977 202.293,226.977 202.293,221.706 202.261,221.706 200.231,226.977 199.447,226.977 197.418,221.706 197.383,221.706 197.383,226.977 196.238,226.977 196.238,220.498 197.998,220.498 199.857,225.261 "
     transform="matrix(0.81743759,0,0,0.81743759,-5.676003,-15.970278)"
     id="polygon57"
     style="fill:#00285e" /><path
     d="m 225.31551,73.691998 -2.36975,13.799163 c 2.17193,-1.67493 8.96075,-3.41852 11.91088,-14.601886 0,0 -4.30789,0.502724 -8.43677,0.738963 l -1.10436,0.06376 z"
     id="path59"
     style="fill:#8e8e91" /><path
     d="m 222.94576,87.490341 -5.00435,5.09673 c 9.66456,-1.00709 18.92531,-4.67166 22.15664,-24.774084 l -5.24141,5.074653 c -2.95013,11.185001 -9.73731,12.926961 -11.91088,14.602701"
     id="path61"
     style="fill:#f47a3f" /><path
     d="m 231.45447,75.715156 c -1.21553,0.115259 -2.61008,0.228883 -4.03814,0.318801 -0.29101,1.689644 -0.65722,3.827244 -1.20981,7.029964 1.79754,-1.38556 3.84359,-3.64741 5.24795,-7.348765"
     id="path63"
     style="fill:#ffffff" /></svg>