<?xml version="1.0" encoding="UTF-8" standalone="no"?>
<!-- Created with Inkscape (http://www.inkscape.org/) -->

<svg
   xmlns:dc="http://purl.org/dc/elements/1.1/"
   xmlns:cc="http://creativecommons.org/ns#"
   xmlns:rdf="http://www.w3.org/1999/02/22-rdf-syntax-ns#"
   xmlns:svg="http://www.w3.org/2000/svg"
   xmlns="http://www.w3.org/2000/svg"
   version="1.1"
   width="280"
   height="200"
   id="svg2"
   xml:space="preserve"><metadata
     id="metadata17"><rdf:RDF><cc:Work
         rdf:about=""><dc:format>image/svg+xml</dc:format><dc:type
           rdf:resource="http://purl.org/dc/dcmitype/StillImage" /><dc:title></dc:title></cc:Work></rdf:RDF></metadata><defs
     id="defs6"><clipPath
       id="clipPath20"><path
         d="M 0,540 0,0 l 629.746,0 0,540 L 0,540 z"
         id="path22" /></clipPath></defs><g
     transform="matrix(1.4577494,0,0,-1.4577494,-376.67828,621.54156)"
     id="g12"><g
       transform="matrix(0.25407069,0,0,0.25407069,274.86088,289.17248)"
       id="g14"><g
         id="g16"><g
           clip-path="url(#clipPath20)"
           id="g18"><path
             d="M 579.414,21.5625 C 566.543,11.8242 535.723,-5.1875 479.277,1.53125 408.594,9.87109 353.047,86.8555 325.137,121.602 L 311.484,109.59 311.387,50.5273 c 0,-2.8242 0.539,-5 1.609,-6.5117 1.145,-1.4765 3.059,-2.5976 5.754,-3.4297 l 0,-4.3632 -49.043,0 0,4.3632 c 2.773,0.8985 4.688,2.0899 5.773,3.5352 1.063,1.4531 1.598,3.582 1.61,6.4062 l 0,157.3557 c 0,4.453 -3.621,7.984 -8.067,7.984 -3.339,0 -6.171,-1.949 -7.402,-4.844 -1.289,-2.437 -2.871,-6.445 -4.707,-11.968 L 214.668,70.957 202.852,36.2227 l -24.344,0 -10.82,33.1523 -32.219,97.695 -43.7776,-130.8473 -24.3203,0 L 13.9336,199.055 C 11.7109,205.867 9.67578,210.438 7.84375,212.781 6.05469,215.273 3.45703,216.895 0,217.715 l 0,4.355 54.5703,0 0,-4.355 c -4.8437,-1.27 -7.2461,-3.953 -7.2461,-8.027 0,-2.098 0.5938,-5.086 1.8281,-8.997 l 31.0821,-98.308 33.6056,98.855 c 1.465,4.258 2.168,7.082 2.183,8.45 0,4.167 -2.566,6.855 -7.711,8.027 l 0,4.355 57.079,0 0,-4.355 c -5.188,-1.629 -7.825,-4.578 -7.825,-8.86 0,-1.46 0.657,-4.16 1.973,-8.164 l 31.992,-98.699 30.957,97.063 c 1.614,4.812 2.414,8.386 2.414,10.8 0,3.946 -2.746,6.59 -8.281,7.86 l 0,4.355 102.129,0 0,-4.355 c -2.754,-0.82 -4.688,-1.992 -5.754,-3.543 -1.07,-1.445 -1.609,-3.559 -1.609,-6.274 l 0,-56.793 64.648,54.239 c 3.027,2.886 4.492,5.183 4.492,6.922 0,2.629 -2.187,4.445 -6.679,5.449 l 0,4.355 112.949,0 0,-4.355 c -2.754,-0.82 -4.766,-1.992 -5.899,-3.543 -1.054,-1.445 -1.582,-3.586 -1.582,-6.399 l 0,-92.722 c 0,-10.715 0.469,-18.6448 1.504,-23.8283 0.977,-5.0899 2.891,-9.3672 5.606,-12.7852 7.383,-9.2773 19.98,-13.8945 37.793,-13.8945 17.851,0 30.469,4.6172 37.851,13.8945 2.696,3.418 4.532,7.6953 5.508,12.7852 1.016,5.1835 1.524,13.1133 1.524,23.8283 l 0,92.722 c 0,2.813 -0.567,4.954 -1.602,6.399 -1.094,1.441 -3.008,2.637 -5.781,3.543 l 0,4.355 46.289,0 0,-4.355 c -2.774,-0.906 -4.688,-2.102 -5.742,-3.543 -1.094,-1.445 -1.641,-3.586 -1.641,-6.399 l 0,-104.168 c 0,-19.6988 -3.066,-34.4448 -9.199,-44.2417 -11.035,-17.6055 -33.867,-26.3945 -68.457,-26.4141 -25.039,0 -44.199,4.7774 -57.461,14.3164 -7.754,5.5274 -13.145,13.0469 -16.133,22.5703 -2.91,9.461 -4.336,20.711 -4.336,33.7691 l 0,105.04 c 0,3.699 -3.984,7.125 -8.437,7.125 -1.7,0 -5,-0.915 -7.5,-2.899 -1.114,-0.867 -78.809,-69.277 -78.809,-69.277 25.43,-32.442 66.914,-89.2581 106.602,-113.9846 49.492,-30.79299 99.355,-13.2422 120.351,-4.6367 l 2.168,-3.4102"
             id="path24"
             style="fill:#231f20;fill-opacity:1;fill-rule:nonzero;stroke:none" /><path
             d="m 606.328,35.4688 2.578,0 c 2.824,0 5.332,0.8085 5.332,3.2812 0,2.0195 -1.269,3.3789 -4.98,3.3789 -1.516,0 -2.344,-0.0859 -2.93,-0.2539 l 0,-6.4062 z m 0,-11.668 -3.816,0 0,20.6406 c 2.008,0.4141 4.297,0.625 7.129,0.625 3.433,0 5.222,-0.625 6.57,-1.5586 1.23,-0.9101 2.07,-2.5 2.07,-4.375 0,-2.5898 -1.855,-4.1719 -4.043,-4.9453 l 0,-0.2109 c 1.848,-0.7539 2.793,-2.3672 3.528,-5.0118 0.515,-3.1718 0.918,-4.4218 1.394,-5.164 l -3.972,0 c -0.586,0.7422 -1.079,2.5859 -1.594,5.4297 -0.52,2.2226 -1.864,3.2187 -4.832,3.2187 l -2.434,0 0,-8.6484"
             id="path26"
             style="fill:#231f20;fill-opacity:1;fill-rule:nonzero;stroke:none" /><path
             d="m 609.949,18.2812 c -8.933,0 -16.133,7.2149 -16.133,16.1446 0,8.9258 7.2,16.1211 16.133,16.1211 8.899,0 16.113,-7.1953 16.113,-16.1211 0,-8.9297 -7.214,-16.1446 -16.113,-16.1446 z m 0,35.9493 c -10.972,0 -19.812,-8.8477 -19.812,-19.8047 0,-10.9492 8.84,-19.8086 19.812,-19.8086 10.942,0 19.797,8.8594 19.797,19.8086 0,10.957 -8.855,19.8047 -19.797,19.8047"
             id="path28"
             style="fill:#231f20;fill-opacity:1;fill-rule:nonzero;stroke:none" /><path
             d="m 214.402,295.535 c 0,0 -0.007,167.18 -0.007,167.668 0,4.824 -6.211,4.106 -6.211,4.106 l 0,11.289 40.476,0 0,-139.52 c 21.164,4.871 45.891,15.121 65.52,36.836 19.629,-21.715 45.691,-31.965 66.867,-36.836 l 0,139.52 40.515,0 0,-11.289 c 0,0 -6.257,0.597 -6.257,-4.129 l 0,-167.645 -200.903,0"
             id="path30"
             style="fill:#e51636;fill-opacity:1;fill-rule:nonzero;stroke:none" /><path
             d="m 314.863,438.57 c -6.445,0 -11.699,5.242 -11.699,11.7 0,6.464 5.254,11.71 11.699,11.71 6.485,0 11.719,-5.246 11.719,-11.71 0,-6.458 -5.234,-11.7 -11.719,-11.7 z m 33.184,55.34 c 0,0 -6.809,-2.687 -11.399,9.133 -4.586,11.82 -14.902,13.719 -14.902,13.719 l 0,9.621 c 0,0 2.348,0.308 2.348,2.738 0,2.434 -2.453,2.434 -2.453,2.434 0,0 0.019,4.394 -5.059,5.047 l 0,3.398 -3.437,0 0,-3.406 c -5.032,-0.723 -5.032,-5.039 -5.032,-5.039 0,0 -2.429,0 -2.429,-2.434 0,-2.43 2.304,-2.738 2.304,-2.738 l 0,-9.621 c 0,0 -10.293,-1.899 -14.902,-13.719 -4.57,-11.82 -11.367,-9.133 -11.367,-9.133 l -6.778,-6.699 7.5,-7.422 1.797,0 0,-84.531 c 17.696,8.801 30.528,24.14 30.528,24.14 0,0 13.054,-15.339 30.754,-24.14 l 0,84.531 1.816,0 7.469,7.422 -6.758,6.699"
             id="path32"
             style="fill:#e51636;fill-opacity:1;fill-rule:nonzero;stroke:none" /></g></g></g></g></svg>