<?xml version="1.0" encoding="UTF-8"?>
<svg xmlns="http://www.w3.org/2000/svg" xmlns:xlink="http://www.w3.org/1999/xlink" width="35pt" height="25pt" viewBox="0 0 35 25" version="1.1">
<g id="surface1">
<path style=" stroke:none;fill-rule:nonzero;fill:rgb(0%,0%,0%);fill-opacity:1;" d="M 19.238281 3.695312 C 19.136719 4.230469 19.277344 4.632812 19.558594 4.855469 C 19.652344 4.960938 19.777344 5.035156 19.929688 5.066406 C 20.402344 5.167969 20.945312 5.007812 21.410156 4.648438 C 21.726562 4.402344 22.003906 4.066406 22.199219 3.65625 C 22.324219 3.382812 22.40625 3.128906 22.449219 2.902344 C 22.507812 2.582031 22.488281 2.308594 22.410156 2.089844 C 22.367188 1.957031 22.300781 1.847656 22.222656 1.753906 C 22.144531 1.664062 22.050781 1.59375 21.949219 1.539062 C 21.808594 1.472656 21.660156 1.4375 21.503906 1.429688 C 21.707031 1.328125 21.925781 1.277344 22.136719 1.28125 C 22.308594 1.289062 22.464844 1.332031 22.597656 1.410156 C 22.601562 1.410156 22.601562 1.410156 22.605469 1.414062 C 22.652344 1.300781 22.707031 1.195312 22.769531 1.09375 C 23.054688 0.609375 23.464844 0.226562 23.910156 0.015625 L 23.910156 0 C 22.210938 -0.0429688 19.589844 1.796875 19.238281 3.695312 "/>
<path style=" stroke:none;fill-rule:nonzero;fill:rgb(0%,0%,0%);fill-opacity:1;" d="M 16.097656 4.804688 C 16.105469 5.25 16.292969 5.546875 16.558594 5.675781 C 16.65625 5.746094 16.773438 5.78125 16.902344 5.78125 C 17.304688 5.78125 17.722656 5.5625 18.042969 5.199219 C 18.257812 4.953125 18.429688 4.636719 18.515625 4.277344 C 18.574219 4.035156 18.597656 3.824219 18.589844 3.632812 C 18.582031 3.371094 18.519531 3.15625 18.417969 2.992188 C 18.359375 2.894531 18.289062 2.816406 18.207031 2.757812 C 18.128906 2.699219 18.039062 2.65625 17.945312 2.632812 C 17.820312 2.601562 17.691406 2.597656 17.5625 2.621094 C 17.710938 2.503906 17.878906 2.425781 18.054688 2.394531 C 18.195312 2.371094 18.332031 2.382812 18.453125 2.417969 C 18.457031 2.417969 18.460938 2.421875 18.460938 2.421875 C 18.480469 2.324219 18.507812 2.230469 18.539062 2.136719 C 18.6875 1.710938 18.957031 1.339844 19.28125 1.097656 L 19.277344 1.078125 C 17.875 1.335938 16.058594 3.238281 16.097656 4.804688 "/>
<path style=" stroke:none;fill-rule:nonzero;fill:rgb(0%,0%,0%);fill-opacity:1;" d="M 15.152344 4.4375 C 15.152344 4.4375 15.15625 4.4375 15.15625 4.4375 C 15.164062 4.363281 15.171875 4.289062 15.1875 4.214844 C 15.253906 3.871094 15.421875 3.558594 15.648438 3.339844 L 15.640625 3.328125 C 14.582031 3.675781 13.378906 5.320312 13.582031 6.511719 C 13.640625 6.847656 13.8125 7.058594 14.039062 7.128906 C 14.121094 7.167969 14.214844 7.1875 14.316406 7.171875 C 14.628906 7.128906 14.929688 6.917969 15.136719 6.605469 C 15.277344 6.390625 15.375 6.132812 15.402344 5.847656 C 15.421875 5.660156 15.417969 5.496094 15.390625 5.351562 C 15.355469 5.152344 15.28125 4.992188 15.1875 4.878906 C 15.128906 4.8125 15.066406 4.761719 14.996094 4.722656 C 14.929688 4.6875 14.855469 4.664062 14.777344 4.65625 C 14.679688 4.644531 14.578125 4.65625 14.480469 4.6875 C 14.585938 4.582031 14.707031 4.507812 14.839844 4.464844 C 14.945312 4.429688 15.050781 4.421875 15.152344 4.4375 "/>
<path style=" stroke:none;fill-rule:nonzero;fill:rgb(0%,0%,0%);fill-opacity:1;" d="M 22.625 4.210938 C 22.445312 4.566406 22.453125 4.878906 22.597656 5.09375 C 22.640625 5.1875 22.710938 5.265625 22.804688 5.320312 C 23.105469 5.484375 23.507812 5.484375 23.898438 5.324219 C 24.164062 5.214844 24.421875 5.035156 24.640625 4.785156 C 24.785156 4.617188 24.890625 4.457031 24.964844 4.304688 C 25.074219 4.09375 25.117188 3.894531 25.113281 3.726562 C 25.109375 3.625 25.089844 3.53125 25.054688 3.453125 C 25.019531 3.371094 24.972656 3.300781 24.914062 3.246094 C 24.832031 3.167969 24.738281 3.113281 24.636719 3.074219 C 24.796875 3.046875 24.953125 3.054688 25.09375 3.101562 C 25.210938 3.140625 25.304688 3.203125 25.382812 3.285156 C 25.382812 3.285156 25.386719 3.285156 25.386719 3.289062 C 25.441406 3.21875 25.5 3.15625 25.5625 3.097656 C 25.851562 2.820312 26.203125 2.636719 26.542969 2.574219 L 26.546875 2.550781 C 25.398438 2.191406 23.257812 2.953125 22.625 4.210938 "/>
<path style=" stroke:none;fill-rule:nonzero;fill:rgb(87.843137%,0.392157%,13.333333%);fill-opacity:1;" d="M 18.628906 25 L 10.75 25 L 11.6875 21.789062 L 19.566406 21.789062 Z M 18.628906 25 "/>
<path style=" stroke:none;fill-rule:nonzero;fill:rgb(0%,0%,0%);fill-opacity:1;" d="M 23.320312 7.113281 C 22.328125 6.5625 21.316406 6.195312 19.996094 6.195312 C 15.902344 6.195312 12.449219 9.867188 11.648438 13.691406 C 10.722656 18.105469 13.417969 20.796875 16.460938 20.738281 C 19.71875 20.675781 21.265625 17.183594 21.535156 16.464844 L 21.503906 16.460938 C 20.386719 18.304688 18.722656 18.960938 17.992188 18.960938 C 14.902344 18.960938 14.875 15.894531 15.535156 13.445312 C 16.449219 10.054688 17.886719 7.949219 19.980469 7.949219 C 20.738281 7.949219 21.832031 8.488281 22.074219 10.914062 L 22.117188 10.917969 C 22.320312 10.355469 23.320312 7.113281 23.320312 7.113281 "/>
</g>
</svg>
