<?xml version="1.0" encoding="UTF-8"?>
<svg xmlns="http://www.w3.org/2000/svg" xmlns:xlink="http://www.w3.org/1999/xlink" width="35pt" height="25pt" viewBox="0 0 35 25" version="1.1">
<g id="surface1">
<path style=" stroke:none;fill-rule:nonzero;fill:rgb(51.764706%,51.764706%,51.372549%);fill-opacity:1;" d="M 8.507812 20.824219 L 10.285156 20.824219 L 10.285156 22.242188 L 8.507812 22.242188 Z M 8.507812 20.824219 "/>
<path style=" stroke:none;fill-rule:nonzero;fill:rgb(51.764706%,51.764706%,51.372549%);fill-opacity:1;" d="M 29.765625 18.136719 L 29.03125 17.265625 C 28.574219 16.71875 28.308594 16.257812 28.035156 15.726562 C 28.214844 15.726562 28.394531 15.699219 28.605469 15.640625 L 29.449219 15.410156 L 28.761719 14.898438 L 28.785156 14.550781 C 28.847656 13.535156 28.550781 12.535156 27.890625 11.570312 C 27.988281 11.515625 28.082031 11.449219 28.183594 11.367188 L 28.566406 11.054688 L 28.203125 10.722656 C 27.777344 10.332031 27.5625 10.097656 27.417969 9.859375 L 27.824219 10.015625 L 27.761719 9.332031 C 27.660156 8.25 27.460938 7.648438 26.832031 6.621094 C 27.191406 6.070312 27.214844 5.488281 27.238281 4.878906 L 27.269531 4.101562 L 26.707031 4.253906 C 26.65625 4.269531 26.617188 4.28125 26.578125 4.289062 C 26.53125 3.1875 26.105469 1.730469 25.5625 0.953125 C 25.210938 0.457031 24.730469 0.191406 24.167969 0.191406 C 23.113281 0.191406 21.988281 1.097656 20.996094 1.898438 C 20.679688 2.152344 20.378906 2.394531 20.132812 2.558594 C 20.019531 2.578125 19.730469 2.582031 19.488281 2.585938 C 19.238281 2.589844 18.957031 2.597656 18.671875 2.613281 C 18.351562 2.632812 18.03125 2.667969 17.761719 2.695312 C 17.542969 2.71875 17.363281 2.738281 17.277344 2.742188 C 17.015625 2.695312 16.296875 2.058594 15.144531 0.847656 C 15.003906 0.699219 14.882812 0.578125 14.800781 0.492188 L 14.304688 0 L 14.089844 0.664062 C 14.070312 0.726562 14.050781 0.792969 14.03125 0.863281 C 13.53125 0.496094 12.945312 0.121094 12.394531 0.0859375 L 12.304688 0.0820312 C 10.785156 0.0820312 10.191406 2.3125 9.980469 3.527344 L 9.335938 3.023438 L 9.214844 3.730469 C 9.117188 4.300781 9.175781 4.917969 9.367188 5.507812 C 9.1875 5.46875 9 5.421875 8.777344 5.355469 L 7.878906 5.101562 L 8.386719 6.195312 C 8.585938 6.636719 8.777344 7.058594 9.058594 7.460938 C 8.023438 8.082031 7.210938 9.222656 6.882812 10.554688 L 6.71875 11.21875 L 7.386719 11.074219 C 7.476562 11.054688 7.566406 11.039062 7.652344 11.027344 C 6.871094 12.203125 6.484375 13.320312 6.5 14.351562 L 6.523438 15.582031 L 6.824219 15.1875 C 6.742188 15.96875 6.8125 16.808594 7.035156 17.738281 L 7.328125 18.96875 L 7.949219 17.578125 C 8.039062 17.367188 8.132812 17.15625 8.230469 16.949219 C 8.265625 17.167969 8.300781 17.367188 8.335938 17.554688 C 8.527344 18.59375 8.644531 19.222656 7.699219 20.585938 L 7.261719 21.214844 L 8.027344 21.257812 C 8.824219 21.300781 9.402344 21.226562 9.960938 20.953125 C 9.941406 21.378906 9.917969 21.75 9.859375 22.191406 L 9.777344 22.851562 L 10.414062 22.652344 C 10.5625 22.605469 10.761719 22.535156 10.976562 22.445312 C 10.898438 22.628906 10.804688 22.828125 10.691406 23.042969 L 10.453125 23.503906 L 10.949219 23.652344 L 10.953125 23.652344 L 10.507812 23.84375 L 11.410156 24.238281 C 13.25 25.050781 14.53125 24.75 15.613281 23.296875 C 16.589844 24.226562 18.035156 24.886719 19.3125 24.953125 L 20.175781 25 L 19.871094 24.554688 L 20.789062 24.8125 L 20.53125 24.042969 C 20.503906 23.96875 20.464844 23.84375 20.425781 23.695312 C 20.464844 23.714844 20.503906 23.730469 20.542969 23.75 L 20.835938 23.886719 L 21.046875 23.644531 C 21.195312 23.472656 21.355469 23.269531 21.507812 23.050781 C 21.578125 23.328125 21.625 23.605469 21.628906 23.8125 L 21.644531 24.460938 L 22.230469 24.191406 C 23.109375 23.796875 23.804688 23.375 24.332031 22.914062 C 24.332031 22.9375 24.328125 22.953125 24.328125 22.972656 L 24.226562 23.964844 L 25.015625 23.355469 C 25.144531 23.257812 25.253906 23.167969 25.355469 23.074219 L 25.390625 23.851562 L 26.101562 22.941406 C 26.308594 22.671875 26.546875 22.355469 26.769531 22 L 26.890625 23.207031 L 27.554688 21.972656 C 28.238281 20.699219 28.429688 19.355469 28.132812 17.878906 C 28.296875 17.910156 28.453125 17.9375 28.640625 17.964844 Z M 29.765625 18.136719 "/>
<path style=" stroke:none;fill-rule:evenodd;fill:rgb(100%,100%,100%);fill-opacity:1;" d="M 21.78125 13.097656 C 21.8125 13.070312 22.058594 12.847656 22.15625 12.75 C 22.222656 12.679688 22.292969 12.589844 22.359375 12.503906 C 22.5 12.613281 22.484375 12.597656 22.570312 12.65625 C 22.671875 12.726562 22.730469 12.777344 22.835938 12.828125 C 22.683594 12.941406 22.59375 12.996094 22.414062 13.050781 C 22.179688 13.128906 21.816406 13.101562 21.78125 13.097656 M 25.210938 12.570312 C 25.042969 13.054688 24.71875 13.566406 24.359375 14.027344 C 25.191406 14.824219 25.0625 15.710938 25.0625 15.8125 C 25.0625 16.765625 23.515625 17.347656 22.734375 16.867188 C 22.042969 17.648438 21 17.214844 21 17.214844 C 21.078125 17.457031 21.136719 17.726562 21.308594 18.011719 C 21.421875 18.195312 21.5 18.292969 21.652344 18.449219 C 21.144531 18.304688 20.792969 18.074219 20.441406 17.609375 C 20.246094 17.359375 20.203125 17.054688 20.121094 16.941406 C 20.058594 16.851562 19.304688 16.542969 19.179688 16.53125 C 18.664062 16.46875 18.378906 16.621094 17.933594 16.84375 C 17.140625 17.25 17.023438 18.132812 17.023438 18.132812 C 16.949219 17.90625 16.96875 17.625 17.070312 17.328125 C 17.304688 16.621094 17.933594 16.164062 17.933594 16.164062 C 17.089844 16.25 16.171875 16.761719 15.746094 17.507812 C 15.699219 17.589844 15.351562 18.113281 15.21875 18.550781 C 15.25 17.550781 15.554688 16.90625 16.195312 16.292969 C 16.582031 15.925781 17.105469 15.726562 17.402344 15.625 C 16.066406 15.21875 14.820312 16.042969 14.820312 16.042969 C 15.292969 15.351562 16.15625 15.050781 16.902344 15.050781 C 17.539062 15.050781 17.933594 15.171875 18.800781 15.542969 C 19.539062 15.859375 20.835938 16.585938 21.703125 16.46875 C 22.039062 16.421875 22.03125 15.988281 21.945312 15.710938 C 21.511719 15.679688 21.265625 15.644531 20.84375 15.554688 C 20.203125 15.417969 19.71875 15.203125 19.25 15.035156 C 18.933594 14.921875 17.492188 14.265625 16.824219 13.589844 C 16.570312 13.335938 16.550781 13.125 16.449219 12.800781 L 15.855469 12.769531 C 16.375 12.199219 16.859375 12.148438 17.550781 12.460938 C 19.203125 13.199219 20.296875 13.832031 21.617188 13.660156 C 22.640625 13.523438 22.964844 13.378906 23.402344 12.941406 C 23.402344 12.941406 23.773438 13.445312 24.082031 13.472656 C 24.386719 13.089844 24.953125 12.15625 24.898438 11.484375 C 24.777344 11.777344 24.539062 12.15625 24.289062 12.410156 C 24.140625 12.566406 23.910156 12.75 23.910156 12.75 C 24.011719 12.445312 24.042969 12.035156 24.027344 11.789062 C 23.808594 12.277344 23.402344 12.71875 23.402344 12.71875 C 23.402344 12.71875 23.199219 12.640625 23.011719 12.546875 C 22.820312 12.453125 22.265625 12.109375 22.023438 11.648438 C 21.851562 11.328125 21.789062 11.070312 21.796875 10.746094 C 21.832031 9.695312 23.617188 9.820312 23.617188 9.820312 C 22.996094 9.363281 22.347656 8.96875 21.660156 8.574219 C 21.496094 8.480469 21.246094 8.34375 20.976562 8.207031 C 20.914062 7.941406 20.894531 7.789062 20.882812 7.519531 C 20.867188 6.964844 21.085938 6.292969 21.085938 6.292969 C 21.136719 6.574219 21.167969 6.777344 21.273438 7.0625 C 21.296875 7.03125 21.371094 6.882812 21.386719 6.847656 C 21.527344 6.519531 21.886719 6.058594 22.394531 5.921875 C 22.394531 5.921875 22.105469 6.320312 21.972656 6.605469 C 21.796875 6.976562 21.679688 7.613281 21.679688 7.613281 C 21.679688 7.613281 21.988281 7.285156 22.332031 7.210938 C 22.589844 7.15625 22.6875 7.183594 22.6875 7.183594 C 22.371094 7.347656 21.953125 7.820312 22.085938 8.226562 C 22.144531 8.035156 22.355469 7.769531 22.574219 7.695312 C 23.25 7.457031 23.457031 7.878906 23.765625 8.332031 C 23.878906 8.492188 24.09375 8.71875 24.214844 8.816406 L 23.839844 8.820312 C 23.742188 8.921875 23.601562 9.039062 23.460938 9.113281 C 24.121094 9.539062 25.1875 10.027344 25.390625 10.808594 C 25.640625 11.761719 25.304688 12.308594 25.210938 12.570312 Z M 13.304688 14.65625 C 12.679688 15.148438 12.238281 15.597656 11.773438 16.363281 C 11.953125 15.410156 12.410156 14.675781 13.300781 14.082031 C 14.132812 13.53125 14.957031 13.367188 15.792969 13.523438 C 14.75 13.738281 14.144531 13.996094 13.304688 14.65625 Z M 13.6875 10.359375 C 13.105469 10.515625 12.773438 10.683594 12.292969 11.011719 C 12.488281 10.660156 12.636719 10.519531 12.941406 10.308594 C 13.230469 10.109375 13.425781 10.027344 13.769531 9.960938 C 13.375 9.851562 13.195312 9.824219 12.730469 9.820312 C 12.410156 9.816406 12.203125 9.835938 11.875 9.90625 C 12.296875 9.511719 13.09375 9.441406 13.929688 9.589844 C 14.582031 9.703125 15.125 9.933594 15.511719 10.207031 C 14.851562 10.152344 14.289062 10.195312 13.6875 10.359375 Z M 13.117188 8.574219 C 13.992188 8.550781 14.421875 8.792969 15.265625 8.808594 C 15.511719 8.8125 15.617188 8.816406 15.898438 8.804688 C 15.898438 8.804688 15.507812 9.125 15.5 9.128906 C 15.6875 9.246094 15.992188 9.472656 16.238281 9.761719 C 16.46875 10.035156 16.609375 10.21875 16.722656 10.542969 C 16.179688 10.042969 15.824219 9.800781 15.15625 9.484375 C 13.90625 8.890625 13.023438 8.753906 11.652344 8.933594 C 12.078125 8.667969 12.488281 8.589844 13.117188 8.574219 Z M 12.339844 4.195312 C 12.179688 3.878906 12.027344 3.300781 12.027344 3.300781 C 12.453125 3.9375 13.191406 4.632812 13.191406 4.632812 C 13.027344 4.296875 12.640625 2.871094 12.800781 2.011719 C 12.867188 2.367188 13.257812 3.304688 13.804688 3.960938 C 14.171875 4.402344 14.90625 4.945312 14.90625 4.945312 C 14.90625 4.945312 14.609375 4.929688 14.425781 4.886719 C 14.109375 4.8125 13.914062 4.691406 13.667969 4.542969 C 13.667969 4.542969 13.789062 4.898438 14.367188 5.300781 C 14.019531 5.347656 13.738281 5.363281 13.566406 5.359375 C 13.578125 5.582031 13.601562 5.792969 13.664062 6.015625 C 13.261719 5.671875 12.746094 4.988281 12.339844 4.195312 Z M 15.722656 4.511719 C 15.722656 4.511719 15.542969 4.246094 15.378906 4.046875 C 15.378906 4.046875 15.839844 4.144531 16.132812 4.316406 C 16.300781 4.410156 16.394531 4.46875 16.542969 4.59375 C 16.28125 4.691406 16.074219 4.773438 15.882812 4.882812 C 15.136719 5.300781 14.144531 6.242188 14.144531 6.242188 C 14.144531 6.242188 14.398438 5.800781 14.640625 5.511719 C 15 5.078125 15.246094 4.835938 15.722656 4.511719 Z M 19.78125 9.679688 C 19.765625 9.691406 19.167969 9.886719 18.648438 9.847656 C 18.5625 9.839844 18.515625 9.820312 18.429688 9.796875 C 18.636719 9.738281 18.746094 9.683594 18.941406 9.589844 C 19.226562 9.449219 19.320312 9.351562 19.519531 9.148438 C 19.519531 9.148438 19.738281 9.578125 19.78125 9.679688 Z M 18.402344 5.957031 C 19.167969 6.429688 19.609375 7.261719 19.609375 7.261719 C 19.609375 7.261719 19.464844 6.714844 19.28125 6.285156 C 19.023438 5.679688 18.527344 5.152344 18.527344 5.152344 C 18.878906 5.25 19.160156 5.40625 19.40625 5.722656 C 20.292969 6.867188 20.371094 8.167969 20.371094 8.167969 L 19.894531 8.601562 C 19.847656 8.421875 19.871094 8.382812 19.796875 8.125 C 19.59375 8.757812 18.996094 9.328125 18.28125 9.347656 C 17.570312 9.367188 16.945312 8.785156 16.945312 8.785156 L 16.296875 8.757812 C 16.492188 8.652344 16.675781 8.589844 16.910156 8.464844 C 17.425781 8.199219 17.484375 7.808594 18.171875 7.671875 C 18.589844 7.585938 18.660156 7.664062 18.804688 7.675781 C 18.710938 7.53125 18.144531 6.734375 16.828125 6.945312 C 15.980469 7.082031 15.429688 7.988281 14.519531 7.894531 C 14.285156 7.871094 14.136719 7.804688 13.960938 7.660156 C 14.222656 7.675781 14.453125 7.65625 14.660156 7.605469 C 15.597656 7.363281 16.011719 6.414062 17.109375 6.335938 C 17.492188 6.308594 18.007812 6.347656 18.183594 6.496094 C 17.878906 5.824219 16.808594 5.640625 16.808594 5.640625 C 17.320312 5.488281 17.882812 5.636719 18.402344 5.957031 Z M 22.785156 6.078125 C 22.925781 6.15625 22.996094 6.195312 23.109375 6.324219 C 23.359375 6.605469 23.433594 6.816406 23.558594 7.328125 C 23.414062 7.140625 23.316406 7.042969 23.132812 6.898438 C 22.90625 6.71875 22.769531 6.65625 22.484375 6.535156 C 22.589844 6.359375 22.785156 6.078125 22.785156 6.078125 Z M 25.101562 9.125 C 25.101562 9.125 25.71875 10.144531 26.515625 10.425781 C 26.515625 10.425781 26.117188 9.90625 25.917969 9.539062 C 25.257812 8.316406 25.128906 7.535156 24.144531 6.476562 C 22.574219 4.78125 21.027344 4.230469 21.027344 4.230469 C 21.996094 4.109375 22.246094 3.1875 23.222656 2.691406 C 23.347656 2.632812 23.835938 2.417969 24.066406 2.402344 C 23.4375 2.929688 22.683594 3.578125 22.460938 4.386719 C 23.335938 4.050781 24 2.871094 24 2.871094 C 24 2.871094 23.953125 3.285156 23.953125 3.289062 C 23.78125 3.960938 23.527344 4.34375 22.976562 4.8125 C 23.460938 4.960938 24.007812 4.503906 24.203125 4.253906 C 24.3125 4.105469 24.453125 3.769531 24.453125 3.769531 C 24.453125 3.769531 24.484375 4.167969 24.476562 4.230469 C 24.414062 4.8125 24.3125 5.070312 23.933594 5.628906 C 24.519531 6.117188 25.371094 7.191406 25.707031 7.945312 C 25.707031 7.945312 26.121094 8.070312 26.335938 8.214844 C 26.316406 7.945312 25.953125 6.964844 25.300781 6.476562 C 26.03125 6.160156 26.167969 5.488281 26.167969 5.488281 C 26.167969 5.488281 25.855469 5.585938 25.648438 5.632812 C 25.363281 5.699219 24.910156 5.746094 24.910156 5.746094 C 24.910156 5.746094 25.265625 5.054688 25.277344 4.703125 C 25.320312 3.734375 25.179688 3.097656 24.808594 2.277344 C 24.605469 1.832031 24.441406 1.554688 24.089844 1.515625 C 23.472656 1.445312 22.5 2.378906 22.203125 2.570312 C 21.394531 3.082031 20.742188 3.996094 19.753906 3.871094 C 19.753906 3.871094 19.035156 3.855469 18.574219 3.871094 C 18.027344 3.890625 17.246094 3.988281 17.171875 3.984375 C 16.542969 3.960938 15.40625 2.667969 15.035156 2.234375 C 14.925781 2.808594 15.136719 3.449219 15.316406 3.960938 C 15.316406 3.960938 14.96875 3.628906 14.804688 3.371094 C 14.589844 3.035156 14.4375 2.558594 14.4375 2.558594 C 14.4375 2.558594 13.597656 1.945312 13.375 1.785156 C 13.152344 1.621094 12.746094 1.3125 12.398438 1.375 C 11.90625 1.460938 11.574219 2.285156 11.398438 2.90625 C 11.0625 4.105469 11.09375 4.992188 11.09375 4.992188 C 11.09375 4.992188 11.351562 5.234375 11.535156 5.363281 C 11.769531 5.53125 12.058594 5.621094 12.058594 5.621094 C 11.9375 5.296875 11.746094 4.824219 11.792969 4.328125 C 12.214844 5.078125 12.566406 5.605469 13.253906 6.195312 C 12.261719 6.207031 11.453125 5.957031 10.511719 5.328125 C 10.542969 5.859375 11.050781 6.308594 11.535156 6.539062 C 11.871094 6.703125 12.460938 6.792969 12.460938 6.792969 C 12.050781 6.902344 11.515625 6.898438 10.914062 6.84375 C 10.527344 6.8125 10.308594 6.765625 9.925781 6.675781 C 10.132812 7.066406 10.632812 7.542969 10.632812 7.542969 C 10.632812 7.542969 11.355469 7.355469 11.824219 7.351562 C 12.394531 7.34375 12.726562 7.398438 13.265625 7.59375 C 12.105469 7.507812 10.960938 7.753906 9.839844 8.4375 C 9.214844 8.816406 8.804688 9.226562 8.527344 9.765625 C 9.164062 9.324219 9.375 9.257812 9.972656 9.066406 C 10.4375 8.917969 10.714844 8.867188 11.203125 8.824219 C 10.851562 9.066406 10.660156 9.214844 10.34375 9.496094 C 9.480469 10.269531 8.90625 10.996094 8.511719 11.839844 C 9.207031 11.277344 10.519531 10.675781 11.339844 10.601562 C 11.339844 10.601562 10.90625 10.855469 10.4375 11.226562 C 8.816406 12.5 8.265625 13.636719 7.972656 15.015625 C 8.535156 14.210938 8.980469 13.585938 9.894531 12.996094 C 10.195312 12.800781 10.375 12.703125 10.703125 12.558594 C 9.867188 13.351562 9.488281 14.175781 9.367188 15.183594 C 9.296875 15.753906 9.363281 16.351562 9.433594 16.722656 C 9.796875 15.699219 10.523438 14.695312 11.359375 14.007812 C 11.769531 13.671875 13.117188 13.039062 14.175781 13.082031 C 13.027344 13.410156 12.332031 14.074219 12.050781 14.433594 C 11.644531 14.949219 11.183594 15.878906 10.894531 17.152344 C 10.824219 16.671875 10.8125 16.390625 10.894531 15.914062 C 10.949219 15.578125 11.039062 15.183594 11.195312 14.8125 C 10.949219 15.0625 10.605469 15.398438 10.34375 15.835938 C 9.78125 16.765625 9.890625 17.582031 9.738281 18.652344 C 9.636719 19.347656 9.457031 19.71875 9.21875 20.042969 C 9.847656 19.863281 10.339844 19.433594 10.65625 18.753906 C 10.867188 18.304688 10.882812 17.507812 10.882812 17.507812 C 10.882812 17.507812 11.070312 18.136719 11.117188 18.550781 C 11.253906 19.761719 11.183594 20.210938 11.09375 20.886719 C 11.691406 20.558594 12.09375 20.101562 12.339844 19.210938 C 12.539062 18.511719 12.441406 18.101562 12.441406 18.101562 C 12.441406 18.101562 12.757812 18.5625 12.699219 19.269531 C 12.675781 19.609375 12.519531 20.070312 12.386719 20.378906 C 12.386719 20.378906 12.480469 20.988281 12.464844 21.378906 C 12.441406 21.933594 12.164062 22.769531 12.164062 22.769531 C 12.53125 22.714844 13.296875 22.398438 13.585938 21.417969 C 13.699219 21.03125 13.542969 20.359375 13.542969 20.359375 C 13.542969 20.359375 13.96875 20.664062 13.96875 21.523438 C 13.976562 22.664062 13.128906 23.589844 13.128906 23.589844 C 14.140625 23.511719 15.015625 22.601562 15.054688 21.539062 C 15.078125 20.976562 14.972656 20.445312 14.992188 19.902344 C 15.003906 19.589844 15.144531 19.128906 15.144531 19.128906 C 15.144531 19.128906 15.195312 21.210938 16.664062 22.613281 C 17.089844 23.015625 17.675781 23.320312 17.921875 23.429688 C 17.921875 23.429688 17.6875 22.660156 17.675781 22.476562 C 17.675781 22.476562 17.386719 22.011719 17.261719 21.714844 C 16.808594 20.636719 17.003906 19.796875 17.058594 19.761719 C 17.105469 20.199219 17.175781 20.324219 17.292969 20.671875 C 17.699219 21.839844 18.261719 22.410156 19.160156 23.0625 C 19.082031 22.332031 19.035156 21.683594 19.394531 20.796875 C 19.488281 20.558594 19.589844 20.402344 19.746094 20.242188 C 19.746094 20.242188 19.648438 20.617188 19.652344 20.863281 C 19.660156 21.324219 19.730469 21.601562 20.027344 21.984375 C 20.070312 21.625 20.09375 21.480469 20.167969 21.144531 C 20.238281 20.839844 20.4375 20.59375 20.4375 20.59375 C 20.4375 20.59375 20.789062 21.402344 20.796875 22.199219 C 21.304688 21.410156 21.3125 20.878906 21.074219 20.078125 C 20.984375 19.769531 20.714844 19.328125 20.714844 19.328125 C 20.714844 19.328125 21.167969 19.648438 21.496094 20.109375 C 22.367188 21.34375 22.570312 22.621094 22.570312 22.621094 L 22.664062 22.078125 C 22.675781 21.574219 22.6875 21.023438 22.488281 20.679688 C 22.488281 20.679688 22.75 20.914062 22.855469 21.109375 C 23.125 21.601562 23.101562 22.242188 23.101562 22.242188 C 23.101562 22.242188 23.539062 21.019531 23.214844 20.089844 C 23.148438 19.894531 22.992188 19.613281 22.992188 19.613281 C 23.070312 19.667969 23.265625 19.800781 23.394531 19.964844 C 23.886719 20.59375 23.859375 21.160156 23.898438 21.78125 C 23.898438 21.78125 24.570312 20.964844 24.398438 19.886719 C 24.246094 18.945312 23.382812 18.304688 23.382812 18.304688 C 23.628906 18.359375 24.457031 18.761719 24.964844 19.71875 C 25.246094 20.246094 25.359375 21.242188 25.359375 21.242188 C 25.359375 21.242188 25.609375 20.519531 25.539062 19.628906 C 25.449219 18.496094 24.96875 18.042969 24.96875 18.042969 C 25.359375 18.097656 25.964844 19.257812 26.050781 19.585938 C 26.132812 19.898438 26.261719 20.386719 26.261719 20.386719 L 26.253906 20.421875 C 26.503906 19.738281 26.355469 18.9375 26.003906 18.09375 C 25.863281 17.753906 25.761719 17.570312 25.550781 17.269531 C 25.886719 17.449219 26.066406 17.609375 26.324219 17.898438 C 26.839844 18.484375 26.863281 18.773438 27.148438 19.445312 C 27.191406 18.1875 26.9375 17.378906 26.425781 16.519531 C 25.976562 15.765625 25.515625 14.613281 25.515625 14.613281 C 25.515625 14.613281 25.84375 15.113281 26.097656 15.398438 C 26.402344 15.738281 26.726562 16.011719 26.972656 16.179688 C 26.738281 15.800781 26.425781 15.136719 26.109375 14.453125 C 25.90625 14.007812 25.605469 13.296875 25.605469 13.296875 C 25.605469 13.296875 26.078125 13.71875 26.15625 13.78125 C 26.660156 14.179688 26.976562 14.351562 26.976562 14.351562 C 26.832031 13.980469 26.660156 13.75 26.546875 13.328125 C 26.488281 13.121094 26.457031 12.90625 26.4375 12.78125 C 26.4375 12.78125 27.136719 13.277344 27.5 13.390625 C 27.230469 11.964844 25.335938 10.726562 25.101562 9.125 Z M 25.101562 9.125 "/>
<path style=" stroke:none;fill-rule:evenodd;fill:rgb(51.764706%,51.764706%,51.372549%);fill-opacity:1;" d="M 24.496094 10.957031 C 24.484375 11.058594 24.554688 11.148438 24.636719 11.265625 C 24.707031 11.1875 24.816406 11.148438 24.847656 11.027344 C 24.878906 10.902344 24.871094 10.800781 24.773438 10.710938 C 24.632812 10.722656 24.515625 10.820312 24.496094 10.957031 "/>
<path style=" stroke:none;fill-rule:evenodd;fill:rgb(100%,100%,100%);fill-opacity:1;" d="M 18.894531 13.964844 C 18.699219 13.84375 18.542969 13.628906 18.332031 13.628906 C 18.238281 13.628906 18.195312 13.6875 18.195312 13.757812 C 18.195312 14.078125 18.667969 14.265625 19.058594 14.453125 C 19.234375 14.539062 19.472656 14.617188 19.535156 14.625 C 19.441406 14.453125 19.421875 14.335938 19.394531 14.183594 C 19.203125 14.117188 19.074219 14.078125 18.894531 13.964844 "/>
<path style=" stroke:none;fill-rule:evenodd;fill:rgb(79.215686%,0%,0%);fill-opacity:1;" d="M 23.679688 14.144531 C 23.582031 14.121094 23.078125 14.183594 23.195312 14.414062 C 23.230469 14.484375 23.421875 14.734375 23.492188 14.953125 C 23.527344 15.058594 23.535156 15.199219 23.515625 15.351562 C 23.296875 14.902344 22.996094 14.523438 22.835938 14.371094 C 22.652344 14.195312 22.171875 14.347656 22.113281 14.707031 C 22.046875 15.117188 22.386719 15.433594 22.605469 15.78125 C 22.773438 16.054688 22.992188 16.316406 23.308594 16.371094 C 23.675781 16.433594 23.988281 16.25 24.128906 16.175781 C 24.628906 15.851562 24.550781 15.53125 24.4375 15.121094 C 24.300781 14.628906 23.84375 14.183594 23.679688 14.144531 "/>
<path style=" stroke:none;fill-rule:evenodd;fill:rgb(100%,100%,100%);fill-opacity:1;" d="M 21.046875 14.363281 C 20.898438 14.355469 20.84375 14.417969 20.742188 14.441406 C 20.609375 14.472656 20.238281 14.191406 20.238281 14.191406 C 20.238281 14.191406 20.125 14.171875 20.050781 14.171875 C 19.976562 14.167969 19.933594 14.179688 19.859375 14.191406 C 19.859375 14.207031 20.191406 14.988281 20.964844 15.015625 C 20.964844 15.015625 21.203125 15.023438 21.261719 15.027344 C 21.515625 15.046875 21.589844 15.039062 21.832031 15.128906 C 21.832031 15.128906 21.496094 14.386719 21.046875 14.363281 "/>
<path style=" stroke:none;fill-rule:evenodd;fill:rgb(51.764706%,51.764706%,51.372549%);fill-opacity:1;" d="M 23.074219 8.90625 C 23.074219 8.90625 23.304688 8.816406 23.367188 8.527344 C 23.167969 8.648438 22.976562 8.675781 22.730469 8.695312 C 22.800781 8.738281 23.074219 8.90625 23.074219 8.90625 "/>
<path style=" stroke:none;fill-rule:evenodd;fill:rgb(100%,100%,100%);fill-opacity:1;" d="M 22.878906 8.335938 C 22.878906 8.210938 22.777344 8.109375 22.652344 8.109375 C 22.527344 8.109375 22.425781 8.210938 22.425781 8.335938 C 22.425781 8.460938 22.527344 8.5625 22.652344 8.5625 C 22.777344 8.5625 22.878906 8.460938 22.878906 8.335938 "/>
<path style=" stroke:none;fill-rule:evenodd;fill:rgb(100%,100%,100%);fill-opacity:1;" d="M 17.980469 8.5625 C 18.105469 8.5625 18.207031 8.460938 18.207031 8.335938 C 18.207031 8.210938 18.105469 8.109375 17.980469 8.109375 C 17.855469 8.109375 17.753906 8.210938 17.753906 8.335938 C 17.753906 8.460938 17.855469 8.5625 17.980469 8.5625 "/>
<path style=" stroke:none;fill-rule:evenodd;fill:rgb(51.764706%,51.764706%,51.372549%);fill-opacity:1;" d="M 17.765625 8.652344 C 17.765625 8.652344 17.941406 8.980469 18.234375 8.96875 C 18.730469 8.949219 18.742188 8.515625 18.742188 8.515625 C 18.632812 8.609375 18.449219 8.675781 18.242188 8.695312 C 18.054688 8.71875 17.925781 8.695312 17.765625 8.652344 "/>
<path style=" stroke:none;fill-rule:evenodd;fill:rgb(51.764706%,51.764706%,51.372549%);fill-opacity:1;" d="M 23.664062 10.191406 C 23.023438 10.222656 22.28125 10.167969 22.234375 10.929688 C 22.207031 11.390625 22.628906 11.703125 22.628906 11.703125 C 22.628906 11.703125 22.875 11.929688 23.132812 11.929688 C 23.515625 11.929688 23.550781 11.355469 23.246094 11.265625 C 22.953125 11.179688 22.886719 11.300781 22.796875 11.46875 C 22.652344 11.335938 22.558594 11.183594 22.550781 10.988281 C 22.53125 10.503906 23.253906 10.492188 23.683594 10.492188 C 24.246094 10.492188 24.480469 10.59375 24.476562 10.4375 C 24.464844 10.210938 24.078125 10.167969 23.664062 10.191406 "/>
<path style=" stroke:none;fill-rule:evenodd;fill:rgb(0%,14.901961%,28.627451%);fill-opacity:1;" d="M 26.546875 13.332031 C 26.660156 13.75 26.828125 13.980469 26.976562 14.355469 C 26.976562 14.355469 26.660156 14.179688 26.15625 13.78125 C 26.078125 13.722656 25.605469 13.296875 25.605469 13.296875 C 25.605469 13.296875 25.90625 14.007812 26.109375 14.453125 C 26.425781 15.136719 26.738281 15.800781 26.972656 16.179688 C 26.726562 16.011719 26.402344 15.738281 26.097656 15.398438 C 25.84375 15.113281 25.515625 14.613281 25.515625 14.613281 C 25.515625 14.613281 25.976562 15.769531 26.425781 16.519531 C 26.9375 17.378906 27.191406 18.1875 27.144531 19.445312 C 26.863281 18.773438 26.839844 18.484375 26.324219 17.898438 C 26.066406 17.609375 25.886719 17.449219 25.550781 17.269531 C 25.761719 17.570312 25.863281 17.753906 26.003906 18.09375 C 26.355469 18.9375 26.503906 19.742188 26.253906 20.425781 L 26.261719 20.386719 C 26.261719 20.386719 26.132812 19.898438 26.050781 19.585938 C 25.964844 19.257812 25.359375 18.097656 24.96875 18.042969 C 24.96875 18.042969 25.449219 18.496094 25.539062 19.628906 C 25.609375 20.519531 25.359375 21.242188 25.359375 21.242188 C 25.359375 21.242188 25.246094 20.246094 24.964844 19.71875 C 24.457031 18.761719 23.628906 18.359375 23.382812 18.304688 C 23.382812 18.304688 24.246094 18.945312 24.398438 19.886719 C 24.570312 20.96875 23.898438 21.78125 23.898438 21.78125 C 23.859375 21.160156 23.886719 20.59375 23.390625 19.964844 C 23.265625 19.800781 23.070312 19.667969 22.992188 19.613281 C 22.992188 19.613281 23.148438 19.898438 23.214844 20.09375 C 23.539062 21.019531 23.101562 22.242188 23.101562 22.242188 C 23.101562 22.242188 23.125 21.601562 22.851562 21.109375 C 22.75 20.914062 22.488281 20.679688 22.488281 20.679688 C 22.6875 21.023438 22.675781 21.574219 22.664062 22.078125 L 22.570312 22.621094 C 22.570312 22.621094 22.367188 21.34375 21.496094 20.109375 C 21.167969 19.652344 20.714844 19.328125 20.714844 19.328125 C 20.714844 19.328125 20.984375 19.769531 21.074219 20.078125 C 21.3125 20.878906 21.304688 21.410156 20.796875 22.199219 C 20.789062 21.402344 20.4375 20.59375 20.4375 20.59375 C 20.4375 20.59375 20.238281 20.839844 20.167969 21.144531 C 20.09375 21.480469 20.070312 21.625 20.027344 21.984375 C 19.730469 21.601562 19.660156 21.324219 19.652344 20.863281 C 19.648438 20.617188 19.746094 20.246094 19.746094 20.246094 C 19.589844 20.402344 19.488281 20.558594 19.390625 20.796875 C 19.035156 21.683594 19.082031 22.332031 19.160156 23.0625 C 18.261719 22.410156 17.699219 21.839844 17.292969 20.671875 C 17.175781 20.324219 17.105469 20.199219 17.058594 19.761719 C 17.003906 19.796875 16.808594 20.636719 17.261719 21.714844 C 17.386719 22.011719 17.675781 22.476562 17.675781 22.476562 C 17.6875 22.660156 17.921875 23.429688 17.921875 23.429688 C 17.675781 23.320312 17.089844 23.015625 16.664062 22.613281 C 15.195312 21.210938 15.144531 19.128906 15.144531 19.128906 C 15.144531 19.128906 15.003906 19.589844 14.992188 19.902344 C 14.972656 20.445312 15.078125 20.976562 15.054688 21.539062 C 15.015625 22.601562 14.136719 23.511719 13.128906 23.589844 C 13.128906 23.589844 13.976562 22.664062 13.96875 21.523438 C 13.96875 20.664062 13.542969 20.359375 13.542969 20.359375 C 13.542969 20.359375 13.699219 21.03125 13.585938 21.417969 C 13.296875 22.402344 12.53125 22.714844 12.164062 22.769531 C 12.164062 22.769531 12.441406 21.933594 12.464844 21.378906 C 12.480469 20.988281 12.386719 20.382812 12.386719 20.382812 C 12.519531 20.070312 12.675781 19.609375 12.699219 19.269531 C 12.757812 18.5625 12.441406 18.101562 12.441406 18.101562 C 12.441406 18.101562 12.539062 18.511719 12.339844 19.214844 C 12.09375 20.101562 11.691406 20.558594 11.09375 20.886719 C 11.183594 20.210938 11.253906 19.761719 11.117188 18.550781 C 11.070312 18.136719 10.882812 17.507812 10.882812 17.507812 C 10.882812 17.507812 10.867188 18.304688 10.65625 18.753906 C 10.335938 19.433594 9.847656 19.863281 9.21875 20.042969 C 9.457031 19.71875 9.636719 19.347656 9.738281 18.652344 C 9.890625 17.582031 9.78125 16.765625 10.34375 15.835938 C 10.605469 15.398438 10.949219 15.0625 11.195312 14.8125 C 11.039062 15.183594 10.949219 15.578125 10.894531 15.914062 C 10.8125 16.390625 10.824219 16.671875 10.894531 17.152344 C 11.183594 15.878906 11.644531 14.949219 12.050781 14.433594 C 12.332031 14.074219 13.027344 13.410156 14.175781 13.085938 C 13.117188 13.039062 11.769531 13.671875 11.359375 14.007812 C 10.523438 14.695312 9.796875 15.699219 9.433594 16.722656 C 9.363281 16.351562 9.296875 15.753906 9.367188 15.183594 C 9.488281 14.175781 9.867188 13.351562 10.703125 12.558594 C 10.375 12.703125 10.195312 12.800781 9.894531 12.996094 C 8.980469 13.585938 8.535156 14.210938 7.972656 15.015625 C 8.265625 13.636719 8.816406 12.503906 10.4375 11.226562 C 10.90625 10.855469 11.339844 10.605469 11.339844 10.605469 C 10.519531 10.675781 9.207031 11.277344 8.511719 11.839844 C 8.90625 10.996094 9.480469 10.269531 10.34375 9.496094 C 10.660156 9.214844 10.851562 9.066406 11.203125 8.824219 C 10.714844 8.867188 10.4375 8.917969 9.972656 9.066406 C 9.375 9.257812 9.164062 9.324219 8.527344 9.765625 C 8.804688 9.226562 9.214844 8.820312 9.839844 8.441406 C 10.960938 7.753906 12.105469 7.507812 13.261719 7.59375 C 12.726562 7.402344 12.394531 7.34375 11.824219 7.351562 C 11.355469 7.355469 10.632812 7.542969 10.632812 7.542969 C 10.632812 7.542969 10.132812 7.066406 9.925781 6.675781 C 10.308594 6.765625 10.527344 6.8125 10.914062 6.84375 C 11.515625 6.898438 12.050781 6.902344 12.460938 6.792969 C 12.460938 6.792969 11.871094 6.703125 11.535156 6.539062 C 11.050781 6.308594 10.542969 5.859375 10.511719 5.332031 C 11.453125 5.960938 12.261719 6.207031 13.253906 6.199219 C 12.566406 5.605469 12.214844 5.078125 11.792969 4.328125 C 11.746094 4.824219 11.9375 5.296875 12.058594 5.621094 C 12.058594 5.621094 11.769531 5.53125 11.535156 5.363281 C 11.351562 5.234375 11.09375 4.996094 11.09375 4.996094 C 11.09375 4.996094 11.0625 4.105469 11.398438 2.90625 C 11.574219 2.285156 11.90625 1.460938 12.398438 1.375 C 12.746094 1.3125 13.152344 1.621094 13.375 1.785156 C 13.597656 1.945312 14.4375 2.5625 14.4375 2.5625 C 14.4375 2.5625 14.585938 3.035156 14.804688 3.371094 C 14.96875 3.628906 15.316406 3.960938 15.316406 3.960938 C 15.136719 3.449219 14.925781 2.8125 15.035156 2.234375 C 15.40625 2.667969 16.542969 3.960938 17.171875 3.984375 C 17.246094 3.988281 18.027344 3.890625 18.574219 3.871094 C 19.035156 3.855469 19.753906 3.871094 19.753906 3.871094 C 20.742188 3.996094 21.394531 3.082031 22.203125 2.570312 C 22.5 2.378906 23.472656 1.449219 24.089844 1.515625 C 24.441406 1.554688 24.605469 1.832031 24.808594 2.277344 C 25.179688 3.097656 25.320312 3.734375 25.277344 4.703125 C 25.265625 5.054688 24.910156 5.746094 24.910156 5.746094 C 24.910156 5.746094 25.363281 5.699219 25.648438 5.632812 C 25.855469 5.585938 26.167969 5.488281 26.167969 5.488281 C 26.167969 5.488281 26.03125 6.160156 25.300781 6.476562 C 25.953125 6.964844 26.316406 7.945312 26.335938 8.214844 C 26.121094 8.070312 25.707031 7.945312 25.707031 7.945312 C 25.371094 7.191406 24.519531 6.117188 23.933594 5.628906 C 24.3125 5.070312 24.414062 4.8125 24.476562 4.234375 C 24.484375 4.167969 24.453125 3.773438 24.453125 3.773438 C 24.453125 3.773438 24.3125 4.105469 24.203125 4.253906 C 24.007812 4.503906 23.460938 4.960938 22.976562 4.8125 C 23.527344 4.34375 23.78125 3.960938 23.953125 3.289062 C 23.953125 3.285156 24 2.871094 24 2.871094 C 24 2.871094 23.335938 4.050781 22.460938 4.386719 C 22.683594 3.578125 23.4375 2.929688 24.066406 2.402344 C 23.835938 2.417969 23.347656 2.632812 23.222656 2.691406 C 22.246094 3.1875 21.996094 4.109375 21.027344 4.230469 C 21.027344 4.230469 22.574219 4.78125 24.144531 6.476562 C 25.128906 7.535156 25.257812 8.316406 25.917969 9.539062 C 26.117188 9.90625 26.515625 10.425781 26.515625 10.425781 C 25.71875 10.144531 25.101562 9.125 25.101562 9.125 C 25.335938 10.726562 27.230469 11.964844 27.5 13.390625 C 27.136719 13.277344 26.4375 12.78125 26.4375 12.78125 C 26.457031 12.90625 26.488281 13.121094 26.546875 13.332031 M 27.234375 15.09375 C 27.730469 15.316406 28.042969 15.351562 28.492188 15.230469 C 28.175781 14.992188 27.726562 14.578125 27.59375 14.152344 C 27.894531 14.242188 28.148438 14.390625 28.355469 14.523438 C 28.429688 13.410156 28.007812 12.332031 27.152344 11.304688 C 27.472656 11.3125 27.660156 11.242188 27.910156 11.035156 C 27.011719 10.207031 26.941406 9.953125 26.679688 9.214844 C 26.828125 9.234375 27.246094 9.335938 27.335938 9.371094 C 27.234375 8.269531 27.035156 7.730469 26.308594 6.597656 C 26.808594 6.039062 26.785156 5.417969 26.816406 4.667969 C 26.527344 4.746094 26.558594 4.757812 26.132812 4.859375 C 26.265625 3.835938 25.796875 2.03125 25.210938 1.199219 C 23.988281 -0.539062 21.617188 2.097656 20.328125 2.945312 C 20.191406 3.035156 19.441406 2.996094 18.699219 3.039062 C 18.03125 3.082031 17.351562 3.1875 17.203125 3.164062 C 16.5625 3.054688 14.972656 1.269531 14.496094 0.796875 C 14.414062 1.050781 14.351562 1.289062 14.3125 1.617188 C 13.820312 1.242188 13 0.550781 12.371094 0.511719 C 10.949219 0.425781 10.390625 3.292969 10.304688 4.320312 L 9.636719 3.800781 C 9.511719 4.542969 9.679688 5.375 10.085938 6.082031 C 9.546875 5.992188 9.207031 5.925781 8.660156 5.769531 C 8.96875 6.4375 9.210938 7.054688 9.722656 7.605469 C 8.476562 8.117188 7.617188 9.371094 7.296875 10.65625 C 7.703125 10.570312 8.097656 10.542969 8.511719 10.570312 C 7.675781 11.636719 6.90625 12.976562 6.929688 14.34375 C 7.171875 14.027344 7.496094 13.691406 7.789062 13.414062 C 7.09375 14.789062 7.097656 16.152344 7.453125 17.640625 C 7.78125 16.902344 8.101562 16.136719 8.550781 15.464844 C 8.515625 17.984375 9.625 18.5625 8.050781 20.828125 C 9.03125 20.882812 9.632812 20.773438 10.421875 20.15625 C 10.386719 20.984375 10.375 21.523438 10.285156 22.242188 C 10.714844 22.109375 11.367188 21.832031 11.667969 21.566406 C 11.570312 22.167969 11.375 22.660156 11.070312 23.242188 C 11.453125 23.355469 11.882812 23.453125 12.21875 23.421875 C 12.015625 23.644531 11.890625 23.714844 11.582031 23.847656 C 13.351562 24.628906 14.539062 24.269531 15.558594 22.613281 C 16.421875 23.652344 17.984375 24.457031 19.335938 24.527344 C 19.070312 24.140625 18.9375 23.84375 18.9375 23.84375 L 20.125 24.179688 C 20.125 24.179688 19.855469 23.378906 19.824219 22.859375 C 20.148438 23.0625 20.417969 23.21875 20.726562 23.363281 C 21.042969 22.996094 21.382812 22.496094 21.625 22.070312 C 21.855469 22.558594 22.046875 23.308594 22.054688 23.804688 C 23.039062 23.359375 24.191406 22.699219 24.78125 21.765625 C 24.839844 22.183594 24.796875 22.597656 24.753906 23.015625 C 25.183594 22.6875 25.378906 22.472656 25.660156 22.019531 C 25.71875 22.210938 25.75 22.433594 25.761719 22.675781 C 26.222656 22.089844 26.644531 21.46875 26.917969 20.773438 C 27.058594 21.320312 27.132812 21.324219 27.175781 21.769531 C 27.957031 20.320312 28.007812 18.820312 27.539062 17.25 C 28.007812 17.429688 28.265625 17.472656 28.707031 17.542969 C 27.988281 16.6875 27.722656 16.03125 27.234375 15.09375 Z M 27.234375 15.09375 "/>
<path style=" stroke:none;fill-rule:evenodd;fill:rgb(0%,14.901961%,28.627451%);fill-opacity:1;" d="M 24.4375 15.121094 C 24.550781 15.53125 24.628906 15.851562 24.128906 16.175781 C 23.988281 16.25 23.675781 16.433594 23.308594 16.371094 C 22.992188 16.316406 22.773438 16.054688 22.605469 15.78125 C 22.386719 15.433594 22.046875 15.117188 22.113281 14.707031 C 22.171875 14.347656 22.652344 14.195312 22.835938 14.371094 C 22.996094 14.523438 23.296875 14.902344 23.515625 15.351562 C 23.535156 15.199219 23.527344 15.058594 23.492188 14.953125 C 23.421875 14.734375 23.230469 14.484375 23.195312 14.414062 C 23.078125 14.183594 23.582031 14.121094 23.679688 14.144531 C 23.84375 14.183594 24.300781 14.628906 24.4375 15.121094 M 21.261719 15.027344 C 21.203125 15.023438 20.964844 15.015625 20.964844 15.015625 C 20.191406 14.988281 19.859375 14.207031 19.859375 14.191406 C 19.933594 14.179688 19.976562 14.167969 20.050781 14.171875 C 20.125 14.171875 20.238281 14.191406 20.238281 14.191406 C 20.238281 14.191406 20.609375 14.472656 20.742188 14.441406 C 20.84375 14.417969 20.898438 14.355469 21.046875 14.363281 C 21.496094 14.386719 21.832031 15.128906 21.832031 15.128906 C 21.589844 15.039062 21.515625 15.046875 21.261719 15.027344 Z M 19.058594 14.453125 C 18.667969 14.265625 18.195312 14.078125 18.195312 13.757812 C 18.195312 13.6875 18.238281 13.628906 18.332031 13.628906 C 18.542969 13.628906 18.699219 13.84375 18.894531 13.964844 C 19.074219 14.078125 19.203125 14.117188 19.394531 14.183594 C 19.421875 14.335938 19.441406 14.453125 19.535156 14.625 C 19.472656 14.617188 19.234375 14.539062 19.058594 14.453125 Z M 24.847656 11.027344 C 24.816406 11.148438 24.707031 11.1875 24.636719 11.265625 C 24.554688 11.148438 24.484375 11.058594 24.496094 10.957031 C 24.515625 10.820312 24.632812 10.722656 24.773438 10.714844 C 24.871094 10.800781 24.878906 10.902344 24.847656 11.027344 Z M 23.683594 10.492188 C 23.253906 10.492188 22.53125 10.503906 22.550781 10.988281 C 22.558594 11.183594 22.652344 11.335938 22.796875 11.46875 C 22.886719 11.300781 22.953125 11.179688 23.246094 11.265625 C 23.550781 11.355469 23.515625 11.929688 23.132812 11.929688 C 22.875 11.929688 22.628906 11.703125 22.628906 11.703125 C 22.628906 11.703125 22.207031 11.390625 22.234375 10.929688 C 22.28125 10.167969 23.023438 10.222656 23.664062 10.191406 C 24.078125 10.167969 24.464844 10.210938 24.476562 10.4375 C 24.480469 10.59375 24.246094 10.492188 23.683594 10.492188 Z M 23.074219 8.90625 C 23.074219 8.90625 22.800781 8.738281 22.730469 8.695312 C 22.976562 8.675781 23.167969 8.648438 23.367188 8.527344 C 23.304688 8.816406 23.074219 8.90625 23.074219 8.90625 Z M 22.425781 8.335938 C 22.425781 8.210938 22.527344 8.109375 22.652344 8.109375 C 22.777344 8.109375 22.878906 8.210938 22.878906 8.335938 C 22.878906 8.460938 22.777344 8.5625 22.652344 8.5625 C 22.527344 8.5625 22.425781 8.460938 22.425781 8.335938 Z M 23.460938 9.113281 C 23.601562 9.039062 23.742188 8.921875 23.84375 8.820312 L 24.214844 8.816406 C 24.09375 8.71875 23.878906 8.492188 23.765625 8.328125 C 23.457031 7.875 23.25 7.457031 22.574219 7.695312 C 22.355469 7.769531 22.144531 8.03125 22.085938 8.226562 C 21.953125 7.820312 22.371094 7.347656 22.6875 7.179688 C 22.6875 7.179688 22.589844 7.15625 22.332031 7.210938 C 21.988281 7.285156 21.679688 7.613281 21.679688 7.613281 C 21.679688 7.613281 21.796875 6.976562 21.972656 6.605469 C 22.105469 6.320312 22.398438 5.921875 22.398438 5.921875 C 21.886719 6.058594 21.527344 6.519531 21.386719 6.84375 C 21.371094 6.882812 21.296875 7.03125 21.277344 7.0625 C 21.167969 6.777344 21.136719 6.574219 21.085938 6.292969 C 21.085938 6.292969 20.867188 6.964844 20.882812 7.515625 C 20.894531 7.789062 20.914062 7.941406 20.976562 8.207031 C 21.246094 8.34375 21.496094 8.480469 21.660156 8.574219 C 22.347656 8.964844 22.996094 9.363281 23.617188 9.820312 C 23.617188 9.820312 21.832031 9.695312 21.796875 10.746094 C 21.789062 11.070312 21.851562 11.328125 22.023438 11.648438 C 22.265625 12.109375 22.824219 12.453125 23.011719 12.546875 C 23.199219 12.640625 23.40625 12.71875 23.40625 12.71875 C 23.40625 12.71875 23.808594 12.277344 24.027344 11.789062 C 24.042969 12.035156 24.011719 12.445312 23.910156 12.75 C 23.910156 12.75 24.140625 12.566406 24.292969 12.410156 C 24.539062 12.152344 24.777344 11.777344 24.898438 11.484375 C 24.953125 12.152344 24.386719 13.089844 24.082031 13.46875 C 23.773438 13.445312 23.40625 12.9375 23.40625 12.9375 C 22.964844 13.378906 22.640625 13.523438 21.617188 13.65625 C 20.296875 13.832031 19.203125 13.199219 17.550781 12.460938 C 16.859375 12.148438 16.375 12.199219 15.855469 12.769531 L 16.449219 12.800781 C 16.550781 13.125 16.570312 13.335938 16.824219 13.589844 C 17.492188 14.265625 18.933594 14.921875 19.25 15.035156 C 19.71875 15.203125 20.203125 15.417969 20.84375 15.554688 C 21.265625 15.644531 21.511719 15.679688 21.945312 15.710938 C 22.03125 15.988281 22.039062 16.421875 21.703125 16.46875 C 20.835938 16.585938 19.539062 15.859375 18.800781 15.542969 C 17.933594 15.171875 17.539062 15.046875 16.902344 15.046875 C 16.160156 15.046875 15.296875 15.351562 14.820312 16.042969 C 14.820312 16.042969 16.066406 15.21875 17.402344 15.621094 C 17.105469 15.726562 16.582031 15.925781 16.195312 16.292969 C 15.554688 16.90625 15.25 17.550781 15.21875 18.550781 C 15.351562 18.113281 15.699219 17.589844 15.746094 17.507812 C 16.171875 16.757812 17.089844 16.25 17.933594 16.164062 C 17.933594 16.164062 17.304688 16.621094 17.070312 17.328125 C 16.96875 17.625 16.949219 17.90625 17.023438 18.128906 C 17.023438 18.128906 17.140625 17.246094 17.933594 16.84375 C 18.378906 16.617188 18.664062 16.46875 19.179688 16.53125 C 19.304688 16.542969 20.058594 16.851562 20.121094 16.941406 C 20.203125 17.054688 20.246094 17.359375 20.441406 17.609375 C 20.792969 18.070312 21.144531 18.304688 21.652344 18.449219 C 21.5 18.292969 21.421875 18.195312 21.308594 18.011719 C 21.136719 17.726562 21.078125 17.457031 21 17.214844 C 21 17.214844 22.046875 17.644531 22.738281 16.867188 C 23.515625 17.347656 25.0625 16.765625 25.0625 15.8125 C 25.0625 15.710938 25.191406 14.824219 24.359375 14.027344 C 24.71875 13.566406 25.042969 13.054688 25.210938 12.570312 C 25.304688 12.304688 25.640625 11.761719 25.390625 10.804688 C 25.191406 10.027344 24.121094 9.539062 23.460938 9.113281 Z M 23.460938 9.113281 "/>
<path style=" stroke:none;fill-rule:evenodd;fill:rgb(0%,14.901961%,28.627451%);fill-opacity:1;" d="M 13.664062 6.015625 C 13.601562 5.792969 13.578125 5.582031 13.566406 5.359375 C 13.738281 5.363281 14.019531 5.347656 14.367188 5.300781 C 13.789062 4.898438 13.667969 4.542969 13.667969 4.542969 C 13.914062 4.691406 14.109375 4.8125 14.425781 4.886719 C 14.609375 4.929688 14.90625 4.945312 14.90625 4.945312 C 14.90625 4.945312 14.171875 4.402344 13.804688 3.960938 C 13.257812 3.304688 12.867188 2.367188 12.800781 2.011719 C 12.640625 2.871094 13.027344 4.296875 13.191406 4.632812 C 13.191406 4.632812 12.453125 3.9375 12.027344 3.300781 C 12.027344 3.300781 12.179688 3.878906 12.339844 4.195312 C 12.746094 4.988281 13.261719 5.671875 13.664062 6.015625 "/>
<path style=" stroke:none;fill-rule:evenodd;fill:rgb(0%,14.901961%,28.627451%);fill-opacity:1;" d="M 14.144531 6.242188 C 14.144531 6.242188 15.136719 5.300781 15.882812 4.882812 C 16.074219 4.773438 16.28125 4.691406 16.542969 4.59375 C 16.394531 4.46875 16.300781 4.410156 16.132812 4.316406 C 15.839844 4.144531 15.378906 4.046875 15.378906 4.046875 C 15.542969 4.246094 15.722656 4.511719 15.722656 4.511719 C 15.246094 4.835938 15 5.078125 14.640625 5.511719 C 14.398438 5.800781 14.144531 6.242188 14.144531 6.242188 "/>
<path style=" stroke:none;fill-rule:evenodd;fill:rgb(0%,14.901961%,28.627451%);fill-opacity:1;" d="M 18.234375 8.96875 C 17.941406 8.980469 17.765625 8.652344 17.765625 8.652344 C 17.925781 8.695312 18.054688 8.71875 18.242188 8.695312 C 18.449219 8.675781 18.628906 8.609375 18.742188 8.515625 C 18.742188 8.515625 18.730469 8.949219 18.234375 8.96875 M 17.980469 8.109375 C 18.105469 8.109375 18.207031 8.210938 18.207031 8.335938 C 18.207031 8.460938 18.105469 8.5625 17.980469 8.5625 C 17.855469 8.5625 17.753906 8.460938 17.753906 8.335938 C 17.753906 8.210938 17.855469 8.109375 17.980469 8.109375 Z M 18.183594 6.496094 C 18.007812 6.347656 17.492188 6.308594 17.109375 6.335938 C 16.011719 6.414062 15.597656 7.363281 14.660156 7.605469 C 14.453125 7.65625 14.222656 7.675781 13.960938 7.660156 C 14.136719 7.804688 14.285156 7.871094 14.519531 7.894531 C 15.429688 7.992188 15.980469 7.082031 16.828125 6.945312 C 18.144531 6.734375 18.710938 7.53125 18.804688 7.675781 C 18.660156 7.664062 18.589844 7.585938 18.171875 7.671875 C 17.484375 7.8125 17.425781 8.199219 16.910156 8.46875 C 16.675781 8.589844 16.492188 8.652344 16.296875 8.757812 L 16.945312 8.785156 C 16.945312 8.785156 17.570312 9.367188 18.28125 9.347656 C 18.996094 9.328125 19.59375 8.757812 19.796875 8.125 C 19.871094 8.382812 19.847656 8.421875 19.894531 8.601562 L 20.371094 8.167969 C 20.371094 8.167969 20.292969 6.867188 19.40625 5.722656 C 19.160156 5.40625 18.878906 5.25 18.527344 5.152344 C 18.527344 5.152344 19.023438 5.679688 19.28125 6.285156 C 19.464844 6.714844 19.609375 7.261719 19.609375 7.261719 C 19.609375 7.261719 19.167969 6.429688 18.402344 5.957031 C 17.882812 5.636719 17.320312 5.488281 16.808594 5.640625 C 16.808594 5.640625 17.878906 5.824219 18.183594 6.496094 Z M 18.183594 6.496094 "/>
<path style=" stroke:none;fill-rule:evenodd;fill:rgb(0%,14.901961%,28.627451%);fill-opacity:1;" d="M 23.558594 7.328125 C 23.433594 6.816406 23.359375 6.605469 23.109375 6.324219 C 22.996094 6.195312 22.925781 6.15625 22.785156 6.078125 C 22.785156 6.078125 22.59375 6.359375 22.484375 6.535156 C 22.769531 6.65625 22.90625 6.71875 23.132812 6.898438 C 23.316406 7.042969 23.414062 7.140625 23.558594 7.328125 "/>
<path style=" stroke:none;fill-rule:evenodd;fill:rgb(0%,14.901961%,28.627451%);fill-opacity:1;" d="M 15.15625 9.484375 C 15.824219 9.800781 16.179688 10.042969 16.722656 10.542969 C 16.609375 10.21875 16.46875 10.035156 16.238281 9.761719 C 15.992188 9.472656 15.6875 9.246094 15.5 9.128906 C 15.507812 9.125 15.898438 8.804688 15.898438 8.804688 C 15.617188 8.816406 15.511719 8.8125 15.265625 8.808594 C 14.421875 8.792969 13.992188 8.550781 13.117188 8.574219 C 12.488281 8.589844 12.078125 8.667969 11.652344 8.933594 C 13.023438 8.753906 13.90625 8.890625 15.15625 9.484375 "/>
<path style=" stroke:none;fill-rule:evenodd;fill:rgb(0%,14.901961%,28.627451%);fill-opacity:1;" d="M 18.941406 9.589844 C 18.746094 9.683594 18.636719 9.738281 18.429688 9.796875 C 18.515625 9.820312 18.5625 9.839844 18.648438 9.847656 C 19.167969 9.886719 19.765625 9.691406 19.78125 9.679688 C 19.738281 9.578125 19.519531 9.148438 19.519531 9.148438 C 19.320312 9.351562 19.226562 9.449219 18.941406 9.589844 "/>
<path style=" stroke:none;fill-rule:evenodd;fill:rgb(0%,14.901961%,28.627451%);fill-opacity:1;" d="M 15.511719 10.207031 C 15.125 9.933594 14.582031 9.703125 13.929688 9.589844 C 13.09375 9.441406 12.296875 9.511719 11.875 9.90625 C 12.203125 9.835938 12.410156 9.816406 12.730469 9.820312 C 13.195312 9.824219 13.375 9.851562 13.769531 9.960938 C 13.425781 10.027344 13.230469 10.109375 12.941406 10.308594 C 12.636719 10.519531 12.488281 10.660156 12.292969 11.011719 C 12.773438 10.683594 13.105469 10.515625 13.6875 10.359375 C 14.289062 10.195312 14.851562 10.152344 15.511719 10.207031 "/>
<path style=" stroke:none;fill-rule:evenodd;fill:rgb(0%,14.901961%,28.627451%);fill-opacity:1;" d="M 22.835938 12.828125 C 22.730469 12.777344 22.671875 12.726562 22.570312 12.65625 C 22.484375 12.597656 22.5 12.613281 22.359375 12.503906 C 22.292969 12.589844 22.226562 12.679688 22.15625 12.75 C 22.058594 12.847656 21.8125 13.070312 21.78125 13.097656 C 21.816406 13.101562 22.179688 13.128906 22.414062 13.050781 C 22.59375 12.996094 22.683594 12.941406 22.835938 12.828125 "/>
<path style=" stroke:none;fill-rule:evenodd;fill:rgb(0%,14.901961%,28.627451%);fill-opacity:1;" d="M 13.300781 14.082031 C 12.410156 14.675781 11.953125 15.410156 11.773438 16.363281 C 12.234375 15.597656 12.679688 15.148438 13.304688 14.65625 C 14.144531 13.996094 14.75 13.738281 15.792969 13.523438 C 14.957031 13.367188 14.132812 13.53125 13.300781 14.082031 "/>
<path style=" stroke:none;fill-rule:nonzero;fill:rgb(0%,14.901961%,28.627451%);fill-opacity:1;" d="M 9.53125 21.0625 C 9.597656 21.0625 9.660156 21.078125 9.722656 21.113281 C 9.785156 21.144531 9.832031 21.195312 9.867188 21.257812 C 9.902344 21.320312 9.917969 21.382812 9.917969 21.453125 C 9.917969 21.519531 9.902344 21.585938 9.867188 21.644531 C 9.835938 21.707031 9.785156 21.757812 9.722656 21.789062 C 9.664062 21.824219 9.597656 21.84375 9.53125 21.84375 C 9.460938 21.84375 9.398438 21.824219 9.335938 21.789062 C 9.273438 21.757812 9.226562 21.707031 9.191406 21.644531 C 9.15625 21.585938 9.140625 21.519531 9.140625 21.453125 C 9.140625 21.382812 9.15625 21.320312 9.191406 21.257812 C 9.226562 21.195312 9.277344 21.144531 9.339844 21.113281 C 9.402344 21.078125 9.464844 21.0625 9.53125 21.0625 Z M 9.53125 21.128906 C 9.476562 21.128906 9.421875 21.140625 9.371094 21.167969 C 9.316406 21.195312 9.277344 21.238281 9.25 21.289062 C 9.21875 21.339844 9.203125 21.394531 9.203125 21.453125 C 9.203125 21.507812 9.21875 21.5625 9.246094 21.613281 C 9.277344 21.664062 9.316406 21.707031 9.367188 21.734375 C 9.421875 21.765625 9.472656 21.777344 9.53125 21.777344 C 9.585938 21.777344 9.640625 21.765625 9.691406 21.734375 C 9.742188 21.707031 9.785156 21.664062 9.8125 21.613281 C 9.839844 21.5625 9.855469 21.507812 9.855469 21.453125 C 9.855469 21.394531 9.839844 21.339844 9.8125 21.289062 C 9.78125 21.238281 9.742188 21.195312 9.691406 21.167969 C 9.636719 21.140625 9.585938 21.128906 9.53125 21.128906 Z M 9.359375 21.667969 L 9.359375 21.25 L 9.503906 21.25 C 9.550781 21.25 9.589844 21.253906 9.609375 21.257812 C 9.632812 21.269531 9.648438 21.28125 9.664062 21.300781 C 9.675781 21.320312 9.683594 21.339844 9.683594 21.363281 C 9.683594 21.394531 9.671875 21.417969 9.648438 21.441406 C 9.628906 21.464844 9.597656 21.476562 9.5625 21.480469 C 9.578125 21.488281 9.589844 21.492188 9.597656 21.503906 C 9.613281 21.519531 9.636719 21.546875 9.660156 21.585938 L 9.710938 21.667969 L 9.628906 21.667969 L 9.589844 21.601562 C 9.5625 21.550781 9.539062 21.519531 9.519531 21.503906 C 9.507812 21.496094 9.492188 21.488281 9.464844 21.488281 L 9.425781 21.488281 L 9.425781 21.667969 Z M 9.425781 21.433594 L 9.507812 21.433594 C 9.546875 21.433594 9.574219 21.425781 9.589844 21.414062 C 9.605469 21.402344 9.609375 21.386719 9.609375 21.367188 C 9.609375 21.355469 9.609375 21.34375 9.601562 21.335938 C 9.59375 21.324219 9.582031 21.316406 9.570312 21.3125 C 9.558594 21.308594 9.535156 21.304688 9.503906 21.304688 L 9.425781 21.304688 Z M 9.425781 21.433594 "/>
</g>
</svg>
