<?xml version="1.0" encoding="UTF-8"?>
<svg xmlns="http://www.w3.org/2000/svg" xmlns:xlink="http://www.w3.org/1999/xlink" width="35pt" height="25pt" viewBox="0 0 35 25" version="1.1">
<g id="surface1">
<path style=" stroke:none;fill-rule:nonzero;fill:rgb(0%,0%,0%);fill-opacity:1;" d="M 18.507812 0.0351562 C 18.113281 0.0664062 17.910156 0.144531 17.832031 0.285156 C 17.757812 0.421875 17.816406 0.675781 17.972656 0.90625 C 18.1875 1.234375 18.394531 1.667969 18.539062 2.089844 C 18.703125 2.570312 18.742188 3.210938 18.636719 3.628906 C 18.476562 4.246094 18.148438 4.71875 17.742188 4.898438 C 17.203125 5.136719 16.375 4.910156 16.066406 4.449219 C 15.886719 4.179688 15.820312 3.925781 15.824219 3.507812 C 15.824219 2.867188 15.992188 2.222656 16.410156 1.246094 C 16.542969 0.941406 16.652344 0.628906 16.652344 0.558594 C 16.652344 0.472656 16.609375 0.398438 16.523438 0.3125 L 16.402344 0.183594 L 15.964844 0.207031 C 15.417969 0.238281 14.742188 0.40625 14.121094 0.667969 C 12.945312 1.160156 11.96875 2.078125 11.402344 3.214844 C 10.941406 4.136719 10.476562 5.667969 10.257812 7 C 10.113281 7.871094 9.929688 8.386719 9.589844 8.886719 C 9.304688 9.3125 9.003906 9.550781 8.347656 9.871094 C 6.394531 10.835938 5.578125 11.632812 5.226562 12.90625 C 5.171875 13.101562 5.152344 13.324219 5.148438 13.769531 C 5.148438 14.113281 5.132812 14.375 5.113281 14.375 C 5.015625 14.375 4.367188 14.027344 4.128906 13.84375 C 3.980469 13.734375 3.863281 13.664062 3.863281 13.691406 C 3.863281 13.722656 3.90625 13.925781 3.960938 14.152344 C 4.234375 15.273438 4.683594 16.105469 5.375 16.757812 C 5.757812 17.121094 6.132812 17.367188 6.578125 17.539062 C 7.066406 17.726562 7.066406 17.730469 6.59375 17.707031 C 5.789062 17.667969 4.894531 17.347656 4.109375 16.8125 C 3.921875 16.683594 3.761719 16.585938 3.75 16.597656 C 3.738281 16.605469 3.8125 16.789062 3.914062 17.003906 C 4.425781 18.082031 5.136719 18.832031 6.089844 19.300781 C 7.933594 20.207031 10.097656 19.785156 11.53125 18.238281 L 11.855469 17.890625 L 12.066406 17.917969 L 12.273438 17.941406 L 12.191406 18.058594 C 12.042969 18.269531 11.875 18.6875 11.707031 19.253906 C 11.617188 19.570312 11.5 19.921875 11.445312 20.035156 C 11.335938 20.28125 11.128906 20.523438 10.96875 20.609375 C 10.902344 20.644531 10.847656 20.683594 10.847656 20.703125 C 10.847656 20.757812 11.28125 20.910156 11.585938 20.957031 L 11.859375 21.003906 L 11.863281 21.320312 C 11.867188 21.710938 11.960938 21.988281 12.214844 22.378906 C 12.597656 22.972656 12.710938 23.335938 12.644531 23.703125 C 12.625 23.796875 12.609375 23.886719 12.605469 23.902344 C 12.605469 23.921875 12.546875 24 12.480469 24.078125 C 12.332031 24.246094 12.308594 24.234375 12.917969 24.339844 C 14.996094 24.710938 16.429688 24.449219 18.121094 23.386719 C 18.902344 22.894531 19.585938 22.601562 20.453125 22.382812 C 21.308594 22.167969 21.730469 22.121094 22.769531 22.117188 C 23.859375 22.117188 23.773438 22.164062 23.550781 21.707031 C 23.488281 21.566406 23.355469 21.386719 23.265625 21.300781 C 23.175781 21.21875 23.105469 21.144531 23.117188 21.140625 C 23.121094 21.136719 23.210938 21.101562 23.3125 21.0625 C 23.679688 20.925781 24.101562 20.515625 24.394531 20 L 24.507812 19.804688 L 24.164062 19.835938 C 23.613281 19.875 23.351562 19.710938 23.410156 19.355469 C 23.457031 19.042969 23.527344 18.964844 23.773438 18.933594 C 24.277344 18.871094 24.773438 18.476562 25.007812 17.964844 L 25.128906 17.6875 L 28.179688 17.683594 L 31.226562 17.683594 L 31.269531 17.367188 C 31.554688 15.515625 31.34375 13.886719 30.625 12.382812 C 30.246094 11.585938 29.824219 11.007812 29.046875 10.207031 C 27.902344 9.035156 27.164062 8.136719 26.789062 7.453125 C 26.535156 6.992188 26.324219 6.441406 26.054688 5.523438 C 25.824219 4.742188 25.667969 4.378906 25.363281 3.882812 C 25.054688 3.390625 24.820312 3.09375 24.332031 2.589844 C 22.949219 1.160156 21.171875 0.214844 19.542969 0.0390625 C 19.113281 -0.0117188 19.0625 -0.0117188 18.507812 0.0351562 Z M 19.796875 0.378906 C 20.632812 0.515625 21.65625 0.945312 22.554688 1.535156 C 23.550781 2.191406 24.386719 2.996094 24.972656 3.875 C 25.367188 4.460938 25.53125 4.839844 25.804688 5.792969 C 26.257812 7.371094 26.671875 8.082031 27.988281 9.554688 C 28.242188 9.835938 28.65625 10.277344 28.910156 10.535156 C 29.160156 10.792969 29.476562 11.148438 29.609375 11.324219 C 30.285156 12.222656 30.753906 13.304688 30.976562 14.507812 C 31.097656 15.164062 31.09375 16.777344 30.964844 17.304688 L 30.945312 17.398438 L 25.355469 17.398438 L 25.355469 17.070312 L 30.578125 17.070312 L 30.640625 16.710938 C 30.882812 15.347656 30.671875 13.980469 30.003906 12.660156 C 29.632812 11.917969 29.347656 11.53125 28.394531 10.492188 C 26.96875 8.933594 26.527344 8.359375 26.128906 7.570312 C 25.839844 6.988281 25.703125 6.621094 25.433594 5.691406 C 25.097656 4.539062 24.695312 3.863281 23.851562 3.003906 C 22.496094 1.625 20.746094 0.738281 19.222656 0.660156 C 18.960938 0.644531 18.714844 0.644531 18.679688 0.660156 C 18.621094 0.683594 18.640625 0.746094 18.808594 1.082031 C 19.015625 1.496094 19.125 1.78125 19.25 2.238281 C 19.351562 2.617188 19.351562 3.417969 19.25 3.855469 C 19.003906 4.917969 18.417969 5.46875 17.386719 5.589844 C 16.945312 5.648438 16.589844 5.601562 16.261719 5.453125 C 15.332031 5.027344 14.941406 3.5 15.363281 1.917969 C 15.445312 1.609375 15.5625 1.320312 15.785156 0.878906 C 15.816406 0.808594 15.054688 0.972656 14.640625 1.121094 C 13.671875 1.472656 12.839844 2.105469 12.332031 2.882812 C 11.734375 3.796875 11.371094 4.871094 10.910156 7.097656 C 10.726562 7.984375 10.605469 8.371094 10.375 8.824219 C 10.144531 9.265625 9.832031 9.644531 9.476562 9.914062 C 9.320312 10.027344 8.890625 10.285156 8.519531 10.480469 C 6.84375 11.375 6.136719 12.046875 5.882812 12.984375 C 5.800781 13.289062 5.765625 13.890625 5.816406 14.203125 L 5.851562 14.460938 L 5.726562 14.433594 C 5.4375 14.371094 5.441406 14.390625 5.464844 13.730469 C 5.480469 13.222656 5.5 13.074219 5.589844 12.800781 C 5.75 12.316406 5.957031 11.992188 6.394531 11.550781 C 6.859375 11.078125 7.40625 10.710938 8.324219 10.25 C 8.679688 10.074219 9.046875 9.871094 9.144531 9.804688 C 9.40625 9.625 9.796875 9.1875 9.984375 8.871094 C 10.296875 8.328125 10.375 8.070312 10.660156 6.589844 C 10.976562 4.964844 11.480469 3.574219 12.082031 2.699219 C 12.515625 2.0625 13.230469 1.457031 13.988281 1.078125 C 14.703125 0.71875 16.042969 0.394531 16.273438 0.519531 C 16.355469 0.5625 16.351562 0.574219 16.140625 1.0625 C 15.863281 1.707031 15.644531 2.382812 15.5625 2.859375 C 15.472656 3.371094 15.503906 4.007812 15.625 4.332031 C 15.871094 4.964844 16.542969 5.339844 17.371094 5.296875 C 17.960938 5.261719 18.417969 4.945312 18.707031 4.351562 C 19.234375 3.277344 19.09375 2.195312 18.242188 0.699219 C 18.148438 0.535156 18.148438 0.523438 18.210938 0.453125 C 18.351562 0.320312 19.167969 0.277344 19.796875 0.378906 Z M 18.28125 8.613281 C 19.925781 8.890625 21.074219 9.398438 21.882812 10.207031 C 22.242188 10.566406 22.507812 10.953125 22.789062 11.519531 C 22.964844 11.871094 22.988281 11.953125 22.976562 12.132812 L 22.964844 12.339844 L 22.660156 11.984375 C 22.339844 11.605469 21.769531 11.089844 21.371094 10.8125 L 21.125 10.640625 L 21.492188 11.027344 C 21.898438 11.449219 22.382812 12.042969 22.65625 12.449219 C 22.824219 12.699219 23.214844 13.46875 23.179688 13.492188 C 23.175781 13.5 23.109375 13.515625 23.039062 13.53125 C 22.910156 13.554688 22.902344 13.546875 22.761719 13.28125 C 22.160156 12.140625 20.929688 11.136719 19.59375 10.699219 C 18.828125 10.449219 18.40625 10.390625 17.304688 10.390625 C 16.730469 10.390625 16.121094 10.414062 15.875 10.445312 C 14.886719 10.566406 13.886719 10.835938 13.398438 11.105469 C 13.28125 11.171875 13.175781 11.210938 13.160156 11.199219 C 13.105469 11.144531 13.144531 10.871094 13.230469 10.722656 C 13.453125 10.332031 14.285156 9.976562 15.40625 9.785156 C 15.582031 9.757812 15.707031 9.722656 15.6875 9.703125 C 15.578125 9.640625 14.015625 9.8125 13.863281 9.90625 C 13.84375 9.917969 13.832031 9.902344 13.832031 9.871094 C 13.832031 9.789062 14.207031 9.378906 14.4375 9.214844 C 14.867188 8.894531 15.488281 8.65625 16.136719 8.546875 C 16.601562 8.472656 17.640625 8.503906 18.28125 8.613281 Z M 17.894531 10.640625 C 17.996094 10.65625 18.082031 10.675781 18.082031 10.695312 C 18.082031 10.722656 15.457031 11.765625 15.4375 11.742188 C 15.429688 11.738281 15.453125 11.640625 15.488281 11.53125 C 15.574219 11.246094 15.558594 11.230469 15.40625 11.410156 C 15.324219 11.5 15.25 11.636719 15.234375 11.730469 L 15.199219 11.898438 L 13.953125 12.398438 C 13.066406 12.753906 12.703125 12.878906 12.695312 12.84375 C 12.675781 12.761719 12.800781 12.535156 12.949219 12.382812 C 13.066406 12.253906 13.074219 12.226562 13.089844 11.890625 C 13.097656 11.695312 13.125 11.503906 13.152344 11.46875 C 13.234375 11.355469 14.484375 10.980469 15.375 10.800781 C 16.164062 10.644531 17.355469 10.566406 17.894531 10.640625 Z M 19.378906 10.886719 C 20.15625 11.140625 20.882812 11.527344 21.5 12.027344 C 21.863281 12.320312 22.289062 12.761719 22.289062 12.851562 C 22.289062 12.882812 22.238281 12.964844 22.171875 13.03125 C 22.082031 13.117188 22.011719 13.148438 21.90625 13.148438 L 21.757812 13.148438 L 21.84375 13.363281 C 21.894531 13.480469 21.957031 13.679688 21.996094 13.804688 C 22.082031 14.113281 22.078125 14.84375 21.992188 15.207031 C 21.910156 15.53125 21.625 16.171875 21.558594 16.171875 C 21.535156 16.171875 21.277344 16.054688 20.992188 15.910156 C 20.40625 15.621094 20 15.464844 19.664062 15.402344 C 19.308594 15.335938 19.261719 15.382812 19.53125 15.535156 C 19.964844 15.777344 20.175781 16.054688 20.359375 16.621094 C 20.476562 16.964844 20.617188 17.574219 20.59375 17.597656 C 20.582031 17.609375 20.53125 17.578125 20.480469 17.535156 C 20.429688 17.488281 20.125 17.226562 19.804688 16.949219 L 19.21875 16.445312 L 18.886719 16.476562 C 18.703125 16.492188 18.433594 16.527344 18.285156 16.5625 L 18.019531 16.617188 L 17.734375 16.335938 L 17.449219 16.050781 L 17.449219 16.429688 C 17.449219 17.027344 17.3125 17.140625 16.851562 16.945312 C 16.597656 16.835938 16.476562 16.851562 16.015625 17.066406 C 15.789062 17.175781 15.601562 17.234375 15.5 17.234375 C 15.335938 17.234375 15.097656 17.140625 15.097656 17.070312 C 15.097656 17.050781 15.011719 16.988281 14.910156 16.925781 C 14.808594 16.863281 14.707031 16.769531 14.6875 16.714844 C 14.617188 16.527344 14.648438 16.203125 14.777344 15.847656 C 14.890625 15.519531 14.898438 15.460938 14.898438 14.90625 C 14.898438 14.332031 14.902344 14.304688 15.039062 13.964844 C 15.226562 13.488281 15.277344 13.183594 15.253906 12.6875 L 15.234375 12.269531 L 15.789062 12.011719 C 16.09375 11.875 16.351562 11.761719 16.363281 11.761719 C 16.378906 11.761719 16.386719 11.933594 16.390625 12.140625 C 16.390625 12.453125 16.414062 12.582031 16.523438 12.90625 C 16.609375 13.148438 16.667969 13.410156 16.679688 13.609375 L 16.703125 13.925781 L 16.800781 13.777344 L 16.90625 13.632812 L 17.035156 13.753906 C 17.160156 13.871094 17.160156 13.871094 17.367188 13.816406 C 17.910156 13.660156 18.894531 13.722656 19.558594 13.945312 C 19.710938 14 19.847656 14.023438 19.859375 14.007812 C 19.871094 13.988281 19.859375 13.957031 19.835938 13.945312 C 19.78125 13.914062 20.191406 13.65625 20.375 13.609375 L 20.496094 13.578125 L 20.378906 13.410156 C 20.308594 13.316406 20.1875 13.199219 20.09375 13.148438 C 19.859375 13.007812 19.757812 12.898438 19.757812 12.792969 C 19.757812 12.679688 19.757812 12.679688 19.992188 12.796875 C 20.257812 12.933594 20.636719 13.039062 20.738281 13.007812 C 20.832031 12.976562 20.917969 12.839844 20.886719 12.761719 C 20.859375 12.691406 19.992188 12.1875 19.640625 12.042969 C 19.101562 11.816406 18.75 11.855469 18.140625 12.1875 C 17.644531 12.46875 17.085938 12.570312 16.742188 12.449219 C 16.589844 12.398438 16.527344 12.234375 16.527344 11.894531 C 16.527344 11.683594 16.53125 11.679688 16.703125 11.589844 C 16.796875 11.539062 17.289062 11.320312 17.796875 11.101562 C 18.824219 10.652344 18.714844 10.667969 19.378906 10.886719 Z M 18.140625 12.914062 C 18.125 12.964844 18.105469 13.035156 18.097656 13.070312 C 18.085938 13.109375 18.105469 13.214844 18.136719 13.308594 L 18.195312 13.476562 L 17.960938 13.476562 C 17.710938 13.476562 17.515625 13.386719 17.402344 13.210938 C 17.335938 13.113281 17.335938 13.105469 17.410156 13.046875 C 17.535156 12.953125 17.886719 12.828125 18.03125 12.828125 C 18.15625 12.824219 18.167969 12.832031 18.140625 12.914062 Z M 19.867188 13.28125 L 20.210938 13.621094 L 20.101562 13.65625 C 20.035156 13.675781 19.949219 13.726562 19.902344 13.765625 C 19.8125 13.855469 19.773438 13.847656 19.324219 13.6875 L 18.992188 13.570312 L 19.109375 13.503906 C 19.210938 13.449219 19.335938 13.238281 19.40625 13.015625 C 19.417969 12.976562 19.449219 12.945312 19.472656 12.945312 C 19.5 12.945312 19.675781 13.097656 19.867188 13.28125 Z M 22.871094 14.429688 C 23.101562 14.554688 23.3125 14.917969 23.3125 15.191406 C 23.3125 15.257812 23.246094 15.402344 23.167969 15.519531 C 22.941406 15.859375 22.980469 16.164062 23.277344 16.320312 C 23.402344 16.386719 23.40625 16.390625 23.382812 16.625 C 23.351562 16.953125 23.242188 17.171875 23.09375 17.1875 C 22.964844 17.203125 22.695312 17.054688 22.523438 16.875 C 22.410156 16.757812 22.410156 16.75 22.449219 16.515625 C 22.550781 15.9375 22.542969 15.289062 22.429688 14.484375 L 22.398438 14.289062 L 22.558594 14.3125 C 22.644531 14.332031 22.789062 14.382812 22.871094 14.429688 Z M 4.714844 14.640625 C 5.015625 14.792969 5.824219 15.058594 6.269531 15.15625 C 6.589844 15.226562 6.890625 15.246094 7.96875 15.273438 C 9.1875 15.308594 9.304688 15.316406 9.703125 15.417969 C 9.9375 15.472656 10.222656 15.574219 10.339844 15.632812 C 10.570312 15.761719 11.027344 16.191406 11.003906 16.261719 C 10.996094 16.289062 10.878906 16.335938 10.742188 16.367188 C 10.382812 16.445312 9.878906 16.617188 9.613281 16.75 C 9.484375 16.816406 9.359375 16.867188 9.332031 16.867188 C 9.308594 16.867188 9.222656 16.8125 9.144531 16.746094 C 8.960938 16.582031 8.578125 16.390625 8.285156 16.316406 C 8.019531 16.246094 7.273438 16.234375 7.234375 16.296875 C 7.214844 16.320312 7.269531 16.335938 7.363281 16.335938 C 7.589844 16.335938 8.164062 16.484375 8.390625 16.597656 C 8.601562 16.707031 8.820312 16.921875 8.863281 17.058594 C 8.886719 17.132812 8.867188 17.152344 8.695312 17.210938 C 7.789062 17.5 6.773438 17.351562 6.070312 16.820312 C 5.730469 16.558594 5.3125 16.117188 5.066406 15.746094 C 4.785156 15.324219 4.414062 14.539062 4.496094 14.539062 C 4.507812 14.539062 4.605469 14.582031 4.714844 14.640625 Z M 12.984375 14.796875 C 13.34375 15.070312 13.777344 15.097656 14.257812 14.875 C 14.410156 14.800781 14.542969 14.742188 14.550781 14.742188 C 14.558594 14.742188 14.574219 14.804688 14.589844 14.882812 C 14.621094 15.058594 14.523438 15.710938 14.390625 16.152344 L 14.296875 16.476562 L 13.914062 16.695312 C 13.699219 16.816406 13.429688 16.988281 13.3125 17.078125 L 13.097656 17.238281 L 13.046875 17.125 C 12.925781 16.824219 13.019531 16.429688 13.238281 16.328125 C 13.328125 16.289062 13.324219 16.28125 13.015625 15.972656 C 12.59375 15.554688 12.554688 15.433594 12.707031 15.050781 C 12.765625 14.898438 12.804688 14.75 12.792969 14.71875 C 12.761719 14.636719 12.789062 14.644531 12.984375 14.796875 Z M 23.769531 15.625 C 24.125 15.738281 24.414062 15.992188 24.605469 16.355469 C 24.695312 16.519531 24.71875 16.632812 24.734375 16.929688 C 24.769531 17.726562 24.4375 18.292969 23.84375 18.46875 C 23.554688 18.550781 23.082031 18.535156 22.855469 18.433594 C 22.300781 18.183594 21.964844 17.53125 22.234375 17.230469 C 22.332031 17.121094 22.351562 17.132812 22.429688 17.335938 C 22.515625 17.558594 22.8125 17.898438 23 17.988281 C 23.171875 18.070312 23.511719 18.074219 23.691406 17.996094 C 23.96875 17.878906 24.125 17.589844 24.15625 17.136719 C 24.171875 16.886719 24.160156 16.820312 24.078125 16.664062 C 23.972656 16.460938 23.789062 16.316406 23.539062 16.25 C 23.304688 16.191406 23.257812 16.160156 23.199219 16.042969 C 23.144531 15.925781 23.183594 15.714844 23.296875 15.597656 C 23.367188 15.515625 23.421875 15.519531 23.769531 15.625 Z M 12.5 15.691406 C 12.5625 15.835938 12.707031 16.546875 12.753906 16.886719 C 12.78125 17.117188 12.71875 17.402344 12.625 17.480469 C 12.53125 17.558594 12.394531 17.46875 12.1875 17.199219 C 11.941406 16.863281 11.941406 16.863281 11.96875 17.109375 L 11.996094 17.328125 L 11.902344 17.269531 C 11.773438 17.183594 11.597656 16.851562 11.539062 16.585938 C 11.503906 16.402344 11.507812 16.339844 11.5625 16.191406 C 11.648438 15.960938 11.78125 15.945312 11.90625 16.140625 L 11.992188 16.277344 L 11.992188 15.996094 C 11.992188 15.671875 12.070312 15.558594 12.304688 15.558594 C 12.425781 15.558594 12.453125 15.578125 12.5 15.691406 Z M 11.359375 16.96875 C 11.433594 17.039062 11.460938 17.113281 11.460938 17.222656 L 11.457031 17.378906 L 10.84375 17.578125 C 10.503906 17.691406 9.972656 17.90625 9.660156 18.0625 C 9.203125 18.285156 9.046875 18.382812 8.84375 18.585938 C 8.703125 18.71875 8.597656 18.839844 8.609375 18.855469 C 8.621094 18.863281 8.800781 18.773438 9.011719 18.648438 C 9.703125 18.238281 10.480469 17.972656 10.972656 17.972656 L 11.195312 17.976562 L 11.011719 18.140625 C 10.757812 18.367188 10.117188 18.792969 9.726562 18.992188 C 8.886719 19.417969 8.105469 19.535156 7.375 19.347656 C 6.609375 19.148438 5.992188 18.855469 5.480469 18.433594 C 5.230469 18.234375 4.78125 17.734375 4.8125 17.699219 C 4.824219 17.6875 4.933594 17.730469 5.054688 17.792969 C 5.613281 18.078125 6.214844 18.199219 6.855469 18.164062 C 7.410156 18.128906 7.609375 18.074219 8.621094 17.644531 C 10.148438 16.996094 10.519531 16.875 10.964844 16.871094 C 11.230469 16.867188 11.273438 16.878906 11.359375 16.96875 Z M 15.410156 18.273438 C 15.726562 18.496094 15.710938 18.496094 16.242188 18.265625 C 16.539062 18.132812 16.625 18.113281 16.867188 18.121094 C 17.023438 18.125 17.238281 18.160156 17.351562 18.195312 C 17.632812 18.289062 18.003906 18.585938 18.265625 18.917969 C 18.445312 19.148438 18.488281 19.234375 18.488281 19.355469 C 18.488281 19.535156 18.351562 19.773438 18.050781 20.097656 L 17.847656 20.316406 L 17.566406 20.25 C 17.222656 20.167969 16.324219 19.851562 16.324219 19.8125 C 16.324219 19.800781 16.445312 19.695312 16.59375 19.585938 C 16.828125 19.410156 17.023438 19.210938 17.113281 19.050781 C 17.128906 19.015625 17.046875 19.019531 16.84375 19.058594 C 16.3125 19.15625 15.453125 19.171875 15.023438 19.097656 C 14.8125 19.0625 14.605469 19.011719 14.5625 18.988281 C 14.390625 18.898438 14.496094 19.054688 14.84375 19.398438 L 15.199219 19.757812 L 14.898438 19.875 C 14.730469 19.941406 14.46875 20.070312 14.308594 20.167969 C 14.15625 20.261719 14.019531 20.335938 14.015625 20.332031 C 14.007812 20.324219 13.949219 20.210938 13.878906 20.074219 C 13.816406 19.941406 13.671875 19.703125 13.570312 19.546875 C 13.46875 19.394531 13.382812 19.238281 13.382812 19.199219 C 13.382812 19.089844 13.59375 18.785156 13.800781 18.597656 C 14.109375 18.3125 14.71875 18.042969 14.980469 18.070312 C 15.074219 18.078125 15.238281 18.160156 15.410156 18.273438 Z M 15.410156 18.273438 "/>
<path style=" stroke:none;fill-rule:nonzero;fill:rgb(0%,0%,0%);fill-opacity:1;" d="M 22.289062 23.957031 C 22.289062 24.101562 22.289062 24.101562 22.472656 24.101562 L 22.65625 24.101562 L 22.65625 25 L 22.984375 25 L 22.984375 24.101562 L 23.148438 24.101562 C 23.308594 24.101562 23.3125 24.097656 23.3125 23.957031 L 23.3125 23.8125 L 22.289062 23.8125 Z M 22.289062 23.957031 "/>
<path style=" stroke:none;fill-rule:nonzero;fill:rgb(0%,0%,0%);fill-opacity:1;" d="M 23.433594 24.40625 L 23.433594 25 L 23.71875 25 L 23.722656 24.679688 C 23.726562 24.386719 23.730469 24.378906 23.769531 24.53125 C 23.894531 25.039062 23.871094 25 24.039062 25 L 24.191406 25 L 24.28125 24.621094 L 24.367188 24.242188 L 24.375 25 L 24.617188 25 L 24.617188 23.808594 L 24.425781 23.824219 L 24.234375 23.835938 L 24.136719 24.265625 L 24.035156 24.691406 L 23.933594 24.25 L 23.832031 23.8125 L 23.433594 23.8125 Z M 23.433594 24.40625 "/>
</g>
</svg>
