<?xml version="1.0" encoding="UTF-8"?>
<svg xmlns="http://www.w3.org/2000/svg" xmlns:xlink="http://www.w3.org/1999/xlink" width="36pt" height="25pt" viewBox="0 0 36 25" version="1.1">
<g id="surface1">
<path style=" stroke:none;fill-rule:evenodd;fill:rgb(100%,100%,100%);fill-opacity:1;" d="M 0.328125 0.3125 L 0.328125 5.097656 L 1.949219 5.097656 L 1.949219 14.085938 L 7.746094 16.46875 L 9.964844 16.46875 L 9.964844 19.871094 L 8.441406 19.871094 L 8.441406 24.738281 L 19.632812 24.738281 L 19.632812 19.933594 L 24.632812 19.933594 L 24.632812 24.640625 L 35.792969 24.640625 L 35.792969 19.871094 L 34.101562 19.871094 L 34.101562 13.464844 L 35.691406 13.464844 L 35.691406 8.691406 L 25.691406 8.691406 L 25.691406 5.0625 L 27.28125 5.0625 L 27.28125 0.160156 L 16.222656 0.160156 L 16.222656 5.0625 L 17.644531 5.0625 L 17.644531 8.59375 L 10.195312 8.59375 L 10.195312 4.964844 L 11.585938 4.964844 L 11.585938 0.226562 Z M 0.328125 0.3125 "/>
<path style=" stroke:none;fill-rule:nonzero;fill:rgb(80%,0%,0%);fill-opacity:1;" d="M 9.464844 20.984375 L 11.09375 20.882812 L 11 15.429688 L 7.746094 15.375 L 3.070312 13.449219 L 3.070312 4.066406 L 1.535156 4.066406 L 1.535156 1.375 L 10.574219 1.375 L 10.574219 4.066406 L 9.039062 4.066406 L 9.039062 12.148438 L 9.378906 12.148438 L 9.378906 9.789062 L 18.417969 9.789062 L 18.417969 12.148438 L 18.761719 12.148438 L 18.761719 4.066406 L 17.226562 4.066406 L 17.3125 1.375 L 26.179688 1.433594 L 26.277344 4.066406 L 24.730469 4.066406 L 24.730469 13.433594 L 20.957031 15.175781 L 27.117188 15.175781 L 27.117188 12.484375 L 25.582031 12.484375 L 25.582031 9.789062 L 34.621094 9.789062 L 34.621094 12.484375 L 33.085938 12.484375 L 33.085938 20.898438 L 34.621094 20.898438 L 34.621094 23.59375 L 25.566406 23.59375 L 25.667969 20.984375 L 27.117188 20.878906 L 27.117188 18.878906 L 16.882812 18.878906 L 16.882812 20.882812 L 18.503906 20.984375 L 18.605469 23.59375 L 9.367188 23.59375 Z M 9.464844 20.984375 "/>
<path style=" stroke:none;fill-rule:nonzero;fill:rgb(6.27451%,4.313725%,18.431373%);fill-opacity:1;" d="M 8.1875 19.554688 L 9.722656 19.554688 L 9.722656 16.691406 L 7.589844 16.699219 L 1.707031 14.285156 L 1.707031 5.414062 L 0 5.414062 L 0 0.0273438 L 11.9375 0.0273438 L 11.9375 5.414062 L 10.476562 5.414062 L 10.488281 8.359375 L 17.394531 8.390625 L 17.394531 5.460938 L 15.945312 5.445312 L 15.945312 0 L 27.628906 0.0273438 L 27.628906 5.414062 L 26.09375 5.414062 L 26.09375 8.441406 L 35.984375 8.441406 L 35.984375 13.828125 L 34.449219 13.828125 L 34.449219 19.535156 L 36 19.550781 L 35.976562 24.941406 L 24.386719 24.941406 L 24.386719 20.226562 L 19.847656 20.226562 L 19.839844 24.964844 L 8.15625 24.949219 Z M 19.28125 20.226562 L 17.542969 20.226562 L 17.539062 19.636719 L 26.433594 19.605469 L 26.433594 20.226562 L 24.898438 20.226562 L 24.898438 24.441406 L 35.390625 24.421875 L 35.398438 20.226562 L 33.761719 20.226562 L 33.855469 13.125 L 35.304688 13.136719 L 35.304688 8.949219 L 25.410156 8.949219 L 25.410156 4.738281 L 26.945312 4.738281 L 26.945312 0.527344 L 16.457031 0.546875 L 16.46875 4.824219 L 17.992188 4.824219 L 17.992188 8.960938 L 9.804688 8.960938 L 9.804688 4.707031 L 11.257812 4.71875 L 11.257812 0.53125 L 0.683594 0.53125 L 0.683594 4.738281 L 2.210938 4.738281 L 2.300781 13.902344 L 7.734375 16.1875 L 10.234375 16.1875 L 10.234375 20.226562 L 8.699219 20.226562 L 8.699219 24.441406 L 19.304688 24.410156 Z M 9.40625 20.867188 L 11.035156 20.882812 L 11 15.429688 L 7.746094 15.375 L 3.070312 13.449219 L 3.070312 4.066406 L 1.535156 4.066406 L 1.535156 1.375 L 10.574219 1.375 L 10.574219 4.066406 L 9.039062 4.066406 L 9.039062 12.148438 L 9.378906 12.148438 L 9.378906 9.789062 L 18.417969 9.789062 L 18.417969 12.148438 L 18.761719 12.148438 L 18.761719 4.066406 L 17.226562 4.066406 L 17.226562 1.34375 L 26.296875 1.316406 L 26.277344 4.066406 L 24.730469 4.066406 L 24.730469 13.433594 L 20.957031 15.175781 L 27.117188 15.175781 L 27.117188 12.484375 L 25.582031 12.484375 L 25.582031 9.789062 L 34.621094 9.789062 L 34.621094 12.484375 L 33.085938 12.484375 L 33.085938 20.898438 L 34.621094 20.898438 L 34.621094 23.59375 L 25.566406 23.59375 L 25.578125 20.898438 L 27.117188 20.878906 L 27.117188 18.878906 L 16.882812 18.878906 L 16.882812 20.882812 L 18.59375 20.898438 L 18.605469 23.59375 L 9.367188 23.59375 Z M 17.964844 21.402344 L 16.410156 21.386719 L 16.367188 18.375 L 27.800781 18.375 L 27.800781 21.386719 L 26.261719 21.402344 L 26.246094 23.089844 L 34.109375 23.089844 L 34.109375 21.40625 L 32.574219 21.40625 L 32.574219 11.976562 L 34.109375 11.976562 L 34.109375 10.375 L 26.234375 10.378906 L 26.246094 11.976562 L 27.800781 11.976562 L 27.800781 15.679688 L 16.457031 15.765625 L 16.394531 11.976562 L 17.90625 11.976562 L 17.90625 10.292969 L 10.0625 10.292969 L 10.0625 11.976562 L 11.425781 11.976562 L 11.511719 21.488281 L 10.03125 21.507812 L 10.042969 23.09375 L 17.992188 23.089844 Z M 10.914062 12.820312 L 8.527344 12.820312 L 8.527344 3.582031 L 9.976562 3.59375 L 9.976562 1.960938 L 2.046875 1.957031 L 2.046875 3.394531 L 3.578125 3.394531 L 3.667969 13.050781 L 7.761719 14.816406 L 10.914062 14.839844 Z M 24.132812 13.042969 L 24.222656 3.394531 L 25.753906 3.394531 L 25.753906 1.878906 L 17.789062 1.878906 L 17.792969 3.492188 L 19.355469 3.476562 L 19.355469 12.734375 L 16.882812 12.746094 L 16.914062 15.164062 L 19.390625 15.144531 Z M 25.1875 14 L 25.410156 14 L 25.410156 13.15625 L 26.433594 13.15625 L 26.433594 14.503906 L 25.367188 14.496094 L 24.1875 14.492188 Z M 25.1875 14 "/>
</g>
</svg>
