<?xml version="1.0" encoding="UTF-8"?>
<svg xmlns="http://www.w3.org/2000/svg" xmlns:xlink="http://www.w3.org/1999/xlink" width="35pt" height="25pt" viewBox="0 0 35 25" version="1.1">
<g id="surface1">
<path style=" stroke:none;fill-rule:nonzero;fill:rgb(100%,100%,100%);fill-opacity:1;" d="M 3.992188 5.636719 L 3.992188 11.507812 L 5.21875 11.507812 L 5.21875 19.171875 L 3.992188 19.171875 L 3.992188 25 L 12.359375 25 L 12.359375 22.066406 L 13.742188 24.234375 L 14.945312 22.195312 L 14.945312 25 L 23.488281 25 L 23.488281 19.347656 L 22.261719 19.347656 L 22.261719 16.632812 C 22.261719 16.632812 22.875 16.457031 23.140625 15.976562 C 23.140625 15.976562 23.839844 15.40625 23.753906 14.921875 C 23.753906 14.921875 24.101562 14.527344 23.972656 14.046875 C 23.972656 14.046875 24.320312 13.960938 24.058594 13.257812 C 24.058594 13.257812 24.148438 12.46875 23.445312 12.207031 C 23.445312 12.207031 24.234375 12.734375 25.679688 12.425781 C 25.679688 12.425781 26.425781 13.519531 27.34375 13.871094 C 27.34375 13.871094 28.265625 14.703125 28.484375 14.75 C 28.484375 14.75 28.222656 15.886719 29.535156 16.238281 C 29.535156 16.238281 30.0625 16.5 30.675781 15.84375 C 30.675781 15.84375 31.988281 16.195312 31.8125 14.527344 C 31.8125 14.527344 32.164062 13.960938 31.769531 13.433594 C 31.769531 13.433594 32.03125 12.558594 31.242188 11.945312 C 31.242188 11.945312 30.5 11.113281 29.535156 10.542969 C 29.535156 10.542969 29.359375 9.621094 28.964844 9.097656 C 28.964844 9.097656 28.222656 8.351562 28.003906 8.175781 C 28.003906 8.175781 28.308594 7.652344 27.828125 6.773438 C 27.828125 6.773438 28.175781 5.941406 27.5625 5.109375 C 27.5625 5.109375 27.957031 4.277344 27.5625 3.578125 C 27.5625 3.578125 27.039062 3.3125 25.988281 3.226562 C 25.988281 3.226562 24.714844 2.613281 23.882812 2.699219 C 23.882812 2.699219 22.351562 1.386719 19.457031 1.472656 C 19.457031 1.472656 17.617188 1.035156 15.648438 2.21875 C 15.648438 2.21875 13.414062 3.136719 10.171875 5.984375 L 9.734375 5.546875 L 9.03125 5.503906 C 9.03125 5.503906 8.417969 4.363281 6.839844 3.355469 C 6.839844 3.355469 5.746094 2.789062 6.578125 2.570312 C 6.578125 2.570312 7.542969 2.480469 7.9375 2.832031 C 7.9375 2.832031 8.726562 3.578125 9.46875 3.226562 C 9.46875 3.226562 10.476562 2.964844 10.171875 1.605469 C 10.171875 1.605469 9.601562 0.378906 7.71875 0.160156 C 7.71875 0.160156 6.226562 -0.453125 4.5625 0.726562 C 4.5625 0.726562 3.46875 1.121094 3.292969 2.613281 C 3.292969 2.613281 2.941406 3.664062 4.257812 5.023438 L 4.78125 5.636719 L 3.992188 5.636719 "/>
<path style=" stroke:none;fill-rule:nonzero;fill:rgb(97.254902%,60.392157%,18.039216%);fill-opacity:1;" d="M 31.238281 14.820312 L 31.238281 14.804688 C 31.242188 14.765625 31.207031 14.710938 31.175781 14.660156 C 31.125 14.585938 31.070312 14.496094 31.09375 14.398438 C 31.109375 14.34375 31.148438 14.292969 31.207031 14.25 C 31.273438 14.042969 31.230469 13.804688 31.09375 13.644531 L 31.058594 13.605469 L 31.078125 13.554688 C 31.160156 13.347656 31.160156 13.066406 31.152344 12.816406 C 31.148438 12.648438 31.023438 12.5625 30.878906 12.464844 C 30.742188 12.371094 30.589844 12.265625 30.554688 12.074219 C 30.375 11.800781 30.109375 11.675781 29.832031 11.546875 C 29.515625 11.398438 29.1875 11.246094 28.980469 10.855469 L 28.808594 10.488281 C 28.464844 9.726562 28.105469 8.9375 27.359375 8.382812 L 27.308594 8.34375 L 27.328125 8.285156 C 27.417969 8.027344 27.574219 7.378906 27.121094 6.949219 L 27.085938 6.914062 L 27.097656 6.867188 C 27.164062 6.53125 27.21875 6.042969 27.089844 5.613281 C 26.703125 5.320312 26.847656 4.992188 26.980469 4.703125 C 27.070312 4.503906 27.152344 4.3125 27.097656 4.117188 C 27.070312 4.042969 26.992188 3.886719 26.875 3.863281 C 26.128906 3.949219 25.492188 3.722656 24.878906 3.5 C 24.402344 3.324219 23.910156 3.148438 23.375 3.125 L 23.355469 3.125 L 23.339844 3.117188 C 23.339844 3.117188 22.304688 2.589844 22.3125 2.59375 C 20.015625 1.617188 17.023438 1.882812 15.035156 3.234375 L 15.03125 3.234375 L 15.023438 3.238281 C 13.78125 3.867188 12.621094 4.785156 11.496094 5.675781 C 10.992188 6.074219 10.46875 6.488281 9.945312 6.867188 L 9.871094 6.921875 L 9.820312 6.84375 L 9.453125 6.253906 L 8.753906 6.253906 L 8.726562 6.21875 C 8.726562 6.21875 8.273438 5.585938 8.273438 5.585938 C 7.828125 4.976562 7.246094 4.570312 6.6875 4.179688 C 6.300781 3.90625 5.898438 3.625 5.546875 3.285156 L 5.542969 3.277344 L 5.539062 3.273438 C 5.394531 3.078125 5.464844 2.796875 5.546875 2.601562 L 5.550781 2.59375 L 5.550781 2.589844 C 5.828125 2.128906 6.34375 1.902344 7.082031 1.914062 L 7.074219 1.917969 C 7.492188 1.875 7.804688 2.074219 8.109375 2.265625 C 8.34375 2.414062 8.5625 2.554688 8.832031 2.589844 C 8.984375 2.589844 9.34375 2.550781 9.476562 2.230469 C 9.554688 1.925781 9.402344 1.6875 9.261719 1.539062 C 8.777344 1.113281 8.152344 0.847656 7.296875 0.707031 C 6.074219 0.519531 5.003906 0.902344 4.285156 1.789062 C 3.847656 2.3125 3.839844 3.207031 4.089844 3.777344 C 4.269531 4.265625 4.664062 4.605469 5.078125 4.964844 C 5.453125 5.289062 5.839844 5.621094 6.0625 6.074219 L 6.089844 6.117188 L 6.171875 6.253906 L 4.585938 6.253906 L 4.585938 10.894531 L 5.777344 10.894531 L 5.777344 19.90625 L 4.585938 19.90625 L 4.585938 24.398438 L 11.65625 24.398438 L 11.65625 19.90625 L 10.421875 19.90625 L 10.421875 17.25 L 10.621094 17.449219 L 10.628906 17.460938 L 13.679688 22.855469 L 16.800781 17.425781 L 16.964844 17.140625 L 16.964844 19.90625 L 15.695312 19.90625 L 15.695312 24.398438 L 22.804688 24.398438 L 22.804688 19.90625 L 21.574219 19.90625 L 21.574219 16.210938 L 21.597656 16.183594 L 21.648438 16.125 L 21.6875 16.078125 L 21.746094 16.097656 C 21.820312 16.125 21.90625 16.109375 21.996094 16.089844 C 22.046875 16.082031 22.097656 16.070312 22.140625 16.066406 C 22.324219 16.039062 22.394531 15.90625 22.476562 15.757812 C 22.558594 15.601562 22.65625 15.433594 22.875 15.371094 C 22.929688 15.285156 22.984375 15.191406 23.011719 15.105469 L 22.996094 15.109375 C 22.976562 15.113281 22.953125 15.121094 22.925781 15.128906 C 22.8125 15.167969 22.644531 15.222656 22.53125 15.078125 L 22.445312 14.96875 L 22.578125 14.9375 C 22.722656 14.90625 22.847656 14.847656 22.964844 14.765625 C 23.113281 14.613281 23.230469 14.480469 23.257812 14.324219 C 23.128906 14.34375 22.992188 14.355469 22.875 14.296875 L 22.730469 14.222656 L 22.871094 14.140625 C 22.890625 14.132812 22.90625 14.121094 22.925781 14.105469 C 22.96875 14.078125 23.015625 14.042969 23.078125 14.027344 L 23.058594 14.035156 C 23.238281 13.945312 23.324219 13.75 23.355469 13.566406 C 23.339844 13.574219 23.324219 13.582031 23.304688 13.589844 C 23.257812 13.617188 23.207031 13.640625 23.148438 13.65625 C 23.015625 13.699219 22.839844 13.679688 22.777344 13.546875 L 22.730469 13.457031 L 22.828125 13.425781 C 22.988281 13.375 23.265625 13.257812 23.40625 13.027344 C 23.136719 12.835938 22.789062 12.804688 22.425781 12.773438 L 22.386719 12.769531 L 22.363281 12.738281 C 22.21875 12.558594 21.894531 12.578125 21.710938 12.605469 L 21.609375 12.621094 L 21.609375 12.515625 C 21.613281 12.320312 21.609375 12.144531 21.609375 11.976562 C 21.601562 11.621094 21.597656 11.308594 21.644531 10.914062 L 21.65625 10.839844 L 21.726562 10.835938 L 22.175781 10.808594 L 22.164062 10.8125 C 22.554688 10.742188 22.820312 10.980469 23.058594 11.191406 C 23.183594 11.304688 23.300781 11.410156 23.441406 11.480469 C 24.203125 11.945312 25.148438 12.035156 25.90625 11.71875 L 25.972656 11.691406 L 26.011719 11.753906 C 26.492188 12.519531 27.121094 13.121094 27.746094 13.402344 L 27.761719 13.410156 L 27.773438 13.425781 C 27.945312 13.617188 28.148438 13.769531 28.347656 13.917969 C 28.582031 14.089844 28.820312 14.269531 28.996094 14.507812 L 29.023438 14.542969 L 29.011719 14.585938 C 28.894531 14.96875 29.128906 15.277344 29.351562 15.476562 C 29.527344 15.558594 29.839844 15.667969 30.105469 15.558594 C 30.230469 15.265625 30.464844 15.328125 30.621094 15.371094 C 30.773438 15.414062 30.867188 15.433594 30.953125 15.355469 L 30.960938 15.34375 L 30.976562 15.339844 C 31.15625 15.257812 31.257812 15.0625 31.238281 14.820312 "/>
<path style=" stroke:none;fill-rule:nonzero;fill:rgb(100%,100%,100%);fill-opacity:1;" d="M 23.332031 13.074219 C 23.265625 13.253906 23.019531 13.347656 22.792969 13.425781 L 22.808594 13.417969 C 22.734375 13.460938 22.667969 13.46875 22.605469 13.445312 C 22.496094 13.40625 22.453125 13.28125 22.417969 13.183594 C 22.402344 13.148438 22.390625 13.109375 22.375 13.089844 L 22.355469 13.054688 L 22.367188 13.015625 C 22.367188 13.019531 22.367188 13.019531 22.367188 13.019531 C 22.367188 13.015625 22.367188 13 22.367188 12.988281 C 22.359375 12.945312 22.347656 12.832031 22.46875 12.792969 L 22.488281 12.789062 C 22.488281 12.789062 22.511719 12.789062 22.511719 12.789062 L 22.664062 12.816406 C 22.871094 12.847656 23.082031 12.882812 23.28125 12.960938 L 23.359375 12.996094 L 23.332031 13.074219 "/>
<path style=" stroke:none;fill-rule:nonzero;fill:rgb(100%,100%,100%);fill-opacity:1;" d="M 23.394531 13.671875 C 23.328125 14.070312 22.875 14.144531 22.660156 14.183594 L 22.675781 14.175781 C 22.609375 14.203125 22.476562 14.222656 22.359375 14.015625 L 22.351562 14.003906 L 22.347656 13.992188 C 22.320312 13.855469 22.363281 13.726562 22.476562 13.613281 L 22.515625 13.574219 L 22.566406 13.589844 C 22.789062 13.664062 23.058594 13.65625 23.28125 13.574219 L 23.421875 13.523438 L 23.394531 13.671875 "/>
<path style=" stroke:none;fill-rule:nonzero;fill:rgb(100%,100%,100%);fill-opacity:1;" d="M 23.167969 14.453125 C 23.125 14.597656 23.003906 14.726562 22.792969 14.847656 C 22.691406 14.910156 22.570312 14.90625 22.460938 14.898438 C 22.40625 14.898438 22.355469 14.894531 22.3125 14.902344 L 22.261719 14.90625 L 22.234375 14.867188 C 22.144531 14.753906 22.175781 14.628906 22.195312 14.527344 C 22.203125 14.492188 22.210938 14.453125 22.214844 14.421875 L 22.21875 14.390625 L 22.238281 14.367188 C 22.375 14.230469 22.53125 14.296875 22.644531 14.339844 C 22.726562 14.375 22.800781 14.402344 22.867188 14.386719 L 22.882812 14.382812 L 22.898438 14.386719 C 22.949219 14.390625 22.980469 14.375 23.035156 14.355469 L 23.046875 14.347656 L 23.214844 14.273438 C 23.214844 14.273438 23.167969 14.453125 23.167969 14.453125 "/>
<path style=" stroke:none;fill-rule:nonzero;fill:rgb(100%,100%,100%);fill-opacity:1;" d="M 22.957031 15.21875 C 22.933594 15.394531 22.742188 15.539062 22.5625 15.589844 L 22.550781 15.59375 L 22.535156 15.59375 C 22.5 15.59375 22.457031 15.59375 22.417969 15.59375 C 22.246094 15.59375 22.035156 15.59375 21.886719 15.46875 L 21.851562 15.4375 L 21.855469 15.394531 C 21.867188 15.242188 21.949219 15.113281 22.078125 15.050781 L 22.117188 15.03125 L 22.15625 15.050781 C 22.378906 15.160156 22.613281 15.257812 22.828125 15.132812 L 22.980469 15.042969 L 22.957031 15.21875 "/>
<path style=" stroke:none;fill-rule:nonzero;fill:rgb(100%,100%,100%);fill-opacity:1;" d="M 22.464844 15.78125 C 22.277344 16.089844 21.855469 16.097656 21.617188 16.074219 L 21.609375 16.074219 L 21.601562 16.070312 C 21.554688 16.058594 21.519531 16.027344 21.496094 15.984375 C 21.453125 15.898438 21.492188 15.792969 21.519531 15.714844 C 21.519531 15.703125 21.523438 15.695312 21.527344 15.6875 L 21.535156 15.671875 C 21.59375 15.570312 21.660156 15.507812 21.738281 15.484375 C 21.859375 15.453125 21.960938 15.515625 22.066406 15.574219 C 22.164062 15.632812 22.261719 15.691406 22.359375 15.652344 L 22.597656 15.558594 L 22.464844 15.78125 "/>
<path style=" stroke:none;fill-rule:nonzero;fill:rgb(100%,100%,100%);fill-opacity:1;" d="M 26.847656 5.707031 C 26.738281 5.554688 25.648438 4.839844 25.484375 5.066406 C 25.414062 5.160156 25.988281 5.957031 26.789062 6.117188 C 27.0625 6.171875 26.863281 6.917969 26.601562 7.183594 C 26.542969 7.242188 26.847656 7.34375 26.832031 7.8125 C 26.832031 7.8125 25.765625 8.109375 25.429688 7.890625 C 25.289062 7.804688 25.011719 7.910156 24.871094 7.824219 C 24.65625 7.695312 23.917969 7.539062 23.851562 7.542969 C 23.695312 7.546875 23.660156 8.257812 23.523438 8.257812 C 20.652344 8.214844 21.898438 6.796875 22.304688 6.324219 C 22.519531 6.082031 22.363281 6.621094 23.269531 6.425781 C 23.871094 6.292969 24.023438 6.5625 24.644531 6.773438 C 24.492188 6.230469 24.972656 5.679688 24.824219 5.699219 C 24.148438 5.796875 22.992188 4.480469 22.453125 5.753906 C 22.09375 6.59375 22.375 5.402344 21.648438 5.503906 C 20.886719 5.613281 21.496094 3.464844 19.984375 3.464844 C 19.128906 3.464844 18.582031 8.460938 20.355469 10.34375 C 20.90625 10.105469 22.746094 10.585938 23.25 11.003906 C 23.753906 11.417969 24.234375 11.945312 25.023438 11.8125 C 25.8125 11.679688 26.160156 11.527344 26.292969 11.460938 C 26.578125 12.03125 26.960938 12.796875 27.574219 13.019531 C 27.757812 13.082031 27.960938 13.726562 28.429688 13.992188 C 28.734375 14.167969 28.988281 14.390625 29.0625 14.550781 C 29.269531 14.980469 28.933594 15.601562 30.015625 15.582031 L 30.378906 15.308594 L 30.992188 15.371094 L 31.210938 15.140625 L 31.222656 14.726562 L 31.078125 14.441406 L 31.253906 14.125 L 31.058594 13.605469 L 31.167969 13.0625 L 31.101562 12.601562 L 30.675781 12.25 L 29.679688 12.238281 C 29.476562 12.558594 29.785156 13.257812 29.476562 13.347656 C 29.125 13.289062 28.8125 13.082031 28.617188 12.207031 C 28.402344 11.265625 27.851562 11.238281 26.921875 11.667969 C 26.535156 11.84375 26.253906 11.144531 26.292969 10.820312 C 26.308594 10.695312 26.25 10.039062 26.25 10.039062 L 25.769531 10.199219 C 25.664062 9.929688 25.714844 9.511719 26.082031 9.542969 L 26.359375 9.644531 L 26.535156 9.8125 C 26.753906 9.476562 27.234375 8.394531 27.234375 8.394531 L 27.433594 7.597656 L 27.058594 6.882812 L 27.125 5.800781 L 26.847656 5.707031 "/>
<path style=" stroke:none;fill-rule:nonzero;fill:rgb(100%,100%,100%);fill-opacity:1;" d="M 26.03125 3.96875 C 26.175781 4.292969 26.703125 4.976562 26.628906 5.242188 C 26.832031 5.050781 27.050781 4.351562 27.050781 4.351562 C 27.097656 4.160156 26.964844 3.78125 26.613281 3.855469 C 26.265625 3.925781 25.980469 3.859375 26.03125 3.96875 "/>
<path style=" stroke:none;fill-rule:nonzero;fill:rgb(11.372549%,29.411765%,60.392157%);fill-opacity:1;" d="M 9.324219 1.476562 C 9.527344 1.6875 9.640625 1.960938 9.5625 2.257812 C 9.4375 2.554688 9.132812 2.679688 8.824219 2.679688 C 8.175781 2.597656 7.78125 1.933594 7.082031 2.003906 C 6.554688 1.996094 5.941406 2.109375 5.628906 2.632812 C 5.558594 2.800781 5.488281 3.054688 5.609375 3.222656 C 6.460938 4.054688 7.582031 4.492188 8.34375 5.535156 L 8.800781 6.164062 L 9.5 6.164062 L 9.894531 6.796875 C 11.570312 5.578125 13.171875 4.082031 14.984375 3.160156 C 17.011719 1.785156 20.050781 1.539062 22.347656 2.511719 L 23.378906 3.039062 C 24.625 3.089844 25.570312 3.941406 26.886719 3.773438 C 27.035156 3.800781 27.128906 3.957031 27.183594 4.089844 C 27.339844 4.640625 26.550781 5.121094 27.164062 5.5625 C 27.296875 5.972656 27.269531 6.453125 27.183594 6.882812 C 27.578125 7.261719 27.578125 7.832031 27.410156 8.3125 C 28.296875 8.96875 28.636719 9.925781 29.058594 10.816406 C 29.425781 11.511719 30.230469 11.40625 30.636719 12.035156 C 30.679688 12.394531 31.230469 12.402344 31.238281 12.816406 C 31.25 13.0625 31.25 13.359375 31.160156 13.585938 C 31.328125 13.78125 31.371094 14.070312 31.285156 14.304688 C 31.011719 14.464844 31.34375 14.628906 31.328125 14.8125 C 31.34375 15.066406 31.25 15.3125 31.011719 15.417969 C 30.730469 15.679688 30.335938 15.148438 30.171875 15.628906 C 29.890625 15.761719 29.558594 15.671875 29.304688 15.550781 C 29.023438 15.304688 28.804688 14.964844 28.925781 14.558594 C 28.609375 14.128906 28.085938 13.910156 27.707031 13.480469 C 26.988281 13.15625 26.359375 12.472656 25.9375 11.800781 C 25.125 12.140625 24.140625 12.011719 23.398438 11.554688 C 22.984375 11.351562 22.714844 10.800781 22.179688 10.898438 L 21.734375 10.921875 C 21.664062 11.5 21.707031 11.90625 21.699219 12.519531 C 21.925781 12.484375 22.265625 12.472656 22.433594 12.683594 C 22.828125 12.71875 23.222656 12.753906 23.519531 13 C 23.398438 13.273438 23.109375 13.429688 22.855469 13.507812 C 22.898438 13.597656 23.03125 13.605469 23.125 13.570312 C 23.238281 13.542969 23.335938 13.457031 23.457031 13.445312 C 23.449219 13.683594 23.355469 13.980469 23.097656 14.113281 C 23.03125 14.128906 22.976562 14.183594 22.914062 14.21875 C 23.039062 14.28125 23.203125 14.246094 23.355469 14.21875 C 23.371094 14.472656 23.195312 14.65625 23.019531 14.832031 C 22.890625 14.929688 22.75 14.988281 22.601562 15.023438 C 22.695312 15.148438 22.863281 15.050781 22.976562 15.023438 L 23.097656 14.9375 C 23.152344 15.101562 23.03125 15.285156 22.933594 15.445312 C 22.503906 15.53125 22.601562 16.085938 22.152344 16.15625 C 22.011719 16.164062 21.863281 16.234375 21.714844 16.179688 L 21.664062 16.242188 L 21.664062 19.816406 L 22.894531 19.816406 L 22.894531 24.484375 L 15.609375 24.484375 L 15.609375 19.816406 L 16.878906 19.816406 L 16.878906 17.46875 L 13.679688 23.03125 L 10.550781 17.503906 L 10.507812 17.460938 L 10.507812 19.816406 L 11.742188 19.816406 L 11.742188 24.484375 L 4.5 24.484375 L 4.5 19.816406 L 5.6875 19.816406 L 5.6875 10.980469 L 4.5 10.980469 L 4.5 6.164062 L 6.015625 6.164062 L 5.988281 6.121094 C 5.539062 5.191406 4.367188 4.78125 4.007812 3.808594 C 3.734375 3.1875 3.769531 2.265625 4.21875 1.730469 C 4.980469 0.792969 6.101562 0.433594 7.308594 0.617188 C 8.046875 0.742188 8.746094 0.96875 9.324219 1.476562 Z M 6.933594 0.785156 C 6.636719 0.988281 6.496094 1.285156 6.277344 1.539062 C 6.023438 1.476562 6.1875 1.777344 6.109375 1.878906 C 6.179688 1.898438 6.222656 1.847656 6.277344 1.835938 C 6.460938 1.757812 6.714844 1.828125 6.871094 1.6875 C 6.914062 1.328125 7.390625 1.179688 7.433594 0.847656 C 7.265625 0.828125 7.101562 0.804688 6.933594 0.785156 Z M 7.773438 0.933594 L 7.714844 0.996094 C 7.679688 1.144531 7.582031 1.363281 7.714844 1.476562 C 7.863281 1.292969 8.0625 1.230469 8.273438 1.207031 C 8.363281 1.230469 8.429688 1.3125 8.40625 1.417969 C 8.351562 1.496094 8.238281 1.730469 8.105469 1.601562 C 8.019531 1.6875 7.851562 1.777344 7.851562 1.914062 C 8.175781 2.046875 8.441406 2.320312 8.800781 2.363281 C 8.878906 2.300781 8.921875 2.222656 8.90625 2.125 C 8.675781 1.914062 8.984375 1.679688 8.976562 1.476562 C 8.597656 1.230469 8.210938 1.023438 7.773438 0.933594 Z M 5.960938 0.96875 C 5.480469 0.996094 5.050781 1.230469 4.726562 1.566406 C 5.066406 1.636719 5.328125 1.898438 5.609375 2.125 C 5.722656 1.914062 5.636719 1.617188 5.777344 1.417969 L 5.855469 1.496094 Z M 4.347656 2.378906 L 4.136719 2.546875 C 3.996094 2.878906 4.015625 3.363281 4.199219 3.640625 C 4.488281 3.457031 4.480469 2.96875 4.847656 2.933594 C 4.882812 3.054688 4.742188 3.152344 4.804688 3.246094 C 5.03125 3.089844 5.214844 2.835938 5.222656 2.546875 C 4.917969 2.492188 4.566406 2.546875 4.304688 2.617188 C 4.277344 2.519531 4.347656 2.46875 4.347656 2.378906 Z M 15.421875 4.253906 C 15.179688 4.984375 15.179688 5.839844 15.132812 6.628906 C 15.117188 6.699219 15.089844 6.824219 14.984375 6.796875 C 14.53125 6.078125 14.320312 5.253906 14.265625 4.359375 C 13.996094 4.597656 13.871094 4.9375 13.636719 5.15625 C 13.511719 4.992188 13.546875 4.753906 13.453125 4.570312 C 13.328125 4.519531 13.285156 4.648438 13.199219 4.695312 C 12.523438 6.042969 12.769531 7.925781 13.074219 9.363281 L 13.03125 9.488281 C 12.953125 9.566406 12.917969 9.433594 12.863281 9.40625 C 12.636719 8.769531 12.339844 8.164062 11.890625 7.621094 C 11.832031 7.59375 11.734375 7.53125 11.683594 7.621094 C 11.578125 7.75 11.601562 7.980469 11.453125 8.058594 C 11.261719 7.628906 11.050781 7.15625 10.613281 6.882812 C 10.429688 6.824219 10.246094 6.894531 10.105469 6.988281 C 10.875 7.65625 11.347656 8.488281 11.664062 9.363281 C 11.707031 9.101562 11.742188 8.707031 11.9375 8.433594 C 12.023438 8.410156 12.121094 8.488281 12.191406 8.566406 C 12.785156 9.695312 12.945312 11.003906 13.003906 12.351562 C 13.277344 11.6875 13.417969 10.96875 13.410156 10.1875 C 13.417969 10.152344 13.445312 10.101562 13.496094 10.117188 C 13.792969 10.730469 13.976562 11.457031 14.3125 11.992188 C 14.082031 10.933594 13.804688 9.878906 13.320312 8.925781 C 13.292969 8.855469 13.269531 8.679688 13.410156 8.714844 C 13.714844 9.101562 14.011719 9.441406 14.398438 9.742188 C 14.390625 9.625 14.390625 9.460938 14.476562 9.363281 C 14.566406 9.347656 14.617188 9.390625 14.671875 9.453125 C 15.046875 10.320312 15.589844 11.167969 16.414062 11.824219 L 16.546875 11.34375 C 16.605469 11.046875 16.824219 10.773438 16.835938 10.503906 C 16.640625 10.695312 16.511719 10.957031 16.414062 11.210938 C 15.6875 9.925781 15.019531 8.609375 14.792969 7.113281 L 14.835938 6.988281 C 15.074219 7.085938 15.265625 7.296875 15.511719 7.382812 C 15.617188 7.007812 15.597656 6.523438 15.933594 6.269531 C 15.941406 6.917969 15.96875 7.621094 16.140625 8.226562 C 16.292969 8.644531 16.421875 9.082031 16.710938 9.425781 L 16.773438 9.382812 C 16.71875 9.058594 16.703125 8.722656 16.710938 8.375 C 16.738281 8.320312 16.730469 8.226562 16.816406 8.207031 C 16.992188 8.390625 17.070312 8.628906 17.195312 8.820312 C 17.300781 8.59375 17.429688 8.375 17.613281 8.191406 C 17.675781 8.171875 17.710938 8.214844 17.761719 8.226562 C 17.878906 8.875 17.972656 9.53125 18.304688 10.082031 C 18.839844 10.644531 19.085938 11.316406 19.148438 12.078125 C 19.050781 12.246094 19.023438 12.542969 18.816406 12.5625 C 18.769531 12.105469 18.65625 11.675781 18.410156 11.300781 C 18.246094 11.378906 18.304688 11.660156 18.097656 11.722656 C 17.894531 11.441406 17.816406 11.109375 17.738281 10.773438 C 17.691406 10.433594 17.675781 10.066406 17.597656 9.765625 C 17.308594 10.460938 17.183594 11.230469 17.210938 12.054688 L 17.316406 12.183594 C 17.71875 12.132812 18.070312 11.984375 18.394531 11.738281 L 18.457031 11.78125 C 18.367188 12.308594 18.15625 12.78125 17.886719 13.238281 C 18.226562 13.34375 18.605469 13.316406 18.917969 13.167969 C 19.121094 13.332031 18.980469 13.675781 18.9375 13.867188 C 19.339844 13.839844 19.734375 13.769531 20.078125 13.585938 C 20.285156 13.734375 19.917969 13.929688 19.910156 13.988281 L 20.410156 13.796875 C 20.59375 13.78125 20.839844 13.734375 20.996094 13.839844 C 21.023438 13.988281 20.847656 14.023438 20.769531 14.113281 C 20.566406 14.324219 20.507812 14.636719 20.601562 14.917969 C 20.742188 15.183594 21.015625 15.410156 21.3125 15.417969 C 21.855469 15.578125 21.539062 14.839844 22.03125 14.789062 C 22.011719 14.550781 22.109375 14.339844 22.300781 14.199219 C 21.96875 13.804688 22.707031 13.5 22.257812 13.191406 C 22.1875 13.042969 22.328125 12.886719 22.222656 12.746094 C 21.671875 12.675781 21.144531 12.929688 20.679688 13.191406 C 20.488281 13.105469 20.609375 12.789062 20.574219 12.625 C 20.207031 12.570312 19.953125 12.9375 19.628906 13.085938 C 19.535156 13.15625 19.324219 13.324219 19.253906 13.105469 C 19.578125 12.507812 19.550781 11.695312 19.277344 11.089844 C 18.238281 9.828125 17.71875 7.980469 18.5625 6.464844 C 18.59375 6.429688 18.640625 6.367188 18.683594 6.417969 C 18.699219 7.164062 18.675781 8.039062 19.191406 8.609375 C 19.253906 8.496094 19.269531 8.355469 19.382812 8.292969 L 19.445312 8.328125 C 19.523438 9.011719 19.796875 9.625 20.332031 10.117188 L 20.390625 10.117188 C 20.628906 9.742188 20.699219 9.292969 20.8125 8.855469 C 21.074219 9.046875 21.285156 9.371094 21.460938 9.660156 C 21.523438 9.519531 21.511719 9.355469 21.628906 9.242188 C 21.863281 9.390625 21.996094 9.652344 22.117188 9.890625 C 22.863281 10.1875 23.625 10.816406 24.046875 11.554688 C 24.527344 11.816406 25.246094 11.824219 25.753906 11.617188 C 26 11.476562 26.148438 11.222656 26.175781 10.957031 C 25.464844 10.703125 24.625 10.730469 23.90625 10.941406 C 23.574219 10.398438 23.222656 9.800781 22.660156 9.347656 C 22.539062 8.976562 23.011719 8.742188 23.019531 8.375 C 22.949219 8.234375 22.835938 8.382812 22.722656 8.328125 C 22.441406 8.382812 22.300781 8.664062 22.152344 8.882812 C 22.003906 9.03125 21.871094 8.785156 21.800781 8.714844 C 21.664062 8.804688 21.644531 8.976562 21.566406 9.109375 C 21.179688 8.707031 21.003906 8.109375 21.066406 7.515625 C 21.136719 7.21875 21.355469 6.9375 21.628906 6.753906 C 21.757812 6.742188 21.898438 6.585938 22.011719 6.734375 C 21.871094 6.953125 21.769531 7.261719 21.90625 7.515625 C 21.976562 7.671875 22.109375 7.832031 22.285156 7.875 C 22.808594 7.953125 23.292969 7.679688 23.730469 7.425781 C 24.203125 7.234375 24.546875 7.628906 24.929688 7.769531 C 24.984375 7.796875 25.035156 7.875 24.957031 7.910156 C 24.859375 7.945312 24.746094 7.890625 24.660156 7.847656 C 24.386719 7.8125 24.117188 7.65625 23.835938 7.742188 L 23.878906 7.804688 C 24.160156 7.890625 24.492188 7.867188 24.71875 8.085938 C 24.738281 8.144531 24.710938 8.191406 24.660156 8.226562 C 24.363281 8.179688 24.0625 8.074219 23.773438 8.058594 L 23.773438 8.121094 C 24.082031 8.214844 24.441406 8.261719 24.746094 8.398438 C 24.738281 8.453125 24.710938 8.503906 24.660156 8.539062 C 24.363281 8.488281 24.054688 8.390625 23.757812 8.417969 L 23.757812 8.503906 C 24.054688 8.582031 24.421875 8.503906 24.675781 8.671875 C 24.746094 8.722656 24.710938 8.792969 24.660156 8.839844 L 23.921875 8.792969 C 23.90625 8.828125 23.835938 8.847656 23.863281 8.898438 C 24.160156 8.988281 24.519531 8.90625 24.824219 8.960938 L 24.886719 9.003906 L 24.746094 9.171875 C 24.808594 9.398438 24.84375 9.636719 25.035156 9.800781 C 25.070312 9.589844 25.125 9.382812 25.273438 9.214844 C 25.394531 9.214844 25.378906 9.382812 25.4375 9.46875 L 25.542969 9.214844 C 25.648438 9.242188 25.597656 9.398438 25.667969 9.46875 L 25.796875 9.214844 C 25.929688 9.25 25.878906 9.398438 25.921875 9.488281 L 26.070312 9.257812 C 26.175781 9.292969 26.121094 9.46875 26.191406 9.554688 L 26.386719 9.214844 C 26.429688 9.398438 26.445312 9.609375 26.535156 9.765625 C 26.628906 9.617188 26.683594 9.453125 26.71875 9.277344 C 26.261719 9.082031 25.65625 9.046875 25.183594 9.066406 L 25.125 9.03125 C 25.105469 8.941406 25.148438 8.890625 25.203125 8.839844 C 25.527344 8.75 25.980469 8.792969 26.132812 8.480469 C 26.015625 8.53125 25.894531 8.601562 25.773438 8.566406 C 25.902344 8.191406 25.402344 8.226562 25.414062 7.910156 C 25.703125 7.664062 26.183594 7.882812 26.507812 7.726562 C 26.816406 7.636719 26.550781 7.320312 26.570312 7.15625 C 26.726562 7.191406 26.824219 7.355469 26.886719 7.488281 C 27.085938 7.988281 26.753906 8.363281 26.507812 8.734375 C 26.527344 8.863281 26.683594 8.839844 26.78125 8.839844 C 27.113281 8.539062 27.3125 8.144531 27.347656 7.699219 C 27.445312 7.261719 26.761719 7.066406 27.035156 6.628906 C 27.128906 6.140625 27.09375 5.550781 26.65625 5.261719 C 26.796875 4.894531 27.007812 4.554688 27.015625 4.125 C 26.824219 3.78125 26.351562 3.992188 26.027344 4.019531 C 25.570312 3.511719 24.753906 4.195312 24.386719 3.519531 C 23.546875 3.421875 22.757812 3.476562 22.09375 3.792969 C 22.382812 3.703125 22.671875 3.617188 22.996094 3.625 C 23.019531 3.660156 23.082031 3.675781 23.0625 3.730469 C 22.539062 3.90625 22.003906 4.035156 21.546875 4.359375 C 21.453125 4.472656 21.292969 4.640625 21.382812 4.753906 C 21.671875 4.507812 22.003906 4.351562 22.347656 4.210938 C 22.566406 4.125 22.828125 4.019531 23.0625 4.089844 L 23.019531 4.167969 C 22.554688 4.484375 22.023438 4.675781 21.652344 5.175781 C 21.617188 5.226562 21.539062 5.316406 21.628906 5.367188 C 21.988281 5.332031 22.195312 4.964844 22.496094 4.796875 C 22.671875 4.726562 22.863281 4.589844 23.039062 4.648438 C 22.914062 5.042969 22.503906 5.316406 22.539062 5.769531 C 22.566406 5.894531 22.695312 5.839844 22.765625 5.910156 C 23.320312 5.78125 24.019531 5.699219 24.535156 5.980469 C 24.519531 5.832031 24.386719 5.726562 24.28125 5.621094 C 24.027344 5.367188 23.625 5.464844 23.378906 5.203125 C 23.335938 5.121094 23.265625 5.007812 23.398438 4.949219 C 23.792969 4.949219 24.132812 5.085938 24.464844 5.21875 C 24.746094 5.480469 25.125 5.515625 25.414062 5.726562 C 25.429688 5.921875 25.195312 5.921875 25.097656 6 C 25.230469 6.085938 25.394531 6.113281 25.484375 6.253906 C 25.253906 6.445312 25.027344 6.324219 24.765625 6.359375 C 24.71875 6.464844 24.957031 6.507812 24.957031 6.628906 C 24.703125 6.847656 24.40625 6.972656 24.089844 7.050781 C 23.933594 6.902344 24.273438 6.804688 24.117188 6.648438 C 23.78125 6.726562 23.589844 6.429688 23.292969 6.507812 C 23.355469 6.726562 23.660156 6.8125 23.714844 7.03125 C 23.457031 7.09375 23.144531 6.953125 22.933594 6.902344 L 23.378906 7.347656 C 23.34375 7.542969 23.097656 7.488281 22.960938 7.558594 C 22.730469 7.523438 22.519531 7.472656 22.363281 7.277344 C 22.101562 7.078125 22.195312 6.726562 22.179688 6.417969 C 21.855469 6.15625 21.382812 6.183594 21.085938 5.832031 C 20.796875 5.527344 20.855469 5.035156 20.933594 4.695312 C 20.734375 4.964844 20.714844 5.367188 20.785156 5.699219 C 20.785156 5.929688 20.636719 6.121094 20.453125 6.253906 C 20.367188 6.296875 20.261719 6.253906 20.183594 6.210938 C 20.128906 5.921875 20.058594 5.613281 19.839844 5.410156 C 19.3125 6.140625 19.191406 7.136719 19.382812 8.058594 C 19.3125 8.171875 19.253906 8.03125 19.191406 8.015625 C 18.613281 7.128906 18.769531 5.726562 19.339844 4.886719 C 19.035156 5.070312 18.796875 5.4375 18.664062 5.769531 C 18.578125 5.9375 18.570312 6.140625 18.457031 6.296875 C 18.394531 6.316406 18.367188 6.261719 18.332031 6.226562 C 17.921875 6.605469 17.84375 7.121094 17.761719 7.636719 C 17.710938 7.75 17.789062 7.960938 17.632812 7.980469 C 17.324219 6.859375 17.5625 5.597656 18.410156 4.78125 C 18.628906 4.386719 19.253906 4.40625 19.175781 3.878906 C 19.289062 3.511719 19.671875 3.265625 20.03125 3.222656 C 19.875 2.949219 20.214844 2.75 20.304688 2.574219 C 18.929688 2.871094 17.78125 4.238281 17.238281 5.472656 C 17.148438 5.570312 17.265625 5.761719 17.105469 5.804688 C 16.84375 4.796875 17.167969 3.816406 17.65625 3.011719 L 17.070312 3.160156 L 16.964844 3.097656 C 17.019531 2.878906 17.21875 2.730469 17.316406 2.527344 C 16.527344 2.757812 15.519531 3.308594 15.421875 4.253906 Z M 20.121094 3.222656 C 20.4375 3.210938 20.796875 3.421875 21.085938 3.640625 C 21.628906 3.441406 22.257812 3.273438 22.855469 3.175781 C 22.074219 2.757812 20.875 2.703125 20.121094 3.222656 Z M 5.355469 3.414062 C 5.09375 3.492188 4.847656 3.738281 4.699219 3.984375 C 4.59375 4.148438 4.574219 4.371094 4.769531 4.484375 C 5.03125 4.316406 5.25 4.035156 5.582031 4.046875 C 5.742188 4.027344 5.792969 3.859375 5.792969 3.730469 C 5.679688 3.589844 5.546875 3.40625 5.355469 3.414062 Z M 20.347656 3.625 C 20.15625 3.570312 19.925781 3.527344 19.761719 3.667969 C 19.59375 3.808594 19.636719 4.035156 19.613281 4.230469 C 19.621094 4.660156 19.980469 5.050781 20.304688 5.21875 L 20.316406 5.128906 C 20.386719 4.757812 20.09375 4.421875 20.285156 4.105469 C 20.410156 3.992188 20.53125 4.140625 20.644531 4.195312 C 20.761719 4.28125 20.785156 4.089844 20.855469 4.046875 C 20.714844 3.871094 20.539062 3.703125 20.347656 3.625 Z M 6.554688 4.230469 C 5.917969 3.871094 6.082031 4.886719 5.539062 4.859375 C 5.511719 5.007812 5.574219 5.113281 5.644531 5.21875 C 5.734375 5.238281 5.785156 5.191406 5.855469 5.175781 C 6.160156 4.984375 6.546875 4.667969 6.660156 4.316406 Z M 6.171875 5.324219 C 6.074219 5.457031 6.160156 5.632812 6.277344 5.699219 C 6.785156 5.867188 7.320312 5.585938 7.878906 5.621094 L 7.878906 5.578125 C 7.539062 5.027344 6.660156 5.027344 6.171875 5.324219 Z M 26.910156 9.109375 C 26.902344 9.460938 26.71875 9.777344 26.492188 9.996094 C 26.367188 9.90625 26.375 9.765625 26.324219 9.660156 L 26.148438 9.785156 C 26.050781 9.742188 26.097656 9.617188 26.027344 9.574219 C 25.929688 9.722656 25.796875 9.84375 25.816406 10.039062 C 25.949219 10.320312 26.085938 9.835938 26.28125 9.871094 C 26.410156 10.082031 26.386719 10.441406 26.296875 10.667969 C 26.4375 10.714844 26.394531 10.828125 26.402344 10.957031 C 26.726562 11.117188 27.105469 11.140625 27.375 11.421875 C 27.3125 11.617188 27.015625 11.554688 26.886719 11.660156 C 27.226562 11.710938 27.691406 11.675781 27.8125 12.011719 C 27.796875 12.148438 27.664062 12.140625 27.585938 12.078125 C 27.402344 12.035156 27.164062 12.035156 27.078125 12.21875 C 27.035156 12.359375 27.058594 12.527344 27.183594 12.625 C 27.402344 12.878906 27.777344 12.816406 28.085938 12.789062 C 28.25 12.984375 28.128906 13.253906 28.191406 13.507812 C 28.402344 14.050781 29.257812 14.199219 29.136719 14.894531 C 29.25 14.996094 29.410156 15.050781 29.558594 14.996094 C 29.375 14.671875 29.179688 14.359375 29.199219 13.945312 C 29.222656 13.746094 29.417969 13.648438 29.558594 13.507812 C 29.609375 13.359375 29.476562 13.375 29.410156 13.296875 C 29.417969 13.21875 29.445312 13.148438 29.496094 13.085938 C 29.566406 12.9375 29.546875 12.730469 29.433594 12.605469 C 29.390625 12.484375 29.410156 12.335938 29.496094 12.246094 C 29.664062 12.0625 29.953125 12.105469 30.171875 12.097656 C 30.195312 12.027344 30.125 12.019531 30.082031 11.992188 C 29.671875 11.929688 29.285156 12.132812 29.03125 12.472656 C 28.671875 12.316406 28.769531 11.914062 28.777344 11.570312 C 28.691406 11.316406 28.347656 11.308594 28.113281 11.238281 C 28.007812 11.1875 27.804688 11.195312 27.832031 11.027344 C 28.042969 10.816406 28.382812 10.878906 28.609375 10.6875 L 28.566406 10.625 C 28.207031 10.589844 27.777344 10.519531 27.4375 10.609375 C 27.402344 10.5625 27.339844 10.527344 27.332031 10.476562 C 27.332031 10.292969 27.550781 10.257812 27.648438 10.160156 L 27.515625 9.996094 C 27.734375 9.863281 27.996094 9.976562 28.234375 9.976562 C 28.085938 9.6875 27.726562 9.75 27.480469 9.742188 C 27.277344 9.757812 27.148438 10.019531 26.953125 9.90625 C 27.035156 9.679688 27.191406 9.476562 27.140625 9.195312 C 27.128906 9.074219 27 9.046875 26.910156 9.109375 Z M 24.222656 9.660156 C 24.054688 9.695312 23.863281 9.398438 23.730469 9.589844 C 23.722656 9.890625 24.054688 9.878906 24.222656 10.011719 L 24.449219 9.695312 L 24.640625 9.871094 C 24.640625 9.730469 24.511719 9.660156 24.449219 9.554688 Z M 24.464844 9.90625 C 24.328125 10.082031 24.308594 10.300781 24.328125 10.539062 C 24.914062 10.433594 25.597656 10.476562 26.148438 10.644531 C 26.191406 10.476562 26.261719 10.25 26.175781 10.101562 C 26.035156 10.214844 25.992188 10.40625 25.832031 10.476562 C 25.773438 10.40625 25.789062 10.300781 25.726562 10.222656 C 25.683594 10.292969 25.632812 10.363281 25.589844 10.433594 C 25.484375 10.425781 25.519531 10.285156 25.484375 10.203125 L 25.273438 10.460938 C 25.210938 10.363281 25.210938 10.25 25.140625 10.160156 L 24.992188 10.433594 C 24.871094 10.363281 24.914062 10.167969 24.78125 10.101562 C 24.730469 10.203125 24.738281 10.355469 24.617188 10.414062 C 24.570312 10.25 24.554688 10.066406 24.464844 9.90625 Z M 29.855469 12.308594 C 29.785156 12.34375 29.671875 12.371094 29.6875 12.472656 C 29.8125 12.71875 29.75 12.957031 29.707031 13.191406 C 29.855469 13.15625 29.988281 13.097656 30.109375 13 C 30.207031 12.851562 30.335938 12.71875 30.320312 12.519531 C 30.265625 12.324219 30.023438 12.28125 29.855469 12.308594 Z M 30.609375 12.414062 C 30.539062 12.730469 30.941406 12.71875 31.089844 12.921875 L 31.054688 12.683594 C 30.941406 12.542969 30.785156 12.371094 30.609375 12.414062 Z M 22.496094 12.878906 C 22.417969 12.902344 22.46875 12.992188 22.449219 13.042969 C 22.519531 13.15625 22.546875 13.464844 22.765625 13.34375 C 22.949219 13.28125 23.195312 13.191406 23.25 13.042969 C 23.011719 12.949219 22.75 12.921875 22.496094 12.878906 Z M 30.738281 12.894531 C 30.589844 12.914062 30.589844 13.097656 30.609375 13.191406 C 30.574219 13.375 30.363281 13.527344 30.214844 13.550781 C 30.230469 13.585938 30.265625 13.585938 30.292969 13.613281 C 30.476562 13.71875 30.765625 13.691406 30.925781 13.550781 C 31.066406 13.4375 31.109375 13.261719 31.054688 13.105469 C 31.003906 12.984375 30.878906 12.886719 30.738281 12.894531 Z M 30.398438 12.9375 L 30.214844 13.210938 C 30.222656 13.253906 30.265625 13.289062 30.320312 13.273438 C 30.371094 13.191406 30.46875 13.042969 30.398438 12.9375 Z M 22.539062 13.675781 C 22.460938 13.753906 22.40625 13.851562 22.433594 13.972656 C 22.46875 14.035156 22.539062 14.140625 22.644531 14.09375 C 22.90625 14.050781 23.257812 13.972656 23.308594 13.65625 C 23.074219 13.746094 22.785156 13.753906 22.539062 13.675781 Z M 31.011719 13.886719 C 30.765625 13.648438 30.800781 14.035156 30.652344 14.113281 C 30.566406 14.183594 30.425781 14.226562 30.382812 14.304688 C 30.519531 14.394531 30.707031 14.445312 30.878906 14.394531 C 31.03125 14.347656 31.160156 14.199219 31.132812 14.035156 Z M 22.890625 14.472656 C 22.671875 14.523438 22.46875 14.261719 22.300781 14.429688 C 22.292969 14.558594 22.214844 14.699219 22.300781 14.8125 C 22.449219 14.796875 22.625 14.847656 22.75 14.769531 C 22.871094 14.699219 23.039062 14.585938 23.082031 14.429688 C 23.019531 14.453125 22.96875 14.480469 22.890625 14.472656 Z M 19.042969 14.410156 C 19.429688 14.605469 19.796875 14.902344 20.226562 14.917969 L 19.839844 14.535156 C 19.550781 14.570312 19.304688 14.464844 19.042969 14.410156 Z M 30.636719 14.894531 C 30.546875 14.972656 30.347656 14.9375 30.355469 15.058594 C 30.496094 15.269531 30.738281 15.269531 30.949219 15.234375 C 31.066406 15.171875 31.203125 15.050781 31.179688 14.894531 C 31.117188 14.605469 30.757812 14.628906 30.636719 14.894531 Z M 29.269531 15.191406 C 29.390625 15.453125 29.6875 15.550781 29.976562 15.550781 C 30.066406 15.472656 30.230469 15.472656 30.171875 15.296875 C 29.988281 14.789062 29.582031 15.382812 29.269531 15.191406 Z M 22.117188 15.128906 C 22.011719 15.183594 21.953125 15.285156 21.941406 15.402344 C 22.101562 15.53125 22.355469 15.496094 22.539062 15.507812 C 22.6875 15.460938 22.855469 15.339844 22.871094 15.207031 C 22.617188 15.355469 22.347656 15.242188 22.117188 15.128906 Z M 21.609375 15.714844 C 21.582031 15.796875 21.511719 15.953125 21.628906 15.988281 C 21.898438 16.015625 22.242188 15.980469 22.390625 15.734375 C 22.074219 15.855469 21.835938 15.3125 21.609375 15.714844 Z M 16.816406 3.203125 C 15.679688 4.40625 15.992188 6.558594 16.625 7.890625 C 16.71875 7.726562 16.710938 7.488281 16.710938 7.304688 C 16.570312 6.503906 16.488281 5.78125 16.683594 4.949219 C 16.773438 4.625 17 4.359375 17 4 C 16.695312 3.859375 16.894531 3.441406 16.835938 3.203125 Z M 24.300781 4.0625 C 23.863281 3.929688 23.449219 4.097656 23.144531 4.40625 C 23.144531 4.449219 23.152344 4.484375 23.1875 4.507812 C 23.582031 4.324219 24.175781 4.308594 24.570312 4.4375 C 24.597656 4.386719 24.535156 4.359375 24.535156 4.316406 Z M 24.851562 4.0625 L 24.808594 4.195312 C 24.941406 4.378906 25.0625 4.613281 25.273438 4.71875 C 25.464844 4.371094 25.886719 4.660156 26.148438 4.632812 C 25.886719 4.175781 25.332031 4.132812 24.851562 4.0625 Z M 26.867188 4.105469 C 26.640625 4.140625 26.507812 4.4375 26.253906 4.359375 C 26.269531 4.632812 26.542969 4.808594 26.597656 5.070312 C 26.796875 4.867188 26.851562 4.535156 26.910156 4.230469 Z M 23.5625 4.589844 C 23.449219 4.648438 23.257812 4.660156 23.230469 4.796875 C 23.617188 4.902344 24.246094 4.726562 24.554688 5.113281 C 24.675781 5.148438 24.84375 5.246094 24.957031 5.113281 C 24.78125 4.5 24.082031 4.640625 23.5625 4.589844 Z M 25.308594 4.84375 C 25.238281 5.050781 25.5 5.183594 25.605469 5.324219 C 25.78125 5.351562 25.964844 5.492188 26.132812 5.410156 C 26.132812 5.238281 25.921875 5.34375 25.878906 5.21875 L 25.902344 5.203125 C 26.210938 5.140625 26.386719 5.457031 26.613281 5.5625 C 26.71875 5.34375 26.480469 5.175781 26.386719 4.992188 C 26.0625 4.84375 25.65625 4.738281 25.308594 4.84375 Z M 13.304688 4.992188 C 13.179688 5.078125 13.199219 5.308594 13.15625 5.472656 C 13.023438 6.691406 13.109375 7.996094 13.890625 8.898438 C 14.433594 8.734375 14.652344 9.476562 15.132812 9.53125 C 14.691406 8.511719 14.199219 7.515625 13.890625 6.417969 C 13.8125 6.183594 13.820312 5.902344 13.707031 5.683594 C 13.339844 5.691406 13.445312 5.289062 13.363281 5.070312 Z M 25.691406 5.535156 C 25.78125 5.753906 25.914062 5.945312 26.085938 6.121094 C 26.203125 6.304688 26.097656 6.621094 26.339844 6.71875 C 26.359375 6.539062 26.5 6.570312 26.65625 6.480469 C 26.726562 6.417969 26.609375 6.398438 26.582031 6.34375 C 26.625 6.292969 26.585938 6.183594 26.675781 6.148438 C 26.796875 6.191406 26.699219 6.417969 26.761719 6.507812 L 26.804688 6.464844 C 27.035156 6.234375 26.832031 5.980469 26.761719 5.746094 C 26.578125 5.648438 26.492188 5.894531 26.296875 5.832031 C 26.21875 5.578125 25.894531 5.632812 25.691406 5.535156 Z M 19.804688 6.085938 C 19.410156 7.21875 19.683594 8.539062 20.136719 9.554688 L 20.199219 9.554688 C 20.214844 9.09375 20.355469 8.601562 20.8125 8.398438 C 20.734375 7.902344 20.761719 7.332031 20.875 6.859375 C 20.890625 6.671875 21.101562 6.535156 21.023438 6.332031 C 20.804688 6.402344 20.679688 6.640625 20.390625 6.570312 C 20.148438 6.515625 19.925781 6.269531 19.804688 6.085938 Z M 24.363281 7.304688 C 24.558594 7.496094 24.976562 7.714844 25.332031 7.699219 C 25.378906 7.609375 25.351562 7.496094 25.308594 7.410156 C 24.984375 7.472656 24.652344 7.402344 24.363281 7.304688 Z M 25.289062 7.980469 C 25.253906 8.164062 25.308594 8.292969 25.421875 8.417969 C 25.5 8.488281 25.578125 8.410156 25.648438 8.375 C 25.597656 8.199219 25.429688 8.066406 25.289062 7.980469 "/>
<path style="fill:none;stroke-width:5;stroke-linecap:butt;stroke-linejoin:miter;stroke:rgb(11.372549%,29.411765%,60.392157%);stroke-opacity:1;stroke-miterlimit:4;" d="M 693.228858 2684.628713 C 716.41064 2660.555325 729.338941 2629.349081 720.422871 2595.468015 C 706.15716 2561.58695 671.384487 2547.321238 636.166012 2547.321238 C 562.162632 2556.683111 517.136479 2632.469705 437.337654 2624.445242 C 377.154183 2625.336849 307.163035 2612.408548 271.498756 2552.67088 C 263.474293 2533.50133 255.44983 2504.524103 269.269738 2485.354553 C 366.454899 2390.398409 494.400501 2340.468418 581.332182 2221.438886 L 633.491191 2149.664524 L 713.290015 2149.664524 L 758.316168 2077.444358 C 949.565866 2216.535048 1132.345297 2387.277785 1339.198117 2492.487409 C 1570.570129 2649.410238 1917.405245 2677.495858 2179.537698 2566.490788 L 2297.22982 2506.307317 C 2439.441134 2500.511872 2547.325578 2403.32671 2697.561355 2422.496261 C 2714.501888 2419.375636 2725.201172 2401.543497 2731.44242 2386.386178 C 2749.27456 2323.527886 2659.222255 2268.694056 2729.213403 2218.318262 C 2744.370722 2171.508895 2741.250097 2116.675066 2731.44242 2067.636682 C 2776.468573 2024.393743 2776.468573 1959.306433 2757.299023 1904.472604 C 2858.496415 1829.577617 2897.281319 1720.355762 2945.428096 1618.712566 C 2987.333624 1539.359544 3079.169144 1551.396239 3125.532707 1479.621877 C 3130.436545 1438.607955 3193.294837 1437.716348 3194.186444 1390.461178 C 3195.523855 1362.375558 3195.523855 1328.494493 3185.270374 1302.637891 C 3204.439925 1280.347716 3209.343763 1247.358258 3199.536086 1220.610048 C 3168.329842 1202.332105 3206.223139 1183.608358 3204.439925 1162.655594 C 3206.223139 1133.678367 3195.523855 1105.592747 3168.329842 1093.556053 C 3136.23199 1063.687219 3091.205838 1124.316494 3072.482091 1069.482665 C 3040.38424 1054.325346 3002.490943 1064.578826 2973.513716 1078.398734 C 2941.415865 1106.484354 2916.450869 1145.269258 2930.270777 1191.632821 C 2894.160695 1240.671205 2834.423027 1265.636201 2791.180088 1314.674585 C 2709.152246 1351.676275 2637.377884 1429.691886 2589.231107 1506.370086 C 2496.50398 1467.585182 2384.161501 1482.296698 2299.458837 1534.455706 C 2252.203667 1557.637488 2221.443226 1620.49578 2160.368148 1609.350693 L 2109.54655 1606.675872 C 2101.522087 1540.696955 2106.425926 1494.333392 2105.534319 1424.342244 C 2131.390921 1428.354475 2170.175825 1429.691886 2189.345375 1405.618497 C 2234.371528 1401.606266 2279.39768 1397.594034 2313.278746 1369.508414 C 2299.458837 1338.30217 2266.469379 1320.47003 2237.492152 1311.55396 C 2242.39599 1301.30048 2257.553309 1300.408873 2268.252593 1304.421105 C 2281.180894 1307.541729 2292.325981 1317.349406 2306.14589 1318.686816 C 2305.254283 1291.492803 2294.554999 1257.611738 2265.131969 1242.454419 C 2257.553309 1240.671205 2251.31206 1234.429956 2244.179204 1230.417725 C 2258.444916 1223.284869 2277.168663 1227.297101 2294.554999 1230.417725 C 2296.338213 1201.440498 2276.277056 1180.487734 2256.215899 1160.426577 C 2241.504383 1149.28149 2225.455458 1142.594437 2208.514925 1138.582206 C 2219.214209 1124.316494 2238.383759 1135.461581 2251.31206 1138.582206 L 2265.131969 1148.389883 C 2271.373217 1129.666136 2257.553309 1108.713372 2246.408222 1090.435429 C 2197.369838 1080.627752 2208.514925 1017.323656 2157.247524 1009.299193 C 2141.198598 1008.407586 2124.258065 1000.383124 2107.317533 1006.624372 L 2101.522087 999.491517 L 2101.522087 591.581322 L 2241.950187 591.581322 L 2241.950187 58.84615 L 1410.526676 58.84615 L 1410.526676 591.581322 L 1555.41281 591.581322 L 1555.41281 859.50922 L 1190.299751 224.685049 L 833.211155 855.496989 L 828.307316 860.400827 L 828.307316 591.581322 L 969.181219 591.581322 L 969.181219 58.84615 L 142.661547 58.84615 L 142.661547 591.581322 L 278.185808 591.581322 L 278.185808 1599.988819 L 142.661547 1599.988819 L 142.661547 2149.664524 L 315.633301 2149.664524 L 312.512677 2154.568362 C 261.245275 2260.669593 127.504228 2307.47896 86.490307 2418.484029 C 55.284062 2489.366784 59.296294 2594.576408 110.563695 2655.651487 C 197.495376 2762.644324 325.440978 2803.658246 463.194257 2782.705482 C 547.451117 2768.43977 627.249942 2742.583167 693.228858 2684.628713 Z M 420.397122 2763.535931 C 386.516056 2740.35415 370.467131 2706.473085 345.502135 2677.495858 C 316.524908 2684.628713 335.248655 2650.301845 326.332585 2638.710954 C 334.357048 2636.481936 339.260886 2642.277382 345.502135 2643.614792 C 366.454899 2652.530862 395.432126 2644.506399 413.264266 2660.555325 C 418.168104 2701.569246 472.55613 2718.509779 477.459969 2756.403076 C 458.290419 2758.632093 439.566672 2761.306914 420.397122 2763.535931 Z M 516.244872 2746.595399 L 509.55782 2739.462543 C 505.545589 2722.52201 494.400501 2697.557015 509.55782 2684.628713 C 526.498353 2705.581478 549.234331 2712.714333 573.307719 2715.389154 C 583.5612 2712.714333 591.139859 2703.35246 588.465038 2691.315766 C 582.223789 2682.399696 569.295488 2655.651487 554.138169 2670.363002 C 544.330492 2660.555325 525.160942 2650.301845 525.160942 2634.698722 C 562.162632 2619.541404 592.477269 2588.335159 633.491191 2583.431321 C 642.40726 2590.564177 647.311099 2599.480247 645.527885 2610.625334 C 619.225479 2634.698722 654.443955 2661.446932 653.552348 2684.628713 C 610.309409 2712.714333 566.174863 2736.341918 516.244872 2746.595399 Z M 309.392052 2742.583167 C 254.558223 2739.462543 205.519839 2712.714333 168.518149 2674.375233 C 207.303053 2666.35077 237.171887 2636.481936 269.269738 2610.625334 C 282.198039 2634.698722 272.390363 2668.579788 288.439288 2691.315766 L 297.355358 2682.399696 Z M 125.275211 2581.648107 L 101.201822 2562.478557 C 85.152896 2524.58526 87.381914 2469.305627 108.334678 2437.653579 C 141.324136 2458.606343 140.432529 2514.33178 182.338057 2518.344011 C 186.350289 2504.524103 170.301363 2493.379016 177.434219 2482.679732 C 203.290822 2500.511872 224.243586 2529.489098 225.135193 2562.478557 C 190.36252 2568.719806 150.240206 2562.478557 120.371372 2554.454094 C 117.250748 2565.599181 125.275211 2571.394627 125.275211 2581.648107 Z M 1389.128108 2367.662431 C 1361.488292 2284.297178 1361.488292 2186.666214 1356.13865 2096.613908 C 1354.355436 2088.589446 1351.234811 2074.323734 1339.198117 2077.444358 C 1287.484912 2159.472201 1263.411524 2253.536737 1257.170275 2355.625737 C 1226.409834 2328.431724 1212.144122 2289.64682 1185.395913 2264.681825 C 1171.130201 2283.405571 1175.142432 2310.599584 1164.443149 2331.552348 C 1150.177437 2337.347794 1145.273599 2322.636279 1135.465922 2317.286637 C 1058.341918 2163.484432 1086.427538 1948.607149 1121.20021 1784.551465 L 1116.296372 1770.285753 C 1107.380302 1761.369683 1103.36807 1776.527002 1097.126821 1779.647626 C 1071.270219 1852.313595 1037.389154 1921.413136 986.121752 1983.379822 C 979.4347 1986.500446 968.289612 1993.633302 962.494167 1983.379822 C 950.457473 1968.668307 953.132294 1942.365901 936.191761 1933.449831 C 914.34739 1982.488215 890.274002 2036.430437 840.344011 2067.636682 C 819.391246 2074.323734 798.438482 2066.299271 782.389557 2055.599987 C 870.212844 1979.36759 924.155067 1884.411447 960.26515 1784.551465 C 965.168988 1814.420299 969.181219 1859.446451 991.471394 1890.652696 C 1001.279071 1893.327516 1012.424158 1884.411447 1020.448621 1875.495377 C 1088.210752 1746.658168 1106.488695 1597.313998 1113.175747 1443.511794 C 1144.381992 1519.298387 1160.430917 1601.32623 1159.53931 1690.486928 C 1160.430917 1694.499159 1163.551542 1700.294605 1169.346987 1698.511391 C 1203.228052 1628.520243 1224.180816 1545.600793 1262.519917 1484.525715 C 1236.217511 1605.338461 1204.565463 1725.705404 1149.28583 1834.481456 C 1146.165206 1842.505918 1143.490385 1862.567076 1159.53931 1858.554844 C 1194.311983 1814.420299 1228.193048 1775.635395 1272.327594 1741.308526 C 1271.435987 1754.682631 1271.435987 1773.406377 1281.243663 1784.551465 C 1291.497144 1786.334679 1297.292589 1781.43084 1303.533838 1774.297984 C 1346.330973 1675.329609 1408.297658 1578.590252 1502.362195 1503.695265 L 1517.519514 1558.529095 C 1524.206566 1592.41016 1549.171562 1623.616404 1550.508972 1654.376845 C 1528.218798 1632.532474 1513.507282 1602.66364 1502.362195 1573.686413 C 1419.442746 1720.355762 1343.210349 1870.591538 1317.353746 2041.334276 L 1322.257585 2055.599987 C 1349.451598 2044.4549 1371.295969 2020.381511 1399.381589 2010.573835 C 1411.418283 2053.37097 1409.189265 2108.650603 1447.528366 2137.62783 C 1448.419973 2063.62445 1451.540597 1983.379822 1471.155951 1914.280281 C 1488.542287 1866.579307 1503.253802 1816.649316 1536.24326 1777.418609 L 1543.376116 1782.322447 C 1537.134867 1819.324137 1535.351653 1857.663237 1536.24326 1897.339748 C 1539.363885 1903.580997 1538.472278 1914.280281 1548.279955 1916.509298 C 1568.341112 1895.556534 1577.257182 1868.362521 1591.522893 1846.51815 C 1603.559588 1872.374752 1618.271103 1897.339748 1639.223867 1918.292512 C 1646.356723 1920.521529 1650.368954 1915.617691 1656.164399 1914.280281 C 1669.538504 1840.276901 1680.237788 1765.381915 1718.131085 1702.523622 C 1779.206163 1638.327919 1807.291783 1561.649719 1814.424639 1474.718038 C 1803.279552 1455.548488 1800.158927 1421.667423 1776.531342 1419.438405 C 1771.1817 1471.597414 1758.253399 1520.635798 1730.167779 1563.432933 C 1711.444032 1554.516863 1718.131085 1522.419012 1694.5035 1515.286156 C 1671.321718 1547.384007 1662.405648 1585.277304 1653.489579 1623.616404 C 1648.139937 1662.401308 1646.356723 1704.306836 1637.440653 1738.633705 C 1604.451195 1659.280684 1590.185483 1571.457396 1593.306107 1477.392859 L 1605.342801 1462.681344 C 1651.260561 1468.476789 1691.382875 1485.417322 1728.384565 1513.502942 L 1735.517421 1508.599104 C 1725.263941 1448.415632 1701.190552 1394.47341 1670.430111 1342.314401 C 1709.215015 1330.277707 1752.457954 1333.398331 1788.122233 1350.338864 C 1811.304014 1331.615118 1795.255089 1292.38441 1790.35125 1270.540039 C 1836.26901 1273.660664 1881.295163 1281.685126 1920.52587 1302.637891 C 1944.153455 1285.697358 1902.247927 1263.407183 1901.35632 1256.720131 L 1958.419167 1278.564502 C 1979.371931 1280.347716 2007.457551 1285.697358 2025.28969 1273.660664 C 2028.410315 1256.720131 2008.349158 1252.7079 1999.433088 1242.454419 C 1976.251306 1218.381031 1969.564254 1182.716751 1980.263538 1150.6189 C 1996.312463 1120.304263 2027.518708 1094.44766 2061.399773 1093.556053 C 2123.366458 1075.27811 2087.256376 1159.53497 2143.427615 1165.330415 C 2141.198598 1192.524428 2152.343685 1216.597817 2174.188056 1232.646742 C 2136.29476 1277.672895 2220.551619 1312.445567 2169.284218 1347.664043 C 2161.259755 1364.604576 2177.308681 1382.436716 2165.271986 1398.485641 C 2102.413694 1406.510104 2042.230223 1377.532877 1989.179607 1347.664043 C 1967.335236 1357.47172 1981.155145 1393.581803 1977.142913 1412.305549 C 1935.237385 1418.546798 1906.260158 1376.64127 1869.258468 1359.700737 C 1858.559185 1351.676275 1834.485796 1332.506724 1826.461333 1357.47172 C 1863.463023 1425.679654 1860.342398 1518.40678 1829.136154 1587.506321 C 1710.552425 1731.500849 1651.260561 1942.365901 1747.554115 2115.337655 C 1751.120543 2119.349887 1756.470185 2126.482742 1761.374023 2120.687297 C 1763.157237 2035.53883 1760.482416 1935.678848 1819.328477 1870.591538 C 1826.461333 1883.51984 1828.244547 1899.568765 1841.172848 1906.701621 L 1848.305704 1902.68939 C 1857.221774 1824.673779 1888.428018 1754.682631 1949.503097 1698.511391 L 1956.190149 1698.511391 C 1983.384162 1741.308526 1991.408625 1792.575927 2004.336926 1842.505918 C 2034.20576 1820.661547 2058.279149 1783.659858 2078.340306 1750.670399 C 2085.473162 1766.719325 2084.135751 1785.443072 2097.509856 1798.371373 C 2124.258065 1781.43084 2139.415384 1751.562006 2153.235292 1724.367993 C 2238.383759 1690.486928 2325.31544 1618.712566 2373.462217 1534.455706 C 2428.296046 1504.586872 2510.323889 1503.695265 2568.278343 1527.32285 C 2596.363963 1543.371776 2613.304495 1572.349003 2616.42512 1602.66364 C 2535.288884 1631.640867 2439.441134 1628.520243 2357.413291 1604.446854 C 2319.519994 1666.413539 2279.39768 1734.621474 2215.201978 1786.334679 C 2201.382069 1828.68601 2255.324292 1855.43422 2256.215899 1897.339748 C 2248.191436 1913.388674 2235.263135 1896.448141 2222.334833 1902.68939 C 2190.236982 1896.448141 2174.188056 1864.35029 2157.247524 1839.385294 C 2140.306991 1822.444761 2125.149672 1850.530381 2117.125209 1858.554844 C 2101.522087 1848.301364 2099.29307 1828.68601 2090.377 1813.528692 C 2046.242454 1859.446451 2026.181297 1927.654385 2033.314153 1995.416516 C 2041.338616 2029.297581 2066.303611 2061.395433 2097.509856 2082.348197 C 2112.221371 2083.685607 2128.270297 2101.517747 2141.198598 2084.577214 C 2125.149672 2059.612219 2113.558782 2024.393743 2129.161904 1995.416516 C 2137.186367 1977.584376 2152.343685 1959.306433 2172.404842 1954.402595 C 2232.14251 1945.486525 2287.422143 1976.692769 2337.352134 2005.669996 C 2391.294357 2027.514367 2430.525064 1982.488215 2474.213806 1966.439289 C 2480.455055 1963.318665 2486.2505 1954.402595 2477.33443 1950.390363 C 2466.189343 1946.378132 2453.261042 1952.619381 2443.453365 1957.523219 C 2412.247121 1961.535451 2381.48668 1979.36759 2349.388828 1969.559913 L 2354.292667 1962.427058 C 2386.390518 1952.619381 2424.283815 1955.294202 2450.140417 1930.329206 C 2452.369435 1923.642154 2449.24881 1918.292512 2443.453365 1914.280281 C 2409.5723 1919.629922 2375.245431 1931.666617 2342.255973 1933.449831 L 2342.255973 1926.316975 C 2377.474448 1915.617691 2418.48837 1910.268049 2453.261042 1894.664927 C 2452.369435 1888.423678 2449.24881 1882.628233 2443.453365 1878.616001 C 2409.5723 1884.411447 2374.353824 1895.556534 2340.472759 1892.43591 L 2340.472759 1882.628233 C 2374.353824 1873.712163 2416.259352 1882.628233 2445.236579 1863.458683 C 2453.261042 1857.663237 2449.24881 1849.638774 2443.453365 1844.289132 L 2359.196505 1849.638774 C 2357.413291 1845.626543 2349.388828 1843.397525 2352.509453 1837.60208 C 2386.390518 1827.3486 2427.404439 1836.710473 2462.177112 1830.469224 L 2469.309968 1825.565386 L 2453.261042 1806.395836 C 2460.393898 1780.539233 2464.406129 1753.34522 2486.2505 1734.621474 C 2490.262732 1758.694862 2496.50398 1782.322447 2513.444513 1801.491997 C 2527.264421 1801.491997 2525.481207 1782.322447 2532.16826 1772.51477 L 2544.204954 1801.491997 C 2556.241648 1798.371373 2550.446203 1780.539233 2558.470666 1772.51477 L 2573.182181 1801.491997 C 2588.3395 1797.479766 2582.544054 1780.539233 2587.447893 1770.285753 L 2604.388425 1796.588159 C 2616.42512 1792.575927 2610.183871 1772.51477 2618.208334 1762.707094 L 2640.498508 1801.491997 C 2645.402347 1780.539233 2647.185561 1756.465845 2657.439041 1738.633705 C 2668.138325 1755.574238 2674.379573 1774.297984 2678.391805 1794.359141 C 2626.232796 1816.649316 2557.133255 1820.661547 2503.191033 1818.43253 L 2496.50398 1822.444761 C 2494.274963 1832.698242 2499.178801 1838.493687 2505.42005 1844.289132 C 2542.42174 1854.542613 2594.134945 1849.638774 2611.521281 1885.303054 C 2598.147176 1879.507608 2584.327268 1871.483145 2570.50736 1875.495377 C 2585.218875 1918.292512 2528.156028 1914.280281 2529.493439 1950.390363 C 2562.482897 1978.475983 2617.316727 1953.510988 2654.318416 1971.343127 C 2689.536892 1981.596608 2659.222255 2017.706691 2661.451272 2036.430437 C 2679.283412 2032.418206 2690.428499 2013.694459 2697.561355 1998.53714 C 2720.297333 1941.474294 2682.404036 1898.677158 2654.318416 1856.325827 C 2656.547434 1841.614312 2674.379573 1844.289132 2685.524661 1844.289132 C 2723.417958 1878.616001 2746.153936 1923.642154 2750.166167 1974.463752 C 2761.311254 2024.393743 2683.295643 2046.683917 2714.501888 2096.613908 C 2725.201172 2152.339345 2721.18894 2219.655672 2671.258949 2252.64513 C 2687.307875 2294.550659 2711.381263 2333.335562 2712.27287 2382.373946 C 2690.428499 2421.604654 2636.486277 2397.531265 2599.484587 2394.410641 C 2547.325578 2452.365095 2454.152649 2374.349484 2412.247121 2451.473488 C 2316.39937 2462.618575 2226.347065 2456.377326 2150.560471 2420.267243 C 2183.54993 2430.520723 2216.539388 2440.3284 2253.541078 2439.436793 C 2256.215899 2435.424562 2263.348755 2433.641348 2261.119737 2427.400099 C 2201.382069 2407.338942 2140.306991 2392.627427 2088.147983 2355.625737 C 2077.448699 2342.697436 2059.170756 2323.527886 2069.424236 2310.599584 C 2102.413694 2338.685204 2140.306991 2356.517344 2179.537698 2372.56627 C 2204.502694 2382.373946 2234.371528 2394.410641 2261.119737 2386.386178 L 2256.215899 2377.470108 C 2203.165283 2341.360025 2142.536008 2319.515654 2100.184677 2262.452807 C 2096.172445 2256.657362 2087.256376 2246.403882 2097.509856 2240.608436 C 2138.523777 2244.620668 2162.151362 2286.526196 2196.478231 2305.695746 C 2216.539388 2313.720209 2238.383759 2329.323331 2258.444916 2322.636279 C 2244.179204 2277.610126 2197.369838 2246.403882 2201.382069 2194.690677 C 2204.502694 2180.424965 2219.214209 2186.666214 2227.238672 2178.641751 C 2290.542768 2193.353266 2370.341592 2202.715139 2429.187653 2170.617288 C 2427.404439 2187.557821 2412.247121 2199.594515 2400.210426 2211.631209 C 2371.233199 2240.608436 2325.31544 2229.463349 2297.22982 2259.332183 C 2292.325981 2268.694056 2284.301519 2281.622357 2299.458837 2288.30941 C 2344.48499 2288.30941 2383.269894 2272.706288 2421.16319 2257.548969 C 2453.261042 2227.680135 2496.50398 2223.667904 2529.493439 2199.594515 C 2531.276653 2177.30434 2504.528443 2177.30434 2493.383356 2168.388271 C 2508.540675 2158.580594 2527.264421 2155.459969 2537.517902 2139.411044 C 2511.215496 2117.566673 2485.358893 2131.386581 2455.490059 2127.374349 C 2450.140417 2115.337655 2477.33443 2110.433817 2477.33443 2096.613908 C 2448.357203 2071.648913 2414.476138 2057.383201 2378.366055 2048.467131 C 2360.533916 2065.407664 2399.318819 2076.552751 2381.48668 2094.384891 C 2343.14758 2085.468821 2321.303208 2119.349887 2287.422143 2110.433817 C 2294.554999 2085.468821 2329.327671 2075.661144 2335.56892 2050.696149 C 2306.14589 2043.563293 2270.48161 2059.612219 2246.408222 2065.407664 L 2297.22982 2014.586066 C 2293.217588 1992.295892 2265.131969 1998.53714 2249.528846 1990.512678 C 2223.22644 1994.524909 2199.153052 2000.320354 2181.320912 2022.610529 C 2151.452078 2045.346507 2162.151362 2085.468821 2160.368148 2120.687297 C 2123.366458 2150.556131 2069.424236 2147.435507 2035.543171 2187.557821 C 2002.553712 2222.330493 2009.240765 2278.501733 2018.156834 2317.286637 C 1995.420856 2286.526196 1993.191839 2240.608436 2001.216302 2202.715139 C 2001.216302 2176.412733 1984.275769 2154.568362 1963.323005 2139.411044 C 1953.515328 2134.507205 1941.478634 2139.411044 1932.562564 2144.314882 C 1926.321315 2177.30434 1918.296852 2212.522816 1893.331857 2235.704598 C 1833.148386 2152.339345 1819.328477 2038.659455 1841.172848 1933.449831 C 1833.148386 1920.521529 1826.461333 1936.570455 1819.328477 1938.353669 C 1753.349561 2039.551062 1771.1817 2199.594515 1836.26901 2295.442266 C 1801.496338 2274.489502 1774.302325 2232.583973 1759.145006 2194.690677 C 1749.337329 2175.521126 1748.445722 2152.339345 1735.517421 2134.507205 C 1728.384565 2132.278188 1725.263941 2138.519437 1721.251709 2142.531668 C 1674.442343 2099.288729 1665.526273 2040.442669 1656.164399 1981.596608 C 1650.368954 1968.668307 1659.285024 1944.594918 1641.452884 1942.365901 C 1606.234408 2070.311503 1633.428421 2214.30603 1730.167779 2307.47896 C 1755.132775 2352.505112 1826.461333 2350.276095 1817.545263 2410.459566 C 1830.473565 2452.365095 1874.162307 2480.450714 1915.176228 2485.354553 C 1897.344088 2516.560797 1936.128992 2539.296775 1946.382472 2559.357932 C 1789.459643 2525.476867 1658.393417 2369.445645 1596.426732 2228.571742 C 1586.173251 2217.426655 1599.547356 2195.582284 1581.269413 2190.678445 C 1551.400579 2305.695746 1588.402269 2417.592422 1644.127705 2509.427941 L 1577.257182 2492.487409 L 1565.220487 2499.620265 C 1571.461736 2524.58526 1594.197714 2541.525793 1605.342801 2564.707574 C 1515.290496 2538.405168 1400.273196 2475.546876 1389.128108 2367.662431 Z M 1925.429708 2485.354553 C 1961.539791 2486.691963 2002.553712 2462.618575 2035.543171 2437.653579 C 2097.509856 2460.389557 2169.284218 2479.559107 2237.492152 2490.704195 C 2148.331454 2538.405168 2011.469782 2544.646417 1925.429708 2485.354553 Z M 240.292511 2463.510182 C 210.423677 2454.594112 182.338057 2426.508492 165.397525 2398.422872 C 153.36083 2379.699125 151.131813 2354.288326 173.421988 2341.360025 C 203.290822 2360.529575 228.255817 2392.627427 266.149114 2391.290016 C 284.427057 2393.519034 290.222502 2412.688584 290.222502 2427.400099 C 277.294201 2443.449025 262.136882 2464.401789 240.292511 2463.510182 Z M 1951.286311 2439.436793 C 1929.44194 2445.678042 1903.139534 2450.581881 1884.415787 2434.532955 C 1865.246237 2418.484029 1870.150075 2392.627427 1867.475254 2370.337252 C 1868.366861 2321.298868 1909.380783 2276.718519 1946.382472 2257.548969 L 1947.719883 2267.802449 C 1955.744346 2310.153781 1922.309084 2348.492881 1944.153455 2384.602964 C 1958.419167 2397.531265 1972.239075 2380.590732 1985.167376 2374.349484 C 1998.541481 2364.541807 2001.216302 2386.386178 2009.240765 2391.290016 C 1993.191839 2411.351173 1973.130682 2430.520723 1951.286311 2439.436793 Z M 377.154183 2370.337252 C 304.488214 2411.351173 323.211961 2295.442266 261.245275 2298.56289 C 258.124651 2281.622357 265.257507 2269.585663 273.28197 2257.548969 C 283.53545 2255.319951 289.330895 2260.669593 297.355358 2262.452807 C 332.12803 2284.297178 376.262576 2320.407261 389.190877 2360.529575 Z M 333.465441 2245.512275 C 322.320354 2230.354956 332.12803 2210.293799 345.502135 2202.715139 C 403.456589 2183.545589 464.531667 2215.643441 528.281567 2211.631209 L 528.281567 2216.535048 C 489.496663 2279.39334 389.190877 2279.39334 333.465441 2245.512275 Z M 2700.236176 1813.528692 C 2699.344569 1773.406377 2678.391805 1737.296295 2652.535202 1712.331299 C 2638.269491 1722.584779 2639.161098 1738.633705 2633.365652 1750.670399 L 2613.304495 1736.404688 C 2602.159408 1741.308526 2607.50905 1755.574238 2599.484587 1760.478076 C 2588.3395 1743.537543 2573.182181 1729.717635 2575.411198 1707.427461 C 2590.568517 1675.329609 2606.171639 1730.609242 2628.461814 1726.597011 C 2643.173329 1702.523622 2640.498508 1661.509701 2630.245028 1635.653099 C 2646.293954 1630.303457 2641.390115 1617.375155 2642.281722 1602.66364 C 2679.283412 1584.385697 2722.526351 1581.710876 2753.286791 1549.613025 C 2746.153936 1527.32285 2712.27287 1534.455706 2697.561355 1522.419012 C 2736.346259 1516.623566 2789.396874 1520.635798 2803.216782 1482.296698 C 2801.433569 1466.693575 2786.27625 1467.585182 2777.36018 1474.718038 C 2756.407416 1479.621877 2729.213403 1479.621877 2719.405726 1458.669113 C 2714.501888 1442.620187 2717.176709 1423.450637 2731.44242 1412.305549 C 2756.407416 1383.328323 2799.204551 1390.461178 2834.423027 1393.581803 C 2853.146773 1371.291628 2839.326865 1340.531187 2846.459721 1311.55396 C 2870.53311 1249.587275 2968.164074 1232.646742 2954.344166 1153.293721 C 2967.272467 1141.70283 2985.55041 1135.461581 3002.490943 1141.70283 C 2981.538179 1178.70452 2959.248004 1214.368799 2961.477022 1261.623969 C 2964.151843 1284.359947 2986.442017 1295.505035 3002.490943 1311.55396 C 3008.286388 1328.494493 2993.12907 1326.711279 2985.55041 1335.627349 C 2986.442017 1344.543419 2989.562642 1352.567882 2995.358087 1359.700737 C 3003.38255 1376.64127 3001.153533 1400.268855 2988.225231 1414.534567 C 2983.321393 1428.354475 2985.55041 1445.295008 2995.358087 1455.548488 C 3014.527637 1476.501252 3047.517096 1471.597414 3072.482091 1472.489021 C 3075.156912 1480.513484 3067.132449 1481.405091 3062.228611 1484.525715 C 3015.419244 1491.658571 2971.284699 1468.476789 2942.307472 1429.691886 C 2901.293551 1447.524025 2912.438638 1493.441785 2913.330245 1532.672492 C 2903.522568 1561.649719 2864.291861 1562.541326 2837.543651 1570.565789 C 2825.506957 1576.361234 2802.325175 1575.469627 2805.4458 1594.639177 C 2829.519188 1618.712566 2868.304092 1611.57971 2894.160695 1633.424081 L 2889.256856 1640.556937 C 2848.242935 1644.569168 2799.204551 1652.593631 2760.419647 1642.340151 C 2756.407416 1647.689793 2749.27456 1651.702024 2748.382953 1657.49747 C 2748.382953 1678.450234 2773.347949 1682.462465 2784.493036 1693.607552 L 2769.335717 1712.331299 C 2794.300713 1727.488618 2824.169547 1714.560316 2851.36356 1714.560316 C 2834.423027 1747.549775 2793.409106 1740.416919 2765.323486 1741.308526 C 2742.141704 1739.525312 2727.430189 1709.656478 2705.140014 1722.584779 C 2714.501888 1748.441382 2732.334027 1771.623163 2726.538582 1803.721015 C 2725.201172 1817.540923 2710.489656 1820.661547 2700.236176 1813.528692 Z M 2393.523374 1750.670399 C 2374.353824 1746.658168 2352.509453 1780.539233 2337.352134 1758.694862 C 2336.460527 1724.367993 2374.353824 1725.705404 2393.523374 1710.548085 L 2419.379977 1746.658168 L 2441.224348 1726.597011 C 2441.224348 1742.645936 2426.512832 1750.670399 2419.379977 1762.707094 Z M 2421.16319 1722.584779 C 2405.560068 1702.523622 2403.331051 1677.558627 2405.560068 1650.364614 C 2472.430592 1662.401308 2550.446203 1657.49747 2613.304495 1638.327919 C 2618.208334 1657.49747 2626.232796 1683.354072 2616.42512 1700.294605 C 2600.376194 1687.366304 2595.472356 1665.521932 2577.194412 1657.49747 C 2570.50736 1665.521932 2572.290574 1677.558627 2565.157718 1686.474697 C 2560.25388 1678.450234 2554.458434 1670.425771 2549.554596 1662.401308 C 2537.517902 1663.292915 2541.530133 1679.341841 2537.517902 1688.703714 L 2513.444513 1659.280684 C 2506.311657 1670.425771 2506.311657 1683.354072 2498.287194 1693.607552 L 2481.346662 1662.401308 C 2467.526754 1670.425771 2472.430592 1692.715945 2457.273273 1700.294605 C 2451.477828 1688.703714 2452.369435 1671.317378 2438.549527 1664.630325 C 2433.199885 1683.354072 2431.416671 1704.306836 2421.16319 1722.584779 Z M 3036.372008 1448.415632 C 3028.347546 1444.403401 3015.419244 1441.282776 3017.202458 1429.691886 C 3031.46817 1401.606266 3024.335314 1374.412253 3019.431476 1347.664043 C 3036.372008 1351.676275 3051.529327 1358.363327 3065.349235 1369.508414 C 3076.494323 1386.448947 3091.205838 1401.606266 3089.422624 1424.342244 C 3083.181375 1446.632418 3055.541559 1451.536257 3036.372008 1448.415632 Z M 3122.412082 1436.378938 C 3114.387619 1400.268855 3160.305379 1401.606266 3177.245912 1378.424484 L 3173.23368 1405.618497 C 3160.305379 1421.667423 3142.473239 1441.282776 3122.412082 1436.378938 Z M 2196.478231 1383.328323 C 2187.562161 1380.653502 2193.357606 1370.400021 2191.128589 1364.604576 C 2199.153052 1351.676275 2202.273676 1316.457799 2227.238672 1330.277707 C 2248.191436 1337.410563 2276.277056 1347.664043 2282.518305 1364.604576 C 2255.324292 1375.30386 2225.455458 1378.424484 2196.478231 1383.328323 Z M 3137.123597 1381.545109 C 3120.183065 1379.316091 3120.183065 1358.363327 3122.412082 1347.664043 C 3118.399851 1326.711279 3094.326462 1309.324943 3077.38593 1306.650122 C 3079.169144 1302.637891 3083.181375 1302.637891 3086.301999 1299.517266 C 3107.254763 1287.480572 3140.244222 1290.601196 3158.522165 1306.650122 C 3174.571091 1319.578423 3179.474929 1339.63958 3173.23368 1357.47172 C 3167.438235 1371.291628 3153.172523 1382.436716 3137.123597 1381.545109 Z M 3098.338694 1376.64127 L 3077.38593 1345.435026 C 3078.277537 1340.531187 3083.181375 1336.518956 3089.422624 1338.30217 C 3095.218069 1347.664043 3106.363157 1364.604576 3098.338694 1376.64127 Z M 2201.382069 1292.38441 C 2192.465999 1283.46834 2186.224751 1272.323253 2189.345375 1258.503345 C 2193.357606 1251.370489 2201.382069 1239.333795 2213.418764 1244.683437 C 2243.287597 1249.587275 2283.409912 1258.503345 2289.205357 1294.613428 C 2262.457148 1284.359947 2229.467689 1283.46834 2201.382069 1292.38441 Z M 3168.329842 1268.311022 C 3140.244222 1295.505035 3144.256453 1251.370489 3127.315921 1242.454419 C 3117.508244 1234.429956 3101.459318 1229.526118 3096.55548 1220.610048 C 3112.158602 1210.356568 3133.557169 1204.561123 3153.172523 1210.356568 C 3170.558859 1215.70621 3185.270374 1232.646742 3182.14975 1251.370489 Z M 2241.504383 1201.440498 C 2216.539388 1195.645053 2193.357606 1225.513887 2174.188056 1206.344336 C 2173.296449 1191.632821 2164.38038 1175.583896 2174.188056 1162.655594 C 2191.128589 1164.438808 2211.189746 1158.643363 2225.455458 1167.559433 C 2239.275366 1175.583896 2258.444916 1188.512197 2263.348755 1206.344336 C 2256.215899 1203.669516 2250.420453 1200.548891 2241.504383 1201.440498 Z M 1802.387945 1208.573354 C 1846.52249 1186.283179 1888.428018 1152.402114 1937.466402 1150.6189 L 1893.331857 1194.307642 C 1860.342398 1190.295411 1832.256779 1202.332105 1802.387945 1208.573354 Z M 3125.532707 1153.293721 C 3115.279226 1144.377651 3092.543248 1148.389883 3093.434855 1134.569974 C 3109.483781 1110.496586 3137.123597 1110.496586 3161.196986 1114.508817 C 3174.571091 1121.641673 3190.174213 1135.461581 3187.499392 1153.293721 C 3180.366536 1186.283179 3139.352615 1183.608358 3125.532707 1153.293721 Z M 2969.501485 1119.412656 C 2983.321393 1089.543822 3017.202458 1078.398734 3050.191917 1078.398734 C 3060.445397 1087.314804 3079.169144 1087.314804 3072.482091 1107.375961 C 3051.529327 1165.330415 3005.165764 1097.568285 2969.501485 1119.412656 Z M 2153.235292 1126.545512 C 2141.198598 1120.304263 2134.511546 1108.713372 2133.174135 1095.339267 C 2151.452078 1080.627752 2180.429305 1084.639983 2201.382069 1083.302573 C 2218.322602 1088.652215 2237.492152 1102.472123 2239.275366 1117.629442 C 2210.298139 1100.688909 2179.537698 1113.61721 2153.235292 1126.545512 Z M 2095.280838 1059.674988 C 2092.160214 1050.313115 2084.135751 1032.480975 2097.509856 1028.468743 C 2128.270297 1025.348119 2167.501004 1029.36035 2184.441537 1057.44597 C 2148.331454 1043.626062 2121.137441 1105.592747 2095.280838 1059.674988 Z M 1548.279955 2487.58357 C 1418.551139 2350.276095 1454.215418 2104.638371 1526.435584 1952.619381 C 1537.134867 1971.343127 1536.24326 1998.53714 1536.24326 2019.489905 C 1520.194335 2110.87962 1510.832461 2193.353266 1533.122636 2288.30941 C 1543.376116 2325.3111 1569.232719 2355.625737 1569.232719 2396.639658 C 1534.460046 2412.688584 1557.196024 2460.389557 1550.508972 2487.58357 Z M 2402.439444 2389.506802 C 2352.509453 2404.664121 2305.254283 2385.494571 2270.48161 2350.276095 C 2270.48161 2345.372257 2271.373217 2341.360025 2275.385449 2338.685204 C 2320.411601 2359.637968 2388.173732 2361.421182 2433.199885 2346.709667 C 2436.320509 2352.505112 2429.187653 2355.625737 2429.187653 2360.529575 Z M 2465.297736 2389.506802 L 2460.393898 2374.349484 C 2475.551216 2353.396719 2489.371125 2326.64851 2513.444513 2314.611816 C 2535.288884 2354.288326 2583.435661 2321.298868 2613.304495 2324.419493 C 2583.435661 2376.578501 2520.131566 2381.482339 2465.297736 2389.506802 Z M 2695.332338 2384.602964 C 2669.475735 2380.590732 2654.318416 2346.709667 2625.341189 2355.625737 C 2627.124403 2324.419493 2658.330648 2304.358335 2664.571897 2274.489502 C 2687.307875 2297.671283 2693.549124 2335.56458 2700.236176 2370.337252 Z M 2318.182584 2329.323331 C 2305.254283 2322.636279 2283.409912 2321.298868 2280.289287 2305.695746 C 2324.423833 2293.659052 2396.198195 2313.720209 2431.416671 2269.585663 C 2445.236579 2265.573432 2464.406129 2254.428344 2477.33443 2269.585663 C 2457.273273 2339.576811 2377.474448 2323.527886 2318.182584 2329.323331 Z M 2517.456745 2300.346104 C 2509.432282 2276.718519 2539.301116 2261.5612 2551.33781 2245.512275 C 2571.398967 2242.39165 2592.351731 2226.342724 2611.521281 2235.704598 C 2611.521281 2255.319951 2587.447893 2243.283257 2582.544054 2257.548969 L 2585.218875 2259.332183 C 2620.437351 2266.465039 2640.498508 2230.354956 2666.355111 2218.318262 C 2678.391805 2243.283257 2651.197792 2262.452807 2640.498508 2283.405571 C 2603.496818 2300.346104 2557.133255 2312.382798 2517.456745 2300.346104 Z M 1147.502616 2283.405571 C 1133.236904 2273.597895 1135.465922 2247.295489 1130.562083 2228.571742 C 1115.404765 2089.481053 1125.212441 1940.582687 1214.37314 1837.60208 C 1276.339825 1856.325827 1301.30482 1771.623163 1356.13865 1765.381915 C 1305.762855 1881.736626 1249.591615 1995.416516 1214.37314 2120.687297 C 1205.45707 2147.435507 1206.348677 2179.533358 1193.420376 2204.498353 C 1151.514847 2203.606746 1163.551542 2249.524506 1154.189668 2274.489502 Z M 2561.145487 2221.438886 C 2571.398967 2196.473891 2586.556286 2174.629519 2606.171639 2154.568362 C 2619.545744 2133.615598 2607.50905 2097.505515 2635.148866 2086.360428 C 2637.377884 2106.867389 2653.426809 2103.300961 2671.258949 2113.554441 C 2679.283412 2120.687297 2665.909307 2122.916314 2662.788683 2129.157563 C 2667.692521 2134.953009 2663.234486 2147.435507 2673.487967 2151.447738 C 2687.307875 2146.5439 2676.162787 2120.687297 2683.295643 2110.433817 L 2688.199482 2115.337655 C 2714.501888 2141.640061 2691.320106 2170.617288 2683.295643 2197.365498 C 2662.342879 2208.510585 2652.535202 2180.424965 2630.245028 2187.557821 C 2621.328958 2216.535048 2584.327268 2210.293799 2561.145487 2221.438886 Z M 1889.319625 2158.580594 C 1844.293473 2029.297581 1875.499717 1878.616001 1927.212922 1762.707094 L 1934.345778 1762.707094 C 1936.128992 1815.311906 1952.177918 1871.483145 2004.336926 1894.664927 C 1995.420856 1951.28197 1998.541481 2016.36928 2011.469782 2070.311503 C 2013.252996 2091.71007 2037.326385 2107.313192 2028.410315 2130.494974 C 2003.445319 2122.470511 1989.179607 2095.276498 1956.190149 2103.300961 C 1928.550333 2109.54221 1903.139534 2137.62783 1889.319625 2158.580594 Z M 2409.5723 2019.489905 C 2431.862474 1997.645533 2479.563448 1972.680538 2520.131566 1974.463752 C 2525.481207 1984.717232 2522.360583 1997.645533 2517.456745 2007.45321 C 2480.455055 2000.320354 2442.561758 2008.344817 2409.5723 2019.489905 Z M 2515.227727 1942.365901 C 2511.215496 1921.413136 2517.456745 1906.701621 2530.385046 1892.43591 C 2539.301116 1884.411447 2548.217185 1893.327516 2556.241648 1897.339748 C 2550.446203 1917.400905 2531.276653 1932.558224 2515.227727 1942.365901 Z M 2515.227727 1942.365901 " transform="matrix(0.00876227,0,0,-0.00876227,3.249961,25.000001)"/>
<path style=" stroke:none;fill-rule:nonzero;fill:rgb(100%,100%,100%);fill-opacity:1;" d="M 23.757812 6.105469 C 23.714844 6.191406 23.71875 6.335938 23.824219 6.371094 L 23.96875 6.210938 C 23.976562 6.21875 23.96875 6.429688 23.816406 6.375 C 23.757812 6.402344 23.714844 6.332031 23.695312 6.296875 L 23.714844 6.105469 L 23.757812 6.105469 "/>
<path style=" stroke:none;fill-rule:nonzero;fill:rgb(100%,100%,100%);fill-opacity:1;" d="M 23.535156 6.285156 C 23.5 6.273438 23.484375 6.261719 23.457031 6.226562 L 23.519531 6.164062 C 23.5625 6.191406 23.523438 6.25 23.535156 6.285156 "/>
<path style=" stroke:none;fill-rule:nonzero;fill:rgb(100%,100%,100%);fill-opacity:1;" d="M 26.445312 6.316406 L 26.492188 6.210938 L 26.492188 6.316406 L 26.445312 6.316406 "/>
<path style=" stroke:none;fill-rule:nonzero;fill:rgb(100%,100%,100%);fill-opacity:1;" d="M 26.402344 6.332031 C 26.339844 6.339844 26.367188 6.269531 26.359375 6.226562 L 26.402344 6.332031 "/>
<path style=" stroke:none;fill-rule:nonzero;fill:rgb(100%,100%,100%);fill-opacity:1;" d="M 24.226562 6.371094 L 24.195312 6.402344 C 24.140625 6.375 24.203125 6.316406 24.222656 6.269531 C 24.257812 6.269531 24.214844 6.34375 24.226562 6.371094 "/>
<path style=" stroke:none;fill-rule:nonzero;fill:rgb(100%,100%,100%);fill-opacity:1;" d="M 9.183594 6.714844 L 13.742188 14.769531 L 13.785156 14.8125 C 14.347656 13.824219 14.863281 12.816406 15.40625 11.824219 L 15.574219 12.246094 C 15.019531 13.394531 14.347656 14.488281 13.722656 15.609375 L 8.929688 7.175781 L 5.46875 7.175781 L 5.46875 10.007812 L 6.625 10.007812 L 6.625 20.683594 L 5.460938 20.683594 L 5.464844 23.511719 L 10.867188 23.511719 L 10.867188 20.683594 L 9.578125 20.683594 L 9.578125 14.113281 L 13.679688 21.035156 L 16.753906 15.734375 L 17.847656 13.796875 L 17.847656 20.683594 L 16.574219 20.683594 L 16.574219 23.511719 L 21.941406 23.511719 L 21.941406 20.683594 L 20.726562 20.683594 L 20.726562 15.460938 L 21.128906 15.898438 L 21.128906 20.320312 L 22.335938 20.320312 L 22.335938 23.929688 L 16.1875 23.929688 L 16.1875 20.320312 L 17.386719 20.320312 L 17.386719 15.480469 L 13.679688 21.921875 L 9.992188 15.628906 L 9.988281 20.320312 L 11.253906 20.320312 L 11.253906 23.929688 L 5.046875 23.929688 L 5.046875 20.320312 L 6.222656 20.320312 L 6.222656 10.394531 L 5.046875 10.394531 L 5.046875 6.714844 L 9.183594 6.714844 "/>
<path style=" stroke:none;fill-rule:nonzero;fill:rgb(100%,100%,100%);fill-opacity:1;" d="M 21.128906 11.0625 C 21.03125 11.039062 20.980469 11.117188 20.917969 11.167969 C 20.671875 11.371094 20.679688 11.722656 20.75 11.992188 C 20.847656 12.125 20.917969 12.402344 21.128906 12.351562 L 21.128906 11.0625 "/>
<path style=" stroke:none;fill-rule:nonzero;fill:rgb(0%,0%,0%);fill-opacity:1;" d="M 24.6875 23.59375 L 24.792969 23.59375 C 24.878906 23.589844 24.976562 23.597656 24.976562 23.699219 C 24.976562 23.804688 24.878906 23.8125 24.792969 23.8125 L 24.6875 23.8125 Z M 24.542969 24.253906 L 24.6875 24.253906 L 24.6875 23.933594 L 24.792969 23.933594 L 24.988281 24.253906 L 25.136719 24.253906 L 24.933594 23.921875 C 25.039062 23.910156 25.121094 23.84375 25.121094 23.707031 C 25.121094 23.554688 25.035156 23.472656 24.847656 23.472656 L 24.542969 23.472656 Z M 24.121094 23.867188 C 24.121094 24.242188 24.429688 24.550781 24.808594 24.550781 C 25.183594 24.550781 25.492188 24.242188 25.492188 23.867188 C 25.492188 23.488281 25.183594 23.183594 24.808594 23.183594 C 24.429688 23.183594 24.121094 23.488281 24.121094 23.867188 Z M 24.242188 23.867188 C 24.242188 23.554688 24.496094 23.304688 24.808594 23.304688 C 25.117188 23.304688 25.371094 23.554688 25.371094 23.867188 C 25.371094 24.175781 25.117188 24.429688 24.808594 24.429688 C 24.496094 24.429688 24.242188 24.175781 24.242188 23.867188 "/>
</g>
</svg>
