<?xml version="1.0" encoding="UTF-8"?>
<svg xmlns="http://www.w3.org/2000/svg" xmlns:xlink="http://www.w3.org/1999/xlink" width="35pt" height="25pt" viewBox="0 0 35 25" version="1.1">
<defs>
<clipPath id="clip1">
  <path d="M 0 3.15625 L 35 3.15625 L 35 22 L 0 22 Z M 0 3.15625 "/>
</clipPath>
</defs>
<g id="surface1">
<g clip-path="url(#clip1)" clip-rule="nonzero">
<path style=" stroke:none;fill-rule:nonzero;fill:rgb(89.019608%,9.803922%,21.568627%);fill-opacity:1;" d="M 34.871094 11.472656 C 34.996094 11.652344 34.949219 11.683594 34.960938 11.875 C 34.972656 12.136719 34.683594 12.179688 34.496094 12.574219 C 34.394531 12.789062 34.320312 12.910156 34.082031 12.980469 C 33.839844 13.050781 33.238281 12.902344 32.992188 12.636719 C 32.742188 12.367188 32.933594 12.027344 32.816406 11.8125 C 32.542969 11.320312 32.058594 11.132812 31.855469 10.949219 C 31.648438 10.765625 31.417969 10.699219 31.125 10.625 C 30.3125 10.421875 30.207031 9.992188 29.917969 9.582031 C 29.625 9.175781 29.449219 9.246094 29.347656 9.269531 C 28.085938 9.582031 26.59375 10.152344 25.90625 10.578125 C 24.742188 11.289062 24.257812 12.109375 24.03125 13.390625 C 24.597656 14.3125 24.355469 14.601562 24.335938 14.96875 C 24.285156 15.945312 24.667969 16.433594 24.753906 16.679688 C 24.84375 16.921875 24.835938 17.039062 24.710938 17.175781 C 24.589844 17.3125 24.425781 17.574219 24.230469 17.757812 C 24.03125 17.9375 23.84375 17.855469 23.652344 17.804688 C 22.652344 17.550781 21.839844 17.445312 20.859375 17.402344 C 20.199219 17.375 19.597656 18.027344 19.429688 18.207031 C 19.261719 18.390625 19.511719 18.503906 19.648438 18.59375 C 20.027344 18.847656 20.1875 19.152344 20.511719 19.296875 C 20.839844 19.441406 21.132812 19.539062 21.300781 19.875 C 21.417969 20.121094 21.261719 20.328125 21.140625 20.425781 C 21.296875 20.515625 21.660156 20.800781 21.824219 20.953125 C 21.992188 21.105469 22.027344 21.421875 21.796875 21.496094 C 21.566406 21.566406 21.167969 21.679688 20.933594 21.707031 C 20.644531 21.742188 20.617188 21.550781 20.558594 21.464844 C 20.304688 21.097656 19.757812 20.53125 19.285156 20.414062 C 18.4375 20.210938 18.394531 19.761719 17.84375 19.269531 C 17.527344 18.984375 17.480469 19.222656 17.089844 19.535156 C 16.335938 20.140625 16.308594 19.65625 15.636719 20.070312 C 14.53125 20.753906 14.492188 20.328125 14.550781 20.148438 C 14.609375 19.972656 14.746094 19.699219 15.007812 19.15625 C 15.304688 18.546875 15.765625 19.070312 16.152344 18.722656 C 16.453125 18.453125 16.675781 18.082031 16.675781 18.082031 C 16.132812 17.515625 15.996094 17.804688 14.933594 17.753906 C 13.941406 17.710938 13.894531 17.367188 13.667969 16.675781 C 13.085938 14.894531 12.097656 14.472656 10.707031 13.550781 C 9.539062 12.78125 10.039062 12.390625 9.335938 11.710938 C 8.972656 11.363281 8.96875 11.140625 8.894531 10.761719 C 8.820312 10.382812 8.761719 10.382812 8.421875 10.332031 C 8.085938 10.285156 6.78125 10.148438 6.113281 9.566406 C 5.390625 8.9375 5.378906 9.1875 4.53125 9.230469 C 1.777344 9.363281 0.09375 7.4375 0.0429688 6.4375 C 0.015625 5.894531 0.296875 5.773438 0.585938 6.042969 C 0.871094 6.3125 1.710938 6.9375 2.984375 7.078125 C 4.695312 7.261719 5.308594 6.804688 5.835938 6.898438 C 6.875 7.085938 6.824219 7.542969 7.40625 8.429688 C 7.742188 8.941406 9.789062 8.0625 10.070312 7.917969 C 11.367188 7.253906 12.824219 6.382812 15.246094 6.761719 C 18.058594 7.199219 20.148438 6.695312 21.214844 6.3125 C 22.039062 6.019531 21.628906 5.953125 21.4375 5.8125 C 21.246094 5.671875 20.65625 5.246094 20.777344 4.988281 C 20.960938 4.609375 23.070312 5.753906 23.398438 5.347656 C 23.554688 5.15625 21.953125 4.363281 22.332031 3.898438 C 22.710938 3.441406 23.21875 4.382812 24.519531 4.746094 C 25.257812 4.953125 25.515625 5.042969 25.613281 4.921875 C 25.804688 4.679688 25.421875 4.507812 25.617188 4.332031 C 25.875 4.101562 26.582031 4.632812 27.203125 4.90625 C 27.855469 5.195312 27.160156 4.125 28.300781 4.910156 C 29.148438 5.488281 29.722656 5.566406 30.351562 5.570312 C 30.757812 5.574219 30.609375 5.441406 30.667969 5.144531 C 30.722656 4.847656 30.890625 3.988281 31.105469 3.847656 C 31.527344 3.570312 31.597656 4.519531 31.726562 5.210938 C 31.855469 5.902344 32.152344 6.390625 32.914062 7.070312 C 33.503906 7.59375 33.425781 7.953125 33.582031 8.46875 C 33.847656 9.351562 34.105469 10.378906 34.871094 11.472656 M 18.917969 15.488281 C 18.96875 15.773438 19.253906 15.800781 19.535156 15.800781 C 19.898438 15.324219 20.089844 14.890625 20.191406 14.597656 C 20.136719 14.476562 20.035156 14.15625 19.96875 13.984375 C 19.90625 13.816406 19.722656 13.890625 19.539062 13.925781 C 18.234375 14.152344 16.863281 13.214844 15.746094 13.03125 C 15.335938 12.960938 15.421875 13.203125 15.476562 13.464844 C 15.527344 13.726562 15.871094 15.007812 16.148438 15.671875 C 16.371094 16.199219 16.828125 16.382812 17.363281 16.476562 C 18.023438 16.59375 18.183594 17.015625 18.519531 17.1875 C 18.660156 17.09375 18.828125 16.902344 18.882812 16.761719 C 18.816406 16.542969 18.613281 16.535156 18.367188 16.449219 C 17.933594 16.296875 17.828125 16.113281 17.632812 15.972656 C 17.035156 15.542969 17.175781 15.207031 17.5 15.234375 C 17.828125 15.257812 18.421875 15.257812 18.613281 15.230469 C 18.769531 15.207031 18.867188 15.207031 18.917969 15.488281 M 22.183594 15.175781 C 21.992188 15.460938 21.578125 16.085938 21.5 16.230469 C 21.425781 16.371094 21.28125 16.59375 21.699219 16.640625 C 22.113281 16.6875 22.675781 16.761719 22.902344 16.722656 C 23.152344 16.675781 23.335938 16.566406 23.164062 16.25 C 23.035156 16.015625 22.558594 15.289062 22.492188 15.195312 C 22.421875 15.105469 22.316406 14.972656 22.183594 15.175781 "/>
<path style=" stroke:none;fill-rule:nonzero;fill:rgb(89.019608%,9.803922%,21.568627%);fill-opacity:1;" d="M 20.867188 21.75 C 20.613281 21.753906 20.566406 21.546875 20.523438 21.488281 C 20.273438 21.125 19.730469 20.5625 19.273438 20.453125 C 18.410156 20.246094 18.355469 19.78125 17.816406 19.300781 C 17.71875 19.210938 17.65625 19.179688 17.605469 19.179688 C 17.5 19.171875 17.386719 19.34375 17.117188 19.566406 C 16.34375 20.183594 16.296875 19.699219 15.660156 20.101562 C 15.199219 20.386719 14.921875 20.484375 14.746094 20.484375 C 14.558594 20.484375 14.492188 20.355469 14.492188 20.25 C 14.492188 20.207031 14.5 20.167969 14.511719 20.136719 C 14.570312 19.953125 14.710938 19.679688 14.972656 19.140625 C 15.105469 18.855469 15.296875 18.792969 15.476562 18.796875 C 15.578125 18.796875 15.679688 18.8125 15.777344 18.8125 C 15.902344 18.8125 16.015625 18.789062 16.125 18.691406 C 16.371094 18.472656 16.566406 18.175781 16.625 18.089844 C 16.355469 17.816406 16.207031 17.765625 15.96875 17.761719 C 15.785156 17.761719 15.546875 17.800781 15.183594 17.800781 C 15.105469 17.800781 15.019531 17.796875 14.929688 17.796875 C 13.929688 17.757812 13.84375 17.375 13.628906 16.6875 C 13.050781 14.917969 12.082031 14.511719 10.683594 13.585938 C 9.5 12.804688 9.992188 12.394531 9.304688 11.742188 C 8.9375 11.386719 8.925781 11.140625 8.851562 10.769531 C 8.769531 10.394531 8.761719 10.433594 8.417969 10.375 C 8.078125 10.324219 6.773438 10.191406 6.085938 9.597656 C 5.703125 9.261719 5.53125 9.1875 5.328125 9.1875 C 5.148438 9.1875 4.929688 9.25 4.53125 9.269531 C 4.441406 9.273438 4.351562 9.277344 4.261719 9.277344 C 1.648438 9.273438 0.0546875 7.441406 0.00390625 6.441406 C 0 6.414062 0 6.390625 0 6.367188 C 0 6.050781 0.117188 5.863281 0.304688 5.863281 C 0.40625 5.863281 0.507812 5.917969 0.613281 6.011719 C 0.894531 6.277344 1.726562 6.902344 2.988281 7.035156 C 3.277344 7.066406 3.539062 7.082031 3.769531 7.082031 C 4.765625 7.082031 5.257812 6.84375 5.679688 6.84375 C 5.734375 6.84375 5.789062 6.847656 5.84375 6.859375 C 6.898438 7.046875 6.867188 7.535156 7.441406 8.40625 C 7.5 8.503906 7.640625 8.546875 7.84375 8.546875 C 8.542969 8.550781 9.835938 7.992188 10.050781 7.878906 C 11.128906 7.328125 12.328125 6.628906 14.105469 6.628906 C 14.464844 6.628906 14.84375 6.65625 15.253906 6.71875 C 16.023438 6.839844 16.742188 6.886719 17.398438 6.886719 C 19.125 6.886719 20.429688 6.550781 21.203125 6.273438 C 21.578125 6.144531 21.675781 6.046875 21.667969 6.023438 C 21.6875 5.996094 21.527344 5.921875 21.414062 5.847656 C 21.242188 5.710938 20.730469 5.367188 20.722656 5.066406 C 20.722656 5.035156 20.726562 5 20.742188 4.972656 C 20.78125 4.894531 20.871094 4.871094 20.972656 4.871094 C 21.457031 4.871094 22.597656 5.394531 23.132812 5.394531 C 23.25 5.394531 23.328125 5.367188 23.367188 5.320312 L 23.367188 5.316406 C 23.382812 5.261719 23.101562 5.03125 22.816406 4.804688 C 22.53125 4.570312 22.238281 4.3125 22.230469 4.058594 C 22.230469 3.992188 22.253906 3.929688 22.300781 3.875 C 22.375 3.78125 22.464844 3.734375 22.5625 3.734375 C 22.96875 3.746094 23.480469 4.417969 24.527344 4.707031 C 25.042969 4.847656 25.324219 4.9375 25.46875 4.9375 C 25.53125 4.933594 25.558594 4.921875 25.578125 4.898438 C 25.617188 4.851562 25.625 4.8125 25.625 4.777344 C 25.632812 4.675781 25.523438 4.574219 25.515625 4.445312 C 25.515625 4.398438 25.539062 4.34375 25.589844 4.304688 C 25.640625 4.253906 25.710938 4.234375 25.785156 4.234375 C 26.140625 4.242188 26.707031 4.644531 27.21875 4.867188 C 27.296875 4.902344 27.351562 4.917969 27.386719 4.917969 C 27.550781 4.949219 27.429688 4.609375 27.707031 4.574219 C 27.828125 4.578125 28.003906 4.65625 28.324219 4.875 C 29.167969 5.449219 29.726562 5.523438 30.351562 5.53125 C 30.355469 5.53125 30.359375 5.53125 30.367188 5.53125 C 30.5625 5.527344 30.589844 5.5 30.601562 5.457031 C 30.617188 5.402344 30.597656 5.289062 30.625 5.136719 C 30.6875 4.835938 30.839844 3.988281 31.082031 3.816406 C 31.140625 3.777344 31.191406 3.757812 31.246094 3.757812 C 31.613281 3.789062 31.640625 4.601562 31.765625 5.203125 C 31.894531 5.886719 32.179688 6.363281 32.941406 7.042969 C 33.539062 7.570312 33.46875 7.953125 33.621094 8.457031 C 33.886719 9.339844 34.144531 10.363281 34.90625 11.449219 L 34.871094 11.472656 L 34.839844 11.496094 C 34.066406 10.398438 33.808594 9.363281 33.542969 8.480469 C 33.386719 7.949219 33.464844 7.617188 32.886719 7.101562 C 32.121094 6.421875 31.816406 5.917969 31.6875 5.21875 C 31.582031 4.605469 31.476562 3.808594 31.246094 3.839844 C 31.210938 3.839844 31.175781 3.851562 31.128906 3.882812 C 30.945312 3.992188 30.757812 4.859375 30.707031 5.152344 C 30.664062 5.40625 30.777344 5.625 30.367188 5.613281 C 30.363281 5.613281 30.355469 5.613281 30.347656 5.613281 C 29.71875 5.605469 29.128906 5.527344 28.277344 4.941406 C 27.964844 4.726562 27.789062 4.65625 27.707031 4.65625 C 27.542969 4.621094 27.660156 4.964844 27.386719 5 C 27.335938 4.996094 27.269531 4.980469 27.183594 4.945312 C 26.667969 4.710938 26.085938 4.3125 25.785156 4.316406 C 25.722656 4.316406 25.679688 4.332031 25.640625 4.363281 C 25.605469 4.394531 25.601562 4.417969 25.597656 4.445312 C 25.59375 4.519531 25.703125 4.628906 25.707031 4.777344 C 25.707031 4.832031 25.691406 4.890625 25.644531 4.949219 C 25.605469 4.996094 25.542969 5.015625 25.46875 5.015625 C 25.300781 5.015625 25.019531 4.925781 24.507812 4.785156 C 23.445312 4.484375 22.886719 3.804688 22.5625 3.816406 C 22.492188 3.816406 22.429688 3.84375 22.363281 3.925781 C 22.328125 3.96875 22.3125 4.011719 22.3125 4.058594 C 22.308594 4.246094 22.582031 4.511719 22.867188 4.742188 C 23.148438 4.984375 23.433594 5.160156 23.449219 5.316406 C 23.449219 5.335938 23.441406 5.355469 23.429688 5.371094 C 23.363281 5.449219 23.257812 5.472656 23.132812 5.476562 C 22.5625 5.472656 21.417969 4.949219 20.972656 4.953125 C 20.878906 4.953125 20.828125 4.972656 20.816406 5.007812 C 20.804688 5.023438 20.800781 5.042969 20.800781 5.066406 C 20.792969 5.277344 21.285156 5.660156 21.460938 5.78125 C 21.554688 5.859375 21.730469 5.890625 21.75 6.023438 C 21.734375 6.140625 21.605469 6.210938 21.230469 6.351562 C 20.453125 6.628906 19.136719 6.96875 17.398438 6.96875 C 16.738281 6.96875 16.015625 6.921875 15.242188 6.800781 C 14.835938 6.734375 14.460938 6.707031 14.105469 6.707031 C 12.351562 6.707031 11.171875 7.402344 10.089844 7.953125 C 9.863281 8.066406 8.578125 8.628906 7.84375 8.628906 C 7.632812 8.628906 7.460938 8.585938 7.371094 8.453125 C 6.78125 7.550781 6.847656 7.125 5.828125 6.9375 C 5.78125 6.929688 5.730469 6.925781 5.679688 6.925781 C 5.289062 6.925781 4.777344 7.160156 3.769531 7.160156 C 3.535156 7.160156 3.273438 7.148438 2.980469 7.117188 C 1.695312 6.976562 0.847656 6.347656 0.554688 6.074219 C 0.460938 5.984375 0.375 5.945312 0.304688 5.945312 C 0.1875 5.945312 0.0820312 6.0625 0.0820312 6.367188 C 0.0820312 6.386719 0.0820312 6.410156 0.0820312 6.4375 C 0.125 7.371094 1.6875 9.199219 4.261719 9.195312 C 4.347656 9.195312 4.4375 9.195312 4.527344 9.1875 C 4.917969 9.171875 5.128906 9.105469 5.328125 9.105469 C 5.558594 9.105469 5.753906 9.199219 6.140625 9.535156 C 6.792969 10.105469 8.089844 10.242188 8.429688 10.292969 C 8.761719 10.332031 8.871094 10.371094 8.933594 10.753906 C 9.007812 11.136719 9.007812 11.339844 9.363281 11.683594 C 10.085938 12.390625 9.574219 12.757812 10.726562 13.519531 C 12.117188 14.4375 13.121094 14.867188 13.707031 16.664062 C 13.941406 17.359375 13.957031 17.660156 14.933594 17.714844 C 15.023438 17.71875 15.105469 17.71875 15.183594 17.71875 C 15.542969 17.71875 15.773438 17.683594 15.96875 17.683594 C 16.226562 17.679688 16.421875 17.753906 16.703125 18.054688 L 16.726562 18.078125 L 16.710938 18.105469 C 16.707031 18.105469 16.484375 18.480469 16.179688 18.753906 C 16.050781 18.867188 15.910156 18.894531 15.777344 18.890625 C 15.671875 18.890625 15.570312 18.878906 15.476562 18.878906 C 15.308594 18.882812 15.175781 18.914062 15.046875 19.175781 C 14.78125 19.714844 14.644531 19.992188 14.585938 20.164062 C 14.578125 20.1875 14.574219 20.21875 14.574219 20.25 C 14.578125 20.332031 14.597656 20.398438 14.746094 20.402344 C 14.890625 20.402344 15.164062 20.316406 15.617188 20.035156 C 16.316406 19.613281 16.332031 20.101562 17.066406 19.503906 C 17.328125 19.296875 17.425781 19.109375 17.605469 19.101562 C 17.6875 19.101562 17.769531 19.148438 17.871094 19.238281 C 18.433594 19.746094 18.460938 20.171875 19.292969 20.375 C 19.789062 20.5 20.332031 21.070312 20.589844 21.441406 C 20.65625 21.535156 20.664062 21.667969 20.867188 21.667969 C 20.886719 21.667969 20.90625 21.667969 20.925781 21.664062 C 21.15625 21.636719 21.558594 21.527344 21.785156 21.457031 C 21.878906 21.421875 21.917969 21.351562 21.921875 21.257812 C 21.921875 21.160156 21.875 21.050781 21.796875 20.984375 C 21.632812 20.832031 21.269531 20.546875 21.121094 20.460938 L 21.070312 20.433594 L 21.113281 20.394531 C 21.199219 20.324219 21.300781 20.199219 21.300781 20.050781 C 21.300781 20.003906 21.289062 19.949219 21.261719 19.894531 C 21.105469 19.570312 20.828125 19.480469 20.496094 19.335938 C 20.152344 19.179688 19.996094 18.871094 19.625 18.628906 C 19.527344 18.558594 19.339844 18.484375 19.332031 18.324219 C 19.332031 18.277344 19.355469 18.226562 19.398438 18.179688 C 19.5625 18 20.148438 17.363281 20.816406 17.359375 C 20.835938 17.359375 20.847656 17.363281 20.863281 17.363281 C 21.84375 17.40625 22.660156 17.511719 23.660156 17.765625 C 23.765625 17.792969 23.863281 17.828125 23.957031 17.828125 C 24.039062 17.824219 24.117188 17.804688 24.203125 17.726562 C 24.390625 17.550781 24.554688 17.289062 24.679688 17.148438 C 24.746094 17.074219 24.773438 17.015625 24.773438 16.9375 C 24.773438 16.875 24.753906 16.796875 24.714844 16.691406 C 24.640625 16.472656 24.289062 16.011719 24.289062 15.140625 C 24.289062 15.082031 24.292969 15.023438 24.292969 14.964844 C 24.304688 14.78125 24.363281 14.628906 24.363281 14.425781 C 24.363281 14.199219 24.292969 13.898438 23.992188 13.414062 L 23.984375 13.398438 L 23.988281 13.386719 C 24.21875 12.09375 24.710938 11.257812 25.882812 10.542969 C 26.578125 10.113281 28.074219 9.542969 29.335938 9.230469 C 29.367188 9.222656 29.414062 9.210938 29.472656 9.210938 C 29.59375 9.207031 29.75 9.277344 29.949219 9.558594 C 30.246094 9.980469 30.339844 10.382812 31.132812 10.585938 C 31.425781 10.660156 31.667969 10.726562 31.882812 10.917969 C 32.074219 11.09375 32.570312 11.285156 32.851562 11.792969 C 32.890625 11.867188 32.898438 11.949219 32.898438 12.035156 C 32.898438 12.097656 32.894531 12.160156 32.894531 12.226562 C 32.894531 12.363281 32.914062 12.492188 33.019531 12.609375 C 33.210938 12.816406 33.660156 12.957031 33.929688 12.957031 C 33.984375 12.957031 34.035156 12.949219 34.066406 12.941406 C 34.296875 12.871094 34.355469 12.769531 34.460938 12.554688 C 34.652344 12.160156 34.929688 12.097656 34.917969 11.894531 C 34.917969 11.886719 34.917969 11.882812 34.917969 11.878906 C 34.914062 11.855469 34.914062 11.832031 34.914062 11.8125 C 34.914062 11.769531 34.917969 11.734375 34.917969 11.707031 C 34.917969 11.640625 34.910156 11.601562 34.839844 11.496094 L 34.871094 11.472656 L 34.90625 11.449219 C 34.984375 11.558594 35 11.628906 35 11.707031 C 35 11.738281 34.996094 11.769531 34.996094 11.8125 C 34.996094 11.832031 34.996094 11.851562 35 11.875 C 35 11.882812 35 11.886719 35 11.894531 C 34.988281 12.179688 34.703125 12.21875 34.53125 12.589844 C 34.433594 12.804688 34.34375 12.945312 34.089844 13.015625 C 34.046875 13.03125 33.992188 13.035156 33.929688 13.035156 C 33.636719 13.035156 33.183594 12.898438 32.960938 12.664062 C 32.832031 12.527344 32.8125 12.367188 32.8125 12.226562 C 32.8125 12.15625 32.816406 12.09375 32.816406 12.035156 C 32.816406 11.953125 32.808594 11.882812 32.78125 11.832031 C 32.515625 11.351562 32.046875 11.171875 31.828125 10.980469 C 31.628906 10.800781 31.40625 10.738281 31.113281 10.664062 C 30.289062 10.457031 30.167969 10.007812 29.882812 9.605469 C 29.6875 9.335938 29.558594 9.289062 29.472656 9.289062 C 29.429688 9.289062 29.390625 9.300781 29.359375 9.3125 C 28.101562 9.617188 26.609375 10.191406 25.925781 10.609375 C 24.777344 11.320312 24.300781 12.117188 24.074219 13.382812 C 24.367188 13.867188 24.441406 14.183594 24.441406 14.425781 C 24.441406 14.644531 24.382812 14.804688 24.375 14.96875 C 24.371094 15.027344 24.371094 15.085938 24.371094 15.140625 C 24.371094 15.992188 24.703125 16.421875 24.792969 16.664062 C 24.832031 16.773438 24.855469 16.859375 24.855469 16.9375 C 24.855469 17.039062 24.8125 17.121094 24.742188 17.203125 C 24.625 17.335938 24.457031 17.597656 24.257812 17.785156 C 24.160156 17.878906 24.054688 17.910156 23.957031 17.90625 C 23.84375 17.90625 23.742188 17.867188 23.640625 17.84375 C 22.644531 17.589844 21.835938 17.484375 20.859375 17.445312 C 20.84375 17.441406 20.832031 17.441406 20.820312 17.441406 C 20.199219 17.441406 19.621094 18.058594 19.457031 18.234375 C 19.421875 18.273438 19.414062 18.300781 19.414062 18.324219 C 19.40625 18.398438 19.558594 18.492188 19.671875 18.558594 C 20.058594 18.820312 20.21875 19.125 20.527344 19.261719 C 20.851562 19.402344 21.160156 19.503906 21.335938 19.859375 C 21.367188 19.925781 21.382812 19.992188 21.382812 20.050781 C 21.378906 20.210938 21.292969 20.335938 21.207031 20.417969 C 21.386719 20.535156 21.699219 20.78125 21.851562 20.921875 C 21.945312 21.007812 22 21.136719 22 21.257812 C 22.003906 21.375 21.941406 21.492188 21.808594 21.535156 C 21.578125 21.605469 21.175781 21.71875 20.9375 21.746094 C 20.914062 21.75 20.894531 21.75 20.875 21.75 C 20.871094 21.75 20.867188 21.75 20.867188 21.75 Z M 18.503906 17.222656 C 18.144531 17.039062 18 16.628906 17.355469 16.515625 C 16.816406 16.421875 16.339844 16.230469 16.109375 15.6875 C 15.832031 15.019531 15.488281 13.742188 15.4375 13.472656 C 15.414062 13.371094 15.390625 13.273438 15.386719 13.1875 C 15.390625 13.074219 15.457031 12.976562 15.621094 12.976562 C 15.660156 12.976562 15.703125 12.980469 15.75 12.988281 C 16.761719 13.160156 17.960938 13.921875 19.117188 13.917969 C 19.253906 13.917969 19.394531 13.90625 19.53125 13.882812 C 19.621094 13.867188 19.71875 13.839844 19.804688 13.839844 C 19.886719 13.835938 19.972656 13.875 20.007812 13.972656 C 20.074219 14.140625 20.175781 14.464844 20.226562 14.582031 L 20.234375 14.597656 L 20.226562 14.609375 C 20.128906 14.90625 19.933594 15.347656 19.566406 15.828125 L 19.554688 15.84375 L 19.535156 15.84375 C 19.257812 15.84375 18.9375 15.8125 18.878906 15.496094 L 18.917969 15.488281 L 18.957031 15.484375 C 18.996094 15.722656 19.238281 15.757812 19.515625 15.761719 C 19.863281 15.304688 20.046875 14.886719 20.144531 14.597656 C 20.089844 14.464844 19.992188 14.160156 19.933594 14 C 19.90625 13.933594 19.871094 13.921875 19.804688 13.921875 C 19.738281 13.921875 19.640625 13.945312 19.542969 13.964844 C 19.402344 13.988281 19.257812 14 19.117188 14 C 17.925781 14 16.722656 13.230469 15.738281 13.070312 C 15.691406 13.0625 15.652344 13.058594 15.621094 13.058594 C 15.484375 13.066406 15.476562 13.097656 15.46875 13.1875 C 15.46875 13.253906 15.496094 13.355469 15.515625 13.457031 C 15.566406 13.714844 15.910156 15 16.1875 15.65625 C 16.402344 16.164062 16.835938 16.34375 17.371094 16.4375 C 18.03125 16.554688 18.210938 16.976562 18.515625 17.140625 C 18.640625 17.050781 18.789062 16.882812 18.839844 16.761719 C 18.78125 16.582031 18.605469 16.570312 18.351562 16.484375 C 17.910156 16.332031 17.796875 16.140625 17.609375 16.007812 C 17.308594 15.789062 17.179688 15.589844 17.179688 15.433594 C 17.179688 15.28125 17.308594 15.1875 17.464844 15.1875 C 17.476562 15.1875 17.492188 15.191406 17.503906 15.191406 C 17.65625 15.203125 17.875 15.210938 18.078125 15.210938 C 18.300781 15.210938 18.511719 15.203125 18.605469 15.1875 C 18.640625 15.183594 18.675781 15.179688 18.707031 15.179688 C 18.828125 15.175781 18.921875 15.257812 18.957031 15.480469 L 18.878906 15.496094 C 18.832031 15.277344 18.789062 15.265625 18.707031 15.261719 C 18.683594 15.261719 18.652344 15.261719 18.617188 15.269531 C 18.515625 15.285156 18.304688 15.292969 18.078125 15.292969 C 17.871094 15.292969 17.65625 15.285156 17.496094 15.273438 C 17.484375 15.269531 17.472656 15.269531 17.464844 15.269531 C 17.332031 15.273438 17.261719 15.332031 17.261719 15.433594 C 17.257812 15.542969 17.363281 15.730469 17.65625 15.941406 C 17.863281 16.089844 17.953125 16.261719 18.378906 16.410156 C 18.617188 16.492188 18.84375 16.503906 18.921875 16.75 L 18.925781 16.765625 L 18.921875 16.777344 C 18.859375 16.929688 18.6875 17.121094 18.542969 17.21875 L 18.523438 17.234375 Z M 21.691406 16.679688 C 21.46875 16.660156 21.371094 16.570312 21.371094 16.457031 C 21.375 16.363281 21.429688 16.277344 21.464844 16.210938 C 21.542969 16.0625 21.957031 15.4375 22.148438 15.152344 C 22.203125 15.070312 22.261719 15.027344 22.324219 15.027344 C 22.421875 15.03125 22.480469 15.117188 22.523438 15.171875 C 22.59375 15.265625 23.066406 15.992188 23.199219 16.230469 C 23.246094 16.320312 23.269531 16.394531 23.269531 16.464844 C 23.269531 16.652344 23.09375 16.726562 22.90625 16.761719 C 22.859375 16.769531 22.796875 16.773438 22.726562 16.773438 C 22.449219 16.773438 22.023438 16.71875 21.691406 16.679688 Z M 22.214844 15.195312 C 22.027344 15.480469 21.609375 16.109375 21.535156 16.246094 C 21.5 16.316406 21.453125 16.398438 21.453125 16.457031 C 21.457031 16.515625 21.484375 16.570312 21.703125 16.601562 C 22.035156 16.636719 22.457031 16.691406 22.726562 16.691406 C 22.792969 16.691406 22.851562 16.6875 22.894531 16.679688 C 23.074219 16.644531 23.191406 16.585938 23.1875 16.464844 C 23.1875 16.414062 23.171875 16.351562 23.125 16.269531 C 23.003906 16.039062 22.523438 15.308594 22.457031 15.222656 C 22.417969 15.164062 22.359375 15.105469 22.324219 15.109375 C 22.300781 15.109375 22.265625 15.121094 22.214844 15.195312 L 22.183594 15.175781 Z M 22.214844 15.195312 "/>
</g>
</g>
</svg>
