<?xml version="1.0" encoding="UTF-8"?>
<svg xmlns="http://www.w3.org/2000/svg" xmlns:xlink="http://www.w3.org/1999/xlink" width="35pt" height="25pt" viewBox="0 0 35 25" version="1.1">
<g id="surface1">
<path style=" stroke:none;fill-rule:evenodd;fill:rgb(80.392157%,71.764706%,48.627451%);fill-opacity:1;" d="M 14.539062 16.3125 C 14.675781 16.21875 15.699219 15.558594 15.710938 15.535156 L 19.871094 8.640625 C 21.421875 8.679688 25.613281 8.628906 26.839844 7.910156 C 26.636719 7.492188 26.382812 7.097656 26.234375 6.652344 C 25.15625 3.464844 28.621094 1.59375 30.785156 0.101562 L 29.980469 3.230469 C 29.875 3.644531 29.921875 4.011719 30.164062 4.363281 C 31.164062 5.785156 33.285156 6.09375 32.980469 8.714844 C 32.472656 13.058594 27.613281 14.261719 23.945312 14.460938 C 22.964844 16.085938 22.410156 17.367188 20.59375 18.238281 L 19.160156 20.742188 C 19.214844 21.203125 19.238281 21.554688 19.003906 21.980469 C 18.535156 22.832031 15.488281 24.429688 14.519531 25 L 5.605469 24.910156 C 4.949219 23.882812 2.9375 21.183594 3.890625 20.019531 C 4.046875 19.828125 4.75 19.289062 4.785156 19.230469 L 6.375 16.714844 C 5.820312 15.511719 5.769531 15.179688 6.519531 14.066406 C 2.875 13.5 0.472656 11.621094 2.472656 7.792969 C 4.019531 4.832031 8.058594 4.824219 9.0625 2.28125 L 9.960938 0 L 11.214844 2.105469 C 12.796875 4.773438 10.910156 6.308594 9.058594 7.96875 C 11.0625 8.53125 15.097656 8.457031 17.304688 8.421875 L 12.242188 16.003906 C 12.367188 16.285156 12.484375 16.566406 12.589844 16.851562 C 12.117188 17.707031 11.644531 18.558594 11.15625 19.402344 L 12.746094 19.4375 C 13.328125 18.386719 13.894531 17.328125 14.460938 16.269531 L 14.539062 16.3125 "/>
<path style=" stroke:none;fill-rule:evenodd;fill:rgb(100%,100%,100%);fill-opacity:1;" d="M 6.929688 16.324219 C 6.8125 16.070312 6.679688 15.765625 6.660156 15.652344 C 6.621094 15.457031 6.597656 15.160156 6.777344 14.890625 L 7.691406 13.527344 C 2.828125 13.144531 1.4375 11.035156 3.058594 8.109375 C 3.488281 7.335938 4.082031 6.785156 4.726562 6.34375 C 5.039062 6.128906 5.371094 5.9375 5.714844 5.753906 C 6.039062 5.578125 6.375 5.410156 6.707031 5.238281 C 8.027344 4.5625 9.140625 3.910156 9.683594 2.523438 L 10.082031 1.511719 L 10.640625 2.449219 C 11.644531 4.136719 10.765625 5.507812 9.84375 6.425781 C 9.617188 6.652344 9.371094 6.867188 9.136719 7.066406 C 8.910156 7.257812 8.6875 7.433594 8.496094 7.597656 C 8.300781 7.757812 8.15625 7.886719 8.058594 7.996094 C 8.023438 8.035156 8 8.0625 7.984375 8.085938 C 7.984375 8.148438 8.027344 8.222656 8.164062 8.316406 C 8.320312 8.414062 8.558594 8.507812 8.867188 8.59375 C 9.484375 8.757812 10.332031 8.875 11.199219 8.953125 C 12.945312 9.113281 14.773438 9.128906 15.023438 9.125 L 16.042969 9.109375 L 11.476562 15.953125 L 11.664062 16.328125 C 11.722656 16.441406 11.777344 16.554688 11.820312 16.644531 L 11.871094 16.753906 C 11.898438 16.820312 11.902344 16.863281 11.898438 16.875 L 11.769531 16.855469 C 11.769531 16.855469 11.90625 16.886719 11.859375 16.964844 L 11.796875 17.070312 L 11.570312 17.445312 L 10.882812 18.585938 L 10 20.042969 C 10.664062 20.058594 12.578125 20.101562 13.132812 20.113281 C 13.390625 19.636719 14.832031 16.953125 14.832031 16.933594 L 14.839844 16.867188 L 14.898438 16.832031 C 14.929688 16.816406 16.015625 16.128906 16.222656 15.996094 L 20.242188 9.316406 L 20.554688 9.324219 C 20.660156 9.324219 22.261719 9.347656 23.929688 9.191406 C 25.644531 9.035156 27.289062 8.703125 27.613281 8.085938 C 27.621094 8.054688 27.613281 8.039062 27.605469 8.015625 C 27.578125 7.933594 27.539062 7.820312 27.457031 7.667969 C 27.371094 7.503906 27.265625 7.324219 27.167969 7.132812 C 27.058594 6.917969 26.949219 6.6875 26.867188 6.445312 C 26.492188 5.320312 26.675781 3.996094 28.484375 2.519531 L 29.691406 1.671875 L 29.332031 3.066406 C 29.015625 4.328125 29.578125 4.867188 30.414062 5.523438 C 30.636719 5.695312 30.863281 5.867188 31.078125 6.046875 C 31.300781 6.234375 31.523438 6.441406 31.71875 6.6875 C 32.125 7.191406 32.386719 7.820312 32.316406 8.652344 C 32.074219 11.496094 29.109375 13.597656 23.558594 13.808594 L 22.054688 16.257812 C 21.761719 16.734375 20.753906 17.457031 20.121094 17.722656 L 18.472656 20.597656 C 18.484375 20.730469 18.527344 21.140625 18.53125 21.238281 C 18.542969 21.417969 18.476562 21.558594 18.429688 21.640625 C 18.378906 21.726562 18.316406 21.800781 18.257812 21.863281 C 18.140625 21.988281 17.988281 22.113281 17.828125 22.234375 C 17.660156 22.359375 16.792969 22.878906 15.976562 23.367188 C 15.152344 23.855469 14.339844 24.332031 14.339844 24.332031 L 5.972656 24.246094 C 5.972656 24.246094 5.625 23.699219 5.28125 23.128906 C 4.941406 22.5625 4.5625 21.894531 4.433594 21.542969 C 4.398438 21.449219 4.367188 21.355469 4.335938 21.269531 C 4.308594 21.175781 4.285156 21.082031 4.273438 20.992188 C 4.246094 20.804688 4.269531 20.613281 4.410156 20.4375 C 4.46875 20.367188 4.691406 20.171875 4.890625 20.003906 C 5.074219 19.847656 5.257812 19.695312 5.324219 19.644531 L 7.132812 16.761719 C 7.089844 16.671875 7.011719 16.503906 6.929688 16.324219 "/>
<path style=" stroke:none;fill-rule:evenodd;fill:rgb(0%,34.901961%,25.490196%);fill-opacity:1;" d="M 10.179688 2.71875 C 11.800781 5.441406 7.570312 7.105469 7.4375 8.015625 C 7.179688 9.785156 15.03125 9.660156 15.03125 9.660156 L 10.859375 15.914062 C 10.859375 15.914062 11.292969 16.890625 11.320312 16.890625 C 11.339844 16.890625 9.085938 20.492188 9.0625 20.558594 L 13.4375 20.652344 C 13.484375 20.628906 15.222656 17.242188 15.253906 17.25 C 15.265625 17.25 16.617188 16.371094 16.617188 16.371094 L 20.539062 9.855469 C 20.539062 9.855469 27.226562 10.019531 28.097656 8.25 C 28.546875 7.34375 25.480469 5.660156 28.816406 2.9375 C 28.011719 6.113281 32.011719 5.886719 31.78125 8.609375 C 31.574219 11.050781 28.945312 13.136719 23.253906 13.285156 L 21.601562 15.976562 C 21.355469 16.375 20.246094 17.152344 19.753906 17.289062 L 17.941406 20.453125 C 17.914062 20.5 17.984375 21.050781 18 21.269531 C 18.027344 21.738281 14.839844 23.40625 14.195312 23.796875 L 6.277344 23.714844 C 5.984375 23.214844 4.605469 21.25 4.863281 20.753906 C 4.996094 20.492188 5.816406 19.976562 5.773438 19.957031 L 7.734375 16.808594 C 7.628906 16.457031 6.972656 15.558594 7.222656 15.1875 L 8.65625 13.046875 C 3.105469 12.871094 2.132812 10.886719 3.527344 8.371094 C 5.035156 5.648438 8.933594 5.894531 10.179688 2.71875 "/>
</g>
</svg>
