<?xml version="1.0" encoding="UTF-8"?>
<svg xmlns="http://www.w3.org/2000/svg" xmlns:xlink="http://www.w3.org/1999/xlink" width="35pt" height="25pt" viewBox="0 0 35 25" version="1.1">
<g id="surface1">
<path style=" stroke:none;fill-rule:nonzero;fill:rgb(76.470588%,79.215686%,80.784314%);fill-opacity:1;" d="M 10.042969 24.25 L 13.234375 23.519531 L 9.492188 24.746094 Z M 10.042969 24.25 "/>
<path style=" stroke:none;fill-rule:nonzero;fill:rgb(76.470588%,79.215686%,80.784314%);fill-opacity:1;" d="M 17.976562 23.722656 L 17.566406 24.234375 L 22.628906 22.355469 Z M 17.976562 23.722656 "/>
<path style=" stroke:none;fill-rule:nonzero;fill:rgb(76.470588%,79.215686%,80.784314%);fill-opacity:1;" d="M 18.867188 21.78125 L 18.824219 22.03125 L 20.53125 21.53125 Z M 18.867188 21.78125 "/>
<path style=" stroke:none;fill-rule:nonzero;fill:rgb(76.470588%,79.215686%,80.784314%);fill-opacity:1;" d="M 29.179688 19.375 L 28.765625 19.890625 L 33.828125 18.011719 Z M 29.179688 19.375 "/>
<path style=" stroke:none;fill-rule:nonzero;fill:rgb(76.470588%,79.215686%,80.784314%);fill-opacity:1;" d="M 26.007812 18.359375 L 25.960938 18.613281 L 29.140625 17.640625 Z M 26.007812 18.359375 "/>
<path style=" stroke:none;fill-rule:nonzero;fill:rgb(76.470588%,79.215686%,80.784314%);fill-opacity:1;" d="M 30.65625 6.128906 L 30.613281 6.378906 L 33.386719 5.722656 Z M 30.65625 6.128906 "/>
<path style=" stroke:none;fill-rule:nonzero;fill:rgb(5.490196%,5.882353%,9.019608%);fill-opacity:1;" d="M 18.527344 22.671875 L 18.230469 23.046875 L 21.121094 22.039062 Z M 18.527344 22.671875 "/>
<path style=" stroke:none;fill-rule:nonzero;fill:rgb(5.490196%,5.882353%,9.019608%);fill-opacity:1;" d="M 27.265625 2.328125 C 27.039062 2.132812 26.761719 1.953125 26.417969 1.800781 C 26.40625 1.949219 26.378906 2.191406 26.335938 2.46875 L 25.859375 2.542969 C 25.777344 2.1875 25.640625 1.878906 25.460938 1.695312 C 24.492188 0.730469 22.175781 0.195312 21.917969 0.269531 C 22.214844 0.898438 22.710938 3.0625 22.632812 2.996094 C 22.53125 2.722656 21.742188 1.175781 21.179688 0.648438 C 20.171875 -0.300781 17.6875 0.0703125 17.566406 0.078125 C 18.339844 0.765625 18.957031 1.449219 19.3125 2.199219 C 18.816406 1.714844 17.324219 0.523438 16.078125 0.398438 C 15.28125 0.320312 13.261719 0.566406 11.902344 1.183594 C 14.503906 1.507812 16.746094 3.117188 18.105469 4.519531 C 18.085938 4.5625 18.066406 4.605469 18.046875 4.652344 L 17.871094 5.136719 C 17.132812 4.363281 16.230469 3.921875 14.796875 4.0625 C 14.511719 4.089844 14.210938 4.148438 13.902344 4.230469 L 13.933594 4.207031 C 12.785156 4.46875 10.039062 5.6875 8.414062 8.292969 L 9.269531 8.074219 C 8.996094 8.59375 8.765625 9.164062 8.59375 9.789062 C 7.988281 12.003906 8.570312 13.675781 9.746094 14.5625 C 9.683594 14.675781 9.625 14.792969 9.582031 14.898438 C 9.507812 14.867188 9.390625 14.8125 9.265625 14.738281 C 9.058594 14.617188 7.484375 14.046875 6.539062 11.738281 C 4.671875 7.167969 8.769531 2.453125 9.128906 2.199219 C 8.746094 2.375 3.679688 4.777344 3.378906 8.625 C 3.320312 8.199219 3.328125 7.464844 3.328125 7.464844 C 3.328125 7.464844 1.601562 9.25 2.195312 11.761719 C 2.265625 12.085938 2.367188 12.410156 2.453125 12.710938 C 2.246094 12.386719 1.875 11.859375 1.730469 11.570312 C 1.371094 12.464844 1.460938 13.546875 1.796875 14.207031 C 2.015625 14.683594 2.429688 15.011719 2.785156 15.421875 C 2.398438 15.308594 1.933594 15.125 1.933594 15.125 C 1.933594 15.125 2.078125 16.929688 4.023438 17.433594 L 3.066406 17.496094 C 3.839844 18.453125 5.222656 18.738281 5.476562 18.726562 C 5.570312 18.707031 5.816406 18.765625 5.890625 18.785156 C 5.890625 18.785156 5.433594 19.054688 5.453125 19.078125 C 5.648438 19.242188 6.511719 19.492188 7.066406 19.429688 C 7.625 19.367188 7.710938 19.261719 7.796875 19.273438 C 7.796875 19.273438 7.5 19.695312 7.464844 19.691406 C 7.972656 19.800781 8.726562 19.796875 9.085938 19.675781 C 9.445312 19.554688 9.535156 19.371094 9.90625 19.378906 C 9.808594 19.554688 9.382812 19.972656 9.382812 19.972656 C 9.789062 20.011719 10.175781 19.992188 10.574219 19.914062 C 10.925781 19.84375 11.464844 19.601562 11.90625 19.5 C 11.503906 20.183594 10.257812 21 9.410156 21.441406 C 9.339844 21.375 9.273438 21.3125 9.21875 21.253906 C 9.21875 21.253906 8.914062 20.914062 8.152344 20.609375 C 8.152344 20.609375 7.507812 20.730469 7.210938 21.179688 L 7.03125 21.179688 C 7.03125 21.179688 6.507812 21.378906 6.191406 21.726562 C 6.125 21.800781 6.140625 22.023438 6.140625 22.023438 C 6.140625 22.023438 5.679688 22.28125 5.613281 22.367188 C 5.613281 22.367188 5.433594 22.734375 5.691406 23.34375 C 5.691406 23.34375 5.691406 24.167969 6.558594 24.304688 C 6.558594 24.304688 6.492188 23.992188 6.636719 23.820312 C 6.636719 23.820312 6.878906 24.082031 7.234375 24.042969 C 7.234375 24.042969 7.214844 23.617188 7.320312 23.464844 C 7.320312 23.464844 7.492188 23.488281 7.570312 23.460938 C 7.570312 23.460938 7.773438 23.710938 8.050781 23.761719 C 8.050781 23.761719 8.078125 23.417969 8.175781 23.359375 C 8.175781 23.359375 8.367188 23.257812 8.699219 23.503906 C 9.03125 23.75 9.402344 23.992188 9.402344 23.992188 C 9.402344 23.992188 9.445312 24.390625 8.996094 25 C 8.996094 25 10.089844 25.023438 10.550781 24.136719 C 10.550781 24.136719 10.980469 23.746094 11.019531 23.363281 C 11.019531 23.363281 11.03125 23.242188 11.039062 23.101562 C 11.75 23.09375 12.203125 22.945312 12.304688 22.933594 C 12.296875 22.902344 11.964844 22.785156 11.949219 22.699219 C 12.125 22.585938 14.425781 22.496094 15.269531 21.96875 C 15.269531 21.96875 15.015625 21.878906 14.867188 21.773438 L 14.882812 21.691406 C 15.066406 21.628906 15.242188 21.578125 15.40625 21.5 C 15.414062 21.5 15.417969 21.5 15.417969 21.5 C 15.507812 21.703125 16.144531 21.9375 16.144531 21.9375 C 16.699219 22.414062 16.734375 23.363281 16.734375 23.363281 C 16.636719 23.800781 15.945312 24.457031 15.945312 24.457031 C 17.347656 25.148438 18.394531 23.511719 18.394531 23.511719 C 18.789062 23.417969 19.039062 22.554688 19.085938 22.390625 C 19.117188 22.273438 19.261719 21.34375 19.339844 20.847656 C 19.664062 20.75 19.96875 20.65625 20.121094 20.597656 C 20.179688 20.628906 20.257812 20.675781 20.558594 20.808594 C 21.101562 20.917969 21.726562 20.863281 22.117188 20.878906 L 21.511719 20.394531 C 21.511719 20.394531 22.332031 20.734375 22.699219 20.855469 C 23.246094 20.90625 23.800781 20.871094 24.21875 20.839844 C 24.21875 20.839844 23.804688 20.539062 23.671875 20.398438 L 23.6875 20.390625 C 23.988281 20.554688 24.324219 20.648438 24.628906 20.816406 C 24.992188 20.824219 25.863281 20.851562 26.367188 20.734375 C 26.367188 20.734375 25.332031 20.300781 25.207031 20.199219 C 25.554688 20.257812 26.785156 20.65625 26.851562 20.648438 C 27.535156 20.578125 28.046875 20.167969 28.175781 20.171875 C 28.175781 20.171875 26.972656 19.882812 26.664062 19.695312 C 27.191406 19.785156 28.132812 19.910156 28.660156 20.035156 C 28.828125 20.042969 29.84375 19.519531 30.363281 19 C 29.496094 18.902344 22.339844 17.789062 21.875 17.710938 C 21.480469 17.621094 21.097656 17.476562 20.710938 17.40625 L 21.175781 17.457031 C 21.515625 17.425781 22.191406 17.445312 22.496094 17.351562 C 22.496094 17.351562 22.046875 17.0625 21.941406 17 C 23.691406 17.105469 24.996094 16.3125 25.007812 16.199219 C 25.007812 16.199219 24.304688 16.070312 24.296875 16 C 25.769531 15.707031 26.402344 14.921875 26.558594 14.710938 C 26.585938 14.699219 25.242188 14.308594 24.921875 14.035156 C 25.390625 14.203125 25.535156 14.175781 26.117188 14.226562 C 27.0625 14.308594 27.964844 13.230469 28.285156 12.375 C 28.234375 12.394531 28.164062 12.332031 28.117188 12.386719 C 27.660156 12.410156 26.859375 12.578125 26.148438 12.507812 C 28.378906 12.269531 28.550781 11.527344 28.664062 11.386719 C 29.039062 10.527344 29.21875 9.632812 29.300781 9.074219 C 29.625 8.800781 29.96875 8.453125 30.09375 8.152344 C 30.351562 7.535156 32.316406 2.375 32.316406 2.375 C 32.515625 1.964844 33.304688 1.398438 33.304688 1.398438 Z M 27.265625 2.328125 "/>
<path style=" stroke:none;fill-rule:nonzero;fill:rgb(5.490196%,5.882353%,9.019608%);fill-opacity:1;" d="M 18.351562 12.894531 C 17.714844 13.664062 17.46875 13.945312 16.957031 14.308594 C 16.941406 14.265625 16.921875 14.230469 16.902344 14.195312 C 16.773438 13.964844 16.511719 13.628906 16.421875 13.546875 C 16.328125 13.464844 16.214844 13.34375 16.199219 13.3125 C 16.410156 13.246094 16.589844 13.257812 16.800781 13.253906 C 16.800781 13.253906 16.71875 13.140625 16.601562 13.042969 C 16.53125 12.980469 16.449219 12.921875 16.359375 12.867188 L 18.835938 12.199219 C 18.683594 12.449219 18.523438 12.6875 18.351562 12.894531 "/>
<path style=" stroke:none;fill-rule:nonzero;fill:rgb(5.490196%,5.882353%,9.019608%);fill-opacity:1;" d="M 10.558594 23.546875 L 12.132812 23.429688 L 10.59375 23.816406 Z M 10.558594 23.546875 "/>
<path style=" stroke:none;fill-rule:nonzero;fill:rgb(5.490196%,5.882353%,9.019608%);fill-opacity:1;" d="M 28.074219 18.78125 L 27.777344 19.15625 L 31.59375 17.777344 Z M 28.074219 18.78125 "/>
<path style=" stroke:none;fill-rule:nonzero;fill:rgb(5.490196%,5.882353%,9.019608%);fill-opacity:1;" d="M 31.605469 3.835938 L 31.5625 4.085938 L 32.644531 3.695312 Z M 31.605469 3.835938 "/>
<path style=" stroke:none;fill-rule:nonzero;fill:rgb(5.490196%,5.882353%,9.019608%);fill-opacity:1;" d="M 19.964844 18.410156 C 20.375 18.382812 28.730469 16.433594 29.511719 16.199219 C 27.664062 16.871094 22.074219 18.453125 19.964844 18.410156 "/>
<path style=" stroke:none;fill-rule:nonzero;fill:rgb(64.313725%,12.156863%,20.784314%);fill-opacity:1;" d="M 19.519531 12.011719 C 18.847656 13.113281 17.832031 14.296875 17.710938 14.570312 C 17.574219 14.886719 17.746094 15.269531 17.746094 15.269531 C 18.261719 14.390625 19.355469 13.046875 19.914062 11.921875 Z M 19.519531 12.011719 "/>
<path style=" stroke:none;fill-rule:nonzero;fill:rgb(64.313725%,12.156863%,20.784314%);fill-opacity:1;" d="M 24.386719 18.742188 C 24.488281 18.6875 24.808594 18.589844 24.917969 18.660156 C 25.417969 18.746094 27.15625 19.097656 27.433594 19.222656 C 26.5625 19.070312 25.246094 18.929688 24.386719 18.742188 "/>
<path style=" stroke:none;fill-rule:nonzero;fill:rgb(64.313725%,12.156863%,20.784314%);fill-opacity:1;" d="M 23.523438 19.1875 L 23.746094 19.082031 C 24 19.148438 25.238281 19.558594 25.625 19.707031 C 24.972656 19.554688 24.199219 19.375 23.523438 19.1875 "/>
<path style=" stroke:none;fill-rule:nonzero;fill:rgb(64.313725%,12.156863%,20.784314%);fill-opacity:1;" d="M 26.226562 10.761719 C 25.941406 10.902344 24.519531 11.3125 24.335938 11.328125 L 24.335938 11.261719 C 24.523438 11.167969 25.488281 10.757812 25.753906 10.59375 C 25.980469 10.445312 26.214844 10.292969 26.445312 10.136719 L 25.511719 10.394531 L 25.300781 10.035156 L 24.832031 10.578125 L 23.941406 10.820312 C 24.015625 11.054688 24.101562 11.292969 24.019531 11.570312 C 23.960938 11.761719 23.832031 11.9375 23.816406 12.136719 C 23.820312 12.203125 23.746094 12.207031 23.714844 12.257812 C 23.773438 12.914062 23.183594 13.433594 22.695312 13.730469 C 22.589844 14.199219 22.175781 14.609375 21.789062 14.898438 L 21.3125 15.113281 C 21.195312 15.464844 20.808594 15.726562 20.472656 15.839844 C 20.421875 15.855469 20.359375 15.855469 20.316406 15.816406 C 20.308594 15.761719 20.359375 15.757812 20.40625 15.761719 C 20.644531 15.738281 20.941406 15.40625 20.941406 15.351562 C 20.960938 15.320312 20.972656 15.289062 20.972656 15.25 C 20.828125 15.226562 20.671875 15.152344 20.53125 15.179688 C 20.21875 15.457031 19.804688 15.492188 19.398438 15.542969 C 19.316406 15.492188 19.179688 15.605469 19.160156 15.476562 C 19.398438 15.542969 19.96875 15.230469 20.203125 15.046875 C 20.417969 14.933594 20.425781 14.703125 20.519531 14.523438 C 20.257812 14.574219 20.035156 14.523438 19.75 14.523438 C 19.683594 14.488281 19.777344 14.453125 19.75 14.402344 C 20.308594 14.296875 21.015625 13.925781 21.195312 13.722656 C 21.371094 13.519531 21.574219 13.269531 21.574219 13.269531 C 21.488281 13.234375 21.460938 13.3125 21.242188 13.339844 C 21.023438 13.367188 20.808594 13.417969 20.53125 13.367188 C 20.476562 13.324219 20.5 13.25 20.554688 13.222656 C 21.082031 13.132812 21.734375 12.707031 21.902344 12.53125 C 22.070312 12.355469 22.21875 12.015625 22.320312 11.804688 C 22.167969 11.84375 22.089844 11.882812 21.914062 11.949219 C 21.734375 12.019531 21.539062 12.070312 21.449219 12.089844 C 21.359375 12.109375 21.269531 12.144531 21.222656 12.160156 C 21.191406 12.164062 21.167969 12.144531 21.144531 12.136719 C 21.171875 12.046875 21.285156 12.074219 21.347656 12.023438 C 21.785156 11.871094 22.1875 11.585938 22.480469 11.214844 L 20.71875 11.691406 C 20.429688 12.375 19.886719 13.492188 18.578125 15.261719 C 18.183594 15.96875 17.527344 16.375 17.480469 16.332031 C 17.148438 16.191406 16.820312 16.117188 16.632812 16.082031 L 16.472656 16.066406 C 16.355469 16.640625 15.464844 17.5625 15.464844 17.5625 L 14.949219 17.230469 C 14.671875 17.433594 13.609375 18.09375 12.441406 18.367188 L 12.414062 18.109375 C 11.863281 17.871094 11.363281 17.601562 10.992188 17.472656 C 10.988281 17.472656 10.984375 17.472656 10.984375 17.472656 L 10.964844 17.492188 C 11.042969 17.621094 11.585938 18.496094 11.628906 18.523438 C 11.84375 18.691406 12.328125 18.851562 12.535156 19.152344 L 12.675781 18.765625 L 13.167969 19.605469 C 13.167969 19.605469 13.464844 18.757812 13.480469 18.800781 C 13.421875 18.910156 13.589844 19.085938 13.636719 19.230469 C 13.738281 19.023438 13.871094 18.800781 14.046875 18.5625 C 14.046875 18.5625 14.679688 18.40625 14.871094 18.429688 C 14.871094 18.429688 15.203125 18.585938 15.445312 18.96875 C 15.445312 18.96875 15.5625 18.289062 15.996094 17.910156 C 15.996094 17.910156 16.597656 17.675781 17.109375 17.84375 C 17.109375 17.84375 17.542969 18.300781 17.570312 18.441406 C 17.570312 18.441406 17.933594 17.761719 18.175781 17.75 C 18.175781 17.75 18.914062 17.828125 19.246094 18.042969 C 19.246094 18.042969 19.304688 18.125 19.375 18.277344 C 19.773438 18.1875 20.03125 18.132812 20.039062 18.140625 C 20.054688 18.324219 19.859375 18.402344 19.78125 18.546875 C 20.1875 18.496094 21.210938 18.386719 21.265625 18.46875 C 21.132812 18.605469 21.039062 18.765625 20.832031 18.863281 C 21.253906 18.832031 22.683594 18.742188 22.722656 18.792969 C 22.757812 18.824219 20.800781 19.742188 19.546875 20.023438 C 19.53125 20.097656 19.511719 20.175781 19.488281 20.25 C 21.1875 19.941406 23.066406 18.707031 24.136719 18.453125 L 23.351562 18.335938 C 21.777344 18.179688 19.175781 17.453125 18.527344 17.132812 C 18.269531 17.003906 19.410156 17.144531 19.300781 17.101562 C 18.589844 16.824219 17.757812 16.609375 17.757812 16.609375 C 19.085938 16.484375 20.125 16.929688 20.125 16.929688 C 20.648438 16.984375 21.070312 16.929688 21.234375 16.886719 C 21.03125 16.730469 20.570312 16.308594 20.625 16.25 C 21.089844 16.398438 21.484375 16.601562 21.9375 16.570312 C 22.390625 16.539062 22.847656 16.382812 23.164062 16.105469 C 22.929688 16.027344 22.222656 15.847656 22.058594 15.558594 C 22.539062 15.664062 22.753906 15.765625 23.253906 15.804688 C 23.75 15.796875 24.210938 15.570312 24.441406 15.261719 C 23.894531 15.1875 22.863281 14.988281 22.546875 14.585938 C 23.945312 14.941406 24.4375 14.957031 24.738281 14.933594 C 24.9375 14.816406 25.152344 14.699219 25.328125 14.546875 C 25.21875 14.4375 24.058594 13.964844 23.816406 13.394531 C 23.9375 13.386719 24.925781 13.976562 26.160156 13.863281 C 26.753906 13.804688 26.972656 13.332031 27.332031 12.824219 C 27.332031 12.824219 25.664062 12.867188 24.484375 12.554688 C 24.464844 12.527344 24.445312 12.484375 24.46875 12.460938 C 24.769531 12.421875 25.097656 12.433594 25.402344 12.394531 C 26.152344 12.269531 26.71875 12.171875 27.394531 11.859375 C 27.722656 11.707031 28.03125 10.851562 28.132812 9.734375 C 28.132812 9.734375 26.730469 10.488281 26.226562 10.761719 "/>
<path style=" stroke:none;fill-rule:nonzero;fill:rgb(64.313725%,12.156863%,20.784314%);fill-opacity:1;" d="M 22.691406 19.640625 C 22.691406 19.640625 22.820312 19.566406 22.890625 19.539062 C 23.292969 19.691406 23.734375 19.886719 24.121094 20.074219 C 23.96875 20.027344 22.953125 19.714844 22.691406 19.640625 "/>
<path style=" stroke:none;fill-rule:nonzero;fill:rgb(64.313725%,12.156863%,20.784314%);fill-opacity:1;" d="M 23.296875 12.144531 C 23.050781 12.273438 22.796875 12.390625 22.535156 12.484375 C 22.695312 12.261719 22.757812 12.003906 22.828125 11.746094 C 23.070312 11.667969 23.296875 11.480469 23.523438 11.375 C 23.554688 11.675781 23.390625 11.894531 23.296875 12.144531 "/>
<path style=" stroke:none;fill-rule:nonzero;fill:rgb(64.313725%,12.156863%,20.784314%);fill-opacity:1;" d="M 21.890625 13.609375 C 21.960938 13.507812 22.003906 13.472656 22.027344 13.390625 C 22.097656 13.25 22.1875 13.113281 22.195312 12.953125 C 22.34375 12.953125 22.453125 12.871094 22.582031 12.839844 C 22.777344 12.78125 22.976562 12.726562 23.167969 12.667969 C 22.972656 13.246094 22.445312 13.503906 21.890625 13.609375 "/>
<path style=" stroke:none;fill-rule:nonzero;fill:rgb(64.313725%,12.156863%,20.784314%);fill-opacity:1;" d="M 22.582031 20.296875 C 22.171875 20.117188 22.183594 20.171875 21.777344 19.964844 L 21.875 19.902344 C 22.257812 20.125 22.222656 20.070312 22.582031 20.296875 "/>
<path style=" stroke:none;fill-rule:nonzero;fill:rgb(64.313725%,12.156863%,20.784314%);fill-opacity:1;" d="M 21.652344 14.59375 C 21.445312 14.726562 21.210938 14.851562 20.925781 14.832031 C 20.9375 14.679688 21.050781 14.570312 21.007812 14.402344 C 21.140625 14.273438 21.335938 14.160156 21.449219 14.003906 C 21.722656 14.023438 22 13.976562 22.253906 13.914062 C 22.160156 14.203125 21.878906 14.386719 21.652344 14.59375 "/>
<path style=" stroke:none;fill-rule:nonzero;fill:rgb(64.313725%,12.156863%,20.784314%);fill-opacity:1;" d="M 21.210938 20.445312 C 21.132812 20.4375 20.929688 20.375 20.875 20.332031 C 20.882812 20.332031 20.980469 20.300781 20.980469 20.300781 C 20.980469 20.300781 21.179688 20.425781 21.210938 20.445312 "/>
<path style=" stroke:none;fill-rule:nonzero;fill:rgb(64.313725%,12.156863%,20.784314%);fill-opacity:1;" d="M 11.453125 17.289062 L 11.484375 17.285156 L 11.386719 16.992188 C 11.253906 16.90625 11.097656 16.808594 10.910156 16.632812 C 11.015625 16.941406 11.1875 17.128906 11.453125 17.289062 "/>
<path style=" stroke:none;fill-rule:nonzero;fill:rgb(76.470588%,79.215686%,80.784314%);fill-opacity:1;" d="M 12.734375 17.945312 C 12.726562 17.765625 12.761719 17.539062 12.703125 17.367188 C 12.757812 17.449219 12.804688 17.503906 12.847656 17.59375 L 12.894531 17.59375 C 13.035156 17.4375 13.203125 17.277344 13.277344 17.105469 C 13.21875 17.429688 13.066406 17.8125 12.734375 17.945312 "/>
<path style=" stroke:none;fill-rule:nonzero;fill:rgb(64.313725%,12.156863%,20.784314%);fill-opacity:1;" d="M 12.867188 16.734375 C 12.882812 16.617188 13.046875 16.425781 13.113281 16.339844 C 13.140625 16.410156 13.167969 16.570312 13.164062 16.648438 Z M 12.867188 16.734375 "/>
<path style=" stroke:none;fill-rule:nonzero;fill:rgb(76.470588%,79.215686%,80.784314%);fill-opacity:1;" d="M 12.839844 15.972656 C 12.765625 16.035156 12.597656 16.222656 12.585938 16.460938 C 12.34375 16.257812 12.3125 15.949219 12.304688 15.707031 C 12.382812 15.570312 12.535156 15.332031 12.664062 15.226562 C 12.789062 15.257812 12.953125 15.472656 12.992188 15.535156 C 13.027344 15.597656 13.0625 15.695312 13.082031 15.773438 C 13.019531 15.800781 12.910156 15.90625 12.839844 15.972656 "/>
<path style=" stroke:none;fill-rule:nonzero;fill:rgb(64.313725%,12.156863%,20.784314%);fill-opacity:1;" d="M 12.003906 16.054688 C 11.957031 16.257812 12.238281 16.671875 12.355469 16.832031 C 12.285156 17.0625 12.484375 17.304688 12.417969 17.757812 C 12.371094 17.707031 12.054688 17.449219 11.910156 17.40625 C 11.765625 17.230469 11.597656 16.878906 11.53125 16.527344 C 10.902344 16.621094 10.640625 15.949219 10.582031 15.824219 L 10.390625 15.933594 C 10.390625 15.933594 10.34375 15.503906 10.671875 14.980469 C 10.699219 15.324219 10.882812 15.664062 11.234375 15.820312 C 11.414062 15.898438 11.558594 15.921875 11.691406 15.933594 C 11.523438 16.152344 11.347656 16.171875 11.207031 16.207031 C 11.445312 16.285156 11.898438 16.15625 12.003906 16.054688 "/>
<path style=" stroke:none;fill-rule:nonzero;fill:rgb(64.313725%,12.156863%,20.784314%);fill-opacity:1;" d="M 10.078125 16.410156 C 10.113281 16.414062 10.273438 16.226562 10.421875 16.191406 C 10.449219 16.375 10.496094 16.613281 10.640625 16.898438 C 10.539062 16.84375 10.378906 16.601562 10.296875 16.421875 L 10.007812 16.613281 C 9.980469 16.519531 9.941406 16.433594 9.933594 16.320312 C 9.886719 16.023438 9.964844 15.371094 10.273438 14.710938 C 10.273438 14.707031 9.917969 15.425781 10.078125 16.410156 "/>
<path style=" stroke:none;fill-rule:nonzero;fill:rgb(64.313725%,12.156863%,20.784314%);fill-opacity:1;" d="M 16.359375 14.773438 L 16.324219 14.660156 C 16.28125 14.496094 16.183594 14.351562 16.109375 14.207031 C 16.128906 14.191406 16.304688 14.175781 16.390625 14.183594 C 16.222656 13.855469 15.839844 13.515625 15.667969 13.390625 C 15.496094 13.265625 15.328125 13.160156 15.25 13.050781 C 15.34375 12.980469 15.507812 12.914062 15.507812 12.914062 C 15.261719 12.839844 14.960938 12.753906 14.722656 12.761719 C 14.644531 12.75 14.421875 12.738281 14.261719 12.792969 C 13.726562 12.988281 13.230469 13.546875 12.949219 14.054688 C 12.949219 14.054688 12.929688 13.875 12.925781 13.839844 C 13.007812 13.515625 13.25 13.0625 13.570312 12.773438 C 13.515625 12.804688 13.042969 12.882812 12.839844 13.03125 C 12.714844 13.121094 12.523438 13.351562 12.367188 13.578125 C 12.253906 13.601562 11.957031 13.03125 11.957031 13.03125 C 11.753906 13.113281 11.464844 13.199219 11.300781 13.40625 C 11.570312 13.507812 12.070312 13.996094 12.128906 14.105469 C 12.234375 14.210938 12.148438 14.144531 12.183594 14.242188 C 12.140625 14.289062 11.628906 13.90625 11.355469 13.761719 C 11.164062 13.71875 10.988281 13.710938 10.792969 13.6875 C 10.828125 13.75 10.910156 13.804688 10.972656 13.84375 C 11.277344 13.929688 11.488281 14.199219 11.703125 14.402344 C 11.929688 14.570312 12.125 14.867188 12.414062 14.898438 C 12.457031 14.773438 12.449219 14.636719 12.476562 14.542969 C 12.5 14.476562 12.523438 14.378906 12.59375 14.367188 C 12.632812 14.507812 12.773438 14.796875 12.867188 14.886719 C 13.132812 14.894531 13.21875 14.648438 13.292969 14.542969 C 13.363281 14.4375 13.640625 13.429688 13.773438 13.359375 C 13.796875 13.304688 14.679688 13.042969 14.53125 13.070312 C 14.386719 13.101562 14.878906 12.992188 14.875 13.0625 C 14.828125 13.125 14.710938 13.21875 14.605469 13.304688 C 15.453125 13.578125 16.007812 14.492188 16.097656 14.742188 C 16.195312 15.011719 16.191406 15.25 16.210938 15.25 C 16.203125 15.292969 15.859375 15.171875 15.726562 15.160156 C 15.746094 15.550781 15.695312 15.933594 15.628906 16.3125 C 15.589844 16.363281 15.074219 16.617188 14.875 16.75 C 14.535156 16.917969 13.804688 17.265625 13.808594 17.210938 C 14.222656 16.972656 14.976562 16.476562 15.304688 16.101562 C 15.355469 15.648438 15.484375 15.164062 15.40625 14.710938 C 15.40625 14.710938 15.644531 14.792969 15.792969 14.808594 C 15.679688 14.589844 15.523438 14.132812 14.75 13.695312 C 14.890625 13.84375 15.011719 14.03125 15.039062 14.277344 C 15.046875 14.335938 15.046875 14.394531 15.046875 14.449219 C 15.046875 14.480469 15.050781 14.511719 15.050781 14.542969 C 15.050781 15.1875 14.527344 15.710938 13.878906 15.710938 C 13.789062 15.710938 13.703125 15.699219 13.617188 15.679688 C 13.777344 15.804688 14.027344 15.902344 14.195312 15.914062 C 13.980469 16.035156 13.558594 16.011719 13.414062 15.90625 C 13.644531 16.484375 13.703125 16.910156 13.492188 17.503906 C 13.46875 17.570312 13.40625 17.640625 13.421875 17.699219 C 13.421875 17.699219 14.914062 16.898438 14.996094 16.847656 C 15.128906 16.828125 15.402344 17.042969 15.402344 17.042969 C 15.753906 16.6875 16.109375 16.160156 15.972656 15.558594 L 16.453125 15.632812 C 16.496094 15.359375 16.402344 15.039062 16.359375 14.773438 "/>
<path style=" stroke:none;fill-rule:nonzero;fill:rgb(100%,81.176471%,10.588235%);fill-opacity:1;" d="M 13.976562 13.691406 C 13.941406 13.84375 13.886719 14.011719 13.820312 14.183594 C 13.882812 14.140625 13.960938 14.113281 14.042969 14.113281 C 14.273438 14.113281 14.460938 14.300781 14.460938 14.53125 C 14.460938 14.761719 14.273438 14.945312 14.042969 14.945312 C 13.824219 14.945312 13.648438 14.777344 13.632812 14.5625 C 13.503906 14.777344 13.34375 14.96875 13.152344 15.089844 C 13.3125 15.300781 13.5625 15.433594 13.847656 15.433594 C 14.332031 15.433594 14.722656 15.039062 14.722656 14.554688 C 14.722656 14.117188 14.398438 13.753906 13.976562 13.691406 "/>
<path style=" stroke:none;fill-rule:nonzero;fill:rgb(76.470588%,79.215686%,80.784314%);fill-opacity:1;" d="M 14.222656 14.816406 C 14.257812 14.8125 14.285156 14.78125 14.285156 14.746094 C 14.285156 14.707031 14.253906 14.679688 14.214844 14.679688 C 14.179688 14.683594 14.148438 14.714844 14.152344 14.75 C 14.152344 14.789062 14.183594 14.816406 14.222656 14.816406 "/>
<path style=" stroke:none;fill-rule:nonzero;fill:rgb(100%,81.176471%,10.588235%);fill-opacity:1;" d="M 12.09375 15.117188 C 12.058594 15.265625 11.925781 15.378906 11.765625 15.378906 C 11.578125 15.378906 11.425781 15.226562 11.425781 15.039062 C 11.425781 14.910156 11.5 14.796875 11.605469 14.738281 C 11.421875 14.507812 11.285156 14.398438 11.144531 14.292969 C 11.011719 14.433594 10.929688 14.632812 10.929688 14.851562 C 10.929688 15.285156 11.253906 15.640625 11.652344 15.640625 C 11.949219 15.640625 12.207031 15.441406 12.316406 15.160156 C 12.242188 15.15625 12.167969 15.144531 12.09375 15.117188 "/>
<path style=" stroke:none;fill-rule:nonzero;fill:rgb(76.470588%,79.215686%,80.784314%);fill-opacity:1;" d="M 11.902344 15.28125 C 11.933594 15.28125 11.957031 15.253906 11.957031 15.222656 C 11.957031 15.195312 11.929688 15.171875 11.898438 15.171875 C 11.871094 15.171875 11.847656 15.199219 11.847656 15.226562 C 11.847656 15.257812 11.875 15.28125 11.902344 15.28125 "/>
<path style=" stroke:none;fill-rule:nonzero;fill:rgb(5.490196%,5.882353%,9.019608%);fill-opacity:1;" d="M 12.796875 15.480469 L 12.839844 15.550781 L 12.703125 15.65625 C 12.703125 15.65625 12.730469 15.519531 12.796875 15.480469 "/>
<path style=" stroke:none;fill-rule:nonzero;fill:rgb(64.313725%,12.156863%,20.784314%);fill-opacity:1;" d="M 10.410156 19.457031 C 10.550781 19.234375 10.800781 18.871094 10.859375 18.601562 L 10.808594 18.558594 C 10.316406 18.8125 9.949219 19.203125 8.675781 19.007812 C 8.78125 18.929688 8.820312 18.8125 8.910156 18.699219 C 8.863281 18.59375 8.226562 18.804688 7.847656 18.804688 C 7.472656 18.804688 7.332031 18.683594 6.882812 18.601562 C 7.019531 18.402344 7.277344 18.347656 7.359375 18.105469 C 7.414062 18.082031 6.34375 18.238281 5.757812 18.148438 C 5.554688 18.113281 5.175781 18.015625 4.773438 17.652344 C 5.097656 17.605469 5.8125 17.242188 5.820312 17.117188 L 5.78125 17.089844 C 4.507812 17.300781 3.746094 16.804688 3.746094 16.804688 L 3.257812 16.183594 L 3.296875 16.140625 C 3.863281 16.441406 5.082031 16.65625 5.503906 16.621094 C 5.527344 16.617188 5.554688 16.589844 5.558594 16.566406 C 5.535156 16.480469 4.714844 16.222656 4.3125 15.972656 C 3.734375 15.671875 3.15625 15.234375 2.714844 14.71875 C 2.609375 14.53125 2.597656 14.269531 2.558594 14.046875 L 2.59375 13.59375 C 3.347656 14.511719 4.0625 15.277344 5.105469 15.707031 C 5.359375 15.855469 5.773438 15.933594 5.773438 15.933594 C 5.78125 15.890625 5.867188 15.871094 5.820312 15.820312 C 5.847656 15.847656 5.476562 15.589844 5.300781 15.488281 C 5.300781 15.488281 4.390625 14.824219 3.746094 14.085938 C 3.363281 13.589844 3.078125 13.03125 2.792969 12.484375 C 2.769531 12.300781 2.664062 11.199219 2.808594 10.855469 C 2.808594 10.621094 2.925781 10.40625 2.988281 10.1875 C 3.082031 11.140625 3.917969 12.871094 4.234375 13.324219 C 4.578125 13.875 5.121094 14.519531 5.382812 14.703125 C 5.648438 14.886719 5.914062 14.90625 5.898438 14.863281 C 5.671875 14.722656 5.507812 14.539062 5.324219 14.285156 C 5.136719 14.035156 4.800781 13.527344 4.378906 12.589844 C 3.960938 11.652344 3.691406 10.261719 3.667969 9.644531 C 3.636719 9.046875 3.75 8.386719 4.039062 7.929688 C 4.398438 7.375 4.667969 6.890625 5.171875 6.480469 C 4.878906 7.503906 4.621094 8.601562 4.695312 9.722656 C 4.710938 10.738281 4.890625 11.714844 5.230469 12.613281 C 5.691406 13.625 6.316406 14.570312 7.234375 15.292969 C 7.636719 15.6875 9.003906 16.605469 10.003906 17.042969 C 10.105469 17.21875 10.410156 17.519531 10.410156 17.519531 C 10.320312 17.546875 10.21875 17.546875 10.125 17.5625 L 10.125 17.550781 C 9.980469 17.597656 9.792969 17.832031 9.589844 17.808594 C 9.707031 17.660156 9.859375 17.359375 9.957031 17.203125 C 9.964844 17.160156 9.9375 17.136719 9.910156 17.105469 C 9.582031 17.410156 9.140625 17.351562 8.742188 17.246094 C 8.929688 17.160156 9.125 17.050781 9.230469 16.863281 C 9.230469 16.863281 9.136719 16.800781 8.9375 16.839844 C 8.492188 16.9375 7.921875 16.980469 7.601562 16.621094 C 7.988281 16.371094 8.019531 16.226562 8.019531 16.226562 C 7.964844 16.230469 7.835938 16.253906 7.738281 16.238281 C 7.375 16.207031 6.9375 16.210938 6.726562 15.851562 C 6.878906 15.746094 7.109375 15.664062 7.148438 15.445312 C 7.148438 15.445312 6.539062 15.644531 5.773438 15.179688 C 6.03125 15.75 6.394531 15.601562 6.328125 15.898438 C 6.410156 16.109375 6.589844 16.273438 6.726562 16.441406 C 6.675781 16.457031 6.617188 16.464844 6.554688 16.441406 C 6.335938 16.4375 6.128906 16.378906 5.941406 16.273438 C 5.996094 17.332031 7.160156 17.523438 7.160156 17.523438 C 7.429688 17.847656 7.765625 18.207031 8.175781 18.230469 C 8.402344 18.300781 8.65625 18.332031 8.894531 18.320312 C 9.003906 18.578125 9.296875 18.589844 9.519531 18.671875 C 9.753906 18.699219 9.996094 18.671875 10.226562 18.640625 C 10.535156 18.558594 10.542969 18.382812 10.753906 18.136719 C 10.972656 18.851562 11.433594 19.226562 11.433594 19.226562 C 11.027344 19.472656 10.410156 19.457031 10.410156 19.457031 "/>
<path style=" stroke:none;fill-rule:nonzero;fill:rgb(64.313725%,12.156863%,20.784314%);fill-opacity:1;" d="M 9.441406 18.277344 C 9.4375 18.246094 9.398438 18.210938 9.441406 18.1875 L 9.46875 18.160156 C 9.660156 18.175781 9.863281 18.246094 10.050781 18.207031 C 9.878906 18.402344 9.65625 18.3125 9.441406 18.277344 "/>
<path style=" stroke:none;fill-rule:nonzero;fill:rgb(64.313725%,12.156863%,20.784314%);fill-opacity:1;" d="M 9.578125 16.21875 C 8.464844 15.503906 8.355469 15.460938 7.121094 14.242188 C 5.890625 13.019531 5.621094 11.8125 5.488281 11.160156 C 5.800781 12.164062 6.269531 13.113281 7.03125 13.894531 C 7.746094 14.726562 9.472656 15.75 9.558594 15.761719 Z M 9.578125 16.21875 "/>
<path style=" stroke:none;fill-rule:nonzero;fill:rgb(64.313725%,12.156863%,20.784314%);fill-opacity:1;" d="M 8.195312 17.824219 C 8.105469 17.742188 8.015625 17.664062 7.917969 17.582031 C 8.066406 17.542969 8.242188 17.660156 8.394531 17.59375 C 8.554688 17.695312 8.691406 17.859375 8.882812 17.867188 C 8.691406 18.035156 8.402344 17.914062 8.195312 17.824219 "/>
<path style=" stroke:none;fill-rule:nonzero;fill:rgb(64.313725%,12.156863%,20.784314%);fill-opacity:1;" d="M 6.503906 16.804688 C 6.671875 16.832031 6.867188 16.832031 7.019531 16.746094 C 7.15625 16.871094 7.292969 17.113281 7.480469 17.160156 C 7.140625 17.09375 6.773438 17.078125 6.503906 16.804688 "/>
<path style=" stroke:none;fill-rule:nonzero;fill:rgb(64.313725%,12.156863%,20.784314%);fill-opacity:1;" d="M 22.847656 2.109375 L 22.871094 2.199219 C 22.941406 2.3125 23.011719 2.585938 23.066406 2.96875 L 24.714844 2.71875 C 24.226562 2.417969 23.570312 2.175781 22.847656 2.109375 "/>
<path style=" stroke:none;fill-rule:nonzero;fill:rgb(64.313725%,12.156863%,20.784314%);fill-opacity:1;" d="M 19.175781 3.566406 L 19.617188 3.5 C 18.699219 2.148438 17.820312 1.800781 17.703125 1.71875 C 17.507812 1.578125 16.441406 1.496094 15.890625 1.65625 L 15.902344 1.664062 C 15.984375 1.699219 17.703125 2.636719 18.359375 3.371094 C 18.339844 3.347656 18.316406 3.320312 18.296875 3.292969 C 18.691406 3.3125 19.078125 3.425781 19.175781 3.566406 "/>
<path style=" stroke:none;fill-rule:nonzero;fill:rgb(64.313725%,12.156863%,20.784314%);fill-opacity:1;" d="M 21.734375 2.148438 C 21.261719 1.59375 19.847656 1.507812 19.28125 1.527344 C 19.359375 1.636719 19.882812 2.261719 20.378906 3.382812 L 22.15625 3.109375 C 22 2.632812 21.839844 2.269531 21.734375 2.148438 "/>
<path style=" stroke:none;fill-rule:nonzero;fill:rgb(76.470588%,79.215686%,80.784314%);fill-opacity:1;" d="M 18.34375 2.421875 C 18.195312 2.257812 17.503906 2.167969 16.96875 2.28125 C 17.1875 2.410156 17.390625 2.585938 17.632812 2.746094 C 17.980469 2.480469 18.503906 2.601562 18.34375 2.421875 "/>
<path style=" stroke:none;fill-rule:nonzero;fill:rgb(76.470588%,79.215686%,80.784314%);fill-opacity:1;" d="M 3.957031 10.304688 C 4.101562 10.632812 4.21875 10.039062 4.695312 9.730469 L 4.695312 9.722656 C 4.660156 9.214844 4.695312 8.714844 4.773438 8.21875 C 4.199219 8.839844 3.800781 9.953125 3.957031 10.304688 "/>
<path style=" stroke:none;fill-rule:nonzero;fill:rgb(76.470588%,79.215686%,80.784314%);fill-opacity:1;" d="M 4.347656 11.671875 C 4.441406 11.886719 4.519531 11.472656 4.855469 11.28125 C 4.804688 11.023438 4.765625 10.761719 4.738281 10.496094 C 4.445312 10.898438 4.257812 11.472656 4.347656 11.671875 "/>
<path style=" stroke:none;fill-rule:nonzero;fill:rgb(76.470588%,79.215686%,80.784314%);fill-opacity:1;" d="M 3.289062 13 C 3.464844 13.214844 3.367188 12.625 3.671875 12.269531 C 3.535156 11.972656 3.398438 11.648438 3.285156 11.332031 C 3.105469 11.933594 3.125 12.792969 3.289062 13 "/>
<path style=" stroke:none;fill-rule:nonzero;fill:rgb(76.470588%,79.215686%,80.784314%);fill-opacity:1;" d="M 3.96875 13.964844 C 4.089844 14.113281 4.011719 13.675781 4.253906 13.453125 C 4.269531 13.441406 4.28125 13.429688 4.289062 13.414062 C 4.269531 13.382812 4.25 13.355469 4.234375 13.324219 C 4.167969 13.230469 4.074219 13.074219 3.972656 12.878906 C 3.851562 13.265625 3.863281 13.832031 3.96875 13.964844 "/>
<path style=" stroke:none;fill-rule:nonzero;fill:rgb(76.470588%,79.215686%,80.784314%);fill-opacity:1;" d="M 3.566406 15.359375 C 3.78125 15.441406 3.554688 15.105469 3.648438 14.75 C 3.429688 14.542969 3.21875 14.324219 3.011719 14.089844 C 3.03125 14.613281 3.34375 15.273438 3.566406 15.359375 "/>
<path style=" stroke:none;fill-rule:nonzero;fill:rgb(76.470588%,79.215686%,80.784314%);fill-opacity:1;" d="M 4.335938 15.691406 C 4.46875 15.742188 4.335938 15.546875 4.382812 15.324219 C 4.25 15.238281 4.125 15.148438 4 15.050781 C 4.058594 15.34375 4.21875 15.648438 4.335938 15.691406 "/>
<path style=" stroke:none;fill-rule:nonzero;fill:rgb(76.470588%,79.215686%,80.784314%);fill-opacity:1;" d="M 4.621094 16.886719 C 4.785156 16.867188 4.578125 16.742188 4.484375 16.511719 C 4.28125 16.472656 4.074219 16.421875 3.878906 16.367188 C 4.113281 16.660156 4.464844 16.902344 4.621094 16.886719 "/>
<path style=" stroke:none;fill-rule:nonzero;fill:rgb(76.470588%,79.215686%,80.784314%);fill-opacity:1;" d="M 5.257812 16.949219 C 5.367188 16.9375 5.15625 16.832031 5.164062 16.636719 C 5.164062 16.628906 5.164062 16.621094 5.164062 16.613281 C 5.054688 16.601562 4.929688 16.589844 4.800781 16.570312 C 4.902344 16.761719 5.15625 16.960938 5.257812 16.949219 "/>
<path style=" stroke:none;fill-rule:nonzero;fill:rgb(76.470588%,79.215686%,80.784314%);fill-opacity:1;" d="M 6.121094 17.804688 C 6.304688 17.699219 5.851562 17.675781 5.714844 17.316406 C 5.707031 17.292969 5.695312 17.273438 5.683594 17.257812 C 5.546875 17.351562 5.328125 17.464844 5.121094 17.546875 C 5.460938 17.769531 5.964844 17.890625 6.121094 17.804688 "/>
<path style=" stroke:none;fill-rule:nonzero;fill:rgb(76.470588%,79.215686%,80.784314%);fill-opacity:1;" d="M 21.445312 2.75 C 21.273438 2.464844 20.574219 2.113281 19.667969 2.082031 C 19.839844 2.335938 20.039062 2.667969 20.226562 3.074219 C 20.261719 3.066406 20.300781 3.058594 20.339844 3.039062 C 21.011719 2.769531 21.632812 3.0625 21.445312 2.75 "/>
<path style=" stroke:none;fill-rule:nonzero;fill:rgb(76.470588%,79.215686%,80.784314%);fill-opacity:1;" d="M 23.585938 2.890625 C 23.390625 2.816406 23.21875 2.785156 23.027344 2.738281 C 23.042969 2.816406 23.054688 2.898438 23.070312 2.988281 C 23.199219 2.9375 23.347656 2.9375 23.585938 2.890625 "/>
<path style=" stroke:none;fill-rule:nonzero;fill:rgb(76.470588%,79.215686%,80.784314%);fill-opacity:1;" d="M 26.175781 11.730469 C 25.851562 11.78125 26.410156 11.25 26.582031 10.5625 C 27.082031 10.320312 27.5625 10.039062 27.757812 9.925781 C 27.3125 10.859375 26.515625 11.679688 26.175781 11.730469 "/>
<path style=" stroke:none;fill-rule:nonzero;fill:rgb(76.470588%,79.215686%,80.784314%);fill-opacity:1;" d="M 24.960938 11.953125 C 24.664062 11.988281 25.035156 11.613281 25.054688 11.144531 C 25.367188 11.039062 25.640625 11 25.941406 10.863281 C 25.675781 11.429688 25.222656 11.921875 24.960938 11.953125 "/>
<path style=" stroke:none;fill-rule:nonzero;fill:rgb(76.470588%,79.215686%,80.784314%);fill-opacity:1;" d="M 23.722656 14.554688 C 23.558594 14.445312 24.140625 14.3125 24.429688 14.007812 C 24.515625 14.082031 24.90625 14.304688 25.046875 14.378906 C 24.59375 14.628906 23.894531 14.667969 23.722656 14.554688 "/>
<path style=" stroke:none;fill-rule:nonzero;fill:rgb(76.470588%,79.215686%,80.784314%);fill-opacity:1;" d="M 18.429688 3.453125 C 18.40625 3.425781 18.386719 3.398438 18.359375 3.371094 C 18.382812 3.398438 18.410156 3.425781 18.429688 3.453125 "/>
<path style=" stroke:none;fill-rule:nonzero;fill:rgb(64.313725%,12.156863%,20.784314%);fill-opacity:1;" d="M 18.429688 3.453125 C 18.480469 3.523438 18.53125 3.589844 18.582031 3.660156 L 18.582031 3.65625 C 18.53125 3.589844 18.480469 3.523438 18.429688 3.453125 "/>
<path style=" stroke:none;fill-rule:nonzero;fill:rgb(76.470588%,79.215686%,80.784314%);fill-opacity:1;" d="M 19.175781 3.566406 C 19.078125 3.425781 18.691406 3.3125 18.292969 3.292969 C 18.316406 3.320312 18.339844 3.347656 18.359375 3.371094 C 18.382812 3.398438 18.40625 3.425781 18.429688 3.453125 C 18.480469 3.523438 18.53125 3.589844 18.582031 3.65625 L 19.175781 3.566406 "/>
<path style=" stroke:none;fill-rule:nonzero;fill:rgb(64.313725%,12.156863%,20.784314%);fill-opacity:1;" d="M 14.863281 8.949219 C 14.796875 9.070312 14.660156 9.132812 14.585938 9.160156 C 14.496094 9.1875 14.257812 9.230469 14.101562 9.027344 C 13.898438 8.792969 13.859375 8.433594 13.992188 8.011719 L 14.042969 7.847656 C 14.042969 7.847656 13.589844 7.828125 13.253906 8.429688 C 12.792969 9.253906 12.769531 10.046875 12.839844 10.300781 C 12.910156 10.554688 12.839844 10.308594 12.839844 10.308594 C 12.871094 10.609375 13.089844 10.855469 13.292969 10.9375 L 13.285156 10.933594 C 13.558594 11.027344 13.699219 10.949219 13.902344 10.851562 L 13.894531 10.855469 C 14.316406 10.695312 14.582031 10.273438 14.734375 9.945312 C 15.015625 9.433594 15.035156 9.007812 15.035156 8.992188 Z M 14.863281 8.949219 "/>
<path style=" stroke:none;fill-rule:nonzero;fill:rgb(76.470588%,79.215686%,80.784314%);fill-opacity:1;" d="M 17.039062 11.28125 L 19.421875 10.664062 C 19.421875 10.664062 20.375 9.507812 20.703125 8.769531 C 20.648438 9.261719 20.480469 10.105469 20.453125 10.390625 L 21.945312 10.007812 C 21.945312 10.007812 23.570312 7.058594 23.953125 5.253906 L 22.375 5.507812 C 22.375 5.507812 22.003906 6.734375 21.722656 7.082031 L 21.53125 5.515625 L 20.609375 7.183594 C 20.609375 7.183594 20.582031 6.199219 20.503906 5.832031 L 18.425781 6.15625 C 18.523438 6.335938 18.679688 6.75 18.617188 7.125 C 18.554688 7.5 18.214844 9.773438 17.039062 11.28125 "/>
<path style=" stroke:none;fill-rule:nonzero;fill:rgb(76.470588%,79.215686%,80.784314%);fill-opacity:1;" d="M 24.292969 5.210938 C 24.160156 5.765625 23.375 8.390625 22.367188 9.894531 L 25.429688 9.097656 L 26.40625 7.007812 C 26.40625 7.007812 25.972656 7.636719 25.167969 7.746094 C 25.496094 7.023438 25.929688 5.726562 26.101562 4.902344 Z M 24.292969 5.210938 "/>
<path style=" stroke:none;fill-rule:nonzero;fill:rgb(76.470588%,79.215686%,80.784314%);fill-opacity:1;" d="M 26.773438 6.84375 C 26.773438 6.84375 26.289062 8.007812 26.1875 8.21875 C 26.089844 8.433594 26.277344 8.875 26.613281 8.792969 C 26.949219 8.710938 29.542969 8.039062 29.542969 8.039062 L 30.105469 6.589844 L 28.847656 5.75 C 28.847656 5.75 29.769531 5.609375 29.898438 5.597656 C 30.023438 5.589844 30.324219 5.734375 30.375 5.871094 C 30.375 5.871094 30.765625 4.808594 30.851562 4.628906 C 30.9375 4.449219 30.808594 4.148438 30.320312 4.214844 C 29.8125 4.289062 27.613281 4.65625 27.613281 4.65625 L 27.054688 6.199219 C 27.054688 6.199219 28.128906 6.84375 28.191406 6.902344 C 28.253906 6.960938 28.265625 7.054688 28.152344 7.097656 C 28.007812 7.152344 27.417969 7.28125 27.28125 7.328125 C 27.054688 7.410156 26.785156 7.007812 26.773438 6.84375 "/>
<path style=" stroke:none;fill-rule:nonzero;fill:rgb(100%,100%,100%);fill-opacity:1;" d="M 22.515625 5.679688 C 22.113281 6.957031 21.609375 7.675781 21.609375 7.675781 L 21.539062 7.105469 L 21.417969 6.109375 L 20.445312 7.871094 L 20.425781 7.1875 C 20.425781 7.179688 20.402344 6.46875 20.351562 6.050781 L 18.695312 6.3125 C 18.78125 6.542969 18.847656 6.855469 18.796875 7.160156 L 18.789062 7.207031 C 18.539062 8.730469 18.09375 10.015625 17.492188 10.964844 L 19.3125 10.496094 C 19.503906 10.222656 20.726562 8.589844 20.953125 7.925781 L 20.910156 8.542969 C 20.875 8.859375 20.824219 9.570312 20.710938 10.125 L 21.824219 9.839844 C 22.054688 9.410156 23.28125 7.097656 23.707031 5.488281 Z M 22.515625 5.679688 "/>
<path style=" stroke:none;fill-rule:nonzero;fill:rgb(100%,100%,100%);fill-opacity:1;" d="M 25.203125 7.9375 L 24.847656 8 L 25 7.664062 C 25.273438 7.0625 25.65625 5.96875 25.855469 5.140625 L 24.441406 5.382812 C 24.273438 6.019531 23.628906 8.113281 22.777344 9.589844 L 25.296875 8.933594 L 25.863281 7.726562 C 25.683594 7.8125 25.46875 7.890625 25.203125 7.9375 "/>
<path style=" stroke:none;fill-rule:nonzero;fill:rgb(100%,100%,100%);fill-opacity:1;" d="M 30.675781 4.472656 C 30.640625 4.421875 30.539062 4.378906 30.34375 4.40625 C 29.910156 4.46875 28.191406 4.753906 27.746094 4.828125 L 27.28125 6.117188 C 27.746094 6.394531 28.253906 6.703125 28.3125 6.757812 C 28.398438 6.835938 28.4375 6.945312 28.421875 7.046875 C 28.402344 7.152344 28.328125 7.234375 28.21875 7.277344 C 28.136719 7.3125 27.964844 7.351562 27.710938 7.414062 C 27.566406 7.449219 27.398438 7.492188 27.34375 7.511719 C 27.257812 7.542969 27.117188 7.554688 26.953125 7.4375 C 26.898438 7.398438 26.84375 7.34375 26.792969 7.285156 C 26.640625 7.648438 26.421875 8.167969 26.355469 8.308594 C 26.335938 8.347656 26.347656 8.460938 26.410156 8.542969 C 26.46875 8.617188 26.527344 8.613281 26.566406 8.605469 C 26.863281 8.53125 28.992188 7.980469 29.414062 7.871094 L 29.863281 6.65625 L 28.332031 5.636719 L 28.820312 5.5625 C 28.914062 5.546875 29.75 5.414062 29.882812 5.40625 C 29.988281 5.398438 30.15625 5.449219 30.300781 5.539062 C 30.421875 5.207031 30.621094 4.671875 30.683594 4.542969 C 30.691406 4.527344 30.695312 4.5 30.675781 4.472656 "/>
<path style=" stroke:none;fill-rule:nonzero;fill:rgb(64.313725%,12.156863%,20.784314%);fill-opacity:1;" d="M 19.136719 11.257812 L 16.433594 11.957031 L 15.996094 12.4375 L 18.753906 11.699219 Z M 19.136719 11.257812 "/>
<path style=" stroke:none;fill-rule:nonzero;fill:rgb(64.313725%,12.156863%,20.784314%);fill-opacity:1;" d="M 9.84375 13.71875 C 9.558594 13.390625 9.140625 12.761719 9.03125 11.890625 C 8.863281 10.515625 9.472656 9.152344 9.472656 9.152344 C 9.472656 9.152344 8.984375 10.902344 9.257812 11.914062 C 9.257812 11.914062 9.371094 12.753906 10.003906 13.558594 C 9.988281 13.589844 9.867188 13.695312 9.84375 13.71875 "/>
<path style=" stroke:none;fill-rule:nonzero;fill:rgb(64.313725%,12.156863%,20.784314%);fill-opacity:1;" d="M 20.078125 11.011719 L 19.6875 11.460938 L 21.25 11.042969 L 21.621094 10.609375 Z M 20.078125 11.011719 "/>
<path style=" stroke:none;fill-rule:nonzero;fill:rgb(64.313725%,12.156863%,20.784314%);fill-opacity:1;" d="M 21.996094 10.511719 L 25.140625 9.695312 L 24.800781 10.097656 L 21.628906 10.941406 L 21.980469 10.511719 "/>
<path style=" stroke:none;fill-rule:nonzero;fill:rgb(64.313725%,12.156863%,20.784314%);fill-opacity:1;" d="M 26.292969 9.398438 L 28.835938 8.730469 L 28.460938 9.125 L 25.953125 9.789062 Z M 26.292969 9.398438 "/>
<path style=" stroke:none;fill-rule:nonzero;fill:rgb(76.470588%,79.215686%,80.784314%);fill-opacity:1;" d="M 15.707031 9.132812 C 15.335938 10.339844 14.332031 11.332031 13.457031 11.351562 C 12.582031 11.371094 12.171875 10.40625 12.539062 9.199219 C 12.910156 7.996094 13.914062 7 14.789062 6.984375 C 15.664062 6.964844 16.074219 7.925781 15.707031 9.132812 M 17.898438 6.085938 C 17.433594 5.082031 16.511719 4.472656 15.296875 4.496094 C 15.207031 4.5 14.945312 4.492188 14.945312 4.492188 C 12.492188 4.800781 11.039062 5.957031 9.855469 7.582031 C 9.855469 7.582031 10.640625 7.191406 11.117188 7.046875 C 10.628906 7.730469 10.246094 8.511719 10.015625 9.351562 C 9.597656 10.890625 9.816406 12.25 10.492188 13.121094 C 10.597656 13.035156 10.914062 12.8125 11.171875 12.6875 C 11.589844 12.464844 12.15625 12.269531 12.644531 12.21875 C 12.644531 12.21875 12.398438 12.460938 12.347656 13.066406 C 12.558594 12.644531 12.824219 12.402344 13.15625 12.160156 C 13.671875 12.113281 14.167969 12.164062 14.566406 12.214844 C 14.746094 12.238281 15.058594 12.3125 15.402344 12.425781 C 16.144531 11.519531 17.246094 9.898438 17.628906 7.902344 C 17.765625 7.183594 17.394531 6.644531 17.394531 6.644531 Z M 17.898438 6.085938 "/>
<path style=" stroke:none;fill-rule:nonzero;fill:rgb(100%,100%,100%);fill-opacity:1;" d="M 15.882812 9.1875 C 15.484375 10.492188 14.417969 11.53125 13.453125 11.550781 C 13.050781 11.5625 12.707031 11.382812 12.484375 11.050781 C 12.179688 10.589844 12.136719 9.894531 12.363281 9.144531 C 12.761719 7.839844 13.828125 6.800781 14.792969 6.78125 C 15.195312 6.773438 15.539062 6.949219 15.761719 7.28125 C 16.066406 7.742188 16.109375 8.4375 15.882812 9.1875 M 17.761719 6.238281 C 17.675781 6.035156 17.570312 5.847656 17.445312 5.679688 C 16.957031 5.023438 16.195312 4.671875 15.300781 4.691406 C 15.210938 4.691406 15.046875 4.683594 15.046875 4.683594 C 14.632812 4.746094 12.59375 4.9375 10.621094 6.976562 C 10.621094 6.976562 11.566406 6.542969 12.273438 6.339844 C 12.113281 6.441406 11.707031 6.675781 11.484375 6.871094 C 10.898438 7.605469 10.453125 8.460938 10.195312 9.40625 C 9.816406 10.804688 9.964844 12.097656 10.601562 12.957031 C 10.617188 12.976562 10.628906 12.992188 10.644531 13.007812 C 10.789062 12.90625 10.996094 12.773438 11.171875 12.6875 C 11.589844 12.464844 12.15625 12.269531 12.644531 12.21875 C 12.644531 12.21875 12.398438 12.460938 12.347656 13.066406 C 12.558594 12.644531 12.824219 12.402344 13.15625 12.160156 C 13.671875 12.113281 14.167969 12.164062 14.566406 12.214844 C 14.746094 12.238281 15.058594 12.3125 15.402344 12.425781 C 16.144531 11.519531 17.246094 9.898438 17.628906 7.902344 C 17.765625 7.183594 17.394531 6.644531 17.394531 6.644531 Z M 17.761719 6.238281 "/>
<path style=" stroke:none;fill-rule:nonzero;fill:rgb(64.313725%,12.156863%,20.784314%);fill-opacity:1;" d="M 13.167969 20.429688 C 12.769531 20.339844 12.265625 19.871094 12.265625 19.871094 C 12.152344 19.972656 10.964844 21.148438 9.738281 21.71875 C 9.917969 21.867188 10.0625 21.972656 10.0625 21.972656 C 10.21875 22.054688 10.347656 22.125 10.460938 22.191406 C 10.828125 22.113281 11.058594 21.992188 11.050781 21.988281 C 10.859375 21.972656 10.683594 21.878906 10.597656 21.816406 C 10.597656 21.816406 11.933594 21.671875 12.277344 21.25 C 12.039062 21.265625 11.65625 21.203125 11.558594 21.105469 C 11.558594 21.105469 11.5625 21.109375 11.5625 21.109375 C 11.5625 21.113281 11.5625 21.113281 11.5625 21.109375 C 11.5625 21.109375 11.5625 21.109375 11.558594 21.105469 C 11.972656 21.046875 13.003906 20.710938 13.167969 20.429688 "/>
<path style=" stroke:none;fill-rule:nonzero;fill:rgb(5.490196%,5.882353%,9.019608%);fill-opacity:1;" d="M 11.871094 1.160156 L 11.902344 1.183594 C 11.890625 1.171875 11.882812 1.152344 11.871094 1.160156 "/>
<path style=" stroke:none;fill-rule:nonzero;fill:rgb(5.490196%,5.882353%,9.019608%);fill-opacity:1;" d="M 9.128906 2.199219 C 9.144531 2.191406 9.152344 2.1875 9.152344 2.1875 C 9.148438 2.1875 9.140625 2.191406 9.128906 2.199219 "/>
<path style=" stroke:none;fill-rule:nonzero;fill:rgb(76.470588%,79.215686%,80.784314%);fill-opacity:1;" d="M 5.898438 22.601562 C 5.964844 22.542969 6.117188 22.429688 6.238281 22.390625 C 6.261719 22.582031 6.304688 22.640625 6.328125 22.761719 C 6.214844 22.679688 6.210938 22.671875 6.125 22.652344 C 6.023438 22.71875 5.933594 22.855469 5.910156 22.929688 C 5.902344 22.785156 5.867188 22.695312 5.898438 22.601562 "/>
<path style=" stroke:none;fill-rule:nonzero;fill:rgb(100%,81.176471%,10.588235%);fill-opacity:1;" d="M 6.179688 22.984375 C 6.304688 23.03125 6.429688 23.351562 6.40625 23.441406 C 6.308594 23.605469 6.238281 23.703125 6.261719 23.945312 C 6.085938 23.738281 5.96875 23.457031 6.054688 23.1875 C 6.09375 23.117188 6.128906 23.046875 6.179688 22.984375 "/>
<path style=" stroke:none;fill-rule:nonzero;fill:rgb(76.470588%,79.215686%,80.784314%);fill-opacity:1;" d="M 6.589844 22.4375 C 6.515625 22.296875 6.496094 22.054688 6.523438 21.875 C 6.644531 21.769531 6.796875 21.65625 7.003906 21.570312 C 7.097656 21.542969 7.25 21.617188 7.25 21.617188 C 7.222656 21.824219 7.25 22.007812 7.292969 22.199219 C 7.1875 22.09375 7.105469 22.007812 6.9375 21.980469 C 6.828125 22.054688 6.671875 22.25 6.589844 22.4375 "/>
<path style=" stroke:none;fill-rule:nonzero;fill:rgb(100%,81.176471%,10.588235%);fill-opacity:1;" d="M 7.007812 22.285156 C 7.144531 22.421875 7.242188 22.765625 7.207031 22.976562 C 6.976562 23.207031 6.980469 23.394531 6.984375 23.695312 C 6.777344 23.449219 6.675781 23.136719 6.707031 22.808594 C 6.769531 22.621094 6.816406 22.390625 7.007812 22.285156 "/>
<path style=" stroke:none;fill-rule:nonzero;fill:rgb(76.470588%,79.215686%,80.784314%);fill-opacity:1;" d="M 7.5625 21.355469 C 7.753906 21.214844 8.097656 21.027344 8.097656 21.027344 C 8.566406 21.191406 9.15625 21.625 9.429688 22.066406 C 9.699219 22.367188 10.386719 22.574219 10.609375 23.027344 C 10.625 23.253906 10.519531 23.710938 10.367188 23.710938 C 10.292969 23.738281 10.25 23.667969 10.097656 23.65625 C 9.945312 23.644531 9.777344 23.722656 9.777344 23.722656 C 9.554688 23.3125 10.175781 23.21875 9.941406 22.832031 C 9.425781 22.851562 8.996094 22.5 8.777344 22.078125 C 8.664062 22.070312 8.738281 22.402344 8.425781 22.410156 C 8.378906 21.949219 8.175781 21.601562 7.886719 21.496094 C 7.746094 21.617188 7.582031 21.757812 7.511719 21.929688 C 7.558594 21.738281 7.445312 21.523438 7.5625 21.355469 "/>
<path style=" stroke:none;fill-rule:nonzero;fill:rgb(100%,81.176471%,10.588235%);fill-opacity:1;" d="M 7.929688 21.84375 C 8.066406 21.984375 8.179688 22.300781 8.144531 22.515625 C 7.871094 22.769531 7.835938 23.144531 7.824219 23.226562 C 7.59375 22.847656 7.464844 22.285156 7.839844 21.894531 C 7.859375 21.863281 7.890625 21.84375 7.929688 21.84375 "/>
<path style=" stroke:none;fill-rule:nonzero;fill:rgb(100%,81.176471%,10.588235%);fill-opacity:1;" d="M 9.808594 23.957031 C 9.941406 23.859375 10.207031 23.945312 10.253906 23.957031 C 10.152344 24.3125 9.847656 24.515625 9.554688 24.59375 C 9.703125 24.449219 9.796875 24.003906 9.808594 23.957031 "/>
<path style=" stroke:none;fill-rule:nonzero;fill:rgb(76.470588%,79.215686%,80.784314%);fill-opacity:1;" d="M 14.199219 19.042969 C 14.441406 18.980469 14.769531 18.949219 14.769531 18.949219 C 15.089844 19.210938 15.238281 19.542969 15.3125 19.722656 C 15.304688 19.878906 15.3125 20.09375 15.230469 20.378906 C 15.167969 20.601562 14.921875 20.902344 14.875 20.894531 C 14.964844 20.515625 14.808594 20.089844 14.679688 19.886719 C 14.554688 19.679688 14.402344 19.59375 14.292969 19.542969 C 14.09375 19.675781 13.851562 20.023438 13.785156 20.3125 C 13.792969 19.84375 13.890625 19.40625 14.199219 19.042969 "/>
<path style=" stroke:none;fill-rule:nonzero;fill:rgb(100%,81.176471%,10.588235%);fill-opacity:1;" d="M 14.308594 19.875 C 14.550781 20.144531 14.714844 20.601562 14.542969 20.949219 C 14.484375 21.121094 14.511719 21.523438 14.574219 21.773438 C 14.160156 21.511719 13.898438 21.019531 13.96875 20.511719 C 14.003906 20.261719 14.160156 20.015625 14.308594 19.875 "/>
<path style=" stroke:none;fill-rule:nonzero;fill:rgb(76.470588%,79.215686%,80.784314%);fill-opacity:1;" d="M 15.855469 19.148438 C 15.902344 18.972656 15.976562 18.570312 16.222656 18.375 C 16.28125 18.367188 16.621094 18.320312 16.871094 18.335938 C 17.421875 18.941406 17.417969 19.75 17.402344 19.84375 C 17.390625 19.9375 17.390625 20.25 17.214844 20.414062 C 17.214844 20.414062 17.214844 20.070312 17.175781 19.878906 C 17.136719 19.691406 16.886719 19.035156 16.488281 18.917969 C 16.128906 19.207031 15.996094 19.679688 15.925781 20.054688 C 15.800781 19.757812 15.8125 19.328125 15.855469 19.148438 "/>
<path style=" stroke:none;fill-rule:nonzero;fill:rgb(100%,81.176471%,10.588235%);fill-opacity:1;" d="M 16.519531 19.308594 C 16.699219 19.378906 17.015625 19.925781 16.964844 20.382812 C 16.839844 20.671875 16.765625 21.136719 16.808594 21.449219 C 16.308594 21.015625 16.128906 20.464844 16.257812 19.863281 C 16.300781 19.671875 16.394531 19.46875 16.519531 19.308594 "/>
<path style=" stroke:none;fill-rule:nonzero;fill:rgb(100%,81.176471%,10.588235%);fill-opacity:1;" d="M 17.25 23.445312 C 17.492188 23.269531 17.964844 23.425781 17.894531 23.609375 C 17.5625 24.035156 17.042969 24.253906 16.515625 24.277344 C 16.8125 24.085938 17.046875 23.71875 17.25 23.445312 "/>
<path style=" stroke:none;fill-rule:nonzero;fill:rgb(76.470588%,79.215686%,80.784314%);fill-opacity:1;" d="M 17.371094 22.535156 C 17.621094 22.453125 17.859375 22.410156 18.097656 22.585938 C 18.226562 22.585938 18.316406 22.550781 18.402344 22.410156 C 18.484375 22.265625 18.640625 21.992188 18.640625 21.992188 C 18.691406 22.390625 18.519531 23.1875 18.089844 23.28125 C 17.890625 23.078125 17.515625 23.078125 17.328125 23.140625 C 17.261719 23.164062 17.164062 23.230469 17.089844 23.214844 C 16.917969 22.875 17.183594 22.609375 17.371094 22.535156 "/>
<path style=" stroke:none;fill-rule:nonzero;fill:rgb(76.470588%,79.215686%,80.784314%);fill-opacity:1;" d="M 18.265625 18.238281 C 17.964844 18.519531 17.75 18.972656 17.753906 19.480469 C 17.753906 19.707031 17.855469 20.144531 18.121094 20.3125 C 17.871094 19.867188 18.199219 19.226562 18.304688 19.085938 C 18.410156 18.933594 18.601562 18.757812 18.695312 18.734375 C 18.800781 18.8125 19.191406 19.308594 19.203125 19.6875 C 19.269531 19.21875 19.179688 18.796875 18.910156 18.4375 C 18.796875 18.328125 18.34375 18.238281 18.265625 18.238281 "/>
<path style=" stroke:none;fill-rule:nonzero;fill:rgb(100%,81.176471%,10.588235%);fill-opacity:1;" d="M 18.679688 19.109375 C 19.101562 19.523438 19.175781 20.363281 18.84375 20.910156 C 18.785156 21 18.757812 21.105469 18.664062 21.171875 C 18.664062 20.773438 18.484375 20.417969 18.460938 20.402344 C 18.222656 20.199219 18.324219 19.746094 18.378906 19.585938 C 18.429688 19.425781 18.566406 19.210938 18.679688 19.109375 "/>
<path style=" stroke:none;fill-rule:nonzero;fill:rgb(100%,100%,100%);fill-opacity:1;" d="M 20.347656 4.28125 L 20.609375 4.453125 L 20.824219 3.949219 L 19.074219 4.234375 L 18.839844 4.785156 L 19.386719 4.4375 L 19.527344 4.417969 L 19.132812 5.347656 L 18.609375 5.679688 L 19.976562 5.453125 L 19.71875 5.292969 L 20.132812 4.316406 Z M 20.347656 4.28125 "/>
<path style=" stroke:none;fill-rule:nonzero;fill:rgb(100%,100%,100%);fill-opacity:1;" d="M 18.964844 5.542969 L 19.195312 5.398438 L 19.648438 4.320312 L 19.359375 4.367188 L 19.003906 4.59375 L 19.125 4.300781 L 20.699219 4.042969 L 20.574219 4.339844 L 20.363281 4.203125 L 20.078125 4.25 L 19.625 5.320312 L 19.769531 5.414062 Z M 18.964844 5.542969 "/>
<path style=" stroke:none;fill-rule:nonzero;fill:rgb(100%,100%,100%);fill-opacity:1;" d="M 22.351562 4.035156 L 21.984375 4.273438 L 21.765625 4.308594 L 21.882812 4.027344 L 22.332031 3.953125 L 22.40625 4 Z M 21.050781 3.90625 L 21.300781 4.070312 L 20.882812 5.058594 L 20.359375 5.386719 L 22.1875 5.089844 L 22.421875 4.539062 L 21.875 4.882812 L 21.496094 4.945312 L 21.648438 4.582031 L 21.9375 4.535156 L 22.15625 4.679688 L 22.433594 4.019531 L 22.59375 4.125 L 22.808594 3.621094 Z M 21.050781 3.90625 "/>
<path style=" stroke:none;fill-rule:nonzero;fill:rgb(100%,100%,100%);fill-opacity:1;" d="M 21.640625 4.402344 L 22.011719 4.34375 L 22.289062 4.164062 L 22.121094 4.566406 L 21.953125 4.457031 L 21.59375 4.515625 L 21.371094 5.042969 L 21.902344 4.957031 L 22.257812 4.730469 L 22.132812 5.019531 L 20.714844 5.253906 L 20.945312 5.109375 L 21.394531 4.042969 L 21.257812 3.949219 L 22.6875 3.714844 L 22.5625 4.011719 L 22.351562 3.875 L 21.832031 3.957031 Z M 21.640625 4.402344 "/>
<path style=" stroke:none;fill-rule:nonzero;fill:rgb(100%,100%,100%);fill-opacity:1;" d="M 24.394531 4.476562 L 23.871094 4.808594 L 25.238281 4.585938 L 24.980469 4.421875 L 25.398438 3.4375 L 25.929688 3.105469 L 24.929688 3.269531 L 24.238281 3.875 L 23.996094 3.421875 L 23.082031 3.570312 L 23.328125 3.734375 L 22.914062 4.722656 L 22.390625 5.050781 L 23.566406 4.859375 L 23.308594 4.699219 L 23.605469 4 L 23.890625 4.550781 L 24.644531 3.886719 Z M 24.394531 4.476562 "/>
<path style=" stroke:none;fill-rule:nonzero;fill:rgb(100%,100%,100%);fill-opacity:1;" d="M 23.285156 3.613281 L 23.957031 3.503906 L 24.214844 3.996094 L 24.964844 3.339844 L 25.570312 3.238281 L 25.339844 3.386719 L 24.886719 4.453125 L 25.03125 4.542969 L 24.226562 4.675781 L 24.453125 4.53125 L 24.84375 3.609375 L 23.914062 4.429688 L 23.597656 3.824219 L 23.214844 4.726562 L 23.355469 4.816406 L 22.742188 4.917969 L 22.972656 4.773438 L 23.425781 3.707031 Z M 23.285156 3.613281 "/>
<path style=" stroke:none;fill-rule:nonzero;fill:rgb(100%,100%,100%);fill-opacity:1;" d="M 29.300781 3.410156 L 28.746094 3.753906 L 28.402344 3.808594 L 28.820312 2.871094 L 29.351562 2.542969 L 27.996094 2.75 L 28.234375 2.917969 L 27.789062 3.910156 L 27.265625 4.238281 L 29.050781 3.964844 Z M 29.300781 3.410156 "/>
<path style=" stroke:none;fill-rule:nonzero;fill:rgb(100%,100%,100%);fill-opacity:1;" d="M 27.851562 3.964844 L 28.332031 2.890625 L 28.195312 2.796875 L 28.996094 2.675781 L 28.761719 2.820312 L 28.277344 3.902344 L 28.773438 3.828125 L 29.128906 3.605469 L 29 3.894531 L 27.617188 4.105469 Z M 27.851562 3.964844 "/>
<path style=" stroke:none;fill-rule:nonzero;fill:rgb(100%,100%,100%);fill-opacity:1;" d="M 31.203125 2.582031 L 30.828125 2.816406 L 30.613281 2.851562 L 30.742188 2.566406 L 31.1875 2.5 L 31.257812 2.546875 Z M 29.921875 2.4375 L 30.164062 2.601562 L 29.71875 3.597656 L 29.191406 3.921875 L 31.011719 3.644531 L 31.257812 3.089844 L 30.703125 3.433594 L 30.328125 3.492188 L 30.492188 3.125 L 30.777344 3.082031 L 30.988281 3.230469 L 31.285156 2.566406 L 31.441406 2.675781 L 31.671875 2.167969 Z M 29.921875 2.4375 "/>
<path style=" stroke:none;fill-rule:nonzero;fill:rgb(100%,100%,100%);fill-opacity:1;" d="M 30.488281 2.945312 L 30.855469 2.890625 L 31.140625 2.710938 L 30.957031 3.117188 L 30.796875 3.003906 L 30.441406 3.058594 L 30.203125 3.585938 L 30.730469 3.507812 L 31.089844 3.285156 L 30.957031 3.574219 L 29.546875 3.792969 L 29.777344 3.648438 L 30.257812 2.578125 L 30.121094 2.484375 L 31.546875 2.265625 L 31.410156 2.5625 L 31.207031 2.417969 L 30.691406 2.5 Z M 30.488281 2.945312 "/>
<path style=" stroke:none;fill-rule:nonzero;fill:rgb(100%,100%,100%);fill-opacity:1;" d="M 26.402344 4.199219 L 26.550781 3.871094 L 26.734375 3.839844 C 27.4375 3.734375 27.871094 3.390625 27.832031 3.136719 C 27.800781 2.9375 27.511719 2.859375 27.058594 2.929688 L 26.023438 3.085938 L 26.261719 3.253906 L 25.820312 4.246094 L 25.292969 4.574219 L 26.648438 4.367188 Z M 26.402344 4.199219 "/>
<path style=" stroke:none;fill-rule:nonzero;fill:rgb(76.470588%,79.215686%,80.784314%);fill-opacity:1;" d="M 18.964844 5.542969 L 19.195312 5.398438 L 19.648438 4.320312 L 19.359375 4.367188 L 19.003906 4.59375 L 19.125 4.300781 L 20.699219 4.042969 L 20.574219 4.339844 L 20.363281 4.203125 L 20.078125 4.25 L 19.625 5.320312 L 19.769531 5.414062 Z M 18.964844 5.542969 "/>
<path style=" stroke:none;fill-rule:nonzero;fill:rgb(76.470588%,79.215686%,80.784314%);fill-opacity:1;" d="M 21.640625 4.402344 L 22.011719 4.34375 L 22.289062 4.164062 L 22.121094 4.566406 L 21.953125 4.457031 L 21.59375 4.515625 L 21.371094 5.042969 L 21.902344 4.957031 L 22.257812 4.730469 L 22.132812 5.019531 L 20.714844 5.253906 L 20.945312 5.109375 L 21.394531 4.042969 L 21.257812 3.949219 L 22.6875 3.714844 L 22.5625 4.011719 L 22.351562 3.875 L 21.832031 3.957031 Z M 21.640625 4.402344 "/>
<path style=" stroke:none;fill-rule:nonzero;fill:rgb(76.470588%,79.215686%,80.784314%);fill-opacity:1;" d="M 23.285156 3.613281 L 23.957031 3.503906 L 24.214844 3.996094 L 24.964844 3.339844 L 25.570312 3.238281 L 25.339844 3.386719 L 24.886719 4.453125 L 25.03125 4.542969 L 24.226562 4.675781 L 24.453125 4.53125 L 24.84375 3.609375 L 23.914062 4.429688 L 23.597656 3.824219 L 23.214844 4.726562 L 23.355469 4.816406 L 22.742188 4.917969 L 22.972656 4.773438 L 23.425781 3.707031 Z M 23.285156 3.613281 "/>
<path style=" stroke:none;fill-rule:nonzero;fill:rgb(76.470588%,79.215686%,80.784314%);fill-opacity:1;" d="M 26.5 3.800781 L 26.308594 4.226562 L 26.445312 4.320312 L 25.644531 4.441406 L 25.878906 4.300781 L 26.359375 3.226562 L 26.222656 3.132812 L 27.070312 3.003906 C 27.550781 2.929688 27.738281 3.035156 27.757812 3.148438 C 27.785156 3.335938 27.40625 3.660156 26.722656 3.765625 Z M 26.5 3.800781 "/>
<path style=" stroke:none;fill-rule:nonzero;fill:rgb(76.470588%,79.215686%,80.784314%);fill-opacity:1;" d="M 27.851562 3.964844 L 28.332031 2.890625 L 28.195312 2.796875 L 28.996094 2.675781 L 28.761719 2.820312 L 28.277344 3.902344 L 28.773438 3.828125 L 29.128906 3.605469 L 29 3.894531 L 27.617188 4.105469 Z M 27.851562 3.964844 "/>
<path style=" stroke:none;fill-rule:nonzero;fill:rgb(76.470588%,79.215686%,80.784314%);fill-opacity:1;" d="M 30.488281 2.945312 L 30.855469 2.890625 L 31.140625 2.710938 L 30.957031 3.117188 L 30.796875 3.003906 L 30.441406 3.058594 L 30.203125 3.585938 L 30.730469 3.507812 L 31.089844 3.285156 L 30.957031 3.574219 L 29.546875 3.792969 L 29.777344 3.648438 L 30.257812 2.578125 L 30.121094 2.484375 L 31.546875 2.265625 L 31.410156 2.5625 L 31.207031 2.417969 L 30.691406 2.5 Z M 30.488281 2.945312 "/>
<path style=" stroke:none;fill-rule:nonzero;fill:rgb(100%,100%,100%);fill-opacity:1;" d="M 27.191406 3.308594 C 27.140625 3.425781 26.941406 3.554688 26.765625 3.578125 C 26.765625 3.578125 26.71875 3.585938 26.675781 3.59375 L 26.84375 3.21875 C 26.875 3.214844 27.023438 3.191406 27.023438 3.191406 C 27.105469 3.179688 27.167969 3.191406 27.195312 3.222656 C 27.210938 3.246094 27.203125 3.28125 27.191406 3.308594 M 26.789062 3.148438 L 26.546875 3.691406 L 26.777344 3.65625 C 26.980469 3.625 27.195312 3.480469 27.261719 3.335938 C 27.289062 3.277344 27.285156 3.21875 27.253906 3.175781 C 27.210938 3.121094 27.125 3.097656 27.011719 3.117188 Z M 26.789062 3.148438 "/>
<path style=" stroke:none;fill-rule:nonzero;fill:rgb(5.490196%,5.882353%,9.019608%);fill-opacity:1;" d="M 27.191406 3.308594 C 27.140625 3.425781 26.941406 3.554688 26.765625 3.578125 C 26.765625 3.578125 26.71875 3.585938 26.675781 3.59375 L 26.84375 3.21875 C 26.875 3.214844 27.023438 3.191406 27.023438 3.191406 C 27.105469 3.179688 27.167969 3.191406 27.195312 3.222656 C 27.210938 3.246094 27.203125 3.28125 27.191406 3.308594 "/>
<path style=" stroke:none;fill-rule:nonzero;fill:rgb(76.470588%,79.215686%,80.784314%);fill-opacity:1;" d="M 25.628906 13.554688 C 25.390625 13.496094 25.949219 13.273438 26.15625 12.796875 C 26.523438 12.8125 26.910156 12.839844 27.078125 12.820312 C 26.65625 13.300781 25.875 13.613281 25.628906 13.554688 "/>
<path style=" stroke:none;fill-rule:nonzero;fill:rgb(76.470588%,79.215686%,80.784314%);fill-opacity:1;" d="M 24.574219 13.300781 C 24.359375 13.242188 24.855469 12.945312 24.921875 12.648438 C 25.15625 12.667969 25.359375 12.738281 25.585938 12.730469 C 25.335938 13.023438 24.765625 13.351562 24.574219 13.300781 "/>
<path style=" stroke:none;fill-rule:nonzero;fill:rgb(100%,100%,100%);fill-opacity:1;" d="M 22.726562 14.957031 L 22.726562 15.128906 L 22.769531 15.128906 L 22.769531 14.917969 L 22.230469 14.917969 L 22.230469 15.128906 L 22.273438 15.128906 L 22.273438 14.957031 Z M 22.726562 14.957031 "/>
<path style=" stroke:none;fill-rule:nonzero;fill:rgb(100%,100%,100%);fill-opacity:1;" d="M 22.355469 15.5 L 22.660156 15.5 L 22.660156 15.550781 L 22.355469 15.550781 Z M 22.355469 15.5 "/>
<path style=" stroke:none;fill-rule:nonzero;fill:rgb(100%,100%,100%);fill-opacity:1;" d="M 22.335938 15.019531 L 22.335938 15.128906 L 22.375 15.128906 L 22.375 15.058594 L 22.429688 15.058594 L 22.429688 15.40625 L 22.355469 15.40625 L 22.355469 15.453125 L 22.472656 15.453125 L 22.472656 15.019531 Z M 22.335938 15.019531 "/>
<path style=" stroke:none;fill-rule:nonzero;fill:rgb(100%,100%,100%);fill-opacity:1;" d="M 22.535156 15.019531 L 22.535156 15.453125 L 22.652344 15.453125 L 22.652344 15.40625 L 22.578125 15.40625 L 22.578125 15.058594 L 22.628906 15.058594 L 22.628906 15.128906 L 22.671875 15.128906 L 22.671875 15.019531 Z M 22.535156 15.019531 "/>
</g>
</svg>
