<?xml version="1.0" encoding="UTF-8"?>
<svg xmlns="http://www.w3.org/2000/svg" xmlns:xlink="http://www.w3.org/1999/xlink" width="35pt" height="25pt" viewBox="0 0 35 25" version="1.1">
<g id="surface1">
<path style=" stroke:none;fill-rule:evenodd;fill:rgb(100%,100%,100%);fill-opacity:1;" d="M 5.25 25 L 30.25 25 L 30.25 0 L 5.25 0 Z M 5.25 25 "/>
<path style=" stroke:none;fill-rule:evenodd;fill:rgb(13.72549%,12.156863%,12.54902%);fill-opacity:1;" d="M 11.484375 6.683594 L 9.539062 11.601562 L 12.554688 11.601562 L 13.425781 10.488281 L 15.257812 10.488281 C 15.257812 10.488281 13.371094 15.472656 12.445312 17.671875 C 12.359375 17.878906 12.28125 18.0625 12.214844 18.210938 C 11.894531 18.929688 11.535156 19.738281 10.304688 19.691406 L 9.230469 22.429688 L 17.5625 22.5625 L 18.421875 19.785156 C 17.953125 19.695312 17.550781 19.527344 17.367188 19.253906 C 17.074219 18.828125 17.359375 18.398438 17.429688 18.195312 C 17.566406 17.832031 20.472656 10.921875 20.472656 10.921875 L 22.195312 10.988281 L 22.457031 12.046875 L 25.371094 12.046875 L 27.421875 6.6875 L 11.484375 6.683594 "/>
<path style=" stroke:none;fill-rule:evenodd;fill:rgb(100%,100%,100%);fill-opacity:1;" d="M 12 17.527344 C 12 17.527344 12 17.527344 12 17.53125 L 12.039062 17.429688 L 12 17.527344 "/>
<path style=" stroke:none;fill-rule:evenodd;fill:rgb(100%,100%,100%);fill-opacity:1;" d="M 12.039062 17.429688 L 12.058594 17.382812 L 12.039062 17.429688 "/>
<path style=" stroke:none;fill-rule:evenodd;fill:rgb(100%,100%,100%);fill-opacity:1;" d="M 12.082031 17.332031 L 12.191406 17.070312 C 10.683594 15.9375 9.710938 14.59375 9.183594 13.71875 C 9.289062 13.992188 9.40625 14.273438 9.550781 14.558594 C 10.171875 15.800781 11.265625 16.75 12.082031 17.332031 "/>
<path style=" stroke:none;fill-rule:evenodd;fill:rgb(12.156863%,59.607843%,86.666667%);fill-opacity:1;" d="M 26.238281 6.453125 C 26.234375 6.40625 26.230469 6.363281 26.222656 6.316406 C 26.054688 5.304688 25.074219 4.175781 23.65625 3.367188 C 22.425781 2.664062 19.078125 1.214844 14.496094 2.875 C 11.378906 3.945312 9.769531 6.214844 8.847656 8.167969 C 8.558594 8.808594 7.296875 11.511719 9.078125 15.035156 C 9.800781 16.46875 11.0625 17.519531 11.953125 18.128906 C 12.003906 18.011719 12.0625 17.886719 12.121094 17.746094 C 12.117188 17.746094 12.117188 17.746094 12.117188 17.742188 L 12.089844 17.800781 C 11.238281 17.207031 10.070312 16.21875 9.394531 14.882812 C 9.339844 14.769531 9.285156 14.660156 9.234375 14.542969 C 8.640625 13.242188 8.488281 12.074219 8.511719 11.148438 C 8.515625 10.773438 8.550781 10.433594 8.613281 10.164062 C 8.785156 9.195312 9.121094 8.558594 9.238281 8.351562 C 9.265625 8.296875 9.289062 8.242188 9.316406 8.183594 C 9.53125 7.609375 10.820312 4.632812 14.699219 3.238281 C 20.785156 1.054688 25.546875 4.246094 25.898438 6.371094 C 25.902344 6.398438 25.90625 6.425781 25.90625 6.453125 C 25.929688 6.621094 25.925781 6.777344 25.894531 6.910156 L 26.230469 6.910156 C 26.253906 6.777344 26.257812 6.628906 26.238281 6.453125 "/>
<path style=" stroke:none;fill-rule:evenodd;fill:rgb(13.72549%,12.156863%,12.54902%);fill-opacity:1;" d="M 25.898438 6.371094 C 25.546875 4.246094 20.785156 1.054688 14.699219 3.238281 C 14.519531 3.304688 14.347656 3.371094 14.179688 3.445312 C 14.167969 3.449219 14.160156 3.453125 14.148438 3.457031 C 9.945312 5.164062 8.785156 9.195312 8.613281 10.164062 C 8.5625 10.449219 8.523438 10.78125 8.511719 11.148438 C 8.488281 12.074219 8.640625 13.242188 9.234375 14.542969 C 9.285156 14.65625 9.339844 14.769531 9.394531 14.882812 C 10.078125 16.214844 11.238281 17.207031 12.089844 17.800781 L 12.117188 17.742188 L 12.175781 17.605469 L 12.21875 17.507812 C 11.398438 16.925781 10.300781 15.984375 9.675781 14.746094 C 9.53125 14.460938 9.410156 14.183594 9.308594 13.910156 C 8.679688 12.25 12.859375 6.917969 13.664062 6.824219 C 13.878906 6.796875 14.078125 6.792969 14.246094 6.6875 C 14.480469 6.539062 14.613281 6.390625 14.589844 6.195312 C 14.582031 6.132812 14.539062 6.050781 14.507812 6 C 15.148438 6.050781 15.878906 6.292969 17.285156 6.996094 C 18.507812 7.609375 19.019531 7.398438 19.230469 7.113281 C 19.402344 6.875 19.390625 6.550781 19.277344 6.308594 C 19.5 6.445312 19.722656 6.601562 19.933594 6.769531 C 20.644531 7.332031 21.09375 7.546875 21.394531 7.46875 C 21.496094 7.445312 21.628906 7.371094 21.695312 7.179688 C 21.722656 7.09375 21.773438 6.988281 21.847656 6.960938 C 21.972656 6.914062 22.230469 7.0625 22.480469 7.203125 C 22.882812 7.433594 23.378906 7.71875 23.851562 7.519531 C 24.125 7.402344 24.160156 7.136719 24.179688 6.988281 C 24.242188 7.019531 24.34375 7.082031 24.511719 7.207031 C 24.867188 7.46875 25.324219 7.515625 25.621094 7.316406 C 25.894531 7.136719 25.964844 6.789062 25.898438 6.371094 "/>
<path style=" stroke:none;fill-rule:evenodd;fill:rgb(40%,62.352941%,67.843137%);fill-opacity:1;" d="M 12.921875 12.265625 L 8.976562 12.265625 L 9.152344 11.820312 C 8.984375 11.214844 8.933594 10.550781 8.996094 9.867188 C 8.765625 10.839844 8.679688 12.25 9.308594 13.910156 C 9.835938 14.78125 10.8125 16.121094 12.328125 17.242188 L 12.21875 17.507812 L 12.195312 17.558594 L 12.175781 17.605469 L 12.179688 17.605469 C 13.082031 15.476562 14.734375 11.15625 14.734375 11.15625 L 13.800781 11.15625 L 12.921875 12.265625 "/>
<path style=" stroke:none;fill-rule:evenodd;fill:rgb(40%,62.352941%,67.843137%);fill-opacity:1;" d="M 25.492188 6.4375 C 25.195312 5.128906 22.535156 2.21875 16.960938 3.019531 C 16.796875 3.042969 16.375 3.152344 16.214844 3.183594 C 17.484375 3.1875 18.699219 3.488281 18.699219 3.488281 C 17.769531 3.332031 16.515625 3.292969 15.304688 3.589844 C 10.550781 4.753906 8.644531 9.421875 9.375 11.675781 C 10.804688 7.917969 11.960938 6.660156 13.550781 6.453125 C 13.71875 6.433594 13.925781 6.359375 14.023438 6.328125 C 14.128906 6.292969 14.160156 6.175781 14.164062 6.167969 C 14.222656 5.667969 13.472656 5.613281 13.472656 5.613281 L 13.878906 5.582031 C 14.796875 5.519531 15.527344 5.652344 17.457031 6.617188 C 18.320312 7.050781 18.765625 7.019531 18.890625 6.84375 C 18.988281 6.714844 18.941406 6.457031 18.886719 6.355469 C 18.449219 5.53125 16.835938 5.179688 16.835938 5.179688 C 16.835938 5.179688 18.472656 5.261719 20.132812 6.464844 C 20.972656 7.070312 21.109375 7.121094 21.269531 7.050781 C 21.425781 6.984375 21.511719 6.617188 21.6875 6.554688 C 21.984375 6.445312 22.3125 6.632812 22.660156 6.828125 C 23.011719 7.03125 23.378906 7.238281 23.664062 7.113281 C 23.730469 7.085938 23.746094 7.039062 23.765625 6.894531 C 23.78125 6.777344 23.804688 6.605469 23.964844 6.542969 C 24.125 6.476562 24.320312 6.554688 24.734375 6.859375 C 24.945312 7.015625 25.214844 7.050781 25.375 6.941406 C 25.542969 6.832031 25.53125 6.605469 25.492188 6.4375 "/>
<path style=" stroke:none;fill-rule:evenodd;fill:rgb(100%,100%,100%);fill-opacity:1;" d="M 11.160156 12.03125 C 11.996094 13.425781 13.167969 13.902344 13.167969 13.902344 C 12.382812 13.203125 11.824219 12.542969 11.445312 11.945312 L 11.160156 12.03125 "/>
<path style=" stroke:none;fill-rule:evenodd;fill:rgb(100%,100%,100%);fill-opacity:1;" d="M 10.214844 12.058594 C 10.527344 12.894531 11.207031 13.957031 12.664062 14.773438 C 11.507812 13.886719 10.902344 12.886719 10.617188 12.03125 L 10.214844 12.058594 "/>
<path style=" stroke:none;fill-rule:evenodd;fill:rgb(13.72549%,12.156863%,12.54902%);fill-opacity:1;" d="M 11.492188 11.855469 C 11.757812 12.503906 12.257812 13.226562 13.167969 13.902344 C 12.488281 13.222656 12.09375 12.535156 11.882812 11.898438 L 11.492188 11.855469 "/>
<path style=" stroke:none;fill-rule:evenodd;fill:rgb(100%,100%,100%);fill-opacity:1;" d="M 20.808594 6.261719 C 20.808594 6.261719 21.4375 5.253906 22.703125 6.121094 C 22.542969 5.757812 21.285156 4.453125 18.910156 4.152344 C 18.910156 4.152344 21.640625 4.230469 23.09375 6.023438 C 23.355469 5.351562 24.632812 6.089844 24.632812 6.089844 C 24.554688 5.640625 23.910156 4.476562 22.183594 3.84375 C 22.183594 3.84375 24.71875 4.535156 25.167969 6.402344 C 25.234375 6.679688 24.941406 6.695312 24.683594 6.484375 C 24.449219 6.292969 24.125 6.15625 23.828125 6.160156 C 23.332031 6.167969 23.636719 6.632812 23.253906 6.726562 C 22.933594 6.800781 22.335938 6.089844 21.535156 6.265625 C 21.039062 6.371094 21.367188 7.046875 20.535156 6.433594 C 19.707031 5.820312 18.730469 5.066406 16.050781 4.890625 C 16.050781 4.890625 18.855469 4.734375 20.808594 6.261719 "/>
<path style=" stroke:none;fill-rule:evenodd;fill:rgb(100%,100%,100%);fill-opacity:1;" d="M 18.074219 6.125 C 18.035156 6.023438 18.089844 5.875 18.277344 6.078125 C 18.386719 6.203125 18.449219 6.339844 18.363281 6.464844 C 18.007812 6.957031 16.082031 5.410156 14.761719 5.378906 C 14.761719 5.378906 15.695312 5.375 17.441406 6.175781 C 17.933594 6.402344 18.160156 6.359375 18.074219 6.125 "/>
<path style=" stroke:none;fill-rule:evenodd;fill:rgb(100%,100%,100%);fill-opacity:1;" d="M 18.640625 3.480469 C 18.660156 3.484375 18.679688 3.484375 18.699219 3.488281 C 18.699219 3.488281 18.679688 3.484375 18.640625 3.480469 "/>
<path style=" stroke:none;fill-rule:evenodd;fill:rgb(100%,100%,100%);fill-opacity:1;" d="M 18.640625 3.480469 C 17.714844 3.332031 16.488281 3.300781 15.304688 3.589844 C 10.757812 4.703125 8.816406 9.023438 9.292969 11.367188 L 9.476562 12.21875 C 10.1875 14.25 12.6875 15.519531 12.6875 15.519531 C 10.757812 14.214844 10.152344 12.945312 9.855469 12.082031 L 9.753906 11.765625 C 9.753906 11.765625 8.8125 8.984375 11.691406 6 C 14.570312 3.015625 18.136719 3.40625 18.640625 3.480469 "/>
<path style=" stroke:none;fill-rule:evenodd;fill:rgb(12.156863%,59.607843%,86.666667%);fill-opacity:1;" d="M 26.238281 6.453125 C 26.257812 6.628906 26.253906 6.777344 26.230469 6.910156 L 27.109375 6.910156 L 25.195312 11.804688 L 22.664062 11.804688 L 22.496094 10.695312 L 20.304688 10.695312 C 20.304688 10.695312 17.304688 18.003906 17.171875 18.367188 C 17.097656 18.566406 16.925781 19.03125 17.21875 19.453125 C 17.40625 19.726562 17.722656 19.898438 18.199219 19.984375 L 17.25 22.363281 L 9.429688 22.363281 L 10.433594 19.851562 C 11.671875 19.898438 12.03125 19.097656 12.351562 18.382812 C 12.417969 18.230469 12.5 18.050781 12.585938 17.84375 C 13.511719 15.652344 15.410156 10.695312 15.410156 10.695312 L 16.570312 6.980469 L 16.125 6.453125 C 15.421875 6.15625 14.941406 6.035156 14.507812 6 C 14.539062 6.050781 14.683594 6.238281 14.5 6.453125 L 11.296875 6.453125 L 8.976562 12.265625 L 12.921875 12.265625 L 13.800781 11.15625 L 14.734375 11.15625 C 14.734375 11.15625 13.082031 15.476562 12.179688 17.605469 C 12.160156 17.65625 11.933594 18.175781 11.921875 18.195312 C 11.554688 19.015625 11.308594 19.519531 10.105469 19.425781 L 8.746094 22.820312 L 17.570312 22.820312 L 18.859375 19.589844 C 17.277344 19.542969 17.476562 18.886719 17.609375 18.523438 C 17.746094 18.164062 20.621094 11.15625 20.621094 11.15625 L 22.09375 11.15625 L 22.261719 12.265625 L 25.519531 12.265625 L 27.789062 6.453125 L 26.238281 6.453125 "/>
<path style=" stroke:none;fill-rule:evenodd;fill:rgb(13.72549%,12.156863%,12.54902%);fill-opacity:1;" d="M 16.59375 6.910156 L 11.617188 6.910156 L 9.660156 11.804688 L 12.691406 11.804688 L 13.570312 10.695312 L 15.410156 10.695312 L 16.59375 6.910156 "/>
<path style=" stroke:none;fill-rule:evenodd;fill:rgb(100%,100%,100%);fill-opacity:1;" d="M 11.984375 7.4375 L 10.445312 11.28125 L 12.429688 11.28125 C 12.648438 11.007812 13.308594 10.171875 13.308594 10.171875 L 16.179688 10.171875 C 16.179688 10.171875 14.027344 15.800781 13.066406 18.078125 C 12.980469 18.277344 12.90625 18.453125 12.84375 18.59375 C 12.542969 19.265625 12.097656 20.246094 10.800781 20.367188 L 10.214844 21.839844 L 16.886719 21.839844 L 17.488281 20.320312 C 17.183594 20.1875 16.945312 19.996094 16.773438 19.75 C 16.328125 19.101562 16.582031 18.414062 16.667969 18.1875 C 16.804688 17.824219 19.945312 10.171875 19.945312 10.171875 L 22.960938 10.171875 L 23.125 11.28125 L 24.828125 11.28125 L 26.332031 7.4375 L 24.164062 7.4375 L 23.433594 7.851562 L 22.410156 7.4375 L 21.75 7.4375 L 21.25 7.699219 L 20.476562 7.4375 L 11.984375 7.4375 "/>
<path style=" stroke:none;fill-rule:evenodd;fill:rgb(12.156863%,59.607843%,86.666667%);fill-opacity:1;" d="M 25.894531 6.910156 C 25.851562 7.082031 25.765625 7.222656 25.621094 7.316406 C 25.324219 7.515625 24.867188 7.46875 24.511719 7.207031 C 24.34375 7.082031 24.242188 7.019531 24.179688 6.988281 C 24.160156 7.136719 24.125 7.402344 23.851562 7.519531 C 23.378906 7.71875 22.882812 7.433594 22.480469 7.203125 C 22.230469 7.0625 21.972656 6.914062 21.847656 6.960938 C 21.773438 6.988281 21.722656 7.09375 21.695312 7.179688 C 21.628906 7.371094 21.496094 7.445312 21.394531 7.46875 C 21.121094 7.542969 20.714844 7.390625 20.070312 6.863281 L 19.292969 6.3125 C 19.292969 6.3125 19.425781 6.714844 19.328125 6.910156 C 19.289062 6.988281 19.273438 7.050781 19.230469 7.113281 C 19.019531 7.398438 18.507812 7.609375 17.285156 6.996094 C 17.226562 6.964844 17.171875 6.9375 17.117188 6.910156 C 16.738281 6.726562 16.410156 6.574219 16.125 6.453125 L 16.105469 6.910156 C 16.105469 6.910156 16.683594 7.164062 17.035156 7.351562 C 19.078125 8.449219 19.410156 7.4375 19.410156 7.4375 L 20.089844 7.4375 C 20.089844 7.4375 20.707031 8.054688 21.429688 7.855469 C 21.667969 7.789062 21.855469 7.636719 21.960938 7.414062 C 22.042969 7.457031 22.140625 7.511719 22.210938 7.550781 C 22.636719 7.796875 23.285156 8.164062 23.9375 7.886719 C 24.105469 7.8125 24.222656 7.710938 24.304688 7.597656 C 24.777344 7.894531 25.367188 7.917969 25.777344 7.648438 C 25.933594 7.542969 26.160156 7.324219 26.230469 6.910156 L 25.894531 6.910156 "/>
<path style=" stroke:none;fill-rule:evenodd;fill:rgb(13.72549%,12.156863%,12.54902%);fill-opacity:1;" d="M 18.855469 22.890625 L 18.65625 22.890625 L 18.65625 22.109375 L 18.363281 22.109375 L 18.363281 21.941406 L 19.148438 21.941406 L 19.148438 22.109375 L 18.855469 22.109375 L 18.855469 22.890625 "/>
<path style=" stroke:none;fill-rule:evenodd;fill:rgb(13.72549%,12.156863%,12.54902%);fill-opacity:1;" d="M 20.203125 22.890625 L 20.011719 22.890625 L 20.011719 22.09375 L 19.828125 22.890625 L 19.628906 22.890625 L 19.453125 22.09375 L 19.449219 22.09375 L 19.449219 22.890625 L 19.261719 22.890625 L 19.261719 21.941406 L 19.558594 21.941406 L 19.734375 22.691406 L 19.910156 21.941406 L 20.203125 21.941406 L 20.203125 22.890625 "/>
</g>
</svg>
