<?xml version="1.0" encoding="UTF-8"?>
<svg xmlns="http://www.w3.org/2000/svg" xmlns:xlink="http://www.w3.org/1999/xlink" width="35pt" height="25pt" viewBox="0 0 35 25" version="1.1">
<g id="surface1">
<path style=" stroke:none;fill-rule:evenodd;fill:rgb(100%,100%,100%);fill-opacity:1;" d="M 5 25 L 30 25 L 30 0 L 5 0 Z M 5 25 "/>
<path style=" stroke:none;fill-rule:evenodd;fill:rgb(13.72549%,12.156863%,12.54902%);fill-opacity:1;" d="M 11.859375 2.777344 L 12.15625 2.757812 C 12.480469 2.734375 12.6875 3.070312 12.6875 3.390625 C 12.6875 3.542969 12.644531 3.640625 12.554688 3.761719 C 12.488281 3.847656 12.359375 3.933594 12.355469 3.964844 C 12.34375 4.074219 15.125 21.664062 15.125 21.664062 L 14.980469 21.882812 C 14.980469 21.882812 13.21875 10.636719 13.148438 10.570312 L 14.605469 22.011719 L 14.226562 22.179688 L 11.886719 4.011719 C 11.886719 4.011719 11.496094 3.855469 11.445312 3.53125 L 11.429688 3.414062 C 11.394531 3.179688 11.644531 2.835938 11.859375 2.777344 "/>
<path style=" stroke:none;fill-rule:evenodd;fill:rgb(13.72549%,12.156863%,12.54902%);fill-opacity:1;" d="M 12.761719 3.855469 C 12.804688 3.855469 12.804688 3.90625 12.839844 3.921875 C 12.984375 4.007812 13.054688 4.097656 13.152344 4.234375 C 13.226562 4.34375 13.351562 4.375 13.351562 4.507812 C 13.351562 4.546875 13.300781 4.5625 13.257812 4.5625 C 13.09375 4.5625 13.070312 4.378906 12.9375 4.285156 C 12.792969 4.1875 12.605469 4.15625 12.605469 3.980469 C 12.605469 3.90625 12.6875 3.855469 12.761719 3.855469 "/>
<path style=" stroke:none;fill-rule:evenodd;fill:rgb(13.72549%,12.156863%,12.54902%);fill-opacity:1;" d="M 17.082031 4.40625 C 17.585938 4.316406 18.332031 4.472656 18.71875 4.835938 C 18.886719 4.992188 19.027344 5.363281 19.132812 5.878906 C 19.164062 6.042969 19.390625 5.617188 19.804688 5.46875 L 20.234375 5.3125 C 20.390625 5.257812 20.886719 5.210938 20.890625 5.3125 C 20.890625 5.3125 20.90625 6.023438 20.90625 6.394531 L 20.941406 6.753906 L 21.007812 7.300781 C 21.058594 7.6875 21.332031 8.382812 21.441406 8.757812 C 21.617188 9.367188 22.035156 10.054688 22.234375 10.5625 C 22.339844 10.84375 22.394531 11.074219 22.496094 11.359375 C 22.546875 11.503906 22.59375 11.664062 22.59375 11.824219 C 22.59375 11.890625 21.714844 11.789062 21.648438 11.789062 C 21.597656 11.789062 20.921875 11.851562 20.664062 11.925781 C 20.203125 12.058594 19.863281 12.269531 19.433594 12.492188 C 19.101562 12.660156 18.9375 12.773438 18.566406 12.773438 C 18.363281 12.773438 18.296875 12.546875 18.277344 12.34375 C 18.277344 12.34375 18.183594 11.542969 18.183594 11.367188 C 18.183594 11.367188 17.632812 11.394531 16.671875 11.882812 C 16.421875 12.011719 16.273438 12.148438 15.988281 12.148438 C 15.925781 12.148438 15.914062 12.078125 15.863281 12.046875 C 15.789062 12.003906 15.722656 11.96875 15.714844 11.882812 C 15.714844 11.882812 15.683594 11.621094 15.679688 11.589844 C 15.679688 11.589844 15.78125 9.9375 15.425781 8.875 C 15.234375 8.300781 14.804688 7.625 14.480469 7.113281 C 14.257812 6.761719 13.695312 5.664062 13.5625 5.324219 C 13.488281 5.121094 13.394531 4.910156 13.363281 4.804688 C 13.335938 4.703125 13.433594 4.597656 13.539062 4.597656 C 13.71875 4.597656 13.8125 4.671875 13.992188 4.699219 C 13.992188 4.699219 14.453125 4.773438 14.488281 4.773438 L 15.324219 4.773438 C 15.519531 4.773438 16.359375 4.578125 16.492188 4.535156 C 16.597656 4.496094 16.921875 4.433594 16.921875 4.433594 C 17.007812 4.414062 17.082031 4.40625 17.082031 4.40625 "/>
<path style=" stroke:none;fill-rule:evenodd;fill:rgb(93.333333%,16.078431%,23.921569%);fill-opacity:1;" d="M 16.855469 4.644531 L 16.976562 4.613281 C 17.269531 4.527344 17.753906 4.625 17.832031 4.632812 C 18.019531 4.644531 18.199219 4.726562 18.394531 4.863281 C 18.425781 4.886719 18.648438 5.117188 18.742188 5.238281 C 18.839844 5.355469 18.898438 5.621094 18.925781 6.066406 L 18.90625 6.394531 C 18.21875 6.1875 17.484375 6.292969 17.25 6.292969 L 17.289062 6.359375 C 17.367188 6.445312 17.71875 8.234375 17.789062 9.476562 C 17.792969 9.597656 18.535156 9.289062 19.113281 9.554688 C 19.113281 9.59375 19.089844 9.710938 19.121094 9.734375 L 19.121094 10.320312 L 19.152344 10.320312 L 19.152344 10.617188 L 19.1875 10.617188 L 19.1875 10.914062 L 19.21875 10.914062 L 19.21875 11.0625 C 19.21875 11.0625 18.097656 11.113281 17.839844 11.179688 C 17.421875 11.289062 17.089844 11.425781 16.703125 11.617188 C 16.554688 11.691406 16.175781 11.851562 16.175781 11.851562 C 16.175781 11.851562 16.710938 11.007812 17.367188 10.585938 C 17.367188 10.585938 17.296875 10.375 17.226562 10.402344 C 16.824219 10.582031 16.179688 11.398438 15.988281 11.660156 L 15.945312 10.929688 L 15.910156 10.4375 C 15.910156 10.4375 15.882812 9.773438 15.875 9.707031 C 15.84375 9.410156 15.679688 8.972656 15.679688 8.972656 C 15.792969 9.074219 16.101562 9.378906 16.175781 9.375 L 16.34375 9.1875 C 16.269531 9.152344 15.804688 8.714844 15.667969 8.527344 C 15.417969 8.175781 15.082031 7.589844 15.039062 7.507812 C 14.84375 7.121094 14.347656 6.351562 14.230469 6.117188 C 14.152344 5.964844 13.953125 5.527344 13.953125 5.527344 C 14.269531 5.867188 14.972656 6.316406 15.039062 6.339844 C 15.15625 6.382812 15.25 6.128906 15.25 6.128906 C 15.054688 6.097656 14.253906 5.492188 14.023438 5.238281 C 13.898438 5.097656 13.792969 4.894531 13.792969 4.894531 C 13.792969 4.894531 13.953125 4.929688 14.109375 4.960938 C 14.109375 4.960938 14.839844 5.109375 15.546875 4.980469 C 15.675781 4.957031 16.609375 4.777344 16.855469 4.644531 "/>
<path style=" stroke:none;fill-rule:evenodd;fill:rgb(93.333333%,16.078431%,23.921569%);fill-opacity:1;" d="M 20.476562 5.433594 L 20.714844 5.433594 C 20.710938 5.59375 20.726562 6.394531 20.75 6.546875 C 20.835938 7.03125 20.894531 7.757812 21 8.082031 C 21.152344 8.542969 21.460938 9.40625 21.585938 9.691406 C 21.675781 9.886719 21.773438 10.085938 21.871094 10.28125 C 22.027344 10.589844 22.308594 11.601562 22.308594 11.601562 C 22.308594 11.601562 21.828125 11.53125 21.527344 11.53125 C 21.25 11.53125 20.722656 11.632812 20.5625 11.6875 C 20.375 11.746094 20.042969 11.886719 19.75 12.03125 C 19.339844 12.234375 19.097656 12.355469 18.707031 12.574219 L 18.707031 12.492188 C 18.699219 12.335938 19.082031 11.992188 19.21875 11.875 C 19.289062 11.808594 19.371094 11.574219 19.390625 11.480469 C 19.46875 11.078125 19.390625 10.519531 19.390625 10.519531 C 19.628906 10.402344 19.761719 10.351562 19.992188 10.222656 C 20.085938 10.171875 20.371094 10.074219 20.371094 10.042969 C 20.371094 10.011719 20.1875 9.628906 20.132812 9.425781 C 20.074219 9.226562 20.023438 9.066406 19.957031 8.867188 C 19.917969 8.746094 19.769531 7.910156 19.769531 7.292969 L 19.761719 7.164062 C 19.527344 7.15625 19.410156 7.398438 19.359375 7.3125 C 19.15625 6.957031 19.269531 6.476562 19.234375 6.351562 L 19.261719 6.171875 C 19.414062 6.050781 19.511719 5.78125 19.683594 5.707031 C 19.808594 5.652344 20.085938 5.460938 20.476562 5.433594 "/>
<path style=" stroke:none;fill-rule:evenodd;fill:rgb(93.333333%,16.078431%,23.921569%);fill-opacity:1;" d="M 15.871094 12.257812 C 15.988281 12.257812 16.078125 12.363281 16.078125 12.480469 C 16.078125 12.527344 16.050781 12.570312 16.003906 12.570312 C 15.875 12.570312 15.765625 12.476562 15.765625 12.347656 C 15.765625 12.292969 15.816406 12.257812 15.871094 12.257812 "/>
<path style=" stroke:none;fill-rule:evenodd;fill:rgb(13.72549%,12.156863%,12.54902%);fill-opacity:1;" d="M 22.421875 12.363281 C 22.496094 12.367188 22.496094 12.445312 22.492188 12.515625 L 22.472656 12.765625 C 22.441406 13.207031 22.398438 14.03125 22.59375 15.179688 C 22.675781 15.640625 22.921875 16.644531 23.058594 16.976562 C 23.175781 17.257812 23.359375 17.625 23.558594 17.953125 C 23.710938 18.207031 23.992188 18.621094 24.023438 18.664062 C 24.121094 18.785156 23.628906 18.804688 23.457031 18.863281 C 23 19.023438 22.683594 19.027344 22.277344 19.28125 C 22.203125 19.328125 22.238281 19.292969 22.265625 19.375 C 22.414062 19.769531 22.558594 19.914062 22.535156 20.234375 L 22.515625 20.445312 C 22.503906 20.589844 22.191406 20.980469 21.949219 21.0625 C 21.851562 21.097656 21.585938 21.140625 21.585938 21.140625 C 21.476562 21.164062 21.191406 21.144531 21.078125 21.140625 L 20.492188 21.125 C 20.273438 21.121094 20.191406 21.085938 20.035156 21.046875 L 19.832031 20.992188 C 19.597656 20.933594 19.503906 20.953125 19.261719 20.933594 C 19.261719 20.933594 18.675781 20.882812 18.632812 20.882812 C 18.589844 20.882812 18.167969 20.902344 18.167969 20.902344 C 17.9375 20.910156 17.605469 21.054688 17.558594 21.058594 C 17.460938 21.070312 17.378906 20.992188 17.367188 20.894531 L 17.347656 20.753906 C 17.34375 20.71875 17.375 20.550781 17.375 20.550781 C 17.378906 20.515625 17.433594 20.253906 17.433594 20.253906 C 17.453125 20.25 17.484375 20.023438 17.484375 20.023438 C 17.492188 19.988281 17.515625 19.761719 17.515625 19.761719 C 17.519531 19.726562 17.582031 18.777344 17.582031 18.777344 C 17.582031 18.742188 17.582031 17.425781 17.582031 17.425781 C 17.582031 17.253906 17.570312 16.945312 17.5625 16.910156 C 17.5625 16.910156 17.5 16.5 17.453125 16.328125 C 17.378906 16.074219 17.332031 15.949219 17.238281 15.703125 C 17.085938 15.320312 17.027344 15.117188 16.90625 14.730469 C 16.71875 14.15625 16.632812 13.835938 16.375 13.28125 C 16.273438 13.058594 16.195312 12.96875 16.109375 12.714844 C 16.082031 12.632812 16.148438 12.609375 16.238281 12.609375 C 16.304688 12.609375 16.351562 12.625 16.410156 12.65625 C 16.554688 12.742188 16.652344 12.78125 16.804688 12.855469 C 17.195312 13.039062 17.429688 13.128906 17.832031 13.28125 C 18.269531 13.449219 18.4375 13.507812 18.898438 13.65625 C 19.074219 13.710938 19.347656 13.761719 19.554688 13.808594 L 19.566406 13.808594 L 19.566406 13.542969 C 19.566406 13.511719 19.601562 13.214844 19.601562 13.214844 C 19.613281 13.085938 19.707031 13.027344 19.816406 12.953125 C 20.03125 12.800781 20.171875 12.734375 20.410156 12.625 C 20.863281 12.414062 21.707031 12.304688 22.113281 12.335938 L 22.421875 12.363281 "/>
<path style=" stroke:none;fill-rule:evenodd;fill:rgb(93.333333%,16.078431%,23.921569%);fill-opacity:1;" d="M 22.285156 12.59375 C 22.296875 12.621094 22.214844 13.074219 22.214844 13.074219 C 22.136719 13.542969 22.257812 14.726562 22.335938 15.195312 C 22.378906 15.453125 22.472656 15.871094 22.527344 16.105469 C 22.558594 16.257812 22.574219 16.402344 22.644531 16.566406 C 22.722656 16.738281 22.722656 16.851562 22.792969 17.015625 C 22.960938 17.417969 23.074219 17.640625 23.289062 18.015625 C 23.414062 18.242188 23.5 18.355469 23.652344 18.578125 C 23.492188 18.648438 23.5 18.613281 23.300781 18.664062 C 23.300781 18.664062 22.871094 18.75 22.65625 18.8125 C 22.519531 18.847656 22.4375 18.90625 22.300781 18.949219 C 22.183594 18.988281 22.128906 19.042969 22.066406 19.085938 C 22.015625 18.964844 22.015625 18.855469 21.949219 18.722656 C 21.835938 18.503906 21.679688 18.433594 21.679688 18.175781 C 21.679688 18.121094 21.6875 18.03125 21.726562 17.988281 C 21.808594 17.894531 21.765625 17.9375 21.878906 17.886719 C 21.992188 17.835938 21.972656 17.835938 22.15625 17.792969 C 22.15625 17.792969 22.070312 17.621094 21.964844 17.398438 C 21.871094 17.195312 21.863281 17.097656 21.792969 16.882812 C 21.714844 16.644531 21.679688 16.414062 21.628906 16.140625 C 21.617188 16.0625 21.542969 15.238281 21.542969 15.238281 C 21.527344 15.078125 21.46875 14.570312 21.492188 14.476562 L 21.386719 14.476562 L 21.234375 14.050781 C 21.097656 13.84375 20.863281 13.8125 20.769531 13.757812 C 20.265625 13.476562 20.457031 13.636719 19.941406 13.382812 L 19.785156 13.261719 C 20.042969 12.917969 20.949219 12.652344 21.078125 12.628906 C 21.28125 12.589844 21.59375 12.566406 22.027344 12.578125 L 22.285156 12.59375 "/>
<path style=" stroke:none;fill-rule:evenodd;fill:rgb(93.333333%,16.078431%,23.921569%);fill-opacity:1;" d="M 16.53125 13.023438 C 16.613281 13.082031 17.199219 13.367188 17.3125 13.414062 C 17.753906 13.605469 17.910156 13.628906 18.203125 13.742188 C 18.632812 13.90625 19.070312 14 19.535156 14.109375 C 19.703125 14.148438 20.421875 14.316406 21.027344 14.402344 L 21.171875 14.433594 L 21.207031 14.691406 C 21.285156 15.429688 21.121094 15.445312 21.042969 15.488281 C 20.964844 15.53125 20.785156 15.574219 20.707031 15.566406 L 20.128906 15.566406 C 19.804688 15.574219 19.578125 15.53125 19.578125 15.53125 L 19.5625 15.53125 C 19.570312 15.683594 19.570312 15.808594 19.613281 16.035156 C 19.675781 16.351562 19.839844 17.015625 19.941406 17.320312 C 19.984375 17.453125 20.097656 18.382812 20.019531 18.84375 L 20.015625 18.90625 C 20.195312 18.992188 20.308594 19.039062 20.511719 19.070312 C 20.820312 19.121094 21.320312 19.101562 21.320312 19.101562 C 21.5 19.050781 21.671875 19.042969 21.75 18.972656 C 21.898438 19.214844 21.96875 19.355469 22.070312 19.582031 C 22.1875 19.855469 22.296875 20.003906 22.230469 20.296875 C 22.191406 20.472656 22.035156 20.578125 21.863281 20.730469 C 21.777344 20.808594 21.269531 21.003906 21.535156 20.828125 C 20.355469 20.839844 20.304688 20.902344 19.527344 20.636719 C 19.398438 20.589844 19.15625 20.625 18.941406 20.59375 L 18.742188 20.59375 C 18.554688 20.566406 17.929688 20.601562 17.847656 20.632812 L 17.847656 20.550781 C 18.003906 20.222656 18.125 20.160156 18.3125 19.898438 C 18.417969 19.75 18.574219 19.65625 18.574219 19.472656 C 18.574219 19.332031 18.535156 19.144531 18.476562 19.121094 L 18.15625 19.574219 C 17.691406 20.242188 17.96875 19.121094 17.898438 18.039062 C 17.882812 18.027344 17.875 17.671875 17.875 17.671875 C 17.941406 17.773438 17.960938 17.859375 18.003906 17.910156 C 18.039062 17.953125 18.105469 18.039062 18.210938 18.125 L 18.355469 17.972656 C 18.332031 17.863281 18.1875 17.605469 18.105469 17.414062 C 18.003906 17.179688 17.960938 17.105469 17.890625 16.859375 C 17.800781 16.539062 17.746094 16.316406 17.640625 16.003906 C 17.597656 15.863281 17.324219 15.207031 17.234375 14.941406 C 17.191406 14.804688 17.179688 14.71875 17.136719 14.582031 C 17.109375 14.5 17.109375 14.359375 17.054688 14.296875 C 17.054688 14.296875 17.285156 14.59375 17.398438 14.75 C 17.550781 14.960938 17.714844 15.089844 17.867188 15.300781 C 17.992188 15.476562 18.363281 15.769531 18.363281 15.769531 C 18.484375 15.78125 18.675781 15.667969 18.675781 15.667969 C 18.398438 15.417969 18.175781 15.195312 17.925781 14.90625 C 17.773438 14.726562 17.375 14.246094 17.238281 14.050781 C 17.140625 13.914062 17.039062 13.808594 16.945312 13.664062 C 16.863281 13.539062 16.753906 13.363281 16.640625 13.191406 L 16.53125 13.023438 "/>
<path style=" stroke:none;fill-rule:evenodd;fill:rgb(93.333333%,16.078431%,23.921569%);fill-opacity:1;" d="M 17.269531 21.273438 L 17.316406 21.273438 C 17.328125 21.308594 17.351562 21.328125 17.351562 21.363281 C 17.351562 21.574219 17.214844 21.667969 17.152344 21.867188 C 17.101562 22.027344 17.101562 22.242188 16.929688 22.242188 C 16.851562 22.242188 16.804688 22.164062 16.804688 22.085938 C 16.804688 21.984375 16.890625 21.945312 16.9375 21.847656 C 17.050781 21.617188 17.125 21.488281 17.269531 21.273438 "/>
<path style=" stroke:none;fill-rule:evenodd;fill:rgb(100%,100%,100%);fill-opacity:1;" d="M 12.058594 3.015625 C 11.898438 3.007812 11.769531 3.085938 11.707031 3.234375 C 11.636719 3.390625 11.679688 3.554688 11.816406 3.660156 C 11.757812 3.507812 11.761719 3.386719 11.835938 3.242188 C 11.890625 3.132812 11.949219 3.074219 12.058594 3.015625 "/>
<path style=" stroke:none;fill-rule:evenodd;fill:rgb(100%,100%,100%);fill-opacity:1;" d="M 15.757812 12.410156 C 15.878906 12.410156 15.972656 12.519531 15.972656 12.640625 C 15.972656 12.6875 15.941406 12.734375 15.894531 12.734375 C 15.761719 12.734375 15.648438 12.636719 15.648438 12.503906 C 15.648438 12.449219 15.699219 12.410156 15.757812 12.410156 "/>
<path style=" stroke:none;fill-rule:evenodd;fill:rgb(100%,100%,100%);fill-opacity:1;" d="M 29.417969 11.648438 C 28.972656 11.140625 28.324219 11.597656 28.324219 11.597656 C 27.292969 11.03125 25.472656 12.054688 24.742188 13.425781 C 24.015625 14.796875 23.222656 14.984375 23.222656 14.984375 C 23.554688 14.308594 23.394531 13.078125 23.363281 12.953125 C 23.332031 12.828125 23.222656 12.875 23.699219 12.480469 C 24.234375 12.039062 23.808594 11.550781 23.808594 11.550781 C 23.253906 10.96875 21.917969 11.917969 21.480469 12.179688 C 21.066406 12.421875 19.5625 13.757812 19.5625 13.757812 C 18.78125 14.785156 17.425781 15.097656 17.425781 15.097656 C 17.613281 14.527344 18.867188 13.976562 18.867188 13.976562 C 20.640625 13 21.53125 12.046875 22.304688 10.828125 C 22.90625 9.875 22.691406 9.140625 22.523438 8.882812 C 22.21875 8.402344 21.359375 8.550781 21.359375 8.550781 C 21.140625 8.609375 19.007812 9.140625 17.132812 12.308594 C 16.363281 13.601562 16.0625 14.039062 15.539062 14.480469 C 15.015625 14.921875 14.328125 15.167969 14.328125 15.167969 C 15.101562 13.96875 16.015625 13.0625 16.316406 12.65625 C 16.617188 12.246094 16.09375 11.363281 15.414062 11.695312 C 14.730469 12.023438 13.496094 13.488281 13.097656 14.230469 C 12.703125 14.96875 12.210938 15.144531 12.210938 15.144531 C 12.542969 14.277344 13.449219 13.285156 13.703125 12.734375 C 13.953125 12.183594 13.464844 11.742188 12.941406 11.742188 C 12.417969 11.742188 11.925781 12.671875 11.386719 13.160156 C 10.851562 13.648438 11.007812 13.410156 11.007812 13.410156 C 11.671875 12.121094 12.8125 10.671875 12.8125 10.671875 C 16.726562 11.394531 17.558594 9.765625 17.820312 9.363281 C 17.960938 9.140625 17.996094 8.90625 17.867188 8.652344 C 17.742188 8.402344 17.566406 8.496094 16.535156 8.90625 C 15.507812 9.316406 13.558594 8.765625 12.417969 8.605469 C 11.925781 8.527344 11.632812 8.4375 10.613281 8.402344 C 9.21875 8.355469 8.363281 8.796875 8.15625 8.96875 C 7.84375 9.234375 6.9375 10.292969 7.886719 10.199219 C 9.339844 10.054688 10.5 10.214844 10.5 10.214844 C 10.34375 10.402344 8.664062 13.09375 8.300781 13.929688 C 7.933594 14.765625 7.09375 15.757812 6.96875 15.851562 C 6.839844 15.945312 6.777344 16.152344 6.128906 16.007812 C 5.480469 15.867188 5.429688 16.070312 5.429688 16.070312 C 5.308594 16.246094 5.164062 17.082031 7.109375 17.410156 C 7.523438 17.480469 7.925781 17.457031 8.300781 17.222656 C 9.597656 16.410156 10.5625 14.167969 10.5625 14.167969 C 10.515625 14.480469 10.722656 14.527344 10.722656 14.527344 C 10.136719 15.664062 10.582031 16.292969 10.582031 16.292969 C 11.46875 17.441406 12.71875 16.542969 12.71875 16.542969 C 13.921875 17.316406 15.523438 16.167969 15.523438 16.167969 C 16.234375 17.394531 19.054688 15.914062 19.054688 15.914062 C 20.6875 17.789062 24.09375 16.121094 24.09375 16.121094 C 24.996094 17.535156 26.785156 16.578125 26.785156 16.578125 C 27.515625 16.84375 27.910156 16.828125 28.339844 16.625 C 28.945312 16.335938 28.972656 15.851562 28.796875 15.488281 C 28.65625 15.191406 28.117188 15.332031 28.117188 15.332031 C 28.117188 15.332031 28.957031 13.582031 29.242188 13.0625 C 29.527344 12.542969 29.859375 12.152344 29.417969 11.648438 Z M 20.84375 10.371094 C 20.84375 10.371094 20.761719 10.566406 20.539062 10.855469 C 20.277344 11.191406 19.609375 11.832031 19.03125 12.160156 C 19.03125 12.160156 19.832031 11.011719 20.84375 10.371094 Z M 21.707031 14.824219 C 21.242188 15.15625 20.875 15.296875 20.398438 15.011719 C 20.398438 15.011719 21.777344 13.714844 22.027344 13.570312 C 22.027344 13.570312 22.167969 14.492188 21.707031 14.824219 Z M 27.53125 13.144531 C 27.335938 13.496094 26.675781 14.734375 26.613281 14.84375 C 26.550781 14.953125 26.152344 15.519531 25.613281 15.363281 C 25.34375 15.285156 25.519531 15.0625 25.726562 14.671875 C 26.050781 14.050781 26.847656 13.179688 27.007812 13.078125 C 27.261719 12.921875 27.691406 12.859375 27.53125 13.144531 "/>
<path style=" stroke:none;fill-rule:evenodd;fill:rgb(10.588235%,27.058824%,56.078431%);fill-opacity:1;" d="M 7.4375 15.898438 C 7.699219 15.664062 8.125 14.953125 8.125 14.953125 C 9.171875 13.253906 9.929688 11.550781 11.070312 10.039062 C 9.882812 9.679688 8.972656 9.855469 7.832031 9.855469 C 8.035156 9.386719 8.5625 8.90625 9.039062 8.820312 C 11.121094 8.453125 13.003906 9.046875 15.09375 9.332031 C 15.664062 9.332031 16.300781 9.285156 16.773438 9.191406 C 17.058594 9.09375 17.320312 8.914062 17.605469 8.820312 C 17.605469 9.292969 17.3125 9.640625 16.933594 9.921875 C 15.601562 10.773438 14.011719 10.457031 12.703125 10.324219 C 12.132812 11.078125 11.429688 11.945312 10.957031 12.792969 C 10.195312 14.304688 9.632812 15.792969 8.300781 16.832031 C 8.015625 17.117188 7.292969 17.167969 6.824219 17.035156 C 6.414062 16.917969 5.582031 16.765625 5.75 16.277344 C 6.222656 16.65625 6.960938 16.324219 7.4375 15.898438 "/>
<path style="fill:none;stroke-width:10.9618;stroke-linecap:round;stroke-linejoin:miter;stroke:rgb(10.588235%,27.058824%,56.078431%);stroke-opacity:1;stroke-miterlimit:2.6131;" d="M 572.862407 1273.457103 C 660.550412 1261.072383 810.400804 1218.481032 889.380068 1250.197996 C 968.659634 1281.91496 982.173197 1289.164551 991.782841 1269.832307 C 1001.692787 1250.197996 998.990074 1232.074016 988.179224 1214.856236 C 968.059031 1183.743405 904.094836 1057.781748 603.192847 1113.664017 C 603.192847 1113.664017 515.504843 1001.597411 464.453607 901.915525 C 464.453607 901.915525 452.441552 883.489479 493.582842 921.247769 C 535.024433 959.00606 572.862407 1030.897845 613.102793 1030.897845 C 653.343179 1030.897845 690.880852 996.76435 671.661563 954.172999 C 652.141973 911.581647 582.472052 834.856801 556.946434 767.798077 C 556.946434 767.798077 594.784409 781.391062 625.114849 838.481597 C 655.74559 895.874198 750.640828 1009.14907 803.193571 1034.522641 C 855.446012 1060.198278 895.686397 991.931289 872.563191 960.214325 C 849.439984 928.799428 779.16946 858.720041 719.709785 765.985679 C 719.709785 765.985679 772.562829 785.015858 812.803215 819.149352 C 853.043601 853.282847 876.166807 887.114275 935.32618 987.098228 C 1079.470846 1232.074016 1243.435402 1273.155036 1260.25228 1277.686031 C 1260.25228 1277.686031 1326.318585 1289.164551 1349.742093 1252.010394 C 1362.655053 1232.074016 1379.171629 1175.285547 1332.925215 1101.581365 C 1273.465541 1007.336672 1204.996825 933.632489 1068.659996 858.115908 C 1068.659996 858.115908 972.263251 815.524556 957.848784 771.422873 C 957.848784 771.422873 1062.053365 795.588179 1122.113643 875.031622 C 1122.113643 875.031622 1237.729676 978.338305 1269.561623 997.066417 C 1303.195378 1017.30486 1405.898452 1090.706977 1448.541249 1045.699095 C 1448.541249 1045.699095 1481.2741 1007.940804 1440.13281 973.80731 C 1403.496041 943.298611 1411.90448 946.923407 1414.306891 937.257285 C 1417.009604 927.591162 1429.021659 832.44027 1403.496041 780.182796 C 1403.496041 780.182796 1464.457223 794.68198 1520.31328 900.707259 C 1576.46964 1006.732539 1716.410085 1085.873916 1795.689651 1042.074299 C 1795.689651 1042.074299 1845.539681 1077.113992 1879.774039 1038.147437 C 1913.708096 999.180881 1888.182478 968.974249 1866.260477 928.799428 C 1844.338476 888.624607 1779.773678 753.298894 1779.773678 753.298894 C 1779.773678 753.298894 1821.215269 764.173281 1832.026119 741.216241 C 1845.539681 713.124073 1843.437572 675.667849 1796.890857 653.314941 C 1763.857704 637.607492 1733.527264 636.399226 1677.370905 656.939736 C 1677.370905 656.939736 1539.83287 582.933487 1470.46325 692.281496 C 1470.46325 692.281496 1208.600442 563.299176 1083.074462 708.291011 C 1083.074462 708.291011 866.256862 593.807875 811.602009 688.6567 C 811.602009 688.6567 688.478441 599.849201 595.985614 659.658333 C 595.985614 659.658333 499.889171 590.183079 431.720756 678.990578 C 431.720756 678.990578 397.486398 727.623256 442.531606 815.524556 C 442.531606 815.524556 426.615632 819.149352 430.219249 843.314658 C 430.219249 843.314658 356.044807 669.928588 256.344747 607.098793 C 227.515814 588.974814 196.584771 587.162416 164.752824 592.59961 C 15.202734 617.973181 26.313885 682.615374 35.623228 696.208359 C 35.623228 696.208359 39.527146 711.915807 89.377176 701.04142 C 139.227206 689.864966 144.032028 705.874481 153.941974 713.124073 C 163.551618 720.373664 228.116416 797.098511 256.344747 861.740704 C 284.272776 926.382897 413.402372 1134.506594 425.414427 1149.005777 C 425.414427 1149.005777 336.224915 1161.390497 224.5128 1150.214043 C 151.539563 1142.964451 221.209484 1224.824424 245.233595 1245.364934 C 261.149569 1258.655853 326.915572 1292.789347 434.123167 1289.164551 C 512.501829 1286.445954 535.024433 1279.498429 572.862407 1273.457103 " transform="matrix(0.0130078,0,0,-0.0129318,4.966309,25.073514)"/>
<path style="fill:none;stroke-width:10.9618;stroke-linecap:butt;stroke-linejoin:round;stroke:rgb(10.588235%,27.058824%,56.078431%);stroke-opacity:1;stroke-miterlimit:2.6131;" d="M 1081.272654 998.576748 C 1081.272654 998.576748 1142.834438 1087.384247 1220.612497 1136.923124 C 1220.612497 1136.923124 1214.306168 1121.819808 1197.188989 1099.4669 C 1177.068796 1073.489196 1125.717259 1023.950319 1081.272654 998.576748 " transform="matrix(0.0130078,0,0,-0.0129318,4.966309,25.073514)"/>
<path style="fill:none;stroke-width:10.9618;stroke-linecap:butt;stroke-linejoin:round;stroke:rgb(10.588235%,27.058824%,56.078431%);stroke-opacity:1;stroke-miterlimit:2.6131;" d="M 1186.378139 778.068332 C 1186.378139 778.068332 1292.384528 878.354352 1311.603817 889.530806 C 1311.603817 889.530806 1322.414667 818.243153 1286.979103 792.567516 C 1251.243238 766.891878 1223.014908 756.017491 1186.378139 778.068332 " transform="matrix(0.0130078,0,0,-0.0129318,4.966309,25.073514)"/>
<path style=" stroke:none;fill-rule:evenodd;fill:rgb(10.588235%,27.058824%,56.078431%);fill-opacity:1;" d="M 29.273438 12.34375 C 29.363281 12.078125 29.226562 12.035156 29.226562 11.941406 C 28.941406 11.660156 28.464844 11.742188 28.371094 12.117188 C 27.800781 11.457031 26.910156 11.894531 26.542969 12.09375 C 26.355469 12.195312 26.101562 12.414062 25.804688 12.6875 C 25.257812 13.1875 24.972656 13.855469 24.402344 14.515625 C 24.023438 14.894531 23.585938 15.113281 23.082031 15.34375 C 22.929688 15.414062 22.679688 15.4375 22.726562 15.355469 C 23.046875 14.800781 23.238281 14.007812 23.144531 13.347656 C 23.046875 13.0625 23.011719 12.980469 23.011719 12.699219 C 23.066406 12.476562 23.378906 12.308594 23.535156 12.226562 C 23.683594 12.148438 23.699219 11.910156 23.570312 11.789062 C 23.226562 11.457031 22.214844 12.117188 21.585938 12.507812 C 19.953125 13.519531 19.054688 15.238281 17.15625 15.425781 C 16.679688 15.425781 17.421875 14.53125 17.714844 14.351562 C 19.4375 13.300781 21.535156 12.105469 22.390625 9.835938 C 22.488281 9.363281 22.222656 8.8125 21.695312 8.859375 C 20.660156 8.949219 19.328125 9.980469 18.640625 10.761719 C 17.679688 11.84375 16.980469 13.265625 16.039062 14.410156 C 15.566406 14.980469 14.875 15.238281 14.207031 15.519531 C 14.113281 15.519531 14.007812 15.628906 13.910156 15.4375 C 13.910156 15.34375 13.941406 15.257812 13.996094 15.179688 C 14.195312 14.871094 14.421875 14.601562 14.613281 14.222656 C 15.085938 13.558594 16.074219 12.6875 16.050781 12.378906 C 16.039062 12.246094 15.824219 11.835938 15.632812 11.929688 C 14.589844 12.589844 13.921875 13.535156 13.257812 14.574219 C 13.066406 14.953125 12.035156 16.011719 11.925781 15.332031 C 11.832031 14.730469 12.914062 13.546875 13.386719 12.699219 C 13.578125 12.320312 13.164062 11.929688 12.78125 12.117188 C 12.117188 12.6875 11.640625 13.503906 10.90625 13.84375 C 10.660156 13.957031 10.832031 14.171875 10.988281 14.257812 C 11.070312 14.300781 11.175781 14.261719 11.167969 14.292969 C 10.988281 14.894531 10.394531 15.886719 11.082031 16.324219 C 11.546875 16.621094 12.390625 16.585938 12.675781 16.089844 C 13.625 16.84375 14.835938 16.300781 15.632812 15.710938 C 15.710938 15.652344 15.660156 15.929688 16.0625 16.195312 C 16.882812 16.738281 18.519531 15.816406 19.1875 15.53125 C 19.757812 16.476562 20.824219 16.503906 21.777344 16.441406 C 22.105469 16.421875 22.328125 16.363281 22.414062 16.339844 C 22.546875 16.304688 22.773438 16.234375 22.976562 16.171875 C 23.570312 15.980469 23.878906 15.863281 24.25 15.675781 C 24.332031 15.632812 24.425781 16.039062 24.570312 16.183594 C 24.90625 16.515625 25.53125 16.625 26.007812 16.535156 C 26.589844 16.429688 26.730469 16.148438 26.886719 16.253906 C 27.339844 16.566406 28.097656 16.523438 28.476562 16.148438 C 28.574219 16.050781 28.726562 15.757812 28.464844 15.617188 C 28.179688 15.617188 28.039062 15.769531 27.753906 15.675781 C 27.65625 15.578125 27.707031 15.578125 27.707031 15.484375 C 28.179688 14.351562 29.046875 13.003906 29.273438 12.34375 Z M 18.175781 12.957031 C 18.570312 12.238281 18.992188 11.535156 19.4375 11.117188 C 19.882812 10.699219 20.882812 9.730469 21.378906 9.601562 C 21.878906 9.472656 21.539062 9.929688 21.539062 9.941406 C 21.539062 9.953125 20.527344 11.597656 19.332031 12.382812 C 19.332031 12.382812 18.359375 13.035156 18.164062 13.035156 Z M 21.597656 15.25 C 20.625 15.746094 20.183594 15.296875 20.101562 15.226562 C 20.019531 15.15625 20.042969 15.046875 20.136719 14.929688 C 20.695312 14.238281 21.679688 13.417969 22.109375 13.148438 C 22.109375 13.148438 22.277344 12.992188 22.3125 13.253906 C 22.347656 13.511719 22.574219 14.753906 21.597656 15.25 Z M 27.039062 14.75 C 27.007812 14.875 26.535156 15.601562 25.695312 15.664062 C 24.507812 15.75 25.867188 13.929688 25.867188 13.929688 C 25.867188 13.929688 26.550781 12.78125 27.261719 12.621094 C 27.976562 12.464844 27.941406 12.984375 27.910156 13.0625 C 27.878906 13.144531 27.070312 14.625 27.039062 14.75 "/>
<path style=" stroke:none;fill-rule:evenodd;fill:rgb(100%,100%,100%);fill-opacity:1;" d="M 27.53125 13.144531 C 27.335938 13.496094 26.675781 14.734375 26.613281 14.84375 C 26.550781 14.953125 26.152344 15.519531 25.613281 15.363281 C 25.34375 15.285156 25.519531 15.0625 25.726562 14.671875 C 26.050781 14.050781 26.847656 13.179688 27.007812 13.078125 C 27.261719 12.921875 27.691406 12.859375 27.53125 13.144531 "/>
<path style="fill:none;stroke-width:10.9618;stroke-linecap:butt;stroke-linejoin:round;stroke:rgb(10.588235%,27.058824%,56.078431%);stroke-opacity:1;stroke-miterlimit:2.6131;" d="M 1734.72847 922.456035 C 1719.713401 895.270066 1668.962466 799.515041 1664.157644 791.057184 C 1659.352822 782.599327 1628.722081 738.79971 1587.280489 750.882363 C 1566.559694 756.92369 1580.073256 774.14147 1595.98923 804.348102 C 1620.914245 852.376648 1682.175727 919.737438 1694.488084 927.591162 C 1714.007674 939.673815 1747.040827 944.506876 1734.72847 922.456035 Z M 1734.72847 922.456035 " transform="matrix(0.0130078,0,0,-0.0129318,4.966309,25.073514)"/>
</g>
</svg>
