<?xml version="1.0" encoding="UTF-8"?>
<svg xmlns="http://www.w3.org/2000/svg" xmlns:xlink="http://www.w3.org/1999/xlink" width="35pt" height="25pt" viewBox="0 0 35 25" version="1.1">
<g id="surface1">
<path style=" stroke:none;fill-rule:nonzero;fill:rgb(71.764706%,70.980392%,71.372549%);fill-opacity:1;" d="M 18.390625 19.546875 L 14.542969 19.546875 L 10.753906 16.742188 L 11.210938 14.902344 L 7.167969 14.902344 L 3.304688 12.164062 L 5.433594 3.492188 L 1 0 L 19.683594 0 L 18.574219 4.523438 L 22.652344 4.523438 L 26.609375 7.285156 L 25.945312 9.976562 L 33.863281 9.976562 L 32.4375 15.808594 L 30.878906 15.808594 L 29.824219 20.105469 L 27.199219 20.105469 L 27.007812 20.816406 L 25.546875 20.816406 L 24.519531 25 L 17.054688 25 L 18.390625 19.546875 "/>
<path style=" stroke:none;fill-rule:nonzero;fill:rgb(13.72549%,12.156863%,12.54902%);fill-opacity:1;" d="M 19.316406 18.820312 L 14.78125 18.820312 L 11.574219 16.449219 L 12.136719 14.175781 L 7.402344 14.175781 L 4.128906 11.859375 L 6.25 3.214844 L 3.09375 0.726562 L 18.757812 0.726562 L 17.625 5.339844 L 17.796875 5.25 L 22.425781 5.25 L 25.785156 7.59375 L 25.015625 10.703125 L 32.941406 10.703125 L 31.867188 15.082031 L 30.308594 15.082031 L 29.253906 19.378906 L 25.152344 19.378906 L 23.949219 24.273438 L 17.980469 24.273438 L 19.316406 18.820312 "/>
<path style=" stroke:none;fill-rule:nonzero;fill:rgb(69.019608%,57.254902%,27.45098%);fill-opacity:1;" d="M 23.84375 10.664062 L 20.261719 10.664062 L 20.800781 8.488281 L 16.828125 8.488281 L 18.066406 9.460938 L 16.554688 15.578125 L 19.046875 15.578125 L 19.726562 12.839844 L 21.96875 12.839844 L 20.730469 11.851562 L 31.472656 11.851562 L 30.964844 13.929688 L 23.824219 13.929688 L 25.066406 14.90625 L 24.757812 16.152344 L 28.863281 16.152344 L 28.351562 18.230469 L 24.25 18.230469 L 23.050781 23.125 L 19.445312 23.125 L 20.992188 16.808594 L 19.410156 17.671875 L 15.160156 17.671875 L 12.875 15.980469 L 13.847656 12.042969 L 11.957031 13.085938 L 7.746094 13.085938 L 5.363281 11.398438 L 7.472656 2.792969 L 6.234375 1.816406 L 11.316406 1.816406 L 9.0625 11.007812 L 11.507812 11.007812 L 13.523438 2.792969 L 12.285156 1.816406 L 17.367188 1.816406 L 15.976562 7.488281 L 18.078125 6.398438 L 22.0625 6.398438 L 24.480469 8.085938 L 23.84375 10.664062 "/>
<path style=" stroke:none;fill-rule:nonzero;fill:rgb(100%,100%,100%);fill-opacity:1;" d="M 20.882812 10.179688 L 21.398438 10.179688 L 21.8125 8.507812 L 21.296875 8.507812 L 20.882812 10.179688 "/>
<path style=" stroke:none;fill-rule:nonzero;fill:rgb(100%,100%,100%);fill-opacity:1;" d="M 15.242188 8.417969 L 13.425781 15.78125 L 13.859375 16.105469 L 15.683594 8.761719 L 18.320312 7.386719 L 22.632812 7.386719 L 21.910156 6.882812 L 18.195312 6.882812 L 15.242188 8.417969 "/>
<path style=" stroke:none;fill-rule:nonzero;fill:rgb(100%,100%,100%);fill-opacity:1;" d="M 19.429688 16.066406 L 16.449219 16.066406 L 16.328125 16.570312 L 19.820312 16.570312 L 20.496094 13.828125 L 21.527344 13.828125 L 21.652344 13.324219 L 20.105469 13.324219 L 19.429688 16.066406 "/>
<path style=" stroke:none;fill-rule:nonzero;fill:rgb(100%,100%,100%);fill-opacity:1;" d="M 8.835938 12 L 12.28125 12 L 14.535156 2.804688 L 16.625 2.804688 L 16.75 2.300781 L 13.683594 2.300781 C 13.710938 2.324219 14.070312 2.605469 14.070312 2.605469 L 11.890625 11.496094 L 8.957031 11.496094 L 8.835938 12 "/>
<path style=" stroke:none;fill-rule:nonzero;fill:rgb(100%,100%,100%);fill-opacity:1;" d="M 6.351562 11.503906 L 8.492188 2.804688 L 10.574219 2.804688 L 10.699219 2.300781 L 7.632812 2.300781 L 8.019531 2.605469 L 5.914062 11.191406 L 6.351562 11.503906 "/>
<path style=" stroke:none;fill-rule:nonzero;fill:rgb(100%,100%,100%);fill-opacity:1;" d="M 28.121094 17.140625 C 28.160156 16.988281 28.199219 16.824219 28.246094 16.636719 C 27.574219 16.636719 25.601562 16.636719 24.65625 16.636719 C 24.585938 16.917969 24.53125 17.140625 24.53125 17.140625 C 24.53125 17.140625 26.882812 17.140625 28.121094 17.140625 "/>
<path style=" stroke:none;fill-rule:nonzero;fill:rgb(100%,100%,100%);fill-opacity:1;" d="M 30.855469 12.339844 L 22.132812 12.339844 L 22.515625 12.640625 L 20.0625 22.640625 L 20.578125 22.640625 L 22.984375 12.84375 L 30.730469 12.84375 L 30.855469 12.339844 "/>
<path style=" stroke:none;fill-rule:evenodd;fill:rgb(13.72549%,12.156863%,12.54902%);fill-opacity:1;" d="M 25.78125 19.917969 L 25.957031 19.917969 L 26.015625 19.742188 L 25.460938 19.742188 L 25.402344 19.917969 L 25.574219 19.917969 L 25.359375 20.542969 L 25.570312 20.542969 L 25.78125 19.917969 "/>
<path style=" stroke:none;fill-rule:evenodd;fill:rgb(13.72549%,12.156863%,12.54902%);fill-opacity:1;" d="M 25.742188 20.542969 L 25.949219 20.542969 L 26.175781 20.082031 L 26.179688 20.082031 L 26.203125 20.542969 L 26.289062 20.542969 L 26.636719 20.082031 L 26.640625 20.082031 L 26.539062 20.542969 L 26.75 20.542969 L 26.902344 19.742188 L 26.695312 19.742188 L 26.375 20.167969 L 26.359375 19.742188 L 26.152344 19.742188 L 25.742188 20.542969 "/>
</g>
</svg>
