<?xml version="1.0" encoding="UTF-8"?>
<svg xmlns="http://www.w3.org/2000/svg" xmlns:xlink="http://www.w3.org/1999/xlink" width="35pt" height="25pt" viewBox="0 0 35 25" version="1.1">
<g id="surface1">
<path style=" stroke:none;fill-rule:nonzero;fill:rgb(99.215686%,73.333333%,18.823529%);fill-opacity:1;" d="M 22.511719 9.726562 L 22.511719 12.878906 L 23.46875 12.878906 L 23.46875 20.867188 L 22.835938 21.503906 L 16.941406 21.503906 L 16.304688 20.867188 L 16.304688 16.957031 L 18.941406 16.957031 L 21.800781 14.097656 L 21.800781 8.621094 L 20.601562 7.417969 L 21.535156 6.320312 L 21.535156 2.9375 L 19.039062 0 L 6.25 0 L 6.25 3.496094 L 7.535156 3.496094 L 7.535156 13.460938 L 6.25 13.460938 L 6.25 16.957031 L 12.804688 16.957031 L 12.804688 22.316406 L 15.492188 25 L 24.28125 25 L 26.96875 22.316406 L 26.96875 12.878906 L 27.929688 12.878906 L 27.929688 9.726562 Z M 11.03125 3.496094 L 17.421875 3.496094 L 18.039062 4.222656 L 18.039062 5.035156 L 17.421875 5.757812 L 11.03125 5.757812 Z M 12.804688 12.878906 L 12.804688 13.460938 L 11.03125 13.460938 L 11.03125 9.257812 L 17.492188 9.257812 L 18.304688 10.070312 L 18.304688 12.648438 L 17.492188 13.460938 L 16.304688 13.460938 L 16.304688 12.878906 L 17.265625 12.878906 L 17.265625 9.726562 L 11.84375 9.726562 L 11.84375 12.878906 Z M 12.804688 12.878906 "/>
<path style=" stroke:none;fill-rule:nonzero;fill:rgb(0%,28.235294%,20%);fill-opacity:1;" d="M 23.074219 10.289062 L 23.074219 12.3125 L 24.035156 12.3125 L 24.035156 21.101562 L 23.066406 22.070312 L 16.707031 22.070312 L 15.738281 21.101562 L 15.738281 16.957031 L 13.371094 16.957031 L 13.371094 22.082031 L 15.726562 24.433594 L 24.046875 24.433594 L 26.402344 22.082031 L 26.402344 12.3125 L 27.363281 12.3125 L 27.363281 10.289062 Z M 23.074219 10.289062 "/>
<path style=" stroke:none;fill-rule:nonzero;fill:rgb(0%,28.235294%,20%);fill-opacity:1;" d="M 12.410156 12.3125 L 13.371094 12.3125 L 13.371094 13.460938 L 15.738281 13.460938 L 15.738281 12.3125 L 16.699219 12.3125 L 16.699219 10.292969 L 12.410156 10.292969 Z M 12.410156 12.3125 "/>
<path style=" stroke:none;fill-rule:nonzero;fill:rgb(0%,28.235294%,20%);fill-opacity:1;" d="M 21.234375 13.863281 L 21.234375 8.855469 L 19.832031 7.449219 L 20.972656 6.113281 L 20.972656 3.144531 L 18.777344 0.566406 L 6.816406 0.566406 L 6.816406 2.933594 L 8.097656 2.933594 L 8.097656 14.027344 L 6.816406 14.027344 L 6.816406 16.390625 L 18.707031 16.390625 Z M 10.464844 2.933594 L 17.683594 2.933594 L 18.605469 4.015625 L 18.605469 5.242188 L 17.683594 6.324219 L 10.464844 6.324219 Z M 10.464844 14.027344 L 10.464844 8.691406 L 17.726562 8.691406 L 18.871094 9.835938 L 18.871094 12.882812 L 17.726562 14.027344 Z M 10.464844 14.027344 "/>
<path style=" stroke:none;fill-rule:nonzero;fill:rgb(0%,28.235294%,20%);fill-opacity:1;" d="M 26.464844 23.992188 C 26.1875 23.992188 25.960938 24.21875 25.960938 24.496094 C 25.960938 24.773438 26.1875 25 26.464844 25 C 26.742188 25 26.96875 24.773438 26.96875 24.496094 C 26.96875 24.21875 26.742188 23.992188 26.464844 23.992188 M 26.464844 24.890625 C 26.246094 24.890625 26.066406 24.714844 26.066406 24.496094 C 26.066406 24.277344 26.246094 24.101562 26.464844 24.101562 C 26.683594 24.101562 26.859375 24.277344 26.859375 24.496094 C 26.859375 24.714844 26.683594 24.890625 26.464844 24.890625 M 26.671875 24.378906 C 26.671875 24.285156 26.59375 24.207031 26.5 24.207031 L 26.257812 24.207031 L 26.257812 24.785156 L 26.363281 24.785156 L 26.363281 24.550781 L 26.441406 24.550781 L 26.550781 24.785156 L 26.671875 24.785156 L 26.558594 24.539062 C 26.625 24.519531 26.671875 24.453125 26.671875 24.378906 M 26.5 24.441406 L 26.363281 24.441406 L 26.363281 24.316406 L 26.5 24.316406 C 26.535156 24.316406 26.5625 24.34375 26.5625 24.378906 C 26.5625 24.414062 26.535156 24.441406 26.5 24.441406 "/>
</g>
</svg>
