<?xml version="1.0" encoding="UTF-8"?>
<svg xmlns="http://www.w3.org/2000/svg" xmlns:xlink="http://www.w3.org/1999/xlink" width="35pt" height="25pt" viewBox="0 0 35 25" version="1.1">
<defs>
<radialGradient id="radial0" gradientUnits="userSpaceOnUse" cx="401.71078" cy="108.95276" fx="401.71078" fy="108.95276" r="316.22412" gradientTransform="matrix(0.0399955,-0.000202968,0.000271584,0.0535163,1.487958,3.558857)">
<stop offset="0" style="stop-color:rgb(83.137255%,7.45098%,23.921569%);stop-opacity:1;"/>
<stop offset="1" style="stop-color:rgb(61.960784%,1.176471%,16.470588%);stop-opacity:1;"/>
</radialGradient>
<radialGradient id="radial1" gradientUnits="userSpaceOnUse" cx="401.71078" cy="108.95276" fx="401.71078" fy="108.95276" r="316.22412" gradientTransform="matrix(0.0399955,-0.000202968,0.000271584,0.0535163,1.487958,3.558857)">
<stop offset="0" style="stop-color:rgb(83.137255%,7.45098%,23.921569%);stop-opacity:1;"/>
<stop offset="1" style="stop-color:rgb(61.960784%,1.176471%,16.470588%);stop-opacity:1;"/>
</radialGradient>
<radialGradient id="radial2" gradientUnits="userSpaceOnUse" cx="401.71078" cy="108.95276" fx="401.71078" fy="108.95276" r="316.22412" gradientTransform="matrix(0.0399955,-0.000202968,0.000271584,0.0535163,1.487958,3.558857)">
<stop offset="0" style="stop-color:rgb(83.137255%,7.45098%,23.921569%);stop-opacity:1;"/>
<stop offset="1" style="stop-color:rgb(61.960784%,1.176471%,16.470588%);stop-opacity:1;"/>
</radialGradient>
</defs>
<g id="surface1">
<path style=" stroke:none;fill-rule:nonzero;fill:rgb(100%,100%,100%);fill-opacity:1;" d="M 21.207031 5.652344 C 22.871094 5.441406 24.523438 5.132812 26.148438 4.710938 C 26.011719 5.265625 25.808594 5.804688 25.644531 6.347656 C 25.617188 6.410156 25.617188 6.507812 25.53125 6.507812 C 25.015625 6.589844 24.5 6.667969 23.980469 6.738281 C 23.980469 8.484375 23.984375 10.234375 23.980469 11.980469 C 24.519531 12.039062 25.054688 12.140625 25.589844 12.214844 C 25.785156 12.8125 25.988281 13.410156 26.152344 14.015625 C 22.363281 13.046875 18.414062 12.613281 14.511719 12.949219 C 14.511719 12.511719 14.511719 12.074219 14.511719 11.636719 C 14.839844 11.605469 15.175781 11.585938 15.507812 11.574219 C 15.140625 11.117188 14.746094 10.675781 14.382812 10.214844 C 14.332031 10.148438 14.28125 10.085938 14.222656 10.027344 C 13.769531 10.574219 13.359375 11.15625 12.953125 11.738281 C 13.292969 11.726562 13.628906 11.667969 13.96875 11.648438 C 13.972656 12.101562 13.972656 12.554688 13.96875 13.003906 C 12.222656 13.25 10.484375 13.574219 8.769531 13.992188 C 8.960938 13.402344 9.113281 12.796875 9.324219 12.214844 C 9.730469 12.167969 10.132812 12.074219 10.539062 12.03125 C 11.117188 11.066406 11.757812 10.140625 12.449219 9.25 C 11.789062 8.4375 11.1875 7.582031 10.625 6.699219 C 10.210938 6.625 9.785156 6.585938 9.375 6.5 C 9.164062 5.9375 9 5.363281 8.820312 4.792969 C 10.234375 5.164062 11.679688 5.421875 13.125 5.652344 C 13.417969 5.691406 13.710938 5.722656 14 5.789062 C 14.019531 6.21875 14.011719 6.648438 14.003906 7.078125 C 13.726562 7.066406 13.453125 7.019531 13.175781 6.996094 C 13.527344 7.535156 13.886719 8.066406 14.265625 8.585938 C 14.667969 8.105469 15.058594 7.617188 15.472656 7.144531 C 15.144531 7.132812 14.820312 7.109375 14.496094 7.085938 C 14.496094 6.65625 14.496094 6.226562 14.496094 5.796875 C 15.414062 5.851562 16.332031 5.902344 17.25 5.902344 C 18.007812 5.894531 18.765625 5.863281 19.523438 5.8125 C 20.085938 5.789062 20.644531 5.703125 21.207031 5.652344 M 20.804688 7.058594 C 20.777344 7.199219 20.792969 7.34375 20.789062 7.488281 C 20.789062 8.875 20.792969 10.261719 20.789062 11.652344 C 21.054688 11.664062 21.316406 11.699219 21.582031 11.714844 C 21.578125 10.148438 21.578125 8.578125 21.582031 7.007812 C 21.324219 7.039062 21.0625 7.027344 20.804688 7.058594 M 17.824219 7.28125 C 17.234375 7.929688 16.613281 8.550781 16.023438 9.203125 C 16.152344 9.378906 16.308594 9.527344 16.445312 9.695312 C 16.988281 10.308594 17.53125 10.925781 18.074219 11.542969 C 18.179688 11.542969 18.285156 11.542969 18.394531 11.542969 C 18.375 11.257812 18.378906 10.972656 18.378906 10.6875 C 18.375 9.519531 18.382812 8.347656 18.378906 7.175781 C 18.195312 7.203125 17.953125 7.101562 17.824219 7.28125 Z M 17.824219 7.28125 "/>
<path style=" stroke:none;fill-rule:nonzero;fill:rgb(81.568627%,82.745098%,84.313725%);fill-opacity:1;" d="M 6.902344 2.976562 C 9.742188 3.804688 12.679688 4.308594 15.632812 4.496094 C 15.996094 4.527344 16.359375 4.511719 16.722656 4.542969 C 18.082031 4.597656 19.441406 4.484375 20.792969 4.347656 C 22.996094 4.09375 25.175781 3.667969 27.328125 3.144531 C 27.558594 3.09375 27.785156 3.03125 28.019531 3.019531 C 27.695312 4.015625 27.417969 5.027344 27.089844 6.023438 C 26.910156 6.5625 26.746094 7.105469 26.550781 7.636719 C 26.121094 7.714844 25.691406 7.777344 25.269531 7.875 C 25.269531 8.867188 25.261719 9.859375 25.273438 10.851562 C 25.703125 10.941406 26.140625 10.988281 26.566406 11.09375 C 27.046875 12.515625 27.476562 13.953125 27.929688 15.386719 C 27.96875 15.5 28 15.617188 28.03125 15.738281 C 25.574219 15.160156 23.089844 14.679688 20.578125 14.386719 C 19.804688 14.324219 19.03125 14.222656 18.253906 14.210938 C 17.640625 14.1875 17.027344 14.179688 16.414062 14.222656 C 15.84375 14.21875 15.273438 14.257812 14.707031 14.320312 C 13.214844 14.445312 11.734375 14.6875 10.269531 14.996094 C 9.128906 15.230469 8 15.519531 6.851562 15.730469 C 7.085938 14.933594 7.355469 14.148438 7.589844 13.355469 C 7.820312 12.597656 8.082031 11.847656 8.320312 11.09375 C 8.773438 10.984375 9.238281 10.941406 9.695312 10.847656 C 9.820312 10.828125 9.863281 10.699219 9.929688 10.609375 C 10.207031 10.15625 10.511719 9.722656 10.808594 9.28125 C 10.765625 9.136719 10.648438 9.035156 10.566406 8.914062 C 10.34375 8.582031 10.117188 8.246094 9.894531 7.914062 C 9.695312 7.847656 9.476562 7.847656 9.269531 7.800781 C 8.984375 7.738281 8.691406 7.699219 8.402344 7.648438 C 7.941406 6.324219 7.539062 4.980469 7.105469 3.644531 C 7.039062 3.421875 6.960938 3.203125 6.902344 2.976562 M 24.699219 3.941406 C 21.832031 4.507812 18.902344 4.878906 15.976562 4.71875 C 15.257812 4.703125 14.542969 4.613281 13.824219 4.554688 C 11.59375 4.304688 9.378906 3.886719 7.210938 3.285156 C 7.667969 4.679688 8.074219 6.089844 8.570312 7.472656 C 9.050781 7.539062 9.527344 7.628906 10.003906 7.71875 C 10.375 8.222656 10.691406 8.769531 11.085938 9.257812 C 10.675781 9.832031 10.289062 10.421875 9.914062 11.023438 C 9.441406 11.105469 8.960938 11.175781 8.492188 11.269531 C 8.253906 11.9375 8.042969 12.609375 7.828125 13.285156 C 7.613281 14.011719 7.363281 14.730469 7.160156 15.460938 C 7.96875 15.300781 8.769531 15.105469 9.574219 14.933594 C 11.324219 14.539062 13.09375 14.242188 14.878906 14.089844 C 16.132812 14 17.390625 13.941406 18.644531 14.023438 C 20.769531 14.132812 22.875 14.46875 24.964844 14.863281 C 25.886719 15.046875 26.8125 15.234375 27.722656 15.460938 C 27.574219 14.886719 27.371094 14.328125 27.203125 13.761719 C 26.945312 12.925781 26.683594 12.09375 26.394531 11.269531 C 25.953125 11.179688 25.503906 11.109375 25.054688 11.027344 C 25.058594 9.914062 25.054688 8.804688 25.058594 7.691406 C 25.410156 7.644531 25.753906 7.546875 26.109375 7.507812 C 26.203125 7.488281 26.3125 7.492188 26.398438 7.4375 C 26.878906 6.066406 27.300781 4.671875 27.710938 3.277344 C 26.707031 3.5 25.707031 3.75 24.699219 3.941406 Z M 24.699219 3.941406 "/>
<path style=" stroke:none;fill-rule:nonzero;fill:url(#radial0);" d="M 24.699219 3.941406 C 25.707031 3.75 26.707031 3.5 27.710938 3.277344 C 27.300781 4.671875 26.878906 6.066406 26.398438 7.4375 C 26.3125 7.492188 26.203125 7.488281 26.109375 7.507812 C 25.753906 7.546875 25.410156 7.644531 25.058594 7.691406 C 25.054688 8.804688 25.058594 9.914062 25.054688 11.027344 C 25.503906 11.109375 25.953125 11.179688 26.394531 11.269531 C 26.683594 12.09375 26.945312 12.925781 27.203125 13.761719 C 27.371094 14.328125 27.574219 14.886719 27.722656 15.460938 C 26.8125 15.234375 25.886719 15.046875 24.964844 14.863281 C 22.875 14.46875 20.769531 14.132812 18.644531 14.023438 C 17.390625 13.941406 16.132812 14 14.878906 14.089844 C 13.09375 14.242188 11.324219 14.539062 9.574219 14.933594 C 8.769531 15.105469 7.96875 15.300781 7.160156 15.460938 C 7.363281 14.730469 7.613281 14.011719 7.828125 13.285156 C 8.042969 12.609375 8.253906 11.9375 8.492188 11.269531 C 8.960938 11.175781 9.441406 11.105469 9.914062 11.023438 C 10.289062 10.421875 10.675781 9.832031 11.085938 9.257812 C 10.691406 8.769531 10.375 8.222656 10.003906 7.71875 C 9.527344 7.628906 9.050781 7.539062 8.570312 7.472656 C 8.074219 6.089844 7.667969 4.679688 7.210938 3.285156 C 9.378906 3.886719 11.59375 4.304688 13.824219 4.554688 C 14.542969 4.613281 15.257812 4.703125 15.976562 4.71875 C 18.902344 4.878906 21.832031 4.507812 24.699219 3.941406 M 21.207031 5.652344 C 20.644531 5.703125 20.085938 5.789062 19.523438 5.8125 C 18.765625 5.863281 18.007812 5.894531 17.25 5.902344 C 16.332031 5.902344 15.414062 5.851562 14.496094 5.796875 C 14.496094 6.226562 14.496094 6.65625 14.496094 7.085938 C 14.820312 7.109375 15.144531 7.132812 15.472656 7.144531 C 15.058594 7.617188 14.667969 8.105469 14.265625 8.585938 C 13.886719 8.066406 13.527344 7.535156 13.175781 6.996094 C 13.453125 7.019531 13.726562 7.066406 14.003906 7.078125 C 14.011719 6.648438 14.019531 6.21875 14 5.789062 C 13.710938 5.722656 13.417969 5.691406 13.125 5.652344 C 11.679688 5.421875 10.234375 5.164062 8.820312 4.792969 C 9 5.363281 9.164062 5.9375 9.375 6.5 C 9.785156 6.585938 10.210938 6.625 10.625 6.699219 C 11.1875 7.582031 11.789062 8.4375 12.449219 9.25 C 11.757812 10.140625 11.117188 11.066406 10.539062 12.03125 C 10.132812 12.074219 9.730469 12.167969 9.324219 12.214844 C 9.113281 12.796875 8.960938 13.402344 8.769531 13.992188 C 10.484375 13.574219 12.222656 13.25 13.96875 13.003906 C 13.972656 12.554688 13.972656 12.101562 13.96875 11.648438 C 13.628906 11.667969 13.292969 11.726562 12.953125 11.738281 C 13.359375 11.15625 13.769531 10.574219 14.222656 10.027344 C 14.28125 10.085938 14.332031 10.148438 14.382812 10.214844 C 14.746094 10.675781 15.140625 11.117188 15.507812 11.574219 C 15.175781 11.585938 14.839844 11.605469 14.511719 11.636719 C 14.511719 12.074219 14.511719 12.511719 14.511719 12.949219 C 18.414062 12.613281 22.363281 13.046875 26.152344 14.015625 C 25.988281 13.410156 25.785156 12.8125 25.589844 12.214844 C 25.054688 12.140625 24.519531 12.039062 23.980469 11.980469 C 23.984375 10.234375 23.980469 8.484375 23.980469 6.738281 C 24.5 6.667969 25.015625 6.589844 25.53125 6.507812 C 25.617188 6.507812 25.617188 6.410156 25.644531 6.347656 C 25.808594 5.804688 26.011719 5.265625 26.148438 4.710938 C 24.523438 5.132812 22.871094 5.441406 21.207031 5.652344 Z M 21.207031 5.652344 "/>
<path style=" stroke:none;fill-rule:nonzero;fill:url(#radial1);" d="M 20.804688 7.058594 C 21.0625 7.027344 21.324219 7.039062 21.582031 7.007812 C 21.578125 8.578125 21.578125 10.148438 21.582031 11.714844 C 21.316406 11.699219 21.054688 11.664062 20.789062 11.652344 C 20.792969 10.261719 20.789062 8.875 20.789062 7.488281 C 20.792969 7.34375 20.777344 7.199219 20.804688 7.058594 Z M 20.804688 7.058594 "/>
<path style=" stroke:none;fill-rule:nonzero;fill:url(#radial2);" d="M 17.824219 7.28125 C 17.953125 7.101562 18.195312 7.203125 18.378906 7.175781 C 18.382812 8.347656 18.375 9.519531 18.378906 10.6875 C 18.378906 10.972656 18.375 11.257812 18.394531 11.542969 C 18.285156 11.542969 18.179688 11.542969 18.074219 11.542969 C 17.53125 10.925781 16.988281 10.308594 16.445312 9.695312 C 16.308594 9.527344 16.152344 9.378906 16.023438 9.203125 C 16.613281 8.550781 17.234375 7.929688 17.824219 7.28125 Z M 17.824219 7.28125 "/>
<path style=" stroke:none;fill-rule:nonzero;fill:rgb(76.862745%,7.058824%,17.254902%);fill-opacity:1;" d="M 7.246094 20.746094 C 7.558594 20.457031 7.886719 20.183594 8.214844 19.910156 C 8.21875 20.589844 8.214844 21.273438 8.214844 21.957031 C 8.078125 21.957031 7.941406 21.957031 7.800781 21.957031 C 7.800781 21.554688 7.800781 21.15625 7.804688 20.757812 C 7.71875 20.832031 7.640625 20.917969 7.550781 20.992188 C 7.4375 20.929688 7.347656 20.828125 7.246094 20.746094 Z M 7.246094 20.746094 "/>
<path style=" stroke:none;fill-rule:nonzero;fill:rgb(76.862745%,7.058824%,17.254902%);fill-opacity:1;" d="M 0.0195312 19.996094 C 0.277344 20.003906 0.535156 19.992188 0.792969 20.003906 C 1.085938 20.023438 1.351562 20.289062 1.316406 20.59375 C 1.328125 20.765625 1.214844 20.90625 1.078125 20.996094 C 1.5 21.164062 1.410156 21.863281 0.976562 21.949219 C 0.660156 21.960938 0.335938 21.953125 0.015625 21.957031 C -0.0078125 21.503906 0.0117188 21.050781 0.0078125 20.597656 C -0.00390625 20.394531 -0.00390625 20.195312 0.0195312 19.996094 M 0.414062 20.351562 C 0.40625 20.503906 0.40625 20.660156 0.40625 20.8125 C 0.527344 20.8125 0.644531 20.828125 0.761719 20.804688 C 0.921875 20.765625 0.980469 20.53125 0.855469 20.421875 C 0.734375 20.316406 0.558594 20.367188 0.414062 20.351562 M 0.40625 21.164062 C 0.40625 21.320312 0.410156 21.472656 0.410156 21.625 C 0.5625 21.617188 0.730469 21.660156 0.871094 21.578125 C 1.011719 21.488281 0.980469 21.25 0.828125 21.1875 C 0.691406 21.148438 0.546875 21.171875 0.40625 21.164062 Z M 0.40625 21.164062 "/>
<path style=" stroke:none;fill-rule:nonzero;fill:rgb(76.862745%,7.058824%,17.254902%);fill-opacity:1;" d="M 2.226562 20.003906 C 2.367188 20 2.507812 20 2.648438 19.996094 C 2.660156 20.648438 2.648438 21.304688 2.652344 21.957031 C 2.511719 21.957031 2.371094 21.957031 2.230469 21.957031 C 2.230469 21.304688 2.234375 20.652344 2.226562 20.003906 Z M 2.226562 20.003906 "/>
<path style=" stroke:none;fill-rule:nonzero;fill:rgb(76.862745%,7.058824%,17.254902%);fill-opacity:1;" d="M 3.554688 20.539062 C 3.78125 20.121094 4.292969 19.914062 4.75 19.984375 C 5.023438 20.011719 5.257812 20.167969 5.46875 20.328125 C 5.375 20.410156 5.285156 20.496094 5.191406 20.582031 C 4.945312 20.378906 4.59375 20.253906 4.285156 20.394531 C 3.984375 20.503906 3.765625 20.855469 3.882812 21.171875 C 4.03125 21.640625 4.703125 21.804688 5.0625 21.480469 C 5.074219 21.375 5.070312 21.269531 5.070312 21.167969 C 4.800781 21.167969 4.53125 21.167969 4.257812 21.164062 C 4.261719 21.046875 4.261719 20.929688 4.261719 20.8125 C 4.675781 20.8125 5.089844 20.8125 5.503906 20.8125 C 5.503906 21.035156 5.507812 21.253906 5.503906 21.476562 C 5.5 21.542969 5.515625 21.636719 5.445312 21.679688 C 5.246094 21.84375 5.007812 21.972656 4.746094 22 L 4.414062 22 C 3.988281 21.953125 3.585938 21.65625 3.46875 21.238281 C 3.425781 21.003906 3.429688 20.746094 3.554688 20.539062 Z M 3.554688 20.539062 "/>
<path style=" stroke:none;fill-rule:nonzero;fill:rgb(76.862745%,7.058824%,17.254902%);fill-opacity:1;" d="M 8.914062 20.394531 C 9.070312 20.175781 9.289062 19.96875 9.574219 19.96875 C 9.972656 19.9375 10.359375 20.34375 10.242188 20.742188 C 10.128906 21.085938 9.835938 21.328125 9.636719 21.621094 C 9.855469 21.621094 10.070312 21.621094 10.289062 21.625 C 10.289062 21.75 10.289062 21.875 10.285156 22 L 8.882812 22 C 9.160156 21.621094 9.449219 21.257812 9.734375 20.886719 C 9.796875 20.800781 9.863281 20.707031 9.855469 20.59375 C 9.847656 20.441406 9.675781 20.324219 9.527344 20.367188 C 9.402344 20.40625 9.332031 20.527344 9.25 20.617188 C 9.136719 20.542969 9.023438 20.46875 8.914062 20.394531 Z M 8.914062 20.394531 "/>
<path style=" stroke:none;fill-rule:nonzero;fill:rgb(58.039216%,61.568627%,63.921569%);fill-opacity:1;" d="M 28.472656 19.933594 C 29.027344 20.414062 29.554688 20.929688 30.117188 21.402344 C 30.121094 20.9375 30.121094 20.472656 30.117188 20.007812 C 30.210938 20 30.304688 19.996094 30.398438 19.992188 C 30.414062 20.660156 30.402344 21.332031 30.40625 22 L 30.335938 22 C 29.8125 21.527344 29.296875 21.046875 28.765625 20.582031 C 28.746094 21.054688 28.765625 21.527344 28.753906 22 L 28.46875 22 C 28.476562 21.308594 28.46875 20.621094 28.472656 19.933594 Z M 28.472656 19.933594 "/>
<path style=" stroke:none;fill-rule:nonzero;fill:rgb(58.039216%,61.568627%,63.921569%);fill-opacity:1;" d="M 12.144531 20.539062 C 12.378906 20.097656 12.9375 19.871094 13.414062 20.007812 C 13.660156 20.082031 13.875 20.234375 14.0625 20.410156 C 13.992188 20.46875 13.917969 20.53125 13.847656 20.59375 C 13.699219 20.46875 13.546875 20.335938 13.355469 20.28125 C 12.957031 20.152344 12.484375 20.382812 12.359375 20.789062 C 12.203125 21.242188 12.617188 21.734375 13.078125 21.738281 C 13.390625 21.777344 13.640625 21.566406 13.867188 21.386719 C 13.929688 21.453125 14.007812 21.507812 14.046875 21.59375 C 13.863281 21.785156 13.621094 21.917969 13.371094 22 L 12.878906 22 C 12.554688 21.910156 12.25 21.699219 12.113281 21.386719 C 11.988281 21.117188 12.003906 20.796875 12.144531 20.539062 Z M 12.144531 20.539062 "/>
<path style=" stroke:none;fill-rule:nonzero;fill:rgb(58.039216%,61.568627%,63.921569%);fill-opacity:1;" d="M 15.101562 20.121094 C 15.554688 19.851562 16.1875 19.949219 16.53125 20.351562 C 16.773438 20.621094 16.851562 21.027344 16.703125 21.359375 C 16.574219 21.695312 16.253906 21.914062 15.914062 22 L 15.421875 22 C 15.007812 21.898438 14.628906 21.566406 14.578125 21.125 C 14.511719 20.71875 14.746094 20.308594 15.101562 20.121094 M 15.464844 20.269531 C 15.105469 20.34375 14.820312 20.710938 14.875 21.082031 C 14.917969 21.445312 15.261719 21.730469 15.625 21.738281 C 16.007812 21.777344 16.394531 21.5 16.46875 21.121094 C 16.523438 20.851562 16.386719 20.566406 16.171875 20.40625 C 15.972656 20.253906 15.707031 20.210938 15.464844 20.269531 Z M 15.464844 20.269531 "/>
<path style=" stroke:none;fill-rule:nonzero;fill:rgb(58.039216%,61.568627%,63.921569%);fill-opacity:1;" d="M 17.453125 19.9375 C 18.015625 20.40625 18.535156 20.925781 19.089844 21.398438 C 19.121094 20.933594 19.097656 20.464844 19.105469 20 C 19.199219 19.996094 19.292969 19.996094 19.386719 19.996094 C 19.402344 20.664062 19.390625 21.332031 19.394531 22 L 19.324219 22 C 18.792969 21.53125 18.28125 21.042969 17.746094 20.585938 C 17.738281 21.054688 17.746094 21.527344 17.742188 22 L 17.457031 22 C 17.4375 21.3125 17.449219 20.625 17.453125 19.9375 Z M 17.453125 19.9375 "/>
<path style=" stroke:none;fill-rule:nonzero;fill:rgb(58.039216%,61.568627%,63.921569%);fill-opacity:1;" d="M 20.265625 19.996094 C 20.660156 20 21.050781 20 21.441406 20 C 21.445312 20.085938 21.445312 20.171875 21.445312 20.257812 C 21.148438 20.269531 20.851562 20.257812 20.554688 20.265625 C 20.550781 20.464844 20.550781 20.660156 20.546875 20.855469 C 20.847656 20.863281 21.144531 20.855469 21.445312 20.863281 C 21.445312 20.949219 21.445312 21.03125 21.441406 21.117188 C 21.144531 21.121094 20.847656 21.113281 20.546875 21.125 C 20.550781 21.417969 20.550781 21.707031 20.546875 22 L 20.265625 22 C 20.261719 21.332031 20.257812 20.664062 20.265625 19.996094 Z M 20.265625 19.996094 "/>
<path style=" stroke:none;fill-rule:nonzero;fill:rgb(58.039216%,61.568627%,63.921569%);fill-opacity:1;" d="M 22.253906 20.003906 C 22.65625 19.992188 23.058594 20.003906 23.460938 20 C 23.457031 20.089844 23.453125 20.179688 23.449219 20.269531 C 23.140625 20.265625 22.828125 20.269531 22.519531 20.261719 C 22.511719 20.460938 22.511719 20.660156 22.511719 20.855469 C 22.828125 20.863281 23.144531 20.855469 23.460938 20.863281 C 23.457031 20.949219 23.457031 21.035156 23.457031 21.117188 C 23.144531 21.128906 22.828125 21.117188 22.515625 21.125 C 22.511719 21.324219 22.515625 21.523438 22.515625 21.722656 C 22.828125 21.71875 23.140625 21.71875 23.453125 21.722656 C 23.453125 21.800781 23.453125 21.878906 23.453125 21.957031 C 23.042969 21.957031 22.636719 21.957031 22.230469 21.957031 C 22.226562 21.3125 22.21875 20.667969 22.234375 20.023438 Z M 22.253906 20.003906 "/>
<path style=" stroke:none;fill-rule:nonzero;fill:rgb(58.039216%,61.568627%,63.921569%);fill-opacity:1;" d="M 24.296875 19.996094 C 24.519531 20.003906 24.742188 19.992188 24.964844 20 C 25.191406 20.007812 25.414062 20.144531 25.503906 20.355469 C 25.550781 20.5 25.550781 20.660156 25.507812 20.800781 C 25.453125 20.949219 25.304688 21.027344 25.183594 21.109375 C 25.371094 21.308594 25.558594 21.503906 25.746094 21.699219 C 25.78125 21.746094 25.839844 21.792969 25.835938 21.855469 C 25.796875 21.910156 25.75 21.957031 25.703125 22 L 25.632812 22 C 25.390625 21.722656 25.144531 21.453125 24.902344 21.175781 C 24.792969 21.175781 24.6875 21.175781 24.582031 21.175781 C 24.582031 21.449219 24.582031 21.726562 24.578125 22 L 24.292969 22 C 24.292969 21.332031 24.285156 20.664062 24.296875 19.996094 M 24.582031 20.261719 C 24.582031 20.476562 24.582031 20.691406 24.582031 20.902344 C 24.757812 20.914062 24.964844 20.953125 25.121094 20.84375 C 25.308594 20.710938 25.273438 20.363281 25.046875 20.292969 C 24.898438 20.246094 24.738281 20.265625 24.582031 20.261719 Z M 24.582031 20.261719 "/>
<path style=" stroke:none;fill-rule:nonzero;fill:rgb(58.039216%,61.568627%,63.921569%);fill-opacity:1;" d="M 26.4375 20.066406 C 26.414062 19.976562 26.53125 20.003906 26.582031 19.996094 C 26.945312 20 27.308594 20 27.667969 20 C 27.65625 20.082031 27.699219 20.195312 27.640625 20.261719 C 27.339844 20.285156 27.039062 20.246094 26.742188 20.277344 C 26.710938 20.46875 26.738281 20.664062 26.726562 20.855469 C 27.042969 20.867188 27.355469 20.855469 27.667969 20.863281 C 27.667969 20.949219 27.667969 21.035156 27.667969 21.117188 C 27.355469 21.128906 27.039062 21.117188 26.726562 21.128906 C 26.730469 21.324219 26.730469 21.523438 26.730469 21.722656 C 27.042969 21.71875 27.351562 21.71875 27.664062 21.722656 C 27.664062 21.800781 27.664062 21.878906 27.660156 21.957031 C 27.253906 21.957031 26.84375 21.953125 26.4375 21.957031 C 26.433594 21.328125 26.433594 20.695312 26.4375 20.066406 Z M 26.4375 20.066406 "/>
<path style=" stroke:none;fill-rule:nonzero;fill:rgb(58.039216%,61.568627%,63.921569%);fill-opacity:1;" d="M 31.277344 20.464844 C 31.535156 20.066406 32.070312 19.875 32.527344 20.015625 C 32.765625 20.09375 32.96875 20.242188 33.152344 20.410156 C 33.082031 20.46875 33.015625 20.53125 32.941406 20.582031 C 32.789062 20.496094 32.664062 20.359375 32.496094 20.296875 C 32.074219 20.121094 31.539062 20.386719 31.433594 20.835938 C 31.320312 21.292969 31.738281 21.75 32.195312 21.738281 C 32.492188 21.765625 32.730469 21.5625 32.945312 21.386719 C 33.015625 21.453125 33.085938 21.515625 33.15625 21.578125 C 32.953125 21.769531 32.71875 21.925781 32.445312 22 L 31.949219 22 C 31.640625 21.898438 31.34375 21.707031 31.210938 21.402344 C 31.054688 21.109375 31.09375 20.738281 31.277344 20.464844 Z M 31.277344 20.464844 "/>
<path style=" stroke:none;fill-rule:nonzero;fill:rgb(58.039216%,61.568627%,63.921569%);fill-opacity:1;" d="M 33.777344 19.996094 C 34.183594 20 34.59375 20 35 19.996094 L 35 20.253906 C 34.691406 20.28125 34.386719 20.265625 34.078125 20.261719 C 34.066406 20.460938 34.066406 20.660156 34.070312 20.859375 C 34.378906 20.859375 34.691406 20.859375 35 20.859375 L 35 21.121094 C 34.691406 21.121094 34.378906 21.117188 34.070312 21.121094 C 34.066406 21.320312 34.066406 21.523438 34.074219 21.722656 C 34.382812 21.71875 34.691406 21.722656 35 21.722656 L 35 21.972656 C 34.59375 22.011719 34.179688 21.984375 33.769531 21.984375 C 33.777344 21.324219 33.765625 20.660156 33.777344 19.996094 Z M 33.777344 19.996094 "/>
</g>
</svg>
