<?xml version="1.0" encoding="UTF-8"?>
<svg xmlns="http://www.w3.org/2000/svg" xmlns:xlink="http://www.w3.org/1999/xlink" width="35pt" height="25pt" viewBox="0 0 35 25" version="1.1">
<g id="surface1">
<path style=" stroke:none;fill-rule:nonzero;fill:rgb(100%,79.215686%,21.960784%);fill-opacity:1;" d="M 24.640625 25 L 10.207031 25 L 11.101562 19.015625 L 13.53125 19.015625 L 13.53125 5.980469 L 11.101562 5.980469 L 10.207031 0 L 24.640625 0 L 23.746094 5.980469 L 21.316406 5.980469 L 21.316406 19.015625 L 23.746094 19.015625 L 24.640625 25 "/>
<path style=" stroke:none;fill-rule:nonzero;fill:rgb(72.156863%,7.058824%,21.568627%);fill-opacity:1;" d="M 20.398438 19.933594 L 20.398438 5.0625 L 22.953125 5.0625 L 23.574219 0.917969 L 11.273438 0.917969 L 11.894531 5.0625 L 14.449219 5.0625 L 14.449219 19.933594 L 11.894531 19.933594 L 11.273438 24.082031 L 23.574219 24.082031 L 22.953125 19.933594 L 20.398438 19.933594 "/>
<path style=" stroke:none;fill-rule:nonzero;fill:rgb(51.372549%,4.313725%,17.254902%);fill-opacity:1;" d="M 17.382812 3.035156 L 12.371094 3.035156 L 11.894531 5.0625 L 14.449219 5.0625 L 17.382812 3.035156 "/>
<path style=" stroke:none;fill-rule:nonzero;fill:rgb(51.372549%,4.313725%,17.254902%);fill-opacity:1;" d="M 20.398438 5.0625 L 22.953125 5.0625 L 22.476562 3.035156 L 17.382812 3.035156 L 20.398438 5.0625 "/>
<path style=" stroke:none;fill-rule:nonzero;fill:rgb(51.372549%,4.313725%,17.254902%);fill-opacity:1;" d="M 20.398438 19.933594 L 20.398438 5.0625 L 17.382812 3.035156 L 17.382812 22.144531 L 20.398438 19.933594 "/>
<path style=" stroke:none;fill-rule:nonzero;fill:rgb(51.372549%,4.313725%,17.254902%);fill-opacity:1;" d="M 22.503906 22.144531 L 12.34375 22.144531 L 11.273438 24.082031 L 23.574219 24.082031 L 22.503906 22.144531 "/>
<path style=" stroke:none;fill-rule:nonzero;fill:rgb(51.372549%,4.313725%,17.254902%);fill-opacity:1;" d="M 23.574219 24.082031 L 22.503906 22.144531 L 22.953125 19.933594 L 23.574219 24.082031 "/>
<path style=" stroke:none;fill-rule:nonzero;fill:rgb(51.372549%,4.313725%,17.254902%);fill-opacity:1;" d="M 22.953125 5.0625 L 22.476562 3.035156 L 23.574219 0.917969 L 22.953125 5.0625 "/>
<path style=" stroke:none;fill-rule:nonzero;fill:rgb(100%,79.215686%,21.960784%);fill-opacity:1;" d="M 25.621094 25 L 25.605469 24.71875 C 25.601562 24.679688 25.601562 24.636719 25.601562 24.582031 L 25.59375 24.582031 C 25.582031 24.625 25.570312 24.683594 25.554688 24.726562 L 25.46875 24.992188 L 25.367188 24.992188 L 25.285156 24.71875 L 25.25 24.582031 L 25.242188 24.582031 C 25.242188 24.628906 25.242188 24.675781 25.242188 24.71875 L 25.222656 25 L 25.128906 25 L 25.167969 24.519531 L 25.3125 24.519531 L 25.390625 24.753906 C 25.40625 24.792969 25.414062 24.828125 25.425781 24.875 L 25.460938 24.757812 L 25.542969 24.519531 L 25.679688 24.519531 L 25.71875 25 L 25.621094 25 M 25.101562 24.519531 L 25.101562 24.597656 L 24.949219 24.597656 L 24.949219 25 L 24.855469 25 L 24.855469 24.597656 L 24.703125 24.597656 L 24.703125 24.519531 Z M 25.101562 24.519531 "/>
<path style=" stroke:none;fill-rule:nonzero;fill:rgb(51.372549%,4.313725%,17.254902%);fill-opacity:1;" d="M 22.792969 14.476562 C 22.710938 14.464844 22.632812 14.457031 22.554688 14.445312 C 22.546875 14.441406 22.144531 14.386719 21.953125 14.363281 C 21.753906 14.34375 21.558594 14.320312 21.359375 14.300781 L 21.347656 14.257812 L 21.464844 14.269531 C 21.488281 14.132812 21.507812 13.996094 21.53125 13.859375 C 21.589844 13.515625 21.644531 13.171875 21.703125 12.828125 C 21.734375 12.640625 21.761719 12.457031 21.792969 12.269531 C 21.597656 12.246094 21.398438 12.226562 21.203125 12.207031 C 21.007812 12.1875 20.816406 12.171875 20.625 12.15625 C 20.457031 11.652344 20.292969 11.15625 20.125 10.65625 C 20.246094 10.664062 20.371094 10.671875 20.492188 10.679688 C 20.96875 10.71875 21.445312 10.765625 21.925781 10.820312 C 22.117188 10.84375 22.3125 10.867188 22.507812 10.890625 C 22.480469 10.699219 22.453125 10.507812 22.425781 10.316406 C 22.398438 10.132812 22.371094 9.949219 22.347656 9.765625 C 22.496094 9.785156 22.644531 9.804688 22.792969 9.828125 L 22.792969 14.476562 M 16.890625 12.03125 C 17.066406 11.492188 17.238281 10.949219 17.414062 10.410156 C 17.589844 10.949219 17.769531 11.488281 17.945312 12.03125 C 17.59375 12.027344 17.242188 12.027344 16.890625 12.03125 Z M 13.066406 14.363281 C 12.871094 14.382812 12.226562 14.472656 12.144531 14.484375 L 12.144531 9.832031 C 12.292969 9.8125 12.441406 9.792969 12.589844 9.773438 C 12.566406 9.957031 12.539062 10.140625 12.511719 10.324219 L 12.429688 10.898438 C 12.625 10.871094 12.820312 10.847656 13.011719 10.824219 C 13.492188 10.769531 13.96875 10.722656 14.445312 10.683594 C 14.585938 10.675781 14.722656 10.664062 14.859375 10.65625 C 14.457031 11.863281 14.050781 13.078125 13.644531 14.296875 C 13.453125 14.320312 13.257812 14.339844 13.066406 14.363281 Z M 31.101562 11.941406 C 31.625 12.140625 32.148438 12.347656 32.664062 12.570312 C 32.628906 12.886719 32.597656 13.203125 32.5625 13.515625 C 32.078125 13.308594 31.589844 13.113281 31.101562 12.929688 Z M 28.601562 15.746094 C 28.457031 15.703125 28.3125 15.660156 28.167969 15.617188 C 28.078125 16.285156 27.988281 16.953125 27.894531 17.625 C 30.324219 18.304688 32.699219 19.226562 34.988281 20.394531 C 34.972656 20.140625 34.957031 19.890625 34.945312 19.640625 C 34.894531 18.699219 34.84375 17.757812 34.796875 16.816406 C 34.074219 16.453125 33.347656 16.117188 32.613281 15.800781 C 32.65625 16.289062 32.703125 16.773438 32.75 17.261719 C 32.203125 17.023438 31.652344 16.800781 31.101562 16.59375 L 31.101562 15.125 C 31.585938 15.308594 32.066406 15.503906 32.546875 15.707031 C 32.621094 15.121094 32.695312 14.53125 32.769531 13.945312 C 33.414062 14.226562 34.050781 14.523438 34.683594 14.835938 C 34.738281 13.902344 34.792969 12.964844 34.84375 12.027344 C 34.859375 11.863281 34.875 11.699219 34.890625 11.535156 C 34.71875 11.445312 34.546875 11.359375 34.378906 11.273438 C 32.402344 10.3125 30.371094 9.53125 28.296875 8.925781 L 28.296875 8.921875 C 28.191406 8.890625 28.085938 8.863281 27.976562 8.832031 L 27.894531 8.808594 C 27.851562 8.796875 27.808594 8.785156 27.765625 8.773438 C 25.324219 8.097656 22.835938 7.667969 20.328125 7.480469 C 20.148438 7.46875 19.964844 7.457031 19.785156 7.445312 C 19.796875 7.621094 19.808594 7.800781 19.824219 7.976562 C 19.878906 8.714844 19.929688 9.449219 19.984375 10.1875 L 19.988281 10.25 C 19.710938 9.414062 19.429688 8.582031 19.152344 7.75 C 19.113281 7.636719 19.074219 7.523438 19.035156 7.40625 C 18.914062 7.402344 18.792969 7.398438 18.667969 7.394531 C 17.886719 7.371094 17.101562 7.371094 16.320312 7.394531 C 16.195312 7.398438 16.078125 7.402344 15.953125 7.410156 C 15.914062 7.523438 15.875 7.636719 15.839844 7.75 C 15.539062 8.644531 15.234375 9.539062 14.933594 10.4375 C 14.941406 10.355469 14.945312 10.273438 14.953125 10.191406 C 15.003906 9.453125 15.058594 8.714844 15.113281 7.980469 C 15.128906 7.804688 15.140625 7.625 15.152344 7.449219 C 14.972656 7.460938 14.789062 7.472656 14.609375 7.484375 C 12.105469 7.671875 9.613281 8.105469 7.171875 8.785156 C 7.078125 8.8125 6.449219 8.992188 6.351562 9.023438 C 4.972656 9.441406 3.609375 9.933594 2.273438 10.511719 C 1.789062 10.71875 1.367188 11.023438 1.007812 11.410156 C 0.9375 11.484375 0.875 11.554688 0.816406 11.628906 C 0.359375 12.203125 0.128906 12.8125 0.128906 13.425781 L 0.128906 15.027344 C 0.128906 15.648438 0.363281 16.039062 0.800781 16.164062 L 0.886719 16.183594 L 0.894531 16.1875 C 1.261719 16.265625 1.722656 16.179688 2.273438 15.941406 C 2.945312 15.652344 3.621094 15.382812 4.304688 15.136719 C 4.359375 15.117188 4.386719 15.113281 4.398438 15.113281 C 4.40625 15.125 4.417969 15.160156 4.417969 15.242188 L 4.417969 16.246094 C 4.417969 16.332031 4.40625 16.378906 4.398438 16.390625 C 4.386719 16.402344 4.355469 16.417969 4.304688 16.4375 C 3.746094 16.640625 3.1875 16.859375 2.636719 17.089844 C 2.664062 16.898438 2.691406 16.707031 2.71875 16.519531 C 2.746094 16.316406 2.777344 16.113281 2.804688 15.910156 C 2.617188 15.988281 2.433594 16.066406 2.246094 16.148438 C 1.714844 16.375 1.191406 16.617188 0.667969 16.871094 C 0.523438 16.941406 0.378906 17.011719 0.234375 17.082031 C 0.226562 17.242188 0.210938 17.398438 0.203125 17.554688 C 0.148438 18.316406 0.09375 19.078125 0.0390625 19.839844 C 0.0273438 20.023438 0.0117188 20.207031 0 20.394531 C 0.167969 20.308594 0.335938 20.222656 0.503906 20.140625 C 1.894531 19.457031 3.316406 18.863281 4.761719 18.355469 C 5.300781 18.167969 5.765625 17.90625 6.136719 17.570312 C 6.195312 17.519531 6.242188 17.472656 6.289062 17.421875 C 6.761719 16.933594 7.011719 16.351562 7.011719 15.730469 L 7.011719 14.027344 C 7.011719 13.40625 6.761719 12.964844 6.289062 12.757812 L 6.285156 12.753906 L 6.277344 12.753906 C 6.238281 12.738281 6.195312 12.722656 6.148438 12.710938 C 5.765625 12.601562 5.296875 12.636719 4.761719 12.824219 C 4.082031 13.058594 3.410156 13.316406 2.742188 13.59375 C 2.695312 13.613281 2.664062 13.621094 2.652344 13.621094 C 2.644531 13.609375 2.632812 13.578125 2.632812 13.492188 L 2.632812 12.578125 C 2.632812 12.5 2.644531 12.457031 2.648438 12.445312 C 2.660156 12.433594 2.691406 12.414062 2.742188 12.394531 C 3.230469 12.191406 3.71875 12 4.210938 11.820312 C 4.1875 11.972656 4.078125 12.679688 4.046875 12.886719 C 4.238281 12.8125 4.425781 12.742188 4.617188 12.675781 C 5.136719 12.492188 5.65625 12.320312 6.183594 12.160156 C 6.332031 12.113281 6.484375 12.066406 6.636719 12.023438 C 6.648438 11.867188 6.660156 11.714844 6.671875 11.558594 C 6.699219 11.199219 6.726562 10.84375 6.757812 10.484375 C 6.785156 10.859375 6.8125 11.234375 6.839844 11.609375 C 6.847656 11.757812 6.859375 11.90625 6.871094 12.058594 C 7.023438 12.011719 7.179688 11.96875 7.332031 11.929688 C 7.796875 11.800781 8.265625 11.683594 8.734375 11.574219 C 8.925781 11.527344 9.117188 11.484375 9.308594 11.441406 C 9.28125 11.261719 9.253906 11.078125 9.226562 10.898438 C 9.203125 10.722656 9.175781 10.546875 9.152344 10.375 C 9.296875 10.339844 9.445312 10.308594 9.59375 10.277344 L 9.59375 14.929688 C 9.511719 14.945312 9.066406 15.042969 8.925781 15.074219 C 8.902344 15.222656 8.882812 15.367188 8.863281 15.511719 C 8.808594 15.890625 8.753906 16.269531 8.703125 16.644531 L 8.617188 17.230469 C 8.808594 17.183594 9.003906 17.140625 9.195312 17.097656 C 10.304688 16.851562 11.421875 16.65625 12.546875 16.511719 C 12.742188 16.488281 12.9375 16.464844 13.132812 16.441406 L 13.230469 16.429688 C 13.875 16.359375 14.523438 16.300781 15.171875 16.261719 C 15.296875 16.253906 15.421875 16.25 15.546875 16.242188 C 15.582031 16.125 15.621094 16.007812 15.65625 15.890625 C 15.890625 15.15625 16.125 14.425781 16.355469 13.699219 C 16.394531 13.75 16.429688 13.804688 16.464844 13.855469 C 16.515625 13.929688 16.566406 14.003906 16.617188 14.074219 C 16.707031 14.074219 16.800781 14.070312 16.890625 14.070312 C 17.453125 14.0625 18.019531 14.066406 18.582031 14.082031 C 18.753906 14.675781 18.921875 15.269531 19.089844 15.863281 C 19.125 15.988281 19.160156 16.109375 19.195312 16.230469 C 19.324219 16.238281 19.453125 16.242188 19.582031 16.25 C 20.320312 16.289062 21.054688 16.351562 21.789062 16.433594 L 21.804688 16.433594 L 21.804688 16.4375 C 22 16.457031 22.195312 16.480469 22.390625 16.507812 C 23.515625 16.652344 24.632812 16.84375 25.746094 17.089844 C 25.9375 17.128906 26.128906 17.171875 26.320312 17.21875 C 26.292969 17.023438 26.265625 16.828125 26.238281 16.632812 C 26.183594 16.257812 26.128906 15.878906 26.078125 15.5 L 26.015625 15.066406 C 25.871094 15.03125 25.726562 15 25.582031 14.96875 C 25.503906 14.953125 25.425781 14.933594 25.347656 14.917969 L 25.347656 10.269531 C 25.492188 10.300781 25.640625 10.332031 25.789062 10.363281 C 25.761719 10.539062 25.734375 10.710938 25.710938 10.886719 C 25.683594 11.070312 25.65625 11.25 25.628906 11.433594 C 25.820312 11.472656 26.011719 11.515625 26.203125 11.5625 C 26.671875 11.671875 27.140625 11.789062 27.609375 11.914062 C 27.761719 11.957031 27.914062 12 28.066406 12.042969 C 28.078125 11.894531 28.089844 11.742188 28.101562 11.59375 C 28.117188 11.351562 28.136719 11.105469 28.15625 10.863281 L 28.167969 10.964844 C 28.351562 11.019531 28.539062 11.074219 28.722656 11.132812 L 28.722656 12.121094 C 28.539062 12.0625 28.359375 12.011719 28.175781 11.957031 C 28.265625 12.714844 28.355469 13.472656 28.445312 14.234375 C 28.539062 14.257812 28.628906 14.285156 28.722656 14.316406 L 28.722656 15.78125 Z M 28.601562 15.746094 "/>
<path style=" stroke:none;fill-rule:nonzero;fill:rgb(100%,89.411765%,42.745098%);fill-opacity:1;" d="M 5.996094 13.203125 L 5.898438 13.171875 C 5.585938 13.085938 5.210938 13.117188 4.757812 13.273438 C 4.078125 13.511719 3.40625 13.765625 2.738281 14.042969 C 2.511719 14.136719 2.355469 14.128906 2.257812 14.027344 C 2.1875 13.953125 2.148438 13.828125 2.148438 13.648438 C 2.148438 13.34375 2.148438 13.039062 2.148438 12.734375 C 2.152344 12.539062 2.195312 12.375 2.28125 12.230469 C 2.378906 12.066406 2.53125 11.941406 2.738281 11.855469 C 3.414062 11.574219 4.09375 11.316406 4.78125 11.078125 C 4.726562 11.429688 4.671875 11.785156 4.617188 12.136719 C 5.132812 11.957031 5.65625 11.785156 6.179688 11.625 C 6.234375 10.90625 6.289062 10.191406 6.347656 9.476562 C 4.96875 9.890625 3.605469 10.382812 2.269531 10.957031 C 1.859375 11.132812 1.519531 11.375 1.238281 11.679688 C 1.1875 11.734375 1.136719 11.789062 1.089844 11.847656 C 0.753906 12.265625 0.59375 12.695312 0.59375 13.144531 C 0.59375 13.679688 0.59375 14.214844 0.59375 14.746094 C 0.59375 15.210938 0.753906 15.492188 1.078125 15.585938 L 1.148438 15.605469 C 1.441406 15.667969 1.8125 15.597656 2.269531 15.402344 C 2.941406 15.113281 3.617188 14.847656 4.304688 14.597656 C 4.511719 14.519531 4.667969 14.53125 4.765625 14.617188 C 4.855469 14.691406 4.902344 14.828125 4.902344 15.027344 C 4.902344 15.363281 4.902344 15.699219 4.902344 16.03125 C 4.902344 16.21875 4.859375 16.371094 4.785156 16.503906 C 4.6875 16.679688 4.527344 16.804688 4.304688 16.886719 C 3.554688 17.160156 2.808594 17.457031 2.074219 17.777344 C 2.128906 17.382812 2.183594 16.988281 2.242188 16.59375 C 1.710938 16.824219 1.183594 17.0625 0.664062 17.316406 C 0.609375 18.074219 0.554688 18.835938 0.5 19.597656 C 1.890625 18.917969 3.3125 18.324219 4.757812 17.820312 C 5.214844 17.660156 5.585938 17.449219 5.886719 17.179688 L 5.996094 17.070312 C 6.347656 16.703125 6.515625 16.292969 6.515625 15.832031 C 6.515625 15.265625 6.515625 14.695312 6.515625 14.128906 C 6.515625 13.664062 6.347656 13.355469 5.996094 13.203125 "/>
<path style=" stroke:none;fill-rule:nonzero;fill:rgb(100%,89.411765%,42.745098%);fill-opacity:1;" d="M 12.546875 15.984375 C 12.492188 15.625 12.4375 15.269531 12.382812 14.910156 C 12.132812 14.941406 11.886719 14.976562 11.640625 15.015625 C 11.640625 13.136719 11.640625 11.257812 11.640625 9.378906 C 12.148438 9.300781 12.660156 9.234375 13.171875 9.175781 C 13.117188 9.550781 13.0625 9.921875 13.011719 10.296875 C 13.488281 10.242188 13.964844 10.195312 14.445312 10.160156 C 14.5 9.421875 14.550781 8.683594 14.605469 7.945312 C 12.101562 8.132812 9.609375 8.5625 7.171875 9.238281 C 7.222656 9.957031 7.273438 10.675781 7.328125 11.394531 C 7.792969 11.265625 8.261719 11.148438 8.730469 11.039062 C 8.679688 10.683594 8.628906 10.328125 8.574219 9.972656 C 9.078125 9.855469 9.582031 9.746094 10.089844 9.644531 C 10.089844 11.527344 10.089844 13.40625 10.089844 15.285156 C 9.84375 15.332031 9.597656 15.382812 9.351562 15.4375 C 9.300781 15.8125 9.246094 16.1875 9.191406 16.566406 C 10.304688 16.320312 11.421875 16.128906 12.546875 15.984375 "/>
<path style=" stroke:none;fill-rule:nonzero;fill:rgb(100%,89.411765%,42.745098%);fill-opacity:1;" d="M 16.199219 12.511719 C 16.601562 11.25 17.003906 9.992188 17.410156 8.742188 C 17.820312 9.992188 18.226562 11.25 18.636719 12.511719 C 17.824219 12.484375 17.011719 12.484375 16.199219 12.511719 M 19.582031 15.730469 C 20.316406 15.769531 21.054688 15.832031 21.785156 15.914062 C 21.839844 15.554688 21.894531 15.195312 21.949219 14.835938 C 21.632812 14.796875 21.3125 14.765625 20.992188 14.734375 C 20.875 14.382812 20.761719 14.027344 20.644531 13.675781 C 20.773438 13.683594 20.902344 13.695312 21.03125 13.707031 C 21.085938 13.363281 21.144531 13.019531 21.199219 12.675781 C 20.886719 12.644531 20.570312 12.617188 20.257812 12.59375 C 19.726562 11.007812 19.199219 9.429688 18.667969 7.859375 C 17.882812 7.835938 17.101562 7.835938 16.316406 7.859375 L 16.320312 7.859375 C 15.546875 10.125 14.777344 12.414062 14.007812 14.726562 C 13.695312 14.753906 13.378906 14.785156 13.0625 14.820312 C 13.117188 15.183594 13.171875 15.542969 13.226562 15.902344 C 13.875 15.832031 14.523438 15.777344 15.171875 15.738281 C 15.511719 14.664062 15.851562 13.59375 16.191406 12.53125 C 16.421875 12.867188 16.65625 13.207031 16.890625 13.546875 C 17.582031 13.535156 18.277344 13.542969 18.96875 13.570312 C 19.171875 14.289062 19.375 15.007812 19.578125 15.730469 "/>
<path style=" stroke:none;fill-rule:nonzero;fill:rgb(100%,89.411765%,42.745098%);fill-opacity:1;" d="M 25.742188 16.574219 C 25.6875 16.195312 25.632812 15.820312 25.582031 15.445312 C 25.335938 15.390625 25.089844 15.339844 24.84375 15.292969 C 24.84375 13.414062 24.84375 11.53125 24.84375 9.652344 C 25.351562 9.753906 25.855469 9.863281 26.359375 9.980469 C 26.308594 10.335938 26.253906 10.691406 26.199219 11.046875 C 26.671875 11.15625 27.140625 11.277344 27.605469 11.402344 C 27.65625 10.683594 27.710938 9.964844 27.765625 9.246094 C 25.324219 8.570312 22.832031 8.136719 20.328125 7.949219 C 20.382812 8.6875 20.433594 9.425781 20.488281 10.160156 C 20.96875 10.199219 21.445312 10.246094 21.921875 10.300781 C 21.867188 9.925781 21.816406 9.554688 21.761719 9.179688 C 22.273438 9.238281 22.785156 9.304688 23.292969 9.382812 C 23.292969 11.261719 23.292969 13.144531 23.292969 15.023438 C 23.046875 14.984375 22.800781 14.949219 22.550781 14.914062 C 22.496094 15.273438 22.441406 15.628906 22.386719 15.988281 C 23.511719 16.132812 24.632812 16.328125 25.742188 16.574219 "/>
<path style=" stroke:none;fill-rule:nonzero;fill:rgb(100%,89.411765%,42.745098%);fill-opacity:1;" d="M 34.371094 11.757812 C 32.453125 10.816406 30.472656 10.046875 28.453125 9.445312 C 28.5 9.824219 28.550781 10.203125 28.597656 10.582031 C 28.800781 10.644531 29.003906 10.707031 29.210938 10.773438 C 29.210938 11.433594 29.210938 12.089844 29.210938 12.75 C 29.050781 12.699219 28.890625 12.648438 28.730469 12.601562 C 28.777344 13.019531 28.828125 13.433594 28.878906 13.851562 C 28.988281 13.886719 29.097656 13.921875 29.210938 13.957031 C 29.210938 14.777344 29.210938 15.597656 29.210938 16.414062 C 29.003906 16.347656 28.800781 16.285156 28.597656 16.222656 C 28.550781 16.574219 28.5 16.925781 28.453125 17.273438 C 30.511719 17.886719 32.53125 18.675781 34.488281 19.640625 L 34.484375 19.640625 C 34.4375 18.785156 34.394531 17.933594 34.347656 17.082031 C 33.945312 16.882812 33.542969 16.695312 33.132812 16.511719 C 33.179688 17 33.226562 17.488281 33.269531 17.972656 C 32.394531 17.578125 31.507812 17.21875 30.613281 16.894531 C 30.613281 16.074219 30.613281 15.257812 30.613281 14.4375 C 31.117188 14.621094 31.621094 14.816406 32.121094 15.023438 C 32.167969 14.640625 32.21875 14.257812 32.265625 13.875 C 31.71875 13.648438 31.167969 13.433594 30.613281 13.230469 C 30.613281 12.570312 30.613281 11.914062 30.613281 11.253906 C 31.480469 11.570312 32.339844 11.917969 33.191406 12.296875 C 33.144531 12.71875 33.097656 13.144531 33.050781 13.566406 C 33.449219 13.742188 33.84375 13.925781 34.238281 14.117188 C 34.28125 13.332031 34.328125 12.542969 34.371094 11.757812 "/>
<path style=" stroke:none;fill-rule:nonzero;fill:rgb(100%,79.215686%,21.960784%);fill-opacity:1;" d="M 4.726562 13.832031 C 4.304688 13.964844 2.703125 14.589844 2.347656 14.753906 C 2.058594 14.878906 1.835938 14.90625 1.671875 14.851562 C 1.5 15.101562 1.324219 15.351562 1.148438 15.605469 C 1.441406 15.667969 1.8125 15.597656 2.269531 15.402344 C 2.941406 15.113281 3.617188 14.847656 4.304688 14.597656 C 4.511719 14.519531 4.667969 14.53125 4.765625 14.617188 C 4.976562 14.34375 5.1875 14.070312 5.398438 13.800781 C 5.226562 13.738281 4.996094 13.738281 4.726562 13.832031 "/>
<path style=" stroke:none;fill-rule:nonzero;fill:rgb(100%,79.215686%,21.960784%);fill-opacity:1;" d="M 1.375 12.878906 C 1.375 13.300781 1.375 13.890625 1.375 14.28125 C 1.375 14.59375 1.476562 14.785156 1.671875 14.851562 C 1.867188 14.574219 2.0625 14.300781 2.257812 14.027344 C 2.1875 13.953125 2.148438 13.828125 2.148438 13.648438 C 2.148438 13.34375 2.148438 13.039062 2.148438 12.734375 C 2.152344 12.539062 2.195312 12.375 2.28125 12.230469 C 2.097656 12.132812 1.914062 12.035156 1.734375 11.941406 C 1.488281 12.226562 1.375 12.558594 1.375 12.878906 "/>
<path style=" stroke:none;fill-rule:nonzero;fill:rgb(100%,79.215686%,21.960784%);fill-opacity:1;" d="M 5.996094 13.203125 L 5.898438 13.171875 C 5.730469 13.382812 5.566406 13.589844 5.398438 13.800781 C 5.601562 13.878906 5.726562 14.046875 5.726562 14.277344 C 5.726562 14.871094 5.726562 15.464844 5.726562 16.0625 C 5.71875 16.308594 5.582031 16.632812 5.386719 16.867188 C 5.550781 16.972656 5.71875 17.074219 5.886719 17.179688 L 5.996094 17.070312 C 6.347656 16.703125 6.515625 16.292969 6.515625 15.832031 C 6.515625 15.265625 6.515625 14.695312 6.515625 14.128906 C 6.515625 13.664062 6.347656 13.355469 5.996094 13.203125 "/>
<path style=" stroke:none;fill-rule:nonzero;fill:rgb(100%,79.215686%,21.960784%);fill-opacity:1;" d="M 2.464844 11.425781 C 2.148438 11.558594 1.90625 11.738281 1.734375 11.941406 C 1.914062 12.035156 2.097656 12.132812 2.28125 12.230469 C 2.378906 12.066406 2.53125 11.941406 2.738281 11.855469 C 3.414062 11.574219 4.09375 11.316406 4.78125 11.078125 C 5.039062 10.804688 5.296875 10.539062 5.558594 10.273438 C 4.515625 10.609375 3.484375 10.996094 2.464844 11.425781 "/>
<path style=" stroke:none;fill-rule:nonzero;fill:rgb(100%,79.215686%,21.960784%);fill-opacity:1;" d="M 5.40625 11.316406 C 5.140625 11.585938 4.878906 11.863281 4.617188 12.136719 C 5.136719 11.957031 5.65625 11.785156 6.179688 11.625 C 5.921875 11.519531 5.660156 11.417969 5.40625 11.316406 "/>
<path style=" stroke:none;fill-rule:nonzero;fill:rgb(100%,79.215686%,21.960784%);fill-opacity:1;" d="M 5.386719 16.867188 C 5.28125 16.996094 5.15625 17.097656 5.03125 17.144531 C 3.78125 17.570312 2.546875 18.0625 1.332031 18.621094 C 1.054688 18.945312 0.777344 19.269531 0.5 19.597656 C 1.890625 18.917969 3.3125 18.324219 4.757812 17.820312 C 5.214844 17.660156 5.585938 17.449219 5.886719 17.179688 C 5.71875 17.074219 5.550781 16.972656 5.386719 16.867188 "/>
<path style=" stroke:none;fill-rule:nonzero;fill:rgb(100%,79.215686%,21.960784%);fill-opacity:1;" d="M 2.242188 16.59375 C 1.976562 16.898438 1.710938 17.207031 1.449219 17.515625 C 1.410156 17.882812 1.371094 18.253906 1.332031 18.621094 C 1.578125 18.335938 1.828125 18.054688 2.074219 17.777344 C 2.128906 17.382812 2.183594 16.988281 2.242188 16.59375 "/>
<path style=" stroke:none;fill-rule:nonzero;fill:rgb(100%,79.215686%,21.960784%);fill-opacity:1;" d="M 5.558594 10.273438 C 5.507812 10.621094 5.457031 10.96875 5.40625 11.316406 C 5.660156 11.417969 5.921875 11.519531 6.179688 11.625 C 6.234375 10.90625 6.289062 10.191406 6.347656 9.476562 C 6.082031 9.738281 5.820312 10.003906 5.558594 10.273438 "/>
<path style=" stroke:none;fill-rule:nonzero;fill:rgb(100%,79.215686%,21.960784%);fill-opacity:1;" d="M 8.730469 11.039062 C 8.488281 10.914062 8.242188 10.789062 7.996094 10.667969 C 7.773438 10.910156 7.550781 11.148438 7.328125 11.394531 C 7.796875 11.265625 8.261719 11.148438 8.730469 11.039062 "/>
<path style=" stroke:none;fill-rule:nonzero;fill:rgb(100%,79.215686%,21.960784%);fill-opacity:1;" d="M 8.730469 11.039062 C 8.679688 10.683594 8.628906 10.328125 8.574219 9.972656 C 8.339844 9.847656 8.101562 9.722656 7.867188 9.601562 C 7.910156 9.957031 7.953125 10.3125 7.996094 10.667969 C 8.242188 10.789062 8.488281 10.914062 8.730469 11.039062 "/>
<path style=" stroke:none;fill-rule:nonzero;fill:rgb(100%,79.215686%,21.960784%);fill-opacity:1;" d="M 10.863281 8.957031 C 9.859375 9.132812 8.859375 9.347656 7.867188 9.601562 C 8.101562 9.722656 8.339844 9.847656 8.574219 9.972656 C 9.078125 9.855469 9.582031 9.746094 10.089844 9.644531 C 10.347656 9.414062 10.605469 9.183594 10.863281 8.957031 "/>
<path style=" stroke:none;fill-rule:nonzero;fill:rgb(100%,79.215686%,21.960784%);fill-opacity:1;" d="M 10.863281 15.65625 C 10.863281 13.421875 10.863281 11.191406 10.863281 8.957031 C 11.121094 9.09375 11.378906 9.234375 11.640625 9.378906 C 11.640625 11.257812 11.640625 13.136719 11.640625 15.015625 C 11.378906 15.226562 11.121094 15.441406 10.863281 15.65625 "/>
<path style=" stroke:none;fill-rule:nonzero;fill:rgb(100%,79.215686%,21.960784%);fill-opacity:1;" d="M 13.011719 10.296875 C 13.261719 10.085938 13.511719 9.875 13.761719 9.667969 C 13.988281 9.828125 14.214844 9.992188 14.445312 10.160156 C 13.964844 10.195312 13.488281 10.242188 13.011719 10.296875 "/>
<path style=" stroke:none;fill-rule:nonzero;fill:rgb(100%,79.215686%,21.960784%);fill-opacity:1;" d="M 13.898438 8.554688 C 14.136719 8.351562 14.371094 8.148438 14.605469 7.945312 C 14.550781 8.683594 14.5 9.421875 14.445312 10.160156 C 14.214844 9.992188 13.988281 9.828125 13.761719 9.667969 C 13.808594 9.296875 13.851562 8.925781 13.898438 8.554688 "/>
<path style=" stroke:none;fill-rule:nonzero;fill:rgb(100%,79.215686%,21.960784%);fill-opacity:1;" d="M 10.863281 8.957031 C 11.871094 8.78125 12.882812 8.648438 13.898438 8.554688 C 13.65625 8.757812 13.414062 8.964844 13.171875 9.175781 C 12.660156 9.234375 12.148438 9.300781 11.640625 9.378906 C 11.378906 9.234375 11.121094 9.09375 10.863281 8.957031 "/>
<path style=" stroke:none;fill-rule:nonzero;fill:rgb(100%,79.215686%,21.960784%);fill-opacity:1;" d="M 12.546875 15.984375 C 12.351562 15.816406 12.160156 15.644531 11.96875 15.480469 C 11.230469 15.585938 10.496094 15.714844 9.761719 15.863281 C 9.574219 16.09375 9.382812 16.328125 9.191406 16.566406 C 10.304688 16.320312 11.421875 16.128906 12.546875 15.984375 "/>
<path style=" stroke:none;fill-rule:nonzero;fill:rgb(100%,79.215686%,21.960784%);fill-opacity:1;" d="M 12.382812 14.910156 C 12.246094 15.097656 12.105469 15.289062 11.96875 15.480469 C 12.160156 15.644531 12.351562 15.816406 12.546875 15.984375 C 12.492188 15.625 12.4375 15.269531 12.382812 14.910156 "/>
<path style=" stroke:none;fill-rule:nonzero;fill:rgb(100%,79.215686%,21.960784%);fill-opacity:1;" d="M 13.488281 15.289062 C 13.398438 15.492188 13.3125 15.699219 13.226562 15.902344 C 13.875 15.832031 14.523438 15.777344 15.171875 15.738281 C 14.976562 15.554688 14.785156 15.371094 14.59375 15.191406 C 14.222656 15.21875 13.855469 15.25 13.488281 15.289062 "/>
<path style=" stroke:none;fill-rule:nonzero;fill:rgb(100%,79.215686%,21.960784%);fill-opacity:1;" d="M 20.644531 13.675781 C 20.773438 13.683594 20.902344 13.695312 21.03125 13.707031 C 20.949219 13.523438 20.867188 13.339844 20.785156 13.15625 C 20.40625 13.125 20.027344 13.097656 19.648438 13.074219 C 19.980469 13.269531 20.3125 13.472656 20.644531 13.675781 "/>
<path style=" stroke:none;fill-rule:nonzero;fill:rgb(100%,79.215686%,21.960784%);fill-opacity:1;" d="M 21.527344 15.300781 C 21.132812 15.261719 20.734375 15.222656 20.339844 15.195312 C 20.085938 15.371094 19.832031 15.546875 19.582031 15.730469 C 20.316406 15.769531 21.054688 15.832031 21.785156 15.914062 C 21.699219 15.710938 21.613281 15.507812 21.527344 15.300781 "/>
<path style=" stroke:none;fill-rule:nonzero;fill:rgb(100%,79.215686%,21.960784%);fill-opacity:1;" d="M 20.257812 12.59375 C 19.726562 11.007812 19.199219 9.429688 18.667969 7.859375 C 18.480469 8.039062 18.292969 8.214844 18.105469 8.398438 C 18.621094 9.945312 19.132812 11.503906 19.648438 13.074219 C 19.851562 12.914062 20.054688 12.753906 20.257812 12.59375 "/>
<path style=" stroke:none;fill-rule:nonzero;fill:rgb(100%,79.215686%,21.960784%);fill-opacity:1;" d="M 16.828125 8.394531 C 16.082031 10.640625 15.335938 12.90625 14.59375 15.191406 C 14.785156 15.371094 14.976562 15.554688 15.171875 15.738281 C 15.917969 13.382812 16.664062 11.054688 17.410156 8.742188 C 17.214844 8.625 17.019531 8.511719 16.828125 8.394531 "/>
<path style=" stroke:none;fill-rule:nonzero;fill:rgb(100%,79.215686%,21.960784%);fill-opacity:1;" d="M 19.648438 13.074219 C 18.785156 13.027344 17.921875 13.003906 17.054688 13.015625 C 17 13.191406 16.945312 13.367188 16.890625 13.546875 C 17.582031 13.535156 18.277344 13.542969 18.96875 13.570312 C 19.195312 13.40625 19.421875 13.238281 19.648438 13.074219 "/>
<path style=" stroke:none;fill-rule:nonzero;fill:rgb(100%,79.215686%,21.960784%);fill-opacity:1;" d="M 20.992188 14.734375 C 20.875 14.382812 20.761719 14.027344 20.644531 13.675781 C 20.3125 13.472656 19.980469 13.269531 19.648438 13.074219 C 19.878906 13.777344 20.109375 14.484375 20.339844 15.195312 C 20.558594 15.039062 20.777344 14.886719 20.992188 14.734375 "/>
<path style=" stroke:none;fill-rule:nonzero;fill:rgb(100%,79.215686%,21.960784%);fill-opacity:1;" d="M 21.03125 13.707031 C 20.949219 13.523438 20.867188 13.339844 20.785156 13.15625 C 20.921875 12.996094 21.0625 12.835938 21.199219 12.675781 C 21.144531 13.019531 21.085938 13.363281 21.03125 13.707031 "/>
<path style=" stroke:none;fill-rule:nonzero;fill:rgb(100%,79.215686%,21.960784%);fill-opacity:1;" d="M 21.785156 15.914062 C 21.699219 15.710938 21.613281 15.507812 21.527344 15.300781 C 21.667969 15.144531 21.808594 14.988281 21.949219 14.835938 C 21.894531 15.195312 21.839844 15.554688 21.785156 15.914062 "/>
<path style=" stroke:none;fill-rule:nonzero;fill:rgb(100%,79.215686%,21.960784%);fill-opacity:1;" d="M 16.828125 8.394531 C 17.019531 8.511719 17.214844 8.625 17.410156 8.742188 C 17.640625 8.625 17.871094 8.511719 18.105469 8.398438 C 17.679688 8.390625 17.253906 8.390625 16.828125 8.394531 "/>
<path style=" stroke:none;fill-rule:nonzero;fill:rgb(100%,79.215686%,21.960784%);fill-opacity:1;" d="M 21.921875 10.300781 C 21.671875 10.089844 21.421875 9.878906 21.171875 9.671875 C 20.945312 9.832031 20.71875 9.996094 20.488281 10.160156 C 20.96875 10.199219 21.445312 10.246094 21.921875 10.300781 "/>
<path style=" stroke:none;fill-rule:nonzero;fill:rgb(100%,79.215686%,21.960784%);fill-opacity:1;" d="M 21.921875 10.300781 C 21.867188 9.925781 21.816406 9.554688 21.761719 9.179688 C 21.523438 8.96875 21.28125 8.761719 21.042969 8.558594 C 21.085938 8.929688 21.128906 9.300781 21.171875 9.671875 C 21.421875 9.878906 21.671875 10.089844 21.921875 10.300781 "/>
<path style=" stroke:none;fill-rule:nonzero;fill:rgb(100%,79.215686%,21.960784%);fill-opacity:1;" d="M 24.070312 8.964844 C 23.066406 8.789062 22.054688 8.652344 21.042969 8.558594 C 21.28125 8.761719 21.523438 8.96875 21.761719 9.179688 C 22.273438 9.238281 22.785156 9.304688 23.292969 9.382812 C 23.554688 9.242188 23.8125 9.101562 24.070312 8.964844 "/>
<path style=" stroke:none;fill-rule:nonzero;fill:rgb(100%,79.215686%,21.960784%);fill-opacity:1;" d="M 24.070312 15.664062 C 24.070312 13.429688 24.070312 11.195312 24.070312 8.964844 C 24.328125 9.191406 24.585938 9.421875 24.84375 9.652344 C 24.84375 11.53125 24.84375 13.414062 24.84375 15.292969 C 24.585938 15.414062 24.328125 15.535156 24.070312 15.664062 "/>
<path style=" stroke:none;fill-rule:nonzero;fill:rgb(100%,79.215686%,21.960784%);fill-opacity:1;" d="M 26.199219 11.046875 C 26.445312 10.921875 26.691406 10.796875 26.9375 10.679688 C 27.160156 10.917969 27.382812 11.160156 27.605469 11.402344 C 27.136719 11.277344 26.671875 11.15625 26.199219 11.046875 "/>
<path style=" stroke:none;fill-rule:nonzero;fill:rgb(100%,79.215686%,21.960784%);fill-opacity:1;" d="M 27.074219 9.613281 C 27.304688 9.488281 27.535156 9.367188 27.765625 9.246094 C 27.710938 9.964844 27.65625 10.683594 27.605469 11.402344 C 27.382812 11.160156 27.160156 10.917969 26.9375 10.679688 C 26.984375 10.324219 27.027344 9.96875 27.074219 9.613281 "/>
<path style=" stroke:none;fill-rule:nonzero;fill:rgb(100%,79.215686%,21.960784%);fill-opacity:1;" d="M 24.070312 8.964844 C 25.078125 9.140625 26.078125 9.355469 27.074219 9.613281 C 26.835938 9.734375 26.597656 9.855469 26.359375 9.980469 C 25.855469 9.863281 25.351562 9.753906 24.84375 9.652344 C 24.585938 9.421875 24.328125 9.191406 24.070312 8.964844 "/>
<path style=" stroke:none;fill-rule:nonzero;fill:rgb(100%,79.215686%,21.960784%);fill-opacity:1;" d="M 25.742188 16.574219 C 25.550781 16.335938 25.359375 16.101562 25.167969 15.871094 C 24.4375 15.71875 23.703125 15.59375 22.964844 15.484375 C 22.773438 15.652344 22.582031 15.820312 22.386719 15.988281 C 23.511719 16.132812 24.632812 16.328125 25.742188 16.574219 "/>
<path style=" stroke:none;fill-rule:nonzero;fill:rgb(100%,79.215686%,21.960784%);fill-opacity:1;" d="M 25.582031 15.445312 C 25.445312 15.585938 25.308594 15.726562 25.167969 15.871094 C 25.359375 16.101562 25.550781 16.335938 25.742188 16.574219 C 25.6875 16.195312 25.632812 15.820312 25.582031 15.445312 "/>
<path style=" stroke:none;fill-rule:nonzero;fill:rgb(100%,79.215686%,21.960784%);fill-opacity:1;" d="M 33.761719 12.015625 C 33.71875 12.511719 33.675781 13.003906 33.632812 13.5 C 33.835938 13.703125 34.035156 13.910156 34.238281 14.117188 C 34.28125 13.332031 34.328125 12.542969 34.371094 11.757812 C 34.167969 11.839844 33.964844 11.925781 33.761719 12.015625 "/>
<path style=" stroke:none;fill-rule:nonzero;fill:rgb(100%,79.215686%,21.960784%);fill-opacity:1;" d="M 33.761719 12.015625 C 32.496094 11.421875 31.207031 10.902344 29.894531 10.457031 C 30.136719 10.71875 30.375 10.984375 30.613281 11.253906 C 31.480469 11.570312 32.339844 11.917969 33.191406 12.296875 C 33.382812 12.199219 33.570312 12.105469 33.761719 12.015625 "/>
<path style=" stroke:none;fill-rule:nonzero;fill:rgb(100%,79.215686%,21.960784%);fill-opacity:1;" d="M 29.894531 10.457031 C 29.894531 11.488281 29.894531 12.523438 29.894531 13.554688 C 30.136719 13.445312 30.375 13.335938 30.613281 13.230469 C 30.613281 12.570312 30.613281 11.914062 30.613281 11.253906 C 30.375 10.984375 30.136719 10.71875 29.894531 10.457031 "/>
<path style=" stroke:none;fill-rule:nonzero;fill:rgb(100%,79.215686%,21.960784%);fill-opacity:1;" d="M 30.613281 14.4375 C 31.117188 14.621094 31.621094 14.816406 32.121094 15.023438 C 32.046875 14.78125 31.976562 14.542969 31.902344 14.300781 C 31.238281 14.035156 30.570312 13.785156 29.894531 13.554688 C 30.136719 13.847656 30.375 14.140625 30.613281 14.4375 "/>
<path style=" stroke:none;fill-rule:nonzero;fill:rgb(100%,79.215686%,21.960784%);fill-opacity:1;" d="M 29.894531 13.554688 C 29.894531 14.753906 29.894531 15.949219 29.894531 17.148438 C 30.136719 17.058594 30.375 16.976562 30.613281 16.894531 C 30.613281 16.074219 30.613281 15.257812 30.613281 14.4375 C 30.375 14.140625 30.136719 13.847656 29.894531 13.554688 "/>
<path style=" stroke:none;fill-rule:nonzero;fill:rgb(100%,79.215686%,21.960784%);fill-opacity:1;" d="M 34.347656 17.082031 C 34.144531 17.085938 33.9375 17.09375 33.730469 17.105469 C 33.777344 17.65625 33.820312 18.207031 33.867188 18.753906 C 34.074219 19.046875 34.28125 19.34375 34.484375 19.640625 C 34.4375 18.789062 34.394531 17.933594 34.347656 17.082031 "/>
<path style=" stroke:none;fill-rule:nonzero;fill:rgb(100%,79.215686%,21.960784%);fill-opacity:1;" d="M 33.867188 18.753906 C 32.226562 17.980469 30.542969 17.332031 28.832031 16.800781 C 28.707031 16.957031 28.582031 17.117188 28.453125 17.273438 C 30.511719 17.886719 32.53125 18.675781 34.488281 19.640625 C 34.28125 19.34375 34.074219 19.046875 33.867188 18.753906 "/>
<path style=" stroke:none;fill-rule:nonzero;fill:rgb(100%,79.215686%,21.960784%);fill-opacity:1;" d="M 29.894531 13.554688 C 29.632812 13.464844 29.367188 13.378906 29.101562 13.292969 C 29.027344 13.480469 28.953125 13.667969 28.878906 13.851562 C 28.988281 13.886719 29.097656 13.921875 29.210938 13.957031 C 29.4375 13.820312 29.667969 13.6875 29.894531 13.554688 "/>
<path style=" stroke:none;fill-rule:nonzero;fill:rgb(100%,79.215686%,21.960784%);fill-opacity:1;" d="M 29.894531 10.457031 C 29.542969 10.335938 29.183594 10.21875 28.828125 10.109375 C 28.75 10.265625 28.671875 10.425781 28.597656 10.582031 C 28.800781 10.644531 29.003906 10.707031 29.210938 10.773438 C 29.4375 10.664062 29.667969 10.558594 29.894531 10.457031 "/>
<path style=" stroke:none;fill-rule:nonzero;fill:rgb(100%,79.215686%,21.960784%);fill-opacity:1;" d="M 32.121094 15.023438 C 32.046875 14.78125 31.976562 14.542969 31.902344 14.300781 C 32.023438 14.160156 32.144531 14.015625 32.265625 13.875 C 32.21875 14.257812 32.167969 14.640625 32.121094 15.023438 "/>
<path style=" stroke:none;fill-rule:nonzero;fill:rgb(100%,79.215686%,21.960784%);fill-opacity:1;" d="M 33.050781 13.566406 C 33.246094 13.542969 33.441406 13.523438 33.632812 13.5 C 33.835938 13.703125 34.035156 13.910156 34.238281 14.117188 C 33.84375 13.925781 33.449219 13.742188 33.050781 13.566406 "/>
</g>
</svg>
