<?xml version="1.0" encoding="UTF-8"?>
<svg xmlns="http://www.w3.org/2000/svg" xmlns:xlink="http://www.w3.org/1999/xlink" width="35pt" height="25pt" viewBox="0 0 35 25" version="1.1">
<defs>
<clipPath id="clip1">
  <path d="M 3.152344 0 L 32 0 L 32 25 L 3.152344 25 Z M 3.152344 0 "/>
</clipPath>
</defs>
<g id="surface1">
<g clip-path="url(#clip1)" clip-rule="nonzero">
<path style=" stroke:none;fill-rule:nonzero;fill:rgb(0%,13.333333%,70.588235%);fill-opacity:1;" d="M 30.980469 5.964844 C 30.625 5.832031 29.886719 5.644531 28.832031 5.714844 C 28.246094 5.753906 26.984375 6.09375 26.984375 6.09375 C 26.984375 6.09375 27.824219 6.859375 28.742188 7.421875 C 29.792969 8.066406 30.578125 8.378906 30.613281 8.398438 C 30.652344 8.414062 30.636719 8.457031 30.613281 8.472656 C 30.589844 8.484375 30.046875 8.609375 29.226562 8.851562 C 28.472656 9.078125 27.828125 9.398438 26.152344 9.785156 C 23.867188 10.316406 21.289062 10.0625 21.285156 10.058594 C 21.28125 10.054688 21.269531 10.148438 21.253906 10.230469 C 21.234375 10.3125 21.199219 10.398438 21.203125 10.402344 C 21.207031 10.40625 21.628906 10.394531 22.363281 10.421875 C 23.339844 10.457031 23.570312 10.617188 23.621094 10.882812 C 23.683594 11.207031 23.378906 11.414062 23.378906 11.414062 C 23.378906 11.414062 24.460938 11.398438 24.699219 12.171875 C 24.914062 12.851562 24.050781 13.660156 23.625 13.96875 C 23.199219 14.273438 21.636719 15 20.152344 16.070312 C 19.1875 16.765625 17.816406 18 17.800781 18.035156 C 17.78125 18.066406 17.769531 18.054688 17.792969 18.082031 C 17.8125 18.109375 18.339844 18.429688 18.660156 18.722656 C 18.972656 19.011719 19.265625 19.421875 19.265625 19.421875 C 19.265625 19.421875 19.320312 19.414062 19.59375 18.804688 C 19.734375 18.496094 19.78125 18.140625 19.816406 18.097656 C 19.894531 18.007812 20.226562 17.972656 20.25 17.949219 C 20.269531 17.925781 20.417969 17.613281 20.679688 17.378906 C 20.941406 17.144531 21.109375 17.082031 21.210938 17.039062 C 21.3125 17 21.21875 16.460938 21.617188 15.808594 C 22.085938 15.03125 22.808594 14.917969 23.671875 15.09375 C 24.617188 15.289062 25.09375 16.214844 25.09375 16.214844 C 25.09375 16.214844 25.433594 16.167969 25.671875 16.652344 C 25.839844 17 25.800781 17.613281 25.5 18.546875 C 25.308594 19.15625 24.757812 20.457031 23.757812 21.546875 C 22.792969 22.59375 22.242188 22.796875 22.242188 22.796875 C 22.242188 22.796875 22.050781 23.421875 21.507812 24.09375 C 21.195312 24.484375 20.511719 25.003906 20.058594 25 C 19.476562 24.992188 19.316406 24.550781 19.207031 24.480469 C 19.097656 24.410156 18.757812 24.277344 18.617188 24.117188 C 18.417969 23.882812 18.25 23.496094 18.25 23.496094 C 18.25 23.496094 17.890625 23.554688 17.4375 23.984375 C 16.636719 24.738281 16.875 24.984375 16.789062 24.988281 C 16.652344 24.992188 16.375 24.28125 17.019531 23.3125 C 17.34375 22.832031 17.722656 22.714844 17.722656 22.699219 C 17.722656 22.683594 17.574219 22.660156 17.460938 22.570312 C 17.339844 22.476562 17.300781 22.382812 17.300781 22.394531 L 17.210938 22.355469 C 17.210938 22.355469 17.390625 22.726562 17.328125 22.753906 C 17.160156 22.835938 16.800781 22.609375 16.484375 22.414062 C 16.0625 22.160156 15.960938 22.007812 15.925781 22.011719 C 15.894531 22.015625 15.867188 22.3125 15.679688 22.347656 C 15.496094 22.378906 15.363281 22.253906 15.144531 22.09375 C 14.921875 21.933594 14.710938 21.589844 14.710938 21.589844 C 14.710938 21.589844 14.636719 21.863281 14.226562 22.738281 C 13.8125 23.613281 13.503906 23.8125 13.195312 23.800781 C 12.8125 23.78125 12.628906 23.46875 12.628906 23.46875 C 12.628906 23.46875 11.308594 24.109375 9.867188 24.269531 C 8.097656 24.46875 7.046875 24 6.984375 23.996094 C 6.921875 23.992188 6.636719 24.140625 5.914062 24.15625 C 5.238281 24.171875 4.382812 23.941406 4 23.453125 C 3.597656 22.9375 3.835938 22.445312 3.835938 22.445312 C 3.835938 22.445312 3.773438 22.308594 3.730469 22.027344 C 3.703125 21.851562 3.8125 21.363281 4.316406 21.121094 C 4.804688 20.886719 5.308594 21.261719 5.308594 21.261719 C 5.308594 21.261719 5.371094 21.175781 5.449219 21.117188 C 5.523438 21.050781 5.609375 21.003906 5.609375 21.003906 C 5.609375 21.003906 5.605469 20.9375 5.601562 20.886719 C 5.597656 20.835938 5.601562 20.792969 5.601562 20.792969 C 5.601562 20.792969 5.441406 20.773438 5.242188 20.753906 C 5.042969 20.734375 4.636719 20.621094 4.476562 20.589844 C 4.320312 20.554688 4.210938 20.574219 4.179688 20.550781 C 4.144531 20.523438 4.304688 20.414062 4.515625 20.339844 C 4.726562 20.265625 5.398438 20.011719 5.828125 19.90625 C 6.382812 19.769531 6.492188 19.824219 6.492188 19.824219 C 6.492188 19.824219 6.519531 19.703125 6.550781 19.632812 C 6.582031 19.5625 6.617188 19.472656 6.613281 19.472656 C 6.609375 19.472656 6.464844 19.335938 6.410156 19.15625 C 6.351562 18.972656 6.359375 18.992188 6.351562 18.707031 C 6.351562 18.707031 6.207031 18.742188 6.007812 18.722656 C 5.804688 18.699219 5.527344 18.480469 5.554688 18.164062 C 5.589844 17.726562 5.972656 17.476562 5.980469 17.460938 C 5.988281 17.441406 5.835938 17.394531 5.5 17.222656 C 5.128906 17.035156 5.03125 16.894531 5.046875 16.824219 C 5.0625 16.753906 5.199219 16.761719 5.316406 16.761719 C 5.433594 16.761719 5.535156 16.78125 5.546875 16.761719 C 5.558594 16.742188 5.132812 16.558594 4.941406 16.445312 C 4.75 16.332031 4.148438 16.011719 4.113281 15.84375 C 4.082031 15.707031 4.765625 15.796875 4.757812 15.773438 C 4.746094 15.753906 4.644531 15.800781 4.085938 15.441406 C 3.828125 15.273438 3.46875 14.902344 3.503906 14.820312 C 3.53125 14.75 3.796875 14.761719 4.042969 14.84375 C 4.25 14.910156 4.546875 14.96875 4.546875 14.96875 C 4.546875 14.96875 4.363281 14.808594 4.417969 14.675781 C 4.503906 14.46875 5.296875 14.800781 5.34375 14.742188 C 5.363281 14.714844 5.175781 14.5625 4.882812 14.265625 C 4.59375 13.964844 4.570312 13.8125 4.597656 13.742188 C 4.632812 13.65625 4.734375 13.683594 4.839844 13.675781 C 4.949219 13.667969 5.09375 13.660156 5.085938 13.640625 C 5.078125 13.625 4.734375 13 4.628906 12.824219 C 4.519531 12.644531 3.976562 11.644531 4.355469 11.441406 C 4.730469 11.238281 5.4375 12.101562 5.464844 12.105469 C 5.496094 12.109375 5.414062 11.902344 5.574219 11.835938 C 5.71875 11.777344 5.9375 12.042969 6.003906 11.988281 C 6.019531 11.976562 5.847656 11.703125 5.738281 11.410156 C 5.632812 11.128906 5.433594 10.777344 5.6875 10.519531 C 5.976562 10.230469 6.601562 11.324219 6.601562 11.324219 C 6.601562 11.324219 6.339844 10.335938 6.238281 9.632812 C 6.144531 8.972656 6.070312 8.359375 6.472656 8.191406 C 6.738281 8.078125 7.019531 8.519531 7.269531 8.878906 C 7.519531 9.234375 7.789062 10.003906 7.808594 10.007812 C 7.828125 10.015625 7.820312 9.464844 8.042969 9.449219 C 8.167969 9.4375 8.285156 9.789062 8.402344 10.175781 C 8.542969 10.632812 8.695312 10.902344 8.710938 10.902344 C 8.722656 10.902344 8.734375 10.324219 8.710938 9.761719 C 8.691406 9.203125 8.703125 8.644531 9.015625 8.621094 C 9.328125 8.597656 9.667969 9.375 9.800781 9.730469 C 9.9375 10.09375 10.203125 10.972656 10.277344 10.980469 C 10.3125 10.984375 10.265625 10.5625 10.617188 10.554688 C 10.992188 10.550781 11.320312 11.996094 11.320312 11.996094 C 11.320312 11.996094 11.941406 11.65625 12.367188 11.570312 C 12.835938 11.472656 13.359375 11.492188 13.359375 11.492188 C 13.359375 11.492188 13.238281 11.429688 12.726562 11.363281 C 12.21875 11.296875 12 11.335938 11.882812 11.0625 C 11.773438 10.808594 12.074219 10.621094 12.292969 10.5625 C 12.457031 10.519531 12.898438 10.484375 12.9375 10.453125 C 12.980469 10.425781 13 10.246094 13.03125 10.164062 C 13.066406 10.074219 13.136719 9.945312 13.136719 9.945312 C 13.136719 9.945312 12.871094 10.089844 12.546875 10.132812 C 12.167969 10.1875 11.953125 10.121094 11.941406 10.097656 C 11.921875 10.054688 12.136719 9.757812 12.210938 9.609375 C 12.285156 9.464844 12.367188 9.148438 12.367188 9.148438 C 12.367188 9.148438 12.164062 9.203125 12.035156 9.226562 C 11.90625 9.246094 11.679688 9.269531 11.628906 9.234375 C 11.585938 9.203125 11.90625 8.691406 12.023438 8.328125 C 12.1875 7.816406 12.21875 7.40625 12.21875 7.40625 C 12.21875 7.40625 12.105469 7.449219 12.046875 7.46875 C 11.988281 7.488281 11.792969 7.609375 11.757812 7.574219 C 11.722656 7.542969 12.003906 6.667969 12.058594 6.371094 C 12.113281 6.070312 12.300781 5.699219 12.300781 5.699219 C 12.300781 5.699219 11.957031 5.785156 11.492188 5.613281 C 11.207031 5.507812 10.917969 4.996094 11.003906 5 C 11.449219 5.03125 11.777344 4.855469 12.292969 4.367188 C 12.636719 4.042969 13.363281 2.917969 13.554688 2.742188 C 13.863281 2.460938 14.21875 2.480469 14.257812 2.457031 C 14.367188 2.394531 14.554688 1.402344 16.125 0.832031 C 17.359375 0.382812 18.433594 0.734375 18.777344 0.855469 C 18.847656 0.882812 18.890625 0.863281 18.890625 0.863281 C 18.890625 0.863281 19.390625 0.046875 20.296875 0 C 21.144531 -0.0390625 22.09375 0.65625 22.09375 0.65625 C 22.09375 0.65625 22.367188 0.269531 23.296875 0.527344 C 23.785156 0.664062 24.511719 1.359375 24.511719 1.359375 C 26.34375 0.738281 28.9375 1.074219 30.585938 2.84375 C 32.273438 4.652344 31.660156 6.375 31.660156 6.375 C 31.660156 6.375 31.402344 6.125 30.980469 5.964844 M 10.183594 19.210938 C 10.15625 19.414062 10.21875 19.578125 10.203125 19.667969 C 10.183594 19.757812 10.09375 20.054688 10.09375 20.054688 C 10.09375 20.054688 10.15625 20.035156 10.25 20.023438 C 10.347656 20.011719 10.375 20 10.378906 19.976562 C 10.386719 19.953125 10.351562 19.773438 10.351562 19.691406 C 10.351562 19.609375 10.390625 19.417969 10.410156 19.199219 C 10.425781 18.980469 10.34375 18.914062 10.34375 18.914062 C 10.34375 18.914062 10.207031 19.050781 10.183594 19.210938 Z M 8.03125 19.65625 C 7.9375 19.734375 7.867188 19.804688 7.867188 19.832031 C 7.867188 19.863281 7.859375 19.976562 7.84375 20.03125 C 7.824219 20.082031 7.859375 20.230469 7.886719 20.238281 C 7.910156 20.242188 8.007812 20.195312 8.121094 20.152344 C 8.234375 20.113281 8.371094 20.042969 8.371094 20.042969 C 8.371094 20.042969 8.324219 19.921875 8.304688 19.847656 C 8.289062 19.769531 8.257812 19.609375 8.253906 19.566406 C 8.246094 19.527344 8.199219 19.488281 8.199219 19.488281 C 8.199219 19.488281 8.128906 19.578125 8.03125 19.65625 Z M 8.03125 19.65625 "/>
</g>
<path style=" stroke:none;fill-rule:nonzero;fill:rgb(90.980392%,0%,5.098039%);fill-opacity:1;" d="M 26.96875 7.246094 C 26.945312 7.230469 26.613281 7.117188 26.320312 6.96875 C 26.082031 6.847656 25.625 6.582031 25.625 6.582031 C 25.625 6.582031 25.546875 6.53125 25.457031 6.5625 C 25.136719 6.671875 24.519531 6.886719 24.179688 7.011719 C 23.832031 7.136719 22.941406 7.535156 22.761719 7.597656 C 22.585938 7.664062 22.527344 7.707031 22.46875 7.710938 C 22.316406 7.714844 22.1875 7.753906 22.265625 7.800781 C 22.277344 7.8125 23.238281 7.816406 23.878906 7.804688 C 24.652344 7.789062 25.703125 7.785156 25.789062 7.777344 C 25.894531 7.765625 26.058594 7.695312 26.417969 7.515625 C 26.785156 7.328125 26.863281 7.316406 26.925781 7.296875 C 27.023438 7.265625 26.96875 7.246094 26.96875 7.246094 "/>
<path style=" stroke:none;fill-rule:nonzero;fill:rgb(90.980392%,0%,5.098039%);fill-opacity:1;" d="M 24.183594 1.488281 C 24.183594 1.488281 23.980469 1.148438 23.4375 0.898438 C 23.066406 0.726562 22.78125 0.691406 22.621094 0.707031 C 22.5 0.722656 22.351562 0.78125 22.34375 0.867188 C 22.339844 0.917969 22.417969 0.964844 22.535156 1.023438 C 22.671875 1.09375 22.765625 1.109375 22.785156 1.144531 C 22.804688 1.183594 22.835938 1.265625 22.808594 1.269531 C 22.65625 1.289062 22.484375 1.222656 22.402344 1.179688 C 22.1875 1.058594 21.691406 0.707031 21.335938 0.507812 C 20.972656 0.300781 20.613281 0.199219 20.097656 0.292969 C 19.46875 0.402344 19.09375 1.039062 19.09375 1.039062 C 19.09375 1.039062 19.496094 1.289062 19.746094 1.421875 C 19.980469 1.546875 20.078125 1.585938 20.261719 1.605469 C 20.441406 1.621094 20.617188 1.621094 20.632812 1.675781 C 20.644531 1.722656 20.546875 1.835938 20.414062 1.835938 C 20.058594 1.839844 20.152344 1.871094 18.976562 1.261719 C 17.929688 0.722656 17.0625 0.882812 17.042969 0.886719 C 16.925781 0.902344 15.804688 1.015625 15.074219 1.710938 C 14.679688 2.085938 14.535156 2.507812 14.542969 2.582031 C 14.566406 2.714844 14.628906 2.742188 14.671875 2.859375 C 14.710938 2.964844 14.710938 3.160156 14.652344 3.152344 C 14.578125 3.140625 14.457031 2.757812 14.152344 2.75 C 13.988281 2.746094 13.757812 2.742188 13.300781 3.460938 C 13.003906 3.933594 12.605469 4.398438 12.449219 4.5625 C 12.289062 4.726562 11.847656 5.089844 11.707031 5.144531 C 11.4375 5.246094 11.382812 5.179688 11.367188 5.210938 C 11.347656 5.246094 11.496094 5.464844 11.894531 5.496094 C 12.417969 5.535156 12.832031 5.207031 12.855469 5.21875 C 12.863281 5.226562 12.503906 5.828125 12.40625 6.09375 C 12.296875 6.390625 12.261719 6.582031 12.203125 6.757812 C 12.148438 6.921875 12.117188 7.09375 12.082031 7.152344 C 12.066406 7.179688 12.523438 7.050781 12.828125 6.824219 C 13.1875 6.554688 13.347656 6.320312 13.347656 6.320312 C 13.347656 6.320312 13.324219 6.703125 13.019531 6.9375 C 12.734375 7.160156 12.53125 7.230469 12.457031 7.335938 C 12.441406 7.355469 12.4375 7.761719 12.328125 8.105469 C 12.140625 8.722656 11.953125 9.003906 11.953125 9.003906 C 11.953125 9.003906 12.261719 9 12.695312 8.71875 C 13.113281 8.449219 13.292969 8.253906 13.292969 8.253906 C 13.292969 8.253906 13.328125 8.492188 13.027344 8.75 C 12.78125 8.96875 12.667969 9.007812 12.640625 9.039062 C 12.628906 9.058594 12.570312 9.351562 12.515625 9.503906 C 12.4375 9.734375 12.296875 9.917969 12.316406 9.949219 C 12.339844 9.980469 12.738281 9.898438 13.199219 9.582031 C 13.503906 9.371094 13.847656 9.152344 13.847656 9.152344 C 13.847656 9.152344 13.621094 9.457031 13.460938 9.808594 C 13.257812 10.242188 13.160156 10.480469 13.183594 10.765625 C 13.183594 10.78125 13.464844 10.625 13.71875 10.535156 C 13.914062 10.46875 14.148438 10.40625 14.410156 10.109375 C 14.601562 9.894531 14.820312 9.636719 14.820312 9.636719 C 14.820312 9.636719 14.703125 9.929688 14.65625 10.199219 C 14.613281 10.472656 14.605469 10.875 14.640625 10.914062 C 14.65625 10.929688 15.300781 10.539062 15.5 10.308594 C 15.8125 9.953125 16.082031 9.453125 16.082031 9.453125 C 16.082031 9.453125 16.097656 9.480469 16.105469 9.511719 C 16.109375 9.546875 16.046875 10.171875 16.066406 10.402344 C 16.09375 10.679688 16.105469 10.753906 16.125 11.113281 C 16.132812 11.207031 16.121094 11.277344 16.140625 11.289062 C 16.164062 11.304688 16.199219 11.253906 16.289062 11.214844 C 16.378906 11.171875 16.976562 10.949219 17.308594 10.65625 C 17.894531 10.132812 18.019531 9.808594 18.019531 9.808594 C 18.019531 9.808594 17.894531 10.46875 17.886719 10.699219 C 17.871094 11.085938 17.917969 11.710938 17.964844 11.742188 C 18.007812 11.773438 18.207031 11.585938 18.457031 11.441406 C 18.582031 11.371094 18.816406 11.25 19.210938 10.714844 C 19.457031 10.382812 19.640625 10.144531 19.667969 10.136719 C 19.699219 10.128906 19.507812 10.640625 19.507812 10.808594 C 19.503906 10.996094 19.597656 11.296875 19.644531 11.425781 C 19.683594 11.53125 19.691406 11.585938 19.722656 11.730469 C 19.722656 11.730469 20.160156 11.304688 20.425781 11.023438 C 21.03125 10.382812 20.996094 10.023438 20.996094 10.023438 C 20.09375 9.921875 19.242188 9.628906 18.714844 9.4375 C 17.324219 8.933594 16.554688 8.296875 15.75 7.542969 C 15.28125 7.105469 15.128906 6.660156 15.226562 6.429688 C 15.285156 6.296875 15.421875 6.242188 15.421875 6.242188 C 15.421875 6.242188 14.746094 5.449219 14.847656 4.738281 C 14.90625 4.320312 15.503906 4.15625 16.613281 4.371094 C 18.035156 4.644531 19.476562 5.449219 19.476562 5.449219 C 19.476562 5.449219 18.929688 5.070312 18.714844 4.769531 C 18.5 4.46875 18.394531 4.234375 18.394531 4.234375 C 18.394531 4.234375 18.023438 4.292969 17.632812 4.191406 C 17.246094 4.089844 16.878906 4.015625 16.601562 3.527344 C 16.515625 3.382812 16.625 3.433594 16.746094 3.589844 C 16.753906 3.597656 16.839844 3.675781 16.964844 3.683594 C 17.117188 3.691406 17.585938 3.617188 18.28125 3.007812 C 19.007812 2.371094 19.628906 1.894531 20.058594 2.0625 C 20.492188 2.230469 20.644531 2.632812 20.390625 2.964844 C 20.136719 3.296875 20.078125 3.433594 20.078125 3.433594 C 20.078125 3.433594 20.171875 3.492188 20.3125 3.636719 C 20.453125 3.785156 20.609375 3.925781 20.609375 3.925781 C 20.609375 3.925781 21.105469 3.300781 22.339844 2.507812 C 23.574219 1.714844 24.183594 1.488281 24.183594 1.488281 "/>
<path style=" stroke:none;fill-rule:nonzero;fill:rgb(90.980392%,0%,5.098039%);fill-opacity:1;" d="M 22.199219 18.761719 C 22.175781 18.796875 21.960938 19.199219 21.828125 19.460938 C 21.605469 19.910156 21.570312 20.300781 21.496094 20.324219 C 21.464844 20.335938 21.097656 20.117188 20.554688 20.003906 C 20.136719 19.917969 19.566406 19.898438 19.546875 19.894531 C 19.527344 19.890625 19.519531 19.867188 19.507812 19.847656 C 19.492188 19.824219 19.46875 19.785156 19.464844 19.773438 C 19.457031 19.765625 19.449219 19.746094 19.449219 19.722656 C 19.445312 19.699219 19.449219 19.640625 19.457031 19.613281 C 19.464844 19.585938 19.722656 19.039062 19.78125 18.875 C 19.835938 18.707031 19.980469 18.308594 20.023438 18.28125 C 20.070312 18.253906 20.5 18.109375 21.207031 18.253906 C 21.714844 18.355469 22.167969 18.625 22.222656 18.714844 C 22.222656 18.714844 22.222656 18.730469 22.199219 18.761719 M 21.574219 18.871094 C 21.550781 18.84375 21.121094 18.65625 20.851562 18.609375 C 20.59375 18.5625 20.148438 18.605469 20.125 18.617188 C 20.105469 18.628906 19.996094 18.929688 19.957031 19.054688 C 19.914062 19.175781 19.785156 19.472656 19.796875 19.488281 C 19.824219 19.535156 20.0625 19.429688 20.5 19.546875 C 20.878906 19.644531 21.171875 19.792969 21.191406 19.792969 C 21.210938 19.796875 21.28125 19.550781 21.371094 19.339844 C 21.441406 19.167969 21.550781 18.929688 21.5625 18.914062 C 21.574219 18.890625 21.574219 18.871094 21.574219 18.871094 Z M 21.574219 18.871094 "/>
<path style=" stroke:none;fill-rule:nonzero;fill:rgb(90.980392%,0%,5.098039%);fill-opacity:1;" d="M 10.363281 21.152344 C 10.324219 21.179688 9.859375 21.230469 9.386719 21.382812 C 9.042969 21.496094 8.632812 21.722656 8.613281 21.710938 C 8.59375 21.703125 8.445312 21.449219 8.175781 21.152344 C 7.910156 20.855469 7.886719 20.914062 7.855469 20.734375 C 7.847656 20.691406 7.980469 20.570312 8.199219 20.4375 C 8.417969 20.304688 8.527344 20.257812 8.527344 20.257812 C 8.527344 20.257812 8.578125 20.292969 8.691406 20.304688 C 8.753906 20.3125 8.964844 20.246094 9.035156 20.179688 C 9.125 20.089844 9.171875 19.984375 9.214844 19.996094 C 9.238281 20.003906 9.234375 20.042969 9.238281 20.078125 C 9.238281 20.113281 9.382812 20.277344 9.484375 20.335938 C 9.53125 20.363281 9.585938 20.339844 9.675781 20.371094 C 9.707031 20.378906 9.835938 20.472656 9.964844 20.601562 C 10.160156 20.796875 10.375 21.140625 10.363281 21.152344 M 9.375 20.566406 C 9.277344 20.460938 9.136719 20.316406 9.113281 20.3125 C 9.089844 20.308594 8.847656 20.382812 8.742188 20.425781 C 8.636719 20.472656 8.34375 20.609375 8.335938 20.625 C 8.324219 20.640625 8.492188 20.816406 8.597656 20.945312 C 8.695312 21.066406 8.851562 21.230469 8.867188 21.234375 C 8.886719 21.238281 9.152344 21.121094 9.261719 21.085938 C 9.371094 21.050781 9.640625 20.945312 9.648438 20.941406 C 9.65625 20.941406 9.476562 20.671875 9.375 20.566406 Z M 9.375 20.566406 "/>
<path style=" stroke:none;fill-rule:nonzero;fill:rgb(100%,78.431373%,17.647059%);fill-opacity:1;" d="M 20.273438 2.484375 C 20.207031 2.304688 19.996094 2.269531 19.90625 2.257812 C 19.816406 2.25 19.460938 2.304688 18.765625 2.894531 C 18.066406 3.484375 17.855469 3.652344 17.664062 3.730469 C 17.472656 3.808594 17.269531 3.851562 17.292969 3.871094 C 17.3125 3.894531 17.644531 3.984375 17.804688 4 C 18.144531 4.039062 18.34375 3.980469 18.34375 3.980469 C 18.34375 3.980469 18.324219 3.457031 18.589844 3.230469 C 19.046875 2.84375 19.859375 3.28125 19.859375 3.28125 C 19.859375 3.28125 20.15625 2.945312 20.230469 2.789062 C 20.320312 2.589844 20.273438 2.484375 20.273438 2.484375 "/>
<path style=" stroke:none;fill-rule:nonzero;fill:rgb(100%,78.431373%,17.647059%);fill-opacity:1;" d="M 26.625 6.191406 C 26.625 6.191406 26.441406 6.246094 26.304688 6.285156 C 26.164062 6.320312 25.886719 6.382812 25.894531 6.398438 C 25.902344 6.414062 26.480469 6.808594 26.679688 6.882812 C 26.878906 6.960938 27.234375 7.105469 27.359375 7.136719 C 27.480469 7.167969 27.648438 7.191406 27.648438 7.222656 C 27.648438 7.253906 27.417969 7.34375 27.113281 7.476562 C 26.804688 7.605469 26.496094 7.777344 26.496094 7.800781 C 26.496094 7.824219 27.488281 7.914062 27.964844 7.96875 C 28.441406 8.023438 29.050781 8.101562 29.203125 8.125 C 29.359375 8.144531 29.519531 8.191406 29.511719 8.167969 C 29.503906 8.144531 29.453125 8.125 29.289062 8.054688 C 29.128906 7.984375 28.511719 7.605469 28.171875 7.367188 C 27.835938 7.128906 27.265625 6.675781 27.042969 6.515625 C 26.820312 6.351562 26.625 6.191406 26.625 6.191406 "/>
<path style=" stroke:none;fill-rule:nonzero;fill:rgb(100%,78.431373%,17.647059%);fill-opacity:1;" d="M 20.835938 6.488281 C 20.796875 6.417969 20.433594 6.027344 19.785156 5.613281 C 19.785156 5.613281 20.535156 5.910156 20.914062 5.460938 C 21.386719 4.902344 20.746094 4.292969 20.796875 4.199219 C 21.105469 3.652344 22.695312 2.273438 24.699219 1.609375 C 26.847656 0.898438 28.6875 1.609375 29.960938 2.660156 C 31.863281 4.226562 31.449219 5.941406 31.449219 5.941406 C 31.449219 5.941406 30.398438 5.140625 28.171875 5.5625 C 25.996094 5.976562 25.871094 6.195312 24.097656 6.777344 C 22.890625 7.175781 22.128906 7.832031 20.734375 7.792969 C 18.167969 7.722656 17.542969 6.808594 17.542969 6.808594 C 17.542969 6.808594 17.582031 6.484375 17.089844 5.992188 C 16.96875 5.871094 16.671875 5.550781 16.433594 5.6875 C 16.179688 5.828125 16.898438 6.699219 17.53125 7.203125 C 17.941406 7.53125 18.570312 7.78125 19.132812 7.882812 C 20.945312 8.210938 21.984375 8.03125 23.792969 8.070312 C 25.074219 8.097656 25.957031 8.023438 27.589844 8.171875 C 28.550781 8.257812 29.457031 8.433594 29.457031 8.457031 C 29.457031 8.480469 29.011719 8.609375 28.492188 8.78125 C 27.71875 9.042969 26.222656 9.621094 24.746094 9.761719 C 21.933594 10.023438 20.375 9.839844 18.421875 9.050781 C 16.605469 8.320312 15.347656 6.84375 15.5 6.609375 C 15.550781 6.535156 15.671875 6.582031 15.671875 6.582031 C 15.671875 6.582031 16.054688 6.878906 16.246094 7.03125 C 16.4375 7.179688 16.957031 7.476562 17.082031 7.507812 C 17.230469 7.542969 17.34375 7.5 17.34375 7.460938 C 17.335938 7.378906 17.320312 7.394531 16.964844 7.203125 C 16.464844 6.933594 15.882812 6.441406 15.648438 6.160156 C 15.492188 5.96875 14.78125 4.9375 15.246094 4.660156 C 16.0625 4.167969 18.917969 5.457031 19.140625 5.5625 C 19.734375 5.84375 20.28125 6.199219 20.878906 6.613281 C 20.878906 6.613281 20.863281 6.542969 20.835938 6.488281 M 23.6875 2.515625 C 23.203125 2.78125 23.328125 3.09375 23.382812 3.140625 C 23.433594 3.183594 23.660156 3.417969 24.152344 3.109375 C 24.644531 2.800781 24.503906 2.589844 24.453125 2.511719 C 24.382812 2.402344 24.152344 2.257812 23.6875 2.515625 Z M 23.6875 2.515625 "/>
<path style=" stroke:none;fill-rule:nonzero;fill:rgb(100%,78.431373%,17.647059%);fill-opacity:1;" d="M 23.8125 2.695312 C 23.664062 2.804688 23.507812 2.921875 23.59375 3.019531 C 23.683594 3.113281 23.90625 3.015625 24.003906 2.96875 C 24.101562 2.921875 24.292969 2.765625 24.230469 2.667969 C 24.171875 2.578125 23.960938 2.585938 23.8125 2.695312 "/>
<path style=" stroke:none;fill-rule:nonzero;fill:rgb(100%,78.431373%,17.647059%);fill-opacity:1;" d="M 25.121094 17.757812 C 24.804688 18.96875 24.082031 19.40625 24.011719 19.519531 C 23.953125 19.605469 23.578125 20.582031 23.199219 21.054688 C 22.824219 21.523438 22.480469 21.816406 21.863281 22.183594 C 21.757812 22.246094 21.851562 22.332031 21.847656 22.386719 C 21.84375 22.4375 21.707031 23.136719 21.089844 23.707031 C 20.152344 24.574219 19.683594 24.519531 19.617188 24.585938 C 19.585938 24.617188 19.8125 24.777344 20.035156 24.757812 C 20.253906 24.738281 20.945312 24.410156 21.515625 23.605469 C 21.96875 22.96875 22.054688 22.476562 22.0625 22.441406 C 22.078125 22.363281 22.101562 22.339844 22.175781 22.390625 C 22.207031 22.410156 22.242188 22.515625 22.277344 22.5 C 22.589844 22.386719 23.449219 21.652344 24.226562 20.523438 C 24.796875 19.699219 25.3125 18.375 25.429688 17.832031 C 25.597656 17.070312 25.4375 16.578125 25.257812 16.523438 C 25.0625 16.464844 25.347656 16.886719 25.121094 17.757812 "/>
<path style=" stroke:none;fill-rule:nonzero;fill:rgb(100%,78.431373%,17.647059%);fill-opacity:1;" d="M 18.089844 22.929688 C 18.011719 22.898438 17.703125 22.867188 17.308594 23.324219 C 16.914062 23.777344 16.773438 24.363281 16.800781 24.398438 C 16.832031 24.4375 16.875 24.105469 17.460938 23.660156 C 18.050781 23.214844 18.171875 23.3125 18.238281 23.1875 C 18.273438 23.125 18.203125 22.972656 18.089844 22.929688 "/>
<path style=" stroke:none;fill-rule:nonzero;fill:rgb(100%,78.431373%,17.647059%);fill-opacity:1;" d="M 7.230469 19.21875 C 7.214844 19.222656 7.15625 19.371094 7.082031 19.417969 C 7.007812 19.460938 7 19.425781 6.929688 19.5 C 6.855469 19.578125 6.628906 19.910156 6.910156 20.152344 C 7.0625 20.285156 7.355469 20.246094 7.46875 20.207031 C 7.582031 20.167969 7.671875 20.015625 7.625 19.921875 C 7.582031 19.835938 7.488281 19.871094 7.425781 19.785156 C 7.363281 19.695312 7.347656 19.585938 7.304688 19.496094 C 7.261719 19.402344 7.234375 19.375 7.242188 19.335938 C 7.253906 19.253906 7.230469 19.21875 7.230469 19.21875 "/>
<path style=" stroke:none;fill-rule:nonzero;fill:rgb(100%,78.431373%,17.647059%);fill-opacity:1;" d="M 6.300781 20.0625 C 6.183594 20.074219 5.988281 20.089844 5.625 20.191406 C 5.261719 20.292969 4.742188 20.441406 4.742188 20.484375 C 4.742188 20.519531 5.492188 20.585938 5.746094 20.578125 C 6.085938 20.574219 6.476562 20.417969 6.53125 20.273438 C 6.582031 20.132812 6.417969 20.054688 6.300781 20.0625 "/>
<path style=" stroke:none;fill-rule:nonzero;fill:rgb(100%,78.431373%,17.647059%);fill-opacity:1;" d="M 7.898438 21.1875 C 7.898438 21.1875 7.808594 21.089844 7.792969 21.089844 C 7.773438 21.089844 7.65625 21.40625 7.53125 21.527344 C 7.402344 21.648438 7.230469 21.832031 7.164062 21.734375 C 7.09375 21.632812 7.40625 21.457031 7.507812 21.238281 C 7.609375 21.019531 7.679688 20.871094 7.6875 20.628906 C 7.691406 20.386719 7.699219 20.402344 7.675781 20.398438 C 7.648438 20.394531 7.457031 20.488281 7.195312 20.484375 C 6.839844 20.480469 6.832031 20.375 6.800781 20.371094 C 6.769531 20.363281 6.730469 20.542969 6.402344 20.671875 C 6.140625 20.773438 5.941406 20.757812 5.898438 20.808594 C 5.855469 20.859375 5.855469 21.117188 5.945312 21.375 C 6.007812 21.554688 6.207031 21.867188 6.089844 21.90625 C 5.964844 21.949219 5.933594 21.851562 5.808594 21.550781 C 5.722656 21.347656 5.71875 21.292969 5.703125 21.277344 C 5.691406 21.261719 5.640625 21.257812 5.617188 21.269531 C 5.589844 21.285156 5.457031 21.441406 5.441406 21.46875 C 5.421875 21.496094 5.53125 21.636719 5.574219 21.703125 C 5.617188 21.773438 5.710938 21.945312 5.667969 22.015625 C 5.625 22.089844 5.597656 22.09375 5.574219 22.0625 C 5.546875 22.03125 5.410156 21.625 5.007812 21.394531 C 4.542969 21.132812 4.011719 21.4375 3.960938 21.878906 C 3.902344 22.386719 4.410156 22.933594 5.339844 23.234375 C 6.359375 23.566406 6.960938 23.15625 6.960938 23.15625 C 6.960938 23.15625 7.90625 23.671875 9.707031 23.488281 C 11.550781 23.296875 12.179688 22.839844 12.382812 22.6875 C 12.578125 22.539062 12.601562 22.449219 12.578125 22.453125 C 12.554688 22.460938 12.28125 22.613281 12.074219 22.414062 C 11.695312 22.058594 11.914062 21.28125 11.878906 21.253906 C 11.839844 21.222656 11.746094 21.28125 11.636719 21.257812 C 11.449219 21.222656 11.386719 21.046875 11.351562 21.050781 C 11.285156 21.054688 11.230469 21.367188 10.945312 21.335938 C 10.714844 21.3125 10.605469 21.09375 10.617188 20.714844 C 10.628906 20.394531 10.664062 20.269531 10.664062 20.269531 C 10.664062 20.269531 10.519531 20.269531 10.367188 20.289062 C 10.21875 20.304688 10.035156 20.339844 10.035156 20.339844 C 10.035156 20.339844 10.261719 20.574219 10.402344 20.769531 C 10.546875 20.964844 10.730469 21.257812 10.714844 21.316406 C 10.703125 21.351562 10.511719 21.273438 9.59375 21.546875 C 8.871094 21.765625 8.515625 22.011719 8.488281 22.019531 C 8.464844 22.027344 8.445312 21.871094 8.34375 21.722656 C 8.246094 21.574219 8.144531 21.429688 8.128906 21.429688 C 8.117188 21.429688 8.097656 21.78125 7.984375 22.011719 C 7.859375 22.253906 7.730469 22.429688 7.65625 22.371094 C 7.558594 22.292969 7.761719 22.011719 7.851562 21.753906 C 7.917969 21.574219 7.898438 21.1875 7.898438 21.1875 "/>
<path style=" stroke:none;fill-rule:nonzero;fill:rgb(100%,78.431373%,17.647059%);fill-opacity:1;" d="M 12.5625 22.882812 C 12.5625 22.882812 12.265625 23.101562 11.074219 23.480469 C 10.449219 23.679688 9.699219 23.804688 8.503906 23.738281 C 7.433594 23.679688 7.105469 23.429688 7.015625 23.414062 C 6.933594 23.398438 6.457031 23.792969 5.273438 23.472656 C 4.3125 23.210938 4.132812 22.820312 4 22.757812 C 3.96875 22.742188 3.785156 23.496094 5.25 23.882812 C 5.652344 23.988281 6.414062 23.910156 6.722656 23.820312 C 6.972656 23.746094 7.015625 23.691406 7.039062 23.6875 C 7.074219 23.679688 7.121094 23.6875 7.121094 23.710938 C 7.121094 23.734375 7.125 23.777344 7.125 23.777344 C 7.125 23.777344 7.875 24.113281 8.96875 24.097656 C 10.058594 24.078125 11.21875 23.859375 12.070312 23.457031 C 12.496094 23.257812 12.523438 23.214844 12.539062 23.183594 C 12.554688 23.148438 12.574219 23.054688 12.574219 23.011719 C 12.570312 22.96875 12.5625 22.882812 12.5625 22.882812 "/>
<path style=" stroke:none;fill-rule:nonzero;fill:rgb(100%,78.431373%,17.647059%);fill-opacity:1;" d="M 23.988281 18.878906 C 23.980469 18.761719 23.945312 18.582031 23.894531 18.585938 C 23.808594 18.59375 23.867188 18.988281 23.761719 19.359375 C 23.542969 20.152344 23.390625 20.484375 22.96875 20.992188 C 22.210938 21.902344 21.417969 22.109375 21.433594 22.15625 C 21.457031 22.222656 21.621094 22.296875 21.621094 22.296875 C 21.621094 22.296875 21.628906 22.585938 21.292969 23.070312 C 20.65625 23.992188 19.863281 24.273438 19.625 24.316406 C 19.511719 24.335938 19.179688 24.269531 18.894531 24.046875 C 18.710938 23.90625 18.558594 23.605469 18.558594 23.425781 C 18.558594 23.351562 18.796875 23.242188 18.984375 23.117188 C 19.160156 22.996094 19.238281 22.785156 19.160156 22.722656 C 19.066406 22.648438 18.960938 22.878906 18.832031 22.960938 C 18.703125 23.042969 18.496094 23.148438 18.488281 23.113281 C 18.46875 23.050781 18.476562 22.992188 18.371094 22.890625 C 18.289062 22.808594 18.214844 22.746094 18.214844 22.746094 C 18.214844 22.746094 18.402344 22.703125 18.582031 22.5 C 18.726562 22.339844 18.742188 21.996094 18.582031 21.714844 C 18.445312 21.46875 18.132812 21.285156 18.085938 21.285156 C 18.039062 21.285156 18.058594 21.386719 18.09375 21.441406 C 18.125 21.496094 18.175781 21.507812 18.261719 21.578125 C 18.347656 21.644531 18.558594 21.921875 18.488281 22.199219 C 18.445312 22.378906 18.28125 22.515625 17.953125 22.5 C 17.695312 22.492188 17.5625 22.421875 17.328125 22.273438 C 17.300781 22.257812 17.257812 22.285156 17.300781 22.382812 C 17.328125 22.449219 17.453125 22.566406 17.453125 22.566406 C 17.453125 22.566406 17.335938 22.484375 17.300781 22.464844 C 17.269531 22.445312 17.242188 22.421875 17.242188 22.421875 C 17.242188 22.421875 17.175781 22.28125 17.125 22.128906 C 17.085938 22.011719 17.105469 21.785156 17.105469 21.785156 C 17.105469 21.785156 17.390625 21.898438 17.695312 22.039062 C 18.054688 22.207031 18.257812 22.230469 18.359375 22.167969 C 18.457031 22.105469 18.214844 21.839844 18.117188 21.609375 C 18.03125 21.417969 17.960938 21.082031 18 21.070312 C 18.054688 21.054688 18.140625 21.207031 18.753906 21.511719 C 18.964844 21.613281 19.460938 21.816406 19.53125 21.796875 C 19.597656 21.777344 19.546875 21.296875 19.316406 20.6875 C 19.214844 20.429688 18.832031 20.074219 18.859375 20.019531 C 18.859375 20.019531 19.089844 20.023438 19.089844 20.042969 C 19.089844 20.039062 19.085938 20.109375 19.121094 20.136719 C 19.140625 20.160156 19.257812 20.210938 19.335938 20.183594 C 19.460938 20.140625 19.714844 20.109375 20.4375 20.210938 C 21.117188 20.304688 21.683594 20.75 21.691406 20.671875 C 21.722656 20.394531 21.820312 19.945312 22.035156 19.511719 C 22.367188 18.851562 22.566406 18.699219 22.546875 18.660156 C 22.492188 18.542969 22.023438 18.21875 21.511719 18.085938 C 20.910156 17.933594 20.570312 17.996094 20.542969 17.945312 C 20.519531 17.90625 20.878906 17.371094 21.378906 17.289062 C 21.777344 17.222656 21.964844 17.410156 22.03125 17.382812 C 22.054688 17.375 22.011719 17.234375 21.902344 17.152344 C 21.726562 17.019531 21.488281 17.035156 21.488281 17.035156 C 21.488281 17.035156 21.453125 16.214844 22.074219 15.617188 C 22.429688 15.269531 23.320312 15.078125 24.050781 15.511719 C 25.039062 16.097656 25.019531 16.851562 24.847656 17.761719 C 24.710938 18.480469 24.230469 18.960938 24.003906 19.152344 C 23.949219 19.199219 23.996094 18.996094 23.988281 18.878906 M 19.613281 21.367188 C 19.585938 21.457031 19.769531 21.476562 19.832031 21.640625 C 19.890625 21.808594 19.867188 21.90625 19.867188 21.925781 C 19.859375 21.984375 19.738281 22.222656 19.871094 22.226562 C 20.015625 22.230469 20.148438 21.691406 19.964844 21.453125 C 19.800781 21.238281 19.632812 21.285156 19.613281 21.367188 Z M 19.613281 21.367188 "/>
<path style=" stroke:none;fill-rule:nonzero;fill:rgb(100%,100%,100%);fill-opacity:1;" d="M 20.019531 3.703125 C 20.019531 3.703125 19.289062 3.085938 18.832031 3.363281 C 18.355469 3.65625 18.664062 4.425781 19.132812 4.886719 C 19.589844 5.339844 20.210938 5.59375 20.535156 5.445312 C 20.914062 5.273438 20.832031 4.9375 20.832031 4.9375 C 20.832031 4.9375 20.625 5.300781 20.265625 5.292969 C 19.707031 5.277344 19.257812 4.632812 19.257812 4.632812 C 19.257812 4.632812 19.34375 4.601562 19.535156 4.574219 C 19.6875 4.546875 19.816406 4.503906 19.816406 4.503906 C 19.816406 4.503906 19.605469 4.425781 19.433594 4.382812 C 19.257812 4.335938 19.074219 4.277344 19.074219 4.277344 C 19.074219 4.277344 18.90625 3.925781 19.179688 3.699219 C 19.488281 3.445312 20.019531 3.703125 20.019531 3.703125 "/>
<path style=" stroke:none;fill-rule:nonzero;fill:rgb(100%,100%,100%);fill-opacity:1;" d="M 21.257812 18.984375 C 21.246094 18.957031 21.027344 18.875 20.765625 18.835938 C 20.503906 18.796875 20.316406 18.808594 20.28125 18.828125 C 20.25 18.84375 20.203125 18.925781 20.164062 19.023438 C 20.125 19.117188 20.089844 19.273438 20.089844 19.292969 C 20.089844 19.308594 20.179688 19.261719 20.535156 19.359375 C 20.894531 19.460938 21.019531 19.464844 21.042969 19.460938 C 21.066406 19.453125 21.128906 19.320312 21.171875 19.214844 C 21.210938 19.109375 21.257812 18.984375 21.257812 18.984375 "/>
<path style=" stroke:none;fill-rule:nonzero;fill:rgb(100%,100%,100%);fill-opacity:1;" d="M 23.554688 11.421875 C 23.554688 11.421875 23.492188 11.417969 23.472656 11.414062 C 23.445312 11.414062 23.382812 11.410156 23.382812 11.410156 C 23.382812 11.410156 23.179688 11.53125 23.09375 11.566406 C 23.007812 11.605469 22.859375 11.695312 22.863281 11.714844 C 22.863281 11.765625 22.992188 11.761719 23.335938 11.808594 C 23.671875 11.859375 23.890625 12.007812 23.878906 12.125 C 23.859375 12.300781 23.550781 12.59375 23.03125 12.722656 C 22.511719 12.851562 21.640625 13.027344 21.382812 13.03125 C 21.285156 13.03125 21.3125 13.097656 21.347656 13.113281 C 21.382812 13.136719 21.621094 13.316406 21.628906 13.398438 C 21.636719 13.484375 21.550781 13.628906 21.285156 13.707031 C 20.980469 13.792969 20.523438 13.804688 20.433594 13.800781 C 20.34375 13.792969 20.34375 13.835938 20.355469 13.859375 C 20.363281 13.882812 20.554688 14.027344 20.566406 14.144531 C 20.578125 14.265625 20.523438 14.453125 19.695312 14.539062 C 18.410156 14.675781 18 14.683594 17.996094 14.734375 C 17.996094 14.78125 18.125 14.765625 18.699219 14.804688 C 19.226562 14.84375 20.117188 14.75 20.464844 14.589844 C 21 14.34375 20.703125 13.980469 20.703125 13.957031 C 20.699219 13.894531 21.277344 13.960938 21.433594 13.910156 C 21.664062 13.839844 21.882812 13.605469 21.820312 13.410156 C 21.761719 13.242188 21.671875 13.195312 21.667969 13.179688 C 21.664062 13.160156 22.199219 13.191406 22.875 13.035156 C 23.277344 12.945312 23.839844 12.675781 24.015625 12.320312 C 24.15625 12.039062 23.949219 11.796875 23.648438 11.722656 C 23.351562 11.644531 23.242188 11.65625 23.234375 11.640625 C 23.222656 11.617188 23.320312 11.589844 23.367188 11.5625 C 23.453125 11.507812 23.554688 11.421875 23.554688 11.421875 "/>
<path style=" stroke:none;fill-rule:nonzero;fill:rgb(100%,100%,100%);fill-opacity:1;" d="M 13.121094 11.492188 C 13.121094 11.492188 13.167969 11.488281 13.222656 11.488281 C 13.277344 11.488281 13.355469 11.492188 13.355469 11.492188 C 13.355469 11.492188 13.128906 11.6875 13.238281 11.859375 C 13.351562 12.03125 13.714844 12.042969 13.890625 12.046875 C 14.0625 12.054688 14.125 12.019531 14.140625 12.050781 C 14.15625 12.085938 14.082031 12.117188 14.042969 12.195312 C 14 12.277344 14.027344 12.464844 14.378906 12.527344 C 14.976562 12.640625 15.5 12.644531 15.601562 12.648438 C 15.703125 12.652344 15.75 12.675781 15.75 12.6875 C 15.75 12.722656 15.730469 12.699219 15.367188 12.730469 C 15.054688 12.757812 14.496094 12.761719 14.234375 12.710938 C 13.886719 12.640625 13.828125 12.511719 13.820312 12.425781 C 13.816406 12.355469 13.84375 12.222656 13.832031 12.210938 C 13.824219 12.203125 13.257812 12.335938 13.074219 12.070312 C 12.84375 11.722656 13.121094 11.492188 13.121094 11.492188 "/>
<path style=" stroke:none;fill-rule:nonzero;fill:rgb(100%,100%,100%);fill-opacity:1;" d="M 16.773438 19.316406 C 16.410156 20.023438 16.324219 20.511719 16.320312 20.539062 C 16.3125 20.570312 16.152344 20.34375 16.132812 20.003906 C 16.109375 19.464844 16.246094 18.953125 16.132812 18.914062 C 16.027344 18.875 15.578125 19.753906 15.457031 19.996094 C 15.332031 20.238281 14.808594 21.175781 14.894531 21.246094 C 14.988281 21.328125 15.382812 20.570312 15.496094 20.390625 C 15.597656 20.21875 15.894531 19.6875 15.894531 19.6875 C 15.894531 19.6875 15.886719 20.265625 15.984375 20.457031 C 16.078125 20.648438 16.210938 20.894531 16.34375 20.871094 C 16.476562 20.84375 16.390625 20.753906 16.460938 20.542969 C 16.53125 20.328125 16.898438 19.511719 17.023438 19.296875 C 17.148438 19.085938 17.625 18.386719 17.613281 18.28125 C 17.601562 18.191406 17.105469 18.671875 16.773438 19.316406 "/>
<path style=" stroke:none;fill-rule:nonzero;fill:rgb(100%,100%,100%);fill-opacity:1;" d="M 10.179688 16.027344 C 10.023438 15.746094 9.558594 14.832031 9.53125 14.828125 C 9.503906 14.824219 9.484375 15.273438 9.480469 15.464844 C 9.480469 15.65625 9.472656 15.917969 9.460938 15.925781 C 9.445312 15.933594 9.175781 15.671875 8.980469 15.480469 C 8.785156 15.289062 8.542969 15.03125 8.492188 14.917969 C 8.441406 14.804688 8.382812 14.621094 8.332031 14.636719 C 8.261719 14.65625 8.25 14.871094 8.253906 15.144531 C 8.257812 15.421875 8.277344 15.507812 8.25 15.527344 C 8.226562 15.542969 7.917969 15.394531 7.664062 15.28125 C 7.347656 15.132812 6.9375 14.867188 6.910156 14.871094 C 6.882812 14.878906 7.195312 15.285156 7.300781 15.519531 C 7.429688 15.792969 7.542969 16.042969 7.507812 16.058594 C 7.472656 16.074219 7.300781 15.996094 7.089844 15.921875 C 6.875 15.84375 6.648438 15.757812 6.632812 15.777344 C 6.613281 15.796875 6.890625 16.101562 7.015625 16.300781 C 7.144531 16.5 7.1875 16.539062 7.1875 16.566406 C 7.1875 16.59375 7.152344 16.628906 7.125 16.632812 C 7.097656 16.636719 6.921875 16.644531 6.78125 16.648438 C 6.640625 16.652344 6.480469 16.636719 6.460938 16.65625 C 6.441406 16.671875 6.722656 17 6.9375 17.210938 C 7.246094 17.515625 7.5 17.632812 7.507812 17.648438 C 7.515625 17.660156 7.359375 17.746094 7.164062 17.835938 C 6.738281 18.03125 6.660156 18 6.652344 18.03125 C 6.644531 18.054688 7.007812 18.164062 7.273438 18.257812 C 7.613281 18.375 7.894531 18.394531 7.96875 18.402344 C 8.042969 18.414062 7.898438 18.480469 7.851562 18.507812 C 7.804688 18.539062 7.710938 18.574219 7.710938 18.59375 C 7.710938 18.632812 8.339844 18.941406 8.863281 18.988281 C 9.410156 19.035156 9.898438 18.960938 10.167969 18.824219 C 10.21875 18.792969 10.214844 18.753906 10.164062 18.734375 C 10.097656 18.710938 10.007812 18.832031 9.222656 18.816406 C 8.519531 18.796875 8.019531 18.609375 7.996094 18.585938 C 7.976562 18.5625 8.1875 18.488281 8.277344 18.441406 C 8.371094 18.394531 8.484375 18.359375 8.472656 18.308594 C 8.460938 18.253906 8.269531 18.265625 8.070312 18.242188 C 7.816406 18.214844 7.167969 18.050781 7.15625 18.035156 C 7.140625 18.019531 7.347656 17.917969 7.453125 17.859375 C 7.554688 17.800781 7.65625 17.738281 7.683594 17.734375 C 7.714844 17.726562 7.769531 17.703125 7.769531 17.675781 C 7.78125 17.609375 7.714844 17.601562 7.683594 17.582031 C 7.65625 17.5625 7.546875 17.464844 7.210938 17.199219 C 7.003906 17.035156 6.804688 16.835938 6.796875 16.816406 C 6.785156 16.796875 6.96875 16.789062 7.113281 16.785156 C 7.257812 16.78125 7.332031 16.769531 7.371094 16.75 C 7.410156 16.730469 7.453125 16.714844 7.449219 16.667969 C 7.445312 16.621094 7.378906 16.519531 7.253906 16.359375 C 7.167969 16.242188 6.996094 16.0625 7 16.046875 C 7.007812 16.03125 7.128906 16.082031 7.296875 16.128906 C 7.464844 16.179688 7.664062 16.273438 7.710938 16.238281 C 7.757812 16.203125 7.734375 16.042969 7.617188 15.8125 C 7.457031 15.488281 7.273438 15.261719 7.292969 15.246094 C 7.3125 15.234375 7.601562 15.417969 7.792969 15.523438 C 7.984375 15.628906 8.308594 15.804688 8.34375 15.796875 C 8.378906 15.792969 8.445312 15.65625 8.4375 15.53125 C 8.429688 15.40625 8.40625 15.179688 8.421875 15.171875 C 8.433594 15.164062 8.769531 15.558594 8.921875 15.695312 C 9.074219 15.832031 9.230469 15.957031 9.308594 16.015625 C 9.382812 16.078125 9.5 16.195312 9.527344 16.21875 C 9.558594 16.246094 9.617188 16.238281 9.632812 16.1875 C 9.644531 16.140625 9.632812 15.890625 9.632812 15.808594 C 9.628906 15.726562 9.636719 15.492188 9.652344 15.480469 C 9.664062 15.46875 9.808594 15.757812 9.949219 15.964844 C 10.046875 16.105469 10.261719 16.445312 10.320312 16.550781 C 10.382812 16.652344 10.480469 16.785156 10.511719 16.765625 C 10.601562 16.710938 10.328125 16.296875 10.179688 16.027344 "/>
<path style=" stroke:none;fill-rule:nonzero;fill:rgb(100%,100%,100%);fill-opacity:1;" d="M 9.167969 20.652344 C 9.125 20.59375 9.058594 20.527344 9.042969 20.515625 C 9.027344 20.507812 8.910156 20.566406 8.859375 20.585938 C 8.804688 20.601562 8.648438 20.660156 8.636719 20.671875 C 8.625 20.683594 8.722656 20.78125 8.757812 20.828125 C 8.792969 20.871094 8.902344 20.996094 8.921875 20.996094 C 8.929688 20.996094 9.058594 20.941406 9.132812 20.917969 C 9.203125 20.894531 9.269531 20.863281 9.289062 20.84375 C 9.300781 20.835938 9.214844 20.710938 9.167969 20.652344 "/>
<path style=" stroke:none;fill-rule:nonzero;fill:rgb(100%,100%,100%);fill-opacity:1;" d="M 10.4375 18.6875 C 10.394531 18.664062 10.265625 18.414062 10.304688 18.167969 C 10.339844 17.925781 10.476562 17.460938 10.519531 17.324219 C 10.5625 17.183594 10.609375 17.011719 10.636719 17.007812 C 10.664062 17.003906 10.757812 17.140625 10.757812 17.183594 C 10.757812 17.246094 10.605469 17.671875 10.570312 17.84375 C 10.535156 18.011719 10.4375 18.6875 10.4375 18.6875 "/>
<path style=" stroke:none;fill-rule:nonzero;fill:rgb(0%,13.333333%,70.588235%);fill-opacity:1;" d="M 22.355469 24.011719 C 22.4375 24.011719 22.511719 24.03125 22.582031 24.074219 C 22.652344 24.113281 22.710938 24.167969 22.75 24.238281 C 22.789062 24.308594 22.8125 24.386719 22.8125 24.464844 C 22.8125 24.546875 22.792969 24.625 22.75 24.695312 C 22.710938 24.765625 22.65625 24.820312 22.585938 24.859375 C 22.515625 24.902344 22.4375 24.921875 22.355469 24.921875 C 22.273438 24.921875 22.199219 24.902344 22.128906 24.859375 C 22.058594 24.820312 22.003906 24.765625 21.960938 24.695312 C 21.921875 24.625 21.902344 24.546875 21.902344 24.464844 C 21.902344 24.382812 21.921875 24.308594 21.960938 24.238281 C 22.003906 24.167969 22.058594 24.113281 22.128906 24.070312 C 22.199219 24.03125 22.273438 24.011719 22.355469 24.011719 M 22.355469 24.085938 C 22.253906 24.085938 22.164062 24.121094 22.089844 24.195312 C 22.015625 24.269531 21.980469 24.359375 21.980469 24.464844 C 21.980469 24.570312 22.015625 24.660156 22.089844 24.734375 C 22.164062 24.808594 22.253906 24.847656 22.355469 24.847656 C 22.460938 24.847656 22.550781 24.808594 22.621094 24.734375 C 22.695312 24.660156 22.730469 24.570312 22.730469 24.464844 C 22.730469 24.359375 22.695312 24.269531 22.621094 24.195312 C 22.546875 24.121094 22.460938 24.085938 22.355469 24.085938 Z M 22.253906 24.710938 L 22.175781 24.710938 L 22.175781 24.222656 L 22.34375 24.222656 C 22.402344 24.222656 22.445312 24.226562 22.46875 24.234375 C 22.492188 24.246094 22.511719 24.261719 22.527344 24.285156 C 22.542969 24.304688 22.550781 24.328125 22.550781 24.355469 C 22.550781 24.390625 22.539062 24.421875 22.511719 24.449219 C 22.484375 24.476562 22.453125 24.488281 22.410156 24.492188 C 22.429688 24.5 22.445312 24.511719 22.464844 24.53125 C 22.480469 24.546875 22.5 24.578125 22.523438 24.617188 L 22.582031 24.710938 L 22.488281 24.710938 L 22.445312 24.636719 C 22.414062 24.582031 22.386719 24.546875 22.371094 24.527344 C 22.355469 24.511719 22.328125 24.503906 22.300781 24.503906 L 22.253906 24.503906 Z M 22.253906 24.289062 L 22.253906 24.4375 L 22.351562 24.4375 C 22.390625 24.4375 22.421875 24.429688 22.4375 24.417969 C 22.457031 24.40625 22.46875 24.386719 22.46875 24.359375 C 22.46875 24.335938 22.457031 24.3125 22.441406 24.304688 C 22.421875 24.292969 22.390625 24.289062 22.34375 24.289062 Z M 22.253906 24.289062 "/>
<path style=" stroke:none;fill-rule:nonzero;fill:rgb(100%,100%,100%);fill-opacity:1;" d="M 17.507812 13.480469 C 17.507812 13.480469 17.371094 13.484375 17.371094 13.484375 C 17.367188 13.484375 17.355469 13.484375 17.355469 13.484375 C 17.082031 13.472656 16.902344 13.472656 16.800781 13.472656 C 16.675781 13.472656 16.613281 13.515625 16.613281 13.597656 C 16.613281 13.636719 16.628906 13.722656 16.78125 13.722656 C 16.839844 13.722656 16.910156 13.730469 16.9375 13.738281 C 17.054688 13.761719 17.082031 13.796875 17.089844 13.945312 C 17.097656 14.101562 17.097656 14.238281 17.097656 14.992188 L 17.097656 15.609375 C 17.097656 16.125 17.078125 16.535156 16.835938 16.78125 C 16.617188 17 16.324219 17.023438 16.210938 17.023438 C 16.039062 17.023438 15.839844 17.003906 15.640625 16.839844 C 15.429688 16.664062 15.285156 16.402344 15.285156 15.683594 L 15.285156 14.992188 C 15.285156 14.238281 15.285156 14.101562 15.296875 13.945312 C 15.304688 13.777344 15.339844 13.75 15.414062 13.738281 C 15.46875 13.730469 15.492188 13.722656 15.539062 13.722656 C 15.691406 13.722656 15.703125 13.628906 15.703125 13.597656 C 15.703125 13.472656 15.558594 13.472656 15.511719 13.472656 L 15.148438 13.480469 L 14.902344 13.484375 L 13.949219 13.488281 L 13.667969 13.480469 L 13.4375 13.472656 C 13.296875 13.472656 13.277344 13.550781 13.277344 13.597656 C 13.277344 13.699219 13.371094 13.71875 13.40625 13.726562 C 13.40625 13.726562 13.40625 13.730469 13.410156 13.730469 C 13.410156 13.730469 13.410156 13.734375 13.410156 13.746094 C 13.410156 13.796875 13.300781 13.925781 13.203125 14.042969 L 13.183594 14.066406 C 13.097656 14.167969 12.804688 14.472656 12.542969 14.742188 C 12.4375 14.851562 12.339844 14.953125 12.261719 15.035156 C 12.261719 15.023438 12.261719 14.996094 12.261719 14.996094 C 12.261719 14.238281 12.261719 14.101562 12.273438 13.945312 C 12.28125 13.777344 12.316406 13.75 12.390625 13.738281 C 12.445312 13.730469 12.472656 13.722656 12.515625 13.722656 C 12.65625 13.722656 12.664062 13.621094 12.664062 13.597656 C 12.664062 13.515625 12.601562 13.472656 12.480469 13.472656 L 12.128906 13.480469 L 11.878906 13.488281 L 11.660156 13.480469 C 11.515625 13.476562 11.339844 13.472656 11.183594 13.472656 C 10.992188 13.472656 10.992188 13.566406 10.992188 13.597656 C 10.992188 13.636719 11.007812 13.722656 11.15625 13.722656 C 11.226562 13.722656 11.304688 13.730469 11.332031 13.738281 C 11.449219 13.761719 11.476562 13.800781 11.484375 13.945312 C 11.492188 14.101562 11.492188 14.238281 11.492188 14.996094 L 11.492188 15.867188 C 11.492188 16.324219 11.492188 16.714844 11.46875 16.917969 C 11.449219 17.058594 11.429688 17.113281 11.390625 17.121094 C 11.332031 17.132812 11.28125 17.140625 11.226562 17.140625 C 11.078125 17.140625 11.066406 17.230469 11.066406 17.257812 C 11.066406 17.300781 11.082031 17.390625 11.246094 17.390625 C 11.359375 17.390625 11.511719 17.386719 11.640625 17.382812 L 11.875 17.375 L 12.097656 17.382812 C 12.242188 17.386719 12.421875 17.390625 12.589844 17.390625 C 12.757812 17.390625 12.765625 17.28125 12.765625 17.257812 C 12.765625 17.203125 12.71875 17.140625 12.617188 17.140625 C 12.558594 17.140625 12.449219 17.128906 12.386719 17.117188 C 12.359375 17.113281 12.289062 17.105469 12.277344 16.925781 C 12.261719 16.714844 12.261719 16.324219 12.261719 15.867188 C 12.261719 15.867188 12.261719 15.742188 12.261719 15.617188 C 12.378906 15.746094 14.15625 17.707031 14.15625 17.707031 L 14.160156 17.710938 C 14.378906 17.90625 14.53125 18.023438 14.820312 18.050781 C 14.929688 18.0625 15.019531 18.0625 15.171875 18.0625 L 15.605469 18.0625 C 15.660156 18.0625 15.804688 18.0625 15.804688 17.929688 C 15.804688 17.871094 15.761719 17.808594 15.660156 17.808594 C 15.625 17.808594 15.527344 17.785156 15.359375 17.71875 C 15.121094 17.625 14.894531 17.425781 14.703125 17.246094 C 14.699219 17.242188 14.128906 16.621094 14.128906 16.621094 C 14.128906 16.621094 13.011719 15.417969 12.753906 15.144531 C 12.988281 14.90625 13.625 14.265625 13.769531 14.128906 C 13.984375 13.9375 14.214844 13.738281 14.347656 13.738281 C 14.410156 13.738281 14.46875 13.753906 14.476562 13.945312 C 14.488281 14.101562 14.488281 14.238281 14.488281 14.992188 L 14.488281 15.714844 C 14.488281 16.363281 14.636719 16.800781 14.957031 17.089844 C 15.355469 17.449219 15.886719 17.449219 16.109375 17.449219 C 16.410156 17.449219 16.804688 17.410156 17.195312 17.074219 C 17.632812 16.699219 17.695312 16.105469 17.695312 15.519531 L 17.695312 14.992188 C 17.695312 14.238281 17.695312 14.101562 17.703125 13.945312 C 17.714844 13.777344 17.75 13.75 17.820312 13.738281 C 17.878906 13.730469 17.902344 13.722656 17.949219 13.722656 C 18.097656 13.722656 18.121094 13.644531 18.121094 13.597656 C 18.121094 13.515625 18.058594 13.472656 17.933594 13.472656 C 17.808594 13.472656 17.636719 13.476562 17.507812 13.480469 "/>
</g>
</svg>
