<?xml version="1.0" encoding="UTF-8"?>
<svg xmlns="http://www.w3.org/2000/svg" xmlns:xlink="http://www.w3.org/1999/xlink" width="35pt" height="25pt" viewBox="0 0 35 25" version="1.1">
<g id="surface1">
<path style=" stroke:none;fill-rule:nonzero;fill:rgb(40%,20%,60%);fill-opacity:1;" d="M 22.621094 13.789062 C 22.621094 13.789062 22.558594 13.492188 22.898438 12.449219 C 22.898438 12.449219 19.261719 11.367188 15.453125 11.367188 C 11.644531 11.367188 5.199219 12.832031 3.882812 17.511719 C 2.5625 22.191406 8.242188 26.574219 13.199219 24.449219 C 13.199219 24.449219 11.09375 22.152344 11.304688 19.789062 C 11.519531 17.429688 12.902344 12.34375 22.621094 13.789062 Z M 22.621094 13.789062 "/>
<path style=" stroke:none;fill-rule:nonzero;fill:rgb(40%,20%,60%);fill-opacity:1;" d="M 28.054688 14.824219 C 28.054688 14.824219 26.832031 16.925781 24.90625 16.855469 C 22.976562 16.78125 22.621094 15.039062 22.578125 14.898438 C 22.539062 14.753906 22.535156 14.613281 22.269531 14.597656 C 22 14.585938 21.671875 14.441406 20.351562 14.484375 C 19.035156 14.527344 16.226562 14.867188 15.050781 17.519531 C 13.871094 20.171875 15.757812 22.042969 16.625 22.640625 C 16.625 22.640625 17.53125 20.484375 19.730469 20.5 C 21.925781 20.511719 22.792969 22.042969 22.890625 22.457031 C 22.890625 22.457031 26.636719 20.996094 28.59375 17.875 L 27.769531 17.023438 C 27.769531 17.023438 28.636719 14.699219 28.054688 14.824219 Z M 28.054688 14.824219 "/>
<path style=" stroke:none;fill-rule:nonzero;fill:rgb(40%,20%,60%);fill-opacity:1;" d="M 4.386719 0.984375 C 4.386719 0.984375 7.023438 3.863281 9.617188 4.132812 C 12.214844 4.402344 14.171875 3.183594 14.15625 0.0195312 C 14.15625 0.0195312 22.578125 -0.332031 26.027344 1.859375 L 26.027344 2.070312 L 23.644531 2.070312 C 23.644531 2.070312 31.023438 3.070312 34.46875 6.195312 L 34.554688 6.578125 C 34.554688 6.578125 33.832031 8.878906 31.960938 11.492188 L 30.769531 11.449219 C 30.769531 11.449219 29.875 13.152344 29.34375 13.175781 C 28.8125 13.195312 29.621094 12.941406 29.429688 11.664062 C 29.238281 10.386719 28.109375 9.769531 26.984375 9.75 C 25.855469 9.726562 24.8125 10.429688 24.152344 10.984375 C 23.496094 11.535156 23.496094 12.257812 22.769531 11.769531 C 22.046875 11.28125 18.113281 10.261719 14.582031 10.472656 C 11.050781 10.683594 3.09375 12.34375 0.5 17.703125 L 0.5 2.089844 Z M 4.386719 0.984375 "/>
<path style=" stroke:none;fill-rule:nonzero;fill:rgb(40%,20%,60%);fill-opacity:1;" d="M 4.839844 0.175781 L 13.375 0.175781 C 13.375 0.175781 14.058594 2.445312 11.363281 3.324219 C 8.667969 4.203125 5.691406 1.707031 4.839844 0.175781 Z M 4.839844 0.175781 "/>
<path style=" stroke:none;fill-rule:nonzero;fill:rgb(40%,20%,60%);fill-opacity:1;" d="M 14.554688 23.371094 C 14.652344 23.371094 14.746094 23.394531 14.835938 23.445312 C 14.925781 23.496094 14.996094 23.566406 15.046875 23.65625 C 15.097656 23.75 15.121094 23.847656 15.121094 23.945312 C 15.121094 24.042969 15.097656 24.140625 15.046875 24.230469 C 15 24.324219 14.929688 24.394531 14.839844 24.445312 C 14.75 24.496094 14.652344 24.519531 14.554688 24.519531 C 14.457031 24.519531 14.363281 24.496094 14.273438 24.445312 C 14.183594 24.394531 14.113281 24.324219 14.0625 24.230469 C 14.011719 24.140625 13.988281 24.042969 13.988281 23.945312 C 13.988281 23.847656 14.015625 23.75 14.066406 23.65625 C 14.117188 23.566406 14.1875 23.496094 14.277344 23.445312 C 14.367188 23.394531 14.460938 23.371094 14.554688 23.371094 Z M 14.554688 23.464844 C 14.476562 23.464844 14.398438 23.488281 14.324219 23.527344 C 14.246094 23.570312 14.1875 23.628906 14.144531 23.707031 C 14.105469 23.78125 14.082031 23.863281 14.082031 23.945312 C 14.082031 24.027344 14.101562 24.109375 14.144531 24.183594 C 14.1875 24.261719 14.246094 24.320312 14.320312 24.363281 C 14.394531 24.402344 14.472656 24.425781 14.554688 24.425781 C 14.636719 24.425781 14.714844 24.402344 14.792969 24.363281 C 14.867188 24.320312 14.925781 24.261719 14.964844 24.183594 C 15.007812 24.109375 15.027344 24.027344 15.027344 23.945312 C 15.027344 23.863281 15.007812 23.78125 14.964844 23.707031 C 14.921875 23.628906 14.863281 23.570312 14.789062 23.527344 C 14.710938 23.488281 14.636719 23.464844 14.554688 23.464844 Z M 14.308594 24.261719 L 14.308594 23.644531 L 14.515625 23.644531 C 14.589844 23.644531 14.640625 23.652344 14.671875 23.660156 C 14.703125 23.671875 14.730469 23.691406 14.75 23.722656 C 14.769531 23.75 14.777344 23.78125 14.777344 23.8125 C 14.777344 23.859375 14.761719 23.898438 14.730469 23.929688 C 14.699219 23.964844 14.65625 23.984375 14.601562 23.988281 C 14.625 23.996094 14.640625 24.007812 14.65625 24.019531 C 14.679688 24.042969 14.710938 24.085938 14.746094 24.140625 L 14.820312 24.261719 L 14.699219 24.261719 L 14.644531 24.167969 C 14.601562 24.089844 14.570312 24.042969 14.542969 24.023438 C 14.523438 24.007812 14.496094 24 14.464844 24 L 14.40625 24 L 14.40625 24.261719 Z M 14.40625 23.914062 L 14.523438 23.914062 C 14.582031 23.914062 14.621094 23.90625 14.640625 23.890625 C 14.664062 23.871094 14.671875 23.847656 14.671875 23.820312 C 14.671875 23.800781 14.667969 23.785156 14.65625 23.773438 C 14.648438 23.757812 14.632812 23.746094 14.617188 23.738281 C 14.597656 23.730469 14.566406 23.730469 14.515625 23.730469 L 14.40625 23.730469 Z M 14.40625 23.914062 "/>
</g>
</svg>
