<?xml version="1.0" encoding="UTF-8"?>
<svg xmlns="http://www.w3.org/2000/svg" xmlns:xlink="http://www.w3.org/1999/xlink" width="35pt" height="25pt" viewBox="0 0 35 25" version="1.1">
<g id="surface1">
<path style=" stroke:none;fill-rule:nonzero;fill:rgb(20%,20%,20%);fill-opacity:1;" d="M 9.242188 13.722656 L 10.824219 9.285156 L 12.058594 8.8125 L 10.824219 9.285156 L 7.492188 9.285156 L 5.980469 13.726562 L 5.984375 13.726562 Z M 9.242188 13.722656 "/>
<path style=" stroke:none;fill-rule:nonzero;fill:rgb(20%,20%,20%);fill-opacity:1;" d="M 32.164062 8.171875 L 31.75 9.199219 L 19.824219 9.199219 L 20.089844 8.546875 L 20.390625 7.722656 L 17.652344 7.722656 L 16.878906 9.828125 L 15.367188 10.523438 L 16.882812 9.828125 L 21.101562 13.265625 L 19.621094 13.921875 L 21.101562 13.265625 L 20.113281 16.125 C 20.113281 16.125 19.308594 19.464844 16.488281 19.464844 L 12.472656 19.464844 L 10.941406 18.351562 L 11.59375 16.570312 L 2.449219 16.570312 L 3.703125 16.078125 L 2.449219 16.570312 L 2.769531 15.507812 L 14.832031 15.542969 L 14.828125 15.546875 L 14.691406 15.875 L 14.695312 15.875 L 14.234375 17.136719 L 16.960938 17.136719 L 17.804688 14.8125 L 13.449219 11.441406 L 13.453125 11.4375 L 15.367188 10.523438 L 13.449219 11.441406 L 14.175781 9.402344 C 15.628906 4.976562 18.171875 5.324219 18.132812 5.324219 L 22.277344 5.414062 L 23.636719 6.402344 L 23.003906 8.167969 Z M 29.691406 15.140625 C 29.085938 16.78125 27.390625 16.59375 27.390625 16.59375 L 22.878906 16.59375 L 21.441406 15.613281 L 23.445312 9.992188 L 25.84375 9.992188 L 25.835938 10.019531 L 23.910156 15.535156 L 26.320312 15.527344 C 27.175781 15.523438 27.402344 14.851562 27.554688 14.398438 C 27.703125 13.945312 29.082031 9.976562 29.082031 9.976562 L 31.496094 9.976562 C 31.496094 9.976562 29.996094 14.300781 29.691406 15.140625 M 4.90625 10.039062 C 5.53125 8.210938 7.089844 8.203125 7.089844 8.203125 L 11.980469 8.203125 L 13.269531 9.089844 C 13.269531 9.089844 12.160156 12.136719 11.738281 13.3125 C 11.234375 14.71875 9.550781 14.808594 9.550781 14.808594 L 5.066406 14.808594 L 3.609375 13.792969 L 4.90625 10.039062 M 24.925781 6 L 22.628906 4.304688 L 17.933594 4.304688 C 15.816406 4.304688 14.316406 6.261719 13.886719 7.0625 L 7.5625 7.0625 C 6.699219 7.046875 4.601562 7.46875 4 9.066406 C 3.546875 10.265625 2.753906 12.816406 2.386719 14.011719 L 3.519531 14.773438 L 2.148438 14.761719 L 1.289062 17.519531 L 10.054688 17.519531 L 9.617188 18.617188 L 12.097656 20.550781 L 16.488281 20.546875 C 19.183594 20.546875 20.601562 18.203125 21.070312 16.710938 L 22.511719 17.695312 L 27.4375 17.695312 C 28.3125 17.761719 30.011719 17.410156 30.675781 15.605469 C 30.949219 14.859375 31.945312 12.023438 31.988281 11.902344 L 32.554688 10.292969 L 32.550781 10.292969 L 33.667969 7.058594 L 24.550781 7.058594 L 24.925781 6 "/>
<path style=" stroke:none;fill-rule:nonzero;fill:rgb(90.588235%,43.529412%,14.117647%);fill-opacity:1;" d="M 21.875 8.699219 L 23.003906 8.167969 L 22.992188 8.171875 Z M 21.875 8.699219 "/>
<path style=" stroke:none;fill-rule:nonzero;fill:rgb(100%,40%,0%);fill-opacity:1;" d="M 22.8125 8.699219 L 21.875 8.699219 L 22.992188 8.171875 L 23.003906 8.167969 L 23.636719 6.402344 L 22.277344 5.414062 L 21.242188 6.679688 L 17.984375 6.679688 C 17.289062 6.679688 16.5625 7.15625 16.289062 7.875 C 15.855469 8.996094 15.367188 10.523438 15.367188 10.523438 L 13.453125 11.4375 L 13.449219 11.441406 L 17.804688 14.8125 L 19.621094 13.921875 C 19.621094 13.921875 18.832031 15.960938 18.589844 16.683594 C 18.238281 17.742188 17.484375 18.199219 16.429688 18.199219 L 12.308594 18.199219 L 14.234375 17.136719 L 14.695312 15.875 L 14.691406 15.875 L 14.828125 15.546875 L 13.847656 16.078125 L 3.703125 16.078125 L 2.449219 16.570312 L 11.59375 16.570312 L 10.941406 18.351562 L 12.472656 19.464844 L 16.488281 19.464844 C 19.308594 19.464844 20.113281 16.125 20.113281 16.125 L 21.101562 13.265625 L 19.621094 13.921875 L 15.367188 10.523438 L 16.878906 9.828125 L 17.652344 7.722656 L 20.390625 7.722656 L 20.089844 8.546875 L 19.824219 9.199219 L 31.75 9.199219 L 32.164062 8.171875 L 31.171875 8.699219 Z M 22.8125 8.699219 "/>
<path style=" stroke:none;fill-rule:nonzero;fill:rgb(100%,40%,0%);fill-opacity:1;" d="M 28.636719 14.578125 C 28.152344 15.660156 27.304688 16.058594 26.652344 16.058594 L 23.328125 16.058594 L 23.910156 15.535156 L 25.835938 10.019531 L 25.84375 9.992188 L 24.292969 10.859375 L 22.976562 14.792969 L 21.441406 15.613281 L 22.878906 16.597656 L 27.390625 16.597656 C 27.390625 16.597656 29.085938 16.78125 29.691406 15.140625 C 29.996094 14.300781 31.496094 9.976562 31.496094 9.976562 L 29.847656 10.917969 Z M 28.636719 14.578125 "/>
<path style=" stroke:none;fill-rule:nonzero;fill:rgb(100%,40%,0%);fill-opacity:1;" d="M 5.980469 13.726562 L 7.492188 9.285156 L 10.824219 9.285156 L 12.058594 8.8125 L 10.539062 13.265625 C 10.1875 14.164062 9.1875 14.191406 9.1875 14.191406 L 5.515625 14.191406 Z M 5.917969 14.808594 L 9.550781 14.808594 C 9.550781 14.808594 11.234375 14.71875 11.738281 13.3125 C 12.160156 12.136719 13.269531 9.089844 13.269531 9.089844 L 11.980469 8.203125 L 12.058594 8.8125 L 7.46875 8.808594 C 6.441406 8.808594 6.015625 10.042969 6.015625 10.042969 L 5 13.015625 L 3.609375 13.792969 L 5.066406 14.808594 L 5.917969 14.808594 "/>
<path style=" stroke:none;fill-rule:nonzero;fill:rgb(80%,80%,80%);fill-opacity:1;" d="M 34.039062 7.183594 C 34.039062 7.183594 32.921875 10.417969 32.921875 10.421875 C 32.921875 10.421875 32.359375 12.03125 32.351562 12.050781 C 32.351562 12.050781 31.042969 15.742188 31.042969 15.742188 C 30.308594 17.734375 28.441406 18.152344 27.433594 18.085938 L 22.390625 18.085938 C 22.390625 18.085938 21.683594 17.605469 21.261719 17.320312 C 20.554688 19.085938 18.960938 20.9375 16.488281 20.9375 L 11.960938 20.941406 L 9.144531 18.746094 C 9.144531 18.746094 9.367188 18.191406 9.476562 17.910156 C 8.472656 17.910156 0.757812 17.910156 0.757812 17.910156 L 1.929688 14.171875 C 1.929688 14.171875 3.1875 10.113281 3.632812 8.929688 C 4.347656 7.039062 6.777344 6.65625 7.5625 6.671875 L 13.667969 6.671875 C 14.308594 5.613281 15.859375 3.914062 17.933594 3.914062 L 22.757812 3.914062 L 25.390625 5.859375 C 25.390625 5.859375 25.199219 6.398438 25.101562 6.667969 L 34.214844 6.667969 Z M 25.894531 6.109375 C 25.964844 5.910156 26.054688 5.660156 26.054688 5.660156 L 22.941406 3.355469 L 17.933594 3.355469 C 15.789062 3.355469 14.152344 4.953125 13.359375 6.113281 L 7.5625 6.113281 C 6.621094 6.09375 3.941406 6.527344 3.113281 8.730469 C 2.660156 9.929688 1.894531 12.378906 1.480469 13.734375 C 1.480469 13.734375 1.460938 13.792969 1.457031 13.808594 L 1.453125 13.808594 L 0 18.464844 C 0 18.464844 6.683594 18.46875 8.65625 18.46875 C 8.578125 18.664062 8.472656 18.929688 8.472656 18.929688 L 11.769531 21.5 L 16.492188 21.496094 C 18.945312 21.496094 20.613281 19.875 21.496094 18.152344 C 21.710938 18.300781 22.21875 18.644531 22.21875 18.644531 L 27.429688 18.644531 C 28.601562 18.710938 30.726562 18.214844 31.566406 15.933594 C 31.566406 15.933594 32.878906 12.234375 32.878906 12.234375 C 32.882812 12.214844 33.449219 10.605469 33.449219 10.605469 C 33.449219 10.601562 34.566406 7.367188 34.566406 7.367188 L 35 6.109375 L 25.894531 6.109375 "/>
<path style=" stroke:none;fill-rule:nonzero;fill:rgb(100%,60%,0%);fill-opacity:1;" d="M 33.667969 7.058594 L 32.550781 10.292969 L 32.554688 10.292969 L 31.988281 11.902344 C 31.945312 12.023438 30.949219 14.859375 30.675781 15.605469 C 30.011719 17.410156 28.3125 17.761719 27.4375 17.695312 L 22.511719 17.695312 L 21.070312 16.710938 C 20.601562 18.203125 19.183594 20.546875 16.488281 20.546875 L 12.097656 20.550781 L 9.617188 18.617188 L 10.054688 17.519531 L 1.289062 17.519531 L 2.148438 14.761719 L 3.519531 14.773438 L 2.386719 14.011719 C 2.753906 12.816406 3.546875 10.265625 4 9.066406 C 4.601562 7.46875 6.699219 7.046875 7.5625 7.0625 L 13.886719 7.0625 C 14.316406 6.261719 15.816406 4.304688 17.933594 4.304688 L 22.628906 4.304688 L 24.925781 6 L 24.550781 7.058594 Z M 25.390625 5.859375 L 22.757812 3.914062 L 17.933594 3.914062 C 15.859375 3.914062 14.308594 5.613281 13.667969 6.671875 L 7.5625 6.671875 C 6.777344 6.65625 4.347656 7.039062 3.632812 8.929688 C 3.1875 10.113281 1.929688 14.171875 1.929688 14.171875 L 0.757812 17.910156 C 0.757812 17.910156 8.472656 17.910156 9.476562 17.910156 C 9.367188 18.191406 9.144531 18.746094 9.144531 18.746094 L 11.960938 20.941406 L 16.488281 20.9375 C 18.960938 20.9375 20.554688 19.085938 21.261719 17.316406 C 21.683594 17.605469 22.390625 18.085938 22.390625 18.085938 L 27.433594 18.085938 C 28.441406 18.152344 30.308594 17.734375 31.042969 15.742188 C 31.042969 15.742188 32.351562 12.050781 32.351562 12.050781 C 32.359375 12.03125 32.921875 10.421875 32.921875 10.421875 C 32.921875 10.417969 34.039062 7.183594 34.039062 7.183594 L 34.214844 6.667969 L 25.101562 6.667969 C 25.199219 6.398438 25.390625 5.859375 25.390625 5.859375 "/>
<path style=" stroke:none;fill-rule:nonzero;fill:rgb(100%,60%,0%);fill-opacity:1;" d="M 6.015625 10.042969 C 6.015625 10.042969 6.441406 8.808594 7.46875 8.808594 L 12.058594 8.8125 L 11.980469 8.203125 L 7.089844 8.203125 C 7.089844 8.203125 5.53125 8.210938 4.90625 10.039062 L 3.609375 13.792969 L 5 13.015625 Z M 6.015625 10.042969 "/>
<path style=" stroke:none;fill-rule:nonzero;fill:rgb(97.254902%,59.607843%,15.686275%);fill-opacity:1;" d="M 10.539062 13.265625 L 12.058594 8.8125 L 10.824219 9.285156 L 9.242188 13.722656 L 5.984375 13.726562 L 5.980469 13.726562 L 5.980469 13.730469 L 5.515625 14.191406 L 9.1875 14.191406 C 9.1875 14.191406 10.1875 14.164062 10.539062 13.265625 "/>
<path style=" stroke:none;fill-rule:nonzero;fill:rgb(97.254902%,59.607843%,15.686275%);fill-opacity:1;" d="M 5.980469 13.726562 L 5.515625 14.191406 L 5.980469 13.730469 Z M 5.980469 13.726562 "/>
<path style=" stroke:none;fill-rule:nonzero;fill:rgb(100%,60%,0%);fill-opacity:1;" d="M 13.847656 16.078125 L 14.828125 15.546875 L 14.832031 15.542969 L 2.769531 15.507812 L 2.449219 16.570312 L 3.703125 16.078125 Z M 13.847656 16.078125 "/>
<path style=" stroke:none;fill-rule:nonzero;fill:rgb(97.254902%,59.607843%,15.686275%);fill-opacity:1;" d="M 13.847656 16.078125 L 14.828125 15.546875 Z M 13.847656 16.078125 "/>
<path style=" stroke:none;fill-rule:nonzero;fill:rgb(100%,60%,0%);fill-opacity:1;" d="M 12.308594 18.199219 L 16.429688 18.199219 C 17.488281 18.199219 18.238281 17.742188 18.589844 16.683594 C 18.832031 15.960938 19.621094 13.921875 19.621094 13.921875 L 17.804688 14.8125 L 16.960938 17.136719 L 14.234375 17.136719 Z M 12.308594 18.199219 "/>
<path style=" stroke:none;fill-rule:nonzero;fill:rgb(97.254902%,59.607843%,15.686275%);fill-opacity:1;" d="M 14.234375 17.136719 L 12.308594 18.199219 Z M 14.234375 17.136719 "/>
<path style=" stroke:none;fill-rule:nonzero;fill:rgb(97.254902%,59.607843%,15.686275%);fill-opacity:1;" d="M 19.621094 13.921875 L 17.804688 14.8125 Z M 19.621094 13.921875 "/>
<path style=" stroke:none;fill-rule:nonzero;fill:rgb(100%,60%,0%);fill-opacity:1;" d="M 21.101562 13.265625 L 16.882812 9.828125 L 15.367188 10.523438 L 19.621094 13.921875 Z M 21.101562 13.265625 "/>
<path style=" stroke:none;fill-rule:nonzero;fill:rgb(100%,60%,0%);fill-opacity:1;" d="M 17.984375 6.679688 L 21.242188 6.679688 L 22.277344 5.414062 L 18.132812 5.324219 C 18.171875 5.324219 15.628906 4.976562 14.175781 9.402344 L 13.449219 11.441406 L 15.367188 10.523438 C 15.367188 10.523438 15.855469 8.996094 16.289062 7.875 C 16.5625 7.15625 17.289062 6.679688 17.984375 6.679688 "/>
<path style=" stroke:none;fill-rule:nonzero;fill:rgb(97.254902%,59.607843%,15.686275%);fill-opacity:1;" d="M 21.242188 6.679688 L 22.277344 5.414062 Z M 21.242188 6.679688 "/>
<path style=" stroke:none;fill-rule:nonzero;fill:rgb(100%,60%,0%);fill-opacity:1;" d="M 21.875 8.699219 L 31.171875 8.699219 L 32.164062 8.171875 L 23.003906 8.167969 Z M 21.875 8.699219 "/>
<path style=" stroke:none;fill-rule:nonzero;fill:rgb(97.254902%,59.607843%,15.686275%);fill-opacity:1;" d="M 31.171875 8.699219 L 32.164062 8.171875 Z M 31.171875 8.699219 "/>
<path style=" stroke:none;fill-rule:nonzero;fill:rgb(100%,60%,0%);fill-opacity:1;" d="M 24.292969 10.859375 L 25.808594 10.011719 L 25.84375 9.992188 L 23.445312 9.992188 L 21.441406 15.613281 L 22.976562 14.792969 Z M 24.292969 10.859375 "/>
<path style=" stroke:none;fill-rule:nonzero;fill:rgb(97.254902%,59.607843%,15.686275%);fill-opacity:1;" d="M 24.292969 10.859375 L 25.84375 9.992188 L 25.808594 10.011719 Z M 24.292969 10.859375 "/>
<path style=" stroke:none;fill-rule:nonzero;fill:rgb(100%,60%,0%);fill-opacity:1;" d="M 27.554688 14.398438 C 27.402344 14.851562 27.175781 15.523438 26.320312 15.527344 L 23.910156 15.535156 L 23.328125 16.058594 L 26.652344 16.058594 C 27.304688 16.058594 28.152344 15.660156 28.636719 14.578125 L 29.847656 10.917969 L 31.496094 9.976562 L 29.082031 9.976562 C 29.082031 9.976562 27.703125 13.945312 27.554688 14.398438 "/>
<path style=" stroke:none;fill-rule:nonzero;fill:rgb(20%,20%,20%);fill-opacity:1;" d="M 31.476562 17.765625 L 31.582031 17.765625 C 31.636719 17.765625 31.679688 17.75 31.679688 17.6875 C 31.679688 17.628906 31.632812 17.613281 31.582031 17.613281 L 31.476562 17.613281 Z M 31.566406 17.808594 L 31.476562 17.808594 L 31.476562 17.996094 L 31.429688 17.996094 L 31.429688 17.570312 L 31.589844 17.570312 C 31.6875 17.570312 31.730469 17.613281 31.730469 17.6875 C 31.730469 17.761719 31.679688 17.796875 31.621094 17.808594 L 31.75 17.996094 L 31.691406 17.996094 Z M 31.5625 18.097656 C 31.738281 18.097656 31.871094 17.957031 31.871094 17.78125 C 31.871094 17.609375 31.738281 17.46875 31.5625 17.46875 C 31.386719 17.46875 31.253906 17.609375 31.253906 17.785156 C 31.253906 17.957031 31.386719 18.097656 31.5625 18.097656 M 31.5625 17.425781 C 31.757812 17.425781 31.917969 17.585938 31.917969 17.785156 C 31.917969 17.980469 31.757812 18.140625 31.5625 18.140625 C 31.363281 18.140625 31.203125 17.980469 31.203125 17.785156 C 31.203125 17.585938 31.363281 17.425781 31.5625 17.425781 "/>
</g>
</svg>
