<?xml version="1.0" encoding="UTF-8"?>
<svg xmlns="http://www.w3.org/2000/svg" xmlns:xlink="http://www.w3.org/1999/xlink" width="35pt" height="25pt" viewBox="0 0 35 25" version="1.1">
<g id="surface1">
<path style=" stroke:none;fill-rule:nonzero;fill:rgb(51.764706%,8.627451%,27.843137%);fill-opacity:1;" d="M 13.109375 14.375 L 12.242188 13.445312 L 12.242188 4.671875 L 13.109375 3.742188 L 17.414062 3.742188 L 18.277344 4.671875 L 18.277344 13.445312 L 17.414062 14.375 L 17.132812 14.375 L 17.132812 8.394531 L 13.390625 8.394531 L 13.390625 14.375 Z M 23.171875 8.394531 L 23.171875 20.328125 L 22.304688 21.257812 L 18 21.257812 L 17.132812 20.328125 L 17.132812 18.117188 L 18.277344 18.117188 L 21.765625 14.375 L 21.765625 3.742188 L 18.277344 0 L 11.984375 0 L 8.5 3.742188 L 8.5 14.375 L 11.984375 18.117188 L 13.390625 18.117188 L 13.390625 21.257812 L 16.878906 25 L 23.171875 25 L 26.65625 21.257812 L 26.65625 8.394531 Z M 23.171875 8.394531 "/>
</g>
</svg>
