<?xml version="1.0" encoding="UTF-8"?>
<svg xmlns="http://www.w3.org/2000/svg" xmlns:xlink="http://www.w3.org/1999/xlink" width="35pt" height="25pt" viewBox="0 0 35 25" version="1.1">
<g id="surface1">
<path style=" stroke:none;fill-rule:nonzero;fill:rgb(79.607843%,34.117647%,15.294118%);fill-opacity:1;" d="M 35 4.308594 C 35.011719 4.433594 34.972656 4.929688 34.523438 4.917969 C 33.644531 4.894531 32.757812 5.046875 31.890625 5.269531 C 31.238281 5.480469 30.609375 5.957031 30.042969 6.398438 C 28.8125 7.347656 23.988281 10.171875 24.25 10.109375 C 24.230469 10.1875 24.332031 10.195312 24.351562 10.25 C 24.707031 10.398438 25.925781 10.9375 25.964844 10.953125 C 25.980469 11.007812 26.3125 11.304688 25.863281 11.722656 C 25.308594 12.085938 24.652344 12.347656 23.945312 12.304688 C 22.976562 12.242188 21.769531 11.445312 21.832031 11.78125 C 21.832031 11.78125 21.792969 13.519531 20.722656 14.867188 C 20.199219 15.527344 19.960938 16.417969 19.957031 17.304688 C 19.953125 17.996094 20.160156 18.457031 20.160156 18.457031 C 20.171875 18.570312 20.378906 19.71875 20.25 20.09375 C 20.179688 20.296875 19.023438 21.515625 18.667969 21.472656 C 18.003906 21.496094 17.207031 21.527344 16.554688 21.453125 L 16.511719 21.4375 C 14.886719 20.234375 15.15625 19.875 15.140625 19.441406 C 15.121094 18.5625 15.621094 17.984375 15.535156 17.089844 C 15.5 16.320312 15.1875 15.597656 14.886719 14.957031 C 14.457031 14.230469 14.054688 13.476562 13.902344 12.609375 C 13.820312 12.300781 13.902344 12.003906 13.78125 11.714844 C 13.53125 11.53125 12.691406 12.101562 12.28125 12.191406 C 12.03125 12.402344 11.070312 12.238281 10.527344 12.078125 C 10.144531 11.925781 9.035156 11.488281 9.613281 10.992188 L 9.613281 10.957031 C 10.085938 10.644531 11.328125 10.210938 11.328125 10.085938 C 8.070312 8.519531 4.078125 5.617188 3.59375 5.367188 C 3.390625 5.308594 1.710938 4.859375 0.722656 4.972656 C 0.5 4.917969 0.21875 4.976562 0.0820312 4.734375 C -0.320312 3.9375 0.882812 3.914062 0.882812 3.914062 C 1.222656 3.871094 1.539062 3.828125 1.933594 3.875 L 1.933594 3.890625 C 5.035156 3.894531 8.195312 7.238281 12.113281 8.222656 C 12.597656 8.347656 13.144531 8.476562 13.644531 8.234375 C 14.109375 8.109375 14.546875 7.953125 15.023438 7.808594 C 15.203125 7.757812 15.640625 7.660156 16.144531 7.886719 C 16.589844 7.890625 17.039062 7.761719 17.234375 7.808594 C 17.613281 7.957031 17.835938 7.941406 18.253906 7.753906 C 18.695312 7.894531 19.328125 7.84375 19.492188 7.808594 C 19.847656 7.539062 20.683594 7.933594 21.015625 8 C 21.625 8.152344 22.109375 8.496094 22.769531 8.351562 C 24.570312 7.941406 26.257812 7.054688 27.851562 6.0625 C 28.808594 5.515625 29.824219 4.804688 30.875 4.339844 L 30.890625 4.339844 C 31.6875 4.019531 32.667969 3.890625 33.585938 3.84375 C 33.871094 3.863281 34.753906 3.871094 35 4.308594 Z M 35 4.308594 "/>
</g>
</svg>
