<?xml version="1.0" encoding="UTF-8"?>
<svg xmlns="http://www.w3.org/2000/svg" xmlns:xlink="http://www.w3.org/1999/xlink" width="35pt" height="25pt" viewBox="0 0 35 25" version="1.1">
<g id="surface1">
<path style=" stroke:none;fill-rule:nonzero;fill:rgb(0%,20%,40%);fill-opacity:1;" d="M 29.484375 14.925781 L 27.261719 14.925781 C 27.261719 14.925781 26.648438 14.828125 26.179688 15.585938 L 21.21875 23.355469 C 21.21875 23.355469 20.804688 24.191406 20.316406 23.355469 L 15.179688 14.769531 L 17.773438 11.125 L 20.910156 16.136719 L 23.851562 11.867188 C 23.851562 11.867188 24.308594 11.105469 25.242188 11.105469 L 29.484375 11.105469 Z M 13.964844 13.15625 L 9.207031 5.378906 C 8.878906 4.832031 8.136719 4.890625 8.136719 4.890625 L 5.84375 4.890625 L 5.851562 1.171875 L 10.667969 1.183594 C 11.390625 1.183594 11.84375 2.1875 11.84375 2.1875 L 14.417969 6.488281 L 17.429688 1.980469 C 17.851562 1.058594 18.230469 1.980469 18.230469 1.980469 L 21.011719 6.488281 L 23.894531 2.1875 C 24.546875 1.011719 25.035156 1.183594 25.035156 1.183594 L 29.484375 1.183594 L 29.484375 4.890625 L 27.191406 4.890625 C 26.363281 4.832031 26.179688 5.378906 26.179688 5.378906 L 21.355469 13.15625 C 20.878906 13.886719 20.488281 13.15625 20.488281 13.15625 L 17.851562 8.949219 L 14.796875 13.15625 C 14.261719 13.847656 13.964844 13.15625 13.964844 13.15625 M 24.859375 9.976562 L 26.871094 6.5 C 26.871094 6.5 27.082031 6.027344 27.664062 6.085938 L 30.621094 6.078125 L 30.621094 0.0507812 L 24.980469 0.0507812 C 24.640625 0.109375 23.976562 -0.0351562 23.246094 0.9375 L 21.101562 4.542969 L 18.78125 0.4375 C 18.78125 0.4375 17.9375 -0.546875 16.953125 0.4375 L 14.398438 4.34375 L 12.503906 0.886719 C 12.503906 0.886719 12.042969 0.0351562 10.945312 0.0351562 L 4.753906 0.0351562 L 4.75 6.0625 L 7.578125 6.066406 C 7.578125 6.066406 8.226562 5.914062 8.539062 6.640625 C 8.539062 6.640625 19.757812 24.523438 19.746094 24.523438 C 20.359375 25.175781 21.234375 25.148438 21.714844 24.503906 L 26.636719 16.953125 C 26.636719 16.953125 27.015625 16.054688 27.648438 16.058594 L 30.628906 16.058594 L 30.632812 9.96875 Z M 24.859375 9.976562 "/>
<path style=" stroke:none;fill-rule:nonzero;fill:rgb(100%,80%,0%);fill-opacity:1;" d="M 23.851562 11.867188 L 20.910156 16.136719 L 17.773438 11.125 L 15.179688 14.769531 L 20.316406 23.355469 C 20.804688 24.191406 21.21875 23.355469 21.21875 23.355469 L 26.179688 15.585938 C 26.648438 14.828125 27.261719 14.925781 27.261719 14.925781 L 29.484375 14.925781 L 29.484375 11.105469 L 25.242188 11.105469 C 24.308594 11.105469 23.851562 11.867188 23.851562 11.867188 "/>
<path style=" stroke:none;fill-rule:nonzero;fill:rgb(100%,80%,0%);fill-opacity:1;" d="M 25.035156 1.183594 C 25.035156 1.183594 24.546875 1.011719 23.894531 2.1875 L 21.011719 6.488281 L 18.230469 1.980469 C 18.230469 1.980469 17.851562 1.058594 17.429688 1.980469 L 14.417969 6.488281 L 11.84375 2.1875 C 11.84375 2.1875 11.390625 1.183594 10.667969 1.183594 L 5.851562 1.171875 L 5.84375 4.890625 L 8.136719 4.890625 C 8.136719 4.890625 8.878906 4.832031 9.207031 5.378906 L 13.964844 13.15625 C 13.964844 13.15625 14.261719 13.847656 14.796875 13.15625 L 17.851562 8.949219 L 20.488281 13.15625 C 20.488281 13.15625 20.878906 13.886719 21.355469 13.15625 L 26.179688 5.378906 C 26.179688 5.378906 26.363281 4.832031 27.191406 4.890625 L 29.484375 4.890625 L 29.484375 1.183594 Z M 25.035156 1.183594 "/>
<path style=" stroke:none;fill-rule:nonzero;fill:rgb(0%,20%,40%);fill-opacity:1;" d="M 23.746094 24.253906 L 23.601562 24.253906 L 23.601562 23.984375 L 23.820312 23.984375 C 23.917969 23.984375 24.019531 23.996094 24.019531 24.117188 C 24.019531 24.273438 23.855469 24.253906 23.746094 24.253906 M 24.117188 24.117188 C 24.117188 24.054688 24.085938 23.984375 24.03125 23.953125 C 23.972656 23.917969 23.90625 23.914062 23.84375 23.914062 L 23.507812 23.914062 L 23.507812 24.683594 L 23.601562 24.683594 L 23.601562 24.328125 L 23.773438 24.328125 L 23.992188 24.683594 L 24.105469 24.683594 L 23.875 24.328125 C 24.007812 24.324219 24.117188 24.269531 24.117188 24.117188 "/>
<path style=" stroke:none;fill-rule:nonzero;fill:rgb(0%,20%,40%);fill-opacity:1;" d="M 23.765625 24.902344 C 23.429688 24.902344 23.160156 24.632812 23.160156 24.296875 C 23.160156 23.964844 23.429688 23.695312 23.765625 23.695312 C 24.097656 23.695312 24.367188 23.964844 24.367188 24.296875 C 24.367188 24.632812 24.097656 24.902344 23.765625 24.902344 M 23.765625 23.613281 C 23.382812 23.613281 23.074219 23.921875 23.074219 24.296875 C 23.074219 24.679688 23.382812 24.984375 23.765625 24.984375 C 24.144531 24.984375 24.449219 24.679688 24.449219 24.296875 C 24.449219 23.921875 24.144531 23.613281 23.765625 23.613281 "/>
</g>
</svg>
