<?xml version="1.0" encoding="UTF-8"?>
<svg xmlns="http://www.w3.org/2000/svg" xmlns:xlink="http://www.w3.org/1999/xlink" width="35pt" height="25pt" viewBox="0 0 35 25" version="1.1">
<g id="surface1">
<path style=" stroke:none;fill-rule:evenodd;fill:rgb(100%,100%,100%);fill-opacity:1;" d="M 5.25 25 L 5.25 0 L 30.25 0 L 30.25 25 Z M 5.25 25 "/>
<path style=" stroke:none;fill-rule:evenodd;fill:rgb(64.313725%,61.960784%,47.058824%);fill-opacity:1;" d="M 20.808594 1.101562 L 21.152344 2.425781 C 21.238281 2.863281 21.308594 3.332031 21.359375 3.824219 C 21.515625 5.394531 21.457031 6.933594 21.1875 8.445312 C 20.972656 8.324219 20.753906 8.230469 20.53125 8.152344 L 20.503906 8.140625 L 17.109375 7.539062 C 16.59375 7.46875 16.082031 7.496094 15.554688 7.640625 C 15.21875 7.726562 14.839844 7.882812 14.425781 8.097656 L 12.878906 7.710938 C 12.664062 7.640625 12.410156 7.597656 12.117188 7.597656 C 11.746094 7.605469 11.402344 7.675781 11.082031 7.8125 C 10.46875 8.082031 10.019531 8.558594 9.761719 9.246094 C 9.390625 10.222656 9.390625 11.019531 9.734375 11.632812 L 9.847656 11.796875 C 9.183594 12.382812 8.628906 13.058594 8.1875 13.835938 C 7.644531 14.808594 7.308594 15.917969 7.179688 17.144531 L 7.152344 17.6875 C 7.152344 18.367188 7.28125 19.035156 7.53125 19.671875 C 7.792969 20.320312 8.152344 20.910156 8.644531 21.445312 C 9.347656 22.210938 10.210938 22.816406 11.246094 23.25 C 12.273438 23.679688 13.363281 23.898438 14.503906 23.898438 C 15.773438 23.886719 17.023438 23.636719 18.277344 23.136719 C 19.21875 22.765625 20.125 22.265625 20.988281 21.632812 L 24.6875 21.632812 C 25.367188 21.632812 25.914062 21.359375 26.335938 20.796875 C 26.5 20.582031 26.65625 20.304688 26.800781 19.984375 L 27.148438 19.113281 L 28.347656 15.320312 L 23.121094 15.320312 C 23.304688 15.164062 23.476562 15 23.632812 14.835938 L 23.898438 14.886719 C 24.488281 15.007812 24.980469 15.027344 25.378906 14.949219 C 26.109375 14.820312 26.664062 14.386719 27.042969 13.679688 C 27.191406 13.375 27.269531 13.074219 27.269531 12.746094 C 27.269531 12.476562 27.214844 12.210938 27.105469 11.960938 C 26.886719 11.484375 26.558594 11.183594 26.109375 11.070312 L 25.59375 10.933594 C 26.015625 9.179688 26 7.546875 25.523438 6.027344 C 25.214844 5.023438 24.71875 4.125 24.046875 3.355469 C 23.363281 2.578125 22.535156 1.949219 21.550781 1.464844 Z M 20.808594 1.101562 "/>
<path style=" stroke:none;fill-rule:evenodd;fill:rgb(21.176471%,42.352941%,24.705882%);fill-opacity:1;" d="M 21.386719 1.792969 C 22.222656 2.207031 22.949219 2.734375 23.554688 3.375 C 24.160156 4.015625 24.625 4.738281 24.960938 5.550781 C 25.652344 7.253906 25.714844 9.136719 25.136719 11.199219 L 26.015625 11.433594 C 26.1875 11.476562 26.34375 11.5625 26.492188 11.699219 C 26.621094 11.839844 26.722656 12.003906 26.800781 12.203125 C 26.964844 12.644531 26.941406 13.074219 26.714844 13.507812 C 26.386719 14.136719 25.894531 14.507812 25.230469 14.601562 C 24.910156 14.65625 24.460938 14.621094 23.898438 14.515625 L 23.511719 14.4375 C 23.085938 14.90625 22.585938 15.3125 22.007812 15.65625 L 27.90625 15.65625 L 27.078125 18.195312 C 26.871094 18.828125 26.6875 19.300781 26.558594 19.621094 C 26.386719 20.027344 26.222656 20.339844 26.058594 20.5625 C 25.878906 20.804688 25.679688 20.96875 25.460938 21.082031 C 25.238281 21.183594 24.96875 21.238281 24.652344 21.238281 L 20.902344 21.238281 C 20.054688 21.859375 19.175781 22.367188 18.25 22.75 C 17 23.265625 15.753906 23.515625 14.503906 23.527344 C 13.527344 23.527344 12.601562 23.363281 11.703125 23.035156 C 10.832031 22.714844 10.070312 22.265625 9.414062 21.6875 C 8.75 21.097656 8.257812 20.425781 7.929688 19.671875 C 7.59375 18.878906 7.460938 18.050781 7.550781 17.175781 C 7.671875 15.925781 8.042969 14.792969 8.644531 13.800781 C 9.113281 13.039062 9.691406 12.390625 10.398438 11.832031 C 10.132812 11.625 9.96875 11.347656 9.890625 11 C 9.796875 10.550781 9.863281 10.015625 10.105469 9.378906 C 10.375 8.667969 10.855469 8.21875 11.539062 8.046875 C 11.789062 7.976562 12.039062 7.960938 12.300781 7.976562 C 12.507812 7.988281 12.664062 8.019531 12.785156 8.066406 L 14.46875 8.496094 C 14.890625 8.273438 15.253906 8.117188 15.554688 8.03125 C 16.074219 7.875 16.574219 7.832031 17.066406 7.910156 L 20.417969 8.503906 C 20.832031 8.632812 21.171875 8.84375 21.429688 9.109375 C 22.027344 6.414062 22.007812 3.980469 21.386719 1.792969 Z M 21.386719 1.792969 "/>
<path style=" stroke:none;fill-rule:evenodd;fill:rgb(64.313725%,61.960784%,47.058824%);fill-opacity:1;" d="M 11.972656 8.582031 C 11.746094 8.53125 11.523438 8.601562 11.296875 8.789062 C 11.082031 8.980469 10.910156 9.257812 10.769531 9.609375 C 10.625 9.964844 10.582031 10.300781 10.625 10.613281 C 10.675781 10.921875 10.796875 11.113281 10.996094 11.199219 L 11.195312 11.226562 L 11.210938 11.234375 C 11.488281 11.21875 11.746094 11.042969 11.996094 10.699219 L 14.253906 11.140625 L 14.339844 11.042969 C 14.433594 10.941406 14.519531 10.804688 14.605469 10.621094 L 14.691406 10.40625 L 14.734375 10.265625 L 14.746094 10.191406 L 12.402344 9.636719 C 12.4375 9.378906 12.414062 9.152344 12.34375 8.964844 C 12.273438 8.765625 12.160156 8.644531 12.007812 8.589844 Z M 11.972656 8.582031 "/>
<path style=" stroke:none;fill-rule:evenodd;fill:rgb(64.313725%,61.960784%,47.058824%);fill-opacity:1;" d="M 25.886719 12.859375 L 25.914062 12.761719 L 24.609375 12.476562 L 24.589844 12.476562 L 24.582031 12.488281 C 24.425781 12.753906 24.28125 12.996094 24.132812 13.195312 L 24.117188 13.210938 L 25.410156 13.507812 C 25.601562 13.375 25.757812 13.160156 25.886719 12.859375 Z M 25.886719 12.859375 "/>
<path style=" stroke:none;fill-rule:evenodd;fill:rgb(0%,0%,0%);fill-opacity:1;" d="M 11.210938 11.234375 L 13.207031 11.597656 C 13.621094 11.5625 13.976562 11.414062 14.25 11.140625 L 11.996094 10.699219 C 11.746094 11.042969 11.488281 11.21875 11.210938 11.234375 Z M 11.210938 11.234375 "/>
<path style=" stroke:none;fill-rule:evenodd;fill:rgb(0%,0%,0%);fill-opacity:1;" d="M 21.886719 11.097656 L 22.441406 11.234375 C 23.511719 8.332031 23.527344 5.6875 22.492188 3.332031 C 22.890625 6.226562 22.683594 8.816406 21.886719 11.097656 Z M 21.886719 11.097656 "/>
<path style=" stroke:none;fill-rule:evenodd;fill:rgb(0%,0%,0%);fill-opacity:1;" d="M 25.410156 13.507812 L 24.117188 13.210938 L 23.839844 13.550781 L 24.824219 13.730469 C 25.058594 13.695312 25.257812 13.617188 25.410156 13.507812 Z M 25.410156 13.507812 "/>
<path style=" stroke:none;fill-rule:evenodd;fill:rgb(0%,0%,0%);fill-opacity:1;" d="M 18.449219 10.707031 C 17.863281 10.847656 17.507812 10.75 17.40625 10.421875 L 17.34375 10.527344 C 17.273438 10.613281 17.195312 10.691406 17.121094 10.75 C 16.84375 10.976562 16.488281 11.0625 16.066406 11.019531 C 16.109375 11.328125 16.34375 11.691406 16.765625 12.089844 C 15.269531 12.253906 14.027344 12.839844 13.035156 13.851562 C 13.371094 13.644531 13.726562 13.453125 14.105469 13.289062 C 15.546875 12.652344 16.808594 12.617188 17.878906 13.195312 C 17.863281 12.875 18.085938 12.625 18.554688 12.460938 C 18.378906 12.433594 18.207031 12.367188 18.042969 12.261719 C 17.871094 12.160156 17.734375 12.039062 17.628906 11.882812 C 17.515625 11.726562 17.464844 11.570312 17.472656 11.414062 C 17.472656 11.242188 17.558594 11.085938 17.714844 10.949219 C 18.199219 11.085938 18.640625 11.304688 19.019531 11.589844 C 19.441406 11.910156 19.667969 12.21875 19.675781 12.523438 C 19.683594 12.589844 19.675781 12.652344 19.660156 12.703125 L 19.632812 12.78125 L 20.980469 13.03125 C 20.316406 14.230469 19.753906 15.128906 19.296875 15.71875 C 20.152344 14.949219 20.894531 14.085938 21.515625 13.125 L 21.6875 13.160156 C 21.992188 13.167969 22.257812 13.03125 22.5 12.738281 L 20.316406 12.339844 C 19.890625 12.175781 19.640625 11.96875 19.554688 11.703125 C 19.511719 11.5625 19.503906 11.449219 19.539062 11.347656 C 19.011719 11.355469 18.648438 11.140625 18.449219 10.707031 Z M 18.449219 10.707031 "/>
<path style=" stroke:none;fill-rule:evenodd;fill:rgb(100%,100%,100%);fill-opacity:1;" d="M 12.34375 8.964844 C 12.410156 9.152344 12.4375 9.378906 12.402344 9.636719 L 14.746094 10.1875 C 14.777344 9.835938 14.640625 9.488281 14.3125 9.179688 L 13.144531 8.886719 L 12.015625 8.601562 C 12.160156 8.644531 12.273438 8.765625 12.34375 8.964844 Z M 12.34375 8.964844 "/>
<path style=" stroke:none;fill-rule:evenodd;fill:rgb(64.313725%,61.960784%,47.058824%);fill-opacity:1;" d="M 11.515625 20.363281 C 11.097656 19.925781 10.8125 19.398438 10.667969 18.808594 L 9.527344 18.808594 C 9.820312 19.792969 10.417969 20.605469 11.296875 21.246094 C 12.28125 21.953125 13.484375 22.316406 14.890625 22.332031 C 15.519531 22.316406 16.109375 22.273438 16.660156 22.179688 C 17.765625 21.988281 18.949219 21.601562 20.1875 21.019531 C 18.449219 21.582031 16.886719 21.839844 15.488281 21.816406 C 14.183594 21.789062 13.113281 21.503906 12.273438 20.976562 L 11.289062 20.976562 Z M 11.515625 20.363281 "/>
<path style=" stroke:none;fill-rule:evenodd;fill:rgb(64.313725%,61.960784%,47.058824%);fill-opacity:1;" d="M 20.375 9.816406 C 20.46875 9.4375 20.230469 9.195312 19.632812 9.066406 C 18.949219 8.917969 17.949219 8.78125 16.628906 8.632812 C 15.917969 8.679688 15.402344 8.832031 15.082031 9.09375 L 15.304688 9.480469 L 15.347656 9.585938 L 15.410156 9.90625 L 15.402344 10.214844 L 15.355469 10.464844 L 15.289062 10.691406 L 15.246094 10.828125 L 15.097656 11.128906 L 15.027344 11.242188 C 14.976562 11.339844 14.898438 11.433594 14.804688 11.546875 L 14.597656 11.746094 L 14.441406 11.867188 L 14.199219 12.011719 L 14.078125 12.074219 L 14.070312 12.074219 C 13.785156 12.195312 13.464844 12.253906 13.128906 12.253906 L 12.171875 12.917969 C 11.679688 13.265625 11.253906 13.617188 10.917969 13.957031 C 9.882812 15.007812 9.355469 16.226562 9.347656 17.59375 C 9.347656 17.816406 9.363281 18.03125 9.398438 18.257812 L 10.554688 17.445312 C 10.675781 15.992188 11.496094 14.792969 13.035156 13.851562 C 14.027344 12.839844 15.269531 12.253906 16.765625 12.089844 C 16.34375 11.691406 16.109375 11.328125 16.066406 11.019531 C 16.488281 11.0625 16.84375 10.976562 17.121094 10.75 C 17.195312 10.691406 17.273438 10.613281 17.34375 10.527344 L 17.40625 10.421875 C 17.507812 10.75 17.863281 10.847656 18.449219 10.707031 C 18.648438 11.140625 19.011719 11.355469 19.539062 11.347656 C 19.503906 11.449219 19.511719 11.5625 19.554688 11.699219 C 19.640625 11.96875 19.890625 12.175781 20.316406 12.339844 L 22.5 12.738281 C 22.257812 13.03125 21.992188 13.167969 21.6875 13.160156 L 21.515625 13.125 C 20.894531 14.085938 20.152344 14.949219 19.296875 15.71875 C 20.789062 15.113281 21.9375 14.136719 22.757812 12.78125 L 23.363281 11.484375 L 23.363281 11.476562 C 24.695312 7.988281 24.402344 5.265625 22.492188 3.332031 C 23.527344 5.6875 23.511719 8.332031 22.441406 11.234375 L 22.605469 11.277344 C 22.777344 11.320312 22.890625 11.441406 22.941406 11.65625 L 21.308594 11.277344 L 21.414062 10.976562 L 21.421875 10.914062 L 21.421875 10.890625 C 21.472656 10.320312 21.128906 9.957031 20.375 9.816406 Z M 20.375 9.816406 "/>
<path style=" stroke:none;fill-rule:evenodd;fill:rgb(100%,100%,100%);fill-opacity:1;" d="M 17.128906 9.742188 C 17.195312 9.472656 17.1875 9.292969 17.101562 9.214844 C 16.9375 9.050781 16.722656 9.03125 16.445312 9.152344 C 16.550781 9.421875 16.550781 9.730469 16.460938 10.085938 C 16.507812 10.207031 16.609375 10.25 16.78125 10.214844 C 16.9375 10.179688 17.058594 10.023438 17.128906 9.742188 Z M 17.128906 9.742188 "/>
<path style=" stroke:none;fill-rule:evenodd;fill:rgb(100%,100%,100%);fill-opacity:1;" d="M 19.726562 10.257812 C 19.832031 9.992188 19.847656 9.785156 19.769531 9.652344 C 19.726562 9.578125 19.625 9.523438 19.460938 9.480469 L 19.167969 9.445312 C 19.191406 9.75 19.097656 10.09375 18.863281 10.484375 C 18.882812 10.550781 18.949219 10.613281 19.082031 10.664062 C 19.183594 10.714844 19.269531 10.742188 19.320312 10.726562 C 19.484375 10.691406 19.625 10.542969 19.726562 10.257812 Z M 19.726562 10.257812 "/>
<path style=" stroke:none;fill-rule:evenodd;fill:rgb(100%,100%,100%);fill-opacity:1;" d="M 19.980469 11.269531 C 20.03125 11.328125 20.097656 11.363281 20.175781 11.382812 C 20.402344 11.425781 20.601562 11.285156 20.773438 10.957031 C 20.867188 10.769531 20.902344 10.621094 20.867188 10.527344 C 20.824219 10.398438 20.660156 10.308594 20.359375 10.265625 C 20.332031 10.519531 20.1875 10.792969 19.933594 11.105469 C 19.917969 11.15625 19.933594 11.21875 19.980469 11.269531 Z M 19.980469 11.269531 "/>
<path style=" stroke:none;fill-rule:evenodd;fill:rgb(100%,100%,100%);fill-opacity:1;" d="M 18.492188 9.816406 C 18.542969 9.578125 18.527344 9.410156 18.449219 9.324219 C 18.398438 9.28125 18.199219 9.25 17.84375 9.214844 C 17.828125 9.652344 17.757812 9.949219 17.644531 10.113281 C 17.757812 10.292969 17.929688 10.34375 18.171875 10.277344 C 18.328125 10.222656 18.441406 10.070312 18.492188 9.816406 Z M 18.492188 9.816406 "/>
<path style=" stroke:none;fill-rule:evenodd;fill:rgb(100%,100%,100%);fill-opacity:1;" d="M 22.492188 3.332031 C 24.574219 5.4375 24.761719 8.394531 23.070312 12.175781 C 22.335938 13.816406 21.085938 14.992188 19.296875 15.71875 C 19.988281 15.570312 20.667969 15.304688 21.34375 14.898438 C 22.335938 14.308594 23.113281 13.53125 23.675781 12.582031 C 25.957031 8.710938 25.558594 5.628906 22.492188 3.332031 Z M 22.492188 3.332031 "/>
<path style=" stroke:none;fill-rule:evenodd;fill:rgb(100%,100%,100%);fill-opacity:1;" d="M 22.605469 11.277344 L 21.414062 10.976562 L 21.308594 11.277344 L 22.941406 11.65625 C 22.890625 11.441406 22.777344 11.320312 22.605469 11.277344 Z M 22.605469 11.277344 "/>
<path style=" stroke:none;fill-rule:evenodd;fill:rgb(100%,100%,100%);fill-opacity:1;" d="M 25.886719 12.304688 C 25.816406 12.175781 25.730469 12.089844 25.609375 12.054688 L 24.894531 11.882812 L 24.589844 12.476562 L 25.914062 12.761719 C 25.972656 12.609375 25.964844 12.453125 25.886719 12.304688 Z M 25.886719 12.304688 "/>
<path style=" stroke:none;fill-rule:evenodd;fill:rgb(0%,0%,0%);fill-opacity:1;" d="M 11.453125 11.996094 C 11.097656 12.253906 10.855469 12.433594 10.726562 12.539062 C 10.375 12.832031 10.054688 13.132812 9.785156 13.453125 C 8.992188 14.378906 8.492188 15.46875 8.285156 16.710938 C 8.136719 17.660156 8.238281 18.550781 8.601562 19.371094 C 8.914062 20.089844 9.421875 20.734375 10.105469 21.28125 C 10.71875 21.773438 11.410156 22.160156 12.203125 22.4375 C 12.929688 22.695312 13.628906 22.824219 14.285156 22.824219 C 16.679688 22.824219 18.65625 22.222656 20.1875 21.019531 C 18.734375 21.703125 17.351562 22.117188 16.058594 22.273438 C 14.890625 22.402344 13.828125 22.324219 12.871094 22.023438 C 12.007812 21.753906 11.273438 21.3125 10.675781 20.71875 C 10.125 20.164062 9.742188 19.527344 9.519531 18.808594 L 8.601562 18.808594 L 9.398438 18.257812 C 9.363281 18.03125 9.347656 17.816406 9.347656 17.589844 C 9.355469 16.226562 9.882812 15.007812 10.917969 13.957031 C 11.253906 13.617188 11.679688 13.265625 12.171875 12.917969 L 13.128906 12.253906 L 12.445312 12.191406 Z M 11.453125 11.996094 "/>
<path style=" stroke:none;fill-rule:evenodd;fill:rgb(100%,100%,100%);fill-opacity:1;" d="M 11.964844 19.199219 L 11.816406 18.808594 L 10.667969 18.808594 C 10.8125 19.398438 11.097656 19.925781 11.515625 20.363281 Z M 11.964844 19.199219 "/>
<path style=" stroke:none;fill-rule:evenodd;fill:rgb(100%,100%,100%);fill-opacity:1;" d="M 18.042969 12.261719 C 18.207031 12.367188 18.378906 12.433594 18.554688 12.460938 C 18.085938 12.625 17.863281 12.875 17.878906 13.195312 C 16.808594 12.617188 15.546875 12.652344 14.105469 13.289062 C 13.050781 13.757812 12.222656 14.335938 11.625 15.007812 C 10.988281 15.734375 10.632812 16.546875 10.554688 17.445312 L 11.9375 16.484375 C 12.007812 16.3125 12.085938 16.15625 12.171875 16.027344 C 12.730469 15.199219 13.628906 14.636719 14.875 14.351562 C 15.660156 14.164062 16.445312 14.109375 17.214844 14.171875 C 17.886719 14.230469 18.449219 14.101562 18.898438 13.792969 C 19.277344 13.523438 19.539062 13.160156 19.660156 12.703125 C 19.753906 12.382812 19.574219 12.039062 19.125 11.675781 C 18.726562 11.347656 18.257812 11.105469 17.714844 10.949219 C 17.558594 11.085938 17.472656 11.242188 17.472656 11.414062 C 17.464844 11.570312 17.515625 11.726562 17.628906 11.882812 C 17.734375 12.039062 17.871094 12.160156 18.042969 12.261719 Z M 18.042969 12.261719 "/>
<path style=" stroke:none;fill-rule:evenodd;fill:rgb(100%,100%,100%);fill-opacity:1;" d="M 14.910156 21.238281 C 14.5625 21.195312 14.21875 21.105469 13.890625 20.984375 L 12.273438 20.976562 C 13.113281 21.503906 14.183594 21.789062 15.488281 21.816406 C 16.886719 21.839844 18.449219 21.582031 20.1875 21.019531 C 18.347656 21.410156 16.585938 21.488281 14.910156 21.238281 Z M 14.910156 21.238281 "/>
<path style=" stroke:none;fill-rule:evenodd;fill:rgb(100%,100%,100%);fill-opacity:1;" d="M 14.042969 16.003906 L 14.960938 14.898438 L 9.984375 18.335938 L 10.933594 18.007812 L 13.308594 18.007812 L 12.816406 18.335938 L 12.515625 19.136719 L 13.101562 18.808594 L 13.398438 18.007812 L 14.242188 18.007812 L 15.054688 17.679688 L 13.976562 17.679688 L 13.398438 17.996094 Z M 13.855469 16.046875 L 13.449219 16.632812 L 13.070312 17.679688 L 12.039062 17.679688 L 11.253906 17.824219 Z M 13.855469 16.046875 "/>
<path style=" stroke:none;fill-rule:evenodd;fill:rgb(64.313725%,61.960784%,47.058824%);fill-opacity:1;" d="M 12.515625 19.136719 L 13.421875 19.136719 L 13.726562 18.335938 L 14.40625 18.335938 L 15.054688 17.679688 L 14.242188 18.007812 L 13.398438 18.007812 L 13.101562 18.808594 Z M 12.515625 19.136719 "/>
<path style=" stroke:none;fill-rule:evenodd;fill:rgb(64.313725%,61.960784%,47.058824%);fill-opacity:1;" d="M 13.976562 17.679688 L 14.960938 14.898438 L 14.042969 16.003906 L 13.398438 17.996094 Z M 13.976562 17.679688 "/>
<path style=" stroke:none;fill-rule:evenodd;fill:rgb(64.313725%,61.960784%,47.058824%);fill-opacity:1;" d="M 9.984375 18.335938 L 12.816406 18.335938 L 13.308594 18.007812 L 10.933594 18.007812 Z M 9.984375 18.335938 "/>
<path style=" stroke:none;fill-rule:evenodd;fill:rgb(64.313725%,61.960784%,47.058824%);fill-opacity:1;" d="M 12.039062 17.679688 L 13.441406 16.632812 L 13.855469 16.046875 L 11.253906 17.824219 Z M 12.039062 17.679688 "/>
<path style=" stroke:none;fill-rule:evenodd;fill:rgb(100%,100%,100%);fill-opacity:1;" d="M 17.828125 15.855469 L 17.84375 15.871094 C 17.949219 16.019531 17.957031 16.183594 17.886719 16.375 C 17.808594 16.574219 17.671875 16.746094 17.472656 16.875 C 17.265625 17.011719 17.050781 17.082031 16.835938 17.082031 C 16.601562 17.082031 16.445312 17.003906 16.34375 16.867188 L 16.324219 16.832031 L 15.753906 17.210938 C 15.804688 17.289062 15.902344 17.351562 16.058594 17.410156 C 16.230469 17.472656 16.421875 17.496094 16.636719 17.488281 C 17.199219 17.480469 17.734375 17.246094 18.25 16.804688 C 18.621094 16.3125 18.648438 15.90625 18.304688 15.585938 L 17.835938 15.863281 Z M 17.828125 15.855469 "/>
<path style=" stroke:none;fill-rule:evenodd;fill:rgb(100%,100%,100%);fill-opacity:1;" d="M 18.839844 15.242188 L 18.8125 15.214844 C 18.578125 14.984375 18.191406 14.871094 17.644531 14.871094 C 17.121094 14.871094 16.628906 14.992188 16.167969 15.242188 C 15.652344 15.527344 15.296875 15.914062 15.105469 16.410156 C 14.960938 16.824219 14.976562 17.167969 15.167969 17.445312 L 15.238281 17.53125 L 15.753906 17.210938 C 15.597656 16.867188 15.597656 16.546875 15.746094 16.242188 C 15.894531 15.96875 16.152344 15.726562 16.53125 15.527344 C 17.242188 15.15625 17.835938 15.171875 18.304688 15.585938 Z M 18.839844 15.242188 "/>
<path style=" stroke:none;fill-rule:evenodd;fill:rgb(100%,100%,100%);fill-opacity:1;" d="M 16.765625 17.757812 L 14.996094 19.101562 L 16.058594 18.773438 C 16.59375 18.359375 17.09375 17.9375 17.542969 17.523438 C 17.273438 17.625 17.007812 17.695312 16.765625 17.757812 Z M 16.765625 17.757812 "/>
<path style=" stroke:none;fill-rule:evenodd;fill:rgb(64.313725%,61.960784%,47.058824%);fill-opacity:1;" d="M 17.835938 15.863281 L 18.304688 15.585938 C 17.835938 15.171875 17.242188 15.15625 16.53125 15.527344 C 16.152344 15.726562 15.894531 15.96875 15.746094 16.242188 C 15.597656 16.546875 15.597656 16.867188 15.753906 17.210938 L 16.324219 16.832031 C 16.136719 16.527344 16.253906 16.210938 16.679688 15.882812 C 17.164062 15.535156 17.542969 15.535156 17.835938 15.863281 Z M 17.835938 15.863281 "/>
<path style=" stroke:none;fill-rule:evenodd;fill:rgb(64.313725%,61.960784%,47.058824%);fill-opacity:1;" d="M 18.839844 15.242188 L 18.304688 15.585938 C 18.648438 15.90625 18.621094 16.3125 18.25 16.804688 C 17.734375 17.246094 17.195312 17.480469 16.636719 17.488281 C 16.421875 17.496094 16.230469 17.472656 16.058594 17.410156 C 15.902344 17.351562 15.808594 17.289062 15.753906 17.210938 L 15.238281 17.53125 C 15.453125 17.789062 15.859375 17.886719 16.445312 17.808594 C 16.800781 17.765625 17.152344 17.667969 17.542969 17.523438 C 17.09375 17.9375 16.59375 18.359375 16.058594 18.773438 L 14.996094 19.101562 L 16.246094 19.101562 L 17.886719 17.765625 C 18.292969 17.402344 18.605469 17.054688 18.804688 16.726562 C 19.175781 16.132812 19.183594 15.640625 18.839844 15.242188 Z M 18.839844 15.242188 "/>
<path style=" stroke:none;fill-rule:evenodd;fill:rgb(100%,100%,100%);fill-opacity:1;" d="M 19.546875 16.296875 L 18.5 19.113281 L 19.125 18.773438 L 20.117188 18.773438 L 20.523438 18.488281 L 19.554688 18.488281 L 19.15625 18.722656 L 19.546875 17.695312 L 20.445312 17.695312 L 20.886719 17.394531 L 20.886719 17.382812 L 19.96875 17.382812 L 19.96875 17.394531 L 19.5625 17.609375 L 19.933594 16.605469 L 20.980469 16.605469 L 21.34375 16.296875 Z M 19.546875 16.296875 "/>
<path style=" stroke:none;fill-rule:evenodd;fill:rgb(64.313725%,61.960784%,47.058824%);fill-opacity:1;" d="M 20.660156 18.007812 L 20.886719 17.394531 L 20.445312 17.695312 L 19.546875 17.695312 L 19.15625 18.722656 L 19.554688 18.488281 L 19.746094 18.007812 Z M 20.660156 18.007812 "/>
<path style=" stroke:none;fill-rule:evenodd;fill:rgb(64.313725%,61.960784%,47.058824%);fill-opacity:1;" d="M 21.109375 16.917969 L 21.34375 16.296875 L 20.980469 16.605469 L 19.933594 16.605469 L 19.5625 17.609375 L 19.96875 17.394531 L 20.132812 16.917969 Z M 21.109375 16.917969 "/>
<path style=" stroke:none;fill-rule:evenodd;fill:rgb(64.313725%,61.960784%,47.058824%);fill-opacity:1;" d="M 20.117188 18.773438 L 19.125 18.773438 L 18.5 19.113281 L 20.296875 19.113281 L 20.523438 18.488281 Z M 20.117188 18.773438 "/>
<path style=" stroke:none;fill-rule:evenodd;fill:rgb(100%,100%,100%);fill-opacity:1;" d="M 23.710938 16.425781 C 23.5625 16.355469 23.371094 16.320312 23.148438 16.320312 L 21.929688 16.320312 L 20.886719 19.136719 L 21.488281 18.84375 L 21.851562 17.832031 L 22.5 17.832031 L 22.113281 18.050781 L 22.113281 18.058594 L 22.484375 19.136719 C 22.648438 19.050781 22.804688 18.972656 22.96875 18.886719 L 22.519531 17.832031 C 22.785156 17.808594 23.011719 17.746094 23.164062 17.652344 C 23.328125 17.546875 23.460938 17.410156 23.546875 17.210938 C 23.65625 16.96875 23.589844 16.796875 23.339844 16.683594 L 23 16.953125 C 23.085938 17.011719 23.105469 17.109375 23.054688 17.230469 C 22.964844 17.460938 22.734375 17.582031 22.351562 17.582031 L 22.277344 17.582031 L 22.265625 17.589844 L 21.871094 17.808594 L 22.308594 16.632812 L 22.941406 16.632812 C 23.148438 16.632812 23.285156 16.648438 23.339844 16.683594 L 23.699219 16.425781 Z M 23.710938 16.425781 "/>
<path style=" stroke:none;fill-rule:evenodd;fill:rgb(64.313725%,61.960784%,47.058824%);fill-opacity:1;" d="M 21.851562 17.832031 L 21.488281 18.84375 L 20.886719 19.136719 L 21.714844 19.136719 L 22.113281 18.050781 L 22.5 17.832031 Z M 21.851562 17.832031 "/>
<path style=" stroke:none;fill-rule:evenodd;fill:rgb(64.313725%,61.960784%,47.058824%);fill-opacity:1;" d="M 23.339844 16.683594 C 23.589844 16.796875 23.65625 16.96875 23.546875 17.210938 C 23.460938 17.410156 23.328125 17.546875 23.164062 17.652344 C 23.011719 17.746094 22.785156 17.808594 22.519531 17.832031 L 22.96875 18.886719 C 22.804688 18.972656 22.648438 19.050781 22.484375 19.136719 L 23.503906 19.136719 L 22.941406 17.980469 C 23.277344 17.953125 23.554688 17.78125 23.789062 17.460938 C 24.160156 16.910156 24.132812 16.5625 23.703125 16.425781 Z M 23.339844 16.683594 "/>
<path style=" stroke:none;fill-rule:evenodd;fill:rgb(64.313725%,61.960784%,47.058824%);fill-opacity:1;" d="M 22.535156 16.882812 L 22.691406 16.882812 C 22.855469 16.890625 22.96875 16.917969 23 16.953125 L 23.339844 16.683594 C 23.285156 16.648438 23.148438 16.632812 22.941406 16.632812 L 22.3125 16.632812 L 21.871094 17.808594 L 22.277344 17.582031 Z M 22.535156 16.882812 "/>
<path style=" stroke:none;fill-rule:evenodd;fill:rgb(100%,100%,100%);fill-opacity:1;" d="M 26.164062 16.667969 L 26.707031 16.53125 C 26.464844 16.382812 26.164062 16.304688 25.808594 16.304688 C 25.488281 16.304688 25.195312 16.390625 24.925781 16.5625 C 24.660156 16.738281 24.46875 16.960938 24.367188 17.246094 C 24.28125 17.496094 24.289062 17.679688 24.390625 17.800781 L 24.832031 17.503906 C 24.796875 17.117188 24.960938 16.847656 25.316406 16.695312 C 25.464844 16.640625 25.609375 16.605469 25.773438 16.605469 C 25.921875 16.597656 26.050781 16.625 26.164062 16.667969 Z M 26.164062 16.667969 "/>
<path style=" stroke:none;fill-rule:evenodd;fill:rgb(100%,100%,100%);fill-opacity:1;" d="M 25.246094 17.230469 L 25.230469 17.238281 L 24.832031 17.503906 C 24.875 17.589844 24.996094 17.660156 25.1875 17.722656 C 25.496094 17.816406 25.6875 17.9375 25.738281 18.050781 L 26.1875 17.753906 C 26.101562 17.632812 25.945312 17.546875 25.714844 17.46875 L 25.523438 17.417969 C 25.359375 17.359375 25.265625 17.296875 25.246094 17.238281 Z M 25.246094 17.230469 "/>
<path style=" stroke:none;fill-rule:evenodd;fill:rgb(100%,100%,100%);fill-opacity:1;" d="M 25.308594 18.351562 L 25.308594 18.367188 C 25.273438 18.457031 25.203125 18.523438 25.101562 18.578125 C 25.003906 18.628906 24.910156 18.644531 24.796875 18.644531 C 24.574219 18.644531 24.367188 18.550781 24.183594 18.351562 L 23.613281 18.949219 L 24.210938 18.851562 C 24.359375 18.929688 24.53125 18.972656 24.71875 18.972656 C 24.902344 18.980469 25.074219 18.949219 25.238281 18.871094 C 25.410156 18.800781 25.539062 18.6875 25.636719 18.558594 C 25.730469 18.414062 25.765625 18.238281 25.738281 18.050781 Z M 25.308594 18.351562 "/>
<path style=" stroke:none;fill-rule:evenodd;fill:rgb(64.313725%,61.960784%,47.058824%);fill-opacity:1;" d="M 26.171875 17.097656 L 26.707031 16.53125 L 26.164062 16.667969 C 26.050781 16.625 25.921875 16.597656 25.773438 16.605469 C 25.609375 16.605469 25.464844 16.640625 25.316406 16.695312 C 24.960938 16.847656 24.796875 17.117188 24.832031 17.503906 L 25.246094 17.230469 C 25.238281 17.175781 25.257812 17.125 25.316406 17.074219 C 25.367188 17.011719 25.4375 16.96875 25.523438 16.945312 C 25.75 16.875 25.964844 16.925781 26.171875 17.097656 Z M 26.171875 17.097656 "/>
<path style=" stroke:none;fill-rule:evenodd;fill:rgb(64.313725%,61.960784%,47.058824%);fill-opacity:1;" d="M 24.390625 17.800781 C 24.488281 17.910156 24.652344 17.988281 24.894531 18.050781 C 25.222656 18.117188 25.359375 18.222656 25.308594 18.351562 L 25.738281 18.050781 C 25.6875 17.9375 25.496094 17.816406 25.1875 17.722656 C 24.996094 17.660156 24.875 17.59375 24.832031 17.503906 Z M 24.390625 17.800781 "/>
<path style=" stroke:none;fill-rule:evenodd;fill:rgb(64.313725%,61.960784%,47.058824%);fill-opacity:1;" d="M 26.078125 18.515625 C 26.171875 18.367188 26.222656 18.222656 26.25 18.085938 C 26.265625 17.9375 26.25 17.832031 26.1875 17.757812 L 25.738281 18.050781 C 25.765625 18.238281 25.730469 18.414062 25.636719 18.558594 C 25.539062 18.6875 25.410156 18.800781 25.238281 18.871094 C 25.074219 18.949219 24.902344 18.980469 24.71875 18.972656 C 24.53125 18.972656 24.359375 18.929688 24.210938 18.851562 L 23.613281 18.949219 C 24.019531 19.277344 24.53125 19.355469 25.152344 19.191406 C 25.550781 19.101562 25.851562 18.878906 26.078125 18.515625 Z M 26.078125 18.515625 "/>
<path style=" stroke:none;fill-rule:evenodd;fill:rgb(100%,100%,100%);fill-opacity:1;" d="M 11.996094 20.546875 L 12.800781 20.132812 L 24.566406 20.132812 L 25.816406 19.683594 L 12.335938 19.683594 L 11.988281 20.546875 Z M 11.996094 20.546875 "/>
<path style=" stroke:none;fill-rule:evenodd;fill:rgb(64.313725%,61.960784%,47.058824%);fill-opacity:1;" d="M 24.53125 20.546875 C 24.894531 20.546875 25.203125 20.417969 25.464844 20.164062 C 25.550781 20.089844 25.671875 19.925781 25.816406 19.683594 L 24.566406 20.132812 L 12.800781 20.132812 L 11.996094 20.546875 Z M 24.53125 20.546875 "/>
</g>
</svg>
