<?xml version="1.0" encoding="UTF-8"?>
<svg xmlns="http://www.w3.org/2000/svg" xmlns:xlink="http://www.w3.org/1999/xlink" width="35pt" height="25pt" viewBox="0 0 35 25" version="1.1">
<g id="surface1">
<path style=" stroke:none;fill-rule:nonzero;fill:rgb(78.431373%,79.607843%,80.392157%);fill-opacity:1;" d="M 0.628906 8.417969 C 0.160156 7.84375 0.03125 7.257812 0.0078125 7.113281 C -0.0390625 6.835938 0.117188 6.445312 0.546875 6.445312 C 0.636719 6.445312 0.710938 6.46875 0.753906 6.484375 C 0.804688 6.5 0.847656 6.519531 0.847656 6.519531 C 0.847656 6.519531 1.402344 6.816406 3.773438 7.316406 C 5.039062 7.585938 12.695312 7.472656 14.101562 7.449219 L 14.519531 6.988281 L 19.078125 6.953125 L 19.570312 7.542969 C 21.03125 7.582031 29.011719 7.769531 31.230469 7.316406 C 33.59375 6.835938 34.148438 6.523438 34.148438 6.523438 C 34.148438 6.523438 34.191406 6.5 34.246094 6.484375 C 34.285156 6.46875 34.363281 6.445312 34.453125 6.445312 C 34.882812 6.445312 35.039062 6.835938 34.992188 7.113281 C 34.96875 7.257812 34.839844 7.84375 34.371094 8.417969 C 34.578125 8.605469 34.484375 8.921875 34.390625 9.09375 C 34.332031 9.203125 33.957031 9.871094 33.164062 10.304688 C 33.214844 10.445312 33.207031 10.617188 33.082031 10.785156 C 33.0625 10.8125 33.007812 10.894531 32.914062 11.007812 C 32.816406 11.121094 32.679688 11.265625 32.503906 11.414062 C 32.253906 11.625 31.910156 11.847656 31.480469 11.972656 C 31.480469 12.234375 31.402344 12.59375 31.0625 12.851562 L 30.785156 13.058594 L 30.75 13.035156 L 30.96875 13.644531 L 31.746094 14.003906 L 33.515625 17.167969 L 32.359375 19.5 C 32.359375 19.5 30.625 18.558594 28.242188 17.859375 C 25.835938 17.15625 22.3125 16.445312 17.855469 16.445312 L 17.144531 16.445312 C 12.6875 16.445312 9.164062 17.15625 6.757812 17.859375 C 4.375 18.558594 2.640625 19.5 2.640625 19.5 L 1.484375 17.167969 L 3.253906 14.003906 L 4.03125 13.644531 L 4.253906 13.027344 C 4.230469 13.046875 4.210938 13.054688 4.210938 13.054688 L 3.9375 12.851562 C 3.597656 12.59375 3.519531 12.234375 3.519531 11.972656 C 3.089844 11.847656 2.746094 11.625 2.496094 11.414062 C 2.320312 11.265625 2.183594 11.121094 2.085938 11.007812 C 1.992188 10.894531 1.9375 10.8125 1.917969 10.785156 C 1.773438 10.589844 1.785156 10.390625 1.859375 10.242188 C 1.058594 9.910156 0.664062 9.191406 0.609375 9.09375 C 0.515625 8.921875 0.421875 8.605469 0.628906 8.417969 "/>
<path style=" stroke:none;fill-rule:nonzero;fill:rgb(13.72549%,30.980392%,50.196078%);fill-opacity:1;" d="M 14.742188 7.480469 L 18.847656 7.449219 L 19.332031 8.03125 C 19.332031 8.03125 28.8125 8.3125 31.328125 7.800781 C 33.820312 7.296875 34.382812 6.960938 34.382812 6.960938 C 34.382812 6.960938 34.527344 6.886719 34.503906 7.035156 C 34.480469 7.183594 34.246094 8.246094 33.09375 8.808594 C 33.09375 8.808594 33.542969 8.878906 33.925781 8.804688 C 33.925781 8.804688 33.996094 8.785156 33.957031 8.855469 C 33.890625 8.972656 33.324219 9.984375 32.050781 10.15625 C 32.050781 10.15625 32.214844 10.382812 32.671875 10.429688 C 32.671875 10.429688 32.714844 10.453125 32.683594 10.492188 C 32.617188 10.585938 32.015625 11.484375 30.910156 11.582031 C 30.910156 11.582031 31.152344 12.160156 30.761719 12.457031 C 30.761719 12.457031 30.507812 12.292969 30.285156 12.4375 C 30.058594 12.585938 30.199219 12.976562 30.199219 12.976562 L 30.574219 14.007812 L 31.390625 14.386719 L 32.953125 17.179688 L 32.144531 18.820312 C 32.144531 18.820312 26.875 15.949219 17.855469 15.949219 L 17.144531 15.949219 C 8.125 15.949219 2.855469 18.820312 2.855469 18.820312 L 2.046875 17.179688 L 3.609375 14.386719 L 4.425781 14.007812 L 4.800781 12.976562 C 4.800781 12.976562 4.941406 12.585938 4.714844 12.4375 C 4.492188 12.292969 4.238281 12.457031 4.238281 12.457031 C 3.847656 12.160156 4.089844 11.582031 4.089844 11.582031 C 2.984375 11.484375 2.382812 10.585938 2.316406 10.492188 C 2.285156 10.453125 2.328125 10.429688 2.328125 10.429688 C 2.785156 10.382812 2.949219 10.15625 2.949219 10.15625 C 1.675781 9.984375 1.109375 8.972656 1.042969 8.855469 C 1.003906 8.785156 1.074219 8.804688 1.074219 8.804688 C 1.457031 8.878906 1.90625 8.808594 1.90625 8.808594 C 0.753906 8.246094 0.519531 7.183594 0.496094 7.035156 C 0.472656 6.886719 0.617188 6.960938 0.617188 6.960938 C 0.617188 6.960938 1.183594 7.277344 3.671875 7.800781 C 5.136719 8.113281 14.324219 7.941406 14.324219 7.941406 Z M 14.742188 7.480469 "/>
<path style=" stroke:none;fill-rule:evenodd;fill:rgb(100%,100%,100%);fill-opacity:1;" d="M 30.835938 15.648438 L 30.835938 16.136719 L 30.675781 16.082031 L 30.675781 15.589844 L 30.539062 15.546875 L 30.539062 15.40625 L 30.972656 15.554688 L 30.972656 15.691406 Z M 30.835938 15.648438 "/>
<path style=" stroke:none;fill-rule:evenodd;fill:rgb(100%,100%,100%);fill-opacity:1;" d="M 30.992188 16.1875 L 31.101562 15.597656 L 31.261719 15.652344 L 31.386719 16.03125 L 31.523438 15.742188 L 31.6875 15.796875 L 31.78125 16.457031 L 31.617188 16.398438 L 31.570312 16.023438 L 31.417969 16.332031 L 31.355469 16.3125 L 31.210938 15.902344 L 31.15625 16.246094 Z M 30.992188 16.1875 "/>
<path style=" stroke:none;fill-rule:nonzero;fill:rgb(100%,100%,100%);fill-opacity:1;" d="M 28.117188 8.835938 L 28.511719 8.835938 C 29.054688 8.835938 31.152344 8.78125 32.617188 8.195312 C 32.617188 8.195312 32.660156 8.179688 32.65625 8.226562 C 32.648438 8.269531 31.703125 9.246094 29.996094 9.527344 C 29.996094 9.527344 30.929688 9.582031 31.734375 9.441406 C 31.734375 9.441406 31.789062 9.425781 31.769531 9.472656 C 31.75 9.527344 31.152344 10.140625 29.601562 10.4375 C 29.601562 10.4375 29.875 10.605469 30.699219 10.617188 C 30.699219 10.617188 30.757812 10.617188 30.726562 10.65625 C 30.6875 10.703125 30.050781 11.058594 29.175781 10.992188 C 29.175781 10.992188 29.773438 11.3125 29.53125 11.710938 C 29.53125 11.710938 29.511719 11.726562 29.503906 11.703125 C 29.476562 11.636719 29.34375 11.359375 28.964844 11.453125 C 28.878906 11.476562 28.707031 11.59375 28.878906 11.882812 L 29.390625 13.042969 C 29.566406 13.421875 29.992188 14.367188 30.097656 14.695312 C 30.46875 15.835938 29.855469 15.964844 27.863281 15.394531 L 25.351562 14.8125 C 24.4375 14.636719 23.84375 14.652344 23.128906 14.304688 C 22.339844 13.914062 22.199219 13.671875 22.125 13.21875 L 21.355469 10.074219 L 20.726562 10.074219 L 20.414062 8.832031 L 24.152344 8.832031 L 24.53125 10.074219 L 24.019531 10.074219 L 24.957031 13.28125 L 27 13.738281 L 25.707031 10.074219 L 25.210938 10.074219 L 24.804688 8.832031 L 28.113281 8.832031 Z M 28.117188 8.835938 "/>
<path style=" stroke:none;fill-rule:nonzero;fill:rgb(100%,100%,100%);fill-opacity:1;" d="M 8.46875 8.886719 L 13.78125 8.886719 L 13.507812 10.59375 L 11.199219 10.59375 L 11.335938 10.058594 L 9.46875 10.058594 L 9.101562 11.292969 L 12.085938 11.222656 L 11.101562 12.582031 L 8.597656 12.652344 L 8.238281 13.65625 L 9.539062 13.46875 L 9.066406 14.765625 C 7.109375 15.113281 4.871094 15.710938 3.351562 16.425781 L 4.289062 14.746094 L 5.15625 14.441406 L 5.804688 12.636719 L 5.265625 11.394531 L 5.828125 11.390625 C 5.832031 11.3125 5.933594 10.992188 5.933594 10.992188 C 5.058594 11.058594 4.421875 10.703125 4.382812 10.65625 C 4.351562 10.617188 4.410156 10.617188 4.410156 10.617188 C 5.234375 10.605469 5.507812 10.4375 5.507812 10.4375 C 3.957031 10.140625 3.359375 9.527344 3.339844 9.472656 C 3.320312 9.425781 3.375 9.441406 3.375 9.441406 C 4.179688 9.582031 5.113281 9.527344 5.113281 9.527344 C 3.40625 9.246094 2.460938 8.269531 2.453125 8.226562 C 2.449219 8.179688 2.492188 8.195312 2.492188 8.195312 C 4.148438 8.855469 6.695312 8.882812 6.695312 8.882812 L 6.714844 8.886719 Z M 8.46875 8.886719 "/>
<path style=" stroke:none;fill-rule:evenodd;fill:rgb(100%,100%,100%);fill-opacity:1;" d="M 12.054688 13.1875 L 11.34375 13.28125 L 10.957031 14.472656 C 11.992188 14.316406 13.003906 14.214844 14.179688 14.164062 L 14.921875 12.847656 L 18.28125 12.847656 L 19.039062 14.222656 C 20.269531 14.300781 21.007812 14.328125 22.261719 14.441406 L 21.800781 13.1875 L 21.035156 13.132812 L 18.257812 8.265625 L 15.171875 8.265625 Z M 17.777344 11.324219 L 15.570312 11.324219 L 16.726562 9.359375 Z M 17.777344 11.324219 "/>
</g>
</svg>
