<?xml version="1.0" encoding="UTF-8"?>
<svg xmlns="http://www.w3.org/2000/svg" xmlns:xlink="http://www.w3.org/1999/xlink" width="35pt" height="25pt" viewBox="0 0 35 25" version="1.1">
<g id="surface1">
<path style="fill-rule:nonzero;fill:rgb(0%,17.647059%,38.431373%);fill-opacity:1;stroke-width:4.170616;stroke-linecap:butt;stroke-linejoin:miter;stroke:rgb(77.254902%,58.823529%,4.705882%);stroke-opacity:1;stroke-miterlimit:4;" d="M 2.21875 38.4375 L 101.25 38.4375 L 101.25 77.59375 L 66.75 77.59375 L 66.75 69.375 L 46.03125 69.375 L 46.03125 88.59375 L 74.78125 88.59375 L 74.78125 117.90625 L 46.09375 117.90625 L 46.09375 133.71875 L 54.5625 133.71875 L 54.5625 163.9375 L 2.09375 163.9375 L 2.09375 133.71875 L 11.0625 133.71875 L 11.0625 69.25 L 2.09375 69.25 Z M 109.96875 38.4375 L 162.40625 38.4375 L 162.40625 69.125 L 153.8125 69.125 L 153.8125 133.59375 L 162.40625 133.59375 L 162.40625 163.8125 L 109.96875 163.8125 L 109.96875 133.59375 L 118.6875 133.59375 L 118.6875 69.125 L 109.96875 69.125 Z M 170.75 38.4375 L 219.40625 38.4375 L 219.40625 69.125 L 214.125 69.125 L 214.125 132.34375 L 215.375 133.59375 L 233.3125 133.59375 L 234.59375 132.34375 L 234.59375 69.125 L 229.28125 69.125 L 229.28125 38.4375 L 277.9375 38.4375 L 277.9375 69.125 L 269.21875 69.125 L 269.21875 140.53125 L 246.71875 163.9375 L 202.21875 163.9375 L 179.75 140.53125 L 179.75 69.125 L 170.75 69.125 Z M 170.75 38.4375 " transform="matrix(0.125,0,0,0.125,0,0)"/>
</g>
</svg>
