<?xml version="1.0" encoding="UTF-8"?>
<svg xmlns="http://www.w3.org/2000/svg" xmlns:xlink="http://www.w3.org/1999/xlink" width="35pt" height="25pt" viewBox="0 0 35 25" version="1.1">
<g id="surface1">
<path style=" stroke:none;fill-rule:nonzero;fill:rgb(0%,18.431373%,54.509804%);fill-opacity:1;" d="M 25.664062 17.566406 C 25.570312 17.828125 25.363281 18.007812 25.128906 18.007812 C 24.800781 18.007812 24.535156 17.65625 24.535156 17.222656 C 24.535156 16.789062 24.800781 16.433594 25.128906 16.433594 L 25.382812 16.433594 C 25.382812 16.433594 25.644531 15.988281 25.390625 15.390625 C 25.390625 15.390625 25.746094 15.136719 25.527344 14.601562 L 25.527344 12.597656 L 19.8125 12.597656 L 19.8125 12.097656 C 20.175781 11.167969 20.707031 10.015625 20.707031 8.238281 C 20.707031 7.015625 20.324219 6.128906 20.324219 6.128906 L 17.226562 6.128906 L 17.226562 13.195312 L 18.546875 13.195312 L 18.546875 16.527344 L 12.152344 16.527344 L 12.152344 13.195312 L 13.46875 13.195312 L 13.46875 6.128906 L 10.375 6.128906 L 10.375 9.855469 C 10.375 9.855469 9.792969 10.449219 10.855469 11.957031 C 11.90625 13.453125 10.617188 15.972656 10.617188 15.972656 C 10.761719 16.507812 11.179688 16.910156 11.179688 16.910156 C 11.046875 17.765625 10.421875 18.78125 10.421875 18.78125 C 10.617188 19.253906 10.84375 19.433594 10.84375 19.433594 C 10.84375 19.433594 12.460938 18.097656 13.550781 18.097656 C 13.550781 18.097656 14.648438 18.882812 15.503906 19.347656 C 16.980469 20.152344 18.332031 20.632812 18.332031 20.632812 C 18.554688 20.117188 18.566406 19.738281 18.566406 19.738281 C 18.453125 19.472656 18.144531 19.191406 18.144531 19.191406 L 18.324219 18.871094 C 18.324219 18.871094 19.039062 19.203125 19.71875 20.066406 L 20.152344 19.992188 C 20.285156 20.242188 20.355469 20.59375 20.347656 20.78125 C 20.347656 20.78125 21.554688 20.554688 22.855469 21.855469 L 23.453125 21.847656 L 23.453125 21.242188 C 23.453125 21.242188 23.941406 20.847656 24.777344 20.6875 C 26.050781 21.210938 26.925781 22.199219 26.925781 22.199219 C 28.28125 22.136719 28.851562 21.027344 28.851562 21.027344 C 27.480469 20.222656 26.597656 19.378906 26.597656 19.378906 C 26.597656 19.378906 26.65625 19.214844 27.195312 19.019531 C 27.417969 18.941406 27.550781 18.839844 27.550781 18.839844 C 27.550781 18.839844 27.898438 17.320312 27.539062 16.722656 L 26.976562 16.722656 C 26.828125 16.90625 26.789062 17.15625 26.789062 17.15625 L 26.167969 17.15625 C 25.914062 17.15625 25.742188 17.351562 25.664062 17.566406 "/>
<path style=" stroke:none;fill-rule:nonzero;fill:rgb(0%,18.431373%,54.509804%);fill-opacity:1;" d="M 3.730469 10.914062 L 2.136719 10.914062 L 2.136719 8.097656 L 2.550781 8.097656 L 2.550781 6.953125 L 0.542969 6.953125 L 0.542969 8.097656 L 0.960938 8.097656 L 0.960938 10.914062 L 0.542969 10.914062 L 0.542969 12.058594 L 4.8125 12.058594 L 4.8125 10.34375 L 3.730469 10.34375 "/>
<path style=" stroke:none;fill-rule:nonzero;fill:rgb(0%,18.431373%,54.509804%);fill-opacity:1;" d="M 8.320312 6.949219 L 5.976562 6.949219 L 5.976562 8.097656 L 6.410156 8.097656 L 5.519531 10.910156 L 5.101562 10.910156 L 5.101562 12.054688 L 6.738281 12.054688 L 6.738281 10.910156 L 6.835938 10.613281 L 8.210938 10.613281 L 8.289062 10.910156 L 8.289062 12.054688 L 9.925781 12.054688 L 9.925781 10.910156 L 9.507812 10.910156 M 7.207031 9.433594 L 7.535156 8.398438 L 7.542969 8.398438 L 7.855469 9.433594 Z M 7.207031 9.433594 "/>
<path style=" stroke:none;fill-rule:nonzero;fill:rgb(100%,100%,100%);fill-opacity:1;" d="M 7.535156 8.398438 L 7.207031 9.433594 L 7.855469 9.433594 L 7.542969 8.398438 "/>
<path style=" stroke:none;fill-rule:nonzero;fill:rgb(100%,100%,100%);fill-opacity:1;" d="M 35 8.640625 L 35 6.410156 L 32.320312 6.410156 L 32.320312 8.386719 L 31.851562 8.386719 L 31.851562 6.410156 L 26.074219 6.410156 L 25.765625 6.632812 L 25.765625 6.410156 L 23.753906 6.410156 L 23.753906 2.539062 L 7.101562 2.539062 L 7.101562 6.40625 L 5.429688 6.40625 L 5.429688 8.640625 L 5.667969 8.640625 L 5.300781 9.800781 L 3.1875 9.800781 L 3.1875 10.371094 L 2.683594 10.371094 L 2.683594 8.640625 L 3.09375 8.640625 L 3.09375 6.410156 L 0 6.410156 L 0 8.640625 L 0.414062 8.640625 L 0.414062 10.371094 L 0 10.371094 L 0 12.601562 L 7.28125 12.597656 L 7.28125 11.15625 L 7.746094 11.15625 L 7.746094 12.597656 L 10.582031 12.597656 C 10.679688 12.847656 10.722656 13.128906 10.722656 13.433594 C 10.726562 13.976562 10.582031 14.5625 10.429688 15.003906 C 10.355469 15.226562 10.28125 15.410156 10.222656 15.535156 C 10.175781 15.644531 10.042969 15.914062 10.042969 15.914062 C 10.042969 15.914062 10.121094 16.390625 10.59375 17.066406 C 10.515625 17.351562 10.386719 17.671875 10.257812 17.929688 C 10.085938 18.292969 9.808594 18.734375 9.808594 18.734375 L 9.921875 18.988281 C 10.269531 19.679688 10.847656 20.132812 10.847656 20.132812 C 10.847656 20.132812 11.207031 19.835938 11.25 19.804688 C 11.402344 19.6875 11.804688 19.378906 12.269531 19.113281 C 12.652344 18.886719 13.09375 18.703125 13.394531 18.652344 C 13.734375 18.890625 14.546875 19.445312 15.242188 19.824219 C 16.761719 20.652344 18.628906 21.308594 18.628906 21.308594 C 18.628906 21.308594 18.953125 20.628906 19.058594 20.128906 C 19.199219 20.257812 19.492188 20.664062 19.492188 20.664062 L 19.789062 20.609375 C 19.824219 20.800781 19.78125 21.441406 19.78125 21.441406 C 19.78125 21.441406 20.328125 21.300781 20.570312 21.308594 C 20.867188 21.320312 21.609375 21.386719 22.472656 22.242188 L 22.632812 22.402344 L 23.996094 22.390625 L 23.996094 21.539062 C 24.15625 21.449219 24.40625 21.335938 24.722656 21.253906 C 25.226562 21.484375 25.667969 21.792969 25.984375 22.054688 C 26.28125 22.304688 26.691406 22.75 26.691406 22.75 L 26.949219 22.738281 C 27.777344 22.699219 28.390625 22.34375 28.761719 21.988281 C 29.238281 21.535156 29.570312 20.816406 29.570312 20.816406 C 29.570312 20.816406 29.175781 20.582031 28.710938 20.285156 C 28.429688 20.175781 27.546875 19.484375 27.546875 19.484375 L 27.996094 19.234375 C 27.996094 19.234375 28.175781 18.511719 28.160156 18.515625 C 28.203125 18.222656 28.246094 17.871094 28.246094 17.554688 C 28.246094 16.878906 27.847656 16.179688 27.847656 16.179688 L 26.71875 16.179688 C 26.71875 16.179688 26.472656 16.453125 26.40625 16.613281 L 26.167969 16.613281 C 26.066406 16.609375 25.972656 16.625 25.882812 16.652344 C 25.9375 16.542969 26.042969 16.28125 26.042969 15.917969 C 26.046875 15.789062 26.03125 15.648438 26 15.5 C 26.078125 15.355469 26.144531 15.164062 26.144531 14.933594 C 26.144531 14.796875 26.121094 14.648438 26.070312 14.503906 L 26.070312 12.601562 L 31.851562 12.601562 L 31.851562 10.621094 L 32.320312 10.621094 L 32.320312 12.601562 L 35 12.601562 L 35 10.371094 L 34.585938 10.371094 L 34.585938 8.640625 M 25.222656 6.953125 L 25.222656 8.664062 L 24.140625 8.664062 L 24.140625 8.097656 L 22.546875 8.097656 L 22.546875 8.929688 L 24.140625 8.929688 L 24.140625 10.078125 L 22.546875 10.078125 L 22.546875 10.914062 L 24.140625 10.914062 L 24.140625 10.34375 L 25.222656 10.34375 L 25.222656 12.058594 L 20.953125 12.058594 L 20.953125 10.914062 L 21.367188 10.914062 L 21.367188 8.097656 L 20.953125 8.097656 L 20.953125 6.953125 Z M 7.644531 3.082031 L 23.207031 3.082031 L 23.207031 6.40625 L 20.957031 6.40625 L 20.957031 5.585938 L 16.6875 5.585938 L 16.6875 13.734375 L 18.003906 13.734375 L 18.003906 15.988281 L 12.695312 15.988281 L 12.695312 13.734375 L 14.011719 13.734375 L 14.011719 5.585938 L 9.738281 5.585938 L 9.738281 6.40625 L 7.644531 6.40625 Z M 9.828125 6.949219 L 9.828125 9.695312 C 9.804688 9.742188 9.78125 9.796875 9.761719 9.855469 L 8.886719 6.949219 Z M 4.8125 12.058594 L 0.542969 12.058594 L 0.542969 10.914062 L 0.960938 10.914062 L 0.960938 8.097656 L 0.542969 8.097656 L 0.542969 6.953125 L 2.550781 6.953125 L 2.550781 8.097656 L 2.136719 8.097656 L 2.136719 10.914062 L 3.730469 10.914062 L 3.730469 10.34375 L 4.8125 10.34375 Z M 9.925781 12.054688 L 8.292969 12.054688 L 8.292969 10.910156 L 8.210938 10.613281 L 6.835938 10.613281 L 6.738281 10.910156 L 6.738281 12.054688 L 5.101562 12.054688 L 5.101562 10.910156 L 5.519531 10.910156 L 6.410156 8.09375 L 5.976562 8.09375 L 5.976562 6.949219 L 8.320312 6.949219 L 9.507812 10.910156 L 9.925781 10.910156 Z M 26.167969 17.15625 L 26.789062 17.15625 C 26.789062 17.15625 26.828125 16.90625 26.976562 16.722656 L 27.539062 16.722656 C 27.898438 17.320312 27.550781 18.839844 27.550781 18.839844 C 27.550781 18.839844 27.417969 18.941406 27.195312 19.019531 C 26.65625 19.214844 26.597656 19.378906 26.597656 19.378906 C 26.597656 19.378906 27.480469 20.222656 28.851562 21.027344 C 28.851562 21.027344 28.28125 22.136719 26.925781 22.199219 C 26.925781 22.199219 26.050781 21.210938 24.777344 20.6875 C 23.941406 20.847656 23.453125 21.246094 23.453125 21.246094 L 23.453125 21.851562 L 22.855469 21.855469 C 21.554688 20.554688 20.347656 20.78125 20.347656 20.78125 C 20.355469 20.59375 20.285156 20.242188 20.152344 19.992188 L 19.71875 20.066406 C 19.039062 19.203125 18.324219 18.871094 18.324219 18.871094 L 18.144531 19.191406 C 18.144531 19.191406 18.453125 19.472656 18.566406 19.738281 C 18.566406 19.738281 18.554688 20.121094 18.332031 20.632812 C 18.332031 20.632812 16.980469 20.152344 15.503906 19.347656 C 14.648438 18.882812 13.550781 18.097656 13.550781 18.097656 C 12.460938 18.097656 10.84375 19.433594 10.84375 19.433594 C 10.84375 19.433594 10.617188 19.253906 10.421875 18.78125 C 10.421875 18.78125 11.046875 17.765625 11.179688 16.910156 C 11.179688 16.910156 10.761719 16.507812 10.617188 15.972656 C 10.617188 15.972656 11.90625 13.453125 10.855469 11.957031 C 9.792969 10.449219 10.375 9.855469 10.375 9.855469 L 10.375 6.125 L 13.46875 6.125 L 13.46875 13.195312 L 12.152344 13.195312 L 12.152344 16.527344 L 18.546875 16.527344 L 18.546875 13.195312 L 17.226562 13.195312 L 17.226562 6.125 L 20.324219 6.125 C 20.324219 6.125 20.707031 7.015625 20.707031 8.238281 C 20.707031 10.015625 20.175781 11.167969 19.8125 12.097656 L 19.8125 12.597656 L 25.527344 12.597656 L 25.527344 14.601562 C 25.746094 15.136719 25.390625 15.390625 25.390625 15.390625 C 25.644531 15.988281 25.382812 16.433594 25.382812 16.433594 L 25.128906 16.433594 C 24.800781 16.433594 24.535156 16.789062 24.535156 17.222656 C 24.535156 17.65625 24.800781 18.007812 25.128906 18.007812 C 25.363281 18.007812 25.570312 17.828125 25.664062 17.566406 C 25.742188 17.351562 25.914062 17.15625 26.167969 17.15625 M 29.425781 12.058594 L 26.25 12.058594 L 25.511719 11.527344 L 25.511719 7.488281 L 26.25 6.953125 L 29.425781 6.953125 L 29.425781 8.664062 L 28.34375 8.664062 L 28.34375 8.097656 L 26.949219 8.097656 L 26.691406 8.28125 L 26.691406 10.726562 L 26.949219 10.914062 L 28.34375 10.914062 L 28.34375 10.34375 L 29.425781 10.34375 Z M 29.585938 9.800781 L 27.796875 9.800781 L 27.796875 10.367188 L 27.234375 10.367188 L 27.234375 8.640625 L 27.796875 8.640625 L 27.796875 9.210938 L 29.585938 9.210938 Z M 34.457031 8.097656 L 34.042969 8.097656 L 34.042969 10.914062 L 34.457031 10.914062 L 34.457031 12.058594 L 32.863281 12.058594 L 32.863281 10.078125 L 31.308594 10.078125 L 31.308594 12.058594 L 29.714844 12.058594 L 29.714844 10.914062 L 30.128906 10.914062 L 30.128906 8.097656 L 29.714844 8.097656 L 29.714844 6.953125 L 31.308594 6.953125 L 31.308594 8.929688 L 32.863281 8.929688 L 32.863281 6.953125 L 34.457031 6.953125 Z M 34.457031 8.097656 "/>
<path style=" stroke:none;fill-rule:nonzero;fill:rgb(92.54902%,10.980392%,14.117647%);fill-opacity:1;" d="M 9.738281 5.585938 L 14.011719 5.585938 L 14.011719 13.734375 L 12.695312 13.734375 L 12.695312 15.988281 L 18.003906 15.988281 L 18.003906 13.734375 L 16.6875 13.734375 L 16.6875 5.585938 L 20.957031 5.585938 L 20.957031 6.40625 L 23.207031 6.40625 L 23.207031 3.082031 L 7.644531 3.082031 L 7.644531 6.40625 L 9.738281 6.40625 "/>
<path style=" stroke:none;fill-rule:nonzero;fill:rgb(92.54902%,10.980392%,14.117647%);fill-opacity:1;" d="M 28.34375 10.914062 L 26.949219 10.914062 L 26.691406 10.726562 L 26.691406 8.28125 L 26.949219 8.097656 L 28.34375 8.097656 L 28.34375 8.664062 L 29.425781 8.664062 L 29.425781 6.953125 L 26.25 6.953125 L 25.511719 7.488281 L 25.511719 11.527344 L 26.25 12.058594 L 29.425781 12.058594 L 29.425781 10.34375 L 28.34375 10.34375 "/>
<path style=" stroke:none;fill-rule:nonzero;fill:rgb(92.54902%,10.980392%,14.117647%);fill-opacity:1;" d="M 20.953125 8.097656 L 21.367188 8.097656 L 21.367188 10.914062 L 20.953125 10.914062 L 20.953125 12.058594 L 25.222656 12.058594 L 25.222656 10.34375 L 24.140625 10.34375 L 24.140625 10.914062 L 22.546875 10.914062 L 22.546875 10.078125 L 24.140625 10.078125 L 24.140625 8.929688 L 22.546875 8.929688 L 22.546875 8.097656 L 24.140625 8.097656 L 24.140625 8.664062 L 25.222656 8.664062 L 25.222656 6.953125 L 20.953125 6.953125 "/>
<path style=" stroke:none;fill-rule:nonzero;fill:rgb(92.54902%,10.980392%,14.117647%);fill-opacity:1;" d="M 32.863281 8.929688 L 31.308594 8.929688 L 31.308594 6.953125 L 29.714844 6.953125 L 29.714844 8.097656 L 30.128906 8.097656 L 30.128906 10.914062 L 29.714844 10.914062 L 29.714844 12.058594 L 31.308594 12.058594 L 31.308594 10.078125 L 32.863281 10.078125 L 32.863281 12.058594 L 34.457031 12.058594 L 34.457031 10.914062 L 34.042969 10.914062 L 34.042969 8.097656 L 34.457031 8.097656 L 34.457031 6.953125 L 32.863281 6.953125 "/>
</g>
</svg>
