<?xml version="1.0" encoding="UTF-8"?>
<svg xmlns="http://www.w3.org/2000/svg" xmlns:xlink="http://www.w3.org/1999/xlink" width="35pt" height="25pt" viewBox="0 0 35 25" version="1.1">
<g id="surface1">
<path style=" stroke:none;fill-rule:nonzero;fill:rgb(100%,100%,100%);fill-opacity:1;" d="M 21.617188 15.089844 L 17.503906 21.863281 L 13.394531 15.089844 L 12.625 15.089844 L 17.503906 23.179688 L 22.382812 15.089844 Z M 21.617188 15.089844 "/>
<path style=" stroke:none;fill-rule:nonzero;fill:rgb(100%,100%,100%);fill-opacity:1;" d="M 12.402344 17.007812 L 12.402344 15.089844 L 11.820312 15.089844 L 11.820312 17.53125 C 11.820312 18.632812 12.871094 20.203125 13.882812 20.203125 L 13.882812 22.339844 L 4.789062 22.339844 L 4.789062 20.203125 C 5.835938 20.203125 6.851562 18.632812 6.851562 17.53125 L 6.851562 15.089844 L 6.253906 15.089844 L 6.253906 17.007812 C 6.253906 18.316406 5.5 19.746094 4.152344 19.746094 L 4.152344 22.984375 L 14.515625 22.984375 L 14.515625 19.746094 C 13.230469 19.746094 12.402344 18.402344 12.402344 17.007812 "/>
<path style=" stroke:none;fill-rule:nonzero;fill:rgb(100%,100%,100%);fill-opacity:1;" d="M 6.253906 7.488281 L 6.253906 10.128906 L 6.847656 10.128906 L 6.847656 6.996094 C 6.847656 5.859375 5.835938 4.757812 4.789062 4.757812 L 4.789062 2.949219 L 12.445312 2.949219 L 16.75 10.128906 L 18.261719 10.128906 L 22.5625 2.949219 L 30.222656 2.949219 L 30.222656 4.757812 C 29.175781 4.757812 28.160156 5.859375 28.160156 6.996094 L 28.160156 10.128906 L 28.757812 10.128906 L 28.757812 7.488281 C 28.757812 6.269531 29.507812 5.316406 30.859375 5.316406 L 30.859375 2.269531 L 22.203125 2.269531 L 17.503906 10.09375 L 12.804688 2.269531 L 4.152344 2.269531 L 4.152344 5.316406 C 5.5 5.316406 6.253906 6.269531 6.253906 7.488281 "/>
<path style=" stroke:none;fill-rule:nonzero;fill:rgb(100%,100%,100%);fill-opacity:1;" d="M 28.757812 17.007812 L 28.757812 15.089844 L 28.160156 15.089844 L 28.160156 17.53125 C 28.160156 18.632812 29.175781 20.203125 30.222656 20.203125 L 30.222656 22.339844 L 21.125 22.339844 L 21.125 20.203125 C 22.140625 20.203125 23.1875 18.632812 23.1875 17.53125 L 23.1875 15.089844 L 22.609375 15.089844 L 22.609375 17.007812 C 22.609375 18.402344 21.777344 19.746094 20.492188 19.746094 L 20.492188 22.984375 L 30.859375 22.984375 L 30.859375 19.746094 C 29.507812 19.746094 28.757812 18.316406 28.757812 17.007812 "/>
<path style=" stroke:none;fill-rule:nonzero;fill:rgb(100%,100%,100%);fill-opacity:1;" d="M 5.042969 14.425781 L 5.042969 14.136719 C 4.644531 14.085938 4.605469 14.011719 4.605469 13.628906 L 4.605469 12.023438 L 5.75 14.425781 L 6.164062 14.425781 L 7.191406 12.082031 L 7.191406 13.6875 C 7.191406 14.054688 7.183594 14.105469 6.777344 14.117188 L 6.777344 14.425781 L 8.386719 14.425781 L 8.386719 14.136719 C 8.042969 14.085938 7.9375 13.949219 7.9375 13.675781 L 7.9375 11.703125 C 7.9375 11.582031 7.921875 11.355469 7.96875 11.25 C 7.996094 11.191406 8.058594 11.128906 8.386719 11.082031 L 8.386719 10.800781 L 7.214844 10.800781 L 6.074219 13.351562 L 4.859375 10.800781 L 3.714844 10.800781 L 3.714844 11.082031 C 4.113281 11.136719 4.128906 11.199219 4.128906 11.382812 C 4.128906 11.621094 4.140625 12.949219 4.128906 13.472656 C 4.113281 14.050781 4.050781 14.085938 3.714844 14.136719 L 3.714844 14.425781 Z M 5.042969 14.425781 "/>
<path style=" stroke:none;fill-rule:nonzero;fill:rgb(100%,100%,100%);fill-opacity:1;" d="M 10.609375 14.136719 L 10.609375 14.425781 L 11.945312 14.425781 L 11.945312 14.117188 C 11.710938 14.117188 11.640625 14.078125 11.554688 13.851562 L 10.40625 10.730469 L 10 10.730469 L 8.894531 13.785156 C 8.828125 13.96875 8.765625 14.101562 8.53125 14.136719 L 8.53125 14.425781 L 9.683594 14.425781 L 9.683594 14.117188 C 9.441406 14.105469 9.417969 14.074219 9.417969 13.960938 C 9.417969 13.789062 9.542969 13.449219 9.59375 13.273438 L 10.636719 13.273438 C 10.75 13.625 10.847656 13.9375 10.847656 14.027344 C 10.847656 14.0625 10.847656 14.09375 10.609375 14.136719 M 9.746094 12.8125 L 10.09375 11.777344 L 10.460938 12.8125 Z M 9.746094 12.8125 "/>
<path style=" stroke:none;fill-rule:nonzero;fill:rgb(100%,100%,100%);fill-opacity:1;" d="M 13.554688 13.011719 C 13.628906 13.011719 13.6875 13 13.742188 13 C 14.011719 13.484375 14.394531 14.042969 14.566406 14.214844 C 14.710938 14.367188 14.886719 14.492188 15.191406 14.492188 C 15.324219 14.492188 15.460938 14.46875 15.710938 14.414062 L 15.714844 14.128906 C 15.484375 14.128906 15.363281 14.101562 15.160156 13.898438 C 14.992188 13.726562 14.667969 13.261719 14.382812 12.769531 C 14.734375 12.507812 14.894531 12.089844 14.894531 11.769531 C 14.894531 10.816406 13.957031 10.738281 13.503906 10.738281 C 13.113281 10.738281 12.476562 10.785156 12.105469 10.804688 L 12.105469 11.113281 C 12.476562 11.113281 12.535156 11.207031 12.535156 11.667969 L 12.535156 13.664062 C 12.535156 13.878906 12.519531 14.089844 12.09375 14.136719 L 12.09375 14.425781 L 13.613281 14.425781 L 13.613281 14.117188 C 13.261719 14.101562 13.210938 13.925781 13.210938 13.730469 L 13.210938 13.011719 Z M 13.210938 11.554688 C 13.210938 11.527344 13.222656 11.316406 13.226562 11.179688 C 13.335938 11.164062 13.460938 11.15625 13.488281 11.15625 C 13.851562 11.15625 14.167969 11.363281 14.167969 11.878906 C 14.167969 12.472656 13.882812 12.605469 13.5 12.605469 L 13.210938 12.605469 Z M 13.210938 11.554688 "/>
<path style=" stroke:none;fill-rule:nonzero;fill:rgb(100%,100%,100%);fill-opacity:1;" d="M 17.117188 14.042969 C 16.859375 14.042969 16.183594 13.980469 16.167969 13.210938 L 15.863281 13.210938 L 15.863281 14.242188 C 16.28125 14.40625 16.609375 14.519531 17.105469 14.519531 C 18.078125 14.519531 18.328125 13.949219 18.328125 13.523438 C 18.328125 13.1875 18.226562 12.945312 17.996094 12.710938 C 17.71875 12.429688 17.34375 12.28125 17.011719 12.078125 C 16.796875 11.941406 16.632812 11.804688 16.632812 11.554688 C 16.632812 11.414062 16.710938 11.175781 17.179688 11.175781 C 17.710938 11.175781 17.839844 11.425781 17.875 11.957031 L 18.199219 11.957031 L 18.199219 10.800781 C 17.765625 10.777344 17.761719 10.699219 17.097656 10.699219 C 16.339844 10.699219 15.953125 11.152344 15.953125 11.691406 C 15.953125 12.324219 16.46875 12.625 16.917969 12.871094 C 17.097656 12.972656 17.335938 13.082031 17.484375 13.226562 C 17.59375 13.335938 17.632812 13.4375 17.632812 13.585938 C 17.632812 13.8125 17.511719 14.042969 17.117188 14.042969 "/>
<path style=" stroke:none;fill-rule:nonzero;fill:rgb(100%,100%,100%);fill-opacity:1;" d="M 22.183594 11.113281 L 22.183594 10.8125 L 20.652344 10.8125 L 20.652344 11.113281 C 20.996094 11.117188 21.082031 11.152344 21.082031 11.84375 L 21.082031 12.261719 L 19.574219 12.261719 L 19.574219 11.84375 C 19.574219 11.152344 19.660156 11.117188 20.003906 11.113281 L 20.003906 10.8125 L 18.472656 10.8125 L 18.472656 11.113281 C 18.835938 11.113281 18.90625 11.117188 18.90625 11.675781 L 18.90625 13.335938 C 18.90625 14.03125 18.84375 14.054688 18.472656 14.136719 L 18.472656 14.425781 L 20.003906 14.425781 L 20.003906 14.136719 C 19.667969 14.078125 19.574219 14.03125 19.574219 13.738281 L 19.574219 12.71875 L 21.082031 12.71875 L 21.082031 13.738281 C 21.082031 14.03125 20.992188 14.078125 20.652344 14.136719 L 20.652344 14.425781 L 22.183594 14.425781 L 22.183594 14.136719 C 21.8125 14.054688 21.75 14.03125 21.75 13.335938 L 21.75 11.675781 C 21.75 11.117188 21.820312 11.113281 22.183594 11.113281 "/>
<path style=" stroke:none;fill-rule:nonzero;fill:rgb(100%,100%,100%);fill-opacity:1;" d="M 24.402344 14.136719 L 24.402344 14.425781 L 25.742188 14.425781 L 25.742188 14.117188 C 25.503906 14.117188 25.4375 14.078125 25.351562 13.851562 L 24.199219 10.730469 L 23.796875 10.730469 L 22.691406 13.785156 C 22.625 13.96875 22.5625 14.101562 22.328125 14.136719 L 22.328125 14.425781 L 23.480469 14.425781 L 23.480469 14.117188 C 23.234375 14.105469 23.214844 14.074219 23.214844 13.960938 C 23.214844 13.789062 23.339844 13.449219 23.390625 13.273438 L 24.433594 13.273438 C 24.546875 13.625 24.644531 13.9375 24.644531 14.027344 C 24.644531 14.0625 24.644531 14.09375 24.402344 14.136719 M 23.542969 12.8125 L 23.886719 11.777344 L 24.257812 12.8125 Z M 23.542969 12.8125 "/>
<path style=" stroke:none;fill-rule:nonzero;fill:rgb(100%,100%,100%);fill-opacity:1;" d="M 25.886719 14.117188 L 25.886719 14.425781 L 28.515625 14.425781 L 28.515625 13.375 L 28.234375 13.375 C 28.117188 13.929688 27.902344 14 27.5 14 C 27.054688 14 27.027344 13.910156 27.027344 13.652344 C 27.027344 13.652344 27.027344 11.972656 27.035156 11.566406 C 27.042969 11.246094 27.070312 11.175781 27.148438 11.152344 C 27.25 11.113281 27.375 11.113281 27.480469 11.09375 L 27.480469 10.8125 L 25.886719 10.8125 L 25.886719 11.117188 C 26.207031 11.125 26.320312 11.140625 26.320312 11.984375 L 26.320312 13.113281 C 26.320312 14.0625 26.199219 14.128906 25.886719 14.117188 "/>
<path style=" stroke:none;fill-rule:nonzero;fill:rgb(100%,100%,100%);fill-opacity:1;" d="M 31.007812 13.375 C 30.886719 13.929688 30.671875 14 30.269531 14 C 29.828125 14 29.800781 13.910156 29.800781 13.652344 C 29.800781 13.652344 29.800781 11.972656 29.804688 11.566406 C 29.816406 11.246094 29.84375 11.175781 29.917969 11.152344 C 30.019531 11.113281 30.144531 11.113281 30.253906 11.09375 L 30.253906 10.8125 L 28.660156 10.8125 L 28.660156 11.117188 C 28.976562 11.125 29.089844 11.140625 29.089844 11.984375 L 29.089844 13.113281 C 29.089844 14.0625 28.972656 14.128906 28.660156 14.117188 L 28.660156 14.425781 L 31.285156 14.425781 L 31.285156 13.375 Z M 31.007812 13.375 "/>
<path style=" stroke:none;fill-rule:nonzero;fill:rgb(0%,33.72549%,16.470588%);fill-opacity:1;" d="M 11.820312 17.53125 L 11.820312 15.089844 L 6.851562 15.089844 L 6.851562 17.53125 C 6.851562 18.632812 5.835938 20.203125 4.789062 20.203125 L 4.789062 22.339844 L 13.882812 22.339844 L 13.882812 20.203125 C 12.871094 20.203125 11.820312 18.632812 11.820312 17.53125 "/>
<path style=" stroke:none;fill-rule:nonzero;fill:rgb(0%,33.72549%,16.470588%);fill-opacity:1;" d="M 6.851562 6.996094 L 6.851562 10.128906 L 16.75 10.128906 L 12.445312 2.949219 L 4.789062 2.949219 L 4.789062 4.757812 C 5.835938 4.757812 6.851562 5.859375 6.851562 6.996094 "/>
<path style=" stroke:none;fill-rule:nonzero;fill:rgb(0%,33.72549%,16.470588%);fill-opacity:1;" d="M 22.566406 2.949219 L 18.261719 10.128906 L 28.160156 10.128906 L 28.160156 6.996094 C 28.160156 5.859375 29.175781 4.757812 30.222656 4.757812 L 30.222656 2.949219 Z M 22.566406 2.949219 "/>
<path style=" stroke:none;fill-rule:nonzero;fill:rgb(0%,33.72549%,16.470588%);fill-opacity:1;" d="M 13.394531 15.089844 L 17.503906 21.863281 L 21.617188 15.089844 Z M 13.394531 15.089844 "/>
<path style=" stroke:none;fill-rule:nonzero;fill:rgb(0%,33.72549%,16.470588%);fill-opacity:1;" d="M 28.160156 17.53125 L 28.160156 15.089844 L 23.1875 15.089844 L 23.1875 17.53125 C 23.1875 18.632812 22.140625 20.203125 21.125 20.203125 L 21.125 22.339844 L 30.222656 22.339844 L 30.222656 20.203125 C 29.175781 20.203125 28.160156 18.632812 28.160156 17.53125 "/>
<path style=" stroke:none;fill-rule:nonzero;fill:rgb(0%,0%,0%);fill-opacity:1;" d="M 29.679688 10.128906 L 29.679688 8.382812 C 29.679688 7.042969 29.667969 6.179688 31.804688 6.179688 L 31.804688 1.207031 L 21.613281 1.207031 L 17.503906 8.015625 L 13.398438 1.207031 L 3.203125 1.207031 L 3.203125 6.179688 C 5.339844 6.179688 5.332031 7.042969 5.332031 8.382812 L 5.332031 10.128906 L 0 10.128906 L 0 15.089844 L 5.332031 15.089844 L 5.332031 16.070312 C 5.332031 17.371094 5.339844 18.898438 3.203125 18.898438 L 3.203125 24 L 15.476562 24 L 15.476562 21.699219 L 16.855469 24 L 18.152344 24 L 19.535156 21.699219 L 19.535156 24 L 31.804688 24 L 31.804688 18.898438 C 29.667969 18.898438 29.679688 17.371094 29.679688 16.070312 L 29.679688 15.089844 L 35 15.089844 L 35 10.128906 Z M 4.152344 5.316406 L 4.152344 2.269531 L 12.804688 2.269531 L 17.503906 10.09375 L 22.203125 2.269531 L 30.859375 2.269531 L 30.859375 5.316406 C 29.507812 5.316406 28.757812 6.269531 28.757812 7.488281 L 28.757812 10.128906 L 6.253906 10.128906 L 6.253906 7.488281 C 6.253906 6.269531 5.5 5.316406 4.152344 5.316406 M 25.886719 11.117188 L 25.886719 10.8125 L 27.480469 10.8125 L 27.480469 11.09375 C 27.375 11.113281 27.25 11.113281 27.148438 11.152344 C 27.070312 11.175781 27.042969 11.246094 27.035156 11.566406 L 27.027344 13.652344 C 27.027344 13.910156 27.054688 14 27.5 14 C 27.902344 14 28.117188 13.929688 28.234375 13.375 L 28.515625 13.375 L 28.515625 14.425781 L 25.886719 14.425781 L 25.886719 14.117188 C 26.199219 14.128906 26.320312 14.0625 26.320312 13.113281 L 26.320312 11.984375 C 26.320312 11.140625 26.207031 11.125 25.886719 11.117188 M 24.433594 13.273438 L 23.390625 13.273438 C 23.339844 13.449219 23.214844 13.789062 23.214844 13.960938 C 23.214844 14.074219 23.234375 14.105469 23.480469 14.117188 L 23.480469 14.425781 L 22.328125 14.425781 L 22.328125 14.136719 C 22.5625 14.101562 22.625 13.96875 22.691406 13.785156 L 23.796875 10.730469 L 24.199219 10.730469 L 25.351562 13.851562 C 25.4375 14.078125 25.503906 14.117188 25.742188 14.117188 L 25.742188 14.425781 L 24.40625 14.425781 L 24.40625 14.136719 C 24.644531 14.09375 24.644531 14.0625 24.644531 14.027344 C 24.644531 13.9375 24.546875 13.625 24.433594 13.273438 M 22.183594 14.136719 L 22.183594 14.425781 L 20.652344 14.425781 L 20.652344 14.136719 C 20.992188 14.078125 21.082031 14.03125 21.082031 13.738281 L 21.082031 12.71875 L 19.574219 12.71875 L 19.574219 13.738281 C 19.574219 14.03125 19.667969 14.078125 20.003906 14.136719 L 20.003906 14.425781 L 18.472656 14.425781 L 18.472656 14.136719 C 18.84375 14.054688 18.90625 14.03125 18.90625 13.335938 L 18.90625 11.671875 C 18.90625 11.117188 18.835938 11.113281 18.472656 11.113281 L 18.472656 10.8125 L 20.003906 10.8125 L 20.003906 11.113281 C 19.660156 11.117188 19.574219 11.152344 19.574219 11.84375 L 19.574219 12.261719 L 21.082031 12.261719 L 21.082031 11.84375 C 21.082031 11.152344 20.996094 11.117188 20.652344 11.113281 L 20.652344 10.8125 L 22.183594 10.8125 L 22.183594 11.113281 C 21.820312 11.113281 21.75 11.117188 21.75 11.671875 L 21.75 13.335938 C 21.75 14.03125 21.816406 14.054688 22.183594 14.136719 M 17.484375 13.226562 C 17.335938 13.082031 17.097656 12.972656 16.917969 12.871094 C 16.46875 12.625 15.953125 12.324219 15.953125 11.691406 C 15.953125 11.152344 16.339844 10.699219 17.097656 10.699219 C 17.761719 10.699219 17.765625 10.777344 18.199219 10.800781 L 18.199219 11.957031 L 17.875 11.957031 C 17.839844 11.425781 17.710938 11.175781 17.179688 11.175781 C 16.710938 11.175781 16.632812 11.414062 16.632812 11.554688 C 16.632812 11.804688 16.796875 11.941406 17.011719 12.078125 C 17.34375 12.28125 17.71875 12.429688 17.996094 12.710938 C 18.226562 12.945312 18.328125 13.1875 18.328125 13.523438 C 18.328125 13.949219 18.078125 14.519531 17.105469 14.519531 C 16.609375 14.519531 16.28125 14.40625 15.863281 14.242188 L 15.863281 13.210938 L 16.167969 13.210938 C 16.183594 13.980469 16.859375 14.042969 17.117188 14.042969 C 17.511719 14.042969 17.632812 13.8125 17.632812 13.585938 C 17.632812 13.4375 17.59375 13.335938 17.484375 13.226562 M 13.613281 14.117188 L 13.613281 14.425781 L 12.09375 14.425781 L 12.09375 14.136719 C 12.519531 14.089844 12.535156 13.878906 12.535156 13.664062 L 12.535156 11.667969 C 12.535156 11.207031 12.476562 11.113281 12.105469 11.113281 L 12.105469 10.804688 C 12.476562 10.785156 13.113281 10.738281 13.503906 10.738281 C 13.957031 10.738281 14.894531 10.816406 14.894531 11.769531 C 14.894531 12.089844 14.734375 12.507812 14.382812 12.769531 C 14.667969 13.261719 14.992188 13.726562 15.160156 13.898438 C 15.363281 14.101562 15.484375 14.128906 15.714844 14.128906 L 15.710938 14.414062 C 15.460938 14.46875 15.324219 14.492188 15.191406 14.492188 C 14.886719 14.492188 14.710938 14.367188 14.566406 14.214844 C 14.394531 14.042969 14.011719 13.484375 13.742188 13 C 13.6875 13 13.628906 13.011719 13.554688 13.011719 L 13.210938 13.011719 L 13.210938 13.730469 C 13.210938 13.925781 13.261719 14.101562 13.613281 14.117188 M 10.636719 13.273438 L 9.59375 13.273438 C 9.542969 13.449219 9.417969 13.789062 9.417969 13.960938 C 9.417969 14.074219 9.441406 14.105469 9.683594 14.117188 L 9.683594 14.425781 L 8.53125 14.425781 L 8.53125 14.136719 C 8.765625 14.101562 8.828125 13.96875 8.894531 13.785156 L 10 10.730469 L 10.40625 10.730469 L 11.554688 13.851562 C 11.640625 14.078125 11.710938 14.117188 11.945312 14.117188 L 11.945312 14.425781 L 10.609375 14.425781 L 10.609375 14.136719 C 10.847656 14.09375 10.847656 14.0625 10.847656 14.027344 C 10.847656 13.9375 10.75 13.625 10.636719 13.273438 M 5.042969 14.136719 L 5.042969 14.425781 L 3.714844 14.425781 L 3.714844 14.136719 C 4.050781 14.085938 4.113281 14.050781 4.128906 13.472656 C 4.140625 12.949219 4.128906 11.621094 4.128906 11.382812 C 4.128906 11.199219 4.113281 11.136719 3.714844 11.082031 L 3.714844 10.800781 L 4.859375 10.800781 L 6.074219 13.351562 L 7.214844 10.800781 L 8.386719 10.800781 L 8.386719 11.082031 C 8.058594 11.128906 7.996094 11.191406 7.96875 11.25 C 7.921875 11.355469 7.9375 11.582031 7.9375 11.703125 L 7.9375 13.675781 C 7.9375 13.949219 8.042969 14.085938 8.386719 14.136719 L 8.386719 14.425781 L 6.777344 14.425781 L 6.777344 14.117188 C 7.183594 14.105469 7.191406 14.054688 7.191406 13.6875 L 7.191406 12.082031 L 6.164062 14.425781 L 5.75 14.425781 L 4.605469 12.023438 L 4.605469 13.628906 C 4.605469 14.011719 4.644531 14.085938 5.042969 14.136719 M 14.515625 22.984375 L 4.152344 22.984375 L 4.152344 19.746094 C 5.5 19.746094 6.253906 18.316406 6.253906 17.007812 L 6.253906 15.089844 L 12.402344 15.089844 L 12.402344 17.007812 C 12.402344 18.402344 13.230469 19.746094 14.515625 19.746094 Z M 17.503906 23.179688 L 12.625 15.089844 L 22.382812 15.089844 Z M 30.859375 19.746094 L 30.859375 22.984375 L 20.492188 22.984375 L 20.492188 19.746094 C 21.777344 19.746094 22.609375 18.402344 22.609375 17.007812 L 22.609375 15.089844 L 28.757812 15.089844 L 28.757812 17.007812 C 28.757812 18.316406 29.507812 19.746094 30.859375 19.746094 M 31.285156 14.425781 L 28.660156 14.425781 L 28.660156 14.117188 C 28.972656 14.128906 29.089844 14.0625 29.089844 13.113281 L 29.089844 11.984375 C 29.089844 11.140625 28.976562 11.125 28.660156 11.117188 L 28.660156 10.8125 L 30.253906 10.8125 L 30.253906 11.09375 C 30.144531 11.113281 30.019531 11.113281 29.917969 11.152344 C 29.84375 11.175781 29.816406 11.246094 29.804688 11.566406 L 29.800781 13.652344 C 29.800781 13.910156 29.828125 14 30.269531 14 C 30.671875 14 30.886719 13.929688 31.007812 13.375 L 31.285156 13.375 Z M 31.285156 14.425781 "/>
<path style=" stroke:none;fill-rule:nonzero;fill:rgb(0%,0%,0%);fill-opacity:1;" d="M 13.5 12.605469 C 13.882812 12.605469 14.167969 12.472656 14.167969 11.878906 C 14.167969 11.363281 13.851562 11.15625 13.488281 11.15625 C 13.460938 11.15625 13.335938 11.164062 13.226562 11.179688 C 13.222656 11.316406 13.210938 11.527344 13.210938 11.554688 L 13.210938 12.605469 Z M 13.5 12.605469 "/>
<path style=" stroke:none;fill-rule:nonzero;fill:rgb(0%,0%,0%);fill-opacity:1;" d="M 9.746094 12.8125 L 10.460938 12.8125 L 10.09375 11.777344 Z M 9.746094 12.8125 "/>
<path style=" stroke:none;fill-rule:nonzero;fill:rgb(0%,0%,0%);fill-opacity:1;" d="M 23.542969 12.8125 L 24.257812 12.8125 L 23.886719 11.777344 Z M 23.542969 12.8125 "/>
<path style=" stroke:none;fill-rule:nonzero;fill:rgb(0%,0%,0%);fill-opacity:1;" d="M 32.183594 22.789062 L 32.585938 22.789062 L 32.585938 24 L 32.730469 24 L 32.730469 22.789062 L 33.152344 22.789062 L 33.152344 22.644531 L 32.183594 22.644531 Z M 32.183594 22.789062 "/>
<path style=" stroke:none;fill-rule:nonzero;fill:rgb(0%,0%,0%);fill-opacity:1;" d="M 33.929688 23.746094 L 33.578125 22.644531 L 33.347656 22.644531 L 33.347656 24 L 33.492188 24 L 33.492188 22.847656 L 33.855469 24 L 34 24 L 34.363281 22.847656 L 34.363281 24 L 34.507812 24 L 34.507812 22.644531 L 34.277344 22.644531 Z M 33.929688 23.746094 "/>
</g>
</svg>
