<?xml version="1.0" encoding="UTF-8"?>
<svg xmlns="http://www.w3.org/2000/svg" xmlns:xlink="http://www.w3.org/1999/xlink" width="35pt" height="25pt" viewBox="0 0 35 25" version="1.1">
<g id="surface1">
<path style=" stroke:none;fill-rule:nonzero;fill:rgb(0%,0%,0%);fill-opacity:1;" d="M 10.226562 4.105469 C 10.03125 4.511719 9.867188 4.847656 9.867188 4.855469 C 9.867188 4.859375 10.074219 4.863281 10.324219 4.863281 L 10.777344 4.863281 L 10.777344 7.570312 L 10.554688 7.570312 L 10.269531 8.28125 L 9.988281 8.992188 L 12.425781 8.992188 L 12.710938 8.296875 C 12.867188 7.917969 12.996094 7.597656 12.996094 7.585938 C 12.996094 7.578125 12.84375 7.570312 12.65625 7.570312 L 12.316406 7.570312 L 12.316406 6.515625 L 12.464844 6.675781 C 12.703125 6.9375 12.949219 7.195312 13.671875 7.953125 C 14.050781 8.355469 14.429688 8.75 14.507812 8.835938 L 14.65625 8.992188 L 15.679688 8.992188 L 15.679688 4.769531 L 15.8125 4.769531 C 15.941406 4.769531 15.953125 4.765625 15.980469 4.703125 C 16.046875 4.5625 16.542969 3.394531 16.542969 3.382812 C 16.542969 3.375 15.972656 3.371094 15.277344 3.371094 L 14.007812 3.371094 L 13.929688 3.550781 C 13.867188 3.695312 13.730469 4.019531 13.421875 4.761719 C 13.414062 4.785156 13.492188 4.792969 13.773438 4.792969 L 14.136719 4.792969 L 14.136719 5.332031 C 14.136719 5.832031 14.136719 5.867188 14.097656 5.839844 C 14.054688 5.804688 12.96875 4.585938 12.339844 3.867188 L 11.910156 3.371094 L 10.589844 3.371094 Z M 13.078125 5.015625 C 13.777344 5.792969 14.359375 6.425781 14.363281 6.425781 C 14.367188 6.425781 14.371094 6.007812 14.371094 5.492188 L 14.371094 4.558594 L 14.066406 4.558594 C 13.832031 4.558594 13.761719 4.550781 13.773438 4.527344 C 13.777344 4.515625 13.871094 4.296875 13.976562 4.050781 L 14.167969 3.601562 L 15.179688 3.601562 C 16.144531 3.601562 16.195312 3.605469 16.183594 3.644531 C 16.175781 3.667969 16.085938 3.878906 15.984375 4.117188 L 15.796875 4.546875 L 15.445312 4.5625 L 15.445312 8.761719 L 14.773438 8.761719 L 14.214844 8.179688 C 13.390625 7.324219 12.933594 6.839844 12.484375 6.351562 L 12.085938 5.914062 L 12.085938 7.800781 L 12.375 7.808594 L 12.660156 7.816406 L 12.527344 8.140625 C 12.449219 8.320312 12.359375 8.535156 12.328125 8.613281 L 12.265625 8.761719 L 10.335938 8.761719 L 10.53125 8.285156 L 10.722656 7.816406 L 11.011719 7.800781 L 11.011719 4.628906 L 10.625 4.628906 C 10.414062 4.628906 10.242188 4.625 10.242188 4.621094 C 10.242188 4.617188 10.351562 4.382812 10.488281 4.105469 L 10.734375 3.601562 L 11.796875 3.601562 Z M 13.078125 5.015625 "/>
<path style=" stroke:none;fill-rule:nonzero;fill:rgb(0%,0%,0%);fill-opacity:1;" d="M 10.613281 4.105469 C 10.511719 4.320312 10.429688 4.5 10.429688 4.503906 C 10.429688 4.507812 10.585938 4.511719 10.777344 4.511719 L 11.128906 4.511719 L 11.128906 7.917969 L 10.960938 7.925781 L 10.792969 7.929688 L 10.65625 8.269531 C 10.582031 8.457031 10.519531 8.617188 10.519531 8.625 C 10.519531 8.636719 10.898438 8.644531 11.359375 8.644531 L 12.195312 8.644531 L 12.222656 8.566406 C 12.242188 8.527344 12.304688 8.367188 12.371094 8.214844 C 12.433594 8.0625 12.480469 7.929688 12.46875 7.925781 C 12.460938 7.917969 12.347656 7.914062 12.214844 7.917969 L 11.96875 7.925781 L 11.96875 5.621094 L 12.054688 5.714844 C 12.144531 5.808594 12.589844 6.296875 12.816406 6.542969 C 12.9375 6.679688 13.035156 6.785156 13.695312 7.476562 C 13.917969 7.710938 14.136719 7.9375 14.171875 7.980469 C 14.210938 8.019531 14.375 8.1875 14.53125 8.347656 L 14.820312 8.644531 L 15.328125 8.644531 L 15.328125 4.445312 L 15.726562 4.429688 L 15.839844 4.164062 C 15.902344 4.015625 15.96875 3.855469 15.992188 3.804688 L 16.027344 3.71875 L 14.234375 3.71875 L 14.136719 3.945312 C 14.082031 4.070312 14.011719 4.234375 13.984375 4.308594 L 13.929688 4.441406 L 14.488281 4.441406 L 14.488281 6.742188 L 14.386719 6.636719 C 14.335938 6.578125 14.105469 6.328125 13.882812 6.078125 C 13.65625 5.828125 13.460938 5.613281 13.449219 5.601562 C 13.4375 5.585938 13.214844 5.34375 12.960938 5.0625 C 12.707031 4.777344 12.410156 4.453125 12.304688 4.335938 C 12.203125 4.222656 12.035156 4.035156 11.929688 3.925781 L 11.746094 3.71875 L 10.804688 3.71875 Z M 10.613281 4.105469 "/>
<path style=" stroke:none;fill-rule:nonzero;fill:rgb(0%,0%,0%);fill-opacity:1;" d="M 18.1875 4.328125 C 17.449219 4.441406 16.785156 4.800781 16.421875 5.28125 C 15.832031 6.054688 15.785156 7.332031 16.3125 8.140625 C 16.648438 8.660156 17.183594 8.992188 17.84375 9.085938 C 18.09375 9.125 18.710938 9.101562 18.945312 9.050781 C 19.546875 8.917969 20.144531 8.527344 20.457031 8.066406 C 20.566406 7.90625 20.722656 7.605469 20.765625 7.46875 L 20.792969 7.382812 L 21.167969 7.386719 L 21.546875 7.394531 L 21.554688 7.550781 C 21.5625 7.703125 21.558594 7.710938 21.507812 7.710938 C 21.457031 7.710938 21.421875 7.777344 21.175781 8.332031 C 21.023438 8.679688 20.894531 8.964844 20.890625 8.976562 C 20.882812 8.984375 21.363281 8.992188 21.957031 8.992188 L 23.035156 8.992188 L 23.023438 8.386719 C 23.015625 8.054688 23.015625 7.78125 23.015625 7.78125 C 23.019531 7.78125 23.261719 8.054688 23.554688 8.386719 L 24.089844 8.992188 L 27.449219 8.992188 L 27.722656 8.390625 C 27.875 8.0625 28.003906 7.773438 28.011719 7.75 C 28.027344 7.710938 28 7.710938 27.699219 7.710938 L 27.371094 7.710938 L 27.371094 6.144531 L 27.769531 6.140625 L 28.167969 6.132812 L 28.515625 5.304688 C 28.707031 4.851562 28.871094 4.453125 28.875 4.425781 L 28.890625 4.371094 L 27.136719 4.378906 L 25.382812 4.382812 L 24.976562 5.257812 L 24.574219 6.132812 L 25.207031 6.140625 C 25.785156 6.144531 25.839844 6.144531 25.867188 6.105469 C 25.894531 6.070312 25.898438 6.183594 25.886719 6.882812 C 25.875 7.328125 25.863281 7.703125 25.859375 7.710938 C 25.851562 7.71875 25.660156 7.71875 25.429688 7.71875 C 24.796875 7.710938 24.832031 7.726562 24.34375 7.222656 L 23.945312 6.8125 L 24.078125 6.671875 C 24.335938 6.398438 24.472656 6.101562 24.492188 5.761719 C 24.515625 5.390625 24.40625 5.121094 24.128906 4.839844 C 23.925781 4.640625 23.722656 4.523438 23.4375 4.4375 C 23.257812 4.386719 23.21875 4.382812 22.355469 4.382812 L 21.464844 4.382812 L 21.183594 5.011719 C 21.03125 5.359375 20.90625 5.640625 20.90625 5.648438 C 20.90625 5.652344 20.957031 5.65625 21.015625 5.65625 C 21.082031 5.65625 21.226562 5.664062 21.34375 5.671875 L 21.558594 5.6875 L 21.558594 6.03125 L 21.207031 6.023438 L 20.851562 6.019531 L 20.808594 5.855469 C 20.753906 5.660156 20.613281 5.355469 20.507812 5.195312 C 20.234375 4.800781 19.792969 4.5 19.296875 4.371094 C 19.070312 4.316406 18.433594 4.289062 18.1875 4.328125 Z M 18.910156 4.535156 C 19.488281 4.601562 19.925781 4.828125 20.242188 5.21875 C 20.410156 5.425781 20.5625 5.746094 20.628906 6.027344 L 20.683594 6.238281 L 21.769531 6.238281 L 21.769531 5.449219 L 21.238281 5.433594 L 21.421875 5.027344 L 21.601562 4.617188 L 23.296875 4.617188 L 23.472656 4.6875 C 24.039062 4.898438 24.335938 5.324219 24.265625 5.820312 C 24.238281 6.011719 24.179688 6.179688 24.082031 6.332031 C 24.007812 6.441406 23.804688 6.652344 23.675781 6.742188 L 23.609375 6.789062 L 24.066406 7.265625 C 24.703125 7.933594 24.722656 7.941406 25.644531 7.941406 L 26.109375 7.941406 L 26.109375 5.445312 L 26.042969 5.445312 C 25.980469 5.445312 25.960938 5.464844 25.847656 5.683594 L 25.71875 5.925781 L 25.332031 5.933594 C 25.019531 5.9375 24.941406 5.933594 24.941406 5.90625 C 24.941406 5.890625 25.074219 5.59375 25.230469 5.246094 L 25.519531 4.617188 L 27.039062 4.609375 C 27.875 4.609375 28.558594 4.613281 28.558594 4.621094 C 28.558594 4.632812 28.433594 4.929688 28.285156 5.28125 L 28.011719 5.925781 L 27.722656 5.933594 L 27.4375 5.9375 L 27.4375 5.445312 L 27.136719 5.445312 L 27.140625 6.6875 L 27.148438 7.929688 L 27.410156 7.9375 C 27.65625 7.941406 27.675781 7.949219 27.660156 7.988281 C 27.652344 8.011719 27.570312 8.199219 27.476562 8.402344 L 27.304688 8.773438 L 25.757812 8.777344 L 24.207031 8.785156 L 23.519531 8.023438 C 23.140625 7.605469 22.816406 7.25 22.796875 7.234375 C 22.769531 7.210938 22.765625 7.324219 22.785156 7.996094 L 22.800781 8.785156 L 22.015625 8.785156 C 21.585938 8.785156 21.230469 8.777344 21.230469 8.769531 C 21.230469 8.761719 21.3125 8.574219 21.410156 8.347656 L 21.589844 7.941406 L 21.769531 7.941406 L 21.769531 7.171875 L 20.628906 7.171875 L 20.589844 7.304688 C 20.3125 8.261719 19.394531 8.894531 18.277344 8.898438 C 17.246094 8.902344 16.480469 8.34375 16.234375 7.410156 C 16.175781 7.179688 16.152344 6.714844 16.1875 6.4375 C 16.296875 5.617188 16.808594 5 17.636719 4.699219 C 18.070312 4.539062 18.480469 4.488281 18.910156 4.535156 Z M 18.910156 4.535156 "/>
<path style=" stroke:none;fill-rule:nonzero;fill:rgb(0%,0%,0%);fill-opacity:1;" d="M 18.28125 4.65625 C 17.761719 4.714844 17.238281 4.945312 16.882812 5.28125 C 16.625 5.523438 16.472656 5.773438 16.363281 6.140625 C 16.304688 6.332031 16.300781 6.375 16.300781 6.789062 C 16.300781 7.289062 16.328125 7.449219 16.484375 7.769531 C 16.660156 8.132812 16.9375 8.40625 17.316406 8.585938 C 17.644531 8.738281 17.828125 8.773438 18.316406 8.769531 C 18.675781 8.765625 18.75 8.761719 18.949219 8.707031 C 19.222656 8.632812 19.527344 8.496094 19.726562 8.351562 C 19.925781 8.210938 20.175781 7.933594 20.296875 7.722656 C 20.398438 7.546875 20.53125 7.191406 20.53125 7.101562 C 20.53125 7.058594 20.554688 7.054688 21.207031 7.054688 L 21.886719 7.054688 L 21.886719 8.058594 L 21.660156 8.058594 L 21.558594 8.285156 C 21.503906 8.414062 21.445312 8.550781 21.425781 8.589844 L 21.394531 8.667969 L 22.6875 8.667969 L 22.675781 7.839844 C 22.664062 7.054688 22.664062 7.011719 22.703125 7.011719 C 22.726562 7.011719 22.773438 7.042969 22.808594 7.085938 C 22.875 7.167969 22.988281 7.292969 23.226562 7.546875 C 23.363281 7.695312 23.570312 7.917969 24.03125 8.429688 L 24.25 8.667969 L 25.746094 8.660156 L 27.238281 8.65625 L 27.503906 8.070312 L 27.265625 8.058594 L 27.03125 8.046875 L 27.023438 6.6875 L 27.019531 5.328125 L 27.554688 5.328125 L 27.554688 5.820312 L 27.941406 5.820312 L 28.152344 5.3125 C 28.269531 5.035156 28.367188 4.789062 28.378906 4.765625 C 28.394531 4.726562 28.34375 4.722656 26.992188 4.722656 L 25.59375 4.722656 L 25.519531 4.878906 C 25.480469 4.96875 25.371094 5.207031 25.277344 5.410156 C 25.183594 5.613281 25.105469 5.789062 25.105469 5.800781 C 25.105469 5.808594 25.230469 5.820312 25.382812 5.820312 L 25.652344 5.820312 L 25.910156 5.328125 L 26.226562 5.328125 L 26.222656 6.6875 L 26.214844 8.046875 L 25.597656 8.046875 C 24.9375 8.046875 24.820312 8.03125 24.617188 7.929688 C 24.519531 7.882812 24.203125 7.574219 23.625 6.96875 L 23.445312 6.777344 L 23.589844 6.667969 C 23.910156 6.433594 24.101562 6.152344 24.152344 5.84375 C 24.226562 5.371094 23.949219 4.96875 23.429688 4.789062 C 23.277344 4.738281 23.25 4.734375 22.46875 4.734375 L 21.664062 4.734375 L 21.542969 5.015625 C 21.476562 5.167969 21.421875 5.300781 21.421875 5.3125 C 21.417969 5.324219 21.523438 5.328125 21.652344 5.328125 L 21.886719 5.328125 L 21.886719 6.355469 L 20.585938 6.355469 L 20.570312 6.234375 C 20.542969 6.046875 20.425781 5.710938 20.316406 5.515625 C 20.257812 5.402344 20.152344 5.273438 20.03125 5.152344 C 19.875 5 19.800781 4.945312 19.621094 4.855469 C 19.21875 4.65625 18.804688 4.59375 18.28125 4.65625 Z M 18.792969 5.34375 C 19 5.394531 19.253906 5.523438 19.386719 5.644531 C 19.449219 5.703125 19.539062 5.820312 19.582031 5.910156 C 19.667969 6.066406 19.746094 6.324219 19.726562 6.359375 C 19.71875 6.371094 19.546875 6.378906 19.34375 6.378906 L 18.976562 6.378906 L 18.835938 6.710938 L 18.691406 7.042969 L 19.203125 7.050781 C 19.488281 7.054688 19.714844 7.066406 19.714844 7.078125 C 19.714844 7.117188 19.625 7.355469 19.5625 7.476562 C 19.5 7.605469 19.253906 7.875 19.203125 7.875 C 19.191406 7.875 19.171875 7.886719 19.164062 7.90625 C 19.144531 7.960938 18.847656 8.078125 18.664062 8.105469 C 18.117188 8.179688 17.519531 7.886719 17.277344 7.433594 C 17.15625 7.199219 17.117188 7.003906 17.117188 6.660156 C 17.117188 6.042969 17.320312 5.664062 17.765625 5.445312 C 18.085938 5.292969 18.4375 5.257812 18.792969 5.34375 Z M 22.960938 5.363281 C 23.277344 5.429688 23.425781 5.5625 23.445312 5.785156 C 23.457031 5.949219 23.421875 6.03125 23.289062 6.144531 C 23.179688 6.246094 22.890625 6.355469 22.742188 6.355469 L 22.667969 6.355469 L 22.675781 5.875 C 22.675781 5.605469 22.6875 5.375 22.691406 5.359375 C 22.703125 5.320312 22.769531 5.324219 22.960938 5.363281 Z M 22.960938 5.363281 "/>
<path style=" stroke:none;fill-rule:nonzero;fill:rgb(0%,0%,0%);fill-opacity:1;" d="M 18.222656 5.421875 C 17.894531 5.464844 17.578125 5.636719 17.429688 5.851562 C 17.175781 6.21875 17.152344 6.976562 17.378906 7.390625 C 17.59375 7.796875 18.183594 8.070312 18.671875 7.988281 C 19.058594 7.929688 19.378906 7.667969 19.527344 7.292969 L 19.574219 7.171875 L 19.050781 7.167969 L 18.527344 7.160156 L 18.714844 6.714844 L 18.90625 6.265625 L 19.246094 6.257812 C 19.640625 6.25 19.621094 6.269531 19.5 6 C 19.414062 5.8125 19.238281 5.636719 19.058594 5.550781 C 18.816406 5.441406 18.472656 5.386719 18.222656 5.421875 Z M 18.664062 5.65625 C 18.84375 5.691406 19.035156 5.785156 19.152344 5.898438 C 19.203125 5.949219 19.25 6 19.25 6.011719 C 19.25 6.019531 19.136719 6.03125 19 6.035156 L 18.757812 6.042969 L 18.476562 6.703125 C 18.324219 7.066406 18.199219 7.371094 18.199219 7.375 C 18.199219 7.378906 18.425781 7.382812 18.699219 7.382812 C 19.027344 7.382812 19.203125 7.390625 19.203125 7.40625 C 19.203125 7.457031 18.984375 7.648438 18.855469 7.707031 C 18.738281 7.761719 18.699219 7.769531 18.476562 7.765625 C 18.28125 7.765625 18.207031 7.753906 18.097656 7.710938 C 17.816406 7.601562 17.574219 7.359375 17.496094 7.101562 C 17.480469 7.058594 17.464844 6.890625 17.457031 6.730469 C 17.441406 6.308594 17.511719 6.066406 17.703125 5.886719 C 17.921875 5.675781 18.296875 5.585938 18.664062 5.65625 Z M 18.664062 5.65625 "/>
<path style=" stroke:none;fill-rule:nonzero;fill:rgb(0%,0%,0%);fill-opacity:1;" d="M 22.796875 5.757812 C 22.796875 5.925781 22.789062 6.105469 22.777344 6.15625 L 22.765625 6.246094 L 22.855469 6.230469 C 23.003906 6.203125 23.175781 6.113281 23.257812 6.019531 C 23.324219 5.945312 23.332031 5.917969 23.332031 5.804688 C 23.332031 5.683594 23.324219 5.664062 23.25 5.597656 C 23.175781 5.527344 23.097656 5.496094 22.871094 5.460938 L 22.796875 5.445312 Z M 22.796875 5.757812 "/>
<path style=" stroke:none;fill-rule:nonzero;fill:rgb(0%,0%,0%);fill-opacity:1;" d="M 28.863281 4.992188 C 28.714844 5.335938 28.59375 5.625 28.585938 5.636719 C 28.582031 5.644531 28.703125 5.660156 28.855469 5.660156 L 29.132812 5.667969 L 29.136719 6.6875 L 29.144531 7.710938 L 29.074219 7.710938 C 29.011719 7.710938 28.992188 7.738281 28.722656 8.226562 C 28.5625 8.515625 28.40625 8.804688 28.367188 8.871094 L 28.296875 8.992188 L 30.589844 8.992188 L 30.589844 7.289062 L 31.523438 7.289062 L 31.523438 7.496094 C 31.523438 7.691406 31.519531 7.707031 31.472656 7.714844 C 31.4375 7.71875 31.375 7.839844 31.171875 8.28125 C 31.027344 8.589844 30.898438 8.875 30.882812 8.917969 L 30.847656 8.992188 L 31.925781 8.988281 L 33 8.980469 L 33.570312 7.722656 L 33.015625 7.707031 L 33.019531 6.6875 C 33.027344 5.671875 33.027344 5.667969 33.078125 5.660156 C 33.117188 5.65625 33.179688 5.539062 33.398438 5.066406 C 33.546875 4.742188 33.675781 4.460938 33.683594 4.4375 C 33.699219 4.398438 33.636719 4.394531 32.613281 4.394531 L 31.53125 4.394531 L 30.96875 5.644531 L 31.523438 5.660156 L 31.523438 5.9375 L 30.589844 5.9375 L 30.589844 4.371094 L 29.132812 4.371094 Z M 30.378906 5.394531 L 30.378906 6.175781 L 31.046875 6.164062 C 31.414062 6.15625 31.722656 6.144531 31.726562 6.132812 C 31.734375 6.128906 31.746094 5.96875 31.75 5.785156 L 31.761719 5.445312 L 31.535156 5.445312 C 31.414062 5.445312 31.3125 5.441406 31.3125 5.4375 C 31.3125 5.433594 31.394531 5.246094 31.496094 5.023438 L 31.679688 4.617188 L 32.523438 4.609375 L 33.363281 4.605469 L 32.980469 5.433594 L 32.894531 5.441406 L 32.804688 5.449219 L 32.804688 7.941406 L 33.011719 7.949219 L 33.21875 7.953125 L 33.03125 8.367188 L 32.839844 8.785156 L 32.015625 8.785156 C 31.242188 8.785156 31.191406 8.78125 31.207031 8.742188 C 31.214844 8.71875 31.300781 8.53125 31.390625 8.324219 L 31.558594 7.945312 L 31.746094 7.929688 L 31.746094 7.066406 L 31.0625 7.0625 L 30.378906 7.054688 L 30.375 7.914062 L 30.367188 8.773438 L 29.53125 8.777344 C 28.863281 8.785156 28.695312 8.777344 28.703125 8.753906 C 28.707031 8.738281 28.808594 8.550781 28.921875 8.335938 L 29.132812 7.941406 L 29.351562 7.941406 L 29.351562 5.449219 L 28.914062 5.433594 L 29.265625 4.605469 L 30.378906 4.605469 Z M 30.378906 5.394531 "/>
<path style=" stroke:none;fill-rule:nonzero;fill:rgb(0%,0%,0%);fill-opacity:1;" d="M 29.410156 4.714844 C 29.347656 4.726562 29.332031 4.742188 29.261719 4.90625 C 29.21875 5.003906 29.160156 5.136719 29.132812 5.203125 L 29.078125 5.316406 L 29.46875 5.332031 L 29.46875 8.035156 L 29.335938 8.042969 L 29.199219 8.046875 L 29.074219 8.285156 C 29.003906 8.414062 28.933594 8.535156 28.917969 8.550781 C 28.90625 8.570312 28.886719 8.605469 28.878906 8.625 C 28.863281 8.664062 28.90625 8.667969 29.5625 8.667969 L 30.261719 8.667969 L 30.261719 6.964844 L 31.851562 6.964844 L 31.851562 8.058594 L 31.628906 8.058594 L 31.511719 8.320312 C 31.445312 8.464844 31.386719 8.601562 31.378906 8.625 C 31.363281 8.664062 31.398438 8.667969 32.070312 8.667969 L 32.777344 8.667969 L 32.8125 8.589844 C 32.855469 8.507812 33.039062 8.082031 33.039062 8.070312 C 33.039062 8.066406 32.960938 8.058594 32.871094 8.054688 L 32.703125 8.046875 L 32.695312 6.6875 L 32.691406 5.328125 L 32.910156 5.328125 L 33.039062 5.046875 C 33.109375 4.890625 33.171875 4.753906 33.175781 4.742188 C 33.179688 4.730469 32.878906 4.726562 32.464844 4.726562 L 31.75 4.734375 L 31.613281 5.03125 C 31.535156 5.207031 31.492188 5.328125 31.507812 5.332031 C 31.523438 5.335938 31.605469 5.332031 31.695312 5.328125 L 31.851562 5.324219 L 31.851562 6.261719 L 30.261719 6.261719 L 30.261719 4.699219 L 29.875 4.703125 C 29.65625 4.703125 29.449219 4.710938 29.410156 4.714844 Z M 29.410156 4.714844 "/>
<path style=" stroke:none;fill-rule:nonzero;fill:rgb(0%,0%,0%);fill-opacity:1;" d="M 34.488281 4.664062 C 34.488281 4.886719 34.492188 4.933594 34.523438 4.933594 C 34.550781 4.933594 34.554688 4.894531 34.558594 4.726562 L 34.558594 4.523438 L 34.632812 4.726562 C 34.683594 4.871094 34.714844 4.933594 34.742188 4.933594 C 34.765625 4.933594 34.800781 4.871094 34.847656 4.726562 L 34.917969 4.523438 L 34.925781 4.726562 C 34.929688 4.886719 34.9375 4.933594 34.964844 4.933594 C 34.992188 4.933594 35 4.882812 35 4.664062 C 35 4.398438 35 4.394531 34.945312 4.394531 C 34.894531 4.394531 34.882812 4.417969 34.824219 4.59375 C 34.789062 4.703125 34.753906 4.792969 34.742188 4.792969 C 34.734375 4.792969 34.695312 4.703125 34.660156 4.59375 C 34.601562 4.421875 34.585938 4.394531 34.539062 4.394531 C 34.488281 4.394531 34.488281 4.402344 34.488281 4.664062 Z M 34.488281 4.664062 "/>
<path style=" stroke:none;fill-rule:nonzero;fill:rgb(0%,0%,0%);fill-opacity:1;" d="M 1.277344 4.992188 C 1.242188 5.054688 1.003906 5.5625 0.75 6.113281 C 0.429688 6.796875 0.273438 7.164062 0.25 7.265625 C 0.191406 7.570312 0.265625 7.871094 0.472656 8.136719 L 0.558594 8.25 L 0.300781 8.777344 C 0.0273438 9.347656 -0.015625 9.480469 0.00390625 9.710938 C 0.0234375 9.996094 0.253906 10.34375 0.578125 10.585938 L 0.65625 10.644531 L 0.429688 11.128906 C 0.109375 11.816406 0.09375 11.882812 0.1875 12.136719 C 0.257812 12.328125 0.515625 12.578125 0.835938 12.769531 C 1.253906 13.023438 2.679688 13.875 4.640625 15.042969 C 5.675781 15.660156 6.757812 16.304688 7.050781 16.480469 L 7.582031 16.800781 L 5.847656 16.804688 C 4 16.8125 3.859375 16.804688 3.644531 16.703125 C 3.53125 16.648438 3.507812 16.648438 3.171875 16.652344 L 2.824219 16.660156 L 4.414062 18.171875 C 5.289062 19.003906 6.0625 19.71875 6.132812 19.761719 C 6.277344 19.855469 6.421875 19.890625 6.660156 19.890625 C 6.929688 19.890625 7.210938 19.824219 8.136719 19.53125 L 8.984375 19.265625 L 9.382812 19.441406 L 9.785156 19.617188 L 9.929688 19.808594 C 10.316406 20.316406 10.933594 20.910156 11.507812 21.335938 L 11.730469 21.5 L 11.71875 21.648438 C 11.699219 21.847656 11.753906 22.019531 11.914062 22.28125 C 11.988281 22.398438 12.046875 22.496094 12.050781 22.5 C 12.054688 22.503906 12.109375 22.398438 12.171875 22.265625 C 12.234375 22.132812 12.335938 21.976562 12.386719 21.917969 C 12.507812 21.78125 12.730469 21.664062 12.867188 21.664062 C 13.011719 21.664062 13.027344 21.707031 13.007812 22.011719 L 12.996094 22.25 L 13.171875 22.128906 C 13.507812 21.894531 13.679688 21.632812 13.679688 21.347656 C 13.683594 20.925781 13.402344 20.683594 12.949219 20.714844 C 12.851562 20.722656 12.757812 20.730469 12.742188 20.734375 C 12.707031 20.746094 12.375 20.171875 12.402344 20.144531 C 12.414062 20.136719 12.527344 20.074219 12.652344 20.003906 L 12.882812 19.875 L 13.117188 19.921875 C 13.351562 19.964844 13.398438 19.988281 13.457031 20.09375 C 13.46875 20.113281 13.578125 20.136719 13.765625 20.160156 C 14.074219 20.199219 14.320312 20.25 14.359375 20.289062 C 14.402344 20.332031 14.316406 20.4375 14.144531 20.554688 L 13.972656 20.671875 L 14.0625 20.707031 C 14.207031 20.761719 14.625 20.753906 14.828125 20.6875 C 15.203125 20.574219 15.46875 20.300781 15.46875 20.039062 C 15.46875 19.894531 15.347656 19.675781 15.175781 19.5 L 15.019531 19.34375 L 15.011719 19.097656 C 15.007812 18.675781 14.890625 18.464844 14.46875 18.085938 C 14.222656 17.871094 13.4375 17.148438 13.019531 16.75 L 12.828125 16.566406 L 12.855469 16.335938 C 12.875 16.179688 12.878906 15.960938 12.871094 15.6875 L 12.855469 15.269531 L 13.886719 15.265625 L 14.914062 15.257812 L 15.199219 14.566406 L 15.484375 13.871094 L 14.773438 13.871094 L 14.761719 13.328125 C 14.75 13.03125 14.746094 12.40625 14.746094 11.9375 L 14.746094 11.09375 L 14.90625 11.09375 L 14.90625 11.769531 L 15.875 11.769531 L 16.316406 10.75 C 16.554688 10.1875 16.75 9.714844 16.75 9.699219 C 16.75 9.675781 16.261719 9.671875 14.386719 9.671875 L 12.023438 9.671875 L 11.546875 10.707031 C 11.285156 11.28125 11.0625 11.746094 11.054688 11.738281 C 11.046875 11.738281 10.648438 11.292969 10.171875 10.753906 C 9.691406 10.214844 9.230469 9.695312 9.144531 9.601562 C 8.921875 9.351562 6.984375 7.167969 6.5625 6.691406 C 6.144531 6.222656 6.082031 6.113281 6.074219 5.878906 C 6.070312 5.742188 6.046875 5.667969 5.953125 5.4375 L 5.835938 5.160156 L 5.78125 5.285156 C 5.746094 5.355469 5.578125 5.730469 5.398438 6.121094 L 5.074219 6.835938 L 5.066406 7.046875 C 5.054688 7.300781 5.066406 7.328125 5.296875 7.617188 L 5.453125 7.820312 L 5.21875 8.355469 C 5 8.839844 4.980469 8.898438 4.980469 9.03125 C 4.980469 9.164062 4.972656 9.175781 4.941406 9.148438 C 4.804688 9.050781 1.703125 6.179688 1.660156 6.117188 C 1.550781 5.941406 1.503906 5.65625 1.558594 5.507812 C 1.578125 5.464844 1.558594 5.402344 1.476562 5.210938 C 1.421875 5.078125 1.363281 4.945312 1.351562 4.921875 C 1.335938 4.878906 1.328125 4.886719 1.277344 4.992188 Z M 1.378906 5.335938 C 1.425781 5.4375 1.433594 5.476562 1.414062 5.582031 C 1.375 5.839844 1.472656 6.125 1.679688 6.335938 C 1.804688 6.46875 9.582031 13.617188 9.671875 13.683594 C 9.699219 13.703125 9.679688 13.679688 9.632812 13.636719 C 9.585938 13.59375 8.570312 12.613281 7.375 11.460938 C 5.460938 9.613281 5.199219 9.351562 5.152344 9.246094 C 5.070312 9.050781 5.089844 8.964844 5.363281 8.355469 C 5.488281 8.066406 5.597656 7.816406 5.597656 7.804688 C 5.597656 7.792969 5.507812 7.675781 5.402344 7.539062 C 5.089844 7.144531 5.09375 7.113281 5.515625 6.175781 C 5.679688 5.820312 5.8125 5.523438 5.820312 5.519531 C 5.824219 5.515625 5.855469 5.566406 5.890625 5.640625 C 5.929688 5.730469 5.949219 5.816406 5.949219 5.902344 C 5.949219 6.054688 6.011719 6.238281 6.121094 6.378906 C 6.160156 6.4375 7.183594 7.59375 8.386719 8.945312 C 10.824219 11.6875 11.316406 12.25 11.492188 12.46875 C 12.054688 13.183594 12.484375 14.117188 12.660156 14.980469 C 12.71875 15.273438 12.722656 15.351562 12.726562 15.820312 C 12.726562 16.101562 12.71875 16.398438 12.707031 16.476562 L 12.6875 16.621094 L 13.140625 17.046875 C 13.386719 17.28125 13.800781 17.664062 14.054688 17.894531 C 14.644531 18.425781 14.707031 18.492188 14.796875 18.675781 C 14.867188 18.820312 14.875 18.84375 14.875 19.113281 L 14.878906 19.394531 L 15.046875 19.550781 C 15.285156 19.78125 15.378906 19.957031 15.339844 20.125 C 15.316406 20.230469 15.117188 20.421875 14.949219 20.496094 C 14.769531 20.574219 14.640625 20.605469 14.429688 20.625 L 14.265625 20.640625 L 14.332031 20.589844 C 14.429688 20.515625 14.519531 20.347656 14.503906 20.273438 C 14.472656 20.164062 14.167969 20.066406 13.714844 20.019531 C 13.570312 20.003906 13.550781 19.996094 13.511719 19.929688 C 13.464844 19.859375 13.449219 19.851562 13.199219 19.800781 C 13.054688 19.773438 12.910156 19.75 12.886719 19.75 C 12.824219 19.75 12.210938 20.089844 12.21875 20.113281 C 12.222656 20.125 12.316406 20.304688 12.429688 20.515625 C 12.621094 20.875 12.636719 20.894531 12.691406 20.882812 C 13.011719 20.816406 13.144531 20.816406 13.300781 20.898438 C 13.394531 20.945312 13.5 21.058594 13.535156 21.148438 C 13.582031 21.261719 13.5625 21.441406 13.496094 21.582031 C 13.4375 21.707031 13.191406 21.992188 13.144531 21.992188 C 13.132812 21.992188 13.125 21.9375 13.128906 21.867188 C 13.140625 21.707031 13.089844 21.578125 13.007812 21.558594 C 12.707031 21.484375 12.289062 21.730469 12.121094 22.078125 C 12.085938 22.160156 12.046875 22.222656 12.039062 22.222656 C 12.03125 22.222656 11.992188 22.160156 11.949219 22.085938 C 11.847656 21.898438 11.820312 21.734375 11.859375 21.574219 L 11.890625 21.453125 L 11.691406 21.308594 C 11.046875 20.84375 10.394531 20.210938 9.953125 19.621094 C 9.867188 19.511719 9.84375 19.496094 9.425781 19.316406 L 8.988281 19.125 L 8.289062 19.34375 C 7.039062 19.738281 6.832031 19.789062 6.542969 19.761719 C 6.25 19.730469 6.25 19.734375 4.625 18.191406 C 3.816406 17.414062 3.148438 16.777344 3.148438 16.769531 C 3.148438 16.738281 3.515625 16.789062 3.601562 16.828125 C 3.804688 16.929688 3.871094 16.933594 5.796875 16.945312 C 6.8125 16.949219 7.738281 16.949219 7.859375 16.945312 L 8.082031 16.9375 L 7.964844 16.871094 C 7.730469 16.734375 2.351562 13.527344 1.234375 12.859375 C 0.445312 12.386719 0.261719 12.191406 0.28125 11.878906 C 0.289062 11.757812 0.328125 11.652344 0.558594 11.164062 L 0.824219 10.597656 L 0.753906 10.546875 C 0.457031 10.335938 0.257812 10.109375 0.183594 9.910156 C 0.128906 9.761719 0.121094 9.507812 0.167969 9.375 C 0.1875 9.324219 0.320312 9.042969 0.460938 8.75 L 0.71875 8.21875 L 0.613281 8.101562 C 0.417969 7.882812 0.335938 7.617188 0.375 7.332031 C 0.390625 7.214844 0.484375 6.992188 0.851562 6.199219 C 1.105469 5.65625 1.316406 5.214844 1.320312 5.214844 C 1.324219 5.214844 1.351562 5.269531 1.378906 5.335938 Z M 16.402344 9.933594 C 16.402344 9.953125 16.25 10.316406 16.066406 10.746094 L 15.726562 11.523438 L 15.4375 11.53125 L 15.140625 11.539062 L 15.140625 10.859375 L 14.535156 10.859375 L 14.535156 14.101562 L 15.136719 14.117188 L 14.945312 14.574219 L 14.757812 15.039062 L 12.8125 15.039062 L 12.785156 14.921875 C 12.773438 14.855469 12.761719 14.789062 12.761719 14.773438 C 12.761719 14.757812 12.816406 14.601562 12.886719 14.429688 L 13.011719 14.117188 L 13.15625 14.109375 L 13.296875 14.101562 L 13.296875 10.859375 L 12.65625 10.859375 L 12.460938 11.199219 L 12.265625 11.535156 L 11.847656 11.535156 C 11.621094 11.535156 11.429688 11.53125 11.429688 11.523438 C 11.429688 11.511719 12.148438 9.957031 12.171875 9.917969 C 12.175781 9.910156 13.128906 9.902344 14.292969 9.902344 C 16.027344 9.902344 16.402344 9.90625 16.402344 9.933594 Z M 13.066406 12.480469 L 13.066406 13.871094 L 12.867188 13.871094 L 12.761719 14.128906 L 12.660156 14.390625 L 12.585938 14.183594 C 12.304688 13.402344 11.910156 12.742188 11.296875 12.027344 L 11.085938 11.78125 L 11.742188 11.773438 L 12.402344 11.769531 L 12.59375 11.433594 L 12.789062 11.09375 L 13.066406 11.09375 Z M 13.066406 12.480469 "/>
<path style=" stroke:none;fill-rule:nonzero;fill:rgb(0%,0%,0%);fill-opacity:1;" d="M 0.929688 6.292969 C 0.730469 6.730469 0.550781 7.144531 0.527344 7.207031 C 0.445312 7.449219 0.492188 7.746094 0.648438 7.964844 C 0.726562 8.070312 0.835938 8.160156 2.03125 9.125 C 2.402344 9.425781 3.878906 10.625 4.175781 10.863281 C 4.308594 10.972656 4.523438 11.144531 4.652344 11.25 C 4.953125 11.492188 5.71875 12.109375 6.089844 12.414062 C 6.25 12.542969 6.5625 12.796875 6.789062 12.980469 C 7.273438 13.371094 7.65625 13.679688 8.046875 14 C 8.203125 14.128906 8.367188 14.257812 8.410156 14.289062 C 8.476562 14.339844 8.488281 14.363281 8.496094 14.472656 C 8.496094 14.539062 8.492188 14.59375 8.484375 14.59375 C 8.472656 14.59375 8.40625 14.546875 8.332031 14.488281 C 8.261719 14.429688 7.875 14.132812 7.476562 13.828125 C 7.078125 13.523438 6.683594 13.222656 6.601562 13.15625 C 6.371094 12.976562 5.089844 11.996094 4.78125 11.761719 C 4.140625 11.269531 1.484375 9.226562 1.28125 9.070312 C 0.96875 8.828125 0.871094 8.675781 0.839844 8.394531 L 0.824219 8.273438 L 0.546875 8.847656 C 0.285156 9.386719 0.269531 9.429688 0.257812 9.589844 C 0.25 9.746094 0.253906 9.773438 0.320312 9.917969 C 0.429688 10.144531 0.597656 10.292969 1.363281 10.824219 C 1.734375 11.078125 2.296875 11.46875 2.609375 11.6875 C 3.691406 12.445312 7.359375 15 7.941406 15.402344 C 8.523438 15.808594 8.527344 15.808594 8.554688 15.917969 C 8.574219 15.980469 8.582031 16.046875 8.578125 16.070312 C 8.574219 16.105469 8.09375 15.792969 6.390625 14.660156 C 5.191406 13.863281 3.535156 12.765625 2.714844 12.21875 C 1.894531 11.675781 1.1875 11.203125 1.148438 11.164062 C 1.054688 11.078125 0.980469 10.910156 0.957031 10.75 L 0.941406 10.625 L 0.675781 11.191406 C 0.378906 11.832031 0.355469 11.914062 0.441406 12.082031 C 0.519531 12.25 0.722656 12.410156 1.214844 12.707031 C 2.0625 13.21875 5.433594 15.226562 7.664062 16.550781 C 8.097656 16.8125 8.464844 17.035156 8.476562 17.046875 C 8.507812 17.078125 4.191406 17.074219 3.941406 17.042969 C 3.832031 17.03125 3.679688 16.992188 3.605469 16.960938 L 3.46875 16.910156 L 3.699219 17.121094 C 3.824219 17.238281 4 17.40625 4.09375 17.496094 C 4.191406 17.589844 4.316406 17.683594 4.40625 17.726562 L 4.558594 17.800781 L 6.332031 17.824219 L 6.460938 17.886719 L 6.589844 17.945312 L 6.472656 17.960938 C 6.207031 17.996094 5.066406 18.074219 4.96875 18.066406 C 4.910156 18.058594 4.792969 18.027344 4.710938 17.992188 L 4.558594 17.933594 L 4.792969 18.160156 C 5.175781 18.53125 5.320312 18.660156 5.421875 18.703125 C 5.585938 18.777344 5.664062 18.769531 6.996094 18.558594 L 7.734375 18.441406 L 7.859375 18.503906 C 7.929688 18.539062 7.980469 18.570312 7.964844 18.574219 C 7.941406 18.585938 7.050781 18.777344 6.414062 18.914062 C 6.027344 18.996094 5.820312 18.996094 5.632812 18.914062 C 5.535156 18.871094 5.550781 18.890625 5.84375 19.175781 C 6.320312 19.632812 6.351562 19.648438 6.738281 19.628906 C 7.03125 19.609375 7.027344 19.609375 8.132812 19.269531 L 9 19 L 9.472656 19.203125 L 9.941406 19.40625 L 10.046875 19.550781 C 10.324219 19.910156 10.828125 20.445312 11.210938 20.777344 C 11.378906 20.925781 11.746094 21.203125 11.925781 21.324219 L 12.058594 21.414062 L 12.015625 21.503906 C 11.960938 21.605469 11.953125 21.765625 11.996094 21.898438 L 12.023438 21.992188 L 12.097656 21.875 C 12.335938 21.523438 12.855469 21.3125 13.105469 21.472656 C 13.167969 21.511719 13.226562 21.632812 13.226562 21.726562 C 13.226562 21.792969 13.226562 21.792969 13.289062 21.703125 C 13.4375 21.484375 13.472656 21.304688 13.394531 21.152344 C 13.332031 21.019531 13.226562 20.964844 13.03125 20.964844 C 12.9375 20.964844 12.808594 20.980469 12.746094 21 C 12.683594 21.019531 12.621094 21.035156 12.605469 21.035156 C 12.578125 21.035156 12.089844 20.167969 12.070312 20.082031 C 12.0625 20.050781 12.144531 19.996094 12.417969 19.839844 C 12.832031 19.605469 12.792969 19.667969 12.820312 19.175781 C 12.878906 18.121094 12.519531 17.035156 11.773438 16.042969 C 11.617188 15.832031 11.167969 15.367188 10.8125 15.039062 C 10.722656 14.957031 10.566406 14.808594 10.460938 14.710938 C 9.949219 14.230469 9.5625 13.867188 8.910156 13.265625 C 8.519531 12.898438 8.109375 12.515625 8 12.414062 C 7.789062 12.214844 7.351562 11.804688 6.777344 11.269531 C 6.585938 11.089844 6.359375 10.878906 6.273438 10.800781 C 6.03125 10.574219 4.433594 9.078125 4.289062 8.945312 C 4.269531 8.929688 4.183594 8.847656 4.101562 8.769531 C 4.019531 8.691406 3.785156 8.472656 3.578125 8.28125 C 3.375 8.09375 3.132812 7.867188 3.042969 7.78125 C 2.953125 7.695312 2.800781 7.554688 2.703125 7.464844 C 1.675781 6.515625 1.46875 6.308594 1.390625 6.144531 C 1.3125 5.980469 1.269531 5.757812 1.289062 5.609375 C 1.292969 5.542969 1.300781 5.492188 1.296875 5.492188 C 1.292969 5.492188 1.128906 5.851562 0.929688 6.292969 Z M 0.929688 6.292969 "/>
<path style=" stroke:none;fill-rule:nonzero;fill:rgb(0%,0%,0%);fill-opacity:1;" d="M 5.550781 6.402344 C 5.191406 7.207031 5.1875 7.191406 5.839844 7.875 C 5.929688 7.96875 6.214844 8.265625 6.472656 8.539062 C 6.730469 8.804688 6.945312 9.03125 6.949219 9.039062 C 6.957031 9.046875 7.078125 9.171875 7.21875 9.320312 C 7.464844 9.578125 7.691406 9.816406 8.207031 10.359375 C 8.34375 10.5 8.558594 10.726562 8.6875 10.859375 C 9.8125 12.027344 10.371094 12.613281 10.382812 12.644531 C 10.40625 12.683594 10.378906 12.890625 10.351562 12.890625 C 10.339844 12.890625 9.320312 11.878906 8.082031 10.644531 C 5.675781 8.242188 5.742188 8.3125 5.695312 8.035156 L 5.679688 7.933594 L 5.460938 8.425781 C 5.34375 8.691406 5.242188 8.953125 5.230469 8.996094 C 5.207031 9.148438 5.304688 9.304688 5.566406 9.542969 C 5.691406 9.660156 5.90625 9.855469 6.039062 9.984375 C 6.269531 10.203125 6.371094 10.300781 6.871094 10.765625 C 6.972656 10.863281 7.199219 11.074219 7.371094 11.234375 C 7.542969 11.394531 7.769531 11.605469 7.871094 11.699219 C 8.210938 12.019531 8.386719 12.183594 8.445312 12.238281 C 8.480469 12.269531 8.648438 12.425781 8.820312 12.585938 C 9.113281 12.859375 9.21875 12.957031 9.679688 13.394531 C 9.777344 13.484375 10.019531 13.710938 10.21875 13.894531 C 10.417969 14.082031 10.640625 14.289062 10.71875 14.359375 C 10.796875 14.433594 10.949219 14.574219 11.058594 14.675781 C 11.691406 15.257812 12.039062 15.699219 12.382812 16.363281 L 12.539062 16.660156 L 12.554688 16.554688 C 12.566406 16.496094 12.582031 16.3125 12.59375 16.144531 C 12.695312 14.804688 12.171875 13.464844 11.023438 12.097656 C 10.921875 11.976562 10.832031 11.871094 10.824219 11.863281 C 10.816406 11.855469 10.738281 11.769531 10.648438 11.664062 C 10.507812 11.503906 10.386719 11.371094 10.300781 11.269531 C 10.285156 11.257812 10.195312 11.15625 10.101562 11.046875 C 10.003906 10.9375 9.921875 10.84375 9.914062 10.835938 C 9.894531 10.816406 9.519531 10.394531 9.355469 10.207031 C 9.269531 10.109375 9.144531 9.96875 9.074219 9.890625 C 8.859375 9.652344 8.625 9.390625 8.421875 9.15625 C 8.3125 9.035156 8.179688 8.882812 8.121094 8.816406 C 7.992188 8.675781 7.90625 8.582031 7.664062 8.304688 C 7.5625 8.1875 7.398438 8.007812 7.300781 7.898438 C 7.082031 7.65625 6.207031 6.671875 6.066406 6.507812 C 5.929688 6.351562 5.832031 6.144531 5.8125 5.984375 L 5.796875 5.851562 Z M 5.550781 6.402344 "/>
<path style=" stroke:none;fill-rule:nonzero;fill:rgb(0%,0%,0%);fill-opacity:1;" d="M 12.613281 16.875 C 12.71875 17.152344 12.828125 17.53125 12.882812 17.808594 C 12.929688 18.046875 12.9375 18.160156 12.9375 18.675781 C 12.9375 19.054688 12.925781 19.335938 12.90625 19.445312 C 12.890625 19.539062 12.882812 19.621094 12.886719 19.628906 C 12.894531 19.632812 13.039062 19.664062 13.210938 19.695312 C 13.511719 19.75 13.574219 19.777344 13.605469 19.867188 C 13.609375 19.875 13.734375 19.910156 13.882812 19.933594 C 14.433594 20.035156 14.605469 20.121094 14.605469 20.3125 C 14.605469 20.375 14.585938 20.421875 14.542969 20.472656 L 14.484375 20.542969 L 14.605469 20.507812 C 14.898438 20.421875 15.140625 20.269531 15.203125 20.136719 C 15.28125 19.976562 15.210938 19.84375 14.890625 19.5625 L 14.695312 19.394531 L 14.574219 19.414062 C 14.359375 19.441406 14.367188 19.445312 14.335938 19.339844 C 14.300781 19.222656 14.191406 19.019531 14.078125 18.855469 C 14.03125 18.796875 14.003906 18.746094 14.007812 18.746094 C 14.015625 18.746094 14.171875 18.890625 14.355469 19.0625 C 14.539062 19.234375 14.699219 19.378906 14.714844 19.378906 C 14.75 19.378906 14.773438 19.203125 14.761719 19.019531 C 14.757812 18.921875 14.734375 18.828125 14.6875 18.742188 C 14.628906 18.613281 14.53125 18.515625 13.679688 17.730469 C 13.269531 17.355469 13.167969 17.257812 13.132812 17.230469 C 13.082031 17.183594 12.644531 16.78125 12.605469 16.746094 C 12.550781 16.691406 12.550781 16.71875 12.613281 16.875 Z M 12.613281 16.875 "/>
<path style=" stroke:none;fill-rule:nonzero;fill:rgb(0%,0%,0%);fill-opacity:1;" d="M 12.136719 10.246094 C 12.085938 10.359375 11.957031 10.640625 11.851562 10.871094 C 11.746094 11.101562 11.652344 11.300781 11.640625 11.316406 C 11.632812 11.328125 11.617188 11.355469 11.609375 11.378906 C 11.597656 11.417969 11.617188 11.421875 11.898438 11.414062 L 12.207031 11.410156 L 12.589844 10.753906 L 13 10.75 L 13.414062 10.742188 L 13.414062 14.21875 L 13.101562 14.21875 L 12.960938 14.558594 C 12.886719 14.746094 12.828125 14.902344 12.835938 14.910156 C 12.839844 14.914062 13.257812 14.921875 13.761719 14.921875 L 14.679688 14.921875 L 14.808594 14.613281 C 14.878906 14.441406 14.941406 14.285156 14.949219 14.261719 C 14.960938 14.226562 14.9375 14.21875 14.6875 14.21875 L 14.417969 14.21875 L 14.417969 10.742188 L 15.257812 10.742188 L 15.257812 11.421875 L 15.648438 11.421875 L 15.910156 10.804688 C 16.054688 10.46875 16.1875 10.160156 16.207031 10.117188 L 16.238281 10.042969 L 12.230469 10.042969 Z M 12.136719 10.246094 "/>
<path style=" stroke:none;fill-rule:nonzero;fill:rgb(0%,0%,0%);fill-opacity:1;" d="M 30.753906 9.679688 C 30.164062 9.804688 29.699219 10.167969 29.46875 10.683594 C 29.378906 10.886719 29.34375 11.050781 29.34375 11.292969 C 29.34375 11.664062 29.46875 11.953125 29.730469 12.199219 C 30.035156 12.488281 30.363281 12.640625 30.796875 12.691406 C 30.941406 12.707031 31.074219 12.734375 31.085938 12.746094 C 31.101562 12.761719 31.113281 12.8125 31.113281 12.859375 C 31.113281 13.023438 30.945312 13.09375 30.613281 13.074219 C 30.421875 13.058594 30.378906 13.03125 30.238281 12.839844 L 30.132812 12.691406 L 29.816406 12.664062 C 29.335938 12.621094 29.375 12.617188 29.375 12.730469 C 29.375 12.789062 29.363281 12.878906 29.359375 12.9375 C 29.34375 13.027344 29.335938 13.035156 29.308594 13.007812 C 29.292969 12.988281 28.933594 12.238281 28.515625 11.339844 L 27.753906 9.703125 L 26.832031 9.703125 L 26.003906 11.445312 L 25.304688 11.445312 L 25.042969 12.023438 C 24.898438 12.339844 24.773438 12.617188 24.765625 12.636719 C 24.75 12.679688 24.777344 12.679688 25.101562 12.679688 L 25.453125 12.679688 L 25.382812 12.84375 L 25.308594 13.007812 L 25.027344 13.003906 L 24.742188 13.003906 L 24.652344 12.882812 C 24.164062 12.246094 23.960938 11.972656 23.96875 11.953125 C 23.972656 11.9375 24.632812 11.15625 25.460938 10.183594 L 25.867188 9.703125 L 25.550781 9.691406 C 25.375 9.683594 24.949219 9.675781 24.597656 9.671875 L 23.96875 9.671875 L 23.882812 9.820312 C 23.804688 9.964844 23.167969 10.859375 23.144531 10.859375 C 23.136719 10.859375 22.949219 10.59375 22.722656 10.269531 L 22.3125 9.683594 L 20.925781 9.683594 L 20.632812 10.289062 L 20.34375 10.894531 L 20.882812 10.90625 L 21.417969 10.917969 L 21.828125 11.472656 C 22.054688 11.785156 22.226562 12.042969 22.21875 12.058594 C 22.152344 12.167969 21.46875 13.027344 21.347656 13.148438 C 21.164062 13.328125 20.789062 13.664062 20.351562 14.027344 L 20.039062 14.289062 L 22.222656 14.289062 L 22.285156 14.203125 C 22.546875 13.824219 23.035156 13.148438 23.046875 13.148438 C 23.058594 13.148438 23.253906 13.410156 23.484375 13.730469 L 23.902344 14.3125 L 25.207031 14.308594 L 26.511719 14.300781 L 26.789062 13.699219 C 26.941406 13.367188 27.070312 13.074219 27.078125 13.050781 C 27.089844 13.011719 27.078125 13.007812 26.953125 13.007812 C 26.871094 13.007812 26.808594 13.003906 26.808594 12.996094 C 26.808594 12.988281 26.839844 12.914062 26.875 12.832031 L 26.945312 12.679688 L 27.257812 12.679688 L 27.566406 12.683594 L 27.945312 13.480469 L 28.320312 14.277344 L 29.15625 14.292969 C 29.757812 14.300781 30.023438 14.3125 30.097656 14.335938 C 30.261719 14.386719 30.84375 14.382812 31.03125 14.332031 C 31.375 14.238281 31.796875 13.980469 32.011719 13.738281 C 32.308594 13.410156 32.453125 13.074219 32.472656 12.6875 C 32.496094 12.253906 32.394531 11.960938 32.144531 11.710938 C 31.894531 11.464844 31.625 11.355469 31.113281 11.292969 C 30.816406 11.253906 30.714844 11.214844 30.691406 11.128906 C 30.660156 11.003906 30.75 10.929688 30.929688 10.929688 C 31.09375 10.929688 31.148438 10.953125 31.175781 11.042969 C 31.1875 11.089844 31.207031 11.136719 31.21875 11.144531 C 31.230469 11.160156 31.972656 11.285156 31.976562 11.273438 C 32.03125 11.199219 32.476562 10.171875 32.464844 10.164062 C 32.453125 10.15625 32.324219 10.074219 32.1875 9.988281 C 31.761719 9.71875 31.625 9.671875 31.195312 9.660156 C 31.003906 9.652344 30.851562 9.660156 30.753906 9.679688 Z M 31.628906 9.945312 C 31.703125 9.972656 31.863281 10.054688 31.984375 10.128906 L 32.199219 10.257812 L 32.144531 10.378906 C 31.867188 10.996094 31.839844 11.046875 31.792969 11.042969 C 31.765625 11.042969 31.664062 11.03125 31.570312 11.015625 L 31.394531 10.984375 L 31.367188 10.894531 C 31.335938 10.773438 31.265625 10.742188 31.011719 10.726562 C 30.769531 10.714844 30.644531 10.742188 30.554688 10.835938 C 30.5 10.898438 30.484375 10.929688 30.476562 11.054688 C 30.457031 11.359375 30.585938 11.457031 31.078125 11.511719 C 31.75 11.589844 32.121094 11.847656 32.234375 12.332031 C 32.28125 12.535156 32.277344 12.683594 32.222656 12.898438 C 32.105469 13.367188 31.730469 13.796875 31.257812 14.011719 C 30.921875 14.160156 30.503906 14.199219 30.109375 14.113281 C 29.949219 14.078125 29.820312 14.074219 29.199219 14.078125 L 28.476562 14.085938 L 27.710938 12.46875 L 26.796875 12.46875 L 26.617188 12.847656 L 26.4375 13.230469 L 26.589844 13.234375 C 26.671875 13.242188 26.738281 13.246094 26.738281 13.253906 C 26.738281 13.257812 26.65625 13.441406 26.554688 13.664062 L 26.371094 14.070312 L 25.191406 14.074219 L 24.015625 14.082031 L 23.539062 13.425781 C 23.277344 13.066406 23.058594 12.773438 23.050781 12.773438 C 23.039062 12.773438 22.574219 13.398438 22.257812 13.839844 L 22.089844 14.082031 L 21.363281 14.082031 C 20.75 14.082031 20.644531 14.074219 20.671875 14.046875 C 20.691406 14.03125 20.855469 13.890625 21.035156 13.734375 C 21.214844 13.582031 21.433594 13.378906 21.527344 13.28125 C 21.730469 13.078125 22.519531 12.070312 22.507812 12.035156 C 22.488281 11.988281 21.621094 10.808594 21.554688 10.742188 L 21.484375 10.671875 L 21.101562 10.671875 C 20.726562 10.671875 20.714844 10.671875 20.730469 10.625 C 20.738281 10.601562 20.816406 10.429688 20.90625 10.242188 L 21.070312 9.902344 L 22.1875 9.902344 L 22.414062 10.222656 C 23.027344 11.097656 23.125 11.234375 23.140625 11.234375 C 23.148438 11.234375 23.367188 10.9375 23.621094 10.578125 C 23.878906 10.21875 24.097656 9.917969 24.113281 9.914062 C 24.125 9.90625 24.425781 9.90625 24.773438 9.90625 L 25.40625 9.914062 L 24.636719 10.8125 C 24.210938 11.308594 23.824219 11.769531 23.769531 11.832031 C 23.660156 11.980469 23.621094 11.902344 24.121094 12.550781 C 24.320312 12.804688 24.523438 13.066406 24.566406 13.128906 L 24.652344 13.238281 L 25.058594 13.234375 L 25.460938 13.230469 L 25.609375 12.878906 C 25.691406 12.683594 25.765625 12.511719 25.773438 12.488281 C 25.785156 12.449219 25.757812 12.445312 25.445312 12.445312 C 25.261719 12.445312 25.105469 12.441406 25.105469 12.4375 C 25.105469 12.429688 25.183594 12.253906 25.277344 12.046875 L 25.449219 11.664062 L 26.160156 11.640625 L 26.574219 10.773438 L 26.984375 9.902344 L 27.59375 9.902344 L 28.359375 11.542969 C 28.777344 12.441406 29.140625 13.195312 29.164062 13.207031 C 29.199219 13.234375 29.4375 13.285156 29.519531 13.285156 C 29.550781 13.285156 29.558594 13.242188 29.570312 13.085938 C 29.578125 12.972656 29.589844 12.882812 29.59375 12.878906 C 29.59375 12.875 29.691406 12.882812 29.804688 12.894531 C 29.949219 12.90625 30.019531 12.921875 30.035156 12.945312 C 30.078125 13.027344 30.210938 13.179688 30.261719 13.21875 C 30.34375 13.277344 30.636719 13.320312 30.828125 13.300781 C 31.171875 13.269531 31.335938 13.125 31.335938 12.851562 C 31.335938 12.722656 31.28125 12.601562 31.199219 12.550781 C 31.164062 12.527344 31.039062 12.5 30.863281 12.476562 C 30.550781 12.441406 30.324219 12.367188 30.117188 12.230469 C 29.675781 11.933594 29.496094 11.535156 29.585938 11.042969 C 29.65625 10.664062 29.996094 10.238281 30.378906 10.046875 C 30.667969 9.90625 30.800781 9.878906 31.171875 9.890625 C 31.425781 9.894531 31.515625 9.90625 31.628906 9.945312 Z M 31.628906 9.945312 "/>
<path style=" stroke:none;fill-rule:nonzero;fill:rgb(0%,0%,0%);fill-opacity:1;" d="M 30.671875 10.050781 C 30.324219 10.164062 30.066406 10.351562 29.890625 10.613281 C 29.722656 10.859375 29.671875 11.039062 29.683594 11.308594 C 29.699219 11.578125 29.761719 11.761719 29.898438 11.90625 C 30.011719 12.027344 30.214844 12.171875 30.390625 12.25 C 30.527344 12.3125 30.816406 12.375 30.976562 12.375 C 31.324219 12.375 31.53125 12.6875 31.425781 13.039062 C 31.339844 13.320312 30.953125 13.476562 30.496094 13.40625 C 30.273438 13.371094 30.160156 13.304688 30.035156 13.140625 L 29.929688 13.003906 L 29.808594 13.011719 L 29.691406 13.019531 L 29.683594 13.136719 C 29.683594 13.199219 29.671875 13.285156 29.664062 13.332031 L 29.652344 13.410156 L 29.472656 13.398438 C 29.277344 13.386719 29.109375 13.328125 29.046875 13.25 C 29.027344 13.226562 28.675781 12.488281 28.269531 11.613281 L 27.527344 10.019531 L 27.054688 10.019531 L 26.640625 10.890625 L 26.226562 11.757812 L 25.878906 11.765625 L 25.527344 11.773438 L 25.488281 11.84375 C 25.46875 11.882812 25.417969 12 25.371094 12.105469 C 25.324219 12.207031 25.28125 12.308594 25.277344 12.324219 C 25.265625 12.347656 25.339844 12.355469 25.605469 12.355469 C 25.792969 12.355469 25.945312 12.359375 25.945312 12.371094 C 25.945312 12.382812 25.851562 12.601562 25.742188 12.867188 L 25.535156 13.34375 L 24.605469 13.34375 L 24.257812 12.902344 C 23.75 12.246094 23.5625 12 23.550781 11.972656 C 23.542969 11.953125 23.769531 11.675781 24.042969 11.351562 C 24.320312 11.023438 24.652344 10.632812 24.773438 10.488281 C 24.898438 10.34375 25.039062 10.175781 25.089844 10.121094 L 25.183594 10.019531 L 24.152344 10.019531 L 23.65625 10.71875 C 23.382812 11.105469 23.148438 11.421875 23.132812 11.417969 C 23.121094 11.417969 22.992188 11.246094 22.847656 11.039062 C 22.703125 10.832031 22.484375 10.515625 22.363281 10.339844 L 22.136719 10.019531 L 21.136719 10.019531 L 21.011719 10.28125 L 20.886719 10.546875 L 21.210938 10.558594 L 21.53125 10.570312 L 21.617188 10.648438 C 21.683594 10.714844 22.320312 11.566406 22.605469 11.976562 L 22.660156 12.050781 L 22.582031 12.152344 C 21.855469 13.105469 21.542969 13.464844 21.164062 13.773438 L 20.945312 13.953125 L 21.476562 13.960938 C 21.960938 13.964844 22.015625 13.960938 22.050781 13.925781 C 22.085938 13.890625 22.402344 13.464844 22.910156 12.769531 C 22.980469 12.667969 23.050781 12.589844 23.058594 12.59375 C 23.070312 12.597656 23.300781 12.90625 23.574219 13.28125 L 24.070312 13.96875 L 25.175781 13.964844 C 25.785156 13.964844 26.285156 13.957031 26.292969 13.949219 C 26.300781 13.941406 26.367188 13.808594 26.4375 13.652344 L 26.570312 13.367188 L 26.417969 13.363281 C 26.339844 13.355469 26.273438 13.34375 26.273438 13.332031 C 26.273438 13.320312 26.375 13.097656 26.5 12.835938 L 26.726562 12.355469 L 27.78125 12.355469 L 28.160156 13.160156 L 28.542969 13.964844 L 29.234375 13.964844 C 29.773438 13.964844 29.964844 13.972656 30.109375 14 C 30.367188 14.050781 30.769531 14.050781 30.960938 14 C 31.398438 13.882812 31.820312 13.550781 32.011719 13.164062 C 32.289062 12.605469 32.132812 11.996094 31.652344 11.773438 C 31.480469 11.691406 31.367188 11.664062 31.078125 11.628906 C 30.558594 11.570312 30.355469 11.417969 30.355469 11.085938 C 30.355469 10.863281 30.488281 10.6875 30.703125 10.625 C 30.828125 10.589844 31.066406 10.597656 31.230469 10.640625 C 31.378906 10.679688 31.453125 10.726562 31.453125 10.789062 C 31.453125 10.871094 31.507812 10.910156 31.640625 10.921875 L 31.769531 10.933594 L 31.914062 10.621094 L 32.054688 10.300781 L 31.96875 10.246094 C 31.675781 10.050781 31.484375 9.996094 31.113281 10 C 30.886719 10 30.804688 10.007812 30.671875 10.050781 Z M 27.394531 11.4375 C 27.441406 11.566406 27.492188 11.691406 27.496094 11.726562 L 27.515625 11.792969 L 27.230469 11.792969 C 26.894531 11.792969 26.910156 11.84375 27.109375 11.390625 C 27.257812 11.042969 27.230469 11.039062 27.394531 11.4375 Z M 27.394531 11.4375 "/>
<path style=" stroke:none;fill-rule:nonzero;fill:rgb(0%,0%,0%);fill-opacity:1;" d="M 16.851562 10.269531 C 16.703125 10.601562 16.589844 10.878906 16.589844 10.886719 C 16.589844 10.898438 16.710938 10.90625 16.855469 10.90625 L 17.125 10.90625 L 17.125 12.089844 C 17.121094 12.742188 17.113281 13.320312 17.105469 13.375 C 17.09375 13.425781 16.984375 13.652344 16.859375 13.871094 C 16.734375 14.09375 16.640625 14.277344 16.648438 14.285156 C 16.65625 14.296875 17.34375 14.300781 18.171875 14.300781 L 19.679688 14.300781 L 19.800781 14.238281 C 19.863281 14.207031 19.953125 14.136719 19.996094 14.085938 C 20.066406 14.011719 20.570312 13.160156 20.617188 13.046875 C 20.628906 13.007812 20.566406 13.007812 19.578125 13.007812 L 18.523438 13.007812 L 18.523438 12.703125 L 20.007812 12.703125 L 20.28125 12.113281 C 20.433594 11.792969 20.558594 11.507812 20.570312 11.484375 C 20.582031 11.445312 20.523438 11.445312 19.554688 11.445312 L 18.523438 11.445312 L 18.523438 10.90625 L 18.808594 10.90625 L 18.792969 11.164062 L 19.890625 11.164062 L 20.257812 10.429688 C 20.460938 10.023438 20.625 9.6875 20.625 9.683594 C 20.625 9.675781 19.835938 9.671875 18.867188 9.671875 L 17.109375 9.671875 Z M 20.25 9.917969 C 20.25 9.929688 20.136719 10.164062 20 10.441406 L 19.75 10.941406 L 19.015625 10.957031 L 19.015625 10.695312 L 18.316406 10.695312 L 18.316406 11.652344 L 19.273438 11.652344 C 19.800781 11.652344 20.230469 11.660156 20.230469 11.667969 C 20.230469 11.679688 20.148438 11.863281 20.050781 12.078125 L 19.871094 12.46875 L 18.292969 12.46875 L 18.292969 12.765625 C 18.292969 12.933594 18.296875 13.105469 18.304688 13.152344 L 18.320312 13.242188 L 19.285156 13.246094 L 20.246094 13.253906 L 20.066406 13.558594 C 19.96875 13.730469 19.859375 13.902344 19.820312 13.941406 C 19.6875 14.082031 19.722656 14.082031 18.300781 14.082031 C 17.589844 14.082031 17.007812 14.070312 17.011719 14.0625 C 17.019531 14.050781 17.085938 13.921875 17.171875 13.773438 L 17.324219 13.507812 L 17.332031 12.089844 L 17.335938 10.671875 L 17.132812 10.671875 C 16.984375 10.671875 16.9375 10.667969 16.945312 10.644531 C 16.953125 10.628906 17.023438 10.453125 17.105469 10.257812 L 17.25 9.902344 L 18.75 9.902344 C 19.578125 9.902344 20.253906 9.910156 20.25 9.917969 Z M 20.25 9.917969 "/>
<path style=" stroke:none;fill-rule:nonzero;fill:rgb(0%,0%,0%);fill-opacity:1;" d="M 17.21875 10.269531 C 17.164062 10.410156 17.117188 10.535156 17.109375 10.550781 C 17.097656 10.574219 17.140625 10.582031 17.273438 10.582031 L 17.453125 10.582031 L 17.445312 12.042969 L 17.441406 13.507812 L 17.320312 13.734375 L 17.195312 13.964844 L 18.402344 13.964844 C 19.550781 13.964844 19.613281 13.960938 19.683594 13.917969 C 19.746094 13.878906 19.980469 13.523438 20.03125 13.390625 C 20.042969 13.363281 19.9375 13.355469 19.121094 13.355469 L 18.199219 13.355469 L 18.199219 12.355469 L 19.800781 12.355469 L 19.933594 12.066406 L 20.0625 11.78125 L 19.132812 11.773438 L 18.199219 11.769531 L 18.199219 10.582031 L 19.132812 10.582031 L 19.132812 10.835938 L 19.679688 10.835938 L 19.886719 10.429688 L 20.089844 10.019531 L 17.320312 10.019531 Z M 17.21875 10.269531 "/>
</g>
</svg>
