<?xml version="1.0" encoding="UTF-8"?>
<svg xmlns="http://www.w3.org/2000/svg" xmlns:xlink="http://www.w3.org/1999/xlink" width="35pt" height="25pt" viewBox="0 0 35 25" version="1.1">
<defs>
<clipPath id="clip1">
  <path d="M 7.25 0 L 27.851562 0 L 27.851562 25 L 7.25 25 Z M 7.25 0 "/>
</clipPath>
</defs>
<g id="surface1">
<g clip-path="url(#clip1)" clip-rule="nonzero">
<path style=" stroke:none;fill-rule:nonzero;fill:rgb(0%,27.058824%,48.627451%);fill-opacity:1;" d="M 7.328125 3.636719 C 8.011719 0.308594 10.300781 0.414062 10.621094 0.417969 C 10.878906 0.421875 11.53125 0.5 11.953125 0.628906 C 12.3125 0.734375 14.585938 1.710938 15.882812 1.390625 C 16.699219 1.234375 17.574219 0.25 17.554688 0.269531 C 17.554688 0.269531 16.714844 2.597656 15.792969 3.277344 C 15.4375 3.535156 14.65625 4.210938 13.128906 4.296875 C 12.007812 4.359375 11.011719 3.925781 10.378906 3.6875 C 10.386719 3.6875 9.511719 3.304688 8.683594 3.53125 C 8.0625 3.703125 7.320312 4.652344 7.25 4.726562 L 7.25 4.5 C 7.25 4.5 7.277344 3.867188 7.328125 3.636719 M 14.035156 6.128906 C 13.992188 6.355469 13.964844 7.304688 13.964844 7.109375 L 13.964844 16.980469 C 13.964844 17 14.144531 18.359375 12.851562 19.441406 C 11.164062 20.851562 9.972656 21.363281 9.933594 21.402344 C 9.941406 21.398438 10.621094 21.03125 10.621094 19.988281 L 10.621094 14.355469 C 10.621094 14.355469 9.832031 14.351562 9.789062 14.351562 C 8.078125 14.285156 8.421875 15.320312 8.421875 15.320312 C 8.421875 15.320312 8.050781 15.210938 7.699219 14.460938 C 7.324219 13.65625 7.332031 12.292969 7.625 11.589844 C 8.023438 10.625 8.820312 10.628906 9.476562 10.628906 C 9.761719 10.628906 10.636719 10.601562 10.636719 10.589844 C 10.621094 7.835938 10.621094 7.949219 10.621094 7.519531 C 10.621094 6.195312 12.304688 5.609375 12.382812 5.578125 L 14.453125 4.726562 C 14.433594 4.785156 14.171875 5.351562 14.035156 6.128906 M 22.214844 0 C 25.144531 1.363281 25.0625 4.859375 25.066406 4.878906 C 25.1875 5.695312 24.9375 7.765625 23.960938 9.335938 C 23.792969 9.609375 22.90625 10.785156 21.515625 11.839844 C 21.71875 11.683594 22.515625 12.472656 22.664062 12.632812 C 23.523438 13.554688 24.082031 15.210938 24.371094 16.148438 C 24.394531 16.222656 25.320312 19.828125 25.394531 19.996094 C 25.699219 20.703125 25.820312 20.945312 26.304688 21.136719 C 26.746094 21.308594 27.117188 21.191406 27.851562 20.800781 C 27.851562 20.800781 26.839844 22.425781 26.558594 22.945312 C 26.238281 23.53125 25.554688 24.8125 25.554688 24.8125 C 25.554688 24.8125 24.386719 24.996094 23.117188 23.980469 C 22.3125 23.332031 21.902344 22 21.699219 21.351562 C 21.65625 21.214844 20.449219 22.777344 20.449219 22.777344 L 18.835938 25 C 18.835938 25 16.699219 23.757812 15.742188 23.496094 C 14.238281 23.042969 12.71875 23.203125 11.835938 23.429688 C 10.5 23.777344 8.710938 24.925781 8.710938 24.925781 C 8.710938 24.925781 8.980469 24.363281 9.238281 24.039062 C 10.222656 22.574219 12.253906 20.546875 14.59375 19.949219 C 15.152344 19.835938 15.699219 19.726562 16.644531 19.78125 C 18.050781 19.859375 20.613281 20.890625 20.511719 20.855469 C 20.683594 20.914062 20.855469 20.972656 21.03125 21.027344 L 21.398438 20.710938 C 21.382812 20.691406 21.269531 20.339844 21.132812 19.78125 C 21.046875 19.425781 20.96875 18.808594 20.964844 18.761719 C 20.960938 18.710938 20.613281 16.605469 20.558594 16.382812 C 20.480469 15.882812 20.121094 14.628906 19.75 14.054688 C 19.648438 13.847656 19.332031 13.570312 19.125 13.46875 C 19.003906 13.417969 18.871094 13.390625 18.734375 13.390625 L 18.699219 14.484375 L 18.703125 16.121094 C 18.703125 16.304688 18.65625 17.015625 18.121094 17.453125 C 17.308594 18.328125 16.023438 18.917969 15.703125 19.042969 C 15.085938 19.332031 14.296875 19.402344 14.238281 19.445312 C 15.164062 18.777344 15.136719 18.058594 15.152344 17.832031 C 15.15625 17.777344 15.183594 12.101562 15.183594 12.101562 L 15.183594 6.429688 C 15.183594 6.410156 15.230469 5.261719 15.566406 4.691406 C 15.820312 4.257812 16.058594 4.007812 16.507812 3.707031 L 19.359375 1.816406 Z M 18.726562 3.890625 L 18.699219 8.226562 C 18.699219 8.226562 18.699219 11.933594 18.726562 12.53125 C 18.757812 13.128906 21.828125 11.703125 22.183594 7.792969 C 22.25 7.328125 22.261719 7.417969 22.214844 6.671875 C 22.171875 6.132812 22.128906 3.109375 20.363281 2.375 C 20.363281 2.375 19.003906 3.058594 18.726562 3.890625 "/>
</g>
</g>
</svg>
