<?xml version="1.0" encoding="UTF-8"?>
<svg xmlns="http://www.w3.org/2000/svg" xmlns:xlink="http://www.w3.org/1999/xlink" width="35pt" height="25pt" viewBox="0 0 35 25" version="1.1">
<g id="surface1">
<path style=" stroke:none;fill-rule:nonzero;fill:rgb(0%,0%,0%);fill-opacity:1;" d="M 34.980469 13.136719 C 34.980469 13.136719 35.003906 9.007812 28.511719 6.019531 C 28.511719 6.019531 29.273438 4.4375 27.71875 3.371094 C 25.695312 1.988281 20.074219 -0.195312 14.121094 0.546875 C 9.058594 1.175781 4.960938 3.105469 1.9375 6.558594 L 3.851562 6.347656 C 2.152344 7.25 -0.980469 11.644531 0.300781 16.152344 L 1.324219 14.613281 C 1.324219 14.613281 0.621094 19.007812 5.574219 22.203125 C 7.160156 23.125 9.152344 23.964844 11.628906 24.675781 C 10.984375 23.691406 10.746094 23.179688 10.203125 22.367188 C 10.203125 22.367188 15.542969 25.808594 21.402344 24.820312 C 21.402344 24.820312 20.785156 24.484375 20.230469 24.078125 C 22.601562 24.195312 23.832031 24.097656 26.121094 23.183594 C 26.121094 23.183594 19.875 21.886719 22.203125 18.832031 C 25.160156 15.578125 31.792969 17.273438 30.894531 20.8125 C 30.894531 20.8125 35.335938 18.511719 34.980469 13.136719 "/>
<path style=" stroke:none;fill-rule:nonzero;fill:rgb(100%,100%,100%);fill-opacity:1;" d="M 17.980469 7.015625 C 17.980469 7.015625 18.335938 6.886719 18.769531 7.039062 C 18.769531 7.039062 18.921875 8.050781 20.324219 8.703125 C 20.324219 8.703125 18.75 8.855469 17.980469 7.015625 "/>
<path style=" stroke:none;fill-rule:nonzero;fill:rgb(100%,81.568627%,27.45098%);fill-opacity:1;" d="M 27.785156 7.070312 C 27.785156 7.070312 33.832031 9.28125 33.980469 13.816406 C 33.980469 13.816406 33.882812 13.617188 33.390625 13.175781 C 33.4375 14.753906 32.65625 15.773438 31.5 16.648438 C 31.5 16.648438 26.386719 10.941406 18.5625 15.574219 C 18.5625 15.574219 17.8125 14.007812 20.339844 11.953125 C 22.511719 10.179688 26.070312 9.183594 27.785156 7.070312 "/>
<path style=" stroke:none;fill-rule:nonzero;fill:rgb(100%,81.568627%,27.45098%);fill-opacity:1;" d="M 21.796875 3.402344 C 25.042969 4.070312 26.816406 5.421875 27.175781 5.71875 C 27.40625 5.199219 27.167969 4.863281 27.167969 4.863281 C 27.167969 4.863281 24.664062 2.785156 19.890625 2.058594 C 10.789062 0.667969 5.394531 5.480469 5.394531 5.480469 C 6.964844 5.257812 8.234375 5.140625 8.234375 5.140625 C 2.277344 8.101562 1.566406 12.605469 1.566406 12.605469 C 3.320312 10.109375 6.164062 9.105469 6.164062 9.105469 C -0.105469 14.375 4.132812 20.386719 8.300781 21.992188 C 0.144531 12.582031 13.855469 6.683594 15.363281 6.660156 C 16.265625 9.121094 18.109375 9.710938 19.683594 9.703125 C 19.125 10.003906 17.023438 10.855469 14.523438 8.371094 C 8.644531 10.164062 2.011719 19.363281 18.316406 23.800781 C 18.316406 23.800781 13.253906 21.335938 13.253906 18.132812 C 13.253906 18.132812 15.808594 22.667969 22.726562 23 C 17.144531 20.671875 16.175781 17.457031 16.183594 16.535156 C 16.183594 16.535156 16.710938 17.804688 19.066406 18.503906 C 19.066406 18.503906 13.195312 13.695312 22.324219 9.199219 L 22.433594 9.152344 C 17.96875 10.089844 17.089844 6.417969 17.089844 6.417969 C 18.8125 5.960938 20.003906 7.089844 21.097656 7.628906 C 22.195312 8.164062 23.972656 8.101562 25.898438 6.941406 C 26.378906 6.65625 26.699219 6.382812 26.90625 6.132812 C 26.222656 5.027344 21.796875 3.402344 21.796875 3.402344 "/>
<path style=" stroke:none;fill-rule:nonzero;fill:rgb(100%,81.568627%,27.45098%);fill-opacity:1;" d="M 18.894531 16.8125 C 18.894531 16.8125 20.023438 18.445312 21.75 17.324219 C 23.480469 16.203125 26.59375 15.121094 29.984375 16.800781 C 29.984375 16.800781 25.761719 12.53125 18.894531 16.8125 "/>
</g>
</svg>
