<?xml version="1.0" encoding="UTF-8"?>
<svg xmlns="http://www.w3.org/2000/svg" xmlns:xlink="http://www.w3.org/1999/xlink" width="35pt" height="25pt" viewBox="0 0 35 25" version="1.1">
<g id="surface1">
<path style=" stroke:none;fill-rule:nonzero;fill:rgb(100%,100%,100%);fill-opacity:1;" d="M 33.191406 5.328125 C 33.035156 5.195312 29.425781 2.308594 21.828125 1.058594 C 21.910156 0.585938 21.992188 0.078125 21.992188 0.078125 L 15.335938 0 C 15.335938 0 15.160156 0.570312 15.078125 0.828125 C 11.402344 1.277344 5.75 3.296875 3.363281 6.164062 L 3.179688 6.382812 L 1.25 12.652344 C 1.25 12.652344 2.542969 12.675781 2.914062 12.683594 C 2.605469 13.890625 2.277344 15.171875 2.277344 15.171875 L 2.292969 15.121094 C 1.484375 17.851562 1.996094 20.363281 3.660156 21.839844 C 4.570312 22.648438 6.496094 23.695312 9.890625 22.84375 C 9.890625 22.847656 9.597656 25 9.597656 25 L 17.96875 22.824219 C 17.96875 22.824219 18.3125 21.027344 18.457031 20.28125 C 19.894531 19.875 28.78125 17.355469 28.78125 17.355469 C 28.78125 17.355469 29.363281 15.242188 29.542969 14.597656 C 30.738281 13.71875 33.535156 11.171875 33.71875 6.496094 L 33.746094 5.78125 Z M 33.191406 5.328125 "/>
<path style=" stroke:none;fill-rule:nonzero;fill:rgb(55.686275%,55.686275%,56.862745%);fill-opacity:1;" d="M 21.515625 1.292969 C 21.578125 0.898438 21.671875 0.347656 21.671875 0.347656 L 15.539062 0.277344 C 15.539062 0.277344 15.304688 1.023438 15.289062 1.074219 C 11.671875 1.472656 5.957031 3.476562 3.574219 6.335938 L 3.425781 6.515625 L 1.617188 12.386719 C 1.617188 12.386719 3.253906 12.414062 3.265625 12.414062 C 2.945312 13.675781 2.542969 15.238281 2.542969 15.238281 L 2.554688 15.199219 C 1.78125 17.824219 2.261719 20.230469 3.839844 21.632812 C 4.746094 22.4375 6.695312 23.480469 10.21875 22.476562 C 10.199219 22.609375 9.921875 24.632812 9.921875 24.632812 L 17.730469 22.605469 C 17.730469 22.605469 18.078125 20.796875 18.21875 20.066406 C 19.421875 19.722656 28.554688 17.132812 28.554688 17.132812 C 28.554688 17.132812 29.144531 15.011719 29.304688 14.433594 C 30.40625 13.644531 33.261719 11.160156 33.445312 6.484375 L 33.46875 5.90625 L 33.019531 5.539062 C 32.863281 5.410156 29.21875 2.503906 21.515625 1.292969 "/>
<path style=" stroke:none;fill-rule:nonzero;fill:rgb(0%,15.686275%,36.862745%);fill-opacity:1;" d="M 20.960938 1.695312 C 20.964844 1.675781 21.105469 0.820312 21.105469 0.820312 L 15.890625 0.757812 L 15.738281 1.246094 C 15.738281 1.246094 15.691406 1.390625 15.652344 1.523438 C 11.847656 1.835938 6.109375 4.042969 3.945312 6.644531 L 3.855469 6.75 L 2.265625 11.917969 C 2.265625 11.917969 3.53125 11.941406 3.878906 11.945312 C 3.605469 13.027344 3.007812 15.359375 3.007812 15.359375 L 3.015625 15.332031 C 2.292969 17.777344 2.722656 20 4.160156 21.273438 C 5.042969 22.0625 7.039062 23.089844 10.792969 21.792969 C 10.714844 22.382812 10.496094 23.988281 10.496094 23.988281 L 17.316406 22.21875 C 17.316406 22.21875 17.691406 20.261719 17.804688 19.683594 C 18.554688 19.46875 28.167969 16.746094 28.167969 16.746094 C 28.167969 16.746094 28.773438 14.550781 28.886719 14.140625 C 29.785156 13.535156 32.78125 11.167969 32.964844 6.464844 L 32.980469 6.125 L 32.714844 5.910156 C 32.558594 5.78125 28.863281 2.835938 20.960938 1.695312 "/>
<path style=" stroke:none;fill-rule:nonzero;fill:rgb(100%,100%,100%);fill-opacity:1;" d="M 20.300781 1.496094 L 16.390625 1.449219 L 16.164062 2.171875 C 12.675781 2.316406 6.652344 4.460938 4.46875 7.082031 L 3.1875 11.25 L 4.757812 11.277344 L 3.671875 15.527344 C 2.367188 19.9375 5.078125 23.550781 11.628906 20.734375 L 11.3125 23.070312 L 16.726562 21.664062 L 17.210938 19.140625 L 27.609375 16.191406 L 28.296875 13.707031 C 28.296875 13.707031 32.082031 11.539062 32.28125 6.441406 C 32.28125 6.441406 28.472656 3.320312 20.171875 2.269531 Z M 20.300781 1.496094 "/>
<path style=" stroke:none;fill-rule:nonzero;fill:rgb(55.686275%,55.686275%,56.862745%);fill-opacity:1;" d="M 15.121094 7.335938 L 14.722656 7.347656 L 11.570312 7.460938 L 9.921875 14.519531 C 9.554688 16.113281 9.128906 16.953125 8.660156 17.011719 C 8.628906 17.015625 8.542969 17.027344 8.480469 16.65625 C 8.425781 16.316406 8.640625 15.421875 8.722656 15.085938 L 10.566406 7.492188 L 5.273438 7.6875 L 4.441406 10.832031 C 4.441406 10.832031 5.570312 10.78125 6.027344 10.761719 C 5.847656 11.4375 4.890625 15.066406 4.890625 15.066406 C 4.722656 15.75 4.554688 16.5625 4.554688 17.355469 C 4.554688 17.746094 4.59375 18.132812 4.695312 18.5 C 4.925781 19.320312 5.75 21.191406 8.429688 20.789062 C 10.578125 20.46875 12.199219 19.828125 13.472656 14.496094 C 13.472656 14.492188 15.121094 7.335938 15.121094 7.335938 "/>
<path style=" stroke:none;fill-rule:nonzero;fill:rgb(55.686275%,55.686275%,56.862745%);fill-opacity:1;" d="M 19.59375 2.144531 L 19.210938 2.152344 L 16.878906 2.199219 C 16.878906 2.199219 16.714844 2.722656 16.644531 2.941406 C 16.3125 2.941406 15.09375 2.9375 15.09375 2.9375 C 15.09375 2.9375 14.996094 3.207031 14.972656 3.265625 C 14.890625 3.269531 14.804688 3.273438 14.804688 3.273438 C 9.78125 3.386719 6.433594 6.226562 6.292969 6.347656 L 5.570312 6.976562 C 5.570312 6.976562 13.015625 6.300781 13.863281 6.222656 C 13.828125 6.363281 13.707031 6.898438 13.707031 6.898438 C 13.707031 6.898438 15.296875 6.867188 15.8125 6.859375 C 15.652344 7.585938 12.4375 21.964844 12.4375 21.964844 L 15.867188 20.886719 C 15.867188 20.886719 18.566406 7.277344 18.660156 6.804688 C 19.015625 6.800781 20.238281 6.777344 20.238281 6.777344 C 20.238281 6.777344 20.390625 6.230469 20.457031 6.003906 C 20.910156 6.011719 31.167969 6.234375 31.167969 6.234375 L 29.207031 5.214844 L 29.199219 5.210938 C 28.085938 4.707031 25.183594 3.398438 21.238281 3.199219 C 21.273438 3.082031 21.316406 2.921875 21.316406 2.921875 C 21.316406 2.921875 19.914062 2.925781 19.4375 2.925781 C 19.476562 2.722656 19.59375 2.144531 19.59375 2.144531 "/>
<path style=" stroke:none;fill-rule:nonzero;fill:rgb(55.686275%,55.686275%,56.862745%);fill-opacity:1;" d="M 21.414062 14.046875 C 21.464844 13.777344 21.496094 13.621094 21.527344 13.449219 C 21.847656 13.394531 23.132812 13.1875 23.132812 13.1875 L 23.691406 10.105469 C 23.691406 10.105469 22.570312 10.242188 22.117188 10.296875 C 22.140625 10.164062 22.148438 10.132812 22.167969 10.03125 C 22.550781 10.003906 24.535156 9.867188 24.535156 9.867188 L 25.070312 6.90625 L 24.683594 6.921875 L 18.886719 7.167969 L 18.285156 10.300781 C 18.285156 10.300781 18.890625 10.242188 19.09375 10.226562 C 18.960938 10.875 18.3125 14.09375 18.238281 14.453125 C 18.003906 14.480469 17.421875 14.554688 17.421875 14.554688 L 16.648438 18.578125 L 24.246094 16.625 L 24.789062 13.617188 C 24.785156 13.617188 22.058594 13.964844 21.414062 14.046875 "/>
<path style=" stroke:none;fill-rule:nonzero;fill:rgb(55.686275%,55.686275%,56.862745%);fill-opacity:1;" d="M 28.527344 6.738281 C 28.527344 6.738281 25.636719 6.8125 25.636719 6.8125 L 25.386719 6.820312 L 24.875 9.726562 C 24.875 9.726562 25.492188 9.714844 25.726562 9.707031 C 25.609375 10.367188 24.527344 16.53125 24.527344 16.53125 L 27.265625 15.773438 C 27.265625 15.773438 27.75 13.363281 27.8125 13.046875 C 30.214844 12.378906 31.386719 9.492188 31.453125 7.019531 L 31.464844 6.707031 L 31.148438 6.703125 C 31.132812 6.703125 29.679688 6.699219 28.527344 6.738281 "/>
<path style=" stroke:none;fill-rule:nonzero;fill:rgb(0%,15.686275%,36.862745%);fill-opacity:1;" d="M 14.175781 8.070312 L 12.5 8.128906 C 12.5 8.128906 11.644531 11.804688 10.929688 14.957031 C 10.367188 17.417969 8.945312 17.25 8.941406 17.25 C 8.851562 17.292969 8.769531 17.308594 8.699219 17.316406 C 8.40625 17.355469 8.246094 17.136719 8.175781 16.707031 C 8.105469 16.28125 8.347656 15.335938 8.441406 14.949219 L 10.167969 7.816406 L 9.523438 8.242188 L 6.265625 8.359375 L 5.910156 9.71875 L 4.847656 10.507812 L 6.429688 10.433594 L 7.355469 9.914062 L 5.953125 15.515625 C 5.753906 16.332031 5.457031 17.695312 5.757812 18.785156 C 5.925781 19.382812 6.246094 19.992188 6.804688 20.40625 C 7.238281 20.535156 7.757812 20.578125 8.386719 20.484375 C 10.257812 20.203125 11.894531 19.765625 13.171875 14.421875 L 14.730469 7.65625 Z M 14.175781 8.070312 "/>
<path style=" stroke:none;fill-rule:nonzero;fill:rgb(0%,15.686275%,36.862745%);fill-opacity:1;" d="M 19.101562 15.105469 L 18.296875 15.207031 L 17.910156 17.238281 L 17.042969 18.160156 L 23.976562 16.378906 L 24.410156 13.976562 L 23.839844 14.484375 L 20.570312 14.917969 L 21.035156 14.40625 L 21.261719 13.179688 L 22.867188 12.917969 L 23.3125 10.460938 L 22.769531 10.957031 L 21.21875 11.113281 L 21.738281 10.652344 L 21.90625 9.738281 L 24.273438 9.578125 L 24.699219 7.230469 L 24.128906 7.640625 L 19.742188 7.839844 L 19.480469 9.207031 L 18.664062 9.957031 L 19.476562 9.882812 L 20.273438 9.332031 Z M 19.101562 15.105469 "/>
<path style=" stroke:none;fill-rule:nonzero;fill:rgb(95.686275%,47.843137%,24.705882%);fill-opacity:1;" d="M 22.769531 10.957031 L 23.3125 10.460938 L 21.738281 10.652344 L 21.21875 11.113281 Z M 22.769531 10.957031 "/>
<path style=" stroke:none;fill-rule:nonzero;fill:rgb(0%,15.686275%,36.862745%);fill-opacity:1;" d="M 30.011719 8.476562 C 29.609375 10.988281 28.449219 11.449219 27.242188 11.574219 L 27.867188 10.9375 L 28.164062 9.210938 L 28.304688 9.203125 C 28.820312 9.175781 29.355469 9.109375 29.355469 9.109375 Z M 30.011719 8.476562 "/>
<path style=" stroke:none;fill-rule:nonzero;fill:rgb(0%,15.686275%,36.862745%);fill-opacity:1;" d="M 26.15625 7.488281 L 25.9375 8.75 L 25.242188 9.398438 L 26.09375 9.394531 L 26.722656 8.945312 L 25.640625 15.265625 L 24.914062 16.105469 L 27 15.523438 L 27.546875 12.800781 C 29.742188 12.324219 30.957031 9.808594 31.128906 7.382812 L 31.148438 7.011719 C 31.027344 7.101562 30.671875 7.363281 30.671875 7.363281 C 30.183594 7.367188 29.558594 7.394531 29.011719 7.414062 Z M 26.15625 7.488281 "/>
<path style=" stroke:none;fill-rule:nonzero;fill:rgb(95.686275%,47.843137%,24.705882%);fill-opacity:1;" d="M 24.410156 13.976562 L 21.035156 14.40625 L 20.570312 14.917969 L 23.839844 14.488281 Z M 24.410156 13.976562 "/>
<path style=" stroke:none;fill-rule:nonzero;fill:rgb(95.686275%,47.843137%,24.705882%);fill-opacity:1;" d="M 26.722656 8.945312 L 26.09375 9.394531 L 24.914062 16.105469 L 25.640625 15.265625 Z M 26.722656 8.945312 "/>
<path style=" stroke:none;fill-rule:nonzero;fill:rgb(95.686275%,47.843137%,24.705882%);fill-opacity:1;" d="M 10.929688 14.957031 C 11.644531 11.804688 12.5 8.128906 12.5 8.128906 L 14.175781 8.070312 L 14.730469 7.65625 L 11.816406 7.757812 C 11.816406 7.757812 10.953125 11.433594 10.222656 14.585938 C 10.199219 14.695312 10.171875 14.796875 10.148438 14.898438 C 10.144531 14.921875 10.136719 14.945312 10.128906 14.96875 C 10.105469 15.0625 10.082031 15.15625 10.058594 15.242188 C 10.054688 15.257812 10.046875 15.277344 10.042969 15.296875 C 10.023438 15.367188 10 15.4375 9.980469 15.507812 C 9.972656 15.527344 9.96875 15.546875 9.960938 15.566406 C 9.9375 15.640625 9.914062 15.710938 9.890625 15.78125 C 9.882812 15.800781 9.875 15.820312 9.871094 15.839844 C 9.847656 15.902344 9.828125 15.960938 9.804688 16.015625 C 9.800781 16.027344 9.796875 16.035156 9.792969 16.046875 C 9.769531 16.109375 9.746094 16.167969 9.722656 16.222656 C 9.714844 16.238281 9.710938 16.253906 9.703125 16.269531 C 9.679688 16.324219 9.65625 16.375 9.632812 16.425781 C 9.628906 16.433594 9.625 16.441406 9.621094 16.449219 C 9.597656 16.492188 9.578125 16.535156 9.554688 16.574219 C 9.550781 16.582031 9.542969 16.59375 9.539062 16.601562 C 9.515625 16.644531 9.492188 16.683594 9.46875 16.722656 C 9.464844 16.730469 9.460938 16.738281 9.453125 16.746094 C 9.433594 16.78125 9.410156 16.816406 9.386719 16.847656 C 9.386719 16.847656 9.382812 16.851562 9.382812 16.855469 C 9.355469 16.886719 9.332031 16.917969 9.308594 16.949219 C 9.304688 16.953125 9.300781 16.957031 9.296875 16.960938 C 9.25 17.019531 9.203125 17.070312 9.15625 17.109375 C 9.152344 17.109375 9.152344 17.113281 9.148438 17.113281 C 9.078125 17.175781 9.007812 17.21875 8.941406 17.25 C 8.945312 17.25 10.367188 17.417969 10.929688 14.957031 "/>
<path style=" stroke:none;fill-rule:nonzero;fill:rgb(95.686275%,47.843137%,24.705882%);fill-opacity:1;" d="M 18.296875 15.207031 L 19.101562 15.105469 L 20.273438 9.332031 L 19.476562 9.882812 L 18.496094 14.730469 L 17.683594 14.832031 L 17.042969 18.160156 L 17.910156 17.238281 Z M 18.296875 15.207031 "/>
<path style=" stroke:none;fill-rule:nonzero;fill:rgb(95.686275%,47.843137%,24.705882%);fill-opacity:1;" d="M 5.757812 18.785156 C 5.457031 17.695312 5.753906 16.332031 5.953125 15.515625 L 7.355469 9.914062 L 6.429688 10.433594 L 5.191406 15.144531 C 4.984375 15.964844 4.6875 17.324219 4.992188 18.414062 C 5.011719 18.480469 5.03125 18.542969 5.054688 18.609375 C 5.058594 18.628906 5.066406 18.648438 5.074219 18.664062 C 5.089844 18.714844 5.109375 18.765625 5.128906 18.816406 C 5.136719 18.832031 5.144531 18.847656 5.152344 18.863281 C 5.175781 18.925781 5.203125 18.988281 5.234375 19.046875 C 5.246094 19.066406 5.253906 19.085938 5.265625 19.105469 C 5.289062 19.148438 5.3125 19.191406 5.335938 19.234375 C 5.351562 19.257812 5.363281 19.277344 5.375 19.300781 C 5.410156 19.355469 5.445312 19.410156 5.484375 19.460938 C 5.496094 19.480469 5.511719 19.496094 5.523438 19.515625 C 5.554688 19.554688 5.585938 19.59375 5.621094 19.632812 C 5.636719 19.65625 5.65625 19.679688 5.679688 19.699219 C 5.710938 19.734375 5.742188 19.765625 5.773438 19.800781 C 5.792969 19.820312 5.8125 19.839844 5.832031 19.855469 C 5.878906 19.902344 5.929688 19.945312 5.984375 19.984375 C 6.007812 20.003906 6.035156 20.023438 6.058594 20.042969 C 6.097656 20.066406 6.132812 20.09375 6.171875 20.117188 C 6.199219 20.132812 6.226562 20.152344 6.253906 20.167969 C 6.3125 20.203125 6.375 20.238281 6.441406 20.269531 C 6.464844 20.28125 6.496094 20.292969 6.519531 20.304688 C 6.570312 20.324219 6.617188 20.34375 6.667969 20.363281 C 6.699219 20.375 6.730469 20.382812 6.765625 20.394531 C 6.78125 20.398438 6.792969 20.40625 6.808594 20.410156 C 6.808594 20.410156 6.804688 20.40625 6.804688 20.40625 C 6.246094 19.992188 5.925781 19.382812 5.757812 18.785156 "/>
<path style=" stroke:none;fill-rule:nonzero;fill:rgb(0%,15.686275%,36.862745%);fill-opacity:1;" d="M 21.246094 3.808594 L 18.359375 3.859375 L 19.058594 3.234375 L 19.214844 2.460938 L 18.433594 3.058594 L 17.441406 3.078125 L 17.207031 3.828125 L 15.644531 3.824219 L 15.527344 4.140625 L 15.15625 4.15625 C 10.160156 4.3125 6.496094 6.582031 6.496094 6.582031 L 14.3125 5.875 L 15.050781 5.0625 L 14.902344 5.800781 L 14.097656 6.582031 L 16.199219 6.542969 L 17.167969 5.648438 L 13.910156 20.589844 L 12.855469 21.507812 L 15.601562 20.648438 L 18.40625 6.5 L 20.003906 6.472656 L 20.222656 5.6875 L 29.855469 5.898438 C 29.855469 5.898438 26.320312 4.289062 21.175781 4.0625 Z M 21.246094 3.808594 "/>
<path style=" stroke:none;fill-rule:nonzero;fill:rgb(95.686275%,47.843137%,24.705882%);fill-opacity:1;" d="M 17.167969 5.648438 L 16.199219 6.542969 L 12.855469 21.507812 L 13.910156 20.589844 Z M 17.167969 5.648438 "/>
<path style=" stroke:none;fill-rule:nonzero;fill:rgb(95.686275%,47.843137%,24.705882%);fill-opacity:1;" d="M 18.363281 3.859375 L 21.246094 3.808594 L 21.175781 4.0625 C 26.320312 4.289062 29.855469 5.898438 29.855469 5.898438 L 29.074219 5.488281 C 27.804688 4.914062 24.859375 3.609375 20.839844 3.484375 L 20.910156 3.230469 L 19.058594 3.234375 Z M 18.363281 3.859375 "/>
<path style=" stroke:none;fill-rule:nonzero;fill:rgb(95.686275%,47.843137%,24.705882%);fill-opacity:1;" d="M 15.527344 4.140625 L 15.644531 3.824219 L 17.207031 3.828125 L 17.441406 3.078125 L 18.433594 3.058594 L 19.214844 2.460938 L 17.105469 2.503906 L 16.871094 3.25 L 15.308594 3.246094 L 15.191406 3.5625 L 14.820312 3.582031 C 10.664062 3.558594 6.496094 6.582031 6.496094 6.582031 C 6.496094 6.582031 10.160156 4.3125 15.15625 4.15625 Z M 15.527344 4.140625 "/>
<path style=" stroke:none;fill-rule:nonzero;fill:rgb(95.686275%,47.843137%,24.705882%);fill-opacity:1;" d="M 15.050781 5.0625 L 14.3125 5.875 L 14.097656 6.582031 L 14.902344 5.800781 Z M 15.050781 5.0625 "/>
<path style=" stroke:none;fill-rule:nonzero;fill:rgb(95.686275%,47.843137%,24.705882%);fill-opacity:1;" d="M 18.664062 9.957031 L 19.480469 9.207031 L 19.742188 7.839844 L 24.128906 7.648438 L 24.699219 7.230469 L 19.144531 7.46875 Z M 18.664062 9.957031 "/>
<path style=" stroke:none;fill-rule:nonzero;fill:rgb(95.686275%,47.843137%,24.705882%);fill-opacity:1;" d="M 4.847656 10.507812 L 5.910156 9.71875 L 6.265625 8.359375 L 9.523438 8.242188 L 10.167969 7.816406 L 5.515625 7.988281 Z M 4.847656 10.507812 "/>
<path style=" stroke:none;fill-rule:nonzero;fill:rgb(95.686275%,47.843137%,24.705882%);fill-opacity:1;" d="M 28.539062 7.046875 L 25.644531 7.121094 L 25.242188 9.410156 L 25.933594 8.753906 L 26.15625 7.488281 L 30.671875 7.363281 C 30.671875 7.359375 30.980469 7.136719 31.148438 7.011719 C 31.148438 7.011719 29.699219 7.007812 28.539062 7.046875 "/>
<path style=" stroke:none;fill-rule:nonzero;fill:rgb(0%,15.686275%,36.862745%);fill-opacity:1;" d="M 19.226562 20.628906 L 19.023438 20.628906 L 19.023438 21.195312 L 18.90625 21.195312 L 18.90625 20.628906 L 18.699219 20.628906 L 18.699219 20.535156 L 19.226562 20.535156 Z M 19.226562 20.628906 "/>
<path style=" stroke:none;fill-rule:nonzero;fill:rgb(0%,15.686275%,36.862745%);fill-opacity:1;" d="M 19.898438 20.535156 L 20.078125 20.535156 L 20.078125 21.195312 L 19.960938 21.195312 L 19.960938 20.65625 L 19.957031 20.65625 L 19.75 21.195312 L 19.671875 21.195312 L 19.460938 20.65625 L 19.460938 21.195312 L 19.34375 21.195312 L 19.34375 20.535156 L 19.523438 20.535156 L 19.710938 21.019531 Z M 19.898438 20.535156 "/>
<path style=" stroke:none;fill-rule:nonzero;fill:rgb(55.686275%,55.686275%,56.862745%);fill-opacity:1;" d="M 28.164062 9.210938 L 27.867188 10.9375 C 28.140625 10.726562 28.988281 10.507812 29.355469 9.109375 C 29.355469 9.109375 28.820312 9.175781 28.300781 9.203125 Z M 28.164062 9.210938 "/>
<path style=" stroke:none;fill-rule:nonzero;fill:rgb(95.686275%,47.843137%,24.705882%);fill-opacity:1;" d="M 27.867188 10.9375 L 27.242188 11.574219 C 28.449219 11.449219 29.609375 10.988281 30.011719 8.476562 L 29.355469 9.109375 C 28.988281 10.507812 28.140625 10.726562 27.867188 10.9375 "/>
<path style=" stroke:none;fill-rule:nonzero;fill:rgb(100%,100%,100%);fill-opacity:1;" d="M 28.933594 9.464844 C 28.78125 9.480469 28.605469 9.492188 28.425781 9.503906 C 28.390625 9.714844 28.34375 9.984375 28.277344 10.382812 C 28.5 10.210938 28.757812 9.925781 28.933594 9.464844 "/>
</g>
</svg>
