<?xml version="1.0" encoding="UTF-8"?>
<svg xmlns="http://www.w3.org/2000/svg" xmlns:xlink="http://www.w3.org/1999/xlink" width="35pt" height="25pt" viewBox="0 0 35 25" version="1.1">
<defs>
<clipPath id="clip1">
  <path d="M 30 22 L 32.15625 22 L 32.15625 25 L 30 25 Z M 30 22 "/>
</clipPath>
</defs>
<g id="surface1">
<path style=" stroke:none;fill-rule:nonzero;fill:rgb(13.72549%,12.156863%,12.54902%);fill-opacity:1;" d="M 29.824219 24 C 29.230469 24.453125 27.800781 25.238281 25.1875 24.929688 C 21.917969 24.542969 19.34375 20.980469 18.050781 19.371094 L 17.421875 19.925781 L 17.417969 22.660156 C 17.417969 22.792969 17.441406 22.890625 17.492188 22.960938 C 17.542969 23.03125 17.632812 23.082031 17.757812 23.121094 L 17.757812 23.324219 L 15.488281 23.324219 L 15.488281 23.121094 C 15.613281 23.078125 15.703125 23.023438 15.753906 22.957031 C 15.804688 22.890625 15.828125 22.792969 15.828125 22.660156 L 15.828125 15.375 C 15.828125 15.167969 15.660156 15.007812 15.453125 15.007812 C 15.300781 15.007812 15.167969 15.097656 15.113281 15.230469 C 15.050781 15.34375 14.980469 15.527344 14.894531 15.785156 L 12.9375 21.714844 L 12.390625 23.324219 L 11.265625 23.324219 L 10.761719 21.789062 L 9.273438 17.265625 L 7.246094 23.324219 L 6.117188 23.324219 L 3.644531 15.785156 C 3.542969 15.46875 3.449219 15.257812 3.363281 15.148438 C 3.28125 15.035156 3.160156 14.957031 3 14.921875 L 3 14.71875 L 5.527344 14.71875 L 5.527344 14.921875 C 5.300781 14.980469 5.191406 15.105469 5.191406 15.292969 C 5.191406 15.390625 5.21875 15.527344 5.277344 15.707031 L 6.714844 20.261719 L 8.269531 15.683594 C 8.339844 15.488281 8.371094 15.355469 8.371094 15.292969 C 8.371094 15.097656 8.253906 14.976562 8.015625 14.921875 L 8.015625 14.71875 L 10.65625 14.71875 L 10.65625 14.921875 C 10.417969 14.996094 10.292969 15.132812 10.292969 15.332031 C 10.292969 15.398438 10.324219 15.523438 10.386719 15.707031 L 11.867188 20.277344 L 13.300781 15.785156 C 13.375 15.5625 13.414062 15.394531 13.414062 15.285156 C 13.414062 15.101562 13.285156 14.980469 13.027344 14.921875 L 13.027344 14.71875 L 17.757812 14.71875 L 17.757812 14.921875 C 17.628906 14.957031 17.539062 15.011719 17.492188 15.085938 C 17.441406 15.152344 17.417969 15.25 17.417969 15.375 L 17.417969 18.003906 L 20.410156 15.492188 C 20.550781 15.359375 20.617188 15.253906 20.617188 15.171875 C 20.617188 15.050781 20.515625 14.96875 20.308594 14.921875 L 20.308594 14.71875 L 25.535156 14.71875 L 25.535156 14.921875 C 25.410156 14.957031 25.316406 15.011719 25.265625 15.085938 C 25.214844 15.152344 25.191406 15.25 25.191406 15.382812 L 25.191406 19.671875 C 25.191406 20.167969 25.210938 20.535156 25.261719 20.777344 C 25.304688 21.011719 25.394531 21.210938 25.519531 21.367188 C 25.863281 21.796875 26.445312 22.011719 27.269531 22.011719 C 28.097656 22.011719 28.679688 21.796875 29.023438 21.367188 C 29.148438 21.210938 29.230469 21.011719 29.277344 20.777344 C 29.324219 20.535156 29.347656 20.167969 29.347656 19.671875 L 29.347656 15.382812 C 29.347656 15.25 29.320312 15.152344 29.273438 15.085938 C 29.222656 15.019531 29.132812 14.960938 29.003906 14.921875 L 29.003906 14.71875 L 31.148438 14.71875 L 31.148438 14.921875 C 31.019531 14.960938 30.929688 15.019531 30.882812 15.085938 C 30.832031 15.152344 30.808594 15.25 30.808594 15.382812 L 30.808594 20.203125 C 30.808594 21.117188 30.664062 21.796875 30.382812 22.25 C 29.871094 23.066406 28.8125 23.472656 27.210938 23.476562 C 26.050781 23.476562 25.164062 23.253906 24.550781 22.8125 C 24.191406 22.554688 23.941406 22.207031 23.804688 21.765625 C 23.667969 21.328125 23.605469 20.808594 23.605469 20.203125 L 23.605469 15.339844 C 23.605469 15.167969 23.417969 15.011719 23.214844 15.011719 C 23.132812 15.011719 22.980469 15.054688 22.867188 15.144531 C 22.8125 15.183594 19.21875 18.351562 19.21875 18.351562 C 20.394531 19.855469 22.316406 22.484375 24.152344 23.628906 C 26.445312 25.054688 28.753906 24.242188 29.722656 23.84375 L 29.824219 24 "/>
<path style=" stroke:none;fill-rule:nonzero;fill:rgb(13.72549%,12.156863%,12.54902%);fill-opacity:1;" d="M 31.070312 23.359375 L 31.191406 23.359375 C 31.320312 23.359375 31.4375 23.320312 31.4375 23.207031 C 31.4375 23.113281 31.378906 23.050781 31.207031 23.050781 C 31.136719 23.050781 31.097656 23.054688 31.070312 23.0625 Z M 31.070312 23.898438 L 30.894531 23.898438 L 30.894531 22.941406 C 30.988281 22.921875 31.09375 22.914062 31.222656 22.914062 C 31.382812 22.914062 31.464844 22.941406 31.527344 22.984375 C 31.585938 23.027344 31.625 23.101562 31.625 23.1875 C 31.625 23.308594 31.539062 23.382812 31.4375 23.417969 L 31.4375 23.425781 C 31.523438 23.460938 31.566406 23.535156 31.601562 23.660156 C 31.625 23.804688 31.644531 23.863281 31.664062 23.898438 L 31.480469 23.898438 C 31.453125 23.863281 31.429688 23.777344 31.40625 23.648438 C 31.382812 23.542969 31.320312 23.496094 31.183594 23.496094 L 31.070312 23.496094 L 31.070312 23.898438 "/>
<g clip-path="url(#clip1)" clip-rule="nonzero">
<path style=" stroke:none;fill-rule:nonzero;fill:rgb(13.72549%,12.156863%,12.54902%);fill-opacity:1;" d="M 31.238281 24.152344 C 30.824219 24.152344 30.492188 23.820312 30.492188 23.40625 C 30.492188 22.992188 30.824219 22.660156 31.238281 22.660156 C 31.652344 22.660156 31.984375 22.992188 31.984375 23.40625 C 31.984375 23.820312 31.652344 24.152344 31.238281 24.152344 Z M 31.238281 22.488281 C 30.730469 22.488281 30.320312 22.898438 30.320312 23.40625 C 30.320312 23.914062 30.730469 24.324219 31.238281 24.324219 C 31.746094 24.324219 32.15625 23.914062 32.15625 23.40625 C 32.15625 22.898438 31.746094 22.488281 31.238281 22.488281 "/>
</g>
<path style=" stroke:none;fill-rule:nonzero;fill:rgb(89.803922%,8.627451%,21.176471%);fill-opacity:1;" d="M 12.925781 11.316406 C 12.925781 11.316406 12.925781 3.578125 12.925781 3.554688 C 12.925781 3.332031 12.636719 3.367188 12.636719 3.367188 L 12.636719 2.84375 L 14.511719 2.84375 L 14.511719 9.300781 C 15.492188 9.078125 16.636719 8.601562 17.546875 7.597656 C 18.453125 8.601562 19.660156 9.078125 20.640625 9.300781 L 20.640625 2.84375 L 22.515625 2.84375 L 22.515625 3.367188 C 22.515625 3.367188 22.226562 3.335938 22.226562 3.554688 L 22.226562 11.316406 L 12.925781 11.316406 "/>
<path style=" stroke:none;fill-rule:nonzero;fill:rgb(89.803922%,8.627451%,21.176471%);fill-opacity:1;" d="M 17.578125 4.695312 C 17.277344 4.695312 17.035156 4.453125 17.035156 4.152344 C 17.035156 3.855469 17.277344 3.613281 17.578125 3.613281 C 17.878906 3.613281 18.121094 3.855469 18.121094 4.152344 C 18.121094 4.453125 17.878906 4.695312 17.578125 4.695312 Z M 19.113281 2.132812 C 19.113281 2.132812 18.796875 2.257812 18.585938 1.710938 C 18.375 1.164062 17.894531 1.074219 17.894531 1.074219 L 17.894531 0.628906 C 17.894531 0.628906 18.003906 0.617188 18.003906 0.503906 C 18.003906 0.390625 17.890625 0.390625 17.890625 0.390625 C 17.890625 0.390625 17.890625 0.1875 17.65625 0.15625 L 17.65625 0 L 17.496094 0 L 17.496094 0.15625 C 17.265625 0.191406 17.265625 0.390625 17.265625 0.390625 C 17.265625 0.390625 17.152344 0.390625 17.152344 0.503906 C 17.152344 0.617188 17.257812 0.628906 17.257812 0.628906 L 17.257812 1.074219 C 17.257812 1.074219 16.78125 1.164062 16.570312 1.710938 C 16.355469 2.257812 16.042969 2.132812 16.042969 2.132812 L 15.730469 2.445312 L 16.074219 2.789062 L 16.160156 2.789062 L 16.160156 6.699219 C 16.976562 6.292969 17.574219 5.582031 17.574219 5.582031 C 17.574219 5.582031 18.175781 6.292969 18.996094 6.699219 L 18.996094 2.789062 L 19.082031 2.789062 L 19.425781 2.445312 L 19.113281 2.132812 "/>
</g>
</svg>
