<?xml version="1.0" encoding="UTF-8"?>
<svg xmlns="http://www.w3.org/2000/svg" xmlns:xlink="http://www.w3.org/1999/xlink" width="35pt" height="25pt" viewBox="0 0 35 25" version="1.1">
<g id="surface1">
<path style=" stroke:none;fill-rule:nonzero;fill:rgb(51.764706%,2.352941%,10.980392%);fill-opacity:1;" d="M 9.960938 24.144531 C 11.496094 21.136719 13.195312 17.964844 14.546875 14.871094 L 17.359375 16.253906 C 16.929688 17.054688 15.007812 17.738281 14.167969 18.027344 L 15.667969 19.089844 C 15.273438 20.011719 14.75 20.929688 14.339844 21.953125 L 20.695312 21.921875 C 21.386719 21.691406 21.667969 21.332031 21.972656 20.714844 C 22.191406 20.28125 22.410156 19.765625 22.519531 19.617188 C 22.597656 19.511719 22.734375 19.53125 22.851562 19.492188 C 23.039062 19.433594 23.140625 19.464844 23.210938 19.664062 C 23.246094 19.511719 23.269531 19.375 23.132812 19.21875 L 22.5625 18.867188 L 24.460938 18.828125 C 25.230469 18.828125 25.792969 18.902344 26.050781 18.957031 C 25.964844 19.113281 24.628906 21.867188 24.417969 22.1875 C 23.578125 23.457031 22.621094 23.941406 20.15625 24.097656 C 19.265625 24.152344 10.472656 24.148438 9.960938 24.144531 Z M 20.464844 18.160156 L 20.6875 18.03125 L 20.203125 17.585938 L 21.207031 17.535156 C 21.324219 17.769531 21.578125 18.25 21.667969 18.496094 C 21.359375 18.566406 20.671875 18.328125 20.464844 18.160156 Z M 18.65625 18.15625 L 19.160156 18.089844 C 18.457031 17.859375 18.128906 17.671875 17.617188 17.113281 C 18.011719 17.179688 18.59375 17.421875 18.828125 17.375 L 17.578125 16.351562 C 19.074219 15.472656 19.210938 14.371094 18.71875 12.886719 C 18.449219 12.21875 17.898438 11.644531 16.203125 10.382812 C 14.90625 9.417969 14.351562 8.898438 13.828125 8.105469 C 13.539062 7.660156 12.925781 6.253906 12.839844 5.644531 C 13.238281 6.121094 13.894531 7.738281 16.9375 9.929688 C 18.207031 11.042969 19.113281 11.390625 20.144531 13.738281 C 20.339844 13.867188 20.523438 13.945312 20.734375 13.984375 C 20.589844 13.8125 20.371094 13.777344 20.1875 13.5 C 20.1875 13.371094 20.417969 12.582031 20.59375 12.222656 C 21.417969 10.566406 23.144531 9.539062 24.710938 8.644531 C 25.242188 8.429688 26.289062 7.402344 27.34375 7.03125 C 26.441406 8.847656 23.230469 9.574219 22.125 12.03125 C 21.808594 12.90625 21.472656 13.910156 21.773438 14.800781 L 20.433594 14.554688 C 20.519531 14.71875 20.777344 15.140625 20.746094 15.152344 L 19.585938 15.480469 L 20.847656 15.910156 C 20.539062 16.003906 20.089844 16.289062 19.839844 16.441406 C 20.105469 16.515625 20.222656 16.496094 20.425781 16.566406 C 20.261719 16.925781 20.0625 16.742188 19.898438 17.011719 C 20.058594 17.425781 20.195312 18.070312 20.355469 18.484375 C 19.8125 18.519531 19.199219 18.410156 18.65625 18.15625 Z M 16.164062 14.882812 C 15.136719 14.4375 14.457031 13.5625 13.851562 12.605469 C 14.253906 12.695312 14.402344 12.769531 14.855469 12.9375 C 13.542969 11.929688 12.980469 11.492188 12.324219 9.898438 C 13.386719 10.464844 14.492188 11.628906 15.515625 12.101562 C 13.757812 10.894531 12.9375 9.304688 12.238281 7.28125 C 13.546875 8.753906 14.730469 9.933594 16.355469 11.039062 C 17.902344 12.078125 18.519531 13.097656 18.519531 13.902344 C 18.324219 15.320312 17.242188 15.363281 16.164062 14.882812 Z M 25.992188 12.570312 C 25.449219 12.550781 25.015625 12.558594 24.296875 12.59375 C 24.746094 11.882812 25.75 10.851562 26.5625 10.371094 C 27.835938 10.410156 29.039062 10.40625 30.308594 10.425781 L 28.257812 14.578125 L 25.050781 14.554688 Z M 5.265625 14.261719 L 11.949219 0.695312 C 16.359375 0.746094 21.953125 0.347656 24.539062 1.207031 C 25.289062 2.292969 23.738281 4.53125 23.332031 5.332031 C 22.628906 6.296875 21.402344 6.738281 20.257812 6.984375 C 21.007812 7.203125 21.128906 7.304688 21.660156 7.941406 C 21.800781 9.046875 20.328125 11.492188 19.8125 12.519531 L 17.671875 10.238281 C 17.992188 9.597656 18.582031 8.902344 18.035156 8.285156 L 15.191406 8.214844 C 14.515625 7.5625 13.929688 6.800781 13.492188 5.984375 C 15.476562 6.019531 17.691406 6.117188 19.65625 5.699219 C 20.09375 5.464844 21.261719 3.4375 20.714844 3.050781 L 14.164062 2.90625 C 13.769531 3.46875 13.585938 4.179688 13.152344 4.765625 C 12.960938 4.289062 13.054688 3.25 13.121094 2.777344 C 12.21875 4.074219 12.738281 6 12.972656 7.574219 C 12.183594 6.558594 11.574219 5.125 11.476562 4.003906 C 11.273438 5.832031 11.460938 6.394531 12.191406 7.992188 C 11.421875 7.929688 10.730469 6.777344 10.578125 6.207031 C 10.644531 7.34375 11.195312 8.160156 11.875 9.203125 C 11.386719 9.320312 10.851562 8.933594 10.460938 8.6875 L 10.863281 9.574219 C 10.53125 10.429688 9.976562 11.230469 9.613281 12.132812 L 13.125 12.167969 C 13.496094 12.835938 13.765625 13.6875 14.226562 14.300781 C 13.910156 14.261719 5.246094 14.3125 5.265625 14.261719 Z M 23.246094 12.269531 C 23.097656 12.296875 22.699219 12.546875 22.429688 12.695312 C 22.429688 12.3125 22.945312 11.296875 23.582031 10.664062 C 24.558594 9.816406 25.6875 9.167969 26.867188 8.636719 C 26.3125 9.40625 25.796875 9.929688 24.988281 10.429688 C 25.371094 10.339844 26.179688 10.199219 26.410156 10.269531 C 25.410156 11.0625 24.816406 11.238281 24.09375 12.539062 C 23.738281 13.195312 23.34375 14.003906 22.429688 14.382812 C 22.679688 13.882812 23.089844 12.8125 23.246094 12.269531 Z M 23.246094 12.269531 "/>
<path style=" stroke:none;fill-rule:nonzero;fill:rgb(76.862745%,69.803922%,39.215686%);fill-opacity:1;" d="M 14.164062 15.03125 C 14.285156 15.027344 14.457031 15.027344 14.59375 15.042969 C 14.59375 15.09375 14.015625 16.273438 12.441406 19.449219 C 10.488281 23.386719 10.21875 23.933594 10.21875 24.007812 C 10.21875 24.082031 19.859375 24.042969 20.566406 23.964844 C 22.636719 23.738281 23.511719 23.3125 24.289062 22.148438 C 24.523438 21.796875 25.90625 19.105469 25.90625 19 C 25.90625 18.96875 25.421875 18.953125 24.449219 18.953125 C 23.511719 18.953125 22.828125 18.945312 22.707031 18.945312 C 22.53125 18.945312 22.574219 18.75 22.679688 18.648438 C 22.761719 18.570312 22.859375 18.621094 24.632812 18.621094 L 26.730469 18.621094 C 26.003906 19.832031 25.332031 21.191406 24.703125 22.449219 C 23.9375 23.59375 22.851562 24.285156 21.109375 24.515625 L 9.554688 24.488281 Z M 14.140625 22.054688 C 14.140625 22.046875 14.460938 21.386719 14.851562 20.589844 C 15.554688 19.152344 15.542969 19.066406 15.671875 19.097656 C 15.742188 19.117188 15.875 19.210938 15.992188 19.238281 C 15.574219 20.066406 15.125 20.855469 14.816406 21.714844 C 16.953125 21.628906 20.28125 21.6875 21.15625 21.339844 C 21.695312 20.675781 21.929688 20.117188 22.394531 19.351562 C 22.46875 19.398438 22.554688 19.457031 22.585938 19.53125 C 22.636719 19.65625 22.574219 19.753906 22.238281 20.445312 C 21.910156 21.113281 21.832031 21.234375 21.539062 21.53125 C 21.257812 21.8125 21.15625 21.882812 20.902344 21.96875 C 20.601562 22.070312 20.550781 22.070312 17.367188 22.070312 C 15.59375 22.070312 14.140625 22.0625 14.140625 22.054688 Z M 24.609375 14.859375 C 24.960938 14.167969 25.199219 13.636719 25.507812 12.921875 L 24.417969 12.851562 L 24.488281 12.476562 C 24.496094 12.433594 24.628906 12.464844 25.085938 12.464844 C 25.363281 12.464844 25.726562 12.433594 25.890625 12.433594 L 26.191406 12.433594 L 25.691406 13.425781 C 25.347656 14.113281 25.214844 14.425781 25.257812 14.441406 C 25.289062 14.457031 25.960938 14.460938 26.753906 14.453125 L 28.1875 14.441406 L 29.148438 12.527344 C 29.675781 11.472656 30.105469 10.585938 30.109375 10.554688 C 30.109375 10.507812 29.730469 10.496094 28.355469 10.496094 L 26.480469 10.496094 L 26.917969 10.148438 L 30.785156 10.207031 L 28.417969 14.855469 Z M 11.691406 0.390625 L 16.582031 0.402344 C 21.402344 0.386719 22.445312 0.410156 23.335938 0.5625 C 24.921875 0.835938 25.492188 1.8125 24.941406 3.191406 C 24.761719 3.648438 23.695312 5.59375 23.527344 5.816406 C 22.863281 6.769531 22.378906 6.707031 21.464844 7.144531 C 21.832031 7.464844 22.199219 7.886719 22.078125 8.675781 L 20.09375 12.847656 L 19.730469 12.335938 L 20.613281 10.605469 C 21.046875 9.722656 21.433594 8.917969 21.464844 8.816406 C 21.5625 8.519531 21.542969 8.132812 21.417969 7.875 C 21.242188 7.511719 20.757812 7.21875 20.105469 7.078125 C 19.96875 7.050781 19.859375 7.015625 19.859375 7 C 19.859375 6.984375 20.042969 6.933594 20.269531 6.890625 C 21.5625 6.621094 22.5 6.144531 23.082031 5.449219 C 23.289062 5.203125 24.320312 3.179688 24.480469 2.699219 C 24.792969 1.777344 24.59375 1.390625 23.6875 1.144531 C 22.777344 0.902344 21.675781 0.859375 16.40625 0.859375 L 12.03125 0.855469 L 10.65625 3.632812 C 9.898438 5.160156 8.417969 8.152344 7.363281 10.28125 L 5.445312 14.15625 L 9.765625 14.179688 L 14.394531 14.203125 L 14.640625 14.683594 L 4.679688 14.664062 Z M 9.90625 11.191406 C 10.203125 10.589844 10.503906 9.96875 10.582031 9.816406 L 10.742188 9.496094 L 11.019531 9.890625 L 10.070312 11.917969 L 12.972656 11.960938 C 13.011719 12.054688 13.054688 12.191406 13.070312 12.292969 C 13.007812 12.292969 12.285156 12.289062 11.191406 12.289062 L 9.375 12.289062 Z M 17.445312 10.019531 C 17.691406 9.660156 17.996094 8.945312 17.757812 8.601562 L 15.503906 8.535156 L 15.117188 8.042969 L 16.644531 8.046875 C 17.851562 8.0625 17.957031 8.070312 18.109375 8.160156 C 18.203125 8.210938 18.316406 8.332031 18.367188 8.425781 C 18.453125 8.582031 18.457031 8.625 18.40625 8.867188 C 18.375 9.015625 18.238281 9.371094 18.101562 9.65625 L 17.8125 10.261719 Z M 13.332031 5.761719 C 15.074219 5.328125 18.21875 5.882812 19.589844 5.359375 C 19.867188 4.929688 20.539062 3.929688 20.507812 3.296875 L 14.382812 3.328125 C 14.078125 3.816406 13.75 4.726562 13.335938 5.230469 C 13.316406 5.230469 13.140625 4.835938 13.125 4.707031 C 13.21875 4.488281 13.253906 4.421875 13.648438 3.601562 L 14.0625 2.742188 L 17.304688 2.757812 C 20.902344 2.773438 20.789062 2.761719 20.996094 3.085938 C 21.15625 3.34375 21.097656 3.5625 20.628906 4.519531 C 20.167969 5.460938 20 5.675781 19.570312 5.875 C 19.128906 6.085938 18.910156 6.101562 16.261719 6.101562 L 13.601562 6.101562 C 13.488281 5.984375 13.417969 5.9375 13.332031 5.761719 Z M 13.332031 5.761719 "/>
<path style="fill-rule:evenodd;fill:rgb(100%,100%,100%);fill-opacity:1;stroke-width:1;stroke-linecap:butt;stroke-linejoin:miter;stroke:rgb(0%,0%,0%);stroke-opacity:1;stroke-miterlimit:4;" d="M 1353.460391 308.834933 C 1363.464493 312.142074 1372.476453 315.20118 1382.397876 318.425642 C 1391.657871 326.280102 1400.917867 334.051884 1410.177862 341.823666 C 1410.343219 345.792235 1410.508576 349.843483 1410.673933 353.812052 C 1401.661973 354.390802 1395.626441 354.969552 1383.555376 353.233303 C 1385.126268 358.111336 1386.779838 363.072048 1388.433409 367.950081 C 1372.64181 357.615265 1356.850211 354.556159 1341.058612 347.77652 C 1346.184681 344.221343 1350.318607 341.492952 1355.361998 337.937775 C 1348.086287 334.961348 1341.802719 331.158136 1334.609687 328.264387 C 1341.637362 325.701353 1349.491822 323.965104 1356.519497 321.402069 C 1355.444676 317.4335 1354.535212 312.803502 1353.460391 308.834933 Z M 1353.460391 308.834933 " transform="matrix(0.0472462,0,0,0.0472462,-43.262327,-0.0405097)"/>
<path style="fill-rule:evenodd;fill:rgb(100%,100%,100%);fill-opacity:1;stroke-width:1;stroke-linecap:butt;stroke-linejoin:miter;stroke:rgb(0%,0%,0%);stroke-opacity:1;stroke-miterlimit:4;" d="M 1259.537583 366.87526 C 1269.789721 382.914894 1286.077391 391.513461 1301.124883 401.600242 C 1282.852928 412.34845 1270.451149 406.560953 1250.277588 404.328633 C 1237.462416 398.210422 1227.375636 393.24971 1218.198319 383.16293 C 1232.005633 377.706147 1245.730269 373.654899 1259.537583 366.87526 Z M 1259.537583 366.87526 " transform="matrix(0.0472462,0,0,0.0472462,-43.262327,-0.0405097)"/>
<path style=" stroke:none;fill-rule:evenodd;fill:rgb(100%,100%,100%);fill-opacity:1;" d="M 23.0625 16.761719 C 23.394531 16.875 23.445312 17.160156 23.460938 17.472656 C 23.570312 17.382812 23.617188 17.34375 23.671875 17.179688 C 23.585938 17.0625 23.519531 16.917969 23.429688 16.800781 C 23.289062 16.71875 23.1875 16.679688 23.0625 16.761719 Z M 23.0625 16.761719 "/>
<path style=" stroke:none;fill-rule:nonzero;fill:rgb(76.862745%,69.803922%,39.215686%);fill-opacity:1;" d="M 20.058594 19.148438 C 20.136719 19.015625 20.28125 19.023438 20.25 18.910156 C 20.195312 18.863281 20.078125 18.742188 20.027344 18.703125 C 19.933594 18.632812 20.074219 18.625 20.183594 18.625 C 20.347656 18.621094 21.324219 19.070312 21.464844 19.222656 C 21.566406 19.324219 21.65625 19.453125 21.691406 19.578125 C 21.4375 19.449219 21.269531 19.34375 21.160156 19.328125 C 21.191406 19.457031 21.183594 19.59375 21.136719 19.707031 C 20.820312 19.246094 20.726562 19.128906 20.058594 19.148438 Z M 22.546875 19.425781 C 22.402344 19.277344 22.066406 19.214844 21.859375 19.25 C 21.707031 19.28125 21.710938 19.125 21.816406 19.058594 C 22.007812 18.949219 21.589844 19.015625 21.386719 18.707031 C 21.667969 18.617188 22.734375 19.011719 22.917969 19.117188 C 23.164062 19.257812 23.21875 19.386719 22.988281 19.363281 C 22.761719 19.34375 22.710938 19.179688 22.773438 19.34375 C 22.832031 19.5 22.683594 19.574219 22.546875 19.425781 Z M 23.277344 17.703125 C 23.273438 17.242188 22.804688 17.027344 22.492188 16.925781 C 22.597656 17.257812 22.726562 17.414062 22.769531 17.75 C 22.503906 17.554688 22.113281 16.6875 22.140625 16.660156 C 22.390625 16.675781 22.632812 16.71875 22.886719 16.703125 C 23.3125 16.660156 23.410156 16.695312 23.535156 16.914062 C 23.898438 17.371094 23.570312 17.574219 23.277344 17.703125 Z M 23.5625 17.320312 C 23.621094 17.167969 23.585938 17.058594 23.429688 16.894531 C 23.324219 16.78125 23.242188 16.730469 23.183594 16.746094 C 23.109375 16.765625 23.113281 16.769531 23.203125 16.773438 C 23.261719 16.777344 23.308594 16.800781 23.308594 16.828125 C 23.308594 16.855469 23.351562 16.9375 23.410156 17.011719 C 23.472656 17.101562 23.5 17.191406 23.484375 17.273438 C 23.460938 17.40625 23.515625 17.4375 23.5625 17.320312 Z M 22.820312 17.097656 C 22.96875 17.152344 22.921875 17.445312 22.800781 17.554688 C 22.726562 17.398438 22.71875 17.179688 22.820312 17.097656 Z M 22.535156 16.179688 C 22.582031 16.261719 22.621094 16.324219 22.59375 16.375 C 22.566406 16.421875 22.503906 16.460938 22.460938 16.460938 C 22.394531 16.433594 22.371094 16.382812 22.382812 16.289062 C 22.390625 16.226562 22.460938 16.191406 22.535156 16.179688 Z M 22.535156 16.179688 "/>
<path style=" stroke:none;fill-rule:nonzero;fill:rgb(0%,0%,0%);fill-opacity:1;" d="M 8.898438 24.609375 C 8.996094 24.394531 10.089844 22.179688 11.324219 19.683594 L 13.566406 15.148438 L 8.785156 15.125 L 4 15.101562 L 7.734375 7.550781 L 11.472656 0 L 16.789062 0.0195312 C 20.277344 0.0351562 22.265625 0.0625 22.574219 0.0976562 C 24.085938 0.265625 24.847656 0.558594 25.230469 1.113281 C 25.609375 1.660156 25.617188 2.292969 25.261719 3.234375 C 25.082031 3.714844 24.179688 5.511719 23.945312 5.867188 C 23.59375 6.394531 23.007812 6.894531 22.398438 7.191406 L 22.1875 7.296875 L 22.296875 7.488281 C 22.355469 7.597656 22.425781 7.820312 22.457031 7.984375 C 22.542969 8.472656 22.441406 8.929688 22.042969 9.832031 C 22.027344 9.871094 22.097656 9.839844 22.199219 9.757812 C 22.457031 9.554688 22.894531 9.292969 23.613281 8.914062 C 25.269531 8.039062 26.140625 7.40625 26.789062 6.601562 C 27.347656 5.902344 27.652344 5.21875 27.765625 4.390625 L 27.828125 3.953125 L 27.90625 4.210938 C 28.089844 4.800781 28.09375 5.453125 27.914062 6.15625 C 27.824219 6.503906 27.449219 7.320312 27.226562 7.636719 C 27.117188 7.796875 27.101562 7.84375 27.164062 7.8125 C 27.261719 7.757812 27.84375 7.164062 28.050781 6.90625 L 28.183594 6.738281 L 28.152344 6.964844 C 28.089844 7.40625 27.824219 8.027344 27.496094 8.484375 C 27.402344 8.613281 27.335938 8.726562 27.34375 8.734375 C 27.382812 8.773438 27.839844 8.507812 28.082031 8.304688 C 28.222656 8.1875 28.34375 8.097656 28.355469 8.109375 C 28.363281 8.117188 28.304688 8.25 28.226562 8.402344 C 28.035156 8.785156 27.714844 9.167969 27.367188 9.425781 L 27.078125 9.644531 L 29.328125 9.644531 C 30.5625 9.644531 31.574219 9.65625 31.574219 9.667969 C 31.574219 9.683594 30.941406 10.980469 30.164062 12.550781 L 28.75 15.410156 L 26.265625 15.410156 C 24.625 15.410156 23.78125 15.394531 23.78125 15.359375 C 23.78125 15.335938 23.992188 14.886719 24.253906 14.371094 L 24.726562 13.425781 L 24.40625 13.425781 L 24.085938 13.429688 L 23.828125 13.855469 C 23.519531 14.363281 23.109375 14.828125 22.785156 15.039062 C 22.570312 15.175781 22.492188 15.265625 22.59375 15.265625 C 22.671875 15.265625 23.28125 15.863281 23.410156 16.066406 C 23.488281 16.191406 23.542969 16.34375 23.542969 16.4375 C 23.542969 16.542969 23.585938 16.652344 23.660156 16.738281 C 23.824219 16.929688 23.894531 17.214844 23.828125 17.410156 C 23.765625 17.601562 23.539062 17.820312 23.269531 17.957031 L 23.066406 18.058594 L 23.09375 17.855469 C 23.113281 17.746094 23.105469 17.601562 23.082031 17.535156 C 23.039062 17.421875 23.03125 17.425781 22.929688 17.664062 C 22.871094 17.800781 22.800781 17.914062 22.773438 17.914062 C 22.742188 17.914062 22.601562 17.789062 22.457031 17.632812 C 22.3125 17.480469 22.085938 17.300781 21.945312 17.230469 C 21.65625 17.085938 20.992188 16.824219 20.992188 16.855469 C 20.992188 16.867188 21.121094 17.097656 21.28125 17.371094 C 21.4375 17.640625 21.640625 18.027344 21.726562 18.226562 C 21.960938 18.769531 22.085938 18.800781 22.273438 18.367188 L 22.386719 18.105469 L 24.898438 18.101562 L 27.414062 18.101562 L 26.507812 19.933594 C 25.214844 22.554688 24.957031 22.976562 24.28125 23.617188 C 23.394531 24.460938 22.3125 24.8125 20.167969 24.949219 C 19.714844 24.980469 17.257812 25 14.0625 25 L 8.714844 25 Z M 20.613281 24.34375 C 22.816406 24.105469 23.753906 23.636719 24.59375 22.355469 C 24.789062 22.0625 26.472656 18.777344 26.472656 18.695312 C 26.472656 18.679688 25.636719 18.667969 24.613281 18.667969 L 22.753906 18.667969 L 22.707031 18.78125 C 22.660156 18.882812 22.671875 18.898438 22.882812 18.988281 C 23.160156 19.105469 23.308594 19.3125 23.308594 19.597656 C 23.308594 19.929688 23.261719 19.96875 23.148438 19.746094 C 23.035156 19.519531 22.929688 19.457031 22.929688 19.613281 C 22.929688 19.671875 22.855469 19.789062 22.769531 19.878906 C 22.589844 20.058594 22.46875 20.097656 22.550781 19.949219 C 22.625 19.808594 22.609375 19.636719 22.507812 19.511719 C 22.457031 19.453125 22.40625 19.410156 22.394531 19.425781 C 22.382812 19.4375 22.1875 19.820312 21.964844 20.273438 C 21.613281 20.992188 21.519531 21.136719 21.285156 21.363281 C 20.820312 21.808594 20.988281 21.789062 17.605469 21.789062 L 14.667969 21.789062 L 15.277344 20.539062 C 15.613281 19.855469 15.890625 19.285156 15.890625 19.269531 C 15.890625 19.257812 15.789062 19.222656 15.664062 19.1875 C 15.375 19.109375 14.933594 18.890625 14.652344 18.6875 C 14.433594 18.527344 14.066406 18.125 14.039062 18.015625 C 14.03125 17.980469 14.265625 17.878906 14.640625 17.753906 C 15.625 17.421875 16.644531 16.867188 17.058594 16.4375 L 17.214844 16.277344 L 16.851562 16.171875 C 16.246094 15.996094 15.414062 15.542969 15.035156 15.191406 C 14.933594 15.09375 14.871094 15.078125 14.582031 15.078125 L 14.25 15.078125 L 11.953125 19.730469 C 10.6875 22.285156 9.652344 24.394531 9.652344 24.410156 C 9.652344 24.464844 20.078125 24.402344 20.613281 24.34375 Z M 20.605469 21.148438 C 20.886719 21.03125 21.050781 20.832031 21.324219 20.273438 L 21.582031 19.746094 L 21.300781 19.503906 L 21.273438 19.6875 C 21.242188 19.925781 21.214844 19.96875 20.980469 20.136719 C 20.714844 20.328125 20.636719 20.316406 20.78125 20.101562 C 20.96875 19.828125 20.9375 19.519531 20.707031 19.398438 C 20.460938 19.273438 20.246094 19.308594 20.042969 19.511719 C 19.84375 19.710938 19.8125 19.691406 19.8125 19.371094 C 19.8125 19.234375 19.84375 19.152344 19.933594 19.0625 L 20.054688 18.9375 L 19.921875 18.828125 C 19.847656 18.769531 19.738281 18.71875 19.679688 18.71875 C 19.550781 18.714844 18.871094 18.496094 18.792969 18.429688 C 18.757812 18.402344 18.660156 18.5 18.503906 18.730469 C 18.371094 18.917969 18.21875 19.109375 18.164062 19.160156 C 18.015625 19.292969 17.578125 19.375 17.011719 19.378906 L 16.503906 19.378906 L 16.054688 20.273438 C 15.808594 20.769531 15.605469 21.183594 15.605469 21.195312 C 15.605469 21.210938 16.691406 21.21875 18.015625 21.21875 C 20.089844 21.21875 20.453125 21.210938 20.605469 21.148438 Z M 21.117188 19.421875 C 21.085938 19.238281 21.089844 19.230469 21.191406 19.261719 C 21.25 19.28125 21.375 19.335938 21.464844 19.390625 L 21.628906 19.488281 L 21.464844 19.308594 C 21.261719 19.09375 20.40625 18.667969 20.179688 18.671875 C 20.039062 18.671875 20.035156 18.675781 20.117188 18.722656 C 20.171875 18.753906 20.25 18.808594 20.296875 18.851562 C 20.378906 18.917969 20.375 18.929688 20.253906 19.023438 L 20.128906 19.125 L 20.410156 19.105469 C 20.660156 19.085938 20.707031 19.097656 20.835938 19.207031 C 20.914062 19.273438 21.007812 19.394531 21.039062 19.472656 C 21.121094 19.667969 21.152344 19.648438 21.117188 19.421875 Z M 22.695312 19.316406 L 22.652344 19.195312 L 22.84375 19.261719 C 23.085938 19.347656 23.117188 19.324219 22.933594 19.191406 C 22.769531 19.074219 21.707031 18.71875 21.617188 18.75 C 21.515625 18.789062 21.554688 18.84375 21.757812 18.921875 C 21.945312 18.996094 21.949219 19.003906 21.875 19.085938 C 21.761719 19.210938 21.777344 19.234375 21.949219 19.183594 C 22.164062 19.125 22.371094 19.175781 22.558594 19.332031 C 22.644531 19.402344 22.722656 19.457031 22.730469 19.449219 C 22.738281 19.445312 22.722656 19.382812 22.695312 19.316406 Z M 17.753906 18.976562 L 17.992188 18.921875 L 17.710938 18.839844 C 17.054688 18.644531 16.507812 18.265625 16.246094 17.835938 L 16.109375 17.601562 L 15.714844 17.800781 C 15.496094 17.910156 15.160156 18.039062 14.964844 18.082031 C 14.625 18.164062 14.617188 18.167969 14.699219 18.257812 C 14.84375 18.421875 15.480469 18.761719 15.867188 18.886719 C 16.503906 19.089844 17.128906 19.121094 17.753906 18.976562 Z M 21.496094 18.277344 C 21.460938 18.195312 21.367188 18.023438 21.292969 17.898438 L 21.152344 17.675781 L 20.738281 17.65625 C 20.339844 17.636719 20.324219 17.640625 20.398438 17.722656 C 20.441406 17.769531 20.609375 17.878906 20.769531 17.96875 L 21.0625 18.125 L 20.828125 18.148438 L 20.589844 18.171875 L 20.828125 18.273438 C 21.109375 18.394531 21.203125 18.421875 21.40625 18.425781 L 21.5625 18.433594 Z M 20.160156 18.207031 C 20.101562 17.949219 19.945312 17.515625 19.832031 17.296875 C 19.730469 17.09375 19.699219 17.070312 19.515625 17.039062 C 19.40625 17.023438 19.199219 16.976562 19.054688 16.933594 L 18.796875 16.859375 L 19.269531 16.792969 C 19.527344 16.753906 19.867188 16.710938 20.023438 16.691406 L 20.308594 16.65625 L 20.117188 16.601562 C 20.015625 16.570312 19.898438 16.542969 19.859375 16.542969 C 19.820312 16.542969 19.757812 16.523438 19.722656 16.5 C 19.675781 16.472656 19.761719 16.394531 20.027344 16.21875 C 20.230469 16.085938 20.425781 15.976562 20.457031 15.976562 C 20.492188 15.976562 20.519531 15.957031 20.519531 15.933594 C 20.519531 15.878906 20.097656 15.714844 19.679688 15.605469 C 19.519531 15.5625 19.386719 15.515625 19.386719 15.496094 C 19.386719 15.453125 20.179688 15.140625 20.394531 15.101562 C 20.488281 15.082031 20.578125 15.050781 20.589844 15.03125 C 20.601562 15.011719 20.527344 14.863281 20.425781 14.703125 C 20.320312 14.542969 20.238281 14.402344 20.238281 14.386719 C 20.238281 14.3125 21.070312 14.503906 21.542969 14.6875 C 21.59375 14.707031 21.605469 14.597656 21.605469 14.175781 C 21.609375 12.753906 22.066406 11.464844 22.890625 10.570312 C 23.320312 10.105469 23.902344 9.671875 24.960938 9.027344 C 25.441406 8.734375 25.953125 8.40625 26.097656 8.292969 C 26.402344 8.0625 26.785156 7.652344 26.917969 7.417969 C 27 7.277344 26.976562 7.289062 26.714844 7.53125 C 26.222656 7.984375 25.957031 8.148438 24.0625 9.171875 C 22.238281 10.15625 21.207031 11.191406 20.613281 12.625 C 20.40625 13.121094 20.273438 13.613281 20.347656 13.613281 C 20.375 13.613281 20.488281 13.671875 20.59375 13.742188 C 20.871094 13.929688 21.175781 14.199219 21.0625 14.160156 C 21.011719 14.140625 20.757812 14.078125 20.503906 14.019531 L 20.035156 13.914062 L 19.933594 13.585938 C 19.574219 12.46875 18.859375 11.625 17.136719 10.285156 C 14.902344 8.546875 13.96875 7.601562 13.273438 6.371094 C 13.152344 6.15625 13.054688 6.003906 13.054688 6.027344 C 13.054688 6.175781 13.335938 6.957031 13.550781 7.402344 C 14.070312 8.480469 14.691406 9.144531 16.339844 10.378906 C 18.089844 11.691406 18.507812 12.097656 18.867188 12.835938 C 19.109375 13.335938 19.210938 13.742188 19.210938 14.226562 C 19.21875 15.101562 18.847656 15.703125 17.921875 16.3125 L 17.804688 16.386719 L 18.113281 16.695312 C 18.285156 16.867188 18.605469 17.125 18.832031 17.273438 C 19.058594 17.421875 19.246094 17.546875 19.246094 17.554688 C 19.246094 17.578125 18.5625 17.449219 18.160156 17.351562 L 17.8125 17.265625 L 17.972656 17.398438 C 18.1875 17.578125 18.804688 17.878906 19.246094 18.023438 L 19.597656 18.140625 L 19.269531 18.15625 L 18.9375 18.171875 L 19.171875 18.253906 C 19.3125 18.300781 19.566406 18.332031 19.800781 18.335938 L 20.191406 18.339844 Z M 23.59375 17.4375 C 23.671875 17.292969 23.644531 17.089844 23.519531 16.914062 C 23.378906 16.703125 23.214844 16.65625 22.867188 16.730469 C 22.691406 16.765625 22.574219 16.769531 22.484375 16.734375 C 22.320312 16.671875 22.222656 16.671875 22.222656 16.734375 C 22.222656 16.820312 22.507812 17.371094 22.625 17.515625 C 22.734375 17.648438 22.734375 17.640625 22.601562 17.347656 C 22.527344 17.175781 22.453125 16.992188 22.433594 16.933594 C 22.40625 16.832031 22.410156 16.828125 22.535156 16.875 C 23.003906 17.054688 23.308594 17.332031 23.308594 17.578125 C 23.308594 17.675781 23.3125 17.675781 23.425781 17.601562 C 23.492188 17.558594 23.566406 17.484375 23.59375 17.4375 Z M 22.878906 17.265625 C 22.882812 17.210938 22.859375 17.148438 22.835938 17.132812 C 22.804688 17.117188 22.789062 17.191406 22.792969 17.332031 C 22.792969 17.5 22.804688 17.535156 22.835938 17.464844 C 22.859375 17.414062 22.878906 17.324219 22.878906 17.265625 Z M 22.078125 16.828125 C 22.023438 16.691406 21.992188 16.566406 22.003906 16.554688 C 22.019531 16.539062 22.152344 16.554688 22.296875 16.582031 C 22.445312 16.613281 22.621094 16.636719 22.683594 16.636719 C 22.777344 16.636719 22.789062 16.625 22.742188 16.570312 C 22.710938 16.53125 22.621094 16.496094 22.542969 16.488281 C 22.332031 16.464844 22.269531 16.339844 22.394531 16.203125 C 22.449219 16.144531 22.480469 16.066406 22.46875 16.027344 C 22.414062 15.875 22.5625 16.046875 22.65625 16.242188 C 22.769531 16.484375 22.847656 16.535156 22.960938 16.441406 C 23.03125 16.386719 23.039062 16.390625 23.011719 16.484375 C 22.988281 16.578125 23.003906 16.589844 23.148438 16.589844 C 23.292969 16.589844 23.308594 16.578125 23.308594 16.457031 C 23.308594 16.101562 22.722656 15.550781 21.921875 15.148438 C 21.429688 14.898438 20.917969 14.710938 20.867188 14.761719 C 20.855469 14.777344 20.917969 14.898438 21.011719 15.039062 L 21.183594 15.289062 L 20.816406 15.320312 C 20.613281 15.335938 20.363281 15.375 20.265625 15.40625 L 20.082031 15.46875 L 20.3125 15.550781 C 20.441406 15.59375 20.660156 15.691406 20.804688 15.761719 C 21.003906 15.863281 21.046875 15.90625 20.992188 15.9375 C 20.953125 15.960938 20.796875 16.058594 20.640625 16.152344 L 20.363281 16.324219 L 20.773438 16.457031 C 21.199219 16.59375 21.757812 16.84375 22.007812 17.003906 C 22.085938 17.054688 22.15625 17.09375 22.164062 17.085938 C 22.171875 17.078125 22.132812 16.964844 22.078125 16.828125 Z M 22.503906 16.40625 C 22.503906 16.382812 22.515625 16.328125 22.53125 16.285156 C 22.550781 16.238281 22.535156 16.210938 22.484375 16.210938 C 22.4375 16.210938 22.410156 16.253906 22.410156 16.332031 C 22.410156 16.394531 22.429688 16.449219 22.457031 16.449219 C 22.484375 16.449219 22.503906 16.429688 22.503906 16.40625 Z M 17.664062 14.886719 C 17.917969 14.765625 18.179688 14.511719 18.304688 14.261719 C 18.390625 14.101562 18.402344 14.007812 18.386719 13.6875 C 18.367188 13.371094 18.339844 13.257812 18.214844 13.023438 C 17.878906 12.398438 17.300781 11.859375 16.148438 11.085938 C 15.707031 10.792969 15.164062 10.40625 14.945312 10.230469 C 14.382812 9.78125 13.230469 8.621094 12.828125 8.09375 C 12.640625 7.851562 12.488281 7.660156 12.488281 7.671875 C 12.488281 7.734375 12.769531 8.367188 12.988281 8.792969 C 13.507812 9.816406 14.28125 10.863281 15.097656 11.664062 C 15.34375 11.90625 15.535156 12.101562 15.515625 12.101562 C 15.390625 12.101562 13.851562 11.144531 13.066406 10.574219 C 12.828125 10.402344 12.621094 10.257812 12.605469 10.257812 C 12.589844 10.257812 12.667969 10.382812 12.777344 10.53125 C 13.550781 11.585938 14.589844 12.652344 15.339844 13.160156 C 15.441406 13.226562 15.503906 13.28125 15.476562 13.28125 C 15.386719 13.28125 14.597656 12.992188 14.367188 12.875 C 14.242188 12.8125 14.140625 12.773438 14.140625 12.789062 C 14.140625 12.960938 14.753906 13.757812 15.144531 14.09375 C 15.527344 14.421875 16.054688 14.75 16.40625 14.871094 C 16.820312 15.019531 17.378906 15.027344 17.664062 14.886719 Z M 29.519531 12.542969 C 30.128906 11.304688 30.628906 10.285156 30.628906 10.273438 C 30.628906 10.265625 29.804688 10.257812 28.792969 10.257812 L 26.953125 10.257812 L 26.464844 10.597656 C 25.410156 11.332031 25.125 11.605469 24.722656 12.269531 C 24.367188 12.859375 24.339844 12.808594 25.027344 12.808594 C 25.394531 12.808594 25.621094 12.828125 25.621094 12.859375 C 25.621094 12.882812 25.410156 13.332031 25.148438 13.851562 L 24.675781 14.792969 L 28.40625 14.792969 Z M 14.332031 14.519531 C 14.332031 14.5 14.265625 14.421875 14.1875 14.34375 C 13.820312 13.992188 13.246094 12.988281 13.046875 12.351562 L 12.941406 12.007812 L 11.433594 12.007812 C 10.246094 12.007812 9.933594 11.996094 9.949219 11.949219 C 9.964844 11.914062 10.191406 11.441406 10.453125 10.894531 L 10.933594 9.902344 L 10.742188 9.566406 C 10.546875 9.230469 10.316406 8.65625 10.316406 8.496094 C 10.316406 8.425781 10.359375 8.449219 10.535156 8.601562 C 10.886719 8.914062 11.636719 9.238281 11.636719 9.078125 C 11.636719 9.046875 11.503906 8.875 11.335938 8.695312 C 10.761719 8.078125 10.511719 7.410156 10.46875 6.410156 C 10.457031 6.070312 10.460938 5.808594 10.480469 5.828125 C 10.5 5.847656 10.582031 6.03125 10.667969 6.238281 C 10.75 6.445312 10.890625 6.738281 10.980469 6.886719 C 11.171875 7.207031 11.644531 7.707031 11.863281 7.820312 L 12.015625 7.898438 L 11.828125 7.609375 C 11.589844 7.238281 11.382812 6.703125 11.289062 6.203125 C 11.148438 5.46875 11.210938 4.390625 11.4375 3.644531 L 11.515625 3.386719 L 11.554688 3.808594 C 11.671875 5.171875 12.085938 6.277344 12.816406 7.1875 C 12.890625 7.28125 12.871094 7.191406 12.730469 6.785156 C 12.261719 5.449219 12.289062 4.257812 12.8125 3.160156 C 12.984375 2.789062 13.277344 2.339844 13.316406 2.378906 C 13.328125 2.386719 13.304688 2.566406 13.265625 2.773438 C 13.152344 3.421875 13.199219 5.015625 13.335938 5.015625 C 13.355469 5.015625 13.574219 4.589844 13.824219 4.070312 L 14.28125 3.125 L 17.292969 3.128906 C 20.550781 3.132812 20.648438 3.140625 20.726562 3.371094 C 20.765625 3.476562 20.710938 3.621094 20.375 4.332031 C 19.925781 5.285156 19.753906 5.503906 19.304688 5.683594 C 19.03125 5.792969 19.03125 5.792969 16.300781 5.808594 L 13.570312 5.824219 L 13.75 6.164062 C 14.015625 6.664062 14.410156 7.171875 15.046875 7.824219 L 15.613281 8.410156 L 16.730469 8.425781 C 17.875 8.441406 18.015625 8.460938 18.082031 8.636719 C 18.125 8.75 17.988281 9.179688 17.769531 9.617188 L 17.582031 9.996094 L 17.695312 10.089844 C 17.761719 10.144531 17.964844 10.3125 18.148438 10.464844 C 18.671875 10.894531 19.441406 11.71875 19.71875 12.144531 C 19.855469 12.355469 19.984375 12.527344 20 12.527344 C 20.058594 12.527344 21.738281 9.117188 21.816406 8.84375 C 21.855469 8.703125 21.890625 8.449219 21.890625 8.28125 C 21.890625 7.765625 21.675781 7.445312 21.160156 7.207031 C 21.027344 7.144531 20.957031 7.089844 20.996094 7.078125 C 22.261719 6.703125 22.828125 6.378906 23.332031 5.722656 C 23.636719 5.328125 24.75 3.054688 24.871094 2.582031 C 25.027344 1.96875 24.949219 1.589844 24.601562 1.28125 C 23.894531 0.664062 22.628906 0.5625 15.902344 0.582031 L 11.828125 0.597656 L 8.378906 7.5625 C 6.480469 11.390625 4.929688 14.53125 4.929688 14.542969 C 4.929688 14.550781 7.042969 14.558594 9.628906 14.558594 C 12.214844 14.558594 14.332031 14.542969 14.332031 14.519531 Z M 22.851562 14.082031 C 23.1875 13.859375 23.417969 13.554688 23.761719 12.882812 C 24.4375 11.566406 24.878906 11.066406 25.855469 10.507812 C 26.082031 10.378906 26.175781 10.304688 26.109375 10.304688 C 25.910156 10.304688 25.066406 10.507812 24.589844 10.671875 C 24.546875 10.683594 24.703125 10.566406 24.9375 10.402344 C 25.671875 9.894531 26.261719 9.355469 26.710938 8.773438 C 26.75 8.726562 26.628906 8.792969 26.445312 8.929688 C 26.261719 9.0625 25.785156 9.363281 25.382812 9.59375 C 24.980469 9.824219 24.472656 10.128906 24.253906 10.265625 C 23.734375 10.589844 23.097656 11.222656 22.890625 11.617188 C 22.742188 11.898438 22.488281 12.574219 22.527344 12.574219 C 22.539062 12.574219 22.648438 12.511719 22.769531 12.433594 C 23.011719 12.28125 23.296875 12.171875 23.34375 12.214844 C 23.429688 12.300781 23.003906 13.484375 22.71875 13.960938 C 22.628906 14.109375 22.574219 14.226562 22.59375 14.226562 C 22.613281 14.226562 22.730469 14.160156 22.851562 14.082031 Z M 11.941406 11.144531 C 11.785156 10.984375 11.582031 10.761719 11.488281 10.65625 L 11.320312 10.464844 L 10.835938 11.441406 L 12.226562 11.441406 Z M 17.269531 9.324219 L 17.390625 9.054688 L 17.160156 9.039062 C 17.035156 9.03125 16.816406 9.03125 16.671875 9.039062 L 16.410156 9.054688 L 16.75 9.324219 C 16.941406 9.472656 17.109375 9.597656 17.125 9.597656 C 17.140625 9.597656 17.207031 9.476562 17.269531 9.324219 Z M 19.078125 5.144531 C 19.179688 5.097656 19.304688 5.023438 19.355469 4.976562 C 19.445312 4.898438 20 3.832031 20 3.738281 C 20 3.707031 19.105469 3.691406 17.332031 3.691406 L 14.664062 3.691406 L 14.285156 4.449219 C 14.074219 4.863281 13.90625 5.214844 13.90625 5.230469 C 13.90625 5.242188 15.027344 5.25 16.398438 5.242188 C 18.671875 5.230469 18.90625 5.21875 19.078125 5.144531 Z M 19.078125 5.144531 "/>
</g>
</svg>
