<?xml version="1.0" encoding="UTF-8"?>
<svg xmlns="http://www.w3.org/2000/svg" xmlns:xlink="http://www.w3.org/1999/xlink" width="35pt" height="25pt" viewBox="0 0 35 25" version="1.1">
<g id="surface1">
<path style=" stroke:none;fill-rule:nonzero;fill:rgb(96.470588%,40.392157%,20%);fill-opacity:1;" d="M 18.601562 0.0507812 C 18.574219 0.125 18.621094 0.183594 18.628906 0.234375 C 18.601562 0.242188 18.585938 0.285156 18.574219 0.289062 C 18.480469 0.320312 18.359375 0.265625 18.261719 0.289062 C 18.207031 0.300781 18.132812 0.410156 18.078125 0.421875 C 17.957031 0.445312 17.890625 0.363281 17.789062 0.445312 C 17.738281 0.484375 17.632812 0.816406 17.605469 0.894531 C 17.574219 0.878906 17.554688 0.902344 17.527344 0.894531 C 17.496094 0.882812 17.457031 0.800781 17.421875 0.789062 C 17.179688 0.691406 17.1875 0.886719 17.078125 0.972656 C 17.039062 1 16.96875 1 16.921875 1.023438 C 16.921875 1.023438 16.902344 0.945312 16.894531 0.917969 C 16.925781 0.890625 17.015625 0.859375 17.027344 0.8125 C 17.035156 0.785156 17.015625 0.734375 17.027344 0.707031 C 17.003906 0.691406 16.980469 0.691406 16.972656 0.65625 C 16.925781 0.65625 16.863281 0.667969 16.816406 0.65625 C 16.789062 0.691406 16.722656 0.746094 16.710938 0.789062 C 16.707031 0.804688 16.722656 0.847656 16.710938 0.867188 C 16.691406 0.894531 16.589844 0.914062 16.582031 0.945312 C 16.542969 1.0625 16.605469 1.15625 16.632812 1.234375 L 16.582031 1.234375 C 16.542969 1.246094 16.464844 1.382812 16.476562 1.445312 C 16.480469 1.464844 16.546875 1.507812 16.554688 1.523438 C 16.5625 1.539062 16.566406 1.617188 16.582031 1.628906 C 16.601562 1.648438 16.640625 1.628906 16.660156 1.652344 C 16.613281 1.753906 16.617188 1.796875 16.582031 1.917969 C 16.566406 1.90625 16.515625 1.917969 16.5 1.917969 C 16.433594 1.769531 16.414062 1.824219 16.449219 1.601562 C 16.421875 1.589844 16.367188 1.527344 16.34375 1.523438 C 16.265625 1.5 16.15625 1.546875 16.082031 1.523438 C 16.054688 1.515625 16.039062 1.425781 16.003906 1.417969 C 15.972656 1.410156 15.875 1.4375 15.898438 1.445312 C 15.867188 1.5 15.828125 1.554688 15.792969 1.628906 C 15.789062 1.636719 15.742188 1.648438 15.742188 1.652344 C 15.722656 1.695312 15.746094 1.78125 15.714844 1.8125 C 15.664062 1.855469 15.582031 1.824219 15.53125 1.863281 C 15.492188 1.894531 15.421875 2.273438 15.476562 2.308594 C 15.558594 2.363281 15.605469 2.3125 15.660156 2.285156 C 15.703125 2.261719 15.679688 2.234375 15.6875 2.179688 C 15.707031 2.183594 15.765625 2.207031 15.765625 2.207031 C 15.753906 2.285156 15.746094 2.300781 15.742188 2.390625 C 15.710938 2.394531 15.699219 2.4375 15.6875 2.441406 C 15.609375 2.46875 15.480469 2.421875 15.398438 2.441406 L 15.371094 2.496094 C 15.332031 2.519531 15.292969 2.496094 15.242188 2.519531 C 15.269531 2.378906 15.285156 2.300781 15.320312 2.179688 C 15.269531 2.160156 15.308594 2.175781 15.292969 2.125 C 15.167969 2.117188 15.058594 2.074219 14.980469 2.179688 C 14.875 2.3125 14.914062 2.449219 14.980469 2.574219 C 14.925781 2.636719 14.835938 2.710938 14.820312 2.808594 C 14.816406 2.839844 14.835938 2.914062 14.820312 2.941406 C 14.816406 2.949219 14.703125 2.964844 14.691406 2.964844 C 14.683594 3.019531 14.683594 3.082031 14.664062 3.152344 C 14.667969 3.152344 14.757812 3.167969 14.769531 3.175781 C 14.796875 3.199219 14.792969 3.285156 14.820312 3.308594 C 14.765625 3.304688 14.46875 3.332031 14.402344 3.386719 C 14.335938 3.4375 14.4375 3.703125 14.402344 3.808594 C 14.382812 3.863281 14.300781 3.917969 14.269531 3.964844 C 14.152344 4.15625 14.0625 4.296875 13.929688 4.464844 C 13.90625 4.492188 13.835938 4.515625 13.824219 4.566406 C 13.742188 4.890625 13.902344 4.773438 13.980469 4.804688 C 14 4.8125 14.085938 4.890625 14.113281 4.910156 C 14.0625 5.011719 13.945312 5.175781 14.035156 5.328125 C 14.050781 5.359375 14.121094 5.375 14.140625 5.410156 C 14.15625 5.445312 14.101562 5.425781 14.113281 5.488281 C 14.136719 5.640625 14.308594 5.644531 14.453125 5.644531 C 14.4375 5.648438 14.355469 5.722656 14.347656 5.722656 C 14.09375 5.796875 14.132812 5.6875 14.035156 5.933594 C 13.917969 5.777344 13.828125 5.742188 13.585938 5.695312 C 13.566406 5.738281 13.539062 5.746094 13.507812 5.777344 C 13.554688 5.894531 13.558594 5.953125 13.613281 6.066406 C 13.570312 6.09375 13.488281 6.128906 13.457031 6.167969 C 13.425781 6.207031 13.4375 6.269531 13.402344 6.300781 C 13.375 6.324219 13.332031 6.308594 13.300781 6.328125 C 13.265625 6.347656 13.21875 6.425781 13.195312 6.457031 C 13.203125 6.476562 13.195312 6.542969 13.195312 6.5625 C 13.328125 6.597656 13.34375 6.613281 13.507812 6.589844 C 13.496094 6.617188 13.519531 6.636719 13.507812 6.667969 L 13.457031 6.695312 C 13.398438 6.78125 13.425781 6.832031 13.402344 6.957031 C 13.421875 6.964844 13.5 6.996094 13.507812 7.011719 C 13.582031 7.113281 13.621094 7.199219 13.691406 7.296875 C 13.640625 7.332031 13.5 7.394531 13.484375 7.457031 C 13.46875 7.5 13.496094 7.542969 13.484375 7.585938 C 13.550781 7.605469 13.671875 7.628906 13.746094 7.667969 C 13.761719 7.671875 13.800781 7.738281 13.824219 7.746094 C 13.871094 7.757812 13.910156 7.734375 13.957031 7.746094 C 13.941406 7.804688 13.925781 7.863281 13.902344 7.953125 C 13.835938 7.957031 13.828125 7.902344 13.746094 7.929688 C 13.730469 7.933594 13.691406 7.996094 13.667969 8.007812 C 13.765625 8.195312 13.652344 8.144531 13.929688 8.164062 C 13.953125 8.234375 13.984375 8.316406 14.007812 8.375 L 14.035156 8.375 C 14.054688 8.484375 14 8.523438 14.007812 8.636719 C 14.015625 8.730469 14.097656 8.921875 14.113281 9.003906 C 14.125 9.066406 14.09375 9.128906 14.113281 9.1875 C 14.117188 9.199219 14.160156 9.210938 14.164062 9.242188 C 14.382812 9.164062 14.230469 9.285156 14.375 9.109375 C 14.402344 9.125 14.421875 9.097656 14.453125 9.109375 C 14.460938 9.113281 14.515625 9.183594 14.53125 9.1875 C 14.644531 9.214844 14.664062 9.140625 14.769531 9.1875 C 14.886719 9.242188 14.757812 9.320312 14.742188 9.371094 C 14.734375 9.402344 14.753906 9.449219 14.742188 9.476562 C 14.9375 9.617188 15.007812 9.695312 15.292969 9.6875 C 15.308594 9.652344 15.320312 9.589844 15.347656 9.554688 C 15.367188 9.527344 15.433594 9.527344 15.453125 9.503906 L 15.453125 9.792969 C 15.457031 9.824219 15.605469 10.003906 15.636719 10.054688 C 15.707031 10.050781 15.773438 10.054688 15.84375 10.054688 C 15.855469 10.039062 15.882812 9.953125 15.898438 9.949219 C 16.132812 9.898438 16.199219 10.152344 16.316406 10.1875 C 16.394531 10.207031 16.433594 10.171875 16.5 10.160156 C 16.527344 10.191406 16.539062 10.277344 16.582031 10.292969 C 16.609375 10.300781 16.660156 10.277344 16.6875 10.292969 C 16.691406 10.265625 16.734375 10.25 16.738281 10.238281 C 16.753906 10.195312 16.726562 10.152344 16.738281 10.109375 C 16.714844 10.101562 16.597656 10.097656 16.554688 10.082031 C 16.507812 10.0625 16.488281 9.9375 16.449219 9.925781 L 16.398438 9.925781 C 16.382812 9.894531 16.410156 9.847656 16.398438 9.820312 C 16.414062 9.789062 16.460938 9.746094 16.476562 9.714844 C 16.511719 9.746094 16.582031 9.75 16.605469 9.792969 C 16.621094 9.816406 16.597656 9.871094 16.605469 9.898438 C 16.617188 9.9375 16.6875 9.96875 16.710938 10.003906 C 16.761719 9.992188 16.820312 10.015625 16.871094 10.003906 C 16.960938 9.980469 16.980469 9.875 17.105469 9.871094 C 17.246094 9.863281 17.382812 10.003906 17.578125 9.949219 C 17.710938 9.914062 17.679688 9.742188 17.761719 9.6875 C 17.855469 9.625 17.984375 9.671875 18.101562 9.636719 C 18.132812 9.625 18.175781 9.570312 18.207031 9.554688 C 18.207031 9.535156 18.199219 9.472656 18.207031 9.453125 C 18.222656 9.421875 18.269531 9.433594 18.289062 9.398438 C 18.410156 9.4375 18.566406 9.523438 18.707031 9.453125 C 18.742188 9.433594 18.757812 9.339844 18.785156 9.320312 C 18.8125 9.300781 18.863281 9.308594 18.890625 9.292969 C 18.917969 9.28125 18.96875 9.203125 18.996094 9.1875 C 19.058594 9.15625 19.121094 9.160156 19.179688 9.136719 C 19.179688 9.136719 19.214844 9.011719 19.207031 8.980469 C 19.195312 8.9375 19.109375 8.902344 19.101562 8.875 C 19.082031 8.796875 19.132812 8.808594 19.128906 8.742188 C 19.164062 8.714844 19.179688 8.675781 19.207031 8.636719 C 19.308594 8.652344 19.425781 8.683594 19.519531 8.636719 C 19.578125 8.609375 19.5625 8.550781 19.601562 8.507812 C 19.652344 8.445312 19.769531 8.394531 19.835938 8.347656 C 19.824219 8.261719 19.796875 8.175781 19.808594 8.113281 C 19.820312 8.054688 19.914062 7.996094 19.941406 7.953125 C 19.976562 7.898438 19.964844 7.855469 19.992188 7.796875 C 19.984375 7.789062 19.917969 7.753906 19.914062 7.746094 C 19.902344 7.714844 19.929688 7.695312 19.914062 7.667969 C 20.125 7.519531 20.164062 7.4375 19.914062 7.296875 C 20.070312 7.21875 20.207031 7.132812 20.359375 7.0625 C 20.347656 7.027344 20.359375 6.96875 20.359375 6.929688 C 20.328125 6.917969 20.285156 6.863281 20.257812 6.851562 C 20.152344 6.820312 20.085938 6.855469 20.019531 6.800781 C 19.992188 6.777344 20.003906 6.710938 19.992188 6.667969 C 19.933594 6.6875 19.953125 6.59375 19.941406 6.5625 C 19.945312 6.5625 20.089844 6.574219 20.046875 6.589844 C 20.214844 6.570312 20.511719 6.550781 20.359375 6.328125 C 20.347656 6.308594 20.261719 6.296875 20.257812 6.273438 C 20.238281 6.222656 20.304688 6.148438 20.28125 6.066406 C 20.265625 6 20.167969 5.984375 20.152344 5.960938 C 20.097656 5.878906 20.074219 5.855469 20.175781 5.800781 C 20.164062 5.621094 20.15625 5.628906 20.257812 5.539062 C 20.261719 5.535156 20.328125 5.539062 20.335938 5.539062 C 20.339844 5.511719 20.335938 5.390625 20.359375 5.355469 L 20.519531 5.277344 C 20.484375 5.167969 20.441406 5.0625 20.464844 4.988281 C 20.472656 4.96875 20.539062 4.902344 20.546875 4.882812 C 20.554688 4.824219 20.507812 4.84375 20.519531 4.804688 C 20.488281 4.8125 20.417969 4.832031 20.414062 4.832031 C 20.347656 5.050781 20.371094 5.128906 20.230469 4.9375 C 20.160156 4.945312 20.167969 4.96875 20.125 4.988281 C 20.125 4.988281 20.121094 4.824219 20.125 4.777344 C 20.335938 4.730469 20.257812 4.765625 20.359375 4.621094 C 20.382812 4.636719 20.414062 4.609375 20.441406 4.621094 C 20.46875 4.632812 20.472656 4.710938 20.492188 4.726562 C 20.613281 4.8125 20.777344 4.753906 20.886719 4.726562 C 20.875 4.675781 20.898438 4.617188 20.886719 4.566406 C 20.878906 4.539062 20.789062 4.476562 20.78125 4.4375 C 20.773438 4.40625 20.765625 4.292969 20.808594 4.304688 L 20.808594 4.253906 C 20.800781 4.238281 20.730469 4.183594 20.730469 4.175781 C 20.722656 4.160156 20.734375 4.109375 20.730469 4.09375 C 20.921875 4.011719 20.949219 3.996094 21.042969 3.808594 L 21.097656 3.753906 C 21.105469 3.695312 21.050781 3.652344 21.070312 3.570312 C 21.078125 3.523438 21.167969 3.46875 21.175781 3.414062 C 21.183594 3.355469 21.128906 3.289062 21.148438 3.203125 C 21.160156 3.152344 21.269531 3.0625 21.28125 3.019531 C 21.296875 2.960938 21.269531 2.894531 21.28125 2.835938 C 21.109375 2.734375 21.117188 2.777344 21.097656 2.519531 C 21.140625 2.492188 21.113281 2.496094 21.121094 2.441406 L 21.175781 2.441406 C 21.175781 2.496094 21.171875 2.574219 21.175781 2.652344 C 21.179688 2.652344 21.320312 2.648438 21.28125 2.625 C 21.289062 2.59375 21.332031 2.492188 21.359375 2.46875 C 21.363281 2.464844 21.359375 2.394531 21.359375 2.390625 C 21.347656 2.347656 21.28125 2.292969 21.253906 2.257812 C 21.273438 2.222656 21.3125 2.183594 21.332031 2.152344 C 21.351562 2.121094 21.40625 2.042969 21.410156 2.023438 C 21.4375 1.898438 21.359375 1.792969 21.359375 1.734375 C 21.355469 1.628906 21.421875 1.574219 21.410156 1.445312 L 21.359375 1.363281 C 21.300781 1.074219 21.34375 1.121094 21.070312 1.050781 C 21.058594 1.101562 21.03125 1.199219 21.015625 1.261719 C 20.964844 1.273438 20.984375 1.238281 20.964844 1.285156 C 20.875 1.28125 20.757812 1.265625 20.703125 1.261719 C 20.714844 1.058594 20.699219 0.988281 20.648438 0.8125 C 20.574219 0.796875 20.445312 0.722656 20.335938 0.761719 C 20.316406 0.765625 20.285156 0.824219 20.257812 0.839844 C 20.257812 0.902344 20.265625 0.960938 20.257812 1.023438 L 20.203125 1.023438 C 20.175781 0.96875 20.203125 0.941406 20.175781 0.894531 C 20.140625 0.828125 20.007812 0.769531 19.992188 0.683594 C 19.96875 0.535156 20.066406 0.53125 20.046875 0.394531 C 20.039062 0.355469 19.816406 0.0585938 19.785156 0.0507812 C 19.636719 0.0195312 19.617188 0.121094 19.546875 0.15625 C 19.460938 0.203125 19.363281 0.226562 19.285156 0.261719 C 19.328125 0.433594 19.429688 0.753906 19.101562 0.683594 C 18.984375 0.65625 19.015625 0.578125 18.96875 0.472656 C 18.960938 0.457031 18.894531 0.4375 18.890625 0.421875 C 18.867188 0.300781 18.953125 0.195312 18.890625 0.078125 C 18.851562 0.0117188 18.757812 0.03125 18.679688 0 C 18.675781 0.015625 18.605469 0.0351562 18.601562 0.0507812 "/>
<path style=" stroke:none;fill-rule:nonzero;fill:rgb(96.470588%,40.392157%,20%);fill-opacity:1;" d="M 10.777344 3.359375 C 10.742188 3.398438 10.777344 3.492188 10.753906 3.542969 C 10.726562 3.589844 10.589844 3.65625 10.488281 3.625 C 10.488281 3.625 10.441406 3.484375 10.359375 3.464844 C 10.28125 3.449219 10.183594 3.488281 10.148438 3.492188 L 10.121094 3.703125 L 9.992188 3.859375 L 10.070312 3.886719 C 10.121094 3.964844 10.128906 3.996094 10.175781 4.09375 C 10.148438 4.082031 10.097656 4.105469 10.070312 4.09375 C 9.980469 4.066406 9.882812 3.796875 9.78125 3.753906 C 9.652344 3.695312 9.433594 3.703125 9.28125 3.675781 C 9.253906 3.710938 9.214844 3.730469 9.175781 3.753906 C 9.179688 3.753906 9.175781 3.828125 9.175781 3.832031 C 9.210938 3.839844 9.21875 3.898438 9.175781 3.886719 C 9.171875 3.882812 9.15625 3.839844 9.152344 3.832031 C 9.078125 3.832031 8.988281 3.835938 8.914062 3.832031 C 8.882812 4.003906 8.808594 4.085938 8.730469 4.199219 C 8.699219 4.175781 8.65625 4.199219 8.625 4.175781 C 8.613281 4.167969 8.574219 4.078125 8.574219 4.070312 C 8.75 4.019531 8.277344 4.078125 8.46875 4.09375 C 8.425781 4.109375 8.394531 4.097656 8.363281 4.121094 L 8.207031 4.304688 C 8.164062 4.378906 8.1875 4.519531 8.101562 4.566406 C 8.0625 4.589844 7.949219 4.589844 7.917969 4.59375 C 7.789062 4.933594 7.804688 4.707031 7.601562 4.804688 C 7.566406 4.820312 7.550781 4.910156 7.523438 4.9375 C 7.496094 4.957031 7.445312 4.945312 7.417969 4.960938 L 7.390625 5.015625 C 7.277344 5.089844 7.167969 5.0625 7.050781 5.066406 C 7.035156 5.105469 7.023438 5.179688 6.996094 5.226562 C 6.953125 5.296875 6.859375 5.28125 6.789062 5.328125 C 6.699219 5.386719 6.484375 5.726562 6.421875 5.75 C 6.410156 5.753906 6.308594 5.71875 6.261719 5.722656 C 6.164062 5.730469 6 5.78125 5.921875 5.800781 C 5.921875 5.941406 5.933594 6.035156 5.949219 6.144531 C 5.886719 6.128906 5.957031 6.171875 5.894531 6.167969 L 5.84375 6.117188 C 5.753906 6.09375 5.652344 6.179688 5.632812 6.222656 C 5.589844 6.3125 5.625 6.394531 5.632812 6.484375 C 5.679688 6.484375 5.746094 6.472656 5.789062 6.484375 C 5.765625 6.785156 5.796875 6.789062 5.527344 6.773438 C 5.519531 6.789062 5.460938 6.839844 5.449219 6.851562 C 5.480469 6.957031 5.472656 7.003906 5.5 7.113281 C 5.488281 7.113281 5.386719 7.132812 5.34375 7.140625 C 5.34375 7.140625 5.355469 7.003906 5.082031 7.195312 C 5.121094 7.484375 4.984375 7.582031 5.027344 7.902344 C 4.953125 7.945312 4.863281 8.015625 4.792969 8.058594 C 4.800781 8.105469 4.78125 8.144531 4.792969 8.191406 C 4.804688 8.257812 4.886719 8.34375 4.898438 8.425781 C 4.90625 8.519531 4.898438 8.597656 4.871094 8.664062 C 4.871094 8.664062 4.820312 8.691406 4.820312 8.691406 C 4.789062 8.851562 4.855469 9.046875 4.871094 9.1875 C 4.902344 9.199219 4.9375 9.1875 4.949219 9.214844 C 4.960938 9.242188 4.933594 9.292969 4.949219 9.320312 C 4.929688 9.34375 4.859375 9.371094 4.84375 9.398438 C 4.761719 9.535156 4.839844 9.660156 4.820312 9.820312 C 4.820312 9.820312 4.773438 9.84375 4.765625 9.84375 L 4.765625 9.898438 C 4.757812 9.9375 4.734375 10.027344 4.765625 10.109375 C 4.773438 10.125 4.832031 10.144531 4.84375 10.160156 L 4.84375 10.210938 C 5.117188 10.230469 5.121094 10.234375 5.265625 10.054688 C 5.285156 10.0625 5.339844 10.082031 5.34375 10.082031 C 5.332031 10.117188 5.292969 10.167969 5.292969 10.1875 C 5.285156 10.226562 5.316406 10.34375 5.316406 10.34375 C 5.328125 10.351562 5.390625 10.382812 5.398438 10.398438 C 5.417969 10.457031 5.390625 10.542969 5.398438 10.605469 C 5.15625 10.496094 5 10.519531 5.109375 10.816406 C 5.121094 10.855469 5.105469 10.875 5.132812 10.894531 C 5.179688 10.925781 5.253906 10.894531 5.316406 10.921875 C 5.335938 10.929688 5.378906 11.023438 5.398438 11.027344 C 5.566406 11.058594 5.632812 10.886719 5.683594 10.789062 C 5.714844 10.804688 5.757812 10.839844 5.789062 10.84375 C 5.699219 11.023438 5.734375 11 5.789062 11.15625 C 5.785156 11.160156 5.789062 11.230469 5.789062 11.238281 C 5.777344 11.199219 5.761719 11.304688 5.765625 11.316406 C 5.796875 11.472656 6.011719 11.457031 6.15625 11.445312 C 6.148438 11.460938 6.164062 11.511719 6.15625 11.527344 C 6.128906 11.597656 5.957031 11.671875 5.894531 11.710938 C 5.910156 11.753906 5.878906 11.796875 5.894531 11.839844 C 5.902344 11.867188 6.046875 11.992188 6.078125 12 C 6.1875 12.023438 6.378906 11.957031 6.445312 11.917969 C 6.472656 11.90625 6.515625 11.820312 6.550781 11.8125 C 6.636719 11.800781 6.664062 11.847656 6.734375 11.867188 C 6.734375 11.867188 6.734375 11.941406 6.734375 11.945312 C 6.40625 11.980469 6.320312 12.0625 6.5 12.3125 C 6.640625 12.277344 6.671875 12.296875 6.8125 12.261719 C 6.824219 12.347656 6.847656 12.515625 6.917969 12.550781 C 6.964844 12.570312 7.046875 12.542969 7.101562 12.550781 C 7.382812 12.585938 7.386719 12.707031 7.574219 12.445312 C 7.710938 12.460938 7.792969 12.480469 7.890625 12.445312 L 7.941406 12.390625 C 8.03125 12.378906 8.121094 12.441406 8.179688 12.445312 C 8.253906 12.449219 8.28125 12.417969 8.335938 12.417969 C 8.351562 12.351562 8.367188 12.292969 8.390625 12.207031 C 8.347656 12.175781 8.304688 12.15625 8.257812 12.128906 L 8.257812 12.078125 C 8.34375 12.035156 8.445312 11.972656 8.519531 11.945312 C 8.609375 11.914062 8.75 11.902344 8.835938 11.945312 L 8.886719 12 C 9.023438 12.019531 9.089844 11.933594 9.175781 11.917969 C 9.234375 11.910156 9.332031 11.941406 9.386719 11.917969 C 9.46875 11.882812 9.460938 11.722656 9.519531 11.65625 C 9.578125 11.589844 9.707031 11.554688 9.78125 11.5 C 9.757812 11.433594 9.859375 11.5 9.859375 11.5 C 9.894531 11.738281 9.855469 11.699219 10.097656 11.734375 C 10.136719 11.660156 10.199219 11.5 10.304688 11.5 C 10.351562 11.496094 10.320312 11.535156 10.382812 11.527344 C 10.398438 11.5625 10.371094 11.617188 10.382812 11.65625 C 10.390625 11.671875 10.449219 11.707031 10.464844 11.734375 C 10.492188 11.722656 10.539062 11.742188 10.570312 11.734375 C 10.652344 11.710938 10.695312 11.523438 10.726562 11.445312 C 11.019531 11.433594 10.960938 11.460938 11.066406 11.261719 C 11.183594 11.277344 11.246094 11.269531 11.355469 11.261719 C 11.363281 11.234375 11.40625 11.222656 11.410156 11.210938 C 11.429688 11.152344 11.390625 11.085938 11.410156 11.027344 C 11.425781 10.980469 11.535156 10.9375 11.566406 10.894531 C 11.601562 10.851562 11.605469 10.773438 11.644531 10.738281 C 11.722656 10.667969 11.84375 10.664062 11.882812 10.554688 C 11.902344 10.496094 11.871094 10.429688 11.882812 10.371094 C 11.886719 10.339844 11.957031 10.242188 11.960938 10.210938 C 11.980469 10.011719 11.863281 9.996094 11.75 9.925781 C 11.714844 9.96875 11.679688 10.011719 11.644531 10.054688 C 11.710938 10.066406 11.566406 10.109375 11.566406 10.109375 C 11.589844 9.964844 11.546875 9.96875 11.699219 9.871094 C 11.757812 9.832031 11.796875 9.835938 11.855469 9.792969 C 11.871094 9.777344 11.886719 9.722656 11.90625 9.714844 C 11.996094 9.671875 12.105469 9.710938 12.195312 9.660156 C 12.238281 9.636719 12.214844 9.554688 12.25 9.53125 C 12.207031 9.453125 12.238281 9.441406 12.171875 9.398438 C 12.128906 9.375 12.089844 9.367188 12.039062 9.347656 C 12.066406 9.328125 12.085938 9.253906 12.117188 9.242188 C 12.191406 9.210938 12.269531 9.25 12.328125 9.214844 C 12.378906 9.183594 12.34375 9.132812 12.378906 9.082031 C 12.402344 9.050781 12.492188 9.035156 12.511719 9.003906 C 12.535156 8.96875 12.632812 8.683594 12.617188 8.609375 C 12.605469 8.570312 12.523438 8.535156 12.511719 8.507812 C 12.484375 8.445312 12.503906 8.402344 12.484375 8.324219 C 12.519531 8.320312 12.523438 8.273438 12.539062 8.269531 C 12.59375 8.253906 12.613281 8.316406 12.640625 8.324219 C 12.800781 8.359375 12.835938 8.265625 12.90625 8.21875 C 12.890625 8.105469 12.875 7.964844 12.878906 7.875 C 12.753906 7.8125 12.703125 7.851562 12.695312 7.667969 C 12.6875 7.484375 12.785156 7.496094 12.800781 7.429688 C 12.8125 7.375 12.773438 7.28125 12.773438 7.273438 C 12.753906 7.039062 12.835938 7.015625 12.773438 6.800781 C 12.808594 6.785156 12.867188 6.800781 12.90625 6.800781 C 12.984375 6.632812 12.972656 6.699219 12.929688 6.511719 C 12.894531 6.5 12.847656 6.503906 12.828125 6.484375 C 12.769531 6.429688 12.714844 6.335938 12.667969 6.273438 C 12.78125 6.183594 12.863281 6.09375 12.984375 6.011719 C 12.96875 5.964844 12.996094 5.925781 12.984375 5.882812 C 12.980469 5.867188 12.910156 5.804688 12.90625 5.777344 C 12.878906 5.660156 12.894531 5.589844 12.878906 5.488281 C 12.910156 5.488281 13.023438 5.507812 13.089844 5.511719 C 13.089844 5.511719 13.121094 5.390625 13.113281 5.355469 C 13.113281 5.34375 12.988281 5.019531 12.984375 5.015625 C 12.957031 4.988281 12.878906 4.980469 12.851562 4.960938 C 12.890625 4.839844 12.980469 4.621094 12.828125 4.566406 C 12.78125 4.550781 12.738281 4.582031 12.695312 4.566406 C 12.675781 4.617188 12.664062 4.664062 12.640625 4.699219 C 12.511719 4.929688 12.621094 4.714844 12.511719 4.75 C 12.511719 4.703125 12.523438 4.640625 12.511719 4.59375 C 12.519531 4.589844 12.5625 4.574219 12.5625 4.566406 C 12.574219 4.53125 12.589844 4.535156 12.617188 4.515625 C 12.59375 4.457031 12.570312 4.398438 12.5625 4.359375 C 12.515625 4.378906 12.351562 4.449219 12.300781 4.4375 C 12.296875 4.433594 12.234375 4.363281 12.222656 4.359375 C 12.191406 4.351562 12.144531 4.367188 12.117188 4.359375 C 12.097656 4.378906 12.035156 4.480469 12.011719 4.488281 C 11.984375 4.5 11.933594 4.476562 11.90625 4.488281 C 12 4.488281 11.855469 4.148438 11.855469 4.148438 C 11.988281 4.097656 11.996094 4.082031 12.089844 4.015625 C 12.078125 3.972656 12.089844 3.90625 12.089844 3.859375 C 11.976562 3.835938 11.953125 3.820312 11.800781 3.832031 C 11.769531 3.765625 11.777344 3.773438 11.722656 3.726562 C 11.644531 3.777344 11.632812 3.808594 11.511719 3.859375 C 11.484375 4.125 11.5 4.121094 11.722656 4.121094 C 11.667969 4.230469 11.679688 4.273438 11.644531 4.410156 C 11.578125 4.324219 11.484375 4.226562 11.382812 4.175781 L 11.355469 4.175781 C 11.3125 4.082031 11.34375 3.957031 11.328125 3.859375 C 11.386719 3.847656 11.378906 3.859375 11.410156 3.832031 C 11.445312 3.796875 11.535156 3.769531 11.566406 3.726562 C 11.578125 3.710938 11.585938 3.617188 11.566406 3.648438 C 11.558594 3.644531 11.527344 3.550781 11.511719 3.542969 C 11.390625 3.480469 11.199219 3.570312 11.09375 3.542969 C 11.019531 3.527344 10.980469 3.359375 10.910156 3.335938 L 10.855469 3.335938 C 10.84375 3.359375 10.796875 3.339844 10.777344 3.359375 "/>
<path style=" stroke:none;fill-rule:nonzero;fill:rgb(96.470588%,40.392157%,20%);fill-opacity:1;" d="M 27.054688 3.703125 C 27.027344 3.746094 27.042969 3.773438 27.03125 3.832031 C 26.910156 3.800781 26.859375 3.8125 26.742188 3.78125 C 26.582031 4.125 26.636719 4.027344 26.242188 4.042969 L 26.109375 4.09375 C 26.089844 4.101562 26.0625 4.074219 26.085938 4.070312 C 26.046875 4.054688 25.988281 4.085938 25.953125 4.070312 C 25.917969 4.054688 25.914062 3.886719 25.769531 3.9375 C 25.765625 3.9375 25.707031 4.039062 25.769531 4.015625 C 25.769531 4.015625 25.789062 4.144531 25.796875 4.175781 C 25.675781 4.257812 25.695312 4.230469 25.613281 4.359375 C 25.535156 4.335938 25.507812 4.339844 25.453125 4.304688 C 25.355469 4.238281 25.40625 4.183594 25.429688 4.199219 C 25.4375 4.140625 25.503906 4.144531 25.480469 4.042969 C 25.472656 4.019531 25.390625 3.984375 25.375 3.964844 C 25.355469 3.929688 25.363281 3.902344 25.347656 3.859375 C 25.339844 3.859375 25.257812 3.839844 25.21875 3.832031 C 25.207031 3.964844 25.195312 4.097656 25.21875 4.253906 C 25.15625 4.257812 24.988281 4.25 24.902344 4.28125 C 24.867188 4.289062 24.785156 4.40625 24.746094 4.4375 C 24.710938 4.421875 24.648438 4.4375 24.613281 4.4375 C 24.601562 4.394531 24.597656 4.347656 24.589844 4.28125 C 24.515625 4.261719 24.40625 4.191406 24.273438 4.226562 C 24.257812 4.230469 24.203125 4.300781 24.195312 4.304688 L 24.140625 4.304688 C 23.953125 4.492188 24.246094 4.53125 24.351562 4.59375 C 24.382812 4.613281 24.425781 4.679688 24.457031 4.699219 C 24.414062 4.730469 24.382812 4.746094 24.351562 4.777344 C 24.238281 4.695312 24.109375 4.601562 23.90625 4.671875 C 23.859375 4.6875 23.820312 4.765625 23.773438 4.777344 C 23.722656 4.792969 23.667969 4.769531 23.617188 4.777344 C 23.589844 4.675781 23.53125 4.46875 23.40625 4.464844 C 23.367188 4.460938 23.328125 4.503906 23.277344 4.515625 C 23.269531 4.542969 23.226562 4.558594 23.222656 4.566406 C 23.199219 4.636719 23.203125 4.753906 23.195312 4.804688 C 23.003906 4.855469 22.875 4.910156 22.644531 4.9375 C 22.605469 5.039062 22.582031 5.109375 22.539062 5.199219 L 22.488281 5.199219 L 22.488281 5.144531 C 22.445312 5.019531 22.316406 5.074219 22.226562 5.09375 C 22.191406 5.292969 22.140625 5.335938 22.066406 5.488281 C 21.84375 5.414062 21.894531 5.417969 21.726562 5.488281 C 21.726562 5.535156 21.738281 5.597656 21.726562 5.644531 L 21.804688 5.671875 C 21.804688 5.671875 21.804688 5.746094 21.804688 5.75 C 21.671875 5.730469 21.597656 5.746094 21.488281 5.75 C 21.480469 5.808594 21.417969 5.800781 21.4375 5.90625 C 21.4375 5.914062 21.519531 6.007812 21.515625 6.011719 C 21.441406 6.042969 21.40625 6.222656 21.386719 6.300781 C 21.167969 6.355469 21.066406 6.347656 20.914062 6.457031 C 20.921875 6.519531 20.890625 6.585938 20.914062 6.640625 C 20.929688 6.691406 21.0625 6.730469 21.097656 6.773438 C 21.136719 6.824219 21.144531 6.949219 21.203125 6.984375 C 21.261719 7.019531 21.320312 6.976562 21.359375 6.984375 C 21.363281 6.984375 21.386719 7.03125 21.410156 7.035156 C 21.410156 7.039062 21.363281 7.191406 21.386719 7.195312 C 21.210938 7.175781 21.160156 7.175781 20.992188 7.21875 C 21.003906 7.097656 21.03125 6.917969 20.914062 6.878906 C 20.882812 6.867188 20.835938 6.890625 20.808594 6.878906 C 20.800781 6.90625 20.757812 6.917969 20.753906 6.929688 C 20.714844 7.050781 20.8125 7.101562 20.78125 7.21875 C 20.765625 7.28125 20.40625 7.578125 20.335938 7.667969 C 20.367188 7.695312 20.347656 7.714844 20.359375 7.769531 C 20.425781 7.789062 20.53125 7.835938 20.597656 7.851562 C 20.296875 7.925781 20.148438 8.03125 20.28125 8.324219 C 20.191406 8.386719 19.964844 8.632812 19.992188 8.796875 C 20 8.832031 20.089844 8.875 20.097656 8.898438 C 20.109375 8.929688 20.085938 8.976562 20.097656 9.003906 C 20.042969 9.039062 19.746094 9.257812 19.730469 9.292969 C 19.714844 9.339844 19.742188 9.402344 19.730469 9.453125 C 19.742188 9.453125 19.816406 9.464844 19.835938 9.476562 C 19.855469 9.488281 19.847656 9.546875 19.863281 9.554688 C 19.820312 9.628906 19.699219 9.71875 19.679688 9.792969 C 19.648438 9.902344 19.726562 10.097656 19.625 10.132812 C 19.566406 10.152344 19.703125 10.292969 19.703125 10.292969 L 19.703125 10.316406 C 19.722656 10.328125 19.773438 10.410156 19.785156 10.421875 C 19.8125 10.460938 19.828125 10.472656 19.863281 10.5 C 19.804688 10.582031 19.671875 10.71875 19.730469 10.894531 C 19.738281 10.914062 19.796875 10.945312 19.808594 10.972656 C 19.882812 10.960938 19.941406 10.949219 19.992188 10.949219 L 19.992188 11.210938 C 20 11.152344 19.996094 11.484375 20.019531 11.527344 C 20.035156 11.550781 20.144531 11.554688 20.175781 11.578125 C 20.195312 11.589844 20.207031 11.667969 20.230469 11.683594 C 20.289062 11.71875 20.410156 11.742188 20.464844 11.761719 C 20.464844 11.828125 20.441406 11.960938 20.464844 12.023438 C 20.496094 12.101562 20.621094 12.09375 20.703125 12.128906 C 20.730469 12.089844 20.777344 12.0625 20.808594 12.023438 C 20.832031 11.992188 20.84375 11.949219 20.859375 11.917969 C 20.882812 11.984375 20.9375 12.167969 20.992188 12.207031 C 21.082031 12.28125 21.179688 12.25 21.304688 12.234375 C 21.292969 12.253906 21.3125 12.292969 21.304688 12.3125 C 21.300781 12.339844 21.195312 12.421875 21.175781 12.445312 C 21.199219 12.476562 21.210938 12.542969 21.226562 12.574219 C 21.3125 12.574219 21.386719 12.5625 21.488281 12.574219 C 21.53125 12.578125 21.59375 12.652344 21.699219 12.628906 C 21.722656 12.621094 21.78125 12.53125 21.804688 12.523438 C 21.832031 12.511719 21.882812 12.535156 21.910156 12.523438 C 22.058594 12.734375 21.960938 12.746094 22.277344 12.8125 C 22.367188 12.6875 22.445312 12.417969 22.699219 12.46875 C 22.710938 12.472656 22.773438 12.570312 22.804688 12.574219 C 22.902344 12.597656 22.953125 12.519531 23.066406 12.550781 C 23.089844 12.554688 23.121094 12.640625 23.144531 12.65625 C 23.1875 12.679688 23.230469 12.652344 23.277344 12.679688 C 23.300781 12.695312 23.304688 12.769531 23.328125 12.785156 C 23.375 12.816406 23.699219 12.945312 23.800781 12.917969 C 23.84375 12.902344 23.875 12.800781 23.933594 12.785156 C 24.070312 12.75 24.136719 12.84375 24.273438 12.8125 C 24.367188 12.789062 24.425781 12.605469 24.457031 12.523438 C 24.816406 12.570312 24.695312 12.53125 24.902344 12.390625 C 24.945312 12.363281 24.996094 12.367188 25.035156 12.339844 C 25.058594 12.320312 25.085938 12.242188 25.113281 12.234375 C 25.21875 12.199219 25.34375 12.261719 25.453125 12.234375 C 25.5 12.222656 25.546875 12.152344 25.585938 12.128906 C 25.578125 12.085938 25.558594 12.011719 25.558594 12 C 25.496094 11.96875 25.429688 11.921875 25.375 11.894531 C 25.464844 11.898438 25.585938 11.925781 25.636719 11.917969 C 25.730469 11.90625 25.964844 11.726562 25.980469 11.628906 C 25.992188 11.546875 25.859375 11.441406 25.980469 11.394531 C 26.042969 11.367188 26.144531 11.40625 26.214844 11.394531 C 26.277344 11.382812 26.394531 11.308594 26.453125 11.289062 C 26.441406 11.253906 26.453125 11.195312 26.453125 11.15625 C 26.273438 11.074219 26.238281 11.066406 26.058594 11.183594 L 26.03125 11.238281 C 25.9375 11.253906 25.957031 11.1875 25.902344 11.183594 C 25.90625 11.144531 25.929688 11.0625 25.925781 11.054688 C 26.132812 11.074219 26.234375 11.074219 26.347656 10.949219 C 26.546875 10.726562 26.433594 10.660156 26.191406 10.582031 C 26.203125 10.550781 26.175781 10.53125 26.191406 10.5 C 26.199219 10.472656 26.285156 10.425781 26.292969 10.398438 C 26.304688 10.367188 26.28125 10.320312 26.292969 10.292969 L 26.347656 10.292969 C 26.351562 10.292969 26.347656 10.386719 26.347656 10.398438 C 26.382812 10.414062 26.410156 10.414062 26.425781 10.449219 C 26.566406 10.402344 26.804688 10.308594 26.820312 10.160156 C 26.84375 9.933594 26.570312 9.941406 26.425781 9.949219 C 26.488281 9.800781 26.507812 9.71875 26.476562 9.53125 C 26.539062 9.507812 26.570312 9.519531 26.636719 9.503906 C 26.640625 9.476562 26.683594 9.460938 26.6875 9.453125 C 26.734375 9.3125 26.683594 9.320312 26.765625 9.214844 C 26.800781 9.175781 26.859375 9.144531 26.898438 9.109375 C 26.890625 9.132812 26.847656 9.203125 26.847656 9.214844 C 26.832031 9.300781 26.894531 9.324219 26.871094 9.398438 C 26.863281 9.425781 26.761719 9.484375 26.742188 9.503906 C 26.753906 9.539062 26.742188 9.597656 26.742188 9.636719 C 26.871094 9.660156 26.855469 9.753906 27.003906 9.609375 C 27.050781 9.5625 27.03125 9.523438 27.054688 9.453125 C 27.082031 9.46875 27.132812 9.441406 27.160156 9.453125 C 27.179688 9.460938 27.207031 9.5625 27.214844 9.582031 C 27.316406 9.53125 27.453125 9.519531 27.503906 9.425781 C 27.515625 9.402344 27.582031 9.050781 27.582031 9.03125 C 27.578125 8.988281 27.507812 8.949219 27.527344 8.847656 C 27.527344 8.847656 27.648438 8.640625 27.660156 8.609375 C 27.570312 8.585938 27.546875 8.554688 27.449219 8.53125 C 27.464844 8.523438 27.433594 8.460938 27.449219 8.453125 C 27.488281 8.429688 27.539062 8.4375 27.582031 8.425781 C 27.578125 8.398438 27.5625 8.269531 27.582031 8.21875 C 27.585938 8.195312 27.667969 8.15625 27.6875 8.140625 C 27.625 8.007812 27.609375 7.933594 27.554688 7.796875 C 27.613281 7.769531 27.660156 7.78125 27.710938 7.746094 C 27.734375 7.730469 27.765625 7.648438 27.792969 7.640625 C 27.875 7.605469 27.953125 7.636719 28.027344 7.613281 C 28.074219 7.597656 28.109375 7.535156 28.183594 7.535156 C 28.347656 7.535156 28.378906 7.703125 28.421875 7.824219 C 28.445312 7.808594 28.507812 7.769531 28.527344 7.769531 C 28.515625 7.628906 28.535156 7.574219 28.550781 7.457031 C 28.558594 7.425781 28.527344 7.390625 28.527344 7.402344 L 28.527344 7.324219 C 28.617188 7.253906 28.699219 7.183594 28.789062 7.113281 C 28.777344 7.0625 28.800781 7.007812 28.789062 6.957031 L 28.734375 6.90625 C 28.734375 6.90625 28.710938 6.855469 28.710938 6.851562 C 28.625 6.863281 28.527344 6.902344 28.449219 6.878906 C 28.433594 6.875 28.390625 6.808594 28.367188 6.800781 C 28.429688 6.699219 28.445312 6.664062 28.527344 6.589844 C 28.492188 6.453125 28.398438 6.0625 28.421875 5.933594 C 28.4375 5.832031 28.601562 5.753906 28.632812 5.671875 C 28.707031 5.464844 28.566406 4.988281 28.449219 4.9375 C 28.324219 4.882812 28.175781 4.96875 28.054688 4.910156 C 28.015625 4.890625 28.027344 4.8125 28 4.777344 C 27.945312 4.703125 27.835938 4.726562 27.765625 4.671875 C 27.679688 4.609375 27.589844 4.289062 27.503906 4.253906 C 27.472656 4.242188 27.445312 4.269531 27.421875 4.253906 C 27.375 4.515625 27.386719 4.503906 27.132812 4.566406 C 27.117188 4.535156 27.109375 4.476562 27.082031 4.4375 C 27.0625 4.410156 26.960938 4.386719 26.949219 4.359375 C 26.921875 4.257812 27.007812 4.207031 26.976562 4.09375 C 26.964844 4.054688 26.875 4.015625 26.847656 3.992188 C 26.847656 3.992188 26.871094 3.941406 26.871094 3.9375 C 26.9375 3.941406 27.019531 3.917969 27.082031 3.9375 C 27.132812 3.957031 27.171875 4.078125 27.238281 4.09375 C 27.574219 4.179688 27.503906 3.933594 27.371094 3.832031 C 27.28125 3.765625 27.207031 3.734375 27.109375 3.675781 Z M 27.054688 3.703125 "/>
<path style=" stroke:none;fill-rule:nonzero;fill:rgb(96.470588%,40.392157%,20%);fill-opacity:1;" d="M 17.238281 10.683594 C 17.238281 10.699219 17.238281 11.027344 17.238281 11.027344 C 17.222656 11.046875 17.171875 11.058594 17.160156 11.078125 C 17.148438 11.097656 17.144531 11.199219 17.132812 11.210938 C 17.09375 11.242188 17.066406 11.222656 17 11.238281 C 17.035156 11.253906 16.9375 11.269531 16.921875 11.261719 C 16.910156 11.257812 16.898438 11.21875 16.871094 11.210938 C 16.886719 11.074219 16.921875 10.917969 16.789062 10.871094 C 16.738281 10.847656 16.730469 10.90625 16.660156 10.894531 C 16.636719 10.890625 16.574219 10.820312 16.554688 10.816406 C 16.347656 10.773438 16.257812 10.910156 16.160156 10.972656 C 16.132812 10.957031 16.109375 10.984375 16.082031 10.972656 C 16.042969 10.957031 16.015625 10.859375 15.976562 10.84375 C 15.882812 10.796875 15.652344 10.816406 15.558594 10.871094 C 15.429688 10.9375 15.496094 11.21875 15.425781 11.339844 C 15.414062 11.359375 15.246094 11.496094 15.214844 11.527344 C 15.183594 11.496094 15.085938 11.375 15.058594 11.367188 C 14.785156 11.289062 14.617188 11.757812 14.480469 11.261719 C 14.464844 11.261719 14.378906 11.222656 14.324219 11.238281 L 14.296875 11.289062 C 14.210938 11.34375 14.136719 11.460938 14.269531 11.527344 C 14.292969 11.535156 14.234375 11.554688 14.242188 11.578125 C 14.1875 11.59375 14.117188 11.640625 14.058594 11.628906 C 13.992188 11.617188 14 11.5 13.851562 11.527344 C 13.8125 11.53125 13.628906 11.707031 13.613281 11.710938 C 13.554688 11.722656 13.433594 11.691406 13.351562 11.683594 L 13.324219 11.761719 C 13.117188 11.816406 13.34375 11.65625 13.378906 11.628906 C 13.371094 11.589844 13.351562 11.507812 13.351562 11.5 C 13.246094 11.484375 13.214844 11.488281 13.113281 11.472656 C 13.109375 11.507812 13.082031 11.507812 13.0625 11.527344 C 13.089844 11.632812 13.089844 11.675781 13.113281 11.761719 C 13.046875 11.792969 12.960938 11.777344 12.929688 11.839844 C 12.90625 11.890625 12.910156 12.039062 12.90625 12.078125 C 12.851562 12.058594 12.851562 12.117188 12.800781 12.101562 C 12.765625 12.09375 12.746094 11.988281 12.695312 11.972656 C 12.558594 11.929688 12.433594 11.964844 12.300781 11.945312 C 12.28125 12.210938 12.15625 12.378906 12.039062 12.550781 C 12.027344 12.539062 11.972656 12.550781 11.960938 12.550781 C 11.90625 12.433594 11.914062 12.457031 11.882812 12.285156 C 11.835938 12.273438 11.839844 12.304688 11.828125 12.261719 C 11.800781 12.273438 11.75 12.25 11.722656 12.261719 C 11.710938 12.265625 11.699219 12.304688 11.671875 12.3125 C 11.671875 12.3125 11.671875 12.4375 11.699219 12.390625 C 11.691406 12.417969 11.671875 12.496094 11.671875 12.496094 C 11.609375 12.507812 11.542969 12.476562 11.488281 12.496094 C 11.449219 12.507812 11.417969 12.613281 11.382812 12.628906 C 11.191406 12.710938 11.023438 12.601562 10.882812 12.550781 C 10.828125 12.625 10.789062 12.640625 10.753906 12.757812 C 10.753906 12.738281 10.761719 12.582031 10.753906 12.550781 C 10.746094 12.535156 10.703125 12.53125 10.699219 12.496094 C 10.660156 12.511719 10.605469 12.484375 10.570312 12.496094 C 10.546875 12.503906 10.5 12.554688 10.464844 12.574219 C 10.4375 12.558594 10.410156 12.484375 10.382812 12.46875 C 10.347656 12.449219 10.074219 12.398438 10.015625 12.417969 C 10.011719 12.417969 9.996094 12.464844 9.992188 12.46875 C 9.835938 12.605469 9.917969 12.574219 9.9375 12.734375 L 9.964844 12.839844 C 9.964844 12.835938 10.085938 12.835938 10.042969 12.8125 C 10.074219 12.8125 10.117188 12.8125 10.148438 12.8125 C 10.148438 12.820312 10.144531 12.914062 10.148438 12.917969 C 10.085938 12.90625 10.105469 12.953125 10.042969 12.941406 C 10.023438 12.9375 9.960938 12.84375 9.9375 12.839844 C 9.855469 12.820312 9.574219 12.910156 9.519531 12.941406 C 9.492188 12.957031 9.511719 13.003906 9.492188 13.023438 C 9.460938 13.050781 9.402344 13.046875 9.359375 13.074219 C 9.34375 13.085938 9.324219 13.148438 9.308594 13.152344 C 9.292969 13.160156 9.242188 13.144531 9.230469 13.152344 C 9.210938 13.105469 9.191406 13.152344 9.175781 13.128906 C 9.167969 13.105469 9.175781 13.046875 9.175781 13.023438 C 9.132812 13.011719 9.164062 13.011719 9.152344 12.96875 C 9.105469 12.96875 9.035156 12.984375 8.992188 12.96875 C 8.933594 13.050781 8.871094 13.160156 8.78125 13.207031 C 8.65625 13.269531 8.355469 13.285156 8.285156 13.390625 C 8.257812 13.429688 8.285156 13.457031 8.257812 13.496094 C 8.210938 13.476562 8.238281 13.523438 8.230469 13.546875 C 8.164062 13.527344 8.230469 13.625 8.230469 13.625 C 8.300781 13.644531 8.316406 13.597656 8.390625 13.601562 C 8.390625 13.601562 8.386719 13.675781 8.390625 13.679688 C 8.324219 13.695312 8.332031 13.6875 8.257812 13.703125 C 8.296875 13.730469 8.183594 13.730469 8.179688 13.730469 L 8.152344 13.601562 C 8.136719 13.589844 8.027344 13.613281 8.023438 13.601562 C 8 13.554688 8.023438 13.441406 8.023438 13.390625 C 7.742188 13.328125 7.832031 13.34375 7.707031 13.574219 C 7.703125 13.582031 7.628906 13.648438 7.628906 13.652344 C 7.605469 13.746094 7.667969 13.828125 7.652344 13.886719 C 7.648438 13.917969 7.585938 13.941406 7.574219 13.96875 C 7.542969 13.953125 7.480469 13.96875 7.445312 13.96875 C 7.449219 13.894531 7.457031 13.863281 7.46875 13.785156 C 7.449219 13.765625 7.421875 13.769531 7.417969 13.730469 C 7.367188 13.734375 7.234375 13.757812 7.234375 13.757812 C 7.234375 13.757812 7.160156 13.777344 7.15625 13.785156 C 7.117188 13.820312 7.140625 13.929688 7.101562 13.96875 C 7.050781 14.019531 6.945312 14 6.894531 14.046875 C 6.875 14.0625 6.894531 14.113281 6.867188 14.125 C 6.828125 14.140625 6.773438 14.109375 6.734375 14.125 C 6.761719 14.113281 6.683594 14.070312 6.683594 14.070312 C 6.6875 14.0625 6.734375 13.992188 6.734375 13.992188 C 6.828125 13.964844 6.921875 13.980469 6.972656 13.914062 C 6.976562 13.90625 7.023438 13.835938 7.023438 13.835938 C 7.035156 13.796875 6.996094 13.679688 6.996094 13.679688 C 6.75 13.679688 6.605469 13.707031 6.472656 13.886719 C 6.449219 13.917969 6.449219 13.980469 6.421875 13.992188 C 6.339844 14.027344 6.246094 13.980469 6.183594 14.019531 C 6.152344 14.039062 6.050781 14.351562 6.078125 14.441406 C 6.085938 14.457031 6.144531 14.492188 6.15625 14.519531 C 6.207031 14.519531 6.269531 14.507812 6.316406 14.519531 C 6.3125 14.523438 6.285156 14.570312 6.289062 14.570312 C 6.089844 14.605469 6.082031 14.652344 6 14.808594 C 5.738281 14.808594 5.699219 14.828125 5.632812 15.015625 L 5.632812 15.070312 C 5.578125 15.113281 5.480469 15.082031 5.421875 15.121094 C 5.292969 15.210938 5.398438 15.578125 5.398438 15.804688 C 5.511719 15.835938 5.671875 15.890625 5.710938 15.988281 C 5.722656 16.015625 5.695312 16.042969 5.710938 16.066406 C 5.648438 16.109375 5.304688 16.417969 5.292969 16.460938 C 5.265625 16.546875 5.308594 16.601562 5.316406 16.671875 C 5.351562 16.667969 5.40625 16.710938 5.476562 16.699219 C 5.53125 16.6875 5.542969 16.617188 5.582031 16.59375 C 5.582031 16.59375 5.695312 16.632812 5.660156 16.644531 C 5.675781 16.65625 5.730469 16.679688 5.738281 16.699219 C 5.765625 16.757812 5.742188 16.800781 5.765625 16.882812 C 5.726562 16.886719 5.726562 16.929688 5.710938 16.960938 C 5.683594 16.945312 5.652344 16.886719 5.632812 16.882812 C 5.578125 16.863281 5.507812 16.890625 5.449219 16.882812 C 5.421875 16.964844 5.332031 17.125 5.34375 17.222656 C 5.34375 17.238281 5.417969 17.289062 5.421875 17.300781 C 5.460938 17.390625 5.414062 17.390625 5.421875 17.484375 C 5.390625 17.46875 5.402344 17.527344 5.34375 17.511719 C 5.335938 17.511719 5.3125 17.464844 5.292969 17.457031 C 5.394531 17.417969 5.144531 17.417969 5.210938 17.433594 L 5.1875 17.539062 C 5.292969 17.601562 5.484375 17.648438 5.554688 17.746094 C 5.59375 17.804688 5.582031 17.890625 5.632812 17.929688 C 5.714844 18 5.816406 17.960938 5.84375 18.089844 C 5.871094 18.238281 5.769531 18.28125 5.789062 18.402344 C 5.800781 18.46875 5.921875 18.507812 5.949219 18.5625 C 5.96875 18.601562 5.996094 18.75 6 18.773438 C 6.011719 18.890625 5.96875 19.183594 6.027344 19.324219 L 6.054688 19.324219 C 6.132812 19.363281 6.1875 19.507812 6.261719 19.53125 L 6.316406 19.53125 C 6.328125 19.542969 6.324219 19.601562 6.339844 19.613281 C 6.398438 19.640625 6.464844 19.605469 6.527344 19.636719 C 6.574219 19.664062 6.785156 19.964844 6.683594 20.058594 C 6.8125 20.160156 7.078125 20.226562 7.050781 20.476562 C 7.050781 20.476562 6.980469 20.585938 6.972656 20.609375 C 7.003906 20.59375 6.992188 20.648438 7.050781 20.636719 C 7.078125 20.628906 7.085938 20.558594 7.101562 20.53125 C 7.125 20.53125 7.191406 20.542969 7.207031 20.53125 C 7.261719 20.585938 7.476562 20.742188 7.285156 20.792969 C 7.269531 20.769531 7.234375 20.699219 7.207031 20.6875 C 7.179688 20.675781 7.128906 20.699219 7.101562 20.6875 C 7.089844 20.714844 7.042969 20.75 7.023438 20.765625 C 7.023438 20.765625 7.023438 20.863281 7.050781 20.820312 C 7.070312 20.878906 7.0625 20.863281 7.078125 20.925781 C 7.128906 20.898438 7.101562 21.109375 7.101562 21.109375 C 7.261719 21.054688 7.316406 21.042969 7.496094 21.054688 C 7.5 21.046875 7.519531 21.003906 7.523438 21.003906 C 7.546875 20.996094 7.652344 21.023438 7.628906 21.03125 C 7.667969 21.097656 7.714844 21.152344 7.757812 21.214844 C 7.640625 21.25 7.5 21.253906 7.46875 21.371094 C 7.464844 21.382812 7.476562 21.4375 7.46875 21.449219 C 7.453125 21.476562 7.375 21.496094 7.367188 21.527344 C 7.351562 21.566406 7.378906 21.621094 7.367188 21.660156 C 7.414062 21.636719 7.453125 21.65625 7.496094 21.632812 C 7.546875 21.605469 7.582031 21.511719 7.628906 21.476562 C 7.714844 21.402344 7.804688 21.363281 7.890625 21.292969 C 7.953125 21.378906 8.023438 21.503906 8.101562 21.582031 C 8.132812 21.613281 8.242188 21.644531 8.257812 21.6875 C 8.289062 21.761719 8.226562 21.785156 8.230469 21.84375 L 8.285156 21.921875 C 8.324219 22.113281 8.296875 22.066406 8.363281 22.210938 C 8.390625 22.199219 8.4375 22.21875 8.46875 22.210938 C 8.539062 22.191406 8.621094 22.074219 8.679688 22.027344 C 8.875 22.207031 9.042969 22.351562 9.359375 22.183594 C 9.34375 22.339844 9.328125 22.496094 9.464844 22.550781 C 9.507812 22.570312 9.546875 22.542969 9.570312 22.578125 C 9.589844 22.601562 9.636719 22.785156 9.648438 22.816406 C 9.949219 22.769531 10.027344 22.804688 10.226562 22.917969 C 10.265625 22.894531 10.375 22.777344 10.4375 22.789062 C 10.4375 22.789062 10.417969 22.914062 10.410156 22.945312 C 10.429688 22.957031 10.558594 23.03125 10.570312 23.050781 C 10.589844 23.09375 10.558594 23.164062 10.570312 23.207031 C 10.578125 23.253906 10.695312 23.335938 10.699219 23.367188 C 10.710938 23.425781 10.660156 23.464844 10.648438 23.523438 C 10.71875 23.507812 10.828125 23.457031 10.910156 23.472656 C 10.984375 23.484375 11.039062 23.59375 11.09375 23.628906 C 11.136719 23.65625 11.179688 23.628906 11.226562 23.65625 C 11.296875 23.695312 11.429688 23.972656 11.460938 24.074219 C 11.558594 24.042969 11.742188 23.996094 11.855469 23.996094 C 11.886719 23.996094 11.945312 24.046875 12.011719 24.023438 L 12.011719 23.996094 C 12.054688 23.972656 12.058594 23.914062 12.089844 23.890625 C 12.132812 23.863281 12.171875 23.890625 12.222656 23.863281 C 12.300781 24.125 12.199219 24.03125 12.457031 24.101562 C 12.464844 24.09375 12.5 24.027344 12.511719 24.023438 C 12.539062 24.011719 12.5625 24.039062 12.589844 24.023438 C 12.613281 24.039062 12.644531 24.113281 12.667969 24.128906 C 12.742188 24.167969 12.953125 24.171875 13.035156 24.179688 C 13.046875 24.238281 13.015625 24.308594 13.035156 24.363281 C 13.078125 24.476562 13.5625 24.566406 13.71875 24.601562 C 13.730469 24.644531 13.707031 24.683594 13.71875 24.730469 C 13.71875 24.734375 13.949219 24.964844 13.957031 24.96875 C 14.1875 25.070312 14.191406 24.894531 14.296875 24.863281 C 14.507812 24.796875 14.582031 24.921875 14.664062 24.96875 C 14.707031 24.992188 14.746094 24.972656 14.796875 24.992188 C 14.808594 24.957031 14.839844 24.957031 14.875 24.941406 C 14.855469 24.792969 14.859375 24.714844 14.847656 24.625 C 14.890625 24.636719 14.910156 24.613281 14.953125 24.601562 C 14.976562 24.640625 15.039062 24.792969 15.085938 24.808594 C 15.234375 24.867188 15.429688 24.761719 15.53125 24.757812 C 15.707031 24.75 15.730469 24.816406 15.820312 24.890625 C 16.066406 24.78125 16.085938 24.882812 16.371094 24.835938 C 16.398438 24.832031 16.511719 24.757812 16.527344 24.757812 C 16.621094 24.742188 16.707031 24.792969 16.765625 24.785156 C 16.789062 24.777344 16.839844 24.71875 16.871094 24.707031 C 16.855469 24.660156 16.882812 24.621094 16.871094 24.574219 C 16.867188 24.5625 16.605469 24.191406 16.949219 24.285156 C 16.960938 24.289062 17.007812 24.359375 17.027344 24.363281 C 17.082031 24.375 17.105469 24.332031 17.132812 24.335938 C 17.105469 24.316406 17.152344 24.222656 17.160156 24.207031 C 17.128906 24.191406 17.148438 24.160156 17.132812 24.152344 C 17.085938 24.128906 17.046875 24.136719 17 24.128906 C 17.003906 24.074219 16.972656 24.046875 16.972656 24.023438 C 16.980469 23.929688 17.140625 23.878906 17.183594 23.8125 C 17.21875 23.761719 17.203125 23.683594 17.238281 23.628906 C 17.277344 23.5625 17.585938 23.425781 17.710938 23.445312 C 17.722656 23.445312 17.78125 23.519531 17.789062 23.523438 C 17.816406 23.53125 17.867188 23.507812 17.894531 23.523438 C 17.929688 23.542969 17.960938 23.640625 18 23.65625 C 18.019531 23.664062 18.058594 23.640625 18.078125 23.65625 C 18.101562 23.359375 18.085938 23.425781 18.3125 23.417969 C 18.308594 23.488281 18.328125 23.585938 18.3125 23.65625 C 18.3125 23.65625 18.238281 23.703125 18.234375 23.707031 C 18.28125 23.882812 18.222656 23.832031 18.339844 23.945312 C 18.3125 23.953125 18.296875 23.992188 18.289062 23.996094 C 18.246094 24.007812 18.199219 23.984375 18.15625 23.996094 C 18.199219 24.011719 18.054688 24.023438 18.050781 24.023438 C 18.042969 24.003906 18.039062 23.964844 18.023438 23.945312 C 17.894531 23.75 17.925781 23.761719 17.605469 23.761719 C 17.585938 23.8125 17.585938 23.898438 17.550781 23.945312 C 17.523438 23.980469 17.429688 23.988281 17.394531 24.023438 C 17.355469 24.058594 17.371094 24.046875 17.34375 24.101562 C 17.34375 24.101562 17.34375 24.175781 17.34375 24.179688 C 17.359375 24.179688 17.429688 24.167969 17.445312 24.179688 C 17.445312 24.1875 17.464844 24.269531 17.472656 24.3125 C 17.34375 24.3125 17.484375 24.515625 17.5 24.546875 C 17.414062 24.613281 17.34375 24.683594 17.261719 24.757812 C 17.277344 24.804688 17.296875 24.8125 17.289062 24.863281 C 17.5625 25.023438 17.617188 24.992188 17.761719 24.730469 C 17.78125 24.753906 17.847656 24.757812 17.867188 24.785156 C 17.890625 24.816406 17.871094 24.855469 17.894531 24.890625 C 18 25.058594 18.128906 24.976562 18.261719 24.914062 C 18.238281 24.714844 18.257812 24.679688 18.289062 24.546875 C 18.3125 24.5625 18.363281 24.535156 18.390625 24.546875 C 18.429688 24.5625 18.46875 24.691406 18.523438 24.707031 C 18.722656 24.753906 18.75 24.605469 18.839844 24.546875 C 18.882812 24.515625 18.921875 24.542969 18.96875 24.519531 C 19.015625 24.496094 19.058594 24.421875 19.101562 24.390625 C 19.121094 24.398438 19.15625 24.382812 19.179688 24.390625 C 19.222656 24.398438 19.253906 24.480469 19.285156 24.496094 C 19.375 24.535156 19.421875 24.5 19.519531 24.496094 C 19.523438 24.476562 19.570312 24.421875 19.574219 24.417969 C 19.609375 24.273438 19.492188 24.203125 19.601562 24.128906 C 19.625 24.140625 19.675781 24.117188 19.703125 24.128906 C 19.746094 24.140625 19.753906 24.238281 19.785156 24.257812 C 19.925781 24.359375 20.039062 24.257812 20.152344 24.207031 C 20.148438 24.128906 20.152344 24.046875 20.152344 23.96875 C 20.089844 23.945312 19.933594 23.898438 19.914062 23.839844 C 19.902344 23.808594 19.925781 23.761719 19.914062 23.734375 C 19.984375 23.753906 19.972656 23.691406 20.046875 23.734375 C 20.132812 23.785156 20.082031 23.90625 20.257812 23.890625 C 20.359375 23.882812 20.457031 23.769531 20.492188 23.679688 C 20.492188 23.679688 20.558594 23.644531 20.519531 23.628906 C 20.476562 23.609375 20.425781 23.523438 20.441406 23.445312 C 20.441406 23.433594 20.511719 23.402344 20.519531 23.390625 C 20.582031 23.308594 20.566406 23.246094 20.597656 23.128906 C 20.574219 23.113281 20.550781 23.113281 20.546875 23.078125 C 20.535156 23.078125 20.472656 23.082031 20.464844 23.078125 L 20.464844 23 C 20.824219 23.164062 20.863281 23.019531 21.203125 22.917969 C 21.207031 22.871094 21.203125 22.769531 21.226562 22.710938 C 21.238281 22.679688 21.320312 22.640625 21.332031 22.605469 C 21.347656 22.550781 21.320312 22.5 21.332031 22.445312 C 21.308594 22.429688 21.289062 22.429688 21.28125 22.394531 C 21.246094 22.394531 21.179688 22.40625 21.148438 22.394531 C 21.128906 22.386719 21.105469 22.296875 21.097656 22.289062 C 21.121094 22.289062 21.15625 22.25 21.175781 22.238281 C 21.320312 22.335938 21.261719 22.324219 21.464844 22.316406 C 21.457031 22.253906 21.496094 22.273438 21.488281 22.210938 C 21.488281 22.183594 21.414062 22.117188 21.410156 22.105469 C 21.394531 22.011719 21.453125 21.988281 21.464844 21.949219 C 21.476562 21.898438 21.449219 21.839844 21.464844 21.789062 C 21.480469 21.734375 21.5625 21.683594 21.59375 21.632812 C 21.582031 21.613281 21.597656 21.574219 21.59375 21.554688 C 21.582031 21.496094 21.460938 21.453125 21.410156 21.421875 C 21.476562 21.203125 21.554688 21.132812 21.59375 20.871094 C 21.574219 20.867188 21.527344 20.820312 21.515625 20.820312 C 21.359375 20.785156 21.28125 20.945312 21.203125 21.003906 C 21.1875 21.011719 21.15625 21.066406 21.148438 21.082031 C 21.136719 21.027344 21.121094 20.902344 21.097656 20.820312 C 21.089844 20.796875 21.019531 20.734375 21.015625 20.714844 C 20.992188 20.558594 21.144531 20.539062 21.175781 20.425781 L 21.175781 20.398438 C 21.171875 20.417969 21.140625 20.324219 21.148438 20.292969 C 21.15625 20.25 21.363281 19.890625 21.253906 19.820312 C 21.097656 19.722656 21.003906 19.878906 20.914062 19.902344 C 20.898438 19.902344 20.847656 19.894531 20.832031 19.902344 C 20.828125 19.871094 20.785156 19.859375 20.78125 19.847656 C 20.753906 19.765625 20.78125 19.621094 20.78125 19.53125 C 20.796875 19.582031 20.808594 19.507812 20.808594 19.507812 C 20.71875 19.308594 20.734375 19.359375 20.519531 19.375 C 20.496094 19.464844 20.441406 19.804688 20.359375 19.847656 C 20.296875 19.882812 20.210938 19.847656 20.152344 19.875 C 20.140625 19.878906 20.078125 19.953125 20.074219 19.953125 C 20.015625 19.964844 19.996094 19.921875 19.96875 19.925781 C 19.996094 19.925781 19.941406 19.847656 19.941406 19.847656 C 19.933594 19.753906 20.039062 19.589844 20.046875 19.53125 C 20.058594 19.429688 20.007812 19.339844 19.992188 19.269531 L 20.019531 19.191406 C 20.070312 19.203125 20.128906 19.175781 20.175781 19.191406 C 20.300781 19.234375 20.257812 19.46875 20.464844 19.375 C 20.671875 19.28125 20.550781 19.058594 20.492188 18.929688 C 20.355469 18.941406 20.296875 18.9375 20.175781 18.957031 C 20.230469 18.777344 20.210938 18.796875 20.175781 18.640625 C 20.152344 18.636719 20.089844 18.605469 20.046875 18.585938 C 20.046875 18.585938 19.871094 18.757812 19.914062 18.773438 C 20.027344 18.804688 19.964844 19.105469 19.914062 19.191406 C 19.875 19.253906 19.75 19.292969 19.679688 19.324219 C 19.699219 18.988281 19.667969 19.058594 19.886719 18.851562 C 19.855469 18.753906 19.863281 18.730469 19.835938 18.640625 C 19.847656 18.628906 19.90625 18.601562 19.914062 18.585938 C 19.9375 18.535156 19.894531 18.511719 19.941406 18.484375 C 19.941406 18.484375 19.894531 18.347656 19.886719 18.324219 C 19.914062 18.339844 19.964844 18.335938 19.992188 18.351562 C 20.011719 18.363281 20.03125 18.425781 20.046875 18.429688 C 20.074219 18.4375 20.171875 18.410156 20.152344 18.402344 C 20.15625 18.386719 20.222656 18.367188 20.230469 18.351562 C 20.257812 18.273438 20.203125 18.140625 20.230469 18.0625 C 20.25 18.003906 20.390625 18.027344 20.359375 17.851562 C 20.351562 17.792969 20.242188 17.734375 20.203125 17.695312 C 20.28125 17.523438 20.28125 17.59375 20.230469 17.433594 C 20.191406 17.316406 20.15625 17.1875 20.046875 17.144531 C 19.757812 17.03125 19.722656 17.191406 19.757812 17.433594 C 19.738281 17.445312 19.632812 17.492188 19.625 17.511719 L 19.625 17.5625 L 19.574219 17.5625 C 19.554688 17.492188 19.570312 17.445312 19.519531 17.40625 L 19.496094 17.378906 C 19.507812 17.367188 19.488281 17.320312 19.496094 17.300781 L 19.519531 17.300781 C 19.621094 17.25 19.664062 17.152344 19.730469 17.066406 C 19.472656 17.019531 19.472656 16.902344 19.390625 16.617188 C 19.453125 16.589844 19.585938 16.488281 19.652344 16.488281 C 19.792969 16.480469 19.757812 16.5625 19.808594 16.59375 C 19.859375 16.621094 19.890625 16.585938 19.941406 16.617188 C 19.972656 16.597656 20.007812 16.558594 20.046875 16.539062 C 20.027344 16.464844 20.054688 16.410156 20.019531 16.355469 C 20.015625 16.351562 19.914062 16.304688 19.914062 16.304688 C 19.890625 16.207031 19.988281 16.207031 19.96875 16.09375 C 19.957031 16.035156 19.863281 16.003906 19.835938 15.960938 C 19.8125 15.929688 19.828125 15.890625 19.808594 15.859375 C 19.765625 15.785156 19.648438 15.742188 19.574219 15.699219 C 19.585938 15.648438 19.558594 15.589844 19.574219 15.542969 C 19.582031 15.515625 19.671875 15.449219 19.679688 15.410156 C 19.695312 15.265625 19.539062 15.1875 19.441406 15.148438 C 19.390625 15.128906 19.515625 15.089844 19.546875 15.097656 L 19.601562 15.148438 C 19.832031 15.210938 19.789062 14.984375 19.785156 14.859375 C 19.75 14.855469 19.746094 14.8125 19.730469 14.808594 C 19.601562 14.761719 19.4375 14.910156 19.363281 14.9375 L 19.3125 14.859375 C 19.316406 14.84375 19.382812 14.820312 19.390625 14.808594 C 19.40625 14.761719 19.390625 14.695312 19.390625 14.648438 C 19.429688 14.667969 19.40625 14.605469 19.46875 14.625 C 19.480469 14.625 19.507812 14.691406 19.519531 14.703125 C 19.65625 14.785156 19.710938 14.71875 19.808594 14.648438 C 19.703125 14.382812 19.699219 14.277344 19.390625 14.441406 C 19.394531 14.4375 19.390625 14.367188 19.390625 14.359375 C 19.492188 14.316406 19.546875 14.324219 19.601562 14.230469 C 19.605469 14.21875 19.636719 14.210938 19.652344 14.203125 C 19.640625 14.175781 19.664062 14.128906 19.652344 14.097656 C 19.632812 14.046875 19.535156 13.996094 19.519531 13.941406 C 19.488281 13.789062 19.542969 13.675781 19.519531 13.519531 C 19.546875 13.535156 19.574219 13.476562 19.625 13.519531 C 19.683594 13.566406 19.632812 13.785156 19.625 13.886719 C 19.675781 13.882812 19.722656 13.921875 19.808594 13.886719 C 19.816406 13.882812 19.828125 13.835938 19.835938 13.835938 C 19.835938 13.8125 19.910156 13.769531 19.886719 13.679688 C 19.886719 13.671875 19.832031 13.617188 19.835938 13.601562 C 19.839844 13.5625 19.953125 13.535156 19.941406 13.390625 C 19.933594 13.304688 19.84375 13.328125 19.886719 13.207031 C 19.890625 13.199219 19.957031 13.140625 19.96875 13.128906 C 19.96875 13.128906 19.960938 13.058594 19.941406 13.101562 C 19.925781 13.089844 19.914062 13.003906 19.886719 12.996094 C 19.835938 12.976562 19.734375 12.996094 19.679688 12.996094 L 19.679688 12.941406 L 19.703125 12.941406 C 19.707031 12.925781 19.71875 12.824219 19.730469 12.8125 C 19.84375 12.710938 19.964844 12.824219 20.097656 12.785156 C 20.113281 12.78125 20.152344 12.71875 20.175781 12.707031 C 20.175781 12.683594 20.167969 12.625 20.175781 12.601562 C 20.089844 12.496094 20.015625 12.4375 19.886719 12.367188 C 19.886719 12.332031 19.902344 12.234375 19.886719 12.207031 C 19.859375 12.15625 19.804688 12.191406 19.757812 12.15625 C 19.699219 12.113281 19.671875 11.96875 19.652344 11.894531 C 19.625 11.886719 19.609375 11.84375 19.601562 11.839844 C 19.273438 11.726562 19.394531 12.105469 19.441406 12.234375 C 19.394531 12.25 19.394531 12.234375 19.363281 12.261719 C 19.261719 12.339844 19.273438 12.332031 19.128906 12.285156 C 19.148438 12.253906 19.074219 12.25 19.101562 12.234375 C 19.25 12.144531 19.1875 11.976562 19.179688 11.761719 L 19.257812 11.734375 C 19.390625 11.503906 19.28125 11.515625 19.046875 11.527344 C 19.066406 11.789062 19.105469 11.714844 18.890625 11.761719 C 18.753906 11.5625 18.703125 11.527344 18.445312 11.527344 C 18.433594 11.546875 18.414062 11.625 18.390625 11.65625 C 18.402344 11.671875 18.46875 11.726562 18.472656 11.734375 C 18.457031 11.746094 18.472656 11.847656 18.472656 11.867188 C 18.398438 11.878906 18.367188 11.867188 18.3125 11.894531 C 18.273438 11.746094 18.246094 11.519531 18.183594 11.394531 C 18.257812 11.332031 18.308594 11.292969 18.367188 11.210938 C 18.34375 11.175781 18.347656 11.117188 18.339844 11.078125 C 18.320312 11.074219 18.207031 11.0625 18.234375 11.078125 C 18.15625 11.121094 18.148438 11.085938 18.101562 11.15625 C 18.09375 11.175781 18.050781 11.296875 18.050781 11.316406 C 18.019531 11.308594 17.949219 11.289062 17.945312 11.289062 C 17.929688 11.269531 17.914062 11.222656 17.894531 11.210938 C 17.863281 11.230469 17.851562 11.164062 17.839844 11.15625 C 18.035156 11.046875 18.042969 11.082031 18 10.871094 C 17.964844 10.863281 17.960938 10.820312 17.945312 10.816406 C 17.914062 10.804688 17.824219 10.839844 17.839844 10.84375 L 17.789062 10.84375 C 17.75 10.855469 17.753906 10.957031 17.710938 10.972656 C 17.679688 10.984375 17.628906 10.960938 17.605469 10.972656 C 17.570312 10.851562 17.523438 10.671875 17.421875 10.632812 C 17.390625 10.621094 17.367188 10.648438 17.34375 10.632812 C 17.328125 10.652344 17.261719 10.671875 17.238281 10.683594 "/>
<path style=" stroke:none;fill-rule:nonzero;fill:rgb(96.470588%,40.392157%,20%);fill-opacity:1;" d="M 28.261719 12 C 28.261719 12 28.28125 12.074219 28.289062 12.101562 C 28.261719 12.109375 28.25 12.152344 28.238281 12.15625 C 28.167969 12.179688 28.078125 12.171875 28.027344 12.183594 C 28.007812 12.425781 27.9375 12.539062 27.949219 12.734375 C 27.84375 12.535156 27.769531 12.554688 27.605469 12.679688 C 27.582031 12.648438 27.5625 12.570312 27.527344 12.550781 C 27.445312 12.5 27.070312 12.527344 26.925781 12.496094 C 26.917969 12.523438 26.875 12.539062 26.871094 12.550781 C 26.839844 12.644531 26.871094 12.8125 26.871094 12.917969 C 26.867188 12.917969 26.820312 12.941406 26.820312 12.941406 C 26.800781 12.902344 26.769531 12.890625 26.742188 12.863281 C 26.808594 12.640625 26.75 12.339844 26.476562 12.523438 C 26.445312 12.546875 26.453125 12.628906 26.425781 12.65625 C 26.398438 12.679688 26.324219 12.695312 26.292969 12.707031 C 26.3125 12.78125 26.289062 12.828125 26.320312 12.890625 C 26.371094 12.984375 26.597656 12.96875 26.636719 13.074219 C 26.652344 13.117188 26.621094 13.160156 26.636719 13.207031 C 26.625 13.207031 26.5625 13.199219 26.558594 13.207031 C 26.476562 13.132812 26.445312 13.082031 26.398438 12.96875 C 26.3125 12.957031 26.164062 12.972656 26.058594 12.941406 C 26.050781 12.941406 25.996094 12.867188 25.980469 12.863281 C 25.878906 12.847656 25.847656 12.925781 25.742188 12.890625 C 25.730469 12.886719 25.71875 12.84375 25.691406 12.839844 C 25.828125 12.757812 25.816406 12.773438 25.796875 12.574219 L 25.71875 12.550781 C 25.695312 12.582031 25.65625 12.574219 25.636719 12.601562 C 25.621094 12.625 25.628906 12.71875 25.613281 12.734375 C 25.550781 12.78125 25.457031 12.722656 25.402344 12.8125 C 25.378906 12.847656 25.332031 13.0625 25.324219 13.101562 C 24.816406 12.953125 25.003906 13.335938 24.691406 13.335938 C 24.691406 13.335938 24.628906 13.3125 24.613281 13.3125 L 24.613281 13.257812 C 24.652344 13.246094 24.707031 13.257812 24.746094 13.257812 C 24.734375 13.25 24.769531 13.210938 24.773438 13.207031 C 24.746094 13.183594 24.730469 13.191406 24.71875 13.152344 C 24.613281 13.132812 24.453125 13.085938 24.378906 13.101562 C 24.328125 13.109375 24.261719 13.207031 24.21875 13.230469 C 24.121094 13.289062 24.015625 13.285156 23.90625 13.335938 C 23.886719 13.34375 23.851562 13.410156 23.828125 13.414062 C 23.738281 13.433594 23.714844 13.363281 23.644531 13.390625 C 23.632812 13.390625 23.597656 13.457031 23.589844 13.46875 C 23.496094 13.589844 23.519531 13.644531 23.589844 13.785156 C 23.53125 13.796875 23.472656 13.8125 23.378906 13.835938 C 23.394531 13.808594 23.371094 13.757812 23.378906 13.730469 C 23.382812 13.722656 23.449219 13.683594 23.460938 13.679688 C 23.441406 13.632812 23.476562 13.589844 23.460938 13.546875 C 23.453125 13.53125 23.390625 13.492188 23.378906 13.46875 C 23.328125 13.492188 23.269531 13.484375 23.222656 13.496094 C 23.210938 13.601562 23.183594 13.78125 23.171875 13.886719 C 23.089844 13.886719 23.097656 13.878906 23.011719 13.886719 C 23.027344 13.925781 23 13.980469 23.011719 14.019531 C 23.027344 14.0625 23.15625 14.101562 23.195312 14.125 C 23.195312 14.128906 23.1875 14.273438 23.171875 14.230469 C 23.152344 14.257812 23.179688 14.277344 23.171875 14.308594 C 23.164062 14.324219 23.105469 14.363281 23.089844 14.386719 L 23.039062 14.386719 C 23 14.304688 22.984375 14.242188 22.933594 14.175781 C 22.816406 14.019531 22.835938 14.113281 22.644531 14.046875 C 22.636719 14.042969 22.601562 13.96875 22.59375 13.96875 C 22.546875 13.949219 22.507812 13.984375 22.460938 13.96875 C 22.449219 13.996094 22.386719 14.027344 22.382812 14.046875 C 22.355469 14.121094 22.386719 14.199219 22.355469 14.257812 C 22.304688 14.347656 22.179688 14.3125 22.09375 14.359375 C 21.992188 14.421875 21.9375 14.652344 21.910156 14.78125 C 21.699219 14.683594 21.828125 14.683594 21.621094 14.78125 C 21.628906 14.828125 21.609375 14.839844 21.59375 14.886719 C 21.703125 14.964844 21.707031 14.972656 21.832031 14.992188 C 21.824219 14.996094 21.824219 15.085938 21.804688 15.097656 C 21.773438 15.109375 21.707031 15.097656 21.675781 15.097656 C 21.660156 15.125 21.601562 15.171875 21.59375 15.199219 C 21.570312 15.308594 21.640625 15.414062 21.648438 15.488281 C 21.652344 15.542969 21.617188 15.566406 21.621094 15.59375 L 21.570312 15.59375 C 21.515625 15.574219 21.464844 15.425781 21.410156 15.410156 C 21.328125 15.386719 21.320312 15.441406 21.253906 15.4375 C 21.1875 15.664062 21.167969 15.644531 21.332031 15.777344 C 21.277344 15.828125 21.34375 16.121094 21.359375 16.226562 C 21.320312 16.1875 21.269531 16.160156 21.226562 16.121094 C 21.28125 16.121094 21.085938 16.097656 21.148438 16.121094 C 21.117188 16.144531 21.074219 16.121094 21.042969 16.144531 L 21.042969 16.199219 C 20.960938 16.433594 21.117188 16.464844 21.203125 16.671875 C 21.191406 16.679688 21.207031 16.738281 21.203125 16.75 C 21.1875 16.78125 21.0625 16.820312 21.042969 16.855469 C 21.03125 16.878906 21.046875 16.933594 21.042969 16.960938 C 21.039062 16.984375 20.964844 17.082031 20.964844 17.089844 C 20.953125 17.140625 20.976562 17.199219 20.964844 17.25 C 21.011719 17.289062 21.113281 17.355469 21.148438 17.40625 C 21.175781 17.449219 21.167969 17.503906 21.203125 17.539062 C 21.238281 17.574219 21.300781 17.574219 21.332031 17.617188 C 21.410156 17.722656 21.476562 17.996094 21.515625 18.140625 C 21.554688 18.152344 21.609375 18.144531 21.648438 18.167969 C 21.636719 18.175781 21.628906 18.234375 21.621094 18.246094 C 21.597656 18.28125 21.507812 18.292969 21.488281 18.324219 C 21.441406 18.40625 21.5 18.613281 21.488281 18.746094 C 21.539062 18.765625 21.503906 18.746094 21.515625 18.796875 C 21.621094 18.800781 21.679688 18.816406 21.804688 18.796875 C 21.792969 18.828125 21.8125 18.871094 21.804688 18.902344 C 21.78125 18.984375 21.628906 19.046875 21.726562 19.191406 C 21.742188 19.214844 21.824219 19.21875 21.832031 19.246094 C 21.867188 19.371094 21.742188 19.4375 21.859375 19.507812 C 21.890625 19.523438 22.003906 19.550781 22.042969 19.558594 C 22.03125 19.652344 21.988281 19.777344 22.042969 19.875 C 22.050781 19.890625 22.117188 19.910156 22.121094 19.925781 C 22.136719 19.988281 22.09375 20.078125 22.121094 20.136719 C 22.125 20.152344 22.160156 20.148438 22.171875 20.164062 C 22.242188 20.226562 22.3125 20.214844 22.382812 20.269531 C 22.410156 20.285156 22.390625 20.316406 22.410156 20.347656 C 22.511719 20.511719 22.652344 20.421875 22.777344 20.347656 C 22.761719 20.53125 22.753906 20.597656 22.722656 20.765625 C 22.742188 20.773438 22.882812 20.804688 22.855469 20.792969 C 22.925781 20.746094 23.011719 20.761719 23.039062 20.660156 C 23.046875 20.632812 23.023438 20.582031 23.039062 20.558594 C 23.050781 20.53125 23.132812 20.546875 23.144531 20.53125 C 23.152344 20.550781 23.136719 20.585938 23.144531 20.609375 C 23.148438 20.625 23.21875 20.679688 23.222656 20.6875 C 23.230469 20.730469 23.1875 20.839844 23.195312 20.847656 C 23.179688 20.851562 23.148438 20.890625 23.144531 20.898438 C 23.148438 20.902344 23.144531 20.96875 23.144531 20.976562 C 23.273438 21.035156 23.308594 21.050781 23.511719 21.03125 C 23.511719 21.046875 23.5 21.152344 23.511719 21.160156 C 23.492188 21.191406 23.4375 21.214844 23.40625 21.238281 C 23.414062 21.261719 23.40625 21.316406 23.40625 21.34375 C 23.445312 21.359375 23.441406 21.386719 23.460938 21.421875 C 23.601562 21.394531 23.613281 21.398438 23.695312 21.34375 C 23.71875 21.328125 23.808594 21.289062 23.828125 21.265625 C 23.871094 21.199219 23.835938 21.121094 23.90625 21.082031 C 23.9375 21.0625 24 21.09375 24.035156 21.082031 L 24.089844 21.03125 C 24.226562 20.996094 24.175781 21.039062 24.273438 21.054688 C 24.257812 21.097656 24.273438 21.167969 24.273438 21.214844 C 24.199219 21.238281 24.125 21.265625 24.0625 21.292969 C 24.066406 21.335938 24.089844 21.476562 24.089844 21.476562 C 24.128906 21.480469 24.171875 21.515625 24.246094 21.503906 C 24.28125 21.496094 24.34375 21.417969 24.378906 21.398438 C 24.542969 21.292969 24.636719 21.355469 24.824219 21.292969 C 24.835938 21.289062 24.847656 21.246094 24.875 21.238281 C 24.867188 21.179688 24.902344 21.109375 24.875 21.054688 L 24.851562 21.054688 C 24.804688 21.054688 24.753906 20.996094 24.71875 20.976562 C 24.71875 20.929688 24.730469 20.867188 24.71875 20.820312 C 24.742188 20.800781 24.757812 20.742188 24.796875 20.742188 L 24.824219 20.742188 C 24.875 20.789062 24.9375 20.90625 25.007812 20.925781 C 25.039062 20.933594 25.082031 20.914062 25.113281 20.925781 C 25.082031 21.019531 25.09375 21.058594 25.0625 21.160156 C 25.15625 21.203125 25.3125 21.289062 25.453125 21.214844 C 25.582031 21.144531 25.492188 21.042969 25.480469 20.976562 C 25.46875 20.910156 25.511719 20.878906 25.507812 20.847656 C 25.683594 20.835938 25.832031 20.808594 26.003906 20.742188 C 26.015625 20.738281 26.023438 20.691406 26.03125 20.6875 L 26.085938 20.6875 C 26.125 20.625 26.082031 20.539062 26.109375 20.453125 C 26.128906 20.394531 26.21875 20.367188 26.242188 20.320312 C 26.269531 20.265625 26.246094 20.242188 26.269531 20.1875 C 26.382812 20.195312 26.621094 20.203125 26.742188 20.136719 C 26.792969 20.105469 26.820312 20.015625 26.871094 19.980469 C 26.894531 19.960938 26.921875 19.988281 26.949219 19.980469 C 27.121094 19.914062 27.007812 19.742188 26.949219 19.664062 C 27.042969 19.640625 27.210938 19.613281 27.238281 19.53125 C 27.253906 19.492188 27.21875 19.414062 27.238281 19.375 L 27.265625 19.375 C 27.371094 19.320312 27.445312 19.21875 27.527344 19.140625 C 27.554688 19.152344 27.605469 19.128906 27.632812 19.140625 C 27.699219 19.160156 27.710938 19.296875 27.871094 19.246094 C 27.890625 19.238281 27.917969 19.179688 27.949219 19.164062 C 27.925781 19.125 27.945312 19.070312 27.921875 19.035156 C 27.910156 19.019531 27.777344 18.960938 27.765625 18.929688 C 27.753906 18.902344 27.78125 18.875 27.765625 18.851562 C 28.011719 18.785156 28.058594 18.796875 28.027344 18.507812 C 28.117188 18.453125 28.203125 18.4375 28.289062 18.378906 C 28.316406 18.359375 28.3125 18.320312 28.34375 18.300781 C 28.324219 18.175781 28.292969 18.011719 28.394531 17.957031 C 28.585938 17.855469 28.648438 18.019531 28.734375 18.035156 C 28.847656 18.058594 28.859375 17.996094 28.921875 17.984375 C 28.914062 17.921875 28.953125 17.941406 28.945312 17.878906 C 28.945312 17.855469 28.886719 17.796875 28.894531 17.746094 C 28.894531 17.734375 28.96875 17.675781 28.972656 17.667969 C 28.984375 17.636719 28.957031 17.617188 28.972656 17.589844 C 28.929688 17.570312 28.859375 17.535156 28.816406 17.511719 C 28.890625 17.347656 28.882812 17.289062 28.816406 17.117188 C 28.898438 17.164062 28.984375 17.210938 29.078125 17.25 C 29.070312 17.25 29.210938 17.25 29.234375 17.25 C 29.253906 17.203125 29.335938 16.957031 29.367188 16.933594 C 29.433594 16.886719 29.53125 16.925781 29.601562 16.882812 C 29.660156 16.847656 29.625 16.734375 29.601562 16.75 C 29.613281 16.707031 29.589844 16.660156 29.601562 16.617188 C 29.605469 16.605469 29.648438 16.59375 29.65625 16.566406 C 29.863281 16.582031 29.894531 16.566406 30.023438 16.515625 C 30.042969 16.324219 30.042969 16.246094 29.917969 16.144531 C 29.90625 16.136719 29.84375 16.109375 29.839844 16.09375 C 29.820312 16.035156 29.847656 15.96875 29.839844 15.910156 C 29.878906 15.898438 29.882812 15.929688 29.890625 15.882812 C 29.933594 15.902344 29.976562 15.863281 30.023438 15.882812 C 30.054688 15.898438 30.042969 15.996094 30.074219 16.015625 C 30.230469 16.121094 30.425781 16.046875 30.46875 15.910156 C 30.5 15.808594 30.453125 15.8125 30.441406 15.726562 L 30.390625 15.726562 L 30.417969 15.515625 C 30.324219 15.523438 30.308594 15.519531 30.257812 15.515625 C 30.242188 15.472656 30.273438 15.429688 30.257812 15.386719 C 30.253906 15.367188 30.191406 15.347656 30.179688 15.332031 C 30.152344 15.289062 30.175781 15.25 30.152344 15.199219 C 30.183594 15.183594 30.203125 15.128906 30.234375 15.121094 C 30.25 15.117188 30.292969 15.132812 30.3125 15.121094 C 30.359375 15.085938 30.386719 14.957031 30.441406 14.9375 C 30.5 14.917969 30.613281 14.941406 30.679688 14.9375 C 30.71875 14.796875 30.769531 14.683594 30.808594 14.570312 C 30.789062 14.558594 30.78125 14.480469 30.757812 14.464844 C 30.707031 14.4375 30.640625 14.4375 30.601562 14.414062 C 30.445312 14.316406 30.773438 14.238281 30.835938 14.175781 C 30.859375 14.152344 30.835938 14.097656 30.863281 14.070312 C 30.835938 14.066406 30.507812 14 30.496094 13.992188 C 30.480469 13.984375 30.40625 13.789062 30.390625 13.757812 C 30.519531 13.714844 30.539062 13.6875 30.625 13.625 C 30.589844 13.589844 30.589844 13.527344 30.546875 13.496094 C 30.511719 13.464844 30.488281 13.480469 30.441406 13.46875 C 30.445312 13.464844 30.421875 13.371094 30.417969 13.335938 C 30.5 13.296875 30.558594 13.269531 30.625 13.230469 C 30.613281 13.195312 30.640625 13.136719 30.625 13.101562 C 30.621094 13.082031 30.558594 13.0625 30.546875 13.046875 C 30.511719 12.992188 30.492188 12.890625 30.46875 12.839844 C 30.453125 12.882812 30.441406 12.757812 30.441406 12.757812 C 30.554688 12.695312 30.472656 12.539062 30.335938 12.550781 L 30.285156 12.601562 C 30.234375 12.625 30.199219 12.636719 30.152344 12.65625 C 30.152344 12.660156 30.152344 12.824219 30.152344 12.8125 C 30.167969 12.84375 30.21875 12.867188 30.234375 12.890625 C 30.257812 12.945312 30.242188 13 30.257812 13.046875 C 30.199219 12.996094 30.15625 12.96875 30.101562 12.917969 C 30.054688 12.933594 30.015625 12.902344 29.96875 12.917969 C 29.9375 12.925781 29.898438 13.035156 29.863281 13.046875 C 29.820312 13.0625 29.777344 13.03125 29.734375 13.046875 C 29.730469 13.042969 29.707031 12.996094 29.707031 12.996094 C 29.695312 13.035156 29.679688 12.894531 29.679688 12.890625 C 29.6875 12.886719 29.757812 12.84375 29.761719 12.839844 C 29.777344 12.773438 29.726562 12.738281 29.734375 12.707031 L 29.679688 12.707031 C 29.644531 12.71875 29.613281 12.839844 29.578125 12.863281 C 29.558594 12.875 29.515625 12.859375 29.496094 12.863281 C 29.480469 12.867188 29.410156 12.9375 29.394531 12.941406 C 29.234375 12.992188 29.089844 12.996094 28.894531 12.996094 C 28.847656 13.09375 28.851562 13.089844 28.816406 13.230469 C 28.8125 13.230469 28.734375 13.230469 28.734375 13.230469 C 28.730469 13.167969 28.710938 13.042969 28.710938 12.941406 C 28.769531 12.921875 28.792969 12.929688 28.867188 12.917969 C 28.859375 12.800781 28.859375 12.65625 28.816406 12.523438 C 28.9375 12.546875 28.953125 12.5625 29.078125 12.523438 L 29.105469 12.46875 C 29.148438 12.453125 29.238281 12.46875 29.289062 12.46875 C 29.28125 12.445312 29.324219 12.417969 29.3125 12.367188 C 29.292969 12.253906 29.140625 12.15625 29.078125 12.078125 C 29.050781 12.117188 29.078125 12.140625 29.050781 12.183594 C 29.03125 12.210938 29 12.1875 28.972656 12.207031 C 28.941406 12.230469 28.917969 12.308594 28.894531 12.339844 C 28.890625 12.332031 28.824219 12.320312 28.816406 12.3125 C 28.792969 12.289062 28.796875 12.242188 28.789062 12.207031 C 28.761719 12.203125 28.746094 12.160156 28.734375 12.15625 C 28.636719 12.121094 28.585938 12.191406 28.527344 12.207031 L 28.5 12.183594 C 28.507812 12.023438 28.492188 12.003906 28.472656 11.894531 C 28.453125 11.894531 28.386719 11.902344 28.367188 11.894531 C 28.347656 11.925781 28.277344 11.953125 28.261719 12 "/>
<path style=" stroke:none;fill-rule:nonzero;fill:rgb(96.470588%,40.392157%,20%);fill-opacity:1;" d="M 19.757812 15.359375 C 19.800781 15.453125 19.800781 15.605469 19.992188 15.542969 C 20.011719 15.535156 20.042969 15.476562 20.074219 15.464844 C 20.074219 15.425781 20.058594 15.367188 20.074219 15.332031 C 20.046875 15.3125 19.984375 15.234375 19.96875 15.226562 C 19.9375 15.214844 19.914062 15.242188 19.886719 15.226562 C 19.851562 15.269531 19.792969 15.3125 19.757812 15.359375 "/>
<path style=" stroke:none;fill-rule:nonzero;fill:rgb(96.470588%,40.392157%,20%);fill-opacity:1;" d="M 20.335938 17.539062 C 20.34375 17.550781 20.335938 17.601562 20.335938 17.617188 C 20.363281 17.628906 20.414062 17.691406 20.441406 17.695312 C 20.71875 17.757812 20.605469 17.492188 20.570312 17.40625 C 20.546875 17.40625 20.484375 17.417969 20.464844 17.40625 C 20.433594 17.449219 20.367188 17.496094 20.335938 17.539062 "/>
<path style=" stroke:none;fill-rule:nonzero;fill:rgb(96.470588%,40.392157%,20%);fill-opacity:1;" d="M 20.074219 19.585938 C 20.082031 19.628906 20.074219 19.695312 20.074219 19.742188 C 20.332031 19.808594 20.238281 19.875 20.308594 19.613281 C 20.285156 19.59375 20.265625 19.59375 20.257812 19.558594 C 20.210938 19.546875 20.1875 19.554688 20.152344 19.53125 C 20.144531 19.546875 20.089844 19.574219 20.074219 19.585938 "/>
<path style=" stroke:none;fill-rule:nonzero;fill:rgb(96.470588%,40.392157%,20%);fill-opacity:1;" d="M 6.550781 20.503906 C 6.589844 20.515625 6.695312 20.652344 6.550781 20.609375 C 6.515625 20.597656 6.480469 20.484375 6.550781 20.503906 "/>
<path style=" stroke:none;fill-rule:nonzero;fill:rgb(96.470588%,40.392157%,20%);fill-opacity:1;" d="M 6.789062 20.503906 C 6.792969 20.519531 6.863281 20.542969 6.867188 20.558594 C 6.878906 20.605469 6.867188 20.621094 6.839844 20.636719 C 6.839844 20.636719 6.882812 20.761719 6.894531 20.792969 C 6.855469 20.765625 6.835938 20.78125 6.789062 20.765625 C 6.78125 20.734375 6.738281 20.707031 6.734375 20.6875 C 6.722656 20.613281 6.78125 20.550781 6.789062 20.503906 "/>
<path style=" stroke:none;fill-rule:nonzero;fill:rgb(96.470588%,40.392157%,20%);fill-opacity:1;" d="M 21.398438 23.960938 L 21.5 23.960938 C 21.605469 23.960938 21.640625 23.929688 21.640625 23.871094 C 21.640625 23.816406 21.613281 23.785156 21.515625 23.785156 L 21.398438 23.785156 Z M 21.398438 24.277344 L 21.3125 24.277344 L 21.3125 23.714844 L 21.527344 23.714844 C 21.660156 23.714844 21.726562 23.765625 21.726562 23.875 C 21.726562 23.976562 21.664062 24.019531 21.578125 24.03125 L 21.738281 24.277344 L 21.644531 24.277344 L 21.496094 24.03125 L 21.398438 24.03125 Z M 21.503906 23.585938 C 21.277344 23.585938 21.101562 23.761719 21.101562 23.992188 C 21.101562 24.230469 21.277344 24.402344 21.503906 24.402344 C 21.726562 24.402344 21.898438 24.230469 21.898438 23.992188 C 21.898438 23.761719 21.726562 23.585938 21.503906 23.585938 M 21.503906 23.507812 C 21.769531 23.507812 21.996094 23.714844 21.996094 23.992188 C 21.996094 24.277344 21.769531 24.480469 21.503906 24.480469 C 21.234375 24.480469 21.007812 24.277344 21.007812 23.992188 C 21.007812 23.714844 21.234375 23.507812 21.503906 23.507812 "/>
</g>
</svg>
