<?xml version="1.0" encoding="UTF-8"?>
<svg xmlns="http://www.w3.org/2000/svg" xmlns:xlink="http://www.w3.org/1999/xlink" width="35pt" height="25pt" viewBox="0 0 35 25" version="1.1">
<g id="surface1">
<path style=" stroke:none;fill-rule:evenodd;fill:rgb(0%,0%,61.176471%);fill-opacity:1;" d="M 19.167969 0 L 22.738281 5.800781 L 22.738281 19.199219 L 19.167969 25 L 26.988281 25 C 29.964844 25 32.359375 22.730469 32.359375 19.765625 L 32.359375 5.351562 C 32.359375 2.386719 29.964844 0 27 0 Z M 19.167969 0 "/>
<path style=" stroke:none;fill-rule:evenodd;fill:rgb(0%,0%,61.176471%);fill-opacity:1;" d="M 2.75 25 L 6.328125 19.199219 L 6.328125 5.800781 L 2.75 0.0078125 L 18.347656 0.0078125 L 14.769531 5.800781 L 14.769531 19.199219 L 18.347656 25 Z M 2.75 25 "/>
<path style=" stroke:none;fill-rule:evenodd;fill:rgb(100%,100%,100%);fill-opacity:1;" d="M 15.75 4.195312 C 15.75 4.195312 16.980469 1.839844 18.40625 1.894531 L 18.050781 4.492188 L 18.347656 4.550781 C 18.347656 4.550781 18.703125 3.136719 18.636719 2.953125 C 18.636719 2.953125 19.761719 3.484375 19.464844 5.082031 C 19.464844 5.082031 21.304688 5.910156 22.128906 8.921875 L 22.746094 9.691406 L 22.660156 10.355469 C 22.660156 10.355469 23.304688 10.933594 23.429688 11.230469 C 23.429688 11.230469 25.046875 13.855469 25.140625 15.183594 C 25.140625 15.183594 25.429688 15.425781 23.132812 15.359375 C 23.132812 15.359375 23.074219 16.484375 22.359375 16.484375 C 22.359375 16.484375 23.246094 17.195312 22.476562 18.023438 C 22.476562 18.023438 23.304688 18.195312 23.84375 19.207031 C 23.84375 19.207031 24.960938 21.257812 25.316406 22.035156 C 25.316406 22.035156 26.257812 23.988281 24.726562 23.277344 L 22.71875 22.09375 C 22.71875 22.09375 23.132812 24 22.128906 23.652344 C 22.128906 23.652344 20.226562 23.074219 17.636719 21.566406 C 17.636719 21.566406 14.738281 20.507812 13.382812 21.152344 C 13.382812 21.152344 11.613281 21.566406 9.304688 23.21875 C 9.304688 23.21875 8.660156 21.09375 10.074219 19.265625 C 10.074219 19.265625 10.667969 19.207031 10.128906 18.554688 C 10.128906 18.554688 9.898438 17.898438 10.488281 17.78125 C 10.488281 17.78125 11.015625 17.3125 10.542969 16.839844 C 10.542969 16.839844 10.1875 16.070312 10.667969 15.300781 C 10.667969 15.300781 10.957031 15.183594 10.601562 14.597656 C 10.601562 14.597656 8.570312 12.171875 9.050781 9.335938 C 9.054688 9.335938 9.410156 3.003906 15.75 4.195312 Z M 15.75 4.195312 "/>
<path style=" stroke:none;fill-rule:evenodd;fill:rgb(0%,0%,61.176471%);fill-opacity:1;" d="M 16.394531 5.964844 C 16.394531 5.964844 16.75 2.664062 18.109375 2.183594 C 18.109375 2.183594 17.464844 3.722656 17.75 4.492188 C 17.75 4.492188 17.875 5.378906 18.578125 4.667969 C 18.578125 4.667969 18.878906 4.195312 18.878906 3.609375 C 18.878906 3.609375 19.292969 4.3125 19.234375 5.265625 C 19.234375 5.265625 20.832031 6.148438 21.535156 8.449219 C 21.535156 8.449219 22.128906 9.632812 22.304688 9.804688 L 22.128906 10.34375 L 23.074219 11.289062 L 24.601562 14.597656 C 24.601562 14.597656 24.84375 15.011719 24.371094 15.070312 L 22.773438 15.011719 C 22.773438 15.011719 23.074219 16.011719 22.0625 16.011719 L 21.890625 16.253906 C 21.890625 16.253906 22.71875 17.253906 22.304688 17.371094 C 22.304688 17.371094 22.1875 17.667969 21.832031 17.726562 C 21.832031 17.726562 23.488281 19.023438 23.601562 19.621094 L 24.957031 22.160156 C 24.957031 22.160156 25.554688 23.277344 24.3125 22.507812 C 24.3125 22.507812 20.832031 20.738281 20.117188 20.621094 C 20.117188 20.621094 18.933594 20.207031 19.878906 20.851562 L 22.304688 21.921875 C 22.304688 21.921875 22.773438 23.75 21.648438 22.980469 C 21.648438 22.980469 17.394531 20.851562 15.980469 20.738281 C 15.980469 20.738281 13.910156 19.792969 9.839844 22.277344 C 9.839844 22.277344 9.300781 20.4375 11.199219 18.964844 C 11.199219 18.964844 10.253906 17.496094 11.671875 18.082031 C 11.671875 18.082031 11.785156 19.082031 13.554688 19.265625 C 13.554688 19.265625 11.199219 17.425781 11.015625 16.726562 C 11.015625 16.726562 10.726562 14.65625 12.082031 15.839844 L 14.09375 17.253906 C 14.09375 17.253906 14.324219 17.253906 13.796875 16.726562 C 13.796875 16.726562 12.027344 15.597656 11.488281 14.769531 C 11.488281 14.769531 8.542969 12.527344 9.714844 8.449219 C 9.714844 8.449219 10.015625 4.3125 14.738281 4.4375 C 14.738281 4.4375 16.164062 4.492188 15.335938 5.265625 C 15.335938 5.265625 14.980469 6.089844 15.75 6.324219 C 15.75 6.320312 16.28125 6.621094 16.394531 5.964844 Z M 16.394531 5.964844 "/>
<path style=" stroke:none;fill-rule:evenodd;fill:rgb(100%,100%,100%);fill-opacity:1;" d="M 18.878906 7.976562 C 18.878906 7.976562 17.878906 7.976562 18.761719 8.449219 L 19.464844 9.277344 C 19.464844 9.277344 18.9375 9.574219 18.992188 9.875 C 18.992188 9.875 19.347656 9.875 19.761719 9.691406 C 19.761719 9.691406 20.292969 10.277344 20.175781 10.632812 C 20.175781 10.632812 20.003906 11.34375 20.832031 10.875 C 20.832031 10.875 22.128906 8.691406 18.878906 7.976562 Z M 18.878906 7.976562 "/>
<path style=" stroke:none;fill-rule:evenodd;fill:rgb(100%,100%,100%);fill-opacity:1;" d="M 14.507812 10.046875 C 14.507812 10.046875 15.039062 11.703125 14.855469 9.804688 C 14.855469 9.804688 13.96875 8.390625 13.625 8.277344 C 13.625 8.277344 12.554688 7.332031 12.796875 6.4375 C 12.796875 6.4375 11.84375 6.679688 11.726562 9.460938 C 11.726562 9.460938 11.726562 11.933594 12.730469 13.644531 C 12.730469 13.644531 13.625 15.359375 15.039062 16.011719 C 15.039062 16.011719 15.566406 14.597656 15.097656 13.355469 C 15.097656 13.355469 15.039062 15.242188 14.796875 15.359375 C 14.796875 15.359375 10.902344 12.941406 12.613281 7.390625 C 12.613281 7.390625 12.96875 8.332031 13.554688 8.691406 C 13.554688 8.691406 14.382812 9.515625 14.507812 10.046875 Z M 14.507812 10.046875 "/>
<path style=" stroke:none;fill-rule:evenodd;fill:rgb(100%,100%,100%);fill-opacity:1;" d="M 13.210938 9.101562 C 13.210938 9.101562 12.257812 7.738281 12.910156 9.277344 L 13.96875 11.34375 C 13.96875 11.34375 13.683594 12.414062 14.09375 12.703125 C 14.09375 12.703125 14.507812 13.53125 14.507812 12.472656 C 14.507812 12.472656 13.855469 12.058594 14.441406 11.402344 Z M 13.210938 9.101562 "/>
<path style=" stroke:none;fill-rule:evenodd;fill:rgb(100%,100%,100%);fill-opacity:1;" d="M 21.429688 19.6875 C 21.429688 19.6875 23.417969 20.488281 21.707031 18.890625 C 21.707031 18.890625 21.660156 18.8125 21.746094 18.878906 C 22.332031 19.351562 23.632812 20.074219 22.1875 18.609375 C 21.804688 18.226562 21.128906 17.917969 20.925781 17.734375 C 20.820312 17.640625 20.859375 17.292969 21.121094 17.3125 C 21.121094 17.3125 22.417969 17.667969 21.773438 16.839844 C 21.773438 16.839844 20.707031 16.070312 19.109375 15.714844 C 19.109375 15.714844 18.761719 15.773438 18.878906 16.425781 C 18.878906 16.425781 18.820312 17.136719 18.578125 16.070312 C 18.578125 16.070312 18.050781 13.828125 19.464844 13.886719 C 19.464844 13.886719 20.761719 14 21.589844 13.414062 C 21.589844 13.414062 23.015625 12.527344 22.0625 13.414062 C 22.0625 13.414062 20.945312 14.472656 22.128906 13.945312 C 22.128906 13.945312 23.488281 13.886719 23.488281 14.65625 L 23.957031 14.714844 C 23.957031 14.714844 24.316406 14.714844 24.015625 14.242188 L 22.601562 11.460938 C 22.601562 11.460938 21.949219 10.691406 21.648438 10.933594 C 21.648438 10.933594 21.417969 11.171875 21.890625 11.644531 L 21.246094 11.519531 C 21.246094 11.519531 19.234375 13.175781 17.339844 11.585938 C 17.339844 11.585938 16.394531 10.757812 16.808594 12.171875 C 16.808594 12.171875 17.394531 12.886719 16.636719 13.769531 C 16.636719 13.769531 14.738281 16.367188 16.867188 18.910156 C 16.867188 18.910156 20.214844 20.527344 21.949219 20.976562 C 22.476562 21.113281 23.273438 21.007812 21.265625 20.292969 C 21.890625 20.351562 22.1875 20.167969 21.429688 19.6875 Z M 21.429688 19.6875 "/>
<path style=" stroke:none;fill-rule:evenodd;fill:rgb(0%,0%,61.176471%);fill-opacity:1;" d="M 18.109375 16.011719 C 18.109375 16.011719 17.933594 14.414062 18.109375 14.183594 C 18.109375 14.183594 18.222656 13.230469 17.519531 13.886719 C 17.519531 13.886719 17.339844 15.597656 18.109375 16.011719 Z M 18.109375 16.011719 "/>
<path style=" stroke:none;fill-rule:evenodd;fill:rgb(100%,100%,100%);fill-opacity:1;" d="M 20.417969 14.539062 C 20.417969 14.539062 22.246094 15.070312 22.246094 15.425781 L 22.359375 14.714844 C 22.359375 14.714844 23.902344 14.414062 22.1875 14.355469 L 21.332031 14.472656 C 21.332031 14.472656 21.714844 14 20.945312 14.242188 Z M 20.417969 14.539062 "/>
<path style=" stroke:none;fill-rule:evenodd;fill:rgb(100%,100%,100%);fill-opacity:1;" d="M 19.761719 14.714844 C 19.761719 14.714844 18.761719 14.597656 19.347656 15.359375 L 21.476562 16.253906 L 21.890625 15.484375 Z M 19.761719 14.714844 "/>
<path style=" stroke:none;fill-rule:evenodd;fill:rgb(100%,100%,100%);fill-opacity:1;" d="M 19.636719 7.273438 C 19.242188 6.996094 18.609375 6.5625 18.03125 6.5625 C 17.40625 6.5625 17.117188 7.246094 17.164062 7.851562 C 17.375 7.574219 17.914062 7.167969 18.097656 7.101562 C 18.289062 7.054688 19.195312 7.179688 19.636719 7.273438 Z M 19.636719 7.273438 "/>
<path style=" stroke:none;fill-rule:evenodd;fill:rgb(0%,0%,61.176471%);fill-opacity:1;" d="M 31.8125 24.152344 C 31.859375 24.164062 31.886719 24.171875 31.90625 24.183594 C 31.925781 24.203125 31.945312 24.230469 31.945312 24.257812 C 31.945312 24.296875 31.9375 24.328125 31.90625 24.335938 C 31.886719 24.355469 31.859375 24.355469 31.8125 24.363281 L 31.8125 24.460938 L 31.925781 24.703125 L 32.0625 24.703125 L 31.917969 24.421875 C 31.964844 24.414062 32.003906 24.394531 32.023438 24.363281 C 32.050781 24.335938 32.0625 24.296875 32.0625 24.25 C 32.0625 24.191406 32.042969 24.152344 32.003906 24.125 C 31.957031 24.09375 31.898438 24.085938 31.8125 24.078125 Z M 31.8125 24.953125 L 31.8125 24.875 C 31.867188 24.875 31.917969 24.855469 31.972656 24.835938 C 32.03125 24.816406 32.082031 24.777344 32.128906 24.738281 C 32.167969 24.691406 32.207031 24.644531 32.222656 24.585938 C 32.253906 24.527344 32.261719 24.472656 32.261719 24.402344 C 32.261719 24.335938 32.253906 24.277344 32.234375 24.222656 C 32.207031 24.164062 32.175781 24.105469 32.128906 24.066406 C 32.082031 24.019531 32.03125 23.988281 31.972656 23.960938 C 31.925781 23.941406 31.867188 23.933594 31.8125 23.921875 L 31.8125 23.855469 C 31.867188 23.855469 31.917969 23.863281 31.964844 23.882812 C 32.023438 23.902344 32.082031 23.933594 32.128906 23.96875 C 32.195312 24.019531 32.242188 24.085938 32.28125 24.164062 C 32.320312 24.238281 32.339844 24.316406 32.339844 24.402344 C 32.339844 24.480469 32.320312 24.546875 32.292969 24.617188 C 32.273438 24.683594 32.234375 24.742188 32.175781 24.789062 C 32.128906 24.835938 32.0625 24.875 31.992188 24.902344 C 31.9375 24.933594 31.878906 24.941406 31.8125 24.953125 Z M 31.6875 24.152344 L 31.78125 24.152344 C 31.792969 24.152344 31.800781 24.152344 31.8125 24.152344 L 31.8125 24.078125 C 31.8125 24.078125 31.8125 24.078125 31.800781 24.078125 L 31.570312 24.078125 L 31.570312 24.703125 L 31.6875 24.703125 L 31.6875 24.433594 L 31.800781 24.433594 L 31.808594 24.460938 L 31.808594 24.363281 C 31.808594 24.363281 31.792969 24.363281 31.78125 24.363281 L 31.6875 24.363281 Z M 31.8125 23.855469 L 31.8125 23.921875 C 31.8125 23.921875 31.800781 23.921875 31.792969 23.921875 C 31.722656 23.921875 31.667969 23.941406 31.609375 23.960938 C 31.550781 23.980469 31.503906 24.019531 31.453125 24.058594 C 31.417969 24.105469 31.378906 24.164062 31.347656 24.21875 C 31.328125 24.277344 31.320312 24.335938 31.320312 24.402344 C 31.320312 24.460938 31.328125 24.527344 31.347656 24.585938 C 31.378906 24.644531 31.40625 24.691406 31.453125 24.730469 C 31.503906 24.777344 31.550781 24.816406 31.609375 24.835938 C 31.667969 24.863281 31.722656 24.875 31.78125 24.875 C 31.792969 24.875 31.800781 24.875 31.8125 24.875 L 31.8125 24.953125 C 31.8125 24.953125 31.800781 24.953125 31.792969 24.953125 C 31.714844 24.953125 31.648438 24.933594 31.582031 24.902344 C 31.511719 24.875 31.453125 24.835938 31.40625 24.789062 C 31.347656 24.730469 31.308594 24.671875 31.28125 24.605469 C 31.253906 24.539062 31.242188 24.472656 31.242188 24.402344 C 31.242188 24.347656 31.253906 24.277344 31.273438 24.222656 C 31.292969 24.164062 31.320312 24.113281 31.359375 24.066406 C 31.417969 24 31.472656 23.941406 31.550781 23.914062 C 31.628906 23.875 31.703125 23.855469 31.792969 23.855469 C 31.800781 23.855469 31.8125 23.855469 31.8125 23.855469 Z M 31.8125 23.855469 "/>
</g>
</svg>
