<?xml version="1.0" encoding="UTF-8"?>
<svg xmlns="http://www.w3.org/2000/svg" xmlns:xlink="http://www.w3.org/1999/xlink" width="35pt" height="25pt" viewBox="0 0 35 25" version="1.1">
<g id="surface1">
<path style=" stroke:none;fill-rule:nonzero;fill:rgb(0%,0%,0%);fill-opacity:1;" d="M 13.015625 0.0742188 C 13.015625 0.117188 12.980469 0.152344 12.9375 0.152344 C 12.898438 0.152344 12.863281 0.1875 12.863281 0.226562 C 12.863281 0.265625 12.828125 0.300781 12.789062 0.300781 C 12.746094 0.300781 12.710938 0.335938 12.710938 0.378906 C 12.710938 0.417969 12.691406 0.453125 12.664062 0.453125 C 12.636719 0.453125 12.613281 0.488281 12.613281 0.527344 C 12.613281 0.570312 12.582031 0.605469 12.542969 0.605469 C 12.5 0.605469 12.457031 0.664062 12.4375 0.738281 C 12.421875 0.816406 12.351562 0.925781 12.28125 0.992188 C 12.214844 1.050781 12.160156 1.148438 12.160156 1.207031 C 12.160156 1.261719 12.125 1.308594 12.082031 1.308594 C 12.03125 1.308594 12.007812 1.359375 12.007812 1.460938 C 12.007812 1.5625 11.984375 1.609375 11.933594 1.609375 C 11.890625 1.609375 11.855469 1.644531 11.855469 1.6875 C 11.855469 1.726562 11.835938 1.761719 11.804688 1.761719 C 11.78125 1.761719 11.742188 1.824219 11.726562 1.898438 C 11.707031 1.972656 11.660156 2.070312 11.621094 2.105469 C 11.585938 2.140625 11.554688 2.234375 11.554688 2.316406 C 11.554688 2.394531 11.519531 2.46875 11.480469 2.488281 C 11.429688 2.503906 11.402344 2.582031 11.402344 2.71875 C 11.402344 2.898438 11.394531 2.917969 11.277344 2.917969 C 11.195312 2.917969 11.152344 2.890625 11.152344 2.84375 C 11.152344 2.804688 11.117188 2.769531 11.078125 2.769531 C 11.035156 2.769531 11 2.734375 11 2.695312 C 11 2.652344 10.96875 2.617188 10.929688 2.617188 C 10.890625 2.617188 10.84375 2.582031 10.828125 2.539062 C 10.816406 2.496094 10.78125 2.476562 10.75 2.492188 C 10.722656 2.507812 10.699219 2.488281 10.699219 2.445312 C 10.699219 2.402344 10.664062 2.367188 10.625 2.367188 C 10.582031 2.367188 10.546875 2.332031 10.546875 2.289062 C 10.546875 2.25 10.523438 2.214844 10.496094 2.214844 C 10.46875 2.214844 10.433594 2.25 10.417969 2.289062 C 10.398438 2.332031 10.355469 2.367188 10.316406 2.367188 C 10.277344 2.367188 10.246094 2.410156 10.246094 2.46875 C 10.246094 2.523438 10.210938 2.582031 10.171875 2.597656 C 10.128906 2.617188 10.09375 2.65625 10.09375 2.699219 C 10.09375 2.738281 10.074219 2.769531 10.050781 2.769531 C 10.023438 2.769531 9.988281 2.835938 9.96875 2.917969 C 9.949219 3 9.914062 3.070312 9.886719 3.070312 C 9.863281 3.070312 9.84375 3.125 9.84375 3.195312 C 9.84375 3.265625 9.808594 3.335938 9.765625 3.351562 C 9.722656 3.371094 9.691406 3.449219 9.691406 3.542969 C 9.691406 3.75 9.640625 3.933594 9.589844 3.902344 C 9.570312 3.890625 9.539062 4.0625 9.53125 4.289062 C 9.515625 4.535156 9.480469 4.710938 9.449219 4.722656 C 9.363281 4.746094 9.371094 5.898438 9.449219 5.980469 C 9.484375 6.015625 9.519531 6.242188 9.53125 6.503906 C 9.546875 6.761719 9.574219 6.988281 9.601562 7.003906 C 9.632812 7.023438 9.667969 7.144531 9.683594 7.28125 C 9.691406 7.414062 9.726562 7.542969 9.753906 7.554688 C 9.777344 7.570312 9.808594 7.671875 9.828125 7.78125 C 9.84375 7.890625 9.875 7.988281 9.894531 8.003906 C 9.914062 8.019531 9.949219 8.125 9.964844 8.234375 C 10.007812 8.484375 9.914062 8.609375 9.6875 8.609375 C 9.605469 8.609375 9.539062 8.628906 9.539062 8.652344 C 9.539062 8.679688 9.480469 8.714844 9.40625 8.734375 C 9.328125 8.75 9.253906 8.789062 9.238281 8.816406 C 9.222656 8.835938 9.160156 8.867188 9.09375 8.875 C 9.03125 8.886719 8.960938 8.914062 8.945312 8.945312 C 8.925781 8.976562 8.859375 9.011719 8.800781 9.03125 C 8.734375 9.050781 8.683594 9.09375 8.683594 9.117188 C 8.683594 9.140625 8.648438 9.164062 8.609375 9.164062 C 8.570312 9.164062 8.535156 9.199219 8.535156 9.238281 C 8.535156 9.277344 8.503906 9.3125 8.464844 9.3125 C 8.421875 9.3125 8.378906 9.378906 8.359375 9.464844 C 8.335938 9.546875 8.300781 9.617188 8.277344 9.617188 C 8.253906 9.617188 8.230469 9.671875 8.230469 9.742188 C 8.230469 9.820312 8.203125 9.867188 8.15625 9.867188 C 8.097656 9.867188 8.082031 9.933594 8.082031 10.167969 C 8.082031 10.40625 8.066406 10.472656 8.003906 10.472656 C 7.898438 10.472656 7.898438 10.914062 8.003906 10.953125 C 8.054688 10.976562 8.082031 11.058594 8.082031 11.226562 C 8.082031 11.394531 8.105469 11.476562 8.15625 11.5 C 8.195312 11.511719 8.230469 11.585938 8.230469 11.65625 C 8.230469 11.734375 8.261719 11.78125 8.308594 11.78125 C 8.347656 11.78125 8.382812 11.816406 8.382812 11.855469 C 8.382812 11.894531 8.417969 11.929688 8.457031 11.929688 C 8.5 11.929688 8.535156 11.964844 8.535156 12.007812 C 8.535156 12.046875 8.558594 12.082031 8.585938 12.082031 C 8.753906 12.082031 8.429688 12.460938 8.210938 12.515625 C 8.140625 12.53125 8.082031 12.574219 8.082031 12.617188 C 8.082031 12.65625 8.054688 12.6875 8.027344 12.6875 C 7.941406 12.6875 7.699219 12.953125 7.652344 13.089844 C 7.632812 13.160156 7.585938 13.230469 7.558594 13.25 C 7.476562 13.304688 7.480469 14.359375 7.566406 14.386719 C 7.597656 14.398438 7.628906 14.464844 7.628906 14.527344 C 7.628906 14.597656 7.664062 14.664062 7.703125 14.679688 C 7.742188 14.699219 7.777344 14.765625 7.777344 14.832031 C 7.777344 14.90625 7.808594 14.953125 7.855469 14.953125 C 7.894531 14.953125 7.929688 14.988281 7.929688 15.027344 C 7.929688 15.066406 7.960938 15.101562 7.996094 15.101562 C 8.03125 15.101562 8.097656 15.148438 8.144531 15.203125 C 8.191406 15.257812 8.273438 15.304688 8.316406 15.304688 C 8.402344 15.308594 8.402344 15.308594 8.324219 15.375 C 8.273438 15.410156 8.230469 15.5 8.230469 15.578125 C 8.230469 15.65625 8.207031 15.707031 8.15625 15.707031 C 8.105469 15.707031 8.082031 15.757812 8.082031 15.851562 C 8.082031 15.933594 8.050781 16.007812 8.003906 16.03125 C 7.945312 16.050781 7.929688 16.15625 7.929688 16.539062 C 7.929688 16.929688 7.945312 17.015625 8.003906 17.015625 C 8.054688 17.015625 8.082031 17.066406 8.082031 17.167969 C 8.082031 17.269531 8.105469 17.316406 8.15625 17.316406 C 8.195312 17.316406 8.230469 17.34375 8.230469 17.375 C 8.230469 17.445312 8.660156 17.871094 8.730469 17.871094 C 8.761719 17.871094 8.785156 17.90625 8.785156 17.949219 C 8.785156 17.988281 8.820312 18.023438 8.859375 18.023438 C 8.902344 18.023438 8.9375 18.058594 8.9375 18.097656 C 8.9375 18.140625 8.972656 18.175781 9.011719 18.175781 C 9.050781 18.175781 9.085938 18.210938 9.085938 18.25 C 9.085938 18.289062 9.125 18.324219 9.164062 18.324219 C 9.203125 18.324219 9.238281 18.359375 9.238281 18.402344 C 9.238281 18.441406 9.265625 18.476562 9.292969 18.476562 C 9.324219 18.476562 9.476562 18.601562 9.621094 18.753906 C 9.773438 18.902344 9.917969 19.03125 9.945312 19.03125 C 9.972656 19.03125 9.992188 19.066406 9.992188 19.105469 C 9.992188 19.144531 10.027344 19.179688 10.070312 19.179688 C 10.109375 19.179688 10.144531 19.214844 10.144531 19.257812 C 10.144531 19.300781 10.191406 19.332031 10.269531 19.332031 C 10.351562 19.332031 10.398438 19.363281 10.398438 19.40625 C 10.398438 19.449219 10.433594 19.484375 10.472656 19.484375 C 10.511719 19.484375 10.546875 19.519531 10.546875 19.558594 C 10.546875 19.597656 10.582031 19.632812 10.625 19.632812 C 10.664062 19.632812 10.699219 19.667969 10.699219 19.710938 C 10.699219 19.75 10.734375 19.785156 10.773438 19.785156 C 10.816406 19.785156 10.851562 19.820312 10.851562 19.859375 C 10.851562 19.902344 10.875 19.9375 10.898438 19.9375 C 10.929688 19.9375 11.085938 20.070312 11.253906 20.238281 C 11.417969 20.402344 11.554688 20.558594 11.554688 20.589844 C 11.554688 20.617188 11.578125 20.640625 11.605469 20.640625 C 11.628906 20.640625 11.746094 20.730469 11.855469 20.84375 C 11.96875 20.953125 12.078125 21.042969 12.101562 21.042969 C 12.128906 21.042969 12.285156 21.179688 12.457031 21.34375 C 12.628906 21.511719 12.789062 21.648438 12.8125 21.648438 C 12.84375 21.648438 12.863281 21.683594 12.863281 21.722656 C 12.863281 21.761719 12.898438 21.796875 12.9375 21.796875 C 12.980469 21.796875 13.015625 21.832031 13.015625 21.875 C 13.015625 21.914062 13.050781 21.949219 13.089844 21.949219 C 13.128906 21.949219 13.164062 21.984375 13.164062 22.023438 C 13.164062 22.066406 13.199219 22.101562 13.242188 22.101562 C 13.28125 22.101562 13.316406 22.136719 13.316406 22.175781 C 13.316406 22.214844 13.351562 22.25 13.390625 22.25 C 13.433594 22.25 13.46875 22.285156 13.46875 22.328125 C 13.46875 22.367188 13.488281 22.398438 13.507812 22.386719 C 13.53125 22.382812 13.652344 22.484375 13.785156 22.613281 C 13.914062 22.738281 14.085938 22.875 14.171875 22.917969 C 14.253906 22.953125 14.324219 23.011719 14.324219 23.042969 C 14.324219 23.078125 14.359375 23.109375 14.398438 23.109375 C 14.4375 23.109375 14.472656 23.144531 14.472656 23.183594 C 14.472656 23.222656 14.511719 23.257812 14.550781 23.257812 C 14.589844 23.257812 14.625 23.292969 14.625 23.335938 C 14.625 23.375 14.660156 23.410156 14.699219 23.410156 C 14.742188 23.410156 14.777344 23.445312 14.777344 23.484375 C 14.777344 23.527344 14.8125 23.5625 14.851562 23.5625 C 14.890625 23.5625 14.925781 23.597656 14.925781 23.636719 C 14.925781 23.675781 14.953125 23.710938 14.984375 23.710938 C 15.011719 23.710938 15.105469 23.777344 15.183594 23.859375 C 15.320312 24 15.351562 24.007812 15.597656 23.980469 C 15.738281 23.964844 15.863281 23.929688 15.875 23.90625 C 15.882812 23.882812 15.96875 23.851562 16.066406 23.832031 C 16.160156 23.816406 16.238281 23.78125 16.238281 23.761719 C 16.238281 23.742188 16.328125 23.710938 16.4375 23.691406 L 16.640625 23.660156 L 16.640625 23.257812 C 16.640625 22.945312 16.65625 22.847656 16.714844 22.824219 C 16.765625 22.804688 16.789062 22.726562 16.789062 22.597656 C 16.789062 22.457031 16.808594 22.402344 16.867188 22.402344 C 16.917969 22.402344 16.941406 22.351562 16.941406 22.25 C 16.941406 22.152344 16.964844 22.101562 17.015625 22.101562 C 17.058594 22.101562 17.09375 22.066406 17.09375 22.023438 C 17.09375 21.984375 17.128906 21.949219 17.167969 21.949219 C 17.207031 21.949219 17.242188 21.914062 17.242188 21.875 C 17.242188 21.832031 17.269531 21.796875 17.292969 21.796875 C 17.324219 21.796875 17.34375 21.761719 17.34375 21.722656 C 17.34375 21.683594 17.378906 21.648438 17.417969 21.648438 C 17.460938 21.648438 17.496094 21.613281 17.496094 21.570312 C 17.496094 21.53125 17.53125 21.496094 17.570312 21.496094 C 17.609375 21.496094 17.644531 21.460938 17.644531 21.421875 C 17.644531 21.378906 17.671875 21.34375 17.695312 21.34375 C 17.726562 21.34375 17.800781 21.289062 17.867188 21.21875 C 17.933594 21.148438 18.007812 21.09375 18.042969 21.09375 C 18.074219 21.09375 18.097656 21.0625 18.097656 21.023438 C 18.097656 20.984375 18.15625 20.9375 18.226562 20.921875 C 18.296875 20.902344 18.351562 20.867188 18.351562 20.84375 C 18.351562 20.8125 18.394531 20.792969 18.453125 20.792969 C 18.511719 20.792969 18.550781 20.757812 18.550781 20.703125 C 18.558594 20.621094 18.558594 20.621094 18.621094 20.703125 C 18.664062 20.757812 18.753906 20.792969 18.847656 20.792969 C 18.945312 20.792969 19.003906 20.816406 19.003906 20.855469 C 19.003906 20.898438 19.074219 20.925781 19.1875 20.933594 C 19.445312 20.953125 19.480469 20.964844 19.519531 21.019531 C 19.574219 21.097656 21.582031 21.082031 21.609375 21.003906 C 21.625 20.96875 21.730469 20.941406 21.90625 20.941406 C 22.101562 20.941406 22.1875 20.921875 22.207031 20.867188 C 22.226562 20.8125 22.3125 20.792969 22.484375 20.792969 C 22.671875 20.792969 22.730469 20.773438 22.730469 20.714844 C 22.730469 20.664062 22.785156 20.640625 22.90625 20.640625 C 23.003906 20.640625 23.082031 20.617188 23.082031 20.585938 C 23.082031 20.558594 23.109375 20.550781 23.132812 20.566406 C 23.164062 20.582031 23.183594 20.570312 23.183594 20.546875 C 23.183594 20.515625 23.238281 20.488281 23.304688 20.488281 C 23.371094 20.488281 23.4375 20.453125 23.457031 20.414062 C 23.472656 20.367188 23.546875 20.339844 23.636719 20.339844 C 23.71875 20.339844 23.789062 20.320312 23.789062 20.289062 C 23.789062 20.261719 23.84375 20.226562 23.914062 20.207031 C 23.984375 20.191406 24.039062 20.15625 24.039062 20.136719 C 24.039062 20.113281 24.109375 20.082031 24.191406 20.0625 C 24.277344 20.042969 24.34375 20.011719 24.34375 19.984375 C 24.34375 19.960938 24.414062 19.929688 24.492188 19.910156 C 24.578125 19.890625 24.644531 19.855469 24.644531 19.832031 C 24.644531 19.804688 24.699219 19.785156 24.769531 19.785156 C 24.839844 19.785156 24.910156 19.75 24.925781 19.710938 C 24.945312 19.667969 25.011719 19.632812 25.078125 19.632812 C 25.152344 19.632812 25.199219 19.605469 25.199219 19.558594 C 25.199219 19.503906 25.257812 19.484375 25.425781 19.484375 C 25.589844 19.484375 25.652344 19.503906 25.652344 19.558594 C 25.652344 19.597656 25.6875 19.632812 25.726562 19.632812 C 25.765625 19.632812 25.800781 19.667969 25.800781 19.710938 C 25.800781 19.816406 26.21875 19.816406 26.324219 19.710938 C 26.367188 19.667969 26.421875 19.632812 26.453125 19.632812 C 26.480469 19.632812 26.507812 19.597656 26.507812 19.558594 C 26.507812 19.519531 26.542969 19.484375 26.582031 19.484375 C 26.621094 19.484375 26.65625 19.449219 26.65625 19.40625 C 26.65625 19.367188 26.691406 19.332031 26.734375 19.332031 C 26.773438 19.332031 26.808594 19.296875 26.808594 19.257812 C 26.808594 19.214844 26.84375 19.179688 26.882812 19.179688 C 26.925781 19.179688 26.960938 19.144531 26.960938 19.105469 C 26.960938 19.066406 26.988281 19.03125 27.023438 19.03125 C 27.066406 19.03125 27.058594 19.007812 27.011719 18.980469 C 26.945312 18.9375 26.949219 18.929688 27.023438 18.929688 C 27.074219 18.929688 27.109375 18.890625 27.109375 18.828125 C 27.109375 18.773438 27.144531 18.726562 27.1875 18.726562 C 27.230469 18.726562 27.261719 18.683594 27.261719 18.605469 C 27.261719 18.542969 27.296875 18.476562 27.335938 18.457031 C 27.378906 18.441406 27.414062 18.371094 27.414062 18.300781 C 27.414062 18.230469 27.433594 18.175781 27.464844 18.175781 C 27.488281 18.175781 27.523438 18.09375 27.542969 17.996094 C 27.558594 17.902344 27.59375 17.820312 27.613281 17.820312 C 27.632812 17.820312 27.664062 17.714844 27.679688 17.585938 C 27.695312 17.453125 27.730469 17.339844 27.761719 17.328125 C 27.832031 17.304688 27.835938 15.707031 27.769531 15.707031 C 27.738281 15.707031 27.703125 15.546875 27.683594 15.355469 C 27.667969 15.160156 27.632812 15.003906 27.613281 15.003906 C 27.59375 15.003906 27.5625 14.90625 27.546875 14.789062 C 27.535156 14.671875 27.492188 14.570312 27.46875 14.558594 C 27.4375 14.550781 27.414062 14.472656 27.414062 14.394531 C 27.414062 14.296875 27.386719 14.246094 27.335938 14.246094 C 27.285156 14.246094 27.261719 14.195312 27.261719 14.101562 C 27.261719 14.019531 27.226562 13.921875 27.1875 13.875 C 27.144531 13.835938 27.109375 13.742188 27.109375 13.671875 C 27.109375 13.59375 27.082031 13.542969 27.035156 13.542969 C 26.984375 13.542969 26.960938 13.492188 26.960938 13.390625 C 26.960938 13.289062 26.933594 13.242188 26.882812 13.242188 C 26.84375 13.242188 26.808594 13.203125 26.808594 13.164062 C 26.808594 13.125 26.789062 13.089844 26.757812 13.089844 C 26.734375 13.089844 26.699219 13.035156 26.679688 12.96875 C 26.664062 12.898438 26.617188 12.832031 26.578125 12.816406 C 26.535156 12.800781 26.507812 12.765625 26.507812 12.738281 C 26.507812 12.703125 26.441406 12.609375 26.355469 12.527344 C 26.273438 12.445312 26.203125 12.34375 26.203125 12.304688 C 26.203125 12.261719 26.167969 12.234375 26.128906 12.234375 C 26.089844 12.234375 26.054688 12.214844 26.054688 12.1875 C 26.054688 12.09375 25.710938 11.78125 25.605469 11.78125 C 25.546875 11.78125 25.5 11.75 25.5 11.703125 C 25.5 11.664062 25.464844 11.628906 25.425781 11.628906 C 25.382812 11.628906 25.347656 11.609375 25.347656 11.585938 C 25.347656 11.558594 25.304688 11.519531 25.242188 11.503906 C 25.023438 11.433594 24.957031 11.308594 24.9375 10.894531 C 24.925781 10.648438 24.894531 10.496094 24.855469 10.480469 C 24.820312 10.472656 24.796875 10.359375 24.796875 10.191406 C 24.796875 9.992188 24.773438 9.90625 24.71875 9.886719 C 24.679688 9.867188 24.644531 9.796875 24.644531 9.714844 C 24.644531 9.636719 24.609375 9.539062 24.570312 9.496094 C 24.527344 9.453125 24.492188 9.378906 24.492188 9.324219 C 24.492188 9.269531 24.457031 9.210938 24.417969 9.191406 C 24.378906 9.175781 24.34375 9.132812 24.34375 9.085938 C 24.34375 9.046875 24.304688 9.011719 24.265625 9.011719 C 24.226562 9.011719 24.191406 8.984375 24.191406 8.957031 C 24.191406 8.878906 23.769531 8.457031 23.691406 8.457031 C 23.664062 8.457031 23.621094 8.421875 23.605469 8.382812 C 23.585938 8.34375 23.519531 8.308594 23.457031 8.308594 C 23.378906 8.308594 23.335938 8.277344 23.335938 8.230469 C 23.335938 8.179688 23.285156 8.15625 23.183594 8.15625 C 23.082031 8.15625 23.03125 8.128906 23.03125 8.082031 C 23.03125 8.03125 22.984375 8.003906 22.882812 8.003906 C 22.78125 8.003906 22.730469 7.980469 22.730469 7.929688 C 22.730469 7.878906 22.679688 7.855469 22.578125 7.855469 C 22.5 7.855469 22.429688 7.832031 22.429688 7.804688 C 22.429688 7.777344 22.367188 7.738281 22.292969 7.722656 C 22.21875 7.703125 22.121094 7.65625 22.085938 7.617188 C 22.050781 7.582031 21.984375 7.550781 21.945312 7.550781 C 21.90625 7.550781 21.875 7.527344 21.875 7.5 C 21.875 7.472656 21.808594 7.449219 21.730469 7.449219 C 21.648438 7.449219 21.546875 7.421875 21.511719 7.386719 C 21.476562 7.34375 21.382812 7.300781 21.304688 7.28125 C 21.230469 7.265625 21.171875 7.222656 21.171875 7.199219 C 21.171875 7.167969 21.105469 7.148438 21.019531 7.148438 C 20.917969 7.148438 20.867188 7.125 20.867188 7.074219 C 20.867188 7.023438 20.816406 6.996094 20.71875 6.996094 C 20.617188 6.996094 20.566406 6.972656 20.566406 6.921875 C 20.566406 6.871094 20.515625 6.847656 20.421875 6.847656 C 20.339844 6.847656 20.238281 6.8125 20.195312 6.769531 C 20.152344 6.730469 20.0625 6.695312 19.992188 6.695312 C 19.910156 6.695312 19.859375 6.664062 19.859375 6.621094 C 19.859375 6.570312 19.8125 6.542969 19.714844 6.542969 C 19.632812 6.542969 19.558594 6.515625 19.539062 6.46875 C 19.523438 6.429688 19.453125 6.394531 19.382812 6.394531 C 19.3125 6.394531 19.257812 6.375 19.257812 6.347656 C 19.257812 6.324219 19.191406 6.289062 19.105469 6.269531 C 19.027344 6.246094 18.957031 6.21875 18.957031 6.191406 C 18.957031 6.167969 18.890625 6.136719 18.804688 6.117188 C 18.722656 6.097656 18.652344 6.0625 18.652344 6.035156 C 18.652344 6.011719 18.597656 5.992188 18.527344 5.992188 C 18.445312 5.992188 18.402344 5.960938 18.402344 5.914062 C 18.402344 5.863281 18.351562 5.839844 18.25 5.839844 C 18.148438 5.839844 18.097656 5.816406 18.097656 5.765625 C 18.097656 5.714844 18.050781 5.6875 17.949219 5.6875 C 17.847656 5.6875 17.796875 5.664062 17.796875 5.613281 C 17.796875 5.566406 17.75 5.539062 17.675781 5.539062 C 17.609375 5.539062 17.546875 5.503906 17.523438 5.460938 C 17.511719 5.421875 17.441406 5.386719 17.371094 5.386719 C 17.289062 5.386719 17.242188 5.355469 17.242188 5.3125 C 17.242188 5.269531 17.207031 5.234375 17.167969 5.234375 C 17.128906 5.234375 17.09375 5.214844 17.09375 5.191406 C 17.09375 5.164062 17.03125 5.128906 16.957031 5.109375 C 16.882812 5.09375 16.769531 5.023438 16.714844 4.957031 C 16.65625 4.898438 16.554688 4.828125 16.5 4.808594 C 16.4375 4.792969 16.386719 4.753906 16.386719 4.726562 C 16.386719 4.703125 16.351562 4.683594 16.3125 4.683594 C 16.265625 4.683594 16.222656 4.648438 16.207031 4.605469 C 16.1875 4.566406 16.144531 4.53125 16.105469 4.53125 C 16.066406 4.53125 16.035156 4.496094 16.035156 4.457031 C 16.035156 4.410156 15.988281 4.378906 15.910156 4.378906 C 15.828125 4.378906 15.785156 4.351562 15.785156 4.304688 C 15.785156 4.265625 15.75 4.230469 15.707031 4.230469 C 15.667969 4.230469 15.632812 4.195312 15.632812 4.152344 C 15.632812 4.113281 15.597656 4.078125 15.558594 4.078125 C 15.515625 4.078125 15.480469 4.042969 15.480469 4.003906 C 15.480469 3.960938 15.445312 3.925781 15.40625 3.925781 C 15.367188 3.925781 15.332031 3.890625 15.332031 3.851562 C 15.332031 3.8125 15.304688 3.777344 15.273438 3.777344 C 15.203125 3.777344 14.898438 3.46875 14.917969 3.414062 C 14.921875 3.394531 14.890625 3.371094 14.851562 3.371094 C 14.8125 3.371094 14.777344 3.335938 14.777344 3.296875 C 14.777344 3.257812 14.746094 3.222656 14.707031 3.222656 C 14.664062 3.222656 14.621094 3.152344 14.601562 3.070312 C 14.582031 2.984375 14.546875 2.917969 14.519531 2.917969 C 14.496094 2.917969 14.472656 2.882812 14.472656 2.84375 C 14.472656 2.804688 14.4375 2.769531 14.398438 2.769531 C 14.359375 2.769531 14.324219 2.738281 14.324219 2.699219 C 14.324219 2.65625 14.289062 2.617188 14.246094 2.597656 C 14.207031 2.582031 14.171875 2.527344 14.171875 2.472656 C 14.171875 2.421875 14.136719 2.367188 14.097656 2.347656 C 14.058594 2.332031 14.019531 2.261719 14.019531 2.191406 C 14.019531 2.109375 13.992188 2.0625 13.945312 2.0625 C 13.90625 2.0625 13.871094 2.027344 13.871094 1.988281 C 13.871094 1.949219 13.851562 1.914062 13.820312 1.914062 C 13.796875 1.914062 13.753906 1.824219 13.738281 1.710938 C 13.71875 1.601562 13.6875 1.511719 13.667969 1.511719 C 13.644531 1.511719 13.613281 1.441406 13.59375 1.359375 C 13.574219 1.273438 13.539062 1.207031 13.511719 1.207031 C 13.488281 1.207031 13.46875 1.144531 13.46875 1.0625 C 13.46875 0.980469 13.433594 0.890625 13.390625 0.855469 C 13.351562 0.820312 13.316406 0.71875 13.316406 0.632812 C 13.316406 0.542969 13.28125 0.429688 13.242188 0.371094 C 13.199219 0.320312 13.164062 0.214844 13.164062 0.136719 C 13.164062 0.0507812 13.140625 0 13.089844 0 C 13.050781 0 13.015625 0.0351562 13.015625 0.0742188 Z M 18.652344 10.113281 C 18.652344 10.140625 18.699219 10.167969 18.753906 10.183594 C 18.808594 10.199219 18.847656 10.238281 18.84375 10.28125 C 18.835938 10.316406 18.859375 10.339844 18.894531 10.332031 C 18.925781 10.324219 18.957031 10.355469 18.957031 10.394531 C 18.957031 10.4375 18.933594 10.472656 18.910156 10.472656 C 18.882812 10.472656 18.847656 10.535156 18.828125 10.621094 C 18.808594 10.703125 18.773438 10.773438 18.75 10.773438 C 18.722656 10.773438 18.703125 10.824219 18.703125 10.882812 C 18.703125 10.949219 18.667969 11.066406 18.628906 11.144531 C 18.515625 11.351562 18.515625 12.382812 18.628906 12.382812 C 18.667969 12.382812 18.699219 12.410156 18.691406 12.441406 C 18.683594 12.46875 18.730469 12.503906 18.789062 12.515625 C 19.035156 12.554688 19.105469 12.703125 19.105469 13.164062 C 19.105469 13.527344 19.089844 13.609375 19.003906 13.695312 C 18.898438 13.800781 18.652344 13.835938 18.652344 13.742188 C 18.652344 13.714844 18.5625 13.695312 18.457031 13.695312 C 18.347656 13.695312 18.226562 13.65625 18.179688 13.617188 C 18.140625 13.578125 18.070312 13.542969 18.027344 13.542969 C 17.984375 13.542969 17.949219 13.507812 17.949219 13.46875 C 17.949219 13.425781 17.914062 13.390625 17.871094 13.390625 C 17.832031 13.390625 17.796875 13.355469 17.796875 13.316406 C 17.796875 13.277344 17.761719 13.242188 17.722656 13.242188 C 17.671875 13.242188 17.644531 13.191406 17.644531 13.09375 C 17.644531 13.015625 17.617188 12.9375 17.585938 12.921875 C 17.535156 12.90625 17.519531 12.738281 17.519531 12.285156 C 17.519531 11.832031 17.535156 11.660156 17.585938 11.640625 C 17.617188 11.628906 17.644531 11.542969 17.644531 11.453125 C 17.644531 11.359375 17.679688 11.25 17.722656 11.207031 C 17.761719 11.167969 17.796875 11.085938 17.796875 11.023438 C 17.796875 10.96875 17.832031 10.910156 17.871094 10.894531 C 17.914062 10.875 17.949219 10.808594 17.949219 10.742188 C 17.949219 10.667969 17.976562 10.621094 18.023438 10.621094 C 18.0625 10.621094 18.097656 10.585938 18.097656 10.546875 C 18.097656 10.507812 18.132812 10.472656 18.175781 10.472656 C 18.21875 10.472656 18.25 10.425781 18.25 10.355469 C 18.25 10.269531 18.300781 10.214844 18.417969 10.160156 C 18.613281 10.0625 18.652344 10.058594 18.652344 10.113281 Z M 24.109375 12.15625 C 24.164062 12.199219 24.269531 12.234375 24.351562 12.234375 C 24.425781 12.234375 24.492188 12.253906 24.492188 12.277344 C 24.492188 12.304688 24.5625 12.339844 24.644531 12.359375 C 24.730469 12.378906 24.796875 12.410156 24.796875 12.433594 C 24.796875 12.460938 24.839844 12.488281 24.894531 12.511719 C 25.035156 12.554688 25.5 13.015625 25.5 13.109375 C 25.5 13.15625 25.535156 13.203125 25.574219 13.21875 C 25.617188 13.242188 25.652344 13.28125 25.652344 13.320312 C 25.652344 13.359375 25.6875 13.390625 25.726562 13.390625 C 25.773438 13.390625 25.800781 13.4375 25.800781 13.511719 C 25.800781 13.578125 25.835938 13.644531 25.878906 13.664062 C 25.917969 13.679688 25.953125 13.722656 25.953125 13.769531 C 25.953125 13.808594 25.972656 13.84375 26.003906 13.84375 C 26.027344 13.84375 26.070312 13.90625 26.082031 13.980469 C 26.105469 14.054688 26.148438 14.152344 26.191406 14.1875 C 26.226562 14.222656 26.253906 14.296875 26.253906 14.351562 C 26.253906 14.410156 26.273438 14.445312 26.300781 14.429688 C 26.324219 14.414062 26.355469 14.492188 26.371094 14.609375 C 26.386719 14.71875 26.421875 14.832031 26.445312 14.847656 C 26.472656 14.863281 26.507812 14.960938 26.527344 15.0625 C 26.546875 15.164062 26.585938 15.253906 26.617188 15.265625 C 26.652344 15.277344 26.671875 15.585938 26.671875 16.21875 C 26.671875 17.019531 26.65625 17.171875 26.585938 17.242188 C 26.542969 17.289062 26.507812 17.378906 26.507812 17.449219 C 26.507812 17.644531 26.421875 17.589844 26.386719 17.367188 C 26.371094 17.257812 26.335938 17.167969 26.308594 17.167969 C 26.285156 17.167969 26.25 17.097656 26.230469 17.015625 C 26.210938 16.929688 26.175781 16.863281 26.148438 16.863281 C 26.125 16.863281 26.105469 16.828125 26.105469 16.789062 C 26.105469 16.75 26.070312 16.714844 26.027344 16.714844 C 25.988281 16.714844 25.953125 16.679688 25.953125 16.636719 C 25.953125 16.597656 25.917969 16.5625 25.878906 16.5625 C 25.835938 16.5625 25.800781 16.542969 25.800781 16.511719 C 25.800781 16.4375 25.636719 16.261719 25.566406 16.261719 C 25.53125 16.261719 25.5 16.226562 25.5 16.183594 C 25.5 16.144531 25.472656 16.109375 25.445312 16.109375 C 25.410156 16.109375 25.332031 16.054688 25.269531 15.984375 C 25.203125 15.914062 25.105469 15.859375 25.058594 15.859375 C 25 15.859375 24.945312 15.824219 24.925781 15.78125 C 24.910156 15.742188 24.839844 15.707031 24.769531 15.707031 C 24.6875 15.707031 24.644531 15.675781 24.644531 15.632812 C 24.644531 15.578125 24.589844 15.554688 24.449219 15.554688 C 24.320312 15.554688 24.242188 15.53125 24.222656 15.480469 C 24.207031 15.433594 24.125 15.40625 24.015625 15.40625 C 23.914062 15.40625 23.792969 15.371094 23.753906 15.324219 C 23.6875 15.257812 23.5625 15.25 22.992188 15.265625 C 22.503906 15.273438 22.304688 15.300781 22.289062 15.339844 C 22.277344 15.378906 22.175781 15.40625 22.019531 15.40625 C 21.84375 15.40625 21.765625 15.425781 21.746094 15.480469 C 21.722656 15.519531 21.664062 15.554688 21.597656 15.554688 C 21.53125 15.554688 21.472656 15.589844 21.453125 15.632812 C 21.4375 15.671875 21.390625 15.707031 21.347656 15.707031 C 21.304688 15.707031 21.269531 15.726562 21.269531 15.757812 C 21.269531 15.78125 21.214844 15.816406 21.144531 15.839844 C 21.074219 15.851562 21.019531 15.898438 21.019531 15.9375 C 21.019531 15.980469 20.988281 16.007812 20.949219 16.007812 C 20.910156 16.007812 20.863281 16.066406 20.847656 16.136719 C 20.828125 16.207031 20.792969 16.261719 20.765625 16.261719 C 20.738281 16.261719 20.71875 16.296875 20.71875 16.335938 C 20.71875 16.382812 20.683594 16.425781 20.640625 16.441406 C 20.601562 16.460938 20.566406 16.523438 20.566406 16.589844 C 20.566406 16.652344 20.53125 16.714844 20.492188 16.734375 C 20.429688 16.753906 20.414062 16.863281 20.414062 17.261719 C 20.414062 17.640625 20.433594 17.78125 20.492188 17.839844 C 20.53125 17.882812 20.566406 17.972656 20.566406 18.042969 C 20.566406 18.125 20.597656 18.175781 20.640625 18.175781 C 20.683594 18.175781 20.71875 18.210938 20.71875 18.25 C 20.71875 18.289062 20.753906 18.324219 20.792969 18.324219 C 20.832031 18.324219 20.867188 18.351562 20.867188 18.378906 C 20.867188 18.472656 21.28125 18.859375 21.421875 18.902344 C 21.492188 18.925781 21.5625 18.96875 21.582031 18.996094 C 21.625 19.066406 23.132812 19.054688 23.179688 18.988281 C 23.195312 18.964844 23.300781 18.929688 23.410156 18.914062 C 23.519531 18.894531 23.617188 18.859375 23.628906 18.828125 C 23.652344 18.761719 23.9375 18.761719 23.9375 18.828125 C 23.9375 18.855469 23.894531 18.878906 23.84375 18.878906 C 23.792969 18.878906 23.738281 18.914062 23.71875 18.953125 C 23.703125 18.996094 23.640625 19.03125 23.585938 19.03125 C 23.53125 19.03125 23.472656 19.066406 23.457031 19.105469 C 23.4375 19.144531 23.371094 19.179688 23.304688 19.179688 C 23.230469 19.179688 23.183594 19.210938 23.183594 19.257812 C 23.183594 19.308594 23.132812 19.332031 23.03125 19.332031 C 22.941406 19.332031 22.867188 19.363281 22.851562 19.40625 C 22.832031 19.453125 22.757812 19.484375 22.648438 19.484375 C 22.53125 19.484375 22.480469 19.507812 22.480469 19.558594 C 22.480469 19.613281 22.421875 19.632812 22.277344 19.632812 C 22.140625 19.632812 22.0625 19.660156 22.046875 19.710938 C 22.027344 19.757812 21.945312 19.785156 21.800781 19.785156 C 21.667969 19.785156 21.574219 19.808594 21.5625 19.84375 C 21.542969 19.894531 21.355469 19.910156 20.84375 19.910156 C 20.328125 19.910156 20.144531 19.894531 20.128906 19.84375 C 20.113281 19.816406 20.027344 19.785156 19.933594 19.785156 C 19.820312 19.785156 19.746094 19.753906 19.730469 19.710938 C 19.710938 19.664062 19.632812 19.632812 19.554688 19.632812 C 19.457031 19.632812 19.410156 19.609375 19.410156 19.558594 C 19.410156 19.519531 19.371094 19.484375 19.332031 19.484375 C 19.292969 19.484375 19.257812 19.453125 19.257812 19.417969 C 19.257812 19.382812 19.210938 19.351562 19.160156 19.347656 C 19.046875 19.335938 18.722656 19.023438 18.679688 18.878906 C 18.664062 18.824219 18.621094 18.777344 18.597656 18.777344 C 18.574219 18.777344 18.550781 18.707031 18.550781 18.628906 C 18.550781 18.527344 18.527344 18.476562 18.476562 18.476562 C 18.417969 18.476562 18.402344 18.402344 18.402344 18.101562 C 18.402344 17.835938 18.382812 17.707031 18.324219 17.648438 C 18.234375 17.558594 18.226562 17.433594 18.316406 17.410156 C 18.355469 17.394531 18.382812 17.222656 18.390625 16.851562 C 18.40625 16.425781 18.425781 16.3125 18.480469 16.3125 C 18.523438 16.3125 18.550781 16.265625 18.550781 16.210938 C 18.550781 16.15625 18.574219 16.109375 18.597656 16.109375 C 18.621094 16.109375 18.664062 16.058594 18.683594 15.992188 C 18.703125 15.933594 18.769531 15.832031 18.835938 15.773438 C 18.898438 15.710938 18.957031 15.636719 18.957031 15.605469 C 18.957031 15.582031 18.984375 15.554688 19.027344 15.554688 C 19.066406 15.554688 19.105469 15.519531 19.125 15.480469 C 19.140625 15.441406 19.210938 15.40625 19.28125 15.40625 C 19.363281 15.40625 19.410156 15.375 19.410156 15.328125 C 19.410156 15.277344 19.457031 15.253906 19.558594 15.253906 C 19.644531 15.253906 19.710938 15.234375 19.710938 15.203125 C 19.710938 15.179688 19.800781 15.136719 19.910156 15.125 C 20.023438 15.101562 20.113281 15.074219 20.113281 15.050781 C 20.113281 15.03125 20.25 15.003906 20.414062 14.980469 C 20.582031 14.960938 20.71875 14.925781 20.71875 14.90625 C 20.71875 14.882812 20.9375 14.851562 21.207031 14.839844 C 21.523438 14.824219 21.699219 14.800781 21.714844 14.761719 C 21.722656 14.726562 21.765625 14.699219 21.804688 14.699219 C 21.84375 14.699219 21.875 14.675781 21.875 14.644531 C 21.875 14.621094 21.898438 14.609375 21.933594 14.628906 C 21.96875 14.648438 21.976562 14.644531 21.957031 14.609375 C 21.933594 14.574219 21.875 14.550781 21.820312 14.550781 C 21.769531 14.550781 21.722656 14.519531 21.722656 14.480469 C 21.722656 14.4375 21.695312 14.398438 21.664062 14.382812 C 21.578125 14.359375 21.578125 13.734375 21.664062 13.703125 C 21.699219 13.695312 21.722656 13.617188 21.722656 13.539062 C 21.722656 13.441406 21.75 13.390625 21.800781 13.390625 C 21.84375 13.390625 21.875 13.347656 21.875 13.265625 C 21.875 13.195312 21.910156 13.125 21.949219 13.109375 C 21.992188 13.089844 22.027344 13.050781 22.027344 13.007812 C 22.027344 12.96875 22.0625 12.9375 22.101562 12.9375 C 22.140625 12.9375 22.175781 12.902344 22.175781 12.863281 C 22.175781 12.824219 22.210938 12.789062 22.253906 12.789062 C 22.292969 12.789062 22.324219 12.773438 22.324219 12.746094 C 22.304688 12.617188 22.34375 12.539062 22.453125 12.515625 C 22.523438 12.496094 22.578125 12.460938 22.578125 12.433594 C 22.578125 12.40625 22.613281 12.382812 22.65625 12.382812 C 22.699219 12.382812 22.746094 12.347656 22.761719 12.308594 C 22.78125 12.261719 22.855469 12.234375 22.960938 12.234375 C 23.074219 12.234375 23.148438 12.203125 23.164062 12.15625 C 23.203125 12.050781 23.972656 12.050781 24.109375 12.15625 Z M 23.324219 16 C 23.335938 16.066406 23.375 16.128906 23.414062 16.144531 C 23.457031 16.160156 23.484375 16.226562 23.484375 16.292969 C 23.484375 16.367188 23.515625 16.410156 23.5625 16.410156 C 23.617188 16.410156 23.636719 16.46875 23.636719 16.59375 C 23.636719 16.707031 23.65625 16.757812 23.691406 16.734375 C 23.726562 16.714844 23.742188 16.730469 23.726562 16.769531 C 23.710938 16.820312 23.589844 16.84375 23.292969 16.855469 C 22.953125 16.863281 22.882812 16.855469 22.882812 16.789062 C 22.882812 16.75 22.863281 16.714844 22.832031 16.714844 C 22.804688 16.714844 22.769531 16.628906 22.75 16.523438 C 22.730469 16.421875 22.695312 16.320312 22.671875 16.304688 C 22.644531 16.292969 22.609375 16.179688 22.59375 16.066406 L 22.566406 15.851562 L 22.9375 15.867188 C 23.285156 15.882812 23.308594 15.894531 23.324219 16 Z M 22.175781 16.066406 C 22.175781 16.09375 22.210938 16.148438 22.253906 16.191406 C 22.292969 16.234375 22.328125 16.3125 22.328125 16.367188 C 22.328125 16.421875 22.347656 16.457031 22.375 16.441406 C 22.421875 16.410156 22.480469 16.574219 22.480469 16.75 C 22.480469 16.859375 22.464844 16.863281 22.027344 16.863281 C 21.660156 16.863281 21.574219 16.878906 21.574219 16.941406 C 21.574219 17 21.507812 17.015625 21.296875 17.015625 C 21.023438 17.015625 21.019531 17.015625 21.019531 16.863281 C 21.019531 16.765625 21.042969 16.714844 21.09375 16.714844 C 21.136719 16.714844 21.171875 16.679688 21.171875 16.636719 C 21.171875 16.597656 21.191406 16.5625 21.214844 16.5625 C 21.242188 16.5625 21.277344 16.507812 21.292969 16.441406 C 21.304688 16.371094 21.371094 16.300781 21.433594 16.28125 C 21.492188 16.265625 21.589844 16.195312 21.644531 16.128906 C 21.722656 16.039062 21.804688 16.007812 21.964844 16.007812 C 22.082031 16.007812 22.175781 16.035156 22.175781 16.066406 Z M 24.34375 16.210938 C 24.34375 16.234375 24.378906 16.261719 24.417969 16.261719 C 24.457031 16.261719 24.492188 16.304688 24.492188 16.363281 C 24.492188 16.417969 24.527344 16.460938 24.570312 16.460938 C 24.617188 16.460938 24.644531 16.511719 24.644531 16.613281 C 24.644531 16.695312 24.664062 16.765625 24.6875 16.765625 C 24.757812 16.765625 24.804688 16.949219 24.769531 17.066406 C 24.730469 17.1875 24.492188 17.207031 24.492188 17.089844 C 24.492188 17.042969 24.441406 17.015625 24.34375 17.015625 C 24.242188 17.015625 24.191406 16.992188 24.191406 16.941406 C 24.191406 16.898438 24.15625 16.863281 24.117188 16.863281 C 24.074219 16.863281 24.039062 16.828125 24.039062 16.789062 C 24.039062 16.75 24.015625 16.714844 23.984375 16.714844 C 23.960938 16.714844 23.945312 16.695312 23.964844 16.667969 C 23.980469 16.644531 23.96875 16.609375 23.9375 16.589844 C 23.882812 16.554688 23.875 16.363281 23.917969 16.242188 C 23.953125 16.148438 24.34375 16.125 24.34375 16.210938 Z M 22.253906 17.304688 L 22.488281 17.332031 L 22.464844 17.535156 C 22.449219 17.644531 22.414062 17.75 22.386719 17.765625 C 22.363281 17.78125 22.328125 17.882812 22.308594 17.984375 C 22.289062 18.089844 22.253906 18.175781 22.226562 18.175781 C 22.195312 18.175781 22.175781 18.210938 22.175781 18.25 C 22.175781 18.289062 22.140625 18.324219 22.101562 18.324219 C 22.0625 18.324219 22.027344 18.359375 22.027344 18.402344 C 22.027344 18.449219 21.976562 18.476562 21.875 18.476562 C 21.773438 18.476562 21.722656 18.449219 21.722656 18.402344 C 21.722656 18.355469 21.679688 18.324219 21.597656 18.324219 C 21.519531 18.324219 21.472656 18.292969 21.472656 18.25 C 21.472656 18.210938 21.425781 18.132812 21.371094 18.089844 C 21.316406 18.039062 21.269531 17.976562 21.269531 17.953125 C 21.269531 17.925781 21.214844 17.855469 21.144531 17.792969 C 21.003906 17.660156 20.972656 17.417969 21.09375 17.417969 C 21.136719 17.417969 21.171875 17.398438 21.171875 17.367188 C 21.171875 17.34375 21.300781 17.3125 21.460938 17.304688 C 21.617188 17.292969 21.808594 17.28125 21.878906 17.277344 C 21.949219 17.273438 22.121094 17.28125 22.253906 17.304688 Z M 23.636719 17.386719 C 23.636719 17.429688 23.667969 17.472656 23.703125 17.484375 C 23.742188 17.503906 23.746094 17.523438 23.707031 17.554688 C 23.675781 17.574219 23.636719 17.722656 23.628906 17.871094 C 23.613281 18.023438 23.570312 18.152344 23.542969 18.164062 C 23.511719 18.175781 23.484375 18.214844 23.484375 18.253906 C 23.484375 18.300781 23.429688 18.324219 23.339844 18.324219 C 23.257812 18.324219 23.183594 18.351562 23.175781 18.378906 C 23.164062 18.410156 23.039062 18.449219 22.890625 18.464844 L 22.628906 18.492188 L 22.628906 18.328125 C 22.628906 18.246094 22.648438 18.175781 22.675781 18.175781 C 22.699219 18.175781 22.730469 18.042969 22.742188 17.886719 C 22.757812 17.730469 22.792969 17.589844 22.820312 17.578125 C 22.855469 17.570312 22.882812 17.503906 22.882812 17.4375 C 22.882812 17.324219 22.890625 17.316406 23.257812 17.316406 C 23.550781 17.316406 23.636719 17.332031 23.636719 17.386719 Z M 24.492188 17.539062 C 24.492188 17.578125 24.527344 17.621094 24.570312 17.640625 C 24.664062 17.675781 24.664062 17.800781 24.574219 17.855469 C 24.53125 17.875 24.492188 17.953125 24.484375 18.023438 C 24.46875 18.140625 24.441406 18.148438 24.207031 18.164062 L 23.9375 18.179688 L 23.9375 17.960938 C 23.9375 17.839844 23.96875 17.679688 24.003906 17.605469 C 24.054688 17.488281 24.09375 17.46875 24.28125 17.46875 C 24.425781 17.46875 24.492188 17.488281 24.492188 17.539062 Z M 24.492188 17.539062 "/>
<path style=" stroke:none;fill-rule:nonzero;fill:rgb(0%,0%,0%);fill-opacity:1;" d="M 23.621094 12.527344 C 23.40625 12.570312 23.21875 12.9375 23.410156 12.9375 C 23.449219 12.9375 23.484375 12.972656 23.484375 13.015625 C 23.484375 13.054688 23.519531 13.089844 23.5625 13.089844 C 23.601562 13.089844 23.636719 13.125 23.636719 13.164062 C 23.636719 13.203125 23.671875 13.242188 23.710938 13.242188 C 23.753906 13.242188 23.789062 13.277344 23.789062 13.316406 C 23.789062 13.355469 23.8125 13.390625 23.839844 13.390625 C 23.867188 13.390625 23.890625 13.441406 23.890625 13.503906 C 23.890625 13.699219 23.945312 13.824219 24.054688 13.890625 C 24.128906 13.941406 24.164062 13.945312 24.179688 13.898438 C 24.191406 13.871094 24.226562 13.84375 24.265625 13.84375 C 24.300781 13.84375 24.34375 13.773438 24.363281 13.6875 C 24.378906 13.601562 24.414062 13.546875 24.441406 13.566406 C 24.472656 13.585938 24.492188 13.527344 24.492188 13.421875 C 24.492188 13.296875 24.472656 13.242188 24.417969 13.242188 C 24.367188 13.242188 24.34375 13.191406 24.34375 13.089844 C 24.34375 12.988281 24.316406 12.9375 24.265625 12.9375 C 24.226562 12.9375 24.191406 12.917969 24.191406 12.886719 C 24.191406 12.8125 24.023438 12.636719 23.953125 12.636719 C 23.917969 12.636719 23.890625 12.617188 23.890625 12.589844 C 23.890625 12.535156 23.742188 12.5 23.621094 12.527344 Z M 23.621094 12.527344 "/>
<path style=" stroke:none;fill-rule:nonzero;fill:rgb(0%,0%,0%);fill-opacity:1;" d="M 19.558594 16.136719 C 19.558594 16.207031 19.523438 16.277344 19.484375 16.292969 C 19.433594 16.3125 19.410156 16.390625 19.410156 16.539062 C 19.410156 16.683594 19.382812 16.765625 19.332031 16.785156 C 19.273438 16.804688 19.257812 16.910156 19.257812 17.269531 C 19.257812 17.636719 19.273438 17.722656 19.332031 17.722656 C 19.371094 17.722656 19.410156 17.757812 19.410156 17.796875 C 19.410156 17.835938 19.445312 17.871094 19.484375 17.871094 C 19.523438 17.871094 19.558594 17.847656 19.558594 17.820312 C 19.558594 17.792969 19.59375 17.769531 19.632812 17.769531 C 19.695312 17.769531 19.710938 17.679688 19.710938 17.246094 C 19.710938 16.886719 19.730469 16.714844 19.769531 16.703125 C 19.804688 16.6875 19.839844 16.542969 19.851562 16.347656 L 19.871094 16.007812 L 19.714844 16.007812 C 19.578125 16.007812 19.558594 16.03125 19.558594 16.136719 Z M 19.558594 16.136719 "/>
<path style=" stroke:none;fill-rule:nonzero;fill:rgb(0%,0%,0%);fill-opacity:1;" d="M 17.546875 23.789062 C 17.546875 23.828125 17.511719 23.863281 17.46875 23.863281 C 17.410156 23.863281 17.394531 23.941406 17.394531 24.265625 C 17.394531 24.601562 17.410156 24.683594 17.496094 24.769531 C 17.550781 24.824219 17.609375 24.871094 17.625 24.871094 C 17.640625 24.871094 17.6875 24.90625 17.726562 24.945312 C 17.78125 25 17.878906 25.011719 18.089844 24.992188 C 18.246094 24.976562 18.386719 24.945312 18.402344 24.925781 C 18.417969 24.898438 18.476562 24.871094 18.539062 24.847656 C 18.601562 24.828125 18.667969 24.757812 18.683594 24.6875 C 18.699219 24.621094 18.734375 24.566406 18.757812 24.566406 C 18.785156 24.566406 18.804688 24.441406 18.804688 24.285156 C 18.804688 24.089844 18.785156 24.015625 18.742188 24.023438 C 18.703125 24.039062 18.6875 24.140625 18.699219 24.304688 C 18.707031 24.515625 18.691406 24.566406 18.632812 24.566406 C 18.585938 24.566406 18.550781 24.601562 18.550781 24.644531 C 18.550781 24.683594 18.515625 24.71875 18.476562 24.71875 C 18.4375 24.71875 18.402344 24.683594 18.402344 24.644531 C 18.402344 24.601562 18.367188 24.566406 18.324219 24.566406 C 18.277344 24.566406 18.25 24.515625 18.25 24.417969 C 18.25 24.316406 18.277344 24.265625 18.324219 24.265625 C 18.371094 24.265625 18.402344 24.21875 18.402344 24.144531 C 18.402344 23.898438 18.355469 23.863281 18.070312 23.863281 C 17.863281 23.863281 17.796875 23.84375 17.796875 23.789062 C 17.796875 23.742188 17.75 23.710938 17.671875 23.710938 C 17.589844 23.710938 17.546875 23.742188 17.546875 23.789062 Z M 17.796875 23.9375 C 17.796875 24 17.84375 24.003906 18.023438 23.980469 C 18.246094 23.949219 18.25 23.953125 18.25 24.085938 C 18.25 24.160156 18.214844 24.230469 18.175781 24.246094 C 18.128906 24.265625 18.097656 24.339844 18.097656 24.421875 C 18.097656 24.515625 18.125 24.566406 18.175781 24.566406 C 18.214844 24.566406 18.25 24.601562 18.25 24.644531 C 18.25 24.683594 18.285156 24.71875 18.324219 24.71875 C 18.367188 24.71875 18.402344 24.753906 18.402344 24.792969 C 18.402344 24.855469 18.332031 24.871094 18.074219 24.871094 C 17.625 24.871094 17.53125 24.773438 17.503906 24.304688 C 17.484375 24.019531 17.496094 23.964844 17.566406 23.964844 C 17.609375 23.964844 17.644531 23.9375 17.644531 23.914062 C 17.644531 23.882812 17.679688 23.863281 17.722656 23.863281 C 17.761719 23.863281 17.796875 23.898438 17.796875 23.9375 Z M 17.796875 23.9375 "/>
</g>
</svg>
