<?xml version="1.0" encoding="UTF-8"?>
<svg xmlns="http://www.w3.org/2000/svg" xmlns:xlink="http://www.w3.org/1999/xlink" width="35pt" height="25pt" viewBox="0 0 35 25" version="1.1">
<g id="surface1">
<path style=" stroke:none;fill-rule:nonzero;fill:rgb(100%,100%,100%);fill-opacity:1;" d="M 25.226562 1.941406 L 25.253906 16.382812 C 25.253906 17.304688 25.253906 20.121094 18.167969 20.132812 L 16.832031 20.132812 C 9.746094 20.121094 9.746094 17.304688 9.746094 16.382812 L 9.773438 1.941406 L 0 1.941406 L 0.0078125 18.550781 C 0.0078125 23.144531 12.890625 23.5 16.835938 23.5 L 18.164062 23.5 C 22.109375 23.5 34.992188 23.144531 34.992188 18.550781 L 35 1.941406 Z M 25.226562 1.941406 "/>
<path style=" stroke:none;fill-rule:nonzero;fill:rgb(0%,31.372549%,18.823529%);fill-opacity:1;" d="M 25.980469 16.382812 L 25.984375 2.648438 L 34.273438 2.648438 C 34.273438 2.648438 34.261719 18 34.261719 18.550781 C 34.261719 21.5625 25.988281 22.773438 18.164062 22.773438 C 18.164062 22.390625 18.167969 21.460938 18.167969 20.859375 C 22.082031 20.851562 25.980469 20.027344 25.980469 16.382812 "/>
<path style=" stroke:none;fill-rule:nonzero;fill:rgb(95.686275%,45.098039%,12.941176%);fill-opacity:1;" d="M 9.019531 16.382812 L 9.015625 2.648438 L 0.726562 2.648438 C 0.726562 2.648438 0.738281 18 0.738281 18.550781 C 0.738281 21.5625 9.011719 22.773438 16.835938 22.773438 C 16.835938 22.390625 16.832031 21.460938 16.832031 20.859375 C 12.917969 20.851562 9.019531 20.027344 9.019531 16.382812 "/>
</g>
</svg>
