<?xml version="1.0" encoding="UTF-8"?>
<svg xmlns="http://www.w3.org/2000/svg" xmlns:xlink="http://www.w3.org/1999/xlink" width="35pt" height="25pt" viewBox="0 0 35 25" version="1.1">
<g id="surface1">
<path style=" stroke:none;fill-rule:nonzero;fill:rgb(0%,0%,0%);fill-opacity:1;" d="M 26.875 8.875 L 22.269531 8.875 L 22.269531 10.167969 L 23.851562 10.167969 L 26.875 13.273438 L 26.875 20.339844 L 23.753906 23.496094 L 12.125 23.496094 L 9.003906 20.339844 L 9.003906 16.125 L 13.429688 16.125 L 13.429688 14.652344 L 12.125 14.652344 L 9.003906 11.472656 L 9.003906 4.757812 L 12.121094 1.503906 L 23.757812 1.503906 L 26.875 4.757812 Z M 11.753906 0.644531 L 8.144531 4.414062 L 8.144531 11.824219 L 11.523438 15.265625 L 8.144531 15.265625 L 8.144531 20.695312 L 11.769531 24.355469 L 24.113281 24.355469 L 27.734375 20.695312 L 27.734375 12.894531 L 24.613281 9.734375 L 27.734375 9.734375 L 27.734375 4.414062 L 24.125 0.644531 Z M 11.753906 0.644531 "/>
<path style=" stroke:none;fill-rule:nonzero;fill:rgb(0%,0%,0%);fill-opacity:1;" d="M 25.660156 24.246094 C 25.457031 24.246094 25.296875 24.082031 25.296875 23.882812 C 25.296875 23.683594 25.457031 23.523438 25.660156 23.523438 C 25.859375 23.523438 26.023438 23.683594 26.023438 23.882812 C 26.023438 24.082031 25.859375 24.246094 25.660156 24.246094 M 25.660156 23.421875 C 25.40625 23.421875 25.199219 23.628906 25.199219 23.882812 C 25.199219 24.136719 25.40625 24.34375 25.660156 24.34375 C 25.914062 24.34375 26.121094 24.136719 26.121094 23.882812 C 26.121094 23.628906 25.914062 23.421875 25.660156 23.421875 "/>
<path style=" stroke:none;fill-rule:nonzero;fill:rgb(0%,0%,0%);fill-opacity:1;" d="M 25.714844 23.835938 L 25.589844 23.835938 L 25.589844 23.722656 L 25.714844 23.722656 C 25.746094 23.722656 25.773438 23.75 25.773438 23.78125 C 25.773438 23.8125 25.746094 23.835938 25.714844 23.835938 M 25.871094 23.78125 C 25.871094 23.695312 25.800781 23.625 25.714844 23.625 L 25.492188 23.625 L 25.492188 24.152344 L 25.589844 24.152344 L 25.589844 23.9375 L 25.664062 23.9375 L 25.761719 24.152344 L 25.871094 24.152344 L 25.769531 23.929688 C 25.828125 23.90625 25.871094 23.847656 25.871094 23.78125 "/>
<path style=" stroke:none;fill-rule:nonzero;fill:rgb(0%,0%,0%);fill-opacity:1;" d="M 15.785156 15.609375 L 15.785156 17.921875 L 19.933594 17.921875 L 19.933594 17.113281 L 21.597656 17.113281 L 21.597656 16.375 L 19.933594 16.375 L 19.933594 15.609375 Z M 15.785156 15.609375 "/>
<path style=" stroke:none;fill-rule:nonzero;fill:rgb(0%,0%,0%);fill-opacity:1;" d="M 17.097656 5.988281 L 19.933594 8.207031 L 19.933594 5.988281 Z M 17.097656 5.988281 "/>
<path style=" stroke:none;fill-rule:nonzero;fill:rgb(0%,0%,0%);fill-opacity:1;" d="M 18.671875 10.167969 L 15.78125 7.945312 L 15.78125 10.167969 Z M 18.671875 10.167969 "/>
<path style=" stroke:none;fill-rule:nonzero;fill:rgb(96.078431%,0%,18.039216%);fill-opacity:1;" d="M 12.304688 1.933594 L 9.433594 4.933594 L 9.433594 11.296875 L 12.304688 14.21875 L 13.589844 14.21875 L 14.917969 13.273438 L 20.796875 13.273438 L 22.273438 14.34375 L 22.273438 16.375 L 22.027344 16.375 L 22.027344 17.113281 L 22.273438 17.113281 L 22.273438 19.257812 L 20.816406 20.304688 L 14.941406 20.304688 L 13.429688 19.203125 L 13.429688 16.554688 L 9.433594 16.554688 L 9.433594 20.164062 L 12.304688 23.066406 L 23.574219 23.066406 L 26.445312 20.164062 L 26.445312 13.445312 L 23.65625 10.597656 L 22.269531 10.597656 L 22.269531 11.277344 L 20.109375 11.277344 L 19.226562 10.597656 L 15.78125 10.597656 L 15.78125 11.265625 L 13.429688 11.261719 L 13.429688 4.894531 L 15.699219 4.894531 L 16.546875 5.554688 L 19.933594 5.554688 L 19.933594 4.894531 L 22.269531 4.894531 L 22.269531 8.445312 L 26.445312 8.445312 L 26.445312 4.933594 L 23.574219 1.933594 Z M 12.304688 1.933594 "/>
<path style=" stroke:none;fill-rule:nonzero;fill:rgb(96.078431%,0%,18.039216%);fill-opacity:1;" d="M 21.839844 10.847656 L 21.839844 5.324219 L 20.363281 5.324219 L 20.363281 9.089844 L 15.550781 5.324219 L 13.859375 5.324219 L 13.859375 10.835938 L 15.351562 10.835938 L 15.351562 7.074219 L 20.253906 10.847656 Z M 21.839844 10.847656 "/>
<path style=" stroke:none;fill-rule:nonzero;fill:rgb(96.078431%,0%,18.039216%);fill-opacity:1;" d="M 21.84375 14.558594 L 20.65625 13.703125 L 15.054688 13.703125 L 13.859375 14.554688 L 13.859375 18.984375 L 15.066406 19.875 L 20.679688 19.875 L 21.84375 19.035156 L 21.84375 17.542969 L 20.363281 17.542969 L 20.363281 18.351562 L 15.355469 18.351562 L 15.355469 15.179688 L 20.363281 15.179688 L 20.363281 15.945312 L 21.84375 15.945312 Z M 21.84375 14.558594 "/>
<path style=" stroke:none;fill-rule:nonzero;fill:rgb(100%,100%,100%);fill-opacity:1;" d="M 25.660156 23.523438 C 25.457031 23.523438 25.296875 23.683594 25.296875 23.882812 C 25.296875 24.082031 25.457031 24.246094 25.660156 24.246094 C 25.859375 24.246094 26.023438 24.082031 26.023438 23.882812 C 26.023438 23.683594 25.859375 23.523438 25.660156 23.523438 "/>
<path style=" stroke:none;fill-rule:nonzero;fill:rgb(100%,100%,100%);fill-opacity:1;" d="M 25.714844 23.722656 L 25.589844 23.722656 L 25.589844 23.835938 L 25.714844 23.835938 C 25.746094 23.835938 25.773438 23.8125 25.773438 23.78125 C 25.773438 23.75 25.746094 23.722656 25.714844 23.722656 "/>
<path style=" stroke:none;fill-rule:nonzero;fill:rgb(100%,100%,100%);fill-opacity:1;" d="M 27.734375 9.734375 L 24.613281 9.734375 L 27.734375 12.894531 L 27.734375 20.695312 L 24.109375 24.355469 L 11.769531 24.355469 L 8.144531 20.695312 L 8.144531 15.265625 L 11.523438 15.265625 L 8.144531 11.824219 L 8.144531 4.414062 L 11.753906 0.644531 L 24.125 0.644531 L 27.734375 4.414062 Z M 28.378906 4.152344 L 24.398438 0 L 11.480469 0 L 7.5 4.152344 L 7.5 12.085938 L 9.988281 14.621094 L 7.5 14.621094 L 7.5 20.960938 L 11.5 25 L 24.382812 25 L 25.011719 24.363281 C 25.160156 24.5625 25.402344 24.691406 25.671875 24.691406 C 26.125 24.691406 26.492188 24.328125 26.492188 23.875 C 26.492188 23.601562 26.355469 23.359375 26.152344 23.210938 L 28.378906 20.960938 L 28.378906 12.652344 L 26.179688 10.378906 L 28.378906 10.378906 Z M 28.378906 4.152344 "/>
<path style=" stroke:none;fill-rule:nonzero;fill:rgb(100%,100%,100%);fill-opacity:1;" d="M 20.363281 15.945312 L 20.363281 15.179688 L 15.355469 15.179688 L 15.355469 18.351562 L 20.363281 18.351562 L 20.363281 17.542969 L 21.84375 17.542969 L 21.84375 19.035156 L 20.679688 19.875 L 15.066406 19.875 L 13.859375 18.984375 L 13.859375 14.554688 L 15.054688 13.703125 L 20.65625 13.703125 L 21.84375 14.558594 L 21.84375 15.945312 Z M 21.597656 16.375 L 21.597656 17.113281 L 19.933594 17.113281 L 19.933594 17.921875 L 15.785156 17.921875 L 15.785156 15.609375 L 19.933594 15.609375 L 19.933594 16.375 Z M 17.097656 5.988281 L 19.933594 5.988281 L 19.933594 8.207031 Z M 18.671875 10.167969 L 15.78125 10.167969 L 15.78125 7.945312 Z M 15.351562 7.074219 L 15.351562 10.835938 L 13.859375 10.835938 L 13.859375 5.324219 L 15.550781 5.324219 L 20.363281 9.089844 L 20.363281 5.324219 L 21.839844 5.324219 L 21.839844 10.847656 L 20.253906 10.847656 Z M 26.445312 8.445312 L 22.269531 8.445312 L 22.269531 4.894531 L 19.933594 4.894531 L 19.933594 5.554688 L 16.546875 5.554688 L 15.699219 4.894531 L 13.429688 4.894531 L 13.429688 11.261719 L 15.78125 11.265625 L 15.78125 10.597656 L 19.226562 10.597656 L 20.109375 11.277344 L 22.269531 11.277344 L 22.269531 10.597656 L 23.65625 10.597656 L 26.445312 13.445312 L 26.445312 20.164062 L 23.574219 23.066406 L 12.304688 23.066406 L 9.433594 20.164062 L 9.433594 16.554688 L 13.429688 16.554688 L 13.429688 19.203125 L 14.941406 20.304688 L 20.816406 20.304688 L 22.273438 19.257812 L 22.273438 17.113281 L 22.027344 17.113281 L 22.027344 16.375 L 22.273438 16.375 L 22.273438 14.34375 L 20.796875 13.273438 L 14.917969 13.273438 L 13.589844 14.21875 L 12.304688 14.21875 L 9.433594 11.296875 L 9.433594 4.933594 L 12.304688 1.933594 L 23.574219 1.933594 L 26.445312 4.933594 Z M 12.121094 1.503906 L 9.003906 4.757812 L 9.003906 11.472656 L 12.125 14.652344 L 13.429688 14.652344 L 13.429688 16.125 L 9.003906 16.125 L 9.003906 20.339844 L 12.125 23.496094 L 23.753906 23.496094 L 26.875 20.339844 L 26.875 13.273438 L 23.851562 10.167969 L 22.269531 10.167969 L 22.269531 8.875 L 26.875 8.875 L 26.875 4.757812 L 23.757812 1.503906 Z M 12.121094 1.503906 "/>
</g>
</svg>
