<?xml version="1.0" encoding="UTF-8"?>
<svg xmlns="http://www.w3.org/2000/svg" xmlns:xlink="http://www.w3.org/1999/xlink" width="35pt" height="25pt" viewBox="0 0 35 25" version="1.1">
<g id="surface1">
<path style=" stroke:none;fill-rule:nonzero;fill:rgb(33.72549%,62.745098%,82.745098%);fill-opacity:1;" d="M 21.957031 12.9375 C 21.957031 12.9375 16.136719 6.757812 16.136719 6.757812 C 16.882812 6.675781 17.648438 6.632812 18.4375 6.632812 C 19.664062 6.632812 20.847656 6.75 21.957031 6.960938 C 21.957031 6.960938 21.957031 12.9375 21.957031 12.9375 Z M 18.4375 18.410156 C 17.007812 18.410156 15.636719 18.261719 14.371094 18 C 14.371094 18 14.371094 12.9375 14.371094 12.9375 C 14.371094 12.9375 19.515625 18.378906 19.515625 18.378906 C 19.160156 18.398438 18.800781 18.410156 18.4375 18.410156 M 9.785156 16.308594 C 7.957031 15.234375 6.84375 13.867188 6.84375 12.5 C 6.84375 11.324219 7.667969 10.152344 9.066406 9.167969 C 9.953125 11.933594 10.0625 14.320312 9.785156 16.308594 M 29.59375 13.957031 C 29.136719 14.703125 28.335938 15.445312 27.277344 16.101562 C 26.640625 13.328125 26.6875 10.859375 27.046875 8.789062 C 28.09375 9.402344 28.910156 10.089844 29.421875 10.785156 C 29.421875 10.785156 32.890625 6.992188 32.890625 6.992188 C 31.796875 5.796875 30.355469 4.75 28.660156 3.910156 C 29.339844 2.570312 29.945312 1.835938 29.945312 1.835938 C 29.945312 1.835938 25.152344 0 25.152344 0 C 25.152344 0 23.5625 2.1875 23.5625 2.1875 C 21.960938 1.855469 20.253906 1.679688 18.484375 1.679688 C 16.230469 1.679688 14.082031 1.964844 12.117188 2.488281 C 12.117188 2.488281 10.375 0.640625 10.375 0.640625 C 10.375 0.640625 5.664062 2.394531 5.664062 2.394531 C 6.175781 3.152344 6.632812 3.886719 7.039062 4.605469 C 3.785156 6.582031 1.75 9.386719 1.75 12.5 C 1.75 15.964844 4.265625 19.046875 8.183594 21.027344 C 7.253906 22.648438 6.304688 23.484375 6.304688 23.484375 C 6.304688 23.484375 11.253906 25 11.253906 25 C 11.253906 25 12.816406 22.6875 12.816406 22.6875 C 14.585938 23.097656 16.496094 23.324219 18.484375 23.324219 C 20.300781 23.324219 22.046875 23.132812 23.6875 22.789062 C 23.6875 22.789062 25.550781 24.761719 25.550781 24.761719 C 25.550781 24.761719 29.945312 22.683594 29.945312 22.683594 C 29.597656 22.085938 29.285156 21.496094 29 20.917969 C 30.640625 20.058594 32.027344 19.003906 33.066406 17.808594 C 33.066406 17.808594 29.59375 13.957031 29.59375 13.957031 "/>
</g>
</svg>
