<?xml version="1.0" encoding="UTF-8"?>
<svg xmlns="http://www.w3.org/2000/svg" xmlns:xlink="http://www.w3.org/1999/xlink" width="35pt" height="25pt" viewBox="0 0 35 25" version="1.1">
<g id="surface1">
<path style=" stroke:none;fill-rule:nonzero;fill:rgb(100%,36.862745%,8.627451%);fill-opacity:1;" d="M 9.042969 21.449219 L 9.042969 19.011719 L 9.039062 16.574219 L 15.773438 16.574219 L 15.796875 19.207031 L 20.628906 19.207031 L 20.570312 15.289062 L 12.417969 15.289062 L 10.710938 13.578125 L 9 11.867188 L 9 3.546875 L 10.777344 1.773438 L 12.550781 0 L 23.6875 0 L 27.378906 3.582031 L 27.371094 6.003906 L 27.359375 8.425781 L 20.585938 8.449219 L 20.585938 5.792969 L 15.792969 5.792969 L 15.792969 9.710938 L 23.960938 9.710938 L 25.671875 11.421875 L 27.378906 13.132812 L 27.378906 21.449219 L 25.605469 23.226562 L 23.828125 25 L 12.722656 25 Z M 9.042969 21.449219 "/>
<path style=" stroke:none;fill-rule:nonzero;fill:rgb(0.392157%,14.901961%,45.882353%);fill-opacity:1;" d="M 9.042969 21.449219 L 9.042969 19.011719 L 9.039062 16.574219 L 15.773438 16.574219 L 15.796875 19.207031 L 20.628906 19.207031 L 20.570312 15.289062 L 12.417969 15.289062 L 10.710938 13.578125 L 9 11.867188 L 9 3.546875 L 10.777344 1.773438 L 12.550781 0 L 23.6875 0 L 27.378906 3.582031 L 27.371094 6.003906 L 27.359375 8.425781 L 20.585938 8.449219 L 20.585938 5.792969 L 15.792969 5.792969 L 15.792969 9.710938 L 23.960938 9.710938 L 25.671875 11.421875 L 27.378906 13.132812 L 27.378906 21.449219 L 25.605469 23.226562 L 23.828125 25 L 12.722656 25 Z M 25.320312 22.914062 L 26.988281 21.265625 L 26.988281 13.347656 L 25.367188 11.726562 L 23.742188 10.105469 L 15.359375 10.105469 L 15.359375 5.355469 L 21 5.378906 L 21.011719 6.695312 L 21.023438 8.015625 L 26.945312 8.015625 L 26.945312 3.757812 L 23.527344 0.433594 L 12.722656 0.433594 L 9.433594 3.722656 L 9.433594 11.695312 L 11.035156 13.292969 L 12.636719 14.894531 L 21.019531 14.917969 L 21.027344 17.269531 L 21.03125 19.621094 L 15.359375 19.644531 L 15.347656 18.324219 L 15.335938 17.007812 L 9.457031 17.007812 L 9.445312 19.125 L 9.433594 21.238281 L 12.855469 24.558594 L 18.253906 24.558594 L 23.65625 24.5625 Z M 25.320312 22.914062 "/>
</g>
</svg>
