<?xml version="1.0" encoding="UTF-8"?>
<svg xmlns="http://www.w3.org/2000/svg" xmlns:xlink="http://www.w3.org/1999/xlink" width="35pt" height="25pt" viewBox="0 0 35 25" version="1.1">
<g id="surface1">
<path style=" stroke:none;fill-rule:nonzero;fill:rgb(100%,40%,0%);fill-opacity:1;" d="M 0 4.585938 L 6.105469 4.585938 L 8.914062 9.710938 L 11.691406 4.585938 L 35 4.585938 L 32.273438 9.886719 L 26.441406 9.886719 L 20.550781 20.988281 L 14.289062 20.988281 L 20.179688 9.886719 L 15.089844 9.886719 L 8.914062 21.25 Z M 0 4.585938 "/>
<path style=" stroke:none;fill-rule:nonzero;fill:rgb(100%,100%,100%);fill-opacity:1;" d="M 0.726562 5.046875 L 5.90625 5.046875 L 8.929688 10.597656 L 11.953125 5.046875 L 34.246094 5.046875 L 32.074219 9.4375 L 26.207031 9.4375 L 20.3125 20.539062 L 15.046875 20.539062 L 20.941406 9.4375 L 14.835938 9.4375 L 8.964844 20.269531 Z M 0.726562 5.046875 "/>
<path style=" stroke:none;fill-rule:nonzero;fill:rgb(40%,0%,0%);fill-opacity:1;" d="M 1.394531 5.332031 L 5.679688 5.332031 L 8.886719 11.296875 L 12.136719 5.355469 L 33.605469 5.355469 L 31.683594 9.082031 L 25.851562 9.082031 L 19.957031 20.183594 L 15.617188 20.183594 L 21.507812 9.082031 L 14.609375 9.082031 L 8.929688 19.449219 Z M 1.394531 5.332031 "/>
</g>
</svg>
