<?xml version="1.0" encoding="UTF-8"?>
<svg xmlns="http://www.w3.org/2000/svg" xmlns:xlink="http://www.w3.org/1999/xlink" width="35pt" height="25pt" viewBox="0 0 35 25" version="1.1">
<g id="surface1">
<path style=" stroke:none;fill-rule:evenodd;fill:rgb(100%,100%,100%);fill-opacity:1;" d="M 21.164062 1.277344 C 21.164062 1.277344 22.28125 2.136719 21.722656 3.257812 C 21.164062 4.378906 17.5 11.011719 17.5 11.011719 C 17.5 11.011719 13.835938 4.378906 13.277344 3.257812 C 12.71875 2.136719 13.835938 1.277344 13.835938 1.277344 C 13.835938 1.277344 9.226562 1.277344 9.226562 1.277344 C 9.226562 1.277344 10.175781 2.007812 10.777344 3 C 11.382812 3.988281 17.5 16.050781 17.5 16.050781 C 17.5 16.050781 23.617188 3.988281 24.222656 3 C 24.824219 2.007812 25.773438 1.277344 25.773438 1.277344 C 25.773438 1.277344 21.164062 1.277344 21.164062 1.277344 Z M 21.164062 1.277344 "/>
<path style=" stroke:none;fill-rule:nonzero;fill:rgb(95.294118%,38.823529%,16.470588%);fill-opacity:1;" d="M 29.050781 22.125 C 28.953125 22.398438 28.910156 22.679688 28.488281 22.933594 C 27.839844 23.324219 26.859375 23.097656 26.4375 22.902344 C 26.019531 22.707031 25.558594 22.28125 25.496094 21.777344 C 25.496094 21.777344 29.050781 22.125 29.050781 22.125 Z M 8.5625 22.902344 C 8.140625 23.097656 7.160156 23.324219 6.511719 22.933594 C 6.089844 22.679688 6.046875 22.398438 5.949219 22.125 C 5.949219 22.125 9.503906 21.777344 9.503906 21.777344 C 9.441406 22.28125 8.980469 22.707031 8.5625 22.902344 Z M 30.355469 14.101562 C 28.519531 15.253906 26.679688 16.292969 24.707031 17.125 C 24.550781 17.195312 22.710938 17.875 21.941406 18.132812 C 20.085938 18.773438 18.992188 18.933594 17.5 19.296875 C 16.007812 18.933594 14.914062 18.773438 13.058594 18.132812 C 12.289062 17.875 10.449219 17.195312 10.292969 17.125 C 8.320312 16.292969 6.480469 15.253906 4.644531 14.101562 C 3.0625 13.054688 0 10.605469 0 10.605469 C 0.0976562 10.957031 0.355469 11.234375 0.554688 11.53125 C 1.246094 12.429688 2.421875 13.421875 3.308594 14.140625 C 4.230469 14.902344 7.863281 16.992188 9.609375 17.792969 C 11.363281 18.632812 15.175781 19.78125 15.210938 19.800781 C 15.164062 19.859375 12.804688 20.324219 11.707031 20.484375 C 11.363281 20.542969 11.003906 20.5625 10.675781 20.582031 C 10.589844 20.371094 10.453125 20.074219 10.195312 20.074219 C 9.9375 20.074219 9.859375 20.578125 9.871094 20.726562 C 9.871094 20.726562 9.820312 20.765625 9.820312 20.765625 C 8.339844 20.964844 6.808594 21.097656 5.296875 21.183594 C 5.007812 20.949219 4.863281 20.867188 4.457031 20.917969 C 4.046875 20.96875 3.90625 21.269531 3.929688 21.527344 C 3.960938 21.882812 4.257812 22.359375 4.546875 22.359375 C 4.9375 22.359375 5.148438 22.113281 5.246094 22.328125 C 5.460938 22.949219 5.910156 23.5625 6.507812 23.96875 C 7.472656 24.625 8.4375 24.632812 9.40625 24.214844 C 10.375 23.792969 10.667969 22.824219 10.730469 22.339844 C 10.757812 22.148438 10.769531 21.65625 10.769531 21.65625 C 12.148438 21.480469 17.5 20.351562 17.5 20.351562 C 17.5 20.351562 22.851562 21.480469 24.230469 21.65625 C 24.230469 21.65625 24.242188 22.148438 24.269531 22.339844 C 24.332031 22.824219 24.625 23.792969 25.59375 24.214844 C 26.5625 24.632812 27.527344 24.625 28.492188 23.96875 C 29.089844 23.5625 29.539062 22.949219 29.753906 22.328125 C 29.851562 22.113281 30.0625 22.359375 30.453125 22.359375 C 30.742188 22.359375 31.039062 21.882812 31.070312 21.527344 C 31.09375 21.269531 30.953125 20.96875 30.542969 20.917969 C 30.136719 20.867188 29.992188 20.949219 29.703125 21.183594 C 28.191406 21.097656 26.660156 20.964844 25.179688 20.765625 C 25.179688 20.765625 25.128906 20.726562 25.128906 20.726562 C 25.140625 20.578125 25.0625 20.074219 24.804688 20.074219 C 24.546875 20.074219 24.410156 20.371094 24.324219 20.582031 C 23.996094 20.5625 23.636719 20.542969 23.292969 20.484375 C 22.195312 20.324219 19.835938 19.859375 19.789062 19.800781 C 19.824219 19.78125 23.636719 18.632812 25.390625 17.792969 C 27.136719 16.992188 30.769531 14.902344 31.691406 14.140625 C 32.578125 13.421875 33.753906 12.429688 34.445312 11.53125 C 34.644531 11.234375 34.902344 10.957031 35 10.605469 C 35 10.605469 31.9375 13.054688 30.355469 14.101562 Z M 30.355469 14.101562 "/>
<path style=" stroke:none;fill-rule:nonzero;fill:rgb(95.294118%,38.823529%,16.470588%);fill-opacity:1;" d="M 13.835938 1.277344 C 13.835938 1.277344 12.71875 2.136719 13.277344 3.257812 C 13.835938 4.378906 17.5 11.011719 17.5 11.011719 C 17.5 11.011719 21.164062 4.378906 21.722656 3.257812 C 22.28125 2.136719 21.164062 1.277344 21.164062 1.277344 C 21.164062 1.277344 25.773438 1.277344 25.773438 1.277344 C 25.773438 1.277344 24.824219 2.007812 24.222656 3 C 23.617188 3.988281 17.5 16.050781 17.5 16.050781 C 17.5 16.050781 11.382812 3.988281 10.777344 3 C 10.175781 2.007812 9.226562 1.277344 9.226562 1.277344 C 9.226562 1.277344 13.835938 1.277344 13.835938 1.277344 Z M 7.597656 0.898438 C 7.597656 0.898438 8.0625 1.261719 8.0625 1.261719 C 8.34375 1.480469 8.804688 1.964844 9.082031 2.183594 C 9.082031 2.183594 9.4375 2.464844 9.96875 3.335938 C 10.4375 4.101562 17.394531 17.398438 17.5 17.398438 C 17.605469 17.398438 24.5625 4.101562 25.03125 3.335938 C 25.5625 2.464844 25.917969 2.183594 25.917969 2.183594 C 26.195312 1.964844 26.65625 1.480469 26.9375 1.261719 C 26.9375 1.261719 27.402344 0.898438 27.402344 0.898438 C 27.683594 0.679688 27.621094 0.628906 27.265625 0.628906 C 27.265625 0.628906 19.714844 0.628906 19.714844 0.628906 C 19.359375 0.628906 19.363281 0.742188 19.644531 0.957031 C 19.644531 0.957031 19.996094 1.199219 20.257812 1.371094 C 20.515625 1.542969 21.09375 2.007812 21.136719 2.265625 C 21.179688 2.523438 21.085938 2.851562 20.90625 3.207031 C 20.492188 4.035156 17.597656 9.316406 17.5 9.335938 C 17.402344 9.316406 14.507812 4.035156 14.09375 3.207031 C 13.914062 2.851562 13.820312 2.523438 13.863281 2.265625 C 13.90625 2.007812 14.484375 1.542969 14.742188 1.371094 C 15.003906 1.199219 15.355469 0.957031 15.355469 0.957031 C 15.636719 0.742188 15.640625 0.628906 15.285156 0.628906 C 15.285156 0.628906 7.734375 0.628906 7.734375 0.628906 C 7.378906 0.628906 7.316406 0.679688 7.597656 0.898438 Z M 7.597656 0.898438 "/>
<path style=" stroke:none;fill-rule:nonzero;fill:rgb(95.294118%,38.823529%,16.470588%);fill-opacity:1;" d="M 31.386719 24.308594 C 31.007812 24.308594 30.703125 24 30.703125 23.621094 C 30.703125 23.242188 31.007812 22.9375 31.386719 22.9375 C 31.765625 22.9375 32.074219 23.242188 32.074219 23.621094 C 32.074219 24 31.765625 24.308594 31.386719 24.308594 Z M 31.386719 22.75 C 30.90625 22.75 30.515625 23.140625 30.515625 23.621094 C 30.515625 24.105469 30.90625 24.496094 31.386719 24.496094 C 31.871094 24.496094 32.257812 24.105469 32.257812 23.621094 C 32.257812 23.140625 31.871094 22.75 31.386719 22.75 Z M 31.386719 22.75 "/>
<path style=" stroke:none;fill-rule:nonzero;fill:rgb(95.294118%,38.823529%,16.470588%);fill-opacity:1;" d="M 31.449219 23.527344 C 31.449219 23.527344 31.214844 23.527344 31.214844 23.527344 C 31.214844 23.527344 31.214844 23.3125 31.214844 23.3125 C 31.214844 23.3125 31.449219 23.3125 31.449219 23.3125 C 31.511719 23.3125 31.558594 23.359375 31.558594 23.421875 C 31.558594 23.480469 31.511719 23.527344 31.449219 23.527344 Z M 31.746094 23.421875 C 31.746094 23.257812 31.613281 23.125 31.449219 23.125 C 31.449219 23.125 31.03125 23.125 31.03125 23.125 C 31.03125 23.125 31.03125 24.121094 31.03125 24.121094 C 31.03125 24.121094 31.214844 24.121094 31.214844 24.121094 C 31.214844 24.121094 31.214844 23.714844 31.214844 23.714844 C 31.214844 23.714844 31.351562 23.714844 31.351562 23.714844 C 31.351562 23.714844 31.539062 24.121094 31.539062 24.121094 C 31.539062 24.121094 31.746094 24.121094 31.746094 24.121094 C 31.746094 24.121094 31.550781 23.699219 31.550781 23.699219 C 31.664062 23.65625 31.746094 23.546875 31.746094 23.421875 Z M 31.746094 23.421875 "/>
</g>
</svg>
