<?xml version="1.0" encoding="UTF-8"?>
<svg xmlns="http://www.w3.org/2000/svg" xmlns:xlink="http://www.w3.org/1999/xlink" width="35pt" height="25pt" viewBox="0 0 35 25" version="1.1">
<g id="surface1">
<path style=" stroke:none;fill-rule:nonzero;fill:rgb(100%,100%,100%);fill-opacity:1;" d="M 20.738281 5.085938 C 20.902344 4.546875 21.09375 3.921875 21.09375 3.921875 C 21.257812 3.414062 21.34375 3.355469 21.453125 3.285156 L 21.527344 3.234375 C 21.621094 3.171875 21.960938 3.019531 22.226562 2.917969 L 22.550781 2.789062 L 22.570312 0.0351562 L 0 0.0351562 L 0 3.214844 C 0 3.214844 0.917969 3.214844 1.144531 3.214844 C 1.199219 3.300781 1.292969 3.472656 1.433594 3.832031 C 1.433594 3.832031 1.4375 3.851562 1.445312 3.867188 C 1.457031 3.910156 6.035156 19.621094 6.035156 19.621094 L 8.808594 19.621094 C 8.808594 19.621094 10.441406 14.3125 11.105469 12.152344 C 11.734375 14.316406 13.285156 19.605469 13.285156 19.605469 L 16.09375 19.605469 C 16.09375 19.605469 19.285156 9.617188 19.585938 8.671875 C 19.648438 8.785156 19.6875 8.972656 19.6875 9.300781 C 19.6875 9.300781 19.6875 20.960938 19.6875 21.265625 C 19.070312 21.265625 17.1875 21.269531 17.1875 21.269531 L 17.160156 24.5 L 28.714844 24.5 L 28.714844 21.265625 C 28.714844 21.265625 26.496094 21.265625 26.019531 21.265625 C 26.019531 20.859375 26.007812 17.253906 26.003906 16.414062 C 26.667969 16.601562 27.835938 17.484375 27.949219 18.738281 L 28.0625 20.007812 L 30.914062 20.007812 C 30.914062 20.007812 30.914062 10.304688 30.914062 10.160156 C 31.90625 11.121094 32.019531 12.011719 32.070312 12.476562 C 32.070312 12.480469 32.222656 13.785156 32.222656 13.785156 L 35 13.78125 L 35 5.085938 C 35 5.085938 21.992188 5.085938 20.738281 5.085938 Z M 8.777344 8.890625 C 8.652344 8.484375 8.503906 8.011719 8.503906 8.011719 C 7.816406 5.820312 7.109375 3.558594 7.023438 3.242188 C 7.132812 3.21875 7.300781 3.191406 7.613281 3.183594 C 7.878906 3.179688 8.710938 3.375 8.859375 3.785156 C 8.878906 3.855469 9.472656 6.226562 9.535156 6.476562 C 9.5 6.585938 9.109375 7.832031 8.777344 8.890625 Z M 17.210938 3.992188 C 17.210938 3.984375 16.472656 6.621094 15.957031 8.472656 C 15.425781 6.550781 14.59375 3.535156 14.59375 3.535156 C 14.59375 3.535156 14.589844 3.515625 14.585938 3.507812 C 14.585938 3.507812 14.574219 3.375 14.574219 3.375 L 14.570312 3.328125 C 14.570312 3.324219 14.570312 3.316406 14.570312 3.3125 C 14.570312 3.210938 14.632812 3.128906 14.695312 3.113281 C 14.761719 3.105469 15.058594 3.089844 15.285156 3.085938 C 15.285156 3.085938 15.328125 3.085938 15.339844 3.085938 C 15.476562 3.097656 16.335938 3.171875 16.335938 3.171875 C 16.613281 3.203125 17.242188 3.464844 17.308594 3.628906 C 17.300781 3.644531 17.210938 3.992188 17.210938 3.992188 Z M 28.1875 9.941406 L 27.96875 11.066406 C 27.707031 12.417969 26.714844 13.113281 25.996094 13.238281 C 25.996094 12.398438 25.984375 9.109375 25.984375 9.109375 C 25.984375 8.503906 26.132812 8.503906 26.402344 8.503906 L 27.765625 8.503906 C 28.207031 8.503906 29.105469 8.78125 30.195312 9.5625 C 30.375 9.6875 30.527344 9.816406 30.675781 9.941406 C 30.539062 9.941406 28.1875 9.941406 28.1875 9.941406 Z M 28.1875 9.941406 "/>
<path style=" stroke:none;fill-rule:nonzero;fill:rgb(0%,0%,0%);fill-opacity:1;" d="M 20.042969 5.597656 L 20.605469 3.769531 C 20.847656 3.003906 21.035156 2.957031 21.234375 2.816406 C 21.4375 2.671875 22.042969 2.4375 22.042969 2.4375 L 22.054688 0.546875 L 15.660156 0.546875 L 15.660156 2.597656 C 15.660156 2.597656 16.109375 2.636719 16.390625 2.664062 C 16.671875 2.695312 17.96875 3.054688 17.804688 3.742188 C 17.78125 3.851562 17.75 3.945312 17.707031 4.117188 C 17.691406 4.167969 16.464844 8.394531 15.894531 10.445312 C 15.308594 8.332031 14.101562 3.675781 14.101562 3.675781 L 14.097656 3.65625 C 14.070312 3.578125 14.066406 3.46875 14.058594 3.363281 C 14.035156 3.007812 14.269531 2.683594 14.585938 2.613281 C 14.71875 2.585938 15.277344 2.574219 15.277344 2.574219 L 15.277344 0.546875 L 0.511719 0.546875 L 0.511719 2.703125 L 1.332031 2.703125 C 1.425781 2.703125 1.625 2.910156 1.910156 3.648438 C 1.910156 3.648438 1.917969 3.675781 1.929688 3.699219 C 1.949219 3.773438 6.417969 19.109375 6.417969 19.109375 L 8.429688 19.109375 C 8.429688 19.109375 10.164062 13.492188 11.117188 10.371094 C 12.023438 13.492188 13.667969 19.09375 13.667969 19.09375 L 15.722656 19.09375 L 19.265625 7.992188 L 19.273438 7.992188 C 19.527344 7.992188 20.199219 7.992188 20.199219 9.300781 L 20.199219 21.425781 C 20.199219 21.597656 20.179688 21.710938 20.164062 21.78125 C 19.808594 21.78125 17.695312 21.78125 17.695312 21.78125 L 17.675781 23.988281 L 28.203125 23.988281 L 28.203125 21.78125 L 25.707031 21.78125 C 25.585938 21.78125 25.542969 21.761719 25.53125 21.753906 C 25.519531 21.734375 25.507812 21.6875 25.507812 21.628906 C 25.507812 21.628906 25.496094 17.664062 25.492188 15.863281 C 25.59375 15.863281 25.769531 15.863281 25.769531 15.863281 C 26.625 15.863281 28.308594 17.03125 28.457031 18.695312 L 28.53125 19.496094 L 30.402344 19.496094 L 30.402344 10.453125 L 28.609375 10.453125 L 28.472656 11.164062 C 28.121094 12.964844 26.679688 13.777344 25.769531 13.777344 C 25.769531 13.777344 25.59375 13.777344 25.488281 13.777344 C 25.484375 12.535156 25.472656 9.113281 25.472656 9.113281 C 25.472656 8.328125 25.75 7.992188 26.402344 7.992188 L 27.765625 7.992188 C 28.308594 7.992188 29.308594 8.296875 30.492188 9.148438 C 32.359375 10.453125 32.515625 11.832031 32.582031 12.421875 L 32.679688 13.273438 L 34.488281 13.269531 L 34.488281 5.597656 Z M 8.777344 10.601562 C 7.867188 7.6875 6.628906 3.742188 6.523438 3.359375 C 6.421875 2.976562 6.628906 2.863281 6.625 2.847656 C 6.785156 2.765625 6.984375 2.691406 7.601562 2.671875 C 7.929688 2.664062 9.089844 2.875 9.347656 3.625 C 9.363281 3.691406 9.964844 6.085938 10.066406 6.492188 C 9.980469 6.757812 9.386719 8.660156 8.777344 10.601562 Z M 8.777344 10.601562 "/>
<path style="fill-rule:nonzero;fill:rgb(61.960784%,49.411765%,21.960784%);fill-opacity:1;stroke-width:1.307368;stroke-linecap:butt;stroke-linejoin:miter;stroke:rgb(61.960784%,49.411765%,21.960784%);stroke-opacity:1;stroke-miterlimit:4;" d="M 158.125 51.374995 L 156.3125 57.031245 C 166.5 58.187495 168.65625 67.781245 168.65625 74.406245 L 168.65625 171.406245 C 168.65625 176.343745 167.1875 181.281245 162.09375 181.281245 C 162.09375 181.281245 153.03125 181.374995 148.46875 181.281245 L 148.46875 185.343745 L 218.59375 185.343745 L 218.59375 181.281245 L 205.65625 181.281245 C 197.8125 181.281245 197.03125 175.281245 197.03125 173.031245 L 196.875 119.843745 L 206.15625 119.843745 C 217.09375 119.843745 233.1875 132.281245 234.6875 148.906245 L 236.1875 148.906245 L 236.1875 90.656245 L 234.6875 90.656245 C 231.28125 108.124995 217.09375 117.249995 206.15625 117.249995 L 196.875 117.249995 L 196.75 72.906245 C 196.75 59.968745 204.9375 56.906245 211.21875 56.906245 L 222.125 56.906245 C 228.125 56.906245 237.40625 59.812495 248.0625 67.468745 C 266.15625 80.124995 267.15625 94.468745 267.6875 99.124995 L 269.34375 99.124995 L 269.34375 51.374995 Z M 158.125 51.374995 " transform="matrix(0.125,0,0,0.125,0,0.000000625)"/>
<path style="fill-rule:nonzero;fill:rgb(61.960784%,49.411765%,21.960784%);fill-opacity:1;stroke-width:1.307368;stroke-linecap:butt;stroke-linejoin:miter;stroke:rgb(61.960784%,49.411765%,21.960784%);stroke-opacity:1;stroke-miterlimit:4;" d="M 132.3125 10.468745 L 132.3125 15.249995 C 136.34375 15.999995 142.15625 18.093745 145.59375 21.156245 C 149.5 24.281245 149.84375 28.249995 148.78125 32.843745 L 126.28125 108.406245 L 106.0625 31.406245 C 104.96875 27.937495 105.125 21.187495 108.25 18.499995 C 109.9375 17.437495 112.09375 16.124995 115.65625 15.312495 L 115.65625 10.468745 L 68.03125 10.468745 L 68.03125 15.781245 C 73.125 16.593745 79.125 19.062495 81.53125 26.999995 L 87.84375 52.156245 L 70.21875 108.437495 L 44.59375 26.374995 C 43.65625 22.749995 45.03125 19.812495 46.8125 18.499995 C 48.40625 17.312495 51.09375 16.249995 54.625 15.687495 L 54.625 10.468745 L 10.65625 10.468745 L 10.65625 15.343745 C 18.03125 15.343745 21.03125 24.624995 22.125 27.343745 L 56.625 146.312495 L 62.21875 146.312495 L 89.09375 58.312495 L 114.625 146.187495 L 120.625 146.187495 L 158.15625 28.031245 C 161.8125 16.437495 167.8125 15.468745 169.875 15.468745 L 169.875 10.468745 Z M 132.3125 10.468745 " transform="matrix(0.125,0,0,0.125,0,0.000000625)"/>
</g>
</svg>
