<?xml version="1.0" encoding="UTF-8"?>
<svg xmlns="http://www.w3.org/2000/svg" xmlns:xlink="http://www.w3.org/1999/xlink" width="35pt" height="25pt" viewBox="0 0 35 25" version="1.1">
<g id="surface1">
<path style=" stroke:none;fill-rule:nonzero;fill:rgb(100%,100%,100%);fill-opacity:1;" d="M 21.210938 16.644531 C 21.210938 16.644531 18.847656 17.910156 19.050781 14.628906 L 19.152344 13.308594 L 17.535156 13.5625 C 16.914062 14.820312 15.761719 16.941406 14.058594 16.90625 C 12.46875 17.007812 11.738281 15.335938 12.496094 14.5 C 12.804688 14.128906 13.074219 14.304688 12.890625 14.554688 C 12.597656 15.046875 13.167969 15.875 13.65625 15.976562 C 15.113281 16.316406 15.828125 14.605469 16.421875 13.558594 C 15.824219 13.515625 15.628906 12.800781 15.800781 12.375 C 15.941406 11.972656 16.3125 11.867188 16.3125 11.867188 C 16.214844 12.058594 16.289062 12.753906 16.847656 12.644531 C 17.550781 11.453125 18.332031 10.304688 19.21875 9.195312 C 18.359375 9.085938 16.949219 9.300781 16.867188 8.214844 C 16.867188 7.964844 17.003906 7.675781 17.25 7.65625 C 17.097656 8.664062 19.296875 8.492188 19.65625 8.40625 C 20.046875 8.347656 20.519531 7.984375 20.992188 7.625 L 21.683594 7.957031 C 20.988281 9.1875 20.660156 10.683594 20.359375 12.085938 C 20.359375 12.085938 21.601562 11.773438 21.351562 12.960938 C 21.304688 13.191406 21.042969 13.410156 20.898438 13.480469 C 20.898438 12.988281 20.519531 13.125 20.234375 13.1875 C 20.210938 13.296875 20.175781 13.667969 20.167969 13.78125 C 20.140625 14.09375 20.097656 14.910156 20.171875 15.492188 C 20.238281 16.011719 20.867188 16.101562 21.699219 15.671875 C 21.777344 15.628906 21.855469 15.574219 21.875 15.71875 C 21.882812 16.136719 21.539062 16.496094 21.210938 16.644531 M 17.5 5 C 13.359375 5 10 8.359375 10 12.5 C 10 16.640625 13.359375 19.996094 17.5 19.996094 C 21.640625 19.996094 25 16.640625 25 12.5 C 25 8.359375 21.640625 5 17.5 5 "/>
<path style=" stroke:none;fill-rule:nonzero;fill:rgb(0%,0%,0%);fill-opacity:1;" d="M 17.5 24.492188 C 10.886719 24.492188 5.507812 19.113281 5.507812 12.5 C 5.507812 5.886719 10.886719 0.507812 17.5 0.507812 C 24.113281 0.507812 29.492188 5.886719 29.492188 12.5 C 29.488281 19.113281 24.113281 24.492188 17.5 24.492188 M 17.5 0 C 10.605469 0 5 5.609375 5 12.5 C 5 19.390625 10.605469 25 17.5 25 C 24.390625 25 30 19.390625 30 12.5 C 30 5.609375 24.390625 0 17.5 0 "/>
<path style=" stroke:none;fill-rule:nonzero;fill:rgb(56.862745%,0%,16.470588%);fill-opacity:1;" d="M 27.082031 16.269531 L 27.125 16.132812 L 25.730469 15.703125 L 25.6875 15.839844 L 25.199219 15.691406 L 25.644531 14.238281 L 26.390625 14.46875 L 26.253906 14.921875 L 25.996094 14.84375 L 25.898438 15.15625 L 26.34375 15.292969 L 26.480469 14.871094 L 26.917969 15.003906 L 26.789062 15.429688 L 27.292969 15.585938 L 27.390625 15.273438 L 27.078125 15.175781 L 27.226562 14.6875 L 28.03125 14.9375 L 27.578125 16.417969 Z M 26.941406 17.71875 L 26.257812 18.835938 L 25.824219 18.570312 L 25.894531 18.445312 L 24.652344 17.679688 L 24.574219 17.808594 L 24.132812 17.535156 L 24.824219 16.425781 C 24.917969 16.277344 25.167969 16.292969 25.335938 16.394531 L 26.796875 17.296875 C 26.953125 17.394531 27.023438 17.585938 26.941406 17.71875 M 24.984375 20.273438 L 24.617188 19.917969 L 24.707031 19.824219 L 23.652344 18.816406 L 23.550781 18.921875 L 23.175781 18.5625 L 23.769531 17.945312 L 24.144531 18.304688 L 24.050781 18.402344 L 25.097656 19.410156 L 25.195312 19.304688 L 25.566406 19.664062 Z M 23.070312 21.742188 L 22.789062 21.308594 L 22.890625 21.242188 L 22.089844 20.023438 L 21.921875 20.132812 L 22.140625 20.464844 L 21.789062 20.695312 L 21.289062 19.9375 L 22.804688 18.9375 L 23.308594 19.703125 L 22.960938 19.929688 L 22.742188 19.59375 L 22.574219 19.703125 L 23.375 20.921875 L 23.492188 20.847656 L 23.773438 21.277344 Z M 20.324219 22.902344 L 19.488281 21.804688 L 19.789062 23.039062 L 19.117188 23.203125 L 18.996094 22.703125 L 19.140625 22.667969 L 18.796875 21.25 L 18.648438 21.285156 L 18.527344 20.78125 L 19.195312 20.617188 L 20.023438 21.699219 L 19.730469 20.496094 L 20.394531 20.332031 L 20.515625 20.828125 L 20.386719 20.871094 L 20.851562 22.78125 Z M 17.972656 22.84375 C 17.96875 23.0625 17.847656 23.292969 17.664062 23.289062 L 16.832031 23.269531 C 16.667969 23.265625 16.523438 23.109375 16.527344 22.910156 L 16.566406 21.136719 C 16.574219 20.914062 16.773438 20.777344 16.9375 20.78125 L 17.703125 20.800781 C 17.878906 20.804688 18.015625 20.972656 18.011719 21.179688 Z M 15.800781 21.390625 L 15.316406 21.261719 L 15.371094 21.050781 L 15.054688 20.964844 L 14.933594 21.421875 L 15.496094 21.570312 C 15.675781 21.621094 15.75 21.855469 15.691406 22.074219 L 15.519531 22.710938 C 15.460938 22.921875 15.265625 23.066406 15.09375 23.019531 L 14.027344 22.734375 L 14.226562 21.992188 L 14.757812 22.136719 L 14.691406 22.371094 L 14.996094 22.449219 L 15.128906 21.960938 L 14.589844 21.816406 C 14.390625 21.761719 14.3125 21.503906 14.378906 21.265625 L 14.53125 20.695312 C 14.589844 20.46875 14.816406 20.371094 15 20.417969 L 15.988281 20.683594 Z M 13.714844 20.527344 L 12.953125 21.753906 L 13.078125 21.828125 L 12.800781 22.273438 L 12.222656 21.914062 L 12.929688 20.777344 L 12.003906 21.378906 C 12.027344 21.015625 12.050781 20.640625 12.074219 20.28125 L 11.382812 21.390625 L 10.800781 21.03125 L 11.066406 20.597656 L 11.1875 20.664062 L 11.957031 19.425781 L 11.835938 19.347656 L 12.109375 18.90625 L 12.6875 19.265625 L 12.558594 20.445312 L 13.542969 19.796875 L 14.105469 20.148438 L 13.828125 20.589844 Z M 9.972656 20.230469 L 9.390625 19.617188 L 9.757812 19.265625 L 9.847656 19.359375 L 10.90625 18.355469 L 10.804688 18.246094 L 11.179688 17.890625 L 11.773438 18.511719 L 11.394531 18.871094 L 11.300781 18.769531 L 10.25 19.769531 L 10.347656 19.875 Z M 9.355469 18.167969 L 9.050781 18.363281 L 9.117188 18.488281 L 8.675781 18.753906 L 8.390625 18.277344 C 8.339844 18.1875 8.421875 18.078125 8.515625 18.023438 L 9.179688 17.628906 L 9.011719 17.347656 L 8.144531 17.863281 L 7.777344 17.242188 L 8.214844 16.984375 L 8.292969 17.101562 L 9.539062 16.359375 L 9.472656 16.234375 L 9.921875 15.96875 L 10.550781 17.03125 C 10.65625 17.207031 10.5625 17.476562 10.339844 17.597656 L 9.976562 17.796875 C 9.8125 17.886719 9.652344 17.824219 9.527344 17.75 C 9.5625 17.914062 9.515625 18.066406 9.355469 18.167969 M 7.054688 15.167969 C 6.992188 14.960938 7.226562 14.769531 7.480469 14.695312 L 8.953125 14.265625 C 9.164062 14.203125 9.390625 14.296875 9.441406 14.472656 L 9.734375 15.480469 L 8.964844 15.707031 L 8.824219 15.230469 L 9.105469 15.152344 L 9.015625 14.84375 L 7.617188 15.253906 L 7.707031 15.558594 L 8.082031 15.449219 L 8.226562 15.949219 L 7.347656 16.207031 Z M 7.558594 8.445312 L 9.507812 8.726562 L 9.5625 8.566406 L 10.050781 8.738281 L 9.785156 9.492188 L 9.195312 9.355469 L 9.054688 9.757812 L 9.59375 10.035156 L 9.320312 10.808594 L 8.84375 10.636719 L 8.902344 10.46875 L 7.1875 9.496094 Z M 9.605469 5.234375 L 9.984375 5.578125 L 9.871094 5.699219 L 10.933594 6.65625 L 11.140625 6.429688 L 10.824219 6.144531 L 11.265625 5.652344 L 11.964844 6.28125 L 10.730469 7.652344 L 10.347656 7.304688 L 10.464844 7.179688 L 9.394531 6.21875 L 9.277344 6.351562 L 8.902344 6.015625 Z M 17.5 5 C 21.640625 5 25 8.359375 25 12.5 C 25 16.640625 21.640625 19.996094 17.5 19.996094 C 13.359375 19.996094 10 16.640625 10 12.5 C 10 8.359375 13.359375 5 17.5 5 M 13.363281 2.59375 L 14.535156 4.171875 L 14.691406 4.097656 L 14.914062 4.5625 L 14.191406 4.910156 L 13.871094 4.398438 L 13.488281 4.582031 L 13.671875 5.15625 L 12.933594 5.507812 L 12.714844 5.050781 L 12.878906 4.972656 L 12.355469 3.074219 Z M 17.597656 1.769531 C 17.941406 1.75 18 2.28125 17.988281 2.570312 C 17.957031 2.765625 17.832031 2.914062 17.636719 2.949219 C 17.816406 2.980469 17.960938 3.089844 18.011719 3.253906 L 18.042969 3.761719 C 18.046875 3.960938 17.960938 4.1875 17.761719 4.199219 L 16.132812 4.28125 L 16.109375 3.78125 L 16.289062 3.765625 L 16.222656 2.328125 L 16.039062 2.332031 L 16.019531 1.855469 Z M 19.496094 3.875 L 19.667969 3.9375 L 20.664062 2.238281 L 21.710938 2.621094 L 21.398438 4.566406 L 21.554688 4.625 L 21.378906 5.109375 L 20.628906 4.832031 L 20.773438 4.246094 L 20.375 4.101562 L 20.089844 4.632812 L 19.320312 4.351562 Z M 22.800781 5.363281 L 22.917969 5.476562 L 23.949219 4.472656 L 23.832031 4.351562 L 24.199219 3.996094 L 24.761719 4.574219 L 24.433594 5.75 L 25.597656 5.4375 L 26.148438 6.003906 L 25.78125 6.359375 L 25.667969 6.253906 L 24.648438 7.246094 L 24.769531 7.371094 L 24.398438 7.730469 L 23.832031 7.144531 L 24.777344 6.226562 L 23.683594 6.511719 C 23.765625 6.144531 23.851562 5.765625 23.9375 5.402344 L 23.011719 6.300781 L 22.441406 5.710938 Z M 27.851562 9.644531 L 26.132812 10.609375 L 26.1875 10.769531 L 25.699219 10.933594 L 25.449219 10.171875 L 25.996094 9.921875 L 25.863281 9.519531 L 25.265625 9.625 L 25.011719 8.847656 L 25.492188 8.691406 L 25.550781 8.863281 L 27.5 8.585938 Z M 17.5 1.019531 C 11.160156 1.019531 6.019531 6.160156 6.019531 12.5 C 6.019531 18.839844 11.160156 23.980469 17.5 23.980469 C 23.839844 23.980469 28.980469 18.839844 28.980469 12.5 C 28.980469 6.160156 23.839844 1.019531 17.5 1.019531 "/>
<path style=" stroke:none;fill-rule:nonzero;fill:rgb(100%,100%,100%);fill-opacity:1;" d="M 17.5 23.980469 C 11.160156 23.980469 6.019531 18.839844 6.019531 12.5 C 6.019531 6.160156 11.160156 1.019531 17.5 1.019531 C 23.839844 1.019531 28.980469 6.160156 28.980469 12.5 C 28.980469 18.839844 23.839844 23.980469 17.5 23.980469 M 17.5 0.507812 C 10.886719 0.507812 5.507812 5.886719 5.507812 12.5 C 5.507812 19.113281 10.886719 24.492188 17.5 24.492188 C 24.113281 24.492188 29.492188 19.113281 29.492188 12.5 C 29.488281 5.886719 24.113281 0.507812 17.5 0.507812 "/>
<path style=" stroke:none;fill-rule:nonzero;fill:rgb(100%,100%,100%);fill-opacity:1;" d="M 19.292969 12.324219 C 19.503906 11.453125 19.722656 10.46875 19.996094 9.605469 C 19.011719 10.597656 18.675781 11.5 18.066406 12.472656 Z M 19.292969 12.324219 "/>
<path style=" stroke:none;fill-rule:nonzero;fill:rgb(78.039216%,75.686275%,76.078431%);fill-opacity:1;" d="M 27.273438 9.246094 L 27.277344 9.265625 L 26.390625 9.730469 L 26.289062 9.421875 Z M 25.492188 8.691406 L 25.011719 8.847656 L 25.265625 9.625 L 25.859375 9.515625 L 25.996094 9.921875 L 25.445312 10.171875 L 25.699219 10.933594 L 26.1875 10.769531 L 26.132812 10.609375 L 27.851562 9.644531 L 27.5 8.585938 L 25.550781 8.863281 Z M 25.492188 8.691406 "/>
<path style=" stroke:none;fill-rule:nonzero;fill:rgb(78.039216%,75.686275%,76.078431%);fill-opacity:1;" d="M 23.9375 5.402344 C 23.851562 5.765625 23.765625 6.148438 23.683594 6.511719 L 24.777344 6.226562 L 23.832031 7.144531 L 24.398438 7.730469 L 24.769531 7.371094 L 24.648438 7.246094 L 25.667969 6.253906 L 25.78125 6.359375 L 26.148438 6.003906 L 25.597656 5.4375 L 24.429688 5.75 L 24.757812 4.574219 L 24.199219 3.996094 L 23.832031 4.351562 L 23.949219 4.472656 L 22.917969 5.476562 L 22.800781 5.363281 L 22.441406 5.710938 L 23.011719 6.300781 Z M 23.9375 5.402344 "/>
<path style=" stroke:none;fill-rule:nonzero;fill:rgb(78.039216%,75.686275%,76.078431%);fill-opacity:1;" d="M 21.039062 2.828125 L 21.058594 2.835938 L 20.871094 3.820312 L 20.5625 3.707031 Z M 20.375 4.101562 L 20.769531 4.246094 L 20.628906 4.832031 L 21.378906 5.109375 L 21.554688 4.625 L 21.398438 4.566406 L 21.710938 2.621094 L 20.664062 2.238281 L 19.667969 3.9375 L 19.496094 3.875 L 19.320312 4.351562 L 20.089844 4.632812 Z M 20.375 4.101562 "/>
<path style=" stroke:none;fill-rule:nonzero;fill:rgb(78.039216%,75.686275%,76.078431%);fill-opacity:1;" d="M 16.96875 3.753906 L 16.941406 3.242188 L 17.335938 3.222656 L 17.359375 3.734375 Z M 16.902344 2.316406 L 17.285156 2.300781 L 17.308594 2.757812 L 16.921875 2.777344 Z M 17.636719 2.949219 C 17.832031 2.914062 17.957031 2.765625 17.988281 2.570312 C 18 2.28125 17.941406 1.75 17.597656 1.769531 L 16.019531 1.855469 L 16.039062 2.332031 L 16.222656 2.328125 L 16.289062 3.765625 L 16.109375 3.78125 L 16.132812 4.28125 L 17.761719 4.199219 C 17.960938 4.1875 18.046875 3.960938 18.042969 3.761719 L 18.011719 3.253906 C 17.960938 3.089844 17.816406 2.980469 17.636719 2.949219 "/>
<path style=" stroke:none;fill-rule:nonzero;fill:rgb(78.039216%,75.686275%,76.078431%);fill-opacity:1;" d="M 13.058594 3.207031 L 13.632812 4.027344 L 13.339844 4.167969 L 13.042969 3.214844 Z M 12.714844 5.050781 L 12.933594 5.507812 L 13.671875 5.15625 L 13.488281 4.582031 L 13.871094 4.398438 L 14.191406 4.910156 L 14.914062 4.5625 L 14.691406 4.097656 L 14.535156 4.171875 L 13.363281 2.59375 L 12.355469 3.074219 L 12.878906 4.972656 Z M 12.714844 5.050781 "/>
<path style=" stroke:none;fill-rule:nonzero;fill:rgb(78.039216%,75.686275%,76.078431%);fill-opacity:1;" d="M 11.140625 6.429688 L 10.933594 6.65625 L 9.871094 5.699219 L 9.984375 5.578125 L 9.605469 5.234375 L 8.902344 6.015625 L 9.277344 6.351562 L 9.394531 6.21875 L 10.464844 7.179688 L 10.347656 7.304688 L 10.730469 7.652344 L 11.964844 6.28125 L 11.265625 5.652344 L 10.824219 6.144531 Z M 11.140625 6.429688 "/>
<path style=" stroke:none;fill-rule:nonzero;fill:rgb(78.039216%,75.686275%,76.078431%);fill-opacity:1;" d="M 8.660156 9.574219 L 7.773438 9.109375 L 7.78125 9.09375 L 8.765625 9.265625 Z M 8.84375 10.636719 L 9.320312 10.808594 L 9.59375 10.035156 L 9.054688 9.757812 L 9.195312 9.355469 L 9.785156 9.492188 L 10.050781 8.738281 L 9.5625 8.566406 L 9.507812 8.726562 L 7.558594 8.445312 L 7.1875 9.496094 L 8.902344 10.46875 Z M 8.84375 10.636719 "/>
<path style=" stroke:none;fill-rule:nonzero;fill:rgb(78.039216%,75.686275%,76.078431%);fill-opacity:1;" d="M 25.730469 15.703125 L 27.125 16.128906 L 27.082031 16.269531 L 27.578125 16.417969 L 28.03125 14.9375 L 27.226562 14.691406 L 27.078125 15.175781 L 27.390625 15.273438 L 27.292969 15.585938 L 26.789062 15.429688 L 26.917969 15.003906 L 26.480469 14.871094 L 26.34375 15.292969 L 25.898438 15.15625 L 25.996094 14.84375 L 26.253906 14.921875 L 26.390625 14.46875 L 25.644531 14.238281 L 25.199219 15.6875 L 25.6875 15.839844 Z M 25.730469 15.703125 "/>
<path style=" stroke:none;fill-rule:nonzero;fill:rgb(78.039216%,75.686275%,76.078431%);fill-opacity:1;" d="M 26.199219 17.960938 L 24.960938 17.199219 L 25.128906 16.925781 L 26.371094 17.691406 Z M 26.796875 17.296875 L 25.335938 16.394531 C 25.167969 16.292969 24.917969 16.277344 24.824219 16.425781 L 24.132812 17.535156 L 24.574219 17.808594 L 24.652344 17.679688 L 25.894531 18.445312 L 25.828125 18.570312 L 26.257812 18.835938 L 26.941406 17.71875 C 27.023438 17.585938 26.953125 17.394531 26.796875 17.296875 "/>
<path style=" stroke:none;fill-rule:nonzero;fill:rgb(78.039216%,75.686275%,76.078431%);fill-opacity:1;" d="M 25.195312 19.304688 L 25.097656 19.410156 L 24.050781 18.402344 L 24.144531 18.304688 L 23.769531 17.945312 L 23.175781 18.5625 L 23.550781 18.921875 L 23.652344 18.816406 L 24.707031 19.824219 L 24.617188 19.917969 L 24.984375 20.273438 L 25.566406 19.664062 Z M 25.195312 19.304688 "/>
<path style=" stroke:none;fill-rule:nonzero;fill:rgb(78.039216%,75.686275%,76.078431%);fill-opacity:1;" d="M 22.960938 19.929688 L 23.308594 19.703125 L 22.804688 18.9375 L 21.289062 19.9375 L 21.789062 20.695312 L 22.140625 20.464844 L 21.921875 20.132812 L 22.085938 20.023438 L 22.890625 21.242188 L 22.789062 21.308594 L 23.070312 21.742188 L 23.773438 21.277344 L 23.492188 20.847656 L 23.375 20.921875 L 22.574219 19.703125 L 22.742188 19.59375 Z M 22.960938 19.929688 "/>
<path style=" stroke:none;fill-rule:nonzero;fill:rgb(78.039216%,75.686275%,76.078431%);fill-opacity:1;" d="M 20.023438 21.699219 L 19.195312 20.617188 L 18.527344 20.78125 L 18.648438 21.285156 L 18.796875 21.25 L 19.140625 22.667969 L 18.996094 22.703125 L 19.117188 23.203125 L 19.789062 23.039062 L 19.488281 21.804688 L 20.324219 22.902344 L 20.851562 22.78125 L 20.386719 20.871094 L 20.515625 20.832031 L 20.394531 20.332031 L 19.730469 20.496094 Z M 20.023438 21.699219 "/>
<path style=" stroke:none;fill-rule:nonzero;fill:rgb(78.039216%,75.686275%,76.078431%);fill-opacity:1;" d="M 17.410156 22.773438 L 17.097656 22.765625 L 17.132812 21.3125 L 17.445312 21.316406 Z M 17.703125 20.800781 L 16.9375 20.78125 C 16.773438 20.777344 16.574219 20.914062 16.566406 21.136719 L 16.527344 22.910156 C 16.523438 23.109375 16.667969 23.265625 16.832031 23.269531 L 17.664062 23.289062 C 17.847656 23.292969 17.96875 23.0625 17.972656 22.84375 L 18.011719 21.179688 C 18.015625 20.972656 17.878906 20.804688 17.703125 20.800781 "/>
<path style=" stroke:none;fill-rule:nonzero;fill:rgb(78.039216%,75.686275%,76.078431%);fill-opacity:1;" d="M 14.53125 20.695312 L 14.378906 21.265625 C 14.3125 21.503906 14.390625 21.761719 14.589844 21.816406 L 15.128906 21.960938 L 14.996094 22.449219 L 14.691406 22.371094 L 14.757812 22.136719 L 14.226562 21.992188 L 14.027344 22.734375 L 15.09375 23.019531 C 15.265625 23.066406 15.460938 22.921875 15.519531 22.710938 L 15.691406 22.074219 C 15.75 21.855469 15.675781 21.621094 15.496094 21.570312 L 14.933594 21.421875 L 15.054688 20.964844 L 15.371094 21.046875 L 15.316406 21.261719 L 15.800781 21.390625 L 15.988281 20.683594 L 15 20.417969 C 14.816406 20.371094 14.589844 20.46875 14.53125 20.695312 "/>
<path style=" stroke:none;fill-rule:nonzero;fill:rgb(78.039216%,75.686275%,76.078431%);fill-opacity:1;" d="M 13.542969 19.796875 L 12.558594 20.445312 L 12.6875 19.265625 L 12.109375 18.90625 L 11.835938 19.347656 L 11.957031 19.425781 L 11.1875 20.664062 L 11.066406 20.597656 L 10.800781 21.03125 L 11.382812 21.390625 L 12.074219 20.28125 C 12.050781 20.640625 12.027344 21.015625 12.003906 21.378906 L 12.929688 20.777344 L 12.222656 21.914062 L 12.800781 22.273438 L 13.078125 21.828125 L 12.953125 21.753906 L 13.714844 20.527344 L 13.832031 20.589844 L 14.105469 20.148438 Z M 13.542969 19.796875 "/>
<path style=" stroke:none;fill-rule:nonzero;fill:rgb(78.039216%,75.686275%,76.078431%);fill-opacity:1;" d="M 10.25 19.769531 L 11.300781 18.769531 L 11.394531 18.871094 L 11.773438 18.511719 L 11.179688 17.890625 L 10.804688 18.246094 L 10.90625 18.355469 L 9.847656 19.359375 L 9.757812 19.265625 L 9.390625 19.617188 L 9.972656 20.230469 L 10.347656 19.875 Z M 10.25 19.769531 "/>
<path style=" stroke:none;fill-rule:nonzero;fill:rgb(78.039216%,75.686275%,76.078431%);fill-opacity:1;" d="M 9.820312 16.859375 L 9.988281 17.136719 L 9.574219 17.386719 L 9.410156 17.105469 Z M 9.527344 17.75 C 9.652344 17.824219 9.8125 17.886719 9.976562 17.796875 L 10.339844 17.597656 C 10.5625 17.476562 10.65625 17.207031 10.550781 17.03125 L 9.921875 15.96875 L 9.472656 16.234375 L 9.539062 16.359375 L 8.292969 17.101562 L 8.214844 16.984375 L 7.777344 17.242188 L 8.144531 17.863281 L 9.011719 17.347656 L 9.179688 17.628906 L 8.515625 18.023438 C 8.421875 18.078125 8.339844 18.1875 8.390625 18.277344 L 8.675781 18.753906 L 9.117188 18.488281 L 9.050781 18.363281 L 9.355469 18.167969 C 9.515625 18.066406 9.5625 17.914062 9.527344 17.75 "/>
<path style=" stroke:none;fill-rule:nonzero;fill:rgb(78.039216%,75.686275%,76.078431%);fill-opacity:1;" d="M 8.082031 15.449219 L 7.707031 15.558594 L 7.617188 15.253906 L 9.015625 14.84375 L 9.105469 15.152344 L 8.824219 15.230469 L 8.964844 15.707031 L 9.734375 15.480469 L 9.441406 14.472656 C 9.390625 14.296875 9.164062 14.203125 8.953125 14.265625 L 7.480469 14.695312 C 7.226562 14.769531 6.992188 14.960938 7.054688 15.167969 L 7.347656 16.207031 L 8.226562 15.949219 Z M 8.082031 15.449219 "/>
<path style=" stroke:none;fill-rule:nonzero;fill:rgb(56.862745%,0%,16.470588%);fill-opacity:1;" d="M 13.339844 4.167969 L 13.632812 4.027344 L 13.058594 3.207031 L 13.042969 3.214844 Z M 13.339844 4.167969 "/>
<path style=" stroke:none;fill-rule:nonzero;fill:rgb(56.862745%,0%,16.470588%);fill-opacity:1;" d="M 17.285156 2.300781 L 17.308594 2.757812 L 16.921875 2.777344 L 16.902344 2.316406 Z M 17.285156 2.300781 "/>
<path style=" stroke:none;fill-rule:nonzero;fill:rgb(56.862745%,0%,16.470588%);fill-opacity:1;" d="M 9.824219 16.859375 L 9.988281 17.136719 L 9.578125 17.386719 L 9.410156 17.105469 Z M 9.824219 16.859375 "/>
<path style=" stroke:none;fill-rule:nonzero;fill:rgb(56.862745%,0%,16.470588%);fill-opacity:1;" d="M 26.390625 9.730469 L 27.277344 9.265625 L 27.273438 9.246094 L 26.289062 9.421875 Z M 26.390625 9.730469 "/>
<path style=" stroke:none;fill-rule:nonzero;fill:rgb(56.862745%,0%,16.470588%);fill-opacity:1;" d="M 20.867188 3.820312 L 21.058594 2.835938 L 21.039062 2.828125 L 20.5625 3.707031 Z M 20.867188 3.820312 "/>
<path style=" stroke:none;fill-rule:nonzero;fill:rgb(56.862745%,0%,16.470588%);fill-opacity:1;" d="M 17.359375 3.734375 L 16.96875 3.75 L 16.945312 3.242188 L 17.335938 3.222656 Z M 17.359375 3.734375 "/>
<path style=" stroke:none;fill-rule:nonzero;fill:rgb(66.27451%,1.960784%,20%);fill-opacity:1;" d="M 7.78125 9.09375 L 7.773438 9.109375 L 8.660156 9.574219 L 8.765625 9.265625 Z M 7.78125 9.09375 "/>
<path style=" stroke:none;fill-rule:nonzero;fill:rgb(56.862745%,0%,16.470588%);fill-opacity:1;" d="M 26.203125 17.960938 L 24.964844 17.199219 L 25.132812 16.925781 L 26.371094 17.6875 Z M 26.203125 17.960938 "/>
<path style=" stroke:none;fill-rule:nonzero;fill:rgb(56.862745%,0%,16.470588%);fill-opacity:1;" d="M 17.410156 22.773438 L 17.097656 22.765625 L 17.132812 21.3125 L 17.445312 21.320312 Z M 17.410156 22.773438 "/>
<path style=" stroke:none;fill-rule:nonzero;fill:rgb(56.862745%,0%,16.470588%);fill-opacity:1;" d="M 19.996094 9.605469 C 19.722656 10.46875 19.503906 11.453125 19.292969 12.324219 L 18.066406 12.472656 C 18.675781 11.5 19.011719 10.597656 19.996094 9.605469 M 14.058594 16.90625 C 15.761719 16.941406 16.914062 14.824219 17.535156 13.5625 L 19.152344 13.308594 L 19.050781 14.628906 C 18.847656 17.910156 21.210938 16.644531 21.210938 16.644531 C 21.539062 16.496094 21.882812 16.136719 21.875 15.71875 C 21.855469 15.574219 21.777344 15.628906 21.699219 15.671875 C 20.867188 16.101562 20.238281 16.011719 20.171875 15.492188 C 20.097656 14.910156 20.140625 14.09375 20.167969 13.78125 C 20.175781 13.667969 20.210938 13.296875 20.234375 13.1875 C 20.519531 13.125 20.898438 12.988281 20.898438 13.480469 C 21.042969 13.410156 21.304688 13.191406 21.351562 12.960938 C 21.601562 11.773438 20.359375 12.085938 20.359375 12.085938 C 20.660156 10.683594 20.988281 9.1875 21.683594 7.957031 L 20.992188 7.625 C 20.519531 7.984375 20.050781 8.347656 19.65625 8.40625 C 19.296875 8.492188 17.097656 8.664062 17.25 7.65625 C 17.003906 7.675781 16.867188 7.964844 16.867188 8.214844 C 16.949219 9.300781 18.359375 9.085938 19.21875 9.195312 C 18.332031 10.304688 17.550781 11.453125 16.847656 12.644531 C 16.289062 12.753906 16.214844 12.058594 16.3125 11.867188 C 16.3125 11.867188 15.941406 11.972656 15.800781 12.375 C 15.628906 12.800781 15.824219 13.515625 16.421875 13.558594 C 15.828125 14.605469 15.113281 16.316406 13.65625 15.976562 C 13.167969 15.875 12.597656 15.046875 12.890625 14.554688 C 13.074219 14.304688 12.804688 14.128906 12.496094 14.5 C 11.738281 15.335938 12.46875 17.007812 14.058594 16.90625 "/>
</g>
</svg>
