<?xml version="1.0" encoding="UTF-8"?>
<svg xmlns="http://www.w3.org/2000/svg" xmlns:xlink="http://www.w3.org/1999/xlink" width="35pt" height="25pt" viewBox="0 0 35 25" version="1.1">
<g id="surface1">
<path style=" stroke:none;fill-rule:nonzero;fill:rgb(96.862745%,28.627451%,5.882353%);fill-opacity:0.941176;" d="M 14.542969 24.945312 C 14.3125 24.929688 13.605469 24.84375 12.96875 24.746094 L 11.8125 24.578125 L 10.863281 24.332031 C 9.050781 23.859375 7.835938 23.277344 6.691406 22.320312 L 6.257812 21.960938 L 5.878906 21.46875 L 5.496094 20.980469 L 5.253906 20.472656 C 5.121094 20.191406 4.96875 19.785156 4.914062 19.566406 L 4.8125 19.171875 L 3.082031 19.171875 L 3.082031 15.085938 L 4.75 15.085938 L 4.75 7.25 L 3 7.25 L 3 3.25 L 11.835938 3.25 L 11.835938 4.875 L 12.238281 4.167969 C 12.460938 3.777344 13.082031 2.679688 13.621094 1.730469 L 14.597656 0 L 20.066406 0 L 21.429688 2.421875 L 22.796875 4.847656 L 22.820312 4.046875 L 22.84375 3.25 L 31.671875 3.25 L 31.671875 7.25 L 29.921875 7.25 L 29.921875 15.085938 L 31.589844 15.085938 L 31.589844 19.171875 L 29.839844 19.171875 L 29.792969 19.398438 C 29.6875 19.894531 29.46875 20.402344 29.125 20.964844 L 28.765625 21.550781 L 28.234375 22.058594 L 27.703125 22.570312 L 27.167969 22.917969 C 25.488281 24.003906 23.363281 24.621094 20.292969 24.917969 L 19.460938 25 L 17.210938 24.988281 C 15.972656 24.980469 14.773438 24.960938 14.542969 24.945312 Z M 19.550781 20.328125 C 21.15625 20.167969 22.738281 19.765625 23.453125 19.328125 L 23.710938 19.171875 L 21.855469 19.171875 L 20.003906 19.167969 L 20.003906 15.085938 L 22.328125 15.085938 L 21.824219 14.210938 L 21.320312 13.332031 L 13.3125 13.378906 L 12.351562 15.042969 L 13.507812 15.066406 L 14.667969 15.089844 L 14.667969 19.167969 L 12.820312 19.1875 L 10.96875 19.210938 L 11.507812 19.472656 C 12.34375 19.878906 13.585938 20.179688 15.003906 20.324219 L 15.710938 20.398438 L 18.640625 20.421875 Z M 18.917969 9.113281 C 18.917969 9.0625 17.4375 6.417969 17.359375 6.335938 C 17.316406 6.285156 17.339844 6.246094 16.425781 7.855469 L 15.679688 9.167969 L 18.917969 9.167969 Z M 10.351562 7.523438 L 10.515625 7.25 L 9.835938 7.25 L 9.835938 8.375 L 10.011719 8.085938 C 10.105469 7.925781 10.257812 7.671875 10.351562 7.523438 Z M 24.765625 7.792969 L 24.738281 7.25 L 24.15625 7.25 L 24.359375 7.605469 C 24.472656 7.800781 24.609375 8.042969 24.660156 8.148438 C 24.796875 8.40625 24.800781 8.402344 24.765625 7.792969 Z M 24.765625 7.792969 "/>
<path style=" stroke:none;fill-rule:evenodd;fill:rgb(0%,14.901961%,28.627451%);fill-opacity:1;" d="M 3.871094 17.515625 C 3.898438 17.09375 3.917969 16.574219 3.917969 16.363281 L 3.917969 15.980469 L 6.546875 15.980469 L 10.796875 8.445312 L 15.042969 0.910156 L 17.320312 0.894531 L 19.59375 0.875 L 19.691406 1.035156 C 19.75 1.125 21.664062 4.523438 23.953125 8.589844 L 28.113281 15.980469 L 30.746094 15.980469 L 30.746094 18.28125 L 20.890625 18.28125 L 20.890625 16 L 22.273438 15.953125 C 23.03125 15.925781 23.664062 15.890625 23.675781 15.878906 C 23.699219 15.855469 23.453125 15.394531 22.425781 13.550781 L 21.8125 12.453125 L 12.851562 12.453125 L 11.875 14.183594 C 11.335938 15.132812 10.894531 15.925781 10.894531 15.945312 C 10.894531 15.964844 11.542969 15.980469 12.332031 15.980469 L 13.773438 15.980469 L 13.773438 18.28125 L 3.824219 18.28125 Z M 20.273438 9.777344 C 19.816406 8.886719 17.433594 4.734375 17.351562 4.683594 C 17.28125 4.644531 15.28125 8.09375 14.355469 9.847656 L 14.269531 10.007812 L 20.390625 10.007812 Z M 20.273438 9.777344 "/>
<path style=" stroke:none;fill-rule:evenodd;fill:rgb(0%,14.901961%,28.627451%);fill-opacity:1;" d="M 5.644531 10.765625 L 5.644531 6.414062 L 3.847656 6.414062 L 3.847656 4.113281 L 10.96875 4.113281 L 10.96875 6.414062 L 9.027344 6.414062 L 9.027344 9.933594 L 7.570312 12.523438 C 6.121094 15.101562 6.113281 15.117188 5.878906 15.117188 L 5.644531 15.117188 Z M 5.644531 10.765625 "/>
<path style=" stroke:none;fill-rule:evenodd;fill:rgb(0%,14.901961%,28.627451%);fill-opacity:1;" d="M 14.671875 24.105469 C 11.1875 23.730469 9.125 23.074219 7.417969 21.796875 C 6.851562 21.371094 6.667969 21.183594 6.402344 20.761719 C 6 20.117188 5.71875 19.515625 5.71875 19.304688 L 5.71875 19.144531 L 9.617188 19.144531 L 10.023438 19.515625 C 10.90625 20.324219 12.722656 20.917969 15.175781 21.195312 C 16.308594 21.324219 18.445312 21.304688 19.824219 21.152344 C 20.882812 21.039062 22.261719 20.734375 22.976562 20.460938 C 23.664062 20.199219 24.519531 19.679688 24.84375 19.332031 L 25.015625 19.144531 L 28.964844 19.144531 L 28.917969 19.375 C 28.839844 19.769531 28.386719 20.648438 28.066406 21.03125 C 27.332031 21.910156 25.8125 22.828125 24.34375 23.28125 C 23.402344 23.570312 22.816406 23.699219 21.359375 23.933594 C 20.3125 24.105469 19.988281 24.125 17.726562 24.144531 C 16.363281 24.15625 14.988281 24.140625 14.671875 24.105469 Z M 14.671875 24.105469 "/>
<path style=" stroke:none;fill-rule:evenodd;fill:rgb(0%,14.901961%,28.627451%);fill-opacity:1;" d="M 27.09375 12.53125 L 25.640625 9.949219 L 25.640625 6.414062 L 23.625 6.414062 L 23.625 4.113281 L 30.816406 4.113281 L 30.816406 6.414062 L 29.089844 6.414062 L 29.089844 15.117188 L 28.820312 15.113281 L 28.550781 15.113281 Z M 27.09375 12.53125 "/>
</g>
</svg>
