<?xml version="1.0" encoding="UTF-8"?>
<svg xmlns="http://www.w3.org/2000/svg" xmlns:xlink="http://www.w3.org/1999/xlink" width="35pt" height="25pt" viewBox="0 0 35 25" version="1.1">
<g id="surface1">
<path style=" stroke:none;fill-rule:nonzero;fill:rgb(1.568627%,30.588235%,63.137255%);fill-opacity:1;" d="M 13.292969 2.53125 C 14.1875 1.882812 15.34375 1.613281 16.429688 1.796875 C 17.15625 1.890625 17.808594 2.257812 18.394531 2.679688 C 18.632812 2.863281 18.945312 2.839844 19.226562 2.863281 C 21.761719 3.042969 24.277344 3.597656 26.636719 4.546875 C 26.488281 4.621094 26.351562 4.714844 26.195312 4.769531 C 24.242188 3.980469 22.167969 3.542969 20.085938 3.296875 C 19.507812 3.210938 18.925781 3.242188 18.351562 3.136719 C 17.574219 2.484375 16.582031 2.035156 15.550781 2.097656 C 14.972656 2.15625 14.394531 2.304688 13.898438 2.613281 C 13.660156 2.730469 13.421875 2.953125 13.136719 2.859375 C 12.714844 2.730469 12.316406 2.519531 11.875 2.445312 C 11.304688 2.335938 10.714844 2.339844 10.136719 2.390625 C 8.746094 2.574219 7.503906 3.578125 7.03125 4.902344 C 6.917969 5.324219 6.441406 5.402344 6.113281 5.597656 C 4.160156 6.632812 2.296875 8.03125 1.207031 9.996094 C 0.648438 10.949219 0.375 12.050781 0.332031 13.148438 C 0.375 14.433594 0.785156 15.699219 1.5 16.765625 C 2.726562 18.632812 4.617188 19.953125 6.59375 20.929688 C 9.039062 22.097656 11.707031 22.746094 14.394531 23.011719 C 15.667969 23.121094 16.949219 23.199219 18.222656 23.113281 C 18.78125 23.050781 19.347656 23.105469 19.902344 22.980469 C 20.128906 22.960938 20.355469 22.945312 20.582031 22.929688 C 20.480469 22.914062 20.378906 22.898438 20.277344 22.886719 C 20.660156 22.886719 21.050781 22.875 21.429688 22.800781 C 24.488281 22.292969 27.53125 21.277344 30.0625 19.441406 C 30.503906 19.132812 30.898438 18.761719 31.300781 18.402344 C 31.625 18.171875 32.011719 18.035156 32.339844 17.800781 C 32.039062 18.21875 31.664062 18.574219 31.28125 18.917969 C 29.949219 20.113281 28.375 21.015625 26.722656 21.699219 C 22.679688 23.367188 18.195312 23.789062 13.867188 23.320312 C 11.101562 22.996094 8.363281 22.277344 5.882812 20.988281 C 3.972656 19.980469 2.183594 18.609375 1.039062 16.75 C 0.132812 15.292969 -0.222656 13.488281 0.140625 11.800781 C 0.507812 9.980469 1.652344 8.402344 3.039062 7.207031 C 4.105469 6.28125 5.328125 5.542969 6.601562 4.933594 C 7.039062 3.664062 8.066406 2.597656 9.355469 2.191406 C 10.140625 1.914062 10.988281 1.976562 11.800781 2.058594 C 12.324219 2.128906 12.808594 2.339844 13.292969 2.53125 Z M 13.292969 2.53125 "/>
<path style=" stroke:none;fill-rule:nonzero;fill:rgb(95.294118%,45.490196%,21.568627%);fill-opacity:1;" d="M 13.898438 2.613281 C 14.394531 2.304688 14.972656 2.15625 15.550781 2.097656 C 16.582031 2.035156 17.574219 2.484375 18.351562 3.136719 C 18.925781 3.242188 19.507812 3.210938 20.085938 3.296875 C 22.167969 3.542969 24.242188 3.980469 26.195312 4.769531 C 25.738281 5.277344 25.066406 5.519531 24.398438 5.585938 C 22.375 5.019531 20.289062 4.5625 18.171875 4.578125 C 18.175781 4.566406 18.183594 4.550781 18.1875 4.542969 C 17.722656 4.195312 17.3125 3.777344 16.8125 3.480469 C 15.820312 2.984375 14.535156 3.269531 13.804688 4.097656 C 13.511719 4.09375 13.21875 4.09375 12.925781 4.09375 C 11.953125 3.460938 10.664062 3.257812 9.578125 3.710938 C 8.550781 4.136719 7.949219 5.328125 8.097656 6.410156 C 7.367188 6.628906 6.636719 6.90625 6.042969 7.40625 C 6.003906 7.480469 5.964844 7.550781 5.921875 7.625 C 5.921875 7.585938 5.925781 7.511719 5.929688 7.476562 C 5.511719 7.523438 5.214844 7.84375 4.894531 8.078125 C 3.609375 9.078125 2.523438 10.441406 2.171875 12.0625 C 1.824219 13.597656 2.289062 15.242188 3.238281 16.476562 C 4.636719 18.363281 6.761719 19.542969 8.917969 20.359375 C 11.105469 21.167969 13.425781 21.589844 15.75 21.707031 C 17.101562 21.699219 18.460938 21.773438 19.804688 21.589844 C 22.976562 21.265625 26.136719 20.328125 28.796875 18.535156 C 29.625 18.75 30.496094 18.683594 31.300781 18.402344 C 30.898438 18.761719 30.503906 19.132812 30.0625 19.441406 C 27.53125 21.277344 24.488281 22.292969 21.429688 22.800781 C 21.050781 22.875 20.660156 22.886719 20.277344 22.886719 C 20.378906 22.898438 20.480469 22.914062 20.582031 22.929688 C 20.355469 22.945312 20.128906 22.960938 19.902344 22.980469 C 19.347656 23.105469 18.78125 23.050781 18.222656 23.113281 C 16.949219 23.199219 15.667969 23.121094 14.394531 23.011719 C 11.707031 22.746094 9.039062 22.097656 6.59375 20.929688 C 4.617188 19.953125 2.726562 18.632812 1.5 16.765625 C 0.785156 15.699219 0.375 14.433594 0.332031 13.148438 C 0.375 12.050781 0.648438 10.949219 1.207031 9.996094 C 2.296875 8.03125 4.160156 6.632812 6.113281 5.597656 C 6.441406 5.402344 6.917969 5.324219 7.03125 4.902344 C 7.503906 3.578125 8.746094 2.574219 10.136719 2.390625 C 10.714844 2.339844 11.304688 2.335938 11.875 2.445312 C 12.316406 2.519531 12.714844 2.730469 13.136719 2.859375 C 13.421875 2.953125 13.660156 2.730469 13.898438 2.613281 Z M 13.898438 2.613281 "/>
<path style=" stroke:none;fill-rule:nonzero;fill:rgb(1.568627%,30.588235%,63.137255%);fill-opacity:1;" d="M 13.933594 4.316406 C 14.628906 3.390625 16.082031 3.160156 17.011719 3.859375 C 17.691406 4.359375 18.300781 4.976562 19.0625 5.355469 C 20.703125 5.671875 22.375 5.925781 24.050781 5.847656 C 24.765625 5.769531 25.5625 5.675781 26.09375 5.136719 C 26.421875 4.800781 26.832031 4.542969 27.273438 4.382812 C 28.0625 4.085938 28.96875 3.898438 29.78125 4.199219 C 30.4375 3.777344 31.261719 3.441406 32.03125 3.746094 C 32.652344 4.007812 32.84375 4.714844 33.304688 5.152344 C 33.601562 5.460938 34.074219 5.441406 34.40625 5.695312 C 34.898438 6.023438 35.113281 6.683594 34.941406 7.242188 C 34.859375 7.625 34.527344 7.910156 34.511719 8.3125 C 34.40625 9.070312 34.050781 9.773438 33.578125 10.371094 C 34.507812 12.429688 34.339844 14.949219 33.054688 16.816406 C 32.089844 17.929688 30.558594 18.609375 29.078125 18.359375 C 28.566406 18.230469 28.035156 18.234375 27.511719 18.238281 C 27.210938 18.535156 26.863281 18.796875 26.457031 18.929688 C 25.363281 19.308594 24.183594 19.339844 23.042969 19.289062 C 22.886719 19.46875 22.695312 19.617188 22.464844 19.679688 C 21.296875 20.039062 20.058594 20.097656 18.84375 20.035156 C 18.710938 20.394531 18.339844 20.527344 17.996094 20.597656 C 16.65625 20.882812 15.273438 21.003906 13.90625 20.863281 C 13.246094 20.78125 12.570312 20.667969 11.988281 20.324219 C 10.34375 20.417969 8.679688 19.972656 7.261719 19.136719 C 6.332031 18.566406 5.488281 17.796875 5.023438 16.792969 C 4.90625 16.558594 4.855469 16.292969 4.730469 16.0625 C 4.140625 15.5625 3.492188 15.058594 3.171875 14.335938 C 2.945312 13.871094 3.132812 13.308594 3.476562 12.957031 C 3.824219 12.609375 4.21875 12.308594 4.648438 12.070312 C 4.503906 11.464844 4.148438 10.808594 4.441406 10.195312 C 4.769531 9.542969 5.566406 9.460938 6.199219 9.328125 C 6.066406 8.929688 5.894531 8.519531 5.976562 8.097656 C 6.039062 7.816406 6.164062 7.535156 6.40625 7.363281 C 6.957031 6.953125 7.632812 6.769531 8.285156 6.585938 C 8.257812 5.757812 8.445312 4.847656 9.085938 4.273438 C 9.851562 3.617188 10.960938 3.570312 11.890625 3.84375 C 12.25 3.9375 12.5625 4.136719 12.890625 4.292969 C 13.238281 4.320312 13.585938 4.292969 13.933594 4.316406 Z M 13.933594 4.316406 "/>
<path style=" stroke:none;fill-rule:nonzero;fill:rgb(0.392157%,44.705882%,24.313725%);fill-opacity:1;" d="M 14.773438 4.503906 C 15.011719 4.097656 15.5 3.980469 15.945312 4.007812 C 16.292969 3.992188 16.585938 4.203125 16.863281 4.386719 C 17.273438 4.660156 17.648438 4.984375 18.042969 5.285156 C 17.484375 5.183594 16.898438 5.226562 16.351562 5.070312 C 15.851562 4.808594 15.335938 4.582031 14.773438 4.503906 Z M 14.773438 4.503906 "/>
<path style=" stroke:none;fill-rule:nonzero;fill:rgb(0.392157%,44.705882%,24.313725%);fill-opacity:1;" d="M 10.144531 4.390625 C 11.03125 4.050781 12.058594 4.328125 12.777344 4.917969 C 13.425781 5.449219 13.996094 6.113281 14.789062 6.4375 C 14.960938 6.527344 15.167969 6.53125 15.34375 6.449219 C 15.367188 6.339844 15.316406 6.277344 15.199219 6.261719 C 14.613281 6.027344 14.144531 5.585938 13.671875 5.183594 C 13.660156 5.128906 13.640625 5.011719 13.632812 4.953125 C 14.269531 4.945312 14.917969 5.046875 15.503906 5.304688 C 15.765625 5.417969 16.015625 5.578125 16.296875 5.644531 C 17.242188 5.734375 18.199219 5.699219 19.136719 5.855469 C 20.078125 5.941406 20.996094 6.183594 21.929688 6.304688 C 22.96875 6.363281 24.007812 6.292969 25.046875 6.320312 C 24.792969 6.582031 24.515625 6.820312 24.191406 6.980469 C 24.304688 7.015625 24.421875 7.050781 24.539062 7.085938 C 24.789062 6.945312 25.042969 6.804688 25.28125 6.640625 C 25.773438 6.308594 26.105469 5.789062 26.597656 5.457031 C 27.203125 5.054688 27.882812 4.753906 28.601562 4.625 C 29.21875 4.496094 29.800781 4.828125 30.226562 5.25 C 30.824219 5.835938 31.574219 6.367188 32.453125 6.355469 C 32.410156 6.15625 32.425781 5.925781 32.277344 5.769531 C 32.035156 5.746094 31.789062 5.886719 31.546875 5.820312 C 31.035156 5.554688 30.710938 5.050781 30.351562 4.617188 C 30.757812 4.332031 31.277344 4.144531 31.777344 4.226562 C 32.289062 4.394531 32.386719 4.996094 32.78125 5.300781 C 33.1875 5.683594 33.78125 5.800781 34.152344 6.230469 C 34.359375 6.441406 34.410156 6.789062 34.257812 7.046875 C 34.050781 7.4375 33.714844 7.765625 33.308594 7.945312 C 32.984375 8.054688 32.632812 7.984375 32.304688 7.945312 C 31.484375 7.804688 30.609375 7.890625 29.867188 8.277344 C 29.183594 8.617188 28.523438 8.996094 27.835938 9.328125 C 27.199219 9.652344 26.539062 10.046875 25.796875 10.007812 C 25.089844 10.027344 24.394531 9.886719 23.734375 9.648438 C 22.964844 9.445312 22.160156 9.082031 21.359375 9.335938 C 20.925781 9.417969 20.523438 9.609375 20.167969 9.867188 C 19.257812 10.445312 18.382812 11.078125 17.417969 11.558594 C 16.960938 11.796875 16.453125 11.914062 15.9375 11.933594 C 15.296875 11.957031 14.640625 11.964844 14.03125 11.746094 C 13.390625 11.519531 12.75 11.285156 12.078125 11.175781 C 11.601562 11.140625 11.117188 11.117188 10.644531 11.1875 C 9.84375 11.394531 9.066406 11.898438 8.738281 12.679688 C 8.300781 13.472656 8.398438 14.417969 8.550781 15.269531 C 8.347656 15.4375 8.152344 15.609375 7.964844 15.792969 C 7.886719 15.789062 7.804688 15.785156 7.726562 15.78125 C 7.550781 15.300781 7.242188 14.84375 7.265625 14.308594 C 7.191406 13.625 7.660156 13.070312 7.964844 12.507812 C 8.078125 12.359375 8.046875 12.164062 8.050781 11.992188 C 7.667969 12.269531 7.425781 12.679688 7.15625 13.0625 C 6.617188 13.761719 6.554688 14.761719 6.957031 15.542969 C 7.148438 15.945312 7.238281 16.386719 7.398438 16.800781 C 8.019531 16.863281 8.367188 16.308594 8.808594 15.984375 C 9.609375 15.472656 10.625 15.421875 11.527344 15.65625 C 12.410156 15.976562 13.035156 16.847656 14.003906 16.957031 C 14.710938 17.054688 15.339844 16.6875 15.929688 16.359375 C 16.777344 15.910156 17.574219 15.363281 18.449219 14.976562 C 19.140625 14.667969 19.921875 14.703125 20.65625 14.769531 C 22.222656 15.210938 23.597656 16.230469 25.238281 16.425781 C 26.835938 16.644531 28.460938 16.621094 30.058594 16.417969 C 30.886719 16.3125 31.707031 16.105469 32.449219 15.714844 C 32.542969 15.753906 32.636719 15.789062 32.730469 15.828125 C 32.695312 16.035156 32.660156 16.25 32.523438 16.417969 C 31.898438 17.257812 30.917969 17.882812 29.851562 17.917969 C 29.367188 17.945312 28.886719 17.84375 28.40625 17.835938 C 27.214844 17.8125 26.019531 17.867188 24.828125 17.808594 C 24 17.683594 23.148438 17.671875 22.320312 17.796875 C 21.101562 17.949219 19.871094 17.890625 18.652344 17.992188 C 18.035156 17.941406 17.414062 17.886719 16.800781 17.945312 C 16.410156 18.082031 16.113281 18.386719 15.75 18.574219 C 14.660156 19.171875 13.445312 19.53125 12.21875 19.726562 C 11.195312 19.863281 10.148438 19.714844 9.179688 19.367188 C 8.378906 19.105469 7.585938 18.753906 6.949219 18.183594 C 6.160156 17.582031 5.542969 16.730469 5.3125 15.757812 C 5.132812 14.21875 5.359375 12.570312 6.226562 11.257812 C 6.609375 10.652344 7.105469 10.117188 7.695312 9.707031 C 7.832031 9.605469 8.007812 9.601562 8.171875 9.570312 C 8.265625 9.679688 8.363281 9.789062 8.460938 9.894531 C 8.570312 9.902344 8.679688 9.90625 8.789062 9.910156 C 8.6875 9.621094 8.511719 9.363281 8.390625 9.082031 C 8.238281 8.523438 8.410156 7.945312 8.660156 7.441406 C 8.890625 7.484375 9.109375 7.570312 9.3125 7.683594 C 9.3125 7.578125 9.316406 7.476562 9.316406 7.371094 C 8.945312 6.902344 8.898438 6.277344 8.960938 5.707031 C 9.046875 5.078125 9.550781 4.5625 10.144531 4.390625 Z M 10.144531 4.390625 "/>
<path style=" stroke:none;fill-rule:nonzero;fill:rgb(1.568627%,30.588235%,63.137255%);fill-opacity:1;" d="M 18.171875 4.578125 C 20.289062 4.5625 22.375 5.019531 24.398438 5.585938 C 22.734375 5.804688 21.0625 5.472656 19.417969 5.238281 C 18.933594 5.1875 18.5625 4.832031 18.171875 4.578125 Z M 18.171875 4.578125 "/>
<path style=" stroke:none;fill-rule:nonzero;fill:rgb(1.568627%,30.588235%,63.137255%);fill-opacity:1;" d="M 10.21875 5.957031 C 10.4375 5.785156 10.644531 5.582031 10.914062 5.484375 C 11.148438 5.445312 11.382812 5.457031 11.617188 5.453125 C 12.234375 5.941406 12.636719 6.664062 13.34375 7.042969 C 13.804688 7.402344 14.40625 7.28125 14.945312 7.28125 C 14.945312 7.359375 14.941406 7.507812 14.9375 7.585938 C 14.722656 7.609375 14.464844 7.574219 14.300781 7.75 C 13.921875 8.101562 13.589844 8.519531 13.113281 8.742188 C 12.445312 9.132812 11.652344 9.195312 10.898438 9.117188 C 10.886719 9.027344 10.875 8.941406 10.863281 8.855469 C 11.246094 8.804688 11.84375 8.96875 12 8.488281 C 11.484375 8.386719 10.980469 7.996094 10.925781 7.449219 C 10.832031 7.003906 10.90625 6.554688 10.988281 6.117188 C 10.71875 6.105469 10.445312 6.132812 10.183594 6.214844 C 10.195312 6.128906 10.207031 6.042969 10.21875 5.957031 Z M 10.21875 5.957031 "/>
<path style=" stroke:none;fill-rule:nonzero;fill:rgb(1.568627%,30.588235%,63.137255%);fill-opacity:1;" d="M 27.378906 6.511719 C 27.730469 6.117188 28.25 5.816406 28.792969 5.867188 C 29.136719 5.90625 29.300781 6.265625 29.585938 6.417969 C 29.886719 6.578125 30.222656 6.664062 30.539062 6.789062 C 29.917969 7.101562 29.296875 6.648438 28.796875 6.316406 C 28.363281 6.628906 27.945312 7.035156 27.375 7.0625 C 27.359375 6.882812 27.226562 6.667969 27.378906 6.511719 Z M 27.378906 6.511719 "/>
<path style=" stroke:none;fill-rule:nonzero;fill:rgb(100%,100%,100%);fill-opacity:1;" d="M 11.476562 6.367188 C 11.828125 6.464844 12.101562 6.726562 12.367188 6.964844 C 12.253906 7.234375 12.074219 7.46875 11.890625 7.699219 C 12.269531 7.78125 12.589844 7.601562 12.871094 7.375 C 13.113281 7.410156 13.324219 7.5625 13.550781 7.65625 C 13.074219 8.40625 11.65625 8.375 11.363281 7.476562 C 11.253906 7.105469 11.367188 6.722656 11.476562 6.367188 Z M 11.476562 6.367188 "/>
<path style=" stroke:none;fill-rule:nonzero;fill:rgb(0.392157%,44.705882%,24.313725%);fill-opacity:1;" d="M 6.511719 7.964844 C 6.941406 7.597656 7.453125 7.34375 7.992188 7.183594 C 7.925781 7.460938 7.828125 7.726562 7.742188 7.996094 C 7.632812 8.339844 7.652344 8.710938 7.550781 9.054688 C 7.378906 9.242188 7.15625 9.375 6.957031 9.527344 C 6.832031 9.238281 6.660156 8.976562 6.539062 8.6875 C 6.484375 8.449219 6.515625 8.203125 6.511719 7.964844 Z M 6.511719 7.964844 "/>
<path style=" stroke:none;fill-rule:nonzero;fill:rgb(22.352941%,34.901961%,48.235294%);fill-opacity:1;" d="M 4.894531 8.078125 C 5.214844 7.84375 5.511719 7.523438 5.929688 7.476562 C 5.925781 7.511719 5.921875 7.585938 5.921875 7.625 C 5.859375 7.855469 5.738281 8.070312 5.730469 8.3125 C 5.71875 8.613281 5.828125 8.898438 5.925781 9.179688 C 5.308594 9.300781 4.601562 9.464844 4.277344 10.0625 C 3.933594 10.679688 4.222656 11.371094 4.40625 11.984375 C 3.835938 12.378906 3.179688 12.78125 2.9375 13.464844 C 2.765625 13.914062 2.90625 14.414062 3.183594 14.785156 C 3.554688 15.332031 4.042969 15.789062 4.5625 16.199219 C 4.90625 17.253906 5.589844 18.179688 6.484375 18.839844 C 8.046875 20 10.011719 20.640625 11.964844 20.539062 C 12.675781 20.933594 13.5 21.03125 14.300781 21.101562 C 15.636719 21.175781 16.988281 21.066406 18.277344 20.71875 C 18.5625 20.65625 18.796875 20.480469 18.964844 20.25 C 20.0625 20.316406 21.171875 20.222656 22.238281 19.953125 C 22.566406 19.875 22.882812 19.734375 23.125 19.5 C 24.1875 19.53125 25.273438 19.515625 26.296875 19.199219 C 26.769531 19.050781 27.207031 18.796875 27.558594 18.449219 C 27.972656 18.457031 28.398438 18.390625 28.796875 18.535156 C 26.136719 20.328125 22.976562 21.265625 19.804688 21.589844 C 18.460938 21.773438 17.101562 21.699219 15.75 21.707031 C 13.425781 21.589844 11.105469 21.167969 8.917969 20.359375 C 6.761719 19.542969 4.636719 18.363281 3.238281 16.476562 C 2.289062 15.242188 1.824219 13.597656 2.171875 12.0625 C 2.523438 10.441406 3.609375 9.078125 4.894531 8.078125 Z M 4.894531 8.078125 "/>
<path style=" stroke:none;fill-rule:nonzero;fill:rgb(100%,100%,100%);fill-opacity:1;" d="M 33.113281 8.699219 C 33.496094 8.726562 33.777344 8.46875 34.082031 8.285156 C 34.066406 8.917969 33.667969 9.445312 33.335938 9.953125 C 33.0625 10.371094 32.679688 10.71875 32.210938 10.902344 C 32.210938 10.753906 32.210938 10.601562 32.308594 10.480469 C 32.660156 9.929688 32.988281 9.347656 33.113281 8.699219 Z M 33.113281 8.699219 "/>
<path style=" stroke:none;fill-rule:nonzero;fill:rgb(100%,100%,100%);fill-opacity:1;" d="M 28.808594 9.539062 C 29.558594 9.246094 30.164062 8.640625 30.984375 8.53125 C 31.082031 8.902344 31.007812 9.285156 30.90625 9.644531 C 30.601562 10.636719 30.054688 11.589844 29.214844 12.21875 C 29.074219 12.328125 28.894531 12.34375 28.726562 12.367188 C 28.710938 11.886719 28.84375 11.417969 28.855469 10.941406 C 28.929688 10.472656 28.847656 10.003906 28.808594 9.539062 Z M 28.808594 9.539062 "/>
<path style=" stroke:none;fill-rule:nonzero;fill:rgb(100%,100%,100%);fill-opacity:1;" d="M 31.515625 8.527344 C 31.894531 8.523438 32.277344 8.519531 32.65625 8.570312 C 32.625 9.019531 32.417969 9.425781 32.21875 9.820312 C 31.941406 10.351562 31.621094 10.871094 31.191406 11.289062 C 31.042969 11.4375 30.855469 11.546875 30.644531 11.574219 C 31.050781 10.601562 31.574219 9.617188 31.515625 8.527344 Z M 31.515625 8.527344 "/>
<path style=" stroke:none;fill-rule:nonzero;fill:rgb(100%,100%,100%);fill-opacity:1;" d="M 20.207031 10.527344 C 20.703125 10.109375 21.347656 9.816406 22.011719 9.898438 C 22.023438 10.632812 21.695312 11.390625 21.109375 11.847656 C 20.988281 11.96875 20.804688 11.941406 20.652344 11.960938 C 20.644531 11.71875 20.671875 11.46875 20.613281 11.226562 C 20.539062 10.960938 20.308594 10.78125 20.207031 10.527344 Z M 20.207031 10.527344 "/>
<path style=" stroke:none;fill-rule:nonzero;fill:rgb(0.392157%,44.705882%,24.313725%);fill-opacity:1;" d="M 4.90625 10.542969 C 5.144531 9.949219 5.867188 9.90625 6.414062 9.898438 C 6.289062 10.28125 5.972656 10.546875 5.761719 10.882812 C 5.554688 11.203125 5.375 11.539062 5.199219 11.878906 C 5.023438 11.460938 4.832031 11.003906 4.90625 10.542969 Z M 4.90625 10.542969 "/>
<path style=" stroke:none;fill-rule:nonzero;fill:rgb(100%,100%,100%);fill-opacity:1;" d="M 23.207031 10.09375 C 23.789062 10.320312 24.390625 10.484375 25 10.617188 C 24.746094 11.222656 24.238281 11.699219 23.660156 11.992188 C 23.488281 12.09375 23.296875 12.035156 23.132812 11.949219 C 23.296875 11.34375 23.277344 10.710938 23.207031 10.09375 Z M 23.207031 10.09375 "/>
<path style=" stroke:none;fill-rule:nonzero;fill:rgb(100%,100%,100%);fill-opacity:1;" d="M 26.007812 10.691406 C 26.671875 10.601562 27.316406 10.386719 27.898438 10.050781 C 27.742188 10.917969 27.339844 11.785156 26.636719 12.339844 C 26.492188 12.46875 26.304688 12.519531 26.121094 12.546875 C 26.097656 11.925781 26.238281 11.289062 26.007812 10.691406 Z M 26.007812 10.691406 "/>
<path style=" stroke:none;fill-rule:nonzero;fill:rgb(95.294118%,45.490196%,21.568627%);fill-opacity:1;" d="M 33.191406 10.777344 C 33.230469 10.777344 33.3125 10.773438 33.351562 10.773438 C 33.441406 11.042969 33.53125 11.316406 33.613281 11.59375 C 33.816406 12.253906 33.789062 12.949219 33.777344 13.632812 C 33.773438 13.988281 33.707031 14.339844 33.617188 14.6875 C 33.519531 15.058594 33.367188 15.410156 33.234375 15.769531 C 33.175781 15.621094 33.121094 15.476562 33.066406 15.328125 C 32.816406 15.324219 32.570312 15.328125 32.324219 15.328125 C 32.34375 14.960938 32.25 14.59375 32.019531 14.300781 C 32 13.59375 32.101562 12.878906 31.976562 12.179688 C 31.925781 11.917969 31.941406 11.652344 31.960938 11.390625 C 32.097656 11.363281 32.234375 11.332031 32.375 11.304688 C 32.671875 11.175781 32.949219 11 33.191406 10.777344 Z M 33.191406 10.777344 "/>
<path style=" stroke:none;fill-rule:nonzero;fill:rgb(100%,100%,100%);fill-opacity:1;" d="M 17.8125 11.875 C 18.300781 11.660156 18.773438 11.414062 19.199219 11.097656 C 19.285156 11.824219 18.960938 12.546875 18.445312 13.039062 C 18.328125 13.148438 18.175781 13.195312 18.023438 13.21875 C 18.039062 12.761719 18.050781 12.285156 17.8125 11.875 Z M 17.8125 11.875 "/>
<path style=" stroke:none;fill-rule:nonzero;fill:rgb(100%,100%,100%);fill-opacity:1;" d="M 10.253906 11.769531 C 10.746094 11.496094 11.335938 11.417969 11.875 11.582031 C 11.585938 12.082031 11.441406 12.644531 11.433594 13.214844 C 10.699219 13.1875 10.371094 12.386719 10.253906 11.769531 Z M 10.253906 11.769531 "/>
<path style=" stroke:none;fill-rule:nonzero;fill:rgb(95.294118%,45.490196%,21.568627%);fill-opacity:1;" d="M 19.511719 11.839844 C 19.746094 11.832031 19.980469 11.835938 20.214844 11.839844 C 20.296875 12 20.382812 12.160156 20.464844 12.320312 C 20.820312 12.359375 21.175781 12.285156 21.4375 12.035156 C 21.695312 12.023438 21.953125 12.042969 22.207031 12.089844 C 22.304688 12.125 22.40625 12.160156 22.503906 12.195312 C 22.601562 12.230469 22.699219 12.269531 22.800781 12.304688 C 22.859375 12.3125 22.980469 12.324219 23.042969 12.332031 L 23.042969 12.394531 C 23.21875 12.449219 23.394531 12.515625 23.5625 12.585938 C 23.722656 12.652344 23.882812 12.714844 24.042969 12.78125 C 24.582031 12.992188 25.082031 13.285156 25.613281 13.507812 C 25.941406 13.660156 26.277344 13.804688 26.613281 13.9375 C 26.574219 13.945312 26.5 13.957031 26.460938 13.964844 C 26.125 14.566406 25.53125 14.964844 24.925781 15.261719 C 24.859375 15.292969 24.789062 15.324219 24.722656 15.355469 C 24.585938 15.378906 24.453125 15.398438 24.316406 15.417969 C 24.324219 14.976562 24.273438 14.535156 24.175781 14.105469 C 24.128906 13.980469 24.089844 13.855469 24.050781 13.730469 C 23.949219 13.433594 23.753906 13.195312 23.507812 13.007812 C 23.421875 13.007812 23.25 13.011719 23.167969 13.011719 C 23.117188 13.042969 23.023438 13.109375 22.976562 13.140625 C 22.832031 13.71875 22.457031 14.277344 21.878906 14.484375 C 21.871094 14.519531 21.855469 14.578125 21.847656 14.609375 C 21.476562 13.882812 21.085938 13.113281 20.386719 12.644531 C 20.195312 12.492188 19.945312 12.445312 19.707031 12.414062 C 19.628906 12.492188 19.550781 12.570312 19.472656 12.648438 C 19.472656 13.046875 19.460938 13.480469 19.207031 13.816406 C 18.964844 14.210938 18.484375 14.332031 18.058594 14.386719 C 17.808594 14.125 17.558594 13.847656 17.238281 13.671875 C 17.03125 13.554688 16.78125 13.59375 16.554688 13.566406 C 16.433594 14.320312 16.347656 15.121094 15.851562 15.738281 C 15.746094 15.816406 15.640625 15.894531 15.535156 15.976562 C 15.472656 15.976562 15.40625 15.980469 15.34375 15.984375 C 15.328125 15.808594 15.308594 15.632812 15.292969 15.460938 C 15.25 15.363281 15.203125 15.265625 15.164062 15.171875 C 15.144531 15.0625 15.128906 14.957031 15.109375 14.851562 C 14.964844 14.667969 14.8125 14.488281 14.644531 14.320312 C 14.609375 14.246094 14.570312 14.167969 14.535156 14.09375 C 14.347656 14.125 14.15625 14.148438 13.96875 14.167969 C 14.132812 14.179688 14.296875 14.1875 14.453125 14.230469 C 14.453125 14.253906 14.453125 14.300781 14.453125 14.324219 L 14.308594 14.246094 C 14.226562 14.246094 14.066406 14.246094 13.984375 14.246094 C 13.835938 14.472656 13.886719 14.75 13.832031 15.003906 C 13.777344 15.195312 13.652344 15.355469 13.546875 15.519531 C 13.441406 15.523438 13.332031 15.527344 13.226562 15.53125 C 13.089844 15.292969 12.953125 15.050781 12.820312 14.804688 C 12.726562 14.484375 12.714844 14.148438 12.683594 13.816406 C 12.578125 13.578125 12.265625 13.660156 12.0625 13.683594 C 11.625 13.933594 11.488281 14.457031 11.382812 14.914062 C 11.375 14.839844 11.355469 14.691406 11.34375 14.613281 C 11.300781 14.628906 11.21875 14.65625 11.175781 14.671875 C 11.070312 14.285156 11.042969 13.859375 10.796875 13.527344 L 10.773438 13.484375 C 10.683594 13.484375 10.503906 13.488281 10.417969 13.488281 C 9.949219 13.695312 9.671875 14.148438 9.488281 14.601562 C 9.425781 14.785156 9.371094 14.964844 9.3125 15.148438 C 9.199219 15.136719 9.085938 15.125 8.972656 15.117188 C 8.929688 14.375 8.871094 13.585938 9.207031 12.898438 C 9.34375 12.585938 9.617188 12.375 9.886719 12.183594 C 10.140625 12.6875 10.4375 13.246094 10.996094 13.460938 C 11.226562 13.464844 11.554688 13.574219 11.707031 13.347656 C 11.800781 12.992188 11.832031 12.621094 11.945312 12.269531 C 12.011719 12.148438 12.074219 12.027344 12.140625 11.90625 C 12.464844 11.90625 12.78125 11.980469 13.089844 12.082031 C 13.09375 12.316406 13.058594 12.546875 12.980469 12.765625 C 12.835938 13.019531 12.632812 13.453125 12.933594 13.660156 C 13.878906 13.78125 14.664062 13.0625 15.304688 12.460938 C 15.347656 12.828125 15.34375 13.210938 15.136719 13.53125 C 15.128906 13.664062 15.125 13.796875 15.125 13.929688 C 15.175781 13.960938 15.285156 14.019531 15.335938 14.046875 C 15.480469 14.050781 15.625 14.050781 15.765625 14.050781 C 16.496094 13.730469 17.058594 13.09375 17.269531 12.324219 C 17.394531 12.316406 17.519531 12.308594 17.644531 12.300781 C 17.730469 12.664062 17.722656 13.039062 17.714844 13.410156 C 18.058594 13.546875 18.476562 13.523438 18.734375 13.238281 C 19.09375 12.84375 19.417969 12.375 19.511719 11.839844 Z M 19.511719 11.839844 "/>
<path style=" stroke:none;fill-rule:nonzero;fill:rgb(100%,100%,100%);fill-opacity:1;" d="M 13.222656 12.949219 C 13.40625 12.664062 13.488281 12.332031 13.570312 12.007812 C 13.984375 12.179688 14.425781 12.261719 14.863281 12.339844 C 14.453125 12.898438 13.816406 13.34375 13.109375 13.386719 C 12.996094 13.226562 13.160156 13.089844 13.222656 12.949219 Z M 13.222656 12.949219 "/>
<path style=" stroke:none;fill-rule:nonzero;fill:rgb(100%,100%,100%);fill-opacity:1;" d="M 15.6875 12.40625 C 16.101562 12.367188 16.511719 12.296875 16.917969 12.210938 C 16.726562 12.917969 16.210938 13.652344 15.453125 13.800781 C 15.558594 13.339844 15.71875 12.886719 15.6875 12.40625 Z M 15.6875 12.40625 "/>
<path style=" stroke:none;fill-rule:nonzero;fill:rgb(0.392157%,44.705882%,24.313725%);fill-opacity:1;" d="M 3.90625 13.292969 C 4.203125 13.007812 4.53125 12.75 4.898438 12.558594 C 4.914062 13.152344 4.664062 13.714844 4.683594 14.3125 C 4.664062 14.585938 4.71875 14.890625 4.574219 15.140625 C 4.214844 14.953125 3.96875 14.59375 3.734375 14.273438 C 3.515625 13.957031 3.613281 13.523438 3.90625 13.292969 Z M 3.90625 13.292969 "/>
<path style=" stroke:none;fill-rule:nonzero;fill:rgb(100%,100%,100%);fill-opacity:1;" d="M 19.832031 12.796875 C 19.882812 12.800781 19.988281 12.804688 20.042969 12.804688 C 20.59375 13.273438 21.066406 13.839844 21.378906 14.492188 C 20.757812 14.210938 20.0625 14.164062 19.390625 14.1875 C 19.769531 13.832031 19.871094 13.296875 19.832031 12.796875 Z M 19.832031 12.796875 "/>
<path style=" stroke:none;fill-rule:nonzero;fill:rgb(100%,100%,100%);fill-opacity:1;" d="M 23.273438 13.476562 C 23.320312 13.472656 23.417969 13.457031 23.46875 13.449219 C 23.792969 14.101562 23.933594 14.847656 23.910156 15.574219 C 23.359375 15.257812 22.773438 15.015625 22.179688 14.789062 C 22.742188 14.570312 23.097656 14.035156 23.273438 13.476562 Z M 23.273438 13.476562 "/>
<path style=" stroke:none;fill-rule:nonzero;fill:rgb(100%,100%,100%);fill-opacity:1;" d="M 10.328125 13.917969 C 10.410156 13.824219 10.632812 13.800781 10.664062 13.953125 C 10.738281 14.335938 10.847656 14.71875 11.0625 15.050781 C 10.625 14.992188 10.179688 15.03125 9.753906 15.140625 C 9.78125 14.679688 9.988281 14.226562 10.328125 13.917969 Z M 10.328125 13.917969 "/>
<path style=" stroke:none;fill-rule:nonzero;fill:rgb(100%,100%,100%);fill-opacity:1;" d="M 11.632812 15.195312 C 11.761719 14.734375 11.835938 14.046875 12.394531 13.925781 C 12.417969 14.21875 12.386719 14.523438 12.480469 14.808594 C 12.605469 15.226562 12.921875 15.558594 13.050781 15.976562 C 12.59375 15.691406 12.136719 15.394531 11.632812 15.195312 Z M 11.632812 15.195312 "/>
<path style=" stroke:none;fill-rule:nonzero;fill:rgb(100%,100%,100%);fill-opacity:1;" d="M 16.785156 13.839844 C 17.261719 13.964844 17.574219 14.371094 17.894531 14.714844 C 17.433594 14.933594 16.957031 15.125 16.523438 15.398438 C 16.710938 14.898438 16.804688 14.371094 16.785156 13.839844 Z M 16.785156 13.839844 "/>
<path style=" stroke:none;fill-rule:nonzero;fill:rgb(100%,100%,100%);fill-opacity:1;" d="M 26.882812 14.128906 C 26.941406 14.136719 27.054688 14.152344 27.113281 14.160156 C 27.121094 14.773438 27.199219 15.410156 27.027344 16.011719 C 26.3125 16.019531 25.597656 15.992188 24.890625 15.871094 C 24.894531 15.84375 24.898438 15.78125 24.902344 15.753906 C 25.726562 15.46875 26.507812 14.941406 26.882812 14.128906 Z M 26.882812 14.128906 "/>
<path style=" stroke:none;fill-rule:nonzero;fill:rgb(100%,100%,100%);fill-opacity:1;" d="M 28.925781 14.917969 C 29.136719 14.683594 29.246094 14.382812 29.457031 14.152344 C 29.613281 14.097656 29.644531 14.273438 29.6875 14.382812 C 29.746094 14.910156 29.730469 15.453125 29.601562 15.96875 C 28.925781 16.058594 28.238281 16.117188 27.5625 15.996094 C 28.085938 15.734375 28.535156 15.347656 28.925781 14.917969 Z M 28.925781 14.917969 "/>
<path style=" stroke:none;fill-rule:nonzero;fill:rgb(95.294118%,45.490196%,21.568627%);fill-opacity:1;" d="M 27.578125 14.3125 C 27.882812 14.347656 28.183594 14.40625 28.484375 14.464844 C 28.480469 14.582031 28.472656 14.699219 28.46875 14.820312 C 28.195312 15.035156 27.949219 15.332031 27.582031 15.386719 C 27.574219 15.027344 27.574219 14.671875 27.578125 14.3125 Z M 27.578125 14.3125 "/>
<path style=" stroke:none;fill-rule:nonzero;fill:rgb(100%,100%,100%);fill-opacity:1;" d="M 14.25 14.496094 C 14.363281 14.554688 14.496094 14.59375 14.570312 14.703125 C 14.910156 15.152344 15.03125 15.726562 15.03125 16.28125 C 14.496094 16.53125 13.769531 16.640625 13.328125 16.160156 C 13.5625 15.871094 13.925781 15.695312 14.085938 15.351562 C 14.21875 15.085938 14.214844 14.78125 14.25 14.496094 Z M 14.25 14.496094 "/>
<path style=" stroke:none;fill-rule:nonzero;fill:rgb(100%,100%,100%);fill-opacity:1;" d="M 30.378906 14.628906 C 30.453125 14.492188 30.714844 14.480469 30.753906 14.652344 C 30.941406 15.007812 30.816406 15.414062 30.730469 15.78125 C 30.511719 15.816406 30.292969 15.855469 30.074219 15.894531 C 30.101562 15.460938 30.03125 14.957031 30.378906 14.628906 Z M 30.378906 14.628906 "/>
<path style=" stroke:none;fill-rule:nonzero;fill:rgb(100%,100%,100%);fill-opacity:1;" d="M 31.105469 15.753906 C 31.070312 15.226562 31.476562 14.875 31.707031 14.449219 C 32.042969 14.648438 31.972656 15.097656 31.925781 15.417969 C 31.753906 15.695312 31.386719 15.691406 31.105469 15.753906 Z M 31.105469 15.753906 "/>
<path style=" stroke:none;fill-rule:nonzero;fill:rgb(0.392157%,44.705882%,24.313725%);fill-opacity:1;" d="M 22.546875 18.261719 C 22.957031 18.257812 23.355469 18.152344 23.765625 18.152344 C 24.777344 18.335938 25.808594 18.183594 26.828125 18.277344 C 26.832031 18.316406 26.835938 18.390625 26.839844 18.425781 C 26.261719 18.550781 25.722656 18.855469 25.121094 18.875 C 24.539062 18.882812 23.953125 19.007812 23.378906 18.878906 C 23.082031 18.859375 22.804688 18.636719 22.511719 18.753906 C 22.285156 18.804688 22.636719 18.980469 22.664062 19.082031 C 22.1875 19.402344 21.601562 19.457031 21.046875 19.546875 C 20.375 19.636719 19.691406 19.710938 19.019531 19.609375 C 18.285156 19.507812 17.5 19.363281 16.945312 18.828125 C 16.949219 18.722656 16.953125 18.613281 16.953125 18.511719 C 17.839844 18.488281 18.726562 18.550781 19.609375 18.449219 C 20.222656 18.414062 20.839844 18.457031 21.449219 18.355469 C 21.753906 18.304688 22 18.613281 22.296875 18.542969 C 22.40625 18.476562 22.480469 18.371094 22.546875 18.261719 Z M 22.546875 18.261719 "/>
<path style=" stroke:none;fill-rule:nonzero;fill:rgb(0.392157%,44.705882%,24.313725%);fill-opacity:1;" d="M 15.636719 19.339844 C 15.953125 19.21875 16.300781 19.285156 16.617188 19.363281 C 17.199219 19.515625 17.773438 19.679688 18.339844 19.878906 C 18.292969 19.957031 18.246094 20.035156 18.199219 20.117188 C 17.363281 20.308594 16.515625 20.476562 15.65625 20.453125 C 14.847656 20.597656 14.042969 20.417969 13.230469 20.402344 C 13.257812 20.292969 13.28125 20.183594 13.304688 20.074219 C 14.121094 19.976562 14.871094 19.617188 15.636719 19.339844 Z M 15.636719 19.339844 "/>
</g>
</svg>
