<?xml version="1.0" encoding="UTF-8"?>
<svg xmlns="http://www.w3.org/2000/svg" xmlns:xlink="http://www.w3.org/1999/xlink" width="35pt" height="25pt" viewBox="0 0 35 25" version="1.1">
<g id="surface1">
<path style="fill-rule:nonzero;fill:rgb(100%,100%,100%);fill-opacity:1;stroke-width:7.5;stroke-linecap:butt;stroke-linejoin:miter;stroke:rgb(92.54902%,8.235294%,10.588235%);stroke-opacity:1;stroke-miterlimit:4;" d="M 372.894759 123.199812 C 372.894759 58.31086 290.59045 5.688014 189.112502 5.688014 C 87.592691 5.688014 5.288382 58.31086 5.288382 123.199812 C 5.288382 188.088764 87.592691 240.71161 189.112502 240.71161 C 290.59045 240.71161 372.894759 188.088764 372.894759 123.199812 Z M 372.894759 123.199812 " transform="matrix(0.0933085,0,0,0.0933085,-0.145794,1.191917)"/>
<path style=" stroke:none;fill-rule:nonzero;fill:rgb(10.196078%,9.019608%,9.411765%);fill-opacity:1;" d="M 6.75 5.382812 C 10.613281 3.214844 15.15625 2.527344 19.542969 2.804688 C 22.742188 3.046875 25.90625 3.964844 28.648438 5.644531 C 30.132812 6.566406 31.515625 7.734375 32.355469 9.300781 L 24.523438 9.300781 C 22.675781 7.5 20.203125 6.269531 17.601562 6.203125 C 15.671875 6.238281 13.757812 6.808594 12.160156 7.871094 C 10.96875 8.664062 9.929688 9.777344 9.550781 11.175781 C 9.148438 12.558594 9.59375 14.039062 10.324219 15.214844 C 11.574219 17.15625 13.804688 18.324219 16.070312 18.527344 C 17.683594 18.667969 19.328125 18.519531 20.867188 18.015625 C 22.546875 17.492188 24.066406 16.261719 24.765625 14.628906 L 14.371094 14.628906 L 14.371094 11.519531 L 33.175781 11.519531 C 33.359375 11.484375 33.324219 11.765625 33.351562 11.886719 C 33.378906 12.6875 33.398438 13.507812 33.15625 14.292969 C 32.550781 16.484375 30.878906 18.230469 28.996094 19.433594 C 25.289062 21.804688 20.785156 22.597656 16.433594 22.550781 C 14.101562 22.457031 11.742188 22.101562 9.519531 21.28125 C 7.523438 20.535156 5.640625 19.425781 4.117188 17.914062 C 2.894531 16.617188 1.871094 15.046875 1.644531 13.246094 C 1.5625 12.285156 1.597656 11.296875 1.972656 10.390625 C 2.839844 8.179688 4.742188 6.558594 6.75 5.382812 Z M 6.75 5.382812 "/>
</g>
</svg>
