<?xml version="1.0" encoding="UTF-8"?>
<svg xmlns="http://www.w3.org/2000/svg" xmlns:xlink="http://www.w3.org/1999/xlink" width="35pt" height="25pt" viewBox="0 0 35 25" version="1.1">
<g id="surface1">
<path style=" stroke:none;fill-rule:evenodd;fill:rgb(100%,100%,100%);fill-opacity:1;" d="M 5 25 L 30 25 L 30 0 L 5 0 Z M 5 25 "/>
<path style=" stroke:none;fill-rule:evenodd;fill:rgb(13.72549%,12.156863%,12.54902%);fill-opacity:1;" d="M 19.996094 19.167969 L 20.324219 19.167969 L 19.597656 17.617188 L 18.410156 18.730469 L 18.410156 19.167969 L 19.195312 19.167969 L 19.195312 22.773438 L 12.84375 22.773438 L 12.84375 19.167969 L 13.84375 19.167969 L 13.84375 16.261719 L 12.335938 16.261719 L 9.796875 13.21875 L 9.796875 5.867188 L 8.816406 5.867188 L 8.816406 2.109375 L 15.179688 2.109375 L 15.179688 5.875 L 14.488281 5.875 L 14.488281 8.269531 L 17.40625 8.269531 L 17.40625 5.875 L 16.585938 5.875 L 16.585938 2.109375 L 22.898438 2.109375 L 22.898438 5.875 L 22.1875 5.875 L 22.1875 8.269531 L 26.054688 8.269531 L 26.054688 11.875 L 25.472656 11.875 L 22.589844 14.605469 L 24.703125 19.167969 L 26.164062 19.167969 L 26.164062 22.773438 L 19.996094 22.773438 L 19.996094 19.167969 "/>
<path style=" stroke:none;fill-rule:evenodd;fill:rgb(15.686275%,36.862745%,67.45098%);fill-opacity:1;" d="M 10.105469 3.367188 L 13.90625 3.367188 L 13.90625 4.4375 L 13.117188 4.4375 L 13.117188 8.484375 L 12.773438 8.484375 L 12.773438 11.875 L 13.738281 11.875 L 13.738281 14.875 L 13.007812 14.875 L 11.09375 12.644531 L 11.09375 4.4375 L 10.105469 4.4375 L 10.105469 3.367188 "/>
<path style=" stroke:none;fill-rule:evenodd;fill:rgb(15.686275%,36.862745%,67.45098%);fill-opacity:1;" d="M 17.859375 3.386719 L 21.53125 3.386719 L 21.53125 4.4375 L 20.726562 4.4375 L 20.726562 8.269531 L 19.832031 8.269531 L 19.832031 11.652344 L 20.171875 11.652344 L 18.285156 13.476562 L 18.304688 11.652344 L 19.140625 11.652344 L 19.140625 8.269531 L 18.757812 8.269531 L 18.757812 4.4375 L 17.859375 4.4375 L 17.859375 3.386719 "/>
<path style=" stroke:none;fill-rule:evenodd;fill:rgb(15.686275%,36.862745%,67.45098%);fill-opacity:1;" d="M 14.089844 9.546875 L 17.84375 9.546875 L 17.84375 10.734375 L 16.976562 10.734375 L 16.976562 16.3125 L 22.664062 10.722656 L 21.175781 10.722656 L 21.175781 9.59375 L 24.824219 9.59375 L 24.824219 10.566406 L 21.054688 14.371094 L 23.847656 20.390625 L 24.945312 20.390625 L 24.945312 21.574219 L 21.292969 21.574219 L 21.292969 20.390625 L 22.269531 20.390625 L 19.941406 15.484375 L 17.058594 18.308594 L 17.058594 20.390625 L 17.933594 20.390625 L 17.933594 21.574219 L 14.285156 21.574219 L 14.285156 20.390625 L 15.125 20.390625 L 15.125 10.785156 L 14.089844 10.785156 L 14.089844 9.546875 "/>
<path style=" stroke:none;fill-rule:evenodd;fill:rgb(15.686275%,36.862745%,67.45098%);fill-opacity:1;" d="M 27.894531 22.375 C 27.894531 22.660156 27.644531 22.890625 27.335938 22.890625 C 27.027344 22.890625 26.777344 22.660156 26.777344 22.375 C 26.777344 22.089844 27.027344 21.855469 27.335938 21.855469 C 27.644531 21.855469 27.894531 22.089844 27.894531 22.375 Z M 27.339844 21.9375 C 27.078125 21.9375 26.867188 22.132812 26.867188 22.375 C 26.867188 22.617188 27.078125 22.8125 27.339844 22.8125 C 27.601562 22.8125 27.8125 22.617188 27.8125 22.375 C 27.8125 22.132812 27.601562 21.9375 27.339844 21.9375 "/>
<path style=" stroke:none;fill-rule:evenodd;fill:rgb(15.686275%,36.862745%,67.45098%);fill-opacity:1;" d="M 27.238281 22.144531 L 27.335938 22.144531 C 27.394531 22.144531 27.4375 22.152344 27.464844 22.167969 C 27.488281 22.183594 27.503906 22.210938 27.503906 22.246094 C 27.503906 22.277344 27.488281 22.300781 27.464844 22.316406 C 27.441406 22.332031 27.398438 22.339844 27.339844 22.339844 L 27.238281 22.339844 Z M 27.585938 22.339844 C 27.613281 22.308594 27.625 22.273438 27.625 22.234375 C 27.625 22.179688 27.601562 22.140625 27.558594 22.113281 C 27.515625 22.085938 27.449219 22.070312 27.359375 22.070312 L 27.117188 22.070312 L 27.117188 22.660156 L 27.238281 22.660156 L 27.238281 22.410156 L 27.355469 22.410156 L 27.488281 22.660156 L 27.621094 22.660156 L 27.480469 22.390625 C 27.523438 22.382812 27.5625 22.367188 27.585938 22.339844 "/>
</g>
</svg>
