<?xml version="1.0" encoding="UTF-8"?>
<svg xmlns="http://www.w3.org/2000/svg" xmlns:xlink="http://www.w3.org/1999/xlink" width="35pt" height="25pt" viewBox="0 0 35 25" version="1.1">
<g id="surface1">
<path style="fill-rule:evenodd;fill:rgb(27.45098%,11.372549%,48.627451%);fill-opacity:1;stroke-width:4;stroke-linecap:butt;stroke-linejoin:miter;stroke:rgb(99.215686%,81.568627%,13.72549%);stroke-opacity:1;stroke-miterlimit:4;" d="M 69.245882 183.581609 C 69.245882 221.251686 69.245882 258.921763 69.245882 296.642952 C 95.364483 296.642952 121.534198 296.642952 147.652799 296.642952 C 147.652799 305.127664 147.652799 313.663489 147.652799 322.148201 C 106.915959 322.148201 66.230231 322.148201 25.493391 322.148201 C 25.493391 275.942299 25.493391 229.78751 25.493391 183.581609 C 40.060517 183.581609 54.678756 183.581609 69.245882 183.581609 Z M 69.245882 183.581609 " transform="matrix(0.0764242,0,0,0.0764242,-1.795969,-5.787894)"/>
<path style="fill-rule:evenodd;fill:rgb(27.45098%,11.372549%,48.627451%);fill-opacity:1;stroke-width:4;stroke-linecap:butt;stroke-linejoin:miter;stroke:rgb(99.215686%,81.568627%,13.72549%);stroke-opacity:1;stroke-miterlimit:4;" d="M 313.564698 183.581609 C 313.564698 191.504081 313.564698 199.37544 313.564698 207.297912 L 233.317723 207.297912 C 221.561797 208.064603 210.214772 213.738115 209.652532 223.705096 C 209.345856 228.509692 210.112547 235.563248 209.60142 240.367844 C 209.60142 240.367844 284.430446 239.805604 313.564698 240.112281 C 313.564698 260.148468 313.564698 280.235768 313.564698 300.271956 C 306.153354 310.903402 295.113005 318.161409 280.75033 321.637074 C 275.792396 322.863779 239.349024 322.148201 222.3796 322.148201 C 201.218933 322.148201 180.569393 322.148201 164.059983 322.148201 C 164.059983 322.148201 164.00887 300.936421 164.213321 296.234051 C 179.904927 296.234051 199.634439 296.642952 216.910539 296.642952 C 234.135527 296.642952 251.513853 298.636349 264.343146 292.962836 C 269.147742 288.056015 267.61436 266.639784 267.61436 266.639784 C 268.227713 265.157515 164.213321 266.077544 164.213321 266.077544 L 164.059983 216.395977 C 166.25783 199.988793 184.198396 184.143849 196.874351 183.581609 C 212.259281 182.917143 233.931076 183.581609 255.245081 183.581609 C 275.945734 183.581609 297.106402 183.581609 313.564698 183.581609 Z M 313.564698 183.581609 " transform="matrix(0.0764242,0,0,0.0764242,-1.795969,-5.787894)"/>
<path style="fill-rule:evenodd;fill:rgb(27.45098%,11.372549%,48.627451%);fill-opacity:1;stroke-width:4;stroke-linecap:butt;stroke-linejoin:miter;stroke:rgb(99.215686%,81.568627%,13.72549%);stroke-opacity:1;stroke-miterlimit:4;" d="M 375.564432 183.581609 C 375.564432 220.638333 375.564432 257.74617 375.564432 294.802894 C 376.382235 295.365134 430.203933 295.058458 430.203933 295.058458 C 437.66639 286.062619 435.570769 278.906837 435.724107 240.112281 C 435.77522 218.9005 435.724107 198.302073 435.724107 183.581609 C 450.291233 183.581609 464.909472 183.581609 479.476598 183.581609 C 479.476598 222.478391 479.476598 261.375173 479.476598 300.271956 C 477.125413 306.712159 458.87817 320.768158 449.013415 321.637074 C 448.451175 321.688187 404.749797 322.148201 388.2915 322.148201 C 369.022003 322.148201 348.423576 322.148201 331.811941 322.148201 C 331.811941 275.942299 331.811941 229.78751 331.811941 183.581609 C 346.379067 183.581609 360.946193 183.581609 375.564432 183.581609 Z M 375.564432 183.581609 " transform="matrix(0.0764242,0,0,0.0764242,-1.795969,-5.787894)"/>
</g>
</svg>
