<?xml version="1.0" encoding="UTF-8"?>
<svg xmlns="http://www.w3.org/2000/svg" xmlns:xlink="http://www.w3.org/1999/xlink" width="35pt" height="25pt" viewBox="0 0 35 25" version="1.1">
<g id="surface1">
<path style=" stroke:none;fill-rule:nonzero;fill:rgb(0%,0%,0%);fill-opacity:1;" d="M 29.070312 19.65625 L 29.070312 0 L 19.410156 0 L 17.910156 2.566406 L 16.410156 0 L 6.75 0 L 6.75 19.65625 C 6.75 19.65625 6.75 25 17.910156 25 C 29.070312 25 29.070312 19.65625 29.070312 19.65625 Z M 29.070312 19.65625 "/>
<path style=" stroke:none;fill-rule:nonzero;fill:rgb(94.509804%,72.156863%,19.215686%);fill-opacity:1;" d="M 9.539062 13.738281 L 15.332031 13.738281 L 15.332031 15.03125 C 15.332031 15.03125 14.6875 15.03125 14.6875 15.464844 L 14.6875 18.042969 C 14.6875 18.042969 14.6875 19.332031 17.910156 19.332031 C 21.136719 19.332031 21.136719 18.042969 21.136719 18.042969 L 21.136719 15.464844 C 21.136719 15.03125 20.488281 15.03125 20.488281 15.03125 L 20.488281 13.738281 L 26.28125 13.738281 L 26.28125 15.03125 C 26.28125 15.03125 25.636719 15.03125 25.636719 15.464844 L 25.636719 18.464844 C 25.636719 18.464844 25.636719 21.898438 17.910156 21.898438 C 10.183594 21.898438 10.183594 18.464844 10.183594 18.464844 L 10.183594 15.464844 C 10.183594 15.03125 9.539062 15.03125 9.539062 15.03125 Z M 9.539062 13.738281 "/>
<path style=" stroke:none;fill-rule:nonzero;fill:rgb(94.509804%,72.156863%,19.215686%);fill-opacity:1;" d="M 9.539062 2.789062 L 15.121094 2.789062 L 17.910156 7.515625 L 20.699219 2.789062 L 26.28125 2.789062 L 26.28125 4.289062 C 26.28125 4.289062 25.636719 4.289062 25.636719 4.726562 L 25.636719 9.226562 C 25.636719 9.660156 26.28125 9.660156 26.28125 9.660156 L 26.28125 11.160156 L 21.136719 11.160156 L 21.136719 9.660156 C 21.136719 9.660156 21.78125 9.660156 21.78125 9.226562 L 21.78125 5.792969 L 18.554688 11.160156 L 17.265625 11.160156 L 14.042969 5.792969 L 14.042969 9.226562 C 14.066406 9.609375 14.6875 9.660156 14.6875 9.660156 L 14.6875 11.160156 L 9.539062 11.160156 L 9.539062 9.660156 C 9.539062 9.660156 10.183594 9.660156 10.183594 9.226562 L 10.183594 4.726562 C 10.171875 4.289062 9.539062 4.289062 9.539062 4.289062 Z M 9.539062 2.789062 "/>
</g>
</svg>
