<?xml version="1.0" encoding="UTF-8"?>
<svg xmlns="http://www.w3.org/2000/svg" xmlns:xlink="http://www.w3.org/1999/xlink" width="36pt" height="25pt" viewBox="0 0 36 25" version="1.1">
<g id="surface1">
<path style=" stroke:none;fill-rule:nonzero;fill:rgb(81.568627%,82.745098%,83.921569%);fill-opacity:1;" d="M 5.316406 21.566406 L 5.316406 19.878906 L 5.675781 19.339844 C 6.210938 18.535156 6.269531 18.441406 6.253906 18.429688 C 6.234375 18.410156 5.378906 18.871094 4.730469 19.253906 C 4.410156 19.441406 4.136719 19.601562 4.121094 19.609375 C 4.109375 19.613281 4.097656 19.011719 4.097656 18.265625 C 4.097656 17.28125 4.085938 16.910156 4.058594 16.910156 C 4.011719 16.910156 4.011719 16.914062 2.8125 17.648438 C 2.28125 17.972656 1.492188 18.472656 1.054688 18.761719 C 0.617188 19.046875 0.257812 19.277344 0.253906 19.269531 C 0.246094 19.265625 0.535156 18.335938 0.984375 16.929688 C 1.097656 16.582031 1.421875 15.558594 1.707031 14.660156 L 2.222656 13.027344 L 2.0625 12.675781 C 1.976562 12.484375 1.667969 11.820312 1.378906 11.199219 L 0.855469 10.074219 L 1.164062 9.859375 C 2.054688 9.25 2.894531 8.773438 4.230469 8.109375 C 4.816406 7.820312 5.558594 7.472656 5.882812 7.335938 C 6.203125 7.199219 6.464844 7.078125 6.464844 7.066406 C 6.464844 7.054688 6.207031 6.636719 5.890625 6.136719 L 5.316406 5.230469 L 5.316406 1.933594 L 9.617188 1.933594 L 13.921875 1.9375 L 14.304688 2.527344 C 14.515625 2.851562 15.230469 3.949219 15.894531 4.96875 L 17.101562 6.816406 L 18.894531 6.816406 L 19.613281 5.71875 C 20.007812 5.113281 20.726562 4.015625 21.203125 3.277344 L 22.074219 1.9375 L 26.378906 1.9375 L 30.683594 1.933594 L 30.683594 5.230469 L 30.109375 6.136719 C 29.792969 6.636719 29.535156 7.054688 29.535156 7.066406 C 29.535156 7.078125 29.796875 7.199219 30.117188 7.335938 C 30.898438 7.667969 32.699219 8.558594 33.390625 8.960938 C 33.949219 9.28125 34.546875 9.65625 34.933594 9.925781 L 35.144531 10.070312 L 34.621094 11.199219 C 34.332031 11.820312 34.023438 12.484375 33.9375 12.675781 L 33.777344 13.027344 L 34.292969 14.660156 C 34.578125 15.558594 34.902344 16.582031 35.011719 16.929688 C 35.453125 18.304688 35.753906 19.265625 35.746094 19.269531 C 35.742188 19.273438 35.40625 19.058594 34.996094 18.792969 C 33.8125 18.019531 32.082031 16.949219 31.964844 16.917969 C 31.90625 16.90625 31.902344 16.972656 31.902344 18.261719 C 31.902344 19.007812 31.890625 19.613281 31.878906 19.609375 C 31.863281 19.601562 31.589844 19.441406 31.269531 19.253906 C 30.613281 18.867188 29.765625 18.410156 29.746094 18.429688 C 29.738281 18.4375 29.945312 18.765625 30.207031 19.160156 L 30.683594 19.878906 L 30.683594 23.25 L 21.246094 23.25 L 21.230469 16.367188 L 20.007812 18.265625 C 19.335938 19.308594 18.613281 20.429688 18.40625 20.757812 C 18.195312 21.082031 18.011719 21.347656 18 21.347656 C 17.984375 21.347656 17.804688 21.082031 17.59375 20.757812 C 17.386719 20.429688 16.664062 19.308594 15.992188 18.265625 L 14.769531 16.367188 L 14.753906 23.25 L 5.3125 23.25 Z M 4.214844 9.683594 C 1.457031 18.84375 2.835938 14.265625 4.214844 9.683594 Z M 4.214844 9.683594 "/>
<path style=" stroke:none;fill-rule:nonzero;fill:rgb(38.431373%,4.313725%,4.705882%);fill-opacity:1;" d="M 6.058594 22.523438 C 6.058594 22.511719 6.058594 21.953125 6.058594 21.285156 L 6.0625 20.070312 L 7.210938 18.34375 L 7.210938 17.214844 L 7.117188 17.253906 C 6.816406 17.378906 5.601562 17.976562 5.214844 18.191406 L 4.757812 18.441406 L 4.746094 17.144531 C 4.742188 16.429688 4.726562 15.84375 4.710938 15.84375 C 4.613281 15.84375 2.976562 16.746094 2.160156 17.25 C 1.867188 17.429688 1.605469 17.578125 1.582031 17.578125 C 1.554688 17.578125 1.519531 17.558594 1.5 17.539062 C 1.46875 17.496094 1.5625 17.195312 2.609375 13.90625 L 2.914062 12.949219 L 2.621094 12.320312 C 2.460938 11.972656 2.1875 11.382812 2.011719 11.007812 C 1.757812 10.46875 1.699219 10.308594 1.722656 10.257812 C 1.742188 10.21875 1.964844 10.0625 2.222656 9.902344 C 3.640625 9.035156 5.0625 8.324219 6.667969 7.683594 L 7.191406 7.472656 L 7.203125 7.171875 L 7.210938 6.867188 L 6.632812 5.953125 L 6.058594 5.039062 L 6.058594 2.652344 L 13.515625 2.652344 L 14.960938 4.871094 L 16.410156 7.089844 L 16.960938 7.070312 C 17.261719 7.0625 17.730469 7.054688 18 7.054688 C 18.269531 7.054688 18.738281 7.0625 19.039062 7.070312 L 19.589844 7.089844 L 21.039062 4.871094 L 22.484375 2.652344 L 29.941406 2.652344 L 29.941406 5.039062 L 29.367188 5.953125 L 28.789062 6.867188 L 28.796875 7.171875 L 28.808594 7.472656 L 29.332031 7.683594 C 30.941406 8.324219 32.359375 9.035156 33.777344 9.902344 C 34.035156 10.0625 34.261719 10.21875 34.277344 10.257812 C 34.300781 10.308594 34.242188 10.46875 33.988281 11.007812 C 33.8125 11.382812 33.539062 11.972656 33.378906 12.320312 L 33.085938 12.949219 L 33.390625 13.90625 C 34.4375 17.195312 34.53125 17.496094 34.5 17.539062 C 34.480469 17.558594 34.445312 17.578125 34.421875 17.578125 C 34.394531 17.578125 34.136719 17.429688 33.839844 17.25 C 33.023438 16.746094 31.386719 15.84375 31.289062 15.84375 C 31.273438 15.84375 31.257812 16.429688 31.253906 17.144531 L 31.242188 18.441406 L 30.789062 18.191406 C 30.398438 17.976562 29.1875 17.378906 28.882812 17.253906 L 28.792969 17.214844 L 28.792969 18.34375 L 29.28125 19.078125 C 29.550781 19.480469 29.808594 19.871094 29.855469 19.945312 L 29.941406 20.078125 L 29.941406 21.304688 L 29.945312 22.53125 L 25.96875 22.542969 L 21.992188 22.550781 L 21.992188 15.320312 L 21.644531 15.277344 C 21.453125 15.257812 21.257812 15.234375 21.207031 15.222656 C 21.125 15.207031 21.101562 15.226562 20.964844 15.433594 C 20.882812 15.558594 20.347656 16.390625 19.777344 17.277344 C 18.085938 19.910156 18.019531 20.011719 18 20.011719 C 17.984375 20.011719 17.847656 19.800781 16.460938 17.644531 C 14.800781 15.066406 14.914062 15.226562 14.800781 15.234375 C 14.746094 15.234375 14.546875 15.257812 14.355469 15.277344 L 14.007812 15.320312 L 14.007812 22.550781 L 10.035156 22.550781 C 7.847656 22.550781 6.058594 22.539062 6.058594 22.523438 Z M 7.207031 16.386719 C 9.902344 15.265625 12.835938 14.539062 15.699219 14.296875 C 17.300781 14.160156 18.699219 14.160156 20.300781 14.296875 C 23.554688 14.574219 26.953125 15.484375 29.863281 16.863281 L 30.378906 17.105469 L 30.378906 10.902344 L 29.730469 10.59375 C 26.574219 9.085938 23.230469 8.210938 19.675781 7.957031 C 18.890625 7.902344 17.109375 7.902344 16.324219 7.957031 C 12.769531 8.210938 9.410156 9.089844 6.269531 10.589844 L 5.617188 10.902344 L 5.617188 17.105469 L 6.136719 16.863281 C 6.417969 16.730469 6.902344 16.515625 7.207031 16.386719 Z M 27.996094 15.234375 C 27.183594 14.90625 25.925781 14.480469 25.121094 14.257812 C 24.878906 14.191406 24.660156 14.132812 24.636719 14.125 C 24.609375 14.117188 24.597656 14.007812 24.597656 13.742188 L 24.597656 13.367188 L 24.683594 13.390625 C 24.734375 13.402344 24.816406 13.421875 24.871094 13.433594 L 24.96875 13.453125 L 24.96875 10.453125 L 24.78125 10.410156 L 24.597656 10.371094 L 24.597656 9.988281 C 24.597656 9.777344 24.601562 9.605469 24.609375 9.605469 C 24.613281 9.605469 24.839844 9.667969 25.105469 9.742188 C 25.796875 9.933594 26.992188 10.332031 27.660156 10.597656 L 28.234375 10.824219 L 28.242188 11.332031 C 28.246094 11.613281 28.242188 11.839844 28.230469 11.839844 C 28.214844 11.839844 28.011719 11.765625 27.769531 11.671875 L 27.335938 11.5 L 27.335938 11.371094 C 27.335938 11.210938 27.335938 11.210938 26.546875 10.945312 C 26.109375 10.796875 25.941406 10.753906 25.929688 10.785156 C 25.921875 10.808594 25.917969 11.058594 25.921875 11.339844 L 25.933594 11.851562 L 26.457031 12.03125 C 26.746094 12.132812 27.035156 12.234375 27.097656 12.257812 L 27.21875 12.296875 L 27.226562 12.640625 C 27.238281 12.957031 27.234375 12.980469 27.175781 12.960938 C 26.839844 12.832031 25.953125 12.550781 25.9375 12.566406 C 25.925781 12.578125 25.914062 12.839844 25.914062 13.144531 C 25.914062 13.558594 25.925781 13.714844 25.957031 13.734375 C 25.992188 13.753906 27.042969 14.125 27.273438 14.199219 C 27.324219 14.214844 27.335938 14.1875 27.34375 14.050781 L 27.351562 13.886719 L 27.792969 14.058594 L 28.234375 14.234375 L 28.242188 14.523438 C 28.246094 14.683594 28.246094 14.929688 28.242188 15.070312 L 28.234375 15.328125 Z M 7.875 14.835938 L 7.546875 14.636719 L 7.546875 14.09375 L 7.945312 13.933594 C 8.164062 13.847656 8.367188 13.769531 8.402344 13.757812 C 8.453125 13.738281 8.460938 13.761719 8.460938 13.988281 C 8.460938 14.128906 8.472656 14.242188 8.484375 14.242188 C 8.5 14.242188 8.816406 14.140625 9.1875 14.011719 L 9.863281 13.785156 L 9.875 13.128906 C 9.882812 12.566406 9.875 12.476562 9.832031 12.476562 C 9.777344 12.476562 8.632812 12.867188 8.3125 12.996094 C 8.199219 13.039062 8.089844 13.074219 8.066406 13.074219 C 8.039062 13.074219 7.914062 13.007812 7.785156 12.921875 L 7.546875 12.765625 L 7.546875 12.160156 L 7.550781 11.558594 L 7.929688 11.042969 C 8.367188 10.445312 8.222656 10.535156 9.402344 10.140625 L 10.085938 9.910156 L 10.457031 10.148438 L 10.828125 10.390625 L 10.828125 10.804688 L 10.683594 10.84375 C 10.527344 10.882812 9.992188 11.039062 9.925781 11.066406 C 9.894531 11.078125 9.882812 11.03125 9.882812 10.90625 C 9.882812 10.753906 9.875 10.738281 9.824219 10.757812 C 9.789062 10.769531 9.535156 10.855469 9.257812 10.949219 C 8.976562 11.042969 8.683594 11.144531 8.605469 11.179688 L 8.460938 11.238281 L 8.460938 11.742188 C 8.460938 12.015625 8.476562 12.242188 8.492188 12.242188 C 8.507812 12.242188 8.625 12.203125 8.753906 12.15625 C 9.148438 12.007812 10.164062 11.671875 10.238281 11.667969 C 10.273438 11.664062 10.421875 11.738281 10.566406 11.835938 L 10.828125 12.011719 L 10.828125 13.460938 L 10.433594 13.949219 L 10.039062 14.441406 L 9.511719 14.609375 C 9.222656 14.703125 8.824219 14.839844 8.632812 14.910156 C 8.4375 14.984375 8.261719 15.042969 8.242188 15.042969 C 8.222656 15.039062 8.058594 14.949219 7.875 14.835938 Z M 12.664062 13.40625 L 12.671875 13.03125 L 12.773438 13.007812 C 12.828125 12.992188 12.917969 12.972656 12.96875 12.960938 L 13.0625 12.941406 L 13.0625 11.457031 C 13.0625 10.066406 13.058594 9.972656 13 9.972656 C 12.96875 9.972656 12.78125 10.007812 12.582031 10.046875 L 12.21875 10.121094 L 12.207031 10.386719 L 12.199219 10.652344 L 11.859375 10.726562 C 11.675781 10.769531 11.511719 10.804688 11.496094 10.804688 C 11.480469 10.808594 11.472656 10.519531 11.480469 10.167969 L 11.488281 9.523438 L 11.742188 9.464844 C 12.714844 9.238281 14.464844 8.945312 15.207031 8.890625 C 15.359375 8.878906 15.515625 8.863281 15.554688 8.855469 L 15.632812 8.839844 L 15.632812 10.132812 L 15.421875 10.15625 C 15.304688 10.167969 15.136719 10.183594 15.046875 10.195312 L 14.886719 10.214844 L 14.886719 9.964844 C 14.886719 9.828125 14.878906 9.710938 14.871094 9.699219 C 14.855469 9.683594 14.25 9.753906 14.085938 9.792969 L 14.007812 9.808594 L 14.007812 12.78125 L 14.414062 12.734375 L 14.414062 13.507812 L 14.332031 13.507812 C 14.257812 13.507812 13.03125 13.707031 12.761719 13.761719 L 12.652344 13.785156 Z M 22.449219 13.660156 C 22.40625 13.644531 21.367188 13.488281 21.101562 13.460938 L 20.910156 13.4375 L 20.910156 12.683594 L 21.113281 12.699219 L 21.316406 12.71875 L 21.316406 9.742188 L 21.238281 9.726562 C 21.175781 9.710938 20.546875 9.640625 20.488281 9.640625 C 20.476562 9.640625 20.46875 9.75 20.46875 9.886719 C 20.46875 10.023438 20.457031 10.140625 20.445312 10.148438 C 20.429688 10.15625 20.253906 10.148438 20.054688 10.128906 L 19.691406 10.097656 L 19.691406 8.804688 L 19.867188 8.824219 C 19.964844 8.832031 20.285156 8.863281 20.582031 8.890625 C 21.488281 8.976562 22.855469 9.195312 23.683594 9.386719 L 23.867188 9.429688 L 23.878906 10.070312 C 23.886719 10.683594 23.882812 10.714844 23.824219 10.699219 C 23.792969 10.691406 23.625 10.65625 23.453125 10.621094 L 23.144531 10.558594 L 23.132812 10.292969 L 23.125 10.023438 L 22.71875 9.953125 C 22.496094 9.914062 22.308594 9.882812 22.304688 9.886719 C 22.300781 9.890625 22.296875 10.566406 22.296875 11.382812 L 22.296875 12.871094 L 22.421875 12.894531 C 22.683594 12.9375 22.667969 12.910156 22.667969 13.3125 L 22.667969 13.675781 L 22.574219 13.671875 C 22.523438 13.671875 22.464844 13.664062 22.449219 13.660156 Z M 15.367188 13.003906 L 15.378906 12.625 L 15.558594 12.609375 L 15.742188 12.59375 L 15.835938 12.324219 C 15.890625 12.179688 16.199219 11.324219 16.523438 10.425781 L 17.113281 8.789062 L 17.261719 8.765625 C 17.339844 8.753906 17.585938 8.742188 17.800781 8.742188 L 18.195312 8.738281 L 18.253906 8.898438 C 18.359375 9.191406 19.191406 11.585938 19.34375 12.042969 C 19.429688 12.289062 19.511719 12.511719 19.53125 12.535156 C 19.550781 12.558594 19.640625 12.574219 19.746094 12.574219 L 19.929688 12.574219 L 19.929688 13.351562 L 19.714844 13.332031 C 19.601562 13.320312 19.226562 13.300781 18.886719 13.289062 L 18.269531 13.265625 L 18.269531 12.507812 L 18.441406 12.507812 C 18.53125 12.507812 18.609375 12.496094 18.609375 12.484375 C 18.605469 12.46875 18.554688 12.316406 18.492188 12.140625 L 18.378906 11.824219 L 18.230469 11.796875 C 18.148438 11.78125 17.804688 11.78125 17.464844 11.796875 L 16.84375 11.824219 L 16.714844 12.167969 C 16.644531 12.355469 16.597656 12.515625 16.605469 12.523438 C 16.617188 12.535156 16.699219 12.542969 16.789062 12.542969 L 16.949219 12.542969 L 16.949219 13.269531 L 16.773438 13.289062 C 16.675781 13.296875 16.429688 13.316406 16.222656 13.324219 C 16.019531 13.335938 15.742188 13.351562 15.605469 13.363281 L 15.359375 13.386719 Z M 17.78125 11.109375 L 18.128906 11.109375 L 17.894531 10.433594 C 17.660156 9.761719 17.640625 9.714844 17.613281 9.742188 C 17.589844 9.765625 17.121094 11.078125 17.121094 11.117188 C 17.121094 11.136719 17.179688 11.140625 17.277344 11.128906 C 17.363281 11.117188 17.589844 11.109375 17.78125 11.109375 Z M 3.640625 15.519531 C 3.917969 15.371094 4.28125 15.1875 4.445312 15.105469 L 4.738281 14.960938 L 4.738281 12.707031 C 4.738281 10.546875 4.742188 10.449219 4.800781 10.394531 C 4.890625 10.316406 6.078125 9.730469 6.667969 9.476562 C 6.9375 9.359375 7.175781 9.25 7.199219 9.230469 C 7.253906 9.1875 7.261719 8.304688 7.207031 8.304688 C 7.085938 8.304688 5.738281 8.894531 4.828125 9.34375 C 3.828125 9.835938 2.675781 10.488281 2.675781 10.5625 C 2.675781 10.582031 2.910156 11.105469 3.199219 11.726562 C 3.488281 12.34375 3.722656 12.875 3.722656 12.902344 C 3.722656 12.933594 3.511719 13.628906 3.25 14.449219 C 2.992188 15.269531 2.777344 15.949219 2.777344 15.960938 C 2.777344 15.972656 2.859375 15.941406 2.957031 15.886719 C 3.054688 15.832031 3.363281 15.664062 3.640625 15.519531 Z M 32.75 14.453125 C 32.488281 13.632812 32.273438 12.933594 32.273438 12.902344 C 32.273438 12.875 32.511719 12.34375 32.800781 11.726562 C 33.085938 11.105469 33.324219 10.582031 33.324219 10.5625 C 33.324219 10.523438 32.753906 10.179688 32.113281 9.824219 C 31.738281 9.617188 30.589844 9.054688 30.109375 8.839844 C 29.621094 8.621094 28.839844 8.304688 28.792969 8.304688 C 28.738281 8.304688 28.746094 9.1875 28.800781 9.230469 C 28.824219 9.25 29.0625 9.359375 29.332031 9.476562 C 29.921875 9.730469 31.109375 10.316406 31.195312 10.394531 C 31.257812 10.449219 31.261719 10.546875 31.261719 12.707031 L 31.261719 14.960938 L 31.742188 15.203125 C 32.007812 15.332031 32.445312 15.5625 32.714844 15.707031 C 32.984375 15.851562 33.210938 15.96875 33.214844 15.960938 C 33.222656 15.957031 33.011719 15.277344 32.75 14.453125 Z M 32.75 14.453125 "/>
<path style=" stroke:none;fill-rule:nonzero;fill:rgb(100%,100%,100%);fill-opacity:1;" d="M 2.808594 15.902344 C 2.828125 15.851562 3.484375 13.746094 3.621094 13.285156 L 3.738281 12.902344 L 3.640625 12.667969 C 3.585938 12.539062 3.351562 12.011719 3.117188 11.496094 C 2.714844 10.617188 2.691406 10.554688 2.738281 10.519531 C 3.34375 10.074219 6.148438 8.679688 7.066406 8.367188 L 7.207031 8.320312 L 7.226562 8.46875 C 7.25 8.664062 7.214844 9.179688 7.175781 9.214844 C 7.15625 9.230469 6.867188 9.371094 6.53125 9.523438 C 5.859375 9.828125 5.058594 10.222656 4.878906 10.335938 C 4.78125 10.394531 4.765625 10.417969 4.75 10.53125 C 4.742188 10.601562 4.734375 11.621094 4.734375 12.796875 L 4.734375 14.941406 L 4.25 15.1875 C 3.984375 15.324219 3.558594 15.546875 3.300781 15.683594 C 3.042969 15.824219 2.824219 15.9375 2.8125 15.9375 C 2.804688 15.9375 2.800781 15.921875 2.808594 15.902344 Z M 2.808594 15.902344 "/>
<path style=" stroke:none;fill-rule:nonzero;fill:rgb(100%,100%,100%);fill-opacity:1;" d="M 5.632812 14.003906 L 5.632812 10.914062 L 6.183594 10.652344 C 7.964844 9.800781 9.621094 9.203125 11.46875 8.746094 C 12.953125 8.375 14.21875 8.164062 15.90625 8 C 16.621094 7.933594 19.378906 7.933594 20.097656 8 C 23.714844 8.347656 26.6875 9.160156 29.84375 10.664062 L 30.367188 10.914062 L 30.367188 17.085938 L 29.953125 16.890625 C 27.152344 15.570312 24.0625 14.695312 20.984375 14.351562 C 16.574219 13.859375 11.980469 14.492188 7.699219 16.179688 C 7.160156 16.390625 6.1875 16.816406 5.828125 16.992188 L 5.632812 17.089844 Z M 28.246094 14.785156 L 28.246094 14.222656 L 27.804688 14.050781 C 27.5625 13.953125 27.359375 13.878906 27.355469 13.878906 C 27.351562 13.882812 27.339844 13.953125 27.328125 14.03125 C 27.3125 14.136719 27.292969 14.175781 27.265625 14.171875 C 27.242188 14.167969 26.941406 14.066406 26.59375 13.945312 C 26.085938 13.765625 25.960938 13.714844 25.949219 13.667969 C 25.941406 13.640625 25.933594 13.382812 25.933594 13.097656 L 25.933594 12.582031 L 26.007812 12.597656 C 26.050781 12.605469 26.332031 12.695312 26.640625 12.796875 C 26.945312 12.898438 27.203125 12.976562 27.21875 12.96875 C 27.230469 12.960938 27.238281 12.804688 27.238281 12.625 L 27.238281 12.292969 L 26.796875 12.136719 C 26.554688 12.050781 26.261719 11.949219 26.152344 11.910156 L 25.945312 11.839844 L 25.941406 11.3125 C 25.933594 10.917969 25.941406 10.785156 25.964844 10.785156 C 26.023438 10.785156 27.0625 11.132812 27.183594 11.195312 C 27.300781 11.253906 27.308594 11.265625 27.320312 11.386719 L 27.335938 11.515625 L 27.734375 11.667969 C 27.953125 11.753906 28.15625 11.832031 28.1875 11.84375 C 28.246094 11.859375 28.246094 11.859375 28.246094 11.335938 L 28.246094 10.816406 L 27.761719 10.625 C 27.496094 10.523438 27.042969 10.355469 26.75 10.25 C 25.949219 9.972656 24.644531 9.578125 24.613281 9.605469 C 24.605469 9.613281 24.59375 9.789062 24.582031 9.996094 L 24.566406 10.375 L 24.710938 10.40625 C 24.792969 10.425781 24.878906 10.445312 24.90625 10.453125 C 24.949219 10.464844 24.953125 10.558594 24.953125 11.949219 L 24.953125 13.433594 L 24.796875 13.398438 C 24.542969 13.339844 24.5625 13.3125 24.582031 13.726562 C 24.59375 13.929688 24.609375 14.105469 24.621094 14.117188 C 24.632812 14.125 24.910156 14.214844 25.238281 14.308594 C 26.152344 14.574219 27.578125 15.066406 28.09375 15.292969 C 28.15625 15.320312 28.214844 15.34375 28.226562 15.34375 C 28.238281 15.34375 28.246094 15.09375 28.246094 14.785156 Z M 8.929688 14.824219 C 9.292969 14.703125 9.695312 14.566406 9.820312 14.527344 L 10.046875 14.453125 L 10.4375 13.96875 L 10.828125 13.480469 L 10.828125 11.988281 L 10.597656 11.839844 C 10.472656 11.757812 10.328125 11.6875 10.277344 11.679688 C 10.179688 11.664062 9.847656 11.761719 9.003906 12.054688 L 8.496094 12.226562 L 8.480469 11.929688 C 8.46875 11.761719 8.460938 11.542969 8.460938 11.4375 L 8.460938 11.246094 L 8.660156 11.175781 C 8.769531 11.136719 9.078125 11.027344 9.347656 10.933594 C 9.890625 10.742188 9.871094 10.742188 9.875 10.964844 C 9.875 11.039062 9.890625 11.078125 9.910156 11.078125 C 9.929688 11.078125 10.140625 11.019531 10.382812 10.949219 L 10.816406 10.820312 L 10.832031 10.367188 L 10.460938 10.128906 L 10.085938 9.894531 L 9.390625 10.125 C 8.621094 10.386719 8.347656 10.5 8.242188 10.613281 C 8.203125 10.65625 8.027344 10.882812 7.851562 11.117188 L 7.535156 11.546875 L 7.535156 12.785156 L 7.761719 12.921875 C 7.886719 13 8.003906 13.070312 8.03125 13.078125 C 8.054688 13.085938 8.378906 12.984375 8.75 12.855469 C 9.351562 12.640625 9.78125 12.5 9.832031 12.5 C 9.84375 12.5 9.851562 12.789062 9.851562 13.136719 L 9.851562 13.777344 L 9.183594 14 C 8.816406 14.125 8.511719 14.21875 8.503906 14.214844 C 8.496094 14.207031 8.484375 14.101562 8.472656 13.980469 C 8.460938 13.859375 8.445312 13.753906 8.433594 13.75 C 8.421875 13.742188 8.21875 13.8125 7.980469 13.902344 L 7.550781 14.074219 L 7.542969 14.359375 L 7.535156 14.648438 L 7.679688 14.734375 C 7.96875 14.914062 8.203125 15.046875 8.234375 15.046875 C 8.253906 15.050781 8.566406 14.949219 8.929688 14.824219 Z M 13.390625 13.671875 C 13.785156 13.605469 14.179688 13.542969 14.265625 13.535156 L 14.421875 13.515625 L 14.421875 12.714844 L 14.359375 12.726562 C 14.328125 12.734375 14.234375 12.746094 14.15625 12.753906 L 14.015625 12.769531 L 14.015625 9.820312 L 14.089844 9.808594 C 14.207031 9.785156 14.53125 9.742188 14.695312 9.726562 L 14.851562 9.710938 L 14.867188 9.851562 C 14.875 9.929688 14.882812 10.042969 14.882812 10.105469 C 14.882812 10.195312 14.894531 10.21875 14.933594 10.21875 C 14.988281 10.21875 15.433594 10.171875 15.558594 10.152344 L 15.648438 10.136719 L 15.648438 8.820312 L 15.558594 8.835938 C 15.507812 8.84375 15.242188 8.875 14.964844 8.90625 C 14.085938 9.003906 13.253906 9.140625 12.160156 9.367188 L 11.488281 9.503906 L 11.46875 9.921875 C 11.449219 10.308594 11.464844 10.773438 11.492188 10.804688 C 11.5 10.808594 11.667969 10.78125 11.863281 10.742188 L 12.21875 10.667969 L 12.21875 10.402344 C 12.21875 10.214844 12.226562 10.132812 12.25 10.125 C 12.339844 10.09375 12.996094 9.988281 13.011719 10.003906 C 13.019531 10.011719 13.039062 10.671875 13.046875 11.472656 L 13.070312 12.925781 L 12.859375 12.972656 L 12.652344 13.019531 L 12.652344 13.40625 C 12.652344 13.617188 12.65625 13.789062 12.664062 13.789062 C 12.671875 13.789062 13 13.734375 13.390625 13.671875 Z M 22.667969 13.324219 C 22.667969 13.066406 22.65625 12.957031 22.632812 12.933594 C 22.613281 12.917969 22.535156 12.898438 22.457031 12.886719 L 22.3125 12.871094 L 22.3125 9.898438 L 22.386719 9.914062 C 22.429688 9.921875 22.601562 9.949219 22.773438 9.976562 C 22.941406 10.007812 23.089844 10.035156 23.097656 10.042969 C 23.105469 10.050781 23.117188 10.171875 23.125 10.3125 C 23.136719 10.515625 23.144531 10.570312 23.179688 10.578125 C 23.363281 10.628906 23.816406 10.707031 23.851562 10.695312 C 23.886719 10.679688 23.890625 10.589844 23.890625 10.050781 L 23.890625 9.421875 L 23.824219 9.402344 C 23.320312 9.28125 22.035156 9.054688 21.277344 8.960938 C 20.886719 8.910156 19.796875 8.796875 19.710938 8.796875 C 19.679688 8.796875 19.675781 8.917969 19.675781 9.453125 L 19.675781 10.105469 L 19.859375 10.121094 C 19.957031 10.132812 20.132812 10.144531 20.25 10.15625 L 20.457031 10.171875 L 20.472656 10.042969 C 20.484375 9.976562 20.492188 9.859375 20.492188 9.785156 C 20.492188 9.714844 20.5 9.65625 20.511719 9.65625 C 20.570312 9.65625 21.242188 9.738281 21.273438 9.75 C 21.300781 9.757812 21.308594 10.082031 21.308594 11.238281 C 21.308594 12.625 21.304688 12.710938 21.257812 12.703125 C 21.234375 12.695312 21.140625 12.6875 21.054688 12.679688 L 20.898438 12.664062 L 20.898438 13.054688 C 20.898438 13.339844 20.90625 13.445312 20.933594 13.453125 C 20.953125 13.457031 21.175781 13.488281 21.429688 13.519531 C 21.683594 13.554688 22.015625 13.601562 22.164062 13.628906 C 22.3125 13.65625 22.488281 13.675781 22.550781 13.679688 L 22.667969 13.683594 Z M 16.136719 13.347656 C 16.488281 13.324219 16.816406 13.300781 16.863281 13.292969 L 16.953125 13.277344 L 16.953125 12.527344 L 16.789062 12.527344 C 16.699219 12.527344 16.625 12.519531 16.625 12.507812 C 16.625 12.496094 16.675781 12.339844 16.738281 12.160156 L 16.851562 11.835938 L 17.351562 11.816406 C 17.984375 11.792969 18.335938 11.804688 18.371094 11.859375 C 18.414062 11.929688 18.585938 12.453125 18.570312 12.476562 C 18.5625 12.492188 18.488281 12.5 18.40625 12.5 L 18.257812 12.5 L 18.257812 13.277344 L 18.347656 13.28125 C 18.480469 13.28125 19.464844 13.328125 19.722656 13.347656 L 19.945312 13.363281 L 19.945312 12.554688 L 19.777344 12.554688 C 19.683594 12.554688 19.589844 12.542969 19.574219 12.53125 C 19.527344 12.503906 19.460938 12.332031 18.800781 10.433594 L 18.210938 8.730469 L 17.792969 8.738281 C 17.5625 8.742188 17.3125 8.75 17.238281 8.757812 L 17.101562 8.773438 L 16.417969 10.671875 L 15.734375 12.566406 L 15.558594 12.59375 L 15.378906 12.617188 L 15.363281 12.738281 C 15.355469 12.804688 15.347656 12.976562 15.347656 13.121094 L 15.347656 13.386719 L 15.421875 13.386719 C 15.460938 13.386719 15.785156 13.367188 16.136719 13.347656 Z M 16.136719 13.347656 "/>
<path style=" stroke:none;fill-rule:nonzero;fill:rgb(100%,100%,100%);fill-opacity:1;" d="M 17.144531 11.101562 C 17.144531 11.074219 17.398438 10.351562 17.519531 10.03125 C 17.625 9.753906 17.628906 9.75 17.660156 9.832031 C 17.800781 10.195312 18.105469 11.078125 18.089844 11.089844 C 18.074219 11.109375 17.144531 11.117188 17.144531 11.101562 Z M 17.144531 11.101562 "/>
<path style=" stroke:none;fill-rule:nonzero;fill:rgb(100%,100%,100%);fill-opacity:1;" d="M 32.207031 15.425781 L 31.28125 14.945312 L 31.265625 12.691406 C 31.253906 10.734375 31.246094 10.429688 31.210938 10.398438 C 31.125 10.3125 30.136719 9.824219 29.144531 9.375 C 28.988281 9.300781 28.84375 9.230469 28.824219 9.214844 C 28.78125 9.175781 28.75 8.675781 28.773438 8.46875 L 28.792969 8.320312 L 29.0625 8.421875 C 29.792969 8.703125 31.289062 9.398438 32.027344 9.800781 C 32.5 10.058594 33.210938 10.484375 33.257812 10.535156 C 33.296875 10.578125 33.273438 10.644531 32.921875 11.414062 C 32.402344 12.558594 32.273438 12.851562 32.273438 12.90625 C 32.273438 12.929688 32.46875 13.589844 32.710938 14.371094 C 33.207031 15.984375 33.183594 15.910156 33.15625 15.910156 C 33.140625 15.90625 32.714844 15.691406 32.207031 15.425781 Z M 32.207031 15.425781 "/>
</g>
</svg>
