<?xml version="1.0" encoding="UTF-8"?>
<svg xmlns="http://www.w3.org/2000/svg" xmlns:xlink="http://www.w3.org/1999/xlink" width="35pt" height="25pt" viewBox="0 0 35 25" version="1.1">
<g id="surface1">
<path style=" stroke:none;fill-rule:evenodd;fill:rgb(0%,0%,23.921569%);fill-opacity:1;" d="M 25.808594 11.632812 C 26.378906 11.539062 26.785156 11.132812 26.773438 10.671875 C 26.777344 10.136719 26.238281 9.699219 25.566406 9.691406 C 25.25 9.691406 24.941406 9.789062 24.714844 9.964844 L 25.652344 8.292969 C 25.71875 8.164062 25.742188 8.019531 25.71875 7.882812 C 25.632812 7.445312 25.28125 7.074219 24.777344 6.890625 C 24.140625 6.648438 23.625 6.957031 23.191406 7.285156 L 22.464844 7.902344 C 22.453125 7.398438 21.835938 7.054688 21.253906 6.960938 C 20.367188 6.816406 19.75 7.382812 19.292969 7.882812 L 19.28125 7.769531 C 19.308594 7.292969 18.921875 6.855469 18.34375 6.714844 C 18.003906 6.640625 17.644531 6.636719 17.300781 6.703125 L 16.480469 6.960938 C 16.308594 6.796875 16.050781 6.789062 15.804688 6.804688 C 15.304688 6.863281 14.835938 7.042969 14.46875 7.316406 C 13.660156 7.894531 13.152344 8.730469 13.671875 9.570312 C 13.972656 10.046875 14.617188 10.078125 15.097656 9.847656 C 15.914062 9.457031 16.257812 9.160156 16.941406 8.65625 C 16.871094 8.914062 16.769531 9.164062 16.644531 9.40625 C 15.984375 10.808594 15.308594 12.207031 14.625 13.601562 C 14.34375 14.101562 14.097656 14.613281 13.886719 15.132812 C 13.617188 15.789062 13.511719 16.753906 13.855469 17.382812 C 13.972656 17.597656 14.132812 17.828125 14.449219 17.878906 C 15.035156 17.972656 15.328125 17.421875 15.484375 17.097656 C 15.789062 16.515625 16.105469 15.941406 16.429688 15.367188 L 16.226562 15.851562 C 16.195312 15.992188 16.191406 16.136719 16.210938 16.28125 C 16.269531 16.71875 16.421875 17.402344 16.867188 17.757812 C 17.21875 18.042969 17.722656 17.925781 17.953125 17.628906 L 18.320312 17.003906 C 18.792969 16.28125 19.214844 15.535156 19.589844 14.777344 C 19.65625 14.640625 19.726562 14.507812 19.796875 14.375 C 19.667969 14.71875 19.542969 15.066406 19.421875 15.414062 C 19.324219 15.710938 19.246094 16.015625 19.1875 16.320312 C 19.105469 16.886719 19.050781 17.503906 19.707031 17.902344 C 19.960938 18.054688 20.28125 18.117188 20.59375 18.070312 C 21.144531 18 21.59375 17.789062 22.050781 17.550781 C 22.484375 17.9375 23.097656 18.199219 23.761719 18.015625 C 24.167969 17.902344 24.523438 17.695312 24.773438 17.417969 C 24.898438 17.320312 25.042969 17.246094 25.207031 17.195312 C 25.28125 17.179688 25.34375 17.207031 25.378906 17.253906 C 25.515625 17.433594 25.710938 17.578125 25.945312 17.671875 C 26.980469 18.117188 27.894531 18.054688 28.890625 17.578125 L 29.382812 17.363281 C 29.464844 17.332031 29.554688 17.324219 29.640625 17.339844 C 29.746094 17.375 29.835938 17.433594 29.902344 17.507812 C 30.238281 17.878906 31.054688 18.027344 31.589844 18.070312 C 33.632812 18.234375 35.023438 16.808594 35 15.351562 C 34.996094 15.070312 34.792969 14.785156 34.421875 14.8125 C 34.140625 14.835938 33.835938 15.078125 33.671875 15.265625 C 33.996094 14.292969 33.917969 13.199219 33.542969 12.230469 L 33.835938 11.75 C 33.878906 11.679688 33.90625 11.601562 33.917969 11.523438 C 33.976562 11.132812 33.703125 10.769531 33.230469 10.6875 C 32.199219 10.503906 31.4375 11.199219 31.035156 11.839844 C 30.832031 12.164062 30.664062 12.503906 30.539062 12.855469 C 30.246094 13.519531 29.898438 14.164062 29.5 14.792969 C 29.53125 14.574219 29.566406 14.191406 29.550781 13.976562 C 29.523438 13.574219 29.390625 12.4375 29.277344 12.140625 L 29.523438 11.613281 C 29.535156 11.585938 29.5625 11.457031 29.5625 11.445312 C 29.601562 10.632812 28.335938 10.234375 27.664062 10.84375 C 27.0625 11.332031 26.609375 11.921875 26.332031 12.570312 C 25.902344 13.480469 24.839844 14.933594 24.105469 15.574219 C 24.148438 15.371094 24.214844 15.171875 24.296875 14.980469 L 24.867188 13.953125 C 25.074219 13.589844 25.328125 13.25 25.621094 12.929688 C 25.941406 12.578125 26.214844 12.019531 25.808594 11.632812 Z M 24.351562 10.613281 C 24.335938 10.9375 24.484375 11.179688 24.691406 11.351562 C 24.027344 11.476562 23.488281 12.234375 23.242188 12.601562 Z M 22.546875 13.84375 C 22.40625 14.132812 22.277344 14.425781 22.164062 14.722656 C 22.050781 15.03125 21.84375 15.59375 21.640625 15.835938 C 21.714844 15.238281 22.226562 14.410156 22.546875 13.84375 Z M 31.230469 15.445312 C 31.230469 15.308594 31.53125 14.964844 31.648438 14.820312 C 31.65625 14.957031 31.652344 15.097656 31.636719 15.234375 C 31.625 15.308594 31.554688 15.453125 31.453125 15.460938 C 31.378906 15.464844 31.304688 15.460938 31.230469 15.445312 Z M 26.773438 15.441406 C 26.773438 15.277344 27.011719 15.054688 27.085938 14.972656 C 27.074219 15.070312 27.058594 15.167969 27.039062 15.265625 C 27.023438 15.335938 26.980469 15.402344 26.921875 15.460938 C 26.898438 15.476562 26.796875 15.453125 26.773438 15.441406 Z M 26.773438 15.441406 "/>
<path style=" stroke:none;fill-rule:evenodd;fill:rgb(0%,0%,23.921569%);fill-opacity:1;" d="M 6.09375 15.496094 C 6.066406 16.035156 6.132812 16.570312 6.289062 17.097656 C 6.46875 17.675781 7.078125 18.242188 7.878906 18.242188 C 8.625 18.242188 9.484375 17.8125 10.023438 17.386719 C 10.984375 18.105469 12.027344 18.054688 12.820312 17.15625 C 13.15625 16.777344 13.410156 16.355469 13.582031 15.914062 C 13.632812 15.78125 13.578125 15.5625 13.53125 15.429688 C 13.417969 15.128906 13.015625 15.019531 12.667969 15.175781 C 12.640625 15.191406 12.617188 15.203125 12.589844 15.21875 C 13.09375 14.714844 13.507812 14.160156 13.8125 13.566406 L 13.828125 13.53125 C 14.007812 13.066406 14.09375 12.433594 13.90625 11.945312 C 13.722656 11.472656 13.085938 11.105469 12.441406 11.214844 C 11.945312 11.316406 11.476562 11.492188 11.070312 11.742188 C 11.480469 10.84375 12.582031 8.078125 11.8125 7.023438 C 11.476562 6.5625 10.789062 6.660156 10.324219 6.957031 C 9.332031 7.59375 8.429688 8.980469 7.898438 9.9375 C 7.898438 9.347656 7.808594 8.757812 7.632812 8.1875 L 7.664062 7.816406 C 7.738281 7.679688 7.773438 7.535156 7.761719 7.386719 C 7.699219 6.621094 6.273438 6.585938 5.632812 6.628906 C 2.847656 6.808594 1.273438 9.90625 0.636719 11.648438 C 0.0898438 13.140625 -0.238281 14.941406 0.214844 16.511719 C 0.304688 16.832031 0.457031 17.136719 0.664062 17.421875 C 1.132812 18.089844 2.050781 18.421875 2.960938 18.160156 C 4.398438 17.742188 5.421875 16.503906 6.09375 15.496094 Z M 9.082031 14.882812 C 9.019531 15.207031 8.984375 15.53125 8.976562 15.855469 L 8.785156 15.953125 C 8.710938 15.988281 8.625 16.011719 8.539062 16.023438 C 8.425781 15.765625 8.644531 15.347656 8.847656 15.132812 C 8.925781 15.050781 9.003906 14.96875 9.082031 14.882812 Z M 12.078125 15.683594 C 11.523438 16.285156 11.574219 16.203125 11.472656 16.234375 C 11.460938 16.207031 11.449219 16.183594 11.445312 16.15625 C 11.667969 16.007812 11.878906 15.847656 12.078125 15.683594 Z M 3.355469 15.90625 C 3.078125 16.226562 2.875 16.257812 2.824219 16.261719 C 2.058594 15.902344 2.480469 14.121094 2.578125 13.738281 C 2.851562 12.710938 3.210938 11.699219 3.65625 10.710938 C 4.394531 10.808594 5.011719 10.425781 5.46875 10.011719 C 5.359375 10.753906 5.191406 11.488281 4.96875 12.214844 C 4.765625 12.921875 4.53125 13.621094 4.265625 14.316406 C 4.074219 14.804688 3.75 15.457031 3.355469 15.90625 Z M 3.355469 15.90625 "/>
<path style=" stroke:none;fill-rule:evenodd;fill:rgb(77.647059%,0%,0.392157%);fill-opacity:1;" d="M 5.335938 12.285156 C 3.964844 17.261719 2.640625 16.523438 2.640625 16.523438 C 0.828125 15.746094 3.425781 10.339844 3.425781 10.339844 C 4.746094 10.847656 5.921875 8.941406 5.921875 8.941406 C 5.972656 10.300781 5.335938 12.285156 5.335938 12.285156 Z M 7.25 8.210938 L 7.292969 7.738281 C 7.78125 6.929688 6.273438 6.882812 5.664062 6.925781 C 4.683594 6.992188 3.953125 7.417969 3.324219 7.996094 C 2.195312 9.03125 1.476562 10.429688 1 11.734375 C -0.113281 14.765625 0.304688 17.527344 1.933594 17.902344 C 3.5625 18.277344 5.78125 16.125 6.890625 13.09375 C 7.589844 11.183594 7.683594 9.378906 7.25 8.210938 Z M 7.25 8.210938 "/>
<path style=" stroke:none;fill-rule:evenodd;fill:rgb(77.647059%,0%,0.392157%);fill-opacity:1;" d="M 10.953125 14.71875 C 10.773438 14.644531 10.902344 14.1875 11.234375 13.699219 C 11.566406 13.214844 11.980469 12.882812 12.160156 12.960938 C 12.335938 13.039062 12.210938 13.492188 11.878906 13.980469 C 11.546875 14.464844 11.132812 14.796875 10.953125 14.71875 Z M 9.023438 11.4375 C 9.414062 10.582031 9.828125 9.914062 9.941406 9.945312 C 10.054688 9.980469 9.828125 10.703125 9.4375 11.558594 C 9.042969 12.417969 8.632812 13.085938 8.519531 13.050781 C 8.402344 13.019531 8.628906 12.296875 9.023438 11.4375 Z M 13.464844 13.453125 C 14.148438 11.3125 12.535156 11.507812 12.535156 11.507812 C 9.253906 12.167969 9.351562 16.019531 9.351562 16.019531 C 8.808594 16.339844 8.136719 16.574219 8.136719 15.859375 C 8.132812 15.136719 8.96875 14.605469 9.378906 14.023438 C 9.863281 13.328125 10.269531 12.597656 10.617188 11.851562 C 11.757812 9.417969 12.046875 7.253906 11.257812 7.023438 C 10.46875 6.789062 8.90625 8.574219 7.761719 11.007812 C 7.371094 11.839844 7.144531 12.652344 6.898438 13.34375 C 6.113281 15.566406 6.65625 17.027344 6.65625 17.027344 C 7.585938 19.128906 10.035156 16.949219 10.035156 16.949219 C 12.09375 18.855469 13.21875 15.824219 13.21875 15.824219 C 13.21875 15.007812 12.582031 15.628906 12.582031 15.628906 C 12.042969 16.289062 11.847656 16.40625 11.847656 16.40625 C 11.015625 16.875 11.066406 16.019531 11.066406 16.019531 C 12.875 14.8125 13.464844 13.453125 13.464844 13.453125 Z M 13.464844 13.453125 "/>
<path style=" stroke:none;fill-rule:evenodd;fill:rgb(77.647059%,0%,0.392157%);fill-opacity:1;" d="M 26.394531 10.671875 C 26.394531 11.046875 26.019531 11.351562 25.5625 11.351562 C 25.101562 11.351562 24.730469 11.046875 24.730469 10.671875 C 24.730469 10.296875 25.101562 9.992188 25.5625 9.992188 C 26.019531 9.992188 26.394531 10.296875 26.394531 10.671875 Z M 26.394531 10.671875 "/>
<path style=" stroke:none;fill-rule:evenodd;fill:rgb(77.647059%,0%,0.392157%);fill-opacity:1;" d="M 31.113281 15.726562 C 31.113281 15.726562 30.59375 15.648438 31.027344 15.023438 L 31.875 14.007812 C 31.875 14.007812 32.574219 16.054688 31.113281 15.726562 Z M 26.589844 15.707031 C 26.589844 15.707031 26.148438 15.589844 26.589844 15.007812 L 27.421875 14.074219 C 27.421875 14.074219 27.8125 16.132812 26.589844 15.707031 Z M 33.839844 15.628906 C 33.839844 15.628906 33.054688 16.988281 32.710938 16.25 C 32.710938 16.25 34.132812 14.734375 33.152344 12.246094 C 33.105469 12.125 33.53125 11.667969 33.542969 11.488281 C 33.589844 10.753906 32.519531 10.898438 32.066406 11.234375 C 31.464844 11.675781 31.121094 12.339844 30.898438 12.945312 C 30.898438 12.945312 29.625 15.902344 28.402344 16.40625 C 28.402344 16.40625 28.15625 16.289062 28.449219 16.09375 C 28.449219 16.09375 29.1875 15.746094 29.175781 13.996094 C 29.175781 13.996094 29.039062 12.402344 28.890625 12.167969 C 28.839844 12.085938 29.191406 11.578125 29.1875 11.433594 C 29.167969 10.851562 28.398438 10.683594 27.941406 11.046875 C 27.410156 11.464844 26.902344 12.109375 26.6875 12.675781 C 26.6875 12.675781 25.5625 14.929688 24.042969 16.054688 C 23.339844 16.578125 23.847656 15.050781 23.945312 14.871094 C 24.335938 14.148438 24.71875 13.382812 25.316406 12.75 C 25.316406 12.75 26.246094 11.742188 24.925781 11.625 C 24.925781 11.625 23.847656 11.507812 22.523438 14.8125 C 22.523438 14.8125 22.085938 16.328125 21.496094 16.25 C 21.496094 16.25 20.8125 16.367188 21.742188 14.539062 C 21.742188 14.539062 25.152344 8.425781 25.167969 8.398438 C 25.265625 8.226562 25.375 8.125 25.34375 7.921875 C 25.289062 7.527344 24.683594 7.011719 24.171875 7.121094 C 23.652344 7.230469 23.058594 7.839844 22.722656 8.125 L 21.300781 9.523438 C 21.300781 9.523438 22.621094 7.96875 21.839844 7.503906 C 20.488281 6.695312 19.765625 7.933594 19 8.707031 L 18.902344 7.773438 C 18.902344 7.773438 19 6.765625 17.382812 6.996094 L 16.15625 7.386719 C 16.328125 7.125 16.136719 7.082031 15.859375 7.101562 C 15.035156 7.152344 14.109375 7.894531 13.90625 8.5 C 13.71875 9.070312 13.984375 9.976562 14.90625 9.589844 C 15.589844 9.304688 16.265625 8.734375 16.84375 8.320312 C 16.84375 8.320312 17.871094 7.738281 16.992188 9.523438 C 16.304688 10.917969 15.695312 12.335938 14.972656 13.71875 C 14.449219 14.726562 13.800781 15.816406 14.089844 16.9375 C 14.292969 17.738281 14.742188 17.851562 15.128906 16.988281 C 15.128906 16.988281 17.773438 11.933594 18.851562 10.964844 C 18.851562 10.964844 16.746094 15.433594 16.597656 15.902344 C 16.480469 16.28125 16.898438 18.015625 17.570312 17.535156 C 17.71875 17.425781 17.878906 17.023438 17.984375 16.875 C 19.203125 15.097656 19.796875 12.964844 21.496094 11.390625 C 20.867188 12.734375 20.226562 14.101562 19.789062 15.492188 C 19.640625 15.964844 19.371094 16.839844 19.613281 17.3125 C 20.117188 18.28125 21.460938 17.507812 22.132812 17.144531 C 22.132812 17.144531 23.160156 18.507812 24.484375 17.222656 C 24.484375 17.222656 25.265625 16.5625 25.707031 17.105469 C 25.925781 17.375 26.359375 17.523438 26.734375 17.605469 C 27.191406 17.707031 27.609375 17.6875 28.066406 17.574219 C 28.855469 17.371094 29.511719 16.613281 30.214844 17.339844 C 30.488281 17.621094 31.226562 17.742188 31.628906 17.769531 C 33.4375 17.90625 34.621094 16.660156 34.621094 15.355469 C 34.621094 15.355469 34.621094 14.65625 33.839844 15.628906 Z M 33.839844 15.628906 "/>
</g>
</svg>
