<?xml version="1.0" encoding="UTF-8"?>
<svg xmlns="http://www.w3.org/2000/svg" xmlns:xlink="http://www.w3.org/1999/xlink" width="35pt" height="25pt" viewBox="0 0 35 25" version="1.1">
<g id="surface1">
<path style=" stroke:none;fill-rule:nonzero;fill:rgb(100%,100%,100%);fill-opacity:1;" d="M 17.265625 0.0273438 C 17.757812 -0.0390625 18.253906 0.0351562 18.75 0.0507812 C 20.386719 0.1875 22 0.636719 23.460938 1.398438 C 23.792969 1.566406 24.121094 1.742188 24.425781 1.957031 C 25.046875 2.335938 25.628906 2.785156 26.160156 3.28125 C 26.519531 3.566406 26.824219 3.917969 27.128906 4.261719 C 28.992188 6.363281 30.121094 9.121094 30.230469 11.933594 C 30.253906 12.125 30.210938 12.320312 30.253906 12.507812 C 30.214844 12.683594 30.25 12.863281 30.230469 13.039062 C 30.214844 13.191406 30.222656 13.34375 30.246094 13.496094 L 30.175781 13.457031 C 30.207031 13.707031 30.164062 13.960938 30.128906 14.210938 C 29.789062 16.753906 28.625 19.179688 26.863281 21.042969 C 26.722656 21.230469 26.542969 21.378906 26.382812 21.546875 C 26.167969 21.691406 26.019531 21.90625 25.804688 22.050781 C 23.300781 24.199219 19.90625 25.257812 16.628906 24.945312 C 14.863281 24.792969 13.128906 24.253906 11.59375 23.371094 C 10.511719 22.761719 9.53125 21.980469 8.671875 21.085938 C 8.539062 20.894531 8.347656 20.753906 8.214844 20.566406 C 7.851562 20.125 7.492188 19.675781 7.203125 19.179688 C 6.96875 18.84375 6.78125 18.480469 6.59375 18.113281 C 5.980469 16.90625 5.574219 15.59375 5.382812 14.257812 C 5.34375 14.042969 5.320312 13.824219 5.335938 13.609375 L 5.273438 13.648438 C 5.285156 13.363281 5.292969 13.074219 5.25 12.792969 C 5.230469 10.839844 5.628906 8.871094 6.492188 7.113281 C 7.152344 5.707031 8.105469 4.441406 9.226562 3.371094 C 9.355469 3.261719 9.492188 3.164062 9.605469 3.039062 C 10.328125 2.433594 11.105469 1.878906 11.949219 1.449219 C 12.050781 1.398438 12.152344 1.347656 12.257812 1.296875 C 13.808594 0.519531 15.53125 0.0898438 17.265625 0.0273438 M 17.175781 0.472656 C 14.226562 0.601562 11.347656 1.875 9.261719 3.964844 C 7.671875 5.539062 6.535156 7.5625 6.027344 9.738281 C 5.746094 10.9375 5.640625 12.179688 5.742188 13.40625 C 5.941406 16.304688 7.253906 19.109375 9.34375 21.128906 C 11.214844 22.976562 13.714844 24.171875 16.328125 24.472656 C 18.515625 24.742188 20.777344 24.386719 22.78125 23.460938 C 24.503906 22.667969 26.03125 21.460938 27.207031 19.972656 C 28.5 18.34375 29.355469 16.375 29.664062 14.316406 C 29.941406 12.519531 29.796875 10.660156 29.253906 8.921875 C 28.550781 6.65625 27.15625 4.613281 25.308594 3.125 C 23.042969 1.285156 20.089844 0.324219 17.175781 0.472656 Z M 17.175781 0.472656 "/>
<path style=" stroke:none;fill-rule:nonzero;fill:rgb(100%,100%,100%);fill-opacity:1;" d="M 15.445312 2.179688 C 17.085938 1.839844 18.800781 1.851562 20.425781 2.269531 C 20.417969 3.246094 20.425781 4.222656 20.421875 5.199219 C 20.238281 4.964844 20.070312 4.722656 19.902344 4.476562 C 19.902344 3.933594 19.910156 3.386719 19.898438 2.84375 C 18.640625 2.570312 17.332031 2.542969 16.058594 2.753906 C 15.863281 2.5625 15.667969 2.367188 15.457031 2.191406 Z M 15.445312 2.179688 "/>
<path style=" stroke:none;fill-rule:nonzero;fill:rgb(100%,100%,100%);fill-opacity:1;" d="M 10.355469 4.960938 C 11.539062 3.804688 12.988281 2.917969 14.570312 2.421875 C 14.558594 4.625 14.5625 6.828125 14.566406 9.03125 L 14.558594 9.019531 C 14.40625 8.839844 14.25 8.660156 14.085938 8.492188 C 14.082031 6.761719 14.085938 5.03125 14.082031 3.300781 C 12.175781 4.066406 10.511719 5.433594 9.410156 7.171875 C 8.941406 7.902344 8.558594 8.695312 8.304688 9.53125 C 8.078125 9.503906 7.855469 9.476562 7.628906 9.449219 C 8.136719 7.753906 9.09375 6.199219 10.355469 4.960938 Z M 10.355469 4.960938 "/>
<path style=" stroke:none;fill-rule:nonzero;fill:rgb(100%,100%,100%);fill-opacity:1;" d="M 21.316406 2.550781 C 24.175781 3.558594 26.546875 5.867188 27.625 8.703125 C 27.6875 8.855469 27.742188 9.011719 27.796875 9.167969 C 27.769531 9.195312 27.738281 9.21875 27.707031 9.242188 C 27.488281 9.132812 27.25 9.066406 27.023438 8.976562 C 26.113281 6.585938 24.246094 4.570312 21.914062 3.515625 C 21.707031 3.199219 21.523438 2.867188 21.316406 2.550781 Z M 21.316406 2.550781 "/>
<path style=" stroke:none;fill-rule:nonzero;fill:rgb(100%,100%,100%);fill-opacity:1;" d="M 17.441406 11.976562 C 17.453125 9.378906 17.441406 6.78125 17.449219 4.183594 C 17.457031 4.191406 17.476562 4.199219 17.484375 4.203125 C 17.632812 4.375 17.789062 4.539062 17.929688 4.714844 C 17.921875 6.9375 17.929688 9.160156 17.925781 11.382812 C 18.757812 11.382812 19.589844 11.386719 20.425781 11.382812 C 20.417969 12.210938 20.425781 13.039062 20.421875 13.871094 L 20.402344 13.851562 C 20.234375 13.703125 20.066406 13.550781 19.902344 13.398438 C 19.90625 12.925781 19.902344 12.453125 19.90625 11.980469 C 19.085938 11.972656 18.261719 11.980469 17.441406 11.976562 Z M 17.441406 11.976562 "/>
<path style=" stroke:none;fill-rule:nonzero;fill:rgb(100%,100%,100%);fill-opacity:1;" d="M 23.300781 6.316406 C 23.320312 6.347656 23.339844 6.378906 23.359375 6.410156 C 23.5 6.804688 23.664062 7.1875 23.792969 7.585938 C 23.777344 10.863281 23.785156 14.144531 23.785156 17.421875 C 24.492188 16.566406 25.007812 15.554688 25.285156 14.484375 C 26.128906 14.855469 26.984375 15.207031 27.835938 15.558594 C 27.8125 15.636719 27.730469 15.65625 27.664062 15.683594 C 27.46875 15.75 27.28125 15.828125 27.085938 15.890625 C 26.589844 15.671875 26.09375 15.460938 25.589844 15.265625 C 25.132812 16.578125 24.320312 17.753906 23.300781 18.695312 C 23.304688 14.570312 23.308594 10.441406 23.300781 6.316406 Z M 23.300781 6.316406 "/>
<path style=" stroke:none;fill-rule:nonzero;fill:rgb(100%,100%,100%);fill-opacity:1;" d="M 10.1875 9.351562 C 10.375 9.3125 10.554688 9.261719 10.734375 9.199219 C 10.742188 9.199219 10.761719 9.203125 10.769531 9.203125 L 10.695312 9.242188 C 11.964844 10.703125 13.214844 12.183594 14.480469 13.648438 C 14.515625 13.695312 14.578125 13.738281 14.5625 13.808594 C 14.558594 16.734375 14.570312 19.664062 14.558594 22.59375 L 14.542969 22.566406 C 14.375 22.289062 14.230469 22 14.085938 21.710938 C 14.082031 19.179688 14.082031 16.652344 14.082031 14.121094 C 12.738281 12.539062 11.378906 10.972656 10.035156 9.390625 C 10.085938 9.378906 10.136719 9.363281 10.1875 9.351562 Z M 10.1875 9.351562 "/>
<path style=" stroke:none;fill-rule:nonzero;fill:rgb(100%,100%,100%);fill-opacity:1;" d="M 17.441406 13.40625 C 17.457031 13.40625 17.480469 13.40625 17.496094 13.40625 C 17.640625 13.550781 17.785156 13.699219 17.929688 13.84375 C 17.921875 15.992188 17.929688 18.140625 17.925781 20.292969 C 18.777344 20.273438 19.625 20.109375 20.425781 19.820312 C 20.417969 20.796875 20.425781 21.773438 20.421875 22.753906 C 20.242188 22.566406 20.070312 22.367188 19.902344 22.167969 C 19.910156 21.628906 19.902344 21.089844 19.90625 20.550781 C 19.105469 20.761719 18.269531 20.851562 17.445312 20.824219 C 17.445312 18.351562 17.449219 15.878906 17.441406 13.40625 Z M 17.441406 13.40625 "/>
<path style=" stroke:none;fill-rule:nonzero;fill:rgb(100%,100%,100%);fill-opacity:1;" d="M 7.601562 15.554688 C 8.476562 15.195312 9.339844 14.808594 10.222656 14.464844 C 10.550781 15.714844 11.195312 16.886719 12.082031 17.824219 C 12.246094 18.1875 12.410156 18.550781 12.597656 18.898438 C 12.585938 18.914062 12.5625 18.949219 12.550781 18.964844 C 11.34375 18.003906 10.417969 16.6875 9.914062 15.230469 C 9.410156 15.429688 8.910156 15.640625 8.414062 15.855469 C 8.152344 15.765625 7.902344 15.660156 7.640625 15.570312 C 7.632812 15.566406 7.613281 15.558594 7.601562 15.554688 Z M 7.601562 15.554688 "/>
<path style=" stroke:none;fill-rule:nonzero;fill:rgb(11.372549%,25.882353%,49.019608%);fill-opacity:1;" d="M 17.175781 0.472656 C 20.089844 0.324219 23.042969 1.285156 25.308594 3.125 C 27.15625 4.613281 28.550781 6.65625 29.253906 8.921875 C 29.796875 10.660156 29.941406 12.519531 29.664062 14.316406 C 29.355469 16.375 28.5 18.34375 27.207031 19.972656 C 26.03125 21.460938 24.503906 22.667969 22.78125 23.460938 C 20.777344 24.386719 18.515625 24.742188 16.328125 24.472656 C 13.714844 24.171875 11.214844 22.976562 9.34375 21.128906 C 7.253906 19.109375 5.941406 16.304688 5.742188 13.40625 C 5.640625 12.179688 5.746094 10.9375 6.027344 9.738281 C 6.535156 7.5625 7.671875 5.539062 9.261719 3.964844 C 11.347656 1.875 14.226562 0.601562 17.175781 0.472656 M 15.445312 2.179688 L 15.457031 2.191406 C 15.457031 9.070312 15.464844 15.949219 15.453125 22.828125 C 17.085938 23.199219 18.796875 23.144531 20.421875 22.753906 C 20.425781 21.773438 20.417969 20.796875 20.425781 19.820312 C 19.625 20.109375 18.777344 20.273438 17.925781 20.292969 C 17.929688 18.140625 17.921875 15.992188 17.929688 13.84375 C 18.753906 13.863281 19.578125 13.847656 20.402344 13.851562 L 20.421875 13.871094 C 20.425781 13.039062 20.417969 12.210938 20.425781 11.382812 C 19.589844 11.386719 18.757812 11.382812 17.925781 11.382812 C 17.929688 9.160156 17.921875 6.9375 17.929688 4.714844 C 18.777344 4.757812 19.628906 4.894531 20.421875 5.199219 C 20.425781 4.222656 20.417969 3.246094 20.425781 2.269531 C 18.800781 1.851562 17.085938 1.839844 15.445312 2.179688 M 10.355469 4.960938 C 9.09375 6.199219 8.136719 7.753906 7.628906 9.449219 L 7.609375 9.445312 C 9.113281 11.179688 10.597656 12.933594 12.097656 14.671875 C 12.085938 15.722656 12.113281 16.773438 12.082031 17.824219 C 11.195312 16.886719 10.550781 15.714844 10.222656 14.464844 C 9.339844 14.808594 8.476562 15.195312 7.601562 15.554688 C 7.613281 15.558594 7.632812 15.566406 7.640625 15.570312 C 7.765625 16.050781 7.957031 16.507812 8.164062 16.960938 C 9.316406 19.457031 11.484375 21.460938 14.0625 22.417969 C 14.21875 22.472656 14.375 22.539062 14.542969 22.566406 L 14.558594 22.59375 C 14.570312 19.664062 14.558594 16.734375 14.5625 13.808594 C 14.578125 13.738281 14.515625 13.695312 14.480469 13.648438 C 13.214844 12.183594 11.964844 10.703125 10.695312 9.242188 L 10.769531 9.203125 C 10.761719 9.203125 10.742188 9.199219 10.734375 9.199219 L 10.75 9.195312 C 10.757812 9.105469 10.796875 9.03125 10.835938 8.953125 C 11.171875 8.3125 11.589844 7.703125 12.097656 7.183594 C 12.09375 7.796875 12.101562 8.410156 12.09375 9.019531 C 12.914062 9.019531 13.734375 9.027344 14.558594 9.019531 L 14.566406 9.03125 C 14.5625 6.828125 14.558594 4.625 14.570312 2.421875 C 12.988281 2.917969 11.539062 3.804688 10.355469 4.960938 M 21.308594 2.535156 C 21.304688 9.183594 21.308594 15.828125 21.304688 22.472656 C 22.640625 21.992188 23.878906 21.246094 24.917969 20.285156 C 26.242188 19.070312 27.246094 17.511719 27.808594 15.804688 C 27.820312 15.726562 27.90625 15.625 27.835938 15.558594 C 26.984375 15.207031 26.128906 14.855469 25.285156 14.484375 C 25.007812 15.554688 24.492188 16.566406 23.785156 17.421875 C 23.785156 14.144531 23.777344 10.863281 23.792969 7.585938 C 24.445312 8.40625 24.957031 9.347656 25.238281 10.363281 C 25.972656 10.066406 26.699219 9.75 27.429688 9.449219 C 27.558594 9.398438 27.683594 9.328125 27.820312 9.304688 C 27.816406 9.257812 27.8125 9.207031 27.808594 9.160156 L 27.796875 9.167969 C 27.742188 9.011719 27.6875 8.855469 27.625 8.703125 C 26.546875 5.867188 24.175781 3.558594 21.316406 2.550781 Z M 21.308594 2.535156 "/>
<path style=" stroke:none;fill-rule:nonzero;fill:rgb(90.196078%,65.098039%,13.72549%);fill-opacity:1;" d="M 15.457031 2.191406 C 15.667969 2.367188 15.863281 2.5625 16.058594 2.753906 C 16.035156 4.113281 16.054688 5.472656 16.050781 6.832031 C 16.050781 11.972656 16.042969 17.113281 16.054688 22.257812 C 17.324219 22.476562 18.640625 22.453125 19.902344 22.167969 C 20.070312 22.367188 20.242188 22.566406 20.421875 22.753906 C 18.796875 23.144531 17.085938 23.199219 15.453125 22.828125 C 15.464844 15.949219 15.457031 9.070312 15.457031 2.191406 Z M 15.457031 2.191406 "/>
<path style=" stroke:none;fill-rule:nonzero;fill:rgb(90.196078%,65.098039%,13.72549%);fill-opacity:1;" d="M 21.308594 2.535156 L 21.316406 2.550781 C 21.523438 2.867188 21.707031 3.199219 21.914062 3.515625 C 21.902344 8.304688 21.910156 13.09375 21.910156 17.886719 C 21.910156 19.09375 21.902344 20.300781 21.914062 21.507812 C 24.296875 20.425781 26.191406 18.347656 27.085938 15.890625 C 27.28125 15.828125 27.46875 15.75 27.664062 15.683594 C 27.730469 15.65625 27.8125 15.636719 27.835938 15.558594 C 27.90625 15.625 27.820312 15.726562 27.808594 15.804688 C 27.246094 17.511719 26.242188 19.070312 24.917969 20.285156 C 23.878906 21.246094 22.640625 21.992188 21.304688 22.472656 C 21.308594 15.828125 21.304688 9.183594 21.308594 2.535156 Z M 21.308594 2.535156 "/>
<path style=" stroke:none;fill-rule:nonzero;fill:rgb(90.196078%,65.098039%,13.72549%);fill-opacity:1;" d="M 17.484375 4.203125 C 17.933594 4.15625 18.386719 4.207031 18.835938 4.257812 C 19.195312 4.308594 19.554688 4.367188 19.902344 4.476562 C 20.070312 4.722656 20.238281 4.964844 20.421875 5.199219 C 19.628906 4.894531 18.777344 4.757812 17.929688 4.714844 C 17.789062 4.539062 17.632812 4.375 17.484375 4.203125 Z M 17.484375 4.203125 "/>
<path style=" stroke:none;fill-rule:nonzero;fill:rgb(90.196078%,65.098039%,13.72549%);fill-opacity:1;" d="M 10.792969 7.996094 C 11.308594 7.21875 11.933594 6.507812 12.683594 5.953125 C 12.695312 6.800781 12.679688 7.652344 12.691406 8.5 C 13.15625 8.5 13.621094 8.507812 14.085938 8.492188 C 14.25 8.660156 14.40625 8.839844 14.558594 9.019531 C 13.734375 9.027344 12.914062 9.019531 12.09375 9.019531 C 12.101562 8.410156 12.09375 7.796875 12.097656 7.183594 C 11.589844 7.703125 11.171875 8.3125 10.835938 8.953125 C 10.796875 9.03125 10.757812 9.105469 10.75 9.195312 L 10.734375 9.199219 C 10.554688 9.261719 10.375 9.3125 10.1875 9.351562 C 10.164062 9.347656 10.113281 9.339844 10.089844 9.339844 C 10.269531 8.863281 10.523438 8.421875 10.792969 7.996094 Z M 10.792969 7.996094 "/>
<path style=" stroke:none;fill-rule:nonzero;fill:rgb(90.196078%,65.098039%,13.72549%);fill-opacity:1;" d="M 23.359375 6.410156 C 23.625 6.617188 23.847656 6.867188 24.070312 7.117188 C 24.695312 7.851562 25.195312 8.695312 25.535156 9.597656 C 26.039062 9.414062 26.53125 9.195312 27.023438 8.976562 C 27.25 9.066406 27.488281 9.132812 27.707031 9.242188 C 27.738281 9.21875 27.769531 9.195312 27.796875 9.167969 L 27.808594 9.160156 C 27.8125 9.207031 27.816406 9.257812 27.820312 9.304688 C 27.683594 9.328125 27.558594 9.398438 27.429688 9.449219 C 26.699219 9.75 25.972656 10.066406 25.238281 10.363281 C 24.957031 9.347656 24.445312 8.40625 23.792969 7.585938 C 23.664062 7.1875 23.5 6.804688 23.359375 6.410156 Z M 23.359375 6.410156 "/>
<path style=" stroke:none;fill-rule:nonzero;fill:rgb(90.196078%,65.098039%,13.72549%);fill-opacity:1;" d="M 7.609375 9.445312 L 7.628906 9.449219 C 7.855469 9.476562 8.078125 9.503906 8.304688 9.53125 C 9.746094 11.183594 11.15625 12.859375 12.59375 14.515625 C 12.730469 14.636719 12.679688 14.824219 12.6875 14.984375 C 12.683594 16.222656 12.691406 17.460938 12.683594 18.703125 C 12.683594 18.808594 12.703125 18.917969 12.722656 19.023438 C 12.664062 19.011719 12.601562 18.996094 12.542969 18.980469 L 12.550781 18.964844 C 12.5625 18.949219 12.585938 18.914062 12.597656 18.898438 C 12.410156 18.550781 12.246094 18.1875 12.082031 17.824219 C 12.113281 16.773438 12.085938 15.722656 12.097656 14.671875 C 10.597656 12.933594 9.113281 11.179688 7.609375 9.445312 Z M 7.609375 9.445312 "/>
<path style=" stroke:none;fill-rule:nonzero;fill:rgb(90.196078%,65.098039%,13.72549%);fill-opacity:1;" d="M 17.496094 13.40625 C 18.296875 13.375 19.101562 13.394531 19.902344 13.398438 C 20.066406 13.550781 20.234375 13.703125 20.402344 13.851562 C 19.578125 13.847656 18.753906 13.863281 17.929688 13.84375 C 17.785156 13.699219 17.640625 13.550781 17.496094 13.40625 Z M 17.496094 13.40625 "/>
<path style=" stroke:none;fill-rule:nonzero;fill:rgb(90.196078%,65.098039%,13.72549%);fill-opacity:1;" d="M 7.640625 15.570312 C 7.902344 15.660156 8.152344 15.765625 8.414062 15.855469 C 8.503906 16.054688 8.578125 16.257812 8.664062 16.457031 C 9.6875 18.828125 11.675781 20.773438 14.085938 21.710938 C 14.230469 22 14.375 22.289062 14.542969 22.566406 C 14.375 22.539062 14.21875 22.472656 14.0625 22.417969 C 11.484375 21.460938 9.316406 19.457031 8.164062 16.960938 C 7.957031 16.507812 7.765625 16.050781 7.640625 15.570312 Z M 7.640625 15.570312 "/>
<path style=" stroke:none;fill-rule:nonzero;fill:rgb(100%,82.352941%,30.980392%);fill-opacity:1;" d="M 16.058594 2.753906 C 17.332031 2.542969 18.640625 2.570312 19.898438 2.84375 C 19.910156 3.386719 19.902344 3.933594 19.902344 4.476562 C 19.554688 4.367188 19.195312 4.308594 18.835938 4.257812 C 18.386719 4.207031 17.933594 4.15625 17.484375 4.203125 C 17.476562 4.199219 17.457031 4.191406 17.449219 4.183594 C 17.441406 6.78125 17.453125 9.378906 17.441406 11.976562 C 18.261719 11.980469 19.085938 11.972656 19.90625 11.980469 C 19.902344 12.453125 19.90625 12.925781 19.902344 13.398438 C 19.101562 13.394531 18.296875 13.375 17.496094 13.40625 C 17.480469 13.40625 17.457031 13.40625 17.441406 13.40625 C 17.449219 15.878906 17.445312 18.351562 17.445312 20.824219 C 18.269531 20.851562 19.105469 20.761719 19.90625 20.550781 C 19.902344 21.089844 19.910156 21.628906 19.902344 22.167969 C 18.640625 22.453125 17.324219 22.476562 16.054688 22.257812 C 16.042969 17.113281 16.050781 11.972656 16.050781 6.832031 C 16.054688 5.472656 16.035156 4.113281 16.058594 2.753906 Z M 16.058594 2.753906 "/>
<path style=" stroke:none;fill-rule:nonzero;fill:rgb(100%,82.352941%,30.980392%);fill-opacity:1;" d="M 9.410156 7.171875 C 10.511719 5.433594 12.175781 4.066406 14.082031 3.300781 C 14.085938 5.03125 14.082031 6.761719 14.085938 8.492188 C 13.621094 8.507812 13.15625 8.5 12.691406 8.5 C 12.679688 7.652344 12.695312 6.800781 12.683594 5.953125 C 11.933594 6.507812 11.308594 7.21875 10.792969 7.996094 C 10.523438 8.421875 10.269531 8.863281 10.089844 9.339844 C 10.113281 9.339844 10.164062 9.347656 10.1875 9.351562 C 10.136719 9.363281 10.085938 9.378906 10.035156 9.390625 C 11.378906 10.972656 12.738281 12.539062 14.082031 14.121094 C 14.082031 16.652344 14.082031 19.179688 14.085938 21.710938 C 11.675781 20.773438 9.6875 18.828125 8.664062 16.457031 C 8.578125 16.257812 8.503906 16.054688 8.414062 15.855469 C 8.910156 15.640625 9.410156 15.429688 9.914062 15.230469 C 10.417969 16.6875 11.34375 18.003906 12.550781 18.964844 L 12.542969 18.980469 C 12.601562 18.996094 12.664062 19.011719 12.722656 19.023438 C 12.703125 18.917969 12.683594 18.808594 12.683594 18.703125 C 12.691406 17.460938 12.683594 16.222656 12.6875 14.984375 C 12.679688 14.824219 12.730469 14.636719 12.59375 14.515625 C 11.15625 12.859375 9.746094 11.183594 8.304688 9.53125 C 8.558594 8.695312 8.941406 7.902344 9.410156 7.171875 Z M 9.410156 7.171875 "/>
<path style=" stroke:none;fill-rule:nonzero;fill:rgb(100%,82.352941%,30.980392%);fill-opacity:1;" d="M 21.914062 3.515625 C 24.246094 4.570312 26.113281 6.585938 27.023438 8.976562 C 26.53125 9.195312 26.039062 9.414062 25.535156 9.597656 C 25.195312 8.695312 24.695312 7.851562 24.070312 7.117188 C 23.847656 6.867188 23.625 6.617188 23.359375 6.410156 C 23.339844 6.378906 23.320312 6.347656 23.300781 6.316406 C 23.308594 10.441406 23.304688 14.570312 23.300781 18.695312 C 24.320312 17.753906 25.132812 16.578125 25.589844 15.265625 C 26.09375 15.460938 26.589844 15.671875 27.085938 15.890625 C 26.191406 18.347656 24.296875 20.425781 21.914062 21.507812 C 21.902344 20.300781 21.910156 19.09375 21.910156 17.886719 C 21.910156 13.09375 21.902344 8.304688 21.914062 3.515625 Z M 21.914062 3.515625 "/>
</g>
</svg>
