<?xml version="1.0" encoding="UTF-8"?>
<svg xmlns="http://www.w3.org/2000/svg" xmlns:xlink="http://www.w3.org/1999/xlink" width="35pt" height="25pt" viewBox="0 0 35 25" version="1.1">
<g id="surface1">
<path style=" stroke:none;fill-rule:nonzero;fill:rgb(13.72549%,12.156863%,12.54902%);fill-opacity:1;" d="M 21.335938 7.214844 C 21.273438 7.410156 21.269531 7.597656 21.296875 7.773438 C 21.320312 8.015625 21.5 8.144531 21.5 8.144531 C 21.574219 7.9375 21.703125 7.929688 21.75 7.722656 C 21.804688 7.382812 21.679688 7.351562 21.675781 7.160156 C 21.671875 6.96875 21.710938 6.742188 21.710938 6.742188 C 21.710938 6.742188 21.394531 7.015625 21.335938 7.214844 "/>
<path style=" stroke:none;fill-rule:nonzero;fill:rgb(13.72549%,12.156863%,12.54902%);fill-opacity:1;" d="M 15.902344 7.585938 C 15.832031 7.84375 15.933594 8.089844 16.050781 8.210938 C 16.167969 8.335938 16.492188 8.5 16.492188 8.5 C 16.492188 8.5 16.261719 8.265625 16.269531 7.933594 C 16.273438 7.683594 16.617188 7.550781 16.535156 7.214844 C 16.457031 6.875 16.214844 6.699219 16.214844 6.699219 C 16.214844 6.699219 16.296875 6.898438 16.257812 7.058594 C 16.191406 7.257812 15.972656 7.328125 15.902344 7.585938 "/>
<path style=" stroke:none;fill-rule:nonzero;fill:rgb(13.72549%,12.156863%,12.54902%);fill-opacity:1;" d="M 19.921875 8.996094 C 19.363281 7.800781 19.246094 8.640625 19.921875 8.996094 M 11.683594 12.003906 L 11.683594 12.035156 M 15.09375 9.945312 C 15.148438 9.171875 15.089844 8.617188 14.8125 8.027344 C 14.617188 7.546875 14.25 7.089844 13.765625 6.832031 C 13.699219 6.796875 13.621094 6.765625 13.554688 6.714844 C 13.488281 6.445312 13.367188 6.183594 13.140625 5.988281 C 12.917969 5.800781 12.648438 5.699219 12.359375 5.6875 C 11.535156 5.742188 10.921875 6.167969 10.425781 6.691406 L 10.382812 6.707031 C 10.027344 6.75 9.707031 6.875 9.417969 7.074219 C 8.699219 7.730469 7.902344 8.285156 7.003906 8.566406 C 6.996094 8.578125 6.996094 8.605469 7.003906 8.617188 C 7.339844 8.875 7.851562 8.867188 8.25 8.746094 C 8.78125 8.535156 9.070312 8.429688 9.539062 8.0625 C 9.632812 7.996094 9.722656 7.867188 9.75 7.886719 C 9.652344 8.0625 9.476562 8.386719 9.417969 8.699219 C 9.359375 9.011719 9.035156 9.257812 8.648438 9.519531 C 8.699219 9.574219 8.839844 9.492188 8.886719 9.480469 C 8.933594 9.46875 9.1875 9.390625 9.460938 9.222656 C 9.730469 9.054688 9.804688 8.964844 9.996094 8.789062 C 10.445312 8.316406 10.78125 7.738281 10.96875 7.398438 C 11.441406 7.351562 12.308594 7.027344 12.585938 7.199219 L 12.660156 7.242188 C 12.605469 7.335938 12.507812 7.535156 12.507812 7.535156 L 12.289062 8.046875 C 12.289062 8.046875 11.859375 7.992188 11.65625 7.90625 C 11.210938 7.71875 11.105469 7.5 11.105469 7.5 C 11.105469 7.5 11.070312 7.792969 11.109375 7.925781 C 11.148438 8.054688 11.292969 8.242188 11.410156 8.328125 C 11.527344 8.414062 11.976562 8.652344 12.003906 8.753906 C 11.96875 8.84375 11.617188 10.097656 11.488281 10.746094 C 11.484375 10.761719 11.472656 10.808594 11.445312 10.789062 C 11.171875 10.441406 10.90625 10.175781 10.417969 10.097656 C 9.929688 10.019531 9.414062 10.375 9.066406 10.816406 C 8.785156 11.160156 8.636719 11.65625 8.636719 11.769531 C 8.613281 12.320312 8.105469 12.425781 8.105469 12.425781 C 7.796875 12.441406 7.597656 12.195312 7.597656 12.195312 C 7.597656 12.195312 7.496094 12.746094 7.992188 12.933594 C 8.113281 12.96875 8.398438 12.921875 8.585938 12.574219 C 8.679688 12.355469 8.691406 12.132812 8.71875 11.964844 C 8.75 11.796875 8.824219 11.644531 8.929688 11.484375 C 9.203125 11.128906 9.617188 10.953125 10.066406 11.035156 C 10.648438 11.160156 11.035156 11.691406 11.421875 12.109375 C 11.4375 12.121094 11.449219 12.152344 11.425781 12.164062 C 11.285156 12.148438 11.148438 12.113281 10.996094 12.113281 C 10.511719 12.105469 10.105469 12.28125 9.726562 12.53125 C 9.164062 12.875 8.824219 13.484375 8.753906 14.125 C 8.761719 14.144531 8.75 14.195312 8.789062 14.179688 C 9.082031 13.53125 9.742188 13.09375 10.457031 13.085938 C 10.957031 13.058594 11.390625 13.265625 11.8125 13.46875 C 11.828125 13.480469 11.832031 13.5 11.8125 13.515625 C 11.40625 13.628906 10.996094 13.746094 10.679688 14.066406 C 10.363281 14.382812 10.261719 14.808594 10.25 15.261719 C 10.265625 15.304688 10.234375 15.390625 10.292969 15.40625 C 10.558594 14.835938 11.136719 14.363281 11.769531 14.316406 C 11.851562 14.324219 11.960938 14.296875 12.027344 14.355469 L 12.019531 14.371094 C 11.664062 14.597656 11.304688 14.960938 11.140625 15.277344 C 10.972656 15.597656 10.746094 15.6875 10.757812 15.699219 C 11.167969 15.765625 11.304688 15.75 11.691406 15.613281 C 11.851562 15.546875 12.125 15.214844 12.3125 15.179688 C 12.359375 15.1875 12.625 15.101562 12.777344 15.167969 C 12.878906 15.253906 12.492188 15.667969 12.417969 15.648438 C 11.730469 15.640625 11.625 15.78125 11.4375 16.054688 C 11.25 16.328125 11.039062 16.601562 10.695312 16.710938 C 10.617188 16.753906 10.527344 16.769531 10.453125 16.8125 C 10.449219 16.84375 11.167969 16.832031 11.453125 16.707031 C 11.707031 16.625 11.894531 16.382812 12.15625 16.332031 C 12.15625 16.332031 12.21875 16.609375 11.75 17.011719 C 11.761719 17.039062 12.257812 16.949219 12.464844 16.757812 C 14.078125 15.617188 12.972656 16.464844 12.679688 17.238281 C 12.648438 17.488281 12.445312 18.042969 12.472656 18.078125 C 12.5 18.113281 12.910156 17.746094 13.148438 17.625 C 13.386719 17.503906 13.324219 16.921875 13.417969 16.773438 C 13.816406 16.335938 13.8125 16.859375 13.636719 17.222656 C 13.941406 17.066406 14.324219 16.589844 14.070312 17.410156 C 13.949219 17.746094 13.800781 17.96875 13.800781 17.96875 C 13.800781 17.96875 14.179688 17.773438 14.4375 17.402344 C 14.691406 17.027344 14.761719 16.820312 14.78125 16.703125 C 14.871094 16.828125 14.832031 16.816406 14.910156 17.027344 C 14.996094 17.273438 14.96875 17.496094 14.96875 17.496094 C 14.96875 17.496094 15.121094 17.394531 15.203125 17.105469 C 15.265625 16.871094 15.253906 16.839844 15.246094 16.835938 C 15.542969 16.820312 15.46875 17.34375 15.46875 17.34375 C 15.46875 17.34375 15.6875 17.359375 15.710938 17.042969 C 15.695312 16.929688 16.941406 16.957031 17.214844 17.308594 C 17.488281 17.664062 17.5625 17.660156 17.707031 17.734375 C 17.855469 17.808594 18.121094 17.796875 18.355469 17.855469 C 18.574219 17.890625 18.988281 18.078125 19.148438 18.179688 C 19.371094 18.441406 18.789062 19.367188 18.546875 19.675781 C 18.542969 19.683594 18.535156 19.691406 18.53125 19.699219 C 18.550781 19.6875 18.566406 19.679688 18.582031 19.667969 C 18.964844 19.460938 19.496094 19.011719 19.5625 18.246094 C 19.566406 18.207031 19.808594 18.21875 19.84375 18.265625 C 20 18.40625 20.027344 18.757812 20.136719 18.972656 C 20.246094 19.183594 20.757812 19.351562 21.003906 19.1875 C 21.003906 19.1875 21.230469 19.066406 21.167969 18.910156 C 21.070312 18.976562 21.007812 18.984375 20.886719 18.996094 C 20.761719 19.007812 20.722656 18.96875 20.621094 18.90625 C 20.523438 18.84375 20.507812 18.824219 20.445312 18.710938 C 20.378906 18.589844 20.382812 18.304688 20.464844 18.21875 C 20.550781 18.132812 20.773438 18.066406 21 18.097656 C 21.226562 18.125 21.210938 18.285156 21.210938 18.285156 C 21.210938 18.285156 21.277344 18.527344 21.082031 18.59375 C 21.234375 18.6875 21.386719 18.582031 21.386719 18.582031 C 21.386719 18.582031 21.445312 18.664062 21.371094 18.929688 C 21.628906 18.933594 21.695312 18.660156 21.695312 18.660156 C 21.695312 18.660156 21.757812 18.683594 21.765625 18.710938 C 21.824219 18.6875 21.816406 18.585938 21.816406 18.585938 C 21.816406 18.585938 21.867188 18.570312 21.894531 18.625 C 22 18.65625 21.867188 17.855469 21.828125 17.765625 C 21.785156 17.679688 21.082031 17.148438 20.957031 17.152344 C 20.828125 17.152344 20.648438 17.273438 20.457031 17.363281 C 20.265625 17.453125 20.027344 17.671875 19.761719 17.617188 C 19.601562 17.480469 19.21875 17.539062 19.21875 17.539062 L 18.925781 17.460938 C 18.925781 17.460938 18.664062 17.347656 18.65625 17.300781 C 18.648438 17.253906 18.710938 17.136719 18.75 16.980469 C 18.789062 16.824219 18.777344 16.738281 18.835938 16.691406 C 18.898438 16.644531 19.054688 16.648438 19.171875 16.582031 C 19.4375 16.339844 19.546875 16.355469 19.761719 16.515625 C 19.964844 16.671875 20.6875 16.90625 21.050781 16.949219 C 21.410156 16.992188 21.839844 16.992188 21.964844 16.984375 C 22.089844 16.980469 21.871094 16.804688 21.851562 16.765625 C 21.851562 16.765625 22.640625 16.984375 23.167969 17.023438 C 23.695312 17.0625 24.675781 17.003906 24.921875 16.761719 C 24.921875 16.761719 24.757812 16.710938 24.6875 16.65625 L 24.699219 16.648438 C 24.964844 16.578125 26.324219 16.816406 26.105469 16.203125 C 26.046875 16.136719 25.980469 16.164062 25.925781 16.121094 C 25.941406 16.101562 27.480469 15.757812 27.085938 15.648438 C 26.761719 15.621094 25.679688 15.417969 25.214844 15.289062 C 24.75 15.164062 24.132812 14.976562 23.824219 14.871094 C 23.785156 14.855469 23.734375 14.332031 23.789062 14.359375 C 23.882812 14.488281 23.949219 14.574219 24.089844 14.660156 C 24.367188 14.734375 24.769531 14.738281 24.96875 14.742188 C 25.167969 14.742188 25.226562 14.457031 25.296875 14.296875 C 25.265625 14.332031 25.167969 14.390625 25.140625 14.390625 C 24.953125 14.4375 24.519531 14.375 24.46875 14.355469 C 24.414062 14.335938 24.289062 14.128906 24.328125 14.023438 C 24.363281 13.921875 24.574219 13.800781 24.574219 13.800781 C 24.574219 13.800781 24.828125 13.773438 24.914062 13.800781 C 25 13.820312 25.199219 13.941406 25.230469 14 C 25.257812 14.054688 25.332031 14.171875 25.324219 14.273438 C 25.433594 14.101562 25.363281 13.996094 25.40625 13.976562 C 25.429688 13.976562 25.488281 13.996094 25.5 14.058594 C 25.550781 14.03125 25.523438 13.785156 25.546875 13.75 C 25.546875 13.75 25.59375 13.78125 25.632812 13.808594 C 25.664062 13.765625 25.660156 13.53125 25.621094 13.441406 C 25.582031 13.351562 25.351562 13.125 25.3125 13.097656 C 25.269531 13.070312 25.238281 13.066406 25.238281 13.066406 C 25.238281 13.066406 25.234375 13.039062 25.320312 12.941406 C 25.40625 12.839844 25.882812 12.757812 26.03125 12.652344 C 26.117188 12.585938 26.023438 12.59375 26.125 12.496094 C 26.222656 12.394531 26.660156 12.359375 26.792969 11.800781 C 25.660156 12.113281 24.953125 12.214844 24.035156 12.214844 C 23.117188 12.214844 21.859375 12.097656 21.628906 11.949219 C 21.542969 11.878906 21.507812 11.738281 21.535156 11.601562 C 21.5625 11.464844 21.726562 11.367188 21.832031 11.324219 C 21.90625 11.308594 21.875 11.605469 21.875 11.605469 C 21.875 11.605469 22.425781 11.238281 22.695312 11.140625 C 22.960938 11.039062 23.808594 10.929688 23.808594 10.929688 C 23.554688 11.238281 23.722656 11.597656 23.929688 11.605469 C 24.019531 11.609375 24.390625 11.722656 24.8125 11.300781 C 24.902344 11.210938 25.046875 11.132812 25.046875 11.132812 C 25.207031 11.171875 25.316406 11.175781 25.316406 11.175781 L 25.667969 11.167969 C 25.429688 11.050781 25.285156 10.992188 25.277344 10.890625 C 25.289062 10.878906 25.507812 10.976562 25.535156 10.917969 C 25.429688 10.855469 25.371094 10.769531 25.371094 10.769531 C 25.371094 10.769531 25.691406 10.742188 26.003906 10.871094 C 25.808594 10.542969 25.722656 10.554688 25.570312 10.460938 C 25.492188 10.417969 25.34375 10.371094 25.277344 10.324219 C 25.238281 10.289062 25.289062 10.136719 25.226562 10.03125 C 25.085938 9.675781 24.902344 9.523438 24.707031 9.421875 C 24.507812 9.324219 24.367188 9.308594 24.234375 9.324219 C 24.097656 9.339844 23.972656 9.382812 23.949219 9.5 C 23.925781 9.617188 24.007812 9.675781 24.058594 9.734375 C 24.0625 9.746094 23.949219 9.742188 23.835938 9.722656 C 23.722656 9.707031 23.351562 9.757812 23.101562 9.640625 C 22.691406 9.511719 22.300781 8.652344 22.230469 8.535156 C 22.238281 8.726562 22.136719 8.855469 22.136719 8.855469 C 22.011719 8.886719 21.703125 8.378906 21.703125 8.378906 C 21.675781 8.640625 21.71875 8.949219 21.71875 8.949219 C 21.398438 8.667969 21.324219 8.230469 21.324219 8.230469 C 21.0625 8.328125 21.308594 8.917969 21.300781 8.921875 C 21.097656 8.617188 20.976562 8.539062 20.800781 8.066406 C 20.625 7.59375 20.589844 7.308594 20.574219 7.21875 C 20.574219 7.21875 20.679688 7.09375 20.730469 7.039062 C 20.78125 6.984375 20.9375 6.890625 20.9375 6.890625 C 20.9375 6.890625 20.816406 6.863281 20.710938 6.875 C 20.605469 6.894531 20.519531 6.917969 20.519531 6.917969 C 20.519531 6.917969 20.496094 6.804688 20.550781 6.3125 C 20.222656 6.453125 20.097656 6.929688 20.074219 7.164062 C 19.871094 7.335938 19.761719 7.511719 19.761719 7.511719 C 19.761719 7.511719 19.746094 7.230469 19.574219 7.027344 C 19.398438 6.820312 19.28125 6.8125 19.167969 6.628906 C 19.050781 6.492188 19.066406 6.101562 19.058594 6.109375 C 19.039062 6.203125 18.953125 6.324219 18.957031 6.5 C 18.957031 6.679688 18.996094 6.742188 19.0625 6.980469 C 19.132812 7.21875 19.109375 7.484375 18.953125 7.75 C 18.566406 8.472656 18.84375 7.558594 18.847656 7.355469 C 18.847656 7.03125 18.785156 6.792969 18.546875 6.527344 C 18.46875 6.457031 18.320312 6.28125 18.320312 6.28125 C 18.605469 6.914062 18.28125 7.570312 18.28125 7.570312 C 18.28125 7.570312 18.1875 7.207031 18 7.027344 C 17.8125 6.839844 17.605469 6.6875 17.605469 6.6875 C 17.785156 7.175781 17.664062 7.824219 17.625 7.863281 C 17.5625 7.808594 17.445312 7.570312 17.300781 7.433594 C 17.152344 7.296875 16.949219 7.21875 16.949219 7.21875 C 16.949219 7.21875 17.058594 7.539062 17.070312 7.789062 C 17.078125 8.039062 16.957031 8.214844 16.945312 8.570312 C 16.9375 8.921875 17.566406 9.585938 17.566406 9.585938 C 16.976562 9.621094 16.195312 8.773438 16.195312 8.773438 C 16.25 9.503906 17.082031 10.082031 17.082031 10.082031 C 16.929688 10.121094 15.710938 9.320312 15.546875 9.238281 C 15.714844 9.964844 16.488281 10.621094 16.488281 10.621094 C 16.296875 10.703125 15.765625 10.484375 15.765625 10.484375 C 16.183594 11.378906 17.113281 11.292969 17.113281 11.292969 C 17.113281 11.429688 15.886719 11.320312 15.886719 11.320312 C 16.25 11.71875 17.152344 11.785156 17.152344 11.785156 C 16.929688 11.890625 16.238281 11.859375 16.238281 11.859375 C 16.347656 12.023438 16.625 12.136719 16.746094 12.242188 C 16.597656 12.285156 16.257812 12.542969 15.945312 12.84375 C 15.632812 13.144531 15.300781 14.074219 14.734375 13.992188 C 14.367188 13.984375 13.71875 13.070312 14.601562 11.601562 C 14.976562 10.960938 15.035156 10.714844 15.09375 9.945312 "/>
<path style=" stroke:none;fill-rule:nonzero;fill:rgb(13.72549%,12.156863%,12.54902%);fill-opacity:1;" d="M 23.566406 0.402344 L 12.132812 0.402344 L 6.609375 5.589844 L 6.921875 8.296875 L 6.960938 8.289062 C 7.71875 8.050781 8.507812 7.558594 9.308594 6.824219 C 9.613281 6.613281 9.957031 6.476562 10.328125 6.421875 C 10.472656 6.265625 10.648438 6.109375 10.839844 5.972656 L 11.117188 4.824219 L 23.957031 4.792969 L 24.113281 6.773438 L 28.5625 6.992188 L 28.5 5.171875 Z M 23.566406 0.402344 "/>
<path style=" stroke:none;fill-rule:nonzero;fill:rgb(13.72549%,12.156863%,12.54902%);fill-opacity:1;" d="M 24.019531 20.199219 L 11.085938 20.105469 L 10.839844 17.035156 C 10.730469 17.03125 10.625 17.027344 10.542969 17.015625 C 10.257812 16.988281 10.003906 16.761719 10.003906 16.761719 C 10.003906 16.761719 10.386719 16.691406 10.683594 16.507812 C 10.746094 16.46875 10.792969 16.433594 10.839844 16.402344 L 10.839844 15.949219 C 10.789062 15.941406 10.734375 15.933594 10.675781 15.921875 C 10.523438 15.894531 10.402344 15.792969 10.402344 15.792969 C 10.402344 15.792969 10.371094 15.847656 10.285156 16.046875 C 10.285156 16.046875 10.183594 15.910156 10.121094 15.722656 C 10.058594 15.535156 10.035156 15.234375 10.035156 15.234375 C 10.050781 14.636719 10.214844 14.1875 10.539062 13.863281 C 10.632812 13.769531 10.734375 13.691406 10.839844 13.625 L 10.839844 13.335938 C 10.730469 13.316406 10.621094 13.308594 10.511719 13.316406 C 9.890625 13.324219 9.351562 13.632812 9 14.253906 C 8.800781 14.695312 8.703125 15.078125 8.703125 15.078125 C 8.683594 15.078125 8.582031 14.59375 8.574219 14.101562 C 8.546875 13.421875 9.03125 12.65625 9.632812 12.289062 C 10.046875 12.015625 10.433594 11.871094 10.839844 11.839844 L 10.839844 11.773438 C 10.605469 11.527344 10.351562 11.320312 10.050781 11.253906 C 9.71875 11.191406 9.390625 11.324219 9.167969 11.609375 C 9.078125 11.75 9.027344 11.863281 9.007812 11.980469 C 9 12.015625 8.996094 12.050781 8.992188 12.09375 C 8.96875 12.25 8.941406 12.445312 8.855469 12.648438 C 8.589844 13.140625 8.171875 13.21875 7.957031 13.152344 C 7.382812 12.9375 7.332031 12.382812 7.378906 12.121094 L 7.484375 11.570312 L 7.828125 12.007812 C 7.828125 12.007812 7.945312 12.144531 8.105469 12.144531 C 8.183594 12.121094 8.40625 12.03125 8.417969 11.734375 C 8.421875 11.550781 8.59375 11.007812 8.90625 10.625 C 9.375 10.035156 9.972656 9.730469 10.5 9.816406 C 10.625 9.835938 10.734375 9.867188 10.839844 9.90625 L 10.839844 8.167969 C 10.664062 8.386719 10.324219 8.851562 10.195312 8.953125 C 10.1875 8.957031 9.703125 9.304688 9.523438 9.410156 C 9.34375 9.519531 8.847656 9.628906 8.714844 9.644531 C 8.582031 9.664062 8.332031 9.65625 8.332031 9.65625 C 8.480469 9.496094 8.671875 9.253906 8.671875 9.253906 C 8.671875 9.253906 8.902344 8.957031 9.148438 8.597656 C 9.148438 8.597656 9.046875 8.679688 8.378906 8.945312 C 7.9375 9.082031 7.34375 9.109375 6.917969 8.808594 L 6.746094 19.285156 L 11.957031 24.8125 L 23.566406 24.8125 L 28.46875 19.832031 L 28.46875 18.082031 L 24.019531 18.050781 Z M 24.019531 20.199219 "/>
<path style=" stroke:none;fill-rule:nonzero;fill:rgb(100%,100%,100%);fill-opacity:1;" d="M 23.238281 14.589844 C 23.21875 14.597656 23.144531 14.644531 23.148438 14.644531 C 23.140625 14.667969 23.3125 14.722656 23.328125 14.71875 C 23.34375 14.710938 23.320312 14.597656 23.316406 14.574219 C 23.3125 14.550781 23.257812 14.582031 23.238281 14.589844 "/>
<path style=" stroke:none;fill-rule:nonzero;fill:rgb(100%,100%,100%);fill-opacity:1;" d="M 19.476562 8.632812 C 19.550781 8.976562 19.921875 8.996094 19.921875 8.996094 C 19.757812 8.921875 19.535156 8.480469 19.605469 8.121094 C 19.605469 8.121094 19.40625 8.28125 19.476562 8.632812 "/>
<path style=" stroke:none;fill-rule:nonzero;fill:rgb(100%,100%,100%);fill-opacity:1;" d="M 12.886719 9.738281 C 12.757812 9.453125 12.714844 9.488281 12.714844 9.488281 C 12.714844 9.488281 12.492188 9.898438 12.363281 10.347656 C 12.226562 10.75 12.238281 11.328125 12.285156 11.640625 C 12.417969 12.183594 12.410156 12.382812 12.730469 12.863281 C 12.710938 12.519531 12.550781 11.695312 12.664062 11.1875 C 12.777344 10.679688 13.097656 10.09375 12.886719 9.738281 "/>
<path style=" stroke:none;fill-rule:nonzero;fill:rgb(100%,100%,100%);fill-opacity:1;" d="M 12.609375 6.222656 C 12.5 6.085938 12.308594 5.988281 12.222656 5.984375 C 12.070312 5.972656 11.851562 6.101562 11.757812 6.191406 C 11.664062 6.285156 11.511719 6.460938 11.539062 6.53125 C 11.59375 6.609375 11.894531 6.535156 12.164062 6.542969 C 12.421875 6.546875 12.683594 6.632812 12.730469 6.554688 C 12.761719 6.5 12.71875 6.359375 12.609375 6.222656 "/>
<path style=" stroke:none;fill-rule:nonzero;fill:rgb(100%,100%,100%);fill-opacity:1;" d="M 13.941406 8.773438 C 13.871094 8.472656 13.746094 8.1875 13.59375 7.925781 C 13.570312 7.890625 13.511719 7.816406 13.480469 7.890625 C 13.410156 8.09375 13.289062 8.277344 13.199219 8.464844 C 13.175781 8.5 13.15625 8.550781 13.191406 8.582031 C 13.3125 8.65625 13.597656 8.964844 13.699219 9.59375 C 13.796875 10.222656 13.65625 10.855469 13.65625 10.855469 C 13.65625 10.855469 14.179688 9.945312 13.941406 8.773438 "/>
<path style=" stroke:none;fill-rule:nonzero;fill:rgb(100%,100%,100%);fill-opacity:1;" d="M 20.179688 17.222656 C 20.058594 17.296875 19.964844 17.40625 19.828125 17.355469 C 19.554688 17.246094 19.296875 17.277344 19.296875 17.277344 C 19.296875 17.277344 18.988281 17.238281 18.964844 17.171875 C 18.945312 17.109375 18.996094 17.085938 19.011719 17.03125 C 19.027344 16.96875 19.003906 16.917969 19.039062 16.882812 C 19.074219 16.84375 19.214844 16.84375 19.3125 16.789062 C 19.398438 16.738281 19.460938 16.675781 19.511719 16.625 C 19.53125 16.605469 19.507812 16.617188 19.621094 16.703125 C 19.769531 16.816406 20.148438 16.988281 20.480469 17.058594 C 20.453125 17.074219 20.242188 17.1875 20.179688 17.222656 M 21.75 7.722656 C 21.703125 7.929688 21.570312 7.9375 21.5 8.144531 C 21.5 8.144531 21.320312 8.015625 21.296875 7.773438 C 21.269531 7.597656 21.273438 7.410156 21.335938 7.214844 C 21.394531 7.015625 21.710938 6.742188 21.710938 6.742188 C 21.710938 6.742188 21.671875 6.96875 21.675781 7.160156 C 21.679688 7.351562 21.804688 7.382812 21.75 7.722656 M 21.0625 7.761719 C 21.070312 7.839844 21.125 7.976562 21.125 7.976562 L 21.082031 8.019531 C 20.960938 7.691406 20.886719 7.378906 20.863281 7.25 C 20.859375 7.222656 21.132812 7.035156 21.132812 7.035156 C 21.132812 7.035156 21.113281 7.09375 21.109375 7.101562 C 21.042969 7.316406 21.027344 7.535156 21.0625 7.761719 M 16.769531 8.308594 C 16.703125 8.269531 16.578125 8.082031 16.578125 7.898438 C 16.578125 7.875 16.777344 7.589844 16.820312 7.484375 C 16.839844 7.566406 16.871094 7.683594 16.871094 7.757812 C 16.875 7.84375 16.785156 8.210938 16.769531 8.308594 M 16.496094 8.5 C 16.496094 8.5 16.167969 8.335938 16.050781 8.210938 C 15.933594 8.089844 15.832031 7.84375 15.902344 7.585938 C 15.972656 7.328125 16.191406 7.257812 16.257812 7.058594 C 16.296875 6.898438 16.214844 6.699219 16.214844 6.699219 C 16.214844 6.699219 16.457031 6.875 16.535156 7.214844 C 16.617188 7.550781 16.273438 7.683594 16.269531 7.933594 C 16.261719 8.265625 16.496094 8.5 16.496094 8.5 M 15.820312 10.179688 L 15.394531 10.003906 C 15.394531 9.988281 15.414062 9.605469 15.417969 9.464844 C 15.59375 9.941406 15.820312 10.179688 15.820312 10.179688 M 15.90625 11.03125 L 15.308594 10.976562 L 15.753906 11.464844 C 15.785156 11.503906 15.855469 11.558594 15.855469 11.558594 L 15.738281 11.554688 C 15.738281 11.554688 15.949219 11.84375 16.039062 11.953125 C 16.132812 12.0625 16.21875 12.132812 16.324219 12.207031 C 16.152344 12.335938 15.96875 12.496094 15.824219 12.636719 C 15.707031 12.746094 15.601562 12.910156 15.492188 13.082031 C 15.296875 13.378906 15.027344 13.75 14.792969 13.714844 C 14.761719 13.710938 14.652344 13.644531 14.566406 13.464844 C 14.46875 13.253906 14.292969 12.664062 14.871094 11.703125 C 15.230469 11.09375 15.324219 10.769531 15.382812 10.128906 L 15.585938 10.5625 C 15.800781 10.941406 15.90625 11.03125 15.90625 11.03125 M 10.839844 15.023438 C 10.933594 14.921875 11.042969 14.828125 11.167969 14.761719 C 11.0625 14.886719 10.972656 15.015625 10.90625 15.140625 C 10.886719 15.183594 10.863281 15.21875 10.839844 15.25 C 10.753906 15.371094 10.667969 15.441406 10.632812 15.464844 C 10.589844 15.492188 10.527344 15.480469 10.519531 15.484375 C 10.519531 15.484375 10.636719 15.242188 10.839844 15.023438 M 12.914062 16.515625 C 12.988281 16.507812 13.058594 16.496094 13.125 16.480469 C 13.117188 16.5 13.109375 16.515625 13.097656 16.53125 C 13.074219 16.554688 12.84375 16.6875 12.792969 16.722656 C 12.808594 16.695312 12.890625 16.550781 12.914062 16.515625 M 27.238281 15.386719 C 26.964844 15.363281 26.1875 15.226562 25.488281 15.011719 L 25.246094 14.933594 C 25.417969 14.855469 25.515625 14.6875 25.582031 14.574219 C 25.601562 14.539062 25.710938 14.335938 25.726562 14.296875 C 25.742188 14.261719 25.621094 14.261719 25.65625 14.222656 C 25.683594 14.214844 25.710938 14.203125 25.738281 14.1875 C 25.925781 14.089844 25.839844 13.96875 25.894531 13.925781 C 25.917969 13.910156 25.9375 13.890625 25.949219 13.871094 C 26.074219 13.710938 25.996094 13.457031 25.9375 13.320312 C 25.871094 13.160156 25.726562 13.042969 25.726562 13.042969 C 25.761719 13.03125 25.800781 13.019531 25.832031 13.011719 C 26 12.957031 26.160156 12.90625 26.269531 12.828125 C 26.363281 12.757812 26.402344 12.648438 26.402344 12.648438 C 26.414062 12.640625 26.425781 12.636719 26.4375 12.632812 C 26.621094 12.546875 26.996094 12.375 27.125 11.832031 L 27.21875 11.417969 L 26.808594 11.527344 C 25.710938 11.832031 25.03125 11.921875 24.113281 11.929688 C 23.074219 11.945312 22.085938 11.789062 22.085938 11.789062 C 22.234375 11.691406 22.65625 11.421875 22.855469 11.351562 C 23.03125 11.285156 23.34375 11.203125 23.503906 11.222656 C 23.5 11.320312 23.519531 11.421875 23.5625 11.515625 C 23.648438 11.703125 23.816406 11.824219 23.992188 11.832031 C 23.996094 11.832031 24.609375 11.917969 25.070312 11.449219 C 25.113281 11.40625 25.136719 11.367188 25.167969 11.375 C 25.292969 11.398438 25.375 11.402344 25.402344 11.402344 L 26.359375 11.382812 L 25.988281 11.078125 L 26.683594 11.363281 L 26.304688 10.710938 C 26.125 10.410156 26.003906 10.328125 25.851562 10.25 C 25.828125 10.238281 25.59375 10.183594 25.59375 10.125 C 25.597656 10.058594 25.582031 9.972656 25.539062 9.890625 C 25.394531 9.535156 25.199219 9.3125 24.898438 9.160156 C 24.683594 9.054688 24.492188 9.015625 24.28125 9.039062 C 23.898438 9.078125 23.816406 9.242188 23.757812 9.433594 C 23.621094 9.433594 23.484375 9.449219 23.253906 9.367188 C 23.023438 9.285156 22.269531 7.976562 22.257812 7.957031 C 22.257812 7.957031 22.222656 8.175781 22.167969 8.464844 C 22.113281 8.390625 21.929688 8.113281 21.929688 8.113281 C 21.984375 8.023438 22.046875 7.878906 22.074219 7.722656 C 22.113281 7.46875 22.074219 7.332031 22.023438 7.207031 C 22.007812 7.160156 22.003906 7.144531 22.003906 7.117188 C 22 6.953125 22.152344 6.050781 22.152344 6.050781 C 22.152344 6.050781 21.589844 6.53125 21.410156 6.6875 C 21.265625 6.652344 20.957031 6.578125 20.851562 6.578125 L 20.871094 6.296875 L 20.921875 5.863281 L 20.519531 6.035156 C 20.117188 6.207031 19.96875 6.671875 19.914062 6.929688 C 19.875 6.878906 19.832031 6.820312 19.832031 6.820312 C 19.734375 6.703125 19.648438 6.640625 19.582031 6.585938 C 19.523438 6.542969 19.445312 6.449219 19.429688 6.429688 C 19.417969 6.410156 19.332031 6.125 19.335938 5.726562 C 19.332031 5.582031 19.316406 5.300781 19.316406 5.300781 C 19.316406 5.300781 18.855469 6.054688 18.847656 6.074219 C 18.8125 6.164062 18.78125 6.296875 18.78125 6.296875 C 18.78125 6.296875 18.617188 6.101562 18.46875 5.984375 C 18.320312 5.867188 17.746094 5.503906 17.746094 5.503906 L 18.148438 6.34375 C 18.292969 6.613281 18.25 6.8125 18.25 6.8125 C 18.050781 6.621094 17.828125 6.449219 17.816406 6.441406 L 17.128906 5.925781 L 17.425781 6.734375 C 17.476562 6.875 17.5 7.039062 17.503906 7.1875 C 17.355469 7.074219 17.125 6.953125 17.097656 6.941406 C 17.097656 6.941406 16.859375 6.84375 16.707031 6.785156 C 16.589844 6.59375 16.445312 6.46875 16.421875 6.453125 C 16.421875 6.453125 15.71875 5.941406 15.71875 5.945312 L 16.035156 6.753906 C 16.054688 6.808594 16.078125 6.90625 16.074219 6.9375 C 16.0625 6.972656 16.023438 7.011719 15.972656 7.0625 C 15.886719 7.152344 15.765625 7.277344 15.710938 7.480469 C 15.613281 7.828125 15.730469 8.152344 15.976562 8.398438 L 16.0625 9.183594 C 15.859375 9.078125 15.382812 8.816406 15.382812 8.816406 C 15.332031 8.496094 15.238281 8.183594 15.101562 7.894531 C 14.867188 7.320312 14.433594 6.761719 13.820312 6.507812 C 13.726562 6.1875 13.570312 5.9375 13.355469 5.753906 C 13.09375 5.53125 12.769531 5.40625 12.398438 5.386719 C 12.097656 5.394531 11.792969 5.46875 11.507812 5.589844 C 11.269531 5.691406 11.042969 5.820312 10.839844 5.972656 C 10.648438 6.109375 10.472656 6.261719 10.328125 6.421875 C 9.957031 6.476562 9.613281 6.613281 9.308594 6.824219 C 8.507812 7.558594 7.71875 8.050781 6.960938 8.289062 L 6.917969 8.296875 L 6.476562 8.410156 C 6.5625 8.542969 6.878906 8.78125 6.878906 8.78125 C 6.894531 8.792969 6.90625 8.796875 6.917969 8.808594 C 7.34375 9.109375 7.9375 9.082031 8.378906 8.945312 C 9.046875 8.679688 9.148438 8.597656 9.148438 8.597656 C 8.902344 8.957031 8.671875 9.253906 8.671875 9.253906 C 8.671875 9.253906 8.480469 9.496094 8.332031 9.65625 C 8.332031 9.65625 8.582031 9.664062 8.714844 9.644531 C 8.847656 9.632812 9.34375 9.519531 9.523438 9.410156 C 9.703125 9.300781 10.1875 8.957031 10.195312 8.953125 C 10.324219 8.851562 10.664062 8.386719 10.839844 8.167969 C 10.898438 8.09375 10.9375 8.046875 10.941406 8.054688 C 11.023438 8.230469 11.175781 8.410156 11.304688 8.5 C 11.324219 8.511719 11.414062 8.566406 11.507812 8.628906 C 11.621094 8.695312 11.738281 8.769531 11.761719 8.792969 C 11.699219 9.023438 11.59375 9.429688 11.507812 9.757812 C 11.445312 9.996094 11.394531 10.191406 11.375 10.25 C 11.230469 10.109375 11.054688 9.988281 10.839844 9.90625 C 10.734375 9.867188 10.625 9.835938 10.5 9.8125 C 9.972656 9.730469 9.375 10.035156 8.90625 10.625 C 8.59375 11.007812 8.421875 11.550781 8.417969 11.734375 C 8.40625 12.03125 8.183594 12.121094 8.105469 12.144531 C 7.945312 12.144531 7.828125 12.007812 7.828125 12.007812 L 7.484375 11.570312 L 7.378906 12.121094 C 7.332031 12.382812 7.382812 12.9375 7.957031 13.152344 C 8.171875 13.21875 8.589844 13.140625 8.855469 12.648438 C 8.941406 12.445312 8.96875 12.25 8.992188 12.09375 C 8.996094 12.050781 9 12.015625 9.007812 11.980469 C 9.027344 11.863281 9.078125 11.75 9.167969 11.609375 C 9.390625 11.324219 9.71875 11.191406 10.050781 11.253906 C 10.351562 11.320312 10.605469 11.527344 10.839844 11.773438 C 10.859375 11.792969 10.878906 11.8125 10.898438 11.835938 C 10.878906 11.835938 10.859375 11.839844 10.839844 11.839844 C 10.433594 11.871094 10.046875 12.015625 9.632812 12.289062 C 9.03125 12.65625 8.546875 13.421875 8.574219 14.101562 C 8.582031 14.59375 8.683594 15.078125 8.703125 15.078125 C 8.703125 15.078125 8.800781 14.695312 9 14.253906 C 9.351562 13.632812 9.890625 13.324219 10.511719 13.316406 C 10.621094 13.308594 10.730469 13.316406 10.839844 13.335938 C 10.960938 13.359375 11.085938 13.394531 11.207031 13.4375 C 11.082031 13.488281 10.957031 13.550781 10.839844 13.625 C 10.734375 13.691406 10.632812 13.769531 10.539062 13.863281 C 10.214844 14.1875 10.050781 14.636719 10.035156 15.238281 C 10.035156 15.238281 10.058594 15.535156 10.121094 15.722656 C 10.183594 15.910156 10.285156 16.046875 10.285156 16.046875 C 10.367188 15.847656 10.402344 15.792969 10.402344 15.792969 C 10.402344 15.792969 10.523438 15.894531 10.675781 15.917969 C 10.734375 15.933594 10.789062 15.941406 10.839844 15.949219 C 10.992188 15.972656 11.117188 15.976562 11.214844 15.976562 C 11.09375 16.144531 11.015625 16.265625 10.839844 16.402344 C 10.792969 16.433594 10.746094 16.46875 10.683594 16.507812 C 10.386719 16.691406 10.003906 16.761719 10.003906 16.761719 C 10.003906 16.761719 10.257812 16.988281 10.542969 17.015625 C 10.625 17.027344 10.730469 17.03125 10.839844 17.035156 C 11.050781 17.039062 11.296875 17.015625 11.507812 16.914062 C 11.554688 16.890625 11.601562 16.863281 11.648438 16.832031 C 11.648438 16.832031 11.667969 16.960938 11.507812 17.132812 C 11.484375 17.160156 11.457031 17.1875 11.421875 17.214844 L 11.507812 17.226562 L 11.746094 17.253906 C 11.871094 17.28125 12.25 17.203125 12.515625 17.050781 C 12.496094 17.09375 12.480469 17.140625 12.476562 17.191406 C 12.460938 17.300781 12.398438 17.503906 12.351562 17.667969 C 12.253906 18.003906 12.199219 18.390625 12.199219 18.390625 C 12.199219 18.390625 12.691406 18.285156 12.925781 18.105469 C 13.054688 18.011719 13.210938 17.890625 13.3125 17.839844 C 13.460938 17.765625 13.539062 17.628906 13.585938 17.480469 C 13.585938 17.480469 13.777344 17.453125 13.832031 17.429688 C 13.738281 17.664062 13.636719 17.816406 13.636719 17.820312 L 13.085938 18.640625 L 13.964844 18.1875 C 13.984375 18.175781 14.40625 17.957031 14.695312 17.535156 C 14.722656 17.496094 14.746094 17.457031 14.773438 17.421875 C 14.769531 17.441406 14.703125 18.011719 14.703125 18.011719 L 15.167969 17.695312 C 15.183594 17.683594 15.238281 17.644531 15.296875 17.570312 L 15.503906 17.585938 C 15.660156 17.597656 15.898438 17.507812 15.988281 17.222656 C 16.285156 17.203125 16.945312 17.292969 17.070312 17.453125 C 17.324219 17.78125 17.441406 17.851562 17.597656 17.921875 C 17.726562 17.988281 17.925781 18.03125 18.085938 18.046875 C 18.175781 18.058594 18.273438 18.070312 18.375 18.09375 C 18.554688 18.125 18.996094 18.304688 18.996094 18.347656 C 18.992188 18.4375 18.945312 18.671875 18.648438 19.207031 C 18.601562 19.292969 18.574219 19.34375 18.375 19.710938 C 18.375 19.710938 18.449219 19.695312 18.546875 19.675781 C 18.789062 19.367188 19.371094 18.441406 19.148438 18.183594 C 18.988281 18.078125 18.574219 17.890625 18.355469 17.855469 C 18.121094 17.796875 17.855469 17.808594 17.707031 17.734375 C 17.5625 17.660156 17.488281 17.664062 17.214844 17.308594 C 16.941406 16.957031 15.695312 16.929688 15.714844 17.042969 C 15.683594 17.359375 15.46875 17.34375 15.46875 17.34375 C 15.46875 17.34375 15.542969 16.820312 15.246094 16.835938 C 15.253906 16.839844 15.265625 16.871094 15.203125 17.105469 C 15.121094 17.394531 14.972656 17.496094 14.972656 17.496094 C 14.972656 17.496094 14.996094 17.273438 14.910156 17.027344 C 14.832031 16.816406 14.871094 16.828125 14.78125 16.703125 C 14.761719 16.820312 14.691406 17.027344 14.4375 17.402344 C 14.179688 17.773438 13.800781 17.96875 13.800781 17.96875 C 13.800781 17.96875 13.949219 17.746094 14.070312 17.410156 C 14.191406 17.070312 14.105469 16.804688 14.105469 16.804688 C 14.105469 16.804688 14.050781 16.949219 13.894531 17.082031 C 13.738281 17.210938 13.636719 17.222656 13.636719 17.222656 C 13.710938 17.070312 13.808594 16.808594 13.800781 16.574219 C 13.777344 16.546875 13.734375 16.5625 13.703125 16.574219 C 13.601562 16.632812 13.507812 16.625 13.417969 16.773438 C 13.324219 16.921875 13.386719 17.503906 13.148438 17.625 C 12.914062 17.746094 12.5 18.113281 12.472656 18.078125 C 12.445312 18.042969 12.648438 17.488281 12.679688 17.238281 C 12.714844 16.988281 13.203125 16.839844 13.304688 16.699219 C 13.40625 16.554688 13.484375 16.238281 13.445312 16.175781 C 13.402344 16.113281 13.105469 16.277344 12.832031 16.277344 C 12.710938 16.289062 12.585938 16.65625 12.464844 16.761719 C 12.257812 16.949219 11.761719 17.039062 11.75 17.011719 C 12.21875 16.609375 12.15625 16.335938 12.15625 16.335938 C 11.894531 16.382812 11.707031 16.625 11.449219 16.707031 C 11.167969 16.832031 10.449219 16.84375 10.453125 16.8125 C 10.527344 16.769531 10.617188 16.753906 10.695312 16.710938 C 11.039062 16.601562 11.25 16.324219 11.4375 16.054688 C 11.625 15.78125 11.730469 15.640625 12.417969 15.648438 C 12.492188 15.667969 12.878906 15.253906 12.777344 15.167969 C 12.625 15.101562 12.359375 15.183594 12.3125 15.179688 C 12.125 15.214844 11.851562 15.546875 11.691406 15.609375 C 11.304688 15.75 11.167969 15.765625 10.757812 15.699219 C 10.746094 15.6875 10.972656 15.597656 11.140625 15.277344 C 11.304688 14.960938 11.664062 14.597656 12.019531 14.367188 L 12.027344 14.355469 C 11.960938 14.296875 11.851562 14.324219 11.769531 14.316406 C 11.136719 14.363281 10.558594 14.835938 10.292969 15.40625 C 10.234375 15.390625 10.265625 15.304688 10.25 15.261719 C 10.261719 14.8125 10.363281 14.382812 10.679688 14.066406 C 10.996094 13.746094 11.40625 13.628906 11.8125 13.515625 C 11.832031 13.5 11.828125 13.480469 11.8125 13.46875 C 11.390625 13.265625 10.957031 13.058594 10.457031 13.085938 C 9.742188 13.09375 9.082031 13.535156 8.789062 14.179688 C 8.75 14.195312 8.761719 14.144531 8.753906 14.125 C 8.824219 13.484375 9.164062 12.875 9.726562 12.53125 C 10.105469 12.28125 10.511719 12.101562 10.996094 12.113281 C 11.148438 12.113281 11.285156 12.148438 11.425781 12.160156 C 11.449219 12.152344 11.4375 12.121094 11.421875 12.109375 C 11.035156 11.691406 10.648438 11.160156 10.066406 11.035156 C 9.617188 10.953125 9.203125 11.128906 8.929688 11.484375 C 8.824219 11.644531 8.75 11.796875 8.71875 11.964844 C 8.691406 12.136719 8.679688 12.355469 8.585938 12.574219 C 8.398438 12.921875 8.113281 12.96875 7.992188 12.933594 C 7.496094 12.746094 7.597656 12.195312 7.597656 12.195312 C 7.597656 12.195312 7.796875 12.441406 8.105469 12.425781 C 8.105469 12.425781 8.613281 12.320312 8.636719 11.769531 C 8.636719 11.65625 8.785156 11.160156 9.066406 10.816406 C 9.414062 10.375 9.929688 10.019531 10.417969 10.097656 C 10.90625 10.175781 11.171875 10.441406 11.445312 10.789062 C 11.472656 10.808594 11.484375 10.761719 11.488281 10.746094 C 11.621094 10.097656 11.96875 8.84375 12.003906 8.753906 C 11.976562 8.65625 11.527344 8.414062 11.410156 8.328125 C 11.292969 8.242188 11.148438 8.054688 11.109375 7.925781 C 11.070312 7.792969 11.105469 7.5 11.105469 7.5 C 11.105469 7.5 11.210938 7.71875 11.65625 7.90625 C 11.859375 7.996094 12.289062 8.046875 12.289062 8.046875 L 12.511719 7.535156 C 12.511719 7.535156 12.605469 7.335938 12.660156 7.242188 L 12.585938 7.199219 C 12.308594 7.027344 11.441406 7.351562 10.96875 7.398438 C 10.78125 7.734375 10.445312 8.316406 9.996094 8.789062 C 9.804688 8.964844 9.730469 9.054688 9.460938 9.222656 C 9.1875 9.390625 8.933594 9.46875 8.886719 9.480469 C 8.839844 9.492188 8.699219 9.574219 8.648438 9.515625 C 9.035156 9.253906 9.359375 9.011719 9.417969 8.699219 C 9.476562 8.386719 9.652344 8.0625 9.75 7.886719 C 9.722656 7.867188 9.632812 7.996094 9.539062 8.0625 C 9.070312 8.429688 8.78125 8.535156 8.25 8.746094 C 7.851562 8.867188 7.339844 8.875 7.003906 8.617188 C 6.996094 8.605469 6.996094 8.578125 7.003906 8.566406 C 7.902344 8.285156 8.699219 7.726562 9.417969 7.074219 C 9.707031 6.875 10.027344 6.75 10.382812 6.707031 L 10.425781 6.691406 C 10.921875 6.171875 11.535156 5.742188 12.359375 5.6875 C 12.648438 5.699219 12.917969 5.800781 13.140625 5.988281 C 13.367188 6.183594 13.488281 6.445312 13.554688 6.714844 C 13.621094 6.765625 13.699219 6.796875 13.765625 6.832031 C 14.25 7.089844 14.617188 7.546875 14.8125 8.027344 C 15.089844 8.617188 15.148438 9.171875 15.089844 9.945312 C 15.035156 10.714844 14.976562 10.960938 14.601562 11.601562 C 13.71875 13.070312 14.367188 13.984375 14.734375 13.992188 C 15.300781 14.074219 15.632812 13.144531 15.945312 12.84375 C 16.257812 12.542969 16.597656 12.285156 16.746094 12.242188 C 16.625 12.136719 16.347656 12.023438 16.238281 11.859375 C 16.238281 11.859375 16.929688 11.890625 17.152344 11.785156 C 17.152344 11.785156 16.25 11.71875 15.886719 11.320312 C 15.886719 11.320312 17.113281 11.429688 17.113281 11.292969 C 17.113281 11.292969 16.183594 11.378906 15.765625 10.484375 C 15.765625 10.484375 16.296875 10.703125 16.488281 10.621094 C 16.488281 10.621094 15.714844 9.964844 15.546875 9.238281 C 15.710938 9.320312 16.929688 10.121094 17.082031 10.082031 C 17.082031 10.082031 16.25 9.503906 16.195312 8.773438 C 16.195312 8.773438 16.976562 9.621094 17.566406 9.585938 C 17.566406 9.585938 16.9375 8.921875 16.945312 8.570312 C 16.957031 8.214844 17.078125 8.039062 17.070312 7.789062 C 17.058594 7.539062 16.949219 7.21875 16.949219 7.21875 C 16.949219 7.21875 17.152344 7.296875 17.300781 7.433594 C 17.445312 7.570312 17.5625 7.808594 17.625 7.863281 C 17.664062 7.820312 17.785156 7.175781 17.605469 6.6875 C 17.605469 6.6875 17.8125 6.839844 18 7.027344 C 18.1875 7.207031 18.28125 7.570312 18.28125 7.570312 C 18.28125 7.570312 18.605469 6.914062 18.320312 6.28125 C 18.320312 6.28125 18.46875 6.457031 18.546875 6.527344 C 18.785156 6.792969 18.847656 7.03125 18.847656 7.355469 C 18.847656 7.679688 18.675781 7.902344 18.746094 8.082031 C 18.746094 8.082031 18.789062 8.015625 18.953125 7.75 C 19.109375 7.488281 19.132812 7.21875 19.0625 6.980469 C 18.996094 6.742188 18.957031 6.679688 18.957031 6.5 C 18.953125 6.324219 19.039062 6.203125 19.058594 6.113281 C 19.066406 6.101562 19.050781 6.492188 19.167969 6.628906 C 19.28125 6.8125 19.398438 6.820312 19.574219 7.027344 C 19.746094 7.230469 19.761719 7.511719 19.761719 7.511719 C 19.761719 7.511719 19.871094 7.335938 20.074219 7.164062 C 20.097656 6.929688 20.222656 6.453125 20.550781 6.3125 C 20.496094 6.804688 20.519531 6.917969 20.519531 6.917969 C 20.519531 6.917969 20.605469 6.894531 20.710938 6.878906 C 20.816406 6.859375 20.9375 6.890625 20.9375 6.890625 C 20.9375 6.890625 20.78125 6.984375 20.730469 7.039062 C 20.679688 7.09375 20.574219 7.21875 20.574219 7.21875 C 20.589844 7.308594 20.625 7.59375 20.800781 8.066406 C 20.976562 8.539062 21.097656 8.617188 21.300781 8.921875 C 21.308594 8.917969 21.0625 8.328125 21.324219 8.230469 C 21.324219 8.230469 21.398438 8.667969 21.71875 8.949219 C 21.71875 8.949219 21.675781 8.640625 21.703125 8.378906 C 21.703125 8.378906 22.011719 8.886719 22.136719 8.855469 C 22.136719 8.855469 22.238281 8.722656 22.230469 8.535156 C 22.300781 8.65625 22.691406 9.511719 23.101562 9.640625 C 23.351562 9.757812 23.722656 9.707031 23.835938 9.722656 C 23.949219 9.742188 24.0625 9.746094 24.058594 9.734375 C 24.007812 9.675781 23.925781 9.617188 23.949219 9.5 C 23.972656 9.382812 24.097656 9.339844 24.234375 9.324219 C 24.367188 9.3125 24.507812 9.324219 24.707031 9.421875 C 24.902344 9.523438 25.085938 9.679688 25.226562 10.03125 C 25.289062 10.132812 25.238281 10.289062 25.277344 10.324219 C 25.34375 10.371094 25.492188 10.417969 25.570312 10.460938 C 25.722656 10.554688 25.808594 10.542969 26.003906 10.871094 C 25.691406 10.742188 25.371094 10.769531 25.371094 10.769531 C 25.371094 10.769531 25.429688 10.855469 25.535156 10.917969 C 25.507812 10.976562 25.289062 10.878906 25.277344 10.890625 C 25.285156 10.992188 25.429688 11.050781 25.667969 11.167969 L 25.316406 11.175781 C 25.316406 11.175781 25.207031 11.171875 25.046875 11.136719 C 25.046875 11.136719 24.902344 11.210938 24.8125 11.300781 C 24.394531 11.722656 24.019531 11.609375 23.929688 11.605469 C 23.722656 11.597656 23.554688 11.238281 23.808594 10.929688 C 23.808594 10.929688 22.960938 11.039062 22.691406 11.140625 C 22.425781 11.238281 21.875 11.605469 21.875 11.605469 C 21.875 11.605469 21.90625 11.308594 21.832031 11.324219 C 21.726562 11.367188 21.5625 11.464844 21.535156 11.601562 C 21.507812 11.738281 21.542969 11.878906 21.628906 11.949219 C 21.859375 12.097656 23.117188 12.214844 24.035156 12.214844 C 24.953125 12.214844 25.65625 12.113281 26.792969 11.800781 C 26.660156 12.359375 26.222656 12.394531 26.125 12.496094 C 26.027344 12.59375 26.117188 12.585938 26.03125 12.648438 C 25.882812 12.757812 25.40625 12.839844 25.320312 12.941406 C 25.234375 13.039062 25.238281 13.0625 25.238281 13.0625 C 25.238281 13.0625 25.265625 13.070312 25.3125 13.097656 C 25.351562 13.125 25.582031 13.351562 25.621094 13.441406 C 25.660156 13.53125 25.664062 13.765625 25.632812 13.808594 C 25.59375 13.78125 25.546875 13.75 25.546875 13.75 C 25.523438 13.785156 25.550781 14.03125 25.5 14.058594 C 25.488281 13.996094 25.429688 13.976562 25.40625 13.976562 C 25.363281 13.996094 25.433594 14.101562 25.324219 14.273438 C 25.332031 14.171875 25.257812 14.054688 25.230469 14 C 25.199219 13.941406 25 13.820312 24.914062 13.796875 C 24.828125 13.773438 24.574219 13.796875 24.574219 13.796875 C 24.574219 13.796875 24.363281 13.921875 24.328125 14.023438 C 24.289062 14.128906 24.414062 14.335938 24.46875 14.355469 C 24.519531 14.375 24.953125 14.4375 25.140625 14.390625 C 25.167969 14.390625 25.265625 14.332031 25.296875 14.296875 C 25.226562 14.457031 25.167969 14.742188 24.96875 14.742188 C 24.769531 14.738281 24.367188 14.734375 24.089844 14.660156 C 23.949219 14.574219 23.882812 14.488281 23.789062 14.359375 C 23.734375 14.332031 23.785156 14.855469 23.824219 14.871094 C 24.132812 14.980469 24.75 15.160156 25.214844 15.289062 C 25.679688 15.417969 26.761719 15.621094 27.085938 15.648438 C 27.480469 15.757812 25.941406 16.105469 25.925781 16.121094 C 25.980469 16.164062 26.046875 16.136719 26.105469 16.203125 C 26.324219 16.816406 24.964844 16.578125 24.699219 16.644531 L 24.6875 16.65625 C 24.757812 16.710938 24.921875 16.761719 24.921875 16.761719 C 24.675781 17.003906 23.695312 17.0625 23.167969 17.023438 C 22.640625 16.984375 21.851562 16.765625 21.851562 16.765625 C 21.871094 16.804688 22.089844 16.980469 21.964844 16.984375 C 21.839844 16.992188 21.410156 16.992188 21.050781 16.949219 C 20.6875 16.90625 19.964844 16.667969 19.761719 16.515625 C 19.554688 16.359375 19.507812 16.34375 19.441406 16.363281 C 19.371094 16.386719 19.285156 16.515625 19.171875 16.582031 C 19.054688 16.648438 18.898438 16.644531 18.835938 16.691406 C 18.777344 16.738281 18.789062 16.824219 18.75 16.980469 C 18.707031 17.136719 18.648438 17.253906 18.65625 17.300781 C 18.664062 17.347656 18.925781 17.460938 18.925781 17.460938 L 19.21875 17.539062 C 19.21875 17.539062 19.601562 17.480469 19.761719 17.617188 C 20.027344 17.671875 20.265625 17.453125 20.457031 17.363281 C 20.648438 17.273438 20.828125 17.152344 20.957031 17.152344 C 21.082031 17.148438 21.785156 17.679688 21.828125 17.765625 C 21.867188 17.855469 22 18.65625 21.894531 18.625 C 21.867188 18.570312 21.816406 18.585938 21.816406 18.585938 C 21.816406 18.585938 21.824219 18.691406 21.765625 18.714844 C 21.757812 18.683594 21.695312 18.660156 21.695312 18.660156 C 21.695312 18.660156 21.628906 18.933594 21.371094 18.929688 C 21.445312 18.664062 21.386719 18.585938 21.386719 18.585938 C 21.386719 18.585938 21.234375 18.6875 21.082031 18.59375 C 21.277344 18.527344 21.210938 18.285156 21.210938 18.285156 C 21.210938 18.285156 21.226562 18.125 20.996094 18.097656 C 20.773438 18.066406 20.550781 18.132812 20.46875 18.21875 C 20.382812 18.304688 20.378906 18.589844 20.445312 18.707031 C 20.507812 18.824219 20.523438 18.84375 20.621094 18.90625 C 20.722656 18.96875 20.765625 19.007812 20.886719 18.996094 C 21.007812 18.988281 21.070312 18.976562 21.167969 18.910156 C 21.230469 19.066406 21.003906 19.1875 21.003906 19.1875 C 20.757812 19.351562 20.246094 19.183594 20.136719 18.972656 C 20.027344 18.761719 20 18.40625 19.84375 18.265625 C 19.808594 18.21875 19.566406 18.207031 19.5625 18.246094 C 19.496094 19.011719 18.964844 19.460938 18.582031 19.667969 C 18.707031 19.644531 18.859375 19.609375 18.953125 19.570312 C 19.128906 19.496094 19.082031 19.503906 19.246094 19.398438 C 19.40625 19.292969 19.78125 18.808594 19.816406 18.609375 C 19.824219 18.558594 19.921875 18.976562 19.976562 19.082031 C 20.066406 19.253906 20.277344 19.398438 20.542969 19.464844 C 20.800781 19.53125 21.046875 19.503906 21.214844 19.390625 L 21.433594 19.179688 L 21.601562 19.140625 C 21.859375 19.082031 21.90625 18.863281 21.925781 18.871094 C 21.976562 18.882812 22.054688 18.90625 22.070312 18.902344 L 22.179688 18.773438 C 22.382812 18.535156 22.132812 17.65625 22.128906 17.648438 C 22.097656 17.578125 21.890625 17.390625 21.675781 17.226562 C 21.828125 17.230469 21.996094 17.230469 22.050781 17.226562 C 22.171875 17.21875 22.273438 17.105469 22.273438 17.105469 C 22.554688 17.167969 22.925781 17.242188 23.226562 17.265625 C 23.613281 17.292969 24.8125 17.289062 25.179688 16.929688 C 25.179688 16.929688 25.199219 16.878906 25.226562 16.878906 C 25.675781 16.886719 26.167969 16.878906 26.378906 16.589844 C 26.445312 16.492188 26.457031 16.25 26.457031 16.25 C 27.277344 16.027344 27.488281 15.925781 27.492188 15.679688 C 27.492188 15.625 27.472656 15.449219 27.238281 15.386719 "/>
<path style=" stroke:none;fill-rule:nonzero;fill:rgb(100%,100%,100%);fill-opacity:1;" d="M 24.917969 13.628906 C 24.789062 13.609375 24.652344 13.714844 24.652344 13.714844 C 24.652344 13.714844 24.859375 13.707031 24.910156 13.726562 C 24.960938 13.742188 25.152344 13.828125 25.261719 13.941406 C 25.289062 13.972656 25.308594 13.996094 25.332031 14.066406 C 25.355469 13.976562 25.335938 13.917969 25.3125 13.886719 C 25.265625 13.808594 25.042969 13.644531 24.917969 13.628906 "/>
<path style=" stroke:none;fill-rule:nonzero;fill:rgb(100%,100%,100%);fill-opacity:1;" d="M 24.660156 13.289062 C 24.707031 13.28125 25.109375 13.269531 25.175781 13.320312 C 25.238281 13.367188 25.539062 13.585938 25.570312 13.6875 C 25.585938 13.582031 25.585938 13.519531 25.546875 13.464844 C 25.5 13.378906 25.296875 13.1875 25.234375 13.148438 C 25.175781 13.109375 24.511719 13.09375 24.417969 13.160156 C 24.328125 13.226562 24.035156 13.523438 24.035156 13.523438 C 24.035156 13.523438 23.769531 13.785156 23.707031 13.804688 C 23.636719 13.824219 23.640625 13.816406 23.605469 13.832031 C 23.574219 13.84375 23.664062 14.300781 23.695312 14.300781 C 23.726562 14.300781 23.828125 14.226562 23.867188 14.257812 C 23.910156 14.285156 23.964844 14.363281 23.964844 14.363281 C 23.964844 14.363281 24.101562 14.507812 24.175781 14.570312 C 24.191406 14.59375 24.746094 14.664062 25.003906 14.660156 C 25.050781 14.660156 25.144531 14.476562 25.144531 14.476562 C 25.007812 14.5625 24.457031 14.476562 24.390625 14.453125 C 24.324219 14.429688 24.167969 14.128906 24.1875 14.011719 C 24.207031 13.894531 24.503906 13.703125 24.503906 13.703125 C 24.503906 13.703125 24.652344 13.601562 24.699219 13.582031 C 24.78125 13.550781 24.890625 13.550781 24.890625 13.550781 C 24.890625 13.550781 24.992188 13.558594 25.078125 13.585938 C 25.167969 13.617188 25.4375 13.8125 25.464844 13.933594 C 25.488281 13.828125 25.488281 13.726562 25.445312 13.699219 C 25.402344 13.628906 25.167969 13.421875 25.113281 13.394531 C 25.054688 13.367188 24.609375 13.371094 24.601562 13.355469 C 24.589844 13.34375 24.613281 13.300781 24.660156 13.289062 "/>
<path style=" stroke:none;fill-rule:nonzero;fill:rgb(100%,100%,100%);fill-opacity:1;" d="M 23.5 13.851562 C 23.445312 13.839844 23.328125 13.894531 23.230469 13.90625 C 23.15625 13.917969 23.089844 14.035156 23.074219 14.078125 C 23.054688 14.121094 23.109375 14.183594 23.136719 14.285156 C 23.160156 14.390625 23.121094 14.523438 23.164062 14.523438 C 23.207031 14.523438 23.253906 14.445312 23.324219 14.421875 C 23.394531 14.398438 23.53125 14.390625 23.570312 14.371094 C 23.605469 14.351562 23.570312 14.238281 23.558594 14.15625 C 23.550781 14.070312 23.550781 13.859375 23.5 13.851562 "/>
<path style=" stroke:none;fill-rule:nonzero;fill:rgb(100%,100%,100%);fill-opacity:1;" d="M 23.457031 14.75 C 23.4375 14.808594 23.664062 14.855469 23.699219 14.835938 C 23.738281 14.816406 23.691406 14.515625 23.679688 14.453125 C 23.667969 14.390625 23.480469 14.457031 23.425781 14.476562 C 23.375 14.496094 23.441406 14.742188 23.457031 14.75 "/>
<path style=" stroke:none;fill-rule:nonzero;fill:rgb(100%,100%,100%);fill-opacity:1;" d="M 23.019531 14.574219 C 23.054688 14.355469 23.011719 14.15625 22.9375 14.152344 C 22.847656 14.132812 22.355469 14.226562 22.328125 14.269531 C 22.308594 14.3125 23.003906 14.625 23.019531 14.574219 "/>
<path style=" stroke:none;fill-rule:nonzero;fill:rgb(100%,100%,100%);fill-opacity:1;" d="M 18.824219 17.5 C 18.714844 17.445312 18.625 17.367188 18.578125 17.367188 C 18.527344 17.367188 18.316406 17.671875 18.324219 17.714844 C 18.328125 17.753906 18.546875 17.792969 18.675781 17.847656 C 18.804688 17.902344 18.980469 17.980469 19.023438 17.980469 C 19.0625 17.980469 19.195312 17.660156 19.148438 17.605469 C 19.128906 17.566406 18.933594 17.554688 18.824219 17.5 "/>
<path style=" stroke:none;fill-rule:nonzero;fill:rgb(100%,100%,100%);fill-opacity:1;" d="M 19.480469 18.230469 C 19.480469 18.230469 19.347656 18.265625 19.261719 18.222656 C 19.355469 18.625 18.789062 19.441406 18.789062 19.441406 C 18.925781 19.40625 19.433594 18.945312 19.480469 18.230469 "/>
<path style=" stroke:none;fill-rule:nonzero;fill:rgb(100%,100%,100%);fill-opacity:1;" d="M 19.726562 18.121094 C 19.777344 18.140625 19.914062 18.101562 20.015625 18.320312 C 20.121094 18.507812 20.175781 18.894531 20.277344 18.984375 C 20.382812 19.074219 20.390625 19.101562 20.644531 19.152344 C 20.894531 19.175781 21 19.140625 21.011719 19.074219 C 20.710938 19.136719 20.566406 18.996094 20.566406 18.996094 C 20.566406 18.996094 20.410156 18.902344 20.347656 18.765625 C 20.289062 18.628906 20.269531 18.398438 20.308594 18.304688 C 20.34375 18.210938 20.378906 18.101562 20.503906 18.050781 C 20.59375 18.015625 20.710938 17.964844 20.863281 17.964844 C 21.019531 17.964844 21.164062 17.964844 21.28125 18.09375 C 21.320312 18.152344 21.332031 18.269531 21.332031 18.296875 C 21.351562 18.449219 21.28125 18.519531 21.28125 18.519531 C 21.28125 18.519531 21.414062 18.539062 21.441406 18.410156 C 21.480469 18.515625 21.5 18.570312 21.503906 18.777344 C 21.503906 18.777344 21.703125 18.613281 21.636719 18.382812 C 21.636719 18.382812 21.578125 18.054688 21.457031 17.910156 C 21.339844 17.769531 21.039062 17.628906 20.929688 17.625 C 20.820312 17.621094 20.453125 17.820312 20.417969 17.773438 C 20.382812 17.730469 20.824219 17.46875 20.976562 17.476562 C 21.128906 17.484375 21.449219 17.738281 21.542969 17.839844 C 21.640625 17.972656 21.714844 18.261719 21.726562 18.492188 C 21.925781 18.511719 21.804688 17.902344 21.703125 17.777344 C 21.640625 17.703125 21.078125 17.226562 20.914062 17.261719 C 20.75 17.292969 20.242188 17.605469 20.09375 17.671875 C 19.9375 17.742188 19.777344 17.6875 19.75 17.699219 C 19.714844 17.714844 19.777344 17.800781 19.75 17.925781 C 19.71875 18.046875 19.679688 18.101562 19.726562 18.121094 "/>
<path style=" stroke:none;fill-rule:nonzero;fill:rgb(100%,100%,100%);fill-opacity:1;" d="M 19.585938 18.121094 C 19.648438 18.101562 19.691406 17.800781 19.671875 17.707031 C 19.652344 17.613281 19.324219 17.597656 19.269531 17.628906 C 19.226562 17.632812 19.214844 17.773438 19.191406 17.847656 C 19.160156 17.953125 19.09375 18.015625 19.121094 18.050781 C 19.164062 18.160156 19.453125 18.167969 19.585938 18.121094 "/>
<path style=" stroke:none;fill-rule:nonzero;fill:rgb(100%,100%,100%);fill-opacity:1;" d="M 25.398438 10.699219 C 25.457031 10.691406 25.621094 10.71875 25.699219 10.726562 C 25.773438 10.734375 25.890625 10.78125 25.890625 10.78125 C 25.890625 10.78125 25.859375 10.667969 25.640625 10.558594 C 25.535156 10.507812 25.410156 10.4375 25.335938 10.453125 C 25.257812 10.472656 25.105469 10.6875 25.078125 10.777344 C 25.046875 10.863281 25.050781 11.042969 25.210938 11.101562 C 25.390625 11.144531 25.492188 11.125 25.492188 11.125 C 25.492188 11.125 25.261719 11.089844 25.183594 10.890625 C 25.140625 10.75 25.335938 10.707031 25.398438 10.699219 "/>
<path style=" stroke:none;fill-rule:nonzero;fill:rgb(58.823529%,3.921569%,16.862745%);fill-opacity:1;" d="M 10.941406 8.054688 C 10.9375 8.046875 10.898438 8.09375 10.839844 8.167969 L 10.839844 9.90625 C 11.054688 9.988281 11.230469 10.109375 11.375 10.25 C 11.394531 10.191406 11.445312 9.996094 11.507812 9.757812 L 11.507812 8.628906 C 11.414062 8.566406 11.324219 8.511719 11.304688 8.5 C 11.179688 8.410156 11.023438 8.230469 10.941406 8.054688 "/>
<path style=" stroke:none;fill-rule:nonzero;fill:rgb(58.823529%,3.921569%,16.862745%);fill-opacity:1;" d="M 28.890625 4.902344 L 23.84375 0 L 11.855469 0 L 6.25 5.445312 L 6.25 19.554688 L 11.855469 25 L 23.84375 25 L 28.890625 20.101562 L 28.890625 17.730469 L 23.628906 17.730469 L 23.628906 19.804688 L 11.507812 19.804688 L 11.507812 17.226562 L 11.421875 17.214844 C 11.457031 17.1875 11.484375 17.15625 11.507812 17.132812 L 11.507812 16.914062 C 11.296875 17.015625 11.050781 17.039062 10.839844 17.035156 L 10.839844 20.457031 L 24.300781 20.457031 L 24.300781 18.382812 L 28.21875 18.382812 L 28.21875 19.832031 L 23.566406 24.347656 L 12.132812 24.347656 L 6.917969 19.285156 L 6.917969 8.808594 C 6.90625 8.796875 6.894531 8.792969 6.878906 8.78125 C 6.878906 8.78125 6.5625 8.542969 6.476562 8.410156 L 6.917969 8.296875 L 6.917969 5.714844 L 12.132812 0.652344 L 23.566406 0.652344 L 28.21875 5.167969 L 28.21875 6.617188 L 24.300781 6.617188 L 24.300781 4.542969 L 10.839844 4.542969 L 10.839844 5.972656 C 11.042969 5.820312 11.269531 5.691406 11.507812 5.589844 L 11.507812 5.195312 L 23.628906 5.195312 L 23.628906 7.269531 L 28.890625 7.269531 Z M 28.890625 4.902344 "/>
<path style=" stroke:none;fill-rule:nonzero;fill:rgb(58.823529%,3.921569%,16.862745%);fill-opacity:1;" d="M 10.898438 11.835938 C 10.878906 11.8125 10.859375 11.792969 10.839844 11.773438 L 10.839844 11.839844 C 10.859375 11.839844 10.878906 11.835938 10.898438 11.835938 "/>
<path style=" stroke:none;fill-rule:nonzero;fill:rgb(58.823529%,3.921569%,16.862745%);fill-opacity:1;" d="M 11.207031 13.4375 C 11.085938 13.390625 10.960938 13.359375 10.839844 13.335938 L 10.839844 13.625 C 10.957031 13.550781 11.082031 13.488281 11.207031 13.4375 "/>
<path style=" stroke:none;fill-rule:nonzero;fill:rgb(58.823529%,3.921569%,16.862745%);fill-opacity:1;" d="M 10.839844 16.402344 C 11.015625 16.265625 11.09375 16.144531 11.214844 15.976562 C 11.117188 15.976562 10.992188 15.972656 10.839844 15.949219 Z M 10.839844 16.402344 "/>
<path style=" stroke:none;fill-rule:nonzero;fill:rgb(58.823529%,3.921569%,16.862745%);fill-opacity:1;" d="M 10.839844 15.023438 L 10.839844 15.25 C 10.863281 15.21875 10.886719 15.183594 10.90625 15.140625 C 10.972656 15.015625 11.0625 14.886719 11.167969 14.761719 C 11.042969 14.828125 10.933594 14.925781 10.839844 15.023438 "/>
<path style=" stroke:none;fill-rule:nonzero;fill:rgb(58.823529%,3.921569%,16.862745%);fill-opacity:1;" d="M 11.128906 6.351562 C 11.039062 6.394531 10.90625 6.476562 10.726562 6.648438 C 10.480469 6.863281 10.242188 7.339844 10.203125 7.410156 C 10.160156 7.480469 9.675781 8.253906 9.644531 8.59375 C 9.570312 9.019531 9.328125 9.152344 9.328125 9.152344 C 9.574219 9.03125 9.976562 8.613281 10.191406 8.324219 C 10.503906 7.925781 10.699219 7.527344 10.941406 7.082031 C 11.0625 6.875 11.304688 6.464844 11.472656 6.28125 C 11.53125 6.21875 11.222656 6.304688 11.128906 6.351562 "/>
<path style=" stroke:none;fill-rule:nonzero;fill:rgb(58.823529%,3.921569%,16.862745%);fill-opacity:1;" d="M 13.117188 8.125 C 13.285156 7.84375 13.410156 7.539062 13.429688 7.1875 C 13.414062 6.984375 13.433594 6.769531 13.339844 6.585938 C 13.179688 6.242188 13.078125 6.128906 12.925781 6.023438 C 12.773438 5.917969 12.402344 5.808594 12.40625 5.878906 C 12.394531 5.949219 12.8125 5.9375 12.953125 6.667969 C 13.011719 7 12.917969 7.121094 12.777344 7.429688 C 12.707031 7.554688 12.648438 7.683594 12.597656 7.816406 C 12.21875 8.6875 11.917969 9.59375 11.746094 10.554688 C 11.683594 10.734375 11.683594 11.34375 11.722656 11.523438 C 11.875 12.289062 12.121094 12.742188 12.550781 13.390625 C 12.800781 13.789062 13.445312 14.171875 14.019531 14.292969 C 12.804688 13.570312 12.644531 13.105469 12.644531 13.105469 C 12.644531 13.105469 11.703125 11.640625 12.3125 10 C 12.550781 9.367188 12.800781 8.726562 13.117188 8.125 "/>
<path style=" stroke:none;fill-rule:nonzero;fill:rgb(58.823529%,3.921569%,16.862745%);fill-opacity:1;" d="M 11.398438 6.726562 C 11.34375 6.761719 11.296875 6.816406 11.222656 6.925781 C 11.214844 6.941406 11.074219 7.148438 11.09375 7.167969 C 11.574219 7.179688 12.277344 6.796875 12.730469 7.074219 C 12.78125 7.0625 12.773438 6.941406 12.78125 6.902344 C 12.769531 6.847656 12.792969 6.753906 12.726562 6.726562 C 12.53125 6.699219 12.316406 6.683594 12.109375 6.679688 C 11.921875 6.6875 11.449219 6.691406 11.398438 6.726562 "/>
<path style=" stroke:none;fill-rule:nonzero;fill:rgb(58.823529%,3.921569%,16.862745%);fill-opacity:1;" d="M 9.957031 7.398438 C 10.023438 7.34375 10.070312 7.183594 10.136719 7.0625 C 10.136719 7.0625 10.179688 7.011719 10.082031 7.015625 C 9.878906 7.027344 9.605469 7.214844 9.328125 7.40625 C 8.832031 7.871094 8.292969 8.277344 7.695312 8.527344 C 7.621094 8.574219 7.527344 8.578125 7.460938 8.625 C 7.871094 8.644531 8.234375 8.511719 8.585938 8.351562 C 9.117188 8.121094 9.835938 7.539062 9.957031 7.398438 "/>
<path style=" stroke:none;fill-rule:nonzero;fill:rgb(58.823529%,3.921569%,16.862745%);fill-opacity:1;" d="M 12.492188 13.632812 C 12.492188 13.632812 12.035156 12.75 11.851562 12.542969 C 11.667969 12.332031 11.042969 12.242188 10.59375 12.375 C 10.148438 12.511719 9.882812 12.640625 9.460938 13.019531 C 9.402344 13.097656 9.296875 13.179688 9.269531 13.277344 L 9.335938 13.242188 C 9.921875 12.828125 10.796875 12.5625 12.492188 13.632812 "/>
<path style=" stroke:none;fill-rule:nonzero;fill:rgb(58.823529%,3.921569%,16.862745%);fill-opacity:1;" d="M 21.402344 7.242188 C 21.355469 7.355469 21.332031 7.503906 21.367188 7.769531 C 21.394531 7.972656 21.480469 8.027344 21.480469 8.027344 C 21.539062 7.867188 21.691406 7.851562 21.691406 7.632812 C 21.699219 7.433594 21.644531 7.410156 21.617188 7.226562 C 21.59375 7.09375 21.625 6.925781 21.625 6.925781 C 21.625 6.925781 21.453125 7.128906 21.402344 7.242188 "/>
<path style=" stroke:none;fill-rule:nonzero;fill:rgb(58.823529%,3.921569%,16.862745%);fill-opacity:1;" d="M 19.820312 7.726562 C 19.71875 7.882812 19.675781 8.1875 19.707031 8.398438 C 19.742188 8.605469 19.894531 8.902344 20.011719 8.949219 C 20.128906 8.996094 20.214844 8.957031 20.371094 9.007812 C 20.527344 9.058594 20.695312 9.105469 20.695312 9.105469 C 20.566406 8.988281 20.203125 8.703125 20.175781 8.554688 C 20.171875 8.539062 20.085938 8.304688 20.128906 7.9375 C 20.175781 7.535156 20.613281 6.996094 20.613281 6.996094 C 20.613281 6.996094 20.285156 7.136719 20.128906 7.3125 C 19.960938 7.464844 19.847656 7.667969 19.820312 7.726562 "/>
<path style=" stroke:none;fill-rule:nonzero;fill:rgb(58.823529%,3.921569%,16.862745%);fill-opacity:1;" d="M 12.082031 8.53125 C 12.117188 8.417969 12.148438 8.347656 12.207031 8.230469 C 12.246094 8.183594 11.828125 8.125 11.601562 8.027344 C 11.398438 7.9375 11.234375 7.757812 11.234375 7.757812 C 11.234375 7.757812 11.238281 7.84375 11.253906 7.90625 C 11.277344 7.992188 11.402344 8.113281 11.488281 8.1875 C 11.601562 8.292969 12.074219 8.570312 12.082031 8.53125 "/>
<path style=" stroke:none;fill-rule:nonzero;fill:rgb(58.823529%,3.921569%,16.862745%);fill-opacity:1;" d="M 20.28125 6.769531 C 20.234375 6.890625 20.199219 7.078125 20.199219 7.078125 C 20.277344 7.019531 20.328125 6.992188 20.421875 6.953125 C 20.421875 6.953125 20.410156 6.878906 20.40625 6.78125 C 20.402344 6.6875 20.421875 6.558594 20.421875 6.558594 C 20.421875 6.558594 20.332031 6.648438 20.28125 6.769531 "/>
<path style=" stroke:none;fill-rule:nonzero;fill:rgb(58.823529%,3.921569%,16.862745%);fill-opacity:1;" d="M 24.488281 9.4375 C 24.28125 9.386719 24.09375 9.386719 24.070312 9.53125 C 24.050781 9.671875 24.21875 9.761719 24.21875 9.761719 C 24.21875 9.761719 24.4375 9.777344 24.707031 9.9375 C 24.972656 10.101562 25.121094 10.265625 25.121094 10.265625 C 25.121094 10.167969 25.109375 10.050781 25.074219 9.972656 C 25.003906 9.761719 24.691406 9.488281 24.488281 9.4375 "/>
<path style=" stroke:none;fill-rule:nonzero;fill:rgb(58.823529%,3.921569%,16.862745%);fill-opacity:1;" d="M 24.949219 10.253906 C 24.894531 10.191406 24.621094 9.996094 24.542969 10.007812 C 24.464844 10.023438 24.105469 10.304688 24.105469 10.335938 C 24.089844 10.382812 24.15625 10.484375 24.199219 10.53125 C 24.238281 10.582031 24.308594 10.640625 24.367188 10.632812 C 24.421875 10.621094 24.511719 10.539062 24.519531 10.519531 C 24.539062 10.496094 24.503906 10.503906 24.46875 10.496094 C 24.347656 10.472656 24.34375 10.269531 24.488281 10.203125 C 24.578125 10.164062 24.722656 10.171875 24.835938 10.347656 C 24.910156 10.445312 25.042969 10.511719 25.070312 10.515625 C 25.09375 10.519531 25.140625 10.464844 25.132812 10.4375 C 25.117188 10.378906 25.007812 10.316406 24.949219 10.253906 "/>
<path style=" stroke:none;fill-rule:nonzero;fill:rgb(58.823529%,3.921569%,16.862745%);fill-opacity:1;" d="M 23.824219 11.402344 C 23.882812 11.515625 23.972656 11.53125 24.15625 11.523438 C 24.46875 11.535156 24.796875 11.140625 24.953125 11.078125 C 25.019531 11.035156 25.003906 10.96875 24.976562 10.9375 C 24.949219 10.90625 24.566406 10.890625 24.441406 10.894531 C 24.3125 10.898438 24.023438 10.921875 23.941406 10.980469 C 23.894531 11.003906 23.761719 11.289062 23.824219 11.402344 "/>
<path style=" stroke:none;fill-rule:nonzero;fill:rgb(58.823529%,3.921569%,16.862745%);fill-opacity:1;" d="M 9.792969 10.828125 C 10.613281 10.824219 11.167969 11.476562 11.683594 12.035156 L 11.683594 12.003906 C 11.636719 11.84375 11.257812 10.25 10.304688 10.246094 C 9.824219 10.25 9.390625 10.601562 9.144531 11.019531 L 9.167969 11.023438 C 9.359375 10.921875 9.558594 10.828125 9.792969 10.828125 "/>
<path style=" stroke:none;fill-rule:nonzero;fill:rgb(58.823529%,3.921569%,16.862745%);fill-opacity:1;" d="M 24.570312 10.804688 C 24.730469 10.808594 24.867188 10.839844 24.917969 10.804688 C 24.972656 10.773438 24.9375 10.734375 25.019531 10.621094 C 25.105469 10.5 24.847656 10.59375 24.660156 10.539062 C 24.621094 10.523438 24.519531 10.621094 24.445312 10.679688 C 24.261719 10.785156 24.191406 10.621094 24.160156 10.636719 C 24.132812 10.65625 24.03125 10.792969 24.0625 10.816406 C 24.097656 10.839844 24.410156 10.800781 24.570312 10.804688 "/>
<path style=" stroke:none;fill-rule:nonzero;fill:rgb(58.823529%,3.921569%,16.862745%);fill-opacity:1;" d="M 26.046875 12.367188 C 26.242188 12.292969 26.28125 12.230469 26.300781 12.09375 C 26.046875 12.164062 24.921875 12.367188 24.390625 12.394531 C 23.835938 12.402344 23.277344 12.398438 22.726562 12.355469 C 22.425781 12.332031 21.613281 12.113281 21.6875 12.261719 C 21.804688 12.46875 22.199219 12.863281 22.246094 13.144531 C 22.289062 13.421875 22.234375 13.8125 22.199219 14.109375 C 22.230469 14.171875 22.699219 14.023438 22.839844 14 C 22.988281 13.949219 22.972656 13.835938 23.117188 13.753906 C 23.210938 13.71875 23.519531 13.660156 23.667969 13.652344 C 23.703125 13.667969 23.925781 13.445312 23.960938 13.382812 C 24.003906 13.339844 23.609375 13.402344 23.476562 13.375 C 23.382812 13.367188 23.484375 13.28125 23.53125 13.28125 C 23.582031 13.28125 24.003906 13.324219 24.046875 13.296875 C 24.089844 13.269531 24.296875 13.085938 24.242188 13.066406 C 24.183594 13.042969 23.90625 13.074219 23.835938 13.054688 C 23.765625 13.03125 23.828125 12.980469 23.921875 12.980469 C 24.011719 12.980469 24.855469 13.011719 24.992188 12.996094 C 25.097656 12.996094 25.253906 12.878906 25.292969 12.761719 C 25.3125 12.699219 24.675781 12.730469 24.523438 12.742188 C 24.371094 12.753906 23.726562 12.773438 23.320312 12.738281 L 23.285156 12.714844 C 23.28125 12.707031 23.285156 12.695312 23.296875 12.695312 C 24.109375 12.714844 25.300781 12.570312 26.046875 12.367188 "/>
<path style=" stroke:none;fill-rule:nonzero;fill:rgb(58.823529%,3.921569%,16.862745%);fill-opacity:1;" d="M 15.957031 7.726562 C 15.925781 8.15625 16.304688 8.332031 16.304688 8.332031 C 16.304688 8.332031 16.167969 8.125 16.199219 7.925781 C 16.253906 7.632812 16.472656 7.519531 16.480469 7.335938 C 16.488281 7.152344 16.324219 6.890625 16.324219 6.890625 C 16.324219 6.890625 16.367188 7.011719 16.28125 7.1875 C 16.203125 7.328125 15.980469 7.40625 15.957031 7.726562 "/>
<path style=" stroke:none;fill-rule:nonzero;fill:rgb(58.823529%,3.921569%,16.862745%);fill-opacity:1;" d="M 8.085938 12.550781 C 7.894531 12.5625 7.710938 12.453125 7.710938 12.453125 C 7.710938 12.453125 7.789062 12.796875 8.085938 12.8125 C 8.375 12.804688 8.550781 12.5 8.59375 12.253906 C 8.59375 12.253906 8.421875 12.53125 8.085938 12.550781 "/>
<path style=" stroke:none;fill-rule:nonzero;fill:rgb(58.823529%,3.921569%,16.862745%);fill-opacity:1;" d="M 16.804688 16.023438 C 16.9375 15.816406 16.746094 15.613281 16.460938 15.335938 C 16.324219 15.152344 15.992188 15.03125 15.90625 14.636719 C 15.734375 14.015625 16.589844 12.660156 17.054688 12.667969 C 16.882812 12.992188 17.015625 13.390625 17.015625 13.390625 C 17.015625 13.390625 17.085938 12.917969 17.464844 12.597656 C 17.953125 12.109375 18.5625 11.855469 18.738281 11.773438 C 18.578125 11.761719 18.535156 11.769531 18.507812 11.710938 C 18.449219 11.605469 18.625 11.25 19.222656 11.070312 C 18.984375 11.183594 18.769531 11.265625 18.699219 11.464844 C 18.644531 11.613281 18.726562 11.667969 18.726562 11.667969 C 18.726562 11.667969 18.867188 11.535156 18.957031 11.472656 C 19.050781 11.40625 19.300781 11.363281 19.304688 11.367188 C 19.324219 11.414062 19.3125 11.457031 19.28125 11.5 C 19.253906 11.542969 19.175781 11.542969 19.109375 11.648438 C 19.074219 11.714844 19.050781 11.828125 19.085938 11.867188 C 19.125 11.914062 19.277344 11.878906 19.359375 11.792969 C 19.46875 11.632812 19.445312 11.691406 19.472656 11.507812 C 19.507812 11.289062 19.671875 11.246094 19.671875 11.246094 C 19.671875 11.246094 19.644531 11.625 19.707031 11.691406 C 19.742188 11.484375 19.847656 11.5 19.847656 11.5 C 19.847656 11.5 19.839844 11.867188 19.933594 11.902344 C 19.945312 11.703125 20.066406 11.71875 20.066406 11.71875 C 20.066406 11.71875 20.089844 12.035156 20.148438 12.058594 C 20.171875 11.953125 20.242188 11.84375 20.242188 11.84375 C 20.242188 11.84375 20.320312 12.121094 20.371094 12.164062 C 20.40625 12.09375 20.503906 11.984375 20.503906 11.984375 C 20.503906 11.984375 20.542969 12.464844 20.859375 12.632812 C 20.75 11.90625 20.816406 11.859375 20.917969 11.816406 C 20.917969 11.816406 20.984375 12.464844 21.664062 12.816406 C 21.664062 12.816406 21.488281 12.480469 21.425781 12.269531 C 21.363281 12.054688 21.253906 11.5625 21.441406 11.375 C 21.492188 11.308594 21.195312 11.410156 21.328125 11.335938 C 21.460938 11.261719 21.996094 11.050781 22.019531 11.09375 C 22.054688 11.140625 22.027344 11.273438 22.015625 11.324219 C 22.015625 11.324219 22.398438 11.070312 22.636719 11 C 22.878906 10.929688 23.84375 10.808594 23.84375 10.808594 C 23.886719 10.808594 24.097656 10.597656 24.089844 10.539062 C 24.082031 10.484375 23.96875 10.347656 23.980469 10.3125 C 24.003906 10.234375 24.539062 9.921875 24.351562 9.925781 C 23.828125 9.855469 23.265625 9.90625 22.933594 9.726562 C 22.542969 9.515625 22.457031 9.160156 22.320312 8.914062 C 22.347656 9 22.207031 9.113281 22.207031 9.113281 C 22.207031 9.113281 21.910156 8.917969 21.832031 8.773438 C 21.886719 8.933594 21.832031 9.121094 21.832031 9.121094 C 21.390625 8.839844 21.359375 8.652344 21.359375 8.652344 C 21.339844 8.71875 21.480469 9.160156 21.480469 9.160156 C 21.480469 9.160156 21.046875 8.9375 20.75 8.289062 C 20.628906 8.0625 20.484375 7.375 20.484375 7.375 C 20.308594 7.652344 20.285156 7.742188 20.285156 7.742188 C 20.285156 7.742188 20.136719 8.273438 20.328125 8.597656 C 20.476562 8.816406 20.828125 9.089844 20.914062 9.121094 C 21.117188 9.269531 20.957031 9.246094 20.957031 9.246094 C 20.957031 9.246094 20.371094 9.078125 20.207031 9.070312 C 20.046875 9.0625 19.96875 9.113281 19.742188 9.050781 C 19.515625 8.984375 19.351562 8.71875 19.367188 8.457031 C 19.390625 8.136719 19.503906 8.105469 19.539062 7.984375 C 19.65625 7.785156 19.691406 7.359375 19.480469 7.117188 C 19.417969 7.03125 19.308594 6.929688 19.148438 6.832031 C 19.214844 7.042969 19.238281 7.109375 19.222656 7.242188 C 19.199219 7.566406 19.1875 7.695312 18.929688 8.066406 C 18.515625 8.476562 19.289062 9.234375 19.289062 9.234375 C 19.289062 9.234375 18.875 8.867188 18.667969 8.578125 C 18.453125 8.203125 18.691406 7.546875 18.671875 7.328125 C 18.652344 7.105469 18.609375 6.921875 18.609375 6.921875 C 18.609375 6.921875 18.59375 7.378906 18.496094 7.574219 C 18.402344 7.773438 18.347656 7.933594 18.328125 8.136719 C 18.292969 8.574219 18.425781 8.902344 18.425781 8.902344 C 18.222656 8.675781 18.109375 8.019531 18.113281 7.707031 C 18.117188 7.363281 17.867188 7.148438 17.867188 7.148438 C 17.867188 7.148438 17.882812 7.375 17.863281 7.601562 C 17.84375 7.832031 17.785156 7.867188 17.761719 8.1875 C 17.714844 8.507812 18.433594 9.355469 18.433594 9.355469 C 18.433594 9.355469 17.914062 8.996094 17.722656 8.4375 C 17.667969 8.1875 17.214844 7.605469 17.214844 7.605469 C 17.214844 7.605469 17.285156 7.710938 17.265625 7.9375 C 17.246094 8.164062 17.105469 8.375 17.191406 8.664062 C 17.332031 8.960938 17.84375 9.824219 18.691406 9.910156 C 18.25 10.152344 16.933594 9.578125 16.664062 9.460938 C 16.792969 9.730469 17.890625 10.460938 18.710938 10.597656 C 18.085938 10.867188 16.511719 10.082031 15.886719 9.664062 C 16.308594 10.257812 16.945312 10.75 16.945312 10.75 C 16.777344 10.878906 16.191406 10.785156 16.191406 10.785156 C 16.484375 11.195312 17.714844 11.210938 17.714844 11.210938 C 17.621094 11.523438 16.628906 11.492188 16.628906 11.492188 C 17.148438 11.75 17.671875 11.667969 17.671875 11.667969 C 17.625 11.789062 17.566406 11.882812 17.320312 11.929688 C 16.96875 12.007812 16.566406 11.972656 16.566406 11.972656 L 17.042969 12.199219 C 17.042969 12.199219 16.398438 12.613281 16.046875 12.957031 C 15.695312 13.304688 15.316406 14.210938 14.960938 14.125 C 14.695312 14.21875 14.445312 14.113281 14.355469 13.992188 C 14.265625 13.871094 13.992188 13.507812 13.960938 13.183594 C 13.929688 12.855469 14.09375 12.015625 14.375 11.582031 C 14.660156 11.148438 14.882812 10.867188 14.902344 9.433594 C 14.871094 8.421875 14.46875 7.667969 14.015625 7.292969 C 13.90625 7.1875 13.699219 7.039062 13.640625 7.023438 C 13.585938 7.007812 13.632812 7.191406 13.621094 7.292969 C 13.605469 7.40625 13.550781 7.519531 13.589844 7.566406 C 13.667969 7.691406 13.875 7.714844 14.121094 8.710938 C 14.410156 10.265625 13.710938 10.84375 13.699219 11.414062 C 13.585938 11.996094 13.621094 12.46875 13.660156 12.804688 C 13.300781 12.015625 13.445312 11.152344 13.5625 10.40625 C 13.683594 9.65625 13.308594 8.875 13.148438 8.769531 C 13.121094 8.753906 13.070312 8.714844 13.046875 8.769531 C 12.964844 8.949219 12.886719 9.074219 12.828125 9.269531 C 13.507812 10.007812 12.925781 10.761719 12.832031 11.300781 C 12.738281 11.835938 12.945312 12.898438 13.078125 13.125 C 13.207031 13.351562 13.953125 14.308594 14.847656 14.367188 C 14.503906 14.535156 14.328125 14.542969 14 14.460938 C 12.925781 14.191406 12.433594 13.699219 12.101562 13.710938 C 11.679688 13.722656 11.515625 13.785156 11.34375 13.851562 C 11.175781 13.917969 10.988281 14 10.835938 14.171875 C 10.6875 14.339844 10.582031 14.519531 10.554688 14.699219 C 10.554688 14.699219 10.761719 14.441406 11.128906 14.265625 C 11.777344 14.019531 12.089844 14.046875 12.539062 14.339844 C 12.917969 14.488281 13.480469 15.082031 14.027344 14.953125 C 14.046875 14.945312 14.316406 14.949219 14.308594 14.980469 C 14.308594 14.996094 14.039062 15.046875 14.027344 15.054688 C 13.59375 15.128906 13.148438 14.875 12.710938 14.632812 C 12.589844 14.566406 12.332031 14.414062 12.21875 14.453125 C 12.109375 14.488281 11.804688 14.679688 11.589844 14.933594 C 11.371094 15.1875 11.203125 15.535156 11.203125 15.535156 C 11.542969 15.601562 11.597656 15.554688 12.21875 15.035156 C 12.4375 14.933594 12.894531 14.941406 13.320312 15.128906 C 13.347656 15.179688 13.367188 15.234375 13.3125 15.28125 C 13.101562 15.285156 13.042969 15.234375 12.917969 15.320312 C 12.789062 15.40625 12.777344 15.648438 12.8125 15.628906 C 12.886719 15.648438 13.019531 15.527344 13.359375 15.554688 C 13.539062 15.601562 12.824219 15.808594 12.585938 15.816406 C 12.066406 15.808594 11.929688 15.789062 11.742188 15.96875 C 11.550781 16.148438 11.46875 16.363281 11.289062 16.5625 C 11.390625 16.550781 11.863281 16.253906 11.964844 16.203125 C 12.070312 16.15625 12.679688 16.203125 13.066406 16.117188 C 13.453125 16.035156 13.640625 15.921875 13.734375 15.835938 C 13.734375 15.835938 13.707031 16.109375 13.542969 16.472656 C 13.550781 16.5 14.199219 15.90625 14.246094 15.78125 C 14.230469 15.820312 14.082031 16.164062 14.21875 16.574219 C 14.261719 16.894531 14.320312 16.90625 14.234375 17.414062 C 14.550781 17.109375 14.71875 16.675781 14.734375 16.386719 C 14.746094 16.09375 14.691406 15.78125 14.765625 15.476562 C 14.820312 15.261719 15.023438 14.902344 15.03125 14.910156 C 15.007812 15.03125 14.835938 15.320312 14.828125 15.6875 C 14.820312 16.054688 14.972656 16.609375 15.058594 16.683594 C 15.105469 16.71875 15.1875 16.542969 15.152344 16.417969 C 15.121094 16.085938 15.074219 15.609375 15.152344 15.566406 C 15.1875 15.578125 15.316406 15.722656 15.351562 15.917969 C 15.425781 16.082031 15.351562 16.230469 15.472656 16.351562 C 15.476562 16.347656 15.554688 16.222656 15.566406 15.984375 C 15.578125 15.75 15.507812 15.648438 15.480469 15.539062 C 15.453125 15.429688 15.445312 14.992188 15.445312 14.992188 C 15.445312 14.992188 15.816406 15.273438 15.957031 15.328125 C 16.097656 15.386719 16.640625 15.773438 16.804688 16.023438 "/>
<path style=" stroke:none;fill-rule:nonzero;fill:rgb(58.823529%,3.921569%,16.862745%);fill-opacity:1;" d="M 16.457031 14.808594 C 16.363281 14.753906 16.304688 14.640625 16.304688 14.640625 C 16.304688 14.640625 16.492188 14.78125 16.664062 14.78125 C 16.664062 14.78125 16.550781 14.867188 16.457031 14.808594 M 21.417969 15.035156 C 21.765625 15.167969 22.539062 15.414062 23 15.535156 C 23.460938 15.65625 24.023438 15.78125 24.589844 15.855469 C 25.15625 15.929688 25.503906 16 26.191406 15.882812 C 26.253906 15.882812 26.699219 15.792969 26.457031 15.742188 C 26.21875 15.691406 25.410156 15.539062 25.109375 15.464844 C 24.8125 15.386719 23.921875 15.164062 23.148438 14.882812 C 22.171875 14.542969 21.6875 14.164062 21.292969 13.816406 C 20.878906 13.484375 20.457031 12.804688 19.980469 12.46875 C 19.503906 12.128906 19.359375 11.980469 19.113281 12 C 18.867188 12.023438 18.660156 12.242188 18.484375 12.367188 C 18.484375 12.367188 18.5625 12.195312 18.648438 12.078125 C 18.648438 12.078125 17.914062 12.335938 17.5 12.863281 C 17.273438 13.144531 17.144531 13.464844 17.015625 13.8125 C 16.902344 13.640625 16.777344 13.222656 16.832031 12.953125 C 16.746094 12.917969 16.460938 13.253906 16.429688 13.453125 C 16.394531 13.660156 16.636719 13.964844 16.636719 13.964844 C 16.390625 13.898438 16.277344 13.652344 16.277344 13.652344 C 16.277344 13.652344 16.191406 13.8125 16.230469 13.972656 C 16.269531 14.132812 16.457031 14.320312 16.457031 14.320312 C 16.292969 14.410156 16.109375 14.140625 16.109375 14.140625 C 16.109375 14.140625 15.976562 14.527344 16.117188 14.746094 C 16.484375 15.121094 16.652344 15.222656 16.945312 15.667969 C 17.085938 15.863281 17.285156 15.921875 17.265625 16.363281 C 17.21875 17.171875 17.445312 17.050781 17.445312 17.050781 C 17.445312 17.050781 17.417969 16.75 17.5 16.730469 C 17.5 16.730469 17.566406 17.023438 17.691406 17.203125 C 17.8125 17.382812 18.011719 17.558594 18.160156 17.53125 C 18.3125 17.503906 18.332031 17.414062 18.414062 17.285156 C 18.535156 17.089844 18.480469 16.488281 18.488281 16.441406 C 18.5 16.394531 18.707031 16.347656 18.523438 16.253906 C 18.378906 16.179688 18.300781 16.074219 18.3125 16.015625 C 18.3125 16.015625 18.640625 16.175781 18.640625 15.902344 C 18.675781 15.648438 18.394531 15.59375 18.320312 15.527344 C 17.960938 15.234375 17.671875 14.714844 17.578125 14.714844 C 17.578125 14.714844 17.445312 14.734375 17.425781 14.660156 C 17.40625 14.585938 17.546875 14.546875 17.660156 14.640625 C 17.773438 14.734375 17.914062 14.953125 18.121094 15.140625 C 18.332031 15.328125 18.441406 15.414062 18.585938 15.414062 C 18.585938 15.414062 18.394531 15.273438 18.441406 15.140625 C 18.441406 15.140625 18.6875 15.453125 18.839844 15.554688 C 18.988281 15.65625 19.328125 15.742188 19.328125 15.742188 C 19.28125 15.828125 19.007812 15.742188 19.007812 15.742188 C 19.007812 15.742188 19.78125 16.347656 20.25 16.554688 C 20.722656 16.761719 21.304688 16.824219 21.535156 16.753906 C 21.769531 16.683594 21.28125 16.632812 21.152344 16.566406 C 20.839844 16.445312 20.605469 16.335938 20.128906 16.074219 C 19.65625 15.8125 19.269531 15.347656 19.269531 15.347656 C 19.269531 15.347656 19.804688 15.691406 20.109375 15.671875 C 20.09375 15.742188 19.90625 15.757812 19.90625 15.757812 C 19.90625 15.757812 20.042969 15.855469 20.625 16.109375 C 21.207031 16.367188 21.773438 16.511719 22.507812 16.703125 C 23.246094 16.894531 23.921875 16.871094 24.242188 16.742188 C 23.828125 16.722656 22.964844 16.472656 22.378906 16.289062 C 21.664062 16.042969 21.097656 15.78125 20.667969 15.515625 C 20.585938 15.472656 20.613281 15.386719 20.691406 15.414062 C 20.773438 15.441406 20.957031 15.515625 21.417969 15.707031 C 21.878906 15.894531 22.875 16.164062 23.640625 16.28125 C 24.214844 16.402344 25.238281 16.425781 25.644531 16.433594 C 26.128906 16.4375 25.925781 16.25 25.8125 16.238281 C 25.699219 16.226562 24.570312 16.097656 23.695312 15.925781 C 22.820312 15.757812 21.921875 15.417969 21.34375 15.167969 C 21.265625 15.128906 21.285156 15 21.417969 15.035156 "/>
<path style=" stroke:none;fill-rule:nonzero;fill:rgb(13.72549%,12.156863%,12.54902%);fill-opacity:1;" d="M 10.839844 15.023438 C 10.636719 15.242188 10.519531 15.484375 10.519531 15.484375 C 10.527344 15.480469 10.589844 15.492188 10.632812 15.464844 C 10.667969 15.441406 10.753906 15.371094 10.839844 15.25 Z M 10.839844 15.023438 "/>
<path style=" stroke:none;fill-rule:nonzero;fill:rgb(13.72549%,12.156863%,12.54902%);fill-opacity:1;" d="M 20.25 14.632812 C 19.910156 14.523438 19.753906 14.367188 19.753906 14.367188 C 19.753906 14.367188 19.796875 14.515625 19.917969 14.605469 C 20.058594 14.726562 20.566406 14.929688 20.710938 14.929688 C 20.851562 14.929688 20.898438 14.699219 20.898438 14.699219 C 20.660156 14.8125 20.589844 14.746094 20.25 14.632812 "/>
<path style=" stroke:none;fill-rule:nonzero;fill:rgb(13.72549%,12.156863%,12.54902%);fill-opacity:1;" d="M 19.707031 13.191406 C 19.773438 13.21875 19.945312 13.167969 19.945312 13.167969 C 19.8125 13.152344 19.757812 13.101562 19.675781 13.03125 C 19.539062 12.910156 19.492188 12.777344 19.492188 12.777344 C 19.492188 12.777344 19.464844 12.933594 19.503906 13 C 19.484375 12.96875 19.554688 13.125 19.707031 13.191406 "/>
<path style=" stroke:none;fill-rule:nonzero;fill:rgb(13.72549%,12.156863%,12.54902%);fill-opacity:1;" d="M 18.75 13.464844 C 18.523438 13.375 18.820312 13.519531 18.832031 13.675781 C 18.847656 13.832031 18.910156 13.859375 19.066406 13.957031 C 19.222656 14.058594 18.996094 13.875 19.003906 13.703125 C 19.011719 13.535156 18.839844 13.5 18.75 13.464844 "/>
<path style=" stroke:none;fill-rule:nonzero;fill:rgb(13.72549%,12.156863%,12.54902%);fill-opacity:1;" d="M 19.613281 13.90625 C 19.722656 13.9375 19.90625 13.765625 19.90625 13.765625 C 19.695312 13.792969 19.691406 13.757812 19.457031 13.589844 C 19.222656 13.417969 19.125 13.21875 19.125 13.21875 C 19.125 13.21875 19.109375 13.460938 19.175781 13.566406 C 19.164062 13.542969 19.371094 13.828125 19.613281 13.90625 "/>
<path style=" stroke:none;fill-rule:nonzero;fill:rgb(13.72549%,12.156863%,12.54902%);fill-opacity:1;" d="M 18.472656 14.054688 C 18.472656 14.054688 18.546875 14.132812 18.554688 14.1875 C 18.5625 14.246094 18.605469 14.292969 18.472656 14.300781 C 18.335938 14.308594 17.828125 14.125 17.828125 14.125 C 17.828125 14.125 18.324219 14.464844 18.5625 14.476562 C 18.816406 14.464844 18.667969 14.207031 18.640625 14.136719 C 18.613281 14.066406 18.773438 14.066406 18.773438 14.066406 C 18.773438 14.066406 18.507812 13.960938 18.472656 14.054688 "/>
<path style=" stroke:none;fill-rule:nonzero;fill:rgb(13.72549%,12.156863%,12.54902%);fill-opacity:1;" d="M 16.457031 14.808594 C 16.550781 14.867188 16.664062 14.78125 16.664062 14.78125 C 16.492188 14.78125 16.304688 14.640625 16.304688 14.640625 C 16.304688 14.640625 16.363281 14.753906 16.457031 14.808594 "/>
<path style=" stroke:none;fill-rule:nonzero;fill:rgb(13.72549%,12.156863%,12.54902%);fill-opacity:1;" d="M 20.546875 13.730469 C 20.503906 13.765625 20.5 14.015625 20.914062 14.21875 C 21.265625 14.386719 21.578125 14.367188 21.5625 14.289062 C 21.5625 14.289062 21.21875 14.21875 20.984375 14.089844 C 20.75 13.964844 20.546875 13.730469 20.546875 13.730469 "/>
<path style=" stroke:none;fill-rule:nonzero;fill:rgb(13.72549%,12.156863%,12.54902%);fill-opacity:1;" d="M 21.410156 10.414062 C 21.238281 10.515625 21.035156 10.671875 20.828125 10.742188 C 20.625 10.816406 19.910156 10.898438 19.910156 10.898438 C 20.296875 10.929688 20.714844 11.128906 20.714844 11.128906 C 20.714844 11.128906 20.558594 11.3125 20.347656 11.507812 C 20.347656 11.507812 20.808594 11.324219 21.054688 11.140625 C 21.265625 10.988281 21.605469 10.464844 21.640625 10.386719 C 21.640625 10.335938 21.460938 10.378906 21.410156 10.414062 "/>
<path style=" stroke:none;fill-rule:nonzero;fill:rgb(13.72549%,12.156863%,12.54902%);fill-opacity:1;" d="M 19.664062 10.113281 C 19.90625 10.125 20.25 9.992188 20.25 9.992188 C 20.25 9.992188 19.820312 10.003906 19.8125 9.921875 C 19.808594 9.84375 19.921875 9.746094 20.078125 9.664062 C 20.234375 9.582031 20.628906 9.476562 20.628906 9.476562 C 20.628906 9.476562 20.082031 9.488281 19.828125 9.601562 C 19.628906 9.691406 19.253906 9.941406 19.273438 10.015625 C 19.292969 10.089844 19.421875 10.101562 19.664062 10.113281 "/>
<path style=" stroke:none;fill-rule:nonzero;fill:rgb(13.72549%,12.156863%,12.54902%);fill-opacity:1;" d="M 19.746094 13.328125 C 19.574219 13.257812 19.792969 13.398438 19.8125 13.492188 C 19.828125 13.585938 19.871094 13.632812 19.992188 13.710938 C 20.109375 13.785156 19.957031 13.625 19.941406 13.511719 C 19.925781 13.402344 19.816406 13.355469 19.746094 13.328125 "/>
<path style=" stroke:none;fill-rule:nonzero;fill:rgb(13.72549%,12.156863%,12.54902%);fill-opacity:1;" d="M 17.085938 15.335938 C 16.964844 15.300781 16.929688 15.210938 16.929688 15.210938 C 16.929688 15.210938 16.972656 15.363281 17.007812 15.394531 C 17.039062 15.425781 17.097656 15.445312 17.128906 15.433594 C 17.179688 15.429688 17.269531 15.296875 17.269531 15.296875 C 17.269531 15.296875 17.210938 15.371094 17.085938 15.335938 "/>
<path style=" stroke:none;fill-rule:nonzero;fill:rgb(13.72549%,12.156863%,12.54902%);fill-opacity:1;" d="M 19.226562 14.808594 C 19.207031 14.953125 19.277344 15 19.472656 15.09375 C 19.601562 15.15625 19.734375 15.25 19.925781 15.09375 C 19.925781 15.09375 19.796875 15.085938 19.566406 15.007812 C 19.332031 14.929688 19.226562 14.808594 19.226562 14.808594 "/>
<path style=" stroke:none;fill-rule:nonzero;fill:rgb(13.72549%,12.156863%,12.54902%);fill-opacity:1;" d="M 17.976562 16.871094 C 18.144531 16.859375 18 16.542969 18.003906 16.578125 C 18.007812 16.617188 18.015625 16.773438 17.925781 16.777344 C 17.839844 16.78125 17.605469 16.621094 17.605469 16.621094 C 17.605469 16.621094 17.820312 16.859375 17.976562 16.871094 "/>
<path style=" stroke:none;fill-rule:nonzero;fill:rgb(13.72549%,12.156863%,12.54902%);fill-opacity:1;" d="M 20.296875 10.03125 C 20.296875 10.03125 20.394531 10.109375 20.394531 10.195312 C 20.394531 10.28125 20.253906 10.554688 20.253906 10.554688 C 20.253906 10.554688 20.679688 10.402344 20.992188 10.246094 C 21.269531 10.113281 21.613281 9.917969 21.601562 9.71875 C 21.601562 9.71875 21.144531 9.921875 20.859375 9.984375 C 20.574219 10.050781 20.296875 10.03125 20.296875 10.03125 "/>
<path style=" stroke:none;fill-rule:nonzero;fill:rgb(13.72549%,12.156863%,12.54902%);fill-opacity:1;" d="M 17.292969 15.800781 C 17.292969 15.800781 17.386719 16.046875 17.539062 16.089844 C 17.703125 16.121094 17.605469 15.707031 17.601562 15.746094 C 17.597656 15.78125 17.597656 16.003906 17.511719 15.988281 C 17.425781 15.972656 17.292969 15.800781 17.292969 15.800781 "/>
<path style=" stroke:none;fill-rule:nonzero;fill:rgb(100%,100%,100%);fill-opacity:1;" d="M 13.003906 11.589844 C 12.972656 12.449219 13.359375 12.570312 13.359375 12.570312 C 13.125 11.863281 13.199219 10.886719 13.425781 10.246094 C 13.425781 10.246094 13.03125 10.734375 13.003906 11.589844 "/>
<path style=" stroke:none;fill-rule:nonzero;fill:rgb(100%,100%,100%);fill-opacity:1;" d="M 14.367188 11.007812 C 14.542969 10.734375 14.675781 10.253906 14.679688 9.496094 C 14.683594 8.734375 14.402344 7.882812 13.90625 7.535156 C 14.355469 8.230469 14.640625 9.546875 14.246094 10.527344 C 14.199219 10.644531 13.640625 11.640625 13.886719 12.082031 C 14 11.628906 14.148438 11.335938 14.367188 11.007812 "/>
<path style=" stroke:none;fill-rule:nonzero;fill:rgb(100%,100%,100%);fill-opacity:1;" d="M 9.75 10.582031 C 10.214844 10.5 10.582031 10.59375 11.074219 10.964844 C 11.074219 10.964844 10.75 10.410156 10.3125 10.378906 C 9.980469 10.363281 9.75 10.582031 9.75 10.582031 "/>
<path style=" stroke:none;fill-rule:nonzero;fill:rgb(100%,100%,100%);fill-opacity:1;" d="M 10.011719 12.761719 C 10.515625 12.644531 11.230469 12.597656 11.644531 12.824219 C 11.644531 12.824219 11.441406 12.476562 11.042969 12.472656 C 10.640625 12.464844 10.011719 12.761719 10.011719 12.761719 "/>
</g>
</svg>
