<?xml version="1.0" encoding="UTF-8"?>
<svg xmlns="http://www.w3.org/2000/svg" xmlns:xlink="http://www.w3.org/1999/xlink" width="35pt" height="25pt" viewBox="0 0 35 25" version="1.1">
<g id="surface1">
<path style=" stroke:none;fill-rule:evenodd;fill:rgb(96.078431%,49.803922%,12.54902%);fill-opacity:1;" d="M 4.25 0 C 13.339844 0 22.433594 0 31.523438 0 C 31.523438 2.96875 31.523438 5.941406 31.523438 8.910156 C 30.339844 8.910156 29.160156 8.910156 27.976562 8.910156 C 27.640625 4.925781 22.824219 4.90625 20.796875 7.363281 C 20.761719 11.441406 19.847656 18.660156 22.25 20.453125 C 22.867188 20.914062 23.875 21.070312 24.976562 21.453125 C 24.976562 22.636719 24.976562 23.816406 24.976562 25 C 20.28125 25 15.582031 25 10.886719 25 C 10.886719 23.820312 10.886719 22.636719 10.886719 21.453125 C 15.578125 21.507812 15.066406 16.875 15.066406 12.183594 C 15.066406 10.546875 15.066406 8.910156 15.066406 7.273438 C 14.859375 6.734375 14.1875 6.476562 13.703125 6.183594 C 10.851562 4.4375 8.492188 6.605469 7.703125 9 C 6.554688 8.96875 5.402344 8.9375 4.25 8.910156 C 4.25 5.941406 4.25 2.96875 4.25 0 Z M 4.25 0 "/>
</g>
</svg>
