<?xml version="1.0" encoding="UTF-8"?>
<svg xmlns="http://www.w3.org/2000/svg" xmlns:xlink="http://www.w3.org/1999/xlink" width="35pt" height="25pt" viewBox="0 0 35 25" version="1.1">
<g id="surface1">
<path style=" stroke:none;fill-rule:nonzero;fill:rgb(31.372549%,0%,0%);fill-opacity:1;" d="M 29.441406 8.21875 L 27.191406 12.921875 L 24.9375 8.21875 L 21.535156 8.21875 L 21.535156 10.347656 L 22.3125 10.347656 L 22.3125 16.84375 L 21.496094 16.84375 L 21.496094 18.972656 L 25.335938 18.972656 L 25.335938 16.84375 L 24.503906 16.84375 L 24.503906 12.238281 L 27.210938 17.808594 L 29.914062 12.238281 L 29.914062 16.84375 L 29.097656 16.84375 L 29.097656 18.972656 L 32.933594 18.972656 L 32.933594 16.84375 L 32.117188 16.84375 L 32.117188 10.347656 L 32.933594 10.347656 L 32.933594 8.207031 Z M 29.441406 8.21875 "/>
<path style=" stroke:none;fill-rule:nonzero;fill:rgb(31.372549%,0%,0%);fill-opacity:1;" d="M 5.867188 8.167969 L 10.433594 8.167969 L 10.433594 10.285156 L 9.875 10.285156 L 12.722656 16.84375 L 13.886719 16.84375 L 13.886719 18.960938 L 9.738281 18.960938 L 9.738281 16.855469 L 10.359375 16.855469 L 9.902344 15.765625 L 6.484375 15.765625 L 6.027344 16.855469 L 6.644531 16.855469 L 6.644531 18.972656 L 2.5 18.972656 L 2.5 16.855469 L 3.664062 16.855469 L 6.511719 10.296875 L 5.890625 10.296875 L 5.890625 8.179688 Z M 8.191406 11.820312 L 7.386719 13.652344 L 8.996094 13.652344 Z M 8.191406 11.820312 "/>
<path style=" stroke:none;fill-rule:nonzero;fill:rgb(31.372549%,0%,0%);fill-opacity:1;" d="M 5.867188 0 L 29.503906 0 L 29.503906 6.769531 L 24.851562 6.769531 L 24.851562 4.207031 L 19.960938 4.207031 L 19.960938 20.382812 L 22.5625 20.382812 L 22.5625 25 L 12.761719 25 L 12.761719 20.382812 L 15.359375 20.382812 L 15.359375 4.207031 L 10.46875 4.207031 L 10.46875 6.769531 L 5.816406 6.769531 L 5.816406 0 Z M 5.867188 0 "/>
<path style=" stroke:none;fill-rule:nonzero;fill:rgb(100%,100%,100%);fill-opacity:1;" d="M 6.746094 0.953125 L 28.082031 0.953125 L 26.792969 1.941406 L 7.761719 1.941406 Z M 6.746094 0.953125 "/>
<path style=" stroke:none;fill-rule:nonzero;fill:rgb(100%,100%,100%);fill-opacity:1;" d="M 18.03125 2.289062 L 19.011719 3.253906 L 19.011719 21.398438 L 18.03125 22.363281 Z M 18.03125 2.289062 "/>
<path style=" stroke:none;fill-rule:nonzero;fill:rgb(100%,100%,100%);fill-opacity:1;" d="M 28.578125 1.460938 L 28.578125 5.902344 L 27.597656 4.960938 L 27.597656 2.460938 Z M 28.578125 1.460938 "/>
<path style=" stroke:none;fill-rule:nonzero;fill:rgb(100%,100%,100%);fill-opacity:1;" d="M 21.613281 21.3125 L 21.613281 24.070312 L 20.625 23.144531 L 20.625 22.339844 Z M 21.613281 21.3125 "/>
</g>
</svg>
