<?xml version="1.0" encoding="UTF-8"?>
<svg xmlns="http://www.w3.org/2000/svg" xmlns:xlink="http://www.w3.org/1999/xlink" width="35pt" height="25pt" viewBox="0 0 35 25" version="1.1">
<g id="surface1">
<path style=" stroke:none;fill-rule:nonzero;fill:rgb(0%,0%,0%);fill-opacity:1;" d="M 19.304688 0.0078125 C 19.304688 0.417969 19.304688 1.4375 19.308594 1.632812 C 19.425781 1.632812 19.757812 1.632812 19.945312 1.632812 C 20.578125 1.628906 21.472656 1.628906 21.824219 1.976562 C 22.507812 2.703125 21.617188 3.371094 20.792969 4.480469 C 19.5 6.203125 20.300781 7.328125 21.15625 6.722656 C 21.652344 6.359375 22.71875 5.566406 23.238281 5.304688 C 24.324219 4.789062 25.019531 6.164062 23.890625 7.65625 C 23.445312 8.269531 22.585938 9.042969 22.035156 9.859375 C 21.355469 10.84375 21.671875 12.164062 22.984375 11.183594 C 24.5 10.042969 25.035156 11.808594 23.4375 13.46875 C 21.96875 15.046875 21.074219 16.179688 21.503906 17.554688 C 21.664062 18.054688 21.855469 18.601562 22.023438 19.082031 C 22.042969 19.132812 22.082031 19.167969 22.082031 19.167969 C 22.082031 19.167969 22.042969 19.230469 22.042969 19.230469 C 22.042969 19.230469 22.007812 19.210938 21.90625 19.210938 C 21.90625 19.210938 20.988281 19.210938 20.988281 19.210938 C 20.9375 19.074219 20.453125 17.769531 19.9375 16.371094 C 19.777344 15.957031 19.570312 15.660156 18.5625 15.359375 C 18.347656 15.296875 18.164062 15.242188 18.0625 15.210938 C 17.894531 15.164062 17.804688 15.191406 17.679688 15.273438 C 17.445312 15.449219 17.144531 15.671875 17.035156 15.753906 C 16.429688 16.195312 16.132812 16.335938 15.871094 16.273438 C 15.671875 16.214844 15.566406 16.0625 15.570312 15.804688 C 15.570312 15.78125 15.570312 15.746094 15.570312 15.734375 C 15.859375 15.265625 16.085938 14.761719 16.246094 14.226562 C 16.40625 13.6875 16.496094 13.144531 16.511719 12.59375 C 16.519531 12.582031 16.535156 12.554688 16.550781 12.539062 C 16.6875 12.320312 16.855469 12.25 17.054688 12.3125 C 17.308594 12.402344 17.480469 12.679688 17.742188 13.386719 C 17.785156 13.511719 17.910156 13.847656 18.011719 14.121094 C 18.074219 14.28125 18.136719 14.355469 18.34375 14.414062 C 18.519531 14.464844 18.84375 14.566406 19.195312 14.671875 C 19.234375 14.679688 19.265625 14.714844 19.277344 14.726562 C 19.289062 14.714844 19.339844 14.664062 19.339844 14.664062 C 19.339844 14.664062 19.296875 14.625 19.277344 14.578125 C 18.917969 13.601562 18.640625 12.847656 18.617188 12.78125 C 18.191406 11.65625 17.90625 11.195312 17.113281 10.613281 C 16.34375 10.0625 15.160156 9.636719 14.488281 9.25 C 12.449219 8.085938 12.796875 6.410156 13.957031 6.476562 C 14.402344 6.480469 15.414062 6.859375 16.136719 7.140625 C 17.386719 7.601562 17.425781 6.058594 15.804688 4.871094 C 13.746094 3.359375 13.355469 2.574219 13.835938 1.960938 C 14.09375 1.632812 14.800781 1.628906 15.5 1.636719 C 15.625 1.632812 15.976562 1.632812 16.0625 1.636719 C 16.0625 1.230469 16.066406 0.453125 16.066406 0.0078125 C 16.066406 0.0078125 2.5 0 2.5 0 C 2.5 0 2.5 1.632812 2.5 1.632812 C 2.835938 1.628906 3.105469 1.640625 3.503906 1.671875 C 4.640625 1.773438 5.5 2.324219 6.402344 4.644531 C 7.195312 6.726562 13.714844 23.242188 14.382812 25 C 14.5625 24.996094 20.988281 25 20.988281 25 C 21.558594 23.546875 27.925781 7.191406 28.960938 4.578125 C 29.882812 2.242188 30.867188 1.785156 31.964844 1.699219 C 32.226562 1.675781 32.546875 1.664062 32.820312 1.667969 C 32.820312 1.667969 32.820312 0.015625 32.820312 0.015625 C 32.820312 0.015625 19.304688 0.0078125 19.304688 0.0078125 Z M 14.449219 15.300781 C 13.585938 14.992188 13.253906 14.726562 13.152344 13.828125 C 13.128906 13.605469 13.121094 13.292969 13.121094 13.292969 C 13.121094 13.292969 13.296875 13.035156 13.445312 12.863281 C 14.019531 12.171875 14.441406 12.128906 15.332031 12.34375 C 15.433594 12.367188 15.808594 12.449219 16.109375 12.511719 C 16.097656 13.050781 16.015625 13.582031 15.859375 14.109375 C 15.703125 14.632812 15.476562 15.128906 15.1875 15.585938 C 14.902344 15.476562 14.546875 15.339844 14.449219 15.300781 Z M 14.449219 15.300781 "/>
</g>
</svg>
