<?xml version="1.0" encoding="UTF-8" standalone="no"?>
<!-- Created with Inkscape (http://www.inkscape.org/) -->

<svg
   xmlns:dc="http://purl.org/dc/elements/1.1/"
   xmlns:cc="http://creativecommons.org/ns#"
   xmlns:rdf="http://www.w3.org/1999/02/22-rdf-syntax-ns#"
   xmlns:svg="http://www.w3.org/2000/svg"
   xmlns="http://www.w3.org/2000/svg"
   version="1.0"
   width="280"
   height="200"
   id="svg2"
   xml:space="preserve"><metadata
     id="metadata32"><rdf:RDF><cc:Work
         rdf:about=""><dc:format>image/svg+xml</dc:format><dc:type
           rdf:resource="http://purl.org/dc/dcmitype/StillImage" /><dc:title></dc:title></cc:Work></rdf:RDF></metadata><defs
     id="defs5"><clipPath
       id="clipPath17"><path
         d="M 0,0 792,0 792,612 0,612 0,0 z"
         id="path19" /></clipPath><clipPath
       id="clipPath25"><path
         d="m 36,530.75 720,0 0,45.25 -720,0 0,-45.25 z"
         id="path27" /></clipPath><clipPath
       id="clipPath153"><path
         d="m 243,82.519 252,0 0,38.365 -252,0 0,-38.365 z"
         id="path155" /></clipPath><clipPath
       id="clipPath219"><path
         d="m 504,82.974 252,0 0,38.146 -252,0 0,-38.146 z"
         id="path221" /></clipPath><clipPath
       id="clipPath285"><path
         d="m 504,36.164 252,0 0,38.146 -252,0 0,-38.146 z"
         id="path287" /></clipPath><clipPath
       id="clipPath293"><path
         d="m 307.513,74.311 462.042,0 0,-51.3 -462.042,0 0,51.3 z"
         id="path295" /></clipPath><clipPath
       id="clipPath357"><path
         d="m 307.513,74.311 462.042,0 0,-51.3 -462.042,0 0,51.3 z"
         id="path359" /></clipPath><clipPath
       id="clipPath367"><path
         d="m 243,36 252,0 0,38.475 -252,0 L 243,36 z"
         id="path369" /></clipPath><clipPath
       id="clipPath433"><path
         d="m 76.026,382.787 95.914,0 0,96.661 -95.914,0 0,-96.661 z"
         id="path435" /></clipPath><clipPath
       id="clipPath465"><path
         d="m 243,367.531 105.976,0 0,109.469 -105.976,0 0,-109.469 z"
         id="path467" /></clipPath><clipPath
       id="clipPath527"><path
         d="m 427.791,401.569 318.201,0 0,75.431 -318.201,0 0,-75.431 z"
         id="path529" /></clipPath></defs><g
     transform="matrix(0.54162702,0,0,-0.54162702,-10.679895,418.82594)"
     id="g11"><path
       d="m 404.73108,773.23473 0,-119.90895 -12.1451,0.0587 48.40415,-129.30781 41.50186,-0.0539 0,-120.00685 -399.999993,0 0,119.84531 41.208143,-0.0539 48.83004,129.67496 -12.40454,-0.0294 0.0489,119.82083 244.55649,-0.0392 z"
       id="path437"
       style="fill:#ffffff;fill-opacity:1;fill-rule:nonzero;stroke:none" /><path
       d="m 282.49689,728.77614 77.25181,0 0,-30.89876 -32.0932,0 84.37928,-217.48091 24.95594,0 0,-31.9953 -104.58194,0 0,31.12884 -29.35677,0 0,-61.03877 165.06755,0 0,91.01234 -37.06677,-0.0636 -59.41844,158.41002 18.66066,0 0,90.95849 -107.79812,0 -107.80301,0 0,-90.95849 18.66555,0 -59.42334,-158.20932 -37.066768,-0.13706 0,-91.01234 165.077348,0 0,61.03877 -29.36656,0 0,-31.12884 -104.58195,0 0,31.9953 24.95595,0 84.37928,217.48091 -32.08831,0 0,30.89876 77.25181,0 z"
       id="path441"
       style="fill:#003366;fill-opacity:1;fill-rule:nonzero;stroke:none" /><path
       d="m 282.41857,728.49711 85.67652,-222.15586 c 0,0 10.97513,-27.03642 28.8036,-27.03642 l -62.38006,0 c 0,0 3.13295,-0.45526 6.25611,4.74838 1.78677,2.97142 0.27903,7.43098 0.27903,7.43098 l -19.29214,49.5937 -39.34306,0 -39.18152,0 -19.31662,-49.5937 c 0,0 -1.47347,-4.45956 0.3084,-7.43098 3.10848,-5.20364 6.23164,-4.74838 6.23164,-4.74838 l -62.37517,0 c 17.81868,0 28.8085,27.03642 28.8085,27.03642 l 85.52477,222.15586 m -0.0685,-163.87311 30.17917,0 -29.58684,77.93225 -30.63443,-77.93225 30.0421,0 z"
       id="path439"
       style="fill:#cc0033;fill-opacity:1;fill-rule:nonzero;stroke:none" /></g></svg>