<?xml version="1.0" encoding="UTF-8" standalone="no"?>
<!-- Created with Inkscape (http://www.inkscape.org/) -->

<svg
   xmlns:dc="http://purl.org/dc/elements/1.1/"
   xmlns:cc="http://creativecommons.org/ns#"
   xmlns:rdf="http://www.w3.org/1999/02/22-rdf-syntax-ns#"
   xmlns:svg="http://www.w3.org/2000/svg"
   xmlns="http://www.w3.org/2000/svg"
   version="1.1"
   width="280"
   height="200"
   id="svg2"
   xml:space="preserve"><metadata
     id="metadata8"><rdf:RDF><cc:Work
         rdf:about=""><dc:format>image/svg+xml</dc:format><dc:type
           rdf:resource="http://purl.org/dc/dcmitype/StillImage" /><dc:title></dc:title></cc:Work></rdf:RDF></metadata><defs
     id="defs6"><clipPath
       id="clipPath16"><path
         d="m 0,595.276 841.89,0 L 841.89,0 0,0 0,595.276 z"
         id="path18" /></clipPath></defs><g
     transform="matrix(1.25,0,0,-1.25,-396.45063,469.99787)"
     id="g10"><g
       transform="matrix(0.72882313,0,0,0.72882313,120.60724,80.267892)"
       id="g12"><g
         clip-path="url(#clipPath16)"
         id="g14"><g
           transform="translate(378.5703,359.6787)"
           id="g20"><path
             d="m 0,0 c -9.443,-5 -15.021,-10.12 -22.283,-20.124 l -0.017,-0.02 -1.712,-2.034 c 1.874,0.88 4.479,2.138 7.033,3.065 0.895,0.338 2.643,0.827 2.643,0.827 -0.355,-0.602 -1.076,-1.816 -1.326,-2.288 -5.484,-10.088 -9.182,-28.186 -11.006,-37.112 -0.202,-1.026 -0.386,-1.918 -0.542,-2.648 -0.105,-0.518 -0.296,-0.84 -0.584,-1.216 -0.332,-0.44 -0.794,-0.696 -0.977,-0.804 l -6.953,-3.159 c -0.188,-0.093 -0.484,-0.191 -0.856,-0.197 l -0.025,0 c -0.361,0 -0.878,0.1 -1.321,0.563 -0.038,0.037 -0.059,0.084 -0.094,0.115 -0.402,0.469 -0.524,0.906 -0.57,1.508 -0.065,0.754 -0.126,1.545 -0.187,2.356 -0.168,2.387 -0.3,5.036 -0.414,7.853 -0.584,14.965 -0.413,34.851 -0.294,47.023 0.04,4.026 0.078,7.513 0.071,10.136 l 0,0.051 -0.031,0.036 c -0.811,0.834 -2.073,2.115 -2.429,2.491 0.502,-0.192 1.513,-0.678 2.818,-1.464 0.684,-0.424 1.449,-0.914 2.275,-1.51 1.134,-0.807 2.369,-1.796 3.635,-2.952 0.296,-0.273 0.596,-0.559 0.9,-0.848 l 0.272,-0.268 -0.072,0.376 c -1.554,7.99 -2.682,14.062 -4.372,19.828 -0.72,2.442 -1.54,4.838 -2.536,7.298 -1.424,3.507 -3.203,8.556 -5.575,12.706 l -0.088,0.154 -0.087,-0.154 c -2.384,-4.146 -4.178,-9.186 -5.609,-12.692 -1.004,-2.452 -1.831,-4.843 -2.554,-7.288 -1.715,-5.772 -2.851,-11.83 -4.429,-19.818 l -0.074,-0.374 0.27,0.26 c 0.304,0.293 0.607,0.582 0.907,0.854 1.265,1.155 2.504,2.13 3.643,2.941 0.824,0.588 1.59,1.086 2.279,1.506 1.307,0.779 2.322,1.263 2.826,1.447 C -47.81,6.059 -49.073,4.772 -49.884,3.94 L -49.92,3.912 -49.924,3.866 -49.92,3.858 c -0.008,-2.628 0.019,-6.108 0.046,-10.131 0.084,-12.172 0.202,-32.065 -0.43,-47.027 -0.116,-2.82 -0.259,-5.458 -0.433,-7.851 -0.063,-0.813 -0.122,-1.601 -0.191,-2.358 -0.05,-0.601 -0.172,-1.031 -0.58,-1.504 -0.03,-0.035 -0.055,-0.074 -0.09,-0.109 -0.444,-0.473 -0.964,-0.566 -1.32,-0.566 l -0.029,0 c -0.372,0.011 -0.67,0.109 -0.859,0.203 l -2.236,1.023 -4.708,2.16 c -0.186,0.098 -0.642,0.363 -0.97,0.802 -0.29,0.376 -0.473,0.698 -0.58,1.214 -0.156,0.732 -0.336,1.62 -0.542,2.646 -1.792,8.936 -5.443,27.042 -10.897,37.15 -0.254,0.465 -0.96,1.692 -1.323,2.291 0,0 1.745,-0.505 2.648,-0.828 2.551,-0.939 5.148,-2.211 7.022,-3.093 l -1.706,2.036 -0.024,0.022 c -7.228,10.024 -12.796,15.168 -22.22,20.188 -1.061,0.566 -2.156,1.128 -3.313,1.692 l -0.393,0.186 0.235,-0.359 c 15.383,-23.559 19.377,-49.641 22.406,-75.119 l 0.088,-0.754 3.427,2.989 15.579,-7.977 0.023,-8.785 6.498,-0.004 6.492,-0.012 0.046,8.784 15.603,7.923 3.42,-2.986 0.087,0.74 c 3.106,25.487 7.168,51.55 22.613,75.068 L 3.708,1.872 3.318,1.685 C 2.154,1.12 1.063,0.563 0,0"
             id="path22"
             style="fill:#ffc638;fill-opacity:1;fill-rule:nonzero;stroke:none" /></g><g
           transform="translate(327.2432,269.8301)"
           id="g24"><path
             d="M 0,0 -0.007,-4.48 6.52,-4.492 13.054,-4.496 13.058,-0.02 0,0 z"
             id="path26"
             style="fill:#ffc638;fill-opacity:1;fill-rule:nonzero;stroke:none" /></g><g
           transform="translate(382.0391,361.1953)"
           id="g28"><path
             d="m 0,0 c -15.442,-23.526 -19.511,-49.591 -22.612,-75.066 l -0.088,-0.745 -3.42,2.987 -15.603,-7.926 -0.044,-8.783 -6.494,0.008 -6.498,0.007 -0.023,8.786 -15.578,7.98 -3.43,-2.99 -0.084,0.756 c -3.028,25.477 -7.024,51.559 -22.408,75.116 l -0.235,0.359 0.391,-0.183 c 1.161,-0.571 2.254,-1.128 3.313,-1.688 9.426,-5.024 14.993,-10.162 22.222,-20.192 l 0.025,-0.021 1.704,-2.037 c -1.874,0.886 -4.472,2.15 -7.023,3.086 -0.901,0.33 -2.647,0.83 -2.647,0.83 0.364,-0.6 1.07,-1.822 1.322,-2.286 5.455,-10.112 9.107,-28.221 10.899,-37.15 0.207,-1.027 0.386,-1.916 0.535,-2.649 0.114,-0.519 0.296,-0.836 0.58,-1.218 0.336,-0.439 0.792,-0.704 0.977,-0.795 l 4.708,-2.161 2.237,-1.031 c 0.19,-0.082 0.486,-0.191 0.858,-0.199 l 0.029,0 c 0.355,0 0.876,0.098 1.315,0.57 0.042,0.039 0.063,0.069 0.095,0.11 0.407,0.47 0.533,0.898 0.581,1.504 0.07,0.754 0.129,1.542 0.19,2.357 0.172,2.386 0.317,5.032 0.434,7.853 0.629,14.953 0.513,34.853 0.427,47.025 -0.025,4.021 -0.053,7.502 -0.042,10.128 0,0 0,0.008 -0.008,0.01 l 0.008,0.044 0.034,0.036 c 0.809,0.832 2.075,2.106 2.437,2.479 -0.502,-0.182 -1.517,-0.668 -2.822,-1.455 -0.693,-0.408 -1.456,-0.912 -2.283,-1.5 -1.137,-0.812 -2.375,-1.79 -3.641,-2.944 -0.3,-0.275 -0.605,-0.552 -0.904,-0.849 l -0.273,-0.266 0.072,0.376 c 1.58,7.991 2.716,14.054 4.431,19.817 0.726,2.446 1.55,4.836 2.554,7.296 1.433,3.504 3.227,8.542 5.609,12.681 l 0.084,0.159 0.091,-0.159 c 2.372,-4.149 4.149,-9.189 5.578,-12.697 0.991,-2.469 1.814,-4.854 2.533,-7.305 1.691,-5.767 2.817,-11.836 4.37,-19.822 l 0.075,-0.38 -0.275,0.267 c -0.302,0.294 -0.601,0.58 -0.895,0.848 -1.266,1.156 -2.504,2.142 -3.64,2.958 -0.824,0.589 -1.589,1.087 -2.274,1.503 -1.304,0.792 -2.321,1.281 -2.817,1.47 0.357,-0.373 1.616,-1.655 2.427,-2.491 l 0.033,-0.034 0,-0.052 c 0,-2.63 -0.033,-6.114 -0.071,-10.137 -0.118,-12.172 -0.29,-32.057 0.294,-47.023 0.111,-2.822 0.246,-5.473 0.412,-7.857 0.061,-0.809 0.126,-1.595 0.185,-2.356 0.048,-0.602 0.172,-1.037 0.573,-1.51 0.036,-0.027 0.057,-0.068 0.095,-0.107 0.441,-0.469 0.958,-0.572 1.315,-0.572 l 0.029,0 c 0.374,0.005 0.67,0.115 0.859,0.197 l 2.244,1.027 4.708,2.142 c 0.183,0.103 0.645,0.355 0.975,0.798 0.29,0.378 0.477,0.694 0.586,1.215 0.157,0.735 0.343,1.622 0.542,2.649 1.823,8.924 5.523,27.021 11.006,37.115 0.25,0.465 0.969,1.687 1.326,2.284 0,0 -1.746,-0.491 -2.643,-0.821 -2.557,-0.922 -5.16,-2.192 -7.032,-3.066 l 1.709,2.03 0.019,0.021 c 7.262,10.002 12.838,15.126 22.283,20.126 1.061,0.559 2.155,1.122 3.321,1.679 L 0.237,0.352 0,0 z m -41.746,-95.861 -6.526,0.004 -6.535,0.011 0.008,4.477 13.059,-0.018 -0.006,-4.474 z m -11.658,-5 0.006,3.265 2.12,0 3,0 3.006,-0.008 2.12,0 -0.002,-3.269 -10.25,0.012 z m 11.614,-1.952 -0.435,-4.248 -6.061,0.01 -6.067,0.006 -0.429,4.254 -0.017,0.18 0.028,0 12.977,-0.008 0.027,0 -0.023,-0.194 z m -6.576,-58.462 -5.744,52.48 5.818,0 5.821,-0.014 -5.895,-52.466 z M 6.334,7.098 C -24.206,-5.91 -32.755,-28.416 -32.771,-28.466 l -0.351,-0.923 0.853,0.504 c 2.455,1.441 6.918,3.859 9.975,5.113 -3.58,-7.582 -8.803,-22.186 -10.916,-32.567 -0.185,-0.922 -0.498,-1.68 -0.66,-2.409 -0.099,-0.477 -0.189,-0.778 -0.376,-1.13 -0.225,-0.44 -0.622,-0.774 -1.097,-1.154 -0.389,-0.317 -2.475,-1.34 -2.475,-1.346 -0.01,-0.004 -0.466,-0.242 -0.97,-0.482 -0.256,-0.119 -0.515,-0.241 -0.727,-0.328 -0.015,-0.006 -0.027,-0.006 -0.038,-0.012 l -0.111,1.893 c -0.681,17.809 -0.897,28.989 -0.887,37.341 0.011,8.944 0.288,14.659 0.551,21.84 1.97,-1.606 7.97,-6.593 7.981,-6.593 l 0.643,-0.538 -0.072,0.828 c -1.183,13.744 -5.214,26.891 -7.954,34.381 -0.907,2.468 -1.813,4.623 -2.689,6.486 -2.973,6.326 -5.557,11.305 -5.678,11.538 l -0.307,0.593 -0.309,-0.588 c -0.128,-0.233 -2.725,-5.21 -5.718,-11.527 -0.874,-1.864 -1.79,-4.011 -2.696,-6.478 -2.765,-7.487 -6.834,-20.622 -8.05,-34.354 l -0.08,-0.826 0.641,0.521 c 0.012,0.008 6.031,4.977 8.006,6.58 0.24,-7.177 0.502,-12.897 0.492,-21.843 -0.015,-8.352 -0.261,-19.531 -0.998,-37.342 l -0.112,-1.883 c -0.628,0.248 -1.722,0.824 -1.722,0.824 -0.013,0 -2.097,1.036 -2.486,1.347 -0.472,0.39 -0.867,0.726 -1.094,1.151 -0.189,0.363 -0.277,0.666 -0.37,1.137 -0.162,0.73 -0.47,1.496 -0.649,2.416 -2.092,10.392 -7.273,25.008 -10.826,32.592 3.049,-1.258 7.507,-3.685 9.956,-5.137 l 0.853,-0.508 -0.348,0.928 c -0.018,0.053 -8.5,22.587 -39.007,35.675 l -0.979,0.426 0.546,-0.918 c 0.004,-0.017 3.75,-6.279 7.965,-14.491 4.22,-8.209 8.918,-18.362 10.804,-26.057 1.75,-7.141 7.153,-30.288 7.122,-49.884 -0.006,-1.978 -0.059,-3.904 -0.183,-5.793 l 0.658,-0.178 c 0,0 1.04,2.01 2.351,4.346 1.117,1.984 2.431,4.221 3.453,5.631 l 6.402,-51.096 0.691,0.018 2.498,38.248 12.536,-82.469 0.691,0 12.762,82.43 2.389,-38.246 0.697,-0.024 6.544,51.082 c 1.02,-1.42 2.332,-3.648 3.436,-5.648 1.306,-2.344 2.336,-4.35 2.336,-4.358 l 0.659,0.182 c -0.117,1.883 -0.17,3.822 -0.17,5.789 0.031,19.6 5.496,42.732 7.271,49.867 1.908,7.695 6.634,17.828 10.87,26.029 4.246,8.202 8,14.452 8.012,14.467 L 7.319,7.527 6.334,7.098"
             id="path30"
             style="fill:#912d47;fill-opacity:1;fill-rule:nonzero;stroke:none" /></g><g
           transform="translate(327.9268,252.4043)"
           id="g32"><path
             d="M 0,0 5.746,-52.488 11.642,-0.02 5.82,-0.008 0,0 z"
             id="path34"
             style="fill:#ffc638;fill-opacity:1;fill-rule:nonzero;stroke:none" /></g><g
           transform="translate(333.7568,258.584)"
           id="g36"><path
             d="m 0,0 -6.486,0 -0.029,0 0.015,-0.18 0.432,-4.258 6.064,-0.001 6.064,-0.014 0.432,4.256 0.024,0.185 -0.028,0 L 0,0 z"
             id="path38"
             style="fill:#ffc638;fill-opacity:1;fill-rule:nonzero;stroke:none" /></g><g
           transform="translate(338.8848,260.3223)"
           id="g40"><path
             d="m 0,0 0.004,3.27 -2.118,0 -6.008,0.011 -2.12,0 L -10.246,0.008 0,0 z"
             id="path42"
             style="fill:#ffc638;fill-opacity:1;fill-rule:nonzero;stroke:none" /></g><g
           transform="translate(488.8779,300.3252)"
           id="g44"><path
             d="m 0,0 c -2.316,1.958 -4.996,3.704 -7.992,5.176 -8.356,4.108 -12.633,6.126 -14.623,9.246 -1.098,1.714 -1.512,3.752 -1.512,6.674 0,1.719 0.963,2.982 2.352,3.792 1.177,0.679 2.662,1.036 4.127,1.036 1.406,0 2.691,-0.38 3.697,-1.036 1.269,-0.823 2.096,-2.09 2.096,-3.693 l 0,-6.773 19.66,0 0,-0.016 c -0.075,7.073 1.33,12.709 4.482,17.734 l -4.482,0 c -2.555,3.856 -7.91,6.969 -13.192,8.883 -3.609,1.303 -7.73,2.051 -12.261,2.051 -5.172,0 -9.657,-0.752 -13.5,-2.051 -2.504,-0.847 -4.731,-1.925 -6.668,-3.197 -3.561,-2.326 -6.149,-5.276 -7.754,-8.526 -0.707,-1.422 -1.213,-2.896 -1.539,-4.412 -0.278,-1.283 -0.426,-2.588 -0.426,-3.896 0,-2.204 0.281,-4.408 0.849,-6.57 0.295,-1.109 0.663,-2.21 1.116,-3.29 1.566,-3.762 4.109,-7.336 7.754,-10.527 0.23,-0.201 0.459,-0.408 0.699,-0.605 1.742,-1.446 3.715,-2.811 5.941,-4.065 12.84,-7.293 18.52,-9.864 18.52,-16.641 0,-1.297 -0.297,-2.359 -0.91,-3.191 -1.032,-1.411 -2.969,-2.147 -5.901,-2.147 -2.787,0 -4.861,0.818 -6.099,2.147 -0.832,0.89 -1.289,2.015 -1.289,3.294 l 0,7.088 -19.918,0 0,-0.006 c 0.078,-7.521 -1.415,-13.511 -4.762,-18.849 l 4.762,0 c 1.765,-2.797 5.57,-5.117 8.957,-6.871 1.41,-0.731 2.955,-1.367 4.632,-1.906 4.196,-1.336 9.176,-2.055 14.848,-2.055 4.922,0 9.242,0.758 12.971,2.055 5.224,1.82 9.252,4.726 11.967,8.23 2.121,2.729 3.431,5.811 3.921,9.02 0.137,0.921 0.239,1.849 0.239,2.783 0,4.662 -1.455,9.34 -4.16,13.611 C 4.893,-4.8 2.688,-2.26 0,0"
             id="path46"
             style="fill:#912d47;fill-opacity:1;fill-rule:nonzero;stroke:none" /></g><g
           transform="translate(558.96,341.3486)"
           id="g48"><path
             d="m 0,0 -21.775,0 0,-62.552 c 0,-2.16 -1.952,-3.494 -4.62,-3.494 -2.466,0 -4.523,1.334 -4.523,3.494 L -30.918,0 -58.5,0 c 3.441,-2.79 4.967,-5.914 4.889,-9.84 l 0,-54.044 c 0,-11.197 11.709,-20.34 27.216,-20.34 15.61,0 26.395,9.143 26.395,20.34 l 0,54.918 0.02,0 C 0.176,-5.447 1.705,-2.576 4.881,0 L 0,0"
             id="path50"
             style="fill:#912d47;fill-opacity:1;fill-rule:nonzero;stroke:none" /></g><g
           transform="translate(422.7471,336.3252)"
           id="g52"><path
             d="m 0,0 c 0.783,1.834 2.084,3.479 3.986,5.02 l -36.171,0 c 1.907,-1.544 3.208,-3.208 3.991,-5.039 l -13.689,-77.128 19.618,0 1.641,10.787 10.577,0 1.135,-10.787 22.797,0 L 0,0 z m -18.158,-48.696 3.391,25.988 2.872,-25.988 -6.263,0"
             id="path54"
             style="fill:#912d47;fill-opacity:1;fill-rule:nonzero;stroke:none" /></g></g></g></g></svg>