<?xml version="1.0" encoding="UTF-8" standalone="no"?>
<!-- Created with Inkscape (http://www.inkscape.org/) -->

<svg
   xmlns:dc="http://purl.org/dc/elements/1.1/"
   xmlns:cc="http://creativecommons.org/ns#"
   xmlns:rdf="http://www.w3.org/1999/02/22-rdf-syntax-ns#"
   xmlns:svg="http://www.w3.org/2000/svg"
   xmlns="http://www.w3.org/2000/svg"
   version="1.0"
   width="280"
   height="200"
   viewBox="0 0 280 200"
   id="svg2394"
   xml:space="preserve"><metadata
     id="metadata3015"><rdf:RDF><cc:Work
         rdf:about=""><dc:format>image/svg+xml</dc:format><dc:type
           rdf:resource="http://purl.org/dc/dcmitype/StillImage" /><dc:title></dc:title></cc:Work></rdf:RDF></metadata><defs
     id="defs3013" /><path
     d="m 16.797467,199.23749 c -2.43386,-2.43336 1.3266,-8.81298 2.97672,-10.92733 3.03231,-3.88667 7.59905,-7.33013 11.68503,-10.01589 8.05628,-5.2959 15.52212,-8.56609 24.82488,-11.04452 13.21446,-3.51958 26.97879,-3.92272 40.57936,-3.9097 41.028083,0.0391 65.618593,4.20216 101.860573,4.93783 2.93366,0.0601 20.15698,0.75119 24.66112,-3.00927 -9.72092,-1.91554 -16.06448,-4.50315 -21.07242,-7.92507 -2.15793,-1.47384 -7.17739,-6.67659 -8.42937,-9.09743 -11.32847,7.52143 -25.08179,14.52303 -39.47963,13.89704 -6.59746,-0.28696 -13.02065,-3.00477 -15.35736,-6.88342 -4.92481,4.25475 -11.50524,6.08716 -16.36295,6.71515 -8.07932,1.04366 -16.53573,-0.98706 -22.57631,-6.65005 -0.807283,-0.7572 -3.211593,-3.57266 -3.743943,-4.36241 -1.55446,1.37367 -5.62342,3.87114 -6.4337,4.30883 -15.2527,8.23556 -34.51024,9.74646 -49.89715,0.93248 -14.92818,-8.55106 -19.19094,-24.70769 -18.23943,-40.94144 2.208,-37.679274 28.87931,-70.336574 58.07662,-91.880744 13.90005,-10.25677 30.982143,-19.6291402 48.271073,-22.3454502 6.46225,-1.01510797 15.2622,-2.241052 21.1245,1.49087 6.02105,3.83358 7.72375,10.9578802 7.01213,17.7436402 -1.62208,15.46403 -15.75499,33.84519 -31.66974,33.82616 -6.84335,-0.008 -12.46928,-5.2283 -10.68344,-12.18583 1.96311,-7.64563 9.91372,-9.23816 16.57729,-11.13466 5.38654,-1.53344 9.80505,-4.4075 9.25268,-10.75857 -0.57341,-6.59446 -11.9745,-2.31167 -15.98085,-0.30849 -14.03677,7.01863 -23.74617,19.00415 -33.056443,31.43186 -15.61777,20.84857 -28.77564,46.7802 -27.12602,73.366374 0.72114,11.61793 10.62886,23.73365 22.5092,14.89263 6.07163,-4.51817 8.93217,-12.61602 12.40217,-19.02618 4.207683,-7.77233 9.419443,-14.69732 15.878193,-20.740404 6.67058,-6.2414 14.47696,-11.12214 23.27892,-13.70023 3.63828,-1.06569 7.6902,-2.06878 11.51677,-2.09983 8.04576,-0.0646 7.4408,3.31576 8.92215,1.56298 2.03824,-2.41183 6.69813,-1.87798 13.70925,-1.62759 7.25801,0.25942 9.80706,0.1252 11.05904,3.38037 1.34113,3.48603 -3.41642,12.881434 -9.05586,27.168094 -5.30842,13.44833 -11.03751,26.59218 -7.26152,28.54528 4.10251,2.12186 10.34891,-2.60664 13.89354,-4.9158 3.92773,-2.55856 5.88784,-3.9733 7.64062,-5.72608 -1.08022,-15.3809 0.71713,-34.264854 6.48128,-48.645664 6.90044,-17.21431 17.11565,-33.40199 30.2019,-46.50527 6.79278,-6.80129 31.04925,-25.03972 39.15761,-16.62687 3.88066,4.02638 3.01078,12.04059 2.30065,17.06757 -1.02612,7.26001 -9.46201,28.61138 -21.92728,49.38834 -6.1788,10.29833 -22.36898,31.800444 -25.37375,36.307594 -0.66755,7.84594 3.35332,16.88628 8.51351,22.20172 5.9925,6.17329 12.31353,6.92498 19.74782,10.06947 8.39882,3.55263 7.89553,9.74796 2.81998,16.08952 -10.73303,13.40977 -24.05616,18.58297 -40.26187,21.7505 -18.77027,3.66882 -41.81633,2.00318 -60.5896,1.36917 -16.14061,-0.54486 -34.65397,-1.98064 -50.837143,-2.62116 -18.0922,-0.71613 -38.07339,-0.53384 -54.33619,2.25408 -5.84276,1.00159 -10.721,2.42635 -15.69139,3.67232 -2.2711,0.56891 -9.41844,3.31877 -11.49122,1.24548 M 144.26315,119.45043 c 2.75437,-6.00953 7.01112,-16.15062 7.26152,-19.15538 0.21334,-2.559564 -9.87867,-0.420174 -19.40578,16.73504 -2.68727,4.83868 -7.88751,21.07493 -2.25358,22.45212 5.63394,1.37718 11.75565,-14.26713 14.39784,-20.03178 z m 92.85579,-49.995804 c 5.09157,-8.97273 11.21378,-21.87971 12.68662,-26.25014 -2.51599,1.49086 -10.04694,10.25978 -15.1906,18.40419 -6.00953,9.5151 -13.64414,26.73992 -13.35468,32.30124 2.33971,-2.99475 11.01497,-15.91975 15.85866,-24.45529 z"
     id="outline"
     style="fill:#f6b211" /><path
     d="m 20.190347,195.93725 c 0.4432,-1.45831 1.59603,-3.69235 2.74335,-5.16369 2.21151,-2.83449 5.82073,-5.90687 10.72651,-9.13148 7.5655,-4.97289 14.64023,-8.11988 23.65553,-10.52069 13.07774,-3.48352 26.93923,-3.77549 38.9047,-3.77549 l 0.63902,0.001 c 15.925263,0.0145 49.977273,2.02171 74.840213,3.48804 13.0487,0.76771 23.35454,1.37618 26.94474,1.44879 l 0.64202,0.016 c 1.05066,0.0265 2.80795,0.0726 4.91529,0.0726 15.17157,0 20.35229,-2.37527 22.6925,-3.7184 2.54604,-1.46082 5.21677,-3.54713 5.00794,-5.00795 -0.30398,-2.12687 -5.63343,-1.96161 -7.6296,-2.28512 -7.93809,-1.28504 -14.78095,-4.43403 -19.69825,-7.90855 -5.63443,-3.98031 -9.18306,-11.01497 -9.18306,-11.01497 l -3.72341,2.47142 c -13.63262,9.05086 -24.89999,13.26605 -35.45924,13.26705 -0.54336,0 -1.09224,-0.0115 -1.63109,-0.0351 -6.08215,-0.26392 -10.77359,-2.74585 -12.09869,-4.94685 l -2.45289,-4.07396 -3.59871,3.10843 c -4.82916,4.17162 -11.57887,5.42661 -14.25711,5.77266 -1.18138,0.15374 -2.37878,0.23037 -3.55915,0.23037 -6.15626,0 -11.75464,-2.07029 -15.76451,-5.82975 -0.59143,-0.55388 -2.77189,-3.11294 -3.164013,-3.68284 l -2.56407,-3.72441 -3.40791,2.9657 c -1.1984,1.05868 -4.93232,3.38036 -5.68451,3.78651 -7.76682,4.19365 -16.35645,6.41067 -24.8384,6.41067 -7.64362,0 -14.96173,-1.87698 -21.16407,-5.42961 -14.72335,-8.43438 -16.95389,-24.9015 -16.23325,-37.23106 0.98657,-16.831704 7.1203,-33.645374 18.23042,-49.972274 9.58019,-14.07783 22.79816,-27.53567 38.22613,-38.91923 11.23582,-8.29115 28.427593,-18.7702702 46.513783,-21.6112802 3.18205,-0.49979 6.56341,-0.98757 9.84862,-0.98757 3.71339,0 6.4953,0.62099 8.50299,1.90052 5.41659,3.44847 5.57033,10.2172002 5.17971,13.9456202 -1.43728,13.69472 -14.09585,30.23646 -27.66137,30.23746 -2.50748,-0.002 -4.74703,-0.97805 -6.01054,-2.60814 -0.99257,-1.28153 -1.26751,-2.82097 -0.81679,-4.57525 1.14832,-4.4731 5.36351,-5.93993 12.1698,-7.82341 0.54737,-0.15124 1.08973,-0.30148 1.62358,-0.45372 10.84821,-3.0874 12.59297,-9.83911 12.14727,-14.95873 -0.30248,-3.47701 -2.74836,-7.19291 -8.70782,-7.19291 -5.59788,0 -12.30952,3.2747 -13.05621,3.64779 -14.82501,7.41225 -24.764783,19.65668 -34.471673,32.61423 -19.99873,26.69735 -29.39112,52.271914 -27.91829,76.016084 0.64753,10.43254 7.85747,21.6914 18.37715,21.6914 3.56466,0 7.10477,-1.28904 10.52219,-3.83308 5.48721,-4.08197 8.58512,-10.39398 11.31996,-15.96232 0.757203,-1.54344 1.473333,-3.00176 2.213513,-4.37093 4.13556,-7.63711 9.05136,-14.47446 15.0714,-20.10739 6.64204,-6.213864 13.62061,-10.184664 21.28376,-12.686634 4.08999,-1.33561 7.75831,-1.90953 12.26947,-1.83641 4.25274,0.0686 6.51032,2.75437 7.51191,4.50715 0.75119,-1.46082 1.91955,-4.04792 2.37877,-4.42352 0.42117,-0.34454 7.73227,-0.31049 10.01589,-0.20883 1.87798,0.0836 7.6892,0.0561 8.38831,0.81379 0.82481,0.89492 -1.50239,5.75914 -4.08298,12.674614 -1.1979,3.20859 -2.95919,7.09375 -4.7906,11.86932 -0.71263,1.85895 -1.43928,3.71039 -2.14991,5.52477 -5.82474,14.85656 -9.67234,24.67213 -3.21159,28.01343 1.2605,0.65204 2.66522,0.98256 4.17612,0.98256 4.61933,0 9.25017,-3.09841 12.63104,-5.3605 0.39562,-0.26392 0.76822,-0.51332 1.11476,-0.73968 3.95828,-2.57909 6.20835,-4.17161 8.28565,-6.24991 l 1.29255,-1.29105 -0.12821,-1.82189 c -1.15833,-16.48114 1.21994,-34.441634 6.20435,-46.874854 6.92448,-17.2769 17.06306,-32.89418 29.317,-45.16414 6.14374,-6.15226 21.57372,-17.32498 30.05116,-17.52179 7.17789,-0.16677 5.16069,12.47228 4.50715,15.44099 -1.41875,6.44723 -8.97623,26.48101 -21.29728,47.01658 -4.1621,6.937 -13.22898,19.430824 -19.2285,27.698434 -2.82798,3.89819 -5.06203,6.97607 -6.04308,8.4479 l -0.57091,0.85636 -0.0876,1.02613 c -0.83182,9.78903 4.23772,19.77587 9.63128,25.33268 5.05702,5.21027 10.41302,7.09275 15.59173,8.91314 1.77482,0.62449 3.61023,1.26901 5.46918,2.05576 1.59653,0.67557 3.58218,1.80386 3.9728,3.34531 0.38561,1.52241 -0.60546,3.9097 -2.71882,6.55039 -10.76808,13.45484 -24.58048,17.7181 -37.90362,20.32173 -7.66265,1.49738 -16.97743,2.22503 -28.47617,2.22603 -7.73927,0 -15.4515,-0.31099 -22.90984,-0.61147 -2.837,-0.11468 -5.6124,-0.22586 -8.29966,-0.3175 -8.55006,-0.28846 -17.93244,-0.83833 -27.00634,-1.36967 -7.96814,-0.46674 -16.2072,-0.95001 -23.807263,-1.25099 -6.02305,-0.23888 -11.83127,-0.35907 -17.26338,-0.35907 -14.82852,0 -27.58275,0.89843 -37.90813,2.66773 -4.6629,0.80027 -8.69179,1.84693 -12.58847,2.86004 -1.1368,0.29647 -2.26709,0.59044 -3.40139,0.87489 -0.49429,0.12319 -1.08973,0.30548 -1.77983,0.51532 -1.42826,0.43569 -3.67082,1.11827 -5.34297,1.31658 l 0,0 z M 150.14748,95.600096 c -4.06895,0.1252 -13.77184,5.133144 -21.53065,19.484414 -1.81037,3.34881 -7.42327,17.2789 -4.38245,24.23243 0.91896,2.10234 2.58109,3.54412 4.67992,4.05644 0.54236,0.13371 1.10175,0.20032 1.65964,0.20032 6.84385,0.001 11.63746,-9.57469 16.34592,-20.24512 0.36759,-0.83182 0.69811,-1.5805 0.98707,-2.209 1.20441,-2.63067 6.28747,-14.36078 7.29156,-18.77929 0.625,-2.754374 0.83333,-6.920984 -5.05101,-6.740194 z m 103.49767,-58.11268 c -1.60304,-0.8844 -5.88183,2.2706 -5.88183,2.2706 -8.1935,6.50632 -14.35176,14.56711 -19.65868,23.85434 -14.02224,24.53893 -12.72869,43.819514 -12.72869,43.819514 0,0 7.3146,-8.326714 9.04034,-11.054544 2.35273,-3.7189 11.20577,-16.16814 16.18717,-24.94506 5.34047,-9.41093 11.47721,-22.43609 12.99862,-26.94675 0,0 2.46341,-5.66298 0.0431,-6.9981 z"
     id="text"
     style="fill:#172677" /></svg>