<?xml version="1.0" encoding="UTF-8" standalone="no"?>
<!-- Created with Inkscape (http://www.inkscape.org/) -->

<svg
   xmlns:dc="http://purl.org/dc/elements/1.1/"
   xmlns:cc="http://creativecommons.org/ns#"
   xmlns:rdf="http://www.w3.org/1999/02/22-rdf-syntax-ns#"
   xmlns:svg="http://www.w3.org/2000/svg"
   xmlns="http://www.w3.org/2000/svg"
   version="1.1"
   width="280"
   height="200"
   id="svg2"
   xml:space="preserve"><metadata
     id="metadata8"><rdf:RDF><cc:Work
         rdf:about=""><dc:format>image/svg+xml</dc:format><dc:type
           rdf:resource="http://purl.org/dc/dcmitype/StillImage" /><dc:title></dc:title></cc:Work></rdf:RDF></metadata><defs
     id="defs6" /><g
     transform="matrix(1.25,0,0,-1.25,-20.79721,221.18101)"
     id="g10"><g
       transform="matrix(0.08300649,0,0,0.08300649,48.422145,16.474321)"
       id="g12"><path
         d="m 2.59766,5.66797 1927.56004,0 0,1927.56003 -1927.56004,0 0,-1927.56003 z"
         id="path14"
         style="fill:#ffffff;fill-opacity:1;fill-rule:evenodd;stroke:none" /><path
         d="m 548.578,1337.18 c -1.473,1.24 112.145,118.73 111.289,120.25 11.559,13.73 24.098,30.9 37.434,42.68 17.75,15.68 38.426,24.89 54.656,43.42 19.086,3.2 34.219,20.96 52.406,28.45 15.301,6.31 37.586,11.27 50.16,21.72 21.36,2.85 40.032,15.09 61.383,17.96 7.098,10.17 24.352,2.56 31.453,12.73 8.079,1.14 25.52,-3.59 29.938,5.24 15.894,5.46 45.143,-4.19 56.163,8.98 l 85.34,0 c 17.32,-12.52 51.84,2.74 67.37,-12.73 16.15,3.51 25.47,-5.93 40.44,-5.23 10.05,-9.13 28.19,-4.4 37.43,-10.49 15.21,-10.03 37.66,-12.2 50.16,-23.95 25.42,-3.1 36.66,-22.27 57.65,-32.19 35.17,-16.64 98.3,-96.33 120.54,-131.02 6.1,-9.53 9.44,-22.29 23.2,-23.21 23.08,-1.56 49.14,-8.92 71.87,-5.24 8.37,-5.17 24.64,2.38 29.96,-7.49 20.49,6.05 33.81,-10.9 53.15,-14.22 2.31,-0.4 55.49,-20.7 59.14,-22.46 21.39,-10.33 55.83,-39.71 72.62,-56.9 12.27,-12.57 25.8,-30.35 40.44,-39.68 11.56,-22.35 25.86,-41.28 32.93,-65.89 18.8,-65.39 33.16,-102.96 22.46,-172.94 -4.37,-28.591 -1.97,-51.65 -19.47,-77.103 -0.85,-25.699 -52.06,-74.347 -68.12,-95.828 -4.12,-5.508 -8.25,-11.266 -12.73,-16.473 -2.69,-3.128 -7.34,-3.925 -10.43,-6.668 -7.28,-6.394 -16.36,-16.558 -22.51,-24.031 -7.26,-8.816 -15.53,-15.699 -22.46,-24.711 -15.98,-20.758 -37.82,-34.883 -52.4,-56.144 -18.43,-26.864 -50.9,-49.133 -73.38,-73.375 -16.55,-17.848 -44.96,-2.313 -64.38,-21.707 -11.77,-11.746 -32.6,-14.934 -46.42,-26.957 -6.09,-5.282 -15.61,-5.836 -23.21,-5.227 -17.16,18.801 -41.37,63.793 -63.63,71.859 -22.1,-4.906 -32.04,-34.98 -48.67,-49.41 -20.52,-17.804 -29.17,-35.414 -54.65,-51.652 -21.36,-13.629 -13.91,-23.645 -44.17,-32.945 -8.23,-2.528 -33.32,-20.66 -44.18,-26.203 -17.9,-9.137 -36.95,-22.579 -47.91,-39.684 -9,-3.055 -11.13,-14.41 -20.21,-17.965 -12.78,-15.988 -29.06,-28.535 -50.16,-29.941 -20.76,-22.946 -73.99,-9.602 -102.57,-12.739 -8.621,-10.093 -27.254,-2.488 -35.191,-12.714 -50.688,-13.86 -27.875,23.113 -36.676,44.918 4,29.656 11.765,107.429 23.211,131.761 5.531,11.785 11.801,32.117 17.961,41.926 7.015,11.191 36.225,21.387 47.915,33.688 3.19,-0.797 5.51,1.531 5.99,4.5 -0.58,3.421 3.52,4.406 5.99,4.484 2.73,-3.918 6.1,-0.535 9.48,0.238 0,0 19.75,35.215 10.21,55.805 -9.52,20.605 -141.21,51.555 -182.054,36.082 l -75.805,-41.043 c -4.301,-8.465 -27.105,-16.902 -35.843,-23.383 -9.766,-7.226 -30.442,-6.836 -42.676,-15.723 -11.039,-0.742 -18.012,-10.835 -29.946,-8.234 -9.226,2.016 -10.312,-1.519 -18.718,-2.992 -9.637,-8.281 -37.317,-5.016 -50.157,-5.234 -36.687,-0.637 -75.023,-3.606 -111.55,-1.508 -10.047,16.218 -41.641,-1.992 -50.911,14.222 -9.972,-0.636 -14.632,8.84 -24.707,7.489 -13.734,7.566 -31.535,9.105 -42.675,20.972 -13.957,0.024 -26.496,7.453 -40.426,7.485 -8.457,9.187 -23.149,2.418 -31.445,-3.742 -26.754,-19.883 -31.122,-50.833 -35.188,-80.86 -1.879,-13.871 -2.105,-27.5 -3.738,-41.18 -3.946,-32.894 -0.969,-64.203 -13.481,-95.078 -4.05,-9.976 -3.668,-19.332 -11.98,-27.699 -5.16,-22.195 -34.442,-62.648 -54.652,-73.367 -21.649,-11.484 -20.586,-19.609 -36.684,-32.195 -12.574,-9.829 -23.309,-40.532 -44.172,-35.926 -14.848,14.027 -40.8359,65.164 -50.1562,71.855 -5.8516,21.844 -22.8945,37.879 -26.9531,60.641 -2.2149,12.414 -11.2696,33.863 -10.4844,44.926 0.7695,10.863 7.9062,23.039 10.3672,33.933 1.5781,6.965 0.875,13.153 1.6093,19.977 2.0352,18.82 20.0157,28.887 29.2032,42.668 11.707,17.574 -8.9024,60.406 14.2226,88.344 23.7424,28.675 33.6994,55.062 37.4334,91.336 0.891,8.675 4.949,17.527 5.989,26.203 6.753,56.468 32.273,61.082 51.656,98.074 16.039,0.695 26.133,16.496 42.676,19.469 15.691,2.824 21.316,22.898 20.214,36.679 -2.742,34.317 -2.531,64.422 -1.5,98.827 1.008,33.51 14.907,64.89 14.227,98.08 -12.824,14.16 -75.852,32.96 -73.367,59.14 16.629,0.65 107.769,2.29 115.293,3.74 8.656,1.67 46.441,41.51 53.902,50.17 9.75,11.3 29.047,16.98 35.191,29.19 20.481,3.15 31.317,12.7 47.915,23.21 6.652,4.22 12.16,1.49 18.714,0 17.907,-4.09 69.481,31.88 93.844,39.96"
         id="path16"
         style="fill:#231f20;fill-opacity:1;fill-rule:evenodd;stroke:none" /><path
         d="m 852.574,646.227 -114.465,120.187 -0.398,354.876 -32.922,0 0,128.01 202.149,0 0,-128.01 -33.7,0 -0.644,-332.673 263.456,0 33.75,39.067 1.37,293.606 -32.93,0 0,128.01 202.15,0 0,-128.01 -33.7,0 -1.13,-355.278 -111.14,-119.383 -341.846,-0.402"
         id="path18"
         style="fill:#e7ad1b;fill-opacity:1;fill-rule:evenodd;stroke:none" /><path
         d="m 647.145,1038.56 40.05,-40.318 250.469,0 35.899,39.068 -0.79,49.91 135.527,0 -1.13,-111.583 -111.154,-119.379 -379.946,-0.403 -114.457,120.18 0,366.485 114.457,120.19 379.946,-0.41 111.154,-119.38 1.13,-111.58 -135.527,0 0.79,49.91 -35.899,39.07 -255.75,0 -34.769,-40.32 0,-241.44"
         id="path20"
         style="fill:#e7ad1b;fill-opacity:1;fill-rule:evenodd;stroke:none" /><path
         d="m 1699.02,1184.17 c -0.01,-15.17 -15.5,-23.74 -23.21,-35.19 -13.22,-19.6 -24.67,-38.8 -32.2,-61.39 -19.96,-15.32 -4.32,-128.676 -68.87,-137.746 -5.38,-0.762 -27.53,6.371 -32.95,8.984 -17.74,8.551 -17.93,35.082 -21.71,51.652 10.76,25.39 19.92,48.44 35.94,71.13 14.19,20.1 32.35,32.44 48.67,50.16 13.95,15.15 58.08,33.93 64.38,47.16 10.04,1.43 20.06,2.97 29.95,5.24"
         id="path22"
         style="fill:#e7ad1b;fill-opacity:1;fill-rule:evenodd;stroke:none" /><path
         d="m 1340.34,390.855 0,7.629 4.75,0 c 2.58,0 6.08,-0.234 6.08,-3.504 0,-3.503 -1.79,-4.125 -4.83,-4.125 l -6,0 z m 0,-5.371 3.2,0 7.32,-13.316 8.02,0 -8.1,13.855 c 4.21,0.313 7.63,2.415 7.63,8.258 0,7.242 -4.82,9.574 -13.01,9.574 l -11.83,0 0,-31.687 6.77,0 0,13.316 z m 34.42,2.489 c 0,18.613 -13.94,29.433 -29.51,29.433 -15.65,0 -29.59,-10.82 -29.59,-29.433 0,-18.614 13.94,-29.434 29.59,-29.434 15.57,0 29.51,10.82 29.51,29.434 z m -8.48,0 c 0,-13.551 -9.66,-22.657 -21.03,-22.657 l 0,0.075 c -11.68,-0.075 -21.1,9.031 -21.1,22.582 0,13.55 9.42,22.578 21.1,22.578 11.37,0 21.03,-9.028 21.03,-22.578"
         id="path24"
         style="fill:#231f20;fill-opacity:1;fill-rule:evenodd;stroke:none" /></g></g></svg>