<?xml version="1.0" encoding="UTF-8" standalone="no"?>
<!-- Created with Inkscape (http://www.inkscape.org/) -->

<svg
   xmlns:dc="http://purl.org/dc/elements/1.1/"
   xmlns:cc="http://creativecommons.org/ns#"
   xmlns:rdf="http://www.w3.org/1999/02/22-rdf-syntax-ns#"
   xmlns:svg="http://www.w3.org/2000/svg"
   xmlns="http://www.w3.org/2000/svg"
   xmlns:xlink="http://www.w3.org/1999/xlink"
   version="1.1"
   width="280"
   height="200"
   viewBox="0 0 279.99999 200"
   id="Layer_1"
   xml:space="preserve"><metadata
     id="metadata3117"><rdf:RDF><cc:Work
         rdf:about=""><dc:format>image/svg+xml</dc:format><dc:type
           rdf:resource="http://purl.org/dc/dcmitype/StillImage" /><dc:title></dc:title></cc:Work></rdf:RDF></metadata><defs
     id="defs3115" /><polygon
     points="26.669,65.932 0.866,65.932 0.866,85.15 12.866,97.245 52.227,97.245 64.177,85.304 64.177,49.745 52.001,37.978 25.785,37.978 25.786,24.888 40.293,24.887 40.293,33.909 64.176,33.909 64.177,14.596 50.804,0.915 14.596,0.915 0.84,14.582 0.84,49.735 12.79,61.688 41.354,61.686 41.354,73.893 26.669,73.893 "
     transform="matrix(2.0761964,0,0,2.0761964,76.255993,-1.8997197)"
     id="polygon3097"
     style="fill:#b30838" /><g
     transform="matrix(2.0761964,0,0,2.0761964,76.255993,-1.8997197)"
     id="g3099"><defs
       id="defs3101"><rect
         width="65.078003"
         height="98.112999"
         x="0"
         y="0"
         id="SVGID_1_" /></defs><clipPath
       id="SVGID_2_"><use
         id="use3105"
         style="overflow:visible"
         x="0"
         y="0"
         width="65.078003"
         height="98.112999"
         xlink:href="#SVGID_1_" /></clipPath><path
       d="m 2.413,15.294 v 33.82 L 13.43,60.133 c 0,0 26.638,0 29.497,-0.001 0,2.412 0,12.98 -10e-4,15.391 -2.497,0 -15.368,0 -17.868,0.002 0.001,-2.037 0.001,-7.961 0.001,-7.961 L 2.439,67.563 V 84.515 L 13.49,95.693 H 51.557 L 62.566,84.676 V 50.423 L 51.303,39.609 h -27.13 c 0.001,-2.445 0.001,-13.831 0,-16.275 h 17.693 v 9.02 h 20.7 V 15.302 L 50.129,2.547 H 15.218 L 2.413,15.294 z"
       clip-path="url(#SVGID_2_)"
       id="path3107"
       style="fill:#ffffff" /><polygon
       points="23.475,77.233 23.475,69.271 4.038,69.272 4.038,83.956 14.142,94.215 50.913,94.215 60.981,84.123 60.983,51.181 50.634,41.316 22.589,41.315 22.588,21.856 43.467,21.856 43.467,30.878 60.981,30.878 60.983,16.083 49.482,4.253 15.868,4.253 4.015,16.083 4.015,48.571 14.098,58.656 44.527,58.656 44.526,77.233 "
       clip-path="url(#SVGID_2_)"
       id="polygon3109"
       style="fill:#b30838" /><path
       d="m 38.643,54.215 c 0,0.005 -0.014,0.031 -0.067,0.088 0.025,-0.026 0.048,-0.057 0.067,-0.088"
       clip-path="url(#SVGID_2_)"
       id="path3111"
       style="fill:#b30838" /></g></svg>