<?xml version="1.0" encoding="UTF-8" standalone="no"?>
<!-- Created with Inkscape (http://www.inkscape.org/) -->

<svg
   xmlns:dc="http://purl.org/dc/elements/1.1/"
   xmlns:cc="http://creativecommons.org/ns#"
   xmlns:rdf="http://www.w3.org/1999/02/22-rdf-syntax-ns#"
   xmlns:svg="http://www.w3.org/2000/svg"
   xmlns="http://www.w3.org/2000/svg"
   version="1.0"
   width="280"
   height="200"
   viewBox="0 0 280 392.15686"
   id="Layer_1"
   xml:space="preserve"><metadata
     id="metadata20"><rdf:RDF><cc:Work
         rdf:about=""><dc:format>image/svg+xml</dc:format><dc:type
           rdf:resource="http://purl.org/dc/dcmitype/StillImage" /><dc:title></dc:title></cc:Work></rdf:RDF></metadata><defs
     id="defs18" /><path
     d="m 412.99939,280.2893 c -4.68279,11.72044 -11.26135,16.54691 -16.01463,20.19749 -14.51769,11.15297 -36.6485,28.06614 -61.58829,24.93624 -9.98401,-1.25197 -15.34764,-7.16192 -18.23061,-18.45296 -5.40295,2.89472 -10.03603,8.57418 -17.24458,12.46812 -20.73904,11.20095 -49.3802,7.24733 -56.16799,-14.96151 -16.08631,9.50671 -51.12686,30.78885 -76.36836,17.4549 -7.14844,-3.77694 -11.7769,-10.55274 -15.76727,-18.45295 -20.43965,18.50794 -67.534542,32.16015 -97.554762,11.47123 -4.69435,-3.23521 -8.363361,-7.62759 -12.317891,-11.9685 -13.098169,10.472 -39.348812,29.40466 -64.051632,19.94827 -8.334448,-3.19074 -13.692317,-9.95249 -17.737006,-18.45295 -17.659555,15.0633 -49.474987,30.62036 -72.920099,14.4619 -5.56363,-3.83427 -11.35728,-9.66233 -15.27368,-15.9584 -9.44994,-15.19083 -6.75887,-39.10911 -1.47846,-57.35262 13.4068,-46.31549 31.907884,-77.82859 48.28549,-122.18541 3.515269,-9.52074 13.547826,-30.111378 -0.98488,-31.419507 -11.671697,-1.04836 -14.518816,11.231367 -16.259696,16.956447 -2.539644,8.35654 -3.638954,18.87183 -10.839394,21.94323 -7.85473,3.34987 -16.84578,-0.65757 -19.70793,-6.98174 -3.24245,-7.16424 -0.34563,-18.20488 1.47848,-24.436599 6.6456,-22.696725 22.66716,-36.380521 44.8361,-40.8946 36.012711,-7.331568 62.035624,13.916647 64.544054,46.380999 1.08544,14.04767 -5.961279,33.29041 -11.333007,46.37983 -11.541087,28.12815 -22.492625,51.80773 -33.503122,80.79118 -1.673829,4.4076 -5.323178,14.83631 -6.897588,21.94323 -2.649469,11.96148 -3.885179,28.51309 11.824287,26.43274 7.955288,-1.05306 13.425287,-12.75831 17.244566,-20.44791 20.902024,-42.08106 35.2220302,-89.24951 51.733726,-136.6473 6.256042,-17.95801 12.922452,-44.087684 25.127062,-49.871263 8.99567,-4.262519 47.3989,-6.197788 50.25643,5.983659 1.4646,6.241068 -5.059631,21.389774 -6.8976,26.931164 -16.79954,50.65289 -35.09719,99.98593 -55.18197,147.61891 -3.3176,7.86862 -8.76447,16.13623 -6.8976,24.93622 7.26288,-1.18409 14.20788,-7.44038 16.752139,-13.96461 2.676051,-6.86004 2.543111,-14.5239 3.94067,-20.44673 4.520961,-19.15147 12.015041,-34.81851 23.157301,-48.87439 13.26346,-16.73063 31.993451,-33.48817 63.065592,-32.91484 19.65824,0.36272 35.44632,13.91196 37.44612,32.91484 1.60679,15.26104 -5.29775,29.80249 -16.7533,35.90667 -8.28129,4.41228 -24.41152,4.40175 -31.53222,-0.49845 -7.83278,-5.3916 -10.88683,-22.49315 -1.47732,-30.42145 -8.48011,4.88615 -15.988061,15.59217 -21.678842,28.42651 -5.64224,12.72085 -9.64301,38.99093 2.955781,47.37673 12.994131,8.64905 32.573751,0.0491 42.866401,-4.98795 3.81813,-1.86859 11.32262,-5.05932 13.30278,-7.97745 1.74896,-2.57763 2.57778,-8.9907 3.94181,-13.46616 14.42288,-47.3545 29.4041,-96.15636 51.24015,-136.14886 15.66901,-28.694436 30.80396,-57.440358 67.99227,-64.333157 23.45323,-4.346759 46.74231,6.188429 49.27156,26.431554 2.4957,19.970505 -11.29602,42.216773 -18.23061,54.858053 -21.78519,39.72455 -46.78045,71.78759 -77.84682,103.23285 -2.77894,2.81164 -6.3231,6.13109 -9.3621,8.97784 -2.90956,2.72388 -7.51027,6.18725 -8.86852,8.97667 -3.47134,7.12563 -4.92207,19.92136 -2.46334,27.92688 14.63789,0.99454 25.43107,-6.15682 33.01069,-13.96344 1.75474,-25.58211 10.00481,-49.37752 23.65089,-67.82462 12.67739,-17.14015 32.96561,-32.70306 56.16914,-34.90978 17.47577,-1.66148 29.45265,3.20127 36.95251,12.96656 9.21183,-11.77428 44.10095,-23.42453 41.8792,6.48327 -0.6404,8.62682 -4.67817,17.32852 -7.88248,25.43468 -6.14623,15.55237 -13.10972,31.306 -19.21434,47.37789 -3.13842,8.25708 -7.39119,17.1144 -5.42028,25.93312 6.26066,0.12402 12.1364,-5.84326 16.50593,-8.72745 16.99719,-11.22201 22.76889,-14.78951 29.06887,-9.47628 5.91156,4.99029 5.81215,11.03713 3.44822,16.95996 z m -5.42029,-11.96967 c -8.37492,-5.73562 -15.51989,5.73444 -29.80869,12.71733 -7.63395,3.73014 -10.28802,6.55699 -14.28764,5.98366 -11.24285,-1.60999 -2.18938,-23.55673 0,-29.42455 7.82468,-20.97442 14.39631,-36.32439 22.17244,-56.35341 2.64945,-6.82609 10.3331,-23.77436 2.95578,-30.42144 -5.77747,-5.20558 -17.18793,-0.49845 -22.66255,2.99301 -5.67923,3.61781 -8.25469,7.97626 -11.82546,12.46811 -4.35912,-13.0508 -16.9498,-19.19008 -33.99555,-17.95451 -22.09035,1.6018 -43.13688,16.32929 -55.18312,33.41445 -12.99991,18.43774 -20.93208,42.4742 -22.17243,66.82774 -3.97418,4.37717 -8.92746,8.81754 -16.75097,12.46811 -6.0214,2.80813 -16.85272,6.89397 -23.65091,3.49028 -7.67672,-3.84363 -2.66679,-29.04664 0.49476,-35.4094 1.42644,-2.87599 5.46652,-5.16112 8.86734,-8.47705 32.53559,-31.72373 63.85165,-67.9463 86.22406,-109.21885 6.8895,-12.7115 19.53221,-34.198389 18.72304,-52.364664 -0.86696,-19.404205 -20.4512,-26.546223 -40.89548,-24.936224 -22.82669,1.7972 -38.75694,17.388196 -50.25641,34.411321 -34.17475,50.593207 -52.48859,114.870217 -71.93412,178.539977 -15.53839,12.44821 -59.470581,30.57824 -70.950392,5.48521 -11.78846,-25.7658 8.11252,-60.70249 19.707932,-71.81334 7.65592,-7.33624 29.50236,-17.58243 30.0549,1.49534 -11.39311,-5.84093 -23.19544,3.49379 -21.67882,15.45994 1.41604,11.17637 17.04575,15.2938 29.07002,10.47317 9.67422,-3.8799 15.96841,-15.70331 16.75215,-23.43972 1.76977,-17.49936 -7.63394,-28.26855 -16.75215,-32.91485 -15.05403,-7.67321 -38.67837,-1.70009 -50.256422,4.98679 -24.52597,14.16469 -40.001921,40.21013 -46.80705,70.318 -1.41606,6.26799 -1.73856,13.87921 -3.94067,19.94946 -2.23447,6.15449 -13.35132,19.26963 -22.17243,17.45489 -10.1920824,-2.09791 -2.65639,-19.68503 -0.49244,-24.43779 4.57875,-10.05546 6.84789,-17.21854 9.853379,-24.93622 16.733661,-42.96212 32.589931,-83.32084 47.29949,-127.67064 1.619491,-4.88498 9.171381,-22.952976 7.391201,-26.929995 -1.84722,-4.124438 -14.18244,-4.922408 -20.69395,-4.986768 -6.98892,-0.0714 -17.51277,0.34634 -22.172431,2.493389 -7.198159,3.317099 -9.929689,13.470837 -13.795219,23.938154 -10.84866,29.38127 -19.891721,57.26019 -30.0548978,84.28262 -9.6533972,25.66519 -19.5368342,57.66152 -33.0106812,81.28963 -4.492049,7.87565 -10.215187,17.79655 -19.709075,18.45295 -26.621703,1.83816 -16.938246,-33.86024 -10.839417,-51.36662 10.511127,-30.1734 22.529614,-54.87093 34.489151,-83.78419 5.716209,-13.8207 13.023017,-30.34539 11.333017,-47.87634 -2.002119,-20.771985 -17.200655,-38.039661 -37.93853,-40.39615 -32.461602,-3.688009 -53.319685,13.770387 -60.602215,36.406271 -2.94654,9.158029 -7.20047,28.494369 6.89759,27.928069 9.21067,-0.36975 9.17599,-12.21422 11.82429,-20.44791 2.31421,-7.194669 6.923024,-16.140907 13.796352,-18.451776 9.526238,-3.20244 20.141395,1.518739 20.692785,11.470057 0.36528,6.585079 -4.727859,17.997799 -7.391188,25.434669 -3.10721,8.67715 -6.200559,16.39365 -9.360958,23.93817 -13.676116,32.64105 -26.900261,59.54414 -37.937341,95.25424 -4.89087,15.82384 -9.32396,40.09196 -0.49359,55.35768 3.68288,6.36277 9.77824,12.50906 15.27365,15.95839 26.90144,16.88156 54.618993,-7.7095 71.441639,-18.95139 3.391579,9.88111 8.018878,17.94982 16.752135,21.44478 23.982651,9.60147 50.834393,-12.14518 64.051634,-22.44167 10.82439,20.30866 38.38704,29.25255 65.528942,22.94011 18.64907,-4.33739 34.01985,-14.96852 45.82218,-22.94011 2.83441,11.06405 8.11251,18.6343 17.24574,22.44167 13.91195,5.80231 30.34043,0.94307 42.86408,-3.98989 13.53049,-5.32727 24.34099,-13.1093 32.51825,-18.45178 1.66805,13.18067 9.09969,21.92801 20.20151,24.43778 12.35603,2.79176 23.75262,-1.71997 32.51825,-6.98288 9.20721,-5.52852 15.90829,-13.60308 22.17243,-17.95452 -1.70967,11.63387 1.70967,19.97987 8.8685,23.43973 8.47781,4.09754 17.92661,1.20985 25.62067,-0.99806 17.46304,-5.01251 26.69221,-13.05664 38.92455,-22.44283 4.65852,-3.57453 10.85329,-8.97082 13.54898,-15.20957 3.44591,-7.97859 -0.008,-10.4638 -1.47962,-11.47004 z"
     id="path3"
     style="fill:#ffb300;fill-opacity:1;fill-rule:evenodd" /><path
     d="m 409.0564,279.79086 c -2.88527,6.81439 -8.8893,11.63503 -13.54897,15.20954 -12.23235,9.38503 -21.46036,17.42916 -38.92456,22.44284 -7.69406,2.2079 -17.14286,5.09443 -25.62065,0.99806 -7.15885,-3.45984 -10.57701,-11.80586 -8.86851,-23.43971 -6.26415,4.35142 -12.96523,12.42599 -22.17243,17.95449 -8.76563,5.26291 -20.16106,9.77465 -32.51825,6.98289 -11.10182,-2.50977 -18.53232,-11.2571 -20.20152,-24.43777 -8.17724,5.3413 -18.98776,13.12451 -32.51824,18.45177 -12.52365,4.93295 -28.95213,9.7922 -42.86408,3.98988 -9.13322,-3.80735 -14.41133,-11.37762 -17.24574,-22.44165 -11.80234,7.97159 -27.17312,18.60271 -45.82218,22.9401 -27.141892,6.31246 -54.704562,-2.63145 -65.528942,-22.9401 -13.217241,10.29648 -40.068979,32.04314 -64.051634,22.44165 -8.733257,-3.49494 -13.360556,-11.56365 -16.752135,-21.44477 -16.823806,11.2419 -44.540209,35.83296 -71.441639,18.95139 -5.49541,-3.44816 -11.59193,-9.59446 -15.27365,-15.95838 -8.83153,-15.26573 -4.39843,-39.53268 0.49358,-55.35769 11.03708,-35.71127 24.261235,-62.61319 37.937361,-95.25424 3.160389,-7.54453 6.253738,-15.26104 9.360948,-23.93817 2.663319,-7.43686 7.755318,-18.8496 7.391188,-25.434669 -0.55255,-9.951318 -11.167707,-14.672487 -20.692795,-11.470047 -6.872158,2.310849 -11.480972,11.257097 -13.796352,18.451766 -2.64945,8.23368 -2.61477,20.07699 -11.82428,20.4479 -14.09922,0.5663 -9.84414,-18.77004 -6.89759,-27.928059 7.28252,-22.635884 28.141763,-40.09428 60.602215,-36.406261 20.736725,2.356489 35.935251,19.622985 37.93852,40.39615 1.69002,17.53094 -5.615638,34.05564 -11.333007,47.87634 -11.959537,28.91324 -23.978024,53.61079 -34.489151,83.78419 -6.098829,17.50636 -15.782286,53.20594 10.839417,51.36661 9.492728,-0.6564 15.217026,-10.57614 19.709075,-18.45295 13.473837,-23.62811 23.357274,-55.62446 33.0106812,-81.28962 10.1631818,-27.02245 19.2062378,-54.90136 30.0548978,-84.28263 3.86552,-10.467317 6.59706,-20.621055 13.795209,-23.938154 4.659671,-2.147049 15.183521,-2.563589 22.172431,-2.493389 6.51151,0.0655 18.84674,0.86233 20.69396,4.986768 1.78017,3.977019 -5.7717,22.045015 -7.391201,26.929995 -14.709559,44.3498 -30.566979,84.70735 -47.29949,127.67063 -3.005489,7.71769 -5.274639,14.88077 -9.853389,24.93622 -2.16395,4.75279 -9.6996354,22.33988 0.49244,24.4378 8.81996,1.81477 19.93797,-11.30041 22.17244,-17.4549 2.20211,-6.07024 2.52462,-13.68029 3.94066,-19.94944 6.805139,-30.10788 22.28109,-56.15332 46.807051,-70.31802 11.576911,-6.68687 35.202391,-12.66 50.256431,-4.98677 9.11704,4.64629 18.52193,15.41548 16.75215,32.91484 -0.78374,7.7364 -7.07793,19.55982 -16.75215,23.43972 -12.02427,4.82064 -27.65398,0.7032 -29.07002,-10.47317 -1.51662,-11.96616 10.28571,-21.30204 21.67883,-15.45995 -0.55256,-19.07775 -22.39899,-8.83158 -30.05492,-1.49533 -11.596571,11.11202 -31.496382,46.04871 -19.707922,71.81335 11.479811,25.09301 55.412002,6.963 70.950392,-5.48523 19.44437,-63.66975 37.75821,-127.94676 71.93412,-178.539967 11.49831,-17.023125 27.42971,-32.614111 50.25642,-34.411321 20.44426,-1.609999 40.0285,5.532019 40.89547,24.936214 0.80917,18.166275 -11.83354,39.653174 -18.72305,52.364664 -22.3724,41.27255 -53.6873,77.49513 -86.22405,109.21886 -3.40083,3.31593 -7.4409,5.60105 -8.86735,8.47705 -3.1604,6.36277 -8.17031,31.56576 -0.49475,35.4094 6.79819,3.40252 17.62951,-0.68214 23.6509,-3.49028 7.82467,-3.65058 12.77796,-8.09094 16.75098,-12.46811 1.23919,-24.35237 9.17252,-48.38883 22.17243,-66.82773 12.04623,-17.08517 33.09276,-31.81148 55.18312,-33.41447 17.04575,-1.23557 29.63759,4.90371 33.99555,17.95451 3.57191,-4.49184 6.14623,-8.84912 11.82546,-12.4681 5.47461,-3.49029 16.88507,-8.19859 22.66255,-2.99301 7.37847,6.64709 -0.30633,23.59534 -2.95578,30.42146 -7.77613,20.02901 -14.34775,35.37897 -22.17243,56.35338 -2.18939,5.869 -11.01397,26.63866 0,29.42456 3.94065,0.99806 11.08562,-4.5714 14.28763,-6.48328 13.95011,-8.32728 21.76553,-15.82149 26.85174,-14.21383 7.88479,2.49339 5.91504,9.97355 4.43656,13.46618 z M 240.30507,179.29945 c 18.40747,-23.79309 35.38271,-51.79136 49.27154,-79.794299 2.72113,-5.484049 6.05607,-16.011036 3.44823,-19.948265 -5.23534,-7.903718 -16.07822,5.585838 -19.21549,9.974717 -17.71968,24.791127 -33.08929,52.106087 -44.34254,81.290787 -4.73018,12.26686 -9.94702,24.72796 -12.81032,36.40629 9.45689,-7.88033 16.16028,-18.24936 23.64858,-27.92923 z m 62.57432,27.42844 c -11.39082,13.1444 -20.82691,31.85009 -22.17244,50.86818 -0.98371,13.89792 2.54773,27.53257 12.31673,28.92612 9.92044,1.41576 15.45168,-7.35146 19.70907,-14.4619 9.15174,-15.28561 14.02987,-30.35124 21.18641,-47.37673 2.609,-6.21065 9.28695,-18.50559 5.91157,-26.93117 -1.9871,-4.95985 -8.40844,-6.6389 -12.31789,-6.48327 -10.98854,0.43643 -18.72305,8.63852 -24.63345,15.45877 z"
     id="path5"
     style="fill:#536895;fill-opacity:1;fill-rule:evenodd" /><path
     d="m 216.65649,207.2275 c 2.8633,-11.67715 8.08014,-24.13825 12.81032,-36.40628 11.25325,-29.18353 26.62286,-56.49965 44.34254,-81.290787 3.13727,-4.387709 13.98015,-17.878445 19.21549,-9.974717 2.60784,3.937229 -0.72825,14.465386 -3.44823,19.948265 -13.88883,28.004109 -30.86407,56.001219 -49.27154,79.794299 -7.4883,9.68104 -14.19169,20.05007 -23.64858,27.92922 z M 287.60571,82.549885 c -8.47317,6.573368 -13.8426,16.281316 -20.20152,25.933105 -14.95463,22.69908 -27.79038,48.58539 -37.44611,75.30595 18.89182,-21.28097 33.15405,-46.33654 46.80706,-72.31412 4.55216,-8.66193 11.50061,-17.328518 11.82429,-28.426495 -0.10751,-0.38963 -0.41152,-0.58035 -0.98372,-0.49844 z"
     id="path7"
     style="fill:#ffb300;fill-opacity:1;fill-rule:evenodd" /><path
     d="m 327.51399,191.26912 c 3.90945,-0.15563 10.33196,1.52342 12.31789,6.48327 3.3754,8.42558 -3.30257,20.72052 -5.91157,26.93117 -7.15653,17.02549 -12.03467,32.09112 -21.18639,47.37673 -4.25739,7.11044 -9.78865,15.87766 -19.70908,14.4619 -9.769,-1.39237 -13.30045,-15.0282 -12.31674,-28.92612 1.34554,-19.01809 10.78162,-37.7226 22.17243,-50.86818 5.90926,-6.82025 13.64377,-15.02234 24.63346,-15.45877 z m -8.37492,7.48015 c -15.24013,8.62098 -32.73094,38.87861 -33.50312,61.34135 -0.35026,10.13385 2.49572,21.1628 9.36096,21.44479 5.80636,0.23869 11.27983,-7.89086 14.28764,-12.96656 7.72872,-13.03676 11.86474,-25.20183 17.24573,-38.40006 4.30593,-10.5621 9.56438,-18.47401 8.37606,-30.92107 -4.06204,-4.79372 -11.22088,-3.07139 -15.76727,-0.49845 z"
     id="path9"
     style="fill:#ffb300;fill-opacity:1;fill-rule:evenodd" /><path
     d="m 411.27355,328.91214 c 0.41844,-0.0913 0.4647,0.19538 0.49358,0.49961"
     id="path11"
     style="fill:#ffffff;fill-rule:evenodd" /></svg>