<?xml version="1.0" encoding="UTF-8"?>
<!-- Generator: Adobe Illustrator 14.0.0, SVG Export Plug-In . SVG Version: 6.00 Build 43363)  -->
<!DOCTYPE svg PUBLIC "-//W3C//DTD SVG 1.1//EN" "http://www.w3.org/Graphics/SVG/1.1/DTD/svg11.dtd">
<svg version="1.1" id="Layer_1" xmlns="http://www.w3.org/2000/svg" xmlns:xlink="http://www.w3.org/1999/xlink" x="0px" y="0px" width="460.819px" height="367.57px" viewBox="0 0 460.819 367.57" enable-background="new 0 0 460.819 367.57" xml:space="preserve">
<rect x="165.683" y="298.858" fill="none" width="13.592" height="48.77"/>
<rect x="100.962" y="298.858" fill="none" width="13.944" height="18.916"/>
<polygon fill="none" points="295.509,326.83 292.067,312.204 288.625,326.812 "/>
<path fill="#742120" d="M3.667,307.942h19.933v-9.083h3.576v48.77h-5.715v19.942H52.75v-19.942h-5.656v-48.77h3.635v9.083h19.903  v-29.026H3.667V307.942z M5.547,280.796h63.205v25.266H52.609v-9.083h-7.395v52.529h5.656v16.182H23.341v-16.182h5.715v-52.529  H21.72v9.083H5.547V280.796z"/>
<path fill="#742120" d="M125.158,335.922l9.637-7.871v-39.464l-11.721-9.671H75.358v19.917h5.67v48.795h-5.67v19.942h31.406v-19.942  h-5.685v-9.912h3.046l18.25,29.854h18.709v-19.975h-8.9L125.158,335.922z M139.205,365.69h-15.775l-18.25-29.854H99.2v13.671h5.685  v16.182H77.238v-16.182h5.671v-52.556h-5.671v-16.156h45.16l10.517,8.677v37.686l-10.208,8.337l8.415,13.979h8.083V365.69z"/>
<path fill="#742120" d="M116.786,296.979H99.082v22.676h17.704V296.979z M114.906,317.774h-13.944v-18.916h13.944V317.774z"/>
<path fill="#742120" d="M181.154,296.979h-17.352v52.529h17.352V296.979z M179.274,347.628h-13.592v-48.77h13.592V347.628z"/>
<path fill="#742120" d="M157.486,278.916l-11.721,9.671v69.312l11.721,9.671h30.015l11.721-9.671v-69.312l-11.721-9.671H157.486z   M197.342,357.013l-10.517,8.677h-28.663l-10.517-8.677v-67.54l10.517-8.677h28.663l10.517,8.677V357.013z"/>
<path fill="#742120" d="M259.359,278.916h-31.348v19.942h5.715v48.77h-9.803v-8.908h-19.976v19.179l11.721,9.671h26.254  l11.722-9.671v-59.041h5.715V278.916z M257.479,296.979h-5.715v60.034l-10.517,8.677h-24.903l-10.517-8.677v-16.412h16.216v8.907  h13.563v-52.529h-5.715v-16.183h27.588V296.979z"/>
<path fill="#742120" d="M303.574,278.916h-22.958l-16.208,68.699l-6.089-0.029v19.984h30.673v-19.916h-5.234l0.416-1.862h15.807  l0.439,1.862h-5.18v19.916h30.627v-19.982l-6.139,0.024L303.574,278.916z M323.987,365.69H297.12v-16.156h5.676l-1.328-5.622h-18.8  l-1.257,5.622h5.701v16.156h-26.913v-16.215l5.696,0.027l16.21-68.707h19.98l16.156,68.702l5.746-0.022V365.69z"/>
<path fill="#742120" d="M297.884,328.716l-5.816-24.714l-5.816,24.683L297.884,328.716z M295.509,326.83l-6.884-0.018l3.442-14.608  L295.509,326.83z"/>
<path fill="#742120" d="M414.269,278.916l-13.125,13.125v28.132l13.077,13.077h23.015v14.384H421.06v-10.291h-19.917v17.16  l13.047,13.047h30.032l12.93-12.929v-28.233l-13.067-13.054h-22.966v-14.501h16.117v10.37h19.917v-17.298l-12.989-12.988H414.269z   M455.272,307.322h-16.156v-10.37h-19.877v18.262h24.068l11.965,11.953v26.675l-11.828,11.828H414.97l-11.946-11.946v-14.501h16.157  v10.291h19.936v-18.144h-24.117l-11.976-11.976V292.82l12.024-12.024h28.337l11.887,11.887V307.322z"/>
<path fill="#742120" d="M365.346,298.858h5.7v17.539l-15.257-37.481h-25.235v19.942h5.7v48.77h-5.7v19.942h31.333v-19.942h-5.712  v-17.614l15.208,37.556h19.597v-68.711h3.604h1.88v-1.88v-18.063h-31.117V298.858z M367.226,280.796h27.357v16.183h-5.484v68.711  h-16.45l-18.355-45.327v29.145h5.711v16.182h-27.572v-16.182h5.699v-52.529h-5.699v-16.183h22.091l18.401,45.207v-29.024h-5.7  V280.796z"/>
<polygon fill="#742120" points="374.806,335.64 353.26,282.676 334.313,282.676 334.313,295.098 340.013,295.098 340.013,351.388   334.313,351.388 334.313,363.81 358.126,363.81 358.126,351.388 352.414,351.388 352.414,310.647 373.916,363.81 387.219,363.81   387.219,295.098 392.703,295.098 392.703,282.676 369.106,282.676 369.106,295.098 374.806,295.098 "/>
<polygon fill="#742120" points="30.937,351.388 25.222,351.388 25.222,363.81 48.99,363.81 48.99,351.388 43.334,351.388   43.334,295.098 54.489,295.098 54.489,304.182 66.872,304.182 66.872,282.676 7.427,282.676 7.427,304.182 19.841,304.182   19.841,295.098 30.937,295.098 "/>
<path fill="#742120" d="M120.257,335.07l10.778-8.803v-35.908l-9.312-7.683H79.118v12.396h5.671v56.315h-5.671v12.422h23.887  v-12.422H97.32v-17.431h8.914l18.25,29.854h12.841v-12.455h-7.265L120.257,335.07z M118.666,321.534H97.202v-26.436h21.464V321.534z  "/>
<path fill="#742120" d="M158.838,282.676l-9.313,7.683v65.767l9.313,7.684h27.312l9.312-7.684v-65.767l-9.312-7.683H158.838z   M183.035,351.388h-21.112v-56.29h21.112V351.388z"/>
<polygon fill="#742120" points="237.486,351.388 220.164,351.388 220.164,342.48 207.707,342.48 207.707,356.126 217.019,363.81   240.572,363.81 249.884,356.126 249.884,295.098 255.599,295.098 255.599,282.676 231.771,282.676 231.771,295.098 237.486,295.098   "/>
<polygon fill="#742120" points="415.827,282.676 404.904,293.599 404.904,318.616 415.778,329.491 440.996,329.491 440.996,351.394   417.3,351.394 417.3,341.104 404.904,341.104 404.904,352.946 415.748,363.791 442.665,363.791 453.392,353.063 453.392,327.947   442.528,317.094 417.359,317.094 417.359,295.072 440.996,295.072 440.996,305.442 453.392,305.442 453.392,293.462   442.606,282.676 "/>
<path fill="#742120" d="M300.596,282.676h-17.003l-16.211,68.713l-5.303-0.025v12.446h23.153v-12.396h-6.167l2.098-9.382h21.793  l2.216,9.382H299v12.396h23.107v-12.448l-5.354,0.021L300.596,282.676z M283.879,330.559l8.173-34.782l8.208,34.826L283.879,330.559  z"/>
<path fill="#742120" d="M460.819,124.381V82.366l-20.935-38.128l-79.538-28.915L327.949,35.93v147.696l20.694,38.085l79.539,29.149  l32.637-20.758v-39.862l-47.387-17.173v24.243l-38.096-15.234V68.738l38.096,13.865v24.53L460.819,124.381z M370.876,62.368v122.726  l47.016,18.802v-24.47l38.467,13.94v34.286l-28.711,18.262l-75.889-27.812l-19.35-35.61V38.378l28.479-18.113l75.896,27.591  l19.576,35.654v34.501l-38.467-14.001V79.48L370.876,62.368z"/>
<path fill="#742120" d="M13.659,229.783l32.8,20.862l79.057-28.856l21.013-38.115V58.028l12.916-4.701V5.838L85.297,32.169v48.145  l13.845-5.039v106.802l-38.096,15.283V89.141l13.38-4.87V36.312L0,63.4v48.099l13.659-5.287V229.783z M4.46,104.99V66.523  l65.506-23.842v38.467l-13.38,4.87v117.938l47.016-18.862V68.906l-13.844,5.039V35.318l65.227-23.164v38.049l-12.916,4.701v127.621  l-19.651,35.646l-75.421,27.529l-28.878-18.367V99.704L4.46,104.99z"/>
<path fill="#742120" d="M314.615,179.596V112.62l-31.109-31.109h-65.524V47.387h49.246v24.461h47.387V30.813L283.802,0h-82.07  l-31.138,31.138v66.739l31.022,31.022h65.611v33.983h-49.246v-24.274h-47.388v40.709l30.952,30.952h82.395L314.615,179.596z   M203.394,205.81l-28.339-28.339v-34.401h38.467v24.273h58.166v-42.904h-68.224l-28.41-28.41V32.985L203.58,4.459h78.375l28.2,28.2  v34.729h-38.467V42.927h-58.166v43.044h68.137l28.496,28.497v63.281l-28.061,28.061H203.394z"/>
<polygon fill="#742120" points="422.352,100.887 451.899,111.642 451.899,84.654 433.682,51.474 361.428,25.207 336.869,40.827   336.869,181.358 354.874,214.494 427.114,240.968 451.899,225.203 451.899,196.494 422.352,185.786 422.352,210.482   366.417,188.113 366.417,55.999 422.352,76.357 "/>
<polygon fill="#742120" points="22.579,224.884 47.534,240.757 119.318,214.555 137.609,181.377 137.609,51.782 150.525,47.081   150.525,18.471 94.217,38.467 94.217,67.575 108.062,62.536 108.062,188.11 52.126,210.55 52.126,82.895 65.506,78.025   65.506,49.05 8.92,69.646 8.92,98.481 22.579,93.194 "/>
<polygon fill="#742120" points="209.062,90.431 209.062,38.467 276.148,38.467 276.148,62.928 305.695,62.928 305.695,34.507   280.107,8.92 205.427,8.92 179.515,34.833 179.515,94.182 205.312,119.979 276.148,119.979 276.148,171.802 209.062,171.802   209.062,147.529 179.515,147.529 179.515,175.623 205.242,201.35 280.247,201.35 305.695,175.901 305.695,116.315 279.812,90.431   "/>
</svg>