<?xml version="1.0" encoding="UTF-8" standalone="no"?>
<!-- Created with Inkscape (http://www.inkscape.org/) -->

<svg
   xmlns:dc="http://purl.org/dc/elements/1.1/"
   xmlns:cc="http://creativecommons.org/ns#"
   xmlns:rdf="http://www.w3.org/1999/02/22-rdf-syntax-ns#"
   xmlns:svg="http://www.w3.org/2000/svg"
   xmlns="http://www.w3.org/2000/svg"
   version="1.1"
   width="280"
   height="200"
   viewBox="0 0 280 200"
   id="Layer_1"
   xml:space="preserve"><metadata
     id="metadata3188"><rdf:RDF><cc:Work
         rdf:about=""><dc:format>image/svg+xml</dc:format><dc:type
           rdf:resource="http://purl.org/dc/dcmitype/StillImage" /><dc:title></dc:title></cc:Work></rdf:RDF></metadata><defs
     id="defs3186" /><rect
     width="7.3955779"
     height="26.536371"
     x="104.15021"
     y="162.6124"
     id="rect3132"
     style="fill:none" /><rect
     width="7.5871058"
     height="10.292434"
     x="68.934692"
     y="162.6124"
     id="rect3134"
     style="fill:none" /><polygon
     points="295.509,326.83 292.067,312.204 288.625,326.812 "
     transform="matrix(0.54411258,0,0,0.54411258,14,-1.8459903e-6)"
     id="polygon3136"
     style="fill:none" /><path
     d="m 15.99526,167.55511 h 10.8458 v -4.94217 h 1.94575 v 26.53637 H 25.6772 V 200 h 17.02474 v -10.85069 h -3.0775 v -26.53637 h 1.97785 v 4.94217 H 52.43176 V 151.7617 h -36.4365 v 15.79341 z m 1.02294,-14.77048 h 34.39063 v 13.74755 h -8.78361 v -4.94217 h -4.02371 v 28.58169 h 3.0775 v 8.80483 H 26.70014 v -8.80483 h 3.1096 v -28.58169 h -3.99161 v 4.94217 H 17.0182 v -13.74755 z"
     id="path3138"
     style="fill:#742120" /><path
     d="m 82.10005,182.77938 5.24361,-4.28271 V 157.02382 L 80.96611,151.7617 H 55.00324 v 10.83709 h 3.08512 v 26.54998 h -3.08512 v 10.85069 h 17.0884 v -10.85069 h -3.09328 v -5.39325 h 1.65737 l 9.93005,16.24394 h 10.1798 v -10.86865 h -4.8426 l -3.82293,-6.35143 z m 7.64314,16.19715 h -8.58337 l -9.93006,-16.24394 h -3.25379 v 7.43856 h 3.09328 v 8.80483 H 56.02617 v -8.80483 h 3.08566 v -28.59638 h -3.08566 v -8.79068 h 24.57212 l 5.72244,4.72127 v 20.50542 l -5.5543,4.53627 4.5787,7.60615 h 4.39806 v 8.82333 z"
     id="path3140"
     style="fill:#742120" /><path
     d="m 77.54473,161.59001 h -9.63296 v 12.3383 h 9.63296 v -12.3383 z M 76.5218,172.90483 H 68.9347 V 162.6124 h 7.5871 v 10.29243 z"
     id="path3142"
     style="fill:#742120" /><path
     d="m 112.56817,161.59001 h -9.44144 v 28.58169 h 9.44144 v -28.58169 z m -1.02293,27.55876 h -7.39558 V 162.6124 h 7.39558 v 26.53637 z"
     id="path3144"
     style="fill:#742120" /><path
     d="m 99.69012,151.7617 -6.37755,5.26212 v 37.71353 l 6.37755,5.26211 h 16.33154 l 6.37754,-5.26211 v -37.71353 l -6.37754,-5.26212 H 99.69012 z m 21.68615,42.49356 -5.72243,4.72127 h -15.5959 L 94.3355,194.25526 V 157.5059 l 5.72244,-4.72127 h 15.5959 l 5.72243,4.72127 v 36.74936 z"
     id="path3146"
     style="fill:#742120" /><path
     d="m 155.1205,151.7617 h -17.05684 v 10.8507 h 3.1096 v 26.53637 h -5.33394 v -4.84696 h -10.86919 v 10.43554 l 6.37754,5.26211 h 14.28514 l 6.37808,-5.26211 V 162.6124 h 3.10961 v -10.8507 z m -1.02293,9.82831 h -3.10961 v 32.66525 l -5.72243,4.72127 h -13.55004 l -5.72243,-4.72127 v -8.92997 h 8.82333 v 4.84641 h 7.3798 v -28.58169 h -3.1096 v -8.80538 h 15.01098 v 8.80538 z"
     id="path3148"
     style="fill:#742120" /><path
     d="M 179.17843,151.7617 H 166.6867 l -8.81898,37.37999 -3.3131,-0.0158 v 10.87355 h 16.68956 v -10.83653 h -2.84788 l 0.22635,-1.01313 h 8.60079 l 0.23886,1.01313 h -2.8185 v 10.83655 h 16.66454 V 189.127 l -3.34031,0.0131 -8.7896,-37.37836 z m 11.10697,47.21483 h -14.61867 v -8.79069 h 3.08838 l -0.72258,-3.059 h -10.22931 l -0.68395,3.059 h 3.10198 v 8.79069 h -14.6437 v -8.82279 l 3.09927,0.0147 8.82006,-37.38434 h 10.87137 l 8.79068,37.38162 3.12647,-0.012 v 8.82279 z"
     id="path3150"
     style="fill:#742120" /><path
     d="m 176.08243,178.85851 -3.16455,-13.4472 -3.16456,13.43033 6.32911,0.0169 z m -1.29226,-1.0262 -3.74567,-0.01 1.87283,-7.9484 1.87284,7.95819 z"
     id="path3152"
     style="fill:#742120" /><path
     d="m 239.40898,151.7617 -7.14148,7.14148 v 15.30698 l 7.11536,7.11536 h 12.52275 v 7.82651 h -8.80157 v -5.59946 h -10.83709 v 9.33697 l 7.09904,7.09904 h 16.34079 l 7.03538,-7.03483 v -15.36194 l -7.10992,-7.10284 h -12.49609 v -7.89018 h 8.76946 v 5.64245 h 10.83709 v -9.41206 l -7.06748,-7.06693 h -16.26624 z m 22.31024,15.45606 h -8.79068 v -5.64244 h -10.81532 v 9.93658 h 13.0957 l 6.5103,6.50378 v 14.5142 l -6.43576,6.43577 H 239.7904 l -6.49997,-6.49997 v -7.89018 h 8.79123 v 5.59946 h 10.84743 v -9.87238 h -13.12237 l -6.51629,-6.51629 v -14.45925 l 6.54241,-6.54241 h 15.41852 l 6.46786,6.46787 v 7.96526 z"
     id="path3154"
     style="fill:#742120" /><path
     d="m 212.78936,162.6124 h 3.10144 v 9.54319 l -8.30153,-20.39389 h -13.73068 v 10.8507 h 3.10144 v 26.53637 h -3.10144 v 10.85069 h 17.04868 v -10.85069 h -3.10797 v -9.584 l 8.27486,20.43469 h 10.66298 v -37.38652 h 1.96098 1.02293 v -1.02293 -9.82831 H 212.7899 v 10.8507 z m 1.02293,-9.82777 h 14.88529 v 8.80538 h -2.98392 v 37.38652 h -8.95065 l -9.98719,-24.66299 v 15.85816 h 3.10743 v 8.80483 h -15.00227 v -8.80483 h 3.1009 v -28.58169 h -3.1009 v -8.80538 h 12.01999 l 10.01222,24.5977 v -15.79232 h -3.10145 v -8.80538 z"
     id="path3156"
     style="fill:#742120" /><polygon
     points="340.013,295.098 340.013,351.388 334.313,351.388 334.313,363.81 358.126,363.81 358.126,351.388 352.414,351.388 352.414,310.647 373.916,363.81 387.219,363.81 387.219,295.098 392.703,295.098 392.703,282.676 369.106,282.676 369.106,295.098 374.806,295.098 374.806,335.64 353.26,282.676 334.313,282.676 334.313,295.098 "
     transform="matrix(0.54411258,0,0,0.54411258,14,-1.8459903e-6)"
     id="polygon3158"
     style="fill:#742120" /><polygon
     points="54.489,304.182 66.872,304.182 66.872,282.676 7.427,282.676 7.427,304.182 19.841,304.182 19.841,295.098 30.937,295.098 30.937,351.388 25.222,351.388 25.222,363.81 48.99,363.81 48.99,351.388 43.334,351.388 43.334,295.098 54.489,295.098 "
     transform="matrix(0.54411258,0,0,0.54411258,14,-1.8459903e-6)"
     id="polygon3160"
     style="fill:#742120" /><path
     d="m 79.43335,182.3158 5.86444,-4.78982 v -19.538 l -5.06677,-4.18041 H 57.0491 v 6.74482 h 3.08566 v 30.6417 H 57.0491 v 6.75896 h 12.99722 v -6.75896 h -3.09328 v -9.48443 h 4.85022 l 9.93005,16.24394 h 6.98695 v -6.77693 h -3.95297 l -5.33394,-8.86087 z m -0.86568,-7.36511 H 66.88883 v -14.38416 h 11.67884 v 14.38416 z"
     id="path3162"
     style="fill:#742120" /><path
     d="m 100.42576,153.80757 -5.06732,4.18041 v 35.78465 l 5.06732,4.18097 h 14.8608 l 5.06678,-4.18097 v -35.78465 l -5.06678,-4.18041 h -14.8608 z m 13.16589,37.38706 h -11.48731 v -30.6281 h 11.48731 v 30.6281 z"
     id="path3164"
     style="fill:#742120" /><polygon
     points="255.599,282.676 231.771,282.676 231.771,295.098 237.486,295.098 237.486,351.388 220.164,351.388 220.164,342.48 207.707,342.48 207.707,356.126 217.019,363.81 240.572,363.81 249.884,356.126 249.884,295.098 255.599,295.098 "
     transform="matrix(0.54411258,0,0,0.54411258,14,-1.8459903e-6)"
     id="polygon3166"
     style="fill:#742120" /><polygon
     points="404.904,318.616 415.778,329.491 440.996,329.491 440.996,351.394 417.3,351.394 417.3,341.104 404.904,341.104 404.904,352.946 415.748,363.791 442.665,363.791 453.392,353.063 453.392,327.947 442.528,317.094 417.359,317.094 417.359,295.072 440.996,295.072 440.996,305.442 453.392,305.442 453.392,293.462 442.606,282.676 415.827,282.676 404.904,293.599 "
     transform="matrix(0.54411258,0,0,0.54411258,14,-1.8459903e-6)"
     id="polygon3168"
     style="fill:#742120" /><path
     d="m 177.55807,153.80757 h -9.25155 l -8.82061,37.3876 -2.88543,-0.0136 v 6.77203 h 12.59784 v -6.74482 h -3.35554 l 1.14155,-5.10487 h 11.85784 l 1.20576,5.10487 h -3.35827 v 6.74482 h 12.57281 v -6.77312 l -2.91318,0.0114 -8.79122,-37.38434 z m -9.09593,26.05374 4.44703,-18.92533 4.46608,18.94927 -8.91311,-0.0239 z"
     id="path3170"
     style="fill:#742120" /><path
     d="M 264.73742,67.677265 V 44.816375 L 253.34642,24.070455 210.06879,8.3374352 192.44118,19.549965 v 80.36325 l 11.25986,20.722535 43.27817,15.86034 17.75821,-11.29469 v -21.68942 l -25.78387,-9.344045 v 13.190925 l -20.72851,-8.289015 v -61.66864 l 20.72851,7.54412 v 13.34709 l 25.78387,9.38485 z M 215.7983,33.935215 v 66.776765 l 25.582,10.2304 V 97.627945 l 20.93037,7.584935 v 18.65544 l -15.62201,9.93659 -41.29216,-15.13286 -10.52858,-19.375855 v -78.41424 l 15.49578,-9.855516 41.29597,15.012606 10.65155,19.39979 v 18.77243 l -20.93038,-7.61812 v -13.34708 l -25.58254,-9.31085 z"
     id="path3172"
     style="fill:#742120" /><path
     d="M 21.43204,125.02783 39.27893,136.3791 82.29484,120.67819 93.72828,99.939335 v -68.36557 l 7.02775,-2.55788 V 3.1765272 L 60.41117,17.503555 v 26.1963 l 7.53324,-2.74178 v 58.11231 L 47.2159,107.38606 V 48.502735 l 7.28023,-2.64983 V 19.757815 L 14,34.496735 v 26.17127 l 7.43204,-2.87672 V 125.02783 z M 16.42675,57.126375 v -20.93038 l 35.64263,-12.97273 v 20.93038 l -7.28022,2.64983 V 110.97503 L 70.37115,100.71198 V 37.492615 l -7.53269,2.74179 V 19.216965 L 98.32929,6.6131422 V 27.316085 l -7.02776,2.55787 v 69.44019 L 80.60918,118.70959 39.57166,133.68846 23.85878,123.69475 V 54.250195 l -7.43203,2.87618 z"
     id="path3174"
     style="fill:#742120" /><path
     d="m 185.18598,97.720445 v -36.44249 l -16.9268,-16.9268 h -35.65243 v -18.56729 h 26.79537 v 13.30953 h 25.78386 V 16.765735 L 168.42024,-1.8459903e-6 H 123.76492 L 106.82234,16.942575 v 36.31353 l 16.87946,16.87946 h 35.69977 v 18.49058 H 132.60621 V 75.418355 H 106.8218 v 22.15028 l 16.84137,16.841375 h 44.83216 L 185.18598,97.720445 z M 124.66924,111.98381 109.24963,96.564205 v -18.71802 h 20.93038 v 13.20725 h 31.64885 V 67.708825 H 124.70732 L 109.24909,52.250585 V 17.947555 L 124.77044,2.4261962 h 42.64482 l 15.34398,15.3439788 v 18.89648 h -20.93038 v -13.30954 h -31.64885 v 23.42079 h 37.0742 l 15.50503,15.50557 v 34.43199 L 167.4909,111.98381 h -42.82166 z"
     id="path3176"
     style="fill:#742120" /><polygon
     points="427.114,240.968 451.899,225.203 451.899,196.494 422.352,185.786 422.352,210.482 366.417,188.113 366.417,55.999 422.352,76.357 422.352,100.887 451.899,111.642 451.899,84.654 433.682,51.474 361.428,25.207 336.869,40.827 336.869,181.358 354.874,214.494 "
     transform="matrix(0.54411258,0,0,0.54411258,14,-1.8459903e-6)"
     id="polygon3178"
     style="fill:#742120" /><polygon
     points="150.525,18.471 94.217,38.467 94.217,67.575 108.062,62.536 108.062,188.11 52.126,210.55 52.126,82.895 65.506,78.025 65.506,49.05 8.92,69.646 8.92,98.481 22.579,93.194 22.579,224.884 47.534,240.757 119.318,214.555 137.609,181.377 137.609,51.782 150.525,47.081 "
     transform="matrix(0.54411258,0,0,0.54411258,14,-1.8459903e-6)"
     id="polygon3180"
     style="fill:#742120" /><polygon
     points="276.148,38.467 276.148,62.928 305.695,62.928 305.695,34.507 280.107,8.92 205.427,8.92 179.515,34.833 179.515,94.182 205.312,119.979 276.148,119.979 276.148,171.802 209.062,171.802 209.062,147.529 179.515,147.529 179.515,175.623 205.242,201.35 280.247,201.35 305.695,175.901 305.695,116.315 279.812,90.431 209.062,90.431 209.062,38.467 "
     transform="matrix(0.54411258,0,0,0.54411258,14,-1.8459903e-6)"
     id="polygon3182"
     style="fill:#742120" /></svg>