<?xml version="1.0" encoding="UTF-8" standalone="no"?>
<!-- Created with Inkscape (http://www.inkscape.org/) -->

<svg
   xmlns:dc="http://purl.org/dc/elements/1.1/"
   xmlns:cc="http://creativecommons.org/ns#"
   xmlns:rdf="http://www.w3.org/1999/02/22-rdf-syntax-ns#"
   xmlns:svg="http://www.w3.org/2000/svg"
   xmlns="http://www.w3.org/2000/svg"
   version="1.1"
   width="280"
   height="200"
   id="svg3068">
  <defs
     id="defs3070">
    <linearGradient
       id="linearGradient4475">
      <stop
         id="stop4477"
         style="stop-color:#e2d2a3;stop-opacity:1"
         offset="0" />
    </linearGradient>
  </defs>
  <metadata
     id="metadata3073">
    <rdf:RDF>
      <cc:Work
         rdf:about="">
        <dc:format>image/svg+xml</dc:format>
        <dc:type
           rdf:resource="http://purl.org/dc/dcmitype/StillImage" />
        <dc:title></dc:title>
      </cc:Work>
    </rdf:RDF>
  </metadata>
  <g
     transform="translate(-185.71875,-343.09375)"
     id="layer1">
    <path
       d="m 186.10334,346.58319 108.44019,0.15469 0,45.94399 -21.81179,-0.15469 14.85058,58.93825 28.15423,-104.57286 43.3142,0 25.98852,105.19163 16.24282,-59.09294 -20.11016,0 -0.46408,-46.25338 84.46269,-0.15469 0.1547,45.94399 -22.12119,0.15469 -38.67339,146.03073 -61.41335,0 -17.78976,-70.07618 -18.56322,70.07618 -62.03213,-0.15469 -36.19829,-145.56665 -22.27588,-0.15469 z"
       id="path2985"
       style="fill:#e2d2a3;fill-opacity:1;stroke:#e2d2a3;stroke-width:0.77810866px;stroke-linecap:butt;stroke-linejoin:miter;stroke-opacity:1;display:inline" />
    <path
       d="m 263.60642,385.69123 23.09248,93.36672 34.28727,-125.6604 32.16591,-0.10225 31.39914,125.43038 25.25221,-93.20059 -22.42796,0 0,-32.06365 70.43689,-0.1096 0.003,32.33939 -20.60012,-0.16614 -38.48979,146.35965 -50.61053,-0.10959 -23.14553,-90.92778 -24.25891,91.09391 c 0,0 -51.39162,0.27922 -50.39482,-0.0531 0.9968,-0.33226 -36.88152,-146.36313 -36.88152,-146.36313 l -20.93275,0.16613 0,-32.22979 94.70866,-0.16613 -0.51127,32.06366 z"
       id="path2983"
       style="fill:none;stroke:#3b3e72;stroke-width:0.77810866px;stroke-linecap:butt;stroke-linejoin:miter;stroke-opacity:1;display:inline" />
    <path
       d="m 255.84856,531.10257 -5.03436,-0.29891 -1.23707,-5.59361 c -1.59246,-7.20062 -14.88399,-59.85311 -26.44372,-104.75303 l -9.03339,-35.08718 -10.55158,-0.13744 -10.55158,-0.13745 0,-15.49924 0,-15.49923 46.52865,0 47.46228,0 -0.93362,15.2553 0,15.25529 -3.6867,0.0689 c -2.02768,0.0379 -7.24582,0.2095 -11.59586,0.38139 l -7.90916,0.31251 11.60324,47.03716 c 6.38178,25.87044 11.74097,47.38041 11.90932,47.79993 0.27206,0.67802 0.33858,0.67802 0.59858,0 0.16088,-0.41952 7.99031,-28.90879 17.39874,-63.30948 l 17.10624,-62.83996 15.57363,0.1588 15.57362,-0.13444 0.50641,1.91423 c 0.27853,1.05282 7.27089,29.03052 15.53856,62.17265 8.26768,33.14213 15.23343,60.71608 15.47944,61.27544 0.36167,0.82234 0.50511,0.87101 0.74929,0.25425 0.1661,-0.41952 5.88667,-21.38643 12.71237,-46.59313 6.82571,-25.20671 12.56459,-46.31623 12.75306,-46.91004 0.34223,-1.07828 0.32829,-1.07967 -10.87881,-1.07967 l -11.22149,0 0,-15.50955 0,-15.50955 34.57868,0 34.57866,0 0,15.50955 0,15.50955 -10.39017,0 c -9.45732,0 -10.41355,0.0799 -10.65034,0.88989 -0.14308,0.48945 -8.77694,33.32648 -19.18637,72.97117 l -18.92623,72.08128 -24.8144,0 -24.81439,0 -0.50216,-1.90691 c -0.27619,-1.04881 -5.33024,-20.89976 -11.23123,-44.11324 -12.78471,-50.29281 -11.70798,-46.17892 -12.00781,-45.87911 -0.13402,0.13404 -5.70636,20.77098 -12.38297,45.85988 -6.6766,25.0889 -12.29143,45.76861 -12.47741,45.95491 -0.42432,0.42506 -37.38628,0.53307 -44.18995,0.12913 z"
       id="path4451"
       style="fill:#3b3e72;fill-opacity:1;stroke:#3b3e72;stroke-width:1.01701975;stroke-miterlimit:4;stroke-opacity:1;stroke-dasharray:none" />
    <path
       d="m 250.04399,531.67618 c -0.056,-0.29091 -0.22472,-1.16364 -0.3748,-1.9394 -1.08876,-5.62767 -12.73363,-51.90625 -27.06189,-107.54824 -4.91085,-19.07072 -9.03582,-35.07788 -9.16657,-35.57148 l -0.23774,-0.89745 -10.44764,0.16926 -10.44763,0.16926 0,-5.32508 0,-5.32506 47.37283,0 47.37283,0 -0.0633,5.11294 -0.0633,5.11296 -11.37013,0.16475 c -6.25359,0.0906 -11.41261,0.20721 -11.46451,0.25911 -0.0969,0.0969 22.42393,91.39441 22.58438,91.55486 0.12306,0.12306 -0.66623,2.98174 14.23172,-51.54528 7.38304,-27.02224 13.53352,-49.47514 13.66774,-49.89534 l 0.24402,-0.764 22.07006,0 22.07005,0 0.23334,0.88154 c 0.12834,0.48485 5.85962,23.39368 12.73619,50.90852 6.87656,27.51485 12.58406,49.9413 12.68332,49.83657 0.19953,-0.2105 24.672,-90.42995 24.672,-90.95501 0,-0.2762 -1.74989,-0.32818 -11.04868,-0.32818 l -11.04867,0 0,-5.17172 c 0,-3.2911 0.0855,-5.17172 0.23508,-5.17172 0.14765,0 0.25509,1.85774 0.28891,4.99541 l 0.0539,4.99541 0.0684,-4.99541 0.0684,-4.99541 14.57017,0 14.57016,0 0,43.94799 0,43.94798 -8.8277,33.56903 c -4.85522,18.46297 -8.93203,33.96573 -9.05956,34.45057 l -0.23188,0.88155 -14.85963,-0.0328 c -8.17279,-0.018 -19.66303,-0.0973 -25.53385,-0.1763 l -10.67421,-0.1436 -11.24755,-44.19469 c -6.18616,-24.30708 -11.3407,-44.45915 -11.45453,-44.78239 -0.15496,-0.43998 -0.24276,-0.49906 -0.34934,-0.23507 -0.0783,0.19393 -5.43464,20.24022 -11.90298,44.54731 -6.46834,24.30708 -11.81876,44.37981 -11.88983,44.60607 -0.12202,0.38846 -1.54317,0.41139 -25.49734,0.41139 l -25.36812,0 -0.10191,-0.52893 0,0 z m 11.12203,-0.0261 c -0.24963,-0.2164 -10.55892,-0.35851 -10.55892,-0.14555 0,0.14377 2.00412,0.23045 5.32844,0.23045 2.93063,0 5.28436,-0.0382 5.23048,-0.0849 z m 39.8966,-2.0308 c 0.3018,-1.09899 0.5177,-2.09646 0.47978,-2.21659 -0.0379,-0.12014 -0.31569,0.6997 -0.61726,1.82186 -0.30156,1.12215 -0.55971,2.05539 -0.57366,2.07386 -0.0139,0.0184 -1.40056,0.10689 -3.08137,0.19649 l -3.05602,0.16291 3.1499,-0.0202 3.14988,-0.0201 0.54875,-1.99817 0,2e-5 z m 0.69846,-3.22743 c -0.0781,-0.0781 -0.13367,0.0607 -0.12346,0.30854 0.0113,0.27386 0.067,0.32956 0.14202,0.14203 0.0679,-0.1697 0.0595,-0.37245 -0.0185,-0.45057 l -2e-5,0 z m 0.23508,-0.94031 c -0.0781,-0.0781 -0.13368,0.0608 -0.12347,0.30854 0.0113,0.27386 0.067,0.32955 0.14203,0.14203 0.0679,-0.1697 0.0595,-0.37246 -0.0185,-0.45057 l -10e-6,0 z m 0.47016,-1.64555 c -0.0781,-0.0781 -0.13368,0.0607 -0.12347,0.30854 0.0113,0.27385 0.067,0.32956 0.14203,0.14203 0.0679,-0.16969 0.0595,-0.37245 -0.0185,-0.45057 l -1e-5,0 z"
       id="path4455"
       style="fill:#3b3e72;fill-opacity:1;stroke:#3b3e72;stroke-width:0.47015631;stroke-miterlimit:4;stroke-opacity:1;stroke-dasharray:none" />
    <path
       d=""
       id="path4457"
       style="fill:#3b3e72;fill-opacity:1;stroke:#3b3e72;stroke-width:0.20464258;stroke-linecap:butt;stroke-miterlimit:4;stroke-opacity:1;stroke-dasharray:none" />
  </g>
</svg>
