<?xml version="1.0" encoding="UTF-8" standalone="no"?>
<!-- Created with Inkscape (http://www.inkscape.org/) -->

<svg
   xmlns:dc="http://purl.org/dc/elements/1.1/"
   xmlns:cc="http://creativecommons.org/ns#"
   xmlns:rdf="http://www.w3.org/1999/02/22-rdf-syntax-ns#"
   xmlns:svg="http://www.w3.org/2000/svg"
   xmlns="http://www.w3.org/2000/svg"
   version="1.0"
   width="280"
   height="200"
   viewBox="0 0 280 200"
   id="Layer_1"
   xml:space="preserve"><metadata
     id="metadata73"><rdf:RDF><cc:Work
         rdf:about=""><dc:format>image/svg+xml</dc:format><dc:type
           rdf:resource="http://purl.org/dc/dcmitype/StillImage" /><dc:title></dc:title></cc:Work></rdf:RDF></metadata><defs
     id="defs71" /><g
     transform="matrix(0.81226285,0,0,0.81226285,-2.6557657e-6,54.77372)"
     id="g3"><path
       d="m 49.683,38.191 v 1.123 c 0.699,0.24 0.929,0.462 0.999,1.479 v 25.883 c 0,14.398 11.719,18.203 24.08,27.874 C 87.127,84.879 98.844,81.074 98.844,66.676 V 40.503 c 0.092,-0.784 0.34,-0.975 0.966,-1.189 V 38.191 H 49.683 z"
       id="path5"
       style="fill:#a90533" /><path
       d="m 79.637,80.327 c 0,0 2.003,-0.853 3.097,-4.164 0.969,2.016 0.711,4.089 0.711,4.089 -0.882,0.202 -3.808,0.075 -3.808,0.075"
       id="path7"
       style="fill:#ffffff" /><path
       d="m 88.007,73.672 c -5.852,0.807 -6.856,-11.453 -6.856,-11.453 0,0 1.965,6.275 6.139,6.054 4.324,-0.223 3.097,-6.882 3.097,-6.882 0,0 4.205,11.375 -2.38,12.281"
       id="path9"
       style="fill:#ffffff" /><path
       d="m 61.116,70.874 c -2.007,0.68 -5.621,1.328 -5.621,1.328 0,0 3.342,-2.529 5.835,-10.334 l 2.403,2.171 -0.449,1.492 c 0,0 1.147,1.633 1.433,2.746 0,0 1.578,-3.037 -0.155,-6.292 l -0.313,0.909 -0.939,-0.852 -1.615,-1.479 c 0,0 0.729,-2.553 3.008,-5.684 l 0.217,0.241 1.853,2.152 -0.563,0.935 c 0,0 1.274,1.335 2.354,2.986 0,0 0.573,-2.729 -0.222,-5.685 l -0.837,0.782 -2.06,-2.385 c 2.921,-2.912 5.757,-4.678 9.133,-5.813 -0.211,0.226 -0.404,0.47 -0.585,0.73 -1.15,1.619 -2.311,4.543 -1.372,9.262 0.145,0.736 0.39,1.779 0.646,2.882 0.504,2.156 1.066,4.598 1.264,6.135 0.401,3.206 0.079,5.306 -0.991,6.415 -0.747,0.778 -1.95,1.121 -3.628,1.059 0.01,-0.269 0.019,-0.52 0.019,-0.769 0,-2.26 -0.457,-3.967 -0.479,-4.049 l -0.415,-1.553 -0.698,1.449 c -1.096,2.288 -4.837,7.975 -9.712,9.089 0,0 -0.006,0 -0.006,0.003 2.443,-3.753 2.495,-7.871 2.495,-7.871"
       id="path11"
       style="fill:#ffffff" /><path
       d="m 95.077,50.576 -5.771,0.247 c 0.008,0.68 -0.085,1.362 -0.303,2.015 0.535,2.355 0.167,3.638 0.167,3.638 -0.969,-2.249 -1.707,-2.874 -1.707,-2.874 -5.294,-2.355 -8.266,2.97 -7.954,6.405 0.257,2.823 1.288,6.569 2.081,12.445 0.678,4.948 -1.824,7.085 -4.708,7.579 -0.063,0.009 -0.125,0.021 -0.19,0.026 -0.017,0.008 -0.03,0.008 -0.046,0.008 -0.464,0.06 -0.966,0.081 -1.484,0.069 -0.016,0 -0.043,0 -0.052,-0.003 -0.059,0 -0.117,-0.003 -0.176,-0.006 C 74.709,80.108 74.49,80.088 74.271,80.057 72.03,79.75 67.01,78.839 61.834,78.714 c 3.041,-1.78 5.429,-4.861 6.754,-7.046 0.079,0.601 0.143,1.347 0.143,2.157 0,0.403 -0.014,0.828 -0.052,1.264 l -0.054,0.596 0.596,0.053 c 2.384,0.205 4.081,-0.246 5.179,-1.389 1.358,-1.407 1.775,-3.756 1.317,-7.394 -0.197,-1.599 -0.777,-4.077 -1.287,-6.259 -0.252,-1.095 -0.488,-2.127 -0.639,-2.845 -0.85,-4.303 0.168,-6.911 1.178,-8.346 0.793,-1.121 1.884,-1.938 3.077,-2.341 0.025,0 0.043,-0.003 0.071,-0.009 l 1.959,-6.045 h 0.62 l -1.323,5.807 c 0.31,-0.051 0.623,-0.103 0.936,-0.149 l 1.7,-5.359 h 0.613 l -1.11,5.193 c 1.754,-0.226 3.665,-0.403 5.786,-0.564 0.343,0.144 0.711,0.541 1.038,1.096 l 5.55,-1.713 0.203,0.596 -5.305,2.063 c 0.047,0.111 0.085,0.225 0.12,0.34 l 5.805,-0.729 0.095,0.626 -5.628,1.124 c 0.019,0.107 0.036,0.214 0.053,0.318 l 5.859,0.188 -0.011,0.629 z"
       id="path13"
       style="fill:#ffffff" /><path
       d="m 78.359,53.172 c 1.168,-0.816 3.149,-1.445 5.006,-1.306 0.466,0.041 0.869,-0.086 0.358,-0.354 -1.389,-0.733 -4.624,-0.482 -5.775,0.299 -1.833,1.255 -1.521,3.482 -1.477,3.532 0.365,-0.639 0.985,-1.539 1.888,-2.171"
       id="path15"
       style="fill:#a90533" /><rect
       width="238.147"
       height="1.131"
       x="105.699"
       y="38.182999"
       id="rect17"
       style="fill:#a90533" /><path
       d="m 83.785,90.558 -9.029,6.426 -9.028,-6.426 C 59.31,86.174 53.812,82.41 50.929,76.692 53.308,87.406 63.786,91.411 74.756,100 85.725,91.411 96.205,87.406 98.578,76.692 95.697,82.41 90.203,86.174 83.785,90.558"
       id="path19"
       style="fill:#68737a" /><path
       d="m 12.504,1.814 c -3.005,0 -4.423,1.242 -3.468,4.484 l 5.679,20.518 h 0.416 L 24.722,1.004 h 1.494 l 9.446,25.478 h 0.413 c 2.15,-6.678 4.15,-13.45 6.256,-20.229 C 43.233,3.295 42.423,1.86 38.56,1.815 v -1.24 h 10.496 v 1.239 c -1.43,0 -3.342,1.096 -4.153,3.72 L 36.03,33.977 h -2.2 L 24.241,8.065 14.697,33.976 H 12.643 L 5.441,8.448 C 4.1,3.773 2.535,1.814 0,1.814 V 0.575 h 12.504 v 1.239 z"
       id="path21"
       style="fill:#68737a" /><path
       d="M 55.58,21.308 51.813,9.776 h -0.065 l -4.22,11.531 h 8.052 z m -8.59,1.352 -1.632,4.746 c -0.461,1.386 0.213,2.56 1.776,2.56 v 0.919 h -6.459 v -0.919 c 0.961,0 1.99,-0.603 2.555,-1.773 1.525,-3.124 5.677,-14.726 8.625,-22.563 h 1.979 c 2.414,7.13 6.036,18.058 7.24,21.209 0.78,1.99 1.351,3.126 2.872,3.126 v 0.919 h -8.261 v -0.919 c 2.229,0 2.445,-1.174 1.876,-2.733 L 56.037,22.659 H 46.99 z"
       id="path23"
       style="fill:#68737a" /><path
       d="M 76.122,11.339 C 75.843,8.858 74.49,6.87 71.655,6.87 c -2.062,0 -3.903,1.064 -3.903,3.69 0,2.484 2.482,3.972 6.028,6.635 3.763,2.802 4.969,4.611 4.969,7.553 0,4.221 -4.329,6.564 -8.582,6.564 -2.27,0 -4.219,-0.428 -6.069,-1.132 -0.143,-0.075 -0.243,-0.217 -0.243,-0.499 v -5.109 h 0.921 c 0.387,3.935 2.975,5.499 5.709,5.499 2.517,0 4.574,-1.917 4.574,-4.503 0,-2.313 -1.238,-4.187 -6.561,-7.699 -1.919,-1.278 -4.294,-2.664 -4.294,-6.53 0,-3.191 3.547,-5.708 7.628,-5.708 1.523,0 3.549,0.177 4.967,0.671 0.216,0.075 0.249,0.211 0.249,0.394 v 4.644 h -0.926 z"
       id="path25"
       style="fill:#68737a" /><path
       d="m 86.309,26.452 c 0,3.298 -0.141,3.12 3.049,3.515 v 0.919 h -9.543 v -0.919 c 3.196,-0.395 3.05,-0.217 3.05,-3.515 V 10.49 c 0,-3.302 0.146,-3.122 -3.05,-3.518 V 6.054 h 9.543 v 0.917 c -3.19,0.396 -3.049,0.216 -3.049,3.518 v 6.135 H 98.76 V 10.49 c 0,-3.302 0.141,-3.122 -3.052,-3.518 V 6.054 h 9.542 v 0.917 c -3.192,0.396 -3.049,0.216 -3.049,3.518 v 15.962 c 0,3.298 -0.144,3.12 3.049,3.515 v 0.919 H 95.708 V 29.966 C 98.9,29.571 98.76,29.749 98.76,26.451 V 18.08 H 86.309 v 8.372 z"
       id="path27"
       style="fill:#68737a" /><path
       d="m 113.446,26.452 c 0,3.298 -0.149,3.12 3.05,3.515 v 0.919 h -9.545 v -0.919 c 3.192,-0.395 3.046,-0.217 3.046,-3.515 V 10.49 c 0,-3.302 0.146,-3.122 -3.046,-3.518 V 6.054 h 9.545 v 0.917 c -3.199,0.396 -3.05,0.216 -3.05,3.518 v 15.963 z"
       id="path29"
       style="fill:#68737a" /><path
       d="M 140.673,30.886 C 135.041,24.218 129.182,17.229 123.408,10.415 v 15.683 c 0,0.741 0.137,1.347 0.203,1.915 0.184,1.28 1.388,1.776 3.729,1.953 v 0.92 h -8.694 v -0.92 c 1.705,-0.176 2.874,-0.673 3.054,-1.953 0.07,-0.568 0.212,-1.174 0.212,-1.915 V 9.391 C 120.918,8.11 119.824,6.973 117.798,6.973 V 6.055 h 6.454 c 5.286,6.423 10.79,12.946 16.073,19.369 h 0.071 v -14.58 c 0,-0.746 -0.144,-1.354 -0.217,-1.918 -0.173,-1.275 -1.381,-1.774 -3.723,-1.954 V 6.055 h 8.694 v 0.917 c -1.667,0.18 -2.877,0.679 -3.051,1.954 -0.075,0.564 -0.215,1.172 -0.215,1.918 v 20.042 h -1.211 z"
       id="path31"
       style="fill:#68737a" /><path
       d="m 144.786,18.332 c 0,-5.469 4.616,-12.702 14.195,-12.702 3.443,0 5.07,0.638 6.811,1.202 0.987,0.321 1.381,0.818 1.381,1.384 v 4.582 h -0.923 c -0.104,-2.84 -1.918,-5.927 -7.552,-5.927 -7.421,0 -9.83,5.106 -9.868,11.175 -0.034,5.606 2.81,12.027 10.01,12.027 4.433,0 4.823,-1.636 4.823,-4.397 v -2.167 c 0,-3.3 0.136,-3.122 -3.759,-3.513 v -0.923 h 10.248 v 0.923 c -3.192,0.391 -3.048,0.213 -3.048,3.513 v 6.175 c -2.271,0.883 -5.253,1.628 -8.477,1.628 -7.269,0 -13.841,-3.476 -13.841,-12.98"
       id="path33"
       style="fill:#68737a" /><path
       d="m 181.362,26.452 c 0,3.298 -0.146,3.12 3.051,3.515 v 0.919 h -9.539 v -0.919 c 3.189,-0.395 3.051,-0.217 3.051,-3.515 V 7.188 h -2.881 c -3.088,0 -3.798,1.949 -4.968,4.297 h -0.889 l 0.96,-5.431 h 18.989 l 0.951,5.431 h -0.889 C 188.034,9.137 187.32,7.188 184.239,7.188 h -2.878 v 19.264 z"
       id="path35"
       style="fill:#68737a" /><path
       d="m 210.773,18.791 c 0,-8.479 -4.581,-11.921 -8.909,-11.921 -6.027,0 -8.51,5.396 -8.51,10.219 0,8.587 4.393,12.984 8.967,12.984 6.603,0 8.452,-6.524 8.452,-11.282 m -21.465,0.143 c 0,-7.667 5.96,-13.302 13.338,-13.302 7.701,0 12.167,6.634 12.167,12.094 0,7.485 -5.604,13.588 -13.442,13.588 -6.775,0 -12.063,-5.503 -12.063,-12.38"
       id="path37"
       style="fill:#68737a" /><path
       d="M 236.522,30.886 C 230.881,24.218 225.03,17.229 219.244,10.415 v 15.683 c 0,0.741 0.146,1.347 0.212,1.915 0.179,1.28 1.384,1.776 3.729,1.953 v 0.92 h -8.694 v -0.92 c 1.703,-0.176 2.87,-0.673 3.054,-1.953 0.07,-0.568 0.212,-1.174 0.212,-1.915 V 9.391 C 216.764,8.11 215.658,6.973 213.639,6.973 V 6.055 h 6.459 c 5.284,6.423 10.785,12.946 16.067,19.369 h 0.071 v -14.58 c 0,-0.746 -0.14,-1.354 -0.211,-1.918 -0.179,-1.275 -1.384,-1.774 -3.724,-1.954 V 6.055 h 8.687 v 0.917 c -1.662,0.18 -2.873,0.679 -3.05,1.954 -0.066,0.564 -0.208,1.172 -0.208,1.918 v 20.042 h -1.208 z"
       id="path39"
       style="fill:#68737a" /><path
       d="m 267.136,7.683 c -0.384,-3.342 -2.193,-6.012 -6.011,-6.012 -2.768,0 -5.568,1.426 -5.568,4.965 0,3.339 3.344,5.341 8.114,8.918 5.059,3.77 6.678,6.209 6.678,10.164 0,5.681 -5.504,8.83 -11.229,8.83 -3.051,0 -5.679,-0.572 -8.157,-1.525 -0.188,-0.099 -0.337,-0.29 -0.337,-0.67 V 25.48 h 1.242 c 0.523,5.297 4.006,7.396 7.683,7.396 3.389,0 6.474,-2.574 6.474,-6.061 0,-3.097 -1.671,-5.629 -8.829,-10.352 -2.574,-1.72 -5.778,-3.582 -5.778,-8.781 0,-4.295 4.457,-7.683 9.941,-7.683 2.056,0 4.779,0.237 6.688,0.907 0.281,0.097 0.335,0.288 0.335,0.522 v 6.254 h -1.246 z"
       id="path41"
       style="fill:#68737a" /><path
       d="m 282.115,26.452 c 0,3.298 -0.142,3.12 3.05,3.515 v 0.919 h -9.546 v -0.919 c 3.193,-0.395 3.051,-0.217 3.051,-3.515 V 7.188 h -2.879 c -3.08,0 -3.79,1.949 -4.964,4.297 h -0.884 l 0.956,-5.431 h 18.984 l 0.964,5.431 h -0.891 c -1.169,-2.348 -1.885,-4.297 -4.965,-4.297 h -2.877 v 19.264 z"
       id="path43"
       style="fill:#68737a" /><path
       d="m 301.407,21.308 -3.76,-11.531 h -0.072 l -4.219,11.531 h 8.051 z m -8.584,1.352 -1.634,4.746 c -0.457,1.386 0.216,2.56 1.776,2.56 v 0.919 h -6.457 v -0.919 c 0.959,0 1.988,-0.603 2.555,-1.773 1.522,-3.124 5.676,-14.726 8.618,-22.563 h 1.988 c 2.411,7.13 6.03,18.058 7.234,21.209 0.78,1.99 1.351,3.126 2.873,3.126 v 0.919 h -8.263 v -0.919 c 2.231,0 2.447,-1.174 1.881,-2.733 l -1.531,-4.573 h -9.04 z"
       id="path45"
       style="fill:#68737a" /><path
       d="m 317.791,26.452 c 0,3.298 -0.142,3.12 3.055,3.515 v 0.919 h -9.549 v -0.919 c 3.197,-0.395 3.053,-0.217 3.053,-3.515 V 7.188 h -2.879 c -3.085,0 -3.79,1.949 -4.964,4.297 h -0.891 l 0.958,-5.431 h 18.988 l 0.96,5.431 h -0.889 c -1.167,-2.348 -1.88,-4.297 -4.967,-4.297 h -2.876 v 19.264 z"
       id="path47"
       style="fill:#68737a" /><path
       d="m 326.519,29.966 c 3.192,-0.395 2.733,-0.214 2.733,-3.515 V 10.49 c 0,-3.301 0.459,-3.123 -2.733,-3.518 V 6.054 h 15.537 v 5.709 h -0.921 c -0.354,-2.627 -1.068,-4.575 -3.619,-4.575 h -4.826 v 10.147 h 2.98 c 2.233,0 3.196,-0.89 3.265,-3.086 h 0.922 v 7.556 h -0.922 c -0.068,-2.093 -0.889,-3.332 -3.265,-3.332 h -2.98 v 8.011 c 0,3.018 1.384,3.266 4.577,3.266 5.145,0 4.896,-1.453 6.53,-5.25 h 0.919 l -1.063,6.385 h -17.135 v -0.919 z"
       id="path49"
       style="fill:#68737a" /><path
       d="m 173.682,66.13 c 0,3.305 -0.137,3.128 3.05,3.516 v 0.921 h -9.541 v -0.921 c 3.194,-0.388 3.05,-0.211 3.05,-3.516 V 50.167 c 0,-3.296 0.145,-3.122 -3.05,-3.514 v -0.917 h 9.541 v 0.917 c -3.187,0.393 -3.05,0.218 -3.05,3.514 V 66.13 z"
       id="path51"
       style="fill:#68737a" /><path
       d="m 186.524,46.653 c -1.953,0 -3.37,0.572 -2.199,3.978 1.386,4.188 3.444,10.288 5.282,15.682 2.277,-5.43 4.441,-10.897 6.638,-16.319 0.888,-2.236 -0.036,-3.341 -2.447,-3.341 v -0.917 h 7.03 v 0.917 c -1.032,0 -1.566,0.358 -2.31,2.134 -2.982,7.271 -5.999,14.504 -8.979,21.781 h -1.81 c -2.162,-6.135 -4.575,-12.984 -6.737,-19.014 -1.313,-3.797 -1.782,-4.901 -3.479,-4.901 v -0.917 h 9.011 v 0.917 z"
       id="path53"
       style="fill:#68737a" /><path
       d="m 201.172,69.646 c 3.194,-0.388 2.736,-0.211 2.736,-3.516 V 50.168 c 0,-3.298 0.458,-3.121 -2.736,-3.516 v -0.917 h 15.541 v 5.711 h -0.926 c -0.354,-2.626 -1.062,-4.576 -3.613,-4.576 h -4.824 v 10.145 h 2.978 c 2.24,0 3.196,-0.886 3.265,-3.086 h 0.921 v 7.557 h -0.921 c -0.068,-2.093 -0.887,-3.336 -3.265,-3.336 h -2.978 v 8.018 c 0,3.017 1.379,3.268 4.571,3.268 5.144,0 4.901,-1.457 6.529,-5.256 h 0.921 l -1.063,6.388 h -17.137 v -0.922 z"
       id="path55"
       style="fill:#68737a" /><path
       d="m 226.607,58.433 h 2.939 c 3.091,0 4.51,-2.338 4.51,-6.345 0,-3.872 -2.125,-5.217 -4.717,-5.217 h -2.732 v 11.562 z m -6.496,-12.698 h 10.328 c 3.582,0 7.165,1.881 7.165,6.032 0,3.648 -2.234,6.171 -4.967,7.234 l 3.477,5.286 c 1.776,2.589 3.761,5.076 5.001,5.825 v 0.456 h -3.653 c -2.092,0 -3.229,-3.863 -7.521,-10.996 h -3.334 v 6.559 c 0,3.305 -0.143,3.128 3.048,3.516 v 0.921 h -9.544 v -0.921 c 3.193,-0.388 3.058,-0.211 3.058,-3.516 V 50.168 c 0,-3.298 0.136,-3.121 -3.058,-3.516 v -0.917 z"
       id="path57"
       style="fill:#68737a" /><path
       d="m 253.316,51.024 c -0.282,-2.488 -1.634,-4.476 -4.47,-4.476 -2.058,0 -3.899,1.066 -3.899,3.694 0,2.482 2.479,3.973 6.028,6.633 3.76,2.802 4.968,4.61 4.968,7.556 0,4.22 -4.328,6.558 -8.587,6.558 -2.27,0 -4.223,-0.422 -6.065,-1.132 -0.141,-0.068 -0.25,-0.211 -0.25,-0.494 v -5.109 h 0.925 c 0.392,3.938 2.981,5.5 5.714,5.5 2.514,0 4.57,-1.915 4.57,-4.506 0,-2.307 -1.24,-4.184 -6.561,-7.699 -1.912,-1.28 -4.29,-2.659 -4.29,-6.525 0,-3.191 3.548,-5.712 7.627,-5.712 1.522,0 3.545,0.174 4.964,0.672 0.216,0.07 0.253,0.213 0.253,0.39 v 4.649 h -0.927 z"
       id="path59"
       style="fill:#68737a" /><path
       d="m 263.777,66.13 c 0,3.305 -0.142,3.128 3.045,3.516 v 0.921 h -9.539 v -0.921 c 3.195,-0.388 3.053,-0.211 3.053,-3.516 V 50.167 c 0,-3.296 0.143,-3.122 -3.053,-3.514 v -0.917 h 9.539 v 0.917 c -3.187,0.393 -3.045,0.218 -3.045,3.514 V 66.13 z"
       id="path61"
       style="fill:#68737a" /><path
       d="m 279.564,66.13 c 0,3.305 -0.144,3.128 3.049,3.516 v 0.921 h -9.545 v -0.921 c 3.196,-0.388 3.053,-0.211 3.053,-3.516 V 46.87 h -2.872 c -3.087,0 -3.799,1.95 -4.971,4.293 h -0.889 l 0.959,-5.429 h 18.985 l 0.955,5.429 h -0.882 c -1.175,-2.343 -1.885,-4.293 -4.97,-4.293 h -2.873 v 19.26 z"
       id="path63"
       style="fill:#68737a" /><path
       d="m 294.035,69.646 c 3.189,-0.388 3.048,-0.211 3.048,-3.516 v -5.456 l -5.46,-10.826 c -1.174,-2.304 -1.532,-3.196 -3.166,-3.196 v -0.917 h 8.414 v 0.917 c -2.695,0 -2.448,1.354 -1.561,3.196 l 4.294,8.909 4.896,-8.909 c 1.204,-2.165 0.069,-3.196 -2.023,-3.196 v -0.917 h 7.31 v 0.917 c -0.998,0 -1.955,0.468 -2.912,2.168 l -5.924,10.751 c -0.353,0.708 -0.423,1.704 -0.423,2.587 v 3.972 c 0,3.305 -0.144,3.128 3.051,3.516 v 0.921 h -9.543 v -0.921 z"
       id="path65"
       style="fill:#68737a" /><path
       d="m 157.091,45.735 v 0.917 c 2.336,0.182 3.543,0.675 3.722,1.957 0.072,0.564 0.218,1.172 0.218,1.917 v 14.579 h -0.072 c -5.291,-6.421 -10.788,-12.947 -16.074,-19.37 l -15.918,-0.002 v 0.919 c 2.241,0.245 3.865,1.226 4.107,2.944 0.092,0.765 0.287,1.575 0.287,2.577 v 13.266 c 0,7.637 -3.441,12.025 -9.979,12.025 -7.109,0 -9.239,-5.109 -9.239,-11.783 V 51.699 c 0,-4.441 0.126,-4.516 4.424,-5.047 v -0.919 h -12.84 v 0.919 c 4.293,0.531 4.103,0.606 4.103,5.047 v 14.216 c 0,8.639 3.147,13.792 13.315,13.792 6.158,0 12.694,-3.821 12.694,-14.08 V 52.173 c 0,-0.078 0,-0.159 0.005,-0.238 0.534,-6.705 4.973,-5.387 6.697,-2.865 v 16.71 c 0,0.742 -0.141,1.347 -0.208,1.914 -0.181,1.278 -1.347,1.774 -3.049,1.952 v 0.921 h 8.685 v -0.921 c -2.334,-0.178 -3.546,-0.674 -3.726,-1.952 -0.069,-0.567 -0.208,-1.172 -0.208,-1.914 V 50.098 c 5.777,6.81 11.633,13.801 17.277,20.469 h 1.204 V 50.526 c 0,-0.745 0.146,-1.353 0.213,-1.917 0.179,-1.281 1.381,-1.774 3.049,-1.957 v -0.917 h -8.687 z"
       id="path67"
       style="fill:#68737a" /></g></svg>