<?xml version="1.0" encoding="UTF-8"?>
<svg xmlns="http://www.w3.org/2000/svg" xmlns:xlink="http://www.w3.org/1999/xlink" width="35pt" height="25pt" viewBox="0 0 35 25" version="1.1">
<defs>
<clipPath id="clip1">
  <path d="M 6.75 0 L 28.570312 0 L 28.570312 25 L 6.75 25 Z M 6.75 0 "/>
</clipPath>
<clipPath id="clip2">
  <path d="M 6.75 0 L 28.570312 0 L 28.570312 25 L 6.75 25 Z M 6.75 0 "/>
</clipPath>
</defs>
<g id="surface1">
<g clip-path="url(#clip1)" clip-rule="nonzero">
<path style=" stroke:none;fill-rule:nonzero;fill:rgb(100%,82.745098%,34.509804%);fill-opacity:1;" d="M 21.59375 0.09375 L 12.824219 0.09375 L 12.824219 5.9375 L 13.839844 5.9375 C 12.949219 8.164062 8.890625 17.742188 8.460938 18.820312 L 6.84375 18.820312 L 6.84375 24.90625 L 15.53125 24.90625 L 15.53125 19.085938 L 14.960938 19.085938 L 15.160156 18.378906 L 20.339844 18.378906 L 20.652344 19.085938 L 19.761719 19.085938 L 19.761719 24.90625 L 28.476562 24.90625 L 28.476562 18.980469 L 26.878906 18.980469 C 26.445312 17.902344 22.550781 8.164062 21.660156 5.9375 L 22.632812 5.9375 L 22.632812 0.09375 Z M 17.75 11.421875 C 18.03125 12.128906 18.074219 12.230469 18.320312 12.84375 L 17.179688 12.84375 C 17.425781 12.230469 17.464844 12.128906 17.75 11.421875 "/>
</g>
<path style=" stroke:none;fill-rule:nonzero;fill:rgb(100%,100%,100%);fill-opacity:1;" d="M 26.175781 20.019531 L 20.125 4.894531 L 21.59375 4.894531 L 21.59375 1.136719 L 13.863281 1.136719 L 13.863281 4.894531 L 15.375 4.894531 L 9.324219 20.019531 L 7.992188 20.019531 L 7.992188 23.863281 L 14.625 23.863281 L 14.625 20.019531 L 13.421875 20.019531 L 14.453125 17.441406 L 21.046875 17.441406 L 22.078125 20.019531 L 20.960938 20.019531 L 20.960938 23.863281 L 27.59375 23.863281 L 27.59375 20.019531 Z M 15.941406 13.726562 L 17.75 9.203125 L 19.558594 13.726562 Z M 15.941406 13.726562 "/>
<g clip-path="url(#clip2)" clip-rule="nonzero">
<path style=" stroke:none;fill-rule:nonzero;fill:rgb(21.568627%,20.784314%,20.784314%);fill-opacity:1;" d="M 21.59375 0 L 12.824219 0 C 12.769531 0 12.726562 0.0429688 12.726562 0.09375 L 12.726562 5.9375 C 12.726562 5.988281 12.769531 6.03125 12.824219 6.03125 L 13.699219 6.03125 C 13.125 7.453125 11.542969 11.214844 10.261719 14.261719 C 9.378906 16.371094 8.609375 18.199219 8.394531 18.726562 L 6.84375 18.726562 C 6.792969 18.726562 6.75 18.769531 6.75 18.820312 L 6.75 24.90625 C 6.75 24.957031 6.792969 25 6.84375 25 L 15.53125 25 C 15.585938 25 15.628906 24.957031 15.628906 24.90625 L 15.628906 19.085938 C 15.628906 19.03125 15.585938 18.988281 15.53125 18.988281 L 15.085938 18.988281 C 15.125 18.84375 15.207031 18.5625 15.230469 18.472656 L 20.277344 18.472656 C 20.3125 18.550781 20.4375 18.832031 20.503906 18.988281 L 19.761719 18.988281 C 19.710938 18.988281 19.667969 19.03125 19.667969 19.085938 L 19.667969 24.90625 C 19.667969 24.957031 19.710938 25 19.761719 25 L 28.476562 25 C 28.527344 25 28.570312 24.957031 28.570312 24.90625 L 28.570312 18.980469 C 28.570312 18.925781 28.527344 18.886719 28.476562 18.886719 L 26.941406 18.886719 C 26.894531 18.765625 21.902344 6.285156 21.800781 6.03125 L 22.632812 6.03125 C 22.6875 6.03125 22.730469 5.988281 22.730469 5.9375 L 22.730469 0.09375 C 22.730469 0.0429688 22.6875 0 22.632812 0 Z M 21.59375 0.191406 L 22.539062 0.191406 L 22.539062 5.839844 L 21.660156 5.839844 C 21.628906 5.839844 21.601562 5.855469 21.582031 5.882812 C 21.570312 5.898438 21.566406 5.917969 21.566406 5.9375 C 21.566406 5.949219 21.566406 5.960938 21.574219 5.972656 L 26.789062 19.015625 C 26.804688 19.050781 26.839844 19.074219 26.878906 19.074219 L 28.378906 19.074219 L 28.378906 24.808594 L 19.859375 24.808594 L 19.859375 19.179688 L 20.652344 19.179688 C 20.683594 19.179688 20.710938 19.164062 20.730469 19.136719 C 20.742188 19.121094 20.746094 19.101562 20.746094 19.085938 C 20.746094 19.070312 20.742188 19.058594 20.738281 19.046875 L 20.429688 18.339844 C 20.414062 18.304688 20.378906 18.28125 20.339844 18.28125 L 15.160156 18.28125 C 15.117188 18.28125 15.078125 18.3125 15.066406 18.351562 L 14.867188 19.058594 C 14.859375 19.089844 14.867188 19.117188 14.882812 19.140625 C 14.902344 19.167969 14.929688 19.179688 14.960938 19.179688 L 15.4375 19.179688 L 15.4375 24.808594 L 6.941406 24.808594 L 6.941406 18.917969 L 8.460938 18.917969 C 8.5 18.917969 8.535156 18.894531 8.546875 18.855469 C 8.726562 18.414062 9.519531 16.527344 10.4375 14.335938 C 11.757812 11.195312 13.402344 7.285156 13.925781 5.972656 C 13.933594 5.960938 13.933594 5.949219 13.933594 5.9375 C 13.933594 5.917969 13.929688 5.898438 13.917969 5.882812 C 13.898438 5.855469 13.871094 5.839844 13.839844 5.839844 L 12.917969 5.839844 L 12.917969 0.191406 Z M 21.59375 0.191406 "/>
</g>
<path style=" stroke:none;fill-rule:nonzero;fill:rgb(21.568627%,20.784314%,20.784314%);fill-opacity:1;" d="M 17.660156 11.386719 L 17.09375 12.808594 C 17.082031 12.839844 17.085938 12.871094 17.101562 12.898438 C 17.121094 12.925781 17.148438 12.941406 17.179688 12.941406 L 18.320312 12.941406 C 18.351562 12.941406 18.378906 12.925781 18.398438 12.898438 C 18.414062 12.871094 18.417969 12.839844 18.40625 12.808594 L 17.839844 11.386719 C 17.824219 11.351562 17.789062 11.328125 17.75 11.328125 C 17.710938 11.328125 17.675781 11.351562 17.660156 11.386719 M 17.417969 12.503906 C 17.417969 12.503906 17.640625 11.953125 17.75 11.679688 C 17.855469 11.941406 18.125 12.613281 18.179688 12.75 L 17.320312 12.75 C 17.367188 12.640625 17.417969 12.503906 17.417969 12.503906 "/>
<path style=" stroke:none;fill-rule:nonzero;fill:rgb(21.568627%,20.784314%,20.784314%);fill-opacity:1;" d="M 21.59375 1.070312 L 13.800781 1.070312 L 13.800781 4.957031 L 15.28125 4.957031 C 15.214844 5.128906 9.3125 19.878906 9.28125 19.957031 L 7.925781 19.957031 L 7.925781 23.929688 L 14.6875 23.929688 L 14.6875 19.957031 L 13.515625 19.957031 C 13.582031 19.796875 14.46875 17.582031 14.496094 17.507812 L 21.003906 17.507812 C 21.03125 17.582031 21.917969 19.796875 21.984375 19.957031 L 20.898438 19.957031 L 20.898438 23.929688 L 27.65625 23.929688 L 27.65625 19.957031 L 26.21875 19.957031 C 26.1875 19.878906 20.285156 5.128906 20.21875 4.957031 L 21.65625 4.957031 L 21.65625 1.070312 Z M 21.53125 1.199219 L 21.53125 4.832031 L 20.03125 4.832031 L 26.132812 20.082031 L 27.53125 20.082031 L 27.53125 23.800781 L 21.023438 23.800781 L 21.023438 20.082031 L 22.167969 20.082031 L 21.089844 17.378906 L 14.410156 17.378906 L 13.332031 20.082031 L 14.558594 20.082031 L 14.558594 23.800781 L 8.054688 23.800781 L 8.054688 20.082031 L 9.367188 20.082031 L 15.46875 4.832031 L 13.925781 4.832031 L 13.925781 1.199219 Z M 21.53125 1.199219 "/>
<path style=" stroke:none;fill-rule:nonzero;fill:rgb(21.568627%,20.784314%,20.784314%);fill-opacity:1;" d="M 17.691406 9.179688 L 15.847656 13.789062 L 19.652344 13.789062 L 17.75 9.035156 Z M 17.75 9.375 C 17.859375 9.644531 19.398438 13.5 19.464844 13.660156 L 16.035156 13.660156 C 16.101562 13.5 17.640625 9.644531 17.75 9.375 "/>
<path style=" stroke:none;fill-rule:nonzero;fill:rgb(21.568627%,20.784314%,20.784314%);fill-opacity:1;" d="M 12.351562 15.28125 L 12.226562 15.144531 C 12.226562 15.144531 12.714844 14.730469 12.894531 14.589844 C 13.070312 14.449219 13.339844 14.46875 13.375 14.71875 C 13.375 14.71875 13.519531 14.527344 13.652344 14.511719 C 13.859375 14.488281 13.882812 14.902344 13.882812 14.902344 C 13.882812 14.902344 14.027344 14.714844 14.144531 14.558594 C 14.304688 14.351562 14.492188 14.40625 14.492188 14.6875 C 14.492188 14.96875 14.453125 15.734375 14.4375 15.976562 C 14.425781 16.222656 14.578125 16.378906 14.703125 16.09375 L 14.707031 16.222656 C 14.707031 16.222656 14.648438 16.585938 14.4375 16.585938 C 14.230469 16.585938 14.140625 16.324219 14.140625 16.007812 L 14.140625 15.230469 C 14.140625 15.128906 14.085938 15.03125 13.992188 15.171875 C 13.902344 15.3125 13.882812 15.382812 13.882812 15.488281 L 13.882812 16.277344 C 13.882812 16.417969 13.796875 16.515625 13.65625 16.515625 C 13.515625 16.515625 13.484375 16.433594 13.484375 16.195312 L 13.484375 15.355469 C 13.484375 15.242188 13.417969 15.0625 13.332031 15.257812 C 13.25 15.453125 13.207031 15.617188 13.207031 15.757812 L 13.207031 16.300781 C 13.207031 16.390625 13.191406 16.527344 13.050781 16.527344 C 12.914062 16.527344 12.839844 16.460938 12.839844 16.179688 L 12.839844 15.378906 C 12.839844 15.089844 12.875 14.945312 12.828125 14.921875 C 12.777344 14.894531 12.691406 14.949219 12.351562 15.28125 "/>
<path style=" stroke:none;fill-rule:nonzero;fill:rgb(21.568627%,20.784314%,20.784314%);fill-opacity:1;" d="M 15.429688 15.71875 C 15.359375 15.773438 15.261719 15.726562 15.261719 15.457031 C 15.261719 15.261719 15.238281 15.089844 15.085938 15.011719 C 14.976562 14.953125 14.660156 14.980469 14.660156 15.464844 L 14.660156 16.054688 C 14.660156 16.160156 14.695312 16.433594 14.914062 16.539062 C 15.136719 16.644531 15.261719 16.515625 15.261719 16.195312 L 15.261719 15.988281 C 15.335938 16 15.394531 15.984375 15.445312 15.964844 C 15.527344 15.933594 15.597656 15.816406 15.597656 15.816406 L 15.617188 15.519531 C 15.617188 15.519531 15.542969 15.636719 15.429688 15.71875 M 15.03125 16.210938 C 15.011719 16.527344 14.855469 16.257812 14.855469 16.167969 L 14.855469 15.78125 C 14.855469 15.609375 14.941406 15.582031 15 15.609375 C 15.050781 15.636719 15.054688 15.804688 15.03125 16.210938 "/>
<path style=" stroke:none;fill-rule:nonzero;fill:rgb(21.568627%,20.784314%,20.784314%);fill-opacity:1;" d="M 15.753906 15.089844 C 15.695312 15.035156 15.570312 15.035156 15.570312 15.203125 L 15.570312 16.214844 C 15.570312 16.34375 15.636719 16.550781 15.8125 16.558594 C 15.945312 16.5625 16.144531 16.300781 16.144531 16.300781 L 16.050781 16.125 C 16.050781 16.125 15.996094 16.277344 15.933594 16.308594 C 15.875 16.335938 15.792969 16.308594 15.792969 16.054688 L 15.792969 15.324219 C 15.792969 15.214844 15.8125 15.152344 15.753906 15.089844 "/>
<path style=" stroke:none;fill-rule:nonzero;fill:rgb(21.568627%,20.784314%,20.784314%);fill-opacity:1;" d="M 16.253906 15.113281 C 16.191406 15.070312 16.105469 15.097656 16.070312 15.25 C 16.03125 15.402344 16.015625 16.042969 16.027344 16.222656 C 16.039062 16.398438 16.121094 16.578125 16.261719 16.566406 C 16.460938 16.550781 16.644531 16.320312 16.644531 16.320312 L 16.59375 16.074219 C 16.59375 16.074219 16.453125 16.316406 16.363281 16.332031 C 16.25 16.351562 16.210938 16.222656 16.234375 15.921875 C 16.257812 15.621094 16.289062 15.453125 16.296875 15.359375 C 16.300781 15.269531 16.320312 15.164062 16.253906 15.113281 "/>
<path style=" stroke:none;fill-rule:nonzero;fill:rgb(21.568627%,20.784314%,20.784314%);fill-opacity:1;" d="M 16.835938 15.09375 C 16.765625 15.054688 16.65625 15.050781 16.628906 15.320312 C 16.609375 15.546875 16.566406 15.921875 16.570312 16.164062 C 16.578125 16.40625 16.621094 16.503906 16.699219 16.550781 C 16.777344 16.597656 16.820312 16.539062 16.839844 16.351562 C 16.875 16.070312 16.890625 15.851562 16.894531 15.769531 C 16.898438 15.683594 17.070312 15.585938 17.0625 15.742188 C 17.058594 15.902344 17.035156 16.148438 17.105469 16.328125 C 17.175781 16.507812 17.429688 16.53125 17.660156 16.195312 L 17.632812 15.863281 C 17.632812 15.863281 17.542969 16.070312 17.449219 16.140625 C 17.355469 16.207031 17.296875 16.179688 17.296875 15.9375 C 17.296875 15.695312 17.304688 15.332031 17.3125 15.199219 C 17.316406 15.066406 17.28125 14.976562 17.160156 15.054688 C 17.035156 15.136719 16.898438 15.304688 16.898438 15.304688 C 16.898438 15.304688 16.90625 15.128906 16.835938 15.09375 "/>
<path style=" stroke:none;fill-rule:nonzero;fill:rgb(21.568627%,20.784314%,20.784314%);fill-opacity:1;" d="M 19.816406 15.175781 C 19.746094 15.140625 19.636719 15.136719 19.609375 15.40625 C 19.585938 15.628906 19.546875 16.007812 19.550781 16.25 C 19.554688 16.492188 19.597656 16.585938 19.675781 16.636719 C 19.757812 16.683594 19.796875 16.625 19.820312 16.433594 C 19.851562 16.15625 19.867188 15.9375 19.871094 15.851562 C 19.878906 15.769531 20.046875 15.667969 20.042969 15.828125 C 20.035156 15.984375 20.015625 16.234375 20.085938 16.414062 C 20.152344 16.59375 20.398438 16.695312 20.628906 16.363281 L 20.605469 16.03125 C 20.605469 16.03125 20.515625 16.234375 20.417969 16.304688 C 20.324219 16.375 20.273438 16.265625 20.273438 16.023438 C 20.273438 15.777344 20.285156 15.414062 20.289062 15.28125 C 20.296875 15.152344 20.257812 15.0625 20.136719 15.140625 C 20.015625 15.21875 19.878906 15.386719 19.878906 15.386719 C 19.878906 15.386719 19.882812 15.214844 19.816406 15.175781 "/>
<path style=" stroke:none;fill-rule:nonzero;fill:rgb(21.568627%,20.784314%,20.784314%);fill-opacity:1;" d="M 18.167969 16.121094 C 18.167969 16.121094 18.136719 16.253906 18.054688 16.339844 C 17.976562 16.425781 17.835938 16.429688 17.835938 16.039062 C 17.835938 15.855469 17.851562 15.570312 17.867188 15.304688 C 17.902344 15.304688 17.929688 15.304688 17.949219 15.304688 C 18.050781 15.304688 18.175781 15.234375 18.050781 15.199219 C 17.96875 15.175781 17.949219 15.171875 17.878906 15.175781 C 17.894531 14.929688 17.914062 14.71875 17.925781 14.644531 C 17.945312 14.480469 17.957031 14.433594 17.867188 14.390625 C 17.800781 14.359375 17.691406 14.320312 17.691406 14.507812 C 17.691406 14.675781 17.664062 14.914062 17.65625 15.179688 C 17.578125 15.1875 17.511719 15.214844 17.4375 15.21875 C 17.355469 15.226562 17.316406 15.324219 17.433594 15.316406 C 17.484375 15.308594 17.566406 15.308594 17.652344 15.304688 C 17.644531 15.617188 17.589844 16.171875 17.675781 16.382812 C 17.765625 16.601562 17.875 16.675781 18.023438 16.597656 C 18.171875 16.519531 18.257812 16.308594 18.257812 16.308594 Z M 18.167969 16.121094 "/>
<path style=" stroke:none;fill-rule:nonzero;fill:rgb(21.568627%,20.784314%,20.784314%);fill-opacity:1;" d="M 19.117188 16.210938 C 19.117188 16.210938 19.023438 16.289062 18.960938 16.296875 C 18.894531 16.300781 18.832031 16.210938 18.851562 16.023438 C 18.867188 15.839844 18.890625 15.605469 18.910156 15.5 C 18.925781 15.398438 18.949219 15.359375 18.90625 15.339844 C 18.90625 15.339844 18.816406 15.300781 18.78125 15.246094 C 18.746094 15.191406 18.679688 15.113281 18.613281 15.085938 C 18.542969 15.0625 18.320312 15.054688 18.230469 15.59375 C 18.140625 16.128906 18.242188 16.445312 18.335938 16.550781 C 18.476562 16.707031 18.71875 16.449219 18.71875 16.449219 C 18.71875 16.449219 18.9375 16.574219 19.1875 16.398438 Z M 18.613281 16.042969 C 18.617188 16.171875 18.5625 16.277344 18.5 16.292969 C 18.441406 16.304688 18.363281 16.144531 18.417969 15.792969 C 18.472656 15.445312 18.523438 15.34375 18.644531 15.398438 C 18.644531 15.398438 18.609375 15.914062 18.613281 16.042969 "/>
<path style=" stroke:none;fill-rule:nonzero;fill:rgb(21.568627%,20.784314%,20.784314%);fill-opacity:1;" d="M 19.257812 15.199219 C 19.144531 15.179688 19.070312 15.253906 19.070312 15.53125 C 19.070312 15.808594 19.0625 16.152344 19.09375 16.296875 C 19.121094 16.441406 19.179688 16.570312 19.3125 16.582031 C 19.492188 16.59375 19.636719 16.394531 19.636719 16.394531 L 19.566406 16.234375 C 19.566406 16.234375 19.503906 16.320312 19.449219 16.359375 C 19.394531 16.398438 19.285156 16.382812 19.289062 16.070312 C 19.296875 15.761719 19.3125 15.554688 19.332031 15.4375 C 19.347656 15.316406 19.328125 15.210938 19.257812 15.199219 "/>
<path style=" stroke:none;fill-rule:nonzero;fill:rgb(21.568627%,20.784314%,20.784314%);fill-opacity:1;" d="M 19.410156 14.707031 C 19.410156 14.800781 19.339844 14.878906 19.25 14.878906 C 19.164062 14.878906 19.09375 14.800781 19.09375 14.707031 C 19.09375 14.613281 19.164062 14.539062 19.25 14.539062 C 19.339844 14.539062 19.410156 14.613281 19.410156 14.707031 "/>
<path style=" stroke:none;fill-rule:nonzero;fill:rgb(21.568627%,20.784314%,20.784314%);fill-opacity:1;" d="M 21.226562 16.140625 C 21.128906 16.320312 21.027344 16.5 20.882812 16.480469 C 20.800781 16.46875 20.75 16.355469 20.726562 16.179688 C 21.265625 15.828125 21.226562 15.164062 20.960938 15.039062 C 20.691406 14.914062 20.441406 15.292969 20.441406 15.855469 C 20.441406 16.792969 20.949219 16.667969 21.046875 16.589844 C 21.144531 16.511719 21.277344 16.296875 21.277344 16.296875 Z M 20.710938 15.71875 C 20.734375 15.265625 20.863281 15.152344 20.921875 15.1875 C 20.976562 15.222656 20.988281 15.378906 20.945312 15.566406 C 20.90625 15.722656 20.761719 15.910156 20.710938 15.96875 C 20.707031 15.890625 20.707031 15.808594 20.710938 15.71875 "/>
<path style=" stroke:none;fill-rule:nonzero;fill:rgb(21.568627%,20.784314%,20.784314%);fill-opacity:1;" d="M 23.167969 15.289062 C 23.121094 15.257812 23.167969 15.210938 23.121094 15.171875 C 23.074219 15.132812 23.027344 15.132812 22.96875 15.308594 C 22.914062 15.480469 22.84375 16.003906 22.667969 16.273438 C 22.496094 16.542969 22.375 16.375 22.382812 16.21875 C 22.390625 16.058594 22.464844 15.664062 22.496094 15.511719 C 22.527344 15.363281 22.488281 15.316406 22.429688 15.316406 C 22.375 15.316406 22.296875 15.273438 22.226562 15.21875 C 22.152344 15.164062 22.105469 15.171875 22.105469 15.234375 C 22.105469 15.300781 22.089844 15.527344 21.980469 15.933594 C 21.867188 16.335938 21.6875 16.480469 21.589844 16.480469 C 21.503906 16.480469 21.457031 16.355469 21.429688 16.179688 C 21.941406 15.816406 21.929688 15.164062 21.667969 15.039062 C 21.398438 14.914062 21.144531 15.292969 21.144531 15.855469 C 21.144531 16.792969 21.601562 16.722656 21.710938 16.660156 C 22.050781 16.472656 22.164062 15.78125 22.164062 15.78125 L 22.242188 15.804688 L 22.203125 16.074219 C 22.164062 16.34375 22.195312 16.496094 22.320312 16.597656 C 22.449219 16.699219 22.707031 16.621094 22.707031 16.621094 C 22.707031 16.621094 22.859375 16.757812 23.027344 16.757812 C 23.191406 16.757812 23.238281 16.535156 23.238281 16.328125 C 23.238281 16.121094 23.246094 15.6875 23.246094 15.558594 C 23.246094 15.433594 23.214844 15.324219 23.167969 15.289062 M 21.417969 15.71875 C 21.4375 15.265625 21.566406 15.152344 21.625 15.1875 C 21.683594 15.222656 21.695312 15.378906 21.648438 15.566406 C 21.613281 15.722656 21.464844 15.910156 21.414062 15.96875 C 21.414062 15.890625 21.414062 15.808594 21.417969 15.71875 M 22.953125 16.542969 C 22.835938 16.613281 22.757812 16.425781 22.757812 16.425781 C 22.835938 16.328125 22.960938 16.074219 22.960938 16.074219 C 23.050781 16.242188 23.074219 16.472656 22.953125 16.542969 "/>
</g>
</svg>
