<?xml version="1.0" encoding="UTF-8"?>
<svg xmlns="http://www.w3.org/2000/svg" xmlns:xlink="http://www.w3.org/1999/xlink" width="35pt" height="25pt" viewBox="0 0 35 25" version="1.1">
<g id="surface1">
<path style=" stroke:none;fill-rule:nonzero;fill:rgb(13.72549%,12.156863%,12.54902%);fill-opacity:1;" d="M 3.167969 1.421875 L 9.234375 1.421875 L 10.519531 2.707031 L 19.328125 2.707031 L 19.941406 3.328125 C 19.972656 2.640625 20.234375 1.929688 20.417969 1.53125 C 20.597656 1.132812 20.738281 0.777344 20.882812 0.6875 C 21.027344 0.597656 21.257812 0.476562 21.316406 0.476562 C 21.378906 0.476562 21.6875 0.664062 21.789062 0.757812 C 21.890625 0.855469 22.160156 1.160156 22.417969 1.296875 C 22.6875 1.4375 23.214844 1.554688 23.59375 1.882812 C 23.757812 1.707031 24.035156 1.460938 24.035156 1.460938 L 24.71875 1.859375 C 24.71875 1.859375 24.875 1.5625 25.425781 1.0625 C 25.605469 1.242188 25.96875 1.605469 26.125 1.839844 C 26.378906 1.683594 26.675781 1.527344 26.820312 1.453125 C 26.988281 1.621094 27.25 1.882812 27.25 1.882812 C 27.464844 1.671875 27.671875 1.609375 27.949219 1.488281 C 28.226562 1.371094 28.3125 1.453125 28.734375 1.0625 C 28.890625 0.917969 29.007812 0.769531 29.132812 0.6875 C 29.257812 0.605469 29.460938 0.457031 29.527344 0.457031 C 29.574219 0.457031 29.683594 0.535156 29.78125 0.585938 C 29.894531 0.644531 30.054688 0.71875 30.207031 1.066406 C 30.355469 1.414062 30.898438 2.523438 30.898438 3.386719 C 30.898438 3.980469 30.691406 4.605469 30.59375 4.78125 C 31.046875 5.078125 31.371094 5.507812 31.585938 5.984375 C 31.816406 6.488281 32.550781 9.132812 32.714844 9.554688 C 32.3125 9.113281 31.621094 8.34375 31.621094 8.34375 C 31.617188 8.601562 31.605469 9.199219 31.5 9.378906 C 31.351562 9.632812 31.28125 9.722656 31.042969 9.910156 C 30.863281 10.367188 30.621094 10.570312 29.90625 10.996094 C 30.273438 11.003906 35 10.996094 35 10.996094 L 35 15.472656 L 34 15.472656 L 35 16.480469 L 35 22.023438 L 29.179688 22.023438 L 28.125 20.96875 L 28.125 21.40625 L 22.5625 21.40625 L 22.5625 19.398438 L 22.308594 21.40625 L 14.300781 21.40625 L 14.300781 20.777344 L 13.675781 21.402344 L 10.429688 21.402344 L 9.273438 20.234375 L 9.273438 17.699219 L 8.460938 22.007812 L 2.105469 22.007812 L 0 10.992188 L 3.167969 10.992188 L 3.167969 9.335938 L 3.558594 9.335938 L 3.558594 4.542969 L 3.167969 4.542969 Z M 3.167969 1.421875 "/>
<path style=" stroke:none;fill-rule:nonzero;fill:rgb(100%,100%,100%);fill-opacity:1;" d="M 3.738281 2.003906 L 9.007812 2.003906 L 10.027344 3.015625 L 10.027344 6.4375 L 9.308594 7.15625 L 10.546875 10.097656 L 10.546875 3.28125 L 14.980469 3.28125 L 14.980469 5.28125 L 12.558594 5.28125 L 12.558594 6.285156 L 14.375 6.285156 L 14.375 8.308594 L 12.5625 8.308594 L 12.5625 9.300781 L 14.972656 9.300781 L 14.972656 11.332031 L 11.0625 11.332031 L 11.3125 11.902344 L 9.800781 11.902344 L 7.996094 21.449219 L 5.59375 21.449219 L 5.269531 19.816406 L 4.96875 21.441406 L 2.558594 21.441406 L 0.6875 11.570312 L 3.738281 11.570312 L 3.738281 9.910156 L 4.136719 9.910156 L 4.136719 3.992188 L 3.738281 3.992188 Z M 3.738281 2.003906 "/>
<path style=" stroke:none;fill-rule:nonzero;fill:rgb(80.392157%,14.509804%,19.215686%);fill-opacity:1;" d="M 4.136719 2.410156 L 8.855469 2.410156 L 9.617188 3.179688 L 9.617188 6.28125 L 8.820312 7.078125 L 10.703125 11.488281 L 8.171875 11.488281 L 8.171875 10.328125 L 8.753906 10.328125 L 7.4375 7.277344 L 5.828125 7.277344 L 5.828125 10.308594 L 6.234375 10.308594 L 6.234375 11.480469 L 4.144531 11.480469 L 4.144531 10.308594 L 4.523438 10.308594 L 4.523438 3.5625 L 4.136719 3.5625 Z M 4.136719 2.410156 "/>
<path style=" stroke:none;fill-rule:nonzero;fill:rgb(100%,100%,100%);fill-opacity:1;" d="M 5.828125 3.566406 L 7.902344 3.566406 L 8.300781 3.949219 L 8.300781 5.710938 L 7.9375 6.09375 L 5.824219 6.09375 Z M 5.828125 3.566406 "/>
<path style=" stroke:none;fill-rule:nonzero;fill:rgb(13.72549%,12.156863%,12.54902%);fill-opacity:1;" d="M 6.246094 3.984375 L 7.75 3.984375 L 7.914062 4.136719 L 7.914062 5.539062 L 7.757812 5.699219 L 6.246094 5.699219 Z M 6.246094 3.984375 "/>
<path style=" stroke:none;fill-rule:nonzero;fill:rgb(100%,100%,100%);fill-opacity:1;" d="M 6.8125 4.566406 L 7.339844 4.566406 L 7.339844 5.132812 L 6.8125 5.132812 Z M 6.8125 4.566406 "/>
<path style=" stroke:none;fill-rule:nonzero;fill:rgb(13.72549%,12.156863%,12.54902%);fill-opacity:1;" d="M 6.246094 7.675781 L 7.183594 7.675781 L 8.117188 9.910156 L 7.761719 9.910156 L 7.761719 11.570312 L 6.625 11.570312 L 6.625 9.910156 L 6.246094 9.910156 Z M 6.246094 7.675781 "/>
<path style=" stroke:none;fill-rule:nonzero;fill:rgb(100%,100%,100%);fill-opacity:1;" d="M 6.800781 8.253906 L 6.800781 9.34375 L 7.261719 9.34375 Z M 6.800781 8.253906 "/>
<path style=" stroke:none;fill-rule:nonzero;fill:rgb(80.392157%,14.509804%,19.215686%);fill-opacity:1;" d="M 10.953125 3.679688 L 14.589844 3.679688 L 14.589844 4.867188 L 12.160156 4.867188 L 12.160156 6.699219 L 13.984375 6.699219 L 13.984375 7.90625 L 12.171875 7.90625 L 12.171875 9.710938 L 14.589844 9.710938 L 14.589844 10.90625 L 10.953125 10.90625 Z M 10.953125 3.679688 "/>
<path style=" stroke:none;fill-rule:nonzero;fill:rgb(100%,100%,100%);fill-opacity:1;" d="M 15.5 3.289062 L 19.113281 3.289062 L 19.933594 4.117188 L 19.933594 10.496094 L 19.097656 11.324219 L 15.5 11.324219 Z M 15.5 3.289062 "/>
<path style=" stroke:none;fill-rule:nonzero;fill:rgb(80.392157%,14.509804%,19.215686%);fill-opacity:1;" d="M 15.902344 3.683594 L 18.9375 3.683594 L 19.527344 4.292969 L 19.527344 10.3125 L 18.9375 10.914062 L 15.902344 10.914062 Z M 15.902344 3.683594 "/>
<path style=" stroke:none;fill-rule:nonzero;fill:rgb(100%,100%,100%);fill-opacity:1;" d="M 17.125 4.875 L 18.324219 4.875 L 18.324219 9.699219 L 17.125 9.699219 Z M 17.125 4.875 "/>
<path style=" stroke:none;fill-rule:nonzero;fill:rgb(13.72549%,12.156863%,12.54902%);fill-opacity:1;" d="M 17.511719 5.289062 L 17.941406 5.289062 L 17.941406 9.300781 L 17.511719 9.300781 Z M 17.511719 5.289062 "/>
<path style=" stroke:none;fill-rule:nonzero;fill:rgb(80.392157%,14.509804%,19.215686%);fill-opacity:1;" d="M 1.171875 11.96875 L 3.769531 11.96875 L 3.769531 13.257812 L 2.894531 13.257812 L 3.910156 18.578125 L 4.632812 14.980469 L 5.917969 14.980469 L 6.589844 18.441406 L 7.625 13.257812 L 6.796875 13.257812 L 6.796875 11.964844 L 9.386719 11.964844 L 7.660156 21.042969 L 5.925781 21.042969 L 5.253906 17.667969 L 4.632812 21.042969 L 2.90625 21.042969 Z M 1.171875 11.96875 "/>
<path style=" stroke:none;fill-rule:nonzero;fill:rgb(13.72549%,12.156863%,12.54902%);fill-opacity:1;" d="M 4.175781 11.898438 L 6.378906 11.898438 L 6.378906 13.679688 L 7.117188 13.679688 L 6.601562 16.308594 L 6.265625 14.59375 L 4.289062 14.59375 L 3.925781 16.476562 L 3.390625 13.675781 L 4.167969 13.675781 Z M 4.175781 11.898438 "/>
<path style=" stroke:none;fill-rule:nonzero;fill:rgb(100%,100%,100%);fill-opacity:1;" d="M 4.742188 12.460938 L 5.816406 12.460938 L 5.816406 14.023438 L 4.742188 14.023438 Z M 4.742188 12.460938 "/>
<path style=" stroke:none;fill-rule:nonzero;fill:rgb(100%,100%,100%);fill-opacity:1;" d="M 10.675781 12.78125 L 13.457031 12.78125 L 14.28125 13.617188 L 14.28125 19.992188 L 13.441406 20.832031 L 10.683594 20.832031 L 9.847656 20 L 9.847656 13.605469 Z M 10.675781 12.78125 "/>
<path style=" stroke:none;fill-rule:nonzero;fill:rgb(80.392157%,14.509804%,19.215686%);fill-opacity:1;" d="M 10.851562 13.183594 L 13.277344 13.183594 L 13.875 13.777344 L 13.875 19.820312 L 13.273438 20.425781 L 10.851562 20.425781 L 10.242188 19.816406 L 10.242188 13.785156 Z M 10.851562 13.183594 "/>
<path style=" stroke:none;fill-rule:nonzero;fill:rgb(100%,100%,100%);fill-opacity:1;" d="M 11.457031 14.394531 L 12.65625 14.394531 L 12.65625 19.222656 L 11.457031 19.222656 Z M 11.457031 14.394531 "/>
<path style=" stroke:none;fill-rule:nonzero;fill:rgb(13.72549%,12.156863%,12.54902%);fill-opacity:1;" d="M 11.863281 14.796875 L 12.253906 14.796875 L 12.253906 18.820312 L 11.863281 18.820312 Z M 11.863281 14.796875 "/>
<path style=" stroke:none;fill-rule:nonzero;fill:rgb(100%,100%,100%);fill-opacity:1;" d="M 14.863281 12.78125 L 16.890625 12.78125 L 16.890625 18.820312 L 19.101562 18.820312 L 18.304688 12.78125 L 20.332031 12.78125 L 20.582031 14.894531 L 20.816406 12.78125 L 22.851562 12.78125 L 21.8125 20.839844 L 19.359375 20.839844 L 19.3125 20.546875 L 19.304688 20.839844 L 14.859375 20.839844 Z M 14.863281 12.78125 "/>
<path style=" stroke:none;fill-rule:nonzero;fill:rgb(80.392157%,14.509804%,19.215686%);fill-opacity:1;" d="M 15.269531 13.171875 L 16.496094 13.171875 L 16.496094 19.230469 L 18.902344 19.230469 L 18.902344 20.425781 L 15.269531 20.425781 Z M 15.269531 13.171875 "/>
<path style=" stroke:none;fill-rule:nonzero;fill:rgb(80.392157%,14.509804%,19.215686%);fill-opacity:1;" d="M 18.761719 13.183594 L 19.984375 13.183594 L 20.5625 18.398438 L 21.1875 13.175781 L 22.402344 13.175781 L 21.445312 20.425781 L 19.703125 20.425781 Z M 18.761719 13.183594 "/>
<path style=" stroke:none;fill-rule:nonzero;fill:rgb(100%,100%,100%);fill-opacity:1;" d="M 23.128906 12.78125 L 27.566406 12.78125 L 27.566406 14.804688 L 25.144531 14.804688 L 25.144531 15.792969 L 26.964844 15.792969 L 26.964844 17.816406 L 25.144531 17.816406 L 25.144531 18.820312 L 27.558594 18.820312 L 27.558594 20.835938 L 23.128906 20.835938 Z M 23.128906 12.78125 "/>
<path style=" stroke:none;fill-rule:nonzero;fill:rgb(80.392157%,14.509804%,19.215686%);fill-opacity:1;" d="M 23.519531 13.179688 L 27.160156 13.179688 L 27.160156 14.375 L 24.730469 14.375 L 24.730469 16.199219 L 26.554688 16.199219 L 26.554688 17.394531 L 24.722656 17.394531 L 24.722656 19.234375 L 27.144531 19.234375 L 27.144531 20.421875 L 23.519531 20.421875 Z M 23.519531 13.179688 "/>
<path style=" stroke:none;fill-rule:nonzero;fill:rgb(100%,100%,100%);fill-opacity:1;" d="M 27.523438 16.570312 L 27.515625 17.558594 L 28.503906 17.558594 Z M 27.523438 16.570312 "/>
<path style=" stroke:none;fill-rule:nonzero;fill:rgb(100%,100%,100%);fill-opacity:1;" d="M 29.621094 11.5625 L 34.421875 11.5625 L 34.421875 14.917969 L 32.164062 14.917969 L 32.164062 13.890625 L 31.960938 13.6875 L 30.535156 13.6875 L 30.332031 13.902344 L 30.332031 15.25 L 30.523438 15.46875 L 33.1875 15.46875 L 34.429688 16.707031 L 34.429688 21.472656 L 29.414062 21.472656 L 28.082031 20.132812 L 28.082031 18.125 L 30.339844 18.125 L 30.339844 19.148438 L 30.519531 19.355469 L 32.1875 19.355469 L 32.1875 17.773438 L 31.976562 17.578125 L 29.316406 17.578125 L 28.082031 16.339844 L 28.082031 12.855469 Z M 29.621094 11.5625 "/>
<path style=" stroke:none;fill-rule:nonzero;fill:rgb(80.392157%,14.509804%,19.215686%);fill-opacity:1;" d="M 32.582031 14.507812 L 34.019531 14.507812 L 34.019531 11.96875 L 29.773438 11.96875 L 28.488281 13.058594 L 28.488281 16.164062 L 29.496094 17.160156 L 32.160156 17.160156 L 32.589844 17.601562 L 32.589844 19.757812 L 30.339844 19.757812 L 29.925781 19.351562 L 29.925781 18.53125 L 28.480469 18.53125 L 28.480469 19.945312 L 29.574219 21.050781 L 34.03125 21.050781 L 34.03125 16.894531 L 33.03125 15.890625 L 30.347656 15.890625 L 29.925781 15.449219 L 29.925781 13.714844 L 30.347656 13.292969 L 32.160156 13.292969 L 32.582031 13.726562 Z M 32.582031 14.507812 "/>
<path style=" stroke:none;fill-rule:nonzero;fill:rgb(100%,100%,100%);fill-opacity:1;" d="M 30.898438 14.253906 L 31.609375 14.253906 L 31.609375 14.898438 L 30.898438 14.898438 Z M 30.898438 14.253906 "/>
<path style=" stroke:none;fill-rule:nonzero;fill:rgb(100%,100%,100%);fill-opacity:1;" d="M 30.898438 18.148438 L 31.617188 18.148438 L 31.617188 18.796875 L 30.898438 18.796875 Z M 30.898438 18.148438 "/>
<path style=" stroke:none;fill-rule:nonzero;fill:rgb(100%,100%,100%);fill-opacity:1;" d="M 11.917969 11.882812 L 19.34375 11.882812 L 20.527344 10.707031 L 21.078125 11.117188 L 21.082031 11.011719 L 21.300781 11.226562 C 21.320312 11.8125 21.53125 12.023438 22.074219 12.207031 L 17.652344 12.207031 L 18.441406 18.246094 L 17.457031 18.246094 L 17.457031 12.207031 L 14.304688 12.207031 L 14.304688 12.824219 L 13.679688 12.203125 L 12.046875 12.203125 Z M 11.917969 11.882812 "/>
<path style=" stroke:none;fill-rule:nonzero;fill:rgb(100%,100%,100%);fill-opacity:1;" d="M 27.589844 12.210938 C 27.589844 12.210938 27.773438 11.746094 27.816406 11.664062 C 27.851562 11.59375 28.015625 11.664062 28.140625 11.742188 C 28.246094 11.8125 28.273438 11.949219 28.234375 11.984375 C 28.109375 12.109375 27.964844 12.214844 27.964844 12.214844 Z M 27.589844 12.210938 "/>
<path style=" stroke:none;fill-rule:nonzero;fill:rgb(100%,100%,100%);fill-opacity:1;" d="M 19.101562 7.835938 C 19.503906 6.324219 19.664062 5.90625 20.242188 5.335938 C 20.597656 4.984375 20.691406 5.035156 20.707031 4.847656 C 20.71875 4.664062 20.367188 4.246094 20.367188 3.429688 C 20.367188 2.511719 20.96875 1.375 21.035156 1.226562 C 21.097656 1.074219 21.1875 0.953125 21.300781 0.953125 C 21.472656 0.953125 21.628906 1.253906 21.921875 1.480469 C 22.617188 2.015625 22.902344 1.773438 23.632812 2.488281 C 23.769531 2.34375 24.105469 1.972656 24.105469 1.972656 C 24.105469 1.972656 24.433594 2.1875 24.519531 2.230469 C 24.605469 2.273438 24.648438 2.3125 24.753906 2.308594 C 24.921875 2.304688 25 2.164062 25.125 2 C 25.25 1.835938 25.414062 1.675781 25.414062 1.675781 C 25.414062 1.675781 25.679688 1.953125 25.757812 2.074219 C 25.835938 2.195312 25.949219 2.300781 26.070312 2.300781 C 26.289062 2.296875 26.402344 2.152344 26.734375 1.96875 C 26.886719 2.113281 27.210938 2.492188 27.210938 2.492188 C 27.371094 2.335938 27.554688 2.144531 27.90625 1.972656 C 28.355469 1.75 28.636719 1.804688 29.21875 1.175781 C 29.355469 1.03125 29.460938 0.949219 29.558594 0.949219 C 29.65625 0.949219 29.765625 1.070312 29.910156 1.433594 C 30.058594 1.796875 30.460938 2.640625 30.460938 3.441406 C 30.460938 4.070312 30.285156 4.40625 30.234375 4.53125 C 30.179688 4.65625 30.132812 4.722656 30.128906 4.847656 C 30.125 5.027344 30.371094 5.109375 30.570312 5.296875 C 31.101562 5.808594 31.230469 6.058594 31.734375 7.820312 C 31.488281 7.535156 31.199219 7.21875 31.199219 7.21875 C 31.289062 7.710938 31.25 8.046875 31.199219 8.441406 C 31.058594 8.292969 30.921875 8.160156 30.921875 8.160156 C 31.117188 8.484375 31.167969 8.695312 31.167969 8.910156 C 31.167969 9.125 31.105469 9.300781 30.785156 9.589844 C 30.75 9.550781 30.726562 9.511719 30.726562 9.511719 C 30.664062 9.882812 30.429688 10.15625 29.96875 10.460938 C 29.933594 10.363281 29.882812 10.25 29.882812 10.25 C 29.742188 10.449219 29.511719 10.65625 29.40625 10.761719 C 29.296875 10.863281 29.128906 10.996094 29.105469 11.234375 C 29.085938 11.472656 29.144531 11.585938 28.65625 11.820312 C 28.601562 11.570312 28.546875 11.484375 28.394531 11.40625 C 28.242188 11.332031 28.050781 11.1875 27.761719 11.191406 C 27.53125 11.195312 27.523438 11.265625 27.449219 11.433594 C 27.375 11.601562 27.0625 12.332031 27.0625 12.332031 C 27.101562 12.449219 27.234375 13.023438 26.5625 13.238281 C 26.402344 13.511719 26.089844 13.566406 25.960938 13.625 C 25.929688 13.492188 25.867188 13.347656 25.867188 13.347656 C 25.742188 13.605469 25.621094 13.839844 25.425781 13.839844 C 25.230469 13.839844 25.121094 13.675781 24.964844 13.339844 C 24.917969 13.519531 24.878906 13.664062 24.878906 13.664062 C 24.578125 13.539062 24.386719 13.390625 24.144531 13.175781 C 23.800781 13.085938 23.695312 12.804688 23.761719 12.328125 C 23.511719 11.714844 23.453125 11.570312 23.382812 11.421875 C 23.308594 11.269531 23.246094 11.1875 23.0625 11.1875 C 22.875 11.1875 22.277344 11.449219 22.246094 11.601562 C 22.214844 11.753906 22.191406 11.84375 22.191406 11.84375 C 21.863281 11.640625 21.730469 11.609375 21.71875 11.296875 C 21.710938 11.066406 21.6875 11.003906 21.582031 10.898438 C 21.476562 10.796875 21.09375 10.492188 20.957031 10.25 C 20.917969 10.367188 20.890625 10.472656 20.890625 10.472656 C 20.65625 10.332031 20.277344 10.148438 20.09375 9.53125 C 20.089844 9.585938 20.078125 9.59375 20.078125 9.59375 C 19.839844 9.414062 19.695312 8.921875 19.695312 8.921875 L 19.554688 7.320312 C 19.554688 7.320312 19.265625 7.648438 19.101562 7.835938 "/>
<path style=" stroke:none;fill-rule:nonzero;fill:rgb(100%,100%,100%);fill-opacity:1;" d="M 22.496094 12.210938 L 23.261719 12.210938 C 23.144531 11.964844 23.054688 11.636719 23.015625 11.628906 C 22.972656 11.617188 22.640625 11.753906 22.617188 11.828125 C 22.589844 11.902344 22.496094 12.210938 22.496094 12.210938 "/>
<path style=" stroke:none;fill-rule:nonzero;fill:rgb(13.72549%,12.156863%,12.54902%);fill-opacity:1;" d="M 21.292969 1.183594 C 22.355469 2.367188 22.804688 1.824219 23.550781 2.753906 C 23.808594 2.703125 24.128906 2.238281 24.128906 2.238281 C 24.289062 2.34375 24.527344 2.519531 24.746094 2.527344 C 24.964844 2.535156 25.132812 2.390625 25.40625 1.980469 C 25.535156 2.164062 25.789062 2.53125 26.042969 2.53125 C 26.296875 2.53125 26.707031 2.234375 26.707031 2.234375 C 26.867188 2.433594 26.972656 2.628906 27.269531 2.757812 C 28.136719 1.71875 28.378906 2.449219 29.535156 1.183594 C 29.789062 1.660156 30.242188 2.710938 30.242188 3.421875 C 30.242188 4.324219 29.910156 4.578125 29.910156 4.851562 C 29.910156 5.125 30.058594 5.167969 30.277344 5.339844 C 30.457031 5.476562 30.988281 5.910156 31.226562 6.941406 C 30.921875 6.59375 30.640625 6.542969 30.640625 6.542969 C 30.886719 6.949219 31.078125 7.296875 31.023438 7.960938 C 30.15625 7.246094 29.382812 6.730469 28.089844 6.628906 C 27.417969 7.316406 27.015625 7.382812 26.417969 7.46875 C 26.589844 7.601562 26.757812 7.652344 26.894531 7.652344 C 27.550781 7.644531 27.644531 6.890625 28.230469 6.890625 C 28.828125 6.890625 30.949219 7.78125 30.949219 8.875 C 30.949219 9.160156 30.777344 9.300781 30.777344 9.300781 C 30.695312 9.191406 30.480469 8.917969 30.480469 8.917969 C 30.660156 9.542969 30.363281 9.878906 30.070312 10.132812 C 29.988281 9.960938 29.875 9.785156 29.875 9.785156 C 29.769531 10.117188 29.59375 10.246094 29.378906 10.480469 C 29.160156 10.710938 28.914062 10.820312 28.894531 11.214844 C 28.878906 11.496094 28.792969 11.507812 28.792969 11.507812 C 28.617188 11.195312 28.089844 10.96875 27.761719 10.96875 C 27.503906 10.96875 27.351562 11.117188 27.324219 11.175781 C 27.265625 11.320312 26.824219 12.320312 26.824219 12.320312 C 26.914062 12.496094 26.914062 12.816406 26.667969 12.984375 C 26.652344 12.894531 26.5625 12.699219 26.5 12.671875 C 26.46875 13.128906 26.3125 13.183594 26.109375 13.347656 C 26.058594 13.210938 25.964844 13.050781 25.828125 12.972656 C 25.722656 13.164062 25.492188 13.621094 25.40625 13.621094 C 25.324219 13.621094 24.992188 12.980469 24.992188 12.980469 C 24.886719 13.035156 24.792969 13.199219 24.726562 13.363281 C 24.613281 13.289062 24.316406 13.128906 24.347656 12.675781 C 24.203125 12.773438 24.171875 12.953125 24.171875 13 C 24.03125 12.933594 23.878906 12.6875 24 12.3125 C 23.867188 12.03125 23.683594 11.570312 23.582031 11.351562 C 23.484375 11.136719 23.382812 10.976562 23.046875 10.976562 C 22.710938 10.976562 22.230469 11.1875 22.027344 11.515625 C 21.863281 11.449219 22.019531 11.082031 21.808594 10.847656 C 21.3125 10.296875 21.191406 10.34375 20.949219 9.808594 C 20.859375 9.964844 20.757812 10.140625 20.757812 10.140625 C 20.550781 10 20.109375 9.460938 20.355469 8.933594 C 20.199219 9.117188 20.0625 9.304688 20.0625 9.304688 C 19.921875 9.183594 19.882812 9.066406 19.882812 8.875 C 19.882812 7.882812 21.804688 6.902344 22.621094 6.902344 C 23.164062 6.902344 23.265625 7.652344 23.921875 7.652344 C 24.15625 7.652344 24.4375 7.464844 24.4375 7.464844 C 24 7.460938 23.519531 7.394531 22.722656 6.648438 C 21.339844 6.75 20.519531 7.394531 19.796875 7.988281 C 19.769531 7.316406 19.964844 6.792969 20.195312 6.539062 C 19.863281 6.675781 19.71875 6.800781 19.570312 6.957031 C 19.898438 5.867188 20.300781 5.535156 20.636719 5.269531 C 20.851562 5.101562 20.914062 5.074219 20.914062 4.851562 C 20.914062 4.585938 20.574219 4.21875 20.582031 3.421875 C 20.59375 2.71875 20.902344 1.980469 21.292969 1.183594 "/>
<path style=" stroke:none;fill-rule:nonzero;fill:rgb(80.392157%,14.509804%,19.215686%);fill-opacity:1;" d="M 21.316406 1.855469 C 21.875 2.761719 22.285156 2.675781 22.363281 3.589844 C 22.027344 2.9375 21.414062 2.808594 21.332031 2.449219 C 21.167969 2.660156 21.152344 3.121094 21.570312 3.632812 C 21.402344 3.582031 21.226562 3.488281 21.226562 3.488281 C 21.394531 3.730469 21.90625 4.210938 21.710938 4.855469 C 21.484375 4.863281 21.308594 4.902344 21.21875 4.941406 C 21.296875 4.242188 20.964844 3.941406 20.964844 3.335938 C 20.964844 2.730469 21.21875 2.097656 21.316406 1.855469 "/>
<path style=" stroke:none;fill-rule:nonzero;fill:rgb(80.392157%,14.509804%,19.215686%);fill-opacity:1;" d="M 22.339844 2.433594 C 23.246094 2.804688 23.417969 3.332031 23.25 4.382812 C 23.421875 4.351562 23.460938 4.375 23.625 4.394531 C 23.433594 4.539062 23.050781 4.867188 22.882812 5.304688 C 22.597656 5.0625 22.25 4.96875 22.125 4.941406 C 22.410156 4.65625 23.191406 3.597656 22.339844 2.433594 "/>
<path style=" stroke:none;fill-rule:nonzero;fill:rgb(80.392157%,14.509804%,19.215686%);fill-opacity:1;" d="M 28.414062 2.429688 C 27.660156 3.386719 28.179688 4.472656 28.628906 4.933594 C 28.351562 4.996094 28.011719 5.136719 27.898438 5.269531 C 27.6875 4.890625 27.378906 4.558594 27.078125 4.363281 C 27.203125 4.3125 27.515625 4.386719 27.515625 4.386719 C 27.398438 3.652344 27.277344 2.886719 28.414062 2.429688 "/>
<path style=" stroke:none;fill-rule:nonzero;fill:rgb(80.392157%,14.509804%,19.215686%);fill-opacity:1;" d="M 29.449219 1.9375 C 29.59375 2.324219 29.816406 2.894531 29.816406 3.488281 C 29.816406 4.082031 29.503906 4.542969 29.546875 5.019531 C 29.382812 4.953125 29.125 4.90625 29.019531 4.90625 C 28.964844 4.550781 29.101562 4.046875 29.542969 3.558594 C 29.320312 3.722656 29.226562 3.664062 29.199219 3.664062 C 29.382812 3.433594 29.703125 3.113281 29.449219 2.53125 C 29.363281 2.796875 29.15625 2.875 28.929688 3.066406 C 28.703125 3.257812 28.480469 3.46875 28.410156 3.703125 C 28.445312 2.777344 29.101562 2.632812 29.449219 1.9375 "/>
<path style=" stroke:none;fill-rule:nonzero;fill:rgb(100%,100%,100%);fill-opacity:1;" d="M 24.417969 11.441406 C 24.734375 11.535156 26.039062 11.605469 26.414062 11.4375 C 26.300781 11.648438 26.125 11.980469 26.125 11.980469 L 25.953125 11.65625 L 25.753906 11.832031 L 25.597656 11.667969 L 25.410156 11.792969 L 25.25 11.667969 L 25.089844 11.84375 L 24.867188 11.640625 L 24.6875 11.964844 C 24.6875 11.964844 24.523438 11.640625 24.417969 11.441406 "/>
<path style=" stroke:none;fill-rule:nonzero;fill:rgb(100%,100%,100%);fill-opacity:1;" d="M 24.851562 12.226562 C 24.894531 12.183594 24.996094 12.089844 24.996094 12.089844 L 25.140625 12.230469 L 25.292969 12.066406 L 25.417969 12.207031 L 25.535156 12.078125 L 25.671875 12.21875 L 25.855469 12.082031 L 25.96875 12.230469 C 25.777344 12.398438 25.179688 12.464844 24.851562 12.226562 "/>
<path style=" stroke:none;fill-rule:nonzero;fill:rgb(80.392157%,14.509804%,19.215686%);fill-opacity:1;" d="M 23.597656 10.453125 L 23.78125 10.457031 C 24.003906 10.925781 24.40625 11.847656 24.496094 12.046875 C 24.582031 12.246094 24.84375 12.503906 25.386719 12.503906 C 25.929688 12.503906 26.167969 12.328125 26.34375 11.980469 C 26.523438 11.636719 27.046875 10.4375 27.046875 10.4375 L 27.25 10.433594 C 27.25 10.433594 26.546875 12.011719 26.480469 12.199219 C 26.375 12.222656 26.109375 12.46875 26.0625 12.671875 C 25.867188 12.558594 25.609375 12.59375 25.410156 12.851562 C 25.261719 12.625 24.9375 12.519531 24.746094 12.652344 C 24.671875 12.382812 24.414062 12.199219 24.332031 12.175781 C 24.171875 11.820312 23.597656 10.453125 23.597656 10.453125 "/>
<path style=" stroke:none;fill-rule:nonzero;fill:rgb(80.392157%,14.509804%,19.215686%);fill-opacity:1;" d="M 25.414062 2.996094 C 25.574219 3.222656 25.894531 3.609375 26.613281 3.167969 C 26.730469 3.410156 26.933594 3.511719 27.050781 3.539062 C 27.007812 3.804688 27.007812 3.949219 27.050781 4.074219 C 26.910156 3.972656 26.753906 3.804688 26.699219 3.726562 C 26.609375 3.851562 26.464844 4.058594 26.464844 4.058594 C 26.277344 3.875 25.980469 3.648438 25.804688 3.632812 C 25.882812 3.726562 25.996094 3.9375 25.996094 3.9375 L 25.570312 4.257812 C 26.253906 4.257812 26.972656 4.234375 27.839844 5.742188 C 28.421875 5.367188 29.515625 4.835938 30.488281 6.175781 C 30.179688 6.148438 30.046875 6.324219 30.046875 6.324219 C 30.359375 6.679688 30.433594 6.804688 30.546875 7.222656 C 30.070312 6.8125 29.527344 6.484375 28.144531 6.4375 C 28.238281 6.257812 28.324219 6.019531 28.324219 6.019531 L 28.210938 5.972656 C 27.972656 6.339844 27.375 7.070312 26.386719 7.070312 C 26.191406 7.070312 26.023438 7.191406 25.9375 7.277344 C 25.5625 7.5625 25.617188 7.722656 25.617188 7.722656 C 25.835938 7.695312 26.078125 7.644531 26.078125 7.644531 C 26.300781 7.917969 26.613281 8.066406 26.875 8.066406 C 27.132812 8.066406 27.640625 7.984375 28.171875 7.378906 C 28.476562 7.773438 28.636719 7.921875 28.808594 8.371094 C 28.476562 8.304688 28.113281 8.375 27.863281 8.582031 C 28.144531 8.773438 28.335938 9.011719 28.390625 9.269531 C 28.144531 9.160156 27.75 8.914062 27.4375 8.90625 C 27.585938 9.148438 27.707031 9.3125 27.707031 9.554688 C 27.707031 9.796875 27.363281 9.972656 26.800781 10.121094 C 26.625 10.582031 26.523438 10.839844 26.46875 10.992188 C 26.402344 11.183594 26.132812 11.246094 25.414062 11.246094 C 24.433594 11.246094 24.429688 11.144531 24.355469 10.992188 C 24.304688 10.882812 24.015625 10.128906 24.015625 10.128906 C 23.582031 10.039062 23.117188 9.832031 23.117188 9.542969 C 23.117188 9.253906 23.363281 8.882812 23.363281 8.882812 C 23.085938 8.988281 22.566406 9.171875 22.441406 9.253906 C 22.5625 8.894531 22.796875 8.679688 22.972656 8.585938 C 22.671875 8.308594 22.253906 8.371094 22.023438 8.382812 C 22.070312 8.085938 22.539062 7.457031 22.671875 7.378906 C 22.886719 7.699219 23.449219 8.066406 23.902344 8.066406 C 24.355469 8.066406 24.761719 7.65625 24.761719 7.65625 C 24.976562 7.695312 25.242188 7.734375 25.242188 7.734375 C 25.21875 7.5625 24.828125 7.132812 24.542969 7.109375 C 24.257812 7.082031 23.140625 6.957031 22.621094 5.949219 C 22.542969 5.992188 22.511719 6.027344 22.511719 6.027344 L 22.671875 6.4375 C 22.164062 6.441406 21.128906 6.480469 20.261719 7.203125 C 20.351562 6.714844 20.785156 6.316406 20.785156 6.316406 C 20.566406 6.125 20.339844 6.171875 20.339844 6.171875 C 20.742188 5.707031 21.179688 5.320312 21.835938 5.320312 C 22.339844 5.320312 22.804688 5.632812 22.992188 5.75 C 23.539062 4.824219 24.003906 4.238281 25.261719 4.261719 C 25.082031 4.105469 24.832031 3.890625 24.832031 3.890625 L 24.996094 3.652344 C 24.835938 3.632812 24.570312 3.832031 24.386719 4.03125 C 24.25 3.867188 24.140625 3.71875 24.140625 3.71875 L 23.78125 4.074219 C 23.804688 3.917969 23.839844 3.632812 23.761719 3.546875 C 23.9375 3.472656 24.101562 3.359375 24.242188 3.175781 C 24.511719 3.375 24.9375 3.617188 25.414062 2.996094 "/>
<path style=" stroke:none;fill-rule:nonzero;fill:rgb(13.72549%,12.156863%,12.54902%);fill-opacity:1;" d="M 24.675781 5.820312 C 24.976562 5.929688 25.28125 6.683594 24.84375 7.058594 C 24.421875 6.363281 24.066406 6.164062 23.070312 6.042969 C 23.328125 5.886719 24.511719 5.851562 24.742188 6.214844 C 24.730469 6.0625 24.722656 5.9375 24.675781 5.820312 "/>
<path style=" stroke:none;fill-rule:nonzero;fill:rgb(13.72549%,12.156863%,12.54902%);fill-opacity:1;" d="M 26.144531 5.816406 C 26.105469 5.976562 26.089844 6.074219 26.066406 6.207031 C 26.398438 5.949219 26.785156 5.894531 27.761719 6.03125 C 26.789062 6.21875 26.441406 6.273438 25.945312 7.078125 C 25.5625 6.683594 25.769531 5.976562 26.144531 5.816406 "/>
<path style=" stroke:none;fill-rule:nonzero;fill:rgb(13.72549%,12.156863%,12.54902%);fill-opacity:1;" d="M 24.167969 8.824219 C 24.386719 8.519531 24.800781 7.75 25.402344 8.207031 C 25.734375 7.933594 26.367188 8.082031 26.613281 8.847656 C 26.367188 8.839844 25.933594 8.121094 25.40625 8.550781 C 25.03125 8.054688 24.464844 8.859375 24.167969 8.824219 "/>
<path style=" stroke:none;fill-rule:nonzero;fill:rgb(13.72549%,12.156863%,12.54902%);fill-opacity:1;" d="M 24.324219 9.558594 C 24.441406 9.300781 24.839844 8.570312 25.394531 8.980469 C 25.617188 8.671875 26.3125 8.890625 26.480469 9.523438 C 26.226562 9.507812 25.835938 8.878906 25.40625 9.304688 C 25.117188 8.871094 24.535156 9.507812 24.324219 9.558594 "/>
<path style=" stroke:none;fill-rule:nonzero;fill:rgb(13.72549%,12.156863%,12.54902%);fill-opacity:1;" d="M 25.414062 9.742188 C 25.667969 9.742188 25.582031 9.875 25.800781 9.878906 C 25.96875 9.886719 26.089844 9.777344 26.199219 9.90625 C 26.304688 10.03125 26.5 10.207031 26.425781 10.359375 C 26.355469 10.507812 26.226562 10.730469 26.160156 10.847656 C 26.09375 10.960938 26.011719 11.003906 25.890625 11.003906 C 25.546875 11.003906 25.574219 10.839844 25.417969 10.839844 C 25.261719 10.839844 25.261719 11.003906 24.933594 11.003906 C 24.71875 11.003906 24.695312 10.894531 24.632812 10.796875 C 24.574219 10.703125 24.402344 10.425781 24.402344 10.242188 C 24.402344 10.0625 24.621094 9.832031 24.816406 9.832031 C 25.007812 9.832031 25.015625 9.863281 25.085938 9.863281 C 25.226562 9.863281 25.195312 9.742188 25.414062 9.742188 "/>
<path style=" stroke:none;fill-rule:nonzero;fill:rgb(13.72549%,12.156863%,12.54902%);fill-opacity:1;" d="M 10.515625 24.046875 L 10.414062 23.160156 L 10.320312 24.046875 Z M 9.902344 24.675781 L 10.199219 22.453125 L 10.628906 22.453125 L 10.925781 24.679688 L 11.058594 24.679688 L 11.058594 24.976562 L 10.605469 24.976562 L 10.550781 24.378906 L 10.273438 24.378906 L 10.207031 24.980469 L 9.761719 24.980469 L 9.753906 24.675781 Z M 9.902344 24.675781 "/>
<path style=" stroke:none;fill-rule:nonzero;fill:rgb(13.72549%,12.156863%,12.54902%);fill-opacity:1;" d="M 14.394531 24.058594 L 14.296875 23.171875 L 14.203125 24.058594 Z M 13.78125 24.6875 L 14.082031 22.464844 L 14.511719 22.464844 L 14.808594 24.691406 L 14.941406 24.691406 L 14.941406 24.988281 L 14.488281 24.988281 L 14.433594 24.390625 L 14.15625 24.390625 L 14.089844 24.992188 L 13.640625 24.992188 L 13.636719 24.6875 Z M 13.78125 24.6875 "/>
<path style=" stroke:none;fill-rule:nonzero;fill:rgb(13.72549%,12.156863%,12.54902%);fill-opacity:1;" d="M 18.21875 24.058594 L 18.121094 23.171875 L 18.027344 24.058594 Z M 17.605469 24.6875 L 17.902344 22.464844 L 18.335938 22.464844 L 18.628906 24.691406 L 18.765625 24.691406 L 18.765625 24.988281 L 18.3125 24.988281 L 18.257812 24.390625 L 17.980469 24.390625 L 17.914062 24.992188 L 17.464844 24.992188 L 17.460938 24.6875 Z M 17.605469 24.6875 "/>
<path style=" stroke:none;fill-rule:nonzero;fill:rgb(13.72549%,12.156863%,12.54902%);fill-opacity:1;" d="M 23.777344 24.0625 L 23.679688 23.175781 L 23.582031 24.0625 Z M 23.164062 24.691406 L 23.460938 22.46875 L 23.890625 22.46875 L 24.1875 24.695312 L 24.320312 24.695312 L 24.320312 24.992188 L 23.867188 24.992188 L 23.8125 24.394531 L 23.535156 24.394531 L 23.472656 24.996094 L 23.023438 24.996094 L 23.019531 24.691406 Z M 23.164062 24.691406 "/>
<path style=" stroke:none;fill-rule:nonzero;fill:rgb(13.72549%,12.156863%,12.54902%);fill-opacity:1;" d="M 11.574219 23.53125 L 11.761719 23.53125 C 11.835938 23.53125 11.855469 23.472656 11.855469 23.382812 L 11.855469 22.894531 C 11.855469 22.785156 11.816406 22.746094 11.761719 22.746094 L 11.570312 22.746094 Z M 11.121094 22.460938 L 11.894531 22.460938 C 12.046875 22.460938 12.191406 22.585938 12.191406 22.816406 L 12.191406 23.429688 C 12.191406 23.523438 12.183594 23.644531 12.082031 23.691406 C 12.183594 23.742188 12.210938 23.800781 12.210938 23.917969 L 12.210938 24.679688 L 12.34375 24.679688 L 12.34375 24.976562 L 11.871094 24.976562 L 11.871094 23.988281 C 11.871094 23.882812 11.832031 23.894531 11.773438 23.894531 L 11.582031 23.894531 L 11.582031 24.972656 L 11.117188 24.972656 L 11.117188 24.679688 L 11.234375 24.679688 L 11.234375 22.746094 L 11.117188 22.746094 Z M 11.121094 22.460938 "/>
<path style=" stroke:none;fill-rule:nonzero;fill:rgb(13.72549%,12.156863%,12.54902%);fill-opacity:1;" d="M 12.414062 22.457031 L 12.875 22.457031 L 12.875 23.539062 L 13.207031 22.453125 L 13.59375 22.453125 L 13.59375 22.746094 L 13.457031 22.746094 L 13.199219 23.566406 C 13.351562 23.566406 13.472656 23.648438 13.472656 23.785156 L 13.472656 24.675781 L 13.597656 24.675781 L 13.597656 24.976562 L 13.136719 24.976562 L 13.136719 23.988281 C 13.136719 23.886719 13.117188 23.863281 13.058594 23.863281 L 12.875 23.863281 L 12.875 24.976562 L 12.414062 24.976562 L 12.414062 24.679688 L 12.535156 24.679688 L 12.535156 22.746094 L 12.414062 22.746094 Z M 12.414062 22.457031 "/>
<path style=" stroke:none;fill-rule:nonzero;fill:rgb(13.72549%,12.156863%,12.54902%);fill-opacity:1;" d="M 15.007812 22.457031 L 15.5 22.457031 L 15.886719 23.875 L 15.886719 22.464844 L 16.335938 22.464844 L 16.335938 22.777344 L 16.21875 22.777344 L 16.21875 24.980469 L 15.886719 24.980469 L 15.464844 23.464844 L 15.464844 24.980469 L 15.007812 24.980469 L 15.007812 24.679688 L 15.128906 24.679688 L 15.128906 22.746094 L 15.007812 22.746094 Z M 15.007812 22.457031 "/>
<path style=" stroke:none;fill-rule:nonzero;fill:rgb(13.72549%,12.156863%,12.54902%);fill-opacity:1;" d="M 16.722656 22.460938 L 17.367188 22.460938 L 17.367188 23.046875 L 17.03125 23.046875 L 17.03125 22.746094 L 16.855469 22.746094 C 16.800781 22.746094 16.761719 22.769531 16.761719 22.84375 L 16.761719 23.441406 C 16.761719 23.484375 16.769531 23.53125 16.839844 23.53125 L 17.078125 23.53125 C 17.230469 23.53125 17.398438 23.65625 17.398438 23.835938 L 17.398438 24.667969 C 17.398438 24.769531 17.285156 24.980469 17.09375 24.980469 L 16.429688 24.980469 L 16.429688 24.375 L 16.765625 24.375 L 16.765625 24.683594 L 16.957031 24.683594 C 17.003906 24.683594 17.066406 24.664062 17.066406 24.554688 L 17.066406 23.964844 C 17.066406 23.902344 17.042969 23.863281 16.964844 23.863281 L 16.726562 23.863281 C 16.625 23.863281 16.429688 23.78125 16.429688 23.574219 L 16.429688 22.75 C 16.429688 22.601562 16.5625 22.460938 16.722656 22.460938 "/>
<path style=" stroke:none;fill-rule:nonzero;fill:rgb(13.72549%,12.156863%,12.54902%);fill-opacity:1;" d="M 19.164062 22.472656 L 19.808594 22.472656 L 19.808594 23.058594 L 19.46875 23.058594 L 19.46875 22.757812 L 19.296875 22.757812 C 19.242188 22.757812 19.199219 22.78125 19.199219 22.855469 L 19.199219 23.453125 C 19.199219 23.496094 19.210938 23.542969 19.277344 23.542969 L 19.519531 23.542969 C 19.671875 23.542969 19.835938 23.667969 19.835938 23.84375 L 19.835938 24.679688 C 19.835938 24.777344 19.726562 24.992188 19.535156 24.992188 L 18.871094 24.992188 L 18.871094 24.386719 L 19.207031 24.386719 L 19.207031 24.695312 L 19.398438 24.695312 C 19.445312 24.695312 19.503906 24.675781 19.503906 24.566406 L 19.503906 23.976562 C 19.503906 23.914062 19.484375 23.875 19.40625 23.875 L 19.167969 23.875 C 19.066406 23.875 18.871094 23.792969 18.871094 23.582031 L 18.871094 22.761719 C 18.871094 22.613281 19.003906 22.472656 19.164062 22.472656 "/>
<path style=" stroke:none;fill-rule:nonzero;fill:rgb(13.72549%,12.156863%,12.54902%);fill-opacity:1;" d="M 20.988281 22.472656 L 21.632812 22.472656 L 21.632812 23.058594 L 21.296875 23.058594 L 21.296875 22.757812 L 21.121094 22.757812 C 21.066406 22.757812 21.027344 22.78125 21.027344 22.855469 L 21.027344 23.453125 C 21.027344 23.496094 21.035156 23.542969 21.105469 23.542969 L 21.34375 23.542969 C 21.496094 23.542969 21.664062 23.667969 21.664062 23.84375 L 21.664062 24.679688 C 21.664062 24.777344 21.554688 24.992188 21.363281 24.992188 L 20.695312 24.992188 L 20.695312 24.386719 L 21.03125 24.386719 L 21.03125 24.695312 L 21.226562 24.695312 C 21.269531 24.695312 21.332031 24.675781 21.332031 24.566406 L 21.332031 23.976562 C 21.332031 23.914062 21.308594 23.875 21.230469 23.875 L 20.992188 23.875 C 20.894531 23.875 20.695312 23.792969 20.695312 23.582031 L 20.695312 22.761719 C 20.695312 22.613281 20.828125 22.472656 20.988281 22.472656 "/>
<path style=" stroke:none;fill-rule:nonzero;fill:rgb(13.72549%,12.156863%,12.54902%);fill-opacity:1;" d="M 24.363281 23.046875 L 24.363281 22.445312 L 25.597656 22.445312 L 25.597656 23.054688 L 25.265625 23.054688 L 25.265625 22.742188 L 25.144531 22.742188 L 25.144531 24.679688 L 25.28125 24.679688 L 25.28125 24.972656 L 24.675781 24.972656 L 24.675781 24.675781 L 24.804688 24.675781 L 24.804688 22.746094 L 24.683594 22.746094 L 24.683594 23.046875 Z M 24.363281 23.046875 "/>
<path style=" stroke:none;fill-rule:nonzero;fill:rgb(13.72549%,12.156863%,12.54902%);fill-opacity:1;" d="M 21.75 23.074219 L 21.75 22.472656 L 22.984375 22.472656 L 22.984375 23.078125 L 22.652344 23.078125 L 22.652344 22.769531 L 22.53125 22.769531 L 22.53125 24.707031 L 22.667969 24.707031 L 22.667969 25 L 22.0625 25 L 22.0625 24.703125 L 22.191406 24.703125 L 22.191406 22.773438 L 22.070312 22.773438 L 22.070312 23.074219 Z M 21.75 23.074219 "/>
<path style=" stroke:none;fill-rule:nonzero;fill:rgb(13.72549%,12.156863%,12.54902%);fill-opacity:1;" d="M 25.671875 22.457031 L 26.738281 22.457031 L 26.738281 23.109375 L 26.398438 23.109375 L 26.398438 22.742188 L 26.125 22.742188 L 26.125 23.546875 L 26.542969 23.546875 L 26.542969 23.851562 L 26.128906 23.851562 L 26.128906 24.679688 L 26.417969 24.679688 L 26.417969 24.3125 L 26.757812 24.3125 L 26.757812 24.96875 L 25.671875 24.96875 L 25.671875 24.679688 L 25.789062 24.679688 L 25.789062 22.742188 L 25.671875 22.742188 Z M 25.671875 22.457031 "/>
</g>
</svg>
