<?xml version="1.0" encoding="UTF-8"?>
<svg xmlns="http://www.w3.org/2000/svg" xmlns:xlink="http://www.w3.org/1999/xlink" width="35pt" height="25pt" viewBox="0 0 35 25" version="1.1">
<g id="surface1">
<path style=" stroke:none;fill-rule:evenodd;fill:rgb(6.666667%,6.666667%,6.666667%);fill-opacity:1;" d="M 17.339844 22.394531 C 17.339844 22.394531 17.25 21.609375 17.324219 21.125 C 17.367188 20.851562 17.660156 20.09375 17.945312 20.160156 C 17.867188 19.746094 18.222656 19.480469 18.222656 19.480469 C 18.222656 19.480469 17.492188 19.742188 16.714844 19.296875 C 15.960938 18.867188 15.996094 18.050781 15.996094 18.050781 C 15.996094 18.050781 16.078125 19.148438 15.277344 19.984375 C 15.324219 19.792969 15.027344 15.871094 10.539062 14.632812 C 8.21875 13.992188 6 15.113281 6 15.113281 C 6.824219 11.867188 9.632812 10.769531 9.632812 10.769531 C 9.632812 10.769531 9.261719 10.761719 8.875 10.847656 C 8.648438 10.898438 8.296875 11.046875 8.296875 11.046875 C 8.296875 11.046875 9.796875 7.382812 13.859375 6.761719 C 13.964844 6.746094 13.660156 6.402344 13.289062 6.382812 C 12.914062 6.359375 12.539062 6.679688 12.539062 6.679688 C 12.539062 6.679688 12.21875 5.886719 13.269531 5.253906 C 13.824219 4.917969 14.453125 5.164062 14.453125 5.164062 C 14.453125 5.164062 14.320312 4.492188 13.730469 4.265625 C 12.945312 3.960938 12.570312 4.21875 12.570312 4.21875 C 12.570312 4.21875 13.023438 3.300781 14.25 3.085938 C 15.5625 2.859375 16.285156 3.296875 16.285156 3.296875 C 16.285156 3.296875 17.476562 -0.0820312 21.488281 0 C 26.890625 0.117188 27.148438 5.253906 25.449219 7.761719 C 25.625 7.117188 25.457031 5.667969 24.039062 5.699219 C 22.808594 5.722656 22.679688 7.070312 22.679688 7.070312 C 22.679688 7.070312 23.382812 7.242188 24.132812 7.84375 C 24.789062 8.367188 25.203125 8.875 25.210938 9.269531 C 25.21875 9.582031 25.152344 9.640625 25.152344 9.640625 C 25.242188 9.742188 26.585938 10.976562 26.75 12.210938 C 26.910156 13.445312 26.59375 14.402344 26.59375 14.402344 C 26.59375 14.402344 28.105469 16.101562 28.289062 17.628906 C 28.667969 20.808594 27.246094 21.644531 27.246094 21.644531 C 27.246094 21.644531 27.335938 21.222656 27.242188 20.878906 C 27.152344 20.539062 26.996094 20.359375 26.996094 20.359375 C 26.996094 20.359375 26.925781 21.890625 26.492188 22.578125 C 26.0625 23.265625 25.109375 24.019531 24.582031 24.035156 L 24.050781 24.050781 C 24.050781 24.050781 23.476562 24.828125 22.9375 24.953125 C 22.398438 25.074219 21.722656 24.710938 21.722656 24.710938 C 21.722656 24.710938 21.125 25.007812 20.675781 25 C 20.226562 24.988281 19.28125 23.941406 18.878906 23.835938 C 17.679688 23.519531 17.328125 22.304688 17.328125 22.304688 C 17.328125 22.304688 17.34375 22.242188 17.339844 22.394531 "/>
<path style=" stroke:none;fill-rule:nonzero;fill:rgb(63.529412%,46.666667%,32.156863%);fill-opacity:1;" d="M 21.734375 0.960938 C 21.507812 0.957031 21.269531 0.960938 21.015625 0.984375 C 16.96875 1.339844 17.308594 4.726562 17.308594 4.726562 C 17.308594 4.726562 16.71875 4.019531 15.839844 3.890625 C 14.957031 3.761719 14.226562 3.984375 14.226562 3.984375 C 14.226562 3.984375 15.140625 4.125 15.433594 4.9375 C 15.664062 5.582031 15.34375 6.261719 15.34375 6.261719 C 15.34375 6.261719 16.339844 5.898438 17.992188 6.007812 C 19.640625 6.117188 20.296875 6.410156 20.296875 6.410156 C 20.296875 6.410156 20.605469 4.835938 22.300781 4.363281 C 24.304688 3.800781 25.367188 4.890625 25.367188 4.890625 C 25.4375 4.277344 25.113281 1.070312 21.734375 0.960938 Z M 24.351562 10.085938 C 24.351562 10.085938 23.261719 11.253906 22.460938 11.429688 C 21.933594 11.546875 21.644531 11.203125 20.941406 10.953125 C 20.234375 10.699219 19.382812 10.730469 19.105469 11.46875 C 18.828125 12.203125 19.152344 13.128906 20.261719 13.441406 C 21.371094 13.757812 23.453125 13.007812 23.453125 13.007812 L 22.84375 12.863281 C 22.84375 12.863281 20.957031 13.269531 20.214844 13.105469 C 19.476562 12.945312 19.230469 11.925781 19.488281 11.417969 C 19.742188 10.914062 20.472656 11.164062 20.472656 11.164062 C 20.472656 11.164062 24.570312 12.925781 24.992188 13.1875 C 25.414062 13.449219 25.9375 14.101562 25.9375 14.101562 C 25.9375 14.101562 26.214844 13.023438 25.902344 11.898438 C 25.589844 10.773438 24.351562 10.082031 24.351562 10.082031 Z M 20.382812 13.871094 C 19.628906 13.851562 18.472656 13.9375 17.660156 14.542969 C 16.417969 15.464844 16.011719 16.664062 16.53125 17.703125 C 17 18.636719 17.992188 18.738281 18.464844 18.648438 C 18.933594 18.558594 19.730469 18.011719 19.882812 17.042969 C 20.039062 16.070312 20.234375 15.195312 20.460938 14.871094 C 20.6875 14.546875 21.144531 13.933594 21.144531 13.933594 C 21.144531 13.933594 20.835938 13.882812 20.382812 13.871094 Z M 22.195312 13.933594 C 22.195312 13.933594 21.546875 14.359375 21.347656 14.613281 C 21.148438 14.871094 20.820312 15.679688 20.871094 16.28125 C 20.949219 17.167969 20.636719 17.578125 20.636719 17.578125 C 20.636719 17.578125 21.023438 17.601562 21.410156 17.320312 C 22.023438 16.867188 21.726562 15.664062 21.78125 15.023438 C 21.835938 14.378906 22.195312 13.933594 22.195312 13.933594 Z M 22.195312 13.933594 "/>
<path style=" stroke:none;fill-rule:nonzero;fill:rgb(0%,43.529412%,44.313725%);fill-opacity:1;" d="M 18.757812 6.871094 C 18.285156 6.863281 17.769531 6.890625 17.203125 6.964844 C 12.84375 7.535156 10.414062 10.285156 10.414062 10.285156 C 10.414062 10.285156 11.117188 9.898438 11.855469 9.816406 C 12.886719 9.699219 13.390625 10.140625 13.390625 10.140625 C 13.390625 10.140625 12.441406 10.082031 11.0625 10.878906 C 8.789062 12.191406 8.652344 13.34375 8.652344 13.34375 C 8.652344 13.34375 9.523438 12.976562 11.203125 13.417969 C 12.34375 13.714844 13.414062 14.757812 13.414062 14.757812 C 13.414062 14.757812 13.328125 14.191406 13.230469 13.925781 C 13.132812 13.660156 13.070312 13.492188 13.070312 13.492188 C 13.070312 13.492188 13.777344 13.703125 14.683594 14.890625 C 15.191406 15.554688 15.417969 16.871094 15.417969 16.871094 C 15.417969 16.871094 15.609375 15.210938 16.941406 14.199219 C 18.273438 13.183594 19.0625 13.390625 19.0625 13.390625 C 19.0625 13.390625 18.136719 12.5 18.566406 11.441406 C 18.996094 10.382812 20.019531 10.394531 20.523438 10.472656 C 21.03125 10.554688 21.5 10.863281 21.71875 10.925781 C 21.941406 10.992188 22.238281 11.164062 22.6875 10.925781 C 23.136719 10.6875 23.605469 10.191406 23.605469 10.191406 L 23.882812 9.796875 C 23.882812 9.796875 24.140625 9.789062 24.21875 9.710938 C 24.296875 9.632812 24.441406 9.527344 24.230469 9.027344 C 23.949219 8.371094 23.121094 8.015625 23.121094 8.015625 C 23.121094 8.015625 23.25 8.230469 23.253906 8.441406 C 23.257812 8.65625 23.210938 8.800781 23.210938 8.800781 C 23.210938 8.800781 22.070312 6.941406 18.757812 6.871094 Z M 23.21875 13.761719 C 23.21875 13.761719 22.859375 13.941406 22.75 15 C 22.640625 16.058594 22.832031 16.734375 22.515625 17.28125 C 21.875 18.378906 20.6875 18.207031 20.6875 18.207031 C 20.6875 18.207031 20.996094 18.289062 21.082031 18.492188 C 21.167969 18.699219 21.082031 18.796875 21.082031 18.796875 C 21.082031 18.796875 21.289062 18.589844 21.398438 18.578125 C 21.507812 18.570312 21.679688 18.585938 21.679688 18.585938 C 21.675781 18.410156 21.523438 18.300781 21.523438 18.300781 C 21.523438 18.300781 21.941406 18.417969 22.242188 18.742188 C 22.671875 19.207031 22.578125 19.535156 22.578125 19.535156 C 22.578125 19.535156 22.710938 19.433594 22.800781 19.421875 C 23.007812 19.386719 23.140625 19.441406 23.140625 19.441406 L 22.898438 19.238281 C 22.898438 19.238281 23.070312 19.203125 23.183594 19.210938 C 23.316406 19.21875 23.515625 19.296875 23.515625 19.296875 C 23.515625 19.296875 23.488281 19.167969 23.390625 19.054688 C 23.328125 18.984375 23.179688 18.867188 23.179688 18.867188 C 23.179688 18.867188 24.066406 19.109375 24.488281 19.824219 C 25.089844 20.847656 24.949219 22.015625 24.949219 22.015625 L 24.402344 22.273438 C 24.402344 22.273438 24.710938 20.324219 23.453125 19.824219 C 22.816406 19.570312 22.101562 20.199219 22.101562 20.199219 C 22.101562 20.199219 22.398438 19.269531 21.804688 19.121094 C 21.210938 18.972656 20.53125 19.621094 20.53125 19.621094 L 20.714844 18.71875 C 20.714844 18.71875 20.425781 18.464844 20.070312 18.582031 C 19.714844 18.695312 19.414062 18.917969 19.246094 19.347656 C 19.074219 19.777344 18.988281 20.335938 18.988281 20.335938 C 18.988281 20.335938 19.058594 20.15625 19.265625 19.980469 C 19.46875 19.804688 19.492188 19.8125 19.492188 19.8125 C 19.492188 19.8125 19.230469 20.289062 19.21875 20.703125 C 19.203125 21.121094 19.460938 21.941406 19.460938 21.941406 C 19.460938 21.941406 19.429688 21.199219 19.546875 20.832031 C 19.660156 20.46875 19.78125 20.316406 19.78125 20.316406 L 20.085938 20.722656 C 20.085938 20.722656 19.734375 21.609375 20.246094 22.699219 C 20.578125 23.398438 21.125 23.558594 21.28125 23.542969 C 21.4375 23.53125 21.402344 23.53125 21.402344 23.53125 C 21.402344 23.53125 21.222656 23.109375 21.175781 22.894531 C 20.898438 21.671875 21.179688 21.125 21.179688 21.125 L 21.707031 21.695312 C 21.707031 21.695312 21.648438 22.433594 21.722656 22.695312 C 21.792969 22.957031 21.988281 23.632812 22.128906 23.730469 C 22.273438 23.828125 22.546875 24.027344 22.757812 23.945312 C 22.972656 23.867188 23.203125 23.601562 23.308594 23.238281 C 23.410156 22.875 23.417969 22.851562 23.417969 22.851562 L 23.140625 22.984375 L 23.0625 22.808594 C 23.0625 22.808594 23.371094 22.5625 23.378906 22.253906 C 23.390625 21.949219 23.503906 21.28125 23.503906 21.28125 L 23.953125 21.019531 C 23.953125 21.019531 23.65625 22.21875 23.929688 22.804688 C 23.96875 22.894531 24.1875 23.136719 24.359375 23.132812 C 24.53125 23.128906 25.832031 22.820312 26.148438 21.132812 C 26.464844 19.445312 26.277344 18.738281 26.277344 18.738281 C 26.277344 18.738281 26.507812 18.800781 26.730469 19.132812 C 26.9375 19.441406 27.035156 19.753906 27.035156 19.753906 C 27.035156 19.753906 27.246094 18.589844 27.023438 17.976562 C 26.796875 17.363281 26.507812 16.980469 26.507812 16.980469 C 26.507812 16.980469 26.886719 17.050781 27.039062 17.136719 C 27.285156 17.273438 27.574219 17.558594 27.574219 17.558594 C 27.574219 17.558594 27.027344 15.277344 25.574219 14.796875 C 25.054688 13.738281 23.21875 13.761719 23.21875 13.761719 Z M 18.410156 21.265625 C 18.410156 21.265625 18.085938 21.664062 18.199219 22.023438 C 18.316406 22.382812 18.667969 22.878906 19.144531 23.046875 C 19.625 23.214844 20.046875 23.699219 20.132812 23.839844 C 20.21875 23.976562 20.476562 24.164062 20.746094 24.226562 C 21.015625 24.285156 21.28125 24.054688 21.28125 24.054688 C 21.28125 24.054688 20.265625 23.769531 19.898438 23.328125 C 19.53125 22.886719 19.597656 22.660156 19.597656 22.660156 C 19.597656 22.660156 19.199219 22.683594 18.972656 22.386719 C 18.746094 22.089844 18.410156 21.265625 18.410156 21.265625 Z M 18.410156 21.265625 "/>
<path style=" stroke:none;fill-rule:nonzero;fill:rgb(6.666667%,6.666667%,6.666667%);fill-opacity:1;" d="M 18.917969 7.230469 C 18.640625 7.25 18.339844 7.375 18.039062 7.699219 C 17.4375 8.347656 17.824219 9.25 17.824219 9.25 C 17.824219 9.25 18.152344 8.257812 18.921875 8.074219 C 19.691406 7.890625 20.371094 8.5625 20.371094 8.5625 C 20.371094 8.5625 20.9375 10.058594 21.195312 10.363281 C 21.449219 10.664062 21.6875 10.910156 22.261719 10.882812 C 22.832031 10.851562 23.121094 10.21875 23.121094 10.21875 C 23.121094 10.21875 23.523438 10.28125 23.804688 10.035156 C 24.167969 9.714844 23.835938 8.953125 23.835938 8.953125 C 23.835938 8.953125 23.695312 9.15625 23.53125 9.179688 C 23.667969 9.554688 23.472656 9.582031 23.28125 9.671875 C 23.085938 9.757812 22.421875 9.316406 22.074219 9.050781 C 21.726562 8.789062 20.054688 7.53125 19.652344 7.367188 C 19.449219 7.289062 19.195312 7.207031 18.917969 7.230469 Z M 17.777344 9.460938 C 17.335938 9.46875 16.847656 9.542969 16.320312 9.722656 C 13.023438 10.855469 12.421875 12.957031 12.421875 12.957031 C 12.421875 12.957031 13.847656 11.648438 15.132812 11.265625 C 16.15625 10.964844 16.832031 10.980469 16.832031 10.980469 C 16.832031 10.980469 16.441406 11.230469 16.320312 11.921875 C 16.171875 12.746094 16.558594 13.253906 16.558594 13.253906 C 16.558594 13.253906 16.660156 12.554688 17.253906 12.367188 C 17.847656 12.175781 18.023438 12.367188 18.023438 12.367188 C 18.023438 12.367188 17.726562 11.71875 18.324219 10.824219 C 18.859375 10.027344 19.953125 10 19.953125 10 C 19.953125 10 19.09375 9.4375 17.777344 9.460938 Z M 24.386719 10.582031 C 24.257812 10.566406 24.097656 10.601562 23.988281 10.675781 C 23.773438 10.828125 23.617188 11.28125 23.617188 11.28125 C 23.617188 11.28125 23.695312 11.265625 23.777344 11.160156 C 23.855469 11.054688 24.0625 10.996094 24.167969 10.980469 C 24.273438 10.960938 24.539062 10.984375 24.589844 10.765625 C 24.613281 10.65625 24.515625 10.59375 24.386719 10.582031 Z M 24.40625 14.589844 C 24.40625 14.589844 24.792969 14.835938 24.964844 15.097656 C 25.230469 15.5 25.15625 15.632812 25.15625 15.632812 C 25.15625 15.632812 24.910156 15.296875 24.515625 15.160156 C 23.9375 14.960938 23.34375 15.003906 23.34375 15.003906 C 23.34375 15.003906 23.867188 15.1875 24.242188 15.488281 C 24.613281 15.78125 24.585938 15.996094 24.585938 15.996094 C 24.585938 15.996094 24.457031 15.882812 23.980469 15.789062 C 23.664062 15.730469 23.03125 15.847656 23.03125 15.847656 C 23.03125 15.847656 24.292969 16.175781 24.941406 17.421875 C 25.742188 18.964844 25.503906 20.695312 25.503906 20.695312 C 25.503906 20.695312 25.96875 19.777344 26.003906 19.003906 C 26.027344 18.484375 25.851562 17.726562 25.851562 17.726562 C 25.851562 17.726562 26.085938 17.773438 26.292969 18.011719 C 26.492188 18.234375 26.636719 18.632812 26.636719 18.632812 C 26.636719 18.632812 26.613281 17.867188 26.246094 17.097656 C 26.035156 16.660156 25.636719 16.214844 25.636719 16.214844 C 25.636719 16.214844 25.886719 16.226562 26.082031 16.300781 C 26.4375 16.4375 26.660156 16.640625 26.660156 16.640625 C 26.660156 16.640625 26.449219 16.046875 25.75 15.398438 C 25.054688 14.746094 24.40625 14.589844 24.40625 14.589844 Z M 19.886719 15.449219 C 19.886719 15.449219 19.601562 15.632812 19.375 15.796875 C 19.152344 15.957031 18.839844 16.050781 18.839844 16.050781 C 18.839844 16.050781 18.933594 16.375 18.902344 16.746094 C 18.871094 17.113281 18.542969 17.75 17.929688 17.835938 C 17.316406 17.917969 16.800781 17.121094 16.800781 17.121094 C 16.800781 17.121094 16.773438 17.917969 17.421875 18.199219 C 18.066406 18.476562 18.492188 18.40625 19.082031 17.890625 C 19.675781 17.378906 19.886719 15.449219 19.886719 15.449219 Z M 19.886719 15.449219 "/>
<path style=" stroke:none;fill-rule:nonzero;fill:rgb(100%,100%,100%);fill-opacity:1;" d="M 20.988281 9.03125 C 20.988281 9.03125 21.191406 9.507812 21.289062 9.683594 C 21.390625 9.859375 21.542969 10.359375 22.035156 10.476562 C 22.527344 10.589844 22.71875 10.179688 22.71875 10.179688 C 22.71875 10.179688 22.25 9.929688 22.023438 9.808594 C 21.792969 9.6875 20.988281 9.03125 20.988281 9.03125 Z M 20.121094 11.40625 C 20.042969 11.402344 19.976562 11.414062 19.941406 11.445312 C 19.796875 11.582031 19.785156 11.691406 19.910156 11.792969 C 20.035156 11.894531 20.382812 12.109375 20.546875 12.164062 C 20.707031 12.222656 20.746094 12.257812 20.746094 12.257812 L 20.777344 12.480469 C 20.777344 12.480469 20.132812 12.246094 19.96875 12.179688 C 19.808594 12.113281 19.636719 12.011719 19.636719 12.011719 C 19.636719 12.011719 19.8125 12.542969 20.1875 12.714844 C 20.867188 13.027344 22.148438 12.777344 22.148438 12.777344 C 22.148438 12.777344 21.820312 12.679688 21.738281 12.660156 C 21.65625 12.640625 21.519531 12.589844 21.519531 12.589844 L 21.667969 12.464844 C 21.667969 12.464844 21.800781 12.457031 22.007812 12.480469 C 22.214844 12.503906 22.683594 12.542969 22.683594 12.542969 C 22.683594 12.542969 21.253906 11.828125 20.957031 11.683594 C 20.734375 11.578125 20.355469 11.421875 20.121094 11.40625 Z M 20.121094 11.40625 "/>
</g>
</svg>
