<?xml version="1.0" encoding="UTF-8"?>
<svg xmlns="http://www.w3.org/2000/svg" xmlns:xlink="http://www.w3.org/1999/xlink" width="35pt" height="25pt" viewBox="0 0 35 25" version="1.1">
<defs>
<clipPath id="clip1">
  <path d="M 0 7.175781 L 35 7.175781 L 35 17 L 0 17 Z M 0 7.175781 "/>
</clipPath>
<clipPath id="clip2">
  <path d="M 8 7.175781 L 15 7.175781 L 15 12 L 8 12 Z M 8 7.175781 "/>
</clipPath>
<clipPath id="clip3">
  <path d="M 17 7.175781 L 24 7.175781 L 24 12 L 17 12 Z M 17 7.175781 "/>
</clipPath>
<clipPath id="clip4">
  <path d="M 26 7.175781 L 31 7.175781 L 31 12 L 26 12 Z M 26 7.175781 "/>
</clipPath>
<clipPath id="clip5">
  <path d="M 13 7.175781 L 19 7.175781 L 19 12 L 13 12 Z M 13 7.175781 "/>
</clipPath>
<clipPath id="clip6">
  <path d="M 22 7.175781 L 28 7.175781 L 28 12 L 22 12 Z M 22 7.175781 "/>
</clipPath>
<clipPath id="clip7">
  <path d="M 28 7.175781 L 35 7.175781 L 35 12 L 28 12 Z M 28 7.175781 "/>
</clipPath>
<clipPath id="clip8">
  <path d="M 2 7.175781 L 11 7.175781 L 11 12 L 2 12 Z M 2 7.175781 "/>
</clipPath>
</defs>
<g id="surface1">
<g clip-path="url(#clip1)" clip-rule="nonzero">
<path style=" stroke:none;fill-rule:nonzero;fill:rgb(61.568627%,71.764706%,76.862745%);fill-opacity:1;" d="M 34.910156 8.03125 C 34.640625 7.523438 34.101562 7.222656 33.085938 7.203125 L 7.257812 7.210938 L 1.691406 7.210938 L 1.695312 7.554688 C 1.703125 8.167969 1.972656 9.3125 2.90625 9.523438 C 3.132812 9.867188 3.53125 10.109375 4.097656 10.25 C 4.070312 10.300781 4.023438 10.386719 4.023438 10.386719 C 3.984375 10.46875 3.949219 10.546875 3.917969 10.625 C 3.789062 10.867188 3.660156 11.125 3.523438 11.390625 L 0 11.390625 L 0.0078125 11.734375 C 0.0078125 11.800781 0.046875 13.289062 1.175781 13.628906 C 1.316406 13.878906 1.570312 14.144531 2.019531 14.320312 C 1.832031 14.683594 1.714844 14.910156 1.714844 14.910156 L 1.707031 14.925781 C 1.652344 15.042969 1.585938 15.230469 1.585938 15.46875 C 1.585938 15.691406 1.648438 15.910156 1.765625 16.09375 C 1.9375 16.371094 2.308594 16.703125 3.085938 16.703125 C 3.085938 16.703125 22.367188 16.699219 29.203125 16.695312 C 31.308594 16.695312 31.699219 16.449219 32.511719 14.5625 L 34.683594 9.601562 C 35.027344 8.859375 35.070312 8.335938 34.910156 8.03125 "/>
<path style=" stroke:none;fill-rule:nonzero;fill:rgb(0%,21.960784%,46.27451%);fill-opacity:1;" d="M 34.546875 8.179688 C 34.332031 7.777344 33.835938 7.539062 33.046875 7.539062 L 7.257812 7.550781 L 2.035156 7.550781 C 2.035156 7.550781 2.054688 9.121094 3.121094 9.214844 C 3.3125 9.632812 3.8125 9.898438 4.605469 10.003906 C 4.46875 10.269531 4.324219 10.542969 4.324219 10.542969 C 4.285156 10.617188 4.253906 10.691406 4.226562 10.761719 C 4.070312 11.070312 3.902344 11.398438 3.730469 11.726562 L 0.34375 11.726562 C 0.34375 11.726562 0.371094 13.160156 1.414062 13.339844 C 1.597656 13.8125 2.0625 14.019531 2.507812 14.109375 C 2.214844 14.679688 2.019531 15.0625 2.019531 15.0625 L 2.011719 15.074219 C 1.960938 15.183594 1.921875 15.320312 1.921875 15.46875 C 1.921875 15.613281 1.960938 15.769531 2.050781 15.914062 C 2.238281 16.210938 2.585938 16.363281 3.082031 16.363281 L 29.589844 16.359375 C 30.765625 16.359375 31.386719 16.261719 32.070312 14.714844 L 34.375 9.464844 C 34.597656 8.941406 34.730469 8.523438 34.546875 8.179688 "/>
</g>
<g clip-path="url(#clip2)" clip-rule="nonzero">
<path style=" stroke:none;fill-rule:nonzero;fill:rgb(60.392157%,51.372549%,28.235294%);fill-opacity:1;" d="M 14.265625 7.988281 L 12.113281 7.988281 C 10.875 7.988281 10.441406 8.882812 10.410156 8.949219 C 10.410156 8.953125 8.90625 11.78125 8.90625 11.78125 L 12.457031 11.78125 L 12.65625 11.40625 L 12.660156 11.386719 C 12.664062 11.363281 12.664062 11.335938 12.664062 11.3125 C 12.664062 11.214844 12.636719 11.132812 12.578125 11.0625 C 12.492188 10.960938 12.347656 10.902344 12.175781 10.902344 L 11.253906 10.902344 C 11.359375 10.710938 11.578125 10.296875 11.621094 10.21875 L 13.027344 10.21875 L 13.496094 9.339844 L 12.085938 9.339844 C 12.140625 9.238281 12.195312 9.132812 12.195312 9.132812 C 12.289062 8.957031 12.476562 8.867188 12.75 8.867188 L 13.96875 8.867188 L 14.4375 7.988281 L 14.265625 7.988281 "/>
</g>
<path style=" stroke:none;fill-rule:nonzero;fill:rgb(100%,100%,100%);fill-opacity:1;" d="M 10.589844 9.042969 L 10.59375 9.039062 C 10.609375 9.003906 10.988281 8.191406 12.113281 8.191406 L 14.097656 8.191406 C 14.011719 8.351562 13.882812 8.59375 13.84375 8.664062 L 12.75 8.664062 C 12.308594 8.664062 12.105469 8.867188 12.015625 9.039062 L 11.746094 9.542969 L 13.15625 9.542969 C 13.070312 9.703125 12.941406 9.945312 12.90625 10.015625 L 11.496094 10.015625 L 10.917969 11.105469 L 12.171875 11.105469 C 12.285156 11.105469 12.371094 11.136719 12.421875 11.195312 C 12.449219 11.226562 12.460938 11.265625 12.460938 11.3125 C 12.460938 11.320312 12.460938 11.332031 12.457031 11.34375 C 12.445312 11.367188 12.371094 11.507812 12.332031 11.578125 L 9.242188 11.578125 C 9.386719 11.308594 10.589844 9.042969 10.589844 9.042969 "/>
<g clip-path="url(#clip3)" clip-rule="nonzero">
<path style=" stroke:none;fill-rule:nonzero;fill:rgb(60.392157%,51.372549%,28.235294%);fill-opacity:1;" d="M 20.941406 8.992188 C 21.039062 8.992188 21.070312 9.007812 21.082031 9.011719 C 21.082031 9.019531 21.078125 9.039062 21.058594 9.074219 C 21.058594 9.074219 20.964844 9.25 20.921875 9.328125 C 20.878906 9.34375 20.613281 9.4375 20.386719 9.515625 C 20.5 9.300781 20.632812 9.058594 20.667969 8.992188 L 20.941406 8.992188 M 19.386719 7.988281 L 17.347656 11.78125 L 19.171875 11.78125 C 19.171875 11.78125 19.757812 10.6875 19.84375 10.519531 C 19.945312 10.585938 20.082031 10.675781 20.167969 10.730469 C 20.09375 10.867188 19.609375 11.78125 19.609375 11.78125 L 21.390625 11.78125 L 22.160156 10.335938 C 22.160156 10.335938 21.835938 10.148438 21.652344 10.046875 C 21.914062 9.953125 22.46875 9.761719 22.46875 9.761719 L 23.03125 8.730469 C 23.082031 8.632812 23.101562 8.550781 23.101562 8.480469 C 23.101562 8.402344 23.078125 8.34375 23.050781 8.296875 C 22.871094 7.996094 22.257812 7.988281 22.1875 7.988281 Z M 19.386719 7.988281 "/>
</g>
<path style=" stroke:none;fill-rule:nonzero;fill:rgb(100%,100%,100%);fill-opacity:1;" d="M 20.605469 8.789062 L 20.542969 8.789062 L 19.957031 9.878906 L 21.066406 9.492188 L 21.238281 9.171875 C 21.292969 9.066406 21.300781 8.976562 21.261719 8.90625 C 21.199219 8.804688 21.054688 8.789062 20.941406 8.789062 L 20.605469 8.789062 M 22.1875 8.191406 C 22.40625 8.191406 22.785156 8.25 22.878906 8.402344 C 22.882812 8.414062 22.898438 8.4375 22.898438 8.480469 C 22.898438 8.515625 22.886719 8.566406 22.851562 8.632812 C 22.851562 8.632812 22.363281 9.53125 22.328125 9.59375 C 22.257812 9.617188 21.164062 10 21.164062 10 C 21.164062 10 21.761719 10.339844 21.886719 10.414062 C 21.808594 10.558594 21.316406 11.484375 21.265625 11.578125 L 19.949219 11.578125 C 20.0625 11.363281 20.433594 10.664062 20.433594 10.664062 L 19.769531 10.226562 C 19.769531 10.226562 19.105469 11.476562 19.050781 11.578125 L 17.6875 11.578125 C 17.832031 11.304688 19.457031 8.289062 19.511719 8.191406 Z M 22.1875 8.191406 "/>
<g clip-path="url(#clip4)" clip-rule="nonzero">
<path style=" stroke:none;fill-rule:nonzero;fill:rgb(60.392157%,51.372549%,28.235294%);fill-opacity:1;" d="M 29.980469 7.988281 L 28.371094 7.988281 L 26.351562 11.78125 L 28.132812 11.78125 L 30.152344 7.988281 "/>
</g>
<path style=" stroke:none;fill-rule:nonzero;fill:rgb(100%,100%,100%);fill-opacity:1;" d="M 29.8125 8.191406 C 29.667969 8.460938 28.0625 11.476562 28.007812 11.578125 L 26.691406 11.578125 C 26.835938 11.304688 28.441406 8.289062 28.492188 8.191406 L 29.8125 8.191406 "/>
<path style=" stroke:none;fill-rule:nonzero;fill:rgb(60.392157%,51.372549%,28.235294%);fill-opacity:1;" d="M 9.296875 12.945312 C 9.308594 12.945312 9.339844 12.953125 9.347656 12.964844 C 9.347656 12.96875 9.347656 12.976562 9.347656 12.984375 C 9.347656 13.007812 9.339844 13.050781 9.304688 13.113281 C 9.304688 13.113281 8.382812 14.796875 8.203125 15.121094 L 7.984375 15.121094 C 7.964844 15.121094 7.9375 15.109375 7.933594 15.105469 C 7.933594 15.101562 7.929688 15.097656 7.929688 15.089844 C 7.929688 15.070312 7.941406 15.03125 7.976562 14.964844 C 7.976562 14.964844 8.90625 13.269531 9.082031 12.945312 L 9.296875 12.945312 M 7.667969 12.703125 L 6.304688 15.191406 C 6.257812 15.273438 6.136719 15.496094 6.25 15.6875 C 6.347656 15.851562 6.574219 15.929688 6.941406 15.929688 L 8.402344 15.929688 C 8.4375 15.929688 9.308594 15.921875 9.660156 15.285156 L 11.019531 12.808594 C 11.125 12.617188 11.089844 12.484375 11.042969 12.40625 C 10.886719 12.140625 10.375 12.132812 10.316406 12.132812 L 8.910156 12.132812 C 8.050781 12.132812 7.683594 12.679688 7.667969 12.703125 "/>
<path style=" stroke:none;fill-rule:nonzero;fill:rgb(100%,100%,100%);fill-opacity:1;" d="M 9.300781 12.738281 L 8.960938 12.738281 L 7.792969 14.867188 C 7.714844 15.007812 7.703125 15.125 7.757812 15.210938 C 7.824219 15.324219 7.96875 15.324219 7.984375 15.324219 L 8.324219 15.324219 L 9.484375 13.210938 C 9.5625 13.070312 9.574219 12.953125 9.523438 12.863281 C 9.457031 12.746094 9.316406 12.738281 9.300781 12.738281 M 8.910156 12.339844 L 10.316406 12.339844 C 10.460938 12.339844 10.789062 12.382812 10.867188 12.511719 C 10.875 12.527344 10.90625 12.582031 10.839844 12.707031 L 9.480469 15.183594 C 9.1875 15.714844 8.410156 15.722656 8.402344 15.722656 L 6.941406 15.722656 C 6.566406 15.722656 6.460938 15.636719 6.429688 15.582031 C 6.414062 15.5625 6.410156 15.535156 6.410156 15.507812 C 6.410156 15.425781 6.460938 15.332031 6.484375 15.289062 C 6.484375 15.289062 7.792969 12.90625 7.84375 12.8125 C 7.867188 12.777344 8.179688 12.339844 8.910156 12.339844 "/>
<path style=" stroke:none;fill-rule:nonzero;fill:rgb(60.392157%,51.372549%,28.235294%);fill-opacity:1;" d="M 21.878906 12.132812 L 20.523438 12.132812 C 20.523438 12.132812 19.828125 13.425781 19.773438 13.527344 L 19.464844 13.527344 C 19.597656 13.285156 20.214844 12.132812 20.214844 12.132812 L 18.6875 12.132812 L 18.28125 12.894531 C 18.324219 12.789062 18.355469 12.671875 18.355469 12.5625 C 18.355469 12.484375 18.339844 12.40625 18.296875 12.339844 C 18.207031 12.203125 18.023438 12.136719 17.734375 12.136719 L 16.003906 12.136719 C 15.5 12.136719 15.183594 12.34375 14.964844 12.59375 L 15.21875 12.132812 L 13.667969 12.132812 C 13.667969 12.132812 12.089844 15.015625 12.03125 15.121094 L 11.804688 15.121094 C 11.769531 15.121094 11.75 15.117188 11.742188 15.113281 C 11.742188 15.09375 11.757812 15.046875 11.8125 14.945312 L 13.355469 12.132812 L 11.808594 12.132812 L 10.132812 15.191406 C 10.085938 15.273438 9.964844 15.496094 10.078125 15.6875 C 10.175781 15.851562 10.402344 15.929688 10.769531 15.929688 L 12.230469 15.929688 C 12.265625 15.929688 13.136719 15.921875 13.488281 15.285156 L 14.714844 13.046875 C 14.910156 13.046875 15.515625 13.042969 15.714844 13.042969 C 15.570312 13.3125 14.171875 15.96875 14.171875 15.96875 L 15.707031 15.96875 C 15.707031 15.96875 17.195312 13.148438 17.25 13.042969 C 17.347656 13.042969 18.082031 13.042969 18.203125 13.042969 L 16.636719 15.96875 L 18.164062 15.96875 C 18.164062 15.96875 18.898438 14.582031 18.953125 14.480469 L 19.261719 14.480469 C 19.132812 14.726562 18.472656 15.96875 18.472656 15.96875 L 20 15.96875 L 22.050781 12.132812 L 21.878906 12.132812 "/>
<path style=" stroke:none;fill-rule:nonzero;fill:rgb(100%,100%,100%);fill-opacity:1;" d="M 14.867188 12.339844 C 14.71875 12.617188 13.308594 15.183594 13.308594 15.183594 C 13.015625 15.714844 12.238281 15.722656 12.230469 15.722656 L 10.769531 15.722656 C 10.394531 15.722656 10.289062 15.636719 10.257812 15.582031 C 10.246094 15.5625 10.238281 15.535156 10.238281 15.507812 C 10.238281 15.425781 10.289062 15.332031 10.3125 15.289062 C 10.3125 15.289062 11.714844 12.738281 11.933594 12.339844 L 13.007812 12.339844 C 12.859375 12.613281 11.632812 14.847656 11.632812 14.847656 C 11.578125 14.945312 11.53125 15.039062 11.53125 15.125 C 11.53125 15.160156 11.539062 15.191406 11.558594 15.222656 C 11.621094 15.324219 11.757812 15.324219 11.800781 15.324219 L 12.15625 15.324219 C 12.15625 15.324219 13.734375 12.445312 13.792969 12.339844 L 14.867188 12.339844 "/>
<path style=" stroke:none;fill-rule:nonzero;fill:rgb(100%,100%,100%);fill-opacity:1;" d="M 16.003906 12.339844 L 17.734375 12.339844 C 17.941406 12.339844 18.078125 12.378906 18.125 12.453125 C 18.144531 12.480469 18.152344 12.515625 18.152344 12.558594 C 18.152344 12.632812 18.128906 12.722656 18.085938 12.839844 C 17.964844 12.839844 17.128906 12.839844 17.128906 12.839844 C 17.128906 12.839844 15.640625 15.660156 15.582031 15.765625 L 14.507812 15.765625 C 14.648438 15.496094 16.050781 12.839844 16.050781 12.839844 C 16.050781 12.839844 15.285156 12.839844 15.027344 12.84375 C 15.222656 12.574219 15.5 12.339844 16.003906 12.339844 "/>
<path style=" stroke:none;fill-rule:nonzero;fill:rgb(100%,100%,100%);fill-opacity:1;" d="M 21.707031 12.339844 C 21.5625 12.613281 19.929688 15.664062 19.875 15.765625 L 18.816406 15.765625 C 18.941406 15.519531 19.601562 14.277344 19.601562 14.277344 L 18.828125 14.277344 C 18.828125 14.277344 18.09375 15.664062 18.042969 15.765625 L 16.980469 15.765625 C 17.125 15.492188 18.757812 12.441406 18.8125 12.339844 L 19.871094 12.339844 C 19.742188 12.578125 19.121094 13.730469 19.121094 13.730469 L 19.898438 13.730469 C 19.898438 13.730469 20.59375 12.4375 20.644531 12.339844 L 21.707031 12.339844 "/>
<g clip-path="url(#clip5)" clip-rule="nonzero">
<path style=" stroke:none;fill-rule:nonzero;fill:rgb(60.392157%,51.372549%,28.235294%);fill-opacity:1;" d="M 16.542969 8.789062 C 16.570312 8.789062 16.625 8.800781 16.636719 8.824219 C 16.640625 8.828125 16.640625 8.835938 16.640625 8.847656 C 16.640625 8.871094 16.632812 8.910156 16.605469 8.960938 C 16.605469 8.960938 15.710938 10.640625 15.535156 10.964844 L 15.265625 10.964844 C 15.234375 10.964844 15.1875 10.953125 15.175781 10.933594 C 15.171875 10.933594 15.171875 10.925781 15.171875 10.917969 C 15.171875 10.894531 15.179688 10.859375 15.207031 10.808594 C 15.207031 10.808594 16.109375 9.113281 16.28125 8.789062 L 16.542969 8.789062 M 14.640625 8.546875 L 14.636719 8.550781 L 13.378906 10.910156 C 13.253906 11.144531 13.234375 11.34375 13.324219 11.496094 C 13.4375 11.683594 13.695312 11.773438 14.109375 11.773438 L 15.828125 11.773438 C 15.871094 11.773438 16.882812 11.765625 17.222656 11.128906 L 18.542969 8.652344 C 18.632812 8.476562 18.601562 8.355469 18.554688 8.277344 C 18.382812 7.988281 17.746094 7.980469 17.675781 7.980469 L 16.019531 7.980469 C 15.019531 7.980469 14.652344 8.523438 14.640625 8.546875 "/>
</g>
<path style=" stroke:none;fill-rule:nonzero;fill:rgb(100%,100%,100%);fill-opacity:1;" d="M 16.546875 8.585938 L 16.160156 8.585938 L 15.027344 10.710938 C 14.957031 10.84375 14.949219 10.957031 15 11.042969 C 15.078125 11.167969 15.25 11.167969 15.269531 11.167969 L 15.660156 11.167969 L 16.785156 9.054688 C 16.855469 8.921875 16.863281 8.8125 16.8125 8.722656 C 16.738281 8.59375 16.570312 8.585938 16.550781 8.585938 L 16.546875 8.585938 M 16.019531 8.183594 L 17.671875 8.183594 C 17.917969 8.183594 18.296875 8.246094 18.378906 8.382812 C 18.386719 8.390625 18.394531 8.410156 18.394531 8.441406 C 18.394531 8.46875 18.390625 8.503906 18.363281 8.554688 C 18.363281 8.554688 17.042969 11.03125 17.042969 11.03125 C 16.761719 11.5625 15.835938 11.570312 15.828125 11.570312 L 14.109375 11.570312 C 13.78125 11.570312 13.570312 11.507812 13.5 11.390625 C 13.480469 11.355469 13.472656 11.316406 13.472656 11.277344 C 13.472656 11.167969 13.53125 11.050781 13.558594 11.007812 C 13.558594 11.007812 14.753906 8.765625 14.8125 8.65625 C 14.835938 8.617188 15.15625 8.183594 16.019531 8.183594 "/>
<path style=" stroke:none;fill-rule:nonzero;fill:rgb(60.392157%,51.372549%,28.235294%);fill-opacity:1;" d="M 25.085938 12.132812 L 23.433594 12.132812 C 22.429688 12.132812 21.980469 13.066406 21.960938 13.105469 C 21.960938 13.105469 20.515625 15.820312 20.515625 15.820312 L 20.433594 15.96875 L 23.238281 15.96875 L 23.378906 15.675781 L 23.375 15.683594 C 23.46875 15.511719 23.484375 15.355469 23.414062 15.242188 C 23.34375 15.121094 23.199219 15.0625 22.976562 15.0625 L 22.449219 15.0625 C 22.550781 14.867188 22.773438 14.453125 22.816406 14.375 L 23.875 14.375 L 24.351562 13.492188 L 23.292969 13.492188 C 23.347656 13.390625 23.402344 13.285156 23.402344 13.285156 C 23.496094 13.109375 23.652344 13.019531 23.859375 13.019531 L 24.78125 13.019531 L 25.257812 12.132812 L 25.085938 12.132812 "/>
<path style=" stroke:none;fill-rule:nonzero;fill:rgb(100%,100%,100%);fill-opacity:1;" d="M 22.144531 13.195312 C 22.164062 13.15625 22.558594 12.339844 23.433594 12.339844 L 24.914062 12.339844 C 24.824219 12.503906 24.695312 12.742188 24.65625 12.8125 L 23.859375 12.8125 C 23.574219 12.8125 23.355469 12.941406 23.222656 13.191406 L 22.949219 13.695312 L 24.007812 13.695312 C 23.917969 13.859375 23.789062 14.101562 23.753906 14.171875 L 22.691406 14.171875 L 22.105469 15.265625 L 22.976562 15.265625 C 23.117188 15.265625 23.207031 15.292969 23.238281 15.34375 C 23.246094 15.359375 23.253906 15.382812 23.253906 15.40625 C 23.253906 15.453125 23.234375 15.515625 23.195312 15.582031 L 23.195312 15.585938 C 23.195312 15.585938 23.140625 15.699219 23.109375 15.765625 L 20.773438 15.765625 C 20.917969 15.496094 22.144531 13.195312 22.144531 13.195312 "/>
<path style=" stroke:none;fill-rule:nonzero;fill:rgb(60.392157%,51.372549%,28.235294%);fill-opacity:1;" d="M 26.828125 13.019531 C 26.878906 13.019531 26.90625 13.023438 26.914062 13.027344 C 26.914062 13.039062 26.90625 13.0625 26.886719 13.101562 C 26.886719 13.101562 26.789062 13.28125 26.75 13.355469 C 26.710938 13.371094 26.535156 13.441406 26.34375 13.519531 C 26.460938 13.304688 26.582031 13.082031 26.617188 13.019531 L 26.828125 13.019531 M 25.550781 12.132812 L 23.5 15.96875 L 25.042969 15.96875 C 25.042969 15.96875 25.679688 14.761719 25.785156 14.566406 C 25.867188 14.640625 25.9375 14.703125 25.996094 14.753906 C 25.929688 14.878906 25.355469 15.96875 25.355469 15.96875 L 26.859375 15.96875 L 27.703125 14.375 C 27.703125 14.375 27.445312 14.183594 27.308594 14.078125 C 27.523438 13.988281 28.019531 13.785156 28.019531 13.785156 L 28.507812 12.878906 C 28.5625 12.777344 28.589844 12.683594 28.589844 12.597656 C 28.589844 12.53125 28.574219 12.46875 28.539062 12.410156 C 28.378906 12.144531 27.910156 12.132812 27.855469 12.132812 Z M 25.550781 12.132812 "/>
<path style=" stroke:none;fill-rule:nonzero;fill:rgb(100%,100%,100%);fill-opacity:1;" d="M 26.554688 12.8125 L 26.492188 12.8125 L 25.890625 13.929688 L 26.894531 13.515625 L 27.066406 13.195312 C 27.089844 13.15625 27.160156 13.027344 27.09375 12.917969 C 27.03125 12.8125 26.882812 12.8125 26.828125 12.8125 L 26.554688 12.8125 M 27.855469 12.339844 C 27.960938 12.339844 28.277344 12.371094 28.363281 12.515625 C 28.398438 12.578125 28.386719 12.667969 28.328125 12.78125 C 28.328125 12.78125 27.90625 13.5625 27.875 13.625 C 27.8125 13.648438 26.894531 14.027344 26.894531 14.027344 C 26.894531 14.027344 27.335938 14.355469 27.4375 14.433594 C 27.367188 14.566406 26.785156 15.667969 26.734375 15.765625 L 25.699219 15.765625 C 25.816406 15.539062 26.253906 14.703125 26.253906 14.703125 L 25.722656 14.242188 C 25.722656 14.242188 24.972656 15.664062 24.917969 15.765625 L 23.84375 15.765625 C 23.988281 15.492188 25.621094 12.441406 25.671875 12.339844 Z M 27.855469 12.339844 "/>
<g clip-path="url(#clip6)" clip-rule="nonzero">
<path style=" stroke:none;fill-rule:nonzero;fill:rgb(60.392157%,51.372549%,28.235294%);fill-opacity:1;" d="M 27.777344 7.988281 L 24.921875 7.988281 C 23.804688 7.988281 23.496094 8.589844 23.199219 9.167969 C 23.199219 9.171875 22.375 10.746094 22.375 10.746094 C 22.308594 10.871094 22.132812 11.207031 22.296875 11.476562 C 22.417969 11.675781 22.6875 11.773438 23.125 11.773438 L 25.96875 11.773438 L 27.039062 9.703125 L 24.921875 9.703125 L 24.46875 10.582031 L 24.863281 10.582031 C 24.796875 10.710938 24.730469 10.839844 24.699219 10.902344 L 24.371094 10.902344 C 24.210938 10.902344 24.183594 10.863281 24.179688 10.859375 C 24.179688 10.855469 24.175781 10.851562 24.175781 10.835938 C 24.175781 10.808594 24.1875 10.757812 24.238281 10.660156 C 24.238281 10.660156 25.011719 9.164062 25.164062 8.867188 L 25.84375 8.867188 C 25.816406 8.914062 25.714844 9.113281 25.714844 9.113281 L 27.367188 9.113281 L 27.945312 7.988281 L 27.777344 7.988281 "/>
</g>
<path style=" stroke:none;fill-rule:nonzero;fill:rgb(100%,100%,100%);fill-opacity:1;" d="M 22.46875 11.371094 C 22.445312 11.328125 22.433594 11.277344 22.433594 11.226562 C 22.433594 11.074219 22.523438 10.90625 22.554688 10.839844 L 23.378906 9.265625 C 23.675781 8.6875 23.929688 8.191406 24.921875 8.191406 L 27.613281 8.191406 C 27.511719 8.382812 27.285156 8.828125 27.242188 8.910156 L 26.046875 8.910156 C 26.070312 8.863281 26.175781 8.664062 26.175781 8.664062 L 25.039062 8.664062 L 24.058594 10.566406 C 23.996094 10.6875 23.933594 10.84375 24.007812 10.964844 C 24.066406 11.058594 24.183594 11.105469 24.371094 11.105469 L 24.824219 11.105469 L 25.195312 10.378906 L 24.804688 10.378906 C 24.886719 10.21875 25.011719 9.976562 25.046875 9.90625 L 26.703125 9.90625 C 26.578125 10.152344 25.894531 11.476562 25.847656 11.570312 L 23.125 11.570312 C 22.777344 11.570312 22.550781 11.5 22.46875 11.371094 "/>
<g clip-path="url(#clip7)" clip-rule="nonzero">
<path style=" stroke:none;fill-rule:nonzero;fill:rgb(60.392157%,51.372549%,28.235294%);fill-opacity:1;" d="M 32.199219 8.953125 C 32.335938 8.957031 32.359375 8.984375 32.359375 8.988281 C 32.359375 8.988281 32.363281 8.996094 32.363281 9.007812 C 32.363281 9.03125 32.351562 9.089844 32.292969 9.210938 C 32.292969 9.210938 31.917969 10.015625 31.816406 10.238281 L 31.390625 10.238281 C 31.539062 10 32.148438 9.03125 32.199219 8.953125 M 31.226562 7.988281 L 28.417969 11.78125 L 30.277344 11.78125 C 30.277344 11.78125 30.652344 11.199219 30.707031 11.117188 L 31.394531 11.117188 C 31.3125 11.296875 31.09375 11.78125 31.09375 11.78125 L 32.839844 11.78125 L 33.988281 9.183594 L 33.988281 9.1875 C 34.167969 8.828125 34.191406 8.554688 34.0625 8.351562 C 33.914062 8.105469 33.5625 7.988281 32.992188 7.988281 Z M 31.226562 7.988281 "/>
</g>
<path style=" stroke:none;fill-rule:nonzero;fill:rgb(100%,100%,100%);fill-opacity:1;" d="M 32.140625 8.746094 L 32.085938 8.75 L 31.019531 10.441406 L 31.945312 10.441406 L 32.476562 9.296875 C 32.542969 9.160156 32.609375 9 32.53125 8.878906 C 32.453125 8.757812 32.28125 8.746094 32.140625 8.746094 M 32.992188 8.191406 C 33.472656 8.191406 33.78125 8.28125 33.890625 8.457031 C 33.921875 8.507812 33.941406 8.570312 33.941406 8.644531 C 33.941406 8.765625 33.894531 8.914062 33.804688 9.097656 L 33.804688 9.101562 C 33.804688 9.101562 32.757812 11.460938 32.707031 11.578125 L 31.410156 11.578125 C 31.488281 11.402344 31.710938 10.914062 31.710938 10.914062 L 30.59375 10.914062 C 30.59375 10.914062 30.21875 11.496094 30.167969 11.578125 L 28.820312 11.578125 C 29.039062 11.285156 31.273438 8.265625 31.328125 8.191406 Z M 32.992188 8.191406 "/>
<g clip-path="url(#clip8)" clip-rule="nonzero">
<path style=" stroke:none;fill-rule:nonzero;fill:rgb(60.392157%,51.372549%,28.235294%);fill-opacity:1;" d="M 10.113281 7.988281 L 2.546875 7.988281 L 2.5625 8.105469 C 2.644531 8.597656 3.042969 8.785156 3.464844 8.851562 C 3.46875 8.867188 3.472656 8.886719 3.472656 8.886719 C 3.5625 9.472656 4.589844 9.601562 5.296875 9.621094 C 5.179688 9.851562 4.710938 10.746094 4.710938 10.746094 C 4.664062 10.835938 4.566406 11.027344 4.566406 11.226562 C 4.566406 11.308594 4.582031 11.394531 4.632812 11.476562 C 4.753906 11.675781 5.023438 11.773438 5.460938 11.773438 L 8.304688 11.773438 L 9.371094 9.703125 L 7.257812 9.703125 L 6.804688 10.582031 L 7.199219 10.582031 C 7.132812 10.710938 7.066406 10.839844 7.035156 10.902344 L 6.707031 10.902344 C 6.546875 10.902344 6.519531 10.863281 6.515625 10.859375 C 6.515625 10.855469 6.511719 10.851562 6.511719 10.835938 C 6.511719 10.808594 6.523438 10.757812 6.574219 10.660156 C 6.574219 10.660156 7.34375 9.164062 7.5 8.867188 L 8.175781 8.867188 C 8.152344 8.914062 8.050781 9.113281 8.050781 9.113281 L 9.703125 9.113281 L 10.28125 7.988281 L 10.113281 7.988281 "/>
</g>
<path style=" stroke:none;fill-rule:nonzero;fill:rgb(100%,100%,100%);fill-opacity:1;" d="M 7.257812 8.191406 L 9.945312 8.191406 C 9.847656 8.382812 9.621094 8.828125 9.578125 8.910156 L 8.382812 8.910156 C 8.40625 8.863281 8.507812 8.664062 8.507812 8.664062 L 7.375 8.664062 L 6.394531 10.566406 C 6.332031 10.6875 6.265625 10.84375 6.34375 10.964844 C 6.402344 11.058594 6.519531 11.105469 6.707031 11.105469 L 7.15625 11.105469 L 7.53125 10.378906 L 7.136719 10.378906 C 7.222656 10.21875 7.34375 9.976562 7.382812 9.90625 L 9.039062 9.90625 C 8.914062 10.152344 8.230469 11.476562 8.183594 11.570312 L 5.460938 11.570312 C 5.109375 11.570312 4.886719 11.5 4.804688 11.371094 C 4.777344 11.328125 4.769531 11.277344 4.769531 11.226562 C 4.769531 11.074219 4.855469 10.90625 4.890625 10.839844 L 5.632812 9.421875 L 5.464844 9.421875 C 4.523438 9.417969 3.894531 9.25 3.71875 8.972656 L 5.867188 8.972656 L 6.046875 8.683594 L 3.976562 8.683594 C 3.285156 8.679688 2.914062 8.527344 2.796875 8.191406 L 7.257812 8.191406 "/>
<path style=" stroke:none;fill-rule:nonzero;fill:rgb(60.392157%,51.372549%,28.235294%);fill-opacity:1;" d="M 7.359375 12.136719 L 0.820312 12.136719 L 0.839844 12.253906 C 0.921875 12.746094 1.320312 12.933594 1.742188 13 C 1.746094 13.015625 1.746094 13.035156 1.746094 13.035156 C 1.847656 13.648438 2.605469 13.757812 3.226562 13.773438 C 3.21875 13.808594 3.214844 13.847656 3.214844 13.878906 C 3.214844 13.933594 3.226562 13.976562 3.246094 14.015625 C 3.289062 14.28125 3.523438 14.429688 3.949219 14.457031 C 3.953125 14.457031 4.457031 14.480469 4.457031 14.480469 C 4.648438 14.492188 4.679688 14.519531 4.683594 14.527344 C 4.683594 14.527344 4.683594 14.527344 4.683594 14.53125 C 4.683594 14.542969 4.679688 14.578125 4.640625 14.652344 C 4.640625 14.652344 4.429688 15.035156 4.382812 15.121094 L 4.179688 15.121094 C 4.121094 15.121094 4.09375 15.117188 4.078125 15.113281 C 4.085938 15.09375 4.09375 15.0625 4.128906 14.996094 C 4.15625 14.941406 4.167969 14.894531 4.167969 14.851562 C 4.167969 14.804688 4.152344 14.765625 4.132812 14.734375 C 4.058594 14.605469 3.867188 14.578125 3.722656 14.574219 L 2.78125 14.574219 L 2.40625 15.257812 C 2.402344 15.273438 2.296875 15.492188 2.417969 15.683594 C 2.523438 15.847656 2.746094 15.929688 3.082031 15.929688 L 4.574219 15.929688 C 4.617188 15.929688 5.527344 15.910156 5.832031 15.355469 C 5.832031 15.355469 6.316406 14.441406 6.316406 14.441406 C 6.398438 14.296875 6.425781 14.175781 6.425781 14.078125 C 6.425781 13.988281 6.402344 13.917969 6.375 13.863281 C 6.285156 13.695312 6.082031 13.585938 5.816406 13.5625 C 5.816406 13.5625 5.289062 13.519531 5.253906 13.519531 C 5.195312 13.511719 5.027344 13.484375 5.011719 13.457031 C 5.007812 13.457031 5.007812 13.453125 5.007812 13.445312 C 5.007812 13.425781 5.019531 13.375 5.089844 13.242188 C 5.089844 13.242188 5.199219 13.039062 5.253906 12.941406 L 5.609375 12.941406 C 5.5625 13.027344 5.441406 13.261719 5.441406 13.261719 L 6.933594 13.261719 C 6.933594 13.261719 7.0625 13.019531 7.101562 12.941406 L 7.113281 12.941406 L 7.523438 12.136719 L 7.359375 12.136719 "/>
<path style=" stroke:none;fill-rule:nonzero;fill:rgb(100%,100%,100%);fill-opacity:1;" d="M 5.351562 12.339844 L 7.195312 12.339844 C 7.117188 12.488281 7.023438 12.671875 6.992188 12.738281 L 6.980469 12.738281 C 6.980469 12.738281 6.851562 12.984375 6.8125 13.058594 L 5.777344 13.058594 C 5.824219 12.972656 5.945312 12.738281 5.945312 12.738281 L 5.132812 12.738281 L 4.914062 13.144531 C 4.824219 13.308594 4.773438 13.4375 4.828125 13.546875 C 4.886719 13.664062 5.027344 13.691406 5.230469 13.71875 L 5.234375 13.71875 L 5.800781 13.765625 C 5.996094 13.785156 6.136719 13.855469 6.195312 13.960938 C 6.257812 14.078125 6.199219 14.234375 6.136719 14.34375 C 6.136719 14.347656 5.652344 15.257812 5.652344 15.257812 C 5.40625 15.707031 4.582031 15.726562 4.574219 15.726562 L 3.082031 15.726562 C 2.824219 15.726562 2.65625 15.671875 2.59375 15.574219 C 2.570312 15.542969 2.5625 15.503906 2.5625 15.46875 C 2.5625 15.40625 2.585938 15.355469 2.589844 15.351562 C 2.59375 15.34375 2.855469 14.863281 2.902344 14.777344 L 3.722656 14.777344 C 3.882812 14.78125 3.949219 14.820312 3.960938 14.839844 C 3.96875 14.855469 3.953125 14.894531 3.945312 14.90625 C 3.890625 15.015625 3.84375 15.128906 3.898438 15.222656 C 3.953125 15.3125 4.070312 15.324219 4.179688 15.324219 L 4.503906 15.324219 L 4.816406 14.75 C 4.851562 14.683594 4.890625 14.609375 4.890625 14.53125 C 4.890625 14.496094 4.882812 14.460938 4.863281 14.425781 C 4.796875 14.3125 4.632812 14.285156 4.46875 14.277344 C 4.46875 14.277344 3.960938 14.253906 3.960938 14.253906 C 3.476562 14.222656 3.453125 14.035156 3.441406 13.976562 L 3.441406 13.957031 L 3.429688 13.9375 C 3.425781 13.929688 3.417969 13.914062 3.417969 13.878906 C 3.417969 13.839844 3.425781 13.785156 3.453125 13.703125 L 3.496094 13.570312 L 3.355469 13.570312 C 2.566406 13.566406 2.117188 13.421875 1.984375 13.121094 L 3.746094 13.121094 L 3.921875 12.835938 L 3.742188 12.832031 L 2.253906 12.832031 C 1.5625 12.828125 1.191406 12.675781 1.074219 12.339844 L 5.351562 12.339844 "/>
<path style=" stroke:none;fill-rule:nonzero;fill:rgb(60.392157%,51.372549%,28.235294%);fill-opacity:1;" d="M 29.222656 12.253906 L 27.402344 15.960938 L 28.863281 15.960938 C 28.863281 15.960938 29.386719 14.855469 29.585938 14.433594 C 29.640625 14.878906 29.773438 15.960938 29.773438 15.960938 L 30.316406 15.960938 C 30.605469 15.941406 31.144531 15.769531 31.519531 14.839844 C 31.519531 14.839844 32.589844 12.335938 32.589844 12.335938 L 32.648438 12.199219 L 31.25 12.199219 C 31.25 12.199219 30.808594 13.203125 30.625 13.621094 C 30.5625 13.1875 30.414062 12.199219 30.414062 12.199219 L 29.25 12.195312 L 29.222656 12.253906 "/>
<path style=" stroke:none;fill-rule:nonzero;fill:rgb(100%,100%,100%);fill-opacity:1;" d="M 29.375 12.394531 C 29.472656 12.394531 30.109375 12.394531 30.242188 12.394531 C 30.265625 12.546875 30.53125 14.328125 30.53125 14.328125 C 30.53125 14.328125 31.332031 12.503906 31.378906 12.394531 C 31.480469 12.394531 32.132812 12.394531 32.347656 12.394531 C 32.242188 12.640625 31.335938 14.765625 31.335938 14.765625 C 31.003906 15.59375 30.546875 15.746094 30.304688 15.761719 L 29.949219 15.761719 C 29.929688 15.605469 29.699219 13.734375 29.699219 13.734375 C 29.699219 13.734375 28.789062 15.65625 28.738281 15.761719 L 27.71875 15.761719 C 27.847656 15.503906 29.324219 12.496094 29.375 12.394531 "/>
<path style=" stroke:none;fill-rule:nonzero;fill:rgb(0%,21.960784%,46.27451%);fill-opacity:1;" d="M 32.054688 16.515625 C 32.042969 16.511719 32.019531 16.507812 31.996094 16.507812 L 31.96875 16.507812 L 31.96875 16.625 L 32.011719 16.625 C 32.035156 16.625 32.054688 16.621094 32.066406 16.609375 C 32.082031 16.601562 32.089844 16.585938 32.089844 16.5625 C 32.089844 16.539062 32.078125 16.523438 32.054688 16.515625 M 31.867188 16.839844 L 31.867188 16.4375 C 31.890625 16.4375 31.929688 16.4375 31.976562 16.4375 C 32.027344 16.4375 32.054688 16.4375 32.058594 16.4375 C 32.089844 16.441406 32.117188 16.449219 32.136719 16.460938 C 32.175781 16.480469 32.191406 16.511719 32.191406 16.554688 C 32.191406 16.589844 32.183594 16.613281 32.164062 16.628906 C 32.144531 16.644531 32.121094 16.652344 32.09375 16.65625 C 32.121094 16.660156 32.140625 16.667969 32.152344 16.679688 C 32.175781 16.699219 32.1875 16.726562 32.1875 16.769531 L 32.1875 16.804688 C 32.1875 16.808594 32.1875 16.8125 32.1875 16.816406 C 32.191406 16.820312 32.191406 16.824219 32.191406 16.828125 L 32.195312 16.839844 L 32.09375 16.839844 C 32.089844 16.824219 32.085938 16.808594 32.085938 16.785156 C 32.085938 16.757812 32.082031 16.742188 32.078125 16.734375 C 32.074219 16.722656 32.066406 16.710938 32.050781 16.707031 C 32.042969 16.703125 32.03125 16.699219 32.015625 16.699219 L 31.96875 16.699219 L 31.96875 16.839844 Z M 31.8125 16.429688 C 31.753906 16.488281 31.726562 16.558594 31.726562 16.640625 C 31.726562 16.722656 31.757812 16.792969 31.816406 16.851562 C 31.871094 16.910156 31.941406 16.941406 32.023438 16.941406 C 32.105469 16.941406 32.175781 16.910156 32.234375 16.851562 C 32.292969 16.792969 32.324219 16.722656 32.324219 16.640625 C 32.324219 16.558594 32.292969 16.488281 32.234375 16.429688 C 32.175781 16.371094 32.105469 16.339844 32.023438 16.339844 C 31.941406 16.339844 31.871094 16.371094 31.8125 16.429688 M 32.277344 16.898438 C 32.207031 16.964844 32.125 17 32.023438 17 C 31.921875 17 31.835938 16.964844 31.769531 16.894531 C 31.699219 16.824219 31.664062 16.738281 31.664062 16.636719 C 31.664062 16.53125 31.699219 16.445312 31.777344 16.375 C 31.847656 16.308594 31.929688 16.277344 32.023438 16.277344 C 32.125 16.277344 32.210938 16.3125 32.28125 16.382812 C 32.351562 16.453125 32.386719 16.539062 32.386719 16.636719 C 32.386719 16.742188 32.351562 16.828125 32.277344 16.898438 "/>
</g>
</svg>
