<?xml version="1.0" encoding="UTF-8"?>
<svg xmlns="http://www.w3.org/2000/svg" xmlns:xlink="http://www.w3.org/1999/xlink" width="35pt" height="25pt" viewBox="0 0 35 25" version="1.1">
<g id="surface1">
<path style="fill-rule:nonzero;fill:rgb(0%,0%,0%);fill-opacity:1;stroke-width:1.162;stroke-linecap:butt;stroke-linejoin:miter;stroke:rgb(0%,0%,0%);stroke-opacity:1;stroke-miterlimit:4;" d="M 10.312982 43.922535 L 10.312982 37.003243 L 15.041744 37.003243 L 15.041744 7.504109 L 10.312982 7.504109 L 10.312982 0.577863 L 30.298957 0.577863 L 30.298957 7.504109 L 25.625827 7.504109 L 25.625827 37.003243 L 30.298957 37.003243 L 30.298957 43.922535 Z M 10.312982 43.922535 " transform="matrix(0.561722,0,0,0.561722,6.49994,-0.000379715)"/>
<path style=" stroke:none;fill-rule:nonzero;fill:rgb(69.411765%,55.686275%,37.254902%);fill-opacity:1;" d="M 12.582031 21.078125 L 15.234375 21.078125 L 15.234375 3.914062 L 12.582031 3.914062 L 12.582031 0.617188 L 23.230469 0.617188 L 23.230469 3.914062 L 20.609375 3.914062 L 20.609375 21.078125 L 23.226562 21.078125 L 23.226562 24.375 L 12.582031 24.375 Z M 12.582031 21.078125 "/>
<path style=" stroke:none;fill-rule:nonzero;fill:rgb(0%,0%,0%);fill-opacity:1;" d="M 29.023438 15.582031 C 28.988281 15.109375 28.707031 14.8125 28.585938 14.6875 C 28.554688 14.65625 28.539062 14.632812 28.503906 14.609375 C 28.503906 14.609375 28.269531 14.445312 28.179688 14.378906 C 28.3125 14.152344 28.402344 13.890625 28.402344 13.566406 C 28.402344 13.421875 28.390625 13.269531 28.363281 13.109375 C 28.363281 13.105469 28.320312 12.855469 28.320312 12.855469 C 28.273438 12.617188 28.242188 12.421875 28.242188 12.265625 C 28.242188 12.125 28.269531 12.015625 28.339844 11.933594 C 28.441406 11.808594 28.5 11.652344 28.5 11.492188 C 28.5 11.433594 28.492188 11.375 28.472656 11.316406 C 28.417969 11.101562 28.257812 10.925781 28.046875 10.851562 C 27.023438 10.488281 26.449219 11.171875 26.234375 11.429688 C 26.234375 11.429688 26.007812 11.65625 25.816406 11.859375 C 25.988281 11.582031 26.148438 11.304688 26.285156 11.058594 L 26.339844 10.960938 C 26.664062 10.386719 26.757812 10.023438 26.917969 9.417969 L 26.933594 9.359375 C 26.996094 9.109375 27.066406 8.730469 27.066406 8.382812 C 27.066406 8.363281 27.066406 8.34375 27.0625 8.324219 C 27.050781 7.851562 26.796875 7.460938 26.355469 7.25 C 25.742188 6.957031 25.085938 7.394531 24.355469 8.601562 C 24.140625 8.957031 24.003906 9.289062 23.875 9.640625 C 23.824219 9.617188 23.546875 9.484375 23.546875 9.484375 C 23.457031 9.441406 23.355469 9.417969 23.253906 9.417969 C 23.253906 9.417969 23.246094 9.421875 23.246094 9.421875 C 23.222656 9.402344 23.203125 9.378906 23.175781 9.359375 C 22.78125 9.078125 22.457031 9.125 22.316406 9.144531 C 22.011719 9.167969 21.554688 9.34375 21.335938 9.492188 C 21.296875 9.515625 21.261719 9.558594 21.230469 9.582031 C 21.230469 9.453125 21.222656 8.800781 21.222656 8.800781 L 21.5625 7.859375 C 21.589844 7.789062 21.601562 7.714844 21.601562 7.644531 C 21.601562 7.402344 21.453125 7.183594 21.214844 7.0625 C 21.214844 7.0625 21.199219 7.054688 21.1875 7.046875 C 21.035156 6.917969 20.855469 6.847656 20.652344 6.894531 L 20.144531 7.011719 C 19.867188 7.101562 19.660156 7.226562 19.515625 7.394531 C 19.394531 7.535156 19.335938 7.714844 19.347656 7.898438 C 19.355469 7.996094 19.34375 8.085938 19.3125 8.207031 C 19.3125 8.207031 19.152344 8.644531 19.152344 8.644531 L 19.121094 8.722656 C 19.125 8.722656 19.125 8.71875 19.125 8.71875 C 19.125 8.722656 19.039062 8.953125 19 9.054688 C 18.953125 9.046875 18.914062 9.023438 18.867188 9.019531 C 18.582031 9 18.28125 9.0625 18.007812 9.199219 C 17.539062 9.386719 17.230469 9.660156 17.011719 9.945312 C 16.992188 9.921875 16.980469 9.890625 16.960938 9.867188 C 16.632812 9.503906 16.089844 9.304688 15.488281 9.6875 C 15.425781 9.601562 15.324219 9.578125 15.125 9.585938 L 14.511719 9.609375 L 14.464844 9.625 C 14.460938 9.625 13.871094 9.882812 13.871094 9.882812 C 13.746094 9.9375 13.660156 10.023438 13.597656 10.125 C 13.453125 10.09375 13.308594 10.066406 13.167969 10.117188 C 13.054688 10.050781 12.945312 9.980469 12.8125 9.957031 C 12.265625 9.863281 11.921875 10.082031 11.648438 10.261719 L 11.574219 10.308594 C 11.527344 10.335938 11.492188 10.375 11.449219 10.410156 C 11.535156 9.84375 11.628906 9.320312 11.734375 8.902344 C 11.738281 8.882812 11.914062 8.160156 11.914062 8.160156 L 12.214844 6.8125 C 12.226562 6.757812 12.234375 6.707031 12.234375 6.65625 C 12.234375 6.441406 12.132812 6.246094 11.949219 6.117188 C 11.71875 5.960938 11.429688 5.972656 11.195312 6.121094 L 10.28125 6.71875 L 9.605469 7.175781 C 9.589844 7.183594 9.570312 7.199219 9.558594 7.210938 L 9.339844 7.378906 C 8.707031 7.867188 8.476562 8.144531 8.476562 8.660156 C 8.476562 8.867188 8.511719 9.117188 8.578125 9.433594 C 8.578125 9.433594 8.609375 9.59375 8.636719 9.730469 C 8.625 9.734375 8.613281 9.734375 8.601562 9.738281 C 8.5625 9.597656 8.515625 9.433594 8.515625 9.433594 C 8.4375 9.15625 8.195312 8.96875 7.90625 8.949219 C 7.617188 8.929688 7.351562 9.105469 7.238281 9.371094 L 6.554688 10.953125 C 6.519531 11.039062 6.5 11.132812 6.5 11.222656 C 6.5 11.324219 6.523438 11.425781 6.566406 11.515625 C 7.34375 13.144531 8.488281 15.015625 8.941406 15.742188 C 9.007812 15.84375 9.097656 15.925781 9.203125 15.984375 L 9.414062 16.09375 C 9.457031 16.117188 9.507812 16.117188 9.554688 16.128906 C 9.535156 16.191406 9.515625 16.257812 9.515625 16.320312 C 9.515625 16.464844 9.5625 16.609375 9.652344 16.730469 C 9.855469 17.003906 10.234375 17.085938 10.535156 16.914062 C 11.121094 16.582031 11.722656 16.320312 12.492188 16.066406 C 13.121094 15.855469 14.003906 15.601562 14.554688 15.507812 C 16.28125 15.207031 17.675781 15.078125 18.941406 15.097656 C 20.5 15.117188 21.609375 15.203125 22.988281 15.582031 C 23.621094 15.753906 23.957031 15.917969 24.695312 16.273438 L 25.125 16.484375 C 25.609375 16.726562 25.992188 16.914062 26.601562 17.078125 C 27.042969 17.195312 27.664062 17.179688 28.019531 17.039062 C 28.261719 16.941406 28.578125 16.816406 28.828125 16.414062 C 28.957031 16.199219 29.027344 15.941406 29.027344 15.679688 C 29.027344 15.648438 29.027344 15.613281 29.023438 15.582031 Z M 17.972656 9.210938 C 17.984375 9.203125 18 9.203125 18.011719 9.195312 C 18.023438 9.191406 18.03125 9.183594 18.046875 9.179688 C 18.019531 9.1875 17.996094 9.199219 17.972656 9.210938 Z M 17.972656 9.210938 "/>
<path style=" stroke:none;fill-rule:nonzero;fill:rgb(100%,100%,100%);fill-opacity:1;" d="M 11.0625 8.730469 C 10.621094 10.527344 10.414062 13.171875 10.304688 14.988281 C 10.15625 15.089844 9.9375 15.402344 9.722656 15.484375 L 9.511719 15.371094 C 8.710938 14.089844 7.785156 12.496094 7.171875 11.214844 L 7.855469 9.632812 C 8.003906 10.101562 8.261719 11.152344 8.429688 11.613281 C 8.738281 12.46875 9.046875 13.546875 9.542969 14.414062 L 9.597656 14.382812 C 9.625 13.28125 9.902344 11.324219 10.035156 9.367188 C 9.90625 9.472656 9.53125 10.246094 9.40625 10.160156 C 9.089844 8.265625 8.847656 8.617188 9.96875 7.738281 C 10.675781 7.273438 11 7.015625 11.53125 6.703125 C 11.445312 7.296875 11.1875 8.148438 11.0625 8.730469 Z M 11.0625 8.730469 "/>
<path style=" stroke:none;fill-rule:nonzero;fill:rgb(100%,100%,100%);fill-opacity:1;" d="M 26.265625 9.179688 C 26.097656 9.804688 26.027344 10.105469 25.734375 10.621094 C 25.445312 11.136719 25.078125 11.816406 24.652344 12.253906 C 24.644531 12.398438 24.660156 12.5 24.699219 12.644531 C 24.738281 12.785156 24.828125 12.914062 24.921875 13 C 25.109375 13.164062 25.324219 13.09375 25.449219 13.042969 C 25.699219 12.9375 25.800781 12.8125 25.988281 12.636719 C 26.351562 12.292969 26.53125 12.117188 26.746094 11.859375 C 27.011719 11.542969 27.289062 11.296875 27.808594 11.484375 C 27.386719 11.984375 27.589844 12.640625 27.683594 13.207031 C 27.773438 13.777344 27.757812 14.257812 26.894531 14.421875 C 26.851562 14.5625 26.921875 14.640625 27.023438 14.6875 C 27.121094 14.738281 27.257812 14.742188 27.332031 14.757812 C 27.53125 14.804688 27.652344 14.851562 27.761719 14.914062 C 27.871094 14.976562 27.960938 15.046875 28.070312 15.132812 C 28.164062 15.230469 28.316406 15.378906 28.335938 15.617188 C 28.347656 15.789062 28.300781 15.941406 28.238281 16.046875 C 28.105469 16.261719 27.957031 16.316406 27.761719 16.394531 C 27.566406 16.472656 27.101562 16.5 26.769531 16.410156 C 26.09375 16.230469 25.734375 16.015625 25.054688 15.683594 C 24.246094 15.292969 23.875 15.109375 23.160156 14.914062 C 21.65625 14.5 20.449219 14.425781 18.945312 14.40625 C 17.441406 14.382812 15.898438 14.570312 14.429688 14.824219 C 13.855469 14.925781 12.964844 15.175781 12.269531 15.410156 C 11.574219 15.640625 10.894531 15.910156 10.191406 16.3125 C 10.992188 15.542969 11.988281 15.023438 13.039062 14.644531 C 14.09375 14.261719 15.203125 14.023438 16.222656 13.808594 C 17.839844 13.429688 19.429688 13.476562 20.996094 13.734375 C 22.566406 13.992188 23.425781 14.363281 24.832031 14.933594 C 25.242188 15.101562 25.957031 15.550781 26.320312 15.746094 C 26.761719 15.984375 27.246094 16.042969 27.515625 15.789062 C 27.644531 15.667969 27.636719 15.535156 27.589844 15.402344 C 27.546875 15.273438 27.457031 15.15625 27.339844 15.085938 C 27.125 14.941406 26.769531 14.890625 26.449219 14.789062 C 26.128906 14.691406 26.042969 14.539062 25.976562 14.203125 C 26.082031 14.03125 26.023438 14.09375 26.175781 14.160156 C 26.328125 14.222656 26.488281 14.292969 26.632812 14.144531 C 26.757812 13.9375 26.785156 13.710938 26.769531 13.476562 C 26.757812 13.246094 26.757812 12.996094 26.671875 12.796875 C 26.628906 12.699219 26.386719 12.941406 26.273438 13.054688 C 26.15625 13.171875 26.132812 13.191406 25.976562 13.328125 C 25.714844 13.558594 25.726562 13.59375 25.421875 13.691406 C 25.171875 13.773438 25.03125 13.777344 24.757812 13.613281 C 24.570312 13.503906 24.476562 13.398438 24.371094 13.207031 C 24.261719 13.007812 24.234375 12.824219 24.148438 12.632812 C 23.933594 12.753906 24.003906 12.75 23.777344 12.875 C 23.535156 13.007812 23.28125 13.042969 23.027344 13.019531 C 22.871094 13.007812 22.640625 12.902344 22.539062 12.808594 C 22.433594 12.71875 22.398438 12.636719 22.285156 12.558594 C 22.09375 12.671875 21.917969 12.734375 21.71875 12.800781 C 21.515625 12.867188 21.320312 12.914062 21.101562 12.84375 C 20.890625 12.777344 20.746094 12.621094 20.652344 12.496094 C 20.652344 12.496094 20.414062 12.117188 20.539062 11.984375 C 20.308594 12.230469 19.992188 12.453125 19.753906 12.613281 C 19.546875 12.75 19.324219 12.921875 18.992188 12.894531 C 18.886719 12.855469 18.839844 12.765625 18.8125 12.671875 C 18.789062 12.574219 18.71875 12.457031 18.761719 12.398438 C 18.640625 12.574219 18.425781 12.742188 18.113281 12.832031 C 17.804688 12.917969 17.488281 12.976562 17.269531 12.789062 L 17.132812 12.621094 L 17.066406 12.429688 C 16.839844 12.496094 16.667969 12.578125 16.355469 12.734375 C 16.144531 12.835938 15.828125 13.128906 15.761719 12.976562 C 15.730469 12.90625 15.742188 12.808594 15.75 12.667969 C 15.757812 12.527344 15.789062 12.28125 15.8125 12.125 C 15.847656 11.894531 15.867188 11.703125 15.867188 11.445312 C 15.867188 11.214844 15.921875 11.011719 15.675781 11.019531 L 15.476562 11.070312 L 15.335938 11.144531 C 15.164062 11.242188 14.992188 11.3125 14.929688 11.933594 C 14.894531 12.261719 14.902344 12.226562 14.828125 12.539062 C 14.761719 12.8125 14.722656 12.8125 14.589844 13.101562 C 14.546875 13.191406 14.382812 13.367188 14.207031 13.441406 C 14.003906 13.53125 13.933594 13.550781 13.710938 13.570312 C 13.632812 13.578125 13.273438 13.636719 13.027344 13.492188 C 12.886719 13.410156 12.722656 13.570312 12.632812 13.648438 C 12.539062 13.722656 12.433594 13.824219 12.304688 13.882812 C 12.109375 13.976562 11.898438 14.035156 11.683594 14.011719 C 11.46875 13.984375 11.226562 13.910156 11.070312 13.703125 C 10.851562 13.40625 10.800781 12.875 10.894531 12.523438 C 10.984375 12.1875 11.035156 12.003906 11.210938 11.675781 C 11.355469 11.414062 11.652344 11.046875 11.929688 10.871094 C 12.203125 10.699219 12.367188 10.5625 12.6875 10.621094 C 12.863281 10.648438 12.949219 10.757812 12.984375 10.851562 C 13.019531 10.941406 13.039062 11.015625 13.148438 11.003906 C 13.273438 10.992188 13.226562 10.800781 13.371094 10.75 C 13.464844 10.71875 13.664062 10.816406 13.746094 10.9375 C 13.617188 11.242188 13.507812 11.5 13.410156 11.816406 C 13.210938 12.464844 13.375 12.785156 13.425781 12.886719 C 13.5 13.039062 13.734375 12.984375 13.84375 12.921875 C 14.089844 12.78125 14.117188 12.605469 14.167969 12.429688 C 14.234375 12.191406 14.242188 12.042969 14.261719 11.632812 C 14.28125 11.253906 14.316406 10.816406 14.195312 10.464844 C 14.332031 10.390625 14.480469 10.316406 14.640625 10.269531 C 14.796875 10.222656 14.785156 10.195312 14.953125 10.234375 C 14.996094 10.324219 15.023438 10.410156 15.015625 10.519531 C 15.007812 10.613281 15.003906 10.785156 15.121094 10.777344 C 15.332031 10.769531 15.53125 10.476562 15.75 10.300781 C 15.964844 10.125 16.191406 10.03125 16.441406 10.308594 C 16.515625 10.476562 16.53125 10.648438 16.519531 10.816406 C 16.507812 10.984375 16.472656 11.152344 16.441406 11.320312 C 16.40625 11.492188 16.398438 11.691406 16.398438 11.828125 C 16.394531 11.96875 16.417969 12.039062 16.585938 12.039062 C 17.121094 12.039062 17.011719 11.40625 17.242188 10.863281 C 17.441406 10.394531 17.703125 10.027344 18.28125 9.804688 C 18.4375 9.71875 18.625 9.671875 18.804688 9.6875 C 18.988281 9.699219 19.164062 9.773438 19.304688 9.933594 C 19.421875 9.820312 19.496094 9.660156 19.554688 9.484375 C 19.621094 9.3125 19.671875 9.125 19.75 8.957031 C 19.832031 8.742188 19.90625 8.558594 19.957031 8.378906 C 20.007812 8.199219 20.035156 8.023438 20.019531 7.832031 C 20.089844 7.75 20.210938 7.691406 20.347656 7.648438 C 20.480469 7.605469 20.628906 7.578125 20.757812 7.554688 L 20.796875 7.605469 L 20.898438 7.65625 C 20.710938 8.300781 20.417969 8.933594 20.179688 9.578125 C 19.941406 10.21875 19.699219 10.867188 19.496094 11.542969 C 19.492188 11.625 19.445312 11.761719 19.441406 11.867188 C 19.4375 11.972656 19.476562 12.046875 19.652344 12.015625 C 20.203125 11.890625 20.53125 11.273438 20.921875 10.78125 C 21.261719 10.347656 21.402344 10.246094 21.703125 10.042969 C 21.835938 9.957031 22.1875 9.824219 22.34375 9.8125 C 22.453125 9.804688 22.5625 9.753906 22.773438 9.902344 C 22.953125 10.03125 22.890625 10.207031 22.980469 10.242188 C 23.175781 10.320312 23.089844 10.089844 23.246094 10.089844 L 23.445312 10.183594 L 23.621094 10.265625 L 23.089844 11.210938 L 22.914062 11.675781 C 22.886719 11.804688 22.789062 12.15625 22.964844 12.3125 C 23.113281 12.441406 23.40625 12.410156 23.496094 12.382812 C 23.707031 12.316406 24.015625 12.082031 24.078125 11.71875 C 24.15625 11.265625 24.195312 10.792969 24.335938 10.34375 C 24.503906 9.800781 24.648438 9.410156 24.929688 8.945312 C 25.214844 8.476562 25.765625 7.714844 26.054688 7.855469 C 26.222656 7.9375 26.367188 8.074219 26.371094 8.328125 C 26.378906 8.59375 26.328125 8.9375 26.265625 9.179688 Z M 25.746094 8.683594 C 25.296875 9.1875 24.695312 10.734375 24.589844 11.503906 C 25.21875 10.929688 25.957031 9.429688 25.746094 8.683594 Z M 22.265625 10.566406 C 21.9375 10.597656 20.992188 11.511719 21.109375 11.929688 C 21.226562 12.300781 21.75 12.128906 21.894531 12.007812 C 22.089844 11.828125 22.339844 11.398438 22.488281 10.933594 C 22.53125 10.664062 22.433594 10.523438 22.265625 10.566406 Z M 18.757812 10.285156 C 18.300781 10.335938 17.964844 10.824219 17.757812 11.222656 C 17.628906 11.574219 17.507812 11.96875 17.925781 12.054688 C 18.167969 12.09375 18.496094 11.808594 18.667969 11.507812 C 18.816406 11.167969 19.265625 10.40625 18.757812 10.285156 Z M 12.503906 11.410156 C 12.28125 11.402344 12.105469 11.621094 11.972656 11.734375 C 11.671875 12.023438 11.378906 12.566406 11.511719 12.988281 C 11.644531 13.316406 11.859375 13.234375 12.050781 13.199219 C 12.4375 13.027344 12.664062 12.308594 12.722656 11.929688 C 12.71875 11.753906 12.847656 11.453125 12.503906 11.410156 Z M 12.503906 11.410156 "/>
</g>
</svg>
