<?xml version="1.0" encoding="UTF-8"?>
<svg xmlns="http://www.w3.org/2000/svg" xmlns:xlink="http://www.w3.org/1999/xlink" width="35pt" height="25pt" viewBox="0 0 35 25" version="1.1">
<g id="surface1">
<path style=" stroke:none;fill-rule:nonzero;fill:rgb(100%,100%,100%);fill-opacity:1;" d="M 10.945312 12.644531 C 11.570312 12.382812 11.8125 12.097656 12.113281 11.300781 L 13.390625 7.878906 C 13.429688 7.777344 13.445312 7.695312 13.445312 7.636719 C 13.445312 7.457031 13.238281 7.375 12.777344 7.375 L 10.144531 7.375 L 10.429688 8.078125 L 9.375 10.921875 C 9.199219 11.382812 8.9375 11.535156 8.3125 11.535156 C 7.867188 11.535156 7.636719 11.425781 7.636719 11.199219 C 7.636719 11.121094 7.648438 11.074219 7.730469 10.835938 L 8.851562 7.828125 C 8.878906 7.769531 8.894531 7.675781 8.894531 7.636719 C 8.894531 7.457031 8.6875 7.375 8.226562 7.375 L 5.589844 7.375 L 5.875 8.078125 L 4.722656 11.191406 C 4.628906 11.445312 4.546875 11.753906 4.546875 11.90625 C 4.546875 12.6875 5.605469 13.0625 7.859375 13.0625 C 9.339844 13.0625 10.265625 12.929688 10.945312 12.644531 "/>
<path style=" stroke:none;fill-rule:nonzero;fill:rgb(100%,100%,100%);fill-opacity:1;" d="M 12.796875 12.519531 C 12.769531 12.585938 12.753906 12.660156 12.753906 12.710938 C 12.753906 12.886719 12.945312 12.96875 13.394531 12.96875 L 17.511719 12.96875 C 18.191406 12.96875 18.339844 12.902344 18.476562 12.527344 L 19.453125 9.890625 L 17.390625 11.476562 L 16.082031 11.476562 L 17.414062 7.828125 C 17.441406 7.761719 17.457031 7.683594 17.457031 7.644531 C 17.457031 7.457031 17.253906 7.375 16.789062 7.375 L 14.15625 7.375 L 14.4375 8.078125 Z M 12.796875 12.519531 "/>
<path style=" stroke:none;fill-rule:nonzero;fill:rgb(100%,100%,100%);fill-opacity:1;" d="M 30.085938 7.742188 C 30.074219 7.449219 29.9375 7.375 29.367188 7.375 L 26.554688 7.375 L 26.703125 8.085938 L 25.269531 10.027344 L 25.046875 7.820312 C 25.019531 7.433594 24.925781 7.375 24.273438 7.375 L 21.609375 7.375 L 21.800781 8.085938 L 19.109375 12.558594 C 19.070312 12.636719 19.027344 12.71875 19.027344 12.777344 C 19.027344 12.910156 19.175781 12.96875 19.558594 12.96875 L 21.914062 12.96875 L 21.710938 12.289062 L 22.945312 9.949219 L 23.199219 12.96875 L 25.453125 12.96875 L 27.585938 9.683594 L 27.214844 12.519531 C 27.203125 12.878906 27.324219 12.96875 27.828125 12.96875 L 30.339844 12.96875 L 29.851562 12.199219 Z M 30.085938 7.742188 "/>
<path style=" stroke:none;fill-rule:nonzero;fill:rgb(100%,100%,100%);fill-opacity:1;" d="M 9.753906 14.882812 L 9.761719 14.917969 C 9.785156 14.925781 9.800781 14.933594 9.804688 14.960938 C 9.804688 14.96875 9.804688 14.984375 9.800781 15.015625 L 9.753906 15.8125 L 9.457031 15.074219 C 9.445312 15.046875 9.4375 15.03125 9.4375 15.023438 C 9.433594 15 9.445312 14.984375 9.464844 14.972656 L 9.460938 14.9375 L 8.984375 15.019531 L 8.988281 15.054688 C 9.015625 15.0625 9.027344 15.070312 9.03125 15.097656 C 9.03125 15.105469 9.035156 15.121094 9.03125 15.148438 L 8.992188 15.945312 L 8.675781 15.214844 C 8.664062 15.195312 8.65625 15.175781 8.65625 15.164062 C 8.648438 15.136719 8.660156 15.121094 8.6875 15.109375 L 8.679688 15.074219 L 8.289062 15.144531 L 8.296875 15.175781 C 8.332031 15.1875 8.34375 15.207031 8.359375 15.242188 L 8.832031 16.25 C 8.839844 16.269531 8.847656 16.285156 8.847656 16.296875 C 8.855469 16.332031 8.847656 16.34375 8.820312 16.355469 L 8.828125 16.394531 L 9.265625 16.316406 L 9.257812 16.28125 C 9.230469 16.277344 9.21875 16.265625 9.214844 16.238281 C 9.210938 16.226562 9.214844 16.210938 9.214844 16.183594 L 9.25 15.265625 L 9.597656 16.117188 C 9.605469 16.140625 9.613281 16.15625 9.613281 16.167969 C 9.621094 16.195312 9.609375 16.210938 9.589844 16.226562 L 9.59375 16.257812 L 10.015625 16.183594 L 10.007812 16.144531 C 9.976562 16.140625 9.964844 16.128906 9.957031 16.109375 C 9.957031 16.089844 9.957031 16.074219 9.960938 16.050781 L 10.066406 15.046875 C 10.074219 14.976562 10.085938 14.914062 10.121094 14.855469 L 10.117188 14.820312 Z M 9.753906 14.882812 "/>
<path style=" stroke:none;fill-rule:nonzero;fill:rgb(100%,100%,100%);fill-opacity:1;" d="M 11.636719 15.445312 L 11.738281 14.847656 L 11.996094 15.402344 Z M 12.476562 15.742188 L 12.003906 14.726562 C 11.988281 14.6875 11.976562 14.660156 11.976562 14.652344 C 11.972656 14.625 11.980469 14.613281 12 14.609375 L 11.996094 14.574219 L 11.460938 14.636719 L 11.464844 14.671875 C 11.488281 14.671875 11.496094 14.683594 11.5 14.710938 C 11.5 14.71875 11.5 14.75 11.492188 14.789062 L 11.324219 15.773438 C 11.3125 15.855469 11.304688 15.921875 11.25 15.964844 L 11.253906 16 L 11.621094 15.957031 L 11.617188 15.921875 C 11.589844 15.914062 11.570312 15.898438 11.566406 15.863281 C 11.566406 15.851562 11.566406 15.839844 11.570312 15.820312 L 11.597656 15.671875 L 12.097656 15.613281 L 12.160156 15.75 C 12.171875 15.777344 12.175781 15.792969 12.179688 15.804688 C 12.179688 15.828125 12.171875 15.84375 12.144531 15.855469 L 12.148438 15.890625 L 12.542969 15.84375 L 12.539062 15.808594 C 12.5 15.792969 12.492188 15.773438 12.476562 15.742188 "/>
<path style=" stroke:none;fill-rule:nonzero;fill:rgb(100%,100%,100%);fill-opacity:1;" d="M 14.136719 14.957031 L 13.871094 14.976562 L 13.851562 14.675781 L 14.109375 14.65625 C 14.277344 14.644531 14.359375 14.667969 14.367188 14.789062 C 14.375 14.898438 14.296875 14.945312 14.136719 14.957031 M 14.617188 15.5 L 14.433594 15.199219 C 14.613281 15.121094 14.699219 14.976562 14.683594 14.769531 C 14.667969 14.515625 14.507812 14.363281 14.226562 14.378906 L 13.472656 14.433594 L 13.476562 14.46875 C 13.519531 14.476562 13.53125 14.492188 13.535156 14.539062 L 13.609375 15.644531 C 13.613281 15.691406 13.605469 15.707031 13.5625 15.722656 L 13.566406 15.757812 L 13.976562 15.726562 L 13.976562 15.691406 C 13.929688 15.683594 13.917969 15.671875 13.917969 15.625 L 13.890625 15.242188 L 14.113281 15.226562 L 14.316406 15.554688 C 14.332031 15.582031 14.347656 15.601562 14.351562 15.625 C 14.351562 15.644531 14.339844 15.660156 14.316406 15.667969 L 14.320312 15.703125 L 14.757812 15.675781 L 14.753906 15.636719 C 14.695312 15.628906 14.664062 15.578125 14.617188 15.5 "/>
<path style=" stroke:none;fill-rule:nonzero;fill:rgb(100%,100%,100%);fill-opacity:1;" d="M 17.09375 15.503906 L 17.074219 14.394531 C 17.074219 14.347656 17.082031 14.332031 17.125 14.320312 L 17.125 14.285156 L 16.710938 14.292969 L 16.710938 14.328125 C 16.753906 14.339844 16.765625 14.351562 16.765625 14.402344 L 16.773438 14.769531 L 16.234375 14.777344 L 16.230469 14.410156 C 16.226562 14.363281 16.238281 14.347656 16.28125 14.335938 L 16.28125 14.300781 L 15.867188 14.308594 L 15.867188 14.34375 C 15.914062 14.355469 15.921875 14.367188 15.921875 14.414062 L 15.941406 15.523438 C 15.941406 15.574219 15.933594 15.585938 15.890625 15.597656 L 15.890625 15.632812 L 16.304688 15.625 L 16.304688 15.589844 C 16.257812 15.578125 16.25 15.566406 16.25 15.519531 L 16.242188 15.082031 L 16.777344 15.074219 L 16.785156 15.507812 C 16.789062 15.558594 16.777344 15.570312 16.734375 15.582031 L 16.734375 15.617188 L 17.148438 15.613281 L 17.148438 15.578125 C 17.101562 15.5625 17.09375 15.550781 17.09375 15.503906 "/>
<path style=" stroke:none;fill-rule:nonzero;fill:rgb(100%,100%,100%);fill-opacity:1;" d="M 18.828125 14.542969 L 18.996094 15.132812 L 18.632812 15.121094 Z M 18.542969 15.585938 C 18.511719 15.574219 18.5 15.554688 18.5 15.523438 C 18.5 15.511719 18.503906 15.5 18.511719 15.480469 L 18.558594 15.339844 L 19.066406 15.355469 L 19.101562 15.5 C 19.109375 15.53125 19.113281 15.546875 19.113281 15.558594 C 19.113281 15.582031 19.101562 15.597656 19.074219 15.605469 L 19.070312 15.640625 L 19.46875 15.652344 L 19.46875 15.617188 C 19.433594 15.597656 19.429688 15.578125 19.417969 15.542969 L 19.109375 14.46875 C 19.097656 14.425781 19.09375 14.398438 19.09375 14.390625 C 19.09375 14.359375 19.105469 14.351562 19.125 14.347656 L 19.128906 14.3125 L 18.585938 14.292969 L 18.585938 14.332031 C 18.609375 14.332031 18.617188 14.34375 18.617188 14.371094 C 18.617188 14.382812 18.609375 14.410156 18.59375 14.449219 L 18.277344 15.394531 C 18.25 15.472656 18.234375 15.535156 18.171875 15.574219 L 18.171875 15.609375 L 18.542969 15.621094 Z M 18.542969 15.585938 "/>
<path style=" stroke:none;fill-rule:nonzero;fill:rgb(100%,100%,100%);fill-opacity:1;" d="M 20.523438 14.476562 L 20.738281 15.570312 C 20.742188 15.589844 20.742188 15.605469 20.742188 15.617188 C 20.738281 15.652344 20.730469 15.664062 20.699219 15.667969 L 20.699219 15.710938 L 21.140625 15.742188 L 21.144531 15.707031 C 21.117188 15.695312 21.109375 15.679688 21.109375 15.652344 C 21.113281 15.640625 21.117188 15.621094 21.125 15.601562 L 21.382812 14.714844 L 21.511719 15.628906 C 21.515625 15.652344 21.515625 15.667969 21.515625 15.679688 C 21.515625 15.707031 21.503906 15.71875 21.476562 15.730469 L 21.476562 15.765625 L 21.902344 15.792969 L 21.902344 15.753906 C 21.875 15.742188 21.863281 15.726562 21.867188 15.707031 C 21.867188 15.6875 21.871094 15.671875 21.878906 15.652344 L 22.222656 14.703125 C 22.25 14.632812 22.277344 14.578125 22.324219 14.527344 L 22.328125 14.492188 L 21.960938 14.46875 L 21.960938 14.503906 C 21.984375 14.515625 21.992188 14.527344 21.992188 14.554688 C 21.992188 14.5625 21.984375 14.574219 21.976562 14.605469 L 21.738281 15.367188 L 21.628906 14.582031 C 21.625 14.550781 21.621094 14.535156 21.621094 14.527344 C 21.625 14.503906 21.636719 14.492188 21.664062 14.484375 L 21.664062 14.449219 L 21.179688 14.414062 L 21.179688 14.449219 C 21.203125 14.460938 21.210938 14.472656 21.210938 14.503906 C 21.210938 14.507812 21.207031 14.523438 21.199219 14.550781 L 20.964844 15.3125 L 20.832031 14.527344 C 20.828125 14.503906 20.828125 14.488281 20.828125 14.476562 C 20.828125 14.445312 20.84375 14.433594 20.871094 14.425781 L 20.875 14.390625 L 20.476562 14.363281 L 20.476562 14.398438 C 20.507812 14.417969 20.515625 14.441406 20.523438 14.476562 "/>
<path style=" stroke:none;fill-rule:nonzero;fill:rgb(100%,100%,100%);fill-opacity:1;" d="M 23.6875 15.96875 C 23.644531 15.953125 23.636719 15.9375 23.644531 15.890625 L 23.679688 15.632812 L 23.925781 15.429688 L 24.09375 15.910156 C 24.105469 15.941406 24.121094 15.964844 24.117188 15.988281 C 24.113281 16.007812 24.097656 16.019531 24.074219 16.023438 L 24.070312 16.058594 L 24.527344 16.125 L 24.53125 16.089844 C 24.480469 16.0625 24.460938 16.007812 24.429688 15.921875 L 24.179688 15.226562 L 24.578125 14.898438 C 24.609375 14.875 24.640625 14.847656 24.703125 14.84375 L 24.707031 14.808594 L 24.183594 14.734375 L 24.179688 14.769531 C 24.203125 14.773438 24.210938 14.78125 24.210938 14.804688 C 24.207031 14.816406 24.183594 14.835938 24.148438 14.867188 L 23.742188 15.199219 L 23.800781 14.789062 C 23.804688 14.742188 23.816406 14.734375 23.863281 14.726562 L 23.867188 14.691406 L 23.460938 14.632812 L 23.453125 14.667969 C 23.496094 14.6875 23.503906 14.699219 23.496094 14.75 L 23.339844 15.847656 C 23.335938 15.894531 23.324219 15.90625 23.277344 15.914062 L 23.273438 15.949219 L 23.683594 16.003906 Z M 23.6875 15.96875 "/>
<path style=" stroke:none;fill-rule:nonzero;fill:rgb(100%,100%,100%);fill-opacity:1;" d="M 25.726562 15.839844 L 25.703125 15.820312 L 25.476562 16.1875 L 25.5 16.207031 C 25.519531 16.183594 25.535156 16.171875 25.546875 16.175781 C 25.570312 16.179688 25.722656 16.328125 26.078125 16.398438 C 26.421875 16.464844 26.667969 16.3125 26.71875 16.058594 C 26.769531 15.792969 26.632812 15.65625 26.304688 15.570312 C 26.082031 15.511719 25.960938 15.492188 25.980469 15.390625 C 25.996094 15.316406 26.105469 15.269531 26.273438 15.300781 C 26.472656 15.339844 26.644531 15.453125 26.628906 15.523438 C 26.628906 15.53125 26.621094 15.539062 26.617188 15.554688 L 26.640625 15.574219 L 26.839844 15.253906 L 26.816406 15.230469 C 26.796875 15.257812 26.78125 15.257812 26.761719 15.253906 C 26.699219 15.242188 26.550781 15.101562 26.300781 15.054688 C 25.976562 14.992188 25.746094 15.128906 25.699219 15.359375 C 25.65625 15.597656 25.796875 15.746094 26.125 15.828125 C 26.320312 15.875 26.453125 15.898438 26.425781 16.042969 C 26.40625 16.132812 26.300781 16.179688 26.128906 16.144531 C 25.875 16.097656 25.699219 15.949219 25.714844 15.859375 C 25.71875 15.851562 25.722656 15.847656 25.726562 15.839844 "/>
<path style=" stroke:none;fill-rule:nonzero;fill:rgb(68.627451%,50.196078%,2.352941%);fill-opacity:1;" d="M 33.648438 14.519531 C 33.648438 14.519531 33.398438 15.125 32.65625 15.554688 C 32.378906 15.714844 31.367188 16.167969 31.367188 16.167969 L 32.660156 16.160156 C 32.660156 16.160156 32.082031 16.941406 30.886719 17.304688 C 30.347656 17.46875 29.753906 17.558594 29.148438 17.589844 L 28.90625 18.101562 C 25.945312 17.21875 22.382812 16.746094 17.730469 16.699219 C 13.070312 16.746094 9.503906 17.21875 6.546875 18.101562 L 6.308594 17.601562 C 5.546875 17.597656 4.785156 17.507812 4.113281 17.304688 C 2.917969 16.941406 2.339844 16.160156 2.339844 16.160156 L 3.632812 16.167969 C 3.632812 16.167969 2.621094 15.714844 2.34375 15.554688 C 1.601562 15.125 1.351562 14.519531 1.351562 14.519531 L 3.265625 14.644531 C 3.265625 14.644531 2.042969 14.226562 1.53125 13.761719 C 1.15625 13.417969 0.882812 12.722656 0.882812 12.722656 C 0.882812 12.722656 3.265625 13.289062 5.242188 13.75 C 4.949219 13.4375 4.488281 12.949219 4.46875 12.925781 C 4.164062 12.675781 3.988281 12.339844 3.988281 11.90625 C 3.988281 11.648438 4.105469 11.257812 4.203125 10.996094 L 5.28125 8.089844 L 4.765625 6.820312 L 8.226562 6.820312 C 8.472656 6.820312 8.726562 6.839844 8.9375 6.921875 C 9.082031 6.980469 9.535156 7.410156 9.535156 7.410156 L 9.324219 6.820312 L 16.789062 6.820312 C 17.035156 6.820312 17.292969 6.839844 17.503906 6.925781 C 17.640625 6.980469 17.777344 7.074219 17.875 7.207031 L 18.757812 8.148438 C 18.875 8.277344 18.964844 8.449219 18.964844 8.675781 C 18.964844 8.796875 18.933594 8.945312 18.882812 9.066406 L 18.597656 9.851562 L 20.46875 8.4375 L 20.78125 8.703125 L 21.203125 8.003906 L 20.886719 6.820312 L 24.273438 6.820312 C 25.097656 6.832031 25.34375 7.070312 25.386719 7.117188 L 26.007812 7.710938 L 25.875 6.820312 L 29.367188 6.820312 C 29.792969 6.820312 30.167969 6.914062 30.503906 7.257812 L 31.324219 8.097656 C 31.324219 8.097656 31.394531 8.234375 31.457031 8.386719 C 31.519531 8.535156 31.589844 8.726562 31.597656 8.855469 L 31.367188 13.082031 L 31.539062 13.332031 C 32.933594 13.003906 34.121094 12.722656 34.121094 12.722656 C 34.121094 12.722656 33.84375 13.417969 33.46875 13.761719 C 32.957031 14.226562 31.734375 14.644531 31.734375 14.644531 Z M 31.628906 12.269531 L 32.027344 12.269531 L 32.027344 12.398438 L 31.902344 12.398438 L 31.902344 12.84375 L 31.753906 12.84375 L 31.753906 12.398438 L 31.628906 12.398438 Z M 32.121094 12.269531 L 32.265625 12.269531 L 32.382812 12.578125 L 32.507812 12.269531 L 32.65625 12.269531 L 32.742188 12.84375 L 32.59375 12.84375 L 32.550781 12.515625 L 32.414062 12.84375 L 32.351562 12.84375 L 32.222656 12.515625 L 32.21875 12.515625 L 32.171875 12.84375 L 32.023438 12.84375 Z M 34.410156 13.367188 C 34.539062 13.128906 35 11.960938 35 11.960938 L 32.980469 12.4375 L 32.980469 12.175781 C 32.980469 12.066406 32.890625 11.976562 32.78125 11.976562 L 32.0625 11.976562 L 32.230469 8.835938 C 32.21875 8.578125 32.101562 8.277344 32.042969 8.140625 C 31.972656 7.96875 31.847656 7.722656 31.847656 7.722656 L 30.960938 6.816406 C 30.46875 6.3125 29.910156 6.183594 29.367188 6.183594 L 20.058594 6.183594 L 20.425781 7.550781 L 19.550781 8.304688 C 19.488281 8.066406 19.367188 7.871094 19.222656 7.714844 L 18.359375 6.796875 C 18.183594 6.570312 17.957031 6.421875 17.742188 6.335938 C 17.410156 6.203125 17.054688 6.183594 16.789062 6.183594 L 3.824219 6.183594 L 4.601562 8.097656 L 3.605469 10.773438 C 3.503906 11.042969 3.355469 11.523438 3.355469 11.90625 C 3.355469 12.261719 3.4375 12.546875 3.582031 12.804688 C 1.742188 12.371094 0 11.960938 0 11.960938 C 0 11.960938 0.460938 13.128906 0.589844 13.367188 C 0.679688 13.535156 0.808594 13.753906 0.972656 13.953125 L 0.53125 13.921875 C 0.53125 13.921875 0.710938 14.375 0.773438 14.519531 C 0.835938 14.671875 0.90625 14.835938 0.929688 14.878906 C 0.972656 14.960938 1.042969 15.074219 1.136719 15.199219 C 1.234375 15.328125 1.363281 15.472656 1.523438 15.617188 L 1.265625 15.617188 C 1.265625 15.617188 1.628906 16.109375 1.746094 16.265625 C 1.859375 16.417969 2 16.597656 2.054688 16.65625 C 2.140625 16.75 2.269531 16.878906 2.4375 17.015625 C 2.773438 17.289062 3.28125 17.613281 3.957031 17.820312 C 4.589844 18.015625 5.277344 18.109375 5.964844 18.136719 L 6.257812 18.75 L 6.703125 18.617188 C 9.59375 17.753906 13.101562 17.289062 17.726562 17.238281 C 22.34375 17.285156 25.855469 17.753906 28.75 18.617188 L 29.195312 18.75 L 29.5 18.105469 C 30.03125 18.0625 30.554688 17.972656 31.042969 17.820312 C 31.71875 17.613281 32.226562 17.289062 32.5625 17.015625 C 32.730469 16.878906 32.859375 16.75 32.945312 16.65625 C 33 16.597656 33.140625 16.417969 33.253906 16.265625 C 33.371094 16.109375 33.730469 15.621094 33.730469 15.621094 L 33.476562 15.621094 C 33.636719 15.472656 33.765625 15.328125 33.863281 15.199219 C 33.957031 15.074219 34.027344 14.960938 34.070312 14.878906 C 34.09375 14.835938 34.164062 14.671875 34.226562 14.519531 C 34.289062 14.375 34.46875 13.921875 34.46875 13.921875 L 34.027344 13.953125 C 34.191406 13.753906 34.320312 13.535156 34.410156 13.367188 "/>
<path style=" stroke:none;fill-rule:nonzero;fill:rgb(44.313725%,12.156863%,13.72549%);fill-opacity:1;" d="M 11.636719 15.445312 L 11.996094 15.402344 L 11.738281 14.847656 Z M 11.636719 15.445312 "/>
<path style=" stroke:none;fill-rule:nonzero;fill:rgb(44.313725%,12.156863%,13.72549%);fill-opacity:1;" d="M 18.828125 14.542969 L 18.632812 15.121094 L 18.996094 15.132812 Z M 18.828125 14.542969 "/>
<path style=" stroke:none;fill-rule:nonzero;fill:rgb(44.313725%,12.156863%,13.72549%);fill-opacity:1;" d="M 14.109375 14.65625 L 13.847656 14.675781 L 13.871094 14.976562 L 14.136719 14.957031 C 14.296875 14.945312 14.375 14.898438 14.367188 14.789062 C 14.359375 14.667969 14.277344 14.644531 14.109375 14.65625 "/>
<path style=" stroke:none;fill-rule:nonzero;fill:rgb(44.313725%,12.156863%,13.72549%);fill-opacity:1;" d="M 18.171875 15.574219 C 18.234375 15.535156 18.25 15.472656 18.277344 15.394531 L 18.59375 14.449219 C 18.609375 14.410156 18.617188 14.382812 18.617188 14.371094 C 18.617188 14.34375 18.609375 14.332031 18.585938 14.332031 L 18.585938 14.292969 L 19.128906 14.3125 L 19.125 14.347656 C 19.105469 14.351562 19.09375 14.359375 19.09375 14.390625 C 19.09375 14.398438 19.097656 14.425781 19.109375 14.46875 L 19.417969 15.542969 C 19.429688 15.578125 19.433594 15.597656 19.46875 15.617188 L 19.46875 15.652344 L 19.070312 15.640625 L 19.074219 15.605469 C 19.101562 15.597656 19.113281 15.582031 19.113281 15.558594 C 19.113281 15.546875 19.109375 15.53125 19.101562 15.5 L 19.066406 15.355469 L 18.558594 15.339844 L 18.511719 15.480469 C 18.503906 15.5 18.5 15.511719 18.5 15.523438 C 18.5 15.554688 18.511719 15.574219 18.542969 15.585938 L 18.542969 15.621094 L 18.171875 15.609375 Z M 20.476562 14.363281 L 20.875 14.390625 L 20.871094 14.425781 C 20.84375 14.433594 20.828125 14.445312 20.828125 14.476562 C 20.828125 14.488281 20.828125 14.503906 20.835938 14.527344 L 20.964844 15.3125 L 21.199219 14.550781 C 21.207031 14.523438 21.210938 14.507812 21.210938 14.5 C 21.210938 14.472656 21.203125 14.460938 21.179688 14.449219 L 21.179688 14.414062 L 21.664062 14.449219 L 21.664062 14.484375 C 21.636719 14.492188 21.625 14.503906 21.621094 14.527344 C 21.621094 14.535156 21.625 14.550781 21.628906 14.582031 L 21.738281 15.367188 L 21.976562 14.605469 C 21.984375 14.574219 21.992188 14.5625 21.992188 14.554688 C 21.992188 14.527344 21.984375 14.515625 21.960938 14.503906 L 21.960938 14.46875 L 22.328125 14.492188 L 22.324219 14.527344 C 22.277344 14.578125 22.25 14.632812 22.222656 14.703125 L 21.878906 15.652344 C 21.871094 15.671875 21.867188 15.6875 21.867188 15.707031 C 21.863281 15.726562 21.875 15.742188 21.902344 15.753906 L 21.902344 15.792969 L 21.476562 15.765625 L 21.476562 15.730469 C 21.503906 15.71875 21.515625 15.707031 21.515625 15.679688 C 21.515625 15.667969 21.515625 15.652344 21.511719 15.628906 L 21.382812 14.714844 L 21.121094 15.601562 C 21.117188 15.621094 21.113281 15.640625 21.109375 15.652344 C 21.109375 15.679688 21.117188 15.695312 21.144531 15.707031 L 21.140625 15.742188 L 20.699219 15.710938 L 20.699219 15.667969 C 20.730469 15.664062 20.738281 15.652344 20.742188 15.617188 C 20.742188 15.605469 20.742188 15.589844 20.738281 15.570312 L 20.523438 14.476562 C 20.515625 14.441406 20.507812 14.417969 20.476562 14.398438 Z M 23.277344 15.914062 C 23.324219 15.90625 23.335938 15.894531 23.339844 15.847656 L 23.496094 14.75 C 23.503906 14.699219 23.496094 14.6875 23.453125 14.667969 L 23.460938 14.632812 L 23.867188 14.691406 L 23.863281 14.726562 C 23.816406 14.734375 23.804688 14.742188 23.800781 14.789062 L 23.742188 15.199219 L 24.148438 14.867188 C 24.183594 14.835938 24.207031 14.816406 24.210938 14.804688 C 24.210938 14.78125 24.203125 14.773438 24.179688 14.769531 L 24.183594 14.734375 L 24.707031 14.808594 L 24.703125 14.84375 C 24.640625 14.847656 24.609375 14.875 24.578125 14.898438 L 24.179688 15.226562 L 24.429688 15.921875 C 24.460938 16.007812 24.480469 16.0625 24.53125 16.089844 L 24.527344 16.125 L 24.070312 16.058594 L 24.074219 16.023438 C 24.097656 16.019531 24.113281 16.007812 24.117188 15.988281 C 24.121094 15.964844 24.105469 15.941406 24.09375 15.910156 L 23.925781 15.429688 L 23.679688 15.632812 L 23.644531 15.890625 C 23.636719 15.9375 23.644531 15.953125 23.6875 15.96875 L 23.683594 16.003906 L 23.273438 15.949219 Z M 26.128906 16.144531 C 26.300781 16.179688 26.40625 16.132812 26.425781 16.042969 C 26.453125 15.898438 26.320312 15.875 26.125 15.828125 C 25.796875 15.746094 25.65625 15.597656 25.699219 15.359375 C 25.746094 15.128906 25.976562 14.992188 26.300781 15.054688 C 26.550781 15.101562 26.699219 15.242188 26.761719 15.253906 C 26.78125 15.257812 26.796875 15.257812 26.816406 15.230469 L 26.839844 15.253906 L 26.640625 15.574219 L 26.617188 15.554688 C 26.621094 15.539062 26.628906 15.53125 26.628906 15.523438 C 26.644531 15.453125 26.472656 15.339844 26.273438 15.300781 C 26.105469 15.269531 25.996094 15.316406 25.980469 15.390625 C 25.960938 15.492188 26.082031 15.511719 26.304688 15.570312 C 26.632812 15.65625 26.769531 15.792969 26.71875 16.058594 C 26.667969 16.3125 26.421875 16.464844 26.078125 16.398438 C 25.722656 16.328125 25.570312 16.179688 25.546875 16.175781 C 25.535156 16.171875 25.523438 16.183594 25.5 16.207031 L 25.476562 16.1875 L 25.703125 15.820312 L 25.726562 15.839844 C 25.722656 15.847656 25.71875 15.851562 25.714844 15.859375 C 25.699219 15.949219 25.875 16.097656 26.128906 16.144531 M 16.734375 15.617188 L 16.734375 15.582031 C 16.777344 15.570312 16.789062 15.558594 16.785156 15.507812 L 16.777344 15.074219 L 16.242188 15.082031 L 16.25 15.519531 C 16.25 15.566406 16.257812 15.578125 16.304688 15.589844 L 16.304688 15.625 L 15.890625 15.632812 L 15.890625 15.597656 C 15.933594 15.585938 15.941406 15.574219 15.941406 15.523438 L 15.921875 14.414062 C 15.921875 14.367188 15.914062 14.355469 15.871094 14.34375 L 15.867188 14.308594 L 16.28125 14.300781 L 16.28125 14.335938 C 16.238281 14.347656 16.226562 14.363281 16.230469 14.410156 L 16.234375 14.777344 L 16.773438 14.769531 L 16.765625 14.398438 C 16.765625 14.351562 16.753906 14.339844 16.710938 14.328125 L 16.710938 14.292969 L 17.125 14.285156 L 17.125 14.320312 C 17.082031 14.332031 17.074219 14.347656 17.074219 14.394531 L 17.09375 15.503906 C 17.09375 15.550781 17.101562 15.5625 17.148438 15.578125 L 17.148438 15.613281 Z M 14.320312 15.703125 L 14.316406 15.667969 C 14.339844 15.660156 14.351562 15.644531 14.351562 15.625 C 14.347656 15.601562 14.332031 15.582031 14.316406 15.554688 L 14.113281 15.226562 L 13.890625 15.242188 L 13.917969 15.625 C 13.917969 15.671875 13.929688 15.683594 13.976562 15.691406 L 13.976562 15.726562 L 13.566406 15.757812 L 13.5625 15.722656 C 13.605469 15.707031 13.613281 15.691406 13.609375 15.644531 L 13.535156 14.539062 C 13.53125 14.492188 13.519531 14.476562 13.476562 14.46875 L 13.472656 14.433594 L 14.226562 14.378906 C 14.507812 14.363281 14.667969 14.515625 14.683594 14.769531 C 14.699219 14.976562 14.613281 15.121094 14.433594 15.199219 L 14.617188 15.5 C 14.664062 15.578125 14.695312 15.628906 14.753906 15.636719 L 14.757812 15.675781 Z M 12.148438 15.890625 L 12.144531 15.855469 C 12.171875 15.84375 12.179688 15.828125 12.179688 15.804688 C 12.175781 15.792969 12.171875 15.777344 12.160156 15.75 L 12.097656 15.613281 L 11.597656 15.671875 L 11.570312 15.820312 C 11.566406 15.839844 11.566406 15.851562 11.566406 15.863281 C 11.570312 15.898438 11.589844 15.914062 11.617188 15.921875 L 11.621094 15.957031 L 11.253906 16 L 11.25 15.964844 C 11.304688 15.921875 11.3125 15.855469 11.324219 15.773438 L 11.492188 14.789062 C 11.5 14.75 11.5 14.71875 11.5 14.710938 C 11.496094 14.683594 11.488281 14.671875 11.464844 14.671875 L 11.460938 14.636719 L 11.996094 14.574219 L 12 14.609375 C 11.980469 14.613281 11.972656 14.625 11.976562 14.652344 C 11.976562 14.660156 11.988281 14.6875 12.003906 14.726562 L 12.476562 15.742188 C 12.492188 15.773438 12.5 15.792969 12.539062 15.808594 L 12.542969 15.84375 Z M 10.066406 15.046875 L 9.960938 16.050781 C 9.957031 16.074219 9.957031 16.089844 9.957031 16.109375 C 9.964844 16.128906 9.976562 16.140625 10.007812 16.144531 L 10.015625 16.183594 L 9.59375 16.257812 L 9.589844 16.226562 C 9.609375 16.210938 9.621094 16.195312 9.613281 16.167969 C 9.613281 16.15625 9.605469 16.140625 9.597656 16.117188 L 9.25 15.265625 L 9.214844 16.183594 C 9.214844 16.210938 9.210938 16.226562 9.214844 16.238281 C 9.21875 16.265625 9.230469 16.277344 9.257812 16.28125 L 9.265625 16.316406 L 8.828125 16.394531 L 8.820312 16.355469 C 8.847656 16.34375 8.855469 16.332031 8.847656 16.296875 C 8.847656 16.285156 8.839844 16.269531 8.832031 16.25 L 8.359375 15.242188 C 8.34375 15.207031 8.332031 15.1875 8.296875 15.175781 L 8.289062 15.144531 L 8.679688 15.074219 L 8.6875 15.109375 C 8.660156 15.121094 8.648438 15.136719 8.65625 15.164062 C 8.65625 15.175781 8.664062 15.195312 8.675781 15.214844 L 8.992188 15.945312 L 9.03125 15.148438 C 9.035156 15.121094 9.03125 15.105469 9.03125 15.097656 C 9.027344 15.070312 9.015625 15.0625 8.988281 15.054688 L 8.984375 15.019531 L 9.460938 14.9375 L 9.464844 14.972656 C 9.445312 14.984375 9.433594 15 9.4375 15.023438 C 9.4375 15.03125 9.445312 15.046875 9.457031 15.074219 L 9.753906 15.8125 L 9.800781 15.015625 C 9.804688 14.984375 9.804688 14.96875 9.804688 14.960938 C 9.800781 14.933594 9.785156 14.925781 9.761719 14.917969 L 9.753906 14.882812 L 10.117188 14.820312 L 10.121094 14.855469 C 10.085938 14.914062 10.074219 14.976562 10.066406 15.046875 M 17.726562 13.609375 C 13.15625 13.5625 9.164062 14.230469 5.714844 15.164062 L 6.710938 17.46875 C 9.957031 16.546875 13.402344 16.136719 17.730469 16.125 C 22.050781 16.136719 25.496094 16.628906 28.742188 17.554688 L 29.738281 15.164062 C 26.289062 14.230469 22.296875 13.5625 17.726562 13.609375 "/>
<path style=" stroke:none;fill-rule:nonzero;fill:rgb(13.72549%,12.156863%,12.54902%);fill-opacity:1;" d="M 31.753906 12.84375 L 31.902344 12.84375 L 31.902344 12.398438 L 32.027344 12.398438 L 32.027344 12.269531 L 31.628906 12.269531 L 31.628906 12.398438 L 31.753906 12.398438 Z M 31.753906 12.84375 "/>
<path style=" stroke:none;fill-rule:nonzero;fill:rgb(13.72549%,12.156863%,12.54902%);fill-opacity:1;" d="M 32.171875 12.84375 L 32.21875 12.515625 L 32.222656 12.515625 L 32.351562 12.84375 L 32.414062 12.84375 L 32.550781 12.515625 L 32.59375 12.84375 L 32.742188 12.84375 L 32.65625 12.269531 L 32.507812 12.269531 L 32.382812 12.578125 L 32.265625 12.269531 L 32.121094 12.269531 L 32.023438 12.84375 Z M 32.171875 12.84375 "/>
<path style=" stroke:none;fill-rule:nonzero;fill:rgb(13.72549%,12.156863%,12.54902%);fill-opacity:1;" d="M 27.828125 12.972656 C 27.324219 12.972656 27.203125 12.878906 27.214844 12.519531 L 27.585938 9.683594 L 25.453125 12.972656 L 23.199219 12.972656 L 22.945312 9.949219 L 21.710938 12.292969 L 21.914062 12.972656 L 19.558594 12.972656 C 19.175781 12.972656 19.027344 12.914062 19.027344 12.777344 C 19.027344 12.71875 19.070312 12.636719 19.109375 12.558594 L 21.800781 8.085938 L 21.609375 7.375 L 24.269531 7.375 C 24.925781 7.375 25.019531 7.433594 25.046875 7.820312 L 25.269531 10.027344 L 26.703125 8.085938 L 26.554688 7.375 L 29.367188 7.375 C 29.9375 7.375 30.074219 7.449219 30.085938 7.742188 L 29.851562 12.199219 L 30.339844 12.972656 Z M 28.742188 17.554688 C 25.496094 16.628906 22.050781 16.136719 17.730469 16.125 C 13.402344 16.136719 9.957031 16.546875 6.710938 17.46875 L 5.714844 15.164062 C 9.164062 14.230469 13.15625 13.5625 17.726562 13.609375 C 22.296875 13.5625 26.289062 14.230469 29.738281 15.164062 Z M 4.546875 11.90625 C 4.546875 11.753906 4.628906 11.445312 4.722656 11.191406 L 5.875 8.078125 L 5.589844 7.375 L 8.226562 7.375 C 8.6875 7.375 8.894531 7.457031 8.894531 7.636719 C 8.894531 7.675781 8.878906 7.769531 8.851562 7.828125 L 7.730469 10.835938 C 7.648438 11.074219 7.636719 11.121094 7.636719 11.199219 C 7.636719 11.425781 7.867188 11.535156 8.3125 11.535156 C 8.9375 11.535156 9.199219 11.382812 9.375 10.921875 L 10.429688 8.078125 L 10.144531 7.375 L 12.777344 7.375 C 13.238281 7.375 13.445312 7.457031 13.445312 7.636719 C 13.445312 7.695312 13.429688 7.777344 13.390625 7.878906 L 12.113281 11.300781 C 11.8125 12.097656 11.570312 12.382812 10.945312 12.644531 C 10.265625 12.929688 9.339844 13.0625 7.859375 13.0625 C 5.605469 13.0625 4.546875 12.6875 4.546875 11.90625 M 16.789062 7.375 C 17.253906 7.375 17.457031 7.457031 17.457031 7.644531 C 17.457031 7.683594 17.441406 7.761719 17.414062 7.828125 L 16.082031 11.476562 L 17.390625 11.476562 L 19.453125 9.890625 L 18.476562 12.527344 C 18.339844 12.902344 18.191406 12.972656 17.511719 12.972656 L 13.394531 12.972656 C 12.945312 12.972656 12.753906 12.886719 12.753906 12.710938 C 12.753906 12.660156 12.769531 12.585938 12.796875 12.519531 L 14.441406 8.078125 L 14.15625 7.375 Z M 34.117188 12.722656 C 34.117188 12.722656 32.933594 13.003906 31.539062 13.332031 L 31.367188 13.082031 L 31.597656 8.855469 C 31.589844 8.726562 31.519531 8.535156 31.457031 8.386719 C 31.394531 8.234375 31.324219 8.097656 31.324219 8.097656 L 30.503906 7.257812 C 30.167969 6.914062 29.792969 6.820312 29.367188 6.820312 L 25.875 6.820312 L 26.007812 7.710938 L 25.386719 7.117188 C 25.34375 7.070312 25.097656 6.832031 24.273438 6.820312 L 20.886719 6.820312 L 21.203125 8.003906 L 20.78125 8.703125 L 20.46875 8.4375 L 18.597656 9.851562 L 18.882812 9.066406 C 18.933594 8.945312 18.964844 8.796875 18.964844 8.675781 C 18.964844 8.449219 18.875 8.277344 18.757812 8.148438 L 17.875 7.207031 C 17.777344 7.074219 17.640625 6.980469 17.503906 6.925781 C 17.292969 6.839844 17.035156 6.820312 16.789062 6.820312 L 9.324219 6.820312 L 9.535156 7.410156 C 9.535156 7.410156 9.082031 6.980469 8.9375 6.921875 C 8.726562 6.839844 8.472656 6.820312 8.226562 6.820312 L 4.765625 6.820312 L 5.28125 8.089844 L 4.203125 10.996094 C 4.105469 11.257812 3.988281 11.648438 3.988281 11.90625 C 3.988281 12.339844 4.164062 12.675781 4.46875 12.925781 C 4.488281 12.949219 4.949219 13.4375 5.242188 13.75 C 3.265625 13.289062 0.882812 12.722656 0.882812 12.722656 C 0.882812 12.722656 1.15625 13.417969 1.53125 13.761719 C 2.042969 14.226562 3.265625 14.644531 3.265625 14.644531 L 1.351562 14.519531 C 1.351562 14.519531 1.601562 15.125 2.34375 15.554688 C 2.621094 15.714844 3.632812 16.167969 3.632812 16.167969 L 2.339844 16.160156 C 2.339844 16.160156 2.917969 16.941406 4.113281 17.304688 C 4.785156 17.511719 5.546875 17.597656 6.308594 17.601562 L 6.546875 18.101562 C 9.503906 17.21875 13.070312 16.746094 17.730469 16.699219 C 22.382812 16.746094 25.945312 17.21875 28.90625 18.101562 L 29.148438 17.589844 C 29.753906 17.558594 30.347656 17.46875 30.886719 17.304688 C 32.082031 16.941406 32.660156 16.160156 32.660156 16.160156 L 31.367188 16.167969 C 31.367188 16.167969 32.378906 15.714844 32.65625 15.554688 C 33.398438 15.125 33.648438 14.519531 33.648438 14.519531 L 31.734375 14.644531 C 31.734375 14.644531 32.957031 14.226562 33.46875 13.761719 C 33.84375 13.417969 34.117188 12.722656 34.117188 12.722656 "/>
</g>
</svg>
