<?xml version="1.0" encoding="UTF-8"?>
<svg xmlns="http://www.w3.org/2000/svg" xmlns:xlink="http://www.w3.org/1999/xlink" width="35pt" height="25pt" viewBox="0 0 35 25" version="1.1">
<g id="surface1">
<path style=" stroke:none;fill-rule:evenodd;fill:rgb(100%,100%,100%);fill-opacity:1;" d="M 27.109375 20.898438 L 26.386719 25 L 3.5 25 L 4.300781 20.46875 L 4.839844 20.46875 L 6.421875 16.078125 L 7.613281 16.078125 C 7.554688 16.015625 7.484375 15.941406 7.40625 15.855469 C 7.167969 15.605469 6.867188 15.292969 6.703125 15.117188 C 6.699219 15.050781 6.695312 15.015625 6.695312 14.972656 C 6.355469 14.570312 5.96875 14.101562 5.636719 13.695312 C 5.144531 13.097656 4.839844 12.554688 4.800781 11.78125 C 4.761719 10.972656 5.023438 10.332031 5.4375 9.863281 C 5.660156 9.605469 5.878906 9.464844 6.164062 9.261719 C 6.644531 8.925781 7.007812 8.519531 8.019531 7.980469 C 8.699219 7.621094 9.324219 7.453125 10.09375 7.269531 C 10.253906 7.1875 10.414062 7.117188 10.582031 7.0625 C 10.925781 6.941406 11.277344 6.859375 11.640625 6.816406 C 11.761719 6.800781 11.886719 6.792969 12.011719 6.78125 C 12.132812 6.707031 12.253906 6.695312 12.363281 6.695312 C 12.785156 6.6875 13.4375 6.710938 13.925781 6.738281 C 13.921875 6.609375 13.921875 6.546875 13.921875 6.433594 C 13.863281 6.3125 13.84375 6.195312 13.820312 6.089844 C 13.8125 6.074219 13.792969 6.039062 13.78125 6.015625 C 13.0625 5.78125 11.996094 5.207031 11.546875 4.183594 C 11.363281 3.765625 11.320312 3.324219 11.53125 2.972656 C 11.734375 2.640625 12.042969 2.488281 12.316406 2.410156 C 12.9375 2.238281 13.582031 2.574219 14.078125 2.816406 C 14.210938 2.464844 14.332031 2.125 14.390625 2.027344 C 14.527344 1.804688 15.050781 1.230469 15.414062 0.886719 C 15.839844 0.488281 16.328125 0.0390625 16.746094 0.046875 C 17.058594 0.0507812 17.277344 0.0898438 17.578125 0.222656 C 17.699219 0.273438 17.828125 0.347656 17.90625 0.339844 C 18 0.328125 18.074219 0.195312 18.21875 0.105469 C 18.34375 0.0234375 18.457031 -0.00390625 18.601562 0 C 18.957031 0.015625 19.335938 0.511719 19.691406 1.066406 C 19.980469 1.519531 20.21875 1.914062 20.25 2.027344 C 20.300781 2.199219 20.378906 2.488281 20.449219 2.734375 C 20.703125 2.597656 21.105469 2.328125 21.425781 2.183594 C 21.605469 2.105469 21.800781 2.078125 21.960938 2.078125 C 22.128906 2.074219 22.496094 2.152344 22.628906 2.5625 C 22.6875 2.765625 22.683594 2.980469 22.621094 3.199219 C 22.539062 3.484375 22.359375 3.777344 22.148438 4.054688 C 21.753906 4.570312 21.238281 5.027344 20.667969 5.394531 C 20.648438 5.851562 20.578125 6.632812 20.53125 7.066406 C 20.570312 7.113281 20.636719 7.199219 20.6875 7.246094 C 20.722656 7.25 20.75 7.246094 20.796875 7.238281 L 22.535156 6.910156 L 21.566406 7.746094 C 21.566406 7.746094 21.878906 7.839844 22.015625 7.890625 C 22.101562 7.925781 22.203125 8 22.257812 8.066406 C 22.652344 8.222656 22.984375 8.398438 23.261719 8.609375 C 23.914062 9.113281 24.257812 9.800781 24.292969 10.777344 C 24.300781 10.957031 24.3125 11.335938 24.253906 11.695312 C 24.414062 12.425781 24.457031 13.238281 24.402344 13.878906 C 24.722656 13.957031 25.164062 14.066406 25.585938 14.167969 C 25.777344 14.066406 25.996094 13.984375 26.078125 13.972656 C 26.175781 13.976562 26.492188 13.992188 26.707031 14.113281 C 26.878906 14.066406 27.195312 14.148438 27.707031 14.226562 C 28.621094 14.371094 28.699219 14.375 28.941406 14.539062 L 29.980469 14.726562 C 30.277344 14.574219 30.863281 14.570312 31.273438 14.96875 C 31.4375 15.027344 31.601562 15.164062 31.730469 15.335938 C 31.816406 15.480469 31.871094 15.597656 31.894531 15.785156 C 31.96875 15.972656 31.984375 16.183594 31.945312 16.382812 C 31.851562 16.847656 31.496094 17.082031 31.308594 17.132812 L 30.882812 17.242188 L 29.871094 17.304688 L 29.78125 16.964844 L 29.007812 16.824219 C 28.914062 16.980469 28.804688 17.089844 28.800781 17.097656 C 28.664062 17.324219 28.460938 17.5 28.175781 17.578125 C 28.03125 17.820312 27.828125 17.988281 27.601562 18.09375 L 27.257812 20.042969 L 26.953125 20.042969 C 26.964844 20.0625 26.996094 20.109375 27.039062 20.222656 C 27.121094 20.433594 27.144531 20.671875 27.109375 20.898438 "/>
<path style=" stroke:none;fill-rule:evenodd;fill:rgb(0%,0%,0%);fill-opacity:1;" d="M 10.476562 13.476562 C 9.945312 13.039062 9.84375 12.769531 9.605469 12.285156 C 9.910156 12.164062 10.148438 12.046875 10.382812 11.890625 C 10.441406 12.054688 10.574219 12.34375 10.605469 12.410156 C 10.628906 12.765625 10.644531 13.125 10.65625 13.484375 C 10.601562 13.472656 10.539062 13.472656 10.476562 13.476562 M 19.285156 17.550781 C 19.484375 17.027344 19.726562 16.523438 20.058594 15.949219 C 20.113281 16.429688 20.273438 17.058594 20.660156 17.363281 C 20.757812 17.4375 20.882812 17.5 21.035156 17.550781 Z M 20.523438 7.933594 C 20.664062 7.890625 20.804688 7.792969 20.921875 7.6875 C 20.40625 7.792969 20.339844 7.542969 20.046875 7.203125 C 20.050781 7.1875 20.050781 7.171875 20.054688 7.15625 C 20.105469 6.726562 20.1875 5.894531 20.214844 5.128906 C 21.5 4.378906 22.132812 3.363281 22.191406 2.992188 C 22.261719 2.546875 22.046875 2.488281 21.707031 2.578125 C 21.386719 2.660156 20.65625 3.222656 20.15625 3.386719 C 19.96875 2.75 19.898438 2.484375 19.820312 2.207031 C 19.773438 2.058594 18.828125 0.46875 18.570312 0.46875 C 18.367188 0.464844 18.328125 0.765625 17.921875 0.808594 C 17.566406 0.847656 17.390625 0.5 16.726562 0.511719 C 16.304688 0.519531 14.839844 2.121094 14.769531 2.304688 C 14.667969 2.566406 14.519531 2.949219 14.328125 3.480469 C 13.875 3.222656 13.308594 2.925781 12.863281 2.839844 C 12.421875 2.757812 11.867188 3.015625 11.859375 3.484375 C 11.847656 4.148438 12.5625 5.171875 14.109375 5.632812 C 14.152344 5.71875 14.199219 5.8125 14.238281 5.890625 C 14.300781 6.007812 14.28125 6.171875 14.390625 6.324219 C 14.375 6.492188 14.398438 6.960938 14.398438 6.996094 C 14.328125 7.0625 14.261719 7.136719 14.207031 7.21875 C 13.617188 7.183594 13.015625 7.148438 12.339844 7.160156 C 12.28125 7.160156 12.234375 7.175781 12.234375 7.234375 C 12.207031 7.238281 12.183594 7.238281 12.15625 7.238281 C 11.605469 7.269531 10.949219 7.351562 10.257812 7.707031 C 9.574219 7.886719 9.097656 7.976562 8.425781 8.300781 C 7.367188 8.808594 6.90625 9.328125 6.328125 9.714844 C 5.796875 10.074219 5.359375 10.511719 5.273438 11.40625 C 5.210938 12.058594 5.414062 12.566406 5.640625 12.921875 C 5.972656 13.433594 6.699219 14.21875 7.152344 14.804688 C 7.15625 14.835938 7.15625 14.882812 7.160156 14.921875 C 7.464844 15.246094 7.882812 15.679688 8.105469 15.929688 C 8.125 15.953125 8.167969 15.964844 8.195312 15.972656 C 8.242188 16.050781 8.289062 16.132812 8.339844 16.214844 C 8.375 16.324219 8.40625 16.433594 8.4375 16.546875 C 8.4375 16.546875 8.4375 16.542969 8.4375 16.542969 L 6.746094 16.542969 L 5.164062 20.933594 L 4.6875 20.933594 L 4.054688 24.535156 L 25.996094 24.535156 L 26.648438 20.820312 C 26.6875 20.621094 26.644531 20.324219 26.386719 20.054688 C 26.308594 19.96875 26.207031 19.890625 26.128906 19.84375 L 25.679688 19.574219 L 26.871094 19.574219 L 27.191406 17.746094 C 27.191406 17.746094 27.1875 17.746094 27.183594 17.746094 C 27.484375 17.6875 27.753906 17.484375 27.855469 17.164062 C 28.144531 17.144531 28.320312 17.023438 28.421875 16.824219 C 28.523438 16.714844 28.621094 16.578125 28.699219 16.429688 C 28.773438 16.414062 28.855469 16.378906 28.917969 16.332031 L 30.15625 16.558594 L 30.222656 16.816406 L 30.808594 16.78125 L 31.132812 16.695312 C 31.449219 16.617188 31.597656 16.1875 31.4375 15.90625 C 31.4375 15.652344 31.25 15.414062 31.015625 15.375 C 30.863281 15.167969 30.574219 15.0625 30.308594 15.105469 C 30.234375 15.117188 30.132812 15.15625 30.082031 15.21875 L 28.730469 14.972656 C 28.632812 14.859375 28.503906 14.828125 28.363281 14.804688 L 26.914062 14.570312 C 26.804688 14.558594 26.714844 14.578125 26.628906 14.621094 C 26.484375 14.488281 26.328125 14.457031 26.125 14.441406 C 26.027344 14.464844 25.835938 14.5625 25.644531 14.664062 C 25.042969 14.515625 24.433594 14.363281 23.894531 14.230469 C 23.992188 13.550781 23.996094 12.679688 23.78125 11.710938 C 23.882812 11.070312 23.824219 10.609375 23.757812 10.230469 C 23.664062 9.664062 23.292969 9.21875 22.960938 8.96875 C 22.707031 8.773438 22.371094 8.601562 21.921875 8.4375 C 21.925781 8.386719 21.898438 8.339844 21.820312 8.316406 C 21.378906 8.167969 20.9375 8.042969 20.523438 7.933594 Z M 20.523438 7.933594 "/>
<path style=" stroke:none;fill-rule:evenodd;fill:rgb(64.313725%,0%,27.45098%);fill-opacity:1;" d="M 20.375 10.167969 C 20.523438 9.429688 20.863281 8.789062 21.160156 8.59375 C 20.875 8.507812 20.277344 8.34375 19.921875 8.257812 C 19.863281 8.628906 19.796875 8.910156 19.714844 9.089844 C 19.628906 9.296875 19.457031 9.367188 19.351562 9.40625 C 19.34375 9.4375 19.332031 9.484375 19.324219 9.515625 C 19.167969 10.246094 18.910156 10.84375 18.59375 11.339844 L 19.082031 11.53125 L 20.207031 11.050781 C 20.261719 10.742188 20.320312 10.441406 20.375 10.167969 M 14.015625 7.667969 C 13.667969 7.65625 13.195312 7.621094 12.863281 7.613281 C 13.019531 7.796875 12.933594 8.386719 12.863281 8.964844 C 12.816406 9.34375 12.753906 9.824219 12.675781 10.34375 L 13.710938 10.972656 L 14.367188 10.820312 C 14.285156 9.679688 13.945312 8.652344 13.964844 7.941406 C 13.976562 7.839844 13.996094 7.75 14.015625 7.667969 Z M 14.371094 10.945312 L 13.65625 11.367188 L 12.609375 10.753906 C 12.382812 12.070312 12.015625 13.496094 11.402344 13.980469 L 12.09375 14.503906 C 12.203125 14.589844 12.285156 14.703125 12.335938 14.832031 L 12.765625 15.203125 C 12.945312 15.253906 13.117188 15.425781 13.195312 15.570312 L 13.503906 15.84375 C 13.652344 16.03125 13.753906 16.382812 13.632812 16.625 C 13.621094 16.851562 13.488281 17.039062 13.261719 17.117188 L 13.242188 17.570312 L 13.246094 17.550781 L 14.074219 17.550781 C 14.335938 16.269531 14.664062 14.859375 14.976562 13.609375 C 14.542969 13.691406 14.066406 13.746094 13.546875 13.773438 C 14.058594 13.082031 14.328125 12.335938 14.371094 11.625 C 14.386719 11.394531 14.382812 11.167969 14.371094 10.945312 Z M 13.242188 17.570312 L 12.460938 16.9375 L 12.460938 16.808594 L 12.007812 16.410156 C 12.078125 16.675781 11.894531 16.949219 11.714844 17.136719 C 11.667969 17.175781 11.597656 17.355469 11.59375 17.414062 C 11.5625 17.46875 11.53125 17.523438 11.488281 17.574219 C 11.496094 17.566406 11.503906 17.558594 11.507812 17.546875 L 13.214844 17.546875 Z M 11.484375 17.578125 C 11.484375 17.582031 11.480469 17.585938 11.480469 17.585938 C 11.480469 17.585938 11.484375 17.582031 11.484375 17.578125 Z M 11.476562 17.59375 C 11.472656 17.59375 11.472656 17.59375 11.472656 17.59375 C 11.472656 17.59375 11.472656 17.59375 11.476562 17.59375 Z M 11.429688 17.675781 Z M 11.421875 17.695312 C 11.421875 17.695312 11.421875 17.699219 11.421875 17.699219 C 11.421875 17.699219 11.421875 17.695312 11.421875 17.695312 Z M 11.414062 17.714844 C 11.414062 17.714844 11.414062 17.71875 11.414062 17.71875 C 11.414062 17.71875 11.414062 17.714844 11.414062 17.714844 Z M 11.410156 17.734375 C 11.40625 17.734375 11.40625 17.738281 11.40625 17.738281 C 11.40625 17.738281 11.40625 17.734375 11.410156 17.734375 Z M 11.398438 17.753906 C 11.398438 17.753906 11.398438 17.757812 11.398438 17.757812 C 11.398438 17.757812 11.398438 17.753906 11.398438 17.753906 Z M 11.390625 17.773438 C 11.390625 17.773438 11.390625 17.773438 11.390625 17.777344 C 11.390625 17.773438 11.390625 17.773438 11.390625 17.773438 Z M 11.378906 17.792969 Z M 11.371094 17.808594 C 11.371094 17.808594 11.371094 17.8125 11.367188 17.8125 C 11.371094 17.8125 11.371094 17.808594 11.371094 17.808594 Z M 11.359375 17.828125 C 11.359375 17.828125 11.359375 17.828125 11.355469 17.832031 C 11.359375 17.828125 11.359375 17.828125 11.359375 17.828125 Z M 11.347656 17.84375 C 11.347656 17.847656 11.347656 17.847656 11.34375 17.847656 C 11.347656 17.847656 11.347656 17.84375 11.347656 17.84375 Z M 11.335938 17.863281 C 11.332031 17.863281 11.332031 17.863281 11.332031 17.863281 C 11.332031 17.863281 11.332031 17.863281 11.335938 17.863281 Z M 11.308594 17.894531 C 11.304688 17.894531 11.304688 17.898438 11.304688 17.898438 C 11.304688 17.898438 11.304688 17.894531 11.308594 17.894531 Z M 11.292969 17.910156 C 11.292969 17.910156 11.292969 17.914062 11.289062 17.914062 C 11.292969 17.914062 11.292969 17.910156 11.292969 17.910156 Z M 11.210938 17.988281 C 11.210938 17.988281 11.210938 17.988281 11.207031 17.992188 C 11.210938 17.988281 11.210938 17.988281 11.210938 17.988281 Z M 11.195312 18.003906 C 11.191406 18.003906 11.191406 18.003906 11.191406 18.003906 C 11.191406 18.003906 11.191406 18.003906 11.195312 18.003906 Z M 11.175781 18.015625 C 11.175781 18.015625 11.175781 18.015625 11.171875 18.019531 C 11.175781 18.015625 11.175781 18.015625 11.175781 18.015625 Z M 11.15625 18.03125 Z M 11.136719 18.042969 Z M 11.101562 18.066406 C 11.097656 18.070312 11.097656 18.070312 11.097656 18.070312 C 11.097656 18.070312 11.097656 18.070312 11.101562 18.066406 Z M 11.082031 18.078125 C 11.078125 18.082031 11.078125 18.082031 11.074219 18.082031 C 11.078125 18.082031 11.078125 18.082031 11.082031 18.078125 Z M 11.058594 18.089844 C 11.058594 18.09375 11.058594 18.09375 11.054688 18.09375 C 11.058594 18.09375 11.058594 18.09375 11.058594 18.089844 Z M 11.042969 18.101562 C 11.039062 18.105469 11.035156 18.105469 11.03125 18.109375 C 11.035156 18.105469 11.039062 18.105469 11.042969 18.101562 Z M 11.019531 18.113281 C 11.015625 18.117188 11.015625 18.117188 11.011719 18.117188 C 11.015625 18.117188 11.015625 18.117188 11.019531 18.113281 Z M 11 18.125 C 10.996094 18.125 10.996094 18.125 10.992188 18.128906 C 10.996094 18.125 10.996094 18.125 11 18.125 Z M 18.789062 17.550781 C 19.132812 16.609375 19.617188 15.699219 20.296875 14.679688 C 19.851562 13.988281 19.941406 12.703125 20.132812 11.5 L 19.074219 11.925781 L 18.507812 11.472656 C 18.082031 12.085938 17.566406 12.53125 17.03125 12.863281 C 16.609375 13.128906 16.070312 13.351562 15.414062 13.515625 C 15.066406 14.769531 14.644531 16.273438 14.25 17.550781 Z M 18.789062 17.550781 "/>
<path style=" stroke:none;fill-rule:evenodd;fill:rgb(68.235294%,69.019608%,69.803922%);fill-opacity:1;" d="M 15.203125 15.898438 C 15.074219 15.867188 15 15.738281 15.035156 15.609375 C 15.066406 15.484375 15.199219 15.410156 15.324219 15.441406 C 15.269531 15.496094 15.214844 15.546875 15.1875 15.640625 C 15.15625 15.734375 15.160156 15.816406 15.203125 15.898438 "/>
<path style=" stroke:none;fill-rule:evenodd;fill:rgb(100%,100%,100%);fill-opacity:1;" d="M 18.734375 4.851562 C 18.757812 4.921875 18.785156 5.007812 18.8125 5.101562 C 18.675781 5.191406 18.605469 5.265625 18.503906 5.363281 C 18.699219 5.703125 18.78125 5.898438 18.886719 6.203125 C 18.933594 5.957031 19.21875 6.613281 18.902344 6.515625 C 18.90625 6.601562 18.855469 6.710938 18.707031 6.730469 C 18.257812 6.800781 18.09375 6.53125 18.007812 6.542969 C 17.574219 6.75 17.832031 5.882812 18.214844 6.265625 C 18.21875 6.175781 18.160156 6.089844 18.082031 6.058594 C 18.078125 5.964844 18.089844 5.835938 18.109375 5.703125 C 18.015625 5.835938 17.960938 5.949219 17.921875 6.042969 C 17.804688 6.035156 17.582031 6.238281 17.570312 6.476562 C 17.570312 6.53125 17.574219 6.574219 17.582031 6.613281 C 17.570312 6.617188 17.554688 6.621094 17.539062 6.621094 C 16.757812 6.738281 16.558594 7.664062 15.441406 7.398438 C 15.871094 7.785156 16.371094 7.835938 16.710938 7.824219 C 16.78125 7.824219 16.84375 7.816406 16.902344 7.8125 C 17.027344 7.980469 17.199219 8 17.265625 8.003906 C 17.644531 8.039062 17.734375 7.640625 18.765625 7.605469 C 18.882812 7.636719 19.003906 7.671875 19.128906 7.707031 C 19.101562 8.148438 19.027344 8.621094 18.890625 9.101562 C 18.75 9.113281 18.59375 9.117188 18.429688 9.125 C 18.023438 9.140625 17.449219 9.121094 17.25 9.078125 C 17.070312 9.035156 16.617188 8.875 16.199219 8.636719 C 15.851562 8.441406 15.519531 8.242188 15.15625 7.90625 C 15.03125 7.792969 14.882812 6.828125 14.855469 6.6875 C 14.804688 7.136719 14.867188 7.886719 14.972656 8.007812 C 15.179688 8.253906 15.566406 8.566406 16.007812 8.851562 C 16.53125 9.183594 16.929688 9.335938 17.09375 9.382812 C 17.257812 9.4375 17.886719 9.523438 18.480469 9.492188 C 18.53125 9.492188 18.683594 9.484375 18.726562 9.484375 C 18.710938 9.519531 18.683594 9.566406 18.628906 9.671875 C 18.558594 9.710938 18.390625 9.753906 18.320312 9.757812 C 16.566406 9.871094 15.082031 8.894531 14.75 7.6875 C 14.691406 7.488281 14.667969 6.824219 14.6875 6.566406 C 14.769531 6.625 14.859375 6.652344 14.921875 6.625 C 15.054688 6.570312 15.054688 6.351562 14.960938 6.191406 C 14.96875 6.339844 14.949219 6.457031 14.875 6.464844 C 14.753906 6.46875 14.519531 6.347656 14.453125 5.953125 C 14.417969 5.761719 14.171875 5.429688 14.195312 5.09375 C 14.203125 4.945312 14.265625 4.765625 14.4375 4.785156 C 14.632812 4.804688 14.792969 5.203125 14.988281 5.8125 C 15.117188 5.882812 15.296875 5.984375 15.464844 6.074219 C 15.421875 5.738281 15.410156 5.007812 15.695312 4.476562 C 15.800781 4.507812 15.921875 4.539062 16.074219 4.574219 C 17.0625 4.8125 17.945312 4.914062 18.734375 4.851562 M 18.839844 5.191406 C 18.851562 5.226562 18.863281 5.261719 18.871094 5.300781 C 18.851562 5.324219 18.832031 5.351562 18.816406 5.375 C 18.820312 5.375 18.824219 5.371094 18.828125 5.367188 L 18.898438 5.394531 C 18.941406 5.566406 18.988281 5.761719 19.023438 5.976562 C 19.019531 5.980469 19.015625 5.980469 19.007812 5.984375 C 18.898438 5.75 18.816406 5.609375 18.6875 5.390625 C 18.742188 5.308594 18.785156 5.253906 18.839844 5.191406 Z M 16.152344 5.101562 C 16.367188 5.050781 16.609375 5.0625 16.839844 5.105469 C 16.730469 5.148438 16.648438 5.214844 16.496094 5.375 C 16.625 5.363281 16.660156 5.363281 16.765625 5.371094 L 16.949219 5.644531 L 17.789062 5.421875 C 17.484375 5.070312 16.835938 4.679688 16.234375 4.6875 C 16.183594 4.796875 16.167969 4.921875 16.152344 5.101562 Z M 18.628906 7.574219 C 18.136719 7.519531 17.671875 7.691406 17.453125 7.753906 C 17.40625 7.765625 17.320312 7.773438 17.257812 7.730469 C 17.5 7.644531 17.65625 7.527344 18.132812 7.511719 C 18.277344 7.503906 18.445312 7.53125 18.628906 7.574219 Z M 18.628906 7.574219 "/>
<path style=" stroke:none;fill-rule:evenodd;fill:rgb(68.235294%,69.019608%,69.803922%);fill-opacity:1;" d="M 18.484375 6.886719 C 18.265625 6.875 18.160156 6.808594 18.03125 6.730469 C 17.914062 6.65625 17.691406 6.726562 17.558594 6.75 C 17.085938 6.820312 16.792969 7.300781 16.316406 7.488281 C 16.722656 7.410156 16.851562 7.25 17.003906 7.101562 C 17.019531 7.140625 17.078125 7.191406 17.109375 7.230469 C 17.148438 7.105469 17.183594 7.039062 17.285156 6.914062 C 17.296875 7.003906 17.320312 7.070312 17.375 7.160156 C 17.417969 7.03125 17.449219 6.964844 17.5625 6.84375 C 17.566406 6.914062 17.605469 6.988281 17.679688 7.109375 C 17.71875 6.992188 17.753906 6.917969 17.832031 6.820312 C 17.851562 6.90625 17.894531 6.996094 17.96875 7.066406 C 17.996094 6.984375 18.019531 6.90625 18.046875 6.863281 C 18.152344 6.894531 18.25 6.949219 18.484375 6.886719 "/>
<path style=" stroke:none;fill-rule:evenodd;fill:rgb(68.235294%,69.019608%,69.803922%);fill-opacity:1;" d="M 18.605469 6.890625 C 18.757812 6.925781 18.777344 7.050781 18.699219 7.320312 C 18.769531 7.261719 18.863281 7.152344 18.890625 6.933594 C 18.9375 6.964844 18.96875 7.042969 18.992188 7.089844 C 19.054688 6.992188 19.054688 6.925781 19.050781 6.847656 C 19.105469 6.851562 19.144531 6.890625 19.195312 6.957031 C 19.21875 6.90625 19.226562 6.863281 19.21875 6.820312 C 19.289062 6.8125 19.34375 6.824219 19.453125 6.839844 C 19.410156 6.804688 19.296875 6.753906 19.269531 6.746094 C 19.050781 6.660156 19.015625 6.703125 18.933594 6.789062 C 18.855469 6.875 18.738281 6.894531 18.605469 6.890625 "/>
<path style=" stroke:none;fill-rule:evenodd;fill:rgb(68.235294%,69.019608%,69.803922%);fill-opacity:1;" d="M 14.191406 4.683594 C 14.296875 4.617188 14.5625 4.460938 14.664062 4.449219 C 14.652344 4.523438 14.679688 4.582031 14.738281 4.644531 C 14.78125 4.542969 14.835938 4.472656 14.914062 4.417969 C 14.914062 4.496094 14.933594 4.65625 15.007812 4.789062 C 15.074219 4.667969 15.132812 4.511719 15.234375 4.445312 C 15.222656 4.496094 15.226562 4.578125 15.285156 4.691406 C 15.375 4.507812 15.429688 4.464844 15.582031 4.460938 C 15.03125 4.3125 14.460938 4.289062 14.191406 4.683594 "/>
<path style=" stroke:none;fill-rule:evenodd;fill:rgb(100%,100%,100%);fill-opacity:1;" d="M 14.28125 13.324219 C 14.503906 12.902344 14.671875 12.371094 14.722656 11.980469 C 14.777344 11.542969 14.773438 11.238281 14.761719 10.949219 C 14.734375 10.363281 14.59375 9.539062 14.457031 8.859375 C 14.398438 8.5625 14.300781 8.035156 14.378906 7.816406 C 14.644531 8.734375 15.457031 9.546875 16.660156 9.9375 C 17.042969 10.0625 17.582031 10.175781 18.128906 10.148438 C 18.476562 10.128906 18.570312 10.121094 18.785156 10.027344 C 18.691406 10.304688 18.453125 10.605469 18.03125 10.957031 C 17.449219 11.445312 16.761719 11.734375 16.085938 12.019531 C 16.914062 11.855469 17.570312 11.613281 18.214844 11.207031 C 17.859375 11.738281 17.273438 12.347656 16.394531 12.769531 C 15.710938 13.097656 14.839844 13.261719 14.28125 13.324219 "/>
<path style=" stroke:none;fill-rule:evenodd;fill:rgb(0%,0%,0%);fill-opacity:1;" d="M 14.539062 13.121094 C 15.21875 12.242188 15.308594 11.953125 15.414062 11.59375 C 15.511719 11.265625 15.476562 10.839844 15.335938 10.367188 C 15.527344 10.546875 15.722656 10.789062 15.75 11.246094 C 15.789062 11.785156 15.1875 12.710938 14.539062 13.121094 "/>
<path style=" stroke:none;fill-rule:evenodd;fill:rgb(0%,0%,0%);fill-opacity:1;" d="M 16.027344 11.402344 C 16.035156 10.972656 16.03125 10.589844 15.804688 10.164062 C 15.574219 9.71875 14.785156 9.640625 14.644531 8.808594 C 15.042969 9.523438 15.796875 9.585938 16.046875 10.027344 C 16.355469 10.574219 16.183594 11.136719 16.027344 11.402344 "/>
<path style=" stroke:none;fill-rule:evenodd;fill:rgb(68.235294%,69.019608%,69.803922%);fill-opacity:1;" d="M 14.28125 13.324219 C 15.449219 12.972656 16.433594 12.503906 16.941406 12.070312 C 16.566406 12.105469 16.273438 12.097656 15.925781 12.0625 C 16.707031 11.640625 17.375 11.199219 17.734375 10.695312 C 17.464844 10.785156 17.125 10.871094 16.808594 10.9375 C 16.976562 10.652344 17.113281 10.367188 17.230469 10.082031 C 17.507812 10.132812 17.816406 10.164062 18.128906 10.148438 C 18.476562 10.128906 18.570312 10.121094 18.785156 10.027344 C 18.691406 10.304688 18.453125 10.605469 18.03125 10.957031 C 17.449219 11.445312 16.761719 11.734375 16.085938 12.019531 C 16.914062 11.859375 17.570312 11.613281 18.214844 11.207031 C 17.859375 11.738281 17.273438 12.347656 16.394531 12.769531 C 15.710938 13.097656 14.839844 13.261719 14.28125 13.324219 "/>
<path style=" stroke:none;fill-rule:evenodd;fill:rgb(68.235294%,69.019608%,69.803922%);fill-opacity:1;" d="M 17.6875 5.734375 C 17.164062 5.925781 16.496094 6.675781 16.296875 7.117188 C 16.597656 6.890625 16.6875 6.828125 16.851562 6.75 C 17.058594 6.40625 17.148438 6.257812 17.6875 5.734375 "/>
<path style=" stroke:none;fill-rule:evenodd;fill:rgb(68.235294%,69.019608%,69.803922%);fill-opacity:1;" d="M 14.664062 5.222656 C 14.542969 4.960938 14.429688 4.875 14.347656 4.898438 C 14.191406 4.9375 14.304688 5.378906 14.339844 5.484375 C 14.390625 5.636719 14.550781 6.085938 14.699219 6.234375 C 14.550781 5.890625 14.46875 5.640625 14.414062 5.386719 C 14.394531 5.296875 14.363281 5.109375 14.40625 5.078125 C 14.441406 5.050781 14.519531 5.058594 14.664062 5.222656 "/>
<path style=" stroke:none;fill-rule:evenodd;fill:rgb(68.235294%,69.019608%,69.803922%);fill-opacity:1;" d="M 14.6875 5.628906 C 14.625 5.765625 14.578125 5.859375 14.617188 5.933594 C 14.652344 6.003906 14.839844 6.066406 14.796875 5.988281 C 14.734375 5.878906 14.734375 5.78125 14.796875 5.683594 C 14.824219 5.644531 14.742188 5.5 14.6875 5.628906 "/>
<path style=" stroke:none;fill-rule:evenodd;fill:rgb(68.235294%,69.019608%,69.803922%);fill-opacity:1;" d="M 15.648438 4.570312 C 15.832031 4.664062 16.011719 4.746094 16.1875 4.824219 C 16.199219 4.773438 16.214844 4.730469 16.234375 4.6875 C 16.808594 4.679688 17.425781 5.035156 17.742188 5.371094 C 17.996094 5.433594 18.203125 5.464844 18.347656 5.464844 C 18.386719 5.464844 18.421875 5.464844 18.457031 5.464844 C 18.507812 5.667969 18.558594 5.886719 18.613281 6.128906 C 18.648438 6.28125 18.671875 6.445312 18.632812 6.515625 C 18.566406 6.597656 18.453125 6.65625 18.046875 6.550781 C 18.144531 6.601562 18.320312 6.789062 18.707031 6.730469 C 18.855469 6.707031 18.90625 6.601562 18.902344 6.515625 C 19.21875 6.613281 18.933594 5.957031 18.886719 6.203125 C 18.78125 5.898438 18.699219 5.703125 18.503906 5.363281 C 18.667969 5.203125 18.757812 5.113281 19.175781 4.886719 C 18.867188 5.140625 18.8125 5.210938 18.6875 5.386719 C 18.816406 5.609375 18.898438 5.75 19.007812 5.984375 C 19.089844 5.929688 19.25 6.175781 19.265625 6.359375 C 19.273438 6.46875 19.273438 6.5625 19.21875 6.609375 C 19.265625 6.617188 19.3125 6.632812 19.367188 6.660156 C 19.496094 6.730469 19.605469 6.800781 19.695312 6.871094 C 19.753906 6.375 19.808594 5.527344 19.824219 5.1875 C 19.828125 5.128906 19.828125 5.0625 19.832031 4.992188 C 19.722656 5 19.617188 5.023438 19.511719 5.054688 C 19.585938 5.097656 19.644531 5.164062 19.753906 5.320312 C 19.664062 5.304688 19.636719 5.308594 19.5625 5.316406 L 19.429688 5.589844 L 18.828125 5.367188 C 18.824219 5.371094 18.820312 5.375 18.816406 5.375 C 19.058594 5.039062 19.53125 4.671875 19.835938 4.683594 C 19.835938 4.664062 19.835938 4.644531 19.835938 4.625 C 18.8125 4.984375 17.554688 4.929688 16.074219 4.574219 C 15.921875 4.539062 15.800781 4.507812 15.695312 4.476562 C 15.679688 4.507812 15.664062 4.539062 15.648438 4.570312 M 18.523438 7.621094 C 18.644531 7.667969 18.667969 7.820312 18.503906 7.863281 C 17.792969 7.957031 17.671875 8.339844 17.113281 8.226562 C 17.710938 8.5 18.0625 8.171875 18.496094 8.15625 C 18.53125 8.65625 18.371094 8.820312 18.25 8.914062 C 18.113281 9.015625 17.789062 9.121094 17.066406 9.023438 C 17.140625 9.046875 17.203125 9.066406 17.25 9.078125 C 17.449219 9.121094 18.023438 9.140625 18.425781 9.125 C 18.847656 9.105469 19.226562 9.109375 19.339844 8.972656 C 19.457031 8.773438 19.519531 8.367188 19.585938 7.835938 C 19.308594 7.761719 19.027344 7.671875 18.765625 7.605469 C 18.679688 7.609375 18.597656 7.613281 18.523438 7.621094 Z M 17.46875 9.453125 C 17.429688 9.535156 17.382812 9.625 17.339844 9.707031 C 17.652344 9.761719 17.980469 9.78125 18.320312 9.757812 C 18.390625 9.753906 18.558594 9.710938 18.628906 9.671875 C 18.683594 9.566406 18.710938 9.519531 18.726562 9.480469 C 18.683594 9.484375 18.53125 9.492188 18.476562 9.492188 C 18.117188 9.511719 17.742188 9.484375 17.46875 9.453125 Z M 17.46875 9.453125 "/>
<path style=" stroke:none;fill-rule:evenodd;fill:rgb(100%,100%,100%);fill-opacity:1;" d="M 12.023438 7.710938 C 11.175781 7.769531 10.257812 8.046875 9.703125 8.742188 C 9.75 8.539062 9.78125 8.414062 9.890625 8.28125 C 8.042969 8.710938 7.238281 9.6875 6.582031 10.105469 C 5.929688 10.519531 5.785156 11.003906 5.742188 11.394531 C 5.679688 11.964844 5.832031 12.417969 6.191406 12.902344 C 6.222656 12.757812 6.257812 12.605469 6.355469 12.417969 C 6.351562 12.742188 6.375 13.007812 6.5 13.296875 C 6.496094 12.777344 6.539062 12.34375 6.71875 11.851562 C 6.710938 12.644531 6.78125 13.199219 7.003906 13.890625 C 7.140625 14.054688 7.292969 14.238281 7.425781 14.402344 C 7.527344 13.257812 8.699219 13.019531 9.484375 13.347656 C 8.179688 13.167969 7.558594 13.816406 7.617188 14.722656 C 7.703125 14.8125 7.785156 14.894531 7.902344 15.050781 C 7.910156 14.847656 7.957031 14.597656 8.042969 14.40625 C 8.226562 13.984375 8.46875 13.714844 8.800781 13.625 C 9.144531 13.53125 9.515625 13.691406 9.699219 13.691406 C 9.8125 13.6875 9.894531 13.679688 9.996094 13.667969 C 9.496094 13.25 9.304688 12.714844 9.011719 12.117188 C 8.476562 11.667969 7.867188 11.367188 7.183594 11.308594 C 7.566406 11.179688 7.871094 11.191406 8.226562 11.292969 C 8.253906 11.203125 8.226562 10.992188 8.175781 10.824219 C 8.386719 10.972656 8.53125 11.246094 8.601562 11.433594 C 8.84375 11.546875 9.085938 11.703125 9.320312 11.894531 C 9.613281 11.785156 10.027344 11.605469 10.269531 11.394531 C 10.152344 10.828125 10.234375 10.089844 10.328125 9.714844 C 10.488281 10.957031 10.859375 12.128906 11.511719 13.035156 C 11.96875 12.054688 12.253906 10.214844 12.433594 8.640625 C 12.460938 8.402344 12.503906 8.128906 12.476562 7.878906 C 12.472656 7.847656 12.457031 7.777344 12.429688 7.695312 C 12.296875 7.699219 12.160156 7.703125 12.023438 7.710938 M 11.296875 13.414062 C 11.230469 13.347656 11.167969 13.273438 11.113281 13.195312 C 11.117188 13.316406 11.125 13.453125 11.128906 13.601562 C 11.191406 13.546875 11.246094 13.488281 11.296875 13.414062 Z M 20.570312 14.171875 C 20.617188 14.042969 20.640625 13.925781 20.660156 13.789062 C 20.609375 13.832031 20.554688 13.871094 20.5 13.910156 C 20.511719 13.976562 20.527344 14.039062 20.546875 14.101562 C 20.554688 14.125 20.5625 14.148438 20.570312 14.171875 Z M 20.445312 13.394531 C 20.9375 12.949219 21.335938 12.414062 21.605469 11.769531 C 21.6875 12.234375 21.578125 12.746094 21.191406 13.4375 C 21.09375 14.207031 20.789062 15.011719 20.476562 15.382812 C 20.507812 16.089844 20.632812 16.691406 20.90625 16.960938 C 21.171875 17.222656 22.109375 17.265625 23.457031 17.308594 C 23.066406 16.191406 23.246094 14.992188 24.039062 14.960938 C 23.644531 15.085938 23.085938 15.769531 23.671875 17.402344 C 23.863281 17.421875 23.953125 17.421875 24.128906 17.429688 C 24.148438 17.386719 24.199219 17.289062 24.21875 17.25 C 23.984375 16.796875 23.726562 16.226562 23.878906 15.734375 C 23.984375 15.394531 24.191406 14.972656 24.683594 14.902344 C 24.664062 14.898438 24.605469 14.882812 24.550781 14.871094 C 24.070312 14.75 23.59375 14.640625 23.363281 14.578125 C 22.605469 14.523438 22.175781 14.621094 21.546875 15.183594 C 21.78125 14.492188 22.332031 14.261719 22.960938 14.207031 C 22.910156 14.0625 22.75 13.882812 22.472656 13.800781 C 22.910156 13.714844 23.222656 13.960938 23.441406 14.132812 C 23.515625 13.675781 23.515625 12.789062 23.402344 12.230469 C 23.335938 12.324219 23.265625 12.390625 23 12.5625 C 23.394531 11.867188 23.441406 11.019531 23.289062 10.265625 C 23.234375 9.988281 23.105469 9.757812 22.859375 9.488281 C 22.632812 9.246094 22.140625 9.015625 21.550781 8.8125 C 21.53125 8.832031 21.515625 8.847656 21.496094 8.867188 C 21.441406 8.921875 21.347656 9.046875 21.320312 9.082031 C 20.957031 9.515625 20.816406 10.316406 20.726562 10.808594 C 20.574219 11.640625 20.414062 12.554688 20.445312 13.394531 Z M 20.445312 13.394531 "/>
<path style=" stroke:none;fill-rule:evenodd;fill:rgb(68.235294%,69.019608%,69.803922%);fill-opacity:1;" d="M 11.296875 13.414062 C 11.230469 13.347656 11.167969 13.273438 11.113281 13.195312 C 11.121094 13.328125 11.125 13.464844 11.128906 13.601562 C 11.195312 13.546875 11.246094 13.488281 11.296875 13.414062 M 8.175781 10.824219 C 8.386719 10.972656 8.53125 11.246094 8.601562 11.433594 C 8.84375 11.546875 9.085938 11.703125 9.320312 11.894531 C 9.613281 11.785156 10.027344 11.605469 10.269531 11.394531 C 10.230469 11.199219 10.210938 10.984375 10.210938 10.769531 C 9.820312 11.152344 9.347656 11.324219 8.882812 11.34375 C 8.710938 11.101562 8.449219 10.871094 8.078125 10.660156 C 8.097656 10.824219 8.09375 10.980469 8.058594 11.113281 C 7.769531 11.074219 7.464844 11.15625 7.183594 11.308594 C 7.578125 11.175781 7.902344 11.199219 8.226562 11.292969 C 8.25 11.179688 8.230469 11.007812 8.175781 10.824219 Z M 9.996094 13.667969 C 9.496094 13.25 9.304688 12.714844 9.011719 12.117188 C 8.828125 11.960938 8.632812 11.824219 8.433594 11.710938 C 8.550781 12.226562 8.726562 12.726562 8.964844 13.21875 C 9.113281 13.234375 9.300781 13.269531 9.484375 13.347656 C 9.378906 13.332031 9.191406 13.3125 9.007812 13.320312 C 9.054688 13.410156 9.105469 13.507812 9.15625 13.601562 C 9.378906 13.621094 9.582031 13.691406 9.699219 13.6875 C 9.8125 13.6875 9.894531 13.679688 9.996094 13.667969 Z M 20.570312 14.171875 C 20.617188 14.042969 20.640625 13.925781 20.660156 13.789062 C 20.609375 13.828125 20.554688 13.871094 20.5 13.910156 C 20.515625 13.976562 20.527344 14.039062 20.546875 14.101562 C 20.554688 14.125 20.5625 14.148438 20.570312 14.171875 Z M 23.359375 16.984375 C 22.636719 16.917969 21.816406 16.832031 21.390625 16.710938 C 21.082031 16.625 20.796875 16.042969 20.476562 15.382812 C 20.507812 16.078125 20.628906 16.683594 20.910156 16.960938 C 21.140625 17.191406 21.929688 17.257812 23.09375 17.296875 C 23.152344 17.296875 23.386719 17.304688 23.457031 17.308594 C 23.410156 17.167969 23.375 17.054688 23.359375 16.984375 Z M 23.671875 17.402344 C 23.875 17.417969 23.921875 17.417969 24.128906 17.429688 C 24.148438 17.386719 24.199219 17.289062 24.21875 17.25 C 24.183594 17.183594 24.148438 17.117188 24.117188 17.046875 C 23.925781 17.027344 23.734375 17.011719 23.542969 16.996094 C 23.574219 17.105469 23.617188 17.246094 23.671875 17.402344 Z M 23.007812 13.855469 C 23.183594 13.929688 23.324219 14.042969 23.441406 14.132812 C 23.515625 13.675781 23.515625 12.789062 23.402344 12.230469 C 23.335938 12.324219 23.265625 12.390625 23 12.5625 C 23.394531 11.867188 23.441406 11.019531 23.289062 10.265625 C 23.234375 9.992188 23.105469 9.757812 22.859375 9.488281 C 23.160156 10.417969 23.199219 12.03125 22.597656 12.871094 C 22.738281 12.875 23.03125 12.742188 23.234375 12.589844 C 23.242188 12.910156 23.203125 13.351562 23.097656 13.667969 C 22.878906 13.625 22.503906 13.691406 22.335938 13.792969 C 22.464844 13.878906 22.5625 13.941406 22.625 14.058594 C 22.175781 14.191406 21.632812 14.582031 21.546875 15.183594 C 21.816406 14.382812 22.523438 14.246094 22.960938 14.207031 C 22.871094 13.96875 22.632812 13.847656 22.472656 13.800781 C 22.699219 13.753906 22.882812 13.804688 23.007812 13.855469 Z M 23.007812 13.855469 "/>
<path style=" stroke:none;fill-rule:evenodd;fill:rgb(68.235294%,69.019608%,69.803922%);fill-opacity:1;" d="M 26.164062 14.769531 C 26.453125 14.789062 26.433594 14.953125 26.597656 15.035156 C 26.664062 15 26.769531 14.875 26.875 14.890625 L 28.308594 15.125 C 28.453125 15.144531 28.5 15.164062 28.53125 15.265625 L 30.261719 15.578125 C 30.25 15.277344 30.789062 15.449219 30.789062 15.660156 L 30.980469 15.699219 C 31.054688 15.71875 31.164062 15.859375 31.089844 15.996094 C 31.265625 16.09375 31.152344 16.40625 31.023438 16.386719 L 30.726562 16.332031 L 30.757812 16.460938 L 30.46875 16.476562 L 30.421875 16.277344 L 28.796875 15.984375 C 28.757812 16.0625 28.683594 16.148438 28.5 16.101562 C 28.402344 16.296875 28.308594 16.492188 28.144531 16.644531 C 28.101562 16.816406 27.90625 16.871094 27.605469 16.832031 C 27.492188 16.816406 27.347656 16.792969 27.21875 16.773438 C 27.359375 16.878906 27.476562 16.917969 27.578125 16.945312 C 27.5625 17.03125 27.535156 17.125 27.476562 17.207031 C 27.367188 17.359375 27.160156 17.460938 26.949219 17.4375 C 27.09375 17.386719 27.210938 17.300781 27.253906 17.21875 C 27.316406 17.09375 27.289062 16.941406 27.21875 16.839844 C 27.164062 16.753906 27.082031 16.679688 26.980469 16.613281 C 26.878906 16.546875 26.761719 16.488281 26.667969 16.445312 C 26.660156 16.394531 26.648438 16.339844 26.636719 16.289062 C 26.628906 16.269531 26.621094 16.242188 26.613281 16.222656 C 26.5625 16.066406 26.511719 15.929688 26.507812 15.757812 C 26.503906 15.652344 26.511719 15.546875 26.5 15.445312 C 26.488281 15.34375 26.425781 15.269531 26.34375 15.21875 C 26.363281 15.074219 26.269531 14.902344 26.019531 14.835938 C 26.070312 14.808594 26.117188 14.785156 26.164062 14.769531 "/>
<path style=" stroke:none;fill-rule:evenodd;fill:rgb(0%,0%,0%);fill-opacity:1;" d="M 30.941406 15.804688 C 30.980469 15.804688 31.011719 15.867188 31.011719 15.945312 C 31.011719 16.023438 30.980469 16.082031 30.941406 16.082031 C 30.902344 16.082031 30.875 16.023438 30.875 15.945312 C 30.875 15.867188 30.902344 15.804688 30.941406 15.804688 "/>
<path style=" stroke:none;fill-rule:evenodd;fill:rgb(0%,0%,0%);fill-opacity:1;" d="M 31.066406 16.097656 C 31.09375 16.097656 31.117188 16.140625 31.117188 16.195312 C 31.117188 16.25 31.09375 16.296875 31.066406 16.296875 C 31.039062 16.296875 31.019531 16.25 31.019531 16.195312 C 31.019531 16.140625 31.039062 16.097656 31.066406 16.097656 "/>
<path style=" stroke:none;fill-rule:evenodd;fill:rgb(100%,100%,100%);fill-opacity:1;" d="M 30.828125 16.140625 C 30.769531 16.003906 30.769531 15.921875 30.773438 15.851562 L 28.363281 15.417969 L 30.699219 15.925781 C 30.695312 15.980469 30.730469 16.050781 30.828125 16.140625 "/>
<path style=" stroke:none;fill-rule:evenodd;fill:rgb(100%,100%,100%);fill-opacity:1;" d="M 26.671875 16.613281 C 26.972656 16.757812 27.183594 16.921875 27.128906 17.125 C 27.09375 17.238281 26.816406 17.363281 26.640625 17.3125 C 26.542969 17.289062 26.347656 17.140625 26.207031 16.980469 C 26.230469 16.976562 26.257812 16.972656 26.28125 16.964844 C 26.359375 16.941406 26.441406 16.910156 26.5 16.871094 C 26.605469 16.800781 26.65625 16.710938 26.671875 16.613281 M 26.546875 17.378906 C 26.3125 17.554688 26.300781 17.714844 26.371094 18.007812 C 26.417969 18.195312 26.300781 18.417969 26.085938 18.421875 C 25.949219 18.425781 25.691406 18.3125 25.5 18.167969 C 25.578125 18.140625 25.613281 18.097656 25.644531 18.039062 C 25.539062 18.085938 25.464844 18.09375 25.394531 18.082031 C 25.246094 17.9375 25.183594 17.78125 25.367188 17.675781 C 25.511719 17.589844 25.824219 17.890625 26.042969 17.925781 C 26.136719 17.941406 26.230469 17.863281 26.261719 17.742188 C 26.21875 17.789062 26.132812 17.828125 26.085938 17.820312 C 25.832031 17.78125 25.507812 17.402344 25.199219 17.535156 C 25.074219 17.402344 24.9375 17.230469 24.859375 17.042969 C 24.933594 17.050781 25.042969 17.023438 25.078125 16.996094 C 24.992188 16.992188 24.890625 16.96875 24.828125 16.933594 C 24.785156 16.792969 24.738281 16.617188 24.898438 16.5625 C 24.957031 16.539062 25.125 16.546875 25.175781 16.660156 C 25.191406 16.703125 25.230469 16.820312 25.273438 16.910156 C 25.351562 17.085938 25.855469 17.503906 25.972656 17.539062 C 26.089844 17.550781 26.253906 17.527344 26.371094 17.445312 C 26.28125 17.453125 26.117188 17.480469 26.003906 17.417969 C 25.789062 17.300781 25.425781 16.953125 25.378906 16.863281 C 25.359375 16.828125 25.339844 16.761719 25.3125 16.691406 C 25.351562 16.683594 25.40625 16.660156 25.433594 16.632812 C 25.355469 16.621094 25.316406 16.617188 25.265625 16.585938 C 25.226562 16.511719 25.175781 16.457031 25.101562 16.457031 C 25.066406 16.328125 25.074219 16.175781 25.25 16.128906 C 25.347656 16.101562 25.46875 16.140625 25.574219 16.277344 C 25.582031 16.289062 25.585938 16.304688 25.59375 16.316406 C 25.671875 16.484375 25.757812 16.703125 25.882812 16.839844 C 25.921875 16.878906 25.964844 16.914062 26.007812 16.9375 C 26.167969 17.117188 26.363281 17.304688 26.546875 17.378906 Z M 26.546875 17.378906 "/>
<path style=" stroke:none;fill-rule:evenodd;fill:rgb(64.313725%,0%,27.45098%);fill-opacity:1;" d="M 25.3125 18.214844 C 25.21875 18.207031 25.121094 18.1875 25.023438 18.164062 C 24.636719 18.070312 24.40625 18.011719 24.304688 17.84375 C 24.429688 17.554688 24.554688 17.277344 24.695312 17.027344 C 24.710938 17.078125 24.730469 17.128906 24.753906 17.179688 C 24.855469 17.375 24.964844 17.503906 25.136719 17.695312 C 25.039062 17.882812 25.164062 18.082031 25.3125 18.214844 "/>
<path style=" stroke:none;fill-rule:evenodd;fill:rgb(68.235294%,69.019608%,69.803922%);fill-opacity:1;" d="M 26.808594 16.683594 C 27.035156 16.8125 27.175781 16.953125 27.128906 17.125 C 27.09375 17.238281 26.816406 17.363281 26.640625 17.3125 C 26.5625 17.292969 26.417969 17.191406 26.289062 17.066406 C 26.835938 17.277344 26.917969 16.914062 26.808594 16.683594 M 26.546875 17.378906 C 26.3125 17.554688 26.300781 17.714844 26.371094 18.007812 C 26.417969 18.195312 26.300781 18.417969 26.085938 18.421875 C 25.949219 18.425781 25.691406 18.3125 25.5 18.167969 C 26.007812 18.371094 26.054688 18.09375 26.042969 17.925781 C 26.136719 17.941406 26.234375 17.859375 26.261719 17.742188 C 26.21875 17.789062 26.132812 17.828125 26.085938 17.820312 C 25.964844 17.800781 25.832031 17.710938 25.691406 17.628906 C 25.859375 17.65625 25.933594 17.597656 25.972656 17.539062 C 26.089844 17.550781 26.253906 17.527344 26.371094 17.445312 C 26.28125 17.453125 26.117188 17.480469 26.003906 17.417969 C 25.960938 17.394531 25.910156 17.363281 25.859375 17.324219 C 25.949219 17.339844 26.144531 17.316406 26.148438 17.085938 C 26.273438 17.210938 26.414062 17.324219 26.546875 17.378906 Z M 26.546875 17.378906 "/>
<path style=" stroke:none;fill-rule:evenodd;fill:rgb(0%,0%,0%);fill-opacity:1;" d="M 27.664062 16.046875 C 27.671875 15.996094 27.675781 15.960938 27.683594 15.925781 C 27.742188 15.910156 27.792969 15.847656 27.800781 15.785156 C 27.808594 15.742188 27.808594 15.703125 27.8125 15.671875 C 27.84375 15.804688 27.890625 15.925781 27.890625 16.027344 C 27.890625 16.125 27.832031 16.378906 27.71875 16.363281 L 26.777344 16.214844 C 26.792969 16.246094 26.78125 16.285156 26.785156 16.332031 L 27.730469 16.476562 C 27.902344 16.5 28.007812 16.238281 28.007812 16.035156 C 28.007812 15.976562 27.988281 15.878906 27.972656 15.828125 C 27.96875 15.816406 27.964844 15.808594 27.960938 15.796875 L 28.28125 15.859375 C 28.242188 15.949219 28.316406 16.070312 28.441406 16.070312 C 28.355469 16 28.371094 15.894531 28.460938 15.894531 L 28.671875 15.929688 C 28.710938 15.9375 28.753906 15.953125 28.796875 15.984375 C 28.789062 15.921875 28.746094 15.863281 28.671875 15.847656 L 28.394531 15.789062 C 28.277344 15.675781 28.246094 15.359375 28.46875 15.265625 C 28.230469 15.253906 28.125 15.582031 28.253906 15.765625 L 27.933594 15.703125 C 27.914062 15.628906 27.902344 15.542969 27.902344 15.378906 L 28.222656 15.320312 L 26.902344 15.101562 C 26.8125 15.085938 26.6875 15.109375 26.621094 15.15625 L 26.839844 15.203125 C 26.683594 15.371094 26.539062 15.699219 26.664062 16.03125 C 26.710938 15.699219 26.832031 15.382812 26.972656 15.222656 L 27.789062 15.363281 C 27.789062 15.378906 27.785156 15.394531 27.785156 15.40625 C 27.574219 15.371094 27.273438 15.292969 27.253906 15.394531 C 27.21875 15.566406 27.476562 15.609375 27.675781 15.636719 C 27.605469 15.734375 27.625 15.839844 27.648438 15.925781 C 27.382812 15.890625 27.089844 15.808594 27.121094 15.941406 C 27.15625 16.085938 27.277344 16.128906 27.632812 16.164062 C 27.667969 16.3125 27.804688 16.226562 27.828125 16.082031 C 27.835938 16.019531 27.804688 15.890625 27.664062 16.046875 "/>
<path style=" stroke:none;fill-rule:evenodd;fill:rgb(0%,0%,0%);fill-opacity:1;" d="M 30.941406 15.804688 C 30.980469 15.804688 31.011719 15.867188 31.011719 15.945312 C 31.011719 16.023438 30.980469 16.082031 30.941406 16.082031 C 30.902344 16.082031 30.875 16.023438 30.875 15.945312 C 30.875 15.867188 30.902344 15.804688 30.941406 15.804688 "/>
<path style=" stroke:none;fill-rule:evenodd;fill:rgb(0%,0%,0%);fill-opacity:1;" d="M 31.066406 16.097656 C 31.09375 16.097656 31.117188 16.140625 31.117188 16.195312 C 31.117188 16.25 31.09375 16.296875 31.066406 16.296875 C 31.039062 16.296875 31.019531 16.25 31.019531 16.195312 C 31.019531 16.140625 31.039062 16.097656 31.066406 16.097656 "/>
<path style=" stroke:none;fill-rule:evenodd;fill:rgb(100%,100%,100%);fill-opacity:1;" d="M 24.910156 15.222656 C 25.15625 15.25 25.390625 15.1875 25.632812 15.21875 C 25.839844 15.242188 26.109375 15.300781 26.324219 15.417969 C 26.367188 15.464844 26.355469 15.601562 26.355469 15.671875 C 26.355469 15.867188 26.375 15.988281 26.457031 16.230469 C 26.285156 16.175781 26.074219 16.207031 25.992188 16.390625 C 26.113281 16.316406 26.34375 16.25 26.5 16.378906 C 26.515625 16.433594 26.527344 16.488281 26.523438 16.546875 C 26.519531 16.6875 26.480469 16.765625 26.28125 16.808594 C 26.035156 16.863281 25.886719 16.550781 25.78125 16.261719 C 25.726562 16.101562 25.644531 15.871094 25.417969 15.867188 C 25.394531 15.867188 25.371094 15.871094 25.34375 15.875 C 25.007812 15.984375 24.785156 16.28125 24.480469 16.1875 C 24.554688 16.359375 24.835938 16.328125 24.9375 16.300781 C 24.933594 16.332031 24.933594 16.367188 24.9375 16.402344 C 24.90625 16.402344 24.875 16.40625 24.847656 16.417969 C 24.65625 16.496094 24.613281 16.648438 24.644531 16.824219 C 24.644531 16.824219 24.527344 17.019531 24.496094 17.082031 C 24.449219 17 24.402344 16.90625 24.355469 16.804688 C 24.273438 16.617188 24.09375 16.136719 24.171875 15.875 C 24.3125 15.398438 24.527344 15.179688 24.910156 15.222656 "/>
<path style=" stroke:none;fill-rule:evenodd;fill:rgb(68.235294%,69.019608%,69.803922%);fill-opacity:1;" d="M 26.34375 16.3125 C 26.402344 16.320312 26.453125 16.339844 26.5 16.378906 C 26.515625 16.4375 26.527344 16.496094 26.527344 16.546875 C 26.523438 16.6875 26.480469 16.765625 26.28125 16.808594 C 26.460938 16.710938 26.480469 16.503906 26.34375 16.3125 M 26.316406 16.207031 C 26.21875 15.941406 26.242188 15.753906 26.324219 15.417969 C 26.382812 15.484375 26.335938 15.652344 26.367188 15.890625 C 26.386719 16.007812 26.421875 16.125 26.457031 16.230469 C 26.414062 16.21875 26.363281 16.207031 26.316406 16.207031 Z M 26.316406 16.207031 "/>
<path style=" stroke:none;fill-rule:evenodd;fill:rgb(68.235294%,69.019608%,69.803922%);fill-opacity:1;" d="M 24.9375 16.402344 C 24.933594 16.363281 24.933594 16.328125 24.9375 16.300781 C 24.792969 16.339844 24.546875 16.339844 24.480469 16.1875 C 24.464844 16.289062 24.53125 16.433594 24.9375 16.402344 "/>
<path style=" stroke:none;fill-rule:evenodd;fill:rgb(100%,100%,100%);fill-opacity:1;" d="M 13.035156 16.078125 C 12.945312 16.023438 12.890625 16.039062 12.832031 16.0625 L 11.667969 15.152344 L 12.84375 16.179688 C 12.84375 16.105469 12.957031 16.074219 13.035156 16.078125 "/>
<path style=" stroke:none;fill-rule:evenodd;fill:rgb(68.235294%,69.019608%,69.803922%);fill-opacity:1;" d="M 11.773438 16.179688 C 11.929688 16.230469 12.082031 16.242188 12.152344 16.171875 L 11.992188 16.027344 C 11.929688 16.105469 11.859375 16.152344 11.773438 16.179688 "/>
<path style=" stroke:none;fill-rule:evenodd;fill:rgb(100%,100%,100%);fill-opacity:1;" d="M 9.515625 13.992188 C 9.152344 13.921875 8.90625 13.847656 8.660156 14.058594 C 8.328125 14.347656 8.203125 14.90625 8.207031 15.027344 C 8.234375 15.484375 8.496094 15.847656 8.621094 16.054688 C 8.703125 16.1875 8.824219 16.910156 9 17.132812 C 9.242188 17.445312 9.945312 18.011719 10.179688 18.023438 C 10.238281 18.027344 10.953125 17.925781 11.113281 17.605469 C 10.835938 17.636719 10.527344 17.625 10.332031 17.597656 C 10.105469 17.5625 9.839844 17.417969 9.652344 17.226562 C 9.925781 17.324219 10.050781 17.398438 10.367188 17.457031 C 10.554688 17.496094 10.847656 17.5 11.140625 17.476562 C 11.203125 17.417969 11.253906 17.359375 11.285156 17.304688 C 10.941406 17.300781 10.09375 17.222656 9.789062 16.902344 C 10.09375 16.996094 10.660156 17.121094 11.054688 17.152344 C 11.050781 17.121094 11.046875 17.09375 11.042969 17.0625 C 10.976562 17.058594 10.914062 17.050781 10.859375 17.03125 C 10.691406 16.980469 10.570312 16.910156 10.46875 16.859375 C 10.132812 16.675781 9.90625 16.476562 9.8125 16.273438 C 10.097656 16.484375 10.511719 16.765625 10.882812 16.90625 C 10.925781 16.917969 10.972656 16.929688 11.027344 16.933594 C 11.019531 16.882812 11.011719 16.832031 11.003906 16.78125 C 10.976562 16.628906 10.9375 16.46875 10.832031 16.351562 C 10.597656 16.121094 10.453125 15.78125 10.34375 15.589844 C 10.285156 15.316406 10.210938 15.085938 10.257812 14.863281 C 10.273438 14.777344 10.328125 14.605469 10.4375 14.421875 C 10.453125 14.222656 10.390625 14.195312 10.347656 14.132812 C 10.324219 14.101562 10.253906 14.058594 10.234375 13.976562 C 10.058594 13.972656 9.773438 14.046875 9.515625 13.992188 M 11.621094 16.738281 C 11.691406 16.625 11.738281 16.496094 11.660156 16.433594 C 11.65625 16.429688 11.648438 16.425781 11.644531 16.421875 C 11.640625 16.527344 11.632812 16.632812 11.621094 16.738281 Z M 11.621094 16.738281 "/>
<path style=" stroke:none;fill-rule:evenodd;fill:rgb(68.235294%,69.019608%,69.803922%);fill-opacity:1;" d="M 9.667969 16.125 C 9.707031 16.453125 10.042969 16.644531 10.019531 16.789062 C 10.003906 16.890625 9.414062 16.617188 9.183594 16.351562 C 9.15625 16.539062 9.203125 16.785156 9.246094 16.863281 C 9.449219 17.191406 9.265625 17.25 9 17.132812 C 9.242188 17.445312 9.945312 18.011719 10.179688 18.023438 C 10.238281 18.027344 10.953125 17.925781 11.113281 17.605469 C 10.835938 17.636719 10.527344 17.625 10.332031 17.597656 C 10.105469 17.5625 9.839844 17.417969 9.652344 17.226562 C 9.925781 17.324219 10.050781 17.398438 10.367188 17.457031 C 10.554688 17.496094 10.847656 17.5 11.140625 17.476562 C 11.203125 17.417969 11.253906 17.359375 11.285156 17.304688 C 10.941406 17.300781 10.09375 17.222656 9.789062 16.902344 C 10.09375 16.996094 10.660156 17.121094 11.054688 17.152344 C 11.050781 17.121094 11.046875 17.09375 11.042969 17.0625 C 10.976562 17.058594 10.914062 17.050781 10.859375 17.03125 C 10.691406 16.980469 10.570312 16.910156 10.46875 16.859375 C 10.132812 16.675781 9.90625 16.480469 9.8125 16.273438 C 10.097656 16.484375 10.511719 16.765625 10.882812 16.90625 C 10.925781 16.917969 10.972656 16.929688 11.027344 16.933594 C 11.019531 16.882812 11.011719 16.832031 11.003906 16.78125 C 10.976562 16.628906 10.9375 16.46875 10.832031 16.351562 C 10.597656 16.121094 10.453125 15.78125 10.34375 15.589844 C 10.316406 15.738281 10.414062 16.042969 10.503906 16.230469 C 10.582031 16.390625 10.800781 16.496094 10.742188 16.621094 C 10.675781 16.757812 10.070312 16.3125 9.667969 16.125 M 11.621094 16.738281 C 11.691406 16.625 11.738281 16.496094 11.660156 16.433594 C 11.65625 16.429688 11.648438 16.425781 11.644531 16.421875 C 11.640625 16.527344 11.632812 16.632812 11.621094 16.738281 Z M 11.621094 16.738281 "/>
<path style=" stroke:none;fill-rule:evenodd;fill:rgb(68.235294%,69.019608%,69.803922%);fill-opacity:1;" d="M 11.503906 16.058594 C 11.503906 16.273438 11.476562 16.828125 11.429688 17.015625 C 11.359375 17.058594 11.257812 17.0625 11.191406 17.042969 C 11.164062 16.789062 11.125 16.421875 10.925781 16.230469 C 10.925781 16.230469 10.925781 16.230469 10.925781 16.226562 C 10.757812 16.058594 10.648438 15.839844 10.535156 15.628906 L 10.964844 16.074219 C 11.117188 16.207031 11.472656 16.167969 11.4375 15.863281 C 11.378906 16.085938 11.125 16.101562 11.019531 16 C 10.839844 15.832031 10.949219 15.714844 10.925781 15.632812 C 10.910156 15.566406 10.761719 15.535156 10.828125 15.328125 C 10.859375 15.234375 10.945312 15.136719 11.148438 15.085938 C 11.074219 15.035156 11.027344 14.964844 10.992188 14.875 C 10.972656 14.949219 10.980469 14.984375 11.003906 15.046875 C 10.832031 15.105469 10.75 15.226562 10.726562 15.289062 C 10.675781 15.433594 10.710938 15.554688 10.820312 15.65625 C 10.816406 15.683594 10.800781 15.722656 10.8125 15.765625 L 10.457031 15.398438 C 10.421875 15.242188 10.375 15.082031 10.398438 14.933594 C 10.421875 14.777344 10.480469 14.660156 10.570312 14.488281 L 10.804688 14.675781 C 10.492188 14.730469 10.394531 15.046875 10.507812 15.261719 C 10.484375 15.015625 10.621094 14.785156 10.910156 14.757812 L 11.304688 15.070312 C 11.316406 15.019531 11.328125 14.945312 11.210938 14.855469 L 10.589844 14.363281 C 10.59375 14.214844 10.550781 14.121094 10.398438 13.96875 C 10.371094 13.941406 10.367188 13.867188 10.375 13.84375 C 10.445312 13.792969 10.550781 13.789062 10.609375 13.804688 C 10.746094 13.886719 10.695312 14.015625 10.789062 14.171875 C 10.863281 14.15625 11.023438 14.097656 11.105469 14.160156 L 11.894531 14.757812 C 11.960938 14.808594 12.035156 14.914062 12.054688 15.015625 L 12.640625 15.519531 C 12.6875 15.46875 12.921875 15.671875 12.917969 15.757812 L 12.910156 15.851562 C 12.863281 15.871094 12.761719 15.765625 12.628906 15.660156 C 12.695312 15.839844 13.019531 16.066406 13.023438 15.9375 L 13.023438 15.851562 L 13.265625 16.066406 C 13.324219 16.132812 13.441406 16.445312 13.292969 16.539062 C 13.375 16.769531 13.089844 16.890625 12.949219 16.789062 L 12.945312 16.914062 L 12.785156 16.785156 L 12.78125 16.527344 L 11.585938 15.46875 C 11.660156 15.621094 11.722656 15.710938 11.902344 15.882812 C 11.859375 15.988281 11.753906 16.078125 11.503906 16.050781 C 11.503906 16.054688 11.503906 16.054688 11.503906 16.058594 M 13.023438 16.617188 C 13.074219 16.628906 13.152344 16.609375 13.1875 16.566406 C 13.191406 16.617188 13.179688 16.679688 13.121094 16.695312 C 13.050781 16.710938 13.023438 16.65625 13.023438 16.617188 Z M 13.089844 16.226562 C 13.167969 16.226562 13.226562 16.289062 13.214844 16.371094 C 13.203125 16.449219 13.128906 16.515625 13.046875 16.515625 C 12.96875 16.515625 12.914062 16.449219 12.921875 16.371094 C 12.933594 16.289062 13.007812 16.226562 13.089844 16.226562 Z M 13.089844 16.226562 "/>
<path style=" stroke:none;fill-rule:evenodd;fill:rgb(0%,0%,0%);fill-opacity:1;" d="M 11.113281 15.222656 C 11.089844 15.304688 11.160156 15.367188 11.242188 15.367188 C 11.230469 15.445312 11.15625 15.511719 11.074219 15.511719 C 10.996094 15.511719 10.9375 15.445312 10.949219 15.367188 C 10.960938 15.285156 11.035156 15.222656 11.113281 15.222656 "/>
<path style=" stroke:none;fill-rule:evenodd;fill:rgb(0%,0%,0%);fill-opacity:1;" d="M 11.226562 15.625 C 11.308594 15.625 11.363281 15.691406 11.351562 15.769531 C 11.339844 15.851562 11.265625 15.917969 11.1875 15.917969 C 11.105469 15.917969 11.050781 15.851562 11.0625 15.769531 C 11.070312 15.691406 11.148438 15.625 11.226562 15.625 "/>
<path style=" stroke:none;fill-rule:evenodd;fill:rgb(0%,0%,0%);fill-opacity:1;" d="M 13.089844 16.226562 C 13.167969 16.226562 13.226562 16.289062 13.214844 16.371094 C 13.203125 16.453125 13.128906 16.515625 13.046875 16.515625 C 12.96875 16.515625 12.914062 16.453125 12.921875 16.371094 C 12.933594 16.289062 13.007812 16.226562 13.089844 16.226562 "/>
<path style=" stroke:none;fill-rule:evenodd;fill:rgb(0%,0%,0%);fill-opacity:1;" d="M 13.023438 16.617188 C 13.074219 16.628906 13.152344 16.609375 13.1875 16.566406 C 13.191406 16.617188 13.179688 16.679688 13.121094 16.695312 C 13.050781 16.710938 13.023438 16.65625 13.023438 16.617188 "/>
<path style=" stroke:none;fill-rule:evenodd;fill:rgb(0%,0%,0%);fill-opacity:1;" d="M 11.992188 14.988281 C 11.894531 14.859375 11.71875 14.835938 11.609375 14.867188 C 11.371094 14.933594 11.230469 15.273438 11.398438 15.464844 C 11.335938 15.574219 11.402344 15.929688 11.765625 15.886719 C 11.496094 15.8125 11.453125 15.601562 11.511719 15.488281 C 11.371094 15.335938 11.421875 15.011719 11.660156 14.945312 C 11.75 14.917969 11.871094 14.921875 11.992188 14.988281 "/>
<path style=" stroke:none;fill-rule:evenodd;fill:rgb(0%,0%,0%);fill-opacity:1;" d="M 11.535156 14.785156 L 10.863281 14.257812 C 10.902344 14.242188 10.957031 14.230469 11.003906 14.230469 C 11.222656 14.394531 11.457031 14.632812 11.535156 14.785156 "/>
<path style=" stroke:none;fill-rule:evenodd;fill:rgb(68.235294%,69.019608%,69.803922%);fill-opacity:1;" d="M 18.703125 1.132812 C 18.542969 1.269531 18.574219 1.53125 18.753906 1.796875 C 18.914062 2.027344 19.164062 2.246094 19.453125 2.339844 C 19.082031 2 18.660156 1.566406 18.703125 1.132812 "/>
<path style=" stroke:none;fill-rule:evenodd;fill:rgb(68.235294%,69.019608%,69.803922%);fill-opacity:1;" d="M 19.796875 3.539062 C 19.253906 3.675781 18.242188 3.746094 17.578125 3.761719 C 16.265625 3.792969 15.464844 3.742188 14.675781 3.652344 C 15.375 3.910156 16.488281 4.023438 17.628906 4.050781 C 18.429688 4.070312 19.273438 4.03125 19.878906 3.890625 C 19.84375 3.730469 19.824219 3.648438 19.796875 3.539062 "/>
<path style=" stroke:none;fill-rule:evenodd;fill:rgb(68.235294%,69.019608%,69.803922%);fill-opacity:1;" d="M 12.246094 3.527344 C 12.242188 3.332031 12.4375 3.210938 12.71875 3.210938 C 12.886719 3.210938 13.25 3.355469 13.519531 3.488281 C 13.808594 3.632812 14.445312 4 14.96875 4.222656 C 14.433594 4.089844 13.886719 3.859375 13.441406 3.640625 C 12.890625 3.367188 12.503906 3.238281 12.246094 3.527344 "/>
<path style=" stroke:none;fill-rule:evenodd;fill:rgb(68.235294%,69.019608%,69.803922%);fill-opacity:1;" d="M 21.804688 2.953125 C 20.914062 4.214844 19.269531 4.484375 18.234375 4.480469 C 20.082031 4.199219 21.03125 3.644531 21.804688 2.953125 "/>
<path style=" stroke:none;fill-rule:evenodd;fill:rgb(68.235294%,69.019608%,69.803922%);fill-opacity:1;" d="M 15.304688 2.472656 C 16.257812 2.65625 18.0625 1.644531 16.808594 1.105469 C 17.519531 1.660156 16.460938 2.375 15.304688 2.472656 "/>
<path style=" stroke:none;fill-rule:evenodd;fill:rgb(100%,100%,100%);fill-opacity:1;" d="M 27.308594 24.46875 L 27.457031 24.46875 L 27.457031 24.566406 L 27.425781 24.566406 L 27.425781 24.898438 L 27.457031 24.898438 L 27.457031 25 L 27.300781 25 L 27.300781 24.683594 L 27.226562 24.796875 L 27.148438 24.683594 L 27.148438 25 L 26.992188 25 L 26.992188 24.898438 L 27.023438 24.898438 L 27.023438 24.566406 L 26.992188 24.566406 L 26.992188 24.46875 L 27.140625 24.46875 L 27.226562 24.597656 L 27.308594 24.46875 "/>
<path style=" stroke:none;fill-rule:evenodd;fill:rgb(100%,100%,100%);fill-opacity:1;" d="M 26.539062 24.46875 L 26.949219 24.46875 L 26.949219 24.601562 L 26.847656 24.601562 L 26.847656 24.566406 L 26.804688 24.566406 L 26.804688 24.898438 L 26.839844 24.898438 L 26.839844 25 L 26.648438 25 L 26.648438 24.898438 L 26.679688 24.898438 L 26.679688 24.566406 L 26.636719 24.566406 L 26.636719 24.601562 L 26.539062 24.601562 L 26.539062 24.46875 "/>
<path style=" stroke:none;fill-rule:evenodd;fill:rgb(100%,100%,100%);fill-opacity:1;" d="M 12.535156 18.855469 L 11.929688 18.855469 L 11.449219 21.59375 L 12.050781 21.59375 L 12.160156 20.972656 L 11.835938 20.972656 L 11.984375 20.128906 L 13.617188 20.128906 L 13.46875 20.957031 L 13.324219 21.785156 L 13.210938 22.421875 L 10.929688 22.421875 C 10.53125 22.421875 10.082031 22.109375 10.140625 21.785156 L 10.691406 18.664062 C 10.746094 18.347656 11.273438 18.027344 11.65625 18.027344 L 13.984375 18.027344 L 13.875 18.664062 L 13.792969 19.117188 L 12.488281 19.117188 L 12.535156 18.855469 "/>
<path style=" stroke:none;fill-rule:evenodd;fill:rgb(100%,100%,100%);fill-opacity:1;" d="M 16.015625 18.855469 L 15.414062 18.855469 L 14.933594 21.59375 L 15.535156 21.59375 L 15.644531 20.972656 L 15.320312 20.972656 L 15.46875 20.128906 L 17.101562 20.128906 L 16.953125 20.957031 L 16.808594 21.785156 L 16.695312 22.421875 L 14.414062 22.421875 C 14.015625 22.421875 13.566406 22.109375 13.625 21.785156 L 14.175781 18.664062 C 14.230469 18.347656 14.757812 18.027344 15.140625 18.027344 L 17.46875 18.027344 L 17.359375 18.664062 L 17.277344 19.117188 L 15.972656 19.117188 L 16.015625 18.855469 "/>
<path style=" stroke:none;fill-rule:evenodd;fill:rgb(100%,100%,100%);fill-opacity:1;" d="M 24.117188 21.59375 L 24.765625 21.59375 L 24.898438 20.855469 L 23.515625 20.03125 C 23.332031 19.917969 23.175781 19.726562 23.210938 19.527344 L 23.363281 18.660156 C 23.40625 18.414062 23.734375 18.167969 24.0625 18.0625 C 24.21875 18.257812 24.414062 18.34375 24.707031 18.417969 C 24.953125 18.480469 25.207031 18.550781 25.460938 18.542969 C 25.59375 18.617188 25.714844 18.675781 25.875 18.714844 C 26.050781 18.761719 26.210938 18.753906 26.359375 18.675781 C 26.457031 18.628906 26.53125 18.558594 26.589844 18.476562 L 26.476562 19.109375 L 25.207031 19.109375 L 25.25 18.847656 L 24.601562 18.847656 L 24.5 19.417969 L 25.882812 20.242188 C 26.066406 20.351562 26.222656 20.546875 26.1875 20.746094 L 26.003906 21.785156 C 25.949219 22.101562 25.410156 22.421875 25.019531 22.421875 L 22.699219 22.421875 L 22.894531 21.324219 L 24.164062 21.324219 L 24.117188 21.59375 "/>
<path style=" stroke:none;fill-rule:evenodd;fill:rgb(100%,100%,100%);fill-opacity:1;" d="M 20.035156 18.027344 L 23.171875 18.027344 L 22.980469 19.113281 L 21.9375 19.113281 L 21.984375 18.851562 L 21.503906 18.851562 L 21.355469 19.679688 L 22.328125 19.679688 L 22.183594 20.5 L 21.210938 20.5 L 21.019531 21.59375 L 21.5 21.59375 L 21.546875 21.328125 L 22.589844 21.328125 L 22.398438 22.421875 L 19.257812 22.421875 L 19.40625 21.59375 L 19.75 21.59375 L 20.234375 18.851562 L 19.886719 18.851562 L 20.035156 18.027344 "/>
<path style=" stroke:none;fill-rule:evenodd;fill:rgb(100%,100%,100%);fill-opacity:1;" d="M 19.730469 18.027344 L 19.585938 18.851562 L 19.242188 18.851562 L 18.757812 21.59375 L 19.101562 21.59375 L 18.957031 22.421875 L 16.996094 22.421875 L 17.140625 21.59375 L 17.488281 21.59375 L 17.972656 18.851562 L 17.625 18.851562 L 17.773438 18.027344 L 19.730469 18.027344 "/>
<path style=" stroke:none;fill-rule:evenodd;fill:rgb(100%,100%,100%);fill-opacity:1;" d="M 7.382812 20.398438 L 7.960938 20.398438 L 8.003906 18.519531 L 7.382812 20.398438 M 7.046875 21.402344 L 6.703125 22.421875 L 4.902344 22.421875 L 5.082031 21.402344 L 5.496094 21.402344 L 7.078125 17.011719 L 8.582031 17.011719 C 8.585938 17.023438 8.585938 17.035156 8.589844 17.042969 C 8.695312 17.367188 8.992188 17.597656 9.300781 17.871094 C 9.347656 17.90625 9.398438 17.949219 9.453125 17.988281 L 9.5 21.402344 L 9.90625 21.402344 L 9.726562 22.421875 L 7.910156 22.421875 L 7.949219 21.402344 Z M 7.046875 21.402344 "/>
<path style=" stroke:none;fill-rule:evenodd;fill:rgb(100%,100%,100%);fill-opacity:1;" d="M 16.433594 23.113281 L 16.199219 23.113281 L 16.070312 23.84375 L 16.304688 23.84375 L 16.316406 23.773438 L 16.78125 23.773438 L 16.730469 24.066406 L 15.894531 24.066406 C 15.75 24.066406 15.582031 23.984375 15.597656 23.898438 L 15.742188 23.0625 C 15.757812 22.976562 15.945312 22.890625 16.085938 22.890625 L 16.9375 22.890625 L 16.886719 23.183594 L 16.421875 23.183594 L 16.433594 23.113281 "/>
<path style=" stroke:none;fill-rule:evenodd;fill:rgb(100%,100%,100%);fill-opacity:1;" d="M 5.203125 24.066406 L 4.613281 24.066406 L 4.652344 23.84375 L 4.777344 23.84375 L 4.90625 23.113281 L 4.78125 23.113281 L 4.820312 22.890625 L 5.347656 22.890625 L 5.570312 23.328125 L 5.648438 22.890625 L 6.238281 22.890625 L 6.199219 23.113281 L 6.074219 23.113281 L 5.945312 23.84375 L 6.070312 23.84375 L 6.03125 24.066406 L 5.503906 24.066406 L 5.28125 23.625 L 5.203125 24.066406 "/>
<path style=" stroke:none;fill-rule:evenodd;fill:rgb(100%,100%,100%);fill-opacity:1;" d="M 8.417969 24.066406 L 8.851562 24.066406 L 9.183594 23.113281 L 9.308594 23.113281 L 9.347656 22.890625 L 8.789062 22.890625 L 8.632812 23.382812 L 8.480469 22.890625 L 8.148438 23.382812 L 8.164062 22.890625 L 7.605469 22.890625 L 7.566406 23.113281 L 7.691406 23.113281 L 7.683594 24.066406 L 8.117188 24.066406 L 8.335938 23.695312 L 8.417969 24.066406 "/>
<path style=" stroke:none;fill-rule:evenodd;fill:rgb(100%,100%,100%);fill-opacity:1;" d="M 6.347656 22.890625 L 7.496094 22.890625 L 7.445312 23.183594 L 7.0625 23.183594 L 7.074219 23.113281 L 6.898438 23.113281 L 6.859375 23.335938 L 7.214844 23.335938 L 7.175781 23.554688 L 6.820312 23.554688 L 6.769531 23.84375 L 6.945312 23.84375 L 6.957031 23.773438 L 7.339844 23.773438 L 7.289062 24.066406 L 6.140625 24.066406 L 6.179688 23.84375 L 6.304688 23.84375 L 6.4375 23.113281 L 6.308594 23.113281 L 6.347656 22.890625 "/>
<path style=" stroke:none;fill-rule:evenodd;fill:rgb(100%,100%,100%);fill-opacity:1;" d="M 11.496094 22.890625 L 12.058594 22.890625 L 12.019531 23.113281 L 11.894531 23.113281 L 11.765625 23.84375 L 11.890625 23.84375 L 11.851562 24.066406 L 11.261719 24.066406 L 11.386719 23.367188 L 11.054688 23.617188 L 10.8125 23.367188 L 10.6875 24.066406 L 10.097656 24.066406 L 10.136719 23.84375 L 10.261719 23.84375 L 10.390625 23.113281 L 10.265625 23.113281 L 10.304688 22.890625 L 10.867188 22.890625 L 11.132812 23.179688 L 11.496094 22.890625 "/>
<path style=" stroke:none;fill-rule:evenodd;fill:rgb(100%,100%,100%);fill-opacity:1;" d="M 15.664062 22.890625 L 15.625 23.113281 L 15.496094 23.113281 L 15.367188 23.84375 L 15.496094 23.84375 L 15.457031 24.066406 L 14.738281 24.066406 L 14.777344 23.84375 L 14.90625 23.84375 L 15.035156 23.113281 L 14.910156 23.113281 L 14.949219 22.890625 L 15.664062 22.890625 "/>
<path style=" stroke:none;fill-rule:evenodd;fill:rgb(100%,100%,100%);fill-opacity:1;" d="M 13.425781 22.890625 L 13.921875 22.890625 L 14.058594 23.296875 L 14.339844 22.890625 L 14.835938 22.890625 L 14.796875 23.113281 L 14.671875 23.113281 L 14.429688 23.460938 L 14.542969 23.84375 L 14.667969 23.84375 L 14.628906 24.066406 L 14.128906 24.066406 L 14 23.636719 L 13.71875 24.066406 L 13.21875 24.066406 L 13.257812 23.84375 L 13.382812 23.84375 L 13.632812 23.460938 L 13.515625 23.113281 L 13.386719 23.113281 L 13.425781 22.890625 "/>
<path style=" stroke:none;fill-rule:evenodd;fill:rgb(100%,100%,100%);fill-opacity:1;" d="M 12.167969 22.890625 L 13.316406 22.890625 L 13.265625 23.183594 L 12.882812 23.183594 L 12.894531 23.113281 L 12.71875 23.113281 L 12.679688 23.335938 L 13.035156 23.335938 L 13 23.554688 L 12.644531 23.554688 L 12.589844 23.84375 L 12.765625 23.84375 L 12.78125 23.773438 L 13.160156 23.773438 L 13.109375 24.066406 L 11.960938 24.066406 L 12 23.84375 L 12.128906 23.84375 L 12.257812 23.113281 L 12.128906 23.113281 L 12.167969 22.890625 "/>
<path style=" stroke:none;fill-rule:evenodd;fill:rgb(100%,100%,100%);fill-opacity:1;" d="M 17.015625 23.0625 C 17.03125 22.980469 17.214844 22.890625 17.355469 22.890625 L 17.886719 22.890625 C 18.03125 22.890625 18.195312 22.976562 18.179688 23.0625 L 18.03125 23.898438 C 18.015625 23.980469 17.828125 24.066406 17.683594 24.066406 L 17.167969 24.066406 C 17.023438 24.066406 16.855469 23.980469 16.871094 23.898438 L 17.015625 23.0625 M 17.472656 23.113281 L 17.34375 23.84375 L 17.578125 23.84375 L 17.707031 23.113281 Z M 17.472656 23.113281 "/>
<path style=" stroke:none;fill-rule:evenodd;fill:rgb(100%,100%,100%);fill-opacity:1;" d="M 19.324219 23.84375 L 19.5625 23.84375 L 19.59375 23.648438 L 19.078125 23.429688 C 19.007812 23.398438 18.949219 23.347656 18.957031 23.292969 L 19 23.0625 C 19.015625 22.976562 19.203125 22.890625 19.347656 22.890625 L 20.191406 22.890625 L 20.140625 23.183594 L 19.679688 23.183594 L 19.691406 23.113281 L 19.453125 23.113281 L 19.425781 23.265625 L 19.945312 23.484375 C 20.011719 23.515625 20.074219 23.566406 20.0625 23.621094 L 20.015625 23.894531 C 20 23.980469 19.8125 24.066406 19.667969 24.066406 L 18.820312 24.066406 L 18.875 23.773438 L 19.335938 23.773438 L 19.324219 23.84375 "/>
<path style=" stroke:none;fill-rule:evenodd;fill:rgb(100%,100%,100%);fill-opacity:1;" d="M 20.300781 22.890625 L 21.847656 22.890625 L 21.796875 23.183594 L 21.417969 23.183594 L 21.429688 23.113281 L 21.269531 23.113281 L 21.136719 23.84375 L 21.265625 23.84375 L 21.226562 24.066406 L 20.507812 24.066406 L 20.546875 23.84375 L 20.675781 23.84375 L 20.804688 23.113281 L 20.640625 23.113281 L 20.628906 23.183594 L 20.25 23.183594 L 20.300781 22.890625 "/>
<path style=" stroke:none;fill-rule:evenodd;fill:rgb(100%,100%,100%);fill-opacity:1;" d="M 23.007812 22.890625 L 24.550781 22.890625 L 24.5 23.183594 L 24.125 23.183594 L 24.136719 23.113281 L 23.972656 23.113281 L 23.84375 23.84375 L 23.96875 23.84375 L 23.933594 24.066406 L 23.214844 24.066406 L 23.253906 23.84375 L 23.378906 23.84375 L 23.507812 23.113281 L 23.347656 23.113281 L 23.335938 23.183594 L 22.957031 23.183594 L 23.007812 22.890625 "/>
<path style=" stroke:none;fill-rule:evenodd;fill:rgb(100%,100%,100%);fill-opacity:1;" d="M 24.664062 22.890625 L 25.808594 22.890625 L 25.757812 23.183594 L 25.375 23.183594 L 25.390625 23.113281 L 25.214844 23.113281 L 25.175781 23.335938 L 25.53125 23.335938 L 25.492188 23.554688 L 25.136719 23.554688 L 25.085938 23.84375 L 25.261719 23.84375 L 25.273438 23.773438 L 25.652344 23.773438 L 25.601562 24.066406 L 24.457031 24.066406 L 24.492188 23.84375 L 24.621094 23.84375 L 24.75 23.113281 L 24.625 23.113281 L 24.664062 22.890625 "/>
<path style=" stroke:none;fill-rule:evenodd;fill:rgb(100%,100%,100%);fill-opacity:1;" d="M 22.214844 23.625 L 22.386719 23.625 L 22.371094 23.21875 L 22.214844 23.625 M 22.128906 23.84375 L 22.042969 24.066406 L 21.507812 24.066406 L 21.546875 23.84375 L 21.667969 23.84375 L 22.074219 22.890625 L 22.777344 22.890625 L 22.855469 23.84375 L 22.976562 23.84375 L 22.9375 24.066406 L 22.398438 24.066406 L 22.398438 23.84375 Z M 22.128906 23.84375 "/>
<path style=" stroke:none;fill-rule:evenodd;fill:rgb(68.235294%,69.019608%,69.803922%);fill-opacity:1;" d="M 12.429688 20.746094 L 12.105469 20.746094 L 11.835938 20.972656 L 12.160156 20.972656 L 12.429688 20.746094 "/>
<path style=" stroke:none;fill-rule:evenodd;fill:rgb(68.235294%,69.019608%,69.803922%);fill-opacity:1;" d="M 12.804688 18.628906 L 11.742188 18.628906 L 11.179688 21.820312 L 11.449219 21.59375 L 11.929688 18.855469 L 12.535156 18.855469 L 12.804688 18.628906 "/>
<path style=" stroke:none;fill-rule:evenodd;fill:rgb(68.235294%,69.019608%,69.803922%);fill-opacity:1;" d="M 10.546875 22.078125 C 10.445312 22.011719 10.371094 21.925781 10.363281 21.851562 L 10.164062 21.976562 C 10.261719 22.222656 10.609375 22.421875 10.929688 22.421875 L 13.210938 22.421875 L 13.617188 20.128906 L 13.347656 20.355469 L 13.019531 22.195312 L 10.929688 22.195312 C 10.769531 22.195312 10.621094 22.125 10.546875 22.078125 "/>
<path style=" stroke:none;fill-rule:evenodd;fill:rgb(68.235294%,69.019608%,69.803922%);fill-opacity:1;" d="M 13.714844 18.253906 L 13.605469 18.890625 L 12.757812 18.890625 L 12.488281 19.117188 L 13.792969 19.117188 L 13.984375 18.027344 L 13.714844 18.253906 "/>
<path style=" stroke:none;fill-rule:evenodd;fill:rgb(68.235294%,69.019608%,69.803922%);fill-opacity:1;" d="M 15.914062 20.746094 L 15.589844 20.746094 L 15.320312 20.972656 L 15.644531 20.972656 L 15.914062 20.746094 "/>
<path style=" stroke:none;fill-rule:evenodd;fill:rgb(68.235294%,69.019608%,69.803922%);fill-opacity:1;" d="M 16.289062 18.628906 L 15.226562 18.628906 L 14.664062 21.820312 L 14.933594 21.59375 L 15.414062 18.855469 L 16.015625 18.855469 L 16.289062 18.628906 "/>
<path style=" stroke:none;fill-rule:evenodd;fill:rgb(68.235294%,69.019608%,69.803922%);fill-opacity:1;" d="M 14.03125 22.078125 C 13.929688 22.011719 13.855469 21.925781 13.847656 21.851562 L 13.648438 21.976562 C 13.746094 22.222656 14.09375 22.421875 14.414062 22.421875 L 16.695312 22.421875 L 17.101562 20.128906 L 16.832031 20.355469 L 16.507812 22.195312 L 14.414062 22.195312 C 14.253906 22.195312 14.105469 22.125 14.03125 22.078125 "/>
<path style=" stroke:none;fill-rule:evenodd;fill:rgb(68.235294%,69.019608%,69.803922%);fill-opacity:1;" d="M 17.199219 18.253906 L 17.089844 18.890625 L 16.242188 18.890625 L 15.972656 19.117188 L 17.277344 19.117188 L 17.46875 18.027344 L 17.199219 18.253906 "/>
<path style=" stroke:none;fill-rule:evenodd;fill:rgb(68.235294%,69.019608%,69.803922%);fill-opacity:1;" d="M 26.320312 18.695312 L 26.289062 18.882812 L 25.476562 18.882812 L 25.207031 19.109375 L 26.476562 19.109375 L 26.585938 18.476562 C 26.53125 18.558594 26.457031 18.628906 26.359375 18.675781 C 26.347656 18.683594 26.332031 18.691406 26.320312 18.695312 M 23.265625 19.785156 C 23.324219 19.882812 23.414062 19.96875 23.515625 20.03125 L 24.898438 20.855469 L 25.148438 20.742188 L 23.632812 19.835938 C 23.601562 19.816406 23.554688 19.785156 23.515625 19.742188 C 23.496094 19.726562 23.484375 19.707031 23.472656 19.691406 Z M 24.5 19.417969 L 24.601562 18.847656 L 25.25 18.847656 L 25.523438 18.621094 L 24.410156 18.621094 L 24.25 19.53125 Z M 25.488281 22.046875 C 25.367188 22.117188 25.183594 22.195312 25.015625 22.195312 L 22.96875 22.195312 L 22.699219 22.421875 L 25.019531 22.421875 C 25.410156 22.421875 25.949219 22.101562 26.003906 21.785156 L 26.1875 20.746094 C 26.203125 20.648438 26.175781 20.554688 26.121094 20.464844 L 25.914062 20.5625 C 25.921875 20.574219 25.9375 20.597656 25.953125 20.628906 C 25.964844 20.660156 25.96875 20.683594 25.964844 20.710938 L 25.78125 21.738281 C 25.765625 21.839844 25.628906 21.964844 25.488281 22.046875 Z M 24.117188 21.59375 L 24.164062 21.324219 L 23.894531 21.550781 L 23.847656 21.820312 Z M 24.117188 21.59375 "/>
<path style=" stroke:none;fill-rule:evenodd;fill:rgb(68.235294%,69.019608%,69.803922%);fill-opacity:1;" d="M 21.019531 21.59375 L 21.210938 20.5 L 22.183594 20.5 L 22.328125 19.679688 L 22.058594 19.90625 L 21.996094 20.273438 L 21.023438 20.273438 L 20.75 21.820312 L 21.019531 21.59375 M 22.320312 21.554688 L 22.207031 22.195312 L 19.527344 22.195312 L 19.257812 22.421875 L 22.398438 22.421875 L 22.589844 21.328125 Z M 21.9375 19.113281 L 22.980469 19.113281 L 23.171875 18.027344 L 22.902344 18.253906 L 22.792969 18.886719 L 22.207031 18.886719 Z M 22.253906 18.628906 L 21.3125 18.628906 L 21.085938 19.90625 L 21.355469 19.679688 L 21.503906 18.851562 L 21.984375 18.851562 Z M 19.886719 18.851562 L 20.234375 18.851562 L 20.503906 18.628906 L 20.15625 18.628906 Z M 19.886719 18.851562 "/>
<path style=" stroke:none;fill-rule:evenodd;fill:rgb(68.235294%,69.019608%,69.803922%);fill-opacity:1;" d="M 18.835938 21.820312 L 18.769531 22.195312 L 17.265625 22.195312 L 16.996094 22.421875 L 18.957031 22.421875 L 19.101562 21.59375 L 18.835938 21.820312 M 18.757812 21.59375 L 19.242188 18.851562 L 19.585938 18.851562 L 19.730469 18.027344 L 19.460938 18.253906 L 19.398438 18.628906 L 19.050781 18.628906 L 18.488281 21.820312 Z M 17.625 18.851562 L 17.972656 18.851562 L 18.242188 18.628906 L 17.894531 18.628906 Z M 17.625 18.851562 "/>
<path style=" stroke:none;fill-rule:evenodd;fill:rgb(68.235294%,69.019608%,69.803922%);fill-opacity:1;" d="M 8.003906 18.519531 L 7.382812 20.398438 L 7.070312 20.625 L 8.1875 17.238281 L 8.003906 18.519531 M 7.949219 21.402344 L 7.046875 21.402344 L 6.703125 22.421875 L 4.902344 22.421875 L 5.171875 22.195312 L 6.542969 22.195312 L 6.882812 21.175781 L 8.183594 21.175781 Z M 9.277344 21.628906 L 9.222656 17.804688 C 9.25 17.828125 9.273438 17.851562 9.300781 17.875 C 9.347656 17.90625 9.398438 17.949219 9.453125 17.988281 L 9.5 21.402344 Z M 9.90625 21.402344 L 9.726562 22.421875 L 7.910156 22.421875 L 8.144531 22.195312 L 9.535156 22.195312 L 9.636719 21.628906 Z M 9.90625 21.402344 "/>
<path style=" stroke:none;fill-rule:evenodd;fill:rgb(100%,100%,100%);fill-opacity:1;" d="M 16.960938 14.3125 L 16.683594 14.273438 L 16.722656 14.117188 L 16.808594 14.132812 L 17.066406 13.042969 L 16.980469 13.03125 L 17.015625 12.875 L 17.273438 12.910156 L 17.390625 13.828125 L 17.597656 12.953125 L 17.875 12.992188 L 17.839844 13.148438 L 17.75 13.132812 L 17.492188 14.222656 L 17.582031 14.238281 L 17.546875 14.390625 L 17.289062 14.355469 L 17.171875 13.425781 L 16.960938 14.3125 "/>
<path style=" stroke:none;fill-rule:evenodd;fill:rgb(100%,100%,100%);fill-opacity:1;" d="M 18.828125 13.121094 L 19.109375 13.160156 L 19.074219 13.3125 L 18.984375 13.300781 L 18.726562 14.390625 L 18.816406 14.40625 L 18.777344 14.558594 L 18.503906 14.519531 L 18.761719 13.425781 L 18.382812 13.835938 L 18.222656 13.363281 L 17.964844 14.445312 L 17.691406 14.410156 L 17.726562 14.253906 L 17.816406 14.269531 L 18.074219 13.179688 L 17.984375 13.167969 L 18.019531 13.011719 L 18.308594 13.050781 L 18.460938 13.535156 L 18.828125 13.121094 "/>
<path style=" stroke:none;fill-rule:evenodd;fill:rgb(100%,100%,100%);fill-opacity:1;" d="M 17.054688 14.472656 L 17.484375 14.53125 L 17.460938 14.628906 L 17.402344 14.621094 L 17.414062 14.582031 L 17.296875 14.566406 L 17.1875 15.03125 L 17.226562 15.039062 L 17.214844 15.097656 L 17.050781 15.074219 L 17.0625 15.015625 L 17.105469 15.019531 L 17.214844 14.554688 L 17.097656 14.539062 L 17.089844 14.578125 L 17.03125 14.570312 L 17.054688 14.472656 "/>
<path style=" stroke:none;fill-rule:evenodd;fill:rgb(100%,100%,100%);fill-opacity:1;" d="M 17.917969 14.589844 L 18.34375 14.648438 L 18.320312 14.746094 L 18.265625 14.738281 L 18.273438 14.699219 L 18.160156 14.683594 L 18.050781 15.148438 L 18.089844 15.152344 L 18.074219 15.214844 L 17.910156 15.191406 L 17.925781 15.132812 L 17.964844 15.136719 L 18.074219 14.671875 L 17.960938 14.65625 L 17.949219 14.695312 L 17.894531 14.6875 L 17.917969 14.589844 "/>
<path style=" stroke:none;fill-rule:evenodd;fill:rgb(100%,100%,100%);fill-opacity:1;" d="M 18.441406 14.660156 L 18.746094 14.703125 L 18.722656 14.800781 L 18.664062 14.792969 L 18.671875 14.753906 L 18.554688 14.738281 L 18.511719 14.921875 L 18.625 14.9375 L 18.609375 14.992188 L 18.496094 14.980469 L 18.445312 15.203125 L 18.5625 15.21875 L 18.574219 15.179688 L 18.628906 15.1875 L 18.605469 15.285156 L 18.304688 15.246094 L 18.320312 15.183594 L 18.359375 15.191406 L 18.46875 14.726562 L 18.429688 14.71875 L 18.441406 14.660156 "/>
<path style=" stroke:none;fill-rule:evenodd;fill:rgb(100%,100%,100%);fill-opacity:1;" d="M 16.609375 14.953125 L 16.75 14.972656 L 16.785156 14.816406 L 16.625 14.660156 C 16.609375 14.644531 16.601562 14.628906 16.605469 14.609375 L 16.632812 14.484375 C 16.648438 14.449219 16.6875 14.425781 16.722656 14.429688 L 16.957031 14.460938 L 16.933594 14.558594 L 16.851562 14.546875 L 16.859375 14.507812 L 16.71875 14.488281 L 16.691406 14.617188 L 16.851562 14.773438 C 16.863281 14.789062 16.871094 14.804688 16.871094 14.828125 L 16.835938 14.976562 C 16.820312 15.007812 16.792969 15.027344 16.757812 15.03125 L 16.746094 15.03125 L 16.511719 15 L 16.535156 14.902344 L 16.621094 14.914062 L 16.609375 14.953125 "/>
<path style=" stroke:none;fill-rule:evenodd;fill:rgb(100%,100%,100%);fill-opacity:1;" d="M 17.664062 14.617188 L 17.542969 14.957031 L 17.667969 14.972656 L 17.707031 14.621094 L 17.664062 14.617188 M 17.785156 14.570312 L 17.738281 15.105469 L 17.773438 15.113281 L 17.757812 15.171875 L 17.648438 15.15625 L 17.664062 15.03125 L 17.519531 15.011719 L 17.476562 15.132812 L 17.367188 15.117188 L 17.382812 15.058594 L 17.414062 15.0625 L 17.617188 14.550781 Z M 17.785156 14.570312 "/>
</g>
</svg>
