<?xml version="1.0" encoding="UTF-8"?>
<svg xmlns="http://www.w3.org/2000/svg" xmlns:xlink="http://www.w3.org/1999/xlink" width="35pt" height="25pt" viewBox="0 0 35 25" version="1.1">
<g id="surface1">
<path style=" stroke:none;fill-rule:nonzero;fill:rgb(93.333333%,14.901961%,13.333333%);fill-opacity:1;" d="M 23.011719 7.460938 L 23.425781 6.671875 L 21.445312 6.1875 Z M 23.011719 7.460938 "/>
<path style=" stroke:none;fill-rule:nonzero;fill:rgb(93.333333%,14.901961%,13.333333%);fill-opacity:1;" d="M 23.867188 6.074219 L 24.507812 5.457031 L 22.78125 4.371094 Z M 23.867188 6.074219 "/>
<path style=" stroke:none;fill-rule:nonzero;fill:rgb(93.333333%,14.901961%,13.333333%);fill-opacity:1;" d="M 25.113281 4.984375 L 25.910156 4.59375 L 24.597656 3.035156 Z M 25.113281 4.984375 "/>
<path style=" stroke:none;fill-rule:nonzero;fill:rgb(93.333333%,14.901961%,13.333333%);fill-opacity:1;" d="M 26.613281 4.34375 L 27.496094 4.234375 L 26.761719 2.332031 Z M 26.613281 4.34375 "/>
<path style=" stroke:none;fill-rule:nonzero;fill:rgb(93.333333%,14.901961%,13.333333%);fill-opacity:1;" d="M 29.132812 3.925781 L 28.988281 2.292969 L 28.289062 4.1875 L 28.597656 4.234375 C 28.597656 4.234375 28.746094 4.117188 29.132812 3.925781 "/>
<path style=" stroke:none;fill-rule:nonzero;fill:rgb(93.333333%,14.901961%,13.333333%);fill-opacity:1;" d="M 31.097656 3.265625 L 31.160156 3.035156 L 30.949219 3.285156 Z M 31.097656 3.265625 "/>
<path style=" stroke:none;fill-rule:nonzero;fill:rgb(93.333333%,14.901961%,13.333333%);fill-opacity:1;" d="M 30.972656 3.75 L 30.640625 5.007812 L 29.863281 4.582031 L 30.472656 3.855469 C 30.472656 3.855469 30.761719 3.753906 30.972656 3.75 "/>
<path style=" stroke:none;fill-rule:nonzero;fill:rgb(93.333333%,14.901961%,13.333333%);fill-opacity:1;" d="M 32.417969 4.703125 L 31.257812 5.449219 L 31.875 6.085938 L 32.417969 5.222656 C 32.417969 5.222656 32.453125 4.957031 32.417969 4.703125 "/>
<path style=" stroke:none;fill-rule:nonzero;fill:rgb(93.333333%,14.901961%,13.333333%);fill-opacity:1;" d="M 34.277344 6.191406 L 32.917969 6.515625 C 32.917969 6.515625 32.796875 6.9375 32.664062 7.144531 L 32.703125 7.480469 Z M 34.277344 6.191406 "/>
<path style=" stroke:none;fill-rule:nonzero;fill:rgb(93.333333%,14.901961%,13.333333%);fill-opacity:1;" d="M 35 8.316406 L 32.96875 8.203125 L 33.117188 9.074219 Z M 35 8.316406 "/>
<path style=" stroke:none;fill-rule:nonzero;fill:rgb(93.333333%,14.901961%,13.333333%);fill-opacity:1;" d="M 34.976562 10.589844 L 33.085938 9.824219 L 32.976562 10.726562 Z M 34.976562 10.589844 "/>
<path style=" stroke:none;fill-rule:nonzero;fill:rgb(93.333333%,14.901961%,13.333333%);fill-opacity:1;" d="M 34.285156 12.738281 L 32.75 11.453125 L 32.347656 12.207031 Z M 34.285156 12.738281 "/>
<path style=" stroke:none;fill-rule:nonzero;fill:rgb(93.333333%,14.901961%,13.333333%);fill-opacity:1;" d="M 32.933594 14.527344 L 31.875 12.84375 C 31.875 12.84375 31.585938 13.1875 31.277344 13.441406 Z M 32.933594 14.527344 "/>
<path style=" stroke:none;fill-rule:nonzero;fill:rgb(93.333333%,14.901961%,13.333333%);fill-opacity:1;" d="M 31.132812 15.828125 L 30.617188 13.894531 C 30.617188 13.894531 30.160156 14.175781 29.886719 14.300781 Z M 31.132812 15.828125 "/>
<path style=" stroke:none;fill-rule:nonzero;fill:rgb(93.333333%,14.901961%,13.333333%);fill-opacity:1;" d="M 28.996094 16.519531 L 29.113281 14.539062 C 29.113281 14.539062 28.652344 14.664062 28.261719 14.667969 Z M 28.996094 16.519531 "/>
<path style=" stroke:none;fill-rule:nonzero;fill:rgb(96.470588%,50.980392%,7.45098%);fill-opacity:1;" d="M 31.875 6.933594 C 31.875 6.933594 30.707031 4.730469 27.851562 4.730469 C 25 4.730469 23.523438 7.019531 23.320312 8.238281 L 24.390625 8.238281 L 23.976562 9.851562 L 23.457031 9.851562 C 22.957031 10.917969 23.898438 12.472656 25.203125 13.351562 C 27.542969 12.269531 30.4375 9.6875 31.875 6.933594 "/>
<path style=" stroke:none;fill-rule:nonzero;fill:rgb(96.470588%,50.980392%,7.45098%);fill-opacity:1;" d="M 32.335938 7.828125 C 32.335938 7.828125 30.296875 11.519531 26.132812 13.835938 C 26.132812 13.835938 26.757812 14.203125 27.914062 14.203125 C 30.109375 14.203125 32.605469 12.464844 32.605469 9.425781 C 32.605469 8.445312 32.335938 7.828125 32.335938 7.828125 "/>
<path style=" stroke:none;fill-rule:nonzero;fill:rgb(13.72549%,12.156863%,12.54902%);fill-opacity:1;" d="M 26.414062 22.328125 C 26.441406 22.328125 26.46875 22.320312 26.484375 22.3125 C 26.503906 22.304688 26.511719 22.285156 26.511719 22.257812 C 26.511719 22.21875 26.480469 22.199219 26.421875 22.199219 L 26.339844 22.199219 L 26.339844 22.328125 Z M 26.339844 22.554688 L 26.277344 22.554688 L 26.277344 22.148438 L 26.433594 22.148438 C 26.480469 22.148438 26.515625 22.15625 26.539062 22.175781 C 26.5625 22.195312 26.574219 22.222656 26.574219 22.261719 C 26.574219 22.296875 26.566406 22.324219 26.546875 22.34375 C 26.527344 22.359375 26.503906 22.371094 26.472656 22.375 L 26.585938 22.554688 L 26.515625 22.554688 L 26.410156 22.378906 L 26.339844 22.378906 Z M 26.164062 22.5 C 26.1875 22.546875 26.222656 22.582031 26.269531 22.609375 C 26.3125 22.632812 26.359375 22.644531 26.414062 22.644531 C 26.464844 22.644531 26.511719 22.632812 26.558594 22.609375 C 26.601562 22.582031 26.636719 22.546875 26.664062 22.5 C 26.6875 22.453125 26.699219 22.40625 26.699219 22.351562 C 26.699219 22.3125 26.691406 22.273438 26.679688 22.234375 C 26.664062 22.199219 26.644531 22.167969 26.617188 22.140625 C 26.59375 22.113281 26.5625 22.09375 26.523438 22.078125 C 26.488281 22.0625 26.453125 22.054688 26.414062 22.054688 C 26.375 22.054688 26.335938 22.0625 26.300781 22.078125 C 26.265625 22.09375 26.234375 22.113281 26.207031 22.140625 C 26.179688 22.167969 26.160156 22.199219 26.144531 22.234375 C 26.140625 22.253906 26.132812 22.273438 26.128906 22.289062 C 26.125 22.308594 26.125 22.328125 26.125 22.351562 C 26.125 22.40625 26.136719 22.453125 26.164062 22.5 M 26.277344 22.679688 C 26.230469 22.660156 26.191406 22.636719 26.160156 22.605469 C 26.125 22.570312 26.101562 22.53125 26.082031 22.488281 C 26.0625 22.445312 26.050781 22.398438 26.050781 22.351562 C 26.050781 22.300781 26.0625 22.253906 26.082031 22.210938 C 26.101562 22.167969 26.128906 22.128906 26.160156 22.097656 C 26.195312 22.066406 26.234375 22.042969 26.277344 22.023438 C 26.320312 22.007812 26.363281 22 26.414062 22 C 26.460938 22 26.507812 22.007812 26.550781 22.023438 C 26.59375 22.042969 26.632812 22.066406 26.664062 22.097656 C 26.695312 22.128906 26.722656 22.167969 26.742188 22.210938 C 26.761719 22.253906 26.769531 22.300781 26.769531 22.351562 C 26.769531 22.417969 26.753906 22.480469 26.722656 22.53125 C 26.691406 22.585938 26.644531 22.628906 26.589844 22.660156 C 26.535156 22.691406 26.476562 22.707031 26.414062 22.707031 C 26.363281 22.707031 26.316406 22.695312 26.277344 22.679688 "/>
<path style=" stroke:none;fill-rule:nonzero;fill:rgb(13.72549%,12.156863%,12.54902%);fill-opacity:1;" d="M 31.488281 3.324219 C 30.300781 3.324219 29.445312 3.855469 28.375 4.492188 L 28.5 4.546875 C 28.5 4.546875 30.269531 3.523438 31.375 3.523438 C 32.117188 3.523438 32.644531 4.035156 32.644531 4.847656 C 32.644531 8.5 26.265625 14.035156 23.507812 14.035156 C 22.578125 14.035156 22.496094 13.40625 22.496094 13.40625 L 21.652344 13.601562 C 21.652344 13.601562 22.089844 14.640625 23.324219 14.640625 C 26.378906 14.640625 33.058594 8.84375 33.058594 4.84375 C 33.058594 3.917969 32.417969 3.324219 31.488281 3.324219 "/>
<path style=" stroke:none;fill-rule:nonzero;fill:rgb(13.72549%,12.156863%,12.54902%);fill-opacity:1;" d="M 10.105469 5.917969 L 5.96875 5.917969 C 4.257812 5.917969 3.699219 6.867188 3.542969 7.421875 C 3.386719 7.972656 3.351562 8.15625 3.144531 8.992188 C 2.78125 10.445312 3.792969 10.6875 4.449219 10.6875 L 6.6875 10.6875 L 6.28125 12.300781 L 4.839844 12.300781 L 5.054688 11.539062 L 2.628906 11.539062 L 2.03125 13.976562 L 6.351562 13.976562 C 7.6875 13.976562 8.464844 13.542969 8.742188 12.449219 C 9.019531 11.351562 9.050781 11.316406 9.191406 10.6875 C 9.492188 9.425781 8.542969 9.105469 7.714844 9.105469 L 5.660156 9.105469 L 5.996094 7.613281 L 7.421875 7.613281 L 7.246094 8.355469 L 9.5 8.355469 Z M 10.105469 5.917969 "/>
<path style=" stroke:none;fill-rule:nonzero;fill:rgb(13.72549%,12.156863%,12.54902%);fill-opacity:1;" d="M 16.375 8.414062 L 13.734375 8.414062 L 12.566406 12.835938 L 11.460938 12.835938 L 12.621094 8.421875 L 9.984375 8.421875 L 9.648438 9.648438 L 10.191406 9.648438 C 10.191406 9.648438 9.664062 11.628906 9.371094 12.679688 C 9.078125 13.734375 9.621094 14.035156 10.746094 14.035156 L 12.851562 14.035156 C 14.191406 14.035156 14.578125 13.285156 14.699219 12.90625 C 14.820312 12.527344 15.5625 9.660156 15.5625 9.660156 L 16.109375 9.660156 Z M 16.375 8.414062 "/>
<path style=" stroke:none;fill-rule:nonzero;fill:rgb(13.72549%,12.156863%,12.54902%);fill-opacity:1;" d="M 19.605469 8.421875 L 17.074219 8.421875 L 16.738281 9.660156 L 17.25 9.660156 L 16.417969 12.84375 L 15.925781 12.84375 L 15.617188 14.035156 L 18.035156 14.035156 L 18.8125 10.832031 L 20.167969 14.035156 L 22.636719 14.035156 L 23 12.863281 L 22.464844 12.863281 L 23.292969 9.667969 L 23.8125 9.667969 L 24.121094 8.421875 L 21.703125 8.421875 L 20.902344 11.808594 Z M 19.605469 8.421875 "/>
<path style=" stroke:none;fill-rule:nonzero;fill:rgb(13.72549%,12.156863%,12.54902%);fill-opacity:1;" d="M 5.71875 17.792969 L 4.328125 17.792969 L 4.734375 16.289062 L 6.050781 16.289062 Z M 5.050781 20.988281 L 3.5625 20.988281 L 3.988281 19.292969 L 5.453125 19.292969 Z M 8.230469 17.128906 C 8.632812 15.746094 8.894531 14.613281 7.050781 14.613281 L 2 14.613281 L 1.582031 16.285156 L 2.195312 16.285156 L 1.03125 20.960938 L 0.429688 20.960938 L 0 22.671875 L 5.226562 22.671875 C 6.324219 22.671875 7.226562 22.351562 7.589844 20.851562 C 7.957031 19.359375 8.179688 18.71875 6.5625 18.550781 L 6.5625 18.46875 C 6.5625 18.46875 7.828125 18.515625 8.230469 17.128906 "/>
<path style=" stroke:none;fill-rule:nonzero;fill:rgb(13.72549%,12.156863%,12.54902%);fill-opacity:1;" d="M 15.117188 14.609375 L 9.363281 14.609375 L 9.15625 15.851562 L 9.683594 15.851562 L 9.023438 19.167969 L 8.476562 19.167969 L 8.242188 20.417969 L 14.097656 20.417969 L 14.503906 18.441406 L 12.507812 18.441406 L 12.363281 19.183594 L 11.1875 19.183594 L 11.433594 17.988281 L 13.109375 17.988281 L 13.363281 16.910156 L 11.652344 16.910156 L 11.863281 15.871094 L 12.984375 15.871094 L 12.863281 16.539062 L 14.660156 16.539062 Z M 15.117188 14.609375 "/>
<path style=" stroke:none;fill-rule:nonzero;fill:rgb(13.72549%,12.156863%,12.54902%);fill-opacity:1;" d="M 19.066406 14.613281 L 15.804688 14.613281 L 15.566406 15.847656 L 16.0625 15.847656 L 15.429688 19.1875 L 14.878906 19.1875 L 14.628906 20.429688 L 20.480469 20.429688 L 20.960938 18.183594 L 19.007812 18.183594 L 18.761719 19.175781 L 17.613281 19.175781 L 18.320312 15.855469 L 18.835938 15.855469 Z M 19.066406 14.613281 "/>
<path style=" stroke:none;fill-rule:nonzero;fill:rgb(13.72549%,12.156863%,12.54902%);fill-opacity:1;" d="M 27.03125 14.609375 L 24.433594 14.609375 C 24.433594 14.609375 24.039062 14.847656 23.273438 14.847656 C 22.511719 14.847656 22.390625 14.621094 22.390625 14.621094 L 20.070312 14.621094 L 19.671875 16.726562 L 21.234375 16.726562 L 21.429688 15.863281 L 22.191406 15.863281 L 21.554688 19.183594 L 21.042969 19.183594 L 20.808594 20.441406 L 24.058594 20.441406 L 24.316406 19.167969 L 23.757812 19.167969 L 24.433594 15.867188 L 25.210938 15.867188 L 25.046875 16.742188 L 26.621094 16.742188 Z M 27.03125 14.609375 "/>
<path style=" stroke:none;fill-rule:nonzero;fill:rgb(13.72549%,12.156863%,12.54902%);fill-opacity:1;" d="M 8.222656 22.75 C 8.101562 22.75 8.011719 22.714844 7.957031 22.648438 C 7.898438 22.585938 7.882812 22.496094 7.910156 22.382812 L 8.160156 21.300781 C 8.1875 21.1875 8.242188 21.101562 8.332031 21.035156 C 8.417969 20.96875 8.523438 20.933594 8.644531 20.933594 L 9.636719 20.933594 L 9.5 21.53125 L 8.996094 21.53125 L 9.046875 21.3125 L 8.742188 21.3125 L 8.5 22.367188 L 8.800781 22.367188 L 8.875 22.058594 L 9.378906 22.058594 L 9.21875 22.75 Z M 8.222656 22.75 "/>
<path style=" stroke:none;fill-rule:nonzero;fill:rgb(13.72549%,12.156863%,12.54902%);fill-opacity:1;" d="M 10.128906 22.367188 L 10.417969 22.367188 L 10.660156 21.3125 L 10.375 21.3125 Z M 11 22.382812 C 10.972656 22.496094 10.914062 22.582031 10.828125 22.648438 C 10.742188 22.714844 10.636719 22.75 10.515625 22.75 L 9.855469 22.75 C 9.734375 22.75 9.644531 22.714844 9.585938 22.648438 C 9.53125 22.585938 9.515625 22.496094 9.542969 22.382812 L 9.792969 21.300781 C 9.816406 21.1875 9.875 21.101562 9.960938 21.035156 C 10.050781 20.96875 10.152344 20.933594 10.273438 20.933594 L 10.9375 20.933594 C 11.058594 20.933594 11.144531 20.96875 11.203125 21.035156 C 11.257812 21.101562 11.273438 21.1875 11.25 21.300781 Z M 11 22.382812 "/>
<path style=" stroke:none;fill-rule:nonzero;fill:rgb(13.72549%,12.156863%,12.54902%);fill-opacity:1;" d="M 14.1875 22.367188 L 14.097656 22.75 L 13.164062 22.75 L 13.253906 22.367188 L 13.417969 22.367188 L 13.664062 21.3125 L 13.496094 21.3125 L 13.582031 20.933594 L 15.148438 20.933594 L 15.015625 21.515625 L 14.503906 21.515625 L 14.550781 21.3125 L 14.238281 21.3125 L 14.160156 21.652344 L 14.589844 21.652344 L 14.511719 21.996094 L 14.082031 21.996094 L 13.996094 22.367188 Z M 14.1875 22.367188 "/>
<path style=" stroke:none;fill-rule:nonzero;fill:rgb(13.72549%,12.156863%,12.54902%);fill-opacity:1;" d="M 14.800781 22.75 L 14.890625 22.367188 L 15.054688 22.367188 L 15.300781 21.3125 L 15.132812 21.3125 L 15.21875 20.933594 L 16.769531 20.933594 L 16.636719 21.515625 L 16.15625 21.515625 L 16.203125 21.3125 L 15.875 21.3125 L 15.796875 21.652344 L 16.234375 21.652344 L 16.160156 21.984375 L 15.71875 21.984375 L 15.632812 22.367188 L 15.960938 22.367188 L 16.015625 22.128906 L 16.523438 22.128906 L 16.378906 22.75 Z M 14.800781 22.75 "/>
<path style=" stroke:none;fill-rule:nonzero;fill:rgb(13.72549%,12.156863%,12.54902%);fill-opacity:1;" d="M 17.53125 21.667969 L 17.839844 21.667969 L 17.921875 21.3125 L 17.613281 21.3125 Z M 18.183594 20.933594 C 18.304688 20.933594 18.394531 20.96875 18.449219 21.03125 C 18.507812 21.097656 18.523438 21.1875 18.496094 21.300781 L 18.433594 21.582031 C 18.414062 21.652344 18.378906 21.710938 18.320312 21.753906 C 18.261719 21.792969 18.179688 21.820312 18.074219 21.832031 C 18.179688 21.851562 18.25 21.882812 18.285156 21.921875 C 18.320312 21.960938 18.332031 22.019531 18.3125 22.09375 L 18.25 22.367188 L 18.414062 22.367188 L 18.324219 22.75 L 17.835938 22.75 C 17.761719 22.75 17.707031 22.734375 17.679688 22.707031 C 17.648438 22.683594 17.636719 22.640625 17.648438 22.585938 L 17.785156 22.007812 L 17.453125 22.007812 L 17.28125 22.75 L 16.535156 22.75 L 16.621094 22.367188 L 16.789062 22.367188 L 17.03125 21.3125 L 16.863281 21.3125 L 16.953125 20.933594 Z M 18.183594 20.933594 "/>
<path style=" stroke:none;fill-rule:nonzero;fill:rgb(13.72549%,12.156863%,12.54902%);fill-opacity:1;" d="M 18.425781 22.75 L 18.515625 22.367188 L 18.679688 22.367188 L 18.925781 21.3125 L 18.757812 21.3125 L 18.847656 20.933594 L 20.394531 20.933594 L 20.261719 21.515625 L 19.78125 21.515625 L 19.828125 21.3125 L 19.5 21.3125 L 19.421875 21.652344 L 19.859375 21.652344 L 19.785156 21.984375 L 19.34375 21.984375 L 19.257812 22.367188 L 19.585938 22.367188 L 19.640625 22.128906 L 20.148438 22.128906 L 20.003906 22.75 Z M 18.425781 22.75 "/>
<path style=" stroke:none;fill-rule:nonzero;fill:rgb(13.72549%,12.156863%,12.54902%);fill-opacity:1;" d="M 22.613281 22.75 C 22.492188 22.75 22.402344 22.714844 22.34375 22.648438 C 22.289062 22.585938 22.273438 22.496094 22.300781 22.382812 L 22.550781 21.300781 C 22.574219 21.1875 22.632812 21.101562 22.71875 21.035156 C 22.808594 20.96875 22.910156 20.933594 23.03125 20.933594 L 24.027344 20.933594 L 23.886719 21.53125 L 23.382812 21.53125 L 23.433594 21.3125 L 23.132812 21.3125 L 22.886719 22.367188 L 23.191406 22.367188 L 23.261719 22.058594 L 23.765625 22.058594 L 23.605469 22.75 Z M 22.613281 22.75 "/>
<path style=" stroke:none;fill-rule:nonzero;fill:rgb(13.72549%,12.156863%,12.54902%);fill-opacity:1;" d="M 23.765625 22.75 L 23.855469 22.367188 L 24.019531 22.367188 L 24.261719 21.3125 L 24.097656 21.3125 L 24.183594 20.933594 L 25.734375 20.933594 L 25.597656 21.515625 L 25.121094 21.515625 L 25.167969 21.3125 L 24.839844 21.3125 L 24.761719 21.652344 L 25.199219 21.652344 L 25.121094 21.984375 L 24.683594 21.984375 L 24.59375 22.367188 L 24.925781 22.367188 L 24.980469 22.128906 L 25.488281 22.128906 L 25.34375 22.75 Z M 23.765625 22.75 "/>
<path style=" stroke:none;fill-rule:nonzero;fill:rgb(13.72549%,12.156863%,12.54902%);fill-opacity:1;" d="M 12.820312 20.933594 L 12.609375 21.84375 L 12.257812 20.933594 L 11.546875 20.933594 L 11.460938 21.3125 L 11.628906 21.3125 L 11.382812 22.367188 L 11.21875 22.367188 L 11.128906 22.75 L 11.839844 22.75 L 12.050781 21.839844 L 12.398438 22.75 L 13.09375 22.75 L 13.179688 22.367188 L 13.03125 22.367188 L 13.273438 21.3125 L 13.4375 21.3125 L 13.523438 20.933594 Z M 12.820312 20.933594 "/>
<path style=" stroke:none;fill-rule:nonzero;fill:rgb(13.72549%,12.156863%,12.54902%);fill-opacity:1;" d="M 21.792969 20.933594 L 21.582031 21.84375 L 21.230469 20.933594 L 20.519531 20.933594 L 20.433594 21.3125 L 20.601562 21.3125 L 20.355469 22.367188 L 20.191406 22.367188 L 20.101562 22.75 L 20.8125 22.75 L 21.023438 21.839844 L 21.371094 22.75 L 22.066406 22.75 L 22.152344 22.367188 L 22.003906 22.367188 L 22.246094 21.3125 L 22.410156 21.3125 L 22.496094 20.933594 Z M 21.792969 20.933594 "/>
</g>
</svg>
