<?xml version="1.0" encoding="UTF-8"?>
<svg xmlns="http://www.w3.org/2000/svg" xmlns:xlink="http://www.w3.org/1999/xlink" width="35pt" height="25pt" viewBox="0 0 35 25" version="1.1">
<g id="surface1">
<path style=" stroke:none;fill-rule:nonzero;fill:rgb(0%,0%,0%);fill-opacity:1;" d="M 15.140625 0.273438 C 15.21875 1.183594 15.640625 2.328125 16.144531 3.023438 C 16.246094 3.160156 16.316406 3.285156 16.300781 3.296875 C 16.285156 3.3125 16.199219 3.34375 16.105469 3.367188 C 15.050781 3.671875 14.015625 4.90625 13.410156 6.589844 C 13.28125 6.945312 13.277344 6.960938 13.359375 6.898438 C 14.175781 6.304688 15.046875 6.078125 16.484375 6.09375 C 16.886719 6.09375 17.15625 6.105469 17.082031 6.113281 C 15.417969 6.285156 13.929688 7.304688 13.257812 8.734375 C 13.007812 9.273438 13.007812 9.273438 13.265625 9.101562 C 13.84375 8.71875 14.839844 8.492188 15.71875 8.546875 C 15.90625 8.558594 16.066406 8.554688 16.066406 8.535156 C 16.066406 8.472656 16.585938 7.988281 16.839844 7.820312 C 17.296875 7.507812 17.945312 7.226562 18.363281 7.160156 L 18.535156 7.132812 L 18.421875 7.214844 C 18.035156 7.507812 17.621094 7.988281 17.359375 8.457031 L 17.195312 8.738281 L 17.5 8.824219 C 18.296875 9.054688 18.75 9.453125 18.6875 9.878906 C 18.660156 10.113281 18.570312 10.257812 18.316406 10.507812 L 18.085938 10.730469 L 18.429688 10.710938 C 18.8125 10.691406 19.078125 10.589844 19.183594 10.429688 C 19.257812 10.316406 19.308594 10.371094 19.308594 10.582031 C 19.308594 10.769531 19.265625 10.847656 19.027344 11.09375 L 18.835938 11.292969 L 19.160156 11.269531 C 19.570312 11.238281 19.832031 11.15625 20.023438 10.992188 C 20.246094 10.800781 20.335938 10.601562 20.339844 10.296875 C 20.34375 10.15625 20.355469 10.042969 20.367188 10.042969 C 20.421875 10.042969 20.691406 9.730469 20.792969 9.554688 C 20.847656 9.449219 20.886719 9.363281 20.875 9.363281 C 20.859375 9.363281 20.789062 9.398438 20.710938 9.4375 C 20.527344 9.535156 20.292969 9.566406 20.105469 9.519531 C 19.8125 9.4375 19.253906 8.871094 19.035156 8.433594 C 18.816406 7.992188 18.945312 7.714844 19.476562 7.460938 C 19.871094 7.273438 20.171875 7.203125 20.625 7.199219 C 20.964844 7.195312 21.042969 7.207031 21.175781 7.28125 C 21.394531 7.394531 21.667969 7.714844 21.816406 8.027344 C 21.933594 8.265625 21.9375 8.304688 21.902344 8.460938 C 21.878906 8.5625 21.800781 8.769531 21.722656 8.925781 C 21.621094 9.125 21.589844 9.210938 21.628906 9.210938 C 21.742188 9.210938 22.035156 9.042969 22.171875 8.898438 L 22.3125 8.753906 L 22.433594 8.816406 C 22.617188 8.910156 22.757812 8.839844 22.871094 8.589844 C 23.097656 8.101562 23.085938 7.457031 22.855469 7.332031 C 22.789062 7.292969 22.773438 7.304688 22.734375 7.421875 C 22.671875 7.617188 22.632812 7.585938 22.636719 7.335938 C 22.636719 7.21875 22.625 7.074219 22.609375 7.015625 C 22.585938 6.917969 22.589844 6.910156 22.667969 6.933594 C 22.792969 6.96875 22.925781 7.070312 23.050781 7.230469 C 23.160156 7.363281 23.167969 7.394531 23.167969 7.6875 C 23.167969 8.050781 23.230469 8.0625 23.304688 7.710938 C 23.398438 7.273438 23.128906 6.464844 22.742188 6.042969 C 22.617188 5.90625 22.550781 5.792969 22.53125 5.691406 C 22.476562 5.402344 22.28125 4.859375 22.144531 4.636719 C 21.855469 4.164062 21.253906 3.679688 20.363281 3.210938 C 20.144531 3.09375 19.410156 2.75 18.722656 2.449219 C 18.039062 2.144531 17.285156 1.792969 17.046875 1.667969 C 16.1875 1.21875 15.640625 0.789062 15.308594 0.289062 L 15.113281 0 Z M 16.839844 2.261719 C 17.027344 2.347656 17.398438 2.507812 17.667969 2.617188 C 17.9375 2.726562 18.292969 2.882812 18.457031 2.964844 C 18.746094 3.109375 19.320312 3.480469 19.296875 3.507812 C 19.292969 3.515625 19.105469 3.460938 18.890625 3.394531 C 18.671875 3.328125 18.367188 3.246094 18.214844 3.222656 C 17.914062 3.167969 17.03125 3.152344 16.832031 3.199219 C 16.714844 3.226562 16.707031 3.222656 16.539062 2.929688 C 16.339844 2.59375 16.222656 2.300781 16.191406 2.066406 L 16.167969 1.894531 L 16.332031 2 C 16.425781 2.058594 16.652344 2.175781 16.839844 2.261719 Z M 21.328125 5.097656 C 21.582031 5.230469 21.59375 5.257812 21.484375 5.582031 L 21.386719 5.863281 L 21.507812 5.792969 C 21.570312 5.753906 21.660156 5.671875 21.703125 5.601562 C 21.765625 5.507812 21.789062 5.496094 21.808594 5.542969 C 21.867188 5.699219 21.8125 5.84375 21.652344 5.925781 C 21.328125 6.105469 20.972656 5.738281 20.902344 5.152344 L 20.878906 4.917969 L 21.027344 4.96875 C 21.113281 5 21.246094 5.054688 21.328125 5.097656 Z M 21.328125 5.097656 "/>
<path style=" stroke:none;fill-rule:nonzero;fill:rgb(0%,0%,0%);fill-opacity:1;" d="M 6.535156 12.960938 L 6.535156 13.433594 L 7.476562 13.433594 L 7.476562 17.804688 L 8.679688 17.804688 L 8.679688 13.394531 L 9.660156 13.394531 L 9.660156 12.492188 L 6.535156 12.492188 Z M 6.535156 12.960938 "/>
<path style=" stroke:none;fill-rule:nonzero;fill:rgb(0%,0%,0%);fill-opacity:1;" d="M 11.484375 12.523438 C 11.277344 12.578125 11.042969 12.730469 10.9375 12.886719 C 10.703125 13.238281 10.703125 13.242188 10.6875 15.625 L 10.671875 17.804688 L 13.960938 17.804688 L 13.949219 17.339844 L 13.9375 16.878906 L 12.929688 16.867188 L 11.921875 16.863281 L 11.921875 15.617188 L 12.929688 15.609375 L 13.9375 15.597656 L 13.960938 14.675781 L 11.921875 14.675781 L 11.921875 13.394531 L 13.957031 13.394531 L 13.957031 12.492188 L 12.78125 12.496094 C 12.132812 12.5 11.546875 12.507812 11.484375 12.523438 Z M 11.484375 12.523438 "/>
<path style=" stroke:none;fill-rule:nonzero;fill:rgb(0%,0%,0%);fill-opacity:1;" d="M 15.5 13.121094 C 15.5 13.46875 15.519531 13.863281 15.542969 13.996094 C 15.613281 14.449219 15.824219 14.789062 16.183594 15.03125 L 16.363281 15.152344 L 16.199219 15.253906 C 15.84375 15.480469 15.613281 15.84375 15.542969 16.296875 C 15.519531 16.433594 15.5 16.824219 15.5 17.171875 L 15.5 17.804688 L 16.746094 17.804688 L 16.746094 17.300781 C 16.746094 16.707031 16.792969 16.386719 16.914062 16.148438 C 17.007812 15.957031 17.328125 15.582031 17.394531 15.582031 C 17.476562 15.582031 17.808594 15.964844 17.898438 16.160156 C 18.011719 16.414062 18.0625 16.765625 18.0625 17.339844 L 18.0625 17.804688 L 19.3125 17.804688 L 19.300781 17.039062 C 19.285156 16.414062 19.265625 16.234375 19.203125 16.046875 C 19.101562 15.738281 18.929688 15.492188 18.667969 15.300781 L 18.457031 15.144531 L 18.65625 15 C 18.914062 14.820312 19.09375 14.570312 19.199219 14.261719 C 19.269531 14.054688 19.285156 13.898438 19.300781 13.25 L 19.3125 12.492188 L 18.0625 12.492188 L 18.0625 12.949219 C 18.0625 13.527344 18.011719 13.882812 17.898438 14.132812 C 17.808594 14.328125 17.476562 14.714844 17.394531 14.714844 C 17.328125 14.714844 17.007812 14.335938 16.914062 14.144531 C 16.792969 13.90625 16.746094 13.585938 16.746094 12.988281 L 16.746094 12.492188 L 15.5 12.492188 Z M 15.5 13.121094 "/>
<path style=" stroke:none;fill-rule:nonzero;fill:rgb(0%,0%,0%);fill-opacity:1;" d="M 21.546875 12.558594 C 21.261719 12.65625 21.128906 12.769531 21.003906 13.03125 C 20.835938 13.363281 20.816406 13.707031 20.8125 15.90625 L 20.8125 17.804688 L 22.058594 17.804688 L 22.058594 16.183594 L 23.414062 16.183594 L 23.414062 17.804688 L 24.65625 17.804688 L 24.65625 15.832031 C 24.65625 14.679688 24.640625 13.734375 24.617188 13.546875 C 24.546875 12.988281 24.335938 12.683594 23.933594 12.550781 C 23.648438 12.460938 21.820312 12.464844 21.546875 12.558594 Z M 23.414062 14.335938 L 23.414062 15.277344 L 22.058594 15.277344 L 22.058594 13.394531 L 23.414062 13.394531 Z M 23.414062 14.335938 "/>
<path style=" stroke:none;fill-rule:nonzero;fill:rgb(0%,0%,0%);fill-opacity:1;" d="M 26.621094 12.535156 C 26.417969 12.59375 26.328125 12.671875 26.242188 12.867188 C 26.121094 13.144531 26.078125 13.59375 26.097656 14.335938 C 26.113281 14.984375 26.117188 15.007812 26.222656 15.222656 C 26.398438 15.578125 26.464844 15.59375 27.417969 15.613281 L 28.199219 15.625 L 28.199219 16.863281 L 26.125 16.863281 L 26.125 17.804688 L 27.417969 17.804688 C 28.167969 17.804688 28.777344 17.785156 28.878906 17.761719 C 28.972656 17.738281 29.09375 17.679688 29.152344 17.621094 C 29.332031 17.453125 29.375 17.226562 29.394531 16.371094 C 29.417969 15.269531 29.351562 14.972656 29.023438 14.789062 C 28.867188 14.699219 28.824219 14.695312 28.117188 14.683594 L 27.371094 14.667969 L 27.371094 13.394531 L 29.253906 13.394531 L 29.253906 12.492188 L 28.003906 12.496094 C 27.3125 12.496094 26.691406 12.511719 26.621094 12.535156 Z M 26.621094 12.535156 "/>
<path style=" stroke:none;fill-rule:nonzero;fill:rgb(0%,0%,0%);fill-opacity:1;" d="M 7.269531 19.636719 C 7.058594 19.660156 6.855469 19.734375 6.769531 19.8125 C 6.722656 19.851562 6.648438 19.980469 6.601562 20.097656 C 6.527344 20.289062 6.519531 20.390625 6.503906 21.164062 C 6.488281 22.109375 6.519531 22.324219 6.710938 22.554688 C 6.890625 22.765625 6.992188 22.789062 7.902344 22.808594 L 8.71875 22.820312 L 8.71875 24.058594 L 6.535156 24.058594 L 6.535156 25 L 7.890625 25 C 9.421875 25 9.5625 24.984375 9.734375 24.792969 C 9.910156 24.589844 9.933594 24.449219 9.949219 23.527344 C 9.972656 22.363281 9.914062 22.117188 9.554688 21.941406 C 9.390625 21.863281 9.320312 21.855469 8.597656 21.84375 L 7.816406 21.828125 L 7.816406 20.589844 L 9.8125 20.589844 L 9.8125 19.613281 L 8.597656 19.617188 C 7.925781 19.621094 7.332031 19.628906 7.269531 19.636719 Z M 7.269531 19.636719 "/>
<path style=" stroke:none;fill-rule:nonzero;fill:rgb(0%,0%,0%);fill-opacity:1;" d="M 11.167969 20.101562 L 11.167969 20.589844 L 12.296875 20.589844 L 12.296875 25 L 13.542969 25 L 13.542969 20.589844 L 14.671875 20.589844 L 14.671875 19.613281 L 11.167969 19.613281 Z M 11.167969 20.101562 "/>
<path style=" stroke:none;fill-rule:nonzero;fill:rgb(0%,0%,0%);fill-opacity:1;" d="M 16.847656 19.648438 C 16.304688 19.742188 16.03125 20.078125 15.953125 20.765625 C 15.933594 20.949219 15.914062 21.96875 15.914062 23.046875 L 15.914062 25 L 17.195312 25 L 17.195312 23.378906 L 17.960938 23.386719 L 18.722656 23.398438 L 18.734375 24.199219 L 18.742188 25 L 19.988281 25 L 19.976562 22.75 C 19.960938 20.238281 19.96875 20.3125 19.695312 19.992188 C 19.53125 19.800781 19.355469 19.707031 19.0625 19.652344 C 18.808594 19.605469 17.121094 19.605469 16.847656 19.648438 Z M 18.742188 21.515625 L 18.742188 22.4375 L 17.195312 22.4375 L 17.195312 20.589844 L 18.742188 20.589844 Z M 18.742188 21.515625 "/>
<path style=" stroke:none;fill-rule:nonzero;fill:rgb(0%,0%,0%);fill-opacity:1;" d="M 21.292969 19.636719 C 21.277344 19.648438 21.265625 19.871094 21.265625 20.128906 L 21.265625 20.589844 L 22.359375 20.589844 L 22.359375 25 L 23.601562 25 L 23.601562 20.589844 L 24.695312 20.589844 L 24.695312 19.613281 L 23.007812 19.613281 C 22.074219 19.613281 21.304688 19.625 21.292969 19.636719 Z M 21.292969 19.636719 "/>
<path style=" stroke:none;fill-rule:nonzero;fill:rgb(0%,0%,0%);fill-opacity:1;" d="M 26.753906 19.652344 C 26.34375 19.722656 26.046875 19.976562 25.910156 20.375 C 25.855469 20.554688 25.84375 20.804688 25.832031 22.785156 L 25.820312 25 L 29.371094 25 L 29.347656 24.039062 L 28.230469 24.027344 L 27.105469 24.019531 L 27.105469 22.816406 L 28.230469 22.808594 L 29.347656 22.796875 L 29.359375 22.3125 L 29.371094 21.835938 L 27.105469 21.835938 L 27.105469 20.589844 L 29.367188 20.589844 L 29.367188 19.613281 L 28.152344 19.617188 C 27.484375 19.621094 26.855469 19.632812 26.753906 19.652344 Z M 26.753906 19.652344 "/>
</g>
</svg>
