<?xml version="1.0" encoding="UTF-8"?>
<svg xmlns="http://www.w3.org/2000/svg" xmlns:xlink="http://www.w3.org/1999/xlink" width="35pt" height="25pt" viewBox="0 0 35 25" version="1.1">
<g id="surface1">
<path style=" stroke:none;fill-rule:evenodd;fill:rgb(100%,100%,100%);fill-opacity:1;" d="M 5.25 25 L 30.25 25 L 30.25 0 L 5.25 0 Z M 5.25 25 "/>
<path style=" stroke:none;fill-rule:nonzero;fill:rgb(13.72549%,12.156863%,12.54902%);fill-opacity:1;" d="M 26.320312 7.496094 L 24.191406 7.804688 C 24.414062 7.355469 24.492188 6.992188 24.523438 6.6875 L 24.566406 6.296875 L 24.136719 6.390625 L 24.132812 6.390625 C 23.339844 6.570312 21.101562 6.769531 19.324219 6.859375 L 19.324219 3.46875 C 19.324219 3.46875 19.25 3.226562 19.21875 3.183594 C 19.15625 3.070312 19.066406 2.96875 18.957031 2.878906 C 19.191406 2.6875 19.324219 2.441406 19.324219 2.171875 C 19.324219 1.574219 18.652344 1.101562 17.789062 1.101562 C 16.929688 1.101562 16.253906 1.574219 16.253906 2.171875 C 16.253906 2.441406 16.390625 2.6875 16.625 2.878906 C 16.515625 2.96875 16.425781 3.070312 16.363281 3.183594 C 16.316406 3.246094 16.253906 3.46875 16.253906 3.46875 L 16.253906 6.855469 C 14.496094 6.761719 12.335938 6.566406 11.5625 6.386719 C 11.558594 6.386719 11.546875 6.382812 11.546875 6.382812 L 11.527344 6.382812 L 11.152344 6.289062 L 11.179688 6.6875 C 11.210938 6.996094 11.289062 7.359375 11.515625 7.808594 L 9.34375 7.496094 L 9.34375 18.367188 L 16.292969 18.367188 L 16.292969 21.421875 C 16.292969 22.234375 16.984375 23.097656 17.566406 23.679688 L 17.777344 23.898438 L 17.96875 23.679688 C 18.550781 23.097656 19.242188 22.234375 19.242188 21.421875 L 19.242188 18.367188 L 26.320312 18.367188 L 26.320312 7.496094 "/>
<path style=" stroke:none;fill-rule:nonzero;fill:rgb(100%,100%,100%);fill-opacity:1;" d="M 17.769531 8.195312 C 17.40625 8.207031 16.996094 8.234375 16.578125 8.277344 L 16.578125 9.0625 L 17.769531 9.0625 L 17.769531 8.195312 "/>
<path style=" stroke:none;fill-rule:nonzero;fill:rgb(100%,100%,100%);fill-opacity:1;" d="M 16.578125 21.421875 C 16.578125 22.042969 17.078125 22.789062 17.769531 23.476562 L 17.769531 9.441406 L 16.578125 9.441406 L 16.578125 21.421875 "/>
<path style=" stroke:none;fill-rule:nonzero;fill:rgb(70.980392%,72.54902%,76.862745%);fill-opacity:1;" d="M 17.769531 23.476562 C 18.457031 22.789062 18.957031 22.042969 18.957031 21.421875 L 18.957031 9.441406 L 17.769531 9.441406 L 17.769531 23.476562 "/>
<path style=" stroke:none;fill-rule:nonzero;fill:rgb(70.980392%,72.54902%,76.862745%);fill-opacity:1;" d="M 18.957031 8.261719 C 18.566406 8.222656 18.183594 8.199219 17.851562 8.195312 C 17.824219 8.195312 17.796875 8.195312 17.769531 8.195312 L 17.769531 9.0625 L 18.957031 9.0625 L 18.957031 8.261719 "/>
<path style=" stroke:none;fill-rule:nonzero;fill:rgb(68.235294%,11.372549%,30.196078%);fill-opacity:1;" d="M 23.992188 8.160156 C 23.671875 8.675781 23.164062 9.292969 22.34375 10.042969 L 21.859375 10.488281 L 21.867188 9.828125 L 21.867188 9.738281 C 21.867188 9.738281 21.878906 9.019531 21.882812 8.78125 C 21.757812 8.726562 21.542969 8.667969 21.269531 8.609375 C 20.679688 8.785156 20.246094 9.027344 19.953125 9.335938 L 15.714844 9.335938 C 15.421875 9.027344 14.992188 8.789062 14.410156 8.613281 C 14.148438 8.671875 13.9375 8.730469 13.820312 8.78125 C 13.824219 9.019531 13.84375 10.417969 13.84375 10.417969 L 13.355469 10.042969 C 12.542969 9.296875 12.03125 8.679688 11.714844 8.164062 L 9.664062 7.867188 L 9.664062 18.042969 L 26 18.042969 L 26 7.867188 L 23.992188 8.160156 "/>
<path style=" stroke:none;fill-rule:nonzero;fill:rgb(100%,100%,100%);fill-opacity:1;" d="M 25.464844 8.195312 L 23.808594 8.4375 C 23.484375 8.894531 23.019531 9.425781 22.34375 10.042969 L 21.859375 10.488281 L 21.867188 9.828125 L 21.867188 9.738281 C 21.867188 9.738281 21.878906 9.019531 21.882812 8.78125 C 21.847656 8.765625 21.808594 8.75 21.765625 8.738281 C 20.933594 8.921875 20.378906 9.199219 20.0625 9.585938 C 19.835938 9.585938 15.828125 9.585938 15.605469 9.585938 C 15.292969 9.203125 14.742188 8.925781 13.921875 8.742188 C 13.882812 8.753906 13.847656 8.765625 13.820312 8.78125 C 13.824219 9.019531 13.84375 10.417969 13.84375 10.417969 L 13.355469 10.042969 C 12.683594 9.425781 12.21875 8.898438 11.898438 8.445312 L 9.914062 8.15625 L 9.914062 17.796875 L 25.75 17.796875 L 25.75 8.15625 L 25.464844 8.195312 "/>
<path style=" stroke:none;fill-rule:nonzero;fill:rgb(54.509804%,58.431373%,62.352941%);fill-opacity:1;" d="M 23.597656 8.722656 C 23.292969 9.109375 22.886719 9.546875 22.34375 10.042969 L 21.859375 10.488281 L 21.867188 9.828125 L 21.867188 9.738281 C 21.867188 9.738281 21.875 9.277344 21.878906 8.972656 L 21.824219 8.980469 C 20.859375 9.191406 20.398438 9.515625 20.183594 9.835938 L 15.484375 9.835938 C 15.269531 9.515625 14.804688 9.191406 13.839844 8.980469 L 13.824219 8.976562 C 13.828125 9.433594 13.84375 10.417969 13.84375 10.417969 L 13.355469 10.042969 C 12.820312 9.550781 12.414062 9.113281 12.109375 8.726562 L 10.164062 8.445312 L 10.164062 17.546875 L 25.5 17.546875 L 25.5 8.445312 L 23.597656 8.722656 "/>
<path style=" stroke:none;fill-rule:nonzero;fill:rgb(70.980392%,72.54902%,76.862745%);fill-opacity:1;" d="M 17.789062 2.449219 C 17.40625 2.449219 17.09375 2.324219 17.09375 2.171875 C 17.09375 2.019531 17.40625 1.894531 17.789062 1.894531 C 18.175781 1.894531 18.488281 2.019531 18.488281 2.171875 C 18.488281 2.324219 18.175781 2.449219 17.789062 2.449219 Z M 19.027344 3.46875 C 18.96875 3.210938 18.710938 2.988281 18.347656 2.875 C 18.757812 2.746094 19.039062 2.480469 19.039062 2.171875 C 19.039062 1.738281 18.480469 1.386719 17.789062 1.386719 C 17.101562 1.386719 16.542969 1.738281 16.542969 2.171875 C 16.542969 2.480469 16.824219 2.746094 17.230469 2.875 C 16.871094 2.988281 16.609375 3.210938 16.554688 3.46875 L 16.542969 3.542969 L 16.542969 6.867188 C 16.683594 6.875 16.820312 6.882812 16.953125 6.886719 L 16.953125 3.710938 C 16.953125 3.703125 16.953125 3.695312 16.953125 3.691406 C 16.953125 3.375 17.328125 3.121094 17.792969 3.121094 C 18.257812 3.121094 18.632812 3.375 18.632812 3.691406 C 18.632812 3.695312 18.628906 3.703125 18.628906 3.710938 L 18.632812 3.710938 L 18.632812 6.890625 C 18.765625 6.886719 18.898438 6.878906 19.039062 6.875 L 19.039062 3.542969 L 19.027344 3.46875 "/>
<path style=" stroke:none;fill-rule:nonzero;fill:rgb(68.235294%,11.372549%,30.196078%);fill-opacity:1;" d="M 17.398438 6.75 L 17.113281 6.75 L 17.113281 6.890625 C 17.210938 6.894531 17.304688 6.898438 17.398438 6.902344 L 17.398438 6.75 "/>
<path style=" stroke:none;fill-rule:nonzero;fill:rgb(60%,13.333333%,25.490196%);fill-opacity:1;" d="M 17.398438 6.75 L 17.398438 6.902344 C 17.558594 6.90625 17.710938 6.90625 17.847656 6.910156 C 18.035156 6.90625 18.246094 6.902344 18.46875 6.894531 L 18.46875 6.75 L 17.398438 6.75 "/>
<path style=" stroke:none;fill-rule:nonzero;fill:rgb(68.235294%,11.372549%,30.196078%);fill-opacity:1;" d="M 17.9375 2.128906 C 18.09375 2.128906 18.230469 2.152344 18.332031 2.183594 C 18.332031 2.179688 18.332031 2.175781 18.332031 2.175781 C 18.332031 2.078125 18.089844 2 17.789062 2 C 17.492188 2 17.25 2.078125 17.25 2.175781 C 17.25 2.222656 17.304688 2.261719 17.398438 2.296875 C 17.414062 2.203125 17.652344 2.128906 17.9375 2.128906 "/>
<path style=" stroke:none;fill-rule:nonzero;fill:rgb(64.313725%,10.588235%,28.235294%);fill-opacity:1;" d="M 18.332031 2.183594 C 18.230469 2.152344 18.09375 2.128906 17.9375 2.128906 C 17.652344 2.128906 17.414062 2.203125 17.398438 2.296875 C 17.496094 2.328125 17.636719 2.347656 17.789062 2.347656 C 18.078125 2.347656 18.3125 2.277344 18.332031 2.183594 "/>
<path style=" stroke:none;fill-rule:nonzero;fill:rgb(68.235294%,11.372549%,30.196078%);fill-opacity:1;" d="M 18.074219 3.433594 C 18.207031 3.433594 18.328125 3.457031 18.429688 3.496094 C 18.339844 3.324219 18.085938 3.269531 17.789062 3.269531 C 17.417969 3.269531 17.113281 3.398438 17.113281 3.640625 C 17.113281 3.644531 17.113281 3.644531 17.113281 3.644531 L 17.113281 3.75 L 17.425781 3.75 C 17.507812 3.566406 17.769531 3.433594 18.074219 3.433594 "/>
<path style=" stroke:none;fill-rule:nonzero;fill:rgb(60%,13.333333%,25.490196%);fill-opacity:1;" d="M 17.398438 6.535156 L 18.46875 6.535156 L 18.46875 6.050781 L 17.398438 6.050781 L 17.398438 6.535156 "/>
<path style=" stroke:none;fill-rule:nonzero;fill:rgb(60%,13.333333%,25.490196%);fill-opacity:1;" d="M 17.398438 5.839844 L 18.46875 5.839844 L 18.46875 5.355469 L 17.398438 5.355469 L 17.398438 5.839844 "/>
<path style=" stroke:none;fill-rule:nonzero;fill:rgb(60%,13.333333%,25.490196%);fill-opacity:1;" d="M 17.398438 3.964844 L 17.398438 4.445312 L 18.46875 4.445312 L 18.46875 3.964844 L 17.398438 3.964844 "/>
<path style=" stroke:none;fill-rule:nonzero;fill:rgb(60%,13.333333%,25.490196%);fill-opacity:1;" d="M 17.398438 5.140625 L 18.46875 5.140625 L 18.46875 4.660156 L 17.398438 4.660156 L 17.398438 5.140625 "/>
<path style=" stroke:none;fill-rule:nonzero;fill:rgb(60%,13.333333%,25.490196%);fill-opacity:1;" d="M 17.425781 3.75 L 18.46875 3.75 L 18.46875 3.640625 C 18.46875 3.589844 18.453125 3.542969 18.429688 3.496094 C 18.328125 3.457031 18.207031 3.433594 18.074219 3.433594 C 17.769531 3.433594 17.507812 3.566406 17.425781 3.75 "/>
<path style=" stroke:none;fill-rule:nonzero;fill:rgb(68.235294%,11.372549%,30.196078%);fill-opacity:1;" d="M 18.46875 3.964844 L 17.113281 3.964844 L 17.113281 4.445312 L 17.398438 4.445312 L 17.398438 4.0625 L 18.46875 4.0625 L 18.46875 3.964844 "/>
<path style=" stroke:none;fill-rule:nonzero;fill:rgb(68.235294%,11.372549%,30.196078%);fill-opacity:1;" d="M 18.46875 4.660156 L 17.113281 4.660156 L 17.113281 5.140625 L 17.398438 5.140625 L 17.398438 4.757812 L 18.46875 4.757812 L 18.46875 4.660156 "/>
<path style=" stroke:none;fill-rule:nonzero;fill:rgb(68.235294%,11.372549%,30.196078%);fill-opacity:1;" d="M 18.46875 5.355469 L 17.113281 5.355469 L 17.113281 5.839844 L 17.398438 5.839844 L 17.398438 5.453125 L 18.46875 5.453125 L 18.46875 5.355469 "/>
<path style=" stroke:none;fill-rule:nonzero;fill:rgb(68.235294%,11.372549%,30.196078%);fill-opacity:1;" d="M 18.46875 6.050781 L 17.113281 6.050781 L 17.113281 6.535156 L 17.398438 6.535156 L 17.398438 6.148438 L 18.46875 6.148438 L 18.46875 6.050781 "/>
<path style=" stroke:none;fill-rule:nonzero;fill:rgb(70.980392%,72.54902%,76.862745%);fill-opacity:1;" d="M 13.515625 9.832031 L 13.511719 9.800781 C 13.167969 9.355469 12.691406 8.363281 12.761719 8.035156 C 12.222656 7.597656 11.664062 7.089844 11.441406 6.664062 C 11.4375 6.660156 11.429688 6.660156 11.425781 6.660156 C 11.496094 7.335938 11.835938 8.296875 13.515625 9.832031 "/>
<path style=" stroke:none;fill-rule:nonzero;fill:rgb(100%,100%,100%);fill-opacity:1;" d="M 13.511719 9.800781 L 13.496094 8.621094 C 13.5 8.617188 13.507812 8.613281 13.511719 8.609375 C 13.292969 8.449219 13.027344 8.25 12.761719 8.035156 C 12.691406 8.363281 13.167969 9.355469 13.511719 9.800781 "/>
<path style=" stroke:none;fill-rule:nonzero;fill:rgb(100%,100%,100%);fill-opacity:1;" d="M 17.816406 7.195312 C 16.035156 7.183594 12.476562 6.90625 11.441406 6.664062 C 11.664062 7.089844 12.222656 7.597656 12.761719 8.035156 C 12.765625 8.023438 12.765625 8.011719 12.769531 8.003906 C 13.820312 7.695312 16.742188 7.53125 17.816406 7.507812 C 18.886719 7.53125 21.808594 7.695312 22.859375 8.003906 C 22.863281 8.011719 22.867188 8.023438 22.871094 8.035156 C 23.410156 7.597656 23.964844 7.089844 24.1875 6.664062 C 23.152344 6.90625 19.59375 7.183594 17.816406 7.195312 "/>
<path style=" stroke:none;fill-rule:nonzero;fill:rgb(70.980392%,72.54902%,76.862745%);fill-opacity:1;" d="M 22.871094 8.035156 C 22.867188 8.023438 22.863281 8.011719 22.859375 8.003906 C 21.84375 7.707031 19.070312 7.542969 17.921875 7.511719 L 17.921875 7.503906 C 17.890625 7.503906 17.851562 7.507812 17.816406 7.507812 C 17.777344 7.507812 17.742188 7.503906 17.707031 7.503906 L 17.707031 7.511719 C 16.558594 7.542969 13.789062 7.707031 12.769531 8.003906 C 12.765625 8.011719 12.765625 8.023438 12.761719 8.035156 C 13.027344 8.25 13.292969 8.449219 13.511719 8.609375 C 13.878906 8.300781 16.472656 7.929688 17.816406 7.910156 C 19.15625 7.929688 21.753906 8.300781 22.121094 8.609375 C 22.335938 8.449219 22.601562 8.25 22.871094 8.035156 "/>
<path style=" stroke:none;fill-rule:nonzero;fill:rgb(70.980392%,72.54902%,76.862745%);fill-opacity:1;" d="M 22.117188 9.832031 L 22.117188 9.800781 C 22.460938 9.355469 22.9375 8.363281 22.871094 8.035156 C 23.410156 7.597656 23.964844 7.089844 24.1875 6.664062 C 24.191406 6.660156 24.199219 6.660156 24.203125 6.660156 C 24.132812 7.335938 23.792969 8.296875 22.117188 9.832031 "/>
<path style=" stroke:none;fill-rule:nonzero;fill:rgb(100%,100%,100%);fill-opacity:1;" d="M 22.117188 9.800781 L 22.132812 8.621094 C 22.128906 8.617188 22.125 8.613281 22.121094 8.609375 C 22.335938 8.449219 22.601562 8.25 22.871094 8.035156 C 22.9375 8.363281 22.460938 9.355469 22.117188 9.800781 "/>
<path style=" stroke:none;fill-rule:nonzero;fill:rgb(13.72549%,12.156863%,12.54902%);fill-opacity:1;" d="M 18.730469 10.867188 L 18.734375 10.867188 C 18.332031 10.867188 18.007812 11.191406 18.007812 11.59375 L 18.007812 15.523438 L 20.015625 15.523438 C 20.417969 15.523438 20.742188 15.195312 20.742188 14.792969 L 20.742188 10.808594 L 20.523438 10.8125 Z M 17.640625 13.011719 L 17.640625 11.570312 C 17.640625 11.378906 17.566406 11.195312 17.429688 11.058594 C 17.289062 10.917969 17.109375 10.84375 16.914062 10.84375 L 16.925781 10.84375 L 14.90625 10.742188 L 14.90625 15.5 L 16.316406 15.5 L 16.316406 15.285156 C 16.316406 15.289062 16.355469 15.5 16.355469 15.5 L 17.769531 15.5 C 17.769531 15.5 17.464844 13.726562 17.429688 13.519531 C 17.5625 13.386719 17.640625 13.207031 17.640625 13.011719 Z M 24.558594 9.625 L 23.085938 9.859375 C 23.085938 9.859375 22.941406 10.417969 22.832031 10.835938 C 22.734375 10.476562 22.59375 9.941406 22.59375 9.941406 L 20.960938 10.070312 C 20.960938 10.070312 21.957031 13.648438 21.972656 13.707031 C 21.972656 13.761719 21.972656 16.542969 21.972656 16.542969 L 23.597656 16.703125 C 23.597656 16.703125 23.597656 13.976562 23.597656 13.917969 C 23.617188 13.859375 24.898438 9.570312 24.898438 9.570312 Z M 11.117188 9.828125 L 11.117188 11.238281 C 11.117188 11.238281 11.769531 11.316406 12.003906 11.34375 C 12.003906 11.695312 12.003906 16.703125 12.003906 16.703125 L 13.628906 16.542969 C 13.628906 16.542969 13.628906 11.976562 13.628906 11.539062 C 13.878906 11.566406 14.488281 11.640625 14.488281 11.640625 L 14.488281 9.992188 L 11.121094 9.589844 L 11.117188 9.828125 "/>
<path style="fill:none;stroke-width:27.5198;stroke-linecap:butt;stroke-linejoin:miter;stroke:rgb(13.72549%,12.156863%,12.54902%);stroke-opacity:1;stroke-miterlimit:2.6131;" d="M 1039.376434 1089.673604 L 1039.677616 1089.673604 C 1008.655949 1089.673604 983.657906 1064.675562 983.657906 1033.653895 L 983.657906 730.665574 L 1138.46506 730.665574 C 1169.486727 730.665574 1194.484769 755.964798 1194.484769 786.986465 L 1194.484769 1094.191322 L 1177.61862 1093.890141 Z M 955.34687 924.325107 L 955.34687 1035.460982 C 955.34687 1050.218862 949.624427 1064.37438 939.083084 1074.915723 C 928.240559 1085.758248 914.386223 1091.480691 899.327161 1091.480691 L 900.230705 1091.480691 L 744.520007 1099.311403 L 744.520007 732.472662 L 853.246433 732.472662 L 853.246433 749.03763 C 853.246433 748.736448 856.258245 732.472662 856.258245 732.472662 L 965.285851 732.472662 C 965.285851 732.472662 941.793715 869.208941 939.083084 885.171547 C 949.323246 895.411709 955.34687 909.266045 955.34687 924.325107 Z M 1488.738834 1185.449236 L 1375.193509 1167.378362 C 1375.193509 1167.378362 1364.049803 1124.309446 1355.616729 1092.083054 C 1348.087198 1119.791727 1337.244674 1161.053556 1337.244674 1161.053556 L 1211.350918 1151.114575 C 1211.350918 1151.114575 1288.152133 875.232566 1289.356858 870.714848 C 1289.356858 866.49831 1289.356858 652.057273 1289.356858 652.057273 L 1414.64825 639.708842 C 1414.64825 639.708842 1414.64825 849.933343 1414.64825 854.451061 C 1416.154157 858.96878 1514.941601 1189.665773 1514.941601 1189.665773 Z M 452.374212 1169.787812 L 452.374212 1061.061387 C 452.374212 1061.061387 502.671478 1055.037762 520.742352 1052.929493 C 520.742352 1025.823183 520.742352 639.708842 520.742352 639.708842 L 646.033744 652.057273 C 646.033744 652.057273 646.033744 1004.138134 646.033744 1037.870432 C 665.309343 1035.762163 712.293616 1030.03972 712.293616 1030.03972 L 712.293616 1157.1382 L 452.675393 1188.159867 Z M 452.374212 1169.787812 " transform="matrix(0.0129698,0,0,-0.0129698,5.25,24.999999)"/>
<path style=" stroke:none;fill-rule:nonzero;fill:rgb(43.529412%,47.45098%,50.196078%);fill-opacity:1;" d="M 25.53125 8.996094 L 25.5 9 L 25.5 9.09375 C 25.519531 9.03125 25.53125 8.996094 25.53125 8.996094 "/>
<path style=" stroke:none;fill-rule:nonzero;fill:rgb(43.529412%,47.45098%,50.196078%);fill-opacity:1;" d="M 10.640625 9.378906 L 10.628906 9.824219 L 10.628906 11.648438 C 10.628906 11.648438 11.257812 11.722656 11.515625 11.753906 C 11.515625 12.214844 11.515625 17.214844 11.515625 17.214844 L 14.070312 16.960938 C 14.070312 16.960938 14.070312 12.625 14.070312 12.0625 C 14.15625 12.070312 14.285156 12.085938 14.417969 12.101562 L 14.417969 15.964844 C 14.417969 15.964844 17.050781 15.964844 17.519531 15.964844 C 17.519531 15.96875 17.519531 15.984375 17.519531 15.984375 L 19.992188 15.984375 C 20.648438 15.984375 21.183594 15.449219 21.183594 14.792969 L 21.183594 12.6875 C 21.351562 13.289062 21.480469 13.746094 21.488281 13.769531 C 21.488281 13.84375 21.488281 16.960938 21.488281 16.960938 L 24.039062 17.214844 C 24.039062 17.214844 24.039062 14.066406 24.039062 13.984375 C 24.0625 13.914062 25.292969 9.789062 25.5 9.09375 L 25.5 9 L 25.082031 9.066406 L 24.800781 9.113281 L 23.003906 9.398438 C 22.808594 9.601562 22.59375 9.816406 22.34375 10.042969 L 21.859375 10.488281 L 21.867188 9.828125 L 21.867188 9.738281 C 21.867188 9.738281 21.871094 9.652344 21.871094 9.53125 C 21.191406 9.585938 20.339844 9.652344 20.339844 9.652344 C 20.339844 9.652344 20.417969 9.933594 20.53125 10.347656 L 18.691406 10.402344 L 18.691406 10.40625 C 18.339844 10.410156 18.027344 10.574219 17.8125 10.824219 C 17.785156 10.792969 17.761719 10.757812 17.734375 10.730469 C 17.515625 10.511719 17.226562 10.386719 16.917969 10.382812 L 16.925781 10.378906 L 14.929688 10.28125 L 14.929688 9.582031 L 13.828125 9.449219 C 13.835938 9.90625 13.84375 10.417969 13.84375 10.417969 L 13.355469 10.042969 C 13.070312 9.78125 12.820312 9.535156 12.605469 9.300781 L 10.652344 9.066406 L 10.640625 9.378906 "/>
<path style=" stroke:none;fill-rule:nonzero;fill:rgb(13.72549%,12.156863%,12.54902%);fill-opacity:1;" d="M 18.703125 10.6875 L 18.714844 10.6875 C 18.214844 10.6875 17.804688 11.09375 17.804688 11.59375 L 17.804688 14.796875 C 17.714844 14.253906 17.609375 13.648438 17.597656 13.570312 C 17.722656 13.410156 17.796875 13.214844 17.796875 13.011719 L 17.796875 11.570312 C 17.796875 11.328125 17.703125 11.101562 17.53125 10.929688 C 17.367188 10.765625 17.144531 10.671875 16.910156 10.667969 C 16.910156 10.667969 16.910156 10.664062 16.910156 10.664062 L 14.703125 10.554688 L 14.703125 15.679688 L 17.804688 15.679688 L 17.804688 15.699219 L 19.992188 15.699219 C 20.492188 15.699219 20.898438 15.292969 20.898438 14.792969 L 20.898438 10.621094 L 20.714844 10.628906 Z M 24.847656 9.394531 L 24.511719 9.449219 L 22.921875 9.703125 C 22.921875 9.703125 22.84375 9.992188 22.808594 10.132812 C 22.785156 10.042969 22.707031 9.75 22.707031 9.75 L 20.707031 9.910156 C 20.707031 9.910156 21.757812 13.683594 21.773438 13.730469 C 21.773438 13.777344 21.773438 16.703125 21.773438 16.703125 L 23.753906 16.898438 C 23.753906 16.898438 23.753906 13.996094 23.753906 13.941406 C 23.769531 13.894531 25.128906 9.347656 25.128906 9.347656 Z M 10.921875 9.582031 L 10.914062 9.828125 L 10.914062 11.394531 C 10.914062 11.394531 11.589844 11.476562 11.800781 11.5 C 11.800781 11.800781 11.800781 16.898438 11.800781 16.898438 L 13.785156 16.703125 C 13.785156 16.703125 13.785156 12.109375 13.785156 11.738281 C 14.019531 11.769531 14.644531 11.84375 14.644531 11.84375 L 14.644531 9.835938 L 10.929688 9.390625 L 10.921875 9.582031 "/>
<path style=" stroke:none;fill-rule:nonzero;fill:rgb(68.235294%,11.372549%,30.196078%);fill-opacity:1;" d="M 18.730469 10.867188 L 18.734375 10.867188 C 18.332031 10.867188 18.007812 11.191406 18.007812 11.59375 L 18.007812 15.523438 L 20.015625 15.523438 C 20.417969 15.523438 20.742188 15.195312 20.742188 14.792969 L 20.742188 10.808594 L 20.523438 10.8125 Z M 17.640625 13.011719 L 17.640625 11.570312 C 17.640625 11.378906 17.566406 11.195312 17.429688 11.058594 C 17.289062 10.917969 17.109375 10.84375 16.914062 10.84375 L 16.925781 10.84375 L 14.90625 10.742188 L 14.90625 15.5 L 16.316406 15.5 L 16.316406 15.285156 C 16.316406 15.289062 16.355469 15.5 16.355469 15.5 L 17.769531 15.5 C 17.769531 15.5 17.464844 13.726562 17.429688 13.519531 C 17.5625 13.386719 17.640625 13.207031 17.640625 13.011719 Z M 24.558594 9.625 L 23.085938 9.859375 C 23.085938 9.859375 22.941406 10.417969 22.832031 10.835938 C 22.734375 10.476562 22.59375 9.941406 22.59375 9.941406 L 20.960938 10.070312 C 20.960938 10.070312 21.957031 13.648438 21.972656 13.707031 C 21.972656 13.761719 21.972656 16.542969 21.972656 16.542969 L 23.597656 16.703125 C 23.597656 16.703125 23.597656 13.976562 23.597656 13.917969 C 23.617188 13.859375 24.898438 9.570312 24.898438 9.570312 Z M 11.117188 9.828125 L 11.117188 11.238281 C 11.117188 11.238281 11.769531 11.316406 12.003906 11.34375 C 12.003906 11.695312 12.003906 16.703125 12.003906 16.703125 L 13.628906 16.542969 C 13.628906 16.542969 13.628906 11.976562 13.628906 11.539062 C 13.878906 11.566406 14.488281 11.640625 14.488281 11.640625 L 14.488281 9.992188 L 11.121094 9.589844 L 11.117188 9.828125 "/>
<path style=" stroke:none;fill-rule:nonzero;fill:rgb(100%,100%,100%);fill-opacity:1;" d="M 14.277344 10.183594 L 12.78125 10.003906 L 11.339844 9.832031 L 11.332031 9.828125 L 11.332031 11.042969 L 11.824219 10.535156 L 11.820312 10.53125 L 12.78125 10.644531 L 13.824219 10.769531 C 13.824219 10.769531 13.820312 10.769531 13.820312 10.769531 L 14.277344 10.183594 "/>
<path style=" stroke:none;fill-rule:nonzero;fill:rgb(54.509804%,58.431373%,62.352941%);fill-opacity:1;" d="M 11.820312 10.53125 L 11.824219 10.535156 L 11.332031 11.042969 L 11.332031 11.046875 L 12.21875 11.152344 L 12.21875 11.15625 L 12.78125 10.644531 L 11.820312 10.53125 "/>
<path style=" stroke:none;fill-rule:nonzero;fill:rgb(54.509804%,58.431373%,62.352941%);fill-opacity:1;" d="M 12.78125 10.644531 L 13.417969 11.296875 L 14.277344 11.398438 C 14.136719 11.1875 13.824219 10.773438 13.824219 10.769531 L 12.78125 10.644531 "/>
<path style=" stroke:none;fill-rule:nonzero;fill:rgb(70.980392%,72.54902%,76.862745%);fill-opacity:1;" d="M 13.820312 10.769531 C 13.820312 10.769531 13.824219 10.769531 13.824219 10.769531 C 13.824219 10.773438 14.136719 11.1875 14.277344 11.398438 L 14.277344 10.183594 L 13.820312 10.769531 "/>
<path style=" stroke:none;fill-rule:nonzero;fill:rgb(70.980392%,72.54902%,76.862745%);fill-opacity:1;" d="M 12.78125 15.804688 L 13.417969 16.34375 L 13.417969 11.296875 L 12.78125 10.644531 L 12.78125 15.804688 "/>
<path style=" stroke:none;fill-rule:nonzero;fill:rgb(100%,100%,100%);fill-opacity:1;" d="M 12.78125 10.644531 L 12.21875 11.15625 L 12.21875 16.464844 L 12.222656 16.464844 L 12.78125 15.804688 L 12.78125 10.644531 "/>
<path style=" stroke:none;fill-rule:nonzero;fill:rgb(54.509804%,58.431373%,62.352941%);fill-opacity:1;" d="M 12.78125 15.804688 L 12.222656 16.464844 L 12.78125 16.410156 L 13.417969 16.347656 L 13.417969 16.34375 L 12.78125 15.804688 "/>
<path style=" stroke:none;fill-rule:nonzero;fill:rgb(70.980392%,72.54902%,76.862745%);fill-opacity:1;" d="M 16.027344 12 L 15.535156 11.484375 L 15.53125 11.484375 L 15.53125 13.1875 L 16.027344 12.773438 L 16.027344 12 "/>
<path style=" stroke:none;fill-rule:nonzero;fill:rgb(100%,100%,100%);fill-opacity:1;" d="M 16.894531 12.824219 L 16.894531 11.945312 C 16.894531 11.832031 16.855469 11.726562 16.796875 11.65625 L 16.441406 11.996094 C 16.46875 12.015625 16.488281 12.046875 16.488281 12.082031 L 16.488281 12.671875 C 16.488281 12.726562 16.445312 12.773438 16.386719 12.773438 L 16.027344 12.773438 L 15.53125 13.1875 L 16.730469 13.1875 C 16.808594 13.117188 16.894531 12.960938 16.894531 12.824219 "/>
<path style=" stroke:none;fill-rule:nonzero;fill:rgb(54.509804%,58.431373%,62.352941%);fill-opacity:1;" d="M 17.535156 15.28125 L 16.988281 14.878906 L 16.558594 15.289062 L 17.535156 15.289062 L 17.535156 15.28125 "/>
<path style=" stroke:none;fill-rule:nonzero;fill:rgb(54.509804%,58.431373%,62.352941%);fill-opacity:1;" d="M 16.027344 11.980469 L 16.386719 11.980469 C 16.40625 11.980469 16.425781 11.988281 16.441406 11.996094 L 16.796875 11.65625 C 16.742188 11.59375 16.667969 11.554688 16.589844 11.554688 L 15.535156 11.484375 L 16.027344 12 L 16.027344 11.980469 "/>
<path style=" stroke:none;fill-rule:nonzero;fill:rgb(70.980392%,72.54902%,76.862745%);fill-opacity:1;" d="M 15.53125 14.894531 L 15.535156 14.894531 L 16.121094 15.285156 L 16.121094 13.632812 L 15.53125 13.1875 L 15.53125 14.894531 "/>
<path style=" stroke:none;fill-rule:nonzero;fill:rgb(54.509804%,58.431373%,62.352941%);fill-opacity:1;" d="M 16.726562 13.191406 C 16.726562 13.191406 16.730469 13.1875 16.730469 13.1875 L 15.53125 13.1875 L 16.121094 13.632812 L 16.246094 13.632812 L 16.726562 13.191406 "/>
<path style=" stroke:none;fill-rule:nonzero;fill:rgb(70.980392%,72.54902%,76.862745%);fill-opacity:1;" d="M 16.894531 11.945312 L 16.894531 12.824219 C 16.894531 12.960938 16.808594 13.117188 16.730469 13.1875 L 16.742188 13.179688 L 16.730469 13.1875 L 16.75 13.1875 L 16.730469 13.1875 L 16.726562 13.191406 L 16.988281 14.878906 L 17.535156 15.28125 L 17.21875 13.441406 C 17.355469 13.347656 17.449219 13.191406 17.449219 13.011719 L 17.449219 11.570312 C 17.449219 11.421875 17.382812 11.285156 17.277344 11.191406 L 16.796875 11.65625 C 16.855469 11.726562 16.894531 11.832031 16.894531 11.945312 "/>
<path style=" stroke:none;fill-rule:nonzero;fill:rgb(100%,100%,100%);fill-opacity:1;" d="M 16.726562 13.191406 L 16.246094 13.632812 L 16.253906 13.632812 L 16.554688 15.289062 L 16.558594 15.289062 L 16.988281 14.878906 L 16.726562 13.191406 "/>
<path style=" stroke:none;fill-rule:nonzero;fill:rgb(100%,100%,100%);fill-opacity:1;" d="M 15.511719 13.1875 L 15.53125 13.1875 L 15.53125 11.484375 L 15.535156 11.484375 L 16.589844 11.554688 C 16.667969 11.554688 16.742188 11.59375 16.796875 11.65625 L 17.277344 11.191406 C 17.1875 11.109375 17.066406 11.058594 16.933594 11.058594 L 15.140625 10.96875 L 15.140625 15.289062 L 15.144531 15.289062 L 15.53125 14.894531 L 15.53125 13.1875 L 15.511719 13.1875 "/>
<path style=" stroke:none;fill-rule:nonzero;fill:rgb(54.509804%,58.431373%,62.352941%);fill-opacity:1;" d="M 15.535156 14.894531 L 15.53125 14.894531 L 15.144531 15.289062 L 16.121094 15.289062 L 16.121094 15.285156 L 15.535156 14.894531 "/>
<path style=" stroke:none;fill-rule:nonzero;fill:rgb(100%,100%,100%);fill-opacity:1;" d="M 18.738281 11.082031 C 18.601562 11.082031 18.480469 11.132812 18.386719 11.21875 C 18.289062 11.3125 18.222656 11.445312 18.222656 11.59375 L 18.222656 15.308594 L 18.675781 14.863281 L 18.675781 11.9375 C 18.675781 11.808594 18.722656 11.695312 18.792969 11.621094 C 18.847656 11.566406 18.914062 11.53125 18.988281 11.53125 L 20.078125 11.492188 L 20.53125 11.035156 L 20.53125 11.027344 L 18.738281 11.082031 "/>
<path style=" stroke:none;fill-rule:nonzero;fill:rgb(54.509804%,58.431373%,62.352941%);fill-opacity:1;" d="M 19.769531 14.863281 L 18.675781 14.863281 L 18.222656 15.308594 L 20.019531 15.308594 C 20.132812 15.308594 20.242188 15.269531 20.328125 15.203125 L 19.925781 14.804688 C 19.878906 14.839844 19.824219 14.863281 19.769531 14.863281 "/>
<path style=" stroke:none;fill-rule:nonzero;fill:rgb(70.980392%,72.54902%,76.862745%);fill-opacity:1;" d="M 20.53125 14.792969 L 20.53125 11.035156 L 20.078125 11.492188 L 20.082031 11.492188 L 20.082031 14.457031 C 20.082031 14.605469 20.019531 14.734375 19.925781 14.804688 L 20.328125 15.203125 C 20.449219 15.109375 20.53125 14.960938 20.53125 14.792969 "/>
<path style=" stroke:none;fill-rule:nonzero;fill:rgb(70.980392%,72.54902%,76.862745%);fill-opacity:1;" d="M 19.101562 14.4375 L 19.101562 12.226562 C 19.101562 12.144531 19.132812 12.070312 19.1875 12.015625 C 19.105469 11.929688 18.949219 11.777344 18.792969 11.621094 C 18.722656 11.695312 18.675781 11.808594 18.675781 11.9375 L 18.675781 14.863281 L 19.101562 14.4375 "/>
<path style=" stroke:none;fill-rule:nonzero;fill:rgb(54.509804%,58.431373%,62.352941%);fill-opacity:1;" d="M 18.792969 11.621094 C 18.949219 11.777344 19.105469 11.929688 19.1875 12.015625 C 19.242188 11.957031 19.316406 11.921875 19.402344 11.921875 L 19.636719 11.921875 L 19.636719 11.933594 L 20.078125 11.492188 L 18.988281 11.53125 C 18.914062 11.53125 18.847656 11.566406 18.792969 11.621094 "/>
<path style=" stroke:none;fill-rule:nonzero;fill:rgb(100%,100%,100%);fill-opacity:1;" d="M 19.636719 14.136719 C 19.636719 14.242188 19.582031 14.332031 19.503906 14.386719 L 19.925781 14.804688 C 20.019531 14.734375 20.082031 14.605469 20.082031 14.457031 L 20.082031 11.492188 L 20.078125 11.492188 L 19.636719 11.933594 L 19.636719 14.136719 "/>
<path style=" stroke:none;fill-rule:nonzero;fill:rgb(100%,100%,100%);fill-opacity:1;" d="M 19.332031 14.4375 L 19.101562 14.4375 L 18.675781 14.863281 L 19.769531 14.863281 C 19.824219 14.863281 19.878906 14.839844 19.925781 14.804688 L 19.503906 14.386719 C 19.453125 14.421875 19.394531 14.4375 19.332031 14.4375 "/>
<path style=" stroke:none;fill-rule:nonzero;fill:rgb(70.980392%,72.54902%,76.862745%);fill-opacity:1;" d="M 22.824219 13.617188 L 22.824219 11.648438 L 22.4375 10.167969 L 21.992188 10.757812 L 22.824219 13.617188 "/>
<path style=" stroke:none;fill-rule:nonzero;fill:rgb(100%,100%,100%);fill-opacity:1;" d="M 23.925781 9.941406 L 23.261719 10.050781 L 22.832031 11.679688 L 22.824219 11.648438 L 22.824219 13.617188 L 23.753906 10.523438 L 23.753906 10.527344 L 24.59375 9.835938 L 23.925781 9.941406 "/>
<path style=" stroke:none;fill-rule:nonzero;fill:rgb(54.509804%,58.431373%,62.352941%);fill-opacity:1;" d="M 24.59375 9.835938 L 23.753906 10.527344 L 23.753906 10.523438 L 22.824219 13.617188 L 23.390625 13.878906 L 24.597656 9.835938 L 24.59375 9.835938 "/>
<path style=" stroke:none;fill-rule:nonzero;fill:rgb(70.980392%,72.54902%,76.862745%);fill-opacity:1;" d="M 22.824219 15.753906 L 22.828125 15.75 L 23.386719 16.460938 L 23.386719 13.886719 L 23.390625 13.878906 L 22.824219 13.617188 L 22.824219 15.753906 "/>
<path style=" stroke:none;fill-rule:nonzero;fill:rgb(100%,100%,100%);fill-opacity:1;" d="M 21.992188 10.757812 L 22.4375 10.167969 L 21.835938 10.214844 L 21.238281 10.261719 L 22.191406 13.675781 L 22.191406 16.347656 L 22.824219 15.753906 L 22.824219 13.617188 L 21.992188 10.757812 "/>
<path style=" stroke:none;fill-rule:nonzero;fill:rgb(54.509804%,58.431373%,62.352941%);fill-opacity:1;" d="M 22.828125 15.75 L 22.824219 15.753906 L 22.191406 16.347656 L 22.824219 16.410156 L 23.386719 16.464844 L 23.386719 16.460938 L 22.828125 15.75 "/>
<path style=" stroke:none;fill-rule:nonzero;fill:rgb(13.72549%,12.156863%,12.54902%);fill-opacity:1;" d="M 28.707031 16.652344 L 23.066406 16.652344 L 23.066406 17.496094 C 21.429688 16.871094 19.59375 16.535156 17.695312 16.535156 C 15.847656 16.535156 14.042969 16.855469 12.433594 17.457031 L 12.433594 16.652344 L 6.792969 16.652344 L 8.539062 19.0625 L 10.296875 19.0625 L 11.324219 20.746094 L 11.417969 20.6875 C 13.113281 19.589844 15.34375 18.984375 17.695312 18.984375 C 20.109375 18.984375 22.382812 19.617188 24.09375 20.765625 L 24.183594 20.824219 L 25.316406 19.0625 L 26.960938 19.0625 L 28.707031 16.652344 "/>
<path style=" stroke:none;fill-rule:nonzero;fill:rgb(68.235294%,11.372549%,30.196078%);fill-opacity:1;" d="M 8.652344 18.820312 C 8.59375 18.742188 7.429688 17.132812 7.21875 16.84375 L 12.042969 16.84375 L 10.125 18.578125 L 10.042969 18.632812 L 10.160156 18.820312 Z M 11.011719 18.066406 C 11.46875 17.652344 12.039062 17.140625 12.214844 16.980469 L 12.214844 17.519531 C 11.800781 17.683594 11.398438 17.863281 11.011719 18.066406 "/>
<path style=" stroke:none;fill-rule:nonzero;fill:rgb(68.235294%,11.372549%,30.196078%);fill-opacity:1;" d="M 25.335938 18.820312 L 25.453125 18.632812 L 25.371094 18.578125 L 23.453125 16.84375 L 28.277344 16.84375 C 28.070312 17.132812 26.90625 18.742188 26.847656 18.820312 Z M 23.28125 17.519531 L 23.28125 16.980469 C 23.460938 17.140625 24.03125 17.652344 24.484375 18.066406 C 24.097656 17.863281 23.699219 17.683594 23.28125 17.519531 "/>
<path style=" stroke:none;fill-rule:nonzero;fill:rgb(68.235294%,11.372549%,30.196078%);fill-opacity:1;" d="M 25.183594 18.820312 C 25.085938 18.753906 24.984375 18.691406 24.878906 18.628906 C 24.378906 18.328125 23.84375 18.0625 23.285156 17.828125 C 23.285156 17.828125 23.28125 17.828125 23.28125 17.828125 C 23.210938 17.800781 23.140625 17.769531 23.066406 17.742188 C 21.4375 17.101562 19.597656 16.761719 17.695312 16.761719 C 15.84375 16.761719 14.039062 17.089844 12.433594 17.699219 C 12.433594 17.699219 12.433594 17.703125 12.433594 17.703125 C 12.359375 17.730469 12.289062 17.757812 12.21875 17.785156 C 12.21875 17.785156 12.214844 17.785156 12.214844 17.785156 C 11.621094 18.027344 11.054688 18.304688 10.527344 18.621094 C 10.460938 18.660156 10.398438 18.699219 10.335938 18.738281 C 10.347656 18.753906 10.367188 18.785156 10.390625 18.824219 L 10.414062 18.859375 C 10.449219 18.917969 10.492188 18.992188 10.546875 19.078125 C 10.835938 19.550781 11.324219 20.347656 11.394531 20.464844 C 13.113281 19.378906 15.34375 18.78125 17.695312 18.78125 C 20.109375 18.78125 22.386719 19.40625 24.121094 20.539062 C 24.199219 20.417969 24.773438 19.523438 25.0625 19.078125 C 25.125 18.976562 25.175781 18.898438 25.203125 18.859375 L 25.183594 18.820312 "/>
<path style=" stroke:none;fill-rule:nonzero;fill:rgb(100%,100%,100%);fill-opacity:1;" d="M 12.003906 18.535156 L 12.414062 19.476562 L 12.152344 19.589844 L 11.738281 18.648438 L 11.226562 18.875 L 11.132812 18.667969 L 12.429688 18.101562 L 12.519531 18.308594 L 12.003906 18.535156 "/>
<path style=" stroke:none;fill-rule:nonzero;fill:rgb(100%,100%,100%);fill-opacity:1;" d="M 13.914062 17.886719 L 13.296875 18.054688 L 13.386719 18.390625 L 14.007812 18.222656 C 14.054688 18.210938 14.085938 18.195312 14.097656 18.175781 C 14.113281 18.15625 14.113281 18.128906 14.105469 18.09375 L 14.066406 17.949219 C 14.054688 17.914062 14.039062 17.890625 14.019531 17.882812 C 13.996094 17.871094 13.960938 17.875 13.914062 17.886719 Z M 13.296875 19.128906 L 12.964844 17.921875 L 13.980469 17.644531 C 14.074219 17.617188 14.144531 17.617188 14.199219 17.644531 C 14.25 17.667969 14.285156 17.722656 14.308594 17.804688 L 14.386719 18.089844 C 14.410156 18.167969 14.40625 18.234375 14.375 18.285156 C 14.339844 18.332031 14.277344 18.367188 14.183594 18.394531 L 14.03125 18.4375 L 14.699219 18.742188 L 14.304688 18.851562 L 13.703125 18.527344 L 13.445312 18.597656 L 13.570312 19.054688 L 13.296875 19.128906 "/>
<path style=" stroke:none;fill-rule:nonzero;fill:rgb(100%,100%,100%);fill-opacity:1;" d="M 15.410156 18.398438 L 16.34375 18.285156 L 16.25 17.5 L 15.316406 17.609375 Z M 15.039062 17.714844 C 15.023438 17.601562 15.035156 17.523438 15.074219 17.476562 C 15.109375 17.429688 15.1875 17.398438 15.308594 17.386719 L 16.203125 17.277344 C 16.320312 17.265625 16.402344 17.277344 16.449219 17.3125 C 16.496094 17.347656 16.527344 17.425781 16.539062 17.539062 L 16.617188 18.191406 C 16.632812 18.304688 16.621094 18.382812 16.582031 18.429688 C 16.546875 18.476562 16.46875 18.507812 16.351562 18.519531 L 15.457031 18.628906 C 15.335938 18.640625 15.253906 18.628906 15.207031 18.59375 C 15.160156 18.558594 15.128906 18.484375 15.117188 18.371094 L 15.039062 17.714844 "/>
<path style=" stroke:none;fill-rule:nonzero;fill:rgb(100%,100%,100%);fill-opacity:1;" d="M 17.464844 18.472656 C 17.347656 18.472656 17.265625 18.449219 17.222656 18.410156 C 17.179688 18.367188 17.160156 18.289062 17.160156 18.175781 L 17.160156 17.914062 L 17.449219 17.859375 L 17.449219 18.234375 L 18.007812 18.234375 L 18.007812 17.21875 L 18.292969 17.21875 L 18.292969 18.175781 C 18.292969 18.289062 18.273438 18.367188 18.230469 18.410156 C 18.1875 18.449219 18.109375 18.46875 17.988281 18.46875 L 17.464844 18.472656 "/>
<path style=" stroke:none;fill-rule:nonzero;fill:rgb(100%,100%,100%);fill-opacity:1;" d="M 19.238281 18.050781 L 19.769531 18.113281 L 19.570312 17.574219 Z M 18.632812 18.476562 L 19.472656 17.320312 L 19.746094 17.351562 L 20.292969 18.679688 L 19.976562 18.640625 L 19.863281 18.351562 L 19.089844 18.257812 L 18.914062 18.511719 L 18.632812 18.476562 "/>
<path style=" stroke:none;fill-rule:nonzero;fill:rgb(100%,100%,100%);fill-opacity:1;" d="M 20.707031 18.769531 L 21.035156 17.558594 L 21.222656 17.609375 L 21.863281 18.546875 C 21.886719 18.578125 21.90625 18.609375 21.921875 18.632812 C 21.9375 18.660156 21.949219 18.6875 21.960938 18.714844 C 21.976562 18.644531 21.984375 18.597656 21.992188 18.566406 C 22 18.539062 22.003906 18.519531 22.007812 18.503906 L 22.179688 17.867188 L 22.429688 17.933594 L 22.101562 19.144531 L 21.914062 19.09375 L 21.246094 18.109375 C 21.230469 18.085938 21.21875 18.0625 21.207031 18.042969 C 21.195312 18.023438 21.183594 18.003906 21.175781 17.984375 C 21.167969 18.023438 21.164062 18.0625 21.15625 18.09375 C 21.148438 18.128906 21.140625 18.15625 21.132812 18.179688 L 20.957031 18.835938 L 20.707031 18.769531 "/>
<path style=" stroke:none;fill-rule:nonzero;fill:rgb(100%,100%,100%);fill-opacity:1;" d="M 24.117188 18.875 L 23.390625 18.539062 L 23.277344 18.785156 L 23.96875 19.105469 C 24.078125 19.152344 24.144531 19.207031 24.164062 19.261719 C 24.1875 19.316406 24.171875 19.398438 24.125 19.5 L 24.054688 19.65625 C 24.007812 19.761719 23.953125 19.824219 23.898438 19.84375 C 23.84375 19.863281 23.757812 19.847656 23.648438 19.796875 L 22.964844 19.480469 C 22.855469 19.433594 22.789062 19.378906 22.769531 19.324219 C 22.746094 19.265625 22.761719 19.1875 22.808594 19.082031 L 22.824219 19.050781 L 23.074219 19.109375 L 23.011719 19.242188 L 23.800781 19.605469 L 23.917969 19.347656 L 23.226562 19.027344 C 23.117188 18.976562 23.050781 18.925781 23.03125 18.871094 C 23.011719 18.8125 23.023438 18.734375 23.074219 18.632812 L 23.128906 18.503906 C 23.179688 18.402344 23.230469 18.339844 23.285156 18.320312 C 23.339844 18.300781 23.421875 18.3125 23.53125 18.363281 L 24.160156 18.652344 C 24.265625 18.703125 24.332031 18.753906 24.351562 18.808594 C 24.375 18.863281 24.367188 18.9375 24.324219 19.03125 L 24.3125 19.054688 L 24.058594 19.003906 L 24.117188 18.875 "/>
<path style=" stroke:none;fill-rule:nonzero;fill:rgb(13.72549%,12.156863%,12.54902%);fill-opacity:1;" d="M 25.554688 19.382812 L 25.554688 19.648438 L 25.476562 19.648438 L 25.476562 19.382812 L 25.324219 19.382812 L 25.324219 19.324219 L 25.707031 19.324219 L 25.707031 19.382812 L 25.554688 19.382812 "/>
<path style=" stroke:none;fill-rule:nonzero;fill:rgb(13.72549%,12.156863%,12.54902%);fill-opacity:1;" d="M 25.816406 19.648438 L 25.816406 19.324219 L 25.878906 19.324219 L 26.035156 19.519531 L 26.1875 19.324219 L 26.25 19.324219 L 26.25 19.648438 L 26.179688 19.648438 L 26.179688 19.425781 L 26.039062 19.609375 L 26.023438 19.609375 L 25.878906 19.433594 L 25.878906 19.648438 L 25.816406 19.648438 "/>
</g>
</svg>
